<?xml version="1.0" encoding="UTF-8" standalone="no"?>
<!-- Created with Inkscape (http://www.inkscape.org/) -->

<svg
   xmlns:dc="http://purl.org/dc/elements/1.1/"
   xmlns:cc="http://creativecommons.org/ns#"
   xmlns:rdf="http://www.w3.org/1999/02/22-rdf-syntax-ns#"
   xmlns:svg="http://www.w3.org/2000/svg"
   xmlns="http://www.w3.org/2000/svg"
   xmlns:xlink="http://www.w3.org/1999/xlink"
   xmlns:sodipodi="http://sodipodi.sourceforge.net/DTD/sodipodi-0.dtd"
   xmlns:inkscape="http://www.inkscape.org/namespaces/inkscape"
   id="svg2"
   sodipodi:version="0.32"
   inkscape:version="0.91 r13725"
   width="256"
   height="256"
   version="1.0"
   sodipodi:docname="preferences-desktop-user-password.svg"
   inkscape:output_extension="org.inkscape.output.svg.inkscape">
  <metadata
     id="metadata7">
    <rdf:RDF>
      <cc:Work>
        <dc:format>image/svg+xml</dc:format>
        <dc:type
           rdf:resource="http://purl.org/dc/dcmitype/StillImage" />
        <dc:creator>
          <cc:Agent>
            <dc:title />
          </cc:Agent>
        </dc:creator>
        <dc:rights>
          <cc:Agent>
            <dc:title />
          </cc:Agent>
        </dc:rights>
        <dc:publisher>
          <cc:Agent>
            <dc:title />
          </cc:Agent>
        </dc:publisher>
        <cc:license
           rdf:resource="http://web.resource.org/cc/PublicDomain" />
      </cc:Work>
      <cc:License
         rdf:about="http://web.resource.org/cc/PublicDomain">
        <cc:permits
           rdf:resource="http://web.resource.org/cc/Reproduction" />
        <cc:permits
           rdf:resource="http://web.resource.org/cc/Distribution" />
        <cc:permits
           rdf:resource="http://web.resource.org/cc/DerivativeWorks" />
      </cc:License>
    </rdf:RDF>
  </metadata>
  <defs
     id="defs5">
    <linearGradient
       id="linearGradient3861">
      <stop
         id="stop3863"
         stop-color="#cbab45"
         stop-opacity="1" />
      <stop
         offset="1"
         id="stop3865"
         stop-color="#89691f"
         stop-opacity="1" />
    </linearGradient>
    <linearGradient
       id="linearGradient3021">
      <stop
         id="stop3023"
         stop-color="black"
         stop-opacity="1" />
      <stop
         id="stop3878"
         offset="0.834"
         stop-color="#000000"
         stop-opacity="1" />
      <stop
         offset="1"
         id="stop3025"
         stop-color="black"
         stop-opacity="0" />
    </linearGradient>
    <linearGradient
       id="linearGradient2892">
      <stop
         id="stop2894"
         stop-color="#cfaa49"
         stop-opacity="1" />
      <stop
         offset="0.5"
         id="stop2896"
         stop-color="#e0b572"
         stop-opacity="1" />
      <stop
         id="stop2898"
         offset="0.75"
         stop-color="#e6c383"
         stop-opacity="1" />
      <stop
         id="stop2900"
         offset="1"
         stop-color="#b18935"
         stop-opacity="1" />
    </linearGradient>
    <linearGradient
       inkscape:collect="always"
       id="linearGradient2780">
      <stop
         id="stop2782"
         stop-color="white"
         stop-opacity="0.64" />
      <stop
         offset="1"
         id="stop2784"
         stop-color="white"
         stop-opacity="0" />
    </linearGradient>
    <linearGradient
       id="linearGradient2770">
      <stop
         id="stop2772"
         stop-color="#000746"
         stop-opacity="1" />
      <stop
         id="stop3853"
         offset="0.587"
         stop-color="#112dbc"
         stop-opacity="1" />
      <stop
         offset="1"
         id="stop2774"
         stop-color="#7c95fd"
         stop-opacity="1" />
    </linearGradient>
    <linearGradient
       id="linearGradient2762">
      <stop
         id="stop2764"
         stop-color="#0f1f6e"
         stop-opacity="1" />
      <stop
         offset="1"
         id="stop2766"
         stop-color="#606eff"
         stop-opacity="1" />
    </linearGradient>
    <linearGradient
       y2="-7.475"
       x2="16.09"
       y1="-7.475"
       x1="13.515"
       spreadMethod="reflect"
       gradientUnits="userSpaceOnUse"
       id="linearGradient2595"
       xlink:href="#linearGradient3578"
       inkscape:collect="always" />
    <linearGradient
       y2="-7.475"
       x2="16.09"
       y1="-2.21"
       x1="15.65"
       spreadMethod="reflect"
       gradientUnits="userSpaceOnUse"
       id="linearGradient3610"
       xlink:href="#linearGradient3578"
       inkscape:collect="always" />
    <linearGradient
       y2="-7.475"
       x2="16.09"
       y1="-6.409"
       x1="10.621"
       spreadMethod="reflect"
       gradientUnits="userSpaceOnUse"
       id="linearGradient3608"
       xlink:href="#linearGradient3578"
       inkscape:collect="always" />
    <linearGradient
       y2="-1.513"
       x2="9.718"
       y1="-5.887"
       x1="11.187"
       spreadMethod="reflect"
       gradientUnits="userSpaceOnUse"
       id="linearGradient3606"
       xlink:href="#linearGradient3578"
       inkscape:collect="always" />
    <linearGradient
       y2="-4.516"
       x2="12.916"
       y1="-3.754"
       x1="7.771"
       spreadMethod="reflect"
       gradientUnits="userSpaceOnUse"
       id="linearGradient3604"
       xlink:href="#linearGradient3578"
       inkscape:collect="always" />
    <linearGradient
       y2="-3.733"
       x2="14.94"
       y1="-2.275"
       x1="17.08"
       spreadMethod="reflect"
       gradientUnits="userSpaceOnUse"
       id="linearGradient3602"
       xlink:href="#linearGradient3578"
       inkscape:collect="always" />
    <linearGradient
       y2="-1.992"
       x2="17.377"
       y1="-6.256"
       x1="15.582"
       spreadMethod="reflect"
       gradientUnits="userSpaceOnUse"
       id="linearGradient3600"
       xlink:href="#linearGradient3578"
       inkscape:collect="always" />
    <linearGradient
       y2="-7.475"
       x2="16.09"
       y1="-10.978"
       x1="16.691"
       spreadMethod="reflect"
       gradientUnits="userSpaceOnUse"
       id="linearGradient3598"
       xlink:href="#linearGradient3578"
       inkscape:collect="always" />
    <linearGradient
       y2="-11.199"
       x2="11.132"
       y1="-11.391"
       x1="16.387"
       spreadMethod="reflect"
       gradientUnits="userSpaceOnUse"
       id="linearGradient3596"
       xlink:href="#linearGradient3578"
       inkscape:collect="always" />
    <linearGradient
       y2="-2.688"
       x2="8.696"
       y1="-11.587"
       x1="12.04"
       spreadMethod="reflect"
       gradientUnits="userSpaceOnUse"
       id="linearGradient3594"
       xlink:href="#linearGradient3578"
       inkscape:collect="always" />
    <linearGradient
       y2="-5.778"
       x2="11.372"
       y1="-10.151"
       x1="12.906"
       spreadMethod="reflect"
       gradientUnits="userSpaceOnUse"
       id="linearGradient3592"
       xlink:href="#linearGradient3578"
       inkscape:collect="always" />
    <linearGradient
       y2="-6.953"
       x2="17.747"
       y1="-5.908"
       x1="16.387"
       spreadMethod="reflect"
       gradientUnits="userSpaceOnUse"
       id="linearGradient3590"
       xlink:href="#linearGradient3578"
       inkscape:collect="always" />
    <linearGradient
       y2="-8.02"
       x2="17.07"
       y1="-7.475"
       x1="13.515"
       spreadMethod="reflect"
       gradientUnits="userSpaceOnUse"
       id="linearGradient3588"
       xlink:href="#linearGradient3578"
       inkscape:collect="always" />
    <linearGradient
       y2="-6.583"
       x2="18.617"
       y1="-5.212"
       x1="16.909"
       spreadMethod="reflect"
       gradientUnits="userSpaceOnUse"
       id="linearGradient3586"
       xlink:href="#linearGradient3578"
       inkscape:collect="always" />
    <linearGradient
       id="linearGradient3578">
      <stop
         id="stop3580"
         stop-color="#000000"
         stop-opacity="1" />
      <stop
         id="stop3582"
         offset="1"
         stop-color="#fffcfc"
         stop-opacity="1" />
    </linearGradient>
    <filter
       id="filter3647"
       inkscape:collect="always">
      <feGaussianBlur
         id="feGaussianBlur3649"
         stdDeviation="3.05057"
         inkscape:collect="always" />
    </filter>
    <radialGradient
       r="13.818"
       fy="388.74"
       fx="779.51"
       cy="388.74"
       cx="779.51"
       gradientTransform="matrix(0.5505,-0.882224,0.946284,0.659412,-17.47299,820.1058)"
       gradientUnits="userSpaceOnUse"
       id="radialGradient2837"
       xlink:href="#linearGradient2826"
       inkscape:collect="always" />
    <pattern
       id="pattern2834"
       patternTransform="translate(542.5329,379.43)"
       height="17.629"
       width="17.629"
       patternUnits="userSpaceOnUse">
      <path
         sodipodi:type="arc"
         id="path2824"
         sodipodi:cx="779.51178"
         sodipodi:cy="388.74496"
         sodipodi:rx="13.075994"
         sodipodi:ry="13.818249"
         d="M 792.58777 388.74496 A 13.075994 13.818249 0 1 1  766.43579,388.74496 A 13.075994 13.818249 0 1 1  792.58777 388.74496 z"
         transform="matrix(0.674109,0,0,0.637899,-516.6613,-239.1654)"
         opacity="1"
         stroke-dasharray="none"
         stroke-opacity="1"
         fill="url(#radialGradient2837)"
         stroke="none"
         stroke-linejoin="round"
         fill-opacity="1"
         stroke-linecap="round"
         stroke-width="3.4"
         stroke-miterlimit="4" />
    </pattern>
    <linearGradient
       id="linearGradient2768">
      <stop
         id="stop2770"
         stop-color="#000003"
         stop-opacity="1" />
      <stop
         id="stop3651"
         stop-color="#0a104d"
         stop-opacity="1" />
      <stop
         offset="0.5"
         id="stop2776"
         stop-color="#142197"
         stop-opacity="1" />
      <stop
         id="stop2788"
         offset="0.75"
         stop-color="white"
         stop-opacity="1" />
      <stop
         id="stop3655"
         offset="1"
         stop-color="#161a3b"
         stop-opacity="1" />
    </linearGradient>
    <linearGradient
       id="linearGradient2802">
      <stop
         id="stop3642"
         stop-color="#000003"
         stop-opacity="0.471" />
      <stop
         id="stop2806"
         stop-color="#0a104d"
         stop-opacity="1" />
      <stop
         id="stop2808"
         offset="0.5"
         stop-color="#142197"
         stop-opacity="1" />
      <stop
         offset="0.75"
         id="stop2810"
         stop-color="white"
         stop-opacity="1" />
      <stop
         offset="1"
         id="stop3647"
         stop-color="#161a3b"
         stop-opacity="0" />
    </linearGradient>
    <linearGradient
       id="linearGradient2816"
       inkscape:collect="always">
      <stop
         id="stop2818"
         stop-color="white"
         stop-opacity="0.784" />
      <stop
         id="stop2820"
         offset="1"
         stop-color="white"
         stop-opacity="0" />
    </linearGradient>
    <linearGradient
       id="linearGradient2826"
       inkscape:collect="always">
      <stop
         id="stop2828"
         stop-color="#000003"
         stop-opacity="1" />
      <stop
         id="stop3636"
         offset="1"
         stop-color="#acacb8"
         stop-opacity="1" />
    </linearGradient>
    <linearGradient
       id="linearGradient2875"
       inkscape:collect="always">
      <stop
         id="stop2877"
         stop-color="#d2be31"
         stop-opacity="1" />
      <stop
         id="stop2879"
         offset="1"
         stop-color="#eccc1c"
         stop-opacity="1" />
    </linearGradient>
    <linearGradient
       id="linearGradient2883"
       inkscape:collect="always">
      <stop
         id="stop2885"
         stop-color="#936d16"
         stop-opacity="1" />
      <stop
         id="stop2887"
         offset="1"
         stop-color="#ded4bc"
         stop-opacity="1" />
    </linearGradient>
    <linearGradient
       id="linearGradient2824"
       inkscape:collect="always">
      <stop
         id="stop2826"
         stop-color="black"
         stop-opacity="1" />
      <stop
         id="stop2829"
         offset="1"
         stop-color="#a6a6a6"
         stop-opacity="1" />
    </linearGradient>
    <pattern
       patternTransform="matrix(1.22844,0,0,1.22844,772.823,439.3718)"
       id="pattern2852"
       xlink:href="#pattern2834"
       inkscape:collect="always" />
    <linearGradient
       inkscape:collect="always"
       id="linearGradient2878">
      <stop
         id="stop2880"
         stop-color="white"
         stop-opacity="0.784" />
      <stop
         offset="1"
         id="stop3613"
         stop-color="#a48787"
         stop-opacity="0" />
    </linearGradient>
    <linearGradient
       inkscape:collect="always"
       id="linearGradient2884">
      <stop
         id="stop2886"
         stop-color="white"
         stop-opacity="0.784" />
      <stop
         offset="1"
         id="stop2888"
         stop-color="#af9c9c"
         stop-opacity="0" />
    </linearGradient>
    <pattern
       patternTransform="matrix(0.3036863,0,0,0.3036863,163.08884,91.048601)"
       id="pattern3365"
       xlink:href="#pattern2852"
       inkscape:collect="always" />
    <linearGradient
       inkscape:collect="always"
       id="linearGradient3571">
      <stop
         id="stop3573"
         stop-color="#121f60"
         stop-opacity="1" />
      <stop
         offset="1"
         id="stop3575"
         stop-color="#5268ec"
         stop-opacity="1" />
    </linearGradient>
    <pattern
       patternTransform="matrix(0.2976541,0,0,0.2976541,-90.769231,91.709014)"
       id="pattern3606"
       xlink:href="#pattern3365"
       inkscape:collect="always" />
    <linearGradient
       inkscape:collect="always"
       xlink:href="#linearGradient3571"
       id="linearGradient4262"
       gradientUnits="userSpaceOnUse"
       gradientTransform="matrix(-0.2976541,0,0,0.2976541,251.85735,-21.22988)"
       spreadMethod="reflect"
       x1="92.91"
       y1="600.97"
       x2="311.46"
       y2="595.31" />
    <linearGradient
       inkscape:collect="always"
       xlink:href="#linearGradient3571"
       id="linearGradient4264"
       gradientUnits="userSpaceOnUse"
       gradientTransform="matrix(-0.2976541,0,0,0.2976541,252.25636,-21.229879)"
       spreadMethod="reflect"
       x1="198.81"
       y1="826.87"
       x2="360.91"
       y2="826.87" />
    <radialGradient
       inkscape:collect="always"
       xlink:href="#linearGradient2768"
       id="radialGradient4266"
       gradientUnits="userSpaceOnUse"
       gradientTransform="matrix(-0.2806692,-0.00901416,-0.0086549,0.269483,248.63008,-9.1383185)"
       cx="374.09"
       cy="282.23"
       fx="374.09"
       fy="282.23"
       r="212.86" />
    <radialGradient
       inkscape:collect="always"
       xlink:href="#linearGradient2802"
       id="radialGradient4268"
       gradientUnits="userSpaceOnUse"
       gradientTransform="matrix(-0.5367739,0.1070938,0.0868543,0.4353233,302.98821,-203.72633)"
       spreadMethod="reflect"
       cx="385.04"
       cy="475.95"
       fx="385.04"
       fy="475.95"
       r="92.53" />
    <linearGradient
       inkscape:collect="always"
       xlink:href="#linearGradient2883"
       id="linearGradient4270"
       gradientUnits="userSpaceOnUse"
       gradientTransform="matrix(-0.2976541,0,0,0.2976541,396.30028,-22.825933)"
       spreadMethod="reflect"
       x1="914.93"
       y1="636.57"
       x2="918.92"
       y2="529.32" />
    <linearGradient
       inkscape:collect="always"
       xlink:href="#linearGradient2875"
       id="linearGradient4272"
       gradientUnits="userSpaceOnUse"
       gradientTransform="matrix(-0.2976541,0,0,0.2976541,396.30028,-22.825933)"
       x1="906.2"
       y1="615.12"
       x2="912.9"
       y2="481.07" />
    <linearGradient
       inkscape:collect="always"
       xlink:href="#linearGradient3571"
       id="linearGradient4274"
       gradientUnits="userSpaceOnUse"
       gradientTransform="matrix(-0.2976541,0,0,0.2976541,252.25636,-21.229879)"
       spreadMethod="reflect"
       x1="149.19"
       y1="825.01"
       x2="93.41"
       y2="820.31" />
    <linearGradient
       inkscape:collect="always"
       xlink:href="#linearGradient3571"
       id="linearGradient4276"
       gradientUnits="userSpaceOnUse"
       gradientTransform="matrix(-0.2976541,0,0,0.2976541,252.25636,-21.229879)"
       spreadMethod="reflect"
       x1="683.48"
       y1="829.48"
       x2="642.19"
       y2="835.33" />
    <linearGradient
       inkscape:collect="always"
       xlink:href="#linearGradient2884"
       id="linearGradient4278"
       gradientUnits="userSpaceOnUse"
       gradientTransform="matrix(-0.2423025,0,0,0.2423025,278.02619,-14.751873)"
       x1="383.23"
       y1="402.17"
       x2="335.95"
       y2="393.42" />
    <linearGradient
       inkscape:collect="always"
       xlink:href="#linearGradient2824"
       id="linearGradient4280"
       gradientUnits="userSpaceOnUse"
       x1="526.36"
       y1="1059.45"
       x2="714.93"
       y2="863.46" />
    <linearGradient
       inkscape:collect="always"
       xlink:href="#linearGradient2816"
       id="linearGradient4282"
       gradientUnits="userSpaceOnUse"
       gradientTransform="matrix(-0.2976541,0,0,0.2976541,252.25637,-21.22988)"
       x1="386.82"
       y1="69.791"
       x2="371.85"
       y2="407.75" />
    <linearGradient
       inkscape:collect="always"
       xlink:href="#linearGradient2878"
       id="linearGradient4284"
       gradientUnits="userSpaceOnUse"
       gradientTransform="matrix(0.2423025,0,0,0.2423025,-0.7903454,-15.054934)"
       x1="383.23"
       y1="402.17"
       x2="344.71"
       y2="394.67" />
    <radialGradient
       inkscape:collect="always"
       xlink:href="#linearGradient3021"
       id="radialGradient4294"
       gradientUnits="userSpaceOnUse"
       gradientTransform="matrix(-0.01902752,-2.1422044,2.1358913,-0.01897145,-85.171201,105.27154)"
       cx="-34.85"
       cy="89.74"
       fx="-27.528"
       fy="112.9"
       r="31.746" />
    <radialGradient
       inkscape:collect="always"
       xlink:href="#linearGradient2770"
       id="radialGradient4296"
       gradientUnits="userSpaceOnUse"
       gradientTransform="matrix(0.01797425,-1.4538422,1.6365019,0.02023252,-73.74198,208.69538)"
       spreadMethod="reflect"
       cx="79.13"
       cy="95.9"
       fx="79.13"
       fy="95.9"
       r="32.824" />
    <linearGradient
       inkscape:collect="always"
       xlink:href="#linearGradient2762"
       id="linearGradient4298"
       gradientUnits="userSpaceOnUse"
       gradientTransform="matrix(0.997533,0,0,1.166039,3.286102,16.02267)"
       x1="82.978"
       y1="76.72"
       x2="40.705"
       y2="25.16" />
    <radialGradient
       inkscape:collect="always"
       xlink:href="#linearGradient2780"
       id="radialGradient4300"
       gradientUnits="userSpaceOnUse"
       gradientTransform="matrix(-0.07746205,1.9538541,-0.9592844,-0.03803157,116.59407,-8.799181)"
       cx="42.07"
       cy="72.942"
       fx="42.07"
       fy="72.942"
       r="14.881" />
    <radialGradient
       inkscape:collect="always"
       xlink:href="#linearGradient2892"
       id="radialGradient4302"
       gradientUnits="userSpaceOnUse"
       gradientTransform="matrix(1,0,0,1.1082803,0,-3.8514207)"
       cx="60.854"
       cy="35.569"
       fx="66.852"
       fy="46.989"
       r="18.994" />
    <linearGradient
       inkscape:collect="always"
       xlink:href="#linearGradient3861"
       id="linearGradient4304"
       gradientUnits="userSpaceOnUse"
       gradientTransform="matrix(2.5642282,0,0,2.4807994,-45.000529,-9.0633392)"
       x1="49.39"
       y1="17.658"
       x2="59.755"
       y2="33.647" />
  </defs>
  <sodipodi:namedview
     inkscape:window-height="1057"
     inkscape:window-width="1920"
     inkscape:pageshadow="2"
     inkscape:pageopacity="0.0"
     guidetolerance="10.0"
     gridtolerance="10.0"
     objecttolerance="10.0"
     borderopacity="1.0"
     bordercolor="#666666"
     pagecolor="#ffffff"
     id="base"
     inkscape:zoom="3.3984375"
     inkscape:cx="128"
     inkscape:cy="128"
     inkscape:window-x="-2"
     inkscape:window-y="-5"
     inkscape:current-layer="svg2"
     width="256"
     height="256"
     showgrid="false"
     inkscape:window-maximized="1" />
  <g
     inkscape:label="1. réteg"
     id="layer1"
     transform="translate(3.1186764,0.6998111)">
    <g
       id="g2637">
      <g
         id="g3612"
         transform="translate(-2.5722563,0)">
        <g
           id="g2650"
           stroke-opacity="1"
           fill="url(#linearGradient2595)"
           font-family="Bitstream Vera Sans"
           stroke="none"
           font-style="normal"
           stroke-linejoin="miter"
           fill-opacity="1"
           font-weight="normal"
           stroke-linecap="butt"
           stroke-width="1"
           font-size="12">
          <path
             id="path2652"
             d="M 16.1875,-12.21875 L 12.09375,-12.1875 L 12.800857,-11.480393 L 16.894607,-11.511643 L 16.1875,-12.21875 z"
             fill="url(#linearGradient2595)"
             fill-opacity="1" />
          <path
             id="path2654"
             d="M 12.09375,-12.1875 L 8.75,-3.4375 L 9.4571068,-2.7303932 L 12.800857,-11.480393 L 12.09375,-12.1875 z"
             fill="url(#linearGradient2595)"
             fill-opacity="1" />
          <path
             id="path2662"
             d="M 14.75,-5.6875 L 15.53125,-3.46875 L 16.238357,-2.7616432 L 15.457107,-4.9803932 L 14.75,-5.6875 z"
             fill="url(#linearGradient2595)"
             fill-opacity="1" />
          <path
             id="path2664"
             d="M 15.53125,-3.46875 L 15.53125,-3.4375 L 16.238357,-2.7303932 L 16.238357,-2.7616432 L 15.53125,-3.46875 z"
             fill="url(#linearGradient2595)"
             fill-opacity="1" />
          <path
             id="path2672"
             d="M 17.92037,-11.519527 C 17.478803,-11.961094 16.896486,-12.233764 16.1875,-12.21875 L 16.894607,-11.511643 C 17.603593,-11.526657 18.185909,-11.253988 18.627477,-10.81242 L 17.92037,-11.519527 z"
             fill="url(#linearGradient2595)"
             fill-opacity="1" />
          <path
             id="path2674"
             d="M 16.21875,-11.96875 C 16.818366,-11.965939 17.317195,-11.725944 17.700221,-11.342918 L 18.407328,-10.635811 C 18.024302,-11.018837 17.525473,-11.258832 16.925857,-11.261643 L 16.21875,-11.96875 z"
             fill="url(#linearGradient3598)"
             fill-opacity="1" />
          <path
             id="path2676"
             d="M 17.700221,-11.342918 C 19.261676,-9.7814631 18.898615,-5.8429893 15.59375,-5.90625 L 16.300857,-5.1991432 C 19.605722,-5.1358825 19.968783,-9.0743563 18.407328,-10.635811 L 17.700221,-11.342918 z"
             fill="url(#linearGradient2595)"
             fill-opacity="1" />
          <path
             id="path2678"
             d="M 15.59375,-5.90625 L 16.375,-3.71875 L 17.082107,-3.0116432 L 16.300857,-5.1991432 L 15.59375,-5.90625 z"
             fill="url(#linearGradient2595)"
             fill-opacity="1" />
          <path
             id="path2680"
             d="M 16.375,-3.71875 L 15.71875,-3.71875 L 16.425857,-3.0116432 L 17.082107,-3.0116432 L 16.375,-3.71875 z"
             fill="url(#linearGradient2595)"
             fill-opacity="1" />
          <path
             id="path2684"
             d="M 14.875,-5.96875 L 10.5625,-5.96875 L 11.269607,-5.2616432 L 15.582107,-5.2616432 L 14.875,-5.96875 z"
             fill="url(#linearGradient2595)"
             fill-opacity="1" />
          <path
             id="path2686"
             d="M 10.5625,-5.96875 L 9.75,-3.75 L 10.457107,-3.0428932 L 11.269607,-5.2616432 L 10.5625,-5.96875 z"
             fill="url(#linearGradient2595)"
             fill-opacity="1" />
          <path
             id="path2690"
             d="M 9.1875,-3.75 L 12.28125,-11.90625 L 12.988357,-11.199143 L 9.8946068,-3.0428932 L 9.1875,-3.75 z"
             fill="url(#linearGradient3594)"
             fill-opacity="1" />
          <path
             id="path2660"
             d="M 10.8125,-5.6875 L 14.75,-5.6875 L 15.457107,-4.9803932 L 11.519607,-4.9803932 L 10.8125,-5.6875 z"
             fill="url(#linearGradient3608)"
             fill-opacity="1" />
          <path
             id="path2682"
             d="M 15.71875,-3.71875 L 14.875,-5.96875 L 15.582107,-5.2616432 L 16.425857,-3.0116432 L 15.71875,-3.71875 z"
             fill="url(#linearGradient3610)"
             fill-opacity="1" />
          <path
             id="path2688"
             d="M 9.75,-3.75 L 9.1875,-3.75 L 9.8946068,-3.0428932 L 10.457107,-3.0428932 L 9.75,-3.75 z"
             fill="url(#linearGradient2595)"
             fill-opacity="1" />
          <path
             id="path2692"
             d="M 12.28125,-11.90625 L 16.21875,-11.96875 L 16.925857,-11.261643 L 12.988357,-11.199143 L 12.28125,-11.90625 z"
             fill="url(#linearGradient3596)"
             fill-opacity="1" />
          <path
             id="path2694"
             d="M 13.59375,-11.375 L 15.4375,-6.4375 L 16.144607,-5.7303932 L 14.300857,-10.667893 L 13.59375,-11.375 z"
             fill="url(#linearGradient2595)"
             fill-opacity="1" />
          <path
             id="path2698"
             d="M 17.29651,-10.694689 C 16.87154,-11.11966 16.292483,-11.392236 15.59375,-11.375 L 16.300857,-10.667893 C 16.99959,-10.685129 17.578646,-10.412554 18.003617,-9.9875826 L 17.29651,-10.694689 z"
             fill="url(#linearGradient2595)"
             fill-opacity="1" />
          <path
             id="path2700"
             d="M 15.59375,-11.375 L 13.59375,-11.375 L 14.300857,-10.667893 L 16.300857,-10.667893 L 15.59375,-11.375 z"
             fill="url(#linearGradient2595)"
             fill-opacity="1" />
          <path
             id="path2702"
             d="M 12.5,-11.25 L 10.71875,-6.375 L 11.425857,-5.6678932 L 13.207107,-10.542893 L 12.5,-11.25 z"
             fill="url(#linearGradient2595)"
             fill-opacity="1" />
          <path
             id="path2704"
             d="M 10.71875,-6.375 L 14.71875,-6.3125 L 15.425857,-5.6053932 L 11.425857,-5.6678932 L 10.71875,-6.375 z"
             fill="url(#linearGradient2595)"
             fill-opacity="1" />
          <path
             id="path2706"
             d="M 14.71875,-6.3125 L 12.96875,-11.25 L 13.675857,-10.542893 L 15.425857,-5.6053932 L 14.71875,-6.3125 z"
             fill="url(#linearGradient2595)"
             fill-opacity="1" />
          <path
             id="path2708"
             d="M 12.96875,-11.25 L 12.5,-11.25 L 13.207107,-10.542893 L 13.675857,-10.542893 L 12.96875,-11.25 z"
             fill="url(#linearGradient2595)"
             fill-opacity="1" />
          <path
             id="path2710"
             d="M 13.96875,-11.125 L 15.5625,-11.125 L 16.269607,-10.417893 L 14.675857,-10.417893 L 13.96875,-11.125 z"
             fill="url(#linearGradient2595)"
             fill-opacity="1" />
          <path
             id="path2712"
             d="M 15.5625,-11.125 C 16.263236,-11.142285 16.807643,-10.897983 17.18911,-10.516516 L 17.896217,-9.8094094 C 17.51475,-10.190876 16.970342,-10.435179 16.269607,-10.417893 L 15.5625,-11.125 z"
             fill="url(#linearGradient2595)"
             fill-opacity="1" />
          <path
             id="path2714"
             d="M 17.18911,-10.516516 C 18.415922,-9.2897044 17.957455,-6.644214 15.59375,-6.71875 L 16.300857,-6.0116432 C 18.664562,-5.9371073 19.123029,-8.5825976 17.896217,-9.8094094 L 17.18911,-10.516516 z"
             fill="url(#linearGradient3588)"
             fill-opacity="1" />
          <path
             id="path2716"
             d="M 15.59375,-6.71875 L 13.96875,-11.125 L 14.675857,-10.417893 L 16.300857,-6.0116432 L 15.59375,-6.71875 z"
             fill="url(#linearGradient2595)"
             fill-opacity="1" />
          <path
             id="path2696"
             d="M 15.4375,-6.4375 C 18.434536,-6.3628978 18.668368,-9.3228317 17.29651,-10.694689 L 18.003617,-9.9875826 C 19.375475,-8.6157249 19.141643,-5.655791 16.144607,-5.7303932 L 15.4375,-6.4375 z"
             fill="url(#linearGradient3590)"
             fill-opacity="1" />
          <path
             id="path2722"
             d="M 11.15625,-6.65625 L 12.75,-11.03125 L 13.457107,-10.324143 L 11.863357,-5.9491432 L 11.15625,-6.65625 z"
             fill="url(#linearGradient3592)"
             fill-opacity="1" />
          <path
             id="path2718"
             d="M 12.75,-11.03125 L 14.375,-6.65625 L 15.082107,-5.9491432 L 13.457107,-10.324143 L 12.75,-11.03125 z"
             fill="url(#linearGradient2595)"
             fill-opacity="1" />
          <path
             id="path2720"
             d="M 14.375,-6.65625 L 11.15625,-6.65625 L 11.863357,-5.9491432 L 15.082107,-5.9491432 L 14.375,-6.65625 z"
             fill="url(#linearGradient2595)"
             fill-opacity="1" />
          <path
             id="path2670"
             d="M 15.96875,-5.6875 C 19.235011,-5.6249782 19.618583,-9.8213136 17.92037,-11.519527 L 18.627477,-10.81242 C 20.32569,-9.1142068 19.942118,-4.9178714 16.675857,-4.9803932 L 15.96875,-5.6875 z"
             fill="url(#linearGradient3586)"
             fill-opacity="1" />
          <path
             id="path2668"
             d="M 16.78125,-3.4375 L 15.96875,-5.6875 L 16.675857,-4.9803932 L 17.488357,-2.7303932 L 16.78125,-3.4375 z"
             fill="url(#linearGradient3600)"
             fill-opacity="1" />
          <path
             id="path2666"
             d="M 15.53125,-3.4375 L 16.78125,-3.4375 L 17.488357,-2.7303932 L 16.238357,-2.7303932 L 15.53125,-3.4375 z"
             fill="url(#linearGradient3602)"
             fill-opacity="1" />
          <path
             id="path2656"
             d="M 8.75,-3.4375 L 10,-3.4375 L 10.707107,-2.7303932 L 9.4571068,-2.7303932 L 8.75,-3.4375 z"
             fill="url(#linearGradient3604)"
             fill-opacity="1" />
          <path
             id="path2658"
             d="M 10,-3.4375 L 10.8125,-5.6875 L 11.519607,-4.9803932 L 10.707107,-2.7303932 L 10,-3.4375 z"
             fill="url(#linearGradient3606)"
             fill-opacity="1" />
        </g>
        <path
           id="path2505"
           d="M 16.1875,-12.175236 L 12.09375,-12.143986 L 8.7499996,-3.3939857 L 9.9999996,-3.3939857 L 10.8125,-5.6439857 L 14.75,-5.6439857 L 15.53125,-3.4252357 L 15.53125,-3.3939857 L 16.78125,-3.3939857 L 15.96875,-5.6439857 C 20.084301,-5.565207 19.623157,-12.247993 16.1875,-12.175236 z M 16.21875,-11.925236 C 19.262779,-11.910965 19.709301,-5.7839571 15.59375,-5.8627357 L 16.375,-3.6752357 L 15.71875,-3.6752357 L 14.875,-5.9252357 L 10.5625,-5.9252357 L 9.7499996,-3.7064857 L 9.1874996,-3.7064857 L 12.28125,-11.862736 L 16.21875,-11.925236 z M 13.59375,-11.331486 L 15.4375,-6.3939857 C 19.362951,-6.2962734 18.548077,-11.404362 15.59375,-11.331486 L 13.59375,-11.331486 z M 12.5,-11.206486 L 10.71875,-6.3314857 L 14.71875,-6.2689857 L 12.96875,-11.206486 L 12.5,-11.206486 z M 13.96875,-11.081486 L 15.5625,-11.081486 C 18.516827,-11.154362 18.69243,-6.5775234 15.59375,-6.6752357 L 13.96875,-11.081486 z M 12.75,-10.987736 L 14.375,-6.6127357 L 11.15625,-6.6127357 L 12.75,-10.987736 z"
           stroke-opacity="1"
           fill="#333333"
           font-family="Bitstream Vera Sans"
           stroke="none"
           font-style="normal"
           stroke-linejoin="miter"
           fill-opacity="1"
           font-weight="normal"
           stroke-linecap="butt"
           stroke-width="1"
           font-size="12" />
      </g>
      <path
         id="text2170"
         d="M 6.0871491,-4.0239012 C 6.0766271,-4.0350472 6.0650871,-4.0430982 6.0525291,-4.0480532 C 6.0403101,-4.0536252 6.0267331,-4.0564122 6.0117991,-4.0564132 C 5.9588511,-4.0564122 5.9181211,-4.0248292 5.8896111,-3.9616652 C 5.8614391,-3.8991182 5.8473541,-3.8090152 5.8473541,-3.6913552 L 5.8473541,-3.1433032 L 5.7531671,-3.1433032 L 5.7531671,-4.1836722 L 5.8473541,-4.1836722 L 5.8473541,-4.0220442 C 5.8670401,-4.0852082 5.8926651,-4.1319622 5.9242311,-4.1623082 C 5.9557961,-4.1932692 5.9941491,-4.2087522 6.0392921,-4.2087532 C 6.0457401,-4.2087522 6.0528681,-4.2078222 6.0606751,-4.2059662 C 6.0684811,-4.2047262 6.0771361,-4.2025592 6.0866401,-4.1994642 L 6.0871491,-4.0239012 M 6.3849841,-4.0638442 C 6.3347511,-4.0638432 6.2950401,-4.0279262 6.2658501,-3.9560922 C 6.2366611,-3.8848752 6.2220661,-3.7870312 6.2220661,-3.6625592 C 6.2220661,-3.5380862 6.2364911,-3.4399322 6.2653411,-3.3680972 C 6.2945301,-3.2968812 6.3344111,-3.2612732 6.3849841,-3.2612732 C 6.4348791,-3.2612732 6.4744201,-3.2971912 6.5036101,-3.3690262 C 6.5327991,-3.4408612 6.5473941,-3.5387052 6.5473941,-3.6625592 C 6.5473941,-3.7857922 6.5327991,-3.8833272 6.5036101,-3.9551632 C 6.4744201,-4.0276162 6.4348791,-4.0638432 6.3849841,-4.0638442 M 6.3849841,-4.2087532 C 6.4664441,-4.2087522 6.5304231,-4.1604492 6.5769231,-4.0638442 C 6.6234221,-3.9672382 6.6466721,-3.8334762 6.6466731,-3.6625592 C 6.6466721,-3.4922602 6.6234221,-3.3584982 6.5769231,-3.2612732 C 6.5304231,-3.1646682 6.4664441,-3.1163652 6.3849841,-3.1163652 C 6.3031851,-3.1163652 6.2390361,-3.1646682 6.1925371,-3.2612732 C 6.1463771,-3.3584982 6.1232971,-3.4922602 6.1232971,-3.6625592 C 6.1232971,-3.8334762 6.1463771,-3.9672382 6.1925371,-4.0638442 C 6.2390361,-4.1604492 6.3031851,-4.2087522 6.3849841,-4.2087532 M 7.0224031,-4.0638442 C 6.9721701,-4.0638432 6.9324581,-4.0279262 6.9032691,-3.9560922 C 6.8740791,-3.8848752 6.8594851,-3.7870312 6.8594851,-3.6625592 C 6.8594851,-3.5380862 6.8739101,-3.4399322 6.9027601,-3.3680972 C 6.9319491,-3.2968812 6.9718301,-3.2612732 7.0224031,-3.2612732 C 7.0722961,-3.2612732 7.1118381,-3.2971912 7.1410281,-3.3690262 C 7.1702171,-3.4408612 7.1848121,-3.5387052 7.1848121,-3.6625592 C 7.1848121,-3.7857922 7.1702171,-3.8833272 7.1410281,-3.9551632 C 7.1118381,-4.0276162 7.0722961,-4.0638432 7.0224031,-4.0638442 M 7.0224031,-4.2087532 C 7.1038621,-4.2087522 7.1678411,-4.1604492 7.2143411,-4.0638442 C 7.2608401,-3.9672382 7.2840901,-3.8334762 7.2840901,-3.6625592 C 7.2840901,-3.4922602 7.2608401,-3.3584982 7.2143411,-3.2612732 C 7.1678411,-3.1646682 7.1038621,-3.1163652 7.0224031,-3.1163652 C 6.9406041,-3.1163652 6.8764551,-3.1646682 6.8299561,-3.2612732 C 6.7837951,-3.3584982 6.7607161,-3.4922602 6.7607161,-3.6625592 C 6.7607161,-3.8334762 6.7837951,-3.9672382 6.8299561,-4.0638442 C 6.8764551,-4.1604492 6.9406041,-4.2087522 7.0224031,-4.2087532 M 7.5315231,-4.4790632 L 7.5315231,-4.1836722 L 7.7244781,-4.1836722 L 7.7244781,-4.0508402 L 7.5315231,-4.0508402 L 7.5315231,-3.4860682 C 7.5315221,-3.4012282 7.5378011,-3.3467322 7.5503591,-3.3225812 C 7.5632571,-3.2984292 7.5892221,-3.2863532 7.6282551,-3.2863542 L 7.7244781,-3.2863542 L 7.7244781,-3.1433032 L 7.6282551,-3.1433032 C 7.5559591,-3.1433032 7.5060671,-3.1677642 7.4785741,-3.2166862 C 7.4510821,-3.2662282 7.4373361,-3.3560212 7.4373361,-3.4860682 L 7.4373361,-4.0508402 L 7.3686041,-4.0508402 L 7.3686041,-4.1836722 L 7.4373361,-4.1836722 L 7.4373361,-4.4790632 L 7.5315231,-4.4790632 M 7.9551091,-4.3759552 L 7.9551091,-3.8548412 L 8.0844261,-3.8548412 C 8.1322831,-3.8548412 8.1692791,-3.8774442 8.1954141,-3.9226512 C 8.2215481,-3.9678572 8.2346161,-4.0322602 8.2346161,-4.1158622 C 8.2346161,-4.1988432 8.2215481,-4.2629372 8.1954141,-4.3081452 C 8.1692791,-4.3533502 8.1322831,-4.3759542 8.0844261,-4.3759552 L 7.9551091,-4.3759552 M 7.8522671,-4.5301522 L 8.0844261,-4.5301522 C 8.1696181,-4.5301512 8.2339371,-4.4948522 8.2773821,-4.4242582 C 8.3211661,-4.3542792 8.3430581,-4.2514812 8.3430581,-4.1158622 C 8.3430581,-3.9790032 8.3211661,-3.8755862 8.2773821,-3.8056102 C 8.2339371,-3.7356322 8.1696181,-3.7006432 8.0844261,-3.7006432 L 7.9551091,-3.7006432 L 7.9551091,-3.1433032 L 7.8522671,-3.1433032 L 7.8522671,-4.5301522 M 8.6897691,-3.6662742 C 8.6140801,-3.6662742 8.5616401,-3.6504832 8.5324511,-3.6189002 C 8.5032611,-3.5873172 8.4886671,-3.5334412 8.4886671,-3.4572722 C 8.4886671,-3.3965832 8.4995281,-3.3482812 8.5212501,-3.3123632 C 8.5433121,-3.2770652 8.5731801,-3.2594162 8.6108561,-3.2594162 C 8.6627861,-3.2594162 8.7043641,-3.2928562 8.7355901,-3.3597372 C 8.7671551,-3.4272372 8.7829381,-3.5167212 8.7829381,-3.6281902 L 8.7829381,-3.6662742 L 8.6897691,-3.6662742 M 8.8766161,-3.7368712 L 8.8766161,-3.1433032 L 8.7829381,-3.1433032 L 8.7829381,-3.3012162 C 8.7615551,-3.2380512 8.7349111,-3.1912962 8.7030061,-3.1609522 C 8.6711011,-3.1312272 8.6320691,-3.1163652 8.5859091,-3.1163652 C 8.5275291,-3.1163652 8.4810301,-3.1460902 8.4464101,-3.2055402 C 8.4121291,-3.2656082 8.3949891,-3.3458032 8.3949891,-3.4461252 C 8.3949891,-3.5631662 8.4163721,-3.6514122 8.4591381,-3.7108622 C 8.5022431,-3.7703102 8.5663921,-3.8000352 8.6515851,-3.8000362 L 8.7829381,-3.8000362 L 8.7829381,-3.8167562 C 8.7829381,-3.8954022 8.7686821,-3.9560912 8.7401721,-3.9988212 C 8.7120001,-4.0421682 8.6722891,-4.0638432 8.6210381,-4.0638442 C 8.5884541,-4.0638432 8.5567191,-4.0567212 8.5258321,-4.0424792 C 8.4949461,-4.0282352 8.4652471,-4.0068712 8.4367361,-3.9783852 L 8.4367361,-4.1362982 C 8.4710171,-4.1604492 8.5042801,-4.1784082 8.5365241,-4.1901742 C 8.5687681,-4.2025592 8.6001641,-4.2087522 8.6307111,-4.2087532 C 8.7131881,-4.2087522 8.7747921,-4.1697372 8.8155221,-4.0917112 C 8.8562511,-4.0136832 8.8766151,-3.8954022 8.8766161,-3.7368712 M 9.0700821,-4.5886732 L 9.1637601,-4.5886732 L 9.1637601,-3.1433032 L 9.0700821,-3.1433032 L 9.0700821,-4.5886732 M 9.7173101,-3.6686217 C 9.7173091,-3.5800657 9.7293591,-3.5103987 9.7534571,-3.4596187 C 9.7775551,-3.4094577 9.8106481,-3.3843777 9.8527351,-3.3843777 C 9.8944841,-3.3843777 9.9272371,-3.4097677 9.9509961,-3.4605477 C 9.9750941,-3.5113277 9.9871441,-3.5806857 9.9871441,-3.6686217 C 9.9871441,-3.7553187 9.9749251,-3.8240567 9.9504871,-3.8748377 C 9.9260491,-3.9262367 9.8931261,-3.9519357 9.8517171,-3.9519367 C 9.8106481,-3.9519357 9.7778941,-3.9265457 9.7534571,-3.8757667 C 9.7293591,-3.8249857 9.7173091,-3.7559377 9.7173101,-3.6686217 M 9.9947811,-3.3908797 C 9.9744161,-3.3431967 9.9509961,-3.3078987 9.9245221,-3.2849857 C 9.8983871,-3.2626917 9.8678391,-3.2515447 9.8328801,-3.2515447 C 9.7745001,-3.2515447 9.7269831,-3.2899397 9.6903261,-3.3667287 C 9.6540091,-3.4441367 9.6358501,-3.5447677 9.6358501,-3.6686217 C 9.6358501,-3.7924747 9.6541781,-3.8931047 9.6908361,-3.9705147 C 9.7274921,-4.0479217 9.7748401,-4.0866257 9.8328801,-4.0866267 C 9.8678391,-4.0866257 9.8985571,-4.0748597 9.9250311,-4.0513287 C 9.9515051,-4.0284147 9.9747551,-3.9934267 9.9947811,-3.9463627 L 9.9947811,-4.0680487 L 10.067585,-4.0680487 L 10.067585,-3.3843777 C 10.117139,-3.3980017 10.155832,-3.4391827 10.183664,-3.5079217 C 10.211835,-3.5772787 10.22592,-3.6667627 10.225921,-3.7763737 C 10.22592,-3.8426357 10.22049,-3.9048717 10.209629,-3.9630827 C 10.199107,-4.0212937 10.182985,-4.0751697 10.161263,-4.1247117 C 10.125963,-4.2058347 10.082858,-4.2677617 10.031947,-4.3104917 C 9.9813731,-4.3538397 9.9262191,-4.3755137 9.8664821,-4.3755157 C 9.8247341,-4.3755137 9.7846831,-4.3652967 9.7463291,-4.3448617 C 9.7079751,-4.3250437 9.6725071,-4.2953187 9.6399231,-4.2556877 C 9.5866351,-4.1925207 9.5448881,-4.1095387 9.5146801,-4.0067417 C 9.4848111,-3.9045617 9.4698771,-3.7937127 9.4698771,-3.6741947 C 9.4698771,-3.5757307 9.4795511,-3.4834607 9.4988971,-3.3973827 C 9.5185831,-3.3113037 9.5469241,-3.2354437 9.5839201,-3.1698017 C 9.6195581,-3.1053977 9.6607971,-3.0564757 9.7076361,-3.0230357 C 9.7544751,-2.9889757 9.8045381,-2.9719457 9.8578271,-2.9719457 C 9.9016111,-2.9719457 9.9445471,-2.9855697 9.9866351,-3.0128177 C 10.029061,-3.0394457 10.067924,-3.0778407 10.103223,-3.1280017 L 10.149044,-3.0248937 C 10.106617,-2.9648247 10.060287,-2.9189987 10.010055,-2.8874157 C 9.9601601,-2.8552147 9.9094181,-2.8391137 9.8578271,-2.8391127 C 9.7950351,-2.8391137 9.7358071,-2.8595487 9.6801441,-2.9004207 C 9.6244801,-2.9406727 9.5749261,-2.9995037 9.5314811,-3.0769117 C 9.4880361,-3.1543197 9.4549431,-3.2438037 9.4322031,-3.3453637 C 9.4094621,-3.4475427 9.3980911,-3.5571537 9.3980921,-3.6741947 C 9.3980911,-3.7869007 9.4096321,-3.8943437 9.4327121,-3.9965237 C 9.4557921,-4.0987017 9.4887151,-4.1884957 9.5314811,-4.2659047 C 9.5752651,-4.3445507 9.6258371,-4.4046197 9.6831991,-4.4461117 C 9.7405591,-4.4882207 9.8013141,-4.5092757 9.8654631,-4.5092767 C 9.9374201,-4.5092757 10.004114,-4.4823377 10.065549,-4.4284627 C 10.127321,-4.3745847 10.179081,-4.2981057 10.22083,-4.1990237 C 10.246285,-4.1383347 10.265632,-4.0723827 10.27887,-4.0011677 C 10.292445,-3.9299517 10.299233,-3.8562587 10.299235,-3.7800897 C 10.299233,-3.6172217 10.27225,-3.4887247 10.218284,-3.3945957 C 10.164317,-3.3004667 10.089816,-3.2515447 9.9947811,-3.2478297 L 9.9947811,-3.3908797 M 10.84552,-3.7020617 C 10.845519,-3.8259147 10.831434,-3.9219007 10.803263,-3.9900217 C 10.775431,-4.0581397 10.736229,-4.0921997 10.685656,-4.0922007 C 10.635423,-4.0921997 10.596221,-4.0581397 10.56805,-3.9900217 C 10.540218,-3.9219007 10.526302,-3.8259147 10.526302,-3.7020617 C 10.526302,-3.5788277 10.540218,-3.4831507 10.56805,-3.4150317 C 10.596221,-3.3469117 10.635423,-3.3128517 10.685656,-3.3128527 C 10.736229,-3.3128517 10.775431,-3.3469117 10.803263,-3.4150317 C 10.831434,-3.4831507 10.845519,-3.5788277 10.84552,-3.7020617 M 10.939198,-3.2989187 C 10.939197,-3.1218087 10.917645,-2.9902147 10.87454,-2.9041367 C 10.831434,-2.8174387 10.765418,-2.7740907 10.676492,-2.7740897 C 10.643569,-2.7740907 10.612513,-2.7787347 10.583323,-2.7880237 C 10.554134,-2.7966937 10.525793,-2.8103177 10.4983,-2.8288957 L 10.4983,-2.9951687 C 10.525793,-2.9679207 10.552946,-2.9477947 10.57976,-2.9347897 C 10.606573,-2.9217857 10.633896,-2.9152837 10.661728,-2.9152827 C 10.723161,-2.9152837 10.769152,-2.9446987 10.799699,-3.0035287 C 10.830246,-3.0617397 10.845519,-3.1499857 10.84552,-3.2682657 L 10.84552,-3.3527957 C 10.826173,-3.2914877 10.801396,-3.2456617 10.771189,-3.2153177 C 10.74098,-3.1849737 10.704833,-3.1698017 10.662746,-3.1698017 C 10.592827,-3.1698017 10.536484,-3.2184147 10.493718,-3.3156387 C 10.450952,-3.4128637 10.429569,-3.5416717 10.429569,-3.7020617 C 10.429569,-3.8630707 10.450952,-3.9921877 10.493718,-4.0894137 C 10.536484,-4.1866377 10.592827,-4.2352507 10.662746,-4.2352517 C 10.704833,-4.2352507 10.74098,-4.2200787 10.771189,-4.1897347 C 10.801396,-4.1593897 10.826173,-4.1135637 10.84552,-4.0522577 L 10.84552,-4.2101707 L 10.939198,-4.2101707 L 10.939198,-3.2989187 M 11.576107,-4.0104577 C 11.599526,-4.0872457 11.627527,-4.1439077 11.660111,-4.1804457 C 11.692695,-4.2169817 11.731048,-4.2352507 11.775172,-4.2352517 C 11.834569,-4.2352507 11.88039,-4.1971647 11.912635,-4.1209957 C 11.944878,-4.0454447 11.961,-3.9376927 11.961001,-3.7977387 L 11.961001,-3.1698017 L 11.866814,-3.1698017 L 11.866814,-3.7921657 C 11.866813,-3.8918667 11.85714,-3.9658687 11.837794,-4.0141727 C 11.818447,-4.0624747 11.788918,-4.0866257 11.749207,-4.0866267 C 11.700671,-4.0866257 11.662317,-4.0572107 11.634146,-3.9983817 C 11.605975,-3.9395497 11.591889,-3.8593557 11.591889,-3.7577967 L 11.591889,-3.1698017 L 11.497702,-3.1698017 L 11.497702,-3.7921657 C 11.497702,-3.8924857 11.488029,-3.9664887 11.468682,-4.0141727 C 11.449336,-4.0624747 11.419467,-4.0866257 11.379077,-4.0866267 C 11.33122,-4.0866257 11.293206,-4.0569017 11.265035,-3.9974527 C 11.236863,-3.9386217 11.222777,-3.8587357 11.222778,-3.7577967 L 11.222778,-3.1698017 L 11.128591,-3.1698017 L 11.128591,-4.2101707 L 11.222778,-4.2101707 L 11.222778,-4.0485427 C 11.24416,-4.1123257 11.269786,-4.1593897 11.299655,-4.1897347 C 11.329523,-4.2200787 11.364991,-4.2352507 11.406061,-4.2352517 C 11.447469,-4.2352507 11.482598,-4.2160527 11.511449,-4.1776597 C 11.540638,-4.1392637 11.56219,-4.0835297 11.576107,-4.0104577 M 12.407499,-3.6927727 C 12.33181,-3.6927727 12.27937,-3.6769817 12.250181,-3.6453987 C 12.220992,-3.6138157 12.206397,-3.5599397 12.206397,-3.4837707 C 12.206397,-3.4230817 12.217258,-3.3747797 12.238981,-3.3388617 C 12.261042,-3.3035637 12.290911,-3.2859147 12.328586,-3.2859147 C 12.380516,-3.2859147 12.422094,-3.3193547 12.45332,-3.3862357 C 12.484885,-3.4537357 12.500668,-3.5432197 12.500668,-3.6546887 L 12.500668,-3.6927727 L 12.407499,-3.6927727 M 12.594346,-3.7633697 L 12.594346,-3.1698017 L 12.500668,-3.1698017 L 12.500668,-3.3277147 C 12.479285,-3.2645497 12.452641,-3.2177947 12.420736,-3.1874507 C 12.388831,-3.1577257 12.349799,-3.1428637 12.303639,-3.1428637 C 12.24526,-3.1428637 12.19876,-3.1725887 12.16414,-3.2320387 C 12.129859,-3.2921067 12.112719,-3.3723017 12.112719,-3.4726237 C 12.112719,-3.5896647 12.134102,-3.6779107 12.176868,-3.7373607 C 12.219973,-3.7968087 12.284122,-3.8265337 12.369315,-3.8265347 L 12.500668,-3.8265347 L 12.500668,-3.8432547 C 12.500668,-3.9219007 12.486412,-3.9825897 12.457902,-4.0253197 C 12.429731,-4.0686667 12.390019,-4.0903417 12.338768,-4.0903427 C 12.306184,-4.0903417 12.274449,-4.0832197 12.243563,-4.0689777 C 12.212676,-4.0547337 12.182977,-4.0333697 12.154467,-4.0048837 L 12.154467,-4.1627967 C 12.188747,-4.1869477 12.22201,-4.2049067 12.254254,-4.2166727 C 12.286498,-4.2290577 12.317894,-4.2352507 12.348441,-4.2352517 C 12.430918,-4.2352507 12.492522,-4.1962357 12.533252,-4.1182097 C 12.573981,-4.0401817 12.594346,-3.9219007 12.594346,-3.7633697 M 12.787812,-4.2101707 L 12.88149,-4.2101707 L 12.88149,-3.1698017 L 12.787812,-3.1698017 L 12.787812,-4.2101707 M 12.787812,-4.6151717 L 12.88149,-4.6151717 L 12.88149,-4.3987377 L 12.787812,-4.3987377 L 12.787812,-4.6151717 M 13.076992,-4.6151717 L 13.17067,-4.6151717 L 13.17067,-3.1698017 L 13.076992,-3.1698017 L 13.076992,-4.6151717 M 13.379409,-3.4057427 L 13.486833,-3.4057427 L 13.486833,-3.1698017 L 13.379409,-3.1698017 L 13.379409,-3.4057427 M 14.108468,-4.1702277 L 14.108468,-4.0104577 C 14.081994,-4.0370847 14.05535,-4.0569017 14.028537,-4.0699067 C 14.002062,-4.0835297 13.975248,-4.0903417 13.948096,-4.0903427 C 13.88734,-4.0903417 13.840162,-4.0550437 13.80656,-3.9844477 C 13.772958,-3.9144697 13.756157,-3.8160067 13.756157,-3.6890577 C 13.756157,-3.5621067 13.772958,-3.4633337 13.80656,-3.3927377 C 13.840162,-3.3227607 13.88734,-3.2877717 13.948096,-3.2877717 C 13.975248,-3.2877717 14.002062,-3.2942747 14.028537,-3.3072787 C 14.05535,-3.3209027 14.081994,-3.3410287 14.108468,-3.3676577 L 14.108468,-3.2097447 C 14.082333,-3.1874507 14.05518,-3.1707307 14.027009,-3.1595837 C 13.999177,-3.1484377 13.969478,-3.1428637 13.937913,-3.1428637 C 13.852041,-3.1428637 13.783819,-3.1920947 13.733247,-3.2905587 C 13.682674,-3.3890217 13.657388,-3.5218547 13.657388,-3.6890577 C 13.657388,-3.8587357 13.682844,-3.9921877 13.733756,-4.0894137 C 13.785007,-4.1866377 13.855096,-4.2352507 13.944023,-4.2352517 C 13.972872,-4.2352507 14.001043,-4.2296767 14.028537,-4.2185307 C 14.056029,-4.2080027 14.082672,-4.1919017 14.108468,-4.1702277 M 14.493363,-4.0903427 C 14.443129,-4.0903417 14.403418,-4.0544247 14.374229,-3.9825907 C 14.345039,-3.9113737 14.330444,-3.8135297 14.330445,-3.6890577 C 14.330444,-3.5645847 14.344869,-3.4664307 14.37372,-3.3945957 C 14.402909,-3.3233797 14.44279,-3.2877717 14.493363,-3.2877717 C 14.543256,-3.2877717 14.582798,-3.3236897 14.611988,-3.3955247 C 14.641177,-3.4673597 14.655772,-3.5652037 14.655772,-3.6890577 C 14.655772,-3.8122907 14.641177,-3.9098257 14.611988,-3.9816617 C 14.582798,-4.0541147 14.543256,-4.0903417 14.493363,-4.0903427 M 14.493363,-4.2352517 C 14.574821,-4.2352507 14.638801,-4.1869477 14.685301,-4.0903427 C 14.7318,-3.9937367 14.75505,-3.8599747 14.75505,-3.6890577 C 14.75505,-3.5187587 14.7318,-3.3849967 14.685301,-3.2877717 C 14.638801,-3.1911667 14.574821,-3.1428637 14.493363,-3.1428637 C 14.411564,-3.1428637 14.347415,-3.1911667 14.300915,-3.2877717 C 14.254755,-3.3849967 14.231675,-3.5187587 14.231675,-3.6890577 C 14.231675,-3.8599747 14.254755,-3.9937367 14.300915,-4.0903427 C 14.347415,-4.1869477 14.411564,-4.2352507 14.493363,-4.2352517 M 15.353775,-4.0104577 C 15.377194,-4.0872457 15.405195,-4.1439077 15.43778,-4.1804457 C 15.470363,-4.2169817 15.508716,-4.2352507 15.552841,-4.2352517 C 15.612237,-4.2352507 15.658058,-4.1971647 15.690303,-4.1209957 C 15.722547,-4.0454447 15.738669,-3.9376927 15.738669,-3.7977387 L 15.738669,-3.1698017 L 15.644482,-3.1698017 L 15.644482,-3.7921657 C 15.644482,-3.8918667 15.634808,-3.9658687 15.615463,-4.0141727 C 15.596115,-4.0624747 15.566586,-4.0866257 15.526876,-4.0866267 C 15.478339,-4.0866257 15.439985,-4.0572107 15.411815,-3.9983817 C 15.383643,-3.9395497 15.369557,-3.8593557 15.369558,-3.7577967 L 15.369558,-3.1698017 L 15.275371,-3.1698017 L 15.275371,-3.7921657 C 15.27537,-3.8924857 15.265697,-3.9664887 15.246351,-4.0141727 C 15.227004,-4.0624747 15.197136,-4.0866257 15.156746,-4.0866267 C 15.108888,-4.0866257 15.070874,-4.0569017 15.042703,-3.9974527 C 15.014531,-3.9386217 15.000446,-3.8587357 15.000446,-3.7577967 L 15.000446,-3.1698017 L 14.906259,-3.1698017 L 14.906259,-4.2101707 L 15.000446,-4.2101707 L 15.000446,-4.0485427 C 15.021829,-4.1123257 15.047455,-4.1593897 15.077323,-4.1897347 C 15.107191,-4.2200787 15.14266,-4.2352507 15.183729,-4.2352517 C 15.225137,-4.2352507 15.260266,-4.2160527 15.289117,-4.1776597 C 15.318306,-4.1392637 15.339859,-4.0835297 15.353775,-4.0104577"
         sodipodi:nodetypes="csssccccccssscccsssssssccsssssssccsssssssccssssssscccccccsccccsccccccccccsssccccsssccccccssssscccccccssssscccsssccssscccccccsssssssccsssssssccccsssssssssssssssccssssssssssssssscccsssssssccsssccsssccssssssscccccsssccccsssccccsssccccccsssccssssscccccccssssscccsssccssscccccccccccccccccccccccsssssssccsssssssccsssssssccsssssssccsssccccsssccccsssccccccsssc"
         stroke-opacity="1"
         fill="#d40000"
         font-family="Bitstream Vera Sans"
         stroke="none"
         font-style="normal"
         stroke-linejoin="miter"
         fill-opacity="1"
         font-weight="normal"
         stroke-linecap="butt"
         stroke-width="1"
         font-size="4" />
    </g>
  </g>
  <g
     id="g4306"
     transform="translate(-6.7678161,0.88275862)">
    <g
       transform="translate(-9.3567251,-5.8479532)"
       id="g4286">
      <path
         sodipodi:nodetypes="cscsc"
         id="path3003"
         d="m 180.21514,199.06736 c -1.68653,21.35446 -33.11896,38.82026 -73.92625,38.82026 -40.807281,0 -75.05059,-15.4944 -73.926237,-38.82026 0,-62.75431 33.118956,-113.685348 73.926237,-113.685348 40.80729,0 73.92625,50.931038 73.92625,113.685348 z"
         stroke-miterlimit="4"
         style="fill:url(#radialGradient4294);fill-opacity:1;stroke:none;stroke-width:2.15700006;stroke-linecap:round;stroke-linejoin:round;stroke-miterlimit:4;stroke-dasharray:none;stroke-dashoffset:0;stroke-opacity:1"
         inkscape:connector-curvature="0" />
      <g
         id="g2788"
         transform="matrix(2.054098,0,0,2.054098,-7.5634515,8.1823925)">
        <path
           sodipodi:nodetypes="cscsc"
           id="path1873"
           d="m 91.86857,92.200915 c -0.724107,9.168475 -14.219538,18.057075 -31.74004,18.057075 -17.520502,0 -32.222778,-8.04217 -31.74004,-18.057075 0,-26.943401 14.219538,-48.81051 31.74004,-48.81051 17.520502,0 31.74004,21.867109 31.74004,48.81051 z"
           stroke-miterlimit="4"
           style="fill:url(#radialGradient4296);fill-opacity:1;stroke:url(#linearGradient4298);stroke-width:2.15700006;stroke-linecap:round;stroke-linejoin:round;stroke-miterlimit:4;stroke-dasharray:none;stroke-dashoffset:0;stroke-opacity:1"
           inkscape:connector-curvature="0" />
        <path
           sodipodi:nodetypes="ccccc"
           id="path2778"
           d="m 44.279773,56.620038 c 4.229789,4.277809 7.942034,6.239022 15.969754,7.984877 -9.393866,4.357986 -11.003846,17.362141 -8.468809,40.650285 L 30.487713,94.850662 C 32.52967,80.417293 32.56113,65.509167 44.279773,56.620038 Z"
           stroke-miterlimit="4"
           style="fill:url(#radialGradient4300);fill-opacity:1;fill-rule:evenodd;stroke:none;stroke-width:0;stroke-linecap:butt;stroke-linejoin:miter;stroke-miterlimit:4;stroke-dasharray:none;stroke-opacity:1"
           inkscape:connector-curvature="0" />
      </g>
      <ellipse
         id="path2818"
         transform="matrix(2.5642282,0,0,2.4807994,-43.376994,-8.522166)"
         stroke-miterlimit="4"
         style="fill:url(#radialGradient4302);fill-opacity:1;stroke:none;stroke-width:0;stroke-linecap:round;stroke-linejoin:round;stroke-miterlimit:4;stroke-dasharray:none;stroke-dashoffset:0;stroke-opacity:1"
         cx="60.854443"
         cy="35.568996"
         rx="18.994329"
         ry="21.051041" />
      <path
         sodipodi:nodetypes="ccsc"
         id="path2808"
         d="M 161.9927,79.176205 C 106.23838,10.943121 98.328909,123.48462 64.581107,91.351148 52.736741,59.104601 78.469106,21.013435 110.72376,21.506113 c 26.88246,0.41062 51.26894,28.842771 51.26894,57.670092 z"
         stroke-miterlimit="4"
         style="fill:url(#linearGradient4304);fill-opacity:1;stroke:none;stroke-width:0;stroke-linecap:round;stroke-linejoin:round;stroke-miterlimit:4;stroke-dashoffset:0;stroke-opacity:1"
         inkscape:connector-curvature="0" />
    </g>
    <g
       transform="matrix(0.622353,0,0,0.622353,105.77751,91.16675)"
       id="g3629">
      <path
         d="m 127.09682,15.37229 c 30.7822,0.06134 61.97209,18.344182 61.71796,54.36695 l -0.45943,38.9298 c 2.29294,0.26471 4.59859,0.53521 6.89159,0.82699 5.36755,0 9.67884,3.14538 9.67884,7.04473 l 7.16725,103.03687 c -0.0188,-1.38661 0.38342,8.65091 0.33693,0.73509 -0.73472,8.20953 -0.44191,10.93807 -0.94951,16.99925 0.84031,3.56077 -3.34158,4.93395 -6.21774,5.29886 -51.78945,5.01535 -107.224226,5.62614 -158.965911,-0.70446 -5.185108,-0.16468 -8.325192,-2.80521 -8.637453,-5.20699 -0.371119,-5.00557 -1.155562,-10.39174 -0.581957,-15.65155 -0.140806,-0.47914 -0.245034,-0.95966 -0.245034,-1.4702 L 47.797633,116.93895 c 0,-3.89938 4.311268,-7.01411 9.678848,-7.01411 1.669888,-0.24711 3.351461,-0.4766 5.023201,-0.70447 L 67.829175,63.88905 C 69.636076,31.354773 98.180192,15.314664 127.09682,15.37229 Z m 0.27566,12.649887 c -22.92323,1.4e-4 -45.821433,13.984154 -45.54573,40.369375 l -3.552995,38.960428 c 31.980265,-3.21431 64.254105,-3.05694 96.574085,-0.0919 l 0,-0.0306 -0.0306,0 -0.24503,-4.83943 -1.2558,-22.6044 0.12252,0 -0.42881,-8.239273 c 0.21728,-29.546176 -22.7144,-43.524331 -45.63761,-43.52419 z"
         id="path4100"
         sodipodi:nodetypes="ccccccccccccccccccccccccccccc"
         stroke-miterlimit="4"
         inkscape:connector-curvature="0"
         style="fill:#000000;fill-opacity:0.48300003;stroke:none;stroke-width:0.30399999;stroke-linecap:round;stroke-linejoin:round;stroke-miterlimit:4;stroke-dasharray:none;stroke-opacity:1;filter:url(#filter3647)" />
      <path
         sodipodi:nodetypes="ccccccccc"
         id="path2843"
         d="m 207.20486,101.35387 c -46.14603,-5.872099 -92.29821,-6.304611 -137.748757,0.42125 -5.367571,0 -9.688748,3.13919 -9.688748,7.03855 L 48.814838,211.42281 c 0,3.89937 4.321196,7.03855 9.688758,7.03855 51.954164,-5.71629 101.802104,-7.67137 155.862524,0 5.36757,0 9.68875,-3.13918 9.68875,-7.03855 l -7.16125,-103.03039 c 0,-3.89936 -4.32118,-7.03855 -9.68876,-7.03855 z"
         stroke-miterlimit="4"
         style="fill:url(#linearGradient4262);fill-opacity:1;stroke:#000000;stroke-width:0.29800001;stroke-linecap:round;stroke-linejoin:round;stroke-miterlimit:4;stroke-dasharray:none;stroke-opacity:1"
         inkscape:connector-curvature="0" />
      <path
         sodipodi:nodetypes="ccccccccc"
         id="path1876"
         d="m 223.44069,229.17193 c -0.28956,3.30969 -3.36868,4.91099 -6.20914,5.28385 -51.78945,5.01533 -107.23569,5.62644 -158.97737,-0.70416 -5.185118,-0.16467 -8.306804,-2.77846 -8.619065,-5.18024 -0.405865,-5.47425 -1.352344,-11.43237 -0.421253,-17.14857 0,3.89937 4.321186,7.03855 9.688748,7.03855 51.95417,-5.71629 101.80211,-7.67137 155.86252,0 5.36757,0 9.36343,-3.08496 9.36343,-6.98433 -0.82623,8.83013 -0.16442,11.44443 -0.68787,17.6949 z"
         stroke-miterlimit="4"
         style="fill:url(#linearGradient4264);fill-opacity:1;stroke:none;stroke-width:0.26199999;stroke-linecap:round;stroke-linejoin:round;stroke-miterlimit:4;stroke-dasharray:none;stroke-opacity:1"
         inkscape:connector-curvature="0" />
      <path
         d="M 200.33564,101.34315 186.79111,99.085729 184.98517,63.41845 C 185.41975,4.326096 93.233863,7.4876135 93.785269,60.258057 l -3.611872,39.730642 -15.801958,1.805941 5.417813,-46.05143 c 3.73037,-67.167542 121.490708,-63.9930363 120.997868,5.869302 l -0.45148,39.730638 z"
         id="path2764"
         sodipodi:nodetypes="ccccccccc"
         inkscape:connector-curvature="0"
         style="fill:#111b6c;fill-opacity:1;fill-rule:evenodd;stroke:#000000;stroke-width:0.29800001;stroke-linecap:butt;stroke-linejoin:miter;stroke-opacity:1" />
      <path
         sodipodi:nodetypes="ccccccccc"
         id="path2766"
         d="M 200.33564,101.34315 186.79111,99.085729 184.98517,63.41845 C 185.41975,4.326096 93.233863,7.4876135 93.785269,60.258057 l -3.611872,39.730642 -15.801958,1.805941 5.417813,-46.05143 c 3.73037,-67.167542 121.490708,-63.9930363 120.997868,5.869302 l -0.45148,39.730638 z"
         style="fill:url(#radialGradient4266);fill-opacity:1;fill-rule:evenodd;stroke:#000000;stroke-width:0.29800001;stroke-linecap:butt;stroke-linejoin:miter;stroke-opacity:1"
         inkscape:connector-curvature="0" />
      <path
         d="M 156.54164,13.755144 C 136.63819,8.9944935 116.66987,14.00434 101.46051,25.945228 117.34174,17.543353 135.84545,13.730846 156.54164,13.755144 Z"
         id="path2790"
         sodipodi:nodetypes="ccc"
         stroke-miterlimit="4"
         style="opacity:0.53600003;fill:url(#radialGradient4268);fill-opacity:1;fill-rule:evenodd;stroke:none;stroke-width:0;stroke-linecap:butt;stroke-linejoin:miter;stroke-miterlimit:4;stroke-dasharray:none;stroke-opacity:1"
         inkscape:connector-curvature="0" />
      <rect
         width="5.2470002"
         height="5.2470002"
         x="-90.769997"
         y="91.709999"
         id="rect2839"
         transform="scale(-1,1)"
         style="fill:url(#pattern3606);stroke:none" />
      <path
         d="m 176.04794,123.75874 0.39902,5.60316 c 9.55747,0.33096 17.15231,5.37899 17.15231,11.55271 0,6.1737 -7.59484,11.22174 -17.15231,11.55269 l -0.39902,4.40546 c -26.6848,-6.15262 -52.58183,-4.42753 -78.208621,0 l 0,-5.24617 c -9.181732,-0.57403 -16.361684,-5.50405 -16.361655,-11.50618 0,-6.00212 7.179923,-10.94145 16.361655,-11.51549 l 0,-4.84618 c 25.574501,-3.46529 51.571131,-3.97565 78.208621,0 z"
         id="rect2867"
         sodipodi:nodetypes="ccsccccsccc"
         stroke-miterlimit="4"
         style="fill:url(#linearGradient4270);fill-opacity:1;stroke:url(#linearGradient4272);stroke-width:1.19099998;stroke-linecap:round;stroke-linejoin:round;stroke-miterlimit:4;stroke-dasharray:none;stroke-opacity:1"
         inkscape:connector-curvature="0" />
      <path
         d="m 223.44069,229.17193 c -0.90293,3.8098 -3.39681,4.92805 -6.20914,5.28385 -3.70521,-6.52686 -3.32427,-8.77057 -2.46642,-15.99442 5.36757,0 9.36343,-3.13918 9.36343,-7.03855 -0.82623,8.83013 -0.16442,11.49865 -0.68787,17.74912 z"
         id="path2891"
         sodipodi:nodetypes="ccccc"
         stroke-miterlimit="4"
         style="fill:url(#linearGradient4274);fill-opacity:1;stroke:none;stroke-width:0;stroke-linecap:round;stroke-linejoin:round;stroke-miterlimit:4;stroke-dasharray:none;stroke-opacity:1"
         inkscape:connector-curvature="0" />
      <path
         d="m 58.25418,233.75162 c -5.185118,-0.16467 -8.306804,-2.77846 -8.619065,-5.18024 -0.405865,-5.47425 -1.569222,-11.37815 -0.638131,-17.09435 0,3.89937 4.538064,6.98433 9.905626,6.98433 0.275222,6.36646 -0.703033,10.76302 -0.64843,15.29026 z"
         id="path2901"
         sodipodi:nodetypes="ccccc"
         stroke-miterlimit="4"
         style="fill:url(#linearGradient4276);fill-opacity:1;stroke:none;stroke-width:0.26199999;stroke-linecap:round;stroke-linejoin:round;stroke-miterlimit:4;stroke-dasharray:none;stroke-opacity:1"
         inkscape:connector-curvature="0" />
      <path
         d="m 196.50265,70.724339 -11.21327,0.909184 1.51531,27.578596 9.09184,0.909181 0.60612,-29.396961 z"
         id="path1942"
         style="fill:url(#linearGradient4278);fill-opacity:1;fill-rule:evenodd;stroke:none;stroke-width:1;stroke-linecap:butt;stroke-linejoin:miter;stroke-opacity:1"
         inkscape:connector-curvature="0" />
      <ellipse
         id="path1935"
         transform="matrix(-0.2423025,0,0,0.2423025,279.0815,-15.279534)"
         stroke-miterlimit="4"
         style="fill:#808080;fill-opacity:1;stroke:url(#linearGradient4280);stroke-width:10;stroke-linecap:round;stroke-linejoin:round;stroke-miterlimit:4;stroke-dasharray:none;stroke-opacity:1"
         cx="582.53308"
         cy="996.29492"
         rx="75.13044"
         ry="38.109638" />
      <path
         d="m 152.66005,224.39142 c 0,0 -1.44961,2.39934 -4.19888,2.19939 -2.74925,-0.19994 -3.30069,-3.07094 -6.79816,-2.99918 -3.04487,0.0625 -5.90068,1.31846 -8.19779,2.59929 -2.78522,1.55303 -7.94643,1.00294 -10.39719,-1.7995"
         id="path2833"
         sodipodi:nodetypes="csssc"
         stroke-miterlimit="4"
         inkscape:connector-curvature="0"
         style="fill:none;fill-rule:evenodd;stroke:#000000;stroke-width:1.93799996;stroke-linecap:butt;stroke-linejoin:miter;stroke-miterlimit:4;stroke-dasharray:none;stroke-opacity:1" />
      <path
         sodipodi:nodetypes="csssc"
         id="path2835"
         d="m 152.66005,225.59109 c 0,0 -1.44961,2.39935 -4.19888,2.1994 -2.74925,-0.19995 -3.30069,-3.07094 -6.79816,-2.99918 -3.04487,0.0625 -5.90068,1.31844 -8.19779,2.59928 -2.78522,1.55304 -7.94643,1.00295 -10.39719,-1.7995"
         stroke-miterlimit="4"
         inkscape:connector-curvature="0"
         style="fill:none;fill-rule:evenodd;stroke:#bfb3b3;stroke-width:1.93799996;stroke-linecap:butt;stroke-linejoin:miter;stroke-miterlimit:4;stroke-dasharray:none;stroke-opacity:1" />
      <path
         d="m 189.29869,93.103863 -1.71082,-38.32207 C 179.91234,6.6897966 98.671004,3.0167716 90.756216,53.75531 l -5.816749,43.796646"
         id="path2814"
         sodipodi:nodetypes="cccc"
         stroke-miterlimit="4"
         style="fill:none;fill-rule:evenodd;stroke:url(#linearGradient4282);stroke-width:1.01199996;stroke-linecap:butt;stroke-linejoin:miter;stroke-miterlimit:4;stroke-dasharray:none;stroke-opacity:1"
         inkscape:connector-curvature="0" />
      <path
         id="path2873"
         d="m 80.733163,70.421277 12.728582,0.909184 -3.030612,27.578598 -7.879601,0.30306 -1.818369,-28.790842 z"
         sodipodi:nodetypes="ccccc"
         style="fill:url(#linearGradient4284);fill-opacity:1;fill-rule:evenodd;stroke:none;stroke-width:1;stroke-linecap:butt;stroke-linejoin:miter;stroke-opacity:1"
         inkscape:connector-curvature="0" />
    </g>
  </g>
</svg>
