<?xml version="1.0" encoding="UTF-8" standalone="no"?>
<svg xmlns:dc="http://purl.org/dc/elements/1.1/" xmlns:cc="http://creativecommons.org/ns#" xmlns:rdf="http://www.w3.org/1999/02/22-rdf-syntax-ns#" xmlns:svg="http://www.w3.org/2000/svg" xmlns="http://www.w3.org/2000/svg" xmlns:xlink="http://www.w3.org/1999/xlink" xmlns:sodipodi="http://sodipodi.sourceforge.net/DTD/sodipodi-0.dtd" xmlns:inkscape="http://www.inkscape.org/namespaces/inkscape" inkscape:output_extension="org.inkscape.output.svg.inkscape" sodipodi:docname="folder-art.svg" version="1.0" height="256" width="256" inkscape:version="1.0 (4035a4f, 2020-05-01)" sodipodi:version="0.32" id="svg2">
 <sodipodi:namedview inkscape:document-rotation="0" inkscape:snap-global="false" inkscape:snap-nodes="false" inkscape:object-nodes="false" inkscape:snap-others="false" inkscape:snap-grids="false" inkscape:snap-to-guides="false" inkscape:window-maximized="1" inkscape:current-layer="svg2" inkscape:window-y="0" inkscape:window-x="0" inkscape:cy="128" inkscape:cx="128" inkscape:zoom="3.46875" showgrid="false" id="base" pagecolor="#ff0000" bordercolor="#666666" borderopacity="1.0" objecttolerance="10.0" gridtolerance="10.0" guidetolerance="10.0" inkscape:pageopacity="0" inkscape:pageshadow="2" inkscape:window-width="1920" inkscape:window-height="1056"/>
 <metadata id="metadata7">
  <rdf:RDF>
   <cc:Work>
    <dc:format>image/svg+xml</dc:format>
    <dc:type rdf:resource="http://purl.org/dc/dcmitype/StillImage"/>
    <dc:title/>
   </cc:Work>
  </rdf:RDF>
 </metadata>
 <defs id="defs5">
  <linearGradient id="linearGradient4390" inkscape:collect="always">
   <stop stop-opacity="0" stop-color="#a3a3a3" id="stop4392"/>
   <stop stop-opacity="0.635" stop-color="#101010" id="stop4394" offset="1"/>
  </linearGradient>
  <linearGradient id="linearGradient4378">
   <stop id="stop4380" stop-color="#595959" stop-opacity="1"/>
   <stop offset="0.304" id="stop4382" stop-color="#5c5c5c" stop-opacity="1"/>
   <stop id="stop4384" offset="0.561" stop-color="#a3a3a3" stop-opacity="1"/>
   <stop id="stop4386" offset="1" stop-color="#5c5c5c" stop-opacity="1"/>
  </linearGradient>
  <linearGradient inkscape:collect="always" id="linearGradient4386">
   <stop id="stop4388" stop-color="#666666" stop-opacity="0"/>
   <stop offset="1" id="stop4390" stop-color="#e7e7e7" stop-opacity="0.612"/>
  </linearGradient>
  <linearGradient inkscape:collect="always" id="linearGradient4322">
   <stop id="stop4324" stop-color="#424242" stop-opacity="0.26"/>
   <stop offset="1" id="stop4326" stop-color="#b6bad4" stop-opacity="0.304"/>
  </linearGradient>
  <linearGradient id="linearGradient4303" inkscape:collect="always">
   <stop stop-opacity="1" stop-color="#c0c0c0" id="stop4308"/>
   <stop stop-opacity="1" stop-color="#484848" id="stop4310" offset="1"/>
  </linearGradient>
  <linearGradient id="linearGradient4294" inkscape:collect="always">
   <stop stop-opacity="1" stop-color="#dedede" id="stop4296"/>
   <stop stop-opacity="1" stop-color="#6a6a6a" id="stop4298" offset="1"/>
  </linearGradient>
  <linearGradient id="linearGradient4284" inkscape:collect="always">
   <stop stop-opacity="0" stop-color="#000000" id="stop4287"/>
   <stop stop-opacity="0.612" stop-color="#e7e7e7" id="stop4289" offset="1"/>
  </linearGradient>
  <linearGradient id="linearGradient4317" inkscape:collect="always">
   <stop stop-opacity="0.403" stop-color="#424242" id="stop4319"/>
   <stop stop-opacity="0.182" stop-color="#9396b5" id="stop4322" offset="1"/>
  </linearGradient>
  <linearGradient id="linearGradient4310">
   <stop stop-opacity="1" stop-color="#cecece" id="stop4312"/>
   <stop stop-opacity="1" stop-color="#3a3a3a" id="stop4314" offset="1"/>
  </linearGradient>
  <linearGradient id="linearGradient4290">
   <stop id="stop4292" stop-color="#a8a8a8" stop-opacity="1"/>
   <stop id="stop4294" offset="1" stop-color="#272727" stop-opacity="1"/>
  </linearGradient>
  <linearGradient inkscape:collect="always" id="linearGradient4282">
   <stop id="stop4286" stop-color="#000000" stop-opacity="0"/>
   <stop offset="1" id="stop4288" stop-color="#c9c9c9" stop-opacity="0.612"/>
  </linearGradient>
  <linearGradient id="linearGradient4273" inkscape:collect="always">
   <stop stop-opacity="0.579" stop-color="#dfdfdf" id="stop4275"/>
   <stop stop-opacity="0" stop-color="#dfdfdf" id="stop4277" offset="1"/>
  </linearGradient>
  <linearGradient id="linearGradient4331">
   <stop stop-opacity="1" stop-color="#616161" id="stop4333"/>
   <stop stop-opacity="1" stop-color="#cbcbcb" id="stop4335" offset="1"/>
  </linearGradient>
  <linearGradient id="linearGradient4325">
   <stop stop-opacity="1" stop-color="#bababa" id="stop4327"/>
   <stop stop-opacity="1" stop-color="#000000" id="stop4329" offset="1"/>
  </linearGradient>
  <linearGradient id="linearGradient4319">
   <stop stop-opacity="1" stop-color="#a6a6a6" id="stop4321"/>
   <stop stop-opacity="0" stop-color="#666666" offset="1" id="stop4323"/>
  </linearGradient>
  <linearGradient id="linearGradient4297">
   <stop stop-opacity="1" stop-color="#9b9b9b" id="stop4299"/>
   <stop stop-opacity="1" stop-color="#606060" id="stop4302" offset="0.5"/>
   <stop stop-opacity="1" stop-color="#c6c6c6" offset="0.75" id="stop4305"/>
   <stop stop-opacity="1" stop-color="#6d6d6d" offset="1" id="stop4307"/>
  </linearGradient>
  <linearGradient id="linearGradient4302" inkscape:collect="always">
   <stop stop-opacity="0" stop-color="#3e3e3e" id="stop4304"/>
   <stop stop-opacity="0.157" stop-color="#000000" id="stop4306" offset="1"/>
  </linearGradient>
  <linearGradient id="linearGradient4279" inkscape:collect="always">
   <stop stop-opacity="1" stop-color="#c1c1c1" id="stop4281"/>
   <stop stop-opacity="0" stop-color="#555555" id="stop4284" offset="1"/>
  </linearGradient>
  <linearGradient id="linearGradient4281" inkscape:collect="always">
   <stop stop-opacity="0.848" stop-color="#000000" id="stop4283"/>
   <stop stop-opacity="0.079" stop-color="#000000" id="stop4285" offset="1"/>
  </linearGradient>
  <linearGradient id="linearGradient4372">
   <stop stop-opacity="1" stop-color="#8c8c8c" id="stop4374"/>
   <stop stop-opacity="1" stop-color="#707070" offset="1" id="stop4376"/>
  </linearGradient>
  <linearGradient id="linearGradient4350" inkscape:collect="always">
   <stop stop-opacity="1" stop-color="#acacac" id="stop4352"/>
   <stop stop-opacity="1" stop-color="#000000" id="stop4354" offset="1"/>
  </linearGradient>
  <linearGradient id="linearGradient4342">
   <stop stop-opacity="1" stop-color="#828282" id="stop4344"/>
   <stop stop-opacity="1" stop-color="#282828" offset="1" id="stop4346"/>
  </linearGradient>
  <linearGradient id="linearGradient4336">
   <stop stop-opacity="1" stop-color="#616161" id="stop4338"/>
   <stop stop-opacity="1" stop-color="#e4e4e4" offset="1" id="stop4340"/>
  </linearGradient>
  <linearGradient id="linearGradient4299">
   <stop stop-opacity="1" stop-color="#ffffff" id="stop4301"/>
   <stop stop-opacity="0" stop-color="#dddddd" id="stop4303" offset="1"/>
  </linearGradient>
  <linearGradient id="linearGradient4293">
   <stop stop-opacity="0.646" stop-color="#d1d1d1" id="stop4295"/>
   <stop stop-opacity="0" stop-color="#c9c9c9" offset="1" id="stop4297"/>
  </linearGradient>
  <linearGradient id="linearGradient3877">
   <stop stop-opacity="1" stop-color="#212121" id="stop3879"/>
   <stop stop-opacity="1" stop-color="#e4e4e4" id="stop3881" offset="1"/>
  </linearGradient>
  <linearGradient id="linearGradient3871">
   <stop stop-opacity="1" stop-color="#d8d8d8" id="stop3873"/>
   <stop stop-opacity="1" stop-color="#252525" offset="1" id="stop3875"/>
  </linearGradient>
  <linearGradient id="linearGradient3863">
   <stop stop-opacity="1" stop-color="#aaaaaa" id="stop3865"/>
   <stop stop-opacity="1" stop-color="#1d1d1d" offset="0.5" id="stop3350"/>
   <stop stop-opacity="1" stop-color="#acacac" id="stop3352" offset="0.75"/>
   <stop stop-opacity="1" stop-color="#878787" id="stop3867" offset="1"/>
  </linearGradient>
  <linearGradient id="linearGradient3831">
   <stop stop-opacity="1" stop-color="#000000" id="stop3833"/>
   <stop stop-opacity="1" stop-color="#a7a7a7" offset="1" id="stop3835"/>
  </linearGradient>
  <linearGradient id="linearGradient3803">
   <stop stop-opacity="1" stop-color="#909090" id="stop3805"/>
   <stop stop-opacity="1" stop-color="#000000" id="stop3807" offset="1"/>
  </linearGradient>
  <linearGradient y2="893.58" x2="736.83" y1="886.38" x1="730.24" gradientUnits="userSpaceOnUse" id="linearGradient2708" xlink:href="#linearGradient4336" inkscape:collect="always"/>
  <linearGradient y2="888.36" x2="592.15" y1="893.82" x1="432.77" spreadMethod="reflect" gradientUnits="userSpaceOnUse" id="linearGradient2710" xlink:href="#linearGradient3877" inkscape:collect="always"/>
  <linearGradient y2="877.63" x2="388.21" y1="856.65" x1="369.98" spreadMethod="reflect" gradientUnits="userSpaceOnUse" id="linearGradient2712" xlink:href="#linearGradient3803" inkscape:collect="always"/>
  <linearGradient y2="121.26" x2="385.72" y1="79.991" x1="378.99" gradientUnits="userSpaceOnUse" id="linearGradient2716" xlink:href="#linearGradient3831" inkscape:collect="always"/>
  <linearGradient y2="176.69" x2="276.08" y1="185.27" x1="276.56" spreadMethod="reflect" gradientUnits="userSpaceOnUse" id="linearGradient2718" xlink:href="#linearGradient4331" inkscape:collect="always"/>
  <linearGradient y2="347.28" x2="580.59" y1="248.79" x1="440.3" spreadMethod="reflect" gradientUnits="userSpaceOnUse" id="linearGradient2720" xlink:href="#linearGradient3863" inkscape:collect="always"/>
  <linearGradient y2="577.18" x2="696.37" y1="780.61" x1="689.78" spreadMethod="reflect" gradientUnits="userSpaceOnUse" id="linearGradient2724" xlink:href="#linearGradient4342" inkscape:collect="always"/>
  <linearGradient gradientTransform="translate(62.137074,18.508916)" y2="1233.69" x2="708.13" y1="1265.74" x1="709.47" spreadMethod="reflect" gradientUnits="userSpaceOnUse" id="linearGradient2726" xlink:href="#linearGradient4372" inkscape:collect="always"/>
  <linearGradient gradientTransform="matrix(0.21443678,0,0,0.21443678,222.87264,-56.636379)" y2="362.43" x2="934.11" y1="367.34" x1="974.08" gradientUnits="userSpaceOnUse" id="linearGradient3302" xlink:href="#linearGradient4310" inkscape:collect="always"/>
  <radialGradient r="232.39" fy="671.2" fx="245.43" cy="671.2" cx="245.43" spreadMethod="reflect" gradientTransform="matrix(0.0491655,0,0,0.50032227,-119.90765,-235.02267)" gradientUnits="userSpaceOnUse" id="radialGradient3311" xlink:href="#linearGradient4319" inkscape:collect="always"/>
  <radialGradient r="232.39" fy="663.51" fx="317.56" cy="663.51" cx="317.56" spreadMethod="reflect" gradientTransform="matrix(0.2355221,-0.00582495,0.0123688,0.50011185,-173.46122,-233.76254)" gradientUnits="userSpaceOnUse" id="radialGradient3314" xlink:href="#linearGradient4297" inkscape:collect="always"/>
  <linearGradient y2="736.21" x2="427.92" y1="736.65" x1="303.35" gradientTransform="matrix(0.21443678,0,0,0.21443678,-155.36366,-30.214411)" gradientUnits="userSpaceOnUse" id="linearGradient3339" xlink:href="#linearGradient4293" inkscape:collect="always"/>
  <linearGradient gradientTransform="matrix(0.21443678,0,0,0.21443678,222.30268,-24.644699)" y2="271.25" x2="355.35" y1="1060.94" x1="907.3" gradientUnits="userSpaceOnUse" id="linearGradient3343" xlink:href="#linearGradient3871" inkscape:collect="always"/>
  <linearGradient y2="271.25" x2="355.35" y1="1031.92" x1="879.6" gradientTransform="matrix(0.22687236,0,0,0.22687236,214.87917,-32.786821)" gradientUnits="userSpaceOnUse" id="linearGradient3346" xlink:href="#linearGradient4325" inkscape:collect="always"/>
  <linearGradient y2="447.21" x2="704.84" y1="406" x1="696.93" spreadMethod="reflect" gradientUnits="userSpaceOnUse" id="linearGradient3354" xlink:href="#linearGradient4290" inkscape:collect="always"/>
  <linearGradient gradientTransform="matrix(0.24099956,0,0,0.24099956,240.72471,9.1353893)" spreadMethod="reflect" gradientUnits="userSpaceOnUse" y2="544.09" x2="513.65" y1="524.1" x1="138.06" id="linearGradient3362" xlink:href="#linearGradient4378" inkscape:collect="always"/>
  <linearGradient gradientTransform="translate(-152.87702,-6.1657393)" spreadMethod="reflect" gradientUnits="userSpaceOnUse" y2="107.78" x2="55.785" y1="107.78" x1="51.38" id="linearGradient4356" xlink:href="#linearGradient4350" inkscape:collect="always"/>
  <linearGradient y2="362.43" x2="934.11" y1="367.34" x1="974.08" gradientTransform="matrix(0.21443678,0,0,0.21443678,-210.53238,125.90056)" gradientUnits="userSpaceOnUse" id="linearGradient4360" xlink:href="#linearGradient4310" inkscape:collect="always"/>
  <linearGradient gradientTransform="translate(230.18847,-1.7346297)" gradientUnits="userSpaceOnUse" y2="69.34" x2="134.98" y1="23.68" x1="131.29" id="linearGradient4370" xlink:href="#linearGradient4299" inkscape:collect="always"/>
  <filter color-interpolation-filters="sRGB" height="1.087" y="-0.043" width="1.033" x="-0.017" id="filter4277" inkscape:collect="always">
   <feGaussianBlur stdDeviation="1.36647" id="feGaussianBlur4279" inkscape:collect="always"/>
  </filter>
  <linearGradient gradientTransform="translate(-9.3423244,3.1078431)" gradientUnits="userSpaceOnUse" y2="156.1" x2="135.18" y1="232.75" x1="114.17" id="linearGradient4287" xlink:href="#linearGradient4281" inkscape:collect="always"/>
  <linearGradient gradientTransform="translate(-149.40421,2.2679956)" spreadMethod="reflect" gradientUnits="userSpaceOnUse" y2="155.25" x2="156.39" y1="150.4" x1="154.35" id="linearGradient4286" xlink:href="#linearGradient4279" inkscape:collect="always"/>
  <linearGradient gradientTransform="translate(-149.40421,2.2679956)" spreadMethod="reflect" gradientUnits="userSpaceOnUse" y2="227.18" x2="142.92" y1="214.42" x1="132.03" id="linearGradient4296" xlink:href="#linearGradient4282" inkscape:collect="always"/>
  <linearGradient gradientTransform="matrix(0.9983285,0.05779446,0.05779446,-0.9983285,266.4943,262.36462)" y2="227.18" x2="142.92" y1="218.58" x1="132.75" spreadMethod="reflect" gradientUnits="userSpaceOnUse" id="linearGradient4300" xlink:href="#linearGradient4284" inkscape:collect="always"/>
  <linearGradient gradientTransform="translate(13.009646,-3.9652331)" gradientUnits="userSpaceOnUse" y2="119.43" x2="177.67" y1="119.43" x1="53.04" id="linearGradient4308" xlink:href="#linearGradient4302" inkscape:collect="always"/>
  <linearGradient gradientTransform="translate(-149.40421,2.2679956)" gradientUnits="userSpaceOnUse" y2="75.73" x2="93.42" y1="25.1" x1="99.92" id="linearGradient4280" xlink:href="#linearGradient4273" inkscape:collect="always"/>
  <filter color-interpolation-filters="sRGB" height="1.02" y="0" width="1.031" x="-0.015" id="filter4278" inkscape:collect="always">
   <feGaussianBlur stdDeviation="0.8058" id="feGaussianBlur4280" inkscape:collect="always"/>
  </filter>
  <linearGradient gradientTransform="translate(-149.40421,2.2679956)" spreadMethod="reflect" gradientUnits="userSpaceOnUse" y2="80.79" x2="82.37" y1="121.08" x1="64.769" id="linearGradient4324" xlink:href="#linearGradient4317" inkscape:collect="always"/>
  <linearGradient gradientTransform="translate(-149.40421,2.2679956)" gradientUnits="userSpaceOnUse" y2="89.62" x2="86.969" y1="14.353" x1="35.525" id="linearGradient4301" xlink:href="#linearGradient4294" inkscape:collect="always"/>
  <linearGradient spreadMethod="reflect" gradientTransform="translate(-149.40421,2.2679956)" gradientUnits="userSpaceOnUse" y2="73.33" x2="88.03" y1="5.703" x1="45.662" id="linearGradient4312" xlink:href="#linearGradient4303" inkscape:collect="always"/>
  <linearGradient gradientTransform="translate(231.39329,6.6991052)" spreadMethod="reflect" gradientUnits="userSpaceOnUse" y2="57.57" x2="135.89" y1="117.26" x1="135.33" id="linearGradient4320" xlink:href="#linearGradient4322" inkscape:collect="always"/>
  <linearGradient y2="234.07" x2="139.82" y1="224.13" x1="131.13" spreadMethod="reflect" gradientTransform="matrix(0.9983285,-0.05779446,0.05779446,0.9983285,254.89651,-26.635591)" gradientUnits="userSpaceOnUse" id="linearGradient4384" xlink:href="#linearGradient4386" inkscape:collect="always"/>
  <linearGradient gradientTransform="translate(-0.5669988,-0.85049882)" gradientUnits="userSpaceOnUse" y2="204.19" x2="296.69" y1="128.05" x1="295.18" id="linearGradient4396" xlink:href="#linearGradient4390" inkscape:collect="always"/>
  <linearGradient id="linearGradient865" inkscape:collect="always">
   <stop id="stop861" stop-color="#bfbfbf" stop-opacity="1"/>
   <stop id="stop863" offset="1" stop-color="#000000" stop-opacity="1"/>
  </linearGradient>
  <linearGradient id="linearGradient847" inkscape:collect="always">
   <stop id="stop843" stop-color="#878787" stop-opacity="1"/>
   <stop id="stop845" offset="1" stop-color="#000000" stop-opacity="1"/>
  </linearGradient>
  <linearGradient inkscape:collect="always" id="linearGradient823">
   <stop id="stop819" stop-color="#a6a6a6" stop-opacity="1"/>
   <stop offset="1" id="stop821" stop-color="#000000" stop-opacity="1"/>
  </linearGradient>
  <radialGradient inkscape:collect="always" xlink:href="#linearGradient865" id="radialGradient825" cx="132.64" cy="261.35" fx="132.64" fy="261.35" r="94.32" gradientTransform="matrix(0.41215011,0.37137092,-0.78217292,0.86806112,-17.923783,-152.54632)" gradientUnits="userSpaceOnUse" spreadMethod="reflect"/>
  <radialGradient inkscape:collect="always" xlink:href="#linearGradient823" id="radialGradient837" cx="127.37" cy="75.23" fx="127.37" fy="75.23" r="51.897" gradientTransform="matrix(0.55782836,0.47200801,-0.30674463,0.36251685,-155.64644,-30.756426)" gradientUnits="userSpaceOnUse"/>
  <linearGradient inkscape:collect="always" xlink:href="#linearGradient847" id="linearGradient870" x1="147.69" y1="32.01" x2="147.69" y2="41.554" gradientUnits="userSpaceOnUse" spreadMethod="reflect" gradientTransform="matrix(0.55478291,0,0,0.55478291,-115.42994,76.772898)"/>
  <filter inkscape:collect="always" id="filter876" x="-0.024" width="1.048" y="-0.024" height="1.048" color-interpolation-filters="sRGB">
   <feGaussianBlur inkscape:collect="always" stdDeviation="1.01695" id="feGaussianBlur878"/>
  </filter>
  <filter inkscape:collect="always" id="filter906" x="-0.049" width="1.097" y="-0.047" height="1.095" color-interpolation-filters="sRGB">
   <feGaussianBlur inkscape:collect="always" stdDeviation="1.23995" id="feGaussianBlur908"/>
  </filter>
  <filter inkscape:collect="always" id="filter916" x="-0.022" width="1.043" y="-0.027" height="1.054" color-interpolation-filters="sRGB">
   <feGaussianBlur inkscape:collect="always" stdDeviation="0.9349" id="feGaussianBlur918"/>
  </filter>
  <filter inkscape:collect="always" id="filter930" x="-0.024" width="1.048" y="-0.024" height="1.048" color-interpolation-filters="sRGB">
   <feGaussianBlur inkscape:collect="always" stdDeviation="2.16297" id="feGaussianBlur932"/>
  </filter>
  <filter inkscape:collect="always" id="filter962" x="-0.037" width="1.074" y="-0.035" height="1.07" color-interpolation-filters="sRGB">
   <feGaussianBlur inkscape:collect="always" stdDeviation="2.74766" id="feGaussianBlur964"/>
  </filter>
 </defs>
 <path sodipodi:nodetypes="ccccccc" inkscape:connector-curvature="0" id="path4263" d="m 42.989168,198.85591 98.722652,48.65414 c 4.71455,1.26861 9.4291,-0.14067 14.14365,-3.39448 l 83.16464,-48.08839 c 3.75331,-2.13331 0.0731,-8.25327 -4.24929,-9.02684 l -91.9275,-14.73449 z" stroke-opacity="1" fill="url(#linearGradient4287)" filter="url(#filter4277)" fill-rule="evenodd" stroke="none" stroke-linejoin="miter" fill-opacity="1" stroke-linecap="butt" stroke-width="1"/>
 <g transform="translate(-230.54144,-7.0718233)" id="g4398">
  <path stroke-width="1.2" stroke-linecap="round" fill-opacity="1" stroke-linejoin="round" stroke="#707070" fill="none" stroke-opacity="1" stroke-dasharray="none" stroke-miterlimit="4" sodipodi:nodetypes="cssc" id="path4300" d="m 435.80504,114.37321 0,-77.035916 c 0,-7.076427 -5.29814,-12.782717 -11.10155,-13.24484 -49.30435,-3.926083 -99.66642,-7.948403 -141.81281,-11.683536" inkscape:connector-curvature="0"/>
  <path stroke-width="5" stroke-linecap="round" fill-opacity="1" stroke-linejoin="round" stroke="none" fill="url(#linearGradient4320)" stroke-opacity="1" stroke-dasharray="none" inkscape:connector-curvature="0" sodipodi:nodetypes="cccccccccc" d="m 295.19053,28.790824 c -4.88008,-0.413608 -8.80653,3.245572 -8.80653,8.200131 l 0,146.732445 c 0,4.95455 3.92643,9.27365 8.80653,9.68726 l 109.8651,9.31151 c 4.88011,0.41363 8.80654,-3.23993 8.80654,-8.19449 l 0,-72.74749 0.15546,-75.115119 c 0.83356,-5.496586 -0.50772,-7.493928 -6.76831,-8.254337 l -112.05879,-9.61991 z" id="path3241" stroke-miterlimit="4"/>
  <path stroke-width="1.7" stroke-linecap="round" fill-opacity="0.214" stroke-linejoin="round" stroke="url(#linearGradient3343)" fill="none" stroke-opacity="1" stroke-dasharray="none" inkscape:connector-curvature="0" id="path3244" d="m 286.82551,37.679384 0.0523,145.426736 c 0,4.95455 3.55606,9.15019 8.43616,9.5638 l 108.38362,9.18805 c 4.88011,0.41363 9.54728,-2.37573 9.54728,-7.33029" sodipodi:nodetypes="ccccc" stroke-miterlimit="4"/>
  <path stroke-width="1" stroke-linecap="round" fill-opacity="1" stroke-linejoin="round" stroke="#3e3e3e" fill="url(#linearGradient3362)" stroke-opacity="1" stroke-dasharray="none" inkscape:connector-curvature="0" d="m 282.23106,13.196692 c -5.29263,0.09432 -9.39501,4.262289 -9.39501,9.783678 l 0,167.98442 c 0,5.88947 4.66621,11.02092 10.46719,11.51256 l 130.59871,11.07029 c 5.80098,0.49169 10.4672,-3.85398 10.46719,-9.74344 l 0,-80.03854 0.18093,0.0134 c 5.80098,0.49165 10.4672,-3.854 10.4672,-9.74347 l 0,-77.445188 c 0,-5.889483 -4.66622,-11.034321 -10.4672,-11.525977 l -28.33916,-2.399011 c -0.55775,-0.04727 -1.10138,-0.04594 -1.63508,-0.0067 L 283.30324,13.230198 c -0.36255,-0.03073 -0.71934,-0.03979 -1.07218,-0.03351 z m 11.37855,15.901827 c 0.29684,-0.0053 0.59965,0.0077 0.90466,0.03351 l 112.05662,9.61615 c 6.19462,0.694449 7.4887,2.646221 6.76816,8.255816 l -0.15413,75.113175 0,72.74767 c 1e-5,4.95458 -3.9252,8.60915 -8.80531,8.19552 l -109.86534,-9.3146 c -4.88011,-0.41361 -8.80531,-4.72862 -8.80531,-9.68316 l 0,-146.735065 c 0,-4.6449 3.4482,-8.149659 7.90065,-8.229016 z" id="rect2442" sodipodi:nodetypes="csscssccssccccccccccsccssc" stroke-miterlimit="4"/>
  <path stroke-width="1" stroke-linecap="round" fill-opacity="1" stroke-linejoin="round" stroke="none" fill="url(#linearGradient4396)" stroke-opacity="1" stroke-dasharray="none" stroke-miterlimit="4" sodipodi:nodetypes="csccsccscssccc" id="path4388" d="m 412.61792,121.26667 0,72.74767 c 10e-6,4.95458 -3.9252,8.60915 -8.80531,8.19552 l -109.86534,-9.3146 c -4.88011,-0.41361 -8.80531,-4.72862 -8.80531,-9.68316 l 0,-66.14249 c -3.26752,1.01078 -5.78542,2.6459 -12.87291,3.96899 l 0,69.07569 c 0,5.88947 4.66621,11.02092 10.46719,11.51256 l 130.59871,11.07029 c 5.80098,0.49169 10.4672,-3.85398 10.46719,-9.74344 l 0,-80.03854 0.18093,0.0134 c -3.13184,0.12701 -6.55356,-0.74242 -11.36515,-1.66189 z" inkscape:connector-curvature="0"/>
  <path stroke-width="1.5" stroke-linecap="round" fill-opacity="0.214" stroke-linejoin="round" stroke="url(#linearGradient3346)" fill="none" stroke-opacity="1" stroke-dasharray="none" inkscape:connector-curvature="0" sodipodi:nodetypes="cccccccccc" d="m 291.99392,23.747526 c -5.16309,-0.437595 -9.31724,3.433787 -9.31724,8.675671 l 0,155.241733 c 0,5.24187 4.15412,9.81145 9.31724,10.24903 l 116.23637,9.8515 c 5.16312,0.43763 9.31724,-3.42781 9.31724,-8.6697 l 0,-76.96625 0.16449,-79.471178 c -0.0851,-4.558276 -2.18103,-8.315304 -7.16082,-8.733021 z" id="path3254" stroke-miterlimit="4"/>
  <path stroke-width="5" stroke-linecap="round" fill-opacity="1" stroke-linejoin="round" stroke="none" fill="url(#linearGradient4370)" stroke-opacity="1" stroke-dasharray="none" id="path4362" d="m 295.19053,28.790824 c -4.88008,-0.413608 -8.80653,3.245572 -8.80653,8.200131 l 0,24.260685 c 65.18403,40.38527 66.46008,-34.733852 127.47817,7.402287 l 0,53.126263 0.15546,-75.115119 c -0.60283,-4.876073 -1.30945,-7.274568 -6.76831,-8.254337 z" sodipodi:nodetypes="cccccccc" inkscape:connector-curvature="0" stroke-miterlimit="4"/>
  <path stroke-width="1" stroke-linecap="butt" fill-opacity="1" stroke-linejoin="miter" stroke="none" fill-rule="evenodd" fill="url(#linearGradient4300)" stroke-opacity="1" sodipodi:nodetypes="ccccccccc" inkscape:connector-curvature="0" id="path4298" d="m 399.45542,37.00633 8.83713,0.820101 c 2.71323,0.148291 6.55177,4.151471 6.36261,8.003411 l -0.18513,7.499102 20.01676,21.855789 -0.0886,-39.205579 c 0.51258,-5.2437 -4.3162,-9.678649 -9.17656,-10.307228 l -33.43364,-2.603872 z"/>
  <rect stroke-width="2.01" stroke-linecap="round" fill-opacity="1" stroke-linejoin="round" stroke="url(#linearGradient3302)" fill="#aaaaaa" stroke-opacity="1" stroke-dasharray="none" id="rect3258" width="11.442" height="84.45" x="422.54" y="-28.25" ry="5.293" transform="matrix(0.98982743,0.14227321,0,1,0,0)" stroke-miterlimit="4" rx="5.161"/>
  <path stroke-width="1" stroke-linecap="butt" fill-opacity="1" stroke-linejoin="miter" stroke="none" fill-rule="evenodd" fill="url(#linearGradient4384)" stroke-opacity="1" d="m 388.16158,202.37012 15.60005,0.69965 c 4.43821,1.6999 10.29098,-4.81843 9.02218,-9.82711 l 0.2708,-14.11006 10.59427,-18.28435 -0.0126,38.90162 c 0.74054,9.72698 -4.01225,13.63002 -9.78447,13.11878 l -33.0537,-2.41133 z" id="path4382" inkscape:connector-curvature="0" sodipodi:nodetypes="ccccccccc"/>
 </g>
 <path stroke-miterlimit="4" sodipodi:nodetypes="sssccscccsccssccssccsss" inkscape:connector-curvature="0" d="m 70.893336,5.8059963 c -2.84832,0.244554 -4.84174,2.3328192 -4.84174,5.5297967 l 0,168.566537 c 0,4.26264 3.5374,8.84284 7.93094,10.26258 l 107.349094,11.02911 c 4.39353,1.41974 11.24906,0.25043 11.04944,-4.00261 l -2.64141,-56.27701 c -0.0478,-3.86708 -0.55324,-6.77423 -4.79415,-8.6752 l -8.99851,-3.1331 0.31346,-82.158582 c 0.0163,-4.264228 -3.5374,-8.842837 -7.93094,-10.262584 L 73.982536,6.1991913 c -1.09838,-0.354937 -2.13976,-0.474714 -3.0892,-0.393195 z M 92.072206,18.697 c 0.76368,-0.09843 1.61794,-0.01032 2.52483,0.298951 l 68.616004,23.401401 c 3.22451,1.099639 5.79571,4.523022 5.82195,7.676796 l 1.134,136.312942 c 0.0262,3.15379 -2.59744,4.80995 -5.82195,3.71031 l -73.718994,-8.09244 c -3.22451,-1.09963 -5.90449,-4.52398 -5.82196,-7.67678 l 3.96899,-151.621938 c 0.0593,-2.266075 1.34551,-3.757666 3.29713,-4.009242 z" id="path4289" stroke-opacity="1" fill="url(#linearGradient4308)" filter="url(#filter4278)" stroke="none" stroke-linejoin="round" fill-opacity="1" stroke-linecap="round" stroke-width="0.213"/>
 <g transform="matrix(0.65363241,0,-0.11588471,0.43422099,-72.103209,107.04371)" id="g1096" fill="#000000" filter="url(#filter930)" fill-opacity="0.126">
  <path d="m 432.80697,35.330297 c -1.71016,-1.16822 -4.02784,-0.731068 -5.19606,0.979092 -0.44297,1.823472 -8.44286,-6.431263 -10.62874,-7.638488 -16.86301,-9.152792 -25.72925,0.794534 -31.08637,13.474817 -7.44518,17.622682 -12.77979,35.684638 -20.75748,55.240681 -3.09364,7.583571 -7.17609,11.362711 -12.614,15.151931 -10.9466,7.62776 -14.05114,20.29465 -16.4699,32.73172 -4.02545,14.94314 -8.21581,44.12262 -8.21581,44.12262 0,0 -23.21698,23.91023 -36.56213,36.12755 -12.9703,11.87414 0.1983,15.61309 10.77454,13.64268 30.90647,-5.75803 65.6627,-17.78559 99.32218,-26.31753 13.09842,-7.34956 36.57467,-31.77511 39.10362,-41.73519 1.55219,-6.44359 3.58792,-11.62086 9.52719,-17.26057 15.31582,-14.54333 30.20103,-26.0812 43.90952,-39.42536 9.86384,-9.60172 15.90572,-21.478391 1.24712,-33.85821 1.26214,-1.783338 -14.08297,-6.221484 -13.27092,-7.178441 1.16822,-1.710159 0.73169,-4.028734 -0.97847,-5.196958 z m 52.14881,54.482735 c 2.59579,1.721396 4.6203,3.969392 4.41048,6.414164 -0.35558,4.143104 -0.58328,6.842444 -7.31092,12.360264 -7.96144,6.52976 -32.54311,20.00961 -42.68122,38.41679 1.12511,-19.0313 5.47663,-40.25589 20.30337,-49.122208 2.74149,1.343811 7.97085,-3.575451 8.99611,-5.604535 2.03174,-4.105464 3.53159,-5.338971 6.978,-5.79683 3.54729,0.55102 6.76294,1.688617 9.30418,3.332355 z M 412.07887,41.540741 c 3.27537,2.304073 6.08387,5.802169 6.48841,7.45437 0.82686,3.376938 0.22323,5.222684 -2.86225,8.608333 -5.38216,5.498831 -2.6521,9.212769 0.98374,12.368007 -3.31644,18.802591 -28.04881,30.128439 -44.32101,38.072179 15.95835,-15.351696 19.86438,-46.489548 23.2776,-56.974308 2.6934,-8.273642 5.1251,-9.467402 8.85521,-11.305349 2.20107,-1.084536 5.03079,-0.01528 7.5783,1.776768 z" id="path904" inkscape:connector-curvature="0" sodipodi:nodetypes="cccsssccssccssccscccsccccccccccccc" stroke-opacity="1" fill="#000000" stroke="none" stroke-linejoin="miter" fill-opacity="0.126" stroke-linecap="butt" stroke-width="0.555"/>
  <path d="m 404.5918,26.117188 c -10.76874,0.279408 -16.25118,11.830195 -19.5164,20.64899 -7.72112,18.521484 -12.78933,38.150861 -21.60665,56.192802 -5.19163,9.04714 -16.71534,12.33787 -20.51758,22.49805 -5.81974,13.47128 -7.54044,28.29012 -10.63235,42.49077 -1.44708,7.32419 -2.23736,14.94226 -3.76609,22.144 -12.88817,13.54178 -26.72055,26.50178 -39.82031,39.62304 -2.95071,2.64838 -2.03444,7.62286 2.13477,8.17188 11.71224,2.41877 23.30256,-2.92287 34.76367,-5.03516 25.57927,-6.82186 51.1139,-14.30441 76.49414,-21.60742 14.28502,-9.91315 27.22888,-22.47457 36.22461,-37.43359 2.40878,-7.79208 4.98247,-16.06922 11.6976,-21.37412 15.60419,-15.1967 33.62019,-27.90226 48.09146,-44.23135 5.90151,-6.51994 6.57058,-17.236354 -0.125,-23.496096 -3.01639,-3.617643 -5.8105,-6.179829 -10.62912,-7.491842 -2.41906,-1.230856 -8.385,-2.002897 -5.84158,-5.908548 -1.64671,-4.889832 -8.48553,-6.072476 -11.93355,-9.626058 -12.93684,-8.535837 -25.45566,-17.971219 -38.63286,-25.99113 -2.11556,-0.227972 -3.30521,3.313627 -5.4707,1.189453 -6.19222,-5.121436 -12.24952,-11.143255 -20.91406,-10.763671 z m 1.66797,12.214843 c 5.98806,0.577569 11.47043,5.551396 13.42968,11.105469 2.43033,6.770704 -8.52415,10.030747 -5.28125,16.511719 2.18653,2.409348 4.27529,4.482764 2.35938,7.791015 -6.36032,16.961773 -24.2368,25.212833 -39.31577,32.936146 -4.01776,2.54325 -10.06943,4.25936 -4.34634,-0.80919 14.39712,-15.946677 16.3335,-38.34611 22.62109,-57.974612 1.62343,-4.725346 5.43448,-8.812857 10.53321,-9.560547 z m 69.56835,47.164063 c 5.87406,1.027492 14.07258,3.857447 14.53516,10.824218 -0.16346,10.793298 -11.92375,15.483798 -19.11719,21.179688 -12.82204,8.83674 -25.42815,18.98993 -32.89843,32.96484 0.66566,-17.44036 2.93564,-37.24618 16.17187,-50.00195 2.32609,-2.592267 5.0345,-3.402541 8.13281,-3.929687 5.84304,-2.292815 5.98605,-11.190024 13.17578,-11.037109 z" id="path1075" inkscape:connector-curvature="0" stroke-opacity="1" fill="#000000" stroke="none" stroke-linejoin="miter" fill-opacity="0.126" stroke-linecap="butt" stroke-width="0.555"/>
  <path d="m 404.63477,27.117188 c -11.23423,0.651322 -15.94594,12.83201 -19.35157,21.769531 -7.97476,18.834047 -12.40571,39.308624 -22.65039,57.101561 -6.63943,8.04388 -17.81846,12.5629 -20.28125,23.64649 -6.78684,19.70752 -8.8526,40.86906 -13.07617,61.14843 -13.21145,14.19429 -27.96497,27.02997 -40.99609,41.28907 -1.70268,5.38451 5.62763,5.57717 9.17187,5.42968 13.76023,-0.90622 26.98008,-5.97043 40.39635,-8.99921 21.67713,-6.26299 43.78265,-11.75397 65.0392,-19.01446 13.92361,-10.199 27.44175,-22.529 35.13967,-37.99876 2.30854,-9.21465 7.37639,-17.56136 15.0235,-23.28851 15.41708,-14.71402 33.5354,-26.85551 46.6005,-43.82992 4.53026,-7.456383 1.45998,-16.951495 -5.16797,-22.023434 -3.61974,-4.655144 -11.1979,-3.519166 -14.39844,-8.353515 0.0686,-2.348258 0.36112,-4.581328 -2.33203,-5.861329 -16.21937,-9.670854 -30.93094,-21.945833 -47.23242,-31.412109 -2.0928,2.299667 -5.43384,2.377958 -7.21922,-0.387579 -5.28519,-4.488405 -11.24548,-9.637248 -18.66554,-9.215936 z m 1.74218,10.222656 c 7.31273,0.914302 14.81048,7.577445 14.54883,15.267578 -0.63762,4.806413 -7.61152,7.571673 -5.67578,12.78125 3.20653,2.511459 4.30105,6.92585 1.80273,10.322266 -7.83573,17.685551 -27.11045,25.603302 -43.22265,33.873042 -1.88084,1.53565 -5.60323,-0.10105 -3.37305,-2.44726 16.55929,-16.247222 17.67277,-40.635482 25.08985,-61.437501 2.00122,-4.254068 6.0228,-7.882364 10.83007,-8.359375 z m 69.63867,47.173828 c 6.99358,0.915832 16.6596,5.377289 15.17188,13.927734 -2.22803,11.326114 -14.66839,15.495374 -22.58317,22.134104 -12.68337,8.77563 -24.17666,19.60938 -31.24886,33.42254 0.22112,-19.63587 2.46914,-42.4002 18.42187,-55.99805 3.557,-2.5326 8.94675,-1.93535 10.89454,-6.576172 2.01813,-3.409873 4.83551,-7.347183 9.34374,-6.910156 z" id="path1079" inkscape:connector-curvature="0" stroke-opacity="1" fill="#000000" stroke="none" stroke-linejoin="miter" fill-opacity="0.126" stroke-linecap="butt" stroke-width="0.555"/>
  <path d="m 404.70898,28.115234 c -11.49346,0.876297 -15.65779,13.900372 -19.24023,22.925782 -8.04065,18.866417 -11.87326,39.899843 -23.41016,57.109374 -7.10014,7.27946 -17.54872,12.66943 -19.37695,23.64063 -6.44203,19.36577 -8.16862,39.91645 -12.67773,59.67773 -13.13003,14.37512 -28.44486,26.93314 -40.95118,41.69531 0.73041,4.62813 7.4255,3.20445 10.88086,3.125 19.96982,-2.91313 39.22634,-9.71046 58.78597,-14.67432 14.89469,-4.33706 30.13266,-7.92929 44.49693,-13.61773 15.06491,-11.43089 30.5427,-25.00386 36.13898,-43.62787 5.43955,-13.53557 18.65924,-21.21118 28.81145,-30.83313 11.28031,-10.02935 24.11021,-19.27512 31.89558,-32.39343 3.32368,-10.306303 -5.47262,-20.717113 -15.34766,-22.681642 -3.63197,-1.051915 -6.41928,-3.917374 -5.8164,-7.833985 -6.41333,-5.355197 -14.43292,-9.252746 -21.13158,-14.520304 -8.91255,-6.250535 -17.70546,-12.62414 -27.1028,-18.141805 -3.39556,3.337713 -7.74436,0.357876 -10.02344,-2.570313 -4.48971,-3.735427 -9.758,-7.645206 -15.93164,-7.279297 z m 1.81446,8.236328 c 8.40084,1.034294 17.42371,9.481403 14.79492,18.410157 -1.29124,3.517822 -7.45767,6.759481 -4.49219,10.697265 3.8844,3.55383 2.79418,9.355285 -0.0703,13.154297 -9.05219,16.768431 -27.82837,24.422579 -43.97461,32.503909 -3.50007,1.07137 -5.56999,-3.73972 -2.26563,-5.45508 15.64896,-16.139456 16.84859,-40.108375 24.13868,-60.414063 2.17908,-4.603046 6.62681,-8.567368 11.86914,-8.896485 z m 68.67578,47.13086 c 7.92022,0.433796 18.52293,5.794465 16.9668,15.166016 -2.72055,12.576112 -16.65384,16.920222 -25.33594,24.406252 -12.61249,8.87558 -23.52932,20.56614 -30.39649,34.54297 -0.22246,-20.78045 1.54148,-44.8071 17.94727,-59.707035 3.73728,-3.440806 10.53648,-2.620491 12.25391,-8.310547 1.8881,-3.011882 4.73679,-6.076771 8.56445,-6.097656 z" id="path1083" inkscape:connector-curvature="0" stroke-opacity="1" fill="#000000" stroke="none" stroke-linejoin="miter" fill-opacity="0.126" stroke-linecap="butt" stroke-width="0.555"/>
  <path d="m 404.77539,29.113281 c -11.75045,1.205799 -15.26546,14.940642 -19.12695,24.087891 -7.81741,18.741358 -11.45227,39.672462 -23.57227,56.347658 -7.54021,7.01504 -17.57965,13.19775 -19.0332,24.36914 -6.07728,18.92162 -7.54513,38.99999 -12.30274,58.22851 -12.94944,14.3349 -28.42341,26.63494 -40.54101,41.47852 3.60699,4.14695 10.46973,0.89397 15.1582,0.76172 27.0179,-5.62496 53.54554,-14.23984 80.23409,-21.42015 9.55212,-2.661 19.15449,-5.72882 26.20572,-13.05865 12.50384,-10.06593 22.9835,-22.99776 27.78089,-38.47042 7.59316,-14.38992 22.42806,-22.62126 33.7525,-33.69396 9.52529,-8.45733 20.49967,-16.58558 26.14594,-28.27479 2.04208,-10.123174 -7.14725,-18.918682 -16.51562,-20.585938 -3.07683,-1.243576 -5.48734,-4.414286 -5.11914,-7.824218 -12.42294,-8.558611 -25.04738,-17.025173 -37.38086,-25.748047 -3.3579,-1.623443 -6.85224,-5.618918 -10.27735,-5.701172 -5.98909,3.282617 -10.20836,-4.280895 -14.56054,-6.814453 -3.16975,-2.182909 -6.90469,-3.934776 -10.84766,-3.681641 z m 1.89649,6.25 c 9.39401,0.989721 19.39066,11.259235 15.01171,20.914063 -1.76826,2.843239 -7.07253,6.423782 -3.07617,9.658203 4.61595,6.489188 -1.07797,13.934972 -4.89062,19.173828 -10.58046,13.268313 -26.76616,20.455075 -41.81446,27.160155 -3.93444,0.32336 -5.64715,-5.71698 -2.00586,-7.40625 15.83457,-16.507248 16.40203,-40.677156 24.32813,-60.972655 2.47816,-4.537029 7.10753,-8.347313 12.44727,-8.527344 z m 68.5996,47.121094 c 8.54897,0.265617 19.54345,6.561956 17.86914,16.388672 -3.00437,13.312843 -17.66956,17.863633 -26.9082,25.835933 -13.08099,9.30062 -23.79474,22.029 -30.6582,36.53711 -0.62478,-21.5905 0.50566,-46.32296 16.61328,-62.648434 3.8891,-5.063457 12.48065,-3.838371 14.39648,-10.736328 1.99589,-2.845548 5.03035,-5.427691 8.6875,-5.376953 z" id="path1087" inkscape:connector-curvature="0" stroke-opacity="1" fill="#000000" stroke="none" stroke-linejoin="miter" fill-opacity="0.126" stroke-linecap="butt" stroke-width="0.555"/>
 </g>
 <g transform="matrix(0.69549125,0,0,0.69549125,261.0368,40.636085)" id="g978">
  <path d="m -179.2865,94.017467 c -14.25977,8.026903 -27.79751,18.135673 -38.82954,33.785393 4.42294,-13.21889 8.85171,-27.46059 22.04155,-34.235163 5.8957,-3.028155 10.44694,-6.227624 14.52673,-13.329491 10.5207,-18.313856 18.22225,-35.500315 27.95673,-51.96936 7.00438,-11.850193 17.12143,-20.5223272 32.60931,-9.197129 10.44705,7.639183 11.76248,15.809298 10.26763,23.509542 -1.68131,8.660635 -8.45392,16.775684 -17.72354,15.481156 -1.58569,-5.455316 -1.98317,-6.879691 2.32175,-10.488407 3.51043,-2.942719 4.35554,-4.691484 3.98762,-8.148655 -0.31997,-3.007035 -7.38903,-12.813819 -12.70632,-11.029774 -3.94235,1.322732 -6.51179,2.181378 -10.28721,10.020631 -5.08449,10.557447 -13.83749,44.158964 -34.16471,55.601257 z" id="path858" inkscape:connector-curvature="0" sodipodi:nodetypes="scssssscsssss" stroke-opacity="1" fill="#333333" stroke="none" stroke-linejoin="miter" fill-opacity="1" stroke-linecap="butt" stroke-width="0.555"/>
  <path d="m -166.43019,80.465382 c 1.042,0.694665 13.13607,-10.73184 18.23496,-17.656072 0.85814,-1.165346 21.99773,-37.627695 21.99773,-37.627695 6.94665,-11.659111 19.97163,-8.341381 20.83996,-0.578888" id="path880" inkscape:connector-curvature="0" sodipodi:nodetypes="cscc" transform="rotate(-5.5755597,-49.835868,217.82387)" stroke-dasharray="none" stroke-opacity="1" fill="none" filter="url(#filter906)" stroke="#000000" stroke-linejoin="miter" stroke-linecap="butt" stroke-width="2.4" stroke-miterlimit="4"/>
  <path d="m -126.79465,59.962181 39.230348,33.252068 c -19.561378,8.060361 -26.046488,36.679011 -28.978978,57.757811 -2.47117,17.76277 -9.31041,21.38068 -16.89672,27.12921 -32.73336,24.80372 -74.03578,38.04926 -108.10447,59.00836 -9.16309,5.63715 -17.95823,5.32547 -11.15493,-10.88993 14.35932,-34.22491 22.80075,-73.17637 38.47939,-108.32543 8.00771,-17.952009 21.51577,-20.421682 35.74477,-25.242542 17.02552,-5.76833 45.58361,-13.569623 51.68059,-32.689547 z" id="path817" inkscape:connector-curvature="0" sodipodi:nodetypes="ccssssssc" stroke-opacity="1" fill="url(#radialGradient825)" stroke="none" stroke-linejoin="miter" fill-opacity="1" stroke-linecap="butt" stroke-width="0.555"/>
  <path d="m -129.34049,57.66823 42.956296,37.028706 c 2.494993,-11.647489 5.72711,-20.948954 20.20558,-22.889688 L -110.31502,33.295855 c 1.17371,16.011901 -9.09041,19.403038 -19.02547,24.372375 z" id="path827" inkscape:connector-curvature="0" sodipodi:nodetypes="ccccc" stroke-opacity="1" fill="url(#radialGradient837)" stroke="none" stroke-linejoin="miter" fill-opacity="1" stroke-linecap="butt" stroke-width="0.555"/>
  <path sodipodi:nodetypes="scssssscsssss" inkscape:connector-curvature="0" id="path860" d="m -118.93215,146.72281 c -6.50322,15.016 -15.152,29.52999 -29.57192,42.12703 12.68832,-5.7713 26.39331,-11.65459 31.76203,-25.47644 2.39975,-6.17821 5.10947,-11.03699 11.74944,-15.83198 17.122745,-12.36503 33.416841,-21.80912 48.786361,-33.20067 11.059031,-8.19672 18.634057,-19.159355 5.762239,-33.387891 -8.682431,-9.597565 -16.944963,-10.057754 -24.448413,-7.771601 -8.439305,2.571285 -15.807444,10.149745 -13.557622,19.234892 5.590457,1.010803 7.048397,1.258261 10.190717,-3.398017 2.562397,-3.796954 4.213987,-4.819036 7.69067,-4.811998 3.024001,0.0061 13.511651,6.018902 12.289238,11.492656 -0.906332,4.05838 -1.493597,6.703069 -8.898563,11.271869 -9.972585,6.15301 -42.483897,18.34694 -51.754177,39.75215 z" stroke-opacity="1" fill="#333333" stroke="none" stroke-linejoin="miter" fill-opacity="1" stroke-linecap="butt" stroke-width="0.555"/>
  <rect id="rect862" width="65.734" height="7.477" x="-64.03" y="91.73" ry="3.738" transform="rotate(42.020668)" opacity="1" stroke-dasharray="none" stroke-opacity="0.937" fill="url(#linearGradient870)" stroke="none" stroke-linejoin="round" fill-opacity="1" stroke-linecap="round" stroke-width="0.555" stroke-dashoffset="0" stroke-miterlimit="4" rx="3.738"/>
  <path sodipodi:nodetypes="cssscsssc" inkscape:connector-curvature="0" id="path874" d="m -74.06546,81.873468 c 7.1565,-5.092277 13.18125,-14.911593 27.78136,-5.694368 16.34705,10.320084 11.41906,22.432864 -0.39016,30.28259 -18.11437,12.04085 -45.35306,20.74738 -57.1231,32.94106 -19.33755,20.03353 -21.25996,32.53562 -33.76557,34.63336 15.14435,-8.6156 21.33546,-24.26184 31.4746,-37.60394 11.14645,-14.66761 40.0426,-19.51329 57.56757,-33.06327 8.08643,-6.252266 10.60999,-13.83177 0.37222,-24.069015 -8.3569,-8.356485 -16.56465,-1.721297 -25.91692,2.573583 z" transform="rotate(-5.5755597,-49.835868,217.82387)" stroke-opacity="1" fill="#ffffff" filter="url(#filter876)" stroke="none" stroke-linejoin="miter" fill-opacity="0.373" stroke-linecap="butt" stroke-width="0.555"/>
  <path d="m -136.32803,174.53462 c 9.89304,-2.57531 18.72399,-12.31229 23.44495,-19.10329 3.60617,-8.73081 14.25815,-16.48611 22.28717,-20.55052 l 46.60046,-24.60271 c 6.53645,-3.59408 9.28638,-11.843016 9.55164,-16.208858" id="path910" inkscape:connector-curvature="0" sodipodi:nodetypes="ccccc" transform="rotate(-5.5755597,-49.835868,217.82387)" stroke-dasharray="none" stroke-opacity="1" fill="none" filter="url(#filter916)" stroke="#000000" stroke-linejoin="miter" stroke-linecap="round" stroke-width="2.1" stroke-miterlimit="4"/>
  <path d="m -251.23501,230.63275 c 15.14437,-30.3583 19.93544,-62.90862 31.87259,-93.55634 8.2827,-21.26522 25.19608,-37.03712 46.06854,-43.467054 14.57107,-4.488737 28.082,-8.648476 38.83033,-19.023662 0.6289,-0.607069 4.82912,-5.637229 9.88601,-11.75513 0.48322,-1.946542 1.16174,-3.787292 1.97843,-5.517908 8.28591,-2.302718 10.52098,-9.255982 11.82154,-14.446167 3.15553,-2.558627 5.66509,-3.996073 6.01552,-4.197371 -0.0715,-3.253177 2.89419,-4.763703 5.094603,-5.176375 l 3.345004,3.088759 c -2.335155,0.974204 -5.484057,2.968224 -5.248057,5.118902 -2.56389,1.484721 -17.70493,12.174201 -19.04394,24.101173 -5.36604,6.628647 -9.90656,12.174296 -10.68541,13.033143 -11.41352,12.585847 -25.14436,14.573423 -38.03094,19.622513 -20.25234,7.935067 -36.67976,22.732647 -45.54864,42.834667 -12.92597,29.29769 -18.03473,60.11838 -32.72996,90.73183 -5.23187,9.33565 -3.65785,2.09473 -3.62562,-1.39098 z" id="path840" inkscape:connector-curvature="0" sodipodi:nodetypes="csssccccccccssscc" stroke-opacity="1" fill="#ffffff" stroke="none" stroke-linejoin="miter" fill-opacity="0.039" stroke-linecap="butt" stroke-width="1"/>
  <path sodipodi:nodetypes="csssccccccccssscc" inkscape:connector-curvature="0" id="path857" d="m -249.61758,229.83927 c 15.14437,-30.3583 19.72058,-60.76903 31.65773,-91.41675 8.2827,-21.26522 25.6158,-37.07809 46.48827,-43.508029 14.57107,-4.488736 27.24256,-8.56653 37.99088,-18.941715 0.62891,-0.607069 4.80864,-5.847091 9.86553,-11.964991 0.48322,-1.946543 0.19937,-4.964513 1.01606,-6.695129 8.28591,-2.302718 11.67271,-8.309109 12.97327,-13.499294 3.15553,-2.558627 5.26587,-3.745239 5.6163,-3.946537 -0.0715,-3.253177 2.8737,-4.973564 5.074114,-5.386236 l 2.131798,1.512302 c -2.335155,0.974204 -6.262032,3.679755 -6.026032,5.830433 -2.5639,1.484721 -17.78689,11.334756 -19.1259,23.261729 -5.36603,6.628647 -9.33843,11.483252 -10.11728,12.342099 -11.41352,12.585846 -25.90186,15.494813 -38.78844,20.543904 -20.25234,7.935064 -36.13212,21.831744 -45.00101,41.933764 -12.92596,29.29769 -16.66813,58.92566 -31.36336,89.53912 -5.23186,9.33564 -2.42416,3.88103 -2.39193,0.39533 z" stroke-opacity="1" fill="#ffffff" stroke="none" stroke-linejoin="miter" fill-opacity="0.051" stroke-linecap="butt" stroke-width="1"/>
  <path d="m -248.63934,229.61881 c 15.14437,-30.3583 19.66929,-60.01421 31.60644,-90.66193 8.2827,-21.26522 24.8097,-36.37456 45.68216,-42.804492 14.57107,-4.488737 27.42972,-9.209647 38.17805,-19.584832 0.6289,-0.60707 4.9445,-5.735385 10.00139,-11.853286 0.48322,-1.946542 0.84248,-4.777355 1.65917,-6.507971 6.2853,-4.940056 10.18317,-9.679514 12.46604,-13.574746 3.15553,-2.558628 4.68612,-4.56343 5.03655,-4.764728 -0.0715,-3.253177 3.54098,-4.538828 5.741399,-4.9515 l 0.561729,0.790789 c -2.335158,0.974204 -5.555548,3.235878 -5.319548,5.386556 -2.5639,1.484721 -17.88651,11.594421 -19.22552,23.521393 -5.36603,6.628648 -9.30218,11.854621 -10.08103,12.713468 -11.41352,12.585847 -25.72881,15.153182 -38.72507,19.912871 -24.04148,8.804838 -36.33135,22.351068 -45.20024,42.453088 -12.92596,29.29769 -16.1609,59.00111 -30.85612,89.61457 -5.23187,9.33565 -1.55763,3.79645 -1.5254,0.31075 z" id="path4548" inkscape:connector-curvature="0" sodipodi:nodetypes="csssccccccccssscc" stroke-opacity="1" fill="#ffffff" stroke="none" stroke-linejoin="miter" fill-opacity="0.051" stroke-linecap="butt" stroke-width="1"/>
  <path d="m 108.93948,-160.54234 c -1.92111,-15.71501 6.99151,-32.20227 -23.023294,-40.43115 -33.606134,-9.21347 -51.006309,10.86484 -46.046583,35.9388 7.609304,38.46893 35.703906,110.896773 22.990117,144.162309 -6.028215,15.7727823 -5.465386,39.234247 6.943388,58.428937 -13.859642,-28.4692533 0.0099,-59.446707 5.443749,-89.159417 5.9737,-32.66463 -24.978735,-81.738399 -28.245829,-121.534269 -1.507512,-18.36273 7.791364,-26.2114 33.861265,-25.02864 21.280417,0.96547 22.425737,19.95512 28.077187,37.62343 z" id="path872" inkscape:connector-curvature="0" sodipodi:nodetypes="cssscsssc" transform="matrix(0.41076805,0.37289903,-0.37289903,0.41076805,-227.51702,77.76469)" stroke-opacity="1" fill="#ffffff" filter="url(#filter962)" stroke="none" stroke-linejoin="miter" fill-opacity="0.452" stroke-linecap="butt" stroke-width="1"/>
 </g>
 <g transform="translate(147.59335,-2.2639424)" id="g4446">
  <path stroke-width="1.6" stroke-linecap="butt" stroke-linejoin="miter" stroke="url(#linearGradient4312)" fill-rule="evenodd" fill="none" stroke-opacity="1" stroke-dasharray="none" d="m -101.55787,9.284889 c 1.599163,-0.8882422 4.056904,-0.4605238 5.211561,0.1512555 L -12.591874,49.13546 c 3.1130104,1.685311 8.2445381,5.693254 8.8392981,11.561498 l 0.4533681,84.669182 7.5895318,4.11809 c 2.61691,1.59309 4.3592547,5.78842 4.3503347,8.61814 l 1.3745253,81.02065 c -0.2906,3.99566 -3.264932,6.86789 -8.134722,7.26562" id="path4337" inkscape:connector-curvature="0" sodipodi:nodetypes="ccccccccc" stroke-miterlimit="4"/>
  <path stroke-width="0.2" stroke-linecap="round" fill-opacity="1" stroke-linejoin="round" stroke="#000000" fill="url(#linearGradient4324)" stroke-opacity="1" inkscape:connector-curvature="0" id="rect3445" d="m -80.444415,25.809761 61.920995,31.066027 c 2.90978,1.45985 5.25231,5.255925 5.25231,8.511381 l 0,163.527511 c 0,3.25545 -2.34253,4.70101 -5.25231,3.24117 l -61.920995,-31.06604 c -2.909778,-1.45984 -5.252306,-5.25591 -5.252306,-8.51136 l 0,-163.527524 c 0,-3.255455 2.342528,-4.701014 5.252306,-3.241165 z" stroke-miterlimit="4"/>
  <path stroke-width="0.933" stroke-linecap="round" fill-opacity="1" stroke-linejoin="round" stroke="none" fill="url(#linearGradient3339)" stroke-opacity="1" inkscape:connector-curvature="0" d="m -79.021161,24.860928 22.002768,11.106911 C -75.086226,98.434831 -72.050056,150.44082 -60.317419,208.93859 l -18.703742,-8.7976 c -2.909778,-1.45984 -5.252306,-5.25591 -5.252306,-8.51136 l 0,-163.527537 c 0,-3.255455 2.342528,-4.701014 5.252306,-3.241165 z" id="path3853" sodipodi:nodetypes="ccccccc" stroke-miterlimit="4"/>
  <g stroke-width="0.987" stroke-linecap="round" fill-opacity="0.354" stroke-linejoin="round" stroke="none" fill="#000000" stroke-opacity="1" id="g3720" transform="matrix(0.19166724,0.09616027,0,0.21443678,-155.36091,-29.381457)" stroke-miterlimit="4">
   <path stroke="none" inkscape:connector-curvature="0" d="m 398.67679,73.230576 323.06509,0 -16.28231,11.614059 -323.06509,0 16.28231,-11.614059 z" id="path3722"/>
   <path stroke="none" inkscape:connector-curvature="0" d="m 721.74188,73.230576 c 15.18142,0 27.40329,12.221869 27.40329,27.403294 l -16.28231,11.61406 c 0,-15.181426 -12.22187,-27.403295 -27.40329,-27.403295 l 16.28231,-11.614059 z" id="path3724"/>
   <path stroke="none" inkscape:connector-curvature="0" d="m 749.14517,100.63387 0,762.59081 -16.28231,11.61406 0,-762.59081 16.28231,-11.61406 z" id="path3726"/>
   <path stroke="none" inkscape:connector-curvature="0" d="m 749.14517,863.22468 c 0,9.23038 -4.51806,17.3667 -11.47236,22.32716 L 721.3905,897.1659 c 6.9543,-4.96046 11.47236,-13.09678 11.47236,-22.32716 l 16.28231,-11.61406 z" id="path3728"/>
   <path fill-opacity="1" stroke="none" fill="url(#linearGradient2708)" inkscape:connector-curvature="0" d="m 739.93982,884.53524 c -4.4836,3.19812 -12.24689,6.09274 -18.19794,6.09274 l -16.84906,13.64121 c 5.95104,0 15.1578,-1.83107 19.33144,-5.58789 z" id="path3730" sodipodi:nodetypes="cccsc"/>
   <path fill-opacity="1" stroke="none" fill="url(#linearGradient2710)" inkscape:connector-curvature="0" d="m 721.74188,890.62798 -323.06509,0 -17.41581,12.37564 324.19859,1.01142 z" id="path3732" sodipodi:nodetypes="ccccc"/>
   <path fill-opacity="1" stroke="none" fill="url(#linearGradient2712)" inkscape:connector-curvature="0" d="m 398.67679,890.62798 c -15.18142,0 -27.40329,-12.22187 -27.40329,-27.4033 l -16.28231,11.61406 c 0,15.18143 12.22187,27.4033 27.40329,27.4033 l 16.28231,-11.61406 z" id="path3734"/>
   <path fill-opacity="1" stroke="none" fill="#5c5c5c" inkscape:connector-curvature="0" d="m 371.2735,863.22468 0,-762.59081 -16.28231,11.61406 0,762.59081 16.28231,-11.61406 z" id="path3736"/>
   <path fill-opacity="1" stroke="none" fill="url(#linearGradient2716)" inkscape:connector-curvature="0" d="m 371.2735,100.63387 c 0,-9.230377 4.51805,-17.366696 11.47236,-22.327151 l -16.28231,11.614059 c -6.95431,4.960455 -11.47236,13.096772 -11.47236,22.327152 l 16.28231,-11.61406 z" id="path3738"/>
   <path stroke="none" inkscape:connector-curvature="0" d="m 382.74586,78.306719 c 4.4836,-3.198126 9.97988,-5.076143 15.93093,-5.076143 l -16.28231,11.614059 c -5.95105,0 -11.44733,1.878017 -15.93093,5.076143 l 16.28231,-11.614059 z" id="path3740"/>
  </g>
  <g stroke-width="1" stroke-linecap="round" fill-opacity="0.354" stroke-linejoin="round" stroke="none" fill="#000000" stroke-opacity="1" id="g3393" transform="matrix(0.21443678,0,0,0.21443678,-158.06597,-29.038073)" stroke-miterlimit="4">
   <path stroke="none" inkscape:connector-curvature="0" d="m 684.01795,1255.852 -397.02122,-191.0664 -19.69616,3.473 397.02122,191.0664 19.69616,-3.473 z" id="path3395"/>
   <path stroke="none" inkscape:connector-curvature="0" d="m 286.99673,1064.7856 c -18.48889,-8.8978 -33.37345,-32.5795 -33.37345,-53.098 l -19.69616,3.473 c 0,20.5185 14.88456,44.2002 33.37345,53.098 l 19.69616,-3.473 z" id="path3397"/>
   <path stroke="none" inkscape:connector-curvature="0" d="m 253.62328,1011.6876 0,-811.43314 -19.69616,3.47296 0,811.43318 19.69616,-3.473 z" id="path3399"/>
   <path stroke="none" inkscape:connector-curvature="0" d="m 253.62328,200.25446 c 0,-13.60006 6.53923,-22.29584 16.33292,-24.02273 l -19.69616,3.47296 c -9.79369,1.7269 -16.33292,10.42268 -16.33292,24.02273 l 19.69616,-3.47296 z" id="path3401"/>
   <path stroke-miterlimit="4" stroke-width="0.998" fill-opacity="1" stroke="none" fill="url(#linearGradient2720)" stroke-opacity="1" stroke-dasharray="none" inkscape:connector-curvature="0" d="m 286.99673,179.27836 397.02122,191.0665 -19.69616,3.47296 -397.02122,-191.0665 19.69616,-3.47296 z" id="path3405"/>
   <path fill-opacity="1" stroke="none" fill="url(#linearGradient2718)" inkscape:connector-curvature="0" d="m 268.28549,175.08311 c 4.99994,-0.77056 12.99924,1.82164 19.23334,4.82177 l -17.39893,3.1597 c -6.23409,-3.00016 -19.64952,-5.17027 -23.06535,-4.70946 z" id="path3403" sodipodi:nodetypes="scccs"/>
   <path fill-opacity="1" stroke="none" fill="url(#linearGradient2724)" stroke-opacity="1" sodipodi:nodetypes="ccccccccccc" inkscape:connector-curvature="0" d="m 717.3914,423.44286 1.31914,391.59967 38.25517,19.78715 c 11.55446,6.99265 16.21608,20.23257 16.94873,37.59194 l 6.79586,379.60328 -26.29188,3.473 -6.59572,-373.17904 -14.51058,-38.25517 -38.70931,-20.40564 3.09243,-396.74223 z" id="path3409"/>
   <path fill-opacity="1" stroke="none" fill="url(#linearGradient3354)" sodipodi:nodetypes="ccccc" inkscape:connector-curvature="0" d="m 681.36509,369.5869 c 18.48889,8.8978 36.02631,33.90583 36.02631,54.42443 l -19.88565,3.85194 c 0,-20.5186 -16.0215,-46.0951 -34.51039,-54.9929 z" id="path3407"/>
   <path stroke="none" inkscape:connector-curvature="0" d="m 701.05854,1258.8986 c -4.98213,0.8785 -10.80647,-0.046 -17.04059,-3.0466 l -19.69616,3.473 c 6.23413,3.0001 12.05846,3.9251 17.04059,3.0466 l 19.69616,-3.473 z" id="path3413"/>
   <path fill-opacity="1" stroke="none" fill="url(#linearGradient2726)" inkscape:connector-curvature="0" d="m 781.04819,1251.6119 c 0,13.6 -10.1306,30.3131 -19.42207,31.9813 l -16.99933,4.5564 c 9.79367,-1.7269 14.46323,-20.6022 14.46323,-34.2022 z" id="path3411" sodipodi:nodetypes="ccccc"/>
  </g>
  <path stroke-width="1" stroke-linecap="round" fill-opacity="1" stroke-linejoin="round" stroke="none" fill="url(#radialGradient3314)" stroke-opacity="1" stroke-dasharray="none" sodipodi:nodetypes="csccscccscccsccssccsss" inkscape:connector-curvature="0" d="m -107.90454,14.508983 0,173.995357 c 0,4.39992 3.19213,9.48394 7.15683,11.39196 l 98.15026,46.62828 c 3.96469,1.90801 7.20275,-0.10349 7.15682,-4.50317 L 3.71075,160.71948 c -0.0432,-3.99645 -0.49924,-7.04813 -4.3262,-9.43749 l -8.1202,-4.14041 0.28287,-84.772987 c 0.0147,-4.399919 -3.19213,-9.483938 -7.15683,-11.391955 l -85.1381,-40.970827 c -3.89366,-1.9123803 -7.09595,1.567361 -7.15683,4.503172 z m 23.878708,10.749757 c 0.68914,-0.02469 1.857892,0.01969 2.676268,0.430271 L -20.2267,56.357662 c 2.90978,1.459847 5.2537,5.255002 5.2537,8.510458 l 0,163.52815 c 1e-5,3.25547 -2.34392,4.70322 -5.2537,3.24336 L -82.14532,200.5731 c -2.90978,-1.45984 -5.123715,-5.38762 -5.121075,-8.64307 l 0.132626,-163.528167 c 0.0019,-2.339854 1.346801,-3.080027 3.107937,-3.143123 z" id="rect3154" stroke-miterlimit="4"/>
  <path stroke-width="1" stroke-linecap="round" fill-opacity="1" stroke-linejoin="round" stroke="none" fill="url(#radialGradient3311)" stroke-opacity="1" inkscape:connector-curvature="0" id="path3944" d="m -100.684,200.18899 c -3.9647,-1.90802 -7.15683,-6.99204 -7.15683,-11.39196 l 0,-173.995364 c 0,-3.299939 1.79885,-5.2546663 4.36915,-5.2201953 0.85677,0.01149 1.7965,0.240019 2.78768,0.7170233 l 0,189.890496 z" sodipodi:nodetypes="cccccc" stroke-miterlimit="4"/>
  <path stroke-width="1" stroke-linecap="butt" fill-opacity="1" stroke-linejoin="miter" stroke="#343434" fill-rule="evenodd" fill="url(#linearGradient4356)" stroke-opacity="1" d="m -105.24912,21.900706 c 3.1185,5.171367 6.23699,5.65052 9.355484,4.819491 l 0.850498,156.208203 c -0.438927,3.70275 -10.229542,2.44747 -10.489482,-2.5515 z" id="path4348" inkscape:connector-curvature="0" sodipodi:nodetypes="ccccc"/>
  <path stroke-width="1" stroke-linecap="butt" fill-opacity="1" stroke-linejoin="miter" stroke="none" fill-rule="evenodd" fill="url(#linearGradient4296)" stroke-opacity="1" d="m -31.02671,226.62155 10.87847,5.63702 c 1.66977,0.98111 5.02678,0.30617 5.43923,-3.26354 l 0.19779,-14.93317 18.0978,-15.22985 0.69227,41.93155 c 0.20867,5.26456 -2.15588,6.89632 -6.42818,5.83481 l -34.6133,-16.61438 z" id="path4288" inkscape:connector-curvature="0" sodipodi:nodetypes="ccccccccc"/>
  <rect stroke-width="2.01" stroke-linecap="round" fill-opacity="1" stroke-linejoin="round" stroke="url(#linearGradient4360)" fill="#b9b9b9" stroke-opacity="1" stroke-dasharray="none" transform="matrix(0.98982743,0.14227321,0,1,0,0)" ry="5.293" y="157.85" x="-10" height="84.23" width="10.872" id="rect4358" stroke-miterlimit="4" rx="5.293"/>
  <path stroke-width="1" stroke-linecap="butt" fill-opacity="1" stroke-linejoin="miter" stroke="none" fill-rule="evenodd" fill="#afafaf" stroke-opacity="1" d="m -105.07346,19.889259 c 1.75557,4.085727 4.34057,7.463537 9.523809,6.349206 z" id="path4295" inkscape:connector-curvature="0" sodipodi:nodetypes="ccc"/>
  <path stroke-width="1.3" stroke-linecap="round" stroke-linejoin="miter" stroke="#a5a5a5" fill-rule="evenodd" fill="none" stroke-opacity="1" stroke-dasharray="none" d="m -92.704322,27.49945 0,159.61019" id="path4273" inkscape:connector-curvature="0" stroke-miterlimit="4"/>
  <path stroke-width="1.3" stroke-linecap="round" stroke-linejoin="miter" stroke="#2c2c2c" fill-rule="evenodd" fill="none" stroke-opacity="1" stroke-dasharray="none" inkscape:connector-curvature="0" id="path4275" d="m -91.286825,28.295206 0,158.814434" stroke-miterlimit="4" sodipodi:nodetypes="cc"/>
  <path stroke-width="1" stroke-linecap="butt" fill-opacity="1" stroke-linejoin="miter" stroke="none" fill-rule="evenodd" fill="url(#linearGradient4286)" stroke-opacity="1" d="m -0.5999,151.1403 4.50404,-1.42533 c 2.16283,0.94886 3.46181,3.36625 4.10495,6.89859 l -4.16196,2.16649 C 3.68636,155.39121 2.86601,152.57611 -0.5999,151.1403 Z" id="path4277" inkscape:connector-curvature="0" sodipodi:nodetypes="ccccc"/>
  <path stroke-width="0.2" stroke-linecap="round" fill-opacity="1" stroke-linejoin="round" stroke="none" fill="url(#linearGradient4280)" stroke-opacity="1" stroke-miterlimit="4" d="m -80.463254,25.998904 61.239026,30.923981 c 2.905965,1.46743 4.269524,6.062022 4.192056,9.316557 l -0.653711,27.46319 C -48.125433,50.153501 -58.752696,87.004075 -85.696721,52.556345 l 0,-23.505419 c 0,-3.255455 1.306739,-5.034909 5.233467,-3.052022 z" id="path4271" inkscape:connector-curvature="0" sodipodi:nodetypes="sssccss"/>
  <path stroke-width="1" stroke-linecap="round" fill-opacity="0.612" stroke-linejoin="round" stroke="url(#linearGradient4301)" fill="none" stroke-opacity="1" stroke-dasharray="none" stroke-miterlimit="4" id="path4291" d="m -8.45278,62.368593 c 0.0147,-4.399919 -3.618266,-9.625983 -7.582966,-11.534 L -100.35488,10.278798 c -3.89366,-1.9123795 -7.55425,0.639662 -7.54966,4.753954 l 0,173.471588 c 0,4.39992 3.19213,9.48394 7.15683,11.39196" inkscape:connector-curvature="0" sodipodi:nodetypes="ccccsc"/>
 </g>
</svg>
