<?xml version="1.0" encoding="UTF-8" standalone="no"?>
<!-- Created with Inkscape (http://www.inkscape.org/) -->

<svg
   xmlns:dc="http://purl.org/dc/elements/1.1/"
   xmlns:cc="http://creativecommons.org/ns#"
   xmlns:rdf="http://www.w3.org/1999/02/22-rdf-syntax-ns#"
   xmlns:svg="http://www.w3.org/2000/svg"
   xmlns="http://www.w3.org/2000/svg"
   xmlns:xlink="http://www.w3.org/1999/xlink"
   xmlns:sodipodi="http://sodipodi.sourceforge.net/DTD/sodipodi-0.dtd"
   xmlns:inkscape="http://www.inkscape.org/namespaces/inkscape"
   id="svg2"
   sodipodi:version="0.32"
   inkscape:version="0.48.0 r9654"
   width="256"
   height="256"
   version="1.0"
   sodipodi:docname="gnome-fs-share.svg"
   inkscape:output_extension="org.inkscape.output.svg.inkscape">
  <metadata
     id="metadata7">
    <rdf:RDF>
      <cc:Work
         rdf:about="">
        <dc:format>image/svg+xml</dc:format>
        <dc:type
           rdf:resource="http://purl.org/dc/dcmitype/StillImage" />
      </cc:Work>
    </rdf:RDF>
  </metadata>
  <defs
     id="defs5">
    <linearGradient
       inkscape:collect="always"
       id="linearGradient3168">
      <stop
         style="stop-color:#000000;stop-opacity:1;"
         offset="0"
         id="stop3170" />
      <stop
         style="stop-color:#ffffff;stop-opacity:1"
         offset="1"
         id="stop3172" />
    </linearGradient>
    <linearGradient
       inkscape:collect="always"
       id="linearGradient2388">
      <stop
         style="stop-color:#ffffff;stop-opacity:1"
         offset="0"
         id="stop2390" />
      <stop
         style="stop-color:#ffffff;stop-opacity:0"
         offset="1"
         id="stop2392" />
    </linearGradient>
    <inkscape:perspective
       sodipodi:type="inkscape:persp3d"
       inkscape:vp_x="0 : 526.18109 : 1"
       inkscape:vp_y="0 : 1000 : 0"
       inkscape:vp_z="744.09448 : 526.18109 : 1"
       inkscape:persp3d-origin="372.04724 : 350.78739 : 1"
       id="perspective9" />
    <linearGradient
       inkscape:collect="always"
       xlink:href="#linearGradient2388"
       id="linearGradient3204"
       gradientUnits="userSpaceOnUse"
       gradientTransform="translate(2.5702815,-6.1686747)"
       spreadMethod="reflect"
       x1="71.453812"
       y1="17.477911"
       x2="51.662651"
       y2="70.425697" />
    <linearGradient
       inkscape:collect="always"
       xlink:href="#linearGradient3168"
       id="linearGradient3206"
       gradientUnits="userSpaceOnUse"
       x1="57.165375"
       y1="92.807144"
       x2="91.751472"
       y2="15.121195" />
    <linearGradient
       y2="-7.4748664"
       x2="16.093008"
       y1="-2.2096405"
       x1="15.650429"
       spreadMethod="reflect"
       gradientUnits="userSpaceOnUse"
       id="linearGradient3610"
       xlink:href="#linearGradient3578"
       inkscape:collect="always" />
    <linearGradient
       y2="-7.4748664"
       x2="16.093008"
       y1="-6.4087667"
       x1="10.621114"
       spreadMethod="reflect"
       gradientUnits="userSpaceOnUse"
       id="linearGradient3608"
       xlink:href="#linearGradient3578"
       inkscape:collect="always" />
    <linearGradient
       y2="-1.5134122"
       x2="9.7181683"
       y1="-5.8865957"
       x1="11.186799"
       spreadMethod="reflect"
       gradientUnits="userSpaceOnUse"
       id="linearGradient3606"
       xlink:href="#linearGradient3578"
       inkscape:collect="always" />
    <linearGradient
       y2="-4.5158963"
       x2="12.916467"
       y1="-3.7543969"
       x1="7.7709298"
       spreadMethod="reflect"
       gradientUnits="userSpaceOnUse"
       id="linearGradient3604"
       xlink:href="#linearGradient3578"
       inkscape:collect="always" />
    <linearGradient
       y2="-3.7326398"
       x2="14.93988"
       y1="-2.2749119"
       x1="17.082983"
       spreadMethod="reflect"
       gradientUnits="userSpaceOnUse"
       id="linearGradient3602"
       xlink:href="#linearGradient3578"
       inkscape:collect="always" />
    <linearGradient
       y2="-1.9920692"
       x2="17.376678"
       y1="-6.2564669"
       x1="15.58174"
       spreadMethod="reflect"
       gradientUnits="userSpaceOnUse"
       id="linearGradient3600"
       xlink:href="#linearGradient3578"
       inkscape:collect="always" />
    <linearGradient
       y2="-7.4748664"
       x2="16.093008"
       y1="-10.977764"
       x1="16.691353"
       spreadMethod="reflect"
       gradientUnits="userSpaceOnUse"
       id="linearGradient3598"
       xlink:href="#linearGradient3578"
       inkscape:collect="always" />
    <linearGradient
       y2="-11.199143"
       x2="11.132382"
       y1="-11.39115"
       x1="16.386753"
       spreadMethod="reflect"
       gradientUnits="userSpaceOnUse"
       id="linearGradient3596"
       xlink:href="#linearGradient3578"
       inkscape:collect="always" />
    <linearGradient
       y2="-2.6882975"
       x2="8.6955833"
       y1="-11.586965"
       x1="12.035328"
       spreadMethod="reflect"
       gradientUnits="userSpaceOnUse"
       id="linearGradient3594"
       xlink:href="#linearGradient3578"
       inkscape:collect="always" />
    <linearGradient
       y2="-5.7778101"
       x2="11.371711"
       y1="-10.150993"
       x1="12.905613"
       spreadMethod="reflect"
       gradientUnits="userSpaceOnUse"
       id="linearGradient3592"
       xlink:href="#linearGradient3578"
       inkscape:collect="always" />
    <linearGradient
       y2="-6.9526954"
       x2="17.74655"
       y1="-5.9083529"
       x1="16.386753"
       spreadMethod="reflect"
       gradientUnits="userSpaceOnUse"
       id="linearGradient3590"
       xlink:href="#linearGradient3578"
       inkscape:collect="always" />
    <linearGradient
       y2="-8.018795"
       x2="17.07476"
       y1="-7.4748664"
       x1="13.514812"
       spreadMethod="reflect"
       gradientUnits="userSpaceOnUse"
       id="linearGradient3588"
       xlink:href="#linearGradient3578"
       inkscape:collect="always" />
    <linearGradient
       y2="-6.5828238"
       x2="18.616835"
       y1="-5.2121248"
       x1="16.908924"
       spreadMethod="reflect"
       gradientUnits="userSpaceOnUse"
       id="linearGradient3586"
       xlink:href="#linearGradient3578"
       inkscape:collect="always" />
    <linearGradient
       spreadMethod="reflect"
       gradientUnits="userSpaceOnUse"
       y2="-7.4748664"
       x2="16.093008"
       y1="-7.4748664"
       x1="13.514812"
       id="linearGradient3584"
       xlink:href="#linearGradient3578"
       inkscape:collect="always" />
    <inkscape:perspective
       sodipodi:type="inkscape:persp3d"
       inkscape:vp_x="0 : 128 : 1"
       inkscape:vp_y="0 : 1000 : 0"
       inkscape:vp_z="256 : 128 : 1"
       inkscape:persp3d-origin="128 : 85.333333 : 1"
       id="perspective2503" />
    <linearGradient
       id="linearGradient3578">
      <stop
         id="stop3580"
         offset="0"
         style="stop-color:#000000;stop-opacity:1;" />
      <stop
         id="stop3582"
         offset="1"
         style="stop-color:#fffcfc;stop-opacity:1;" />
    </linearGradient>
    <linearGradient
       inkscape:collect="always"
       xlink:href="#linearGradient3578"
       id="linearGradient3473"
       gradientUnits="userSpaceOnUse"
       spreadMethod="reflect"
       x1="13.514812"
       y1="-7.4748664"
       x2="16.093008"
       y2="-7.4748664" />
    <linearGradient
       inkscape:collect="always"
       xlink:href="#linearGradient3578"
       id="linearGradient3475"
       gradientUnits="userSpaceOnUse"
       spreadMethod="reflect"
       x1="13.514812"
       y1="-7.4748664"
       x2="16.093008"
       y2="-7.4748664" />
    <linearGradient
       inkscape:collect="always"
       xlink:href="#linearGradient3578"
       id="linearGradient3477"
       gradientUnits="userSpaceOnUse"
       spreadMethod="reflect"
       x1="13.514812"
       y1="-7.4748664"
       x2="16.093008"
       y2="-7.4748664" />
    <linearGradient
       inkscape:collect="always"
       xlink:href="#linearGradient3578"
       id="linearGradient3479"
       gradientUnits="userSpaceOnUse"
       spreadMethod="reflect"
       x1="13.514812"
       y1="-7.4748664"
       x2="16.093008"
       y2="-7.4748664" />
    <linearGradient
       inkscape:collect="always"
       xlink:href="#linearGradient3578"
       id="linearGradient3481"
       gradientUnits="userSpaceOnUse"
       spreadMethod="reflect"
       x1="13.514812"
       y1="-7.4748664"
       x2="16.093008"
       y2="-7.4748664" />
    <linearGradient
       inkscape:collect="always"
       xlink:href="#linearGradient3578"
       id="linearGradient3483"
       gradientUnits="userSpaceOnUse"
       spreadMethod="reflect"
       x1="13.514812"
       y1="-7.4748664"
       x2="16.093008"
       y2="-7.4748664" />
    <linearGradient
       inkscape:collect="always"
       xlink:href="#linearGradient3578"
       id="linearGradient3485"
       gradientUnits="userSpaceOnUse"
       spreadMethod="reflect"
       x1="13.514812"
       y1="-7.4748664"
       x2="16.093008"
       y2="-7.4748664" />
    <linearGradient
       inkscape:collect="always"
       xlink:href="#linearGradient3578"
       id="linearGradient3487"
       gradientUnits="userSpaceOnUse"
       spreadMethod="reflect"
       x1="13.514812"
       y1="-7.4748664"
       x2="16.093008"
       y2="-7.4748664" />
    <linearGradient
       inkscape:collect="always"
       xlink:href="#linearGradient3578"
       id="linearGradient3489"
       gradientUnits="userSpaceOnUse"
       spreadMethod="reflect"
       x1="13.514812"
       y1="-7.4748664"
       x2="16.093008"
       y2="-7.4748664" />
    <linearGradient
       inkscape:collect="always"
       xlink:href="#linearGradient3578"
       id="linearGradient3491"
       gradientUnits="userSpaceOnUse"
       spreadMethod="reflect"
       x1="13.514812"
       y1="-7.4748664"
       x2="16.093008"
       y2="-7.4748664" />
    <linearGradient
       inkscape:collect="always"
       xlink:href="#linearGradient3578"
       id="linearGradient3493"
       gradientUnits="userSpaceOnUse"
       spreadMethod="reflect"
       x1="13.514812"
       y1="-7.4748664"
       x2="16.093008"
       y2="-7.4748664" />
    <linearGradient
       inkscape:collect="always"
       xlink:href="#linearGradient3578"
       id="linearGradient3495"
       gradientUnits="userSpaceOnUse"
       spreadMethod="reflect"
       x1="13.514812"
       y1="-7.4748664"
       x2="16.093008"
       y2="-7.4748664" />
    <linearGradient
       inkscape:collect="always"
       xlink:href="#linearGradient3578"
       id="linearGradient3497"
       gradientUnits="userSpaceOnUse"
       spreadMethod="reflect"
       x1="13.514812"
       y1="-7.4748664"
       x2="16.093008"
       y2="-7.4748664" />
    <linearGradient
       inkscape:collect="always"
       xlink:href="#linearGradient3578"
       id="linearGradient3499"
       gradientUnits="userSpaceOnUse"
       spreadMethod="reflect"
       x1="13.514812"
       y1="-7.4748664"
       x2="16.093008"
       y2="-7.4748664" />
    <linearGradient
       inkscape:collect="always"
       xlink:href="#linearGradient3578"
       id="linearGradient3501"
       gradientUnits="userSpaceOnUse"
       spreadMethod="reflect"
       x1="13.514812"
       y1="-7.4748664"
       x2="16.093008"
       y2="-7.4748664" />
    <linearGradient
       inkscape:collect="always"
       xlink:href="#linearGradient3578"
       id="linearGradient3503"
       gradientUnits="userSpaceOnUse"
       spreadMethod="reflect"
       x1="13.514812"
       y1="-7.4748664"
       x2="16.093008"
       y2="-7.4748664" />
    <linearGradient
       inkscape:collect="always"
       xlink:href="#linearGradient3578"
       id="linearGradient3505"
       gradientUnits="userSpaceOnUse"
       spreadMethod="reflect"
       x1="13.514812"
       y1="-7.4748664"
       x2="16.093008"
       y2="-7.4748664" />
    <linearGradient
       inkscape:collect="always"
       xlink:href="#linearGradient3578"
       id="linearGradient3507"
       gradientUnits="userSpaceOnUse"
       spreadMethod="reflect"
       x1="13.514812"
       y1="-7.4748664"
       x2="16.093008"
       y2="-7.4748664" />
    <linearGradient
       inkscape:collect="always"
       xlink:href="#linearGradient3578"
       id="linearGradient3509"
       gradientUnits="userSpaceOnUse"
       spreadMethod="reflect"
       x1="13.514812"
       y1="-7.4748664"
       x2="16.093008"
       y2="-7.4748664" />
    <linearGradient
       inkscape:collect="always"
       xlink:href="#linearGradient3578"
       id="linearGradient3511"
       gradientUnits="userSpaceOnUse"
       spreadMethod="reflect"
       x1="13.514812"
       y1="-7.4748664"
       x2="16.093008"
       y2="-7.4748664" />
    <linearGradient
       inkscape:collect="always"
       xlink:href="#linearGradient3578"
       id="linearGradient3513"
       gradientUnits="userSpaceOnUse"
       spreadMethod="reflect"
       x1="13.514812"
       y1="-7.4748664"
       x2="16.093008"
       y2="-7.4748664" />
    <linearGradient
       inkscape:collect="always"
       xlink:href="#linearGradient3578"
       id="linearGradient3515"
       gradientUnits="userSpaceOnUse"
       spreadMethod="reflect"
       x1="13.514812"
       y1="-7.4748664"
       x2="16.093008"
       y2="-7.4748664" />
    <linearGradient
       inkscape:collect="always"
       xlink:href="#linearGradient3578"
       id="linearGradient3517"
       gradientUnits="userSpaceOnUse"
       spreadMethod="reflect"
       x1="13.514812"
       y1="-7.4748664"
       x2="16.093008"
       y2="-7.4748664" />
    <linearGradient
       inkscape:collect="always"
       xlink:href="#linearGradient3578"
       id="linearGradient3256"
       x1="-170.1734"
       y1="144.52409"
       x2="-152.90944"
       y2="144.52409"
       gradientUnits="userSpaceOnUse"
       spreadMethod="reflect"
       gradientTransform="matrix(0.7904179,0,0,0.7904179,-15.473342,54.364233)" />
    <linearGradient
       inkscape:collect="always"
       xlink:href="#linearGradient3578"
       id="linearGradient3260"
       gradientUnits="userSpaceOnUse"
       gradientTransform="matrix(0.6914896,0,0,0.6796583,-19.966789,79.366857)"
       spreadMethod="reflect"
       x1="-190.94711"
       y1="145.18561"
       x2="-160.27838"
       y2="145.48158" />
    <linearGradient
       inkscape:collect="always"
       xlink:href="#linearGradient3578"
       id="linearGradient3264"
       gradientUnits="userSpaceOnUse"
       gradientTransform="matrix(0.7904179,0,0,0.7904179,295.11428,27.754526)"
       spreadMethod="reflect"
       x1="-170.1734"
       y1="144.52409"
       x2="-152.90944"
       y2="144.52409" />
  </defs>
  <sodipodi:namedview
     inkscape:window-height="1022"
     inkscape:window-width="1680"
     inkscape:pageshadow="2"
     inkscape:pageopacity="0.0"
     guidetolerance="10.0"
     gridtolerance="10.0"
     objecttolerance="10.0"
     borderopacity="1.0"
     bordercolor="#666666"
     pagecolor="#ffffff"
     id="base"
     showgrid="false"
     inkscape:zoom="2.0273438"
     inkscape:cx="128"
     inkscape:cy="128"
     inkscape:window-x="-2"
     inkscape:window-y="0"
     inkscape:current-layer="svg2"
     inkscape:window-maximized="1" />
  <g
     inkscape:label="1. réteg"
     id="layer1"
     transform="translate(-0.694853,0.4886397)">
    <g
       id="g3652">
      <g
         id="g3612">
        <g
           id="g2650"
           style="font-size:12px;font-style:normal;font-weight:normal;fill:url(#linearGradient3584);fill-opacity:1;stroke:none;stroke-width:1px;stroke-linecap:butt;stroke-linejoin:miter;stroke-opacity:1;font-family:Bitstream Vera Sans">
          <path
             style="fill:url(#linearGradient3473);fill-opacity:1"
             id="path2652"
             d="M 16.1875,-12.21875 L 12.09375,-12.1875 L 12.800857,-11.480393 L 16.894607,-11.511643 L 16.1875,-12.21875 z" />
          <path
             style="fill:url(#linearGradient3475);fill-opacity:1"
             id="path2654"
             d="M 12.09375,-12.1875 L 8.75,-3.4375 L 9.4571068,-2.7303932 L 12.800857,-11.480393 L 12.09375,-12.1875 z" />
          <path
             style="fill:url(#linearGradient3477);fill-opacity:1"
             id="path2662"
             d="M 14.75,-5.6875 L 15.53125,-3.46875 L 16.238357,-2.7616432 L 15.457107,-4.9803932 L 14.75,-5.6875 z" />
          <path
             style="fill:url(#linearGradient3479);fill-opacity:1"
             id="path2664"
             d="M 15.53125,-3.46875 L 15.53125,-3.4375 L 16.238357,-2.7303932 L 16.238357,-2.7616432 L 15.53125,-3.46875 z" />
          <path
             style="fill:url(#linearGradient3481);fill-opacity:1"
             id="path2672"
             d="M 17.92037,-11.519527 C 17.478803,-11.961094 16.896486,-12.233764 16.1875,-12.21875 L 16.894607,-11.511643 C 17.603593,-11.526657 18.185909,-11.253988 18.627477,-10.81242 L 17.92037,-11.519527 z" />
          <path
             style="fill:url(#linearGradient3598);fill-opacity:1"
             id="path2674"
             d="M 16.21875,-11.96875 C 16.818366,-11.965939 17.317195,-11.725944 17.700221,-11.342918 L 18.407328,-10.635811 C 18.024302,-11.018837 17.525473,-11.258832 16.925857,-11.261643 L 16.21875,-11.96875 z" />
          <path
             style="fill:url(#linearGradient3483);fill-opacity:1"
             id="path2676"
             d="M 17.700221,-11.342918 C 19.261676,-9.7814631 18.898615,-5.8429893 15.59375,-5.90625 L 16.300857,-5.1991432 C 19.605722,-5.1358825 19.968783,-9.0743563 18.407328,-10.635811 L 17.700221,-11.342918 z" />
          <path
             style="fill:url(#linearGradient3485);fill-opacity:1"
             id="path2678"
             d="M 15.59375,-5.90625 L 16.375,-3.71875 L 17.082107,-3.0116432 L 16.300857,-5.1991432 L 15.59375,-5.90625 z" />
          <path
             style="fill:url(#linearGradient3487);fill-opacity:1"
             id="path2680"
             d="M 16.375,-3.71875 L 15.71875,-3.71875 L 16.425857,-3.0116432 L 17.082107,-3.0116432 L 16.375,-3.71875 z" />
          <path
             style="fill:url(#linearGradient3489);fill-opacity:1"
             id="path2684"
             d="M 14.875,-5.96875 L 10.5625,-5.96875 L 11.269607,-5.2616432 L 15.582107,-5.2616432 L 14.875,-5.96875 z" />
          <path
             style="fill:url(#linearGradient3491);fill-opacity:1"
             id="path2686"
             d="M 10.5625,-5.96875 L 9.75,-3.75 L 10.457107,-3.0428932 L 11.269607,-5.2616432 L 10.5625,-5.96875 z" />
          <path
             style="fill:url(#linearGradient3594);fill-opacity:1"
             id="path2690"
             d="M 9.1875,-3.75 L 12.28125,-11.90625 L 12.988357,-11.199143 L 9.8946068,-3.0428932 L 9.1875,-3.75 z" />
          <path
             style="fill:url(#linearGradient3608);fill-opacity:1"
             id="path2660"
             d="M 10.8125,-5.6875 L 14.75,-5.6875 L 15.457107,-4.9803932 L 11.519607,-4.9803932 L 10.8125,-5.6875 z" />
          <path
             style="fill:url(#linearGradient3610);fill-opacity:1"
             id="path2682"
             d="M 15.71875,-3.71875 L 14.875,-5.96875 L 15.582107,-5.2616432 L 16.425857,-3.0116432 L 15.71875,-3.71875 z" />
          <path
             style="fill:url(#linearGradient3493);fill-opacity:1"
             id="path2688"
             d="M 9.75,-3.75 L 9.1875,-3.75 L 9.8946068,-3.0428932 L 10.457107,-3.0428932 L 9.75,-3.75 z" />
          <path
             style="fill:url(#linearGradient3596);fill-opacity:1"
             id="path2692"
             d="M 12.28125,-11.90625 L 16.21875,-11.96875 L 16.925857,-11.261643 L 12.988357,-11.199143 L 12.28125,-11.90625 z" />
          <path
             style="fill:url(#linearGradient3495);fill-opacity:1"
             id="path2694"
             d="M 13.59375,-11.375 L 15.4375,-6.4375 L 16.144607,-5.7303932 L 14.300857,-10.667893 L 13.59375,-11.375 z" />
          <path
             style="fill:url(#linearGradient3497);fill-opacity:1"
             id="path2698"
             d="M 17.29651,-10.694689 C 16.87154,-11.11966 16.292483,-11.392236 15.59375,-11.375 L 16.300857,-10.667893 C 16.99959,-10.685129 17.578646,-10.412554 18.003617,-9.9875826 L 17.29651,-10.694689 z" />
          <path
             style="fill:url(#linearGradient3499);fill-opacity:1"
             id="path2700"
             d="M 15.59375,-11.375 L 13.59375,-11.375 L 14.300857,-10.667893 L 16.300857,-10.667893 L 15.59375,-11.375 z" />
          <path
             style="fill:url(#linearGradient3501);fill-opacity:1"
             id="path2702"
             d="M 12.5,-11.25 L 10.71875,-6.375 L 11.425857,-5.6678932 L 13.207107,-10.542893 L 12.5,-11.25 z" />
          <path
             style="fill:url(#linearGradient3503);fill-opacity:1"
             id="path2704"
             d="M 10.71875,-6.375 L 14.71875,-6.3125 L 15.425857,-5.6053932 L 11.425857,-5.6678932 L 10.71875,-6.375 z" />
          <path
             style="fill:url(#linearGradient3505);fill-opacity:1"
             id="path2706"
             d="M 14.71875,-6.3125 L 12.96875,-11.25 L 13.675857,-10.542893 L 15.425857,-5.6053932 L 14.71875,-6.3125 z" />
          <path
             style="fill:url(#linearGradient3507);fill-opacity:1"
             id="path2708"
             d="M 12.96875,-11.25 L 12.5,-11.25 L 13.207107,-10.542893 L 13.675857,-10.542893 L 12.96875,-11.25 z" />
          <path
             style="fill:url(#linearGradient3509);fill-opacity:1"
             id="path2710"
             d="M 13.96875,-11.125 L 15.5625,-11.125 L 16.269607,-10.417893 L 14.675857,-10.417893 L 13.96875,-11.125 z" />
          <path
             style="fill:url(#linearGradient3511);fill-opacity:1"
             id="path2712"
             d="M 15.5625,-11.125 C 16.263236,-11.142285 16.807643,-10.897983 17.18911,-10.516516 L 17.896217,-9.8094094 C 17.51475,-10.190876 16.970342,-10.435179 16.269607,-10.417893 L 15.5625,-11.125 z" />
          <path
             style="fill:url(#linearGradient3588);fill-opacity:1"
             id="path2714"
             d="M 17.18911,-10.516516 C 18.415922,-9.2897044 17.957455,-6.644214 15.59375,-6.71875 L 16.300857,-6.0116432 C 18.664562,-5.9371073 19.123029,-8.5825976 17.896217,-9.8094094 L 17.18911,-10.516516 z" />
          <path
             style="fill:url(#linearGradient3513);fill-opacity:1"
             id="path2716"
             d="M 15.59375,-6.71875 L 13.96875,-11.125 L 14.675857,-10.417893 L 16.300857,-6.0116432 L 15.59375,-6.71875 z" />
          <path
             style="fill:url(#linearGradient3590);fill-opacity:1"
             id="path2696"
             d="M 15.4375,-6.4375 C 18.434536,-6.3628978 18.668368,-9.3228317 17.29651,-10.694689 L 18.003617,-9.9875826 C 19.375475,-8.6157249 19.141643,-5.655791 16.144607,-5.7303932 L 15.4375,-6.4375 z" />
          <path
             style="fill:url(#linearGradient3592);fill-opacity:1"
             id="path2722"
             d="M 11.15625,-6.65625 L 12.75,-11.03125 L 13.457107,-10.324143 L 11.863357,-5.9491432 L 11.15625,-6.65625 z" />
          <path
             style="fill:url(#linearGradient3515);fill-opacity:1"
             id="path2718"
             d="M 12.75,-11.03125 L 14.375,-6.65625 L 15.082107,-5.9491432 L 13.457107,-10.324143 L 12.75,-11.03125 z" />
          <path
             style="fill:url(#linearGradient3517);fill-opacity:1"
             id="path2720"
             d="M 14.375,-6.65625 L 11.15625,-6.65625 L 11.863357,-5.9491432 L 15.082107,-5.9491432 L 14.375,-6.65625 z" />
          <path
             style="fill:url(#linearGradient3586);fill-opacity:1"
             id="path2670"
             d="M 15.96875,-5.6875 C 19.235011,-5.6249782 19.618583,-9.8213136 17.92037,-11.519527 L 18.627477,-10.81242 C 20.32569,-9.1142068 19.942118,-4.9178714 16.675857,-4.9803932 L 15.96875,-5.6875 z" />
          <path
             style="fill:url(#linearGradient3600);fill-opacity:1"
             id="path2668"
             d="M 16.78125,-3.4375 L 15.96875,-5.6875 L 16.675857,-4.9803932 L 17.488357,-2.7303932 L 16.78125,-3.4375 z" />
          <path
             style="fill:url(#linearGradient3602);fill-opacity:1"
             id="path2666"
             d="M 15.53125,-3.4375 L 16.78125,-3.4375 L 17.488357,-2.7303932 L 16.238357,-2.7303932 L 15.53125,-3.4375 z" />
          <path
             style="fill:url(#linearGradient3604);fill-opacity:1"
             id="path2656"
             d="M 8.75,-3.4375 L 10,-3.4375 L 10.707107,-2.7303932 L 9.4571068,-2.7303932 L 8.75,-3.4375 z" />
          <path
             style="fill:url(#linearGradient3606);fill-opacity:1"
             id="path2658"
             d="M 10,-3.4375 L 10.8125,-5.6875 L 11.519607,-4.9803932 L 10.707107,-2.7303932 L 10,-3.4375 z" />
        </g>
        <path
           id="path2505"
           d="M 16.1875,-12.175236 L 12.09375,-12.143986 L 8.7499996,-3.3939857 L 9.9999996,-3.3939857 L 10.8125,-5.6439857 L 14.75,-5.6439857 L 15.53125,-3.4252357 L 15.53125,-3.3939857 L 16.78125,-3.3939857 L 15.96875,-5.6439857 C 20.084301,-5.565207 19.623157,-12.247993 16.1875,-12.175236 z M 16.21875,-11.925236 C 19.262779,-11.910965 19.709301,-5.7839571 15.59375,-5.8627357 L 16.375,-3.6752357 L 15.71875,-3.6752357 L 14.875,-5.9252357 L 10.5625,-5.9252357 L 9.7499996,-3.7064857 L 9.1874996,-3.7064857 L 12.28125,-11.862736 L 16.21875,-11.925236 z M 13.59375,-11.331486 L 15.4375,-6.3939857 C 19.362951,-6.2962734 18.548077,-11.404362 15.59375,-11.331486 L 13.59375,-11.331486 z M 12.5,-11.206486 L 10.71875,-6.3314857 L 14.71875,-6.2689857 L 12.96875,-11.206486 L 12.5,-11.206486 z M 13.96875,-11.081486 L 15.5625,-11.081486 C 18.516827,-11.154362 18.69243,-6.5775234 15.59375,-6.6752357 L 13.96875,-11.081486 z M 12.75,-10.987736 L 14.375,-6.6127357 L 11.15625,-6.6127357 L 12.75,-10.987736 z"
           style="font-size:12px;font-style:normal;font-weight:normal;fill:#333333;fill-opacity:1;stroke:none;stroke-width:1px;stroke-linecap:butt;stroke-linejoin:miter;stroke-opacity:1;font-family:Bitstream Vera Sans" />
      </g>
      <path
         id="text2170"
         d="M 8.5523057,-4.1288719 C 8.5417837,-4.1400179 8.5302437,-4.1480689 8.5176857,-4.1530239 C 8.5054667,-4.1585959 8.4918897,-4.1613829 8.4769557,-4.1613839 C 8.4240077,-4.1613829 8.3832777,-4.1297999 8.3547677,-4.0666359 C 8.3265957,-4.0040889 8.3125107,-3.9139859 8.3125107,-3.7963259 L 8.3125107,-3.2482739 L 8.2183237,-3.2482739 L 8.2183237,-4.2886429 L 8.3125107,-4.2886429 L 8.3125107,-4.1270149 C 8.3321967,-4.1901789 8.3578217,-4.2369329 8.3893877,-4.2672789 C 8.4209527,-4.2982399 8.4593057,-4.3137229 8.5044487,-4.3137239 C 8.5108967,-4.3137229 8.5180247,-4.3127929 8.5258317,-4.3109369 C 8.5336377,-4.3096969 8.5422927,-4.3075299 8.5517967,-4.3044349 L 8.5523057,-4.1288719 M 8.8501407,-4.1688149 C 8.7999077,-4.1688139 8.7601967,-4.1328969 8.7310067,-4.0610629 C 8.7018177,-3.9898459 8.6872227,-3.8920019 8.6872227,-3.7675299 C 8.6872227,-3.6430569 8.7016477,-3.5449029 8.7304977,-3.4730679 C 8.7596867,-3.4018519 8.7995677,-3.3662439 8.8501407,-3.3662439 C 8.9000352,-3.3662439 8.9395762,-3.4021619 8.9687662,-3.4739969 C 8.9979552,-3.5458319 9.0125502,-3.6436759 9.0125502,-3.7675299 C 9.0125502,-3.8907629 8.9979552,-3.9882979 8.9687662,-4.0601339 C 8.9395762,-4.1325869 8.9000352,-4.1688139 8.8501407,-4.1688149 M 8.8501407,-4.3137239 C 8.9316002,-4.3137229 8.9955792,-4.2654199 9.0420792,-4.1688149 C 9.0885782,-4.0722089 9.1118282,-3.9384469 9.1118292,-3.7675299 C 9.1118282,-3.5972309 9.0885782,-3.4634689 9.0420792,-3.3662439 C 8.9955792,-3.2696389 8.9316002,-3.2213359 8.8501407,-3.2213359 C 8.7683417,-3.2213359 8.7041927,-3.2696389 8.6576937,-3.3662439 C 8.6115337,-3.4634689 8.5884537,-3.5972309 8.5884537,-3.7675299 C 8.5884537,-3.9384469 8.6115337,-4.0722089 8.6576937,-4.1688149 C 8.7041927,-4.2654199 8.7683417,-4.3137229 8.8501407,-4.3137239 M 9.4875592,-4.1688149 C 9.4373262,-4.1688139 9.3976142,-4.1328969 9.3684252,-4.0610629 C 9.3392352,-3.9898459 9.3246412,-3.8920019 9.3246412,-3.7675299 C 9.3246412,-3.6430569 9.3390662,-3.5449029 9.3679162,-3.4730679 C 9.3971052,-3.4018519 9.4369862,-3.3662439 9.4875592,-3.3662439 C 9.5374522,-3.3662439 9.5769942,-3.4021619 9.6061842,-3.4739969 C 9.6353732,-3.5458319 9.6499682,-3.6436759 9.6499682,-3.7675299 C 9.6499682,-3.8907629 9.6353732,-3.9882979 9.6061842,-4.0601339 C 9.5769942,-4.1325869 9.5374522,-4.1688139 9.4875592,-4.1688149 M 9.4875592,-4.3137239 C 9.5690182,-4.3137229 9.6329972,-4.2654199 9.6794972,-4.1688149 C 9.7259962,-4.0722089 9.7492462,-3.9384469 9.7492462,-3.7675299 C 9.7492462,-3.5972309 9.7259962,-3.4634689 9.6794972,-3.3662439 C 9.6329972,-3.2696389 9.5690182,-3.2213359 9.4875592,-3.2213359 C 9.4057602,-3.2213359 9.3416112,-3.2696389 9.2951122,-3.3662439 C 9.2489512,-3.4634689 9.2258722,-3.5972309 9.2258722,-3.7675299 C 9.2258722,-3.9384469 9.2489512,-4.0722089 9.2951122,-4.1688149 C 9.3416112,-4.2654199 9.4057602,-4.3137229 9.4875592,-4.3137239 M 9.9966792,-4.5840339 L 9.9966792,-4.2886429 L 10.189635,-4.2886429 L 10.189635,-4.1558109 L 9.9966792,-4.1558109 L 9.9966792,-3.5910389 C 9.9966782,-3.5061989 10.002958,-3.4517029 10.015516,-3.4275519 C 10.028414,-3.4033999 10.054379,-3.3913239 10.093412,-3.3913249 L 10.189635,-3.3913249 L 10.189635,-3.2482739 L 10.093412,-3.2482739 C 10.021116,-3.2482739 9.9712232,-3.2727349 9.9437302,-3.3216569 C 9.9162382,-3.3711989 9.9024922,-3.4609919 9.9024922,-3.5910389 L 9.9024922,-4.1558109 L 9.8337602,-4.1558109 L 9.8337602,-4.2886429 L 9.9024922,-4.2886429 L 9.9024922,-4.5840339 L 9.9966792,-4.5840339 M 10.420266,-4.4809259 L 10.420266,-3.9598119 L 10.549583,-3.9598119 C 10.59744,-3.9598119 10.634436,-3.9824149 10.660571,-4.0276219 C 10.686705,-4.0728279 10.699773,-4.1372309 10.699773,-4.2208329 C 10.699773,-4.3038139 10.686705,-4.3679079 10.660571,-4.4131159 C 10.634436,-4.4583209 10.59744,-4.4809249 10.549583,-4.4809259 L 10.420266,-4.4809259 M 10.317424,-4.6351229 L 10.549583,-4.6351229 C 10.634775,-4.6351219 10.699094,-4.5998229 10.742539,-4.5292289 C 10.786323,-4.4592499 10.808215,-4.3564519 10.808215,-4.2208329 C 10.808215,-4.0839739 10.786323,-3.9805569 10.742539,-3.9105809 C 10.699094,-3.8406029 10.634775,-3.8056139 10.549583,-3.8056139 L 10.420266,-3.8056139 L 10.420266,-3.2482739 L 10.317424,-3.2482739 L 10.317424,-4.6351229 M 11.154926,-3.7712449 C 11.079237,-3.7712449 11.026797,-3.7554539 10.997608,-3.7238709 C 10.968418,-3.6922879 10.953824,-3.6384119 10.953824,-3.5622429 C 10.953824,-3.5015539 10.964685,-3.4532519 10.986407,-3.4173339 C 11.008469,-3.3820359 11.038337,-3.3643869 11.076013,-3.3643869 C 11.127943,-3.3643869 11.169521,-3.3978269 11.200747,-3.4647079 C 11.232312,-3.5322079 11.248095,-3.6216919 11.248095,-3.7331609 L 11.248095,-3.7712449 L 11.154926,-3.7712449 M 11.341773,-3.8418419 L 11.341773,-3.2482739 L 11.248095,-3.2482739 L 11.248095,-3.4061869 C 11.226712,-3.3430219 11.200068,-3.2962669 11.168163,-3.2659229 C 11.136258,-3.2361979 11.097226,-3.2213359 11.051066,-3.2213359 C 10.992686,-3.2213359 10.946187,-3.2510609 10.911567,-3.3105109 C 10.877286,-3.3705789 10.860146,-3.4507739 10.860146,-3.5510959 C 10.860146,-3.6681369 10.881529,-3.7563829 10.924295,-3.8158329 C 10.9674,-3.8752809 11.031549,-3.9050059 11.116742,-3.9050069 L 11.248095,-3.9050069 L 11.248095,-3.9217269 C 11.248095,-4.0003729 11.233839,-4.0610619 11.205329,-4.1037919 C 11.177157,-4.1471389 11.137446,-4.1688139 11.086195,-4.1688149 C 11.053611,-4.1688139 11.021876,-4.1616919 10.990989,-4.1474499 C 10.960103,-4.1332059 10.930404,-4.1118419 10.901893,-4.0833559 L 10.901893,-4.2412689 C 10.936174,-4.2654199 10.969437,-4.2833789 11.001681,-4.2951449 C 11.033925,-4.3075299 11.065321,-4.3137229 11.095868,-4.3137239 C 11.178345,-4.3137229 11.239949,-4.2747079 11.280679,-4.1966819 C 11.321408,-4.1186539 11.341772,-4.0003729 11.341773,-3.8418419 M 11.535239,-4.6936439 L 11.628917,-4.6936439 L 11.628917,-3.2482739 L 11.535239,-3.2482739 L 11.535239,-4.6936439 M 11.824419,-4.2886429 L 11.918097,-4.2886429 L 11.918097,-3.2482739 L 11.824419,-3.2482739 L 11.824419,-4.2886429 M 11.824419,-4.6936439 L 11.918097,-4.6936439 L 11.918097,-4.4772099 L 11.824419,-4.4772099 L 11.824419,-4.6936439 M 12.403288,-3.7470939 C 12.403287,-3.6585379 12.415337,-3.5888709 12.439435,-3.5380909 C 12.463533,-3.4879299 12.496626,-3.4628499 12.538713,-3.4628499 C 12.580461,-3.4628499 12.613214,-3.4882399 12.636973,-3.5390199 C 12.661071,-3.5897999 12.673121,-3.6591579 12.673121,-3.7470939 C 12.673121,-3.8337909 12.660902,-3.9025289 12.636464,-3.9533099 C 12.612026,-4.0047089 12.579103,-4.0304079 12.537695,-4.0304089 C 12.496626,-4.0304079 12.463872,-4.0050179 12.439435,-3.9542389 C 12.415337,-3.9034579 12.403287,-3.8344099 12.403288,-3.7470939 M 12.680758,-3.4693519 C 12.660393,-3.4216689 12.636973,-3.3863709 12.610499,-3.3634579 C 12.584364,-3.3411639 12.553817,-3.3300169 12.518858,-3.3300169 C 12.460478,-3.3300169 12.412961,-3.3684119 12.376304,-3.4452009 C 12.339987,-3.5226089 12.321828,-3.6232399 12.321828,-3.7470939 C 12.321828,-3.8709469 12.340156,-3.9715769 12.376814,-4.0489869 C 12.41347,-4.1263939 12.460818,-4.1650979 12.518858,-4.1650989 C 12.553817,-4.1650979 12.584534,-4.1533319 12.611008,-4.1298009 C 12.637482,-4.1068869 12.660732,-4.0718989 12.680758,-4.0248349 L 12.680758,-4.1465209 L 12.753562,-4.1465209 L 12.753562,-3.4628499 C 12.803116,-3.4764739 12.841809,-3.5176549 12.869641,-3.5863939 C 12.897812,-3.6557509 12.911897,-3.7452349 12.911898,-3.8548459 C 12.911897,-3.9211079 12.906467,-3.9833439 12.895606,-4.0415549 C 12.885084,-4.0997659 12.868962,-4.1536419 12.84724,-4.2031839 C 12.81194,-4.2843069 12.768835,-4.3462339 12.717924,-4.3889639 C 12.66735,-4.4323119 12.612196,-4.4539859 12.55246,-4.4539879 C 12.510712,-4.4539859 12.470661,-4.4437689 12.432307,-4.4233339 C 12.393953,-4.4035159 12.358485,-4.3737909 12.325901,-4.3341599 C 12.272613,-4.2709929 12.230866,-4.1880109 12.200658,-4.0852139 C 12.170789,-3.9830339 12.155855,-3.8721849 12.155855,-3.7526669 C 12.155855,-3.6542029 12.165529,-3.5619329 12.184875,-3.4758549 C 12.204561,-3.3897759 12.232902,-3.3139159 12.269898,-3.2482739 C 12.305536,-3.1838699 12.346775,-3.1349479 12.393614,-3.1015079 C 12.440453,-3.0674479 12.490516,-3.0504179 12.543805,-3.0504179 C 12.587588,-3.0504179 12.630524,-3.0640419 12.672612,-3.0912899 C 12.715038,-3.1179179 12.753901,-3.1563129 12.7892,-3.2064739 L 12.835021,-3.1033659 C 12.792594,-3.0432969 12.746264,-2.9974709 12.696032,-2.9658879 C 12.646137,-2.9336869 12.595395,-2.9175859 12.543805,-2.9175849 C 12.481013,-2.9175859 12.421785,-2.9380209 12.366122,-2.9788929 C 12.310458,-3.0191449 12.260904,-3.0779759 12.217459,-3.1553839 C 12.174014,-3.2327919 12.140921,-3.3222759 12.118181,-3.4238359 C 12.09544,-3.5260149 12.084069,-3.6356259 12.08407,-3.7526669 C 12.084069,-3.8653729 12.09561,-3.9728159 12.11869,-4.0749959 C 12.14177,-4.1771739 12.174693,-4.2669679 12.217459,-4.3443769 C 12.261243,-4.4230229 12.311815,-4.4830919 12.369177,-4.5245839 C 12.426537,-4.5666929 12.487292,-4.5877479 12.551441,-4.5877489 C 12.623397,-4.5877479 12.690091,-4.5608099 12.751526,-4.5069349 C 12.813298,-4.4530569 12.865058,-4.3765779 12.906807,-4.2774959 C 12.932262,-4.2168069 12.951609,-4.1508549 12.964847,-4.0796399 C 12.978422,-4.0084239 12.98521,-3.9347309 12.985212,-3.8585619 C 12.98521,-3.6956939 12.958227,-3.5671969 12.904261,-3.4730679 C 12.850294,-3.3789389 12.775793,-3.3300169 12.680758,-3.3263019 L 12.680758,-3.4693519 M 13.531497,-3.7805339 C 13.531496,-3.9043869 13.517411,-4.0003729 13.48924,-4.0684939 C 13.461408,-4.1366119 13.422206,-4.1706719 13.371633,-4.1706729 C 13.3214,-4.1706719 13.282198,-4.1366119 13.254027,-4.0684939 C 13.226195,-4.0003729 13.212279,-3.9043869 13.212279,-3.7805339 C 13.212279,-3.6572999 13.226195,-3.5616229 13.254027,-3.4935039 C 13.282198,-3.4253839 13.3214,-3.3913239 13.371633,-3.3913249 C 13.422206,-3.3913239 13.461408,-3.4253839 13.48924,-3.4935039 C 13.517411,-3.5616229 13.531496,-3.6572999 13.531497,-3.7805339 M 13.625175,-3.3773909 C 13.625174,-3.2002809 13.603622,-3.0686869 13.560517,-2.9826089 C 13.517411,-2.8959109 13.451395,-2.8525629 13.362469,-2.8525619 C 13.329546,-2.8525629 13.29849,-2.8572069 13.2693,-2.8664959 C 13.240111,-2.8751659 13.21177,-2.8887899 13.184277,-2.9073679 L 13.184277,-3.0736409 C 13.21177,-3.0463929 13.238923,-3.0262669 13.265737,-3.0132619 C 13.29255,-3.0002579 13.319873,-2.9937559 13.347705,-2.9937549 C 13.409138,-2.9937559 13.455129,-3.0231709 13.485676,-3.0820009 C 13.516223,-3.1402119 13.531496,-3.2284579 13.531497,-3.3467379 L 13.531497,-3.4312679 C 13.51215,-3.3699599 13.487373,-3.3241339 13.457166,-3.2937899 C 13.426957,-3.2634459 13.39081,-3.2482739 13.348723,-3.2482739 C 13.278804,-3.2482739 13.222461,-3.2968869 13.179695,-3.3941109 C 13.136929,-3.4913359 13.115546,-3.6201439 13.115546,-3.7805339 C 13.115546,-3.9415429 13.136929,-4.0706599 13.179695,-4.1678859 C 13.222461,-4.2651099 13.278804,-4.3137229 13.348723,-4.3137239 C 13.39081,-4.3137229 13.426957,-4.2985509 13.457166,-4.2682069 C 13.487373,-4.2378619 13.51215,-4.1920359 13.531497,-4.1307299 L 13.531497,-4.2886429 L 13.625175,-4.2886429 L 13.625175,-3.3773909 M 14.262084,-4.0889299 C 14.285503,-4.1657179 14.313504,-4.2223799 14.346088,-4.2589179 C 14.378672,-4.2954539 14.417025,-4.3137229 14.461149,-4.3137239 C 14.520546,-4.3137229 14.566367,-4.2756369 14.598612,-4.1994679 C 14.630855,-4.1239169 14.646977,-4.0161649 14.646978,-3.8762109 L 14.646978,-3.2482739 L 14.552791,-3.2482739 L 14.552791,-3.8706379 C 14.55279,-3.9703389 14.543117,-4.0443409 14.523771,-4.0926449 C 14.504424,-4.1409469 14.474895,-4.1650979 14.435184,-4.1650989 C 14.386648,-4.1650979 14.348294,-4.1356829 14.320123,-4.0768539 C 14.291952,-4.0180219 14.277866,-3.9378279 14.277866,-3.8362689 L 14.277866,-3.2482739 L 14.183679,-3.2482739 L 14.183679,-3.8706379 C 14.183679,-3.9709579 14.174006,-4.0449609 14.154659,-4.0926449 C 14.135313,-4.1409469 14.105444,-4.1650979 14.065054,-4.1650989 C 14.017197,-4.1650979 13.979183,-4.1353739 13.951012,-4.0759249 C 13.92284,-4.0170939 13.908754,-3.9372079 13.908755,-3.8362689 L 13.908755,-3.2482739 L 13.814568,-3.2482739 L 13.814568,-4.2886429 L 13.908755,-4.2886429 L 13.908755,-4.1270149 C 13.930137,-4.1907979 13.955763,-4.2378619 13.985632,-4.2682069 C 14.0155,-4.2985509 14.050968,-4.3137229 14.092038,-4.3137239 C 14.133446,-4.3137229 14.168575,-4.2945249 14.197426,-4.2561319 C 14.226615,-4.2177359 14.248167,-4.1620019 14.262084,-4.0889299 M 15.093476,-3.7712449 C 15.017787,-3.7712449 14.965347,-3.7554539 14.936158,-3.7238709 C 14.906969,-3.6922879 14.892374,-3.6384119 14.892374,-3.5622429 C 14.892374,-3.5015539 14.903235,-3.4532519 14.924958,-3.4173339 C 14.947019,-3.3820359 14.976888,-3.3643869 15.014563,-3.3643869 C 15.066493,-3.3643869 15.108071,-3.3978269 15.139297,-3.4647079 C 15.170862,-3.5322079 15.186645,-3.6216919 15.186645,-3.7331609 L 15.186645,-3.7712449 L 15.093476,-3.7712449 M 15.280323,-3.8418419 L 15.280323,-3.2482739 L 15.186645,-3.2482739 L 15.186645,-3.4061869 C 15.165262,-3.3430219 15.138618,-3.2962669 15.106713,-3.2659229 C 15.074808,-3.2361979 15.035776,-3.2213359 14.989616,-3.2213359 C 14.931237,-3.2213359 14.884737,-3.2510609 14.850117,-3.3105109 C 14.815836,-3.3705789 14.798696,-3.4507739 14.798696,-3.5510959 C 14.798696,-3.6681369 14.820079,-3.7563829 14.862845,-3.8158329 C 14.90595,-3.8752809 14.970099,-3.9050059 15.055292,-3.9050069 L 15.186645,-3.9050069 L 15.186645,-3.9217269 C 15.186645,-4.0003729 15.172389,-4.0610619 15.143879,-4.1037919 C 15.115708,-4.1471389 15.075996,-4.1688139 15.024745,-4.1688149 C 14.992161,-4.1688139 14.960426,-4.1616919 14.92954,-4.1474499 C 14.898653,-4.1332059 14.868954,-4.1118419 14.840444,-4.0833559 L 14.840444,-4.2412689 C 14.874724,-4.2654199 14.907987,-4.2833789 14.940231,-4.2951449 C 14.972475,-4.3075299 15.003871,-4.3137229 15.034418,-4.3137239 C 15.116895,-4.3137229 15.178499,-4.2747079 15.219229,-4.1966819 C 15.259958,-4.1186539 15.280323,-4.0003729 15.280323,-3.8418419 M 15.473789,-4.2886429 L 15.567467,-4.2886429 L 15.567467,-3.2482739 L 15.473789,-3.2482739 L 15.473789,-4.2886429 M 15.473789,-4.6936439 L 15.567467,-4.6936439 L 15.567467,-4.4772099 L 15.473789,-4.4772099 L 15.473789,-4.6936439 M 15.762969,-4.6936439 L 15.856647,-4.6936439 L 15.856647,-3.2482739 L 15.762969,-3.2482739 L 15.762969,-4.6936439 M 16.065386,-3.4842149 L 16.17281,-3.4842149 L 16.17281,-3.2482739 L 16.065386,-3.2482739 L 16.065386,-3.4842149 M 16.794445,-4.2486999 L 16.794445,-4.0889299 C 16.767971,-4.1155569 16.741327,-4.1353739 16.714514,-4.1483789 C 16.688039,-4.1620019 16.661225,-4.1688139 16.634073,-4.1688149 C 16.573317,-4.1688139 16.526139,-4.1335159 16.492537,-4.0629199 C 16.458935,-3.9929419 16.442134,-3.8944789 16.442134,-3.7675299 C 16.442134,-3.6405789 16.458935,-3.5418059 16.492537,-3.4712099 C 16.526139,-3.4012329 16.573317,-3.3662439 16.634073,-3.3662439 C 16.661225,-3.3662439 16.688039,-3.3727469 16.714514,-3.3857509 C 16.741327,-3.3993749 16.767971,-3.4195009 16.794445,-3.4461299 L 16.794445,-3.2882169 C 16.76831,-3.2659229 16.741157,-3.2492029 16.712986,-3.2380559 C 16.685154,-3.2269099 16.655455,-3.2213359 16.62389,-3.2213359 C 16.538018,-3.2213359 16.469796,-3.2705669 16.419224,-3.3690309 C 16.368651,-3.4674939 16.343365,-3.6003269 16.343365,-3.7675299 C 16.343365,-3.9372079 16.368821,-4.0706599 16.419733,-4.1678859 C 16.470984,-4.2651099 16.541073,-4.3137229 16.63,-4.3137239 C 16.658849,-4.3137229 16.68702,-4.3081489 16.714514,-4.2970029 C 16.742006,-4.2864749 16.768649,-4.2703739 16.794445,-4.2486999 M 17.17934,-4.1688149 C 17.129106,-4.1688139 17.089395,-4.1328969 17.060206,-4.0610629 C 17.031016,-3.9898459 17.016421,-3.8920019 17.016422,-3.7675299 C 17.016421,-3.6430569 17.030846,-3.5449029 17.059697,-3.4730679 C 17.088886,-3.4018519 17.128767,-3.3662439 17.17934,-3.3662439 C 17.229233,-3.3662439 17.268775,-3.4021619 17.297965,-3.4739969 C 17.327154,-3.5458319 17.341749,-3.6436759 17.341749,-3.7675299 C 17.341749,-3.8907629 17.327154,-3.9882979 17.297965,-4.0601339 C 17.268775,-4.1325869 17.229233,-4.1688139 17.17934,-4.1688149 M 17.17934,-4.3137239 C 17.260798,-4.3137229 17.324778,-4.2654199 17.371278,-4.1688149 C 17.417777,-4.0722089 17.441027,-3.9384469 17.441027,-3.7675299 C 17.441027,-3.5972309 17.417777,-3.4634689 17.371278,-3.3662439 C 17.324778,-3.2696389 17.260798,-3.2213359 17.17934,-3.2213359 C 17.097541,-3.2213359 17.033392,-3.2696389 16.986892,-3.3662439 C 16.940732,-3.4634689 16.917652,-3.5972309 16.917652,-3.7675299 C 16.917652,-3.9384469 16.940732,-4.0722089 16.986892,-4.1688149 C 17.033392,-4.2654199 17.097541,-4.3137229 17.17934,-4.3137239 M 18.039752,-4.0889299 C 18.063171,-4.1657179 18.091172,-4.2223799 18.123757,-4.2589179 C 18.15634,-4.2954539 18.194693,-4.3137229 18.238818,-4.3137239 C 18.298214,-4.3137229 18.344035,-4.2756369 18.37628,-4.1994679 C 18.408524,-4.1239169 18.424646,-4.0161649 18.424646,-3.8762109 L 18.424646,-3.2482739 L 18.330459,-3.2482739 L 18.330459,-3.8706379 C 18.330459,-3.9703389 18.320785,-4.0443409 18.30144,-4.0926449 C 18.282092,-4.1409469 18.252563,-4.1650979 18.212853,-4.1650989 C 18.164316,-4.1650979 18.125962,-4.1356829 18.097792,-4.0768539 C 18.06962,-4.0180219 18.055534,-3.9378279 18.055535,-3.8362689 L 18.055535,-3.2482739 L 17.961348,-3.2482739 L 17.961348,-3.8706379 C 17.961347,-3.9709579 17.951674,-4.0449609 17.932328,-4.0926449 C 17.912981,-4.1409469 17.883113,-4.1650979 17.842723,-4.1650989 C 17.794865,-4.1650979 17.756851,-4.1353739 17.72868,-4.0759249 C 17.700508,-4.0170939 17.686423,-3.9372079 17.686423,-3.8362689 L 17.686423,-3.2482739 L 17.592236,-3.2482739 L 17.592236,-4.2886429 L 17.686423,-4.2886429 L 17.686423,-4.1270149 C 17.707806,-4.1907979 17.733432,-4.2378619 17.7633,-4.2682069 C 17.793168,-4.2985509 17.828637,-4.3137229 17.869706,-4.3137239 C 17.911114,-4.3137229 17.946243,-4.2945249 17.975094,-4.2561319 C 18.004283,-4.2177359 18.025836,-4.1620019 18.039752,-4.0889299"
         style="font-size:4px;font-style:normal;font-weight:normal;fill:#d40000;fill-opacity:1;stroke:none;stroke-width:1px;stroke-linecap:butt;stroke-linejoin:miter;stroke-opacity:1;font-family:Bitstream Vera Sans" />
    </g>
  </g>
  <g
     id="g3266">
    <g
       transform="matrix(1.8698297,0,0,1.8698297,8.0911944,-10.212897)"
       id="g3194">
      <path
         id="path3192"
         d="M 43.526171,19.184573 L 128.09917,51.691465 L 95.041322,113.95041 L 9.3663912,75.107438 L 43.526171,19.184573 z"
         style="fill:#666666;fill-rule:evenodd;stroke:#000000;stroke-width:1px;stroke-linecap:butt;stroke-linejoin:miter;stroke-opacity:1"
         sodipodi:nodetypes="ccccc" />
      <path
         style="fill:#c6c2c2;fill-opacity:1;fill-rule:evenodd;stroke:none;stroke-width:1px;stroke-linecap:butt;stroke-linejoin:miter;stroke-opacity:1"
         d="M 97.245179,108.44077 L 127.27273,47.283746 L 45.730027,16.980716 L 12.947658,68.220385 L 97.245179,108.44077 z"
         id="path3184" />
      <path
         id="path3182"
         d="M 96.418733,107.33884 L 126.44628,46.181818 L 44.903581,15.878788 L 12.121212,67.118457 L 96.418733,107.33884 z"
         style="fill:#d8d1d1;fill-opacity:1;fill-rule:evenodd;stroke:none;stroke-width:1px;stroke-linecap:butt;stroke-linejoin:miter;stroke-opacity:1" />
      <path
         style="fill:#ececec;fill-rule:evenodd;stroke:none;stroke-width:1px;stroke-linecap:butt;stroke-linejoin:miter;stroke-opacity:1"
         d="M 95.867769,106.23691 L 125.89532,45.07989 L 44.352617,14.77686 L 11.570248,66.016529 L 95.867769,106.23691 z"
         id="path3180" />
      <g
         id="g3176"
         transform="translate(0.2754821,2.2038567)">
        <path
           sodipodi:nodetypes="ccccccccccc"
           id="path3166"
           d="M 41.895583,11.052208 L 56.032127,14.393574 L 61.172687,9.7670674 C 62.513521,8.4990662 64.197034,7.6879701 67.084337,8.4819284 L 84.305217,14.393573 C 85.603101,15.178214 86.360165,16.426414 85.847387,18.763051 L 85.076307,24.160642 L 125.68674,39.325301 C 109.84944,52.480231 95.805436,81.911082 92.787147,106.92369 L 6.4257055,67.084337 C 10.059965,45.598498 21.278209,23.619888 41.895583,11.052208 z"
           style="fill:#000000;fill-opacity:1;fill-rule:evenodd;stroke:#000000;stroke-width:1px;stroke-linecap:round;stroke-linejoin:round;stroke-opacity:1" />
        <path
           style="fill:url(#linearGradient3204);fill-opacity:1;fill-rule:evenodd;stroke:url(#linearGradient3206);stroke-width:1px;stroke-linecap:round;stroke-linejoin:round;stroke-opacity:1"
           d="M 41.895583,11.052208 L 56.032127,14.393574 L 61.172687,9.7670674 C 62.513521,8.4990662 64.197034,7.6879701 67.084337,8.4819284 L 84.305217,14.393573 C 85.603101,15.178214 86.360165,16.426414 85.847387,18.763051 L 85.076307,24.160642 L 125.68674,39.325301 C 109.84944,52.480231 95.805436,81.911082 92.787147,106.92369 L 6.4257055,67.084337 C 10.059965,45.598498 21.278209,23.619888 41.895583,11.052208 z"
           id="path2386"
           sodipodi:nodetypes="ccccccccccc" />
      </g>
      <path
         style="fill:#000000;fill-rule:evenodd;stroke:#000000;stroke-width:1px;stroke-linecap:butt;stroke-linejoin:round;stroke-opacity:1"
         d="M 6.6115702,69.873278 L 92.561983,108.99174 L 95.041322,113.95041 L 9.3663912,75.107438 L 6.6115702,69.873278 z"
         id="path3190" />
    </g>
    <rect
       transform="matrix(0.4150489,-0.9097991,0.9097991,0.4150489,0,0)"
       rx="15.400204"
       ry="8.967207"
       y="76.977196"
       x="-157.38916"
       height="183.24294"
       width="30.800407"
       id="rect2478"
       style="fill:url(#linearGradient3256);fill-opacity:1;stroke:none;stroke-width:3;stroke-linecap:round;stroke-linejoin:round;stroke-miterlimit:4;stroke-dasharray:none;stroke-opacity:1" />
    <rect
       style="fill:url(#linearGradient3264);fill-opacity:1;stroke:none;stroke-width:3;stroke-linecap:round;stroke-linejoin:round;stroke-miterlimit:4;stroke-dasharray:none;stroke-opacity:1"
       id="rect3262"
       width="27.045612"
       height="34.777729"
       x="152.85428"
       y="97.150223"
       ry="8.967207"
       rx="12.574466"
       transform="matrix(0.9097991,0.4150489,-0.4150489,0.9097991,0,0)" />
    <rect
       style="fill:url(#linearGradient3260);fill-opacity:1;stroke:none;stroke-width:3;stroke-linecap:round;stroke-linejoin:round;stroke-miterlimit:4;stroke-dasharray:none;stroke-opacity:1"
       id="rect3258"
       width="46.964447"
       height="65.797874"
       x="-164.99995"
       y="129.41579"
       ry="11.868256"
       rx="22.034847"
       transform="matrix(0.4060606,-0.9138462,0.9055909,0.4241523,0,0)" />
  </g>
  <g
     id="g3864"
     transform="matrix(0.54674642,0,-0.21822875,0.54674642,213.95426,44.673367)"
     style="fill:#e1d6d6;fill-opacity:1">
    <path
       id="path3089"
       d="m -125.53125,20.71875 c -60.06815,0 -108.75,29.052045 -108.75,64.875 0,35.82295 48.68185,64.84375 108.75,64.84375 60.068147,0 108.75,-29.0208 108.75,-64.84375 0,-35.822955 -48.681853,-64.875 -108.75,-64.875 z m 0,1.96875 c 46.174834,0 83.59375,28.172967 83.59375,62.90625 0,34.73328 -37.418916,62.875 -83.59375,62.875 -46.17483,0 -83.625,-28.14172 -83.625,-62.875 0,-34.733283 37.45017,-62.90625 83.625,-62.90625 z"
       style="opacity:0.85714285000000001;fill:#e1d6d6;fill-opacity:1;stroke:none"
       inkscape:connector-curvature="0" />
    <path
       inkscape:connector-curvature="0"
       style="opacity:0.85714285000000001;fill:#e1d6d6;fill-opacity:1;stroke:none"
       d="m -60.671875,85.578125 c 0,-60.06815 -29.052045,-108.75 -64.875005,-108.75 -35.82294,0 -64.84374,48.68185 -64.84374,108.75 0,60.068145 29.0208,108.749995 64.84374,108.749995 35.82296,0 64.875005,-48.68185 64.875005,-108.749995 z m -1.96875,0 c 0,46.174835 -28.172967,83.593745 -62.906255,83.593745 -34.73327,0 -62.87499,-37.41891 -62.87499,-83.593745 0,-46.17483 28.14172,-83.625 62.87499,-83.625 34.733288,0 62.906255,37.45017 62.906255,83.625 z"
       id="path3862" />
  </g>
</svg>
