<?xml version="1.0" encoding="UTF-8" standalone="no"?>
<!-- Created with Inkscape (http://www.inkscape.org/) -->

<svg
   xmlns:dc="http://purl.org/dc/elements/1.1/"
   xmlns:cc="http://creativecommons.org/ns#"
   xmlns:rdf="http://www.w3.org/1999/02/22-rdf-syntax-ns#"
   xmlns:svg="http://www.w3.org/2000/svg"
   xmlns="http://www.w3.org/2000/svg"
   xmlns:xlink="http://www.w3.org/1999/xlink"
   xmlns:sodipodi="http://sodipodi.sourceforge.net/DTD/sodipodi-0.dtd"
   xmlns:inkscape="http://www.inkscape.org/namespaces/inkscape"
   id="svg2"
   sodipodi:version="0.32"
   inkscape:version="0.91 r13725"
   width="256"
   height="256"
   version="1.0"
   sodipodi:docname="kid.svg">
  <metadata
     id="metadata7">
    <rdf:RDF>
      <cc:Work
         rdf:about="">
        <dc:format>image/svg+xml</dc:format>
        <dc:type
           rdf:resource="http://purl.org/dc/dcmitype/StillImage" />
      </cc:Work>
    </rdf:RDF>
  </metadata>
  <defs
     id="defs5">
    <linearGradient
       id="linearGradient4236">
      <stop
         id="stop4238"
         offset="0"
         style="stop-color:#000000;stop-opacity:0" />
      <stop
         id="stop4240"
         offset="1"
         style="stop-color:#656565;stop-opacity:1" />
    </linearGradient>
    <linearGradient
       id="linearGradient2914">
      <stop
         style="stop-color:#000000;stop-opacity:1;"
         offset="0"
         id="stop4228" />
      <stop
         style="stop-color:#b8b8b8;stop-opacity:1;"
         offset="1"
         id="stop4230" />
    </linearGradient>
    <linearGradient
       id="linearGradient3871">
      <stop
         style="stop-color:#ffffff;stop-opacity:0.54945058"
         offset="0"
         id="stop3873" />
      <stop
         style="stop-color:#ffffff;stop-opacity:0"
         offset="1"
         id="stop3875" />
    </linearGradient>
    <linearGradient
       id="linearGradient2930">
      <stop
         style="stop-color:#000000;stop-opacity:0.61904764;"
         offset="0"
         id="stop2932" />
      <stop
         id="stop3897"
         offset="0.77302128"
         style="stop-color:#000000;stop-opacity:0.65079367;" />
      <stop
         style="stop-color:#545454;stop-opacity:0;"
         offset="1"
         id="stop2934" />
    </linearGradient>
    <linearGradient
       id="linearGradient4232">
      <stop
         id="stop2920"
         offset="0"
         style="stop-color:#000000;stop-opacity:1;" />
      <stop
         id="stop2922"
         offset="1"
         style="stop-color:#b8b8b8;stop-opacity:1;" />
    </linearGradient>
    <linearGradient
       id="linearGradient2900">
      <stop
         style="stop-color:#000000;stop-opacity:1;"
         offset="0"
         id="stop2902" />
      <stop
         id="stop2908"
         offset="0.62920666"
         style="stop-color:#6d6d6d;stop-opacity:1;" />
      <stop
         style="stop-color:white;stop-opacity:1;"
         offset="0.85182947"
         id="stop2910" />
      <stop
         style="stop-color:#b8b8b8;stop-opacity:1;"
         offset="1"
         id="stop2904" />
    </linearGradient>
    <linearGradient
       id="linearGradient2874">
      <stop
         style="stop-color:#fbfb5b;stop-opacity:1"
         offset="0"
         id="stop2876" />
      <stop
         style="stop-color:#8e8e09;stop-opacity:1;"
         offset="1"
         id="stop2878" />
    </linearGradient>
    <linearGradient
       id="linearGradient2866">
      <stop
         style="stop-color:#57510a;stop-opacity:1;"
         offset="0"
         id="stop2868" />
      <stop
         style="stop-color:#eee98f;stop-opacity:1"
         offset="1"
         id="stop2870" />
    </linearGradient>
    <linearGradient
       id="linearGradient2854">
      <stop
         style="stop-color:#f2f2f2;stop-opacity:1;"
         offset="0"
         id="stop2856" />
      <stop
         id="stop3830"
         offset="0.60613227"
         style="stop-color:#797979;stop-opacity:1;" />
      <stop
         style="stop-color:#000000;stop-opacity:1;"
         offset="1"
         id="stop2858" />
    </linearGradient>
    <linearGradient
       id="linearGradient2844">
      <stop
         style="stop-color:#8d8d8d;stop-opacity:1;"
         offset="0"
         id="stop2846" />
      <stop
         style="stop-color:#000000;stop-opacity:1;"
         offset="1"
         id="stop2848" />
    </linearGradient>
    <linearGradient
       id="linearGradient2836"
       inkscape:collect="always">
      <stop
         id="stop2838"
         offset="0"
         style="stop-color:white;stop-opacity:1" />
      <stop
         id="stop2840"
         offset="1"
         style="stop-color:#8d8d8d;stop-opacity:1" />
    </linearGradient>
    <linearGradient
       inkscape:collect="always"
       id="linearGradient2812">
      <stop
         style="stop-color:#6c6509;stop-opacity:1"
         offset="0"
         id="stop2814" />
      <stop
         style="stop-color:#efe897;stop-opacity:1"
         offset="1"
         id="stop2816" />
    </linearGradient>
    <linearGradient
       inkscape:collect="always"
       id="linearGradient2788">
      <stop
         style="stop-color:yellow;stop-opacity:1;"
         offset="0"
         id="stop2790" />
      <stop
         style="stop-color:#656500;stop-opacity:1"
         offset="1"
         id="stop2792" />
    </linearGradient>
    <linearGradient
       inkscape:collect="always"
       id="linearGradient1891">
      <stop
         style="stop-color:white;stop-opacity:1"
         offset="0"
         id="stop1893" />
      <stop
         style="stop-color:black;stop-opacity:1"
         offset="1"
         id="stop1895" />
    </linearGradient>
    <radialGradient
       inkscape:collect="always"
       xlink:href="#linearGradient2930"
       id="radialGradient2955"
       gradientUnits="userSpaceOnUse"
       gradientTransform="matrix(1,0,0,0.34629,0,110.4165)"
       cx="291.24103"
       cy="168.90738"
       fx="291.24103"
       fy="168.90738"
       r="58.579395" />
    <radialGradient
       inkscape:collect="always"
       xlink:href="#linearGradient1891"
       id="radialGradient2961"
       gradientUnits="userSpaceOnUse"
       gradientTransform="matrix(-1.1990431,0.02504056,-0.02981881,-1.4278519,208.67562,108.72986)"
       cx="90.716698"
       cy="46.860737"
       fx="90.716698"
       fy="46.860737"
       r="31.176191"
       spreadMethod="reflect" />
    <radialGradient
       inkscape:collect="always"
       xlink:href="#linearGradient1891"
       id="radialGradient2967"
       gradientUnits="userSpaceOnUse"
       gradientTransform="matrix(-3.4197788,0,0,-4.8188015,464.50637,398.72159)"
       cx="102.45697"
       cy="68.494705"
       fx="102.45697"
       fy="68.494705"
       r="4.3910127" />
    <radialGradient
       inkscape:collect="always"
       xlink:href="#linearGradient1891"
       id="radialGradient2969"
       gradientUnits="userSpaceOnUse"
       gradientTransform="matrix(-3.3697403,0.08856443,-0.1422924,-5.4140059,391.73877,425.05389)"
       cx="87.673889"
       cy="67.810707"
       fx="87.673889"
       fy="67.810707"
       r="3.3664432" />
    <radialGradient
       inkscape:collect="always"
       xlink:href="#linearGradient2854"
       id="radialGradient2975"
       gradientUnits="userSpaceOnUse"
       gradientTransform="matrix(-1.1652001,-0.37309581,0.43893561,-1.351822,173.06766,357.50263)"
       cx="100.86025"
       cy="137.32251"
       fx="100.86025"
       fy="137.32251"
       r="28.395216" />
    <linearGradient
       gradientUnits="userSpaceOnUse"
       y2="42.245087"
       x2="150.11748"
       y1="202.21474"
       x1="142.96986"
       id="linearGradient2865"
       xlink:href="#linearGradient2837"
       inkscape:collect="always" />
    <linearGradient
       gradientUnits="userSpaceOnUse"
       y2="204.89578"
       x2="113.72008"
       y1="41.947189"
       x1="121.57563"
       id="linearGradient2857"
       xlink:href="#linearGradient2837"
       inkscape:collect="always" />
    <linearGradient
       spreadMethod="reflect"
       gradientUnits="userSpaceOnUse"
       y2="165.71899"
       x2="145.41264"
       y1="77.370277"
       x1="144.8076"
       id="linearGradient2849"
       xlink:href="#linearGradient2837"
       inkscape:collect="always" />
    <linearGradient
       gradientUnits="userSpaceOnUse"
       y2="53.922462"
       x2="122.81"
       y1="165.71899"
       x1="123.61967"
       id="linearGradient2835"
       xlink:href="#linearGradient2837"
       inkscape:collect="always" />
    <linearGradient
       gradientUnits="userSpaceOnUse"
       y2="190.7674"
       x2="177.70123"
       y1="172.18156"
       x1="177.02089"
       id="linearGradient2827"
       xlink:href="#linearGradient2813"
       inkscape:collect="always" />
    <linearGradient
       gradientUnits="userSpaceOnUse"
       y2="172.18156"
       x2="165.0208"
       y1="190.7674"
       x1="165.0208"
       id="linearGradient2819"
       xlink:href="#linearGradient2813"
       inkscape:collect="always" />
    <linearGradient
       id="linearGradient2813"
       inkscape:collect="always">
      <stop
         id="stop2815"
         offset="0"
         style="stop-color:white;stop-opacity:1" />
      <stop
         id="stop2817"
         offset="1"
         style="stop-color:black;stop-opacity:1" />
    </linearGradient>
    <linearGradient
       inkscape:collect="always"
       id="linearGradient2837">
      <stop
         style="stop-color:white;stop-opacity:1"
         offset="0"
         id="stop2839" />
      <stop
         style="stop-color:black;stop-opacity:1"
         offset="1"
         id="stop2841" />
    </linearGradient>
    <linearGradient
       inkscape:collect="always"
       xlink:href="#linearGradient2914"
       id="linearGradient3835"
       gradientUnits="userSpaceOnUse"
       x1="300.91351"
       y1="128.97742"
       x2="320.56619"
       y2="112.00388"
       gradientTransform="matrix(1.517027,0,0,1.517027,-310.8671,-42.13165)" />
    <radialGradient
       inkscape:collect="always"
       xlink:href="#linearGradient2874"
       id="radialGradient3838"
       gradientUnits="userSpaceOnUse"
       gradientTransform="matrix(-1.5136167,-0.10167015,0.1713664,-2.5512253,568.04965,650.29484)"
       cx="299.22437"
       cy="162.9576"
       fx="299.22437"
       fy="162.9576"
       r="15.548699" />
    <linearGradient
       inkscape:collect="always"
       xlink:href="#linearGradient2866"
       id="linearGradient3840"
       gradientUnits="userSpaceOnUse"
       x1="287.18848"
       y1="184.77774"
       x2="306.86923"
       y2="150.62317"
       gradientTransform="matrix(1.517027,0,0,1.517027,-310.8671,-42.13165)" />
    <radialGradient
       inkscape:collect="always"
       xlink:href="#linearGradient2900"
       id="radialGradient3843"
       gradientUnits="userSpaceOnUse"
       gradientTransform="matrix(1.9877352,0.08912673,-0.06396994,1.4266823,-446.41843,-57.315701)"
       cx="306.39297"
       cy="134.62831"
       fx="300.41553"
       fy="133.40521"
       r="23.073971" />
    <linearGradient
       inkscape:collect="always"
       xlink:href="#linearGradient2812"
       id="linearGradient3846"
       gradientUnits="userSpaceOnUse"
       x1="269.98642"
       y1="121.77454"
       x2="297.03973"
       y2="93.379318"
       gradientTransform="matrix(1.517027,0,0,1.517027,-310.8671,-42.13165)" />
    <radialGradient
       inkscape:collect="always"
       xlink:href="#linearGradient2788"
       id="radialGradient3850"
       gradientUnits="userSpaceOnUse"
       gradientTransform="matrix(-2.2972082,0.08953631,-0.03989828,-1.0236595,716.81129,176.03428)"
       cx="274.35501"
       cy="105.14992"
       fx="274.35501"
       fy="105.14992"
       r="24.799271"
       spreadMethod="reflect" />
    <linearGradient
       inkscape:collect="always"
       xlink:href="#linearGradient2844"
       id="linearGradient3853"
       gradientUnits="userSpaceOnUse"
       x1="265.50507"
       y1="106.81893"
       x2="276.8049"
       y2="118.84052"
       gradientTransform="matrix(1.517027,0,0,1.517027,-310.8671,-42.13165)" />
    <radialGradient
       inkscape:collect="always"
       xlink:href="#linearGradient2836"
       id="radialGradient3858"
       gradientUnits="userSpaceOnUse"
       gradientTransform="matrix(-1.9610411,-0.03018362,0.05723932,-3.7188627,669.76858,320.52139)"
       cx="283.07397"
       cy="68.396957"
       fx="283.07397"
       fy="68.396957"
       r="12.0021" />
    <radialGradient
       inkscape:collect="always"
       xlink:href="#linearGradient2836"
       id="radialGradient3861"
       gradientUnits="userSpaceOnUse"
       gradientTransform="matrix(-2.5742219,0.06567052,-0.0902797,-3.5388781,777.96629,282.34601)"
       cx="264.63171"
       cy="68.224998"
       fx="264.63171"
       fy="68.224998"
       r="9.6602249" />
    <radialGradient
       inkscape:collect="always"
       xlink:href="#linearGradient2874"
       id="radialGradient3866"
       gradientUnits="userSpaceOnUse"
       gradientTransform="matrix(1.517027,0,0,1.6018925,-29.316749,-36.964952)"
       cx="72.451714"
       cy="140.11456"
       fx="72.451714"
       fy="140.11456"
       r="16.454014" />
    <linearGradient
       inkscape:collect="always"
       xlink:href="#linearGradient2866"
       id="linearGradient3868"
       gradientUnits="userSpaceOnUse"
       gradientTransform="matrix(1.517027,0,0,1.517027,-29.316749,-24.36822)"
       x1="72.390816"
       y1="165.80582"
       x2="80.123695"
       y2="131.05684" />
    <radialGradient
       inkscape:collect="always"
       xlink:href="#linearGradient3871"
       id="radialGradient3877"
       cx="104.0486"
       cy="187.56743"
       fx="104.0486"
       fy="187.56743"
       r="13.530984"
       gradientTransform="matrix(1,0,0,1.6551725,0,-122.88902)"
       gradientUnits="userSpaceOnUse" />
    <linearGradient
       inkscape:collect="always"
       xlink:href="#linearGradient2914"
       id="linearGradient3887"
       x1="98.280663"
       y1="149.9623"
       x2="85.17585"
       y2="141.25269"
       gradientUnits="userSpaceOnUse"
       gradientTransform="translate(-2.4884568,-0.93317131)" />
    <linearGradient
       inkscape:collect="always"
       xlink:href="#linearGradient2837"
       id="linearGradient3895"
       x1="171.99924"
       y1="193.40018"
       x2="172.24017"
       y2="212.68571"
       gradientUnits="userSpaceOnUse"
       spreadMethod="reflect" />
    <radialGradient
       inkscape:collect="always"
       xlink:href="#linearGradient2900"
       id="radialGradient4224"
       gradientUnits="userSpaceOnUse"
       gradientTransform="matrix(-1.9877352,0.08912673,0.06396994,1.4266823,716.25595,-52.960901)"
       cx="306.39297"
       cy="134.62831"
       fx="300.41553"
       fy="133.40521"
       r="23.073971" />
    <linearGradient
       inkscape:collect="always"
       xlink:href="#linearGradient4236"
       id="linearGradient4234"
       gradientUnits="userSpaceOnUse"
       gradientTransform="matrix(1.517027,0,0,1.517027,-310.8671,-42.13165)"
       x1="325.1087"
       y1="129.79759"
       x2="298.42145"
       y2="101.95673" />
  </defs>
  <sodipodi:namedview
     inkscape:window-height="1057"
     inkscape:window-width="1920"
     inkscape:pageshadow="2"
     inkscape:pageopacity="0"
     guidetolerance="10.0"
     gridtolerance="10.0"
     objecttolerance="10.0"
     borderopacity="1.0"
     bordercolor="#666666"
     pagecolor="#ffffff"
     id="base"
     width="256px"
     height="256px"
     inkscape:zoom="3.2148438"
     inkscape:cx="128"
     inkscape:cy="128"
     inkscape:window-x="-2"
     inkscape:window-y="-5"
     inkscape:current-layer="svg2"
     showgrid="false"
     inkscape:window-maximized="1" />
  <path
     sodipodi:nodetypes="ccccccscc"
     id="path4222"
     d="m 120.52411,121.31253 c -14.48727,12.90935 -25.589785,15.87268 -38.971775,22.15041 -24.63575,13.91469 -6.77849,40.08905 6.61665,46.45428 8.68948,1.46486 18.105105,0.75131 27.977395,-1.33225 11.5288,-5.10408 3.51709,-9.46789 2.22043,-12.43439 l -12.4344,0.44408 c -12.074865,-3.28232 -0.0636,-14.23577 5.02425,-15.26053 16.61471,-3.34641 18.05602,-16.01495 28.32681,-28.52924 -6.15251,-0.7083 -11.76726,-7.31071 -18.75936,-11.49236 z"
     style="fill:url(#radialGradient4224);fill-opacity:1;fill-rule:evenodd;stroke:none"
     inkscape:connector-curvature="0" />
  <path
     sodipodi:nodetypes="cccccc"
     id="path3879"
     d="m 141.16613,123.74217 c -17.74327,10.21706 -48.692905,21.95486 -60.617692,62.39405 l -3.108601,-31.53009 c 1.568621,-5.03296 2.732514,-10.06594 8.881708,-15.0989 L 112.07852,124.4083 Z"
     style="fill:url(#linearGradient3887);fill-opacity:1;fill-rule:evenodd;stroke:none"
     inkscape:connector-curvature="0" />
  <path
     sodipodi:type="arc"
     style="fill:url(#radialGradient2955);fill-opacity:1;stroke:none"
     id="path2928"
     sodipodi:cx="291.24103"
     sodipodi:cy="168.90738"
     sodipodi:rx="58.579395"
     sodipodi:ry="20.285444"
     d="m 349.82042,168.90738 a 58.579395,20.285444 0 1 1 -117.15879,0 58.579395,20.285444 0 1 1 117.15879,0 z"
     transform="matrix(1.517027,0,0,1.517027,-302.46856,-45.242221)" />
  <path
     inkscape:connector-curvature="0"
     style="fill:url(#radialGradient3866);fill-opacity:1;fill-rule:evenodd;stroke:url(#linearGradient3868);stroke-width:1.51702702px;stroke-linecap:butt;stroke-linejoin:miter;stroke-opacity:1"
     d="m 101.68848,218.15538 c -0.31522,8.86727 -4.276404,10.96347 -12.878478,4.44087 -16.646596,-8.91837 -31.728514,-18.54794 -35.526861,-33.30643 -4.737706,-7.30723 3.410398,-11.46437 7.993549,-0.88818 3.681111,-4.3516 5.679916,-13.75016 13.766656,-4.88493 1.887758,-5.70995 3.549782,-12.24766 8.881707,-5.32903 l 17.763427,39.9677 z"
     id="path2882"
     sodipodi:nodetypes="ccccccc" />
  <path
     inkscape:connector-curvature="0"
     style="fill:url(#linearGradient3895);fill-opacity:1;fill-rule:evenodd;stroke:none"
     d="m 143.65459,124.67534 c 12.38198,20.99983 18.68403,45.37741 40.63383,61.06178 3.83362,7.58725 9.82657,9.77619 15.98708,11.54623 7.21119,3.1086 3.07854,6.2172 0,9.3258 -16.60644,19.37039 -39.94512,15.17795 -60.83973,19.53977 -25.41889,4.34905 -40.02178,-19.6939 -56.398875,-39.07953 l 4.978884,-26.24212 c 1.568621,-5.03296 7.709428,-11.93228 13.858621,-16.96524 l 23.57958,-16.96527 z"
     id="path2862"
     sodipodi:nodetypes="cccccccccc" />
  <path
     sodipodi:type="arc"
     style="fill:url(#radialGradient2961);fill-opacity:1;stroke:none"
     id="path1873"
     sodipodi:cx="104.35974"
     sodipodi:cy="69.851929"
     sodipodi:rx="31.176191"
     sodipodi:ry="38.201813"
     d="m 135.53593,69.851929 a 31.176191,38.201813 0 1 1 -62.35238,0 31.176191,38.201813 0 1 1 62.35238,0 z"
     transform="matrix(1.517027,0,0,1.517027,-38.198487,-34.582195)" />
  <path
     inkscape:connector-curvature="0"
     style="fill:url(#radialGradient3861);fill-opacity:1;stroke:none"
     d="m 101.68848,72.939372 c 0,8.750263 -6.121276,16.875255 -14.210732,16.875255 -8.08947,0 -15.098909,-7.236821 -15.098909,-16.875255 0,-12.747037 7.009439,-29.309657 15.098909,-29.309657 8.089456,0 14.210732,16.56262 14.210732,29.309657 z"
     id="path1878"
     sodipodi:nodetypes="csssc" />
  <path
     inkscape:connector-curvature="0"
     style="fill:url(#radialGradient3858);fill-opacity:1;stroke:none"
     d="m 131.44222,74.493713 c 0,16.54664 -8.15696,23.314511 -18.20751,23.314511 -10.05054,0 -18.207507,-6.767871 -18.207507,-23.314511 0,-16.546638 8.156967,-36.637079 18.207507,-36.637079 10.05055,0 18.20751,20.090441 18.20751,36.637079 z"
     id="path1875"
     sodipodi:nodetypes="csssc" />
  <ellipse
     style="fill:url(#radialGradient2967);fill-opacity:1;stroke:none"
     id="path1881"
     cx="109.3485"
     cy="74.802193"
     rx="10.238441"
     ry="15.016381" />
  <ellipse
     style="fill:url(#radialGradient2969);fill-opacity:1;stroke:none"
     id="path1883"
     cx="83.213867"
     cy="71.191307"
     rx="7.9064989"
     ry="12.719151" />
  <path
     inkscape:connector-curvature="0"
     style="fill:url(#linearGradient3853);fill-opacity:1;fill-rule:evenodd;stroke:none"
     d="m 94.139029,134.66727 -10.213976,-11.10213 13.766656,1.77635 16.431181,-14.21075 0,-11.10214 7.54945,-3.108601 11.10214,4.884941 0,9.76989 -9.32579,10.21396 -15.543,12.4344 -13.766661,0.44408 z"
     id="path2842" />
  <path
     inkscape:connector-curvature="0"
     style="fill:url(#radialGradient3850);fill-opacity:1.0;fill-rule:evenodd;stroke:none"
     d="m 116.34331,98.696341 c 3.62285,2.280139 4.15528,6.129139 2.66452,12.878489 -4.5889,8.88171 -10.65805,14.5068 -20.872026,18.20751 -20.376555,-4.81398 -44.543023,-3.94312 -51.513944,-28.86557 6.9811,-12.682949 14.993051,-16.771977 26.643166,-20.116885 5.853843,11.16044 15.499055,14.138012 23.982604,6.794313 3.87136,7.690903 9.33278,12.837702 19.09568,11.102143 z"
     id="path1885"
     sodipodi:nodetypes="ccccccc" />
  <ellipse
     style="fill:url(#radialGradient2975);fill-opacity:1;stroke:none"
     id="path2852"
     transform="matrix(1.4682561,-0.22730981,0.22890269,1.4785385,-66.002255,-11.620642)"
     cx="106.55524"
     cy="146.10919"
     rx="28.395216"
     ry="35.085304" />
  <path
     inkscape:connector-curvature="0"
     style="fill:url(#linearGradient3846);fill-opacity:1;fill-rule:evenodd;stroke:none"
     d="m 91.474523,132.89093 c 8.988977,14.53149 36.576447,-0.23563 44.852647,-25.31288 -7.69934,-20.077276 -12.7815,-12.674348 -18.20751,-8.881709 4.41346,-0.350071 16.64958,-1.598537 11.83889,13.407749 -4.36661,0.62351 -0.0231,-11.03475 -6.95396,-4.52604 -2.23135,7.98262 -12.32749,21.8671 -19.59328,23.92712 -7.439121,0.82514 -4.746018,0.87688 -11.936787,1.38576 z"
     id="path1887"
     sodipodi:nodetypes="ccccccc" />
  <path
     inkscape:connector-curvature="0"
     style="fill:url(#radialGradient3843);fill-opacity:1;fill-rule:evenodd;stroke:none"
     d="m 149.31341,116.95773 c 14.48727,12.90935 25.58979,15.87268 38.97178,22.15041 24.63575,13.91469 6.77849,40.08905 -6.61665,46.45428 -8.68948,1.46486 -18.10511,0.75131 -27.9774,-1.33225 -11.5288,-5.10408 -3.51709,-9.46789 -2.22043,-12.43439 l 12.4344,0.44408 c 12.07487,-3.28232 0.0636,-14.23577 -5.02425,-15.26053 -16.61471,-3.34641 -18.05602,-16.01495 -28.32681,-28.52924 6.15251,-0.7083 11.76726,-7.31071 18.75936,-11.49236 z"
     id="path1889"
     sodipodi:nodetypes="ccccccscc" />
  <path
     sodipodi:type="arc"
     style="fill:url(#radialGradient3877);fill-opacity:1;stroke:none"
     id="path3832"
     sodipodi:cx="104.0486"
     sodipodi:cy="187.56743"
     sodipodi:rx="13.530984"
     sodipodi:ry="22.396112"
     d="m 117.57958,187.56743 a 13.530984,22.396112 0 1 1 -27.061965,0 13.530984,22.396112 0 1 1 27.061965,0 z"
     transform="matrix(1.3010456,-0.23353562,0.21225511,1.1824902,-71.757634,-10.085688)" />
  <path
     inkscape:connector-curvature="0"
     style="fill:url(#radialGradient3838);fill-opacity:1;fill-rule:evenodd;stroke:url(#linearGradient3840);stroke-width:1.51702702px;stroke-linecap:butt;stroke-linejoin:miter;stroke-opacity:1"
     d="m 121.22825,227.48118 c 2.89362,9.26863 13.9629,16.332 27.97739,0.88818 6.45954,-7.11835 9.49941,-15.51001 12.8785,-24.86881 5.20247,-14.40892 -8.91111,-13.18554 -10.65806,-3.55268 4.44085,-12.95507 -10.65807,-26.45393 -15.9871,-6.66128 0.1291,-11.62972 -13.67625,-10.60299 -16.43116,1.77633 -2.79044,12.53895 -1.23125,21.36217 2.22043,32.41826 z"
     id="path2864"
     sodipodi:nodetypes="cssccss" />
  <path
     inkscape:connector-curvature="0"
     sodipodi:nodetypes="ccccc"
     id="path2912"
     d="m 149.31341,116.95773 c 14.48727,12.90935 25.58979,15.87268 38.97178,22.15041 -9.14764,-0.92837 -28.07727,0.4981 -29.40433,17.87119 -16.61471,-3.34641 -18.05602,-16.01495 -28.32681,-28.52924 6.15251,-0.7083 11.76726,-7.31071 18.75936,-11.49236 z"
     style="fill:url(#linearGradient3835);fill-opacity:1;fill-rule:evenodd;stroke:none" />
  <g
     id="layer1"
     inkscape:label="1. réteg"
     transform="translate(1.0676828,0.98385855)">
    <path
       id="text3905"
       d="m 14.672896,-7.9438771 -5.2910158,0 -0.834961,2.390625 -3.401367,0 4.8603508,-13.1220709 4.03418,0 4.860352,13.1220709 -3.401368,0 -0.826171,-2.390625 m -4.447266,-2.4345709 3.594727,0 -1.792969,-5.220703 -1.801758,5.220703 m 10.40625,-8.296875 5.616211,0 c 1.669913,1.3e-5 2.950185,0.372083 3.84082,1.116211 0.896473,0.738293 1.344714,1.792979 1.344727,3.164063 -1.3e-5,1.37696 -0.448254,2.437506 -1.344727,3.18164 -0.890635,0.738287 -2.170907,1.107427 -3.84082,1.107422 l -2.232422,0 0,4.5527349 -3.383789,0 0,-13.1220709 m 3.383789,2.452149 0,3.665039 1.87207,0 c 0.656243,7e-6 1.163078,-0.158196 1.520508,-0.47461 0.357413,-0.322257 0.536124,-0.776358 0.536133,-1.362304 -9e-6,-0.585928 -0.17872,-1.0371 -0.536133,-1.353516 -0.35743,-0.316396 -0.864265,-0.474599 -1.520508,-0.474609 l -1.87207,0"
       style="font-size:18px;font-style:normal;font-weight:bold;fill:#000000;fill-opacity:1;stroke:none;font-family:Bitstream Vera Sans"
       inkscape:connector-curvature="0" />
  </g>
  <path
     style="fill:url(#linearGradient4234);fill-opacity:1;fill-rule:evenodd;stroke:none"
     d="m 149.31341,116.95773 c 14.48727,12.90935 25.58979,15.87268 38.97178,22.15041 6.43555,15.17426 4.74928,34.41887 -29.40433,17.87119 -16.61471,-3.34641 -18.05602,-16.01495 -28.32681,-28.52924 6.15251,-0.7083 11.76726,-7.31071 18.75936,-11.49236 z"
     id="path4224"
     sodipodi:nodetypes="ccccc"
     inkscape:connector-curvature="0" />
</svg>
