<?xml version="1.0" encoding="UTF-8" standalone="no"?>
<!-- Created with Inkscape (http://www.inkscape.org/) -->

<svg
   xmlns:dc="http://purl.org/dc/elements/1.1/"
   xmlns:cc="http://creativecommons.org/ns#"
   xmlns:rdf="http://www.w3.org/1999/02/22-rdf-syntax-ns#"
   xmlns:svg="http://www.w3.org/2000/svg"
   xmlns="http://www.w3.org/2000/svg"
   xmlns:xlink="http://www.w3.org/1999/xlink"
   xmlns:sodipodi="http://sodipodi.sourceforge.net/DTD/sodipodi-0.dtd"
   xmlns:inkscape="http://www.inkscape.org/namespaces/inkscape"
   id="svg2"
   sodipodi:version="0.32"
   inkscape:version="0.91 r13725"
   width="256"
   height="256"
   version="1.0"
   sodipodi:docname="mic-on.svg"
   inkscape:output_extension="org.inkscape.output.svg.inkscape">
  <metadata
     id="metadata7">
    <rdf:RDF>
      <cc:Work
         rdf:about="">
        <dc:format>image/svg+xml</dc:format>
        <dc:type
           rdf:resource="http://purl.org/dc/dcmitype/StillImage" />
        <dc:creator>
          <cc:Agent>
            <dc:title />
          </cc:Agent>
        </dc:creator>
        <dc:rights>
          <cc:Agent>
            <dc:title />
          </cc:Agent>
        </dc:rights>
        <dc:publisher>
          <cc:Agent>
            <dc:title />
          </cc:Agent>
        </dc:publisher>
        <cc:license
           rdf:resource="http://web.resource.org/cc/PublicDomain" />
      </cc:Work>
      <cc:License
         rdf:about="http://web.resource.org/cc/PublicDomain">
        <cc:permits
           rdf:resource="http://web.resource.org/cc/Reproduction" />
        <cc:permits
           rdf:resource="http://web.resource.org/cc/Distribution" />
        <cc:permits
           rdf:resource="http://web.resource.org/cc/DerivativeWorks" />
      </cc:License>
    </rdf:RDF>
  </metadata>
  <defs
     id="defs5">
    <linearGradient
       id="linearGradient5154">
      <stop
         style="stop-color:#00ff1c;stop-opacity:1"
         offset="0"
         id="stop5156" />
      <stop
         style="stop-color:#0f981d;stop-opacity:1"
         offset="1"
         id="stop5158" />
    </linearGradient>
    <inkscape:perspective
       sodipodi:type="inkscape:persp3d"
       inkscape:vp_x="0 : 128 : 1"
       inkscape:vp_y="0 : 1000 : 0"
       inkscape:vp_z="256 : 128 : 1"
       inkscape:persp3d-origin="128 : 85.333333 : 1"
       id="perspective119" />
    <linearGradient
       id="linearGradient2956">
      <stop
         id="stop2958"
         offset="0"
         style="stop-color:white;stop-opacity:1" />
      <stop
         style="stop-color:#7f7f7f;stop-opacity:1;"
         offset="0"
         id="stop2962" />
      <stop
         id="stop2964"
         offset="0.75"
         style="stop-color:white;stop-opacity:1;" />
      <stop
         id="stop2960"
         offset="1"
         style="stop-color:black;stop-opacity:1" />
    </linearGradient>
    <linearGradient
       inkscape:collect="always"
       id="linearGradient2959">
      <stop
         style="stop-color:black;stop-opacity:1"
         offset="0"
         id="stop2961" />
      <stop
         style="stop-color:white;stop-opacity:1"
         offset="1"
         id="stop2963" />
    </linearGradient>
    <linearGradient
       inkscape:collect="always"
       id="linearGradient2935">
      <stop
         style="stop-color:black;stop-opacity:1;"
         offset="0"
         id="stop2937" />
      <stop
         style="stop-color:black;stop-opacity:0;"
         offset="1"
         id="stop2939" />
    </linearGradient>
    <linearGradient
       inkscape:collect="always"
       id="linearGradient2925">
      <stop
         style="stop-color:black;stop-opacity:1;"
         offset="0"
         id="stop2927" />
      <stop
         style="stop-color:black;stop-opacity:0;"
         offset="1"
         id="stop2929" />
    </linearGradient>
    <linearGradient
       id="linearGradient2909">
      <stop
         style="stop-color:#3b3b3b;stop-opacity:1"
         offset="0"
         id="stop2911" />
      <stop
         style="stop-color:white;stop-opacity:1;"
         offset="1"
         id="stop2913" />
    </linearGradient>
    <linearGradient
       inkscape:collect="always"
       id="linearGradient2899">
      <stop
         style="stop-color:white;stop-opacity:1"
         offset="0"
         id="stop2901" />
      <stop
         style="stop-color:black;stop-opacity:1"
         offset="1"
         id="stop2903" />
    </linearGradient>
    <linearGradient
       inkscape:collect="always"
       id="linearGradient2891">
      <stop
         style="stop-color:white;stop-opacity:1;"
         offset="0"
         id="stop2893" />
      <stop
         style="stop-color:black;stop-opacity:1"
         offset="1"
         id="stop2895" />
    </linearGradient>
    <linearGradient
       inkscape:collect="always"
       id="linearGradient2771">
      <stop
         style="stop-color:white;stop-opacity:1"
         offset="0"
         id="stop2773" />
      <stop
         style="stop-color:black;stop-opacity:0;"
         offset="1"
         id="stop2775" />
    </linearGradient>
    <linearGradient
       inkscape:collect="always"
       id="linearGradient2760">
      <stop
         style="stop-color:#7d7777;stop-opacity:1"
         offset="0"
         id="stop2762" />
      <stop
         style="stop-color:white;stop-opacity:1"
         offset="1"
         id="stop2764" />
    </linearGradient>
    <radialGradient
       inkscape:collect="always"
       xlink:href="#linearGradient2899"
       id="radialGradient2953"
       gradientUnits="userSpaceOnUse"
       gradientTransform="matrix(-1.597714,-0.09932352,0.110874,-1.783515,26.84382,92.75971)"
       cx="11.254178"
       cy="33.576466"
       fx="11.254178"
       fy="33.576466"
       r="5.3954015" />
    <linearGradient
       inkscape:collect="always"
       xlink:href="#linearGradient2891"
       id="linearGradient2955"
       gradientUnits="userSpaceOnUse"
       x1="6.7775841"
       y1="42.62072"
       x2="16.124134"
       y2="29.075609" />
    <linearGradient
       inkscape:collect="always"
       xlink:href="#linearGradient2771"
       id="linearGradient2048"
       gradientUnits="userSpaceOnUse"
       gradientTransform="matrix(1.488703,-0.219651,0.258467,1.26513,10.89905,-59.20045)"
       x1="54.297661"
       y1="154.35623"
       x2="62.676929"
       y2="138.45277" />
    <linearGradient
       inkscape:collect="always"
       xlink:href="#linearGradient2771"
       id="linearGradient2051"
       gradientUnits="userSpaceOnUse"
       gradientTransform="matrix(1.488703,-0.219651,0.258467,1.26513,4.713998,-73.2574)"
       x1="54.297661"
       y1="154.35623"
       x2="62.676929"
       y2="138.45277" />
    <linearGradient
       inkscape:collect="always"
       xlink:href="#linearGradient2771"
       id="linearGradient2054"
       gradientUnits="userSpaceOnUse"
       gradientTransform="matrix(1.488703,-0.219651,0.258467,1.26513,0.215776,-88.4389)"
       x1="54.297661"
       y1="154.35623"
       x2="62.676929"
       y2="138.45277" />
    <linearGradient
       inkscape:collect="always"
       xlink:href="#linearGradient2771"
       id="linearGradient2057"
       gradientUnits="userSpaceOnUse"
       gradientTransform="matrix(1.488703,-0.219651,0.258467,1.26513,-3.720168,-103.6204)"
       x1="54.297661"
       y1="154.35623"
       x2="62.676929"
       y2="138.45277" />
    <radialGradient
       inkscape:collect="always"
       xlink:href="#linearGradient2956"
       id="radialGradient2966"
       cx="117.57077"
       cy="102.68259"
       fx="117.57077"
       fy="102.68259"
       r="32.371666"
       gradientTransform="matrix(1.38868,-2.989845e-2,2.360939e-2,1.096575,-48.02422,-33.78302)"
       gradientUnits="userSpaceOnUse" />
    <linearGradient
       inkscape:collect="always"
       xlink:href="#linearGradient2959"
       id="linearGradient2517"
       gradientUnits="userSpaceOnUse"
       gradientTransform="matrix(1.677586,0,0,1.677586,10.66819,-16.38893)"
       spreadMethod="reflect"
       x1="82.947678"
       y1="133.88708"
       x2="85.941589"
       y2="133.88708" />
    <linearGradient
       inkscape:collect="always"
       xlink:href="#linearGradient2760"
       id="linearGradient2521"
       gradientUnits="userSpaceOnUse"
       gradientTransform="matrix(1.677586,0,0,1.677586,10.66819,-16.38893)"
       x1="79.9655"
       y1="121.50777"
       x2="94.789062"
       y2="109.54111" />
    <linearGradient
       inkscape:collect="always"
       xlink:href="#linearGradient2935"
       id="linearGradient2523"
       gradientUnits="userSpaceOnUse"
       gradientTransform="matrix(1.677586,0,0,1.677586,10.66819,-16.38893)"
       x1="87.393082"
       y1="133.88707"
       x2="88.615211"
       y2="104.58938" />
    <linearGradient
       inkscape:collect="always"
       xlink:href="#linearGradient2909"
       id="linearGradient2526"
       gradientUnits="userSpaceOnUse"
       gradientTransform="matrix(1.677586,0,0,1.677586,10.66819,-16.38893)"
       x1="69.236763"
       y1="121.71108"
       x2="88.23391"
       y2="118.82258" />
    <linearGradient
       inkscape:collect="always"
       xlink:href="#linearGradient2925"
       id="linearGradient2528"
       gradientUnits="userSpaceOnUse"
       gradientTransform="matrix(1.677586,0,0,1.677586,10.66819,-16.38893)"
       x1="76.053154"
       y1="132.02718"
       x2="79.893684"
       y2="107.28737" />
    <inkscape:perspective
       sodipodi:type="inkscape:persp3d"
       inkscape:vp_x="0 : 128 : 1"
       inkscape:vp_y="0 : 1000 : 0"
       inkscape:vp_z="256 : 128 : 1"
       inkscape:persp3d-origin="128 : 85.333333 : 1"
       id="perspective3333" />
    <linearGradient
       y2="62.433907"
       x2="77.311943"
       y1="60.369015"
       x1="59.893867"
       spreadMethod="reflect"
       gradientTransform="translate(2.0649012,3.539823)"
       gradientUnits="userSpaceOnUse"
       id="linearGradient3275"
       xlink:href="#linearGradient3261"
       inkscape:collect="always" />
    <inkscape:perspective
       id="perspective9"
       inkscape:persp3d-origin="372.04724 : 350.78739 : 1"
       inkscape:vp_z="744.09448 : 526.18109 : 1"
       inkscape:vp_y="0 : 1000 : 0"
       inkscape:vp_x="0 : 526.18109 : 1"
       sodipodi:type="inkscape:persp3d" />
    <linearGradient
       id="linearGradient3261"
       inkscape:collect="always">
      <stop
         id="stop3263"
         offset="0"
         style="stop-color:#453c3c;stop-opacity:1" />
      <stop
         id="stop3265"
         offset="1"
         style="stop-color:#fff9f9;stop-opacity:1" />
    </linearGradient>
    <linearGradient
       inkscape:collect="always"
       xlink:href="#linearGradient3261"
       id="linearGradient2702"
       gradientUnits="userSpaceOnUse"
       gradientTransform="translate(2.0649012,3.539823)"
       spreadMethod="reflect"
       x1="59.893867"
       y1="60.369015"
       x2="77.311943"
       y2="62.433907" />
    <inkscape:perspective
       id="perspective53"
       inkscape:persp3d-origin="128 : 85.333333 : 1"
       inkscape:vp_z="256 : 128 : 1"
       inkscape:vp_y="0 : 1000 : 0"
       inkscape:vp_x="0 : 128 : 1"
       sodipodi:type="inkscape:persp3d" />
    <linearGradient
       id="linearGradient2796">
      <stop
         id="stop2798"
         offset="0"
         style="stop-color:#7c001c;stop-opacity:1;" />
      <stop
         id="stop2800"
         offset="1"
         style="stop-color:#ff0030;stop-opacity:1;" />
    </linearGradient>
    <linearGradient
       id="linearGradient2790">
      <stop
         id="stop2792"
         offset="0"
         style="stop-color:#ff002b;stop-opacity:1;" />
      <stop
         id="stop2794"
         offset="1"
         style="stop-color:#980f2a;stop-opacity:1;" />
    </linearGradient>
    <radialGradient
       r="166.47372"
       fy="391.47498"
       fx="124.57159"
       cy="391.47498"
       cx="123.88702"
       gradientTransform="matrix(0.18421,0,0,7.817184e-2,171.1338,270.8404)"
       gradientUnits="userSpaceOnUse"
       id="radialGradient3783"
       xlink:href="#light90to0"
       inkscape:collect="always" />
    <linearGradient
       id="light90to0">
      <stop
         style="stop-color:#ffffff;stop-opacity:0.90196079;"
         offset="0.0000000"
         id="stop1890" />
      <stop
         style="stop-color:#ffffff;stop-opacity:0.0000000;"
         offset="1.0000000"
         id="stop1892" />
    </linearGradient>
    <linearGradient
       y2="346.10425"
       x2="183.38441"
       y1="18.164442"
       x1="183.38441"
       gradientUnits="userSpaceOnUse"
       id="linearGradient3781"
       xlink:href="#light90to0"
       inkscape:collect="always" />
    <linearGradient
       id="greandraktoblack">
      <stop
         style="stop-color:#007c00;stop-opacity:1.0000000;"
         offset="0.0000000"
         id="stop7328" />
      <stop
         style="stop-color:#025a00;stop-opacity:1.0000000;"
         offset="1.0000000"
         id="stop7329" />
    </linearGradient>
    <linearGradient
       y2="369.70224"
       x2="216.97546"
       y1="326.97833"
       x1="174.89091"
       gradientTransform="matrix(1.000042,0,0,0.999958,-2.45064,-55.66138)"
       gradientUnits="userSpaceOnUse"
       id="linearGradient3779"
       xlink:href="#greandraktoblack"
       inkscape:collect="always" />
    <linearGradient
       id="greantodarkgrean">
      <stop
         style="stop-color:#00ff01;stop-opacity:1.0000000;"
         offset="0.0000000"
         id="stop5123" />
      <stop
         style="stop-color:#15980f;stop-opacity:1.0000000;"
         offset="1.0000000"
         id="stop5124" />
    </linearGradient>
    <radialGradient
       r="21.966896"
       fy="361.26596"
       fx="203.89725"
       cy="361.44897"
       cx="203.8972"
       gradientTransform="matrix(1.000042,0,0,0.999958,-2.45064,-55.66138)"
       gradientUnits="userSpaceOnUse"
       id="radialGradient3777"
       xlink:href="#greantodarkgrean"
       inkscape:collect="always" />
    <linearGradient
       y2="1061.3409"
       x2="345.05276"
       y1="1061.3409"
       x1="-35.431614"
       gradientTransform="matrix(0.11827,0,0,0.11826,171.478,270.9748)"
       gradientUnits="userSpaceOnUse"
       id="linearGradient3775"
       xlink:href="#linearGradient2935"
       inkscape:collect="always" />
    <radialGradient
       r="166.47372"
       fy="391.47498"
       fx="124.57159"
       cy="391.47498"
       cx="123.88702"
       gradientTransform="matrix(0.121805,3.810853e-2,-1.902976e-2,5.970293e-2,186.6979,273.6025)"
       gradientUnits="userSpaceOnUse"
       id="radialGradient1915"
       xlink:href="#light90to0"
       inkscape:collect="always" />
    <radialGradient
       r="166.47372"
       fy="391.47498"
       fx="124.57159"
       cy="391.47498"
       cx="123.88702"
       gradientTransform="matrix(0.599431,0.189294,-9.364984e-2,0.296559,92.42049,27.9291)"
       gradientUnits="userSpaceOnUse"
       id="radialGradient2779"
       xlink:href="#light90to0"
       inkscape:collect="always" />
    <radialGradient
       r="21.966896"
       fy="361.26596"
       fx="203.89725"
       cy="361.44897"
       cx="203.8972"
       gradientTransform="matrix(4.921438,0,0,4.967034,-838.4232,-1607.605)"
       gradientUnits="userSpaceOnUse"
       id="radialGradient2783"
       xlink:href="#linearGradient2790"
       inkscape:collect="always" />
    <linearGradient
       y2="369.70224"
       x2="216.97546"
       y1="326.97833"
       x1="174.89091"
       gradientTransform="matrix(4.921438,0,0,4.967034,-838.4232,-1607.605)"
       gradientUnits="userSpaceOnUse"
       id="linearGradient2785"
       xlink:href="#linearGradient2796"
       inkscape:collect="always" />
    <linearGradient
       y2="1061.3409"
       x2="345.05276"
       y1="1061.3409"
       x1="-35.431614"
       gradientTransform="matrix(0.582034,0,0,0.587426,17.51985,14.87668)"
       gradientUnits="userSpaceOnUse"
       id="linearGradient2788"
       xlink:href="#linearGradient2935"
       inkscape:collect="always" />
    <inkscape:perspective
       id="perspective2503"
       inkscape:persp3d-origin="128 : 85.333333 : 1"
       inkscape:vp_z="256 : 128 : 1"
       inkscape:vp_y="0 : 1000 : 0"
       inkscape:vp_x="0 : 128 : 1"
       sodipodi:type="inkscape:persp3d" />
    <linearGradient
       id="linearGradient3578">
      <stop
         style="stop-color:#000000;stop-opacity:1;"
         offset="0"
         id="stop3580" />
      <stop
         style="stop-color:#fffcfc;stop-opacity:1;"
         offset="1"
         id="stop3582" />
    </linearGradient>
    <radialGradient
       r="166.47372"
       fy="391.47498"
       fx="124.57159"
       cy="391.47498"
       cx="123.88702"
       gradientTransform="matrix(0.5674544,0.1791961,-8.8654089e-2,0.2807391,95.240755,37.815032)"
       gradientUnits="userSpaceOnUse"
       id="radialGradient2507"
       xlink:href="#light90to0"
       inkscape:collect="always" />
    <radialGradient
       r="21.966896"
       fy="361.26596"
       fx="203.89725"
       cy="361.44897"
       cx="203.8972"
       gradientTransform="matrix(4.6589039,0,0,4.7020676,-785.94708,-1510.4715)"
       gradientUnits="userSpaceOnUse"
       id="radialGradient2510"
       xlink:href="#linearGradient2790"
       inkscape:collect="always" />
    <linearGradient
       y2="1061.3409"
       x2="345.05276"
       y1="1061.3409"
       x1="-35.431614"
       gradientTransform="matrix(0.5509854,0,0,0.5560898,24.33569,25.458894)"
       gradientUnits="userSpaceOnUse"
       id="linearGradient2515"
       xlink:href="#linearGradient2935"
       inkscape:collect="always" />
    <linearGradient
       y2="1061.3409"
       x2="345.05276"
       y1="1061.3409"
       x1="-35.431614"
       gradientTransform="matrix(0.5509854,0,0,0.5560898,24.33569,25.458894)"
       gradientUnits="userSpaceOnUse"
       id="linearGradient3302"
       xlink:href="#linearGradient2935"
       inkscape:collect="always" />
    <radialGradient
       r="21.966896"
       fy="361.26596"
       fx="203.89725"
       cy="361.44897"
       cx="203.8972"
       gradientTransform="matrix(4.6589039,0,0,4.7020676,-785.94708,-1510.4715)"
       gradientUnits="userSpaceOnUse"
       id="radialGradient3304"
       xlink:href="#linearGradient5154"
       inkscape:collect="always" />
    <radialGradient
       r="166.47372"
       fy="391.47498"
       fx="124.57159"
       cy="391.47498"
       cx="123.88702"
       gradientTransform="matrix(0.5674544,0.1791961,-0.08865409,0.2807391,95.240755,37.815032)"
       gradientUnits="userSpaceOnUse"
       id="radialGradient3308"
       xlink:href="#light90to0"
       inkscape:collect="always" />
  </defs>
  <sodipodi:namedview
     inkscape:window-height="1056"
     inkscape:window-width="1920"
     inkscape:pageshadow="2"
     inkscape:pageopacity="0.0"
     guidetolerance="10.0"
     gridtolerance="10.0"
     objecttolerance="10.0"
     borderopacity="1.0"
     bordercolor="#666666"
     pagecolor="#ffffff"
     id="base"
     inkscape:zoom="2.0507812"
     inkscape:cx="128"
     inkscape:cy="128"
     inkscape:window-x="0"
     inkscape:window-y="0"
     inkscape:current-layer="svg2"
     width="256px"
     height="256px"
     showgrid="false"
     inkscape:window-maximized="1" />
  <g
     id="g5160"
     transform="translate(-39.497144,0.48761906)">
    <g
       transform="matrix(-1,0,0,1,271.62759,15.254237)"
       id="g2604">
      <path
         style="fill:url(#linearGradient2526);fill-opacity:1;fill-rule:evenodd;stroke:url(#linearGradient2528);stroke-width:1.67758596;stroke-linecap:butt;stroke-linejoin:miter;stroke-miterlimit:4;stroke-dasharray:none;stroke-opacity:1"
         d="m 121.08128,166.85652 c 9.92357,1.95305 20.30447,1.16205 31.15103,-2.42287 l 3.11511,26.30532 c 1.19935,13.05874 -11.53845,13.72645 -17.99838,4.49959 l -16.26776,-28.38204 z"
         id="path2907"
         sodipodi:nodetypes="ccccc"
         inkscape:connector-curvature="0" />
      <path
         style="fill:url(#linearGradient2521);fill-opacity:1;fill-rule:evenodd;stroke:url(#linearGradient2523);stroke-width:0.6710344;stroke-linecap:butt;stroke-linejoin:miter;stroke-miterlimit:4;stroke-dasharray:none;stroke-opacity:1"
         d="m 166.76946,162.35692 -14.19102,3.80735 3.80734,26.99756 c -1.42207,3.32705 -2.61304,6.76966 -7.61469,8.30693 l 15.22939,-4.15347 c 1.83452,-1.32643 3.88606,-1.5678 4.84572,-7.26856 l -2.07674,-27.68981 z"
         id="path2933"
         sodipodi:nodetypes="ccccccc"
         inkscape:connector-curvature="0" />
      <ellipse
         transform="matrix(-0.767093,-1.087738,-0.56518,0.682554,172.1995,174.6398)"
         id="path2951"
         style="fill:url(#radialGradient2953);fill-opacity:1;stroke:url(#linearGradient2955);stroke-width:1.29999995;stroke-linecap:round;stroke-linejoin:round;stroke-miterlimit:4;stroke-dasharray:none;stroke-dashoffset:1.56000018;stroke-opacity:1"
         cx="10.728733"
         cy="34.852619"
         rx="4.7454014"
         ry="7.1181016" />
      <path
         style="fill:url(#linearGradient2517);fill-opacity:1;fill-rule:evenodd;stroke:#000000;stroke-width:0.6710344;stroke-linecap:butt;stroke-linejoin:miter;stroke-miterlimit:4;stroke-dasharray:none;stroke-opacity:1"
         d="m 158.80864,182.0859 5.53796,-2.76897 0.69225,10.7298 c 0.32262,3.98397 -2.12735,6.11955 -4.4996,8.30694 l 0,38.76572 -15.22939,-0.34612 -0.69224,-35.65063 8.65306,-0.69224 c 3.86737,-0.63221 5.35524,-3.64395 5.53796,-7.96081 l 0,-10.38369 z"
         id="path2957"
         sodipodi:nodetypes="cccccccccc"
         inkscape:connector-curvature="0" />
    </g>
    <g
       transform="matrix(1.5425333,0.1668328,-0.1668328,1.5425333,52.663931,-10.024689)"
       id="g3271">
      <path
         style="fill:#000000;fill-rule:evenodd;stroke:#000000;stroke-width:1px;stroke-linecap:butt;stroke-linejoin:miter;stroke-opacity:1"
         d="m 38.053098,18.855458 c 9.018931,-25.4279105 74.935532,-6.776272 70.206492,7.374631 l -8.259591,79.941001 c -4.54597,26.77201 -72.150148,10.5926 -70.206488,-2.65487 l 8.259587,-84.660762 z"
         id="path3269"
         sodipodi:nodetypes="ccccc"
         inkscape:connector-curvature="0" />
      <path
         style="fill:url(#linearGradient2702);fill-opacity:1;fill-rule:evenodd;stroke:#000000;stroke-width:0.40000001;stroke-linecap:butt;stroke-linejoin:miter;stroke-miterlimit:4;stroke-dasharray:none;stroke-opacity:1"
         d="m 67.377401,4.414823 c -1.37787,0.00461 -2.74283,0.050667 -4.09375,0.125 -10.28228,4.2282145 -10.91036,10.748552 -12.90625,17.28125 -0.39358,4.024783 -4.23928,2.095083 -3.90625,0 1.09104,-6.454547 3.24647,-12.2160065 11.75,-16.8125 -2.37077,0.309934 -4.64379,0.7470813 -6.78125,1.3125 -5.3392,4.00864 -7.02183,9.062316 -7.90625,14.34375 0.18629,3.020159 -4.36578,3.658475 -4.15625,0 1.34481,-4.420558 1.7508,-8.598528 6.125,-12.2499995 -5.55425,2.5462565 -9.35783,6.3535845 -10.03125,11.5624995 l -0.875,9.15625 14.25,0.625 -0.53125,5.34375 -14.25,-0.5625 -0.375,3.875 13.625,0.59375 0.03125,4.8125 -14.125,-0.5625 -0.4375,4.40625 13.5,0.59375 -0.28125,4.875 -13.6875,-0.5 -0.34375,3.4375 13.75,0.59375 -3.6875,4.59375 -10.53125,-0.25 -0.3125,3.21875 10,0.4375 3.59375,5 -14.0625,-0.53125 -0.40625,4.125 13.90625,0.625 -0.28125,4.875 -14.09375,-0.5 -0.3125,3.28125 14,0.59375 -0.28125,4.90625 -14.1875,-0.53125 -0.375,3.84375 14,0.625 -0.25,4.875 -14.25,-0.53125 -0.4375,4.593745 c -3.29744,27.390402 70.74793,32.050542 75.312499,7.468752 l 0.8125,-7.937502 -6.218749,0 0,-4.531245 6.687499,0 0.375,-3.71875 -6.093749,0 0,-4.5625 6.562499,0 0.40625,-4 -6.437499,0 0,-4.53125 6.906249,0 0.4375,-4.125 -5.8125,0 0,-4.5625 6.28125,0 0.375,-3.71875 -6.375,0 0,-4.53125 6.84375,0 0.4375,-4.28125 -6.1875,0 0,-4.53125 6.65625,0 0.375,-3.71875 -6.46875,0 0,-4.5625 6.9375,0 0.46875,-4.40625 -6.59375,0 0,-4.53125 7.0625,0 0.8125,-7.9375 C 111.95303,14.083127 92.563461,5.9911113 73.221151,4.633573 c -9.96576,2.4893481 -14.62404,8.825346 -15.21875,18.09375 -1.11507,2.053502 -4.17855,3.034931 -4.25,-0.375 0.87796,-6.674627 2.92838,-14.3275124 13.625,-17.9375 z m 9.15625,1.40625 6.71875,1 c -11.36542,2.7578275 -15.79986,8.689771 -16.53125,16.28125 -0.72661,3.335541 -5.61915,2.610357 -5.4375,-0.1875 2.35768,-6.096034 0.63983,-12.812901 15.25,-17.09375 z m 9.625,2.8437505 5.65625,3.0624995 c -9.56042,2.226263 -13.88578,6.767978 -15.71875,12.375 -1.30185,3.469569 -5.89553,3.520336 -5.5625,0 0.82758,-6.234638 3.0276,-12.292124 15.625,-15.4374995 z m -33,21.7812495 c 14.71698,3.481268 29.04114,3.248021 43.40625,3.5625 l -0.84375,5.53125 c -14.32507,-0.201772 -28.64368,-0.258234 -42.96875,-3.3125 l 0.40625,-5.78125 z m -0.28125,9.21875 c 14.71698,3.481269 29.04114,3.279271 43.40625,3.59375 l -0.84375,5.5 c -14.32507,-0.201775 -28.64368,-0.258234 -42.96875,-3.3125 l 0.40625,-5.78125 z m -0.9375,8.8125 c 14.71698,3.481266 29.00989,3.279271 43.375,3.59375 l -0.8125,5.5 c -14.32507,-0.201774 -28.67493,-0.258234 -43,-3.3125 l 0.4375,-5.78125 z m -1.25,8.53125 c 14.71698,3.481267 29.00989,3.279271 43.375,3.59375 l -0.8125,5.5 c -14.32507,-0.201773 -23.95618,-0.508234 -38.28125,-3.5625 l -4.28125,-5.53125 z m 4,9.65625 c 14.71698,2.241599 24.04114,2.435521 38.40625,2.75 l -0.8125,5.5 c -14.32507,-0.201772 -28.64368,-0.226984 -42.96875,-3.28125 l 5.375,-4.96875 z m -5.25,7.15625 c 14.71698,3.48127 29.04114,3.279271 43.40625,3.59375 l -0.84375,5.5 c -14.32507,-0.201774 -28.64368,-0.258234 -42.96875,-3.3125 l 0.40625,-5.78125 z m 0,8.8125 c 14.71698,3.481267 29.04114,3.279271 43.40625,3.59375 l -0.84375,5.5 c -14.32507,-0.201777 -28.64368,-0.258234 -42.96875,-3.3125 l 0.40625,-5.78125 z m -0.96875,8.5625 c 14.71698,3.481265 29.04114,3.248021 43.40625,3.5625 l -0.84375,5.499997 c -14.32507,-0.20177 -28.64368,-0.22698 -42.96875,-3.281247 l 0.40625,-5.78125 z m -19.125,8.937497 c 0.36731,0.004 0.72644,0.42049 1.09375,1.375 -0.88249,2.93848 0.21615,5.87402 1.5,8.8125 -2.10033,-2.74342 -3.80116,-5.62275 -3.71875,-9.09375 0.36731,-0.69477 0.75769,-1.09768 1.125,-1.09375 z m 4.5,0.5 c 0.90679,0.0238 1.84122,0.76372 2.09375,2.125 -1.26441,4.57724 0.98135,8.70814 2.5,12.9375 -3.59926,-3.35501 -6.1956,-7.38592 -6.5,-12.9375 0.11478,-1.45644 0.99945,-2.14879 1.90625,-2.125 z m 6.6875,1.15625 c 1.10528,-0.15454 2.36464,0.64008 2.5625,2.34375 0.0703,6.28935 0.41809,12.43603 5.53125,15.84375 -8.939,-3.95212 -9.46667,-10.01678 -9.78125,-16.125 0.07689,-1.24608 0.82784,-1.94229 1.6875,-2.0625 z m 7.8125,0.875 c 1.21253,-0.0163 2.42757,0.74188 2.34375,2.28125 -0.78963,6.22732 0.19429,12.005 6.34375,16.40625 -10.12146,-2.95595 -10.88872,-9.93255 -10.90625,-17.21875 0.31467,-0.96404 1.27567,-1.45605 2.21875,-1.46875 z m 7.53125,1.34375 c 1.29567,-0.12693 2.76748,0.66418 2.9375,2.46875 -1.09794,6.44468 0.91189,11.64848 7.15625,15.15625 -11.14994,-1.45722 -12.60377,-8.08378 -12.125,-15.71875 0.11516,-1.16508 1.02351,-1.80752 2.03125,-1.90625 z m 9.875,0.9375 c 1.54385,0.0358 2.99171,0.90651 2.96875,2.75 -0.82321,7.19958 4.67501,9.91074 8.6875,13.65625 -8.80842,-1.99897 -16.48446,-4.82308 -15.15625,-14.0625 0.3214,-1.57353 1.95615,-2.37956 3.5,-2.34375 z"
         id="path2384"
         inkscape:connector-curvature="0" />
    </g>
  </g>
  <g
     id="layer1"
     inkscape:label="1. réteg"
     transform="translate(-2.8451338,-0.1714354)">
    <path
       sodipodi:nodetypes="ccccccccccccccccccc"
       id="text2159"
       d="M 24.21875,-12.46875 L 20.875,-3.71875 L 22.125,-3.71875 L 22.9375,-5.96875 L 26.875,-5.96875 L 27.65625,-3.75 L 27.65625,-3.71875 L 28.90625,-3.71875 L 28.112945,-5.9820422 C 32.228496,-5.9032637 31.758745,-12.572757 28.323088,-12.5 L 24.21875,-12.46875 z M 26.123534,-11.409449 L 27.714084,-11.409449 C 30.668411,-11.482325 30.846223,-6.8936801 27.747543,-6.9913924 L 26.123534,-11.409449 z M 24.875,-11.3125 L 26.5,-6.9375 L 23.28125,-6.9375 L 24.875,-11.3125 z"
       style="font-size:12px;font-style:normal;font-weight:normal;fill:#000000;fill-opacity:1;stroke:none;stroke-width:1px;stroke-linecap:butt;stroke-linejoin:miter;stroke-opacity:1;font-family:Bitstream Vera Sans" />
    <path
       id="text2170"
       d="M 20.997385,-5.2602428 C 20.986863,-5.2713888 20.975323,-5.2794398 20.962765,-5.2843948 C 20.950546,-5.2899668 20.936969,-5.2927538 20.922035,-5.2927548 C 20.869087,-5.2927538 20.828357,-5.2611708 20.799847,-5.1980068 C 20.771675,-5.1354598 20.75759,-5.0453568 20.75759,-4.9276968 L 20.75759,-4.3796448 L 20.663403,-4.3796448 L 20.663403,-5.4200138 L 20.75759,-5.4200138 L 20.75759,-5.2583858 C 20.777276,-5.3215498 20.802901,-5.3683038 20.834467,-5.3986498 C 20.866032,-5.4296108 20.904385,-5.4450938 20.949528,-5.4450948 C 20.955976,-5.4450938 20.963104,-5.4441638 20.970911,-5.4423078 C 20.978717,-5.4410678 20.987372,-5.4389008 20.996876,-5.4358058 L 20.997385,-5.2602428 M 21.29522,-5.3001858 C 21.244987,-5.3001848 21.205276,-5.2642678 21.176086,-5.1924338 C 21.146897,-5.1212168 21.132302,-5.0233728 21.132302,-4.8989008 C 21.132302,-4.7744278 21.146727,-4.6762738 21.175577,-4.6044388 C 21.204766,-4.5332228 21.244647,-4.4976148 21.29522,-4.4976148 C 21.345114,-4.4976148 21.384655,-4.5335328 21.413845,-4.6053678 C 21.443034,-4.6772028 21.457629,-4.7750468 21.457629,-4.8989008 C 21.457629,-5.0221338 21.443034,-5.1196688 21.413845,-5.1915048 C 21.384655,-5.2639578 21.345114,-5.3001848 21.29522,-5.3001858 M 21.29522,-5.4450948 C 21.376679,-5.4450938 21.440658,-5.3967908 21.487158,-5.3001858 C 21.533657,-5.2035798 21.556907,-5.0698178 21.556908,-4.8989008 C 21.556907,-4.7286018 21.533657,-4.5948398 21.487158,-4.4976148 C 21.440658,-4.4010098 21.376679,-4.3527068 21.29522,-4.3527068 C 21.213421,-4.3527068 21.149272,-4.4010098 21.102773,-4.4976148 C 21.056613,-4.5948398 21.033533,-4.7286018 21.033533,-4.8989008 C 21.033533,-5.0698178 21.056613,-5.2035798 21.102773,-5.3001858 C 21.149272,-5.3967908 21.213421,-5.4450938 21.29522,-5.4450948 M 21.932638,-5.3001858 C 21.882405,-5.3001848 21.842693,-5.2642678 21.813504,-5.1924338 C 21.784314,-5.1212168 21.76972,-5.0233728 21.76972,-4.8989008 C 21.76972,-4.7744278 21.784145,-4.6762738 21.812995,-4.6044388 C 21.842184,-4.5332228 21.882065,-4.4976148 21.932638,-4.4976148 C 21.982531,-4.4976148 22.022073,-4.5335328 22.051263,-4.6053678 C 22.080452,-4.6772028 22.095047,-4.7750468 22.095047,-4.8989008 C 22.095047,-5.0221338 22.080452,-5.1196688 22.051263,-5.1915048 C 22.022073,-5.2639578 21.982531,-5.3001848 21.932638,-5.3001858 M 21.932638,-5.4450948 C 22.014097,-5.4450938 22.078076,-5.3967908 22.124576,-5.3001858 C 22.171075,-5.2035798 22.194325,-5.0698178 22.194325,-4.8989008 C 22.194325,-4.7286018 22.171075,-4.5948398 22.124576,-4.4976148 C 22.078076,-4.4010098 22.014097,-4.3527068 21.932638,-4.3527068 C 21.850839,-4.3527068 21.78669,-4.4010098 21.740191,-4.4976148 C 21.69403,-4.5948398 21.670951,-4.7286018 21.670951,-4.8989008 C 21.670951,-5.0698178 21.69403,-5.2035798 21.740191,-5.3001858 C 21.78669,-5.3967908 21.850839,-5.4450938 21.932638,-5.4450948 M 22.441758,-5.7154048 L 22.441758,-5.4200138 L 22.634714,-5.4200138 L 22.634714,-5.2871818 L 22.441758,-5.2871818 L 22.441758,-4.7224098 C 22.441757,-4.6375698 22.448037,-4.5830738 22.460595,-4.5589228 C 22.473493,-4.5347708 22.499458,-4.5226948 22.538491,-4.5226958 L 22.634714,-4.5226958 L 22.634714,-4.3796448 L 22.538491,-4.3796448 C 22.466195,-4.3796448 22.416302,-4.4041058 22.388809,-4.4530278 C 22.361317,-4.5025698 22.347571,-4.5923628 22.347571,-4.7224098 L 22.347571,-5.2871818 L 22.278839,-5.2871818 L 22.278839,-5.4200138 L 22.347571,-5.4200138 L 22.347571,-5.7154048 L 22.441758,-5.7154048 M 22.865345,-5.6122968 L 22.865345,-5.0911828 L 22.994662,-5.0911828 C 23.042519,-5.0911828 23.079515,-5.1137858 23.10565,-5.1589928 C 23.131784,-5.2041988 23.144852,-5.2686018 23.144852,-5.3522038 C 23.144852,-5.4351848 23.131784,-5.4992788 23.10565,-5.5444868 C 23.079515,-5.5896918 23.042519,-5.6122958 22.994662,-5.6122968 L 22.865345,-5.6122968 M 22.762503,-5.7664938 L 22.994662,-5.7664938 C 23.079854,-5.7664928 23.144173,-5.7311938 23.187618,-5.6605998 C 23.231402,-5.5906208 23.253294,-5.4878228 23.253294,-5.3522038 C 23.253294,-5.2153448 23.231402,-5.1119278 23.187618,-5.0419518 C 23.144173,-4.9719738 23.079854,-4.9369848 22.994662,-4.9369848 L 22.865345,-4.9369848 L 22.865345,-4.3796448 L 22.762503,-4.3796448 L 22.762503,-5.7664938 M 23.600005,-4.9026158 C 23.524316,-4.9026158 23.471876,-4.8868248 23.442687,-4.8552418 C 23.413497,-4.8236588 23.398903,-4.7697828 23.398903,-4.6936138 C 23.398903,-4.6329248 23.409764,-4.5846228 23.431486,-4.5487048 C 23.453548,-4.5134068 23.483416,-4.4957578 23.521092,-4.4957578 C 23.573022,-4.4957578 23.6146,-4.5291978 23.645826,-4.5960788 C 23.677391,-4.6635788 23.693174,-4.7530628 23.693174,-4.8645318 L 23.693174,-4.9026158 L 23.600005,-4.9026158 M 23.786852,-4.9732128 L 23.786852,-4.3796448 L 23.693174,-4.3796448 L 23.693174,-4.5375578 C 23.671791,-4.4743928 23.645147,-4.4276378 23.613242,-4.3972938 C 23.581337,-4.3675688 23.542305,-4.3527068 23.496145,-4.3527068 C 23.437765,-4.3527068 23.391266,-4.3824318 23.356646,-4.4418818 C 23.322365,-4.5019498 23.305225,-4.5821448 23.305225,-4.6824668 C 23.305225,-4.7995078 23.326608,-4.8877538 23.369374,-4.9472038 C 23.412479,-5.0066518 23.476628,-5.0363768 23.561821,-5.0363778 L 23.693174,-5.0363778 L 23.693174,-5.0530978 C 23.693174,-5.1317438 23.678918,-5.1924328 23.650408,-5.2351628 C 23.622236,-5.2785098 23.582525,-5.3001848 23.531274,-5.3001858 C 23.49869,-5.3001848 23.466955,-5.2930628 23.436068,-5.2788208 C 23.405182,-5.2645768 23.375483,-5.2432128 23.346972,-5.2147268 L 23.346972,-5.3726398 C 23.381253,-5.3967908 23.414516,-5.4147498 23.44676,-5.4265158 C 23.479004,-5.4389008 23.5104,-5.4450938 23.540947,-5.4450948 C 23.623424,-5.4450938 23.685028,-5.4060788 23.725758,-5.3280528 C 23.766487,-5.2500248 23.786851,-5.1317438 23.786852,-4.9732128 M 23.980318,-5.8250148 L 24.073996,-5.8250148 L 24.073996,-4.3796448 L 23.980318,-4.3796448 L 23.980318,-5.8250148 M 24.269498,-5.4200138 L 24.363176,-5.4200138 L 24.363176,-4.3796448 L 24.269498,-4.3796448 L 24.269498,-5.4200138 M 24.269498,-5.8250148 L 24.363176,-5.8250148 L 24.363176,-5.6085808 L 24.269498,-5.6085808 L 24.269498,-5.8250148 M 24.848367,-4.8784648 C 24.848366,-4.7899088 24.860416,-4.7202418 24.884514,-4.6694618 C 24.908612,-4.6193008 24.941705,-4.5942208 24.983792,-4.5942208 C 25.02554,-4.5942208 25.058293,-4.6196108 25.082052,-4.6703908 C 25.10615,-4.7211708 25.1182,-4.7905288 25.1182,-4.8784648 C 25.1182,-4.9651618 25.105981,-5.0338998 25.081543,-5.0846808 C 25.057105,-5.1360798 25.024182,-5.1617788 24.982774,-5.1617798 C 24.941705,-5.1617788 24.908951,-5.1363888 24.884514,-5.0856098 C 24.860416,-5.0348288 24.848366,-4.9657808 24.848367,-4.8784648 M 25.125837,-4.6007228 C 25.105472,-4.5530398 25.082052,-4.5177418 25.055578,-4.4948288 C 25.029443,-4.4725348 24.998896,-4.4613878 24.963937,-4.4613878 C 24.905557,-4.4613878 24.85804,-4.4997828 24.821383,-4.5765718 C 24.785066,-4.6539798 24.766907,-4.7546108 24.766907,-4.8784648 C 24.766907,-5.0023178 24.785235,-5.1029478 24.821893,-5.1803578 C 24.858549,-5.2577648 24.905897,-5.2964688 24.963937,-5.2964698 C 24.998896,-5.2964688 25.029613,-5.2847028 25.056087,-5.2611718 C 25.082561,-5.2382578 25.105811,-5.2032698 25.125837,-5.1562058 L 25.125837,-5.2778918 L 25.198641,-5.2778918 L 25.198641,-4.5942208 C 25.248195,-4.6078448 25.286888,-4.6490258 25.31472,-4.7177648 C 25.342891,-4.7871218 25.356976,-4.8766058 25.356977,-4.9862168 C 25.356976,-5.0524788 25.351546,-5.1147148 25.340685,-5.1729258 C 25.330163,-5.2311368 25.314041,-5.2850128 25.292319,-5.3345548 C 25.257019,-5.4156778 25.213914,-5.4776048 25.163003,-5.5203348 C 25.112429,-5.5636828 25.057275,-5.5853568 24.997539,-5.5853588 C 24.955791,-5.5853568 24.91574,-5.5751398 24.877386,-5.5547048 C 24.839032,-5.5348868 24.803564,-5.5051618 24.77098,-5.4655308 C 24.717692,-5.4023638 24.675945,-5.3193818 24.645737,-5.2165848 C 24.615868,-5.1144048 24.600934,-5.0035558 24.600934,-4.8840378 C 24.600934,-4.7855738 24.610608,-4.6933038 24.629954,-4.6072258 C 24.64964,-4.5211468 24.677981,-4.4452868 24.714977,-4.3796448 C 24.750615,-4.3152408 24.791854,-4.2663188 24.838693,-4.2328788 C 24.885532,-4.1988188 24.935595,-4.1817888 24.988884,-4.1817888 C 25.032667,-4.1817888 25.075603,-4.1954128 25.117691,-4.2226608 C 25.160117,-4.2492888 25.19898,-4.2876838 25.234279,-4.3378448 L 25.2801,-4.2347368 C 25.237673,-4.1746678 25.191343,-4.1288418 25.141111,-4.0972588 C 25.091216,-4.0650578 25.040474,-4.0489568 24.988884,-4.0489558 C 24.926092,-4.0489568 24.866864,-4.0693918 24.811201,-4.1102638 C 24.755537,-4.1505158 24.705983,-4.2093468 24.662538,-4.2867548 C 24.619093,-4.3641628 24.586,-4.4536468 24.56326,-4.5552068 C 24.540519,-4.6573858 24.529148,-4.7669968 24.529149,-4.8840378 C 24.529148,-4.9967438 24.540689,-5.1041868 24.563769,-5.2063668 C 24.586849,-5.3085448 24.619772,-5.3983388 24.662538,-5.4757478 C 24.706322,-5.5543938 24.756894,-5.6144628 24.814256,-5.6559548 C 24.871616,-5.6980638 24.932371,-5.7191188 24.99652,-5.7191198 C 25.068476,-5.7191188 25.13517,-5.6921808 25.196605,-5.6383058 C 25.258377,-5.5844278 25.310137,-5.5079488 25.351886,-5.4088668 C 25.377341,-5.3481778 25.396688,-5.2822258 25.409926,-5.2110108 C 25.423501,-5.1397948 25.430289,-5.0661018 25.430291,-4.9899328 C 25.430289,-4.8270648 25.403306,-4.6985678 25.34934,-4.6044388 C 25.295373,-4.5103098 25.220872,-4.4613878 25.125837,-4.4576728 L 25.125837,-4.6007228 M 25.976576,-4.9119048 C 25.976575,-5.0357578 25.96249,-5.1317438 25.934319,-5.1998648 C 25.906487,-5.2679828 25.867285,-5.3020428 25.816712,-5.3020438 C 25.766479,-5.3020428 25.727277,-5.2679828 25.699106,-5.1998648 C 25.671274,-5.1317438 25.657358,-5.0357578 25.657358,-4.9119048 C 25.657358,-4.7886708 25.671274,-4.6929938 25.699106,-4.6248748 C 25.727277,-4.5567548 25.766479,-4.5226948 25.816712,-4.5226958 C 25.867285,-4.5226948 25.906487,-4.5567548 25.934319,-4.6248748 C 25.96249,-4.6929938 25.976575,-4.7886708 25.976576,-4.9119048 M 26.070254,-4.5087618 C 26.070253,-4.3316518 26.048701,-4.2000578 26.005596,-4.1139798 C 25.96249,-4.0272818 25.896474,-3.9839338 25.807548,-3.9839328 C 25.774625,-3.9839338 25.743569,-3.9885778 25.714379,-3.9978668 C 25.68519,-4.0065368 25.656849,-4.0201608 25.629356,-4.0387388 L 25.629356,-4.2050118 C 25.656849,-4.1777638 25.684002,-4.1576378 25.710816,-4.1446328 C 25.737629,-4.1316288 25.764952,-4.1251268 25.792784,-4.1251258 C 25.854217,-4.1251268 25.900208,-4.1545418 25.930755,-4.2133718 C 25.961302,-4.2715828 25.976575,-4.3598288 25.976576,-4.4781088 L 25.976576,-4.5626388 C 25.957229,-4.5013308 25.932452,-4.4555048 25.902245,-4.4251608 C 25.872036,-4.3948168 25.835889,-4.3796448 25.793802,-4.3796448 C 25.723883,-4.3796448 25.66754,-4.4282578 25.624774,-4.5254818 C 25.582008,-4.6227068 25.560625,-4.7515148 25.560625,-4.9119048 C 25.560625,-5.0729138 25.582008,-5.2020308 25.624774,-5.2992568 C 25.66754,-5.3964808 25.723883,-5.4450938 25.793802,-5.4450948 C 25.835889,-5.4450938 25.872036,-5.4299218 25.902245,-5.3995778 C 25.932452,-5.3692328 25.957229,-5.3234068 25.976576,-5.2621008 L 25.976576,-5.4200138 L 26.070254,-5.4200138 L 26.070254,-4.5087618 M 26.707163,-5.2203008 C 26.730582,-5.2970888 26.758583,-5.3537508 26.791167,-5.3902888 C 26.823751,-5.4268248 26.862104,-5.4450938 26.906228,-5.4450948 C 26.965625,-5.4450938 27.011446,-5.4070078 27.043691,-5.3308388 C 27.075934,-5.2552878 27.092056,-5.1475358 27.092057,-5.0075818 L 27.092057,-4.3796448 L 26.99787,-4.3796448 L 26.99787,-5.0020088 C 26.997869,-5.1017098 26.988196,-5.1757118 26.96885,-5.2240158 C 26.949503,-5.2723178 26.919974,-5.2964688 26.880263,-5.2964698 C 26.831727,-5.2964688 26.793373,-5.2670538 26.765202,-5.2082248 C 26.737031,-5.1493928 26.722945,-5.0691988 26.722945,-4.9676398 L 26.722945,-4.3796448 L 26.628758,-4.3796448 L 26.628758,-5.0020088 C 26.628758,-5.1023288 26.619085,-5.1763318 26.599738,-5.2240158 C 26.580392,-5.2723178 26.550523,-5.2964688 26.510133,-5.2964698 C 26.462276,-5.2964688 26.424262,-5.2667448 26.396091,-5.2072958 C 26.367919,-5.1484648 26.353833,-5.0685788 26.353834,-4.9676398 L 26.353834,-4.3796448 L 26.259647,-4.3796448 L 26.259647,-5.4200138 L 26.353834,-5.4200138 L 26.353834,-5.2583858 C 26.375216,-5.3221688 26.400842,-5.3692328 26.430711,-5.3995778 C 26.460579,-5.4299218 26.496047,-5.4450938 26.537117,-5.4450948 C 26.578525,-5.4450938 26.613654,-5.4258958 26.642505,-5.3875028 C 26.671694,-5.3491068 26.693246,-5.2933728 26.707163,-5.2203008 M 27.538555,-4.9026158 C 27.462866,-4.9026158 27.410426,-4.8868248 27.381237,-4.8552418 C 27.352048,-4.8236588 27.337453,-4.7697828 27.337453,-4.6936138 C 27.337453,-4.6329248 27.348314,-4.5846228 27.370037,-4.5487048 C 27.392098,-4.5134068 27.421967,-4.4957578 27.459642,-4.4957578 C 27.511572,-4.4957578 27.55315,-4.5291978 27.584376,-4.5960788 C 27.615941,-4.6635788 27.631724,-4.7530628 27.631724,-4.8645318 L 27.631724,-4.9026158 L 27.538555,-4.9026158 M 27.725402,-4.9732128 L 27.725402,-4.3796448 L 27.631724,-4.3796448 L 27.631724,-4.5375578 C 27.610341,-4.4743928 27.583697,-4.4276378 27.551792,-4.3972938 C 27.519887,-4.3675688 27.480855,-4.3527068 27.434695,-4.3527068 C 27.376316,-4.3527068 27.329816,-4.3824318 27.295196,-4.4418818 C 27.260915,-4.5019498 27.243775,-4.5821448 27.243775,-4.6824668 C 27.243775,-4.7995078 27.265158,-4.8877538 27.307924,-4.9472038 C 27.351029,-5.0066518 27.415178,-5.0363768 27.500371,-5.0363778 L 27.631724,-5.0363778 L 27.631724,-5.0530978 C 27.631724,-5.1317438 27.617468,-5.1924328 27.588958,-5.2351628 C 27.560787,-5.2785098 27.521075,-5.3001848 27.469824,-5.3001858 C 27.43724,-5.3001848 27.405505,-5.2930628 27.374619,-5.2788208 C 27.343732,-5.2645768 27.314033,-5.2432128 27.285523,-5.2147268 L 27.285523,-5.3726398 C 27.319803,-5.3967908 27.353066,-5.4147498 27.38531,-5.4265158 C 27.417554,-5.4389008 27.44895,-5.4450938 27.479497,-5.4450948 C 27.561974,-5.4450938 27.623578,-5.4060788 27.664308,-5.3280528 C 27.705037,-5.2500248 27.725402,-5.1317438 27.725402,-4.9732128 M 27.918868,-5.4200138 L 28.012546,-5.4200138 L 28.012546,-4.3796448 L 27.918868,-4.3796448 L 27.918868,-5.4200138 M 27.918868,-5.8250148 L 28.012546,-5.8250148 L 28.012546,-5.6085808 L 27.918868,-5.6085808 L 27.918868,-5.8250148 M 28.208048,-5.8250148 L 28.301726,-5.8250148 L 28.301726,-4.3796448 L 28.208048,-4.3796448 L 28.208048,-5.8250148 M 28.510465,-4.6155858 L 28.617889,-4.6155858 L 28.617889,-4.3796448 L 28.510465,-4.3796448 L 28.510465,-4.6155858 M 29.239524,-5.3800708 L 29.239524,-5.2203008 C 29.21305,-5.2469278 29.186406,-5.2667448 29.159593,-5.2797498 C 29.133118,-5.2933728 29.106304,-5.3001848 29.079152,-5.3001858 C 29.018396,-5.3001848 28.971218,-5.2648868 28.937616,-5.1942908 C 28.904014,-5.1243128 28.887213,-5.0258498 28.887213,-4.8989008 C 28.887213,-4.7719498 28.904014,-4.6731768 28.937616,-4.6025808 C 28.971218,-4.5326038 29.018396,-4.4976148 29.079152,-4.4976148 C 29.106304,-4.4976148 29.133118,-4.5041178 29.159593,-4.5171218 C 29.186406,-4.5307458 29.21305,-4.5508718 29.239524,-4.5775008 L 29.239524,-4.4195878 C 29.213389,-4.3972938 29.186236,-4.3805738 29.158065,-4.3694268 C 29.130233,-4.3582808 29.100534,-4.3527068 29.068969,-4.3527068 C 28.983097,-4.3527068 28.914875,-4.4019378 28.864303,-4.5004018 C 28.81373,-4.5988648 28.788444,-4.7316978 28.788444,-4.8989008 C 28.788444,-5.0685788 28.8139,-5.2020308 28.864812,-5.2992568 C 28.916063,-5.3964808 28.986152,-5.4450938 29.075079,-5.4450948 C 29.103928,-5.4450938 29.132099,-5.4395198 29.159593,-5.4283738 C 29.187085,-5.4178458 29.213728,-5.4017448 29.239524,-5.3800708 M 29.624419,-5.3001858 C 29.574185,-5.3001848 29.534474,-5.2642678 29.505285,-5.1924338 C 29.476095,-5.1212168 29.4615,-5.0233728 29.461501,-4.8989008 C 29.4615,-4.7744278 29.475925,-4.6762738 29.504776,-4.6044388 C 29.533965,-4.5332228 29.573846,-4.4976148 29.624419,-4.4976148 C 29.674312,-4.4976148 29.713854,-4.5335328 29.743044,-4.6053678 C 29.772233,-4.6772028 29.786828,-4.7750468 29.786828,-4.8989008 C 29.786828,-5.0221338 29.772233,-5.1196688 29.743044,-5.1915048 C 29.713854,-5.2639578 29.674312,-5.3001848 29.624419,-5.3001858 M 29.624419,-5.4450948 C 29.705877,-5.4450938 29.769857,-5.3967908 29.816357,-5.3001858 C 29.862856,-5.2035798 29.886106,-5.0698178 29.886106,-4.8989008 C 29.886106,-4.7286018 29.862856,-4.5948398 29.816357,-4.4976148 C 29.769857,-4.4010098 29.705877,-4.3527068 29.624419,-4.3527068 C 29.54262,-4.3527068 29.478471,-4.4010098 29.431971,-4.4976148 C 29.385811,-4.5948398 29.362731,-4.7286018 29.362731,-4.8989008 C 29.362731,-5.0698178 29.385811,-5.2035798 29.431971,-5.3001858 C 29.478471,-5.3967908 29.54262,-5.4450938 29.624419,-5.4450948 M 30.484831,-5.2203008 C 30.50825,-5.2970888 30.536251,-5.3537508 30.568836,-5.3902888 C 30.601419,-5.4268248 30.639772,-5.4450938 30.683897,-5.4450948 C 30.743293,-5.4450938 30.789114,-5.4070078 30.821359,-5.3308388 C 30.853603,-5.2552878 30.869725,-5.1475358 30.869725,-5.0075818 L 30.869725,-4.3796448 L 30.775538,-4.3796448 L 30.775538,-5.0020088 C 30.775538,-5.1017098 30.765864,-5.1757118 30.746519,-5.2240158 C 30.727171,-5.2723178 30.697642,-5.2964688 30.657932,-5.2964698 C 30.609395,-5.2964688 30.571041,-5.2670538 30.542871,-5.2082248 C 30.514699,-5.1493928 30.500613,-5.0691988 30.500614,-4.9676398 L 30.500614,-4.3796448 L 30.406427,-4.3796448 L 30.406427,-5.0020088 C 30.406426,-5.1023288 30.396753,-5.1763318 30.377407,-5.2240158 C 30.35806,-5.2723178 30.328192,-5.2964688 30.287802,-5.2964698 C 30.239944,-5.2964688 30.20193,-5.2667448 30.173759,-5.2072958 C 30.145587,-5.1484648 30.131502,-5.0685788 30.131502,-4.9676398 L 30.131502,-4.3796448 L 30.037315,-4.3796448 L 30.037315,-5.4200138 L 30.131502,-5.4200138 L 30.131502,-5.2583858 C 30.152885,-5.3221688 30.178511,-5.3692328 30.208379,-5.3995778 C 30.238247,-5.4299218 30.273716,-5.4450938 30.314785,-5.4450948 C 30.356193,-5.4450938 30.391322,-5.4258958 30.420173,-5.3875028 C 30.449362,-5.3491068 30.470915,-5.2933728 30.484831,-5.2203008"
       style="font-size:4px;font-style:normal;font-weight:normal;fill:#d40000;fill-opacity:1;stroke:none;stroke-width:1px;stroke-linecap:butt;stroke-linejoin:miter;stroke-opacity:1;font-family:Bitstream Vera Sans" />
  </g>
  <g
     id="g3293"
     transform="matrix(0.63165466,0,0,0.63165466,85.258889,95.7504)">
    <path
       inkscape:connector-curvature="0"
       style="fill:#ffffff;fill-opacity:1;fill-rule:evenodd;stroke:url(#linearGradient3302);stroke-width:5.5353384;stroke-linecap:butt;stroke-linejoin:miter;stroke-miterlimit:4;stroke-opacity:1"
       d="m 127.64114,26.727939 c -56.336684,0 -102.066094,46.142015 -102.066094,103.003031 0,56.86102 45.72941,103.02038 102.066094,103.02038 56.33669,0 102.06615,-46.15932 102.0661,-103.02038 0,-56.861016 -45.72941,-103.003031 -102.0661,-103.003031 z"
       id="path8494"
       sodipodi:nodetypes="ccccc" />
    <path
       inkscape:connector-curvature="0"
       sodipodi:nodetypes="csssc"
       style="fill:url(#radialGradient3304);fill-opacity:1;fill-rule:evenodd;stroke:#ff0000;stroke-width:5.5353384;stroke-linecap:butt;stroke-linejoin:miter;stroke-miterlimit:4;stroke-opacity:1"
       d="m 127.64114,26.727939 c -56.336684,0 -102.066094,46.142015 -102.066094,103.003031 0,56.86102 45.72941,103.02038 102.066094,103.02038 56.33669,0 102.06615,-46.15932 102.0661,-103.02038 0,-56.861016 -45.72941,-103.003031 -102.0661,-103.003031 z"
       id="path8495" />
    <path
       inkscape:connector-curvature="0"
       style="fill:url(#radialGradient3308);fill-opacity:1;fill-rule:evenodd;stroke:none;stroke-width:0.26240132pt;stroke-linecap:butt;stroke-linejoin:miter;stroke-opacity:1"
       d="M 37.426565,146.97982 C 63.192061,256.51858 197.45784,253.37553 220.72003,146.26338 188.52216,236.15824 71.559614,235.9796 37.426565,146.97982 Z"
       id="path8498"
       sodipodi:nodetypes="ccc" />
    <g
       transform="matrix(1.1471572,0,0,1.1471572,-17.392886,-22.821791)"
       id="g2517">
      <rect
         style="fill:#ffffff;fill-opacity:1;stroke:#000000;stroke-width:5;stroke-linecap:round;stroke-miterlimit:4;stroke-dasharray:none;stroke-opacity:1"
         id="rect2518"
         width="34.597157"
         height="101.4218"
         x="108.5308"
         y="61.687206"
         rx="9.4117575"
         ry="9.4117575" />
      <ellipse
         ry="16.824644"
         rx="17.772512"
         cy="186.56873"
         cx="126.30331"
         style="fill:#ffffff;fill-opacity:1;stroke:#000000;stroke-width:5;stroke-linecap:round;stroke-miterlimit:4;stroke-dasharray:none;stroke-opacity:1"
         id="path2520" />
    </g>
    <circle
       r="163.26007"
       cy="185.68347"
       cx="184.43095"
       style="fill:url(#linearGradient3781);fill-opacity:1;fill-rule:evenodd;stroke:none;stroke-width:8.70720673;stroke-linecap:butt;stroke-linejoin:round;stroke-miterlimit:4;stroke-opacity:1"
       id="path8497"
       transform="matrix(0.4838344,0,0,0.3490052,37.189247,20.175609)" />
  </g>
</svg>
