<?xml version="1.0" encoding="UTF-8" standalone="no"?>
<!-- Created with Inkscape (http://www.inkscape.org/) -->
<svg
   xmlns:dc="http://purl.org/dc/elements/1.1/"
   xmlns:cc="http://web.resource.org/cc/"
   xmlns:rdf="http://www.w3.org/1999/02/22-rdf-syntax-ns#"
   xmlns:svg="http://www.w3.org/2000/svg"
   xmlns="http://www.w3.org/2000/svg"
   xmlns:xlink="http://www.w3.org/1999/xlink"
   xmlns:sodipodi="http://sodipodi.sourceforge.net/DTD/sodipodi-0.dtd"
   xmlns:inkscape="http://www.inkscape.org/namespaces/inkscape"
   id="svg2"
   sodipodi:version="0.32"
   inkscape:version="0.45.1"
   width="280"
   height="280"
   version="1.0"
   sodipodi:docbase="/media/disk-1/aktual-melo"
   sodipodi:docname="nomail.svg"
   inkscape:output_extension="org.inkscape.output.svg.inkscape">
  <metadata
     id="metadata7">
    <rdf:RDF>
      <cc:Work
         rdf:about="">
        <dc:format>image/svg+xml</dc:format>
        <dc:type
           rdf:resource="http://purl.org/dc/dcmitype/StillImage" />
      </cc:Work>
    </rdf:RDF>
  </metadata>
  <defs
     id="defs5">
    <linearGradient
       id="linearGradient3205"
       inkscape:collect="always">
      <stop
         id="stop3207"
         offset="0"
         style="stop-color:#000000;stop-opacity:1" />
      <stop
         id="stop3209"
         offset="1"
         style="stop-color:#ffffff;stop-opacity:0" />
    </linearGradient>
    <linearGradient
       id="linearGradient3195">
      <stop
         id="stop3197"
         offset="0"
         style="stop-color:#ffffff;stop-opacity:1;" />
      <stop
         id="stop3199"
         offset="1"
         style="stop-color:#000000;stop-opacity:0.79365081" />
    </linearGradient>
    <linearGradient
       inkscape:collect="always"
       id="linearGradient3183">
      <stop
         style="stop-color:#000000;stop-opacity:0.73544973"
         offset="0"
         id="stop3185" />
      <stop
         style="stop-color:#000000;stop-opacity:0;"
         offset="1"
         id="stop3187" />
    </linearGradient>
    <linearGradient
       inkscape:collect="always"
       id="linearGradient3151">
      <stop
         style="stop-color:#f5f5f5;stop-opacity:1"
         offset="0"
         id="stop3153" />
      <stop
         style="stop-color:#ae5656;stop-opacity:1"
         offset="1"
         id="stop3155" />
    </linearGradient>
    <linearGradient
       inkscape:collect="always"
       id="linearGradient3143">
      <stop
         style="stop-color:#ffffff;stop-opacity:1"
         offset="0"
         id="stop3145" />
      <stop
         style="stop-color:#ffffff;stop-opacity:0"
         offset="1"
         id="stop3147" />
    </linearGradient>
    <radialGradient
       inkscape:collect="always"
       xlink:href="#linearGradient3143"
       id="radialGradient3149"
       cx="202.95273"
       cy="-3.5267851"
       fx="202.95273"
       fy="-3.5267851"
       r="10.748561"
       gradientTransform="matrix(0.999966,8.2414992e-3,-0.1099748,13.343572,-0.3809648,47.683428)"
       gradientUnits="userSpaceOnUse" />
    <linearGradient
       inkscape:collect="always"
       xlink:href="#linearGradient3151"
       id="linearGradient3157"
       x1="77.420105"
       y1="57.7775"
       x2="225.68636"
       y2="232.97903"
       gradientUnits="userSpaceOnUse" />
    <linearGradient
       inkscape:collect="always"
       xlink:href="#linearGradient3183"
       id="linearGradient3189"
       x1="85.202492"
       y1="79.388199"
       x2="142.881"
       y2="144.95442"
       gradientUnits="userSpaceOnUse" />
    <linearGradient
       inkscape:collect="always"
       xlink:href="#linearGradient3195"
       id="linearGradient3193"
       gradientUnits="userSpaceOnUse"
       x1="85.202492"
       y1="79.388199"
       x2="130.52016"
       y2="125.60701"
       gradientTransform="matrix(-1,0,0,-1,304.9357,291.52113)"
       spreadMethod="reflect" />
    <radialGradient
       inkscape:collect="always"
       xlink:href="#linearGradient3205"
       id="radialGradient3203"
       gradientUnits="userSpaceOnUse"
       gradientTransform="matrix(0.999966,8.2414989e-3,-0.1099748,13.343572,-428.28181,49.334598)"
       cx="202.95273"
       cy="-3.5267851"
       fx="202.95273"
       fy="-3.5267851"
       r="10.748561" />
    <filter
       inkscape:collect="always"
       id="filter4195">
      <feGaussianBlur
         inkscape:collect="always"
         stdDeviation="3.4395393"
         id="feGaussianBlur4197" />
    </filter>
    <linearGradient
       inkscape:collect="always"
       xlink:href="#linearGradient3151"
       id="linearGradient4213"
       gradientUnits="userSpaceOnUse"
       gradientTransform="translate(-25.841292,-16.720836)"
       x1="77.420105"
       y1="57.7775"
       x2="225.68636"
       y2="232.97903" />
    <radialGradient
       inkscape:collect="always"
       xlink:href="#linearGradient3143"
       id="radialGradient4215"
       gradientUnits="userSpaceOnUse"
       gradientTransform="matrix(0.999966,8.2414991e-3,-0.1099748,13.343572,-30.428312,54.355431)"
       cx="202.95273"
       cy="-3.5267851"
       fx="202.95273"
       fy="-3.5267851"
       r="10.748561" />
    <linearGradient
       inkscape:collect="always"
       xlink:href="#linearGradient3183"
       id="linearGradient4217"
       gradientUnits="userSpaceOnUse"
       gradientTransform="translate(-25.841292,-16.720836)"
       x1="85.202492"
       y1="79.388199"
       x2="142.881"
       y2="144.95442" />
    <linearGradient
       inkscape:collect="always"
       xlink:href="#linearGradient3195"
       id="linearGradient4219"
       gradientUnits="userSpaceOnUse"
       gradientTransform="matrix(-1,0,0,-1,279.09441,274.80029)"
       spreadMethod="reflect"
       x1="85.202492"
       y1="79.388199"
       x2="157.39156"
       y2="142.26727" />
    <radialGradient
       inkscape:collect="always"
       xlink:href="#linearGradient3205"
       id="radialGradient4221"
       gradientUnits="userSpaceOnUse"
       gradientTransform="matrix(0.999966,8.2414988e-3,-0.1099748,13.343572,-398.23446,42.662593)"
       cx="202.95273"
       cy="-3.5267851"
       fx="202.95273"
       fy="-3.5267851"
       r="10.748561" />
  </defs>
  <sodipodi:namedview
     inkscape:window-height="742"
     inkscape:window-width="1024"
     inkscape:pageshadow="2"
     inkscape:pageopacity="0.0"
     guidetolerance="10.0"
     gridtolerance="10.0"
     objecttolerance="10.0"
     borderopacity="1.0"
     bordercolor="#666666"
     pagecolor="#ffffff"
     id="base"
     inkscape:zoom="1.3157237"
     inkscape:cx="174.15127"
     inkscape:cy="119.08054"
     inkscape:window-x="0"
     inkscape:window-y="0"
     inkscape:current-layer="svg2" />
  <g
     id="g4200"
     transform="translate(-5.3202696,-0.7600353)">
    <path
       id="path3193"
       d="M 147.5,33.8125 C 83.279849,33.812501 31.125,85.904858 31.125,150.125 C 31.125,185.80721 47.240177,217.7722 72.5625,239.125 L 72.5625,253.96875 C 72.562499,254.45015 72.96788,254.8125 73.46875,254.8125 L 96.625,254.8125 C 111.99526,262.30323 129.26508,266.5 147.5,266.5 C 165.73492,266.5 182.97727,262.30323 198.34375,254.8125 L 275.875,254.8125 C 276.37588,254.81249 276.78125,254.45014 276.78125,253.96875 L 276.78125,115.96875 C 276.78126,115.48736 276.37587,115.09375 275.875,115.09375 L 258.4375,115.09375 C 243.55676,67.990844 199.50529,33.8125 147.5,33.8125 z M 147.5,56.25 C 170.47369,56.249998 191.5225,64.50742 207.84375,78.21875 L 170.4375,115.09375 L 73.46875,115.09375 C 72.967883,115.09375 72.5625,115.48736 72.5625,115.96875 L 72.5625,206.71875 C 60.646646,190.97624 53.5625,171.37157 53.5625,150.125 C 53.562501,98.288798 95.663801,56.25 147.5,56.25 z M 223.25,94.6875 C 227.83822,100.94342 231.64886,107.79413 234.59375,115.09375 L 202.53125,115.09375 L 223.25,94.6875 z "
       style="fill:#000000;fill-opacity:0.34920636;stroke:none;stroke-width:0.2;stroke-linecap:round;stroke-linejoin:round;stroke-miterlimit:4;stroke-opacity:0.79365079;filter:url(#filter4195)" />
    <g
       transform="matrix(1,0,0,-1,-253.12859,282.23351)"
       id="g3186">
      <path
         style="fill:#e6e6e6;fill-opacity:1;stroke:#000000;stroke-width:0.2;stroke-linecap:round;stroke-linejoin:round;stroke-miterlimit:4;stroke-opacity:0.79365079"
         d="M 307.23809,52.13052 L 509.65252,52.13052 C 510.15339,52.13052 510.55663,52.518064 510.55663,52.999454 L 510.55663,190.99286 C 510.55663,191.47425 510.15339,191.8618 509.65252,191.8618 L 307.23809,191.8618 C 306.73722,191.8618 306.33398,191.47425 306.33398,190.99286 L 306.33398,52.999454 C 306.33398,52.518064 306.73722,52.13052 307.23809,52.13052 z "
         id="rect3179" />
      <path
         id="path3182"
         d="M 307.23809,52.13052 L 509.65252,52.13052 C 510.15339,52.13052 510.55663,52.518064 510.55663,52.999454 L 413.28215,132.41321 C 408.44531,136.11916 404.28008,135.43186 400.0172,132.74472 L 306.33398,52.999454 C 306.33398,52.518064 306.73722,52.13052 307.23809,52.13052 z "
         style="fill:#ececec;fill-opacity:1;stroke:#000000;stroke-width:0.2;stroke-linecap:round;stroke-linejoin:round;stroke-miterlimit:4;stroke-opacity:0.79365079"
         sodipodi:nodetypes="ccccccc" />
      <path
         sodipodi:nodetypes="ccccccc"
         style="fill:#ececec;fill-opacity:1;stroke:#000000;stroke-width:0.2;stroke-linecap:round;stroke-linejoin:round;stroke-miterlimit:4;stroke-opacity:0.79365079"
         d="M 306.70066,192.48302 L 509.11509,192.48302 C 509.61596,192.48302 510.0192,192.09548 510.0192,191.61409 L 412.74472,112.20033 C 407.90788,108.49438 403.74265,109.18168 399.47977,111.86882 L 305.79655,191.61409 C 305.79655,192.09548 306.19979,192.48302 306.70066,192.48302 z "
         id="path3184" />
    </g>
    <path
       style="fill:#000000;fill-opacity:0.48677248;fill-rule:evenodd;stroke:none;stroke-width:1.02410328px;stroke-linecap:butt;stroke-linejoin:miter;stroke-opacity:1"
       d="M 126.53401,16.610254 C 64.093732,16.610254 13.396048,67.276086 13.396048,129.71636 C 13.396048,192.15664 64.093732,242.85431 126.53401,242.85432 C 188.97429,242.85432 239.64013,192.15664 239.64012,129.71636 C 239.64012,67.276086 188.97429,16.610254 126.53401,16.610254 z M 126.53401,38.428808 C 148.87098,38.428808 169.33632,46.470116 185.20522,59.801434 L 55.759079,187.36831 C 42.927711,171.64024 35.214602,151.57699 35.214602,129.71636 C 35.214602,79.316806 76.134458,38.428808 126.53401,38.428808 z M 200.17561,75.791091 C 211.25801,90.901654 217.82157,109.55019 217.82157,129.71636 C 217.82157,180.11591 176.93357,221.03577 126.53401,221.03577 C 105.88851,221.03577 86.828718,214.16527 71.525771,202.59352 L 200.17561,75.791091 z "
       id="path3159" />
    <path
       id="path2161"
       d="M 126.53371,18.747914 C 65.273361,18.747914 15.533708,68.456317 15.533708,129.71666 C 15.533708,190.97701 65.273361,240.71665 126.53371,240.71666 C 187.79406,240.71666 237.50247,190.97701 237.50246,129.71666 C 237.50246,68.456317 187.79406,18.747914 126.53371,18.747914 z M 126.53371,40.154164 C 148.44858,40.154164 168.52718,48.043516 184.09621,61.122914 L 57.096208,186.27916 C 44.507313,170.84831 36.939958,151.16419 36.939958,129.71666 C 36.939958,80.269505 77.086548,40.154164 126.53371,40.154164 z M 198.78371,76.810414 C 209.65669,91.635434 216.09621,109.93157 216.09621,129.71666 C 216.09621,179.16382 175.98087,219.31041 126.53371,219.31041 C 106.27834,219.31041 87.578728,212.56974 72.564958,201.21666 L 198.78371,76.810414 z "
       style="fill:#ff0000;fill-rule:evenodd;stroke:url(#linearGradient4213);stroke-width:1px;stroke-linecap:butt;stroke-linejoin:miter;stroke-opacity:1" />
    <rect
       style="fill:url(#radialGradient4215);fill-opacity:1;fill-rule:evenodd;stroke:none;stroke-width:1px;stroke-linecap:butt;stroke-linejoin:miter;stroke-opacity:1"
       id="rect2168"
       width="21.497122"
       height="195.62379"
       x="173.12918"
       y="-95.385559"
       transform="matrix(0.7018469,0.7123278,-0.7123278,0.7018469,0,0)" />
    <path
       sodipodi:nodetypes="cc"
       id="path3181"
       d="M 57.460052,185.3521 C -15.58376,89.519434 107.24176,-2.314894 183.75564,60.668799"
       style="fill:none;fill-rule:evenodd;stroke:url(#linearGradient4217);stroke-width:2;stroke-linecap:round;stroke-linejoin:round;stroke-miterlimit:4;stroke-dasharray:none;stroke-opacity:1" />
    <path
       style="fill:none;fill-rule:evenodd;stroke:url(#linearGradient4219);stroke-width:2;stroke-linecap:round;stroke-linejoin:round;stroke-miterlimit:4;stroke-dasharray:none;stroke-opacity:1"
       d="M 199.55506,78.101633 C 262.38774,173.9343 144.9365,259.31949 74.334328,202.24751"
       id="path3191"
       sodipodi:nodetypes="cc" />
    <rect
       transform="matrix(-0.7018469,-0.7123278,0.7123278,-0.7018469,0,0)"
       y="-107.07839"
       x="-194.67699"
       height="195.62379"
       width="21.497122"
       id="rect3201"
       style="fill:url(#radialGradient4221);fill-opacity:1;fill-rule:evenodd;stroke:none;stroke-width:1px;stroke-linecap:butt;stroke-linejoin:miter;stroke-opacity:1" />
  </g>
  <g
     id="layer1"
     inkscape:label="1. réteg"
     transform="translate(0.8469234,-1.2193802)">
    <path
       sodipodi:nodetypes="ccccccccccccccccccc"
       id="text2159"
       d="M 24.21875,-12.46875 L 20.875,-3.71875 L 22.125,-3.71875 L 22.9375,-5.96875 L 26.875,-5.96875 L 27.65625,-3.75 L 27.65625,-3.71875 L 28.90625,-3.71875 L 28.112945,-5.9820422 C 32.228496,-5.9032637 31.758745,-12.572757 28.323088,-12.5 L 24.21875,-12.46875 z M 26.123534,-11.409449 L 27.714084,-11.409449 C 30.668411,-11.482325 30.846223,-6.8936801 27.747543,-6.9913924 L 26.123534,-11.409449 z M 24.875,-11.3125 L 26.5,-6.9375 L 23.28125,-6.9375 L 24.875,-11.3125 z "
       style="font-size:12px;font-style:normal;font-weight:normal;fill:#000000;fill-opacity:1;stroke:none;stroke-width:1px;stroke-linecap:butt;stroke-linejoin:miter;stroke-opacity:1;font-family:Bitstream Vera Sans" />
    <path
       id="text2170"
       d="M 20.997385,-5.2602428 C 20.986863,-5.2713888 20.975323,-5.2794398 20.962765,-5.2843948 C 20.950546,-5.2899668 20.936969,-5.2927538 20.922035,-5.2927548 C 20.869087,-5.2927538 20.828357,-5.2611708 20.799847,-5.1980068 C 20.771675,-5.1354598 20.75759,-5.0453568 20.75759,-4.9276968 L 20.75759,-4.3796448 L 20.663403,-4.3796448 L 20.663403,-5.4200138 L 20.75759,-5.4200138 L 20.75759,-5.2583858 C 20.777276,-5.3215498 20.802901,-5.3683038 20.834467,-5.3986498 C 20.866032,-5.4296108 20.904385,-5.4450938 20.949528,-5.4450948 C 20.955976,-5.4450938 20.963104,-5.4441638 20.970911,-5.4423078 C 20.978717,-5.4410678 20.987372,-5.4389008 20.996876,-5.4358058 L 20.997385,-5.2602428 M 21.29522,-5.3001858 C 21.244987,-5.3001848 21.205276,-5.2642678 21.176086,-5.1924338 C 21.146897,-5.1212168 21.132302,-5.0233728 21.132302,-4.8989008 C 21.132302,-4.7744278 21.146727,-4.6762738 21.175577,-4.6044388 C 21.204766,-4.5332228 21.244647,-4.4976148 21.29522,-4.4976148 C 21.345114,-4.4976148 21.384655,-4.5335328 21.413845,-4.6053678 C 21.443034,-4.6772028 21.457629,-4.7750468 21.457629,-4.8989008 C 21.457629,-5.0221338 21.443034,-5.1196688 21.413845,-5.1915048 C 21.384655,-5.2639578 21.345114,-5.3001848 21.29522,-5.3001858 M 21.29522,-5.4450948 C 21.376679,-5.4450938 21.440658,-5.3967908 21.487158,-5.3001858 C 21.533657,-5.2035798 21.556907,-5.0698178 21.556908,-4.8989008 C 21.556907,-4.7286018 21.533657,-4.5948398 21.487158,-4.4976148 C 21.440658,-4.4010098 21.376679,-4.3527068 21.29522,-4.3527068 C 21.213421,-4.3527068 21.149272,-4.4010098 21.102773,-4.4976148 C 21.056613,-4.5948398 21.033533,-4.7286018 21.033533,-4.8989008 C 21.033533,-5.0698178 21.056613,-5.2035798 21.102773,-5.3001858 C 21.149272,-5.3967908 21.213421,-5.4450938 21.29522,-5.4450948 M 21.932638,-5.3001858 C 21.882405,-5.3001848 21.842693,-5.2642678 21.813504,-5.1924338 C 21.784314,-5.1212168 21.76972,-5.0233728 21.76972,-4.8989008 C 21.76972,-4.7744278 21.784145,-4.6762738 21.812995,-4.6044388 C 21.842184,-4.5332228 21.882065,-4.4976148 21.932638,-4.4976148 C 21.982531,-4.4976148 22.022073,-4.5335328 22.051263,-4.6053678 C 22.080452,-4.6772028 22.095047,-4.7750468 22.095047,-4.8989008 C 22.095047,-5.0221338 22.080452,-5.1196688 22.051263,-5.1915048 C 22.022073,-5.2639578 21.982531,-5.3001848 21.932638,-5.3001858 M 21.932638,-5.4450948 C 22.014097,-5.4450938 22.078076,-5.3967908 22.124576,-5.3001858 C 22.171075,-5.2035798 22.194325,-5.0698178 22.194325,-4.8989008 C 22.194325,-4.7286018 22.171075,-4.5948398 22.124576,-4.4976148 C 22.078076,-4.4010098 22.014097,-4.3527068 21.932638,-4.3527068 C 21.850839,-4.3527068 21.78669,-4.4010098 21.740191,-4.4976148 C 21.69403,-4.5948398 21.670951,-4.7286018 21.670951,-4.8989008 C 21.670951,-5.0698178 21.69403,-5.2035798 21.740191,-5.3001858 C 21.78669,-5.3967908 21.850839,-5.4450938 21.932638,-5.4450948 M 22.441758,-5.7154048 L 22.441758,-5.4200138 L 22.634714,-5.4200138 L 22.634714,-5.2871818 L 22.441758,-5.2871818 L 22.441758,-4.7224098 C 22.441757,-4.6375698 22.448037,-4.5830738 22.460595,-4.5589228 C 22.473493,-4.5347708 22.499458,-4.5226948 22.538491,-4.5226958 L 22.634714,-4.5226958 L 22.634714,-4.3796448 L 22.538491,-4.3796448 C 22.466195,-4.3796448 22.416302,-4.4041058 22.388809,-4.4530278 C 22.361317,-4.5025698 22.347571,-4.5923628 22.347571,-4.7224098 L 22.347571,-5.2871818 L 22.278839,-5.2871818 L 22.278839,-5.4200138 L 22.347571,-5.4200138 L 22.347571,-5.7154048 L 22.441758,-5.7154048 M 22.865345,-5.6122968 L 22.865345,-5.0911828 L 22.994662,-5.0911828 C 23.042519,-5.0911828 23.079515,-5.1137858 23.10565,-5.1589928 C 23.131784,-5.2041988 23.144852,-5.2686018 23.144852,-5.3522038 C 23.144852,-5.4351848 23.131784,-5.4992788 23.10565,-5.5444868 C 23.079515,-5.5896918 23.042519,-5.6122958 22.994662,-5.6122968 L 22.865345,-5.6122968 M 22.762503,-5.7664938 L 22.994662,-5.7664938 C 23.079854,-5.7664928 23.144173,-5.7311938 23.187618,-5.6605998 C 23.231402,-5.5906208 23.253294,-5.4878228 23.253294,-5.3522038 C 23.253294,-5.2153448 23.231402,-5.1119278 23.187618,-5.0419518 C 23.144173,-4.9719738 23.079854,-4.9369848 22.994662,-4.9369848 L 22.865345,-4.9369848 L 22.865345,-4.3796448 L 22.762503,-4.3796448 L 22.762503,-5.7664938 M 23.600005,-4.9026158 C 23.524316,-4.9026158 23.471876,-4.8868248 23.442687,-4.8552418 C 23.413497,-4.8236588 23.398903,-4.7697828 23.398903,-4.6936138 C 23.398903,-4.6329248 23.409764,-4.5846228 23.431486,-4.5487048 C 23.453548,-4.5134068 23.483416,-4.4957578 23.521092,-4.4957578 C 23.573022,-4.4957578 23.6146,-4.5291978 23.645826,-4.5960788 C 23.677391,-4.6635788 23.693174,-4.7530628 23.693174,-4.8645318 L 23.693174,-4.9026158 L 23.600005,-4.9026158 M 23.786852,-4.9732128 L 23.786852,-4.3796448 L 23.693174,-4.3796448 L 23.693174,-4.5375578 C 23.671791,-4.4743928 23.645147,-4.4276378 23.613242,-4.3972938 C 23.581337,-4.3675688 23.542305,-4.3527068 23.496145,-4.3527068 C 23.437765,-4.3527068 23.391266,-4.3824318 23.356646,-4.4418818 C 23.322365,-4.5019498 23.305225,-4.5821448 23.305225,-4.6824668 C 23.305225,-4.7995078 23.326608,-4.8877538 23.369374,-4.9472038 C 23.412479,-5.0066518 23.476628,-5.0363768 23.561821,-5.0363778 L 23.693174,-5.0363778 L 23.693174,-5.0530978 C 23.693174,-5.1317438 23.678918,-5.1924328 23.650408,-5.2351628 C 23.622236,-5.2785098 23.582525,-5.3001848 23.531274,-5.3001858 C 23.49869,-5.3001848 23.466955,-5.2930628 23.436068,-5.2788208 C 23.405182,-5.2645768 23.375483,-5.2432128 23.346972,-5.2147268 L 23.346972,-5.3726398 C 23.381253,-5.3967908 23.414516,-5.4147498 23.44676,-5.4265158 C 23.479004,-5.4389008 23.5104,-5.4450938 23.540947,-5.4450948 C 23.623424,-5.4450938 23.685028,-5.4060788 23.725758,-5.3280528 C 23.766487,-5.2500248 23.786851,-5.1317438 23.786852,-4.9732128 M 23.980318,-5.8250148 L 24.073996,-5.8250148 L 24.073996,-4.3796448 L 23.980318,-4.3796448 L 23.980318,-5.8250148 M 24.269498,-5.4200138 L 24.363176,-5.4200138 L 24.363176,-4.3796448 L 24.269498,-4.3796448 L 24.269498,-5.4200138 M 24.269498,-5.8250148 L 24.363176,-5.8250148 L 24.363176,-5.6085808 L 24.269498,-5.6085808 L 24.269498,-5.8250148 M 24.848367,-4.8784648 C 24.848366,-4.7899088 24.860416,-4.7202418 24.884514,-4.6694618 C 24.908612,-4.6193008 24.941705,-4.5942208 24.983792,-4.5942208 C 25.02554,-4.5942208 25.058293,-4.6196108 25.082052,-4.6703908 C 25.10615,-4.7211708 25.1182,-4.7905288 25.1182,-4.8784648 C 25.1182,-4.9651618 25.105981,-5.0338998 25.081543,-5.0846808 C 25.057105,-5.1360798 25.024182,-5.1617788 24.982774,-5.1617798 C 24.941705,-5.1617788 24.908951,-5.1363888 24.884514,-5.0856098 C 24.860416,-5.0348288 24.848366,-4.9657808 24.848367,-4.8784648 M 25.125837,-4.6007228 C 25.105472,-4.5530398 25.082052,-4.5177418 25.055578,-4.4948288 C 25.029443,-4.4725348 24.998896,-4.4613878 24.963937,-4.4613878 C 24.905557,-4.4613878 24.85804,-4.4997828 24.821383,-4.5765718 C 24.785066,-4.6539798 24.766907,-4.7546108 24.766907,-4.8784648 C 24.766907,-5.0023178 24.785235,-5.1029478 24.821893,-5.1803578 C 24.858549,-5.2577648 24.905897,-5.2964688 24.963937,-5.2964698 C 24.998896,-5.2964688 25.029613,-5.2847028 25.056087,-5.2611718 C 25.082561,-5.2382578 25.105811,-5.2032698 25.125837,-5.1562058 L 25.125837,-5.2778918 L 25.198641,-5.2778918 L 25.198641,-4.5942208 C 25.248195,-4.6078448 25.286888,-4.6490258 25.31472,-4.7177648 C 25.342891,-4.7871218 25.356976,-4.8766058 25.356977,-4.9862168 C 25.356976,-5.0524788 25.351546,-5.1147148 25.340685,-5.1729258 C 25.330163,-5.2311368 25.314041,-5.2850128 25.292319,-5.3345548 C 25.257019,-5.4156778 25.213914,-5.4776048 25.163003,-5.5203348 C 25.112429,-5.5636828 25.057275,-5.5853568 24.997539,-5.5853588 C 24.955791,-5.5853568 24.91574,-5.5751398 24.877386,-5.5547048 C 24.839032,-5.5348868 24.803564,-5.5051618 24.77098,-5.4655308 C 24.717692,-5.4023638 24.675945,-5.3193818 24.645737,-5.2165848 C 24.615868,-5.1144048 24.600934,-5.0035558 24.600934,-4.8840378 C 24.600934,-4.7855738 24.610608,-4.6933038 24.629954,-4.6072258 C 24.64964,-4.5211468 24.677981,-4.4452868 24.714977,-4.3796448 C 24.750615,-4.3152408 24.791854,-4.2663188 24.838693,-4.2328788 C 24.885532,-4.1988188 24.935595,-4.1817888 24.988884,-4.1817888 C 25.032667,-4.1817888 25.075603,-4.1954128 25.117691,-4.2226608 C 25.160117,-4.2492888 25.19898,-4.2876838 25.234279,-4.3378448 L 25.2801,-4.2347368 C 25.237673,-4.1746678 25.191343,-4.1288418 25.141111,-4.0972588 C 25.091216,-4.0650578 25.040474,-4.0489568 24.988884,-4.0489558 C 24.926092,-4.0489568 24.866864,-4.0693918 24.811201,-4.1102638 C 24.755537,-4.1505158 24.705983,-4.2093468 24.662538,-4.2867548 C 24.619093,-4.3641628 24.586,-4.4536468 24.56326,-4.5552068 C 24.540519,-4.6573858 24.529148,-4.7669968 24.529149,-4.8840378 C 24.529148,-4.9967438 24.540689,-5.1041868 24.563769,-5.2063668 C 24.586849,-5.3085448 24.619772,-5.3983388 24.662538,-5.4757478 C 24.706322,-5.5543938 24.756894,-5.6144628 24.814256,-5.6559548 C 24.871616,-5.6980638 24.932371,-5.7191188 24.99652,-5.7191198 C 25.068476,-5.7191188 25.13517,-5.6921808 25.196605,-5.6383058 C 25.258377,-5.5844278 25.310137,-5.5079488 25.351886,-5.4088668 C 25.377341,-5.3481778 25.396688,-5.2822258 25.409926,-5.2110108 C 25.423501,-5.1397948 25.430289,-5.0661018 25.430291,-4.9899328 C 25.430289,-4.8270648 25.403306,-4.6985678 25.34934,-4.6044388 C 25.295373,-4.5103098 25.220872,-4.4613878 25.125837,-4.4576728 L 25.125837,-4.6007228 M 25.976576,-4.9119048 C 25.976575,-5.0357578 25.96249,-5.1317438 25.934319,-5.1998648 C 25.906487,-5.2679828 25.867285,-5.3020428 25.816712,-5.3020438 C 25.766479,-5.3020428 25.727277,-5.2679828 25.699106,-5.1998648 C 25.671274,-5.1317438 25.657358,-5.0357578 25.657358,-4.9119048 C 25.657358,-4.7886708 25.671274,-4.6929938 25.699106,-4.6248748 C 25.727277,-4.5567548 25.766479,-4.5226948 25.816712,-4.5226958 C 25.867285,-4.5226948 25.906487,-4.5567548 25.934319,-4.6248748 C 25.96249,-4.6929938 25.976575,-4.7886708 25.976576,-4.9119048 M 26.070254,-4.5087618 C 26.070253,-4.3316518 26.048701,-4.2000578 26.005596,-4.1139798 C 25.96249,-4.0272818 25.896474,-3.9839338 25.807548,-3.9839328 C 25.774625,-3.9839338 25.743569,-3.9885778 25.714379,-3.9978668 C 25.68519,-4.0065368 25.656849,-4.0201608 25.629356,-4.0387388 L 25.629356,-4.2050118 C 25.656849,-4.1777638 25.684002,-4.1576378 25.710816,-4.1446328 C 25.737629,-4.1316288 25.764952,-4.1251268 25.792784,-4.1251258 C 25.854217,-4.1251268 25.900208,-4.1545418 25.930755,-4.2133718 C 25.961302,-4.2715828 25.976575,-4.3598288 25.976576,-4.4781088 L 25.976576,-4.5626388 C 25.957229,-4.5013308 25.932452,-4.4555048 25.902245,-4.4251608 C 25.872036,-4.3948168 25.835889,-4.3796448 25.793802,-4.3796448 C 25.723883,-4.3796448 25.66754,-4.4282578 25.624774,-4.5254818 C 25.582008,-4.6227068 25.560625,-4.7515148 25.560625,-4.9119048 C 25.560625,-5.0729138 25.582008,-5.2020308 25.624774,-5.2992568 C 25.66754,-5.3964808 25.723883,-5.4450938 25.793802,-5.4450948 C 25.835889,-5.4450938 25.872036,-5.4299218 25.902245,-5.3995778 C 25.932452,-5.3692328 25.957229,-5.3234068 25.976576,-5.2621008 L 25.976576,-5.4200138 L 26.070254,-5.4200138 L 26.070254,-4.5087618 M 26.707163,-5.2203008 C 26.730582,-5.2970888 26.758583,-5.3537508 26.791167,-5.3902888 C 26.823751,-5.4268248 26.862104,-5.4450938 26.906228,-5.4450948 C 26.965625,-5.4450938 27.011446,-5.4070078 27.043691,-5.3308388 C 27.075934,-5.2552878 27.092056,-5.1475358 27.092057,-5.0075818 L 27.092057,-4.3796448 L 26.99787,-4.3796448 L 26.99787,-5.0020088 C 26.997869,-5.1017098 26.988196,-5.1757118 26.96885,-5.2240158 C 26.949503,-5.2723178 26.919974,-5.2964688 26.880263,-5.2964698 C 26.831727,-5.2964688 26.793373,-5.2670538 26.765202,-5.2082248 C 26.737031,-5.1493928 26.722945,-5.0691988 26.722945,-4.9676398 L 26.722945,-4.3796448 L 26.628758,-4.3796448 L 26.628758,-5.0020088 C 26.628758,-5.1023288 26.619085,-5.1763318 26.599738,-5.2240158 C 26.580392,-5.2723178 26.550523,-5.2964688 26.510133,-5.2964698 C 26.462276,-5.2964688 26.424262,-5.2667448 26.396091,-5.2072958 C 26.367919,-5.1484648 26.353833,-5.0685788 26.353834,-4.9676398 L 26.353834,-4.3796448 L 26.259647,-4.3796448 L 26.259647,-5.4200138 L 26.353834,-5.4200138 L 26.353834,-5.2583858 C 26.375216,-5.3221688 26.400842,-5.3692328 26.430711,-5.3995778 C 26.460579,-5.4299218 26.496047,-5.4450938 26.537117,-5.4450948 C 26.578525,-5.4450938 26.613654,-5.4258958 26.642505,-5.3875028 C 26.671694,-5.3491068 26.693246,-5.2933728 26.707163,-5.2203008 M 27.538555,-4.9026158 C 27.462866,-4.9026158 27.410426,-4.8868248 27.381237,-4.8552418 C 27.352048,-4.8236588 27.337453,-4.7697828 27.337453,-4.6936138 C 27.337453,-4.6329248 27.348314,-4.5846228 27.370037,-4.5487048 C 27.392098,-4.5134068 27.421967,-4.4957578 27.459642,-4.4957578 C 27.511572,-4.4957578 27.55315,-4.5291978 27.584376,-4.5960788 C 27.615941,-4.6635788 27.631724,-4.7530628 27.631724,-4.8645318 L 27.631724,-4.9026158 L 27.538555,-4.9026158 M 27.725402,-4.9732128 L 27.725402,-4.3796448 L 27.631724,-4.3796448 L 27.631724,-4.5375578 C 27.610341,-4.4743928 27.583697,-4.4276378 27.551792,-4.3972938 C 27.519887,-4.3675688 27.480855,-4.3527068 27.434695,-4.3527068 C 27.376316,-4.3527068 27.329816,-4.3824318 27.295196,-4.4418818 C 27.260915,-4.5019498 27.243775,-4.5821448 27.243775,-4.6824668 C 27.243775,-4.7995078 27.265158,-4.8877538 27.307924,-4.9472038 C 27.351029,-5.0066518 27.415178,-5.0363768 27.500371,-5.0363778 L 27.631724,-5.0363778 L 27.631724,-5.0530978 C 27.631724,-5.1317438 27.617468,-5.1924328 27.588958,-5.2351628 C 27.560787,-5.2785098 27.521075,-5.3001848 27.469824,-5.3001858 C 27.43724,-5.3001848 27.405505,-5.2930628 27.374619,-5.2788208 C 27.343732,-5.2645768 27.314033,-5.2432128 27.285523,-5.2147268 L 27.285523,-5.3726398 C 27.319803,-5.3967908 27.353066,-5.4147498 27.38531,-5.4265158 C 27.417554,-5.4389008 27.44895,-5.4450938 27.479497,-5.4450948 C 27.561974,-5.4450938 27.623578,-5.4060788 27.664308,-5.3280528 C 27.705037,-5.2500248 27.725402,-5.1317438 27.725402,-4.9732128 M 27.918868,-5.4200138 L 28.012546,-5.4200138 L 28.012546,-4.3796448 L 27.918868,-4.3796448 L 27.918868,-5.4200138 M 27.918868,-5.8250148 L 28.012546,-5.8250148 L 28.012546,-5.6085808 L 27.918868,-5.6085808 L 27.918868,-5.8250148 M 28.208048,-5.8250148 L 28.301726,-5.8250148 L 28.301726,-4.3796448 L 28.208048,-4.3796448 L 28.208048,-5.8250148 M 28.510465,-4.6155858 L 28.617889,-4.6155858 L 28.617889,-4.3796448 L 28.510465,-4.3796448 L 28.510465,-4.6155858 M 29.239524,-5.3800708 L 29.239524,-5.2203008 C 29.21305,-5.2469278 29.186406,-5.2667448 29.159593,-5.2797498 C 29.133118,-5.2933728 29.106304,-5.3001848 29.079152,-5.3001858 C 29.018396,-5.3001848 28.971218,-5.2648868 28.937616,-5.1942908 C 28.904014,-5.1243128 28.887213,-5.0258498 28.887213,-4.8989008 C 28.887213,-4.7719498 28.904014,-4.6731768 28.937616,-4.6025808 C 28.971218,-4.5326038 29.018396,-4.4976148 29.079152,-4.4976148 C 29.106304,-4.4976148 29.133118,-4.5041178 29.159593,-4.5171218 C 29.186406,-4.5307458 29.21305,-4.5508718 29.239524,-4.5775008 L 29.239524,-4.4195878 C 29.213389,-4.3972938 29.186236,-4.3805738 29.158065,-4.3694268 C 29.130233,-4.3582808 29.100534,-4.3527068 29.068969,-4.3527068 C 28.983097,-4.3527068 28.914875,-4.4019378 28.864303,-4.5004018 C 28.81373,-4.5988648 28.788444,-4.7316978 28.788444,-4.8989008 C 28.788444,-5.0685788 28.8139,-5.2020308 28.864812,-5.2992568 C 28.916063,-5.3964808 28.986152,-5.4450938 29.075079,-5.4450948 C 29.103928,-5.4450938 29.132099,-5.4395198 29.159593,-5.4283738 C 29.187085,-5.4178458 29.213728,-5.4017448 29.239524,-5.3800708 M 29.624419,-5.3001858 C 29.574185,-5.3001848 29.534474,-5.2642678 29.505285,-5.1924338 C 29.476095,-5.1212168 29.4615,-5.0233728 29.461501,-4.8989008 C 29.4615,-4.7744278 29.475925,-4.6762738 29.504776,-4.6044388 C 29.533965,-4.5332228 29.573846,-4.4976148 29.624419,-4.4976148 C 29.674312,-4.4976148 29.713854,-4.5335328 29.743044,-4.6053678 C 29.772233,-4.6772028 29.786828,-4.7750468 29.786828,-4.8989008 C 29.786828,-5.0221338 29.772233,-5.1196688 29.743044,-5.1915048 C 29.713854,-5.2639578 29.674312,-5.3001848 29.624419,-5.3001858 M 29.624419,-5.4450948 C 29.705877,-5.4450938 29.769857,-5.3967908 29.816357,-5.3001858 C 29.862856,-5.2035798 29.886106,-5.0698178 29.886106,-4.8989008 C 29.886106,-4.7286018 29.862856,-4.5948398 29.816357,-4.4976148 C 29.769857,-4.4010098 29.705877,-4.3527068 29.624419,-4.3527068 C 29.54262,-4.3527068 29.478471,-4.4010098 29.431971,-4.4976148 C 29.385811,-4.5948398 29.362731,-4.7286018 29.362731,-4.8989008 C 29.362731,-5.0698178 29.385811,-5.2035798 29.431971,-5.3001858 C 29.478471,-5.3967908 29.54262,-5.4450938 29.624419,-5.4450948 M 30.484831,-5.2203008 C 30.50825,-5.2970888 30.536251,-5.3537508 30.568836,-5.3902888 C 30.601419,-5.4268248 30.639772,-5.4450938 30.683897,-5.4450948 C 30.743293,-5.4450938 30.789114,-5.4070078 30.821359,-5.3308388 C 30.853603,-5.2552878 30.869725,-5.1475358 30.869725,-5.0075818 L 30.869725,-4.3796448 L 30.775538,-4.3796448 L 30.775538,-5.0020088 C 30.775538,-5.1017098 30.765864,-5.1757118 30.746519,-5.2240158 C 30.727171,-5.2723178 30.697642,-5.2964688 30.657932,-5.2964698 C 30.609395,-5.2964688 30.571041,-5.2670538 30.542871,-5.2082248 C 30.514699,-5.1493928 30.500613,-5.0691988 30.500614,-4.9676398 L 30.500614,-4.3796448 L 30.406427,-4.3796448 L 30.406427,-5.0020088 C 30.406426,-5.1023288 30.396753,-5.1763318 30.377407,-5.2240158 C 30.35806,-5.2723178 30.328192,-5.2964688 30.287802,-5.2964698 C 30.239944,-5.2964688 30.20193,-5.2667448 30.173759,-5.2072958 C 30.145587,-5.1484648 30.131502,-5.0685788 30.131502,-4.9676398 L 30.131502,-4.3796448 L 30.037315,-4.3796448 L 30.037315,-5.4200138 L 30.131502,-5.4200138 L 30.131502,-5.2583858 C 30.152885,-5.3221688 30.178511,-5.3692328 30.208379,-5.3995778 C 30.238247,-5.4299218 30.273716,-5.4450938 30.314785,-5.4450948 C 30.356193,-5.4450938 30.391322,-5.4258958 30.420173,-5.3875028 C 30.449362,-5.3491068 30.470915,-5.2933728 30.484831,-5.2203008"
       style="font-size:4px;font-style:normal;font-weight:normal;fill:#d40000;fill-opacity:1;stroke:none;stroke-width:1px;stroke-linecap:butt;stroke-linejoin:miter;stroke-opacity:1;font-family:Bitstream Vera Sans" />
  </g>
</svg>
