<?xml version="1.0" encoding="UTF-8" standalone="no"?>
<!-- Created with Inkscape (http://www.inkscape.org/) -->
<svg
   xmlns:dc="http://purl.org/dc/elements/1.1/"
   xmlns:cc="http://creativecommons.org/ns#"
   xmlns:rdf="http://www.w3.org/1999/02/22-rdf-syntax-ns#"
   xmlns:svg="http://www.w3.org/2000/svg"
   xmlns="http://www.w3.org/2000/svg"
   xmlns:xlink="http://www.w3.org/1999/xlink"
   xmlns:sodipodi="http://sodipodi.sourceforge.net/DTD/sodipodi-0.dtd"
   xmlns:inkscape="http://www.inkscape.org/namespaces/inkscape"
   width="256"
   height="256"
   id="svg2"
   sodipodi:version="0.32"
   inkscape:version="0.46"
   version="1.0"
   sodipodi:docbase="/home/dobey/Projects/gnome-icon-theme/scalable/status"
   sodipodi:docname="software-update-urgent.svg"
   inkscape:output_extension="org.inkscape.output.svg.inkscape">
  <defs
     id="defs4">
    <inkscape:perspective
       sodipodi:type="inkscape:persp3d"
       inkscape:vp_x="0 : 24 : 1"
       inkscape:vp_y="0 : 1000 : 0"
       inkscape:vp_z="48 : 24 : 1"
       inkscape:persp3d-origin="24 : 16 : 1"
       id="perspective34" />
    <linearGradient
       id="linearGradient6372"
       inkscape:collect="always">
      <stop
         id="stop6374"
         offset="0"
         style="stop-color:#ffffff;stop-opacity:1" />
      <stop
         id="stop6376"
         offset="1"
         style="stop-color:#ffffff;stop-opacity:0" />
    </linearGradient>
    <linearGradient
       id="linearGradient5370">
      <stop
         style="stop-color:#cc0000;stop-opacity:1;"
         offset="0"
         id="stop5372" />
      <stop
         style="stop-color:#f57373;stop-opacity:1;"
         offset="1"
         id="stop5374" />
    </linearGradient>
    <linearGradient
       inkscape:collect="always"
       id="linearGradient3383">
      <stop
         style="stop-color:#000000;stop-opacity:1;"
         offset="0"
         id="stop3385" />
      <stop
         style="stop-color:#000000;stop-opacity:0;"
         offset="1"
         id="stop3387" />
    </linearGradient>
    <linearGradient
       inkscape:collect="always"
       id="linearGradient3161">
      <stop
         style="stop-color:#a40000;stop-opacity:1;"
         offset="0"
         id="stop3163" />
      <stop
         style="stop-color:#a40000;stop-opacity:0;"
         offset="1"
         id="stop3165" />
    </linearGradient>
    <linearGradient
       id="linearGradient3153">
      <stop
         style="stop-color:#f35c5c;stop-opacity:1"
         offset="0"
         id="stop3155" />
      <stop
         id="stop3177"
         offset="0.5"
         style="stop-color:#ef2929;stop-opacity:1;" />
      <stop
         style="stop-color:#ef2929;stop-opacity:0;"
         offset="1"
         id="stop3157" />
    </linearGradient>
    <radialGradient
       inkscape:collect="always"
       xlink:href="#linearGradient3383"
       id="radialGradient5350"
       gradientUnits="userSpaceOnUse"
       gradientTransform="matrix(1,0,0,0.4889336,0,8.0475196)"
       cx="11.026446"
       cy="15.746525"
       fx="11.026446"
       fy="15.746525"
       r="10.982252" />
    <linearGradient
       inkscape:collect="always"
       xlink:href="#linearGradient3153"
       id="linearGradient5365"
       gradientUnits="userSpaceOnUse"
       gradientTransform="matrix(1.904484,0,0,-1.904484,-54.760513,53.429338)"
       x1="9.0155897"
       y1="6.513588"
       x2="11.433354"
       y2="23.270657" />
    <linearGradient
       inkscape:collect="always"
       xlink:href="#linearGradient3161"
       id="linearGradient5367"
       gradientUnits="userSpaceOnUse"
       gradientTransform="matrix(1.904484,0,0,-1.904484,-54.760513,53.429338)"
       x1="17.46875"
       y1="17.998686"
       x2="17.46875"
       y2="23.401001" />
    <linearGradient
       inkscape:collect="always"
       xlink:href="#linearGradient5370"
       id="linearGradient5376"
       x1="20.594484"
       y1="12.998215"
       x2="25.986174"
       y2="16.533749"
       gradientUnits="userSpaceOnUse"
       gradientTransform="translate(-57,10)" />
    <linearGradient
       inkscape:collect="always"
       xlink:href="#linearGradient5370"
       id="linearGradient5384"
       x1="22.125"
       y1="26.0625"
       x2="23.6875"
       y2="31.1875"
       gradientUnits="userSpaceOnUse"
       gradientTransform="translate(-57,10)" />
    <linearGradient
       inkscape:collect="always"
       xlink:href="#linearGradient6372"
       id="linearGradient6379"
       gradientUnits="userSpaceOnUse"
       gradientTransform="matrix(1.904484,0,0,-1.904484,-57.760513,56.429338)"
       x1="14.744915"
       y1="12.321295"
       x2="18.059462"
       y2="22.64624" />
    <linearGradient
       inkscape:collect="always"
       xlink:href="#linearGradient6372"
       id="linearGradient3191"
       x1="119.52084"
       y1="4.7108817"
       x2="150.40347"
       y2="149.48329"
       gradientUnits="userSpaceOnUse" />
    <linearGradient
       inkscape:collect="always"
       xlink:href="#linearGradient6372"
       id="linearGradient3207"
       x1="111.02399"
       y1="3.8328304"
       x2="154.78995"
       y2="133.00984"
       gradientUnits="userSpaceOnUse"
       gradientTransform="translate(-0.3875969,-0.7751938)" />
    <linearGradient
       inkscape:collect="always"
       xlink:href="#linearGradient3383"
       id="linearGradient3211"
       gradientUnits="userSpaceOnUse"
       gradientTransform="translate(-0.3875969,-0.7751938)"
       x1="171.87669"
       y1="231.3522"
       x2="131.14653"
       y2="138.82379" />
  </defs>
  <sodipodi:namedview
     id="base"
     pagecolor="#ffffff"
     bordercolor="#afafaf"
     borderopacity="1"
     inkscape:pageopacity="0"
     inkscape:pageshadow="2"
     inkscape:zoom="2.58"
     inkscape:cx="128"
     inkscape:cy="128"
     inkscape:document-units="px"
     inkscape:current-layer="layer1"
     width="48px"
     height="48px"
     inkscape:showpageshadow="false"
     borderlayer="true"
     inkscape:window-width="1680"
     inkscape:window-height="1025"
     inkscape:window-x="-5"
     inkscape:window-y="0"
     showgrid="false"
     inkscape:grid-points="true"
     showborder="true">
    <inkscape:grid
       id="GridFromPre046Settings"
       type="xygrid"
       originx="0px"
       originy="0px"
       spacingx="0.5px"
       spacingy="0.5px"
       color="#0000ff"
       empcolor="#0000ff"
       opacity="0.2"
       empopacity="0.4"
       empspacing="2"
       visible="true"
       enabled="true" />
  </sodipodi:namedview>
  <metadata
     id="metadata7">
    <rdf:RDF>
      <cc:Work
         rdf:about="">
        <dc:format>image/svg+xml</dc:format>
        <dc:type
           rdf:resource="http://purl.org/dc/dcmitype/StillImage" />
        <dc:creator>
          <cc:Agent>
            <dc:title>Lapo Calamandrei</dc:title>
          </cc:Agent>
        </dc:creator>
        <cc:license
           rdf:resource="http://creativecommons.org/licenses/GPL/2.0/" />
      </cc:Work>
      <cc:License
         rdf:about="http://creativecommons.org/licenses/GPL/2.0/">
        <cc:permits
           rdf:resource="http://web.resource.org/cc/Reproduction" />
        <cc:permits
           rdf:resource="http://web.resource.org/cc/Distribution" />
        <cc:requires
           rdf:resource="http://web.resource.org/cc/Notice" />
        <cc:permits
           rdf:resource="http://web.resource.org/cc/DerivativeWorks" />
        <cc:requires
           rdf:resource="http://web.resource.org/cc/ShareAlike" />
        <cc:requires
           rdf:resource="http://web.resource.org/cc/SourceCode" />
      </cc:License>
    </rdf:RDF>
  </metadata>
  <g
     inkscape:label="Livello 1"
     inkscape:groupmode="layer"
     id="layer1">
    <g
       id="g3213">
      <path
         id="rect3177"
         d="M 88.59375 8.625 C 84.847282 8.625 81.84375 11.628533 81.84375 15.375 L 81.84375 113.4375 L 34.8125 113.4375 L 118.75 238.5625 L 211.875 113.4375 L 167.59375 113.4375 L 167.59375 15.375 C 167.59374 11.628534 164.59021 8.625 160.84375 8.625 L 88.59375 8.625 z M 118 29.4375 L 131.53125 29.4375 C 138.21491 29.4375 143.59375 34.81634 143.59375 41.5 L 143.59375 120.9375 C 143.59376 127.62116 138.21491 133 131.53125 133 L 118 133 C 111.31634 133.00001 105.9375 127.62116 105.9375 120.9375 L 105.9375 41.5 C 105.9375 34.816339 111.31634 29.4375 118 29.4375 z M 122.71875 142.71875 C 133.6014 142.71875 142.40625 151.13588 142.40625 161.53125 C 142.40625 171.92662 133.6014 180.375 122.71875 180.375 C 111.8361 180.375 103 171.92662 103 161.53125 C 103 151.13589 111.8361 142.71875 122.71875 142.71875 z "
         style="fill:#8c0d00;fill-opacity:1;stroke:#000000;stroke-width:4.17857885000000007;stroke-linecap:round;stroke-linejoin:round;stroke-miterlimit:4;stroke-dasharray:none;stroke-opacity:0.65333330999999994" />
      <path
         id="path3209"
         d="M 88.206153,7.8498062 C 84.459685,7.8498062 81.456153,10.853339 81.456153,14.599806 L 81.456153,112.66231 L 34.424903,112.66231 L 118.3624,237.78731 L 211.4874,112.66231 L 167.20615,112.66231 L 167.20615,14.599806 C 167.20614,10.85334 164.20261,7.8498062 160.45615,7.8498062 L 88.206153,7.8498062 z M 117.6124,28.662306 L 131.14365,28.662306 C 137.82731,28.662306 143.20615,34.041146 143.20615,40.724806 L 143.20615,120.16231 C 143.20616,126.84597 137.82731,132.22481 131.14365,132.22481 L 117.6124,132.22481 C 110.92874,132.22482 105.5499,126.84597 105.5499,120.16231 L 105.5499,40.724806 C 105.5499,34.041145 110.92874,28.662306 117.6124,28.662306 z M 122.33115,141.94356 C 133.2138,141.94356 142.01865,150.36069 142.01865,160.75606 C 142.01865,171.15143 133.2138,179.59981 122.33115,179.59981 C 111.4485,179.59981 102.6124,171.15143 102.6124,160.75606 C 102.6124,150.3607 111.4485,141.94356 122.33115,141.94356 z"
         style="fill:url(#linearGradient3211);fill-opacity:1;stroke:none;stroke-width:4.17857885000000007;stroke-linecap:round;stroke-linejoin:round;stroke-miterlimit:4;stroke-dasharray:none;stroke-opacity:0.65333330000000001" />
      <path
         style="fill:url(#linearGradient3207);fill-opacity:1;stroke:none;stroke-width:4.17857885;stroke-linecap:round;stroke-linejoin:round;stroke-miterlimit:4;stroke-dasharray:none;stroke-opacity:0.6533333"
         d="M 88.206153,7.8498062 C 84.459685,7.8498062 81.456153,10.853339 81.456153,14.599806 L 81.456153,112.66231 L 34.424903,112.66231 L 118.3624,237.78731 L 211.4874,112.66231 L 167.20615,112.66231 L 167.20615,14.599806 C 167.20614,10.85334 164.20261,7.8498062 160.45615,7.8498062 L 88.206153,7.8498062 z M 117.6124,28.662306 L 131.14365,28.662306 C 137.82731,28.662306 143.20615,34.041146 143.20615,40.724806 L 143.20615,120.16231 C 143.20616,126.84597 137.82731,132.22481 131.14365,132.22481 L 117.6124,132.22481 C 110.92874,132.22482 105.5499,126.84597 105.5499,120.16231 L 105.5499,40.724806 C 105.5499,34.041145 110.92874,28.662306 117.6124,28.662306 z M 122.33115,141.94356 C 133.2138,141.94356 142.01865,150.36069 142.01865,160.75606 C 142.01865,171.15143 133.2138,179.59981 122.33115,179.59981 C 111.4485,179.59981 102.6124,171.15143 102.6124,160.75606 C 102.6124,150.3607 111.4485,141.94356 122.33115,141.94356 z"
         id="path3199" />
    </g>
  </g>
</svg>
