<?xml version="1.0" encoding="UTF-8" standalone="no"?>
<!-- Created with Inkscape (http://www.inkscape.org/) -->

<svg
   xmlns:dc="http://purl.org/dc/elements/1.1/"
   xmlns:cc="http://creativecommons.org/ns#"
   xmlns:rdf="http://www.w3.org/1999/02/22-rdf-syntax-ns#"
   xmlns:svg="http://www.w3.org/2000/svg"
   xmlns="http://www.w3.org/2000/svg"
   xmlns:xlink="http://www.w3.org/1999/xlink"
   xmlns:sodipodi="http://sodipodi.sourceforge.net/DTD/sodipodi-0.dtd"
   xmlns:inkscape="http://www.inkscape.org/namespaces/inkscape"
   id="svg2"
   inkscape:version="0.92.5 (2060ec1f9f, 2020-04-08)"
   width="256"
   height="256"
   sodipodi:docname="application-x-subrip.svg"
   version="1.1">
  <metadata
     id="metadata8">
    <rdf:RDF>
      <cc:Work>
        <dc:format>image/svg+xml</dc:format>
        <dc:type
           rdf:resource="http://purl.org/dc/dcmitype/StillImage" />
        <dc:title />
      </cc:Work>
    </rdf:RDF>
  </metadata>
  <defs
     id="defs6">
    <linearGradient
       id="linearGradient3578">
      <stop
         id="stop3580"
         stop-color="#000000"
         stop-opacity="1" />
      <stop
         offset="1"
         id="stop3582"
         stop-color="#fffcfc"
         stop-opacity="1" />
    </linearGradient>
    <linearGradient
       id="linearGradient2284">
      <stop
         id="stop2290"
         stop-color="#000000"
         stop-opacity="1" />
      <stop
         id="stop2292"
         offset="1"
         stop-color="#5c5c5c"
         stop-opacity="1" />
    </linearGradient>
    <linearGradient
       id="linearGradient2768">
      <stop
         id="stop2770"
         stop-color="#000000"
         stop-opacity="0.637" />
      <stop
         id="stop2772"
         offset="1"
         stop-color="#000000"
         stop-opacity="0" />
    </linearGradient>
    <linearGradient
       id="linearGradient2776">
      <stop
         id="stop2778"
         stop-color="#000000"
         stop-opacity="0.682" />
      <stop
         id="stop2780"
         offset="1"
         stop-color="black"
         stop-opacity="0" />
    </linearGradient>
    <linearGradient
       id="linearGradient2784">
      <stop
         id="stop2786"
         stop-color="#000000"
         stop-opacity="0.853" />
      <stop
         id="stop2788"
         offset="1"
         stop-color="#000000"
         stop-opacity="0" />
    </linearGradient>
    <linearGradient
       id="linearGradient2812">
      <stop
         id="stop2814"
         stop-color="#1f1f1f"
         stop-opacity="1" />
      <stop
         id="stop2816"
         offset="1"
         stop-color="#929292"
         stop-opacity="1"
         style="stop-color:#4d4d4d;stop-opacity:1" />
    </linearGradient>
    <linearGradient
       id="linearGradient2843">
      <stop
         id="stop2845"
         stop-color="#000000"
         stop-opacity="1" />
      <stop
         id="stop2847"
         offset="1"
         stop-color="white"
         stop-opacity="1" />
    </linearGradient>
    <linearGradient
       inkscape:collect="always"
       xlink:href="#linearGradient2284"
       id="linearGradient4358"
       gradientUnits="userSpaceOnUse"
       gradientTransform="matrix(0.93775641,0,0,0.93775641,5.9509795,7.1454765)"
       x1="141.34"
       y1="252.2"
       x2="134.26"
       y2="9.01" />
    <linearGradient
       inkscape:collect="always"
       xlink:href="#linearGradient2812"
       id="linearGradient4360"
       gradientUnits="userSpaceOnUse"
       gradientTransform="matrix(0.93775641,0,0,0.93775641,5.9509795,7.1454765)"
       x1="176.83"
       y1="236.48"
       x2="58.49073"
       y2="11.663448" />
    <linearGradient
       inkscape:collect="always"
       xlink:href="#linearGradient2768"
       id="linearGradient4362"
       gradientUnits="userSpaceOnUse"
       gradientTransform="translate(2.727155,101.9956)"
       x1="227.38"
       y1="37.25"
       x2="158.17"
       y2="114.14" />
    <linearGradient
       inkscape:collect="always"
       xlink:href="#linearGradient2776"
       id="linearGradient4364"
       gradientUnits="userSpaceOnUse"
       gradientTransform="translate(1.090862,103.6319)"
       x1="224.81"
       y1="27.97"
       x2="168.54"
       y2="98.26" />
    <linearGradient
       inkscape:collect="always"
       xlink:href="#linearGradient2784"
       id="linearGradient4366"
       gradientUnits="userSpaceOnUse"
       x1="227.38"
       y1="132.29"
       x2="183.26"
       y2="183.27" />
    <radialGradient
       inkscape:collect="always"
       xlink:href="#linearGradient2843"
       id="radialGradient4368"
       gradientUnits="userSpaceOnUse"
       gradientTransform="matrix(0.754607,0.03976438,-0.04166753,0.790723,50.88446,29.53464)"
       spreadMethod="reflect"
       cx="176.72"
       cy="180.44"
       fx="176.72"
       fy="180.44"
       r="31.04" />
    <linearGradient
       id="linearGradient4224"
       inkscape:collect="always">
      <stop
         id="stop4226"
         offset="0"
         style="stop-color:#c9c9c9;stop-opacity:1;" />
      <stop
         id="stop4228"
         offset="1"
         style="stop-color:#515151;stop-opacity:1" />
    </linearGradient>
    <linearGradient
       id="linearGradient4214"
       inkscape:collect="always">
      <stop
         id="stop4216"
         offset="0"
         style="stop-color:#c9c9c9;stop-opacity:1" />
      <stop
         id="stop4218"
         offset="1"
         style="stop-color:#000000;stop-opacity:1" />
    </linearGradient>
    <linearGradient
       id="linearGradient3884">
      <stop
         id="stop3886"
         offset="0"
         style="stop-color:#a4a4a4;stop-opacity:1;" />
      <stop
         id="stop3888"
         offset="1"
         style="stop-color:#000000;stop-opacity:1;" />
    </linearGradient>
    <radialGradient
       spreadMethod="reflect"
       gradientUnits="userSpaceOnUse"
       gradientTransform="matrix(3.1172864,0,0,3.1172864,-377.054,46.021042)"
       r="24.016096"
       fy="22.570654"
       fx="97.192345"
       cy="22.570654"
       cx="97.192345"
       id="radialGradient3890"
       xlink:href="#linearGradient3884"
       inkscape:collect="always" />
    <linearGradient
       gradientUnits="userSpaceOnUse"
       y2="55.637867"
       x2="95.740685"
       y1="8.2024212"
       x1="87.423737"
       id="linearGradient4220"
       xlink:href="#linearGradient4214"
       inkscape:collect="always"
       gradientTransform="matrix(3.1172864,0,0,3.1172864,-377.054,46.021047)" />
    <linearGradient
       gradientTransform="matrix(0.88290065,0,0,0.88290065,-188.37599,9.3099458)"
       gradientUnits="userSpaceOnUse"
       y2="94.55983"
       x2="102.16357"
       y1="130.24808"
       x1="101.0066"
       id="linearGradient4230"
       xlink:href="#linearGradient4224"
       inkscape:collect="always" />
    <linearGradient
       y2="94.55983"
       x2="102.16357"
       y1="130.24808"
       x1="101.0066"
       gradientTransform="matrix(0.88290065,0,0,0.88290065,-142.97299,39.082402)"
       gradientUnits="userSpaceOnUse"
       id="linearGradient4234"
       xlink:href="#linearGradient4224"
       inkscape:collect="always" />
    <linearGradient
       y2="94.55983"
       x2="102.16357"
       y1="130.24808"
       x1="101.0066"
       gradientTransform="matrix(0.88290065,0,0,0.88290065,-157.61112,90.936097)"
       gradientUnits="userSpaceOnUse"
       id="linearGradient4238"
       xlink:href="#linearGradient4224"
       inkscape:collect="always" />
    <linearGradient
       y2="94.55983"
       x2="102.16357"
       y1="130.24808"
       x1="101.0066"
       gradientTransform="matrix(0.88290065,0,0,0.88290065,-211.20154,92.920928)"
       gradientUnits="userSpaceOnUse"
       id="linearGradient4242"
       xlink:href="#linearGradient4224"
       inkscape:collect="always" />
    <linearGradient
       y2="94.55983"
       x2="102.16357"
       y1="130.24808"
       x1="101.0066"
       gradientTransform="matrix(0.88290065,0,0,0.88290065,-229.80933,44.044478)"
       gradientUnits="userSpaceOnUse"
       id="linearGradient4246"
       xlink:href="#linearGradient4224"
       inkscape:collect="always" />
    <linearGradient
       id="linearGradient2812-6">
      <stop
         id="stop2814-7"
         style="stop-color:#000000;stop-opacity:1;"
         offset="0" />
      <stop
         id="stop2816-5"
         style="stop-color:#393939;stop-opacity:1;"
         offset="1" />
    </linearGradient>
    <linearGradient
       id="linearGradient2804">
      <stop
         id="stop2806"
         style="stop-color:#cbcbcb;stop-opacity:1;"
         offset="0" />
      <stop
         id="stop2808"
         style="stop-color:#000000;stop-opacity:1;"
         offset="1" />
    </linearGradient>
    <linearGradient
       id="linearGradient2776-3">
      <stop
         id="stop2778-5"
         style="stop-color:#000000;stop-opacity:1;"
         offset="0" />
      <stop
         id="stop2780-6"
         style="stop-color:black;stop-opacity:0;"
         offset="1" />
    </linearGradient>
    <linearGradient
       id="linearGradient2835-4">
      <stop
         id="stop2837"
         style="stop-color:black;stop-opacity:1"
         offset="0" />
      <stop
         id="stop2839-5"
         style="stop-color:#a9a9a9;stop-opacity:1;"
         offset="1" />
    </linearGradient>
    <linearGradient
       id="linearGradient2875-9">
      <stop
         id="stop2877-3"
         style="stop-color:#d0d0d0;stop-opacity:1;"
         offset="0" />
      <stop
         id="stop2879-7"
         style="stop-color:#272727;stop-opacity:1;"
         offset="1" />
    </linearGradient>
    <linearGradient
       id="linearGradient2881-6">
      <stop
         id="stop2883-5"
         style="stop-color:#505050;stop-opacity:1;"
         offset="0" />
      <stop
         id="stop2885-6"
         style="stop-color:#bcbcbc;stop-opacity:1;"
         offset="1" />
    </linearGradient>
    <linearGradient
       id="linearGradient2889-5">
      <stop
         id="stop2891-4"
         style="stop-color:#8c8c8c;stop-opacity:1;"
         offset="0" />
      <stop
         id="stop2893-7"
         style="stop-color:#ffffff;stop-opacity:1;"
         offset="1" />
    </linearGradient>
    <linearGradient
       id="linearGradient2897-6">
      <stop
         id="stop2899-1"
         style="stop-color:#000000;stop-opacity:1;"
         offset="0" />
      <stop
         id="stop2901-5"
         style="stop-color:#545454;stop-opacity:1;"
         offset="1" />
    </linearGradient>
    <linearGradient
       id="linearGradient3035-3">
      <stop
         id="stop3037-2"
         style="stop-color:#fdfdff;stop-opacity:1;"
         offset="0" />
      <stop
         id="stop3039-0"
         style="stop-color:#000000;stop-opacity:1;"
         offset="1" />
    </linearGradient>
    <linearGradient
       id="linearGradient3366-0">
      <stop
         id="stop3368-3"
         style="stop-color:#949494;stop-opacity:1;"
         offset="0" />
      <stop
         id="stop3370-6"
         style="stop-color:#000000;stop-opacity:1;"
         offset="1" />
    </linearGradient>
    <linearGradient
       id="linearGradient3305">
      <stop
         id="stop3307"
         offset="0"
         style="stop-color:#474747;stop-opacity:0.03381642" />
      <stop
         id="stop3309"
         offset="1"
         style="stop-color:#000000;stop-opacity:1" />
    </linearGradient>
    <inkscape:perspective
       sodipodi:type="inkscape:persp3d"
       inkscape:vp_x="0 : 128 : 1"
       inkscape:vp_y="0 : 1000 : 0"
       inkscape:vp_z="256 : 128 : 1"
       inkscape:persp3d-origin="128 : 85.333333 : 1"
       id="perspective70" />
    <linearGradient
       id="linearGradient2821"
       inkscape:collect="always">
      <stop
         id="stop2823"
         offset="0"
         style="stop-color:#1f1f47;stop-opacity:1" />
      <stop
         id="stop2825"
         offset="1"
         style="stop-color:#162a97;stop-opacity:0" />
    </linearGradient>
    <linearGradient
       id="linearGradient2916">
      <stop
         id="stop2918"
         offset="0"
         style="stop-color:#ffffff;stop-opacity:0;" />
      <stop
         id="stop2920"
         offset="1"
         style="stop-color:white;stop-opacity:1" />
    </linearGradient>
    <linearGradient
       id="linearGradient2908">
      <stop
         style="stop-color:#000000;stop-opacity:0;"
         offset="0"
         id="stop2910" />
      <stop
         style="stop-color:#0f143e;stop-opacity:1"
         offset="1"
         id="stop2912" />
    </linearGradient>
    <linearGradient
       id="linearGradient2890">
      <stop
         style="stop-color:#7d7d7d;stop-opacity:1;"
         offset="0"
         id="stop2892" />
      <stop
         style="stop-color:#000000;stop-opacity:1;"
         offset="1"
         id="stop2894" />
    </linearGradient>
    <linearGradient
       inkscape:collect="always"
       xlink:href="#linearGradient2890"
       id="linearGradient2896"
       x1="93.801529"
       y1="209.34351"
       x2="153.89313"
       y2="5.8625956"
       gradientUnits="userSpaceOnUse" />
    <linearGradient
       inkscape:collect="always"
       xlink:href="#linearGradient2908"
       id="linearGradient2906"
       gradientUnits="userSpaceOnUse"
       x1="155.35878"
       y1="139.48091"
       x2="163.17557"
       y2="150.47328"
       gradientTransform="translate(-0.977146,0.48855)" />
    <linearGradient
       inkscape:collect="always"
       xlink:href="#linearGradient2916"
       id="linearGradient2922"
       gradientUnits="userSpaceOnUse"
       x1="114.80917"
       y1="106.25954"
       x2="154.38168"
       y2="52.763359" />
    <linearGradient
       y2="21.740461"
       x2="131.90839"
       y1="217.40459"
       x1="33.221375"
       gradientUnits="userSpaceOnUse"
       id="linearGradient3922"
       xlink:href="#linearGradient2890"
       inkscape:collect="always" />
    <linearGradient
       y2="26.137407"
       x2="88.183228"
       y1="51.786266"
       x1="88.183228"
       gradientUnits="userSpaceOnUse"
       id="linearGradient3919"
       xlink:href="#linearGradient3888"
       inkscape:collect="always" />
    <linearGradient
       gradientTransform="translate(95.26718,-0.48855)"
       y2="21.740461"
       x2="131.90839"
       y1="217.40459"
       x1="33.221375"
       gradientUnits="userSpaceOnUse"
       id="linearGradient3912"
       xlink:href="#linearGradient2890"
       inkscape:collect="always" />
    <linearGradient
       gradientTransform="translate(95.26718,-0.48855)"
       y2="26.137407"
       x2="88.183228"
       y1="51.786266"
       x1="88.183228"
       gradientUnits="userSpaceOnUse"
       id="linearGradient3909"
       xlink:href="#linearGradient3888"
       inkscape:collect="always" />
    <linearGradient
       inkscape:collect="always"
       id="linearGradient3888">
      <stop
         style="stop-color:#aaf;stop-opacity:0"
         offset="0"
         id="stop3890" />
      <stop
         style="stop-color:white;stop-opacity:1"
         offset="1"
         id="stop3892" />
    </linearGradient>
    <linearGradient
       inkscape:collect="always"
       xlink:href="#linearGradient3888"
       id="linearGradient2087"
       gradientUnits="userSpaceOnUse"
       gradientTransform="translate(334.8109,36.78514)"
       x1="88.183228"
       y1="51.786266"
       x2="88.183228"
       y2="26.137407" />
    <linearGradient
       inkscape:collect="always"
       xlink:href="#linearGradient2890"
       id="linearGradient2090"
       gradientUnits="userSpaceOnUse"
       gradientTransform="translate(334.8109,36.78514)"
       x1="33.221375"
       y1="217.40459"
       x2="131.90839"
       y2="21.740461" />
    <linearGradient
       inkscape:collect="always"
       xlink:href="#linearGradient3888"
       id="linearGradient2093"
       gradientUnits="userSpaceOnUse"
       x1="88.183228"
       y1="51.786266"
       x2="88.183228"
       y2="26.137407"
       gradientTransform="translate(239.5437,37.27369)" />
    <linearGradient
       inkscape:collect="always"
       xlink:href="#linearGradient2890"
       id="linearGradient2096"
       gradientUnits="userSpaceOnUse"
       x1="33.221375"
       y1="217.40459"
       x2="131.90839"
       y2="21.740461"
       gradientTransform="translate(239.5437,37.27369)" />
    <linearGradient
       inkscape:collect="always"
       xlink:href="#linearGradient3888"
       id="linearGradient1927"
       gradientUnits="userSpaceOnUse"
       gradientTransform="matrix(0.490066,0,0,1.080729,-234.0628,-3.61673)"
       x1="88.183228"
       y1="51.786266"
       x2="88.183228"
       y2="26.137407" />
    <linearGradient
       inkscape:collect="always"
       xlink:href="#linearGradient2890"
       id="linearGradient1930"
       gradientUnits="userSpaceOnUse"
       gradientTransform="matrix(0.490066,0,0,1.080729,-234.0629,-3.616732)"
       x1="33.221375"
       y1="217.40459"
       x2="131.90839"
       y2="21.740461" />
    <linearGradient
       inkscape:collect="always"
       xlink:href="#linearGradient2821"
       id="linearGradient2827"
       gradientUnits="userSpaceOnUse"
       gradientTransform="matrix(0.490066,0,0,1.080729,-234.0628,-3.61673)"
       x1="88.183067"
       y1="220.85507"
       x2="88.183067"
       y2="197.01443" />
    <inkscape:perspective
       sodipodi:type="inkscape:persp3d"
       inkscape:vp_x="0 : 128 : 1"
       inkscape:vp_y="0 : 1000 : 0"
       inkscape:vp_z="256 : 128 : 1"
       inkscape:persp3d-origin="128 : 85.333333 : 1"
       id="perspective2503" />
    <linearGradient
       inkscape:collect="always"
       xlink:href="#linearGradient2916"
       id="linearGradient2784-5"
       gradientUnits="userSpaceOnUse"
       x1="114.80917"
       y1="106.25954"
       x2="154.38168"
       y2="52.763359"
       gradientTransform="matrix(1.2152197,0,0,1.2152197,-36.753845,-1.5657271)" />
    <linearGradient
       inkscape:collect="always"
       xlink:href="#linearGradient2908"
       id="linearGradient2787"
       gradientUnits="userSpaceOnUse"
       gradientTransform="matrix(1.2152197,0,0,1.2152197,-39.895494,0.4936174)"
       x1="155.35878"
       y1="139.48091"
       x2="163.17557"
       y2="150.47328" />
    <filter
       height="1.022962"
       y="-0.011480983"
       width="1.0251254"
       x="-0.012562719"
       id="filter947"
       style="color-interpolation-filters:sRGB"
       inkscape:collect="always">
      <feGaussianBlur
         id="feGaussianBlur949"
         stdDeviation="1.1414346"
         inkscape:collect="always" />
    </filter>
    <filter
       inkscape:collect="always"
       style="color-interpolation-filters:sRGB"
       id="filter1348"
       x="-0.012"
       width="1.024"
       y="-0.012"
       height="1.024">
      <feGaussianBlur
         inkscape:collect="always"
         stdDeviation="0.74190979"
         id="feGaussianBlur1350" />
    </filter>
  </defs>
  <sodipodi:namedview
     pagecolor="#ff0000"
     bordercolor="#666666"
     borderopacity="1"
     objecttolerance="10"
     gridtolerance="10"
     guidetolerance="10"
     inkscape:pageopacity="0"
     inkscape:pageshadow="2"
     inkscape:window-width="1920"
     inkscape:window-height="1056"
     id="namedview4"
     showgrid="false"
     inkscape:zoom="3.4023438"
     inkscape:cx="128"
     inkscape:cy="128"
     inkscape:window-x="0"
     inkscape:window-y="0"
     inkscape:window-maximized="1"
     inkscape:current-layer="svg2"
     inkscape:snap-to-guides="false"
     inkscape:snap-grids="false"
     inkscape:snap-others="false"
     inkscape:object-nodes="false"
     inkscape:snap-nodes="false"
     inkscape:snap-global="false" />
  <g
     transform="matrix(1,0,0.02944761,1,250.27119,3.5333694)"
     style="fill:#000000;fill-opacity:0.34979428;filter:url(#filter947)"
     id="g941">
    <g
       style="fill:#000000;fill-opacity:0.34979428"
       id="g933">
      <path
         sodipodi:nodetypes="cccccc"
         d="m -217.52319,21.67738 c -13.56041,71.636738 -11.80157,158.12042 0,219.9064 70.23884,18.87974 146.211482,-20.93789 205.406199,-17.18749 -19.269117,-43.74806 -13.141669,-112.35782 -8.625,-153.8122 4.070563,-28.494332 -32.072503,-50.193295 -51.5,-62.5000003 C -122.19896,16.77242 -174.63433,26.275954 -217.52319,21.67738 Z"
         id="path2820"
         style="fill:#000000;fill-opacity:0.34979428;fill-rule:evenodd;stroke:none"
         inkscape:connector-curvature="0" />
      <path
         inkscape:connector-curvature="0"
         style="fill:#000000;fill-opacity:0.34979428;fill-rule:evenodd;stroke:none"
         id="path920"
         d="m -216.00171,24.720339 c -12.138,72.585009 -11.11007,153.002661 -0.3043,214.124781 70.23884,18.87974 142.638022,-19.4945 201.832739,-15.7441 C -33.742388,179.35296 -27.693028,112.03847 -23.176359,70.58409 -19.105796,42.089758 -53.727382,22.216571 -73.154879,9.9098654 -123.11185,18.598196 -173.11285,29.318913 -216.00171,24.720339 Z"
         sodipodi:nodetypes="cccccc" />
      <path
         sodipodi:nodetypes="cccccc"
         d="m -214.4102,26.577103 c -12.138,72.585009 -11.37532,148.758627 -0.56955,209.880747 70.23884,18.87974 138.924494,-18.96399 198.119211,-15.21359 C -36.129656,177.4962 -29.549792,113.09948 -25.033123,71.645098 -20.96256,43.150766 -54.257886,23.808083 -73.685383,11.501377 -123.64235,20.189708 -171.52134,31.175677 -214.4102,26.577103 Z"
         id="path922"
         style="fill:#000000;fill-opacity:0.34979428;fill-rule:evenodd;stroke:none"
         inkscape:connector-curvature="0" />
      <path
         inkscape:connector-curvature="0"
         style="fill:#000000;fill-opacity:0.34979428;fill-rule:evenodd;stroke:none"
         id="path924"
         d="m -213.08394,28.699119 c -12.138,72.585011 -11.37532,145.045101 -0.56955,206.167221 70.23884,18.87974 135.210966,-19.4945 194.405683,-15.7441 C -38.516924,175.37418 -31.93706,113.09948 -27.420391,71.645098 -23.349828,43.150766 -54.523138,26.195351 -73.950635,13.888645 -123.9076,22.576976 -170.19508,33.297693 -213.08394,28.699119 Z"
         sodipodi:nodetypes="cccccc" />
      <path
         sodipodi:nodetypes="cccccc"
         d="m -210.96192,31.351639 c -12.138,72.585011 -12.70158,141.066321 -1.89581,202.188441 70.23884,18.87974 131.762686,-20.55551 190.957403,-16.80511 C -41.169444,172.98691 -33.528572,113.36473 -29.011903,71.91035 -24.94134,43.416018 -54.78839,29.113123 -74.215887,16.806417 -124.17285,25.494748 -168.07306,35.950213 -210.96192,31.351639 Z"
         id="path926"
         style="fill:#000000;fill-opacity:0.34979428;fill-rule:evenodd;stroke:none"
         inkscape:connector-curvature="0" />
    </g>
  </g>
  <path
     style="fill:url(#linearGradient4358);fill-opacity:1;fill-rule:evenodd;stroke:url(#linearGradient4360);stroke-width:2.53191185;stroke-linecap:round;stroke-linejoin:round;stroke-miterlimit:4;stroke-dasharray:none;stroke-opacity:1"
     stroke-miterlimit="4"
     inkscape:connector-curvature="0"
     d="m 36.639872,26.336375 c 41.612932,5.119038 88.166308,-1.618996 136.565518,-12.787033 20.22668,13.506262 41.09937,26.624908 48.07925,48.079243 -4.8262,50.977645 -14.40671,101.955275 8.18371,152.932935 C 166.04466,208.86169 100.06356,246.7566 37.662825,231.4404 24.518183,165.33186 26.653253,96.526906 36.639872,26.336375 Z"
     id="path1873"
     sodipodi:nodetypes="cccccc" />
  <g
     id="g2792"
     transform="matrix(0.93775641,0,0,0.93775641,1.3476568,-94.639354)">
    <path
       style="fill:url(#linearGradient4362);fill-opacity:1;fill-rule:evenodd;stroke:none"
       inkscape:connector-curvature="0"
       sodipodi:nodetypes="cccc"
       id="path2766"
       d="m 156.53869,211.36553 c 13.28542,-17.44929 34.02093,-77.54136 27.27153,-97.63214 21.56922,14.40274 43.82734,28.39213 51.27051,51.2705 -22.05844,6.72055 -54.13461,50.39418 -78.54204,46.36164 z" />
    <path
       style="fill:url(#linearGradient4364);fill-opacity:1;fill-rule:evenodd;stroke:none"
       inkscape:connector-curvature="0"
       d="m 162.53843,201.54777 c 13.28542,-17.44929 26.3849,-66.08731 19.6355,-86.17809 21.56922,14.40274 43.82734,28.39214 51.27051,51.27051 -22.05844,6.72055 -46.49858,38.94012 -70.90601,34.90758 z"
       id="path2764"
       sodipodi:nodetypes="cccc" />
    <path
       style="fill:url(#linearGradient4366);fill-opacity:1;fill-rule:evenodd;stroke:none"
       inkscape:connector-curvature="0"
       sodipodi:nodetypes="cccc"
       id="path1877"
       d="m 167.44731,190.09372 c 13.28542,-17.44929 23.65775,-54.08783 16.90835,-74.17861 21.56922,14.40274 43.82734,28.39214 51.27051,51.27051 -22.05844,6.72055 -43.77143,26.94064 -68.17886,22.9081 z" />
    <path
       style="fill:url(#radialGradient4368);fill-opacity:1;fill-rule:evenodd;stroke:#484845;stroke-width:1;stroke-linecap:butt;stroke-linejoin:miter;stroke-opacity:1"
       inkscape:connector-curvature="0"
       d="m 173.99247,172.0945 c 13.28542,-17.44929 16.56715,-37.17947 9.81775,-57.27025 21.56922,14.40274 43.82734,28.39214 51.27051,51.27051 -22.05844,6.72055 -36.68083,10.03228 -61.08826,5.99974 z"
       id="path1875"
       sodipodi:nodetypes="cccc" />
  </g>
  <g
     aria-label="All rights granted under this License are granted  for the term of copyright  on the Program, and are  irrevocable provided the  stated conditions are met. "
     style="font-style:normal;font-variant:normal;font-weight:bold;font-stretch:normal;font-size:10.66666698px;line-height:1.25;font-family:'Noto Kufi Arabic';-inkscape-font-specification:'Noto Kufi Arabic Bold';letter-spacing:0px;word-spacing:0px;fill:#4c4c4c;fill-opacity:1;stroke:none"
     id="text1060">
    <path
       d="m 48.413012,79.654836 c -2.543384,-0.670478 -6.987115,3.799661 -4.62073,-1.433156 0.218148,-5.269565 5.416752,-6.601684 5.835054,-0.637867 1.786237,1.990957 0.476052,5.931026 -1.214324,2.071023 z m -2.635416,-1.442708 c 3.955984,1.647806 0.618391,-6.181105 0,0 z"
       id="path1128"
       inkscape:connector-curvature="0"
       style="fill:#4c4c4c;fill-opacity:1" />
    <path
       d="m 51.860929,72.967336 c 4.246519,-1.122688 1.263179,12.655968 0,5.976233 0,-1.992078 0,-3.984155 0,-5.976233 z"
       id="path1130"
       inkscape:connector-curvature="0"
       style="fill:#4c4c4c;fill-opacity:1" />
    <path
       d="m 55.527596,72.967336 c 4.246519,-1.122688 1.263179,12.655968 0,5.976233 0,-1.992078 0,-3.984155 0,-5.976233 z"
       id="path1132"
       inkscape:connector-curvature="0"
       style="fill:#4c4c4c;fill-opacity:1" />
    <path
       d="m 67.23593,76.826711 c -3.417941,-2.107464 -2.292404,8.09429 -4.295427,2.813114 -1.849481,-4.16486 3.394294,-6.113797 4.295427,-2.813114 z"
       id="path1134"
       inkscape:connector-curvature="0"
       style="fill:#4c4c4c;fill-opacity:1" />
    <path
       d="m 68.173429,75.238169 c 4.37942,-1.050634 0.735066,10.401771 -0.260094,3.473772 0.478826,-1.093392 0.175106,-2.318288 0.260094,-3.473772 z m 0,-2.270833 c 4.419485,-1.033762 -0.252223,4.193435 0,0 z"
       id="path1136"
       inkscape:connector-curvature="0"
       style="fill:#4c4c4c;fill-opacity:1" />
    <path
       d="m 75.808847,80.081919 c -7.187956,3.582965 -2.786358,-9.556536 1.852372,-4.264576 1.163425,3.990788 -0.570235,9.957298 -5.495051,6.409716 1.47174,-0.305856 4.071775,0.435842 3.642679,-2.14514 z M 74.57968,76.451711 c -5.060829,4.013993 4.902922,3.995286 0,0 z"
       id="path1138"
       inkscape:connector-curvature="0"
       style="fill:#4c4c4c;fill-opacity:1" />
    <path
       d="m 85.350512,77.519419 c 1.433949,3.275199 -2.811532,5.296374 -1.788342,0.700869 -2.568654,-4.721882 -2.288734,7.418902 -4.363816,0.8741 -0.310683,-2.353352 1.175656,-9.546634 2.178197,-3.752729 0.457115,1.859981 4.181896,-2.534672 3.973961,2.17776 z"
       id="path1140"
       inkscape:connector-curvature="0"
       style="fill:#4c4c4c;fill-opacity:1" />
    <path
       d="m 89.126555,73.581919 c 0.10714,2.264161 3.747357,2.338482 -0.118259,3.647084 -0.0028,1.726505 3.873263,4.923019 -0.64771,3.719267 -1.112228,-1.979936 -3.513017,-7.797328 0.765969,-7.366351 z"
       id="path1142"
       inkscape:connector-curvature="0"
       style="fill:#4c4c4c;fill-opacity:1" />
    <path
       d="m 96.751557,75.420461 c 0.652729,2.364306 -6.001604,0.670533 -0.949104,2.254576 4.383007,1.690422 -4.166329,6.306602 -3.863397,1.766252 2.923075,2.022131 3.988428,-1.548448 0.411459,-1.239586 -2.171343,-2.96112 2.596388,-3.688548 4.401042,-2.781242 z"
       id="path1144"
       inkscape:connector-curvature="0"
       style="fill:#4c4c4c;fill-opacity:1" />
    <path
       d="m 106.22551,80.081919 c -7.187951,3.582963 -2.78635,-9.556537 1.85237,-4.264576 1.16343,3.990786 -0.57022,9.957298 -5.49504,6.409717 1.47174,-0.305856 4.07176,0.43584 3.64267,-2.145141 z m -1.22916,-3.630208 c -5.06083,4.013983 4.90291,3.995298 0,0 z"
       id="path1146"
       inkscape:connector-curvature="0"
       style="fill:#4c4c4c;fill-opacity:1" />
    <path
       d="m 114.23593,76.826711 c -3.41794,-2.107456 -2.2924,8.094291 -4.29544,2.813111 -1.84951,-4.16494 3.39448,-6.113736 4.29544,-2.813111 z"
       id="path1148"
       inkscape:connector-curvature="0"
       style="fill:#4c4c4c;fill-opacity:1" />
    <path
       d="m 117.78801,78.446503 c -3.71427,1.764344 3.22562,1.136922 0,0 z m 2.84896,-0.703125 c 1.20993,4.384722 -3.07332,3.2198 -5.34489,2.611303 -0.27952,-4.000446 6.00468,-3.161056 0.14832,-4.183374 0.0481,-2.085427 6.05794,-1.25968 5.19657,1.572071 z"
       id="path1150"
       inkscape:connector-curvature="0"
       style="fill:#4c4c4c;fill-opacity:1" />
    <path
       d="m 128.24635,77.519419 c 1.43394,3.275416 -2.81185,5.296278 -1.78793,0.700669 -2.56945,-4.72167 -2.28903,7.419006 -4.36427,0.874301 -1.76141,-4.501259 5.92342,-5.586801 6.1522,-1.57497 z"
       id="path1152"
       inkscape:connector-curvature="0"
       style="fill:#4c4c4c;fill-opacity:1" />
    <path
       d="m 132.02239,73.581919 c 0.10715,2.264159 3.74734,2.338483 -0.11826,3.647084 -0.003,1.726503 3.87325,4.92302 -0.64771,3.719266 -1.11224,-1.97993 -3.51302,-7.797338 0.76597,-7.36635 z"
       id="path1154"
       inkscape:connector-curvature="0"
       style="fill:#4c4c4c;fill-opacity:1" />
    <path
       d="m 140.91302,78.139211 c -2.11558,0.539665 -6.68089,1.158055 -1.5565,1.685008 3.62103,1.383586 -8.22733,2.467992 -4.50737,-2.991512 1.20412,-2.795101 6.43245,-2.063243 6.06387,1.306504 z m -1.91667,-0.619792 c -1.19818,-3.197355 -3.91316,1.34503 0,0 z"
       id="path1156"
       inkscape:connector-curvature="0"
       style="fill:#4c4c4c;fill-opacity:1" />
    <path
       d="m 146.28801,76.092336 c -0.48872,-5.446194 3.00819,-1.792582 1.875,1.486064 1.98607,4.820135 -5.88479,4.6285 -6.26041,0.581644 -0.44712,-2.344619 2.91996,-4.343774 4.38541,-2.067708 z m -1.22916,3.776042 c 5.09808,-4.124602 -4.928,-4.244955 0,0 z"
       id="path1158"
       inkscape:connector-curvature="0"
       style="fill:#4c4c4c;fill-opacity:1" />
    <path
       d="m 153.61093,78.800669 c -1.17369,-4.274319 2.90557,-4.410053 1.87683,0.01013 2.63448,2.033769 2.57897,-7.685226 4.04461,-1.685932 1.97955,4.975153 -5.62639,5.038236 -5.92144,1.675804 z"
       id="path1160"
       inkscape:connector-curvature="0"
       style="fill:#4c4c4c;fill-opacity:1" />
    <path
       d="m 167.14218,77.519419 c 1.43394,3.275417 -2.81185,5.296277 -1.78793,0.700669 -2.56946,-4.721677 -2.28904,7.419003 -4.36427,0.8743 -1.76141,-4.501258 5.9234,-5.586801 6.1522,-1.574969 z"
       id="path1162"
       inkscape:connector-curvature="0"
       style="fill:#4c4c4c;fill-opacity:1" />
    <path
       d="m 172.85051,76.092336 c -0.48872,-5.446194 3.00819,-1.792582 1.875,1.486064 1.98607,4.820135 -5.88479,4.6285 -6.26041,0.581644 -0.44712,-2.344619 2.91996,-4.343774 4.38541,-2.067708 z m -1.22916,3.776042 c 5.09808,-4.124602 -4.928,-4.244955 0,0 z"
       id="path1164"
       inkscape:connector-curvature="0"
       style="fill:#4c4c4c;fill-opacity:1" />
    <path
       d="m 182.35052,78.139211 c -2.11558,0.539665 -6.68089,1.158055 -1.5565,1.685008 3.62103,1.383586 -8.22733,2.467992 -4.50737,-2.991512 1.20412,-2.795101 6.43245,-2.063243 6.06387,1.306504 z m -1.91667,-0.619792 c -1.19818,-3.197355 -3.91316,1.34503 0,0 z"
       id="path1166"
       inkscape:connector-curvature="0"
       style="fill:#4c4c4c;fill-opacity:1" />
    <path
       d="m 188.09011,76.826711 c -3.41795,-2.107468 -2.29238,8.094285 -4.29544,2.813119 -1.84952,-4.164956 3.39446,-6.113737 4.29544,-2.813119 z"
       id="path1168"
       inkscape:connector-curvature="0"
       style="fill:#4c4c4c;fill-opacity:1" />
    <path
       d="m 45.647387,87.812212 c 0.10714,2.264161 3.747357,2.338482 -0.118259,3.647083 -0.0028,1.726506 3.873263,4.92302 -0.64771,3.719269 -1.112228,-1.979934 -3.513015,-7.797331 0.765969,-7.366352 z"
       id="path1170"
       inkscape:connector-curvature="0"
       style="fill:#4c4c4c;fill-opacity:1" />
    <path
       d="m 54.579679,91.749712 c 1.433949,3.275199 -2.811532,5.296374 -1.788342,0.700869 -2.568654,-4.721882 -2.288734,7.418902 -4.363816,0.8741 -0.310683,-2.353352 1.175656,-9.546634 2.178197,-3.752729 0.457115,1.859981 4.181896,-2.534672 3.973961,2.17776 z"
       id="path1172"
       inkscape:connector-curvature="0"
       style="fill:#4c4c4c;fill-opacity:1" />
    <path
       d="m 56.319263,89.468462 c 4.37942,-1.050634 0.735066,10.401771 -0.260094,3.473772 0.478826,-1.093392 0.175106,-2.318288 0.260094,-3.473772 z m 0,-2.270833 c 4.419485,-1.033762 -0.252223,4.193435 0,0 z"
       id="path1174"
       inkscape:connector-curvature="0"
       style="fill:#4c4c4c;fill-opacity:1" />
    <path
       d="m 64.543221,89.650754 c 0.652728,2.364306 -6.001603,0.670533 -0.949103,2.254576 4.383004,1.690422 -4.166328,6.306602 -3.863397,1.766253 2.923075,2.02213 3.988426,-1.54845 0.411458,-1.239587 -2.171342,-2.961119 2.596388,-3.68855 4.401042,-2.781242 z"
       id="path1176"
       inkscape:connector-curvature="0"
       style="fill:#4c4c4c;fill-opacity:1" />
    <path
       d="m 70.131764,87.525754 c 4.407938,-0.0088 -0.546663,8.146628 5.599,6.78186 -2.297311,2.911999 -7.224618,0.58666 -5.599,-3.617314 0,-1.054849 0,-2.109697 0,-3.164546 z"
       id="path1178"
       inkscape:connector-curvature="0"
       style="fill:#4c4c4c;fill-opacity:1" />
    <path
       d="m 76.840097,89.468462 c 4.37942,-1.050634 0.735066,10.401771 -0.260094,3.473772 0.478826,-1.093392 0.175106,-2.318288 0.260094,-3.473772 z m 0,-2.270833 c 4.419485,-1.033762 -0.252223,4.193435 0,0 z"
       id="path1180"
       inkscape:connector-curvature="0"
       style="fill:#4c4c4c;fill-opacity:1" />
    <path
       d="m 85.220307,89.650754 c 0.05185,1.685967 -6.56792,2.560875 -1.543604,3.94904 4.670242,2.813036 -7.147641,1.923674 -3.18373,-2.664399 0.934864,-1.588843 3.129993,-2.192873 4.727334,-1.284641 z"
       id="path1182"
       inkscape:connector-curvature="0"
       style="fill:#4c4c4c;fill-opacity:1" />
    <path
       d="m 92.663014,92.369504 c -2.115574,0.539665 -6.680885,1.158053 -1.556506,1.685008 3.621029,1.383589 -8.227319,2.467989 -4.507363,-2.991512 1.204118,-2.795102 6.43245,-2.063243 6.063869,1.306504 z m -1.916667,-0.619792 c -1.198181,-3.197355 -3.913165,1.345033 0,0 z"
       id="path1184"
       inkscape:connector-curvature="0"
       style="fill:#4c4c4c;fill-opacity:1" />
    <path
       d="m 99.933848,91.749712 c 1.433952,3.275415 -2.811857,5.296279 -1.787915,0.700669 -2.569406,-4.721649 -2.28902,7.419004 -4.364243,0.8743 -1.761428,-4.501247 5.923453,-5.586807 6.152158,-1.574969 z"
       id="path1186"
       inkscape:connector-curvature="0"
       style="fill:#4c4c4c;fill-opacity:1" />
    <path
       d="m 106.23072,89.650754 c 0.65273,2.364304 -6.0016,0.670534 -0.9491,2.254575 4.38301,1.690419 -4.16633,6.306608 -3.8634,1.766254 2.92308,2.022129 3.98844,-1.548448 0.41146,-1.239587 -2.17134,-2.961115 2.59639,-3.688551 4.40104,-2.781242 z"
       id="path1188"
       inkscape:connector-curvature="0"
       style="fill:#4c4c4c;fill-opacity:1" />
    <path
       d="m 113.85052,92.369504 c -2.11558,0.539665 -6.68089,1.158055 -1.5565,1.685007 3.62103,1.383587 -8.22733,2.467994 -4.50737,-2.991511 1.20412,-2.795101 6.43245,-2.063243 6.06387,1.306504 z m -1.91667,-0.619792 c -1.19818,-3.197355 -3.91316,1.34503 0,0 z"
       id="path1190"
       inkscape:connector-curvature="0"
       style="fill:#4c4c4c;fill-opacity:1" />
    <path
       d="m 121.57968,92.676796 c -3.71427,1.76435 3.22561,1.13692 0,0 z m 2.84896,-0.703125 c 1.20993,4.384719 -3.07331,3.219802 -5.34489,2.611305 -0.27951,-4.000448 6.00468,-3.161056 0.14832,-4.183376 0.0481,-2.085427 6.05794,-1.259682 5.19657,1.572071 z"
       id="path1192"
       inkscape:connector-curvature="0"
       style="fill:#4c4c4c;fill-opacity:1" />
    <path
       d="m 130.50676,91.057004 c -3.41795,-2.107465 -2.2924,8.094292 -4.29544,2.813111 -1.84951,-4.164945 3.39447,-6.113729 4.29544,-2.813111 z"
       id="path1194"
       inkscape:connector-curvature="0"
       style="fill:#4c4c4c;fill-opacity:1" />
    <path
       d="m 137.26718,92.369504 c -2.11557,0.539665 -6.68088,1.158055 -1.5565,1.685008 3.62103,1.383587 -8.22733,2.467994 -4.50737,-2.991511 1.20412,-2.795099 6.43245,-2.06325 6.06387,1.306503 z m -1.91667,-0.619792 c -1.19818,-3.197354 -3.91316,1.34503 0,0 z"
       id="path1196"
       inkscape:connector-curvature="0"
       style="fill:#4c4c4c;fill-opacity:1" />
    <path
       d="m 146.35051,94.312213 c -7.18795,3.582961 -2.78635,-9.556537 1.85237,-4.264577 1.16343,3.990787 -0.57023,9.957294 -5.49505,6.409717 1.47175,-0.305858 4.07178,0.435844 3.64268,-2.14514 z m -1.22916,-3.630209 c -5.06083,4.013982 4.90291,3.995298 0,0 z"
       id="path1198"
       inkscape:connector-curvature="0"
       style="fill:#4c4c4c;fill-opacity:1" />
    <path
       d="m 154.36093,91.057004 c -3.41794,-2.107456 -2.2924,8.094291 -4.29544,2.813111 -1.84951,-4.16494 3.39448,-6.113736 4.29544,-2.813111 z"
       id="path1200"
       inkscape:connector-curvature="0"
       style="fill:#4c4c4c;fill-opacity:1" />
    <path
       d="m 157.91302,92.676796 c -3.71429,1.764336 3.22561,1.136931 0,0 z m 2.84896,-0.703125 c 1.20993,4.384721 -3.07332,3.219802 -5.34489,2.611304 -0.27951,-4.000451 6.00468,-3.161057 0.14831,-4.183375 0.0481,-2.085425 6.05794,-1.25968 5.19658,1.572071 z"
       id="path1202"
       inkscape:connector-curvature="0"
       style="fill:#4c4c4c;fill-opacity:1" />
    <path
       d="m 168.37135,91.749712 c 1.43394,3.275416 -2.81185,5.296278 -1.78793,0.700669 -2.56945,-4.72167 -2.28903,7.419006 -4.36427,0.874301 -1.76141,-4.501259 5.92342,-5.586801 6.1522,-1.57497 z"
       id="path1204"
       inkscape:connector-curvature="0"
       style="fill:#4c4c4c;fill-opacity:1" />
    <path
       d="m 172.14739,87.812212 c 0.10713,2.26416 3.74737,2.338483 -0.11826,3.647082 -0.003,1.726504 3.87327,4.923019 -0.64771,3.71927 -1.11222,-1.979932 -3.51301,-7.797327 0.76597,-7.366352 z"
       id="path1206"
       inkscape:connector-curvature="0"
       style="fill:#4c4c4c;fill-opacity:1" />
    <path
       d="m 181.03802,92.369504 c -2.11558,0.539665 -6.68089,1.158055 -1.5565,1.685007 3.62103,1.383587 -8.22733,2.467994 -4.50737,-2.991511 1.20412,-2.795101 6.43245,-2.063243 6.06387,1.306504 z m -1.91667,-0.619792 c -1.19818,-3.197355 -3.91316,1.34503 0,0 z"
       id="path1208"
       inkscape:connector-curvature="0"
       style="fill:#4c4c4c;fill-opacity:1" />
    <path
       d="m 186.41302,90.322629 c -0.48872,-5.446194 3.00819,-1.792582 1.875,1.486064 1.98608,4.820135 -5.88481,4.628504 -6.26041,0.581644 -0.44713,-2.344626 2.91996,-4.343771 4.38541,-2.067708 z m -1.22916,3.776042 c 5.09807,-4.124614 -4.928,-4.244943 0,0 z"
       id="path1210"
       inkscape:connector-curvature="0"
       style="fill:#4c4c4c;fill-opacity:1" />
    <path
       d="m 47.449471,101.42792 c -2.512888,2.42468 0.627167,2.18633 -1.571431,4.43607 0.02114,5.70498 -2.600915,2.97917 -2.567343,-0.69688 -0.894714,-2.21578 2.212554,-4.05327 4.138774,-3.73919 z"
       id="path1212"
       inkscape:connector-curvature="0"
       style="fill:#4c4c4c;fill-opacity:1" />
    <path
       d="m 51.032804,104.89146 c -5.499109,3.95278 5.361399,4.46722 0,0 z m 0,-1.33333 c 7.718311,0.3995 -1.373378,11.20451 -3.216145,3.55215 -0.31423,-1.84466 1.258732,-3.84675 3.216145,-3.55215 z"
       id="path1214"
       inkscape:connector-curvature="0"
       style="fill:#4c4c4c;fill-opacity:1" />
    <path
       d="m 59.923429,105.2873 c -3.417941,-2.10749 -2.292404,8.09428 -4.295427,2.8131 -1.849532,-4.16489 3.394441,-6.11379 4.295427,-2.8131 z"
       id="path1216"
       inkscape:connector-curvature="0"
       style="fill:#4c4c4c;fill-opacity:1" />
    <path
       d="m 66.605721,102.04251 c 0.107137,2.26416 3.747358,2.33848 -0.118259,3.64708 -0.0028,1.7265 3.873264,4.92302 -0.64771,3.71927 -1.112228,-1.97994 -3.513015,-7.79732 0.765969,-7.36635 z"
       id="path1218"
       inkscape:connector-curvature="0"
       style="fill:#4c4c4c;fill-opacity:1" />
    <path
       d="m 75.538012,105.98001 c 1.433949,3.2752 -2.811534,5.29636 -1.788343,0.70086 -2.568655,-4.72187 -2.288733,7.4189 -4.363815,0.87411 -0.310683,-2.35336 1.175657,-9.546642 2.178197,-3.75274 0.457114,1.85998 4.181902,-2.53466 3.973961,2.17777 z"
       id="path1220"
       inkscape:connector-curvature="0"
       style="fill:#4c4c4c;fill-opacity:1" />
    <path
       d="m 83.100514,106.5998 c -2.115573,0.53967 -6.680885,1.15805 -1.556505,1.68501 3.621027,1.38358 -8.227324,2.46799 -4.507364,-2.99152 1.204145,-2.79515 6.43248,-2.06315 6.063869,1.30651 z m -1.916667,-0.61979 c -1.198171,-3.19737 -3.913171,1.34504 0,0 z"
       id="path1222"
       inkscape:connector-curvature="0"
       style="fill:#4c4c4c;fill-opacity:1" />
    <path
       d="m 90.251555,102.04251 c 0.107137,2.26416 3.747358,2.33848 -0.118259,3.64708 -0.0028,1.7265 3.873264,4.92302 -0.64771,3.71927 -1.112228,-1.97994 -3.513015,-7.79732 0.765969,-7.36635 z"
       id="path1224"
       inkscape:connector-curvature="0"
       style="fill:#4c4c4c;fill-opacity:1" />
    <path
       d="m 99.142182,106.5998 c -2.115573,0.53967 -6.680885,1.15805 -1.556506,1.68501 3.621024,1.38358 -8.227323,2.46799 -4.507363,-2.99152 1.204145,-2.79515 6.43248,-2.06315 6.063869,1.30651 z m -1.916667,-0.61979 c -1.198171,-3.19737 -3.913171,1.34504 0,0 z"
       id="path1226"
       inkscape:connector-curvature="0"
       style="fill:#4c4c4c;fill-opacity:1" />
    <path
       d="m 104.88177,105.2873 c -3.41795,-2.10749 -2.29238,8.09428 -4.29544,2.81311 -1.849573,-4.16499 3.39461,-6.11374 4.29544,-2.81311 z"
       id="path1228"
       inkscape:connector-curvature="0"
       style="fill:#4c4c4c;fill-opacity:1" />
    <path
       d="m 111.22551,104.66751 c 4.20755,-5.399043 5.19088,8.64396 2.00847,3.46249 0.17024,-5.5621 -1.93123,-1.05055 -2.58672,1.53735 -0.96429,-1.04094 -2.06723,-7.11453 -3.03945,-2.01264 -1.18224,6.17893 -4.50867,-6.63658 1.23261,-3.75696 0.80046,-0.74106 1.93836,-0.007 2.38509,0.76976 z"
       id="path1230"
       inkscape:connector-curvature="0"
       style="fill:#4c4c4c;fill-opacity:1" />
    <path
       d="m 123.42864,104.89146 c -5.4991,3.9528 5.3614,4.46721 0,0 z m 0,-1.33333 c 7.71832,0.39949 -1.37337,11.2045 -3.21614,3.55215 -0.31424,-1.84466 1.25873,-3.84675 3.21614,-3.55215 z"
       id="path1232"
       inkscape:connector-curvature="0"
       style="fill:#4c4c4c;fill-opacity:1" />
    <path
       d="m 131.82447,101.42792 c -2.51329,2.42466 0.62739,2.18634 -1.57143,4.43607 0.0211,5.70498 -2.60092,2.97917 -2.56734,-0.69688 -0.89471,-2.21578 2.21255,-4.05327 4.13877,-3.73919 z"
       id="path1234"
       inkscape:connector-curvature="0"
       style="fill:#4c4c4c;fill-opacity:1" />
    <path
       d="m 141.05364,103.88105 c 0.0518,1.68596 -6.56791,2.56087 -1.5436,3.94904 4.67024,2.81305 -7.1477,1.9236 -3.18371,-2.66445 0.93487,-1.58882 3.13,-2.19288 4.72731,-1.28459 z"
       id="path1236"
       inkscape:connector-curvature="0"
       style="fill:#4c4c4c;fill-opacity:1" />
    <path
       d="m 145.44947,104.89146 c -5.49911,3.95278 5.3614,4.46722 0,0 z m 0,-1.33333 c 7.71832,0.39949 -1.37337,11.20451 -3.21614,3.55215 -0.31423,-1.84466 1.25873,-3.84675 3.21614,-3.55215 z"
       id="path1238"
       inkscape:connector-curvature="0"
       style="fill:#4c4c4c;fill-opacity:1" />
    <path
       d="m 151.87135,108.68834 c 0.46476,5.41449 -2.99493,1.67989 -1.86459,-1.54856 -1.98631,-4.81577 5.91979,-4.51904 6.26042,-0.51915 0.45262,2.35144 -2.93201,4.34716 -4.39583,2.06771 z m 1.23958,-3.77604 c -5.36829,3.91353 5.24771,4.40127 0,0 z"
       id="path1240"
       inkscape:connector-curvature="0"
       style="fill:#4c4c4c;fill-opacity:1" />
    <path
       d="m 156.88698,103.69876 c 3.58199,-0.74706 2.92968,7.25926 4.51174,0.87879 4.69769,-3.64241 -2.1901,10.96581 -3.04253,6.22456 2.41281,-2.00145 -1.21251,-4.78917 -1.46921,-7.10335 z"
       id="path1242"
       inkscape:connector-curvature="0"
       style="fill:#4c4c4c;fill-opacity:1" />
    <path
       d="m 168.94426,105.2873 c -3.41794,-2.10749 -2.2924,8.09429 -4.29544,2.8131 -1.84956,-4.16498 3.39462,-6.11373 4.29544,-2.8131 z"
       id="path1244"
       inkscape:connector-curvature="0"
       style="fill:#4c4c4c;fill-opacity:1" />
    <path
       d="m 169.88176,103.69876 c 4.37943,-1.05064 0.73507,10.40177 -0.2601,3.47377 0.47883,-1.09339 0.17511,-2.31829 0.2601,-3.47377 z m 0,-2.27084 c 4.41949,-1.03376 -0.25222,4.19345 0,0 z"
       id="path1246"
       inkscape:connector-curvature="0"
       style="fill:#4c4c4c;fill-opacity:1" />
    <path
       d="m 177.51718,108.54251 c -7.18796,3.58296 -2.78636,-9.556544 1.85237,-4.26458 1.16343,3.99079 -0.57023,9.95728 -5.49505,6.40974 1.47176,-0.30584 4.07179,0.43584 3.64268,-2.14516 z m -1.22917,-3.63021 c -5.06084,4.01399 4.90294,3.99527 0,0 z"
       id="path1248"
       inkscape:connector-curvature="0"
       style="fill:#4c4c4c;fill-opacity:1" />
    <path
       d="m 187.05886,105.98001 c 1.43395,3.2752 -2.81152,5.29636 -1.78835,0.70086 -2.56871,-4.72189 -2.28875,7.4189 -4.36385,0.87411 -0.31069,-2.35336 1.17565,-9.546642 2.1782,-3.75274 0.45713,1.85998 4.18184,-2.53465 3.974,2.17777 z"
       id="path1250"
       inkscape:connector-curvature="0"
       style="fill:#4c4c4c;fill-opacity:1" />
    <path
       d="m 190.83489,102.04251 c 0.10713,2.26416 3.74735,2.33848 -0.11826,3.64708 -0.003,1.7265 3.87325,4.92302 -0.64771,3.71926 -1.11224,-1.97992 -3.51302,-7.79733 0.76597,-7.36634 z"
       id="path1252"
       inkscape:connector-curvature="0"
       style="fill:#4c4c4c;fill-opacity:1" />
    <path
       d="m 46.386971,119.12176 c -5.499122,3.95277 5.361406,4.46722 0,0 z m 0,-1.33334 c 7.718309,0.3995 -1.373378,11.20451 -3.216145,3.55215 -0.314231,-1.84466 1.258732,-3.84675 3.216145,-3.55215 z"
       id="path1254"
       inkscape:connector-curvature="0"
       style="fill:#4c4c4c;fill-opacity:1" />
    <path
       d="m 56.808846,120.2103 c 1.433951,3.27541 -2.811857,5.29628 -1.787915,0.70067 -2.569402,-4.72165 -2.28902,7.41899 -4.364243,0.8743 -1.761429,-4.50125 5.923462,-5.58681 6.152158,-1.57497 z"
       id="path1256"
       inkscape:connector-curvature="0"
       style="fill:#4c4c4c;fill-opacity:1" />
    <path
       d="m 64.293221,116.2728 c 0.107137,2.26416 3.747358,2.33848 -0.118259,3.64708 -0.0028,1.7265 3.873264,4.92302 -0.64771,3.71927 -1.112228,-1.97994 -3.513015,-7.79732 0.765969,-7.36635 z"
       id="path1258"
       inkscape:connector-curvature="0"
       style="fill:#4c4c4c;fill-opacity:1" />
    <path
       d="m 73.225512,120.2103 c 1.433947,3.2752 -2.811529,5.29637 -1.788342,0.70087 -2.56865,-4.72189 -2.288735,7.41889 -4.363816,0.8741 -0.310685,-2.35336 1.175659,-9.54663 2.178197,-3.75272 0.45712,1.85997 4.181888,-2.53469 3.973961,2.17775 z"
       id="path1260"
       inkscape:connector-curvature="0"
       style="fill:#4c4c4c;fill-opacity:1" />
    <path
       d="m 80.788014,120.83009 c -2.115577,0.53966 -6.680884,1.15805 -1.556505,1.68501 3.621026,1.38359 -8.227321,2.46798 -4.507364,-2.99152 1.204145,-2.79515 6.43248,-2.06315 6.063869,1.30651 z m -1.916667,-0.61979 c -1.198179,-3.19735 -3.913167,1.34504 0,0 z"
       id="path1262"
       inkscape:connector-curvature="0"
       style="fill:#4c4c4c;fill-opacity:1" />
    <path
       d="m 85.98593,115.98634 c 4.366771,-2.32206 9.401449,5.34402 2.531052,5.26033 -1.490119,5.24027 -3.241872,0.36971 -2.531052,-2.45055 0,-0.9366 0,-1.87319 0,-2.80978 z m 2.005209,1.45313 c -1.776576,4.78121 6.028833,-0.18104 0,0 z"
       id="path1264"
       inkscape:connector-curvature="0"
       style="fill:#4c4c4c;fill-opacity:1" />
    <path
       d="m 98.04843,119.51759 c -3.41794,-2.10749 -2.292404,8.09428 -4.295427,2.8131 -1.849532,-4.16489 3.394441,-6.11379 4.295427,-2.8131 z"
       id="path1266"
       inkscape:connector-curvature="0"
       style="fill:#4c4c4c;fill-opacity:1" />
    <path
       d="m 101.76197,119.12176 c -5.499119,3.95277 5.36141,4.46722 0,0 z m 0,-1.33334 c 7.71831,0.39949 -1.37338,11.20451 -3.216144,3.55215 -0.31423,-1.84466 1.258731,-3.84675 3.216144,-3.55215 z"
       id="path1268"
       inkscape:connector-curvature="0"
       style="fill:#4c4c4c;fill-opacity:1" />
    <path
       d="m 110.28801,122.7728 c -7.18795,3.58297 -2.78636,-9.55654 1.85237,-4.26458 1.16342,3.99079 -0.57021,9.95728 -5.49505,6.40976 1.47177,-0.30585 4.07179,0.43582 3.64268,-2.14518 z m -1.22916,-3.63021 c -5.06083,4.01399 4.90291,3.9953 0,0 z"
       id="path1270"
       inkscape:connector-curvature="0"
       style="fill:#4c4c4c;fill-opacity:1" />
    <path
       d="m 118.29843,119.51759 c -3.41794,-2.10748 -2.2924,8.09429 -4.29544,2.8131 -1.84956,-4.16497 3.39463,-6.11374 4.29544,-2.8131 z"
       id="path1272"
       inkscape:connector-curvature="0"
       style="fill:#4c4c4c;fill-opacity:1" />
    <path
       d="m 121.85051,121.13738 c -3.71427,1.76434 3.22562,1.13692 0,0 z m 2.84896,-0.70312 c 1.20994,4.38471 -3.07332,3.2198 -5.34489,2.6113 -0.27951,-4.00045 6.00467,-3.16105 0.14832,-4.18338 0.0481,-2.08539 6.05791,-1.25963 5.19657,1.57208 z"
       id="path1274"
       inkscape:connector-curvature="0"
       style="fill:#4c4c4c;fill-opacity:1" />
    <path
       d="m 131.85051,118.8978 c 4.20754,-5.39904 5.19088,8.64396 2.00847,3.46249 0.17024,-5.5621 -1.93123,-1.05055 -2.58672,1.53735 -0.96429,-1.04094 -2.06723,-7.11452 -3.03945,-2.01264 -1.18225,6.17893 -4.50867,-6.63658 1.23261,-3.75696 0.80046,-0.74106 1.93836,-0.007 2.38509,0.76976 z"
       id="path1276"
       inkscape:connector-curvature="0"
       style="fill:#4c4c4c;fill-opacity:1" />
    <path
       d="m 137.76197,121.74676 c 5.14368,-0.89606 -2.32768,7.38965 0.0851,0.98959 l 0.0511,-0.56782 z"
       id="path1278"
       inkscape:connector-curvature="0"
       style="fill:#4c4c4c;fill-opacity:1" />
    <path
       d="m 147.95468,121.13738 c -3.71426,1.76435 3.22561,1.13692 0,0 z m 2.84896,-0.70312 c 1.20994,4.38471 -3.07332,3.2198 -5.34489,2.6113 -0.27951,-4.00046 6.00468,-3.16104 0.14832,-4.18338 0.0481,-2.08539 6.05791,-1.25963 5.19657,1.57208 z"
       id="path1280"
       inkscape:connector-curvature="0"
       style="fill:#4c4c4c;fill-opacity:1" />
    <path
       d="m 158.41301,120.2103 c 1.43395,3.27542 -2.81185,5.29627 -1.78792,0.70067 -2.56945,-4.72167 -2.28904,7.419 -4.36427,0.8743 -1.76141,-4.50126 5.92341,-5.5868 6.15219,-1.57497 z"
       id="path1282"
       inkscape:connector-curvature="0"
       style="fill:#4c4c4c;fill-opacity:1" />
    <path
       d="m 164.12135,118.78322 c -0.48872,-5.44619 3.00819,-1.79258 1.875,1.48606 1.98608,4.82014 -5.88481,4.62849 -6.26042,0.58164 -0.44711,-2.34462 2.91997,-4.34376 4.38542,-2.0677 z m -1.22917,3.77604 c 5.09809,-4.12458 -4.92797,-4.24499 0,0 z"
       id="path1284"
       inkscape:connector-curvature="0"
       style="fill:#4c4c4c;fill-opacity:1" />
    <path
       d="m 174.12135,121.13738 c -3.71428,1.76434 3.22561,1.13693 0,0 z m 2.84896,-0.70312 c 1.20994,4.38472 -3.07333,3.2198 -5.3449,2.6113 -0.2795,-4.00046 6.00469,-3.16105 0.14832,-4.18338 0.048,-2.08539 6.05791,-1.25963 5.19658,1.57208 z"
       id="path1286"
       inkscape:connector-curvature="0"
       style="fill:#4c4c4c;fill-opacity:1" />
    <path
       d="m 183.04843,119.51759 c -3.41794,-2.10748 -2.2924,8.09429 -4.29544,2.8131 -1.84956,-4.16497 3.39463,-6.11374 4.29544,-2.8131 z"
       id="path1288"
       inkscape:connector-curvature="0"
       style="fill:#4c4c4c;fill-opacity:1" />
    <path
       d="m 189.80885,120.83009 c -2.11558,0.53966 -6.68089,1.15805 -1.55651,1.68501 3.62101,1.38361 -8.22732,2.46797 -4.50736,-2.99152 1.20414,-2.79515 6.43248,-2.06315 6.06387,1.30651 z m -1.91667,-0.61979 c -1.19818,-3.19735 -3.91317,1.34504 0,0 z"
       id="path1290"
       inkscape:connector-curvature="0"
       style="fill:#4c4c4c;fill-opacity:1" />
    <path
       d="m 43.610929,132.15934 c 4.379419,-1.05064 0.735069,10.40178 -0.260094,3.47378 0.478826,-1.09339 0.175105,-2.31829 0.260094,-3.47378 z m 0,-2.27083 c 4.419482,-1.03377 -0.252217,4.19342 0,0 z"
       id="path1292"
       inkscape:connector-curvature="0"
       style="fill:#4c4c4c;fill-opacity:1" />
    <path
       d="m 51.610929,133.74788 c -3.417942,-2.10747 -2.292404,8.09429 -4.295426,2.81311 -1.849521,-4.1649 3.394409,-6.11379 4.295426,-2.81311 z"
       id="path1294"
       inkscape:connector-curvature="0"
       style="fill:#4c4c4c;fill-opacity:1" />
    <path
       d="m 56.881762,133.74788 c -3.417942,-2.10747 -2.292404,8.09429 -4.295426,2.81311 -1.849521,-4.1649 3.394409,-6.11379 4.295426,-2.81311 z"
       id="path1296"
       inkscape:connector-curvature="0"
       style="fill:#4c4c4c;fill-opacity:1" />
    <path
       d="m 63.64218,135.06038 c -2.115577,0.53966 -6.680884,1.15805 -1.556506,1.68501 3.621031,1.38359 -8.22731,2.46799 -4.507364,-2.99151 1.204149,-2.79516 6.432492,-2.06313 6.06387,1.3065 z m -1.916667,-0.61979 c -1.198187,-3.19735 -3.91316,1.34503 0,0 z"
       id="path1298"
       inkscape:connector-curvature="0"
       style="fill:#4c4c4c;fill-opacity:1" />
    <path
       d="m 64.314054,132.15934 c 3.449327,-0.89828 2.951543,7.41879 4.311878,1.07063 4.896347,-4.90369 -1.048669,10.38222 -2.951624,2.50863 -0.238759,-1.27999 -0.953542,-2.36008 -1.360254,-3.57926 z"
       id="path1300"
       inkscape:connector-curvature="0"
       style="fill:#4c4c4c;fill-opacity:1" />
    <path
       d="m 74.782805,133.35205 c -5.499113,3.95278 5.3614,4.46722 0,0 z m 0,-1.33333 c 7.718309,0.3995 -1.373378,11.20451 -3.216145,3.55215 -0.314231,-1.84466 1.258732,-3.84675 3.216145,-3.55215 z"
       id="path1302"
       inkscape:connector-curvature="0"
       style="fill:#4c4c4c;fill-opacity:1" />
    <path
       d="m 84.053639,132.34163 c 0.05186,1.68598 -6.567925,2.56087 -1.543603,3.94905 4.670238,2.81305 -7.147712,1.92358 -3.183708,-2.66447 0.934868,-1.58882 3.129998,-2.19287 4.727311,-1.28458 z"
       id="path1304"
       inkscape:connector-curvature="0"
       style="fill:#4c4c4c;fill-opacity:1" />
    <path
       d="m 88.288012,135.36768 c -3.714283,1.76434 3.225613,1.13692 0,0 z m 2.848959,-0.70313 c 1.209935,4.38473 -3.073312,3.2198 -5.344895,2.61131 -0.279514,-4.00045 6.004624,-3.16106 0.148277,-4.18338 -0.155591,-2.06588 6.229119,-1.21201 5.196618,1.57207 z"
       id="path1306"
       inkscape:connector-curvature="0"
       style="fill:#4c4c4c;fill-opacity:1" />
    <path
       d="m 95.985932,136.78955 c 5.112548,-4.15694 -4.968071,-4.21161 0,0 z m -1.239584,-3.77604 c 7.214382,-3.62113 2.878934,9.77961 -1.845342,4.39687 -1.046822,-2.60505 1.079738,-12.60736 1.845342,-4.39687 z"
       id="path1308"
       inkscape:connector-curvature="0"
       style="fill:#4c4c4c;fill-opacity:1" />
    <path
       d="m 100.5276,129.88851 c 4.24652,-1.12269 1.26318,12.65597 0,5.97624 0,-1.99208 0,-3.98416 0,-5.97624 z"
       id="path1310"
       inkscape:connector-curvature="0"
       style="fill:#4c4c4c;fill-opacity:1" />
    <path
       d="m 110.01718,135.06038 c -2.11557,0.53966 -6.68088,1.15805 -1.55651,1.68501 3.62104,1.38359 -8.22731,2.468 -4.50736,-2.99151 1.20415,-2.79516 6.4325,-2.06314 6.06387,1.3065 z m -1.91667,-0.61979 c -1.19818,-3.19735 -3.91316,1.34503 0,0 z"
       id="path1312"
       inkscape:connector-curvature="0"
       style="fill:#4c4c4c;fill-opacity:1" />
    <path
       d="m 116.99635,137.14893 c 0.46476,5.41449 -2.99493,1.67989 -1.86459,-1.54856 -1.98631,-4.81578 5.91979,-4.51905 6.26042,-0.51915 0.45261,2.35144 -2.932,4.34715 -4.39583,2.06771 z m 1.23958,-3.77605 c -5.36829,3.91354 5.24772,4.40128 0,0 z"
       id="path1314"
       inkscape:connector-curvature="0"
       style="fill:#4c4c4c;fill-opacity:1" />
    <path
       d="m 127.11093,133.74788 c -3.41795,-2.10747 -2.2924,8.09429 -4.29544,2.81311 -1.84955,-4.16498 3.3946,-6.11374 4.29544,-2.81311 z"
       id="path1316"
       inkscape:connector-curvature="0"
       style="fill:#4c4c4c;fill-opacity:1" />
    <path
       d="m 130.82447,133.35205 c -5.49911,3.95278 5.3614,4.46722 0,0 z m 0,-1.33333 c 7.71832,0.39949 -1.37337,11.20451 -3.21614,3.55215 -0.31423,-1.84466 1.25873,-3.84675 3.21614,-3.55215 z"
       id="path1318"
       inkscape:connector-curvature="0"
       style="fill:#4c4c4c;fill-opacity:1" />
    <path
       d="m 134.64739,132.15934 c 3.44932,-0.89827 2.95155,7.41879 4.31188,1.07062 4.89635,-4.90368 -1.04867,10.38223 -2.95162,2.50863 -0.23876,-1.27999 -0.95355,-2.36007 -1.36026,-3.57925 z"
       id="path1320"
       inkscape:connector-curvature="0"
       style="fill:#4c4c4c;fill-opacity:1" />
    <path
       d="m 142.3401,132.15934 c 4.37942,-1.05064 0.73506,10.40178 -0.2601,3.47378 0.47883,-1.09339 0.17511,-2.31829 0.2601,-3.47378 z m 0,-2.27083 c 4.41947,-1.03377 -0.25222,4.19342 0,0 z"
       id="path1322"
       inkscape:connector-curvature="0"
       style="fill:#4c4c4c;fill-opacity:1" />
    <path
       d="m 149.97551,133.01351 c -0.48872,-5.44619 3.00819,-1.79258 1.875,1.48606 1.98607,4.82014 -5.8848,4.62851 -6.26041,0.58165 -0.44712,-2.34462 2.91996,-4.34377 4.38541,-2.06771 z m -1.22916,3.77604 c 5.09809,-4.12461 -4.928,-4.24496 0,0 z"
       id="path1324"
       inkscape:connector-curvature="0"
       style="fill:#4c4c4c;fill-opacity:1" />
    <path
       d="m 159.47552,135.06038 c -2.11558,0.53966 -6.68089,1.15805 -1.55651,1.68501 3.62104,1.38359 -8.22732,2.46799 -4.50736,-2.99151 1.20415,-2.79516 6.43249,-2.06313 6.06387,1.3065 z m -1.91667,-0.61979 c -1.19819,-3.19735 -3.91316,1.34503 0,0 z"
       id="path1326"
       inkscape:connector-curvature="0"
       style="fill:#4c4c4c;fill-opacity:1" />
    <path
       d="m 164.85051,133.01351 c -0.48872,-5.44619 3.00819,-1.79258 1.875,1.48606 1.98607,4.82014 -5.8848,4.62851 -6.26041,0.58165 -0.44712,-2.34462 2.91996,-4.34377 4.38541,-2.06771 z m -1.22916,3.77604 c 5.09809,-4.12461 -4.928,-4.24496 0,0 z"
       id="path1328"
       inkscape:connector-curvature="0"
       style="fill:#4c4c4c;fill-opacity:1" />
    <path
       d="m 174.27239,130.50309 c 0.10715,2.26416 3.74734,2.33849 -0.11826,3.64709 -0.003,1.7265 3.87324,4.92302 -0.64771,3.71926 -1.11224,-1.97993 -3.51302,-7.79734 0.76597,-7.36635 z"
       id="path1330"
       inkscape:connector-curvature="0"
       style="fill:#4c4c4c;fill-opacity:1" />
    <path
       d="m 183.20468,134.44059 c 1.43395,3.2752 -2.81152,5.29638 -1.78835,0.70087 -2.56872,-4.72191 -2.28876,7.4189 -4.36385,0.87411 -0.31068,-2.35335 1.17565,-9.54664 2.17819,-3.75274 0.45715,1.85997 4.18182,-2.53464 3.97401,2.17776 z"
       id="path1332"
       inkscape:connector-curvature="0"
       style="fill:#4c4c4c;fill-opacity:1" />
    <path
       d="m 190.76719,135.06038 c -2.11558,0.53966 -6.68089,1.15805 -1.55651,1.68501 3.62104,1.38359 -8.22732,2.46799 -4.50736,-2.99151 1.20415,-2.79516 6.43249,-2.06313 6.06387,1.3065 z m -1.91667,-0.61979 c -1.19819,-3.19735 -3.91316,1.34503 0,0 z"
       id="path1334"
       inkscape:connector-curvature="0"
       style="fill:#4c4c4c;fill-opacity:1" />
    <path
       d="m 48.168221,146.57193 c 0.652702,2.36429 -6.001602,0.67054 -0.949103,2.2546 4.383,1.6904 -4.166304,6.30664 -3.863397,1.7663 2.92308,2.02216 3.988429,-1.54847 0.411458,-1.23961 -2.171343,-2.96111 2.596378,-3.68854 4.401042,-2.78129 z"
       id="path1336"
       inkscape:connector-curvature="0"
       style="fill:#4c4c4c;fill-opacity:1" />
    <path
       d="m 52.001554,144.73339 c 0.107137,2.26416 3.747358,2.33848 -0.118259,3.64708 -0.0028,1.7265 3.873264,4.92302 -0.64771,3.71927 -1.112228,-1.97994 -3.513014,-7.79732 0.765969,-7.36635 z"
       id="path1338"
       inkscape:connector-curvature="0"
       style="fill:#4c4c4c;fill-opacity:1" />
    <path
       d="m 57.683846,149.59797 c -3.714277,1.76435 3.225618,1.13692 0,0 z m 2.848959,-0.70313 c 1.209941,4.38472 -3.073315,3.21982 -5.344895,2.61131 -0.279519,-4.00045 6.004627,-3.16106 0.148277,-4.18338 0.04806,-2.08536 6.057816,-1.25968 5.196618,1.57207 z"
       id="path1340"
       inkscape:connector-curvature="0"
       style="fill:#4c4c4c;fill-opacity:1" />
    <path
       d="m 64.314055,144.73339 c 0.107137,2.26416 3.747358,2.33848 -0.118259,3.64708 -0.0028,1.7265 3.873264,4.92302 -0.64771,3.71927 -1.112228,-1.97994 -3.513015,-7.79732 0.765969,-7.36635 z"
       id="path1342"
       inkscape:connector-curvature="0"
       style="fill:#4c4c4c;fill-opacity:1" />
    <path
       d="m 73.20468,149.29068 c -2.115573,0.53967 -6.680885,1.15805 -1.556505,1.68501 3.621027,1.38358 -8.227324,2.46799 -4.507364,-2.99152 1.204145,-2.79515 6.43248,-2.06315 6.063869,1.30651 z m -1.916667,-0.61979 c -1.198171,-3.19737 -3.913171,1.34504 0,0 z"
       id="path1344"
       inkscape:connector-curvature="0"
       style="fill:#4c4c4c;fill-opacity:1" />
    <path
       d="m 78.579681,147.2438 c -0.488718,-5.44619 3.008188,-1.79258 1.875,1.48606 1.986073,4.82014 -5.884797,4.62851 -6.260417,0.58165 -0.447117,-2.34462 2.919967,-4.34377 4.385417,-2.06771 z m -1.229167,3.77604 c 5.098093,-4.12459 -4.927991,-4.24495 0,0 z"
       id="path1346"
       inkscape:connector-curvature="0"
       style="fill:#4c4c4c;fill-opacity:1" />
    <path
       d="m 90.678639,146.57193 c 0.05185,1.68596 -6.567914,2.56087 -1.543606,3.94904 4.670246,2.81305 -7.147699,1.9236 -3.183708,-2.66445 0.934868,-1.58882 3.129998,-2.19287 4.727314,-1.28459 z"
       id="path1348"
       inkscape:connector-curvature="0"
       style="fill:#4c4c4c;fill-opacity:1" />
    <path
       d="m 95.074471,147.58234 c -5.499111,3.95278 5.361399,4.46723 0,0 z m 0,-1.33333 c 7.718309,0.3995 -1.373379,11.20451 -3.216145,3.55215 -0.314231,-1.84466 1.258732,-3.84675 3.216145,-3.55215 z"
       id="path1350"
       inkscape:connector-curvature="0"
       style="fill:#4c4c4c;fill-opacity:1" />
    <path
       d="m 105.49635,148.67089 c 1.43395,3.27542 -2.81185,5.29627 -1.78793,0.70066 -2.56946,-4.72166 -2.28903,7.419 -4.364269,0.87431 -1.761407,-4.50125 5.923429,-5.58681 6.152199,-1.57497 z"
       id="path1352"
       inkscape:connector-curvature="0"
       style="fill:#4c4c4c;fill-opacity:1" />
    <path
       d="m 111.20468,147.2438 c -0.48872,-5.44619 3.00819,-1.79258 1.875,1.48606 1.98607,4.82014 -5.8848,4.62851 -6.26041,0.58165 -0.44713,-2.34463 2.91996,-4.34377 4.38541,-2.06771 z m -1.22916,3.77604 c 5.09807,-4.1246 -4.92799,-4.24493 0,0 z"
       id="path1354"
       inkscape:connector-curvature="0"
       style="fill:#4c4c4c;fill-opacity:1" />
    <path
       d="m 114.88176,146.38964 c 4.37943,-1.05064 0.73507,10.40177 -0.2601,3.47377 0.47883,-1.09339 0.17511,-2.31829 0.2601,-3.47377 z m 0,-2.27084 c 4.41949,-1.03376 -0.25222,4.19345 0,0 z"
       id="path1356"
       inkscape:connector-curvature="0"
       style="fill:#4c4c4c;fill-opacity:1" />
    <path
       d="m 120.58489,144.73339 c 0.10713,2.26416 3.74735,2.33848 -0.11826,3.64708 -0.003,1.7265 3.87325,4.92302 -0.64771,3.71926 -1.11224,-1.97992 -3.51302,-7.79733 0.76597,-7.36634 z"
       id="path1358"
       inkscape:connector-curvature="0"
       style="fill:#4c4c4c;fill-opacity:1" />
    <path
       d="m 123.6526,146.38964 c 4.37942,-1.05064 0.73506,10.40177 -0.26009,3.47377 0.47882,-1.09339 0.1751,-2.31829 0.26009,-3.47377 z m 0,-2.27084 c 4.41947,-1.03376 -0.25222,4.19345 0,0 z"
       id="path1360"
       inkscape:connector-curvature="0"
       style="fill:#4c4c4c;fill-opacity:1" />
    <path
       d="m 130.09531,147.58234 c -5.49912,3.95276 5.36138,4.46725 0,0 z m 0,-1.33333 c 7.7183,0.39951 -1.37339,11.2045 -3.21615,3.55215 -0.31423,-1.84467 1.25874,-3.84675 3.21615,-3.55215 z"
       id="path1362"
       inkscape:connector-curvature="0"
       style="fill:#4c4c4c;fill-opacity:1" />
    <path
       d="m 140.51718,148.67089 c 1.43395,3.27542 -2.81185,5.29627 -1.78793,0.70066 -2.56946,-4.72167 -2.28904,7.41901 -4.36427,0.87431 -1.7614,-4.50125 5.92341,-5.58682 6.1522,-1.57497 z"
       id="path1364"
       inkscape:connector-curvature="0"
       style="fill:#4c4c4c;fill-opacity:1" />
    <path
       d="m 146.81406,146.57193 c 0.6527,2.36429 -6.0016,0.67054 -0.9491,2.2546 4.38299,1.6904 -4.16631,6.30664 -3.8634,1.7663 2.92309,2.02216 3.98842,-1.54848 0.41145,-1.23961 -2.17135,-2.96112 2.59639,-3.68854 4.40105,-2.78129 z"
       id="path1366"
       inkscape:connector-curvature="0"
       style="fill:#4c4c4c;fill-opacity:1" />
    <path
       d="m 154.93385,149.59797 c -3.71428,1.76434 3.22561,1.13693 0,0 z m 2.84896,-0.70313 c 1.20994,4.38472 -3.07332,3.21982 -5.3449,2.61131 -0.27951,-4.00046 6.00469,-3.16105 0.14832,-4.18338 0.048,-2.08539 6.0579,-1.25963 5.19658,1.57207 z"
       id="path1368"
       inkscape:connector-curvature="0"
       style="fill:#4c4c4c;fill-opacity:1" />
    <path
       d="m 163.86093,147.97818 c -3.41794,-2.10748 -2.2924,8.09429 -4.29544,2.8131 -1.84956,-4.16497 3.39463,-6.11374 4.29544,-2.8131 z"
       id="path1370"
       inkscape:connector-curvature="0"
       style="fill:#4c4c4c;fill-opacity:1" />
    <path
       d="m 170.62135,149.29068 c -2.11557,0.53967 -6.68088,1.15805 -1.55651,1.68501 3.62103,1.38358 -8.22731,2.46799 -4.50735,-2.99152 1.20414,-2.79515 6.43248,-2.06315 6.06386,1.30651 z m -1.91666,-0.61979 c -1.19818,-3.19737 -3.91317,1.34504 0,0 z"
       id="path1372"
       inkscape:connector-curvature="0"
       style="fill:#4c4c4c;fill-opacity:1" />
    <path
       d="m 181.14218,147.35839 c 4.20754,-5.39905 5.19087,8.64395 2.00847,3.46249 0.17024,-5.5621 -1.93122,-1.05054 -2.58673,1.53735 -0.96429,-1.04093 -2.06723,-7.11452 -3.03945,-2.01264 -1.18225,6.17893 -4.50867,-6.63659 1.23261,-3.75696 0.80047,-0.74106 1.93836,-0.007 2.3851,0.76976 z"
       id="path1374"
       inkscape:connector-curvature="0"
       style="fill:#4c4c4c;fill-opacity:1" />
    <path
       d="m 192.68385,149.29068 c -2.11557,0.53967 -6.68089,1.15805 -1.55651,1.68501 3.62101,1.38359 -8.22732,2.46798 -4.50736,-2.99152 1.20414,-2.79515 6.43248,-2.06315 6.06387,1.30651 z m -1.91667,-0.61979 c -1.19817,-3.19737 -3.91318,1.34504 0,0 z"
       id="path1376"
       inkscape:connector-curvature="0"
       style="fill:#4c4c4c;fill-opacity:1" />
    <path
       d="m 196.12656,144.73339 c 0.10714,2.26416 3.74735,2.33848 -0.11826,3.64708 -0.003,1.72651 3.87327,4.92302 -0.64771,3.71927 -1.11222,-1.97995 -3.51302,-7.79732 0.76597,-7.36635 z"
       id="path1378"
       inkscape:connector-curvature="0"
       style="fill:#4c4c4c;fill-opacity:1" />
    <path
       d="m 199.38698,150.20734 c 4.91006,-0.79965 -0.73816,5.27749 0,0 z"
       id="path1380"
       inkscape:connector-curvature="0"
       style="fill:#4c4c4c;fill-opacity:1" />
  </g>
  <text
     xml:space="preserve"
     style="font-style:normal;font-weight:normal;font-size:10.66666698px;line-height:1.25;font-family:sans-serif;letter-spacing:0px;word-spacing:0px;fill:#000000;fill-opacity:1;stroke:none"
     x="242.05222"
     y="104.89898"
     id="text1070"><tspan
       sodipodi:role="line"
       id="tspan1068"
       x="242.05222"
       y="114.33648" /><tspan
       sodipodi:role="line"
       x="242.05222"
       y="127.66982"
       id="tspan1072" /></text>
  <text
     xml:space="preserve"
     style="font-style:normal;font-weight:normal;font-size:10.66666698px;line-height:1.25;font-family:sans-serif;letter-spacing:0px;word-spacing:0px;fill:#000000;fill-opacity:1;stroke:none"
     x="267.91373"
     y="119.7185"
     id="text1078"><tspan
       sodipodi:role="line"
       id="tspan1076"
       x="267.91373"
       y="129.15601" /><tspan
       sodipodi:role="line"
       x="267.91373"
       y="142.48933"
       id="tspan1080" /></text>
  <g
     id="g1363"
     transform="translate(207.2101,17.634902)">
    <g
       transform="translate(171.64638,17.047072)"
       style="fill:#000000;fill-opacity:0.27572021;filter:url(#filter1348)"
       id="g1346">
      <g
         style="fill:#000000;fill-opacity:0.27572021"
         id="g1340">
        <path
           inkscape:connector-curvature="0"
           id="path2837"
           d="m -262.43268,65.218466 c -40.95272,0 -74.19097,33.238263 -74.19097,74.190974 0,40.95272 33.23825,74.19098 74.19097,74.19098 40.95273,0 74.19099,-33.23826 74.19099,-74.19098 0,-40.952711 -33.23826,-74.190974 -74.19099,-74.190974 z m -3.28614,4.255137 c 12.9894,0 23.55068,10.561275 23.55068,23.550684 0,12.989403 -10.56127,23.508553 -23.55068,23.508553 -12.98941,0 -23.50856,-10.51915 -23.50856,-23.508553 0,-12.989409 10.51915,-23.550684 23.50856,-23.550684 z M -219.9656,99.2174 c 12.98942,3e-6 23.55069,10.56128 23.55069,23.55068 0,12.98941 -10.56127,23.50856 -23.55069,23.50856 -12.98942,-10e-6 -23.50857,-10.51915 -23.50857,-23.50856 10e-6,-12.9894 10.51915,-23.55068 23.50857,-23.55068 z m -87.2513,4.88708 c 12.98941,0 23.55069,10.56128 23.55069,23.55069 0,12.9894 -10.56128,23.55068 -23.55069,23.55068 -12.9894,0 -23.55068,-10.56128 -23.55068,-23.55068 0,-12.98941 10.56128,-23.55069 23.55068,-23.55069 z m 44.6157,25.19376 c 4.60041,0 8.34174,3.74133 8.34174,8.34174 0,4.60042 -3.74133,8.29962 -8.34174,8.29962 -4.60042,0 -8.34174,-3.6992 -8.34174,-8.29962 0,-4.60041 3.74133,-8.34174 8.34174,-8.34174 z m 27.9322,21.90761 c 12.98942,0 23.55072,10.51915 23.55072,23.50856 0,12.98941 -10.5613,23.55068 -23.55072,23.55068 -12.9894,0 -23.50855,-10.56128 -23.50855,-23.55068 0,-12.98941 10.51915,-23.50856 23.50855,-23.50856 z m -52.95743,1.93798 c 12.9894,1e-5 23.55068,10.56128 23.55068,23.55069 0,12.98941 -10.56128,23.50855 -23.55068,23.50855 -12.98942,0 -23.50856,-10.51914 -23.50856,-23.50855 0,-12.98941 10.51915,-23.55069 23.50856,-23.55069 z"
           style="fill:#000000;fill-opacity:0.27572021;stroke:none;stroke-width:3.11728644" />
        <path
           inkscape:connector-curvature="0"
           id="path1329"
           d="m -264.30859,66.242188 c -34.1355,0.231709 -65.36347,27.430931 -70.337,61.215112 -5.9605,32.48436 13.24535,67.07436 43.7452,79.39426 30.30888,13.42153 68.72884,2.67795 87.70987,-24.48017 20.11553,-26.59826 18.1457,-67.07373 -4.57778,-91.608661 -14.06232,-15.974344 -35.2613,-25.19392 -56.54029,-24.520541 z m -1.41016,2.230468 c 15.00307,-0.512921 27.54028,14.962394 24.04687,29.517578 -2.59998,15.166576 -21.09251,24.256486 -34.69726,17.115236 -14.03762,-6.17951 -18.43111,-26.228122 -8.25,-37.708986 4.56922,-5.597134 11.67163,-8.967132 18.90039,-8.923828 z m 45.75391,29.744141 c 15.00192,-0.513277 27.54131,14.962933 24.04492,29.517583 -2.59775,15.16576 -21.09194,24.25662 -34.69531,17.11523 -14.03723,-6.17978 -18.43335,-26.22863 -8.25,-37.70899 4.5673,-5.5976 11.67253,-8.968637 18.90039,-8.923823 z m -87.25196,4.886723 c 15.00395,-0.51286 27.54072,14.96376 24.04688,29.51953 -2.58354,15.10183 -20.92703,24.24977 -34.52998,17.22785 -13.73459,-5.9425 -18.57453,-25.21611 -9.17119,-36.89582 4.53619,-6.13005 12.02399,-9.90398 19.65429,-9.85156 z m 44.61524,25.19531 c 7.99506,-0.43641 12.58393,10.61714 6.58398,15.94336 -5.36316,5.89686 -16.36965,1.35989 -15.92578,-6.62891 -0.0759,-5.02204 4.31323,-9.4076 9.3418,-9.31445 z m 27.93164,21.90625 c 14.9971,-0.52813 27.54656,14.92562 24.04687,29.47656 -2.58873,15.17409 -21.08556,24.31211 -34.69726,17.14844 -14.0177,-6.19953 -18.444,-26.24717 -8.2461,-37.72656 4.57079,-5.59005 11.67398,-8.94238 18.89649,-8.89844 z m -52.95703,1.93945 c 15.00278,-0.517 27.54135,14.96119 24.04687,29.51563 -2.59946,15.16779 -21.09095,24.255 -34.69726,17.11718 -14.0355,-6.18324 -18.43257,-26.2305 -8.24805,-37.71093 4.5677,-5.59652 11.67088,-8.9683 18.89844,-8.92188 z"
           style="fill:#000000;fill-opacity:0.27572021;stroke:none;stroke-width:3.11728644" />
        <path
           inkscape:connector-curvature="0"
           id="path1333"
           d="m -264.28906,67.242188 c -35.62702,0.05168 -67.78963,30.564107 -70.13636,65.911082 -3.37432,32.80481 19.21706,66.48257 51.06995,75.45415 32.2262,10.11166 69.97193,-5.63168 85.09375,-35.89648 15.73279,-29.72423 7.52795,-69.79338 -19.54769,-90.049911 -13.0867,-10.297547 -29.81328,-15.949288 -46.47965,-15.418841 z m -0.73047,0.21875 c 16.67868,-0.202102 29.66584,18.824369 23.39648,34.314452 -5.17635,15.28391 -26.08249,22.00614 -39,12.07031 -13.19937,-9.03065 -14.30704,-30.849644 -1.28125,-40.574216 4.70361,-3.873055 10.79258,-5.96791 16.88477,-5.810546 z m 45.75391,29.74414 c 16.67648,-0.201864 29.66612,18.821952 23.39453,34.310542 -5.16946,15.28766 -26.08152,22.01047 -38.99805,12.07422 -13.2008,-9.03044 -14.30689,-30.84833 -1.2832,-40.57422 4.70474,-3.874315 10.79342,-5.96804 16.88672,-5.810542 z m -87.25196,4.886722 c 16.67319,-0.20135 29.6582,18.81246 23.40235,34.30078 -5.12319,15.20269 -25.83944,22.04207 -38.78907,12.26758 -13.10118,-8.75889 -14.71686,-30.07844 -2.24609,-40.13477 4.80427,-4.25691 11.21237,-6.60655 17.63281,-6.43359 z m 44.2793,25.19531 c 9.36373,-0.28508 13.65741,13.71202 5.75,18.74219 -7.1693,5.74145 -19.06541,-2.14756 -16.13867,-10.98242 1.16173,-4.5684 5.65236,-7.99622 10.38867,-7.75977 z m 28.26758,21.9043 c 16.67249,-0.2186 29.67134,18.79079 23.39843,34.27734 -5.0852,15.02789 -25.45444,21.93029 -38.41992,12.49219 -13.68967,-8.7786 -15.12128,-31.11416 -1.85742,-40.97656 4.70552,-3.86877 10.79111,-5.94368 16.87891,-5.79297 z m -52.95703,1.9414 c 16.67876,-0.20607 29.6662,18.82324 23.39648,34.3125 -5.17851,15.28914 -26.10949,22.02242 -39.02539,12.05469 -13.17547,-9.0463 -14.27156,-30.83803 -1.25586,-40.55859 4.70427,-3.87302 10.79226,-5.96698 16.88477,-5.8086 z"
           style="fill:#000000;fill-opacity:0.27572021;stroke:none;stroke-width:3.11728644" />
      </g>
    </g>
    <path
       inkscape:connector-curvature="0"
       style="fill:url(#radialGradient3890);fill-opacity:1;stroke:url(#linearGradient4220);stroke-width:1.76580143;stroke-linecap:round;stroke-linejoin:round;stroke-miterlimit:4;stroke-dasharray:none;stroke-dashoffset:0;stroke-opacity:1"
       d="m -95.907832,73.071031 c -40.952718,0 -74.190978,33.238259 -74.190978,74.190979 0,40.95271 33.23826,74.19097 74.190978,74.19097 40.952717,0 74.190971,-33.23826 74.190971,-74.19097 0,-40.95272 -33.238254,-74.190979 -74.190971,-74.190979 z m -3.28614,4.255134 c 12.989405,0 23.550684,10.561276 23.550684,23.550685 0,12.9894 -10.561276,23.50855 -23.550684,23.50855 -12.989408,0 -23.508558,-10.51915 -23.508558,-23.50855 0,-12.989409 10.51915,-23.550685 23.508558,-23.550685 z m 45.753204,29.743795 c 12.989421,1e-5 23.550694,10.56128 23.550694,23.55069 0,12.9894 -10.561273,23.50855 -23.550694,23.50855 -12.989408,0 -23.508551,-10.51915 -23.508551,-23.50855 3e-6,-12.98941 10.519149,-23.55069 23.508551,-23.55069 z m -87.251282,4.88708 c 12.98941,0 23.55069,10.56128 23.55069,23.55069 -10e-6,12.98941 -10.56128,23.55069 -23.55069,23.55069 -12.9894,0 -23.55068,-10.56128 -23.55068,-23.55069 0,-12.98941 10.56128,-23.55069 23.55068,-23.55069 z m 44.615701,25.19376 c 4.60041,0 8.341743,3.74133 8.341743,8.34175 0,4.60041 -3.74133,8.29961 -8.341743,8.29961 -4.600421,0 -8.341751,-3.6992 -8.341751,-8.29961 0,-4.60042 3.74133,-8.34175 8.341751,-8.34175 z m 27.932208,21.90762 c 12.989395,-1e-5 23.550699,10.51914 23.550699,23.50855 0,12.98941 -10.561304,23.55068 -23.550699,23.55068 -12.989405,0 -23.508557,-10.56128 -23.508557,-23.55068 0,-12.98941 10.519148,-23.50855 23.508557,-23.50855 z m -52.957439,1.93798 c 12.9894,0 23.55068,10.56127 23.55068,23.55068 0,12.98941 -10.56128,23.50856 -23.55068,23.50856 -12.98942,0 -23.50856,-10.51915 -23.50856,-23.50856 0,-12.9894 10.51915,-23.55068 23.50856,-23.55068 z"
       id="path2835" />
    <circle
       r="23.744337"
       cy="100.98431"
       cx="-99.182655"
       id="path4222"
       style="opacity:1;fill:none;fill-opacity:0.83333327;stroke:url(#linearGradient4230);stroke-width:1.66495466;stroke-linecap:round;stroke-linejoin:round;stroke-miterlimit:4;stroke-dasharray:none;stroke-dashoffset:0;stroke-opacity:1" />
    <circle
       style="opacity:1;fill:none;fill-opacity:0.83333327;stroke:url(#linearGradient4234);stroke-width:1.66495466;stroke-linecap:round;stroke-linejoin:round;stroke-miterlimit:4;stroke-dasharray:none;stroke-dashoffset:0;stroke-opacity:1"
       id="circle4232"
       cx="-53.779659"
       cy="130.75676"
       r="23.744337" />
    <circle
       r="23.744337"
       cy="182.61046"
       cx="-68.417786"
       id="circle4236"
       style="opacity:1;fill:none;fill-opacity:0.83333327;stroke:url(#linearGradient4238);stroke-width:1.66495466;stroke-linecap:round;stroke-linejoin:round;stroke-miterlimit:4;stroke-dasharray:none;stroke-dashoffset:0;stroke-opacity:1" />
    <circle
       style="opacity:1;fill:none;fill-opacity:0.83333327;stroke:url(#linearGradient4242);stroke-width:1.66495466;stroke-linecap:round;stroke-linejoin:round;stroke-miterlimit:4;stroke-dasharray:none;stroke-dashoffset:0;stroke-opacity:1"
       id="circle4240"
       cx="-122.00822"
       cy="184.59529"
       r="23.744337" />
    <circle
       r="23.744337"
       cy="135.71884"
       cx="-140.61601"
       id="circle4244"
       style="opacity:1;fill:none;fill-opacity:0.83333327;stroke:url(#linearGradient4246);stroke-width:1.66495466;stroke-linecap:round;stroke-linejoin:round;stroke-miterlimit:4;stroke-dasharray:none;stroke-dashoffset:0;stroke-opacity:1" />
  </g>
</svg>
