<?xml version="1.0" encoding="UTF-8" standalone="no"?>
<svg
   xmlns:dc="http://purl.org/dc/elements/1.1/"
   xmlns:cc="http://creativecommons.org/ns#"
   xmlns:rdf="http://www.w3.org/1999/02/22-rdf-syntax-ns#"
   xmlns:svg="http://www.w3.org/2000/svg"
   xmlns="http://www.w3.org/2000/svg"
   xmlns:xlink="http://www.w3.org/1999/xlink"
   xmlns:sodipodi="http://sodipodi.sourceforge.net/DTD/sodipodi-0.dtd"
   xmlns:inkscape="http://www.inkscape.org/namespaces/inkscape"
   version="1.1"
   sodipodi:docname="application-rtf.svg"
   height="256"
   width="256"
   inkscape:version="1.0 (4035a4f, 2020-05-01)"
   id="svg2">
  <metadata
     id="metadata8">
    <rdf:RDF>
      <cc:Work>
        <dc:format>image/svg+xml</dc:format>
        <dc:type
           rdf:resource="http://purl.org/dc/dcmitype/StillImage" />
        <dc:title />
      </cc:Work>
    </rdf:RDF>
  </metadata>
  <defs
     id="defs6">
    <linearGradient
       id="linearGradient4693">
      <stop
         stop-opacity="1"
         stop-color="#1f1f1f"
         id="stop4695" />
      <stop
         stop-opacity="1"
         stop-color="#5a5a5a"
         id="stop4697"
         offset="1" />
    </linearGradient>
    <linearGradient
       id="linearGradient3578">
      <stop
         stop-opacity="1"
         stop-color="#000000"
         id="stop3580" />
      <stop
         stop-opacity="1"
         stop-color="#fffcfc"
         id="stop3582"
         offset="1" />
    </linearGradient>
    <linearGradient
       id="linearGradient2284">
      <stop
         stop-opacity="1"
         stop-color="#000000"
         id="stop2290" />
      <stop
         stop-opacity="1"
         stop-color="#5c5c5c"
         offset="1"
         id="stop2292" />
    </linearGradient>
    <linearGradient
       id="linearGradient2768">
      <stop
         stop-opacity="0.637"
         stop-color="#000000"
         id="stop2770" />
      <stop
         stop-opacity="0"
         stop-color="#000000"
         offset="1"
         id="stop2772" />
    </linearGradient>
    <linearGradient
       id="linearGradient2776">
      <stop
         stop-opacity="0.682"
         stop-color="#000000"
         id="stop2778" />
      <stop
         stop-opacity="0"
         stop-color="black"
         offset="1"
         id="stop2780" />
    </linearGradient>
    <linearGradient
       id="linearGradient2784">
      <stop
         stop-opacity="0.853"
         stop-color="#000000"
         id="stop2786" />
      <stop
         stop-opacity="0"
         stop-color="#000000"
         offset="1"
         id="stop2788" />
    </linearGradient>
    <linearGradient
       id="linearGradient2843">
      <stop
         stop-opacity="1"
         stop-color="#000000"
         id="stop2845" />
      <stop
         stop-opacity="1"
         stop-color="white"
         offset="1"
         id="stop2847" />
    </linearGradient>
    <linearGradient
       id="linearGradient2760-7">
      <stop
         stop-opacity="1"
         stop-color="#82795b"
         id="stop2762" />
      <stop
         stop-opacity="1"
         stop-color="#ddc995"
         id="stop2772-6"
         offset="0.25" />
      <stop
         stop-opacity="1"
         stop-color="#59410b"
         id="stop2768"
         offset="0.5" />
      <stop
         stop-opacity="1"
         stop-color="#2f2004"
         offset="0.75"
         id="stop2770-7" />
      <stop
         stop-opacity="1"
         stop-color="black"
         offset="1"
         id="stop2764" />
    </linearGradient>
    <linearGradient
       inkscape:collect="always"
       id="linearGradient2778">
      <stop
         stop-opacity="1"
         stop-color="#b8ab8b"
         id="stop2780-7" />
      <stop
         stop-opacity="0"
         stop-color="#b8ab8b"
         offset="1"
         id="stop2782" />
    </linearGradient>
    <linearGradient
       inkscape:collect="always"
       id="linearGradient2793-1">
      <stop
         stop-opacity="1"
         stop-color="black"
         id="stop2795-5" />
      <stop
         style="stop-color:#7b7b7b;stop-opacity:1"
         stop-opacity="1"
         stop-color="#986914"
         offset="1"
         id="stop2797-9" />
    </linearGradient>
    <linearGradient
       y2="47.654"
       x2="246.56"
       y1="65.17"
       x1="262.91"
       spreadMethod="reflect"
       gradientUnits="userSpaceOnUse"
       id="linearGradient4745"
       xlink:href="#linearGradient2843"
       inkscape:collect="always" />
    <linearGradient
       y2="86.86"
       x2="30.952"
       y1="110.84"
       x1="31.33"
       spreadMethod="reflect"
       gradientUnits="userSpaceOnUse"
       id="linearGradient4747"
       xlink:href="#linearGradient2793-1"
       inkscape:collect="always" />
    <linearGradient
       y2="142.52"
       x2="202.42"
       y1="106.03"
       x1="168.79"
       gradientUnits="userSpaceOnUse"
       id="linearGradient4749"
       xlink:href="#linearGradient2760-7"
       inkscape:collect="always" />
    <linearGradient
       y2="130.07"
       x2="207.23"
       y1="115.47"
       x1="188.26"
       gradientUnits="userSpaceOnUse"
       id="linearGradient4751"
       xlink:href="#linearGradient2778"
       inkscape:collect="always" />
    <filter
       height="1.0293489"
       y="-0.014674462"
       width="1.0203002"
       x="-0.010150113"
       id="filter892"
       style="color-interpolation-filters:sRGB"
       inkscape:collect="always">
      <feGaussianBlur
         id="feGaussianBlur894"
         stdDeviation="0.84562281"
         inkscape:collect="always" />
    </filter>
    <linearGradient
       id="linearGradient874"
       inkscape:collect="always">
      <stop
         id="stop870"
         offset="0"
         style="stop-color:#ffffff;stop-opacity:0.5437417" />
      <stop
         id="stop872"
         offset="1"
         style="stop-color:#ffffff;stop-opacity:0;" />
    </linearGradient>
    <linearGradient
       inkscape:collect="always"
       xlink:href="#linearGradient2284"
       id="linearGradient4358"
       gradientUnits="userSpaceOnUse"
       gradientTransform="matrix(0.99192614,0,0,0.99512885,-4.7489159,-1.5895582)"
       x1="141.34"
       y1="252.2"
       x2="134.26"
       y2="9.01" />
    <linearGradient
       inkscape:collect="always"
       xlink:href="#linearGradient4693"
       id="linearGradient4360"
       gradientUnits="userSpaceOnUse"
       gradientTransform="matrix(0.99192614,0,0,0.99512885,-4.7489159,-1.5895582)"
       x1="176.83"
       y1="236.48"
       x2="52.49"
       y2="13.04" />
    <linearGradient
       inkscape:collect="always"
       xlink:href="#linearGradient2768"
       id="linearGradient4362"
       gradientUnits="userSpaceOnUse"
       gradientTransform="translate(2.727155,101.9956)"
       x1="227.38"
       y1="37.25"
       x2="158.17"
       y2="114.14" />
    <linearGradient
       inkscape:collect="always"
       xlink:href="#linearGradient2776"
       id="linearGradient4364"
       gradientUnits="userSpaceOnUse"
       gradientTransform="translate(1.090862,103.6319)"
       x1="224.81"
       y1="27.97"
       x2="168.54"
       y2="98.26" />
    <linearGradient
       inkscape:collect="always"
       xlink:href="#linearGradient2784"
       id="linearGradient4366"
       gradientUnits="userSpaceOnUse"
       x1="227.38"
       y1="132.29"
       x2="183.26"
       y2="183.27" />
    <radialGradient
       inkscape:collect="always"
       xlink:href="#linearGradient2843"
       id="radialGradient4368"
       gradientUnits="userSpaceOnUse"
       gradientTransform="matrix(0.754607,0.03976438,-0.04166753,0.790723,50.88446,29.53464)"
       spreadMethod="reflect"
       cx="176.72"
       cy="180.44"
       fx="176.72"
       fy="180.44"
       r="31.04" />
    <filter
       color-interpolation-filters="sRGB"
       inkscape:collect="always"
       id="filter884"
       x="-0.013"
       width="1.025"
       y="-0.011"
       height="1.023">
      <feGaussianBlur
         inkscape:collect="always"
         id="feGaussianBlur886" />
    </filter>
    <linearGradient
       gradientUnits="userSpaceOnUse"
       y2="68.36573"
       x2="69.533279"
       y1="16.594757"
       x1="24.913132"
       id="linearGradient876"
       xlink:href="#linearGradient874"
       inkscape:collect="always" />
  </defs>
  <sodipodi:namedview
     inkscape:document-rotation="0"
     inkscape:current-layer="svg2"
     inkscape:window-maximized="1"
     inkscape:window-y="0"
     inkscape:window-x="0"
     inkscape:cy="128"
     inkscape:cx="128"
     inkscape:zoom="3.4023438"
     showgrid="false"
     id="namedview4"
     inkscape:window-height="1056"
     inkscape:window-width="1920"
     inkscape:pageshadow="2"
     inkscape:pageopacity="0"
     guidetolerance="10"
     gridtolerance="10"
     objecttolerance="10"
     borderopacity="1"
     bordercolor="#666666"
     pagecolor="#ff0000" />
  <g
     transform="translate(4.0311491,-2.8557536)"
     id="g1060">
    <g
       fill-opacity="0.222"
       filter="url(#filter884)"
       fill="#000000"
       id="g924"
       transform="matrix(1.029152,0,0,1.0324749,262.34373,-8.00892)">
      <g
         fill-opacity="0.222"
         fill="#000000"
         id="g916">
        <path
           stroke-width="1.283"
           fill-opacity="0.222"
           stroke="none"
           fill-rule="evenodd"
           fill="#000000"
           inkscape:connector-curvature="0"
           d="m -85.198007,20.170582 c -44.130583,9.73114 -89.694133,17.347863 -135.056483,12.017738 -4.80994,5.035301 -2.78354,13.576212 -4.54807,19.969327 -7.9112,64.051963 -9.18724,129.603143 3.49388,193.127163 10.52265,5.39408 23.37012,4.70334 35.05921,5.32011 55.52399,-0.13442 107.982063,-25.66059 163.790686,-21.1028 4.271067,-3.75776 -1.977521,-9.37264 -2.53005,-13.64421 -16.207181,-45.27886 -9.280941,-94.29421 -4.075726,-140.928483 0.98699,-11.173054 -7.483311,-20.188606 -14.150911,-28.1362 -10.794347,-11.250643 -23.992721,-19.956291 -37.344106,-27.676833 -1.54615,0.351396 -3.09228,0.702792 -4.63843,1.054188 z"
           id="path2824" />
        <path
           stroke-width="1.283"
           fill-opacity="0.222"
           stroke="none"
           fill-rule="evenodd"
           fill="#000000"
           d="m -84.975811,21.145096 c -44.123789,9.806146 -89.739079,17.203912 -134.941409,12.166015 -4.48107,6.745139 -2.26141,15.430661 -4.37805,23.002628 -7.43764,62.437611 -8.42036,126.379881 3.87219,188.292291 13.89753,6.10329 29.61645,4.75848 44.50196,4.69141 51.48975,-2.91834 100.950623,-24.95398 153.097653,-20.83203 2.606929,-4.56896 -3.057325,-8.66267 -3.468419,-13.3054 -15.71053,-44.96859 -9.037827,-93.46634 -3.844141,-139.647941 1.056975,-13.532165 -10.058822,-23.85583 -18.657579,-32.774843 -9.623756,-8.851203 -20.64941,-16.014746 -31.928299,-22.558927 -1.417968,0.322265 -2.835937,0.644531 -4.253906,0.966797 z"
           id="path925"
           inkscape:connector-curvature="0" />
        <path
           stroke-width="1.283"
           fill-opacity="0.222"
           stroke="none"
           fill-rule="evenodd"
           fill="#000000"
           d="m -84.755108,22.119705 c -44.033402,9.889227 -89.638272,16.993981 -134.714842,12.361328 -3.97148,8.042474 -2.05468,17.456826 -4.29967,25.983249 -6.97287,60.889138 -7.67134,123.141808 4.2274,183.426908 16.86104,6.64367 35.52641,4.57225 53.15821,3.65039 47.82072,-4.94461 94.501163,-23.58815 143.013668,-20.26758 0.7237,-5.0671 -4.224472,-8.8775 -4.59375,-13.91601 -14.978067,-44.978 -8.121494,-93.11208 -3.107422,-139.142582 -0.117941,-14.415503 -12.496233,-24.703348 -22.048828,-33.964844 -8.521069,-7.221522 -18.043151,-13.35859 -27.765625,-19.009765 -1.289714,0.292968 -2.579427,0.585937 -3.869141,0.878906 z"
           id="path929"
           inkscape:connector-curvature="0" />
        <path
           stroke-width="1.283"
           fill-opacity="0.222"
           stroke="none"
           fill-rule="evenodd"
           fill="#000000"
           d="m -84.534405,23.094314 c -43.916815,9.968018 -89.427015,16.766192 -134.384765,12.56836 -3.51399,9.230763 -2.03793,19.38365 -4.30547,28.945969 -6.51022,59.304427 -6.95192,119.844357 4.55937,178.544267 19.59734,7.01783 40.85021,4.23227 61.10352,2.31836 44.38017,-6.07413 87.913033,-22.06922 133.259767,-19.25586 -0.910537,-5.48563 -4.967787,-9.97391 -5.59905,-15.62697 -13.940748,-44.68422 -6.769332,-92.1975 -2.215403,-137.638657 -1.335999,-14.961303 -14.546371,-25.143282 -24.873047,-34.580078 -7.565475,-6.003009 -15.724886,-11.210793 -24.0625,-16.066406 -1.160807,0.263672 -2.321614,0.527343 -3.482422,0.791015 z"
           id="path933"
           inkscape:connector-curvature="0" />
        <path
           stroke-width="1.283"
           fill-opacity="0.222"
           stroke="none"
           fill-rule="evenodd"
           fill="#000000"
           d="m -84.313701,24.068924 c -43.774069,10.056451 -89.192759,16.503128 -133.980469,12.802734 -3.10264,10.803813 -2.31547,22.322281 -4.5293,33.40625 -5.89436,57.202952 -5.9902,115.568462 5.03125,172.115232 23.00989,7.54096 47.78243,3.54392 71.34721,0.34474 39.90429,-7.0178 80.295349,-19.56926 120.840293,-17.79005 -2.926996,-6.61968 -5.628715,-13.28237 -7.085938,-20.41016 -11.579621,-43.25615 -4.61341,-88.40836 -0.488281,-132.156246 -2.294187,-16.037387 -16.696362,-26.20013 -28.083605,-36.028488 -6.720766,-4.489676 -13.50484,-10.297863 -20.93062,-12.765649 -0.706847,0.160546 -1.413694,0.321091 -2.12054,0.481637 z"
           id="path937"
           inkscape:connector-curvature="0" />
      </g>
    </g>
    <path
       style="fill:url(#linearGradient4358);stroke:url(#linearGradient4360)"
       stroke-width="2.682"
       stroke-linecap="round"
       fill-opacity="1"
       stroke-linejoin="round"
       stroke="url(#linearGradient4360)"
       fill-rule="evenodd"
       fill="url(#linearGradient4358)"
       stroke-opacity="1"
       stroke-dasharray="none"
       stroke-miterlimit="4"
       inkscape:connector-curvature="0"
       d="M 27.712729,18.77545 C 71.729442,24.207673 120.97199,17.057403 172.16698,5.2060991 193.56207,19.538682 215.64047,33.459934 223.02356,56.226857 217.91856,110.32334 207.78463,164.41982 231.67999,218.51631 164.59262,212.46777 94.800107,252.68112 28.794773,236.42786 14.890826,166.27476 17.149231,93.260276 27.712729,18.77545 Z"
       id="path1873"
       sodipodi:nodetypes="cccccc" />
    <g
       id="g2792"
       transform="matrix(0.99192616,0,0,0.99512886,-9.6181508,-109.60164)">
      <path
         style="fill:url(#linearGradient4362)"
         fill-opacity="1"
         stroke="none"
         fill-rule="evenodd"
         fill="url(#linearGradient4362)"
         inkscape:connector-curvature="0"
         sodipodi:nodetypes="cccc"
         id="path2766"
         d="m 156.53869,211.36553 c 13.28542,-17.44929 34.02093,-77.54136 27.27153,-97.63214 21.56922,14.40274 43.82734,28.39213 51.27051,51.2705 -22.05844,6.72055 -54.13461,50.39418 -78.54204,46.36164 z" />
      <path
         style="fill:url(#linearGradient4364)"
         fill-opacity="1"
         stroke="none"
         fill-rule="evenodd"
         fill="url(#linearGradient4364)"
         inkscape:connector-curvature="0"
         d="m 162.53843,201.54777 c 13.28542,-17.44929 26.3849,-66.08731 19.6355,-86.17809 21.56922,14.40274 43.82734,28.39214 51.27051,51.27051 -22.05844,6.72055 -46.49858,38.94012 -70.90601,34.90758 z"
         id="path2764"
         sodipodi:nodetypes="cccc" />
      <path
         style="fill:url(#linearGradient4366)"
         fill-opacity="1"
         stroke="none"
         fill-rule="evenodd"
         fill="url(#linearGradient4366)"
         inkscape:connector-curvature="0"
         sodipodi:nodetypes="cccc"
         id="path1877"
         d="m 167.44731,190.09372 c 13.28542,-17.44929 23.65775,-54.08783 16.90835,-74.17861 21.56922,14.40274 43.82734,28.39214 51.27051,51.27051 -22.05844,6.72055 -43.77143,26.94064 -68.17886,22.9081 z" />
      <path
         style="fill:url(#radialGradient4368)"
         stroke-width="1.764"
         stroke-linecap="butt"
         fill-opacity="1"
         stroke-linejoin="round"
         stroke="#4e4e4e"
         fill-rule="evenodd"
         fill="url(#radialGradient4368)"
         stroke-opacity="1"
         stroke-dasharray="none"
         stroke-miterlimit="4"
         inkscape:connector-curvature="0"
         d="m 173.99247,172.0945 c 13.28542,-17.44929 16.56715,-37.17947 9.81775,-57.27025 21.56922,14.40274 43.82734,28.39214 51.27051,51.27051 -22.05844,6.72055 -36.68083,10.03228 -61.08826,5.99974 z"
         id="path1875"
         sodipodi:nodetypes="cccc" />
    </g>
    <path
       sodipodi:nodetypes="ccc"
       id="path868"
       d="M 25.212642,92.391646 C 26.846004,69.66327 28.069346,47.234154 31.843999,22.942924 64.84702,26.092022 99.632028,23.449664 135.73649,16.519078"
       style="fill:none;stroke:url(#linearGradient876);stroke-width:2.3;stroke-linecap:butt;stroke-linejoin:miter;stroke-miterlimit:4;stroke-dasharray:none;stroke-opacity:1" />
  </g>
  <g
     transform="translate(340.71726,24.364923)"
     style="fill:#000000;fill-opacity:0.31275719;filter:url(#filter892)"
     id="g904">
    <g
       style="fill:#000000;fill-opacity:0.31275719"
       id="g897">
      <path
         inkscape:connector-curvature="0"
         id="path2811"
         d="m -292.12301,87.441716 c 2.54471,-0.05205 5.25115,0.326476 8.07154,1.232264 l 52.93787,44.56563 c 0.0137,0.008 0.025,0.0207 0.0386,0.0272 0.65966,0.32196 1.31992,0.70771 1.9361,1.16122 3.22614,2.37446 5.16772,6.15323 5.7292,10.34092 15.23511,11.28443 33.9044,19.06905 49.94089,31.13895 l 59.82152,49.83025 c -24.85661,-9.62711 -49.9994,-24.22152 -73.80866,-15.97468 -9.48201,-18.97434 -26.65738,-35.80796 -48.17211,-43.88087 -3.59759,1.20014 -7.42749,0.92117 -10.67835,-1.05628 l -0.0393,0.11791 -62.65348,-35.8205 c -11.03487,-19.25887 -0.9366,-41.317572 16.87633,-41.682071 z"
         style="fill:#000000;fill-opacity:0.31275719;fill-rule:evenodd;stroke:none;stroke-width:0.87013304" />
      <path
         inkscape:connector-curvature="0"
         id="path881"
         d="m -292.91016,88.474609 c -14.56061,0.675314 -22.44793,17.486641 -18.99414,30.400391 1.03442,5.7591 3.71853,11.19745 9.72141,12.99394 19.83464,10.94138 39.36186,23.29282 59.35477,33.36153 4.00894,1.11829 7.98352,-1.47951 11.59179,1.35547 19.00863,8.32608 34.81077,23.53357 44.27735,41.95898 21.0303,-6.68076 42.41166,3.34358 61.54234,11.29209 8.74771,4.34907 3.84988,0.36986 -1.42705,-3.79 -18.4175,-14.70177 -35.69291,-31.04071 -54.86334,-44.67787 -13.81881,-9.31689 -29.85699,-15.97206 -42.69141,-26.44726 -0.64165,-9.04395 -10.45077,-12.18155 -15.77437,-18.00035 -15.12999,-12.42814 -29.80053,-25.70699 -45.21781,-37.603171 -2.43948,-0.678934 -4.9888,-0.993851 -7.51954,-0.84375 z"
         style="fill:#000000;fill-opacity:0.31275719;fill-rule:evenodd;stroke:none;stroke-width:0.87013304" />
      <path
         inkscape:connector-curvature="0"
         id="path885"
         d="m -292.84766,89.472656 c -14.7436,0.798128 -22.03921,18.542414 -17.61523,31.306644 0.98413,6.00404 6.04598,9.73656 11.38764,11.67454 19.23028,10.54 37.67422,22.71165 57.49713,32.00905 4.30057,-0.19134 8.90028,-0.8847 12.54687,2.02149 18.30396,8.31846 33.23761,23.60968 42.78711,40.79687 21.16677,-6.12261 42.4524,3.76798 61.63281,11.83594 -26.06636,-20.36835 -49.34558,-44.83032 -79.30469,-59.66797 -7.35836,-4.36751 -15.43843,-8.51756 -21.47656,-14.42383 -1.25269,-9.62585 -12.01789,-12.73164 -17.77368,-19.27995 -14.52159,-11.79281 -28.22336,-24.87625 -43.39429,-35.696612 -2.05398,-0.48745 -4.17803,-0.700936 -6.28711,-0.576172 z"
         style="fill:#000000;fill-opacity:0.31275719;fill-rule:evenodd;stroke:none;stroke-width:0.87013304" />
      <path
         inkscape:connector-curvature="0"
         id="path889"
         d="m -292.77734,90.470703 c -14.19767,0.89949 -21.06574,18.113087 -16.70313,30.124997 1.72116,9.6362 13.16925,11.02764 19.8163,16.00788 15.98081,9.16978 31.61843,19.00411 48.28526,26.84759 5.78426,-1.0374 11.43425,0.5443 16.20703,3.78906 16.83493,8.43426 30.16348,23.18144 39.67383,38.79688 18.61117,-4.95897 37.59006,2.13531 54.59766,9.33984 -24.48341,-20.15382 -47.60902,-42.60578 -76.30859,-56.69531 -6.57778,-4.17509 -14.63625,-7.64706 -19.23438,-13.92773 -2.15328,-9.67641 -13.01514,-12.6633 -18.96061,-19.5494 -14.08384,-11.37609 -27.12324,-24.30295 -42.1097,-34.341229 -1.72888,-0.350102 -3.50155,-0.496829 -5.26367,-0.392578 z"
         style="fill:#000000;fill-opacity:0.31275719;fill-rule:evenodd;stroke:none;stroke-width:0.87013304" />
    </g>
  </g>
  <g
     transform="matrix(-1.1123772,0,0,1.1123772,360.5195,59.15751)"
     id="g2831">
    <path
       inkscape:connector-curvature="0"
       d="m 207.59357,66.400756 40.86201,-51.807183 c 21.97169,-8.8953498 49.52859,18.023379 44.87523,42.321361 l -54.36106,41.591682 z"
       id="path2801"
       sodipodi:nodetypes="ccccc"
       stroke-miterlimit="4"
       style="fill:url(#linearGradient4745);fill-opacity:1;fill-rule:evenodd;stroke:#000000;stroke-width:0.5;stroke-linecap:butt;stroke-linejoin:miter;stroke-miterlimit:4;stroke-dasharray:none;stroke-opacity:1" />
    <ellipse
       id="path2791"
       transform="matrix(0.754505,-0.795229,0.793617,0.756037,126.261,33.57584)"
       style="fill:url(#linearGradient4747);fill-opacity:1;stroke:none"
       cx="29.004726"
       cy="94.675804"
       rx="12.586957"
       ry="20.613422" />
    <path
       inkscape:connector-curvature="0"
       d="m 117.47826,170.37996 45.24008,-56.55009 c 15.10379,-16.40351 36.94499,-26.4296 48.52363,-43.78072 11.86772,-4.225752 29.46553,13.370488 21.52552,27.72779 -23.70256,8.82295 -37.45792,29.1866 -40.13233,51.80718 -29.93479,-7.71552 -51.65024,9.22698 -75.1569,20.79584 z"
       id="path1873-7"
       sodipodi:nodetypes="cccccc"
       stroke-miterlimit="4"
       style="fill:url(#linearGradient4749);fill-opacity:1;fill-rule:evenodd;stroke:#000000;stroke-width:0.5;stroke-linecap:butt;stroke-linejoin:miter;stroke-miterlimit:4;stroke-dasharray:none;stroke-opacity:1" />
    <path
       inkscape:connector-curvature="0"
       d="m 161.62382,145.20605 c 20.26217,-21.72582 41.05847,-42.56145 64.21172,-59.46881 l 3.28355,6.931948 c -21.75686,12.271122 -37.5055,26.992482 -41.95652,48.888472 -11.68037,-1.40183 -17.32882,1.46231 -25.53875,3.64839 z"
       id="path2774"
       sodipodi:nodetypes="ccccc"
       style="fill:url(#linearGradient4751);fill-opacity:1;fill-rule:evenodd;stroke:none" />
    <path
       inkscape:connector-curvature="0"
       d="m 175.12287,111.64084 c 7.39928,-11.751357 15.72844,-19.78316 24.0794,-27.727796 -3.95475,9.190992 0.18491,11.239862 12.76937,5.837429 -14.35042,5.229293 -26.38671,12.772707 -36.84877,21.890367 z"
       id="path2776"
       sodipodi:nodetypes="cccc"
       style="fill:#bba667;fill-opacity:1;fill-rule:evenodd;stroke:none" />
    <path
       inkscape:connector-curvature="0"
       d="m 165.51016,116.31197 c -1.39678,-0.0165 -3.15899,0.6887 -4.6875,2 -1.83421,1.57355 -2.82452,3.60369 -2.6875,5.125 10e-4,0.0114 -0.001,0.0199 0,0.0313 l -41.03125,48.75 42.125,-47 c 1.44797,0.81147 4.00343,0.16382 6.125,-1.65625 2.44562,-2.09807 3.40198,-4.95416 2.15625,-6.40625 -0.46715,-0.54453 -1.16193,-0.83384 -2,-0.84375 z"
       id="path2786"
       style="fill:#755902;fill-opacity:1;stroke:none" />
  </g>
</svg>
