<?xml version="1.0" encoding="UTF-8" standalone="no"?>
<!-- Created with Inkscape (http://www.inkscape.org/) -->

<svg
   xmlns:dc="http://purl.org/dc/elements/1.1/"
   xmlns:cc="http://creativecommons.org/ns#"
   xmlns:rdf="http://www.w3.org/1999/02/22-rdf-syntax-ns#"
   xmlns:svg="http://www.w3.org/2000/svg"
   xmlns="http://www.w3.org/2000/svg"
   xmlns:xlink="http://www.w3.org/1999/xlink"
   xmlns:sodipodi="http://sodipodi.sourceforge.net/DTD/sodipodi-0.dtd"
   xmlns:inkscape="http://www.inkscape.org/namespaces/inkscape"
   id="svg2"
   inkscape:version="0.91 r13725"
   width="255"
   height="255"
   sodipodi:docname="application-x-java-archive_cleaned.svg"
   version="1.1">
  <metadata
     id="metadata8">
    <rdf:RDF>
      <cc:Work>
        <dc:format>image/svg+xml</dc:format>
        <dc:type
           rdf:resource="http://purl.org/dc/dcmitype/StillImage" />
        <dc:title />
        <cc:license
           rdf:resource="http://creativecommons.org/licenses/by-nc-sa/3.0/" />
      </cc:Work>
      <cc:License
         rdf:about="http://creativecommons.org/licenses/by-nc-sa/3.0/">
        <cc:permits
           rdf:resource="http://creativecommons.org/ns#Reproduction" />
        <cc:permits
           rdf:resource="http://creativecommons.org/ns#Distribution" />
        <cc:requires
           rdf:resource="http://creativecommons.org/ns#Notice" />
        <cc:requires
           rdf:resource="http://creativecommons.org/ns#Attribution" />
        <cc:prohibits
           rdf:resource="http://creativecommons.org/ns#CommercialUse" />
        <cc:permits
           rdf:resource="http://creativecommons.org/ns#DerivativeWorks" />
        <cc:requires
           rdf:resource="http://creativecommons.org/ns#ShareAlike" />
      </cc:License>
    </rdf:RDF>
  </metadata>
  <defs
     id="defs6">
    <linearGradient
       inkscape:collect="always"
       id="linearGradient4329">
      <stop
         id="stop4331"
         stop-color="#b7d3dd"
         stop-opacity="0.769" />
      <stop
         offset="1"
         id="stop4333"
         stop-color="#bcdce9"
         stop-opacity="0" />
    </linearGradient>
    <linearGradient
       inkscape:collect="always"
       id="linearGradient4319">
      <stop
         id="stop4321"
         stop-color="#1b3fc9"
         stop-opacity="0.384" />
      <stop
         offset="1"
         id="stop4323"
         stop-color="#abb7e7"
         stop-opacity="0.228" />
    </linearGradient>
    <linearGradient
       id="linearGradient4303">
      <stop
         stop-opacity="0"
         stop-color="#8db5c3"
         id="stop4305" />
      <stop
         stop-opacity="0.451"
         stop-color="#abcdd8"
         offset="1"
         id="stop4307" />
    </linearGradient>
    <linearGradient
       inkscape:collect="always"
       id="linearGradient4289">
      <stop
         id="stop4291"
         stop-color="#73c9dd"
         stop-opacity="0.603" />
      <stop
         offset="1"
         id="stop4293"
         stop-color="#abd6e0"
         stop-opacity="0" />
    </linearGradient>
    <linearGradient
       id="linearGradient2800">
      <stop
         stop-opacity="0"
         stop-color="#96ced7"
         id="stop4281" />
      <stop
         stop-opacity="0.111"
         stop-color="#4e93aa"
         offset="0.75"
         id="stop4283" />
      <stop
         stop-opacity="0.455"
         stop-color="#91b8c1"
         offset="1"
         id="stop4285" />
    </linearGradient>
    <linearGradient
       id="linearGradient4267">
      <stop
         stop-opacity="0"
         stop-color="#96ced7"
         id="stop4269" />
      <stop
         id="stop4313"
         stop-color="#448a98"
         stop-opacity="0"
         offset="0.785" />
      <stop
         stop-opacity="0.529"
         stop-color="#2f626f"
         offset="1"
         id="stop4273" />
    </linearGradient>
    <linearGradient
       inkscape:collect="always"
       id="linearGradient4264">
      <stop
         id="stop4266"
         stop-color="#ffffff"
         stop-opacity="0.286" />
      <stop
         offset="1"
         id="stop4268"
         stop-color="#ffffff"
         stop-opacity="0.159" />
    </linearGradient>
    <filter
       id="filter3938"
       inkscape:collect="always">
      <feGaussianBlur
         id="feGaussianBlur3940"
         stdDeviation="2.85709"
         inkscape:collect="always" />
    </filter>
    <linearGradient
       id="linearGradient3578">
      <stop
         id="stop3580"
         stop-color="#000000"
         stop-opacity="1" />
      <stop
         offset="1"
         id="stop3582"
         stop-color="#031cf2"
         stop-opacity="1" />
    </linearGradient>
    <linearGradient
       id="linearGradient3361">
      <stop
         id="stop3363"
         stop-color="#ffffff"
         stop-opacity="1" />
      <stop
         id="stop3365"
         offset="1"
         stop-color="#000000"
         stop-opacity="1" />
    </linearGradient>
    <linearGradient
       inkscape:collect="always"
       xlink:href="#linearGradient3578"
       id="linearGradient5637"
       gradientUnits="userSpaceOnUse"
       spreadMethod="reflect"
       x1="13.515"
       y1="-7.475"
       x2="16.09"
       y2="-7.475" />
    <linearGradient
       inkscape:collect="always"
       xlink:href="#linearGradient3578"
       id="linearGradient5647"
       gradientUnits="userSpaceOnUse"
       spreadMethod="reflect"
       x1="16.691"
       y1="-10.978"
       x2="16.09"
       y2="-7.475" />
    <linearGradient
       inkscape:collect="always"
       xlink:href="#linearGradient3578"
       id="linearGradient5659"
       gradientUnits="userSpaceOnUse"
       spreadMethod="reflect"
       x1="12.04"
       y1="-11.587"
       x2="8.696"
       y2="-2.688" />
    <linearGradient
       inkscape:collect="always"
       xlink:href="#linearGradient3578"
       id="linearGradient5661"
       gradientUnits="userSpaceOnUse"
       spreadMethod="reflect"
       x1="10.621"
       y1="-6.409"
       x2="16.09"
       y2="-7.475" />
    <linearGradient
       inkscape:collect="always"
       xlink:href="#linearGradient3578"
       id="linearGradient5663"
       gradientUnits="userSpaceOnUse"
       spreadMethod="reflect"
       x1="15.65"
       y1="-2.21"
       x2="16.09"
       y2="-7.475" />
    <linearGradient
       inkscape:collect="always"
       xlink:href="#linearGradient3578"
       id="linearGradient5667"
       gradientUnits="userSpaceOnUse"
       spreadMethod="reflect"
       x1="16.387"
       y1="-11.391"
       x2="11.132"
       y2="-11.199" />
    <linearGradient
       inkscape:collect="always"
       xlink:href="#linearGradient3578"
       id="linearGradient5687"
       gradientUnits="userSpaceOnUse"
       spreadMethod="reflect"
       x1="13.515"
       y1="-7.475"
       x2="17.07"
       y2="-8.02" />
    <linearGradient
       inkscape:collect="always"
       xlink:href="#linearGradient3578"
       id="linearGradient5691"
       gradientUnits="userSpaceOnUse"
       spreadMethod="reflect"
       x1="16.387"
       y1="-5.908"
       x2="17.747"
       y2="-6.953" />
    <linearGradient
       inkscape:collect="always"
       xlink:href="#linearGradient3578"
       id="linearGradient5693"
       gradientUnits="userSpaceOnUse"
       spreadMethod="reflect"
       x1="12.906"
       y1="-10.151"
       x2="11.372"
       y2="-5.778" />
    <linearGradient
       inkscape:collect="always"
       xlink:href="#linearGradient3578"
       id="linearGradient5699"
       gradientUnits="userSpaceOnUse"
       spreadMethod="reflect"
       x1="16.909"
       y1="-5.212"
       x2="18.617"
       y2="-6.583" />
    <linearGradient
       inkscape:collect="always"
       xlink:href="#linearGradient3578"
       id="linearGradient5701"
       gradientUnits="userSpaceOnUse"
       spreadMethod="reflect"
       x1="15.582"
       y1="-6.256"
       x2="17.377"
       y2="-1.992" />
    <linearGradient
       inkscape:collect="always"
       xlink:href="#linearGradient3578"
       id="linearGradient5703"
       gradientUnits="userSpaceOnUse"
       spreadMethod="reflect"
       x1="17.08"
       y1="-2.275"
       x2="14.94"
       y2="-3.733" />
    <linearGradient
       inkscape:collect="always"
       xlink:href="#linearGradient3578"
       id="linearGradient5705"
       gradientUnits="userSpaceOnUse"
       spreadMethod="reflect"
       x1="7.771"
       y1="-3.754"
       x2="12.916"
       y2="-4.516" />
    <linearGradient
       inkscape:collect="always"
       xlink:href="#linearGradient3578"
       id="linearGradient5707"
       gradientUnits="userSpaceOnUse"
       spreadMethod="reflect"
       x1="11.187"
       y1="-5.887"
       x2="9.718"
       y2="-1.513" />
    <linearGradient
       inkscape:collect="always"
       xlink:href="#linearGradient3361"
       id="linearGradient5732"
       gradientUnits="userSpaceOnUse"
       gradientTransform="matrix(2.3312104,0,0,2.1822623,-21.379421,-10.176457)"
       x1="12.436"
       y1="59.05"
       x2="38.13"
       y2="60.768" />
    <linearGradient
       inkscape:collect="always"
       xlink:href="#linearGradient3361"
       id="linearGradient5734"
       gradientUnits="userSpaceOnUse"
       gradientTransform="matrix(2.3312104,0,0,2.1822623,-18.559124,-10.176457)"
       x1="114.88"
       y1="50.09"
       x2="85.992"
       y2="54.739" />
    <linearGradient
       inkscape:collect="always"
       xlink:href="#linearGradient3361"
       id="linearGradient5736"
       gradientUnits="userSpaceOnUse"
       gradientTransform="matrix(2.3312104,0,0,2.1822623,-26.299375,-13.03008)"
       spreadMethod="pad"
       x1="61.927"
       y1="31.09"
       x2="74.78"
       y2="46.34" />
    <linearGradient
       inkscape:collect="always"
       xlink:href="#linearGradient3361"
       id="linearGradient5738"
       gradientUnits="userSpaceOnUse"
       gradientTransform="matrix(2.3312104,0,0,2.1822623,-21.943561,-9.1203913)"
       spreadMethod="pad"
       x1="39.26"
       y1="21.01"
       x2="44.23"
       y2="29.917" />
    <linearGradient
       id="linearGradient2760-8">
      <stop
         id="stop2762-9"
         stop-color="#92c4d5"
         stop-opacity="0.444" />
      <stop
         id="stop2764-0"
         offset="1"
         stop-color="#4590a9"
         stop-opacity="0.45" />
    </linearGradient>
    <linearGradient
       id="linearGradient2780">
      <stop
         id="stop2782"
         stop-color="#c2e0e9"
         stop-opacity="0.381" />
      <stop
         offset="1"
         id="stop2784"
         stop-color="#4faab6"
         stop-opacity="0.646" />
    </linearGradient>
    <linearGradient
       id="linearGradient2803">
      <stop
         id="stop2805"
         stop-color="#376f7c"
         stop-opacity="0.51" />
      <stop
         id="stop2807"
         offset="1"
         stop-color="#a3d1e1"
         stop-opacity="0.706" />
    </linearGradient>
    <linearGradient
       inkscape:collect="always"
       xlink:href="#linearGradient2760-8"
       id="linearGradient7752"
       gradientUnits="userSpaceOnUse"
       gradientTransform="matrix(1.4484907,0,0,1.4484907,-241.41437,34.14484)"
       x1="85.88"
       y1="29.323"
       x2="81.17"
       y2="9.141" />
    <linearGradient
       inkscape:collect="always"
       xlink:href="#linearGradient2780"
       id="linearGradient7756"
       gradientUnits="userSpaceOnUse"
       gradientTransform="matrix(1.4484907,0,0,1.4484907,-242.25595,34.705896)"
       spreadMethod="reflect"
       x1="65.07"
       y1="79.65"
       x2="99.31"
       y2="80.3" />
    <radialGradient
       inkscape:collect="always"
       xlink:href="#linearGradient2800"
       id="radialGradient7758"
       gradientUnits="userSpaceOnUse"
       gradientTransform="matrix(1.5510854,0.08938393,-0.1140369,1.9788894,-238.89319,-9.9182058)"
       spreadMethod="pad"
       cx="69.63"
       cy="62.31"
       fx="69.63"
       fy="62.31"
       r="45.18" />
    <linearGradient
       inkscape:collect="always"
       xlink:href="#linearGradient2803"
       id="linearGradient7760"
       gradientUnits="userSpaceOnUse"
       gradientTransform="matrix(0.76643167,0,0,0.76643167,-241.57622,30.304524)"
       spreadMethod="reflect"
       x1="64.992"
       y1="43.42"
       x2="49.02"
       y2="12.936" />
    <linearGradient
       inkscape:collect="always"
       xlink:href="#linearGradient4264"
       id="linearGradient4274"
       x1="-95.53"
       y1="128.98"
       x2="-55.28"
       y2="128.98"
       gradientUnits="userSpaceOnUse" />
    <filter
       inkscape:collect="always"
       id="filter4284"
       x="-0.046"
       width="1.092"
       y="-0.03"
       height="1.059"
       color-interpolation-filters="sRGB">
      <feGaussianBlur
         inkscape:collect="always"
         stdDeviation="0.76831"
         id="feGaussianBlur4286" />
    </filter>
    <linearGradient
       inkscape:collect="always"
       xlink:href="#linearGradient4289"
       id="linearGradient4295"
       x1="-155.05"
       y1="56.85"
       x2="-152.81"
       y2="100.35"
       gradientUnits="userSpaceOnUse" />
    <linearGradient
       inkscape:collect="always"
       xlink:href="#linearGradient4303"
       id="linearGradient4301"
       gradientUnits="userSpaceOnUse"
       gradientTransform="matrix(1.4484907,0,0,1.4484907,-241.41437,34.14484)"
       x1="82.05"
       y1="17.11"
       x2="81.17"
       y2="9.141" />
    <radialGradient
       inkscape:collect="always"
       xlink:href="#linearGradient4267"
       id="radialGradient4311"
       cx="-142.5"
       cy="134.84"
       fx="-142.5"
       fy="134.84"
       r="56.58"
       gradientTransform="matrix(0.01154382,1.0928991,-1.0817506,0.01142605,5.0115812,304.34459)"
       gradientUnits="userSpaceOnUse" />
    <radialGradient
       inkscape:collect="always"
       xlink:href="#linearGradient4319"
       id="radialGradient4325"
       cx="-79.65"
       cy="161.03"
       fx="-79.65"
       fy="161.03"
       r="55.37"
       gradientTransform="matrix(0.27263934,0.00169291,-5.0337581e-4,0.08106723,-101.6584,144.53275)"
       gradientUnits="userSpaceOnUse"
       spreadMethod="reflect" />
    <linearGradient
       inkscape:collect="always"
       xlink:href="#linearGradient4329"
       id="linearGradient4335"
       x1="-205.1"
       y1="43.515"
       x2="-181.48"
       y2="95.11"
       gradientUnits="userSpaceOnUse" />
    <filter
       inkscape:collect="always"
       id="filter4372"
       x="-0.046"
       width="1.091"
       y="-0.087"
       height="1.175"
       color-interpolation-filters="sRGB">
      <feGaussianBlur
         inkscape:collect="always"
         stdDeviation="1.99175"
         id="feGaussianBlur4374" />
    </filter>
  </defs>
  <sodipodi:namedview
     pagecolor="#ffffff"
     bordercolor="#666666"
     borderopacity="1"
     objecttolerance="10"
     gridtolerance="10"
     guidetolerance="10"
     inkscape:pageopacity="0"
     inkscape:pageshadow="2"
     inkscape:window-width="1920"
     inkscape:window-height="1056"
     id="namedview4"
     showgrid="true"
     inkscape:zoom="3.5647059"
     inkscape:cx="127.5"
     inkscape:cy="127.5"
     inkscape:window-x="0"
     inkscape:window-y="0"
     inkscape:window-maximized="1"
     inkscape:current-layer="svg2" />
  <g
     id="g5719"
     transform="matrix(0.91787645,0,0,0.91787645,26.811506,5.4880848)">
    <path
       sodipodi:nodetypes="ccccc"
       inkscape:connector-curvature="0"
       id="path3936"
       d="M 14.853584,176.79748 124.82972,101.64712 234.80586,158.77361 148.0469,262.63996 z"
       fill="#000000"
       filter="url(#filter3938)"
       stroke="none"
       fill-opacity="1" />
    <g
       transform="translate(-1.1560786,-5.7939953)"
       id="g3367">
      <path
         inkscape:connector-curvature="0"
         d="M 18.669688,62.692111 139.94544,6.720605 l 42.8696,21.649353 3.94851,2.112133 49.63843,23.761489 -2.82033,93.9899 L 145.5862,251.19992 18.105605,169.88283 18.669688,62.692111 z"
         id="path2937"
         sodipodi:nodetypes="ccccccccc"
         fill="#000000"
         fill-rule="evenodd"
         stroke="none"
         fill-opacity="1" />
      <path
         inkscape:connector-curvature="0"
         d="M 18.105629,63.198543 C 38.591947,72.902562 59.63659,77.363961 77.333314,94.90213 L 181.68686,27.313893 C 172.2495,18.526877 156.2315,12.203932 139.38139,6.1925718 L 18.105629,63.198543 z"
         id="path1873"
         sodipodi:nodetypes="ccccc"
         stroke-opacity="1"
         stroke-dasharray="none"
         fill="#000000"
         fill-rule="evenodd"
         stroke="#373737"
         stroke-linejoin="round"
         fill-opacity="1"
         stroke-linecap="round"
         stroke-width="2.256"
         stroke-miterlimit="4" />
      <path
         inkscape:connector-curvature="0"
         d="M 81.438688,95.216709 C 101.81097,99.600443 125.80188,114.6361 144.71664,127.20618 L 233.94194,52.0049 C 220.69905,39.132073 200.62259,33.305024 182.97188,28.68454 L 81.438688,95.216709 z"
         id="path2776"
         sodipodi:nodetypes="ccccc"
         stroke-opacity="1"
         fill="#000000"
         fill-rule="evenodd"
         stroke="#373737"
         stroke-linejoin="round"
         fill-opacity="1"
         stroke-linecap="butt"
         stroke-width="2.256" />
      <path
         inkscape:connector-curvature="0"
         d="M 18.105605,64.276209 144.45804,129.75232 146.15026,251.19992 16.977463,169.3548 18.105605,64.276209 z"
         id="path2794"
         sodipodi:nodetypes="ccccc"
         stroke-opacity="1"
         fill="#000000"
         fill-rule="evenodd"
         stroke="#373737"
         stroke-linejoin="round"
         fill-opacity="1"
         stroke-linecap="butt"
         stroke-width="2.256" />
      <path
         inkscape:connector-curvature="0"
         d="m 145.58618,128.69625 2.82036,120.91956 86.30323,-101.91037 1.12813,-94.517925 -90.25172,75.508735 z"
         id="path2824"
         stroke-opacity="1"
         fill="#000000"
         fill-rule="evenodd"
         stroke="#373737"
         stroke-linejoin="round"
         fill-opacity="1"
         stroke-linecap="butt"
         stroke-width="2.256" />
      <path
         inkscape:connector-curvature="0"
         sodipodi:nodetypes="ccccc"
         id="path3310"
         d="M 18.399858,66.041725 79.710664,97.629834 77.988764,206.66353 17.565969,168.47204 18.399858,66.041725 z"
         fill="url(#linearGradient5732)"
         fill-rule="evenodd"
         stroke="none"
         fill-opacity="1" />
      <path
         inkscape:connector-curvature="0"
         sodipodi:nodetypes="ccccc"
         id="path3328"
         d="m 185.23719,97.258646 -0.11703,106.648904 47.82409,-55.90786 1.71664,-91.869646 -49.4237,41.128602 z"
         fill="url(#linearGradient5734)"
         fill-rule="evenodd"
         stroke="none"
         fill-opacity="1" />
      <path
         inkscape:connector-curvature="0"
         sodipodi:nodetypes="ccccc"
         id="path3338"
         d="m 81.438693,95.216712 c 12.16915,3.9931 20.925687,6.528758 32.027947,11.676958 l 95.47529,-70.513771 c -8.946,-3.497827 -14.17872,-3.856126 -25.97005,-7.69536 L 81.438693,95.216712 z"
         fill="url(#linearGradient5736)"
         fill-rule="evenodd"
         stroke="none"
         fill-opacity="1" />
      <path
         inkscape:connector-curvature="0"
         sodipodi:nodetypes="ccccc"
         id="path3342"
         d="m 20.753905,62.021532 c 15.408194,5.016519 16.617061,7.725242 28.259096,12.568098 L 162.54624,16.18108 C 154.08545,11.300314 147.34093,9.670006 138.49863,7.3695833 L 20.753905,62.021532 z"
         fill="url(#linearGradient5738)"
         fill-rule="evenodd"
         stroke="none"
         fill-opacity="1" />
    </g>
  </g>
  <g
     inkscape:label="1. réteg"
     id="layer1"
     transform="translate(0.44397687,-0.50363973)">
    <g
       id="g2637">
      <g
         id="g3612"
         transform="translate(-2.5722563,0)">
        <g
           id="g2650"
           fill="url(#linearGradient5637)"
           font-family="Bitstream Vera Sans"
           stroke="none"
           font-style="normal"
           fill-opacity="1"
           font-weight="normal"
           font-size="12">
          <path
             inkscape:connector-curvature="0"
             id="path2652"
             d="m 16.1875,-12.21875 -4.09375,0.03125 0.707107,0.707107 4.09375,-0.03125 -0.707107,-0.707107 z"
             fill="url(#linearGradient5637)"
             fill-opacity="1" />
          <path
             inkscape:connector-curvature="0"
             id="path2654"
             d="M 12.09375,-12.1875 8.75,-3.4375 9.4571068,-2.7303932 12.800857,-11.480393 12.09375,-12.1875 z"
             fill="url(#linearGradient5637)"
             fill-opacity="1" />
          <path
             inkscape:connector-curvature="0"
             id="path2662"
             d="m 14.75,-5.6875 0.78125,2.21875 0.707107,0.7071068 -0.78125,-2.21875 L 14.75,-5.6875 z"
             fill="url(#linearGradient5637)"
             fill-opacity="1" />
          <path
             inkscape:connector-curvature="0"
             id="path2664"
             d="m 15.53125,-3.46875 0,0.03125 0.707107,0.7071068 0,-0.03125 L 15.53125,-3.46875 z"
             fill="url(#linearGradient5637)"
             fill-opacity="1" />
          <path
             inkscape:connector-curvature="0"
             id="path2672"
             d="m 17.92037,-11.519527 c -0.441567,-0.441567 -1.023884,-0.714237 -1.73287,-0.699223 l 0.707107,0.707107 c 0.708986,-0.01501 1.291302,0.257655 1.73287,0.699223 l -0.707107,-0.707107 z"
             fill="url(#linearGradient5637)"
             fill-opacity="1" />
          <path
             inkscape:connector-curvature="0"
             id="path2674"
             d="m 16.21875,-11.96875 c 0.599616,0.0028 1.098445,0.242806 1.481471,0.625832 l 0.707107,0.707107 c -0.383026,-0.383026 -0.881855,-0.623021 -1.481471,-0.625832 L 16.21875,-11.96875 z"
             fill="url(#linearGradient5647)"
             fill-opacity="1" />
          <path
             inkscape:connector-curvature="0"
             id="path2676"
             d="m 17.700221,-11.342918 c 1.561455,1.5614549 1.198394,5.4999287 -2.106471,5.436668 l 0.707107,0.7071068 c 3.304865,0.063261 3.667926,-3.8752131 2.106471,-5.4366678 l -0.707107,-0.707107 z"
             fill="url(#linearGradient5637)"
             fill-opacity="1" />
          <path
             inkscape:connector-curvature="0"
             id="path2678"
             d="m 15.59375,-5.90625 0.78125,2.1875 0.707107,0.7071068 -0.78125,-2.1875 L 15.59375,-5.90625 z"
             fill="url(#linearGradient5637)"
             fill-opacity="1" />
          <path
             inkscape:connector-curvature="0"
             id="path2680"
             d="m 16.375,-3.71875 -0.65625,0 0.707107,0.7071068 0.65625,0 L 16.375,-3.71875 z"
             fill="url(#linearGradient5637)"
             fill-opacity="1" />
          <path
             inkscape:connector-curvature="0"
             id="path2684"
             d="m 14.875,-5.96875 -4.3125,0 0.707107,0.7071068 4.3125,0 L 14.875,-5.96875 z"
             fill="url(#linearGradient5637)"
             fill-opacity="1" />
          <path
             inkscape:connector-curvature="0"
             id="path2686"
             d="M 10.5625,-5.96875 9.75,-3.75 l 0.707107,0.7071068 0.8125,-2.21875 L 10.5625,-5.96875 z"
             fill="url(#linearGradient5637)"
             fill-opacity="1" />
          <path
             inkscape:connector-curvature="0"
             id="path2690"
             d="m 9.1875,-3.75 3.09375,-8.15625 0.707107,0.707107 L 9.8946068,-3.0428932 9.1875,-3.75 z"
             fill="url(#linearGradient5659)"
             fill-opacity="1" />
          <path
             inkscape:connector-curvature="0"
             id="path2660"
             d="m 10.8125,-5.6875 3.9375,0 0.707107,0.7071068 -3.9375,0 L 10.8125,-5.6875 z"
             fill="url(#linearGradient5661)"
             fill-opacity="1" />
          <path
             inkscape:connector-curvature="0"
             id="path2682"
             d="m 15.71875,-3.71875 -0.84375,-2.25 0.707107,0.7071068 0.84375,2.25 L 15.71875,-3.71875 z"
             fill="url(#linearGradient5663)"
             fill-opacity="1" />
          <path
             inkscape:connector-curvature="0"
             id="path2688"
             d="m 9.75,-3.75 -0.5625,0 0.7071068,0.7071068 0.5625002,0 L 9.75,-3.75 z"
             fill="url(#linearGradient5637)"
             fill-opacity="1" />
          <path
             inkscape:connector-curvature="0"
             id="path2692"
             d="m 12.28125,-11.90625 3.9375,-0.0625 0.707107,0.707107 -3.9375,0.0625 -0.707107,-0.707107 z"
             fill="url(#linearGradient5667)"
             fill-opacity="1" />
          <path
             inkscape:connector-curvature="0"
             id="path2694"
             d="m 13.59375,-11.375 1.84375,4.9375 0.707107,0.7071068 -1.84375,-4.9374998 L 13.59375,-11.375 z"
             fill="url(#linearGradient5637)"
             fill-opacity="1" />
          <path
             inkscape:connector-curvature="0"
             id="path2698"
             d="M 17.29651,-10.694689 C 16.87154,-11.11966 16.292483,-11.392236 15.59375,-11.375 l 0.707107,0.707107 c 0.698733,-0.01724 1.277789,0.255339 1.70276,0.6803104 L 17.29651,-10.694689 z"
             fill="url(#linearGradient5637)"
             fill-opacity="1" />
          <path
             inkscape:connector-curvature="0"
             id="path2700"
             d="m 15.59375,-11.375 -2,0 0.707107,0.707107 2,0 L 15.59375,-11.375 z"
             fill="url(#linearGradient5637)"
             fill-opacity="1" />
          <path
             inkscape:connector-curvature="0"
             id="path2702"
             d="m 12.5,-11.25 -1.78125,4.875 0.707107,0.7071068 1.78125,-4.8749998 L 12.5,-11.25 z"
             fill="url(#linearGradient5637)"
             fill-opacity="1" />
          <path
             inkscape:connector-curvature="0"
             id="path2704"
             d="m 10.71875,-6.375 4,0.0625 0.707107,0.7071068 -4,-0.0625 L 10.71875,-6.375 z"
             fill="url(#linearGradient5637)"
             fill-opacity="1" />
          <path
             inkscape:connector-curvature="0"
             id="path2706"
             d="m 14.71875,-6.3125 -1.75,-4.9375 0.707107,0.707107 1.75,4.9374998 L 14.71875,-6.3125 z"
             fill="url(#linearGradient5637)"
             fill-opacity="1" />
          <path
             inkscape:connector-curvature="0"
             id="path2708"
             d="m 12.96875,-11.25 -0.46875,0 0.707107,0.707107 0.46875,0 L 12.96875,-11.25 z"
             fill="url(#linearGradient5637)"
             fill-opacity="1" />
          <path
             inkscape:connector-curvature="0"
             id="path2710"
             d="m 13.96875,-11.125 1.59375,0 0.707107,0.707107 -1.59375,0 L 13.96875,-11.125 z"
             fill="url(#linearGradient5637)"
             fill-opacity="1" />
          <path
             inkscape:connector-curvature="0"
             id="path2712"
             d="m 15.5625,-11.125 c 0.700736,-0.01728 1.245143,0.227017 1.62661,0.608484 l 0.707107,0.7071066 C 17.51475,-10.190876 16.970342,-10.435179 16.269607,-10.417893 L 15.5625,-11.125 z"
             fill="url(#linearGradient5637)"
             fill-opacity="1" />
          <path
             inkscape:connector-curvature="0"
             id="path2714"
             d="m 17.18911,-10.516516 c 1.226812,1.2268116 0.768345,3.872302 -1.59536,3.797766 l 0.707107,0.7071068 c 2.363705,0.074536 2.822172,-2.5709544 1.59536,-3.7977662 L 17.18911,-10.516516 z"
             fill="url(#linearGradient5687)"
             fill-opacity="1" />
          <path
             inkscape:connector-curvature="0"
             id="path2716"
             d="m 15.59375,-6.71875 -1.625,-4.40625 0.707107,0.707107 1.625,4.4062498 L 15.59375,-6.71875 z"
             fill="url(#linearGradient5637)"
             fill-opacity="1" />
          <path
             inkscape:connector-curvature="0"
             id="path2696"
             d="m 15.4375,-6.4375 c 2.997036,0.074602 3.230868,-2.8853317 1.85901,-4.257189 l 0.707107,0.7071064 c 1.371858,1.3718577 1.138026,4.3317916 -1.85901,4.2571894 L 15.4375,-6.4375 z"
             fill="url(#linearGradient5691)"
             fill-opacity="1" />
          <path
             inkscape:connector-curvature="0"
             id="path2722"
             d="m 11.15625,-6.65625 1.59375,-4.375 0.707107,0.707107 -1.59375,4.3749998 L 11.15625,-6.65625 z"
             fill="url(#linearGradient5693)"
             fill-opacity="1" />
          <path
             inkscape:connector-curvature="0"
             id="path2718"
             d="m 12.75,-11.03125 1.625,4.375 0.707107,0.7071068 -1.625,-4.3749998 L 12.75,-11.03125 z"
             fill="url(#linearGradient5637)"
             fill-opacity="1" />
          <path
             inkscape:connector-curvature="0"
             id="path2720"
             d="m 14.375,-6.65625 -3.21875,0 0.707107,0.7071068 3.21875,0 L 14.375,-6.65625 z"
             fill="url(#linearGradient5637)"
             fill-opacity="1" />
          <path
             inkscape:connector-curvature="0"
             id="path2670"
             d="m 15.96875,-5.6875 c 3.266261,0.062522 3.649833,-4.1338136 1.95162,-5.832027 l 0.707107,0.707107 c 1.698213,1.6982132 1.314641,5.8945486 -1.95162,5.8320268 L 15.96875,-5.6875 z"
             fill="url(#linearGradient5699)"
             fill-opacity="1" />
          <path
             inkscape:connector-curvature="0"
             id="path2668"
             d="m 16.78125,-3.4375 -0.8125,-2.25 0.707107,0.7071068 0.8125,2.25 L 16.78125,-3.4375 z"
             fill="url(#linearGradient5701)"
             fill-opacity="1" />
          <path
             inkscape:connector-curvature="0"
             id="path2666"
             d="m 15.53125,-3.4375 1.25,0 0.707107,0.7071068 -1.25,0 L 15.53125,-3.4375 z"
             fill="url(#linearGradient5703)"
             fill-opacity="1" />
          <path
             inkscape:connector-curvature="0"
             id="path2656"
             d="m 8.75,-3.4375 1.25,0 0.707107,0.7071068 -1.2500002,0 L 8.75,-3.4375 z"
             fill="url(#linearGradient5705)"
             fill-opacity="1" />
          <path
             inkscape:connector-curvature="0"
             id="path2658"
             d="m 10,-3.4375 0.8125,-2.25 0.707107,0.7071068 -0.8125,2.25 L 10,-3.4375 z"
             fill="url(#linearGradient5707)"
             fill-opacity="1" />
        </g>
        <path
           inkscape:connector-curvature="0"
           id="path2505"
           d="m 16.1875,-12.175236 -4.09375,0.03125 -3.3437504,8.7500003 1.25,0 0.8125004,-2.25 3.9375,0 0.78125,2.21875 0,0.03125 1.25,0 -0.8125,-2.25 c 4.115551,0.078779 3.654407,-6.6040073 0.21875,-6.5312503 z m 0.03125,0.25 c 3.044029,0.01427 3.490551,6.1412789 -0.625,6.0625003 l 0.78125,2.1875 -0.65625,0 -0.84375,-2.25 -4.3125,0 -0.8125004,2.21875 -0.5625,0 3.0937504,-8.1562503 3.9375,-0.0625 z m -2.625,0.59375 1.84375,4.9375003 c 3.925451,0.097712 3.110577,-5.0103763 0.15625,-4.9375003 l -2,0 z m -1.09375,0.125 -1.78125,4.8750003 4,0.0625 -1.75,-4.9375003 -0.46875,0 z m 1.46875,0.125 1.59375,0 c 2.954327,-0.07288 3.12993,4.5039626 0.03125,4.4062503 l -1.625,-4.4062503 z m -1.21875,0.09375 1.625,4.3750003 -3.21875,0 1.59375,-4.3750003 z"
           fill="#333333"
           font-family="Bitstream Vera Sans"
           stroke="none"
           font-style="normal"
           fill-opacity="1"
           font-weight="normal"
           font-size="12" />
      </g>
      <path
         inkscape:connector-curvature="0"
         id="text2170"
         d="m 6.0871491,-4.0239012 c -0.010522,-0.011146 -0.022062,-0.019197 -0.03462,-0.024152 -0.012219,-0.00557 -0.025796,-0.00836 -0.04073,-0.00836 -0.052948,1e-6 -0.093678,0.031584 -0.122188,0.094748 -0.028172,0.062547 -0.042257,0.15265 -0.042257,0.27031 l 0,0.548052 -0.094187,0 0,-1.040369 0.094187,0 0,0.161628 c 0.019686,-0.063164 0.045311,-0.109918 0.076877,-0.140264 0.031565,-0.030961 0.069918,-0.046444 0.115061,-0.046445 0.00645,1e-6 0.013576,9.31e-4 0.021383,0.00279 0.00781,0.00124 0.016461,0.00341 0.025965,0.0065 l 5.09e-4,0.175563 m 0.297835,-0.039943 c -0.050233,1e-6 -0.089944,0.035918 -0.119134,0.107752 -0.029189,0.071217 -0.043784,0.169061 -0.043784,0.293533 0,0.124473 0.014425,0.222627 0.043275,0.294462 0.029189,0.071216 0.06907,0.106824 0.119643,0.106824 0.049895,0 0.089436,-0.035918 0.118626,-0.107753 0.029189,-0.071835 0.043784,-0.169679 0.043784,-0.293533 0,-0.123233 -0.014595,-0.220768 -0.043784,-0.292604 -0.02919,-0.072453 -0.068731,-0.10868 -0.118626,-0.108681 m 0,-0.144909 c 0.08146,1e-6 0.145439,0.048304 0.191939,0.144909 0.046499,0.096606 0.069749,0.230368 0.06975,0.401285 -1e-6,0.170299 -0.023251,0.304061 -0.06975,0.401286 -0.0465,0.096605 -0.110479,0.144908 -0.191939,0.144908 -0.081799,0 -0.145948,-0.048303 -0.192447,-0.144908 -0.04616,-0.097225 -0.06924,-0.230987 -0.06924,-0.401286 0,-0.170917 0.02308,-0.304679 0.06924,-0.401285 0.046499,-0.096605 0.110648,-0.144908 0.192447,-0.144909 m 0.637419,0.144909 c -0.050233,1e-6 -0.089945,0.035918 -0.119134,0.107752 -0.02919,0.071217 -0.043784,0.169061 -0.043784,0.293533 0,0.124473 0.014425,0.222627 0.043275,0.294462 0.029189,0.071216 0.06907,0.106824 0.119643,0.106824 0.049893,0 0.089435,-0.035918 0.118625,-0.107753 0.029189,-0.071835 0.043784,-0.169679 0.043784,-0.293533 0,-0.123233 -0.014595,-0.220768 -0.043784,-0.292604 -0.02919,-0.072453 -0.068732,-0.10868 -0.118625,-0.108681 m 0,-0.144909 c 0.081459,1e-6 0.145438,0.048304 0.191938,0.144909 0.046499,0.096606 0.069749,0.230368 0.069749,0.401285 0,0.170299 -0.02325,0.304061 -0.069749,0.401286 -0.0465,0.096605 -0.110479,0.144908 -0.191938,0.144908 -0.081799,0 -0.145948,-0.048303 -0.192447,-0.144908 -0.046161,-0.097225 -0.06924,-0.230987 -0.06924,-0.401286 0,-0.170917 0.023079,-0.304679 0.06924,-0.401285 0.046499,-0.096605 0.110648,-0.144908 0.192447,-0.144909 m 0.50912,-0.27031 0,0.295391 0.192955,0 0,0.132832 -0.192955,0 0,0.564772 c -1e-6,0.08484 0.00628,0.139336 0.018836,0.163487 0.012898,0.024152 0.038863,0.036228 0.077896,0.036227 l 0.096223,0 0,0.143051 -0.096223,0 c -0.072296,0 -0.122188,-0.024461 -0.149681,-0.073383 -0.027492,-0.049542 -0.041238,-0.139335 -0.041238,-0.269382 l 0,-0.564772 -0.068732,0 0,-0.132832 0.068732,0 0,-0.295391 0.094187,0 m 0.423586,0.103108 0,0.521114 0.129317,0 c 0.047857,0 0.084853,-0.022603 0.110988,-0.06781 0.026134,-0.045206 0.039202,-0.109609 0.039202,-0.193211 0,-0.082981 -0.013068,-0.147075 -0.039202,-0.192283 -0.026135,-0.045205 -0.063131,-0.067809 -0.110988,-0.06781 l -0.129317,0 m -0.102842,-0.154197 0.232159,0 c 0.085192,1e-6 0.149511,0.0353 0.192956,0.105894 0.043784,0.069979 0.065676,0.172777 0.065676,0.308396 0,0.136859 -0.021892,0.240276 -0.065676,0.310252 -0.043445,0.069978 -0.107764,0.104967 -0.192956,0.104967 l -0.129317,0 0,0.55734 -0.102842,0 0,-1.386849 m 0.837502,0.863878 c -0.075689,0 -0.128129,0.015791 -0.157318,0.047374 -0.02919,0.031583 -0.043784,0.085459 -0.043784,0.161628 0,0.060689 0.010861,0.108991 0.032583,0.144909 0.022062,0.035298 0.05193,0.052947 0.089606,0.052947 0.05193,0 0.093508,-0.03344 0.124734,-0.100321 0.031565,-0.0675 0.047348,-0.156984 0.047348,-0.268453 l 0,-0.038084 -0.093169,0 m 0.186847,-0.070597 0,0.593568 -0.093678,0 0,-0.157913 c -0.021383,0.063165 -0.048027,0.10992 -0.079932,0.140264 -0.031905,0.029725 -0.070937,0.044587 -0.117097,0.044587 -0.05838,0 -0.104879,-0.029725 -0.139499,-0.089175 -0.034281,-0.060068 -0.051421,-0.140263 -0.051421,-0.240585 0,-0.117041 0.021383,-0.205287 0.064149,-0.264737 0.043105,-0.059448 0.107254,-0.089173 0.192447,-0.089174 l 0.131353,0 0,-0.01672 c 0,-0.078646 -0.014256,-0.139335 -0.042766,-0.182065 -0.028172,-0.043347 -0.067883,-0.065022 -0.119134,-0.065023 -0.032584,1e-6 -0.064319,0.00712 -0.095206,0.021365 -0.030886,0.014244 -0.060585,0.035608 -0.089096,0.064094 l 0,-0.157913 c 0.034281,-0.024151 0.067544,-0.04211 0.099788,-0.053876 0.032244,-0.012385 0.06364,-0.018578 0.094187,-0.018579 0.082477,1e-6 0.144081,0.039016 0.184811,0.117042 0.040729,0.078028 0.061093,0.196309 0.061094,0.35484 m 0.193466,-0.851802 0.093678,0 0,1.44537 -0.093678,0 0,-1.44537 m 0.647228,0.9200515 c -1e-6,0.088556 0.012049,0.158223 0.036147,0.209003 0.024098,0.050161 0.057191,0.075241 0.099278,0.075241 0.041749,0 0.074502,-0.02539 0.098261,-0.07617 0.024098,-0.05078 0.036148,-0.120138 0.036148,-0.208074 0,-0.086697 -0.012219,-0.155435 -0.036657,-0.206216 -0.024438,-0.051399 -0.057361,-0.077098 -0.09877,-0.077099 -0.041069,1e-6 -0.073823,0.025391 -0.09826,0.07617 -0.024098,0.050781 -0.036148,0.119829 -0.036147,0.207145 m 0.277471,0.277742 c -0.020365,0.047683 -0.043785,0.082981 -0.070259,0.105894 -0.026135,0.022294 -0.056683,0.033441 -0.091642,0.033441 -0.05838,0 -0.105897,-0.038395 -0.142554,-0.115184 -0.036317,-0.077408 -0.054476,-0.178039 -0.054476,-0.301893 0,-0.123853 0.018328,-0.224483 0.054986,-0.301893 0.036656,-0.077407 0.084004,-0.116111 0.142044,-0.116112 0.034959,1e-6 0.065677,0.011767 0.092151,0.035298 0.026474,0.022914 0.049724,0.057902 0.06975,0.104966 l 0,-0.121686 0.072804,0 0,0.683671 c 0.04955,-0.013624 0.08825,-0.054805 0.116079,-0.123544 0.02817,-0.069357 0.04226,-0.158841 0.04226,-0.268452 -10e-7,-0.066262 -0.0054,-0.128498 -0.01629,-0.186709 -0.01052,-0.058211 -0.02664,-0.112087 -0.04837,-0.161629 -0.0353,-0.081123 -0.07841,-0.14305 -0.129316,-0.18578 -0.050574,-0.043348 -0.1057272,-0.065022 -0.1654642,-0.065024 -0.041748,2e-6 -0.081799,0.010219 -0.120153,0.030654 -0.038354,0.019818 -0.073822,0.049543 -0.106406,0.089174 -0.053288,0.063167 -0.095035,0.146149 -0.125243,0.248946 -0.029869,0.10218 -0.044803,0.213029 -0.044803,0.332547 0,0.098464 0.00967,0.190734 0.02902,0.276812 0.019686,0.086079 0.048027,0.161939 0.085023,0.227581 0.035638,0.064404 0.076877,0.113326 0.123716,0.146766 0.046839,0.03406 0.096902,0.05109 0.150191,0.05109 0.043784,0 0.08672,-0.013624 0.128808,-0.040872 0.042427,-0.026628 0.08129,-0.065023 0.1165872,-0.115184 l 0.04582,0.103108 c -0.04243,0.060069 -0.08876,0.105895 -0.138989,0.137478 -0.049895,0.032201 -0.1006362,0.048302 -0.1522272,0.048303 -0.062792,-10e-7 -0.12202,-0.020436 -0.177683,-0.061308 -0.055664,-0.040252 -0.105218,-0.099083 -0.148663,-0.176491 -0.043445,-0.077408 -0.076538,-0.166892 -0.099278,-0.268452 -0.022741,-0.102179 -0.034112,-0.21179 -0.034111,-0.328831 -1e-6,-0.112706 0.01154,-0.220149 0.03462,-0.322329 0.02308,-0.102178 0.056003,-0.191972 0.098769,-0.269381 0.043784,-0.078646 0.094356,-0.138715 0.151718,-0.180207 0.05736,-0.042109 0.118115,-0.063164 0.182264,-0.063165 0.071957,1e-6 0.1386502,0.026939 0.2000852,0.080814 0.06177,0.053878 0.113532,0.130357 0.155281,0.229439 0.02546,0.060689 0.0448,0.126641 0.05804,0.197856 0.01358,0.071216 0.02036,0.144909 0.02036,0.221078 -2e-6,0.162868 -0.02698,0.291365 -0.08095,0.385494 -0.05397,0.094129 -0.128468,0.143051 -0.2235022,0.146766 l 0,-0.14305 m 0.8507382,-0.311182 c -10e-7,-0.123853 -0.01409,-0.219839 -0.04226,-0.28796 -0.02783,-0.068118 -0.06703,-0.102178 -0.117607,-0.102179 -0.05023,1e-6 -0.08943,0.034061 -0.117606,0.102179 -0.02783,0.068121 -0.04175,0.164107 -0.04175,0.28796 0,0.123234 0.01392,0.218911 0.04175,0.28703 0.02817,0.06812 0.06737,0.10218 0.117606,0.102179 0.05057,1e-6 0.08977,-0.034059 0.117607,-0.102179 0.02817,-0.068119 0.04226,-0.163796 0.04226,-0.28703 m 0.09368,0.403143 c -1e-6,0.17711 -0.02155,0.308704 -0.06466,0.394782 -0.04311,0.086698 -0.109122,0.130046 -0.198048,0.130047 -0.03292,-1e-6 -0.06398,-0.00464 -0.09317,-0.013934 -0.02919,-0.00867 -0.05753,-0.022294 -0.08502,-0.040872 l 0,-0.166273 c 0.02749,0.027248 0.05465,0.047374 0.08146,0.060379 0.02681,0.013004 0.05414,0.019506 0.08197,0.019507 0.06143,-1e-6 0.107424,-0.029416 0.137971,-0.088246 0.03055,-0.058211 0.04582,-0.146457 0.04582,-0.264737 l 0,-0.08453 c -0.01935,0.061308 -0.04412,0.107134 -0.07433,0.137478 -0.03021,0.030344 -0.06636,0.045516 -0.108443,0.045516 -0.06992,0 -0.126262,-0.048613 -0.169028,-0.145837 -0.04277,-0.097225 -0.06415,-0.226033 -0.06415,-0.386423 0,-0.161009 0.02138,-0.290126 0.06415,-0.387352 0.04277,-0.097224 0.09911,-0.145837 0.169028,-0.145838 0.04209,1e-6 0.07823,0.015173 0.108443,0.045517 0.03021,0.030345 0.05498,0.076171 0.07433,0.137477 l 0,-0.157913 0.09368,0 0,0.911252 m 0.636909,-0.711539 c 0.02342,-0.076788 0.05142,-0.13345 0.084,-0.169988 0.03258,-0.036536 0.07094,-0.054805 0.115061,-0.054806 0.0594,1e-6 0.105218,0.038087 0.137463,0.114256 0.03224,0.075551 0.04837,0.183303 0.04837,0.323257 l 0,0.627937 -0.09419,0 0,-0.622364 c -10e-7,-0.099701 -0.0097,-0.173703 -0.02902,-0.222007 -0.01935,-0.048302 -0.04888,-0.072453 -0.08859,-0.072454 -0.04854,1e-6 -0.08689,0.029416 -0.115061,0.088245 -0.02817,0.058832 -0.04226,0.139026 -0.04226,0.240585 l 0,0.587995 -0.09419,0 0,-0.622364 c 0,-0.10032 -0.0097,-0.174323 -0.02902,-0.222007 -0.01935,-0.048302 -0.04922,-0.072453 -0.0896,-0.072454 -0.04786,1e-6 -0.08587,0.029725 -0.114042,0.089174 -0.02817,0.058831 -0.04226,0.138717 -0.04226,0.239656 l 0,0.587995 -0.09419,0 0,-1.040369 0.09419,0 0,0.161628 c 0.02138,-0.063783 0.04701,-0.110847 0.07688,-0.141192 0.02987,-0.030344 0.06534,-0.045516 0.106406,-0.045517 0.04141,1e-6 0.07654,0.019199 0.105388,0.057592 0.02919,0.038396 0.05074,0.09413 0.06466,0.167202 m 0.831392,0.317685 c -0.07569,0 -0.128129,0.015791 -0.157318,0.047374 -0.02919,0.031583 -0.04378,0.085459 -0.04378,0.161628 0,0.060689 0.01086,0.108991 0.03258,0.144909 0.02206,0.035298 0.05193,0.052947 0.0896,0.052947 0.05193,0 0.09351,-0.03344 0.124734,-0.100321 0.03157,-0.0675 0.04735,-0.156984 0.04735,-0.268453 l 0,-0.038084 -0.09317,0 m 0.186847,-0.070597 0,0.593568 -0.09368,0 0,-0.157913 c -0.02138,0.063165 -0.04803,0.10992 -0.07993,0.140264 -0.03191,0.029725 -0.07094,0.044587 -0.117097,0.044587 -0.05838,0 -0.104879,-0.029725 -0.139499,-0.089175 -0.03428,-0.060068 -0.05142,-0.140263 -0.05142,-0.240585 0,-0.117041 0.02138,-0.205287 0.06415,-0.264737 0.0431,-0.059448 0.107254,-0.089173 0.192447,-0.089174 l 0.131353,0 0,-0.01672 c 0,-0.078646 -0.01426,-0.139335 -0.04277,-0.182065 -0.02817,-0.043347 -0.06788,-0.065022 -0.119134,-0.065023 -0.03258,1e-6 -0.06432,0.00712 -0.0952,0.021365 -0.03089,0.014244 -0.06059,0.035608 -0.0891,0.064094 l 0,-0.157913 c 0.03428,-0.024151 0.06754,-0.04211 0.09979,-0.053876 0.03224,-0.012385 0.06364,-0.018578 0.09419,-0.018579 0.08248,1e-6 0.144081,0.039016 0.184811,0.117042 0.04073,0.078028 0.06109,0.196309 0.06109,0.35484 m 0.193466,-0.446801 0.09368,0 0,1.040369 -0.09368,0 0,-1.040369 m 0,-0.405001 0.09368,0 0,0.216434 -0.09368,0 0,-0.216434 m 0.28918,0 0.09368,0 0,1.44537 -0.09368,0 0,-1.44537 m 0.302417,1.209429 0.107424,0 0,0.235941 -0.107424,0 0,-0.235941 m 0.729059,-0.764485 0,0.15977 c -0.02647,-0.026627 -0.05312,-0.046444 -0.07993,-0.059449 -0.02647,-0.013623 -0.05329,-0.020435 -0.08044,-0.020436 -0.06076,1e-6 -0.107934,0.035299 -0.141536,0.105895 -0.0336,0.069978 -0.0504,0.168441 -0.0504,0.29539 0,0.126951 0.0168,0.225724 0.0504,0.29632 0.0336,0.069977 0.08078,0.104966 0.141536,0.104966 0.02715,0 0.05397,-0.0065 0.08044,-0.019507 0.02681,-0.013624 0.05346,-0.03375 0.07993,-0.060379 l 0,0.157913 c -0.02614,0.022294 -0.05329,0.039014 -0.08146,0.050161 -0.02783,0.011146 -0.05753,0.01672 -0.0891,0.01672 -0.08587,0 -0.154094,-0.049231 -0.204666,-0.147695 -0.05057,-0.098463 -0.07586,-0.231296 -0.07586,-0.398499 0,-0.169678 0.02546,-0.30313 0.07637,-0.400356 0.05125,-0.097224 0.12134,-0.145837 0.210267,-0.145838 0.02885,1e-6 0.05702,0.00558 0.08451,0.016721 0.02749,0.010528 0.05414,0.026629 0.07993,0.048303 m 0.384895,0.079885 c -0.05023,1e-6 -0.08995,0.035918 -0.119134,0.107752 -0.02919,0.071217 -0.04378,0.169061 -0.04378,0.293533 -10e-7,0.124473 0.01442,0.222627 0.04328,0.294462 0.02919,0.071216 0.06907,0.106824 0.119643,0.106824 0.04989,0 0.08943,-0.035918 0.118625,-0.107753 0.02919,-0.071835 0.04378,-0.169679 0.04378,-0.293533 0,-0.123233 -0.01459,-0.220768 -0.04378,-0.292604 -0.02919,-0.072453 -0.06873,-0.10868 -0.118625,-0.108681 m 0,-0.144909 c 0.08146,1e-6 0.145438,0.048304 0.191938,0.144909 0.0465,0.096606 0.06975,0.230368 0.06975,0.401285 0,0.170299 -0.02325,0.304061 -0.06975,0.401286 -0.0465,0.096605 -0.11048,0.144908 -0.191938,0.144908 -0.0818,0 -0.145948,-0.048303 -0.192448,-0.144908 -0.04616,-0.097225 -0.06924,-0.230987 -0.06924,-0.401286 0,-0.170917 0.02308,-0.304679 0.06924,-0.401285 0.0465,-0.096605 0.110649,-0.144908 0.192448,-0.144909 m 0.860412,0.224794 c 0.02342,-0.076788 0.05142,-0.13345 0.084,-0.169988 0.03258,-0.036536 0.07094,-0.054805 0.115061,-0.054806 0.0594,1e-6 0.105217,0.038087 0.137462,0.114256 0.03224,0.075551 0.04837,0.183303 0.04837,0.323257 l 0,0.627937 -0.09419,0 0,-0.622364 c 0,-0.099701 -0.0097,-0.173703 -0.02902,-0.222007 -0.01935,-0.048302 -0.04888,-0.072453 -0.08859,-0.072454 -0.04854,1e-6 -0.08689,0.029416 -0.115061,0.088245 -0.02817,0.058832 -0.04226,0.139026 -0.04226,0.240585 l 0,0.587995 -0.09419,0 0,-0.622364 c -10e-7,-0.10032 -0.0097,-0.174323 -0.02902,-0.222007 -0.01935,-0.048302 -0.04922,-0.072453 -0.08961,-0.072454 -0.04786,1e-6 -0.08587,0.029725 -0.114043,0.089174 -0.02817,0.058831 -0.04226,0.138717 -0.04226,0.239656 l 0,0.587995 -0.09419,0 0,-1.040369 0.09419,0 0,0.161628 c 0.02138,-0.063783 0.04701,-0.110847 0.07688,-0.141192 0.02987,-0.030344 0.06534,-0.045516 0.106406,-0.045517 0.04141,1e-6 0.07654,0.019199 0.105388,0.057592 0.02919,0.038396 0.05074,0.09413 0.06466,0.167202"
         sodipodi:nodetypes="csssccccccssscccsssssssccsssssssccsssssssccssssssscccccccsccccsccccccccccsssccccsssccccccssssscccccccssssscccsssccssscccccccsssssssccsssssssccccsssssssssssssssccssssssssssssssscccsssssssccsssccsssccssssssscccccsssccccsssccccsssccccccsssccssssscccccccssssscccsssccssscccccccccccccccccccccccsssssssccsssssssccsssssssccsssssssccsssccccsssccccsssccccccsssc"
         fill="#d40000"
         font-family="Bitstream Vera Sans"
         stroke="none"
         font-style="normal"
         fill-opacity="1"
         font-weight="normal"
         font-size="4" />
    </g>
  </g>
  <g
     id="g4337"
     transform="translate(240.58927,31.893964)">
    <path
       sodipodi:nodetypes="ccc"
       id="path1873-9"
       d="M -179.02796,55.173968 C -142.46064,59.61345 -75.115789,26.428822 -66.171631,61.132222 -106.97953,57.908876 -168.61637,107.68769 -179.02796,55.173968 Z"
       inkscape:connector-curvature="0"
       style="fill:url(#linearGradient7752);fill-opacity:1;fill-rule:evenodd;stroke:none;stroke-width:1.449;stroke-linecap:butt;stroke-linejoin:miter;stroke-opacity:1" />
    <path
       d="m -179.86954,55.735024 c 12.61763,46.556136 -22.05272,67.116346 -17.63354,85.464806 2.90295,16.5427 6.10147,53.55518 26.19817,64.58449 9.23165,8.31357 38.86633,10.61672 57.49012,2.26494 80.309247,-80.38037 -38.60308,-117.53671 46.801575,-146.355982 -10.20198,-0.805837 -21.705766,1.700962 -33.385505,5.093917 -11.67975,3.392953 -23.53545,7.672063 -34.44127,10.410848 -10.90583,2.738785 -20.86177,3.937246 -28.74197,1.168903 -7.88021,-2.768343 -13.68468,-9.503491 -16.28758,-22.631922 z"
       id="path2776-9"
       sodipodi:nodetypes="ccccccccc"
       inkscape:connector-curvature="0"
       style="opacity:1;fill:url(#linearGradient7756);fill-opacity:1;fill-rule:evenodd;stroke:none" />
    <path
       sodipodi:nodetypes="ccccccccc"
       id="path2796"
       d="m -179.30849,55.508197 c 12.61763,46.556133 -22.05272,67.116323 -17.63354,85.464783 2.90295,16.5427 6.10147,53.55519 26.19817,64.58449 9.23165,8.31357 38.86633,10.61673 57.49012,2.26495 80.309253,-80.38037 -38.60308,-117.536697 46.801581,-146.355969 -10.20198,-0.805836 -21.705766,1.700962 -33.385503,5.093917 -11.679758,3.392953 -23.535458,7.672063 -34.441278,10.410848 -10.90583,2.738785 -20.86177,3.937246 -28.74197,1.168904 -7.88021,-2.768344 -13.68469,-9.503492 -16.28758,-22.631923 z"
       inkscape:connector-curvature="0"
       style="fill:url(#radialGradient7758);fill-opacity:1;fill-rule:evenodd;stroke:none" />
    <path
       d="m -176.1209,79.358207 c 0.3183,-7.455032 -0.713,-15.134998 -2.53609,-22.946927 -30.81122,-26.816492 -52.74152,-3.22987 -52.08209,26.52549 0.88885,40.45862 32.25732,41.67821 35.65099,67.28096 -1.94909,-6.50117 -2.09133,-12.60021 -0.42293,-19.10139 -5.93189,-14.39343 -21.78229,-19.33151 -24.67956,-37.32932 -2.42627,-6.30666 0.23186,-43.171526 18.36733,-39.707575 5.1328,2.058781 14.17216,11.475523 25.70235,25.278762 z"
       id="path1911"
       sodipodi:nodetypes="ccsccccc"
       inkscape:connector-curvature="0"
       stroke-miterlimit="4"
       style="fill:url(#linearGradient7760);fill-opacity:1;fill-rule:evenodd;stroke:#eaeaea;stroke-width:1.53299999;stroke-linecap:round;stroke-linejoin:round;stroke-miterlimit:4;stroke-dasharray:none;stroke-opacity:0.23999999" />
    <path
       inkscape:connector-curvature="0"
       d="m -196.6615,140.41193 c 2.90295,16.5427 6.10147,53.55519 26.19817,64.58449 9.23165,8.31357 38.86633,10.61673 57.49012,2.26495 C -32.663959,126.881 -151.57629,89.724666 -66.171631,60.905394"
       id="path4243"
       sodipodi:nodetypes="cccc"
       stroke-miterlimit="4"
       style="fill:none;fill-opacity:1;fill-rule:evenodd;stroke:#292db5;stroke-width:1.60000002;stroke-miterlimit:4;stroke-dasharray:none;stroke-opacity:0.31700003" />
    <path
       sodipodi:nodetypes="cc"
       inkscape:connector-curvature="0"
       id="path4253"
       d="m -179.51245,55.047921 c 12.85242,53.526859 77.30612,2.210015 113.40482,6.032171"
       stroke-miterlimit="4"
       style="fill:none;fill-rule:evenodd;stroke:#5354b7;stroke-width:1.60000002;stroke-linecap:round;stroke-linejoin:miter;stroke-miterlimit:4;stroke-dasharray:none;stroke-opacity:0.37000002" />
    <path
       inkscape:connector-curvature="0"
       d="m -196.94203,140.97298 c 2.90295,16.5427 6.10147,53.55519 26.19817,64.58449 9.23165,8.31357 38.86633,10.61673 57.49012,2.26495 23.465501,-23.48628 29.922546,-43.28233 29.43762,-60.25841 -38.90422,67.1139 -89.25965,49.59627 -113.12591,-6.59103 z"
       id="path4255"
       sodipodi:nodetypes="ccccc"
       style="fill:url(#radialGradient4311);fill-opacity:1;fill-rule:evenodd;stroke:none" />
    <path
       inkscape:connector-curvature="0"
       d="m -179.30849,55.508197 c 6.19035,22.840974 0.99851,39.424734 -5.37522,52.559963 24.97636,-29.848042 60.76179,-16.198617 90.576037,1.29717 -7.752757,-19.899333 -11.266487,-34.764891 27.655514,-47.898879 -10.20198,-0.805836 -21.705766,2.76706 -33.385503,6.160015 -11.679758,3.392953 -23.535458,7.885283 -34.441278,10.624068 -10.90583,2.738785 -20.86177,2.657927 -28.74197,-0.110414 -7.88021,-2.768345 -13.68469,-9.503492 -16.28758,-22.631923 z"
       id="path4277"
       sodipodi:nodetypes="ccccccsc"
       style="fill:url(#linearGradient4295);fill-opacity:1;fill-rule:evenodd;stroke:none" />
    <path
       sodipodi:nodetypes="cc"
       inkscape:connector-curvature="0"
       id="path4297"
       d="m -179.74414,55.21322 c 38.55261,5.899904 99.649747,-29.196994 114.072498,5.33049"
       style="fill:none;fill-rule:evenodd;stroke:#63a1b1;stroke-width:1;stroke-linecap:butt;stroke-linejoin:miter;stroke-opacity:0.75700001" />
    <path
       inkscape:connector-curvature="0"
       d="m -179.02796,55.173968 c 36.56732,4.439482 103.912171,-28.745146 112.856329,5.958254 -27.709182,-23.8384 -104.671229,17.165866 -112.856329,-5.958254 z"
       id="path4299"
       sodipodi:nodetypes="ccc"
       style="fill:url(#linearGradient4301);fill-opacity:1;fill-rule:evenodd;stroke:none;stroke-width:1.449;stroke-linecap:butt;stroke-linejoin:miter;stroke-opacity:1" />
    <path
       d="m -179.29923,56.327239 c 12.85242,53.526861 74.10783,1.570356 110.206525,5.392512"
       id="path4309"
       inkscape:connector-curvature="0"
       sodipodi:nodetypes="cc"
       stroke-miterlimit="4"
       style="fill:none;fill-rule:evenodd;stroke:#6097a5;stroke-width:3.20000005;stroke-linecap:round;stroke-linejoin:miter;stroke-miterlimit:4;stroke-dasharray:none;stroke-opacity:0.56099997" />
    <path
       inkscape:connector-curvature="0"
       d="m -194.7585,154.65885 c 3.00223,18.14359 8.42247,42.34146 24.01464,50.89862 9.23165,8.31357 38.86633,10.61673 57.49012,2.26495 19.927285,-19.94493 27.588612,-37.22858 29.148975,-52.38394 -14.371662,21.06384 -99.699615,29.14482 -110.653735,-0.77963 z"
       id="path4315"
       sodipodi:nodetypes="ccccc"
       style="fill:#1b3fc9;fill-opacity:0.16400003;fill-rule:evenodd;stroke:none" />
    <ellipse
       ry="17.377001"
       rx="54.369999"
       cy="157.03"
       cx="-139.87"
       id="path4317"
       stroke-miterlimit="4"
       style="opacity:1;fill:url(#radialGradient4325);fill-opacity:1;stroke:#1a7bd4;stroke-width:1.60000002;stroke-linecap:round;stroke-linejoin:round;stroke-miterlimit:4;stroke-dasharray:none;stroke-opacity:0.275" />
    <path
       transform="matrix(1,0,0.14807911,1,-65.337805,-4.7473012)"
       sodipodi:nodetypes="cccccccccccccccccccc"
       inkscape:connector-curvature="0"
       id="rect4255"
       d="m -73.14186,103.80364 0,25.27173 17.857439,-5.91791 0,-25.271727 z m -22.260076,1.77983 0,25.27171 19.076956,-1.03986 0,-25.27172 z m 22.132796,27.4472 0,25.27038 17.85744,-5.91791 0,-25.27037 z m -22.260066,1.77983 0,25.27171 19.076956,-1.03986 0,-25.27172 z"
       stroke-miterlimit="4"
       style="opacity:0.678;fill:url(#linearGradient4274);fill-opacity:1;stroke:none;stroke-width:1.60000002;stroke-linecap:round;stroke-linejoin:round;stroke-miterlimit:4;stroke-dasharray:none;stroke-opacity:0.88399999;filter:url(#filter4284)" />
    <path
       stroke-miterlimit="4"
       inkscape:connector-curvature="0"
       sodipodi:nodetypes="csc"
       id="path4327"
       d="m -180.14953,58.117037 c -29.59267,-25.000372 -47.72064,-3.122483 -48.67057,23.966855 -1.36922,39.046158 29.81506,35.320278 33.09235,61.097588"
       style="fill:none;fill-opacity:1;fill-rule:evenodd;stroke:url(#linearGradient4335);stroke-width:2.9000001;stroke-linecap:round;stroke-linejoin:round;stroke-miterlimit:4;stroke-dasharray:none;stroke-opacity:0.23999999" />
  </g>
  <ellipse
     id="path4354"
     cx="82.05"
     cy="223.16"
     rx="52.32"
     ry="27.351"
     opacity="1"
     stroke-dasharray="none"
     stroke-opacity="0.275"
     fill="#0d5b7b"
     filter="url(#filter4372)"
     stroke="none"
     stroke-linejoin="round"
     fill-opacity="0.28"
     stroke-linecap="round"
     stroke-width="1.6"
     stroke-miterlimit="4" />
</svg>
