<?xml version="1.0" encoding="UTF-8" standalone="no"?>
<!-- Created with Inkscape (http://www.inkscape.org/) -->

<svg
   xmlns:dc="http://purl.org/dc/elements/1.1/"
   xmlns:cc="http://creativecommons.org/ns#"
   xmlns:rdf="http://www.w3.org/1999/02/22-rdf-syntax-ns#"
   xmlns:svg="http://www.w3.org/2000/svg"
   xmlns="http://www.w3.org/2000/svg"
   xmlns:xlink="http://www.w3.org/1999/xlink"
   xmlns:sodipodi="http://sodipodi.sourceforge.net/DTD/sodipodi-0.dtd"
   xmlns:inkscape="http://www.inkscape.org/namespaces/inkscape"
   id="svg2"
   sodipodi:version="0.32"
   inkscape:version="0.48.2 r9819"
   width="255"
   height="255"
   version="1.0"
   sodipodi:docname="application-x-php.svg"
   inkscape:output_extension="org.inkscape.output.svg.inkscape">
  <sodipodi:namedview
     inkscape:window-height="1027"
     inkscape:window-width="1680"
     inkscape:pageshadow="2"
     inkscape:pageopacity="0.0"
     guidetolerance="10.0"
     gridtolerance="10.0"
     objecttolerance="10.0"
     borderopacity="1.0"
     bordercolor="#666666"
     pagecolor="#ffffff"
     id="base"
     inkscape:zoom="3.2862745"
     inkscape:cx="127.5"
     inkscape:cy="127.5"
     inkscape:window-x="-2"
     inkscape:window-y="-5"
     inkscape:current-layer="svg2"
     showgrid="false"
     inkscape:window-maximized="1" />
  <metadata
     id="metadata7">
    <rdf:RDF>
      <cc:Work
         rdf:about="">
        <dc:format>image/svg+xml</dc:format>
        <dc:type
           rdf:resource="http://purl.org/dc/dcmitype/StillImage" />
      </cc:Work>
    </rdf:RDF>
  </metadata>
  <defs
     id="defs5">
    <linearGradient
       id="linearGradient3448">
      <stop
         style="stop-color:#000000;stop-opacity:1;"
         offset="0"
         id="stop3450" />
      <stop
         id="stop3456"
         offset="0.5"
         style="stop-color:#000000;stop-opacity:1;" />
      <stop
         style="stop-color:#000000;stop-opacity:1;"
         offset="0.75"
         id="stop3458" />
      <stop
         style="stop-color:#000000;stop-opacity:0;"
         offset="1"
         id="stop3452" />
    </linearGradient>
    <inkscape:perspective
       sodipodi:type="inkscape:persp3d"
       inkscape:vp_x="0 : 127.5 : 1"
       inkscape:vp_y="0 : 1000 : 0"
       inkscape:vp_z="255 : 127.5 : 1"
       inkscape:persp3d-origin="127.5 : 85 : 1"
       id="perspective54" />
    <linearGradient
       id="linearGradient2843">
      <stop
         style="stop-color:#e1cb7d;stop-opacity:1;"
         offset="0"
         id="stop2845" />
      <stop
         style="stop-color:white;stop-opacity:1"
         offset="1"
         id="stop2847" />
    </linearGradient>
    <linearGradient
       id="linearGradient2812">
      <stop
         style="stop-color:#2a2a2a;stop-opacity:1;"
         offset="0"
         id="stop2814" />
      <stop
         style="stop-color:#929292;stop-opacity:0.25396827;"
         offset="1"
         id="stop2816" />
    </linearGradient>
    <linearGradient
       id="linearGradient2804">
      <stop
         style="stop-color:#dddddd;stop-opacity:1;"
         offset="0"
         id="stop2806" />
      <stop
         style="stop-color:#000000;stop-opacity:1;"
         offset="1"
         id="stop2808" />
    </linearGradient>
    <linearGradient
       inkscape:collect="always"
       id="linearGradient2784">
      <stop
         style="stop-color:black;stop-opacity:1;"
         offset="0"
         id="stop2786" />
      <stop
         style="stop-color:black;stop-opacity:0;"
         offset="1"
         id="stop2788" />
    </linearGradient>
    <linearGradient
       inkscape:collect="always"
       id="linearGradient2776">
      <stop
         style="stop-color:black;stop-opacity:1;"
         offset="0"
         id="stop2778" />
      <stop
         style="stop-color:black;stop-opacity:0;"
         offset="1"
         id="stop2780" />
    </linearGradient>
    <linearGradient
       inkscape:collect="always"
       id="linearGradient2768">
      <stop
         style="stop-color:black;stop-opacity:1;"
         offset="0"
         id="stop2770" />
      <stop
         style="stop-color:black;stop-opacity:0;"
         offset="1"
         id="stop2772" />
    </linearGradient>
    <linearGradient
       gradientUnits="userSpaceOnUse"
       y2="42.245087"
       x2="150.11748"
       y1="202.21474"
       x1="142.96986"
       id="linearGradient2865"
       xlink:href="#linearGradient2837"
       inkscape:collect="always" />
    <linearGradient
       gradientUnits="userSpaceOnUse"
       y2="204.89578"
       x2="113.72008"
       y1="41.947189"
       x1="121.57563"
       id="linearGradient2857"
       xlink:href="#linearGradient2837"
       inkscape:collect="always" />
    <linearGradient
       spreadMethod="reflect"
       gradientUnits="userSpaceOnUse"
       y2="165.71899"
       x2="145.41264"
       y1="77.370277"
       x1="144.8076"
       id="linearGradient2849"
       xlink:href="#linearGradient2837"
       inkscape:collect="always" />
    <linearGradient
       gradientUnits="userSpaceOnUse"
       y2="53.922462"
       x2="122.81"
       y1="165.71899"
       x1="123.61967"
       id="linearGradient2835"
       xlink:href="#linearGradient2837"
       inkscape:collect="always" />
    <linearGradient
       gradientUnits="userSpaceOnUse"
       y2="190.7674"
       x2="177.70123"
       y1="172.18156"
       x1="177.02089"
       id="linearGradient2827"
       xlink:href="#linearGradient2813"
       inkscape:collect="always" />
    <linearGradient
       gradientUnits="userSpaceOnUse"
       y2="172.18156"
       x2="165.0208"
       y1="190.7674"
       x1="165.0208"
       id="linearGradient2819"
       xlink:href="#linearGradient2813"
       inkscape:collect="always" />
    <linearGradient
       id="linearGradient2813"
       inkscape:collect="always">
      <stop
         id="stop2815"
         offset="0"
         style="stop-color:white;stop-opacity:1" />
      <stop
         id="stop2817"
         offset="1"
         style="stop-color:black;stop-opacity:1" />
    </linearGradient>
    <linearGradient
       inkscape:collect="always"
       id="linearGradient2837">
      <stop
         style="stop-color:white;stop-opacity:1"
         offset="0"
         id="stop2839" />
      <stop
         style="stop-color:black;stop-opacity:1"
         offset="1"
         id="stop2841" />
    </linearGradient>
    <linearGradient
       id="linearGradient2797">
      <stop
         id="stop2799"
         offset="0"
         style="stop-color:#d1ff8d;stop-opacity:0;" />
      <stop
         style="stop-color:#a5af46;stop-opacity:0;"
         offset="0.5"
         id="stop2278" />
      <stop
         id="stop2280"
         offset="0.75"
         style="stop-color:#6b8723;stop-opacity:0.29019609;" />
      <stop
         id="stop2801"
         offset="1"
         style="stop-color:#446000;stop-opacity:1;" />
    </linearGradient>
    <linearGradient
       id="linearGradient2284">
      <stop
         style="stop-color:#c8c6fd;stop-opacity:1;"
         offset="0"
         id="stop2290" />
      <stop
         style="stop-color:#000c66;stop-opacity:1;"
         offset="1"
         id="stop2292" />
    </linearGradient>
    <linearGradient
       id="linearGradient2296">
      <stop
         id="stop2298"
         offset="0"
         style="stop-color:#6274ac;stop-opacity:1;" />
      <stop
         id="stop2300"
         offset="1"
         style="stop-color:#ffffff;stop-opacity:1;" />
    </linearGradient>
    <inkscape:perspective
       id="perspective2589"
       inkscape:persp3d-origin="250.0002 : 166.6668 : 1"
       inkscape:vp_z="500.0004 : 250.0002 : 1"
       inkscape:vp_y="0 : 1000 : 0"
       inkscape:vp_x="0 : 250.0002 : 1"
       sodipodi:type="inkscape:persp3d" />
    <linearGradient
       gradientTransform="matrix(0.4584837,0,0,0.4584837,12.357625,81.058821)"
       y2="50.573639"
       x2="215.89148"
       y1="113.36433"
       x1="155.81395"
       spreadMethod="reflect"
       gradientUnits="userSpaceOnUse"
       id="linearGradient3403"
       xlink:href="#linearGradient3369"
       inkscape:collect="always" />
    <linearGradient
       y2="78.617943"
       x2="-79.282944"
       y1="145.67221"
       x1="-81.182167"
       gradientUnits="userSpaceOnUse"
       id="linearGradient3397"
       xlink:href="#linearGradient3387"
       inkscape:collect="always" />
    <linearGradient
       gradientUnits="userSpaceOnUse"
       y2="78.617943"
       x2="-79.282944"
       y1="145.67221"
       x1="-81.182167"
       id="linearGradient3393"
       xlink:href="#linearGradient3387"
       inkscape:collect="always" />
    <linearGradient
       spreadMethod="reflect"
       gradientUnits="userSpaceOnUse"
       y2="50.573639"
       x2="215.89148"
       y1="113.36433"
       x1="155.81395"
       id="linearGradient3375"
       xlink:href="#linearGradient3369"
       inkscape:collect="always" />
    <linearGradient
       y2="-7.4748664"
       x2="16.093008"
       y1="-7.4748664"
       x1="13.514812"
       spreadMethod="reflect"
       gradientUnits="userSpaceOnUse"
       id="linearGradient2595"
       xlink:href="#linearGradient3578"
       inkscape:collect="always" />
    <linearGradient
       y2="-7.4748664"
       x2="16.093008"
       y1="-7.4748664"
       x1="13.514812"
       spreadMethod="reflect"
       gradientUnits="userSpaceOnUse"
       id="linearGradient2593"
       xlink:href="#linearGradient3578"
       inkscape:collect="always" />
    <linearGradient
       y2="-7.4748664"
       x2="16.093008"
       y1="-7.4748664"
       x1="13.514812"
       spreadMethod="reflect"
       gradientUnits="userSpaceOnUse"
       id="linearGradient2591"
       xlink:href="#linearGradient3578"
       inkscape:collect="always" />
    <linearGradient
       y2="-7.4748664"
       x2="16.093008"
       y1="-7.4748664"
       x1="13.514812"
       spreadMethod="reflect"
       gradientUnits="userSpaceOnUse"
       id="linearGradient2589"
       xlink:href="#linearGradient3578"
       inkscape:collect="always" />
    <linearGradient
       y2="-7.4748664"
       x2="16.093008"
       y1="-7.4748664"
       x1="13.514812"
       spreadMethod="reflect"
       gradientUnits="userSpaceOnUse"
       id="linearGradient2587"
       xlink:href="#linearGradient3578"
       inkscape:collect="always" />
    <linearGradient
       y2="-7.4748664"
       x2="16.093008"
       y1="-7.4748664"
       x1="13.514812"
       spreadMethod="reflect"
       gradientUnits="userSpaceOnUse"
       id="linearGradient2585"
       xlink:href="#linearGradient3578"
       inkscape:collect="always" />
    <linearGradient
       y2="-7.4748664"
       x2="16.093008"
       y1="-7.4748664"
       x1="13.514812"
       spreadMethod="reflect"
       gradientUnits="userSpaceOnUse"
       id="linearGradient2583"
       xlink:href="#linearGradient3578"
       inkscape:collect="always" />
    <linearGradient
       y2="-7.4748664"
       x2="16.093008"
       y1="-7.4748664"
       x1="13.514812"
       spreadMethod="reflect"
       gradientUnits="userSpaceOnUse"
       id="linearGradient2581"
       xlink:href="#linearGradient3578"
       inkscape:collect="always" />
    <linearGradient
       y2="-7.4748664"
       x2="16.093008"
       y1="-7.4748664"
       x1="13.514812"
       spreadMethod="reflect"
       gradientUnits="userSpaceOnUse"
       id="linearGradient2579"
       xlink:href="#linearGradient3578"
       inkscape:collect="always" />
    <linearGradient
       y2="-7.4748664"
       x2="16.093008"
       y1="-7.4748664"
       x1="13.514812"
       spreadMethod="reflect"
       gradientUnits="userSpaceOnUse"
       id="linearGradient2577"
       xlink:href="#linearGradient3578"
       inkscape:collect="always" />
    <linearGradient
       y2="-7.4748664"
       x2="16.093008"
       y1="-7.4748664"
       x1="13.514812"
       spreadMethod="reflect"
       gradientUnits="userSpaceOnUse"
       id="linearGradient2575"
       xlink:href="#linearGradient3578"
       inkscape:collect="always" />
    <linearGradient
       y2="-7.4748664"
       x2="16.093008"
       y1="-7.4748664"
       x1="13.514812"
       spreadMethod="reflect"
       gradientUnits="userSpaceOnUse"
       id="linearGradient2573"
       xlink:href="#linearGradient3578"
       inkscape:collect="always" />
    <linearGradient
       y2="-7.4748664"
       x2="16.093008"
       y1="-7.4748664"
       x1="13.514812"
       spreadMethod="reflect"
       gradientUnits="userSpaceOnUse"
       id="linearGradient2571"
       xlink:href="#linearGradient3578"
       inkscape:collect="always" />
    <linearGradient
       y2="-7.4748664"
       x2="16.093008"
       y1="-7.4748664"
       x1="13.514812"
       spreadMethod="reflect"
       gradientUnits="userSpaceOnUse"
       id="linearGradient2569"
       xlink:href="#linearGradient3578"
       inkscape:collect="always" />
    <linearGradient
       y2="-7.4748664"
       x2="16.093008"
       y1="-7.4748664"
       x1="13.514812"
       spreadMethod="reflect"
       gradientUnits="userSpaceOnUse"
       id="linearGradient2567"
       xlink:href="#linearGradient3578"
       inkscape:collect="always" />
    <linearGradient
       y2="-7.4748664"
       x2="16.093008"
       y1="-7.4748664"
       x1="13.514812"
       spreadMethod="reflect"
       gradientUnits="userSpaceOnUse"
       id="linearGradient2565"
       xlink:href="#linearGradient3578"
       inkscape:collect="always" />
    <linearGradient
       y2="-7.4748664"
       x2="16.093008"
       y1="-7.4748664"
       x1="13.514812"
       spreadMethod="reflect"
       gradientUnits="userSpaceOnUse"
       id="linearGradient2563"
       xlink:href="#linearGradient3578"
       inkscape:collect="always" />
    <linearGradient
       y2="-7.4748664"
       x2="16.093008"
       y1="-7.4748664"
       x1="13.514812"
       spreadMethod="reflect"
       gradientUnits="userSpaceOnUse"
       id="linearGradient2561"
       xlink:href="#linearGradient3578"
       inkscape:collect="always" />
    <linearGradient
       y2="-7.4748664"
       x2="16.093008"
       y1="-7.4748664"
       x1="13.514812"
       spreadMethod="reflect"
       gradientUnits="userSpaceOnUse"
       id="linearGradient2559"
       xlink:href="#linearGradient3578"
       inkscape:collect="always" />
    <linearGradient
       y2="-7.4748664"
       x2="16.093008"
       y1="-7.4748664"
       x1="13.514812"
       spreadMethod="reflect"
       gradientUnits="userSpaceOnUse"
       id="linearGradient2557"
       xlink:href="#linearGradient3578"
       inkscape:collect="always" />
    <linearGradient
       y2="-7.4748664"
       x2="16.093008"
       y1="-7.4748664"
       x1="13.514812"
       spreadMethod="reflect"
       gradientUnits="userSpaceOnUse"
       id="linearGradient2555"
       xlink:href="#linearGradient3578"
       inkscape:collect="always" />
    <linearGradient
       y2="-7.4748664"
       x2="16.093008"
       y1="-7.4748664"
       x1="13.514812"
       spreadMethod="reflect"
       gradientUnits="userSpaceOnUse"
       id="linearGradient2553"
       xlink:href="#linearGradient3578"
       inkscape:collect="always" />
    <linearGradient
       y2="-7.4748664"
       x2="16.093008"
       y1="-7.4748664"
       x1="13.514812"
       spreadMethod="reflect"
       gradientUnits="userSpaceOnUse"
       id="linearGradient2551"
       xlink:href="#linearGradient3578"
       inkscape:collect="always" />
    <linearGradient
       y2="-7.4748664"
       x2="16.093008"
       y1="-2.2096405"
       x1="15.650429"
       spreadMethod="reflect"
       gradientUnits="userSpaceOnUse"
       id="linearGradient3610"
       xlink:href="#linearGradient3578"
       inkscape:collect="always" />
    <linearGradient
       y2="-7.4748664"
       x2="16.093008"
       y1="-6.4087667"
       x1="10.621114"
       spreadMethod="reflect"
       gradientUnits="userSpaceOnUse"
       id="linearGradient3608"
       xlink:href="#linearGradient3578"
       inkscape:collect="always" />
    <linearGradient
       y2="-1.5134122"
       x2="9.7181683"
       y1="-5.8865957"
       x1="11.186799"
       spreadMethod="reflect"
       gradientUnits="userSpaceOnUse"
       id="linearGradient3606"
       xlink:href="#linearGradient3578"
       inkscape:collect="always" />
    <linearGradient
       y2="-4.5158963"
       x2="12.916467"
       y1="-3.7543969"
       x1="7.7709298"
       spreadMethod="reflect"
       gradientUnits="userSpaceOnUse"
       id="linearGradient3604"
       xlink:href="#linearGradient3578"
       inkscape:collect="always" />
    <linearGradient
       y2="-3.7326398"
       x2="14.93988"
       y1="-2.2749119"
       x1="17.082983"
       spreadMethod="reflect"
       gradientUnits="userSpaceOnUse"
       id="linearGradient3602"
       xlink:href="#linearGradient3578"
       inkscape:collect="always" />
    <linearGradient
       y2="-1.9920692"
       x2="17.376678"
       y1="-6.2564669"
       x1="15.58174"
       spreadMethod="reflect"
       gradientUnits="userSpaceOnUse"
       id="linearGradient3600"
       xlink:href="#linearGradient3578"
       inkscape:collect="always" />
    <linearGradient
       y2="-7.4748664"
       x2="16.093008"
       y1="-10.977764"
       x1="16.691353"
       spreadMethod="reflect"
       gradientUnits="userSpaceOnUse"
       id="linearGradient3598"
       xlink:href="#linearGradient3578"
       inkscape:collect="always" />
    <linearGradient
       y2="-11.199143"
       x2="11.132382"
       y1="-11.39115"
       x1="16.386753"
       spreadMethod="reflect"
       gradientUnits="userSpaceOnUse"
       id="linearGradient3596"
       xlink:href="#linearGradient3578"
       inkscape:collect="always" />
    <linearGradient
       y2="-2.6882975"
       x2="8.6955833"
       y1="-11.586965"
       x1="12.035328"
       spreadMethod="reflect"
       gradientUnits="userSpaceOnUse"
       id="linearGradient3594"
       xlink:href="#linearGradient3578"
       inkscape:collect="always" />
    <linearGradient
       y2="-5.7778101"
       x2="11.371711"
       y1="-10.150993"
       x1="12.905613"
       spreadMethod="reflect"
       gradientUnits="userSpaceOnUse"
       id="linearGradient3592"
       xlink:href="#linearGradient3578"
       inkscape:collect="always" />
    <linearGradient
       y2="-6.9526954"
       x2="17.74655"
       y1="-5.9083529"
       x1="16.386753"
       spreadMethod="reflect"
       gradientUnits="userSpaceOnUse"
       id="linearGradient3590"
       xlink:href="#linearGradient3578"
       inkscape:collect="always" />
    <linearGradient
       y2="-8.018795"
       x2="17.07476"
       y1="-7.4748664"
       x1="13.514812"
       spreadMethod="reflect"
       gradientUnits="userSpaceOnUse"
       id="linearGradient3588"
       xlink:href="#linearGradient3578"
       inkscape:collect="always" />
    <linearGradient
       y2="-6.5828238"
       x2="18.616835"
       y1="-5.2121248"
       x1="16.908924"
       spreadMethod="reflect"
       gradientUnits="userSpaceOnUse"
       id="linearGradient3586"
       xlink:href="#linearGradient3578"
       inkscape:collect="always" />
    <linearGradient
       spreadMethod="reflect"
       gradientUnits="userSpaceOnUse"
       y2="-7.4748664"
       x2="16.093008"
       y1="-7.4748664"
       x1="13.514812"
       id="linearGradient3584"
       xlink:href="#linearGradient3578"
       inkscape:collect="always" />
    <inkscape:perspective
       sodipodi:type="inkscape:persp3d"
       inkscape:vp_x="0 : 128 : 1"
       inkscape:vp_y="0 : 1000 : 0"
       inkscape:vp_z="256 : 128 : 1"
       inkscape:persp3d-origin="128 : 85.333333 : 1"
       id="perspective2503" />
    <linearGradient
       id="linearGradient3578">
      <stop
         id="stop3580"
         offset="0"
         style="stop-color:#000000;stop-opacity:1;" />
      <stop
         id="stop3582"
         offset="1"
         style="stop-color:#fffcfc;stop-opacity:1;" />
    </linearGradient>
    <linearGradient
       id="linearGradient3369"
       inkscape:collect="always">
      <stop
         id="stop3371"
         offset="0"
         style="stop-color:#6465df;stop-opacity:1" />
      <stop
         id="stop3373"
         offset="1"
         style="stop-color:#ffffff;stop-opacity:1" />
    </linearGradient>
    <linearGradient
       id="linearGradient3387"
       inkscape:collect="always">
      <stop
         id="stop3389"
         offset="0"
         style="stop-color:#000000;stop-opacity:1;" />
      <stop
         id="stop3391"
         offset="1"
         style="stop-color:#ffffff;stop-opacity:1" />
    </linearGradient>
    <linearGradient
       inkscape:collect="always"
       xlink:href="#linearGradient2768"
       id="linearGradient3945"
       gradientUnits="userSpaceOnUse"
       gradientTransform="translate(2.727155,101.9956)"
       x1="256.89798"
       y1="15.414317"
       x2="158.17497"
       y2="114.13732" />
    <linearGradient
       inkscape:collect="always"
       xlink:href="#linearGradient2776"
       id="linearGradient3947"
       gradientUnits="userSpaceOnUse"
       gradientTransform="translate(1.090862,103.6319)"
       x1="248.71652"
       y1="11.73778"
       x2="168.53816"
       y2="98.263771" />
    <linearGradient
       inkscape:collect="always"
       xlink:href="#linearGradient2784"
       id="linearGradient3949"
       gradientUnits="userSpaceOnUse"
       x1="249.80739"
       y1="106.90628"
       x2="183.2648"
       y2="183.26662" />
    <radialGradient
       inkscape:collect="always"
       xlink:href="#linearGradient2804"
       id="radialGradient3951"
       gradientUnits="userSpaceOnUse"
       gradientTransform="matrix(1.2447194,0.03919476,-0.02584262,0.82069147,-41.300388,18.96821)"
       spreadMethod="reflect"
       cx="187.27158"
       cy="159.65289"
       fx="187.27158"
       fy="159.65289"
       r="31.04413" />
    <radialGradient
       inkscape:collect="always"
       xlink:href="#linearGradient2804"
       id="radialGradient3959"
       gradientUnits="userSpaceOnUse"
       gradientTransform="matrix(0.04615088,-1.563078,1.353934,0.03997586,-68.107512,410.54226)"
       cx="162.27423"
       cy="162.09016"
       fx="162.27423"
       fy="162.09016"
       r="107.66867" />
    <linearGradient
       inkscape:collect="always"
       xlink:href="#linearGradient2812"
       id="linearGradient3961"
       gradientUnits="userSpaceOnUse"
       x1="176.8268"
       y1="236.48242"
       x2="41.40733"
       y2="-2.1210465"
       gradientTransform="translate(-3.4332925,-2.49694)" />
    <filter
       inkscape:collect="always"
       id="filter3966">
      <feGaussianBlur
         inkscape:collect="always"
         stdDeviation="3.4340725"
         id="feGaussianBlur3968" />
    </filter>
  </defs>
  <g
     inkscape:label="1. réteg"
     id="layer1"
     transform="translate(3.93405,0.4748633)">
    <g
       id="g2637">
      <g
         id="g3612"
         transform="translate(-2.5722563,0)">
        <g
           id="g2650"
           style="font-size:12px;font-style:normal;font-weight:normal;fill:url(#linearGradient3584);fill-opacity:1;stroke:none;stroke-width:1px;stroke-linecap:butt;stroke-linejoin:miter;stroke-opacity:1;font-family:Bitstream Vera Sans">
          <path
             style="fill:url(#linearGradient2551);fill-opacity:1"
             id="path2652"
             d="M 16.1875,-12.21875 L 12.09375,-12.1875 L 12.800857,-11.480393 L 16.894607,-11.511643 L 16.1875,-12.21875 z" />
          <path
             style="fill:url(#linearGradient2553);fill-opacity:1"
             id="path2654"
             d="M 12.09375,-12.1875 L 8.75,-3.4375 L 9.4571068,-2.7303932 L 12.800857,-11.480393 L 12.09375,-12.1875 z" />
          <path
             style="fill:url(#linearGradient2555);fill-opacity:1"
             id="path2662"
             d="M 14.75,-5.6875 L 15.53125,-3.46875 L 16.238357,-2.7616432 L 15.457107,-4.9803932 L 14.75,-5.6875 z" />
          <path
             style="fill:url(#linearGradient2557);fill-opacity:1"
             id="path2664"
             d="M 15.53125,-3.46875 L 15.53125,-3.4375 L 16.238357,-2.7303932 L 16.238357,-2.7616432 L 15.53125,-3.46875 z" />
          <path
             style="fill:url(#linearGradient2559);fill-opacity:1"
             id="path2672"
             d="M 17.92037,-11.519527 C 17.478803,-11.961094 16.896486,-12.233764 16.1875,-12.21875 L 16.894607,-11.511643 C 17.603593,-11.526657 18.185909,-11.253988 18.627477,-10.81242 L 17.92037,-11.519527 z" />
          <path
             style="fill:url(#linearGradient3598);fill-opacity:1"
             id="path2674"
             d="M 16.21875,-11.96875 C 16.818366,-11.965939 17.317195,-11.725944 17.700221,-11.342918 L 18.407328,-10.635811 C 18.024302,-11.018837 17.525473,-11.258832 16.925857,-11.261643 L 16.21875,-11.96875 z" />
          <path
             style="fill:url(#linearGradient2561);fill-opacity:1"
             id="path2676"
             d="M 17.700221,-11.342918 C 19.261676,-9.7814631 18.898615,-5.8429893 15.59375,-5.90625 L 16.300857,-5.1991432 C 19.605722,-5.1358825 19.968783,-9.0743563 18.407328,-10.635811 L 17.700221,-11.342918 z" />
          <path
             style="fill:url(#linearGradient2563);fill-opacity:1"
             id="path2678"
             d="M 15.59375,-5.90625 L 16.375,-3.71875 L 17.082107,-3.0116432 L 16.300857,-5.1991432 L 15.59375,-5.90625 z" />
          <path
             style="fill:url(#linearGradient2565);fill-opacity:1"
             id="path2680"
             d="M 16.375,-3.71875 L 15.71875,-3.71875 L 16.425857,-3.0116432 L 17.082107,-3.0116432 L 16.375,-3.71875 z" />
          <path
             style="fill:url(#linearGradient2567);fill-opacity:1"
             id="path2684"
             d="M 14.875,-5.96875 L 10.5625,-5.96875 L 11.269607,-5.2616432 L 15.582107,-5.2616432 L 14.875,-5.96875 z" />
          <path
             style="fill:url(#linearGradient2569);fill-opacity:1"
             id="path2686"
             d="M 10.5625,-5.96875 L 9.75,-3.75 L 10.457107,-3.0428932 L 11.269607,-5.2616432 L 10.5625,-5.96875 z" />
          <path
             style="fill:url(#linearGradient3594);fill-opacity:1"
             id="path2690"
             d="M 9.1875,-3.75 L 12.28125,-11.90625 L 12.988357,-11.199143 L 9.8946068,-3.0428932 L 9.1875,-3.75 z" />
          <path
             style="fill:url(#linearGradient3608);fill-opacity:1"
             id="path2660"
             d="M 10.8125,-5.6875 L 14.75,-5.6875 L 15.457107,-4.9803932 L 11.519607,-4.9803932 L 10.8125,-5.6875 z" />
          <path
             style="fill:url(#linearGradient3610);fill-opacity:1"
             id="path2682"
             d="M 15.71875,-3.71875 L 14.875,-5.96875 L 15.582107,-5.2616432 L 16.425857,-3.0116432 L 15.71875,-3.71875 z" />
          <path
             style="fill:url(#linearGradient2571);fill-opacity:1"
             id="path2688"
             d="M 9.75,-3.75 L 9.1875,-3.75 L 9.8946068,-3.0428932 L 10.457107,-3.0428932 L 9.75,-3.75 z" />
          <path
             style="fill:url(#linearGradient3596);fill-opacity:1"
             id="path2692"
             d="M 12.28125,-11.90625 L 16.21875,-11.96875 L 16.925857,-11.261643 L 12.988357,-11.199143 L 12.28125,-11.90625 z" />
          <path
             style="fill:url(#linearGradient2573);fill-opacity:1"
             id="path2694"
             d="M 13.59375,-11.375 L 15.4375,-6.4375 L 16.144607,-5.7303932 L 14.300857,-10.667893 L 13.59375,-11.375 z" />
          <path
             style="fill:url(#linearGradient2575);fill-opacity:1"
             id="path2698"
             d="M 17.29651,-10.694689 C 16.87154,-11.11966 16.292483,-11.392236 15.59375,-11.375 L 16.300857,-10.667893 C 16.99959,-10.685129 17.578646,-10.412554 18.003617,-9.9875826 L 17.29651,-10.694689 z" />
          <path
             style="fill:url(#linearGradient2577);fill-opacity:1"
             id="path2700"
             d="M 15.59375,-11.375 L 13.59375,-11.375 L 14.300857,-10.667893 L 16.300857,-10.667893 L 15.59375,-11.375 z" />
          <path
             style="fill:url(#linearGradient2579);fill-opacity:1"
             id="path2702"
             d="M 12.5,-11.25 L 10.71875,-6.375 L 11.425857,-5.6678932 L 13.207107,-10.542893 L 12.5,-11.25 z" />
          <path
             style="fill:url(#linearGradient2581);fill-opacity:1"
             id="path2704"
             d="M 10.71875,-6.375 L 14.71875,-6.3125 L 15.425857,-5.6053932 L 11.425857,-5.6678932 L 10.71875,-6.375 z" />
          <path
             style="fill:url(#linearGradient2583);fill-opacity:1"
             id="path2706"
             d="M 14.71875,-6.3125 L 12.96875,-11.25 L 13.675857,-10.542893 L 15.425857,-5.6053932 L 14.71875,-6.3125 z" />
          <path
             style="fill:url(#linearGradient2585);fill-opacity:1"
             id="path2708"
             d="M 12.96875,-11.25 L 12.5,-11.25 L 13.207107,-10.542893 L 13.675857,-10.542893 L 12.96875,-11.25 z" />
          <path
             style="fill:url(#linearGradient2587);fill-opacity:1"
             id="path2710"
             d="M 13.96875,-11.125 L 15.5625,-11.125 L 16.269607,-10.417893 L 14.675857,-10.417893 L 13.96875,-11.125 z" />
          <path
             style="fill:url(#linearGradient2589);fill-opacity:1"
             id="path2712"
             d="M 15.5625,-11.125 C 16.263236,-11.142285 16.807643,-10.897983 17.18911,-10.516516 L 17.896217,-9.8094094 C 17.51475,-10.190876 16.970342,-10.435179 16.269607,-10.417893 L 15.5625,-11.125 z" />
          <path
             style="fill:url(#linearGradient3588);fill-opacity:1"
             id="path2714"
             d="M 17.18911,-10.516516 C 18.415922,-9.2897044 17.957455,-6.644214 15.59375,-6.71875 L 16.300857,-6.0116432 C 18.664562,-5.9371073 19.123029,-8.5825976 17.896217,-9.8094094 L 17.18911,-10.516516 z" />
          <path
             style="fill:url(#linearGradient2591);fill-opacity:1"
             id="path2716"
             d="M 15.59375,-6.71875 L 13.96875,-11.125 L 14.675857,-10.417893 L 16.300857,-6.0116432 L 15.59375,-6.71875 z" />
          <path
             style="fill:url(#linearGradient3590);fill-opacity:1"
             id="path2696"
             d="M 15.4375,-6.4375 C 18.434536,-6.3628978 18.668368,-9.3228317 17.29651,-10.694689 L 18.003617,-9.9875826 C 19.375475,-8.6157249 19.141643,-5.655791 16.144607,-5.7303932 L 15.4375,-6.4375 z" />
          <path
             style="fill:url(#linearGradient3592);fill-opacity:1"
             id="path2722"
             d="M 11.15625,-6.65625 L 12.75,-11.03125 L 13.457107,-10.324143 L 11.863357,-5.9491432 L 11.15625,-6.65625 z" />
          <path
             style="fill:url(#linearGradient2593);fill-opacity:1"
             id="path2718"
             d="M 12.75,-11.03125 L 14.375,-6.65625 L 15.082107,-5.9491432 L 13.457107,-10.324143 L 12.75,-11.03125 z" />
          <path
             style="fill:url(#linearGradient2595);fill-opacity:1"
             id="path2720"
             d="M 14.375,-6.65625 L 11.15625,-6.65625 L 11.863357,-5.9491432 L 15.082107,-5.9491432 L 14.375,-6.65625 z" />
          <path
             style="fill:url(#linearGradient3586);fill-opacity:1"
             id="path2670"
             d="M 15.96875,-5.6875 C 19.235011,-5.6249782 19.618583,-9.8213136 17.92037,-11.519527 L 18.627477,-10.81242 C 20.32569,-9.1142068 19.942118,-4.9178714 16.675857,-4.9803932 L 15.96875,-5.6875 z" />
          <path
             style="fill:url(#linearGradient3600);fill-opacity:1"
             id="path2668"
             d="M 16.78125,-3.4375 L 15.96875,-5.6875 L 16.675857,-4.9803932 L 17.488357,-2.7303932 L 16.78125,-3.4375 z" />
          <path
             style="fill:url(#linearGradient3602);fill-opacity:1"
             id="path2666"
             d="M 15.53125,-3.4375 L 16.78125,-3.4375 L 17.488357,-2.7303932 L 16.238357,-2.7303932 L 15.53125,-3.4375 z" />
          <path
             style="fill:url(#linearGradient3604);fill-opacity:1"
             id="path2656"
             d="M 8.75,-3.4375 L 10,-3.4375 L 10.707107,-2.7303932 L 9.4571068,-2.7303932 L 8.75,-3.4375 z" />
          <path
             style="fill:url(#linearGradient3606);fill-opacity:1"
             id="path2658"
             d="M 10,-3.4375 L 10.8125,-5.6875 L 11.519607,-4.9803932 L 10.707107,-2.7303932 L 10,-3.4375 z" />
        </g>
        <path
           id="path2505"
           d="M 16.1875,-12.175236 L 12.09375,-12.143986 L 8.7499996,-3.3939857 L 9.9999996,-3.3939857 L 10.8125,-5.6439857 L 14.75,-5.6439857 L 15.53125,-3.4252357 L 15.53125,-3.3939857 L 16.78125,-3.3939857 L 15.96875,-5.6439857 C 20.084301,-5.565207 19.623157,-12.247993 16.1875,-12.175236 z M 16.21875,-11.925236 C 19.262779,-11.910965 19.709301,-5.7839571 15.59375,-5.8627357 L 16.375,-3.6752357 L 15.71875,-3.6752357 L 14.875,-5.9252357 L 10.5625,-5.9252357 L 9.7499996,-3.7064857 L 9.1874996,-3.7064857 L 12.28125,-11.862736 L 16.21875,-11.925236 z M 13.59375,-11.331486 L 15.4375,-6.3939857 C 19.362951,-6.2962734 18.548077,-11.404362 15.59375,-11.331486 L 13.59375,-11.331486 z M 12.5,-11.206486 L 10.71875,-6.3314857 L 14.71875,-6.2689857 L 12.96875,-11.206486 L 12.5,-11.206486 z M 13.96875,-11.081486 L 15.5625,-11.081486 C 18.516827,-11.154362 18.69243,-6.5775234 15.59375,-6.6752357 L 13.96875,-11.081486 z M 12.75,-10.987736 L 14.375,-6.6127357 L 11.15625,-6.6127357 L 12.75,-10.987736 z"
           style="font-size:12px;font-style:normal;font-weight:normal;fill:#333333;fill-opacity:1;stroke:none;stroke-width:1px;stroke-linecap:butt;stroke-linejoin:miter;stroke-opacity:1;font-family:Bitstream Vera Sans" />
      </g>
      <path
         id="text2170"
         d="M 6.0871491,-4.0239012 C 6.0766271,-4.0350472 6.0650871,-4.0430982 6.0525291,-4.0480532 C 6.0403101,-4.0536252 6.0267331,-4.0564122 6.0117991,-4.0564132 C 5.9588511,-4.0564122 5.9181211,-4.0248292 5.8896111,-3.9616652 C 5.8614391,-3.8991182 5.8473541,-3.8090152 5.8473541,-3.6913552 L 5.8473541,-3.1433032 L 5.7531671,-3.1433032 L 5.7531671,-4.1836722 L 5.8473541,-4.1836722 L 5.8473541,-4.0220442 C 5.8670401,-4.0852082 5.8926651,-4.1319622 5.9242311,-4.1623082 C 5.9557961,-4.1932692 5.9941491,-4.2087522 6.0392921,-4.2087532 C 6.0457401,-4.2087522 6.0528681,-4.2078222 6.0606751,-4.2059662 C 6.0684811,-4.2047262 6.0771361,-4.2025592 6.0866401,-4.1994642 L 6.0871491,-4.0239012 M 6.3849841,-4.0638442 C 6.3347511,-4.0638432 6.2950401,-4.0279262 6.2658501,-3.9560922 C 6.2366611,-3.8848752 6.2220661,-3.7870312 6.2220661,-3.6625592 C 6.2220661,-3.5380862 6.2364911,-3.4399322 6.2653411,-3.3680972 C 6.2945301,-3.2968812 6.3344111,-3.2612732 6.3849841,-3.2612732 C 6.4348791,-3.2612732 6.4744201,-3.2971912 6.5036101,-3.3690262 C 6.5327991,-3.4408612 6.5473941,-3.5387052 6.5473941,-3.6625592 C 6.5473941,-3.7857922 6.5327991,-3.8833272 6.5036101,-3.9551632 C 6.4744201,-4.0276162 6.4348791,-4.0638432 6.3849841,-4.0638442 M 6.3849841,-4.2087532 C 6.4664441,-4.2087522 6.5304231,-4.1604492 6.5769231,-4.0638442 C 6.6234221,-3.9672382 6.6466721,-3.8334762 6.6466731,-3.6625592 C 6.6466721,-3.4922602 6.6234221,-3.3584982 6.5769231,-3.2612732 C 6.5304231,-3.1646682 6.4664441,-3.1163652 6.3849841,-3.1163652 C 6.3031851,-3.1163652 6.2390361,-3.1646682 6.1925371,-3.2612732 C 6.1463771,-3.3584982 6.1232971,-3.4922602 6.1232971,-3.6625592 C 6.1232971,-3.8334762 6.1463771,-3.9672382 6.1925371,-4.0638442 C 6.2390361,-4.1604492 6.3031851,-4.2087522 6.3849841,-4.2087532 M 7.0224031,-4.0638442 C 6.9721701,-4.0638432 6.9324581,-4.0279262 6.9032691,-3.9560922 C 6.8740791,-3.8848752 6.8594851,-3.7870312 6.8594851,-3.6625592 C 6.8594851,-3.5380862 6.8739101,-3.4399322 6.9027601,-3.3680972 C 6.9319491,-3.2968812 6.9718301,-3.2612732 7.0224031,-3.2612732 C 7.0722961,-3.2612732 7.1118381,-3.2971912 7.1410281,-3.3690262 C 7.1702171,-3.4408612 7.1848121,-3.5387052 7.1848121,-3.6625592 C 7.1848121,-3.7857922 7.1702171,-3.8833272 7.1410281,-3.9551632 C 7.1118381,-4.0276162 7.0722961,-4.0638432 7.0224031,-4.0638442 M 7.0224031,-4.2087532 C 7.1038621,-4.2087522 7.1678411,-4.1604492 7.2143411,-4.0638442 C 7.2608401,-3.9672382 7.2840901,-3.8334762 7.2840901,-3.6625592 C 7.2840901,-3.4922602 7.2608401,-3.3584982 7.2143411,-3.2612732 C 7.1678411,-3.1646682 7.1038621,-3.1163652 7.0224031,-3.1163652 C 6.9406041,-3.1163652 6.8764551,-3.1646682 6.8299561,-3.2612732 C 6.7837951,-3.3584982 6.7607161,-3.4922602 6.7607161,-3.6625592 C 6.7607161,-3.8334762 6.7837951,-3.9672382 6.8299561,-4.0638442 C 6.8764551,-4.1604492 6.9406041,-4.2087522 7.0224031,-4.2087532 M 7.5315231,-4.4790632 L 7.5315231,-4.1836722 L 7.7244781,-4.1836722 L 7.7244781,-4.0508402 L 7.5315231,-4.0508402 L 7.5315231,-3.4860682 C 7.5315221,-3.4012282 7.5378011,-3.3467322 7.5503591,-3.3225812 C 7.5632571,-3.2984292 7.5892221,-3.2863532 7.6282551,-3.2863542 L 7.7244781,-3.2863542 L 7.7244781,-3.1433032 L 7.6282551,-3.1433032 C 7.5559591,-3.1433032 7.5060671,-3.1677642 7.4785741,-3.2166862 C 7.4510821,-3.2662282 7.4373361,-3.3560212 7.4373361,-3.4860682 L 7.4373361,-4.0508402 L 7.3686041,-4.0508402 L 7.3686041,-4.1836722 L 7.4373361,-4.1836722 L 7.4373361,-4.4790632 L 7.5315231,-4.4790632 M 7.9551091,-4.3759552 L 7.9551091,-3.8548412 L 8.0844261,-3.8548412 C 8.1322831,-3.8548412 8.1692791,-3.8774442 8.1954141,-3.9226512 C 8.2215481,-3.9678572 8.2346161,-4.0322602 8.2346161,-4.1158622 C 8.2346161,-4.1988432 8.2215481,-4.2629372 8.1954141,-4.3081452 C 8.1692791,-4.3533502 8.1322831,-4.3759542 8.0844261,-4.3759552 L 7.9551091,-4.3759552 M 7.8522671,-4.5301522 L 8.0844261,-4.5301522 C 8.1696181,-4.5301512 8.2339371,-4.4948522 8.2773821,-4.4242582 C 8.3211661,-4.3542792 8.3430581,-4.2514812 8.3430581,-4.1158622 C 8.3430581,-3.9790032 8.3211661,-3.8755862 8.2773821,-3.8056102 C 8.2339371,-3.7356322 8.1696181,-3.7006432 8.0844261,-3.7006432 L 7.9551091,-3.7006432 L 7.9551091,-3.1433032 L 7.8522671,-3.1433032 L 7.8522671,-4.5301522 M 8.6897691,-3.6662742 C 8.6140801,-3.6662742 8.5616401,-3.6504832 8.5324511,-3.6189002 C 8.5032611,-3.5873172 8.4886671,-3.5334412 8.4886671,-3.4572722 C 8.4886671,-3.3965832 8.4995281,-3.3482812 8.5212501,-3.3123632 C 8.5433121,-3.2770652 8.5731801,-3.2594162 8.6108561,-3.2594162 C 8.6627861,-3.2594162 8.7043641,-3.2928562 8.7355901,-3.3597372 C 8.7671551,-3.4272372 8.7829381,-3.5167212 8.7829381,-3.6281902 L 8.7829381,-3.6662742 L 8.6897691,-3.6662742 M 8.8766161,-3.7368712 L 8.8766161,-3.1433032 L 8.7829381,-3.1433032 L 8.7829381,-3.3012162 C 8.7615551,-3.2380512 8.7349111,-3.1912962 8.7030061,-3.1609522 C 8.6711011,-3.1312272 8.6320691,-3.1163652 8.5859091,-3.1163652 C 8.5275291,-3.1163652 8.4810301,-3.1460902 8.4464101,-3.2055402 C 8.4121291,-3.2656082 8.3949891,-3.3458032 8.3949891,-3.4461252 C 8.3949891,-3.5631662 8.4163721,-3.6514122 8.4591381,-3.7108622 C 8.5022431,-3.7703102 8.5663921,-3.8000352 8.6515851,-3.8000362 L 8.7829381,-3.8000362 L 8.7829381,-3.8167562 C 8.7829381,-3.8954022 8.7686821,-3.9560912 8.7401721,-3.9988212 C 8.7120001,-4.0421682 8.6722891,-4.0638432 8.6210381,-4.0638442 C 8.5884541,-4.0638432 8.5567191,-4.0567212 8.5258321,-4.0424792 C 8.4949461,-4.0282352 8.4652471,-4.0068712 8.4367361,-3.9783852 L 8.4367361,-4.1362982 C 8.4710171,-4.1604492 8.5042801,-4.1784082 8.5365241,-4.1901742 C 8.5687681,-4.2025592 8.6001641,-4.2087522 8.6307111,-4.2087532 C 8.7131881,-4.2087522 8.7747921,-4.1697372 8.8155221,-4.0917112 C 8.8562511,-4.0136832 8.8766151,-3.8954022 8.8766161,-3.7368712 M 9.0700821,-4.5886732 L 9.1637601,-4.5886732 L 9.1637601,-3.1433032 L 9.0700821,-3.1433032 L 9.0700821,-4.5886732 M 9.7173101,-3.6686217 C 9.7173091,-3.5800657 9.7293591,-3.5103987 9.7534571,-3.4596187 C 9.7775551,-3.4094577 9.8106481,-3.3843777 9.8527351,-3.3843777 C 9.8944841,-3.3843777 9.9272371,-3.4097677 9.9509961,-3.4605477 C 9.9750941,-3.5113277 9.9871441,-3.5806857 9.9871441,-3.6686217 C 9.9871441,-3.7553187 9.9749251,-3.8240567 9.9504871,-3.8748377 C 9.9260491,-3.9262367 9.8931261,-3.9519357 9.8517171,-3.9519367 C 9.8106481,-3.9519357 9.7778941,-3.9265457 9.7534571,-3.8757667 C 9.7293591,-3.8249857 9.7173091,-3.7559377 9.7173101,-3.6686217 M 9.9947811,-3.3908797 C 9.9744161,-3.3431967 9.9509961,-3.3078987 9.9245221,-3.2849857 C 9.8983871,-3.2626917 9.8678391,-3.2515447 9.8328801,-3.2515447 C 9.7745001,-3.2515447 9.7269831,-3.2899397 9.6903261,-3.3667287 C 9.6540091,-3.4441367 9.6358501,-3.5447677 9.6358501,-3.6686217 C 9.6358501,-3.7924747 9.6541781,-3.8931047 9.6908361,-3.9705147 C 9.7274921,-4.0479217 9.7748401,-4.0866257 9.8328801,-4.0866267 C 9.8678391,-4.0866257 9.8985571,-4.0748597 9.9250311,-4.0513287 C 9.9515051,-4.0284147 9.9747551,-3.9934267 9.9947811,-3.9463627 L 9.9947811,-4.0680487 L 10.067585,-4.0680487 L 10.067585,-3.3843777 C 10.117139,-3.3980017 10.155832,-3.4391827 10.183664,-3.5079217 C 10.211835,-3.5772787 10.22592,-3.6667627 10.225921,-3.7763737 C 10.22592,-3.8426357 10.22049,-3.9048717 10.209629,-3.9630827 C 10.199107,-4.0212937 10.182985,-4.0751697 10.161263,-4.1247117 C 10.125963,-4.2058347 10.082858,-4.2677617 10.031947,-4.3104917 C 9.9813731,-4.3538397 9.9262191,-4.3755137 9.8664821,-4.3755157 C 9.8247341,-4.3755137 9.7846831,-4.3652967 9.7463291,-4.3448617 C 9.7079751,-4.3250437 9.6725071,-4.2953187 9.6399231,-4.2556877 C 9.5866351,-4.1925207 9.5448881,-4.1095387 9.5146801,-4.0067417 C 9.4848111,-3.9045617 9.4698771,-3.7937127 9.4698771,-3.6741947 C 9.4698771,-3.5757307 9.4795511,-3.4834607 9.4988971,-3.3973827 C 9.5185831,-3.3113037 9.5469241,-3.2354437 9.5839201,-3.1698017 C 9.6195581,-3.1053977 9.6607971,-3.0564757 9.7076361,-3.0230357 C 9.7544751,-2.9889757 9.8045381,-2.9719457 9.8578271,-2.9719457 C 9.9016111,-2.9719457 9.9445471,-2.9855697 9.9866351,-3.0128177 C 10.029061,-3.0394457 10.067924,-3.0778407 10.103223,-3.1280017 L 10.149044,-3.0248937 C 10.106617,-2.9648247 10.060287,-2.9189987 10.010055,-2.8874157 C 9.9601601,-2.8552147 9.9094181,-2.8391137 9.8578271,-2.8391127 C 9.7950351,-2.8391137 9.7358071,-2.8595487 9.6801441,-2.9004207 C 9.6244801,-2.9406727 9.5749261,-2.9995037 9.5314811,-3.0769117 C 9.4880361,-3.1543197 9.4549431,-3.2438037 9.4322031,-3.3453637 C 9.4094621,-3.4475427 9.3980911,-3.5571537 9.3980921,-3.6741947 C 9.3980911,-3.7869007 9.4096321,-3.8943437 9.4327121,-3.9965237 C 9.4557921,-4.0987017 9.4887151,-4.1884957 9.5314811,-4.2659047 C 9.5752651,-4.3445507 9.6258371,-4.4046197 9.6831991,-4.4461117 C 9.7405591,-4.4882207 9.8013141,-4.5092757 9.8654631,-4.5092767 C 9.9374201,-4.5092757 10.004114,-4.4823377 10.065549,-4.4284627 C 10.127321,-4.3745847 10.179081,-4.2981057 10.22083,-4.1990237 C 10.246285,-4.1383347 10.265632,-4.0723827 10.27887,-4.0011677 C 10.292445,-3.9299517 10.299233,-3.8562587 10.299235,-3.7800897 C 10.299233,-3.6172217 10.27225,-3.4887247 10.218284,-3.3945957 C 10.164317,-3.3004667 10.089816,-3.2515447 9.9947811,-3.2478297 L 9.9947811,-3.3908797 M 10.84552,-3.7020617 C 10.845519,-3.8259147 10.831434,-3.9219007 10.803263,-3.9900217 C 10.775431,-4.0581397 10.736229,-4.0921997 10.685656,-4.0922007 C 10.635423,-4.0921997 10.596221,-4.0581397 10.56805,-3.9900217 C 10.540218,-3.9219007 10.526302,-3.8259147 10.526302,-3.7020617 C 10.526302,-3.5788277 10.540218,-3.4831507 10.56805,-3.4150317 C 10.596221,-3.3469117 10.635423,-3.3128517 10.685656,-3.3128527 C 10.736229,-3.3128517 10.775431,-3.3469117 10.803263,-3.4150317 C 10.831434,-3.4831507 10.845519,-3.5788277 10.84552,-3.7020617 M 10.939198,-3.2989187 C 10.939197,-3.1218087 10.917645,-2.9902147 10.87454,-2.9041367 C 10.831434,-2.8174387 10.765418,-2.7740907 10.676492,-2.7740897 C 10.643569,-2.7740907 10.612513,-2.7787347 10.583323,-2.7880237 C 10.554134,-2.7966937 10.525793,-2.8103177 10.4983,-2.8288957 L 10.4983,-2.9951687 C 10.525793,-2.9679207 10.552946,-2.9477947 10.57976,-2.9347897 C 10.606573,-2.9217857 10.633896,-2.9152837 10.661728,-2.9152827 C 10.723161,-2.9152837 10.769152,-2.9446987 10.799699,-3.0035287 C 10.830246,-3.0617397 10.845519,-3.1499857 10.84552,-3.2682657 L 10.84552,-3.3527957 C 10.826173,-3.2914877 10.801396,-3.2456617 10.771189,-3.2153177 C 10.74098,-3.1849737 10.704833,-3.1698017 10.662746,-3.1698017 C 10.592827,-3.1698017 10.536484,-3.2184147 10.493718,-3.3156387 C 10.450952,-3.4128637 10.429569,-3.5416717 10.429569,-3.7020617 C 10.429569,-3.8630707 10.450952,-3.9921877 10.493718,-4.0894137 C 10.536484,-4.1866377 10.592827,-4.2352507 10.662746,-4.2352517 C 10.704833,-4.2352507 10.74098,-4.2200787 10.771189,-4.1897347 C 10.801396,-4.1593897 10.826173,-4.1135637 10.84552,-4.0522577 L 10.84552,-4.2101707 L 10.939198,-4.2101707 L 10.939198,-3.2989187 M 11.576107,-4.0104577 C 11.599526,-4.0872457 11.627527,-4.1439077 11.660111,-4.1804457 C 11.692695,-4.2169817 11.731048,-4.2352507 11.775172,-4.2352517 C 11.834569,-4.2352507 11.88039,-4.1971647 11.912635,-4.1209957 C 11.944878,-4.0454447 11.961,-3.9376927 11.961001,-3.7977387 L 11.961001,-3.1698017 L 11.866814,-3.1698017 L 11.866814,-3.7921657 C 11.866813,-3.8918667 11.85714,-3.9658687 11.837794,-4.0141727 C 11.818447,-4.0624747 11.788918,-4.0866257 11.749207,-4.0866267 C 11.700671,-4.0866257 11.662317,-4.0572107 11.634146,-3.9983817 C 11.605975,-3.9395497 11.591889,-3.8593557 11.591889,-3.7577967 L 11.591889,-3.1698017 L 11.497702,-3.1698017 L 11.497702,-3.7921657 C 11.497702,-3.8924857 11.488029,-3.9664887 11.468682,-4.0141727 C 11.449336,-4.0624747 11.419467,-4.0866257 11.379077,-4.0866267 C 11.33122,-4.0866257 11.293206,-4.0569017 11.265035,-3.9974527 C 11.236863,-3.9386217 11.222777,-3.8587357 11.222778,-3.7577967 L 11.222778,-3.1698017 L 11.128591,-3.1698017 L 11.128591,-4.2101707 L 11.222778,-4.2101707 L 11.222778,-4.0485427 C 11.24416,-4.1123257 11.269786,-4.1593897 11.299655,-4.1897347 C 11.329523,-4.2200787 11.364991,-4.2352507 11.406061,-4.2352517 C 11.447469,-4.2352507 11.482598,-4.2160527 11.511449,-4.1776597 C 11.540638,-4.1392637 11.56219,-4.0835297 11.576107,-4.0104577 M 12.407499,-3.6927727 C 12.33181,-3.6927727 12.27937,-3.6769817 12.250181,-3.6453987 C 12.220992,-3.6138157 12.206397,-3.5599397 12.206397,-3.4837707 C 12.206397,-3.4230817 12.217258,-3.3747797 12.238981,-3.3388617 C 12.261042,-3.3035637 12.290911,-3.2859147 12.328586,-3.2859147 C 12.380516,-3.2859147 12.422094,-3.3193547 12.45332,-3.3862357 C 12.484885,-3.4537357 12.500668,-3.5432197 12.500668,-3.6546887 L 12.500668,-3.6927727 L 12.407499,-3.6927727 M 12.594346,-3.7633697 L 12.594346,-3.1698017 L 12.500668,-3.1698017 L 12.500668,-3.3277147 C 12.479285,-3.2645497 12.452641,-3.2177947 12.420736,-3.1874507 C 12.388831,-3.1577257 12.349799,-3.1428637 12.303639,-3.1428637 C 12.24526,-3.1428637 12.19876,-3.1725887 12.16414,-3.2320387 C 12.129859,-3.2921067 12.112719,-3.3723017 12.112719,-3.4726237 C 12.112719,-3.5896647 12.134102,-3.6779107 12.176868,-3.7373607 C 12.219973,-3.7968087 12.284122,-3.8265337 12.369315,-3.8265347 L 12.500668,-3.8265347 L 12.500668,-3.8432547 C 12.500668,-3.9219007 12.486412,-3.9825897 12.457902,-4.0253197 C 12.429731,-4.0686667 12.390019,-4.0903417 12.338768,-4.0903427 C 12.306184,-4.0903417 12.274449,-4.0832197 12.243563,-4.0689777 C 12.212676,-4.0547337 12.182977,-4.0333697 12.154467,-4.0048837 L 12.154467,-4.1627967 C 12.188747,-4.1869477 12.22201,-4.2049067 12.254254,-4.2166727 C 12.286498,-4.2290577 12.317894,-4.2352507 12.348441,-4.2352517 C 12.430918,-4.2352507 12.492522,-4.1962357 12.533252,-4.1182097 C 12.573981,-4.0401817 12.594346,-3.9219007 12.594346,-3.7633697 M 12.787812,-4.2101707 L 12.88149,-4.2101707 L 12.88149,-3.1698017 L 12.787812,-3.1698017 L 12.787812,-4.2101707 M 12.787812,-4.6151717 L 12.88149,-4.6151717 L 12.88149,-4.3987377 L 12.787812,-4.3987377 L 12.787812,-4.6151717 M 13.076992,-4.6151717 L 13.17067,-4.6151717 L 13.17067,-3.1698017 L 13.076992,-3.1698017 L 13.076992,-4.6151717 M 13.379409,-3.4057427 L 13.486833,-3.4057427 L 13.486833,-3.1698017 L 13.379409,-3.1698017 L 13.379409,-3.4057427 M 14.108468,-4.1702277 L 14.108468,-4.0104577 C 14.081994,-4.0370847 14.05535,-4.0569017 14.028537,-4.0699067 C 14.002062,-4.0835297 13.975248,-4.0903417 13.948096,-4.0903427 C 13.88734,-4.0903417 13.840162,-4.0550437 13.80656,-3.9844477 C 13.772958,-3.9144697 13.756157,-3.8160067 13.756157,-3.6890577 C 13.756157,-3.5621067 13.772958,-3.4633337 13.80656,-3.3927377 C 13.840162,-3.3227607 13.88734,-3.2877717 13.948096,-3.2877717 C 13.975248,-3.2877717 14.002062,-3.2942747 14.028537,-3.3072787 C 14.05535,-3.3209027 14.081994,-3.3410287 14.108468,-3.3676577 L 14.108468,-3.2097447 C 14.082333,-3.1874507 14.05518,-3.1707307 14.027009,-3.1595837 C 13.999177,-3.1484377 13.969478,-3.1428637 13.937913,-3.1428637 C 13.852041,-3.1428637 13.783819,-3.1920947 13.733247,-3.2905587 C 13.682674,-3.3890217 13.657388,-3.5218547 13.657388,-3.6890577 C 13.657388,-3.8587357 13.682844,-3.9921877 13.733756,-4.0894137 C 13.785007,-4.1866377 13.855096,-4.2352507 13.944023,-4.2352517 C 13.972872,-4.2352507 14.001043,-4.2296767 14.028537,-4.2185307 C 14.056029,-4.2080027 14.082672,-4.1919017 14.108468,-4.1702277 M 14.493363,-4.0903427 C 14.443129,-4.0903417 14.403418,-4.0544247 14.374229,-3.9825907 C 14.345039,-3.9113737 14.330444,-3.8135297 14.330445,-3.6890577 C 14.330444,-3.5645847 14.344869,-3.4664307 14.37372,-3.3945957 C 14.402909,-3.3233797 14.44279,-3.2877717 14.493363,-3.2877717 C 14.543256,-3.2877717 14.582798,-3.3236897 14.611988,-3.3955247 C 14.641177,-3.4673597 14.655772,-3.5652037 14.655772,-3.6890577 C 14.655772,-3.8122907 14.641177,-3.9098257 14.611988,-3.9816617 C 14.582798,-4.0541147 14.543256,-4.0903417 14.493363,-4.0903427 M 14.493363,-4.2352517 C 14.574821,-4.2352507 14.638801,-4.1869477 14.685301,-4.0903427 C 14.7318,-3.9937367 14.75505,-3.8599747 14.75505,-3.6890577 C 14.75505,-3.5187587 14.7318,-3.3849967 14.685301,-3.2877717 C 14.638801,-3.1911667 14.574821,-3.1428637 14.493363,-3.1428637 C 14.411564,-3.1428637 14.347415,-3.1911667 14.300915,-3.2877717 C 14.254755,-3.3849967 14.231675,-3.5187587 14.231675,-3.6890577 C 14.231675,-3.8599747 14.254755,-3.9937367 14.300915,-4.0903427 C 14.347415,-4.1869477 14.411564,-4.2352507 14.493363,-4.2352517 M 15.353775,-4.0104577 C 15.377194,-4.0872457 15.405195,-4.1439077 15.43778,-4.1804457 C 15.470363,-4.2169817 15.508716,-4.2352507 15.552841,-4.2352517 C 15.612237,-4.2352507 15.658058,-4.1971647 15.690303,-4.1209957 C 15.722547,-4.0454447 15.738669,-3.9376927 15.738669,-3.7977387 L 15.738669,-3.1698017 L 15.644482,-3.1698017 L 15.644482,-3.7921657 C 15.644482,-3.8918667 15.634808,-3.9658687 15.615463,-4.0141727 C 15.596115,-4.0624747 15.566586,-4.0866257 15.526876,-4.0866267 C 15.478339,-4.0866257 15.439985,-4.0572107 15.411815,-3.9983817 C 15.383643,-3.9395497 15.369557,-3.8593557 15.369558,-3.7577967 L 15.369558,-3.1698017 L 15.275371,-3.1698017 L 15.275371,-3.7921657 C 15.27537,-3.8924857 15.265697,-3.9664887 15.246351,-4.0141727 C 15.227004,-4.0624747 15.197136,-4.0866257 15.156746,-4.0866267 C 15.108888,-4.0866257 15.070874,-4.0569017 15.042703,-3.9974527 C 15.014531,-3.9386217 15.000446,-3.8587357 15.000446,-3.7577967 L 15.000446,-3.1698017 L 14.906259,-3.1698017 L 14.906259,-4.2101707 L 15.000446,-4.2101707 L 15.000446,-4.0485427 C 15.021829,-4.1123257 15.047455,-4.1593897 15.077323,-4.1897347 C 15.107191,-4.2200787 15.14266,-4.2352507 15.183729,-4.2352517 C 15.225137,-4.2352507 15.260266,-4.2160527 15.289117,-4.1776597 C 15.318306,-4.1392637 15.339859,-4.0835297 15.353775,-4.0104577"
         style="font-size:4px;font-style:normal;font-weight:normal;fill:#d40000;fill-opacity:1;stroke:none;stroke-width:1px;stroke-linecap:butt;stroke-linejoin:miter;stroke-opacity:1;font-family:Bitstream Vera Sans"
         sodipodi:nodetypes="csssccccccssscccsssssssccsssssssccsssssssccssssssscccccccsccccsccccccccccsssccccsssccccccssssscccccccssssscccsssccssscccccccsssssssccsssssssccccsssssssssssssssccssssssssssssssscccsssssssccsssccsssccssssssscccccsssccccsssccccsssccccccsssccssssscccccccssssscccsssccssscccccccccccccccccccccccsssssssccsssssssccsssssssccsssssssccsssccccsssccccsssccccccsssc" />
    </g>
  </g>
  <g
     id="g3149">
    <path
       inkscape:connector-curvature="0"
       id="path2824"
       d="m 178.91886,10.045603 c -45.78675,10.096339 -93.060253,17.998908 -140.124997,12.46875 -4.990462,5.22427 -2.88801,14.085712 -4.71875,20.71875 -8.208109,66.455757 -9.532038,134.466987 3.625,200.374997 10.917544,5.59652 24.247161,4.87986 36.374934,5.51976 57.607743,-0.13945 112.034513,-26.62359 169.937563,-21.89476 4.43135,-3.89878 -2.05173,-9.72438 -2.625,-14.15625 -16.81542,-46.97813 -9.62924,-97.83297 -4.22869,-146.217365 1.02403,-11.592367 -7.76415,-20.946261 -14.68197,-29.19212 C 211.2775,25.994498 197.58381,16.962138 183.73136,8.951853 c -1.60417,0.364583 -3.20833,0.729167 -4.8125,1.09375 z"
       style="fill:#000000;fill-opacity:0.90869557999999995;fill-rule:evenodd;stroke:none;filter:url(#filter3966)" />
    <path
       inkscape:connector-curvature="0"
       sodipodi:nodetypes="cccccc"
       id="path1873"
       d="m 29.292566,17.967755 c 44.37499,5.458814 94.018354,-1.726458 145.630064,-13.6357734 21.56922,14.4027404 43.82734,28.3921374 51.27051,51.2705084 -5.14653,54.36128 -15.36296,108.72256 8.7269,163.08385 C 167.2866,212.60818 96.926008,253.01837 30.383426,236.68556 16.366305,166.18906 18.643095,92.81718 29.292566,17.967755 z"
       style="fill:url(#radialGradient3959);fill-opacity:1;fill-rule:evenodd;stroke:url(#linearGradient3961);stroke-width:2.70000005;stroke-linecap:round;stroke-linejoin:round;stroke-miterlimit:4;stroke-opacity:1;stroke-dasharray:none" />
    <g
       transform="translate(-8.3421705,-111.03774)"
       id="g2792">
      <path
         inkscape:connector-curvature="0"
         style="fill:url(#linearGradient3945);fill-opacity:1;fill-rule:evenodd;stroke:none"
         d="m 156.53869,211.36553 c 13.28542,-17.44929 34.02093,-77.54136 27.27153,-97.63214 21.56922,14.40274 43.82734,28.39213 51.27051,51.2705 -22.05844,6.72055 -54.13461,50.39418 -78.54204,46.36164 z"
         id="path2766"
         sodipodi:nodetypes="cccc" />
      <path
         inkscape:connector-curvature="0"
         sodipodi:nodetypes="cccc"
         id="path2764"
         d="m 162.53843,201.54777 c 13.28542,-17.44929 26.3849,-66.08731 19.6355,-86.17809 21.56922,14.40274 43.82734,28.39214 51.27051,51.27051 -22.05844,6.72055 -46.49858,38.94012 -70.90601,34.90758 z"
         style="fill:url(#linearGradient3947);fill-opacity:1;fill-rule:evenodd;stroke:none" />
      <path
         inkscape:connector-curvature="0"
         style="fill:url(#linearGradient3949);fill-opacity:1;fill-rule:evenodd;stroke:none"
         d="m 167.44731,190.09372 c 13.28542,-17.44929 23.65775,-54.08783 16.90835,-74.17861 21.56922,14.40274 43.82734,28.39214 51.27051,51.27051 -22.05844,6.72055 -43.77143,26.94064 -68.17886,22.9081 z"
         id="path1877"
         sodipodi:nodetypes="cccc" />
      <path
         inkscape:connector-curvature="0"
         sodipodi:nodetypes="cccc"
         id="path1875"
         d="m 173.99247,172.0945 c 13.28542,-17.44929 16.56715,-37.17947 9.81775,-57.27025 21.56922,14.40274 43.82734,28.39214 51.27051,51.27051 -22.05844,6.72055 -36.68083,10.03228 -61.08826,5.99974 z"
         style="fill:url(#radialGradient3951);fill-opacity:1;fill-rule:evenodd;stroke:#737373;stroke-width:1px;stroke-linecap:butt;stroke-linejoin:miter;stroke-opacity:1" />
    </g>
  </g>
  <g
     id="g3800">
    <g
       id="g3802"
       style="font-size:117.662323px;font-style:normal;font-variant:normal;font-weight:normal;font-stretch:normal;line-height:125%;letter-spacing:0px;word-spacing:0px;fill:#000000;fill-opacity:1;font-family:Cambria;-inkscape-font-specification:Cambria">
      <path
         id="path3804"
         d="M47.603278 157.64334L47.603278 170.24723L51.1388119059 173.782763906L51.1388119059 161.178873906Z" />
      <path
         id="path3806"
         d="M47.603278 170.24723C47.603257 172.8357 47.676933 174.7671 47.824308 176.04145L51.3598419059 179.576983906C51.2124669059 178.302633906 51.1387909059 176.371233906 51.1388119059 173.782763906Z" />
      <path
         id="path3808"
         d="M47.824308 176.04145C48.00848 177.31576 48.303187 178.31133 48.708431 179.02815L52.2439649059 182.563683906C51.8387209059 181.846863906 51.5440139059 180.851293906 51.3598419059 179.576983906Z" />
      <path
         id="path3810"
         d="M48.708431 179.02815C48.9362701847 179.41812782 49.2081554318 179.771082453 49.5240868783 180.0870139L53.0596207842 183.622547806C52.7436893378 183.306616359 52.4718040907 182.953661726 52.2439649059 182.563683906Z" />
      <path
         id="path3812"
         d="M49.5240868783 180.0870139C49.8211053983 180.38403242 50.157054401 180.648327786 50.531934 180.8799L54.0674679059 184.415433906C53.6925883069 184.183861692 53.3566393042 183.919566326 53.0596207842 183.622547806Z" />
      <path
         id="path3814"
         d="M50.531934 180.8799C51.342356 181.35776 52.631699 181.79581 54.39997 182.19405L57.9355039059 185.729583906C56.1672329059 185.331343906 54.8778899059 184.893293906 54.0674679059 184.415433906Z" />
      <path
         id="path3816"
         d="M54.39997 182.19405L54.39997 185.12103L57.9355039059 188.656563906L57.9355039059 185.729583906Z" />
      <path
         id="path3818"
         d="M54.39997 185.12103L31.854843 185.12103L35.3903769059 188.656563906L57.9355039059 188.656563906Z" />
      <path
         id="path3820"
         d="M31.854843 185.12103L31.854843 182.19405L35.3903769059 185.729583906L35.3903769059 188.656563906Z" />
      <path
         id="path3822"
         d="M31.854843 182.19405C33.181021 181.79581 34.249335 181.37767 35.059788 180.93965L38.5953219059 184.475183906C37.7848689059 184.913203906 36.7165549059 185.331343906 35.3903769059 185.729583906Z" />
      <path
         id="path3824"
         d="M35.059788 180.93965C35.907063 180.54139 36.551736 179.92414 36.993806 179.08788L40.5293399059 182.623413906C40.0872699059 183.459673906 39.4425969059 184.076923906 38.5953219059 184.475183906Z" />
      <path
         id="path3826"
         d="M36.993806 179.08788C37.435858 178.29141 37.730565 177.19628 37.877929 175.80251L41.4134629059 179.338043906C41.2660989059 180.731813906 40.9713919059 181.826943906 40.5293399059 182.623413906Z" />
      <path
         id="path3828"
         d="M37.877929 175.80251C38.025272 174.4087 38.098949 172.55694 38.09896 170.24723L41.6344939059 173.782763906C41.6344829059 176.092473906 41.5608059059 177.944233906 41.4134629059 179.338043906Z" />
      <path
         id="path3830"
         d="M38.09896 170.24723L38.09896 118.99536L41.6344939059 122.530893906L41.6344939059 173.782763906Z" />
      <path
         id="path3832"
         d="M38.09896 118.99536C38.098949 116.12816 38.062113 114.09721 37.988444 112.90248L41.5239779059 116.438013906C41.5976469059 117.632743906 41.6344829059 119.663693906 41.6344939059 122.530893906Z" />
      <path
         id="path3834"
         d="M37.988444 112.90248C37.91476 111.66803 37.767403 110.65255 37.546383 109.85604L41.0819169059 113.391573906C41.3029369059 114.188083906 41.4502939059 115.203563906 41.5239779059 116.438013906Z" />
      <path
         id="path3836"
         d="M37.546383 109.85604C37.325342 109.05964 36.993797 108.40256 36.551745 107.88481L40.0872789059 111.420343906C40.5293309059 111.938093906 40.8608759059 112.595173906 41.0819169059 113.391573906Z" />
      <path
         id="path3838"
         d="M36.551745 107.88481C36.4589194435 107.766235403 36.3573959701 107.651837578 36.2471745558 107.541616163L39.7827084617 111.077150069C39.8929298761 111.187371484 39.9944533495 111.301769309 40.0872789059 111.420343906Z" />
      <path
         id="path3840"
         d="M36.2471745558 107.541616163C35.8762219716 107.170663579 35.4067500918 106.847016107 34.838758 106.57066L38.3742919059 110.106193906C38.9422839977 110.382550013 39.4117558775 110.706197485 39.7827084617 111.077150069Z" />
      <path
         id="path3842"
         d="M34.838758 106.57066C34.13882 106.21231 32.959991 105.85391 31.302267 105.49545L34.8378009059 109.030983906C36.4955249059 109.389443906 37.6743539059 109.747843906 38.3742919059 110.106193906Z" />
      <path
         id="path3844"
         d="M31.302267 105.49545L31.302267 102.32954L34.8378009059 105.865073906L34.8378009059 109.030983906Z" />
      <path
         id="path3846"
         d="M31.302267 102.32954L44.287818 101.79194L47.8233519059 105.327473906L34.8378009059 105.865073906Z" />
      <path
         id="path3848"
         d="M44.287818 101.79194L47.658535 101.79194L51.1940689059 105.327473906L47.8233519059 105.327473906Z" />
      <path
         id="path3850"
         d="M47.658535 101.79194L46.940186 111.5286L50.4757199059 115.064133906L51.1940689059 105.327473906Z" />
      <path
         id="path3852"
         d="M46.940186 111.5286L47.76905 111.76753L51.3045839059 115.303063906L50.4757199059 115.064133906Z" />
      <path
         id="path3854"
         d="M47.76905 111.76753C50.053011 109.25876 51.858093 107.44682 53.184301 106.33173L56.7198349059 109.867263906C55.3936269059 110.982353906 53.5885449059 112.794293906 51.3045839059 115.303063906Z" />
      <path
         id="path3856"
         d="M53.184301 106.33173C54.510458 105.17692 55.873479 104.22118 57.273368 103.46449L60.8089019059 107.000023906C59.4090129059 107.756713906 58.0459919059 108.712453906 56.7198349059 109.867263906Z" />
      <path
         id="path3858"
         d="M57.273368 103.46449C58.710036 102.70792 60.073057 102.17031 61.362436 101.85167L64.8979699059 105.387203906C63.6085909059 105.705843906 62.2455699059 106.243453906 60.8089019059 107.000023906Z" />
      <path
         id="path3860"
         d="M61.362436 101.85167C62.688584 101.53315 64.088443 101.37386 65.562018 101.37379L69.0975519059 104.909323906C67.6239769059 104.909393906 66.2241179059 105.068683906 64.8979699059 105.387203906Z" />
      <path
         id="path3862"
         d="M65.562018 101.37379C70.3142141723 101.373844728 74.1994984871 102.883052825 77.2178790688 105.901433407L80.7534129748 109.436967313C77.7350323931 106.418586731 73.8497480782 104.909378634 69.0975519059 104.909323906Z" />
      <path
         id="path3864"
         d="M77.2178790688 105.901433407C78.0601597491 106.743714087 78.8349353339 107.703512813 79.542206 108.78083L83.0777399059 112.316363906C82.3704692399 111.239046719 81.595693655 110.279247993 80.7534129748 109.436967313Z" />
      <path
         id="path3866"
         d="M79.542206 108.78083C82.820773 113.67907 84.460081 120.86707 84.460139 130.34484L87.9956729059 133.880373906C87.9956149059 124.402603906 86.3563069059 117.214603906 83.0777399059 112.316363906Z" />
      <path
         id="path3868"
         d="M84.460139 130.34484C84.460081 136.91562 83.539121 142.45098 81.697255 146.95093L85.2327889059 150.486463906C87.0746549059 145.986513906 87.9956149059 140.451153906 87.9956729059 133.880373906Z" />
      <path
         id="path3870"
         d="M81.697255 146.95093C79.855281 151.41108 77.166077 154.7761 73.629637 157.04599L77.1651709059 160.581523906C80.7016109059 158.311633906 83.3908149059 154.946613906 85.2327889059 150.486463906Z" />
      <path
         id="path3872"
         d="M73.629637 157.04599C70.129942 159.27607 65.948783 160.3911 61.086147 160.3911L64.6216809059 163.926633906C69.4843169059 163.926633906 73.6654759059 162.811603906 77.1651709059 160.581523906Z" />
      <path
         id="path3874"
         d="M61.086147 160.3911C58.360071 160.3911 55.891899 160.13226 53.68162 159.61456L57.2171539059 163.150093906C59.4274329059 163.667793906 61.8956049059 163.926633906 64.6216809059 163.926633906Z" />
      <path
         id="path3876"
         d="M53.68162 159.61456C51.47129 159.13669 49.445177 158.47962 47.603278 157.64334L51.1388119059 161.178873906C52.9807109059 162.015153906 55.0068239059 162.672223906 57.2171539059 163.150093906Z" />
      <path
         id="path3878"
         d="M47.603278 137.93107C47.603257 141.75408 47.824287 144.70096 48.266369 146.77173L51.8019029059 150.307263906C51.3598209059 148.236493906 51.1387909059 145.289613906 51.1388119059 141.466603906Z" />
      <path
         id="path3880"
         d="M48.266369 146.77173C48.708409 148.84252 49.482016 150.53499 50.587191 151.84912L54.1227249059 155.384653906C53.0175499059 154.070523906 52.2439429059 152.378053906 51.8019029059 150.307263906Z" />
      <path
         id="path3882"
         d="M50.587191 151.84912C50.7375103356 152.016863851 50.891021576 152.179087329 51.0477247281 152.335790482L54.583258634 155.871324387C54.4265554819 155.714621235 54.2730442415 155.552397757 54.1227249059 155.384653906Z" />
      <path
         id="path3884"
         d="M51.0477247281 152.335790482C52.0814860482 153.369551802 53.2541581507 154.163070609 54.565743 154.71636L58.1012769059 158.251893906C56.7896920566 157.698604515 55.6170199541 156.905085708 54.583258634 155.871324387Z" />
      <path
         id="path3886"
         d="M54.565743 154.71636C56.112929 155.35353 58.139041 155.67211 60.644086 155.67211L64.1796199059 159.207643906C61.6745749059 159.207643906 59.6484629059 158.889063906 58.1012769059 158.251893906Z" />
      <path
         id="path3888"
         d="M60.644086 155.67211C65.101499 155.67211 68.453794 153.68098 70.70098 149.6987L74.2365139059 153.234233906C71.9893279059 157.216513906 68.6370329059 159.207643906 64.1796199059 159.207643906Z" />
      <path
         id="path3890"
         d="M70.70098 149.6987C72.94808 145.67662 74.071651 139.76294 74.071698 131.95766L77.6072319059 135.493193906C77.6071849059 143.298473906 76.4836139059 149.212153906 74.2365139059 153.234233906Z" />
      <path
         id="path3892"
         d="M74.071698 131.95766C74.0716674885 121.823640457 72.2940414688 114.979020745 68.7388161107 111.42379539L72.2743500166 114.959329296C75.8295753747 118.514554651 77.6072013944 125.359174363 77.6072319059 135.493193906Z" />
      <path
         id="path3894"
         d="M68.7388161107 111.42379539C66.8175631018 109.502542383 64.377188933 108.541907541 61.417693 108.54189L64.9532269059 112.077423906C67.912722839 112.077441447 70.3530970077 113.038076289 72.2743500166 114.959329296Z" />
      <path
         id="path3896"
         d="M61.417693 108.54189C59.354709 108.54194 57.568046 108.90034 56.057699 109.6171L59.5932329059 113.152633906C61.1035799059 112.435873906 62.8902429059 112.077473906 64.9532269059 112.077423906Z" />
      <path
         id="path3898"
         d="M56.057699 109.6171C54.584134 110.29415 53.110599 111.40918 51.637087 112.96222L55.1726209059 116.497753906C56.6461329059 114.944713906 58.1196679059 113.829683906 59.5932329059 113.152633906Z" />
      <path
         id="path3900"
         d="M51.637087 112.96222C50.163527 114.51534 49.113632 116.02861 48.4874 117.50201L52.0229339059 121.037543906C52.6491659059 119.564143906 53.6990609059 118.050873906 55.1726209059 116.497753906Z" />
      <path
         id="path3902"
         d="M48.4874 117.50201C47.897964 118.93567 47.603257 120.48876 47.603278 122.16128L51.1388119059 125.696813906C51.1387909059 124.024293906 51.4334979059 122.471203906 52.0229339059 121.037543906Z" />
      <path
         id="path3904"
         d="M47.603278 122.16128L47.603278 137.93107L51.1388119059 141.466603906L51.1388119059 125.696813906Z" />
    </g>
    <path
       id="path3143"
       d="M 47.603278,157.64334 L 47.603278,170.24723 C 47.603257,172.8357 47.676933,174.7671 47.824308,176.04145 C 48.00848,177.31576 48.303187,178.31133 48.708431,179.02815 C 49.15047,179.78476 49.758304,180.40201 50.531934,180.8799 C 51.342356,181.35776 52.631699,181.79581 54.39997,182.19405 L 54.39997,185.12103 L 31.854843,185.12103 L 31.854843,182.19405 C 33.181021,181.79581 34.249335,181.37767 35.059788,180.93965 C 35.907063,180.54139 36.551736,179.92414 36.993806,179.08788 C 37.435858,178.29141 37.730565,177.19628 37.877929,175.80251 C 38.025272,174.4087 38.098949,172.55694 38.09896,170.24723 L 38.09896,118.99536 C 38.098949,116.12816 38.062113,114.09721 37.988444,112.90248 C 37.91476,111.66803 37.767403,110.65255 37.546383,109.85604 C 37.325342,109.05964 36.993797,108.40256 36.551745,107.88481 C 36.146513,107.36717 35.575518,106.92913 34.838758,106.57066 C 34.13882,106.21231 32.959991,105.85391 31.302267,105.49545 L 31.302267,102.32954 L 44.287818,101.79194 L 47.658535,101.79194 L 46.940186,111.5286 L 47.76905,111.76753 C 50.053011,109.25876 51.858093,107.44682 53.184301,106.33173 C 54.510458,105.17692 55.873479,104.22118 57.273368,103.46449 C 58.710036,102.70792 60.073057,102.17031 61.362436,101.85167 C 62.688584,101.53315 64.088443,101.37386 65.562018,101.37379 C 71.640317,101.37386 76.300374,103.84286 79.542206,108.78083 C 82.820773,113.67907 84.460081,120.86707 84.460139,130.34484 C 84.460081,136.91562 83.539121,142.45098 81.697255,146.95093 C 79.855281,151.41108 77.166077,154.7761 73.629637,157.04599 C 70.129942,159.27607 65.948783,160.3911 61.086147,160.3911 C 58.360071,160.3911 55.891899,160.13226 53.68162,159.61456 C 51.47129,159.13669 49.445177,158.47962 47.603278,157.64334 M 47.603278,137.93107 C 47.603257,141.75408 47.824287,144.70096 48.266369,146.77173 C 48.708409,148.84252 49.482016,150.53499 50.587191,151.84912 C 51.729158,153.12346 53.055341,154.0792 54.565743,154.71636 C 56.112929,155.35353 58.139041,155.67211 60.644086,155.67211 C 65.101499,155.67211 68.453794,153.68098 70.70098,149.6987 C 72.94808,145.67662 74.071651,139.76294 74.071698,131.95766 C 74.071651,116.34719 69.853654,108.54194 61.417693,108.54189 C 59.354709,108.54194 57.568046,108.90034 56.057699,109.6171 C 54.584134,110.29415 53.110599,111.40918 51.637087,112.96222 C 50.163527,114.51534 49.113632,116.02861 48.4874,117.50201 C 47.897964,118.93567 47.603257,120.48876 47.603278,122.16128 L 47.603278,137.93107"
       style="font-size:117.66232300000000066px;font-style:normal;font-variant:normal;font-weight:normal;font-stretch:normal;line-height:125%;letter-spacing:0px;word-spacing:0px;fill:#676767;fill-opacity:1;font-family:Cambria;-inkscape-font-specification:Cambria" />
  </g>
  <g
     id="g3907">
    <g
       id="g3909"
       style="font-size:117.662323px;font-style:normal;font-variant:normal;font-weight:normal;font-stretch:normal;line-height:125%;letter-spacing:0px;word-spacing:0px;fill:#000000;fill-opacity:1;font-family:Cambria;-inkscape-font-specification:Cambria">
      <path
         id="path3911"
         d="M110.43124 111.7078L110.65227 111.76758L114.187803906 115.303113906L113.966773906 115.243333906Z" />
      <path
         id="path3913"
         d="M110.65227 111.76758C113.52564 108.62164 115.7912 106.43139 117.44896 105.19683L120.984493906 108.732363906C119.326733906 109.966923906 117.061173906 112.157173906 114.187803906 115.303113906Z" />
      <path
         id="path3915"
         d="M117.44896 105.19683C119.1435 103.92257 120.80123 102.96682 122.42216 102.3296L125.957693906 105.865133906C124.336763906 106.502353906 122.679033906 107.458103906 120.984493906 108.732363906Z" />
      <path
         id="path3917"
         d="M122.42216 102.3296C124.07985 101.69249 125.84809 101.37391 127.72689 101.37385L131.262423906 104.909383906C129.383623906 104.909443906 127.615383906 105.228023906 125.957693906 105.865133906Z" />
      <path
         id="path3919"
         d="M127.72689 101.37385C129.75296 101.37391 131.55804 101.63276 133.14213 102.15039L136.677663906 105.685923906C135.093573906 105.168293906 133.288493906 104.909443906 131.262423906 104.909383906Z" />
      <path
         id="path3921"
         d="M133.14213 102.15039C134.72614 102.66815 136.10759 103.4646 137.28647 104.53976L140.822003906 108.075293906C139.643123906 107.000133906 138.261673906 106.203683906 136.677663906 105.685923906Z" />
      <path
         id="path3923"
         d="M137.28647 104.53976C137.506280368 104.726991738 137.718262877 104.922684991 137.922417646 105.126839761L141.457951552 108.662373667C141.253796783 108.458218897 141.041814274 108.262525644 140.822003906 108.075293906Z" />
      <path
         id="path3925"
         d="M137.922417646 105.126839761C138.847302527 106.051724641 139.61153298 107.150271388 140.21512 108.42248L143.750653906 111.958013906C143.147066886 110.685805294 142.382836433 109.587258547 141.457951552 108.662373667Z" />
      <path
         id="path3927"
         d="M140.21512 108.42248C140.98868 109.93579 141.55967 111.76763 141.92811 113.91802L145.463643906 117.453553906C145.095203906 115.303163906 144.524213906 113.471323906 143.750653906 111.958013906Z" />
      <path
         id="path3929"
         d="M141.92811 113.91802C142.29644 116.02866 142.48063 118.71669 142.48068 121.98212L146.016213906 125.517653906C146.016163906 122.252223906 145.831973906 119.564193906 145.463643906 117.453553906Z" />
      <path
         id="path3931"
         d="M142.48068 121.98212L142.48068 144.50188L146.016213906 148.037413906L146.016213906 125.517653906Z" />
      <path
         id="path3933"
         d="M142.48068 144.50188C142.48063 147.96647 142.60956 150.33592 142.86749 151.61024L146.403023906 155.145773906C146.145093906 153.871453906 146.016163906 151.502003906 146.016213906 148.037413906Z" />
      <path
         id="path3935"
         d="M142.86749 151.61024C143.16214 152.84476 143.65946 153.82041 144.35944 154.53722L147.894973906 158.072753906C147.194993906 157.355943906 146.697673906 156.380293906 146.403023906 155.145773906Z" />
      <path
         id="path3937"
         d="M144.35944 154.53722C145.09616 155.21421 146.55127 155.87128 148.7248 156.50844L152.260333906 160.043973906C150.086803906 159.406813906 148.631693906 158.749743906 147.894973906 158.072753906Z" />
      <path
         id="path3939"
         d="M148.7248 156.50844L148.7248 159.43541L152.260333906 162.970943906L152.260333906 160.043973906Z" />
      <path
         id="path3941"
         d="M148.7248 159.43541L126.95328 159.43541L130.488813906 162.970943906L152.260333906 162.970943906Z" />
      <path
         id="path3943"
         d="M126.95328 159.43541L126.95328 156.50844L130.488813906 160.043973906L130.488813906 162.970943906Z" />
      <path
         id="path3945"
         d="M126.95328 156.50844C128.38995 156.03057 129.42142 155.61243 130.0477 155.25402L133.583233906 158.789553906C132.956953906 159.147963906 131.925483906 159.566103906 130.488813906 160.043973906Z" />
      <path
         id="path3947"
         d="M130.0477 155.25402C130.67392 154.89562 131.18966 154.39784 131.59492 153.76067L135.130453906 157.296203906C134.725193906 157.933373906 134.209453906 158.431153906 133.583233906 158.789553906Z" />
      <path
         id="path3949"
         d="M131.59492 153.76067C132.03694 153.12352 132.36849 152.14786 132.58956 150.8337L136.125093906 154.369233906C135.904023906 155.683393906 135.572473906 156.659053906 135.130453906 157.296203906Z" />
      <path
         id="path3951"
         d="M132.58956 150.8337C132.84739 149.47974 132.97632 147.44877 132.97637 144.74082L136.511903906 148.276353906C136.511853906 150.984303906 136.382923906 153.015273906 136.125093906 154.369233906Z" />
      <path
         id="path3953"
         d="M132.97637 144.74082L132.97637 129.09048L136.511903906 132.626013906L136.511903906 148.276353906Z" />
      <path
         id="path3955"
         d="M132.97637 129.09048C132.97632 123.79409 132.71845 119.75209 132.20275 116.96446L135.738283906 120.499993906C136.253983906 123.287623906 136.511853906 127.329623906 136.511903906 132.626013906Z" />
      <path
         id="path3957"
         d="M132.20275 116.96446C131.738786581 114.225445421 130.808128189 112.15909325 129.410783916 110.765412578L132.946317822 114.300946484C134.343662095 115.694627156 135.274320487 117.760979327 135.738283906 120.499993906Z" />
      <path
         id="path3959"
         d="M129.410783916 110.765412578C129.365708237 110.72045508 129.320146932 110.676197554 129.2741 110.63264L132.809633906 114.168173906C132.855680838 114.21173146 132.901242143 114.255988986 132.946317822 114.300946484Z" />
      <path
         id="path3961"
         d="M129.2741 110.63264C127.83736 109.2389 125.81125 108.542 123.19576 108.54194L126.731293906 112.077473906C129.346783906 112.077533906 131.372893906 112.774433906 132.809633906 114.168173906Z" />
      <path
         id="path3963"
         d="M123.19576 108.54194C121.72219 108.542 120.39601 108.82075 119.2172 109.37822L122.752733906 112.913753906C123.931543906 112.356283906 125.257723906 112.077533906 126.731293906 112.077473906Z" />
      <path
         id="path3965"
         d="M119.2172 109.37822C118.03835 109.93579 116.67533 110.93136 115.12814 112.36493L118.663673906 115.900463906C120.210863906 114.466893906 121.573883906 113.471323906 122.752733906 112.913753906Z" />
      <path
         id="path3967"
         d="M115.12814 112.36493C113.5809 113.7986 112.40208 115.27203 111.59165 116.78525L115.127183906 120.320783906C115.937613906 118.807563906 117.116433906 117.334133906 118.663673906 115.900463906Z" />
      <path
         id="path3969"
         d="M111.59165 116.78525C110.81802 118.29856 110.43121 119.91138 110.43124 121.62372L113.966773906 125.159253906C113.966743906 123.446913906 114.353553906 121.834093906 115.127183906 120.320783906Z" />
      <path
         id="path3971"
         d="M110.43124 121.62372L110.43124 144.50188L113.966773906 148.037413906L113.966773906 125.159253906Z" />
      <path
         id="path3973"
         d="M110.43124 144.50188C110.43121 147.20984 110.48645 149.14125 110.59701 150.29609L114.132543906 153.831623906C114.021983906 152.676783906 113.966743906 150.745373906 113.966773906 148.037413906Z" />
      <path
         id="path3975"
         d="M110.59701 150.29609C110.74435 151.45095 111.00222 152.42661 111.37062 153.22307L114.906153906 156.758603906C114.537753906 155.962143906 114.279883906 154.986483906 114.132543906 153.831623906Z" />
      <path
         id="path3977"
         d="M111.37062 153.22307C111.606100503 153.706758818 111.916864845 154.141624705 112.302910414 154.527670274L115.83844432 158.06320418C115.452398751 157.677158611 115.141634409 157.242292724 114.906153906 156.758603906Z" />
      <path
         id="path3979"
         d="M112.302910414 154.527670274C112.520752403 154.745512263 112.762565755 154.947808682 113.02835 155.13456L116.563883906 158.670093906C116.298099661 158.483342588 116.056286309 158.281046169 115.83844432 158.06320418Z" />
      <path
         id="path3981"
         d="M113.02835 155.13456C113.80193 155.61243 114.98076 156.07039 116.56484 156.50844L120.100373906 160.043973906C118.516293906 159.605923906 117.337463906 159.147963906 116.563883906 158.670093906Z" />
      <path
         id="path3983"
         d="M116.56484 156.50844L116.56484 159.43541L120.100373906 162.970943906L120.100373906 160.043973906Z" />
      <path
         id="path3985"
         d="M116.56484 159.43541L94.682807 159.43541L98.2183409059 162.970943906L120.100373906 162.970943906Z" />
      <path
         id="path3987"
         d="M94.682807 159.43541L94.682807 156.50844L98.2183409059 160.043973906L98.2183409059 162.970943906Z" />
      <path
         id="path3989"
         d="M94.682807 156.50844C96.303691 156.03057 97.464103 155.57261 98.164034 155.13456L101.699567906 158.670093906C100.999636906 159.108143906 99.8392249059 159.566103906 98.2183409059 160.043973906Z" />
      <path
         id="path3991"
         d="M98.164034 155.13456C98.863956 154.69651 99.398121 154.139 99.766509 153.462L103.302042906 156.997533906C102.933654906 157.674533906 102.399489906 158.232043906 101.699567906 158.670093906Z" />
      <path
         id="path3993"
         d="M99.766509 153.462C100.17173 152.78502 100.46643 151.80937 100.65063 150.53503L104.186163906 154.070563906C104.001963906 155.344903906 103.707263906 156.320553906 103.302042906 156.997533906Z" />
      <path
         id="path3995"
         d="M100.65063 150.53503C100.83481 149.26071 100.92691 147.24967 100.92692 144.50188L104.462453906 148.037413906C104.462443906 150.785203906 104.370343906 152.796243906 104.186163906 154.070563906Z" />
      <path
         id="path3997"
         d="M100.92692 144.50188L100.92692 94.504427L104.462453906 98.0399609059L104.462453906 148.037413906Z" />
      <path
         id="path3999"
         d="M100.92692 94.504427C100.92691 90.681513 100.89008 88.013391 100.8164 86.500055L104.351933906 90.0355889059C104.425613906 91.5489249059 104.462443906 94.2170469059 104.462453906 98.0399609059Z" />
      <path
         id="path4001"
         d="M100.8164 86.500055C100.77956 84.986865 100.63221 83.712539 100.37435 82.677072L103.909883906 86.2126059059C104.167743906 87.2480729059 104.315093906 88.5223989059 104.351933906 90.0355889059Z" />
      <path
         id="path4003"
         d="M100.37435 82.677072C100.15331 81.601936 99.821755 80.765658 99.379702 80.168239L102.915235906 83.7037729059C103.357288906 84.3011919059 103.688843906 85.1374699059 103.909883906 86.2126059059Z" />
      <path
         id="path4005"
         d="M99.379702 80.168239C99.2432544791 79.9671292015 99.0880123988 79.7795558487 98.9139753771 79.605518827L102.449509283 83.141052733C102.623546305 83.3150897546 102.778788385 83.5026631074 102.915235906 83.7037729059Z" />
      <path
         id="path4007"
         d="M98.9139753771 79.605518827C98.5711519554 79.2626954053 98.1553998024 78.9723960881 97.666716 78.73462L101.202249906 82.2701539059C101.690933708 82.5079299941 102.106685861 82.7982293113 102.449509283 83.141052733Z" />
      <path
         id="path4009"
         d="M97.666716 78.73462C96.966785 78.376296 95.677433 78.017892 93.798683 77.659406L97.3342169059 81.1949399059C99.2129669059 81.5534259059 100.502318906 81.9118299059 101.202249906 82.2701539059Z" />
      <path
         id="path4011"
         d="M93.798683 77.659406L93.798683 74.553232L97.3342169059 78.0887659059L97.3342169059 81.1949399059Z" />
      <path
         id="path4013"
         d="M93.798683 74.553232L107.11578 73.955891L110.651313906 77.4914249059L97.3342169059 78.0887659059Z" />
      <path
         id="path4015"
         d="M107.11578 73.955891L110.43124 73.955891L113.966773906 77.4914249059L110.651313906 77.4914249059Z" />
      <path
         id="path4017"
         d="M110.43124 73.955891L110.43124 111.70785L113.966773906 115.243383906L113.966773906 77.4914249059Z" />
    </g>
    <path
       id="path3145"
       d="M 110.43124,111.7078 L 110.65227,111.76758 C 113.52564,108.62164 115.7912,106.43139 117.44896,105.19683 C 119.1435,103.92257 120.80123,102.96682 122.42216,102.3296 C 124.07985,101.69249 125.84809,101.37391 127.72689,101.37385 C 129.75296,101.37391 131.55804,101.63276 133.14213,102.15039 C 134.72614,102.66815 136.10759,103.4646 137.28647,104.53976 C 138.50209,105.57521 139.4783,106.86945 140.21512,108.42248 C 140.98868,109.93579 141.55967,111.76763 141.92811,113.91802 C 142.29644,116.02866 142.48063,118.71669 142.48068,121.98212 L 142.48068,144.50188 C 142.48063,147.96647 142.60956,150.33592 142.86749,151.61024 C 143.16214,152.84476 143.65946,153.82041 144.35944,154.53722 C 145.09616,155.21421 146.55127,155.87128 148.7248,156.50844 L 148.7248,159.43541 L 126.95328,159.43541 L 126.95328,156.50844 C 128.38995,156.03057 129.42142,155.61243 130.0477,155.25402 C 130.67392,154.89562 131.18966,154.39784 131.59492,153.76067 C 132.03694,153.12352 132.36849,152.14786 132.58956,150.8337 C 132.84739,149.47974 132.97632,147.44877 132.97637,144.74082 L 132.97637,129.09048 C 132.97632,123.79409 132.71845,119.75209 132.20275,116.96446 C 131.72382,114.13709 130.7476,112.02648 129.2741,110.63264 C 127.83736,109.2389 125.81125,108.542 123.19576,108.54194 C 121.72219,108.542 120.39601,108.82075 119.2172,109.37822 C 118.03835,109.93579 116.67533,110.93136 115.12814,112.36493 C 113.5809,113.7986 112.40208,115.27203 111.59165,116.78525 C 110.81802,118.29856 110.43121,119.91138 110.43124,121.62372 L 110.43124,144.50188 C 110.43121,147.20984 110.48645,149.14125 110.59701,150.29609 C 110.74435,151.45095 111.00222,152.42661 111.37062,153.22307 C 111.73898,153.9797 112.29156,154.61686 113.02835,155.13456 C 113.80193,155.61243 114.98076,156.07039 116.56484,156.50844 L 116.56484,159.43541 L 94.682807,159.43541 L 94.682807,156.50844 C 96.303691,156.03057 97.464103,155.57261 98.164034,155.13456 C 98.863956,154.69651 99.398121,154.139 99.766509,153.462 C 100.17173,152.78502 100.46643,151.80937 100.65063,150.53503 C 100.83481,149.26071 100.92691,147.24967 100.92692,144.50188 L 100.92692,94.504427 C 100.92691,90.681513 100.89008,88.013391 100.8164,86.500055 C 100.77956,84.986865 100.63221,83.712539 100.37435,82.677072 C 100.15331,81.601936 99.821755,80.765658 99.379702,80.168239 C 98.974476,79.570977 98.403484,79.093105 97.666716,78.73462 C 96.966785,78.376296 95.677433,78.017892 93.798683,77.659406 L 93.798683,74.553232 L 107.11578,73.955891 L 110.43124,73.955891 L 110.43124,111.70785"
       style="font-size:117.66232300000000066px;font-style:normal;font-variant:normal;font-weight:normal;font-stretch:normal;line-height:125%;letter-spacing:0px;word-spacing:0px;fill:#999999;fill-opacity:1;font-family:Cambria;-inkscape-font-specification:Cambria" />
  </g>
  <g
     id="g4020">
    <g
       id="g4022"
       style="font-size:117.662323px;font-style:normal;font-variant:normal;font-weight:normal;font-stretch:normal;line-height:125%;letter-spacing:0px;word-spacing:0px;fill:#000000;fill-opacity:1;font-family:Cambria;-inkscape-font-specification:Cambria">
      <path
         id="path4024"
         d="M173.14869 157.64334L173.14869 170.24723L176.684223906 173.782763906L176.684223906 161.178873906Z" />
      <path
         id="path4026"
         d="M173.14869 170.24723C173.14867 172.8357 173.22237 174.7671 173.36972 176.04145L176.905253906 179.576983906C176.757903906 178.302633906 176.684203906 176.371233906 176.684223906 173.782763906Z" />
      <path
         id="path4028"
         d="M173.36972 176.04145C173.5539 177.31576 173.8486 178.31133 174.25385 179.02815L177.789383906 182.563683906C177.384133906 181.846863906 177.089433906 180.851293906 176.905253906 179.576983906Z" />
      <path
         id="path4030"
         d="M174.25385 179.02815C174.481683906 179.418126724 174.753567611 179.77108047 175.069498378 180.087011237L178.605032284 183.622545143C178.289101517 183.306614376 178.017217812 182.95366063 177.789383906 182.563683906Z" />
      <path
         id="path4032"
         d="M175.069498378 180.087011237C175.366517981 180.38403084 175.702469281 180.648327094 176.07735 180.8799L179.612883906 184.415433906C179.238003187 184.183861 178.902051887 183.919564746 178.605032284 183.622545143Z" />
      <path
         id="path4034"
         d="M176.07735 180.8799C176.88777 181.35776 178.17711 181.79581 179.94538 182.19405L183.480913906 185.729583906C181.712643906 185.331343906 180.423303906 184.893293906 179.612883906 184.415433906Z" />
      <path
         id="path4036"
         d="M179.94538 182.19405L179.94538 185.12103L183.480913906 188.656563906L183.480913906 185.729583906Z" />
      <path
         id="path4038"
         d="M179.94538 185.12103L157.40026 185.12103L160.935793906 188.656563906L183.480913906 188.656563906Z" />
      <path
         id="path4040"
         d="M157.40026 185.12103L157.40026 182.19405L160.935793906 185.729583906L160.935793906 188.656563906Z" />
      <path
         id="path4042"
         d="M157.40026 182.19405C158.72643 181.79581 159.79475 181.37767 160.60521 180.93965L164.140743906 184.475183906C163.330283906 184.913203906 162.261963906 185.331343906 160.935793906 185.729583906Z" />
      <path
         id="path4044"
         d="M160.60521 180.93965C161.45248 180.54139 162.09715 179.92414 162.53922 179.08788L166.074753906 182.623413906C165.632683906 183.459673906 164.988013906 184.076923906 164.140743906 184.475183906Z" />
      <path
         id="path4046"
         d="M162.53922 179.08788C162.98128 178.29141 163.27598 177.19628 163.42335 175.80251L166.958883906 179.338043906C166.811513906 180.731813906 166.516813906 181.826943906 166.074753906 182.623413906Z" />
      <path
         id="path4048"
         d="M163.42335 175.80251C163.57069 174.4087 163.64436 172.55694 163.64437 170.24723L167.179903906 173.782763906C167.179893906 176.092473906 167.106223906 177.944233906 166.958883906 179.338043906Z" />
      <path
         id="path4050"
         d="M163.64437 170.24723L163.64437 118.99536L167.179903906 122.530893906L167.179903906 173.782763906Z" />
      <path
         id="path4052"
         d="M163.64437 118.99536C163.64436 116.12816 163.60753 114.09721 163.53386 112.90248L167.069393906 116.438013906C167.143063906 117.632743906 167.179893906 119.663693906 167.179903906 122.530893906Z" />
      <path
         id="path4054"
         d="M163.53386 112.90248C163.46019 111.66803 163.31282 110.65255 163.0918 109.85604L166.627333906 113.391573906C166.848353906 114.188083906 166.995723906 115.203563906 167.069393906 116.438013906Z" />
      <path
         id="path4056"
         d="M163.0918 109.85604C162.87076 109.05964 162.53921 108.40256 162.09716 107.88481L165.632693906 111.420343906C166.074743906 111.938093906 166.406293906 112.595173906 166.627333906 113.391573906Z" />
      <path
         id="path4058"
         d="M162.09716 107.88481C162.004335378 107.766236012 161.902812562 107.651838753 161.792591671 107.541617862L165.328125577 111.077151767C165.438346468 111.187372659 165.539869284 111.301769918 165.632693906 111.420343906Z" />
      <path
         id="path4060"
         d="M161.792591671 107.541617862C161.421638376 107.170664567 160.952162958 106.847016528 160.38417 106.57066L163.919703906 110.106193906C164.487696864 110.382550434 164.957172282 110.706198473 165.328125577 111.077151767Z" />
      <path
         id="path4062"
         d="M160.38417 106.57066C159.68423 106.21231 158.5054 105.85391 156.84768 105.49545L160.383213906 109.030983906C162.040933906 109.389443906 163.219763906 109.747843906 163.919703906 110.106193906Z" />
      <path
         id="path4064"
         d="M156.84768 105.49545L156.84768 102.32954L160.383213906 105.865073906L160.383213906 109.030983906Z" />
      <path
         id="path4066"
         d="M156.84768 102.32954L169.83323 101.79194L173.368763906 105.327473906L160.383213906 105.865073906Z" />
      <path
         id="path4068"
         d="M169.83323 101.79194L173.20395 101.79194L176.739483906 105.327473906L173.368763906 105.327473906Z" />
      <path
         id="path4070"
         d="M173.20395 101.79194L172.4856 111.5286L176.021133906 115.064133906L176.739483906 105.327473906Z" />
      <path
         id="path4072"
         d="M172.4856 111.5286L173.31447 111.76753L176.850003906 115.303063906L176.021133906 115.064133906Z" />
      <path
         id="path4074"
         d="M173.31447 111.76753C175.59843 109.25876 177.40351 107.44682 178.72971 106.33173L182.265243906 109.867263906C180.939043906 110.982353906 179.133963906 112.794293906 176.850003906 115.303063906Z" />
      <path
         id="path4076"
         d="M178.72971 106.33173C180.05587 105.17692 181.4189 104.22118 182.81878 103.46449L186.354313906 107.000023906C184.954433906 107.756713906 183.591403906 108.712453906 182.265243906 109.867263906Z" />
      <path
         id="path4078"
         d="M182.81878 103.46449C184.25545 102.70792 185.61848 102.17031 186.90786 101.85167L190.443393906 105.387203906C189.154013906 105.705843906 187.790983906 106.243453906 186.354313906 107.000023906Z" />
      <path
         id="path4080"
         d="M186.90786 101.85167C188.234 101.53315 189.63386 101.37386 191.10743 101.37379L194.642963906 104.909323906C193.169393906 104.909393906 191.769533906 105.068683906 190.443393906 105.387203906Z" />
      <path
         id="path4082"
         d="M191.10743 101.37379C195.859626836 101.373844728 199.74491308 102.88305275 202.763293511 105.901433181L206.298827417 109.436967087C203.280446985 106.418586656 199.395160742 104.909378634 194.642963906 104.909323906Z" />
      <path
         id="path4084"
         d="M202.763293511 105.901433181C203.605574245 106.743713916 204.380349707 107.703512717 205.08762 108.78083L208.623153906 112.316363906C207.915883613 111.239046623 207.141108151 110.279247822 206.298827417 109.436967087Z" />
      <path
         id="path4086"
         d="M205.08762 108.78083C208.36619 113.67907 210.0055 120.86707 210.00556 130.34484L213.541093906 133.880373906C213.541033906 124.402603906 211.901723906 117.214603906 208.623153906 112.316363906Z" />
      <path
         id="path4088"
         d="M210.00556 130.34484C210.0055 136.91562 209.08453 142.45098 207.24267 146.95093L210.778203906 150.486463906C212.620063906 145.986513906 213.541033906 140.451153906 213.541093906 133.880373906Z" />
      <path
         id="path4090"
         d="M207.24267 146.95093C205.40069 151.41108 202.71149 154.7761 199.17506 157.04599L202.710593906 160.581523906C206.247023906 158.311633906 208.936223906 154.946613906 210.778203906 150.486463906Z" />
      <path
         id="path4092"
         d="M199.17506 157.04599C195.67536 159.27607 191.4942 160.3911 186.63156 160.3911L190.167093906 163.926633906C195.029733906 163.926633906 199.210893906 162.811603906 202.710593906 160.581523906Z" />
      <path
         id="path4094"
         d="M186.63156 160.3911C183.90549 160.3911 181.43732 160.13226 179.22703 159.61456L182.762563906 163.150093906C184.972853906 163.667793906 187.441023906 163.926633906 190.167093906 163.926633906Z" />
      <path
         id="path4096"
         d="M179.22703 159.61456C177.01671 159.13669 174.9906 158.47962 173.14869 157.64334L176.684223906 161.178873906C178.526133906 162.015153906 180.552243906 162.672223906 182.762563906 163.150093906Z" />
      <path
         id="path4098"
         d="M173.14869 137.93107C173.14867 141.75408 173.3697 144.70096 173.81179 146.77173L177.347323906 150.307263906C176.905233906 148.236493906 176.684203906 145.289613906 176.684223906 141.466603906Z" />
      <path
         id="path4100"
         d="M173.81179 146.77173C174.25383 148.84252 175.02744 150.53499 176.13261 151.84912L179.668143906 155.384653906C178.562973906 154.070523906 177.789363906 152.378053906 177.347323906 150.307263906Z" />
      <path
         id="path4102"
         d="M176.13261 151.84912C176.28292798 152.016861897 176.436437686 152.179083551 176.593139142 152.335785006L180.128673047 155.871318912C179.971971592 155.714617457 179.818461886 155.552395803 179.668143906 155.384653906Z" />
      <path
         id="path4104"
         d="M176.593139142 152.335785006C177.626903135 153.369549 178.799574572 154.163069632 180.11116 154.71636L183.646693906 158.251893906C182.335108478 157.698603538 181.162437041 156.905082906 180.128673047 155.871318912Z" />
      <path
         id="path4106"
         d="M180.11116 154.71636C181.65835 155.35353 183.68446 155.67211 186.18951 155.67211L189.725043906 159.207643906C187.219993906 159.207643906 185.193883906 158.889063906 183.646693906 158.251893906Z" />
      <path
         id="path4108"
         d="M186.18951 155.67211C190.64691 155.67211 193.99921 153.68098 196.2464 149.6987L199.781933906 153.234233906C197.534743906 157.216513906 194.182443906 159.207643906 189.725043906 159.207643906Z" />
      <path
         id="path4110"
         d="M196.2464 149.6987C198.49349 145.67662 199.61707 139.76294 199.61712 131.95766L203.152653906 135.493193906C203.152603906 143.298473906 202.029023906 149.212153906 199.781933906 153.234233906Z" />
      <path
         id="path4112"
         d="M199.61712 131.95766C199.617087541 121.823641314 197.839459874 114.979021901 194.284234263 111.423796291L197.819768169 114.959330197C201.37499378 118.514555807 203.152621447 125.359175219 203.152653906 135.493193906Z" />
      <path
         id="path4114"
         d="M194.284234263 111.423796291C192.362980655 109.502542684 189.922606045 108.541907541 186.96311 108.54189L190.498643906 112.077423906C193.458139951 112.077441447 195.898514561 113.038076589 197.819768169 114.959330197Z" />
      <path
         id="path4116"
         d="M186.96311 108.54189C184.90013 108.54194 183.11347 108.90034 181.60311 109.6171L185.138643906 113.152633906C186.649003906 112.435873906 188.435663906 112.077473906 190.498643906 112.077423906Z" />
      <path
         id="path4118"
         d="M181.60311 109.6171C180.12955 110.29415 178.65601 111.40918 177.1825 112.96222L180.718033906 116.497753906C182.191543906 114.944713906 183.665083906 113.829683906 185.138643906 113.152633906Z" />
      <path
         id="path4120"
         d="M177.1825 112.96222C175.70894 114.51534 174.65905 116.02861 174.03282 117.50201L177.568353906 121.037543906C178.194583906 119.564143906 179.244473906 118.050873906 180.718033906 116.497753906Z" />
      <path
         id="path4122"
         d="M174.03282 117.50201C173.44338 118.93567 173.14867 120.48876 173.14869 122.16128L176.684223906 125.696813906C176.684203906 124.024293906 176.978913906 122.471203906 177.568353906 121.037543906Z" />
      <path
         id="path4124"
         d="M173.14869 122.16128L173.14869 137.93107L176.684223906 141.466603906L176.684223906 125.696813906Z" />
    </g>
    <path
       id="path3147"
       d="M 173.14869,157.64334 L 173.14869,170.24723 C 173.14867,172.8357 173.22237,174.7671 173.36972,176.04145 C 173.5539,177.31576 173.8486,178.31133 174.25385,179.02815 C 174.69588,179.78476 175.30372,180.40201 176.07735,180.8799 C 176.88777,181.35776 178.17711,181.79581 179.94538,182.19405 L 179.94538,185.12103 L 157.40026,185.12103 L 157.40026,182.19405 C 158.72643,181.79581 159.79475,181.37767 160.60521,180.93965 C 161.45248,180.54139 162.09715,179.92414 162.53922,179.08788 C 162.98128,178.29141 163.27598,177.19628 163.42335,175.80251 C 163.57069,174.4087 163.64436,172.55694 163.64437,170.24723 L 163.64437,118.99536 C 163.64436,116.12816 163.60753,114.09721 163.53386,112.90248 C 163.46019,111.66803 163.31282,110.65255 163.0918,109.85604 C 162.87076,109.05964 162.53921,108.40256 162.09716,107.88481 C 161.69193,107.36717 161.12093,106.92913 160.38417,106.57066 C 159.68423,106.21231 158.5054,105.85391 156.84768,105.49545 L 156.84768,102.32954 L 169.83323,101.79194 L 173.20395,101.79194 L 172.4856,111.5286 L 173.31447,111.76753 C 175.59843,109.25876 177.40351,107.44682 178.72971,106.33173 C 180.05587,105.17692 181.4189,104.22118 182.81878,103.46449 C 184.25545,102.70792 185.61848,102.17031 186.90786,101.85167 C 188.234,101.53315 189.63386,101.37386 191.10743,101.37379 C 197.18573,101.37386 201.84579,103.84286 205.08762,108.78083 C 208.36619,113.67907 210.0055,120.86707 210.00556,130.34484 C 210.0055,136.91562 209.08453,142.45098 207.24267,146.95093 C 205.40069,151.41108 202.71149,154.7761 199.17506,157.04599 C 195.67536,159.27607 191.4942,160.3911 186.63156,160.3911 C 183.90549,160.3911 181.43732,160.13226 179.22703,159.61456 C 177.01671,159.13669 174.9906,158.47962 173.14869,157.64334 M 173.14869,137.93107 C 173.14867,141.75408 173.3697,144.70096 173.81179,146.77173 C 174.25383,148.84252 175.02744,150.53499 176.13261,151.84912 C 177.27458,153.12346 178.60076,154.0792 180.11116,154.71636 C 181.65835,155.35353 183.68446,155.67211 186.18951,155.67211 C 190.64691,155.67211 193.99921,153.68098 196.2464,149.6987 C 198.49349,145.67662 199.61707,139.76294 199.61712,131.95766 C 199.61707,116.34719 195.39907,108.54194 186.96311,108.54189 C 184.90013,108.54194 183.11347,108.90034 181.60311,109.6171 C 180.12955,110.29415 178.65601,111.40918 177.1825,112.96222 C 175.70894,114.51534 174.65905,116.02861 174.03282,117.50201 C 173.44338,118.93567 173.14867,120.48876 173.14869,122.16128 L 173.14869,137.93107"
       style="font-size:117.66232300000000066px;font-style:normal;font-variant:normal;font-weight:normal;font-stretch:normal;line-height:125%;letter-spacing:0px;word-spacing:0px;fill:#8f8f8f;fill-opacity:1;font-family:Cambria;-inkscape-font-specification:Cambria" />
  </g>
</svg>
