<?xml version="1.0" encoding="UTF-8" standalone="no"?>
<!-- Created with Inkscape (http://www.inkscape.org/) -->

<svg
   xmlns:dc="http://purl.org/dc/elements/1.1/"
   xmlns:cc="http://creativecommons.org/ns#"
   xmlns:rdf="http://www.w3.org/1999/02/22-rdf-syntax-ns#"
   xmlns:svg="http://www.w3.org/2000/svg"
   xmlns="http://www.w3.org/2000/svg"
   xmlns:xlink="http://www.w3.org/1999/xlink"
   xmlns:sodipodi="http://sodipodi.sourceforge.net/DTD/sodipodi-0.dtd"
   xmlns:inkscape="http://www.inkscape.org/namespaces/inkscape"
   id="svg2"
   sodipodi:version="0.32"
   inkscape:version="0.91 r13725"
   width="255"
   height="255"
   sodipodi:docname="application-x-bluefish-project.svg"
   inkscape:output_extension="org.inkscape.output.svg.inkscape"
   version="1.1">
  <metadata
     id="metadata7">
    <rdf:RDF>
      <cc:Work>
        <dc:format>image/svg+xml</dc:format>
        <dc:type
           rdf:resource="http://purl.org/dc/dcmitype/StillImage" />
      </cc:Work>
    </rdf:RDF>
  </metadata>
  <defs
     id="defs5">
    <linearGradient
       inkscape:collect="always"
       id="linearGradient4552">
      <stop
         id="stop4554"
         stop-color="#ffffff"
         stop-opacity="0.563" />
      <stop
         offset="1"
         id="stop4556"
         stop-color="#696969"
         stop-opacity="0" />
    </linearGradient>
    <linearGradient
       id="linearGradient2843">
      <stop
         id="stop2845"
         stop-color="#000000"
         stop-opacity="1" />
      <stop
         offset="1"
         id="stop2847"
         stop-color="white"
         stop-opacity="1" />
    </linearGradient>
    <linearGradient
       id="linearGradient2812">
      <stop
         id="stop2814"
         stop-color="#202020"
         stop-opacity="1" />
      <stop
         offset="1"
         id="stop2816"
         stop-color="#727272"
         stop-opacity="1" />
    </linearGradient>
    <linearGradient
       id="linearGradient2784">
      <stop
         id="stop2786"
         stop-color="#000000"
         stop-opacity="0.853" />
      <stop
         offset="1"
         id="stop2788"
         stop-color="#000000"
         stop-opacity="0" />
    </linearGradient>
    <linearGradient
       id="linearGradient2776">
      <stop
         id="stop2778"
         stop-color="#000000"
         stop-opacity="0.522" />
      <stop
         offset="1"
         id="stop2780"
         stop-color="black"
         stop-opacity="0" />
    </linearGradient>
    <linearGradient
       id="linearGradient2768">
      <stop
         id="stop2770"
         stop-color="#000000"
         stop-opacity="0.408" />
      <stop
         offset="1"
         id="stop2772"
         stop-color="#000000"
         stop-opacity="0" />
    </linearGradient>
    <linearGradient
       id="linearGradient2284">
      <stop
         id="stop2290"
         stop-color="#000000"
         stop-opacity="1" />
      <stop
         offset="1"
         id="stop2292"
         stop-color="#5c5c5c"
         stop-opacity="1" />
    </linearGradient>
    <linearGradient
       inkscape:collect="always"
       xlink:href="#linearGradient2768"
       id="linearGradient3366"
       gradientUnits="userSpaceOnUse"
       gradientTransform="translate(2.727155,101.9956)"
       x1="227.38"
       y1="37.25"
       x2="158.17"
       y2="114.14" />
    <linearGradient
       inkscape:collect="always"
       xlink:href="#linearGradient2776"
       id="linearGradient3368"
       gradientUnits="userSpaceOnUse"
       gradientTransform="translate(1.090862,103.6319)"
       x1="224.81"
       y1="27.97"
       x2="168.54"
       y2="98.26" />
    <linearGradient
       inkscape:collect="always"
       xlink:href="#linearGradient2784"
       id="linearGradient3370"
       gradientUnits="userSpaceOnUse"
       x1="227.38"
       y1="132.29"
       x2="183.26"
       y2="183.27" />
    <radialGradient
       inkscape:collect="always"
       xlink:href="#linearGradient2843"
       id="radialGradient3372"
       gradientUnits="userSpaceOnUse"
       gradientTransform="matrix(0.754607,0.03976438,-0.04166753,0.790723,50.88446,29.53464)"
       spreadMethod="reflect"
       cx="176.72"
       cy="180.44"
       fx="176.72"
       fy="180.44"
       r="31.04" />
    <linearGradient
       inkscape:collect="always"
       xlink:href="#linearGradient2284"
       id="linearGradient3380"
       gradientUnits="userSpaceOnUse"
       x1="141.34"
       y1="252.2"
       x2="134.26"
       y2="9.01"
       gradientTransform="translate(-3.4332925,-2.49694)" />
    <linearGradient
       inkscape:collect="always"
       xlink:href="#linearGradient2812"
       id="linearGradient3382"
       gradientUnits="userSpaceOnUse"
       x1="175.61"
       y1="229.79"
       x2="72.14"
       y2="9.442"
       gradientTransform="translate(-3.4332925,-2.49694)" />
    <filter
       inkscape:collect="always"
       id="filter4515"
       x="-0.025"
       width="1.05"
       y="-0.023"
       height="1.046"
       color-interpolation-filters="sRGB">
      <feGaussianBlur
         inkscape:collect="always"
         stdDeviation="2.28938"
         id="feGaussianBlur4517" />
    </filter>
    <linearGradient
       inkscape:collect="always"
       xlink:href="#linearGradient4552"
       id="linearGradient4558"
       x1="35.31"
       y1="21.765"
       x2="76.38"
       y2="72.887"
       gradientUnits="userSpaceOnUse" />
    <linearGradient
       id="linearGradient2854"
       inkscape:collect="always">
      <stop
         id="stop2856"
         stop-color="#768ad4"
         stop-opacity="1" />
      <stop
         id="stop2858"
         offset="1"
         stop-color="#fff9f9"
         stop-opacity="0" />
    </linearGradient>
    <linearGradient
       id="linearGradient2790"
       inkscape:collect="always">
      <stop
         id="stop2792"
         stop-color="#bbbff2"
         stop-opacity="1" />
      <stop
         id="stop2794"
         offset="1"
         stop-color="#2f3249"
         stop-opacity="1" />
    </linearGradient>
    <linearGradient
       id="linearGradient2780-5"
       inkscape:collect="always">
      <stop
         id="stop2782-3"
         stop-color="#30a9f0"
         stop-opacity="1" />
      <stop
         id="stop2784-5"
         offset="1"
         stop-color="#30a9f0"
         stop-opacity="0" />
    </linearGradient>
    <linearGradient
       id="linearGradient2768-62"
       inkscape:collect="always">
      <stop
         id="stop2770-9"
         stop-color="#ededed"
         stop-opacity="1" />
      <stop
         id="stop2772-1"
         offset="1"
         stop-color="#fff9f9"
         stop-opacity="1" />
    </linearGradient>
    <linearGradient
       gradientTransform="matrix(1.750827,0,0,1.750827,-228.0462,9.473403)"
       gradientUnits="userSpaceOnUse"
       y2="17.227"
       x2="216.33"
       y1="115.95"
       x1="212.21"
       id="linearGradient2774"
       xlink:href="#linearGradient2768-62"
       inkscape:collect="always" />
    <linearGradient
       gradientTransform="matrix(1.750827,0,0,1.750827,-228.0462,9.473408)"
       spreadMethod="reflect"
       gradientUnits="userSpaceOnUse"
       y2="19.889"
       x2="209.76"
       y1="68.27"
       x1="213.69"
       id="linearGradient2786-2"
       xlink:href="#linearGradient2780-5"
       inkscape:collect="always" />
    <linearGradient
       gradientTransform="matrix(1.750827,0,0,1.750827,-228.0462,9.473408)"
       spreadMethod="reflect"
       gradientUnits="userSpaceOnUse"
       y2="54.35"
       x2="246.76"
       y1="65.915"
       x1="242.19"
       id="linearGradient2796-7"
       xlink:href="#linearGradient2790"
       inkscape:collect="always" />
    <linearGradient
       y2="86.33"
       x2="217.16"
       y1="115.95"
       x1="212.21"
       gradientTransform="matrix(1.750827,0,0,1.750827,-227.0785,9.957487)"
       gradientUnits="userSpaceOnUse"
       id="linearGradient2846"
       xlink:href="#linearGradient2854"
       inkscape:collect="always" />
    <linearGradient
       y2="36.576"
       x2="215.78"
       y1="15.06"
       x1="211.1"
       gradientTransform="matrix(1.750827,0,0,1.750827,-228.0462,9.95734)"
       gradientUnits="userSpaceOnUse"
       id="linearGradient2850"
       xlink:href="#linearGradient2854"
       inkscape:collect="always" />
    <radialGradient
       gradientUnits="userSpaceOnUse"
       gradientTransform="matrix(-0.03715243,-0.396258,0.450931,-0.04227845,196.1083,233.5482)"
       r="111.15"
       fy="131.77"
       fx="245.91"
       cy="131.77"
       cx="245.91"
       id="radialGradient2862"
       xlink:href="#linearGradient2854"
       inkscape:collect="always" />
  </defs>
  <sodipodi:namedview
     inkscape:window-height="1056"
     inkscape:window-width="1920"
     inkscape:pageshadow="2"
     inkscape:pageopacity="0"
     guidetolerance="10.0"
     gridtolerance="10.0"
     objecttolerance="10.0"
     borderopacity="1.0"
     bordercolor="#666666"
     pagecolor="#ffffff"
     id="base"
     inkscape:zoom="3.2862745"
     inkscape:cx="127.5"
     inkscape:cy="127.5"
     inkscape:window-x="0"
     inkscape:window-y="0"
     inkscape:current-layer="svg2"
     showgrid="false"
     inkscape:window-maximized="1" />
  <path
     d="m 178.91886,10.045603 c -45.78675,10.096339 -93.060253,17.998908 -140.124997,12.46875 -4.990462,5.22427 -2.88801,14.085712 -4.71875,20.71875 -8.208109,66.455757 -9.532038,134.466987 3.625,200.374997 10.917544,5.59652 24.247161,4.87986 36.374934,5.51976 57.607743,-0.13945 112.034513,-26.62359 169.937563,-21.89476 4.43135,-3.89878 -2.05173,-9.72438 -2.625,-14.15625 -16.81542,-46.97813 -9.62924,-97.83297 -4.22869,-146.217365 1.02403,-11.592367 -7.76415,-20.946261 -14.68197,-29.19212 C 211.2775,25.994498 197.58381,16.962138 183.73136,8.951853 c -1.60417,0.364583 -3.20833,0.729167 -4.8125,1.09375 z"
     id="path2824"
     inkscape:connector-curvature="0"
     fill="#000000"
     filter="url(#filter4515)"
     fill-rule="evenodd"
     stroke="none"
     fill-opacity="0.78" />
  <path
     d="m 29.292566,17.967755 c 44.37499,5.458814 94.018354,-1.726458 145.630064,-13.6357734 21.56922,14.4027404 43.82734,28.3921374 51.27051,51.2705084 -5.14653,54.36128 -15.36296,108.72256 8.7269,163.08385 C 167.2866,212.60818 96.926008,253.01837 30.383426,236.68556 16.366305,166.18906 18.643095,92.81718 29.292566,17.967755 z"
     id="path1873"
     sodipodi:nodetypes="cccccc"
     inkscape:connector-curvature="0"
     stroke-opacity="1"
     stroke-dasharray="none"
     fill="url(#linearGradient3380)"
     fill-rule="evenodd"
     stroke="url(#linearGradient3382)"
     stroke-linejoin="round"
     fill-opacity="1"
     stroke-linecap="round"
     stroke-width="2.7"
     stroke-miterlimit="4" />
  <g
     font-size="7.5"
     font-variant="normal"
     letter-spacing="0"
     font-stretch="normal"
     font-weight="bold"
     line-height="125%"
     word-spacing="0"
     font-style="normal"
     transform="translate(62.697277,-42.053154)"
     id="text4330"
     stroke-opacity="1"
     font-family="STIX"
     fill="#000000"
     stroke="none"
     stroke-linejoin="miter"
     fill-opacity="1"
     stroke-linecap="butt"
     stroke-width="1">
    <path
       inkscape:connector-curvature="0"
       id="path4335"
       d="m -56.13327,39.467617 0,-0.1875 c -0.3075,0 -0.4425,-0.165 -0.825,-1.0725 l -1.665,-3.915 -0.21,0 -1.6575,4.0875 c -0.285,0.705 -0.3975,0.84 -0.7425,0.9 l 0,0.1875 1.515,0 0,-0.1875 c -0.4425,-0.03 -0.6075,-0.1125 -0.6075,-0.3075 0,-0.18 0.1425,-0.495 0.2325,-0.7275 l 0.0975,-0.255 1.6875,0 c 0.255,0.5925 0.345,0.855 0.345,1.02 0,0.165 -0.0975,0.225 -0.345,0.2475 l -0.24,0.0225 0,0.1875 2.415,0 z m -2.2875,-1.77 -1.4625,0 0.705,-1.8225 0.7575,1.8225 z" />
    <path
       inkscape:connector-curvature="0"
       id="path4337"
       d="m -55.760848,34.397617 0,0.1875 c 0.525,0.045 0.63,0.15 0.63,0.735 l 0,3.2025 c 0,0.3825 -0.045,0.5925 -0.2925,0.69 -0.0825,0.0375 -0.195,0.0525 -0.3375,0.0675 l 0,0.1875 2.4975,0 0,-0.1875 c -0.5925,-0.075 -0.6525,-0.1425 -0.6525,-0.645 l 0,-1.44 c 0.99,-0.0075 1.245,-0.03 1.5675,-0.15 0.6225,-0.2325 0.9675,-0.69 0.9675,-1.29 0,-0.915 -0.765,-1.3575 -2.0175,-1.3575 l -2.3625,0 z m 1.845,0.525 c 0,-0.1725 0.1275,-0.2625 0.375,-0.2625 0.6225,0 0.87,0.345 0.87,1.1775 0,0.8325 -0.3075,1.0875 -1.245,1.095 l 0,-2.01 z" />
  </g>
  <path
     d="m 27.995227,108.93795 c 1.8742,-28.09666 3.50369,-56.193319 8.520286,-84.289979 27.556131,2.485748 51.650573,-0.221037 76.073987,-2.434368"
     id="path4550"
     inkscape:connector-curvature="0"
     sodipodi:nodetypes="ccc"
     stroke-opacity="1"
     stroke-dasharray="none"
     fill="none"
     fill-rule="evenodd"
     stroke="url(#linearGradient4558)"
     stroke-linejoin="miter"
     stroke-linecap="round"
     stroke-width="2.4"
     stroke-miterlimit="4" />
  <g
     id="g1902"
     transform="matrix(0.87235704,0,0,0.87235704,10.644517,23.993642)">
    <path
       d="M 19.783528,121.31452 C 42.964392,122.99513 56.244258,108.71185 64.265795,93.77789 67.725779,86.611435 71.608956,79.656568 79.516847,74.714064 116.29768,45.24512 155.88483,41.968465 196.01803,43.788301 c 11.26617,7.848944 18.539,17.195388 11.86192,31.773044 -7.77047,12.050841 -8.54521,22.935732 -9.74372,33.891245 4.50299,0.92512 8.48846,-0.21978 11.86192,-3.81277 l 13.5565,-8.896445 c 7.08372,-1.317021 13.3264,-0.951932 14.82742,8.896445 -1.55552,10.59029 -8.47834,19.39148 -0.84728,33.04397 3.93443,11.68394 -1.56193,16.11346 -12.28557,16.52198 -9.60251,-5.40573 -19.20505,-11.99331 -28.80756,-13.13286 -0.43319,12.99802 2.18366,23.96266 5.08368,34.73853 5.66037,23.61568 -11.24248,33.59474 -28.80755,29.23121 -16.09157,-4.91012 -31.67124,-10.2856 -35.58583,-26.26571 -11.54828,-1.50582 -21.7109,-7.16863 -32.19667,-11.86195 l 28.38391,17.79289 c -0.86413,7.56338 3.81635,12.35443 7.20189,17.79294 -26.12852,-3.89059 -33.81117,-20.95683 -44.905891,-35.58583 -15.445801,-3.65222 -28.211397,-15.34503 -41.51679,-25.41844 -12.396609,-10.03708 -24.318236,-15.7991 -35.585806,-15.6747 -3.647008,-2.6499 -0.400625,-3.92113 1.270925,-5.50733 z"
       id="path1873-9"
       sodipodi:nodetypes="cccccccccccccccccccccc"
       inkscape:connector-curvature="0"
       stroke-miterlimit="4"
       style="fill:url(#linearGradient2774);fill-opacity:1;fill-rule:evenodd;stroke:#000000;stroke-width:0.34999999;stroke-linecap:butt;stroke-linejoin:miter;stroke-miterlimit:4;stroke-dasharray:none;stroke-opacity:1" />
    <path
       d="m 61.723944,148.42752 c -2.800326,-19.8776 5.330761,-42.87846 9.74372,-64.817001 -11.538686,21.605671 -20.481315,43.211331 -9.74372,64.817001 z"
       id="path2776"
       sodipodi:nodetypes="ccc"
       inkscape:connector-curvature="0"
       stroke-miterlimit="4"
       style="opacity:0.68399999;fill:#2ca6ef;fill-opacity:1;fill-rule:evenodd;stroke:#8188e9;stroke-width:0;stroke-linecap:butt;stroke-linejoin:miter;stroke-miterlimit:4;stroke-dasharray:none;stroke-opacity:1" />
    <path
       d="m 110.61777,170.99204 21.18203,15.6747 1.27093,9.74374 c -21.20893,-8.88302 -25.41469,-26.26759 -37.280381,-39.82222 3.57487,-12.7099 6.137351,-25.69592 -1.69456,-41.51677 2.7824,-15.382403 1.24633,-28.533812 12.709221,-50.836869 7.7562,-6.930015 21.46393,-7.908476 33.04397,-11.014655 -11.47745,6.315449 -22.23548,13.350339 -25.41843,27.960279 l 0.42363,75.408015 c 1.51634,13.1023 13.17488,19.10503 24.9948,24.99479 -9.63212,-11.00725 -13.1835,-23.53468 -10.16738,-37.704 4.67487,-17.29828 3.96028,-37.59068 -0.84728,-60.156962 -2.07135,-11.054501 5.80616,-21.343704 17.36928,-31.349403 l 15.25105,-3.389125 13.5565,-0.423641 c -14.3511,13.420204 -24.40014,26.601404 -19.91111,38.974933 6.61095,12.991648 10.41861,25.983288 5.50733,38.974928 4.21151,17.47489 11.14831,35.53376 1.27093,49.98959 -1.21023,5.91659 -6.1599,9.02859 -11.52151,11.83165 14.96684,22.01264 57.85914,22.1099 46.26004,-11.83165 l -2.9655,-52.10779 c 0.0841,-19.28211 -1.20772,-39.448729 13.13286,-49.565945 C 213.84061,56.682468 203.64885,49.75061 189.83857,45.170794 164.44161,46.352525 138.82458,45.55366 114.43055,55.761808 85.488743,73.575366 85.541758,86.928184 83.081146,100.66771 l 1.270908,50.83687 c 15.562505,23.69883 26.428546,44.70012 54.412886,51.83649 l -6.91725,-17.78718 -21.22992,-14.56185 z"
       id="path2778"
       sodipodi:nodetypes="ccccccccccccccccccccccccccccc"
       inkscape:connector-curvature="0"
       stroke-miterlimit="4"
       style="opacity:0.77600002;fill:url(#linearGradient2786-2);fill-opacity:1;fill-rule:evenodd;stroke:none;stroke-width:0;stroke-linecap:butt;stroke-linejoin:miter;stroke-miterlimit:4;stroke-dasharray:none;stroke-opacity:1" />
    <path
       d="m 198.05553,109.4643 c 4.22235,0.51186 8.88447,-1.26104 13.04393,-3.95271 -7.54897,11.16134 -8.10315,24.42111 -5.1385,38.73653 l -9.09124,-2.7669 c 2.40397,-10.17013 2.99615,-20.79321 1.18581,-32.01692 z"
       id="path2788"
       sodipodi:nodetypes="ccccc"
       inkscape:connector-curvature="0"
       stroke-miterlimit="4"
       style="fill:url(#linearGradient2796-7);fill-opacity:1;fill-rule:evenodd;stroke:none;stroke-width:0;stroke-linecap:butt;stroke-linejoin:miter;stroke-miterlimit:4;stroke-dasharray:none;stroke-opacity:1" />
    <g
       id="g2810"
       transform="matrix(1.750827,0,0,0.735656,-228.0462,38.57446)"
       style="opacity:0.49000005">
      <ellipse
         id="path2798"
         cx="233.66"
         cy="36.452999"
         rx="7.4499998"
         ry="7.3369999"
         stroke-miterlimit="4"
         style="opacity:0.68399999;fill:none;fill-opacity:1;stroke:#1011b5;stroke-width:0.89999998;stroke-linecap:round;stroke-linejoin:round;stroke-miterlimit:4;stroke-dasharray:none;stroke-dashoffset:0;stroke-opacity:1" />
      <ellipse
         transform="translate(0.451524,-0.225762)"
         id="path2800"
         cx="233.21001"
         cy="36.679001"
         rx="5.8699999"
         ry="5.5310001"
         stroke-miterlimit="4"
         style="opacity:0.68399999;fill:#2d37ac;fill-opacity:1;stroke:none;stroke-width:0;stroke-linecap:round;stroke-linejoin:round;stroke-miterlimit:4;stroke-dasharray:none;stroke-dashoffset:0;stroke-opacity:1" />
    </g>
    <g
       id="g2814"
       transform="matrix(1.000328,0,0,1.040207,-168.8912,74.50972)">
      <ellipse
         id="path2816"
         cx="233.66"
         cy="36.452999"
         rx="7.4499998"
         ry="7.3369999"
         stroke-miterlimit="4"
         style="opacity:0.68399999;fill:none;fill-opacity:1;stroke:#1011b5;stroke-width:0.89999998;stroke-linecap:round;stroke-linejoin:round;stroke-miterlimit:4;stroke-dasharray:none;stroke-dashoffset:0;stroke-opacity:1" />
      <ellipse
         id="path2818"
         transform="translate(0.451524,-0.225762)"
         cx="233.21001"
         cy="36.679001"
         rx="5.8699999"
         ry="5.5310001"
         stroke-miterlimit="4"
         style="opacity:0.68399999;fill:#2d37ac;fill-opacity:1;stroke:none;stroke-width:0;stroke-linecap:round;stroke-linejoin:round;stroke-miterlimit:4;stroke-dasharray:none;stroke-dashoffset:0;stroke-opacity:1" />
    </g>
    <path
       sodipodi:nodetypes="cccccccccccccccccccccc"
       id="path2838"
       d="m 20.751392,121.79846 c 23.180859,1.68061 36.460729,-12.60267 44.482273,-27.536633 3.45998,-7.16646 7.34316,-14.12132 15.25105,-19.06383 36.780835,-29.46894 76.367985,-32.7456 116.501185,-30.92576 11.26617,7.84894 18.539,17.19539 11.86192,31.77304 -7.77047,12.05084 -8.54521,22.93574 -9.74372,33.891253 4.50299,0.92512 8.48846,-0.21978 11.86192,-3.81277 l 13.5565,-8.896453 c 7.08372,-1.31702 13.3264,-0.95193 14.82742,8.896453 -1.55552,10.59029 -8.47834,19.39148 -0.84728,33.04397 3.93443,11.68394 -1.56193,16.11346 -12.28557,16.52198 -9.60251,-5.40573 -19.20505,-11.99331 -28.80756,-13.13286 -0.43319,12.99802 2.18366,23.96266 5.08368,34.73853 5.66037,23.61568 -11.24248,33.59469 -28.80755,29.23119 -16.09157,-4.9101 -31.67124,-10.28558 -35.58583,-26.26569 -11.54828,-1.50582 -21.7109,-7.16863 -32.19667,-11.86195 l 28.38391,17.79289 c -0.86413,7.56338 3.81635,12.35443 7.20189,17.79295 -26.12852,-3.8906 -33.81117,-20.95684 -44.905894,-35.58584 -15.445801,-3.65222 -28.211401,-15.34503 -41.516795,-25.41844 -12.39661,-10.03708 -24.318234,-15.7991 -35.585804,-15.6747 -3.647008,-2.6499 -0.400625,-3.92113 1.270925,-5.50733 z"
       inkscape:connector-curvature="0"
       stroke-miterlimit="4"
       style="fill:url(#linearGradient2846);fill-opacity:1;fill-rule:evenodd;stroke:#000000;stroke-width:0.34999999;stroke-linecap:butt;stroke-linejoin:miter;stroke-miterlimit:4;stroke-dasharray:none;stroke-opacity:1" />
    <path
       d="m 19.783531,121.79845 c 23.18086,1.68061 36.46073,-12.60267 44.48226,-27.53663 C 67.725781,87.09537 71.608956,80.1405 79.516847,75.198 116.29768,45.72905 155.88483,42.4524 196.01803,44.27223 c 11.26617,7.84895 18.539,17.19539 11.86192,31.77305 -7.77047,12.05084 -8.54521,22.93573 -9.74372,33.89124 4.50299,0.92512 8.48846,-0.21978 11.86192,-3.81277 l 13.5565,-8.89644 c 7.08372,-1.31702 13.3264,-0.95193 14.82742,8.89644 -1.55552,10.59029 -8.47834,19.39148 -0.84728,33.04397 3.93443,11.68394 -1.56193,16.11346 -12.28557,16.52198 -9.60251,-5.40573 -19.20505,-11.99331 -28.80756,-13.13286 -0.43319,12.99802 2.18366,23.96266 5.08368,34.73853 5.66037,23.61568 -11.24248,33.59474 -28.80755,29.23121 -16.09157,-4.91012 -31.67124,-10.2856 -35.58583,-26.26571 -11.54828,-1.50582 -21.7109,-7.16863 -32.19667,-11.86195 l 28.38391,17.79289 c -0.86413,7.56338 3.81635,12.35443 7.20189,17.79294 -26.12852,-3.89059 -33.81117,-20.95683 -44.905891,-35.58583 -15.445801,-3.65222 -28.211398,-15.34503 -41.516788,-25.41844 -12.39661,-10.03708 -24.31824,-15.7991 -35.58581,-15.6747 -3.64701,-2.6499 -0.40062,-3.92113 1.27093,-5.50733 z"
       id="path2848"
       sodipodi:nodetypes="cccccccccccccccccccccc"
       inkscape:connector-curvature="0"
       stroke-miterlimit="4"
       style="fill:url(#linearGradient2850);fill-opacity:1;fill-rule:evenodd;stroke:#000000;stroke-width:0.34999999;stroke-linecap:butt;stroke-linejoin:miter;stroke-miterlimit:4;stroke-dasharray:none;stroke-opacity:1" />
    <path
       sodipodi:nodetypes="cccccccccccccccccccccc"
       id="path2852"
       d="m 20.267457,121.79845 c 23.18087,1.68061 36.46073,-12.60267 44.48227,-27.536628 3.45998,-7.166455 7.34316,-14.121322 15.25105,-19.063826 36.780833,-29.468944 76.367983,-32.745599 116.501183,-30.925763 11.26617,7.848944 18.539,17.195388 11.86192,31.773044 -7.77047,12.050841 -8.54521,22.935732 -9.74372,33.891243 4.50299,0.92512 8.48846,-0.21978 11.86192,-3.81277 l 13.5565,-8.896443 c 7.08372,-1.317021 13.3264,-0.951932 14.82742,8.896443 -1.55552,10.59029 -8.47834,19.39148 -0.84728,33.04397 3.93443,11.68394 -1.56193,16.11346 -12.28557,16.52198 -9.60251,-5.40573 -19.20505,-11.99331 -28.80756,-13.13286 -0.43319,12.99802 2.18366,23.96266 5.08368,34.73853 5.66037,23.61568 -11.24248,33.59474 -28.80755,29.23121 -16.09157,-4.91012 -31.67124,-10.2856 -35.58583,-26.26571 -11.54828,-1.50582 -21.7109,-7.16863 -32.19667,-11.86195 l 28.38391,17.79289 c -0.86413,7.56338 3.81635,12.35443 7.20189,17.79294 -26.12852,-3.89059 -33.81117,-20.95683 -44.905893,-35.58583 -15.4458,-3.65222 -28.21139,-15.34503 -41.51679,-25.41844 -12.39661,-10.03708 -24.31823,-15.7991 -35.5858,-15.6747 -3.64701,-2.6499 -0.40063,-3.92113 1.27092,-5.50733 z"
       inkscape:connector-curvature="0"
       stroke-miterlimit="4"
       style="fill:url(#radialGradient2862);fill-opacity:1;fill-rule:evenodd;stroke:none;stroke-width:0;stroke-linecap:butt;stroke-linejoin:miter;stroke-miterlimit:4;stroke-dasharray:none;stroke-opacity:1" />
  </g>
  <g
     id="g2792"
     transform="translate(-8.3421705,-111.03774)">
    <path
       sodipodi:nodetypes="cccc"
       id="path2766"
       d="m 156.53869,211.36553 c 13.28542,-17.44929 34.02093,-77.54136 27.27153,-97.63214 21.56922,14.40274 43.82734,28.39213 51.27051,51.2705 -22.05844,6.72055 -54.13461,50.39418 -78.54204,46.36164 z"
       inkscape:connector-curvature="0"
       fill="url(#linearGradient3366)"
       fill-rule="evenodd"
       stroke="none"
       fill-opacity="1" />
    <path
       d="m 162.53843,201.54777 c 13.28542,-17.44929 26.3849,-66.08731 19.6355,-86.17809 21.56922,14.40274 43.82734,28.39214 51.27051,51.27051 -22.05844,6.72055 -46.49858,38.94012 -70.90601,34.90758 z"
       id="path2764"
       sodipodi:nodetypes="cccc"
       inkscape:connector-curvature="0"
       fill="url(#linearGradient3368)"
       fill-rule="evenodd"
       stroke="none"
       fill-opacity="1" />
    <path
       sodipodi:nodetypes="cccc"
       id="path1877"
       d="m 167.44731,190.09372 c 13.28542,-17.44929 23.65775,-54.08783 16.90835,-74.17861 21.56922,14.40274 43.82734,28.39214 51.27051,51.27051 -22.05844,6.72055 -43.77143,26.94064 -68.17886,22.9081 z"
       inkscape:connector-curvature="0"
       fill="url(#linearGradient3370)"
       fill-rule="evenodd"
       stroke="none"
       fill-opacity="1" />
    <path
       d="m 173.99247,172.0945 c 13.28542,-17.44929 16.56715,-37.17947 9.81775,-57.27025 21.56922,14.40274 43.82734,28.39214 51.27051,51.27051 -22.05844,6.72055 -36.68083,10.03228 -61.08826,5.99974 z"
       id="path1875"
       sodipodi:nodetypes="cccc"
       inkscape:connector-curvature="0"
       stroke-opacity="1"
       stroke-dasharray="none"
       fill="url(#radialGradient3372)"
       fill-rule="evenodd"
       stroke="#555555"
       stroke-linejoin="round"
       fill-opacity="1"
       stroke-linecap="butt"
       stroke-width="1.7"
       stroke-miterlimit="4" />
  </g>
</svg>
