<?xml version="1.0" encoding="UTF-8" standalone="no"?>
<!-- Created with Inkscape (http://www.inkscape.org/) -->

<svg
   xmlns:dc="http://purl.org/dc/elements/1.1/"
   xmlns:cc="http://creativecommons.org/ns#"
   xmlns:rdf="http://www.w3.org/1999/02/22-rdf-syntax-ns#"
   xmlns:svg="http://www.w3.org/2000/svg"
   xmlns="http://www.w3.org/2000/svg"
   xmlns:xlink="http://www.w3.org/1999/xlink"
   xmlns:sodipodi="http://sodipodi.sourceforge.net/DTD/sodipodi-0.dtd"
   xmlns:inkscape="http://www.inkscape.org/namespaces/inkscape"
   id="svg2"
   inkscape:version="0.91 r13725"
   width="256"
   height="256"
   sodipodi:docname="application-vnd.iccprofile.svg"
   version="1.1">
  <metadata
     id="metadata8">
    <rdf:RDF>
      <cc:Work>
        <dc:format>image/svg+xml</dc:format>
        <dc:type
           rdf:resource="http://purl.org/dc/dcmitype/StillImage" />
        <dc:title />
      </cc:Work>
    </rdf:RDF>
  </metadata>
  <defs
     id="defs6">
    <linearGradient
       inkscape:collect="always"
       id="linearGradient4279">
      <stop
         style="stop-color:#497ee1;stop-opacity:0.63589746"
         offset="0"
         id="stop4281" />
      <stop
         style="stop-color:#578ece;stop-opacity:0"
         offset="1"
         id="stop4283" />
    </linearGradient>
    <linearGradient
       id="linearGradient3760">
      <stop
         id="stop3762"
         stop-color="#9fdbe9"
         stop-opacity="0.628" />
      <stop
         offset="0.494"
         id="stop3770"
         stop-color="#6699b8"
         stop-opacity="0.519" />
      <stop
         offset="0.761"
         id="stop3768"
         stop-color="#28667b"
         stop-opacity="0.498" />
      <stop
         id="stop3764"
         offset="1"
         stop-color="#387388"
         stop-opacity="0" />
    </linearGradient>
    <linearGradient
       id="linearGradient3814">
      <stop
         id="stop3816"
         stop-color="#136273"
         stop-opacity="0" />
      <stop
         id="stop3818"
         offset="0.755"
         stop-color="#136173"
         stop-opacity="0.341" />
      <stop
         id="stop3820"
         offset="0.914"
         stop-color="#2f525d"
         stop-opacity="1" />
      <stop
         offset="1"
         id="stop3822"
         stop-color="#032d39"
         stop-opacity="0.31" />
    </linearGradient>
    <linearGradient
       id="linearGradient3826-5">
      <stop
         id="stop3828-4"
         stop-color="#ffffff"
         stop-opacity="0.783" />
      <stop
         id="stop3830-7"
         offset="1"
         stop-color="#136273"
         stop-opacity="0" />
    </linearGradient>
    <linearGradient
       id="linearGradient4198"
       inkscape:collect="always">
      <stop
         id="stop4200"
         stop-color="#68b8cd"
         stop-opacity="1" />
      <stop
         id="stop4202"
         offset="1"
         stop-color="#68b8cd"
         stop-opacity="0" />
    </linearGradient>
    <linearGradient
       id="linearGradient4236"
       inkscape:collect="always">
      <stop
         id="stop4238"
         stop-color="#ceecf4"
         stop-opacity="1" />
      <stop
         id="stop4240"
         offset="1"
         stop-color="#ceecf4"
         stop-opacity="0" />
    </linearGradient>
    <radialGradient
       inkscape:collect="always"
       xlink:href="#linearGradient3760"
       id="radialGradient5437"
       gradientUnits="userSpaceOnUse"
       gradientTransform="matrix(0.5865954,0.12197337,-0.33379127,1.6052718,-81.562819,-81.4114)"
       cx="125.62"
       cy="151.8"
       fx="99.12"
       fy="139.75"
       r="56.41" />
    <radialGradient
       inkscape:collect="always"
       xlink:href="#linearGradient3814"
       id="radialGradient5439"
       gradientUnits="userSpaceOnUse"
       gradientTransform="matrix(2.513317,0.27898218,-0.43293436,3.9002531,-266.46901,-501.37782)"
       cx="106.95"
       cy="167.58"
       fx="106.95"
       fy="167.58"
       r="21.712" />
    <radialGradient
       inkscape:collect="always"
       xlink:href="#linearGradient3826-5"
       id="radialGradient5441"
       gradientUnits="userSpaceOnUse"
       gradientTransform="matrix(0.26850163,-0.80712746,0.61279484,0.20385432,-125.09848,411.31885)"
       cx="266.53"
       cy="35.12"
       fx="266.53"
       fy="35.12"
       r="93.62" />
    <radialGradient
       inkscape:collect="always"
       xlink:href="#linearGradient4198"
       id="radialGradient5443"
       gradientUnits="userSpaceOnUse"
       gradientTransform="matrix(-0.60146276,1.0314644,-0.46724261,-0.27245635,59.593941,57.015407)"
       cx="112.21"
       cy="107.35"
       fx="112.21"
       fy="107.35"
       r="15.639" />
    <radialGradient
       inkscape:collect="always"
       xlink:href="#linearGradient4198"
       id="radialGradient5445"
       gradientUnits="userSpaceOnUse"
       gradientTransform="matrix(0.80704081,0.2411988,-0.39067863,1.3071939,-97.089519,-30.035104)"
       cx="96.73"
       cy="139.52"
       fx="96.73"
       fy="139.52"
       r="12.59" />
    <linearGradient
       inkscape:collect="always"
       xlink:href="#linearGradient4236"
       id="linearGradient5447"
       gradientUnits="userSpaceOnUse"
       gradientTransform="translate(-170.2627,36.156651)"
       spreadMethod="reflect"
       x1="85.84"
       y1="120.41"
       x2="136.79"
       y2="42.667" />
    <linearGradient
       id="linearGradient2843">
      <stop
         id="stop2845"
         stop-color="#000000"
         stop-opacity="1" />
      <stop
         id="stop2847"
         offset="1"
         stop-color="white"
         stop-opacity="1" />
    </linearGradient>
    <linearGradient
       id="linearGradient2812">
      <stop
         id="stop2814"
         stop-color="#000000"
         stop-opacity="1" />
      <stop
         id="stop2816"
         offset="1"
         stop-color="#575757"
         stop-opacity="1" />
    </linearGradient>
    <linearGradient
       id="linearGradient2784"
       inkscape:collect="always">
      <stop
         id="stop2786"
         stop-color="#000000"
         stop-opacity="0.711" />
      <stop
         id="stop2788"
         offset="1"
         stop-color="#000000"
         stop-opacity="0" />
    </linearGradient>
    <linearGradient
       y2="104.9"
       x2="160.69"
       y1="41.453"
       x1="224.86"
       gradientTransform="translate(2.727155,101.9956)"
       gradientUnits="userSpaceOnUse"
       id="linearGradient2798"
       xlink:href="#linearGradient2784"
       inkscape:collect="always" />
    <linearGradient
       y2="92.39"
       x2="169.66"
       y1="37.487"
       x1="221.17"
       gradientTransform="translate(1.090862,103.6319)"
       gradientUnits="userSpaceOnUse"
       id="linearGradient2800"
       xlink:href="#linearGradient2784"
       inkscape:collect="always" />
    <linearGradient
       y2="184.49"
       x2="180.58"
       y1="139.01"
       x1="221.78"
       gradientUnits="userSpaceOnUse"
       id="linearGradient2802"
       xlink:href="#linearGradient2784"
       inkscape:collect="always" />
    <linearGradient
       gradientTransform="translate(8.6029314,1.1419184)"
       gradientUnits="userSpaceOnUse"
       y2="14.954"
       x2="57.08"
       y1="236.48"
       x1="176.83"
       id="linearGradient2818"
       xlink:href="#linearGradient2812"
       inkscape:collect="always" />
    <radialGradient
       spreadMethod="reflect"
       gradientUnits="userSpaceOnUse"
       gradientTransform="matrix(0.754607,0.03976438,-0.04166753,0.790723,50.88446,29.53464)"
       r="31.04"
       fy="180.44"
       fx="176.72"
       cy="180.44"
       cx="176.72"
       id="radialGradient2851"
       xlink:href="#linearGradient2843"
       inkscape:collect="always" />
    <linearGradient
       id="linearGradient2284">
      <stop
         id="stop2290"
         stop-color="#000000"
         stop-opacity="1" />
      <stop
         id="stop2292"
         offset="1"
         stop-color="#5c5c5c"
         stop-opacity="1" />
    </linearGradient>
    <linearGradient
       inkscape:collect="always"
       xlink:href="#linearGradient3578"
       id="linearGradient2595"
       gradientUnits="userSpaceOnUse"
       spreadMethod="reflect"
       x1="13.515"
       y1="-7.475"
       x2="16.09"
       y2="-7.475" />
    <linearGradient
       inkscape:collect="always"
       xlink:href="#linearGradient3578"
       id="linearGradient3610"
       gradientUnits="userSpaceOnUse"
       spreadMethod="reflect"
       x1="15.65"
       y1="-2.21"
       x2="16.09"
       y2="-7.475" />
    <linearGradient
       inkscape:collect="always"
       xlink:href="#linearGradient3578"
       id="linearGradient3608"
       gradientUnits="userSpaceOnUse"
       spreadMethod="reflect"
       x1="10.621"
       y1="-6.409"
       x2="16.09"
       y2="-7.475" />
    <linearGradient
       inkscape:collect="always"
       xlink:href="#linearGradient3578"
       id="linearGradient3606"
       gradientUnits="userSpaceOnUse"
       spreadMethod="reflect"
       x1="11.187"
       y1="-5.887"
       x2="9.718"
       y2="-1.513" />
    <linearGradient
       inkscape:collect="always"
       xlink:href="#linearGradient3578"
       id="linearGradient3604"
       gradientUnits="userSpaceOnUse"
       spreadMethod="reflect"
       x1="7.771"
       y1="-3.754"
       x2="12.916"
       y2="-4.516" />
    <linearGradient
       inkscape:collect="always"
       xlink:href="#linearGradient3578"
       id="linearGradient3602"
       gradientUnits="userSpaceOnUse"
       spreadMethod="reflect"
       x1="17.08"
       y1="-2.275"
       x2="14.94"
       y2="-3.733" />
    <linearGradient
       inkscape:collect="always"
       xlink:href="#linearGradient3578"
       id="linearGradient3600"
       gradientUnits="userSpaceOnUse"
       spreadMethod="reflect"
       x1="15.582"
       y1="-6.256"
       x2="17.377"
       y2="-1.992" />
    <linearGradient
       inkscape:collect="always"
       xlink:href="#linearGradient3578"
       id="linearGradient3598"
       gradientUnits="userSpaceOnUse"
       spreadMethod="reflect"
       x1="16.691"
       y1="-10.978"
       x2="16.09"
       y2="-7.475" />
    <linearGradient
       inkscape:collect="always"
       xlink:href="#linearGradient3578"
       id="linearGradient3596"
       gradientUnits="userSpaceOnUse"
       spreadMethod="reflect"
       x1="16.387"
       y1="-11.391"
       x2="11.132"
       y2="-11.199" />
    <linearGradient
       inkscape:collect="always"
       xlink:href="#linearGradient3578"
       id="linearGradient3594"
       gradientUnits="userSpaceOnUse"
       spreadMethod="reflect"
       x1="12.04"
       y1="-11.587"
       x2="8.696"
       y2="-2.688" />
    <linearGradient
       inkscape:collect="always"
       xlink:href="#linearGradient3578"
       id="linearGradient3592"
       gradientUnits="userSpaceOnUse"
       spreadMethod="reflect"
       x1="12.906"
       y1="-10.151"
       x2="11.372"
       y2="-5.778" />
    <linearGradient
       inkscape:collect="always"
       xlink:href="#linearGradient3578"
       id="linearGradient3590"
       gradientUnits="userSpaceOnUse"
       spreadMethod="reflect"
       x1="16.387"
       y1="-5.908"
       x2="17.747"
       y2="-6.953" />
    <linearGradient
       inkscape:collect="always"
       xlink:href="#linearGradient3578"
       id="linearGradient3588"
       gradientUnits="userSpaceOnUse"
       spreadMethod="reflect"
       x1="13.515"
       y1="-7.475"
       x2="17.07"
       y2="-8.02" />
    <linearGradient
       inkscape:collect="always"
       xlink:href="#linearGradient3578"
       id="linearGradient3586"
       gradientUnits="userSpaceOnUse"
       spreadMethod="reflect"
       x1="16.909"
       y1="-5.212"
       x2="18.617"
       y2="-6.583" />
    <linearGradient
       id="linearGradient3578">
      <stop
         id="stop3580"
         stop-color="#000000"
         stop-opacity="1" />
      <stop
         offset="1"
         id="stop3582"
         stop-color="#fffcfc"
         stop-opacity="1" />
    </linearGradient>
    <linearGradient
       gradientTransform="translate(8.6029314,1.1419184)"
       gradientUnits="userSpaceOnUse"
       y2="9.01"
       x2="134.26"
       y1="252.2"
       x1="141.34"
       id="linearGradient3304"
       xlink:href="#linearGradient2284"
       inkscape:collect="always" />
    <filter
       height="1.069"
       y="-0.034"
       width="1.076"
       x="-0.038"
       id="filter4318"
       inkscape:collect="always"
       color-interpolation-filters="sRGB">
      <feGaussianBlur
         id="feGaussianBlur4320"
         stdDeviation="3.43407"
         inkscape:collect="always" />
    </filter>
    <radialGradient
       inkscape:collect="always"
       xlink:href="#linearGradient4279"
       id="radialGradient4285"
       cx="178.86279"
       cy="236.89133"
       fx="178.86279"
       fy="236.89133"
       r="29.084522"
       gradientTransform="matrix(1,0,0,0.32850241,-7.025247,163.84913)"
       gradientUnits="userSpaceOnUse" />
  </defs>
  <sodipodi:namedview
     pagecolor="#ffffff"
     bordercolor="#666666"
     borderopacity="1"
     objecttolerance="10"
     gridtolerance="10"
     guidetolerance="10"
     inkscape:pageopacity="0"
     inkscape:pageshadow="2"
     inkscape:window-width="1920"
     inkscape:window-height="1056"
     id="namedview4"
     showgrid="false"
     inkscape:zoom="3.5585938"
     inkscape:cx="128"
     inkscape:cy="128.28101"
     inkscape:window-x="0"
     inkscape:window-y="0"
     inkscape:window-maximized="1"
     inkscape:current-layer="svg2"
     showguides="true"
     inkscape:guide-bbox="true" />
  <path
     inkscape:connector-curvature="0"
     d="M 168.28219,9.7656905 C 122.49544,19.862029 75.221945,27.764598 28.157199,22.23444 c -4.990461,5.22427 -2.88801,14.085712 -4.71875,20.71875 -8.208109,66.45575 -9.532037,134.46698 3.625,200.37499 10.917545,5.59652 24.247161,4.87986 36.374936,5.51976 57.607745,-0.13945 112.034505,-26.62359 169.937565,-21.89476 4.43135,-3.89878 -2.05173,-9.72438 -2.625,-14.15625 -16.81542,-46.97813 -9.62924,-97.83297 -4.22869,-146.217358 1.02403,-11.592367 -7.76415,-20.946261 -14.68198,-29.19212 -11.19945,-11.672867 -24.89314,-20.705227 -38.74559,-28.7155115 -1.60417,0.364583 -3.20833,0.729167 -4.8125,1.09375 z"
     id="path2824"
     transform="matrix(0.96401029,0,0,0.96401029,-0.12304577,5.8768953)"
     stroke-dasharray="none"
     stroke-opacity="1"
     fill="#000000"
     filter="url(#filter4318)"
     fill-rule="evenodd"
     stroke="none"
     stroke-linejoin="round"
     fill-opacity="0.705"
     stroke-linecap="round"
     stroke-width="2.7"
     stroke-miterlimit="4" />
  <path
     style="opacity:1;fill:url(#radialGradient4285);fill-opacity:1;stroke:none;stroke-width:1.79999995;stroke-linecap:round;stroke-linejoin:round;stroke-miterlimit:4;stroke-dasharray:none;stroke-dashoffset:0;stroke-opacity:1"
     id="path4277"
     sodipodi:type="arc"
     sodipodi:cx="171.83754"
     sodipodi:cy="241.66849"
     sodipodi:rx="29.084522"
     sodipodi:ry="9.5543356"
     sodipodi:start="0"
     sodipodi:end="6.2819636"
     sodipodi:open="true"
     d="m 200.92206,241.66849 a 29.084522,9.5543356 0 0 1 -29.07564,9.55433 29.084522,9.5543356 0 0 1 -29.0934,-9.5485 29.084522,9.5543356 0 0 1 29.05787,-9.56016 29.084522,9.5543356 0 0 1 29.11115,9.54265" />
  <g
     id="g4298"
     transform="matrix(0.96401029,0,0,0.96401029,3.3252737,-3.287299)">
    <path
       sodipodi:nodetypes="cccccc"
       id="path1873"
       d="M 41.328789,21.606613 C 85.703779,27.065427 135.34714,19.880155 186.95885,7.97084 208.52807,22.37358 230.78619,36.362977 238.22936,59.241348 233.08283,113.60263 222.8664,167.96391 246.95626,222.3252 179.32282,216.24704 108.96223,256.65723 42.419649,240.32442 28.402529,169.82792 30.679319,96.456038 41.328789,21.606613 Z"
       inkscape:connector-curvature="0"
       stroke-dasharray="none"
       stroke-opacity="1"
       fill="url(#linearGradient3304)"
       fill-rule="evenodd"
       stroke="url(#linearGradient2818)"
       stroke-linejoin="round"
       fill-opacity="1"
       stroke-linecap="round"
       stroke-width="2.7"
       stroke-miterlimit="4" />
    <g
       transform="translate(3.6940534,-107.39888)"
       id="g2792">
      <path
         d="m 162.97667,204.08781 c 14.40177,-17.35626 34.55778,-69.6824 20.83355,-90.35442 21.56922,14.40274 43.82734,28.39213 51.27051,51.2705 -20.39366,8.83936 -41.68852,50.76315 -72.10406,39.08392 z"
         id="path2766"
         sodipodi:nodetypes="cccc"
         inkscape:connector-curvature="0"
         stroke-opacity="1"
         fill="url(#linearGradient2798)"
         fill-rule="evenodd"
         stroke="none"
         stroke-linejoin="miter"
         fill-opacity="1"
         stroke-linecap="butt"
         stroke-width="1" />
      <path
         sodipodi:nodetypes="cccc"
         id="path2764"
         d="m 168.73865,195.43185 c 14.97833,-17.32837 28.08562,-59.40704 13.43528,-80.06217 21.56922,14.40274 43.82734,28.39214 51.27051,51.27051 -22.05844,6.72055 -40.29836,32.8242 -64.70579,28.79166 z"
         inkscape:connector-curvature="0"
         stroke-opacity="1"
         fill="url(#linearGradient2800)"
         fill-rule="evenodd"
         stroke="none"
         stroke-linejoin="miter"
         fill-opacity="1"
         stroke-linecap="butt"
         stroke-width="1" />
      <path
         d="m 175.50316,187.30648 c 13.28542,-17.44929 15.6019,-51.30059 8.8525,-71.39137 21.56922,14.40274 43.82734,28.39214 51.27051,51.27051 -22.05844,6.72055 -25.63874,25.55296 -60.12301,20.12086 z"
         id="path1877"
         sodipodi:nodetypes="cccc"
         inkscape:connector-curvature="0"
         stroke-opacity="1"
         fill="url(#linearGradient2802)"
         fill-rule="evenodd"
         stroke="none"
         stroke-linejoin="miter"
         fill-opacity="1"
         stroke-linecap="butt"
         stroke-width="1" />
      <path
         sodipodi:nodetypes="cccc"
         id="path1875"
         d="m 173.99247,172.0945 c 13.28542,-17.44929 16.56715,-37.17947 9.81775,-57.27025 21.56922,14.40274 43.82734,28.39214 51.27051,51.27051 -22.05844,6.72055 -36.68083,10.03228 -61.08826,5.99974 z"
         inkscape:connector-curvature="0"
         stroke-dasharray="none"
         stroke-opacity="1"
         fill="url(#radialGradient2851)"
         fill-rule="evenodd"
         stroke="#4b4b4b"
         stroke-linejoin="round"
         fill-opacity="1"
         stroke-linecap="butt"
         stroke-width="1.9"
         stroke-miterlimit="4" />
    </g>
  </g>
  <g
     inkscape:label="1. réteg"
     id="layer1"
     transform="translate(2.3508258,-0.66921143)">
    <g
       id="g2637">
      <g
         id="g3612"
         transform="translate(-2.5722563,0)">
        <g
           id="g2650"
           stroke-opacity="1"
           font-family="'Bitstream Vera Sans'"
           fill="url(#linearGradient2595)"
           stroke="none"
           font-style="normal"
           stroke-linejoin="miter"
           fill-opacity="1"
           font-weight="normal"
           stroke-linecap="butt"
           stroke-width="1"
           font-size="12">
          <path
             inkscape:connector-curvature="0"
             id="path2652"
             d="m 16.1875,-12.21875 -4.09375,0.03125 0.707107,0.707107 4.09375,-0.03125 -0.707107,-0.707107 z"
             fill="url(#linearGradient2595)"
             fill-opacity="1" />
          <path
             inkscape:connector-curvature="0"
             id="path2654"
             d="M 12.09375,-12.1875 8.75,-3.4375 9.4571068,-2.7303932 12.800857,-11.480393 12.09375,-12.1875 Z"
             fill="url(#linearGradient2595)"
             fill-opacity="1" />
          <path
             inkscape:connector-curvature="0"
             id="path2662"
             d="m 14.75,-5.6875 0.78125,2.21875 0.707107,0.7071068 -0.78125,-2.21875 L 14.75,-5.6875 Z"
             fill="url(#linearGradient2595)"
             fill-opacity="1" />
          <path
             inkscape:connector-curvature="0"
             id="path2664"
             d="m 15.53125,-3.46875 0,0.03125 0.707107,0.7071068 0,-0.03125 L 15.53125,-3.46875 Z"
             fill="url(#linearGradient2595)"
             fill-opacity="1" />
          <path
             inkscape:connector-curvature="0"
             id="path2672"
             d="m 17.92037,-11.519527 c -0.441567,-0.441567 -1.023884,-0.714237 -1.73287,-0.699223 l 0.707107,0.707107 c 0.708986,-0.01501 1.291302,0.257655 1.73287,0.699223 l -0.707107,-0.707107 z"
             fill="url(#linearGradient2595)"
             fill-opacity="1" />
          <path
             inkscape:connector-curvature="0"
             id="path2674"
             d="m 16.21875,-11.96875 c 0.599616,0.0028 1.098445,0.242806 1.481471,0.625832 l 0.707107,0.707107 c -0.383026,-0.383026 -0.881855,-0.623021 -1.481471,-0.625832 L 16.21875,-11.96875 Z"
             fill="url(#linearGradient3598)"
             fill-opacity="1" />
          <path
             inkscape:connector-curvature="0"
             id="path2676"
             d="m 17.700221,-11.342918 c 1.561455,1.5614549 1.198394,5.4999287 -2.106471,5.436668 l 0.707107,0.7071068 c 3.304865,0.063261 3.667926,-3.8752131 2.106471,-5.4366678 l -0.707107,-0.707107 z"
             fill="url(#linearGradient2595)"
             fill-opacity="1" />
          <path
             inkscape:connector-curvature="0"
             id="path2678"
             d="m 15.59375,-5.90625 0.78125,2.1875 0.707107,0.7071068 -0.78125,-2.1875 L 15.59375,-5.90625 Z"
             fill="url(#linearGradient2595)"
             fill-opacity="1" />
          <path
             inkscape:connector-curvature="0"
             id="path2680"
             d="m 16.375,-3.71875 -0.65625,0 0.707107,0.7071068 0.65625,0 L 16.375,-3.71875 Z"
             fill="url(#linearGradient2595)"
             fill-opacity="1" />
          <path
             inkscape:connector-curvature="0"
             id="path2684"
             d="m 14.875,-5.96875 -4.3125,0 0.707107,0.7071068 4.3125,0 L 14.875,-5.96875 Z"
             fill="url(#linearGradient2595)"
             fill-opacity="1" />
          <path
             inkscape:connector-curvature="0"
             id="path2686"
             d="M 10.5625,-5.96875 9.75,-3.75 l 0.707107,0.7071068 0.8125,-2.21875 L 10.5625,-5.96875 Z"
             fill="url(#linearGradient2595)"
             fill-opacity="1" />
          <path
             inkscape:connector-curvature="0"
             id="path2690"
             d="m 9.1875,-3.75 3.09375,-8.15625 0.707107,0.707107 L 9.8946068,-3.0428932 9.1875,-3.75 Z"
             fill="url(#linearGradient3594)"
             fill-opacity="1" />
          <path
             inkscape:connector-curvature="0"
             id="path2660"
             d="m 10.8125,-5.6875 3.9375,0 0.707107,0.7071068 -3.9375,0 L 10.8125,-5.6875 Z"
             fill="url(#linearGradient3608)"
             fill-opacity="1" />
          <path
             inkscape:connector-curvature="0"
             id="path2682"
             d="m 15.71875,-3.71875 -0.84375,-2.25 0.707107,0.7071068 0.84375,2.25 L 15.71875,-3.71875 Z"
             fill="url(#linearGradient3610)"
             fill-opacity="1" />
          <path
             inkscape:connector-curvature="0"
             id="path2688"
             d="m 9.75,-3.75 -0.5625,0 0.7071068,0.7071068 0.5625002,0 L 9.75,-3.75 Z"
             fill="url(#linearGradient2595)"
             fill-opacity="1" />
          <path
             inkscape:connector-curvature="0"
             id="path2692"
             d="m 12.28125,-11.90625 3.9375,-0.0625 0.707107,0.707107 -3.9375,0.0625 -0.707107,-0.707107 z"
             fill="url(#linearGradient3596)"
             fill-opacity="1" />
          <path
             inkscape:connector-curvature="0"
             id="path2694"
             d="m 13.59375,-11.375 1.84375,4.9375 0.707107,0.7071068 -1.84375,-4.9374998 L 13.59375,-11.375 Z"
             fill="url(#linearGradient2595)"
             fill-opacity="1" />
          <path
             inkscape:connector-curvature="0"
             id="path2698"
             d="M 17.29651,-10.694689 C 16.87154,-11.11966 16.292483,-11.392236 15.59375,-11.375 l 0.707107,0.707107 c 0.698733,-0.01724 1.277789,0.255339 1.70276,0.6803104 L 17.29651,-10.694689 Z"
             fill="url(#linearGradient2595)"
             fill-opacity="1" />
          <path
             inkscape:connector-curvature="0"
             id="path2700"
             d="m 15.59375,-11.375 -2,0 0.707107,0.707107 2,0 L 15.59375,-11.375 Z"
             fill="url(#linearGradient2595)"
             fill-opacity="1" />
          <path
             inkscape:connector-curvature="0"
             id="path2702"
             d="m 12.5,-11.25 -1.78125,4.875 0.707107,0.7071068 1.78125,-4.8749998 L 12.5,-11.25 Z"
             fill="url(#linearGradient2595)"
             fill-opacity="1" />
          <path
             inkscape:connector-curvature="0"
             id="path2704"
             d="m 10.71875,-6.375 4,0.0625 0.707107,0.7071068 -4,-0.0625 L 10.71875,-6.375 Z"
             fill="url(#linearGradient2595)"
             fill-opacity="1" />
          <path
             inkscape:connector-curvature="0"
             id="path2706"
             d="m 14.71875,-6.3125 -1.75,-4.9375 0.707107,0.707107 1.75,4.9374998 L 14.71875,-6.3125 Z"
             fill="url(#linearGradient2595)"
             fill-opacity="1" />
          <path
             inkscape:connector-curvature="0"
             id="path2708"
             d="m 12.96875,-11.25 -0.46875,0 0.707107,0.707107 0.46875,0 L 12.96875,-11.25 Z"
             fill="url(#linearGradient2595)"
             fill-opacity="1" />
          <path
             inkscape:connector-curvature="0"
             id="path2710"
             d="m 13.96875,-11.125 1.59375,0 0.707107,0.707107 -1.59375,0 L 13.96875,-11.125 Z"
             fill="url(#linearGradient2595)"
             fill-opacity="1" />
          <path
             inkscape:connector-curvature="0"
             id="path2712"
             d="m 15.5625,-11.125 c 0.700736,-0.01728 1.245143,0.227017 1.62661,0.608484 l 0.707107,0.7071066 C 17.51475,-10.190876 16.970342,-10.435179 16.269607,-10.417893 L 15.5625,-11.125 Z"
             fill="url(#linearGradient2595)"
             fill-opacity="1" />
          <path
             inkscape:connector-curvature="0"
             id="path2714"
             d="m 17.18911,-10.516516 c 1.226812,1.2268116 0.768345,3.872302 -1.59536,3.797766 l 0.707107,0.7071068 c 2.363705,0.074536 2.822172,-2.5709544 1.59536,-3.7977662 L 17.18911,-10.516516 Z"
             fill="url(#linearGradient3588)"
             fill-opacity="1" />
          <path
             inkscape:connector-curvature="0"
             id="path2716"
             d="m 15.59375,-6.71875 -1.625,-4.40625 0.707107,0.707107 1.625,4.4062498 L 15.59375,-6.71875 Z"
             fill="url(#linearGradient2595)"
             fill-opacity="1" />
          <path
             inkscape:connector-curvature="0"
             id="path2696"
             d="m 15.4375,-6.4375 c 2.997036,0.074602 3.230868,-2.8853317 1.85901,-4.257189 l 0.707107,0.7071064 c 1.371858,1.3718577 1.138026,4.3317916 -1.85901,4.2571894 L 15.4375,-6.4375 Z"
             fill="url(#linearGradient3590)"
             fill-opacity="1" />
          <path
             inkscape:connector-curvature="0"
             id="path2722"
             d="m 11.15625,-6.65625 1.59375,-4.375 0.707107,0.707107 -1.59375,4.3749998 L 11.15625,-6.65625 Z"
             fill="url(#linearGradient3592)"
             fill-opacity="1" />
          <path
             inkscape:connector-curvature="0"
             id="path2718"
             d="m 12.75,-11.03125 1.625,4.375 0.707107,0.7071068 -1.625,-4.3749998 L 12.75,-11.03125 Z"
             fill="url(#linearGradient2595)"
             fill-opacity="1" />
          <path
             inkscape:connector-curvature="0"
             id="path2720"
             d="m 14.375,-6.65625 -3.21875,0 0.707107,0.7071068 3.21875,0 L 14.375,-6.65625 Z"
             fill="url(#linearGradient2595)"
             fill-opacity="1" />
          <path
             inkscape:connector-curvature="0"
             id="path2670"
             d="m 15.96875,-5.6875 c 3.266261,0.062522 3.649833,-4.1338136 1.95162,-5.832027 l 0.707107,0.707107 c 1.698213,1.6982132 1.314641,5.8945486 -1.95162,5.8320268 L 15.96875,-5.6875 Z"
             fill="url(#linearGradient3586)"
             fill-opacity="1" />
          <path
             inkscape:connector-curvature="0"
             id="path2668"
             d="m 16.78125,-3.4375 -0.8125,-2.25 0.707107,0.7071068 0.8125,2.25 L 16.78125,-3.4375 Z"
             fill="url(#linearGradient3600)"
             fill-opacity="1" />
          <path
             inkscape:connector-curvature="0"
             id="path2666"
             d="m 15.53125,-3.4375 1.25,0 0.707107,0.7071068 -1.25,0 L 15.53125,-3.4375 Z"
             fill="url(#linearGradient3602)"
             fill-opacity="1" />
          <path
             inkscape:connector-curvature="0"
             id="path2656"
             d="m 8.75,-3.4375 1.25,0 0.707107,0.7071068 -1.2500002,0 L 8.75,-3.4375 Z"
             fill="url(#linearGradient3604)"
             fill-opacity="1" />
          <path
             inkscape:connector-curvature="0"
             id="path2658"
             d="m 10,-3.4375 0.8125,-2.25 0.707107,0.7071068 -0.8125,2.25 L 10,-3.4375 Z"
             fill="url(#linearGradient3606)"
             fill-opacity="1" />
        </g>
        <path
           inkscape:connector-curvature="0"
           id="path2505"
           d="m 16.1875,-12.175236 -4.09375,0.03125 -3.3437504,8.7500003 1.25,0 0.8125004,-2.25 3.9375,0 0.78125,2.21875 0,0.03125 1.25,0 -0.8125,-2.25 c 4.115551,0.078779 3.654407,-6.6040073 0.21875,-6.5312503 z m 0.03125,0.25 c 3.044029,0.01427 3.490551,6.1412789 -0.625,6.0625003 l 0.78125,2.1875 -0.65625,0 -0.84375,-2.25 -4.3125,0 -0.8125004,2.21875 -0.5625,0 3.0937504,-8.1562503 3.9375,-0.0625 z m -2.625,0.59375 1.84375,4.9375003 c 3.925451,0.097712 3.110577,-5.0103763 0.15625,-4.9375003 l -2,0 z m -1.09375,0.125 -1.78125,4.8750003 4,0.0625 -1.75,-4.9375003 -0.46875,0 z m 1.46875,0.125 1.59375,0 c 2.954327,-0.07288 3.12993,4.5039626 0.03125,4.4062503 l -1.625,-4.4062503 z m -1.21875,0.09375 1.625,4.3750003 -3.21875,0 1.59375,-4.3750003 z"
           stroke-opacity="1"
           font-family="'Bitstream Vera Sans'"
           fill="#333333"
           stroke="none"
           font-style="normal"
           stroke-linejoin="miter"
           fill-opacity="1"
           font-weight="normal"
           stroke-linecap="butt"
           stroke-width="1"
           font-size="12" />
      </g>
      <path
         inkscape:connector-curvature="0"
         id="text2170"
         d="m 6.0871491,-4.0239012 c -0.010522,-0.011146 -0.022062,-0.019197 -0.03462,-0.024152 -0.012219,-0.00557 -0.025796,-0.00836 -0.04073,-0.00836 -0.052948,1e-6 -0.093678,0.031584 -0.122188,0.094748 -0.028172,0.062547 -0.042257,0.15265 -0.042257,0.27031 l 0,0.548052 -0.094187,0 0,-1.040369 0.094187,0 0,0.161628 c 0.019686,-0.063164 0.045311,-0.109918 0.076877,-0.140264 0.031565,-0.030961 0.069918,-0.046444 0.115061,-0.046445 0.00645,1e-6 0.013576,9.31e-4 0.021383,0.00279 0.00781,0.00124 0.016461,0.00341 0.025965,0.0065 l 5.09e-4,0.175563 m 0.297835,-0.039943 c -0.050233,1e-6 -0.089944,0.035918 -0.119134,0.107752 -0.029189,0.071217 -0.043784,0.169061 -0.043784,0.293533 0,0.124473 0.014425,0.222627 0.043275,0.294462 0.029189,0.071216 0.06907,0.106824 0.119643,0.106824 0.049895,0 0.089436,-0.035918 0.118626,-0.107753 0.029189,-0.071835 0.043784,-0.169679 0.043784,-0.293533 0,-0.123233 -0.014595,-0.220768 -0.043784,-0.292604 -0.02919,-0.072453 -0.068731,-0.10868 -0.118626,-0.108681 m 0,-0.144909 c 0.08146,1e-6 0.145439,0.048304 0.191939,0.144909 0.046499,0.096606 0.069749,0.230368 0.06975,0.401285 -1e-6,0.170299 -0.023251,0.304061 -0.06975,0.401286 -0.0465,0.096605 -0.110479,0.144908 -0.191939,0.144908 -0.081799,0 -0.145948,-0.048303 -0.192447,-0.144908 -0.04616,-0.097225 -0.06924,-0.230987 -0.06924,-0.401286 0,-0.170917 0.02308,-0.304679 0.06924,-0.401285 0.046499,-0.096605 0.110648,-0.144908 0.192447,-0.144909 m 0.637419,0.144909 c -0.050233,1e-6 -0.089945,0.035918 -0.119134,0.107752 -0.02919,0.071217 -0.043784,0.169061 -0.043784,0.293533 0,0.124473 0.014425,0.222627 0.043275,0.294462 0.029189,0.071216 0.06907,0.106824 0.119643,0.106824 0.049893,0 0.089435,-0.035918 0.118625,-0.107753 0.029189,-0.071835 0.043784,-0.169679 0.043784,-0.293533 0,-0.123233 -0.014595,-0.220768 -0.043784,-0.292604 -0.02919,-0.072453 -0.068732,-0.10868 -0.118625,-0.108681 m 0,-0.144909 c 0.081459,1e-6 0.145438,0.048304 0.191938,0.144909 0.046499,0.096606 0.069749,0.230368 0.069749,0.401285 0,0.170299 -0.02325,0.304061 -0.069749,0.401286 -0.0465,0.096605 -0.110479,0.144908 -0.191938,0.144908 -0.081799,0 -0.145948,-0.048303 -0.192447,-0.144908 -0.046161,-0.097225 -0.06924,-0.230987 -0.06924,-0.401286 0,-0.170917 0.023079,-0.304679 0.06924,-0.401285 0.046499,-0.096605 0.110648,-0.144908 0.192447,-0.144909 m 0.50912,-0.27031 0,0.295391 0.192955,0 0,0.132832 -0.192955,0 0,0.564772 c -1e-6,0.08484 0.00628,0.139336 0.018836,0.163487 0.012898,0.024152 0.038863,0.036228 0.077896,0.036227 l 0.096223,0 0,0.143051 -0.096223,0 c -0.072296,0 -0.122188,-0.024461 -0.149681,-0.073383 -0.027492,-0.049542 -0.041238,-0.139335 -0.041238,-0.269382 l 0,-0.564772 -0.068732,0 0,-0.132832 0.068732,0 0,-0.295391 0.094187,0 m 0.423586,0.103108 0,0.521114 0.129317,0 c 0.047857,0 0.084853,-0.022603 0.110988,-0.06781 0.026134,-0.045206 0.039202,-0.109609 0.039202,-0.193211 0,-0.082981 -0.013068,-0.147075 -0.039202,-0.192283 -0.026135,-0.045205 -0.063131,-0.067809 -0.110988,-0.06781 l -0.129317,0 m -0.102842,-0.154197 0.232159,0 c 0.085192,1e-6 0.149511,0.0353 0.192956,0.105894 0.043784,0.069979 0.065676,0.172777 0.065676,0.308396 0,0.136859 -0.021892,0.240276 -0.065676,0.310252 -0.043445,0.069978 -0.107764,0.104967 -0.192956,0.104967 l -0.129317,0 0,0.55734 -0.102842,0 0,-1.386849 m 0.837502,0.863878 c -0.075689,0 -0.128129,0.015791 -0.157318,0.047374 -0.02919,0.031583 -0.043784,0.085459 -0.043784,0.161628 0,0.060689 0.010861,0.108991 0.032583,0.144909 0.022062,0.035298 0.05193,0.052947 0.089606,0.052947 0.05193,0 0.093508,-0.03344 0.124734,-0.100321 0.031565,-0.0675 0.047348,-0.156984 0.047348,-0.268453 l 0,-0.038084 -0.093169,0 m 0.186847,-0.070597 0,0.593568 -0.093678,0 0,-0.157913 c -0.021383,0.063165 -0.048027,0.10992 -0.079932,0.140264 -0.031905,0.029725 -0.070937,0.044587 -0.117097,0.044587 -0.05838,0 -0.104879,-0.029725 -0.139499,-0.089175 -0.034281,-0.060068 -0.051421,-0.140263 -0.051421,-0.240585 0,-0.117041 0.021383,-0.205287 0.064149,-0.264737 0.043105,-0.059448 0.107254,-0.089173 0.192447,-0.089174 l 0.131353,0 0,-0.01672 c 0,-0.078646 -0.014256,-0.139335 -0.042766,-0.182065 -0.028172,-0.043347 -0.067883,-0.065022 -0.119134,-0.065023 -0.032584,1e-6 -0.064319,0.00712 -0.095206,0.021365 -0.030886,0.014244 -0.060585,0.035608 -0.089096,0.064094 l 0,-0.157913 c 0.034281,-0.024151 0.067544,-0.04211 0.099788,-0.053876 0.032244,-0.012385 0.06364,-0.018578 0.094187,-0.018579 0.082477,1e-6 0.144081,0.039016 0.184811,0.117042 0.040729,0.078028 0.061093,0.196309 0.061094,0.35484 m 0.193466,-0.851802 0.093678,0 0,1.44537 -0.093678,0 0,-1.44537 m 0.647228,0.9200515 c -1e-6,0.088556 0.012049,0.158223 0.036147,0.209003 0.024098,0.050161 0.057191,0.075241 0.099278,0.075241 0.041749,0 0.074502,-0.02539 0.098261,-0.07617 0.024098,-0.05078 0.036148,-0.120138 0.036148,-0.208074 0,-0.086697 -0.012219,-0.155435 -0.036657,-0.206216 -0.024438,-0.051399 -0.057361,-0.077098 -0.09877,-0.077099 -0.041069,1e-6 -0.073823,0.025391 -0.09826,0.07617 -0.024098,0.050781 -0.036148,0.119829 -0.036147,0.207145 m 0.277471,0.277742 c -0.020365,0.047683 -0.043785,0.082981 -0.070259,0.105894 -0.026135,0.022294 -0.056683,0.033441 -0.091642,0.033441 -0.05838,0 -0.105897,-0.038395 -0.142554,-0.115184 -0.036317,-0.077408 -0.054476,-0.178039 -0.054476,-0.301893 0,-0.123853 0.018328,-0.224483 0.054986,-0.301893 0.036656,-0.077407 0.084004,-0.116111 0.142044,-0.116112 0.034959,1e-6 0.065677,0.011767 0.092151,0.035298 0.026474,0.022914 0.049724,0.057902 0.06975,0.104966 l 0,-0.121686 0.072804,0 0,0.683671 c 0.04955,-0.013624 0.08825,-0.054805 0.116079,-0.123544 0.02817,-0.069357 0.04226,-0.158841 0.04226,-0.268452 -10e-7,-0.066262 -0.0054,-0.128498 -0.01629,-0.186709 -0.01052,-0.058211 -0.02664,-0.112087 -0.04837,-0.161629 -0.0353,-0.081123 -0.07841,-0.14305 -0.129316,-0.18578 -0.050574,-0.043348 -0.1057274,-0.065022 -0.1654644,-0.065024 -0.041748,2e-6 -0.081799,0.010219 -0.120153,0.030654 -0.038354,0.019818 -0.073822,0.049543 -0.106406,0.089174 -0.053288,0.063167 -0.095035,0.146149 -0.125243,0.248946 -0.029869,0.10218 -0.044803,0.213029 -0.044803,0.332547 0,0.098464 0.00967,0.190734 0.02902,0.276812 0.019686,0.086079 0.048027,0.161939 0.085023,0.227581 0.035638,0.064404 0.076877,0.113326 0.123716,0.146766 0.046839,0.03406 0.096902,0.05109 0.150191,0.05109 0.043784,0 0.08672,-0.013624 0.128808,-0.040872 0.042427,-0.026628 0.08129,-0.065023 0.1165874,-0.115184 l 0.04582,0.103108 c -0.04243,0.060069 -0.08876,0.105895 -0.138989,0.137478 -0.049895,0.032201 -0.1006364,0.048302 -0.1522274,0.048303 -0.062792,-10e-7 -0.12202,-0.020436 -0.177683,-0.061308 -0.055664,-0.040252 -0.105218,-0.099083 -0.148663,-0.176491 -0.043445,-0.077408 -0.076538,-0.166892 -0.099278,-0.268452 -0.022741,-0.102179 -0.034112,-0.21179 -0.034111,-0.328831 -10e-7,-0.112706 0.01154,-0.220149 0.03462,-0.322329 0.02308,-0.102178 0.056003,-0.191972 0.098769,-0.269381 0.043784,-0.078646 0.094356,-0.138715 0.151718,-0.180207 0.05736,-0.042109 0.118115,-0.063164 0.182264,-0.063165 0.071957,1e-6 0.1386504,0.026939 0.2000854,0.080814 0.06177,0.053878 0.113532,0.130357 0.155281,0.229439 0.02546,0.060689 0.0448,0.126641 0.05804,0.197856 0.01358,0.071216 0.02036,0.144909 0.02036,0.221078 -2e-6,0.162868 -0.02698,0.291365 -0.08095,0.385494 -0.05397,0.094129 -0.128468,0.143051 -0.2235024,0.146766 l 0,-0.14305 m 0.8507384,-0.311182 c -10e-7,-0.123853 -0.01409,-0.219839 -0.04226,-0.28796 -0.02783,-0.068118 -0.06703,-0.102178 -0.117607,-0.102179 -0.05023,1e-6 -0.08943,0.034061 -0.117606,0.102179 -0.02783,0.068121 -0.04175,0.164107 -0.04175,0.28796 0,0.123234 0.01392,0.218911 0.04175,0.28703 0.02817,0.06812 0.06737,0.10218 0.117606,0.102179 0.05057,1e-6 0.08977,-0.034059 0.117607,-0.102179 0.02817,-0.068119 0.04226,-0.163796 0.04226,-0.28703 m 0.09368,0.403143 c -1e-6,0.17711 -0.02155,0.308704 -0.06466,0.394782 -0.04311,0.086698 -0.109122,0.130046 -0.198048,0.130047 -0.03292,-1e-6 -0.06398,-0.00464 -0.09317,-0.013934 -0.02919,-0.00867 -0.05753,-0.022294 -0.08502,-0.040872 l 0,-0.166273 c 0.02749,0.027248 0.05465,0.047374 0.08146,0.060379 0.02681,0.013004 0.05414,0.019506 0.08197,0.019507 0.06143,-1e-6 0.107424,-0.029416 0.137971,-0.088246 0.03055,-0.058211 0.04582,-0.146457 0.04582,-0.264737 l 0,-0.08453 c -0.01935,0.061308 -0.04412,0.107134 -0.07433,0.137478 -0.03021,0.030344 -0.06636,0.045516 -0.108443,0.045516 -0.06992,0 -0.126262,-0.048613 -0.169028,-0.145837 -0.04277,-0.097225 -0.06415,-0.226033 -0.06415,-0.386423 0,-0.161009 0.02138,-0.290126 0.06415,-0.387352 0.04277,-0.097224 0.09911,-0.145837 0.169028,-0.145838 0.04209,1e-6 0.07823,0.015173 0.108443,0.045517 0.03021,0.030345 0.05498,0.076171 0.07433,0.137477 l 0,-0.157913 0.09368,0 0,0.911252 m 0.636909,-0.711539 c 0.02342,-0.076788 0.05142,-0.13345 0.084,-0.169988 0.03258,-0.036536 0.07094,-0.054805 0.115061,-0.054806 0.0594,1e-6 0.105218,0.038087 0.137463,0.114256 0.03224,0.075551 0.04837,0.183303 0.04837,0.323257 l 0,0.627937 -0.09419,0 0,-0.622364 c -10e-7,-0.099701 -0.0097,-0.173703 -0.02902,-0.222007 -0.01935,-0.048302 -0.04888,-0.072453 -0.08859,-0.072454 -0.04854,1e-6 -0.08689,0.029416 -0.115061,0.088245 -0.02817,0.058832 -0.04226,0.139026 -0.04226,0.240585 l 0,0.587995 -0.09419,0 0,-0.622364 c 0,-0.10032 -0.0097,-0.174323 -0.02902,-0.222007 -0.01935,-0.048302 -0.04922,-0.072453 -0.0896,-0.072454 -0.04786,1e-6 -0.08587,0.029725 -0.114042,0.089174 -0.02817,0.058831 -0.04226,0.138717 -0.04226,0.239656 l 0,0.587995 -0.09419,0 0,-1.040369 0.09419,0 0,0.161628 c 0.02138,-0.063783 0.04701,-0.110847 0.07688,-0.141192 0.02987,-0.030344 0.06534,-0.045516 0.106406,-0.045517 0.04141,1e-6 0.07654,0.019199 0.105388,0.057592 0.02919,0.038396 0.05074,0.09413 0.06466,0.167202 m 0.831392,0.317685 c -0.07569,0 -0.128129,0.015791 -0.157318,0.047374 -0.02919,0.031583 -0.04378,0.085459 -0.04378,0.161628 0,0.060689 0.01086,0.108991 0.03258,0.144909 0.02206,0.035298 0.05193,0.052947 0.0896,0.052947 0.05193,0 0.09351,-0.03344 0.124734,-0.100321 0.03157,-0.0675 0.04735,-0.156984 0.04735,-0.268453 l 0,-0.038084 -0.09317,0 m 0.186847,-0.070597 0,0.593568 -0.09368,0 0,-0.157913 c -0.02138,0.063165 -0.04803,0.10992 -0.07993,0.140264 -0.03191,0.029725 -0.07094,0.044587 -0.117097,0.044587 -0.05838,0 -0.104879,-0.029725 -0.139499,-0.089175 -0.03428,-0.060068 -0.05142,-0.140263 -0.05142,-0.240585 0,-0.117041 0.02138,-0.205287 0.06415,-0.264737 0.0431,-0.059448 0.107254,-0.089173 0.192447,-0.089174 l 0.131353,0 0,-0.01672 c 0,-0.078646 -0.01426,-0.139335 -0.04277,-0.182065 -0.02817,-0.043347 -0.06788,-0.065022 -0.119134,-0.065023 -0.03258,1e-6 -0.06432,0.00712 -0.0952,0.021365 -0.03089,0.014244 -0.06059,0.035608 -0.0891,0.064094 l 0,-0.157913 c 0.03428,-0.024151 0.06754,-0.04211 0.09979,-0.053876 0.03224,-0.012385 0.06364,-0.018578 0.09419,-0.018579 0.08248,1e-6 0.144081,0.039016 0.184811,0.117042 0.04073,0.078028 0.06109,0.196309 0.06109,0.35484 m 0.193466,-0.446801 0.09368,0 0,1.040369 -0.09368,0 0,-1.040369 m 0,-0.405001 0.09368,0 0,0.216434 -0.09368,0 0,-0.216434 m 0.28918,0 0.09368,0 0,1.44537 -0.09368,0 0,-1.44537 m 0.302417,1.209429 0.107424,0 0,0.235941 -0.107424,0 0,-0.235941 m 0.729059,-0.764485 0,0.15977 c -0.02647,-0.026627 -0.05312,-0.046444 -0.07993,-0.059449 -0.02647,-0.013623 -0.05329,-0.020435 -0.08044,-0.020436 -0.06076,1e-6 -0.107934,0.035299 -0.141536,0.105895 -0.0336,0.069978 -0.0504,0.168441 -0.0504,0.29539 0,0.126951 0.0168,0.225724 0.0504,0.29632 0.0336,0.069977 0.08078,0.104966 0.141536,0.104966 0.02715,0 0.05397,-0.0065 0.08044,-0.019507 0.02681,-0.013624 0.05346,-0.03375 0.07993,-0.060379 l 0,0.157913 c -0.02614,0.022294 -0.05329,0.039014 -0.08146,0.050161 -0.02783,0.011146 -0.05753,0.01672 -0.0891,0.01672 -0.08587,0 -0.154094,-0.049231 -0.204666,-0.147695 -0.05057,-0.098463 -0.07586,-0.231296 -0.07586,-0.398499 0,-0.169678 0.02546,-0.30313 0.07637,-0.400356 0.05125,-0.097224 0.12134,-0.145837 0.210267,-0.145838 0.02885,1e-6 0.05702,0.00558 0.08451,0.016721 0.02749,0.010528 0.05414,0.026629 0.07993,0.048303 m 0.384895,0.079885 c -0.05023,1e-6 -0.08995,0.035918 -0.119134,0.107752 -0.02919,0.071217 -0.04378,0.169061 -0.04378,0.293533 -10e-7,0.124473 0.01442,0.222627 0.04328,0.294462 0.02919,0.071216 0.06907,0.106824 0.119643,0.106824 0.04989,0 0.08943,-0.035918 0.118625,-0.107753 0.02919,-0.071835 0.04378,-0.169679 0.04378,-0.293533 0,-0.123233 -0.01459,-0.220768 -0.04378,-0.292604 -0.02919,-0.072453 -0.06873,-0.10868 -0.118625,-0.108681 m 0,-0.144909 c 0.08146,1e-6 0.145438,0.048304 0.191938,0.144909 0.0465,0.096606 0.06975,0.230368 0.06975,0.401285 0,0.170299 -0.02325,0.304061 -0.06975,0.401286 -0.0465,0.096605 -0.11048,0.144908 -0.191938,0.144908 -0.0818,0 -0.145948,-0.048303 -0.192448,-0.144908 -0.04616,-0.097225 -0.06924,-0.230987 -0.06924,-0.401286 0,-0.170917 0.02308,-0.304679 0.06924,-0.401285 0.0465,-0.096605 0.110649,-0.144908 0.192448,-0.144909 m 0.860412,0.224794 c 0.02342,-0.076788 0.05142,-0.13345 0.084,-0.169988 0.03258,-0.036536 0.07094,-0.054805 0.115061,-0.054806 0.0594,1e-6 0.105217,0.038087 0.137462,0.114256 0.03224,0.075551 0.04837,0.183303 0.04837,0.323257 l 0,0.627937 -0.09419,0 0,-0.622364 c 0,-0.099701 -0.0097,-0.173703 -0.02902,-0.222007 -0.01935,-0.048302 -0.04888,-0.072453 -0.08859,-0.072454 -0.04854,1e-6 -0.08689,0.029416 -0.115061,0.088245 -0.02817,0.058832 -0.04226,0.139026 -0.04226,0.240585 l 0,0.587995 -0.09419,0 0,-0.622364 c -10e-7,-0.10032 -0.0097,-0.174323 -0.02902,-0.222007 -0.01935,-0.048302 -0.04922,-0.072453 -0.08961,-0.072454 -0.04786,1e-6 -0.08587,0.029725 -0.114043,0.089174 -0.02817,0.058831 -0.04226,0.138717 -0.04226,0.239656 l 0,0.587995 -0.09419,0 0,-1.040369 0.09419,0 0,0.161628 c 0.02138,-0.063783 0.04701,-0.110847 0.07688,-0.141192 0.02987,-0.030344 0.06534,-0.045516 0.106406,-0.045517 0.04141,1e-6 0.07654,0.019199 0.105388,0.057592 0.02919,0.038396 0.05074,0.09413 0.06466,0.167202"
         sodipodi:nodetypes="csssccccccssscccsssssssccsssssssccsssssssccssssssscccccccsccccsccccccccccsssccccsssccccccssssscccccccssssscccsssccssscccccccsssssssccsssssssccccsssssssssssssssccssssssssssssssscccsssssssccsssccsssccssssssscccccsssccccsssccccsssccccccsssccssssscccccccssssscccsssccssscccccccccccccccccccccccsssssssccsssssssccsssssssccsssssssccsssccccsssccccsssccccccsssc"
         stroke-opacity="1"
         font-family="'Bitstream Vera Sans'"
         fill="#d40000"
         stroke="none"
         font-style="normal"
         stroke-linejoin="miter"
         fill-opacity="1"
         font-weight="normal"
         stroke-linecap="butt"
         stroke-width="1"
         font-size="4" />
    </g>
  </g>
  <g
     id="g5425"
     transform="matrix(-0.45266352,0,0,0.45266352,57.08139,9.2622068)">
    <path
       d="m -25.540559,47.947513 c 6.49855,43.849053 12.88052,107.853237 12.32521,139.938487 -0.42253,24.413 -15.935,42.57961 -38.97485,42.42749 -23.24996,-0.1535 -41.74706,-13.08255 -42.71223,-40.42042 -1.094,-30.9867 64.39233,-100.478987 69.36187,-141.945557 z"
       id="path3851"
       inkscape:connector-curvature="0"
       sodipodi:nodetypes="csssc"
       stroke-opacity="0.743"
       fill="#315f6b"
       stroke="#2f3c65"
       stroke-linejoin="round"
       fill-opacity="0.78"
       stroke-linecap="round"
       stroke-width="1.797"
       stroke-miterlimit="4" />
    <path
       sodipodi:nodetypes="cssssscc"
       inkscape:connector-curvature="0"
       id="path3853"
       d="m -31.992299,101.07183 c 3.64545,7.27543 4.04955,36.93175 8.21913,43.20454 8.33915,12.54558 -0.75325,33.59258 -0.98291,46.86174 -0.34949,20.19246 -13.18013,35.2184 -32.23683,35.09258 -19.23049,-0.12697 -34.52978,-10.82083 -35.3281,-33.4325 -0.45243,-12.81485 6.45758,-25.05183 13.99449,-38.37234 3.76846,-6.66025 27.129,-43.65542 30.36897,-51.06511 4.44051,-6.581861 19.6293,-27.007891 15.96525,-2.28891 z"
       fill="url(#radialGradient5437)"
       stroke="none"
       fill-opacity="1" />
    <path
       sodipodi:nodetypes="ccc"
       inkscape:connector-curvature="0"
       id="path3857"
       d="m -44.522969,125.23281 c 45.33022043,44.01153 35.5289004,94.13687 -1.76419,102.71447 24.97962,-26.93177 21.83857,-74.85044 1.76419,-102.71447 z"
       fill="url(#radialGradient5439)"
       stroke="none"
       fill-opacity="1" />
    <path
       sodipodi:nodetypes="csssc"
       inkscape:connector-curvature="0"
       id="path3859"
       d="m -29.792039,51.895318 c 6.49855,43.849053 15.30994,102.083372 14.75463,134.168622 -0.42253,24.413 -15.935,42.57961 -38.97485,42.42749 -23.24997,-0.1535 -46.367931,-13.31089 -42.71223,-40.42042 4.63279,-34.3554 69.9247,-99.39253 66.93245,-136.175692 z"
       fill="url(#radialGradient5441)"
       stroke="none"
       fill-opacity="1" />
    <path
       sodipodi:nodetypes="ccccc"
       inkscape:connector-curvature="0"
       id="path4194"
       d="m -54.257959,127.86721 c -9.544,8.29092 -14.66556,18.05598 -19.43535,27.93831 5.53589,-1.76562 10.11151,1.27005 14.88019,3.34045 3.10377,-10.40392 8.43672,-20.06478 16.39858,-28.84934 z"
       fill="url(#radialGradient5443)"
       stroke="none"
       fill-opacity="1" />
    <path
       d="m -74.300659,158.53862 c -6.43747,9.32643 -14.52905,21.94807 -10.93238,32.79715 5.53588,-1.76562 11.62989,-0.55201 16.39857,1.51839 -3.57713,-14.04805 -0.0662,-22.79788 7.89561,-31.58245 -4.23331,-1.13165 -7.65827,-3.07166 -13.3618,-2.73309 z"
       id="path4196"
       inkscape:connector-curvature="0"
       sodipodi:nodetypes="ccccc"
       fill="url(#radialGradient5445)"
       stroke="none"
       fill-opacity="1" />
    <path
       sodipodi:nodetypes="csc"
       inkscape:connector-curvature="0"
       id="path4230"
       d="m -34.518929,77.153092 c -17.37505,37.243958 -49.36299,70.926848 -61.03914,106.287068 -3.53961,10.71938 -0.88895,21.68148 9.71767,31.88612"
       stroke-dasharray="none"
       stroke-opacity="0.133"
       fill="none"
       stroke="url(#linearGradient5447)"
       stroke-linejoin="miter"
       stroke-linecap="round"
       stroke-width="3.5"
       stroke-miterlimit="4" />
    <path
       d="m -34.518929,77.153092 c -17.37505,37.243958 -49.36299,70.926848 -61.03914,106.287068 -3.53961,10.71938 -0.88895,21.68148 9.71767,31.88612"
       id="path4244"
       inkscape:connector-curvature="0"
       sodipodi:nodetypes="csc"
       stroke-dasharray="none"
       stroke-opacity="0.133"
       fill="none"
       stroke="url(#linearGradient5447)"
       stroke-linejoin="miter"
       stroke-linecap="round"
       stroke-width="2.6"
       stroke-miterlimit="4" />
    <path
       sodipodi:nodetypes="csc"
       inkscape:connector-curvature="0"
       id="path4246"
       d="m -34.518929,77.153092 c -17.37505,37.243958 -49.36299,70.926848 -61.03914,106.287068 -3.53961,10.71938 -0.88895,21.68148 9.71767,31.88612"
       stroke-dasharray="none"
       stroke-opacity="0.133"
       fill="none"
       stroke="url(#linearGradient5447)"
       stroke-linejoin="miter"
       stroke-linecap="round"
       stroke-width="1.5"
       stroke-miterlimit="4" />
    <path
       d="m -34.518929,77.153092 c -17.37505,37.243958 -49.36299,70.926848 -61.03914,106.287068 -3.53961,10.71938 -0.88895,21.68148 9.71767,31.88612"
       id="path4248"
       inkscape:connector-curvature="0"
       sodipodi:nodetypes="csc"
       stroke-dasharray="none"
       stroke-opacity="0.133"
       fill="none"
       stroke="url(#linearGradient5447)"
       stroke-linejoin="miter"
       stroke-linecap="round"
       stroke-width="0.7"
       stroke-miterlimit="4" />
  </g>
  <g
     transform="matrix(-0.78510837,0,0,0.78510837,139.66153,57.601091)"
     id="g5455">
    <path
       sodipodi:nodetypes="csssc"
       inkscape:connector-curvature="0"
       id="path5457"
       d="m -25.540559,47.947513 c 6.49855,43.849053 12.88052,107.853237 12.32521,139.938487 -0.42253,24.413 -15.935,42.57961 -38.97485,42.42749 -23.24996,-0.1535 -41.74706,-13.08255 -42.71223,-40.42042 -1.094,-30.9867 64.39233,-100.478987 69.36187,-141.945557 z"
       stroke-opacity="0.743"
       fill="#315f6b"
       stroke="#2f3c65"
       stroke-linejoin="round"
       fill-opacity="0.78"
       stroke-linecap="round"
       stroke-width="1.797"
       stroke-miterlimit="4" />
    <path
       d="m -31.992299,101.07183 c 3.64545,7.27543 4.04955,36.93175 8.21913,43.20454 8.33915,12.54558 -0.75325,33.59258 -0.98291,46.86174 -0.34949,20.19246 -13.18013,35.2184 -32.23683,35.09258 -19.23049,-0.12697 -34.52978,-10.82083 -35.3281,-33.4325 -0.45243,-12.81485 6.45758,-25.05183 13.99449,-38.37234 3.76846,-6.66025 27.129,-43.65542 30.36897,-51.06511 4.44051,-6.581861 19.6293,-27.007891 15.96525,-2.28891 z"
       id="path5459"
       inkscape:connector-curvature="0"
       sodipodi:nodetypes="cssssscc"
       fill="url(#radialGradient5437)"
       stroke="none"
       fill-opacity="1" />
    <path
       d="m -44.522969,125.23281 c 45.33022043,44.01153 35.5289004,94.13687 -1.76419,102.71447 24.97962,-26.93177 21.83857,-74.85044 1.76419,-102.71447 z"
       id="path5461"
       inkscape:connector-curvature="0"
       sodipodi:nodetypes="ccc"
       fill="url(#radialGradient5439)"
       stroke="none"
       fill-opacity="1" />
    <path
       d="m -29.792039,51.895318 c 6.49855,43.849053 15.30994,102.083372 14.75463,134.168622 -0.42253,24.413 -15.935,42.57961 -38.97485,42.42749 -23.24997,-0.1535 -46.367931,-13.31089 -42.71223,-40.42042 4.63279,-34.3554 69.9247,-99.39253 66.93245,-136.175692 z"
       id="path5463"
       inkscape:connector-curvature="0"
       sodipodi:nodetypes="csssc"
       fill="url(#radialGradient5441)"
       stroke="none"
       fill-opacity="1" />
    <path
       d="m -54.257959,127.86721 c -9.544,8.29092 -14.66556,18.05598 -19.43535,27.93831 5.53589,-1.76562 10.11151,1.27005 14.88019,3.34045 3.10377,-10.40392 8.43672,-20.06478 16.39858,-28.84934 z"
       id="path5465"
       inkscape:connector-curvature="0"
       sodipodi:nodetypes="ccccc"
       fill="url(#radialGradient5443)"
       stroke="none"
       fill-opacity="1" />
    <path
       sodipodi:nodetypes="ccccc"
       inkscape:connector-curvature="0"
       id="path5467"
       d="m -74.300659,158.53862 c -6.43747,9.32643 -14.52905,21.94807 -10.93238,32.79715 5.53588,-1.76562 11.62989,-0.55201 16.39857,1.51839 -3.57713,-14.04805 -0.0662,-22.79788 7.89561,-31.58245 -4.23331,-1.13165 -7.65827,-3.07166 -13.3618,-2.73309 z"
       fill="url(#radialGradient5445)"
       stroke="none"
       fill-opacity="1" />
    <path
       d="m -34.518929,77.153092 c -17.37505,37.243958 -49.36299,70.926848 -61.03914,106.287068 -3.53961,10.71938 -0.88895,21.68148 9.71767,31.88612"
       id="path5469"
       inkscape:connector-curvature="0"
       sodipodi:nodetypes="csc"
       stroke-dasharray="none"
       stroke-opacity="0.133"
       fill="none"
       stroke="url(#linearGradient5447)"
       stroke-linejoin="miter"
       stroke-linecap="round"
       stroke-width="3.5"
       stroke-miterlimit="4" />
    <path
       sodipodi:nodetypes="csc"
       inkscape:connector-curvature="0"
       id="path5471"
       d="m -34.518929,77.153092 c -17.37505,37.243958 -49.36299,70.926848 -61.03914,106.287068 -3.53961,10.71938 -0.88895,21.68148 9.71767,31.88612"
       stroke-dasharray="none"
       stroke-opacity="0.133"
       fill="none"
       stroke="url(#linearGradient5447)"
       stroke-linejoin="miter"
       stroke-linecap="round"
       stroke-width="2.6"
       stroke-miterlimit="4" />
    <path
       d="m -34.518929,77.153092 c -17.37505,37.243958 -49.36299,70.926848 -61.03914,106.287068 -3.53961,10.71938 -0.88895,21.68148 9.71767,31.88612"
       id="path5473"
       inkscape:connector-curvature="0"
       sodipodi:nodetypes="csc"
       stroke-dasharray="none"
       stroke-opacity="0.133"
       fill="none"
       stroke="url(#linearGradient5447)"
       stroke-linejoin="miter"
       stroke-linecap="round"
       stroke-width="1.5"
       stroke-miterlimit="4" />
    <path
       sodipodi:nodetypes="csc"
       inkscape:connector-curvature="0"
       id="path5475"
       d="m -34.518929,77.153092 c -17.37505,37.243958 -49.36299,70.926848 -61.03914,106.287068 -3.53961,10.71938 -0.88895,21.68148 9.71767,31.88612"
       stroke-dasharray="none"
       stroke-opacity="0.133"
       fill="none"
       stroke="url(#linearGradient5447)"
       stroke-linejoin="miter"
       stroke-linecap="round"
       stroke-width="0.7"
       stroke-miterlimit="4" />
  </g>
  <g
     transform="matrix(-0.45266352,0,0,0.45266352,78.01985,118.17334)"
     id="g5495">
    <path
       sodipodi:nodetypes="csssc"
       inkscape:connector-curvature="0"
       id="path5497"
       d="m -25.540559,47.947513 c 6.49855,43.849053 12.88052,107.853237 12.32521,139.938487 -0.42253,24.413 -15.935,42.57961 -38.97485,42.42749 -23.24996,-0.1535 -41.74706,-13.08255 -42.71223,-40.42042 -1.094,-30.9867 64.39233,-100.478987 69.36187,-141.945557 z"
       stroke-opacity="0.743"
       fill="#315f6b"
       stroke="#2f3c65"
       stroke-linejoin="round"
       fill-opacity="0.78"
       stroke-linecap="round"
       stroke-width="1.797"
       stroke-miterlimit="4" />
    <path
       d="m -31.992299,101.07183 c 3.64545,7.27543 4.04955,36.93175 8.21913,43.20454 8.33915,12.54558 -0.75325,33.59258 -0.98291,46.86174 -0.34949,20.19246 -13.18013,35.2184 -32.23683,35.09258 -19.23049,-0.12697 -34.52978,-10.82083 -35.3281,-33.4325 -0.45243,-12.81485 6.45758,-25.05183 13.99449,-38.37234 3.76846,-6.66025 27.129,-43.65542 30.36897,-51.06511 4.44051,-6.581861 19.6293,-27.007891 15.96525,-2.28891 z"
       id="path5499"
       inkscape:connector-curvature="0"
       sodipodi:nodetypes="cssssscc"
       fill="url(#radialGradient5437)"
       stroke="none"
       fill-opacity="1" />
    <path
       d="m -44.522969,125.23281 c 45.33022043,44.01153 35.5289004,94.13687 -1.76419,102.71447 24.97962,-26.93177 21.83857,-74.85044 1.76419,-102.71447 z"
       id="path5501"
       inkscape:connector-curvature="0"
       sodipodi:nodetypes="ccc"
       fill="url(#radialGradient5439)"
       stroke="none"
       fill-opacity="1" />
    <path
       d="m -29.792039,51.895318 c 6.49855,43.849053 15.30994,102.083372 14.75463,134.168622 -0.42253,24.413 -15.935,42.57961 -38.97485,42.42749 -23.24997,-0.1535 -46.367931,-13.31089 -42.71223,-40.42042 4.63279,-34.3554 69.9247,-99.39253 66.93245,-136.175692 z"
       id="path5503"
       inkscape:connector-curvature="0"
       sodipodi:nodetypes="csssc"
       fill="url(#radialGradient5441)"
       stroke="none"
       fill-opacity="1" />
    <path
       d="m -54.257959,127.86721 c -9.544,8.29092 -14.66556,18.05598 -19.43535,27.93831 5.53589,-1.76562 10.11151,1.27005 14.88019,3.34045 3.10377,-10.40392 8.43672,-20.06478 16.39858,-28.84934 z"
       id="path5505"
       inkscape:connector-curvature="0"
       sodipodi:nodetypes="ccccc"
       fill="url(#radialGradient5443)"
       stroke="none"
       fill-opacity="1" />
    <path
       sodipodi:nodetypes="ccccc"
       inkscape:connector-curvature="0"
       id="path5507"
       d="m -74.300659,158.53862 c -6.43747,9.32643 -14.52905,21.94807 -10.93238,32.79715 5.53588,-1.76562 11.62989,-0.55201 16.39857,1.51839 -3.57713,-14.04805 -0.0662,-22.79788 7.89561,-31.58245 -4.23331,-1.13165 -7.65827,-3.07166 -13.3618,-2.73309 z"
       fill="url(#radialGradient5445)"
       stroke="none"
       fill-opacity="1" />
    <path
       d="m -34.518929,77.153092 c -17.37505,37.243958 -49.36299,70.926848 -61.03914,106.287068 -3.53961,10.71938 -0.88895,21.68148 9.71767,31.88612"
       id="path5509"
       inkscape:connector-curvature="0"
       sodipodi:nodetypes="csc"
       stroke-dasharray="none"
       stroke-opacity="0.133"
       fill="none"
       stroke="url(#linearGradient5447)"
       stroke-linejoin="miter"
       stroke-linecap="round"
       stroke-width="3.5"
       stroke-miterlimit="4" />
    <path
       sodipodi:nodetypes="csc"
       inkscape:connector-curvature="0"
       id="path5511"
       d="m -34.518929,77.153092 c -17.37505,37.243958 -49.36299,70.926848 -61.03914,106.287068 -3.53961,10.71938 -0.88895,21.68148 9.71767,31.88612"
       stroke-dasharray="none"
       stroke-opacity="0.133"
       fill="none"
       stroke="url(#linearGradient5447)"
       stroke-linejoin="miter"
       stroke-linecap="round"
       stroke-width="2.6"
       stroke-miterlimit="4" />
    <path
       d="m -34.518929,77.153092 c -17.37505,37.243958 -49.36299,70.926848 -61.03914,106.287068 -3.53961,10.71938 -0.88895,21.68148 9.71767,31.88612"
       id="path5513"
       inkscape:connector-curvature="0"
       sodipodi:nodetypes="csc"
       stroke-dasharray="none"
       stroke-opacity="0.133"
       fill="none"
       stroke="url(#linearGradient5447)"
       stroke-linejoin="miter"
       stroke-linecap="round"
       stroke-width="1.5"
       stroke-miterlimit="4" />
    <path
       sodipodi:nodetypes="csc"
       inkscape:connector-curvature="0"
       id="path5515"
       d="m -34.518929,77.153092 c -17.37505,37.243958 -49.36299,70.926848 -61.03914,106.287068 -3.53961,10.71938 -0.88895,21.68148 9.71767,31.88612"
       stroke-dasharray="none"
       stroke-opacity="0.133"
       fill="none"
       stroke="url(#linearGradient5447)"
       stroke-linejoin="miter"
       stroke-linecap="round"
       stroke-width="0.7"
       stroke-miterlimit="4" />
  </g>
</svg>
