<?xml version="1.0" encoding="UTF-8" standalone="no"?>
<!-- Created with Inkscape (http://www.inkscape.org/) -->

<svg
   xmlns:dc="http://purl.org/dc/elements/1.1/"
   xmlns:cc="http://creativecommons.org/ns#"
   xmlns:rdf="http://www.w3.org/1999/02/22-rdf-syntax-ns#"
   xmlns:svg="http://www.w3.org/2000/svg"
   xmlns="http://www.w3.org/2000/svg"
   xmlns:xlink="http://www.w3.org/1999/xlink"
   xmlns:sodipodi="http://sodipodi.sourceforge.net/DTD/sodipodi-0.dtd"
   xmlns:inkscape="http://www.inkscape.org/namespaces/inkscape"
   width="256"
   height="256"
   id="svg1"
   sodipodi:version="0.32"
   inkscape:version="0.92.5 (2060ec1f9f, 2020-04-08)"
   sodipodi:docname="application-x-gnome-theme-package.svg"
   inkscape:export-filename="/home/damu/files/code/linux/app.png"
   inkscape:export-xdpi="180.00000"
   inkscape:export-ydpi="180.00000"
   inkscape:output_extension="org.inkscape.output.svg.inkscape"
   version="1.1">
  <defs
     id="defs3">
    <linearGradient
       id="linearGradient4179"
       inkscape:collect="always">
      <stop
         stop-opacity="1"
         stop-color="#ffffff"
         id="stop4181"
         style="stop-color:#cecece;stop-opacity:1" />
      <stop
         stop-opacity="0"
         stop-color="#ffffff"
         id="stop4183"
         offset="1"
         style="stop-color:#7b7b7b;stop-opacity:0" />
    </linearGradient>
    <linearGradient
       inkscape:collect="always"
       id="linearGradient4358">
      <stop
         id="stop4360"
         stop-color="#ffffff"
         stop-opacity="1" />
      <stop
         offset="1"
         id="stop4362"
         stop-color="#ffffff"
         stop-opacity="0" />
    </linearGradient>
    <linearGradient
       id="linearGradient7417">
      <stop
         id="stop7419"
         stop-color="#ffffff"
         stop-opacity="0.462" />
      <stop
         id="stop7421"
         offset="1"
         stop-color="#ffffff"
         stop-opacity="0"
         style="stop-color:#a2a2a2;stop-opacity:0" />
    </linearGradient>
    <linearGradient
       id="linearGradient10083">
      <stop
         id="stop10085"
         stop-color="#000000"
         stop-opacity="1" />
      <stop
         offset="1"
         id="stop10087"
         stop-color="#000000"
         stop-opacity="0.429" />
    </linearGradient>
    <radialGradient
       inkscape:collect="always"
       xlink:href="#linearGradient4179"
       id="radialGradient3946"
       gradientUnits="userSpaceOnUse"
       gradientTransform="matrix(-27.770436,-2.2730268,-1.3332859,17.584066,774.53181,-1505.133)"
       spreadMethod="pad"
       cx="49.698006"
       cy="64.411728"
       fx="49.698006"
       fy="64.411728"
       r="3.804" />
    <linearGradient
       inkscape:collect="always"
       xlink:href="#linearGradient10083"
       id="linearGradient3950"
       gradientUnits="userSpaceOnUse"
       gradientTransform="matrix(-23.11545,-1.523683,-1.129166,18.15132,536.1491,-1578.35)"
       spreadMethod="reflect"
       x1="50.35"
       y1="60.25"
       x2="50.37"
       y2="64.44" />
    <linearGradient
       inkscape:collect="always"
       xlink:href="#linearGradient4358"
       id="linearGradient3967"
       gradientUnits="userSpaceOnUse"
       x1="58.747166"
       y1="50.031754"
       x2="58.465782"
       y2="53.324448" />
    <radialGradient
       inkscape:collect="always"
       xlink:href="#linearGradient7417"
       id="radialGradient3977"
       cx="205.54"
       cy="157.6"
       fx="205.54"
       fy="157.6"
       r="54.31"
       gradientTransform="matrix(1,0,0,0.61852862,0,60.118129)"
       gradientUnits="userSpaceOnUse" />
    <filter
       inkscape:collect="always"
       id="filter4400"
       x="-0.029583327"
       width="1.0591667"
       y="-0.045971238"
       height="1.0919425"
       color-interpolation-filters="sRGB">
      <feGaussianBlur
         inkscape:collect="always"
         id="feGaussianBlur4402"
         stdDeviation="2.9571" />
    </filter>
    <filter
       inkscape:collect="always"
       style="color-interpolation-filters:sRGB"
       id="filter4185"
       x="-0.020846785"
       width="1.0416936"
       y="-0.0084247674"
       height="1.0168495">
      <feGaussianBlur
         inkscape:collect="always"
         stdDeviation="0.29060589"
         id="feGaussianBlur4187" />
    </filter>
    <filter
       inkscape:collect="always"
       style="color-interpolation-filters:sRGB"
       id="filter4206"
       x="-0.062540354"
       width="1.1250807"
       y="-0.025274302"
       height="1.0505486">
      <feGaussianBlur
         inkscape:collect="always"
         stdDeviation="0.87181768"
         id="feGaussianBlur4208" />
    </filter>
    <filter
       inkscape:collect="always"
       style="color-interpolation-filters:sRGB"
       id="filter866"
       x="-0.031819726"
       width="1.0636395"
       y="-0.041561556"
       height="1.0831231">
      <feGaussianBlur
         inkscape:collect="always"
         stdDeviation="0.07534751"
         id="feGaussianBlur868" />
    </filter>
  </defs>
  <sodipodi:namedview
     id="base"
     pagecolor="#e5e5ea"
     bordercolor="#666666"
     borderopacity="1.0"
     inkscape:pageopacity="0.0000000"
     inkscape:pageshadow="2"
     inkscape:zoom="3.5351562"
     inkscape:cx="128"
     inkscape:cy="128"
     inkscape:current-layer="g1914"
     inkscape:window-width="1920"
     inkscape:window-height="1056"
     inkscape:window-x="0"
     inkscape:window-y="0"
     inkscape:document-units="px"
     showgrid="false"
     width="256"
     height="256"
     inkscape:window-maximized="1" />
  <metadata
     id="metadata4">
    <rdf:RDF>
      <cc:Work>
        <dc:format>image/svg+xml</dc:format>
        <dc:type
           rdf:resource="http://purl.org/dc/dcmitype/StillImage" />
        <dc:title>KMediaFactory Icon</dc:title>
        <dc:creator>
          <cc:Agent>
            <dc:title>Petri Damstén</dc:title>
          </cc:Agent>
        </dc:creator>
        <cc:license
           rdf:resource="http://creativecommons.org/licenses/GPL/2.0/" />
      </cc:Work>
      <cc:License
         rdf:about="http://creativecommons.org/licenses/GPL/2.0/">
        <cc:permits
           rdf:resource="http://web.resource.org/cc/Reproduction" />
        <cc:permits
           rdf:resource="http://web.resource.org/cc/Distribution" />
        <cc:requires
           rdf:resource="http://web.resource.org/cc/Notice" />
        <cc:permits
           rdf:resource="http://web.resource.org/cc/DerivativeWorks" />
        <cc:requires
           rdf:resource="http://web.resource.org/cc/ShareAlike" />
        <cc:requires
           rdf:resource="http://web.resource.org/cc/SourceCode" />
      </cc:License>
    </rdf:RDF>
  </metadata>
  <g
     inkscape:label="Layer 1"
     inkscape:groupmode="layer"
     id="layer1">
    <g
       id="g1914"
       inkscape:label="Layer 1"
       inkscape:groupmode="layer"
       transform="translate(817.0116,686.402)">
      <ellipse
         id="path1980"
         cx="-689.73999"
         cy="-539"
         rx="119.95"
         ry="77.190002"
         transform="matrix(0.9421967,0,0,0.9421967,-40.756959,-27.308508)"
         style="fill:#000000;fill-opacity:0.769;stroke:none;filter:url(#filter4400)" />
      <path
         sodipodi:nodetypes="czczc"
         id="path4394"
         d="m -587.24412,-531.07291 c -19.1259,42.44827 -72.82916,56.32925 -107.30201,54.05066 -34.47285,-2.2786 -90.80165,-22.73871 -99.53511,-67.72223 4.89829,-61.79419 54.99274,-98.31679 109.63968,-94.70839 53.95128,3.56254 102.10521,45.20124 97.19744,108.37996 z"
         inkscape:connector-curvature="0"
         fill="#000000"
         fill-rule="evenodd"
         stroke="none"
         fill-opacity="1" />
      <path
         inkscape:connector-curvature="0"
         d="m -587.24412,-531.07291 c -19.1259,42.44827 -72.82916,56.32925 -107.30201,54.05066 -34.47285,-2.2786 -90.80165,-22.73871 -99.53511,-67.72223 4.89829,-61.79419 54.99274,-98.31679 109.63968,-94.70839 53.95128,3.56254 102.10521,45.20124 97.19744,108.37996 z"
         id="path9315"
         sodipodi:nodetypes="czczc"
         fill="url(#linearGradient3950)"
         fill-rule="evenodd"
         stroke="none"
         fill-opacity="1" />
      <path
         inkscape:connector-curvature="0"
         d="m -592.45326,-527.22568 c -18.07156,39.75887 -68.87506,52.73139 -101.49297,50.57547 -32.61791,-2.15594 -85.92539,-21.35983 -94.21449,-63.51104 4.5989,-57.89311 51.97481,-92.08119 103.68125,-88.66702 51.04825,3.37077 96.63324,42.41228 92.02621,101.60259 z"
         id="path11615"
         sodipodi:nodetypes="czczc"
         fill="url(#radialGradient3946)"
         fill-rule="evenodd"
         stroke="none"
         fill-opacity="1"
         style="fill:url(#radialGradient3946)" />
      <path
         sodipodi:type="arc"
         id="path3969"
         sodipodi:cx="205.53989"
         sodipodi:cy="157.59538"
         sodipodi:rx="54.307514"
         sodipodi:ry="33.590752"
         d="m 259.8474,157.59538 a 54.307514,33.590752 0 0 1 -54.30751,33.59075 54.307514,33.590752 0 0 1 -54.30752,-33.59075 54.307514,33.590752 0 0 1 54.30752,-33.59075 54.307514,33.590752 0 0 1 54.30751,33.59075 z"
         transform="matrix(0.84581498,0,0,0.84581498,-807.89961,-669.35402)"
         fill="url(#radialGradient3977)"
         stroke="none"
         fill-opacity="1" />
      <path
         transform="matrix(-20.66486,-1.362149,-1.263071,20.30383,589.07825,-1576.6188)"
         style="opacity:0.73699999;fill:url(#linearGradient3967);fill-opacity:1;fill-rule:nonzero;stroke:none;filter:url(#filter866)"
         d="m 61.301811,52.335487 a 2.8445923,2.1713161 0 0 1 -2.844593,2.171317 2.8445923,2.1713161 0 0 1 -2.844592,-2.171317 2.8445923,2.1713161 0 0 1 2.844592,-2.171316 2.8445923,2.1713161 0 0 1 2.844593,2.171316 z"
         id="path10089"
         inkscape:connector-curvature="0" />
      <g
         font-size="7.5"
         font-variant="normal"
         letter-spacing="0"
         font-stretch="normal"
         font-weight="bold"
         line-height="125%"
         word-spacing="0"
         font-style="normal"
         transform="translate(-753.3057,-728.31334)"
         id="text4330"
         stroke-opacity="1"
         font-family="STIX"
         fill="#000000"
         stroke="none"
         stroke-linejoin="miter"
         fill-opacity="1"
         stroke-linecap="butt"
         stroke-width="1">
        <path
           inkscape:connector-curvature="0"
           id="path4335"
           d="m -56.13327,39.467617 0,-0.1875 c -0.3075,0 -0.4425,-0.165 -0.825,-1.0725 l -1.665,-3.915 -0.21,0 -1.6575,4.0875 c -0.285,0.705 -0.3975,0.84 -0.7425,0.9 l 0,0.1875 1.515,0 0,-0.1875 c -0.4425,-0.03 -0.6075,-0.1125 -0.6075,-0.3075 0,-0.18 0.1425,-0.495 0.2325,-0.7275 l 0.0975,-0.255 1.6875,0 c 0.255,0.5925 0.345,0.855 0.345,1.02 0,0.165 -0.0975,0.225 -0.345,0.2475 l -0.24,0.0225 0,0.1875 2.415,0 z m -2.2875,-1.77 -1.4625,0 0.705,-1.8225 0.7575,1.8225 z" />
        <path
           inkscape:connector-curvature="0"
           id="path4337"
           d="m -55.760848,34.397617 0,0.1875 c 0.525,0.045 0.63,0.15 0.63,0.735 l 0,3.2025 c 0,0.3825 -0.045,0.5925 -0.2925,0.69 -0.0825,0.0375 -0.195,0.0525 -0.3375,0.0675 l 0,0.1875 2.4975,0 0,-0.1875 c -0.5925,-0.075 -0.6525,-0.1425 -0.6525,-0.645 l 0,-1.44 c 0.99,-0.0075 1.245,-0.03 1.5675,-0.15 0.6225,-0.2325 0.9675,-0.69 0.9675,-1.29 0,-0.915 -0.765,-1.3575 -2.0175,-1.3575 l -2.3625,0 z m 1.845,0.525 c 0,-0.1725 0.1275,-0.2625 0.375,-0.2625 0.6225,0 0.87,0.345 0.87,1.1775 0,0.8325 -0.3075,1.0875 -1.245,1.095 l 0,-2.01 z" />
      </g>
      <g
         id="g4193"
         style="fill:#e7e7e7;fill-opacity:0.12999998;filter:url(#filter4206)"
         transform="translate(-9.44801,10.08565)">
        <path
           style="fill:#e7e7e7;fill-opacity:0.12999998;stroke:none;filter:url(#filter4185)"
           sodipodi:nodetypes="ccccc"
           inkscape:connector-curvature="0"
           id="rect3979"
           d="m -754.2479,-609.56155 c 0.17685,6.1573 2.46163,8.73363 4.80797,10.55194 -17.30185,18.34949 -21.86041,46.75738 -7.58727,72.23422 -10.31751,-3.21134 -20.0522,-9.84526 -25.65376,-19.34453 -1.92258,-26.97626 9.15888,-48.19973 28.43306,-63.44163 z" />
        <path
           d="m -755.8352,-606.54568 c 0.17685,6.1573 1.66798,6.51141 4.01432,8.32972 -17.30185,18.34949 -23.13025,42.6304 -8.85711,68.10724 -10.31751,-3.21134 -14.49665,-8.25796 -20.09821,-17.75723 -1.92258,-26.97626 5.66682,-43.43783 24.941,-58.67973 z"
           id="path4189"
           inkscape:connector-curvature="0"
           sodipodi:nodetypes="ccccc"
           style="fill:#e7e7e7;fill-opacity:0.12999998;stroke:none;filter:url(#filter4185)" />
        <path
           style="fill:#e7e7e7;fill-opacity:0.12999998;stroke:none;filter:url(#filter4185)"
           sodipodi:nodetypes="ccccc"
           inkscape:connector-curvature="0"
           id="path4191"
           d="m -757.58123,-602.89489 c 0.45042,2.75782 1.49009,4.67557 3.06194,5.63131 -16.22638,17.9193 -20.73304,37.63873 -9.42177,64.30032 -8.09529,-5.59229 -9.17009,-7.78437 -14.77165,-17.28364 -0.56458,-26.07093 3.03635,-36.62006 21.13148,-52.64799 z" />
      </g>
    </g>
  </g>
</svg>
