<?xml version="1.0" encoding="UTF-8" standalone="no"?>
<svg
   xmlns:dc="http://purl.org/dc/elements/1.1/"
   xmlns:cc="http://creativecommons.org/ns#"
   xmlns:rdf="http://www.w3.org/1999/02/22-rdf-syntax-ns#"
   xmlns:svg="http://www.w3.org/2000/svg"
   xmlns="http://www.w3.org/2000/svg"
   xmlns:xlink="http://www.w3.org/1999/xlink"
   xmlns:sodipodi="http://sodipodi.sourceforge.net/DTD/sodipodi-0.dtd"
   xmlns:inkscape="http://www.inkscape.org/namespaces/inkscape"
   width="255"
   height="255"
   viewBox="0 0 67.468749 67.468749"
   version="1.1"
   id="svg8"
   inkscape:version="1.0 (4035a4f, 2020-05-01)"
   sodipodi:docname="audio-x-generic.svg">
  <defs
     id="defs2">
    <clipPath
       clipPathUnits="userSpaceOnUse"
       id="clipPath2059">
      <path
         d="m -10.099732,231.68531 c 3.5587363,2.50616 4.8319716,-0.58528 2.9651647,-3.064 -3.1818907,-4.22486 -6.4443207,-9.83985 -12.3548527,-15.91305 -2.594516,-2.66865 -11.860659,-7.80827 -11.860659,-7.80827 0,0 -0.115438,-2.18844 -0.09884,-3.064 0.01106,-0.582 -0.565687,-0.56369 -0.889553,-0.29652 -0.782426,0.64546 -2.47097,2.56981 -2.47097,2.56981 l -1.68026,-0.0988 -1.087226,-1.58142 c -0.296516,-0.41055 -0.636056,-0.34641 -0.88955,0 -0.545383,1.84962 -0.878698,3.8848 -3.459359,3.95355 l 4.447747,3.95356 c 7.76561,1.55335 15.578734,5.58545 20.261957,14.33163 0,0 4.526451,5.19364 7.116396,7.01755 z"
         id="path2061"
         sodipodi:nodetypes="csscsscccccccs"
         inkscape:connector-curvature="0"
         stroke-dasharray="none"
         stroke-opacity="1"
         fill="#ffffff"
         fill-rule="evenodd"
         stroke="none"
         stroke-linejoin="miter"
         fill-opacity="1"
         stroke-linecap="butt"
         stroke-width="0.048"
         stroke-miterlimit="4" />
    </clipPath>
    <clipPath
       id="clipPath2059-5"
       clipPathUnits="userSpaceOnUse">
      <path
         stroke-miterlimit="4"
         stroke-width="0.048"
         stroke-linecap="butt"
         fill-opacity="1"
         stroke-linejoin="miter"
         stroke="none"
         fill-rule="evenodd"
         fill="#ffffff"
         stroke-opacity="1"
         stroke-dasharray="none"
         inkscape:connector-curvature="0"
         sodipodi:nodetypes="csscsscccccccs"
         id="path2061-3"
         d="m -10.099732,231.68531 c 3.5587363,2.50616 4.8319716,-0.58528 2.9651647,-3.064 -3.1818907,-4.22486 -6.4443207,-9.83985 -12.3548527,-15.91305 -2.594516,-2.66865 -11.860659,-7.80827 -11.860659,-7.80827 0,0 -0.115438,-2.18844 -0.09884,-3.064 0.01106,-0.582 -0.565687,-0.56369 -0.889553,-0.29652 -0.782426,0.64546 -2.47097,2.56981 -2.47097,2.56981 l -1.68026,-0.0988 -1.087226,-1.58142 c -0.296516,-0.41055 -0.636056,-0.34641 -0.88955,0 -0.545383,1.84962 -0.878698,3.8848 -3.459359,3.95355 l 4.447747,3.95356 c 7.76561,1.55335 15.578734,5.58545 20.261957,14.33163 0,0 4.526451,5.19364 7.116396,7.01755 z" />
    </clipPath>
    <clipPath
       id="clipPath">
      <path
         fill-opacity="0.95"
         stroke="none"
         fill="#1b1b1b"
         sodipodi:nodetypes="csssscc"
         inkscape:connector-curvature="0"
         id="rect5264"
         d="m -515.73002,435.56445 v 5.83767 c 0,9.74315 -7.84377,17.58692 -17.58692,17.58692 h -135.05122 c -9.74315,0 -17.58692,-7.84377 -17.58692,-17.58692 v -5.83767 z" />
    </clipPath>
    <clipPath
       clipPathUnits="userSpaceOnUse"
       id="clipPath2059-7">
      <path
         d="m -10.099732,231.68531 c 3.5587363,2.50616 4.8319716,-0.58528 2.9651647,-3.064 -3.1818907,-4.22486 -6.4443207,-9.83985 -12.3548527,-15.91305 -2.594516,-2.66865 -11.860659,-7.80827 -11.860659,-7.80827 0,0 -0.115438,-2.18844 -0.09884,-3.064 0.01106,-0.582 -0.565687,-0.56369 -0.889553,-0.29652 -0.782426,0.64546 -2.47097,2.56981 -2.47097,2.56981 l -1.68026,-0.0988 -1.087226,-1.58142 c -0.296516,-0.41055 -0.636056,-0.34641 -0.88955,0 -0.545383,1.84962 -0.878698,3.8848 -3.459359,3.95355 l 4.447747,3.95356 c 7.76561,1.55335 15.578734,5.58545 20.261957,14.33163 0,0 4.526451,5.19364 7.116396,7.01755 z"
         id="path2061-5"
         sodipodi:nodetypes="csscsscccccccs"
         inkscape:connector-curvature="0"
         stroke-dasharray="none"
         stroke-opacity="1"
         fill="#ffffff"
         fill-rule="evenodd"
         stroke="none"
         stroke-linejoin="miter"
         fill-opacity="1"
         stroke-linecap="butt"
         stroke-width="0.048"
         stroke-miterlimit="4" />
    </clipPath>
    <clipPath
       clipPathUnits="userSpaceOnUse"
       id="clipPath1162">
      <path
         stroke-miterlimit="4"
         stroke-width="0.071"
         stroke-linecap="round"
         fill-opacity="0.347"
         stroke-linejoin="round"
         stroke="none"
         fill="#000000"
         stroke-opacity="1"
         stroke-dasharray="none"
         inkscape:connector-curvature="0"
         d="m -65.649736,239.84563 c -9.358079,0 -16.951888,7.59381 -16.951888,16.95188 0,9.35808 7.593811,16.94076 16.951888,16.94077 0.292439,0 0.578792,-0.008 0.867614,-0.0222 2.122786,-0.10753 4.148336,-0.60587 5.995453,-1.42378 l 2.669587,3.97101 c -0.225515,0.4951 -0.245107,0.96445 -0.01111,1.31255 l 15.67271,23.32553 c 0.495366,0.73695 1.94415,0.6317 3.247998,-0.24471 1.303846,-0.87642 1.96364,-2.17735 1.468276,-2.9143 L -51.42304,274.4168 c -0.233058,-0.34672 -0.682887,-0.49868 -1.22356,-0.47831 l -2.558357,-3.80416 c 3.95991,-3.10036 6.507123,-7.91951 6.507123,-13.33682 0,-9.35807 -7.593809,-16.95188 -16.951889,-16.95188 z m 0,2.5806 c 7.92884,0 14.371283,6.44244 14.371283,14.37128 0,7.92885 -6.442435,14.36016 -14.371283,14.36016 -7.928851,0 -14.349039,-6.43131 -14.349039,-14.36016 0,-0.24777 -0.0013,-0.48941 0.01111,-0.73413 0.384376,-7.58638 6.656848,-13.63715 14.337916,-13.63715 z"
         id="path1164" />
    </clipPath>
    <linearGradient
       id="linearGradient4693">
      <stop
         stop-opacity="1"
         stop-color="#1f1f1f"
         id="stop4695" />
      <stop
         stop-opacity="1"
         stop-color="#5a5a5a"
         id="stop4697"
         offset="1" />
    </linearGradient>
    <linearGradient
       id="linearGradient2284">
      <stop
         stop-opacity="1"
         stop-color="#000000"
         id="stop2290" />
      <stop
         stop-opacity="1"
         stop-color="#5c5c5c"
         offset="1"
         id="stop2292" />
    </linearGradient>
    <linearGradient
       id="linearGradient2768">
      <stop
         stop-opacity="0.637"
         stop-color="#000000"
         id="stop2770" />
      <stop
         stop-opacity="0"
         stop-color="#000000"
         offset="1"
         id="stop2772" />
    </linearGradient>
    <linearGradient
       id="linearGradient2776">
      <stop
         stop-opacity="0.682"
         stop-color="#000000"
         id="stop2778" />
      <stop
         stop-opacity="0"
         stop-color="black"
         offset="1"
         id="stop2780" />
    </linearGradient>
    <linearGradient
       id="linearGradient2784">
      <stop
         stop-opacity="0.853"
         stop-color="#000000"
         id="stop2786" />
      <stop
         stop-opacity="0"
         stop-color="#000000"
         offset="1"
         id="stop2788" />
    </linearGradient>
    <linearGradient
       id="linearGradient2843">
      <stop
         stop-opacity="1"
         stop-color="#000000"
         id="stop2845" />
      <stop
         stop-opacity="1"
         stop-color="white"
         offset="1"
         id="stop2847"
         style="stop-color:#c0c0c0;stop-opacity:1" />
    </linearGradient>
    <linearGradient
       y2="9.01"
       x2="134.26"
       y1="252.2"
       x1="141.34"
       gradientTransform="matrix(0.26164783,0,0,0.26164783,-0.09509575,229.47843)"
       gradientUnits="userSpaceOnUse"
       id="linearGradient4358"
       xlink:href="#linearGradient2284"
       inkscape:collect="always" />
    <linearGradient
       y2="13.04"
       x2="52.49"
       y1="236.48"
       x1="176.83"
       gradientTransform="matrix(0.26164783,0,0,0.26164783,-0.09509575,229.47843)"
       gradientUnits="userSpaceOnUse"
       id="linearGradient4360"
       xlink:href="#linearGradient4693"
       inkscape:collect="always" />
    <linearGradient
       y2="114.14"
       x2="158.17"
       y1="37.25"
       x1="227.38"
       gradientTransform="translate(2.727155,101.9956)"
       gradientUnits="userSpaceOnUse"
       id="linearGradient4362"
       xlink:href="#linearGradient2768"
       inkscape:collect="always" />
    <linearGradient
       y2="98.26"
       x2="168.54"
       y1="27.97"
       x1="224.81"
       gradientTransform="translate(1.090862,103.6319)"
       gradientUnits="userSpaceOnUse"
       id="linearGradient4364"
       xlink:href="#linearGradient2776"
       inkscape:collect="always" />
    <linearGradient
       y2="183.27"
       x2="183.26"
       y1="132.29"
       x1="227.38"
       gradientUnits="userSpaceOnUse"
       id="linearGradient4366"
       xlink:href="#linearGradient2784"
       inkscape:collect="always" />
    <radialGradient
       r="31.04"
       fy="166.59286"
       fx="181.34235"
       cy="166.59286"
       cx="181.34235"
       spreadMethod="reflect"
       gradientTransform="matrix(0.91322411,0.15314395,-0.12043173,0.71815545,36.499367,22.059892)"
       gradientUnits="userSpaceOnUse"
       id="radialGradient4368"
       xlink:href="#linearGradient2843"
       inkscape:collect="always" />
    <filter
       height="1.023"
       y="-0.011"
       width="1.025"
       x="-0.013"
       id="filter884"
       inkscape:collect="always"
       color-interpolation-filters="sRGB">
      <feGaussianBlur
         id="feGaussianBlur886"
         stdDeviation="1.10329"
         inkscape:collect="always" />
    </filter>
    <linearGradient
       id="linearGradient4400">
      <stop
         id="stop4402"
         stop-color="#ffffff"
         stop-opacity="1" />
      <stop
         offset="1"
         id="stop4404"
         stop-color="#c1c1c1"
         stop-opacity="0" />
    </linearGradient>
    <linearGradient
       inkscape:collect="always"
       id="linearGradient898">
      <stop
         style="stop-color:#ffffff;stop-opacity:0.54560363"
         offset="0"
         id="stop894" />
      <stop
         style="stop-color:#5a6eff;stop-opacity:0"
         offset="1"
         id="stop896" />
    </linearGradient>
    <linearGradient
       id="linearGradient899"
       inkscape:collect="always">
      <stop
         id="stop895"
         offset="0"
         style="stop-color:#00023c;stop-opacity:0" />
      <stop
         style="stop-color:#4e54b7;stop-opacity:0.5411765"
         offset="0.79599839"
         id="stop903" />
      <stop
         id="stop897"
         offset="1"
         style="stop-color:#c2c4f6;stop-opacity:0" />
    </linearGradient>
    <linearGradient
       id="linearGradient887"
       inkscape:collect="always">
      <stop
         id="stop883"
         offset="0"
         style="stop-color:#b4b6ef;stop-opacity:1" />
      <stop
         style="stop-color:#365cf2;stop-opacity:0.81960785"
         offset="0.23755762"
         id="stop891" />
      <stop
         id="stop885"
         offset="1"
         style="stop-color:#183fc4;stop-opacity:0" />
    </linearGradient>
    <linearGradient
       id="linearGradient1310"
       inkscape:collect="always">
      <stop
         id="stop1306"
         offset="0"
         style="stop-color:#000f41;stop-opacity:1" />
      <stop
         style="stop-color:#192c72;stop-opacity:1"
         offset="0.60399979"
         id="stop922" />
      <stop
         id="stop1308"
         offset="1"
         style="stop-color:#0021a0;stop-opacity:1" />
    </linearGradient>
    <linearGradient
       id="linearGradient1282"
       inkscape:collect="always">
      <stop
         id="stop1278"
         offset="0"
         style="stop-color:#547bff;stop-opacity:1;" />
      <stop
         id="stop1280"
         offset="1"
         style="stop-color:#00114c;stop-opacity:1" />
    </linearGradient>
    <linearGradient
       id="linearGradient1266"
       inkscape:collect="always">
      <stop
         id="stop1262"
         offset="0"
         style="stop-color:#ffffff;stop-opacity:0.50451708" />
      <stop
         id="stop1264"
         offset="1"
         style="stop-color:#5f5af3;stop-opacity:0" />
    </linearGradient>
    <linearGradient
       id="linearGradient1158"
       inkscape:collect="always">
      <stop
         id="stop1154"
         offset="0"
         style="stop-color:#7794f9;stop-opacity:1;" />
      <stop
         id="stop1156"
         offset="1"
         style="stop-color:#7794f9;stop-opacity:0;" />
    </linearGradient>
    <linearGradient
       id="linearGradient937"
       inkscape:collect="always">
      <stop
         id="stop933"
         offset="0"
         style="stop-color:#a6b7f3;stop-opacity:1;" />
      <stop
         id="stop935"
         offset="1"
         style="stop-color:#a6b7f3;stop-opacity:0;" />
    </linearGradient>
    <linearGradient
       id="linearGradient925"
       inkscape:collect="always">
      <stop
         id="stop921"
         offset="0"
         style="stop-color:#6167d4;stop-opacity:1" />
      <stop
         style="stop-color:#001354;stop-opacity:0.99461174"
         offset="0.76622683"
         id="stop929" />
      <stop
         id="stop923"
         offset="1"
         style="stop-color:#1836a3;stop-opacity:0.9574576" />
    </linearGradient>
    <radialGradient
       gradientUnits="userSpaceOnUse"
       gradientTransform="matrix(0.21761232,-1.0042634,1.8974696,0.28035724,-573.8594,165.07913)"
       r="9.296298"
       fy="271.61948"
       fx="-37.136913"
       cy="271.61948"
       cx="-37.136913"
       id="radialGradient927"
       xlink:href="#linearGradient925"
       inkscape:collect="always" />
    <linearGradient
       gradientUnits="userSpaceOnUse"
       y2="274.8414"
       x2="-51.113251"
       y1="268.87378"
       x1="-51.722084"
       id="linearGradient1086"
       xlink:href="#linearGradient937"
       inkscape:collect="always" />
    <radialGradient
       gradientUnits="userSpaceOnUse"
       gradientTransform="matrix(1.1853513,0,0,0.70560016,-27.085225,88.924528)"
       r="6.5809326"
       fy="292.8353"
       fx="70.397987"
       cy="292.8353"
       cx="70.397987"
       id="radialGradient1162"
       xlink:href="#linearGradient1158"
       inkscape:collect="always" />
    <filter
       height="1.1675686"
       y="-0.083784323"
       width="1.1021711"
       x="-0.051085543"
       id="filter1256"
       style="color-interpolation-filters:sRGB"
       inkscape:collect="always">
      <feGaussianBlur
         id="feGaussianBlur1258"
         stdDeviation="0.2462764"
         inkscape:collect="always" />
    </filter>
    <radialGradient
       gradientUnits="userSpaceOnUse"
       gradientTransform="matrix(1.4166114,0,0,0.7929338,-81.277782,62.605098)"
       r="3.4715462"
       fy="284.85419"
       fx="29.449898"
       cy="284.85419"
       cx="29.449898"
       id="radialGradient1268"
       xlink:href="#linearGradient1266"
       inkscape:collect="always" />
    <linearGradient
       spreadMethod="reflect"
       gradientUnits="userSpaceOnUse"
       y2="263.56815"
       x2="35.193237"
       y1="263.56815"
       x1="33.754398"
       id="linearGradient1284"
       xlink:href="#linearGradient1282"
       inkscape:collect="always"
       gradientTransform="matrix(1.1857194,0,0,1.1569957,-20.587902,-39.957573)" />
    <radialGradient
       r="3.4715462"
       fy="284.85419"
       fx="29.449898"
       cy="284.85419"
       cx="29.449898"
       gradientTransform="matrix(1.4166114,0,0,0.7929338,-47.216388,62.813313)"
       gradientUnits="userSpaceOnUse"
       id="radialGradient1296"
       xlink:href="#linearGradient1266"
       inkscape:collect="always" />
    <radialGradient
       r="6.5809326"
       fy="292.8353"
       fx="70.397987"
       cy="292.8353"
       cx="70.397987"
       gradientTransform="matrix(1.1853513,0,0,0.70560016,6.3908381,86.849871)"
       gradientUnits="userSpaceOnUse"
       id="radialGradient1300"
       xlink:href="#linearGradient1158"
       inkscape:collect="always" />
    <radialGradient
       r="9.296298"
       fy="271.61948"
       fx="-37.136913"
       cy="271.61948"
       cx="-37.136913"
       gradientTransform="matrix(0.21761232,-1.0042634,1.8974696,0.28035724,-539.96418,167.29398)"
       gradientUnits="userSpaceOnUse"
       id="radialGradient1302"
       xlink:href="#linearGradient925"
       inkscape:collect="always" />
    <linearGradient
       gradientTransform="matrix(1.1857194,0,0,1.1569957,12.169887,-45.00439)"
       spreadMethod="reflect"
       y2="263.56815"
       x2="35.193237"
       y1="263.56815"
       x1="33.754398"
       gradientUnits="userSpaceOnUse"
       id="linearGradient1304"
       xlink:href="#linearGradient1282"
       inkscape:collect="always" />
    <linearGradient
       gradientUnits="userSpaceOnUse"
       y2="255.09979"
       x2="46.457726"
       y1="245.66576"
       x1="46.569225"
       id="linearGradient889"
       xlink:href="#linearGradient887"
       inkscape:collect="always"
       gradientTransform="matrix(1.1761898,-0.14639227,0,1.1569957,-20.69291,-40.110011)" />
    <linearGradient
       gradientUnits="userSpaceOnUse"
       y2="240.15668"
       x2="46.154926"
       y1="257.16489"
       x1="48.159447"
       id="linearGradient901"
       xlink:href="#linearGradient899"
       inkscape:collect="always"
       gradientTransform="matrix(1.1857194,0,0,1.1569957,-21.004289,-41.760225)" />
    <filter
       inkscape:collect="always"
       style="color-interpolation-filters:sRGB"
       id="filter1028"
       x="-0.026597807"
       width="1.0531956"
       y="-0.036354274"
       height="1.0727085">
      <feGaussianBlur
         inkscape:collect="always"
         stdDeviation="0.72201452"
         id="feGaussianBlur1030" />
    </filter>
    <radialGradient
       gradientUnits="userSpaceOnUse"
       gradientTransform="matrix(1.3871981,-0.06636029,0.02866552,0.59922473,-21.428727,97.468836)"
       r="19.123417"
       fy="258.46353"
       fx="35.623482"
       cy="258.46353"
       cx="35.623482"
       id="radialGradient894"
       xlink:href="#linearGradient1310"
       inkscape:collect="always" />
    <filter
       height="1.0439217"
       y="-0.021960861"
       width="1.0286132"
       x="-0.014306605"
       id="filter918"
       style="color-interpolation-filters:sRGB"
       inkscape:collect="always">
      <feGaussianBlur
         id="feGaussianBlur920"
         stdDeviation="0.1777772"
         inkscape:collect="always" />
    </filter>
    <radialGradient
       inkscape:collect="always"
       xlink:href="#linearGradient898"
       id="radialGradient900"
       cx="10.367694"
       cy="251.84027"
       fx="10.367694"
       fy="251.84027"
       r="9.015523"
       gradientTransform="matrix(1.276838,0,0,0.12512034,-17.368351,221.33535)"
       gradientUnits="userSpaceOnUse" />
    <linearGradient
       inkscape:collect="always"
       xlink:href="#linearGradient937"
       id="linearGradient1171"
       gradientUnits="userSpaceOnUse"
       x1="-51.722084"
       y1="268.87378"
       x2="-51.113251"
       y2="274.8414" />
  </defs>
  <sodipodi:namedview
     id="base"
     pagecolor="#ff0000"
     bordercolor="#666666"
     borderopacity="1.0"
     inkscape:pageopacity="0"
     inkscape:pageshadow="2"
     inkscape:zoom="3.4823529"
     inkscape:cx="127.5"
     inkscape:cy="127.5"
     inkscape:document-units="px"
     inkscape:current-layer="layer1"
     showgrid="false"
     inkscape:snap-to-guides="false"
     inkscape:snap-grids="false"
     inkscape:snap-others="false"
     inkscape:object-nodes="false"
     inkscape:snap-nodes="false"
     inkscape:snap-global="false"
     inkscape:window-width="1920"
     inkscape:window-height="1056"
     inkscape:window-x="0"
     inkscape:window-y="0"
     inkscape:window-maximized="1"
     units="px"
     showguides="false"
     inkscape:document-rotation="0" />
  <metadata
     id="metadata5">
    <rdf:RDF>
      <cc:Work>
        <dc:format>image/svg+xml</dc:format>
        <dc:type
           rdf:resource="http://purl.org/dc/dcmitype/StillImage" />
        <dc:title />
      </cc:Work>
    </rdf:RDF>
  </metadata>
  <g
     inkscape:label="Layer 1"
     inkscape:groupmode="layer"
     id="layer1"
     transform="translate(0,-229.53126)">
    <g
       id="g924"
       transform="matrix(0.27146719,0,0,0.27146719,70.857884,227.96903)"
       fill="#000000"
       filter="url(#filter884)"
       fill-opacity="0.222">
      <g
         id="g916"
         fill="#000000"
         fill-opacity="0.222">
        <path
           inkscape:connector-curvature="0"
           d="m -85.198007,20.170582 c -44.130583,9.73114 -89.694133,17.347863 -135.056483,12.017738 -4.80994,5.035301 -2.78354,13.576212 -4.54807,19.969327 -7.9112,64.051963 -9.18724,129.603143 3.49388,193.127163 10.52265,5.39408 23.37012,4.70334 35.05921,5.32011 55.52399,-0.13442 107.982063,-25.66059 163.790686,-21.1028 4.271067,-3.75776 -1.977521,-9.37264 -2.53005,-13.64421 -16.207181,-45.27886 -9.280941,-94.29421 -4.075726,-140.928483 0.98699,-11.173054 -7.483311,-20.188606 -14.150911,-28.1362 -10.794347,-11.250643 -23.992721,-19.956291 -37.344106,-27.676833 -1.54615,0.351396 -3.09228,0.702792 -4.63843,1.054188 z"
           id="path2824"
           fill="#000000"
           fill-rule="evenodd"
           stroke="none"
           fill-opacity="0.222"
           stroke-width="1.283" />
        <path
           d="m -84.975811,21.145096 c -44.123789,9.806146 -89.739079,17.203912 -134.941409,12.166015 -4.48107,6.745139 -2.26141,15.430661 -4.37805,23.002628 -7.43764,62.437611 -8.42036,126.379881 3.87219,188.292291 13.89753,6.10329 29.61645,4.75848 44.50196,4.69141 51.48975,-2.91834 100.950623,-24.95398 153.097653,-20.83203 2.606929,-4.56896 -3.057325,-8.66267 -3.468419,-13.3054 -15.71053,-44.96859 -9.037827,-93.46634 -3.844141,-139.647941 1.056975,-13.532165 -10.058822,-23.85583 -18.657579,-32.774843 -9.623756,-8.851203 -20.64941,-16.014746 -31.928299,-22.558927 -1.417968,0.322265 -2.835937,0.644531 -4.253906,0.966797 z"
           id="path925"
           inkscape:connector-curvature="0"
           fill="#000000"
           fill-rule="evenodd"
           stroke="none"
           fill-opacity="0.222"
           stroke-width="1.283" />
        <path
           d="m -84.755108,22.119705 c -44.033402,9.889227 -89.638272,16.993981 -134.714842,12.361328 -3.97148,8.042474 -2.05468,17.456826 -4.29967,25.983249 -6.97287,60.889138 -7.67134,123.141808 4.2274,183.426908 16.86104,6.64367 35.52641,4.57225 53.15821,3.65039 47.82072,-4.94461 94.501163,-23.58815 143.013668,-20.26758 0.7237,-5.0671 -4.224472,-8.8775 -4.59375,-13.91601 -14.978067,-44.978 -8.121494,-93.11208 -3.107422,-139.142582 -0.117941,-14.415503 -12.496233,-24.703348 -22.048828,-33.964844 -8.521069,-7.221522 -18.043151,-13.35859 -27.765625,-19.009765 -1.289714,0.292968 -2.579427,0.585937 -3.869141,0.878906 z"
           id="path929"
           inkscape:connector-curvature="0"
           fill="#000000"
           fill-rule="evenodd"
           stroke="none"
           fill-opacity="0.222"
           stroke-width="1.283" />
        <path
           d="m -84.534405,23.094314 c -43.916815,9.968018 -89.427015,16.766192 -134.384765,12.56836 -3.51399,9.230763 -2.03793,19.38365 -4.30547,28.945969 -6.51022,59.304427 -6.95192,119.844357 4.55937,178.544267 19.59734,7.01783 40.85021,4.23227 61.10352,2.31836 44.38017,-6.07413 87.913033,-22.06922 133.259767,-19.25586 -0.910537,-5.48563 -4.967787,-9.97391 -5.59905,-15.62697 -13.940748,-44.68422 -6.769332,-92.1975 -2.215403,-137.638657 -1.335999,-14.961303 -14.546371,-25.143282 -24.873047,-34.580078 -7.565475,-6.003009 -15.724886,-11.210793 -24.0625,-16.066406 -1.160807,0.263672 -2.321614,0.527343 -3.482422,0.791015 z"
           id="path933"
           inkscape:connector-curvature="0"
           fill="#000000"
           fill-rule="evenodd"
           stroke="none"
           fill-opacity="0.222"
           stroke-width="1.283" />
        <path
           d="m -84.313701,24.068924 c -43.774069,10.056451 -89.192759,16.503128 -133.980469,12.802734 -3.10264,10.803813 -2.31547,22.322281 -4.5293,33.40625 -5.89436,57.202952 -5.9902,115.568462 5.03125,172.115232 23.00989,7.54096 47.78243,3.54392 71.34721,0.34474 39.90429,-7.0178 80.295349,-19.56926 120.840293,-17.79005 -2.926996,-6.61968 -5.628715,-13.28237 -7.085938,-20.41016 -11.579621,-43.25615 -4.61341,-88.40836 -0.488281,-132.156246 -2.294187,-16.037387 -16.696362,-26.20013 -28.083605,-36.028488 -6.720766,-4.489676 -13.50484,-10.297863 -20.93062,-12.765649 -0.706847,0.160546 -1.413694,0.321091 -2.12054,0.481637 z"
           id="path937"
           inkscape:connector-curvature="0"
           fill="#000000"
           fill-rule="evenodd"
           stroke="none"
           fill-opacity="0.222"
           stroke-width="1.283" />
      </g>
    </g>
    <path
       style="fill:url(#linearGradient4358);stroke:url(#linearGradient4360)"
       stroke-miterlimit="4"
       inkscape:connector-curvature="0"
       d="m 8.4675568,234.83299 c 11.6106192,1.42828 24.5996982,-0.45173 38.1037872,-3.56777 5.643538,3.76844 11.467327,7.42873 13.414822,13.41481 -1.346587,14.22351 -4.019692,28.44703 2.283371,42.67054 C 44.573397,285.76023 26.1637,296.33348 8.7529754,292.06003 5.0854268,273.61478 5.681143,254.41717 8.4675568,234.83299 Z"
       id="path1873"
       sodipodi:nodetypes="cccccc"
       stroke-dasharray="none"
       stroke-opacity="1"
       fill="url(#linearGradient4358)"
       fill-rule="evenodd"
       stroke="url(#linearGradient4360)"
       stroke-linejoin="round"
       fill-opacity="1"
       stroke-linecap="round"
       stroke-width="0.706926" />
    <g
       id="g2792"
       transform="matrix(0.26164784,0,0,0.26164784,-1.3020587,201.07898)">
      <path
         style="fill:url(#linearGradient4362)"
         inkscape:connector-curvature="0"
         sodipodi:nodetypes="cccc"
         id="path2766"
         d="m 156.53869,211.36553 c 13.28542,-17.44929 34.02093,-77.54136 27.27153,-97.63214 21.56922,14.40274 43.82734,28.39213 51.27051,51.2705 -22.05844,6.72055 -54.13461,50.39418 -78.54204,46.36164 z"
         fill="url(#linearGradient4362)"
         fill-rule="evenodd"
         stroke="none"
         fill-opacity="1" />
      <path
         style="fill:url(#linearGradient4364)"
         inkscape:connector-curvature="0"
         d="m 162.53843,201.54777 c 13.28542,-17.44929 26.3849,-66.08731 19.6355,-86.17809 21.56922,14.40274 43.82734,28.39214 51.27051,51.27051 -22.05844,6.72055 -46.49858,38.94012 -70.90601,34.90758 z"
         id="path2764"
         sodipodi:nodetypes="cccc"
         fill="url(#linearGradient4364)"
         fill-rule="evenodd"
         stroke="none"
         fill-opacity="1" />
      <path
         style="fill:url(#linearGradient4366)"
         inkscape:connector-curvature="0"
         sodipodi:nodetypes="cccc"
         id="path1877"
         d="m 167.44731,190.09372 c 13.28542,-17.44929 23.65775,-54.08783 16.90835,-74.17861 21.56922,14.40274 43.82734,28.39214 51.27051,51.27051 -22.05844,6.72055 -43.77143,26.94064 -68.17886,22.9081 z"
         fill="url(#linearGradient4366)"
         fill-rule="evenodd"
         stroke="none"
         fill-opacity="1" />
      <path
         stroke-miterlimit="4"
         inkscape:connector-curvature="0"
         d="m 173.99247,172.0945 c 13.28542,-17.44929 16.56715,-37.17947 9.81775,-57.27025 21.56922,14.40274 43.82734,28.39214 51.27051,51.27051 -22.05844,6.72055 -36.68083,10.03228 -61.08826,5.99974 z"
         id="path1875"
         sodipodi:nodetypes="cccc"
         stroke-dasharray="none"
         stroke-opacity="1"
         fill="url(#radialGradient4368)"
         fill-rule="evenodd"
         stroke="#4e4e4e"
         stroke-linejoin="round"
         fill-opacity="1"
         stroke-linecap="butt"
         stroke-width="1.764"
         style="fill:url(#radialGradient4368);stroke:#494949;stroke-opacity:1" />
    </g>
    <g
       inkscape:label="Layer 1"
       id="layer1-3"
       transform="matrix(0.81724612,0,0,0.81724612,4.4447923,51.661041)">
      <path
         id="rect893"
         style="opacity:1;fill:#000000;fill-opacity:1;stroke:none;stroke-width:2.86982;stroke-linecap:square;stroke-opacity:0.176336;filter:url(#filter1028)"
         d="m 66.557275,244.85106 -16.198403,1.72003 -22.307891,2.23518 -1.072359,4.22774 -0.930029,3.09954 0.147482,-0.0144 -0.685308,2.7018 h -0.04998 c 0.03991,1.8e-4 0.07834,0.005 0.118192,0.005 l -5.393443,21.26347 a 6.2376949,11.238196 76.256752 0 0 -8.284999,-0.4636 6.2376949,11.238196 76.256752 0 0 -10.4803025,8.40045 6.2376949,11.238196 76.256752 0 0 11.5283665,4.13762 6.2376949,11.238196 76.256752 0 0 10.486165,-8.31899 h 0.04336 l 6.248318,-24.63378 28.751538,-2.61991 -4.665604,18.39398 a 6.2376949,11.238196 76.256752 0 0 -7.549503,-0.20017 6.2376949,11.238196 76.256752 0 0 -10.479682,8.40002 6.2376949,11.238196 76.256752 0 0 11.527854,4.13763 6.2376949,11.238196 76.256752 0 0 10.480942,-7.80775 l 6.125444,-24.14936 c 0.270984,-0.79759 0.584329,-1.81266 0.916905,-3.01764 l 0.09157,-0.009 0.459592,-2.10952 c 0.292309,-1.19787 0.588843,-2.55163 0.87966,-4.03711 z" />
      <rect
         y="248.81554"
         x="17.91411"
         height="32.348259"
         width="4.3011036"
         id="rect898"
         style="opacity:1;fill:url(#linearGradient1284);fill-opacity:1;stroke:none;stroke-width:3.15477;stroke-linecap:square;stroke-opacity:0.176336" />
      <ellipse
         transform="matrix(0.97243629,-0.23316874,0.27539061,0.96133241,0,0)"
         ry="7.777915"
         rx="10.901734"
         cy="278.74866"
         cx="-67.070915"
         id="path902"
         style="opacity:1;fill:url(#radialGradient927);fill-opacity:1;stroke:#223060;stroke-width:0.27276;stroke-linecap:square;stroke-miterlimit:4;stroke-dasharray:none;stroke-opacity:0.501961" />
      <ellipse
         transform="matrix(0.99380119,-0.11117195,-0.14573064,0.9893243,0,0)"
         ry="4.643507"
         rx="7.8007169"
         cy="295.54916"
         cx="56.361118"
         id="path1152"
         style="opacity:1;fill:url(#radialGradient1162);fill-opacity:1;stroke:none;stroke-width:0.38494;stroke-linecap:square;stroke-miterlimit:4;stroke-dasharray:none;stroke-opacity:0.501961" />
      <ellipse
         inkscape:transform-center-y="-3.6890698e-06"
         inkscape:transform-center-x="-0.63538603"
         transform="matrix(1.1316285,-0.34546784,0.32711064,1.1120967,-20.587902,-39.957573)"
         ry="3.1616523"
         rx="5.9905391"
         cy="271.66379"
         cx="-51.915176"
         id="path931"
         style="opacity:1;fill:url(#linearGradient1171);fill-opacity:1;stroke:none;stroke-width:2.17162;stroke-linecap:square;stroke-opacity:0.176336;filter:url(#filter1256)" />
      <ellipse
         transform="matrix(0.98447426,-0.175529,0.18406058,0.9829149,0,0)"
         ry="2.7527063"
         rx="4.9178319"
         cy="288.47562"
         cx="-39.558723"
         id="path1260"
         style="opacity:1;fill:url(#radialGradient1268);fill-opacity:1;stroke:none;stroke-width:0.304981;stroke-linecap:square;stroke-miterlimit:4;stroke-dasharray:none;stroke-opacity:0.501961" />
      <rect
         style="opacity:1;fill:url(#linearGradient1304);fill-opacity:1;stroke:none;stroke-width:3.15477;stroke-linecap:square;stroke-opacity:0.176336"
         id="rect1286"
         width="5.1959438"
         height="32.784832"
         x="50.671898"
         y="243.76872" />
      <ellipse
         style="opacity:1;fill:url(#radialGradient1302);fill-opacity:1;stroke:#223060;stroke-width:0.27276;stroke-linecap:square;stroke-miterlimit:4;stroke-dasharray:none;stroke-opacity:0.501961"
         id="ellipse1288"
         cx="-33.175694"
         cy="280.9635"
         rx="10.901734"
         ry="7.777915"
         transform="matrix(0.97243629,-0.23316874,0.27539061,0.96133241,0,0)" />
      <ellipse
         style="opacity:1;fill:url(#radialGradient1300);fill-opacity:1;stroke:none;stroke-width:0.38494;stroke-linecap:square;stroke-miterlimit:4;stroke-dasharray:none;stroke-opacity:0.501961"
         id="ellipse1290"
         cx="89.837173"
         cy="293.47449"
         rx="7.8007169"
         ry="4.643507"
         transform="matrix(0.99380119,-0.11117195,-0.14573064,0.9893243,0,0)" />
      <ellipse
         style="opacity:1;fill:url(#linearGradient1086);fill-opacity:1;stroke:none;stroke-width:2.17162;stroke-linecap:square;stroke-opacity:0.176336;filter:url(#filter1256)"
         id="ellipse1292"
         cx="-51.915176"
         cy="271.66379"
         rx="5.9905391"
         ry="3.1616523"
         transform="matrix(1.1316285,-0.34546784,0.32711064,1.1120967,12.982988,-45.731677)"
         inkscape:transform-center-x="-0.63538539"
         inkscape:transform-center-y="-3.3863007e-06" />
      <ellipse
         style="opacity:1;fill:url(#radialGradient1296);fill-opacity:1;stroke:none;stroke-width:0.304981;stroke-linecap:square;stroke-miterlimit:4;stroke-dasharray:none;stroke-opacity:0.501961"
         id="ellipse1294"
         cx="-5.4973288"
         cy="288.68381"
         rx="4.9178319"
         ry="2.7527063"
         transform="matrix(0.98447426,-0.175529,0.18406058,0.9829149,0,0)" />
      <path
         sodipodi:nodetypes="ccccccc"
         d="m 55.812913,234.77664 -37.969362,4.59474 v 11.94532 h -0.05031 c 1.347814,0.007 2.634555,0.58415 4.204575,0.48909 l 33.79565,-3.71056 c 0.218437,-2.31817 0.414667,-6.75918 0.01945,-13.31859 z"
         style="opacity:1;fill:url(#radialGradient894);fill-opacity:1;stroke:none;stroke-width:3.23999;stroke-linecap:square;stroke-opacity:0.176336"
         id="ellipse904" />
      <path
         style="fill:#5f5af3;fill-opacity:0.398826;stroke:none;stroke-width:0.264583px;stroke-linecap:butt;stroke-linejoin:miter;stroke-opacity:1;filter:url(#filter918)"
         d="m 17.576242,273.66747 1.200055,0.0572 0.914326,-12.85773 c 0.242726,-0.90525 -0.05285,-2.10034 2.057236,-2.00009 l 22.655413,-2.49618 c 1.344184,0.2628 1.555555,1.15494 1.542926,2.17153 l -0.522505,12.63725 c 0,0 1.2572,0.22858 1.428636,-0.45716 0.171437,-0.68574 0.468966,-13.96881 0.468966,-13.96881 0.401456,-1.61596 -0.795437,-2.20441 -2.514398,-2.45725 l -24.336992,2.87103 c -1.626505,0.90406 -2.668292,1.97517 -2.171525,3.48588 z"
         id="path885"
         sodipodi:nodetypes="cccccccsccccc"
         transform="matrix(1.1857194,0,0,1.1569957,-2.577959,-49.59474)" />
      <path
         sodipodi:nodetypes="ccccc"
         d="m 17.931938,239.35846 37.803541,-4.85694 0.271034,8.93061 -38.413367,4.52637 z"
         style="opacity:1;fill:url(#linearGradient889);fill-opacity:1;stroke:none;stroke-width:3.26891;stroke-linecap:square;stroke-opacity:0.176336"
         id="rect896" />
      <path
         sodipodi:nodetypes="cccccccc"
         id="path893"
         d="m 18.159252,256.6647 -0.06776,-8.89845 c 0.461534,-5.99068 0.632293,-5.5858 6.363074,-6.5577 l 30.851571,-3.98854 c -0.04037,3.41505 0.853001,5.2445 -4.734871,6.62963 l -29.920164,3.25618 -0.135514,10.31426 z"
         style="fill:url(#linearGradient901);fill-opacity:1;stroke:none;stroke-width:0.309898px;stroke-linecap:butt;stroke-linejoin:miter;stroke-opacity:1" />
      <ellipse
         style="fill:url(#radialGradient900);fill-opacity:1;stroke-width:0.269562;stroke-linecap:square;stroke-opacity:0.501961"
         id="path892"
         cx="-4.1304851"
         cy="252.84569"
         rx="11.511363"
         ry="1.1280252"
         transform="matrix(0.99447483,-0.10497532,0.15736041,0.98754124,0,0)" />
    </g>
  </g>
</svg>
