<?xml version="1.0" encoding="UTF-8" standalone="no"?>
<!-- Created with Inkscape (http://www.inkscape.org/) -->

<svg
   xmlns:dc="http://purl.org/dc/elements/1.1/"
   xmlns:cc="http://creativecommons.org/ns#"
   xmlns:rdf="http://www.w3.org/1999/02/22-rdf-syntax-ns#"
   xmlns:svg="http://www.w3.org/2000/svg"
   xmlns="http://www.w3.org/2000/svg"
   xmlns:xlink="http://www.w3.org/1999/xlink"
   xmlns:sodipodi="http://sodipodi.sourceforge.net/DTD/sodipodi-0.dtd"
   xmlns:inkscape="http://www.inkscape.org/namespaces/inkscape"
   id="svg2"
   sodipodi:version="0.32"
   inkscape:version="0.92.5 (2060ec1f9f, 2020-04-08)"
   width="256"
   height="256"
   version="1.0"
   sodipodi:docname="binary.svg">
  <metadata
     id="metadata7">
    <rdf:RDF>
      <cc:Work>
        <dc:format>image/svg+xml</dc:format>
        <dc:type
           rdf:resource="http://purl.org/dc/dcmitype/StillImage" />
        <dc:title />
      </cc:Work>
    </rdf:RDF>
  </metadata>
  <defs
     id="defs5">
    <linearGradient
       inkscape:collect="always"
       id="linearGradient1081">
      <stop
         id="stop1077"
         stop-color="#858585"
         stop-opacity="1" />
      <stop
         offset="1"
         id="stop1079"
         stop-color="#3b3b3b"
         stop-opacity="0" />
    </linearGradient>
    <pattern
       inkscape:collect="always"
       xlink:href="#pattern2789"
       id="pattern2018"
       patternTransform="matrix(1.0501069,0,0,0.76293855,-260.52245,13.161013)" />
    <linearGradient
       inkscape:collect="always"
       id="linearGradient4301">
      <stop
         id="stop4303"
         stop-color="#7f7f7f"
         stop-opacity="1" />
      <stop
         offset="1"
         id="stop4305"
         stop-color="#191515"
         stop-opacity="1" />
    </linearGradient>
    <linearGradient
       inkscape:collect="always"
       id="linearGradient5281">
      <stop
         id="stop5283"
         stop-color="#727272"
         stop-opacity="1" />
      <stop
         offset="1"
         id="stop5285"
         stop-color="#2b2b2b"
         stop-opacity="1" />
    </linearGradient>
    <linearGradient
       id="linearGradient5054">
      <stop
         id="stop5056"
         stop-color="#000000"
         stop-opacity="1" />
      <stop
         offset="1"
         id="stop5058"
         stop-color="#a3a3a3"
         stop-opacity="1" />
    </linearGradient>
    <pattern
       patternUnits="userSpaceOnUse"
       width="15.293"
       height="21.01"
       patternTransform="translate(54.42008,34.23381)"
       id="pattern2789">
      <path
         sodipodi:nodetypes="cccccccccccccsssssssccsssssssccsssssssccsssssssccccccccccccc"
         id="text2782"
         d="M 0.57658,7.347656 L 2.56877,7.347656 L 2.56877,1.693359 L 0.52385,2.115234 L 0.52385,0.580078 L 2.55705,0.158203 L 4.70158,0.158203 L 4.70158,7.347656 L 6.69377,7.347656 L 6.69377,8.90625 L 0.57658,8.90625 L 0.57658,7.347656 M 13.033623,4.523437 C 13.033613,3.429693 12.930093,2.660162 12.723073,2.214844 C 12.519943,1.765632 12.17619,1.541023 11.69182,1.541015 C 11.20744,1.541023 10.86174,1.765632 10.65471,2.214844 C 10.44768,2.660162 10.34416,3.429693 10.34416,4.523437 C 10.34416,5.628909 10.44768,6.408205 10.65471,6.861328 C 10.86174,7.314455 11.20744,7.541017 11.69182,7.541015 C 12.17228,7.541017 12.516033,7.314455 12.723073,6.861328 C 12.930093,6.408205 13.033613,5.628909 13.033623,4.523437 M 15.289483,4.541015 C 15.289473,5.990237 14.976973,7.109377 14.351983,7.898437 C 13.726973,8.683594 12.840253,9.076172 11.69182,9.076172 C 10.53947,9.076172 9.6508,8.683594 9.0258,7.898437 C 8.4008,7.109377 8.0883,5.990237 8.0883,4.541015 C 8.0883,3.087896 8.4008,1.968757 9.0258,1.183594 C 9.6508,0.39454 10.53947,9e-06 11.69182,-7.1054274e-15 C 12.840253,9e-06 13.726973,0.39454 14.351983,1.183594 C 14.976973,1.968757 15.289473,3.087896 15.289483,4.541015 M 4.94532,16.458032 C 4.94531,15.364288 4.84179,14.594757 4.63477,14.149439 C 4.43164,13.700227 4.08789,13.475618 3.60352,13.47561 C 3.11914,13.475618 2.77344,13.700227 2.56641,14.149439 C 2.35938,14.594757 2.25586,15.364288 2.25586,16.458032 C 2.25586,17.563504 2.35938,18.3428 2.56641,18.795923 C 2.77344,19.24905 3.11914,19.475612 3.60352,19.47561 C 4.08398,19.475612 4.42773,19.24905 4.63477,18.795923 C 4.84179,18.3428 4.94531,17.563504 4.94532,16.458032 M 7.20118,16.47561 C 7.20117,17.924832 6.88867,19.043972 6.26368,19.833032 C 5.63867,20.618189 4.75195,21.010767 3.60352,21.010767 C 2.45117,21.010767 1.5625,20.618189 0.9375,19.833032 C 0.3125,19.043972 0,17.924832 0,16.47561 C 0,15.022491 0.3125,13.903352 0.9375,13.118189 C 1.5625,12.329135 2.45117,11.934604 3.60352,11.934595 C 4.75195,11.934604 5.63867,12.329135 6.26368,13.118189 C 6.88867,13.903352 7.20117,15.022491 7.20118,16.47561 M 9.17578,19.282251 L 11.16797,19.282251 L 11.16797,13.627954 L 9.12305,14.049829 L 9.12305,12.514673 L 11.15625,12.092798 L 13.300783,12.092798 L 13.300783,19.282251 L 15.292973,19.282251 L 15.292973,20.840845 L 9.17578,20.840845 L 9.17578,19.282251"
         stroke-opacity="1"
         fill="black"
         font-family="Bitstream Vera Sans"
         stroke="none"
         font-style="normal"
         stroke-linejoin="miter"
         fill-opacity="1"
         font-weight="bold"
         stroke-linecap="butt"
         stroke-width="1"
         font-size="12" />
    </pattern>
    <linearGradient
       id="linearGradient2284">
      <stop
         id="stop2290"
         stop-color="#000000"
         stop-opacity="1" />
      <stop
         id="stop2292"
         offset="1"
         stop-color="#5c5c5c"
         stop-opacity="1" />
    </linearGradient>
    <linearGradient
       id="linearGradient2768">
      <stop
         id="stop2770"
         stop-color="#000000"
         stop-opacity="1" />
      <stop
         id="stop2772"
         offset="1"
         stop-color="#000000"
         stop-opacity="0" />
    </linearGradient>
    <linearGradient
       id="linearGradient2776">
      <stop
         id="stop2778"
         stop-color="#000000"
         stop-opacity="1" />
      <stop
         id="stop2780"
         offset="1"
         stop-color="black"
         stop-opacity="0" />
    </linearGradient>
    <linearGradient
       id="linearGradient2784">
      <stop
         id="stop2786"
         stop-color="#000000"
         stop-opacity="0.853" />
      <stop
         id="stop2788"
         offset="1"
         stop-color="#000000"
         stop-opacity="0" />
    </linearGradient>
    <linearGradient
       inkscape:collect="always"
       xlink:href="#linearGradient2768"
       id="linearGradient3210"
       gradientUnits="userSpaceOnUse"
       gradientTransform="matrix(0.96577902,0,0,0.96577902,-2.6431286,-2.4831794)"
       x1="227.38"
       y1="37.25"
       x2="158.17"
       y2="114.14" />
    <linearGradient
       inkscape:collect="always"
       xlink:href="#linearGradient2776"
       id="linearGradient3212"
       gradientUnits="userSpaceOnUse"
       gradientTransform="matrix(0.96577902,0,0,0.96577902,-4.2234261,-0.90287518)"
       x1="224.81"
       y1="27.97"
       x2="174.84"
       y2="89.76" />
    <linearGradient
       inkscape:collect="always"
       xlink:href="#linearGradient2784"
       id="linearGradient3214"
       gradientUnits="userSpaceOnUse"
       x1="227.38"
       y1="132.29"
       x2="183.26"
       y2="183.27"
       gradientTransform="matrix(0.96577902,0,0,0.96577902,-5.2769577,-100.98839)" />
    <radialGradient
       inkscape:collect="always"
       xlink:href="#linearGradient5054"
       id="radialGradient3216"
       gradientUnits="userSpaceOnUse"
       gradientTransform="matrix(0.80784042,0.01667051,-0.01719235,0.83312857,26.072991,-81.144315)"
       spreadMethod="reflect"
       cx="174.84"
       cy="182.67"
       fx="174.84"
       fy="182.67"
       r="31.04" />
    <linearGradient
       inkscape:collect="always"
       xlink:href="#linearGradient2284"
       id="linearGradient3224"
       gradientUnits="userSpaceOnUse"
       x1="141.34"
       y1="252.2"
       x2="134.26"
       y2="9.01"
       gradientTransform="matrix(0.96577902,0,0,0.96577902,-0.82664519,2.6757214)" />
    <linearGradient
       inkscape:collect="always"
       xlink:href="#linearGradient5281"
       id="linearGradient5287"
       x1="72.22"
       y1="19.992"
       x2="204.83"
       y2="222.88"
       gradientUnits="userSpaceOnUse"
       gradientTransform="translate(-0.29057889,-1.1623156)" />
    <linearGradient
       inkscape:collect="always"
       xlink:href="#linearGradient4301"
       id="linearGradient4307"
       x1="183.43"
       y1="114.94"
       x2="218.66"
       y2="172.56"
       gradientUnits="userSpaceOnUse"
       gradientTransform="matrix(0.96577902,0,0,0.96577902,-5.2769577,-100.98839)" />
    <filter
       inkscape:collect="always"
       id="filter2037"
       x="-0.04"
       width="1.081"
       y="-0.032"
       height="1.065"
       color-interpolation-filters="sRGB">
      <feGaussianBlur
         inkscape:collect="always"
         stdDeviation="1.28554"
         id="feGaussianBlur2039" />
    </filter>
    <linearGradient
       inkscape:collect="always"
       xlink:href="#linearGradient1081"
       id="linearGradient1083"
       x1="-126.32"
       y1="25.06"
       x2="-101.68"
       y2="55.57"
       gradientUnits="userSpaceOnUse"
       gradientTransform="translate(179.28717,-0.58115784)" />
    <filter
       inkscape:collect="always"
       style="color-interpolation-filters:sRGB"
       id="filter884"
       x="-0.025125438"
       width="1.0502509"
       y="-0.022961966"
       height="1.0459239">
      <feGaussianBlur
         inkscape:collect="always"
         stdDeviation="2.2828693"
         id="feGaussianBlur886" />
    </filter>
    <filter
       inkscape:collect="always"
       style="color-interpolation-filters:sRGB"
       id="filter900"
       x="-0.031108023"
       width="1.062216"
       y="-0.019003827"
       height="1.0380077">
      <feGaussianBlur
         inkscape:collect="always"
         stdDeviation="1.3596429"
         id="feGaussianBlur902" />
    </filter>
  </defs>
  <sodipodi:namedview
     inkscape:window-height="1056"
     inkscape:window-width="1920"
     inkscape:pageshadow="2"
     inkscape:pageopacity="0"
     guidetolerance="10.0"
     gridtolerance="10.0"
     objecttolerance="10.0"
     borderopacity="1.0"
     bordercolor="#666666"
     pagecolor="#ff0000"
     id="base"
     inkscape:zoom="3.4414062"
     inkscape:cx="128"
     inkscape:cy="128"
     inkscape:window-x="0"
     inkscape:window-y="0"
     inkscape:current-layer="svg2"
     showgrid="false"
     inkscape:window-maximized="1"
     inkscape:snap-to-guides="false"
     inkscape:snap-grids="false"
     inkscape:snap-others="false"
     inkscape:object-nodes="false"
     inkscape:snap-nodes="false"
     inkscape:snap-global="false" />
  <g
     transform="matrix(1,0,0.02944761,1,247.75273,3.6634748)"
     id="g941"
     style="fill:#000000;fill-opacity:0.35;filter:url(#filter884)">
    <g
       id="g933"
       style="fill:#000000;fill-opacity:0.35">
      <path
         sodipodi:nodetypes="cccccc"
         d="m -217.52319,21.67738 c -13.56041,71.636738 -11.80157,158.12042 0,219.9064 70.23884,18.87974 146.211482,-20.93789 205.406199,-17.18749 -19.269117,-43.74806 -13.141669,-112.35782 -8.625,-153.8122 4.070563,-28.494332 -32.072503,-50.193295 -51.5,-62.5000003 C -122.19896,16.77242 -174.63433,26.275954 -217.52319,21.67738 Z"
         id="path2820"
         inkscape:connector-curvature="0"
         style="fill:#000000;fill-opacity:0.35;fill-rule:evenodd;stroke:none" />
      <path
         inkscape:connector-curvature="0"
         id="path920"
         d="m -216.00171,24.720339 c -12.138,72.585009 -11.11007,153.002661 -0.3043,214.124781 70.23884,18.87974 142.638022,-19.4945 201.832739,-15.7441 C -33.742388,179.35296 -27.693028,112.03847 -23.176359,70.58409 -19.105796,42.089758 -53.727382,22.216571 -73.154879,9.9098654 -123.11185,18.598196 -173.11285,29.318913 -216.00171,24.720339 Z"
         sodipodi:nodetypes="cccccc"
         style="fill:#000000;fill-opacity:0.35;fill-rule:evenodd;stroke:none" />
      <path
         sodipodi:nodetypes="cccccc"
         d="m -214.4102,26.577103 c -12.138,72.585009 -11.37532,148.758627 -0.56955,209.880747 70.23884,18.87974 138.924494,-18.96399 198.119211,-15.21359 C -36.129656,177.4962 -29.549792,113.09948 -25.033123,71.645098 -20.96256,43.150766 -54.257886,23.808083 -73.685383,11.501377 -123.64235,20.189708 -171.52134,31.175677 -214.4102,26.577103 Z"
         id="path922"
         inkscape:connector-curvature="0"
         style="fill:#000000;fill-opacity:0.35;fill-rule:evenodd;stroke:none" />
      <path
         inkscape:connector-curvature="0"
         id="path924"
         d="m -213.08394,28.699119 c -12.138,72.585011 -11.37532,145.045101 -0.56955,206.167221 70.23884,18.87974 135.210966,-19.4945 194.405683,-15.7441 C -38.516924,175.37418 -31.93706,113.09948 -27.420391,71.645098 -23.349828,43.150766 -54.523138,26.195351 -73.950635,13.888645 -123.9076,22.576976 -170.19508,33.297693 -213.08394,28.699119 Z"
         sodipodi:nodetypes="cccccc"
         style="fill:#000000;fill-opacity:0.35;fill-rule:evenodd;stroke:none" />
      <path
         sodipodi:nodetypes="cccccc"
         d="m -210.96192,31.351639 c -12.138,72.585011 -12.70158,141.066321 -1.89581,202.188441 70.23884,18.87974 131.762686,-20.55551 190.957403,-16.80511 C -41.169444,172.98691 -33.528572,113.36473 -29.011903,71.91035 -24.94134,43.416018 -54.78839,29.113123 -74.215887,16.806417 -124.17285,25.494748 -168.07306,35.950213 -210.96192,31.351639 Z"
         id="path926"
         inkscape:connector-curvature="0"
         style="fill:#000000;fill-opacity:0.35;fill-rule:evenodd;stroke:none" />
    </g>
  </g>
  <path
     inkscape:connector-curvature="0"
     d="M 30.779302,22.440094 C 73.635736,27.712102 121.58025,20.772717 171.42576,9.2709504 192.25686,23.180815 213.75328,36.691481 220.94174,58.786932 215.97133,111.28791 206.10452,163.7889 229.37,216.28989 164.05104,210.41973 96.098261,249.44704 31.832831,233.67316 18.295391,165.58912 20.494267,94.728098 30.779302,22.440094 Z"
     id="path1873"
     sodipodi:nodetypes="cccccc"
     stroke-dasharray="none"
     stroke-opacity="1"
     fill="url(#linearGradient3224)"
     fill-rule="evenodd"
     stroke="url(#linearGradient5287)"
     stroke-linejoin="round"
     fill-opacity="1"
     stroke-linecap="round"
     stroke-width="2.608"
     stroke-miterlimit="4" />
  <g
     id="text5125"
     transform="matrix(1,0,0,0.84396411,230.11237,24.225743)"
     font-family="Calibri"
     fill="#a1a1a1"
     stroke="none"
     font-style="normal"
     word-spacing="0"
     line-height="125%"
     fill-opacity="0.329"
     font-weight="bold"
     font-stretch="normal"
     letter-spacing="0"
     font-variant="normal"
     font-size="269.89"
     style="filter:url(#filter900)">
    <path
       d="m -50.900307,197.45159 c -1.24e-4,2.45991 -0.131905,4.56839 -0.395341,6.32546 -0.263684,1.66922 -0.659025,3.03095 -1.186023,4.08519 -0.43939,0.96639 -0.966511,1.66922 -1.581364,2.10848 -0.615096,0.43927 -1.317923,0.6589 -2.108486,0.6589 h -94.091159 c -0.70286,0 -1.36176,-0.21963 -1.97671,-0.6589 -0.615,-0.43926 -1.18604,-1.14209 -1.71314,-2.10848 -0.43929,-1.05424 -0.79071,-2.41597 -1.05425,-4.08519 -0.26358,-1.75707 -0.39536,-3.86555 -0.39534,-6.32546 -2e-5,-2.54774 0.0878,-4.65622 0.26356,-6.32546 0.26354,-1.75705 0.61496,-3.1627 1.05425,-4.21697 0.5271,-1.05422 1.09814,-1.80097 1.71314,-2.24026 0.61495,-0.5271 1.31778,-0.79066 2.10849,-0.79069 h 31.75906 V 72.919167 l -27.41031,15.154739 c -2.02066,0.966511 -3.68988,1.581485 -5.00766,1.844925 -1.22997,0.175827 -2.24028,-0.08773 -3.03094,-0.790682 -0.70285,-0.79056 -1.18605,-2.108362 -1.44959,-3.95341 -0.26358,-1.844798 -0.39536,-4.436475 -0.39534,-7.775041 -2e-5,-2.10835 0.0439,-3.821492 0.13178,-5.139433 0.0878,-1.405517 0.30747,-2.591539 0.6589,-3.558069 0.3514,-0.966246 0.83459,-1.756928 1.44959,-2.372046 0.61495,-0.61483 1.44956,-1.273731 2.50382,-1.976705 l 36.63494,-23.720462 c 0.43921,-0.351244 0.96633,-0.614804 1.58136,-0.790682 0.70277,-0.26339 1.5813,-0.439096 2.63561,-0.527121 1.05418,-0.175536 2.4159,-0.263389 4.08519,-0.263561 1.757,-0.08768 3.99726,-0.131609 6.720797,-0.13178 3.338357,1.71e-4 6.017887,0.08802 8.038601,0.26356 2.1084,0.08803 3.689762,0.307659 4.744093,0.658902 1.054153,0.263731 1.75698,0.659072 2.108485,1.186023 0.351323,0.527291 0.52703,1.186192 0.527121,1.976705 V 183.87821 h 27.805652 c 0.790563,3e-5 1.49339,0.26359 2.108486,0.79069 0.702706,0.43929 1.273754,1.18604 1.713144,2.24026 0.526998,1.05427 0.878412,2.45992 1.054243,4.21697 0.263436,1.66924 0.395217,3.77772 0.395341,6.32546"
       id="path5130"
       inkscape:connector-curvature="0"
       fill="#a1a1a1"
       fill-opacity="0.329" />
    <path
       d="m -101.33398,39.927734 c -6.63459,-0.318756 -13.42281,0.391164 -18.41684,5.349488 -11.05628,7.637653 -23.11412,14.050663 -33.61246,22.377075 -2.47077,6.033469 -1.57473,13.235152 -0.54102,19.541015 2.36701,4.36363 8.1099,-0.899912 11.04163,-1.951003 8.45298,-4.673138 16.90554,-9.347012 25.35876,-14.0197 0,37.884771 0,75.769531 0,113.654301 -11.30719,0.33051 -22.89636,-0.62864 -34.04882,0.41992 -4.41525,4.78411 -2.54629,12.30214 -2.46289,18.34179 -0.0546,4.18191 3.32506,7.6921 7.79101,5.98829 30.40065,-0.18555 60.914487,0.36723 91.246094,-0.26953 4.604877,-4.80533 2.891324,-12.74393 2.615235,-18.75977 -0.01112,-4.13521 -3.578085,-7.30737 -7.847657,-5.7207 -8.255208,0 -16.510416,0 -24.765624,0 -0.138396,-47.66105 0.27568,-95.392021 -0.205079,-143.009769 -4.267721,-3.015032 -11.169163,-1.404906 -16.152339,-1.941407 z"
       id="path1279"
       inkscape:connector-curvature="0"
       fill="#a1a1a1"
       fill-opacity="0.329" />
    <path
       d="m -105.02539,40.878906 c -7.22469,-0.517784 -13.00247,3.947012 -18.36914,8.050782 -9.78222,6.733436 -20.94371,12.041103 -29.43945,20.173828 -1.69603,5.930315 -1.53107,12.851479 0.52929,18.476562 4.89343,0.794124 8.91323,-4.258448 13.39339,-5.663286 7.46917,-4.129091 14.938,-8.258807 22.40739,-12.387495 0,38.776043 0,77.552083 0,116.328123 -11.5473,0.46083 -23.29468,-0.76725 -34.67382,0.53711 -3.89363,5.67223 -1.957,13.1349 -1.46875,19.49805 2.04695,5.622 8.97772,1.63762 13.12109,2.70693 28.04577,-0.14235 56.213412,0.46965 84.183593,-0.32998 4.04313,-5.85691 2.456131,-13.56276 1.431641,-20.13086 -2.573489,-5.10608 -9.14124,-0.97719 -13.300782,-2.25976 -6.254557,0 -12.509114,0 -18.763671,0 -0.139411,-47.82151 0.266628,-95.644424 -0.203125,-143.464848 -5.787324,-2.768065 -12.681466,-0.743393 -18.847656,-1.535156 z"
       id="path1283"
       inkscape:connector-curvature="0"
       fill="#a1a1a1"
       fill-opacity="0.329" />
    <path
       d="m -106.94531,41.857422 c -10.59073,1.158102 -17.58611,10.535858 -26.87246,14.860629 -6.27007,4.200226 -13.78261,7.77474 -18.34629,13.764371 -1.16986,5.253968 -1.29053,11.33183 0.7832,16.179687 5.83853,-0.734212 10.09467,-5.693587 15.56525,-7.601068 6.77059,-3.742309 13.54099,-7.484967 20.3117,-11.227057 0,39.664066 0,79.328126 0,118.992186 -11.69266,0.61069 -23.79662,-0.88618 -35.18164,0.64844 -3.07145,5.89816 -1.97001,13.43501 -0.23437,19.43555 4.33791,2.52498 9.69758,-0.49107 14.49607,0.67922 26.84653,-0.17069 53.874298,0.59789 80.609397,-0.42336 3.282364,-5.96251 2.407403,-13.83365 0.103515,-19.78321 -4.179544,-2.16391 -9.131753,0.67187 -13.632812,-0.5039 -5.529912,-0.68041 -13.770034,1.35471 -17.630859,-0.99805 -0.132274,-47.60537 0.253066,-95.212036 -0.197266,-142.816407 -6.306342,-2.314085 -13.239855,-0.395671 -19.773435,-1.207031 z"
       id="path1287"
       inkscape:connector-curvature="0"
       fill="#a1a1a1"
       fill-opacity="0.329" />
  </g>
  <path
     inkscape:connector-curvature="0"
     id="path1055"
     d="m 27.605,111.29171 9.29852,-78.456299 70.02951,-2.905789"
     stroke-opacity="1"
     stroke-dasharray="none"
     fill="none"
     stroke="url(#linearGradient1083)"
     stroke-linejoin="miter"
     fill-opacity="0.329"
     stroke-linecap="butt"
     stroke-width="3.3"
     stroke-miterlimit="4" />
  <g
     id="g5068"
     transform="matrix(1,0,0,0.84396411,223.63314,19.833239)"
     font-family="Calibri"
     fill="url(#pattern2018)"
     stroke="none"
     font-style="normal"
     word-spacing="0"
     line-height="125%"
     fill-opacity="1"
     font-weight="bold"
     font-stretch="normal"
     letter-spacing="0"
     font-variant="normal"
     font-size="269.89">
    <path
       d="m -50.900307,197.45159 c -1.24e-4,2.45991 -0.131905,4.56839 -0.395341,6.32546 -0.263684,1.66922 -0.659025,3.03095 -1.186023,4.08519 -0.43939,0.96639 -0.966511,1.66922 -1.581364,2.10848 -0.615096,0.43927 -1.317923,0.6589 -2.108486,0.6589 h -94.091159 c -0.70286,0 -1.36176,-0.21963 -1.97671,-0.6589 -0.615,-0.43926 -1.18604,-1.14209 -1.71314,-2.10848 -0.43929,-1.05424 -0.79071,-2.41597 -1.05425,-4.08519 -0.26358,-1.75707 -0.39536,-3.86555 -0.39534,-6.32546 -2e-5,-2.54774 0.0878,-4.65622 0.26356,-6.32546 0.26354,-1.75705 0.61496,-3.1627 1.05425,-4.21697 0.5271,-1.05422 1.09814,-1.80097 1.71314,-2.24026 0.61495,-0.5271 1.31778,-0.79066 2.10849,-0.79069 h 31.75906 V 72.919167 l -27.41031,15.154739 c -2.02066,0.966511 -3.68988,1.581485 -5.00766,1.844925 -1.22997,0.175827 -2.24028,-0.08773 -3.03094,-0.790682 -0.70285,-0.79056 -1.18605,-2.108362 -1.44959,-3.95341 -0.26358,-1.844798 -0.39536,-4.436475 -0.39534,-7.775041 -2e-5,-2.10835 0.0439,-3.821492 0.13178,-5.139433 0.0878,-1.405517 0.30747,-2.591539 0.6589,-3.558069 0.3514,-0.966246 0.83459,-1.756928 1.44959,-2.372046 0.61495,-0.61483 1.44956,-1.273731 2.50382,-1.976705 l 36.63494,-23.720462 c 0.43921,-0.351244 0.96633,-0.614804 1.58136,-0.790682 0.70277,-0.26339 1.5813,-0.439096 2.63561,-0.527121 1.05418,-0.175536 2.4159,-0.263389 4.08519,-0.263561 1.757,-0.08768 3.99726,-0.131609 6.720797,-0.13178 3.338357,1.71e-4 6.017887,0.08802 8.038601,0.26356 2.1084,0.08803 3.689762,0.307659 4.744093,0.658902 1.054153,0.263731 1.75698,0.659072 2.108485,1.186023 0.351323,0.527291 0.52703,1.186192 0.527121,1.976705 V 183.87821 h 27.805652 c 0.790563,3e-5 1.49339,0.26359 2.108486,0.79069 0.702706,0.43929 1.273754,1.18604 1.713144,2.24026 0.526998,1.05427 0.878412,2.45992 1.054243,4.21697 0.263436,1.66924 0.395217,3.77772 0.395341,6.32546"
       id="path5070"
       inkscape:connector-curvature="0"
       fill="url(#pattern2018)"
       fill-opacity="1" />
  </g>
  <g
     transform="matrix(1,0,0,0.84396411,223.40613,20.270661)"
     id="g5875"
     font-family="Calibri"
     fill="#000000"
     stroke="none"
     font-style="normal"
     word-spacing="0"
     line-height="125%"
     fill-opacity="0.362"
     font-weight="bold"
     font-stretch="normal"
     letter-spacing="0"
     font-variant="normal"
     font-size="269.89">
    <path
       inkscape:connector-curvature="0"
       id="path5877"
       d="m -50.900307,197.45159 c -1.24e-4,2.45991 -0.131905,4.56839 -0.395341,6.32546 -0.263684,1.66922 -0.659025,3.03095 -1.186023,4.08519 -0.43939,0.96639 -0.966511,1.66922 -1.581364,2.10848 -0.615096,0.43927 -1.317923,0.6589 -2.108486,0.6589 h -94.091159 c -0.70286,0 -1.36176,-0.21963 -1.97671,-0.6589 -0.615,-0.43926 -1.18604,-1.14209 -1.71314,-2.10848 -0.43929,-1.05424 -0.79071,-2.41597 -1.05425,-4.08519 -0.26358,-1.75707 -0.39536,-3.86555 -0.39534,-6.32546 -2e-5,-2.54774 0.0878,-4.65622 0.26356,-6.32546 0.26354,-1.75705 0.61496,-3.1627 1.05425,-4.21697 0.5271,-1.05422 1.09814,-1.80097 1.71314,-2.24026 0.61495,-0.5271 1.31778,-0.79066 2.10849,-0.79069 h 31.75906 V 72.919167 l -27.41031,15.154739 c -2.02066,0.966511 -3.68988,1.581485 -5.00766,1.844925 -1.22997,0.175827 -2.24028,-0.08773 -3.03094,-0.790682 -0.70285,-0.79056 -1.18605,-2.108362 -1.44959,-3.95341 -0.26358,-1.844798 -0.39536,-4.436475 -0.39534,-7.775041 -2e-5,-2.10835 0.0439,-3.821492 0.13178,-5.139433 0.0878,-1.405517 0.30747,-2.591539 0.6589,-3.558069 0.3514,-0.966246 0.83459,-1.756928 1.44959,-2.372046 0.61495,-0.61483 1.44956,-1.273731 2.50382,-1.976705 l 36.63494,-23.720462 c 0.43921,-0.351244 0.96633,-0.614804 1.58136,-0.790682 0.70277,-0.26339 1.5813,-0.439096 2.63561,-0.527121 1.05418,-0.175536 2.4159,-0.263389 4.08519,-0.263561 1.757,-0.08768 3.99726,-0.131609 6.720797,-0.13178 3.338357,1.71e-4 6.017887,0.08802 8.038601,0.26356 2.1084,0.08803 3.689762,0.307659 4.744093,0.658902 1.054153,0.263731 1.75698,0.659072 2.108485,1.186023 0.351323,0.527291 0.52703,1.186192 0.527121,1.976705 V 183.87821 h 27.805652 c 0.790563,3e-5 1.49339,0.26359 2.108486,0.79069 0.702706,0.43929 1.273754,1.18604 1.713144,2.24026 0.526998,1.05427 0.878412,2.45992 1.054243,4.21697 0.263436,1.66924 0.395217,3.77772 0.395341,6.32546"
       stroke-opacity="1"
       fill="#000000"
       stroke="#3c3c3c"
       fill-opacity="0.362" />
  </g>
  <g
     font-size="7.5"
     font-variant="normal"
     letter-spacing="0"
     font-stretch="normal"
     font-weight="bold"
     line-height="125%"
     word-spacing="0"
     font-style="normal"
     transform="translate(65.861393,-42.219302)"
     id="text4330"
     stroke-opacity="1"
     font-family="STIX"
     fill="#000000"
     stroke="none"
     stroke-linejoin="miter"
     fill-opacity="1"
     stroke-linecap="butt"
     stroke-width="1">
    <path
       inkscape:connector-curvature="0"
       id="path4335"
       d="m -56.13327,39.467617 0,-0.1875 c -0.3075,0 -0.4425,-0.165 -0.825,-1.0725 l -1.665,-3.915 -0.21,0 -1.6575,4.0875 c -0.285,0.705 -0.3975,0.84 -0.7425,0.9 l 0,0.1875 1.515,0 0,-0.1875 c -0.4425,-0.03 -0.6075,-0.1125 -0.6075,-0.3075 0,-0.18 0.1425,-0.495 0.2325,-0.7275 l 0.0975,-0.255 1.6875,0 c 0.255,0.5925 0.345,0.855 0.345,1.02 0,0.165 -0.0975,0.225 -0.345,0.2475 l -0.24,0.0225 0,0.1875 2.415,0 z m -2.2875,-1.77 -1.4625,0 0.705,-1.8225 0.7575,1.8225 z" />
    <path
       inkscape:connector-curvature="0"
       id="path4337"
       d="m -55.760848,34.397617 0,0.1875 c 0.525,0.045 0.63,0.15 0.63,0.735 l 0,3.2025 c 0,0.3825 -0.045,0.5925 -0.2925,0.69 -0.0825,0.0375 -0.195,0.0525 -0.3375,0.0675 l 0,0.1875 2.4975,0 0,-0.1875 c -0.5925,-0.075 -0.6525,-0.1425 -0.6525,-0.645 l 0,-1.44 c 0.99,-0.0075 1.245,-0.03 1.5675,-0.15 0.6225,-0.2325 0.9675,-0.69 0.9675,-1.29 0,-0.915 -0.765,-1.3575 -2.0175,-1.3575 l -2.3625,0 z m 1.845,0.525 c 0,-0.1725 0.1275,-0.2625 0.375,-0.2625 0.6225,0 0.87,0.345 0.87,1.1775 0,0.8325 -0.3075,1.0875 -1.245,1.095 l 0,-2.01 z" />
  </g>
  <g
     id="g2027"
     transform="translate(-1.4528944,2.9057889)"
     filter="url(#filter2037)">
    <path
       inkscape:connector-curvature="0"
       sodipodi:nodetypes="cccc"
       id="path2766"
       d="M 145.90482,103.144 C 160.11383,86.567489 188.36866,30.177613 172.2431,8.8529319 193.0742,22.762796 214.57062,36.273455 221.75908,58.368905 205.50493,68.531788 173.35602,109.85965 145.90482,103.144 Z"
       fill="url(#linearGradient3210)"
       fill-rule="evenodd"
       stroke="none"
       fill-opacity="1"
       stroke-width="0.966" />
    <path
       inkscape:connector-curvature="0"
       d="m 151.69925,93.662218 c 14.53363,-16.473747 36.97901,-61.270847 18.96355,-83.228992 20.8311,13.909865 42.32753,27.420534 49.51598,49.515983 -19.98652,7.995772 -40.83334,42.263551 -68.47953,33.713009 z"
       id="path2764"
       sodipodi:nodetypes="cccc"
       fill="url(#linearGradient3212)"
       fill-rule="evenodd"
       stroke="none"
       fill-opacity="1"
       stroke-width="0.966" />
    <path
       inkscape:connector-curvature="0"
       sodipodi:nodetypes="cccc"
       id="path1877"
       d="m 156.44014,82.600137 c 12.83078,-16.852159 22.84816,-52.236892 16.32973,-71.640146 20.8311,13.909864 42.32753,27.420533 49.51598,49.515983 -20.79836,8.006212 -41.19537,29.253167 -65.84571,22.124163 z"
       fill="url(#linearGradient3214)"
       fill-rule="evenodd"
       stroke="none"
       fill-opacity="1"
       stroke-width="0.966" />
  </g>
  <path
     sodipodi:nodetypes="cccc"
     id="path1875"
     d="M 162.76132,65.216868 C 175.5921,48.364709 178.76153,29.309715 172.2431,9.9064616 193.0742,23.816326 214.57062,37.326995 221.75908,59.422445 200.4555,65.913011 186.3335,69.11141 162.76132,65.216868 Z"
     inkscape:connector-curvature="0"
     stroke-dasharray="none"
     stroke-opacity="0.848"
     fill="url(#radialGradient3216)"
     fill-rule="evenodd"
     stroke="url(#linearGradient4307)"
     stroke-linejoin="round"
     fill-opacity="1"
     stroke-linecap="butt"
     stroke-width="2"
     stroke-miterlimit="4" />
</svg>
