<?xml version="1.0" encoding="UTF-8" standalone="no"?>
<!-- Created with Inkscape (http://www.inkscape.org/) -->

<svg
   xmlns:dc="http://purl.org/dc/elements/1.1/"
   xmlns:cc="http://creativecommons.org/ns#"
   xmlns:rdf="http://www.w3.org/1999/02/22-rdf-syntax-ns#"
   xmlns:svg="http://www.w3.org/2000/svg"
   xmlns="http://www.w3.org/2000/svg"
   xmlns:sodipodi="http://sodipodi.sourceforge.net/DTD/sodipodi-0.dtd"
   xmlns:inkscape="http://www.inkscape.org/namespaces/inkscape"
   id="svg2"
   sodipodi:version="0.32"
   inkscape:version="0.91 r13725"
   width="256"
   height="256"
   version="1.0"
   sodipodi:docname="DrawerPál.svg"
   inkscape:output_extension="org.inkscape.output.svg.inkscape">
  <metadata
     id="metadata7">
    <rdf:RDF>
      <cc:Work
         rdf:about="">
        <dc:format>image/svg+xml</dc:format>
        <dc:type
           rdf:resource="http://purl.org/dc/dcmitype/StillImage" />
      </cc:Work>
    </rdf:RDF>
  </metadata>
  <defs
     id="defs5">
    <inkscape:perspective
       sodipodi:type="inkscape:persp3d"
       inkscape:vp_x="0 : 526.18109 : 1"
       inkscape:vp_y="0 : 1000 : 0"
       inkscape:vp_z="744.09448 : 526.18109 : 1"
       inkscape:persp3d-origin="372.04724 : 350.78739 : 1"
       id="perspective9" />
  </defs>
  <sodipodi:namedview
     inkscape:window-height="1056"
     inkscape:window-width="1920"
     inkscape:pageshadow="2"
     inkscape:pageopacity="0.0"
     guidetolerance="10.0"
     gridtolerance="10.0"
     objecttolerance="10.0"
     borderopacity="1.0"
     bordercolor="#666666"
     pagecolor="#ffffff"
     id="base"
     showgrid="false"
     inkscape:zoom="3.3984375"
     inkscape:cx="178.39298"
     inkscape:cy="126.97011"
     inkscape:window-x="0"
     inkscape:window-y="0"
     inkscape:current-layer="svg2"
     inkscape:window-maximized="1" />
  <path
     inkscape:connector-curvature="0"
     style="fill:#030303"
     d="m 44.806251,246.53394 c -0.79932,-0.32627 -0.989,-2.24982 -0.59667,-6.05109 0.50129,-4.85704 0.30696,-5.78083 -1.51304,-7.19273 -1.85928,-1.44236 -2.89873,-7.01254 -9.48203,-50.81164 l -7.39384,-49.19169 -4.92129,-5.61926 c -9.47845,-10.82275 -9.13202,-8.02268 -3.0308,-24.49735 9.49438,-25.636934 8.71925,-24.173136 14.46332,-27.313467 5.11176,-2.794644 5.14619,-2.846249 5.14619,-7.712487 0,-10.305 6.95573,-22.31231 13.65319,-23.56876 8.11374,-1.522148 13.71767,4.799431 13.3045,15.00831 -0.32229,7.963602 -0.21272,8.241414 4.40192,11.160853 3.87899,2.454033 5.01791,4.152855 10.33096,15.409695 l 5.97135,12.6516 8.65954,4.682126 c 6.496519,3.51261 9.736169,4.68213 12.969769,4.68213 4.12165,0 4.40647,0.19807 6.5095,4.52675 2.8088,5.78135 2.78639,5.98742 -0.81345,7.47852 -1.66597,0.69007 -3.2133,2.19712 -3.46142,3.37132 -0.24679,1.16788 -3.40954,25.5234 -7.02833,54.1234 -7.590529,59.98933 -7.193759,57.5 -9.164879,57.5 -1.17997,0 -1.38161,-0.81659 -0.926,-3.75 0.32035,-2.0625 2.82572,-25.125 5.56748,-51.25 2.741769,-26.125 5.238279,-49.35571 5.547799,-51.62379 l 0.56276,-4.12379 -8.792339,-0.97622 c -4.8358,-0.53692 -8.98178,-0.81679 -9.2133,-0.62193 -0.23152,0.19487 -1.44386,7.43986 -2.69409,16.10001 -1.83211,12.69073 -2.41037,22.43942 -2.98042,50.24572 -0.69991,34.14098 -0.73171,34.5322 -3.05591,37.59439 -1.93163,2.54498 -3.37177,9.40561 -1.97436,9.40561 0.20585,0 2.14904,-0.62617 4.3182,-1.3915 6.03588,-2.12958 9.75206,0.95088 5.55753,4.60682 -1.46639,1.2781 -16.38946,6.78468 -18.38678,6.78468 -0.34648,0 -0.857,-0.86822 -1.1345,-1.92938 -0.49062,-1.87614 -0.71569,-1.86234 -8.15473,0.5 -7.52548,2.38978 -9.92383,2.74097 -12.24583,1.79315 z m 17.09005,-9.97076 c 1.68884,-0.64807 2.21217,-3.39301 0.64689,-3.39301 -1.9872,0 -6.0651,2.00043 -6.0651,2.97525 0,1.13336 2.95888,1.36149 5.41821,0.41776 z M 211.48417,29.019521 c -0.003,-0.357863 1.64906,-1.042094 3.67202,-1.520513 l 3.67811,-0.869852 -5.60337,-4.787111 c -5.70735,-4.87594 -11.5373,-11.671863 -10.01282,-11.671863 1.04646,0 15.79423,9.268534 18.17265,11.420977 3.29575,2.982609 9.85916,2.000636 19.38292,-2.899942 4.78742,-2.463431 8.7044,-4.247599 8.7044,-3.964817 0,0.282782 -0.69694,1.577808 -1.54875,2.877837 -1.6346,2.494714 -3.94191,3.597892 -11.72993,5.608332 -2.62827,0.678476 -4.55187,1.460392 -4.27468,1.73759 0.2772,0.277199 -1.52029,1.58161 -3.99442,2.898692 -3.57816,1.904802 -5.71989,2.336046 -10.46923,2.108012 -3.28395,-0.157674 -5.97355,-0.579478 -5.9769,-0.937342 z"
     id="path2384" />
</svg>
