<?xml version="1.0" encoding="UTF-8" standalone="no"?>
<!-- Created with Inkscape (http://www.inkscape.org/) -->

<svg
   xmlns:dc="http://purl.org/dc/elements/1.1/"
   xmlns:cc="http://creativecommons.org/ns#"
   xmlns:rdf="http://www.w3.org/1999/02/22-rdf-syntax-ns#"
   xmlns:svg="http://www.w3.org/2000/svg"
   xmlns="http://www.w3.org/2000/svg"
   xmlns:xlink="http://www.w3.org/1999/xlink"
   xmlns:sodipodi="http://sodipodi.sourceforge.net/DTD/sodipodi-0.dtd"
   xmlns:inkscape="http://www.inkscape.org/namespaces/inkscape"
   height="256"
   id="svg1"
   inkscape:version="0.91 r13725"
   sodipodi:docname="gnome-mime-image-vnd.svg"
   sodipodi:version="0.32"
   width="256"
   x="0"
   y="0"
   inkscape:output_extension="org.inkscape.output.svg.inkscape"
   version="1.1">
  <metadata
     id="metadata3">
    <rdf:RDF>
      <cc:Work>
        <dc:title />
        <dc:description />
        <dc:subject>
          <rdf:Bag>
            <rdf:li>hash</rdf:li>
            <rdf:li />
            <rdf:li>computer</rdf:li>
            <rdf:li>mimetypes</rdf:li>
            <rdf:li>icons</rdf:li>
            <rdf:li>theme</rdf:li>
          </rdf:Bag>
        </dc:subject>
        <dc:publisher>
          <cc:Agent
             rdf:about="http://www.openclipart.org">
            <dc:title />
          </cc:Agent>
        </dc:publisher>
        <dc:creator>
          <cc:Agent>
            <dc:title />
          </cc:Agent>
        </dc:creator>
        <dc:rights>
          <cc:Agent>
            <dc:title />
          </cc:Agent>
        </dc:rights>
        <dc:date />
        <dc:format>image/svg+xml</dc:format>
        <dc:type
           rdf:resource="http://purl.org/dc/dcmitype/StillImage" />
        <cc:license />
        <dc:language>en</dc:language>
      </cc:Work>
    </rdf:RDF>
  </metadata>
  <sodipodi:namedview
     id="base"
     inkscape:cx="128"
     inkscape:cy="128"
     inkscape:window-height="1056"
     inkscape:window-width="1920"
     inkscape:window-x="0"
     inkscape:window-y="0"
     inkscape:zoom="3.5351562"
     width="256"
     height="256"
     inkscape:current-layer="svg1"
     showgrid="false"
     inkscape:window-maximized="1" />
  <defs
     id="defs3">
    <linearGradient
       id="linearGradient1933">
      <stop
         id="stop1935"
         stop-color="#979797"
         stop-opacity="1" />
      <stop
         offset="1"
         id="stop1937"
         stop-color="#000000"
         stop-opacity="1" />
    </linearGradient>
    <filter
       id="filter3287"
       inkscape:collect="always">
      <feGaussianBlur
         id="feGaussianBlur3289"
         inkscape:collect="always" />
    </filter>
    <linearGradient
       inkscape:collect="always"
       id="linearGradient2459">
      <stop
         id="stop2461"
         stop-color="#0000ff"
         stop-opacity="1" />
      <stop
         offset="1"
         id="stop2463"
         stop-color="#0000ff"
         stop-opacity="0" />
    </linearGradient>
    <linearGradient
       id="linearGradient3267">
      <stop
         id="stop3269"
         stop-color="#ffffff"
         stop-opacity="0" />
      <stop
         offset="0.813"
         id="stop3275"
         stop-color="#ffffff"
         stop-opacity="0" />
      <stop
         id="stop3277"
         offset="0.959"
         stop-color="#ffffff"
         stop-opacity="0.649" />
      <stop
         id="stop3271"
         offset="1"
         stop-color="#ffffff"
         stop-opacity="0" />
    </linearGradient>
    <radialGradient
       inkscape:collect="always"
       xlink:href="#linearGradient2459"
       id="radialGradient4629"
       gradientUnits="userSpaceOnUse"
       gradientTransform="matrix(2.0738773,-0.00339004,0.00123592,0.6727833,-855.15295,-144.1275)"
       cx="795.12"
       cy="1042.17"
       fx="795.12"
       fy="1042.17"
       r="851.96" />
    <radialGradient
       inkscape:collect="always"
       xlink:href="#linearGradient2459"
       id="radialGradient4631"
       gradientUnits="userSpaceOnUse"
       gradientTransform="matrix(1.6306916,0.00964713,-0.00250368,0.4983625,-456.59463,-576.9781)"
       cx="723.43"
       cy="-132.91"
       fx="723.43"
       fy="-132.91"
       r="857.84" />
    <radialGradient
       inkscape:collect="always"
       xlink:href="#linearGradient3267"
       id="radialGradient4633"
       gradientUnits="userSpaceOnUse"
       gradientTransform="matrix(0.9332897,-1.1965687,0.8245462,0.6431228,-441.76586,2020.0057)"
       cx="1583.29"
       cy="655.76"
       fx="1583.29"
       fy="655.76"
       r="147.86" />
    <linearGradient
       inkscape:collect="always"
       xlink:href="#linearGradient1933"
       id="linearGradient3579"
       gradientUnits="userSpaceOnUse"
       gradientTransform="matrix(0.973231,0,0,0.973231,337.95048,-0.8384064)"
       x1="135.5"
       y1="29.52"
       x2="135.5"
       y2="37.19"
       spreadMethod="reflect" />
    <linearGradient
       inkscape:collect="always"
       xlink:href="#linearGradient1933"
       id="linearGradient3581"
       gradientUnits="userSpaceOnUse"
       gradientTransform="matrix(0.973231,0,0,0.973231,337.95048,167.77153)"
       x1="135.5"
       y1="29.52"
       x2="135.5"
       y2="37.16"
       spreadMethod="reflect" />
    <linearGradient
       inkscape:collect="always"
       xlink:href="#linearGradient1933"
       id="linearGradient3583"
       gradientUnits="userSpaceOnUse"
       gradientTransform="matrix(0.7974217,0,0,0.973231,16.549777,-381.98692)"
       x1="135.5"
       y1="29.52"
       x2="135.5"
       y2="36.749"
       spreadMethod="reflect" />
    <linearGradient
       inkscape:collect="always"
       xlink:href="#linearGradient1933"
       id="linearGradient3587"
       gradientUnits="userSpaceOnUse"
       gradientTransform="matrix(0.7974217,0,0,0.973231,16.078801,-609.46908)"
       x1="135.5"
       y1="29.52"
       x2="135.5"
       y2="37.845"
       spreadMethod="reflect" />
    <radialGradient
       inkscape:collect="always"
       xlink:href="#linearGradient1933"
       id="radialGradient3589"
       gradientUnits="userSpaceOnUse"
       gradientTransform="matrix(0.973231,0,0,0.9097598,337.95048,1.4192131)"
       spreadMethod="reflect"
       cx="15.97"
       cy="31.945"
       fx="15.97"
       fy="31.945"
       r="11.13" />
    <radialGradient
       inkscape:collect="always"
       xlink:href="#linearGradient1933"
       id="radialGradient3591"
       gradientUnits="userSpaceOnUse"
       gradientTransform="matrix(0.973231,0,0,0.9097598,562.60674,2.3611684)"
       spreadMethod="reflect"
       cx="15.97"
       cy="31.945"
       fx="15.97"
       fy="31.945"
       r="11.13" />
    <radialGradient
       inkscape:collect="always"
       xlink:href="#linearGradient1933"
       id="radialGradient3593"
       gradientUnits="userSpaceOnUse"
       gradientTransform="matrix(0.973231,0,0,0.9097598,561.66475,168.14525)"
       spreadMethod="reflect"
       cx="15.97"
       cy="31.945"
       fx="15.97"
       fy="31.945"
       r="11.13" />
    <radialGradient
       inkscape:collect="always"
       xlink:href="#linearGradient1933"
       id="radialGradient3595"
       gradientUnits="userSpaceOnUse"
       gradientTransform="matrix(0.973231,0,0,0.9097598,337.9504,168.14525)"
       spreadMethod="reflect"
       cx="15.97"
       cy="31.945"
       fx="15.97"
       fy="31.945"
       r="11.13" />
    <filter
       inkscape:collect="always"
       id="filter4328"
       x="-0.022058722"
       width="1.0441174"
       y="-0.026315935"
       height="1.0526319"
       color-interpolation-filters="sRGB">
      <feGaussianBlur
         inkscape:collect="always"
         id="feGaussianBlur4330"
         stdDeviation="1.9444405" />
    </filter>
  </defs>
  <g
     id="layer1"
     inkscape:label="1. réteg"
     transform="translate(8.810563,-0.467953)" />
  <path
     d="m 40.045086,57.194224 c -2.124643,0 -3.846481,1.804914 -3.846481,4.032098 l 0,11.168928 c 0,2.074196 1.503357,3.768365 3.423376,3.991793 l 0,138.986677 c -1.920019,0.22343 -3.423376,1.91758 -3.423376,3.99178 l 0,11.16893 c 0,2.22718 1.721838,3.99179 3.846481,3.99179 l 10.923984,0 c 1.677774,0 3.092784,-1.09414 3.615685,-2.66118 l 173.976055,0 c 0.5229,1.56704 1.93791,2.66118 3.6157,2.66118 l 10.92396,0 c 2.12465,0 3.84648,-1.76461 3.84648,-3.99179 l 0,-11.16893 c 0,-1.61846 -0.92189,-2.99044 -2.23095,-3.6289 l 0,-138.502818 c 1.73274,-0.387922 3.03871,-2.015997 3.03871,-3.951457 l 0,-11.168943 c 0,-2.227184 -1.72182,-3.991778 -3.84647,-3.991778 l -10.92398,0 c -1.82963,0 -3.34356,1.31319 -3.73108,3.104718 l -174.437629,0 c 0,-2.227184 -1.721852,-4.032098 -3.846481,-4.032098 l -10.923984,0 z"
     id="rect10662"
     inkscape:connector-curvature="0"
     transform="matrix(1.0878053,0,0,1.0878053,-27.707988,-25.141407)"
     fill="#000000"
     filter="url(#filter4328)"
     stroke="none"
     fill-opacity="0.687"
     style="filter:url(#filter4328)" />
  <g
     id="g4435"
     transform="matrix(0.1239767,0,0,0.15869617,27.229669,43.990566)">
    <rect
       id="rect2453"
       width="1696.08"
       height="1064.71"
       x="-3.922"
       y="-4.902"
       stroke-opacity="1"
       fill="#000000"
       fill-rule="evenodd"
       stroke="#000000"
       stroke-linejoin="miter"
       stroke-linecap="butt"
       stroke-width="1" />
    <rect
       id="rect2457"
       width="1703.92"
       height="608.53"
       x="-3.922"
       y="-10.784"
       fill="url(#radialGradient4629)"
       fill-opacity="1" />
    <path
       d="m -26.85805,384.10734 c 58.154768,10.25475 105.210725,41.97121 161.12792,58.75414 191.71479,43.70989 36.42071,56.54127 318.58974,108.90872 2.78772,0.52555 4.61573,1.50364 7.6547,1.46907 54.24396,15.35587 111.6383,8.72545 164.7807,26.25785 4.73553,1.67238 11.41293,2.1437 37.36429,2.6373 8.28801,3.23581 20.57459,-3.3532 28.33406,-0.29562 1.51516,0.44808 15.24675,-2.96795 15.41504,-3.09441 0.8433,-1.31237 3.47448,-1.5895 23.37665,-2.46215 18.74386,-0.82185 21.81067,-1.07125 23.17953,-1.88496 52.27269,-5.48985 101.85805,6.98655 155.87244,-5.14398 3.30822,-0.83045 10.09327,-3.76586 14.09612,-4.06887 15.30836,0.77935 30.04303,-4.51597 45.07852,-5.52482 5.58466,-0.20414 30.0882,-6.51802 34.89194,-8.99066 11.3013,-3.80739 23.0008,-6.28294 34.1995,-10.43366 4.6239,-1.87181 10.1996,-3.02406 19.0789,-3.94272 9.1208,-0.94365 16.0938,-2.40977 25.5421,-5.37045 23.2676,-7.29098 40.791,-10.50005 63.4218,-11.61444 37.3022,-1.83683 44.0173,-1.83708 51.4652,-0.002 5.1743,1.27492 11.4853,1.818 21.8338,1.87884 13.0877,0.077 15.3947,-0.18116 22.8734,-2.55891 14.303,-4.54746 30.8066,-8.10358 40.8898,-8.81083 5.3344,-0.37415 10.013,-1.10048 10.3971,-1.61407 17.1729,-9.1461 37.5576,-12.7992 56.3223,-17.97396 10.579,-2.91943 22.2756,-5.80632 25.9925,-6.41531 11.7867,-2.1878 23.4894,-4.73346 35.35,-6.51485 15.0826,-2.12942 16.07,-2.37153 18.4805,-4.53149 1.1697,-1.048 78.4505,-50.21114 82.8909,-52.31256 25.123,-13.51838 49.2479,-28.53385 70.1157,-48.435 37.2752,-34.59566 63.8206,-18.28647 75.6732,-6.44998 11.8525,11.83648 22.2653,31.24846 67.0344,39.00294 l 2.1523,192.82582 C 901.52101,596.96796 788.92414,597.17468 -24.421597,594.8772 -27.68307,519.18876 -28.732996,468.68334 -26.85805,384.10734 Z"
       id="path2451"
       sodipodi:nodetypes="ccccccccsccccccsssssssccccsccccccc"
       inkscape:connector-curvature="0"
       fill="#000000" />
    <rect
       y="-1063.73"
       x="-9.804"
       height="465.98"
       width="1715.69"
       id="rect2467"
       transform="scale(1,-1)"
       fill="url(#radialGradient4631)"
       fill-opacity="1" />
    <path
       sodipodi:nodetypes="ccccccccsccccccsssssssccccsccccccc"
       id="path2402"
       d="m -26.85805,805.07876 c 58.154768,-10.25475 105.210725,-41.97121 161.12792,-58.75414 191.71479,-43.70989 36.42071,-56.54127 318.58974,-108.90872 2.78772,-0.52555 4.61573,-1.50364 7.6547,-1.46907 54.24396,-15.35587 111.6383,-8.72545 164.7807,-26.25785 4.73553,-1.67238 11.41293,-2.1437 37.36429,-2.6373 8.28801,-3.23581 20.57459,3.3532 28.33406,0.29562 1.51516,-0.44808 15.24675,2.96795 15.41504,3.09441 0.8433,1.31237 3.47448,1.5895 23.37665,2.46215 18.74386,0.82185 21.81067,1.07125 23.17953,1.88496 52.27269,5.48985 101.85805,-6.98655 155.87244,5.14398 3.30822,0.83045 10.09327,3.76586 14.09612,4.06887 15.30836,-0.77935 30.04303,4.51597 45.07852,5.52482 5.58466,0.20414 30.0882,6.51802 34.89194,8.99066 11.3013,3.80739 23.0008,6.28294 34.1995,10.43366 4.6239,1.87181 10.1996,3.02406 19.0789,3.94272 9.1208,0.94365 16.0938,2.40977 25.5421,5.37045 23.2676,7.29098 40.791,10.50005 63.4218,11.61444 37.3022,1.83683 44.0173,1.83708 51.4652,0.002 5.1743,-1.27492 11.4853,-1.818 21.8338,-1.87884 13.0877,-0.077 15.3947,0.18116 22.8734,2.55891 14.303,4.54746 30.8066,8.10358 40.8898,8.81083 5.3344,0.37415 10.013,1.10048 10.3971,1.61407 17.1729,9.1461 37.5576,12.7992 56.3223,17.97396 10.579,2.91943 22.2756,5.80632 25.9925,6.41531 11.7867,2.1878 23.4894,4.73346 35.35,6.51485 15.0826,2.12942 16.07,2.37153 18.4805,4.53149 1.1697,1.048 78.4505,50.21114 82.8909,52.31256 25.123,13.51838 49.2479,28.53385 70.1157,48.435 37.2752,34.59566 63.8206,18.28647 75.6732,6.44998 11.8525,-11.83648 22.2653,-31.24846 67.0344,-39.00294 l 24.7013,-184.06829 c -825.09597,-1.06439 -966.05338,-1.27111 -1781.430734,-1.33635 -3.261473,75.68844 3.531738,121.2919 5.406684,205.8679 z"
       inkscape:connector-curvature="0"
       fill="#000000"
       filter="url(#filter3287)" />
    <g
       id="g4227">
      <g
         inkscape:label="Ebene 1"
         id="g4443"
         transform="matrix(0.3922715,0,0,0.3573915,-260.47913,318.35258)"
         fill="#000000"
         fill-opacity="1">
        <path
           sodipodi:nodetypes="cccccccccccccccccccccccccccccccccccccccccccccccccccccccccccccccccccccccccccccccccccccccccccccccccccccccccccccccccccccsccccccccccccccccccccccccccccccccsccccccccccccccccccccccccccccccccccccccccccccccccccccccccccccccccccccccccccccccccccccccccccccccccccccccccccccccccccccccccccccccccccccccccccccccccccccccccccccccccccccccccccccc"
           id="path4445"
           d="m 665.88995,18.401396 c -0.31739,5.994606 -0.37332,11.999208 -0.5,17.999998 -2.70039,-2.430283 -4.8336,-5.910396 -8.10988,-7.391876 -1.75508,6.467532 7.418,9.544773 7.32641,15.903322 0.74846,2.272299 0.003,11.380095 -1.79546,4.742093 -3.49077,-1.778905 -0.375,-12.37378 -6.01484,-9.816038 0.61196,8.643705 -7.67331,-4.378792 -9.10846,1.819583 1.01227,4.667113 9.85347,9.226003 2.81335,12.304471 0.0238,4.075215 4.82713,2.573176 6.40728,0.909049 0.97846,2.720399 0.91403,8.132194 -3.01842,4.404397 -5.26728,-4.37155 -4.4247,3.452014 -0.74999,4.875 3.4783,2.421583 1.36332,1.763423 -1.19583,2.383833 -3.18868,5.229023 -8.9309,-3.369404 -13.13556,-4.25214 -6.48713,-2.638633 -2.07789,6.159435 1.95891,6.624324 1.0156,0.934555 -7.53721,0.332406 -4.80647,3.847269 2.95662,0.115117 4.36405,1.387463 6.57637,2.449857 -4.22393,1.362905 5.11908,4.272095 1.39843,4.544637 -3.20119,0.09622 -10.28027,2.138602 -4.87081,5.432231 3.71532,-1.099766 6.97366,-0.555144 9.82496,1.594989 1.41558,-0.772515 5.90923,-3.134991 5.99155,-1.519142 -2.65569,1.319981 -5.47601,5.745702 -0.28445,4.753522 3.43538,-2.649194 3.07898,-1.326469 2.74064,2.249399 2.59725,2.378089 3.70993,-2.81882 4.9634,-0.03974 1.54814,-1.762797 2.47335,-5.84301 3.49125,-1.54632 3.55121,6.774841 -7.62259,4.23138 -11.34955,5.034248 -5.75988,0.979464 -9.99098,-6.793015 -15.40631,-4.553879 -1.46555,2.350351 7.35412,4.78735 4.05914,4.441721 -5.87098,-0.687532 -10.95154,-4.009688 -15.5492,-7.444719 -2.88326,-1.754018 -4.79043,1.667845 -2.66308,3.581728 -2.91265,1.329204 -15.67937,0.34944 -8.30386,5.185624 4.02647,1.988421 8.54795,1.518201 12.81048,0.795057 -2.99528,0.845555 -8.41265,6.164896 -2.3819,6.221736 3.02646,-0.0699 7.96784,-7.205164 8.95044,-3.938302 -3.49304,0.830522 -6.27752,3.608012 -2.41052,5.761662 0.33581,5.52736 6.07713,-1.44839 9.43134,-1.03905 1.53876,-1.70341 5.79465,-4.0543 2.49347,-0.43465 -2.85125,1.109 -8.86035,6.64375 -2.18771,5.93585 2.53084,-1.76055 3.77923,-2.9449 2.82774,1.05465 2.91877,1.25463 4.27056,-6.22477 7.15606,-2.72386 3.4264,-3.04491 10.49816,-1.13888 12.426,-6.91382 0.99421,-6.292154 2.39468,4.52686 -1.74244,4.85703 -4.76297,4.074 -10.42977,6.82026 -15.93748,9.71875 -3.78217,-1.73669 -7.38194,-4.14064 -11.44969,-5.05549 -2.49909,2.11549 5.66451,7.74143 -0.34872,3.97003 -3.28281,1.33224 -10.03387,-5.81264 -9.06534,0.78242 -3.33198,0.87136 -11.39989,-3.03907 -9.81729,3.5527 3.61989,-0.6772 3.38735,0.18836 1.05266,2.57 0.67856,2.08087 6.83336,-0.87396 4.77425,3.60691 3.11729,-0.69276 4.60633,-0.0953 4.10889,3.02433 3.36549,-3.19257 9.64664,2.07798 4.7515,4.68304 -2.92272,-4.3343 -7.89577,-1.36714 -11.07032,-0.91519 2.17582,1.61132 5.35526,6.74644 1.61344,8.00926 -2.2164,-2.58739 -11.42541,-7.90403 -7.35149,-0.64087 -2.50192,1.96456 -11.94902,-3.47348 -10.47454,1.01472 2.28521,3.30505 10.12668,1.41649 6.69987,6.1474 3.15633,0.8268 5.88949,0.52226 7.57729,3.18754 2.58568,-0.56731 4.35807,1.05135 4.20933,3.49767 1.74265,-1.5061 3.49649,-4.96151 4.27642,-1.26517 3.95958,1.27439 4.91474,8.144 9.54313,8.89439 1.49961,5.25363 6.86094,-0.86448 6.91895,-0.49968 -3.80458,5.02977 -10.83165,5.39217 -16.52767,6.68928 -4.33185,2.72359 -9.98944,-5.53728 -12.26482,-1.57253 2.13819,7.12114 -11.37075,-2.31991 -9.32819,4.47588 3.76477,0.69556 3.96241,4.57706 5.20358,6.34336 5.3501,-2.19385 1.99284,6.84125 7.86572,3.88726 2.53021,-1.59767 3.20821,-2.10226 1.5777,0.7845 -0.2775,4.11769 10.89959,-0.21142 4.33783,3.98449 -5.42105,3.32613 -10.72701,-0.68443 -15.5204,-1.22674 1.87897,5.23699 -12.16576,-0.95731 -6.67113,4.03346 5.34889,-0.0674 3.70772,8.52201 9.59778,5.41203 3.03744,-1.42686 0.43253,6.15985 4.86651,3.22365 1.35757,0.65406 -1.0003,4.30453 2.54338,2.54883 3.73661,3.97297 6.7622,-4.30304 10.94435,-4.92485 3.03925,-0.89309 6.3417,3.8527 1.30201,2.55862 -7.83582,-0.99664 4.14288,8.3661 -3.7251,7.22188 -4.48722,3.58608 -9.95531,4.54765 -15.58712,4.81335 -3.53367,1.87756 -9.25127,-0.91269 -9.69416,4.73721 -3.55154,1.22738 -14.97464,0.3672 -6.26601,4.69566 3.68615,1.4472 8.08087,0.96344 3.55617,5.04504 2.12804,0.36683 5.02198,-0.0266 4.13938,2.91848 4.0047,-0.74643 9.62533,-2.16875 9.5188,2.72549 2.78096,-0.71898 4.11469,-7.1059 4.25536,-1.01253 3.40195,2.73265 9.20915,1.0158 9.78281,-3.77187 0.77357,-1.79654 1.4109,2.89688 2.11363,3.90853 1.6745,-2.05993 4.61353,-7.14219 4.18307,-1.07133 2.28211,1.94385 3.70532,-8.02507 4.38156,-2.65509 2.53034,-0.74055 7.84187,-0.84195 3.19238,2.22687 -4.81243,2.81596 -10.23012,3.70762 -15.20228,5.40176 -2.79754,-0.63504 -8.35276,0.62839 -3.56959,3.38076 1.93789,1.4543 10.90902,0.62476 4.85945,3.2078 -12.7557,2.37443 -25.91019,0.97576 -38.68048,3.23468 -1.77517,1.982 -9.43224,0.008 -4.29446,3.72208 2.2871,0.76242 9.27813,1.72062 3.58965,3.66266 -1.26071,1.07264 -6.31062,4.67631 -1.76908,3.3011 3.39396,-0.83618 5.30296,1.75611 8.21602,1.96372 1.33127,3.86902 9.2861,-5.64623 5.01344,0.70054 -3.04857,4.05003 3.94745,1.95785 5.10067,0.51361 1.47143,4.9966 5.49878,3.67629 8.5593,0.70512 3.17551,-2.59183 -1.47064,4.65211 1.42764,5.1905 2.75326,0.3974 8.84427,-7.22381 5.46293,-0.7955 0.16473,2.60828 4.8726,0.24392 6.34694,2.36576 2.04003,-4.51014 3.86962,3.59622 7.51729,0.83718 5.06866,1.32663 -6.74823,4.52837 -8.96101,5.20775 -6.1679,0.97774 -13.26105,4.41595 -19.18595,1.24379 -2.22337,-2.97462 -8.22042,-1.5118 -3.03125,1.1875 1.01909,1.50266 -7.39787,-0.93678 -9.85337,-0.28563 -3.9593,0.28085 -9.05833,-3.05974 -12.14645,-1.9104 3.18728,3.97216 8.38161,5.35714 13.24983,5.91479 -2.33889,0.33921 -8.50841,-0.81989 -6.98595,2.85608 2.5159,1.44595 10.41481,0.23143 4.72139,4.02457 0.41994,2.94011 5.58147,-2.61652 5.43912,2.14018 3.48748,1.19814 12.4858,-4.29006 6.76664,1.16728 2.70738,-0.30691 4.8175,0.40415 5.26087,2.95143 1.32593,-0.12798 6.02287,-6.75574 3.50324,-2.69398 -2.28339,2.44894 -3.2711,7.44371 1.72057,4.94657 2.54582,-0.87155 6.63166,-5.34814 4.12318,0.013 -3.38991,4.97703 -10.42707,4.96967 -15.64238,7.02939 -5.93666,1.918 -11.3207,-3.26048 -17.3655,-2.09031 -2.83032,0.55374 2.6065,4.53237 -1.68795,2.96325 -3.04593,-1.57454 -13.75321,-3.28626 -7.67834,2.16369 2.84916,2.35282 0.27082,1.3854 -1.76864,0.74764 -2.54487,-1.38706 -14.46121,-1.67365 -8.0087,2.17176 3.29643,1.62177 6.98061,2.01581 10.60245,1.85949 -1.87758,1.5636 -7.28021,4.97275 -3.86003,6.82613 3.86966,-1.45686 1.23006,5.91688 6.08229,4.62337 2.45335,3.44603 5.87718,1.17719 7.79596,-0.71708 11.02923,53.81544 252.95077,-17.02556 190.66705,0.31392 -5.11811,-0.22916 -10.79824,1.55694 -15.55905,0.17582 4.30624,-7.11872 -6.24907,-1.45958 -9.44671,-1.83057 -8.44392,-0.11053 -16.38644,-3.72469 -24.29948,-6.32903 -2.14593,-0.66034 -9.91056,-3.7236 -6.69541,-5.75537 3.36632,-0.22167 6.38002,-0.95285 10.02105,1.45627 4.34908,0.62832 12.54007,2.66452 15.13354,0.28689 -4.52326,-6.57671 5.35122,6.60025 5.10177,-0.54904 3.49779,3.92301 9.12954,0.46714 11.11008,-2.27621 -5.22641,-3.71989 0.99578,-0.72301 3.31594,-1.00345 2.47366,-4.41142 9.97857,-2.18685 13.20761,-5.76252 3.25195,1.0961 6.50931,-2.13931 1.33036,-2.44135 -1.70578,-1.42125 -0.10756,-4.60966 -3.25142,-4.68173 2.67765,-2.10802 10.00505,-2.33694 10.18616,-5.17312 -7.17957,0.9158 -14.49508,1.81388 -21.73924,0.99373 -1.30449,-0.86077 3.78961,-2.8112 -0.69949,-2.94333 -6.62695,-0.17332 -13.51478,-0.47188 -19.66482,-3.19673 -2.09378,-2.46782 3.93915,-2.46416 5.26382,-3.39161 2.85643,-2.25818 6.14449,2.29146 10.11475,1.32343 1.82578,-0.0715 -2.2461,-2.24759 -2.94303,-3.21505 -1.81944,-1.34785 2.99572,-0.53082 4.0158,-0.95212 1.10898,-0.32431 6.37141,0.14576 3.62628,-0.91568 -1.93792,-0.93436 -3.87585,-1.86871 -5.81378,-2.80307 3.53344,0.28392 7.27294,-0.48509 9.49322,-3.53321 3.73048,-0.75651 8.28681,-7.81052 1.40649,-5.95459 -3.84253,1.03546 -11.03546,4.80076 -10.02671,-1.43834 -5.58599,1.40878 -11.36222,4.00957 -17.05403,1.21505 -2.87563,-1.33391 -10.93852,-2.03378 -10.36252,-5.39109 4.5456,0.0373 7.60735,-2.91588 11.34289,0.71082 3.22579,0.51045 10.99523,-0.86125 5.02772,-4.40459 3.20471,0.74111 6.06881,2.94969 5.86135,-1.18124 3.22195,0.65604 2.51232,-3.25742 3.33165,-4.69104 -5.77381,-2.11383 7.21016,-8.65997 -0.50653,-7.32123 -6.52092,1.67378 -13.25219,5.0008 -20.10074,3.42916 -5.13186,-1.30715 -4.96695,-7.3661 0.96219,-4.25221 6.40381,2.47726 2.10222,-3.24893 -0.44916,-5.009 2.68427,1.03704 10.05822,-1.46981 3.82356,-2.53247 2.69485,-0.13439 6.70294,-6.34738 1.62024,-3.18125 -8.82831,1.5613 -18.06749,1.30273 -26.86197,-0.38049 -2.07855,-0.48057 -5.58142,-2.62929 -1.01506,-2.21326 1.85447,-1.22999 -0.85058,-5.60993 2.6719,-2.02085 4.14859,3.18027 7.68616,-0.44645 11.91803,-0.96159 3.27501,-1.6339 -3.03068,-4.63759 -4.57653,-6.39615 -0.19208,-0.65151 3.57077,0.46492 4.93151,0.50755 3.31721,0.74164 7.79669,1.24655 6.7042,-3.14187 3.51561,-2.18696 9.56702,-2.58111 5.14447,-4.65109 5.07081,1.8049 8.19459,-5.95539 1.27631,-4.89453 -3.46701,1.48006 2.64677,-3.31512 -2.5625,-1.96875 -3.65577,1.4684 0.0424,-4.46415 -4.23002,-1.2634 -2.13529,-0.285 -9.81982,2.53608 -9.01825,1.34149 2.08018,-1.32593 7.49823,-7.0568 1.80532,-4.03136 -4.91655,2.01241 -0.70233,-1.57932 -1.31568,-3.48548 -4.07996,2.19917 -8.01411,6.19511 -13.25535,5.39873 -5.45377,-0.3184 -11.47551,-1.12406 -15.76578,-4.79499 -1.02441,-2.31819 -3.94111,-8.58232 0.0906,-3.44381 3.39128,0.81571 8.07436,1.54844 11.09757,1.01918 -0.61653,-3.62886 0.91064,-2.96697 3.2146,-1.25046 1.65312,2.14846 6.54768,1.61064 3.61868,-1.30986 4.21435,-1.51463 11.10457,2.66396 13.53418,-1.64006 -6.26092,-3.20155 6.67202,-4.15564 0.97417,-6.00873 0.73145,-1.8974 6.63575,-3.93722 8.95325,-6.69969 2.78957,-1.74226 -2.79625,-1.17116 -3.94709,-1.98797 -1.98596,-2.20241 -5.0969,-1.3845 -7.0791,-1.6822 3.3886,-6.56003 -6.54794,0.82205 -9.5293,-0.0525 -2.76667,0.23492 -6.82329,0.2318 -2.38107,-1.97393 1.83291,-8.42907 -6.13393,0.34064 -10.39169,-0.57247 -9.15789,-0.69506 -18.00366,-4.73706 -25.16402,-10.37907 0.042,-1.49317 5.70049,3.34329 4.49323,-1.59738 1.5744,3.14573 6.05223,3.17289 8.64767,4.41461 -0.063,-2.78134 0.29776,-5.4483 2.83425,-2.1594 2.45088,2.40744 6.41094,2.21212 5.58618,-2.06331 0.33606,5.56985 7.06347,5.84525 9.94644,2.4408 0.27812,-2.25037 -0.87436,-6.02247 3.39435,-3.24749 5.25076,1.55265 -2.30126,-4.71434 3.17578,-3.65567 -2.42447,-1.74712 -2.83869,-6.30923 0.67987,-2.72184 2.51741,2.79518 8.55225,1.76718 5.20758,-2.25987 2.49317,-0.49648 8.55189,-3.12272 8.16653,-4.71871 -2.69131,-0.93938 -9.91444,1.41797 -8.90536,-1.49017 2.72985,-5.74607 -7.55309,4.7422 -8.48029,1.70521 4.02591,-3.3834 -4.3952,-0.0824 -0.30096,-4.01771 2.65933,-4.30376 -5.2158,1.68694 -6.3109,2.88499 -4.69684,4.31325 -11.00823,0.68332 -16.05183,-0.93181 -3.11144,-1.38809 -9.91221,-4.18396 -8.53488,-7.83612 3.06453,-1.391 7.79621,7.15763 8.36636,1.38294 -0.67883,-3.46916 7.70567,8.27184 8.18419,1.22503 -2.01998,-4.30018 2.8315,-5.82084 4.67055,-1.88416 2.05076,2.48467 9.57616,2.46823 4.53495,-1.16655 -2.37165,-1.08549 -5.24898,-5.66454 -0.75117,-2.99772 1.36533,2.14129 6.77239,4.07187 8.20478,2.46736 -7.87205,-3.72564 9.35039,-3.40448 1.73558,-6.27818 -1.93272,-1.28501 12.1891,0.50812 7.29159,-4.57651 -2.88666,-1.17088 -8.29661,0.75587 -8.43086,-2.98499 -3.61124,-1.75902 -10.32983,5.7235 -11.43961,1.97697 0.0605,-2.00317 -3.33812,-1.70916 -1.99658,-4.40878 -2.95787,0.88355 -5.87027,2.49034 -5.10151,-1.80121 -3.83942,0.68401 -7.63458,6.361 -12.64023,5.28355 -3.39943,-0.49444 -7.36509,-1.75327 -3.02391,-4.53227 -1.37404,-4.57743 -11.26292,0.88052 -12.41023,-6.13899 -1.15146,-1.44895 -3.0169,-10.05556 -0.41916,-7.518077 -1.51675,3.948757 4.52971,14.434367 6.90753,6.851257 0.17843,-7.084806 2.13514,5.72023 6.74659,3.76452 4.6472,0.64691 -2.50113,-6.05727 2.23359,-4.57561 2.27925,-3.92091 3.69814,5.63302 7.5233,5.64093 3.99218,1.83889 2.62923,-9.66018 6.03129,-3.45036 3.12898,1.153 9.95796,-1.05212 11.28973,-4.04989 -4.38366,-2.61323 -7.07474,-5.836525 -12.48278,-6.062303 -3.51236,-0.751354 -2.7098,-2.069863 -1.28263,-4.096516 -3.00485,-4.975956 -9.56458,3.417834 -11.7998,0.328704 1.96209,-1.360289 6.02821,-1.499135 3.13838,-4.468128 3.3996,0.386429 10.01809,-4.740837 3.01029,-4.770605 -3.54219,0.24832 -9.01868,-1.306303 -4.08148,-4.960206 2.92803,1.867795 4.97938,2.639224 6.38164,-1.063819 1.86488,-0.342278 8.3588,-3.015663 3.1787,-5.054675 -4.3357,0.362004 -6.10551,-2.082064 -2.32773,-4.386271 1.48507,-1.903045 7.12309,-5.245828 1.04433,-5.512111 -1.98381,-0.147624 -5.87153,0.718949 -2.89504,-1.850285 2.63739,-1.72602 4.2863,-8.52474 -0.42969,-5.292225 -2.33823,2.70605 -5.33395,6.73391 -7.75211,1.764636 -5.15509,2.013866 -4.16758,10.068767 -8.86587,13.11328 -2.20867,2.321509 -9.34826,8.819971 -8.22825,1.414707 1.65504,-5.202533 -4.33622,-11.804829 1.11628,-15.552046 5.05813,-3.504712 1.03275,6.012869 5.73515,2.695441 0.63403,-4.508399 9.22047,1.024464 6.98385,-4.01328 -1.67342,-3.664872 -7.03353,-3.760173 -8.63671,-5.852608 3.31749,-1.465826 12.75545,3.00513 12.64889,-1.848126 -1.9592,-0.782148 -5.54379,-2.37657 -5.98301,-3.258616 1.80494,-1.487939 9.41523,-7.065798 2.64098,-5.347187 -3.03825,-0.297197 -9.1626,7.454964 -7.26248,1.118143 -3.76211,-3.032134 -4.40739,8.064175 -7.14108,8.115751 -4.08367,5.083776 -1.6399,-5.362845 -0.71884,-7.09414 1.59947,-4.568823 8.96687,-8.346252 7.44225,-13.013577 -4.46482,-1.932398 -7.38148,10.412221 -8.39715,2.281964 0.6477,-4.093231 -0.0606,-8.363321 -3.51537,-10.972784 l -0.22596,-0.239445 -0.0602,-0.06374 z m -6.78125,35.093748 c 4.18208,1.609812 7.59185,9.712555 4.85561,11.760056 -1.09673,-4.102208 -3.81817,-8.178795 -4.85561,-11.760056 z m -2.4375,14.687504 c 3.26466,0.218774 9.89008,6.162668 6.95852,8.053279 -1.24643,-2.72456 -9.54309,-4.768362 -6.95852,-8.053279 z m 27.3125,8.15625 c 4.188,2.210995 -6.49955,7.396907 -9.54817,8.039035 -3.5366,4.412855 -2.9808,-5.733591 1.7044,-2.789038 3.71428,0.910859 5.30259,-3.783407 7.84377,-5.249997 z m -11.59375,14.3125 c 2.48785,2.743898 8.67972,0.159545 9.2206,2.819551 -3.73347,2.122294 -6.60772,-0.334616 -9.2206,-2.819551 z m 10.96875,2.46875 c 1.54309,3.399544 4.19069,-2.091285 3.72697,1.665721 -2.21222,2.895423 -5.71478,2.144947 -3.72697,-1.665721 z m 15.0625,3.65625 c 3.64205,1.37386 -4.0713,2.690151 -0.60102,0.0789 l 0.601,-0.07891 2e-5,3e-6 z m -23.53125,15.999992 c 1.04876,1.95706 2.26777,9.93877 -0.34377,9.3125 -0.92315,-2.81323 -1.10968,-6.70348 0.34377,-9.3125 z m -7.625,13.34375 c 2.38499,2.1008 -3.80523,1.75025 -2e-5,0 l 2e-5,0 z m 8.0625,2.12499 c 1.36121,2.93986 -0.91646,5.17147 -0.19562,0.55743 l 0.1956,-0.55742 2e-5,-1e-5 z m -12.4375,0.53125 c 3.05229,1.19689 -3.45306,2.36033 -2e-5,1e-5 l 2e-5,-1e-5 z m -5,2 c 3.05229,1.19689 -3.45306,2.36032 -2e-5,1e-5 l 2e-5,-1e-5 z m -20.8125,0.0313 c 3.11899,2.47544 7.58857,5.5451 10.73875,0.97607 2.99194,-1.67861 0.45798,4.87986 4.57374,0.99269 5.04745,-2.63563 0.29459,3.65558 -2.76293,2.76876 -4.66867,0.77773 -13.9242,3.54101 -13.64768,-4.1978 0.16241,-0.43457 0.67741,-0.59966 1.09812,-0.53972 z m 91.75,52.96875 c 4.31263,2.83849 -2.71147,2.00859 0,0 z m -83.59375,12 c -0.36555,2.24029 -12.25686,5.79509 -6.0931,2.11978 1.96727,-0.85102 3.96039,-1.78581 6.0931,-2.11978 z m 86.34375,42.71875 c 3.22481,-0.29679 4.80796,1.64632 0.56248,1.18751 -2.73545,0.48628 -6.15036,-0.97841 -1.24814,-1.16853 l 0.68564,-0.019 2e-5,-1e-5 z m 22.375,5.40625 c 4.56415,0.53991 -3.45413,1.24498 0,0 z m 0.25,24.90627 c 3.06246,0.003 4.70228,3.4738 0.68748,0.96874 0.36169,0.12225 -1.27922,-0.71486 -0.68748,-0.96874 z m -174.1875,40.40625 c 1.72784,2.644 -5.29548,1.00891 0,0 z m 16.15625,8.59375 c 37.28038,12.03391 -6.6267,6.82336 0,0 z m 23.25,1.09375 c 3.97571,0.79933 -6.11344,2.23802 0,0 z"
           inkscape:connector-curvature="0"
           fill="#000000"
           fill-opacity="1" />
      </g>
      <g
         inkscape:label="Ebene 1"
         id="g3859"
         transform="matrix(0.573605,0,0,0.6116999,-710.14431,54.773602)"
         fill="#000000"
         fill-opacity="1">
        <path
           d="m 1259.7845,619.03373 c 4.9101,-0.42279 14.1809,5.08523 16.1826,3.16776 -2.3322,-4.38685 -9.1754,-8.33939 -10.302,-8.74785 -3.142,-1.3739 -4.5742,-6.29491 -8.0152,-6.52772 -1.5402,-6.65848 6.4273,1.79585 8.5735,-4.53242 3.3266,-2.59269 -6.6554,-3.55128 -3.664,-7.17722 -4.3965,1.81017 -1.3163,-4.75158 -3.0023,-5.69657 3.7346,1.26841 14.6067,9.71684 8.6468,0.88985 -1.2122,-4.14351 -4.207,-3.36431 -6.2074,-5.35454 1.1458,-2.97425 4.1024,-1.16769 2.009,-4.5138 2.5372,-4.58109 14.2037,-0.46732 13.4109,-5.05136 -5.1565,0.68785 1.8614,-2.93612 -3.8387,-3.41032 -3.9695,-10.87651 14.3059,4.58904 10.8643,-2.64125 -5.0491,2.73363 -1.969,-3.53941 -3.7788,-6.11739 2.5572,-0.98642 -9.4332,-3.95962 -2.4115,-5.04441 3.6698,3.50815 17.4126,2.429 11.8331,-3.4046 -5.5003,6.33511 2.5284,-5.90785 -3.3361,-0.2791 -3.0574,0.15011 -3.6745,-5.67219 -7.0549,-7.00972 1.4162,-1.97678 11.0679,-1.63005 5.6327,-7.3853 -5.6677,5.03792 -5.2801,-8.09414 -5.2054,-7.09518 6.7201,3.31447 11.5033,11.94324 19.397,10.60072 8.2371,-2.36877 -6.2676,-3.94598 -8.6662,-6.14857 -6.8667,-3.58741 4.1142,-6.43587 7.3991,-3.01762 5.0909,4.06867 7.783,-2.20372 1.8689,-4.01825 2.0659,-9.28835 -7.4426,0.83892 -10.8066,-1.74678 -6.9797,1.81251 3.658,-4.26213 6.0662,-4.39205 11.424,-5.27096 -11.9204,-1.73075 -7.4023,-3.80028 6.4679,-0.46337 3.9087,-11.22839 9.9076,-4.65471 8.6161,0.95428 5.2468,-8.52631 0.8401,-10.95918 0.4195,-4.50521 12.6881,8.81168 11.2064,1.23165 -3.9107,-3.04469 -11.9614,-10.97971 -9.2367,-14.59078 1.0639,6.29858 13.1498,2.56059 7.0564,-2.80671 -3.1666,-5.45029 11.2795,-6.07551 3.2957,-10.48832 -0.9681,-2.8685 4.8487,1.74448 4.4616,-2.55389 3.0767,-3.74916 10.6001,-3.86128 3.8153,0.41168 -4.4374,1.83999 -4.4581,9.60565 1.5415,4.87409 1.9919,-2.87698 10.9961,-5.49521 4.3801,-0.77517 -3.893,3.02185 -6.6055,10.10619 -7.5946,13.29827 5.0541,0.27929 10.5836,-6.08585 13.9358,-5.4341 -1.2777,2.9727 -11.5208,11.3694 -2.3312,7.75513 6.3249,-2.31824 0.4135,5.5749 -3.5568,4.95792 0.8296,3.71897 0.3825,7.48995 -4.8611,4.65503 -5.4108,3.68538 6.3975,3.05548 8.7747,0.3612 9.3435,-2.06087 -3.029,6.49324 -5.6837,8.61235 -1.5157,8.58961 10.9281,-2.60889 15.055,-3.85931 2.4606,0.68474 -4.3625,8.35311 -3.5208,9.59812 -4.8958,0.3498 -6.8404,8.624 -11.0483,8.05405 7.2307,3.09663 12.7169,-11.7313 17.5469,-9.0153 -1.037,3.67526 -4.8,8.11145 -1.1781,11.02135 -3.1225,2.26664 -9.6471,4.4161 -10.1478,7.13469 7.1345,4.61239 14.8928,-2.69069 19.2385,-6.43929 4.2074,2.39689 -0.8326,3.25208 1.0365,6.07606 -4.0477,2.58364 -1.8201,10.03414 -6.7672,11.73385 2.7524,0.27692 12.4723,-0.61315 4.3746,1.71869 -3.911,1.23395 -13.0719,-0.20719 -6.144,3.89676 -2.4013,3.52158 -6.3801,5.17017 -1.0278,9.11779 7.9441,3.33249 13.6641,-6.17031 20.7652,-6.89351 -0.18,4.42956 -6.9597,3.07443 -3.3265,6.54906 -3.4713,4.70261 -8.9856,9.78854 -12.0204,14.82521 7.9767,2.08153 14.4177,-8.3717 21.9542,-9.22863 2.1646,1.85376 -5.0189,1.44826 -1.3855,4.59362 -2.0519,8.08834 -10.8093,9.91943 -15.2091,15.59266 2.0348,6.66995 12.9441,-3.70783 17.5187,-5.44217 5.6246,1.99975 -5.5876,3.63636 0.2831,6.65519 1.1936,4.87952 -6.4437,-0.0985 -3.0962,4.56063 -1.8368,4.07415 -8.1873,2.09927 -4.12,6.72444 -4.6208,7.34033 6.5607,-0.42112 8.0136,-3.7077 2.8344,-3.98649 11.2515,-6.50056 6.2731,0.33091 1.3636,5.28996 3.0421,12.50005 -4.7714,11.89277 3.099,5.21033 -4.8902,-0.55998 -4.0602,6.1964 -4.9924,-1.92529 -2.7963,2.16025 -4.3673,4.05073 5.2381,-0.89933 12.3169,-10.84548 15.202,-8.33856 2.9912,7.76408 2.3754,21.48136 -9.0233,20.71779 -15.9758,-0.88921 -30.349,-9.10393 -44.7672,-15.28306 -17.49,-7.69405 -34.4829,-17.60719 -53.4954,-20.99803 -9.278,-2.85572 -16.7009,6.08046 -13.7762,14.85592 0.4039,2.66703 1.0683,5.28853 1.8475,7.86838 z m 15.4019,-3.60032 c -3.9609,-4.02279 0.181,4.04134 0,0 z m 1.3781,-4.9035 c 0.8766,-4.48309 -7.9743,-3.36838 -10.9204,-4.71215 -3.6382,2.92934 9.289,6.42244 10.9204,4.71215 z m 100.1219,-5.16791 c -0.3564,-7.86983 -13.2115,1.74968 -3.5244,1.10946 1.2447,-0.0189 2.5416,-0.25102 3.5244,-1.10946 z m -94.8125,-3.61169 c -4.8021,-1.30822 0.5122,1.97837 0,0 z m 4.8125,-12.3169 c 0.3172,-1.09885 3.0706,-3.04544 -1.5012,-1.77398 -4.4876,0.71255 3.4756,-5.70608 -2.0994,-2.52264 -5.4402,3.62111 -11.9458,-8.8683 -14.3549,-2.18197 2.8769,5.78899 13.3316,7.98015 17.9555,6.47859 z m 58,-12 c -2.361,-4.15053 -2.6089,4.20399 0,0 z m -62,-1 c 1.3965,-4.42051 -7.2495,3.26578 0,0 z m 11.554,-13.0871 c -0.4992,-8.44438 -6.9178,4.99066 0,0 z m 4.946,-1.9129 c -3.9609,-4.02279 0.181,4.04134 0,0 z m 40.5,-6 c -2.437,-3.69069 -1.1906,2.83133 0,0 z m -39.5,-4 c -1.0193,-3.58061 -3.4264,3.94957 0,0 z m -5.75,-1.25 c -3.3307,-4.0256 -2.7338,4.7417 0,0 z m -3.75,-1.80762 c -2.85,-5.65888 -6.3452,6.05724 0,0 z m 45.0497,-6.46808 c 7.2901,-5.17568 -12.3753,3.52496 -1.7631,0.79265 l 1.1007,-0.37276 0.6624,-0.41989 z m -12.0497,-11.03332 c -4.1083,-2.57364 -2.3712,3.62628 0,0 z m -13,-14.76776 c -3.5138,-3.02219 -7.946,1.60191 -0.9132,1.1548 l 0.7427,-0.21453 0.1705,-0.94027 z m -21.9498,-5.57947 c -3.6449,-6.63935 5.896,1.76184 0.6284,0.88444 l -0.6284,-0.88444 z m 14.9498,-30.23242 c 4.6878,-4.42699 7.1491,2.01935 0,0 z m 8.8724,-7.54855 c -2.3041,-2.64296 4.7257,0.83737 0.1497,-2.55343 6.1543,-3.27802 7.091,3.87466 0.885,3.80385 l -1.0347,-1.25042 0,0 z m -0.3017,-7.01999 c -3.3277,-2.78874 5.6641,-4.62048 2.2517,-0.2788 3.2494,2.98103 3.3313,3.8523 -1.166,1.50512 l -1.0857,-1.22632 0,0 z m 0.5895,-6.53269 c -3.303,-6.16706 6.096,1.67765 0.2456,0.15738 l -0.2457,-0.15743 10e-5,10e-6 0,4e-5 z m 0.5393,-8.10077 c 0.7357,-8.88399 2.644,4.62485 0,0 z"
           id="path3444"
           inkscape:connector-curvature="0"
           fill="#000000"
           fill-opacity="1" />
      </g>
      <g
         transform="matrix(-0.3922715,0,0,0.3573915,336.65033,349.20972)"
         id="g4203"
         inkscape:label="Ebene 1"
         fill="#000000"
         fill-opacity="1">
        <path
           d="m 665.88995,18.401396 c -1.15042,6.91396 2.476,24.645513 -6.11556,12.256686 -8.27719,-1.642606 6.37269,10.394966 4.96913,15.414996 0.53181,12.966031 -4.70335,-1.889112 -5.39942,-6.302417 -3.54574,2.002149 -4.91777,3.952768 -9.75957,0.173844 -5.9222,4.074339 9.46984,10.740022 0.99803,14.769021 2.36086,3.819226 10.08249,-1.98943 5.91446,5.74962 -7.09258,-5.711112 -8.12877,1.961831 -1.68986,5.658068 -6.18443,7.04789 -13.53615,-6.853558 -19.40868,-3.130427 0.26996,5.514204 10.3124,6.148316 0.96277,7.391672 -2.21667,4.524681 7.78115,2.42446 5.94158,6.931106 8.57943,3.41055 -12.69447,3.377762 -2.45309,7.706436 6.02485,-0.894719 9.58935,2.921219 15.40604,-0.182967 -6.77906,4.14539 -1.77113,6.05968 2.43599,4.387105 -1.24294,7.852093 7.43146,-1.002069 7.68704,0.557867 3.05832,10.056106 -17.31447,6.156494 -22.51628,1.242891 -10.80014,-1.707987 8.61061,8.339951 -3.96237,3.687873 -5.58738,-1.565535 -15.32034,-11.872213 -15.33033,-2.467245 -7.73286,-1.480122 -12.97832,4.903083 -2.66139,5.897929 5.08809,0.83044 11.64889,-2.064245 3.79095,2.701946 -1.86681,9.09752 17.92728,-7.46937 7.55268,1.2146 -2.56189,11.82687 12.96532,-0.11666 13.76737,1.73864 -7.03477,2.7272 -6.65941,9.09545 0.4548,5.24323 -0.58328,6.12741 5.2958,-4.0374 7.80839,-1.30492 5.46884,0.0907 13.30001,-6.32196 12.51355,-6.96056 -2.26541,7.80329 -15.23657,17.09856 -22.99389,13.31785 -3.62074,-2.96705 -11.69813,-4.05677 -5.29889,2.25991 -6.01229,-2.51486 -10.48727,-3.87599 -14.12436,-0.22593 -7.44506,-3.54616 -8.03259,4.20693 -4.76377,4.26717 -3.31107,3.96654 5.55412,2.21499 5.23029,5.13577 3.66982,0.68644 2.35807,3.92211 7.57528,2.56826 6.93712,10.12951 -16.84612,-2.71583 -8.81818,7.52969 3.53649,11.70116 -12.50551,-7.03592 -9.01862,4.59703 -3.85904,-1.03006 -16.0761,-2.08407 -6.26573,2.61977 5.24891,1.03278 1.89361,5.70979 8.82755,5.33052 4.64285,3.09483 6.42016,5.70815 9.86165,2.86636 3.9512,3.93509 10.89436,17.37504 17.38243,9.2336 -6.98964,9.35339 -21.59824,6.48034 -29.21243,5.62259 1.74344,6.07863 -15.61911,-1.33268 -6.93422,6.10745 2.51644,4.37652 5.86744,4.62522 8.0127,8.94155 5.6871,-1.15084 3.87907,-2.35475 5.25558,1.97512 13.00524,0.64893 -7.03865,7.08498 -10.81217,1.16666 -0.86379,3.89228 -15.63325,0.2581 -5.67481,5.14218 2.25506,4.34056 5.10647,4.47535 9.08392,5.43119 2.53228,5.03322 9.52593,8.14386 15.06356,0.28167 5.83686,-1.78554 6.69621,3.88003 0.22488,2.39199 5.09331,9.46988 -10.57789,10.75669 -18.25862,12.0828 -7.48232,-0.72544 -9.83969,7.30213 -17.89682,5.92891 1.50823,5.28631 12.03749,2.54085 7.70353,8.52311 4.34274,0.58197 4.36614,4.71143 10.57314,1.74412 2.74834,3.84124 3.16436,3.43049 6.32527,0.2512 1.08107,9.45164 11.57295,-1.36831 10.87793,-1.04807 0.93931,8.08574 5.30613,-5.37153 6.23524,2.59293 2.05813,-5.71973 4.48477,-3.01446 8.66313,-2.39714 -4.82919,7.03283 -19.77589,4.4483 -21.81573,9.83007 4.6251,1.75513 12.30079,2.98754 2.82844,4.55196 -12.27113,1.7636 -25.40013,-0.16648 -37.13839,3.52225 -13.14732,1.16569 10.7347,4.39664 -0.44258,7.50695 -6.16582,4.0045 7.31507,1.52968 9.55216,5.23767 7.95041,-5.19723 0.74824,-0.36115 3.89576,2.20984 5.62389,-4.83873 8.75824,6.07623 14.35928,-2.222 -3.23415,7.49176 3.17196,6.05314 6.52732,3.1658 -2.06658,7.38507 14.55016,-0.0859 10.46543,9.49245 12.12826,6.04579 27.47576,-1.5334 40.54755,-2.47302 29.45868,-4.75186 59.66919,-12.39719 89.55079,-6.93125 3.84364,1.452 16.12486,6.47388 11.4973,-1.00003 -4.95219,0.81509 -11.62268,5.19659 -13.13273,-0.86872 -8.4081,3.9466 -20.38344,2.21117 -26.58557,-4.08094 5.27224,-4.12304 17.52238,4.52653 17.66869,-2.59715 -2.3419,-2.91271 6.55555,2.26757 5.76015,-2.43443 4.31774,-3.95317 -1.75784,-8.40012 4.17642,-12.07111 -6.45985,0.32044 -26.07713,9.29146 -25.31312,-1.5652 6.78932,2.76909 9.17745,0.29319 3.67,-4.3694 3.04488,1.08804 8.379,-1.00475 4.11433,-2.79421 10.21836,-7.10059 -12.33651,0.78839 -17.06413,-2.06084 -4.28082,-0.2417 -16.38001,-1.03386 -8.95553,-5.10361 -0.41328,-2.09955 9.06513,3.54397 12.60169,-1.31898 7.26173,-0.82696 -10.96331,-9.40105 1.10113,-5.86031 6.95801,3.04415 7.85867,-6.1625 14.07292,-6.37496 -6.06314,-0.14635 10.84931,-5.26958 -0.19363,-6.19071 -0.99874,-1.30208 -2.22422,-1.6719 -5.07729,-2.93952 0.78378,-2.99168 -18.27103,5.25468 -8.07511,-1.57977 4.43399,-5.30135 -7.95717,2.60869 -2.7708,-4.71183 -8.41151,7.19441 -25.88068,7.79016 -30.74604,-3.72579 0.58393,-0.0994 13.49321,4.34874 14.47435,-0.73269 3.99683,4.1725 6.49739,1.54846 7.15157,-0.4472 5.29517,0.66597 13.6876,1.89157 10.86135,-4.52842 6.24977,-1.21082 -1.0266,-4.17279 6.01591,-5.86434 5.54156,-2.85156 7.38794,-5.7951 -0.49762,-6.53412 -3.15772,-1.82398 -6.88249,1.2245 -4.86857,-3.71541 -5.34788,1.33223 -18.48671,7.19213 -12.66854,-2.50633 -9.96237,4.77802 -24.48374,1.6019 -33.91007,-6.27925 -5.0607,-2.16578 5.1938,-0.46309 3.54599,-1.79847 3.82848,2.17241 8.58556,5.37431 8.91735,-0.42228 3.64612,7.41036 8.41886,-1.67567 8.37214,2.16698 3.27874,4.95956 10.67436,0.42292 9.6032,-4.44436 7.1752,3.53412 4.28116,-3.81823 4.50991,-6.54977 4.00729,3.73253 9.19295,3.16239 8.66499,-1.61026 6.84304,-0.8338 9.43946,-6.47949 0.49061,-4.26277 -5.29032,1.05679 0.44822,-6.57703 -6.03181,-1.27781 -4.7578,4.2214 -6.8616,-0.1948 -4.63261,-4.03048 -8.89108,9.56057 -25.2966,6.83541 -32.05186,-3.69367 4.3296,-0.9239 9.20701,4.79042 9.55428,0.36837 4.13273,5.54407 8.07724,3.45945 8.04647,-2.21254 2.34699,0.39057 14.34025,7.52429 7.72007,0.0545 -8.08989,-8.26453 13.85414,7.18243 6.53963,-2.45973 3.21408,-0.92531 7.86404,-1.88964 3.36103,-4.34234 6.26428,3.62117 12.38578,-5.81733 3.07915,-4.30404 -5.43581,-6.86343 -17.01983,6.27873 -17.20531,-4.83371 -6.55515,4.03381 -4.96849,-6.28477 -10.65748,1.31113 -4.86033,3.57195 -15.083,2.41669 -10.69773,-3.9092 -7.24246,1.64015 -16.73873,-5.57293 -12.85643,-12.728369 -1.52592,5.632229 7.13596,15.662039 7.76762,4.975079 1.03501,6.52661 10.18185,8.23258 7.52964,1.38237 3.62797,-1.28033 11.35417,12.50601 12.62246,0.28258 4.49797,6.86406 20.28723,-2.96889 7.06454,-6.321504 -4.07417,-1.305305 -10.6451,-1.761986 -8.54552,-6.575424 -3.50677,-2.034475 -15.99147,4.985289 -6.69714,-1.129335 -3.2065,-2.955279 11.07715,-5.724189 1.65077,-6.989899 -8.18789,1.280575 -5.10422,-8.106092 0.89853,-3.228629 2.75099,-3.720116 11.69686,-7.451416 1.44634,-8.549147 -3.10408,-2.87586 11.43165,-10.024519 0.40632,-9.232277 -6.33001,1.695252 7.1546,-11.461039 -1.85657,-6.843371 -3.76602,7.449285 -11.40246,-2.32294 -12.3636,8.570922 -3.56092,10.114351 -15.80824,14.916483 -12.49021,0.198328 -4.8367,-5.092234 5.50497,-13.650191 5.22418,-4.820919 3.27489,-3.437667 14.17119,-1.752971 5.93673,-7.759173 -9.00192,-2.441425 -3.44902,-4.233706 2.71697,-2.422419 11.99846,-0.872627 -8.6136,-5.179237 1.80869,-8.427151 5.40296,-8.487836 -11.31023,6.095047 -8.95767,-2.286746 -3.18555,1.654962 -8.71285,17.081313 -8.19851,5.648012 0.24937,-4.925132 15.68377,-20.573505 3.9698,-14.519033 -7.03082,9.586536 -0.47689,-10.501935 -7.57185,-11.222169 z m -6.78125,35.093748 c 6.99109,1.340386 6.60374,18.903801 3.01148,6.898599 0.0629,-2.612917 -3.59106,-4.680528 -3.01148,-6.898599 z m -2.4375,14.687504 c 6.27367,0.245841 11.28178,12.461281 2.94223,4.912372 -0.87033,-0.50881 -5.41895,-4.303295 -2.94223,-4.912372 z m 27.3125,8.15625 c 4.73248,5.824642 -20.55182,11.479385 -8.37286,5.247756 4.25005,0.947095 5.46451,-3.382484 8.37286,-5.247756 z m -11.59375,14.3125 c 4.96932,1.376289 13.82777,3.405154 3.66251,3.239063 -1.10813,-1.202803 -2.49334,-2.100966 -3.66251,-3.239063 z m 10.96875,2.46875 c 5.89595,-0.492053 2.29993,5.33603 -0.75931,1.613303 l 0.75929,-1.613313 c 0,0 2e-5,1e-5 2e-5,1e-5 z m 15.0625,3.65625 c 3.26658,2.12845 -4.55179,1.584228 0,-4e-6 l 0,4e-6 z m -23.53125,15.999992 c 3.69021,7.24036 -2.39411,12.55708 -0.80694,2.31633 l 0.80694,-2.31633 z m -7.625,13.34375 c 2.64837,1.97632 -4.1399,1.96164 0,0 z m 8.0625,2.12499 c 1.51972,3.72282 -1.29508,5.05757 0,0 z m -12.4375,0.53125 c 3.27523,1.18394 -3.65981,2.21559 0,0 z m -5,2 c 3.27523,1.18394 -3.65981,2.21559 0,0 z m -20.8125,0.0313 c 3.57838,6.27205 9.72111,0.69687 12.55929,1.77152 -0.1039,2.65588 9.35484,-2.83604 2.39656,2.29137 -4.24716,1.2448 -18.99632,4.93683 -14.95585,-4.06289 z m 91.75,52.96875 c 4.15635,2.58145 -3.10106,1.80804 0,0 z m -83.59375,12 c -4.29673,5.16878 -12.27414,3.47796 -2.09983,0.52319 l 2.09983,-0.52319 z m 86.34375,42.71875 c 11.61342,1.69087 -11.60804,1.44736 0,0 z m 22.375,5.40625 c 5.01559,0.25224 -3.52629,1.5636 0,0 z"
           id="path4205"
           inkscape:connector-curvature="0"
           fill="#000000"
           fill-opacity="1" />
      </g>
      <g
         inkscape:label="Ebene 1"
         id="g4207"
         transform="matrix(0.3922715,0,0,0.3573915,-170.19342,367.49544)"
         fill="#000000"
         fill-opacity="1">
        <path
           d="m 665.88993,18.401395 c -1.5564,5.414317 2.81336,24.261387 -4.98305,13.373455 -9.97171,-4.272251 6.65741,10.784267 4.11372,16.711548 -3.95192,9.009956 -3.97485,-16.647181 -9.80879,-6.14537 -5.38675,-4.180736 -10.85849,-0.672 -4.23946,4.070913 4.33005,4.83481 -3.54036,12.134766 6.54101,9.434358 3.39999,7.845605 -12.6066,-1.049176 -5.63533,7.165661 7.51277,5.572956 -7.61371,5.950464 -10.0465,0.878666 -9.31792,-5.594655 -4.42251,3.488078 -1.82619,5.400077 -11.50788,2.451164 9.17983,7.137042 2.77123,10.344845 -10.1051,2.214726 -2.083,7.164384 4.02677,5.98551 4.84847,1.514538 11.02447,-3.320046 5.26509,2.655748 1.60854,4.848233 6.80564,-3.438942 5.75387,3.665574 4.04475,1.533786 9.76235,-6.670545 7.90969,1.836302 -8.46123,6.503538 -17.51669,-2.260421 -25.82353,-2.340562 -0.27584,2.85408 6.86066,5.434615 -0.85234,3.178033 -6.55263,-1.399885 -14.26956,-11.541456 -16.28898,-1.677416 -7.15131,-3.82118 -11.232,5.63942 -2.01849,5.219332 4.03716,-0.188981 10.92911,-0.728549 3.86394,2.769561 -0.32822,8.9062 16.83497,-8.039277 7.48167,2.14351 -1.04695,12.36312 21.47747,-6.500364 10.56817,2.89096 -7.21032,4.7947 4.66587,3.81891 3.53962,3.5393 1.17165,3.93308 7.26838,-4.46583 11.40892,-2.63525 6.45657,1.12999 10.8495,-13.111857 8.13464,-2.45462 -5.82273,5.20707 -15.18639,14.72406 -23.20017,9.06402 -3.01107,-3.27821 -8.04676,-2.54731 -4.8742,2.42579 -8.09284,-4.27987 -11.66784,0.26759 -19.46526,0.22085 -3.02634,3.48688 3.56653,2.79833 0.90602,7.06593 5.49883,-0.40581 8.51082,5.79098 13.81343,6.11751 2.41583,7.81811 -15.18154,-2.97628 -9.5598,6.72592 4.48106,10.25333 -13.09669,-6.17029 -8.35289,4.07181 -3.24559,-0.94334 -15.77962,-1.75965 -6.99456,2.69924 4.37569,0.64848 4.79666,6.57674 9.56427,5.94768 5.5663,5.79617 11.74004,0.37627 15.50589,9.37435 2.27466,3.98996 6.92194,7.6089 10.49795,2.9282 -6.26428,6.06005 -15.9767,8.05139 -24.15928,4.89506 -5.3262,-3.18746 -2.98631,5.25378 -9.69038,2.4227 -8.65245,-2.40484 1.35221,9.77888 4.87536,8.97555 -1.11914,6.71501 9.49429,-0.43263 7.72829,5.53469 11.08045,1.2292 -7.30616,6.69096 -10.18994,1.88382 -3.14778,0.86473 -15.87353,0.82556 -6.62899,5.04393 3.23928,5.19398 10.77525,3.89465 12.92177,10.02909 4.40698,1.85416 16.83803,-9.22596 13.95773,-3.05175 -5.31021,1.25044 -2.13813,10.25163 -7.78309,13.41015 -7.01565,11.24171 -15.97576,23.58296 -14.18112,37.50908 5.31189,11.81295 21.06352,7.72318 31.0316,5.40561 34.99019,-9.07665 67.15215,-26.34028 98.4147,-44.05411 5.67991,-2.89341 13.58897,-8.31693 3.69612,-9.75935 -1.45652,-4.70696 -10.46125,-0.75001 -14.12104,-1.40952 5.23392,-3.5329 4.56474,-5.25159 -1.1956,-3.69598 4.01232,-6.76412 -8.37006,4.47892 -13.32828,1.86861 -5.77141,0.37647 -16.96623,-3.0706 -15.41243,-9.60485 6.87274,6.2492 13.27708,-1.41066 19.73287,1.96682 -1.11514,-5.41281 16.15522,2.21332 11.72111,-6.65985 5.34215,-0.37219 0.18221,-6.061 6.92881,-6.37132 11.26979,-5.99624 -7.88158,-6.34166 -7.98336,-9.48661 -4.54921,1.64953 -15.11265,5.59378 -10.93792,-2.69251 -9.19059,3.67767 -19.05299,2.39729 -27.69117,-2.72314 -6.06824,-3.07317 -8.51976,-5.63907 -1.57883,-5.42355 3.06701,4.99432 8.42881,1.00709 8.87169,0.32343 2.94678,5.25088 8.09229,-1.30692 6.88983,0.0374 3.34402,8.7735 13.28861,-2.75805 12.201,-2.2766 7.0083,1.19125 -1.78491,-13.13644 6.26506,-5.32373 5.75783,2.01214 3.80016,-6.45144 10.09554,-5.88489 4.90482,-5.85356 -11.51153,1.4112 -6.54841,-5.60665 -4.49245,4.01561 -13.10921,5.53873 -8.8792,-2.14351 -7.81091,9.25234 -21.35138,7.01469 -29.86347,-0.27641 -5.74817,-7.62365 8.439,2.5825 7.00704,-3.02001 5.99231,6.19596 7.57054,2.83708 9.20877,-2.14294 3.44063,1.26175 13.37295,7.16656 6.54659,-0.47618 -4.95515,-5.11549 13.43998,6.49848 7.0718,-1.45311 2.63715,-1.04436 8.80937,-3.13224 2.66381,-4.6684 4.90415,3.97311 13.53284,-5.58176 4.02181,-4.37754 -7.10813,-5.54153 -15.84264,4.83224 -18.81213,-4.38165 -6.10017,-3.85264 -11.20018,3.22953 -18.53107,3.32699 -5.71096,-1.23532 1.94952,-10.74632 -6.87317,-6.36231 -8.95025,2.52113 -9.00636,-20.771991 -6.67043,-6.66963 2.24614,6.09991 6.99235,2.21472 7.6703,0.87406 2.45324,6.40765 8.1845,3.09028 8.08287,-1.14737 4.50063,3.80006 9.23749,10.05283 11.68885,1.51282 7.02794,6.93388 17.98671,-5.224502 5.34624,-7.29509 -4.21851,-1.218026 -8.45962,-1.861024 -7.54475,-6.952931 -3.35406,0.05875 -14.97746,4.503848 -6.30798,-0.154864 -2.24791,-3.549566 11.10253,-7.437209 0.58131,-6.913993 -6.41206,1.366807 -3.67853,-8.67609 0.75868,-3.46826 4.41546,-2.649822 12.06493,-7.928693 2.35065,-8.855544 0.32456,-4.20738 9.86494,-10.865818 -1.08152,-9.010838 1.99621,-2.790219 6.05312,-11.679356 -0.96908,-5.797526 -4.13978,5.951352 -8.62202,-3.103232 -10.53397,5.647597 -1.69498,7.442138 -14.96138,18.638699 -13.42838,4.486027 -3.27094,-6.190151 2.74816,-15.314673 6.05876,-7.854308 4.4978,-2.562855 12.82367,-2.287384 4.58944,-7.217214 -14.2841,-5.726894 15.18844,1.021085 3.79177,-6.812025 -6.72683,0.343068 9.12913,-9.333066 -1.06788,-5.929539 -2.38256,1.199338 -7.29999,5.129935 -6.88127,-0.402858 -2.14036,3.802128 -9.53851,16.212509 -7.94501,4.438707 0.22845,-4.417631 13.9883,-14.813363 5.40413,-14.292108 -9.44385,11.246612 -1.53743,-8.266594 -9.05151,-10.143038 z m -6.78125,35.09375 c 6.44842,-0.158062 6.40674,17.849582 3.09375,6.8125 -0.12843,-2.654641 -3.56627,-4.067713 -3.09375,-6.8125 z m -2.4375,14.6875 c 6.18547,-0.281092 10.53447,12.57332 2.27069,4.476209 -1.14926,-0.84581 -4.23637,-3.053712 -2.27069,-4.476209 z m 27.3125,8.15625 c 3.40937,5.717362 -16.71742,11.807233 -9.65279,5.842457 3.98197,-0.272677 7.37262,-2.674979 9.65279,-5.842457 z m -11.59375,14.3125 c 4.24721,1.261774 13.46686,3.410341 3.91058,3.129729 -1.48701,-0.803969 -2.60848,-2.084887 -3.91058,-3.129729 z m 10.96875,2.46875 c 9.62953,0.11869 -3.7869,7.190285 0,0 z m 15.0625,3.65625 c 3.53898,2.717209 -4.73491,1.431518 0,0 z m -23.53125,15.999995 c 3.564,3.76623 -1.28296,14.27665 -0.98478,4.25693 0.29668,-1.34761 -0.18134,-3.16538 0.98478,-4.25693 z m -7.625,13.34375 c 2.24325,2.47574 -3.72693,0.94334 0,0 z m 8.0625,2.125 c 1.41588,3.12355 -1.27353,5.5482 0,0 z m -12.4375,0.53125 c 3.17542,1.52081 -3.51524,1.52774 0,0 z m -5,2 c 3.17542,1.52081 -3.51524,1.52774 0,0 z m -20.81249,0.0313 c 5.15114,6.02883 14.34824,-0.25272 17.07563,2.32874 -3.15507,3.28093 -21.26532,7.06581 -17.07563,-2.32874 z m 91.74999,52.96875 c 3.46936,1.53419 -1.82905,2.44254 0,0 z m -83.59374,12 c -3.19789,4.67939 -11.66792,3.33579 -2.74158,0.74921 0.87933,-0.36748 1.82403,-0.51069 2.74158,-0.74921 z"
           id="path4209"
           inkscape:connector-curvature="0"
           fill="#000000"
           fill-opacity="1" />
      </g>
      <g
         transform="matrix(0.3821624,0,0,0.3482916,-383.8115,230.43874)"
         id="g4211"
         inkscape:label="Ebene 1"
         fill="#000000"
         fill-opacity="1">
        <path
           d="m 1264.3204,630.87321 c -4.979,1.83727 -7.5557,0.98431 -2.5192,-1.97077 -5.233,-3.5455 -4.893,-2.86295 -0.4697,-5.09079 -3.0234,-2.6326 -6.3053,-6.92087 0.5265,-4.40005 4.3461,1.78964 14.7934,5.28105 15.6089,0.58002 -6.8679,-3.40544 -13.4767,-7.3737 -18.7557,-12.92659 -4.6581,-5.7581 8.6087,0.9533 8.3213,-6.01519 -4.0912,-0.59133 -4.6494,-6.21921 -5.8837,-5.53582 -1.4179,-0.62368 -0.4871,-5.4647 -1.602,-5.57038 3.9571,0.22567 14.4905,9.26558 8.3647,-0.0841 -1.4689,-4.6137 -9.6744,-3.89479 -3.0875,-7.64026 -3.4657,-6.49231 17.9401,-2.4565 10.8477,-7.25394 -0.3469,-2.25397 -5.749,-7.87682 0.026,-6.73528 2.2829,2.86123 11.4989,4.11072 8.7979,1.33341 -5.9909,1.88214 -0.4261,-10.16323 -7.9799,-9.01304 -0.5713,-4.81231 14.8113,3.91578 15.2439,-3.89168 -1.8362,-2.30231 -5.1557,1.12607 -2.521,-3.46852 -4.6275,4.23009 -8.1546,-3.90254 -8.9049,-7.1914 4.7933,2.67993 9.5781,-4.44573 3.7021,-5.84467 -3.7688,3.74668 -6.0417,-12.75806 -0.1963,-4.47701 4.6282,3.75769 13.7795,12.41199 18.2465,5.96267 -4.1155,-0.99497 -18.7681,-4.50755 -9.8364,-9.01581 4.4647,2.52429 16.2828,4.86649 8.1545,-2.31319 -0.3552,-10.39421 -9.585,4.19114 -13.53,-1.89868 2.3014,-2.51949 12.6887,-3.87862 10.7972,-7.21306 -3.7923,0.57084 -16.627,0.32859 -6.0173,-2.33906 1.4115,-3.91556 2.6834,-7.39255 6.0812,-2.6446 8.6552,0.75097 4.6783,-8.82185 1.2533,-12.24325 2.3018,0.1563 11.2945,7.94428 10.773,1.8016 -4.5704,-3.44355 -9.8974,-8.0565 -9.5496,-14.38437 2.8737,6.98765 13.3175,2.14507 7.1334,-4.03809 1.8856,-3.86478 8.9335,-6.11967 3.8743,-10.12193 4.7175,3.28885 6.4491,-7.17838 10.8258,-3.52909 -2.7974,1.31091 -9.9424,10.43481 -2.8348,8.27929 3.0416,-3.40414 12.8398,-6.40735 4.7423,-0.83544 -2.0573,2.91199 -8.1794,12.27897 -4.6922,12.33954 4.1322,-1.56694 16.9482,-9.46452 8.7908,-1.1222 -4.8822,4.49656 -0.7575,5.07714 3.3613,2.84253 2.1035,5.70102 -7.6736,3.5724 -5.8069,9.91241 -0.9991,2.59403 -10.0013,-0.58828 -4.1853,3.32122 2.9183,0.88221 15.8956,-7.55383 10.0063,0.1518 -3.9653,1.74504 -13.8177,11.06285 -3.0902,8.39695 3.2881,-1.78724 14.9592,-11.09872 9.3493,-1.68251 -3.471,4.79491 -7.6076,11.66884 -13.8145,12.49778 6.8708,5.36639 14.3192,-13.24552 17.1994,-7.13769 -3.0364,5.64242 1.612,11.40265 -6.1825,13.03268 -10.8429,4.6292 5.2614,7.45908 8.8265,2.06351 4.109,-4.43477 9.472,-5.6939 7.2564,1.0871 -4.4298,2.43251 -1.0542,10.66847 -7.1765,11.23532 3.9872,1.50843 11.7196,0.37463 3.241,2.75564 -2.772,0.21231 -11.4016,0.51849 -4.6413,3.20596 -7.5774,4.82191 -0.4412,12.87726 6.4248,9.15916 4.1332,-0.60348 11.3819,-9.29591 13.2402,-5.49047 -0.8378,2.41162 -7.3506,3.0204 -2.7912,5.60656 -4.0423,4.54754 -10.1508,9.64062 -12.3222,15.24517 7.2,8.9e-4 13.7675,-6.1889 19.8823,-9.97457 5.8683,0.25162 -3.6185,2.38193 0.2606,5.42183 -1.9277,7.94512 -12.0161,9.25399 -15.2465,15.91434 6.3236,4.69705 11.7019,-5.02399 17.9285,-6.11803 3.5996,1.66593 -4.6232,4.42212 0.2719,7.66988 -1.8339,1.85261 -5.0853,-0.0143 -3.897,4.68389 -1,3.1327 -7.8374,0.55882 -3.3228,5.13691 -0.2244,2.15359 -3.5135,2.90466 0.8709,2.9105 5.7917,-2.36359 8.1577,-11.29402 15.1981,-10.66284 -4.6721,5.66148 4.1494,16.61822 -6.729,17.18322 1.8961,3.97994 -3.9049,-0.28855 -4.1431,4.69365 -2.9209,1.84443 -2.959,-0.0166 -3.9118,3.22158 -2.8957,4.82008 10.3478,-2.69445 12.0697,-6.2246 6.1704,-0.95521 -3.5488,10.36801 -2.7071,14.88254 -0.2484,3.3355 -11.6665,-1.41224 -4.9532,4.12861 3.7038,3.53377 16.6409,-7.03038 8.5852,1.53268 -9.3006,6.15055 -21.2382,4.64509 -31.8559,4.57807 -28.619,-1.26665 -56.4531,-9.11394 -84.8994,-11.60077 -4.1381,0.87674 3.0439,4.30284 3.9731,4.93168 z m 5.8589,-1.42832 c -2.5694,-2.12741 -2.6232,3.48795 0,0 z m 5.0071,-14.01148 c -3.0875,-3.86481 -0.6721,3.83122 0,0 z m 1.3781,-4.9035 c 0.842,-5.87707 -19.4052,-5.4065 -7.6393,-0.79809 2.2868,0.56358 5.4437,2.19795 7.6393,0.79809 z m 100.1219,-5.16791 c -0.4356,-8.06835 -13.241,2.57887 -2.9543,1.04702 1.0488,-0.0134 2.2244,-0.19641 2.9543,-1.04702 z m -94.8125,-3.61169 c -3.2519,-0.78627 -1.3658,1.3697 0.3595,0.44019 l -0.3595,-0.44019 z m 4.8125,-12.3169 c 4.5626,-4.2338 -6.9503,0.62034 -1.5701,-4.95464 -3.6532,4.09335 -12.1175,-4.21543 -15.6627,-2.70906 0.025,7.64809 12.5837,8.32271 17.7578,8.10663 l -0.525,-0.44293 z m 58,-12 c -2.2181,-3.63696 -2.0091,3.69139 0,0 z m -62,-1 c -1.0885,-3.6408 -4.5028,3.54592 0,0 z m 11.554,-13.0871 c -0.785,-8.52009 -6.6808,4.5687 0,0 z m 4.946,-1.9129 c -3.0875,-3.86481 -0.6721,3.83122 0,0 z m 40.5,-6 c -1.8867,-3.77583 -1.4434,2.51583 0,0 z m -39.5,-4 c -1.3976,-3.75791 -3.059,4.00874 0,0 z m -5.75,-1.25 c -3.4891,-3.70015 -2.1322,4.79688 0,0 z m -3.75,-1.80762 c -3.334,-5.05079 -4.9124,5.40663 0,0 z m 45.0497,-6.46808 c 7.1699,-4.96629 -10.8536,2.74987 -1.9607,0.83551 l 0.9891,-0.40021 0.9716,-0.4353 z m -12.0497,-11.03332 c -3.5392,-2.6644 -2.324,3.86033 0,0 z m -13,-14.76776 c -5.2674,-4.46892 -6.6667,4.29294 0,0 z m -21.9498,-5.57947 c -2.8775,-7.44997 5.607,3.91821 0,0 z m 14.9498,-30.23242 c 4.3164,-4.54903 7.421,1.84719 0,0 z m 8.8724,-7.54855 c -1.6421,-1.93847 4.3947,-0.27746 0.083,-2.46187 8.419,-4.59779 4.0285,7.80232 -0.083,2.46187 z m -0.3017,-7.01999 c -4.0646,-2.71019 6.2882,-4.35679 1.9342,-0.72987 5.5694,4.78261 0.8107,3.76811 -1.9342,0.72987 z m 0.5895,-6.53269 c -3.5808,-7.46414 6.6539,2.42982 0,0 z m 0.5393,-8.10077 c -0.2502,-6.77708 3.1425,2.3944 0.2555,0.45537 l -0.2293,-0.4086 -0.026,-0.0468 z"
           id="path4213"
           inkscape:connector-curvature="0"
           fill="#000000"
           fill-opacity="1" />
      </g>
      <g
         inkscape:label="Ebene 1"
         id="g4215"
         transform="matrix(-0.3038449,0,0,0.268815,533.64904,281.45593)"
         fill="#000000"
         fill-opacity="1">
        <path
           d="m 1251.075,644.68341 c 0.8806,-9.4712 11.564,10.86365 16.385,0.91292 -1.3226,-5.18506 -12.9766,-3.93415 -8.1172,-12.0343 5.0884,0.32988 7.134,-4.58896 1.2543,-1.64186 -8.1071,0.35843 7.414,-2.87627 -1.5399,-5.12373 -7.3859,-2.0395 8.8927,-1.35867 0.2241,-5.01643 -5.3749,-7.40141 10.2164,2.00446 14.7216,0.49912 10.0679,-1.36839 -3.1728,-4.85835 -5.8851,-7.18556 -2.7062,0.2567 0.6173,-3.60784 -3.3808,-1.64418 -1.056,-4.56475 -5.6981,-4.42764 -7.2797,-7.43393 -0.3875,-5.17401 6.4603,2.77422 8.5691,-3.43943 4.4276,-2.77275 -7.0238,-3.60724 -3.5194,-7.58798 -5.1401,2.5774 0.7322,-3.80942 -3.6609,-5.17489 3.4054,-1.25759 14.9664,10.62624 10.2638,1.60648 -2.9083,-3.4649 -3.2642,-5.78676 -7.4103,-6.08941 1.2554,-2.88893 4.4705,-1.35698 2.0929,-5.07578 3.258,-3.85548 13.3518,-0.21232 14.2376,-4.73386 -5.4764,0.56676 0.3993,-2.1323 -4.398,-3.47828 -3.6231,-11.99261 10.9723,5.83534 11.8214,-2.88888 -2.1671,0.80646 -6.0529,2.30037 -3.2202,-1.80829 -4.0702,-2.87693 1.9995,-6.47075 -4.3417,-5.67457 -3.5482,-1.85701 -1.2261,-5.49207 2.7792,-2.36545 3.7558,2.65958 15.3944,-0.13181 9.3261,-4.44173 -5.1287,6.24488 2.529,-6.60238 -3.5273,0.004 -1.1543,-2.29626 -9.4299,-6.53012 -5.2678,-9.35342 7.7182,4.18217 6.6641,-9.06928 0.2207,-4.54832 0.6961,-3.29245 -4.5295,-11.93801 1.6025,-5.70973 6.6141,3.5785 11.5031,11.9198 19.4473,7.49496 0.5042,-2.89688 -19.3501,-3.7683 -11.8846,-9.87464 4.1556,-0.11021 17.9608,6.45622 10.7301,-1.26743 -2.0334,-1.57847 0.898,-6.90257 -5.5014,-5.1255 -2.0638,5.32662 -16.0126,2.97391 -4.7057,-0.27156 3.4509,-0.85224 12.4559,-6.48205 4.5788,-4.68422 -3.6954,-0.33747 -14.4173,0.0976 -5.1525,-1.94516 4.2405,-1.44644 1.4351,-10.23663 6.3144,-3.79959 8.6039,2.5575 7.8192,-8.58365 1.7444,-10.65007 -0.1582,-5.48683 12.8663,8.75916 11.2614,1.29076 -3.7049,-3.08384 -12.0637,-11.59913 -9.1589,-14.80368 1.7626,6.23323 13.7109,2.21359 6.8075,-2.46173 -1.6995,-6.05008 11.5812,-6.54385 3.1512,-11.64823 3.666,3.28083 7.9423,-7.10586 11.7876,-4.35515 -2.0375,1.83282 -10.7384,9.29166 -4.2096,9.11692 2.834,-2.37856 14.9038,-7.85218 6.5,-1.91205 -3.6662,3.42209 -5.7227,9.64049 -7.4502,13.5367 4.9955,0.034 12.1731,-7.6218 14.4367,-5.32904 -2.1897,2.55009 -11.8981,11.18075 -2.6145,7.29367 5.5798,-3.40826 2.3173,5.4819 -3.1628,4.61128 2.2814,6.76882 -2.7314,5.75419 -6.4942,5.40219 -0.7242,8.38549 18.3559,-6.68098 12.5913,1.74724 -2.6228,2.55499 -15.6707,12.01432 -4.7085,9.45046 4.4215,-1.07337 15.9677,-11.71794 11.336,-2.65759 -4.2397,3.76295 -1.1004,6.18748 -7.0037,7.45263 0.2981,5.01837 -13.1196,7.32807 -3.7352,6.58275 4.4931,-1.34657 11.6352,-11.96092 13.4062,-9.36059 1.7338,3.016 -6.3848,9.27483 0.2253,10.59083 -3.8334,2.27299 -8.6423,5.23917 -11.4069,7.23069 7.843,7.09902 15.4284,-5.29335 20.721,-5.31264 3.6169,3.43248 -3.0791,2.25772 0.5271,4.92004 -4.4355,3.17448 -2.799,10.86995 -7.0353,12.51892 4.2158,-0.6701 11.6591,-0.1 3.4445,1.4633 -3.9235,1.6458 -13.7922,-0.13514 -5.5158,3.37719 1.1317,4.22961 -7.6273,3.04938 -2.4405,8.19537 5.6234,6.23213 15.7822,-3.32803 21.8953,-6.3424 2.3047,4.66685 -8.4284,4.08129 -2.4979,7.52109 -4.4292,3.7506 -7.8106,9.5239 -13.0099,14.3236 6.4303,4.13309 15.0152,-7.58985 22.0883,-9.11165 3.631,2.2029 -5.2811,1.37905 -0.9426,4.93828 -1.7707,7.56488 -9.8166,8.97205 -14.4199,14.89449 -4.1521,6.41668 8.7259,1.10205 11.7557,-1.66312 2.0957,-3.83872 10.5632,-3.70427 4.4502,0.46437 -2.4653,0.0285 3.6917,7.204 -1.6854,5.13602 -3.2152,0.0495 1.4639,5.96224 -4.7477,5.59176 -4.9414,-0.0518 3.8838,4.97852 -2.012,5.84045 4.8349,5.36746 12.556,-14.08526 18.3372,-9.41515 -5.9134,5.11995 5.1685,15.46048 -6.0807,15.53364 -2.8223,1.21222 2.728,4.57494 -2.8622,2.2846 -1.788,2.36398 -1.6453,5.60323 -5.6938,3.99428 3.5581,2.85634 -6.3063,3.70553 0.1757,4.47428 5.3447,-0.74193 11.6174,-9.49215 13.7589,-9.23799 0.1476,6.46284 -5.4149,12.0984 -4.9538,17.0635 -3.3734,0.50568 -11.6134,-1.40138 -4.6786,2.67253 4.5595,4.98383 15.136,-8.29399 10.7065,1.20089 -3.8924,4.8199 -7.5608,9.92814 -13.6465,8.79176 -2.7299,3.02332 -12.5582,2.8051 -2.8036,3.29973 6.1611,-0.90071 12.4267,1.47025 18.9391,-1.72091 -5.5574,7.0821 -19.3289,2.41452 -27.8294,6.61049 -24.3881,5.07568 -48.1565,15.68737 -73.4817,14.56699 -12.5281,-0.63826 -23.9472,-7.80966 -29.5417,-19.10147 z m 35.0069,3 c -0.088,-0.36447 -4.839,2.36699 -7.2521,-0.77154 -9.4824,-2.3935 -5.8054,8.43996 1.5903,3.74074 2.0098,-0.72616 3.9367,-1.70324 5.6618,-2.9692 z m 26.0974,0.76148 c -1.2955,-1.43848 -3.4455,2.16043 0,0 z m 42.5071,-2.01148 c -2.9527,-3.90627 -4.0342,3.97615 0,0 z m -82,-1.38336 c -4.281,-3.03997 -4.4521,1.5637 0,0 z m 82.5,-1.61664 c -2.3498,-2.98237 -0.495,3.37519 0,0 z m -78,-4 c -3.9332,-4.71171 -3.4892,3.63751 0,0 z m 4.5,-1.05902 c -2.3765,-2.50727 -2.0768,3.91298 0,0 z m -16.2424,-1.09857 c 1.707,1.46844 12.4723,-1.67711 7.5862,-2.28719 -3.3458,2.54724 -8.7587,-2.54981 -11.4772,2.31532 0.8702,1.0511 3.3096,1.55552 3.891,-0.0281 z m 102.5807,-3.7807 c -3.2578,-3.61604 -11.7932,3.33543 -2.8231,1.29951 l 1.4854,-0.50387 1.3377,-0.79564 0,0 z m -97.8454,-4.05023 c -1.7528,-1.97793 -3.3407,3.34288 0,0 z m 5.0071,-14.01148 c -2.3498,-2.98237 -0.495,3.37519 0,0 z m 1.3781,-4.9035 c 1.8567,-4.12564 -8.0547,-3.70591 -10.9765,-4.62114 -4.7383,2.24076 10.0467,6.55751 10.9765,4.62114 z m 100.1219,-5.16791 c -0.8871,-8.44065 -13.9282,2.82903 -3.0868,1.08448 l 1.671,-0.2804 1.4158,-0.80409 c 0,0 0,10e-6 0,10e-6 z m -94.8125,-3.61169 c -5.4978,-0.75176 1.9031,1.81973 0,0 z m 4.8125,-12.3169 c -0.4051,-0.79757 3.515,-3.05094 -1.7358,-1.84614 -4.3707,0.63743 5.0734,-7.08974 -2.6156,-1.90313 -6.184,1.27084 -8.9244,-7.42694 -13.8008,-3.99385 -0.095,6.81153 16.2314,9.4427 18.1522,7.74312 z m 58,-12 c -2.1468,-3.73485 -2.5724,3.84355 0,0 z m -62,-1 c 0.2556,-3.64803 -6.0275,3.08667 0,0 z m 11.554,-13.0871 c -0.4736,-8.30443 -7.1454,4.07435 0,0 z m 4.946,-1.9129 c -2.3498,-2.98237 -0.495,3.37519 0,0 z m 40.5,-6 c -1.9536,-3.22036 -1.1451,3.0911 0,0 z m -39.5,-4 c -0.4977,-3.79593 -3.7636,3.89724 0,0 z m -5.75,-1.25 c -3.2406,-3.42492 -2.5173,4.2773 0,0 z m -3.75,-1.80762 c -3.0662,-5.1353 -5.7451,5.27271 0,0 z m 45.0497,-6.46808 c 7.5802,-5.73507 -12.7503,4.20081 -1.0358,0.477 l 1.0358,-0.477 z m -12.0497,-11.03332 c -3.8923,-2.34615 -2.4284,3.6026 0,0 z m -13,-14.76776 c -4.8896,-3.26529 -6.9639,2.29463 -0.2108,0.74282 l 0.2108,-0.74282 z m -21.9498,-5.57947 c -2.9839,-8.30492 5.6127,4.55822 0,1e-5 0,0 0,-1e-5 0,-1e-5 z m 14.9498,-30.23242 c 5.1487,-4.60046 7.3684,2.12396 0,0 z m 8.8724,-7.54855 c -1.326,-2.59176 4.2954,0.8603 -0.1206,-2.86291 9.9699,-3.08568 4.2861,6.78559 0.1206,2.86291 z m -0.3017,-7.01999 c -3.0715,-2.0984 5.8387,-5.32532 2.2894,0.0813 6.5574,3.43993 0.3637,3.42073 -2.2894,-0.0813 z m 0.5895,-6.53269 c -3.4905,-7.87358 6.8241,2.72239 0,0 z m 0.5393,-8.10077 c 0.5467,-9.93632 2.6589,4.36995 0,0 z"
           id="path4217"
           inkscape:connector-curvature="0"
           fill="#000000"
           fill-opacity="1" />
      </g>
      <g
         transform="matrix(-0.2516333,0,0,0.2097752,482.05176,322.75034)"
         id="g4219"
         inkscape:label="Ebene 1"
         fill="#000000"
         fill-opacity="1">
        <path
           d="m 1262.2961,632.84686 c 7.4571,-3.27273 -10.1717,0.92387 -1.6822,-2.77131 4.1373,-3.24114 -9.2376,-4.40671 0.4337,-5.62725 2.6937,-1.65226 -7.6845,-5.76495 -0.6345,-5.37106 5.4972,0.6464 13.7329,6.86966 17.5011,0.75956 -8.4133,-2.40353 -13.4442,-8.48377 -20.001,-12.45902 -3.0176,-5.98808 12.6382,0.31861 7.9277,-7.30718 -4.6937,-1.19062 -2.3451,-5.70118 -5.6223,-5.20807 0.5901,-3.86245 -2.6494,-6.49121 3.1364,-3.64907 2.3803,1.88125 9.9535,6.11135 5.4638,-0.19647 -0.7892,-5.25599 -10.9436,-5.20057 -4.0195,-8.73653 -3.8723,-6.46117 18.1992,-2.85696 10.6688,-7.2869 0.7765,-2.08829 -6.0073,-7.90769 0.2678,-6.73919 2.6849,1.22068 9.4918,6.54201 9.5661,0.42682 -7.1804,6.05531 -1.0068,-9.3409 -7.2288,-6.755 -5.8741,-8.40729 8.0183,2.19826 11.7266,-2.77384 4.4121,-1.05397 -0.3621,-6.14106 -2.0026,-2.1898 2.0206,-3.22216 0.6755,-4.55701 -2.1876,-1.90925 -2.904,-4.79777 -9.2278,-10.21626 0.3894,-9.46199 3.2037,-4.75749 -3.211,-5.85889 -4.3621,-5.28184 -1.3564,-3.65005 -3.0852,-10.62469 2.1567,-4.65991 3.6986,4.00193 16.1167,12.43739 17.9531,5.83062 -4.3419,-0.70199 -19.6951,-5.85377 -8.8925,-8.87417 2.9337,1.36379 14.4215,5.9142 9.078,-0.80784 -2.8763,-0.96604 -0.8533,-8.9951 -6.0204,-4.52322 -3.324,3.59914 -14.2849,2.47482 -5.6111,-0.82472 3.5393,-0.79406 13.0865,-6.27652 3.9291,-4.92533 -3.0709,0.51986 -10.8661,-0.94366 -3.6165,-2.0434 2.6505,-3.62305 3.3422,-8.46603 7.6639,-3.21278 8.6542,-0.11483 3.5007,-8.81814 0.4178,-12.37057 1.6603,0.38656 14.1002,8.32975 10.6278,1.30365 -4.856,-1.61434 -10.6466,-11.85206 -8.3154,-12.71761 3.6881,5.66832 12.5078,0.15747 6.1848,-4.84701 0.1641,-4.23914 10.6436,-5.739 3.6506,-10.09506 4.9359,2.76147 6.071,-6.3937 11.2973,-4.34743 -1.5743,2.17389 -9.9851,8.37179 -4.1237,9.34067 2.9872,-2.91286 14.3121,-7.58735 6.0588,-1.51123 -2.0813,2.97883 -8.4675,12.45724 -5.0961,12.40649 4.3709,-0.84877 17.4952,-10.15279 9.6313,-1.28291 -4.4206,2.24942 -3.804,7.11963 1.1726,3.05887 6.1552,0.34786 -3.5321,5.41557 -3.429,6.34493 1.2753,5.61335 -3.9361,4.55877 -6.2611,4.64474 -0.6991,6.84935 18.2455,-6.27328 11.18,2.32714 -3.2958,2.21795 -13.5141,11.28987 -3.3658,8.35181 3.9133,0.0851 13.466,-11.61435 10.8697,-2.70002 -3.5032,5.87627 -8.6182,10.65508 -14.131,14.3737 7.1863,2.51852 12.1895,-12.67285 16.9273,-8.10467 -0.51,2.81312 -5.3694,8.29182 -0.071,9.13485 -4.3022,2.91954 -17.1342,8.84911 -5.2461,9.18219 6.6127,2.38744 11.7638,-11.64614 15.3564,-5.52718 -2.3442,4.29887 -3.3299,12.44825 -7.1224,15.27961 4.2367,0.68289 11.0432,0.11228 3.5491,2.13603 -3.5618,0.85605 -12.3662,-0.25669 -5.6531,3.92048 -3.2256,2.86344 -6.1898,6.68938 -0.1526,9.05679 7.8838,2.56894 13.3836,-6.94882 19.7892,-6.79173 -0.079,4.22099 -6.9841,2.3707 -3.1821,6.43444 -3.26,4.69395 -9.7699,9.42928 -12.1953,14.83232 7.9977,2.51405 13.484,-7.78634 21.0854,-9.04861 4.3147,0.23513 -3.686,1.0307 -0.6271,4.53014 -1.7267,7.53524 -10.7683,9.95049 -15.414,15.71929 4.6146,7.5279 16.4283,-9.30117 18.9078,-3.96908 -4.3152,2.36919 2.3159,8.89042 -4.5777,7.34175 4.539,5.1287 -9.6788,4.53188 -2.8929,8.94875 -5.4495,5.72661 5.4539,1.0046 6.3123,-2.7541 1.8121,-2.65958 12.2364,-8.93509 7.5182,-1.3522 1.0944,5.22636 3.4158,12.77524 -4.5569,12.59836 1.8181,4.98853 -3.9273,0.0753 -4.2839,5.33131 -3.0772,1.96844 -3.224,-0.49065 -3.7866,3.01784 -5.1104,4.05127 7.4595,0.35027 8.3336,-2.88305 3.331,-4.43157 7.9963,-4.97632 4.5762,1.47229 -4.0021,5.67347 -1.9903,14.71938 -11.2644,11.26852 2.1247,8.66253 13.9271,-1.37539 13.943,2.14811 -4.0553,9.71037 -12.5983,18.36324 -23.9917,16.50897 -21.4164,-0.20734 -41.9785,-7.17747 -62.5009,-12.55966 -10.4356,-2.78303 -21.0211,-6.4558 -31.8323,-6.7134 -2.1198,1.13946 -0.8246,4.11956 0.7025,5.13962 z m 3.1479,4.42896 c 4.8261,1.79434 13.349,-3.64697 4.0641,-1.67479 -2.7819,-2.01968 -11.5003,2.80912 -4.0641,1.67479 z m 102.5807,-3.7807 c -3.2636,-3.44766 -10.7403,3.1259 -2.9459,1.29608 1.044,-0.24801 2.1233,-0.56485 2.9459,-1.29608 z m -97.8454,-4.05023 c -2.3083,-1.70119 -2.5116,3.10414 0,0 z m 5.0071,-14.01148 c -3.0381,-3.34039 -0.5515,3.73787 0,0 z m 1.3781,-4.9035 c 1.0923,-5.59938 -19.5708,-5.54508 -7.9166,-0.90433 2.3669,0.53916 5.6734,2.32416 7.9166,0.90433 z m 100.1219,-5.16791 c -0.8162,-8.29769 -13.3759,3.18393 -2.6758,0.96688 0.9334,-0.0519 2.1022,-0.0533 2.6758,-0.96688 z m -94.8125,-3.61169 c -4.2636,-1.1223 0.3001,2.00577 0,0 z m 4.8125,-12.3169 c 2.6852,-2.43504 -0.027,-1.96324 -3.0172,-1.83363 4.938,-6.8378 -4.9458,1.17311 -8.0104,-4.1298 -4.0697,-5.01811 -10.1721,-0.77737 -3.9635,3.021 4.3789,2.40163 10.0234,4.25877 14.9911,2.94243 z m 58,-12 c -2.4338,-3.8131 -2.1348,3.81585 0,0 z m -62,-1 c 0.1553,-3.87943 -6.3058,3.53564 0,0 z m 11.554,-13.0871 c -0.5638,-8.65643 -7.0019,4.46116 0,0 z m 4.946,-1.9129 c -3.0381,-3.34039 -0.5515,3.73787 0,0 z m 40.5,-6 c -2.4024,-3.90367 -1.4284,3.46251 0,0 z m -39.5,-4 c -1.2977,-3.50314 -3.1557,3.87671 0,0 z m -5.75,-1.25 c -3.4822,-3.78931 -2.3935,4.57886 0,0 z m -3.75,-1.80762 c -3.4834,-4.91425 -4.3333,5.50896 -2e-4,0 l 2e-4,0 z m 45.0497,-6.46808 c 7.0564,-5.14367 -11.4146,3.48508 -1.2249,0.54649 0.4083,-0.18216 0.8166,-0.36433 1.2249,-0.54649 z m -12.0497,-11.03332 c -4.0157,-3.00001 -2.2615,4.27957 0,0 z m -13,-14.76776 c -4.595,-3.16472 -6.7953,2.01157 -0.6341,1.10619 l 0.5684,-0.34904 0.066,-0.75715 z m -21.9498,-5.57947 c -3.1186,-7.8735 5.6451,4.00483 0,0 z m 14.9498,-30.23242 c 2.4082,-3.76278 8.7064,0.91304 1.7799,0.13494 l -1.7799,-0.13494 z m 8.8724,-7.54855 c -1.2053,-2.15497 4.7242,-0.0403 -0.039,-3.00513 8.8026,-3.50055 3.6279,8.32949 0.039,3.00513 z m -0.3017,-7.01999 c -2.3044,-3.56848 5.7185,-3.70077 2.8094,0.6124 6.2674,3.48206 -1.7971,1.81279 -2.8094,-0.6124 z m 0.5895,-6.53269 c -4.0897,-6.2351 5.8913,0.14318 1.2104,0.37363 l -1.2104,-0.37363 z m 0.5393,-8.10077 c -0.1568,-10.22892 3.2694,4.07459 0,0 z"
           id="path4221"
           inkscape:connector-curvature="0"
           fill="#000000"
           fill-opacity="1" />
      </g>
      <g
         inkscape:label="Ebene 1"
         id="g4223"
         transform="matrix(0.2516333,0,0,0.2097752,-163.96116,332.46463)"
         fill="#000000"
         fill-opacity="1">
        <path
           d="m 1263.9893,630.79572 c -2.722,2.74172 -8.8594,-0.11937 -2.511,-0.6684 -0.7425,-4.15826 -7.4434,-4.67285 0.1305,-6.03174 -3.0932,-2.70545 -7.0283,-7.06079 0.1904,-4.61698 4.2117,1.77529 15.4064,5.33622 15.4101,0.0736 -7.0835,-2.47544 -13.0202,-7.08587 -18.0706,-12.23162 -5.1061,-2.3487 1.472,-4.25151 4.2389,-2.39781 7.7756,-3.10498 -0.7784,-5.26934 -1.1629,-9.12365 0.1223,-0.31275 -3.374,-0.74419 -1.7187,-4.06792 -4.644,-7.1262 15.5391,9.82718 7.7598,-1.18628 -0.71,-5.21577 -10.3423,-4.48904 -3.4758,-8.23083 -3.2972,-6.59294 15.3236,-2.9139 12.1153,-6.3989 -2.5627,-1.13098 -6.7118,-11.19426 0.774,-7.28 0.7967,4.9176 11.0562,1.87592 6.0803,0.98266 -3.1452,2.36746 -2.4944,-5.69801 -2.4821,-6.40994 -0.3346,-1.93132 -8.8436,-3.48398 -3.5581,-4.6454 3.7831,2.9293 18.8385,1.47687 11.5899,-3.39045 -3.4492,4.90867 2.3298,-6.18001 -3.1632,-0.24653 -2.2984,-2.51158 -10.236,-10.89048 -2.1706,-8.32127 4.9956,-1.34481 2.2253,-7.99498 -2.1014,-5.73278 -1.3153,-3.82705 -3.8892,-12.03961 1.7212,-5.60159 3.5791,4.99151 15.918,11.92018 18.4002,6.2986 -3.7354,-1.06286 -16.5195,-3.14914 -11.5585,-8.57392 4.32,0.27562 18.5532,6.03135 10.0454,-2.6909 1.3286,-10.15834 -14.3235,4.49051 -12.9187,-2.47426 5.0871,-1.73043 17.2287,-7.93251 4.6243,-6.32443 -2.9244,0.20784 -8.2328,-1.13289 -1.8658,-1.57733 3.6277,-3.04356 2.5825,-8.94724 7.0389,-3.72742 9.012,0.75559 5.494,-8.72243 1.2923,-12.38035 2.2966,0.67616 13.4002,8.17704 10.8357,1.54978 -4.743,-1.75243 -11.0322,-12.18835 -8.7846,-13.13287 3.6372,5.78789 12.6459,0.78137 6.5123,-4.42092 -0.7937,-4.48582 11.5023,-5.62366 3.687,-9.9584 4.3246,1.55692 7.203,-6.927 11.1742,-4.30575 -1.9089,1.90246 -9.6431,7.98948 -4.0066,9.03782 2.559,-2.86291 14.4041,-7.76081 6.2,-1.76191 -2.7802,3.15659 -6.8151,10.71803 -6.0475,12.8805 4.3921,-0.0217 11.4453,-7.42797 13.1681,-4.69709 -1.8544,2.27352 -10.5616,9.59653 -2.446,6.96942 6.6779,-2.5574 0.3462,5.42918 -3.356,5.3627 1.8307,4.95134 -1.7784,5.41731 -6.1739,4.66013 0.3508,8.00145 15.4157,-6.08835 12.9983,1.66794 -2.2394,2.57661 -13.9494,8.56468 -6.7076,10.17477 4.368,0.19511 12.0303,-10.0514 13.6124,-5.19321 -3.0899,6.86179 -8.1289,11.43111 -14.3034,15.29242 -0.744,1.82229 8.0965,-0.89307 9.4629,-4.4106 2.2481,-3.31837 9.3633,-8.28723 6.2456,-0.97572 -2.2031,5.23513 1.2754,9.4101 -5.6266,11.09318 -4.9291,1.67243 -5.9543,4.48232 -0.016,5.07588 7.0134,2.06976 11.3815,-7.96216 16.0632,-7.15161 0.5868,4.78685 -3.5042,10.75275 -4.5246,14.90363 -7.8328,4.46362 10.9921,1.08407 1.6867,3.87936 -2.7845,1.75163 -14.1491,0.37931 -6.5325,2.80527 0.6453,3.83992 -6.7964,7.18482 -0.3274,10.30568 8.0221,2.79075 13.5477,-5.61358 20.4081,-7.05419 1.0854,4.14195 -7.3785,3.29014 -2.5495,6.87134 -4.3142,4.39337 -9.9832,9.63026 -12.4782,15.27807 7.7032,-0.0272 13.9989,-6.6693 20.7306,-10.04168 4.7251,1.00354 -4.0477,2.56889 -0.5297,5.54057 -1.7515,6.6439 -8.5978,8.75485 -13.2744,12.60811 -5.5318,8.19699 7.9445,3.6997 10.3674,-0.12824 4.0918,-3.9253 9.9659,-2.14015 4.0806,1.94593 6.6096,3.81474 -5.1706,3.17927 -1.3528,6.68863 -1.3211,2.17673 -9.2793,3.18531 -3.8714,5.96585 -5.2038,9.35493 7.8495,-2.70405 10.0959,-5.29834 2.8635,-2.68511 7.2408,-3.94092 4.3966,1.45756 -2.3364,4.69932 5.9216,11.27242 -2.9324,12.04104 -5.36,0.74892 1.0067,4.81667 -4.226,2.85974 -0.5323,3.32327 -6.3123,4.37788 -5.1757,4.88397 -3.0506,2.32776 -3.0672,4.51444 1.5406,2.83542 4.2541,-1.9085 14.7081,-14.25029 10.67,-2.98264 -4.7056,4.0582 -0.7904,14.91691 -9.2513,11.22108 -5.5137,1.77813 7.0859,5.93689 9.7433,1.97216 6.7893,-4.63395 -1.7147,7.14195 -6.3271,4.92744 -30.4612,1.48112 -60.0878,-7.49586 -90.0789,-11.30792 -6.7872,0.53163 -18.6678,-5.96245 -21.6645,2.58877 0.5636,2.1511 2.8026,2.97881 4.2313,4.45278 z m 6.19,-1.35083 c -2.3732,-1.9584 -2.6195,3.47721 0,0 z m 5.0071,-14.01148 c -2.9542,-3.54013 -0.6004,3.94587 0,0 z m 1.3781,-4.9035 c 0.2837,-3.93854 -10.0308,-5.82721 -11.8102,-3.22477 2.9162,2.55663 8.0323,4.46232 11.8102,3.22477 z m 100.1219,-5.16791 c 0.076,-8.17315 -13.3436,2.24953 -3.6116,1.09086 1.1782,-0.38709 2.8649,0.22427 3.6116,-1.09086 z m -94.8125,-3.61169 c -4.3309,-1.11191 0.3383,1.9808 0,0 z m 4.8125,-12.3169 c 2.3066,-2.43285 0.1958,-2.10778 -2.9392,-1.85519 4.6518,-7.13581 -4.3814,1.32783 -7.6818,-3.6621 -2.4978,-3.77015 -10.0033,-3.7268 -5.8635,1.39699 3.8652,3.28117 14.0333,6.04105 16.4845,4.1203 z m 58,-12 c -2.1353,-3.41677 -2.1683,3.46944 0,0 z m -62,-1 c -1.0662,-3.88815 -4.837,3.20868 0,0 z m 11.554,-13.0871 c -0.2523,-7.40258 -6.5592,3.87219 0,0 z m 4.946,-1.9129 c -2.9542,-3.54013 -0.6004,3.94587 0,0 z m 40.5,-6 c -1.8745,-3.27998 -1.384,3.18433 0,0 z m -39.5,-4 c -1.6485,-3.16159 -2.4588,3.64356 0,0 z m -5.75,-1.25 c -3.169,-3.73618 -2.5706,4.68067 0,0 z m -3.75,-1.80762 c -3.2268,-4.92178 -4.6902,5.56689 -0.04,0.0648 l 0.04,-0.0648 z m 45.0497,-6.46808 c 6.8635,-5.23289 -11.7519,3.85795 -1.0357,0.47674 0.3452,-0.15891 0.6905,-0.31783 1.0357,-0.47674 z m -12.0497,-11.03332 c -3.8151,-2.64831 -2.4763,3.82898 0,0 z m -13,-14.76776 c -6.7285,-4.14752 -5.6601,4.16635 0,0 z m -21.9498,-5.57947 c -3.0578,-7.34314 5.3203,3.80353 -5e-4,0 l 5e-4,0 z m 14.9498,-30.23242 c 4.9835,-4.34695 6.4088,2.13732 0,0 z m 8.8724,-7.54855 c -1.2802,-2.04528 4.569,-0.13701 -0.1347,-2.75073 5.6026,-3.10873 6.8959,4.45495 1.242,3.96065 l -1.1073,-1.20992 0,0 z m -0.3017,-7.01999 c -2.7888,-3.29536 5.876,-4.03075 2.5616,0.3261 6.196,3.61333 -1.33,2.26988 -2.5616,-0.3261 z m 0.5895,-6.53269 c -4.0218,-6.1469 5.8098,-0.0419 1.1903,0.33811 l -1.1903,-0.33811 z m 0.5393,-8.10077 c -0.1214,-9.52472 3.3473,3.94201 0,0 z"
           id="path4225"
           inkscape:connector-curvature="0"
           fill="#000000"
           fill-opacity="1" />
      </g>
    </g>
    <path
       sodipodi:nodetypes="ccccccc"
       id="path2495"
       d="m 1428.7505,472.7652 c 1.1697,-1.048 78.4505,-50.21114 82.8909,-52.31256 25.123,-13.51838 49.2479,-28.53385 70.1157,-48.435 24.2253,-19.23938 46.5036,-25.14922 75.6732,-6.44998 8.9113,20.66001 48.7359,28.30728 67.0344,39.00294 l -4.2737,16.75482 c -107.862,-49.13856 -150.9547,-26.12257 -291.4405,51.43978 z"
       inkscape:connector-curvature="0"
       opacity="0.623"
       fill="url(#radialGradient4633)"
       filter="url(#filter3287)"
       stroke="none"
       fill-opacity="1" />
    <circle
       transform="matrix(0.04183849,0,0,0.04183849,146.53889,81.273675)"
       id="path3291"
       cx="200.49"
       cy="132.37"
       r="47.552"
       fill="#ffffff"
       stroke="none"
       fill-opacity="1" />
  </g>
  <g
     id="g10579"
     transform="matrix(0.93428503,0,0,1.0317002,-297.58719,2.9350847)">
    <rect
       y="27.891"
       x="352.08"
       height="11.303"
       width="219"
       id="rect1931"
       fill="url(#linearGradient3579)"
       stroke="none"
       fill-opacity="1" />
    <rect
       id="rect1941"
       width="219"
       height="11.303"
       x="352.08"
       y="196.5"
       fill="url(#linearGradient3581)"
       stroke="none"
       fill-opacity="1" />
    <rect
       transform="matrix(0,1,-1,0,0,0)"
       y="-353.26"
       x="28.13"
       height="11.303"
       width="179.44"
       id="rect1945"
       fill="url(#linearGradient3583)"
       stroke="none"
       fill-opacity="1" />
    <rect
       id="rect1949"
       width="179.44"
       height="11.303"
       x="27.656"
       y="-580.74"
       transform="matrix(0,1,-1,0,0,0)"
       fill="url(#linearGradient3587)"
       stroke="none"
       fill-opacity="1" />
    <rect
       ry="4.239"
       y="23.652"
       x="337.95"
       height="20.252"
       width="21.665"
       id="rect1953"
       rx="4.239"
       fill="url(#radialGradient3589)"
       stroke="none"
       fill-opacity="1" />
    <rect
       id="rect2849"
       width="21.665"
       height="20.252"
       x="562.61"
       y="24.594"
       ry="4.239"
       rx="4.239"
       fill="url(#radialGradient3591)"
       stroke="none"
       fill-opacity="1" />
    <rect
       ry="4.239"
       y="190.38"
       x="561.66"
       height="20.252"
       width="21.665"
       id="rect2853"
       rx="4.239"
       fill="url(#radialGradient3593)"
       stroke="none"
       fill-opacity="1" />
    <rect
       id="rect2857"
       width="21.665"
       height="20.252"
       x="337.95"
       y="190.38"
       ry="4.239"
       rx="4.239"
       fill="url(#radialGradient3595)"
       stroke="none"
       fill-opacity="1" />
  </g>
  <g
     font-size="7.5"
     font-variant="normal"
     letter-spacing="0"
     font-stretch="normal"
     font-weight="bold"
     line-height="125%"
     word-spacing="0"
     font-style="normal"
     transform="translate(65.861392,-42.500312)"
     id="text4330"
     stroke-opacity="1"
     font-family="STIX"
     fill="#000000"
     stroke="none"
     stroke-linejoin="miter"
     fill-opacity="1"
     stroke-linecap="butt"
     stroke-width="1">
    <path
       inkscape:connector-curvature="0"
       id="path4335"
       d="m -56.13327,39.467617 0,-0.1875 c -0.3075,0 -0.4425,-0.165 -0.825,-1.0725 l -1.665,-3.915 -0.21,0 -1.6575,4.0875 c -0.285,0.705 -0.3975,0.84 -0.7425,0.9 l 0,0.1875 1.515,0 0,-0.1875 c -0.4425,-0.03 -0.6075,-0.1125 -0.6075,-0.3075 0,-0.18 0.1425,-0.495 0.2325,-0.7275 l 0.0975,-0.255 1.6875,0 c 0.255,0.5925 0.345,0.855 0.345,1.02 0,0.165 -0.0975,0.225 -0.345,0.2475 l -0.24,0.0225 0,0.1875 2.415,0 z m -2.2875,-1.77 -1.4625,0 0.705,-1.8225 0.7575,1.8225 z" />
    <path
       inkscape:connector-curvature="0"
       id="path4337"
       d="m -55.760848,34.397617 0,0.1875 c 0.525,0.045 0.63,0.15 0.63,0.735 l 0,3.2025 c 0,0.3825 -0.045,0.5925 -0.2925,0.69 -0.0825,0.0375 -0.195,0.0525 -0.3375,0.0675 l 0,0.1875 2.4975,0 0,-0.1875 c -0.5925,-0.075 -0.6525,-0.1425 -0.6525,-0.645 l 0,-1.44 c 0.99,-0.0075 1.245,-0.03 1.5675,-0.15 0.6225,-0.2325 0.9675,-0.69 0.9675,-1.29 0,-0.915 -0.765,-1.3575 -2.0175,-1.3575 l -2.3625,0 z m 1.845,0.525 c 0,-0.1725 0.1275,-0.2625 0.375,-0.2625 0.6225,0 0.87,0.345 0.87,1.1775 0,0.8325 -0.3075,1.0875 -1.245,1.095 l 0,-2.01 z" />
  </g>
</svg>
