<?xml version="1.0" encoding="UTF-8" standalone="no"?>
<!-- Created with Inkscape (http://www.inkscape.org/) -->

<svg
   xmlns:dc="http://purl.org/dc/elements/1.1/"
   xmlns:cc="http://creativecommons.org/ns#"
   xmlns:rdf="http://www.w3.org/1999/02/22-rdf-syntax-ns#"
   xmlns:svg="http://www.w3.org/2000/svg"
   xmlns="http://www.w3.org/2000/svg"
   xmlns:xlink="http://www.w3.org/1999/xlink"
   xmlns:sodipodi="http://sodipodi.sourceforge.net/DTD/sodipodi-0.dtd"
   xmlns:inkscape="http://www.inkscape.org/namespaces/inkscape"
   id="svg2"
   sodipodi:version="0.32"
   inkscape:version="0.92.5 (2060ec1f9f, 2020-04-08)"
   width="255"
   height="255"
   sodipodi:docname="text-r.svg"
   inkscape:output_extension="org.inkscape.output.svg.inkscape"
   version="1.1">
  <metadata
     id="metadata7">
    <rdf:RDF>
      <cc:Work>
        <dc:format>image/svg+xml</dc:format>
        <dc:type
           rdf:resource="http://purl.org/dc/dcmitype/StillImage" />
        <dc:title></dc:title>
      </cc:Work>
    </rdf:RDF>
  </metadata>
  <defs
     id="defs5">
    <linearGradient
       inkscape:collect="always"
       id="linearGradient4345">
      <stop
         id="stop4347"
         stop-color="#c8c8c8"
         stop-opacity="1" />
      <stop
         offset="1"
         id="stop4349"
         stop-color="#5d5d5d"
         stop-opacity="0" />
    </linearGradient>
    <linearGradient
       id="linearGradient2843">
      <stop
         id="stop2845"
         stop-color="#000000"
         stop-opacity="1" />
      <stop
         offset="1"
         id="stop2847"
         stop-color="#ababab"
         stop-opacity="1" />
    </linearGradient>
    <linearGradient
       id="linearGradient2812">
      <stop
         id="stop2814"
         stop-color="#000000"
         stop-opacity="1" />
      <stop
         offset="1"
         id="stop2816"
         stop-color="#606060"
         stop-opacity="1" />
    </linearGradient>
    <linearGradient
       inkscape:collect="always"
       id="linearGradient2784">
      <stop
         id="stop2786"
         stop-color="#000000"
         stop-opacity="0.855" />
      <stop
         offset="1"
         id="stop2788"
         stop-color="#2b2b2b"
         stop-opacity="0" />
    </linearGradient>
    <linearGradient
       inkscape:collect="always"
       id="linearGradient2776">
      <stop
         id="stop2778"
         stop-color="#000000"
         stop-opacity="1" />
      <stop
         offset="1"
         id="stop2780"
         stop-color="#242424"
         stop-opacity="0" />
    </linearGradient>
    <linearGradient
       inkscape:collect="always"
       id="linearGradient2768">
      <stop
         id="stop2770"
         stop-color="#000000"
         stop-opacity="1" />
      <stop
         offset="1"
         id="stop2772"
         stop-color="#363636"
         stop-opacity="0" />
    </linearGradient>
    <linearGradient
       inkscape:collect="always"
       xlink:href="#linearGradient2768"
       id="linearGradient2798"
       gradientUnits="userSpaceOnUse"
       gradientTransform="translate(2.727155,101.9956)"
       x1="224.03"
       y1="42.29"
       x2="158.17"
       y2="114.14" />
    <linearGradient
       inkscape:collect="always"
       xlink:href="#linearGradient2776"
       id="linearGradient2800"
       gradientUnits="userSpaceOnUse"
       gradientTransform="translate(1.090862,103.6319)"
       x1="222.29"
       y1="38.05"
       x2="168.54"
       y2="98.26" />
    <linearGradient
       inkscape:collect="always"
       xlink:href="#linearGradient2784"
       id="linearGradient2802"
       gradientUnits="userSpaceOnUse"
       x1="221.22"
       y1="139.57"
       x2="168.99"
       y2="196.7" />
    <linearGradient
       inkscape:collect="always"
       xlink:href="#linearGradient2812"
       id="linearGradient2818"
       x1="176.83"
       y1="236.48"
       x2="47.01"
       y2="14.11"
       gradientUnits="userSpaceOnUse"
       gradientTransform="matrix(0.97190961,0,0,0.97190961,-2.4363356,-0.11178054)" />
    <radialGradient
       inkscape:collect="always"
       xlink:href="#linearGradient2843"
       id="radialGradient2851"
       cx="175.63"
       cy="181.59"
       fx="175.63"
       fy="181.59"
       r="31.04"
       gradientTransform="matrix(0.754607,0.03976438,-0.04166752,0.79072281,50.884458,29.534675)"
       gradientUnits="userSpaceOnUse"
       spreadMethod="reflect" />
    <linearGradient
       id="linearGradient2284">
      <stop
         id="stop2290"
         stop-color="#000000"
         stop-opacity="1" />
      <stop
         offset="1"
         id="stop2292"
         stop-color="#5c5c5c"
         stop-opacity="1" />
    </linearGradient>
    <linearGradient
       inkscape:collect="always"
       xlink:href="#linearGradient2284"
       id="linearGradient3304"
       x1="141.34"
       y1="252.2"
       x2="134.26"
       y2="9.01"
       gradientUnits="userSpaceOnUse"
       gradientTransform="matrix(0.97190961,0,0,0.97190961,-2.4363356,-0.11178054)" />
    <linearGradient
       inkscape:collect="always"
       xlink:href="#linearGradient4345"
       id="linearGradient4351"
       x1="30.87"
       y1="22.408"
       x2="70.3"
       y2="71.44"
       gradientUnits="userSpaceOnUse" />
    <filter
       inkscape:collect="always"
       style="color-interpolation-filters:sRGB"
       id="filter873"
       x="-0.025251238"
       width="1.0505025"
       y="-0.022866909"
       height="1.0457338">
      <feGaussianBlur
         inkscape:collect="always"
         stdDeviation="2.2058585"
         id="feGaussianBlur875" />
    </filter>
  </defs>
  <sodipodi:namedview
     inkscape:window-height="1056"
     inkscape:window-width="1920"
     inkscape:pageshadow="2"
     inkscape:pageopacity="0"
     guidetolerance="10.0"
     gridtolerance="10.0"
     objecttolerance="10.0"
     borderopacity="1.0"
     bordercolor="#666666"
     pagecolor="#ff0000"
     id="base"
     inkscape:zoom="3.454902"
     inkscape:cx="127.5"
     inkscape:cy="127.5"
     inkscape:window-x="0"
     inkscape:window-y="0"
     inkscape:current-layer="svg2"
     showgrid="false"
     inkscape:window-maximized="1" />
  <path
     d="m 184.7401,18.756101 c -1.55911,0.354342 -3.11863,0.710111 -4.67774,1.064453 -44.62047,9.841185 -90.726327,17.546055 -136.523437,12.148438 -2.992354,5.402689 -2.138974,12.998475 -3.517578,19.279297 -7.96031,64.490581 -9.239678,130.489261 3.517578,194.449221 10.336988,3.96415 22.271366,4.22849 33.439453,4.57421 56.280834,0.14555 109.628884,-25.95836 166.197264,-21.27929 2.01744,-3.4334 -3.10579,-8.76332 -3.6621,-13.03711 -15.77083,-43.74968 -9.63843,-91.2434 -4.72071,-136.455078 1.00228,-5.998719 1.55363,-12.154313 -2.0039,-17.433594 C 222.58655,42.430547 202.78542,30.180727 184.7401,18.756101 Z M 70.943219,59.748289 h 42.750001 c 16,0 27.9375,3.34375 35.8125,10.03125 7.875,6.6875 11.8125,16.78125 11.8125,30.281251 0,8.8125 -2.0625,16.125 -6.1875,21.9375 -4.0625,5.8125 -10,9.84375 -17.8125,12.09375 4.0625,1.375 8,4.3125 11.8125,8.8125 3.875,4.5 7.75,10.6875 11.625,18.5625 l 19.21875,38.25 h -20.34375 l -17.90625,-35.90625 c -4.625,-9.375 -9.125,-15.59375 -13.5,-18.65625 -4.3125,-3.0625 -10.21875,-4.59375 -17.71875,-4.59375 H 89.880719 v 59.15625 h -18.9375 z m 18.9375,15.5625 v 49.687501 h 23.812501 c 9.125,0 16,-2.09375 20.625,-6.28125 4.6875,-4.25 7.03125,-10.46875 7.03125,-18.65625 0,-8.187501 -2.34375,-14.343751 -7.03125,-18.468751 -4.625,-4.1875 -11.5,-6.28125 -20.625,-6.28125 z"
     id="path2820"
     inkscape:connector-curvature="0"
     style="fill:#000000;fill-opacity:0.727;filter:url(#filter873)" />
  <path
     style="fill:url(#linearGradient3304);stroke:url(#linearGradient2818)"
     d="M 170.91016 6.5253906 C 120.74824 18.100169 72.499573 25.082817 29.371094 19.777344 C 19.020772 92.524219 16.806313 163.83534 30.429688 232.35156 C 95.103058 248.22558 163.48711 208.94999 229.2207 214.85742 C 205.80753 162.02316 215.73827 109.18972 220.74023 56.355469 C 213.50614 34.119761 191.87349 20.523553 170.91016 6.5253906 z M 66.601562 55.117188 L 109.35156 55.117188 C 125.35156 55.117187 137.28906 58.460937 145.16406 65.148438 C 153.03906 71.835938 156.97656 81.929688 156.97656 95.429688 C 156.97656 104.24219 154.91406 111.55469 150.78906 117.36719 C 146.72656 123.17969 140.78906 127.21094 132.97656 129.46094 C 137.03906 130.83594 140.97656 133.77344 144.78906 138.27344 C 148.66406 142.77344 152.53906 148.96094 156.41406 156.83594 L 175.63281 195.08594 L 155.28906 195.08594 L 137.38281 159.17969 C 132.75781 149.80469 128.25781 143.58594 123.88281 140.52344 C 119.57031 137.46094 113.66406 135.92969 106.16406 135.92969 L 85.539062 135.92969 L 85.539062 195.08594 L 66.601562 195.08594 L 66.601562 55.117188 z M 85.539062 70.679688 L 85.539062 120.36719 L 109.35156 120.36719 C 118.47656 120.36719 125.35156 118.27344 129.97656 114.08594 C 134.66406 109.83594 137.00781 103.61719 137.00781 95.429688 C 137.00781 87.242188 134.66406 81.085938 129.97656 76.960938 C 125.35156 72.773438 118.47656 70.679688 109.35156 70.679688 L 85.539062 70.679688 z "
     id="path1873" />
  <g
     id="g2792"
     transform="matrix(0.97190961,0,0,0.97190961,-7.2073214,-105.60362)">
    <path
       inkscape:connector-curvature="0"
       sodipodi:nodetypes="cccc"
       id="path2766"
       d="m 156.53869,211.36553 c 13.28542,-17.44929 34.02093,-77.54136 27.27153,-97.63214 21.56922,14.40274 43.82734,28.39213 51.27051,51.2705 -22.05844,6.72055 -54.13461,50.39418 -78.54204,46.36164 z"
       stroke-opacity="1"
       fill="url(#linearGradient2798)"
       fill-rule="evenodd"
       stroke="none"
       stroke-linejoin="miter"
       fill-opacity="1"
       stroke-linecap="butt"
       stroke-width="1" />
    <path
       inkscape:connector-curvature="0"
       d="m 162.53843,201.54777 c 14.37858,-17.24432 35.94682,-64.29445 19.6355,-86.17809 21.56922,14.40274 43.82734,28.39214 51.27051,51.27051 -22.05844,6.72055 -46.49858,38.94012 -70.90601,34.90758 z"
       id="path2764"
       sodipodi:nodetypes="cccc"
       stroke-opacity="1"
       fill="url(#linearGradient2800)"
       fill-rule="evenodd"
       stroke="none"
       stroke-linejoin="miter"
       fill-opacity="1"
       stroke-linecap="butt"
       stroke-width="1" />
    <path
       inkscape:connector-curvature="0"
       sodipodi:nodetypes="cccc"
       id="path1877"
       d="m 167.44731,190.09372 c 13.28542,-17.44929 23.65775,-54.08783 16.90835,-74.17861 21.56922,14.40274 43.82734,28.39214 51.27051,51.27051 -22.05844,6.72055 -43.77143,26.94064 -68.17886,22.9081 z"
       stroke-opacity="1"
       fill="url(#linearGradient2802)"
       fill-rule="evenodd"
       stroke="none"
       stroke-linejoin="miter"
       fill-opacity="1"
       stroke-linecap="butt"
       stroke-width="1" />
    <path
       inkscape:connector-curvature="0"
       d="m 173.99247,172.0945 c 13.28542,-17.44929 16.56715,-37.17947 9.81775,-57.27025 21.56922,14.40274 43.82734,28.39214 51.27051,51.27051 -22.05844,6.72055 -36.68083,10.03228 -61.08826,5.99974 z"
       id="path1875"
       sodipodi:nodetypes="cccc"
       stroke-dasharray="none"
       stroke-opacity="1"
       fill="url(#radialGradient2851)"
       fill-rule="evenodd"
       stroke="#494949"
       stroke-linejoin="round"
       fill-opacity="1"
       stroke-linecap="butt"
       stroke-width="1.7"
       stroke-miterlimit="4" />
  </g>
  <g
     font-size="7.5"
     font-variant="normal"
     letter-spacing="0"
     font-stretch="normal"
     font-weight="bold"
     line-height="125%"
     word-spacing="0"
     font-style="normal"
     transform="translate(63.548436,-41.535294)"
     id="text4330"
     stroke-opacity="1"
     font-family="STIX"
     fill="#000000"
     stroke="none"
     stroke-linejoin="miter"
     fill-opacity="1"
     stroke-linecap="butt"
     stroke-width="1">
    <path
       inkscape:connector-curvature="0"
       id="path4335"
       d="m -56.13327,39.467617 0,-0.1875 c -0.3075,0 -0.4425,-0.165 -0.825,-1.0725 l -1.665,-3.915 -0.21,0 -1.6575,4.0875 c -0.285,0.705 -0.3975,0.84 -0.7425,0.9 l 0,0.1875 1.515,0 0,-0.1875 c -0.4425,-0.03 -0.6075,-0.1125 -0.6075,-0.3075 0,-0.18 0.1425,-0.495 0.2325,-0.7275 l 0.0975,-0.255 1.6875,0 c 0.255,0.5925 0.345,0.855 0.345,1.02 0,0.165 -0.0975,0.225 -0.345,0.2475 l -0.24,0.0225 0,0.1875 2.415,0 z m -2.2875,-1.77 -1.4625,0 0.705,-1.8225 0.7575,1.8225 z" />
    <path
       inkscape:connector-curvature="0"
       id="path4337"
       d="m -55.760848,34.397617 0,0.1875 c 0.525,0.045 0.63,0.15 0.63,0.735 l 0,3.2025 c 0,0.3825 -0.045,0.5925 -0.2925,0.69 -0.0825,0.0375 -0.195,0.0525 -0.3375,0.0675 l 0,0.1875 2.4975,0 0,-0.1875 c -0.5925,-0.075 -0.6525,-0.1425 -0.6525,-0.645 l 0,-1.44 c 0.99,-0.0075 1.245,-0.03 1.5675,-0.15 0.6225,-0.2325 0.9675,-0.69 0.9675,-1.29 0,-0.915 -0.765,-1.3575 -2.0175,-1.3575 l -2.3625,0 z m 1.845,0.525 c 0,-0.1725 0.1275,-0.2625 0.375,-0.2625 0.6225,0 0.87,0.345 0.87,1.1775 0,0.8325 -0.3075,1.0875 -1.245,1.095 l 0,-2.01 z" />
  </g>
  <path
     d="m 27.61326,101.1547 c 2.174588,-25.384529 3.412321,-51.469919 7.044199,-74.668512 26.568452,6.069342 53.774166,2.189942 82.558011,-2.81768"
     id="path4343"
     inkscape:connector-curvature="0"
     sodipodi:nodetypes="ccc"
     stroke-opacity="1"
     stroke-dasharray="none"
     fill="none"
     fill-rule="evenodd"
     stroke="url(#linearGradient4351)"
     stroke-linejoin="round"
     stroke-linecap="round"
     stroke-width="2.5"
     stroke-miterlimit="4" />
  <g
     aria-label="R"
     style="font-style:normal;font-weight:normal;font-size:192px;line-height:1.25;font-family:sans-serif;letter-spacing:0px;word-spacing:0px;fill:#000000;fill-opacity:1;stroke:none"
     id="text854" />
  <g
     id="g861"
     style="font-style:normal;font-weight:normal;font-size:192px;line-height:1.25;font-family:sans-serif;letter-spacing:0px;word-spacing:0px;fill:#000000;fill-opacity:1;stroke:none"
     aria-label="R"
     transform="translate(-4.16e-4,8.09e-4)" />
</svg>
