<?xml version="1.0" encoding="UTF-8" standalone="no"?>
<!-- Created with Inkscape (http://www.inkscape.org/) -->

<svg
   xmlns:dc="http://purl.org/dc/elements/1.1/"
   xmlns:cc="http://creativecommons.org/ns#"
   xmlns:rdf="http://www.w3.org/1999/02/22-rdf-syntax-ns#"
   xmlns:svg="http://www.w3.org/2000/svg"
   xmlns="http://www.w3.org/2000/svg"
   xmlns:xlink="http://www.w3.org/1999/xlink"
   xmlns:sodipodi="http://sodipodi.sourceforge.net/DTD/sodipodi-0.dtd"
   xmlns:inkscape="http://www.inkscape.org/namespaces/inkscape"
   id="svg2"
   sodipodi:version="0.32"
   inkscape:version="0.92.5 (2060ec1f9f, 2020-04-08)"
   width="255"
   height="255"
   version="1.0"
   sodipodi:docname="text-x-authors.svg"
   inkscape:output_extension="org.inkscape.output.svg.inkscape">
  <metadata
     id="metadata7">
    <rdf:RDF>
      <cc:Work
         rdf:about="">
        <dc:format>image/svg+xml</dc:format>
        <dc:type
           rdf:resource="http://purl.org/dc/dcmitype/StillImage" />
        <dc:title></dc:title>
      </cc:Work>
    </rdf:RDF>
  </metadata>
  <defs
     id="defs5">
    <linearGradient
       id="linearGradient3448">
      <stop
         style="stop-color:#000000;stop-opacity:1;"
         offset="0"
         id="stop3450" />
      <stop
         id="stop3456"
         offset="0.5"
         style="stop-color:#000000;stop-opacity:1;" />
      <stop
         style="stop-color:#000000;stop-opacity:1;"
         offset="0.75"
         id="stop3458" />
      <stop
         style="stop-color:#000000;stop-opacity:0;"
         offset="1"
         id="stop3452" />
    </linearGradient>
    <inkscape:perspective
       sodipodi:type="inkscape:persp3d"
       inkscape:vp_x="0 : 127.5 : 1"
       inkscape:vp_y="0 : 1000 : 0"
       inkscape:vp_z="255 : 127.5 : 1"
       inkscape:persp3d-origin="127.5 : 85 : 1"
       id="perspective54" />
    <linearGradient
       id="linearGradient2843">
      <stop
         style="stop-color:#e1cb7d;stop-opacity:1;"
         offset="0"
         id="stop2845" />
      <stop
         style="stop-color:white;stop-opacity:1"
         offset="1"
         id="stop2847" />
    </linearGradient>
    <linearGradient
       id="linearGradient2812">
      <stop
         style="stop-color:#2a2a2a;stop-opacity:1;"
         offset="0"
         id="stop2814" />
      <stop
         style="stop-color:#3f3f3f;stop-opacity:1"
         offset="1"
         id="stop2816" />
    </linearGradient>
    <linearGradient
       id="linearGradient2804">
      <stop
         style="stop-color:#dddddd;stop-opacity:1;"
         offset="0"
         id="stop2806" />
      <stop
         style="stop-color:#000000;stop-opacity:1;"
         offset="1"
         id="stop2808" />
    </linearGradient>
    <linearGradient
       inkscape:collect="always"
       id="linearGradient2784">
      <stop
         style="stop-color:black;stop-opacity:1;"
         offset="0"
         id="stop2786" />
      <stop
         style="stop-color:black;stop-opacity:0;"
         offset="1"
         id="stop2788" />
    </linearGradient>
    <linearGradient
       inkscape:collect="always"
       id="linearGradient2776">
      <stop
         style="stop-color:black;stop-opacity:1;"
         offset="0"
         id="stop2778" />
      <stop
         style="stop-color:black;stop-opacity:0;"
         offset="1"
         id="stop2780" />
    </linearGradient>
    <linearGradient
       inkscape:collect="always"
       id="linearGradient2768">
      <stop
         style="stop-color:black;stop-opacity:1;"
         offset="0"
         id="stop2770" />
      <stop
         style="stop-color:black;stop-opacity:0;"
         offset="1"
         id="stop2772" />
    </linearGradient>
    <linearGradient
       gradientUnits="userSpaceOnUse"
       y2="42.245087"
       x2="150.11748"
       y1="202.21474"
       x1="142.96986"
       id="linearGradient2865"
       xlink:href="#linearGradient2837"
       inkscape:collect="always" />
    <linearGradient
       gradientUnits="userSpaceOnUse"
       y2="204.89578"
       x2="113.72008"
       y1="41.947189"
       x1="121.57563"
       id="linearGradient2857"
       xlink:href="#linearGradient2837"
       inkscape:collect="always" />
    <linearGradient
       spreadMethod="reflect"
       gradientUnits="userSpaceOnUse"
       y2="165.71899"
       x2="145.41264"
       y1="77.370277"
       x1="144.8076"
       id="linearGradient2849"
       xlink:href="#linearGradient2837"
       inkscape:collect="always" />
    <linearGradient
       gradientUnits="userSpaceOnUse"
       y2="53.922462"
       x2="122.81"
       y1="165.71899"
       x1="123.61967"
       id="linearGradient2835"
       xlink:href="#linearGradient2837"
       inkscape:collect="always" />
    <linearGradient
       gradientUnits="userSpaceOnUse"
       y2="190.7674"
       x2="177.70123"
       y1="172.18156"
       x1="177.02089"
       id="linearGradient2827"
       xlink:href="#linearGradient2813"
       inkscape:collect="always" />
    <linearGradient
       gradientUnits="userSpaceOnUse"
       y2="172.18156"
       x2="165.0208"
       y1="190.7674"
       x1="165.0208"
       id="linearGradient2819"
       xlink:href="#linearGradient2813"
       inkscape:collect="always" />
    <linearGradient
       id="linearGradient2813"
       inkscape:collect="always">
      <stop
         id="stop2815"
         offset="0"
         style="stop-color:white;stop-opacity:1" />
      <stop
         id="stop2817"
         offset="1"
         style="stop-color:black;stop-opacity:1" />
    </linearGradient>
    <linearGradient
       inkscape:collect="always"
       id="linearGradient2837">
      <stop
         style="stop-color:white;stop-opacity:1"
         offset="0"
         id="stop2839" />
      <stop
         style="stop-color:black;stop-opacity:1"
         offset="1"
         id="stop2841" />
    </linearGradient>
    <linearGradient
       id="linearGradient2797">
      <stop
         id="stop2799"
         offset="0"
         style="stop-color:#d1ff8d;stop-opacity:0;" />
      <stop
         style="stop-color:#a5af46;stop-opacity:0;"
         offset="0.5"
         id="stop2278" />
      <stop
         id="stop2280"
         offset="0.75"
         style="stop-color:#6b8723;stop-opacity:0.29019609;" />
      <stop
         id="stop2801"
         offset="1"
         style="stop-color:#446000;stop-opacity:1;" />
    </linearGradient>
    <linearGradient
       id="linearGradient2284">
      <stop
         style="stop-color:#c8c6fd;stop-opacity:1;"
         offset="0"
         id="stop2290" />
      <stop
         style="stop-color:#000c66;stop-opacity:1;"
         offset="1"
         id="stop2292" />
    </linearGradient>
    <linearGradient
       id="linearGradient2296">
      <stop
         id="stop2298"
         offset="0"
         style="stop-color:#6274ac;stop-opacity:1;" />
      <stop
         id="stop2300"
         offset="1"
         style="stop-color:#ffffff;stop-opacity:1;" />
    </linearGradient>
    <inkscape:perspective
       id="perspective2589"
       inkscape:persp3d-origin="250.0002 : 166.6668 : 1"
       inkscape:vp_z="500.0004 : 250.0002 : 1"
       inkscape:vp_y="0 : 1000 : 0"
       inkscape:vp_x="0 : 250.0002 : 1"
       sodipodi:type="inkscape:persp3d" />
    <linearGradient
       gradientTransform="matrix(0.4584837,0,0,0.4584837,12.357625,81.058821)"
       y2="50.573639"
       x2="215.89148"
       y1="113.36433"
       x1="155.81395"
       spreadMethod="reflect"
       gradientUnits="userSpaceOnUse"
       id="linearGradient3403"
       xlink:href="#linearGradient3369"
       inkscape:collect="always" />
    <linearGradient
       y2="78.617943"
       x2="-79.282944"
       y1="145.67221"
       x1="-81.182167"
       gradientUnits="userSpaceOnUse"
       id="linearGradient3397"
       xlink:href="#linearGradient3387"
       inkscape:collect="always" />
    <linearGradient
       gradientUnits="userSpaceOnUse"
       y2="78.617943"
       x2="-79.282944"
       y1="145.67221"
       x1="-81.182167"
       id="linearGradient3393"
       xlink:href="#linearGradient3387"
       inkscape:collect="always" />
    <linearGradient
       spreadMethod="reflect"
       gradientUnits="userSpaceOnUse"
       y2="50.573639"
       x2="215.89148"
       y1="113.36433"
       x1="155.81395"
       id="linearGradient3375"
       xlink:href="#linearGradient3369"
       inkscape:collect="always" />
    <inkscape:perspective
       sodipodi:type="inkscape:persp3d"
       inkscape:vp_x="0 : 128 : 1"
       inkscape:vp_y="0 : 1000 : 0"
       inkscape:vp_z="256 : 128 : 1"
       inkscape:persp3d-origin="128 : 85.333333 : 1"
       id="perspective2503" />
    <linearGradient
       id="linearGradient3578">
      <stop
         id="stop3580"
         offset="0"
         style="stop-color:#000000;stop-opacity:1;" />
      <stop
         id="stop3582"
         offset="1"
         style="stop-color:#fffcfc;stop-opacity:1;" />
    </linearGradient>
    <linearGradient
       id="linearGradient3369">
      <stop
         id="stop3371"
         offset="0"
         style="stop-color:#ffffff;stop-opacity:1;" />
      <stop
         id="stop3373"
         offset="1"
         style="stop-color:#000000;stop-opacity:0;" />
    </linearGradient>
    <linearGradient
       id="linearGradient3387"
       inkscape:collect="always">
      <stop
         id="stop3389"
         offset="0"
         style="stop-color:#000000;stop-opacity:1;" />
      <stop
         id="stop3391"
         offset="1"
         style="stop-color:#ffffff;stop-opacity:1" />
    </linearGradient>
    <linearGradient
       inkscape:collect="always"
       xlink:href="#linearGradient2768"
       id="linearGradient3945"
       gradientUnits="userSpaceOnUse"
       gradientTransform="translate(2.727155,101.9956)"
       x1="256.89798"
       y1="15.414317"
       x2="158.17497"
       y2="114.13732" />
    <linearGradient
       inkscape:collect="always"
       xlink:href="#linearGradient2776"
       id="linearGradient3947"
       gradientUnits="userSpaceOnUse"
       gradientTransform="translate(1.090862,103.6319)"
       x1="248.71652"
       y1="11.73778"
       x2="168.53816"
       y2="98.263771" />
    <linearGradient
       inkscape:collect="always"
       xlink:href="#linearGradient2784"
       id="linearGradient3949"
       gradientUnits="userSpaceOnUse"
       x1="249.80739"
       y1="106.90628"
       x2="183.2648"
       y2="183.26662" />
    <radialGradient
       inkscape:collect="always"
       xlink:href="#linearGradient2804"
       id="radialGradient3951"
       gradientUnits="userSpaceOnUse"
       gradientTransform="matrix(1.0299706,-0.09324647,0.10313087,1.1391505,-24.208903,-0.8963972)"
       spreadMethod="reflect"
       cx="188.86696"
       cy="159.43742"
       fx="188.86696"
       fy="159.43742"
       r="31.04413" />
    <radialGradient
       inkscape:collect="always"
       xlink:href="#linearGradient2804"
       id="radialGradient3959"
       gradientUnits="userSpaceOnUse"
       gradientTransform="matrix(0.04615088,-1.563078,1.353934,0.03997586,-68.107512,410.54226)"
       cx="162.27423"
       cy="162.09016"
       fx="162.27423"
       fy="162.09016"
       r="107.66867" />
    <linearGradient
       inkscape:collect="always"
       xlink:href="#linearGradient2812"
       id="linearGradient3961"
       gradientUnits="userSpaceOnUse"
       x1="176.8268"
       y1="236.48242"
       x2="53.274872"
       y2="9.4421997"
       gradientTransform="translate(-3.4332925,-2.49694)" />
    <radialGradient
       inkscape:collect="always"
       xlink:href="#linearGradient3369"
       id="radialGradient3933"
       cx="135.4117"
       cy="105.89498"
       fx="135.4117"
       fy="105.89498"
       r="78.967369"
       gradientUnits="userSpaceOnUse" />
    <linearGradient
       id="linearGradient2812-7">
      <stop
         id="stop2814-5"
         style="stop-color:#000000;stop-opacity:1;"
         offset="0" />
      <stop
         id="stop2816-3"
         style="stop-color:#393939;stop-opacity:1;"
         offset="1" />
    </linearGradient>
    <linearGradient
       id="linearGradient2804-5">
      <stop
         id="stop2806-6"
         style="stop-color:#cbcbcb;stop-opacity:1;"
         offset="0" />
      <stop
         id="stop2808-2"
         style="stop-color:#000000;stop-opacity:1;"
         offset="1" />
    </linearGradient>
    <linearGradient
       id="linearGradient2835-4">
      <stop
         id="stop2837"
         style="stop-color:black;stop-opacity:1"
         offset="0" />
      <stop
         id="stop2839-5"
         style="stop-color:#a9a9a9;stop-opacity:1;"
         offset="1" />
    </linearGradient>
    <linearGradient
       id="linearGradient2875-9">
      <stop
         id="stop2877-3"
         style="stop-color:#d0d0d0;stop-opacity:1;"
         offset="0" />
      <stop
         id="stop2879-7"
         style="stop-color:#272727;stop-opacity:1;"
         offset="1" />
    </linearGradient>
    <linearGradient
       id="linearGradient2881-6">
      <stop
         id="stop2883-5"
         style="stop-color:#505050;stop-opacity:1;"
         offset="0" />
      <stop
         id="stop2885-6"
         style="stop-color:#bcbcbc;stop-opacity:1;"
         offset="1" />
    </linearGradient>
    <linearGradient
       id="linearGradient2889-5">
      <stop
         id="stop2891-4"
         style="stop-color:#8c8c8c;stop-opacity:1;"
         offset="0" />
      <stop
         id="stop2893-7"
         style="stop-color:#ffffff;stop-opacity:1;"
         offset="1" />
    </linearGradient>
    <linearGradient
       id="linearGradient2897-6">
      <stop
         id="stop2899-1"
         style="stop-color:#000000;stop-opacity:1;"
         offset="0" />
      <stop
         id="stop2901-5"
         style="stop-color:#545454;stop-opacity:1;"
         offset="1" />
    </linearGradient>
    <linearGradient
       id="linearGradient3035-3">
      <stop
         id="stop3037-2"
         style="stop-color:#fdfdff;stop-opacity:1;"
         offset="0" />
      <stop
         id="stop3039-0"
         style="stop-color:#000000;stop-opacity:1;"
         offset="1" />
    </linearGradient>
    <linearGradient
       id="linearGradient3366-0">
      <stop
         id="stop3368-3"
         style="stop-color:#949494;stop-opacity:1;"
         offset="0" />
      <stop
         id="stop3370-6"
         style="stop-color:#000000;stop-opacity:1;"
         offset="1" />
    </linearGradient>
    <linearGradient
       id="linearGradient3305">
      <stop
         id="stop3307"
         offset="0"
         style="stop-color:#474747;stop-opacity:0.03381642" />
      <stop
         id="stop3309"
         offset="1"
         style="stop-color:#000000;stop-opacity:1" />
    </linearGradient>
    <inkscape:perspective
       sodipodi:type="inkscape:persp3d"
       inkscape:vp_x="0 : 128 : 1"
       inkscape:vp_y="0 : 1000 : 0"
       inkscape:vp_z="256 : 128 : 1"
       inkscape:persp3d-origin="128 : 85.333333 : 1"
       id="perspective70" />
    <linearGradient
       id="linearGradient2821"
       inkscape:collect="always">
      <stop
         id="stop2823"
         offset="0"
         style="stop-color:#1f1f47;stop-opacity:1" />
      <stop
         id="stop2825"
         offset="1"
         style="stop-color:#162a97;stop-opacity:0" />
    </linearGradient>
    <linearGradient
       id="linearGradient2916">
      <stop
         id="stop2918"
         offset="0"
         style="stop-color:#ffffff;stop-opacity:0;" />
      <stop
         id="stop2920"
         offset="1"
         style="stop-color:white;stop-opacity:1" />
    </linearGradient>
    <linearGradient
       id="linearGradient2908">
      <stop
         style="stop-color:#000000;stop-opacity:0;"
         offset="0"
         id="stop2910" />
      <stop
         style="stop-color:#0f143e;stop-opacity:1"
         offset="1"
         id="stop2912" />
    </linearGradient>
    <linearGradient
       id="linearGradient2890">
      <stop
         style="stop-color:#7d7d7d;stop-opacity:1;"
         offset="0"
         id="stop2892" />
      <stop
         style="stop-color:#000000;stop-opacity:1;"
         offset="1"
         id="stop2894" />
    </linearGradient>
    <linearGradient
       inkscape:collect="always"
       xlink:href="#linearGradient2890"
       id="linearGradient2896"
       x1="93.801529"
       y1="209.34351"
       x2="153.89313"
       y2="5.8625956"
       gradientUnits="userSpaceOnUse" />
    <linearGradient
       inkscape:collect="always"
       xlink:href="#linearGradient2908"
       id="linearGradient2906"
       gradientUnits="userSpaceOnUse"
       x1="155.35878"
       y1="139.48091"
       x2="163.17557"
       y2="150.47328"
       gradientTransform="translate(-0.977146,0.48855)" />
    <linearGradient
       inkscape:collect="always"
       xlink:href="#linearGradient2916"
       id="linearGradient2922"
       gradientUnits="userSpaceOnUse"
       x1="114.80917"
       y1="106.25954"
       x2="154.38168"
       y2="52.763359" />
    <linearGradient
       y2="21.740461"
       x2="131.90839"
       y1="217.40459"
       x1="33.221375"
       gradientUnits="userSpaceOnUse"
       id="linearGradient3922"
       xlink:href="#linearGradient2890"
       inkscape:collect="always" />
    <linearGradient
       y2="26.137407"
       x2="88.183228"
       y1="51.786266"
       x1="88.183228"
       gradientUnits="userSpaceOnUse"
       id="linearGradient3919"
       xlink:href="#linearGradient3888"
       inkscape:collect="always" />
    <linearGradient
       gradientTransform="translate(95.26718,-0.48855)"
       y2="21.740461"
       x2="131.90839"
       y1="217.40459"
       x1="33.221375"
       gradientUnits="userSpaceOnUse"
       id="linearGradient3912"
       xlink:href="#linearGradient2890"
       inkscape:collect="always" />
    <linearGradient
       gradientTransform="translate(95.26718,-0.48855)"
       y2="26.137407"
       x2="88.183228"
       y1="51.786266"
       x1="88.183228"
       gradientUnits="userSpaceOnUse"
       id="linearGradient3909"
       xlink:href="#linearGradient3888"
       inkscape:collect="always" />
    <linearGradient
       inkscape:collect="always"
       id="linearGradient3888">
      <stop
         style="stop-color:#aaf;stop-opacity:0"
         offset="0"
         id="stop3890" />
      <stop
         style="stop-color:white;stop-opacity:1"
         offset="1"
         id="stop3892" />
    </linearGradient>
    <linearGradient
       inkscape:collect="always"
       xlink:href="#linearGradient3888"
       id="linearGradient2087"
       gradientUnits="userSpaceOnUse"
       gradientTransform="translate(334.8109,36.78514)"
       x1="88.183228"
       y1="51.786266"
       x2="88.183228"
       y2="26.137407" />
    <linearGradient
       inkscape:collect="always"
       xlink:href="#linearGradient2890"
       id="linearGradient2090"
       gradientUnits="userSpaceOnUse"
       gradientTransform="translate(334.8109,36.78514)"
       x1="33.221375"
       y1="217.40459"
       x2="131.90839"
       y2="21.740461" />
    <linearGradient
       inkscape:collect="always"
       xlink:href="#linearGradient3888"
       id="linearGradient2093"
       gradientUnits="userSpaceOnUse"
       x1="88.183228"
       y1="51.786266"
       x2="88.183228"
       y2="26.137407"
       gradientTransform="translate(239.5437,37.27369)" />
    <linearGradient
       inkscape:collect="always"
       xlink:href="#linearGradient2890"
       id="linearGradient2096"
       gradientUnits="userSpaceOnUse"
       x1="33.221375"
       y1="217.40459"
       x2="131.90839"
       y2="21.740461"
       gradientTransform="translate(239.5437,37.27369)" />
    <linearGradient
       inkscape:collect="always"
       xlink:href="#linearGradient3888"
       id="linearGradient1927"
       gradientUnits="userSpaceOnUse"
       gradientTransform="matrix(0.490066,0,0,1.080729,-234.0628,-3.61673)"
       x1="88.183228"
       y1="51.786266"
       x2="88.183228"
       y2="26.137407" />
    <linearGradient
       inkscape:collect="always"
       xlink:href="#linearGradient2890"
       id="linearGradient1930"
       gradientUnits="userSpaceOnUse"
       gradientTransform="matrix(0.490066,0,0,1.080729,-234.0629,-3.616732)"
       x1="33.221375"
       y1="217.40459"
       x2="131.90839"
       y2="21.740461" />
    <linearGradient
       inkscape:collect="always"
       xlink:href="#linearGradient2821"
       id="linearGradient2827-3"
       gradientUnits="userSpaceOnUse"
       gradientTransform="matrix(0.490066,0,0,1.080729,-234.0628,-3.61673)"
       x1="88.183067"
       y1="220.85507"
       x2="88.183067"
       y2="197.01443" />
    <inkscape:perspective
       sodipodi:type="inkscape:persp3d"
       inkscape:vp_x="0 : 128 : 1"
       inkscape:vp_y="0 : 1000 : 0"
       inkscape:vp_z="256 : 128 : 1"
       inkscape:persp3d-origin="128 : 85.333333 : 1"
       id="perspective2503-6" />
    <linearGradient
       inkscape:collect="always"
       xlink:href="#linearGradient2916"
       id="linearGradient2784-5"
       gradientUnits="userSpaceOnUse"
       x1="114.80917"
       y1="106.25954"
       x2="154.38168"
       y2="52.763359"
       gradientTransform="matrix(1.2152197,0,0,1.2152197,-36.753845,-1.5657271)" />
    <linearGradient
       inkscape:collect="always"
       xlink:href="#linearGradient2908"
       id="linearGradient2787"
       gradientUnits="userSpaceOnUse"
       gradientTransform="matrix(1.2152197,0,0,1.2152197,-39.895494,0.4936174)"
       x1="155.35878"
       y1="139.48091"
       x2="163.17557"
       y2="150.47328" />
    <filter
       height="1.022962"
       y="-0.011480983"
       width="1.0251254"
       x="-0.012562719"
       id="filter947"
       style="color-interpolation-filters:sRGB"
       inkscape:collect="always">
      <feGaussianBlur
         id="feGaussianBlur949"
         stdDeviation="1.1414346"
         inkscape:collect="always" />
    </filter>
    <filter
       inkscape:collect="always"
       style="color-interpolation-filters:sRGB"
       id="filter1220"
       x="-0.024"
       width="1.048"
       y="-0.024"
       height="1.048">
      <feGaussianBlur
         inkscape:collect="always"
         stdDeviation="1.5793474"
         id="feGaussianBlur1222" />
    </filter>
  </defs>
  <sodipodi:namedview
     inkscape:window-height="1056"
     inkscape:window-width="1920"
     inkscape:pageshadow="2"
     inkscape:pageopacity="0"
     guidetolerance="10.0"
     gridtolerance="10.0"
     objecttolerance="10.0"
     borderopacity="1.0"
     bordercolor="#666666"
     pagecolor="#ff0000"
     id="base"
     inkscape:zoom="3.454902"
     inkscape:cx="127.5"
     inkscape:cy="127.5"
     inkscape:window-x="0"
     inkscape:window-y="0"
     inkscape:current-layer="svg2"
     showgrid="false"
     inkscape:window-maximized="1"
     inkscape:snap-to-guides="false"
     inkscape:snap-grids="false"
     inkscape:snap-others="false"
     inkscape:object-nodes="false"
     inkscape:snap-nodes="false"
     inkscape:snap-global="false" />
  <g
     transform="matrix(1,0,0.02944761,1,253.02628,7.2037718)"
     style="fill:#000000;fill-opacity:0.34979428;filter:url(#filter947)"
     id="g941">
    <g
       style="fill:#000000;fill-opacity:0.34979428"
       id="g933">
      <path
         sodipodi:nodetypes="cccccc"
         d="m -217.52319,21.67738 c -13.56041,71.636738 -11.80157,158.12042 0,219.9064 70.23884,18.87974 146.211482,-20.93789 205.406199,-17.18749 -19.269117,-43.74806 -13.141669,-112.35782 -8.625,-153.8122 4.070563,-28.494332 -32.072503,-50.193295 -51.5,-62.5000003 C -122.19896,16.77242 -174.63433,26.275954 -217.52319,21.67738 Z"
         id="path2820"
         style="fill:#000000;fill-opacity:0.34979428;fill-rule:evenodd;stroke:none"
         inkscape:connector-curvature="0" />
      <path
         inkscape:connector-curvature="0"
         style="fill:#000000;fill-opacity:0.34979428;fill-rule:evenodd;stroke:none"
         id="path920"
         d="m -216.00171,24.720339 c -12.138,72.585009 -11.11007,153.002661 -0.3043,214.124781 70.23884,18.87974 142.638022,-19.4945 201.832739,-15.7441 C -33.742388,179.35296 -27.693028,112.03847 -23.176359,70.58409 -19.105796,42.089758 -53.727382,22.216571 -73.154879,9.9098654 -123.11185,18.598196 -173.11285,29.318913 -216.00171,24.720339 Z"
         sodipodi:nodetypes="cccccc" />
      <path
         sodipodi:nodetypes="cccccc"
         d="m -214.4102,26.577103 c -12.138,72.585009 -11.37532,148.758627 -0.56955,209.880747 70.23884,18.87974 138.924494,-18.96399 198.119211,-15.21359 C -36.129656,177.4962 -29.549792,113.09948 -25.033123,71.645098 -20.96256,43.150766 -54.257886,23.808083 -73.685383,11.501377 -123.64235,20.189708 -171.52134,31.175677 -214.4102,26.577103 Z"
         id="path922"
         style="fill:#000000;fill-opacity:0.34979428;fill-rule:evenodd;stroke:none"
         inkscape:connector-curvature="0" />
      <path
         inkscape:connector-curvature="0"
         style="fill:#000000;fill-opacity:0.34979428;fill-rule:evenodd;stroke:none"
         id="path924"
         d="m -213.08394,28.699119 c -12.138,72.585011 -11.37532,145.045101 -0.56955,206.167221 70.23884,18.87974 135.210966,-19.4945 194.405683,-15.7441 C -38.516924,175.37418 -31.93706,113.09948 -27.420391,71.645098 -23.349828,43.150766 -54.523138,26.195351 -73.950635,13.888645 -123.9076,22.576976 -170.19508,33.297693 -213.08394,28.699119 Z"
         sodipodi:nodetypes="cccccc" />
      <path
         sodipodi:nodetypes="cccccc"
         d="m -210.96192,31.351639 c -12.138,72.585011 -12.70158,141.066321 -1.89581,202.188441 70.23884,18.87974 131.762686,-20.55551 190.957403,-16.80511 C -41.169444,172.98691 -33.528572,113.36473 -29.011903,71.91035 -24.94134,43.416018 -54.78839,29.113123 -74.215887,16.806417 -124.17285,25.494748 -168.07306,35.950213 -210.96192,31.351639 Z"
         id="path926"
         style="fill:#000000;fill-opacity:0.34979428;fill-rule:evenodd;stroke:none"
         inkscape:connector-curvature="0" />
    </g>
  </g>
  <path
     style="fill:url(#radialGradient3959);fill-opacity:1;fill-rule:evenodd;stroke:url(#linearGradient3961);stroke-width:2.70000005;stroke-linecap:round;stroke-linejoin:round;stroke-miterlimit:4;stroke-opacity:1;stroke-dasharray:none"
     d="m 29.292566,17.967755 c 44.37499,5.458814 94.018354,-1.726458 145.630064,-13.6357734 21.56922,14.4027404 43.82734,28.3921374 51.27051,51.2705084 -5.14653,54.36128 -15.36296,108.72256 8.7269,163.08385 C 167.2866,212.60818 96.926008,253.01837 30.383426,236.68556 16.366305,166.18906 18.643095,92.81718 29.292566,17.967755 z"
     id="path1873"
     sodipodi:nodetypes="cccccc"
     inkscape:connector-curvature="0" />
  <g
     id="g2792"
     transform="translate(-8.3421705,-111.03774)">
    <path
       sodipodi:nodetypes="cccc"
       id="path2766"
       d="m 156.53869,211.36553 c 13.28542,-17.44929 34.02093,-77.54136 27.27153,-97.63214 21.56922,14.40274 43.82734,28.39213 51.27051,51.2705 -22.05844,6.72055 -54.13461,50.39418 -78.54204,46.36164 z"
       style="fill:url(#linearGradient3945);fill-opacity:1;fill-rule:evenodd;stroke:none"
       inkscape:connector-curvature="0" />
    <path
       style="fill:url(#linearGradient3947);fill-opacity:1;fill-rule:evenodd;stroke:none"
       d="m 162.53843,201.54777 c 13.28542,-17.44929 26.3849,-66.08731 19.6355,-86.17809 21.56922,14.40274 43.82734,28.39214 51.27051,51.27051 -22.05844,6.72055 -46.49858,38.94012 -70.90601,34.90758 z"
       id="path2764"
       sodipodi:nodetypes="cccc"
       inkscape:connector-curvature="0" />
    <path
       sodipodi:nodetypes="cccc"
       id="path1877"
       d="m 167.44731,190.09372 c 13.28542,-17.44929 23.65775,-54.08783 16.90835,-74.17861 21.56922,14.40274 43.82734,28.39214 51.27051,51.27051 -22.05844,6.72055 -43.77143,26.94064 -68.17886,22.9081 z"
       style="fill:url(#linearGradient3949);fill-opacity:1;fill-rule:evenodd;stroke:none"
       inkscape:connector-curvature="0" />
    <path
       style="fill:url(#radialGradient3951);fill-opacity:1;fill-rule:evenodd;stroke:#4b4b4b;stroke-width:1.5;stroke-linecap:butt;stroke-linejoin:round;stroke-opacity:1;stroke-miterlimit:4;stroke-dasharray:none"
       d="m 173.99247,172.0945 c 13.28542,-17.44929 16.56715,-37.17947 9.81775,-57.27025 21.56922,14.40274 43.82734,28.39214 51.27051,51.27051 -22.05844,6.72055 -36.68083,10.03228 -61.08826,5.99974 z"
       id="path1875"
       sodipodi:nodetypes="cccc"
       inkscape:connector-curvature="0" />
  </g>
  <path
     inkscape:connector-curvature="0"
     style="fill:none;stroke:#907b7b;stroke-width:2;stroke-linecap:round;stroke-linejoin:round;stroke-miterlimit:4;stroke-opacity:1;stroke-dasharray:none"
     d="M 41.909722,48.993056 C 84.650945,54.349319 122.69602,42.095018 162.62153,36.892361"
     id="path3304"
     sodipodi:nodetypes="cc" />
  <path
     inkscape:connector-curvature="0"
     sodipodi:nodetypes="cc"
     id="path3306"
     d="M 40.729166,60.503473 C 83.470389,65.859736 121.51546,53.605435 161.44097,48.402778"
     style="fill:none;stroke:#907b7b;stroke-width:2;stroke-linecap:round;stroke-linejoin:round;stroke-miterlimit:4;stroke-opacity:1;stroke-dasharray:none" />
  <path
     inkscape:connector-curvature="0"
     style="fill:none;stroke:#907b7b;stroke-width:2;stroke-linecap:round;stroke-linejoin:round;stroke-miterlimit:4;stroke-opacity:1;stroke-dasharray:none"
     d="M 40.434027,71.128473 C 83.17525,76.484736 121.22032,64.230435 161.14583,59.027778"
     id="path3308"
     sodipodi:nodetypes="cc" />
  <path
     inkscape:connector-curvature="0"
     sodipodi:nodetypes="cc"
     id="path3310"
     d="M 40.729166,81.458334 C 83.470389,86.814597 121.51546,74.560296 161.44097,69.357639"
     style="fill:none;stroke:#907b7b;stroke-width:2;stroke-linecap:round;stroke-linejoin:round;stroke-miterlimit:4;stroke-opacity:1;stroke-dasharray:none" />
  <path
     inkscape:connector-curvature="0"
     style="fill:none;stroke:#907b7b;stroke-width:2;stroke-linecap:round;stroke-linejoin:round;stroke-miterlimit:4;stroke-opacity:1;stroke-dasharray:none"
     d="M 40.434027,92.673612 C 83.17525,98.029875 121.22032,85.775574 161.14583,80.572917"
     id="path3312"
     sodipodi:nodetypes="cc" />
  <path
     inkscape:connector-curvature="0"
     sodipodi:nodetypes="cc"
     id="path3314"
     d="M 40.434027,123.6632 C 83.17525,129.01946 155.75157,105.84502 197.74305,106.25"
     style="fill:none;stroke:#907b7b;stroke-width:2;stroke-linecap:round;stroke-linejoin:round;stroke-miterlimit:4;stroke-opacity:1;stroke-dasharray:none" />
  <path
     inkscape:connector-curvature="0"
     style="fill:none;stroke:#907b7b;stroke-width:2;stroke-linecap:round;stroke-linejoin:round;stroke-miterlimit:4;stroke-opacity:1;stroke-dasharray:none"
     d="m 38.958333,137.23959 c 42.741223,5.35626 115.317547,-17.81818 157.309027,-17.4132"
     id="path3316"
     sodipodi:nodetypes="cc" />
  <path
     inkscape:connector-curvature="0"
     sodipodi:nodetypes="cc"
     id="path3318"
     d="M 39.548611,150.52084 C 82.289834,155.8771 154.86616,132.70266 196.85764,133.10764"
     style="fill:none;stroke:#907b7b;stroke-width:2;stroke-linecap:round;stroke-linejoin:round;stroke-miterlimit:4;stroke-opacity:1;stroke-dasharray:none" />
  <path
     inkscape:connector-curvature="0"
     style="fill:none;stroke:#907b7b;stroke-width:2;stroke-linecap:round;stroke-linejoin:round;stroke-miterlimit:4;stroke-opacity:1;stroke-dasharray:none"
     d="m 40.138889,164.39237 c 42.741223,5.35626 115.317551,-17.81818 157.309031,-17.4132"
     id="path3320"
     sodipodi:nodetypes="cc" />
  <path
     inkscape:connector-curvature="0"
     sodipodi:nodetypes="cc"
     id="path3322"
     d="m 42.204861,177.96876 c 42.741223,5.35626 115.317549,-17.81818 157.309029,-17.4132"
     style="fill:none;stroke:#907b7b;stroke-width:2;stroke-linecap:round;stroke-linejoin:round;stroke-miterlimit:4;stroke-opacity:1;stroke-dasharray:none" />
  <path
     inkscape:connector-curvature="0"
     style="fill:none;stroke:#907b7b;stroke-width:2;stroke-linecap:round;stroke-linejoin:round;stroke-miterlimit:4;stroke-opacity:1;stroke-dasharray:none"
     d="m 43.975694,191.54515 c 42.741223,5.35626 115.317546,-17.81818 157.309026,-17.4132"
     id="path3324"
     sodipodi:nodetypes="cc" />
  <path
     inkscape:connector-curvature="0"
     sodipodi:nodetypes="cc"
     id="path3326"
     d="m 45.15625,203.94098 c 42.741223,5.35626 115.31755,-17.81818 157.30903,-17.4132"
     style="fill:none;stroke:#907b7b;stroke-width:2;stroke-linecap:round;stroke-linejoin:round;stroke-miterlimit:4;stroke-opacity:1;stroke-dasharray:none" />
  <path
     sodipodi:type="star"
     style="fill:#000000;fill-opacity:1;stroke:#575757;stroke-width:3;stroke-linecap:round;stroke-linejoin:round;stroke-miterlimit:4;stroke-opacity:1;stroke-dasharray:none"
     id="path3149"
     sodipodi:sides="8"
     sodipodi:cx="125.06563"
     sodipodi:cy="133.28162"
     sodipodi:r1="80.599373"
     sodipodi:r2="40.541485"
     sodipodi:arg1="-2.5577785"
     sodipodi:arg2="-2.1650794"
     inkscape:flatsided="false"
     inkscape:rounded="0.007"
     inkscape:randomized="0"
     d="m 57.816226,88.854409 c 0.176905,-0.267783 44.283704,11.016254 44.549624,10.836555 0.26591,-0.1797 6.24761,-45.312377 6.56205,-45.376636 0.31444,-0.06426 23.52364,39.102977 23.83874,39.163941 0.31509,0.06096 36.45841,-27.622961 36.7262,-27.446055 0.26778,0.176906 -11.01626,44.283706 -10.83656,44.549626 0.1797,0.26591 45.31238,6.24761 45.37664,6.56205 0.0643,0.31444 -39.10298,23.52364 -39.16394,23.83874 -0.061,0.31509 27.62296,36.45841 27.44605,36.72619 -0.17691,0.26779 -44.28371,-11.01625 -44.54962,-10.83655 -0.26592,0.1797 -6.24761,45.31238 -6.56205,45.37663 -0.31445,0.0643 -23.52364,-39.10297 -23.83874,-39.16394 -0.3151,-0.061 -36.458418,27.62296 -36.7262,27.44606 -0.267782,-0.17691 11.016255,-44.28371 10.836556,-44.54962 -0.1797,-0.26592 -45.312377,-6.24761 -45.376636,-6.56206 -0.06426,-0.31444 39.102977,-23.52364 39.163941,-23.83873 0.06096,-0.3151 -27.622961,-36.458419 -27.446055,-36.726201 z"
     transform="translate(2.7386635,24.952267)" />
  <g
     id="g1214"
     style="fill:#000000;fill-opacity:0.34979428;filter:url(#filter1220)"
     transform="translate(268.31441,31.83882)">
    <path
       id="path3919"
       d="m -197.35406,89.434349 c 0.1769,-0.267782 44.2837,11.016251 44.54962,10.836551 0.26591,-0.17969 6.24761,-45.312372 6.56205,-45.376631 0.31444,-0.06426 23.52364,39.102977 23.83874,39.163941 0.3151,0.06096 36.458416,-27.622961 36.726198,-27.446055 0.267782,0.176905 -11.016255,44.283705 -10.836556,44.549625 0.1797,0.26591 45.312377,6.24761 45.376636,6.56205 0.06426,0.31444 -39.102977,23.52364 -39.163941,23.83874 -0.06096,0.31509 27.622961,36.45841 27.446055,36.72619 -0.176905,0.26779 -44.283702,-11.01625 -44.549622,-10.83655 -0.26591,0.1797 -6.24761,45.31238 -6.56205,45.37664 -0.31444,0.0643 -23.52364,-39.10298 -23.83874,-39.16395 -0.3151,-0.061 -36.45842,27.62297 -36.7262,27.44606 -0.26778,-0.17691 11.01626,-44.28371 10.83656,-44.54962 -0.1797,-0.26592 -45.31238,-6.24761 -45.37664,-6.56205 -0.0643,-0.31445 39.10298,-23.52364 39.16394,-23.83874 0.061,-0.3151 -27.62296,-36.458419 -27.44605,-36.726201 z"
       style="fill:#000000;fill-opacity:0.34979428;stroke:none"
       inkscape:connector-curvature="0" />
    <path
       inkscape:connector-curvature="0"
       id="path1198"
       d="m -145.95117,59.234375 c -2.18605,14.016665 -3.61132,28.175875 -6.1211,42.128905 -14.42464,-3.026808 -28.66311,-7.125159 -43.01562,-10.431639 8.67287,11.929139 18.041,23.376749 26.46094,35.472659 -12.32016,8.08943 -25.28653,15.22041 -37.78516,23.05273 14.55311,2.29196 29.28796,3.78398 43.79688,6.36719 -2.99243,14.42929 -7.12334,28.66652 -10.41993,43.02148 11.92664,-8.68072 23.38757,-18.03148 35.47461,-26.4707 8.07964,12.3303 15.21864,25.28986 23.05078,37.79102 2.30072,-14.56746 3.77438,-29.288 6.37305,-43.79493 14.426695,2.99931 28.662342,7.12375 43.015626,10.41993 -8.674576,-11.92763 -18.04054,-23.37696 -26.460937,-35.47266 12.3209,-8.08708 25.284616,-15.21944 37.783203,-23.05078 -14.568325,-2.30002 -29.28897,-3.77525 -43.796875,-6.37305 2.997344,-14.427139 7.125523,-28.6619 10.419922,-43.015624 -11.932172,8.675964 -23.385809,18.046839 -35.486329,26.46875 -8.05316,-12.343619 -15.22816,-25.305823 -23.03711,-37.791015 l -0.14851,0.988911 z"
       style="fill:#000000;fill-opacity:0.34979428;stroke:none" />
    <path
       inkscape:connector-curvature="0"
       id="path1202"
       d="m -145.36328,62.007812 c -2.00733,13.510837 -3.45723,27.107528 -5.90234,40.550778 -13.87541,-2.854963 -27.75527,-6.84891 -41.38086,-9.988278 8.42033,11.412078 17.35506,22.444338 25.43359,34.107418 -11.80968,7.82575 -24.4684,14.79035 -36.31641,22.21094 14.02632,2.10773 28.14372,3.61378 42.10742,6.12695 -2.82088,13.8822 -6.84477,27.77226 -9.9746,41.38868 11.41184,-8.42698 22.45594,-17.34668 34.10937,-25.44532 7.81355,11.81724 14.79383,24.48666 22.21094,36.32227 2.11175,-14.02474 3.5995,-28.14424 6.13281,-42.10352 13.878258,2.82665 27.766516,6.84686 41.38086,9.97461 -8.423867,-11.41057 -17.353018,-22.44442 -25.433594,-34.10742 11.808434,-7.82205 24.478416,-14.79682 36.3125,-22.21094 -14.027055,-2.10984 -28.141471,-3.60225 -42.105468,-6.13281 2.821993,-13.87646 6.856718,-27.784069 9.970703,-41.380858 -11.413111,8.428998 -22.451661,17.360389 -34.119141,25.44336 -7.78579,-11.88238 -14.73091,-24.283503 -22.17969,-36.375 l -0.15026,0.988646 z"
       style="fill:#000000;fill-opacity:0.34979428;stroke:none" />
    <path
       inkscape:connector-curvature="0"
       id="path1206"
       d="m -145.10352,67.214844 c -1.7,12.190395 -3.12718,24.426216 -5.35742,36.535156 -13.3592,-2.72202 -26.49052,-6.419406 -39.74804,-9.582031 8.14445,10.920301 16.67218,21.559701 24.40625,32.781251 -11.34925,7.55507 -23.26412,14.20231 -34.8711,21.34375 13.4816,1.96316 27.03414,3.4718 40.44141,5.91601 -2.68551,13.36954 -6.40906,26.49724 -9.56641,39.75782 10.92245,-8.14703 21.57168,-16.66642 32.78321,-24.41992 7.54332,11.35867 14.20975,23.29124 21.34374,34.88085 1.9652,-13.48099 3.45647,-27.03628 5.92383,-40.43945 13.365914,2.69296 26.489737,6.41064 39.74805,9.56836 -8.142706,-10.92224 -16.672466,-21.5608 -24.40625,-32.7832 11.347914,-7.5519 23.280636,-14.2102 34.865234,-21.34375 -13.480384,-1.96481 -27.034533,-3.45937 -40.4375,-5.92383 2.688938,-13.36621 6.41331,-26.490963 9.566407,-39.750001 -10.925601,8.150608 -21.571971,16.682391 -32.800781,24.419922 -7.50015,-11.392497 -14.22362,-23.267437 -21.32031,-34.910156 -0.19011,1.316406 -0.38021,2.632813 -0.57032,3.949219 z"
       style="fill:#000000;fill-opacity:0.34979428;stroke:none" />
  </g>
  <path
     transform="translate(2.7386635,24.952267)"
     d="m 57.816226,88.854409 c 0.176905,-0.267783 44.283704,11.016254 44.549624,10.836555 0.26591,-0.1797 6.24761,-45.312377 6.56205,-45.376636 0.31444,-0.06426 23.52364,39.102977 23.83874,39.163941 0.31509,0.06096 36.45841,-27.622961 36.7262,-27.446055 0.26778,0.176906 -11.01626,44.283706 -10.83656,44.549626 0.1797,0.26591 45.31238,6.24761 45.37664,6.56205 0.0643,0.31444 -39.10298,23.52364 -39.16394,23.83874 -0.061,0.31509 27.62296,36.45841 27.44605,36.72619 -0.17691,0.26779 -44.28371,-11.01625 -44.54962,-10.83655 -0.26592,0.1797 -6.24761,45.31238 -6.56205,45.37663 -0.31445,0.0643 -23.52364,-39.10297 -23.83874,-39.16394 -0.3151,-0.061 -36.458418,27.62296 -36.7262,27.44606 -0.267782,-0.17691 11.016255,-44.28371 10.836556,-44.54962 -0.1797,-0.26592 -45.312377,-6.24761 -45.376636,-6.56206 -0.06426,-0.31444 39.102977,-23.52364 39.163941,-23.83873 0.06096,-0.3151 -27.622961,-36.458419 -27.446055,-36.726201 z"
     inkscape:randomized="0"
     inkscape:rounded="0.007"
     inkscape:flatsided="false"
     sodipodi:arg2="-2.1650794"
     sodipodi:arg1="-2.5577785"
     sodipodi:r2="40.541485"
     sodipodi:r1="80.599373"
     sodipodi:cy="133.28162"
     sodipodi:cx="125.06563"
     sodipodi:sides="8"
     id="path3925"
     style="fill:url(#radialGradient3933);fill-opacity:1;stroke:none;stroke-width:3;stroke-linecap:round;stroke-linejoin:round;stroke-miterlimit:4;stroke-opacity:1;stroke-dasharray:none"
     sodipodi:type="star" />
  <g
     font-size="7.5"
     font-variant="normal"
     letter-spacing="0"
     font-stretch="normal"
     font-weight="bold"
     line-height="125%"
     word-spacing="0"
     font-style="normal"
     transform="translate(67.870307,-42.053149)"
     id="text4330"
     style="font-style:normal;font-variant:normal;font-weight:bold;font-stretch:normal;font-size:7.5px;line-height:125%;font-family:STIX;letter-spacing:0;word-spacing:0;fill:#000000;fill-opacity:1;stroke:none;stroke-width:1;stroke-linecap:butt;stroke-linejoin:miter;stroke-opacity:1">
    <path
       inkscape:connector-curvature="0"
       id="path4335"
       d="m -56.13327,39.467617 0,-0.1875 c -0.3075,0 -0.4425,-0.165 -0.825,-1.0725 l -1.665,-3.915 -0.21,0 -1.6575,4.0875 c -0.285,0.705 -0.3975,0.84 -0.7425,0.9 l 0,0.1875 1.515,0 0,-0.1875 c -0.4425,-0.03 -0.6075,-0.1125 -0.6075,-0.3075 0,-0.18 0.1425,-0.495 0.2325,-0.7275 l 0.0975,-0.255 1.6875,0 c 0.255,0.5925 0.345,0.855 0.345,1.02 0,0.165 -0.0975,0.225 -0.345,0.2475 l -0.24,0.0225 0,0.1875 2.415,0 z m -2.2875,-1.77 -1.4625,0 0.705,-1.8225 0.7575,1.8225 z" />
    <path
       inkscape:connector-curvature="0"
       id="path4337"
       d="m -55.760848,34.397617 0,0.1875 c 0.525,0.045 0.63,0.15 0.63,0.735 l 0,3.2025 c 0,0.3825 -0.045,0.5925 -0.2925,0.69 -0.0825,0.0375 -0.195,0.0525 -0.3375,0.0675 l 0,0.1875 2.4975,0 0,-0.1875 c -0.5925,-0.075 -0.6525,-0.1425 -0.6525,-0.645 l 0,-1.44 c 0.99,-0.0075 1.245,-0.03 1.5675,-0.15 0.6225,-0.2325 0.9675,-0.69 0.9675,-1.29 0,-0.915 -0.765,-1.3575 -2.0175,-1.3575 l -2.3625,0 z m 1.845,0.525 c 0,-0.1725 0.1275,-0.2625 0.375,-0.2625 0.6225,0 0.87,0.345 0.87,1.1775 0,0.8325 -0.3075,1.0875 -1.245,1.095 l 0,-2.01 z" />
  </g>
</svg>
