<?xml version="1.0" encoding="UTF-8" standalone="no"?>
<!-- Created with Inkscape (http://www.inkscape.org/) -->

<svg
   xmlns:dc="http://purl.org/dc/elements/1.1/"
   xmlns:cc="http://creativecommons.org/ns#"
   xmlns:rdf="http://www.w3.org/1999/02/22-rdf-syntax-ns#"
   xmlns:svg="http://www.w3.org/2000/svg"
   xmlns="http://www.w3.org/2000/svg"
   xmlns:xlink="http://www.w3.org/1999/xlink"
   xmlns:sodipodi="http://sodipodi.sourceforge.net/DTD/sodipodi-0.dtd"
   xmlns:inkscape="http://www.inkscape.org/namespaces/inkscape"
   id="svg2"
   sodipodi:version="0.32"
   inkscape:version="0.91 r13725"
   width="256"
   height="256"
   version="1.0"
   sodipodi:docname="video-x-theora+ogg.svg">
  <metadata
     id="metadata7">
    <rdf:RDF>
      <cc:Work
         rdf:about="">
        <dc:format>image/svg+xml</dc:format>
        <dc:type
           rdf:resource="http://purl.org/dc/dcmitype/StillImage" />
        <dc:title></dc:title>
      </cc:Work>
    </rdf:RDF>
  </metadata>
  <defs
     id="defs5">
    <linearGradient
       inkscape:collect="always"
       id="linearGradient4697">
      <stop
         style="stop-color:#001194;stop-opacity:1"
         offset="0"
         id="stop4699" />
      <stop
         style="stop-color:#000000;stop-opacity:1"
         offset="1"
         id="stop4701" />
    </linearGradient>
    <linearGradient
       inkscape:collect="always"
       id="linearGradient4181">
      <stop
         style="stop-color:#ffffff;stop-opacity:1;"
         offset="0"
         id="stop4183" />
      <stop
         style="stop-color:#ffffff;stop-opacity:0;"
         offset="1"
         id="stop4185" />
    </linearGradient>
    <linearGradient
       inkscape:collect="always"
       id="linearGradient2867">
      <stop
         style="stop-color:#2033ec;stop-opacity:1"
         offset="0"
         id="stop2869" />
      <stop
         style="stop-color:#aaafe0;stop-opacity:1"
         offset="1"
         id="stop2871" />
    </linearGradient>
    <linearGradient
       inkscape:collect="always"
       id="linearGradient2861">
      <stop
         style="stop-color:red;stop-opacity:1"
         offset="0"
         id="stop2863" />
      <stop
         style="stop-color:#ccc;stop-opacity:0;"
         offset="1"
         id="stop2865" />
    </linearGradient>
    <linearGradient
       inkscape:collect="always"
       id="linearGradient2845">
      <stop
         style="stop-color:red;stop-opacity:1;"
         offset="0"
         id="stop2847" />
      <stop
         style="stop-color:red;stop-opacity:0;"
         offset="1"
         id="stop2849" />
    </linearGradient>
    <linearGradient
       inkscape:collect="always"
       id="linearGradient2821">
      <stop
         style="stop-color:#dddef5;stop-opacity:1"
         offset="0"
         id="stop2823" />
      <stop
         style="stop-color:#3140c0;stop-opacity:1"
         offset="1"
         id="stop2825" />
    </linearGradient>
    <linearGradient
       inkscape:collect="always"
       id="linearGradient2790">
      <stop
         style="stop-color:#5662e1;stop-opacity:1"
         offset="0"
         id="stop2792" />
      <stop
         style="stop-color:#c4c8fa;stop-opacity:1"
         offset="1"
         id="stop2794" />
    </linearGradient>
    <linearGradient
       inkscape:collect="always"
       xlink:href="#linearGradient2790"
       id="linearGradient2796"
       x1="78.476791"
       y1="63.527233"
       x2="91.660522"
       y2="44.326923"
       gradientUnits="userSpaceOnUse"
       gradientTransform="translate(5.6201976,-0.28100988)" />
    <linearGradient
       inkscape:collect="always"
       xlink:href="#linearGradient2790"
       id="linearGradient2806"
       x1="282.18256"
       y1="191.21849"
       x2="291.80615"
       y2="167.42365"
       gradientUnits="userSpaceOnUse"
       gradientTransform="translate(-166.6558,-98.18649)" />
    <linearGradient
       inkscape:collect="always"
       xlink:href="#linearGradient2790"
       id="linearGradient2819"
       x1="113.01987"
       y1="104.53596"
       x2="120.67249"
       y2="76.048218"
       gradientUnits="userSpaceOnUse"
       gradientTransform="translate(5.6201976,-0.28100988)" />
    <linearGradient
       inkscape:collect="always"
       xlink:href="#linearGradient2821"
       id="linearGradient2827"
       x1="295.36374"
       y1="57.263836"
       x2="270.77625"
       y2="147.67801"
       gradientUnits="userSpaceOnUse" />
    <linearGradient
       inkscape:collect="always"
       xlink:href="#linearGradient2845"
       id="linearGradient2851"
       x1="271.8392"
       y1="144.81964"
       x2="267.31683"
       y2="131.84395"
       gradientUnits="userSpaceOnUse" />
    <linearGradient
       inkscape:collect="always"
       xlink:href="#linearGradient2861"
       id="linearGradient2859"
       x1="194.63733"
       y1="124.91859"
       x2="216.51877"
       y2="117.13432"
       gradientUnits="userSpaceOnUse" />
    <linearGradient
       inkscape:collect="always"
       xlink:href="#linearGradient2867"
       id="linearGradient2873"
       x1="289.38672"
       y1="244.40285"
       x2="274.54245"
       y2="117.42177"
       gradientUnits="userSpaceOnUse"
       spreadMethod="reflect" />
    <radialGradient
       inkscape:collect="always"
       xlink:href="#linearGradient4181"
       id="radialGradient4187"
       cx="180.02484"
       cy="105.51922"
       fx="180.02484"
       fy="105.51922"
       r="2.4265919"
       gradientTransform="matrix(1,0,0,0.98433689,0,1.6527591)"
       gradientUnits="userSpaceOnUse" />
    <filter
       inkscape:collect="always"
       style="color-interpolation-filters:sRGB"
       id="filter4225"
       x="-0.031495625"
       width="1.0629912"
       y="-0.019386273"
       height="1.0387725">
      <feGaussianBlur
         inkscape:collect="always"
         stdDeviation="1.9422558"
         id="feGaussianBlur4227" />
    </filter>
    <linearGradient
       id="linearGradient3226">
      <stop
         id="stop3228"
         offset="0"
         style="stop-color:#000000;stop-opacity:1;" />
      <stop
         id="stop3230"
         offset="1"
         style="stop-color:#ffffff;stop-opacity:0;" />
    </linearGradient>
    <linearGradient
       inkscape:collect="always"
       id="linearGradient3210">
      <stop
         style="stop-color:#000000;stop-opacity:1"
         offset="0"
         id="stop3212" />
      <stop
         style="stop-color:#d2d2d2;stop-opacity:1"
         offset="1"
         id="stop3214" />
    </linearGradient>
    <linearGradient
       id="linearGradient3200"
       inkscape:collect="always">
      <stop
         id="stop3202"
         offset="0"
         style="stop-color:#001194;stop-opacity:1" />
      <stop
         id="stop3204"
         offset="1"
         style="stop-color:#000000;stop-opacity:1" />
    </linearGradient>
    <inkscape:perspective
       id="perspective9"
       inkscape:persp3d-origin="372.04724 : 350.78739 : 1"
       inkscape:vp_z="744.09448 : 526.18109 : 1"
       inkscape:vp_y="0 : 1000 : 0"
       inkscape:vp_x="0 : 526.18109 : 1"
       sodipodi:type="inkscape:persp3d" />
    <radialGradient
       gradientUnits="userSpaceOnUse"
       gradientTransform="matrix(1.5496091,-3.2976578e-2,4.3374482e-2,2.0382191,-40.321823,-99.435216)"
       r="46.765625"
       fy="108.96875"
       fx="64.76487"
       cy="108.96875"
       cx="64.76487"
       id="radialGradient3206"
       xlink:href="#linearGradient3200"
       inkscape:collect="always" />
    <linearGradient
       gradientUnits="userSpaceOnUse"
       y2="2.3155749"
       x2="65.779495"
       y1="62.203125"
       x1="67.078125"
       id="linearGradient3218"
       xlink:href="#linearGradient3210"
       inkscape:collect="always" />
    <radialGradient
       gradientUnits="userSpaceOnUse"
       gradientTransform="matrix(1,0,0,0.1605634,0,98.709657)"
       r="45.62249"
       fy="117.59036"
       fx="58.987953"
       cy="117.59036"
       cx="58.987953"
       id="radialGradient3232"
       xlink:href="#linearGradient3226"
       inkscape:collect="always" />
    <inkscape:perspective
       id="perspective2503"
       inkscape:persp3d-origin="128 : 85.333333 : 1"
       inkscape:vp_z="256 : 128 : 1"
       inkscape:vp_y="0 : 1000 : 0"
       inkscape:vp_x="0 : 128 : 1"
       sodipodi:type="inkscape:persp3d" />
    <linearGradient
       id="linearGradient3578">
      <stop
         style="stop-color:#000000;stop-opacity:1;"
         offset="0"
         id="stop3580" />
      <stop
         style="stop-color:#fffcfc;stop-opacity:1;"
         offset="1"
         id="stop3582" />
    </linearGradient>
    <radialGradient
       r="46.765625"
       fy="108.96875"
       fx="64.76487"
       cy="108.96875"
       cx="64.76487"
       gradientTransform="matrix(1.5496091,-3.2976578e-2,4.3374482e-2,2.0382191,-40.321823,-99.435216)"
       gradientUnits="userSpaceOnUse"
       id="radialGradient3554"
       xlink:href="#linearGradient3200"
       inkscape:collect="always" />
    <linearGradient
       gradientTransform="translate(112.32129,1.5421687)"
       y2="2.3155749"
       x2="65.779495"
       y1="62.203125"
       x1="67.078125"
       gradientUnits="userSpaceOnUse"
       id="linearGradient3559"
       xlink:href="#linearGradient3210"
       inkscape:collect="always" />
    <radialGradient
       r="46.765625"
       fy="108.96875"
       fx="64.76487"
       cy="108.96875"
       cx="64.76487"
       gradientTransform="matrix(1.5496091,-0.03297658,0.04337448,2.0382191,-40.321823,-99.435216)"
       gradientUnits="userSpaceOnUse"
       id="radialGradient3582"
       xlink:href="#linearGradient4697"
       inkscape:collect="always" />
    <filter
       inkscape:collect="always"
       style="color-interpolation-filters:sRGB"
       id="filter4693"
       x="-0.040498482"
       width="1.080997"
       y="-0.032400972"
       height="1.0648019">
      <feGaussianBlur
         inkscape:collect="always"
         stdDeviation="1.5614063"
         id="feGaussianBlur4695" />
    </filter>
  </defs>
  <sodipodi:namedview
     inkscape:window-height="1056"
     inkscape:window-width="1920"
     inkscape:pageshadow="2"
     inkscape:pageopacity="0"
     guidetolerance="10.0"
     gridtolerance="10.0"
     objecttolerance="10.0"
     borderopacity="1.0"
     bordercolor="#666666"
     pagecolor="#ff0000"
     id="base"
     inkscape:zoom="3.5585938"
     inkscape:cx="128"
     inkscape:cy="128"
     inkscape:window-x="0"
     inkscape:window-y="0"
     inkscape:current-layer="svg2"
     width="256px"
     height="256px"
     showgrid="false"
     inkscape:window-maximized="1" />
  <g
     id="g3576"
     transform="matrix(1.857522,0,0,1.857522,-7.3970911,7.6121981)">
    <path
       inkscape:connector-curvature="0"
       style="fill:#000000;fill-opacity:0.75384617;fill-rule:evenodd;stroke:none;stroke-width:1px;stroke-linecap:butt;stroke-linejoin:miter;stroke-opacity:1;filter:url(#filter4693)"
       d="m 33.942902,9.2585342 c -3.98702,0 -7.21875,3.2004798 -7.21875,7.1875008 l 0,101.281255 c 0,3.98702 3.23173,7.1875 7.21875,7.1875 l 78.124998,0 c 3.98702,0 7.1875,-3.20048 7.1875,-7.1875 l 0,-101.281255 c 0,-3.98702 -3.20048,-7.1875008 -7.1875,-7.1875008 l -78.124998,0 z m -1.0625,5.3750008 18.53125,0 0,10.71875 -18.53125,0 0,-10.71875 z m 60.90625,0 18.562498,0 0,10.71875 -18.562498,0 0,-10.71875 z m -60.90625,15.875 18.53125,0 0,10.71875 -18.53125,0 0,-10.71875 z m 60.90625,0 18.562498,0 0,10.71875 -18.562498,0 0,-10.71875 z m -60.90625,15.875 18.53125,0 0,10.71875 -18.53125,0 0,-10.71875 z m 60.90625,0 18.562498,0 0,10.71875 -18.562498,0 0,-10.71875 z m -60.90625,15.90625 18.53125,0 0,10.6875 -18.53125,0 0,-10.6875 z m 60.90625,0 18.562498,0 0,10.6875 -18.562498,0 0,-10.6875 z m -60.90625,15.875 18.53125,0 0,10.71875 -18.53125,0 0,-10.71875 z m 60.90625,0 18.562498,0 0,10.71875 -18.562498,0 0,-10.71875 z m -60.90625,15.875 18.53125,0 0,10.718755 -18.53125,0 0,-10.718755 z m 60.90625,0 18.562498,0 0,10.718755 -18.562498,0 0,-10.718755 z m -60.90625,15.875005 18.53125,0 0,10.71875 -18.53125,0 0,-10.71875 z m 60.90625,0 18.562498,0 0,10.71875 -18.562498,0 0,-10.71875 z"
       id="path3550" />
    <g
       id="g3220">
      <path
         inkscape:connector-curvature="0"
         style="fill:url(#radialGradient3582);fill-opacity:1;fill-rule:evenodd;stroke:none;stroke-width:1px;stroke-linecap:butt;stroke-linejoin:miter;stroke-opacity:1"
         d="m 28.03125,4.375 c -3.98702,0 -7.21875,3.2004796 -7.21875,7.1875 l 0,101.28125 c 0,3.98702 3.23173,7.1875 7.21875,7.1875 l 78.125,0 c 3.98702,0 7.1875,-3.20048 7.1875,-7.1875 l 0,-101.28125 c 0,-3.9870199 -3.20048,-7.1875 -7.1875,-7.1875 l -78.125,0 z m -1.0625,5.375 18.53125,0 0,10.71875 -18.53125,0 0,-10.71875 z m 60.90625,0 18.5625,0 0,10.71875 -18.5625,0 0,-10.71875 z m -60.90625,15.875 18.53125,0 0,10.71875 -18.53125,0 0,-10.71875 z m 60.90625,0 18.5625,0 0,10.71875 -18.5625,0 0,-10.71875 z M 26.96875,41.5 45.5,41.5 l 0,10.71875 -18.53125,0 0,-10.71875 z m 60.90625,0 18.5625,0 0,10.71875 -18.5625,0 0,-10.71875 z m -60.90625,15.90625 18.53125,0 0,10.6875 -18.53125,0 0,-10.6875 z m 60.90625,0 18.5625,0 0,10.6875 -18.5625,0 0,-10.6875 z m -60.90625,15.875 18.53125,0 0,10.71875 -18.53125,0 0,-10.71875 z m 60.90625,0 18.5625,0 0,10.71875 -18.5625,0 0,-10.71875 z m -60.90625,15.875 18.53125,0 0,10.71875 -18.53125,0 0,-10.71875 z m 60.90625,0 18.5625,0 0,10.71875 -18.5625,0 0,-10.71875 z m -60.90625,15.875 18.53125,0 0,10.71875 -18.53125,0 0,-10.71875 z m 60.90625,0 18.5625,0 0,10.71875 -18.5625,0 0,-10.71875 z"
         id="rect2384" />
      <path
         inkscape:connector-curvature="0"
         id="path3208"
         d="m 28.03125,4.375 c -3.98702,0 -7.21875,3.2004796 -7.21875,7.1875 l 0,41.3937 c 5.947783,11.774942 74.085236,-2.655272 92.53125,0 l 0,-41.3937 c 0,-3.9870199 -3.20048,-7.1875 -7.1875,-7.1875 l -78.125,0 z m -1.0625,5.375 18.53125,0 0,10.71875 -18.53125,0 0,-10.71875 z m 60.90625,0 18.5625,0 0,10.71875 -18.5625,0 0,-10.71875 z m -60.90625,15.875 18.53125,0 0,10.71875 -18.53125,0 0,-10.71875 z m 60.90625,0 18.5625,0 0,10.71875 -18.5625,0 0,-10.71875 z M 26.96875,41.5 45.5,41.5 l 0,10.71875 -18.53125,0 0,-10.71875 z m 60.90625,0 18.5625,0 0,10.71875 -18.5625,0 0,-10.71875 z"
         style="fill:url(#linearGradient3218);fill-opacity:1;fill-rule:evenodd;stroke:none;stroke-width:1px;stroke-linecap:butt;stroke-linejoin:miter;stroke-opacity:1"
         sodipodi:nodetypes="ccccccccccccccccccccccccccccccccccccc" />
    </g>
  </g>
  <path
     style="fill:#000000;fill-opacity:0.71794873;fill-rule:evenodd;stroke:none;stroke-width:1px;stroke-linecap:butt;stroke-linejoin:miter;stroke-opacity:1;filter:url(#filter4225)"
     d="m 48.002956,12.04204 c 0.42167,1.894726 1.05836,3.813327 1.88281,5.748048 5.7547,16.462525 15.2309,32.377471 40.923831,47.988281 6.76404,4.307476 7.328549,11.09416 8.197266,17.759766 l -2.277344,13.662109 c 0.348567,0.402559 0.797293,0.773204 1.291016,1.126953 0.0015,0.0011 0.0024,0.0029 0.0039,0.0039 13.437749,11.719397 2.614139,11.306547 -4.9375,12.531247 -19.765324,-1.09122 -32.414025,-12.856563 -47.816405,-20.492184 0.05958,0.397541 0.13989,0.768429 0.21094,1.152344 -0.05038,-0.03489 -0.09406,-0.06464 -0.14453,-0.09961 0.05242,0.05204 0.10385,0.104205 0.15624,0.15625 2.1793,11.66551 9.50159,17.20525 13.66211,25.78516 12.9403,4.6503 15.462402,20.00899 5.39649,28.11914 -0.77973,9.95318 -6.54476,15.93367 -0.15625,22.30273 l 26.869139,-30.50976 c 4.250364,-5.42806 8.501589,-1.8737 12.751955,-0.45703 3.37703,6.94526 6.72945,13.91504 13.66015,17.30664 2.53933,16.15968 -6.07235,30.46014 -10.01757,45.53906 21.37719,-12.7407 32.66987,-29.80415 45.99414,-45.99609 -21.06574,34.72267 -47.24409,67.7424 -79.238284,98.82226 39.707894,-28.6536 71.215614,-63.12499 90.623044,-104.28711 5.30975,-11.26169 7.27917,-18.73092 15.93946,-21.40234 5.951,-2.70923 11.14693,-5.98539 12.29492,-12.29688 -0.40379,-0.87099 -0.83105,-1.71929 -1.28321,-2.54883 C 185.207,99.513002 173.09805,91.634149 159.11819,85.3604 119.57315,65.249726 75.145608,53.575019 48.002956,12.04204 Z"
     id="path4191"
     inkscape:connector-curvature="0" />
  <g
     id="g1922"
     transform="matrix(0.967487,0,0,0.967487,-121.9572,4.9488321)">
    <path
       inkscape:connector-curvature="0"
       sodipodi:nodetypes="ccccsccccccccccccccc"
       id="path1890"
       d="M 178.86578,0.94139886 C 206.92058,43.870118 252.84247,55.937501 293.71645,76.724007 c 15.41297,6.916887 28.62474,15.72052 35.30246,30.124763 -1.18657,6.52359 -6.5579,9.90861 -12.70889,12.70889 -8.95132,2.76119 -10.9863,10.48272 -16.47448,22.12287 -20.05963,42.5454 -52.62689,78.17365 -93.66919,107.79017 33.06938,-32.12432 60.12805,-66.25221 81.90171,-102.14177 -13.77204,16.7361 -25.44506,34.37178 -47.54065,47.54064 4.07781,-15.58565 12.98005,-30.36722 10.35539,-47.06995 -7.16361,-3.50558 -10.63046,-10.70791 -14.12098,-17.88657 -4.3932,-1.46428 -8.78639,-5.13978 -13.17959,0.4707 l -27.77127,31.53686 c -6.6032,-6.58309 -0.64526,-12.76632 0.16068,-23.05398 10.40418,-8.3827 7.79681,-24.25731 -5.57835,-29.06388 -4.4486,-9.17399 -12.41248,-14.96301 -14.3517,-27.901049 15.91999,7.892221 28.99389,20.053589 49.42344,21.181479 8.05615,-1.30652 19.7997,-0.76934 3.76559,-14.120987 l 2.3535,-14.120983 C 230.68621,67.951603 230.10288,60.936164 223.11153,56.483932 193.47493,38.476979 184.69824,20.081882 178.86578,0.94139886 Z"
       style="fill:url(#linearGradient2873);fill-opacity:1;fill-rule:evenodd;stroke:none;stroke-width:1px;stroke-linecap:butt;stroke-linejoin:miter;stroke-opacity:1" />
    <path
       inkscape:connector-curvature="0"
       sodipodi:nodetypes="ccccc"
       id="path1894"
       d="m 232.30472,88.188594 c 8.48541,-3.808892 12.57568,-8.875028 14.07419,-16.177368 1.29539,-19.362662 34.49563,4.375991 53.14055,7.905206 -10.45566,6.724717 -20.9014,13.568366 -32.49918,6.587671 -11.5396,-9.502363 -18.59954,3.885683 -34.71556,1.684491 z"
       style="fill:#b3b3b3;fill-rule:evenodd;stroke:#000000;stroke-width:1px;stroke-linecap:butt;stroke-linejoin:miter;stroke-opacity:1" />
    <path
       inkscape:connector-curvature="0"
       sodipodi:nodetypes="ccc"
       id="path1896"
       d="m 176.11041,82.990679 c 39.18463,27.144061 49.06512,32.532331 21.08056,77.295341 19.8427,-33.97525 0.42059,-55.95293 -21.08056,-77.295341 z"
       style="fill:url(#linearGradient2859);fill-opacity:1;fill-rule:evenodd;stroke:none;stroke-width:0;stroke-linecap:butt;stroke-linejoin:miter;stroke-miterlimit:4;stroke-dasharray:none;stroke-opacity:1" />
    <path
       inkscape:connector-curvature="0"
       sodipodi:nodetypes="ccc"
       id="path1898"
       d="m 241.10878,137.00958 c 36.39239,17.84452 51.81345,-7.6517 71.58603,-24.15479 -22.69489,11.26117 -44.43113,25.15865 -71.58603,24.15479 z"
       style="fill:url(#linearGradient2851);fill-opacity:1;fill-rule:evenodd;stroke:none;stroke-width:1px;stroke-linecap:butt;stroke-linejoin:miter;stroke-opacity:1" />
    <path
       inkscape:connector-curvature="0"
       style="fill:url(#linearGradient2827);fill-opacity:1;fill-rule:evenodd;stroke:none;stroke-width:0;stroke-linecap:butt;stroke-linejoin:miter;stroke-miterlimit:4;stroke-dasharray:none;stroke-opacity:1"
       d="M 178.86578,0.94139886 C 206.92058,43.870118 252.84247,55.937501 293.71645,76.724007 c 15.41297,6.916887 28.62474,15.72052 35.30246,30.124763 -13.01399,-22.470033 -36.05934,-21.201451 -32.47827,-3.2949 -1.48216,22.72362 -7.39392,31.07882 -7.39392,31.07882 0,0 1.51988,-19.13613 -2.02006,-26.84251 -0.0705,15.13881 -8.69867,29.1763 -8.69867,29.1763 0,0 1.71989,-17.34399 -1.65672,-29.647 -0.81293,10.80654 -8.39497,32.90429 -8.39497,32.90429 0,0 0.73735,-20.57056 -1.77235,-29.82899 -5.9076,19.39295 -4.9933,36.88003 -3.99283,37.48031 0,0 -5.95554,-8.86812 -9.12477,-32.93198 -5.67527,16.2937 -4.57175,25.50456 -6.49264,24.41999 0.20567,-4.40685 -2.80735,-21.47796 -10.23189,-24.51239 -19.04028,-1.1721 -42.9706,-13.42325 -60.72023,-32.948959 15.91999,7.892221 28.99389,20.053589 49.42344,21.181479 8.05615,-1.30652 19.7997,-0.76934 3.76559,-14.120987 7.91607,9.142257 54.08572,6.022097 48.95274,-5.648393 C 245.25187,67.660344 185.63964,31.378668 178.86578,0.94139886 Z"
       id="path1892"
       sodipodi:nodetypes="ccccccccccccccccccc" />
    <ellipse
       ry="7.9052057"
       rx="8.124795"
       cy="105.82794"
       cx="309.40097"
       id="path1900"
       style="opacity:1;fill:#ffff00;fill-opacity:1;stroke:#000000;stroke-width:0.89999998;stroke-linecap:round;stroke-linejoin:round;stroke-miterlimit:4;stroke-dasharray:none;stroke-dashoffset:0;stroke-opacity:1" />
    <ellipse
       ry="3.7330139"
       rx="4.6113701"
       cy="77.061775"
       cx="331.79904"
       transform="translate(-21.51973,27.66822)"
       id="path1902"
       style="opacity:1;fill:#000000;fill-opacity:1;stroke:#000000;stroke-width:0.89999998;stroke-linecap:round;stroke-linejoin:round;stroke-miterlimit:4;stroke-dasharray:none;stroke-dashoffset:0;stroke-opacity:1" />
  </g>
  <path
     inkscape:connector-curvature="0"
     style="fill:url(#linearGradient2819);fill-opacity:1;fill-rule:evenodd;stroke:none;stroke-width:0.96748698px;stroke-linecap:butt;stroke-linejoin:miter;stroke-opacity:1"
     d="m 102.05255,78.034632 -1.75672,12.524209 c 12.30463,14.846079 49.15324,7.837087 46.93555,-4.87305 -23.45912,3.090532 -33.08625,2.796488 -45.17883,-7.651159 z"
     id="path1879"
     sodipodi:nodetypes="cccc" />
  <path
     inkscape:connector-curvature="0"
     sodipodi:nodetypes="cccc"
     id="path1901"
     d="m 51.631775,6.570597 c 3.406083,18.766321 18.047737,37.925521 43.667947,53.492144 14.890138,17.10167 19.495838,15.59307 53.281248,25.96875 C 118.82354,71.886771 61.860808,37.96215 51.631775,6.570597 Z"
     style="fill:url(#linearGradient2796);fill-opacity:1;fill-rule:evenodd;stroke:none;stroke-width:0.96748698px;stroke-linecap:butt;stroke-linejoin:miter;stroke-opacity:1" />
  <path
     inkscape:connector-curvature="0"
     sodipodi:nodetypes="cccc"
     id="path2798"
     d="m 94.829027,59.592039 c 6.764053,4.30747 7.350033,11.0844 8.218753,17.75 4.54304,13.3309 26.17616,11.38338 45.0625,8.21875 C 120.754,77.753517 114.33421,76.187062 94.829027,59.592039 Z"
     style="fill:url(#linearGradient2806);fill-opacity:1;fill-rule:evenodd;stroke:none;stroke-width:0.96748698px;stroke-linecap:butt;stroke-linejoin:miter;stroke-opacity:1" />
  <g
     id="layer1"
     inkscape:label="1. réteg"
     transform="translate(5.254107,-0.141786)">
    <path
       id="text3905"
       d="M 14.672896,-7.9438771 L 9.3818802,-7.9438771 L 8.5469192,-5.5532521 L 5.1455522,-5.5532521 L 10.005903,-18.675323 L 14.040083,-18.675323 L 18.900435,-5.5532521 L 15.499067,-5.5532521 L 14.672896,-7.9438771 M 10.22563,-10.378448 L 13.820357,-10.378448 L 12.027388,-15.599151 L 10.22563,-10.378448 M 20.63188,-18.675323 L 26.248091,-18.675323 C 27.918004,-18.67531 29.198276,-18.30324 30.088911,-17.559112 C 30.985384,-16.820819 31.433625,-15.766133 31.433638,-14.395049 C 31.433625,-13.018089 30.985384,-11.957543 30.088911,-11.213409 C 29.198276,-10.475122 27.918004,-10.105982 26.248091,-10.105987 L 24.015669,-10.105987 L 24.015669,-5.5532521 L 20.63188,-5.5532521 L 20.63188,-18.675323 M 24.015669,-16.223174 L 24.015669,-12.558135 L 25.887739,-12.558135 C 26.543982,-12.558128 27.050817,-12.716331 27.408247,-13.032745 C 27.76566,-13.355002 27.944371,-13.809103 27.94438,-14.395049 C 27.944371,-14.980977 27.76566,-15.432149 27.408247,-15.748565 C 27.050817,-16.064961 26.543982,-16.223164 25.887739,-16.223174 L 24.015669,-16.223174"
       style="font-size:18px;font-style:normal;font-weight:bold;fill:black;fill-opacity:1;stroke:none;stroke-width:1px;stroke-linecap:butt;stroke-linejoin:miter;stroke-opacity:1;font-family:Bitstream Vera Sans" />
  </g>
  <ellipse
     style="opacity:1;fill:url(#radialGradient4187);fill-opacity:1;stroke:none;stroke-width:5.5;stroke-linecap:round;stroke-linejoin:round;stroke-miterlimit:4;stroke-dasharray:none;stroke-dashoffset:0;stroke-opacity:0.5692308"
     id="path4179"
     cx="180.02484"
     cy="105.51922"
     rx="2.4265919"
     ry="2.3885839" />
</svg>
