<?xml version="1.0" encoding="UTF-8" standalone="no"?>
<!-- Created with Inkscape (http://www.inkscape.org/) -->
<svg
   xmlns:dc="http://purl.org/dc/elements/1.1/"
   xmlns:cc="http://creativecommons.org/ns#"
   xmlns:rdf="http://www.w3.org/1999/02/22-rdf-syntax-ns#"
   xmlns:svg="http://www.w3.org/2000/svg"
   xmlns="http://www.w3.org/2000/svg"
   xmlns:xlink="http://www.w3.org/1999/xlink"
   xmlns:sodipodi="http://sodipodi.sourceforge.net/DTD/sodipodi-0.dtd"
   xmlns:inkscape="http://www.inkscape.org/namespaces/inkscape"
   id="svg2"
   sodipodi:version="0.32"
   inkscape:version="0.46"
   width="500"
   height="500"
   version="1.0"
   sodipodi:docname="myphone.svg"
   inkscape:output_extension="org.inkscape.output.svg.inkscape">
  <metadata
     id="metadata7">
    <rdf:RDF>
      <cc:Work
         rdf:about="">
        <dc:format>image/svg+xml</dc:format>
        <dc:type
           rdf:resource="http://purl.org/dc/dcmitype/StillImage" />
      </cc:Work>
    </rdf:RDF>
  </metadata>
  <defs
     id="defs5">
    <linearGradient
       inkscape:collect="always"
       id="linearGradient3364">
      <stop
         style="stop-color:#7c7c7c;stop-opacity:1;"
         offset="0"
         id="stop3366" />
      <stop
         style="stop-color:#ffffff;stop-opacity:1"
         offset="1"
         id="stop3368" />
    </linearGradient>
    <linearGradient
       inkscape:collect="always"
       id="linearGradient3356">
      <stop
         style="stop-color:#a9a9a9;stop-opacity:1"
         offset="0"
         id="stop3358" />
      <stop
         style="stop-color:#696969;stop-opacity:1"
         offset="1"
         id="stop3360" />
    </linearGradient>
    <linearGradient
       inkscape:collect="always"
       id="linearGradient3288">
      <stop
         style="stop-color:#767f01;stop-opacity:1"
         offset="0"
         id="stop3290" />
      <stop
         style="stop-color:#a0ad0f;stop-opacity:1"
         offset="1"
         id="stop3292" />
    </linearGradient>
    <linearGradient
       inkscape:collect="always"
       id="linearGradient3231">
      <stop
         style="stop-color:#000000;stop-opacity:1;"
         offset="0"
         id="stop3233" />
      <stop
         style="stop-color:#3a3a3a;stop-opacity:1"
         offset="1"
         id="stop3235" />
    </linearGradient>
    <linearGradient
       inkscape:collect="always"
       id="linearGradient3220">
      <stop
         style="stop-color:#d6d6d6;stop-opacity:1"
         offset="0"
         id="stop3222" />
      <stop
         style="stop-color:#000000;stop-opacity:1"
         offset="1"
         id="stop3224" />
    </linearGradient>
    <inkscape:perspective
       sodipodi:type="inkscape:persp3d"
       inkscape:vp_x="0 : 526.18109 : 1"
       inkscape:vp_y="0 : 1000 : 0"
       inkscape:vp_z="744.09448 : 526.18109 : 1"
       inkscape:persp3d-origin="372.04724 : 350.78739 : 1"
       id="perspective9" />
    <linearGradient
       inkscape:collect="always"
       xlink:href="#linearGradient3220"
       id="linearGradient3497"
       gradientUnits="userSpaceOnUse"
       gradientTransform="translate(47.96748,3.2520325)"
       spreadMethod="reflect"
       x1="410.05911"
       y1="167.8046"
       x2="410.05911"
       y2="177.94058" />
    <radialGradient
       inkscape:collect="always"
       xlink:href="#linearGradient3220"
       id="radialGradient3499"
       gradientUnits="userSpaceOnUse"
       gradientTransform="matrix(1,0,0,1.2,0,-15.222219)"
       cx="228.1772"
       cy="73.660133"
       fx="228.1772"
       fy="73.660133"
       r="12.345679" />
    <linearGradient
       inkscape:collect="always"
       xlink:href="#linearGradient3220"
       id="linearGradient3501"
       gradientUnits="userSpaceOnUse"
       gradientTransform="translate(47.96748,3.2520325)"
       spreadMethod="reflect"
       x1="317.22906"
       y1="65.970886"
       x2="317.22906"
       y2="87.541512" />
    <linearGradient
       inkscape:collect="always"
       xlink:href="#linearGradient3231"
       id="linearGradient3503"
       gradientUnits="userSpaceOnUse"
       gradientTransform="translate(47.96748,3.2520325)"
       x1="250.04524"
       y1="126.55025"
       x2="292.43616"
       y2="19.619566" />
    <linearGradient
       inkscape:collect="always"
       xlink:href="#linearGradient3231"
       id="linearGradient3505"
       gradientUnits="userSpaceOnUse"
       gradientTransform="translate(47.96748,3.2520325)"
       x1="119.69818"
       y1="192.8409"
       x2="262.80203"
       y2="43.821293" />
    <linearGradient
       inkscape:collect="always"
       xlink:href="#linearGradient3220"
       id="linearGradient3507"
       gradientUnits="userSpaceOnUse"
       gradientTransform="translate(47.96748,3.2520325)"
       x1="202.45558"
       y1="281.29944"
       x2="204.25999"
       y2="36.744999" />
    <linearGradient
       inkscape:collect="always"
       xlink:href="#linearGradient3364"
       id="linearGradient3509"
       gradientUnits="userSpaceOnUse"
       x1="55.056385"
       y1="252.84544"
       x2="103.89953"
       y2="142.17241" />
    <linearGradient
       inkscape:collect="always"
       xlink:href="#linearGradient3220"
       id="linearGradient3511"
       gradientUnits="userSpaceOnUse"
       x1="44.654793"
       y1="182.75862"
       x2="61.8708"
       y2="153.93155" />
    <radialGradient
       inkscape:collect="always"
       xlink:href="#linearGradient3356"
       id="radialGradient3513"
       gradientUnits="userSpaceOnUse"
       cx="72.384766"
       cy="188.81796"
       fx="72.384766"
       fy="188.81796"
       r="48.060894" />
    <linearGradient
       inkscape:collect="always"
       xlink:href="#linearGradient3220"
       id="linearGradient3515"
       gradientUnits="userSpaceOnUse"
       x1="92.304214"
       y1="184.79282"
       x2="31.221453"
       y2="279.38388" />
    <linearGradient
       inkscape:collect="always"
       xlink:href="#linearGradient3288"
       id="linearGradient3517"
       gradientUnits="userSpaceOnUse"
       gradientTransform="translate(47.96748,3.2520325)"
       x1="297.17258"
       y1="292.38098"
       x2="312.8053"
       y2="257.08685" />
    <linearGradient
       inkscape:collect="always"
       xlink:href="#linearGradient3220"
       id="linearGradient3519"
       gradientUnits="userSpaceOnUse"
       gradientTransform="translate(47.96748,3.2520325)"
       x1="286.71506"
       y1="246.30255"
       x2="271.62881"
       y2="294.34174" />
    <linearGradient
       inkscape:collect="always"
       xlink:href="#linearGradient3220"
       id="linearGradient3521"
       gradientUnits="userSpaceOnUse"
       gradientTransform="translate(47.96748,3.2520325)"
       spreadMethod="reflect"
       x1="406.57327"
       y1="161.83141"
       x2="406.57327"
       y2="184.05605" />
    <radialGradient
       inkscape:collect="always"
       xlink:href="#linearGradient3220"
       id="radialGradient3523"
       gradientUnits="userSpaceOnUse"
       spreadMethod="reflect"
       cx="59.842461"
       cy="395.29236"
       fx="59.842461"
       fy="395.29236"
       r="23.820372" />
    <linearGradient
       inkscape:collect="always"
       xlink:href="#linearGradient3220"
       id="linearGradient3525"
       gradientUnits="userSpaceOnUse"
       x1="26.239252"
       y1="435.60889"
       x2="71.607269"
       y2="384.18842" />
    <linearGradient
       inkscape:collect="always"
       xlink:href="#linearGradient3220"
       id="linearGradient3527"
       gradientUnits="userSpaceOnUse"
       x1="44.654793"
       y1="182.75862"
       x2="61.8708"
       y2="153.93155" />
    <linearGradient
       inkscape:collect="always"
       xlink:href="#linearGradient3220"
       id="linearGradient3529"
       gradientUnits="userSpaceOnUse"
       x1="44.654793"
       y1="182.75862"
       x2="61.8708"
       y2="153.93155" />
    <linearGradient
       inkscape:collect="always"
       xlink:href="#linearGradient3220"
       id="linearGradient3531"
       gradientUnits="userSpaceOnUse"
       x1="44.654793"
       y1="182.75862"
       x2="61.8708"
       y2="153.93155" />
    <linearGradient
       inkscape:collect="always"
       xlink:href="#linearGradient3220"
       id="linearGradient3533"
       gradientUnits="userSpaceOnUse"
       x1="44.654793"
       y1="182.75862"
       x2="61.8708"
       y2="153.93155" />
    <linearGradient
       inkscape:collect="always"
       xlink:href="#linearGradient3220"
       id="linearGradient3535"
       gradientUnits="userSpaceOnUse"
       x1="44.654793"
       y1="182.75862"
       x2="61.8708"
       y2="153.93155" />
    <linearGradient
       inkscape:collect="always"
       xlink:href="#linearGradient3220"
       id="linearGradient3537"
       gradientUnits="userSpaceOnUse"
       x1="44.654793"
       y1="182.75862"
       x2="61.8708"
       y2="153.93155" />
    <linearGradient
       inkscape:collect="always"
       xlink:href="#linearGradient3220"
       id="linearGradient3539"
       gradientUnits="userSpaceOnUse"
       x1="44.654793"
       y1="182.75862"
       x2="61.8708"
       y2="153.93155" />
    <linearGradient
       inkscape:collect="always"
       xlink:href="#linearGradient3220"
       id="linearGradient3541"
       gradientUnits="userSpaceOnUse"
       x1="44.654793"
       y1="182.75862"
       x2="61.8708"
       y2="153.93155" />
    <linearGradient
       inkscape:collect="always"
       xlink:href="#linearGradient3220"
       id="linearGradient3543"
       gradientUnits="userSpaceOnUse"
       x1="44.654793"
       y1="182.75862"
       x2="61.8708"
       y2="153.93155" />
    <inkscape:perspective
       id="perspective10"
       inkscape:persp3d-origin="372.04724 : 350.78739 : 1"
       inkscape:vp_z="744.09448 : 526.18109 : 1"
       inkscape:vp_y="0 : 1000 : 0"
       inkscape:vp_x="0 : 526.18109 : 1"
       sodipodi:type="inkscape:persp3d" />
  </defs>
  <sodipodi:namedview
     inkscape:window-height="1025"
     inkscape:window-width="1680"
     inkscape:pageshadow="2"
     inkscape:pageopacity="0.0"
     guidetolerance="10.0"
     gridtolerance="10.0"
     objecttolerance="10.0"
     borderopacity="1.0"
     bordercolor="#666666"
     pagecolor="#ffffff"
     id="base"
     showgrid="false"
     inkscape:zoom="1.15"
     inkscape:cx="225.16279"
     inkscape:cy="229.25339"
     inkscape:window-x="-5"
     inkscape:window-y="0"
     inkscape:current-layer="svg2" />
  <g
     id="g3447"
     transform="matrix(0.9376682,0,0,0.9376682,-1.2283133,21.746532)">
    <rect
       ry="8.9506168"
       y="167.33476"
       x="374.36646"
       height="17.901234"
       width="150"
       id="rect3192"
       style="opacity:1;fill:url(#linearGradient3497);fill-opacity:1;stroke:none;stroke-width:2;stroke-linecap:round;stroke-linejoin:round;stroke-miterlimit:4;stroke-dasharray:none;stroke-opacity:1" />
    <path
       transform="translate(167.24954,3.3877738)"
       d="M 233.33333,76.111115 A 12.345679,14.814815 0 1 1 208.64198,76.111115 A 12.345679,14.814815 0 1 1 233.33333,76.111115 z"
       sodipodi:ry="14.814815"
       sodipodi:rx="12.345679"
       sodipodi:cy="76.111115"
       sodipodi:cx="220.98766"
       id="path3218"
       style="opacity:1;fill:url(#radialGradient3499);fill-opacity:1;stroke:none;stroke-width:6.9000001;stroke-linecap:round;stroke-linejoin:round;stroke-miterlimit:4;stroke-dasharray:none;stroke-opacity:1"
       sodipodi:type="arc" />
    <rect
       y="59.310066"
       x="335.47757"
       height="40.740742"
       width="45.679012"
       id="rect3186"
       style="opacity:1;fill:url(#linearGradient3501);fill-opacity:1;stroke:#818181;stroke-width:2;stroke-linecap:round;stroke-linejoin:round;stroke-miterlimit:4;stroke-dasharray:none;stroke-opacity:1" />
    <rect
       ry="36.63446"
       y="18.569328"
       x="121.28004"
       height="423.45682"
       width="224.0741"
       id="rect3182"
       style="opacity:1;fill:#000000;fill-opacity:1;stroke:#373737;stroke-width:9;stroke-linecap:round;stroke-linejoin:round;stroke-miterlimit:4;stroke-dasharray:none;stroke-opacity:1" />
    <rect
       ry="36.63446"
       y="16.608545"
       x="122.58723"
       height="423.45682"
       width="224.0741"
       id="rect3281"
       style="opacity:1;fill:none;fill-opacity:1;stroke:#d8d8d8;stroke-width:2;stroke-linecap:round;stroke-linejoin:round;stroke-miterlimit:4;stroke-dasharray:none;stroke-opacity:0.21844662" />
    <path
       sodipodi:nodetypes="cccccccc"
       id="rect3283"
       d="M 305.45171,444.96732 L 154.64653,444.96732 C 134.35104,444.96732 118.01207,428.62835 118.01207,408.33286 L 118.01207,58.144968 M 154.64653,21.510507 L 305.45171,21.510507 C 325.7472,21.510507 342.08617,37.849477 342.08617,58.144968 L 342.08617,408.33286"
       style="fill:none;fill-opacity:1;stroke:#090909;stroke-width:2;stroke-linecap:round;stroke-linejoin:round;stroke-miterlimit:4;stroke-opacity:1" />
    <rect
       style="opacity:1;fill:none;fill-opacity:1;stroke:#d8d8d8;stroke-width:4;stroke-linecap:round;stroke-linejoin:round;stroke-miterlimit:4;stroke-dasharray:none;stroke-opacity:0.21844662"
       id="rect3279"
       width="224.0741"
       height="423.45682"
       x="122.58723"
       y="16.608545"
       ry="36.63446" />
    <path
       sodipodi:nodetypes="cccccc"
       id="rect3228"
       d="M 159.2217,23.47129 L 309.37327,23.47129 C 329.66877,23.47129 340.12539,34.254703 340.12539,54.550194 L 340.12539,145.32244 L 126.18201,55.530586 C 126.18201,35.235095 138.92621,23.47129 159.2217,23.47129 z"
       style="fill:url(#linearGradient3503);fill-opacity:1;stroke:none;stroke-width:9;stroke-linecap:round;stroke-linejoin:round;stroke-miterlimit:4;stroke-opacity:1" />
    <rect
       ry="26.851851"
       y="45.112534"
       x="143.50226"
       height="233.33334"
       width="179.01234"
       id="rect3194"
       style="opacity:1;fill:url(#linearGradient3505);fill-opacity:1;stroke:url(#linearGradient3507);stroke-width:2;stroke-linecap:round;stroke-linejoin:round;stroke-miterlimit:4;stroke-dasharray:none;stroke-opacity:1" />
    <path
       sodipodi:type="arc"
       style="opacity:1;fill:#020202;fill-opacity:1;stroke:#818181;stroke-width:1.33958924;stroke-linecap:round;stroke-linejoin:round;stroke-miterlimit:4;stroke-dasharray:none;stroke-opacity:1"
       id="path3184"
       sodipodi:cx="67.879311"
       sodipodi:cy="235.17241"
       sodipodi:rx="93"
       sodipodi:ry="93"
       d="M 160.87931,235.17241 A 93,93 0 1 1 -25.120689,235.17241 A 93,93 0 1 1 160.87931,235.17241 z"
       transform="matrix(1.5041285,0,0,1.4950947,127.45229,-115.18564)" />
    <path
       transform="matrix(1.4510366,0,0,1.4423216,131.05613,-102.77488)"
       d="M 160.87931,235.17241 A 93,93 0 1 1 -25.120689,235.17241 A 93,93 0 1 1 160.87931,235.17241 z"
       sodipodi:ry="93"
       sodipodi:rx="93"
       sodipodi:cy="235.17241"
       sodipodi:cx="67.879311"
       id="path2384"
       style="opacity:1;fill:url(#linearGradient3509);fill-opacity:1;stroke:none;stroke-width:1;stroke-linecap:round;stroke-linejoin:round;stroke-miterlimit:4;stroke-dasharray:none;stroke-opacity:1"
       sodipodi:type="arc" />
    <path
       transform="matrix(1.5163986,0,0,1.5163986,130.2666,-115.73805)"
       d="M 64.672415,167.29311 A 14.965517,14.965517 0 1 1 34.741381,167.29311 A 14.965517,14.965517 0 1 1 64.672415,167.29311 z"
       sodipodi:ry="14.965517"
       sodipodi:rx="14.965517"
       sodipodi:cy="167.29311"
       sodipodi:cx="49.706898"
       id="path3156"
       style="opacity:1;fill:#7c7c7c;fill-opacity:0.65048547;stroke:none;stroke-width:1;stroke-linecap:round;stroke-linejoin:round;stroke-miterlimit:4;stroke-dasharray:none;stroke-opacity:1"
       sodipodi:type="arc" />
    <path
       transform="matrix(1.5163986,0,0,1.5163986,178.89594,-116.54853)"
       sodipodi:type="arc"
       style="opacity:1;fill:#7c7c7c;fill-opacity:0.65048547;stroke:none;stroke-width:1;stroke-linecap:round;stroke-linejoin:round;stroke-miterlimit:4;stroke-dasharray:none;stroke-opacity:1"
       id="path3158"
       sodipodi:cx="49.706898"
       sodipodi:cy="167.29311"
       sodipodi:rx="14.965517"
       sodipodi:ry="14.965517"
       d="M 64.672415,167.29311 A 14.965517,14.965517 0 1 1 34.741381,167.29311 A 14.965517,14.965517 0 1 1 64.672415,167.29311 z" />
    <path
       d="M 64.672415,167.29311 A 14.965517,14.965517 0 1 1 34.741381,167.29311 A 14.965517,14.965517 0 1 1 64.672415,167.29311 z"
       sodipodi:ry="14.965517"
       sodipodi:rx="14.965517"
       sodipodi:cy="167.29311"
       sodipodi:cx="49.706898"
       id="path3160"
       style="opacity:1;fill:#7c7c7c;fill-opacity:0.98550726;stroke:url(#linearGradient3511);stroke-width:1.31891441;stroke-linecap:round;stroke-linejoin:round;stroke-miterlimit:4;stroke-dasharray:none;stroke-opacity:1"
       sodipodi:type="arc"
       transform="matrix(1.5163986,0,0,1.5163986,223.47283,-89.8024)" />
    <path
       transform="matrix(1.5163986,0,0,1.5163986,81.637273,-92.233866)"
       sodipodi:type="arc"
       style="opacity:1;fill:#7c7c7c;fill-opacity:0.65048547;stroke:none;stroke-width:1;stroke-linecap:round;stroke-linejoin:round;stroke-miterlimit:4;stroke-dasharray:none;stroke-opacity:1"
       id="path3162"
       sodipodi:cx="49.706898"
       sodipodi:cy="167.29311"
       sodipodi:rx="14.965517"
       sodipodi:ry="14.965517"
       d="M 64.672415,167.29311 A 14.965517,14.965517 0 1 1 34.741381,167.29311 A 14.965517,14.965517 0 1 1 64.672415,167.29311 z" />
    <path
       d="M 64.672415,167.29311 A 14.965517,14.965517 0 1 1 34.741381,167.29311 A 14.965517,14.965517 0 1 1 64.672415,167.29311 z"
       sodipodi:ry="14.965517"
       sodipodi:rx="14.965517"
       sodipodi:cy="167.29311"
       sodipodi:cx="49.706898"
       id="path3164"
       style="opacity:1;fill:#7c7c7c;fill-opacity:0.65048547;stroke:none;stroke-width:1;stroke-linecap:round;stroke-linejoin:round;stroke-miterlimit:4;stroke-dasharray:none;stroke-opacity:1"
       sodipodi:type="arc"
       transform="matrix(1.5163986,0,0,1.5163986,54.891139,-47.656977)" />
    <path
       transform="matrix(1.5163986,0,0,1.5163986,52.459669,5.0247999)"
       sodipodi:type="arc"
       style="opacity:1;fill:#7c7c7c;fill-opacity:0.65048547;stroke:none;stroke-width:1;stroke-linecap:round;stroke-linejoin:round;stroke-miterlimit:4;stroke-dasharray:none;stroke-opacity:1"
       id="path3166"
       sodipodi:cx="49.706898"
       sodipodi:cy="167.29311"
       sodipodi:rx="14.965517"
       sodipodi:ry="14.965517"
       d="M 64.672415,167.29311 A 14.965517,14.965517 0 1 1 34.741381,167.29311 A 14.965517,14.965517 0 1 1 64.672415,167.29311 z" />
    <path
       d="M 64.672415,167.29311 A 14.965517,14.965517 0 1 1 34.741381,167.29311 A 14.965517,14.965517 0 1 1 64.672415,167.29311 z"
       sodipodi:ry="14.965517"
       sodipodi:rx="14.965517"
       sodipodi:cy="167.29311"
       sodipodi:cx="49.706898"
       id="path3168"
       style="opacity:1;fill:#7c7c7c;fill-opacity:0.65048547;stroke:none;stroke-width:1;stroke-linecap:round;stroke-linejoin:round;stroke-miterlimit:4;stroke-dasharray:none;stroke-opacity:1"
       sodipodi:type="arc"
       transform="matrix(1.5163986,0,0,1.5163986,75.153362,52.033154)" />
    <path
       transform="matrix(1.5163986,0,0,1.5163986,120.54074,78.779285)"
       sodipodi:type="arc"
       style="opacity:1;fill:#7c7c7c;fill-opacity:0.65048547;stroke:none;stroke-width:1;stroke-linecap:round;stroke-linejoin:round;stroke-miterlimit:4;stroke-dasharray:none;stroke-opacity:1"
       id="path3170"
       sodipodi:cx="49.706898"
       sodipodi:cy="167.29311"
       sodipodi:rx="14.965517"
       sodipodi:ry="14.965517"
       d="M 64.672415,167.29311 A 14.965517,14.965517 0 1 1 34.741381,167.29311 A 14.965517,14.965517 0 1 1 64.672415,167.29311 z" />
    <path
       d="M 64.672415,167.29311 A 14.965517,14.965517 0 1 1 34.741381,167.29311 A 14.965517,14.965517 0 1 1 64.672415,167.29311 z"
       sodipodi:ry="14.965517"
       sodipodi:rx="14.965517"
       sodipodi:cy="167.29311"
       sodipodi:cx="49.706898"
       id="path3172"
       style="opacity:1;fill:#7c7c7c;fill-opacity:0.65048547;stroke:none;stroke-width:1;stroke-linecap:round;stroke-linejoin:round;stroke-miterlimit:4;stroke-dasharray:none;stroke-opacity:1"
       sodipodi:type="arc"
       transform="matrix(1.5163986,0,0,1.5163986,173.22252,78.779285)" />
    <path
       transform="matrix(1.5163986,0,0,1.5163986,222.66234,56.085592)"
       sodipodi:type="arc"
       style="opacity:1;fill:#7c7c7c;fill-opacity:0.65048547;stroke:none;stroke-width:1;stroke-linecap:round;stroke-linejoin:round;stroke-miterlimit:4;stroke-dasharray:none;stroke-opacity:1"
       id="path3174"
       sodipodi:cx="49.706898"
       sodipodi:cy="167.29311"
       sodipodi:rx="14.965517"
       sodipodi:ry="14.965517"
       d="M 64.672415,167.29311 A 14.965517,14.965517 0 1 1 34.741381,167.29311 A 14.965517,14.965517 0 1 1 64.672415,167.29311 z" />
    <path
       transform="matrix(1.461399,0,0,1.461399,140.27378,-99.074557)"
       d="M 106.89655,229.29311 A 47.034481,47.034481 0 1 1 12.827587,229.29311 A 47.034481,47.034481 0 1 1 106.89655,229.29311 z"
       sodipodi:ry="47.034481"
       sodipodi:rx="47.034481"
       sodipodi:cy="229.29311"
       sodipodi:cx="59.862068"
       id="path3176"
       style="opacity:1;fill:url(#radialGradient3513);fill-opacity:1;stroke:url(#linearGradient3515);stroke-width:2.05282736;stroke-linecap:round;stroke-linejoin:round;stroke-miterlimit:4;stroke-dasharray:none;stroke-opacity:1"
       sodipodi:type="arc" />
    <path
       sodipodi:nodetypes="cccc"
       id="path3180"
       d="M 342.33437,311.19085 C 350.60279,310.54509 356.21494,305.58816 360.47026,298.92275 L 352.97577,292.94847 C 349.42864,301.88556 345.8815,306.10951 342.33437,311.19085 z"
       style="fill:#a5a60c;fill-opacity:1;fill-rule:evenodd;stroke:#000000;stroke-width:1.51639855px;stroke-linecap:butt;stroke-linejoin:miter;stroke-opacity:1" />
    <path
       sodipodi:nodetypes="cccccccc"
       id="path3178"
       d="M 360.44544,299.23226 C 353.28728,293.55652 346.96407,286.2109 336.94127,286.26444 C 321.04484,285.79081 313.99421,276.47139 302.52069,271.57486 C 300.448,267.67205 302.98498,266.07408 306.95318,265.19173 C 324.17178,268.56719 340.16992,278.24565 356.9746,264.58279 C 360.83319,264.71049 364.69175,264.88131 368.55034,266.00222 L 373.41327,268.43369 C 372.15143,280.53634 366.72159,290.13819 360.44544,299.23226 z"
       style="fill:url(#linearGradient3517);fill-opacity:1;fill-rule:evenodd;stroke:url(#linearGradient3519);stroke-width:1.51639855px;stroke-linecap:butt;stroke-linejoin:miter;stroke-opacity:1" />
    <rect
       ry="10.493827"
       y="154.40811"
       x="401.45432"
       height="43.899681"
       width="115.32304"
       id="rect3190"
       style="opacity:1;fill:url(#linearGradient3521);fill-opacity:1;stroke:none;stroke-width:2;stroke-linecap:round;stroke-linejoin:round;stroke-miterlimit:4;stroke-dasharray:none;stroke-opacity:1" />
    <path
       transform="translate(179.92202,1.1001921)"
       d="M 74.691359,402.65433 A 20.370371,20.370371 0 1 1 33.950617,402.65433 A 20.370371,20.370371 0 1 1 74.691359,402.65433 z"
       sodipodi:ry="20.370371"
       sodipodi:rx="20.370371"
       sodipodi:cy="402.65433"
       sodipodi:cx="54.320988"
       id="path3196"
       style="opacity:1;fill:url(#radialGradient3523);fill-opacity:1;stroke:url(#linearGradient3525);stroke-width:6.9000001;stroke-linecap:round;stroke-linejoin:round;stroke-miterlimit:4;stroke-dasharray:none;stroke-opacity:1"
       sodipodi:type="arc" />
    <rect
       ry="4.2483659"
       y="47.581673"
       x="379.922"
       height="168.51852"
       width="11.728395"
       id="rect3188"
       style="opacity:1;fill:#3a3a3a;fill-opacity:1;stroke:none;stroke-width:2;stroke-linecap:round;stroke-linejoin:round;stroke-miterlimit:4;stroke-dasharray:none;stroke-opacity:1" />
    <path
       transform="matrix(1.5163986,0,0,1.5163986,180.66237,-117.58018)"
       sodipodi:type="arc"
       style="opacity:1;fill:#7c7c7c;fill-opacity:0.98550726;stroke:url(#linearGradient3527);stroke-width:1.31891441;stroke-linecap:round;stroke-linejoin:round;stroke-miterlimit:4;stroke-dasharray:none;stroke-opacity:1"
       id="path3320"
       sodipodi:cx="49.706898"
       sodipodi:cy="167.29311"
       sodipodi:rx="14.965517"
       sodipodi:ry="14.965517"
       d="M 64.672415,167.29311 A 14.965517,14.965517 0 1 1 34.741381,167.29311 A 14.965517,14.965517 0 1 1 64.672415,167.29311 z" />
    <path
       d="M 64.672415,167.29311 A 14.965517,14.965517 0 1 1 34.741381,167.29311 A 14.965517,14.965517 0 1 1 64.672415,167.29311 z"
       sodipodi:ry="14.965517"
       sodipodi:rx="14.965517"
       sodipodi:cy="167.29311"
       sodipodi:cx="49.706898"
       id="path3324"
       style="opacity:1;fill:#7c7c7c;fill-opacity:0.98550726;stroke:url(#linearGradient3529);stroke-width:1.31891441;stroke-linecap:round;stroke-linejoin:round;stroke-miterlimit:4;stroke-dasharray:none;stroke-opacity:1"
       sodipodi:type="arc"
       transform="matrix(1.5163986,0,0,1.5163986,129.68198,-115.6194)" />
    <path
       transform="matrix(1.5163986,0,0,1.5163986,83.276749,-93.070377)"
       sodipodi:type="arc"
       style="opacity:1;fill:#7c7c7c;fill-opacity:0.98550726;stroke:url(#linearGradient3531);stroke-width:1.31891441;stroke-linecap:round;stroke-linejoin:round;stroke-miterlimit:4;stroke-dasharray:none;stroke-opacity:1"
       id="path3328"
       sodipodi:cx="49.706898"
       sodipodi:cy="167.29311"
       sodipodi:rx="14.965517"
       sodipodi:ry="14.965517"
       d="M 64.672415,167.29311 A 14.965517,14.965517 0 1 1 34.741381,167.29311 A 14.965517,14.965517 0 1 1 64.672415,167.29311 z" />
    <path
       d="M 64.672415,167.29311 A 14.965517,14.965517 0 1 1 34.741381,167.29311 A 14.965517,14.965517 0 1 1 64.672415,167.29311 z"
       sodipodi:ry="14.965517"
       sodipodi:rx="14.965517"
       sodipodi:cy="167.29311"
       sodipodi:cx="49.706898"
       id="path3332"
       style="opacity:1;fill:#7c7c7c;fill-opacity:0.98550726;stroke:url(#linearGradient3533);stroke-width:1.31891441;stroke-linecap:round;stroke-linejoin:round;stroke-miterlimit:4;stroke-dasharray:none;stroke-opacity:1"
       sodipodi:type="arc"
       transform="matrix(1.5163986,0,0,1.5163986,56.152566,-46.991946)" />
    <path
       transform="matrix(1.5163986,0,0,1.5163986,52.557794,4.9688378)"
       sodipodi:type="arc"
       style="opacity:1;fill:#7c7c7c;fill-opacity:0.98550726;stroke:url(#linearGradient3535);stroke-width:1.31891441;stroke-linecap:round;stroke-linejoin:round;stroke-miterlimit:4;stroke-dasharray:none;stroke-opacity:1"
       id="path3336"
       sodipodi:cx="49.706898"
       sodipodi:cy="167.29311"
       sodipodi:rx="14.965517"
       sodipodi:ry="14.965517"
       d="M 64.672415,167.29311 A 14.965517,14.965517 0 1 1 34.741381,167.29311 A 14.965517,14.965517 0 1 1 64.672415,167.29311 z" />
    <path
       d="M 64.672415,167.29311 A 14.965517,14.965517 0 1 1 34.741381,167.29311 A 14.965517,14.965517 0 1 1 64.672415,167.29311 z"
       sodipodi:ry="14.965517"
       sodipodi:rx="14.965517"
       sodipodi:cy="167.29311"
       sodipodi:cx="49.706898"
       id="path3340"
       style="opacity:1;fill:#7c7c7c;fill-opacity:0.98550726;stroke:url(#linearGradient3537);stroke-width:1.31891441;stroke-linecap:round;stroke-linejoin:round;stroke-miterlimit:4;stroke-dasharray:none;stroke-opacity:1"
       sodipodi:type="arc"
       transform="matrix(1.5163986,0,0,1.5163986,76.414004,51.700864)" />
    <path
       transform="matrix(1.5163986,0,0,1.5163986,120.85845,79.478642)"
       sodipodi:type="arc"
       style="opacity:1;fill:#7c7c7c;fill-opacity:0.98550726;stroke:url(#linearGradient3539);stroke-width:1.31891441;stroke-linecap:round;stroke-linejoin:round;stroke-miterlimit:4;stroke-dasharray:none;stroke-opacity:1"
       id="path3344"
       sodipodi:cx="49.706898"
       sodipodi:cy="167.29311"
       sodipodi:rx="14.965517"
       sodipodi:ry="14.965517"
       d="M 64.672415,167.29311 A 14.965517,14.965517 0 1 1 34.741381,167.29311 A 14.965517,14.965517 0 1 1 64.672415,167.29311 z" />
    <path
       d="M 64.672415,167.29311 A 14.965517,14.965517 0 1 1 34.741381,167.29311 A 14.965517,14.965517 0 1 1 64.672415,167.29311 z"
       sodipodi:ry="14.965517"
       sodipodi:rx="14.965517"
       sodipodi:cy="167.29311"
       sodipodi:cx="49.706898"
       id="path3348"
       style="opacity:1;fill:#7c7c7c;fill-opacity:0.98550726;stroke:url(#linearGradient3541);stroke-width:1.31891441;stroke-linecap:round;stroke-linejoin:round;stroke-miterlimit:4;stroke-dasharray:none;stroke-opacity:1"
       sodipodi:type="arc"
       transform="matrix(1.5163986,0,0,1.5163986,173.79962,79.151845)" />
    <path
       transform="matrix(1.5163986,0,0,1.5163986,222.49243,56.929623)"
       sodipodi:type="arc"
       style="opacity:1;fill:#7c7c7c;fill-opacity:0.98550726;stroke:url(#linearGradient3543);stroke-width:1.31891441;stroke-linecap:round;stroke-linejoin:round;stroke-miterlimit:4;stroke-dasharray:none;stroke-opacity:1"
       id="path3352"
       sodipodi:cx="49.706898"
       sodipodi:cy="167.29311"
       sodipodi:rx="14.965517"
       sodipodi:ry="14.965517"
       d="M 64.672415,167.29311 A 14.965517,14.965517 0 1 1 34.741381,167.29311 A 14.965517,14.965517 0 1 1 64.672415,167.29311 z" />
    <path
       id="text3393"
       d="M 255.48169,141.38696 L 265.74731,141.38696 L 265.74731,145.80884 L 248.79419,145.80884 L 248.79419,141.38696 L 257.30981,133.87134 C 258.07022,133.18385 258.63272,132.51198 258.99731,131.85571 C 259.36188,131.19948 259.54417,130.51719 259.54419,129.80884 C 259.54417,128.71511 259.17438,127.8349 258.43481,127.16821 C 257.70563,126.50157 256.73168,126.16823 255.51294,126.16821 C 254.57543,126.16823 253.54939,126.37136 252.43481,126.77759 C 251.32022,127.17344 250.12752,127.76719 248.85669,128.55884 L 248.85669,123.43384 C 250.21085,122.98594 251.54939,122.6474 252.87231,122.41821 C 254.19522,122.17865 255.49209,122.05886 256.76294,122.05884 C 259.55459,122.05886 261.72125,122.67344 263.26294,123.90259 C 264.815,125.13178 265.59104,126.84532 265.59106,129.04321 C 265.59104,130.31406 265.26292,131.50156 264.60669,132.60571 C 263.95042,133.69948 262.57021,135.16822 260.46606,137.01196 L 255.48169,141.38696"
       style="font-size:32px;font-style:normal;font-weight:bold;fill:#000000;fill-opacity:1;stroke:none;stroke-width:1px;stroke-linecap:butt;stroke-linejoin:miter;stroke-opacity:1;font-family:Bitstream Vera Sans;-inkscape-font-specification:Bitstream Vera Sans Bold" />
    <path
       id="text3397"
       d="M 211.03733,135.34839 C 212.80685,135.80543 214.14864,136.60231 215.06273,137.73901 C 215.98848,138.86402 216.45138,140.29957 216.4514,142.04565 C 216.45138,144.64722 215.45528,146.62769 213.46312,147.98706 C 211.47091,149.33472 208.56466,150.00854 204.74437,150.00855 C 203.3967,150.00854 202.04319,149.89722 200.68382,149.67456 C 199.33616,149.46362 198.00022,149.14136 196.67601,148.70776 L 196.67601,143.48706 C 197.94163,144.11988 199.19553,144.60035 200.43773,144.92847 C 201.69162,145.24488 202.92209,145.40308 204.12913,145.40308 C 205.92209,145.40308 207.29318,145.09253 208.24241,144.47144 C 209.20334,143.85035 209.6838,142.95972 209.68382,141.79956 C 209.6838,140.60426 209.19162,139.70191 208.20726,139.09253 C 207.23459,138.47145 205.79318,138.1609 203.88304,138.16089 L 201.17601,138.16089 L 201.17601,133.80151 L 204.02366,133.80151 C 205.72287,133.80153 206.98849,133.53786 207.82054,133.0105 C 208.65255,132.47145 209.06857,131.657 209.06858,130.56714 C 209.06857,129.55935 208.66427,128.78005 207.85569,128.22925 C 207.04709,127.67849 205.90451,127.4031 204.42796,127.40308 C 203.33811,127.4031 202.23655,127.52615 201.12327,127.77222 C 200.00999,128.01833 198.90256,128.38161 197.80101,128.86206 L 197.80101,123.90503 C 199.13694,123.53006 200.46116,123.24881 201.77366,123.06128 C 203.08615,122.87381 204.37522,122.78006 205.64085,122.78003 C 209.05099,122.78006 211.59982,123.34256 213.28733,124.46753 C 214.98653,125.58084 215.83614,127.26247 215.83616,129.51245 C 215.83614,131.04763 215.43184,132.30739 214.62327,133.29175 C 213.81466,134.26442 212.61935,134.94997 211.03733,135.34839"
       style="font-size:36px;font-style:normal;font-weight:bold;fill:#000000;fill-opacity:1;stroke:none;stroke-width:1px;stroke-linecap:butt;stroke-linejoin:miter;stroke-opacity:1;font-family:Bitstream Vera Sans;-inkscape-font-specification:Bitstream Vera Sans Bold" />
    <path
       id="text3401"
       d="M 291.67486,170.11035 L 297.65142,170.11035 L 297.65142,153.14746 L 291.51666,154.41309 L 291.51666,149.80762 L 297.61627,148.54199 L 304.04986,148.54199 L 304.04986,170.11035 L 310.02642,170.11035 L 310.02642,174.78613 L 291.67486,174.78613 L 291.67486,170.11035"
       style="font-size:36px;font-style:normal;font-weight:bold;fill:#000000;fill-opacity:1;stroke:none;stroke-width:1px;stroke-linecap:butt;stroke-linejoin:miter;stroke-opacity:1;font-family:Bitstream Vera Sans;-inkscape-font-specification:Bitstream Vera Sans Bold" />
    <path
       id="text3405"
       d="M 160.95028,152.13861 L 153.53231,163.12494 L 160.95028,163.12494 L 160.95028,152.13861 M 159.82528,146.56635 L 167.34871,146.56635 L 167.34871,163.12494 L 171.09285,163.12494 L 171.09285,168.02924 L 167.34871,168.02924 L 167.34871,172.81049 L 160.95028,172.81049 L 160.95028,168.02924 L 149.31356,168.02924 L 149.31356,162.22846 L 159.82528,146.56635"
       style="font-size:36px;font-style:normal;font-weight:bold;fill:#000000;fill-opacity:1;stroke:none;stroke-width:1px;stroke-linecap:butt;stroke-linejoin:miter;stroke-opacity:1;font-family:Bitstream Vera Sans;-inkscape-font-specification:Bitstream Vera Sans Bold" />
    <path
       id="text3409"
       d="M 122.80142,192.28874 L 139.62368,192.28874 L 139.62368,197.26335 L 128.1979,197.26335 L 128.1979,201.3239 C 128.71352,201.18329 129.22914,201.07782 129.74478,201.00749 C 130.27211,200.92548 130.81703,200.88446 131.37954,200.88445 C 134.57875,200.88446 137.06898,201.6872 138.85025,203.29265 C 140.63147,204.88641 141.5221,207.11297 141.52212,209.97234 C 141.5221,212.80828 140.54944,215.02898 138.60415,216.63445 C 136.67054,218.23991 133.98109,219.04265 130.53579,219.04265 C 129.0475,219.04265 127.57094,218.89616 126.10611,218.6032 C 124.65297,218.32195 123.20571,217.88835 121.76431,217.30241 L 121.76431,211.97624 C 123.19399,212.79656 124.54751,213.41179 125.82486,213.82195 C 127.11391,214.23211 128.3268,214.43718 129.46353,214.43718 C 131.10414,214.43718 132.3932,214.03875 133.33071,213.24187 C 134.27992,212.43328 134.75453,211.34344 134.75454,209.97234 C 134.75453,208.58953 134.27992,207.49969 133.33071,206.70281 C 132.3932,205.90594 131.10414,205.50751 129.46353,205.50749 C 128.49086,205.50751 127.45375,205.63641 126.3522,205.89421 C 125.25063,206.14032 124.06704,206.52704 122.80142,207.05437 L 122.80142,192.28874"
       style="font-size:36px;font-style:normal;font-weight:bold;fill:#000000;fill-opacity:1;stroke:none;stroke-width:1px;stroke-linecap:butt;stroke-linejoin:miter;stroke-opacity:1;font-family:Bitstream Vera Sans;-inkscape-font-specification:Bitstream Vera Sans Bold" />
    <path
       id="text3413"
       d="M 128.03833,259.84242 C 126.85472,259.84244 125.9641,260.22915 125.36645,261.00258 C 124.7805,261.76431 124.48754,262.91275 124.48754,264.44789 C 124.48754,265.98305 124.7805,267.13735 125.36645,267.91078 C 125.9641,268.67251 126.85472,269.05336 128.03833,269.05336 C 129.23362,269.05336 130.12425,268.67251 130.7102,267.91078 C 131.30784,267.13735 131.60667,265.98305 131.60669,264.44789 C 131.60667,262.91275 131.30784,261.76431 130.7102,261.00258 C 130.12425,260.22915 129.23362,259.84244 128.03833,259.84242 M 136.40551,247.23891 L 136.40551,252.09047 C 135.29221,251.56315 134.24338,251.17643 133.25903,250.93031 C 132.27464,250.67252 131.3137,250.54362 130.37622,250.54359 C 128.36058,250.54362 126.79027,251.10612 125.66528,252.23109 C 124.54027,253.3444 123.88402,255.0026 123.69653,257.2057 C 124.46996,256.6315 125.30785,256.20377 126.2102,255.9225 C 127.11253,255.62955 128.09691,255.48307 129.16333,255.48305 C 131.8469,255.48307 134.00901,256.26822 135.64965,257.83852 C 137.30198,259.40884 138.12815,261.46548 138.12817,264.00844 C 138.12815,266.82094 137.20823,269.0768 135.3684,270.77602 C 133.52854,272.46352 131.06175,273.30727 127.96801,273.30727 C 124.55785,273.30727 121.91527,272.15883 120.04028,269.86195 C 118.17699,267.55337 117.24536,264.28384 117.24536,260.05336 C 117.24536,255.71744 118.3352,252.31315 120.51489,249.84047 C 122.70629,247.35612 125.70628,246.11393 129.51489,246.11391 C 130.7219,246.11393 131.89378,246.20768 133.03051,246.39516 C 134.16721,246.58268 135.29221,246.86393 136.40551,247.23891"
       style="font-size:36px;font-style:normal;font-weight:bold;fill:#000000;fill-opacity:1;stroke:none;stroke-width:1px;stroke-linecap:butt;stroke-linejoin:miter;stroke-opacity:1;font-family:Bitstream Vera Sans;-inkscape-font-specification:Bitstream Vera Sans Bold" />
    <path
       id="text3417"
       d="M 142.70523,293.42833 L 162.48062,293.42833 L 162.48062,297.24278 L 152.25015,319.67247 L 145.65835,319.67247 L 155.3439,298.40294 L 142.70523,298.40294 L 142.70523,293.42833"
       style="font-size:36px;font-style:normal;font-weight:bold;fill:#000000;fill-opacity:1;stroke:none;stroke-width:1px;stroke-linecap:butt;stroke-linejoin:miter;stroke-opacity:1;font-family:Bitstream Vera Sans;-inkscape-font-specification:Bitstream Vera Sans Bold" />
    <path
       id="text3421"
       d="M 197.14842,333.77931 C 195.88278,333.77932 194.91013,334.12503 194.23045,334.81642 C 193.55075,335.50784 193.21091,336.49807 193.21092,337.78713 C 193.21091,339.07619 193.55075,340.06643 194.23045,340.75783 C 194.91013,341.43752 195.88278,341.77736 197.14842,341.77736 C 198.40231,341.77736 199.36325,341.43752 200.03123,340.75783 C 200.69918,340.06643 201.03317,339.07619 201.03318,337.78713 C 201.03317,336.48635 200.69918,335.49612 200.03123,334.81642 C 199.36325,334.12503 198.40231,333.77932 197.14842,333.77931 M 192.20897,331.54689 C 190.61521,331.06644 189.41404,330.32816 188.60545,329.33205 C 187.79685,328.33597 187.39256,327.09378 187.39256,325.60548 C 187.39256,323.39066 188.21873,321.70316 189.87107,320.54298 C 191.52341,319.38285 193.94919,318.80278 197.14842,318.80275 C 200.32418,318.80278 202.73824,319.38285 204.39061,320.54298 C 206.04293,321.69145 206.8691,323.37894 206.86912,325.60548 C 206.8691,327.09378 206.45894,328.33597 205.63865,329.33205 C 204.83004,330.32816 203.62887,331.06644 202.03514,331.54689 C 203.81637,332.03909 205.15816,332.84183 206.06053,333.95509 C 206.97457,335.05667 207.4316,336.4512 207.43162,338.13869 C 207.4316,340.74025 206.56441,342.709 204.83006,344.04494 C 203.10738,345.36916 200.54684,346.03127 197.14842,346.03127 C 193.73825,346.03127 191.16013,345.36916 189.41404,344.04494 C 187.67967,342.709 186.81248,340.74025 186.81248,338.13869 C 186.81248,336.4512 187.26365,335.05667 188.166,333.95509 C 189.08005,332.84183 190.42771,332.03909 192.20897,331.54689 M 193.791,326.29103 C 193.79099,327.33402 194.0781,328.13675 194.65232,328.69923 C 195.23825,329.26175 196.07028,329.543 197.14842,329.54298 C 198.20309,329.543 199.01754,329.26175 199.59178,328.69923 C 200.16598,328.13675 200.45309,327.33402 200.45311,326.29103 C 200.45309,325.24808 200.16598,324.45121 199.59178,323.90041 C 199.01754,323.33793 198.20309,323.05668 197.14842,323.05666 C 196.07028,323.05668 195.23825,323.33793 194.65232,323.90041 C 194.0781,324.46293 193.79099,325.2598 193.791,326.29103"
       style="font-size:36px;font-style:normal;font-weight:bold;fill:#000000;fill-opacity:1;stroke:none;stroke-width:1px;stroke-linecap:butt;stroke-linejoin:miter;stroke-opacity:1;font-family:Bitstream Vera Sans;-inkscape-font-specification:Bitstream Vera Sans Bold" />
    <path
       id="text3425"
       d="M 241.34372,345.51286 L 241.34372,340.6613 C 242.42184,341.16521 243.45309,341.54607 244.43747,341.80388 C 245.42183,342.04998 246.39449,342.17302 247.35543,342.17302 C 249.37105,342.17302 250.94136,341.61638 252.06637,340.5031 C 253.19136,339.3781 253.85347,337.71404 254.0527,335.51091 C 253.25581,336.09686 252.4062,336.53631 251.50387,336.82927 C 250.60152,337.12225 249.623,337.26873 248.56833,337.26872 C 245.88472,337.26873 243.71676,336.48944 242.06442,334.93083 C 240.42379,333.36053 239.60348,331.29803 239.60348,328.74333 C 239.60348,325.91913 240.51754,323.65742 242.34567,321.95818 C 244.18551,320.25898 246.64644,319.40937 249.72848,319.40935 C 253.15034,319.40937 255.79878,320.56367 257.67379,322.87224 C 259.54877,325.18085 260.48627,328.44452 260.48629,332.66325 C 260.48627,336.9992 259.39057,340.40935 257.19918,342.89372 C 255.00776,345.36638 252.0019,346.60271 248.18161,346.60271 C 246.95113,346.60271 245.7734,346.50896 244.6484,346.32146 C 243.5234,346.14568 242.42184,345.87615 241.34372,345.51286 M 249.69333,332.87419 C 250.87691,332.87421 251.76753,332.49335 252.3652,331.73161 C 252.96284,330.95819 253.26167,329.8039 253.26168,328.26872 C 253.26167,326.7453 252.96284,325.59687 252.3652,324.82341 C 251.76753,324.05 250.87691,323.66328 249.69333,323.66325 C 248.50972,323.66328 247.6191,324.05 247.02145,324.82341 C 246.42379,325.59687 246.12496,326.7453 246.12497,328.26872 C 246.12496,329.8039 246.42379,330.95819 247.02145,331.73161 C 247.6191,332.49335 248.50972,332.87421 249.69333,332.87419"
       style="font-size:36px;font-style:normal;font-weight:bold;fill:#000000;fill-opacity:1;stroke:none;stroke-width:1px;stroke-linecap:butt;stroke-linejoin:miter;stroke-opacity:1;font-family:Bitstream Vera Sans;-inkscape-font-specification:Bitstream Vera Sans Bold" />
    <path
       id="text3429"
       d="M 302.02609,311.0695 C 302.02607,307.78827 301.71553,305.47968 301.09445,304.14372 C 300.48506,302.79609 299.45381,302.12226 298.0007,302.12224 C 296.54756,302.12226 295.51045,302.79609 294.88937,304.14372 C 294.26827,305.47968 293.95772,307.78827 293.95773,311.0695 C 293.95772,314.38592 294.26827,316.72381 294.88937,318.08318 C 295.51045,319.44256 296.54756,320.12224 298.0007,320.12224 C 299.44209,320.12224 300.47334,319.44256 301.09445,318.08318 C 301.71553,316.72381 302.02607,314.38592 302.02609,311.0695 M 308.79367,311.12224 C 308.79364,315.4699 307.85614,318.82732 305.98117,321.1945 C 304.10615,323.54997 301.44599,324.72771 298.0007,324.72771 C 294.54366,324.72771 291.87765,323.54997 290.00265,321.1945 C 288.12765,318.82732 287.19015,315.4699 287.19015,311.12224 C 287.19015,306.76288 288.12765,303.40546 290.00265,301.04997 C 291.87765,298.68281 294.54366,297.49922 298.0007,297.49919 C 301.44599,297.49922 304.10615,298.68281 305.98117,301.04997 C 307.85614,303.40546 308.79364,306.76288 308.79367,311.12224"
       style="font-size:36px;font-style:normal;font-weight:bold;fill:#000000;fill-opacity:1;stroke:none;stroke-width:1px;stroke-linecap:butt;stroke-linejoin:miter;stroke-opacity:1;font-family:Bitstream Vera Sans;-inkscape-font-specification:Bitstream Vera Sans Bold" />
    <path
       sodipodi:nodetypes="cc"
       id="path3443"
       d="M 114.63415,73.130081 C 45.562476,66.72807 111.86801,337.59729 12.195122,368.25203"
       style="fill:none;fill-rule:evenodd;stroke:#000000;stroke-width:8;stroke-linecap:round;stroke-linejoin:round;stroke-miterlimit:4;stroke-dasharray:none;stroke-opacity:1" />
    <path
       style="fill:none;fill-rule:evenodd;stroke:#eeeeee;stroke-width:3;stroke-linecap:round;stroke-linejoin:round;stroke-miterlimit:4;stroke-dasharray:none;stroke-opacity:1"
       d="M 114.1391,70.654833 C 45.067426,64.252822 110.87791,335.61709 11.205023,366.27183"
       id="path3445"
       sodipodi:nodetypes="cc" />
  </g>
  <g
     id="layer1"
     inkscape:label="Layer 1"
     transform="translate(-0.6369322,-7.9104783e-2)">
    <path
       sodipodi:nodetypes="cccccccccsssccccccssscccccc"
       id="text2383"
       d="M 10.338337,-10.630085 L 10.369587,-10.598835 L 6.9504776,-1.4142743 L 8.3879776,-1.3856193 L 9.6246406,-4.5355853 L 12.857374,-4.5355853 L 14.083033,-1.3856183 L 15.520533,-1.3856183 L 14.244587,-4.5675853 C 15.011057,-4.6616323 15.614006,-4.8951793 16.057087,-5.2863353 C 16.64497,-5.8013043 16.93208,-6.5604173 16.932087,-7.5675853 C 16.932079,-8.5656233 16.644971,-9.3338523 16.057087,-9.8488353 C 15.473747,-10.368356 14.607212,-10.630075 13.463337,-10.630085 L 11.932087,-10.630085 L 10.369587,-10.630085 L 10.338337,-10.630085 z M 12.369587,-9.5050853 L 13.463337,-9.5050853 C 14.10591,-9.5050763 14.612421,-9.3377583 14.963337,-9.0050853 C 15.314242,-8.6723943 15.494581,-8.1782543 15.494587,-7.5675853 C 15.494581,-6.9523443 15.314243,-6.4940113 14.963337,-6.1613353 C 14.676858,-5.8897383 14.287944,-5.7424543 13.807087,-5.6925853 L 12.369587,-9.5050853 z M 11.140459,-8.6820923 L 12.326124,-5.6918353 L 9.9475186,-5.6345243 L 11.140459,-8.6820923 z"
       style="font-size:14px;font-style:normal;font-weight:normal;fill:#000000;fill-opacity:1;stroke:none;stroke-width:1px;stroke-linecap:butt;stroke-linejoin:miter;stroke-opacity:1;font-family:Bitstream Vera Sans" />
  </g>
</svg>
