<?xml version="1.0" encoding="UTF-8" standalone="no"?>
<!-- Created with Inkscape (http://www.inkscape.org/) -->
<svg
   xmlns:dc="http://purl.org/dc/elements/1.1/"
   xmlns:cc="http://creativecommons.org/ns#"
   xmlns:rdf="http://www.w3.org/1999/02/22-rdf-syntax-ns#"
   xmlns:svg="http://www.w3.org/2000/svg"
   xmlns="http://www.w3.org/2000/svg"
   xmlns:xlink="http://www.w3.org/1999/xlink"
   xmlns:sodipodi="http://sodipodi.sourceforge.net/DTD/sodipodi-0.dtd"
   xmlns:inkscape="http://www.inkscape.org/namespaces/inkscape"
   id="svg2"
   sodipodi:version="0.32"
   inkscape:version="0.46"
   width="256"
   height="256"
   version="1.0"
   sodipodi:docbase="/media/disk-hda4/svg1/devices"
   sodipodi:docname="network-wireless.svg"
   inkscape:output_extension="org.inkscape.output.svg.inkscape">
  <defs
     id="defs5">
    <inkscape:perspective
       sodipodi:type="inkscape:persp3d"
       inkscape:vp_x="0 : 128 : 1"
       inkscape:vp_y="0 : 1000 : 0"
       inkscape:vp_z="256 : 128 : 1"
       inkscape:persp3d-origin="128 : 85.333333 : 1"
       id="perspective66" />
    <linearGradient
       id="linearGradient3036">
      <stop
         style="stop-color:white;stop-opacity:0;"
         offset="0"
         id="stop3038" />
      <stop
         id="stop3044"
         offset="0.5"
         style="stop-color:white;stop-opacity:0;" />
      <stop
         style="stop-color:#b5b5b5;stop-opacity:1;"
         offset="0.75"
         id="stop3046" />
      <stop
         id="stop3048"
         offset="0.875"
         style="stop-color:#000000;stop-opacity:1;" />
      <stop
         style="stop-color:#ffefef;stop-opacity:1;"
         offset="1"
         id="stop3040" />
    </linearGradient>
    <linearGradient
       id="linearGradient2762">
      <stop
         style="stop-color:#000000;stop-opacity:1;"
         offset="0"
         id="stop2764" />
      <stop
         style="stop-color:#a9a9a9;stop-opacity:1;"
         offset="1"
         id="stop2766" />
    </linearGradient>
    <linearGradient
       inkscape:collect="always"
       xlink:href="#linearGradient2762"
       id="linearGradient2871"
       gradientUnits="userSpaceOnUse"
       spreadMethod="reflect"
       x1="69.105316"
       y1="94.664345"
       x2="85.342903"
       y2="94.488289" />
    <linearGradient
       inkscape:collect="always"
       xlink:href="#linearGradient2762"
       id="linearGradient3089"
       gradientUnits="userSpaceOnUse"
       spreadMethod="reflect"
       x1="69.105316"
       y1="94.664345"
       x2="85.342903"
       y2="94.488289" />
    <linearGradient
       inkscape:collect="always"
       xlink:href="#linearGradient2762"
       id="linearGradient3091"
       gradientUnits="userSpaceOnUse"
       spreadMethod="reflect"
       x1="69.105316"
       y1="94.664345"
       x2="85.342903"
       y2="94.488289" />
    <linearGradient
       inkscape:collect="always"
       xlink:href="#linearGradient2762"
       id="linearGradient3093"
       gradientUnits="userSpaceOnUse"
       spreadMethod="reflect"
       x1="69.105316"
       y1="94.664345"
       x2="85.342903"
       y2="94.488289" />
    <linearGradient
       inkscape:collect="always"
       xlink:href="#linearGradient2762"
       id="linearGradient3095"
       gradientUnits="userSpaceOnUse"
       spreadMethod="reflect"
       x1="69.105316"
       y1="94.664345"
       x2="85.342903"
       y2="94.488289" />
    <linearGradient
       inkscape:collect="always"
       xlink:href="#linearGradient2762"
       id="linearGradient3097"
       gradientUnits="userSpaceOnUse"
       spreadMethod="reflect"
       x1="69.105316"
       y1="94.664345"
       x2="85.342903"
       y2="94.488289" />
    <linearGradient
       inkscape:collect="always"
       xlink:href="#linearGradient2762"
       id="linearGradient3099"
       gradientUnits="userSpaceOnUse"
       spreadMethod="reflect"
       x1="91.923088"
       y1="147.11494"
       x2="89.319427"
       y2="150.0919" />
    <linearGradient
       inkscape:collect="always"
       xlink:href="#linearGradient2762"
       id="linearGradient3101"
       gradientUnits="userSpaceOnUse"
       spreadMethod="reflect"
       x1="70.306252"
       y1="97.486038"
       x2="82.941032"
       y2="81.875473" />
    <linearGradient
       inkscape:collect="always"
       xlink:href="#linearGradient2762"
       id="linearGradient3103"
       gradientUnits="userSpaceOnUse"
       spreadMethod="reflect"
       x1="84.117012"
       y1="76.019249"
       x2="89.145866"
       y2="69.899414" />
    <linearGradient
       inkscape:collect="always"
       xlink:href="#linearGradient2762"
       id="linearGradient3105"
       gradientUnits="userSpaceOnUse"
       spreadMethod="reflect"
       x1="88.120125"
       y1="81.875648"
       x2="100.27708"
       y2="70.006767" />
    <linearGradient
       inkscape:collect="always"
       xlink:href="#linearGradient2762"
       id="linearGradient3107"
       gradientUnits="userSpaceOnUse"
       spreadMethod="reflect"
       x1="109.45605"
       y1="68.662346"
       x2="107.9899"
       y2="70.344452" />
    <linearGradient
       inkscape:collect="always"
       xlink:href="#linearGradient2762"
       id="linearGradient3109"
       gradientUnits="userSpaceOnUse"
       gradientTransform="matrix(0.967222,-0.253932,0,1,6.119296,7.414638)"
       spreadMethod="reflect"
       x1="69.105316"
       y1="94.664345"
       x2="85.342903"
       y2="94.488289" />
    <linearGradient
       inkscape:collect="always"
       xlink:href="#linearGradient2762"
       id="linearGradient3111"
       gradientUnits="userSpaceOnUse"
       spreadMethod="reflect"
       x1="84.586113"
       y1="58.556522"
       x2="84.586113"
       y2="46.301205" />
    <linearGradient
       inkscape:collect="always"
       xlink:href="#linearGradient2762"
       id="linearGradient3113"
       gradientUnits="userSpaceOnUse"
       gradientTransform="matrix(0.433317,-0.113762,0,0.448002,50.11371,35.36161)"
       spreadMethod="reflect"
       x1="90.055367"
       y1="83.266983"
       x2="71.725372"
       y2="84.951363" />
    <linearGradient
       inkscape:collect="always"
       xlink:href="#linearGradient2762"
       id="linearGradient3115"
       gradientUnits="userSpaceOnUse"
       gradientTransform="matrix(0.448002,0,0,0.448002,47.37225,32.03984)"
       spreadMethod="reflect"
       x1="69.758728"
       y1="89.458107"
       x2="99.413338"
       y2="87.841042" />
    <radialGradient
       inkscape:collect="always"
       xlink:href="#linearGradient3036"
       id="radialGradient3117"
       gradientUnits="userSpaceOnUse"
       gradientTransform="matrix(1.719015,-2.016025e-2,2.012757e-2,1.716228,-58.15906,-35.40177)"
       spreadMethod="reflect"
       cx="104.94943"
       cy="51.680122"
       fx="104.94943"
       fy="51.680122"
       r="21.78014" />
    <radialGradient
       inkscape:collect="always"
       xlink:href="#linearGradient3036"
       id="radialGradient3119"
       gradientUnits="userSpaceOnUse"
       gradientTransform="matrix(1.18516,-1.389931e-2,1.387678e-2,1.183239,-1.105553,-8.885922)"
       spreadMethod="reflect"
       cx="104.94943"
       cy="51.680122"
       fx="104.94943"
       fy="51.680122"
       r="21.78014" />
    <radialGradient
       inkscape:collect="always"
       xlink:href="#linearGradient3036"
       id="radialGradient3121"
       gradientUnits="userSpaceOnUse"
       gradientTransform="matrix(0.617713,-7.244419e-3,7.232675e-3,0.616712,59.42266,19.83881)"
       spreadMethod="reflect"
       cx="104.94943"
       cy="51.680122"
       fx="104.94943"
       fy="51.680122"
       r="21.78014" />
    <linearGradient
       gradientUnits="userSpaceOnUse"
       y2="42.245087"
       x2="150.11748"
       y1="202.21474"
       x1="142.96986"
       id="linearGradient2865"
       xlink:href="#linearGradient2837"
       inkscape:collect="always" />
    <linearGradient
       gradientUnits="userSpaceOnUse"
       y2="204.89578"
       x2="113.72008"
       y1="41.947189"
       x1="121.57563"
       id="linearGradient2857"
       xlink:href="#linearGradient2837"
       inkscape:collect="always" />
    <linearGradient
       spreadMethod="reflect"
       gradientUnits="userSpaceOnUse"
       y2="165.71899"
       x2="145.41264"
       y1="77.370277"
       x1="144.8076"
       id="linearGradient2849"
       xlink:href="#linearGradient2837"
       inkscape:collect="always" />
    <linearGradient
       gradientUnits="userSpaceOnUse"
       y2="53.922462"
       x2="122.81"
       y1="165.71899"
       x1="123.61967"
       id="linearGradient2835"
       xlink:href="#linearGradient2837"
       inkscape:collect="always" />
    <linearGradient
       gradientUnits="userSpaceOnUse"
       y2="190.7674"
       x2="177.70123"
       y1="172.18156"
       x1="177.02089"
       id="linearGradient2827"
       xlink:href="#linearGradient2813"
       inkscape:collect="always" />
    <linearGradient
       gradientUnits="userSpaceOnUse"
       y2="172.18156"
       x2="165.0208"
       y1="190.7674"
       x1="165.0208"
       id="linearGradient2819"
       xlink:href="#linearGradient2813"
       inkscape:collect="always" />
    <linearGradient
       id="linearGradient2813"
       inkscape:collect="always">
      <stop
         id="stop2815"
         offset="0"
         style="stop-color:white;stop-opacity:1" />
      <stop
         id="stop2817"
         offset="1"
         style="stop-color:black;stop-opacity:1" />
    </linearGradient>
    <linearGradient
       inkscape:collect="always"
       id="linearGradient2837">
      <stop
         style="stop-color:white;stop-opacity:1"
         offset="0"
         id="stop2839" />
      <stop
         style="stop-color:black;stop-opacity:1"
         offset="1"
         id="stop2841" />
    </linearGradient>
    <linearGradient
       y2="-7.4748664"
       x2="16.093008"
       y1="-7.4748664"
       x1="13.514812"
       spreadMethod="reflect"
       gradientUnits="userSpaceOnUse"
       id="linearGradient3290"
       xlink:href="#linearGradient3578"
       inkscape:collect="always" />
    <linearGradient
       gradientTransform="matrix(0.4584837,0,0,0.4584837,12.357625,81.058821)"
       y2="50.573639"
       x2="215.89148"
       y1="113.36433"
       x1="155.81395"
       spreadMethod="reflect"
       gradientUnits="userSpaceOnUse"
       id="linearGradient3403"
       xlink:href="#linearGradient3369"
       inkscape:collect="always" />
    <linearGradient
       y2="78.617943"
       x2="-79.282944"
       y1="145.67221"
       x1="-81.182167"
       gradientUnits="userSpaceOnUse"
       id="linearGradient3397"
       xlink:href="#linearGradient3387"
       inkscape:collect="always" />
    <linearGradient
       gradientUnits="userSpaceOnUse"
       y2="78.617943"
       x2="-79.282944"
       y1="145.67221"
       x1="-81.182167"
       id="linearGradient3393"
       xlink:href="#linearGradient3387"
       inkscape:collect="always" />
    <linearGradient
       spreadMethod="reflect"
       gradientUnits="userSpaceOnUse"
       y2="50.573639"
       x2="215.89148"
       y1="113.36433"
       x1="155.81395"
       id="linearGradient3375"
       xlink:href="#linearGradient3369"
       inkscape:collect="always" />
    <linearGradient
       y2="-7.4748664"
       x2="16.093008"
       y1="-7.4748664"
       x1="13.514812"
       spreadMethod="reflect"
       gradientUnits="userSpaceOnUse"
       id="linearGradient2595"
       xlink:href="#linearGradient3578"
       inkscape:collect="always" />
    <linearGradient
       y2="-7.4748664"
       x2="16.093008"
       y1="-7.4748664"
       x1="13.514812"
       spreadMethod="reflect"
       gradientUnits="userSpaceOnUse"
       id="linearGradient2593"
       xlink:href="#linearGradient3578"
       inkscape:collect="always" />
    <linearGradient
       y2="-7.4748664"
       x2="16.093008"
       y1="-7.4748664"
       x1="13.514812"
       spreadMethod="reflect"
       gradientUnits="userSpaceOnUse"
       id="linearGradient2591"
       xlink:href="#linearGradient3578"
       inkscape:collect="always" />
    <linearGradient
       y2="-7.4748664"
       x2="16.093008"
       y1="-7.4748664"
       x1="13.514812"
       spreadMethod="reflect"
       gradientUnits="userSpaceOnUse"
       id="linearGradient2589"
       xlink:href="#linearGradient3578"
       inkscape:collect="always" />
    <linearGradient
       y2="-7.4748664"
       x2="16.093008"
       y1="-7.4748664"
       x1="13.514812"
       spreadMethod="reflect"
       gradientUnits="userSpaceOnUse"
       id="linearGradient2587"
       xlink:href="#linearGradient3578"
       inkscape:collect="always" />
    <linearGradient
       y2="-7.4748664"
       x2="16.093008"
       y1="-7.4748664"
       x1="13.514812"
       spreadMethod="reflect"
       gradientUnits="userSpaceOnUse"
       id="linearGradient2585"
       xlink:href="#linearGradient3578"
       inkscape:collect="always" />
    <linearGradient
       y2="-7.4748664"
       x2="16.093008"
       y1="-7.4748664"
       x1="13.514812"
       spreadMethod="reflect"
       gradientUnits="userSpaceOnUse"
       id="linearGradient2583"
       xlink:href="#linearGradient3578"
       inkscape:collect="always" />
    <linearGradient
       y2="-7.4748664"
       x2="16.093008"
       y1="-7.4748664"
       x1="13.514812"
       spreadMethod="reflect"
       gradientUnits="userSpaceOnUse"
       id="linearGradient2581"
       xlink:href="#linearGradient3578"
       inkscape:collect="always" />
    <linearGradient
       y2="-7.4748664"
       x2="16.093008"
       y1="-7.4748664"
       x1="13.514812"
       spreadMethod="reflect"
       gradientUnits="userSpaceOnUse"
       id="linearGradient2579"
       xlink:href="#linearGradient3578"
       inkscape:collect="always" />
    <linearGradient
       y2="-7.4748664"
       x2="16.093008"
       y1="-7.4748664"
       x1="13.514812"
       spreadMethod="reflect"
       gradientUnits="userSpaceOnUse"
       id="linearGradient2577"
       xlink:href="#linearGradient3578"
       inkscape:collect="always" />
    <linearGradient
       y2="-7.4748664"
       x2="16.093008"
       y1="-7.4748664"
       x1="13.514812"
       spreadMethod="reflect"
       gradientUnits="userSpaceOnUse"
       id="linearGradient2575"
       xlink:href="#linearGradient3578"
       inkscape:collect="always" />
    <linearGradient
       y2="-7.4748664"
       x2="16.093008"
       y1="-7.4748664"
       x1="13.514812"
       spreadMethod="reflect"
       gradientUnits="userSpaceOnUse"
       id="linearGradient2573"
       xlink:href="#linearGradient3578"
       inkscape:collect="always" />
    <linearGradient
       y2="-7.4748664"
       x2="16.093008"
       y1="-7.4748664"
       x1="13.514812"
       spreadMethod="reflect"
       gradientUnits="userSpaceOnUse"
       id="linearGradient2571"
       xlink:href="#linearGradient3578"
       inkscape:collect="always" />
    <linearGradient
       y2="-7.4748664"
       x2="16.093008"
       y1="-7.4748664"
       x1="13.514812"
       spreadMethod="reflect"
       gradientUnits="userSpaceOnUse"
       id="linearGradient2569"
       xlink:href="#linearGradient3578"
       inkscape:collect="always" />
    <linearGradient
       y2="-7.4748664"
       x2="16.093008"
       y1="-7.4748664"
       x1="13.514812"
       spreadMethod="reflect"
       gradientUnits="userSpaceOnUse"
       id="linearGradient2567"
       xlink:href="#linearGradient3578"
       inkscape:collect="always" />
    <linearGradient
       y2="-7.4748664"
       x2="16.093008"
       y1="-7.4748664"
       x1="13.514812"
       spreadMethod="reflect"
       gradientUnits="userSpaceOnUse"
       id="linearGradient2565"
       xlink:href="#linearGradient3578"
       inkscape:collect="always" />
    <linearGradient
       y2="-7.4748664"
       x2="16.093008"
       y1="-7.4748664"
       x1="13.514812"
       spreadMethod="reflect"
       gradientUnits="userSpaceOnUse"
       id="linearGradient2563"
       xlink:href="#linearGradient3578"
       inkscape:collect="always" />
    <linearGradient
       y2="-7.4748664"
       x2="16.093008"
       y1="-7.4748664"
       x1="13.514812"
       spreadMethod="reflect"
       gradientUnits="userSpaceOnUse"
       id="linearGradient2561"
       xlink:href="#linearGradient3578"
       inkscape:collect="always" />
    <linearGradient
       y2="-7.4748664"
       x2="16.093008"
       y1="-7.4748664"
       x1="13.514812"
       spreadMethod="reflect"
       gradientUnits="userSpaceOnUse"
       id="linearGradient2559"
       xlink:href="#linearGradient3578"
       inkscape:collect="always" />
    <linearGradient
       y2="-7.4748664"
       x2="16.093008"
       y1="-7.4748664"
       x1="13.514812"
       spreadMethod="reflect"
       gradientUnits="userSpaceOnUse"
       id="linearGradient2557"
       xlink:href="#linearGradient3578"
       inkscape:collect="always" />
    <linearGradient
       y2="-7.4748664"
       x2="16.093008"
       y1="-7.4748664"
       x1="13.514812"
       spreadMethod="reflect"
       gradientUnits="userSpaceOnUse"
       id="linearGradient2555"
       xlink:href="#linearGradient3578"
       inkscape:collect="always" />
    <linearGradient
       y2="-7.4748664"
       x2="16.093008"
       y1="-7.4748664"
       x1="13.514812"
       spreadMethod="reflect"
       gradientUnits="userSpaceOnUse"
       id="linearGradient2553"
       xlink:href="#linearGradient3578"
       inkscape:collect="always" />
    <linearGradient
       y2="-7.4748664"
       x2="16.093008"
       y1="-7.4748664"
       x1="13.514812"
       spreadMethod="reflect"
       gradientUnits="userSpaceOnUse"
       id="linearGradient2551"
       xlink:href="#linearGradient3578"
       inkscape:collect="always" />
    <linearGradient
       y2="-7.4748664"
       x2="16.093008"
       y1="-2.2096405"
       x1="15.650429"
       spreadMethod="reflect"
       gradientUnits="userSpaceOnUse"
       id="linearGradient3610"
       xlink:href="#linearGradient3578"
       inkscape:collect="always" />
    <linearGradient
       y2="-7.4748664"
       x2="16.093008"
       y1="-6.4087667"
       x1="10.621114"
       spreadMethod="reflect"
       gradientUnits="userSpaceOnUse"
       id="linearGradient3608"
       xlink:href="#linearGradient3578"
       inkscape:collect="always" />
    <linearGradient
       y2="-1.5134122"
       x2="9.7181683"
       y1="-5.8865957"
       x1="11.186799"
       spreadMethod="reflect"
       gradientUnits="userSpaceOnUse"
       id="linearGradient3606"
       xlink:href="#linearGradient3578"
       inkscape:collect="always" />
    <linearGradient
       y2="-4.5158963"
       x2="12.916467"
       y1="-3.7543969"
       x1="7.7709298"
       spreadMethod="reflect"
       gradientUnits="userSpaceOnUse"
       id="linearGradient3604"
       xlink:href="#linearGradient3578"
       inkscape:collect="always" />
    <linearGradient
       y2="-3.7326398"
       x2="14.93988"
       y1="-2.2749119"
       x1="17.082983"
       spreadMethod="reflect"
       gradientUnits="userSpaceOnUse"
       id="linearGradient3602"
       xlink:href="#linearGradient3578"
       inkscape:collect="always" />
    <linearGradient
       y2="-1.9920692"
       x2="17.376678"
       y1="-6.2564669"
       x1="15.58174"
       spreadMethod="reflect"
       gradientUnits="userSpaceOnUse"
       id="linearGradient3600"
       xlink:href="#linearGradient3578"
       inkscape:collect="always" />
    <linearGradient
       y2="-7.4748664"
       x2="16.093008"
       y1="-10.977764"
       x1="16.691353"
       spreadMethod="reflect"
       gradientUnits="userSpaceOnUse"
       id="linearGradient3598"
       xlink:href="#linearGradient3578"
       inkscape:collect="always" />
    <linearGradient
       y2="-11.199143"
       x2="11.132382"
       y1="-11.39115"
       x1="16.386753"
       spreadMethod="reflect"
       gradientUnits="userSpaceOnUse"
       id="linearGradient3596"
       xlink:href="#linearGradient3578"
       inkscape:collect="always" />
    <linearGradient
       y2="-2.6882975"
       x2="8.6955833"
       y1="-11.586965"
       x1="12.035328"
       spreadMethod="reflect"
       gradientUnits="userSpaceOnUse"
       id="linearGradient3594"
       xlink:href="#linearGradient3578"
       inkscape:collect="always" />
    <linearGradient
       y2="-5.7778101"
       x2="11.371711"
       y1="-10.150993"
       x1="12.905613"
       spreadMethod="reflect"
       gradientUnits="userSpaceOnUse"
       id="linearGradient3592"
       xlink:href="#linearGradient3578"
       inkscape:collect="always" />
    <linearGradient
       y2="-6.9526954"
       x2="17.74655"
       y1="-5.9083529"
       x1="16.386753"
       spreadMethod="reflect"
       gradientUnits="userSpaceOnUse"
       id="linearGradient3590"
       xlink:href="#linearGradient3578"
       inkscape:collect="always" />
    <linearGradient
       y2="-8.018795"
       x2="17.07476"
       y1="-7.4748664"
       x1="13.514812"
       spreadMethod="reflect"
       gradientUnits="userSpaceOnUse"
       id="linearGradient3588"
       xlink:href="#linearGradient3578"
       inkscape:collect="always" />
    <linearGradient
       y2="-6.5828238"
       x2="18.616835"
       y1="-5.2121248"
       x1="16.908924"
       spreadMethod="reflect"
       gradientUnits="userSpaceOnUse"
       id="linearGradient3586"
       xlink:href="#linearGradient3578"
       inkscape:collect="always" />
    <linearGradient
       spreadMethod="reflect"
       gradientUnits="userSpaceOnUse"
       y2="-7.4748664"
       x2="16.093008"
       y1="-7.4748664"
       x1="13.514812"
       id="linearGradient3584"
       xlink:href="#linearGradient3578"
       inkscape:collect="always" />
    <inkscape:perspective
       sodipodi:type="inkscape:persp3d"
       inkscape:vp_x="0 : 128 : 1"
       inkscape:vp_y="0 : 1000 : 0"
       inkscape:vp_z="256 : 128 : 1"
       inkscape:persp3d-origin="128 : 85.333333 : 1"
       id="perspective2503" />
    <linearGradient
       id="linearGradient3578">
      <stop
         id="stop3580"
         offset="0"
         style="stop-color:#000000;stop-opacity:1;" />
      <stop
         id="stop3582"
         offset="1"
         style="stop-color:#fffcfc;stop-opacity:1;" />
    </linearGradient>
    <linearGradient
       id="linearGradient3369"
       inkscape:collect="always">
      <stop
         id="stop3371"
         offset="0"
         style="stop-color:#6465df;stop-opacity:1" />
      <stop
         id="stop3373"
         offset="1"
         style="stop-color:#ffffff;stop-opacity:1" />
    </linearGradient>
    <linearGradient
       id="linearGradient3387"
       inkscape:collect="always">
      <stop
         id="stop3389"
         offset="0"
         style="stop-color:#000000;stop-opacity:1;" />
      <stop
         id="stop3391"
         offset="1"
         style="stop-color:#ffffff;stop-opacity:1" />
    </linearGradient>
  </defs>
  <sodipodi:namedview
     inkscape:window-height="1025"
     inkscape:window-width="1680"
     inkscape:pageshadow="2"
     inkscape:pageopacity="0.0"
     guidetolerance="10.0"
     gridtolerance="10.0"
     objecttolerance="10.0"
     borderopacity="1.0"
     bordercolor="#666666"
     pagecolor="#ffffff"
     id="base"
     width="256px"
     height="256px"
     inkscape:zoom="2.203125"
     inkscape:cx="128"
     inkscape:cy="128"
     inkscape:window-x="-5"
     inkscape:window-y="0"
     inkscape:current-layer="svg2"
     showgrid="false" />
  <metadata
     id="metadata7">
    <rdf:RDF>
      <cc:Work
         rdf:about="">
        <dc:format>image/svg+xml</dc:format>
        <dc:type
           rdf:resource="http://purl.org/dc/dcmitype/StillImage" />
      </cc:Work>
    </rdf:RDF>
  </metadata>
  <g
     id="g3069"
     transform="matrix(1.884814,0,0,1.884814,11.04571,12.74137)">
    <g
       transform="translate(-24.28369,-0.453901)"
       id="g2989">
      <g
         style="fill:url(#linearGradient2871);fill-opacity:1;stroke:none;stroke-width:0;stroke-linecap:round;stroke-linejoin:round;stroke-miterlimit:4;stroke-dasharray:none;stroke-dashoffset:0;stroke-opacity:1"
         id="g2833"
         transform="matrix(0.967222,-0.253932,0,1,-30.82064,-14.78133)">
        <path
           style="fill:url(#linearGradient3089);stroke:none;stroke-width:0;stroke-miterlimit:4;stroke-dasharray:none"
           d="M 91.173129,55.128289 C 92.287727,56.063549 92.994089,57.46798 92.994089,59.043459 L 131.29631,91.182839 C 131.29631,89.607361 130.58995,88.202929 129.47535,87.26767 L 91.173129,55.128289 z "
           id="path2839" />
        <path
           style="fill:url(#linearGradient3091);stroke:none;stroke-width:0;stroke-miterlimit:4;stroke-dasharray:none"
           d="M 92.994089,59.043459 L 92.994089,130.28524 L 131.29631,162.42462 L 131.29631,91.182839 L 92.994089,59.043459 z "
           id="path2841" />
        <path
           style="fill:url(#linearGradient3093);stroke:none;stroke-width:0;stroke-miterlimit:4;stroke-dasharray:none"
           d="M 92.994089,130.28524 C 92.994089,133.11417 90.716642,135.39162 87.887706,135.39162 L 126.18993,167.531 C 129.01886,167.531 131.29631,165.25355 131.29631,162.42462 L 92.994089,130.28524 z "
           id="path2843" />
        <path
           style="fill:url(#linearGradient3095);stroke:none;stroke-width:0;stroke-miterlimit:4;stroke-dasharray:none"
           d="M 87.887706,135.39162 L 74.364218,135.39162 L 112.66644,167.531 L 126.18993,167.531 L 87.887706,135.39162 z "
           id="path2845" />
        <path
           style="fill:url(#linearGradient3097);stroke:none;stroke-width:0;stroke-miterlimit:4;stroke-dasharray:none"
           d="M 74.364218,135.39162 C 73.110761,135.39162 71.965575,134.9445 71.078796,134.20041 L 109.38102,166.33979 C 110.2678,167.08388 111.41298,167.531 112.66644,167.531 L 74.364218,135.39162 z "
           id="path2847" />
        <path
           style="fill:url(#linearGradient3099);stroke:none;stroke-width:0;stroke-miterlimit:4;stroke-dasharray:none"
           d="M 71.078796,134.20041 C 69.964197,133.26515 69.257835,131.86072 69.257835,130.28524 L 107.56006,162.42462 C 107.56006,164.0001 108.26642,165.40453 109.38102,166.33979 L 71.078796,134.20041 z "
           id="path2849" />
        <path
           style="fill:url(#linearGradient3101);stroke:none;stroke-width:0;stroke-miterlimit:4;stroke-dasharray:none"
           d="M 69.257835,130.28524 L 69.257835,59.043459 L 107.56006,91.182839 L 107.56006,162.42462 L 69.257835,130.28524 z "
           id="path2851" />
        <path
           style="fill:url(#linearGradient3103);stroke:none;stroke-width:0;stroke-miterlimit:4;stroke-dasharray:none"
           d="M 69.257835,59.043459 C 69.257835,56.214523 71.535282,53.937077 74.364218,53.937077 L 112.66644,86.076457 C 109.8375,86.076457 107.56006,88.353903 107.56006,91.182839 L 69.257835,59.043459 z "
           id="path2853" />
        <path
           style="fill:url(#linearGradient3105);stroke:none;stroke-width:0;stroke-miterlimit:4;stroke-dasharray:none"
           d="M 74.364218,53.937077 L 87.887706,53.937077 L 126.18993,86.076457 L 112.66644,86.076457 L 74.364218,53.937077 z "
           id="path2835" />
        <path
           style="fill:url(#linearGradient3107);stroke:none;stroke-width:0;stroke-miterlimit:4;stroke-dasharray:none"
           d="M 87.887706,53.937077 C 89.141163,53.937077 90.28635,54.384194 91.173129,55.128289 L 129.47535,87.26767 C 128.58857,86.523574 127.44339,86.076457 126.18993,86.076457 L 87.887706,53.937077 z "
           id="path2837" />
      </g>
      <path
         d="M 78.046006,42.46826 L 91.126216,39.034214 C 93.862426,38.315857 96.065226,40.014986 96.065226,42.843922 L 96.065226,114.0857 C 96.065226,116.91463 93.862426,119.7704 91.126216,120.48876 L 78.046006,123.92281 C 75.309796,124.64116 73.106996,122.94203 73.106996,120.1131 L 73.106996,48.871316 C 73.106996,46.04238 75.309796,43.186618 78.046006,42.46826 z "
         id="rect1873"
         style="fill:url(#linearGradient3109);fill-opacity:1;stroke:url(#linearGradient3111);stroke-width:0.29999998;stroke-linecap:round;stroke-linejoin:round;stroke-miterlimit:4;stroke-dasharray:none;stroke-dashoffset:0;stroke-opacity:1" />
      <path
         style="fill:url(#linearGradient3113);fill-opacity:1;stroke:url(#linearGradient3115);stroke-width:3;stroke-linecap:round;stroke-linejoin:round;stroke-miterlimit:4;stroke-dasharray:none;stroke-dashoffset:0;stroke-opacity:1"
         id="path3027"
         d="M 82.336984,51.065685 L 88.19694,49.527227 C 89.422766,49.205402 90.409624,49.966615 90.409624,51.233983 L 90.409624,83.150414 C 90.409624,84.417779 89.422766,85.697169 88.19694,86.018995 L 82.336984,87.55746 C 81.111158,87.87928 80.1243,87.11806 80.1243,85.850699 L 80.1243,53.934265 C 80.1243,52.666897 81.111158,51.387511 82.336984,51.065685 z " />
    </g>
    <g
       transform="matrix(0.951397,-0.307966,0.307966,0.951397,-58.60891,28.74362)"
       id="g3058">
      <path
         style="fill:none;fill-opacity:1;stroke:url(#radialGradient3117);stroke-width:6;stroke-linecap:round;stroke-linejoin:round;stroke-miterlimit:4;stroke-dashoffset:0;stroke-opacity:1"
         d="M 121.53192,14.978723 C 142.2652,14.978723 159.0922,31.80573 159.0922,52.539006 C 159.0922,73.272283 142.2652,90.09929 121.53192,90.09929"
         id="path3033"
         sodipodi:nodetypes="ccs" />
      <path
         sodipodi:nodetypes="ccs"
         id="path3050"
         d="M 122.78077,25.848465 C 137.07514,25.848465 148.67636,37.449688 148.67636,51.744053 C 148.67636,66.038419 137.07514,77.639643 122.78077,77.639643"
         style="fill:none;fill-opacity:1;stroke:url(#radialGradient3119);stroke-width:6;stroke-linecap:round;stroke-linejoin:round;stroke-miterlimit:4;stroke-dasharray:none;stroke-dashoffset:0;stroke-opacity:1" />
      <path
         style="fill:none;fill-opacity:1;stroke:url(#radialGradient3121);stroke-width:4.91026688;stroke-linecap:round;stroke-linejoin:round;stroke-miterlimit:4;stroke-dasharray:none;stroke-dashoffset:0;stroke-opacity:1"
         d="M 123.99305,37.942616 C 131.44337,37.942616 137.49001,43.989253 137.49001,51.439574 C 137.49001,58.889896 131.44337,64.936532 123.99305,64.936532"
         id="path3054"
         sodipodi:nodetypes="ccs" />
    </g>
  </g>
  <g
     inkscape:label="1. réteg"
     id="layer1"
     transform="translate(-5.1356738e-3,0.2292308)">
    <g
       transform="translate(-3.2850782,0.8910274)"
       id="g3612">
      <g
         style="font-size:12px;font-style:normal;font-weight:normal;fill:url(#linearGradient3290);fill-opacity:1;stroke:none;stroke-width:1px;stroke-linecap:butt;stroke-linejoin:miter;stroke-opacity:1;font-family:Bitstream Vera Sans"
         id="g2650">
        <path
           d="M 16.1875,-12.21875 L 12.09375,-12.1875 L 12.800857,-11.480393 L 16.894607,-11.511643 L 16.1875,-12.21875 z"
           id="path2652"
           style="fill:url(#linearGradient2551);fill-opacity:1" />
        <path
           d="M 12.09375,-12.1875 L 8.75,-3.4375 L 9.4571068,-2.7303932 L 12.800857,-11.480393 L 12.09375,-12.1875 z"
           id="path2654"
           style="fill:url(#linearGradient2553);fill-opacity:1" />
        <path
           d="M 14.75,-5.6875 L 15.53125,-3.46875 L 16.238357,-2.7616432 L 15.457107,-4.9803932 L 14.75,-5.6875 z"
           id="path2662"
           style="fill:url(#linearGradient2555);fill-opacity:1" />
        <path
           d="M 15.53125,-3.46875 L 15.53125,-3.4375 L 16.238357,-2.7303932 L 16.238357,-2.7616432 L 15.53125,-3.46875 z"
           id="path2664"
           style="fill:url(#linearGradient2557);fill-opacity:1" />
        <path
           d="M 17.92037,-11.519527 C 17.478803,-11.961094 16.896486,-12.233764 16.1875,-12.21875 L 16.894607,-11.511643 C 17.603593,-11.526657 18.185909,-11.253988 18.627477,-10.81242 L 17.92037,-11.519527 z"
           id="path2672"
           style="fill:url(#linearGradient2559);fill-opacity:1" />
        <path
           d="M 16.21875,-11.96875 C 16.818366,-11.965939 17.317195,-11.725944 17.700221,-11.342918 L 18.407328,-10.635811 C 18.024302,-11.018837 17.525473,-11.258832 16.925857,-11.261643 L 16.21875,-11.96875 z"
           id="path2674"
           style="fill:url(#linearGradient3598);fill-opacity:1" />
        <path
           d="M 17.700221,-11.342918 C 19.261676,-9.7814631 18.898615,-5.8429893 15.59375,-5.90625 L 16.300857,-5.1991432 C 19.605722,-5.1358825 19.968783,-9.0743563 18.407328,-10.635811 L 17.700221,-11.342918 z"
           id="path2676"
           style="fill:url(#linearGradient2561);fill-opacity:1" />
        <path
           d="M 15.59375,-5.90625 L 16.375,-3.71875 L 17.082107,-3.0116432 L 16.300857,-5.1991432 L 15.59375,-5.90625 z"
           id="path2678"
           style="fill:url(#linearGradient2563);fill-opacity:1" />
        <path
           d="M 16.375,-3.71875 L 15.71875,-3.71875 L 16.425857,-3.0116432 L 17.082107,-3.0116432 L 16.375,-3.71875 z"
           id="path2680"
           style="fill:url(#linearGradient2565);fill-opacity:1" />
        <path
           d="M 14.875,-5.96875 L 10.5625,-5.96875 L 11.269607,-5.2616432 L 15.582107,-5.2616432 L 14.875,-5.96875 z"
           id="path2684"
           style="fill:url(#linearGradient2567);fill-opacity:1" />
        <path
           d="M 10.5625,-5.96875 L 9.75,-3.75 L 10.457107,-3.0428932 L 11.269607,-5.2616432 L 10.5625,-5.96875 z"
           id="path2686"
           style="fill:url(#linearGradient2569);fill-opacity:1" />
        <path
           d="M 9.1875,-3.75 L 12.28125,-11.90625 L 12.988357,-11.199143 L 9.8946068,-3.0428932 L 9.1875,-3.75 z"
           id="path2690"
           style="fill:url(#linearGradient3594);fill-opacity:1" />
        <path
           d="M 10.8125,-5.6875 L 14.75,-5.6875 L 15.457107,-4.9803932 L 11.519607,-4.9803932 L 10.8125,-5.6875 z"
           id="path2660"
           style="fill:url(#linearGradient3608);fill-opacity:1" />
        <path
           d="M 15.71875,-3.71875 L 14.875,-5.96875 L 15.582107,-5.2616432 L 16.425857,-3.0116432 L 15.71875,-3.71875 z"
           id="path2682"
           style="fill:url(#linearGradient3610);fill-opacity:1" />
        <path
           d="M 9.75,-3.75 L 9.1875,-3.75 L 9.8946068,-3.0428932 L 10.457107,-3.0428932 L 9.75,-3.75 z"
           id="path2688"
           style="fill:url(#linearGradient2571);fill-opacity:1" />
        <path
           d="M 12.28125,-11.90625 L 16.21875,-11.96875 L 16.925857,-11.261643 L 12.988357,-11.199143 L 12.28125,-11.90625 z"
           id="path2692"
           style="fill:url(#linearGradient3596);fill-opacity:1" />
        <path
           d="M 13.59375,-11.375 L 15.4375,-6.4375 L 16.144607,-5.7303932 L 14.300857,-10.667893 L 13.59375,-11.375 z"
           id="path2694"
           style="fill:url(#linearGradient2573);fill-opacity:1" />
        <path
           d="M 17.29651,-10.694689 C 16.87154,-11.11966 16.292483,-11.392236 15.59375,-11.375 L 16.300857,-10.667893 C 16.99959,-10.685129 17.578646,-10.412554 18.003617,-9.9875826 L 17.29651,-10.694689 z"
           id="path2698"
           style="fill:url(#linearGradient2575);fill-opacity:1" />
        <path
           d="M 15.59375,-11.375 L 13.59375,-11.375 L 14.300857,-10.667893 L 16.300857,-10.667893 L 15.59375,-11.375 z"
           id="path2700"
           style="fill:url(#linearGradient2577);fill-opacity:1" />
        <path
           d="M 12.5,-11.25 L 10.71875,-6.375 L 11.425857,-5.6678932 L 13.207107,-10.542893 L 12.5,-11.25 z"
           id="path2702"
           style="fill:url(#linearGradient2579);fill-opacity:1" />
        <path
           d="M 10.71875,-6.375 L 14.71875,-6.3125 L 15.425857,-5.6053932 L 11.425857,-5.6678932 L 10.71875,-6.375 z"
           id="path2704"
           style="fill:url(#linearGradient2581);fill-opacity:1" />
        <path
           d="M 14.71875,-6.3125 L 12.96875,-11.25 L 13.675857,-10.542893 L 15.425857,-5.6053932 L 14.71875,-6.3125 z"
           id="path2706"
           style="fill:url(#linearGradient2583);fill-opacity:1" />
        <path
           d="M 12.96875,-11.25 L 12.5,-11.25 L 13.207107,-10.542893 L 13.675857,-10.542893 L 12.96875,-11.25 z"
           id="path2708"
           style="fill:url(#linearGradient2585);fill-opacity:1" />
        <path
           d="M 13.96875,-11.125 L 15.5625,-11.125 L 16.269607,-10.417893 L 14.675857,-10.417893 L 13.96875,-11.125 z"
           id="path2710"
           style="fill:url(#linearGradient2587);fill-opacity:1" />
        <path
           d="M 15.5625,-11.125 C 16.263236,-11.142285 16.807643,-10.897983 17.18911,-10.516516 L 17.896217,-9.8094094 C 17.51475,-10.190876 16.970342,-10.435179 16.269607,-10.417893 L 15.5625,-11.125 z"
           id="path2712"
           style="fill:url(#linearGradient2589);fill-opacity:1" />
        <path
           d="M 17.18911,-10.516516 C 18.415922,-9.2897044 17.957455,-6.644214 15.59375,-6.71875 L 16.300857,-6.0116432 C 18.664562,-5.9371073 19.123029,-8.5825976 17.896217,-9.8094094 L 17.18911,-10.516516 z"
           id="path2714"
           style="fill:url(#linearGradient3588);fill-opacity:1" />
        <path
           d="M 15.59375,-6.71875 L 13.96875,-11.125 L 14.675857,-10.417893 L 16.300857,-6.0116432 L 15.59375,-6.71875 z"
           id="path2716"
           style="fill:url(#linearGradient2591);fill-opacity:1" />
        <path
           d="M 15.4375,-6.4375 C 18.434536,-6.3628978 18.668368,-9.3228317 17.29651,-10.694689 L 18.003617,-9.9875826 C 19.375475,-8.6157249 19.141643,-5.655791 16.144607,-5.7303932 L 15.4375,-6.4375 z"
           id="path2696"
           style="fill:url(#linearGradient3590);fill-opacity:1" />
        <path
           d="M 11.15625,-6.65625 L 12.75,-11.03125 L 13.457107,-10.324143 L 11.863357,-5.9491432 L 11.15625,-6.65625 z"
           id="path2722"
           style="fill:url(#linearGradient3592);fill-opacity:1" />
        <path
           d="M 12.75,-11.03125 L 14.375,-6.65625 L 15.082107,-5.9491432 L 13.457107,-10.324143 L 12.75,-11.03125 z"
           id="path2718"
           style="fill:url(#linearGradient2593);fill-opacity:1" />
        <path
           d="M 14.375,-6.65625 L 11.15625,-6.65625 L 11.863357,-5.9491432 L 15.082107,-5.9491432 L 14.375,-6.65625 z"
           id="path2720"
           style="fill:url(#linearGradient2595);fill-opacity:1" />
        <path
           d="M 15.96875,-5.6875 C 19.235011,-5.6249782 19.618583,-9.8213136 17.92037,-11.519527 L 18.627477,-10.81242 C 20.32569,-9.1142068 19.942118,-4.9178714 16.675857,-4.9803932 L 15.96875,-5.6875 z"
           id="path2670"
           style="fill:url(#linearGradient3586);fill-opacity:1" />
        <path
           d="M 16.78125,-3.4375 L 15.96875,-5.6875 L 16.675857,-4.9803932 L 17.488357,-2.7303932 L 16.78125,-3.4375 z"
           id="path2668"
           style="fill:url(#linearGradient3600);fill-opacity:1" />
        <path
           d="M 15.53125,-3.4375 L 16.78125,-3.4375 L 17.488357,-2.7303932 L 16.238357,-2.7303932 L 15.53125,-3.4375 z"
           id="path2666"
           style="fill:url(#linearGradient3602);fill-opacity:1" />
        <path
           d="M 8.75,-3.4375 L 10,-3.4375 L 10.707107,-2.7303932 L 9.4571068,-2.7303932 L 8.75,-3.4375 z"
           id="path2656"
           style="fill:url(#linearGradient3604);fill-opacity:1" />
        <path
           d="M 10,-3.4375 L 10.8125,-5.6875 L 11.519607,-4.9803932 L 10.707107,-2.7303932 L 10,-3.4375 z"
           id="path2658"
           style="fill:url(#linearGradient3606);fill-opacity:1" />
      </g>
      <path
         style="font-size:12px;font-style:normal;font-weight:normal;fill:#333333;fill-opacity:1;stroke:none;stroke-width:1px;stroke-linecap:butt;stroke-linejoin:miter;stroke-opacity:1;font-family:Bitstream Vera Sans"
         d="M 16.1875,-12.175236 L 12.09375,-12.143986 L 8.7499996,-3.3939857 L 9.9999996,-3.3939857 L 10.8125,-5.6439857 L 14.75,-5.6439857 L 15.53125,-3.4252357 L 15.53125,-3.3939857 L 16.78125,-3.3939857 L 15.96875,-5.6439857 C 20.084301,-5.565207 19.623157,-12.247993 16.1875,-12.175236 z M 16.21875,-11.925236 C 19.262779,-11.910965 19.709301,-5.7839571 15.59375,-5.8627357 L 16.375,-3.6752357 L 15.71875,-3.6752357 L 14.875,-5.9252357 L 10.5625,-5.9252357 L 9.7499996,-3.7064857 L 9.1874996,-3.7064857 L 12.28125,-11.862736 L 16.21875,-11.925236 z M 13.59375,-11.331486 L 15.4375,-6.3939857 C 19.362951,-6.2962734 18.548077,-11.404362 15.59375,-11.331486 L 13.59375,-11.331486 z M 12.5,-11.206486 L 10.71875,-6.3314857 L 14.71875,-6.2689857 L 12.96875,-11.206486 L 12.5,-11.206486 z M 13.96875,-11.081486 L 15.5625,-11.081486 C 18.516827,-11.154362 18.69243,-6.5775234 15.59375,-6.6752357 L 13.96875,-11.081486 z M 12.75,-10.987736 L 14.375,-6.6127357 L 11.15625,-6.6127357 L 12.75,-10.987736 z"
         id="path2505" />
    </g>
  </g>
</svg>
