<?xml version="1.0" encoding="UTF-8" standalone="no"?>
<!-- Created with Inkscape (http://www.inkscape.org/) -->
<svg
   xmlns:dc="http://purl.org/dc/elements/1.1/"
   xmlns:cc="http://creativecommons.org/ns#"
   xmlns:rdf="http://www.w3.org/1999/02/22-rdf-syntax-ns#"
   xmlns:svg="http://www.w3.org/2000/svg"
   xmlns="http://www.w3.org/2000/svg"
   xmlns:xlink="http://www.w3.org/1999/xlink"
   xmlns:sodipodi="http://sodipodi.sourceforge.net/DTD/sodipodi-0.dtd"
   xmlns:inkscape="http://www.inkscape.org/namespaces/inkscape"
   id="svg2"
   sodipodi:version="0.32"
   inkscape:version="0.46"
   width="256"
   height="256"
   version="1.0"
   sodipodi:docname="server_35.svg"
   inkscape:output_extension="org.inkscape.output.svg.inkscape">
  <sodipodi:namedview
     inkscape:window-height="1025"
     inkscape:window-width="1680"
     inkscape:pageshadow="2"
     inkscape:pageopacity="0.0"
     guidetolerance="10.0"
     gridtolerance="10.0"
     objecttolerance="10.0"
     borderopacity="1.0"
     bordercolor="#666666"
     pagecolor="#ffffff"
     id="base"
     showgrid="false"
     inkscape:zoom="3.3984375"
     inkscape:cx="128"
     inkscape:cy="128"
     inkscape:window-x="-5"
     inkscape:window-y="0"
     inkscape:current-layer="svg2" />
  <metadata
     id="metadata7">
    <rdf:RDF>
      <cc:Work
         rdf:about="">
        <dc:format>image/svg+xml</dc:format>
        <dc:type
           rdf:resource="http://purl.org/dc/dcmitype/StillImage" />
      </cc:Work>
    </rdf:RDF>
  </metadata>
  <defs
     id="defs5">
    <linearGradient
       id="linearGradient5480">
      <stop
         style="stop-color:#000000;stop-opacity:0;"
         offset="0"
         id="stop5482" />
      <stop
         style="stop-color:#afafaf;stop-opacity:1"
         offset="1"
         id="stop5484" />
    </linearGradient>
    <linearGradient
       id="linearGradient3816">
      <stop
         style="stop-color:#a6a6a6;stop-opacity:1"
         offset="0"
         id="stop3818" />
      <stop
         id="stop3824"
         offset="0.13464859"
         style="stop-color:#494949;stop-opacity:1" />
      <stop
         style="stop-color:#535353;stop-opacity:1"
         offset="0.81174827"
         id="stop3826" />
      <stop
         style="stop-color:#afafaf;stop-opacity:1"
         offset="1"
         id="stop3820" />
    </linearGradient>
    <linearGradient
       id="linearGradient3715">
      <stop
         style="stop-color:#000000;stop-opacity:1"
         offset="0"
         id="stop3717" />
      <stop
         style="stop-color:#646464;stop-opacity:1;"
         offset="1"
         id="stop3719" />
    </linearGradient>
    <linearGradient
       id="linearGradient3697">
      <stop
         style="stop-color:#b0b7ff;stop-opacity:1;"
         offset="0"
         id="stop3699" />
      <stop
         style="stop-color:#001fff;stop-opacity:1;"
         offset="1"
         id="stop3701" />
    </linearGradient>
    <linearGradient
       id="linearGradient3661">
      <stop
         id="stop3663"
         offset="0"
         style="stop-color:#9c9c9c;stop-opacity:1;" />
      <stop
         id="stop3665"
         offset="1"
         style="stop-color:#343434;stop-opacity:1;" />
    </linearGradient>
    <linearGradient
       id="linearGradient3653">
      <stop
         id="stop3655"
         offset="0"
         style="stop-color:#737070;stop-opacity:1;" />
      <stop
         id="stop3657"
         offset="1"
         style="stop-color:#1b1b1b;stop-opacity:1;" />
    </linearGradient>
    <linearGradient
       inkscape:collect="always"
       id="linearGradient3536">
      <stop
         style="stop-color:#afafaf;stop-opacity:1;"
         offset="0"
         id="stop3538" />
      <stop
         style="stop-color:#505050;stop-opacity:1"
         offset="1"
         id="stop3540" />
    </linearGradient>
    <linearGradient
       id="linearGradient3528">
      <stop
         style="stop-color:#eaeaea;stop-opacity:1"
         offset="0"
         id="stop3530" />
      <stop
         style="stop-color:#000000;stop-opacity:1"
         offset="1"
         id="stop3532" />
    </linearGradient>
    <linearGradient
       inkscape:collect="always"
       id="linearGradient3518">
      <stop
         style="stop-color:#ffffff;stop-opacity:1"
         offset="0"
         id="stop3520" />
      <stop
         style="stop-color:#212121;stop-opacity:1"
         offset="1"
         id="stop3522" />
    </linearGradient>
    <linearGradient
       id="linearGradient3502">
      <stop
         id="stop3504"
         offset="0"
         style="stop-color:#000000;stop-opacity:1" />
      <stop
         id="stop3506"
         offset="1"
         style="stop-color:#afafaf;stop-opacity:1" />
    </linearGradient>
    <linearGradient
       id="linearGradient3170">
      <stop
         style="stop-color:#828282;stop-opacity:1;"
         offset="0"
         id="stop3172" />
      <stop
         style="stop-color:#ededed;stop-opacity:1;"
         offset="1"
         id="stop3174" />
    </linearGradient>
    <inkscape:perspective
       sodipodi:type="inkscape:persp3d"
       inkscape:vp_x="-128.91679 : 453.51251 : 1"
       inkscape:vp_y="6.1230318e-14 : 1000 : 0"
       inkscape:vp_z="776.9424 : 496.15957 : 1"
       inkscape:persp3d-origin="371.07163 : 375.17763 : 1"
       id="perspective9" />
    <linearGradient
       inkscape:collect="always"
       xlink:href="#linearGradient3170"
       id="linearGradient3176"
       x1="175.01486"
       y1="-138.20332"
       x2="216.66531"
       y2="127.79675"
       gradientUnits="userSpaceOnUse"
       spreadMethod="reflect"
       gradientTransform="matrix(0.9613214,0,1.9276992e-8,0.9676757,12.395894,-8.2888468)" />
    <linearGradient
       y2="127.79675"
       x2="216.66531"
       y1="-138.20332"
       x1="175.01486"
       spreadMethod="reflect"
       gradientTransform="matrix(0.8356622,0.4751922,0.8642013,-0.4353762,4.3486607,8.8811363)"
       gradientUnits="userSpaceOnUse"
       id="linearGradient3266"
       xlink:href="#linearGradient3170"
       inkscape:collect="always" />
    <linearGradient
       inkscape:collect="always"
       xlink:href="#linearGradient3170"
       id="linearGradient3482"
       gradientUnits="userSpaceOnUse"
       gradientTransform="matrix(0.8356622,0.4751922,0.8642013,-0.4353762,4.3486607,8.8811363)"
       spreadMethod="reflect"
       x1="175.01486"
       y1="-138.20332"
       x2="216.66531"
       y2="127.79675" />
    <linearGradient
       inkscape:collect="always"
       xlink:href="#linearGradient3170"
       id="linearGradient3487"
       gradientUnits="userSpaceOnUse"
       gradientTransform="matrix(0.8356622,0.4751922,0.8642013,-0.4353762,7.2754905,-3.8017912)"
       spreadMethod="reflect"
       x1="175.01486"
       y1="-138.20332"
       x2="216.66531"
       y2="127.79675" />
    <linearGradient
       inkscape:collect="always"
       xlink:href="#linearGradient3170"
       id="linearGradient3516"
       gradientUnits="userSpaceOnUse"
       gradientTransform="matrix(0.7345508,0.4176961,0.7596368,-0.3826976,28.144864,9.2889539)"
       spreadMethod="reflect"
       x1="175.01486"
       y1="-138.20332"
       x2="216.66531"
       y2="127.79675" />
    <linearGradient
       inkscape:collect="always"
       xlink:href="#linearGradient3518"
       id="linearGradient3524"
       x1="203.95494"
       y1="-29.539667"
       x2="224.4476"
       y2="97.560944"
       gradientUnits="userSpaceOnUse"
       spreadMethod="repeat" />
    <linearGradient
       inkscape:collect="always"
       xlink:href="#linearGradient3536"
       id="linearGradient3575"
       gradientUnits="userSpaceOnUse"
       gradientTransform="translate(5.6445737,143.31313)"
       x1="298.49084"
       y1="309.16141"
       x2="298.60654"
       y2="295.7973" />
    <linearGradient
       inkscape:collect="always"
       xlink:href="#linearGradient3528"
       id="linearGradient3577"
       gradientUnits="userSpaceOnUse"
       gradientTransform="translate(5.6445737,143.31313)"
       x1="262.07867"
       y1="309.02972"
       x2="262.19437"
       y2="295.29529" />
    <linearGradient
       inkscape:collect="always"
       xlink:href="#linearGradient3536"
       id="linearGradient3579"
       gradientUnits="userSpaceOnUse"
       gradientTransform="translate(5.644435,67.464583)"
       x1="298.49084"
       y1="309.16141"
       x2="298.60654"
       y2="295.7973" />
    <linearGradient
       inkscape:collect="always"
       xlink:href="#linearGradient3528"
       id="linearGradient3581"
       gradientUnits="userSpaceOnUse"
       gradientTransform="translate(5.644435,67.464583)"
       x1="262.07867"
       y1="309.02972"
       x2="262.19437"
       y2="295.29529" />
    <linearGradient
       inkscape:collect="always"
       xlink:href="#linearGradient3536"
       id="linearGradient3583"
       gradientUnits="userSpaceOnUse"
       gradientTransform="translate(5.6443937,105.38888)"
       x1="298.49084"
       y1="309.16141"
       x2="298.60654"
       y2="295.7973" />
    <linearGradient
       inkscape:collect="always"
       xlink:href="#linearGradient3528"
       id="linearGradient3585"
       gradientUnits="userSpaceOnUse"
       gradientTransform="translate(5.6443937,105.38888)"
       x1="262.07867"
       y1="309.02972"
       x2="262.19437"
       y2="295.29529" />
    <linearGradient
       inkscape:collect="always"
       xlink:href="#linearGradient3536"
       id="linearGradient3587"
       gradientUnits="userSpaceOnUse"
       gradientTransform="translate(5.6443858,-8.3840145)"
       x1="298.49084"
       y1="309.16141"
       x2="298.60654"
       y2="295.7973" />
    <linearGradient
       inkscape:collect="always"
       xlink:href="#linearGradient3528"
       id="linearGradient3589"
       gradientUnits="userSpaceOnUse"
       gradientTransform="translate(5.6443858,-8.3840145)"
       x1="262.07867"
       y1="309.02972"
       x2="262.19437"
       y2="295.29529" />
    <linearGradient
       inkscape:collect="always"
       xlink:href="#linearGradient3536"
       id="linearGradient3591"
       gradientUnits="userSpaceOnUse"
       gradientTransform="translate(5.6443734,29.540266)"
       x1="298.49084"
       y1="309.16141"
       x2="298.60654"
       y2="295.7973" />
    <linearGradient
       inkscape:collect="always"
       xlink:href="#linearGradient3528"
       id="linearGradient3593"
       gradientUnits="userSpaceOnUse"
       gradientTransform="translate(5.6443734,29.540266)"
       x1="262.07867"
       y1="309.02972"
       x2="262.19437"
       y2="295.29529" />
    <linearGradient
       inkscape:collect="always"
       xlink:href="#linearGradient3653"
       id="linearGradient3659"
       gradientUnits="userSpaceOnUse"
       gradientTransform="matrix(-0.8898844,-0.4561862,0,1,339.29283,6.7516483)"
       x1="298.49084"
       y1="309.16141"
       x2="298.60654"
       y2="295.7973" />
    <linearGradient
       inkscape:collect="always"
       xlink:href="#linearGradient3661"
       id="linearGradient3667"
       gradientUnits="userSpaceOnUse"
       gradientTransform="matrix(-0.8898844,-0.4561862,0,1,339.29283,6.7516483)"
       x1="262.07867"
       y1="309.02972"
       x2="262.19437"
       y2="295.29529" />
    <linearGradient
       inkscape:collect="always"
       xlink:href="#linearGradient3653"
       id="linearGradient3671"
       gradientUnits="userSpaceOnUse"
       gradientTransform="matrix(-0.8898844,-0.4561862,0,1,339.12702,46.975094)"
       x1="298.49084"
       y1="309.16141"
       x2="298.60654"
       y2="295.7973" />
    <linearGradient
       inkscape:collect="always"
       xlink:href="#linearGradient3661"
       id="linearGradient3673"
       gradientUnits="userSpaceOnUse"
       gradientTransform="matrix(-0.8898844,-0.4561862,0,1,339.12702,46.975094)"
       x1="262.07867"
       y1="309.02972"
       x2="262.19437"
       y2="295.29529" />
    <linearGradient
       inkscape:collect="always"
       xlink:href="#linearGradient3653"
       id="linearGradient3677"
       gradientUnits="userSpaceOnUse"
       gradientTransform="matrix(-0.8898844,-0.4561862,0,1,339.12702,82.774701)"
       x1="298.49084"
       y1="309.16141"
       x2="298.60654"
       y2="295.7973" />
    <linearGradient
       inkscape:collect="always"
       xlink:href="#linearGradient3661"
       id="linearGradient3679"
       gradientUnits="userSpaceOnUse"
       gradientTransform="matrix(-0.8898844,-0.4561862,0,1,339.12702,82.774701)"
       x1="262.07867"
       y1="309.02972"
       x2="262.19437"
       y2="295.29529" />
    <linearGradient
       inkscape:collect="always"
       xlink:href="#linearGradient3653"
       id="linearGradient3683"
       gradientUnits="userSpaceOnUse"
       gradientTransform="matrix(-0.8898844,-0.4561862,0,1,339.45864,123.1543)"
       x1="298.49084"
       y1="309.16141"
       x2="298.60654"
       y2="295.7973" />
    <linearGradient
       inkscape:collect="always"
       xlink:href="#linearGradient3661"
       id="linearGradient3685"
       gradientUnits="userSpaceOnUse"
       gradientTransform="matrix(-0.8898844,-0.4561862,0,1,339.45864,123.1543)"
       x1="262.07867"
       y1="309.02972"
       x2="262.19437"
       y2="295.29529" />
    <linearGradient
       inkscape:collect="always"
       xlink:href="#linearGradient3653"
       id="linearGradient3689"
       gradientUnits="userSpaceOnUse"
       gradientTransform="matrix(-0.8898844,-0.4561862,0,1,338.9612,161.09017)"
       x1="298.49084"
       y1="309.16141"
       x2="298.60654"
       y2="295.7973" />
    <linearGradient
       inkscape:collect="always"
       xlink:href="#linearGradient3661"
       id="linearGradient3691"
       gradientUnits="userSpaceOnUse"
       gradientTransform="matrix(-0.8898844,-0.4561862,0,1,338.9612,161.09017)"
       x1="262.07867"
       y1="309.02972"
       x2="262.19437"
       y2="295.29529" />
    <linearGradient
       inkscape:collect="always"
       xlink:href="#linearGradient3697"
       id="linearGradient3695"
       gradientUnits="userSpaceOnUse"
       gradientTransform="matrix(-0.870402,-0.4462366,-4.0804121e-2,0.8927775,341.57655,110.1135)"
       x1="269.18613"
       y1="302.1188"
       x2="269.30182"
       y2="309.53949"
       spreadMethod="reflect" />
    <linearGradient
       inkscape:collect="always"
       xlink:href="#linearGradient3697"
       id="linearGradient3711"
       gradientUnits="userSpaceOnUse"
       gradientTransform="matrix(-0.870402,-0.4462366,-4.0804121e-2,0.8927775,344.90501,36.416776)"
       spreadMethod="reflect"
       x1="269.18613"
       y1="302.1188"
       x2="269.30182"
       y2="309.53949" />
    <linearGradient
       inkscape:collect="always"
       xlink:href="#linearGradient3170"
       id="linearGradient3777"
       gradientUnits="userSpaceOnUse"
       gradientTransform="matrix(0.8356622,0.4751922,0.8642013,-0.4353762,4.3486607,8.8811363)"
       spreadMethod="reflect"
       x1="175.01486"
       y1="-138.20332"
       x2="216.66531"
       y2="127.79675" />
    <linearGradient
       inkscape:collect="always"
       id="linearGradient3387">
      <stop
         style="stop-color:#000000;stop-opacity:1;"
         offset="0"
         id="stop3389" />
      <stop
         style="stop-color:#ffffff;stop-opacity:1"
         offset="1"
         id="stop3391" />
    </linearGradient>
    <linearGradient
       inkscape:collect="always"
       id="linearGradient3369">
      <stop
         style="stop-color:#6465df;stop-opacity:1"
         offset="0"
         id="stop3371" />
      <stop
         style="stop-color:#ffffff;stop-opacity:1"
         offset="1"
         id="stop3373" />
    </linearGradient>
    <linearGradient
       id="linearGradient3578">
      <stop
         style="stop-color:#000000;stop-opacity:1;"
         offset="0"
         id="stop3580" />
      <stop
         style="stop-color:#fffcfc;stop-opacity:1;"
         offset="1"
         id="stop3582" />
    </linearGradient>
    <inkscape:perspective
       id="perspective2503"
       inkscape:persp3d-origin="128 : 85.333333 : 1"
       inkscape:vp_z="256 : 128 : 1"
       inkscape:vp_y="0 : 1000 : 0"
       inkscape:vp_x="0 : 128 : 1"
       sodipodi:type="inkscape:persp3d" />
    <linearGradient
       inkscape:collect="always"
       xlink:href="#linearGradient3578"
       id="linearGradient3584"
       x1="13.514812"
       y1="-7.4748664"
       x2="16.093008"
       y2="-7.4748664"
       gradientUnits="userSpaceOnUse"
       spreadMethod="reflect" />
    <linearGradient
       inkscape:collect="always"
       xlink:href="#linearGradient3369"
       id="linearGradient3375"
       x1="155.81395"
       y1="113.36433"
       x2="215.89148"
       y2="50.573639"
       gradientUnits="userSpaceOnUse"
       spreadMethod="reflect" />
    <linearGradient
       inkscape:collect="always"
       xlink:href="#linearGradient3387"
       id="linearGradient3393"
       x1="-81.182167"
       y1="145.67221"
       x2="-79.282944"
       y2="78.617943"
       gradientUnits="userSpaceOnUse" />
    <linearGradient
       inkscape:collect="always"
       xlink:href="#linearGradient3387"
       id="linearGradient3397"
       gradientUnits="userSpaceOnUse"
       x1="-81.182167"
       y1="145.67221"
       x2="-79.282944"
       y2="78.617943" />
    <linearGradient
       inkscape:collect="always"
       xlink:href="#linearGradient3369"
       id="linearGradient3403"
       gradientUnits="userSpaceOnUse"
       spreadMethod="reflect"
       x1="155.81395"
       y1="113.36433"
       x2="215.89148"
       y2="50.573639"
       gradientTransform="matrix(0.4584837,0,0,0.4584837,12.357625,81.058821)" />
    <inkscape:perspective
       sodipodi:type="inkscape:persp3d"
       inkscape:vp_x="0 : 128 : 1"
       inkscape:vp_y="0 : 1000 : 0"
       inkscape:vp_z="256 : 128 : 1"
       inkscape:persp3d-origin="128 : 85.333333 : 1"
       id="perspective6481" />
    <inkscape:perspective
       id="perspective2532"
       inkscape:persp3d-origin="372.04724 : 350.78739 : 1"
       inkscape:vp_z="744.09448 : 526.18109 : 1"
       inkscape:vp_y="0 : 1000 : 0"
       inkscape:vp_x="0 : 526.18109 : 1"
       sodipodi:type="inkscape:persp3d" />
    <linearGradient
       id="linearGradient5069">
      <stop
         id="stop5071"
         offset="0"
         style="stop-color:#161616;stop-opacity:1" />
      <stop
         id="stop5073"
         offset="1"
         style="stop-color:#939393;stop-opacity:1" />
    </linearGradient>
    <linearGradient
       id="linearGradient6513">
      <stop
         id="stop6515"
         offset="0"
         style="stop-color:#b9b9b9;stop-opacity:1;" />
      <stop
         id="stop6517"
         offset="1"
         style="stop-color:#000000;stop-opacity:1;" />
    </linearGradient>
    <linearGradient
       id="linearGradient6580">
      <stop
         id="stop6582"
         offset="0"
         style="stop-color:#121212;stop-opacity:1;" />
      <stop
         style="stop-color:#8e8e8e;stop-opacity:1"
         offset="0.97422642"
         id="stop6588" />
      <stop
         id="stop6584"
         offset="1"
         style="stop-color:#cccccc;stop-opacity:1" />
    </linearGradient>
    <linearGradient
       inkscape:collect="always"
       xlink:href="#linearGradient3816"
       id="linearGradient5438"
       gradientUnits="userSpaceOnUse"
       gradientTransform="matrix(0.8356622,0.4751922,0.8642013,-0.4353762,5.2311289,-3.8922836)"
       spreadMethod="reflect"
       x1="390.93042"
       y1="-346.36301"
       x2="454.36948"
       y2="-280.71118" />
    <linearGradient
       inkscape:collect="always"
       xlink:href="#linearGradient3170"
       id="linearGradient5440"
       gradientUnits="userSpaceOnUse"
       gradientTransform="matrix(0.8356622,0.4751922,0.8642013,-0.4353762,4.3486607,8.8811363)"
       spreadMethod="reflect"
       x1="175.01486"
       y1="-138.20332"
       x2="216.66531"
       y2="127.79675" />
    <linearGradient
       inkscape:collect="always"
       xlink:href="#linearGradient3715"
       id="linearGradient5443"
       gradientUnits="userSpaceOnUse"
       gradientTransform="matrix(0.8356622,0.4751922,0.8642013,-0.4353762,5.3242705,-2.3383757)"
       spreadMethod="reflect"
       x1="572.09296"
       y1="-389.52094"
       x2="395.98837"
       y2="-52.942364" />
    <linearGradient
       inkscape:collect="always"
       xlink:href="#linearGradient3715"
       id="linearGradient5446"
       gradientUnits="userSpaceOnUse"
       gradientTransform="matrix(0.8356622,0.4751922,0.8642013,-0.4353762,5.3242705,-2.3383757)"
       spreadMethod="reflect"
       x1="316.78494"
       y1="32.227787"
       x2="425.44662"
       y2="-99.070663" />
    <linearGradient
       inkscape:collect="always"
       xlink:href="#linearGradient3502"
       id="linearGradient5449"
       gradientUnits="userSpaceOnUse"
       gradientTransform="matrix(0.8356622,0.4751922,0.8642013,-0.4353762,5.3242705,-2.3383757)"
       spreadMethod="reflect"
       x1="175.01486"
       y1="-138.20332"
       x2="216.66531"
       y2="127.79675" />
    <linearGradient
       inkscape:collect="always"
       xlink:href="#linearGradient3502"
       id="linearGradient5452"
       gradientUnits="userSpaceOnUse"
       gradientTransform="matrix(0.8356622,0.4751922,0.8642013,-0.4353762,5.3242705,-2.3383757)"
       spreadMethod="reflect"
       x1="572.09296"
       y1="-389.52094"
       x2="395.98837"
       y2="-52.942364" />
    <linearGradient
       inkscape:collect="always"
       xlink:href="#linearGradient3502"
       id="linearGradient5455"
       gradientUnits="userSpaceOnUse"
       gradientTransform="matrix(0.8356622,0.4751922,0.8642013,-0.4353762,5.3242705,-2.3383757)"
       spreadMethod="reflect"
       x1="301.58466"
       y1="-274.60553"
       x2="312.522"
       y2="-262.66794" />
    <linearGradient
       inkscape:collect="always"
       xlink:href="#linearGradient3502"
       id="linearGradient5458"
       gradientUnits="userSpaceOnUse"
       gradientTransform="matrix(0.8356622,0.4751922,0.8642013,-0.4353762,5.3242705,-2.3383757)"
       spreadMethod="reflect"
       x1="449.89279"
       y1="-315.50433"
       x2="403.84549"
       y2="-358.75876" />
    <linearGradient
       inkscape:collect="always"
       xlink:href="#linearGradient3502"
       id="linearGradient5461"
       gradientUnits="userSpaceOnUse"
       gradientTransform="matrix(0.8356622,0.4751922,0.8642013,-0.4353762,5.3242705,-2.3383757)"
       spreadMethod="reflect"
       x1="476.29715"
       y1="-344.10687"
       x2="489.68295"
       y2="-330.56781" />
    <linearGradient
       inkscape:collect="always"
       xlink:href="#linearGradient3170"
       id="linearGradient5464"
       gradientUnits="userSpaceOnUse"
       gradientTransform="matrix(0.8356622,0.4751922,0.8642013,-0.4353762,5.3242705,-2.3383757)"
       spreadMethod="reflect"
       x1="175.01486"
       y1="-138.20332"
       x2="216.66531"
       y2="127.79675" />
    <linearGradient
       inkscape:collect="always"
       xlink:href="#linearGradient3170"
       id="linearGradient5467"
       gradientUnits="userSpaceOnUse"
       gradientTransform="matrix(0.8356622,0.4751922,0.8642013,-0.4353762,5.3242705,-2.3383757)"
       spreadMethod="reflect"
       x1="175.01486"
       y1="-138.20332"
       x2="216.66531"
       y2="127.79675" />
    <linearGradient
       inkscape:collect="always"
       xlink:href="#linearGradient3170"
       id="linearGradient5470"
       gradientUnits="userSpaceOnUse"
       gradientTransform="matrix(0.8356622,0.4751922,0.8642013,-0.4353762,5.3242705,-2.3383757)"
       spreadMethod="reflect"
       x1="175.01486"
       y1="-138.20332"
       x2="216.66531"
       y2="127.79675" />
    <linearGradient
       inkscape:collect="always"
       xlink:href="#linearGradient3170"
       id="linearGradient5473"
       gradientUnits="userSpaceOnUse"
       gradientTransform="matrix(0.8356622,0.4751922,0.8642013,-0.4353762,5.3242705,-2.3383757)"
       spreadMethod="reflect"
       x1="175.01486"
       y1="-138.20332"
       x2="216.66531"
       y2="127.79675" />
    <linearGradient
       inkscape:collect="always"
       xlink:href="#linearGradient3170"
       id="linearGradient5476"
       gradientUnits="userSpaceOnUse"
       gradientTransform="matrix(0.8356622,0.4751922,0.8642013,-0.4353762,5.3242705,-2.3383757)"
       spreadMethod="reflect"
       x1="175.01486"
       y1="-138.20332"
       x2="216.66531"
       y2="127.79675" />
    <linearGradient
       inkscape:collect="always"
       xlink:href="#linearGradient5480"
       id="linearGradient5486"
       gradientUnits="userSpaceOnUse"
       gradientTransform="matrix(0.8356622,0.4751922,0.8642013,-0.4353762,5.3242705,-2.3383757)"
       spreadMethod="reflect"
       x1="476.29715"
       y1="-344.10687"
       x2="489.68295"
       y2="-330.56781" />
    <filter
       inkscape:collect="always"
       id="filter5490">
      <feGaussianBlur
         inkscape:collect="always"
         stdDeviation="3.635047"
         id="feGaussianBlur5492" />
    </filter>
    <linearGradient
       gradientTransform="matrix(0.4584837,0,0,0.4584837,12.357625,81.058821)"
       y2="50.573639"
       x2="215.89148"
       y1="113.36433"
       x1="155.81395"
       spreadMethod="reflect"
       gradientUnits="userSpaceOnUse"
       id="linearGradient5991"
       xlink:href="#linearGradient3369"
       inkscape:collect="always" />
    <linearGradient
       y2="78.617943"
       x2="-79.282944"
       y1="145.67221"
       x1="-81.182167"
       gradientUnits="userSpaceOnUse"
       id="linearGradient5989"
       xlink:href="#linearGradient3387"
       inkscape:collect="always" />
    <linearGradient
       gradientUnits="userSpaceOnUse"
       y2="78.617943"
       x2="-79.282944"
       y1="145.67221"
       x1="-81.182167"
       id="linearGradient5987"
       xlink:href="#linearGradient3387"
       inkscape:collect="always" />
    <linearGradient
       spreadMethod="reflect"
       gradientUnits="userSpaceOnUse"
       y2="50.573639"
       x2="215.89148"
       y1="113.36433"
       x1="155.81395"
       id="linearGradient5985"
       xlink:href="#linearGradient3369"
       inkscape:collect="always" />
    <linearGradient
       y2="-7.4748664"
       x2="16.093008"
       y1="-7.4748664"
       x1="13.514812"
       spreadMethod="reflect"
       gradientUnits="userSpaceOnUse"
       id="linearGradient2595"
       xlink:href="#linearGradient3578"
       inkscape:collect="always" />
    <linearGradient
       y2="-7.4748664"
       x2="16.093008"
       y1="-7.4748664"
       x1="13.514812"
       spreadMethod="reflect"
       gradientUnits="userSpaceOnUse"
       id="linearGradient2593"
       xlink:href="#linearGradient3578"
       inkscape:collect="always" />
    <linearGradient
       y2="-7.4748664"
       x2="16.093008"
       y1="-7.4748664"
       x1="13.514812"
       spreadMethod="reflect"
       gradientUnits="userSpaceOnUse"
       id="linearGradient2591"
       xlink:href="#linearGradient3578"
       inkscape:collect="always" />
    <linearGradient
       y2="-7.4748664"
       x2="16.093008"
       y1="-7.4748664"
       x1="13.514812"
       spreadMethod="reflect"
       gradientUnits="userSpaceOnUse"
       id="linearGradient2589"
       xlink:href="#linearGradient3578"
       inkscape:collect="always" />
    <linearGradient
       y2="-7.4748664"
       x2="16.093008"
       y1="-7.4748664"
       x1="13.514812"
       spreadMethod="reflect"
       gradientUnits="userSpaceOnUse"
       id="linearGradient2587"
       xlink:href="#linearGradient3578"
       inkscape:collect="always" />
    <linearGradient
       y2="-7.4748664"
       x2="16.093008"
       y1="-7.4748664"
       x1="13.514812"
       spreadMethod="reflect"
       gradientUnits="userSpaceOnUse"
       id="linearGradient2585"
       xlink:href="#linearGradient3578"
       inkscape:collect="always" />
    <linearGradient
       y2="-7.4748664"
       x2="16.093008"
       y1="-7.4748664"
       x1="13.514812"
       spreadMethod="reflect"
       gradientUnits="userSpaceOnUse"
       id="linearGradient2583"
       xlink:href="#linearGradient3578"
       inkscape:collect="always" />
    <linearGradient
       y2="-7.4748664"
       x2="16.093008"
       y1="-7.4748664"
       x1="13.514812"
       spreadMethod="reflect"
       gradientUnits="userSpaceOnUse"
       id="linearGradient2581"
       xlink:href="#linearGradient3578"
       inkscape:collect="always" />
    <linearGradient
       y2="-7.4748664"
       x2="16.093008"
       y1="-7.4748664"
       x1="13.514812"
       spreadMethod="reflect"
       gradientUnits="userSpaceOnUse"
       id="linearGradient2579"
       xlink:href="#linearGradient3578"
       inkscape:collect="always" />
    <linearGradient
       y2="-7.4748664"
       x2="16.093008"
       y1="-7.4748664"
       x1="13.514812"
       spreadMethod="reflect"
       gradientUnits="userSpaceOnUse"
       id="linearGradient2577"
       xlink:href="#linearGradient3578"
       inkscape:collect="always" />
    <linearGradient
       y2="-7.4748664"
       x2="16.093008"
       y1="-7.4748664"
       x1="13.514812"
       spreadMethod="reflect"
       gradientUnits="userSpaceOnUse"
       id="linearGradient2575"
       xlink:href="#linearGradient3578"
       inkscape:collect="always" />
    <linearGradient
       y2="-7.4748664"
       x2="16.093008"
       y1="-7.4748664"
       x1="13.514812"
       spreadMethod="reflect"
       gradientUnits="userSpaceOnUse"
       id="linearGradient2573"
       xlink:href="#linearGradient3578"
       inkscape:collect="always" />
    <linearGradient
       y2="-7.4748664"
       x2="16.093008"
       y1="-7.4748664"
       x1="13.514812"
       spreadMethod="reflect"
       gradientUnits="userSpaceOnUse"
       id="linearGradient2571"
       xlink:href="#linearGradient3578"
       inkscape:collect="always" />
    <linearGradient
       y2="-7.4748664"
       x2="16.093008"
       y1="-7.4748664"
       x1="13.514812"
       spreadMethod="reflect"
       gradientUnits="userSpaceOnUse"
       id="linearGradient2569"
       xlink:href="#linearGradient3578"
       inkscape:collect="always" />
    <linearGradient
       y2="-7.4748664"
       x2="16.093008"
       y1="-7.4748664"
       x1="13.514812"
       spreadMethod="reflect"
       gradientUnits="userSpaceOnUse"
       id="linearGradient2567"
       xlink:href="#linearGradient3578"
       inkscape:collect="always" />
    <linearGradient
       y2="-7.4748664"
       x2="16.093008"
       y1="-7.4748664"
       x1="13.514812"
       spreadMethod="reflect"
       gradientUnits="userSpaceOnUse"
       id="linearGradient2565"
       xlink:href="#linearGradient3578"
       inkscape:collect="always" />
    <linearGradient
       y2="-7.4748664"
       x2="16.093008"
       y1="-7.4748664"
       x1="13.514812"
       spreadMethod="reflect"
       gradientUnits="userSpaceOnUse"
       id="linearGradient2563"
       xlink:href="#linearGradient3578"
       inkscape:collect="always" />
    <linearGradient
       y2="-7.4748664"
       x2="16.093008"
       y1="-7.4748664"
       x1="13.514812"
       spreadMethod="reflect"
       gradientUnits="userSpaceOnUse"
       id="linearGradient2561"
       xlink:href="#linearGradient3578"
       inkscape:collect="always" />
    <linearGradient
       y2="-7.4748664"
       x2="16.093008"
       y1="-7.4748664"
       x1="13.514812"
       spreadMethod="reflect"
       gradientUnits="userSpaceOnUse"
       id="linearGradient2559"
       xlink:href="#linearGradient3578"
       inkscape:collect="always" />
    <linearGradient
       y2="-7.4748664"
       x2="16.093008"
       y1="-7.4748664"
       x1="13.514812"
       spreadMethod="reflect"
       gradientUnits="userSpaceOnUse"
       id="linearGradient2557"
       xlink:href="#linearGradient3578"
       inkscape:collect="always" />
    <linearGradient
       y2="-7.4748664"
       x2="16.093008"
       y1="-7.4748664"
       x1="13.514812"
       spreadMethod="reflect"
       gradientUnits="userSpaceOnUse"
       id="linearGradient2555"
       xlink:href="#linearGradient3578"
       inkscape:collect="always" />
    <linearGradient
       y2="-7.4748664"
       x2="16.093008"
       y1="-7.4748664"
       x1="13.514812"
       spreadMethod="reflect"
       gradientUnits="userSpaceOnUse"
       id="linearGradient2553"
       xlink:href="#linearGradient3578"
       inkscape:collect="always" />
    <linearGradient
       y2="-7.4748664"
       x2="16.093008"
       y1="-7.4748664"
       x1="13.514812"
       spreadMethod="reflect"
       gradientUnits="userSpaceOnUse"
       id="linearGradient2551"
       xlink:href="#linearGradient3578"
       inkscape:collect="always" />
    <linearGradient
       y2="-7.4748664"
       x2="16.093008"
       y1="-2.2096405"
       x1="15.650429"
       spreadMethod="reflect"
       gradientUnits="userSpaceOnUse"
       id="linearGradient3610"
       xlink:href="#linearGradient3578"
       inkscape:collect="always" />
    <linearGradient
       y2="-7.4748664"
       x2="16.093008"
       y1="-6.4087667"
       x1="10.621114"
       spreadMethod="reflect"
       gradientUnits="userSpaceOnUse"
       id="linearGradient3608"
       xlink:href="#linearGradient3578"
       inkscape:collect="always" />
    <linearGradient
       y2="-1.5134122"
       x2="9.7181683"
       y1="-5.8865957"
       x1="11.186799"
       spreadMethod="reflect"
       gradientUnits="userSpaceOnUse"
       id="linearGradient3606"
       xlink:href="#linearGradient3578"
       inkscape:collect="always" />
    <linearGradient
       y2="-4.5158963"
       x2="12.916467"
       y1="-3.7543969"
       x1="7.7709298"
       spreadMethod="reflect"
       gradientUnits="userSpaceOnUse"
       id="linearGradient3604"
       xlink:href="#linearGradient3578"
       inkscape:collect="always" />
    <linearGradient
       y2="-3.7326398"
       x2="14.93988"
       y1="-2.2749119"
       x1="17.082983"
       spreadMethod="reflect"
       gradientUnits="userSpaceOnUse"
       id="linearGradient3602"
       xlink:href="#linearGradient3578"
       inkscape:collect="always" />
    <linearGradient
       y2="-1.9920692"
       x2="17.376678"
       y1="-6.2564669"
       x1="15.58174"
       spreadMethod="reflect"
       gradientUnits="userSpaceOnUse"
       id="linearGradient3600"
       xlink:href="#linearGradient3578"
       inkscape:collect="always" />
    <linearGradient
       y2="-7.4748664"
       x2="16.093008"
       y1="-10.977764"
       x1="16.691353"
       spreadMethod="reflect"
       gradientUnits="userSpaceOnUse"
       id="linearGradient3598"
       xlink:href="#linearGradient3578"
       inkscape:collect="always" />
    <linearGradient
       y2="-11.199143"
       x2="11.132382"
       y1="-11.39115"
       x1="16.386753"
       spreadMethod="reflect"
       gradientUnits="userSpaceOnUse"
       id="linearGradient3596"
       xlink:href="#linearGradient3578"
       inkscape:collect="always" />
    <linearGradient
       y2="-2.6882975"
       x2="8.6955833"
       y1="-11.586965"
       x1="12.035328"
       spreadMethod="reflect"
       gradientUnits="userSpaceOnUse"
       id="linearGradient3594"
       xlink:href="#linearGradient3578"
       inkscape:collect="always" />
    <linearGradient
       y2="-5.7778101"
       x2="11.371711"
       y1="-10.150993"
       x1="12.905613"
       spreadMethod="reflect"
       gradientUnits="userSpaceOnUse"
       id="linearGradient3592"
       xlink:href="#linearGradient3578"
       inkscape:collect="always" />
    <linearGradient
       y2="-6.9526954"
       x2="17.74655"
       y1="-5.9083529"
       x1="16.386753"
       spreadMethod="reflect"
       gradientUnits="userSpaceOnUse"
       id="linearGradient3590"
       xlink:href="#linearGradient3578"
       inkscape:collect="always" />
    <linearGradient
       y2="-8.018795"
       x2="17.07476"
       y1="-7.4748664"
       x1="13.514812"
       spreadMethod="reflect"
       gradientUnits="userSpaceOnUse"
       id="linearGradient3588"
       xlink:href="#linearGradient3578"
       inkscape:collect="always" />
    <linearGradient
       y2="-6.5828238"
       x2="18.616835"
       y1="-5.2121248"
       x1="16.908924"
       spreadMethod="reflect"
       gradientUnits="userSpaceOnUse"
       id="linearGradient3586"
       xlink:href="#linearGradient3578"
       inkscape:collect="always" />
    <linearGradient
       spreadMethod="reflect"
       gradientUnits="userSpaceOnUse"
       y2="-7.4748664"
       x2="16.093008"
       y1="-7.4748664"
       x1="13.514812"
       id="linearGradient5947"
       xlink:href="#linearGradient3578"
       inkscape:collect="always" />
    <inkscape:perspective
       sodipodi:type="inkscape:persp3d"
       inkscape:vp_x="0 : 128 : 1"
       inkscape:vp_y="0 : 1000 : 0"
       inkscape:vp_z="256 : 128 : 1"
       inkscape:persp3d-origin="128 : 85.333333 : 1"
       id="perspective5945" />
    <linearGradient
       id="linearGradient5939">
      <stop
         id="stop5941"
         offset="0"
         style="stop-color:#000000;stop-opacity:1;" />
      <stop
         id="stop5943"
         offset="1"
         style="stop-color:#fffcfc;stop-opacity:1;" />
    </linearGradient>
    <linearGradient
       inkscape:collect="always"
       xlink:href="#linearGradient3578"
       id="linearGradient6035"
       gradientUnits="userSpaceOnUse"
       spreadMethod="reflect"
       x1="13.514812"
       y1="-7.4748664"
       x2="16.093008"
       y2="-7.4748664" />
  </defs>
  <g
     id="g5494"
     transform="matrix(-0.5722783,0,0,0.5722783,234.35152,-10.598866)">
    <path
       sodipodi:nodetypes="cccccc"
       id="path5488"
       d="M 214.7929,293.66864 L 13.017751,393.66864 L 103.5503,448.69822 C 114.39038,455.77468 123.0748,456.38415 130.76923,454.02367 L 336.09467,352.24852 L 214.7929,293.66864 z"
       style="fill:#000000;fill-opacity:0.46875;fill-rule:evenodd;stroke:none;stroke-width:1px;stroke-linecap:butt;stroke-linejoin:miter;stroke-opacity:1;filter:url(#filter5490)" />
    <path
       style="fill:url(#linearGradient5476);fill-opacity:1;stroke:none;stroke-width:0.93000072;stroke-linejoin:round;stroke-miterlimit:4;stroke-opacity:1"
       d="M 322.93445,82.299977 C 322.93445,79.083115 320.67558,75.822364 316.13957,73.243004 L 316.13957,333.24301 C 320.67558,335.82237 322.93445,339.08312 322.93445,342.29998 L 322.93445,82.299977 z"
       id="path3424" />
    <path
       style="fill:url(#linearGradient5473);fill-opacity:1;stroke:none;stroke-width:0.93000072;stroke-linejoin:round;stroke-miterlimit:4;stroke-opacity:1"
       d="M 316.13957,73.243004 L 246.98641,33.919644 L 246.98641,293.91965 L 316.13957,333.24301 L 316.13957,73.243004 z"
       id="path3426" />
    <path
       style="fill:url(#linearGradient5470);fill-opacity:1;stroke:none;stroke-width:0.93000072;stroke-linejoin:round;stroke-miterlimit:4;stroke-opacity:1"
       d="M 246.98641,33.919644 C 237.75176,28.668434 222.67957,28.288784 213.19225,33.068394 L 213.19225,293.0684 C 222.67957,288.28879 237.75176,288.66844 246.98641,293.91965 L 246.98641,33.919644 z"
       id="path3428" />
    <path
       style="fill:url(#linearGradient5467);fill-opacity:1;stroke:none;stroke-width:0.93000072;stroke-linejoin:round;stroke-miterlimit:4;stroke-opacity:1"
       d="M 213.19225,33.068394 L 39.926322,120.35809 L 39.926322,380.35809 L 213.19225,293.0684 L 213.19225,33.068394 z"
       id="path3430" />
    <path
       style="fill:url(#linearGradient5464);fill-opacity:1;stroke:none;stroke-width:0.93000072;stroke-linejoin:round;stroke-miterlimit:4;stroke-opacity:1"
       d="M 39.926322,120.35809 C 35.099126,122.78999 32.675374,126.07509 32.675374,129.40729 L 32.675374,389.40729 C 32.675374,386.07509 35.099126,382.78999 39.926322,380.35809 L 39.926322,120.35809 z"
       id="path3432" />
    <path
       style="fill:url(#linearGradient5461);fill-opacity:1;stroke:none;stroke-width:0.93000072;stroke-linejoin:round;stroke-miterlimit:4;stroke-opacity:1"
       d="M 108.62341,177.78763 C 117.85806,183.03883 132.93025,183.41849 142.41757,178.63887 L 142.41757,438.63887 C 132.93025,443.41849 117.85806,443.03883 108.62341,437.78763 L 108.62341,177.78763 z"
       id="path3418" />
    <path
       style="fill:url(#linearGradient5458);fill-opacity:1;stroke:none;stroke-width:0.93000072;stroke-linejoin:round;stroke-miterlimit:4;stroke-opacity:1"
       d="M 39.470252,138.46427 L 108.62341,177.78763 L 108.62341,437.78763 L 39.470252,398.46427 L 39.470252,138.46427 z"
       id="path3416" />
    <path
       style="fill:url(#linearGradient5455);fill-opacity:1;stroke:none;stroke-width:0.93000072;stroke-linejoin:round;stroke-miterlimit:4;stroke-opacity:1"
       d="M 32.675374,129.40729 C 32.675374,132.62415 34.934244,135.88491 39.470252,138.46427 L 39.470252,398.46427 C 34.934244,395.88491 32.675374,392.62415 32.675374,389.40729 L 32.675374,129.40729 z"
       id="path3434" />
    <path
       style="fill:url(#linearGradient5452);fill-opacity:1;stroke:none;stroke-width:0.93000072;stroke-linejoin:round;stroke-miterlimit:4;stroke-opacity:1"
       d="M 142.41757,178.63887 L 315.6835,91.349178 L 315.6835,351.34918 L 142.41757,438.63887 L 142.41757,178.63887 z"
       id="path3420" />
    <path
       style="fill:url(#linearGradient5449);fill-opacity:1;stroke:none;stroke-width:0.93000072;stroke-linejoin:round;stroke-miterlimit:4;stroke-opacity:1"
       d="M 315.6835,91.349178 C 320.5107,88.917288 322.93445,85.632176 322.93445,82.299977 L 322.93445,342.29998 C 322.93445,345.63218 320.5107,348.91729 315.6835,351.34918 L 315.6835,91.349178 z"
       id="path3422" />
    <path
       id="path3713"
       d="M 142.41757,178.63887 L 315.6835,91.349178 L 315.6835,205.60593 L 144.21133,225.18106 L 142.41757,178.63887 z"
       style="fill:url(#linearGradient5446);fill-opacity:1;stroke:none;stroke-width:0.93000072;stroke-linejoin:round;stroke-miterlimit:4;stroke-opacity:1"
       sodipodi:nodetypes="ccccc" />
    <path
       id="path3723"
       d="M 232.55417,297.47568 L 315.6835,332.16188 L 315.6835,351.34918 L 142.41757,438.63887 L 142.41757,342.49615 L 232.55417,297.47568 z"
       style="fill:url(#linearGradient5443);fill-opacity:1;stroke:none;stroke-width:0.93000072;stroke-linejoin:round;stroke-miterlimit:4;stroke-opacity:1"
       sodipodi:nodetypes="cccccc" />
    <path
       style="fill:url(#linearGradient3487);fill-opacity:1;stroke:#888888;stroke-width:0.93000072;stroke-linejoin:round;stroke-miterlimit:4;stroke-opacity:1"
       d="M 41.42147,137.00086 L 110.57463,176.32422 C 119.80928,181.57542 134.88147,181.95508 144.36879,177.17546 L 317.63472,89.885759 C 327.12203,85.106149 327.32544,77.030789 318.09079,71.779589 L 248.93763,32.456229 C 239.70298,27.205019 224.63079,26.825369 215.14347,31.604979 L 41.87754,118.89468 C 32.39023,123.6743 32.18682,131.74965 41.42147,137.00086 z"
       id="path3264" />
    <path
       sodipodi:nodetypes="ccccccccc"
       style="fill:url(#linearGradient3516);fill-opacity:1;stroke:url(#linearGradient3524);stroke-width:4;stroke-linejoin:round;stroke-miterlimit:4;stroke-dasharray:none;stroke-opacity:1"
       d="M 53.657727,134.98437 L 115.08675,170.19287 C 123.20405,174.8087 140.3111,172.57007 148.65049,168.36877 L 300.95203,91.640736 C 309.29142,87.439432 313.0072,78.733441 304.8899,74.117609 L 243.46087,38.909111 C 235.34357,34.293278 219.20115,36.210363 210.86176,40.411667 L 58.560231,117.1397 C 50.220834,121.341 45.540428,130.36853 53.657727,134.98437 z"
       id="rect2398" />
    <g
       transform="translate(-2.283105,-12.785388)"
       id="g3568">
      <rect
         style="fill:url(#linearGradient3575);fill-opacity:1;stroke:url(#linearGradient3577);stroke-width:1.0600667;stroke-linejoin:round;stroke-miterlimit:4;stroke-dasharray:none;stroke-opacity:1"
         id="rect3526"
         width="174.8744"
         height="9.5505619"
         x="174.20581"
         y="440.77026"
         ry="4.775281"
         transform="matrix(0.8898844,-0.4561862,0,1,0,0)" />
      <rect
         transform="matrix(0.8898844,-0.4561862,0,1,0,0)"
         ry="4.775281"
         y="364.92166"
         x="174.20575"
         height="9.5505619"
         width="174.87454"
         id="rect3544"
         style="fill:url(#linearGradient3579);fill-opacity:1;stroke:url(#linearGradient3581);stroke-width:1.0600667;stroke-linejoin:round;stroke-miterlimit:4;stroke-dasharray:none;stroke-opacity:1" />
      <rect
         style="fill:url(#linearGradient3583);fill-opacity:1;stroke:url(#linearGradient3585);stroke-width:1.0600667;stroke-linejoin:round;stroke-miterlimit:4;stroke-dasharray:none;stroke-opacity:1"
         id="rect3550"
         width="174.87456"
         height="9.5505619"
         x="174.20575"
         y="402.84598"
         ry="4.775281"
         transform="matrix(0.8898844,-0.4561862,0,1,0,0)" />
      <rect
         transform="matrix(0.8898844,-0.4561862,0,1,0,0)"
         ry="4.775281"
         y="289.07309"
         x="174.20573"
         height="9.5505619"
         width="174.87457"
         id="rect3556"
         style="fill:url(#linearGradient3587);fill-opacity:1;stroke:url(#linearGradient3589);stroke-width:1.0600667;stroke-linejoin:round;stroke-miterlimit:4;stroke-dasharray:none;stroke-opacity:1" />
      <rect
         style="fill:url(#linearGradient3591);fill-opacity:1;stroke:url(#linearGradient3593);stroke-width:1.0600667;stroke-linejoin:round;stroke-miterlimit:4;stroke-dasharray:none;stroke-opacity:1"
         id="rect3562"
         width="174.87459"
         height="9.5505619"
         x="174.20573"
         y="326.99738"
         ry="4.775281"
         transform="matrix(0.8898844,-0.4561862,0,1,0,0)" />
    </g>
    <path
       sodipodi:nodetypes="ccccccccc"
       id="rect3603"
       d="M 136.61135,186.43383 C 126.30645,191.47786 118.83999,192.64211 108.93928,187.71242 L 37.223502,149.7857 C 35.257343,148.77777 33.67448,149.74507 33.67448,151.95452 L 33.67448,153.10034 C 33.67448,155.3098 35.257343,157.89996 37.223502,158.90789 L 110.41325,198.06292 C 118.00541,202.46816 130.28433,201.9947 137.59399,196.29301 C 145.48269,192.38704 142.17584,183.29557 136.61135,186.43383 z"
       style="fill:url(#linearGradient3659);fill-opacity:1;stroke:url(#linearGradient3667);stroke-width:1;stroke-linejoin:round;stroke-miterlimit:4;stroke-opacity:1" />
    <path
       style="fill:url(#linearGradient3671);fill-opacity:1;stroke:url(#linearGradient3673);stroke-width:1;stroke-linejoin:round;stroke-miterlimit:4;stroke-opacity:1"
       d="M 136.44554,226.65728 C 126.14064,231.70131 118.67418,232.86556 108.77347,227.93587 L 37.057688,190.00915 C 35.091529,189.00122 33.508666,189.96852 33.508666,192.17797 L 33.508666,193.32379 C 33.508666,195.53325 35.091529,198.12341 37.057688,199.13134 L 110.24744,238.28637 C 117.8396,242.69161 130.11852,242.21815 137.42818,236.51646 C 145.31688,232.61049 142.01003,223.51902 136.44554,226.65728 z"
       id="path3669"
       sodipodi:nodetypes="ccccccccc" />
    <path
       sodipodi:nodetypes="ccccccccc"
       id="path3675"
       d="M 136.44554,262.45689 C 126.14064,267.50092 118.67418,268.66517 108.77347,263.73548 L 37.057688,225.80876 C 35.091529,224.80083 33.508666,225.76813 33.508666,227.97758 L 33.508666,229.1234 C 33.508666,231.33286 35.091529,233.92302 37.057688,234.93095 L 110.24744,274.08598 C 117.8396,278.49122 130.11852,278.01776 137.42818,272.31607 C 145.31688,268.4101 142.01003,259.31863 136.44554,262.45689 z"
       style="fill:url(#linearGradient3677);fill-opacity:1;stroke:url(#linearGradient3679);stroke-width:1;stroke-linejoin:round;stroke-miterlimit:4;stroke-opacity:1" />
    <path
       style="fill:url(#linearGradient3683);fill-opacity:1;stroke:url(#linearGradient3685);stroke-width:1;stroke-linejoin:round;stroke-miterlimit:4;stroke-opacity:1"
       d="M 136.77716,302.83648 C 126.47226,307.88051 119.0058,309.04476 109.10509,304.11507 L 37.389316,266.18835 C 35.423157,265.18042 33.840294,266.14772 33.840294,268.35717 L 33.840294,269.50299 C 33.840294,271.71245 35.423157,274.30261 37.389316,275.31054 L 110.57906,314.46557 C 118.17122,318.87081 130.45014,318.39735 137.7598,312.69566 C 145.6485,308.78969 142.34165,299.69822 136.77716,302.83648 z"
       id="path3681"
       sodipodi:nodetypes="ccccccccc" />
    <path
       sodipodi:nodetypes="ccccccccc"
       id="path3687"
       d="M 136.27972,340.77235 C 125.97482,345.81638 118.50836,346.98063 108.60765,342.05094 L 36.891875,304.12422 C 34.925716,303.11629 33.342853,304.08359 33.342853,306.29304 L 33.342853,307.43886 C 33.342853,309.64832 34.925716,312.23848 36.891875,313.24641 L 110.08162,352.40144 C 117.67378,356.80668 129.9527,356.33322 137.26236,350.63153 C 145.15106,346.72556 141.84421,337.63409 136.27972,340.77235 z"
       style="fill:url(#linearGradient3689);fill-opacity:1;stroke:url(#linearGradient3691);stroke-width:1;stroke-linejoin:round;stroke-miterlimit:4;stroke-opacity:1" />
    <path
       sodipodi:nodetypes="ccccc"
       id="path3693"
       d="M 104.06379,261.58512 L 69.906936,243.35508 C 66.494801,241.82312 62.733715,248.32269 69.35365,251.80965 L 105.11397,270.89035 C 111.80816,274.4939 112.13243,264.72612 104.06379,261.58512 z"
       style="fill:url(#linearGradient3695);fill-opacity:1;stroke:none;stroke-width:1;stroke-linejoin:round;stroke-miterlimit:4;stroke-opacity:1" />
    <path
       style="fill:url(#linearGradient3711);fill-opacity:1;stroke:none;stroke-width:1;stroke-linejoin:round;stroke-miterlimit:4;stroke-opacity:1"
       d="M 107.39225,187.8884 L 73.235406,169.65836 C 69.823271,168.1264 66.062185,174.62597 72.68212,178.11293 L 108.44243,197.19363 C 115.13662,200.79718 115.46089,191.0294 107.39225,187.8884 z"
       id="path3709"
       sodipodi:nodetypes="ccccc" />
    <path
       id="path5478"
       d="M 108.62341,177.78763 C 117.85806,183.03883 132.93025,183.41849 142.41757,178.63887 L 142.41757,438.63887 C 132.93025,443.41849 117.85806,443.03883 108.62341,437.78763 L 108.62341,177.78763 z"
       style="fill:url(#linearGradient5486);fill-opacity:1;stroke:none;stroke-width:0.93000072;stroke-linejoin:round;stroke-miterlimit:4;stroke-opacity:1" />
  </g>
  <g
     inkscape:label="1. rteg"
     id="layer1"
     transform="translate(1.618468,-1.6138905)">
    <g
       id="g2637">
      <g
         id="g3612"
         transform="translate(-2.5722563,0)">
        <g
           id="g2650"
           style="font-size:12px;font-style:normal;font-weight:normal;fill:url(#linearGradient6035);fill-opacity:1;stroke:none;stroke-width:1px;stroke-linecap:butt;stroke-linejoin:miter;stroke-opacity:1;font-family:Bitstream Vera Sans">
          <path
             style="fill:url(#linearGradient2551);fill-opacity:1"
             id="path2652"
             d="M 16.1875,-12.21875 L 12.09375,-12.1875 L 12.800857,-11.480393 L 16.894607,-11.511643 L 16.1875,-12.21875 z" />
          <path
             style="fill:url(#linearGradient2553);fill-opacity:1"
             id="path2654"
             d="M 12.09375,-12.1875 L 8.75,-3.4375 L 9.4571068,-2.7303932 L 12.800857,-11.480393 L 12.09375,-12.1875 z" />
          <path
             style="fill:url(#linearGradient2555);fill-opacity:1"
             id="path2662"
             d="M 14.75,-5.6875 L 15.53125,-3.46875 L 16.238357,-2.7616432 L 15.457107,-4.9803932 L 14.75,-5.6875 z" />
          <path
             style="fill:url(#linearGradient2557);fill-opacity:1"
             id="path2664"
             d="M 15.53125,-3.46875 L 15.53125,-3.4375 L 16.238357,-2.7303932 L 16.238357,-2.7616432 L 15.53125,-3.46875 z" />
          <path
             style="fill:url(#linearGradient2559);fill-opacity:1"
             id="path2672"
             d="M 17.92037,-11.519527 C 17.478803,-11.961094 16.896486,-12.233764 16.1875,-12.21875 L 16.894607,-11.511643 C 17.603593,-11.526657 18.185909,-11.253988 18.627477,-10.81242 L 17.92037,-11.519527 z" />
          <path
             style="fill:url(#linearGradient3598);fill-opacity:1"
             id="path2674"
             d="M 16.21875,-11.96875 C 16.818366,-11.965939 17.317195,-11.725944 17.700221,-11.342918 L 18.407328,-10.635811 C 18.024302,-11.018837 17.525473,-11.258832 16.925857,-11.261643 L 16.21875,-11.96875 z" />
          <path
             style="fill:url(#linearGradient2561);fill-opacity:1"
             id="path2676"
             d="M 17.700221,-11.342918 C 19.261676,-9.7814631 18.898615,-5.8429893 15.59375,-5.90625 L 16.300857,-5.1991432 C 19.605722,-5.1358825 19.968783,-9.0743563 18.407328,-10.635811 L 17.700221,-11.342918 z" />
          <path
             style="fill:url(#linearGradient2563);fill-opacity:1"
             id="path2678"
             d="M 15.59375,-5.90625 L 16.375,-3.71875 L 17.082107,-3.0116432 L 16.300857,-5.1991432 L 15.59375,-5.90625 z" />
          <path
             style="fill:url(#linearGradient2565);fill-opacity:1"
             id="path2680"
             d="M 16.375,-3.71875 L 15.71875,-3.71875 L 16.425857,-3.0116432 L 17.082107,-3.0116432 L 16.375,-3.71875 z" />
          <path
             style="fill:url(#linearGradient2567);fill-opacity:1"
             id="path2684"
             d="M 14.875,-5.96875 L 10.5625,-5.96875 L 11.269607,-5.2616432 L 15.582107,-5.2616432 L 14.875,-5.96875 z" />
          <path
             style="fill:url(#linearGradient2569);fill-opacity:1"
             id="path2686"
             d="M 10.5625,-5.96875 L 9.75,-3.75 L 10.457107,-3.0428932 L 11.269607,-5.2616432 L 10.5625,-5.96875 z" />
          <path
             style="fill:url(#linearGradient3594);fill-opacity:1"
             id="path2690"
             d="M 9.1875,-3.75 L 12.28125,-11.90625 L 12.988357,-11.199143 L 9.8946068,-3.0428932 L 9.1875,-3.75 z" />
          <path
             style="fill:url(#linearGradient3608);fill-opacity:1"
             id="path2660"
             d="M 10.8125,-5.6875 L 14.75,-5.6875 L 15.457107,-4.9803932 L 11.519607,-4.9803932 L 10.8125,-5.6875 z" />
          <path
             style="fill:url(#linearGradient3610);fill-opacity:1"
             id="path2682"
             d="M 15.71875,-3.71875 L 14.875,-5.96875 L 15.582107,-5.2616432 L 16.425857,-3.0116432 L 15.71875,-3.71875 z" />
          <path
             style="fill:url(#linearGradient2571);fill-opacity:1"
             id="path2688"
             d="M 9.75,-3.75 L 9.1875,-3.75 L 9.8946068,-3.0428932 L 10.457107,-3.0428932 L 9.75,-3.75 z" />
          <path
             style="fill:url(#linearGradient3596);fill-opacity:1"
             id="path2692"
             d="M 12.28125,-11.90625 L 16.21875,-11.96875 L 16.925857,-11.261643 L 12.988357,-11.199143 L 12.28125,-11.90625 z" />
          <path
             style="fill:url(#linearGradient2573);fill-opacity:1"
             id="path2694"
             d="M 13.59375,-11.375 L 15.4375,-6.4375 L 16.144607,-5.7303932 L 14.300857,-10.667893 L 13.59375,-11.375 z" />
          <path
             style="fill:url(#linearGradient2575);fill-opacity:1"
             id="path2698"
             d="M 17.29651,-10.694689 C 16.87154,-11.11966 16.292483,-11.392236 15.59375,-11.375 L 16.300857,-10.667893 C 16.99959,-10.685129 17.578646,-10.412554 18.003617,-9.9875826 L 17.29651,-10.694689 z" />
          <path
             style="fill:url(#linearGradient2577);fill-opacity:1"
             id="path2700"
             d="M 15.59375,-11.375 L 13.59375,-11.375 L 14.300857,-10.667893 L 16.300857,-10.667893 L 15.59375,-11.375 z" />
          <path
             style="fill:url(#linearGradient2579);fill-opacity:1"
             id="path2702"
             d="M 12.5,-11.25 L 10.71875,-6.375 L 11.425857,-5.6678932 L 13.207107,-10.542893 L 12.5,-11.25 z" />
          <path
             style="fill:url(#linearGradient2581);fill-opacity:1"
             id="path2704"
             d="M 10.71875,-6.375 L 14.71875,-6.3125 L 15.425857,-5.6053932 L 11.425857,-5.6678932 L 10.71875,-6.375 z" />
          <path
             style="fill:url(#linearGradient2583);fill-opacity:1"
             id="path2706"
             d="M 14.71875,-6.3125 L 12.96875,-11.25 L 13.675857,-10.542893 L 15.425857,-5.6053932 L 14.71875,-6.3125 z" />
          <path
             style="fill:url(#linearGradient2585);fill-opacity:1"
             id="path2708"
             d="M 12.96875,-11.25 L 12.5,-11.25 L 13.207107,-10.542893 L 13.675857,-10.542893 L 12.96875,-11.25 z" />
          <path
             style="fill:url(#linearGradient2587);fill-opacity:1"
             id="path2710"
             d="M 13.96875,-11.125 L 15.5625,-11.125 L 16.269607,-10.417893 L 14.675857,-10.417893 L 13.96875,-11.125 z" />
          <path
             style="fill:url(#linearGradient2589);fill-opacity:1"
             id="path2712"
             d="M 15.5625,-11.125 C 16.263236,-11.142285 16.807643,-10.897983 17.18911,-10.516516 L 17.896217,-9.8094094 C 17.51475,-10.190876 16.970342,-10.435179 16.269607,-10.417893 L 15.5625,-11.125 z" />
          <path
             style="fill:url(#linearGradient3588);fill-opacity:1"
             id="path2714"
             d="M 17.18911,-10.516516 C 18.415922,-9.2897044 17.957455,-6.644214 15.59375,-6.71875 L 16.300857,-6.0116432 C 18.664562,-5.9371073 19.123029,-8.5825976 17.896217,-9.8094094 L 17.18911,-10.516516 z" />
          <path
             style="fill:url(#linearGradient2591);fill-opacity:1"
             id="path2716"
             d="M 15.59375,-6.71875 L 13.96875,-11.125 L 14.675857,-10.417893 L 16.300857,-6.0116432 L 15.59375,-6.71875 z" />
          <path
             style="fill:url(#linearGradient3590);fill-opacity:1"
             id="path2696"
             d="M 15.4375,-6.4375 C 18.434536,-6.3628978 18.668368,-9.3228317 17.29651,-10.694689 L 18.003617,-9.9875826 C 19.375475,-8.6157249 19.141643,-5.655791 16.144607,-5.7303932 L 15.4375,-6.4375 z" />
          <path
             style="fill:url(#linearGradient3592);fill-opacity:1"
             id="path2722"
             d="M 11.15625,-6.65625 L 12.75,-11.03125 L 13.457107,-10.324143 L 11.863357,-5.9491432 L 11.15625,-6.65625 z" />
          <path
             style="fill:url(#linearGradient2593);fill-opacity:1"
             id="path2718"
             d="M 12.75,-11.03125 L 14.375,-6.65625 L 15.082107,-5.9491432 L 13.457107,-10.324143 L 12.75,-11.03125 z" />
          <path
             style="fill:url(#linearGradient2595);fill-opacity:1"
             id="path2720"
             d="M 14.375,-6.65625 L 11.15625,-6.65625 L 11.863357,-5.9491432 L 15.082107,-5.9491432 L 14.375,-6.65625 z" />
          <path
             style="fill:url(#linearGradient3586);fill-opacity:1"
             id="path2670"
             d="M 15.96875,-5.6875 C 19.235011,-5.6249782 19.618583,-9.8213136 17.92037,-11.519527 L 18.627477,-10.81242 C 20.32569,-9.1142068 19.942118,-4.9178714 16.675857,-4.9803932 L 15.96875,-5.6875 z" />
          <path
             style="fill:url(#linearGradient3600);fill-opacity:1"
             id="path2668"
             d="M 16.78125,-3.4375 L 15.96875,-5.6875 L 16.675857,-4.9803932 L 17.488357,-2.7303932 L 16.78125,-3.4375 z" />
          <path
             style="fill:url(#linearGradient3602);fill-opacity:1"
             id="path2666"
             d="M 15.53125,-3.4375 L 16.78125,-3.4375 L 17.488357,-2.7303932 L 16.238357,-2.7303932 L 15.53125,-3.4375 z" />
          <path
             style="fill:url(#linearGradient3604);fill-opacity:1"
             id="path2656"
             d="M 8.75,-3.4375 L 10,-3.4375 L 10.707107,-2.7303932 L 9.4571068,-2.7303932 L 8.75,-3.4375 z" />
          <path
             style="fill:url(#linearGradient3606);fill-opacity:1"
             id="path2658"
             d="M 10,-3.4375 L 10.8125,-5.6875 L 11.519607,-4.9803932 L 10.707107,-2.7303932 L 10,-3.4375 z" />
        </g>
        <path
           id="path2505"
           d="M 16.1875,-12.175236 L 12.09375,-12.143986 L 8.7499996,-3.3939857 L 9.9999996,-3.3939857 L 10.8125,-5.6439857 L 14.75,-5.6439857 L 15.53125,-3.4252357 L 15.53125,-3.3939857 L 16.78125,-3.3939857 L 15.96875,-5.6439857 C 20.084301,-5.565207 19.623157,-12.247993 16.1875,-12.175236 z M 16.21875,-11.925236 C 19.262779,-11.910965 19.709301,-5.7839571 15.59375,-5.8627357 L 16.375,-3.6752357 L 15.71875,-3.6752357 L 14.875,-5.9252357 L 10.5625,-5.9252357 L 9.7499996,-3.7064857 L 9.1874996,-3.7064857 L 12.28125,-11.862736 L 16.21875,-11.925236 z M 13.59375,-11.331486 L 15.4375,-6.3939857 C 19.362951,-6.2962734 18.548077,-11.404362 15.59375,-11.331486 L 13.59375,-11.331486 z M 12.5,-11.206486 L 10.71875,-6.3314857 L 14.71875,-6.2689857 L 12.96875,-11.206486 L 12.5,-11.206486 z M 13.96875,-11.081486 L 15.5625,-11.081486 C 18.516827,-11.154362 18.69243,-6.5775234 15.59375,-6.6752357 L 13.96875,-11.081486 z M 12.75,-10.987736 L 14.375,-6.6127357 L 11.15625,-6.6127357 L 12.75,-10.987736 z"
           style="font-size:12px;font-style:normal;font-weight:normal;fill:#333333;fill-opacity:1;stroke:none;stroke-width:1px;stroke-linecap:butt;stroke-linejoin:miter;stroke-opacity:1;font-family:Bitstream Vera Sans" />
      </g>
      <path
         id="text2170"
         d="M 6.0871491,-4.0239012 C 6.0766271,-4.0350472 6.0650871,-4.0430982 6.0525291,-4.0480532 C 6.0403101,-4.0536252 6.0267331,-4.0564122 6.0117991,-4.0564132 C 5.9588511,-4.0564122 5.9181211,-4.0248292 5.8896111,-3.9616652 C 5.8614391,-3.8991182 5.8473541,-3.8090152 5.8473541,-3.6913552 L 5.8473541,-3.1433032 L 5.7531671,-3.1433032 L 5.7531671,-4.1836722 L 5.8473541,-4.1836722 L 5.8473541,-4.0220442 C 5.8670401,-4.0852082 5.8926651,-4.1319622 5.9242311,-4.1623082 C 5.9557961,-4.1932692 5.9941491,-4.2087522 6.0392921,-4.2087532 C 6.0457401,-4.2087522 6.0528681,-4.2078222 6.0606751,-4.2059662 C 6.0684811,-4.2047262 6.0771361,-4.2025592 6.0866401,-4.1994642 L 6.0871491,-4.0239012 M 6.3849841,-4.0638442 C 6.3347511,-4.0638432 6.2950401,-4.0279262 6.2658501,-3.9560922 C 6.2366611,-3.8848752 6.2220661,-3.7870312 6.2220661,-3.6625592 C 6.2220661,-3.5380862 6.2364911,-3.4399322 6.2653411,-3.3680972 C 6.2945301,-3.2968812 6.3344111,-3.2612732 6.3849841,-3.2612732 C 6.4348791,-3.2612732 6.4744201,-3.2971912 6.5036101,-3.3690262 C 6.5327991,-3.4408612 6.5473941,-3.5387052 6.5473941,-3.6625592 C 6.5473941,-3.7857922 6.5327991,-3.8833272 6.5036101,-3.9551632 C 6.4744201,-4.0276162 6.4348791,-4.0638432 6.3849841,-4.0638442 M 6.3849841,-4.2087532 C 6.4664441,-4.2087522 6.5304231,-4.1604492 6.5769231,-4.0638442 C 6.6234221,-3.9672382 6.6466721,-3.8334762 6.6466731,-3.6625592 C 6.6466721,-3.4922602 6.6234221,-3.3584982 6.5769231,-3.2612732 C 6.5304231,-3.1646682 6.4664441,-3.1163652 6.3849841,-3.1163652 C 6.3031851,-3.1163652 6.2390361,-3.1646682 6.1925371,-3.2612732 C 6.1463771,-3.3584982 6.1232971,-3.4922602 6.1232971,-3.6625592 C 6.1232971,-3.8334762 6.1463771,-3.9672382 6.1925371,-4.0638442 C 6.2390361,-4.1604492 6.3031851,-4.2087522 6.3849841,-4.2087532 M 7.0224031,-4.0638442 C 6.9721701,-4.0638432 6.9324581,-4.0279262 6.9032691,-3.9560922 C 6.8740791,-3.8848752 6.8594851,-3.7870312 6.8594851,-3.6625592 C 6.8594851,-3.5380862 6.8739101,-3.4399322 6.9027601,-3.3680972 C 6.9319491,-3.2968812 6.9718301,-3.2612732 7.0224031,-3.2612732 C 7.0722961,-3.2612732 7.1118381,-3.2971912 7.1410281,-3.3690262 C 7.1702171,-3.4408612 7.1848121,-3.5387052 7.1848121,-3.6625592 C 7.1848121,-3.7857922 7.1702171,-3.8833272 7.1410281,-3.9551632 C 7.1118381,-4.0276162 7.0722961,-4.0638432 7.0224031,-4.0638442 M 7.0224031,-4.2087532 C 7.1038621,-4.2087522 7.1678411,-4.1604492 7.2143411,-4.0638442 C 7.2608401,-3.9672382 7.2840901,-3.8334762 7.2840901,-3.6625592 C 7.2840901,-3.4922602 7.2608401,-3.3584982 7.2143411,-3.2612732 C 7.1678411,-3.1646682 7.1038621,-3.1163652 7.0224031,-3.1163652 C 6.9406041,-3.1163652 6.8764551,-3.1646682 6.8299561,-3.2612732 C 6.7837951,-3.3584982 6.7607161,-3.4922602 6.7607161,-3.6625592 C 6.7607161,-3.8334762 6.7837951,-3.9672382 6.8299561,-4.0638442 C 6.8764551,-4.1604492 6.9406041,-4.2087522 7.0224031,-4.2087532 M 7.5315231,-4.4790632 L 7.5315231,-4.1836722 L 7.7244781,-4.1836722 L 7.7244781,-4.0508402 L 7.5315231,-4.0508402 L 7.5315231,-3.4860682 C 7.5315221,-3.4012282 7.5378011,-3.3467322 7.5503591,-3.3225812 C 7.5632571,-3.2984292 7.5892221,-3.2863532 7.6282551,-3.2863542 L 7.7244781,-3.2863542 L 7.7244781,-3.1433032 L 7.6282551,-3.1433032 C 7.5559591,-3.1433032 7.5060671,-3.1677642 7.4785741,-3.2166862 C 7.4510821,-3.2662282 7.4373361,-3.3560212 7.4373361,-3.4860682 L 7.4373361,-4.0508402 L 7.3686041,-4.0508402 L 7.3686041,-4.1836722 L 7.4373361,-4.1836722 L 7.4373361,-4.4790632 L 7.5315231,-4.4790632 M 7.9551091,-4.3759552 L 7.9551091,-3.8548412 L 8.0844261,-3.8548412 C 8.1322831,-3.8548412 8.1692791,-3.8774442 8.1954141,-3.9226512 C 8.2215481,-3.9678572 8.2346161,-4.0322602 8.2346161,-4.1158622 C 8.2346161,-4.1988432 8.2215481,-4.2629372 8.1954141,-4.3081452 C 8.1692791,-4.3533502 8.1322831,-4.3759542 8.0844261,-4.3759552 L 7.9551091,-4.3759552 M 7.8522671,-4.5301522 L 8.0844261,-4.5301522 C 8.1696181,-4.5301512 8.2339371,-4.4948522 8.2773821,-4.4242582 C 8.3211661,-4.3542792 8.3430581,-4.2514812 8.3430581,-4.1158622 C 8.3430581,-3.9790032 8.3211661,-3.8755862 8.2773821,-3.8056102 C 8.2339371,-3.7356322 8.1696181,-3.7006432 8.0844261,-3.7006432 L 7.9551091,-3.7006432 L 7.9551091,-3.1433032 L 7.8522671,-3.1433032 L 7.8522671,-4.5301522 M 8.6897691,-3.6662742 C 8.6140801,-3.6662742 8.5616401,-3.6504832 8.5324511,-3.6189002 C 8.5032611,-3.5873172 8.4886671,-3.5334412 8.4886671,-3.4572722 C 8.4886671,-3.3965832 8.4995281,-3.3482812 8.5212501,-3.3123632 C 8.5433121,-3.2770652 8.5731801,-3.2594162 8.6108561,-3.2594162 C 8.6627861,-3.2594162 8.7043641,-3.2928562 8.7355901,-3.3597372 C 8.7671551,-3.4272372 8.7829381,-3.5167212 8.7829381,-3.6281902 L 8.7829381,-3.6662742 L 8.6897691,-3.6662742 M 8.8766161,-3.7368712 L 8.8766161,-3.1433032 L 8.7829381,-3.1433032 L 8.7829381,-3.3012162 C 8.7615551,-3.2380512 8.7349111,-3.1912962 8.7030061,-3.1609522 C 8.6711011,-3.1312272 8.6320691,-3.1163652 8.5859091,-3.1163652 C 8.5275291,-3.1163652 8.4810301,-3.1460902 8.4464101,-3.2055402 C 8.4121291,-3.2656082 8.3949891,-3.3458032 8.3949891,-3.4461252 C 8.3949891,-3.5631662 8.4163721,-3.6514122 8.4591381,-3.7108622 C 8.5022431,-3.7703102 8.5663921,-3.8000352 8.6515851,-3.8000362 L 8.7829381,-3.8000362 L 8.7829381,-3.8167562 C 8.7829381,-3.8954022 8.7686821,-3.9560912 8.7401721,-3.9988212 C 8.7120001,-4.0421682 8.6722891,-4.0638432 8.6210381,-4.0638442 C 8.5884541,-4.0638432 8.5567191,-4.0567212 8.5258321,-4.0424792 C 8.4949461,-4.0282352 8.4652471,-4.0068712 8.4367361,-3.9783852 L 8.4367361,-4.1362982 C 8.4710171,-4.1604492 8.5042801,-4.1784082 8.5365241,-4.1901742 C 8.5687681,-4.2025592 8.6001641,-4.2087522 8.6307111,-4.2087532 C 8.7131881,-4.2087522 8.7747921,-4.1697372 8.8155221,-4.0917112 C 8.8562511,-4.0136832 8.8766151,-3.8954022 8.8766161,-3.7368712 M 9.0700821,-4.5886732 L 9.1637601,-4.5886732 L 9.1637601,-3.1433032 L 9.0700821,-3.1433032 L 9.0700821,-4.5886732 M 9.7173101,-3.6686217 C 9.7173091,-3.5800657 9.7293591,-3.5103987 9.7534571,-3.4596187 C 9.7775551,-3.4094577 9.8106481,-3.3843777 9.8527351,-3.3843777 C 9.8944841,-3.3843777 9.9272371,-3.4097677 9.9509961,-3.4605477 C 9.9750941,-3.5113277 9.9871441,-3.5806857 9.9871441,-3.6686217 C 9.9871441,-3.7553187 9.9749251,-3.8240567 9.9504871,-3.8748377 C 9.9260491,-3.9262367 9.8931261,-3.9519357 9.8517171,-3.9519367 C 9.8106481,-3.9519357 9.7778941,-3.9265457 9.7534571,-3.8757667 C 9.7293591,-3.8249857 9.7173091,-3.7559377 9.7173101,-3.6686217 M 9.9947811,-3.3908797 C 9.9744161,-3.3431967 9.9509961,-3.3078987 9.9245221,-3.2849857 C 9.8983871,-3.2626917 9.8678391,-3.2515447 9.8328801,-3.2515447 C 9.7745001,-3.2515447 9.7269831,-3.2899397 9.6903261,-3.3667287 C 9.6540091,-3.4441367 9.6358501,-3.5447677 9.6358501,-3.6686217 C 9.6358501,-3.7924747 9.6541781,-3.8931047 9.6908361,-3.9705147 C 9.7274921,-4.0479217 9.7748401,-4.0866257 9.8328801,-4.0866267 C 9.8678391,-4.0866257 9.8985571,-4.0748597 9.9250311,-4.0513287 C 9.9515051,-4.0284147 9.9747551,-3.9934267 9.9947811,-3.9463627 L 9.9947811,-4.0680487 L 10.067585,-4.0680487 L 10.067585,-3.3843777 C 10.117139,-3.3980017 10.155832,-3.4391827 10.183664,-3.5079217 C 10.211835,-3.5772787 10.22592,-3.6667627 10.225921,-3.7763737 C 10.22592,-3.8426357 10.22049,-3.9048717 10.209629,-3.9630827 C 10.199107,-4.0212937 10.182985,-4.0751697 10.161263,-4.1247117 C 10.125963,-4.2058347 10.082858,-4.2677617 10.031947,-4.3104917 C 9.9813731,-4.3538397 9.9262191,-4.3755137 9.8664821,-4.3755157 C 9.8247341,-4.3755137 9.7846831,-4.3652967 9.7463291,-4.3448617 C 9.7079751,-4.3250437 9.6725071,-4.2953187 9.6399231,-4.2556877 C 9.5866351,-4.1925207 9.5448881,-4.1095387 9.5146801,-4.0067417 C 9.4848111,-3.9045617 9.4698771,-3.7937127 9.4698771,-3.6741947 C 9.4698771,-3.5757307 9.4795511,-3.4834607 9.4988971,-3.3973827 C 9.5185831,-3.3113037 9.5469241,-3.2354437 9.5839201,-3.1698017 C 9.6195581,-3.1053977 9.6607971,-3.0564757 9.7076361,-3.0230357 C 9.7544751,-2.9889757 9.8045381,-2.9719457 9.8578271,-2.9719457 C 9.9016111,-2.9719457 9.9445471,-2.9855697 9.9866351,-3.0128177 C 10.029061,-3.0394457 10.067924,-3.0778407 10.103223,-3.1280017 L 10.149044,-3.0248937 C 10.106617,-2.9648247 10.060287,-2.9189987 10.010055,-2.8874157 C 9.9601601,-2.8552147 9.9094181,-2.8391137 9.8578271,-2.8391127 C 9.7950351,-2.8391137 9.7358071,-2.8595487 9.6801441,-2.9004207 C 9.6244801,-2.9406727 9.5749261,-2.9995037 9.5314811,-3.0769117 C 9.4880361,-3.1543197 9.4549431,-3.2438037 9.4322031,-3.3453637 C 9.4094621,-3.4475427 9.3980911,-3.5571537 9.3980921,-3.6741947 C 9.3980911,-3.7869007 9.4096321,-3.8943437 9.4327121,-3.9965237 C 9.4557921,-4.0987017 9.4887151,-4.1884957 9.5314811,-4.2659047 C 9.5752651,-4.3445507 9.6258371,-4.4046197 9.6831991,-4.4461117 C 9.7405591,-4.4882207 9.8013141,-4.5092757 9.8654631,-4.5092767 C 9.9374201,-4.5092757 10.004114,-4.4823377 10.065549,-4.4284627 C 10.127321,-4.3745847 10.179081,-4.2981057 10.22083,-4.1990237 C 10.246285,-4.1383347 10.265632,-4.0723827 10.27887,-4.0011677 C 10.292445,-3.9299517 10.299233,-3.8562587 10.299235,-3.7800897 C 10.299233,-3.6172217 10.27225,-3.4887247 10.218284,-3.3945957 C 10.164317,-3.3004667 10.089816,-3.2515447 9.9947811,-3.2478297 L 9.9947811,-3.3908797 M 10.84552,-3.7020617 C 10.845519,-3.8259147 10.831434,-3.9219007 10.803263,-3.9900217 C 10.775431,-4.0581397 10.736229,-4.0921997 10.685656,-4.0922007 C 10.635423,-4.0921997 10.596221,-4.0581397 10.56805,-3.9900217 C 10.540218,-3.9219007 10.526302,-3.8259147 10.526302,-3.7020617 C 10.526302,-3.5788277 10.540218,-3.4831507 10.56805,-3.4150317 C 10.596221,-3.3469117 10.635423,-3.3128517 10.685656,-3.3128527 C 10.736229,-3.3128517 10.775431,-3.3469117 10.803263,-3.4150317 C 10.831434,-3.4831507 10.845519,-3.5788277 10.84552,-3.7020617 M 10.939198,-3.2989187 C 10.939197,-3.1218087 10.917645,-2.9902147 10.87454,-2.9041367 C 10.831434,-2.8174387 10.765418,-2.7740907 10.676492,-2.7740897 C 10.643569,-2.7740907 10.612513,-2.7787347 10.583323,-2.7880237 C 10.554134,-2.7966937 10.525793,-2.8103177 10.4983,-2.8288957 L 10.4983,-2.9951687 C 10.525793,-2.9679207 10.552946,-2.9477947 10.57976,-2.9347897 C 10.606573,-2.9217857 10.633896,-2.9152837 10.661728,-2.9152827 C 10.723161,-2.9152837 10.769152,-2.9446987 10.799699,-3.0035287 C 10.830246,-3.0617397 10.845519,-3.1499857 10.84552,-3.2682657 L 10.84552,-3.3527957 C 10.826173,-3.2914877 10.801396,-3.2456617 10.771189,-3.2153177 C 10.74098,-3.1849737 10.704833,-3.1698017 10.662746,-3.1698017 C 10.592827,-3.1698017 10.536484,-3.2184147 10.493718,-3.3156387 C 10.450952,-3.4128637 10.429569,-3.5416717 10.429569,-3.7020617 C 10.429569,-3.8630707 10.450952,-3.9921877 10.493718,-4.0894137 C 10.536484,-4.1866377 10.592827,-4.2352507 10.662746,-4.2352517 C 10.704833,-4.2352507 10.74098,-4.2200787 10.771189,-4.1897347 C 10.801396,-4.1593897 10.826173,-4.1135637 10.84552,-4.0522577 L 10.84552,-4.2101707 L 10.939198,-4.2101707 L 10.939198,-3.2989187 M 11.576107,-4.0104577 C 11.599526,-4.0872457 11.627527,-4.1439077 11.660111,-4.1804457 C 11.692695,-4.2169817 11.731048,-4.2352507 11.775172,-4.2352517 C 11.834569,-4.2352507 11.88039,-4.1971647 11.912635,-4.1209957 C 11.944878,-4.0454447 11.961,-3.9376927 11.961001,-3.7977387 L 11.961001,-3.1698017 L 11.866814,-3.1698017 L 11.866814,-3.7921657 C 11.866813,-3.8918667 11.85714,-3.9658687 11.837794,-4.0141727 C 11.818447,-4.0624747 11.788918,-4.0866257 11.749207,-4.0866267 C 11.700671,-4.0866257 11.662317,-4.0572107 11.634146,-3.9983817 C 11.605975,-3.9395497 11.591889,-3.8593557 11.591889,-3.7577967 L 11.591889,-3.1698017 L 11.497702,-3.1698017 L 11.497702,-3.7921657 C 11.497702,-3.8924857 11.488029,-3.9664887 11.468682,-4.0141727 C 11.449336,-4.0624747 11.419467,-4.0866257 11.379077,-4.0866267 C 11.33122,-4.0866257 11.293206,-4.0569017 11.265035,-3.9974527 C 11.236863,-3.9386217 11.222777,-3.8587357 11.222778,-3.7577967 L 11.222778,-3.1698017 L 11.128591,-3.1698017 L 11.128591,-4.2101707 L 11.222778,-4.2101707 L 11.222778,-4.0485427 C 11.24416,-4.1123257 11.269786,-4.1593897 11.299655,-4.1897347 C 11.329523,-4.2200787 11.364991,-4.2352507 11.406061,-4.2352517 C 11.447469,-4.2352507 11.482598,-4.2160527 11.511449,-4.1776597 C 11.540638,-4.1392637 11.56219,-4.0835297 11.576107,-4.0104577 M 12.407499,-3.6927727 C 12.33181,-3.6927727 12.27937,-3.6769817 12.250181,-3.6453987 C 12.220992,-3.6138157 12.206397,-3.5599397 12.206397,-3.4837707 C 12.206397,-3.4230817 12.217258,-3.3747797 12.238981,-3.3388617 C 12.261042,-3.3035637 12.290911,-3.2859147 12.328586,-3.2859147 C 12.380516,-3.2859147 12.422094,-3.3193547 12.45332,-3.3862357 C 12.484885,-3.4537357 12.500668,-3.5432197 12.500668,-3.6546887 L 12.500668,-3.6927727 L 12.407499,-3.6927727 M 12.594346,-3.7633697 L 12.594346,-3.1698017 L 12.500668,-3.1698017 L 12.500668,-3.3277147 C 12.479285,-3.2645497 12.452641,-3.2177947 12.420736,-3.1874507 C 12.388831,-3.1577257 12.349799,-3.1428637 12.303639,-3.1428637 C 12.24526,-3.1428637 12.19876,-3.1725887 12.16414,-3.2320387 C 12.129859,-3.2921067 12.112719,-3.3723017 12.112719,-3.4726237 C 12.112719,-3.5896647 12.134102,-3.6779107 12.176868,-3.7373607 C 12.219973,-3.7968087 12.284122,-3.8265337 12.369315,-3.8265347 L 12.500668,-3.8265347 L 12.500668,-3.8432547 C 12.500668,-3.9219007 12.486412,-3.9825897 12.457902,-4.0253197 C 12.429731,-4.0686667 12.390019,-4.0903417 12.338768,-4.0903427 C 12.306184,-4.0903417 12.274449,-4.0832197 12.243563,-4.0689777 C 12.212676,-4.0547337 12.182977,-4.0333697 12.154467,-4.0048837 L 12.154467,-4.1627967 C 12.188747,-4.1869477 12.22201,-4.2049067 12.254254,-4.2166727 C 12.286498,-4.2290577 12.317894,-4.2352507 12.348441,-4.2352517 C 12.430918,-4.2352507 12.492522,-4.1962357 12.533252,-4.1182097 C 12.573981,-4.0401817 12.594346,-3.9219007 12.594346,-3.7633697 M 12.787812,-4.2101707 L 12.88149,-4.2101707 L 12.88149,-3.1698017 L 12.787812,-3.1698017 L 12.787812,-4.2101707 M 12.787812,-4.6151717 L 12.88149,-4.6151717 L 12.88149,-4.3987377 L 12.787812,-4.3987377 L 12.787812,-4.6151717 M 13.076992,-4.6151717 L 13.17067,-4.6151717 L 13.17067,-3.1698017 L 13.076992,-3.1698017 L 13.076992,-4.6151717 M 13.379409,-3.4057427 L 13.486833,-3.4057427 L 13.486833,-3.1698017 L 13.379409,-3.1698017 L 13.379409,-3.4057427 M 14.108468,-4.1702277 L 14.108468,-4.0104577 C 14.081994,-4.0370847 14.05535,-4.0569017 14.028537,-4.0699067 C 14.002062,-4.0835297 13.975248,-4.0903417 13.948096,-4.0903427 C 13.88734,-4.0903417 13.840162,-4.0550437 13.80656,-3.9844477 C 13.772958,-3.9144697 13.756157,-3.8160067 13.756157,-3.6890577 C 13.756157,-3.5621067 13.772958,-3.4633337 13.80656,-3.3927377 C 13.840162,-3.3227607 13.88734,-3.2877717 13.948096,-3.2877717 C 13.975248,-3.2877717 14.002062,-3.2942747 14.028537,-3.3072787 C 14.05535,-3.3209027 14.081994,-3.3410287 14.108468,-3.3676577 L 14.108468,-3.2097447 C 14.082333,-3.1874507 14.05518,-3.1707307 14.027009,-3.1595837 C 13.999177,-3.1484377 13.969478,-3.1428637 13.937913,-3.1428637 C 13.852041,-3.1428637 13.783819,-3.1920947 13.733247,-3.2905587 C 13.682674,-3.3890217 13.657388,-3.5218547 13.657388,-3.6890577 C 13.657388,-3.8587357 13.682844,-3.9921877 13.733756,-4.0894137 C 13.785007,-4.1866377 13.855096,-4.2352507 13.944023,-4.2352517 C 13.972872,-4.2352507 14.001043,-4.2296767 14.028537,-4.2185307 C 14.056029,-4.2080027 14.082672,-4.1919017 14.108468,-4.1702277 M 14.493363,-4.0903427 C 14.443129,-4.0903417 14.403418,-4.0544247 14.374229,-3.9825907 C 14.345039,-3.9113737 14.330444,-3.8135297 14.330445,-3.6890577 C 14.330444,-3.5645847 14.344869,-3.4664307 14.37372,-3.3945957 C 14.402909,-3.3233797 14.44279,-3.2877717 14.493363,-3.2877717 C 14.543256,-3.2877717 14.582798,-3.3236897 14.611988,-3.3955247 C 14.641177,-3.4673597 14.655772,-3.5652037 14.655772,-3.6890577 C 14.655772,-3.8122907 14.641177,-3.9098257 14.611988,-3.9816617 C 14.582798,-4.0541147 14.543256,-4.0903417 14.493363,-4.0903427 M 14.493363,-4.2352517 C 14.574821,-4.2352507 14.638801,-4.1869477 14.685301,-4.0903427 C 14.7318,-3.9937367 14.75505,-3.8599747 14.75505,-3.6890577 C 14.75505,-3.5187587 14.7318,-3.3849967 14.685301,-3.2877717 C 14.638801,-3.1911667 14.574821,-3.1428637 14.493363,-3.1428637 C 14.411564,-3.1428637 14.347415,-3.1911667 14.300915,-3.2877717 C 14.254755,-3.3849967 14.231675,-3.5187587 14.231675,-3.6890577 C 14.231675,-3.8599747 14.254755,-3.9937367 14.300915,-4.0903427 C 14.347415,-4.1869477 14.411564,-4.2352507 14.493363,-4.2352517 M 15.353775,-4.0104577 C 15.377194,-4.0872457 15.405195,-4.1439077 15.43778,-4.1804457 C 15.470363,-4.2169817 15.508716,-4.2352507 15.552841,-4.2352517 C 15.612237,-4.2352507 15.658058,-4.1971647 15.690303,-4.1209957 C 15.722547,-4.0454447 15.738669,-3.9376927 15.738669,-3.7977387 L 15.738669,-3.1698017 L 15.644482,-3.1698017 L 15.644482,-3.7921657 C 15.644482,-3.8918667 15.634808,-3.9658687 15.615463,-4.0141727 C 15.596115,-4.0624747 15.566586,-4.0866257 15.526876,-4.0866267 C 15.478339,-4.0866257 15.439985,-4.0572107 15.411815,-3.9983817 C 15.383643,-3.9395497 15.369557,-3.8593557 15.369558,-3.7577967 L 15.369558,-3.1698017 L 15.275371,-3.1698017 L 15.275371,-3.7921657 C 15.27537,-3.8924857 15.265697,-3.9664887 15.246351,-4.0141727 C 15.227004,-4.0624747 15.197136,-4.0866257 15.156746,-4.0866267 C 15.108888,-4.0866257 15.070874,-4.0569017 15.042703,-3.9974527 C 15.014531,-3.9386217 15.000446,-3.8587357 15.000446,-3.7577967 L 15.000446,-3.1698017 L 14.906259,-3.1698017 L 14.906259,-4.2101707 L 15.000446,-4.2101707 L 15.000446,-4.0485427 C 15.021829,-4.1123257 15.047455,-4.1593897 15.077323,-4.1897347 C 15.107191,-4.2200787 15.14266,-4.2352507 15.183729,-4.2352517 C 15.225137,-4.2352507 15.260266,-4.2160527 15.289117,-4.1776597 C 15.318306,-4.1392637 15.339859,-4.0835297 15.353775,-4.0104577"
         style="font-size:4px;font-style:normal;font-weight:normal;fill:#d40000;fill-opacity:1;stroke:none;stroke-width:1px;stroke-linecap:butt;stroke-linejoin:miter;stroke-opacity:1;font-family:Bitstream Vera Sans"
         sodipodi:nodetypes="csssccccccssscccsssssssccsssssssccsssssssccssssssscccccccsccccsccccccccccsssccccsssccccccssssscccccccssssscccsssccssscccccccsssssssccsssssssccccsssssssssssssssccssssssssssssssscccsssssssccsssccsssccssssssscccccsssccccsssccccsssccccccsssccssssscccccccssssscccsssccssscccccccccccccccccccccccsssssssccsssssssccsssssssccsssssssccsssccccsssccccsssccccccsssc" />
    </g>
  </g>
</svg>
