<?xml version="1.0" encoding="UTF-8" standalone="no"?>
<!-- Created with Inkscape (http://www.inkscape.org/) -->
<svg
   xmlns:dc="http://purl.org/dc/elements/1.1/"
   xmlns:cc="http://creativecommons.org/ns#"
   xmlns:rdf="http://www.w3.org/1999/02/22-rdf-syntax-ns#"
   xmlns:svg="http://www.w3.org/2000/svg"
   xmlns="http://www.w3.org/2000/svg"
   xmlns:xlink="http://www.w3.org/1999/xlink"
   xmlns:sodipodi="http://sodipodi.sourceforge.net/DTD/sodipodi-0.dtd"
   xmlns:inkscape="http://www.inkscape.org/namespaces/inkscape"
   id="svg2"
   sodipodi:version="0.32"
   inkscape:version="0.46"
   width="256"
   height="256"
   version="1.0"
   sodipodi:docname="kep_1250246418.svg"
   inkscape:output_extension="org.inkscape.output.svg.inkscape">
  <metadata
     id="metadata7">
    <rdf:RDF>
      <cc:Work
         rdf:about="">
        <dc:format>image/svg+xml</dc:format>
        <dc:type
           rdf:resource="http://purl.org/dc/dcmitype/StillImage" />
      </cc:Work>
    </rdf:RDF>
  </metadata>
  <defs
     id="defs5">
    <linearGradient
       id="linearGradient3316">
      <stop
         id="stop3318"
         offset="0"
         style="stop-color:#000000;stop-opacity:0;" />
      <stop
         style="stop-color:#c4c4c4;stop-opacity:1"
         offset="1"
         id="stop3320" />
    </linearGradient>
    <linearGradient
       id="linearGradient3292"
       inkscape:collect="always">
      <stop
         id="stop3294"
         offset="0"
         style="stop-color:#ffffff;stop-opacity:0.56310678" />
      <stop
         id="stop3296"
         offset="1"
         style="stop-color:#ffffff;stop-opacity:0" />
    </linearGradient>
    <linearGradient
       id="linearGradient3236">
      <stop
         style="stop-color:#ffffff;stop-opacity:1"
         offset="0"
         id="stop3238" />
      <stop
         id="stop3244"
         offset="0.94785547"
         style="stop-color:#000000;stop-opacity:1" />
      <stop
         style="stop-color:#595959;stop-opacity:1"
         offset="1"
         id="stop3240" />
    </linearGradient>
    <linearGradient
       id="linearGradient3222">
      <stop
         style="stop-color:#000000;stop-opacity:1;"
         offset="0"
         id="stop3224" />
      <stop
         id="stop3230"
         offset="0.44299069"
         style="stop-color:#010101;stop-opacity:1" />
      <stop
         style="stop-color:#bababa;stop-opacity:1"
         offset="0.902996"
         id="stop3232" />
      <stop
         style="stop-color:#adadad;stop-opacity:1"
         offset="1"
         id="stop3226" />
    </linearGradient>
    <linearGradient
       id="linearGradient3188">
      <stop
         style="stop-color:#000000;stop-opacity:1;"
         offset="0"
         id="stop3190" />
      <stop
         style="stop-color:#6f6f6f;stop-opacity:1"
         offset="1"
         id="stop3192" />
    </linearGradient>
    <linearGradient
       inkscape:collect="always"
       id="linearGradient3170">
      <stop
         style="stop-color:#828282;stop-opacity:1"
         offset="0"
         id="stop3172" />
      <stop
         style="stop-color:#111111;stop-opacity:1"
         offset="1"
         id="stop3174" />
    </linearGradient>
    <linearGradient
       inkscape:collect="always"
       id="linearGradient3152">
      <stop
         style="stop-color:#ffffff;stop-opacity:1"
         offset="0"
         id="stop3154" />
      <stop
         style="stop-color:#ffffff;stop-opacity:0"
         offset="1"
         id="stop3156" />
    </linearGradient>
    <inkscape:perspective
       sodipodi:type="inkscape:persp3d"
       inkscape:vp_x="0 : 526.18109 : 1"
       inkscape:vp_y="0 : 1000 : 0"
       inkscape:vp_z="744.09448 : 526.18109 : 1"
       inkscape:persp3d-origin="372.04724 : 350.78739 : 1"
       id="perspective9" />
    <radialGradient
       inkscape:collect="always"
       xlink:href="#linearGradient3236"
       id="radialGradient3360"
       gradientUnits="userSpaceOnUse"
       gradientTransform="matrix(-1.0971405,1.5055332,-1.6997204,-1.2386526,1339.7568,-898.84586)"
       cx="641.23749"
       cy="-2.9466033"
       fx="641.23749"
       fy="-2.9466033"
       r="339.56726" />
    <radialGradient
       inkscape:collect="always"
       xlink:href="#linearGradient3292"
       id="radialGradient3362"
       gradientUnits="userSpaceOnUse"
       gradientTransform="matrix(0.4863032,0.3807544,-0.2471136,0.3156158,241.5549,71.042935)"
       cx="351.44778"
       cy="246.92003"
       fx="351.44778"
       fy="246.92003"
       r="338.07635" />
    <radialGradient
       inkscape:collect="always"
       xlink:href="#linearGradient3152"
       id="radialGradient3364"
       gradientUnits="userSpaceOnUse"
       gradientTransform="matrix(1,0,0,0.3933447,798.09524,156.97774)"
       cx="-599.43274"
       cy="196.27667"
       fx="-599.43274"
       fy="196.27667"
       r="201.61636" />
    <linearGradient
       inkscape:collect="always"
       xlink:href="#linearGradient3170"
       id="linearGradient3366"
       gradientUnits="userSpaceOnUse"
       x1="179.05907"
       y1="164.68005"
       x2="518.86768"
       y2="331.21701" />
    <radialGradient
       inkscape:collect="always"
       xlink:href="#linearGradient3152"
       id="radialGradient3368"
       gradientUnits="userSpaceOnUse"
       gradientTransform="matrix(0.9368663,0.642246,-0.279748,0.4080779,816.07702,567.40362)"
       cx="-607.3244"
       cy="160.72745"
       fx="-607.3244"
       fy="160.72745"
       r="179.33653" />
    <linearGradient
       inkscape:collect="always"
       xlink:href="#linearGradient3170"
       id="linearGradient3370"
       gradientUnits="userSpaceOnUse"
       x1="95.549805"
       y1="217.2047"
       x2="399.74817"
       y2="385.29807" />
    <linearGradient
       inkscape:collect="always"
       xlink:href="#linearGradient3188"
       id="linearGradient3372"
       gradientUnits="userSpaceOnUse"
       gradientTransform="translate(802.19781,26.373626)"
       spreadMethod="reflect"
       x1="-476.07843"
       y1="207.71208"
       x2="-397.44345"
       y2="245.75835" />
    <linearGradient
       inkscape:collect="always"
       xlink:href="#linearGradient3152"
       id="linearGradient3374"
       gradientUnits="userSpaceOnUse"
       x1="255.90079"
       y1="191.35986"
       x2="245.71638"
       y2="234.72269" />
    <linearGradient
       inkscape:collect="always"
       xlink:href="#linearGradient3188"
       id="linearGradient3376"
       gradientUnits="userSpaceOnUse"
       gradientTransform="translate(801.17994,28.023599)"
       x1="-599.7146"
       y1="193.51031"
       x2="-584.45575"
       y2="193.51031" />
    <radialGradient
       inkscape:collect="always"
       xlink:href="#linearGradient3222"
       id="radialGradient3378"
       gradientUnits="userSpaceOnUse"
       gradientTransform="matrix(1.3894022,0.4371877,-0.4212892,1.3388761,1142.6904,117.09602)"
       cx="-548.54584"
       cy="307.20407"
       fx="-548.54584"
       fy="307.20407"
       r="58.317108" />
    <linearGradient
       inkscape:collect="always"
       xlink:href="#linearGradient3292"
       id="linearGradient3380"
       gradientUnits="userSpaceOnUse"
       x1="170.38458"
       y1="585.50684"
       x2="269.10587"
       y2="465.62701" />
    <radialGradient
       inkscape:collect="always"
       xlink:href="#linearGradient3292"
       id="radialGradient3382"
       gradientUnits="userSpaceOnUse"
       gradientTransform="matrix(0.6604056,0.4610305,-5.6282113e-2,8.0621612e-2,109.32094,272.09295)"
       cx="214.76323"
       cy="424.01486"
       fx="214.76323"
       fy="424.01486"
       r="244.85245" />
    <radialGradient
       inkscape:collect="always"
       xlink:href="#linearGradient3292"
       id="radialGradient3384"
       gradientUnits="userSpaceOnUse"
       gradientTransform="matrix(0.5159501,0.6689595,-0.362021,0.2792169,431.86539,-49.331282)"
       cx="672.28485"
       cy="515.88708"
       fx="672.28485"
       fy="515.88708"
       r="223.03345" />
    <linearGradient
       inkscape:collect="always"
       xlink:href="#linearGradient3316"
       id="linearGradient3386"
       gradientUnits="userSpaceOnUse"
       gradientTransform="translate(-1.9066979,0.6085175)"
       x1="496.22504"
       y1="465.2392"
       x2="357.03113"
       y2="355.68008" />
    <inkscape:perspective
       id="perspective10"
       inkscape:persp3d-origin="372.04724 : 350.78739 : 1"
       inkscape:vp_z="744.09448 : 526.18109 : 1"
       inkscape:vp_y="0 : 1000 : 0"
       inkscape:vp_x="0 : 526.18109 : 1"
       sodipodi:type="inkscape:persp3d" />
  </defs>
  <sodipodi:namedview
     inkscape:window-height="1025"
     inkscape:window-width="1680"
     inkscape:pageshadow="2"
     inkscape:pageopacity="0.0"
     guidetolerance="10.0"
     gridtolerance="10.0"
     objecttolerance="10.0"
     borderopacity="1.0"
     bordercolor="#666666"
     pagecolor="#ffffff"
     id="base"
     showgrid="false"
     inkscape:zoom="3.3984375"
     inkscape:cx="128"
     inkscape:cy="128"
     inkscape:window-x="-5"
     inkscape:window-y="0"
     inkscape:current-layer="svg2" />
  <path
     style="fill:#000000;fill-opacity:1;fill-rule:evenodd;stroke:none;stroke-width:1px;stroke-linecap:butt;stroke-linejoin:miter;stroke-opacity:1"
     d="M 1382.9292,270.98672 L 1377.7878,273.81448 L 1382.9292,270.98672 z"
     id="path3254"
     sodipodi:nodetypes="ccc" />
  <g
     id="g3346"
     transform="matrix(0.3559893,0,0,0.3559893,-14.474513,-16.418463)">
    <path
       style="fill:url(#radialGradient3360);fill-opacity:1;fill-rule:evenodd;stroke:#000000;stroke-width:1px;stroke-linecap:butt;stroke-linejoin:miter;stroke-opacity:1"
       d="M 138.49496,194.97674 L 144.76456,188.39366 C 188.89682,167.13325 273.09272,151.42819 343.82422,164.88269 C 428.19262,180.93121 656.45232,339.19109 712.06252,473.92109 C 735.55092,530.82789 760.09712,587.63423 722.21472,647.52515 C 690.96562,696.92922 645.13622,733.20847 568.40762,725.69774 C 444.12532,713.53211 184.34763,564.13874 87.819263,389.46754 C 76.17011,368.38802 66.524485,343.08794 63.839077,309.45409 C 63.06848,299.80262 65.454467,290.94642 69.155157,283.62124 L 71.067717,284.98736 L 71.887397,278.42998 C 78.191937,248.69466 91.458257,220.14432 131.72346,196.18954 L 138.49496,194.97674 z"
       id="path3234"
       sodipodi:nodetypes="ccssssssccccc" />
    <path
       sodipodi:nodetypes="ccssssssccccc"
       id="path2384"
       d="M 138.49496,194.97674 L 144.76456,188.39366 C 188.89682,167.13325 273.09272,151.42819 343.82422,164.88269 C 428.19262,180.93121 656.45232,339.19109 712.06252,473.92109 C 735.55092,530.82789 760.09712,587.63423 722.21472,647.52515 C 690.96562,696.92922 633.63835,709.68259 556.90975,702.17186 C 432.62745,690.00623 220.3068,554.87705 104.50133,389.242 C 90.701065,369.50367 79.189097,344.81111 67.715046,314.10525 C 64.325931,305.0356 65.454467,290.94642 69.155157,283.62124 L 71.067717,284.98736 L 71.887397,278.42998 C 78.191937,248.69466 91.458257,220.14432 131.72346,196.18954 L 138.49496,194.97674 z"
       style="fill:#121212;fill-opacity:1;fill-rule:evenodd;stroke:#363636;stroke-width:2;stroke-linecap:butt;stroke-linejoin:miter;stroke-miterlimit:4;stroke-dasharray:none;stroke-opacity:1" />
    <path
       style="fill:url(#radialGradient3362);fill-opacity:1;fill-rule:evenodd;stroke:none;stroke-width:2;stroke-linecap:butt;stroke-linejoin:miter;stroke-miterlimit:4;stroke-dasharray:none;stroke-opacity:1"
       d="M 137.67008,193.78675 L 143.93968,187.20367 C 188.07194,165.94326 272.26784,150.2382 342.99934,163.6927 C 427.36774,179.74122 655.62744,338.0011 711.23764,472.73106 C 734.72604,529.63786 759.27224,586.44426 721.38984,646.33516 C 690.14074,695.73926 632.81347,708.49256 556.08487,700.98186 C 431.80257,688.81626 219.48192,553.68706 103.67645,388.05201 C 89.876181,368.31368 78.364221,343.62112 66.890161,312.91526 C 63.501051,303.84561 64.629591,289.75643 68.330281,282.43125 L 70.242841,283.79737 L 71.062521,277.23999 C 77.367061,247.50467 90.633381,218.95433 130.89858,194.99955 L 137.67008,193.78675 z"
       id="path3336"
       sodipodi:nodetypes="ccssssssccccc" />
    <path
       style="fill:url(#radialGradient3364);fill-opacity:1;fill-rule:evenodd;stroke:url(#linearGradient3366);stroke-width:3;stroke-linecap:butt;stroke-linejoin:miter;stroke-miterlimit:4;stroke-dasharray:none;stroke-opacity:1"
       d="M 139.83504,192.51555 L 142.8598,187.99737 C 186.99206,166.73696 270.36151,153.09801 341.09301,166.55252 C 383.27721,174.57677 458.95489,216.08776 536.82293,274.50005 C 481.48963,281.94978 456.39087,298.88628 428.58948,314.0801 C 333.01073,252.52984 238.41633,208.56107 139.83504,192.51555 z"
       id="path3160"
       sodipodi:nodetypes="cccccc" />
    <path
       style="fill:url(#radialGradient3368);fill-opacity:1;fill-rule:evenodd;stroke:url(#linearGradient3370);stroke-width:3;stroke-linecap:round;stroke-linejoin:round;stroke-miterlimit:4;stroke-dasharray:none;stroke-opacity:1"
       d="M 141.42291,192.5798 C 238.43849,210.85473 366.15558,273.1201 428.98747,311.896 C 382.47225,341.71473 340.04945,373.49168 296.39246,420.03971 C 231.63486,364.78265 149.84662,320.1775 82.317028,302.86173 C 73.108868,297.02382 72.369948,289.97602 73.995668,282.59042 L 73.258928,276.42215 C 79.563468,246.68683 94.386208,217.74738 134.65141,193.7926 L 141.42291,192.5798 z"
       id="path2380"
       sodipodi:nodetypes="cccccccc" />
    <path
       style="fill:#000000;fill-opacity:1;fill-rule:evenodd;stroke:none;stroke-width:1px;stroke-linecap:butt;stroke-linejoin:miter;stroke-opacity:1"
       d="M 137.81671,192.22131 C 138.92072,189.52972 141.61205,187.89635 144.75759,186.56578 C 169.50555,190.80554 193.30364,197.42 216.47994,205.58892 C 230.96152,198.48292 245.44309,197.35852 259.92468,201.21874 L 328.04808,230.01051 C 335.80859,235.35643 344.48254,240.32437 332.9324,253.6609 L 431.64705,310.73031 L 426.50566,313.55807 L 329.84757,257.77401 C 317.26317,262.31165 298.37253,266.61991 291.10743,262.64468 L 208.25978,229.21732 C 195.93729,225.98699 206.71297,211.9525 211.53267,211.01695 C 184.79746,202.84009 164.55193,197.26784 137.81671,192.22131 z"
       id="path3204"
       sodipodi:nodetypes="ccccccccccccc" />
    <path
       sodipodi:nodetypes="ccccccccccccc"
       id="path3186"
       d="M 138.70167,191.92633 C 139.80568,189.23474 142.49701,187.60137 145.64254,186.2708 C 170.39051,190.51056 194.1886,197.12502 217.36491,205.29394 C 231.84649,198.18794 246.32806,197.06354 260.80964,200.92376 L 328.93303,229.71553 C 336.69354,235.06145 345.36749,240.02939 333.81735,253.36592 L 432.532,310.43533 L 427.39061,313.26309 L 330.73252,257.47903 C 332.01243,250.21726 333.69648,243.15054 326.43138,239.17531 L 253.57717,208.77209 C 241.25468,205.54176 226.27327,208.52304 221.78502,215.36958 C 195.0498,207.19272 165.43689,196.97286 138.70167,191.92633 z"
       style="fill:url(#linearGradient3372);fill-opacity:1;fill-rule:evenodd;stroke:url(#linearGradient3374);stroke-width:1px;stroke-linecap:butt;stroke-linejoin:miter;stroke-opacity:1" />
    <path
       sodipodi:nodetypes="cccc"
       id="path3210"
       d="M 210.32448,211.50443 C 212.68436,215.9292 216.22419,218.87906 216.22419,218.87906 C 207.39305,224.61446 207.16491,228.08845 213.27434,230.67846 C 197.00677,225.91648 202.97828,217.68135 210.32448,211.50443 z"
       style="fill:url(#linearGradient3376);fill-opacity:1;fill-rule:evenodd;stroke:#636363;stroke-width:1px;stroke-linecap:butt;stroke-linejoin:miter;stroke-opacity:1" />
    <path
       sodipodi:nodetypes="ccccc"
       id="path3220"
       d="M 212.03119,230.92816 C 247.89068,183.08757 299.75764,214.03516 329.58388,254.19592 L 322.20925,259.80064 C 312.02224,265.25891 301.41331,267.97288 291.53078,263.93043 L 212.03119,230.92816 z"
       style="fill:url(#radialGradient3378);fill-opacity:1;fill-rule:evenodd;stroke:none;stroke-width:1px;stroke-linecap:butt;stroke-linejoin:miter;stroke-opacity:1" />
    <path
       sodipodi:nodetypes="cccscs"
       id="path3248"
       d="M 302.14513,422.35828 C 233.89073,371.57369 155.58103,322.5178 88.051431,305.20203 C 83.424731,303.65685 70.172431,303.89598 73.457631,316.45203 C 84.931731,347.15789 96.438531,371.8387 110.23883,391.57703 C 226.04433,557.21208 438.36281,692.34889 562.64511,704.51453 C 549.37441,685.5419 542.43901,601.14874 302.14513,422.35828 z"
       style="fill:url(#linearGradient3380);fill-opacity:1;fill-rule:evenodd;stroke:#363636;stroke-width:2;stroke-linecap:butt;stroke-linejoin:miter;stroke-miterlimit:4;stroke-dasharray:none;stroke-opacity:1" />
    <path
       style="fill:url(#radialGradient3382);fill-opacity:1;fill-rule:evenodd;stroke:none;stroke-width:2;stroke-linecap:butt;stroke-linejoin:miter;stroke-miterlimit:4;stroke-dasharray:none;stroke-opacity:1"
       d="M 302.14513,422.35828 C 235.93196,368.93961 155.58103,322.5178 88.051431,305.20203 C 83.424731,303.65685 70.172431,303.89598 73.457631,316.45203 C 84.931731,347.15789 112.18299,368.32241 130.08649,384.43187 C 272.85639,512.8954 316.51347,517.2162 423.71151,574.3139 C 410.43974,555.34163 529.22005,605.55506 302.14513,422.35828 z"
       id="path3282"
       sodipodi:nodetypes="cccscs" />
    <path
       sodipodi:nodetypes="ccccccc"
       id="path3306"
       d="M 297.39597,419.53351 C 359.24755,360.5315 429.3839,292.856 533.98004,272.66085 C 633.85931,344.85089 703.99361,429.66004 734.04441,531.47429 C 743.77101,579.06113 747.88441,626.19892 705.46381,669.61399 C 662.37051,709.59731 610.70979,704.60193 559.38504,701.37024 C 534.89585,638.30864 495.22096,585.00928 441.09301,541.00117 L 297.39597,419.53351 z"
       style="fill:url(#radialGradient3384);fill-opacity:1;fill-rule:evenodd;stroke:url(#linearGradient3386);stroke-width:3;stroke-linecap:butt;stroke-linejoin:miter;stroke-miterlimit:4;stroke-dasharray:none;stroke-opacity:1" />
  </g>
  <g
     id="layer1"
     inkscape:label="Layer 1"
     transform="translate(-0.9068003,-1.9001993)">
    <path
       sodipodi:nodetypes="cccccccccsssccccccssscccccc"
       id="text2383"
       d="M 10.338337,-10.630085 L 10.369587,-10.598835 L 6.9504776,-1.4142743 L 8.3879776,-1.3856193 L 9.6246406,-4.5355853 L 12.857374,-4.5355853 L 14.083033,-1.3856183 L 15.520533,-1.3856183 L 14.244587,-4.5675853 C 15.011057,-4.6616323 15.614006,-4.8951793 16.057087,-5.2863353 C 16.64497,-5.8013043 16.93208,-6.5604173 16.932087,-7.5675853 C 16.932079,-8.5656233 16.644971,-9.3338523 16.057087,-9.8488353 C 15.473747,-10.368356 14.607212,-10.630075 13.463337,-10.630085 L 11.932087,-10.630085 L 10.369587,-10.630085 L 10.338337,-10.630085 z M 12.369587,-9.5050853 L 13.463337,-9.5050853 C 14.10591,-9.5050763 14.612421,-9.3377583 14.963337,-9.0050853 C 15.314242,-8.6723943 15.494581,-8.1782543 15.494587,-7.5675853 C 15.494581,-6.9523443 15.314243,-6.4940113 14.963337,-6.1613353 C 14.676858,-5.8897383 14.287944,-5.7424543 13.807087,-5.6925853 L 12.369587,-9.5050853 z M 11.140459,-8.6820923 L 12.326124,-5.6918353 L 9.9475186,-5.6345243 L 11.140459,-8.6820923 z"
       style="font-size:14px;font-style:normal;font-weight:normal;fill:#000000;fill-opacity:1;stroke:none;stroke-width:1px;stroke-linecap:butt;stroke-linejoin:miter;stroke-opacity:1;font-family:Bitstream Vera Sans" />
  </g>
</svg>
