<?xml version="1.0" encoding="UTF-8" standalone="no"?>
<!-- Created with Inkscape (http://www.inkscape.org/) -->

<svg
   xmlns:dc="http://purl.org/dc/elements/1.1/"
   xmlns:cc="http://creativecommons.org/ns#"
   xmlns:rdf="http://www.w3.org/1999/02/22-rdf-syntax-ns#"
   xmlns:svg="http://www.w3.org/2000/svg"
   xmlns="http://www.w3.org/2000/svg"
   xmlns:xlink="http://www.w3.org/1999/xlink"
   xmlns:sodipodi="http://sodipodi.sourceforge.net/DTD/sodipodi-0.dtd"
   xmlns:inkscape="http://www.inkscape.org/namespaces/inkscape"
   id="svg2"
   version="1.1"
   inkscape:version="0.91 r13725"
   width="256"
   height="256"
   sodipodi:docname="xfce4-display.svg">
  <metadata
     id="metadata8">
    <rdf:RDF>
      <cc:Work
         rdf:about="">
        <dc:format>image/svg+xml</dc:format>
        <dc:type
           rdf:resource="http://purl.org/dc/dcmitype/StillImage" />
        <dc:title></dc:title>
      </cc:Work>
    </rdf:RDF>
  </metadata>
  <defs
     id="defs6">
    <linearGradient
       id="linearGradient4030">
      <stop
         style="stop-color:#b3b3b3;stop-opacity:1;"
         offset="0"
         id="stop4032" />
      <stop
         id="stop4038"
         offset="0.85882026"
         style="stop-color:#000000;stop-opacity:1;" />
      <stop
         style="stop-color:#000000;stop-opacity:1;"
         offset="1"
         id="stop4034" />
    </linearGradient>
    <linearGradient
       id="linearGradient4022">
      <stop
         style="stop-color:#000000;stop-opacity:1;"
         offset="0"
         id="stop4024" />
      <stop
         style="stop-color:#878787;stop-opacity:1;"
         offset="1"
         id="stop4026" />
    </linearGradient>
    <linearGradient
       id="linearGradient4012">
      <stop
         style="stop-color:#000000;stop-opacity:1;"
         offset="0"
         id="stop4014" />
      <stop
         style="stop-color:#595959;stop-opacity:0.37579617;"
         offset="1"
         id="stop4016" />
    </linearGradient>
    <linearGradient
       id="linearGradient4004">
      <stop
         id="stop4006"
         offset="0"
         style="stop-color:#000000;stop-opacity:1;" />
      <stop
         id="stop4008"
         offset="1"
         style="stop-color:#d8d8d8;stop-opacity:0;" />
    </linearGradient>
    <linearGradient
       id="linearGradient3994">
      <stop
         style="stop-color:#000000;stop-opacity:1;"
         offset="0"
         id="stop3996" />
      <stop
         style="stop-color:#2f2f2f;stop-opacity:1;"
         offset="1"
         id="stop3998" />
    </linearGradient>
    <linearGradient
       id="linearGradient3921">
      <stop
         style="stop-color:#ffffff;stop-opacity:0.28662419;"
         offset="0"
         id="stop3923" />
      <stop
         style="stop-color:#ffffff;stop-opacity:0;"
         offset="1"
         id="stop3925" />
    </linearGradient>
    <linearGradient
       id="linearGradient3903">
      <stop
         style="stop-color:#bbbbbb;stop-opacity:1;"
         offset="0"
         id="stop3905" />
      <stop
         style="stop-color:#000000;stop-opacity:1;"
         offset="1"
         id="stop3907" />
    </linearGradient>
    <linearGradient
       id="linearGradient3803">
      <stop
         id="stop3805"
         offset="0"
         style="stop-color:#ffffff;stop-opacity:0;" />
      <stop
         id="stop3809"
         offset="1"
         style="stop-color:#000000;stop-opacity:0.6433121;" />
    </linearGradient>
    <linearGradient
       id="linearGradient3784">
      <stop
         style="stop-color:#ffffff;stop-opacity:0;"
         offset="0"
         id="stop3786" />
      <stop
         id="stop3792"
         offset="0.38450092"
         style="stop-color:#000000;stop-opacity:0.49803922;" />
      <stop
         style="stop-color:#000000;stop-opacity:1;"
         offset="1"
         id="stop3788" />
    </linearGradient>
    <linearGradient
       id="linearGradient3774">
      <stop
         style="stop-color:#ffffff;stop-opacity:0.72611463;"
         offset="0"
         id="stop3776" />
      <stop
         style="stop-color:#848484;stop-opacity:0.59872609;"
         offset="1"
         id="stop3778" />
    </linearGradient>
    <linearGradient
       id="linearGradient3760">
      <stop
         style="stop-color:#000000;stop-opacity:1;"
         offset="0"
         id="stop3762" />
      <stop
         style="stop-color:#8f8f8f;stop-opacity:1;"
         offset="1"
         id="stop3764" />
    </linearGradient>
    <radialGradient
       inkscape:collect="always"
       xlink:href="#linearGradient3903"
       id="radialGradient4077"
       gradientUnits="userSpaceOnUse"
       gradientTransform="matrix(1.1283836,3.7675757e-4,-6.5244959e-4,0.1872719,-33.234302,344.09381)"
       cx="260.68011"
       cy="356.7453"
       fx="260.68011"
       fy="356.7453"
       r="110.19313" />
    <linearGradient
       inkscape:collect="always"
       xlink:href="#linearGradient3774"
       id="linearGradient4079"
       gradientUnits="userSpaceOnUse"
       gradientTransform="translate(1.5027008,-1.9931161)"
       spreadMethod="reflect"
       x1="249.68658"
       y1="378.62677"
       x2="255.87317"
       y2="376.75446" />
    <linearGradient
       inkscape:collect="always"
       xlink:href="#linearGradient3784"
       id="linearGradient4081"
       gradientUnits="userSpaceOnUse"
       gradientTransform="translate(76.39485,-14.055563)"
       x1="188.2283"
       y1="395.1586"
       x2="189.05379"
       y2="415.80377" />
    <linearGradient
       inkscape:collect="always"
       xlink:href="#linearGradient3803"
       id="linearGradient4083"
       gradientUnits="userSpaceOnUse"
       gradientTransform="translate(76.39485,-14.055563)"
       x1="185.86272"
       y1="396.44891"
       x2="197.54842"
       y2="393.65323" />
    <linearGradient
       inkscape:collect="always"
       xlink:href="#linearGradient3774"
       id="linearGradient4085"
       gradientUnits="userSpaceOnUse"
       gradientTransform="matrix(0.998515,0.04385407,0.05447741,-0.80380009,-12.191933,810.61831)"
       spreadMethod="reflect"
       x1="249.68658"
       y1="378.62677"
       x2="255.87317"
       y2="376.75446" />
    <linearGradient
       inkscape:collect="always"
       xlink:href="#linearGradient3784"
       id="linearGradient4087"
       gradientUnits="userSpaceOnUse"
       gradientTransform="matrix(0.998515,0.04385407,0.05447741,-0.80380009,61.931871,823.59843)"
       x1="188.68205"
       y1="382.90265"
       x2="189.05379"
       y2="415.80377" />
    <linearGradient
       inkscape:collect="always"
       xlink:href="#linearGradient3803"
       id="linearGradient4089"
       gradientUnits="userSpaceOnUse"
       gradientTransform="matrix(0.998515,0.04385407,0.05447741,-0.80380009,61.931871,823.59843)"
       x1="185.86272"
       y1="396.44891"
       x2="197.54842"
       y2="393.65323" />
    <linearGradient
       inkscape:collect="always"
       xlink:href="#linearGradient3921"
       id="linearGradient4091"
       gradientUnits="userSpaceOnUse"
       spreadMethod="reflect"
       x1="205.29399"
       y1="510.69385"
       x2="349.42703"
       y2="504.47067" />
    <linearGradient
       inkscape:collect="always"
       xlink:href="#linearGradient3921"
       id="linearGradient4093"
       gradientUnits="userSpaceOnUse"
       spreadMethod="reflect"
       x1="205.29399"
       y1="510.69385"
       x2="349.42703"
       y2="504.47067" />
    <radialGradient
       inkscape:collect="always"
       xlink:href="#linearGradient4030"
       id="radialGradient4103"
       gradientUnits="userSpaceOnUse"
       gradientTransform="matrix(0.61906082,0.01456966,-0.01161681,0.49359521,-35.670004,18.455472)"
       spreadMethod="reflect"
       cx="346.52225"
       cy="338.3006"
       fx="346.52225"
       fy="338.3006"
       r="12.511804" />
    <linearGradient
       inkscape:collect="always"
       xlink:href="#linearGradient4022"
       id="linearGradient4105"
       gradientUnits="userSpaceOnUse"
       x1="343.95752"
       y1="339.24762"
       x2="356.23578"
       y2="346.68668"
       gradientTransform="matrix(0.52244863,0,0,0.52244863,-6.1217276,13.529197)" />
    <radialGradient
       inkscape:collect="always"
       xlink:href="#linearGradient4030"
       id="radialGradient4107"
       gradientUnits="userSpaceOnUse"
       gradientTransform="matrix(0.61906082,0.01456966,-0.01161681,0.49359521,-159.524,14.134983)"
       spreadMethod="reflect"
       cx="346.52225"
       cy="338.3006"
       fx="346.52225"
       fy="338.3006"
       r="12.511804" />
    <linearGradient
       inkscape:collect="always"
       xlink:href="#linearGradient4022"
       id="linearGradient4109"
       gradientUnits="userSpaceOnUse"
       x1="343.95752"
       y1="339.24762"
       x2="356.23578"
       y2="346.68668"
       gradientTransform="matrix(0.52244863,0,0,0.52244863,-129.97572,9.2087084)" />
    <linearGradient
       inkscape:collect="always"
       xlink:href="#linearGradient4012"
       id="linearGradient3834"
       gradientUnits="userSpaceOnUse"
       x1="52.857773"
       y1="200.02409"
       x2="396.54507"
       y2="219.28423"
       gradientTransform="matrix(0.52244863,0,0,0.52244863,-9.722541,13.380188)" />
    <linearGradient
       inkscape:collect="always"
       xlink:href="#linearGradient4004"
       id="linearGradient3836"
       gradientUnits="userSpaceOnUse"
       x1="241.96628"
       y1="53.479843"
       x2="219.30069"
       y2="331.34143"
       gradientTransform="matrix(0.52244863,0,0,0.52244863,-9.722541,13.380188)" />
    <linearGradient
       inkscape:collect="always"
       xlink:href="#linearGradient3994"
       id="linearGradient3839"
       gradientUnits="userSpaceOnUse"
       spreadMethod="repeat"
       x1="-39.958626"
       y1="142.21483"
       x2="231.11131"
       y2="236.48929"
       gradientTransform="matrix(0.52244863,0,0,0.52244863,-9.5284549,12.453388)" />
    <linearGradient
       inkscape:collect="always"
       xlink:href="#linearGradient3760"
       id="linearGradient3842"
       gradientUnits="userSpaceOnUse"
       x1="241.96628"
       y1="53.479843"
       x2="219.30069"
       y2="331.34143"
       gradientTransform="matrix(0.52244863,0,0,0.52244863,-9.5284549,12.453388)" />
    <linearGradient
       y2="0.60966706"
       x2="14.567238"
       y1="-2.0476494"
       x1="14.185499"
       spreadMethod="reflect"
       gradientUnits="userSpaceOnUse"
       id="linearGradient3399"
       xlink:href="#linearGradient3370"
       inkscape:collect="always" />
    <linearGradient
       y2="3.0506296"
       x2="8.7053642"
       y1="-3.0097806"
       x1="8.6621532"
       spreadMethod="reflect"
       gradientUnits="userSpaceOnUse"
       id="linearGradient3397"
       xlink:href="#linearGradient3370"
       inkscape:collect="always" />
    <linearGradient
       y2="1.6074327"
       x2="8.9013538"
       y1="-6.2525191"
       x1="9.4104776"
       spreadMethod="reflect"
       gradientUnits="userSpaceOnUse"
       id="linearGradient3395"
       xlink:href="#linearGradient3370"
       inkscape:collect="always" />
    <linearGradient
       y2="-0.69099176"
       x2="12.019372"
       y1="-6.2525191"
       x1="9.4104776"
       spreadMethod="reflect"
       gradientUnits="userSpaceOnUse"
       id="linearGradient3393"
       xlink:href="#linearGradient3370"
       inkscape:collect="always" />
    <linearGradient
       y2="-4.2722578"
       x2="9.5962267"
       y1="-8.3905888"
       x1="11.441644"
       spreadMethod="reflect"
       gradientUnits="userSpaceOnUse"
       id="linearGradient3391"
       xlink:href="#linearGradient3370"
       inkscape:collect="always" />
    <linearGradient
       y2="-7.0339308"
       x2="11.609575"
       y1="-6.2525191"
       x1="9.4104776"
       spreadMethod="reflect"
       gradientUnits="userSpaceOnUse"
       id="linearGradient3388"
       xlink:href="#linearGradient3370"
       inkscape:collect="always" />
    <linearGradient
       y2="-7.1586514"
       x2="12.446986"
       y1="-7.4997263"
       x1="14.042961"
       spreadMethod="reflect"
       gradientUnits="userSpaceOnUse"
       id="linearGradient3386"
       xlink:href="#linearGradient3370"
       inkscape:collect="always" />
    <linearGradient
       y2="-5.8401756"
       x2="16.758759"
       y1="-4.132267"
       x1="15.272351"
       spreadMethod="reflect"
       gradientUnits="userSpaceOnUse"
       id="linearGradient3384"
       xlink:href="#linearGradient3370"
       inkscape:collect="always" />
    <linearGradient
       y2="-7.0339308"
       x2="11.609575"
       y1="-6.2525191"
       x1="9.4104776"
       spreadMethod="reflect"
       gradientUnits="userSpaceOnUse"
       id="linearGradient3381"
       xlink:href="#linearGradient3370"
       inkscape:collect="always" />
    <linearGradient
       y2="-7.0339308"
       x2="11.609575"
       y1="-6.2525191"
       x1="9.4104776"
       spreadMethod="reflect"
       gradientUnits="userSpaceOnUse"
       id="linearGradient3378"
       xlink:href="#linearGradient3370"
       inkscape:collect="always" />
    <linearGradient
       spreadMethod="reflect"
       gradientUnits="userSpaceOnUse"
       y2="-7.0339308"
       x2="11.609575"
       y1="-6.2525191"
       x1="9.4104776"
       id="linearGradient3376"
       xlink:href="#linearGradient3370"
       inkscape:collect="always" />
    <inkscape:perspective
       sodipodi:type="inkscape:persp3d"
       inkscape:vp_x="0 : 526.18109 : 1"
       inkscape:vp_y="0 : 1000 : 0"
       inkscape:vp_z="744.09448 : 526.18109 : 1"
       inkscape:persp3d-origin="372.04724 : 350.78739 : 1"
       id="perspective10" />
    <linearGradient
       id="linearGradient3370">
      <stop
         id="stop3372"
         offset="0"
         style="stop-color:#000000;stop-opacity:1;" />
      <stop
         id="stop3374"
         offset="1"
         style="stop-color:#ffffff;stop-opacity:1;" />
    </linearGradient>
    <linearGradient
       inkscape:collect="always"
       xlink:href="#linearGradient3370"
       id="linearGradient4042"
       gradientUnits="userSpaceOnUse"
       spreadMethod="reflect"
       x1="9.4104776"
       y1="-6.2525191"
       x2="11.609575"
       y2="-7.0339308" />
    <linearGradient
       inkscape:collect="always"
       xlink:href="#linearGradient3370"
       id="linearGradient4044"
       gradientUnits="userSpaceOnUse"
       spreadMethod="reflect"
       x1="9.4104776"
       y1="-6.2525191"
       x2="11.609575"
       y2="-7.0339308" />
    <linearGradient
       inkscape:collect="always"
       xlink:href="#linearGradient3370"
       id="linearGradient4046"
       gradientUnits="userSpaceOnUse"
       spreadMethod="reflect"
       x1="9.4104776"
       y1="-6.2525191"
       x2="11.609575"
       y2="-7.0339308" />
    <linearGradient
       inkscape:collect="always"
       xlink:href="#linearGradient3370"
       id="linearGradient4048"
       gradientUnits="userSpaceOnUse"
       spreadMethod="reflect"
       x1="9.4104776"
       y1="-6.2525191"
       x2="11.609575"
       y2="-7.0339308" />
    <linearGradient
       inkscape:collect="always"
       xlink:href="#linearGradient3370"
       id="linearGradient4050"
       gradientUnits="userSpaceOnUse"
       spreadMethod="reflect"
       x1="9.4104776"
       y1="-6.2525191"
       x2="11.609575"
       y2="-7.0339308" />
    <linearGradient
       inkscape:collect="always"
       xlink:href="#linearGradient3370"
       id="linearGradient4052"
       gradientUnits="userSpaceOnUse"
       spreadMethod="reflect"
       x1="9.4104776"
       y1="-6.2525191"
       x2="11.609575"
       y2="-7.0339308" />
    <linearGradient
       inkscape:collect="always"
       xlink:href="#linearGradient3370"
       id="linearGradient4054"
       gradientUnits="userSpaceOnUse"
       spreadMethod="reflect"
       x1="9.4104776"
       y1="-6.2525191"
       x2="11.609575"
       y2="-7.0339308" />
    <linearGradient
       inkscape:collect="always"
       xlink:href="#linearGradient3370"
       id="linearGradient4056"
       gradientUnits="userSpaceOnUse"
       spreadMethod="reflect"
       x1="9.4104776"
       y1="-6.2525191"
       x2="11.609575"
       y2="-7.0339308" />
    <linearGradient
       inkscape:collect="always"
       xlink:href="#linearGradient3370"
       id="linearGradient4058"
       gradientUnits="userSpaceOnUse"
       spreadMethod="reflect"
       x1="9.4104776"
       y1="-6.2525191"
       x2="11.609575"
       y2="-7.0339308" />
    <linearGradient
       inkscape:collect="always"
       xlink:href="#linearGradient3370"
       id="linearGradient4060"
       gradientUnits="userSpaceOnUse"
       spreadMethod="reflect"
       x1="9.4104776"
       y1="-6.2525191"
       x2="11.609575"
       y2="-7.0339308" />
    <linearGradient
       inkscape:collect="always"
       xlink:href="#linearGradient3370"
       id="linearGradient4062"
       gradientUnits="userSpaceOnUse"
       spreadMethod="reflect"
       x1="9.4104776"
       y1="-6.2525191"
       x2="11.609575"
       y2="-7.0339308" />
    <linearGradient
       inkscape:collect="always"
       xlink:href="#linearGradient3370"
       id="linearGradient4064"
       gradientUnits="userSpaceOnUse"
       spreadMethod="reflect"
       x1="9.4104776"
       y1="-6.2525191"
       x2="11.609575"
       y2="-7.0339308" />
    <linearGradient
       inkscape:collect="always"
       xlink:href="#linearGradient3370"
       id="linearGradient4066"
       gradientUnits="userSpaceOnUse"
       spreadMethod="reflect"
       x1="9.4104776"
       y1="-6.2525191"
       x2="11.609575"
       y2="-7.0339308" />
    <linearGradient
       inkscape:collect="always"
       xlink:href="#linearGradient3370"
       id="linearGradient4068"
       gradientUnits="userSpaceOnUse"
       spreadMethod="reflect"
       x1="9.4104776"
       y1="-6.2525191"
       x2="11.609575"
       y2="-7.0339308" />
    <linearGradient
       inkscape:collect="always"
       xlink:href="#linearGradient3370"
       id="linearGradient4070"
       gradientUnits="userSpaceOnUse"
       spreadMethod="reflect"
       x1="9.4104776"
       y1="-6.2525191"
       x2="11.609575"
       y2="-7.0339308" />
  </defs>
  <sodipodi:namedview
     pagecolor="#ffffff"
     bordercolor="#666666"
     borderopacity="1"
     objecttolerance="10"
     gridtolerance="10"
     guidetolerance="10"
     inkscape:pageopacity="0"
     inkscape:pageshadow="2"
     inkscape:window-width="1920"
     inkscape:window-height="1051"
     id="namedview4"
     showgrid="false"
     inkscape:zoom="3.3789062"
     inkscape:cx="128"
     inkscape:cy="121.8227"
     inkscape:window-x="0"
     inkscape:window-y="0"
     inkscape:window-maximized="1"
     inkscape:current-layer="svg2" />
  <g
     id="g3945"
     transform="matrix(0.52244863,0,0,0.52244863,-13.090605,-33.458764)">
    <rect
       transform="matrix(0.99976645,0.02161115,-0.02161115,0.99976645,0,0)"
       rx="111.96617"
       ry="12.293261"
       y="487.64636"
       x="176.20372"
       height="28.761089"
       width="223.93234"
       id="rect3917"
       style="fill:#010101;fill-opacity:1;stroke:none" />
    <ellipse
       ry="17.167383"
       rx="110.19313"
       cy="421.01288"
       cx="258.47641"
       transform="matrix(1.0150577,0.02789733,-0.03279603,0.86343972,28.585034,134.59252)"
       id="path3901"
       style="fill:url(#radialGradient4077);fill-opacity:1;stroke:none" />
    <g
       transform="translate(8.1545063,87.76824)"
       id="g3891">
      <path
         sodipodi:nodetypes="ccccccc"
         inkscape:connector-curvature="0"
         id="path3815"
         d="m 240.45546,356.79614 8.89344,35.80781 c 1.73739,8.53505 -7.77037,11.90427 -14.97843,12.87209 21.92464,4.1988 44.95095,3.4401 68.10505,2.10634 -10.57667,-4.01445 -18.57506,-9.41719 -21.06341,-17.78689 l -8.89345,-31.59512 z"
         style="fill:#ffffff;fill-opacity:0.53913101;stroke:#2c2c2c;stroke-width:1px;stroke-linecap:round;stroke-linejoin:round;stroke-opacity:0.32608696" />
      <path
         sodipodi:nodetypes="ccccccc"
         inkscape:connector-curvature="0"
         id="path3817"
         d="m 245.6043,357.03018 8.19133,31.82916 c 0.83391,2.91979 1.805,5.7303 4.06411,5.57419 l 11.85047,-0.42536 c 2.69091,-0.13722 3.13237,-2.6399 2.57442,-5.85095 l -7.48922,-31.12704 z"
         style="fill:url(#linearGradient4079);fill-opacity:1;stroke:#2c2c2c;stroke-width:1px;stroke-linecap:butt;stroke-linejoin:miter;stroke-opacity:0.74347821" />
      <path
         style="fill:url(#linearGradient4081);fill-opacity:1;stroke:none"
         d="m 240.45546,356.90367 8.89344,35.80781 c 1.73739,8.53505 -7.77037,11.90427 -14.97843,12.87209 21.92464,4.1988 44.95095,3.4401 68.10505,2.10634 -10.57667,-4.01445 -18.57506,-9.41719 -21.06341,-17.78689 l -8.89345,-31.59512 z"
         id="path3819"
         inkscape:connector-curvature="0"
         sodipodi:nodetypes="ccccccc" />
      <path
         sodipodi:nodetypes="csc"
         inkscape:connector-curvature="0"
         id="path3821"
         d="m 283.92174,395.84768 c 0,2.99896 -7.60635,5.43011 -16.98925,5.43011 -9.3829,0 -16.98924,-2.43115 -16.98924,-5.43011"
         style="fill:none;stroke:#828282;stroke-width:1;stroke-linecap:round;stroke-linejoin:round;stroke-miterlimit:4;stroke-dasharray:none;stroke-opacity:0.32608696" />
      <path
         style="fill:none;stroke:#828282;stroke-width:1.03582108;stroke-linecap:round;stroke-linejoin:round;stroke-miterlimit:4;stroke-dasharray:none;stroke-opacity:0.32608696"
         d="m 285.64695,398.53585 c 0,2.99896 -8.16105,5.43011 -18.2282,5.43011 -10.06715,0 -18.22819,-2.43115 -18.22819,-5.43011"
         id="path3823"
         inkscape:connector-curvature="0"
         sodipodi:nodetypes="csc" />
      <path
         sodipodi:nodetypes="csc"
         inkscape:connector-curvature="0"
         id="path3825"
         d="m 281.6112,392.29929 c 0,2.99896 -7.06505,5.43011 -15.78021,5.43011 -8.71517,0 -15.78021,-2.43115 -15.78021,-5.43011"
         style="fill:none;stroke:#828282;stroke-width:0.96376091;stroke-linecap:round;stroke-linejoin:round;stroke-miterlimit:4;stroke-dasharray:none;stroke-opacity:0.32608696" />
      <path
         sodipodi:nodetypes="cccccc"
         inkscape:connector-curvature="0"
         id="path3827"
         d="m 264.43395,357.54883 7.71065,34.30243 c 16.13689,6.47759 4.77885,17.20536 30.33092,15.83865 -10.57667,-4.01445 -18.57506,-9.41719 -21.06341,-17.78689 l -8.89345,-31.59512 z"
         style="fill:url(#linearGradient4083);fill-opacity:1;stroke:none" />
      <path
         transform="translate(76.609442,-17.596567)"
         sodipodi:end="3.2909709"
         sodipodi:start="0"
         d="m 209.01287,414.897 a 18.133047,8.4763947 0 0 1 -9.85937,7.54262 18.133047,8.4763947 0 0 1 -18.85656,-0.65958 18.133047,8.4763947 0 0 1 -7.34823,-8.14452 l 17.93111,1.26148 z"
         sodipodi:ry="8.4763947"
         sodipodi:rx="18.133047"
         sodipodi:cy="414.897"
         sodipodi:cx="190.87982"
         id="path3829"
         style="fill:#010101;fill-opacity:0.37826089;stroke:none"
         sodipodi:type="arc" />
    </g>
    <path
       sodipodi:nodetypes="ccccccc"
       inkscape:connector-curvature="0"
       id="path3837"
       d="m 250.88751,513.8184 5.89533,-9.50819 c 2.19978,-6.78428 -7.11032,-9.90941 -14.25495,-11.00345 22.12082,-2.41351 45.07161,-0.79387 68.11866,1.29361 -10.77966,2.76299 -19.0605,6.75495 -22.00111,13.37339 l -5.66584,6.12202 z"
       style="fill:#ffffff;fill-opacity:0.53913101;stroke:#2c2c2c;stroke-width:0.89721543px;stroke-linecap:round;stroke-linejoin:round;stroke-opacity:0.32608696" />
    <path
       sodipodi:nodetypes="cccccc"
       inkscape:connector-curvature="0"
       id="path3839"
       d="m 257.11442,513.2123 3.90455,-5.69716 c 0.99174,-2.31036 2.11449,-4.52686 4.36174,-4.30231 l 11.8097,0.8616 c 2.67944,0.2283 2.98391,2.25932 2.25186,4.81589 l -3.16524,5.16359"
       style="fill:url(#linearGradient4085);fill-opacity:1;stroke:#2c2c2c;stroke-width:0.89721543px;stroke-linecap:butt;stroke-linejoin:miter;stroke-opacity:0.74347821" />
    <path
       style="fill:url(#linearGradient4087);fill-opacity:1;stroke:none"
       d="m 251.96633,513.51738 4.82237,-9.2936 c 2.19978,-6.78428 -7.11032,-9.90941 -14.25495,-11.00345 22.12082,-2.41351 45.07161,-0.79387 68.11866,1.29361 -10.77966,2.76298 -19.0605,6.75494 -22.00111,13.37338 l -4.59289,5.90744 z"
       id="path3841"
       inkscape:connector-curvature="0"
       sodipodi:nodetypes="ccccccc" />
    <path
       sodipodi:nodetypes="csc"
       inkscape:connector-curvature="0"
       id="path3843"
       d="m 291.48105,503.21906 c 0.16338,-2.41056 -7.29924,-4.69829 -16.6682,-5.10977 -9.36897,-0.41148 -17.09646,1.20911 -17.25983,3.61968"
       style="fill:none;stroke:#828282;stroke-width:0.89721543;stroke-linecap:round;stroke-linejoin:round;stroke-miterlimit:4;stroke-dasharray:none;stroke-opacity:0.32608696" />
    <path
       style="fill:none;stroke:#828282;stroke-width:0.92935467;stroke-linecap:round;stroke-linejoin:round;stroke-miterlimit:4;stroke-dasharray:none;stroke-opacity:0.32608696"
       d="m 293.35014,501.13397 c 0.16338,-2.41056 -7.85311,-4.72262 -17.90531,-5.1641 -10.0522,-0.44149 -18.33356,1.15477 -18.49694,3.56534"
       id="path3845"
       inkscape:connector-curvature="0"
       sodipodi:nodetypes="csc" />
    <path
       sodipodi:nodetypes="csc"
       inkscape:connector-curvature="0"
       id="path3847"
       d="m 288.98064,505.96993 c 0.16337,-2.41056 -6.75874,-4.67455 -15.46096,-5.05675 -8.70223,-0.38219 -15.88922,1.26214 -16.0526,3.6727"
       style="fill:none;stroke:#828282;stroke-width:0.86470115;stroke-linecap:round;stroke-linejoin:round;stroke-miterlimit:4;stroke-dasharray:none;stroke-opacity:0.32608696" />
    <path
       sodipodi:nodetypes="cccccc"
       inkscape:connector-curvature="0"
       id="path3849"
       d="m 276.80273,515.12331 2.70096,-9.2084 c 16.4658,-4.49902 5.70905,-13.6201 31.14872,-11.40097 -10.77966,2.76298 -19.0605,6.75494 -22.00111,13.37338 l -3.73452,6.9804 z"
       style="fill:url(#linearGradient4089);fill-opacity:1;stroke:none" />
    <path
       transform="matrix(0.998515,0.04385407,0.05447741,-0.80380009,61.953238,826.4541)"
       sodipodi:end="3.2909709"
       sodipodi:start="0"
       d="m 209.01287,414.897 a 18.133047,8.4763947 0 0 1 -9.85937,7.54262 18.133047,8.4763947 0 0 1 -18.85656,-0.65958 18.133047,8.4763947 0 0 1 -7.34823,-8.14452 l 17.93111,1.26148 z"
       sodipodi:ry="8.4763947"
       sodipodi:rx="18.133047"
       sodipodi:cy="414.897"
       sodipodi:cx="190.87982"
       id="path3851"
       style="fill:#010101;fill-opacity:0.37826089;stroke:none"
       sodipodi:type="arc" />
    <path
       sodipodi:nodetypes="csc"
       inkscape:connector-curvature="0"
       id="path3919"
       d="m 165.45064,501.05579 c 7.41211,9.94494 66.19427,12.05393 106.22318,13.51932 39.0143,1.42824 78.54186,2.87051 116.5236,-6.65236"
       style="fill:none;stroke:url(#linearGradient4091);stroke-width:1px;stroke-linecap:round;stroke-linejoin:round;stroke-opacity:1" />
    <path
       style="fill:none;stroke:url(#linearGradient4093);stroke-width:0.40000001;stroke-linecap:round;stroke-linejoin:round;stroke-miterlimit:4;stroke-dasharray:none;stroke-opacity:1"
       d="m 165.45064,501.05579 c 7.41211,9.94494 66.19427,12.05393 106.22318,13.51932 39.0143,1.42824 78.54186,2.87051 116.5236,-6.65236"
       id="path3943"
       inkscape:connector-curvature="0"
       sodipodi:nodetypes="csc" />
  </g>
  <path
     style="fill:#000000;fill-opacity:1;stroke:#5f5f5f;stroke-width:0.52244866;stroke-opacity:1"
     d="M 31.915788,52.129343 243.65819,29.523393 c 3.04405,-0.324988 5.59471,2.465324 5.5259,5.525899 -1.40897,62.670137 -2.76688,106.703218 -6.27943,160.753418 -0.19853,3.0549 -1.7115,7.58961 -4.77237,7.53532 -97.45676,-1.72858 -135.38452,-3.08482 -223.798908,-9.29356 -3.053828,-0.21445 -5.9335498,-2.49181 -5.5258993,-5.5259 L 26.389888,57.655242 c 0.407651,-3.034085 2.48185,-5.200912 5.5259,-5.525899 z"
     id="rect2987"
     inkscape:connector-curvature="0"
     sodipodi:nodetypes="sssssssss" />
  <path
     sodipodi:nodetypes="sssssssss"
     inkscape:connector-curvature="0"
     id="path3758"
     d="M 39.950572,62.082521 230.4048,42.223546 c 2.75225,-0.286981 5.52602,1.648845 5.46378,4.274411 -1.27429,53.762643 -3.24036,84.507173 -6.41716,130.875063 -0.17956,2.6207 -3.10218,6.46378 -5.86979,6.38662 -88.14131,-2.45732 -121.78418,-3.45033 -201.732955,-5.81549 -2.054695,-0.0608 -3.564756,-2.59488 -3.178768,-5.19521 L 34.370273,66.978368 c 0.385989,-2.600333 2.828058,-4.608866 5.580299,-4.895847 z"
     style="fill:#353535;fill-opacity:1;stroke:url(#linearGradient3842);stroke-width:1.04489732;stroke-miterlimit:4;stroke-dasharray:none;stroke-opacity:1" />
  <path
     inkscape:connector-curvature="0"
     style="fill:url(#linearGradient3839);fill-opacity:1;stroke:none"
     d="m 244.21831,29.498275 c -0.18588,-0.0033 -0.36484,0.01234 -0.5551,0.03265 L 31.908252,52.126831 c -3.044049,0.324987 -5.110713,2.500605 -5.518364,5.53469 L 8.8062267,188.51857 c -0.4076505,3.03409 2.4808623,5.30392 5.5346903,5.51837 88.414383,6.20873 126.330833,7.57754 223.787603,9.30611 3.06087,0.0543 4.58514,-4.48795 4.78367,-7.54285 3.51255,-54.05021 4.86042,-98.080771 6.26939,-160.750909 0.0645,-2.869289 -2.17507,-5.501037 -4.96327,-5.551016 z m -13.28978,12.702032 c 2.57228,-0.01417 5.00527,1.832406 4.94693,4.293875 -1.27429,53.762638 -3.23952,84.505488 -6.41632,130.873378 -0.17955,2.6207 -3.10994,6.47716 -5.87755,6.4 -88.14131,-2.45732 -121.7817,-3.46342 -201.730474,-5.82857 -2.054695,-0.0608 -3.569659,-2.5915 -3.183671,-5.19184 L 34.373557,66.983964 c 0.385988,-2.600334 2.831428,-4.610975 5.583669,-4.897956 L 230.40608,42.216633 c 0.17201,-0.01794 0.35096,-0.01538 0.52245,-0.01633 z"
     id="path3989" />
  <ellipse
     ry="4.8411388"
     rx="6.2755504"
     cy="191.24844"
     cx="175.86923"
     style="fill:url(#radialGradient4103);fill-opacity:1;stroke:url(#linearGradient4105);stroke-width:0.52244866"
     id="path4020" />
  <ellipse
     ry="4.8411388"
     rx="6.2755504"
     cy="186.92796"
     cx="52.015247"
     id="path4040"
     style="fill:url(#radialGradient4107);fill-opacity:1;stroke:url(#linearGradient4109);stroke-width:0.52244866" />
  <path
     style="fill:url(#linearGradient3834);fill-opacity:1;stroke:url(#linearGradient3836);stroke-width:1.04489732;stroke-miterlimit:4;stroke-dasharray:none;stroke-opacity:1"
     d="m 114.1588,180.88138 c -43.824667,-0.42444 -12.55544,0.35473 -92.504211,-2.01043 -2.0547,-0.0608 -3.56476,-2.59488 -3.17877,-5.19521 L 34.176185,67.905168 c 0.385989,-2.600333 2.825349,-4.636157 5.580299,-4.895847 l 92.063126,-8.678167"
     id="path4002"
     inkscape:connector-curvature="0"
     sodipodi:nodetypes="cssssc" />
  <g
     inkscape:label="Layer 1"
     id="layer1"
     transform="translate(-1.2602454,-2.5485871)">
    <g
       id="g3456">
      <g
         id="g3428">
        <g
           id="g3401">
          <g
             style="font-size:14px;font-style:normal;font-weight:normal;fill:url(#linearGradient3376);fill-opacity:1;stroke:none;font-family:Bitstream Vera Sans"
             id="g3254">
            <path
               d="m 13.807087,-5.6925853 -1.4375,-3.8125 1.131371,1.1313709 1.4375,3.8125 -1.131371,-1.1313709 z"
               id="path3300"
               style="fill:url(#linearGradient3386);fill-opacity:1;stroke:none"
               inkscape:connector-curvature="0" />
            <path
               style="fill:url(#linearGradient3388);fill-opacity:1;stroke:none"
               d="m 12.375,-9.5 1.125,1.125 1.09375,0 c 0.642573,9e-6 1.149085,0.167327 1.5,0.5 L 14.96875,-9 c -0.350916,-0.332673 -0.857427,-0.4999913 -1.5,-0.5 l -1.09375,0 z"
               id="path3288"
               inkscape:connector-curvature="0" />
            <path
               d="m 14.991868,-8.9773043 c 0.332146,0.3321454 0.502713,0.8158247 0.502719,1.409719 l 1.131371,1.1313709 c -6e-6,-0.5938943 -0.170574,-1.0775736 -0.502719,-1.409719 l -1.131371,-1.1313709 z"
               id="path3294"
               style="fill:url(#linearGradient4042);fill-opacity:1;stroke:none"
               inkscape:connector-curvature="0" />
            <path
               d="m 15.494587,-7.5675853 c -6e-6,0.615241 -0.180344,1.073574 -0.53125,1.40625 l 1.131371,1.1313709 c 0.350906,-0.332676 0.531244,-0.791009 0.53125,-1.40625 l -1.131371,-1.1313709 z"
               id="path3296"
               style="fill:url(#linearGradient4044);fill-opacity:1;stroke:none"
               inkscape:connector-curvature="0" />
            <path
               d="m 14.963337,-6.1613353 c -0.286479,0.271597 -0.675393,0.418881 -1.15625,0.46875 l 1.131371,1.1313709 c 0.480857,-0.049869 0.869771,-0.197153 1.15625,-0.46875 l -1.131371,-1.1313709 z"
               id="path3298"
               style="fill:url(#linearGradient4046);fill-opacity:1;stroke:none"
               inkscape:connector-curvature="0" />
            <path
               d="m 9.9475186,-5.6345243 1.1929404,-3.047568 1.131371,1.1313709 -1.192941,3.047568 -1.1313704,-1.1313709 z"
               id="path3306"
               style="fill:url(#linearGradient3391);fill-opacity:1;stroke:none"
               inkscape:connector-curvature="0" />
            <path
               d="m 16.057087,-9.8488353 c -0.58334,-0.5195207 -1.449875,-0.7812397 -2.59375,-0.7812497 l 1.131371,1.1313709 c 1.143875,1e-5 2.01041,0.261729 2.59375,0.7812497 l -1.131371,-1.1313709 z"
               id="path3280"
               style="fill:url(#linearGradient4048);fill-opacity:1;stroke:none"
               inkscape:connector-curvature="0" />
            <path
               d="m 13.463337,-10.630085 -1.53125,0 1.131371,1.1313709 1.53125,0 -1.131371,-1.1313709 z"
               id="path3282"
               style="fill:url(#linearGradient4050);fill-opacity:1;stroke:none"
               inkscape:connector-curvature="0" />
            <path
               d="m 11.932087,-10.630085 -1.5625,0 1.131371,1.1313709 1.5625,0 -1.131371,-1.1313709 z"
               id="path3284"
               style="fill:url(#linearGradient4052);fill-opacity:1;stroke:none"
               inkscape:connector-curvature="0" />
            <path
               d="M 10.369587,-10.598835 6.9504776,-1.4142743 8.0818485,-0.28290343 11.500958,-9.4674641 10.369587,-10.598835 z"
               id="path3258"
               style="fill:url(#linearGradient4054);fill-opacity:1;stroke:none"
               inkscape:connector-curvature="0" />
            <path
               d="m 10.338337,-10.630085 0.03125,0.03125 1.131371,1.1313709 -0.03125,-0.03125 -1.131371,-1.1313709 z"
               id="path3256"
               style="fill:url(#linearGradient4056);fill-opacity:1;stroke:none"
               inkscape:connector-curvature="0" />
            <path
               d="m 6.9504776,-1.4142743 1.4375,0.028655 1.1313709,1.13137087 -1.4375,-0.028655 -1.1313709,-1.13137087 z"
               id="path3260"
               style="fill:url(#linearGradient3397);fill-opacity:1;stroke:none"
               inkscape:connector-curvature="0" />
            <path
               d="m 8.3879776,-1.3856193 1.236663,-3.149966 1.1313704,1.1313709 -1.2366625,3.14996597 -1.1313709,-1.13137087 z"
               id="path3262"
               style="fill:url(#linearGradient3395);fill-opacity:1;stroke:none"
               inkscape:connector-curvature="0" />
            <path
               d="m 9.6246406,-4.5355853 3.2327334,0 1.131371,1.1313709 -3.232734,0 -1.1313704,-1.1313709 z"
               id="path3264"
               style="fill:url(#linearGradient3393);fill-opacity:1;stroke:none"
               inkscape:connector-curvature="0" />
            <path
               d="m 12.857374,-4.5355853 1.225659,3.149967 1.131371,1.13137087 -1.225659,-3.14996697 -1.131371,-1.1313709 z"
               id="path3266"
               style="fill:url(#linearGradient4058);fill-opacity:1;stroke:none"
               inkscape:connector-curvature="0" />
            <path
               d="m 14.083033,-1.3856183 1.4375,0 1.131371,1.13137087 -1.4375,0 -1.131371,-1.13137087 z"
               id="path3268"
               style="fill:url(#linearGradient3399);fill-opacity:1;stroke:none"
               inkscape:connector-curvature="0" />
            <path
               d="m 15.520533,-1.3856183 -1.275946,-3.181967 1.131371,1.1313709 1.275946,3.18196697 -1.131371,-1.13137087 z"
               id="path3270"
               style="fill:url(#linearGradient4060);fill-opacity:1;stroke:none"
               inkscape:connector-curvature="0" />
            <path
               style="fill:url(#linearGradient3384);fill-opacity:1;stroke:none"
               d="m 16.15625,-9.75 c 0.512125,0.5121258 0.781243,1.255271 0.78125,2.1875 -7e-6,1.007168 -0.287117,1.7662812 -0.875,2.28125 -0.443081,0.391156 -1.04603,0.6247032 -1.8125,0.71875 l 1.125,1.125 c 0.76647,-0.094047 1.36942,-0.327594 1.8125,-0.71875 0.587883,-0.514969 0.874994,-1.274082 0.875,-2.28125 -8e-6,-0.9322293 -0.237875,-1.675374 -0.75,-2.1875 L 16.15625,-9.75 z"
               id="path3272"
               inkscape:connector-curvature="0" />
            <path
               d="m 16.16946,-9.7436677 c -0.03615,-0.036153 -0.07361,-0.071211 -0.112373,-0.1051676 l 1.131371,1.1313709 c 0.03876,0.033957 0.07622,0.069015 0.112373,0.1051675 L 16.16946,-9.7436677 z"
               id="path3278"
               style="fill:url(#linearGradient4062);fill-opacity:1;stroke:none"
               inkscape:connector-curvature="0" />
            <path
               d="m 10.369587,-10.630085 -0.03125,0 1.131371,1.1313709 0.03125,0 -1.131371,-1.1313709 z"
               id="path3286"
               style="fill:url(#linearGradient4064);fill-opacity:1;stroke:none"
               inkscape:connector-curvature="0" />
            <path
               d="m 14.963337,-9.0050853 c 0.0096,0.00914 0.01915,0.018399 0.02853,0.027781 l 1.131371,1.1313709 c -0.0094,-0.00938 -0.01889,-0.018642 -0.02853,-0.027781 l -1.131371,-1.1313709 z"
               id="path3292"
               style="fill:url(#linearGradient4066);fill-opacity:1;stroke:none"
               inkscape:connector-curvature="0" />
            <path
               d="m 11.140459,-8.6820923 1.185665,2.990257 1.131371,1.1313709 -1.185665,-2.990257 -1.131371,-1.1313709 z"
               id="path3302"
               style="fill:url(#linearGradient4068);fill-opacity:1;stroke:none"
               inkscape:connector-curvature="0" />
            <path
               d="m 12.326124,-5.6918353 -2.3786054,0.057311 1.1313704,1.1313709 2.378606,-0.057311 -1.131371,-1.1313709 z"
               id="path3304"
               style="fill:url(#linearGradient4070);fill-opacity:1;stroke:none"
               inkscape:connector-curvature="0" />
          </g>
          <path
             style="font-size:14px;font-style:normal;font-weight:normal;fill:#454545;fill-opacity:1;stroke:none;font-family:Bitstream Vera Sans"
             d="m 10.400579,-10.618865 0.03125,0.03125 -3.4191096,9.1845594 1.4375,0.028655 1.2366631,-3.149966 3.1850285,0.035779 1.273364,3.1141882 1.4375,0 -1.275946,-3.181967 c 0.76647,-0.094047 1.369419,-0.327594 1.8125,-0.71875 0.587883,-0.514969 0.874993,-1.274082 0.875,-2.28125 -8e-6,-0.998038 -0.287116,-1.766267 -0.875,-2.2812505 -0.58334,-0.5195191 -1.449875,-0.7812381 -2.59375,-0.7812481 l -1.53125,0 -1.5625,0 -0.03125,0 z m 2.03125,1.1249984 1.09375,0 c 0.642573,9e-6 1.095632,0.2207787 1.446548,0.5534517 0.350905,0.332691 0.584696,0.7733793 0.584702,1.3840483 -6e-6,0.615241 -0.180344,1.073574 -0.53125,1.40625 -0.286479,0.271597 -0.675393,0.418881 -1.15625,0.46875 l -1.4375,-3.8125 z m -1.246945,0.9833482 1.096579,2.847719 -2.271702,0.039494 1.175123,-2.8872128 z"
             id="text2383"
             sodipodi:nodetypes="cccccccccsssccccccssscccccc"
             inkscape:connector-curvature="0" />
        </g>
      </g>
    </g>
  </g>
</svg>
