<?xml version="1.0" encoding="UTF-8" standalone="no"?>
<!-- Created with Inkscape (http://www.inkscape.org/) -->

<svg
   xmlns:dc="http://purl.org/dc/elements/1.1/"
   xmlns:cc="http://creativecommons.org/ns#"
   xmlns:rdf="http://www.w3.org/1999/02/22-rdf-syntax-ns#"
   xmlns:svg="http://www.w3.org/2000/svg"
   xmlns="http://www.w3.org/2000/svg"
   xmlns:xlink="http://www.w3.org/1999/xlink"
   xmlns:sodipodi="http://sodipodi.sourceforge.net/DTD/sodipodi-0.dtd"
   xmlns:inkscape="http://www.inkscape.org/namespaces/inkscape"
   id="svg2"
   version="1.1"
   inkscape:version="0.91 r13725"
   width="256"
   height="256"
   sodipodi:docname="folder-video-adventure.svg">
  <metadata
     id="metadata8">
    <rdf:RDF>
      <cc:Work
         rdf:about="">
        <dc:format>image/svg+xml</dc:format>
        <dc:type
           rdf:resource="http://purl.org/dc/dcmitype/StillImage" />
        <dc:title />
      </cc:Work>
    </rdf:RDF>
  </metadata>
  <defs
     id="defs6">
    <linearGradient
       id="linearGradient4305">
      <stop
         style="stop-color:#4c2c00;stop-opacity:1;"
         offset="0"
         id="stop4307" />
      <stop
         style="stop-color:#e3a139;stop-opacity:1;"
         offset="1"
         id="stop4309" />
    </linearGradient>
    <linearGradient
       id="linearGradient3757">
      <stop
         style="stop-color:#000000;stop-opacity:1;"
         offset="0"
         id="stop3759" />
      <stop
         id="stop3767"
         offset="0.16339236"
         style="stop-color:#404040;stop-opacity:1;" />
      <stop
         id="stop3765"
         offset="0.87317866"
         style="stop-color:#363636;stop-opacity:1;" />
      <stop
         style="stop-color:#000000;stop-opacity:1;"
         offset="1"
         id="stop3761" />
    </linearGradient>
    <linearGradient
       inkscape:collect="always"
       xlink:href="#linearGradient3757"
       id="linearGradient3775"
       gradientUnits="userSpaceOnUse"
       x1="59.290558"
       y1="73.216911"
       x2="138.9702"
       y2="212.44003" />
    <linearGradient
       y2="-7.4748664"
       x2="16.093008"
       y1="-7.4748664"
       x1="13.514812"
       spreadMethod="reflect"
       gradientUnits="userSpaceOnUse"
       id="linearGradient3517"
       xlink:href="#linearGradient3578"
       inkscape:collect="always" />
    <linearGradient
       y2="-7.4748664"
       x2="16.093008"
       y1="-7.4748664"
       x1="13.514812"
       spreadMethod="reflect"
       gradientUnits="userSpaceOnUse"
       id="linearGradient3515"
       xlink:href="#linearGradient3578"
       inkscape:collect="always" />
    <linearGradient
       y2="-7.4748664"
       x2="16.093008"
       y1="-7.4748664"
       x1="13.514812"
       spreadMethod="reflect"
       gradientUnits="userSpaceOnUse"
       id="linearGradient3513"
       xlink:href="#linearGradient3578"
       inkscape:collect="always" />
    <linearGradient
       y2="-7.4748664"
       x2="16.093008"
       y1="-7.4748664"
       x1="13.514812"
       spreadMethod="reflect"
       gradientUnits="userSpaceOnUse"
       id="linearGradient3511"
       xlink:href="#linearGradient3578"
       inkscape:collect="always" />
    <linearGradient
       y2="-7.4748664"
       x2="16.093008"
       y1="-7.4748664"
       x1="13.514812"
       spreadMethod="reflect"
       gradientUnits="userSpaceOnUse"
       id="linearGradient3509"
       xlink:href="#linearGradient3578"
       inkscape:collect="always" />
    <linearGradient
       y2="-7.4748664"
       x2="16.093008"
       y1="-7.4748664"
       x1="13.514812"
       spreadMethod="reflect"
       gradientUnits="userSpaceOnUse"
       id="linearGradient3507"
       xlink:href="#linearGradient3578"
       inkscape:collect="always" />
    <linearGradient
       y2="-7.4748664"
       x2="16.093008"
       y1="-7.4748664"
       x1="13.514812"
       spreadMethod="reflect"
       gradientUnits="userSpaceOnUse"
       id="linearGradient3505"
       xlink:href="#linearGradient3578"
       inkscape:collect="always" />
    <linearGradient
       y2="-7.4748664"
       x2="16.093008"
       y1="-7.4748664"
       x1="13.514812"
       spreadMethod="reflect"
       gradientUnits="userSpaceOnUse"
       id="linearGradient3503"
       xlink:href="#linearGradient3578"
       inkscape:collect="always" />
    <linearGradient
       y2="-7.4748664"
       x2="16.093008"
       y1="-7.4748664"
       x1="13.514812"
       spreadMethod="reflect"
       gradientUnits="userSpaceOnUse"
       id="linearGradient3501"
       xlink:href="#linearGradient3578"
       inkscape:collect="always" />
    <linearGradient
       y2="-7.4748664"
       x2="16.093008"
       y1="-7.4748664"
       x1="13.514812"
       spreadMethod="reflect"
       gradientUnits="userSpaceOnUse"
       id="linearGradient3499"
       xlink:href="#linearGradient3578"
       inkscape:collect="always" />
    <linearGradient
       y2="-7.4748664"
       x2="16.093008"
       y1="-7.4748664"
       x1="13.514812"
       spreadMethod="reflect"
       gradientUnits="userSpaceOnUse"
       id="linearGradient3497"
       xlink:href="#linearGradient3578"
       inkscape:collect="always" />
    <linearGradient
       y2="-7.4748664"
       x2="16.093008"
       y1="-7.4748664"
       x1="13.514812"
       spreadMethod="reflect"
       gradientUnits="userSpaceOnUse"
       id="linearGradient3495"
       xlink:href="#linearGradient3578"
       inkscape:collect="always" />
    <linearGradient
       y2="-7.4748664"
       x2="16.093008"
       y1="-7.4748664"
       x1="13.514812"
       spreadMethod="reflect"
       gradientUnits="userSpaceOnUse"
       id="linearGradient3493"
       xlink:href="#linearGradient3578"
       inkscape:collect="always" />
    <linearGradient
       y2="-7.4748664"
       x2="16.093008"
       y1="-7.4748664"
       x1="13.514812"
       spreadMethod="reflect"
       gradientUnits="userSpaceOnUse"
       id="linearGradient3491"
       xlink:href="#linearGradient3578"
       inkscape:collect="always" />
    <linearGradient
       y2="-7.4748664"
       x2="16.093008"
       y1="-7.4748664"
       x1="13.514812"
       spreadMethod="reflect"
       gradientUnits="userSpaceOnUse"
       id="linearGradient3489"
       xlink:href="#linearGradient3578"
       inkscape:collect="always" />
    <linearGradient
       y2="-7.4748664"
       x2="16.093008"
       y1="-7.4748664"
       x1="13.514812"
       spreadMethod="reflect"
       gradientUnits="userSpaceOnUse"
       id="linearGradient3487"
       xlink:href="#linearGradient3578"
       inkscape:collect="always" />
    <linearGradient
       y2="-7.4748664"
       x2="16.093008"
       y1="-7.4748664"
       x1="13.514812"
       spreadMethod="reflect"
       gradientUnits="userSpaceOnUse"
       id="linearGradient3485"
       xlink:href="#linearGradient3578"
       inkscape:collect="always" />
    <linearGradient
       y2="-7.4748664"
       x2="16.093008"
       y1="-7.4748664"
       x1="13.514812"
       spreadMethod="reflect"
       gradientUnits="userSpaceOnUse"
       id="linearGradient3483"
       xlink:href="#linearGradient3578"
       inkscape:collect="always" />
    <linearGradient
       y2="-7.4748664"
       x2="16.093008"
       y1="-7.4748664"
       x1="13.514812"
       spreadMethod="reflect"
       gradientUnits="userSpaceOnUse"
       id="linearGradient3481"
       xlink:href="#linearGradient3578"
       inkscape:collect="always" />
    <linearGradient
       y2="-7.4748664"
       x2="16.093008"
       y1="-7.4748664"
       x1="13.514812"
       spreadMethod="reflect"
       gradientUnits="userSpaceOnUse"
       id="linearGradient3479"
       xlink:href="#linearGradient3578"
       inkscape:collect="always" />
    <linearGradient
       y2="-7.4748664"
       x2="16.093008"
       y1="-7.4748664"
       x1="13.514812"
       spreadMethod="reflect"
       gradientUnits="userSpaceOnUse"
       id="linearGradient3477"
       xlink:href="#linearGradient3578"
       inkscape:collect="always" />
    <linearGradient
       y2="-7.4748664"
       x2="16.093008"
       y1="-7.4748664"
       x1="13.514812"
       spreadMethod="reflect"
       gradientUnits="userSpaceOnUse"
       id="linearGradient3475"
       xlink:href="#linearGradient3578"
       inkscape:collect="always" />
    <linearGradient
       y2="-7.4748664"
       x2="16.093008"
       y1="-7.4748664"
       x1="13.514812"
       spreadMethod="reflect"
       gradientUnits="userSpaceOnUse"
       id="linearGradient3473"
       xlink:href="#linearGradient3578"
       inkscape:collect="always" />
    <linearGradient
       id="linearGradient3578">
      <stop
         style="stop-color:#000000;stop-opacity:1;"
         offset="0"
         id="stop3580" />
      <stop
         style="stop-color:#fffcfc;stop-opacity:1;"
         offset="1"
         id="stop3582" />
    </linearGradient>
    <inkscape:perspective
       id="perspective2503"
       inkscape:persp3d-origin="128 : 85.333333 : 1"
       inkscape:vp_z="256 : 128 : 1"
       inkscape:vp_y="0 : 1000 : 0"
       inkscape:vp_x="0 : 128 : 1"
       sodipodi:type="inkscape:persp3d" />
    <linearGradient
       inkscape:collect="always"
       xlink:href="#linearGradient3578"
       id="linearGradient3584"
       x1="13.514812"
       y1="-7.4748664"
       x2="16.093008"
       y2="-7.4748664"
       gradientUnits="userSpaceOnUse"
       spreadMethod="reflect" />
    <linearGradient
       inkscape:collect="always"
       xlink:href="#linearGradient3578"
       id="linearGradient3586"
       gradientUnits="userSpaceOnUse"
       spreadMethod="reflect"
       x1="16.908924"
       y1="-5.2121248"
       x2="18.616835"
       y2="-6.5828238" />
    <linearGradient
       inkscape:collect="always"
       xlink:href="#linearGradient3578"
       id="linearGradient3588"
       gradientUnits="userSpaceOnUse"
       spreadMethod="reflect"
       x1="13.514812"
       y1="-7.4748664"
       x2="17.07476"
       y2="-8.018795" />
    <linearGradient
       inkscape:collect="always"
       xlink:href="#linearGradient3578"
       id="linearGradient3590"
       gradientUnits="userSpaceOnUse"
       spreadMethod="reflect"
       x1="16.386753"
       y1="-5.9083529"
       x2="17.74655"
       y2="-6.9526954" />
    <linearGradient
       inkscape:collect="always"
       xlink:href="#linearGradient3578"
       id="linearGradient3592"
       gradientUnits="userSpaceOnUse"
       spreadMethod="reflect"
       x1="12.905613"
       y1="-10.150993"
       x2="11.371711"
       y2="-5.7778101" />
    <linearGradient
       inkscape:collect="always"
       xlink:href="#linearGradient3578"
       id="linearGradient3594"
       gradientUnits="userSpaceOnUse"
       spreadMethod="reflect"
       x1="12.035328"
       y1="-11.586965"
       x2="8.6955833"
       y2="-2.6882975" />
    <linearGradient
       inkscape:collect="always"
       xlink:href="#linearGradient3578"
       id="linearGradient3596"
       gradientUnits="userSpaceOnUse"
       spreadMethod="reflect"
       x1="16.386753"
       y1="-11.39115"
       x2="11.132382"
       y2="-11.199143" />
    <linearGradient
       inkscape:collect="always"
       xlink:href="#linearGradient3578"
       id="linearGradient3598"
       gradientUnits="userSpaceOnUse"
       spreadMethod="reflect"
       x1="16.691353"
       y1="-10.977764"
       x2="16.093008"
       y2="-7.4748664" />
    <linearGradient
       inkscape:collect="always"
       xlink:href="#linearGradient3578"
       id="linearGradient3600"
       gradientUnits="userSpaceOnUse"
       spreadMethod="reflect"
       x1="15.58174"
       y1="-6.2564669"
       x2="17.376678"
       y2="-1.9920692" />
    <linearGradient
       inkscape:collect="always"
       xlink:href="#linearGradient3578"
       id="linearGradient3602"
       gradientUnits="userSpaceOnUse"
       spreadMethod="reflect"
       x1="17.082983"
       y1="-2.2749119"
       x2="14.93988"
       y2="-3.7326398" />
    <linearGradient
       inkscape:collect="always"
       xlink:href="#linearGradient3578"
       id="linearGradient3604"
       gradientUnits="userSpaceOnUse"
       spreadMethod="reflect"
       x1="7.7709298"
       y1="-3.7543969"
       x2="12.916467"
       y2="-4.5158963" />
    <linearGradient
       inkscape:collect="always"
       xlink:href="#linearGradient3578"
       id="linearGradient3606"
       gradientUnits="userSpaceOnUse"
       spreadMethod="reflect"
       x1="11.186799"
       y1="-5.8865957"
       x2="9.7181683"
       y2="-1.5134122" />
    <linearGradient
       inkscape:collect="always"
       xlink:href="#linearGradient3578"
       id="linearGradient3608"
       gradientUnits="userSpaceOnUse"
       spreadMethod="reflect"
       x1="10.621114"
       y1="-6.4087667"
       x2="16.093008"
       y2="-7.4748664" />
    <linearGradient
       inkscape:collect="always"
       xlink:href="#linearGradient3578"
       id="linearGradient3610"
       gradientUnits="userSpaceOnUse"
       spreadMethod="reflect"
       x1="15.650429"
       y1="-2.2096405"
       x2="16.093008"
       y2="-7.4748664" />
    <linearGradient
       y2="15.121195"
       x2="91.751472"
       y1="92.807144"
       x1="57.165375"
       gradientUnits="userSpaceOnUse"
       id="linearGradient3206"
       xlink:href="#linearGradient3168"
       inkscape:collect="always" />
    <linearGradient
       y2="70.425697"
       x2="51.662651"
       y1="17.477911"
       x1="71.453812"
       spreadMethod="reflect"
       gradientTransform="translate(2.5702815,-6.1686747)"
       gradientUnits="userSpaceOnUse"
       id="linearGradient3204"
       xlink:href="#linearGradient2388"
       inkscape:collect="always" />
    <inkscape:perspective
       id="perspective9"
       inkscape:persp3d-origin="372.04724 : 350.78739 : 1"
       inkscape:vp_z="744.09448 : 526.18109 : 1"
       inkscape:vp_y="0 : 1000 : 0"
       inkscape:vp_x="0 : 526.18109 : 1"
       sodipodi:type="inkscape:persp3d" />
    <linearGradient
       id="linearGradient2388"
       inkscape:collect="always">
      <stop
         id="stop2390"
         offset="0"
         style="stop-color:#ffffff;stop-opacity:1" />
      <stop
         id="stop2392"
         offset="1"
         style="stop-color:#ffffff;stop-opacity:0" />
    </linearGradient>
    <linearGradient
       id="linearGradient3168"
       inkscape:collect="always">
      <stop
         id="stop3170"
         offset="0"
         style="stop-color:#000000;stop-opacity:1;" />
      <stop
         id="stop3172"
         offset="1"
         style="stop-color:#ffffff;stop-opacity:1" />
    </linearGradient>
    <linearGradient
       gradientTransform="matrix(0.64072597,0,0,0.64072597,3.9169621,46.633713)"
       gradientUnits="userSpaceOnUse"
       y2="50.552528"
       x2="125.21412"
       y1="26.217417"
       x1="114.18781"
       id="linearGradient3838"
       xlink:href="#linearGradient3832"
       inkscape:collect="always" />
    <linearGradient
       gradientTransform="translate(-126.29452,375.27515)"
       y2="116.74062"
       x2="311.32812"
       y1="118.80257"
       x1="122.10156"
       gradientUnits="userSpaceOnUse"
       id="linearGradient3829"
       xlink:href="#linearGradient3805"
       inkscape:collect="always" />
    <radialGradient
       gradientUnits="userSpaceOnUse"
       gradientTransform="matrix(1.045354,0.00812192,-2.6747336e-4,0.26984941,-9.6628503,106.41017)"
       r="145.36757"
       fy="148.11694"
       fx="213.92746"
       cy="148.11694"
       cx="213.92746"
       id="radialGradient3821"
       xlink:href="#linearGradient3815"
       inkscape:collect="always" />
    <linearGradient
       gradientTransform="matrix(0.64072597,0,0,0.64072597,2.0004799,46.633713)"
       gradientUnits="userSpaceOnUse"
       y2="116.74062"
       x2="311.32812"
       y1="118.80257"
       x1="122.10156"
       id="linearGradient3811"
       xlink:href="#linearGradient3805"
       inkscape:collect="always" />
    <radialGradient
       gradientUnits="userSpaceOnUse"
       gradientTransform="matrix(0.75352904,-0.23597882,0.08991188,0.28710716,-28.364974,152.34468)"
       r="193.03262"
       fy="145.55038"
       fx="153.17622"
       cy="145.55038"
       cx="153.17622"
       id="radialGradient3789"
       xlink:href="#linearGradient3783"
       inkscape:collect="always" />
    <linearGradient
       gradientTransform="matrix(0.64072597,0,0,0.64072597,257.28973,40.877191)"
       spreadMethod="reflect"
       gradientUnits="userSpaceOnUse"
       y2="162.10497"
       x2="-87.390625"
       y1="181.63622"
       x1="-247.76562"
       id="linearGradient3781"
       xlink:href="#linearGradient3775-1"
       inkscape:collect="always" />
    <linearGradient
       gradientTransform="translate(391.40625,-49.328125)"
       spreadMethod="reflect"
       gradientUnits="userSpaceOnUse"
       y2="122.05555"
       x2="-205.32295"
       y1="70.102425"
       x1="-229.01562"
       id="linearGradient3771"
       xlink:href="#linearGradient3765"
       inkscape:collect="always" />
    <linearGradient
       id="linearGradient3765">
      <stop
         id="stop3767-1"
         offset="0"
         style="stop-color:#1d1200;stop-opacity:1;" />
      <stop
         id="stop3769"
         offset="1"
         style="stop-color:#424242;stop-opacity:0;" />
    </linearGradient>
    <linearGradient
       id="linearGradient3775-1">
      <stop
         id="stop3777"
         offset="0"
         style="stop-color:#424242;stop-opacity:1;" />
      <stop
         id="stop3779"
         offset="1"
         style="stop-color:#000000;stop-opacity:1;" />
    </linearGradient>
    <linearGradient
       id="linearGradient3783">
      <stop
         id="stop3785"
         offset="0"
         style="stop-color:#1d1d1d;stop-opacity:1;" />
      <stop
         style="stop-color:#734900;stop-opacity:1;"
         offset="0.8332535"
         id="stop3791" />
      <stop
         id="stop3787"
         offset="1"
         style="stop-color:#764509;stop-opacity:1;" />
    </linearGradient>
    <linearGradient
       id="linearGradient3805">
      <stop
         id="stop3807"
         offset="0"
         style="stop-color:#523806;stop-opacity:1;" />
      <stop
         id="stop3809"
         offset="1"
         style="stop-color:#000000;stop-opacity:1;" />
    </linearGradient>
    <linearGradient
       id="linearGradient3815">
      <stop
         id="stop3817"
         offset="0"
         style="stop-color:#000000;stop-opacity:1;" />
      <stop
         style="stop-color:#000000;stop-opacity:1;"
         offset="0.79732871"
         id="stop3823" />
      <stop
         id="stop3819"
         offset="1"
         style="stop-color:#424242;stop-opacity:0;" />
    </linearGradient>
    <linearGradient
       id="linearGradient3832">
      <stop
         id="stop3834"
         offset="0"
         style="stop-color:#703b12;stop-opacity:1;" />
      <stop
         id="stop3836"
         offset="1"
         style="stop-color:#362608;stop-opacity:0.36250001;" />
    </linearGradient>
    <linearGradient
       gradientUnits="userSpaceOnUse"
       x2="9.718"
       x1="11.187"
       y2="-1.513"
       y1="-5.887"
       xlink:href="#linearGradient3578-1"
       id="linearGradient3606-6"
       spreadMethod="reflect" />
    <linearGradient
       gradientUnits="userSpaceOnUse"
       x2="16.093"
       x1="10.621"
       y2="-7.475"
       y1="-6.409"
       xlink:href="#linearGradient3578-1"
       id="linearGradient3608-5"
       spreadMethod="reflect" />
    <linearGradient
       gradientUnits="userSpaceOnUse"
       x2="12.916"
       x1="7.771"
       y2="-4.516"
       y1="-3.754"
       xlink:href="#linearGradient3578-1"
       id="linearGradient3604-6"
       spreadMethod="reflect" />
    <linearGradient
       gradientUnits="userSpaceOnUse"
       x2="16.093"
       x1="15.65"
       y2="-7.475"
       y1="-2.21"
       xlink:href="#linearGradient3578-1"
       id="linearGradient3610-7"
       spreadMethod="reflect" />
    <linearGradient
       gradientUnits="userSpaceOnUse"
       x2="14.94"
       x1="17.083"
       y2="-3.733"
       y1="-2.275"
       xlink:href="#linearGradient3578-1"
       id="linearGradient3602-4"
       spreadMethod="reflect" />
    <linearGradient
       gradientUnits="userSpaceOnUse"
       x2="16.093"
       x1="13.515"
       xlink:href="#linearGradient3578-1"
       id="linearGradient2595"
       spreadMethod="reflect" />
    <linearGradient
       id="linearGradient2829">
      <stop
         id="stop33"
         stop-color="#acacac"
         offset="0" />
      <stop
         id="stop35"
         stop-color="#1f1f1f"
         offset="1" />
    </linearGradient>
    <linearGradient
       id="linearGradient2823">
      <stop
         id="stop28"
         stop-color="#a2a2a2"
         offset="0" />
      <stop
         id="stop30"
         offset="1" />
    </linearGradient>
    <linearGradient
       id="linearGradient2835">
      <stop
         id="stop23"
         stop-color="#e0e0e0"
         offset="0" />
      <stop
         id="stop25"
         stop-color="#343434"
         offset="1" />
    </linearGradient>
    <linearGradient
       gradientUnits="userSpaceOnUse"
       x2="17.377"
       x1="15.582"
       y2="-1.992"
       y1="-6.256"
       xlink:href="#linearGradient3578-1"
       id="linearGradient3600-5"
       spreadMethod="reflect" />
    <linearGradient
       gradientUnits="userSpaceOnUse"
       x2="16.093"
       x1="16.691"
       y2="-7.475"
       y1="-10.978"
       xlink:href="#linearGradient3578-1"
       id="linearGradient3598-5"
       spreadMethod="reflect" />
    <linearGradient
       id="linearGradient3578-1">
      <stop
         id="stop16"
         offset="0" />
      <stop
         id="stop18"
         stop-color="#fffcfc"
         offset="1" />
    </linearGradient>
    <linearGradient
       gradientUnits="userSpaceOnUse"
       x2="18.617"
       x1="16.909"
       y2="-6.583"
       y1="-5.212"
       xlink:href="#linearGradient3578-1"
       id="linearGradient3586-6"
       spreadMethod="reflect" />
    <linearGradient
       gradientUnits="userSpaceOnUse"
       x2="178.92"
       y2="189.217"
       x1="176.151"
       y1="183.378"
       id="linearGradient4010"
       xlink:href="#linearGradient2823"
       spreadMethod="reflect"
       gradientTransform="matrix(.95651 0 0 .95651 -.3786 -16.52368)" />
    <linearGradient
       gradientUnits="userSpaceOnUse"
       x2="17.075"
       x1="13.515"
       y2="-8.019"
       y1="-7.475"
       xlink:href="#linearGradient3578-1"
       id="linearGradient3588-0"
       spreadMethod="reflect" />
    <linearGradient
       gradientUnits="userSpaceOnUse"
       x2="173.675"
       y2="172.121"
       x1="153.577"
       y1="128.339"
       id="linearGradient4018"
       xlink:href="#linearGradient2829"
       spreadMethod="reflect"
       gradientTransform="matrix(.95651 0 0 .95651 -.3786 -16.52368)" />
    <linearGradient
       gradientUnits="userSpaceOnUse"
       x2="17.747"
       x1="16.387"
       y2="-6.953"
       y1="-5.908"
       xlink:href="#linearGradient3578-1"
       id="linearGradient3590-2"
       spreadMethod="reflect" />
    <linearGradient
       gradientUnits="userSpaceOnUse"
       x2="8.696"
       x1="12.035"
       y2="-2.688"
       y1="-11.587"
       xlink:href="#linearGradient3578-1"
       id="linearGradient3594-3"
       spreadMethod="reflect" />
    <linearGradient
       gradientUnits="userSpaceOnUse"
       x2="11.132"
       x1="16.387"
       y2="-11.199"
       y1="-11.391"
       xlink:href="#linearGradient3578-1"
       id="linearGradient3596-6"
       spreadMethod="reflect" />
    <linearGradient
       gradientUnits="userSpaceOnUse"
       x2="11.372"
       x1="12.906"
       y2="-5.778"
       y1="-10.151"
       xlink:href="#linearGradient3578-1"
       id="linearGradient3592-0"
       spreadMethod="reflect" />
    <linearGradient
       gradientUnits="userSpaceOnUse"
       x2="164.474"
       y2="88.63"
       x1="156.716"
       y1="70.692"
       id="linearGradient4034"
       xlink:href="#linearGradient2835"
       spreadMethod="reflect"
       gradientTransform="matrix(.95651 0 0 .95651 -.3786 -16.52368)" />
    <filter
       inkscape:collect="always"
       id="filter4285">
      <feGaussianBlur
         inkscape:collect="always"
         stdDeviation="1.8787715"
         id="feGaussianBlur4287" />
    </filter>
    <linearGradient
       inkscape:collect="always"
       xlink:href="#linearGradient4305"
       id="linearGradient4311"
       x1="-79.905769"
       y1="100.56066"
       x2="-73.532585"
       y2="100.56066"
       gradientUnits="userSpaceOnUse"
       spreadMethod="reflect"
       gradientTransform="matrix(0.72479567,0,0,0.72479567,321.64485,-124.08964)" />
    <linearGradient
       inkscape:collect="always"
       id="linearGradient4167">
      <stop
         style="stop-color:#adadad;stop-opacity:0.62352943"
         offset="0"
         id="stop4169" />
      <stop
         style="stop-color:#ffffff;stop-opacity:0.97254908"
         offset="1"
         id="stop4171" />
    </linearGradient>
    <linearGradient
       id="linearGradient4223"
       inkscape:collect="always">
      <stop
         id="stop4225"
         offset="0"
         style="stop-color:#bebebe;stop-opacity:0.80327868" />
      <stop
         id="stop4227"
         offset="1"
         style="stop-color:#9f9f9f;stop-opacity:0.73224044" />
    </linearGradient>
    <linearGradient
       id="linearGradient4211"
       inkscape:collect="always">
      <stop
         id="stop4213"
         offset="0"
         style="stop-color:#9f9f9f;stop-opacity:0.63387978" />
      <stop
         id="stop4215"
         offset="1"
         style="stop-color:#696969;stop-opacity:0" />
    </linearGradient>
    <linearGradient
       id="linearGradient4171"
       inkscape:collect="always">
      <stop
         id="stop4173"
         offset="0"
         style="stop-color:#b2b2b2;stop-opacity:0.62352943" />
      <stop
         id="stop4175"
         offset="1"
         style="stop-color:#ffffff;stop-opacity:0.69803923" />
    </linearGradient>
    <linearGradient
       id="linearGradient4142"
       inkscape:collect="always">
      <stop
         id="stop4144"
         offset="0"
         style="stop-color:#909090;stop-opacity:0.5191257" />
      <stop
         id="stop4146"
         offset="1"
         style="stop-color:#696969;stop-opacity:0" />
    </linearGradient>
    <linearGradient
       gradientUnits="userSpaceOnUse"
       y2="324.36359"
       x2="278.74924"
       y1="63.252472"
       x1="165.74075"
       id="linearGradient4148"
       xlink:href="#linearGradient4142"
       inkscape:collect="always" />
    <filter
       height="1.1000979"
       y="-0.050048947"
       width="1.0562191"
       x="-0.028109536"
       id="filter4160"
       style="color-interpolation-filters:sRGB"
       inkscape:collect="always">
      <feGaussianBlur
         id="feGaussianBlur4162"
         stdDeviation="3.5625119"
         inkscape:collect="always" />
    </filter>
    <linearGradient
       spreadMethod="reflect"
       gradientUnits="userSpaceOnUse"
       y2="114.15835"
       x2="387.92972"
       y1="106.84957"
       x1="379.77847"
       id="linearGradient4177"
       xlink:href="#linearGradient4167"
       inkscape:collect="always" />
    <linearGradient
       gradientTransform="translate(26.808511,-26.382979)"
       y2="114.15835"
       x2="387.92972"
       y1="108.46311"
       x1="381.27396"
       spreadMethod="reflect"
       gradientUnits="userSpaceOnUse"
       id="linearGradient4207"
       xlink:href="#linearGradient4171"
       inkscape:collect="always" />
    <linearGradient
       gradientUnits="userSpaceOnUse"
       y2="125.09924"
       x2="281.09772"
       y1="61.711266"
       x1="284.70154"
       id="linearGradient4217"
       xlink:href="#linearGradient4211"
       inkscape:collect="always" />
    <linearGradient
       gradientUnits="userSpaceOnUse"
       y2="103.09274"
       x2="255.69527"
       y1="93.256668"
       x1="259.01715"
       id="linearGradient4229"
       xlink:href="#linearGradient4223"
       inkscape:collect="always" />
    <linearGradient
       gradientUnits="userSpaceOnUse"
       y2="117.29391"
       x2="258.9863"
       y1="102.53981"
       x1="262.84229"
       id="linearGradient4237"
       xlink:href="#linearGradient4223"
       inkscape:collect="always" />
    <filter
       height="1.1358649"
       y="-0.067932457"
       width="1.0489775"
       x="-0.024488766"
       id="filter4257"
       style="color-interpolation-filters:sRGB"
       inkscape:collect="always">
      <feGaussianBlur
         id="feGaussianBlur4259"
         stdDeviation="2.7544285"
         inkscape:collect="always" />
    </filter>
  </defs>
  <sodipodi:namedview
     pagecolor="#ffffff"
     bordercolor="#666666"
     borderopacity="1"
     objecttolerance="10"
     gridtolerance="10"
     guidetolerance="10"
     inkscape:pageopacity="0"
     inkscape:pageshadow="2"
     inkscape:window-width="1920"
     inkscape:window-height="1056"
     id="namedview4"
     showgrid="false"
     inkscape:zoom="3.3164062"
     inkscape:cx="128"
     inkscape:cy="128"
     inkscape:window-x="0"
     inkscape:window-y="0"
     inkscape:window-maximized="1"
     inkscape:current-layer="svg2" />
  <g
     transform="matrix(0.77128144,0,0,0.77128144,-79.739561,-22.897904)"
     id="g4261">
    <path
       style="fill:#000000;fill-opacity:0.51366122;fill-rule:evenodd;stroke:none;stroke-width:1px;stroke-linecap:butt;stroke-linejoin:miter;stroke-opacity:1;filter:url(#filter4257)"
       d="m 137.15847,253.33333 1.0929,10.92897 c 1.69466,2.56439 1.62485,5.1824 6.55737,7.10382 l 234.9905,77.59563 c 4.36168,2.76045 7.27409,1.93611 10.91114,-1.0929 l 16.39344,-17.48633 z"
       id="path4239"
       inkscape:connector-curvature="0"
       sodipodi:nodetypes="ccccccc" />
    <path
       style="fill:#000000;fill-opacity:0.73000004;fill-rule:evenodd;stroke:none;stroke-width:1px;stroke-linecap:butt;stroke-linejoin:miter;stroke-opacity:1"
       d="M 146.27659,241.2766 139.89362,67.340426 c -0.0538,-6.437983 2.49923,-9.41706 7.97872,-7.978724 l 135.10638,37.234043 c 8.12648,2.325734 17.80936,-1.266511 19.14894,-15.425533 0.93604,-9.893676 4.6708,-17.669623 18.61702,-14.893617 l 85.6383,19.680851 c 6.41139,1.511285 7.81765,4.447577 7.4468,11.702128 l -2.12765,230.851066 -5.31915,5.85106 -254.86675,-84.34164 z"
       id="path4198"
       inkscape:connector-curvature="0"
       sodipodi:nodetypes="ccccsccccccc" />
    <path
       sodipodi:nodetypes="ccccsccccccc"
       inkscape:connector-curvature="0"
       id="path4209"
       d="M 146.27659,241.2766 139.89362,67.340426 c -0.0538,-6.437983 2.49923,-9.41706 7.97872,-7.978724 l 135.10638,37.234043 c 8.12648,2.325734 17.80936,-1.266511 19.14894,-15.425533 0.93604,-9.893676 4.6708,-17.669623 18.61702,-14.893617 l 85.6383,19.680851 c 6.41139,1.511285 7.81765,4.447577 7.4468,11.702128 l -2.12765,230.851066 -5.31915,5.85106 -254.86675,-84.34164 z"
       style="fill:url(#linearGradient4217);fill-opacity:1;fill-rule:evenodd;stroke:none;stroke-width:1px;stroke-linecap:butt;stroke-linejoin:miter;stroke-opacity:1" />
    <path
       inkscape:connector-curvature="0"
       id="path4221"
       d="m 142.62295,64.262295 267.21311,65.573775 1.0929,194.53552 -256.8306,-92.89618 z"
       style="fill:url(#linearGradient4229);fill-opacity:1;fill-rule:evenodd;stroke:#cecece;stroke-width:1px;stroke-linecap:butt;stroke-linejoin:miter;stroke-opacity:0.70491806"
       sodipodi:nodetypes="ccccc" />
    <path
       style="fill:url(#linearGradient4237);fill-opacity:1;fill-rule:evenodd;stroke:#cecece;stroke-width:1px;stroke-linecap:butt;stroke-linejoin:miter;stroke-opacity:0.70491806"
       d="m 136.61202,73.005464 267.21311,65.573776 4.37159,189.07104 -260.10929,-87.4317 z"
       id="path4219"
       inkscape:connector-curvature="0" />
    <path
       style="fill:#000000;fill-opacity:0.77049178;fill-rule:evenodd;stroke:none;stroke-width:1px;stroke-linecap:butt;stroke-linejoin:miter;stroke-opacity:1"
       d="m 116.2037,92.685185 c 1.13182,-4.540599 4.63483,-9.034209 10.68729,-7.545261 L 261.11111,123.7037 c 6.48148,1.63624 16.36287,0.33244 20.83334,-11.11111 4.00878,-10.26173 10.87392,-18.779525 25.46296,-16.203701 l 68.51852,13.888891 c 12.25335,3.29007 11.96705,11.68066 12.96296,18.51851 l 12.5,205.55556 c 0.64976,7.44283 -5.7507,13.21303 -12.96296,10.18518 L 144.90741,262.59259 c -4.92216,-1.55932 -8.93994,-3.09709 -9.25926,-10.18518 z"
       id="path4138"
       inkscape:connector-curvature="0"
       sodipodi:nodetypes="cccscccccccc" />
    <path
       sodipodi:nodetypes="cccsccccccc"
       inkscape:connector-curvature="0"
       id="path4140"
       d="m 116.2037,92.685185 c 1.13182,-4.540599 4.63483,-9.034209 10.68729,-7.545261 L 261.11111,123.7037 c 6.48148,1.63624 16.36287,0.33244 20.83334,-11.11111 4.00878,-10.26173 10.87392,-18.779525 25.46296,-16.203701 l 68.51852,13.888891 c 12.25335,3.29007 11.96705,11.68066 12.96296,18.51851 l 12.5,205.55556 c 0.64976,7.44283 -5.7507,13.21303 -12.96296,10.18518 L 209.72222,283.88889 C 173.76467,257.82993 120.35853,138.21611 116.2037,92.685185 Z"
       style="fill:url(#linearGradient4148);fill-opacity:1;fill-rule:evenodd;stroke:none;stroke-width:1px;stroke-linecap:butt;stroke-linejoin:miter;stroke-opacity:1" />
    <path
       style="fill:#000000;fill-opacity:0.27322406;fill-rule:evenodd;stroke:none;stroke-width:1px;stroke-linecap:butt;stroke-linejoin:miter;stroke-opacity:1;filter:url(#filter4160)"
       d="m 177.77778,215.83334 -80.555558,82.4074 255.555558,88.42593 38.75029,-40.87068 c 4.63488,-1.3015 9.96817,-1.38077 9.86082,-10.98118 L 396.29629,282.5 Z"
       id="path4150"
       inkscape:connector-curvature="0"
       sodipodi:nodetypes="ccccccc" />
    <path
       inkscape:connector-curvature="0"
       style="fill:#b5b5b5;fill-opacity:1;fill-rule:evenodd;stroke:none;stroke-width:1px;stroke-linecap:butt;stroke-linejoin:miter;stroke-opacity:1"
       d="m 130.29688,79.757812 c -3.73674,-0.05935 -6.2712,2.374412 -7.66211,5.353516 1.24508,-0.330919 2.6592,-0.363492 4.25585,0.0293 l 134.22071,38.562492 c 5.49861,1.38812 13.44221,0.65773 18.45508,-6.58203 -4.30627,2.38583 -9.16625,2.43292 -12.90039,1.49024 L 132.44727,80.046875 c -0.75656,-0.186118 -1.47316,-0.278306 -2.15039,-0.289063 z m 177.54687,11.074219 c -7.10689,0.02874 -11.9932,3.152137 -15.51367,7.738281 3.82724,-2.318415 8.71897,-3.304404 15.07812,-2.18164 l 68.51758,13.888668 c 12.25335,3.29007 11.96698,11.68169 12.96289,18.51954 l 12.5,205.55468 c 0.1753,2.00795 -0.17581,3.88521 -0.90429,5.50977 4.09619,-1.28823 6.90142,-5.55587 6.46093,-10.60156 l -12.5,-205.55665 c -0.99591,-6.83785 -0.70954,-15.2275 -12.96289,-18.51757 L 312.96289,91.296875 c -1.82363,-0.321978 -3.52737,-0.47128 -5.11914,-0.464844 z"
       id="path4164" />
    <path
       id="path4169"
       d="m 375.92578,110.27734 c 12.25335,3.29007 11.96698,11.68169 12.96289,18.51954 2.18404,-2.05828 3.13422,-2.71335 5.55664,-5.09376 -0.99591,-6.83785 -0.70954,-15.2275 -12.96289,-18.51757 -2.39781,2.28773 -2.9924,2.79876 -5.55664,5.09179 z"
       style="fill:url(#linearGradient4177);fill-opacity:1;fill-rule:evenodd;stroke:none;stroke-width:1px;stroke-linecap:butt;stroke-linejoin:miter;stroke-opacity:1"
       inkscape:connector-curvature="0"
       sodipodi:nodetypes="ccccc" />
    <path
       inkscape:connector-curvature="0"
       style="fill:#b0b0b0;fill-opacity:1;fill-rule:evenodd;stroke:none;stroke-width:1px;stroke-linecap:butt;stroke-linejoin:miter;stroke-opacity:1"
       d="m 151.9043,54.332031 c -2.67378,0.112285 -4.27807,1.802415 -4.90039,4.837891 0.28199,0.05237 0.56972,0.11281 0.86914,0.191406 l 135.10547,37.234375 c 5.41154,1.54874 11.51034,0.467116 15.3789,-4.605469 -2.77183,0.801996 -5.76159,0.727663 -8.57031,-0.07617 L 154.68164,54.681641 c -1.0274,-0.269688 -1.9536,-0.384203 -2.77734,-0.34961 z m 170.88281,6.701172 c -5.39865,-0.126557 -8.73663,1.852669 -10.81445,5.035156 2.34672,-0.518874 5.2277,-0.496408 8.77148,0.208985 l 85.63867,19.679687 c 6.41139,1.511285 7.81812,4.448574 7.44727,11.703125 l -2.12891,230.849614 -0.47461,0.52148 1.96485,0.65039 5.31836,-5.85156 2.1289,-230.851564 c 0.37085,-7.254551 -1.03587,-10.189887 -7.44726,-11.701172 L 327.55273,61.595703 c -1.74327,-0.347001 -3.32697,-0.528775 -4.76562,-0.5625 z"
       id="path4200" />
    <path
       sodipodi:nodetypes="ccccc"
       inkscape:connector-curvature="0"
       style="fill:url(#linearGradient4207);fill-opacity:1;fill-rule:evenodd;stroke:none;stroke-width:1px;stroke-linecap:butt;stroke-linejoin:miter;stroke-opacity:1"
       d="m 403.12392,85.141164 c 12.4021,2.867396 10.71654,4.984484 10.70306,18.467586 2.18404,-2.05828 4.25114,-3.752349 6.67356,-6.132759 0.48467,-12.136762 1.00482,-14.993724 -11.89791,-17.244792 -2.39781,2.28773 -2.91447,2.616935 -5.47871,4.909965 z"
       id="path4205" />
  </g>
  <rect
     style="fill:url(#linearGradient4311);fill-opacity:1;stroke:none"
     id="rect4303"
     width="10.490329"
     height="82.829887"
     x="261.10693"
     y="-92.618645"
     ry="2.8411307"
     rx="4.8080673"
     transform="matrix(0.52591439,0.85053751,-0.85053751,0.52591439,0,0)" />
  <path
     style="fill:none;stroke:#653900;stroke-width:4.5;stroke-linecap:round;stroke-linejoin:miter;stroke-miterlimit:4;stroke-dasharray:4.5,4.5;stroke-dashoffset:0;stroke-opacity:1"
     d="m 148.05182,222.83157 c 0,0 -3.01532,7.83981 -62.416956,0.30153 C 26.233215,215.59482 11.759717,241.5265 14.171967,215.59482 16.584216,189.66313 48.244994,150.76561 97.093054,137.1967 145.9411,123.6278 233.38515,191.77385 189.3616,198.70906 79.903384,215.95247 136.89517,247.85866 82.016494,233.68669 27.137809,219.51472 4.8244991,190.26619 4.8244991,190.26619"
     id="path4313"
     inkscape:connector-curvature="0"
     sodipodi:nodetypes="csssssc" />
  <g
     id="g3500"
     transform="matrix(0.78667897,0,0,0.78667897,16.257594,57.312417)">
    <path
       sodipodi:nodetypes="ccccc"
       inkscape:connector-curvature="0"
       id="path3757"
       d="m 249.78122,121.3784 1.25142,2.25256 c -14.32472,12.08875 -26.13736,23.34013 -55.81324,40.54593 l -97.360312,52.05899 c 49.409132,-33.3981 96.894282,-69.5753 151.922132,-94.85748 z"
       style="fill:#000000;fill-opacity:1;stroke:#000000;stroke-width:0.64072597px;stroke-linecap:butt;stroke-linejoin:miter;stroke-opacity:1" />
    <path
       sodipodi:nodetypes="cccccccc"
       inkscape:connector-curvature="0"
       id="path3755"
       d="M 83.843214,223.99467 C 41.512222,241.01577 -1.1465364,230.97745 5.50445,184.70014 8.3528655,165.70992 22.454783,150.05407 43.297271,136.39542 93.809943,114.09481 147.22262,116.21397 197.47195,116.37273 c 17.46804,0.14872 35.03359,0.0699 50.55729,4.75539 3.77557,1.41827 5.49939,2.83655 0,4.25482 -29.32174,17.16022 -59.11936,31.94098 -87.84954,52.05898 -21.07587,13.48281 -46.97544,34.97545 -76.336486,46.55275 z"
       style="fill:url(#radialGradient3789);fill-opacity:1;stroke:#3a3a3a;stroke-width:1.28145194;stroke-linecap:butt;stroke-linejoin:miter;stroke-miterlimit:4;stroke-dasharray:none;stroke-opacity:1" />
    <ellipse
       transform="matrix(0.59591228,-0.20491561,0.30904068,0.58478649,-43.434825,111.23612)"
       id="path3813"
       style="fill:url(#radialGradient3821);fill-opacity:1;stroke:none"
       cx="213.92746"
       cy="148.11694"
       rx="158.85484"
       ry="39.177074" />
    <path
       sodipodi:nodetypes="ccccccccccc"
       inkscape:connector-curvature="0"
       id="path3759"
       d="m 51.056062,176.94136 c 15.769611,19.8145 60.796328,2.28261 88.600388,-7.25823 19.25291,-8.95483 37.38624,-18.58139 53.3104,-29.53346 4.87015,-3.57696 7.64383,-7.85273 8.50964,-12.76446 -8.82181,-22.70674 -17.29546,-45.64559 -28.03176,-67.076002 -4.9134,-7.85604 -10.74553,-5.606086 -16.26843,-6.757657 -10.18293,0.997586 -22.46947,1.293456 -30.5346,3.003403 -9.59598,1.846083 -19.80092,3.341348 -29.53346,4.004538 -30.971001,3.558715 -40.630952,15.775043 -50.807566,27.781478 -5.765358,5.83995 -8.231695,10.95526 -8.009075,17.51985 5.890476,25.95451 4.437179,47.49757 12.764463,71.08054 z"
       style="fill:#5e3605;fill-opacity:1;stroke:#000000;stroke-width:0.64072597px;stroke-linecap:butt;stroke-linejoin:miter;stroke-opacity:1" />
    <path
       style="fill:url(#linearGradient3811);fill-opacity:1;stroke:none"
       d="m 51.056062,176.94136 c 15.769611,19.8145 60.796328,2.28261 88.600388,-7.25823 19.25291,-8.95483 37.38624,-18.58139 53.3104,-29.53346 4.87015,-3.57696 7.64383,-7.85273 8.50964,-12.76446 -8.82181,-22.70674 -17.29546,-45.64559 -28.03176,-67.076002 -4.9134,-7.85604 -8.99355,0.40072 -14.51645,-0.750851 -20.76183,-0.458646 -38.8416,3.899387 -49.55615,8.759926 C 79.768126,81.44595 64.045551,91.26928 53.308614,99.35345 c -5.765358,5.83995 -15.239635,-0.0572 -15.017015,6.50737 5.890476,25.95451 4.437179,47.49757 12.764463,71.08054 z"
       id="path3761"
       inkscape:connector-curvature="0"
       sodipodi:nodetypes="cccccccccc" />
    <path
       transform="matrix(0.64072597,0,0,0.64072597,2.0004799,70.9813)"
       sodipodi:nodetypes="cccc"
       inkscape:connector-curvature="0"
       id="path3763"
       d="m 77.34375,51.312505 c 48.44897,-36.592545 97.43848,-67.239245 150,-58.593755 1.9667,34.35105 4.58905,68.850545 -47.26562,91.01563 C 104.74869,103.90895 90.56,77.97738 77.34375,51.312505 Z"
       style="fill:url(#linearGradient3771);fill-opacity:1;stroke:none;filter:url(#filter4285)" />
    <path
       sodipodi:nodetypes="cccccccc"
       inkscape:connector-curvature="0"
       id="path3773"
       d="m 44.298408,150.4113 7.258221,27.2809 c 17.226398,18.81733 62.440441,2.73696 88.600391,-7.75878 18.30093,-9.1033 37.28218,-17.01605 53.06012,-30.5346 6.90477,-3.37641 7.37711,-8.68254 7.75878,-14.01588 L 192.216,103.1077 c -8.54089,21.68647 -31.9128,29.0188 -57.56522,37.54253 -14.32292,4.40195 -75.246501,29.24316 -90.352372,9.76107 z"
       style="fill:url(#linearGradient3781);fill-opacity:1;stroke:#000000;stroke-width:0.64072597px;stroke-linecap:butt;stroke-linejoin:miter;stroke-opacity:1" />
    <path
       inkscape:connector-curvature="0"
       id="path3825"
       d="m 158.771,52.884879 c -10.18293,0.997585 -22.46947,1.293459 -30.5346,3.003403 -9.59598,1.846085 -19.80091,3.341348 -29.533457,4.004537 C 67.73194,63.451533 58.061976,75.677873 47.885361,87.68431 42.29131,93.35073 39.81585,98.33567 39.876286,104.6235 c 0.358771,-5.62782 9.431825,-0.26926 15.017015,-5.92671 10.736937,-8.08418 26.45952,-17.90751 56.063529,-31.035168 10.71454,-4.860541 28.79431,-9.228581 49.55614,-8.769937 5.34657,1.114806 9.34866,-6.594332 14.05593,0.04005 -4.81432,-7.011433 -10.44759,-4.931271 -15.7979,-6.046852 z"
       style="fill:url(#linearGradient3838);fill-opacity:1;stroke:none" />
  </g>
</svg>
