<?xml version="1.0" encoding="UTF-8" standalone="no"?>
<!-- Created with Inkscape (http://www.inkscape.org/) -->

<svg
   xmlns:dc="http://purl.org/dc/elements/1.1/"
   xmlns:cc="http://creativecommons.org/ns#"
   xmlns:rdf="http://www.w3.org/1999/02/22-rdf-syntax-ns#"
   xmlns:svg="http://www.w3.org/2000/svg"
   xmlns="http://www.w3.org/2000/svg"
   xmlns:xlink="http://www.w3.org/1999/xlink"
   xmlns:sodipodi="http://sodipodi.sourceforge.net/DTD/sodipodi-0.dtd"
   xmlns:inkscape="http://www.inkscape.org/namespaces/inkscape"
   id="svg2"
   sodipodi:version="0.32"
   inkscape:version="0.91 r13725"
   width="256"
   height="256"
   version="1.0"
   sodipodi:docname="folder-public2.svg"
   inkscape:output_extension="org.inkscape.output.svg.inkscape">
  <metadata
     id="metadata7">
    <rdf:RDF>
      <cc:Work>
        <dc:format>image/svg+xml</dc:format>
        <dc:type
           rdf:resource="http://purl.org/dc/dcmitype/StillImage" />
      </cc:Work>
    </rdf:RDF>
  </metadata>
  <defs
     id="defs5">
    <linearGradient
       id="linearGradient5381"
       inkscape:collect="always">
      <stop
         id="stop5383"
         stop-color="#68c1d3"
         stop-opacity="0.335" />
      <stop
         id="stop5385"
         offset="1"
         stop-color="#ffffff"
         stop-opacity="0.529" />
    </linearGradient>
    <linearGradient
       id="linearGradient9329">
      <stop
         id="stop9331"
         stop-color="#167e90"
         stop-opacity="0.44" />
      <stop
         offset="0.749"
         id="stop9333"
         stop-color="#42afc8"
         stop-opacity="0.434" />
      <stop
         id="stop9335"
         offset="1"
         stop-color="#4499ac"
         stop-opacity="0" />
    </linearGradient>
    <linearGradient
       inkscape:collect="always"
       id="linearGradient9317">
      <stop
         id="stop9319"
         stop-color="#ffffff"
         stop-opacity="0.67" />
      <stop
         offset="1"
         id="stop9321"
         stop-color="#ffffff"
         stop-opacity="0" />
    </linearGradient>
    <linearGradient
       id="linearGradient4567"
       inkscape:collect="always">
      <stop
         id="stop4569"
         stop-color="#b8dfe7"
         stop-opacity="0.61" />
      <stop
         id="stop4571"
         offset="1"
         stop-color="#05576c"
         stop-opacity="0.588" />
    </linearGradient>
    <linearGradient
       id="linearGradient3578">
      <stop
         id="stop3580"
         stop-color="#000000"
         stop-opacity="1" />
      <stop
         id="stop3582"
         offset="1"
         stop-color="#fffcfc"
         stop-opacity="1" />
    </linearGradient>
    <linearGradient
       inkscape:collect="always"
       xlink:href="#linearGradient4567"
       id="linearGradient3247"
       gradientUnits="userSpaceOnUse"
       x1="63.879"
       y1="123.4"
       x2="63.879"
       y2="80.19"
       gradientTransform="matrix(1.2627418,0,0,1.2342424,-161.95242,59.03665)" />
    <linearGradient
       inkscape:collect="always"
       xlink:href="#linearGradient5381"
       id="linearGradient3250"
       gradientUnits="userSpaceOnUse"
       spreadMethod="reflect"
       x1="38.682"
       y1="15.728"
       x2="64.6"
       y2="15.728"
       gradientTransform="matrix(1.2627418,0,0,1.2342424,-164.54104,61.043746)" />
    <linearGradient
       inkscape:collect="always"
       xlink:href="#linearGradient5381"
       id="linearGradient3258"
       gradientUnits="userSpaceOnUse"
       spreadMethod="reflect"
       x1="65.45"
       y1="-1.331"
       x2="64.25"
       y2="62.31"
       gradientTransform="matrix(1.2941261,0,0,1.3109257,-165.06761,55.799859)" />
    <linearGradient
       inkscape:collect="always"
       xlink:href="#linearGradient5381"
       id="linearGradient3260"
       gradientUnits="userSpaceOnUse"
       spreadMethod="reflect"
       x1="65.61"
       y1="-1.566"
       x2="62.43"
       y2="66.02"
       gradientTransform="matrix(1.2186808,0,0,1.2656012,-157.513,57.544476)" />
    <linearGradient
       inkscape:collect="always"
       xlink:href="#linearGradient5381"
       id="linearGradient8530"
       gradientUnits="userSpaceOnUse"
       gradientTransform="matrix(0.62509734,0,0,0.56609198,-161.52156,63.804741)"
       spreadMethod="reflect"
       x1="9.903"
       y1="166.06"
       x2="125.34"
       y2="162.19" />
    <linearGradient
       inkscape:collect="always"
       xlink:href="#linearGradient5381"
       id="linearGradient8533"
       gradientUnits="userSpaceOnUse"
       gradientTransform="matrix(0.62495102,0,0,0.58492079,-161.50266,61.26246)"
       spreadMethod="reflect"
       x1="16.261"
       y1="132.47"
       x2="128.35"
       y2="132.47" />
    <linearGradient
       inkscape:collect="always"
       xlink:href="#linearGradient5381"
       id="linearGradient8536"
       gradientUnits="userSpaceOnUse"
       gradientTransform="matrix(0.62458818,0,0,0.62458818,-161.45609,58.116564)"
       spreadMethod="reflect"
       x1="38.555"
       y1="79.37"
       x2="116.55"
       y2="79.37" />
    <linearGradient
       inkscape:collect="always"
       xlink:href="#linearGradient5381"
       id="linearGradient8543"
       gradientUnits="userSpaceOnUse"
       x1="73.08"
       y1="0.745"
       x2="71.1"
       y2="134.6"
       gradientTransform="matrix(1.2477723,0,0,1.2171125,-161.27263,-215.25333)" />
    <linearGradient
       inkscape:collect="always"
       xlink:href="#linearGradient9317"
       id="linearGradient9323"
       x1="125.27"
       y1="20.13"
       x2="120.6"
       y2="90.16"
       gradientUnits="userSpaceOnUse"
       gradientTransform="matrix(0.77786495,0,0,0.79703043,-179.42746,48.38811)" />
    <linearGradient
       id="linearGradient4239">
      <stop
         id="stop4241"
         stop-color="#2a7ea3"
         stop-opacity="0.263" />
      <stop
         offset="1"
         id="stop4243"
         stop-color="#ffffff"
         stop-opacity="1" />
    </linearGradient>
    <linearGradient
       id="linearGradient3828">
      <stop
         id="stop3830"
         stop-color="#ffffff"
         stop-opacity="0.486" />
      <stop
         offset="1"
         id="stop3832"
         stop-color="#286483"
         stop-opacity="0" />
    </linearGradient>
    <linearGradient
       id="linearGradient3906">
      <stop
         id="stop3908"
         stop-color="#cedce2"
         stop-opacity="1" />
      <stop
         id="stop3910"
         offset="1"
         stop-color="#cedce2"
         stop-opacity="0" />
    </linearGradient>
    <linearGradient
       id="linearGradient3892">
      <stop
         id="stop3894"
         stop-color="#1a485c"
         stop-opacity="0.535" />
      <stop
         id="stop3896"
         offset="1"
         stop-color="#ffffff"
         stop-opacity="1" />
    </linearGradient>
    <linearGradient
       id="linearGradient3878-6">
      <stop
         id="stop3880"
         stop-color="#9abcca"
         stop-opacity="0.599" />
      <stop
         id="stop3882"
         offset="1"
         stop-color="#9abcca"
         stop-opacity="0" />
    </linearGradient>
    <linearGradient
       id="linearGradient3867-7">
      <stop
         id="stop3869"
         stop-color="#99bbc9"
         stop-opacity="0.507" />
      <stop
         id="stop3871"
         offset="1"
         stop-color="#476b7a"
         stop-opacity="0" />
    </linearGradient>
    <linearGradient
       id="linearGradient3851">
      <stop
         id="stop3853"
         stop-color="#123e50"
         stop-opacity="0.683" />
      <stop
         offset="0.371"
         id="stop3861"
         stop-color="#c6d7de"
         stop-opacity="0.749" />
      <stop
         offset="0.716"
         id="stop3859"
         stop-color="#123e50"
         stop-opacity="0.782" />
      <stop
         id="stop3855"
         offset="1"
         stop-color="#c3d4db"
         stop-opacity="0.099" />
    </linearGradient>
    <linearGradient
       id="linearGradient3824">
      <stop
         id="stop3826"
         stop-color="#ffffff"
         stop-opacity="0.838" />
      <stop
         offset="1"
         id="stop3828"
         stop-color="#70b5d4"
         stop-opacity="0" />
    </linearGradient>
    <linearGradient
       id="linearGradient3815">
      <stop
         id="stop3817"
         stop-color="#9fcaff"
         stop-opacity="0.113" />
      <stop
         offset="1"
         id="stop3819"
         stop-color="#668dbd"
         stop-opacity="0" />
    </linearGradient>
    <linearGradient
       id="linearGradient3773">
      <stop
         id="stop3775"
         stop-color="#70b5d4"
         stop-opacity="0.838" />
      <stop
         id="stop3777"
         offset="1"
         stop-color="#70b5d4"
         stop-opacity="0.275" />
    </linearGradient>
    <linearGradient
       id="linearGradient3765">
      <stop
         id="stop3767"
         stop-color="#668dbd"
         stop-opacity="0.353" />
      <stop
         id="stop3769"
         offset="1"
         stop-color="#668dbd"
         stop-opacity="0.094" />
    </linearGradient>
    <linearGradient
       gradientUnits="userSpaceOnUse"
       x2="164.474"
       y2="88.63"
       x1="156.716"
       y1="70.692"
       id="linearGradient4034"
       xlink:href="#linearGradient2835"
       spreadMethod="reflect"
       gradientTransform="matrix(.95651 0 0 .95651 -.3786 -16.52368)" />
    <linearGradient
       gradientUnits="userSpaceOnUse"
       x2="8.696"
       x1="12.035"
       y2="-2.688"
       y1="-11.587"
       xlink:href="#linearGradient3578"
       id="linearGradient3594-6"
       spreadMethod="reflect" />
    <linearGradient
       gradientUnits="userSpaceOnUse"
       x2="173.675"
       y2="172.121"
       x1="153.577"
       y1="128.339"
       id="linearGradient4018"
       xlink:href="#linearGradient2829"
       spreadMethod="reflect"
       gradientTransform="matrix(0.95651,0,0,0.95651,-0.3786,-16.52368)" />
    <linearGradient
       gradientUnits="userSpaceOnUse"
       x2="17.075"
       x1="13.515"
       y2="-8.019"
       y1="-7.475"
       xlink:href="#linearGradient3578"
       id="linearGradient3588-7"
       spreadMethod="reflect" />
    <linearGradient
       gradientUnits="userSpaceOnUse"
       x2="178.92"
       y2="189.217"
       x1="176.151"
       y1="183.378"
       id="linearGradient4010"
       xlink:href="#linearGradient2823"
       spreadMethod="reflect"
       gradientTransform="matrix(0.95651,0,0,0.95651,-0.3786,-16.52368)" />
    <linearGradient
       gradientUnits="userSpaceOnUse"
       x2="16.093"
       x1="16.691"
       y2="-7.475"
       y1="-10.978"
       xlink:href="#linearGradient3578"
       id="linearGradient3598-5"
       spreadMethod="reflect" />
    <linearGradient
       gradientUnits="userSpaceOnUse"
       x2="17.377"
       x1="15.582"
       y2="-1.992"
       y1="-6.256"
       xlink:href="#linearGradient3578"
       id="linearGradient4525"
       spreadMethod="reflect" />
    <linearGradient
       id="linearGradient2835">
      <stop
         id="stop23"
         stop-color="#e0e0e0"
         offset="0" />
      <stop
         id="stop25"
         stop-color="#343434"
         offset="1" />
    </linearGradient>
    <linearGradient
       id="linearGradient2823">
      <stop
         id="stop28"
         stop-color="#a2a2a2"
         offset="0" />
      <stop
         id="stop30"
         offset="1" />
    </linearGradient>
    <linearGradient
       id="linearGradient2829">
      <stop
         id="stop33"
         stop-color="#acacac"
         offset="0" />
      <stop
         id="stop35"
         stop-color="#1f1f1f"
         offset="1" />
    </linearGradient>
    <linearGradient
       gradientUnits="userSpaceOnUse"
       x2="16.093"
       x1="13.515"
       xlink:href="#linearGradient3578"
       id="linearGradient2595-3"
       spreadMethod="reflect" />
    <linearGradient
       gradientUnits="userSpaceOnUse"
       x2="14.94"
       x1="17.083"
       y2="-3.733"
       y1="-2.275"
       xlink:href="#linearGradient3578"
       id="linearGradient3602-5"
       spreadMethod="reflect" />
    <linearGradient
       gradientUnits="userSpaceOnUse"
       x2="16.093"
       x1="15.65"
       y2="-7.475"
       y1="-2.21"
       xlink:href="#linearGradient3578"
       id="linearGradient3610-6"
       spreadMethod="reflect" />
    <linearGradient
       gradientUnits="userSpaceOnUse"
       x2="12.916"
       x1="7.771"
       y2="-4.516"
       y1="-3.754"
       xlink:href="#linearGradient3578"
       id="linearGradient4539"
       spreadMethod="reflect" />
    <linearGradient
       gradientUnits="userSpaceOnUse"
       x2="16.093"
       x1="10.621"
       y2="-7.475"
       y1="-6.409"
       xlink:href="#linearGradient3578"
       id="linearGradient3608-2"
       spreadMethod="reflect" />
    <linearGradient
       gradientUnits="userSpaceOnUse"
       x2="9.718"
       x1="11.187"
       y2="-1.513"
       y1="-5.887"
       xlink:href="#linearGradient3578"
       id="linearGradient4542"
       spreadMethod="reflect" />
    <linearGradient
       gradientUnits="userSpaceOnUse"
       y2="130.23795"
       x2="145.24556"
       y1="52.141354"
       x1="89.63974"
       id="linearGradient3797"
       xlink:href="#linearGradient2829"
       inkscape:collect="always" />
    <filter
       inkscape:collect="always"
       style="color-interpolation-filters:sRGB"
       id="filter4602"
       x="-0.021628472"
       width="1.0432569"
       y="-0.026271114"
       height="1.0525422">
      <feGaussianBlur
         inkscape:collect="always"
         stdDeviation="1.3349358"
         id="feGaussianBlur4604" />
    </filter>
    <linearGradient
       id="linearGradient4223"
       inkscape:collect="always">
      <stop
         stop-opacity="0.803"
         stop-color="#bebebe"
         id="stop4225" />
      <stop
         stop-opacity="0.732"
         stop-color="#9f9f9f"
         id="stop4227"
         offset="1" />
    </linearGradient>
    <linearGradient
       id="linearGradient4211"
       inkscape:collect="always">
      <stop
         stop-opacity="0.634"
         stop-color="#9f9f9f"
         id="stop4213" />
      <stop
         stop-opacity="0"
         stop-color="#696969"
         id="stop4215"
         offset="1" />
    </linearGradient>
    <linearGradient
       id="linearGradient4171"
       inkscape:collect="always">
      <stop
         stop-opacity="0.623"
         stop-color="#848484"
         id="stop4173" />
      <stop
         stop-opacity="0.698"
         stop-color="#cdcdcd"
         id="stop4175"
         offset="1" />
    </linearGradient>
    <linearGradient
       id="linearGradient4142"
       inkscape:collect="always">
      <stop
         stop-opacity="0.519"
         stop-color="#909090"
         id="stop4144" />
      <stop
         stop-opacity="0"
         stop-color="#696969"
         id="stop4146"
         offset="1" />
    </linearGradient>
    <linearGradient
       gradientUnits="userSpaceOnUse"
       y2="324.36"
       x2="278.75"
       y1="63.25"
       x1="165.74"
       id="linearGradient4148"
       xlink:href="#linearGradient4142"
       inkscape:collect="always" />
    <linearGradient
       spreadMethod="reflect"
       gradientUnits="userSpaceOnUse"
       y2="114.16"
       x2="387.93"
       y1="106.85"
       x1="379.78"
       id="linearGradient4177"
       xlink:href="#linearGradient4171"
       inkscape:collect="always" />
    <linearGradient
       gradientTransform="translate(26.808511,-26.382979)"
       y2="114.16"
       x2="387.93"
       y1="108.46"
       x1="381.27"
       spreadMethod="reflect"
       gradientUnits="userSpaceOnUse"
       id="linearGradient4207"
       xlink:href="#linearGradient4171"
       inkscape:collect="always" />
    <linearGradient
       gradientUnits="userSpaceOnUse"
       y2="125.1"
       x2="281.1"
       y1="61.711"
       x1="284.7"
       id="linearGradient4217"
       xlink:href="#linearGradient4211"
       inkscape:collect="always" />
    <linearGradient
       gradientUnits="userSpaceOnUse"
       y2="103.09"
       x2="255.7"
       y1="93.26"
       x1="259.02"
       id="linearGradient4229"
       xlink:href="#linearGradient4223"
       inkscape:collect="always" />
    <linearGradient
       gradientUnits="userSpaceOnUse"
       y2="117.29"
       x2="258.99"
       y1="102.54"
       x1="262.84"
       id="linearGradient4237"
       xlink:href="#linearGradient4223"
       inkscape:collect="always" />
    <filter
       color-interpolation-filters="sRGB"
       height="1.136"
       y="-0.068"
       width="1.049"
       x="-0.024"
       id="filter4257"
       inkscape:collect="always">
      <feGaussianBlur
         id="feGaussianBlur4259"
         stdDeviation="2.75443"
         inkscape:collect="always" />
    </filter>
    <filter
       height="1.1000979"
       y="-0.050048949"
       width="1.0562191"
       x="-0.028109536"
       id="filter4175"
       style="color-interpolation-filters:sRGB"
       inkscape:collect="always">
      <feGaussianBlur
         id="feGaussianBlur4177"
         stdDeviation="3.5625119"
         inkscape:collect="always" />
    </filter>
  </defs>
  <sodipodi:namedview
     inkscape:window-height="1056"
     inkscape:window-width="1920"
     inkscape:pageshadow="2"
     inkscape:pageopacity="0.0"
     guidetolerance="10.0"
     gridtolerance="10.0"
     objecttolerance="10.0"
     borderopacity="1.0"
     bordercolor="#666666"
     pagecolor="#ffffff"
     id="base"
     width="256"
     height="256"
     inkscape:zoom="3.3984375"
     inkscape:cx="128"
     inkscape:cy="128"
     inkscape:window-x="0"
     inkscape:window-y="0"
     inkscape:current-layer="svg2"
     showgrid="false"
     inkscape:window-maximized="1" />
  <g
     transform="matrix(0.77077081,0,0,0.77077081,-84.191749,-23.766744)"
     id="g4261">
    <path
       style="fill:#000000;fill-opacity:0.51399997;fill-rule:evenodd;stroke:none;stroke-width:1;stroke-linecap:butt;stroke-linejoin:miter;stroke-opacity:1;filter:url(#filter4257)"
       d="m 137.15847,253.33333 1.0929,10.92897 c 1.69466,2.56439 1.62485,5.1824 6.55737,7.10382 l 234.9905,77.59563 c 4.36168,2.76045 7.27409,1.93611 10.91114,-1.0929 l 16.39344,-17.48633 z"
       id="path4239"
       inkscape:connector-curvature="0"
       sodipodi:nodetypes="ccccccc" />
    <path
       style="fill:#000000;fill-opacity:0.73000004;fill-rule:evenodd;stroke:none;stroke-width:1;stroke-linecap:butt;stroke-linejoin:miter;stroke-opacity:1"
       d="M 146.27659,241.2766 139.89362,67.340426 c -0.0538,-6.437983 2.49923,-9.41706 7.97872,-7.978724 l 135.10638,37.234043 c 8.12648,2.325734 17.80936,-1.266511 19.14894,-15.425533 0.93604,-9.893676 4.6708,-17.669623 18.61702,-14.893617 l 85.6383,19.680851 c 6.41139,1.511285 7.81765,4.447577 7.4468,11.702128 l -2.12765,230.851066 -5.31915,5.85106 -254.86675,-84.34164 z"
       id="path4198"
       inkscape:connector-curvature="0"
       sodipodi:nodetypes="ccccsccccccc" />
    <path
       style="fill:url(#linearGradient4217);fill-opacity:1;fill-rule:evenodd;stroke:none;stroke-width:1;stroke-linecap:butt;stroke-linejoin:miter;stroke-opacity:1"
       sodipodi:nodetypes="ccccsccccccc"
       inkscape:connector-curvature="0"
       id="path4209"
       d="M 146.27659,241.2766 139.89362,67.340426 c -0.0538,-6.437983 2.49923,-9.41706 7.97872,-7.978724 l 135.10638,37.234043 c 8.12648,2.325734 17.80936,-1.266511 19.14894,-15.425533 0.93604,-9.893676 4.6708,-17.669623 18.61702,-14.893617 l 85.6383,19.680851 c 6.41139,1.511285 7.81765,4.447577 7.4468,11.702128 l -2.12765,230.851066 -5.31915,5.85106 -254.86675,-84.34164 z" />
    <path
       style="fill:url(#linearGradient4229);fill-opacity:1;fill-rule:evenodd;stroke:#cecece;stroke-width:1;stroke-linecap:butt;stroke-linejoin:miter;stroke-opacity:0.70499998"
       inkscape:connector-curvature="0"
       id="path4221"
       d="m 142.62295,64.262295 267.21311,65.573775 1.0929,194.53552 -256.8306,-92.89618 z"
       sodipodi:nodetypes="ccccc" />
    <path
       style="fill:url(#linearGradient4237);fill-opacity:1;fill-rule:evenodd;stroke:#cecece;stroke-width:1;stroke-linecap:butt;stroke-linejoin:miter;stroke-opacity:0.70499998"
       d="m 136.61202,73.005464 267.21311,65.573776 4.37159,189.07104 -260.10929,-87.4317 z"
       id="path4219"
       inkscape:connector-curvature="0" />
    <path
       style="fill:#000000;fill-opacity:0.76999996;fill-rule:evenodd;stroke:none;stroke-width:1;stroke-linecap:butt;stroke-linejoin:miter;stroke-opacity:1"
       d="m 116.2037,92.685185 c 1.13182,-4.540599 4.63483,-9.034209 10.68729,-7.545261 L 261.11111,123.7037 c 6.48148,1.63624 16.36287,0.33244 20.83334,-11.11111 4.00878,-10.26173 10.87392,-18.779525 25.46296,-16.203701 l 68.51852,13.888891 c 12.25335,3.29007 11.96705,11.68066 12.96296,18.51851 l 12.5,205.55556 c 0.64976,7.44283 -5.7507,13.21303 -12.96296,10.18518 L 144.90741,262.59259 c -4.92216,-1.55932 -8.93994,-3.09709 -9.25926,-10.18518 z"
       id="path4138"
       inkscape:connector-curvature="0"
       sodipodi:nodetypes="cccscccccccc" />
    <path
       style="fill:url(#linearGradient4148);fill-opacity:1;fill-rule:evenodd;stroke:none;stroke-width:1;stroke-linecap:butt;stroke-linejoin:miter;stroke-opacity:1"
       sodipodi:nodetypes="cccsccccccc"
       inkscape:connector-curvature="0"
       id="path4140"
       d="m 116.2037,92.685185 c 1.13182,-4.540599 4.63483,-9.034209 10.68729,-7.545261 L 261.11111,123.7037 c 6.48148,1.63624 16.36287,0.33244 20.83334,-11.11111 4.00878,-10.26173 10.87392,-18.779525 25.46296,-16.203701 l 68.51852,13.888891 c 12.25335,3.29007 11.96705,11.68066 12.96296,18.51851 l 12.5,205.55556 c 0.64976,7.44283 -5.7507,13.21303 -12.96296,10.18518 L 209.72222,283.88889 C 173.76467,257.82993 120.35853,138.21611 116.2037,92.685185 Z" />
    <path
       style="fill:#000000;fill-opacity:0.27300002;fill-rule:evenodd;stroke:none;stroke-width:1;stroke-linecap:butt;stroke-linejoin:miter;stroke-opacity:1;filter:url(#filter4175)"
       d="m 177.77778,215.83334 -80.555558,82.4074 255.555558,88.42593 38.75029,-40.87068 c 4.63488,-1.3015 9.96817,-1.38077 9.86082,-10.98118 L 396.29629,282.5 Z"
       id="path4150"
       inkscape:connector-curvature="0"
       sodipodi:nodetypes="ccccccc" />
    <path
       style="fill:#848484;fill-opacity:1;fill-rule:evenodd;stroke:none;stroke-width:1;stroke-linecap:butt;stroke-linejoin:miter;stroke-opacity:1"
       inkscape:connector-curvature="0"
       d="m 130.29688,79.757812 c -3.73674,-0.05935 -6.2712,2.374412 -7.66211,5.353516 1.24508,-0.330919 2.6592,-0.363492 4.25585,0.0293 l 134.22071,38.562492 c 5.49861,1.38812 13.44221,0.65773 18.45508,-6.58203 -4.30627,2.38583 -9.16625,2.43292 -12.90039,1.49024 L 132.44727,80.046875 c -0.75656,-0.186118 -1.47316,-0.278306 -2.15039,-0.289063 z m 177.54687,11.074219 c -7.10689,0.02874 -11.9932,3.152137 -15.51367,7.738281 3.82724,-2.318415 8.71897,-3.304404 15.07812,-2.18164 l 68.51758,13.888668 c 12.25335,3.29007 11.96698,11.68169 12.96289,18.51954 l 12.5,205.55468 c 0.1753,2.00795 -0.17581,3.88521 -0.90429,5.50977 4.09619,-1.28823 6.90142,-5.55587 6.46093,-10.60156 l -12.5,-205.55665 c -0.99591,-6.83785 -0.70954,-15.2275 -12.96289,-18.51757 L 312.96289,91.296875 c -1.82363,-0.321978 -3.52737,-0.47128 -5.11914,-0.464844 z"
       id="path4164" />
    <path
       style="fill:url(#linearGradient4177);fill-opacity:1;fill-rule:evenodd;stroke:none;stroke-width:1;stroke-linecap:butt;stroke-linejoin:miter;stroke-opacity:1"
       id="path4169"
       d="m 375.92578,110.27734 c 12.25335,3.29007 11.96698,11.68169 12.96289,18.51954 2.18404,-2.05828 3.13422,-2.71335 5.55664,-5.09376 -0.99591,-6.83785 -0.70954,-15.2275 -12.96289,-18.51757 -2.39781,2.28773 -2.9924,2.79876 -5.55664,5.09179 z"
       inkscape:connector-curvature="0"
       sodipodi:nodetypes="ccccc" />
    <path
       style="fill:#858585;fill-opacity:1;fill-rule:evenodd;stroke:none;stroke-width:1;stroke-linecap:butt;stroke-linejoin:miter;stroke-opacity:1"
       inkscape:connector-curvature="0"
       d="m 151.9043,54.332031 c -2.67378,0.112285 -4.27807,1.802415 -4.90039,4.837891 0.28199,0.05237 0.56972,0.11281 0.86914,0.191406 l 135.10547,37.234375 c 5.41154,1.54874 11.51034,0.467116 15.3789,-4.605469 -2.77183,0.801996 -5.76159,0.727663 -8.57031,-0.07617 L 154.68164,54.681641 c -1.0274,-0.269688 -1.9536,-0.384203 -2.77734,-0.34961 z m 170.88281,6.701172 c -5.39865,-0.126557 -8.73663,1.852669 -10.81445,5.035156 2.34672,-0.518874 5.2277,-0.496408 8.77148,0.208985 l 85.63867,19.679687 c 6.41139,1.511285 7.81812,4.448574 7.44727,11.703125 l -2.12891,230.849614 -0.47461,0.52148 1.96485,0.65039 5.31836,-5.85156 2.1289,-230.851564 c 0.37085,-7.254551 -1.03587,-10.189887 -7.44726,-11.701172 L 327.55273,61.595703 c -1.74327,-0.347001 -3.32697,-0.528775 -4.76562,-0.5625 z"
       id="path4200" />
    <path
       style="fill:url(#linearGradient4207);fill-opacity:1;fill-rule:evenodd;stroke:none;stroke-width:1;stroke-linecap:butt;stroke-linejoin:miter;stroke-opacity:1"
       sodipodi:nodetypes="ccccc"
       inkscape:connector-curvature="0"
       d="m 403.12392,85.141164 c 12.4021,2.867396 10.71654,4.984484 10.70306,18.467586 2.18404,-2.05828 4.25114,-3.752349 6.67356,-6.132759 0.48467,-12.136762 1.00482,-14.993724 -11.89791,-17.244792 -2.39781,2.28773 -2.91447,2.616935 -5.47871,4.909965 z"
       id="path4205" />
  </g>
  <ellipse
     style="opacity:1;fill:#000000;fill-opacity:0.36231884;stroke:none;stroke-width:2.0999999;stroke-linecap:round;stroke-miterlimit:4;stroke-dasharray:none;stroke-opacity:0.20105818;filter:url(#filter4602)"
     id="path4588"
     cx="111.31765"
     cy="188.0488"
     rx="71.209198"
     ry="60.976589"
     transform="matrix(1,0,0.21232946,0.97719814,-73.857471,7.3563218)" />
  <g
     id="g5387"
     transform="translate(179.78851,32.956323)">
    <ellipse
       ry="73.769997"
       rx="75.470001"
       id="path2772"
       cx="-81.290001"
       cy="137.58"
       stroke-miterlimit="4"
       style="fill:url(#linearGradient3247);fill-opacity:1;stroke:none;stroke-width:0.5;stroke-linecap:round;stroke-linejoin:round;stroke-miterlimit:4;stroke-dasharray:none;stroke-dashoffset:0;stroke-opacity:1" />
    <ellipse
       id="path2776"
       cx="-82.961998"
       cy="80.459999"
       rx="31.471001"
       ry="15.231"
       stroke-miterlimit="4"
       style="fill:none;fill-opacity:1;stroke:url(#linearGradient3250);stroke-width:2.49699998;stroke-linecap:round;stroke-linejoin:round;stroke-miterlimit:4;stroke-dasharray:none;stroke-dashoffset:0;stroke-opacity:1" />
    <path
       sodipodi:nodetypes="ccccc"
       id="path2778"
       d="m -30.7489,84.768434 c 2.757871,3.808847 4.156084,8.206008 4.312148,12.841217 0,18.216129 -24.570348,33.000239 -54.844524,33.000239 -30.274184,0 -54.844534,-14.78411 -54.844534,-33.000239 -0.0383,-4.68237 1.74016,-8.9744 4.31215,-12.841217"
       inkscape:connector-curvature="0"
       stroke-miterlimit="4"
       style="fill:none;fill-opacity:1;stroke:url(#linearGradient8536);stroke-width:2.49699998;stroke-linecap:round;stroke-linejoin:round;stroke-miterlimit:4;stroke-dasharray:none;stroke-dashoffset:0;stroke-opacity:1" />
    <path
       sodipodi:nodetypes="ccccc"
       id="path2780"
       d="m -13.887045,108.23963 c 0.916995,3.30493 1.398608,6.7265 1.398608,10.2306 0,28.03276 -30.822988,50.784 -68.801319,50.784 -37.978324,0 -68.801314,-22.75124 -68.801314,-50.784 0,-3.5041 0.48161,-6.92567 1.3986,-10.2306"
       inkscape:connector-curvature="0"
       stroke-miterlimit="4"
       style="fill:none;fill-opacity:1;stroke:url(#linearGradient8533);stroke-width:2.41700006;stroke-linecap:round;stroke-linejoin:round;stroke-miterlimit:4;stroke-dasharray:none;stroke-dashoffset:0;stroke-opacity:1" />
    <path
       sodipodi:nodetypes="ccccc"
       id="path2782"
       d="m -9.6752692,119.42655 c 0.9722217,4.15846 1.4828242,8.46369 1.4828242,12.87275 0,35.27254 -32.679159,63.89953 -72.944541,63.89953 -40.265404,0 -72.944564,-28.62699 -72.944564,-63.89953 0,-4.40906 0.51061,-8.71429 1.48283,-12.87275"
       inkscape:connector-curvature="0"
       stroke-miterlimit="4"
       style="fill:none;fill-opacity:1;stroke:url(#linearGradient8530);stroke-width:2.37800002;stroke-linecap:round;stroke-linejoin:round;stroke-miterlimit:4;stroke-dasharray:none;stroke-dashoffset:0;stroke-opacity:1" />
    <ellipse
       id="path2787"
       cx="-80.360001"
       cy="137.48"
       rx="35.541"
       ry="73.110001"
       stroke-miterlimit="4"
       style="fill:none;fill-opacity:1;stroke:url(#linearGradient3258);stroke-width:2.60500002;stroke-linecap:round;stroke-linejoin:round;stroke-miterlimit:4;stroke-dasharray:none;stroke-dashoffset:0;stroke-opacity:1" />
    <ellipse
       id="path2789"
       cx="-81.43"
       cy="137.78"
       rx="58.976002"
       ry="72.580002"
       stroke-miterlimit="4"
       style="fill:none;fill-opacity:1;stroke:url(#linearGradient3260);stroke-width:2.48399997;stroke-linecap:round;stroke-linejoin:round;stroke-miterlimit:4;stroke-dasharray:none;stroke-dashoffset:0;stroke-opacity:1" />
    <ellipse
       id="path9315"
       cx="-81.983002"
       cy="104.5"
       rx="57.706001"
       ry="39.48"
       stroke-miterlimit="4"
       style="fill:url(#linearGradient9323);fill-opacity:1;stroke:none;stroke-width:2;stroke-linejoin:round;stroke-miterlimit:4;stroke-dasharray:none;stroke-opacity:1" />
    <ellipse
       ry="72.739998"
       rx="74.57"
       id="path2815"
       transform="scale(1,-1)"
       cx="-81.57"
       cy="-137.8"
       stroke-miterlimit="4"
       style="fill:none;fill-opacity:1;stroke:url(#linearGradient8543);stroke-width:3.3269999;stroke-linecap:round;stroke-linejoin:round;stroke-miterlimit:4;stroke-dasharray:none;stroke-dashoffset:0;stroke-opacity:1" />
  </g>
  <g
     font-size="7.5"
     font-variant="normal"
     letter-spacing="0"
     font-stretch="normal"
     font-weight="bold"
     line-height="125%"
     word-spacing="0"
     font-style="normal"
     transform="translate(67.488666,-41.588167)"
     id="text4330"
     style="font-style:normal;font-variant:normal;font-weight:bold;font-stretch:normal;font-size:7.5px;line-height:125%;font-family:STIX;letter-spacing:0;word-spacing:0;fill:#000000;fill-opacity:1;stroke:none;stroke-width:1;stroke-linecap:butt;stroke-linejoin:miter;stroke-opacity:1">
    <path
       inkscape:connector-curvature="0"
       id="path4335"
       d="m -56.13327,39.467617 0,-0.1875 c -0.3075,0 -0.4425,-0.165 -0.825,-1.0725 l -1.665,-3.915 -0.21,0 -1.6575,4.0875 c -0.285,0.705 -0.3975,0.84 -0.7425,0.9 l 0,0.1875 1.515,0 0,-0.1875 c -0.4425,-0.03 -0.6075,-0.1125 -0.6075,-0.3075 0,-0.18 0.1425,-0.495 0.2325,-0.7275 l 0.0975,-0.255 1.6875,0 c 0.255,0.5925 0.345,0.855 0.345,1.02 0,0.165 -0.0975,0.225 -0.345,0.2475 l -0.24,0.0225 0,0.1875 2.415,0 z m -2.2875,-1.77 -1.4625,0 0.705,-1.8225 0.7575,1.8225 z" />
    <path
       inkscape:connector-curvature="0"
       id="path4337"
       d="m -55.760848,34.397617 0,0.1875 c 0.525,0.045 0.63,0.15 0.63,0.735 l 0,3.2025 c 0,0.3825 -0.045,0.5925 -0.2925,0.69 -0.0825,0.0375 -0.195,0.0525 -0.3375,0.0675 l 0,0.1875 2.4975,0 0,-0.1875 c -0.5925,-0.075 -0.6525,-0.1425 -0.6525,-0.645 l 0,-1.44 c 0.99,-0.0075 1.245,-0.03 1.5675,-0.15 0.6225,-0.2325 0.9675,-0.69 0.9675,-1.29 0,-0.915 -0.765,-1.3575 -2.0175,-1.3575 l -2.3625,0 z m 1.845,0.525 c 0,-0.1725 0.1275,-0.2625 0.375,-0.2625 0.6225,0 0.87,0.345 0.87,1.1775 0,0.8325 -0.3075,1.0875 -1.245,1.095 l 0,-2.01 z" />
  </g>
</svg>
