<?xml version="1.0" encoding="UTF-8" standalone="no"?>
<!-- Created with Inkscape (http://www.inkscape.org/) -->

<svg
   xmlns:dc="http://purl.org/dc/elements/1.1/"
   xmlns:cc="http://creativecommons.org/ns#"
   xmlns:rdf="http://www.w3.org/1999/02/22-rdf-syntax-ns#"
   xmlns:svg="http://www.w3.org/2000/svg"
   xmlns="http://www.w3.org/2000/svg"
   xmlns:xlink="http://www.w3.org/1999/xlink"
   xmlns:sodipodi="http://sodipodi.sourceforge.net/DTD/sodipodi-0.dtd"
   xmlns:inkscape="http://www.inkscape.org/namespaces/inkscape"
   id="svg2"
   sodipodi:version="0.32"
   inkscape:version="0.91 r13725"
   width="256"
   height="256"
   sodipodi:docname="folder-video-war.svg"
   inkscape:output_extension="org.inkscape.output.svg.inkscape"
   version="1.1">
  <metadata
     id="metadata7">
    <rdf:RDF>
      <cc:Work>
        <dc:format>image/svg+xml</dc:format>
        <dc:type
           rdf:resource="http://purl.org/dc/dcmitype/StillImage" />
      </cc:Work>
    </rdf:RDF>
  </metadata>
  <defs
     id="defs5">
    <linearGradient
       id="linearGradient3378">
      <stop
         id="stop3380"
         stop-color="#000000"
         stop-opacity="1" />
      <stop
         offset="1"
         id="stop3382"
         stop-color="#000000"
         stop-opacity="0" />
    </linearGradient>
    <linearGradient
       id="linearGradient3368">
      <stop
         id="stop3370"
         stop-color="#ffffff"
         stop-opacity="1" />
      <stop
         offset="1"
         id="stop3372"
         stop-color="#000000"
         stop-opacity="1" />
    </linearGradient>
    <linearGradient
       id="linearGradient3302">
      <stop
         id="stop3304"
         stop-color="#4f4f4f"
         stop-opacity="1" />
      <stop
         offset="1"
         id="stop3306"
         stop-color="#e7e7e7"
         stop-opacity="1" />
    </linearGradient>
    <linearGradient
       id="linearGradient3276">
      <stop
         id="stop3278"
         stop-color="#000000"
         stop-opacity="1" />
      <stop
         id="stop3284"
         offset="0.223"
         stop-color="#7f7f7f"
         stop-opacity="1" />
      <stop
         offset="0.885"
         id="stop3286"
         stop-color="#838383"
         stop-opacity="1" />
      <stop
         offset="1"
         id="stop3280"
         stop-color="#ffffff"
         stop-opacity="1" />
    </linearGradient>
    <linearGradient
       id="linearGradient3264">
      <stop
         id="stop3266"
         stop-color="#000000"
         stop-opacity="1" />
      <stop
         offset="0.381"
         id="stop3268"
         stop-color="#a9a9a9"
         stop-opacity="1" />
      <stop
         id="stop3270"
         offset="0.648"
         stop-color="#474747"
         stop-opacity="1" />
      <stop
         id="stop3272"
         offset="1"
         stop-color="#ffffff"
         stop-opacity="1" />
    </linearGradient>
    <linearGradient
       id="linearGradient3212">
      <stop
         id="stop3214"
         stop-color="#8f8f8f"
         stop-opacity="1" />
      <stop
         offset="1"
         id="stop3216"
         stop-color="#000000"
         stop-opacity="1" />
    </linearGradient>
    <linearGradient
       id="linearGradient3190">
      <stop
         id="stop3192"
         stop-color="#000000"
         stop-opacity="1" />
      <stop
         offset="1"
         id="stop3194"
         stop-color="#ffffff"
         stop-opacity="1" />
    </linearGradient>
    <linearGradient
       id="linearGradient3158">
      <stop
         id="stop3160"
         stop-color="#000000"
         stop-opacity="1" />
      <stop
         id="stop3166"
         offset="0.381"
         stop-color="#a9a9a9"
         stop-opacity="1" />
      <stop
         offset="0.75"
         id="stop3168"
         stop-color="#474747"
         stop-opacity="1" />
      <stop
         offset="1"
         id="stop3162"
         stop-color="#ffffff"
         stop-opacity="1" />
    </linearGradient>
    <linearGradient
       inkscape:collect="always"
       xlink:href="#linearGradient3378"
       id="linearGradient3491"
       gradientUnits="userSpaceOnUse"
       x1="101.73"
       y1="425.83"
       x2="158.72"
       y2="450.68" />
    <linearGradient
       inkscape:collect="always"
       xlink:href="#linearGradient3158"
       id="linearGradient3213"
       gradientUnits="userSpaceOnUse"
       gradientTransform="translate(-4.2424224,-4.8484849)"
       spreadMethod="reflect"
       x1="668.48"
       y1="235.88"
       x2="664.85"
       y2="103.15" />
    <linearGradient
       inkscape:collect="always"
       xlink:href="#linearGradient3158"
       id="linearGradient3215"
       gradientUnits="userSpaceOnUse"
       gradientTransform="translate(3.6363636,8.4848485)"
       spreadMethod="reflect"
       x1="720.71"
       y1="175.29"
       x2="720.2"
       y2="135.29" />
    <linearGradient
       inkscape:collect="always"
       xlink:href="#linearGradient3190"
       id="linearGradient3217"
       gradientUnits="userSpaceOnUse"
       x1="746.87"
       y1="135.75"
       x2="746.87"
       y2="197.92" />
    <linearGradient
       inkscape:collect="always"
       xlink:href="#linearGradient3158"
       id="linearGradient3219"
       gradientUnits="userSpaceOnUse"
       gradientTransform="matrix(1.0013722,0,0,0.6700299,0.8453685,156.97893)"
       spreadMethod="reflect"
       x1="720.71"
       y1="175.29"
       x2="720.2"
       y2="135.29" />
    <linearGradient
       inkscape:collect="always"
       xlink:href="#linearGradient3190"
       id="linearGradient3221"
       gradientUnits="userSpaceOnUse"
       x1="745.05"
       y1="238.61"
       x2="745.05"
       y2="289.53" />
    <linearGradient
       inkscape:collect="always"
       xlink:href="#linearGradient3158"
       id="linearGradient3223"
       gradientUnits="userSpaceOnUse"
       gradientTransform="matrix(1.0013722,0,0,-0.6700299,-2.1849345,182.07766)"
       spreadMethod="reflect"
       x1="720.71"
       y1="175.29"
       x2="720.2"
       y2="135.29" />
    <linearGradient
       inkscape:collect="always"
       xlink:href="#linearGradient3190"
       id="linearGradient3225"
       gradientUnits="userSpaceOnUse"
       x1="754.65"
       y1="48.32"
       x2="755.35"
       y2="96.8" />
    <radialGradient
       inkscape:collect="always"
       xlink:href="#linearGradient3190"
       id="radialGradient3227"
       gradientUnits="userSpaceOnUse"
       gradientTransform="matrix(1.6314319,0.08738467,-0.03994611,0.7457757,-281.65348,11.151663)"
       spreadMethod="reflect"
       cx="458.23"
       cy="184.25"
       fx="450.86"
       fy="216.81"
       r="52.848" />
    <linearGradient
       inkscape:collect="always"
       xlink:href="#linearGradient3190"
       id="linearGradient3229"
       gradientUnits="userSpaceOnUse"
       spreadMethod="reflect"
       x1="483.74"
       y1="287.7"
       x2="559.29"
       y2="178" />
    <radialGradient
       inkscape:collect="always"
       xlink:href="#linearGradient3212"
       id="radialGradient3231"
       gradientUnits="userSpaceOnUse"
       spreadMethod="reflect"
       cx="456.97"
       cy="259.82"
       fx="456.97"
       fy="259.82"
       r="11.515" />
    <linearGradient
       inkscape:collect="always"
       xlink:href="#linearGradient3276"
       id="linearGradient3235"
       gradientUnits="userSpaceOnUse"
       x1="825.76"
       y1="185.27"
       x2="825.76"
       y2="274.97" />
    <linearGradient
       inkscape:collect="always"
       xlink:href="#linearGradient3264"
       id="linearGradient3237"
       gradientUnits="userSpaceOnUse"
       spreadMethod="reflect"
       x1="820.61"
       y1="141.33"
       x2="820.61"
       y2="171.06" />
    <linearGradient
       inkscape:collect="always"
       xlink:href="#linearGradient3302"
       id="linearGradient3241"
       gradientUnits="userSpaceOnUse"
       spreadMethod="reflect"
       x1="588.16"
       y1="392.63"
       x2="602.73"
       y2="478.35" />
    <linearGradient
       inkscape:collect="always"
       xlink:href="#linearGradient3158"
       id="linearGradient3243"
       gradientUnits="userSpaceOnUse"
       spreadMethod="reflect"
       x1="1279.92"
       y1="74.18"
       x2="1279.92"
       y2="134.45" />
    <linearGradient
       inkscape:collect="always"
       xlink:href="#linearGradient3264"
       id="linearGradient3245"
       gradientUnits="userSpaceOnUse"
       gradientTransform="translate(-0.6024097,-2.4096381)"
       spreadMethod="reflect"
       x1="1204.61"
       y1="172.7"
       x2="1204.61"
       y2="150.41" />
    <linearGradient
       inkscape:collect="always"
       xlink:href="#linearGradient3158"
       id="linearGradient3247"
       gradientUnits="userSpaceOnUse"
       spreadMethod="reflect"
       x1="1426.71"
       y1="160.35"
       x2="1425.7"
       y2="191.67" />
    <linearGradient
       inkscape:collect="always"
       xlink:href="#linearGradient3190"
       id="linearGradient3249"
       gradientUnits="userSpaceOnUse"
       spreadMethod="reflect"
       x1="1145.58"
       y1="187.82"
       x2="1145.58"
       y2="178.72" />
    <linearGradient
       inkscape:collect="always"
       xlink:href="#linearGradient3302"
       id="linearGradient3251"
       gradientUnits="userSpaceOnUse"
       x1="1665.16"
       y1="24.506"
       x2="1710.74"
       y2="0.512" />
    <radialGradient
       inkscape:collect="always"
       xlink:href="#linearGradient3212"
       id="radialGradient3253"
       gradientUnits="userSpaceOnUse"
       spreadMethod="reflect"
       cx="453.52"
       cy="259.82"
       fx="453.52"
       fy="259.82"
       r="11.515" />
    <linearGradient
       inkscape:collect="always"
       xlink:href="#linearGradient3368"
       id="linearGradient3255"
       gradientUnits="userSpaceOnUse"
       x1="437.04"
       y1="274.68"
       x2="458.21"
       y2="260.18" />
    <linearGradient
       inkscape:collect="always"
       xlink:href="#linearGradient3378"
       id="linearGradient3259"
       gradientUnits="userSpaceOnUse"
       x1="366.08"
       y1="555.53"
       x2="255.71"
       y2="500.98" />
    <linearGradient
       inkscape:collect="always"
       xlink:href="#linearGradient3378"
       id="linearGradient3261"
       gradientUnits="userSpaceOnUse"
       x1="116.88"
       y1="710.68"
       x2="114"
       y2="630.07" />
    <filter
       inkscape:collect="always"
       id="filter4777"
       x="-0.023856388"
       width="1.0477128"
       y="-0.024145351"
       height="1.0482907"
       color-interpolation-filters="sRGB">
      <feGaussianBlur
         inkscape:collect="always"
         id="feGaussianBlur4779"
         stdDeviation="1.8484833" />
    </filter>
    <linearGradient
       inkscape:collect="always"
       id="linearGradient4167">
      <stop
         id="stop4169"
         stop-color="#adadad"
         stop-opacity="0.624" />
      <stop
         offset="1"
         id="stop4171"
         stop-color="#ffffff"
         stop-opacity="0.973" />
    </linearGradient>
    <linearGradient
       id="linearGradient4223"
       inkscape:collect="always">
      <stop
         id="stop4225"
         stop-color="#bebebe"
         stop-opacity="0.803" />
      <stop
         id="stop4227"
         offset="1"
         stop-color="#9f9f9f"
         stop-opacity="0.732" />
    </linearGradient>
    <linearGradient
       id="linearGradient4211"
       inkscape:collect="always">
      <stop
         id="stop4213"
         stop-color="#9f9f9f"
         stop-opacity="0.634" />
      <stop
         id="stop4215"
         offset="1"
         stop-color="#696969"
         stop-opacity="0" />
    </linearGradient>
    <linearGradient
       id="linearGradient4171"
       inkscape:collect="always">
      <stop
         id="stop4173"
         stop-color="#b2b2b2"
         stop-opacity="0.624" />
      <stop
         id="stop4175"
         offset="1"
         stop-color="#ffffff"
         stop-opacity="0.698" />
    </linearGradient>
    <linearGradient
       id="linearGradient4142"
       inkscape:collect="always">
      <stop
         id="stop4144"
         stop-color="#909090"
         stop-opacity="0.519" />
      <stop
         id="stop4146"
         offset="1"
         stop-color="#696969"
         stop-opacity="0" />
    </linearGradient>
    <linearGradient
       gradientUnits="userSpaceOnUse"
       y2="324.36"
       x2="278.75"
       y1="63.25"
       x1="165.74"
       id="linearGradient4148"
       xlink:href="#linearGradient4142"
       inkscape:collect="always" />
    <filter
       height="1.1"
       y="-0.05"
       width="1.056"
       x="-0.028"
       id="filter4160"
       inkscape:collect="always"
       color-interpolation-filters="sRGB">
      <feGaussianBlur
         id="feGaussianBlur4162"
         stdDeviation="3.56251"
         inkscape:collect="always" />
    </filter>
    <linearGradient
       spreadMethod="reflect"
       gradientUnits="userSpaceOnUse"
       y2="114.16"
       x2="387.93"
       y1="106.85"
       x1="379.78"
       id="linearGradient4177"
       xlink:href="#linearGradient4167"
       inkscape:collect="always" />
    <linearGradient
       gradientTransform="translate(26.808511,-26.382979)"
       y2="114.16"
       x2="387.93"
       y1="108.46"
       x1="381.27"
       spreadMethod="reflect"
       gradientUnits="userSpaceOnUse"
       id="linearGradient4207"
       xlink:href="#linearGradient4171"
       inkscape:collect="always" />
    <linearGradient
       gradientUnits="userSpaceOnUse"
       y2="125.1"
       x2="281.1"
       y1="61.711"
       x1="284.7"
       id="linearGradient4217"
       xlink:href="#linearGradient4211"
       inkscape:collect="always" />
    <linearGradient
       gradientUnits="userSpaceOnUse"
       y2="103.09"
       x2="255.7"
       y1="93.26"
       x1="259.02"
       id="linearGradient4229"
       xlink:href="#linearGradient4223"
       inkscape:collect="always" />
    <linearGradient
       gradientUnits="userSpaceOnUse"
       y2="117.29"
       x2="258.99"
       y1="102.54"
       x1="262.84"
       id="linearGradient4237"
       xlink:href="#linearGradient4223"
       inkscape:collect="always" />
    <filter
       height="1.136"
       y="-0.068"
       width="1.049"
       x="-0.024"
       id="filter4257"
       inkscape:collect="always"
       color-interpolation-filters="sRGB">
      <feGaussianBlur
         id="feGaussianBlur4259"
         stdDeviation="2.75443"
         inkscape:collect="always" />
    </filter>
  </defs>
  <sodipodi:namedview
     inkscape:window-height="1056"
     inkscape:window-width="1920"
     inkscape:pageshadow="2"
     inkscape:pageopacity="0.0"
     guidetolerance="10.0"
     gridtolerance="10.0"
     objecttolerance="10.0"
     borderopacity="1.0"
     bordercolor="#666666"
     pagecolor="#ffffff"
     id="base"
     showgrid="false"
     inkscape:zoom="3.5429688"
     inkscape:cx="128"
     inkscape:cy="128"
     inkscape:window-x="0"
     inkscape:window-y="0"
     inkscape:current-layer="svg2"
     inkscape:window-maximized="1" />
  <g
     transform="matrix(0.77128144,0,0,0.77128144,-80.709983,-25.745659)"
     id="g4261">
    <path
       d="m 137.15847,253.33333 1.0929,10.92897 c 1.69466,2.56439 1.62485,5.1824 6.55737,7.10382 l 234.9905,77.59563 c 4.36168,2.76045 7.27409,1.93611 10.91114,-1.0929 l 16.39344,-17.48633 z"
       id="path4239"
       inkscape:connector-curvature="0"
       sodipodi:nodetypes="ccccccc"
       stroke-opacity="1"
       fill="#000000"
       filter="url(#filter4257)"
       fill-rule="evenodd"
       stroke="none"
       stroke-linejoin="miter"
       fill-opacity="0.514"
       stroke-linecap="butt"
       stroke-width="1" />
    <path
       d="M 146.27659,241.2766 139.89362,67.340426 c -0.0538,-6.437983 2.49923,-9.41706 7.97872,-7.978724 l 135.10638,37.234043 c 8.12648,2.325734 17.80936,-1.266511 19.14894,-15.425533 0.93604,-9.893676 4.6708,-17.669623 18.61702,-14.893617 l 85.6383,19.680851 c 6.41139,1.511285 7.81765,4.447577 7.4468,11.702128 l -2.12765,230.851066 -5.31915,5.85106 -254.86675,-84.34164 z"
       id="path4198"
       inkscape:connector-curvature="0"
       sodipodi:nodetypes="ccccsccccccc"
       stroke-opacity="1"
       fill="#000000"
       fill-rule="evenodd"
       stroke="none"
       stroke-linejoin="miter"
       fill-opacity="0.73"
       stroke-linecap="butt"
       stroke-width="1" />
    <path
       sodipodi:nodetypes="ccccsccccccc"
       inkscape:connector-curvature="0"
       id="path4209"
       d="M 146.27659,241.2766 139.89362,67.340426 c -0.0538,-6.437983 2.49923,-9.41706 7.97872,-7.978724 l 135.10638,37.234043 c 8.12648,2.325734 17.80936,-1.266511 19.14894,-15.425533 0.93604,-9.893676 4.6708,-17.669623 18.61702,-14.893617 l 85.6383,19.680851 c 6.41139,1.511285 7.81765,4.447577 7.4468,11.702128 l -2.12765,230.851066 -5.31915,5.85106 -254.86675,-84.34164 z"
       stroke-opacity="1"
       fill="url(#linearGradient4217)"
       fill-rule="evenodd"
       stroke="none"
       stroke-linejoin="miter"
       fill-opacity="1"
       stroke-linecap="butt"
       stroke-width="1" />
    <path
       inkscape:connector-curvature="0"
       id="path4221"
       d="m 142.62295,64.262295 267.21311,65.573775 1.0929,194.53552 -256.8306,-92.89618 z"
       sodipodi:nodetypes="ccccc"
       stroke-opacity="0.705"
       fill="url(#linearGradient4229)"
       fill-rule="evenodd"
       stroke="#cecece"
       stroke-linejoin="miter"
       fill-opacity="1"
       stroke-linecap="butt"
       stroke-width="1" />
    <path
       d="m 136.61202,73.005464 267.21311,65.573776 4.37159,189.07104 -260.10929,-87.4317 z"
       id="path4219"
       inkscape:connector-curvature="0"
       stroke-opacity="0.705"
       fill="url(#linearGradient4237)"
       fill-rule="evenodd"
       stroke="#cecece"
       stroke-linejoin="miter"
       fill-opacity="1"
       stroke-linecap="butt"
       stroke-width="1" />
    <path
       d="m 116.2037,92.685185 c 1.13182,-4.540599 4.63483,-9.034209 10.68729,-7.545261 L 261.11111,123.7037 c 6.48148,1.63624 16.36287,0.33244 20.83334,-11.11111 4.00878,-10.26173 10.87392,-18.779525 25.46296,-16.203701 l 68.51852,13.888891 c 12.25335,3.29007 11.96705,11.68066 12.96296,18.51851 l 12.5,205.55556 c 0.64976,7.44283 -5.7507,13.21303 -12.96296,10.18518 L 144.90741,262.59259 c -4.92216,-1.55932 -8.93994,-3.09709 -9.25926,-10.18518 z"
       id="path4138"
       inkscape:connector-curvature="0"
       sodipodi:nodetypes="cccscccccccc"
       stroke-opacity="1"
       fill="#000000"
       fill-rule="evenodd"
       stroke="none"
       stroke-linejoin="miter"
       fill-opacity="0.77"
       stroke-linecap="butt"
       stroke-width="1" />
    <path
       sodipodi:nodetypes="cccsccccccc"
       inkscape:connector-curvature="0"
       id="path4140"
       d="m 116.2037,92.685185 c 1.13182,-4.540599 4.63483,-9.034209 10.68729,-7.545261 L 261.11111,123.7037 c 6.48148,1.63624 16.36287,0.33244 20.83334,-11.11111 4.00878,-10.26173 10.87392,-18.779525 25.46296,-16.203701 l 68.51852,13.888891 c 12.25335,3.29007 11.96705,11.68066 12.96296,18.51851 l 12.5,205.55556 c 0.64976,7.44283 -5.7507,13.21303 -12.96296,10.18518 L 209.72222,283.88889 C 173.76467,257.82993 120.35853,138.21611 116.2037,92.685185 Z"
       stroke-opacity="1"
       fill="url(#linearGradient4148)"
       fill-rule="evenodd"
       stroke="none"
       stroke-linejoin="miter"
       fill-opacity="1"
       stroke-linecap="butt"
       stroke-width="1" />
    <path
       d="m 177.77778,215.83334 -80.555558,82.4074 255.555558,88.42593 38.75029,-40.87068 c 4.63488,-1.3015 9.96817,-1.38077 9.86082,-10.98118 L 396.29629,282.5 Z"
       id="path4150"
       inkscape:connector-curvature="0"
       sodipodi:nodetypes="ccccccc"
       stroke-opacity="1"
       fill="#000000"
       filter="url(#filter4160)"
       fill-rule="evenodd"
       stroke="none"
       stroke-linejoin="miter"
       fill-opacity="0.273"
       stroke-linecap="butt"
       stroke-width="1" />
    <path
       inkscape:connector-curvature="0"
       d="m 130.29688,79.757812 c -3.73674,-0.05935 -6.2712,2.374412 -7.66211,5.353516 1.24508,-0.330919 2.6592,-0.363492 4.25585,0.0293 l 134.22071,38.562492 c 5.49861,1.38812 13.44221,0.65773 18.45508,-6.58203 -4.30627,2.38583 -9.16625,2.43292 -12.90039,1.49024 L 132.44727,80.046875 c -0.75656,-0.186118 -1.47316,-0.278306 -2.15039,-0.289063 z m 177.54687,11.074219 c -7.10689,0.02874 -11.9932,3.152137 -15.51367,7.738281 3.82724,-2.318415 8.71897,-3.304404 15.07812,-2.18164 l 68.51758,13.888668 c 12.25335,3.29007 11.96698,11.68169 12.96289,18.51954 l 12.5,205.55468 c 0.1753,2.00795 -0.17581,3.88521 -0.90429,5.50977 4.09619,-1.28823 6.90142,-5.55587 6.46093,-10.60156 l -12.5,-205.55665 c -0.99591,-6.83785 -0.70954,-15.2275 -12.96289,-18.51757 L 312.96289,91.296875 c -1.82363,-0.321978 -3.52737,-0.47128 -5.11914,-0.464844 z"
       id="path4164"
       stroke-opacity="1"
       fill="#b5b5b5"
       fill-rule="evenodd"
       stroke="none"
       stroke-linejoin="miter"
       fill-opacity="1"
       stroke-linecap="butt"
       stroke-width="1" />
    <path
       id="path4169"
       d="m 375.92578,110.27734 c 12.25335,3.29007 11.96698,11.68169 12.96289,18.51954 2.18404,-2.05828 3.13422,-2.71335 5.55664,-5.09376 -0.99591,-6.83785 -0.70954,-15.2275 -12.96289,-18.51757 -2.39781,2.28773 -2.9924,2.79876 -5.55664,5.09179 z"
       inkscape:connector-curvature="0"
       sodipodi:nodetypes="ccccc"
       stroke-opacity="1"
       fill="url(#linearGradient4177)"
       fill-rule="evenodd"
       stroke="none"
       stroke-linejoin="miter"
       fill-opacity="1"
       stroke-linecap="butt"
       stroke-width="1" />
    <path
       inkscape:connector-curvature="0"
       d="m 151.9043,54.332031 c -2.67378,0.112285 -4.27807,1.802415 -4.90039,4.837891 0.28199,0.05237 0.56972,0.11281 0.86914,0.191406 l 135.10547,37.234375 c 5.41154,1.54874 11.51034,0.467116 15.3789,-4.605469 -2.77183,0.801996 -5.76159,0.727663 -8.57031,-0.07617 L 154.68164,54.681641 c -1.0274,-0.269688 -1.9536,-0.384203 -2.77734,-0.34961 z m 170.88281,6.701172 c -5.39865,-0.126557 -8.73663,1.852669 -10.81445,5.035156 2.34672,-0.518874 5.2277,-0.496408 8.77148,0.208985 l 85.63867,19.679687 c 6.41139,1.511285 7.81812,4.448574 7.44727,11.703125 l -2.12891,230.849614 -0.47461,0.52148 1.96485,0.65039 5.31836,-5.85156 2.1289,-230.851564 c 0.37085,-7.254551 -1.03587,-10.189887 -7.44726,-11.701172 L 327.55273,61.595703 c -1.74327,-0.347001 -3.32697,-0.528775 -4.76562,-0.5625 z"
       id="path4200"
       stroke-opacity="1"
       fill="#b0b0b0"
       fill-rule="evenodd"
       stroke="none"
       stroke-linejoin="miter"
       fill-opacity="1"
       stroke-linecap="butt"
       stroke-width="1" />
    <path
       sodipodi:nodetypes="ccccc"
       inkscape:connector-curvature="0"
       d="m 403.12392,85.141164 c 12.4021,2.867396 10.71654,4.984484 10.70306,18.467586 2.18404,-2.05828 4.25114,-3.752349 6.67356,-6.132759 0.48467,-12.136762 1.00482,-14.993724 -11.89791,-17.244792 -2.39781,2.28773 -2.91447,2.616935 -5.47871,4.909965 z"
       id="path4205"
       stroke-opacity="1"
       fill="url(#linearGradient4207)"
       fill-rule="evenodd"
       stroke="none"
       stroke-linejoin="miter"
       fill-opacity="1"
       stroke-linecap="butt"
       stroke-width="1" />
  </g>
  <path
     d="m 189.95676,64.364702 c -1.06372,-0.01998 -2.2146,0.213268 -3.47461,0.767578 -1.54734,1.215716 -1.0635,1.732245 -1.0664,2.416016 l 2.02929,4.138672 8.53516,-4.277344 c -1.76132,-1.737582 -3.68325,-3.00097 -6.02344,-3.044922 z m 12.01367,0.376953 -110.763669,54.335955 5.52149,11.25781 74.666009,-36.626967 36.09961,-17.708985 -5.52344,-11.257813 z m -30.57617,28.966798 -74.519529,36.556657 1.85156,3.77539 65.806639,-32.2793 0.10547,0.21679 -65.585939,32.17384 0.996099,2.0332 65.58789,-32.17188 0.14258,0.28906 c 0.31582,0.64382 1.44481,0.73412 2.53125,0.20118 1.08643,-0.53295 1.70644,-1.48119 1.39062,-2.125 l -0.14258,-0.28907 3.26953,-1.60351 -0.99804,-2.035163 -3.26953,1.603523 -0.10547,-0.216803 4.79297,-2.351564 -1.85352,-3.77735 z M 90.370821,118.17331 c -0.98086,0.41338 -1.89383,0.72888 -2.70507,0.90235 -0.26991,0.0577 -0.53067,0.10019 -0.77735,0.125 -0.24722,0.0248 -0.48147,0.0329 -0.70312,0.0215 -0.2217,-0.0115 -0.43112,-0.043 -0.625,-0.0937 -0.19325,-0.0505 -0.37175,-0.12209 -0.53516,-0.21484 0,0 -0.002,0 -0.002,0 -0.16338,-0.0929 -0.31207,-0.20935 -0.44336,-0.34766 l -32.955089,16.16797 c -0.22183,0.11549 -0.42886,0.23162 -0.62109,0.34961 -0.1918,0.11768 -0.37188,0.23751 -0.53711,0.35742 -0.17477,0.12704 -0.33418,0.25549 -0.48242,0.38477 l -0.80665,-0.0352 c -1.87919,2.06215 -3.11806,4.07683 -3.83203,6.05078 -1.53671,2.80711 -3.806971,3.3541 -6.285151,3.26367 -4.00027,-1.97427 -6.9214,-2.11661 -8.05078,0.77735 7.03913,-0.46736 7.42291,6.98929 14.017571,4.36523 -1.29432,4.61658 0.2837,8.17892 2.86133,11.37695 -2.38946,1.68962 -1.80491,3.67141 -1.50195,5.76563 -0.41929,1.29366 -0.6068,2.75522 -0.50391,4.42773 0.13912,1.18096 0.08397,2.27943 -1.58789,2.68164 l -6.820311,2.35157 16.642581,13.41211 5.01562,-4.00196 -2.91797,-4.09961 37.345719,-23.84961 c 0.69279,-0.74381 1.5682,-1.11785 2.73828,-0.88867 l 4.939449,-3.78515 c -0.007,-2.95389 2.6482,-4.02838 4.74024,-5.49805 l -9.373049,-17.99609 -0.10938,-0.22461 c -0.005,-0.0109 -0.0157,-0.0168 -0.0215,-0.0273 l -6.10156,-11.7168 c -0.002,8.3e-4 -0.004,10e-4 -0.006,0.002 0.001,-0.002 0.003,-0.002 0.004,-0.004 z m -9.88867,6.46094 c 0.31191,-0.0177 0.61911,0.14859 0.76563,0.44727 l 13.1289,26.76757 c 0.19535,0.39823 0.033,0.87692 -0.36523,1.07227 l -26.472663,12.98633 c -0.39823,0.19535 -0.878873,0.031 -1.074223,-0.36719 l -0.46679,-0.94922 0.14257,-0.082 -7.558593,-15.03906 -4.38281,-8.9336 0.86914,-0.44922 11.849616,24.15821 c 0.19283,0.39309 0.66354,0.55416 1.05664,0.36133 l 11.769533,-5.77344 c 1.88742,-0.23557 4.36915,-1.18959 6.22656,-2.13281 l 7.02735,-3.8125 c 0.77409,-1.51655 0.36185,-2.76564 -1.21875,-3.75196 l -3.63672,-7.41406 c 0.31723,-1.89596 -0.55415,-3.65674 -2.59375,-5.28516 l -3.89453,-7.93945 c -0.0704,-0.75389 -0.35454,-1.32951 -0.84961,-1.73242 l -0.18946,-0.38672 c -0.19283,-0.3931 -0.66354,-0.55416 -1.05664,-0.36133 l -1.74414,0.85547 -5.69726,2.51172 c -1.11773,0.52925 -2.37267,1.23167 -3.492193,1.99609 l -13.472666,6.60938 -0.1289,-0.26172 -1.75196,0.80664 c -0.04848,-0.3349 0.10901,-0.67472 0.42969,-0.83203 l 26.472669,-12.98636 c 0.0996,-0.0488 0.20462,-0.0761 0.30859,-0.082 z m 15.00781,32.75977 c -0.39531,0.0105 -0.80691,0.22448 -1.22265,0.47656 l -37.781259,24.18359 1.58594,2.58594 1.65039,-1.16992 -1.59961,1.14453 1.03515,1.46094 29.373059,-21.28516 -29.271489,21.23437 c 6.250753,-2.63349 7.978646,4.3404 11.929689,6.5918 4.82744,2.05694 9.68414,0.41244 14.55274,-2.95117 7.71649,-5.49659 8.87296,-11.27478 5.17969,-17.26563 -1.18781,-2.78549 -2.68556,-5.53038 0.25,-8.87304 l 0.0957,0.006 6.05078,-4.61914 -1.22656,-1.22071 0.0879,-0.0625 c -0.22184,-0.17518 -0.45227,-0.24264 -0.68946,-0.23632 z m -10.60351,12.28515 c 2.66306,0.0918 4.33292,2.31647 5.86523,4.83399 2.14035,7.91355 -2.21632,10.60738 -6.01757,13.74609 -5.34303,4.24175 -9.84932,4.64088 -13.78516,2.44141 -5.175456,-4.50425 -4.765686,-7.92853 -2.066413,-10.91211 -0.52398,0.61704 -0.94579,1.38247 -1.2832,2.27343 1.651563,4.82177 5.231233,6.9341 9.265623,8.40625 l -0.1914,-1.68359 c -4.77117,-2.37062 -7.811573,-5.40097 -6.47461,-10.09375 -0.41035,0.22536 -0.77606,0.51715 -1.105473,0.86133 0.203523,-0.21383 0.417223,-0.42513 0.642583,-0.63477 l 12.125,-8.55078 c 1.13999,-0.51108 2.1377,-0.71812 3.02539,-0.6875 z m -47.71876,7.11719 c -10.39638,7.70675 -15.665969,17.3127 -15.634769,28.88476 l 3.464849,42.41797 c 12.2173,-4.15742 23.403061,-10.41457 34.207031,-17.45312 l -8.00391,-14.25977 c -4.63529,-10.29455 -2.44451,-18.10832 3.16992,-25.80273 l -8.60156,-6.89453 -8.601561,-6.89258 z"
     id="path4638"
     inkscape:connector-curvature="0"
     stroke-miterlimit="4"
     stroke-dasharray="none"
     stroke-opacity="1"
     fill="#000000"
     filter="url(#filter4777)"
     fill-rule="evenodd"
     stroke="none"
     stroke-linejoin="miter"
     fill-opacity="0.268"
     stroke-linecap="butt"
     stroke-width="0.403"
     style="filter:url(#filter4777)" />
  <g
     id="g3155"
     transform="matrix(0.12056975,-0.05914501,0.05914501,0.12056975,-5.4023514,163.79376)">
    <path
       inkscape:connector-curvature="0"
       sodipodi:nodetypes="cccccccccccccccccc"
       id="path3157"
       d="m 481.38609,257.65319 c 2.16242,-24.17616 2.5087,-48.09287 -17.57575,-69.09091 2.25009,-34.51189 12.10188,-64.8774 32.12121,-89.696971 l 40,-27.272723 27.87879,-0.606061 0,-15.757576 -25.45455,-0.60606 -0.60606,-27.878788 -6.66667,-3.636364 c -19.32548,7.623342 -34.20802,17.023862 -45.45454,27.878788 -19.47899,13.726689 -36.4566,9.943656 -52.72727,1.212121 -20.26837,-26.317068 -39.32298,-36.855245 -56.36364,-21.212121 48.59094,19.959828 26.70163,71.067305 79.39394,75.151515 -23.79257,26.61833 -24.92623,55.6218 -18.18182,85.45455 -29.77201,4.78709 -23.28086,31.9711 -36.70931,50.13019 l 29.43658,3.20314 1.21212,15.75758 c 1.47144,28.78935 52.17651,29.50342 49.69697,-3.03031 z"
       stroke-miterlimit="4"
       stroke-dasharray="none"
       stroke-opacity="1"
       fill="#a4a4a4"
       fill-rule="evenodd"
       stroke="#828282"
       stroke-linejoin="miter"
       fill-opacity="1"
       stroke-linecap="butt"
       stroke-width="3" />
    <path
       inkscape:connector-curvature="0"
       id="path3159"
       d="m 550.90625,24.0625 c -14.89391,0.356581 -23.43294,4.522321 -30.3125,9.6875 l -21.1875,12.125 c 2.80553,16.054918 -5.26166,29.416991 -21.84375,40.625 -22.78131,33.66589 -43.9441,67.83867 -22.40625,115.75 -27.89458,4.72888 -50.86598,18.76855 -64.25,50.90625 -2.94279,8.35125 -6.91057,15.51253 -19.40625,12.71875 l -53.3125,-6.65625 67.28125,144.25 46.65625,-10.3125 -6.0625,-36.96875 327.875,-36.96875 c 7.07071,-2.70063 14.14801,-2.33804 21.21875,3.03125 l 45.4375,-9.09375 c 9.63797,-19.77148 30.9133,-18.25431 49.71875,-21.21875 l -6.0625,-251.5 c -21.11647,-1.209196 -36.60577,-5.499129 -40,-16.375 l -273.34375,0 z m 4.15625,26.65625 219.5625,0 c 3.30293,0 5.96875,2.665825 5.96875,5.96875 l 0,222 c -2e-5,3.30292 -2.66582,5.96875 -5.96875,5.96875 l -219.5625,0 c -3.30294,10e-6 -5.96875,-2.66582 -5.96875,-5.96875 l 0,-222 c 0,-3.302926 2.66582,-5.96875 5.96875,-5.96875 z"
       stroke-miterlimit="4"
       stroke-dasharray="none"
       stroke-opacity="1"
       fill="#b3b3b3"
       fill-rule="evenodd"
       stroke="#535353"
       stroke-linejoin="miter"
       fill-opacity="1"
       stroke-linecap="butt"
       stroke-width="3" />
    <rect
       ry="5.885"
       y="57.39"
       x="556.36"
       height="220"
       width="215.76"
       id="rect3161"
       rx="5.885"
       fill="url(#linearGradient3213)"
       stroke="none"
       fill-opacity="1" />
    <path
       inkscape:connector-curvature="0"
       sodipodi:nodetypes="cccccc"
       id="path3163"
       d="m 770.30303,142.84849 c 11.0831,21.00009 10.93708,37.98979 -0.60606,50.90909 l -59.39394,3.63636 c -25.33967,0.52362 -62.12708,-6.70537 -63.63637,-27.87879 0.34636,-24.22797 31.08056,-27.49384 59.39394,-28.48485 l 64.24243,1.81819 z"
       stroke-opacity="1"
       fill="url(#linearGradient3215)"
       fill-rule="evenodd"
       stroke="url(#linearGradient3217)"
       stroke-linejoin="miter"
       fill-opacity="1"
       stroke-linecap="butt"
       stroke-width="1" />
    <path
       inkscape:connector-curvature="0"
       d="m 768.56406,247.00658 c 11.09831,14.07069 10.95209,25.45429 -0.60689,34.11061 l -59.47544,2.43647 c -25.37444,0.35084 -62.21233,-4.4928 -63.72369,-18.67962 0.34683,-16.23347 31.12321,-18.4217 59.47544,-19.0857 l 64.33058,1.21824 z"
       id="path3165"
       sodipodi:nodetypes="cccccc"
       stroke-opacity="1"
       fill="url(#linearGradient3219)"
       fill-rule="evenodd"
       stroke="url(#linearGradient3221)"
       stroke-linejoin="miter"
       fill-opacity="1"
       stroke-linecap="butt"
       stroke-width="0.819" />
    <path
       inkscape:connector-curvature="0"
       sodipodi:nodetypes="cccccc"
       id="path3167"
       d="m 765.53376,92.050005 c 11.09831,-14.07069 10.95209,-25.45429 -0.60689,-34.11061 l -59.47544,-2.43647 c -25.37444,-0.35084 -62.21233,4.4928 -63.72369,18.67962 0.34683,16.23347 31.12321,18.4217 59.47544,19.0857 l 64.33058,-1.21824 z"
       stroke-opacity="1"
       fill="url(#linearGradient3223)"
       fill-rule="evenodd"
       stroke="url(#linearGradient3225)"
       stroke-linejoin="miter"
       fill-opacity="1"
       stroke-linecap="butt"
       stroke-width="0.819" />
    <path
       inkscape:connector-curvature="0"
       sodipodi:nodetypes="ccccccccc"
       id="path3169"
       d="m 533.33334,84.060606 15.15151,-1.818182 1.81818,188.484846 -18.78788,1.21212 -1.21212,-53.33333 -37.57576,-4.84848 C 433.72865,206.01669 427.48462,119.0018 489.09091,99.212121 l 39.39394,-6.060606 4.84849,-9.090909 z"
       stroke-opacity="1"
       fill="url(#radialGradient3227)"
       fill-rule="evenodd"
       stroke="#000000"
       stroke-linejoin="miter"
       fill-opacity="1"
       stroke-linecap="butt"
       stroke-width="1" />
    <path
       inkscape:connector-curvature="0"
       sodipodi:nodetypes="cccc"
       id="path3171"
       d="m 526.66667,220.42424 c 0,3.03031 1.21212,45.45455 1.21212,45.45455 -65.6777,-13.52825 -74.6828,-60.75372 -81.81818,-109.09091 9.65874,38.42207 38.65325,57.50836 80.60606,63.63636 z"
       stroke-opacity="1"
       fill="url(#linearGradient3229)"
       fill-rule="evenodd"
       stroke="#000000"
       stroke-linejoin="miter"
       fill-opacity="1"
       stroke-linecap="butt"
       stroke-width="1" />
    <circle
       id="path3173"
       cx="449.7"
       cy="264.67"
       r="11.515"
       fill="url(#radialGradient3231)"
       stroke="none"
       fill-opacity="1" />
    <circle
       transform="translate(82.424242,47.272727)"
       id="path3175"
       cx="449.7"
       cy="264.67"
       r="11.515"
       fill="url(#radialGradient3231)"
       stroke="none"
       fill-opacity="1" />
    <rect
       ry="5.885"
       y="185.27"
       x="783.64"
       height="89.7"
       width="84.24"
       id="rect3177"
       rx="5.885"
       fill="url(#linearGradient3235)"
       stroke="none"
       fill-opacity="1" />
    <rect
       ry="5.885"
       y="133.15"
       x="780.61"
       height="50.3"
       width="86.06"
       id="rect3179"
       rx="5.885"
       fill="url(#linearGradient3237)"
       stroke="none"
       fill-opacity="1" />
    <path
       inkscape:connector-curvature="0"
       d="m 499.39394,45.878788 21.21212,-12.121212 c 6.87958,-5.165179 15.40912,-9.340389 30.30303,-9.69697 l 273.33333,0 c 3.39424,10.875871 18.88353,15.15444 40,16.363636 C 850.73533,47.78861 836.64873,49.373951 820,37.393935 c -63.35603,1.78564 -191.26616,0.332563 -282.42424,3.636368 -11.29668,2.125324 -22.64902,2.721585 -38.18182,4.848485 z"
       id="path3181"
       sodipodi:nodetypes="cccccccc"
       fill="#313131"
       fill-rule="evenodd"
       stroke="none"
       fill-opacity="1" />
    <circle
       id="path3183"
       transform="matrix(1.3157895,0,0,1.3157895,234.35408,-163.57894)"
       cx="449.7"
       cy="264.67"
       r="11.515"
       fill="url(#radialGradient3231)"
       stroke="none"
       fill-opacity="1" />
    <path
       inkscape:connector-curvature="0"
       sodipodi:nodetypes="ccccc"
       id="path3185"
       d="M 428.22281,356.35544 760.1061,318.58355 c 5.7696,-0.5149 11.15809,-0.39463 13.5809,4.66844 l -343.34217,55.59682 -2.12202,-22.49337 z"
       stroke-opacity="1"
       fill="#c8c8c8"
       fill-rule="evenodd"
       stroke="#000000"
       stroke-linejoin="miter"
       fill-opacity="1"
       stroke-linecap="butt"
       stroke-width="1" />
    <path
       inkscape:connector-curvature="0"
       id="path3187"
       d="m 430.76923,378.84881 341.64456,-56.87003 4.66844,13.5809 -55.59682,11.03448 -5.94164,-3.39522 -282.65252,48.80637 -2.12202,-13.1565 z"
       stroke-opacity="1"
       fill="#4f4f4f"
       fill-rule="evenodd"
       stroke="#000000"
       stroke-linejoin="miter"
       fill-opacity="1"
       stroke-linecap="butt"
       stroke-width="1" />
    <path
       inkscape:connector-curvature="0"
       id="path3189"
       d="M 715.53125,343.1875 433.75,392 c 50.4241,2.89325 39.09464,55.17925 58.125,83.1875 25.52709,29.58243 63.39027,34.52036 106.96875,28 69.61226,-11.4405 96.2939,-46.27546 91.25,-98.4375 1.19659,-22.56607 0.17751,-45.89257 30.96875,-58.59375 l -5.53125,-2.96875 z m -79.34375,18.25 c 37.18866,1.28722 43.19312,27.73455 45.84375,56.875 -11.64312,59.92313 -49.60698,63.63917 -85.3125,72.15625 -49.62998,10.83511 -81.05719,-1.26375 -100.15625,-28.875 -21.78207,-51.7251 -2.84323,-72.67371 30.53125,-82.75 L 636.1875,361.4375 Z"
       stroke-opacity="1"
       fill="url(#linearGradient3241)"
       fill-rule="evenodd"
       stroke="#878787"
       stroke-linejoin="miter"
       fill-opacity="1"
       stroke-linecap="butt"
       stroke-width="1" />
    <path
       inkscape:connector-curvature="0"
       sodipodi:nodetypes="ccccc"
       id="path3191"
       d="m 530.92838,378.84881 c -24.32749,26.9879 -13.93653,57.20542 10.18568,88.70026 l -4.24403,11.88329 c -22.14312,-23.07212 -39.14823,-48.92734 -34.37666,-86.57825 8.94789,-8.38157 18.35628,-13.53962 28.43501,-14.0053 z"
       stroke-opacity="1"
       fill="#a2a2a2"
       fill-rule="evenodd"
       stroke="#515151"
       stroke-linejoin="miter"
       fill-opacity="1"
       stroke-linecap="butt"
       stroke-width="1" />
    <rect
       y="49.2"
       x="866.87"
       height="93.37"
       width="918.67"
       id="rect3193"
       stroke-miterlimit="4"
       stroke-dasharray="none"
       stroke-opacity="1"
       fill="url(#linearGradient3243)"
       stroke="#515151"
       stroke-linejoin="round"
       fill-opacity="1"
       stroke-linecap="round"
       stroke-width="2" />
    <rect
       y="142.58"
       x="868.07"
       height="31.33"
       width="618.07"
       id="rect3195"
       stroke-miterlimit="4"
       stroke-dasharray="none"
       stroke-opacity="1"
       fill="url(#linearGradient3245)"
       stroke="#1d1d1d"
       stroke-linejoin="round"
       fill-opacity="1"
       stroke-linecap="round"
       stroke-width="2" />
    <rect
       rx="16.265"
       ry="9.639"
       y="143.78"
       x="1413.86"
       height="60.843"
       width="32.53"
       id="rect3197"
       stroke-miterlimit="4"
       stroke-dasharray="none"
       stroke-opacity="1"
       fill="url(#linearGradient3247)"
       stroke="#757575"
       stroke-linejoin="round"
       fill-opacity="1"
       stroke-linecap="round"
       stroke-width="2" />
    <rect
       y="175.71"
       x="869.88"
       height="16.867"
       width="603.61"
       id="rect3199"
       stroke-miterlimit="4"
       stroke-dasharray="none"
       stroke-opacity="1"
       fill="url(#linearGradient3249)"
       stroke="#272727"
       stroke-linejoin="round"
       fill-opacity="1"
       stroke-linecap="round"
       stroke-width="2" />
    <path
       inkscape:connector-curvature="0"
       sodipodi:nodetypes="ccccc"
       id="path3201"
       d="m 1665.6627,48 71.0843,-0.60241 c -8.8387,-25.297858 -23.252,-45.0210651 -56.0241,-46.3855418 -14.3312,3.0529786 -12.7984,8.0889515 -15.0602,12.6506028 l 0,34.337349 z"
       stroke-opacity="1"
       fill="url(#linearGradient3251)"
       fill-rule="evenodd"
       stroke="#000000"
       stroke-linejoin="miter"
       fill-opacity="1"
       stroke-linecap="butt"
       stroke-width="1" />
    <path
       inkscape:connector-curvature="0"
       sodipodi:nodetypes="ccccccc"
       id="path3203"
       d="m 316.3227,257.84991 69.79363,148.59287 c -62.76711,33.02694 -103.04401,78.07864 -105.81614,162.10131 l 6.75422,121.57599 C 191.74484,701.74373 96.435272,706.89518 1.1257036,694.62289 L 117.07317,399.68856 C 154.81394,322.22402 221.54664,275.2773 316.3227,257.84991 Z"
       stroke-opacity="1"
       fill="#573600"
       fill-rule="evenodd"
       stroke="#000000"
       stroke-linejoin="miter"
       fill-opacity="1"
       stroke-linecap="butt"
       stroke-width="1" />
    <circle
       transform="matrix(1.7557026,0,0,1.7557026,-621.44723,106.66991)"
       id="path3205"
       cx="449.7"
       cy="264.67"
       r="11.515"
       stroke-miterlimit="4"
       stroke-dasharray="none"
       stroke-opacity="1"
       fill="url(#radialGradient3253)"
       stroke="url(#linearGradient3255)"
       stroke-linejoin="round"
       fill-opacity="1"
       stroke-linecap="round"
       stroke-width="2.278" />
    <path
       inkscape:connector-curvature="0"
       d="M 316.3227,257.84991 C 184.20196,419.54238 102.35692,565.24432 61.059753,699.51428 40.677696,697.69076 27.568367,697.12267 1.1257036,694.62289 L 117.07317,399.68856 C 154.81394,322.22402 221.54664,275.2773 316.3227,257.84991 Z"
       id="path3207"
       sodipodi:nodetypes="ccccc"
       fill="url(#linearGradient3491)"
       fill-rule="evenodd"
       stroke="none"
       fill-opacity="1" />
    <path
       inkscape:connector-curvature="0"
       d="m 351.21952,332.14634 34.89681,74.29644 c -62.76711,33.02694 -103.04401,78.07864 -105.81614,162.10131 l 6.75422,121.57599 c -47.65478,5.81183 -95.30957,10.0056 -142.96435,11.21238 57.29241,-130.50417 103.79529,-267.84171 207.12946,-369.18612 z"
       id="path3209"
       sodipodi:nodetypes="cccccc"
       fill="url(#linearGradient3259)"
       fill-rule="evenodd"
       stroke="none"
       fill-opacity="1" />
    <path
       inkscape:connector-curvature="0"
       d="m 278.48201,599.45318 8.5724,90.6669 C 191.74484,701.74373 96.435272,706.89518 1.1257036,694.62289 L 34.648928,611.80977 c 70.742082,9.97593 158.462242,1.14936 243.833082,-12.35659 z"
       id="path3211"
       sodipodi:nodetypes="ccccc"
       fill="url(#linearGradient3261)"
       fill-rule="evenodd"
       stroke="none"
       fill-opacity="1" />
  </g>
  <g
     font-size="7.5"
     font-variant="normal"
     letter-spacing="0"
     font-stretch="normal"
     font-weight="bold"
     line-height="125%"
     word-spacing="0"
     font-style="normal"
     transform="translate(67.032529,-41.113856)"
     id="text4330"
     stroke-opacity="1"
     font-family="STIX"
     fill="#000000"
     stroke="none"
     stroke-linejoin="miter"
     fill-opacity="1"
     stroke-linecap="butt"
     stroke-width="1">
    <path
       inkscape:connector-curvature="0"
       id="path4335"
       d="m -56.13327,39.467617 0,-0.1875 c -0.3075,0 -0.4425,-0.165 -0.825,-1.0725 l -1.665,-3.915 -0.21,0 -1.6575,4.0875 c -0.285,0.705 -0.3975,0.84 -0.7425,0.9 l 0,0.1875 1.515,0 0,-0.1875 c -0.4425,-0.03 -0.6075,-0.1125 -0.6075,-0.3075 0,-0.18 0.1425,-0.495 0.2325,-0.7275 l 0.0975,-0.255 1.6875,0 c 0.255,0.5925 0.345,0.855 0.345,1.02 0,0.165 -0.0975,0.225 -0.345,0.2475 l -0.24,0.0225 0,0.1875 2.415,0 z m -2.2875,-1.77 -1.4625,0 0.705,-1.8225 0.7575,1.8225 z" />
    <path
       inkscape:connector-curvature="0"
       id="path4337"
       d="m -55.760848,34.397617 0,0.1875 c 0.525,0.045 0.63,0.15 0.63,0.735 l 0,3.2025 c 0,0.3825 -0.045,0.5925 -0.2925,0.69 -0.0825,0.0375 -0.195,0.0525 -0.3375,0.0675 l 0,0.1875 2.4975,0 0,-0.1875 c -0.5925,-0.075 -0.6525,-0.1425 -0.6525,-0.645 l 0,-1.44 c 0.99,-0.0075 1.245,-0.03 1.5675,-0.15 0.6225,-0.2325 0.9675,-0.69 0.9675,-1.29 0,-0.915 -0.765,-1.3575 -2.0175,-1.3575 l -2.3625,0 z m 1.845,0.525 c 0,-0.1725 0.1275,-0.2625 0.375,-0.2625 0.6225,0 0.87,0.345 0.87,1.1775 0,0.8325 -0.3075,1.0875 -1.245,1.095 l 0,-2.01 z" />
  </g>
</svg>
