<?xml version="1.0" encoding="UTF-8" standalone="no"?>
<!-- Created with Inkscape (http://www.inkscape.org/) -->

<svg
   xmlns:dc="http://purl.org/dc/elements/1.1/"
   xmlns:cc="http://creativecommons.org/ns#"
   xmlns:rdf="http://www.w3.org/1999/02/22-rdf-syntax-ns#"
   xmlns:svg="http://www.w3.org/2000/svg"
   xmlns="http://www.w3.org/2000/svg"
   xmlns:xlink="http://www.w3.org/1999/xlink"
   xmlns:sodipodi="http://sodipodi.sourceforge.net/DTD/sodipodi-0.dtd"
   xmlns:inkscape="http://www.inkscape.org/namespaces/inkscape"
   width="256"
   height="256"
   id="svg2"
   sodipodi:version="0.32"
   inkscape:version="0.91 r13725"
   sodipodi:docname="folder-pictures-misc.svg"
   inkscape:output_extension="org.inkscape.output.svg.inkscape"
   version="1.1">
  <sodipodi:namedview
     id="base"
     pagecolor="#ffffff"
     bordercolor="#666666"
     borderopacity="1.0"
     gridtolerance="10000"
     guidetolerance="10"
     objecttolerance="10"
     inkscape:pageopacity="0"
     inkscape:pageshadow="2"
     inkscape:zoom="3.5351562"
     inkscape:cx="128"
     inkscape:cy="128"
     inkscape:document-units="px"
     inkscape:current-layer="layer1"
     showgrid="false"
     inkscape:window-width="1920"
     inkscape:window-height="1056"
     inkscape:window-x="0"
     inkscape:window-y="0"
     inkscape:window-maximized="1" />
  <defs
     id="defs4">
    <linearGradient
       id="linearGradient3468">
      <stop
         id="stop3470"
         stop-color="#159217"
         stop-opacity="0" />
      <stop
         id="stop3472"
         offset="1"
         stop-color="#0c8434"
         stop-opacity="1" />
    </linearGradient>
    <linearGradient
       id="linearGradient3370">
      <stop
         id="stop3372"
         stop-color="#212121"
         stop-opacity="1" />
      <stop
         id="stop3374"
         offset="1"
         stop-color="#d9d9d9"
         stop-opacity="1" />
    </linearGradient>
    <linearGradient
       id="linearGradient2760">
      <stop
         id="stop2762"
         stop-color="#fff3f3"
         stop-opacity="0.566" />
      <stop
         id="stop2764"
         offset="1"
         stop-color="white"
         stop-opacity="0" />
    </linearGradient>
    <linearGradient
       inkscape:collect="always"
       xlink:href="#linearGradient2760"
       id="linearGradient2637"
       gradientUnits="userSpaceOnUse"
       gradientTransform="matrix(0.72087145,0,0,0.72087145,-263.75624,45.996265)"
       spreadMethod="reflect"
       x1="159.1"
       y1="24.13"
       x2="140.86"
       y2="96.37" />
    <linearGradient
       inkscape:collect="always"
       xlink:href="#linearGradient3468"
       id="linearGradient2642"
       gradientUnits="userSpaceOnUse"
       gradientTransform="matrix(0.74442259,0,0,-0.74442259,-315.75803,262.92095)"
       x1="139.04"
       y1="72.908"
       x2="187.23"
       y2="248.87" />
    <linearGradient
       inkscape:collect="always"
       xlink:href="#linearGradient3370"
       id="linearGradient2645"
       gradientUnits="userSpaceOnUse"
       gradientTransform="matrix(0.72087145,0,0,0.72087145,-263.75624,45.996265)"
       x1="152.33"
       y1="46.58"
       x2="157.34"
       y2="249.38" />
    <linearGradient
       inkscape:collect="always"
       id="linearGradient4167">
      <stop
         id="stop4169"
         stop-color="#adadad"
         stop-opacity="0.624" />
      <stop
         offset="1"
         id="stop4171"
         stop-color="#ffffff"
         stop-opacity="0.973" />
    </linearGradient>
    <linearGradient
       id="linearGradient4223"
       inkscape:collect="always">
      <stop
         id="stop4225"
         stop-color="#bebebe"
         stop-opacity="0.803" />
      <stop
         id="stop4227"
         offset="1"
         stop-color="#9f9f9f"
         stop-opacity="0.732" />
    </linearGradient>
    <linearGradient
       id="linearGradient4211"
       inkscape:collect="always">
      <stop
         id="stop4213"
         stop-color="#9f9f9f"
         stop-opacity="0.634" />
      <stop
         id="stop4215"
         offset="1"
         stop-color="#696969"
         stop-opacity="0" />
    </linearGradient>
    <linearGradient
       id="linearGradient4171"
       inkscape:collect="always">
      <stop
         id="stop4173"
         stop-color="#b2b2b2"
         stop-opacity="0.624" />
      <stop
         id="stop4175"
         offset="1"
         stop-color="#ffffff"
         stop-opacity="0.698" />
    </linearGradient>
    <linearGradient
       id="linearGradient4142"
       inkscape:collect="always">
      <stop
         id="stop4144"
         stop-color="#909090"
         stop-opacity="0.519" />
      <stop
         id="stop4146"
         offset="1"
         stop-color="#696969"
         stop-opacity="0" />
    </linearGradient>
    <linearGradient
       gradientUnits="userSpaceOnUse"
       y2="324.36"
       x2="278.75"
       y1="63.25"
       x1="165.74"
       id="linearGradient4148"
       xlink:href="#linearGradient4142"
       inkscape:collect="always" />
    <filter
       height="1.1"
       y="-0.05"
       width="1.056"
       x="-0.028"
       id="filter4160"
       inkscape:collect="always"
       color-interpolation-filters="sRGB">
      <feGaussianBlur
         id="feGaussianBlur4162"
         stdDeviation="3.56251"
         inkscape:collect="always" />
    </filter>
    <linearGradient
       spreadMethod="reflect"
       gradientUnits="userSpaceOnUse"
       y2="114.16"
       x2="387.93"
       y1="106.85"
       x1="379.78"
       id="linearGradient4177"
       xlink:href="#linearGradient4167"
       inkscape:collect="always" />
    <linearGradient
       gradientTransform="translate(26.808511,-26.382979)"
       y2="114.16"
       x2="387.93"
       y1="108.46"
       x1="381.27"
       spreadMethod="reflect"
       gradientUnits="userSpaceOnUse"
       id="linearGradient4207"
       xlink:href="#linearGradient4171"
       inkscape:collect="always" />
    <linearGradient
       gradientUnits="userSpaceOnUse"
       y2="125.1"
       x2="281.1"
       y1="61.711"
       x1="284.7"
       id="linearGradient4217"
       xlink:href="#linearGradient4211"
       inkscape:collect="always" />
    <linearGradient
       gradientUnits="userSpaceOnUse"
       y2="103.09"
       x2="255.7"
       y1="93.26"
       x1="259.02"
       id="linearGradient4229"
       xlink:href="#linearGradient4223"
       inkscape:collect="always" />
    <linearGradient
       gradientUnits="userSpaceOnUse"
       y2="117.29"
       x2="258.99"
       y1="102.54"
       x1="262.84"
       id="linearGradient4237"
       xlink:href="#linearGradient4223"
       inkscape:collect="always" />
    <filter
       height="1.136"
       y="-0.068"
       width="1.049"
       x="-0.024"
       id="filter4257"
       inkscape:collect="always"
       color-interpolation-filters="sRGB">
      <feGaussianBlur
         id="feGaussianBlur4259"
         stdDeviation="2.75443"
         inkscape:collect="always" />
    </filter>
    <filter
       inkscape:collect="always"
       id="filter5038"
       x="-0.021"
       width="1.041"
       y="-0.029"
       height="1.057"
       color-interpolation-filters="sRGB">
      <feGaussianBlur
         inkscape:collect="always"
         stdDeviation="1.52301"
         id="feGaussianBlur5040" />
    </filter>
  </defs>
  <metadata
     id="metadata7">
    <rdf:RDF>
      <cc:Work>
        <dc:format>image/svg+xml</dc:format>
        <dc:type
           rdf:resource="http://purl.org/dc/dcmitype/StillImage" />
      </cc:Work>
    </rdf:RDF>
  </metadata>
  <g
     inkscape:label="Layer 1"
     inkscape:groupmode="layer"
     id="layer1">
    <g
       transform="matrix(0.77128144,0,0,0.77128144,-80.709983,-22.923167)"
       id="g4261">
      <path
         d="m 137.15847,253.33333 1.0929,10.92897 c 1.69466,2.56439 1.62485,5.1824 6.55737,7.10382 l 234.9905,77.59563 c 4.36168,2.76045 7.27409,1.93611 10.91114,-1.0929 l 16.39344,-17.48633 z"
         id="path4239"
         inkscape:connector-curvature="0"
         sodipodi:nodetypes="ccccccc"
         stroke-opacity="1"
         fill="#000000"
         filter="url(#filter4257)"
         fill-rule="evenodd"
         stroke="none"
         stroke-linejoin="miter"
         fill-opacity="0.514"
         stroke-linecap="butt"
         stroke-width="1" />
      <path
         d="M 146.27659,241.2766 139.89362,67.340426 c -0.0538,-6.437983 2.49923,-9.41706 7.97872,-7.978724 l 135.10638,37.234043 c 8.12648,2.325734 17.80936,-1.266511 19.14894,-15.425533 0.93604,-9.893676 4.6708,-17.669623 18.61702,-14.893617 l 85.6383,19.680851 c 6.41139,1.511285 7.81765,4.447577 7.4468,11.702128 l -2.12765,230.851066 -5.31915,5.85106 -254.86675,-84.34164 z"
         id="path4198"
         inkscape:connector-curvature="0"
         sodipodi:nodetypes="ccccsccccccc"
         stroke-opacity="1"
         fill="#000000"
         fill-rule="evenodd"
         stroke="none"
         stroke-linejoin="miter"
         fill-opacity="0.73"
         stroke-linecap="butt"
         stroke-width="1" />
      <path
         sodipodi:nodetypes="ccccsccccccc"
         inkscape:connector-curvature="0"
         id="path4209"
         d="M 146.27659,241.2766 139.89362,67.340426 c -0.0538,-6.437983 2.49923,-9.41706 7.97872,-7.978724 l 135.10638,37.234043 c 8.12648,2.325734 17.80936,-1.266511 19.14894,-15.425533 0.93604,-9.893676 4.6708,-17.669623 18.61702,-14.893617 l 85.6383,19.680851 c 6.41139,1.511285 7.81765,4.447577 7.4468,11.702128 l -2.12765,230.851066 -5.31915,5.85106 -254.86675,-84.34164 z"
         stroke-opacity="1"
         fill="url(#linearGradient4217)"
         fill-rule="evenodd"
         stroke="none"
         stroke-linejoin="miter"
         fill-opacity="1"
         stroke-linecap="butt"
         stroke-width="1" />
      <path
         inkscape:connector-curvature="0"
         id="path4221"
         d="m 142.62295,64.262295 267.21311,65.573775 1.0929,194.53552 -256.8306,-92.89618 z"
         sodipodi:nodetypes="ccccc"
         stroke-opacity="0.705"
         fill="url(#linearGradient4229)"
         fill-rule="evenodd"
         stroke="#cecece"
         stroke-linejoin="miter"
         fill-opacity="1"
         stroke-linecap="butt"
         stroke-width="1" />
      <path
         d="m 136.61202,73.005464 267.21311,65.573776 4.37159,189.07104 -260.10929,-87.4317 z"
         id="path4219"
         inkscape:connector-curvature="0"
         stroke-opacity="0.705"
         fill="url(#linearGradient4237)"
         fill-rule="evenodd"
         stroke="#cecece"
         stroke-linejoin="miter"
         fill-opacity="1"
         stroke-linecap="butt"
         stroke-width="1" />
      <path
         d="m 116.2037,92.685185 c 1.13182,-4.540599 4.63483,-9.034209 10.68729,-7.545261 L 261.11111,123.7037 c 6.48148,1.63624 16.36287,0.33244 20.83334,-11.11111 4.00878,-10.26173 10.87392,-18.779525 25.46296,-16.203701 l 68.51852,13.888891 c 12.25335,3.29007 11.96705,11.68066 12.96296,18.51851 l 12.5,205.55556 c 0.64976,7.44283 -5.7507,13.21303 -12.96296,10.18518 L 144.90741,262.59259 c -4.92216,-1.55932 -8.93994,-3.09709 -9.25926,-10.18518 z"
         id="path4138"
         inkscape:connector-curvature="0"
         sodipodi:nodetypes="cccscccccccc"
         stroke-opacity="1"
         fill="#000000"
         fill-rule="evenodd"
         stroke="none"
         stroke-linejoin="miter"
         fill-opacity="0.77"
         stroke-linecap="butt"
         stroke-width="1" />
      <path
         sodipodi:nodetypes="cccsccccccc"
         inkscape:connector-curvature="0"
         id="path4140"
         d="m 116.2037,92.685185 c 1.13182,-4.540599 4.63483,-9.034209 10.68729,-7.545261 L 261.11111,123.7037 c 6.48148,1.63624 16.36287,0.33244 20.83334,-11.11111 4.00878,-10.26173 10.87392,-18.779525 25.46296,-16.203701 l 68.51852,13.888891 c 12.25335,3.29007 11.96705,11.68066 12.96296,18.51851 l 12.5,205.55556 c 0.64976,7.44283 -5.7507,13.21303 -12.96296,10.18518 L 209.72222,283.88889 C 173.76467,257.82993 120.35853,138.21611 116.2037,92.685185 Z"
         stroke-opacity="1"
         fill="url(#linearGradient4148)"
         fill-rule="evenodd"
         stroke="none"
         stroke-linejoin="miter"
         fill-opacity="1"
         stroke-linecap="butt"
         stroke-width="1" />
      <path
         d="m 177.77778,215.83334 -80.555558,82.4074 255.555558,88.42593 38.75029,-40.87068 c 4.63488,-1.3015 9.96817,-1.38077 9.86082,-10.98118 L 396.29629,282.5 Z"
         id="path4150"
         inkscape:connector-curvature="0"
         sodipodi:nodetypes="ccccccc"
         stroke-opacity="1"
         fill="#000000"
         filter="url(#filter4160)"
         fill-rule="evenodd"
         stroke="none"
         stroke-linejoin="miter"
         fill-opacity="0.273"
         stroke-linecap="butt"
         stroke-width="1" />
      <path
         inkscape:connector-curvature="0"
         d="m 130.29688,79.757812 c -3.73674,-0.05935 -6.2712,2.374412 -7.66211,5.353516 1.24508,-0.330919 2.6592,-0.363492 4.25585,0.0293 l 134.22071,38.562492 c 5.49861,1.38812 13.44221,0.65773 18.45508,-6.58203 -4.30627,2.38583 -9.16625,2.43292 -12.90039,1.49024 L 132.44727,80.046875 c -0.75656,-0.186118 -1.47316,-0.278306 -2.15039,-0.289063 z m 177.54687,11.074219 c -7.10689,0.02874 -11.9932,3.152137 -15.51367,7.738281 3.82724,-2.318415 8.71897,-3.304404 15.07812,-2.18164 l 68.51758,13.888668 c 12.25335,3.29007 11.96698,11.68169 12.96289,18.51954 l 12.5,205.55468 c 0.1753,2.00795 -0.17581,3.88521 -0.90429,5.50977 4.09619,-1.28823 6.90142,-5.55587 6.46093,-10.60156 l -12.5,-205.55665 c -0.99591,-6.83785 -0.70954,-15.2275 -12.96289,-18.51757 L 312.96289,91.296875 c -1.82363,-0.321978 -3.52737,-0.47128 -5.11914,-0.464844 z"
         id="path4164"
         stroke-opacity="1"
         fill="#b5b5b5"
         fill-rule="evenodd"
         stroke="none"
         stroke-linejoin="miter"
         fill-opacity="1"
         stroke-linecap="butt"
         stroke-width="1" />
      <path
         id="path4169"
         d="m 375.92578,110.27734 c 12.25335,3.29007 11.96698,11.68169 12.96289,18.51954 2.18404,-2.05828 3.13422,-2.71335 5.55664,-5.09376 -0.99591,-6.83785 -0.70954,-15.2275 -12.96289,-18.51757 -2.39781,2.28773 -2.9924,2.79876 -5.55664,5.09179 z"
         inkscape:connector-curvature="0"
         sodipodi:nodetypes="ccccc"
         stroke-opacity="1"
         fill="url(#linearGradient4177)"
         fill-rule="evenodd"
         stroke="none"
         stroke-linejoin="miter"
         fill-opacity="1"
         stroke-linecap="butt"
         stroke-width="1" />
      <path
         inkscape:connector-curvature="0"
         d="m 151.9043,54.332031 c -2.67378,0.112285 -4.27807,1.802415 -4.90039,4.837891 0.28199,0.05237 0.56972,0.11281 0.86914,0.191406 l 135.10547,37.234375 c 5.41154,1.54874 11.51034,0.467116 15.3789,-4.605469 -2.77183,0.801996 -5.76159,0.727663 -8.57031,-0.07617 L 154.68164,54.681641 c -1.0274,-0.269688 -1.9536,-0.384203 -2.77734,-0.34961 z m 170.88281,6.701172 c -5.39865,-0.126557 -8.73663,1.852669 -10.81445,5.035156 2.34672,-0.518874 5.2277,-0.496408 8.77148,0.208985 l 85.63867,19.679687 c 6.41139,1.511285 7.81812,4.448574 7.44727,11.703125 l -2.12891,230.849614 -0.47461,0.52148 1.96485,0.65039 5.31836,-5.85156 2.1289,-230.851564 c 0.37085,-7.254551 -1.03587,-10.189887 -7.44726,-11.701172 L 327.55273,61.595703 c -1.74327,-0.347001 -3.32697,-0.528775 -4.76562,-0.5625 z"
         id="path4200"
         stroke-opacity="1"
         fill="#b0b0b0"
         fill-rule="evenodd"
         stroke="none"
         stroke-linejoin="miter"
         fill-opacity="1"
         stroke-linecap="butt"
         stroke-width="1" />
      <path
         sodipodi:nodetypes="ccccc"
         inkscape:connector-curvature="0"
         d="m 403.12392,85.141164 c 12.4021,2.867396 10.71654,4.984484 10.70306,18.467586 2.18404,-2.05828 4.25114,-3.752349 6.67356,-6.132759 0.48467,-12.136762 1.00482,-14.993724 -11.89791,-17.244792 -2.39781,2.28773 -2.91447,2.616935 -5.47871,4.909965 z"
         id="path4205"
         stroke-opacity="1"
         fill="url(#linearGradient4207)"
         fill-rule="evenodd"
         stroke="none"
         stroke-linejoin="miter"
         fill-opacity="1"
         stroke-linecap="butt"
         stroke-width="1" />
    </g>
    <g
       id="g5042"
       transform="matrix(0.94180228,0,0,0.94180228,275.22263,36.532784)">
      <rect
         id="rect5030"
         width="177.12"
         height="127.48"
         x="-268.69"
         y="88.400002"
         ry="6.8010001"
         stroke-miterlimit="4"
         rx="6.8010001"
         style="fill:#000000;fill-opacity:0.46600001;stroke:none;stroke-width:2.8829999;stroke-linecap:round;stroke-linejoin:round;stroke-miterlimit:4;stroke-dasharray:none;stroke-opacity:0.43700005;filter:url(#filter5038)" />
      <rect
         ry="6.8010001"
         y="79.934998"
         x="-259.94"
         height="127.48"
         width="177.12"
         id="rect4090"
         stroke-miterlimit="4"
         rx="6.8010001"
         style="fill:url(#linearGradient2645);fill-opacity:1;stroke:#484848;stroke-width:2.8829999;stroke-linecap:round;stroke-linejoin:round;stroke-miterlimit:4;stroke-dasharray:none;stroke-opacity:0.43700005" />
      <path
         d="m -217.92192,144.52589 c 9.1358,0.67523 12.06598,9.2447 16.4122,14.50465 -15.91663,0.74829 -15.29785,13.80829 -19.71748,20.158 6.46424,-2.84139 15.31308,6.00032 20.23756,-17.27824 -6.06158,9.0972 -9.64391,16.91092 0.27123,25.4591 8.21593,-12.79393 7.43375,-12.81644 2.40479,-24.27405 -5.77041,12.47633 6.76214,15.92028 15.16679,20.15306 -1.61809,-6.70842 4.36866,-16.95477 -12.23318,-22.2798 3.73752,10.33557 14.56765,6.45433 28.39046,-0.54619 -9.25386,-4.2581 -19.34477,-15.19036 -29.16775,-2.24564 25.05182,-3.62057 8.34466,-24.28781 10.62589,-42.88914 -9.45951,15.48918 -23.80991,24.12294 -14.77494,42.74547 -4.59886,-5.69265 -8.4539,-14.37659 -17.31148,-15.37737 0,0 -0.30409,1.87015 -0.30409,1.87015 0,0 0,0 0,0"
         id="path3477"
         sodipodi:nodetypes="cccccccccccccc"
         inkscape:connector-curvature="0"
         stroke-miterlimit="4"
         style="opacity:0.88800001;fill:url(#linearGradient2642);fill-opacity:1;fill-rule:evenodd;stroke:#214426;stroke-width:0.72100002;stroke-linecap:butt;stroke-linejoin:miter;stroke-miterlimit:4;stroke-dasharray:none;stroke-opacity:0.631" />
      <path
         d="m -151.62994,178.68615 c 0.64562,-10.13995 9.54483,-12.66121 15.74719,-17.67185 0.93468,20.51638 19.79945,23.44593 31.14445,32.71916 -5.28681,-11.22123 12.464658,-23.27518 -27.47011,-33.24407 13.15017,9.26811 26.76614,16.29179 44.966976,1.22478 -25.904426,-13.28755 -25.943256,-12.1077 -43.392246,-4.72416 19.2267,9.00351 25.5632,-10.4589 34.118901,-25.02052 -13.162761,4.36481 -29.672431,-1.78922 -36.918411,21.17121 14.84865,-5.70282 8.88852,-20.43587 -0.69987,-36.74345 -5.20652,13.08337 -16.8215,26.89497 -2.79951,37.79326 -4.26506,-30.60218 -23.96337,-8.29037 -36.91841,-9.09837 10.52997,8.21818 17.56284,23.43055 36.74345,14.34743 -6.56021,5.30826 -15.34271,8.90705 -16.27209,18.5467 l 1.74968,0.69988 z"
         id="path3475"
         sodipodi:nodetypes="cccccccccccccc"
         inkscape:connector-curvature="0"
         stroke-miterlimit="4"
         style="fill:#000000;fill-opacity:1;fill-rule:evenodd;stroke:#bebebe;stroke-width:0.64899999;stroke-linecap:butt;stroke-linejoin:miter;stroke-miterlimit:4;stroke-dasharray:none;stroke-opacity:1" />
      <path
         sodipodi:nodetypes="cccccccccccccc"
         id="path3798"
         d="m -202.69735,150.04366 c -0.65389,-8.84677 -8.95223,-11.68424 -14.04578,-15.89296 -0.72462,15.41308 -13.37144,14.81387 -19.52026,19.09368 2.75149,-6.25974 -5.8105,-14.82862 16.7316,-19.59731 -8.8094,5.86981 -16.37592,9.33881 -24.65365,-0.26264 12.38917,-7.95601 12.41097,-7.19857 23.5061,-2.32872 -12.08163,5.58786 -15.41661,-6.5482 -19.51549,-14.68694 6.49619,1.56689 16.41837,-4.23045 21.57495,11.84614 -10.0086,-3.61928 -6.25015,-14.10676 0.52889,-27.49226 4.12339,8.9611 14.7098,18.73277 2.17461,28.24497 3.50603,-24.25925 23.51941,-8.08066 41.53225,-10.28971 -14.99915,9.16022 -23.35976,23.05662 -41.39313,14.30749 5.51254,4.45336 13.92176,8.18645 14.89088,16.7638 0,0 -1.81097,0.29446 -1.81097,0.29446 0,0 0,0 0,0"
         inkscape:connector-curvature="0"
         stroke-miterlimit="4"
         style="fill:#878787;fill-opacity:1;fill-rule:evenodd;stroke:#363636;stroke-width:0.36000001;stroke-linecap:butt;stroke-linejoin:miter;stroke-miterlimit:4;stroke-dasharray:none;stroke-opacity:1" />
      <path
         sodipodi:nodetypes="ccccccc"
         id="rect4100"
         d="m -253.13736,79.935222 163.51744,0 c 3.767616,0 6.800752,3.033136 6.800752,6.800753 l 0,22.789775 c -59.039652,-23.934244 -131.230642,15.12613 -177.118942,0 l 0,-22.789775 c 0,-3.767617 3.03314,-6.800753 6.80075,-6.800753 z"
         inkscape:connector-curvature="0"
         stroke-miterlimit="4"
         style="fill:url(#linearGradient2637);fill-opacity:1;stroke:none;stroke-width:1;stroke-linecap:round;stroke-linejoin:round;stroke-miterlimit:4;stroke-opacity:0.43700005" />
    </g>
    <g
       font-size="7.5"
       font-variant="normal"
       letter-spacing="0"
       font-stretch="normal"
       font-weight="bold"
       line-height="125%"
       word-spacing="0"
       font-style="normal"
       transform="translate(63.927786,-41.396097)"
       id="text4330"
       stroke-opacity="1"
       font-family="STIX"
       fill="#000000"
       stroke="none"
       stroke-linejoin="miter"
       fill-opacity="1"
       stroke-linecap="butt"
       stroke-width="1">
      <path
         inkscape:connector-curvature="0"
         id="path4335"
         d="m -56.13327,39.467617 0,-0.1875 c -0.3075,0 -0.4425,-0.165 -0.825,-1.0725 l -1.665,-3.915 -0.21,0 -1.6575,4.0875 c -0.285,0.705 -0.3975,0.84 -0.7425,0.9 l 0,0.1875 1.515,0 0,-0.1875 c -0.4425,-0.03 -0.6075,-0.1125 -0.6075,-0.3075 0,-0.18 0.1425,-0.495 0.2325,-0.7275 l 0.0975,-0.255 1.6875,0 c 0.255,0.5925 0.345,0.855 0.345,1.02 0,0.165 -0.0975,0.225 -0.345,0.2475 l -0.24,0.0225 0,0.1875 2.415,0 z m -2.2875,-1.77 -1.4625,0 0.705,-1.8225 0.7575,1.8225 z" />
      <path
         inkscape:connector-curvature="0"
         id="path4337"
         d="m -55.760848,34.397617 0,0.1875 c 0.525,0.045 0.63,0.15 0.63,0.735 l 0,3.2025 c 0,0.3825 -0.045,0.5925 -0.2925,0.69 -0.0825,0.0375 -0.195,0.0525 -0.3375,0.0675 l 0,0.1875 2.4975,0 0,-0.1875 c -0.5925,-0.075 -0.6525,-0.1425 -0.6525,-0.645 l 0,-1.44 c 0.99,-0.0075 1.245,-0.03 1.5675,-0.15 0.6225,-0.2325 0.9675,-0.69 0.9675,-1.29 0,-0.915 -0.765,-1.3575 -2.0175,-1.3575 l -2.3625,0 z m 1.845,0.525 c 0,-0.1725 0.1275,-0.2625 0.375,-0.2625 0.6225,0 0.87,0.345 0.87,1.1775 0,0.8325 -0.3075,1.0875 -1.245,1.095 l 0,-2.01 z" />
    </g>
  </g>
</svg>
