<?xml version="1.0" encoding="UTF-8" standalone="no"?>
<!-- Created with Inkscape (http://www.inkscape.org/) -->

<svg
   xmlns:dc="http://purl.org/dc/elements/1.1/"
   xmlns:cc="http://creativecommons.org/ns#"
   xmlns:rdf="http://www.w3.org/1999/02/22-rdf-syntax-ns#"
   xmlns:svg="http://www.w3.org/2000/svg"
   xmlns="http://www.w3.org/2000/svg"
   xmlns:xlink="http://www.w3.org/1999/xlink"
   xmlns:sodipodi="http://sodipodi.sourceforge.net/DTD/sodipodi-0.dtd"
   xmlns:inkscape="http://www.inkscape.org/namespaces/inkscape"
   id="svg2"
   inkscape:version="0.92.5 (2060ec1f9f, 2020-04-08)"
   width="256"
   height="256"
   viewBox="0 0 256 256"
   sodipodi:docname="folder-backup.svg"
   version="1.1">
  <metadata
     id="metadata8">
    <rdf:RDF>
      <cc:Work>
        <dc:format>image/svg+xml</dc:format>
        <dc:type
           rdf:resource="http://purl.org/dc/dcmitype/StillImage" />
        <dc:title></dc:title>
      </cc:Work>
    </rdf:RDF>
  </metadata>
  <defs
     id="defs6">
    <linearGradient
       inkscape:collect="always"
       id="linearGradient858">
      <stop
         style="stop-color:#ffffff;stop-opacity:1;"
         offset="0"
         id="stop854" />
      <stop
         style="stop-color:#ffffff;stop-opacity:0;"
         offset="1"
         id="stop856" />
    </linearGradient>
    <linearGradient
       inkscape:collect="always"
       id="linearGradient855">
      <stop
         style="stop-color:#000000;stop-opacity:1"
         offset="0"
         id="stop851" />
      <stop
         style="stop-color:#000000;stop-opacity:0"
         offset="1"
         id="stop853" />
    </linearGradient>
    <linearGradient
       inkscape:collect="always"
       id="linearGradient4223">
      <stop
         id="stop4225"
         stop-color="#bebebe"
         stop-opacity="0.803" />
      <stop
         offset="1"
         id="stop4227"
         stop-color="#9f9f9f"
         stop-opacity="0.732" />
    </linearGradient>
    <linearGradient
       inkscape:collect="always"
       id="linearGradient4211">
      <stop
         id="stop4213"
         stop-color="#9f9f9f"
         stop-opacity="0.634" />
      <stop
         offset="1"
         id="stop4215"
         stop-color="#696969"
         stop-opacity="0" />
    </linearGradient>
    <linearGradient
       inkscape:collect="always"
       id="linearGradient4171">
      <stop
         id="stop4173"
         stop-color="#848484"
         stop-opacity="0.623" />
      <stop
         offset="1"
         id="stop4175"
         stop-color="#cdcdcd"
         stop-opacity="0.698" />
    </linearGradient>
    <linearGradient
       inkscape:collect="always"
       id="linearGradient4142">
      <stop
         id="stop4144"
         stop-color="#909090"
         stop-opacity="0.519" />
      <stop
         offset="1"
         id="stop4146"
         stop-color="#696969"
         stop-opacity="0" />
    </linearGradient>
    <linearGradient
       inkscape:collect="always"
       xlink:href="#linearGradient4142"
       id="linearGradient4148"
       x1="165.74"
       y1="63.25"
       x2="278.75"
       y2="324.36"
       gradientUnits="userSpaceOnUse"
       gradientTransform="matrix(0.77077081,0,0,0.77077081,-80.822015,-34.561922)" />
    <linearGradient
       inkscape:collect="always"
       xlink:href="#linearGradient4171"
       id="linearGradient4177"
       x1="379.78"
       y1="106.85"
       x2="387.93"
       y2="114.16"
       gradientUnits="userSpaceOnUse"
       spreadMethod="reflect"
       gradientTransform="matrix(0.77077081,0,0,0.77077081,-80.822015,-34.561922)" />
    <linearGradient
       inkscape:collect="always"
       xlink:href="#linearGradient4171"
       id="linearGradient4207"
       gradientUnits="userSpaceOnUse"
       spreadMethod="reflect"
       x1="381.27"
       y1="108.46"
       x2="387.93"
       y2="114.16"
       gradientTransform="matrix(0.77077081,0,0,0.77077081,-60.158797,-54.897152)" />
    <linearGradient
       inkscape:collect="always"
       xlink:href="#linearGradient4211"
       id="linearGradient4217"
       x1="284.7"
       y1="61.711"
       x2="281.1"
       y2="125.1"
       gradientUnits="userSpaceOnUse"
       gradientTransform="matrix(0.77077081,0,0,0.77077081,-80.822015,-34.561922)" />
    <linearGradient
       inkscape:collect="always"
       xlink:href="#linearGradient4223"
       id="linearGradient4229"
       x1="259.02"
       y1="93.26"
       x2="255.7"
       y2="103.09"
       gradientUnits="userSpaceOnUse"
       gradientTransform="matrix(0.77077081,0,0,0.77077081,-80.822015,-34.561922)" />
    <linearGradient
       inkscape:collect="always"
       xlink:href="#linearGradient4223"
       id="linearGradient4237"
       x1="262.84"
       y1="102.54"
       x2="258.99"
       y2="117.29"
       gradientUnits="userSpaceOnUse"
       gradientTransform="matrix(0.77077081,0,0,0.77077081,-80.822015,-34.561922)" />
    <filter
       inkscape:collect="always"
       style="color-interpolation-filters:sRGB"
       id="filter890"
       x="-0.0093866307"
       width="1.0187733"
       y="-0.016630034"
       height="1.0332601">
      <feGaussianBlur
         inkscape:collect="always"
         stdDeviation="0.91238843"
         id="feGaussianBlur892" />
    </filter>
    <linearGradient
       inkscape:collect="always"
       xlink:href="#linearGradient855"
       id="linearGradient857"
       x1="111.98162"
       y1="193.77997"
       x2="120.79942"
       y2="166.73978"
       gradientUnits="userSpaceOnUse" />
    <linearGradient
       inkscape:collect="always"
       xlink:href="#linearGradient858"
       id="linearGradient860"
       x1="221.87906"
       y1="54.649479"
       x2="185.756"
       y2="86.098389"
       gradientUnits="userSpaceOnUse" />
    <linearGradient
       inkscape:collect="always"
       xlink:href="#linearGradient858"
       id="linearGradient864"
       gradientUnits="userSpaceOnUse"
       x1="221.87906"
       y1="54.649479"
       x2="185.756"
       y2="86.098389"
       gradientTransform="translate(19.986222,-19.692307)" />
    <linearGradient
       inkscape:collect="always"
       id="linearGradient3295">
      <stop
         style="stop-color:#000000;stop-opacity:1;"
         offset="0"
         id="stop3297" />
      <stop
         style="stop-color:#cccccc;stop-opacity:1"
         offset="1"
         id="stop3299" />
    </linearGradient>
    <linearGradient
       inkscape:collect="always"
       id="linearGradient3249">
      <stop
         style="stop-color:#ffffff;stop-opacity:1"
         offset="0"
         id="stop3251" />
      <stop
         style="stop-color:#595959;stop-opacity:1"
         offset="1"
         id="stop3253" />
    </linearGradient>
    <linearGradient
       id="linearGradient3166">
      <stop
         id="stop3168"
         offset="0"
         style="stop-color:#000000;stop-opacity:1;" />
      <stop
         id="stop3170"
         offset="1"
         style="stop-color:#ffffff;stop-opacity:1;" />
    </linearGradient>
    <inkscape:perspective
       id="perspective9"
       inkscape:persp3d-origin="372.04724 : 350.78739 : 1"
       inkscape:vp_z="744.09448 : 526.18109 : 1"
       inkscape:vp_y="0 : 1000 : 0"
       inkscape:vp_x="0 : 526.18109 : 1"
       sodipodi:type="inkscape:persp3d" />
    <linearGradient
       y2="-12.110024"
       x2="247.23203"
       y1="134.25055"
       x1="95.415031"
       gradientUnits="userSpaceOnUse"
       id="linearGradient3177"
       xlink:href="#linearGradient3166"
       inkscape:collect="always" />
    <linearGradient
       spreadMethod="reflect"
       gradientUnits="userSpaceOnUse"
       y2="144.88889"
       x2="174.18301"
       y1="167.1111"
       x1="86.601303"
       id="linearGradient3191"
       xlink:href="#linearGradient855"
       inkscape:collect="always" />
    <linearGradient
       y2="9.5947676"
       x2="201.96078"
       y1="143.90848"
       x1="74.509796"
       spreadMethod="reflect"
       gradientUnits="userSpaceOnUse"
       id="linearGradient3199"
       xlink:href="#linearGradient3166"
       inkscape:collect="always" />
    <linearGradient
       gradientUnits="userSpaceOnUse"
       y2="-29.283861"
       x2="234.90009"
       y1="164.50699"
       x1="70.839378"
       id="linearGradient3207"
       xlink:href="#linearGradient3166"
       inkscape:collect="always" />
    <linearGradient
       gradientUnits="userSpaceOnUse"
       y2="19.398691"
       x2="212.59151"
       y1="101.09804"
       x1="107.34313"
       id="linearGradient3217"
       xlink:href="#linearGradient3166"
       inkscape:collect="always" />
    <linearGradient
       spreadMethod="reflect"
       y2="23.320259"
       x2="212.26471"
       y1="76.261436"
       x1="106.36275"
       gradientUnits="userSpaceOnUse"
       id="linearGradient3221"
       xlink:href="#linearGradient3166"
       inkscape:collect="always" />
    <linearGradient
       gradientTransform="matrix(0.5459032,0,0,0.3080023,39.793773,120.84249)"
       y2="-29.283861"
       x2="234.90009"
       y1="146.05424"
       x1="79.667641"
       gradientUnits="userSpaceOnUse"
       id="linearGradient3225"
       xlink:href="#linearGradient3166"
       inkscape:collect="always" />
    <linearGradient
       spreadMethod="reflect"
       y2="-29.283861"
       x2="234.90009"
       y1="144.99323"
       x1="85.055367"
       gradientTransform="matrix(0.5459032,0,0,0.3080023,39.793773,126.39805)"
       gradientUnits="userSpaceOnUse"
       id="linearGradient3229"
       xlink:href="#linearGradient3166"
       inkscape:collect="always" />
    <linearGradient
       gradientUnits="userSpaceOnUse"
       y2="105.19281"
       x2="216.49345"
       y1="88.352936"
       x1="237.1013"
       id="linearGradient3239"
       xlink:href="#linearGradient3166"
       inkscape:collect="always" />
    <radialGradient
       gradientUnits="userSpaceOnUse"
       gradientTransform="matrix(1,0,0,0.7145576,0,27.924851)"
       r="10.303922"
       fy="93.256638"
       fx="230.06535"
       cy="93.256638"
       cx="230.06535"
       id="radialGradient3247"
       xlink:href="#linearGradient3249"
       inkscape:collect="always" />
    <radialGradient
       r="10.303922"
       fy="93.256638"
       fx="230.06535"
       cy="93.256638"
       cx="230.06535"
       gradientTransform="matrix(1,0,0,0.7145576,0,27.924851)"
       gradientUnits="userSpaceOnUse"
       id="radialGradient3257"
       xlink:href="#linearGradient3249"
       inkscape:collect="always" />
    <radialGradient
       r="10.303922"
       fy="93.256638"
       fx="230.06535"
       cy="93.256638"
       cx="230.06535"
       gradientTransform="matrix(1,0,0,0.7145576,0,27.924851)"
       gradientUnits="userSpaceOnUse"
       id="radialGradient3263"
       xlink:href="#linearGradient3249"
       inkscape:collect="always" />
    <radialGradient
       r="10.303922"
       fy="93.256638"
       fx="230.06535"
       cy="93.256638"
       cx="230.06535"
       gradientTransform="matrix(1,0,0,0.7145576,0,27.924851)"
       gradientUnits="userSpaceOnUse"
       id="radialGradient3269"
       xlink:href="#linearGradient3249"
       inkscape:collect="always" />
    <radialGradient
       r="10.303922"
       fy="93.256638"
       fx="230.06535"
       cy="93.256638"
       cx="230.06535"
       gradientTransform="matrix(1,0,0,0.7145576,0,27.924851)"
       gradientUnits="userSpaceOnUse"
       id="radialGradient3275"
       xlink:href="#linearGradient3249"
       inkscape:collect="always" />
    <radialGradient
       r="10.303922"
       fy="93.256638"
       fx="230.06535"
       cy="93.256638"
       cx="230.06535"
       gradientTransform="matrix(1,0,0,0.7145576,0,27.924851)"
       gradientUnits="userSpaceOnUse"
       id="radialGradient3281"
       xlink:href="#linearGradient3249"
       inkscape:collect="always" />
    <linearGradient
       gradientUnits="userSpaceOnUse"
       y2="219.4537"
       x2="251.3669"
       y1="219.4537"
       x1="217.46065"
       id="linearGradient3293"
       xlink:href="#linearGradient3295"
       inkscape:collect="always" />
    <linearGradient
       gradientUnits="userSpaceOnUse"
       y2="233.50986"
       x2="-9.4591513"
       y1="235.25812"
       x1="35.413227"
       id="linearGradient3309"
       xlink:href="#linearGradient3295"
       inkscape:collect="always" />
    <linearGradient
       inkscape:collect="always"
       xlink:href="#linearGradient3369"
       id="linearGradient3403"
       gradientUnits="userSpaceOnUse"
       spreadMethod="reflect"
       x1="155.81395"
       y1="113.36433"
       x2="215.89148"
       y2="50.573639"
       gradientTransform="matrix(0.4584837,0,0,0.4584837,12.357625,81.058821)" />
    <linearGradient
       inkscape:collect="always"
       xlink:href="#linearGradient3166"
       id="linearGradient3397"
       gradientUnits="userSpaceOnUse"
       x1="-81.182167"
       y1="145.67221"
       x2="-79.282944"
       y2="78.617943" />
    <linearGradient
       inkscape:collect="always"
       xlink:href="#linearGradient3369"
       id="linearGradient3375"
       x1="155.81395"
       y1="113.36433"
       x2="215.89148"
       y2="50.573639"
       gradientUnits="userSpaceOnUse"
       spreadMethod="reflect" />
    <inkscape:perspective
       id="perspective2503"
       inkscape:persp3d-origin="128 : 85.333333 : 1"
       inkscape:vp_z="256 : 128 : 1"
       inkscape:vp_y="0 : 1000 : 0"
       inkscape:vp_x="0 : 128 : 1"
       sodipodi:type="inkscape:persp3d" />
    <linearGradient
       id="linearGradient3578">
      <stop
         style="stop-color:#000000;stop-opacity:1;"
         offset="0"
         id="stop3580" />
      <stop
         style="stop-color:#fffcfc;stop-opacity:1;"
         offset="1"
         id="stop3582" />
    </linearGradient>
    <linearGradient
       inkscape:collect="always"
       id="linearGradient3369">
      <stop
         style="stop-color:#6465df;stop-opacity:1"
         offset="0"
         id="stop3371" />
      <stop
         style="stop-color:#ffffff;stop-opacity:1"
         offset="1"
         id="stop3373" />
    </linearGradient>
    <linearGradient
       inkscape:collect="always"
       xlink:href="#linearGradient3166"
       id="linearGradient1308"
       gradientUnits="userSpaceOnUse"
       x1="237.1013"
       y1="88.352936"
       x2="216.49345"
       y2="105.19281" />
    <linearGradient
       inkscape:collect="always"
       xlink:href="#linearGradient3166"
       id="linearGradient1310"
       gradientUnits="userSpaceOnUse"
       x1="237.1013"
       y1="88.352936"
       x2="216.49345"
       y2="105.19281" />
    <linearGradient
       inkscape:collect="always"
       xlink:href="#linearGradient3166"
       id="linearGradient1312"
       gradientUnits="userSpaceOnUse"
       x1="237.1013"
       y1="88.352936"
       x2="216.49345"
       y2="105.19281" />
    <linearGradient
       inkscape:collect="always"
       xlink:href="#linearGradient3166"
       id="linearGradient1314"
       gradientUnits="userSpaceOnUse"
       x1="237.1013"
       y1="88.352936"
       x2="216.49345"
       y2="105.19281" />
    <linearGradient
       inkscape:collect="always"
       xlink:href="#linearGradient3166"
       id="linearGradient1316"
       gradientUnits="userSpaceOnUse"
       x1="237.1013"
       y1="88.352936"
       x2="216.49345"
       y2="105.19281" />
  </defs>
  <sodipodi:namedview
     pagecolor="#ff0000"
     bordercolor="#666666"
     borderopacity="1"
     objecttolerance="10"
     gridtolerance="10"
     guidetolerance="10"
     inkscape:pageopacity="0"
     inkscape:pageshadow="2"
     inkscape:window-width="1920"
     inkscape:window-height="1056"
     id="namedview4"
     showgrid="false"
     inkscape:snap-global="false"
     inkscape:zoom="3.5117188"
     inkscape:cx="128"
     inkscape:cy="128"
     inkscape:window-x="0"
     inkscape:window-y="0"
     inkscape:window-maximized="1"
     inkscape:current-layer="svg2" />
  <g
     id="g888"
     style="fill:#000000;fill-opacity:0.12757201;filter:url(#filter890)"
     transform="matrix(1.027092,0,0,0.87914716,269.10213,48.787807)">
    <path
       transform="matrix(0.77077081,0,0,0.77077081,-337.33598,-64.706486)"
       sodipodi:nodetypes="ccccccc"
       inkscape:connector-curvature="0"
       id="path4150"
       d="m 177.77778,215.83334 -80.555558,82.4074 255.555558,88.42593 38.75029,-40.87068 c 4.25788,-4.69448 8.46018,-13.4447 8.35283,-19.27513 L 396.29629,282.5 Z"
       style="fill:#000000;fill-opacity:0.12757201;fill-rule:evenodd;stroke:none;stroke-width:1;stroke-linecap:butt;stroke-linejoin:miter;stroke-opacity:1" />
    <path
       inkscape:connector-curvature="0"
       id="path866"
       d="m -258.76367,164.31055 c 64.25456,22.23242 128.50911,44.46484 192.76367,66.69726 10.704605,-12.11221 23.269675,-22.6975 32.626953,-35.88281 4.915466,-9.97175 -0.0014,-21.20106 0.334678,-31.66405 1.365667,-7.80464 -3.023601,-10.97488 -10.290126,-11.82807 -52.133991,-15.90432 -104.267985,-31.80864 -156.401975,-47.71296 -19.67773,20.13021 -39.35547,40.26042 -59.0332,60.39063 z"
       style="fill:#000000;fill-opacity:0.12757201;fill-rule:evenodd;stroke:none;stroke-width:0.77077079;stroke-linecap:butt;stroke-linejoin:miter;stroke-opacity:1" />
    <path
       inkscape:connector-curvature="0"
       id="path872"
       d="m -255.12695,163.45117 c 62.83854,21.74284 125.67708,43.48568 188.515622,65.22852 10.661699,-12.45649 24.482587,-22.55662 32.46289,-37.08399 2.693429,-10.92369 -1.823197,-22.00405 -0.960937,-33.02148 -3.239054,-6.39155 -11.866064,-4.61259 -17.48133,-7.67536 -48.853875,-14.90314 -97.707755,-29.80627 -146.561635,-44.70941 -18.65821,19.08724 -37.31641,38.17448 -55.97461,57.26172 z"
       style="fill:#000000;fill-opacity:0.12757201;fill-rule:evenodd;stroke:none;stroke-width:0.77077079;stroke-linecap:butt;stroke-linejoin:miter;stroke-opacity:1" />
    <path
       inkscape:connector-curvature="0"
       id="path878"
       d="m -251.49023,162.5918 c 61.41731,21.2513 122.83463,42.5026 184.251949,63.7539 10.44283,-12.37841 24.919813,-21.97631 31.529297,-37.15625 1.394259,-10.18414 -1.706975,-20.39676 -1.751954,-30.52929 -5.3153,-5.0699 -13.440876,-3.58672 -19.715715,-7.06986 -47.132517,-14.3771 -94.265047,-28.75421 -141.397567,-43.13132 -17.63867,18.04428 -35.27734,36.08855 -52.91601,54.13282 z"
       style="fill:#000000;fill-opacity:0.12757201;fill-rule:evenodd;stroke:none;stroke-width:0.77077079;stroke-linecap:butt;stroke-linejoin:miter;stroke-opacity:1" />
  </g>
  <path
     style="fill:#000000;fill-opacity:0.73000004;fill-rule:evenodd;stroke:none;stroke-width:0.77077079;stroke-linecap:butt;stroke-linejoin:miter;stroke-opacity:1"
     d="M 31.923711,151.40704 27.003904,17.342113 c -0.04147,-4.96221 1.926333,-7.258395 6.149764,-6.149768 L 137.28972,39.891259 c 6.26366,1.792607 13.72694,-0.97619 14.75945,-11.889551 0.72147,-7.625757 3.60011,-13.61923 14.34945,-11.479565 l 66.0075,15.169425 c 4.94172,1.164855 6.02562,3.428063 5.73978,9.019659 l -1.63993,177.933263 -4.09985,4.50983 -196.443848,-65.00808 z"
     id="path4198"
     inkscape:connector-curvature="0"
     sodipodi:nodetypes="ccccsccccccc" />
  <path
     style="fill:url(#linearGradient4217);fill-opacity:1;fill-rule:evenodd;stroke:none;stroke-width:0.77077079;stroke-linecap:butt;stroke-linejoin:miter;stroke-opacity:1"
     sodipodi:nodetypes="ccccsccccccc"
     inkscape:connector-curvature="0"
     id="path4209"
     d="M 31.923711,151.40704 27.003904,17.342113 c -0.04147,-4.96221 1.926333,-7.258395 6.149764,-6.149768 L 137.28972,39.891259 c 6.26366,1.792607 13.72694,-0.97619 14.75945,-11.889551 0.72147,-7.625757 3.60011,-13.61923 14.34945,-11.479565 l 66.0075,15.169425 c 4.94172,1.164855 6.02562,3.428063 5.73978,9.019659 l -1.63993,177.933263 -4.09985,4.50983 -196.443848,-65.00808 z" />
  <path
     style="fill:url(#linearGradient4229);fill-opacity:1;fill-rule:evenodd;stroke:#cecece;stroke-width:0.77077079;stroke-linecap:butt;stroke-linejoin:miter;stroke-opacity:0.70499998"
     inkscape:connector-curvature="0"
     id="path4221"
     d="M 29.107592,14.969579 235.06766,65.511931 235.91003,215.45423 37.952503,143.85257 Z"
     sodipodi:nodetypes="ccccc" />
  <path
     style="fill:url(#linearGradient4237);fill-opacity:1;fill-rule:evenodd;stroke:#cecece;stroke-width:0.77077079;stroke-linecap:butt;stroke-linejoin:miter;stroke-opacity:0.70499998"
     d="M 24.474542,21.708559 230.43461,72.250911 233.8041,217.98135 33.319453,150.59155 Z"
     id="path4219"
     inkscape:connector-curvature="0" />
  <path
     style="fill:#000000;fill-opacity:0.76999996;fill-rule:evenodd;stroke:none;stroke-width:0.77077079;stroke-linecap:butt;stroke-linejoin:miter;stroke-opacity:1"
     d="M 8.7444046,36.877113 C 9.6167788,33.377352 12.316797,29.913809 16.981856,31.061446 L 120.43481,60.785279 c 4.99573,1.261166 12.61202,0.256235 16.05773,-8.564119 3.08985,-7.909442 8.3813,-14.47471 19.6261,-12.48934 l 52.81208,10.705152 c 9.44452,2.53589 9.22385,9.003112 9.99147,14.273527 l 9.63463,158.436221 c 0.50082,5.73672 -4.43247,10.18422 -9.99147,7.85044 L 30.868387,167.83678 c -3.793857,-1.20188 -6.890645,-2.38715 -7.136768,-7.85044 z"
     id="path4138"
     inkscape:connector-curvature="0"
     sodipodi:nodetypes="cccscccccccc" />
  <path
     style="fill:url(#linearGradient4148);fill-opacity:1;fill-rule:evenodd;stroke:none;stroke-width:0.77077079;stroke-linecap:butt;stroke-linejoin:miter;stroke-opacity:1"
     sodipodi:nodetypes="cccsccccccsc"
     inkscape:connector-curvature="0"
     id="path4140"
     d="M 8.7444046,36.877113 C 9.6167788,33.377352 12.316797,29.913809 16.981856,31.061446 L 120.43481,60.785279 c 4.99573,1.261166 12.61202,0.256235 16.05773,-8.564119 3.08985,-7.909442 8.3813,-14.47471 19.6261,-12.48934 l 52.81208,10.705152 c 9.44452,2.53589 9.22385,9.003112 9.99147,14.273527 l 9.63463,158.436221 c 0.50082,5.73672 -4.43247,10.18422 -9.99147,7.85044 L 31.136761,168.85067 c -4.722273,-3.4223 -8.128602,-7.01445 -8.632556,-13.84742 C 20.224751,124.09697 11.401175,65.991481 8.7444046,36.877113 Z" />
  <path
     style="fill:#848484;fill-opacity:1;fill-rule:evenodd;stroke:none;stroke-width:0.77077079;stroke-linecap:butt;stroke-linejoin:miter;stroke-opacity:1"
     inkscape:connector-curvature="0"
     d="m 19.607017,26.913071 c -2.88017,-0.04575 -4.833658,1.830128 -5.905731,4.126334 0.959671,-0.255062 2.049634,-0.280169 3.280285,0.02258 L 120.43498,60.784832 c 4.23816,1.069922 10.36086,0.506959 14.22463,-5.073237 -3.31914,1.838929 -7.06507,1.875224 -9.94324,1.148634 L 21.264475,27.135873 c -0.583135,-0.143455 -1.135469,-0.21451 -1.657458,-0.222802 z m 136.847943,8.535685 c -5.47778,0.02215 -9.24401,2.429575 -11.95748,5.964441 2.94992,-1.786966 6.72033,-2.546938 11.62177,-1.681544 l 52.81135,10.70498 c 9.44453,2.53589 9.2238,9.003905 9.99142,14.274321 l 9.63464,158.435546 c 0.13511,1.54767 -0.13551,2.99461 -0.69701,4.24677 3.15723,-0.99293 5.31942,-4.2823 4.9799,-8.17137 L 223.20492,60.784832 C 222.4373,55.514417 222.65802,49.047919 213.2135,46.51203 L 160.40065,35.807044 c -1.40561,-0.248171 -2.7188,-0.363249 -3.94569,-0.358288 z"
     id="path4164" />
  <path
     style="fill:url(#linearGradient4177);fill-opacity:1;fill-rule:evenodd;stroke:none;stroke-width:0.77077079;stroke-linecap:butt;stroke-linejoin:miter;stroke-opacity:1"
     id="path4169"
     d="m 208.9306,50.436633 c 9.44453,2.53589 9.2238,9.003905 9.99142,14.274321 1.68339,-1.586463 2.41577,-2.091371 4.2829,-3.926122 -0.76762,-5.270415 -0.5469,-11.736913 -9.99142,-14.272802 -1.84816,1.763315 -2.30646,2.157202 -4.2829,3.924603 z"
     inkscape:connector-curvature="0"
     sodipodi:nodetypes="ccccc" />
  <path
     style="fill:#858585;fill-opacity:1;fill-rule:evenodd;stroke:none;stroke-width:0.77077079;stroke-linecap:butt;stroke-linejoin:miter;stroke-opacity:1"
     inkscape:connector-curvature="0"
     d="m 36.261385,7.3156224 c -2.060871,0.08655 -3.297411,1.389248 -3.777077,3.7289046 0.217349,0.04036 0.439123,0.08695 0.669908,0.14753 L 137.28957,39.891226 c 4.17106,1.193724 8.87183,0.36004 11.85361,-3.549761 -2.13645,0.618155 -4.44087,0.560862 -6.60575,-0.05871 L 38.402078,7.5850914 C 37.610188,7.3772234 36.8963,7.2889584 36.261385,7.3156224 Z M 167.97287,12.480689 c -4.16112,-0.09755 -6.73394,1.427983 -8.33547,3.880952 1.80879,-0.399933 4.02936,-0.382617 6.76081,0.161079 l 66.00778,15.168528 c 4.94171,1.164855 6.02598,3.428831 5.74014,9.020428 l -1.6409,177.932144 -0.36582,0.40194 1.51445,0.5013 4.09924,-4.51021 1.64089,-177.933646 c 0.28584,-5.591596 -0.79841,-7.854067 -5.74013,-9.018922 L 171.64607,12.914248 c -1.34366,-0.267458 -2.56433,-0.407564 -3.6732,-0.433559 z"
     id="path4200" />
  <path
     style="fill:url(#linearGradient4207);fill-opacity:1;fill-rule:evenodd;stroke:none;stroke-width:0.77077079;stroke-linecap:butt;stroke-linejoin:miter;stroke-opacity:1"
     sodipodi:nodetypes="ccccc"
     inkscape:connector-curvature="0"
     d="m 229.89414,31.062402 c 9.55917,2.210105 8.25999,3.841895 8.2496,14.234276 1.6834,-1.586462 3.27666,-2.892201 5.14379,-4.726951 0.37357,-9.354662 0.77448,-11.556725 -9.17056,-13.291783 -1.84817,1.763316 -2.24639,2.017057 -4.22283,3.784458 z"
     id="path4205" />
  <path
     sodipodi:nodetypes="cccccc"
     inkscape:connector-curvature="0"
     id="path858"
     d="m 225.72675,196.33524 2.0574,24.39495 c 0.0295,8.34567 -2.0873,11.73805 -14.10792,7.34788 L 31.742824,167.82549 c -6.229286,-1.47576 -8.206505,-5.92013 -8.229621,-11.16877 l -2.057406,-24.10103"
     style="fill:none;fill-opacity:1;stroke:url(#linearGradient857);stroke-width:2.1;stroke-linecap:butt;stroke-linejoin:miter;stroke-miterlimit:4;stroke-dasharray:none;stroke-opacity:1" />
  <path
     d="m 156.11864,39.73182 52.81208,10.705152 c 9.44452,2.53589 9.22385,9.003112 9.99147,14.273527 l 4.07025,66.933111"
     id="path851"
     inkscape:connector-curvature="0"
     sodipodi:nodetypes="cccc"
     style="fill:none;fill-opacity:1;fill-rule:evenodd;stroke:url(#linearGradient860);stroke-width:1;stroke-linecap:butt;stroke-linejoin:miter;stroke-opacity:1;stroke-miterlimit:4;stroke-dasharray:none" />
  <path
     style="fill:none;fill-opacity:1;fill-rule:evenodd;stroke:url(#linearGradient864);stroke-width:1;stroke-linecap:butt;stroke-linejoin:miter;stroke-miterlimit:4;stroke-dasharray:none;stroke-opacity:1"
     sodipodi:nodetypes="cccc"
     inkscape:connector-curvature="0"
     id="path862"
     d="m 176.39878,18.569938 52.51816,12.174727 c 11.79584,2.53589 9.22385,9.003112 9.99147,14.273527 l -2.98371,67.814858" />
  <g
     id="g3311"
     transform="matrix(0.71092057,0,0,0.71092057,27.619608,74.992427)">
    <path
       inkscape:connector-curvature="0"
       sodipodi:nodetypes="ccccccccc"
       id="rect2384"
       d="M 56.805383,6.9329674 H 199.32052 c 18.13509,0 30.07323,11.9381336 32.73482,28.9325426 l 19.01141,152.82707 c 0,18.1351 -14.59973,32.73483 -32.73482,32.73483 H 39.695117 c -18.135093,0 -32.734825,-14.59973 -32.734825,-32.73483 L 24.070558,35.86551 C 26.732155,17.350189 38.67029,6.9329674 56.805383,6.9329674 Z"
       style="fill:url(#linearGradient3207);fill-opacity:1;stroke:#505050;stroke-width:1;stroke-linecap:round;stroke-linejoin:round;stroke-miterlimit:4;stroke-opacity:1" />
    <g
       style="fill:url(#linearGradient3191);fill-opacity:1"
       id="g3179"
       transform="translate(0.6535948,4.9019607)">
      <path
         inkscape:connector-curvature="0"
         sodipodi:nodetypes="ccccccccccccc"
         id="path3181"
         d="m 35.403048,31.136165 26.85185,-17.592592 131.290862,-0.272331 27.75055,16.067538 5.20152,55.691721 c -17.60879,-0.02196 -19.45538,28.371609 2.91394,26.388879 l 7.18954,74.53704 -32.4074,22.22222 -152.124192,0.7353 -34.25926,-25.46296 6.99891,-68.84532 c 17.372826,-1.04371 21.384323,-28.398287 3.376905,-27.913939 z"
         style="fill:url(#linearGradient3199);fill-opacity:1;fill-rule:evenodd;stroke:#7d7676;stroke-width:1px;stroke-linecap:butt;stroke-linejoin:miter;stroke-opacity:1" />
    </g>
    <ellipse
       ry="6.8627453"
       rx="9.8039217"
       cy="97.830063"
       cx="226.79738"
       style="opacity:1;fill:url(#radialGradient3275);fill-opacity:1;stroke:url(#linearGradient1308);stroke-width:1;stroke-linecap:round;stroke-linejoin:round;stroke-miterlimit:4;stroke-dasharray:none;stroke-opacity:1"
       id="path3273"
       transform="translate(-183.33333,-77.777782)" />
    <ellipse
       ry="6.8627453"
       rx="9.8039217"
       cy="97.830063"
       cx="226.79738"
       transform="translate(-18.954245,-77.777782)"
       id="path3279"
       style="opacity:1;fill:url(#radialGradient3281);fill-opacity:1;stroke:url(#linearGradient1310);stroke-width:1;stroke-linecap:round;stroke-linejoin:round;stroke-miterlimit:4;stroke-dasharray:none;stroke-opacity:1" />
    <g
       transform="translate(0.6535948,-0.6535948)"
       id="g3174">
      <path
         inkscape:connector-curvature="0"
         style="fill:url(#linearGradient3177);fill-opacity:1;fill-rule:evenodd;stroke:#7d7676;stroke-width:1px;stroke-linecap:butt;stroke-linejoin:miter;stroke-opacity:1"
         d="m 35.403048,31.136165 26.85185,-17.592592 131.290862,-0.272331 27.75055,16.067538 5.20152,55.691721 c -17.60879,-0.02196 -19.45538,28.371609 2.91394,26.388879 l 7.18954,74.53704 -32.4074,22.22222 -152.124192,0.7353 -34.25926,-25.46296 6.99891,-68.84532 c 17.372826,-1.04371 21.384323,-28.398287 3.376905,-27.913939 z"
         id="path2394"
         sodipodi:nodetypes="ccccccccccccc" />
    </g>
    <path
       inkscape:connector-curvature="0"
       sodipodi:nodetypes="ccccccccc"
       id="path2389"
       d="m 250.71065,189.2037 c 1e-5,18.1351 -14.61491,32.71875 -32.75,32.71875 H 39.335648 c -17.14068,0 -31.1118598,-13.03847 -32.5937498,-29.78125 v 24.8125 c 0,18.1351 14.6148998,32.75 32.7499998,32.75 H 218.1169 c 18.13509,0 32.74999,-14.6149 32.75,-32.75 z"
       style="fill:#000000;fill-opacity:1;stroke:#505050;stroke-width:1;stroke-linecap:round;stroke-linejoin:round;stroke-miterlimit:4;stroke-opacity:1" />
    <path
       inkscape:connector-curvature="0"
       style="fill:url(#linearGradient3293);fill-opacity:1;stroke:none;stroke-width:1;stroke-linecap:round;stroke-linejoin:round;stroke-miterlimit:4;stroke-opacity:1"
       d="m 250.71065,189.2037 c 2.00928,18.1351 -14.30939,33.17607 -32.59756,33.17607 l 0.004,27.32393 c 18.13509,0 32.74999,-14.6149 32.75,-32.75 z"
       id="path3285"
       sodipodi:nodetypes="ccccc" />
    <ellipse
       ry="45.424835"
       rx="81.862747"
       cy="73.320259"
       cx="141.66667"
       style="opacity:1;fill:url(#linearGradient3221);fill-opacity:1;stroke:none;stroke-width:1;stroke-linecap:round;stroke-linejoin:round;stroke-miterlimit:4;stroke-dasharray:none;stroke-opacity:1"
       id="path3219"
       transform="translate(-10.457516,-2.9411765)" />
    <ellipse
       ry="45.424835"
       rx="81.862747"
       cy="73.320259"
       cx="141.66667"
       transform="translate(-10.457516,-9.1503268)"
       id="path3209"
       style="opacity:1;fill:url(#linearGradient3217);fill-opacity:1;stroke:none;stroke-width:1;stroke-linecap:round;stroke-linejoin:round;stroke-miterlimit:4;stroke-dasharray:none;stroke-opacity:1" />
    <path
       inkscape:connector-curvature="0"
       sodipodi:nodetypes="ccccccccc"
       id="path3227"
       d="M 70.804017,128.53342 H 148.6035 c 9.9,0 16.41707,3.67698 17.87004,8.91129 l 10.37839,47.0711 c 0,5.58564 -7.97004,10.0824 -17.87005,10.0824 H 61.463468 c -9.900006,0 -17.870048,-4.49676 -17.870048,-10.0824 l 9.34055,-47.0711 c 1.452975,-5.70276 7.970042,-8.91129 17.870047,-8.91129 z"
       style="fill:url(#linearGradient3229);fill-opacity:1;stroke:#505050;stroke-width:0.41004816;stroke-linecap:round;stroke-linejoin:round;stroke-miterlimit:4;stroke-opacity:1" />
    <path
       inkscape:connector-curvature="0"
       style="fill:url(#linearGradient3225);fill-opacity:1;stroke:#505050;stroke-width:0.41004816;stroke-linecap:round;stroke-linejoin:round;stroke-miterlimit:4;stroke-opacity:1"
       d="M 70.804017,122.97786 H 148.6035 c 9.9,0 16.41707,3.67698 17.87004,8.91129 l 10.37839,47.0711 c 0,5.58564 -7.97004,10.0824 -17.87005,10.0824 H 61.463468 c -9.900006,0 -17.870048,-4.49676 -17.870048,-10.0824 l 9.34055,-47.0711 c 1.452975,-5.70276 7.970042,-8.91129 17.870047,-8.91129 z"
       id="path3223"
       sodipodi:nodetypes="ccccccccc" />
    <ellipse
       ry="6.8627453"
       rx="9.8039217"
       cy="97.830063"
       cx="226.79738"
       transform="translate(0.3267974,4.248366)"
       id="path3231"
       style="opacity:1;fill:url(#radialGradient3247);fill-opacity:1;stroke:url(#linearGradient1312);stroke-width:1;stroke-linecap:round;stroke-linejoin:round;stroke-miterlimit:4;stroke-dasharray:none;stroke-opacity:1" />
    <ellipse
       ry="6.8627453"
       rx="9.8039217"
       cy="97.830063"
       cx="226.79738"
       style="opacity:1;fill:url(#radialGradient3257);fill-opacity:1;stroke:url(#linearGradient1314);stroke-width:1;stroke-linecap:round;stroke-linejoin:round;stroke-miterlimit:4;stroke-dasharray:none;stroke-opacity:1"
       id="path3255"
       transform="translate(-197.71242,5.2287582)" />
    <ellipse
       ry="6.8627453"
       rx="9.8039217"
       cy="97.830063"
       cx="226.79738"
       style="opacity:1;fill:url(#radialGradient3263);fill-opacity:1;stroke:url(#linearGradient1316);stroke-width:1;stroke-linecap:round;stroke-linejoin:round;stroke-miterlimit:4;stroke-dasharray:none;stroke-opacity:1"
       id="path3261"
       transform="translate(2.6143791,109.47712)" />
    <ellipse
       ry="6.8627453"
       rx="9.8039217"
       cy="97.830063"
       cx="226.79738"
       transform="translate(-198.36601,109.47712)"
       id="path3267"
       style="opacity:1;fill:url(#radialGradient3269);fill-opacity:1;stroke:url(#linearGradient3239);stroke-width:1;stroke-linecap:round;stroke-linejoin:round;stroke-miterlimit:4;stroke-dasharray:none;stroke-opacity:1" />
    <path
       inkscape:connector-curvature="0"
       style="fill:url(#linearGradient3309);fill-opacity:1;stroke:none;stroke-width:1;stroke-linecap:round;stroke-linejoin:round;stroke-miterlimit:4;stroke-opacity:1"
       d="m 39.335648,221.92245 c -17.14068,0 -31.1118598,-13.03847 -32.5937498,-29.78125 v 24.8125 c 0,18.1351 14.6148998,32.75 32.7499998,32.75 z"
       id="path3301"
       sodipodi:nodetypes="ccccc" />
  </g>
</svg>
