<?xml version="1.0" encoding="UTF-8" standalone="no"?>
<!-- Created with Inkscape (http://www.inkscape.org/) -->

<svg
   xmlns:dc="http://purl.org/dc/elements/1.1/"
   xmlns:cc="http://creativecommons.org/ns#"
   xmlns:rdf="http://www.w3.org/1999/02/22-rdf-syntax-ns#"
   xmlns:svg="http://www.w3.org/2000/svg"
   xmlns="http://www.w3.org/2000/svg"
   xmlns:xlink="http://www.w3.org/1999/xlink"
   xmlns:sodipodi="http://sodipodi.sourceforge.net/DTD/sodipodi-0.dtd"
   xmlns:inkscape="http://www.inkscape.org/namespaces/inkscape"
   id="svg2"
   sodipodi:version="0.32"
   inkscape:version="0.91 r13725"
   width="256"
   height="256"
   sodipodi:docname="folder-k3b.svg"
   version="1.1">
  <metadata
     id="metadata7">
    <rdf:RDF>
      <cc:Work>
        <dc:format>image/svg+xml</dc:format>
        <dc:type
           rdf:resource="http://purl.org/dc/dcmitype/StillImage" />
        <dc:title />
      </cc:Work>
    </rdf:RDF>
  </metadata>
  <defs
     id="defs5">
    <linearGradient
       id="linearGradient4467">
      <stop
         stop-opacity="0.434"
         stop-color="#ffffff"
         id="stop4469" />
      <stop
         stop-opacity="0.125"
         stop-color="#e23a12"
         offset="1"
         id="stop4471" />
    </linearGradient>
    <linearGradient
       id="linearGradient4645"
       inkscape:collect="always">
      <stop
         id="stop4647"
         stop-color="#9be0f2"
         stop-opacity="0.502" />
      <stop
         id="stop4649"
         offset="1"
         stop-color="#d4eff5"
         stop-opacity="0.106" />
    </linearGradient>
    <linearGradient
       y2="418.45"
       x2="101.2"
       y1="252.6"
       x1="247.88"
       spreadMethod="reflect"
       gradientTransform="matrix(0.324993,0.03667937,0,0.324993,279.78804,44.792932)"
       gradientUnits="userSpaceOnUse"
       id="linearGradient2860"
       xlink:href="#linearGradient4645"
       inkscape:collect="always" />
    <linearGradient
       y2="436.75"
       x2="231.63"
       y1="331.22"
       x1="340.63"
       spreadMethod="reflect"
       gradientTransform="matrix(-0.324993,0,0,-0.324993,4.724826,213.12438)"
       gradientUnits="userSpaceOnUse"
       id="linearGradient2858"
       xlink:href="#linearGradient2785"
       inkscape:collect="always" />
    <linearGradient
       y2="436.75"
       x2="231.63"
       y1="331.22"
       x1="340.63"
       spreadMethod="reflect"
       gradientUnits="userSpaceOnUse"
       id="linearGradient2856"
       xlink:href="#linearGradient2785"
       inkscape:collect="always"
       gradientTransform="matrix(0.324993,0,0,0.324993,-155.75259,52.964028)" />
    <linearGradient
       y2="78.11"
       x2="-118.45"
       y1="78.11"
       x1="-148.81"
       spreadMethod="reflect"
       gradientTransform="matrix(0.28943909,0.03266669,0,0.28943909,385.05942,113.8507)"
       gradientUnits="userSpaceOnUse"
       id="linearGradient2854"
       xlink:href="#linearGradient2799"
       inkscape:collect="always" />
    <linearGradient
       y2="466.09"
       x2="315.48"
       y1="39.84"
       x1="157.21"
       gradientUnits="userSpaceOnUse"
       id="linearGradient2852"
       xlink:href="#linearGradient2775"
       inkscape:collect="always"
       gradientTransform="matrix(0.324993,0.03667937,0,0.324993,280.33017,44.41387)" />
    <linearGradient
       y2="308.16"
       x2="197.04"
       y1="174"
       x1="22.01"
       spreadMethod="reflect"
       gradientUnits="userSpaceOnUse"
       id="linearGradient2850"
       xlink:href="#linearGradient2811"
       inkscape:collect="always"
       gradientTransform="matrix(0.324993,0.03667937,0,0.324993,280.33017,44.41387)" />
    <linearGradient
       id="linearGradient2775"
       inkscape:collect="always">
      <stop
         id="stop2777"
         stop-color="#777"
         stop-opacity="0.502" />
      <stop
         id="stop2779"
         offset="1"
         stop-color="black"
         stop-opacity="0.481" />
    </linearGradient>
    <linearGradient
       inkscape:collect="always"
       id="linearGradient2785">
      <stop
         id="stop2787"
         stop-color="#91c6d8"
         stop-opacity="0.434" />
      <stop
         offset="1"
         id="stop2789"
         stop-color="#a4ced7"
         stop-opacity="0" />
    </linearGradient>
    <linearGradient
       id="linearGradient2799"
       inkscape:collect="always">
      <stop
         id="stop2801"
         stop-color="#b1b1b1"
         stop-opacity="1" />
      <stop
         id="stop2803"
         offset="1"
         stop-color="white"
         stop-opacity="1" />
    </linearGradient>
    <linearGradient
       id="linearGradient2811"
       inkscape:collect="always">
      <stop
         id="stop2813"
         stop-color="#9fd5e7"
         stop-opacity="0.502" />
      <stop
         id="stop2815"
         offset="1"
         stop-color="#76cee2"
         stop-opacity="0.176" />
    </linearGradient>
    <linearGradient
       id="linearGradient3200-5">
      <stop
         id="stop3202-9"
         stop-color="#ffffff"
         stop-opacity="1" />
      <stop
         offset="1"
         id="stop3204-7"
         stop-color="#ffffff"
         stop-opacity="0" />
    </linearGradient>
    <filter
       inkscape:collect="always"
       id="filter4681"
       x="-0.06"
       width="1.12"
       y="-0.06"
       height="1.12"
       color-interpolation-filters="sRGB">
      <feGaussianBlur
         inkscape:collect="always"
         id="feGaussianBlur4683" />
    </filter>
    <linearGradient
       id="linearGradient4842"
       inkscape:collect="always">
      <stop
         id="stop4844"
         stop-color="#ffd4d0"
         stop-opacity="1" />
      <stop
         id="stop4846"
         offset="1"
         stop-color="#000000"
         stop-opacity="1" />
    </linearGradient>
    <linearGradient
       id="linearGradient4832"
       inkscape:collect="always">
      <stop
         id="stop4834"
         stop-color="#66470c"
         stop-opacity="1" />
      <stop
         id="stop4836"
         offset="1"
         stop-color="#ffffff"
         stop-opacity="1" />
    </linearGradient>
    <linearGradient
       id="linearGradient4735"
       inkscape:collect="always">
      <stop
         id="stop4737"
         stop-color="#c99520"
         stop-opacity="1" />
      <stop
         id="stop4739"
         offset="1"
         stop-color="#c99520"
         stop-opacity="0" />
    </linearGradient>
    <linearGradient
       id="linearGradient4674"
       inkscape:collect="always">
      <stop
         id="stop4676"
         stop-color="#ee5831"
         stop-opacity="0.247" />
      <stop
         id="stop4678"
         offset="1"
         stop-color="#efddd9"
         stop-opacity="0.06" />
    </linearGradient>
    <linearGradient
       id="linearGradient4656">
      <stop
         id="stop4658"
         stop-color="#ffffff"
         stop-opacity="1" />
      <stop
         id="stop4660"
         offset="1"
         stop-color="#d28c7b"
         stop-opacity="0" />
    </linearGradient>
    <linearGradient
       y2="50.584"
       x2="-72.37"
       y1="63.813"
       x1="-72.37"
       spreadMethod="reflect"
       gradientTransform="matrix(1.2166302,0,0,0.390625,372.33916,34.090244)"
       gradientUnits="userSpaceOnUse"
       id="linearGradient4961"
       xlink:href="#linearGradient4832"
       inkscape:collect="always" />
    <linearGradient
       y2="13.486"
       x2="-70.32"
       y1="136.16"
       x1="-81.25"
       gradientTransform="translate(249.80544,-23.735408)"
       gradientUnits="userSpaceOnUse"
       id="linearGradient4969"
       xlink:href="#linearGradient4674"
       inkscape:collect="always" />
    <radialGradient
       r="27.06"
       fy="73.16"
       fx="-82.59"
       cy="73.16"
       cx="-82.59"
       gradientTransform="matrix(0.6842218,0.01472372,-0.0412569,1.9172378,-23.891254,3.18197)"
       gradientUnits="userSpaceOnUse"
       id="radialGradient3322"
       xlink:href="#linearGradient3200-5"
       inkscape:collect="always" />
    <radialGradient
       r="12.06"
       fy="53.933"
       fx="-92.62"
       cy="53.933"
       cx="-92.62"
       gradientTransform="matrix(1.8711624,0.02207245,-0.01084346,0.9192397,81.276505,8.3038537)"
       gradientUnits="userSpaceOnUse"
       id="radialGradient3326"
       xlink:href="#linearGradient4842"
       inkscape:collect="always" />
    <radialGradient
       r="28.579"
       fy="72.04"
       fx="-43.979"
       cy="72.04"
       cx="-43.979"
       gradientTransform="matrix(1.8257671,-0.00713524,0.01418225,3.6289573,-0.737644,-134.15989)"
       gradientUnits="userSpaceOnUse"
       id="radialGradient3328"
       xlink:href="#linearGradient4735"
       inkscape:collect="always" />
    <radialGradient
       r="13.677"
       fy="80.2"
       fx="-75.03"
       cy="80.2"
       cx="-75.03"
       gradientTransform="matrix(0.9999909,-0.00426827,0.02844987,6.6653773,235.46095,-433.6863)"
       gradientUnits="userSpaceOnUse"
       id="radialGradient3330"
       xlink:href="#linearGradient4656"
       inkscape:collect="always" />
    <radialGradient
       r="13.677"
       fy="80.2"
       fx="-75.03"
       cy="80.2"
       cx="-75.03"
       gradientTransform="matrix(-0.9749996,-0.2222067,-1.4811048,6.4987993,218.30289,-437.03954)"
       gradientUnits="userSpaceOnUse"
       id="radialGradient3334"
       xlink:href="#linearGradient4656"
       inkscape:collect="always" />
    <radialGradient
       r="12.661"
       fy="66.798"
       fx="-87.39"
       cy="66.798"
       cx="-87.39"
       gradientTransform="matrix(1.8906753,0.03422158,-0.1950296,10.774995,348.05815,-610.85415)"
       gradientUnits="userSpaceOnUse"
       id="radialGradient3336"
       xlink:href="#linearGradient4467"
       inkscape:collect="always" />
    <filter
       inkscape:collect="always"
       id="filter5407"
       x="-0.018"
       width="1.036"
       y="-0.009"
       height="1.018"
       color-interpolation-filters="sRGB">
      <feGaussianBlur
         inkscape:collect="always"
         id="feGaussianBlur5409" />
    </filter>
    <filter
       inkscape:collect="always"
       id="filter4952"
       x="-0.019"
       width="1.039"
       y="-0.031"
       height="1.063"
       color-interpolation-filters="sRGB">
      <feGaussianBlur
         inkscape:collect="always"
         stdDeviation="1.37383"
         id="feGaussianBlur4954" />
    </filter>
    <linearGradient
       inkscape:collect="always"
       id="linearGradient4167">
      <stop
         id="stop4169"
         stop-color="#adadad"
         stop-opacity="0.624" />
      <stop
         offset="1"
         id="stop4171"
         stop-color="#ffffff"
         stop-opacity="0.973" />
    </linearGradient>
    <linearGradient
       id="linearGradient4223"
       inkscape:collect="always">
      <stop
         id="stop4225"
         stop-color="#bebebe"
         stop-opacity="0.803" />
      <stop
         id="stop4227"
         offset="1"
         stop-color="#9f9f9f"
         stop-opacity="0.732" />
    </linearGradient>
    <linearGradient
       id="linearGradient4211"
       inkscape:collect="always">
      <stop
         id="stop4213"
         stop-color="#9f9f9f"
         stop-opacity="0.634" />
      <stop
         id="stop4215"
         offset="1"
         stop-color="#696969"
         stop-opacity="0" />
    </linearGradient>
    <linearGradient
       id="linearGradient4171"
       inkscape:collect="always">
      <stop
         id="stop4173"
         stop-color="#b2b2b2"
         stop-opacity="0.624" />
      <stop
         id="stop4175"
         offset="1"
         stop-color="#ffffff"
         stop-opacity="0.698" />
    </linearGradient>
    <linearGradient
       id="linearGradient4142"
       inkscape:collect="always">
      <stop
         id="stop4144"
         stop-color="#909090"
         stop-opacity="0.519" />
      <stop
         id="stop4146"
         offset="1"
         stop-color="#696969"
         stop-opacity="0" />
    </linearGradient>
    <linearGradient
       gradientUnits="userSpaceOnUse"
       y2="324.36"
       x2="278.75"
       y1="63.25"
       x1="165.74"
       id="linearGradient4148"
       xlink:href="#linearGradient4142"
       inkscape:collect="always" />
    <filter
       height="1.1"
       y="-0.05"
       width="1.056"
       x="-0.028"
       id="filter4160"
       inkscape:collect="always"
       color-interpolation-filters="sRGB">
      <feGaussianBlur
         id="feGaussianBlur4162"
         stdDeviation="3.56251"
         inkscape:collect="always" />
    </filter>
    <linearGradient
       spreadMethod="reflect"
       gradientUnits="userSpaceOnUse"
       y2="114.16"
       x2="387.93"
       y1="106.85"
       x1="379.78"
       id="linearGradient4177"
       xlink:href="#linearGradient4167"
       inkscape:collect="always" />
    <linearGradient
       gradientTransform="translate(26.808511,-26.382979)"
       y2="114.16"
       x2="387.93"
       y1="108.46"
       x1="381.27"
       spreadMethod="reflect"
       gradientUnits="userSpaceOnUse"
       id="linearGradient4207"
       xlink:href="#linearGradient4171"
       inkscape:collect="always" />
    <linearGradient
       gradientUnits="userSpaceOnUse"
       y2="125.1"
       x2="281.1"
       y1="61.711"
       x1="284.7"
       id="linearGradient4217"
       xlink:href="#linearGradient4211"
       inkscape:collect="always" />
    <linearGradient
       gradientUnits="userSpaceOnUse"
       y2="103.09"
       x2="255.7"
       y1="93.26"
       x1="259.02"
       id="linearGradient4229"
       xlink:href="#linearGradient4223"
       inkscape:collect="always" />
    <linearGradient
       gradientUnits="userSpaceOnUse"
       y2="117.29"
       x2="258.99"
       y1="102.54"
       x1="262.84"
       id="linearGradient4237"
       xlink:href="#linearGradient4223"
       inkscape:collect="always" />
    <filter
       height="1.136"
       y="-0.068"
       width="1.049"
       x="-0.024"
       id="filter4257"
       inkscape:collect="always"
       color-interpolation-filters="sRGB">
      <feGaussianBlur
         id="feGaussianBlur4259"
         stdDeviation="2.75443"
         inkscape:collect="always" />
    </filter>
  </defs>
  <sodipodi:namedview
     inkscape:window-height="1056"
     inkscape:window-width="1920"
     inkscape:pageshadow="2"
     inkscape:pageopacity="0"
     guidetolerance="10.0"
     gridtolerance="10.0"
     objecttolerance="10.0"
     borderopacity="1.0"
     bordercolor="#666666"
     pagecolor="#ffffff"
     id="base"
     width="256"
     height="256"
     inkscape:zoom="3.5351562"
     inkscape:cx="128"
     inkscape:cy="128"
     inkscape:window-x="0"
     inkscape:window-y="0"
     inkscape:current-layer="svg2"
     showgrid="false"
     inkscape:window-maximized="1" />
  <g
     transform="matrix(0.77128144,0,0,0.77128144,-80.171369,-20.89347)"
     id="g4261">
    <path
       d="m 137.15847,253.33333 1.0929,10.92897 c 1.69466,2.56439 1.62485,5.1824 6.55737,7.10382 l 234.9905,77.59563 c 4.36168,2.76045 7.27409,1.93611 10.91114,-1.0929 l 16.39344,-17.48633 z"
       id="path4239"
       inkscape:connector-curvature="0"
       sodipodi:nodetypes="ccccccc"
       stroke-opacity="1"
       fill="#000000"
       filter="url(#filter4257)"
       fill-rule="evenodd"
       stroke="none"
       stroke-linejoin="miter"
       fill-opacity="0.514"
       stroke-linecap="butt"
       stroke-width="1" />
    <path
       d="M 146.27659,241.2766 139.89362,67.340426 c -0.0538,-6.437983 2.49923,-9.41706 7.97872,-7.978724 l 135.10638,37.234043 c 8.12648,2.325734 17.80936,-1.266511 19.14894,-15.425533 0.93604,-9.893676 4.6708,-17.669623 18.61702,-14.893617 l 85.6383,19.680851 c 6.41139,1.511285 7.81765,4.447577 7.4468,11.702128 l -2.12765,230.851066 -5.31915,5.85106 -254.86675,-84.34164 z"
       id="path4198"
       inkscape:connector-curvature="0"
       sodipodi:nodetypes="ccccsccccccc"
       stroke-opacity="1"
       fill="#000000"
       fill-rule="evenodd"
       stroke="none"
       stroke-linejoin="miter"
       fill-opacity="0.73"
       stroke-linecap="butt"
       stroke-width="1" />
    <path
       sodipodi:nodetypes="ccccsccccccc"
       inkscape:connector-curvature="0"
       id="path4209"
       d="M 146.27659,241.2766 139.89362,67.340426 c -0.0538,-6.437983 2.49923,-9.41706 7.97872,-7.978724 l 135.10638,37.234043 c 8.12648,2.325734 17.80936,-1.266511 19.14894,-15.425533 0.93604,-9.893676 4.6708,-17.669623 18.61702,-14.893617 l 85.6383,19.680851 c 6.41139,1.511285 7.81765,4.447577 7.4468,11.702128 l -2.12765,230.851066 -5.31915,5.85106 -254.86675,-84.34164 z"
       stroke-opacity="1"
       fill="url(#linearGradient4217)"
       fill-rule="evenodd"
       stroke="none"
       stroke-linejoin="miter"
       fill-opacity="1"
       stroke-linecap="butt"
       stroke-width="1" />
    <path
       inkscape:connector-curvature="0"
       id="path4221"
       d="m 142.62295,64.262295 267.21311,65.573775 1.0929,194.53552 -256.8306,-92.89618 z"
       sodipodi:nodetypes="ccccc"
       stroke-opacity="0.705"
       fill="url(#linearGradient4229)"
       fill-rule="evenodd"
       stroke="#cecece"
       stroke-linejoin="miter"
       fill-opacity="1"
       stroke-linecap="butt"
       stroke-width="1" />
    <path
       d="m 136.61202,73.005464 267.21311,65.573776 4.37159,189.07104 -260.10929,-87.4317 z"
       id="path4219"
       inkscape:connector-curvature="0"
       stroke-opacity="0.705"
       fill="url(#linearGradient4237)"
       fill-rule="evenodd"
       stroke="#cecece"
       stroke-linejoin="miter"
       fill-opacity="1"
       stroke-linecap="butt"
       stroke-width="1" />
    <path
       d="m 116.2037,92.685185 c 1.13182,-4.540599 4.63483,-9.034209 10.68729,-7.545261 L 261.11111,123.7037 c 6.48148,1.63624 16.36287,0.33244 20.83334,-11.11111 4.00878,-10.26173 10.87392,-18.779525 25.46296,-16.203701 l 68.51852,13.888891 c 12.25335,3.29007 11.96705,11.68066 12.96296,18.51851 l 12.5,205.55556 c 0.64976,7.44283 -5.7507,13.21303 -12.96296,10.18518 L 144.90741,262.59259 c -4.92216,-1.55932 -8.93994,-3.09709 -9.25926,-10.18518 z"
       id="path4138"
       inkscape:connector-curvature="0"
       sodipodi:nodetypes="cccscccccccc"
       stroke-opacity="1"
       fill="#000000"
       fill-rule="evenodd"
       stroke="none"
       stroke-linejoin="miter"
       fill-opacity="0.77"
       stroke-linecap="butt"
       stroke-width="1" />
    <path
       sodipodi:nodetypes="cccsccccccc"
       inkscape:connector-curvature="0"
       id="path4140"
       d="m 116.2037,92.685185 c 1.13182,-4.540599 4.63483,-9.034209 10.68729,-7.545261 L 261.11111,123.7037 c 6.48148,1.63624 16.36287,0.33244 20.83334,-11.11111 4.00878,-10.26173 10.87392,-18.779525 25.46296,-16.203701 l 68.51852,13.888891 c 12.25335,3.29007 11.96705,11.68066 12.96296,18.51851 l 12.5,205.55556 c 0.64976,7.44283 -5.7507,13.21303 -12.96296,10.18518 L 209.72222,283.88889 C 173.76467,257.82993 120.35853,138.21611 116.2037,92.685185 Z"
       stroke-opacity="1"
       fill="url(#linearGradient4148)"
       fill-rule="evenodd"
       stroke="none"
       stroke-linejoin="miter"
       fill-opacity="1"
       stroke-linecap="butt"
       stroke-width="1" />
    <path
       d="m 177.77778,215.83334 -80.555558,82.4074 255.555558,88.42593 38.75029,-40.87068 c 4.63488,-1.3015 9.96817,-1.38077 9.86082,-10.98118 L 396.29629,282.5 Z"
       id="path4150"
       inkscape:connector-curvature="0"
       sodipodi:nodetypes="ccccccc"
       stroke-opacity="1"
       fill="#000000"
       filter="url(#filter4160)"
       fill-rule="evenodd"
       stroke="none"
       stroke-linejoin="miter"
       fill-opacity="0.273"
       stroke-linecap="butt"
       stroke-width="1" />
    <path
       inkscape:connector-curvature="0"
       d="m 130.29688,79.757812 c -3.73674,-0.05935 -6.2712,2.374412 -7.66211,5.353516 1.24508,-0.330919 2.6592,-0.363492 4.25585,0.0293 l 134.22071,38.562492 c 5.49861,1.38812 13.44221,0.65773 18.45508,-6.58203 -4.30627,2.38583 -9.16625,2.43292 -12.90039,1.49024 L 132.44727,80.046875 c -0.75656,-0.186118 -1.47316,-0.278306 -2.15039,-0.289063 z m 177.54687,11.074219 c -7.10689,0.02874 -11.9932,3.152137 -15.51367,7.738281 3.82724,-2.318415 8.71897,-3.304404 15.07812,-2.18164 l 68.51758,13.888668 c 12.25335,3.29007 11.96698,11.68169 12.96289,18.51954 l 12.5,205.55468 c 0.1753,2.00795 -0.17581,3.88521 -0.90429,5.50977 4.09619,-1.28823 6.90142,-5.55587 6.46093,-10.60156 l -12.5,-205.55665 c -0.99591,-6.83785 -0.70954,-15.2275 -12.96289,-18.51757 L 312.96289,91.296875 c -1.82363,-0.321978 -3.52737,-0.47128 -5.11914,-0.464844 z"
       id="path4164"
       stroke-opacity="1"
       fill="#b5b5b5"
       fill-rule="evenodd"
       stroke="none"
       stroke-linejoin="miter"
       fill-opacity="1"
       stroke-linecap="butt"
       stroke-width="1" />
    <path
       id="path4169"
       d="m 375.92578,110.27734 c 12.25335,3.29007 11.96698,11.68169 12.96289,18.51954 2.18404,-2.05828 3.13422,-2.71335 5.55664,-5.09376 -0.99591,-6.83785 -0.70954,-15.2275 -12.96289,-18.51757 -2.39781,2.28773 -2.9924,2.79876 -5.55664,5.09179 z"
       inkscape:connector-curvature="0"
       sodipodi:nodetypes="ccccc"
       stroke-opacity="1"
       fill="url(#linearGradient4177)"
       fill-rule="evenodd"
       stroke="none"
       stroke-linejoin="miter"
       fill-opacity="1"
       stroke-linecap="butt"
       stroke-width="1" />
    <path
       inkscape:connector-curvature="0"
       d="m 151.9043,54.332031 c -2.67378,0.112285 -4.27807,1.802415 -4.90039,4.837891 0.28199,0.05237 0.56972,0.11281 0.86914,0.191406 l 135.10547,37.234375 c 5.41154,1.54874 11.51034,0.467116 15.3789,-4.605469 -2.77183,0.801996 -5.76159,0.727663 -8.57031,-0.07617 L 154.68164,54.681641 c -1.0274,-0.269688 -1.9536,-0.384203 -2.77734,-0.34961 z m 170.88281,6.701172 c -5.39865,-0.126557 -8.73663,1.852669 -10.81445,5.035156 2.34672,-0.518874 5.2277,-0.496408 8.77148,0.208985 l 85.63867,19.679687 c 6.41139,1.511285 7.81812,4.448574 7.44727,11.703125 l -2.12891,230.849614 -0.47461,0.52148 1.96485,0.65039 5.31836,-5.85156 2.1289,-230.851564 c 0.37085,-7.254551 -1.03587,-10.189887 -7.44726,-11.701172 L 327.55273,61.595703 c -1.74327,-0.347001 -3.32697,-0.528775 -4.76562,-0.5625 z"
       id="path4200"
       stroke-opacity="1"
       fill="#b0b0b0"
       fill-rule="evenodd"
       stroke="none"
       stroke-linejoin="miter"
       fill-opacity="1"
       stroke-linecap="butt"
       stroke-width="1" />
    <path
       sodipodi:nodetypes="ccccc"
       inkscape:connector-curvature="0"
       d="m 403.12392,85.141164 c 12.4021,2.867396 10.71654,4.984484 10.70306,18.467586 2.18404,-2.05828 4.25114,-3.752349 6.67356,-6.132759 0.48467,-12.136762 1.00482,-14.993724 -11.89791,-17.244792 -2.39781,2.28773 -2.91447,2.616935 -5.47871,4.909965 z"
       id="path4205"
       stroke-opacity="1"
       fill="url(#linearGradient4207)"
       fill-rule="evenodd"
       stroke="none"
       stroke-linejoin="miter"
       fill-opacity="1"
       stroke-linecap="butt"
       stroke-width="1" />
  </g>
  <g
     id="g4405"
     transform="translate(-231.04541,25.507335)">
    <path
       inkscape:connector-curvature="0"
       d="m 360.88781,62.534482 c -39.2026,-4.424486 -71.02113,23.80294 -71.02113,63.005538 0,39.20259 31.81853,74.61223 71.02113,79.03671 39.2026,4.42449 71.02113,-23.80294 71.02113,-63.00553 0,-39.2026 -31.81854,-74.612235 -71.02113,-79.036718 z m 0,46.331808 c 13.63161,1.53849 24.68931,13.8442 24.68931,27.47581 1e-5,13.6316 -11.05771,23.45146 -24.68931,21.91297 -13.6316,-1.53848 -24.69947,-13.85549 -24.69947,-27.48709 1e-5,-13.63161 11.06787,-23.44018 24.69947,-21.90169 z"
       id="path1873"
       stroke-miterlimit="4"
       style="opacity:1;fill:url(#linearGradient2850);fill-opacity:1;stroke:url(#linearGradient2852);stroke-width:0.81199998;stroke-linecap:round;stroke-linejoin:round;stroke-miterlimit:4;stroke-dasharray:none;stroke-opacity:1" />
    <path
       inkscape:connector-curvature="0"
       d="m 361.39779,114.37306 c -10.71698,-1.20954 -19.4105,6.50281 -19.4105,17.2198 0,10.71698 8.69352,20.40072 19.4105,21.61026 10.71699,1.20954 19.41051,-6.51186 19.41051,-17.22884 0,-10.71699 -8.69352,-20.39168 -19.41051,-21.60122 z m 0,4.54962 c 8.20519,0.92605 14.86089,8.33294 14.86089,16.53812 0,8.20517 -6.65571,14.11875 -14.86089,13.1927 -8.20517,-0.92605 -14.86088,-8.34199 -14.86088,-16.54716 0,-8.20518 6.65571,-14.10971 14.86088,-13.18366 z"
       id="path2772"
       stroke-miterlimit="4"
       style="opacity:0.719;fill:url(#linearGradient2854);fill-opacity:1;stroke:none;stroke-width:1;stroke-linecap:round;stroke-linejoin:round;stroke-miterlimit:4;stroke-dasharray:none;stroke-opacity:1" />
    <path
       inkscape:connector-curvature="0"
       d="m 360.89136,109.20613 c -13.63161,-1.53849 -24.69947,8.27007 -24.69947,21.90168 0,13.63161 11.06787,25.94861 24.69947,27.4871 13.63161,1.53849 24.68931,-8.28137 24.68931,-21.91298 0,-13.63161 -11.0577,-25.93731 -24.68931,-27.4758 z m 0,14.9903 c 5.35864,0.60479 9.69901,5.43502 9.69901,10.79366 0,5.35864 -4.34037,9.2193 -9.69901,8.61451 -5.35864,-0.60477 -9.70916,-5.44631 -9.70916,-10.80495 0,-5.35864 4.35052,-9.208 9.70916,-8.60322 z"
       id="path2791"
       stroke-miterlimit="4"
       style="opacity:1;fill:#4b4b4b;fill-opacity:0.24299999;stroke:#000000;stroke-width:0.32499999;stroke-linecap:round;stroke-linejoin:round;stroke-miterlimit:4;stroke-dasharray:none;stroke-opacity:0.42300002" />
    <path
       transform="matrix(1,0.11286204,0,1,436.08276,9.0283972)"
       inkscape:connector-curvature="0"
       id="path2807"
       d="m -75.19495,204.03499 c 39.202596,0 71.0211297,-31.81853 71.0211264,-71.02112 -16.6903664,-0.37196 -27.5977394,0.3338 -46.3318144,0 3e-6,13.6316 -11.057708,24.69946 -24.689312,24.69946 -0.332201,16.47965 0.09392,27.7308 0,46.32166 z"
       sodipodi:nodetypes="ccccc"
       stroke-miterlimit="4"
       style="opacity:1;fill:url(#linearGradient2856);fill-opacity:1;stroke:none;stroke-width:2.5;stroke-linecap:round;stroke-linejoin:round;stroke-miterlimit:4;stroke-dasharray:none;stroke-opacity:1;filter:url(#filter4681)" />
    <path
       transform="matrix(1,0.11286204,0,1,436.08276,9.0283972)"
       inkscape:connector-curvature="0"
       sodipodi:nodetypes="ccccc"
       d="m -75.832817,62.053432 c -39.202593,0 -71.021133,31.818534 -71.021123,71.021128 16.69036,0.37195 27.59774,-0.3338 46.33181,0 0,-13.63161 11.057709,-24.69947 24.689313,-24.69947 0.332201,-16.479647 -0.09392,-27.730798 0,-46.321658 z"
       id="path2817"
       stroke-miterlimit="4"
       style="opacity:1;fill:url(#linearGradient2858);fill-opacity:1;stroke:none;stroke-width:2.5;stroke-linecap:round;stroke-linejoin:round;stroke-miterlimit:4;stroke-dasharray:none;stroke-opacity:1;filter:url(#filter4681)" />
    <path
       inkscape:connector-curvature="0"
       id="path2821"
       d="m 360.34568,62.913543 c -39.20259,-4.424484 -71.02112,23.802946 -71.02112,63.005547 0,39.2026 31.81853,74.61223 71.02112,79.03671 39.20259,4.42449 71.02112,-23.80294 71.02112,-63.00554 0,-39.2026 -31.81853,-74.612233 -71.02112,-79.036717 z m 0,46.331807 c 13.6316,1.5385 24.68931,13.84419 24.68931,27.47581 0,13.63161 -11.05771,23.45149 -24.68931,21.91299 -13.63161,-1.53849 -24.69948,-13.8555 -24.69948,-27.48711 0,-13.63162 11.06787,-23.44018 24.69948,-21.90169 z"
       stroke-miterlimit="4"
       style="opacity:1;fill:url(#linearGradient2860);fill-opacity:1;stroke:none;stroke-width:2.5;stroke-linecap:round;stroke-linejoin:round;stroke-miterlimit:4;stroke-dasharray:none;stroke-opacity:1" />
  </g>
  <g
     id="layer1"
     inkscape:label="1. réteg"
     transform="matrix(0.631824,0,0,0.631824,0.36998911,1.4340788)">
    <path
       id="text3905"
       d="m 14.672896,-7.9438771 -5.2910158,0 -0.834961,2.390625 -3.401367,0 4.8603508,-13.1220709 4.03418,0 4.860352,13.1220709 -3.401368,0 -0.826171,-2.390625 m -4.447266,-2.4345709 3.594727,0 -1.792969,-5.220703 -1.801758,5.220703 m 10.40625,-8.296875 5.616211,0 c 1.669913,1.3e-5 2.950185,0.372083 3.84082,1.116211 0.896473,0.738293 1.344714,1.792979 1.344727,3.164063 -1.3e-5,1.37696 -0.448254,2.437506 -1.344727,3.18164 -0.890635,0.738287 -2.170907,1.107427 -3.84082,1.107422 l -2.232422,0 0,4.5527349 -3.383789,0 0,-13.1220709 m 3.383789,2.452149 0,3.665039 1.87207,0 c 0.656243,7e-6 1.163078,-0.158196 1.520508,-0.47461 0.357413,-0.322257 0.536124,-0.776358 0.536133,-1.362304 -9e-6,-0.585928 -0.17872,-1.0371 -0.536133,-1.353516 -0.35743,-0.316396 -0.864265,-0.474599 -1.520508,-0.474609 l -1.87207,0"
       inkscape:connector-curvature="0"
       stroke-opacity="1"
       font-family="'Bitstream Vera Sans'"
       fill="#000000"
       stroke="none"
       font-style="normal"
       stroke-linejoin="miter"
       fill-opacity="1"
       font-weight="bold"
       stroke-linecap="butt"
       stroke-width="1"
       font-size="18" />
  </g>
  <path
     stroke-miterlimit="4"
     inkscape:connector-curvature="0"
     d="m 124.7455,146.88558 c -3.01888,0.1125 -5.46178,1.27636 -6.46875,3.40625 -1.79017,3.78647 1.63673,9.15408 7.65625,12 3.0728,1.45276 6.22096,1.97529 8.8125,1.625 l 147.96875,87.9375 4.875,-8.21875 -147.53125,-87.6875 c -1.07956,-2.77337 -3.83248,-5.58197 -7.625,-7.375 -2.63354,-1.24509 -5.33948,-1.775 -7.6875,-1.6875 z"
     id="rect4858"
     transform="matrix(0.941498,0,0,0.941498,-42.412797,-0.03240558)"
     stroke-dasharray="none"
     stroke-opacity="1"
     fill="#000000"
     filter="url(#filter4952)"
     fill-rule="nonzero"
     stroke="none"
     stroke-linejoin="round"
     fill-opacity="0.286"
     stroke-linecap="round"
     stroke-width="4.2" />
  <g
     id="g4426"
     transform="translate(18.191656,3.5863085)">
    <g
       transform="matrix(0.941498,0,0,0.941498,-74.78061,6.1469048)"
       id="g4852">
      <rect
         id="rect4830"
         width="175.5"
         height="9.556"
         x="187.71"
         y="51.27"
         transform="matrix(0.8596462,0.5108899,-0.5108899,0.8596462,0,0)"
         stroke-miterlimit="4"
         opacity="1"
         stroke-dasharray="none"
         stroke-opacity="1"
         fill="url(#linearGradient4961)"
         fill-rule="nonzero"
         stroke="none"
         stroke-linejoin="round"
         fill-opacity="1"
         stroke-linecap="round"
         stroke-width="4.2" />
      <ellipse
         id="path4840"
         transform="matrix(0.9040535,0.4274193,-0.4274193,0.9040535,238.63575,127.85629)"
         cx="-94.55"
         cy="59.728"
         rx="12.06"
         ry="7.588"
         stroke-miterlimit="4"
         opacity="1"
         stroke-dasharray="none"
         stroke-opacity="1"
         fill="url(#radialGradient3326)"
         fill-rule="nonzero"
         stroke="none"
         stroke-linejoin="round"
         fill-opacity="1"
         stroke-linecap="round"
         stroke-width="4.2" />
    </g>
    <g
       transform="translate(129.16394,-26.716889)"
       id="g4497"
       opacity="0.855">
      <g
         id="g4458"
         transform="matrix(-1,0,0,1,-275.45252,-14.900945)"
         fill="#ffcdcd"
         fill-opacity="0.071">
        <path
           d="m 152.91828,89.494168 c -17.55687,27.608242 28.04335,31.209602 37.35409,8.94942 C 201.81448,70.848617 189.36776,42.544292 200.7782,-1.5564195 174.96969,15.630114 180.86149,60.534508 173.92996,87.159528 175.55254,39.484305 159.45119,34.373815 152.91828,-8.1712055 c -16.30373,49.6309685 12.9694,77.2709515 0,97.6653735 z"
           id="path4420"
           sodipodi:nodetypes="cscccs"
           inkscape:connector-curvature="0"
           transform="matrix(0.941498,0,0,0.941498,-354.83989,71.442869)"
           stroke-opacity="1"
           fill="#ffcdcd"
           filter="url(#filter5407)"
           fill-rule="evenodd"
           stroke="none"
           stroke-linejoin="miter"
           fill-opacity="0.071"
           stroke-linecap="butt"
           stroke-width="1" />
        <path
           transform="matrix(0.941498,0,0,0.941498,-354.83989,71.442869)"
           inkscape:connector-curvature="0"
           id="path4430"
           d="m 152.37891,-5.8046875 c -4.38505,14.1130102 -5.45598,29.2552485 -3.16826,43.8725765 1.50945,10.929069 5.04053,21.457996 6.80519,32.341141 1.04739,6.529929 0.75709,13.702093 -3.03381,19.360266 -2.68139,4.299569 -4.97028,9.631599 -3.23789,14.707264 1.72774,4.84982 6.99265,7.31906 11.80859,7.9961 9.10068,1.24232 19.05158,-1.74266 25.20769,-8.73799 3.62922,-4.215092 5.05257,-9.785879 6.44541,-15.023787 3.40263,-14.660957 1.93843,-29.822035 2.07408,-44.730021 -0.0587,-15.153458 1.35854,-30.376683 5.17321,-45.0667995 -8.49936,5.7507381 -13.62882,15.1908755 -16.52199,24.7926485 -5.75966,19.045203 -5.09549,39.229658 -8.72409,58.689494 -0.42203,1.758289 -0.59638,3.628483 -1.34766,5.273717 -0.22653,-2.958611 0.0955,-5.982699 -0.0254,-8.96875 -0.0703,-12.927655 -2.01331,-25.852096 -6.44383,-38.011671 -4.06396,-11.283116 -8.92108,-22.324942 -11.71122,-34.0248729 -1.15471,-4.6090711 -2.08493,-9.27364 -2.82541,-13.9673625 -0.15821,0.499349 -0.31641,0.9986979 -0.47461,1.4980469 z"
           stroke-opacity="1"
           fill="#ffcdcd"
           filter="url(#filter5407)"
           fill-rule="evenodd"
           stroke="none"
           stroke-linejoin="miter"
           fill-opacity="0.071"
           stroke-linecap="butt"
           stroke-width="1" />
        <path
           transform="matrix(0.941498,0,0,0.941498,-354.83989,71.442869)"
           inkscape:connector-curvature="0"
           id="path4434"
           d="m 152.57031,-5.7460938 c -4.79738,15.3220111 -5.52193,31.8398188 -2.55319,47.6041818 1.8544,10.670747 5.41385,21.015327 6.59229,31.804218 0.54042,5.840147 -0.43671,12.046068 -3.87203,16.894701 -2.55091,4.219791 -4.60964,9.627543 -2.5524,14.477213 2.07328,4.63467 7.40857,6.85382 12.24666,7.34273 9.20579,0.98085 19.1388,-2.32006 24.94728,-9.73628 3.47386,-4.767704 4.8361,-10.661079 6.13441,-16.32812 2.97691,-15.34377 1.21379,-31.057267 1.59476,-46.575685 0.19588,-13.576776 1.65389,-27.182059 5.02277,-40.35209938 -8.8404,6.21199158 -13.88556,16.36069238 -16.63394,26.55403938 -5.45832,19.660142 -4.44846,40.388718 -8.90315,60.240543 -0.17105,0.605627 -0.63387,2.092515 -0.87515,1.995092 -0.3335,-4.488504 0.1233,-8.998635 -0.17206,-13.494264 -0.41653,-12.982553 -2.99568,-25.845463 -7.81374,-37.909586 -4.32276,-11.375852 -8.9031,-22.735357 -11.33117,-34.7026099 -0.61233,-2.82188666 -1.14958,-5.6587674 -1.61063,-8.5093863 -0.0736,0.2317708 -0.14714,0.4635416 -0.22071,0.6953124 z"
           stroke-opacity="1"
           fill="#ffcdcd"
           filter="url(#filter5407)"
           fill-rule="evenodd"
           stroke="none"
           stroke-linejoin="miter"
           fill-opacity="0.071"
           stroke-linecap="butt"
           stroke-width="1" />
        <path
           transform="matrix(0.941498,0,0,0.941498,-354.83989,71.442869)"
           inkscape:connector-curvature="0"
           id="path4438"
           d="m 152.32422,-4.2519531 c -4.78682,16.1207061 -4.97755,33.4541321 -1.38846,49.8328691 2.03764,10.042342 5.35413,19.892305 5.99749,30.172163 0.19989,5.430115 -1.15025,10.983666 -4.33411,15.434597 -2.44527,4.169043 -4.28074,9.544384 -2.03078,14.187324 2.51338,4.78858 8.25144,6.68303 13.34497,6.91956 8.91638,0.5303 18.47484,-3.02403 23.76604,-10.43906 3.53005,-5.371701 4.86997,-11.781013 6.06662,-18.006029 2.54865,-15.960288 0.54685,-32.187579 1.26645,-48.263095 0.40242,-12.024316 1.8537,-24.045241 4.7942,-35.7191885 -8.65387,6.3083538 -13.55955,16.4282285 -16.22213,26.5134675 -5.38456,19.674093 -4.32446,40.411672 -8.91536,60.240436 -0.29364,0.565222 -0.29421,1.779905 -1.1379,1.751956 -0.33635,-5.69981 0.15664,-11.418789 -0.35074,-17.115161 -0.7272,-12.5842 -3.69329,-25.011119 -8.49143,-36.656353 -4.54649,-11.788146 -9.03553,-23.692273 -11.23615,-36.1831719 -0.26158,-1.3306833 -0.49963,-2.6674661 -0.72051,-4.0062517 -0.13607,0.4453125 -0.27213,0.890625 -0.4082,1.3359375 z"
           stroke-opacity="1"
           fill="#ffcdcd"
           filter="url(#filter5407)"
           fill-rule="evenodd"
           stroke="none"
           stroke-linejoin="miter"
           fill-opacity="0.071"
           stroke-linecap="butt"
           stroke-width="1" />
        <path
           transform="matrix(0.941498,0,0,0.941498,-354.83989,71.442869)"
           inkscape:connector-curvature="0"
           id="path4442"
           d="M 152.51562,-4.1972656 C 147.4384,12.823959 147.60331,31.190825 151.74611,48.3957 c 2.09052,9.519104 5.16643,18.958017 5.39935,28.779631 -0.0148,5.21682 -1.66122,10.389294 -4.67511,14.64581 -2.36447,4.161857 -3.99575,9.658799 -1.37666,14.067579 2.9818,4.73492 8.99691,6.24343 14.26599,6.25397 8.78453,0.0904 18.0464,-3.76308 22.7868,-11.41222 3.48972,-6.057449 4.81055,-13.083327 5.82618,-19.902345 1.99785,-16.306673 -0.0678,-32.750495 1.00805,-49.103842 0.55254,-10.559274 1.95514,-21.089579 4.49781,-31.35904862 -8.45157,6.40045052 -13.20678,16.42663262 -15.80301,26.45713162 -5.30529,19.635528 -4.2,40.316229 -8.8988,60.059563 -0.19226,0.723363 -0.44363,1.840984 -1.43491,1.704009 -0.33248,-6.819909 0.17896,-13.667124 -0.59647,-20.468535 -1.0147,-12.153715 -4.27723,-24.063408 -8.95996,-35.310796 -4.72666,-12.172591 -9.09391,-24.5818092 -11.10764,-37.5312164 -0.054,0.1757813 -0.10807,0.3515625 -0.16211,0.5273438 z"
           stroke-opacity="1"
           fill="#ffcdcd"
           filter="url(#filter5407)"
           fill-rule="evenodd"
           stroke="none"
           stroke-linejoin="miter"
           fill-opacity="0.071"
           stroke-linecap="butt"
           stroke-width="1" />
        <path
           transform="matrix(0.941498,0,0,0.941498,-354.83989,71.442869)"
           inkscape:connector-curvature="0"
           id="path4446"
           d="m 152.24805,-2.546875 c -4.7999,17.219488 -4.22565,35.634892 0.14154,52.876316 2.11616,9.289531 5.09049,18.599646 4.90867,28.233901 -0.2337,5.002347 -2.12906,9.80003 -4.94783,13.897548 -2.16337,3.982225 -3.54467,9.14863 -1.08285,13.33013 2.72776,4.30773 8.07527,5.9214 12.90603,6.12138 8.75862,0.41929 18.06113,-3.03019 23.21375,-10.39649 4.15909,-6.529316 5.48518,-14.349803 6.52459,-21.91124 1.83349,-16.976123 -0.37232,-34.072955 1.06413,-51.071427 0.63666,-9.311472 1.96755,-18.5839488 4.17236,-27.65628988 -8.52174,6.70075898 -13.12557,17.05651988 -15.6307,27.35322988 -4.96819,19.430789 -3.90616,39.844347 -8.71891,59.310833 -0.0748,0.748161 -1.14374,1.680706 -1.65625,1.052734 -0.30366,-7.842691 0.18871,-15.726408 -0.90633,-23.5269 -1.29198,-11.679604 -4.78229,-23.048475 -9.28216,-33.868962 -4.37894,-11.370736 -8.36362,-22.9842515 -10.333,-35.0435911 -0.12435,0.4329427 -0.24869,0.8658854 -0.37304,1.2988281 z"
           stroke-opacity="1"
           fill="#ffcdcd"
           filter="url(#filter5407)"
           fill-rule="evenodd"
           stroke="none"
           stroke-linejoin="miter"
           fill-opacity="0.071"
           stroke-linecap="butt"
           stroke-width="1" />
        <path
           transform="matrix(0.941498,0,0,0.941498,-354.83989,71.442869)"
           inkscape:connector-curvature="0"
           id="path4450"
           d="m 152.43945,-2.4921875 c -4.93136,17.6315815 -4.13521,36.5347975 0.4628,54.1406875 2.13337,9.208705 5.06079,18.502933 4.51004,28.069893 -0.4206,4.848241 -2.52095,9.358497 -5.16606,13.374279 -2.11566,4.036412 -3.25102,9.457088 -0.27553,13.358498 3.52291,4.46989 9.69237,5.51715 15.07142,5.25823 8.03664,-0.36468 16.31994,-4.0967 20.6587,-11.08698 4.09648,-7.03124 5.33145,-15.230234 6.22436,-23.22601 1.4764,-17.177579 -0.671,-34.452975 1.0617,-51.62151 0.67776,-8.203584 1.9223,-16.3629883 3.82953,-24.3706031 -8.2464,6.7236202 -12.71661,16.9499881 -15.15334,27.0691861 -4.96503,19.527126 -3.81704,40.068779 -8.82323,59.589017 -0.22838,0.762673 -1.77069,1.459922 -1.90312,0.33722 -0.25497,-8.701654 0.1698,-17.461751 -1.25376,-26.089145 -1.54574,-11.31587 -5.23009,-22.200493 -9.55483,-32.726326 -4.03106,-10.568476 -7.64209,-21.3655025 -9.55586,-32.5393271 -0.0443,0.1542969 -0.0885,0.3085937 -0.13282,0.4628906 z"
           stroke-opacity="1"
           fill="#ffcdcd"
           filter="url(#filter5407)"
           fill-rule="evenodd"
           stroke="none"
           stroke-linejoin="miter"
           fill-opacity="0.071"
           stroke-linecap="butt"
           stroke-width="1" />
        <path
           transform="matrix(0.941498,0,0,0.941498,-354.83989,71.442869)"
           inkscape:connector-curvature="0"
           id="path4454"
           d="m 152.1875,-0.78710938 c -4.55756,17.60333638 -3.44201,36.30789438 1.2363,53.75015338 2.13247,9.12146 4.99748,18.408653 4.05777,27.887014 -0.60752,4.684913 -2.8683,8.923953 -5.32636,12.874925 -2.0301,4.044311 -2.86978,9.578537 0.44202,13.155597 3.96282,4.33491 10.37683,5.02131 15.93597,4.52176 8.29026,-0.75865 16.75391,-5.35274 20.24139,-13.237591 3.54382,-7.566788 4.57172,-15.95543 5.19946,-24.204281 0.96522,-16.918269 -0.91791,-33.917601 1.05008,-50.793782 0.70025,-7.138365 1.82517,-14.2381844 3.46025,-21.2233266 -8.2076,6.9563825 -12.49743,17.3237676 -14.86558,27.5497156 -4.72007,19.314936 -3.61945,39.568185 -8.66568,58.817472 -0.36559,0.858852 -2.08732,1.360382 -2.21484,0.09375 -0.22099,-9.60367 0.13783,-19.298641 -1.66888,-28.772824 -1.79625,-11.018892 -5.68202,-21.527494 -9.83014,-31.849872 -3.6531,-9.70342 -6.87704,-19.6167471 -8.70801,-29.8421479 -0.11458,0.4244792 -0.22917,0.8489584 -0.34375,1.27343752 z"
           stroke-opacity="1"
           fill="#ffcdcd"
           filter="url(#filter5407)"
           fill-rule="evenodd"
           stroke="none"
           stroke-linejoin="miter"
           fill-opacity="0.071"
           stroke-linecap="butt"
           stroke-width="1" />
      </g>
      <path
         inkscape:connector-curvature="0"
         d="m -75.171234,33.925656 c -12.87094,18.521926 -14.97242,26.775679 -16.00547,36.36536 -0.75669,-1.186038 -1.51782,-2.339212 -2.2949,-3.41293 0.76824,2.174265 1.41765,4.287473 2.00068,6.32569 -0.0958,1.048474 -0.21944,2.177412 -0.32364,3.295243 -2.60046,-7.396191 -5.05625,-15.852954 -6.79643,-27.185755 -0.24995,0.760878 -0.508,1.51552 -0.73555,2.265479 -0.12684,-0.755921 -0.26234,-1.48308 -0.38248,-2.265479 -11.880636,36.166421 1.95351,59.905906 3.14813,77.702996 -1.88482,5.22161 -3.492876,10.12149 -3.736566,15.18165 -6.93215,11.69065 -1.52146,18.60153 7.090656,20.56585 0.029,0.0399 0.0591,0.0777 0.0883,0.1177 0.0391,-0.0194 0.0787,-0.0393 0.11769,-0.0589 1.86189,0.40501 3.88376,0.58967 5.9432,0.52959 2.00583,0.0272 4.06144,-0.16965 6.11974,-0.58843 0.0305,0.0282 0.0556,0.0619 0.0883,0.0883 0.0528,-0.0463 0.0968,-0.0992 0.14711,-0.14711 0.20389,-0.0432 0.41445,-0.0995 0.61786,-0.1471 0.11815,0.0988 0.23271,0.19677 0.35306,0.29421 0.19785,-0.17348 0.36725,-0.35667 0.55901,-0.52959 6.6975,-1.79207 12.94915,-5.97739 15.74067,-12.65138 10.86688,-25.98061 -0.85717,-52.629065 9.88573,-94.149794 -0.45222,0.301148 -0.89216,0.622552 -1.32398,0.941498 0.0795,-0.315639 0.15326,-0.624127 0.23538,-0.941498 -9.87134,6.573567 -14.82266,17.461628 -17.65309,29.745453 -1.672,2.359526 -3.27706,4.829706 -4.82518,7.384876 -2.21989,-14.484916 -2.63614,-32.803807 3.05987,-58.725939 -0.54955,0.76801 -1.07181,1.529306 -1.58878,2.294901 0.16072,-0.767705 0.29905,-1.513476 0.47075,-2.294901 z"
         id="path4877"
         stroke-miterlimit="4"
         opacity="0.5"
         stroke-dasharray="none"
         stroke-opacity="1"
         fill="url(#radialGradient3322)"
         filter="url(#filter5407)"
         fill-rule="evenodd"
         stroke="none"
         stroke-linejoin="miter"
         fill-opacity="1"
         stroke-linecap="butt"
         stroke-width="4.2" />
      <path
         d="m -75.617804,32.48205 c -16.50357,23.74947 -15.33699,30.570054 -16.8587,45.044795 -2.91713,-7.968421 -5.74472,-17.059756 -7.679086,-29.657188 -11.88064,36.166421 1.953506,59.905913 3.148126,77.703003 -1.88482,5.2216 -3.492876,10.12148 -3.736566,15.18164 -6.93214,11.69065 -1.52146,18.60153 7.090656,20.56585 0.029,0.0399 0.059,0.0777 0.0882,0.11769 0.0392,-0.0194 0.0787,-0.0393 0.11768,-0.0589 3.61777,0.78694 7.77139,0.68667 11.82757,-0.2648 0.11248,0.0939 0.20916,0.20152 0.32364,0.29422 0.18488,-0.16211 0.35003,-0.33856 0.5296,-0.50018 6.71049,-1.78684 13.00319,-5.99535 15.79951,-12.6808 10.86687,-25.9806 -0.85719,-52.629055 9.88573,-94.14978 -9.87134,6.573567 -14.82265,17.461628 -17.65309,29.745453 -1.98509,2.801362 -3.90601,5.754672 -5.70783,8.826542 -2.41532,-14.707421 -3.06283,-33.374839 2.82449,-60.167605 z"
         id="path4706"
         sodipodi:nodetypes="ccccccsccccscccc"
         inkscape:connector-curvature="0"
         stroke-miterlimit="4"
         opacity="0.321"
         stroke-dasharray="none"
         stroke-opacity="1"
         fill="none"
         filter="url(#filter5407)"
         fill-rule="evenodd"
         stroke="url(#radialGradient3328)"
         stroke-linejoin="miter"
         fill-opacity="1"
         stroke-linecap="butt"
         stroke-width="3.954" />
      <path
         d="m 158.36575,10.505839 c 19.06847,26.347771 33.246,86.214569 1.55642,101.945541 C 135.6692,79.266257 178.61386,67.811921 158.36575,10.505839 Z"
         id="path4654"
         sodipodi:nodetypes="ccc"
         inkscape:connector-curvature="0"
         transform="matrix(0.941498,0,0,0.941498,-243.90655,55.553214)"
         stroke-opacity="1"
         fill="url(#radialGradient3330)"
         filter="url(#filter5407)"
         fill-rule="evenodd"
         stroke="none"
         stroke-linejoin="miter"
         fill-opacity="1"
         stroke-linecap="butt"
         stroke-width="1" />
      <path
         sodipodi:nodetypes="ccc"
         id="path4682"
         d="M 196.69009,13.275023 C 172.33548,34.831097 145.44553,90.166138 172.9426,112.42831 203.84782,85.329838 164.43398,64.787312 196.69009,13.275023 Z"
         inkscape:connector-curvature="0"
         transform="matrix(0.941498,0,0,0.941498,-242.69215,55.969441)"
         stroke-opacity="1"
         fill="url(#radialGradient3334)"
         filter="url(#filter5407)"
         fill-rule="evenodd"
         stroke="none"
         stroke-linejoin="miter"
         fill-opacity="1"
         stroke-linecap="butt"
         stroke-width="1" />
      <g
         id="g4459"
         transform="translate(-56.483123,-1.9538188)">
        <path
           transform="matrix(0.941498,0,0,0.941498,-186.77928,58.090197)"
           inkscape:connector-curvature="0"
           sodipodi:nodetypes="cscccs"
           id="path4664"
           d="m 152.91828,89.494168 c -17.55687,27.608242 28.04335,31.209602 37.35409,8.94942 C 201.81448,70.848617 189.36776,42.544292 200.7782,-1.5564195 174.96969,15.630114 180.86149,60.534508 173.92996,87.159528 175.55254,39.484305 159.45119,34.373815 152.91828,-8.1712055 c -16.30373,49.6309685 12.9694,77.2709515 0,97.6653735 z"
           stroke-opacity="1"
           fill="url(#linearGradient4969)"
           filter="url(#filter5407)"
           fill-rule="evenodd"
           stroke="none"
           stroke-linejoin="miter"
           fill-opacity="1"
           stroke-linecap="butt"
           stroke-width="1" />
        <path
           transform="matrix(0.941498,0,0,0.941498,-186.77928,58.090197)"
           inkscape:connector-curvature="0"
           id="path4428"
           d="m 152.29297,-3.3730469 c -6.35064,20.8077279 -3.50435,42.7333139 2.18359,63.2539059 2.67667,10.362029 4.95379,22.726823 -1.98633,31.896485 -3.6816,5.587043 -4.22277,14.407796 2.46875,17.853516 13.17666,6.76618 32.41146,-0.4003 36.0293,-15.339844 7.21562,-22.574052 1.78748,-46.616596 4.50196,-69.88462 0.72412,-8.097019 2.04826,-16.1419692 3.97851,-24.0392085 -15.05154,11.8186575 -17.73251,32.3224645 -19.83501,50.0630725 -1.64099,12.505818 -1.62402,25.50431 -5.32573,37.619713 -2.01687,1.776577 -0.76655,-5.778863 -1.06854,-8.129256 0.42929,-18.067754 -4.33213,-35.742938 -11.40653,-52.266172 -4.08753,-10.452126 -7.2966,-21.2654842 -9.15521,-32.342045 l -0.22474,0.7677824 -0.16002,0.5466707 z"
           stroke-opacity="1"
           fill="url(#linearGradient4969)"
           filter="url(#filter5407)"
           fill-rule="evenodd"
           stroke="none"
           stroke-linejoin="miter"
           fill-opacity="1"
           stroke-linecap="butt"
           stroke-width="1" />
        <path
           transform="matrix(0.941498,0,0,0.941498,-186.77928,58.090197)"
           inkscape:connector-curvature="0"
           id="path4435"
           d="m 152.49219,-1.1972656 c -6.29989,22.1323446 -1.66392,45.2221126 4.17773,66.9355466 2.17662,9.453105 1.86496,20.16271 -4.41992,28.060547 -3.3183,5.696171 -1.73591,14.620172 5.5332,16.193362 13.35593,4.94697 30.66226,-3.35444 33.07813,-18.048831 6.74115,-24.776203 0.2708,-50.912392 4.81653,-76.083061 0.47121,-4.263275 1.81565,-9.6488996 2.28308,-13.1747511 -14.37709,13.3013911 -15.86461,34.3941371 -18.07813,52.5351561 -1.40615,11.16797 -1.1575,23.180729 -5.3164,33.640625 -3.10725,1.006107 -2.11868,-4.036558 -2.15036,-5.703434 1.09294,-20.411822 -4.81744,-40.491156 -12.82621,-59.16766 -3.00037,-8.189884 -5.44844,-16.6653275 -7.09765,-25.1874996 z"
           stroke-opacity="1"
           fill="url(#linearGradient4969)"
           filter="url(#filter5407)"
           fill-rule="evenodd"
           stroke="none"
           stroke-linejoin="miter"
           fill-opacity="1"
           stroke-linecap="butt"
           stroke-width="1" />
        <path
           transform="matrix(0.941498,0,0,0.941498,-186.77928,58.090197)"
           inkscape:connector-curvature="0"
           id="path4441"
           d="m 152.2207,3.1269531 c -5.07663,22.0322219 0.68254,44.5203149 5.9336,66.0937499 1.5791,9.002235 -0.0679,18.715189 -5.7461,26.025391 -2.86423,5.657996 0.16174,13.671886 6.88282,14.410156 13.16299,4.14665 29.46457,-4.94556 31.10351,-19.080078 6.42767,-26.16785 -0.51777,-53.60184 5.30469,-79.978516 0.071,-1.6773213 2.30058,-7.7517116 -0.27734,-4.128906 -12.63448,15.099287 -12.97336,36.032954 -15.34984,54.647947 -0.86289,9.555856 -1.25953,19.404132 -4.90407,28.410647 -3.52912,1.504254 -4.20419,-3.274352 -3.57617,-5.65625 1.49406,-21.945523 -5.85481,-43.361656 -14.11693,-63.464438 -2.02011,-5.924222 -3.73918,-11.9551715 -5.07057,-18.0726716 l -0.18045,0.7793833 -0.003,0.013585 z"
           stroke-opacity="1"
           fill="url(#linearGradient4969)"
           filter="url(#filter5407)"
           fill-rule="evenodd"
           stroke="none"
           stroke-linejoin="miter"
           fill-opacity="1"
           stroke-linecap="butt"
           stroke-width="1" />
        <path
           transform="matrix(0.941498,0,0,0.941498,-186.77928,58.090197)"
           inkscape:connector-curvature="0"
           id="path4447"
           d="m 152.36328,6.3691406 c -4.17508,22.0147984 2.40342,43.8932044 6.94531,65.3242184 1.09735,8.791565 -1.47145,17.783217 -6.61523,24.908203 -2.22425,5.616658 1.85517,12.454328 8.04297,12.630858 12.98861,3.28405 28.06005,-6.23755 29.16992,-20.068358 6.00112,-26.7326 -1.03369,-54.8972 5.55078,-81.4746089 -12.61989,16.0480929 -12.43953,37.6871939 -14.89648,57.0898439 -0.87203,8.528677 -1.19413,17.880404 -5.10743,25.496094 -3.85516,1.767377 -5.74689,-3.579342 -4.65624,-6.50586 1.70046,-23.275457 -7.09121,-45.406874 -15.31334,-66.869736 -1.14041,-3.595523 -2.16852,-7.2280231 -3.04995,-10.8958888 l -0.0703,0.3652344 z"
           stroke-opacity="1"
           fill="url(#linearGradient4969)"
           filter="url(#filter5407)"
           fill-rule="evenodd"
           stroke="none"
           stroke-linejoin="miter"
           fill-opacity="1"
           stroke-linecap="butt"
           stroke-width="1" />
        <path
           transform="matrix(0.941498,0,0,0.941498,-186.77928,58.090197)"
           inkscape:connector-curvature="0"
           id="path4453"
           d="m 152.49805,10.587891 c -2.86754,21.210138 3.94649,41.99567 7.77148,62.707031 0.81582,8.789795 -2.53508,17.342779 -7.15039,24.59375 -1.60943,5.867838 3.91978,11.224038 9.56836,10.929688 12.68076,2.14091 26.13052,-7.91729 26.70898,-21.078126 5.21444,-25.063298 -0.60461,-51.198332 4.42774,-76.412109 -11.17957,17.52811 -10.33618,39.220245 -12.99897,59.149329 -0.77734,6.941992 -1.34164,14.564012 -5.07134,20.538171 -4.3145,2.013049 -7.16511,-3.907672 -5.74805,-7.404297 1.8722,-24.391062 -8.38729,-47.423601 -16.34618,-69.961612 -0.31547,-0.160658 -1.05155,-5.2502444 -1.16163,-3.061825 z"
           stroke-opacity="1"
           fill="url(#linearGradient4969)"
           filter="url(#filter5407)"
           fill-rule="evenodd"
           stroke="none"
           stroke-linejoin="miter"
           fill-opacity="1"
           stroke-linecap="butt"
           stroke-width="1" />
      </g>
      <g
         id="g4491"
         transform="translate(-62.522202,0.35523979)">
        <path
           transform="matrix(0.941498,0,0,0.941498,-183.87103,56.974173)"
           inkscape:connector-curvature="0"
           sodipodi:nodetypes="cccc"
           id="path4686"
           d="m 160.70039,98.832698 c -2.67683,17.286202 16.51504,16.905072 21.40077,1.167312 11.40134,-34.507638 -19.42883,-50.260762 -3.11284,-124.513628 -30.7261,42.939891 -12.8099,82.276646 -18.28793,123.346316 z"
           stroke-opacity="1"
           fill="url(#radialGradient3336)"
           filter="url(#filter5407)"
           fill-rule="evenodd"
           stroke="none"
           stroke-linejoin="miter"
           fill-opacity="1"
           stroke-linecap="butt"
           stroke-width="1" />
        <path
           transform="matrix(0.941498,0,0,0.941498,-183.87103,56.974173)"
           inkscape:connector-curvature="0"
           id="path4473"
           d="m 176.92383,-20.070312 c -13.67096,20.04561927 -16.97255,45.050451 -15.52286,68.72727 0.85953,17.710749 2.26598,35.547097 -0.15488,53.196562 -0.8409,5.73766 4.93864,11.06649 10.50977,8.65429 10.03596,-3.71921 11.64862,-16.320728 12.13672,-25.60156 -0.29543,-18.097814 -8.45515,-35.109148 -9.77332,-53.205748 -1.91364,-17.513437 -0.2435,-35.2420822 3.25769,-52.450502 l -0.44376,0.66564 -0.009,0.01405 z"
           stroke-opacity="1"
           fill="url(#radialGradient3336)"
           filter="url(#filter5407)"
           fill-rule="evenodd"
           stroke="none"
           stroke-linejoin="miter"
           fill-opacity="1"
           stroke-linecap="butt"
           stroke-width="1" />
        <path
           transform="matrix(0.941498,0,0,0.941498,-183.87103,56.974173)"
           inkscape:connector-curvature="0"
           id="path4479"
           d="m 175.74414,-16.792969 c -13.76157,22.0658037 -15.18391,49.19537 -13.08267,74.453517 0.99506,15.398917 1.07601,30.907133 -0.63608,46.232032 0.48583,5.73793 7.83507,8.28007 11.93164,4.65625 8.47317,-5.92619 9.08219,-17.626046 8.99219,-26.978518 -1.58891,-19.118094 -9.87586,-37.086974 -10.18164,-56.402343 -0.88862,-13.980061 0.59825,-28.6421085 2.97656,-41.960938 z"
           stroke-opacity="1"
           fill="url(#radialGradient3336)"
           filter="url(#filter5407)"
           fill-rule="evenodd"
           stroke="none"
           stroke-linejoin="miter"
           fill-opacity="1"
           stroke-linecap="butt"
           stroke-width="1" />
        <path
           transform="matrix(0.941498,0,0,0.941498,-183.87103,56.974173)"
           inkscape:connector-curvature="0"
           id="path4485"
           d="m 174.01367,-12.222656 c -12.62744,23.303011 -12.31311,50.755926 -10.18899,76.42616 0.79021,13.511466 0.14375,27.105034 -0.85202,40.540636 1.50117,5.80214 9.50928,5.8926 12.62109,1.40625 7.32005,-7.943356 7.06005,-19.812303 5.95117,-29.824218 -3.03228,-19.114434 -10.43779,-37.583863 -9.81334,-57.219852 -0.17137,-10.6231386 0.82458,-21.2391 2.49694,-31.721554 l -0.21485,0.392578 z"
           stroke-opacity="1"
           fill="url(#radialGradient3336)"
           filter="url(#filter5407)"
           fill-rule="evenodd"
           stroke="none"
           stroke-linejoin="miter"
           fill-opacity="1"
           stroke-linecap="butt"
           stroke-width="1" />
      </g>
    </g>
  </g>
</svg>
