<?xml version="1.0" encoding="UTF-8" standalone="no"?>
<!-- Created with Inkscape (http://www.inkscape.org/) -->

<svg
   xmlns:dc="http://purl.org/dc/elements/1.1/"
   xmlns:cc="http://creativecommons.org/ns#"
   xmlns:rdf="http://www.w3.org/1999/02/22-rdf-syntax-ns#"
   xmlns:svg="http://www.w3.org/2000/svg"
   xmlns="http://www.w3.org/2000/svg"
   xmlns:xlink="http://www.w3.org/1999/xlink"
   xmlns:sodipodi="http://sodipodi.sourceforge.net/DTD/sodipodi-0.dtd"
   xmlns:inkscape="http://www.inkscape.org/namespaces/inkscape"
   id="svg2"
   inkscape:version="0.91 r13725"
   width="256"
   height="256"
   sodipodi:docname="folder-system-settings-backup.svg"
   inkscape:export-filename="DrawerPal.deviantart.com/tool4.png"
   inkscape:export-xdpi="78.75"
   inkscape:export-ydpi="78.75"
   version="1.1">
  <metadata
     id="metadata8">
    <rdf:RDF>
      <cc:Work>
        <dc:format>image/svg+xml</dc:format>
        <dc:type
           rdf:resource="http://purl.org/dc/dcmitype/StillImage" />
        <dc:title />
      </cc:Work>
    </rdf:RDF>
  </metadata>
  <defs
     id="defs6">
    <linearGradient
       id="linearGradient3986">
      <stop
         id="stop4366"
         stop-color="#4d4d4d"
         stop-opacity="1" />
      <stop
         id="stop4368"
         offset="1"
         stop-color="#a1a1a1"
         stop-opacity="1" />
    </linearGradient>
    <linearGradient
       id="linearGradient4012">
      <stop
         id="stop4014"
         stop-color="#b7b7b7"
         stop-opacity="0.216" />
      <stop
         offset="1"
         id="stop4016"
         stop-color="#222222"
         stop-opacity="0" />
    </linearGradient>
    <linearGradient
       id="linearGradient3958">
      <stop
         id="stop3960"
         stop-color="#989898"
         stop-opacity="1" />
      <stop
         offset="1"
         id="stop3962"
         stop-color="#222222"
         stop-opacity="0" />
    </linearGradient>
    <linearGradient
       id="linearGradient3940">
      <stop
         id="stop3942"
         stop-color="#464646"
         stop-opacity="1" />
      <stop
         offset="1"
         id="stop3944"
         stop-color="#222222"
         stop-opacity="0" />
    </linearGradient>
    <linearGradient
       id="linearGradient3912">
      <stop
         id="stop3914"
         stop-color="#b7b7b7"
         stop-opacity="1" />
      <stop
         offset="1"
         id="stop3916"
         stop-color="#000000"
         stop-opacity="0.64" />
    </linearGradient>
    <linearGradient
       id="linearGradient3902">
      <stop
         id="stop3904"
         stop-color="#ffffff"
         stop-opacity="1" />
      <stop
         offset="1"
         id="stop3906"
         stop-color="#000000"
         stop-opacity="0" />
    </linearGradient>
    <linearGradient
       id="linearGradient3888">
      <stop
         id="stop3890"
         stop-color="#ffffff"
         stop-opacity="0.568" />
      <stop
         offset="1"
         id="stop3892"
         stop-color="#000000"
         stop-opacity="0.791" />
    </linearGradient>
    <linearGradient
       inkscape:collect="always"
       id="linearGradient3878">
      <stop
         id="stop3880"
         stop-color="#ffffff"
         stop-opacity="1" />
      <stop
         offset="1"
         id="stop3882"
         stop-color="#ffffff"
         stop-opacity="0" />
    </linearGradient>
    <linearGradient
       id="linearGradient3775">
      <stop
         id="stop3777"
         stop-color="#ffffff"
         stop-opacity="0.446" />
      <stop
         offset="1"
         id="stop3779"
         stop-color="#ffffff"
         stop-opacity="0" />
    </linearGradient>
    <linearGradient
       id="linearGradient3761">
      <stop
         id="stop3763"
         stop-color="#ffffff"
         stop-opacity="0.568" />
      <stop
         id="stop3771"
         offset="0.258"
         stop-color="#ffffff"
         stop-opacity="0" />
      <stop
         id="stop3769"
         offset="0.739"
         stop-color="#ffffff"
         stop-opacity="0.54" />
      <stop
         offset="1"
         id="stop3765"
         stop-color="#ffffff"
         stop-opacity="0" />
    </linearGradient>
    <filter
       inkscape:collect="always"
       id="filter4046"
       color-interpolation-filters="sRGB">
      <feGaussianBlur
         inkscape:collect="always"
         id="feGaussianBlur4048" />
    </filter>
    <filter
       inkscape:collect="always"
       id="filter4050"
       color-interpolation-filters="sRGB">
      <feGaussianBlur
         inkscape:collect="always"
         stdDeviation="3.07941"
         id="feGaussianBlur4052" />
    </filter>
    <radialGradient
       inkscape:collect="always"
       xlink:href="#linearGradient3761"
       id="radialGradient4092"
       gradientUnits="userSpaceOnUse"
       gradientTransform="matrix(0.62798612,0.87380058,-1.5301902,1.0997225,685.00604,-680.42658)"
       cx="574.84"
       cy="273.63"
       fx="574.84"
       fy="273.63"
       r="65.42" />
    <radialGradient
       inkscape:collect="always"
       xlink:href="#linearGradient3775"
       id="radialGradient4094"
       gradientUnits="userSpaceOnUse"
       gradientTransform="matrix(0.28588091,0.25312962,-1.0511932,1.1872024,685.19482,-325.90241)"
       cx="570.88"
       cy="211.07"
       fx="570.88"
       fy="211.07"
       r="54.39" />
    <radialGradient
       inkscape:collect="always"
       xlink:href="#linearGradient3775"
       id="radialGradient4096"
       gradientUnits="userSpaceOnUse"
       gradientTransform="matrix(0.61175556,0,0,0.67515967,61.670454,-69.723444)"
       cx="542.32"
       cy="308.12"
       fx="542.32"
       fy="308.12"
       r="24.851" />
    <linearGradient
       inkscape:collect="always"
       xlink:href="#linearGradient3878"
       id="linearGradient4098"
       gradientUnits="userSpaceOnUse"
       gradientTransform="matrix(0.61175556,0,0,0.61175556,61.670454,-50.187427)"
       spreadMethod="reflect"
       x1="514.86"
       y1="321.16"
       x2="529.71"
       y2="347.3" />
    <linearGradient
       inkscape:collect="always"
       xlink:href="#linearGradient3878"
       id="linearGradient4100"
       gradientUnits="userSpaceOnUse"
       gradientTransform="matrix(0.61175556,0,0,0.61175556,61.670454,-50.187427)"
       x1="580.22"
       y1="423.46"
       x2="614.02"
       y2="462.05" />
    <linearGradient
       inkscape:collect="always"
       xlink:href="#linearGradient3878"
       id="linearGradient4102"
       gradientUnits="userSpaceOnUse"
       gradientTransform="matrix(0.61175556,0,0,0.61175556,61.670454,-50.187427)"
       x1="692.96"
       y1="603.2"
       x2="650.95"
       y2="524.74" />
    <radialGradient
       inkscape:collect="always"
       xlink:href="#linearGradient3878"
       id="radialGradient4104"
       gradientUnits="userSpaceOnUse"
       gradientTransform="matrix(0.19941778,-0.15918413,0.59927116,0.7507365,92.855968,2.024068)"
       cx="717.89"
       cy="441.92"
       fx="717.89"
       fy="441.92"
       r="10.243" />
    <linearGradient
       inkscape:collect="always"
       xlink:href="#linearGradient3888"
       id="linearGradient4106"
       gradientUnits="userSpaceOnUse"
       gradientTransform="matrix(0.61175556,0,0,0.61175556,61.670454,-50.187427)"
       spreadMethod="reflect"
       x1="685.47"
       y1="440.78"
       x2="699.75"
       y2="456.17" />
    <linearGradient
       inkscape:collect="always"
       xlink:href="#linearGradient3888"
       id="linearGradient4108"
       gradientUnits="userSpaceOnUse"
       gradientTransform="matrix(0.61175556,0,0,0.61175556,-95.048948,-100.13601)"
       spreadMethod="reflect"
       x1="693.31"
       y1="452.41"
       x2="701.91"
       y2="462.38" />
    <radialGradient
       inkscape:collect="always"
       xlink:href="#linearGradient3902"
       id="radialGradient4110"
       gradientUnits="userSpaceOnUse"
       gradientTransform="matrix(0.2981597,-0.24216811,0.39874338,0.49093674,59.024546,103.95616)"
       spreadMethod="reflect"
       cx="460.49"
       cy="366.15"
       fx="460.49"
       fy="366.15"
       r="20.701" />
    <radialGradient
       inkscape:collect="always"
       xlink:href="#linearGradient3912"
       id="radialGradient4112"
       gradientUnits="userSpaceOnUse"
       gradientTransform="matrix(0.5177462,-0.32585845,0.57204368,0.90890216,-106.13671,-13.878222)"
       cx="450.6"
       cy="369.51"
       fx="450.6"
       fy="369.51"
       r="19.726" />
    <linearGradient
       inkscape:collect="always"
       xlink:href="#linearGradient3940"
       id="linearGradient4114"
       gradientUnits="userSpaceOnUse"
       gradientTransform="matrix(0.61175556,0,0,0.61175556,61.670454,-50.187427)"
       x1="180.68"
       y1="602.46"
       x2="217.64"
       y2="560.83" />
    <linearGradient
       inkscape:collect="always"
       xlink:href="#linearGradient3940"
       id="linearGradient4116"
       gradientUnits="userSpaceOnUse"
       gradientTransform="matrix(0,-0.61175556,0.61175556,0,-202.16522,422.25605)"
       x1="180.68"
       y1="602.46"
       x2="217.64"
       y2="560.83" />
    <linearGradient
       inkscape:collect="always"
       xlink:href="#linearGradient3940"
       id="linearGradient4118"
       gradientUnits="userSpaceOnUse"
       gradientTransform="matrix(0,0.61175556,-0.61175556,0,542.99258,212.60755)"
       x1="180.68"
       y1="602.46"
       x2="217.64"
       y2="560.83" />
    <linearGradient
       inkscape:collect="always"
       xlink:href="#linearGradient3958"
       id="linearGradient4120"
       gradientUnits="userSpaceOnUse"
       gradientTransform="matrix(0.61175556,0,0,0.61175556,61.670454,-50.187427)"
       spreadMethod="reflect"
       x1="224.69"
       y1="568.6"
       x2="194.15"
       y2="530.73" />
    <linearGradient
       inkscape:collect="always"
       xlink:href="#linearGradient3958"
       id="linearGradient4122"
       gradientUnits="userSpaceOnUse"
       gradientTransform="matrix(0.61175556,0,0,0.61175556,61.670454,-50.187427)"
       x1="149.97"
       y1="520.15"
       x2="194.15"
       y2="530.73" />
    <linearGradient
       inkscape:collect="always"
       xlink:href="#linearGradient3888"
       id="linearGradient4124"
       gradientUnits="userSpaceOnUse"
       gradientTransform="matrix(0.61175556,0,0,0.61175556,61.670454,-50.187427)"
       spreadMethod="reflect"
       x1="258.13"
       y1="520.2"
       x2="295.2"
       y2="571.04" />
    <linearGradient
       inkscape:collect="always"
       xlink:href="#linearGradient3888"
       id="linearGradient4126"
       gradientUnits="userSpaceOnUse"
       gradientTransform="matrix(0.61175556,0,0,0.61175556,91.518952,-72.521619)"
       spreadMethod="reflect"
       x1="258.13"
       y1="520.2"
       x2="295.2"
       y2="571.04" />
    <linearGradient
       inkscape:collect="always"
       xlink:href="#linearGradient3986"
       id="linearGradient4128"
       gradientUnits="userSpaceOnUse"
       gradientTransform="matrix(0.61175557,0,0,0.61175557,186.88737,-511.26695)"
       spreadMethod="reflect"
       x1="-45.867"
       y1="266.15"
       x2="-45.867"
       y2="259.65" />
    <linearGradient
       inkscape:collect="always"
       xlink:href="#linearGradient4012"
       id="linearGradient4130"
       gradientUnits="userSpaceOnUse"
       gradientTransform="matrix(0.61175556,0,0,0.61175556,61.670454,-50.187427)"
       spreadMethod="reflect"
       x1="606.51"
       y1="508.9"
       x2="632.96"
       y2="544.96" />
    <linearGradient
       inkscape:collect="always"
       xlink:href="#linearGradient4012"
       id="linearGradient4132"
       gradientUnits="userSpaceOnUse"
       gradientTransform="matrix(0.61175556,0,0,0.61175556,61.670454,-50.187427)"
       spreadMethod="reflect"
       x1="286.62"
       y1="493.95"
       x2="315.6"
       y2="546.1" />
    <linearGradient
       inkscape:collect="always"
       xlink:href="#linearGradient3902"
       id="linearGradient3883"
       x1="418.93"
       y1="396.57"
       x2="438.79"
       y2="429.14"
       gradientUnits="userSpaceOnUse"
       spreadMethod="reflect"
       gradientTransform="matrix(0.54194272,0,0,0.54194272,22.679589,38.525931)" />
    <linearGradient
       inkscape:collect="always"
       id="linearGradient4167">
      <stop
         id="stop4169"
         stop-color="#adadad"
         stop-opacity="0.624" />
      <stop
         offset="1"
         id="stop4171"
         stop-color="#ffffff"
         stop-opacity="0.973" />
    </linearGradient>
    <linearGradient
       id="linearGradient4223"
       inkscape:collect="always">
      <stop
         id="stop4225"
         stop-color="#bebebe"
         stop-opacity="0.803" />
      <stop
         id="stop4227"
         offset="1"
         stop-color="#9f9f9f"
         stop-opacity="0.732" />
    </linearGradient>
    <linearGradient
       id="linearGradient4211"
       inkscape:collect="always">
      <stop
         id="stop4213"
         stop-color="#9f9f9f"
         stop-opacity="0.634" />
      <stop
         id="stop4215"
         offset="1"
         stop-color="#696969"
         stop-opacity="0" />
    </linearGradient>
    <linearGradient
       id="linearGradient4171"
       inkscape:collect="always">
      <stop
         id="stop4173"
         stop-color="#b2b2b2"
         stop-opacity="0.624" />
      <stop
         id="stop4175"
         offset="1"
         stop-color="#ffffff"
         stop-opacity="0.698" />
    </linearGradient>
    <linearGradient
       id="linearGradient4142"
       inkscape:collect="always">
      <stop
         id="stop4144"
         stop-color="#909090"
         stop-opacity="0.519" />
      <stop
         id="stop4146"
         offset="1"
         stop-color="#696969"
         stop-opacity="0" />
    </linearGradient>
    <linearGradient
       gradientUnits="userSpaceOnUse"
       y2="324.36"
       x2="278.75"
       y1="63.25"
       x1="165.74"
       id="linearGradient4148"
       xlink:href="#linearGradient4142"
       inkscape:collect="always" />
    <filter
       height="1.1"
       y="-0.05"
       width="1.056"
       x="-0.028"
       id="filter4160"
       inkscape:collect="always"
       color-interpolation-filters="sRGB">
      <feGaussianBlur
         id="feGaussianBlur4162"
         stdDeviation="3.56251"
         inkscape:collect="always" />
    </filter>
    <linearGradient
       spreadMethod="reflect"
       gradientUnits="userSpaceOnUse"
       y2="114.16"
       x2="387.93"
       y1="106.85"
       x1="379.78"
       id="linearGradient4177"
       xlink:href="#linearGradient4167"
       inkscape:collect="always" />
    <linearGradient
       gradientTransform="translate(26.808511,-26.382979)"
       y2="114.16"
       x2="387.93"
       y1="108.46"
       x1="381.27"
       spreadMethod="reflect"
       gradientUnits="userSpaceOnUse"
       id="linearGradient4207"
       xlink:href="#linearGradient4171"
       inkscape:collect="always" />
    <linearGradient
       gradientUnits="userSpaceOnUse"
       y2="125.1"
       x2="281.1"
       y1="61.711"
       x1="284.7"
       id="linearGradient4217"
       xlink:href="#linearGradient4211"
       inkscape:collect="always" />
    <linearGradient
       gradientUnits="userSpaceOnUse"
       y2="103.09"
       x2="255.7"
       y1="93.26"
       x1="259.02"
       id="linearGradient4229"
       xlink:href="#linearGradient4223"
       inkscape:collect="always" />
    <linearGradient
       gradientUnits="userSpaceOnUse"
       y2="117.29"
       x2="258.99"
       y1="102.54"
       x1="262.84"
       id="linearGradient4237"
       xlink:href="#linearGradient4223"
       inkscape:collect="always" />
    <filter
       height="1.136"
       y="-0.068"
       width="1.049"
       x="-0.024"
       id="filter4257"
       inkscape:collect="always"
       color-interpolation-filters="sRGB">
      <feGaussianBlur
         id="feGaussianBlur4259"
         stdDeviation="2.75443"
         inkscape:collect="always" />
    </filter>
    <filter
       inkscape:collect="always"
       id="filter4511"
       x="-0.032"
       width="1.064"
       y="-0.019"
       height="1.038"
       color-interpolation-filters="sRGB">
      <feGaussianBlur
         inkscape:collect="always"
         stdDeviation="1.41555"
         id="feGaussianBlur4513" />
    </filter>
  </defs>
  <sodipodi:namedview
     pagecolor="#ffffff"
     bordercolor="#666666"
     borderopacity="1"
     objecttolerance="10"
     gridtolerance="10"
     guidetolerance="10"
     inkscape:pageopacity="0"
     inkscape:pageshadow="2"
     inkscape:window-width="1920"
     inkscape:window-height="1056"
     id="namedview4"
     showgrid="false"
     inkscape:zoom="3.5351562"
     inkscape:cx="128"
     inkscape:cy="128"
     inkscape:window-x="0"
     inkscape:window-y="0"
     inkscape:window-maximized="1"
     inkscape:current-layer="svg2" />
  <g
     transform="matrix(0.77128144,0,0,0.77128144,-79.32275,-24.005072)"
     id="g4261">
    <path
       d="m 137.15847,253.33333 1.0929,10.92897 c 1.69466,2.56439 1.62485,5.1824 6.55737,7.10382 l 234.9905,77.59563 c 4.36168,2.76045 7.27409,1.93611 10.91114,-1.0929 l 16.39344,-17.48633 z"
       id="path4239"
       inkscape:connector-curvature="0"
       sodipodi:nodetypes="ccccccc"
       stroke-opacity="1"
       fill="#000000"
       filter="url(#filter4257)"
       fill-rule="evenodd"
       stroke="none"
       stroke-linejoin="miter"
       fill-opacity="0.514"
       stroke-linecap="butt"
       stroke-width="1" />
    <path
       d="M 146.27659,241.2766 139.89362,67.340426 c -0.0538,-6.437983 2.49923,-9.41706 7.97872,-7.978724 l 135.10638,37.234043 c 8.12648,2.325734 17.80936,-1.266511 19.14894,-15.425533 0.93604,-9.893676 4.6708,-17.669623 18.61702,-14.893617 l 85.6383,19.680851 c 6.41139,1.511285 7.81765,4.447577 7.4468,11.702128 l -2.12765,230.851066 -5.31915,5.85106 -254.86675,-84.34164 z"
       id="path4198"
       inkscape:connector-curvature="0"
       sodipodi:nodetypes="ccccsccccccc"
       stroke-opacity="1"
       fill="#000000"
       fill-rule="evenodd"
       stroke="none"
       stroke-linejoin="miter"
       fill-opacity="0.73"
       stroke-linecap="butt"
       stroke-width="1" />
    <path
       sodipodi:nodetypes="ccccsccccccc"
       inkscape:connector-curvature="0"
       id="path4209"
       d="M 146.27659,241.2766 139.89362,67.340426 c -0.0538,-6.437983 2.49923,-9.41706 7.97872,-7.978724 l 135.10638,37.234043 c 8.12648,2.325734 17.80936,-1.266511 19.14894,-15.425533 0.93604,-9.893676 4.6708,-17.669623 18.61702,-14.893617 l 85.6383,19.680851 c 6.41139,1.511285 7.81765,4.447577 7.4468,11.702128 l -2.12765,230.851066 -5.31915,5.85106 -254.86675,-84.34164 z"
       stroke-opacity="1"
       fill="url(#linearGradient4217)"
       fill-rule="evenodd"
       stroke="none"
       stroke-linejoin="miter"
       fill-opacity="1"
       stroke-linecap="butt"
       stroke-width="1" />
    <path
       inkscape:connector-curvature="0"
       id="path4221"
       d="m 142.62295,64.262295 267.21311,65.573775 1.0929,194.53552 -256.8306,-92.89618 z"
       sodipodi:nodetypes="ccccc"
       stroke-opacity="0.705"
       fill="url(#linearGradient4229)"
       fill-rule="evenodd"
       stroke="#cecece"
       stroke-linejoin="miter"
       fill-opacity="1"
       stroke-linecap="butt"
       stroke-width="1" />
    <path
       d="m 136.61202,73.005464 267.21311,65.573776 4.37159,189.07104 -260.10929,-87.4317 z"
       id="path4219"
       inkscape:connector-curvature="0"
       stroke-opacity="0.705"
       fill="url(#linearGradient4237)"
       fill-rule="evenodd"
       stroke="#cecece"
       stroke-linejoin="miter"
       fill-opacity="1"
       stroke-linecap="butt"
       stroke-width="1" />
    <path
       d="m 116.2037,92.685185 c 1.13182,-4.540599 4.63483,-9.034209 10.68729,-7.545261 L 261.11111,123.7037 c 6.48148,1.63624 16.36287,0.33244 20.83334,-11.11111 4.00878,-10.26173 10.87392,-18.779525 25.46296,-16.203701 l 68.51852,13.888891 c 12.25335,3.29007 11.96705,11.68066 12.96296,18.51851 l 12.5,205.55556 c 0.64976,7.44283 -5.7507,13.21303 -12.96296,10.18518 L 144.90741,262.59259 c -4.92216,-1.55932 -8.93994,-3.09709 -9.25926,-10.18518 z"
       id="path4138"
       inkscape:connector-curvature="0"
       sodipodi:nodetypes="cccscccccccc"
       stroke-opacity="1"
       fill="#000000"
       fill-rule="evenodd"
       stroke="none"
       stroke-linejoin="miter"
       fill-opacity="0.77"
       stroke-linecap="butt"
       stroke-width="1" />
    <path
       sodipodi:nodetypes="cccsccccccc"
       inkscape:connector-curvature="0"
       id="path4140"
       d="m 116.2037,92.685185 c 1.13182,-4.540599 4.63483,-9.034209 10.68729,-7.545261 L 261.11111,123.7037 c 6.48148,1.63624 16.36287,0.33244 20.83334,-11.11111 4.00878,-10.26173 10.87392,-18.779525 25.46296,-16.203701 l 68.51852,13.888891 c 12.25335,3.29007 11.96705,11.68066 12.96296,18.51851 l 12.5,205.55556 c 0.64976,7.44283 -5.7507,13.21303 -12.96296,10.18518 L 209.72222,283.88889 C 173.76467,257.82993 120.35853,138.21611 116.2037,92.685185 Z"
       stroke-opacity="1"
       fill="url(#linearGradient4148)"
       fill-rule="evenodd"
       stroke="none"
       stroke-linejoin="miter"
       fill-opacity="1"
       stroke-linecap="butt"
       stroke-width="1" />
    <path
       d="m 177.77778,215.83334 -80.555558,82.4074 255.555558,88.42593 38.75029,-40.87068 c 4.63488,-1.3015 9.96817,-1.38077 9.86082,-10.98118 L 396.29629,282.5 Z"
       id="path4150"
       inkscape:connector-curvature="0"
       sodipodi:nodetypes="ccccccc"
       stroke-opacity="1"
       fill="#000000"
       filter="url(#filter4160)"
       fill-rule="evenodd"
       stroke="none"
       stroke-linejoin="miter"
       fill-opacity="0.273"
       stroke-linecap="butt"
       stroke-width="1" />
    <path
       inkscape:connector-curvature="0"
       d="m 130.29688,79.757812 c -3.73674,-0.05935 -6.2712,2.374412 -7.66211,5.353516 1.24508,-0.330919 2.6592,-0.363492 4.25585,0.0293 l 134.22071,38.562492 c 5.49861,1.38812 13.44221,0.65773 18.45508,-6.58203 -4.30627,2.38583 -9.16625,2.43292 -12.90039,1.49024 L 132.44727,80.046875 c -0.75656,-0.186118 -1.47316,-0.278306 -2.15039,-0.289063 z m 177.54687,11.074219 c -7.10689,0.02874 -11.9932,3.152137 -15.51367,7.738281 3.82724,-2.318415 8.71897,-3.304404 15.07812,-2.18164 l 68.51758,13.888668 c 12.25335,3.29007 11.96698,11.68169 12.96289,18.51954 l 12.5,205.55468 c 0.1753,2.00795 -0.17581,3.88521 -0.90429,5.50977 4.09619,-1.28823 6.90142,-5.55587 6.46093,-10.60156 l -12.5,-205.55665 c -0.99591,-6.83785 -0.70954,-15.2275 -12.96289,-18.51757 L 312.96289,91.296875 c -1.82363,-0.321978 -3.52737,-0.47128 -5.11914,-0.464844 z"
       id="path4164"
       stroke-opacity="1"
       fill="#b5b5b5"
       fill-rule="evenodd"
       stroke="none"
       stroke-linejoin="miter"
       fill-opacity="1"
       stroke-linecap="butt"
       stroke-width="1" />
    <path
       id="path4169"
       d="m 375.92578,110.27734 c 12.25335,3.29007 11.96698,11.68169 12.96289,18.51954 2.18404,-2.05828 3.13422,-2.71335 5.55664,-5.09376 -0.99591,-6.83785 -0.70954,-15.2275 -12.96289,-18.51757 -2.39781,2.28773 -2.9924,2.79876 -5.55664,5.09179 z"
       inkscape:connector-curvature="0"
       sodipodi:nodetypes="ccccc"
       stroke-opacity="1"
       fill="url(#linearGradient4177)"
       fill-rule="evenodd"
       stroke="none"
       stroke-linejoin="miter"
       fill-opacity="1"
       stroke-linecap="butt"
       stroke-width="1" />
    <path
       inkscape:connector-curvature="0"
       d="m 151.9043,54.332031 c -2.67378,0.112285 -4.27807,1.802415 -4.90039,4.837891 0.28199,0.05237 0.56972,0.11281 0.86914,0.191406 l 135.10547,37.234375 c 5.41154,1.54874 11.51034,0.467116 15.3789,-4.605469 -2.77183,0.801996 -5.76159,0.727663 -8.57031,-0.07617 L 154.68164,54.681641 c -1.0274,-0.269688 -1.9536,-0.384203 -2.77734,-0.34961 z m 170.88281,6.701172 c -5.39865,-0.126557 -8.73663,1.852669 -10.81445,5.035156 2.34672,-0.518874 5.2277,-0.496408 8.77148,0.208985 l 85.63867,19.679687 c 6.41139,1.511285 7.81812,4.448574 7.44727,11.703125 l -2.12891,230.849614 -0.47461,0.52148 1.96485,0.65039 5.31836,-5.85156 2.1289,-230.851564 c 0.37085,-7.254551 -1.03587,-10.189887 -7.44726,-11.701172 L 327.55273,61.595703 c -1.74327,-0.347001 -3.32697,-0.528775 -4.76562,-0.5625 z"
       id="path4200"
       stroke-opacity="1"
       fill="#b0b0b0"
       fill-rule="evenodd"
       stroke="none"
       stroke-linejoin="miter"
       fill-opacity="1"
       stroke-linecap="butt"
       stroke-width="1" />
    <path
       sodipodi:nodetypes="ccccc"
       inkscape:connector-curvature="0"
       d="m 403.12392,85.141164 c 12.4021,2.867396 10.71654,4.984484 10.70306,18.467586 2.18404,-2.05828 4.25114,-3.752349 6.67356,-6.132759 0.48467,-12.136762 1.00482,-14.993724 -11.89791,-17.244792 -2.39781,2.28773 -2.91447,2.616935 -5.47871,4.909965 z"
       id="path4205"
       stroke-opacity="1"
       fill="url(#linearGradient4207)"
       fill-rule="evenodd"
       stroke="none"
       stroke-linejoin="miter"
       fill-opacity="1"
       stroke-linecap="butt"
       stroke-width="1" />
  </g>
  <g
     id="text4194"
     transform="translate(41.410223,-62.571925)"
     font-style="normal"
     word-spacing="0"
     line-height="125%"
     font-weight="bold"
     font-stretch="normal"
     letter-spacing="0"
     font-variant="normal"
     font-size="7.5"
     stroke-opacity="1"
     font-family="STIXIntegralsSm"
     fill="#000000"
     stroke="none"
     stroke-linejoin="miter"
     fill-opacity="1"
     stroke-linecap="butt"
     stroke-width="1">
    <path
       d="m -33.815041,58.840733 -2.204589,0 -0.347901,0.996093 -1.417236,0 2.025146,-5.467529 1.680909,0 2.025146,5.467529 -1.417236,0 -0.344239,-0.996093 z m -1.853027,-1.014405 1.497803,0 -0.747071,-2.175293 -0.750732,2.175293 z"
       id="path4199"
       inkscape:connector-curvature="0" />
    <path
       d="m -31.33213,54.369297 2.340087,0 q 1.043702,0 1.600342,0.465088 0.560303,0.461426 0.560303,1.318359 0,0.860596 -0.560303,1.325684 -0.55664,0.461426 -1.600342,0.461426 l -0.930175,0 0,1.896972 -1.409912,0 0,-5.467529 z m 1.409912,1.021729 0,1.527099 0.780029,0 q 0.410156,0 0.633545,-0.197754 0.223389,-0.201416 0.223389,-0.567627 0,-0.366211 -0.223389,-0.563965 -0.223389,-0.197753 -0.633545,-0.197753 l -0.780029,0 z"
       id="path4201"
       inkscape:connector-curvature="0" />
  </g>
  <path
     d="m 151.25585,65.35929 c -1.72291,-6.617505 -7.95008,-14.244112 -16.14264,-11.823181 -4.59685,1.358374 -8.88835,10.741612 -11.64003,17.047341 -1.67542,3.83937 -2.20927,8.605062 -4.58674,11.412847 -2.3823,0.95383 -3.92503,3.4034 -5.12818,6.46901 l -0.74282,2.16112 c -2.21812,-1.19458 -4.62037,-2.29474 -7.1511,-3.11391 -6.260125,-2.36802 -12.306487,-2.58158 -17.992542,0.85772 -0.86063,0.46197 -1.711231,1.00507 -2.547888,1.62741 0.486649,-0.8145 3.069006,-5.07219 5.491396,-7.57831 0.381639,-0.39482 0.755763,-0.74093 1.112558,-1.01542 2.882364,-2.217454 5.197359,-5.402785 6.746885,-8.826216 1.408291,-2.67049 2.272041,-5.618229 2.132891,-8.964693 0.0199,-1.989043 -0.30817,-3.838525 -1.044763,-5.387084 -0.144513,-0.4328 -0.286703,-0.864835 -0.46401,-1.309785 0.03955,0.204985 0.05965,0.407063 0.09217,0.610774 l -0.644671,-1.096196 c 0.261394,-1.775063 -0.06637,-3.338312 -0.731757,-4.582808 -6.79e-4,-0.08927 0.0041,-0.176071 -0.0033,-0.268406 -0.722779,-1.314774 -1.733516,-1.78771 -2.687816,-2.424796 -0.118274,-0.006 -0.200409,0.01263 -0.301873,0.0184 -1.636337,-0.573985 -3.49515,-0.220102 -4.934223,1.468045 0,0 -0.335288,0.04817 -0.585414,0.08299 0.0023,-0.01192 0.0055,-0.02433 0.0082,-0.03637 -0.07604,0.01963 -0.143226,0.0443 -0.218412,0.06442 -1.586785,0.242203 -5.334695,0.967156 -6.862314,2.632712 -5.136635,5.600463 -7.552603,14.786497 -7.602102,23.07166 -3.14e-4,0.0381 -0.0061,0.08118 -0.0069,0.119841 -0.144356,0.992025 -0.297413,1.975554 -0.480959,2.934531 -0.966198,3.683381 -3.053423,7.862081 -3.23037,7.830991 l -0.03985,0.94877 c -0.02662,0.0382 -0.04871,0.0796 -0.07571,0.11752 0.02187,0.008 0.04803,0.005 0.07065,0.0107 l -0.0044,0.10481 c -0.0028,0.005 -0.0054,0.007 -0.0076,0.013 l -1.242874,2.51975 -0.155193,0.18624 -1.208752,3.79935 c 0.965609,2.95251 3.019412,4.910612 5.916687,6.093203 l 7.061382,2.37037 -0.830833,2.71415 0.665286,2.13546 0.870232,0.45686 0.123469,2.56207 1.350142,1.70473 -0.21564,1.52842 0.761817,1.59948 1.714059,0.5399 -0.501601,2.00588 0.88048,1.43861 1.748432,0.16016 -0.105216,2.12652 0.880481,1.43861 2.324238,0.11395 -0.479874,2.22946 1.16427,1.86995 3.018673,-1.00482 -0.72225,2.90066 -2.143792,1.24078 -0.551475,0.29394 0.02136,1.1336 -3.948244,0.92456 -0.04175,0.009 0.602325,2.97172 -2.737304,0.45554 0.408901,2.07586 c -2.017858,0.64701 -4.01572,1.3756 -5.850867,2.71308 -0.344347,0.13435 -0.685439,0.27915 -1.018518,0.44275 l -0.470576,0.72615 -0.118499,0.0769 c 0.03591,-0.0211 0.07052,-0.0363 0.106416,-0.0572 l -0.198463,0.30641 c -0.120439,0.12567 -0.243731,0.23838 -0.362027,0.37208 l -6.490543,10.10978 -1.304544,1.62319 c 0.13612,-0.0802 0.268048,-0.14395 0.403375,-0.22048 l -0.649497,1.01235 -2.239311,14.46544 c -0.193221,1.32152 -0.212225,2.58233 -0.08617,3.7711 0.183644,2.14404 0.766257,4.33501 1.804578,5.65618 0.216217,0.27511 0.452662,0.54481 0.696526,0.81106 0.224212,0.30021 0.457055,0.58943 0.702502,0.86277 l -24.989796,41.12012 c -0.465477,0.7659 -0.309291,1.83027 0.351155,2.38775 0.660455,0.55746 1.567455,0.39014 2.032925,-0.37574 l 24.979626,-41.10463 c 2.380787,1.53351 5.151907,2.03511 7.577197,1.18088 0.40822,-0.11835 0.813096,-0.26334 1.207488,-0.46437 0.389566,-0.19863 0.758442,-0.49131 1.105518,-0.8438 l 0.1459,-0.096 c -0.01409,0.0171 -0.0249,0.036 -0.03921,0.0529 l 4.25721,-2.83991 4.721031,-3.11974 0.09607,-0.0952 0.834433,-0.55641 c 0.06832,-0.15037 0.119271,-0.29976 0.183258,-0.44988 l 0.385706,-0.38104 1.018462,-1.89502 c -0.07922,0.20552 -0.149324,0.41415 -0.23845,0.61649 l 6.231653,-11.76903 0.42314,-0.7867 c 0.004,-0.01 0.007,-0.0222 0.0108,-0.0318 l 0.24632,-0.46544 c 0.0178,-0.1524 0.0244,-0.29825 0.0394,-0.4491 0.19052,-0.75443 0.32763,-1.67632 0.40787,-2.77319 0.18617,-1.47725 0.19992,-2.92026 0.0577,-4.31019 -0.0102,-0.44933 -0.006,-0.85601 -0.0256,-1.33394 l 0.23238,-3.94389 1.8401,1.43302 1.07793,-0.23957 -0.10237,-1.42304 0.49095,-2.98929 1.05755,-0.54202 -0.45122,-6.23616 0.5893,1.08622 0.64262,-0.0521 2.13736,-1.61351 0.38585,2.69304 1.51091,1.30803 1.70674,-1.3473 1.1406,2.39987 1.52354,0.55488 1.32642,-1.24267 0.52675,2.00265 2.04419,0.58428 1.0798,-1.07151 0.96343,1.73638 1.61449,0.0991 1.14048,-1.15593 0.8027,1.29984 1.73759,0.003 0.61668,-1.25754 0.78548,1.06955 1.08904,-0.0877 1.07523,-1.14328 0.74226,0.46713 0.70336,-0.0581 0.85819,-1.50922 0.86565,0.3851 0.6097,-0.50608 0.23411,-0.32258 0.32918,0.12497 1.09881,-1.7517 3.91144,-5.37379 c 0.15081,-0.18331 0.28898,-0.38291 0.43068,-0.57846 l 0.16853,0.138 c 0.73208,-1.45702 1.14238,-3.07479 1.2663,-4.80881 0.89606,-5.91339 -1.20411,-11.77887 -4.76274,-17.62276 -1.5751,-2.81176 -3.49292,-5.59771 -5.6946,-8.25161 3.18469,-2.78636 4.66837,-7.280583 5.10043,-11.003063 8.47675,-8.09091 14.65174,-15.380831 15.61516,-24.485097 0.0564,-0.532511 0.063,-1.09556 0.0257,-1.686698 -0.0549,-0.871927 -0.20865,-1.796346 -0.45478,-2.741706 z m -20.35786,63.06456 -0.061,0.29147 0.26532,1.90173 c -4.04742,-3.48087 -8.33262,-6.1225 -12.76466,-8.24995 1.05389,-0.34542 2.10801,-0.84435 3.16342,-1.58753 l 9.3969,7.64428 z m -4.85046,7.03063 c -5.65923,-0.70206 -11.89955,-0.41112 -15.25547,-5.05553 -0.0745,-0.13935 -0.14814,-0.27832 -0.20055,-0.4316 -0.14962,-2.5349 0.92209,-3.72159 2.71505,-4.12597 3.87983,4.43572 10.27005,3.97173 12.74093,9.61312 z m -22.57139,-29.33672 c -3.580743,-0.97299 -5.322248,0.3845 -7.919209,-0.0976 -0.458777,-0.11135 -0.929741,-0.2523 -1.428425,-0.45883 l 0.120198,-1.06592 -1.181809,-4.738901 0.73394,-1.509 9.675335,7.870281 z m -0.0828,7.30809 c -1.0365,2.0926 -1.71054,4.11483 -0.7346,5.84292 l -2.36337,3.58577 c -3.067237,-2.93321 -5.884035,-6.47099 -8.488698,-11.52376 1.685364,0.35074 3.420551,0.63679 5.657007,0.23071 2.110299,0.16953 4.343621,-0.0704 5.929661,1.86436 z"
     id="path4398"
     inkscape:connector-curvature="0"
     style="fill:#222222;fill-opacity:0.306;stroke:none;stroke-width:0.228;stroke-linecap:butt;stroke-linejoin:miter;stroke-opacity:1;filter:url(#filter4511)" />
  <g
     id="g4369"
     transform="matrix(-0.00739464,-0.42753281,-0.42753281,0.00739464,230.40512,244.12411)">
    <path
       sodipodi:nodetypes="sscccccccccccccccccccccccccccccccccccccccccccccccccccccccccccccccccccccccccccccsscccsccccsssccccccccccccccccccccccccscccccccccccccccccccc"
       inkscape:connector-curvature="0"
       id="path2989"
       d="m 441.78094,51.153703 c -1.57157,0.01738 -3.05807,0.164091 -4.45434,0.458817 -23.87183,5.038834 -41.81965,25.850667 -61.38585,53.98743 -9.8382,2.19788 -21.5268,7.88814 -28.17899,18.58207 C 319.67335,102.0057 291.9732,86.693777 265.99681,102.00589 l -15.59977,15.58064 -4.39699,3.80436 0.40146,0.9941 -0.80293,0.80293 -1.20439,2.00733 1.20439,2.59996 -3.80435,3.00142 0,2.1985 1.39557,2.19849 -2.79114,3.59407 0,3.40289 3.00143,2.19849 -3.1926,2.1985 0.38234,5.3911 3.61319,2.19849 -2.81025,3.80436 0.61175,4.98963 4.79846,2.59996 -2.59996,3.59406 1.9882,6.21315 5.41021,1.18527 -3.00142,4.397 1.79703,4.60728 6.59549,3.00143 -3.1926,5.60138 3.78524,4.39699 7.20725,0.59265 -3.80436,6.99695 0,2.00732 3.00143,1.58674 -16.59387,0 -1.2044,3.40289 -7.79988,2.1985 -3.78524,0 -0.40146,3.40289 4.1867,5.39109 -10.38073,1.60586 c -11.79065,0.43925 -20.275,1.82586 -24.60404,4.39699 l -34.98477,26.19079 -3.59407,4.98963 -16.00122,33.99067 c -7.26974,19.91943 12.45599,47.4984 39.80234,40.39498 l 37.77591,-10.20867 31.3907,-27.77752 c 6.48724,-7.85838 8.6287,-16.69175 10.39985,-25.59815 l 5.58226,0.80293 0.61176,-8.60281 7.99106,1.20439 1.60586,-12.59834 3.00142,-0.19117 3.1926,-8.60282 7.79988,-3.00142 -2.00732,9.59691 5.19993,3.19261 5.79256,-1.98821 0.80292,7.18812 3.99553,2.40879 5.60139,-0.80293 0.80292,5.3911 3.99554,2.40879 5.19992,-2.00733 1.79703,5.19993 4.39699,2.00732 3.99553,-1.01322 4.79846,3.80435 6.80578,-0.19117 1.39557,2.59996 5.79256,1.58674 6.99695,-3.1926 7.79989,21.39233 c 3.75468,8.7289 9.37867,14.66159 17.39679,16.99533 l 9.78809,-4.60728 4.01465,-4.58817 5.98373,-0.80292 c -0.15665,-0.70493 17.8142,-13.05697 27.98782,-13.99391 21.90306,-2.01719 45.67688,-11.58382 59.37852,-28.79075 5.19608,-6.52539 5.60139,-24.39375 5.60139,-24.39375 10.15592,-11.8521 -1.07583,-29.78456 -17.18651,-25.57903 l -3.80435,-2.1985 c -17.25477,-9.13696 -47.53716,5.12327 -60.77409,28.98192 -5.19063,9.35576 -22.19526,23.18936 -22.19526,23.18936 17.12437,-28.11704 9.79665,-56.98304 -7.58959,-86.16194 l 6.3852,-3.21172 c 7.84806,-4.42485 13.99377,-9.76704 16.00123,-17.37769 6.91208,-8.01264 19.39975,-10.73907 29.19221,-16.80415 16.08297,-9.96119 39.97602,-25.39744 42.57436,-39.974403 5.29232,-29.69052 -23.57103,-48.457535 -42.11555,-48.252224 z m -152.19331,77.234137 0.99411,2.79114 2.19849,0 4.39699,-2.58085 0,3.59407 2.59997,0.9941 4.79846,-2.00732 0.80292,0.61175 0.19118,4.18671 1.79703,1.41468 5.00874,-1.41468 1.18528,1.60585 -0.38234,4.20583 2.98231,0.19117 1.01321,3.40289 c -7.23074,7.63031 -10.40833,14.88589 -11.79541,21.98497 -7.28282,-13.27659 -14.70758,-26.46897 -24.60404,-38.17738 l 5.19992,0.40147 z m -20.39822,17.58798 c 15.45568,6.40224 15.60739,26.3459 28.17899,37.39355 -0.6978,5.79112 -3.69819,9.44953 -10.7822,9.38663 -13.75108,-9.1553 -14.25658,-29.03513 -17.39679,-46.78018 z m 77.55913,52.38156 c 3.97165,3.05756 7.79968,6.28926 11.94444,9.14088 4.14477,2.85162 8.60627,5.32315 13.84488,6.86036 l -1.9882,3.40289 1.60585,2.9823 3.38378,0.40147 -2.79114,4.79846 0.59264,2.00732 2.81026,0.9941 -2.81026,4.20582 0,2.38967 1.79703,1.79703 -4.39699,3.00143 -12.98069,-1.98821 -2.40879,0.59264 c -6.30787,-13.54595 3.61052,-18.89108 -8.60281,-40.58616 z m -14.39537,12.99981 c 5.46057,4.48884 5.30816,11.4759 6.21314,17.98944 -0.64694,7.71078 0.7613,13.37601 2.1985,19.00266 C 328.61172,241.58645 316.88278,234.2 307.36678,223.74524 l 9.6925,-8.79399 c 4.78184,2.64121 9.98331,0.0945 15.29389,-3.59406 z"
       stroke-opacity="1"
       fill="#222222"
       stroke="#000000"
       stroke-linejoin="miter"
       fill-opacity="1"
       stroke-linecap="butt"
       stroke-width="0.612" />
    <path
       transform="matrix(0.61175556,0,0,0.61175556,27.63229,36.60989)"
       sodipodi:nodetypes="cssssccsssc"
       inkscape:connector-curvature="0"
       id="path3759"
       d="m 701.28569,43.298867 c 23.06137,-12.8717 39.04075,15.51691 24.45107,30.11177 -8.30005,8.30298 -13.25225,8.84175 -26.34491,12.69964 -57.81492,17.035773 -30.18148,24.161173 -41.02427,34.681253 -3.93338,3.81631 -16.71628,7.45713 -25.00934,11.97119 -7.04145,3.83278 -5.21739,23.47826 -5.21739,23.47826 -5.34798,-12.83325 -12.94175,-24.54361 -26.95652,-33.04347 0,0 17.3296,7.83234 18.6483,0.3616 1.55461,-8.80715 3.99015,-24.032203 14.74751,-29.111933 12.16166,-5.74285 32.4821,-20.07134 35.91868,-31.04162 6.1094,-19.50244 17.5232,-25.2335 30.78687,-20.10669 z"
       fill="url(#radialGradient4092)"
       filter="url(#filter4050)"
       stroke="none"
       fill-opacity="1" />
    <path
       transform="matrix(0.61175556,0,0,0.61175556,27.63229,36.60989)"
       sodipodi:nodetypes="cccc"
       inkscape:connector-curvature="0"
       id="path3773"
       d="m 572.6336,112.44445 c 29.81108,-33.297113 47.1792,-77.207343 104.24837,-87.254903 14.63328,2.31398 -18.99771,35.34158 -50.98039,67.32026 -30.3845,25.286963 -40.43262,20.553563 -53.26798,19.934643 z"
       fill="url(#radialGradient4094)"
       filter="url(#filter4046)"
       stroke="none"
       fill-opacity="1" />
    <path
       sodipodi:nodetypes="ccccc"
       inkscape:connector-curvature="0"
       id="path3783"
       d="m 378.54384,124.59074 c 9.09221,6.33142 16.96223,14.35512 19.19233,30.18793 5.54893,-7.43015 10.79839,-14.91476 10.59576,-23.39065 -0.15036,-4.59503 -2.87837,-7.04202 -6.19752,-8.9964 -7.92511,6.0487 -18.06445,-5.51192 -23.59057,2.19912 z"
       fill="url(#radialGradient4096)"
       stroke="none"
       fill-opacity="1" />
    <path
       sodipodi:nodetypes="ccc"
       inkscape:connector-curvature="0"
       id="path3793"
       d="m 354.95326,130.58834 c 11.77753,11.13421 22.66846,23.86426 31.7873,39.7841 3.85895,-23.97779 -4.75184,-38.71078 -31.7873,-39.7841 z"
       fill="url(#linearGradient4098)"
       stroke="none"
       fill-opacity="1" />
    <path
       inkscape:connector-curvature="0"
       id="path3803"
       d="m 285.87887,96.44273 c -7.22324,0.0148 -13.78652,1.59742 -19.28943,4.9514 -14.94213,13.2044 -15.48724,37.42194 -5.19991,63.58434 17.35955,44.14826 47.89991,81.29896 99.96467,105.35578 13.87891,5.0447 25.90855,1.75143 36.59063,-7.58959 24.87353,-45.47085 -12.53053,-97.63475 -27.204,-115.75563 -24.81411,-30.64396 -59.0647,-50.599177 -84.86196,-50.5463 z m 5.23815,5.79257 c 22.02222,-0.44183 52.01857,17.30237 76.83268,47.94633 14.67346,18.12088 46.26198,64.07839 22.78789,104.15139 -10.68209,9.34102 -18.71619,8.65789 -32.5951,3.61318 -52.06477,-24.05682 -71.99499,-50.02386 -89.35455,-94.17212 -10.28733,-26.1624 -8.93928,-43.57417 6.00285,-56.77857 4.62826,-3.09158 10.16001,-4.63651 16.32623,-4.76021 z"
       fill="#ffffff"
       stroke="none"
       fill-opacity="0.874" />
    <path
       sodipodi:nodetypes="sccccccssccccccsscccccccccssccccccsccccccccccccccccc"
       inkscape:connector-curvature="0"
       id="path3822"
       d="m 288.2303,109.93959 c -10.70122,0.1459 -18.94976,5.47472 -25.44521,14.45272 -4.45329,21.06234 3.86942,40.36291 14.39537,59.16824 7.43292,12.43586 13.33633,27.18596 23.52316,36.31712 18.65147,22.34366 62.18793,46.83259 81.43116,40.26703 9.03886,-7.25499 10.26902,-18.85757 9.8072,-31.39071 -9.80719,-52.56807 -43.72584,-86.33457 -84.76637,-114.55123 -7.06265,-2.98377 -13.33991,-4.33959 -18.94531,-4.26317 z m 4.91316,11.43218 c 12.44735,-0.26912 22.68475,3.8744 29.63191,14.60567 1.05536,2.06584 1.20248,4.14729 -0.40146,6.21314 -6.71998,6.55649 -11.22349,13.85706 -8.41164,23.59082 l -8.18223,1.79704 c -6.75602,-13.7265 -14.90546,-26.85083 -25.38786,-38.98031 -0.69072,-1.99919 -0.1773,-4.00365 1.79703,-6.00285 3.80805,-0.72094 7.469,-1.14815 10.95425,-1.22351 z m -18.96442,16.97622 c 2.472,0.0332 5.29895,1.51334 7.60871,4.6264 7.15285,12.38759 12.22418,25.48019 23.782,36.39946 l 2.19849,-10.39985 9.80721,-2.79113 c 1.51895,9.73798 2.17913,19.41387 18.18061,30.18631 l -17.58798,3.78524 c -8.69987,-5.97275 -19.30305,-11.34693 -28.1981,-7.18813 -5.42265,0.70554 -8.15715,-4.61004 -11.58512,-8.39252 -7.29807,-14.10189 -6.95328,-27.3583 -9.99838,-40.98763 0.6377,-3.44133 2.99095,-5.27581 5.79256,-5.23815 z m 62.57112,3.88083 c 0.72997,0.0493 1.63573,0.49895 2.81025,1.5485 16.59338,13.36503 28.57983,29.28856 35.57741,47.98458 -0.20485,6.48013 -2.98162,3.96978 -5.19992,3.40288 l -22.78789,-17.39679 c -5.35998,-14.54573 -14.13227,-15.38368 -22.57761,-17.58797 4.76849,-4.21805 9.51391,-8.44924 9.59692,-15.79095 0.64565,-1.20247 1.36423,-2.24245 2.58084,-2.16025 z m 9.99838,56.12856 c 3.11778,-4.44738 2.48488,-5.32913 3.86612,-9.18845 7.46781,7.59209 15.22324,14.93252 27.22517,18.55726 3.29805,1.28247 3.41998,3.64795 5.03199,6.7647 3.67925,15.27065 -1.37721,22.17845 -4.98265,26.71212 l -7.14834,-0.8639 -12.78952,-2.59996 -2.79113,0.61175 c -6.36405,-14.61071 1.1917,-23.72191 -8.41164,-39.99352 z m -11.18366,3.99553 c 13.57674,9.78422 6.78288,26.5426 12.59835,39.59206 2.67924,-1.1823 3.26237,-4.08163 11.39394,-0.80293 l 9.78809,18.60119 c -10.26389,-3.59724 -21.06597,-6.67227 -28.79074,-12.80863 -19.82694,-9.86234 -31.70345,-21.7047 -42.38319,-35.38624 l -1.39557,-7.39842 c 13.12054,0.14225 28.97693,10.82149 38.78912,-1.79703 z"
       fill="#ffffff"
       stroke="none"
       fill-opacity="0.756" />
    <path
       sodipodi:nodetypes="cccscccccc"
       inkscape:connector-curvature="0"
       id="path3841"
       d="m 355.3531,238.94504 26.18954,2.9988 8.16801,25.06506 c -10.30341,5.62173 -9.57105,17.13911 -4.83969,26.51541 2.36568,4.68816 11.6791,14.36418 17.59242,11.57547 2.69656,-0.84652 3.99592,0.28736 2.71502,1.06177 l -7.44223,5.15457 c -5.43665,-0.65743 -8.01273,-3.81787 -9.19632,-8.19672 l -28.38866,-61.37548 c -1.59937,-3.13267 -3.19873,-2.02916 -4.79809,-2.79888 z"
       fill="#d0d0d0"
       stroke="none"
       fill-opacity="1" />
    <path
       sodipodi:nodetypes="ccc"
       inkscape:connector-curvature="0"
       id="path3843"
       d="m 386.34072,270.73234 c 28.05763,-1.58378 43.12459,-79.11317 96.36149,-59.37628 -43.78483,-6.22502 -72.91727,61.27489 -96.36149,59.37628 z"
       fill="url(#linearGradient4100)"
       stroke="none"
       fill-opacity="1" />
    <path
       d="m 405.53305,306.31812 c -3.62755,-9.18429 44.31407,-47.24206 95.76174,-65.97364 -8.67821,59.02098 -68.81862,39.67845 -95.76174,65.97364 z"
       id="path3853"
       inkscape:connector-curvature="0"
       sodipodi:nodetypes="ccc"
       fill="url(#linearGradient4102)"
       stroke="none"
       fill-opacity="1" />
    <path
       sodipodi:nodetypes="ccccc"
       inkscape:connector-curvature="0"
       id="path3876"
       d="m 493.29799,217.15375 c -2.6499,-0.64473 0.11353,-3.03582 3.79848,-2.9988 3.63385,1.94823 5.1057,4.97747 6.9972,7.79688 0.71391,6.28767 -4.05315,4.8975 -2.79888,8.19673 -1.70287,-5.66461 -2.51611,-12.56103 -7.9968,-12.99481 z"
       fill="url(#radialGradient4104)"
       stroke="none"
       fill-opacity="1" />
    <path
       sodipodi:nodetypes="cccscc"
       inkscape:connector-curvature="0"
       id="path3886"
       d="m 484.16055,213.14522 c -9.21518,5.86485 -4.12788,12.36537 -10e-6,18.82325 4.7894,5.3358 10.15242,10.75533 15.60953,7.68998 -0.13336,4.6989 -2.96191,5.68585 -6.88656,3.55806 -7.31923,-3.96821 -13.4816,-9.27732 -17.21638,-20.43012 -0.92017,-5.60092 -3.54368,-12.28579 8.49342,-9.64117 z"
       stroke-opacity="1"
       fill="url(#linearGradient4106)"
       stroke="#000000"
       stroke-linejoin="miter"
       fill-opacity="1"
       stroke-linecap="butt"
       stroke-width="0.612" />
    <path
       d="m 327.44115,163.19664 c -9.21519,5.86485 -5.52671,14.04397 -1.39884,20.50184 4.78655,5.33377 5.60041,9.80865 18.12742,11.79323 -3.21079,1.90123 -5.65845,1.75456 -9.59096,-0.35867 -7.44113,-3.99869 -12.57888,-10.77688 -15.53779,-21.7357 -0.92016,-5.60092 -2.33136,-16.20251 8.40017,-10.2007 z"
       id="path3896"
       inkscape:connector-curvature="0"
       sodipodi:nodetypes="cccscc"
       fill="url(#linearGradient4108)"
       stroke="none"
       fill-opacity="1" />
    <path
       sodipodi:nodetypes="ccc"
       inkscape:connector-curvature="0"
       id="path3900"
       d="m 324.55748,161.4315 c 21.41559,3.57223 21.56071,30.63821 20.60945,33.66521 13.3759,-12.26512 -9.23614,-38.43422 -20.60945,-33.66521 z"
       fill="url(#radialGradient4110)"
       stroke="none"
       fill-opacity="1" />
    <path
       sodipodi:nodetypes="cccc"
       inkscape:connector-curvature="0"
       id="path3910"
       d="m 327.4484,163.20335 c 12.45577,5.57862 14.84568,18.90021 17.90504,31.70685 -8.15134,1.29808 -13.09709,-4.6164 -18.37132,-9.79182 -4.51485,-7.06344 -9.09093,-14.12372 0.46628,-21.91503 z"
       fill="url(#radialGradient4112)"
       stroke="none"
       fill-opacity="1" />
    <path
       sodipodi:nodetypes="sssss"
       inkscape:connector-curvature="0"
       id="path3936"
       d="m 148.91991,294.50885 c 3.93363,-11.18531 25.77633,-19.90817 41.32869,-1.04365 9.11537,11.05665 13.95648,23.89793 3.96589,38.82392 -3.57205,5.33665 -22.6489,6.69514 -30.89215,0.20873 -10.17097,-8.00327 -19.33616,-23.95988 -14.40243,-37.989 z"
       stroke-opacity="1"
       fill="#000000"
       stroke="#000000"
       stroke-linejoin="miter"
       fill-opacity="0.046"
       stroke-linecap="butt"
       stroke-width="0.612" />
    <path
       sodipodi:nodetypes="cccsc"
       inkscape:connector-curvature="0"
       id="path3938"
       d="m 171.25411,305.57158 c 6.93714,2.525 10.58756,6.80293 9.18415,13.77623 l 7.72304,0.83493 c 8.7323,-5.69498 -11.43415,-29.89669 -15.02861,-26.71754 -0.62541,0.55314 -1.87858,12.10638 -1.87858,12.10638 z"
       fill="url(#linearGradient4114)"
       stroke="none"
       fill-opacity="1" />
    <path
       d="m 161.94302,313.92479 c -3.73692,-1.71887 -1.5463,-11.83994 5.427,-10.43653 l 0.83492,-7.72305 c -7.25757,-8.41977 -19.70851,12.8197 -12.73257,15.65481 0.77348,0.31435 6.47065,2.50477 6.47065,2.50477 z"
       id="path3948"
       inkscape:connector-curvature="0"
       sodipodi:nodetypes="cccsc"
       fill="url(#linearGradient4116)"
       stroke="none"
       fill-opacity="1" />
    <path
       sodipodi:nodetypes="cccsc"
       inkscape:connector-curvature="0"
       id="path3952"
       d="m 178.88434,320.93882 c 3.73692,1.71887 -3.67197,9.5439 -9.81034,3.54842 l 1.25238,6.47065 c 7.25757,8.41977 22.00455,-4.6792 15.02862,-7.5143 -0.77349,-0.31435 -6.47066,-2.50477 -6.47066,-2.50477 z"
       fill="url(#linearGradient4118)"
       stroke="none"
       fill-opacity="1" />
    <path
       d="m 226.77649,324.98354 -34.44058,9.18416 c 29.08913,-30.94955 -22.7247,-65.13876 -41.32869,-43.62473 l 15.34171,-32.24891 c 41.03239,-26.35062 83.6835,25.48188 60.42756,66.68948 z"
       id="path3966"
       inkscape:connector-curvature="0"
       sodipodi:nodetypes="ccccc"
       fill="url(#linearGradient4120)"
       stroke="none"
       fill-opacity="1" />
    <path
       sodipodi:nodetypes="ccccc"
       inkscape:connector-curvature="0"
       id="path3956"
       d="m 226.77649,324.98354 -34.44058,9.18416 c 29.08913,-30.94955 -22.7247,-65.13876 -41.32869,-43.62473 l 15.34171,-32.24891 c 41.03239,-26.35062 83.6835,25.48188 60.42756,66.68948 z"
       fill="url(#linearGradient4122)"
       stroke="none"
       fill-opacity="1" />
    <path
       sodipodi:nodetypes="ccccc"
       inkscape:connector-curvature="0"
       id="path3970"
       d="m 168.33188,256.93732 5.427,-4.17462 c 39.51899,-18.70959 79.38246,31.03015 58.86207,67.2113 l -4.17462,4.59208 c 22.35825,-53.9907 -25.90471,-83.43631 -60.11445,-67.62876 z"
       fill="url(#linearGradient4124)"
       stroke="none"
       fill-opacity="1" />
    <path
       d="m 198.18038,234.60313 5.427,-4.17462 c 39.51899,-18.70959 78.54754,24.5595 58.02715,60.74065 l -2.29604,5.00953 c 22.34446,-54.00173 -29.57631,-79.48545 -61.15811,-61.57556 z"
       id="path3980"
       inkscape:connector-curvature="0"
       sodipodi:nodetypes="ccccc"
       fill="url(#linearGradient4126)"
       stroke="none"
       fill-opacity="1" />
    <rect
       transform="matrix(-0.76564146,0.64326755,-0.64326755,-0.76564146,0,0)"
       ry="4.538"
       y="-353.56"
       x="67.754"
       height="9.08"
       width="161.68"
       id="rect3984"
       stroke-opacity="1"
       fill="url(#linearGradient4128)"
       stroke="#2f2f2f"
       fill-opacity="1"
       stroke-width="0.612"
       rx="4.538" />
    <path
       sodipodi:nodetypes="cccccccccccc"
       inkscape:connector-curvature="0"
       id="path3994"
       d="m 69.224952,394.1784 11.644731,-2.76996 15.105821,-12.39413 -10.077447,0.95937 19.853843,-17.04824 8.76895,1.28632 17.72578,-15.22417 -12.20625,1.47345 17.60964,-13.79732 13.32837,-3.22724 12.16114,-9.93913 -12.69816,1.42684"
       stroke-dasharray="none"
       stroke-opacity="0.487"
       fill="none"
       stroke="#3b3b3b"
       stroke-linejoin="round"
       stroke-linecap="round"
       stroke-width="3.059"
       stroke-miterlimit="4" />
    <path
       d="m 69.337405,393.33499 11.532278,-1.92655 15.105821,-12.39413 -10.077447,0.95937 19.853843,-17.04824 8.76895,1.28632 17.72578,-15.22417 -12.20625,1.47345 17.60964,-13.79732 13.32837,-3.22724 12.16114,-9.93913 -12.69816,1.42684"
       id="path3996"
       inkscape:connector-curvature="0"
       sodipodi:nodetypes="cccccccccccc"
       stroke-dasharray="none"
       stroke-opacity="0.487"
       fill="none"
       stroke="#c0c0c0"
       stroke-linejoin="round"
       stroke-linecap="round"
       stroke-width="1.224"
       stroke-miterlimit="4" />
    <path
       sodipodi:nodetypes="cc"
       inkscape:connector-curvature="0"
       id="path3998"
       d="M 50.254907,410.2245 71.401739,399.18323"
       stroke-dasharray="none"
       stroke-opacity="0.563"
       fill="none"
       stroke="#2e2e2e"
       stroke-linejoin="round"
       stroke-linecap="round"
       stroke-width="3.059"
       stroke-miterlimit="4" />
    <path
       d="M 50.254907,410.2245 71.401739,399.18323"
       id="path4000"
       inkscape:connector-curvature="0"
       sodipodi:nodetypes="cc"
       stroke-dasharray="none"
       stroke-opacity="0.639"
       fill="none"
       stroke="#b3b3b3"
       stroke-linejoin="round"
       stroke-linecap="round"
       stroke-width="1.224"
       stroke-miterlimit="4" />
    <path
       inkscape:connector-curvature="0"
       id="path4002"
       d="m 237.4021,215.9124 7.67502,3.96984 1.85259,-6.6164 z"
       fill="#d6d6d6"
       stroke="none"
       fill-opacity="0.542" />
    <path
       sodipodi:nodetypes="cccc"
       d="m 250.37024,212.20722 7.67503,3.96984 9.52761,-6.35174 z"
       id="path4004"
       inkscape:connector-curvature="0"
       fill="#d6d6d6"
       stroke="none"
       fill-opacity="0.542" />
    <path
       inkscape:connector-curvature="0"
       id="path4006"
       d="m 276.57119,263.81515 5.82243,1.58794 1.05862,-11.90952 z"
       sodipodi:nodetypes="cccc"
       fill="#d6d6d6"
       stroke="none"
       fill-opacity="0.542" />
    <path
       sodipodi:nodetypes="cccc"
       d="m 282.65828,250.05303 4.49916,2.11726 3.44052,-8.469 z"
       id="path4008"
       inkscape:connector-curvature="0"
       fill="#d6d6d6"
       stroke="none"
       fill-opacity="0.542" />
    <path
       sodipodi:nodetypes="ccccc"
       inkscape:connector-curvature="0"
       id="path4010"
       d="m 383.76492,278.45621 c -2.20773,12.70814 2.48497,21.75043 14.45935,26.92431 34.39302,-18.52405 75.64141,-23.33737 100.21824,-61.49379 -12.39002,3.80049 -28.55724,-21.85466 -22.76931,-30.74688 -36.03181,10.20987 -62.24221,41.46563 -91.90828,65.31636 z"
       fill="url(#linearGradient4130)"
       stroke="none"
       fill-opacity="1" />
    <path
       sodipodi:nodetypes="ccccc"
       inkscape:connector-curvature="0"
       id="path4020"
       d="m 171.63633,253.63366 33.02729,-24.39517 c 44.09241,-9.86513 67.07941,34.01725 56.67184,64.92866 l -27.77295,24.77047 c 23.33325,-47.03208 -29.8875,-85.31411 -61.92618,-65.30396 z"
       fill="url(#linearGradient4132)"
       stroke="none"
       fill-opacity="1" />
    <path
       sodipodi:nodetypes="ccc"
       inkscape:connector-curvature="0"
       id="path4030"
       d="m 324.51267,161.2935 c 15.56,4.69205 21.43787,16.67887 20.91824,33.48572 -3.12328,-21.19802 -11.7159,-28.13669 -20.91824,-33.48572 z"
       fill="#3b3b3b"
       stroke="none"
       fill-opacity="1" />
    <path
       sodipodi:nodetypes="ccccc"
       inkscape:connector-curvature="0"
       id="path3107"
       d="m 236.35986,242.2964 c 9.70797,5.31585 17.46737,13.19272 20.74866,25.0842 l 5.26459,-3.40649 c 7.86486,-5.17793 -8.87049,-32.43575 -19.50994,-25.70357 z"
       fill="url(#linearGradient3883)"
       stroke="none"
       fill-opacity="1" />
    <path
       sodipodi:nodetypes="cc"
       inkscape:connector-curvature="0"
       id="path3885"
       d="m 264.80091,102.27823 c 47.21772,-33.228707 174.82804,90.8148 131.24154,161.92987"
       stroke-dasharray="none"
       stroke-opacity="0.618"
       fill="none"
       stroke="#ffffff"
       stroke-linejoin="round"
       stroke-linecap="round"
       stroke-width="1.626"
       stroke-miterlimit="4" />
    <path
       inkscape:connector-curvature="0"
       id="path3887"
       d="m 347.28067,250.22544 25.39014,2.94582 10.80133,23.28599"
       stroke-dasharray="none"
       stroke-opacity="0.588"
       fill="none"
       stroke="#ffffff"
       stroke-linejoin="round"
       stroke-linecap="round"
       stroke-width="1.626"
       stroke-miterlimit="4" />
  </g>
</svg>
