<?xml version="1.0" encoding="UTF-8" standalone="no"?>
<!-- Created with Inkscape (http://www.inkscape.org/) -->

<svg
   xmlns:dc="http://purl.org/dc/elements/1.1/"
   xmlns:cc="http://creativecommons.org/ns#"
   xmlns:rdf="http://www.w3.org/1999/02/22-rdf-syntax-ns#"
   xmlns:svg="http://www.w3.org/2000/svg"
   xmlns="http://www.w3.org/2000/svg"
   xmlns:xlink="http://www.w3.org/1999/xlink"
   xmlns:sodipodi="http://sodipodi.sourceforge.net/DTD/sodipodi-0.dtd"
   xmlns:inkscape="http://www.inkscape.org/namespaces/inkscape"
   id="svg2"
   inkscape:version="0.91 r13725"
   width="256"
   height="256"
   sodipodi:docname="folder-fun.svg"
   version="1.1">
  <metadata
     id="metadata8">
    <rdf:RDF>
      <cc:Work>
        <dc:format>image/svg+xml</dc:format>
        <dc:type
           rdf:resource="http://purl.org/dc/dcmitype/StillImage" />
        <dc:title />
      </cc:Work>
    </rdf:RDF>
  </metadata>
  <defs
     id="defs6">
    <linearGradient
       inkscape:collect="always"
       id="linearGradient2912">
      <stop
         id="stop2914"
         stop-color="#8f420b"
         stop-opacity="0" />
      <stop
         offset="1"
         id="stop2916"
         stop-color="#8f420b"
         stop-opacity="0.762" />
    </linearGradient>
    <linearGradient
       id="linearGradient2884"
       inkscape:collect="always">
      <stop
         id="stop2886"
         stop-color="#f1d4cb"
         stop-opacity="1" />
      <stop
         id="stop2888"
         offset="1"
         stop-color="#bd8b7d"
         stop-opacity="0" />
    </linearGradient>
    <linearGradient
       id="linearGradient2872"
       inkscape:collect="always">
      <stop
         id="stop2874"
         stop-color="#76390b"
         stop-opacity="0" />
      <stop
         id="stop2876"
         offset="1"
         stop-color="#55361e"
         stop-opacity="1" />
    </linearGradient>
    <linearGradient
       inkscape:collect="always"
       id="linearGradient2864">
      <stop
         id="stop2866"
         stop-color="#76390b"
         stop-opacity="1" />
      <stop
         offset="1"
         id="stop2868"
         stop-color="#f1d792"
         stop-opacity="0" />
    </linearGradient>
    <linearGradient
       id="linearGradient2840"
       inkscape:collect="always">
      <stop
         id="stop2842"
         stop-color="#793f10"
         stop-opacity="1" />
      <stop
         id="stop2844"
         offset="1"
         stop-color="#a46635"
         stop-opacity="0" />
    </linearGradient>
    <linearGradient
       inkscape:collect="always"
       id="linearGradient2820">
      <stop
         id="stop2822"
         stop-color="#8f420b"
         stop-opacity="0" />
      <stop
         offset="1"
         id="stop2824"
         stop-color="#a45b27"
         stop-opacity="1" />
    </linearGradient>
    <linearGradient
       id="linearGradient2802"
       inkscape:collect="always">
      <stop
         id="stop2804"
         stop-color="white"
         stop-opacity="1" />
      <stop
         id="stop2806"
         offset="1"
         stop-color="#bcb1af"
         stop-opacity="0" />
    </linearGradient>
    <linearGradient
       id="linearGradient2792"
       inkscape:collect="always">
      <stop
         id="stop2794"
         stop-color="#9a592e"
         stop-opacity="0" />
      <stop
         id="stop2796"
         offset="1"
         stop-color="#9a592e"
         stop-opacity="1" />
    </linearGradient>
    <linearGradient
       id="linearGradient2784"
       inkscape:collect="always">
      <stop
         id="stop2786"
         stop-color="#a76b35"
         stop-opacity="0" />
      <stop
         id="stop2788"
         offset="1"
         stop-color="#a76b35"
         stop-opacity="1" />
    </linearGradient>
    <linearGradient
       id="linearGradient2776"
       inkscape:collect="always">
      <stop
         id="stop2778"
         stop-color="#a46738"
         stop-opacity="0" />
      <stop
         id="stop2780"
         offset="1"
         stop-color="#a46738"
         stop-opacity="1" />
    </linearGradient>
    <linearGradient
       id="linearGradient2768"
       inkscape:collect="always">
      <stop
         id="stop2770"
         stop-color="#8f420b"
         stop-opacity="1" />
      <stop
         id="stop2772"
         offset="1"
         stop-color="#d09e7a"
         stop-opacity="0" />
    </linearGradient>
    <linearGradient
       gradientUnits="userSpaceOnUse"
       y2="143.89"
       x2="79.74"
       y1="148.24"
       x1="49.19"
       id="linearGradient2774"
       xlink:href="#linearGradient2768"
       inkscape:collect="always"
       gradientTransform="translate(129.6634,18.120012)" />
    <radialGradient
       gradientUnits="userSpaceOnUse"
       gradientTransform="matrix(-0.931013,-8.759763e-8,1.220285e-7,-1.296954,325.4261,342.34661)"
       r="36.09"
       fy="141.16"
       fx="101.38"
       cy="141.16"
       cx="101.38"
       id="radialGradient2782"
       xlink:href="#linearGradient2776"
       inkscape:collect="always" />
    <radialGradient
       gradientUnits="userSpaceOnUse"
       gradientTransform="matrix(-1.007255,0.152268,-0.143376,-0.948439,392.1873,147.62291)"
       r="29.89"
       fy="74.47"
       fx="125.47"
       cy="74.47"
       cx="125.47"
       id="radialGradient2790"
       xlink:href="#linearGradient2784"
       inkscape:collect="always" />
    <radialGradient
       gradientUnits="userSpaceOnUse"
       gradientTransform="matrix(1.529229,0.56036,-0.557327,1.520953,92.25487,-111.22479)"
       r="15.545"
       fy="78.56"
       fx="157.51"
       cy="78.56"
       cx="157.51"
       id="radialGradient2798"
       xlink:href="#linearGradient2792"
       inkscape:collect="always" />
    <radialGradient
       gradientUnits="userSpaceOnUse"
       gradientTransform="matrix(1.237963,-0.25786,0.136699,0.656279,87.96299,77.643542)"
       r="23.18"
       fy="57.47"
       fx="146.92"
       cy="57.47"
       cx="146.92"
       id="radialGradient2808"
       xlink:href="#linearGradient2802"
       inkscape:collect="always" />
    <linearGradient
       gradientUnits="userSpaceOnUse"
       y2="178.09"
       x2="143.26"
       y1="182.93"
       x1="125.78"
       id="linearGradient2818"
       xlink:href="#linearGradient2820"
       inkscape:collect="always"
       gradientTransform="translate(129.6634,18.120012)" />
    <linearGradient
       gradientUnits="userSpaceOnUse"
       y2="90.51"
       x2="119.05"
       y1="108.9"
       x1="119.52"
       id="linearGradient2834"
       xlink:href="#linearGradient2912"
       inkscape:collect="always"
       gradientTransform="translate(129.6634,18.120012)" />
    <linearGradient
       gradientUnits="userSpaceOnUse"
       y2="78.83"
       x2="90.995"
       y1="91.85"
       x1="82.56"
       id="linearGradient2846"
       xlink:href="#linearGradient2840"
       inkscape:collect="always"
       gradientTransform="translate(129.6634,18.120012)" />
    <linearGradient
       gradientUnits="userSpaceOnUse"
       y2="137.19"
       x2="90.51"
       y1="144.94"
       x1="73.74"
       id="linearGradient2862"
       xlink:href="#linearGradient2864"
       inkscape:collect="always"
       gradientTransform="translate(129.6634,18.120012)" />
    <radialGradient
       gradientUnits="userSpaceOnUse"
       gradientTransform="matrix(0.927538,0.373728,-0.509141,1.263615,182.59818,-45.838548)"
       r="12.356"
       fy="89.95"
       fx="98.48"
       cy="89.95"
       cx="98.48"
       id="radialGradient2880"
       xlink:href="#linearGradient2872"
       inkscape:collect="always" />
    <radialGradient
       gradientUnits="userSpaceOnUse"
       gradientTransform="matrix(0.861965,-0.506968,1,1.700236,77.71337,2.816892)"
       r="7.694"
       fy="59.04"
       fx="51.36"
       cy="59.04"
       cx="51.36"
       id="radialGradient2890"
       xlink:href="#linearGradient2884"
       inkscape:collect="always" />
    <linearGradient
       gradientUnits="userSpaceOnUse"
       y2="53.958"
       x2="89.54"
       y1="38.957"
       x1="80.8"
       id="linearGradient2900"
       xlink:href="#linearGradient2912"
       inkscape:collect="always"
       gradientTransform="translate(129.6634,18.120012)" />
    <linearGradient
       gradientUnits="userSpaceOnUse"
       y2="49.642"
       x2="139.39"
       y1="70.935"
       x1="97.25"
       id="linearGradient2910"
       xlink:href="#linearGradient2912"
       inkscape:collect="always"
       gradientTransform="translate(129.6634,18.120012)" />
    <linearGradient
       inkscape:collect="always"
       id="linearGradient4167">
      <stop
         id="stop4169"
         stop-color="#adadad"
         stop-opacity="0.624" />
      <stop
         offset="1"
         id="stop4171"
         stop-color="#ffffff"
         stop-opacity="0.973" />
    </linearGradient>
    <linearGradient
       id="linearGradient4223"
       inkscape:collect="always">
      <stop
         id="stop4225"
         stop-color="#bebebe"
         stop-opacity="0.803" />
      <stop
         id="stop4227"
         offset="1"
         stop-color="#9f9f9f"
         stop-opacity="0.732" />
    </linearGradient>
    <linearGradient
       id="linearGradient4211"
       inkscape:collect="always">
      <stop
         id="stop4213"
         stop-color="#9f9f9f"
         stop-opacity="0.634" />
      <stop
         id="stop4215"
         offset="1"
         stop-color="#696969"
         stop-opacity="0" />
    </linearGradient>
    <linearGradient
       id="linearGradient4171"
       inkscape:collect="always">
      <stop
         id="stop4173"
         stop-color="#b2b2b2"
         stop-opacity="0.624" />
      <stop
         id="stop4175"
         offset="1"
         stop-color="#ffffff"
         stop-opacity="0.698" />
    </linearGradient>
    <linearGradient
       id="linearGradient4142"
       inkscape:collect="always">
      <stop
         id="stop4144"
         stop-color="#909090"
         stop-opacity="0.519" />
      <stop
         id="stop4146"
         offset="1"
         stop-color="#696969"
         stop-opacity="0" />
    </linearGradient>
    <linearGradient
       gradientUnits="userSpaceOnUse"
       y2="324.36"
       x2="278.75"
       y1="63.25"
       x1="165.74"
       id="linearGradient4148"
       xlink:href="#linearGradient4142"
       inkscape:collect="always" />
    <filter
       height="1.1"
       y="-0.05"
       width="1.056"
       x="-0.028"
       id="filter4160"
       inkscape:collect="always"
       color-interpolation-filters="sRGB">
      <feGaussianBlur
         id="feGaussianBlur4162"
         stdDeviation="3.56251"
         inkscape:collect="always" />
    </filter>
    <linearGradient
       spreadMethod="reflect"
       gradientUnits="userSpaceOnUse"
       y2="114.16"
       x2="387.93"
       y1="106.85"
       x1="379.78"
       id="linearGradient4177"
       xlink:href="#linearGradient4167"
       inkscape:collect="always" />
    <linearGradient
       gradientTransform="translate(26.808511,-26.382979)"
       y2="114.16"
       x2="387.93"
       y1="108.46"
       x1="381.27"
       spreadMethod="reflect"
       gradientUnits="userSpaceOnUse"
       id="linearGradient4207"
       xlink:href="#linearGradient4171"
       inkscape:collect="always" />
    <linearGradient
       gradientUnits="userSpaceOnUse"
       y2="125.1"
       x2="281.1"
       y1="61.711"
       x1="284.7"
       id="linearGradient4217"
       xlink:href="#linearGradient4211"
       inkscape:collect="always" />
    <linearGradient
       gradientUnits="userSpaceOnUse"
       y2="103.09"
       x2="255.7"
       y1="93.26"
       x1="259.02"
       id="linearGradient4229"
       xlink:href="#linearGradient4223"
       inkscape:collect="always" />
    <linearGradient
       gradientUnits="userSpaceOnUse"
       y2="117.29"
       x2="258.99"
       y1="102.54"
       x1="262.84"
       id="linearGradient4237"
       xlink:href="#linearGradient4223"
       inkscape:collect="always" />
    <filter
       height="1.136"
       y="-0.068"
       width="1.049"
       x="-0.024"
       id="filter4257"
       inkscape:collect="always"
       color-interpolation-filters="sRGB">
      <feGaussianBlur
         id="feGaussianBlur4259"
         stdDeviation="2.75443"
         inkscape:collect="always" />
    </filter>
  </defs>
  <sodipodi:namedview
     pagecolor="#ffffff"
     bordercolor="#666666"
     borderopacity="1"
     objecttolerance="10"
     gridtolerance="10"
     guidetolerance="10"
     inkscape:pageopacity="0"
     inkscape:pageshadow="2"
     inkscape:window-width="1920"
     inkscape:window-height="1056"
     id="namedview4"
     showgrid="false"
     inkscape:zoom="3.2382812"
     inkscape:cx="128"
     inkscape:cy="128"
     inkscape:window-x="0"
     inkscape:window-y="0"
     inkscape:window-maximized="1"
     inkscape:current-layer="svg2" />
  <g
     transform="matrix(0.77128144,0,0,0.77128144,-80.629969,-24.208783)"
     id="g4261">
    <path
       d="m 137.15847,253.33333 1.0929,10.92897 c 1.69466,2.56439 1.62485,5.1824 6.55737,7.10382 l 234.9905,77.59563 c 4.36168,2.76045 7.27409,1.93611 10.91114,-1.0929 l 16.39344,-17.48633 z"
       id="path4239"
       inkscape:connector-curvature="0"
       sodipodi:nodetypes="ccccccc"
       stroke-opacity="1"
       fill="#000000"
       filter="url(#filter4257)"
       fill-rule="evenodd"
       stroke="none"
       stroke-linejoin="miter"
       fill-opacity="0.514"
       stroke-linecap="butt"
       stroke-width="1" />
    <path
       d="M 146.27659,241.2766 139.89362,67.340426 c -0.0538,-6.437983 2.49923,-9.41706 7.97872,-7.978724 l 135.10638,37.234043 c 8.12648,2.325734 17.80936,-1.266511 19.14894,-15.425533 0.93604,-9.893676 4.6708,-17.669623 18.61702,-14.893617 l 85.6383,19.680851 c 6.41139,1.511285 7.81765,4.447577 7.4468,11.702128 l -2.12765,230.851066 -5.31915,5.85106 -254.86675,-84.34164 z"
       id="path4198"
       inkscape:connector-curvature="0"
       sodipodi:nodetypes="ccccsccccccc"
       stroke-opacity="1"
       fill="#000000"
       fill-rule="evenodd"
       stroke="none"
       stroke-linejoin="miter"
       fill-opacity="0.73"
       stroke-linecap="butt"
       stroke-width="1" />
    <path
       sodipodi:nodetypes="ccccsccccccc"
       inkscape:connector-curvature="0"
       id="path4209"
       d="M 146.27659,241.2766 139.89362,67.340426 c -0.0538,-6.437983 2.49923,-9.41706 7.97872,-7.978724 l 135.10638,37.234043 c 8.12648,2.325734 17.80936,-1.266511 19.14894,-15.425533 0.93604,-9.893676 4.6708,-17.669623 18.61702,-14.893617 l 85.6383,19.680851 c 6.41139,1.511285 7.81765,4.447577 7.4468,11.702128 l -2.12765,230.851066 -5.31915,5.85106 -254.86675,-84.34164 z"
       stroke-opacity="1"
       fill="url(#linearGradient4217)"
       fill-rule="evenodd"
       stroke="none"
       stroke-linejoin="miter"
       fill-opacity="1"
       stroke-linecap="butt"
       stroke-width="1" />
    <path
       inkscape:connector-curvature="0"
       id="path4221"
       d="m 142.62295,64.262295 267.21311,65.573775 1.0929,194.53552 -256.8306,-92.89618 z"
       sodipodi:nodetypes="ccccc"
       stroke-opacity="0.705"
       fill="url(#linearGradient4229)"
       fill-rule="evenodd"
       stroke="#cecece"
       stroke-linejoin="miter"
       fill-opacity="1"
       stroke-linecap="butt"
       stroke-width="1" />
    <path
       d="m 136.61202,73.005464 267.21311,65.573776 4.37159,189.07104 -260.10929,-87.4317 z"
       id="path4219"
       inkscape:connector-curvature="0"
       stroke-opacity="0.705"
       fill="url(#linearGradient4237)"
       fill-rule="evenodd"
       stroke="#cecece"
       stroke-linejoin="miter"
       fill-opacity="1"
       stroke-linecap="butt"
       stroke-width="1" />
    <path
       d="m 116.2037,92.685185 c 1.13182,-4.540599 4.63483,-9.034209 10.68729,-7.545261 L 261.11111,123.7037 c 6.48148,1.63624 16.36287,0.33244 20.83334,-11.11111 4.00878,-10.26173 10.87392,-18.779525 25.46296,-16.203701 l 68.51852,13.888891 c 12.25335,3.29007 11.96705,11.68066 12.96296,18.51851 l 12.5,205.55556 c 0.64976,7.44283 -5.7507,13.21303 -12.96296,10.18518 L 144.90741,262.59259 c -4.92216,-1.55932 -8.93994,-3.09709 -9.25926,-10.18518 z"
       id="path4138"
       inkscape:connector-curvature="0"
       sodipodi:nodetypes="cccscccccccc"
       stroke-opacity="1"
       fill="#000000"
       fill-rule="evenodd"
       stroke="none"
       stroke-linejoin="miter"
       fill-opacity="0.77"
       stroke-linecap="butt"
       stroke-width="1" />
    <path
       sodipodi:nodetypes="cccsccccccc"
       inkscape:connector-curvature="0"
       id="path4140"
       d="m 116.2037,92.685185 c 1.13182,-4.540599 4.63483,-9.034209 10.68729,-7.545261 L 261.11111,123.7037 c 6.48148,1.63624 16.36287,0.33244 20.83334,-11.11111 4.00878,-10.26173 10.87392,-18.779525 25.46296,-16.203701 l 68.51852,13.888891 c 12.25335,3.29007 11.96705,11.68066 12.96296,18.51851 l 12.5,205.55556 c 0.64976,7.44283 -5.7507,13.21303 -12.96296,10.18518 L 209.72222,283.88889 C 173.76467,257.82993 120.35853,138.21611 116.2037,92.685185 Z"
       stroke-opacity="1"
       fill="url(#linearGradient4148)"
       fill-rule="evenodd"
       stroke="none"
       stroke-linejoin="miter"
       fill-opacity="1"
       stroke-linecap="butt"
       stroke-width="1" />
    <path
       d="m 177.77778,215.83334 -80.555558,82.4074 255.555558,88.42593 38.75029,-40.87068 c 4.63488,-1.3015 9.96817,-1.38077 9.86082,-10.98118 L 396.29629,282.5 Z"
       id="path4150"
       inkscape:connector-curvature="0"
       sodipodi:nodetypes="ccccccc"
       stroke-opacity="1"
       fill="#000000"
       filter="url(#filter4160)"
       fill-rule="evenodd"
       stroke="none"
       stroke-linejoin="miter"
       fill-opacity="0.273"
       stroke-linecap="butt"
       stroke-width="1" />
    <path
       inkscape:connector-curvature="0"
       d="m 130.29688,79.757812 c -3.73674,-0.05935 -6.2712,2.374412 -7.66211,5.353516 1.24508,-0.330919 2.6592,-0.363492 4.25585,0.0293 l 134.22071,38.562492 c 5.49861,1.38812 13.44221,0.65773 18.45508,-6.58203 -4.30627,2.38583 -9.16625,2.43292 -12.90039,1.49024 L 132.44727,80.046875 c -0.75656,-0.186118 -1.47316,-0.278306 -2.15039,-0.289063 z m 177.54687,11.074219 c -7.10689,0.02874 -11.9932,3.152137 -15.51367,7.738281 3.82724,-2.318415 8.71897,-3.304404 15.07812,-2.18164 l 68.51758,13.888668 c 12.25335,3.29007 11.96698,11.68169 12.96289,18.51954 l 12.5,205.55468 c 0.1753,2.00795 -0.17581,3.88521 -0.90429,5.50977 4.09619,-1.28823 6.90142,-5.55587 6.46093,-10.60156 l -12.5,-205.55665 c -0.99591,-6.83785 -0.70954,-15.2275 -12.96289,-18.51757 L 312.96289,91.296875 c -1.82363,-0.321978 -3.52737,-0.47128 -5.11914,-0.464844 z"
       id="path4164"
       stroke-opacity="1"
       fill="#b5b5b5"
       fill-rule="evenodd"
       stroke="none"
       stroke-linejoin="miter"
       fill-opacity="1"
       stroke-linecap="butt"
       stroke-width="1" />
    <path
       id="path4169"
       d="m 375.92578,110.27734 c 12.25335,3.29007 11.96698,11.68169 12.96289,18.51954 2.18404,-2.05828 3.13422,-2.71335 5.55664,-5.09376 -0.99591,-6.83785 -0.70954,-15.2275 -12.96289,-18.51757 -2.39781,2.28773 -2.9924,2.79876 -5.55664,5.09179 z"
       inkscape:connector-curvature="0"
       sodipodi:nodetypes="ccccc"
       stroke-opacity="1"
       fill="url(#linearGradient4177)"
       fill-rule="evenodd"
       stroke="none"
       stroke-linejoin="miter"
       fill-opacity="1"
       stroke-linecap="butt"
       stroke-width="1" />
    <path
       inkscape:connector-curvature="0"
       d="m 151.9043,54.332031 c -2.67378,0.112285 -4.27807,1.802415 -4.90039,4.837891 0.28199,0.05237 0.56972,0.11281 0.86914,0.191406 l 135.10547,37.234375 c 5.41154,1.54874 11.51034,0.467116 15.3789,-4.605469 -2.77183,0.801996 -5.76159,0.727663 -8.57031,-0.07617 L 154.68164,54.681641 c -1.0274,-0.269688 -1.9536,-0.384203 -2.77734,-0.34961 z m 170.88281,6.701172 c -5.39865,-0.126557 -8.73663,1.852669 -10.81445,5.035156 2.34672,-0.518874 5.2277,-0.496408 8.77148,0.208985 l 85.63867,19.679687 c 6.41139,1.511285 7.81812,4.448574 7.44727,11.703125 l -2.12891,230.849614 -0.47461,0.52148 1.96485,0.65039 5.31836,-5.85156 2.1289,-230.851564 c 0.37085,-7.254551 -1.03587,-10.189887 -7.44726,-11.701172 L 327.55273,61.595703 c -1.74327,-0.347001 -3.32697,-0.528775 -4.76562,-0.5625 z"
       id="path4200"
       stroke-opacity="1"
       fill="#b0b0b0"
       fill-rule="evenodd"
       stroke="none"
       stroke-linejoin="miter"
       fill-opacity="1"
       stroke-linecap="butt"
       stroke-width="1" />
    <path
       sodipodi:nodetypes="ccccc"
       inkscape:connector-curvature="0"
       d="m 403.12392,85.141164 c 12.4021,2.867396 10.71654,4.984484 10.70306,18.467586 2.18404,-2.05828 4.25114,-3.752349 6.67356,-6.132759 0.48467,-12.136762 1.00482,-14.993724 -11.89791,-17.244792 -2.39781,2.28773 -2.91447,2.616935 -5.47871,4.909965 z"
       id="path4205"
       stroke-opacity="1"
       fill="url(#linearGradient4207)"
       fill-rule="evenodd"
       stroke="none"
       stroke-linejoin="miter"
       fill-opacity="1"
       stroke-linecap="butt"
       stroke-width="1" />
  </g>
  <g
     id="text4194"
     transform="translate(39.035972,-61.088591)"
     font-style="normal"
     word-spacing="0"
     line-height="125%"
     font-weight="bold"
     font-stretch="normal"
     letter-spacing="0"
     font-variant="normal"
     font-size="7.5"
     stroke-opacity="1"
     font-family="STIXIntegralsSm"
     fill="#000000"
     stroke="none"
     stroke-linejoin="miter"
     fill-opacity="1"
     stroke-linecap="butt"
     stroke-width="1">
    <path
       d="m -33.815041,58.840733 -2.204589,0 -0.347901,0.996093 -1.417236,0 2.025146,-5.467529 1.680909,0 2.025146,5.467529 -1.417236,0 -0.344239,-0.996093 z m -1.853027,-1.014405 1.497803,0 -0.747071,-2.175293 -0.750732,2.175293 z"
       id="path4199"
       inkscape:connector-curvature="0" />
    <path
       d="m -31.33213,54.369297 2.340087,0 q 1.043702,0 1.600342,0.465088 0.560303,0.461426 0.560303,1.318359 0,0.860596 -0.560303,1.325684 -0.55664,0.461426 -1.600342,0.461426 l -0.930175,0 0,1.896972 -1.409912,0 0,-5.467529 z m 1.409912,1.021729 0,1.527099 0.780029,0 q 0.410156,0 0.633545,-0.197754 0.223389,-0.201416 0.223389,-0.567627 0,-0.366211 -0.223389,-0.563965 -0.223389,-0.197753 -0.633545,-0.197753 l -0.780029,0 z"
       id="path4201"
       inkscape:connector-curvature="0" />
  </g>
  <g
     id="g4564"
     transform="matrix(0.84992374,0,0,0.84992374,-94.922909,50.686099)">
    <path
       sodipodi:nodetypes="ccccccccccccccccccccc"
       id="path2918"
       d="M 190.63882,214.11245 C 174.0181,176.81772 178.31136,138.47728 187.2513,99.904511 169.12665,100.07386 165.85623,88.764954 176.12086,66.997139 c -8.46667,10.219683 -16.04826,10.703523 -23.22873,6.775047 -7.46037,-0.998172 -1.65868,-5.311859 0.48393,-8.710775 5.82421,-3.294311 10.95191,-3.80261 15.48582,-1.935728 11.58417,-8.577472 21.15613,-5.58472 27.58413,15.485822 8.64737,-12.161699 17.10575,-24.512404 35.81097,-26.616257 0.26787,-7.538977 2.21469,-15.374235 15.00189,-17.905482 -1.01051,-5.728073 0.0804,-10.055201 6.77505,-10.646503 2.43711,5.484562 3.65885,10.969124 0.96786,16.453687 3.67441,6.129804 1.09128,12.259609 -2.90359,18.389414 l 11.61436,14.034026 c 12.44239,-2.832043 24.04464,-8.464534 40.16635,0.967864 21.94622,9.248957 11.58697,24.067822 -3.38752,39.682416 -5.30452,11.19339 -17.51032,20.38792 -16.45368,0.48394 -22.81244,19.02761 -23.16039,34.09091 -24.68053,49.36106 5.81663,2.31909 12.49643,4.29291 5.80718,11.61436 3.28457,4.8685 1.77895,7.3419 0,9.67864 2.5261,11.00516 4.05972,22.17572 14.03403,31.93951 -29.51985,17.74679 -59.03971,15.13756 -88.55956,-1.93573 z"
       inkscape:connector-curvature="0"
       style="fill:#d09e7a;fill-opacity:1;fill-rule:evenodd;stroke:#000000;stroke-width:1;stroke-linecap:butt;stroke-linejoin:miter;stroke-opacity:1" />
    <path
       sodipodi:nodetypes="cccccc"
       id="path2892"
       d="m 196.44601,78.127569 9.9206,1.20983 28.18904,-22.139887 -2.78261,-4.718337 c -8.25469,1.118934 -14.8713,4.421963 -20.53182,8.999793 -5.66051,4.577829 -10.36493,10.430461 -14.79521,16.648601 z"
       inkscape:connector-curvature="0"
       stroke-miterlimit="4"
       style="fill:url(#linearGradient2900);fill-opacity:1;fill-rule:evenodd;stroke:#000000;stroke-width:0;stroke-linecap:butt;stroke-linejoin:miter;stroke-miterlimit:4;stroke-dasharray:none;stroke-opacity:1" />
    <path
       sodipodi:nodetypes="cccccc"
       id="path2938"
       d="m 208.5443,112.97067 c -0.6187,23.18177 -2.46948,46.67156 16.93762,64.84688 11.9864,5.30705 23.17771,-2.10702 33.87525,-17.42155 4.73171,3.24161 9.85287,6.26069 5.80718,14.51796 -18.93644,49.42927 -60.59131,29.63852 -64.84689,6.29112 -7.54133,-25.03005 -7.39894,-48.3526 8.22684,-68.23441 z"
       inkscape:connector-curvature="0"
       stroke-miterlimit="4"
       style="fill:url(#radialGradient2782);fill-opacity:1;fill-rule:evenodd;stroke:#000000;stroke-width:0;stroke-linecap:butt;stroke-linejoin:miter;stroke-miterlimit:4;stroke-dasharray:none;stroke-opacity:1" />
    <path
       sodipodi:nodetypes="ccc"
       id="path2940"
       d="m 226.93372,101.35631 c -10.33332,40.41953 49.72402,30.84754 57.58791,4.83932 -17.95517,-25.808762 -37.05255,-29.344312 -57.58791,-4.83932 z"
       inkscape:connector-curvature="0"
       stroke-miterlimit="4"
       style="fill:url(#radialGradient2790);fill-opacity:1;fill-rule:evenodd;stroke:#000000;stroke-width:0;stroke-linecap:butt;stroke-linejoin:miter;stroke-miterlimit:4;stroke-dasharray:none;stroke-opacity:1" />
    <path
       sodipodi:nodetypes="ccc"
       id="path2942"
       d="m 213.38363,93.129464 c 1.05692,7.931946 6.42172,9.402086 12.58223,9.678636 -14.91555,13.25247 -21.51228,5.01995 -12.58223,-9.678636 z"
       inkscape:connector-curvature="0"
       stroke-miterlimit="4"
       style="fill:url(#linearGradient2846);fill-opacity:1;fill-rule:evenodd;stroke:#000000;stroke-width:0;stroke-linecap:butt;stroke-linejoin:miter;stroke-miterlimit:4;stroke-dasharray:none;stroke-opacity:1" />
    <path
       sodipodi:nodetypes="cccc"
       id="path2944"
       d="m 283.55376,105.7117 c 11.7732,-9.22981 21.52142,-18.893538 15.48582,-31.939514 -21.65509,-10.886745 -34.84224,-2.901877 -44.52174,8.226843 10.28336,5.485333 21.1958,8.454349 29.03592,23.712671 z"
       inkscape:connector-curvature="0"
       stroke-miterlimit="4"
       style="fill:#0d0200;fill-opacity:1;fill-rule:evenodd;stroke:#000000;stroke-width:0;stroke-linecap:butt;stroke-linejoin:miter;stroke-miterlimit:4;stroke-dasharray:none;stroke-opacity:1" />
    <path
       sodipodi:nodetypes="ccc"
       id="path2946"
       d="m 285.00555,124.58504 c 17.64662,-2.5614 46.36531,-33.500404 18.38942,-49.361059 6.62392,21.008588 -7.84314,34.484679 -18.38942,49.361059 z"
       inkscape:connector-curvature="0"
       stroke-miterlimit="4"
       style="fill:url(#radialGradient2798);fill-opacity:1;fill-rule:evenodd;stroke:#000000;stroke-width:0;stroke-linecap:butt;stroke-linejoin:miter;stroke-miterlimit:4;stroke-dasharray:none;stroke-opacity:1" />
    <ellipse
       id="path2948"
       cx="223.78999"
       cy="69.419998"
       rx="8.4689999"
       ry="10.163"
       stroke-miterlimit="4"
       style="opacity:1;fill:#b8adbb;fill-opacity:1;fill-rule:nonzero;stroke:#978319;stroke-width:0.40000001;stroke-linecap:round;stroke-linejoin:round;stroke-miterlimit:4;stroke-dasharray:none;stroke-dashoffset:0;stroke-opacity:1" />
    <ellipse
       id="path2950"
       cx="242.17999"
       cy="66.029999"
       rx="7.5139999"
       ry="8.724"
       stroke-miterlimit="4"
       style="opacity:1;fill:#b8adbb;fill-opacity:1;fill-rule:nonzero;stroke:#978319;stroke-width:0.40000001;stroke-linecap:round;stroke-linejoin:round;stroke-miterlimit:4;stroke-dasharray:none;stroke-dashoffset:0;stroke-opacity:1" />
    <path
       sodipodi:nodetypes="cccccc"
       id="path2952"
       d="m 210.96396,108.61529 c 3.01381,2.36052 7.63524,1.50582 14.51796,-3.87146 -1.98764,18.15517 9.76097,23.28139 38.71456,20.80907 -11.81754,14.65588 -12.20712,33.07776 -8.71078,46.45747 -13.56212,3.94158 -26.83136,14.03353 -41.61814,-7.74291 -7.82102,-19.40737 -5.10687,-37.49784 -2.9036,-55.65217 z"
       inkscape:connector-curvature="0"
       style="fill:#090915;fill-opacity:1;fill-rule:evenodd;stroke:#000000;stroke-width:1;stroke-linecap:butt;stroke-linejoin:miter;stroke-opacity:1" />
    <ellipse
       id="path2954"
       cx="226.92999"
       cy="72.804001"
       rx="3.8710001"
       ry="3.388"
       stroke-miterlimit="4"
       style="opacity:1;fill:#090915;fill-opacity:1;fill-rule:nonzero;stroke:#978319;stroke-width:0.2;stroke-linecap:round;stroke-linejoin:round;stroke-miterlimit:4;stroke-dasharray:none;stroke-dashoffset:0;stroke-opacity:1" />
    <ellipse
       id="path2956"
       cx="242.89999"
       cy="69.901001"
       rx="3.8710001"
       ry="3.388"
       stroke-miterlimit="4"
       style="opacity:1;fill:#090915;fill-opacity:1;fill-rule:nonzero;stroke:#978319;stroke-width:0.2;stroke-linecap:round;stroke-linejoin:round;stroke-miterlimit:4;stroke-dasharray:none;stroke-dashoffset:0;stroke-opacity:1" />
    <path
       d="M 190.63882,214.11245 C 174.0181,176.81772 178.31136,138.47728 187.2513,99.904511 c 3.2276,5.906449 6.96338,11.129149 11.73332,15.285179 -6.77982,23.7921 -5.79476,65.44395 13.79409,108.92365 -7.37996,-2.36825 -14.75992,-5.73257 -22.13989,-10.00089 z"
       id="path1881"
       sodipodi:nodetypes="ccccc"
       inkscape:connector-curvature="0"
       stroke-miterlimit="4"
       style="fill:url(#linearGradient2774);fill-opacity:1;fill-rule:evenodd;stroke:#000000;stroke-width:0;stroke-linecap:butt;stroke-linejoin:miter;stroke-miterlimit:4;stroke-dasharray:none;stroke-opacity:1" />
    <path
       d="m 283.55376,105.7117 c 11.7732,-9.22981 21.52142,-18.893538 15.48582,-31.939514 -21.65509,-10.886745 -34.84224,-2.901877 -44.52174,8.226843 10.28336,5.485333 21.1958,8.454349 29.03592,23.712671 z"
       id="path2800"
       sodipodi:nodetypes="cccc"
       inkscape:connector-curvature="0"
       stroke-miterlimit="4"
       style="fill:url(#radialGradient2808);fill-opacity:1;fill-rule:evenodd;stroke:#000000;stroke-width:0;stroke-linecap:butt;stroke-linejoin:miter;stroke-miterlimit:4;stroke-dasharray:none;stroke-opacity:1" />
    <path
       sodipodi:nodetypes="cccc"
       id="path2810"
       d="m 264.68042,176.84969 c 0.0209,13.94815 4.18248,26.86112 14.51796,38.23062 l -20.32515,10.16257 c -3.862,-15.64792 -5.62208,-31.471 5.80719,-48.39319 z"
       inkscape:connector-curvature="0"
       stroke-miterlimit="4"
       style="fill:url(#linearGradient2818);fill-opacity:1;fill-rule:evenodd;stroke:#000000;stroke-width:0;stroke-linecap:butt;stroke-linejoin:miter;stroke-miterlimit:4;stroke-dasharray:none;stroke-opacity:1" />
    <path
       sodipodi:nodetypes="ccc"
       id="path2854"
       d="m 209.02824,116.84212 c -1.14709,23.6589 -2.71022,47.3802 21.29301,67.26655 -33.64406,-14.95601 -28.0691,-40.94237 -21.29301,-67.26655 z"
       inkscape:connector-curvature="0"
       stroke-miterlimit="4"
       style="fill:url(#linearGradient2862);fill-opacity:1;fill-rule:evenodd;stroke:#000000;stroke-width:0;stroke-linecap:butt;stroke-linejoin:miter;stroke-miterlimit:4;stroke-dasharray:none;stroke-opacity:1" />
    <path
       sodipodi:nodetypes="ccc"
       id="path2826"
       d="m 227.41766,103.29203 c 5.0644,29.39015 42.61889,21.47368 55.16824,1.93573 -17.69216,2.49241 -34.99999,6.71427 -55.16824,-1.93573 z"
       inkscape:connector-curvature="0"
       stroke-miterlimit="4"
       style="fill:url(#linearGradient2834);fill-opacity:1;fill-rule:evenodd;stroke:#000000;stroke-width:0;stroke-linecap:butt;stroke-linejoin:miter;stroke-miterlimit:4;stroke-dasharray:none;stroke-opacity:1" />
    <path
       sodipodi:nodetypes="cc"
       id="path2836"
       d="M 209.99611,67.481065 C 212.094,56.675378 217.75622,54.78053 224.998,56.834562"
       inkscape:connector-curvature="0"
       stroke-miterlimit="4"
       style="fill:none;fill-rule:evenodd;stroke:#000000;stroke-width:4;stroke-linecap:round;stroke-linejoin:round;stroke-miterlimit:4;stroke-dasharray:none;stroke-opacity:1" />
    <path
       sodipodi:nodetypes="cc"
       id="path2838"
       d="m 234.67663,57.802426 c 0.12483,-6.062335 13.00057,-5.573101 15.96976,2.41966"
       inkscape:connector-curvature="0"
       stroke-miterlimit="4"
       style="fill:none;fill-rule:evenodd;stroke:#000000;stroke-width:4;stroke-linecap:round;stroke-linejoin:round;stroke-miterlimit:4;stroke-dasharray:none;stroke-opacity:1" />
    <path
       sodipodi:nodetypes="cccccccc"
       id="path2848"
       d="m 215.31935,169.59071 7.25898,-3.87145 c -22.69613,14.38566 -25.20907,33.2007 -8.71076,39.19848 15.72927,0.32628 31.86116,1.63668 36.29489,-25.64839 -3.09481,-8.95862 -6.81535,-16.35291 -15.00189,-12.58223 -2.94158,-10.3048 -7.24019,-9.31112 -14.03403,-6.77505 l -7.74292,1.93573 1.93573,7.74291 z"
       inkscape:connector-curvature="0"
       stroke-miterlimit="4"
       style="fill:#c5666e;fill-opacity:1;fill-rule:evenodd;stroke:#000000;stroke-width:0.40000001;stroke-linecap:butt;stroke-linejoin:miter;stroke-miterlimit:4;stroke-dasharray:none;stroke-opacity:1" />
    <path
       sodipodi:nodetypes="ccc"
       id="path2850"
       d="m 230.80518,160.396 c -22.76469,16.24496 -36.86929,53.66743 5.32325,34.8431 -33.55013,1.71093 -17.73621,-14.76586 -5.32325,-34.8431 z"
       inkscape:connector-curvature="0"
       stroke-miterlimit="4"
       style="fill:#d09297;fill-opacity:1;fill-rule:evenodd;stroke:#000000;stroke-width:0;stroke-linecap:butt;stroke-linejoin:miter;stroke-miterlimit:4;stroke-dasharray:none;stroke-opacity:1" />
    <path
       sodipodi:nodetypes="cc"
       id="path2852"
       d="m 237.09629,167.65498 c 6.17068,7.4254 -1.51714,13.11849 -4.83931,19.35728"
       inkscape:connector-curvature="0"
       style="fill:#b55d62;fill-opacity:1;fill-rule:evenodd;stroke:#000000;stroke-width:1;stroke-linecap:butt;stroke-linejoin:miter;stroke-opacity:1" />
    <path
       sodipodi:nodetypes="ccc"
       id="path2870"
       d="m 216.28722,99.904507 c 13.54517,-4.994305 19.06043,0.335573 23.71266,6.775043 -0.41121,-14.090883 -11.69364,-16.861107 -23.71266,-6.775043 z"
       inkscape:connector-curvature="0"
       stroke-miterlimit="4"
       style="fill:url(#radialGradient2880);fill-opacity:1;fill-rule:evenodd;stroke:#000000;stroke-width:0;stroke-linecap:butt;stroke-linejoin:miter;stroke-miterlimit:4;stroke-dasharray:none;stroke-opacity:1" />
    <path
       sodipodi:nodetypes="ccc"
       id="path2882"
       d="m 179.02445,64.577473 9.19471,25.164462 C 173.02019,80.07651 169.70473,71.661982 179.02445,64.577473 Z"
       inkscape:connector-curvature="0"
       stroke-miterlimit="4"
       style="fill:url(#radialGradient2890);fill-opacity:1;fill-rule:evenodd;stroke:#a3781a;stroke-width:0.60000002;stroke-linecap:butt;stroke-linejoin:miter;stroke-miterlimit:4;stroke-dasharray:none;stroke-opacity:1" />
    <path
       sodipodi:nodetypes="ccccc"
       id="path2902"
       d="m 235.16057,72.804317 c 10.77069,4.72728 23.44124,2.805069 36.77883,-1.451796 -7.77044,2.083273 -11.88788,5.993048 -14.51796,10.646503 -11.29175,0.441084 -22.58349,7.569704 -33.87524,0 4.46672,-1.874367 9.58735,-2.440923 11.61437,-9.194707 z"
       inkscape:connector-curvature="0"
       stroke-miterlimit="4"
       style="fill:url(#linearGradient2910);fill-opacity:1;fill-rule:evenodd;stroke:#000000;stroke-width:0;stroke-linecap:butt;stroke-linejoin:miter;stroke-miterlimit:4;stroke-dasharray:none;stroke-opacity:1" />
  </g>
</svg>
