<?xml version="1.0" encoding="UTF-8" standalone="no"?>
<!-- Created with Inkscape (http://www.inkscape.org/) -->

<svg
   xmlns:dc="http://purl.org/dc/elements/1.1/"
   xmlns:cc="http://creativecommons.org/ns#"
   xmlns:rdf="http://www.w3.org/1999/02/22-rdf-syntax-ns#"
   xmlns:svg="http://www.w3.org/2000/svg"
   xmlns="http://www.w3.org/2000/svg"
   xmlns:xlink="http://www.w3.org/1999/xlink"
   xmlns:sodipodi="http://sodipodi.sourceforge.net/DTD/sodipodi-0.dtd"
   xmlns:inkscape="http://www.inkscape.org/namespaces/inkscape"
   id="svg2"
   inkscape:version="0.92.5 (2060ec1f9f, 2020-04-08)"
   width="256"
   height="256"
   viewBox="0 0 256 256"
   sodipodi:docname="folder-download-5.svg"
   version="1.1">
  <metadata
     id="metadata8">
    <rdf:RDF>
      <cc:Work>
        <dc:format>image/svg+xml</dc:format>
        <dc:type
           rdf:resource="http://purl.org/dc/dcmitype/StillImage" />
        <dc:title></dc:title>
      </cc:Work>
    </rdf:RDF>
  </metadata>
  <defs
     id="defs6">
    <linearGradient
       inkscape:collect="always"
       id="linearGradient858">
      <stop
         style="stop-color:#ffffff;stop-opacity:1;"
         offset="0"
         id="stop854" />
      <stop
         style="stop-color:#ffffff;stop-opacity:0;"
         offset="1"
         id="stop856" />
    </linearGradient>
    <linearGradient
       inkscape:collect="always"
       id="linearGradient855">
      <stop
         style="stop-color:#000000;stop-opacity:1"
         offset="0"
         id="stop851" />
      <stop
         style="stop-color:#000000;stop-opacity:0"
         offset="1"
         id="stop853" />
    </linearGradient>
    <linearGradient
       inkscape:collect="always"
       id="linearGradient4223">
      <stop
         id="stop4225"
         stop-color="#bebebe"
         stop-opacity="0.803" />
      <stop
         offset="1"
         id="stop4227"
         stop-color="#9f9f9f"
         stop-opacity="0.732" />
    </linearGradient>
    <linearGradient
       inkscape:collect="always"
       id="linearGradient4211">
      <stop
         id="stop4213"
         stop-color="#9f9f9f"
         stop-opacity="0.634" />
      <stop
         offset="1"
         id="stop4215"
         stop-color="#696969"
         stop-opacity="0" />
    </linearGradient>
    <linearGradient
       inkscape:collect="always"
       id="linearGradient4171">
      <stop
         id="stop4173"
         stop-color="#848484"
         stop-opacity="0.623" />
      <stop
         offset="1"
         id="stop4175"
         stop-color="#cdcdcd"
         stop-opacity="0.698" />
    </linearGradient>
    <linearGradient
       inkscape:collect="always"
       id="linearGradient4142">
      <stop
         id="stop4144"
         stop-color="#909090"
         stop-opacity="0.519" />
      <stop
         offset="1"
         id="stop4146"
         stop-color="#696969"
         stop-opacity="0" />
    </linearGradient>
    <linearGradient
       inkscape:collect="always"
       xlink:href="#linearGradient4142"
       id="linearGradient4148"
       x1="165.74"
       y1="63.25"
       x2="278.75"
       y2="324.36"
       gradientUnits="userSpaceOnUse"
       gradientTransform="matrix(0.77077081,0,0,0.77077081,-80.822015,-34.561922)" />
    <linearGradient
       inkscape:collect="always"
       xlink:href="#linearGradient4171"
       id="linearGradient4177"
       x1="379.78"
       y1="106.85"
       x2="387.93"
       y2="114.16"
       gradientUnits="userSpaceOnUse"
       spreadMethod="reflect"
       gradientTransform="matrix(0.77077081,0,0,0.77077081,-80.822015,-34.561922)" />
    <linearGradient
       inkscape:collect="always"
       xlink:href="#linearGradient4171"
       id="linearGradient4207"
       gradientUnits="userSpaceOnUse"
       spreadMethod="reflect"
       x1="381.27"
       y1="108.46"
       x2="387.93"
       y2="114.16"
       gradientTransform="matrix(0.77077081,0,0,0.77077081,-60.158797,-54.897152)" />
    <linearGradient
       inkscape:collect="always"
       xlink:href="#linearGradient4211"
       id="linearGradient4217"
       x1="284.7"
       y1="61.711"
       x2="281.1"
       y2="125.1"
       gradientUnits="userSpaceOnUse"
       gradientTransform="matrix(0.77077081,0,0,0.77077081,-80.822015,-34.561922)" />
    <linearGradient
       inkscape:collect="always"
       xlink:href="#linearGradient4223"
       id="linearGradient4229"
       x1="259.02"
       y1="93.26"
       x2="255.7"
       y2="103.09"
       gradientUnits="userSpaceOnUse"
       gradientTransform="matrix(0.77077081,0,0,0.77077081,-80.822015,-34.561922)" />
    <linearGradient
       inkscape:collect="always"
       xlink:href="#linearGradient4223"
       id="linearGradient4237"
       x1="262.84"
       y1="102.54"
       x2="258.99"
       y2="117.29"
       gradientUnits="userSpaceOnUse"
       gradientTransform="matrix(0.77077081,0,0,0.77077081,-80.822015,-34.561922)" />
    <filter
       inkscape:collect="always"
       style="color-interpolation-filters:sRGB"
       id="filter890"
       x="-0.0093866307"
       width="1.0187733"
       y="-0.016630034"
       height="1.0332601">
      <feGaussianBlur
         inkscape:collect="always"
         stdDeviation="0.91238843"
         id="feGaussianBlur892" />
    </filter>
    <linearGradient
       inkscape:collect="always"
       xlink:href="#linearGradient855"
       id="linearGradient857"
       x1="111.98162"
       y1="193.77997"
       x2="120.79942"
       y2="166.73978"
       gradientUnits="userSpaceOnUse" />
    <linearGradient
       inkscape:collect="always"
       xlink:href="#linearGradient858"
       id="linearGradient860"
       x1="221.87906"
       y1="54.649479"
       x2="185.756"
       y2="86.098389"
       gradientUnits="userSpaceOnUse" />
    <linearGradient
       inkscape:collect="always"
       xlink:href="#linearGradient858"
       id="linearGradient864"
       gradientUnits="userSpaceOnUse"
       x1="221.87906"
       y1="54.649479"
       x2="185.756"
       y2="86.098389"
       gradientTransform="translate(19.986222,-19.692307)" />
    <linearGradient
       id="linearGradient1164"
       inkscape:collect="always">
      <stop
         stop-opacity="1"
         stop-color="#d1d4ff"
         id="stop1160" />
      <stop
         stop-opacity="0"
         stop-color="#404eff"
         id="stop1162"
         offset="1" />
    </linearGradient>
    <linearGradient
       id="linearGradient1158"
       inkscape:collect="always">
      <stop
         stop-opacity="0.622"
         stop-color="#a7adff"
         id="stop1154" />
      <stop
         stop-opacity="0"
         stop-color="#404eff"
         id="stop1156"
         offset="1" />
    </linearGradient>
    <linearGradient
       id="linearGradient1144"
       inkscape:collect="always">
      <stop
         stop-opacity="1"
         stop-color="#3340e3"
         id="stop1140" />
      <stop
         stop-opacity="1"
         stop-color="#4d5aff"
         id="stop1142"
         offset="1" />
    </linearGradient>
    <linearGradient
       id="linearGradient891"
       inkscape:collect="always">
      <stop
         stop-opacity="1"
         stop-color="#ffffff"
         id="stop887" />
      <stop
         stop-opacity="0"
         stop-color="#6772ff"
         id="stop889"
         offset="1" />
    </linearGradient>
    <linearGradient
       inkscape:collect="always"
       id="linearGradient879">
      <stop
         stop-opacity="1"
         stop-color="#a7adff"
         id="stop875" />
      <stop
         stop-opacity="0"
         stop-color="#404eff"
         offset="1"
         id="stop877" />
    </linearGradient>
    <linearGradient
       inkscape:collect="always"
       id="linearGradient850">
      <stop
         stop-opacity="1"
         stop-color="#0918cf"
         id="stop846" />
      <stop
         stop-opacity="1"
         stop-color="#6772ff"
         offset="1"
         id="stop848" />
    </linearGradient>
    <linearGradient
       id="linearGradient844"
       inkscape:collect="always">
      <stop
         stop-opacity="0.024"
         stop-color="#ffffff"
         id="stop840" />
      <stop
         stop-opacity="1"
         stop-color="#b1b4ff"
         id="stop842"
         offset="1" />
    </linearGradient>
    <linearGradient
       inkscape:collect="always"
       id="linearGradient832">
      <stop
         stop-opacity="1"
         stop-color="#0e11ff"
         id="stop828" />
      <stop
         stop-opacity="1"
         stop-color="#ffffff"
         offset="1"
         id="stop830" />
    </linearGradient>
    <linearGradient
       inkscape:collect="always"
       xlink:href="#linearGradient832"
       id="linearGradient834"
       x1="309.41"
       y1="170.82"
       x2="376.71"
       y2="199.12"
       gradientUnits="userSpaceOnUse"
       gradientTransform="matrix(-0.14516571,8.81834e-5,-9.9928392e-5,-0.16450042,71.717539,293.86608)" />
    <linearGradient
       inkscape:collect="always"
       xlink:href="#linearGradient844"
       id="linearGradient838"
       gradientUnits="userSpaceOnUse"
       x1="235.83"
       y1="231.41"
       x2="174.55"
       y2="144.06"
       gradientTransform="matrix(-0.14516571,8.8182553e-5,-9.9927997e-5,-0.16450042,71.717538,293.86608)" />
    <linearGradient
       inkscape:collect="always"
       xlink:href="#linearGradient850"
       id="linearGradient852"
       x1="222.12"
       y1="112.66"
       x2="331.4"
       y2="222.37"
       gradientUnits="userSpaceOnUse"
       gradientTransform="matrix(-0.14516571,8.8182553e-5,-9.9927997e-5,-0.16450042,71.717538,293.86608)" />
    <linearGradient
       inkscape:collect="always"
       xlink:href="#linearGradient879"
       id="linearGradient881"
       x1="275.94"
       y1="62.49"
       x2="283.88"
       y2="62.2"
       gradientUnits="userSpaceOnUse"
       spreadMethod="reflect"
       gradientTransform="matrix(0.07528991,0.12411496,-0.1406459,0.08531782,35.325762,218.92454)" />
    <linearGradient
       inkscape:collect="always"
       xlink:href="#linearGradient1158"
       id="linearGradient885"
       gradientUnits="userSpaceOnUse"
       x1="276.79"
       y1="59.78"
       x2="287.1"
       y2="61.59"
       spreadMethod="reflect"
       gradientTransform="matrix(-0.15627811,-0.00467312,-0.01442055,-0.15323463,76.01089,293.43282)" />
    <linearGradient
       inkscape:collect="always"
       xlink:href="#linearGradient891"
       id="linearGradient895"
       gradientUnits="userSpaceOnUse"
       gradientTransform="matrix(-0.09587462,0.123502,0.1090007,0.10866302,35.961202,218.03546)"
       x1="278.2"
       y1="59.49"
       x2="287.75"
       y2="61.778"
       spreadMethod="reflect" />
    <radialGradient
       inkscape:collect="always"
       xlink:href="#linearGradient858"
       id="radialGradient929"
       cx="32.27"
       cy="180.06"
       fx="32.27"
       fy="180.06"
       r="15.386"
       gradientTransform="matrix(1,0,0,0.99386819,1.151856,-0.62370103)"
       gradientUnits="userSpaceOnUse" />
    <filter
       color-interpolation-filters="sRGB"
       inkscape:collect="always"
       id="filter1370"
       x="-0.04"
       width="1.08"
       y="-0.033"
       height="1.065">
      <feGaussianBlur
         inkscape:collect="always"
         stdDeviation="3.13815"
         id="feGaussianBlur1372" />
    </filter>
    <linearGradient
       gradientTransform="rotate(-89.69195,21.991254,264.67932)"
       gradientUnits="userSpaceOnUse"
       y2="266.15"
       x2="41.28"
       y1="283.8"
       x1="41.647"
       id="linearGradient1138"
       xlink:href="#linearGradient1144"
       inkscape:collect="always" />
    <linearGradient
       spreadMethod="reflect"
       y2="59.924"
       x2="288.99"
       y1="64.794"
       x1="275.16"
       gradientTransform="matrix(0.07528991,0.12411496,-0.1406459,0.08531782,27.271471,195.46571)"
       gradientUnits="userSpaceOnUse"
       id="linearGradient1148"
       xlink:href="#linearGradient1158"
       inkscape:collect="always" />
    <linearGradient
       spreadMethod="reflect"
       y2="61.828"
       x2="285.63"
       y1="63.757"
       x1="272.74"
       gradientTransform="matrix(0.12411496,-0.07528991,0.08531782,0.1406459,-13.492742,246.92417)"
       gradientUnits="userSpaceOnUse"
       id="linearGradient1152"
       xlink:href="#linearGradient1164"
       inkscape:collect="always" />
    <radialGradient
       r="15.386"
       fy="180.06"
       fx="32.27"
       cy="180.06"
       cx="32.27"
       gradientTransform="matrix(1,0,0,0.99386819,1.151856,-0.62370103)"
       gradientUnits="userSpaceOnUse"
       id="radialGradient925"
       xlink:href="#linearGradient858"
       inkscape:collect="always" />
  </defs>
  <sodipodi:namedview
     pagecolor="#ff0000"
     bordercolor="#666666"
     borderopacity="1"
     objecttolerance="10"
     gridtolerance="10"
     guidetolerance="10"
     inkscape:pageopacity="0"
     inkscape:pageshadow="2"
     inkscape:window-width="1920"
     inkscape:window-height="1056"
     id="namedview4"
     showgrid="false"
     inkscape:snap-global="false"
     inkscape:zoom="3.4023438"
     inkscape:cx="128"
     inkscape:cy="128"
     inkscape:window-x="0"
     inkscape:window-y="0"
     inkscape:window-maximized="1"
     inkscape:current-layer="svg2" />
  <g
     id="g888"
     style="fill:#000000;fill-opacity:0.12757201;filter:url(#filter890)"
     transform="matrix(1.027092,0,0,0.87914716,269.10213,48.787807)">
    <path
       transform="matrix(0.77077081,0,0,0.77077081,-337.33598,-64.706486)"
       sodipodi:nodetypes="ccccccc"
       inkscape:connector-curvature="0"
       id="path4150"
       d="m 177.77778,215.83334 -80.555558,82.4074 255.555558,88.42593 38.75029,-40.87068 c 4.25788,-4.69448 8.46018,-13.4447 8.35283,-19.27513 L 396.29629,282.5 Z"
       style="fill:#000000;fill-opacity:0.12757201;fill-rule:evenodd;stroke:none;stroke-width:1;stroke-linecap:butt;stroke-linejoin:miter;stroke-opacity:1" />
    <path
       inkscape:connector-curvature="0"
       id="path866"
       d="m -258.76367,164.31055 c 64.25456,22.23242 128.50911,44.46484 192.76367,66.69726 10.704605,-12.11221 23.269675,-22.6975 32.626953,-35.88281 4.915466,-9.97175 -0.0014,-21.20106 0.334678,-31.66405 1.365667,-7.80464 -3.023601,-10.97488 -10.290126,-11.82807 -52.133991,-15.90432 -104.267985,-31.80864 -156.401975,-47.71296 -19.67773,20.13021 -39.35547,40.26042 -59.0332,60.39063 z"
       style="fill:#000000;fill-opacity:0.12757201;fill-rule:evenodd;stroke:none;stroke-width:0.77077079;stroke-linecap:butt;stroke-linejoin:miter;stroke-opacity:1" />
    <path
       inkscape:connector-curvature="0"
       id="path872"
       d="m -255.12695,163.45117 c 62.83854,21.74284 125.67708,43.48568 188.515622,65.22852 10.661699,-12.45649 24.482587,-22.55662 32.46289,-37.08399 2.693429,-10.92369 -1.823197,-22.00405 -0.960937,-33.02148 -3.239054,-6.39155 -11.866064,-4.61259 -17.48133,-7.67536 -48.853875,-14.90314 -97.707755,-29.80627 -146.561635,-44.70941 -18.65821,19.08724 -37.31641,38.17448 -55.97461,57.26172 z"
       style="fill:#000000;fill-opacity:0.12757201;fill-rule:evenodd;stroke:none;stroke-width:0.77077079;stroke-linecap:butt;stroke-linejoin:miter;stroke-opacity:1" />
    <path
       inkscape:connector-curvature="0"
       id="path878"
       d="m -251.49023,162.5918 c 61.41731,21.2513 122.83463,42.5026 184.251949,63.7539 10.44283,-12.37841 24.919813,-21.97631 31.529297,-37.15625 1.394259,-10.18414 -1.706975,-20.39676 -1.751954,-30.52929 -5.3153,-5.0699 -13.440876,-3.58672 -19.715715,-7.06986 -47.132517,-14.3771 -94.265047,-28.75421 -141.397567,-43.13132 -17.63867,18.04428 -35.27734,36.08855 -52.91601,54.13282 z"
       style="fill:#000000;fill-opacity:0.12757201;fill-rule:evenodd;stroke:none;stroke-width:0.77077079;stroke-linecap:butt;stroke-linejoin:miter;stroke-opacity:1" />
  </g>
  <path
     style="fill:#000000;fill-opacity:0.73000004;fill-rule:evenodd;stroke:none;stroke-width:0.77077079;stroke-linecap:butt;stroke-linejoin:miter;stroke-opacity:1"
     d="M 31.923711,151.40704 27.003904,17.342113 c -0.04147,-4.96221 1.926333,-7.258395 6.149764,-6.149768 L 137.28972,39.891259 c 6.26366,1.792607 13.72694,-0.97619 14.75945,-11.889551 0.72147,-7.625757 3.60011,-13.61923 14.34945,-11.479565 l 66.0075,15.169425 c 4.94172,1.164855 6.02562,3.428063 5.73978,9.019659 l -1.63993,177.933263 -4.09985,4.50983 -196.443848,-65.00808 z"
     id="path4198"
     inkscape:connector-curvature="0"
     sodipodi:nodetypes="ccccsccccccc" />
  <path
     style="fill:url(#linearGradient4217);fill-opacity:1;fill-rule:evenodd;stroke:none;stroke-width:0.77077079;stroke-linecap:butt;stroke-linejoin:miter;stroke-opacity:1"
     sodipodi:nodetypes="ccccsccccccc"
     inkscape:connector-curvature="0"
     id="path4209"
     d="M 31.923711,151.40704 27.003904,17.342113 c -0.04147,-4.96221 1.926333,-7.258395 6.149764,-6.149768 L 137.28972,39.891259 c 6.26366,1.792607 13.72694,-0.97619 14.75945,-11.889551 0.72147,-7.625757 3.60011,-13.61923 14.34945,-11.479565 l 66.0075,15.169425 c 4.94172,1.164855 6.02562,3.428063 5.73978,9.019659 l -1.63993,177.933263 -4.09985,4.50983 -196.443848,-65.00808 z" />
  <path
     style="fill:url(#linearGradient4229);fill-opacity:1;fill-rule:evenodd;stroke:#cecece;stroke-width:0.77077079;stroke-linecap:butt;stroke-linejoin:miter;stroke-opacity:0.70499998"
     inkscape:connector-curvature="0"
     id="path4221"
     d="M 29.107592,14.969579 235.06766,65.511931 235.91003,215.45423 37.952503,143.85257 Z"
     sodipodi:nodetypes="ccccc" />
  <path
     style="fill:url(#linearGradient4237);fill-opacity:1;fill-rule:evenodd;stroke:#cecece;stroke-width:0.77077079;stroke-linecap:butt;stroke-linejoin:miter;stroke-opacity:0.70499998"
     d="M 24.474542,21.708559 230.43461,72.250911 233.8041,217.98135 33.319453,150.59155 Z"
     id="path4219"
     inkscape:connector-curvature="0" />
  <path
     style="fill:#000000;fill-opacity:0.76999996;fill-rule:evenodd;stroke:none;stroke-width:0.77077079;stroke-linecap:butt;stroke-linejoin:miter;stroke-opacity:1"
     d="M 8.7444046,36.877113 C 9.6167788,33.377352 12.316797,29.913809 16.981856,31.061446 L 120.43481,60.785279 c 4.99573,1.261166 12.61202,0.256235 16.05773,-8.564119 3.08985,-7.909442 8.3813,-14.47471 19.6261,-12.48934 l 52.81208,10.705152 c 9.44452,2.53589 9.22385,9.003112 9.99147,14.273527 l 9.63463,158.436221 c 0.50082,5.73672 -4.43247,10.18422 -9.99147,7.85044 L 30.868387,167.83678 c -3.793857,-1.20188 -6.890645,-2.38715 -7.136768,-7.85044 z"
     id="path4138"
     inkscape:connector-curvature="0"
     sodipodi:nodetypes="cccscccccccc" />
  <path
     style="fill:url(#linearGradient4148);fill-opacity:1;fill-rule:evenodd;stroke:none;stroke-width:0.77077079;stroke-linecap:butt;stroke-linejoin:miter;stroke-opacity:1"
     sodipodi:nodetypes="cccsccccccsc"
     inkscape:connector-curvature="0"
     id="path4140"
     d="M 8.7444046,36.877113 C 9.6167788,33.377352 12.316797,29.913809 16.981856,31.061446 L 120.43481,60.785279 c 4.99573,1.261166 12.61202,0.256235 16.05773,-8.564119 3.08985,-7.909442 8.3813,-14.47471 19.6261,-12.48934 l 52.81208,10.705152 c 9.44452,2.53589 9.22385,9.003112 9.99147,14.273527 l 9.63463,158.436221 c 0.50082,5.73672 -4.43247,10.18422 -9.99147,7.85044 L 31.136761,168.85067 c -4.722273,-3.4223 -8.128602,-7.01445 -8.632556,-13.84742 C 20.224751,124.09697 11.401175,65.991481 8.7444046,36.877113 Z" />
  <path
     style="fill:#848484;fill-opacity:1;fill-rule:evenodd;stroke:none;stroke-width:0.77077079;stroke-linecap:butt;stroke-linejoin:miter;stroke-opacity:1"
     inkscape:connector-curvature="0"
     d="m 19.607017,26.913071 c -2.88017,-0.04575 -4.833658,1.830128 -5.905731,4.126334 0.959671,-0.255062 2.049634,-0.280169 3.280285,0.02258 L 120.43498,60.784832 c 4.23816,1.069922 10.36086,0.506959 14.22463,-5.073237 -3.31914,1.838929 -7.06507,1.875224 -9.94324,1.148634 L 21.264475,27.135873 c -0.583135,-0.143455 -1.135469,-0.21451 -1.657458,-0.222802 z m 136.847943,8.535685 c -5.47778,0.02215 -9.24401,2.429575 -11.95748,5.964441 2.94992,-1.786966 6.72033,-2.546938 11.62177,-1.681544 l 52.81135,10.70498 c 9.44453,2.53589 9.2238,9.003905 9.99142,14.274321 l 9.63464,158.435546 c 0.13511,1.54767 -0.13551,2.99461 -0.69701,4.24677 3.15723,-0.99293 5.31942,-4.2823 4.9799,-8.17137 L 223.20492,60.784832 C 222.4373,55.514417 222.65802,49.047919 213.2135,46.51203 L 160.40065,35.807044 c -1.40561,-0.248171 -2.7188,-0.363249 -3.94569,-0.358288 z"
     id="path4164" />
  <path
     style="fill:url(#linearGradient4177);fill-opacity:1;fill-rule:evenodd;stroke:none;stroke-width:0.77077079;stroke-linecap:butt;stroke-linejoin:miter;stroke-opacity:1"
     id="path4169"
     d="m 208.9306,50.436633 c 9.44453,2.53589 9.2238,9.003905 9.99142,14.274321 1.68339,-1.586463 2.41577,-2.091371 4.2829,-3.926122 -0.76762,-5.270415 -0.5469,-11.736913 -9.99142,-14.272802 -1.84816,1.763315 -2.30646,2.157202 -4.2829,3.924603 z"
     inkscape:connector-curvature="0"
     sodipodi:nodetypes="ccccc" />
  <path
     style="fill:#858585;fill-opacity:1;fill-rule:evenodd;stroke:none;stroke-width:0.77077079;stroke-linecap:butt;stroke-linejoin:miter;stroke-opacity:1"
     inkscape:connector-curvature="0"
     d="m 36.261385,7.3156224 c -2.060871,0.08655 -3.297411,1.389248 -3.777077,3.7289046 0.217349,0.04036 0.439123,0.08695 0.669908,0.14753 L 137.28957,39.891226 c 4.17106,1.193724 8.87183,0.36004 11.85361,-3.549761 -2.13645,0.618155 -4.44087,0.560862 -6.60575,-0.05871 L 38.402078,7.5850914 C 37.610188,7.3772234 36.8963,7.2889584 36.261385,7.3156224 Z M 167.97287,12.480689 c -4.16112,-0.09755 -6.73394,1.427983 -8.33547,3.880952 1.80879,-0.399933 4.02936,-0.382617 6.76081,0.161079 l 66.00778,15.168528 c 4.94171,1.164855 6.02598,3.428831 5.74014,9.020428 l -1.6409,177.932144 -0.36582,0.40194 1.51445,0.5013 4.09924,-4.51021 1.64089,-177.933646 c 0.28584,-5.591596 -0.79841,-7.854067 -5.74013,-9.018922 L 171.64607,12.914248 c -1.34366,-0.267458 -2.56433,-0.407564 -3.6732,-0.433559 z"
     id="path4200" />
  <path
     style="fill:url(#linearGradient4207);fill-opacity:1;fill-rule:evenodd;stroke:none;stroke-width:0.77077079;stroke-linecap:butt;stroke-linejoin:miter;stroke-opacity:1"
     sodipodi:nodetypes="ccccc"
     inkscape:connector-curvature="0"
     d="m 229.89414,31.062402 c 9.55917,2.210105 8.25999,3.841895 8.2496,14.234276 1.6834,-1.586462 3.27666,-2.892201 5.14379,-4.726951 0.37357,-9.354662 0.77448,-11.556725 -9.17056,-13.291783 -1.84817,1.763316 -2.24639,2.017057 -4.22283,3.784458 z"
     id="path4205" />
  <path
     sodipodi:nodetypes="cccccc"
     inkscape:connector-curvature="0"
     id="path858"
     d="m 225.72675,196.33524 2.0574,24.39495 c 0.0295,8.34567 -2.0873,11.73805 -14.10792,7.34788 L 31.742824,167.82549 c -6.229286,-1.47576 -8.206505,-5.92013 -8.229621,-11.16877 l -2.057406,-24.10103"
     style="fill:none;fill-opacity:1;stroke:url(#linearGradient857);stroke-width:2.1;stroke-linecap:butt;stroke-linejoin:miter;stroke-miterlimit:4;stroke-dasharray:none;stroke-opacity:1" />
  <path
     d="m 156.11864,39.73182 52.81208,10.705152 c 9.44452,2.53589 9.22385,9.003112 9.99147,14.273527 l 4.07025,66.933111"
     id="path851"
     inkscape:connector-curvature="0"
     sodipodi:nodetypes="cccc"
     style="fill:none;fill-opacity:1;fill-rule:evenodd;stroke:url(#linearGradient860);stroke-width:1;stroke-linecap:butt;stroke-linejoin:miter;stroke-opacity:1;stroke-miterlimit:4;stroke-dasharray:none" />
  <path
     style="fill:none;fill-opacity:1;fill-rule:evenodd;stroke:url(#linearGradient864);stroke-width:1;stroke-linecap:butt;stroke-linejoin:miter;stroke-miterlimit:4;stroke-dasharray:none;stroke-opacity:1"
     sodipodi:nodetypes="cccc"
     inkscape:connector-curvature="0"
     id="path862"
     d="m 176.39878,18.569938 52.51816,12.174727 c 11.79584,2.53589 9.22385,9.003112 9.99147,14.273527 l -2.98371,67.814858" />
  <g
     transform="matrix(3.7795276,0,0,3.7795276,-9.0221145,-858.46105)"
     id="layer1"
     inkscape:label="Layer 1">
    <path
       stroke-miterlimit="4"
       sodipodi:nodetypes="sccccccccccsssccssccs"
       transform="matrix(8.4909024e-4,-0.15792509,0.15792509,8.4909024e-4,11.992657,291.5855)"
       d="m 30.927889,125.29979 c 0.07675,2.70137 2.606231,5.53083 8.01255,8.98616 L 202.57683,240.23619 c 11.68035,7.46524 21.83348,7.62229 21.74146,-4.74402 l 2.03683,-45.57455 119.23234,-0.16869 c 10.63324,-0.83746 23.56928,-7.90984 24.01731,-20.08234 l 0.47451,-80.045963 -147.4001,-7.491265 -5.16397,-60.404124 C 217.42565,9.6841944 205.8817,5.8534074 196.16232,12.325196 L 37.639241,117.08907 c -4.420738,2.92156 -6.788102,5.50935 -6.711352,8.21072 z m 20.994632,-0.15257 c -0.06138,-2.1464 1.843085,-4.1886 5.376683,-6.52229 L 184.39929,35.472774 c 7.78679,-5.14262 16.76456,-2.091198 17.10561,7.470345 l 5.99546,168.082291 c 0.35027,9.81985 -7.66527,12.3436 -17.02253,6.41246 L 58.343261,132.28833 c -4.331059,-2.74526 -6.359358,-4.9947 -6.42074,-7.14111 z"
       id="path897"
       inkscape:connector-curvature="0"
       style="fill:#000000;fill-opacity:1;stroke:none;stroke-width:1.85899997;stroke-linecap:butt;stroke-linejoin:miter;stroke-miterlimit:4;stroke-dasharray:none;stroke-opacity:0.522;filter:url(#filter1370)" />
    <path
       sodipodi:nodetypes="sssssss"
       inkscape:connector-curvature="0"
       id="path819"
       d="m 49.081523,259.53643 -16.120629,24.92652 c -1.100546,1.70172 -1.796931,1.58921 -2.717047,0.19113 L 13.758433,259.60525 c -1.013803,-1.54043 -0.39881,-3.36027 1.502849,-3.36419 l 32.564121,-0.0672 c 1.95303,-0.004 2.444981,1.52425 1.25612,3.36253 z"
       style="fill:#0000ff;fill-opacity:0.99599998;stroke:none;stroke-width:0.155;stroke-linecap:butt;stroke-linejoin:miter;stroke-opacity:1" />
    <path
       stroke-miterlimit="4"
       inkscape:connector-curvature="0"
       id="path823"
       d="m 31.576585,285.67343 c 0.426679,-0.01 0.875671,-0.40689 1.425943,-1.25775 l 16.120661,-24.92679 c 1.188861,-1.83829 0.69695,-3.36654 -1.25608,-3.36251 l -32.564162,0.0673 c -1.901658,0.004 -2.516432,1.82375 -1.502629,3.36417 l 16.485295,25.04868 c 0.460058,0.69904 0.864293,1.07669 1.290972,1.06686 z m -0.0063,-3.31571 c -0.339017,0.008 -0.659915,-0.29462 -1.02546,-0.85465 L 17.445917,261.43522 c -0.805537,-1.23409 -0.316712,-2.69192 1.194277,-2.69506 l 25.874072,-0.0536 c 1.5518,-0.003 1.942854,1.22102 0.998232,2.69373 l -12.80896,19.96953 c -0.437222,0.68165 -0.794189,1.00006 -1.133216,1.00793 z"
       style="fill:url(#linearGradient852);fill-opacity:1;stroke:#00038f;stroke-width:0.294;stroke-linecap:butt;stroke-linejoin:miter;stroke-miterlimit:4;stroke-dasharray:none;stroke-opacity:0.522" />
    <path
       stroke-miterlimit="4"
       sodipodi:nodetypes="csssscccc"
       inkscape:connector-curvature="0"
       id="rect1115"
       d="m 23.665406,256.28434 0.03349,-20.78819 c 0.0026,-1.6215 1.321117,-2.91984 2.942594,-2.91112 l 11.707401,0.063 c 1.621476,0.009 2.919839,1.32111 2.911121,2.94259 l 0.116606,20.71314 -2.192125,2.39102 -13.582776,-0.22312 z"
       style="opacity:1;fill:url(#linearGradient1138);fill-opacity:1;fill-rule:nonzero;stroke:none;stroke-width:0.1;stroke-linecap:round;stroke-linejoin:round;stroke-miterlimit:4;stroke-dasharray:none;stroke-dashoffset:0;stroke-opacity:1" />
    <path
       stroke-miterlimit="4"
       sodipodi:nodetypes="scccccccccccccs"
       inkscape:connector-curvature="0"
       id="path821"
       d="m 17.061631,260.31125 c 0.0073,0.37815 0.132651,0.78587 0.38438,1.17152 l 13.098726,20.06743 c 0.731099,1.12005 1.284417,1.21058 2.15886,-0.15273 L 45.512182,261.428 h 5.29e-4 c 0.944623,-1.47271 0.553421,-2.69735 -0.998386,-2.69413 l -5.556392,0.0115 0.126065,-21.04589 c -0.214928,-1.76592 -0.784346,-2.52467 -2.706673,-2.62787 l -8.099502,-0.072 c -2.024659,-0.2567 -2.491773,1.22135 -2.413948,2.51869 l -0.187467,21.02695 -7.036117,0.24226 c -1.038797,0.002 -1.594624,0.69182 -1.57866,1.52374 z"
       style="fill:url(#linearGradient834);fill-opacity:1;stroke:#ffffff;stroke-width:0.30899999;stroke-linecap:butt;stroke-linejoin:miter;stroke-miterlimit:4;stroke-dasharray:none;stroke-opacity:0.522" />
    <path
       sodipodi:nodetypes="ccccc"
       inkscape:connector-curvature="0"
       id="path854"
       d="m 46.242328,260.11928 3.192778,-1.54961 c 0.426734,-1.57871 -0.270913,-2.28423 -1.079044,-2.3551 l -3.142971,2.57335 c 0.743236,0.15157 0.659789,0.7125 1.029237,1.33136 z"
       style="fill:url(#linearGradient881);fill-opacity:1;stroke:none;stroke-width:0.155;stroke-linecap:butt;stroke-linejoin:miter;stroke-opacity:1" />
    <path
       d="m 30.469074,281.64767 -0.04108,3.36271 c 0.766715,1.1077 1.552378,1.08335 2.224039,0.0637 l 0.270138,-3.7318 c -0.717102,1.31534 -1.702966,1.74308 -2.453077,0.30535 z"
       id="path883"
       inkscape:connector-curvature="0"
       sodipodi:nodetypes="ccccc"
       style="fill:url(#linearGradient885);fill-opacity:1;stroke:none;stroke-width:0.155;stroke-linecap:butt;stroke-linejoin:miter;stroke-opacity:1" />
    <path
       sodipodi:nodetypes="ccccc"
       inkscape:connector-curvature="0"
       id="path893"
       d="m 17.016546,261.04927 -3.366118,-2.02374 c -0.612369,-1.33533 -0.125524,-2.53465 0.923832,-2.72272 l 3.546337,2.73859 c -0.90022,-0.0563 -1.36938,0.9022 -1.104051,2.00787 z"
       style="fill:url(#linearGradient895);fill-opacity:1;stroke:none;stroke-width:0.155;stroke-linecap:butt;stroke-linejoin:miter;stroke-opacity:1" />
    <path
       sodipodi:nodetypes="csccccssc"
       inkscape:connector-curvature="0"
       id="path836"
       d="m 45.512433,261.42775 -12.80876,19.96947 c -1.095899,1.70856 -1.770926,0.51331 -2.025965,0.10328 -5.581279,-8.55415 -7.693258,-11.79132 -11.894022,-18.67504 L 38.95773,244.48884 c 0.04703,2.00492 0.0014,12.07346 -0.149306,14.33545 l 5.705929,-0.0904 c 1.551624,-0.0246 1.942702,1.22114 0.998081,2.69385 z"
       style="fill:url(#linearGradient838);fill-opacity:1;stroke:none;stroke-width:0.123;stroke-linecap:butt;stroke-linejoin:miter;stroke-opacity:1" />
    <path
       d="m 39.222345,237.58444 1.994258,-1.59955 c 0.25346,-2.61444 -1.946933,-3.5125 -3.446029,-3.32009 l -0.629372,2.34033 c 1.344955,0.14772 2.029577,1.33213 2.081143,2.57931 z"
       id="path1146"
       inkscape:connector-curvature="0"
       sodipodi:nodetypes="ccccc"
       style="fill:url(#linearGradient1148);fill-opacity:1;stroke:none;stroke-width:0.155;stroke-linecap:butt;stroke-linejoin:miter;stroke-opacity:1" />
    <path
       sodipodi:nodetypes="ccccc"
       inkscape:connector-curvature="0"
       id="path1150"
       d="m 27.506147,234.84446 -1.049526,-2.2301 c -1.462631,-0.0893 -2.711783,1.48123 -2.716919,2.59287 l 1.975841,1.50609 c 0.119066,-0.96236 0.971905,-1.92154 1.790604,-1.86886 z"
       style="fill:url(#linearGradient1152);fill-opacity:1;stroke:none;stroke-width:0.155;stroke-linecap:butt;stroke-linejoin:miter;stroke-opacity:1" />
    <path
       sodipodi:nodetypes="ccccccccc"
       inkscape:connector-curvature="0"
       id="path931"
       d="m 22.492848,272.81657 -1.683505,-2.86744 0.366015,-2.95286 18.062226,-16.35036 2.135908,-1.01561 -0.09275,3.56078 -1.93174,1.02858 -16.550044,15.03447 z"
       style="fill:#ffffff;fill-opacity:0.344;stroke:none;stroke-width:0.168;stroke-linecap:butt;stroke-linejoin:miter;stroke-opacity:1" />
    <path
       stroke-miterlimit="4"
       transform="matrix(-0.15762695,9.5752286e-5,-1.0851083e-4,-0.17862138,32.063863,267.98497)"
       inkscape:transform-center-y="0.23867028"
       inkscape:transform-center-x="0.0077966982"
       d="m 20.733407,169.61081 8.674456,4.55636 -3.074606,-9.42208 5.563402,8.06568 1.656229,-9.77168 1.17784,9.72725 6.007643,-7.8827 -3.477552,9.16042 8.982778,-4.1879 -7.336278,6.49505 9.900067,0.46631 -9.514351,2.34174 8.549369,5.01368 -9.512801,-2.34803 5.240115,8.41249 -7.331983,-6.49989 0.730413,9.88409 -3.471496,-9.16272 -3.946618,9.09137 1.184269,-9.72646 -7.719526,6.21592 5.568732,-8.062 -9.723984,1.91648 8.677467,-4.55063 -9.500795,-2.822 9.798297,0.003 z"
       inkscape:randomized="0"
       inkscape:rounded="-2.4286129e-17"
       inkscape:flatsided="false"
       sodipodi:arg2="-2.3114552"
       sodipodi:arg1="-2.5278226"
       sodipodi:r2="5.9219213"
       sodipodi:r1="15.499313"
       sodipodi:cy="178.53769"
       sodipodi:cx="33.403824"
       sodipodi:sides="13"
       id="path921"
       sodipodi:type="star"
       style="opacity:1;fill:url(#radialGradient929);fill-opacity:1;stroke:none;stroke-width:1.89999998;stroke-linecap:round;stroke-linejoin:miter;stroke-miterlimit:4;stroke-dasharray:none;stroke-opacity:0.522" />
    <path
       stroke-miterlimit="4"
       sodipodi:type="star"
       id="path923"
       sodipodi:sides="13"
       sodipodi:cx="33.403824"
       sodipodi:cy="178.53769"
       sodipodi:r1="15.499313"
       sodipodi:r2="5.9219213"
       sodipodi:arg1="-2.5278226"
       sodipodi:arg2="-2.3114552"
       inkscape:flatsided="false"
       inkscape:rounded="-2.4286129e-17"
       inkscape:randomized="0"
       d="m 20.733407,169.61081 8.674456,4.55636 -3.074606,-9.42208 5.563402,8.06568 1.656229,-9.77168 1.17784,9.72725 6.007643,-7.8827 -3.477552,9.16042 8.982778,-4.1879 -7.336278,6.49505 9.900067,0.46631 -9.514351,2.34174 8.549369,5.01368 -9.512801,-2.34803 5.240115,8.41249 -7.331983,-6.49989 0.730413,9.88409 -3.471496,-9.16272 -3.946618,9.09137 1.184269,-9.72646 -7.719526,6.21592 5.568732,-8.062 -9.723984,1.91648 8.677467,-4.55063 -9.500795,-2.822 9.798297,0.003 z"
       inkscape:transform-center-x="0.0053760855"
       inkscape:transform-center-y="0.16457468"
       transform="matrix(-0.10869142,6.6025843e-5,-7.4823477e-5,-0.1231681,21.268882,281.66325)"
       style="opacity:1;fill:url(#radialGradient925);fill-opacity:1;stroke:none;stroke-width:1.89999998;stroke-linecap:round;stroke-linejoin:miter;stroke-miterlimit:4;stroke-dasharray:none;stroke-opacity:0.522" />
  </g>
</svg>
