<?xml version="1.0" encoding="UTF-8" standalone="no"?>
<!-- Created with Inkscape (http://www.inkscape.org/) -->

<svg
   xmlns:dc="http://purl.org/dc/elements/1.1/"
   xmlns:cc="http://creativecommons.org/ns#"
   xmlns:rdf="http://www.w3.org/1999/02/22-rdf-syntax-ns#"
   xmlns:svg="http://www.w3.org/2000/svg"
   xmlns="http://www.w3.org/2000/svg"
   xmlns:xlink="http://www.w3.org/1999/xlink"
   xmlns:sodipodi="http://sodipodi.sourceforge.net/DTD/sodipodi-0.dtd"
   xmlns:inkscape="http://www.inkscape.org/namespaces/inkscape"
   width="256"
   height="256"
   id="svg3897"
   sodipodi:version="0.32"
   inkscape:version="0.91 r13725"
   sodipodi:docname="folder-puppy.svg"
   inkscape:output_extension="org.inkscape.output.svg.inkscape"
   inkscape:export-filename="/media/disk/melo/map-blue.png"
   inkscape:export-xdpi="90"
   inkscape:export-ydpi="90"
   version="1.1">
  <defs
     id="defs3899">
    <linearGradient
       id="linearGradient3528">
      <stop
         id="stop3530"
         stop-color="#ffffff"
         stop-opacity="1" />
      <stop
         offset="1"
         id="stop3532"
         stop-color="#000000"
         stop-opacity="1" />
    </linearGradient>
    <linearGradient
       id="linearGradient3566">
      <stop
         id="stop3568"
         stop-color="#797cb5"
         stop-opacity="0.386" />
      <stop
         id="stop3570"
         offset="1"
         stop-color="#ffffff"
         stop-opacity="1" />
    </linearGradient>
    <linearGradient
       id="linearGradient3558">
      <stop
         id="stop3560"
         stop-color="#6474d6"
         stop-opacity="1" />
      <stop
         offset="0.167"
         id="stop3564"
         stop-color="#949cd9"
         stop-opacity="1" />
      <stop
         id="stop3562"
         offset="1"
         stop-color="#20267b"
         stop-opacity="1" />
    </linearGradient>
    <linearGradient
       id="linearGradient2811">
      <stop
         id="stop2813"
         stop-color="#2e46c9"
         stop-opacity="1" />
      <stop
         offset="1"
         id="stop4535"
         stop-color="#202a7b"
         stop-opacity="1" />
    </linearGradient>
    <linearGradient
       id="linearGradient2841">
      <stop
         id="stop2843"
         stop-color="#000000"
         stop-opacity="1" />
      <stop
         offset="1"
         id="stop2845"
         stop-color="#aaacf1"
         stop-opacity="1" />
    </linearGradient>
    <linearGradient
       id="linearGradient3578">
      <stop
         id="stop3580"
         stop-color="#000000"
         stop-opacity="1" />
      <stop
         id="stop3582"
         offset="1"
         stop-color="#fffcfc"
         stop-opacity="1" />
    </linearGradient>
    <radialGradient
       inkscape:collect="always"
       xlink:href="#linearGradient3528"
       id="radialGradient2694"
       gradientUnits="userSpaceOnUse"
       gradientTransform="matrix(0.5142492,1.8215055,-1.5317217,0.4324371,-102.47483,832.3107)"
       cx="-434.76"
       cy="70.973"
       fx="-434.76"
       fy="70.973"
       r="53.03" />
    <filter
       inkscape:collect="always"
       id="filter4525"
       x="-0.036"
       width="1.072"
       y="-0.036"
       height="1.072"
       color-interpolation-filters="sRGB">
      <feGaussianBlur
         inkscape:collect="always"
         stdDeviation="1.58884"
         id="feGaussianBlur4527" />
    </filter>
    <linearGradient
       gradientUnits="userSpaceOnUse"
       x2="173.68"
       y2="172.12"
       x1="153.58"
       y1="128.34"
       id="linearGradient4018"
       xlink:href="#linearGradient2829"
       spreadMethod="reflect"
       gradientTransform="matrix(0.95651,0,0,0.95651,-0.3786,-16.52368)" />
    <linearGradient
       gradientUnits="userSpaceOnUse"
       x2="178.92"
       y2="189.22"
       x1="176.15"
       y1="183.38"
       id="linearGradient4010"
       xlink:href="#linearGradient2823-1"
       spreadMethod="reflect"
       gradientTransform="matrix(0.95651,0,0,0.95651,-0.3786,-16.52368)" />
    <linearGradient
       id="linearGradient2835-9">
      <stop
         id="stop23"
         stop-color="#e0e0e0" />
      <stop
         id="stop25"
         stop-color="#343434"
         offset="1" />
    </linearGradient>
    <linearGradient
       id="linearGradient2823-1">
      <stop
         id="stop28"
         stop-color="#a2a2a2" />
      <stop
         id="stop30"
         offset="1" />
    </linearGradient>
    <linearGradient
       id="linearGradient2829">
      <stop
         id="stop33"
         stop-color="#acacac" />
      <stop
         id="stop35"
         stop-color="#1f1f1f"
         offset="1" />
    </linearGradient>
    <linearGradient
       id="linearGradient4223"
       inkscape:collect="always">
      <stop
         stop-opacity="0.803"
         stop-color="#bebebe"
         id="stop4225" />
      <stop
         stop-opacity="0.732"
         stop-color="#9f9f9f"
         id="stop4227"
         offset="1" />
    </linearGradient>
    <linearGradient
       id="linearGradient4211"
       inkscape:collect="always">
      <stop
         stop-opacity="0.634"
         stop-color="#9f9f9f"
         id="stop4213" />
      <stop
         stop-opacity="0"
         stop-color="#696969"
         id="stop4215"
         offset="1" />
    </linearGradient>
    <linearGradient
       id="linearGradient4171"
       inkscape:collect="always">
      <stop
         stop-opacity="0.623"
         stop-color="#848484"
         id="stop4173" />
      <stop
         stop-opacity="0.698"
         stop-color="#cdcdcd"
         id="stop4175"
         offset="1" />
    </linearGradient>
    <linearGradient
       id="linearGradient4142"
       inkscape:collect="always">
      <stop
         stop-opacity="0.519"
         stop-color="#909090"
         id="stop4144" />
      <stop
         stop-opacity="0"
         stop-color="#696969"
         id="stop4146"
         offset="1" />
    </linearGradient>
    <linearGradient
       gradientUnits="userSpaceOnUse"
       y2="324.36"
       x2="278.75"
       y1="63.25"
       x1="165.74"
       id="linearGradient4148"
       xlink:href="#linearGradient4142"
       inkscape:collect="always" />
    <linearGradient
       spreadMethod="reflect"
       gradientUnits="userSpaceOnUse"
       y2="114.16"
       x2="387.93"
       y1="106.85"
       x1="379.78"
       id="linearGradient4177"
       xlink:href="#linearGradient4171"
       inkscape:collect="always" />
    <linearGradient
       gradientTransform="translate(26.808511,-26.382979)"
       y2="114.16"
       x2="387.93"
       y1="108.46"
       x1="381.27"
       spreadMethod="reflect"
       gradientUnits="userSpaceOnUse"
       id="linearGradient4207"
       xlink:href="#linearGradient4171"
       inkscape:collect="always" />
    <linearGradient
       gradientUnits="userSpaceOnUse"
       y2="125.1"
       x2="281.1"
       y1="61.711"
       x1="284.7"
       id="linearGradient4217"
       xlink:href="#linearGradient4211"
       inkscape:collect="always" />
    <linearGradient
       gradientUnits="userSpaceOnUse"
       y2="103.09"
       x2="255.7"
       y1="93.26"
       x1="259.02"
       id="linearGradient4229"
       xlink:href="#linearGradient4223"
       inkscape:collect="always" />
    <linearGradient
       gradientUnits="userSpaceOnUse"
       y2="117.29"
       x2="258.99"
       y1="102.54"
       x1="262.84"
       id="linearGradient4237"
       xlink:href="#linearGradient4223"
       inkscape:collect="always" />
    <filter
       color-interpolation-filters="sRGB"
       height="1.136"
       y="-0.068"
       width="1.049"
       x="-0.024"
       id="filter4257"
       inkscape:collect="always">
      <feGaussianBlur
         id="feGaussianBlur4259"
         stdDeviation="2.75443"
         inkscape:collect="always" />
    </filter>
    <filter
       height="1.1000979"
       y="-0.050048949"
       width="1.0562191"
       x="-0.028109536"
       id="filter4175"
       style="color-interpolation-filters:sRGB"
       inkscape:collect="always">
      <feGaussianBlur
         id="feGaussianBlur4177"
         stdDeviation="3.5625119"
         inkscape:collect="always" />
    </filter>
  </defs>
  <sodipodi:namedview
     id="base"
     pagecolor="#ffffff"
     bordercolor="#666666"
     borderopacity="1.0"
     inkscape:pageopacity="0.0"
     inkscape:pageshadow="2"
     inkscape:zoom="2.66"
     inkscape:cx="128"
     inkscape:cy="128"
     inkscape:document-units="px"
     inkscape:current-layer="layer1"
     width="256"
     height="256"
     inkscape:window-width="1920"
     inkscape:window-height="1056"
     inkscape:window-x="0"
     inkscape:window-y="0"
     showgrid="false"
     showguides="true"
     inkscape:guide-bbox="true"
     inkscape:window-maximized="1" />
  <metadata
     id="metadata3902">
    <rdf:RDF>
      <cc:Work>
        <dc:format>image/svg+xml</dc:format>
        <dc:type
           rdf:resource="http://purl.org/dc/dcmitype/StillImage" />
        <dc:creator>
          <cc:Agent>
            <dc:title>Albert Pal</dc:title>
          </cc:Agent>
        </dc:creator>
        <dc:rights>
          <cc:Agent>
            <dc:title>Albert Pal</dc:title>
          </cc:Agent>
        </dc:rights>
        <dc:publisher>
          <cc:Agent>
            <dc:title>Albert Pal</dc:title>
          </cc:Agent>
        </dc:publisher>
        <cc:license
           rdf:resource="http://artlibre.org/licence.php/lalgb.html" />
      </cc:Work>
      <cc:License
         rdf:about="http://artlibre.org/licence.php/lalgb.html">
        <cc:permits
           rdf:resource="http://web.resource.org/cc/Reproduction" />
        <cc:permits
           rdf:resource="http://web.resource.org/cc/Distribution" />
        <cc:permits
           rdf:resource="http://web.resource.org/cc/DerivativeWorks" />
        <cc:requires
           rdf:resource="http://web.resource.org/cc/ShareAlike" />
        <cc:requires
           rdf:resource="http://web.resource.org/cc/Notice" />
        <cc:requires
           rdf:resource="http://web.resource.org/cc/Attribution" />
      </cc:License>
    </rdf:RDF>
  </metadata>
  <g
     inkscape:label="1. réteg"
     inkscape:groupmode="layer"
     id="layer1">
    <g
       transform="matrix(0.77077081,0,0,0.77077081,-77.881044,-22.886301)"
       id="g4261">
      <path
         style="fill:#000000;fill-opacity:0.51399997;fill-rule:evenodd;stroke:none;stroke-width:1;stroke-linecap:butt;stroke-linejoin:miter;stroke-opacity:1;filter:url(#filter4257)"
         d="m 137.15847,253.33333 1.0929,10.92897 c 1.69466,2.56439 1.62485,5.1824 6.55737,7.10382 l 234.9905,77.59563 c 4.36168,2.76045 7.27409,1.93611 10.91114,-1.0929 l 16.39344,-17.48633 z"
         id="path4239"
         inkscape:connector-curvature="0"
         sodipodi:nodetypes="ccccccc" />
      <path
         style="fill:#000000;fill-opacity:0.73000004;fill-rule:evenodd;stroke:none;stroke-width:1;stroke-linecap:butt;stroke-linejoin:miter;stroke-opacity:1"
         d="M 146.27659,241.2766 139.89362,67.340426 c -0.0538,-6.437983 2.49923,-9.41706 7.97872,-7.978724 l 135.10638,37.234043 c 8.12648,2.325734 17.80936,-1.266511 19.14894,-15.425533 0.93604,-9.893676 4.6708,-17.669623 18.61702,-14.893617 l 85.6383,19.680851 c 6.41139,1.511285 7.81765,4.447577 7.4468,11.702128 l -2.12765,230.851066 -5.31915,5.85106 -254.86675,-84.34164 z"
         id="path4198"
         inkscape:connector-curvature="0"
         sodipodi:nodetypes="ccccsccccccc" />
      <path
         style="fill:url(#linearGradient4217);fill-opacity:1;fill-rule:evenodd;stroke:none;stroke-width:1;stroke-linecap:butt;stroke-linejoin:miter;stroke-opacity:1"
         sodipodi:nodetypes="ccccsccccccc"
         inkscape:connector-curvature="0"
         id="path4209"
         d="M 146.27659,241.2766 139.89362,67.340426 c -0.0538,-6.437983 2.49923,-9.41706 7.97872,-7.978724 l 135.10638,37.234043 c 8.12648,2.325734 17.80936,-1.266511 19.14894,-15.425533 0.93604,-9.893676 4.6708,-17.669623 18.61702,-14.893617 l 85.6383,19.680851 c 6.41139,1.511285 7.81765,4.447577 7.4468,11.702128 l -2.12765,230.851066 -5.31915,5.85106 -254.86675,-84.34164 z" />
      <path
         style="fill:url(#linearGradient4229);fill-opacity:1;fill-rule:evenodd;stroke:#cecece;stroke-width:1;stroke-linecap:butt;stroke-linejoin:miter;stroke-opacity:0.70499998"
         inkscape:connector-curvature="0"
         id="path4221"
         d="m 142.62295,64.262295 267.21311,65.573775 1.0929,194.53552 -256.8306,-92.89618 z"
         sodipodi:nodetypes="ccccc" />
      <path
         style="fill:url(#linearGradient4237);fill-opacity:1;fill-rule:evenodd;stroke:#cecece;stroke-width:1;stroke-linecap:butt;stroke-linejoin:miter;stroke-opacity:0.70499998"
         d="m 136.61202,73.005464 267.21311,65.573776 4.37159,189.07104 -260.10929,-87.4317 z"
         id="path4219"
         inkscape:connector-curvature="0" />
      <path
         style="fill:#000000;fill-opacity:0.76999996;fill-rule:evenodd;stroke:none;stroke-width:1;stroke-linecap:butt;stroke-linejoin:miter;stroke-opacity:1"
         d="m 116.2037,92.685185 c 1.13182,-4.540599 4.63483,-9.034209 10.68729,-7.545261 L 261.11111,123.7037 c 6.48148,1.63624 16.36287,0.33244 20.83334,-11.11111 4.00878,-10.26173 10.87392,-18.779525 25.46296,-16.203701 l 68.51852,13.888891 c 12.25335,3.29007 11.96705,11.68066 12.96296,18.51851 l 12.5,205.55556 c 0.64976,7.44283 -5.7507,13.21303 -12.96296,10.18518 L 144.90741,262.59259 c -4.92216,-1.55932 -8.93994,-3.09709 -9.25926,-10.18518 z"
         id="path4138"
         inkscape:connector-curvature="0"
         sodipodi:nodetypes="cccscccccccc" />
      <path
         style="fill:url(#linearGradient4148);fill-opacity:1;fill-rule:evenodd;stroke:none;stroke-width:1;stroke-linecap:butt;stroke-linejoin:miter;stroke-opacity:1"
         sodipodi:nodetypes="cccsccccccc"
         inkscape:connector-curvature="0"
         id="path4140"
         d="m 116.2037,92.685185 c 1.13182,-4.540599 4.63483,-9.034209 10.68729,-7.545261 L 261.11111,123.7037 c 6.48148,1.63624 16.36287,0.33244 20.83334,-11.11111 4.00878,-10.26173 10.87392,-18.779525 25.46296,-16.203701 l 68.51852,13.888891 c 12.25335,3.29007 11.96705,11.68066 12.96296,18.51851 l 12.5,205.55556 c 0.64976,7.44283 -5.7507,13.21303 -12.96296,10.18518 L 209.72222,283.88889 C 173.76467,257.82993 120.35853,138.21611 116.2037,92.685185 Z" />
      <path
         style="fill:#000000;fill-opacity:0.27300002;fill-rule:evenodd;stroke:none;stroke-width:1;stroke-linecap:butt;stroke-linejoin:miter;stroke-opacity:1;filter:url(#filter4175)"
         d="m 177.77778,215.83334 -80.555558,82.4074 255.555558,88.42593 38.75029,-40.87068 c 4.63488,-1.3015 9.96817,-1.38077 9.86082,-10.98118 L 396.29629,282.5 Z"
         id="path4150"
         inkscape:connector-curvature="0"
         sodipodi:nodetypes="ccccccc" />
      <path
         style="fill:#848484;fill-opacity:1;fill-rule:evenodd;stroke:none;stroke-width:1;stroke-linecap:butt;stroke-linejoin:miter;stroke-opacity:1"
         inkscape:connector-curvature="0"
         d="m 130.29688,79.757812 c -3.73674,-0.05935 -6.2712,2.374412 -7.66211,5.353516 1.24508,-0.330919 2.6592,-0.363492 4.25585,0.0293 l 134.22071,38.562492 c 5.49861,1.38812 13.44221,0.65773 18.45508,-6.58203 -4.30627,2.38583 -9.16625,2.43292 -12.90039,1.49024 L 132.44727,80.046875 c -0.75656,-0.186118 -1.47316,-0.278306 -2.15039,-0.289063 z m 177.54687,11.074219 c -7.10689,0.02874 -11.9932,3.152137 -15.51367,7.738281 3.82724,-2.318415 8.71897,-3.304404 15.07812,-2.18164 l 68.51758,13.888668 c 12.25335,3.29007 11.96698,11.68169 12.96289,18.51954 l 12.5,205.55468 c 0.1753,2.00795 -0.17581,3.88521 -0.90429,5.50977 4.09619,-1.28823 6.90142,-5.55587 6.46093,-10.60156 l -12.5,-205.55665 c -0.99591,-6.83785 -0.70954,-15.2275 -12.96289,-18.51757 L 312.96289,91.296875 c -1.82363,-0.321978 -3.52737,-0.47128 -5.11914,-0.464844 z"
         id="path4164" />
      <path
         style="fill:url(#linearGradient4177);fill-opacity:1;fill-rule:evenodd;stroke:none;stroke-width:1;stroke-linecap:butt;stroke-linejoin:miter;stroke-opacity:1"
         id="path4169"
         d="m 375.92578,110.27734 c 12.25335,3.29007 11.96698,11.68169 12.96289,18.51954 2.18404,-2.05828 3.13422,-2.71335 5.55664,-5.09376 -0.99591,-6.83785 -0.70954,-15.2275 -12.96289,-18.51757 -2.39781,2.28773 -2.9924,2.79876 -5.55664,5.09179 z"
         inkscape:connector-curvature="0"
         sodipodi:nodetypes="ccccc" />
      <path
         style="fill:#858585;fill-opacity:1;fill-rule:evenodd;stroke:none;stroke-width:1;stroke-linecap:butt;stroke-linejoin:miter;stroke-opacity:1"
         inkscape:connector-curvature="0"
         d="m 151.9043,54.332031 c -2.67378,0.112285 -4.27807,1.802415 -4.90039,4.837891 0.28199,0.05237 0.56972,0.11281 0.86914,0.191406 l 135.10547,37.234375 c 5.41154,1.54874 11.51034,0.467116 15.3789,-4.605469 -2.77183,0.801996 -5.76159,0.727663 -8.57031,-0.07617 L 154.68164,54.681641 c -1.0274,-0.269688 -1.9536,-0.384203 -2.77734,-0.34961 z m 170.88281,6.701172 c -5.39865,-0.126557 -8.73663,1.852669 -10.81445,5.035156 2.34672,-0.518874 5.2277,-0.496408 8.77148,0.208985 l 85.63867,19.679687 c 6.41139,1.511285 7.81812,4.448574 7.44727,11.703125 l -2.12891,230.849614 -0.47461,0.52148 1.96485,0.65039 5.31836,-5.85156 2.1289,-230.851564 c 0.37085,-7.254551 -1.03587,-10.189887 -7.44726,-11.701172 L 327.55273,61.595703 c -1.74327,-0.347001 -3.32697,-0.528775 -4.76562,-0.5625 z"
         id="path4200" />
      <path
         style="fill:url(#linearGradient4207);fill-opacity:1;fill-rule:evenodd;stroke:none;stroke-width:1;stroke-linecap:butt;stroke-linejoin:miter;stroke-opacity:1"
         sodipodi:nodetypes="ccccc"
         inkscape:connector-curvature="0"
         d="m 403.12392,85.141164 c 12.4021,2.867396 10.71654,4.984484 10.70306,18.467586 2.18404,-2.05828 4.25114,-3.752349 6.67356,-6.132759 0.48467,-12.136762 1.00482,-14.993724 -11.89791,-17.244792 -2.39781,2.28773 -2.91447,2.616935 -5.47871,4.909965 z"
         id="path4205" />
    </g>
    <ellipse
       transform="matrix(1.4265033,0,0,1.4265033,704.97224,-0.39247595)"
       id="path3536"
       cx="-426.57999"
       cy="113.85"
       rx="53.029999"
       ry="52.893002"
       style="fill:#000000;fill-opacity:0.39613524;stroke:none;filter:url(#filter4525)" />
    <g
       id="g3540"
       transform="matrix(1.4265033,0,0,1.4265033,235.69068,-76.780342)">
      <ellipse
         transform="translate(335.49561,47.52326)"
         id="path2739"
         cx="-426.57999"
         cy="113.85"
         rx="53.029999"
         ry="52.893002"
         stroke-miterlimit="4"
         style="fill:url(#radialGradient2694);fill-opacity:1;stroke:#000000;stroke-width:2;stroke-linecap:round;stroke-linejoin:round;stroke-miterlimit:4;stroke-dasharray:none;stroke-opacity:1" />
      <path
         inkscape:connector-curvature="0"
         sodipodi:nodetypes="csssc"
         id="path3511"
         d="m -144.3942,153.93648 c -1.7775,-8.53994 -4.18045,-17.52 -1.37741,-25.61983 10.20342,-29.484408 39.45028,-13.06024 41.5978,-2.20386 2.32244,11.74068 4.736176,20.5821 -9.64187,13.77411 -9.02489,-4.27328 -16.41278,-4.9739 -22.86502,2.47934"
         stroke-miterlimit="4"
         style="fill:#737373;fill-opacity:1;fill-rule:evenodd;stroke:#000000;stroke-width:2;stroke-linecap:butt;stroke-linejoin:miter;stroke-miterlimit:4;stroke-dasharray:none;stroke-opacity:1" />
      <path
         inkscape:connector-curvature="0"
         sodipodi:nodetypes="csssc"
         id="path3513"
         d="m -81.859764,109.30838 c 10.10101,-2.12967 20.44982,-3.08786 30.30303,-0.55096 11.76853,3.03004 11.8938,12.21872 9.64187,20.38568 -4.28132,15.52685 -11.23581,7.73823 -15.15151,1.92837 -2.86463,-4.25036 -5.82751,-9.91736 -10.46832,-14.87603"
         stroke-miterlimit="4"
         style="fill:#aeaeae;fill-opacity:1;fill-rule:evenodd;stroke:#000000;stroke-width:2;stroke-linecap:butt;stroke-linejoin:miter;stroke-miterlimit:4;stroke-dasharray:none;stroke-opacity:1" />
      <circle
         transform="matrix(1.09375,0,0,1.09375,380.26145,35.919954)"
         id="path3515"
         cx="-453.98999"
         cy="114.95"
         r="17.631001"
         style="fill:#000000;fill-opacity:1;stroke:none" />
      <circle
         transform="translate(336.04657,46.696814)"
         id="path3517"
         cx="-396.97"
         cy="100.08"
         r="9.9169998"
         style="fill:#000000;fill-opacity:1;stroke:none" />
      <path
         inkscape:connector-curvature="0"
         sodipodi:nodetypes="cccc"
         id="path3519"
         d="m -96.819545,167.95211 c -1.931444,-2.83072 30.098959,-10.22173 29.485107,-7.94363 2.659053,0.0726 -5.407157,22.15887 -8.942941,21.09068 -2.551455,2.82564 -22.896161,-10.59438 -20.542166,-13.14705 z"
         style="fill:#000000;fill-opacity:1;stroke:none" />
      <path
         inkscape:connector-curvature="0"
         sodipodi:nodetypes="cc"
         id="path3522"
         d="m -77.176564,182.03565 c -5.39396,12.50402 -13.62288,12.25077 -23.415976,4.95868"
         stroke-miterlimit="4"
         style="fill:none;stroke:#000000;stroke-width:2;stroke-linecap:round;stroke-linejoin:round;stroke-miterlimit:4;stroke-dasharray:none;stroke-opacity:1" />
      <path
         inkscape:connector-curvature="0"
         sodipodi:nodetypes="cc"
         id="path3524"
         d="m -74.146264,181.76017 c 15.41032,9.37978 18.97914,2.18146 19.83471,-8.81542"
         stroke-miterlimit="4"
         style="fill:none;stroke:#000000;stroke-width:2;stroke-linecap:round;stroke-linejoin:round;stroke-miterlimit:4;stroke-dasharray:none;stroke-opacity:1" />
      <circle
         transform="translate(335.22013,47.798742)"
         id="path3526"
         cx="-448.20999"
         cy="113.3"
         r="6.8870001"
         style="fill:#ffffff;fill-opacity:1;stroke:none" />
    </g>
    <g
       font-size="7.5"
       font-variant="normal"
       letter-spacing="0"
       font-stretch="normal"
       font-weight="bold"
       line-height="125%"
       word-spacing="0"
       font-style="normal"
       transform="translate(64.201799,-42.158309)"
       id="text4330"
       style="font-style:normal;font-variant:normal;font-weight:bold;font-stretch:normal;font-size:7.5px;line-height:125%;font-family:STIX;letter-spacing:0;word-spacing:0;fill:#000000;fill-opacity:1;stroke:none;stroke-width:1;stroke-linecap:butt;stroke-linejoin:miter;stroke-opacity:1">
      <path
         inkscape:connector-curvature="0"
         id="path4335"
         d="m -56.13327,39.467617 0,-0.1875 c -0.3075,0 -0.4425,-0.165 -0.825,-1.0725 l -1.665,-3.915 -0.21,0 -1.6575,4.0875 c -0.285,0.705 -0.3975,0.84 -0.7425,0.9 l 0,0.1875 1.515,0 0,-0.1875 c -0.4425,-0.03 -0.6075,-0.1125 -0.6075,-0.3075 0,-0.18 0.1425,-0.495 0.2325,-0.7275 l 0.0975,-0.255 1.6875,0 c 0.255,0.5925 0.345,0.855 0.345,1.02 0,0.165 -0.0975,0.225 -0.345,0.2475 l -0.24,0.0225 0,0.1875 2.415,0 z m -2.2875,-1.77 -1.4625,0 0.705,-1.8225 0.7575,1.8225 z" />
      <path
         inkscape:connector-curvature="0"
         id="path4337"
         d="m -55.760848,34.397617 0,0.1875 c 0.525,0.045 0.63,0.15 0.63,0.735 l 0,3.2025 c 0,0.3825 -0.045,0.5925 -0.2925,0.69 -0.0825,0.0375 -0.195,0.0525 -0.3375,0.0675 l 0,0.1875 2.4975,0 0,-0.1875 c -0.5925,-0.075 -0.6525,-0.1425 -0.6525,-0.645 l 0,-1.44 c 0.99,-0.0075 1.245,-0.03 1.5675,-0.15 0.6225,-0.2325 0.9675,-0.69 0.9675,-1.29 0,-0.915 -0.765,-1.3575 -2.0175,-1.3575 l -2.3625,0 z m 1.845,0.525 c 0,-0.1725 0.1275,-0.2625 0.375,-0.2625 0.6225,0 0.87,0.345 0.87,1.1775 0,0.8325 -0.3075,1.0875 -1.245,1.095 l 0,-2.01 z" />
    </g>
  </g>
</svg>
