<?xml version="1.0" encoding="UTF-8" standalone="no"?>
<!-- Created with Inkscape (http://www.inkscape.org/) -->

<svg
   xmlns:dc="http://purl.org/dc/elements/1.1/"
   xmlns:cc="http://creativecommons.org/ns#"
   xmlns:rdf="http://www.w3.org/1999/02/22-rdf-syntax-ns#"
   xmlns:svg="http://www.w3.org/2000/svg"
   xmlns="http://www.w3.org/2000/svg"
   xmlns:xlink="http://www.w3.org/1999/xlink"
   xmlns:sodipodi="http://sodipodi.sourceforge.net/DTD/sodipodi-0.dtd"
   xmlns:inkscape="http://www.inkscape.org/namespaces/inkscape"
   version="1.1"
   id="svg2"
   width="255"
   height="255"
   viewBox="0 0 255 255"
   sodipodi:docname="folder-black-icons.svg"
   inkscape:version="0.92.5 (2060ec1f9f, 2020-04-08)">
  <metadata
     id="metadata8">
    <rdf:RDF>
      <cc:Work
         rdf:about="">
        <dc:format>image/svg+xml</dc:format>
        <dc:type
           rdf:resource="http://purl.org/dc/dcmitype/StillImage" />
        <dc:title />
      </cc:Work>
    </rdf:RDF>
  </metadata>
  <defs
     id="defs6">
    <linearGradient
       inkscape:collect="always"
       id="linearGradient883">
      <stop
         style="stop-color:#a0a0a0;stop-opacity:0.375"
         offset="0"
         id="stop879" />
      <stop
         style="stop-color:#737373;stop-opacity:0"
         offset="1"
         id="stop881" />
    </linearGradient>
    <linearGradient
       id="linearGradient942"
       inkscape:collect="always">
      <stop
         id="stop938"
         offset="0"
         style="stop-color:#000000;stop-opacity:1;" />
      <stop
         id="stop940"
         offset="1"
         style="stop-color:#3c3c3c;stop-opacity:1" />
    </linearGradient>
    <linearGradient
       id="linearGradient819"
       inkscape:collect="always">
      <stop
         id="stop927"
         offset="0"
         style="stop-color:#000000;stop-opacity:1;" />
      <stop
         style="stop-color:#664949;stop-opacity:0.91764706"
         offset="0.54352802"
         id="stop934" />
      <stop
         style="stop-color:#030303;stop-opacity:0.5411765"
         offset="0.83101159"
         id="stop932" />
      <stop
         id="stop929"
         offset="1"
         style="stop-color:#5f5f5f;stop-opacity:0.70535713" />
    </linearGradient>
    <linearGradient
       inkscape:collect="always"
       id="linearGradient914">
      <stop
         style="stop-color:#4a4a4a;stop-opacity:1"
         offset="0"
         id="stop910" />
      <stop
         style="stop-color:#000000;stop-opacity:1"
         offset="1"
         id="stop912" />
    </linearGradient>
    <linearGradient
       inkscape:collect="always"
       id="linearGradient906">
      <stop
         style="stop-color:#ffffff;stop-opacity:0.54910713"
         offset="0"
         id="stop902" />
      <stop
         style="stop-color:#000000;stop-opacity:0;"
         offset="1"
         id="stop904" />
    </linearGradient>
    <linearGradient
       inkscape:collect="always"
       id="linearGradient848">
      <stop
         style="stop-color:#ffffff;stop-opacity:0.57589287"
         offset="0"
         id="stop844" />
      <stop
         style="stop-color:#000000;stop-opacity:0"
         offset="1"
         id="stop846" />
    </linearGradient>
    <linearGradient
       inkscape:collect="always"
       id="linearGradient832">
      <stop
         style="stop-color:#ffffff;stop-opacity:0.41517857"
         offset="0"
         id="stop828" />
      <stop
         style="stop-color:#414141;stop-opacity:0"
         offset="1"
         id="stop830" />
    </linearGradient>
    <linearGradient
       inkscape:collect="always"
       id="linearGradient831">
      <stop
         style="stop-color:#414141;stop-opacity:1"
         offset="0"
         id="stop827" />
      <stop
         style="stop-color:#000000;stop-opacity:1"
         offset="1"
         id="stop829" />
    </linearGradient>
    <linearGradient
       inkscape:collect="always"
       id="linearGradient819-3">
      <stop
         style="stop-color:#000000;stop-opacity:1;"
         offset="0"
         id="stop815" />
      <stop
         style="stop-color:#6d6d6d;stop-opacity:1"
         offset="1"
         id="stop817" />
    </linearGradient>
    <linearGradient
       inkscape:collect="always"
       xlink:href="#linearGradient942"
       id="linearGradient821"
       x1="4421.4531"
       y1="4296.7954"
       x2="3999.0774"
       y2="6987.0449"
       gradientUnits="userSpaceOnUse"
       gradientTransform="matrix(0.02302396,0,0,0.02302396,21.01259,75.509796)" />
    <linearGradient
       inkscape:collect="always"
       xlink:href="#linearGradient831"
       id="linearGradient833"
       x1="5832.6465"
       y1="2638.7888"
       x2="7282.3911"
       y2="2929.6235"
       gradientUnits="userSpaceOnUse"
       spreadMethod="reflect"
       gradientTransform="matrix(0.02302396,0,0,0.02302396,17.646361,82.990296)" />
    <linearGradient
       inkscape:collect="always"
       xlink:href="#linearGradient819-3"
       id="linearGradient839"
       gradientUnits="userSpaceOnUse"
       x1="7875.4521"
       y1="6017.4863"
       x2="3365.5205"
       y2="5784.9116"
       gradientTransform="matrix(0.02302396,0,0,0.02302396,22.882712,76.257849)"
       spreadMethod="reflect" />
    <radialGradient
       inkscape:collect="always"
       xlink:href="#linearGradient832"
       id="radialGradient836"
       cx="2664.1877"
       cy="2917.675"
       fx="2664.1877"
       fy="2917.675"
       r="113.71533"
       gradientTransform="matrix(0.04199449,0,0,0.42512738,-2.6364613,-1091.7254)"
       gradientUnits="userSpaceOnUse" />
    <linearGradient
       inkscape:collect="always"
       xlink:href="#linearGradient848"
       id="linearGradient850"
       x1="150.45453"
       y1="34.469696"
       x2="184.24243"
       y2="39.621208"
       gradientUnits="userSpaceOnUse"
       spreadMethod="reflect" />
    <linearGradient
       inkscape:collect="always"
       xlink:href="#linearGradient848"
       id="linearGradient858"
       x1="121.51515"
       y1="51.439396"
       x2="123.33333"
       y2="62.954548"
       gradientUnits="userSpaceOnUse"
       spreadMethod="reflect" />
    <linearGradient
       inkscape:collect="always"
       xlink:href="#linearGradient848"
       id="linearGradient866"
       x1="184.54544"
       y1="65.184029"
       x2="189.09091"
       y2="56.244633"
       gradientUnits="userSpaceOnUse"
       spreadMethod="reflect" />
    <filter
       inkscape:collect="always"
       style="color-interpolation-filters:sRGB"
       id="filter876"
       x="-0.015467213"
       width="1.0309344"
       y="-0.053531917"
       height="1.1070638">
      <feGaussianBlur
         inkscape:collect="always"
         stdDeviation="0.47651519"
         id="feGaussianBlur878" />
    </filter>
    <filter
       inkscape:collect="always"
       style="color-interpolation-filters:sRGB"
       id="filter888"
       x="-0.016068427"
       width="1.0321369"
       y="-0.047394512"
       height="1.094789">
      <feGaussianBlur
         inkscape:collect="always"
         stdDeviation="0.43214335"
         id="feGaussianBlur890" />
    </filter>
    <filter
       inkscape:collect="always"
       style="color-interpolation-filters:sRGB"
       id="filter896"
       x="-0.014806236"
       width="1.0296125"
       y="-0.063314283"
       height="1.1266286">
      <feGaussianBlur
         inkscape:collect="always"
         stdDeviation="0.41969695"
         id="feGaussianBlur898" />
    </filter>
    <linearGradient
       inkscape:collect="always"
       xlink:href="#linearGradient906"
       id="linearGradient908"
       x1="106.32432"
       y1="55.381573"
       x2="149.11588"
       y2="54.775513"
       gradientUnits="userSpaceOnUse"
       spreadMethod="reflect"
       gradientTransform="matrix(0.74831631,0,0,0.74831631,19.082702,64.305434)" />
    <linearGradient
       inkscape:collect="always"
       xlink:href="#linearGradient914"
       id="linearGradient916"
       x1="80.913612"
       y1="177.05942"
       x2="120.8244"
       y2="183.65672"
       gradientUnits="userSpaceOnUse"
       spreadMethod="reflect"
       gradientTransform="matrix(0.74831631,0,0,0.74831631,19.082702,64.305434)" />
    <radialGradient
       inkscape:collect="always"
       xlink:href="#linearGradient819"
       id="radialGradient936"
       cx="117.20308"
       cy="153.92276"
       fx="117.20308"
       fy="153.92276"
       r="122.25906"
       gradientTransform="matrix(0.76544115,0.05547882,-0.03452761,0.47637748,23.530805,108.92319)"
       gradientUnits="userSpaceOnUse"
       spreadMethod="reflect" />
    <radialGradient
       inkscape:collect="always"
       xlink:href="#linearGradient883"
       id="radialGradient885"
       cx="113.61008"
       cy="241.74144"
       fx="113.61008"
       fy="241.74144"
       r="74.821303"
       gradientTransform="matrix(0.74509407,0.06936949,-0.01147515,0.12325398,22.2228,193.15708)"
       gradientUnits="userSpaceOnUse" />
    <linearGradient
       id="linearGradient858-5"
       inkscape:collect="always">
      <stop
         id="stop854"
         offset="0"
         style="stop-color:#ffffff;stop-opacity:1;" />
      <stop
         id="stop856"
         offset="1"
         style="stop-color:#ffffff;stop-opacity:0;" />
    </linearGradient>
    <linearGradient
       id="linearGradient855"
       inkscape:collect="always">
      <stop
         id="stop851"
         offset="0"
         style="stop-color:#000000;stop-opacity:1" />
      <stop
         id="stop853"
         offset="1"
         style="stop-color:#000000;stop-opacity:0" />
    </linearGradient>
    <linearGradient
       id="linearGradient4223"
       inkscape:collect="always">
      <stop
         stop-opacity="0.803"
         stop-color="#bebebe"
         id="stop4225" />
      <stop
         stop-opacity="0.732"
         stop-color="#9f9f9f"
         id="stop4227"
         offset="1" />
    </linearGradient>
    <linearGradient
       id="linearGradient4211"
       inkscape:collect="always">
      <stop
         stop-opacity="0.634"
         stop-color="#9f9f9f"
         id="stop4213" />
      <stop
         stop-opacity="0"
         stop-color="#696969"
         id="stop4215"
         offset="1" />
    </linearGradient>
    <linearGradient
       id="linearGradient4171"
       inkscape:collect="always">
      <stop
         stop-opacity="0.623"
         stop-color="#848484"
         id="stop4173" />
      <stop
         stop-opacity="0.698"
         stop-color="#cdcdcd"
         id="stop4175"
         offset="1" />
    </linearGradient>
    <linearGradient
       id="linearGradient4142"
       inkscape:collect="always">
      <stop
         stop-opacity="0.519"
         stop-color="#909090"
         id="stop4144" />
      <stop
         stop-opacity="0"
         stop-color="#696969"
         id="stop4146"
         offset="1" />
    </linearGradient>
    <linearGradient
       gradientTransform="matrix(0.77077081,0,0,0.77077081,-80.822015,-34.561922)"
       gradientUnits="userSpaceOnUse"
       y2="324.36"
       x2="278.75"
       y1="63.25"
       x1="165.74"
       id="linearGradient4148"
       xlink:href="#linearGradient4142"
       inkscape:collect="always" />
    <linearGradient
       gradientTransform="matrix(0.77077081,0,0,0.77077081,-80.822015,-34.561922)"
       spreadMethod="reflect"
       gradientUnits="userSpaceOnUse"
       y2="114.16"
       x2="387.93"
       y1="106.85"
       x1="379.78"
       id="linearGradient4177"
       xlink:href="#linearGradient4171"
       inkscape:collect="always" />
    <linearGradient
       gradientTransform="matrix(0.77077081,0,0,0.77077081,-60.158797,-54.897152)"
       y2="114.16"
       x2="387.93"
       y1="108.46"
       x1="381.27"
       spreadMethod="reflect"
       gradientUnits="userSpaceOnUse"
       id="linearGradient4207"
       xlink:href="#linearGradient4171"
       inkscape:collect="always" />
    <linearGradient
       gradientTransform="matrix(0.77077081,0,0,0.77077081,-80.822015,-34.561922)"
       gradientUnits="userSpaceOnUse"
       y2="125.1"
       x2="281.1"
       y1="61.711"
       x1="284.7"
       id="linearGradient4217"
       xlink:href="#linearGradient4211"
       inkscape:collect="always" />
    <linearGradient
       gradientTransform="matrix(0.77077081,0,0,0.77077081,-80.822015,-34.561922)"
       gradientUnits="userSpaceOnUse"
       y2="103.09"
       x2="255.7"
       y1="93.26"
       x1="259.02"
       id="linearGradient4229"
       xlink:href="#linearGradient4223"
       inkscape:collect="always" />
    <linearGradient
       gradientTransform="matrix(0.77077081,0,0,0.77077081,-80.822015,-34.561922)"
       gradientUnits="userSpaceOnUse"
       y2="117.29"
       x2="258.99"
       y1="102.54"
       x1="262.84"
       id="linearGradient4237"
       xlink:href="#linearGradient4223"
       inkscape:collect="always" />
    <filter
       height="1.0332601"
       y="-0.016630034"
       width="1.0187733"
       x="-0.0093866307"
       id="filter890"
       style="color-interpolation-filters:sRGB"
       inkscape:collect="always">
      <feGaussianBlur
         id="feGaussianBlur892"
         stdDeviation="0.91238843"
         inkscape:collect="always" />
    </filter>
    <linearGradient
       gradientUnits="userSpaceOnUse"
       y2="166.73978"
       x2="120.79942"
       y1="193.77997"
       x1="111.98162"
       id="linearGradient857"
       xlink:href="#linearGradient855"
       inkscape:collect="always" />
    <linearGradient
       gradientUnits="userSpaceOnUse"
       y2="86.098389"
       x2="185.756"
       y1="54.649479"
       x1="221.87906"
       id="linearGradient860"
       xlink:href="#linearGradient858-5"
       inkscape:collect="always" />
    <linearGradient
       gradientTransform="translate(19.986222,-19.692307)"
       y2="86.098389"
       x2="185.756"
       y1="54.649479"
       x1="221.87906"
       gradientUnits="userSpaceOnUse"
       id="linearGradient864"
       xlink:href="#linearGradient858-5"
       inkscape:collect="always" />
  </defs>
  <sodipodi:namedview
     pagecolor="#ff0000"
     bordercolor="#666666"
     borderopacity="1"
     objecttolerance="10"
     gridtolerance="10"
     guidetolerance="10"
     inkscape:pageopacity="0"
     inkscape:pageshadow="2"
     inkscape:window-width="1920"
     inkscape:window-height="1056"
     id="namedview4"
     showgrid="false"
     inkscape:zoom="3.5490196"
     inkscape:cx="127.5"
     inkscape:cy="127.5"
     inkscape:window-x="0"
     inkscape:window-y="0"
     inkscape:window-maximized="1"
     inkscape:current-layer="svg2"
     inkscape:snap-to-guides="false"
     inkscape:snap-grids="false"
     inkscape:snap-others="false"
     inkscape:object-nodes="false"
     inkscape:snap-nodes="false"
     inkscape:snap-global="false" />
  <g
     id="g1062"
     transform="translate(1.5610036,-1.3721532)">
    <g
       transform="matrix(1.027092,0,0,0.87914716,269.10213,48.787807)"
       style="fill:#000000;fill-opacity:0.12757203;filter:url(#filter890)"
       id="g888">
      <path
         style="fill:#000000;fill-opacity:0.12757203;fill-rule:evenodd;stroke:none;stroke-width:1;stroke-linecap:butt;stroke-linejoin:miter;stroke-opacity:1"
         d="m 177.77778,215.83334 -80.555558,82.4074 255.555558,88.42593 38.75029,-40.87068 c 4.25788,-4.69448 8.46018,-13.4447 8.35283,-19.27513 L 396.29629,282.5 Z"
         id="path4150"
         inkscape:connector-curvature="0"
         sodipodi:nodetypes="ccccccc"
         transform="matrix(0.77077081,0,0,0.77077081,-337.33598,-64.706486)" />
      <path
         style="fill:#000000;fill-opacity:0.12757203;fill-rule:evenodd;stroke:none;stroke-width:0.77077079;stroke-linecap:butt;stroke-linejoin:miter;stroke-opacity:1"
         d="m -258.76367,164.31055 c 64.25456,22.23242 128.50911,44.46484 192.76367,66.69726 10.704605,-12.11221 23.269675,-22.6975 32.626953,-35.88281 4.915466,-9.97175 -0.0014,-21.20106 0.334678,-31.66405 1.365667,-7.80464 -3.023601,-10.97488 -10.290126,-11.82807 -52.133991,-15.90432 -104.267985,-31.80864 -156.401975,-47.71296 -19.67773,20.13021 -39.35547,40.26042 -59.0332,60.39063 z"
         id="path866"
         inkscape:connector-curvature="0" />
      <path
         style="fill:#000000;fill-opacity:0.12757203;fill-rule:evenodd;stroke:none;stroke-width:0.77077079;stroke-linecap:butt;stroke-linejoin:miter;stroke-opacity:1"
         d="m -255.12695,163.45117 c 62.83854,21.74284 125.67708,43.48568 188.515622,65.22852 10.661699,-12.45649 24.482587,-22.55662 32.46289,-37.08399 2.693429,-10.92369 -1.823197,-22.00405 -0.960937,-33.02148 -3.239054,-6.39155 -11.866064,-4.61259 -17.48133,-7.67536 -48.853875,-14.90314 -97.707755,-29.80627 -146.561635,-44.70941 -18.65821,19.08724 -37.31641,38.17448 -55.97461,57.26172 z"
         id="path872"
         inkscape:connector-curvature="0" />
      <path
         style="fill:#000000;fill-opacity:0.12757203;fill-rule:evenodd;stroke:none;stroke-width:0.77077079;stroke-linecap:butt;stroke-linejoin:miter;stroke-opacity:1"
         d="m -251.49023,162.5918 c 61.41731,21.2513 122.83463,42.5026 184.251949,63.7539 10.44283,-12.37841 24.919813,-21.97631 31.529297,-37.15625 1.394259,-10.18414 -1.706975,-20.39676 -1.751954,-30.52929 -5.3153,-5.0699 -13.440876,-3.58672 -19.715715,-7.06986 -47.132517,-14.3771 -94.265047,-28.75421 -141.397567,-43.13132 -17.63867,18.04428 -35.27734,36.08855 -52.91601,54.13282 z"
         id="path878"
         inkscape:connector-curvature="0" />
    </g>
    <path
       sodipodi:nodetypes="ccccsccccccc"
       inkscape:connector-curvature="0"
       id="path4198"
       d="M 31.923711,151.40704 27.003904,17.342113 c -0.04147,-4.96221 1.926333,-7.258395 6.149764,-6.149768 L 137.28972,39.891259 c 6.26366,1.792607 13.72694,-0.97619 14.75945,-11.889551 0.72147,-7.625757 3.60011,-13.61923 14.34945,-11.479565 l 66.0075,15.169425 c 4.94172,1.164855 6.02562,3.428063 5.73978,9.019659 l -1.63993,177.933263 -4.09985,4.50983 -196.443848,-65.00808 z"
       style="fill:#000000;fill-opacity:0.73000004;fill-rule:evenodd;stroke:none;stroke-width:0.77077079;stroke-linecap:butt;stroke-linejoin:miter;stroke-opacity:1" />
    <path
       d="M 31.923711,151.40704 27.003904,17.342113 c -0.04147,-4.96221 1.926333,-7.258395 6.149764,-6.149768 L 137.28972,39.891259 c 6.26366,1.792607 13.72694,-0.97619 14.75945,-11.889551 0.72147,-7.625757 3.60011,-13.61923 14.34945,-11.479565 l 66.0075,15.169425 c 4.94172,1.164855 6.02562,3.428063 5.73978,9.019659 l -1.63993,177.933263 -4.09985,4.50983 -196.443848,-65.00808 z"
       id="path4209"
       inkscape:connector-curvature="0"
       sodipodi:nodetypes="ccccsccccccc"
       style="fill:url(#linearGradient4217);fill-opacity:1;fill-rule:evenodd;stroke:none;stroke-width:0.77077079;stroke-linecap:butt;stroke-linejoin:miter;stroke-opacity:1" />
    <path
       sodipodi:nodetypes="ccccc"
       d="M 29.107592,14.969579 235.06766,65.511931 235.91003,215.45423 37.952503,143.85257 Z"
       id="path4221"
       inkscape:connector-curvature="0"
       style="fill:url(#linearGradient4229);fill-opacity:1;fill-rule:evenodd;stroke:#cecece;stroke-width:0.77077079;stroke-linecap:butt;stroke-linejoin:miter;stroke-opacity:0.70499998" />
    <path
       inkscape:connector-curvature="0"
       id="path4219"
       d="M 24.474542,21.708559 230.43461,72.250911 233.8041,217.98135 33.319453,150.59155 Z"
       style="fill:url(#linearGradient4237);fill-opacity:1;fill-rule:evenodd;stroke:#cecece;stroke-width:0.77077079;stroke-linecap:butt;stroke-linejoin:miter;stroke-opacity:0.70499998" />
    <path
       sodipodi:nodetypes="cccscccccccc"
       inkscape:connector-curvature="0"
       id="path4138"
       d="M 8.7444046,36.877113 C 9.6167788,33.377352 12.316797,29.913809 16.981856,31.061446 L 120.43481,60.785279 c 4.99573,1.261166 12.61202,0.256235 16.05773,-8.564119 3.08985,-7.909442 8.3813,-14.47471 19.6261,-12.48934 l 52.81208,10.705152 c 9.44452,2.53589 9.22385,9.003112 9.99147,14.273527 l 9.63463,158.436221 c 0.50082,5.73672 -4.43247,10.18422 -9.99147,7.85044 L 30.868387,167.83678 c -3.793857,-1.20188 -6.890645,-2.38715 -7.136768,-7.85044 z"
       style="fill:#000000;fill-opacity:0.76999996;fill-rule:evenodd;stroke:none;stroke-width:0.77077079;stroke-linecap:butt;stroke-linejoin:miter;stroke-opacity:1" />
    <path
       d="M 8.7444046,36.877113 C 9.6167788,33.377352 12.316797,29.913809 16.981856,31.061446 L 120.43481,60.785279 c 4.99573,1.261166 12.61202,0.256235 16.05773,-8.564119 3.08985,-7.909442 8.3813,-14.47471 19.6261,-12.48934 l 52.81208,10.705152 c 9.44452,2.53589 9.22385,9.003112 9.99147,14.273527 l 9.63463,158.436221 c 0.50082,5.73672 -4.43247,10.18422 -9.99147,7.85044 L 31.136761,168.85067 c -4.722273,-3.4223 -8.128602,-7.01445 -8.632556,-13.84742 C 20.224751,124.09697 11.401175,65.991481 8.7444046,36.877113 Z"
       id="path4140"
       inkscape:connector-curvature="0"
       sodipodi:nodetypes="cccsccccccsc"
       style="fill:url(#linearGradient4148);fill-opacity:1;fill-rule:evenodd;stroke:none;stroke-width:0.77077079;stroke-linecap:butt;stroke-linejoin:miter;stroke-opacity:1" />
    <path
       id="path4164"
       d="m 19.607017,26.913071 c -2.88017,-0.04575 -4.833658,1.830128 -5.905731,4.126334 0.959671,-0.255062 2.049634,-0.280169 3.280285,0.02258 L 120.43498,60.784832 c 4.23816,1.069922 10.36086,0.506959 14.22463,-5.073237 -3.31914,1.838929 -7.06507,1.875224 -9.94324,1.148634 L 21.264475,27.135873 c -0.583135,-0.143455 -1.135469,-0.21451 -1.657458,-0.222802 z m 136.847943,8.535685 c -5.47778,0.02215 -9.24401,2.429575 -11.95748,5.964441 2.94992,-1.786966 6.72033,-2.546938 11.62177,-1.681544 l 52.81135,10.70498 c 9.44453,2.53589 9.2238,9.003905 9.99142,14.274321 l 9.63464,158.435546 c 0.13511,1.54767 -0.13551,2.99461 -0.69701,4.24677 3.15723,-0.99293 5.31942,-4.2823 4.9799,-8.17137 L 223.20492,60.784832 C 222.4373,55.514417 222.65802,49.047919 213.2135,46.51203 L 160.40065,35.807044 c -1.40561,-0.248171 -2.7188,-0.363249 -3.94569,-0.358288 z"
       inkscape:connector-curvature="0"
       style="fill:#848484;fill-opacity:1;fill-rule:evenodd;stroke:none;stroke-width:0.77077079;stroke-linecap:butt;stroke-linejoin:miter;stroke-opacity:1" />
    <path
       sodipodi:nodetypes="ccccc"
       inkscape:connector-curvature="0"
       d="m 208.9306,50.436633 c 9.44453,2.53589 9.2238,9.003905 9.99142,14.274321 1.68339,-1.586463 2.41577,-2.091371 4.2829,-3.926122 -0.76762,-5.270415 -0.5469,-11.736913 -9.99142,-14.272802 -1.84816,1.763315 -2.30646,2.157202 -4.2829,3.924603 z"
       id="path4169"
       style="fill:url(#linearGradient4177);fill-opacity:1;fill-rule:evenodd;stroke:none;stroke-width:0.77077079;stroke-linecap:butt;stroke-linejoin:miter;stroke-opacity:1" />
    <path
       id="path4200"
       d="m 36.261385,7.3156224 c -2.060871,0.08655 -3.297411,1.389248 -3.777077,3.7289046 0.217349,0.04036 0.439123,0.08695 0.669908,0.14753 L 137.28957,39.891226 c 4.17106,1.193724 8.87183,0.36004 11.85361,-3.549761 -2.13645,0.618155 -4.44087,0.560862 -6.60575,-0.05871 L 38.402078,7.5850914 C 37.610188,7.3772234 36.8963,7.2889584 36.261385,7.3156224 Z M 167.97287,12.480689 c -4.16112,-0.09755 -6.73394,1.427983 -8.33547,3.880952 1.80879,-0.399933 4.02936,-0.382617 6.76081,0.161079 l 66.00778,15.168528 c 4.94171,1.164855 6.02598,3.428831 5.74014,9.020428 l -1.6409,177.932144 -0.36582,0.40194 1.51445,0.5013 4.09924,-4.51021 1.64089,-177.933646 c 0.28584,-5.591596 -0.79841,-7.854067 -5.74013,-9.018922 L 171.64607,12.914248 c -1.34366,-0.267458 -2.56433,-0.407564 -3.6732,-0.433559 z"
       inkscape:connector-curvature="0"
       style="fill:#858585;fill-opacity:1;fill-rule:evenodd;stroke:none;stroke-width:0.77077079;stroke-linecap:butt;stroke-linejoin:miter;stroke-opacity:1" />
    <path
       id="path4205"
       d="m 229.89414,31.062402 c 9.55917,2.210105 8.25999,3.841895 8.2496,14.234276 1.6834,-1.586462 3.27666,-2.892201 5.14379,-4.726951 0.37357,-9.354662 0.77448,-11.556725 -9.17056,-13.291783 -1.84817,1.763316 -2.24639,2.017057 -4.22283,3.784458 z"
       inkscape:connector-curvature="0"
       sodipodi:nodetypes="ccccc"
       style="fill:url(#linearGradient4207);fill-opacity:1;fill-rule:evenodd;stroke:none;stroke-width:0.77077079;stroke-linecap:butt;stroke-linejoin:miter;stroke-opacity:1" />
    <path
       style="fill:none;fill-opacity:1;stroke:url(#linearGradient857);stroke-width:2.0999999;stroke-linecap:butt;stroke-linejoin:miter;stroke-miterlimit:4;stroke-dasharray:none;stroke-opacity:1"
       d="m 225.72675,196.33524 2.0574,24.39495 c 0.0295,8.34567 -2.0873,11.73805 -14.10792,7.34788 L 31.742824,167.82549 c -6.229286,-1.47576 -8.206505,-5.92013 -8.229621,-11.16877 l -2.057406,-24.10103"
       id="path858"
       inkscape:connector-curvature="0"
       sodipodi:nodetypes="cccccc" />
    <path
       style="fill:none;fill-opacity:1;fill-rule:evenodd;stroke:url(#linearGradient860);stroke-width:1;stroke-linecap:butt;stroke-linejoin:miter;stroke-miterlimit:4;stroke-dasharray:none;stroke-opacity:1"
       sodipodi:nodetypes="cccc"
       inkscape:connector-curvature="0"
       id="path851"
       d="m 156.11864,39.73182 52.81208,10.705152 c 9.44452,2.53589 9.22385,9.003112 9.99147,14.273527 l 4.07025,66.933111" />
    <path
       d="m 176.39878,18.569938 52.51816,12.174727 c 11.79584,2.53589 9.22385,9.003112 9.99147,14.273527 l -2.98371,67.814858"
       id="path862"
       inkscape:connector-curvature="0"
       sodipodi:nodetypes="cccc"
       style="fill:none;fill-opacity:1;fill-rule:evenodd;stroke:url(#linearGradient864);stroke-width:1;stroke-linecap:butt;stroke-linejoin:miter;stroke-miterlimit:4;stroke-dasharray:none;stroke-opacity:1" />
  </g>
  <g
     id="g1097"
     transform="translate(234.99447,51)">
    <path
       style="opacity:1;fill:#000000;fill-opacity:0.21505378;stroke:none;stroke-width:0.04769848;stroke-linecap:round;stroke-linejoin:round;stroke-miterlimit:4;stroke-dasharray:none;stroke-opacity:0.67857139"
       d="m -34.906991,162.09129 c 0.131158,10.0866 -5.269845,23.39268 -22.24319,30.52556 -16.973351,7.13287 -39.346303,11.44721 -63.070789,7.87219 -22.89116,-3.44944 -52.50638,-12.74266 -67.70741,-22.21462 -19.39726,-12.08667 -27.0465,-29.71901 -29.1054,-39.60303 -2.78196,-13.35531 13.23509,-26.37598 28.36354,-16.00158 16.60243,11.38518 39.58607,18.13048 63.0708,22.99124 24.56033,5.08339 40.111785,6.39566 58.24867,2.97036 10.296611,-1.9446 32.258309,-0.80318 32.443779,13.45988 z"
       id="path864"
       inkscape:connector-curvature="0"
       sodipodi:nodetypes="sssssssss" />
    <path
       inkscape:connector-curvature="0"
       id="path1076"
       d="m -200.5332,119.92188 c -10.93971,-0.0615 -19.3171,12.35149 -14.52154,22.42196 6.41066,21.34273 24.86325,36.50847 45.33013,43.65811 30.3215,11.43975 63.90471,19.83134 95.944017,11.10415 14.409193,-3.51649 31.104305,-9.89015 36.253249,-25.25063 2.68827,-6.68697 2.744538,-16.35304 -4.949218,-19.64844 -14.805832,-7.43488 -31.030639,0.27264 -46.498047,-0.68164 -25.595271,-1.19215 -50.915041,-7.0672 -75.087891,-15.41016 -10.73482,-3.45943 -20.10519,-9.80466 -29.90625,-15.0957 -2.09334,-0.77253 -4.33171,-1.16609 -6.56445,-1.09765 z"
       style="opacity:1;fill:#000000;fill-opacity:0.21505378;stroke:none;stroke-width:0.04769848;stroke-linecap:round;stroke-linejoin:round;stroke-miterlimit:4;stroke-dasharray:none;stroke-opacity:0.67857139" />
    <path
       inkscape:connector-curvature="0"
       id="path1080"
       d="m -200.52148,120.92188 c -10.64757,-0.21081 -18.48638,12.76549 -13.26954,22.12109 7.08898,22.52443 28.33566,37.58118 50.13086,44.125 30.86568,11.33119 65.448007,17.84642 97.414316,6.79782 13.475019,-3.77745 27.615045,-13.24516 29.251703,-28.34079 1.443278,-6.77191 -3.494022,-12.99086 -9.998047,-14.17969 -16.254901,-4.60324 -32.736347,3.56518 -49.259765,0.61914 -26.698217,-2.44335 -53.251337,-8.61116 -77.974607,-19.02343 -8.74967,-3.44587 -15.94847,-11.05728 -25.46875,-12.12305 z"
       style="opacity:1;fill:#000000;fill-opacity:0.21505378;stroke:none;stroke-width:0.04769848;stroke-linecap:round;stroke-linejoin:round;stroke-miterlimit:4;stroke-dasharray:none;stroke-opacity:0.67857139" />
    <path
       inkscape:connector-curvature="0"
       id="path1084"
       d="m -200.51758,121.92188 c -10.43404,-0.28236 -17.44342,13.06362 -11.98047,21.86328 7.7619,22.82271 29.87232,37.10819 52.08203,43.48828 32.99608,11.97891 71.01069,17.17702 103.72852,1.9082 10.930892,-5.19186 21.276178,-17.0175 18.179688,-29.80859 -4.201199,-9.14485 -16.341847,-8.41852 -24.706319,-8.15945 -12.984006,1.53928 -26.1064,3.84234 -39.148659,1.23048 -27.05285,-3.30058 -54.22795,-9.52476 -78.71143,-21.74486 -6.11714,-3.52066 -12.10165,-8.40663 -19.44336,-8.77734 z"
       style="opacity:1;fill:#000000;fill-opacity:0.21505378;stroke:none;stroke-width:0.04769848;stroke-linecap:round;stroke-linejoin:round;stroke-miterlimit:4;stroke-dasharray:none;stroke-opacity:0.67857139" />
    <path
       inkscape:connector-curvature="0"
       id="path1088"
       d="m -201.41211,122.93359 c -9.91413,0.61851 -15.20594,13.62464 -9.76758,21.58399 8.38291,23.06078 31.55547,36.60834 54.20508,42.91797 32.90739,11.41999 71.000594,15.8711 102.837891,-0.75196 9.316901,-5.42667 18.195898,-16.85227 14.119141,-28.03515 -5.96871,-8.52933 -18.143356,-6.6087 -27.096582,-5.94552 -14.259941,2.37042 -28.807574,2.59965 -43.00498,-0.27714 -28.86746,-4.19521 -57.89667,-11.79 -82.78125,-27.4562 -2.65713,-1.22366 -5.55986,-2.1198 -8.51172,-2.03599 z"
       style="opacity:1;fill:#000000;fill-opacity:0.21505378;stroke:none;stroke-width:0.04769848;stroke-linecap:round;stroke-linejoin:round;stroke-miterlimit:4;stroke-dasharray:none;stroke-opacity:0.67857139" />
  </g>
  <path
     style="opacity:1;fill:url(#linearGradient839);fill-opacity:1;stroke:none;stroke-width:0.0483503;stroke-linecap:round;stroke-linejoin:round;stroke-miterlimit:4;stroke-dasharray:none;stroke-opacity:0.67857139"
     d="m 206.28318,200.41586 c 0.13154,10.33411 -5.28517,23.96669 -22.30788,31.27459 -17.02272,7.30791 -39.46073,11.72811 -63.25421,8.06536 C 97.763363,236.22173 68.062013,226.70048 52.816769,216.9961 33.363105,204.61283 25.691612,186.54784 23.626729,176.42128 c -2.790056,-13.68303 13.273574,-27.0232 28.446029,-16.39424 16.650715,11.66456 39.701195,18.57538 63.254212,23.55541 24.63176,5.20813 40.22844,6.5526 58.41807,3.04324 10.32656,-1.99231 32.35213,-0.82288 32.53814,13.79017 z"
     id="path812"
     inkscape:connector-curvature="0"
     sodipodi:nodetypes="sssssssss" />
  <path
     style="opacity:1;fill:url(#radialGradient936);fill-opacity:1;stroke:none;stroke-width:0.0483503;stroke-linecap:round;stroke-linejoin:round;stroke-miterlimit:4;stroke-dasharray:none;stroke-opacity:0.67857139"
     d="m 40.835024,156.39501 c -10.78799,-0.0908 -19.300891,9.97881 -17.20835,20.24108 2.064882,10.12656 9.736517,28.19098 29.190181,40.57424 15.245238,9.70438 44.946128,19.22672 67.903855,22.7608 23.79348,3.66274 46.23194,-0.75841 63.25466,-8.06632 17.0227,-7.30791 22.43925,-20.94026 22.30771,-31.27436 -0.18601,-14.61305 -22.21205,-15.78209 -32.5386,-13.78978 -18.18964,3.50936 -33.78515,2.16517 -58.41691,-3.04295 -23.553017,-4.98004 -46.603937,-11.89133 -63.254646,-23.55589 -3.79311,-2.65725 -7.641903,-3.81656 -11.2379,-3.84682 z m 5.580217,5.46183 c 3.372243,-0.13428 7.010093,1.3798 10.483742,5.26307 19.93559,22.28637 74.043127,32.63236 101.199547,26.66023 20.96612,-4.61079 34.56908,-3.07182 34.71047,6.94677 0.14584,10.33391 -4.19665,25.70633 -22.30771,29.60087 C 138.26241,237.26033 75.574693,223.85571 57.084603,212.37112 37.630928,199.98785 34.9812,193.26803 32.916319,183.14147 c -2.005361,-9.83468 4.88099,-20.94144 13.498922,-21.28463 z"
     id="path918"
     inkscape:connector-curvature="0" />
  <path
     sodipodi:nodetypes="sscssss"
     inkscape:connector-curvature="0"
     id="path823"
     d="m 192.80934,200.51224 c 0.14584,10.33392 -4.19681,25.70601 -22.30787,29.60055 -32.23887,6.93255 -94.926577,-6.47225 -113.416677,-17.95684 -19.453671,-12.38327 -22.103032,-19.10198 -24.167915,-29.22854 -2.790066,-13.68303 11.631168,-29.82938 23.981915,-16.02222 19.93558,22.28637 74.042997,32.63171 101.199417,26.65957 20.96613,-4.61079 34.56973,-3.0711 34.71113,6.94748 z"
     style="opacity:1;fill:url(#linearGradient821);fill-opacity:1;stroke:none;stroke-width:0.0483503;stroke-linecap:round;stroke-linejoin:round;stroke-miterlimit:4;stroke-dasharray:none;stroke-opacity:0.67857139" />
  <path
     style="opacity:1;fill:url(#linearGradient833);fill-opacity:1;stroke:#000000;stroke-width:0.198006;stroke-linecap:butt;stroke-linejoin:miter;stroke-miterlimit:4;stroke-dasharray:none;stroke-opacity:1"
     d="m 69.169613,88.012432 c -0.248,-12.038359 121.150947,3.551042 115.880817,24.366598 -10.46047,31.98025 -24.67777,62.23863 -23.99457,99.3264 1.25277,15.89854 -112.848349,-7.21131 -106.208597,-21.39052 11.47753,-32.0898 12.42614,-67.33829 14.32235,-102.302478 z"
     id="path825"
     inkscape:connector-curvature="0"
     sodipodi:nodetypes="ccccc" />
  <ellipse
     style="opacity:0.831;fill:#000000;fill-opacity:1;stroke:none;stroke-width:0.198006;stroke-linecap:round;stroke-linejoin:round;stroke-miterlimit:4;stroke-dasharray:none;stroke-opacity:0.67857139"
     id="path835"
     cx="143.19003"
     cy="74.261673"
     rx="58.777428"
     ry="12.649005"
     transform="rotate(10.663267)" />
  <path
     style="fill:url(#linearGradient916);fill-opacity:1;stroke:none;stroke-width:0.02302395px;stroke-linecap:butt;stroke-linejoin:miter;stroke-opacity:1"
     d="m 59.311373,174.87654 c 4.04286,11.67199 99.004167,27.26379 103.418507,20.08849 l -1.67402,19.15847 c -2.5824,11.62823 -104.894117,-5.07294 -105.679227,-22.60697 z"
     id="path837"
     inkscape:connector-curvature="0"
     sodipodi:nodetypes="ccccc" />
  <ellipse
     style="opacity:1;fill:url(#radialGradient836);fill-opacity:1;stroke:none;stroke-width:0.30789369;stroke-linecap:round;stroke-linejoin:round;stroke-miterlimit:4;stroke-dasharray:none;stroke-opacity:0.67857139"
     id="path826"
     cx="109.24467"
     cy="148.6584"
     rx="4.7754159"
     ry="48.343498"
     transform="matrix(0.99695089,0.07803159,-0.18723888,0.98231441,0,0)" />
  <path
     style="fill:url(#linearGradient858);fill-opacity:1;stroke:none;stroke-width:1px;stroke-linecap:butt;stroke-linejoin:miter;stroke-opacity:1;filter:url(#filter896)"
     d="m 79.69697,44.242424 c 13.703883,6.851674 28.43343,12.677685 45.75758,15.909091 l 22.27272,-13.181818 z"
     id="path838"
     inkscape:connector-curvature="0"
     sodipodi:nodetypes="cccc"
     transform="matrix(0.74831631,0,0,0.74831631,19.082702,64.305434)" />
  <path
     style="fill:url(#linearGradient866);fill-opacity:1;stroke:none;stroke-width:1px;stroke-linecap:butt;stroke-linejoin:miter;stroke-opacity:1;filter:url(#filter888)"
     d="M 147.72727,46.969697 175,67.878788 c 12.58363,1.123626 25.08953,1.625365 37.27273,-0.454545 z"
     id="path840"
     inkscape:connector-curvature="0"
     sodipodi:nodetypes="cccc"
     transform="matrix(0.74831631,0,0,0.74831631,19.082702,64.305434)" />
  <path
     style="fill:url(#linearGradient850);fill-opacity:1;stroke:none;stroke-width:1px;stroke-linecap:butt;stroke-linejoin:miter;stroke-opacity:1;filter:url(#filter876)"
     d="M 147.72727,46.969697 110.75757,25.60606 c 24.18294,2.530847 48.55772,6.020863 73.9394,14.545455 z"
     id="path842"
     inkscape:connector-curvature="0"
     sodipodi:nodetypes="cccc"
     transform="matrix(0.74831631,0,0,0.74831631,19.082702,64.305434)" />
  <path
     style="fill:none;stroke:url(#linearGradient908);stroke-width:1.64629591;stroke-linecap:butt;stroke-linejoin:miter;stroke-miterlimit:4;stroke-dasharray:none;stroke-opacity:1"
     d="M 69.197223,88.909167 C 81.435553,109.73844 164.39637,122.10858 185.18625,112.03894"
     id="path900"
     inkscape:connector-curvature="0"
     sodipodi:nodetypes="cc" />
  <path
     style="fill:url(#radialGradient885);fill-opacity:1;stroke:none;stroke-width:0.74831629px;stroke-linecap:butt;stroke-linejoin:miter;stroke-opacity:1"
     d="m 54.070068,210.26499 c 27.016245,17.42285 83.305162,24.57255 110.328252,22.10858 l 0.64394,5.36616 c -32.44944,6.3654 -76.310577,2.80086 -111.186839,-20.39141 z"
     id="path877"
     inkscape:connector-curvature="0"
     sodipodi:nodetypes="ccccc" />
  <path
     style="fill:#ffffff;fill-opacity:0.04464285;stroke:none;stroke-width:0.74831629px;stroke-linecap:butt;stroke-linejoin:miter;stroke-opacity:1"
     d="m 153.88064,116.24986 12.87879,0.42929 -22.96717,101.31311 -10.08838,0.21465 z"
     id="path887"
     inkscape:connector-curvature="0" />
</svg>
