<?xml version="1.0" encoding="UTF-8" standalone="no"?>
<svg
   xmlns:dc="http://purl.org/dc/elements/1.1/"
   xmlns:cc="http://creativecommons.org/ns#"
   xmlns:rdf="http://www.w3.org/1999/02/22-rdf-syntax-ns#"
   xmlns:svg="http://www.w3.org/2000/svg"
   xmlns="http://www.w3.org/2000/svg"
   xmlns:xlink="http://www.w3.org/1999/xlink"
   xmlns:sodipodi="http://sodipodi.sourceforge.net/DTD/sodipodi-0.dtd"
   xmlns:inkscape="http://www.inkscape.org/namespaces/inkscape"
   version="1.1"
   sodipodi:docname="folder-pictures-kids.svg"
   height="256"
   width="256"
   inkscape:version="1.0 (4035a4f, 2020-05-01)"
   id="svg2"
   viewBox="0 0 256 256">
  <metadata
     id="metadata145">
    <rdf:RDF>
      <cc:Work>
        <dc:format>image/svg+xml</dc:format>
        <dc:type
           rdf:resource="http://purl.org/dc/dcmitype/StillImage" />
        <dc:title />
      </cc:Work>
    </rdf:RDF>
  </metadata>
  <sodipodi:namedview
     inkscape:document-rotation="0"
     inkscape:snap-global="false"
     inkscape:current-layer="svg2"
     inkscape:window-maximized="1"
     inkscape:window-y="0"
     inkscape:window-x="0"
     inkscape:cy="128"
     inkscape:cx="128"
     inkscape:zoom="3.4375"
     showgrid="false"
     id="namedview143"
     inkscape:window-height="1056"
     inkscape:window-width="1920"
     inkscape:pageshadow="2"
     inkscape:pageopacity="0"
     guidetolerance="10"
     gridtolerance="10"
     objecttolerance="10"
     borderopacity="1"
     bordercolor="#666666"
     pagecolor="#ffffff" />
  <defs
     id="defs4">
    <linearGradient
       id="linearGradient2914">
      <stop
         stop-opacity="1"
         stop-color="#545454"
         id="stop2920" />
      <stop
         stop-opacity="1"
         stop-color="#b8b8b8"
         offset="1"
         id="stop2922" />
    </linearGradient>
    <linearGradient
       id="linearGradient2900">
      <stop
         stop-opacity="1"
         stop-color="#666"
         id="stop2902" />
      <stop
         stop-opacity="1"
         stop-color="#adadad"
         offset="0.5"
         id="stop2908" />
      <stop
         stop-opacity="1"
         stop-color="white"
         id="stop2910"
         offset="0.75" />
      <stop
         stop-opacity="1"
         stop-color="#b8b8b8"
         id="stop2904"
         offset="1" />
    </linearGradient>
    <linearGradient
       id="linearGradient4167"
       inkscape:collect="always">
      <stop
         stop-opacity="0.624"
         stop-color="#adadad"
         id="stop4169" />
      <stop
         stop-opacity="0.973"
         stop-color="#ffffff"
         id="stop4171"
         offset="1" />
    </linearGradient>
    <linearGradient
       inkscape:collect="always"
       id="linearGradient4223">
      <stop
         stop-opacity="0.803"
         stop-color="#bebebe"
         id="stop4225" />
      <stop
         stop-opacity="0.732"
         stop-color="#9f9f9f"
         offset="1"
         id="stop4227" />
    </linearGradient>
    <linearGradient
       inkscape:collect="always"
       id="linearGradient4211">
      <stop
         stop-opacity="0.634"
         stop-color="#9f9f9f"
         id="stop4213" />
      <stop
         stop-opacity="0"
         stop-color="#696969"
         offset="1"
         id="stop4215" />
    </linearGradient>
    <linearGradient
       inkscape:collect="always"
       id="linearGradient4171">
      <stop
         stop-opacity="0.624"
         stop-color="#b2b2b2"
         id="stop4173" />
      <stop
         stop-opacity="0.698"
         stop-color="#ffffff"
         offset="1"
         id="stop4175" />
    </linearGradient>
    <linearGradient
       inkscape:collect="always"
       id="linearGradient4142">
      <stop
         stop-opacity="0.519"
         stop-color="#909090"
         id="stop4144" />
      <stop
         stop-opacity="0"
         stop-color="#696969"
         offset="1"
         id="stop4146" />
    </linearGradient>
    <linearGradient
       inkscape:collect="always"
       xlink:href="#linearGradient4142"
       id="linearGradient4148"
       x1="165.74"
       y1="63.25"
       x2="278.75"
       y2="324.36"
       gradientUnits="userSpaceOnUse" />
    <filter
       color-interpolation-filters="sRGB"
       inkscape:collect="always"
       id="filter4160"
       x="-0.028109536"
       width="1.0562191"
       y="-0.050048949"
       height="1.1000979">
      <feGaussianBlur
         stdDeviation="3.5625119"
         inkscape:collect="always"
         id="feGaussianBlur4162" />
    </filter>
    <linearGradient
       inkscape:collect="always"
       xlink:href="#linearGradient4167"
       id="linearGradient4177"
       x1="379.78"
       y1="106.85"
       x2="387.93"
       y2="114.16"
       gradientUnits="userSpaceOnUse"
       spreadMethod="reflect" />
    <linearGradient
       inkscape:collect="always"
       xlink:href="#linearGradient4171"
       id="linearGradient4207"
       gradientUnits="userSpaceOnUse"
       spreadMethod="reflect"
       x1="381.27"
       y1="108.46"
       x2="387.93"
       y2="114.16"
       gradientTransform="translate(26.808511,-26.382979)" />
    <linearGradient
       inkscape:collect="always"
       xlink:href="#linearGradient4211"
       id="linearGradient4217"
       x1="284.7"
       y1="61.711"
       x2="281.1"
       y2="125.1"
       gradientUnits="userSpaceOnUse" />
    <linearGradient
       inkscape:collect="always"
       xlink:href="#linearGradient4223"
       id="linearGradient4229"
       x1="259.02"
       y1="93.26"
       x2="255.7"
       y2="103.09"
       gradientUnits="userSpaceOnUse" />
    <linearGradient
       inkscape:collect="always"
       xlink:href="#linearGradient4223"
       id="linearGradient4237"
       x1="262.84"
       y1="102.54"
       x2="258.99"
       y2="117.29"
       gradientUnits="userSpaceOnUse" />
    <filter
       color-interpolation-filters="sRGB"
       inkscape:collect="always"
       id="filter4257"
       x="-0.024"
       width="1.049"
       y="-0.068"
       height="1.136">
      <feGaussianBlur
         inkscape:collect="always"
         id="feGaussianBlur4259" />
    </filter>
    <linearGradient
       id="linearGradient996"
       inkscape:collect="always">
      <stop
         id="stop992"
         offset="0"
         style="stop-color:#f2e39f;stop-opacity:0.32189891" />
      <stop
         id="stop994"
         offset="1"
         style="stop-color:#dbb924;stop-opacity:1" />
    </linearGradient>
    <linearGradient
       id="linearGradient969"
       inkscape:collect="always">
      <stop
         id="stop965"
         offset="0"
         style="stop-color:#dbb924;stop-opacity:1" />
      <stop
         id="stop967"
         offset="1"
         style="stop-color:#ede3b8;stop-opacity:0.99424666" />
    </linearGradient>
    <linearGradient
       id="linearGradient951"
       inkscape:collect="always">
      <stop
         id="stop946"
         offset="0"
         style="stop-color:#ffffff;stop-opacity:1" />
      <stop
         id="stop949"
         offset="1"
         style="stop-color:#8c8c8c;stop-opacity:1" />
    </linearGradient>
    <linearGradient
       id="linearGradient937"
       inkscape:collect="always">
      <stop
         id="stop933"
         offset="0"
         style="stop-color:#474747;stop-opacity:1" />
      <stop
         style="stop-color:#000000;stop-opacity:1"
         offset="0.4833087"
         id="stop941" />
      <stop
         id="stop935"
         offset="1"
         style="stop-color:#ffffff;stop-opacity:1" />
    </linearGradient>
    <linearGradient
       id="linearGradient917"
       inkscape:collect="always">
      <stop
         id="stop913"
         offset="0"
         style="stop-color:#bcbcbc;stop-opacity:1" />
      <stop
         id="stop915"
         offset="1"
         style="stop-color:#000000;stop-opacity:1" />
    </linearGradient>
    <linearGradient
       inkscape:collect="always"
       id="linearGradient907">
      <stop
         style="stop-color:#8b8b8b;stop-opacity:1"
         offset="0"
         id="stop903" />
      <stop
         style="stop-color:#000000;stop-opacity:1"
         offset="1"
         id="stop905" />
    </linearGradient>
    <linearGradient
       id="linearGradient995"
       inkscape:collect="always">
      <stop
         id="stop991"
         offset="0"
         style="stop-color:#fffffd;stop-opacity:1" />
      <stop
         id="stop993"
         offset="1"
         style="stop-color:#d0840f;stop-opacity:1" />
    </linearGradient>
    <linearGradient
       id="linearGradient959"
       inkscape:collect="always">
      <stop
         id="stop955"
         offset="0"
         style="stop-color:#ffffff;stop-opacity:1;" />
      <stop
         id="stop957"
         offset="1"
         style="stop-color:#b4b4b4;stop-opacity:1" />
    </linearGradient>
    <linearGradient
       id="linearGradient942"
       inkscape:collect="always">
      <stop
         id="stop938"
         offset="0"
         style="stop-color:#ada4a4;stop-opacity:1" />
      <stop
         style="stop-color:#3a3a3a;stop-opacity:1"
         offset="0.49385595"
         id="stop948" />
      <stop
         id="stop940"
         offset="1"
         style="stop-color:#040000;stop-opacity:1" />
    </linearGradient>
    <linearGradient
       id="linearGradient926"
       inkscape:collect="always">
      <stop
         id="stop922"
         offset="0"
         style="stop-color:#ffffff;stop-opacity:0" />
      <stop
         style="stop-color:#ffffff;stop-opacity:0"
         offset="0.71366525"
         id="stop932" />
      <stop
         style="stop-color:#8f8f8f;stop-opacity:1"
         offset="0.82086992"
         id="stop930" />
      <stop
         id="stop924"
         offset="1"
         style="stop-color:#ffffff;stop-opacity:0;" />
    </linearGradient>
    <radialGradient
       gradientUnits="userSpaceOnUse"
       gradientTransform="matrix(1,0,0,0.97813399,30.292368,7.1282462)"
       r="3.5327517"
       fy="256.22369"
       fx="20.694542"
       cy="256.22369"
       cx="20.694542"
       id="radialGradient928"
       xlink:href="#linearGradient926"
       inkscape:collect="always" />
    <radialGradient
       gradientUnits="userSpaceOnUse"
       gradientTransform="matrix(1,0,0,0.94136225,30.270095,16.394388)"
       r="2.8410223"
       fy="256.33154"
       fx="20.947218"
       cy="256.33154"
       cx="20.947218"
       id="radialGradient944"
       xlink:href="#linearGradient942"
       inkscape:collect="always" />
    <radialGradient
       spreadMethod="reflect"
       gradientUnits="userSpaceOnUse"
       gradientTransform="matrix(1.0789016,0,0,0.92751585,-22.804458,13.888731)"
       r="12.375969"
       fy="257.84091"
       fx="56.501663"
       cy="257.84091"
       cx="56.501663"
       id="radialGradient961"
       xlink:href="#linearGradient959"
       inkscape:collect="always" />
    <radialGradient
       r="3.5327517"
       fy="256.22369"
       fx="20.694542"
       cy="256.22369"
       cx="20.694542"
       gradientTransform="matrix(1,0,0,0.97813399,30.292368,7.1282462)"
       gradientUnits="userSpaceOnUse"
       id="radialGradient985"
       xlink:href="#linearGradient926"
       inkscape:collect="always" />
    <radialGradient
       r="2.8410223"
       fy="256.33154"
       fx="20.947218"
       cy="256.33154"
       cx="20.947218"
       gradientTransform="matrix(1,0,0,0.94136225,30.270095,16.394388)"
       gradientUnits="userSpaceOnUse"
       id="radialGradient987"
       xlink:href="#linearGradient942"
       inkscape:collect="always" />
    <radialGradient
       gradientUnits="userSpaceOnUse"
       gradientTransform="matrix(-1.4831976,1.0219558,-0.66441656,-0.96428924,160.73692,509.87773)"
       r="2.1324873"
       fy="264.73398"
       fx="0.67122304"
       cy="264.73398"
       cx="0.67122304"
       id="radialGradient997"
       xlink:href="#linearGradient995"
       inkscape:collect="always" />
    <radialGradient
       inkscape:collect="always"
       xlink:href="#linearGradient907"
       id="radialGradient909"
       cx="116.10933"
       cy="224.14005"
       fx="116.10933"
       fy="224.14005"
       r="15.276523"
       gradientTransform="matrix(-0.69173369,1.0243087,-0.81472967,-0.47488373,359.69484,215.65807)"
       gradientUnits="userSpaceOnUse"
       spreadMethod="reflect" />
    <radialGradient
       spreadMethod="reflect"
       gradientUnits="userSpaceOnUse"
       gradientTransform="matrix(1.0711079,0.12944731,-0.08609702,0.71240723,36.428094,71.824124)"
       r="4.5489964"
       fy="273.25082"
       fx="29.44224"
       cy="273.25082"
       cx="29.44224"
       id="radialGradient919"
       xlink:href="#linearGradient917"
       inkscape:collect="always" />
    <radialGradient
       spreadMethod="reflect"
       gradientUnits="userSpaceOnUse"
       gradientTransform="matrix(1.0789016,0,0,0.5472441,12.724728,123.73058)"
       r="9.2871456"
       fy="276.49771"
       fx="21.985004"
       cy="276.49771"
       cx="21.985004"
       id="radialGradient929"
       xlink:href="#linearGradient917"
       inkscape:collect="always" />
    <linearGradient
       gradientTransform="matrix(1.0789016,0,0,1.0789016,11.270504,-24.144707)"
       spreadMethod="reflect"
       gradientUnits="userSpaceOnUse"
       y2="271.26913"
       x2="22.344639"
       y1="271.71085"
       x1="13.289926"
       id="linearGradient939"
       xlink:href="#linearGradient937"
       inkscape:collect="always" />
    <radialGradient
       gradientUnits="userSpaceOnUse"
       gradientTransform="matrix(1.0789016,0,0,2.0091472,11.605055,-283.19224)"
       r="4.2603869"
       fy="278.76712"
       fx="36.050552"
       cy="278.76712"
       cx="36.050552"
       id="radialGradient953"
       xlink:href="#linearGradient951"
       inkscape:collect="always" />
    <linearGradient
       spreadMethod="reflect"
       gradientUnits="userSpaceOnUse"
       y2="276.67419"
       x2="-92.84227"
       y1="277.43848"
       x1="-94.563431"
       id="linearGradient971"
       xlink:href="#linearGradient969"
       inkscape:collect="always" />
    <linearGradient
       spreadMethod="reflect"
       gradientUnits="userSpaceOnUse"
       y2="265.02966"
       x2="-124.28861"
       y1="264.86661"
       x1="-125.95432"
       id="linearGradient979"
       xlink:href="#linearGradient969"
       inkscape:collect="always" />
    <linearGradient
       spreadMethod="reflect"
       gradientUnits="userSpaceOnUse"
       y2="276.12729"
       x2="-95.47036"
       y1="276.24451"
       x1="-97.208771"
       id="linearGradient987"
       xlink:href="#linearGradient969"
       inkscape:collect="always" />
    <linearGradient
       gradientUnits="userSpaceOnUse"
       y2="288.71661"
       x2="13.477221"
       y1="291.69531"
       x1="14.831836"
       id="linearGradient998"
       xlink:href="#linearGradient996"
       inkscape:collect="always" />
    <radialGradient
       inkscape:collect="always"
       xlink:href="#linearGradient917"
       id="radialGradient960"
       cx="32.37468"
       cy="278.65598"
       fx="32.37468"
       fy="278.65598"
       r="8.3961782"
       gradientTransform="matrix(1.0789016,0,0,1.5877216,-1.8035546,-163.98059)"
       gradientUnits="userSpaceOnUse" />
    <linearGradient
       spreadMethod="reflect"
       y2="276.12729"
       x2="-95.47036"
       y1="276.24451"
       x1="-97.208771"
       gradientUnits="userSpaceOnUse"
       id="linearGradient1351"
       xlink:href="#linearGradient969"
       inkscape:collect="always" />
    <linearGradient
       spreadMethod="reflect"
       y2="276.67419"
       x2="-92.84227"
       y1="277.43848"
       x1="-94.563431"
       gradientUnits="userSpaceOnUse"
       id="linearGradient1353"
       xlink:href="#linearGradient969"
       inkscape:collect="always" />
    <linearGradient
       spreadMethod="reflect"
       y2="265.02966"
       x2="-124.28861"
       y1="264.86661"
       x1="-125.95432"
       gradientUnits="userSpaceOnUse"
       id="linearGradient1355"
       xlink:href="#linearGradient969"
       inkscape:collect="always" />
    <linearGradient
       y2="288.71661"
       x2="13.477221"
       y1="291.69531"
       x1="14.831836"
       gradientUnits="userSpaceOnUse"
       id="linearGradient1357"
       xlink:href="#linearGradient996"
       inkscape:collect="always" />
  </defs>
  <g
     id="g4261"
     transform="matrix(0.77128144,0,0,0.77128144,-81.218093,-21.335632)">
    <path
       stroke-width="1"
       stroke-linecap="butt"
       fill-opacity="0.514"
       stroke-linejoin="miter"
       stroke="none"
       fill-rule="evenodd"
       filter="url(#filter4257)"
       fill="#000000"
       stroke-opacity="1"
       sodipodi:nodetypes="ccccccc"
       inkscape:connector-curvature="0"
       id="path4239"
       d="m 137.15847,253.33333 1.0929,10.92897 c 1.69466,2.56439 1.62485,5.1824 6.55737,7.10382 l 234.9905,77.59563 c 4.36168,2.76045 7.27409,1.93611 10.91114,-1.0929 l 16.39344,-17.48633 z" />
    <path
       stroke-width="1"
       stroke-linecap="butt"
       fill-opacity="0.73"
       stroke-linejoin="miter"
       stroke="none"
       fill-rule="evenodd"
       fill="#000000"
       stroke-opacity="1"
       sodipodi:nodetypes="ccccsccccccc"
       inkscape:connector-curvature="0"
       id="path4198"
       d="M 146.27659,241.2766 139.89362,67.340426 c -0.0538,-6.437983 2.49923,-9.41706 7.97872,-7.978724 l 135.10638,37.234043 c 8.12648,2.325734 17.80936,-1.266511 19.14894,-15.425533 0.93604,-9.893676 4.6708,-17.669623 18.61702,-14.893617 l 85.6383,19.680851 c 6.41139,1.511285 7.81765,4.447577 7.4468,11.702128 l -2.12765,230.851066 -5.31915,5.85106 -254.86675,-84.34164 z" />
    <path
       stroke-width="1"
       stroke-linecap="butt"
       fill-opacity="1"
       stroke-linejoin="miter"
       stroke="none"
       fill-rule="evenodd"
       fill="url(#linearGradient4217)"
       stroke-opacity="1"
       d="M 146.27659,241.2766 139.89362,67.340426 c -0.0538,-6.437983 2.49923,-9.41706 7.97872,-7.978724 l 135.10638,37.234043 c 8.12648,2.325734 17.80936,-1.266511 19.14894,-15.425533 0.93604,-9.893676 4.6708,-17.669623 18.61702,-14.893617 l 85.6383,19.680851 c 6.41139,1.511285 7.81765,4.447577 7.4468,11.702128 l -2.12765,230.851066 -5.31915,5.85106 -254.86675,-84.34164 z"
       id="path4209"
       inkscape:connector-curvature="0"
       sodipodi:nodetypes="ccccsccccccc" />
    <path
       stroke-width="1"
       stroke-linecap="butt"
       fill-opacity="1"
       stroke-linejoin="miter"
       stroke="#cecece"
       fill-rule="evenodd"
       fill="url(#linearGradient4229)"
       stroke-opacity="0.705"
       sodipodi:nodetypes="ccccc"
       d="m 142.62295,64.262295 267.21311,65.573775 1.0929,194.53552 -256.8306,-92.89618 z"
       id="path4221"
       inkscape:connector-curvature="0" />
    <path
       stroke-width="1"
       stroke-linecap="butt"
       fill-opacity="1"
       stroke-linejoin="miter"
       stroke="#cecece"
       fill-rule="evenodd"
       fill="url(#linearGradient4237)"
       stroke-opacity="0.705"
       inkscape:connector-curvature="0"
       id="path4219"
       d="m 136.61202,73.005464 267.21311,65.573776 4.37159,189.07104 -260.10929,-87.4317 z" />
    <path
       stroke-width="1"
       stroke-linecap="butt"
       fill-opacity="0.77"
       stroke-linejoin="miter"
       stroke="none"
       fill-rule="evenodd"
       fill="#000000"
       stroke-opacity="1"
       sodipodi:nodetypes="cccscccccccc"
       inkscape:connector-curvature="0"
       id="path4138"
       d="m 116.2037,92.685185 c 1.13182,-4.540599 4.63483,-9.034209 10.68729,-7.545261 L 261.11111,123.7037 c 6.48148,1.63624 16.36287,0.33244 20.83334,-11.11111 4.00878,-10.26173 10.87392,-18.779525 25.46296,-16.203701 l 68.51852,13.888891 c 12.25335,3.29007 11.96705,11.68066 12.96296,18.51851 l 12.5,205.55556 c 0.64976,7.44283 -5.7507,13.21303 -12.96296,10.18518 L 144.90741,262.59259 c -4.92216,-1.55932 -8.93994,-3.09709 -9.25926,-10.18518 z" />
    <path
       stroke-width="1"
       stroke-linecap="butt"
       fill-opacity="1"
       stroke-linejoin="miter"
       stroke="none"
       fill-rule="evenodd"
       fill="url(#linearGradient4148)"
       stroke-opacity="1"
       d="m 116.2037,92.685185 c 1.13182,-4.540599 4.63483,-9.034209 10.68729,-7.545261 L 261.11111,123.7037 c 6.48148,1.63624 16.36287,0.33244 20.83334,-11.11111 4.00878,-10.26173 10.87392,-18.779525 25.46296,-16.203701 l 68.51852,13.888891 c 12.25335,3.29007 11.96705,11.68066 12.96296,18.51851 l 12.5,205.55556 c 0.64976,7.44283 -5.7507,13.21303 -12.96296,10.18518 L 209.72222,283.88889 C 173.76467,257.82993 120.35853,138.21611 116.2037,92.685185 Z"
       id="path4140"
       inkscape:connector-curvature="0"
       sodipodi:nodetypes="cccsccccccc" />
    <path
       style="filter:url(#filter4160)"
       stroke-width="1"
       stroke-linecap="butt"
       fill-opacity="0.273"
       stroke-linejoin="miter"
       stroke="none"
       fill-rule="evenodd"
       filter="url(#filter4160)"
       fill="#000000"
       stroke-opacity="1"
       sodipodi:nodetypes="ccccccc"
       inkscape:connector-curvature="0"
       id="path4150"
       d="m 177.77778,215.83334 -80.555558,82.4074 255.555558,88.42593 38.75029,-40.87068 c 4.63488,-1.3015 9.96817,-1.38077 9.86082,-10.98118 L 396.29629,282.5 Z" />
    <path
       stroke-width="1"
       stroke-linecap="butt"
       fill-opacity="1"
       stroke-linejoin="miter"
       stroke="none"
       fill-rule="evenodd"
       fill="#b5b5b5"
       stroke-opacity="1"
       id="path4164"
       d="m 130.29688,79.757812 c -3.73674,-0.05935 -6.2712,2.374412 -7.66211,5.353516 1.24508,-0.330919 2.6592,-0.363492 4.25585,0.0293 l 134.22071,38.562492 c 5.49861,1.38812 13.44221,0.65773 18.45508,-6.58203 -4.30627,2.38583 -9.16625,2.43292 -12.90039,1.49024 L 132.44727,80.046875 c -0.75656,-0.186118 -1.47316,-0.278306 -2.15039,-0.289063 z m 177.54687,11.074219 c -7.10689,0.02874 -11.9932,3.152137 -15.51367,7.738281 3.82724,-2.318415 8.71897,-3.304404 15.07812,-2.18164 l 68.51758,13.888668 c 12.25335,3.29007 11.96698,11.68169 12.96289,18.51954 l 12.5,205.55468 c 0.1753,2.00795 -0.17581,3.88521 -0.90429,5.50977 4.09619,-1.28823 6.90142,-5.55587 6.46093,-10.60156 l -12.5,-205.55665 c -0.99591,-6.83785 -0.70954,-15.2275 -12.96289,-18.51757 L 312.96289,91.296875 c -1.82363,-0.321978 -3.52737,-0.47128 -5.11914,-0.464844 z"
       inkscape:connector-curvature="0" />
    <path
       stroke-width="1"
       stroke-linecap="butt"
       fill-opacity="1"
       stroke-linejoin="miter"
       stroke="none"
       fill-rule="evenodd"
       fill="url(#linearGradient4177)"
       stroke-opacity="1"
       sodipodi:nodetypes="ccccc"
       inkscape:connector-curvature="0"
       d="m 375.92578,110.27734 c 12.25335,3.29007 11.96698,11.68169 12.96289,18.51954 2.18404,-2.05828 3.13422,-2.71335 5.55664,-5.09376 -0.99591,-6.83785 -0.70954,-15.2275 -12.96289,-18.51757 -2.39781,2.28773 -2.9924,2.79876 -5.55664,5.09179 z"
       id="path4169" />
    <path
       stroke-width="1"
       stroke-linecap="butt"
       fill-opacity="1"
       stroke-linejoin="miter"
       stroke="none"
       fill-rule="evenodd"
       fill="#b0b0b0"
       stroke-opacity="1"
       id="path4200"
       d="m 151.9043,54.332031 c -2.67378,0.112285 -4.27807,1.802415 -4.90039,4.837891 0.28199,0.05237 0.56972,0.11281 0.86914,0.191406 l 135.10547,37.234375 c 5.41154,1.54874 11.51034,0.467116 15.3789,-4.605469 -2.77183,0.801996 -5.76159,0.727663 -8.57031,-0.07617 L 154.68164,54.681641 c -1.0274,-0.269688 -1.9536,-0.384203 -2.77734,-0.34961 z m 170.88281,6.701172 c -5.39865,-0.126557 -8.73663,1.852669 -10.81445,5.035156 2.34672,-0.518874 5.2277,-0.496408 8.77148,0.208985 l 85.63867,19.679687 c 6.41139,1.511285 7.81812,4.448574 7.44727,11.703125 l -2.12891,230.849614 -0.47461,0.52148 1.96485,0.65039 5.31836,-5.85156 2.1289,-230.851564 c 0.37085,-7.254551 -1.03587,-10.189887 -7.44726,-11.701172 L 327.55273,61.595703 c -1.74327,-0.347001 -3.32697,-0.528775 -4.76562,-0.5625 z"
       inkscape:connector-curvature="0" />
    <path
       stroke-width="1"
       stroke-linecap="butt"
       fill-opacity="1"
       stroke-linejoin="miter"
       stroke="none"
       fill-rule="evenodd"
       fill="url(#linearGradient4207)"
       stroke-opacity="1"
       id="path4205"
       d="m 403.12392,85.141164 c 12.4021,2.867396 10.71654,4.984484 10.70306,18.467586 2.18404,-2.05828 4.25114,-3.752349 6.67356,-6.132759 0.48467,-12.136762 1.00482,-14.993724 -11.89791,-17.244792 -2.39781,2.28773 -2.91447,2.616935 -5.47871,4.909965 z"
       inkscape:connector-curvature="0"
       sodipodi:nodetypes="ccccc" />
  </g>
  <g
     stroke-width="1"
     stroke-linecap="butt"
     fill-opacity="1"
     stroke-linejoin="miter"
     stroke="none"
     fill="#000000"
     font-family="STIXIntegralsSm"
     stroke-opacity="1"
     font-size="7.5"
     font-variant="normal"
     letter-spacing="0"
     font-stretch="normal"
     font-weight="bold"
     line-height="125%"
     word-spacing="0"
     font-style="normal"
     transform="translate(41.1893,-80.431159)"
     id="text4194">
    <path
       inkscape:connector-curvature="0"
       id="path4199"
       d="m -33.815041,58.840733 -2.204589,0 -0.347901,0.996093 -1.417236,0 2.025146,-5.467529 1.680909,0 2.025146,5.467529 -1.417236,0 -0.344239,-0.996093 z m -1.853027,-1.014405 1.497803,0 -0.747071,-2.175293 -0.750732,2.175293 z" />
    <path
       inkscape:connector-curvature="0"
       id="path4201"
       d="m -31.33213,54.369297 2.340087,0 q 1.043702,0 1.600342,0.465088 0.560303,0.461426 0.560303,1.318359 0,0.860596 -0.560303,1.325684 -0.55664,0.461426 -1.600342,0.461426 l -0.930175,0 0,1.896972 -1.409912,0 0,-5.467529 z m 1.409912,1.021729 0,1.527099 0.780029,0 q 0.410156,0 0.633545,-0.197754 0.223389,-0.201416 0.223389,-0.567627 0,-0.366211 -0.223389,-0.563965 -0.223389,-0.197753 -0.633545,-0.197753 l -0.780029,0 z" />
  </g>
  <g
     inkscape:label="Layer 1"
     id="layer1"
     transform="matrix(3.3557126,0,0,3.3557126,-0.92721868,-743.87278)">
    <g
       id="g1018"
       transform="matrix(1.0789016,0,0,1.0789016,22.679915,-23.381918)">
      <path
         sodipodi:nodetypes="cccccccccc"
         id="path1008"
         d="m 11.095434,288.16467 1.271476,-0.0666 4.345238,1.13452 1.331237,0.43265 c 0.849144,1.26697 1.777015,2.49457 2.115231,4.017 l -0.465932,0.76546 c -1.00072,0.61565 -1.598659,0.26463 -2.163261,-0.1664 -0.921239,0.80328 -1.919999,0.52128 -2.928721,0.0998 -0.798742,0.22051 -1.597484,0.84857 -2.396226,-0.26624 -1.682986,-1.9834 -1.817414,-3.96679 -1.109042,-5.95019 z"
         style="fill:#bea32d;fill-opacity:1;stroke:none;stroke-width:0.264583px;stroke-linecap:butt;stroke-linejoin:miter;stroke-opacity:1" />
      <ellipse
         transform="rotate(-21.591295)"
         ry="2.7945735"
         rx="1.6549987"
         cy="276.24451"
         cx="-95.553772"
         id="ellipse1010"
         style="fill:url(#linearGradient1351);fill-opacity:1;stroke:none;stroke-width:0.15875;stroke-linecap:round;stroke-linejoin:round;stroke-miterlimit:4;stroke-dasharray:none" />
      <ellipse
         style="fill:url(#linearGradient1353);fill-opacity:1;stroke:none;stroke-width:0.15875;stroke-linecap:round;stroke-linejoin:round;stroke-miterlimit:4;stroke-dasharray:none"
         id="ellipse1012"
         cx="-92.908432"
         cy="277.43848"
         rx="1.6549987"
         ry="2.7945735"
         transform="rotate(-21.591295)" />
      <ellipse
         transform="rotate(-28.666925)"
         ry="2.7945735"
         rx="1.6549987"
         cy="264.86661"
         cx="-124.29932"
         id="ellipse1014"
         style="fill:url(#linearGradient1355);fill-opacity:1;stroke:none;stroke-width:0.15875;stroke-linecap:round;stroke-linejoin:round;stroke-miterlimit:4;stroke-dasharray:none" />
      <path
         sodipodi:nodetypes="cccccccc"
         id="path1016"
         d="m 11.04458,288.27371 c 0.351684,-0.34232 0.651885,-0.7979 1.43108,-0.19969 l 4.662729,1.20152 1.297956,0.76546 -2.229822,0.8653 -2.16326,0.36609 -3.394654,-0.13312 z"
         style="fill:url(#linearGradient1357);fill-opacity:1;stroke:none;stroke-width:0.264583px;stroke-linecap:butt;stroke-linejoin:miter;stroke-opacity:1" />
    </g>
    <path
       sodipodi:nodetypes="ccccccccc"
       id="path955"
       d="m 25.809081,266.30948 c 2.056887,3.39255 2.042551,7.19878 0.248155,11.49785 -0.260366,3.80812 -3.725952,6.68312 -0.452149,11.52013 l 10.096501,2.2988 c 3.694106,-2.25114 5.688931,-5.21032 6.339084,-8.72975 -0.220582,-3.67465 -0.441164,-6.74926 -0.661746,-11.33242 l -1.985241,-4.46677 0.992621,-1.81982 z"
       style="fill:url(#radialGradient960);fill-opacity:1;stroke:#000000;stroke-width:0.285459px;stroke-linecap:butt;stroke-linejoin:miter;stroke-opacity:1" />
    <ellipse
       transform="matrix(0.95771559,0.2877166,-0.24667603,0.969098,0,0)"
       ry="14.581472"
       rx="16.396189"
       cy="233.72354"
       cx="93.322876"
       id="path916"
       style="fill:url(#radialGradient909);fill-opacity:1;stroke:#030000;stroke-width:0.171354;stroke-linecap:round;stroke-linejoin:round;stroke-miterlimit:4;stroke-dasharray:none;stroke-opacity:1" />
    <path
       sodipodi:nodetypes="ccccccc"
       id="path918"
       d="m 40.722039,250.82618 -1.841671,0.28775 c -7.823368,-13.31926 -17.898094,-2.90377 -17.529635,1.54494 -0.133221,7.6061 4.106747,15.96012 16.579828,13.99001 2.460301,-0.51347 5.19732,-1.2538 7.08242,-3.49286 5.14157,-7.14376 2.836724,-14.20938 -2.324397,-19.76155 -3.689877,-0.46518 -3.293547,3.03203 -1.966545,7.43171 z"
       style="fill:url(#radialGradient961);fill-opacity:1;stroke:#000000;stroke-width:0.14273;stroke-linecap:butt;stroke-linejoin:miter;stroke-miterlimit:4;stroke-dasharray:none;stroke-opacity:1" />
    <ellipse
       transform="rotate(-11.617056)"
       style="fill:#ffffff;fill-opacity:1;stroke-width:0.0827033;stroke-linecap:round;stroke-linejoin:round"
       id="ellipse909"
       cx="-6.7897983"
       cy="255.92116"
       rx="2.6928749"
       ry="5.3398652" />
    <ellipse
       ry="5.3398652"
       rx="5.1330657"
       cy="252.29411"
       cx="30.615093"
       id="path907"
       style="fill:#ffffff;fill-opacity:1;stroke-width:0.114184;stroke-linecap:round;stroke-linejoin:round" />
    <g
       id="g969"
       transform="matrix(1.0789016,0,0,1.0789016,-23.843548,-25.41014)">
      <ellipse
         style="fill:url(#radialGradient928);fill-opacity:1;stroke:none;stroke-width:0.138616;stroke-linecap:round;stroke-linejoin:round;stroke-miterlimit:4;stroke-dasharray:none;stroke-opacity:1"
         id="path920"
         cx="50.986912"
         cy="257.74936"
         rx="3.4666057"
         ry="3.3828828" />
      <ellipse
         style="fill:url(#radialGradient944);fill-opacity:1;stroke:none;stroke-width:0.108405;stroke-linecap:round;stroke-linejoin:round;stroke-miterlimit:4;stroke-dasharray:none;stroke-opacity:1"
         id="path936"
         cx="50.999107"
         cy="257.8219"
         rx="2.8410223"
         ry="2.6744308" />
      <path
         style="fill:#ffffff;fill-opacity:1;stroke:none;stroke-width:0.110892;stroke-linecap:butt;stroke-linejoin:miter;stroke-miterlimit:4;stroke-dasharray:none;stroke-opacity:1"
         d="m 48.111647,257.90737 c 0.03694,-2.37123 2.782,-3.71545 4.849724,-2.04318 -1.994408,-0.55341 -3.696107,0.34012 -4.849724,2.04318 z"
         id="path934"
         sodipodi:nodetypes="ccc" />
      <path
         id="rect946"
         style="fill:#ffffff;fill-opacity:0.348184;stroke:none;stroke-width:0.101882;stroke-linecap:round;stroke-linejoin:round;stroke-miterlimit:4;stroke-dasharray:none;stroke-opacity:1"
         d="m 51.331449,256.15716 1.108253,-0.28907 c 0.434969,0.82911 0.654495,1.75727 0.444481,2.88296 l -1.108252,0.28905 c 0.195933,-0.98608 0.04437,-1.94681 -0.444482,-2.88294 z"
         sodipodi:nodetypes="ccccc" />
      <ellipse
         style="fill:#ffffff;fill-opacity:0.577092;stroke:none;stroke-width:0.110892;stroke-linecap:round;stroke-linejoin:round;stroke-miterlimit:4;stroke-dasharray:none;stroke-opacity:1"
         id="path951"
         cx="49.779037"
         cy="257.81247"
         rx="0.84028906"
         ry="0.87524009" />
      <ellipse
         ry="0.44519994"
         rx="0.42742175"
         cy="258.05325"
         cx="51.096832"
         id="ellipse953"
         style="fill:#ffffff;fill-opacity:0.577092;stroke:none;stroke-width:0.0564066;stroke-linecap:round;stroke-linejoin:round;stroke-miterlimit:4;stroke-dasharray:none;stroke-opacity:1" />
    </g>
    <g
       transform="matrix(0.70579673,-0.07796923,0.11846538,1.072378,-21.980057,-21.020181)"
       id="g983">
      <ellipse
         ry="3.3828828"
         rx="3.4666057"
         cy="257.74936"
         cx="50.986912"
         id="ellipse971"
         style="fill:url(#radialGradient985);fill-opacity:1;stroke:none;stroke-width:0.138616;stroke-linecap:round;stroke-linejoin:round;stroke-miterlimit:4;stroke-dasharray:none;stroke-opacity:1" />
      <ellipse
         ry="2.6744308"
         rx="2.8410223"
         cy="257.8219"
         cx="50.999107"
         id="ellipse973"
         style="fill:url(#radialGradient987);fill-opacity:1;stroke:none;stroke-width:0.108405;stroke-linecap:round;stroke-linejoin:round;stroke-miterlimit:4;stroke-dasharray:none;stroke-opacity:1" />
      <path
         sodipodi:nodetypes="ccc"
         id="path975"
         d="m 48.111647,257.90737 c 0.03694,-2.37123 2.782,-3.71545 4.849724,-2.04318 -1.994408,-0.55341 -3.696107,0.34012 -4.849724,2.04318 z"
         style="fill:#ffffff;fill-opacity:1;stroke:none;stroke-width:0.110892;stroke-linecap:butt;stroke-linejoin:miter;stroke-miterlimit:4;stroke-dasharray:none;stroke-opacity:1" />
      <path
         sodipodi:nodetypes="ccccc"
         d="m 51.331449,256.15716 1.108253,-0.28907 c 0.434969,0.82911 0.654495,1.75727 0.444481,2.88296 l -1.108252,0.28905 c 0.195933,-0.98608 0.04437,-1.94681 -0.444482,-2.88294 z"
         style="fill:#ffffff;fill-opacity:0.348184;stroke:none;stroke-width:0.101882;stroke-linecap:round;stroke-linejoin:round;stroke-miterlimit:4;stroke-dasharray:none;stroke-opacity:1"
         id="path977" />
      <ellipse
         ry="0.87524009"
         rx="0.84028906"
         cy="257.81247"
         cx="49.779037"
         id="ellipse979"
         style="fill:#ffffff;fill-opacity:0.577092;stroke:none;stroke-width:0.110892;stroke-linecap:round;stroke-linejoin:round;stroke-miterlimit:4;stroke-dasharray:none;stroke-opacity:1" />
      <ellipse
         style="fill:#ffffff;fill-opacity:0.577092;stroke:none;stroke-width:0.0564066;stroke-linecap:round;stroke-linejoin:round;stroke-miterlimit:4;stroke-dasharray:none;stroke-opacity:1"
         id="ellipse981"
         cx="51.096832"
         cy="258.05325"
         rx="0.42742175"
         ry="0.44519994" />
    </g>
    <path
       d="m 34.008058,258.63374 c 0.224399,0.22768 0.470713,0.43089 0.719232,0.6312 0.216039,0.16905 0.438765,0.3303 0.673458,0.47256 0.163786,0.0946 0.341448,0.14906 0.526163,0.18323 0.287974,0.062 0.581375,0.0822 0.874863,0.0953 0.42179,0.0143 0.832304,-0.0861 1.238824,-0.18476 0.379892,-0.095 0.748208,-0.22865 1.115661,-0.36264 0.286533,-0.10648 0.571575,-0.21709 0.848807,-0.34608 0.195556,-0.10005 0.394733,-0.19177 0.597493,-0.27615 0.151435,-0.0701 0.308441,-0.12308 0.467219,-0.17302 0.07008,-0.0214 0.139336,-0.0453 0.20896,-0.0679 0,0 0.281654,-0.28152 0.281654,-0.28152 v 0 c -0.06983,0.0223 -0.138742,0.047 -0.208971,0.0678 -0.158319,0.0528 -0.319055,0.0977 -0.469869,0.17132 -0.204506,0.0833 -0.404907,0.17546 -0.601029,0.27701 -0.276647,0.13131 -0.56147,0.24321 -0.848265,0.35036 -0.366947,0.13658 -0.73636,0.26863 -1.115224,0.36848 -0.402975,0.0985 -0.809686,0.20047 -1.227965,0.18966 -0.291461,-0.0126 -0.583209,-0.0311 -0.869076,-0.0934 -0.1808,-0.0318 -0.354066,-0.0845 -0.515854,-0.17336 -0.235613,-0.13813 -0.45815,-0.29758 -0.673488,-0.46531 -0.247049,-0.19929 -0.493971,-0.39995 -0.711951,-0.63167 0,0 -0.310642,0.24887 -0.310642,0.24887 z"
       id="path914"
       style="fill:#ffffff;stroke:#8c8787;stroke-width:0.398501;stroke-linecap:round;stroke-linejoin:round" />
    <ellipse
       transform="rotate(-12.815237)"
       ry="2.4971991"
       rx="2.3007438"
       cy="255.48662"
       cx="-16.81945"
       id="path989"
       style="fill:url(#radialGradient997);fill-opacity:1;stroke:none;stroke-width:0.128206;stroke-linecap:round;stroke-linejoin:round;stroke-miterlimit:4;stroke-dasharray:none;stroke-opacity:1" />
    <path
       d="m 24.492192,232.59566 c 0.02464,0.0602 0.0016,-0.11825 5.59e-4,-0.003 z m 0.337156,0.0682 c 0.360338,0.0682 0.720673,0.1363 1.081008,0.20444 -0.200793,0.15809 -0.175902,0.40489 -0.0021,0.56841 0.264359,0.29643 0.596723,0.57755 0.720263,0.92117 0.105797,0.24963 -0.04745,0.51116 -0.282206,0.70184 -0.205653,0.14655 -0.24076,0.35427 -0.241234,0.5483 -0.04031,0.52853 -0.08064,1.05708 -0.120962,1.58562 0.09008,0.30631 0.199952,0.616 0.168579,0.93091 -0.133488,0.1838 0.278729,0.34469 0.478174,0.21568 0.18845,-0.0952 0.337177,-0.26228 0.295178,-0.42738 -0.05516,-0.17534 -0.337951,-0.25985 -0.374947,-0.44337 -0.0862,-0.21142 -0.02673,-0.43366 -0.03651,-0.6497 0.01607,-0.52823 0.05122,-1.05619 0.09538,-1.58361 0.04254,-0.27546 0.211134,-0.54087 0.17073,-0.82135 -0.01821,-0.24298 -0.142743,-0.47259 -0.246592,-0.70262 -0.07285,-0.19534 0.146353,-0.38969 0.03161,-0.58144 -0.154596,-0.16768 -0.455316,-0.21171 -0.701707,-0.28856 -0.351804,-0.0867 -0.716327,-0.14691 -1.085223,-0.18705 z"
       id="path999"
       style="fill:#ffffff;fill-opacity:1;stroke:none;stroke-width:0.0947176;stroke-linecap:round;stroke-linejoin:round;stroke-miterlimit:4;stroke-dasharray:none;stroke-opacity:1" />
    <path
       d="m 27.773149,233.04661 c -0.302161,0.045 -0.455697,0.32536 -0.265512,0.49444 0.145865,0.26328 0.166832,0.55015 0.2878,0.81757 0.06303,0.12093 0.236747,0.25354 0.06,0.37159 -0.118307,0.17872 -0.139187,0.38323 -0.164654,0.57757 -0.04304,0.64671 -0.03555,1.29569 0.05384,1.94055 0.02116,0.39222 0.309237,0.77441 0.776786,1.00157 0.07376,0.0394 0.158492,0.0672 0.242147,0.0951 -0.295736,-0.16651 -0.404076,-0.43119 -0.457664,-0.68086 -0.09414,-0.44298 -0.0555,-0.8928 -0.129041,-1.33714 -0.04303,-0.53275 -0.09376,-1.06522 -0.127647,-1.59831 0.01956,-0.0262 0.0095,-0.15991 0.04636,-0.12324 -0.07649,-0.20053 -0.0052,-0.4084 -0.01686,-0.61266 0.0058,-0.21893 -0.01466,-0.43785 -0.059,-0.65464 -1.65e-4,-0.11627 0.08581,-0.25902 -0.05689,-0.35235 -0.06321,0.0202 -0.126434,0.0406 -0.18965,0.0609 z m 1.05572,5.33454 c -0.309144,0.0465 -0.52923,0.22544 -0.665884,0.4118 0.2429,0.11057 0.308719,-0.17132 0.44675,-0.25477 0.07686,-0.0721 0.184235,-0.13396 0.311854,-0.15703 l -0.04637,-0.001 z"
       id="path1001"
       style="fill:#ffffff;fill-opacity:1;stroke:none;stroke-width:0.0947176;stroke-linecap:round;stroke-linejoin:round;stroke-miterlimit:4;stroke-dasharray:none;stroke-opacity:1" />
    <path
       d="m 27.111478,233.21916 c -0.336843,0.0935 -0.510409,0.37296 -0.427768,0.61045 0.06779,0.26259 0.09887,0.53024 0.195973,0.78879 0.07325,0.24481 0.05702,0.49643 0.12822,0.74145 0.120026,0.47607 0.334211,0.93765 0.507488,1.40522 0.105592,0.26948 0.211172,0.53895 0.316759,0.80843 0.200396,0.31889 0.529241,0.60399 0.963004,0.78591 -0.305116,-0.19177 -0.355865,-0.49185 -0.383515,-0.75981 -0.03717,-0.32128 -0.08428,-0.64851 -0.271757,-0.9475 -0.244616,-0.49969 -0.520806,-1.00223 -0.569028,-1.53345 0.03067,-0.18261 0.103424,-0.39697 -0.09061,-0.55099 -0.300835,-0.18053 -0.355981,-0.4685 -0.394911,-0.72601 -0.05193,-0.19403 0.04552,-0.38084 0.13783,-0.55434 0.0067,-0.0416 -0.04453,-0.0897 -0.111683,-0.0682 z"
       id="path1003"
       style="fill:#ffffff;fill-opacity:1;stroke:none;stroke-width:0.0947176;stroke-linecap:round;stroke-linejoin:round;stroke-miterlimit:4;stroke-dasharray:none;stroke-opacity:1" />
    <path
       d="m 28.822548,233.60631 c -0.33449,0.12518 -0.441931,0.39917 -0.529661,0.63504 0.0078,0.13735 -0.214134,0.26119 -0.185245,0.37648 0.155823,0.21271 0.222497,0.45102 0.278151,0.68442 0.05754,0.31812 0.0076,0.63918 -0.0065,0.95813 -0.02694,0.33748 -0.04413,0.67525 -0.06248,1.01298 0.0469,0.32256 0.220814,0.62718 0.406696,0.92218 -0.0986,-0.38833 0.148346,-0.76006 0.240224,-1.13679 0.01855,-0.32159 -0.117361,-0.63725 -0.09012,-0.95921 -0.0067,-0.39197 0.06582,-0.79285 -0.09743,-1.17519 -0.09676,-0.18799 -0.08398,-0.38978 -0.0084,-0.58 0.07775,-0.22963 0.184136,-0.4618 0.167845,-0.69984 0.01678,-0.0425 -0.07517,-0.0512 -0.113057,-0.0382 z"
       id="path1005"
       style="fill:#ffffff;fill-opacity:1;stroke:none;stroke-width:0.0947176;stroke-linecap:round;stroke-linejoin:round;stroke-miterlimit:4;stroke-dasharray:none;stroke-opacity:1" />
    <path
       d="m 32.826284,232.96541 c -0.230674,0.0909 -0.428386,0.22153 -0.525221,0.39519 -0.115218,0.19997 -0.243379,0.40204 -0.458855,0.5618 -0.115283,0.0691 -0.29319,0.17787 -0.446732,0.0971 0.181158,0.13066 0.483065,0.10347 0.682875,0.007 0.383273,-0.17007 0.616693,-0.45988 0.717798,-0.76004 0.0054,-0.10066 0.121942,-0.22352 0.07439,-0.31083 z m -1.430808,1.05413 c 0.231088,0.13224 0.223331,0.35916 0.195972,0.54666 -0.09587,0.44407 -0.352107,0.86045 -0.562558,1.28257 -0.140069,0.24692 -0.235201,0.50947 -0.453038,0.73175 -0.152558,0.16669 -0.352723,0.31484 -0.594327,0.42169 -0.08175,0.0242 -0.170224,0.0364 -0.25919,0.0349 0.408613,0.22156 0.526539,0.61416 0.438304,0.95266 -0.03369,0.12089 -0.09708,0.23648 -0.134862,0.35669 0.519535,-0.18651 0.649748,-0.72417 0.257082,-1.02079 -0.136082,-0.10817 -0.311831,-0.18654 -0.484664,-0.26392 0.55775,0.008 1.073535,-0.26206 1.263674,-0.61672 0.240617,-0.346 0.39518,-0.71601 0.586475,-1.07542 0.155523,-0.32446 0.211121,-0.68308 0.05471,-1.01246 -0.04813,-0.13188 -0.151741,-0.25255 -0.307578,-0.33748 z"
       id="path1007"
       style="fill:#ffffff;fill-opacity:1;stroke:none;stroke-width:0.0947176;stroke-linecap:round;stroke-linejoin:round;stroke-miterlimit:4;stroke-dasharray:none;stroke-opacity:1" />
    <path
       d="m 33.091795,234.17326 c -0.238293,0.0406 -0.312264,0.24363 -0.2437,0.3885 0.12737,0.14122 0.02864,0.30786 -0.13012,0.4156 -0.215452,0.16254 -0.444576,0.33055 -0.523896,0.55048 -0.106078,0.21585 -0.05408,0.44594 -0.10188,0.66726 -0.05934,0.23263 -0.24543,0.43728 -0.414354,0.6389 -0.262713,0.284 -0.779599,0.46681 -1.267837,0.38682 -0.12014,-0.0197 -0.235285,-0.052 -0.354729,-0.0737 0.387518,0.13045 0.823915,0.20025 1.255909,0.17545 0.464205,-0.16457 0.754135,-0.48614 0.941931,-0.81055 0.03046,-0.32504 -0.174197,-0.65071 -0.04004,-0.97293 0.113207,-0.25885 0.416026,-0.44969 0.739291,-0.58935 0.241536,-0.0879 0.426836,-0.28084 0.336505,-0.47192 -0.03359,-0.0994 -0.14432,-0.208 -0.04958,-0.30754 -0.04958,-0.004 -0.09834,-0.002 -0.147506,0.003 z m -2.825793,3.07835 c 0.290995,0.1587 0.492126,0.38671 0.594238,0.63074 -0.09372,0.45275 -0.322184,0.88472 -0.543665,1.31371 -0.12286,0.0172 0.06277,0.1381 0.07586,0.0508 0.434927,-0.22934 0.634425,-0.60424 0.708584,-0.96626 0.05241,-0.1825 0.08818,-0.39535 -0.08695,-0.55334 -0.219276,-0.22859 -0.541162,-0.39773 -0.876608,-0.53939 0.04285,0.0213 0.08569,0.0425 0.128542,0.0637 z"
       id="path1009"
       style="fill:#ffffff;fill-opacity:1;stroke:none;stroke-width:0.0947176;stroke-linecap:round;stroke-linejoin:round;stroke-miterlimit:4;stroke-dasharray:none;stroke-opacity:1" />
    <path
       d="m 30.478831,234.14425 c -0.327833,0.0947 -0.63499,0.27077 -0.720673,0.51765 -0.287845,0.66603 -0.569193,1.33786 -0.686956,2.03 -0.148476,0.40811 -0.459149,0.79063 -0.482557,1.21801 0.0083,0.16717 0.05333,0.37283 0.299228,0.45239 -0.124056,-0.24226 0.0579,-0.48694 0.19729,-0.70524 0.12107,-0.20923 0.321047,-0.3983 0.410879,-0.61365 0.0949,-0.34107 -0.03903,-0.69844 0.12476,-1.03311 0.175781,-0.51005 0.37271,-1.01919 0.662057,-1.50499 0.05407,-0.1183 0.272746,-0.25907 0.242331,-0.36251 z"
       id="path1011"
       style="fill:#ffffff;fill-opacity:1;stroke:none;stroke-width:0.0947176;stroke-linecap:round;stroke-linejoin:round;stroke-miterlimit:4;stroke-dasharray:none;stroke-opacity:1" />
    <path
       d="m 29.844555,234.10076 c 0.0096,0.74317 0.02318,1.48659 0.01534,2.22967 -0.01809,0.20975 -0.0456,0.42001 -0.122812,0.62393 -0.156455,0.0535 0.105021,0.0975 0.124327,0.0189 0.249188,-0.12159 0.297675,-0.34672 0.372824,-0.53572 0.155627,-0.58838 0.0469,-1.18908 0.130926,-1.78174 0.02525,-0.25605 0.05049,-0.5121 0.07574,-0.76815 -0.198783,0.0711 -0.397564,0.14211 -0.596346,0.21316 z"
       id="path1013"
       style="fill:#ffffff;fill-opacity:1;stroke:none;stroke-width:0.0947176;stroke-linecap:round;stroke-linejoin:round;stroke-miterlimit:4;stroke-dasharray:none;stroke-opacity:1" />
    <path
       d="m 25.87032,230.38152 c 0.104977,0.25999 0.258154,0.52297 0.535774,0.7188 0.217752,0.1586 0.557753,0.14347 0.846044,0.12393 0.08059,-0.007 0.317495,0.0371 0.120636,-0.0192 -0.266691,-0.0942 -0.641308,-0.0288 -0.839584,-0.20521 -0.250429,-0.19151 -0.411359,-0.42863 -0.654441,-0.62419 z m 1.53617,0.88448 c -0.262761,0.074 -0.354484,0.27999 -0.510096,0.42792 -0.150092,0.18423 -0.402893,0.3278 -0.499267,0.53199 -0.08161,0.21953 0.07712,0.42983 0.239566,0.61132 0.08814,0.0983 0.309403,0.33265 0.476893,0.18038 -0.0081,-0.18437 -0.105485,-0.37296 -0.143292,-0.55969 -0.07479,-0.26317 -0.05975,-0.55223 0.15856,-0.78329 0.09111,-0.14273 0.307413,-0.25132 0.372462,-0.39122 -0.0228,-0.0198 -0.06153,-0.0212 -0.09483,-0.0174 z m -0.04846,1.95606 c -0.03455,0.036 0.05191,-0.0142 0,0 z m -0.04425,0.1972 c -0.0478,0.20202 0.0486,0.40279 0.124326,0.59594 0.08369,0.18256 0.245952,0.3382 0.391576,0.49845 0.191937,0.22337 0.200003,0.48846 0.235329,0.73916 -0.02912,0.18394 0.345615,0.32655 0.498356,0.1457 0.114639,-0.21992 -0.159431,-0.4121 -0.287052,-0.5983 -0.299262,-0.40083 -0.496168,-0.83266 -0.735021,-1.2512 -0.02811,-0.0519 -0.180429,-0.31034 -0.227514,-0.12975 z"
       id="path1015"
       style="fill:#ffffff;fill-opacity:1;stroke:none;stroke-width:0.0947176;stroke-linecap:round;stroke-linejoin:round;stroke-miterlimit:4;stroke-dasharray:none;stroke-opacity:1" />
    <path
       d="m 28.321027,231.29935 c -0.188132,0.0121 -0.376468,0.0225 -0.564737,0.0334 0.344231,0.31282 0.627733,0.65966 0.809177,1.03239 0.09283,0.27516 0.150114,0.55539 0.256832,0.82845 0.212095,0.632 0.428582,1.2633 0.66192,1.89174 0.0029,0.15123 0.07931,0.42172 0.375256,0.38168 0.195153,-0.0537 0.240198,-0.22631 0.216875,-0.35557 -0.04933,-0.20347 -0.158425,-0.39778 -0.227056,-0.59855 -0.171821,-0.45152 -0.333937,-0.90531 -0.46922,-1.36262 -0.07665,-0.31802 -0.01373,-0.64118 0.062,-0.95623 -0.123701,-0.19336 -0.355943,-0.33943 -0.505736,-0.522 -0.186811,-0.12935 -0.207778,-0.46627 -0.582915,-0.37566 z"
       id="path1017"
       style="fill:#ffffff;fill-opacity:1;stroke:none;stroke-width:0.0947176;stroke-linecap:round;stroke-linejoin:round;stroke-miterlimit:4;stroke-dasharray:none;stroke-opacity:1" />
    <path
       d="m 29.842448,232.12006 c 0.270962,0.0997 0.369036,0.31973 0.464438,0.50661 0.17982,0.3879 0.132391,0.80014 0.151651,1.20114 -0.0109,0.56967 -0.144802,1.13429 -0.153497,1.70409 -0.02124,0.42195 -0.03648,0.85855 -0.279263,1.2528 -0.07015,0.0798 -0.156199,0.1522 -0.229688,0.23054 0.346446,0.004 0.611363,-0.19965 0.730088,-0.40582 0.291155,-0.47014 0.206913,-0.99359 0.336916,-1.48703 0.07757,-0.33717 0.23163,-0.66638 0.464952,-0.96799 0.05663,-0.22184 -0.310644,-0.34757 -0.336187,-0.55848 -0.124391,-0.34829 -0.02893,-0.73637 -0.302304,-1.05682 -0.182209,-0.21587 -0.478227,-0.42284 -0.861322,-0.43493 -0.11328,-0.008 -0.04156,0.005 0.01422,0.0159 z m -0.06954,4.94303 c 0.144313,0.0872 0.200569,0.21823 0.25919,0.33931 -0.01346,-0.1431 -0.119076,-0.28643 -0.301334,-0.36104 l 0.04174,0.0215 z"
       id="path1019"
       style="fill:#ffffff;fill-opacity:1;stroke:none;stroke-width:0.0947176;stroke-linecap:round;stroke-linejoin:round;stroke-miterlimit:4;stroke-dasharray:none;stroke-opacity:1" />
    <path
       d="m 28.310492,230.5816 c -0.238924,0.17069 -0.504181,0.33254 -0.659563,0.54811 0.0449,0.45262 0.28102,0.90328 0.149613,1.35865 -0.07583,0.20629 -0.194753,0.40303 -0.303442,0.60175 -0.01829,0.29202 0.260816,0.53952 0.30938,0.82402 0.06771,0.22087 0.112214,0.44751 0.236394,0.65787 -0.01125,0.25183 -0.0066,0.5053 0.06289,0.75343 0.08368,0.49001 0.163529,0.98033 0.240553,1.47088 -0.08997,0.20893 0.279011,0.43296 0.531021,0.25374 0.239767,-0.13677 0.160964,-0.37245 0.06321,-0.54519 -0.165586,-0.49059 -0.24512,-0.99489 -0.467805,-1.47611 -0.08676,-0.16931 -0.303261,-0.3128 -0.304242,-0.49825 0.07219,-0.21115 0.195369,-0.41451 0.15449,-0.63711 0.01036,-0.48754 -0.06631,-0.97591 0.0044,-1.46266 0.02775,-0.30184 0.01861,-0.62362 -0.204518,-0.89357 -0.144101,-0.17242 -0.161656,-0.40897 0.0295,-0.5684 0.100896,-0.12009 0.216061,-0.2482 0.19808,-0.39294 z"
       id="path1021"
       style="fill:#ffffff;fill-opacity:1;stroke:none;stroke-width:0.0947176;stroke-linecap:round;stroke-linejoin:round;stroke-miterlimit:4;stroke-dasharray:none;stroke-opacity:1" />
    <path
       d="m 26.435057,232.136 c -0.162065,0.14349 -0.480067,0.25374 -0.440514,0.46341 0.09903,0.18838 0.374039,0.28472 0.59645,0.395 0.173811,0.0738 0.363333,0.1267 0.549986,0.1827 -0.276655,-0.26911 -0.605572,-0.54298 -0.65898,-0.88263 -0.0093,-0.0703 0.01322,-0.13977 0.02471,-0.20922 l -0.03636,0.0258 z m 0.901895,1.15711 c -0.122877,0.16895 -0.05434,0.37441 0.03372,0.54519 0.158422,0.25962 0.342434,0.52011 0.634276,0.72211 0.271495,0.23674 0.450643,0.5149 0.690305,0.7663 0.351154,0.39146 0.687386,0.7956 0.875366,1.23998 0.07947,0.12847 0.03887,0.30252 0.101151,0.41376 0.217285,-0.0224 0.301703,-0.20333 0.332943,-0.3335 0.05035,-0.27919 -0.0706,-0.55797 -0.228802,-0.81207 -0.228149,-0.34202 -0.523148,-0.66732 -0.902781,-0.93952 -0.187558,-0.13717 -0.431946,-0.22538 -0.655349,-0.32625 -0.204435,-0.16883 -0.140636,-0.41106 -0.305614,-0.5933 -0.14688,-0.19548 -0.276759,-0.39778 -0.433789,-0.58918 -0.04129,-0.0267 -0.07036,-0.10833 -0.141418,-0.0935 z"
       id="path1023"
       style="fill:#ffffff;fill-opacity:1;stroke:none;stroke-width:0.0947176;stroke-linecap:round;stroke-linejoin:round;stroke-miterlimit:4;stroke-dasharray:none;stroke-opacity:1" />
    <path
       d="m 32.293156,232.84071 c -0.244439,1.30113 -0.488877,2.60227 -0.733317,3.9034 -0.199097,0.2743 -0.61458,0.46026 -1.055721,0.48865 -0.196457,-0.0253 -0.388939,-0.0659 -0.568953,-0.12615 0.397897,0.13635 0.825688,0.27064 1.281196,0.25085 0.395099,-0.0626 0.646162,-0.32272 0.743852,-0.57856 0.108305,-0.24909 0.135814,-0.5102 0.115065,-0.76887 -0.029,-0.27167 0.02943,-0.54312 0.136279,-0.80439 0.145247,-0.34999 0.194978,-0.71341 0.279294,-1.07163 0.104685,-0.50791 0.199133,-1.01679 0.297504,-1.52531 -0.165067,0.0774 -0.330133,0.15467 -0.495199,0.23201 z"
       id="path1025"
       style="fill:#ffffff;fill-opacity:1;stroke:none;stroke-width:0.0947176;stroke-linecap:round;stroke-linejoin:round;stroke-miterlimit:4;stroke-dasharray:none;stroke-opacity:1" />
    <path
       d="m 30.46408,231.88951 c -0.216808,0.0908 -0.449882,0.1634 -0.693279,0.21314 0.509375,-0.006 0.959884,0.23372 1.208311,0.52488 0.293353,0.39513 0.342347,0.84532 0.447973,1.27603 -0.04238,0.11335 0.154888,0.082 0.161066,-0.006 0.178994,-0.18831 0.145939,-0.42494 0.1572,-0.63937 -0.0072,-0.2866 -0.105786,-0.57385 -0.303516,-0.82687 -0.30863,-0.22101 -0.752142,-0.3291 -1.188477,-0.35525 0.01685,-0.11345 0.294898,-0.0715 0.286582,-0.1943 H 30.502 Z m 0.981969,2.16775 c 0.125425,0.16056 0.117419,0.36313 0.137911,0.54339 9.97e-4,0.43677 -0.03163,0.87344 -0.03936,1.31025 -0.0084,0.25699 -0.02246,0.51389 -0.03322,0.77085 -0.07344,0.33459 -0.577719,0.62127 -1.075054,0.53741 -0.13638,-0.0192 -0.267413,-0.0523 -0.400005,-0.0807 0.470277,0.19457 0.949464,0.38841 1.344412,0.65396 0.213284,0.37852 0.210019,0.80138 0.06954,1.19189 -0.02612,0.0974 -0.05898,0.19476 -0.06111,0.29434 0.397665,-0.13134 0.592685,-0.4423 0.615312,-0.73225 0.03243,-0.22236 -0.05791,-0.44157 -0.162258,-0.64959 -0.441087,-0.28255 -0.98162,-0.47419 -1.517204,-0.65686 0.348022,0.0912 0.718999,0.17003 1.095759,0.1392 0.414038,-0.17374 0.597314,-0.51794 0.617419,-0.83809 -0.03371,-0.46864 -0.0597,-0.93746 -0.07797,-1.4065 -0.05241,-0.35273 -0.09948,-0.7341 -0.436196,-1.02079 -2e-6,-0.003 -0.162957,-0.12419 -0.07798,-0.0565 z"
       id="path1027"
       style="fill:#ffffff;fill-opacity:1;stroke:none;stroke-width:0.0947176;stroke-linecap:round;stroke-linejoin:round;stroke-miterlimit:4;stroke-dasharray:none;stroke-opacity:1" />
    <path
       d="m 29.498969,236.17135 c -0.208438,0.0895 -0.33185,0.26894 -0.261296,0.435 0.08668,0.14102 0.266913,0.2535 0.285408,0.41531 0.05629,0.19456 -0.103326,0.36987 -0.203227,0.54314 -0.153043,0.24641 -0.331692,0.48678 -0.4247,0.74838 -0.0032,0.19182 0.055,0.38553 0.127021,0.57282 0.05076,0.14152 0.101526,0.28306 0.152281,0.4246 0.282559,-0.0965 0.495486,-0.33338 0.377194,-0.54955 -0.106369,-0.1552 -0.352252,-0.34275 -0.162256,-0.51329 0.245133,-0.27898 0.461226,-0.59689 0.421445,-0.93091 -0.0455,-0.20727 -0.181718,-0.40536 -0.158043,-0.6188 -0.02171,-0.17267 0.03885,-0.40335 -0.118004,-0.53829 z"
       id="path1029"
       style="fill:#ffffff;fill-opacity:1;stroke:none;stroke-width:0.0947176;stroke-linecap:round;stroke-linejoin:round;stroke-miterlimit:4;stroke-dasharray:none;stroke-opacity:1" />
    <path
       d="m 27.147302,236.2656 c -0.244302,0.0923 -0.448758,0.27517 -0.410911,0.47561 0.03965,0.32155 -7.42e-4,0.67082 0.256021,0.95665 0.207269,0.22096 0.583245,0.31325 0.901262,0.43821 0.117867,0.0402 0.235734,0.0803 0.353601,0.12039 -0.269503,0.0854 -0.597269,0.0387 -0.844999,0.16529 -0.261338,0.12744 -0.38534,0.34474 -0.444626,0.5539 -0.08312,0.13082 0.105624,-0.0185 0.164364,-0.0435 0.353094,-0.21965 0.721513,-0.45382 1.1948,-0.53795 0.180221,-0.0517 0.379031,-0.0297 0.566844,-0.016 -0.326117,-0.0547 -0.618307,-0.1788 -0.887389,-0.31283 -0.336172,-0.17551 -0.589625,-0.43375 -0.645643,-0.72507 -0.0711,-0.31027 -0.07298,-0.62535 -0.09586,-0.93845 0.03529,-0.0496 0.0125,-0.17763 -0.107469,-0.13631 z"
       id="path1031"
       style="fill:#ffffff;fill-opacity:1;stroke:none;stroke-width:0.0947176;stroke-linecap:round;stroke-linejoin:round;stroke-miterlimit:4;stroke-dasharray:none;stroke-opacity:1" />
    <path
       d="m 26.357091,235.6798 c -0.127606,0.0975 -0.481738,0.16886 -0.318193,0.33785 0.182269,0.41926 0.317656,0.84733 0.503629,1.26585 0.115772,0.192 0.283646,0.36613 0.472019,0.5278 0.575752,0.2122 1.16232,0.41705 1.78693,0.55245 0.01432,10e-4 0.175132,0.0318 0.04294,0.005 -0.519042,-0.10934 -0.989855,-0.33275 -1.319626,-0.62944 -0.302411,-0.29466 -0.394019,-0.65776 -0.559119,-0.99349 -0.136508,-0.31384 -0.278196,-0.62656 -0.423144,-0.93859 -0.05102,-0.0465 -0.06724,-0.15025 -0.185436,-0.1276 z"
       id="path1033"
       style="fill:#ffffff;fill-opacity:1;stroke:none;stroke-width:0.0947176;stroke-linecap:round;stroke-linejoin:round;stroke-miterlimit:4;stroke-dasharray:none;stroke-opacity:1" />
    <path
       d="m 26.772214,231.56616 c 0.07294,0.20681 -0.192411,0.37105 -0.383515,0.50315 -0.221881,0.14454 -0.47634,0.26338 -0.691171,0.41324 -0.05084,0.18067 0.223998,0.27995 0.410963,0.35828 0.262348,0.13741 0.596534,0.18425 0.866016,0.31308 0.228342,0.1575 0.121557,0.39264 0.08628,0.58533 -0.0021,0.18676 -0.02237,0.45191 0.240344,0.56017 0.272737,0.0679 0.451718,-0.16096 0.316085,-0.31175 -0.09865,-0.1749 -0.19529,-0.34971 -0.272976,-0.52943 -0.09893,-0.20743 -0.295419,-0.38351 -0.521454,-0.53346 -0.181066,-0.14713 -0.413713,-0.27066 -0.55209,-0.43931 -0.09411,-0.16679 0.04521,-0.34726 0.219747,-0.46217 0.151557,-0.12061 0.378173,-0.27379 0.314818,-0.44482 -0.0051,-0.008 -0.02179,-0.0251 -0.03305,-0.0123 z"
       id="path1035"
       style="fill:#ffffff;fill-opacity:1;stroke:none;stroke-width:0.0947176;stroke-linecap:round;stroke-linejoin:round;stroke-miterlimit:4;stroke-dasharray:none;stroke-opacity:1" />
    <path
       d="m 27.105156,230.36847 c -0.219789,0.0992 -0.23648,0.32036 -0.130649,0.47124 0.14651,0.13858 0.274069,0.30348 0.511783,0.3808 0.03679,5.1e-4 -0.08579,-0.10239 -0.09452,-0.14281 -0.137395,-0.20931 -0.210958,-0.43465 -0.288723,-0.65704 0.0061,-0.02 0.0976,-0.13404 0.0021,-0.0522 z m 0.5247,0.91494 c -0.0066,0.0378 0.03691,-0.0311 0,0 z m -0.1749,0.0102 c -0.251814,0.0505 -0.362436,0.23339 -0.508191,0.36647 -0.246714,0.25286 -0.590547,0.4563 -0.815944,0.71883 -0.119291,0.19377 0.02372,0.41082 0.224908,0.5517 0.143735,0.11222 0.324292,0.23309 0.555562,0.23493 -0.12984,-0.1608 -0.384864,-0.28058 -0.467805,-0.46689 -0.122308,-0.2695 0.04435,-0.55777 0.296031,-0.76633 0.247916,-0.2148 0.456335,-0.45585 0.766013,-0.63292 0.0088,-0.0129 -0.04556,-0.0198 -0.05056,-0.006 z"
       id="path1037"
       style="fill:#ffffff;fill-opacity:1;stroke:none;stroke-width:0.0947176;stroke-linecap:round;stroke-linejoin:round;stroke-miterlimit:4;stroke-dasharray:none;stroke-opacity:1" />
    <path
       d="m 29.764481,231.63432 c -0.157906,0.13638 0.07487,0.38134 -0.22236,0.46723 -0.211766,0.11739 -0.503152,0.17986 -0.631069,0.35781 -0.354375,0.34863 -0.479777,0.77832 -0.522281,1.19568 -0.03917,0.25413 -0.09484,0.508 -0.202606,0.75312 -0.09055,0.26642 0.103607,0.51999 0.229688,0.76415 0.13617,0.17085 0.0925,0.40026 0.313978,0.5394 0.344534,0.0269 0.443572,-0.27923 0.330834,-0.45386 -0.108236,-0.24181 -0.363194,-0.45689 -0.344683,-0.72137 0.01286,-0.26679 0.121748,-0.52596 0.160215,-0.79117 0.07076,-0.32521 0.102561,-0.65877 0.260329,-0.9713 0.136035,-0.24653 0.353465,-0.46576 0.596494,-0.66755 0.148469,-0.14008 0.122161,-0.37952 0.404834,-0.4398 0.03682,-0.001 0.282952,-0.006 0.160252,-0.007 -0.175005,0.008 -0.371582,-0.0728 -0.533625,-0.0247 z"
       id="path1039"
       style="fill:#ffffff;fill-opacity:1;stroke:none;stroke-width:0.0947176;stroke-linecap:round;stroke-linejoin:round;stroke-miterlimit:4;stroke-dasharray:none;stroke-opacity:1" />
    <path
       d="m 32.522843,232.55796 c -0.255922,0.0973 -0.541365,0.20699 -0.646919,0.40745 -0.254448,0.29841 -0.369977,0.64038 -0.436197,0.98019 -0.09356,0.14543 -0.20626,0.29508 -0.396662,0.39992 -0.186516,0.1253 -0.349253,0.26833 -0.48437,0.42166 -0.173636,0.21089 -0.268087,0.44626 -0.385648,0.67343 -0.193173,0.40559 -0.343061,0.82169 -0.42121,1.2455 0.301983,-0.10174 0.346106,-0.3554 0.475571,-0.54511 0.280534,-0.48066 0.395269,-1.00927 0.803847,-1.45251 0.154527,-0.18412 0.333628,-0.3635 0.412687,-0.57179 -0.07794,-0.1338 0.192177,-0.208 0.203539,-0.34001 0.1789,-0.28611 0.336018,-0.58067 0.583151,-0.84365 0.111411,-0.13094 0.225392,-0.26081 0.338571,-0.39102 z"
       id="path1041"
       style="fill:#ffffff;fill-opacity:1;stroke:none;stroke-width:0.0947176;stroke-linecap:round;stroke-linejoin:round;stroke-miterlimit:4;stroke-dasharray:none;stroke-opacity:1" />
    <path
       d="m 32.678779,234.30811 c -0.242614,0.12207 -0.03996,0.3273 0.02851,0.47514 0.04526,0.1799 -0.186724,0.32015 -0.310092,0.46341 -0.268894,0.27302 -0.297168,0.63786 -0.102356,0.9365 0.09918,0.1792 0.258363,0.39771 0.06786,0.57592 -0.183365,0.22924 -0.369613,0.49314 -0.745957,0.59505 -0.33068,0.0921 -0.704475,0.0479 -1.030454,-0.0331 0.382837,0.10097 0.774753,0.20747 1.190583,0.21171 0.456016,-0.15016 0.797732,-0.4388 0.954576,-0.76706 0.01555,-0.21162 -0.2437,-0.36077 -0.366816,-0.53816 -0.22339,-0.28044 -0.26354,-0.65678 0.02334,-0.92343 0.186898,-0.1854 0.485459,-0.29282 0.726995,-0.43936 0.217458,-0.1571 -0.01337,-0.36347 -0.179115,-0.48865 -0.06783,-0.0428 -0.160195,-0.0876 -0.257081,-0.0682 z"
       id="path1043"
       style="fill:#ffffff;fill-opacity:1;stroke:none;stroke-width:0.0947176;stroke-linecap:round;stroke-linejoin:round;stroke-miterlimit:4;stroke-dasharray:none;stroke-opacity:1" />
    <path
       d="m 32.130899,232.47821 c -0.22271,0.0746 -0.26352,0.27225 -0.20815,0.42224 0.07806,0.16902 0.138478,0.34648 0.102226,0.52511 -0.0278,0.19365 -0.133594,0.3854 -0.311313,0.53744 -0.07288,0.05 -0.169141,0.0913 -0.276047,0.0869 0.494249,0.33245 0.781616,0.83229 0.648616,1.30703 -0.06675,0.33281 -0.0288,0.66995 -0.05753,1.0046 -0.02307,0.20183 -0.0171,0.41571 -0.154889,0.59995 -0.123982,0.15486 -0.299728,0.31345 -0.546161,0.37604 -0.314959,0.0515 -0.636442,-0.0127 -0.935222,-0.0802 0.409,0.1193 0.838199,0.23316 1.289626,0.22765 0.406566,-0.14046 0.657707,-0.43558 0.718564,-0.73949 0.07875,-0.32059 -0.229102,-0.60437 -0.25043,-0.91885 -0.04549,-0.27617 0.158971,-0.52694 0.324184,-0.76751 0.111578,-0.21024 -0.114061,-0.40134 -0.261677,-0.57173 -0.08011,-0.0834 -0.176787,-0.15822 -0.265132,-0.23736 0.326487,-0.0667 0.502759,-0.28913 0.613205,-0.49444 0.157481,-0.37288 0.01673,-0.76299 -0.126435,-1.12666 -0.04747,-0.0831 -0.158722,-0.17238 -0.30344,-0.1508 z"
       id="path1045"
       style="fill:#ffffff;fill-opacity:1;stroke:none;stroke-width:0.0947176;stroke-linecap:round;stroke-linejoin:round;stroke-miterlimit:4;stroke-dasharray:none;stroke-opacity:1" />
    <path
       d="m 28.209345,236.33084 c -0.276979,0.0837 -0.369575,0.34259 -0.212831,0.51476 0.126865,0.17382 0.109092,0.38102 0.151226,0.57073 0.03903,0.28821 0.164395,0.57788 0.419834,0.81112 0.0877,0.0725 0.20353,0.13522 0.341371,0.15226 -0.232629,-0.12228 -0.135446,-0.35964 -0.124391,-0.53401 0.02901,-0.28079 0.209562,-0.5753 0.03561,-0.84943 -0.14959,-0.21529 -0.28593,-0.43748 -0.471738,-0.63932 -0.03082,-0.0266 -0.09335,-0.0457 -0.139077,-0.0261 z m 0.6996,2.04887 c -0.250466,0.0795 -0.241855,0.30072 -0.286241,0.46176 -0.03128,0.18339 -0.0286,0.36881 -0.02141,0.55323 0.271525,-0.0399 0.409559,-0.24609 0.397264,-0.42305 0.01187,-0.19184 -0.117173,-0.37324 -0.106467,-0.5644 l 0.02317,-0.0261 c 0.0065,-0.003 -0.0036,-0.001 -0.0064,-0.001 z"
       id="path1047"
       style="fill:#ffffff;fill-opacity:1;stroke:none;stroke-width:0.0947176;stroke-linecap:round;stroke-linejoin:round;stroke-miterlimit:4;stroke-dasharray:none;stroke-opacity:1" />
    <path
       d="m 28.1672,234.55316 c -0.212834,0.0569 -0.18089,0.2712 -0.237201,0.41685 -0.124607,0.4331 -0.247787,0.86671 -0.420568,1.29228 -0.121431,0.31502 -0.242629,0.63007 -0.351594,0.94727 -0.04838,0.2613 0.03249,0.54287 0.282369,0.7482 0.01354,0.20752 -0.362458,0.21815 -0.552094,0.30738 -0.262816,0.1569 -0.449638,0.36611 -0.574008,0.58857 -0.06152,0.10128 -0.117538,0.20404 -0.176165,0.30609 0.35602,-0.10923 0.56553,-0.34688 0.779674,-0.55825 0.326784,-0.26324 0.869535,-0.34344 1.351288,-0.29998 0.182593,0.0112 0.361364,0.0399 0.541004,0.0636 -0.504961,-0.11564 -0.97598,-0.34856 -1.207442,-0.68585 -0.162403,-0.3557 0.02676,-0.72214 0.158854,-1.06674 0.206835,-0.52696 0.481489,-1.05483 0.460145,-1.60825 0.0404,-0.1613 -0.151062,-0.35896 0.04478,-0.48746 -0.03302,0.0121 -0.06603,0.0242 -0.09905,0.0363 z"
       id="path1049"
       style="fill:#ffffff;fill-opacity:1;stroke:none;stroke-width:0.0947176;stroke-linecap:round;stroke-linejoin:round;stroke-miterlimit:4;stroke-dasharray:none;stroke-opacity:1" />
    <path
       d="m 27.450743,232.9886 c 0.03368,-0.0618 0.09834,-0.12527 0.07376,-0.1943 -0.02459,0.0648 -0.04916,0.12954 -0.07376,0.1943 z m -0.141186,0.2407 c -0.09399,0.0328 0.05751,0.0247 0,0 z m -0.04215,0.0667 c -0.132095,0.29988 -0.118073,0.62048 -0.05119,0.92744 0.04985,0.18184 0.0083,0.36674 -0.07324,0.54103 -0.09997,0.23636 -0.217496,0.47013 -0.268512,0.71467 -0.126532,0.45852 -0.262567,0.91574 -0.403598,1.37226 0.280119,-0.13977 0.588565,-0.30662 0.64692,-0.55681 0.116963,-0.49115 0.162244,-1.00265 0.476891,-1.45874 0.122287,-0.13404 0.30492,-0.29813 0.135529,-0.45328 -0.161333,-0.34531 -0.199131,-0.7122 -0.367983,-1.05612 -0.01665,-0.0225 -0.0577,-0.0408 -0.09483,-0.0304 z"
       id="path1051"
       style="fill:#ffffff;fill-opacity:1;stroke:none;stroke-width:0.0947176;stroke-linecap:round;stroke-linejoin:round;stroke-miterlimit:4;stroke-dasharray:none;stroke-opacity:1" />
    <path
       d="m 30.166961,231.93446 c -0.132847,0.0684 -0.267699,0.14415 -0.434089,0.16819 0.190928,-0.0109 0.354309,-0.0932 0.474126,-0.19139 l -0.03992,0.0232 z m -0.434089,0.16819 c 0.305142,0.0925 0.368333,0.3459 0.412898,0.54881 0.05935,0.33038 0.01414,0.66369 0.02119,0.99545 -0.04003,0.0791 0.01025,0.18744 0.142994,0.10076 0.247734,-0.0651 0.458107,-0.25772 0.366955,-0.44438 -0.03771,-0.34167 -0.107124,-0.70646 -0.430057,-0.98215 -0.119234,-0.11434 -0.299484,-0.21812 -0.513981,-0.21845 z"
       id="path1053"
       style="fill:#ffffff;fill-opacity:1;stroke:none;stroke-width:0.0947176;stroke-linecap:round;stroke-linejoin:round;stroke-miterlimit:4;stroke-dasharray:none;stroke-opacity:1" />
    <path
       d="m 28.698222,230.38731 c -0.273968,0.0847 -0.405692,0.2896 -0.490985,0.4756 -0.163941,0.18029 -0.25737,0.42491 -0.08048,0.61737 0.290448,0.34916 0.441012,0.74818 0.470314,1.14872 0.04922,0.20316 -0.01122,0.4158 0.09061,0.61336 0.314794,0.0625 0.484281,-0.19966 0.503967,-0.37546 0.05356,-0.19848 0.14992,-0.39016 0.249342,-0.57886 0.07985,-0.2062 -0.116431,-0.38839 -0.26058,-0.55528 -0.226518,-0.27066 -0.261041,-0.59347 -0.218404,-0.89836 0.02956,-0.1426 0.0242,-0.44904 -0.263789,-0.44709 z"
       id="path1055"
       style="fill:#ffffff;fill-opacity:1;stroke:none;stroke-width:0.0947176;stroke-linecap:round;stroke-linejoin:round;stroke-miterlimit:4;stroke-dasharray:none;stroke-opacity:1" />
    <path
       d="m 30.68534,231.61401 c -0.228554,0.0413 -0.600628,0.0306 -0.649027,0.2378 -0.04706,0.0672 -0.09412,0.13437 -0.141184,0.20155 0.297648,-0.0448 0.431476,-0.2607 0.682742,-0.3596 0.02487,-0.007 0.222682,-0.10336 0.107469,-0.0797 z m -0.887145,0.50025 c 0.387457,0.20096 0.528696,0.54416 0.583704,0.8613 0.05224,0.25707 0.08184,0.51588 0.115896,0.77429 0.108206,0.15777 0.478077,0.0959 0.535237,-0.058 0.0076,-0.19897 -0.111811,-0.39322 -0.134835,-0.59348 -0.07649,-0.30342 -0.233514,-0.61735 -0.585838,-0.82171 -0.156149,-0.0908 -0.348281,-0.15035 -0.549986,-0.17255 z"
       id="path1057"
       style="fill:#ffffff;fill-opacity:1;stroke:none;stroke-width:0.0947176;stroke-linecap:round;stroke-linejoin:round;stroke-miterlimit:4;stroke-dasharray:none;stroke-opacity:1" />
    <path
       d="m 31.507158,234.0268 c 0.01501,0.16002 0.275336,0.24947 0.278413,0.4183 0.189071,0.34565 0.208044,0.72022 0.193607,1.08535 -0.09963,0.0639 0.114873,0.16259 0.10747,0.0464 0.122583,-0.19567 0.326666,-0.39127 0.282368,-0.61479 -0.07987,-0.27298 -0.317915,-0.51256 -0.590424,-0.71315 -0.196994,-0.097 0.141764,-0.20518 0.234354,-0.27409 0.198149,-0.11672 0.235039,-0.30757 0.35607,-0.46132 -0.287286,0.1711 -0.574571,0.34221 -0.861858,0.5133 z"
       id="path1059"
       style="fill:#ffffff;fill-opacity:1;stroke:none;stroke-width:0.0947176;stroke-linecap:round;stroke-linejoin:round;stroke-miterlimit:4;stroke-dasharray:none;stroke-opacity:1" />
    <path
       d="m 32.149864,233.91515 c -0.212303,0.0774 -0.446856,0.15799 -0.695385,0.1363 0.238671,0.10768 0.553614,0.13652 0.735423,0.30015 0.169912,0.16017 0.451665,0.27264 0.522593,0.4756 0.0052,0.19439 -0.247886,0.32092 -0.364252,0.48248 -0.269444,0.30151 -0.204477,0.70013 0.07238,0.9876 0.157968,0.18534 0.426738,0.34137 0.456242,0.56718 -0.0057,0.26557 -0.184006,0.52555 -0.480449,0.696 -0.171292,0.0981 -0.05028,0.29242 0.145399,0.32479 0.261664,0.0204 0.411464,-0.18498 0.5208,-0.31943 0.100317,-0.19393 0.256972,-0.38678 0.23991,-0.59841 -0.02795,-0.22357 -0.36809,-0.31814 -0.561181,-0.46936 -0.304164,-0.19166 -0.570883,-0.45265 -0.555185,-0.74825 2.71e-4,-0.25903 0.201337,-0.50582 0.504608,-0.65582 0.179922,-0.10477 0.454427,-0.17202 0.529497,-0.3382 0.02981,-0.21273 -0.288418,-0.3458 -0.522514,-0.43752 -0.252141,-0.0829 -0.190511,-0.33739 -0.434485,-0.40846 -0.0381,-0.007 -0.07632,7.3e-4 -0.113395,0.005 z m 0.195972,3.99041 c -0.192599,0.17088 -0.167516,0.41423 -0.383515,0.57564 -0.131351,0.12616 -0.262701,0.2523 -0.394052,0.37845 0.551389,-0.12921 0.911154,-0.539 0.863964,-0.9338 -0.007,-0.024 -0.05959,-0.0365 -0.0864,-0.0202 z"
       id="path1061"
       style="fill:#ffffff;fill-opacity:1;stroke:none;stroke-width:0.0947176;stroke-linecap:round;stroke-linejoin:round;stroke-miterlimit:4;stroke-dasharray:none;stroke-opacity:1" />
    <path
       d="m 31.319615,234.02101 c 0.160451,0.10605 -0.04473,0.25313 -0.06717,0.3893 -0.120877,0.24444 -0.255767,0.49138 -0.262935,0.75295 -0.04663,0.48271 0.106445,0.98182 -0.12533,1.45067 -0.01208,0.0553 -0.159595,0.21829 -0.0044,0.11155 0.24594,-0.13595 0.504965,-0.27359 0.660085,-0.46712 -0.01765,-0.49388 -0.05954,-0.99057 0.04004,-1.4819 0.0083,-0.22839 0.07846,-0.47311 -0.07376,-0.68732 -0.04859,-0.0393 -0.07299,-0.11064 -0.166471,-0.0682 z"
       id="path1063"
       style="fill:#ffffff;fill-opacity:1;stroke:none;stroke-width:0.0947176;stroke-linecap:round;stroke-linejoin:round;stroke-miterlimit:4;stroke-dasharray:none;stroke-opacity:1" />
    <path
       sodipodi:nodetypes="ccccc"
       d="m 26.347283,268.44856 c 4.374435,-8.2e-4 8.542627,-2.09262 12.675528,-0.40269 l 0.268457,2.02926 c -4.147784,-1.78592 -8.523044,0.12722 -12.943985,0.29083 z"
       style="fill:url(#linearGradient939);fill-opacity:1;stroke-width:0.171275;stroke-linecap:round;stroke-linejoin:round;stroke-miterlimit:4;stroke-dasharray:none"
       id="rect931" />
    <ellipse
       transform="matrix(0.99878495,0.04928116,-0.0474972,0.99887137,0,0)"
       ry="8.5597448"
       rx="4.5965385"
       cy="276.89197"
       cx="50.500053"
       id="path944"
       style="fill:url(#radialGradient953);fill-opacity:1;stroke-width:0.191192;stroke-linecap:round;stroke-linejoin:round;stroke-miterlimit:4;stroke-dasharray:none" />
    <path
       sodipodi:nodetypes="ccccccccc"
       id="path911"
       d="m 38.773573,266.7237 3.022453,0.73328 c 5.339665,-1.21907 5.517267,0.9775 6.076564,4.1471 0.353959,1.84555 -0.42818,3.38122 -1.583113,4.54067 l -0.898437,-1.64552 c -0.940884,-0.97287 -2.252393,-1.86824 -2.471863,-2.12023 -2.515988,-1.01489 -3.962901,-1.93119 -3.566576,-2.67745 L 38.4427,266.64098 Z"
       style="fill:url(#radialGradient919);fill-opacity:1;stroke:#000000;stroke-width:0.0862088;stroke-linecap:butt;stroke-linejoin:miter;stroke-miterlimit:4;stroke-dasharray:none;stroke-opacity:1" />
    <path
       sodipodi:nodetypes="ccccccccc"
       id="path921"
       d="m 26.589501,270.106 4.829785,0.0953 c 3.195887,-0.58336 6.256009,0.93762 9.337954,2.12034 l 0.827744,-0.53692 c 1.607611,0.29101 3.593198,1.19843 4.66951,4.31866 0.267827,1.50696 -0.709574,2.04988 -2.285793,2.1292 -3.594681,0.44763 -7.124898,1.01807 -10.570688,1.74935 -1.80022,0.40286 -3.600442,1.06248 -5.400662,-0.0194 -3.034015,-3.35982 -2.427764,-6.61414 -1.40785,-9.85646 z"
       style="fill:url(#radialGradient929);fill-opacity:1;stroke:#000000;stroke-width:0.171275;stroke-linecap:butt;stroke-linejoin:miter;stroke-miterlimit:4;stroke-dasharray:none;stroke-opacity:1" />
    <g
       transform="matrix(1.0789016,0,0,1.0789016,13.316122,-21.930191)"
       id="g1005">
      <path
         style="fill:#bea32d;fill-opacity:1;stroke:none;stroke-width:0.264583px;stroke-linecap:butt;stroke-linejoin:miter;stroke-opacity:1"
         d="m 11.095434,288.16467 1.271476,-0.0666 4.345238,1.13452 1.331237,0.43265 c 0.849144,1.26697 1.777015,2.49457 2.115231,4.017 l -0.465932,0.76546 c -1.00072,0.61565 -1.598659,0.26463 -2.163261,-0.1664 -0.921239,0.80328 -1.919999,0.52128 -2.928721,0.0998 -0.798742,0.22051 -1.597484,0.84857 -2.396226,-0.26624 -1.682986,-1.9834 -1.817414,-3.96679 -1.109042,-5.95019 z"
         id="path957"
         sodipodi:nodetypes="cccccccccc" />
      <ellipse
         style="fill:url(#linearGradient987);fill-opacity:1;stroke:none;stroke-width:0.15875;stroke-linecap:round;stroke-linejoin:round;stroke-miterlimit:4;stroke-dasharray:none"
         id="path959"
         cx="-95.553772"
         cy="276.24451"
         rx="1.6549987"
         ry="2.7945735"
         transform="rotate(-21.591295)" />
      <ellipse
         transform="rotate(-21.591295)"
         ry="2.7945735"
         rx="1.6549987"
         cy="277.43848"
         cx="-92.908432"
         id="ellipse961"
         style="fill:url(#linearGradient971);fill-opacity:1;stroke:none;stroke-width:0.15875;stroke-linecap:round;stroke-linejoin:round;stroke-miterlimit:4;stroke-dasharray:none" />
      <ellipse
         style="fill:url(#linearGradient979);fill-opacity:1;stroke:none;stroke-width:0.15875;stroke-linecap:round;stroke-linejoin:round;stroke-miterlimit:4;stroke-dasharray:none"
         id="ellipse963"
         cx="-124.29932"
         cy="264.86661"
         rx="1.6549987"
         ry="2.7945735"
         transform="rotate(-28.666925)" />
      <path
         style="fill:url(#linearGradient998);fill-opacity:1;stroke:none;stroke-width:0.264583px;stroke-linecap:butt;stroke-linejoin:miter;stroke-opacity:1"
         d="m 11.04458,288.27371 c 0.351684,-0.34232 0.651885,-0.7979 1.43108,-0.19969 l 4.662729,1.20152 1.297956,0.76546 -2.229822,0.8653 -2.16326,0.36609 -3.394654,-0.13312 z"
         id="path990"
         sodipodi:nodetypes="cccccccc" />
    </g>
  </g>
</svg>
