<?xml version="1.0" encoding="UTF-8" standalone="no"?>
<!-- Created with Inkscape (http://www.inkscape.org/) -->

<svg
   xmlns:dc="http://purl.org/dc/elements/1.1/"
   xmlns:cc="http://creativecommons.org/ns#"
   xmlns:rdf="http://www.w3.org/1999/02/22-rdf-syntax-ns#"
   xmlns:svg="http://www.w3.org/2000/svg"
   xmlns="http://www.w3.org/2000/svg"
   xmlns:xlink="http://www.w3.org/1999/xlink"
   xmlns:sodipodi="http://sodipodi.sourceforge.net/DTD/sodipodi-0.dtd"
   xmlns:inkscape="http://www.inkscape.org/namespaces/inkscape"
   id="svg2"
   sodipodi:version="0.32"
   inkscape:version="0.92.5 (2060ec1f9f, 2020-04-08)"
   width="256"
   height="256"
   sodipodi:docname="folder-christ.svg"
   inkscape:output_extension="org.inkscape.output.svg.inkscape"
   version="1.1">
  <metadata
     id="metadata7">
    <rdf:RDF>
      <cc:Work>
        <dc:format>image/svg+xml</dc:format>
        <dc:type
           rdf:resource="http://purl.org/dc/dcmitype/StillImage" />
      </cc:Work>
    </rdf:RDF>
  </metadata>
  <defs
     id="defs5">
    <filter
       inkscape:collect="always"
       id="filter4280"
       x="-0.035"
       width="1.07"
       y="-0.018"
       height="1.037"
       color-interpolation-filters="sRGB">
      <feGaussianBlur
         inkscape:collect="always"
         stdDeviation="1.30516"
         id="feGaussianBlur4282" />
    </filter>
    <linearGradient
       inkscape:collect="always"
       id="linearGradient4167">
      <stop
         id="stop4169"
         stop-color="#adadad"
         stop-opacity="0.624" />
      <stop
         offset="1"
         id="stop4171"
         stop-color="#ffffff"
         stop-opacity="0.973" />
    </linearGradient>
    <linearGradient
       id="linearGradient4223"
       inkscape:collect="always">
      <stop
         id="stop4225"
         stop-color="#bebebe"
         stop-opacity="0.803" />
      <stop
         id="stop4227"
         offset="1"
         stop-color="#9f9f9f"
         stop-opacity="0.732" />
    </linearGradient>
    <linearGradient
       id="linearGradient4211"
       inkscape:collect="always">
      <stop
         id="stop4213"
         stop-color="#9f9f9f"
         stop-opacity="0.634" />
      <stop
         id="stop4215"
         offset="1"
         stop-color="#696969"
         stop-opacity="0" />
    </linearGradient>
    <linearGradient
       id="linearGradient4171"
       inkscape:collect="always">
      <stop
         id="stop4173"
         stop-color="#b2b2b2"
         stop-opacity="0.624" />
      <stop
         id="stop4175"
         offset="1"
         stop-color="#ffffff"
         stop-opacity="0.698" />
    </linearGradient>
    <linearGradient
       id="linearGradient4142"
       inkscape:collect="always">
      <stop
         id="stop4144"
         stop-color="#909090"
         stop-opacity="0.519" />
      <stop
         id="stop4146"
         offset="1"
         stop-color="#696969"
         stop-opacity="0" />
    </linearGradient>
    <linearGradient
       gradientUnits="userSpaceOnUse"
       y2="324.36"
       x2="278.75"
       y1="63.25"
       x1="165.74"
       id="linearGradient4148"
       xlink:href="#linearGradient4142"
       inkscape:collect="always"
       gradientTransform="matrix(0.77128144,0,0,0.77128144,-79.667927,-25.163886)" />
    <linearGradient
       spreadMethod="reflect"
       gradientUnits="userSpaceOnUse"
       y2="114.16"
       x2="387.93"
       y1="106.85"
       x1="379.78"
       id="linearGradient4177"
       xlink:href="#linearGradient4167"
       inkscape:collect="always"
       gradientTransform="matrix(0.77128144,0,0,0.77128144,-79.667927,-25.163886)" />
    <linearGradient
       gradientTransform="matrix(0.77128144,0,0,0.77128144,-58.99102,-45.512588)"
       y2="114.16"
       x2="387.93"
       y1="108.46"
       x1="381.27"
       spreadMethod="reflect"
       gradientUnits="userSpaceOnUse"
       id="linearGradient4207"
       xlink:href="#linearGradient4171"
       inkscape:collect="always" />
    <linearGradient
       gradientUnits="userSpaceOnUse"
       y2="125.1"
       x2="281.1"
       y1="61.711"
       x1="284.7"
       id="linearGradient4217"
       xlink:href="#linearGradient4211"
       inkscape:collect="always"
       gradientTransform="matrix(0.77128144,0,0,0.77128144,-79.667927,-25.163886)" />
    <linearGradient
       gradientUnits="userSpaceOnUse"
       y2="103.09"
       x2="255.7"
       y1="93.26"
       x1="259.02"
       id="linearGradient4229"
       xlink:href="#linearGradient4223"
       inkscape:collect="always"
       gradientTransform="matrix(0.77128144,0,0,0.77128144,-79.667927,-25.163886)" />
    <linearGradient
       gradientUnits="userSpaceOnUse"
       y2="117.29"
       x2="258.99"
       y1="102.54"
       x1="262.84"
       id="linearGradient4237"
       xlink:href="#linearGradient4223"
       inkscape:collect="always"
       gradientTransform="matrix(0.77128144,0,0,0.77128144,-79.667927,-25.163886)" />
    <filter
       height="1.136"
       y="-0.068"
       width="1.049"
       x="-0.024"
       id="filter4257"
       inkscape:collect="always"
       color-interpolation-filters="sRGB">
      <feGaussianBlur
         id="feGaussianBlur4259"
         inkscape:collect="always" />
    </filter>
    <filter
       inkscape:collect="always"
       style="color-interpolation-filters:sRGB"
       id="filter872"
       x="-0.018739691"
       width="1.0374794"
       y="-0.033365966"
       height="1.0667319">
      <feGaussianBlur
         inkscape:collect="always"
         stdDeviation="2.375008"
         id="feGaussianBlur874" />
    </filter>
  </defs>
  <sodipodi:namedview
     inkscape:window-height="1056"
     inkscape:window-width="1920"
     inkscape:pageshadow="2"
     inkscape:pageopacity="0.0"
     guidetolerance="10.0"
     gridtolerance="10.0"
     objecttolerance="10.0"
     borderopacity="1.0"
     bordercolor="#666666"
     pagecolor="#ffffff"
     id="base"
     showgrid="false"
     inkscape:zoom="3.4023438"
     inkscape:cx="128"
     inkscape:cy="116.2434"
     inkscape:window-x="0"
     inkscape:window-y="0"
     inkscape:current-layer="svg2"
     inkscape:window-maximized="1" />
  <path
     style="fill:#000000;fill-opacity:0.74074072;fill-rule:evenodd;stroke:none;stroke-width:1;stroke-linecap:butt;stroke-linejoin:miter;stroke-opacity:1;filter:url(#filter872)"
     sodipodi:nodetypes="ccccccc"
     inkscape:connector-curvature="0"
     id="path4150"
     d="m 177.77778,215.83334 -80.555558,82.4074 255.555558,88.42593 38.75029,-40.87068 c 4.63488,-1.3015 9.96817,-1.38077 9.86082,-10.98118 L 396.29629,282.5 Z"
     transform="matrix(0.77128144,0,0,0.77128144,-64.972175,-42.210958)" />
  <path
     style="fill:#000000;fill-opacity:0.51399997;fill-rule:evenodd;stroke:none;stroke-width:1;stroke-linecap:butt;stroke-linejoin:miter;stroke-opacity:1;filter:url(#filter4257)"
     sodipodi:nodetypes="ccccccc"
     inkscape:connector-curvature="0"
     id="path4239"
     d="m 137.15847,253.33333 1.0929,10.92897 c 1.69466,2.56439 1.62485,5.1824 6.55737,7.10382 l 234.9905,77.59563 c 4.36168,2.76045 7.27409,1.93611 10.91114,-1.0929 l 16.39344,-17.48633 z"
     transform="matrix(0.77128144,0,0,0.77128144,-81.675743,-34.307347)" />
  <path
     style="fill:#000000;fill-opacity:0.73000004;fill-rule:evenodd;stroke:none;stroke-width:0.77128142;stroke-linecap:butt;stroke-linejoin:miter;stroke-opacity:1"
     sodipodi:nodetypes="ccccsccccccc"
     inkscape:connector-curvature="0"
     id="path4198"
     d="M 33.152492,160.92828 28.229426,26.774535 c -0.0415,-4.965497 1.927609,-7.263204 6.153838,-6.153842 L 138.58831,49.338619 c 6.2678,1.793796 13.73603,-0.976836 14.76922,-11.897427 0.72195,-7.630809 3.6025,-13.628252 14.35896,-11.48717 l 66.05123,15.179475 c 4.94499,1.165626 6.02961,3.430333 5.74358,9.025634 l -1.64102,178.051139 -4.10256,4.51282 -196.573991,-65.05114 z" />
  <path
     style="fill:url(#linearGradient4217);fill-opacity:1;fill-rule:evenodd;stroke:none;stroke-width:0.77128142;stroke-linecap:butt;stroke-linejoin:miter;stroke-opacity:1"
     d="M 33.152492,160.92828 28.229426,26.774535 c -0.0415,-4.965497 1.927609,-7.263204 6.153838,-6.153842 L 138.58831,49.338619 c 6.2678,1.793796 13.73603,-0.976836 14.76922,-11.897427 0.72195,-7.630809 3.6025,-13.628252 14.35896,-11.48717 l 66.05123,15.179475 c 4.94499,1.165626 6.02961,3.430333 5.74358,9.025634 l -1.64102,178.051139 -4.10256,4.51282 -196.573991,-65.05114 z"
     id="path4209"
     inkscape:connector-curvature="0"
     sodipodi:nodetypes="ccccsccccccc" />
  <path
     style="fill:url(#linearGradient4229);fill-opacity:1;fill-rule:evenodd;stroke:#cecece;stroke-width:0.77128142;stroke-linecap:butt;stroke-linejoin:miter;stroke-opacity:0.70499998"
     sodipodi:nodetypes="ccccc"
     d="M 30.334507,24.400429 236.43102,74.976265 237.27395,225.0179 39.185278,153.3688 Z"
     id="path4221"
     inkscape:connector-curvature="0" />
  <path
     style="fill:url(#linearGradient4237);fill-opacity:1;fill-rule:evenodd;stroke:#cecece;stroke-width:0.77128142;stroke-linecap:butt;stroke-linejoin:miter;stroke-opacity:0.70499998"
     inkscape:connector-curvature="0"
     id="path4219"
     d="M 25.698389,31.143873 231.7949,81.71971 235.16663,227.54669 34.549159,160.11225 Z" />
  <path
     style="fill:#000000;fill-opacity:0.76999996;fill-rule:evenodd;stroke:none;stroke-width:0.77128142;stroke-linecap:butt;stroke-linejoin:miter;stroke-opacity:1"
     sodipodi:nodetypes="cccscccccccc"
     inkscape:connector-curvature="0"
     id="path4138"
     d="m 9.9578301,46.322477 c 0.8729519,-3.50208 3.5747579,-6.967918 8.2429079,-5.81952 L 121.72223,70.246482 c 4.99904,1.262001 12.62037,0.256405 16.06836,-8.569793 3.0919,-7.914682 8.38686,-14.484299 19.63911,-12.497614 l 52.84707,10.712244 c 9.45078,2.53757 9.22996,9.009076 9.99809,14.282983 l 9.64101,158.541188 c 0.50115,5.74052 -4.4354,10.19097 -9.99809,7.85564 L 32.096469,177.3689 c -3.796371,-1.20267 -6.89521,-2.38872 -7.141496,-7.85564 z" />
  <path
     style="fill:url(#linearGradient4148);fill-opacity:1;fill-rule:evenodd;stroke:none;stroke-width:0.77128142;stroke-linecap:butt;stroke-linejoin:miter;stroke-opacity:1"
     d="m 9.9578301,46.322477 c 0.8729519,-3.50208 3.5747579,-6.967918 8.2429079,-5.81952 L 121.72223,70.246482 c 4.99904,1.262001 12.62037,0.256405 16.06836,-8.569793 3.0919,-7.914682 8.38686,-14.484299 19.63911,-12.497614 l 52.84707,10.712244 c 9.45078,2.53757 9.22996,9.009076 9.99809,14.282983 l 9.64101,158.541188 c 0.50115,5.74052 -4.4354,10.19097 -9.99809,7.85564 L 30.651797,176.74728 c -3.262859,-2.36464 -4.767215,-3.58321 -5.65007,-10.40301 C 20.850462,134.27695 12.785356,77.308068 9.9578301,46.322477 Z"
     id="path4140"
     inkscape:connector-curvature="0"
     sodipodi:nodetypes="cccsccccccsc" />
  <path
     style="fill:#b5b5b5;fill-opacity:1;fill-rule:evenodd;stroke:none;stroke-width:0.77128142;stroke-linecap:butt;stroke-linejoin:miter;stroke-opacity:1"
     id="path4164"
     d="m 20.827638,36.351834 c -2.882078,-0.04577 -4.83686,1.83134 -5.909643,4.129068 0.960307,-0.255232 2.050992,-0.280355 3.282458,0.0226 L 121.7224,70.246035 c 4.24097,1.070631 10.36772,0.507294 14.23406,-5.076598 -3.32135,1.840146 -7.06976,1.876466 -9.94984,1.149394 L 22.486194,36.574783 c -0.583521,-0.143549 -1.136221,-0.214652 -1.658556,-0.222949 z m 136.938602,8.54134 c -5.48141,0.02217 -9.25013,2.431184 -11.9654,5.968392 2.95188,-1.78815 6.72478,-2.548625 11.62947,-1.682658 l 52.84634,10.712072 c 9.45078,2.53757 9.22991,9.00987 9.99804,14.283777 l 9.64101,158.540513 c 0.13521,1.54869 -0.13559,2.99659 -0.69746,4.24958 3.15932,-0.99359 5.32294,-4.28514 4.9832,-8.17679 L 224.56042,70.246035 c -0.76813,-5.273907 -0.54726,-11.744689 -9.99804,-14.282259 L 161.71454,45.251699 c -1.40653,-0.248335 -2.72059,-0.363489 -3.9483,-0.358525 z"
     inkscape:connector-curvature="0" />
  <path
     style="fill:url(#linearGradient4177);fill-opacity:1;fill-rule:evenodd;stroke:none;stroke-width:0.77128142;stroke-linecap:butt;stroke-linejoin:miter;stroke-opacity:1"
     sodipodi:nodetypes="ccccc"
     inkscape:connector-curvature="0"
     d="m 210.27665,59.89098 c 9.45078,2.53757 9.22991,9.00987 9.99804,14.283777 1.68451,-1.587513 2.41736,-2.092756 4.28573,-3.928722 -0.76813,-5.273907 -0.54726,-11.744689 -9.99804,-14.282259 -1.84938,1.764484 -2.30798,2.158632 -4.28573,3.927204 z"
     id="path4169" />
  <path
     style="fill:#b0b0b0;fill-opacity:1;fill-rule:evenodd;stroke:none;stroke-width:0.77128142;stroke-linecap:butt;stroke-linejoin:miter;stroke-opacity:1"
     id="path4200"
     d="m 37.49304,16.741401 c -2.062237,0.0866 -3.299596,1.390169 -3.77958,3.731376 0.217494,0.04039 0.439415,0.08701 0.670352,0.147628 L 138.58815,49.338587 c 4.17382,1.194514 8.87772,0.360278 11.86146,-3.552113 -2.13786,0.618565 -4.4438,0.561233 -6.61012,-0.05875 L 39.635151,17.011049 C 38.842736,16.803043 38.128376,16.71472 37.49304,16.741401 Z m 131.79874,5.16849 c -4.16388,-0.09761 -6.7384,1.428929 -8.34098,3.883522 1.80998,-0.400198 4.03202,-0.38287 6.76528,0.161186 l 66.05151,15.178578 c 4.94499,1.165626 6.02997,3.431102 5.74394,9.026403 l -1.64199,178.05002 -0.36605,0.40221 1.51545,0.50163 4.10195,-4.5132 1.64198,-178.051522 c 0.28603,-5.595301 -0.79895,-7.859271 -5.74393,-9.024897 L 172.96741,22.343737 c -1.34455,-0.267636 -2.56603,-0.407835 -3.67563,-0.433846 z"
     inkscape:connector-curvature="0" />
  <path
     style="fill:url(#linearGradient4207);fill-opacity:1;fill-rule:evenodd;stroke:none;stroke-width:0.77128142;stroke-linecap:butt;stroke-linejoin:miter;stroke-opacity:1"
     id="path4205"
     d="m 231.25407,40.503914 c 9.56551,2.211569 8.26547,3.84444 8.25507,14.243706 1.68451,-1.587513 3.27883,-2.894117 5.1472,-4.730083 0.37381,-9.36086 0.77499,-11.564381 -9.17664,-13.300588 -1.84939,1.764483 -2.24788,2.018393 -4.22563,3.786965 z"
     inkscape:connector-curvature="0"
     sodipodi:nodetypes="ccccc" />
  <path
     inkscape:connector-curvature="0"
     id="path3885"
     d="m 104.79281,41.613236 0,29 -35.812506,0 0,19.218755 35.812506,0 0,122.843749 19.21875,0 0,-122.843749 34.9375,0 0,-19.218755 -34.9375,0 0,-29 -19.21875,0 z"
     fill="#262626"
     filter="url(#filter4280)"
     stroke="none"
     fill-opacity="0.705" />
  <path
     d="m 114.35921,35.891847 0,29 -35.8125,0 0,19.21875 35.8125,0 0,122.843753 19.21875,0 0,-122.843753 34.9375,0 0,-19.21875 -34.9375,0 0,-29 -19.21875,0 z"
     id="rect3880"
     inkscape:connector-curvature="0"
     style="fill:#000000;fill-opacity:1;stroke:#4f4f4f;stroke-opacity:1" />
  <g
     id="text4194"
     transform="translate(38.818095,-78.362802)"
     font-style="normal"
     word-spacing="0"
     line-height="125%"
     font-weight="bold"
     font-stretch="normal"
     letter-spacing="0"
     font-variant="normal"
     font-size="7.5"
     stroke-opacity="1"
     font-family="STIXIntegralsSm"
     fill="#000000"
     stroke="none"
     stroke-linejoin="miter"
     fill-opacity="1"
     stroke-linecap="butt"
     stroke-width="1">
    <path
       d="m -33.815041,58.840733 -2.204589,0 -0.347901,0.996093 -1.417236,0 2.025146,-5.467529 1.680909,0 2.025146,5.467529 -1.417236,0 -0.344239,-0.996093 z m -1.853027,-1.014405 1.497803,0 -0.747071,-2.175293 -0.750732,2.175293 z"
       id="path4199"
       inkscape:connector-curvature="0" />
    <path
       d="m -31.33213,54.369297 2.340087,0 q 1.043702,0 1.600342,0.465088 0.560303,0.461426 0.560303,1.318359 0,0.860596 -0.560303,1.325684 -0.55664,0.461426 -1.600342,0.461426 l -0.930175,0 0,1.896972 -1.409912,0 0,-5.467529 z m 1.409912,1.021729 0,1.527099 0.780029,0 q 0.410156,0 0.633545,-0.197754 0.223389,-0.201416 0.223389,-0.567627 0,-0.366211 -0.223389,-0.563965 -0.223389,-0.197753 -0.633545,-0.197753 l -0.780029,0 z"
       id="path4201"
       inkscape:connector-curvature="0" />
  </g>
</svg>
