<?xml version="1.0" encoding="UTF-8" standalone="no"?>
<!-- Created with Inkscape (http://www.inkscape.org/) -->

<svg
   xmlns:dc="http://purl.org/dc/elements/1.1/"
   xmlns:cc="http://creativecommons.org/ns#"
   xmlns:rdf="http://www.w3.org/1999/02/22-rdf-syntax-ns#"
   xmlns:svg="http://www.w3.org/2000/svg"
   xmlns="http://www.w3.org/2000/svg"
   xmlns:xlink="http://www.w3.org/1999/xlink"
   xmlns:sodipodi="http://sodipodi.sourceforge.net/DTD/sodipodi-0.dtd"
   xmlns:inkscape="http://www.inkscape.org/namespaces/inkscape"
   id="svg2"
   sodipodi:version="0.32"
   inkscape:version="0.91 r13725"
   width="256"
   height="256"
   sodipodi:docname="folder-tales.svg"
   version="1.1">
  <metadata
     id="metadata7">
    <rdf:RDF>
      <cc:Work>
        <dc:format>image/svg+xml</dc:format>
        <dc:type
           rdf:resource="http://purl.org/dc/dcmitype/StillImage" />
        <dc:creator>
          <cc:Agent>
            <dc:title />
          </cc:Agent>
        </dc:creator>
        <dc:rights>
          <cc:Agent>
            <dc:title />
          </cc:Agent>
        </dc:rights>
        <dc:publisher>
          <cc:Agent>
            <dc:title />
          </cc:Agent>
        </dc:publisher>
        <cc:license
           rdf:resource="http://artlibre.org/licence.php/lalgb.html" />
        <dc:title />
      </cc:Work>
      <cc:License
         rdf:about="http://artlibre.org/licence.php/lalgb.html">
        <cc:permits
           rdf:resource="http://web.resource.org/cc/Reproduction" />
        <cc:permits
           rdf:resource="http://web.resource.org/cc/Distribution" />
        <cc:permits
           rdf:resource="http://web.resource.org/cc/DerivativeWorks" />
        <cc:requires
           rdf:resource="http://web.resource.org/cc/ShareAlike" />
        <cc:requires
           rdf:resource="http://web.resource.org/cc/Notice" />
        <cc:requires
           rdf:resource="http://web.resource.org/cc/Attribution" />
      </cc:License>
    </rdf:RDF>
  </metadata>
  <defs
     id="defs5">
    <linearGradient
       id="linearGradient4246">
      <stop
         id="stop4248"
         stop-color="#c17d1b"
         stop-opacity="1" />
      <stop
         offset="0.939"
         id="stop4252"
         stop-color="#ece3d6"
         stop-opacity="1" />
      <stop
         id="stop4250"
         offset="1"
         stop-color="#f0ba71"
         stop-opacity="0" />
    </linearGradient>
    <linearGradient
       id="linearGradient2935">
      <stop
         id="stop4238"
         stop-color="#c17d1b"
         stop-opacity="1" />
      <stop
         offset="1"
         id="stop4240"
         stop-color="#f0ba71"
         stop-opacity="1" />
    </linearGradient>
    <linearGradient
       id="linearGradient4224">
      <stop
         id="stop4226"
         stop-color="#f4edd3"
         stop-opacity="0" />
      <stop
         id="stop4232"
         offset="0.884"
         stop-color="#d2c2a9"
         stop-opacity="0" />
      <stop
         offset="0.928"
         id="stop4228"
         stop-color="#dcc29c"
         stop-opacity="0.851" />
      <stop
         offset="1"
         id="stop4230"
         stop-color="#907043"
         stop-opacity="0" />
    </linearGradient>
    <linearGradient
       id="linearGradient4200">
      <stop
         id="stop4214"
         stop-color="#f4edd3"
         stop-opacity="0" />
      <stop
         id="stop4216"
         offset="0.926"
         stop-color="#ab8856"
         stop-opacity="0" />
      <stop
         id="stop4218"
         offset="1"
         stop-color="#fff5e7"
         stop-opacity="1" />
    </linearGradient>
    <linearGradient
       id="linearGradient4170">
      <stop
         id="stop4172"
         stop-color="#f4edd3"
         stop-opacity="0" />
      <stop
         id="stop4174"
         offset="0.432"
         stop-color="#f3ddba"
         stop-opacity="1" />
      <stop
         offset="0.828"
         id="stop4176"
         stop-color="#d28518"
         stop-opacity="1" />
      <stop
         offset="1"
         id="stop4178"
         stop-color="#ffe4bf"
         stop-opacity="1" />
    </linearGradient>
    <linearGradient
       gradientTransform="matrix(1.866661,1.855621,-1.5491262,1.5583427,114.91269,-81.231364)"
       y2="47.2"
       x2="77.3"
       y1="47.828"
       x1="31.359"
       spreadMethod="reflect"
       gradientUnits="userSpaceOnUse"
       id="linearGradient2963"
       xlink:href="#linearGradient2935"
       inkscape:collect="always" />
    <linearGradient
       gradientTransform="matrix(1.866661,1.855621,-1.5491262,1.5583427,114.91269,-81.231364)"
       y2="81.82"
       x2="31.33"
       y1="86.21"
       x1="83.84"
       spreadMethod="reflect"
       gradientUnits="userSpaceOnUse"
       id="linearGradient2965"
       xlink:href="#linearGradient2935"
       inkscape:collect="always" />
    <radialGradient
       r="51.42"
       fy="49.36"
       fx="54.65"
       cy="49.36"
       cx="54.65"
       spreadMethod="reflect"
       gradientTransform="matrix(1.6629179,1.6170345,-0.7122683,0.7357402,80.583879,-18.642746)"
       gradientUnits="userSpaceOnUse"
       id="radialGradient2967"
       xlink:href="#linearGradient4170"
       inkscape:collect="always" />
    <radialGradient
       spreadMethod="reflect"
       gradientUnits="userSpaceOnUse"
       gradientTransform="matrix(-1.3495445,0.89811764,-1.1292219,-1.6968101,471.38045,-102.901)"
       r="106.96"
       fy="20.12"
       fx="187.53"
       cy="20.12"
       cx="187.53"
       id="radialGradient4198"
       xlink:href="#linearGradient4200"
       inkscape:collect="always" />
    <radialGradient
       r="106.96"
       fy="20.12"
       fx="187.53"
       cy="20.12"
       cx="187.53"
       spreadMethod="pad"
       gradientTransform="matrix(-1.2259556,0.94342079,-1.023095,-1.3294906,446.06888,-118.78733)"
       gradientUnits="userSpaceOnUse"
       id="radialGradient4222"
       xlink:href="#linearGradient4224"
       inkscape:collect="always" />
    <radialGradient
       spreadMethod="pad"
       gradientUnits="userSpaceOnUse"
       gradientTransform="matrix(1.5810526,1.3605715,-1.2612959,1.4656897,245.0006,-155.30955)"
       r="87.89"
       fy="213.22"
       fx="37.482"
       cy="213.22"
       cx="37.482"
       id="radialGradient4244"
       xlink:href="#linearGradient4246"
       inkscape:collect="always" />
    <filter
       inkscape:collect="always"
       id="filter4515"
       x="-0.020580406"
       width="1.0411608"
       y="-0.028782423"
       height="1.0575648"
       color-interpolation-filters="sRGB">
      <feGaussianBlur
         inkscape:collect="always"
         id="feGaussianBlur4517"
         stdDeviation="1.4131569" />
    </filter>
    <linearGradient
       inkscape:collect="always"
       id="linearGradient4167">
      <stop
         id="stop4169"
         stop-color="#adadad"
         stop-opacity="0.624" />
      <stop
         offset="1"
         id="stop4171"
         stop-color="#ffffff"
         stop-opacity="0.973" />
    </linearGradient>
    <linearGradient
       id="linearGradient4223"
       inkscape:collect="always">
      <stop
         id="stop4225"
         stop-color="#bebebe"
         stop-opacity="0.803" />
      <stop
         id="stop4227"
         offset="1"
         stop-color="#9f9f9f"
         stop-opacity="0.732" />
    </linearGradient>
    <linearGradient
       id="linearGradient4211"
       inkscape:collect="always">
      <stop
         id="stop4213"
         stop-color="#9f9f9f"
         stop-opacity="0.634" />
      <stop
         id="stop4215"
         offset="1"
         stop-color="#696969"
         stop-opacity="0" />
    </linearGradient>
    <linearGradient
       id="linearGradient4171"
       inkscape:collect="always">
      <stop
         id="stop4173"
         stop-color="#b2b2b2"
         stop-opacity="0.624" />
      <stop
         id="stop4175"
         offset="1"
         stop-color="#ffffff"
         stop-opacity="0.698" />
    </linearGradient>
    <linearGradient
       id="linearGradient4142"
       inkscape:collect="always">
      <stop
         id="stop4144"
         stop-color="#909090"
         stop-opacity="0.519" />
      <stop
         id="stop4146"
         offset="1"
         stop-color="#696969"
         stop-opacity="0" />
    </linearGradient>
    <linearGradient
       gradientUnits="userSpaceOnUse"
       y2="324.36"
       x2="278.75"
       y1="63.25"
       x1="165.74"
       id="linearGradient4148"
       xlink:href="#linearGradient4142"
       inkscape:collect="always" />
    <filter
       height="1.1"
       y="-0.05"
       width="1.056"
       x="-0.028"
       id="filter4160"
       inkscape:collect="always"
       color-interpolation-filters="sRGB">
      <feGaussianBlur
         id="feGaussianBlur4162"
         stdDeviation="3.56251"
         inkscape:collect="always" />
    </filter>
    <linearGradient
       spreadMethod="reflect"
       gradientUnits="userSpaceOnUse"
       y2="114.16"
       x2="387.93"
       y1="106.85"
       x1="379.78"
       id="linearGradient4177"
       xlink:href="#linearGradient4167"
       inkscape:collect="always" />
    <linearGradient
       gradientTransform="translate(26.808511,-26.382979)"
       y2="114.16"
       x2="387.93"
       y1="108.46"
       x1="381.27"
       spreadMethod="reflect"
       gradientUnits="userSpaceOnUse"
       id="linearGradient4207"
       xlink:href="#linearGradient4171"
       inkscape:collect="always" />
    <linearGradient
       gradientUnits="userSpaceOnUse"
       y2="125.1"
       x2="281.1"
       y1="61.711"
       x1="284.7"
       id="linearGradient4217"
       xlink:href="#linearGradient4211"
       inkscape:collect="always" />
    <linearGradient
       gradientUnits="userSpaceOnUse"
       y2="103.09"
       x2="255.7"
       y1="93.26"
       x1="259.02"
       id="linearGradient4229"
       xlink:href="#linearGradient4223"
       inkscape:collect="always" />
    <linearGradient
       gradientUnits="userSpaceOnUse"
       y2="117.29"
       x2="258.99"
       y1="102.54"
       x1="262.84"
       id="linearGradient4237"
       xlink:href="#linearGradient4223"
       inkscape:collect="always" />
    <filter
       height="1.136"
       y="-0.068"
       width="1.049"
       x="-0.024"
       id="filter4257"
       inkscape:collect="always"
       color-interpolation-filters="sRGB">
      <feGaussianBlur
         id="feGaussianBlur4259"
         stdDeviation="2.75443"
         inkscape:collect="always" />
    </filter>
  </defs>
  <sodipodi:namedview
     inkscape:window-height="1056"
     inkscape:window-width="1920"
     inkscape:pageshadow="2"
     inkscape:pageopacity="0"
     guidetolerance="10.0"
     gridtolerance="10.0"
     objecttolerance="10.0"
     borderopacity="1.0"
     bordercolor="#666666"
     pagecolor="#ffffff"
     id="base"
     width="256"
     height="256"
     inkscape:zoom="3.5585938"
     inkscape:cx="128"
     inkscape:cy="128"
     inkscape:window-x="0"
     inkscape:window-y="0"
     inkscape:current-layer="svg2"
     showgrid="false"
     inkscape:window-maximized="1" />
  <g
     transform="matrix(0.77128144,0,0,0.77128144,-84.871222,-24.145731)"
     id="g4261">
    <path
       d="m 137.15847,253.33333 1.0929,10.92897 c 1.69466,2.56439 1.62485,5.1824 6.55737,7.10382 l 234.9905,77.59563 c 4.36168,2.76045 7.27409,1.93611 10.91114,-1.0929 l 16.39344,-17.48633 z"
       id="path4239"
       inkscape:connector-curvature="0"
       sodipodi:nodetypes="ccccccc"
       stroke-opacity="1"
       fill="#000000"
       filter="url(#filter4257)"
       fill-rule="evenodd"
       stroke="none"
       stroke-linejoin="miter"
       fill-opacity="0.514"
       stroke-linecap="butt"
       stroke-width="1" />
    <path
       d="M 146.27659,241.2766 139.89362,67.340426 c -0.0538,-6.437983 2.49923,-9.41706 7.97872,-7.978724 l 135.10638,37.234043 c 8.12648,2.325734 17.80936,-1.266511 19.14894,-15.425533 0.93604,-9.893676 4.6708,-17.669623 18.61702,-14.893617 l 85.6383,19.680851 c 6.41139,1.511285 7.81765,4.447577 7.4468,11.702128 l -2.12765,230.851066 -5.31915,5.85106 -254.86675,-84.34164 z"
       id="path4198"
       inkscape:connector-curvature="0"
       sodipodi:nodetypes="ccccsccccccc"
       stroke-opacity="1"
       fill="#000000"
       fill-rule="evenodd"
       stroke="none"
       stroke-linejoin="miter"
       fill-opacity="0.73"
       stroke-linecap="butt"
       stroke-width="1" />
    <path
       sodipodi:nodetypes="ccccsccccccc"
       inkscape:connector-curvature="0"
       id="path4209"
       d="M 146.27659,241.2766 139.89362,67.340426 c -0.0538,-6.437983 2.49923,-9.41706 7.97872,-7.978724 l 135.10638,37.234043 c 8.12648,2.325734 17.80936,-1.266511 19.14894,-15.425533 0.93604,-9.893676 4.6708,-17.669623 18.61702,-14.893617 l 85.6383,19.680851 c 6.41139,1.511285 7.81765,4.447577 7.4468,11.702128 l -2.12765,230.851066 -5.31915,5.85106 -254.86675,-84.34164 z"
       stroke-opacity="1"
       fill="url(#linearGradient4217)"
       fill-rule="evenodd"
       stroke="none"
       stroke-linejoin="miter"
       fill-opacity="1"
       stroke-linecap="butt"
       stroke-width="1" />
    <path
       inkscape:connector-curvature="0"
       id="path4221"
       d="m 142.62295,64.262295 267.21311,65.573775 1.0929,194.53552 -256.8306,-92.89618 z"
       sodipodi:nodetypes="ccccc"
       stroke-opacity="0.705"
       fill="url(#linearGradient4229)"
       fill-rule="evenodd"
       stroke="#cecece"
       stroke-linejoin="miter"
       fill-opacity="1"
       stroke-linecap="butt"
       stroke-width="1" />
    <path
       d="m 136.61202,73.005464 267.21311,65.573776 4.37159,189.07104 -260.10929,-87.4317 z"
       id="path4219"
       inkscape:connector-curvature="0"
       stroke-opacity="0.705"
       fill="url(#linearGradient4237)"
       fill-rule="evenodd"
       stroke="#cecece"
       stroke-linejoin="miter"
       fill-opacity="1"
       stroke-linecap="butt"
       stroke-width="1" />
    <path
       d="m 116.2037,92.685185 c 1.13182,-4.540599 4.63483,-9.034209 10.68729,-7.545261 L 261.11111,123.7037 c 6.48148,1.63624 16.36287,0.33244 20.83334,-11.11111 4.00878,-10.26173 10.87392,-18.779525 25.46296,-16.203701 l 68.51852,13.888891 c 12.25335,3.29007 11.96705,11.68066 12.96296,18.51851 l 12.5,205.55556 c 0.64976,7.44283 -5.7507,13.21303 -12.96296,10.18518 L 144.90741,262.59259 c -4.92216,-1.55932 -8.93994,-3.09709 -9.25926,-10.18518 z"
       id="path4138"
       inkscape:connector-curvature="0"
       sodipodi:nodetypes="cccscccccccc"
       stroke-opacity="1"
       fill="#000000"
       fill-rule="evenodd"
       stroke="none"
       stroke-linejoin="miter"
       fill-opacity="0.77"
       stroke-linecap="butt"
       stroke-width="1" />
    <path
       sodipodi:nodetypes="cccsccccccc"
       inkscape:connector-curvature="0"
       id="path4140"
       d="m 116.2037,92.685185 c 1.13182,-4.540599 4.63483,-9.034209 10.68729,-7.545261 L 261.11111,123.7037 c 6.48148,1.63624 16.36287,0.33244 20.83334,-11.11111 4.00878,-10.26173 10.87392,-18.779525 25.46296,-16.203701 l 68.51852,13.888891 c 12.25335,3.29007 11.96705,11.68066 12.96296,18.51851 l 12.5,205.55556 c 0.64976,7.44283 -5.7507,13.21303 -12.96296,10.18518 L 209.72222,283.88889 C 173.76467,257.82993 120.35853,138.21611 116.2037,92.685185 Z"
       stroke-opacity="1"
       fill="url(#linearGradient4148)"
       fill-rule="evenodd"
       stroke="none"
       stroke-linejoin="miter"
       fill-opacity="1"
       stroke-linecap="butt"
       stroke-width="1" />
    <path
       d="m 177.77778,215.83334 -80.555558,82.4074 255.555558,88.42593 38.75029,-40.87068 c 4.63488,-1.3015 9.96817,-1.38077 9.86082,-10.98118 L 396.29629,282.5 Z"
       id="path4150"
       inkscape:connector-curvature="0"
       sodipodi:nodetypes="ccccccc"
       stroke-opacity="1"
       fill="#000000"
       filter="url(#filter4160)"
       fill-rule="evenodd"
       stroke="none"
       stroke-linejoin="miter"
       fill-opacity="0.273"
       stroke-linecap="butt"
       stroke-width="1" />
    <path
       inkscape:connector-curvature="0"
       d="m 130.29688,79.757812 c -3.73674,-0.05935 -6.2712,2.374412 -7.66211,5.353516 1.24508,-0.330919 2.6592,-0.363492 4.25585,0.0293 l 134.22071,38.562492 c 5.49861,1.38812 13.44221,0.65773 18.45508,-6.58203 -4.30627,2.38583 -9.16625,2.43292 -12.90039,1.49024 L 132.44727,80.046875 c -0.75656,-0.186118 -1.47316,-0.278306 -2.15039,-0.289063 z m 177.54687,11.074219 c -7.10689,0.02874 -11.9932,3.152137 -15.51367,7.738281 3.82724,-2.318415 8.71897,-3.304404 15.07812,-2.18164 l 68.51758,13.888668 c 12.25335,3.29007 11.96698,11.68169 12.96289,18.51954 l 12.5,205.55468 c 0.1753,2.00795 -0.17581,3.88521 -0.90429,5.50977 4.09619,-1.28823 6.90142,-5.55587 6.46093,-10.60156 l -12.5,-205.55665 c -0.99591,-6.83785 -0.70954,-15.2275 -12.96289,-18.51757 L 312.96289,91.296875 c -1.82363,-0.321978 -3.52737,-0.47128 -5.11914,-0.464844 z"
       id="path4164"
       stroke-opacity="1"
       fill="#b5b5b5"
       fill-rule="evenodd"
       stroke="none"
       stroke-linejoin="miter"
       fill-opacity="1"
       stroke-linecap="butt"
       stroke-width="1" />
    <path
       id="path4169"
       d="m 375.92578,110.27734 c 12.25335,3.29007 11.96698,11.68169 12.96289,18.51954 2.18404,-2.05828 3.13422,-2.71335 5.55664,-5.09376 -0.99591,-6.83785 -0.70954,-15.2275 -12.96289,-18.51757 -2.39781,2.28773 -2.9924,2.79876 -5.55664,5.09179 z"
       inkscape:connector-curvature="0"
       sodipodi:nodetypes="ccccc"
       stroke-opacity="1"
       fill="url(#linearGradient4177)"
       fill-rule="evenodd"
       stroke="none"
       stroke-linejoin="miter"
       fill-opacity="1"
       stroke-linecap="butt"
       stroke-width="1" />
    <path
       inkscape:connector-curvature="0"
       d="m 151.9043,54.332031 c -2.67378,0.112285 -4.27807,1.802415 -4.90039,4.837891 0.28199,0.05237 0.56972,0.11281 0.86914,0.191406 l 135.10547,37.234375 c 5.41154,1.54874 11.51034,0.467116 15.3789,-4.605469 -2.77183,0.801996 -5.76159,0.727663 -8.57031,-0.07617 L 154.68164,54.681641 c -1.0274,-0.269688 -1.9536,-0.384203 -2.77734,-0.34961 z m 170.88281,6.701172 c -5.39865,-0.126557 -8.73663,1.852669 -10.81445,5.035156 2.34672,-0.518874 5.2277,-0.496408 8.77148,0.208985 l 85.63867,19.679687 c 6.41139,1.511285 7.81812,4.448574 7.44727,11.703125 l -2.12891,230.849614 -0.47461,0.52148 1.96485,0.65039 5.31836,-5.85156 2.1289,-230.851564 c 0.37085,-7.254551 -1.03587,-10.189887 -7.44726,-11.701172 L 327.55273,61.595703 c -1.74327,-0.347001 -3.32697,-0.528775 -4.76562,-0.5625 z"
       id="path4200"
       stroke-opacity="1"
       fill="#b0b0b0"
       fill-rule="evenodd"
       stroke="none"
       stroke-linejoin="miter"
       fill-opacity="1"
       stroke-linecap="butt"
       stroke-width="1" />
    <path
       sodipodi:nodetypes="ccccc"
       inkscape:connector-curvature="0"
       d="m 403.12392,85.141164 c 12.4021,2.867396 10.71654,4.984484 10.70306,18.467586 2.18404,-2.05828 4.25114,-3.752349 6.67356,-6.132759 0.48467,-12.136762 1.00482,-14.993724 -11.89791,-17.244792 -2.39781,2.28773 -2.91447,2.616935 -5.47871,4.909965 z"
       id="path4205"
       stroke-opacity="1"
       fill="url(#linearGradient4207)"
       fill-rule="evenodd"
       stroke="none"
       stroke-linejoin="miter"
       fill-opacity="1"
       stroke-linecap="butt"
       stroke-width="1" />
  </g>
  <g
     id="text4194"
     transform="translate(40.233208,-62.866178)"
     font-style="normal"
     word-spacing="0"
     line-height="125%"
     font-weight="bold"
     font-stretch="normal"
     letter-spacing="0"
     font-variant="normal"
     font-size="7.5"
     stroke-opacity="1"
     font-family="STIXIntegralsSm"
     fill="#000000"
     stroke="none"
     stroke-linejoin="miter"
     fill-opacity="1"
     stroke-linecap="butt"
     stroke-width="1">
    <path
       d="m -33.815041,58.840733 -2.204589,0 -0.347901,0.996093 -1.417236,0 2.025146,-5.467529 1.680909,0 2.025146,5.467529 -1.417236,0 -0.344239,-0.996093 z m -1.853027,-1.014405 1.497803,0 -0.747071,-2.175293 -0.750732,2.175293 z"
       id="path4199"
       inkscape:connector-curvature="0" />
    <path
       d="m -31.33213,54.369297 2.340087,0 q 1.043702,0 1.600342,0.465088 0.560303,0.461426 0.560303,1.318359 0,0.860596 -0.560303,1.325684 -0.55664,0.461426 -1.600342,0.461426 l -0.930175,0 0,1.896972 -1.409912,0 0,-5.467529 z m 1.409912,1.021729 0,1.527099 0.780029,0 q 0.410156,0 0.633545,-0.197754 0.223389,-0.201416 0.223389,-0.567627 0,-0.366211 -0.223389,-0.563965 -0.223389,-0.197753 -0.633545,-0.197753 l -0.780029,0 z"
       id="path4201"
       inkscape:connector-curvature="0" />
  </g>
  <path
     d="m 77.466381,109.44303 c -6.302106,-0.16099 -11.130413,1.07492 -13.968624,3.87375 -0.264756,0.26109 -0.502236,0.53824 -0.727922,0.82161 0.124523,-0.20441 0.257188,-0.40453 0.399791,-0.59981 0.118345,-0.16194 0.247598,-0.31813 0.377978,-0.47328 l 0.580657,-0.6373 c -0.177381,0.17493 -0.346212,0.35467 -0.505527,0.53889 0,0 4.58e-4,0.002 4.58e-4,0.002 -0.03713,0.043 -0.07052,0.0878 -0.106681,0.13121 l -7.382527,8.09739 c -11.352822,11.19532 13.438383,43.16334 55.369696,71.36612 38.41398,25.83702 77.96064,39.58982 93.05432,33.10809 1.34019,-0.57552 2.4913,-1.30832 3.42795,-2.20866 l 6.55992,-7.19456 c 0.31085,-0.24129 0.60962,-0.49352 0.88372,-0.76382 11.35283,-11.19532 -13.51172,-43.16802 -55.44302,-71.37079 -31.44848,-21.15212 -63.613803,-34.20748 -82.520097,-34.69044 z m 2.55305,17.59277 c 14.729666,-0.42195 41.295759,10.07615 67.239149,27.52553 27.96385,18.80834 46.31024,39.72456 46.12753,51.20696 -14.11374,1.73817 -42.17,-8.93452 -69.55759,-27.35526 -27.968693,-18.81159 -46.338048,-39.71455 -46.154847,-51.18979 0.748435,-0.0928 1.520898,-0.16381 2.345758,-0.18744 z m 121.506289,74.41982 c -0.30408,0.50699 -0.65304,0.98994 -1.09059,1.42141 -0.45949,0.45311 -1.00106,0.84073 -1.58848,1.1918 l 2.21899,-2.08057 c 0.17029,-0.16793 0.31017,-0.35307 0.46008,-0.53264 z"
     id="path4467"
     inkscape:connector-curvature="0"
     transform="matrix(-1,0,0,1,258.55342,4.496158)"
     stroke-dasharray="none"
     stroke-opacity="1"
     fill="#000000"
     filter="url(#filter4515)"
     stroke="none"
     stroke-linejoin="round"
     fill-opacity="0.318"
     stroke-linecap="round"
     stroke-width="0"
     stroke-miterlimit="4"
     style="filter:url(#filter4515)" />
  <g
     id="g4565"
     transform="matrix(-0.66954883,0,0,0.66954883,192.31342,69.928998)">
    <path
       inkscape:connector-curvature="0"
       d="m 232.96298,208.58694 c 0.0533,-0.0525 0.10632,-0.10527 0.1591,-0.15836 l -23.48036,23.13135 c -0.0528,0.0531 -0.1058,0.10587 -0.15908,0.15838 l 23.48034,-23.13137 z"
       id="path2845"
       stroke-dasharray="none"
       stroke-opacity="1"
       fill="#cccccc"
       stroke="none"
       stroke-linejoin="round"
       fill-opacity="1"
       stroke-linecap="round"
       stroke-width="0"
       stroke-miterlimit="4" />
    <path
       sodipodi:nodetypes="sccsccs"
       inkscape:connector-curvature="0"
       d="M 168.781,79.016294 C 126.82119,37.304649 79.44267,16.863101 62.825626,33.233161 l -17.87942,17.25813 C 61.563255,34.12124 108.94177,54.56278 150.90158,96.274424 c 42.06679,41.817996 62.76741,89.228036 46.2656,105.828026 L 215.0466,184.84432 C 231.54842,168.24433 210.84779,120.83429 168.781,79.016294 Z"
       id="path2849"
       stroke-dasharray="none"
       stroke-opacity="1"
       fill="url(#linearGradient2963)"
       stroke="none"
       stroke-linejoin="round"
       fill-opacity="1"
       stroke-linecap="round"
       stroke-width="0"
       stroke-miterlimit="4" />
    <path
       inkscape:connector-curvature="0"
       d="m 215.0466,184.84432 c -0.042,0.0422 -0.0841,0.0842 -0.1265,0.12593 l -23.48035,23.13135 c 0.0424,-0.0417 0.0845,-0.0837 0.1265,-0.12593 l 23.48035,-23.13135 z"
       id="path2851"
       stroke-dasharray="none"
       stroke-opacity="1"
       fill="#cccccc"
       stroke="none"
       stroke-linejoin="round"
       fill-opacity="1"
       stroke-linecap="round"
       stroke-width="0"
       stroke-miterlimit="4" />
    <path
       inkscape:connector-curvature="0"
       d="m 62.680396,33.379255 c 0.04197,-0.04221 0.08414,-0.0842 0.126496,-0.125927 L 39.326543,56.38468 c -0.04237,0.04175 -0.08453,0.08371 -0.126512,0.125943 L 62.680396,33.379255 Z"
       id="path2857"
       stroke-dasharray="none"
       stroke-opacity="1"
       fill="#cccccc"
       stroke="none"
       stroke-linejoin="round"
       fill-opacity="1"
       stroke-linecap="round"
       stroke-width="0"
       stroke-miterlimit="4" />
    <path
       sodipodi:nodetypes="ccsccsc"
       inkscape:connector-curvature="0"
       d="M 41.147661,17.589553 26.21077,33.964925 C 5.4268405,54.872508 31.522831,114.57316 84.505681,167.24265 137.35398,219.77839 197.11087,245.56804 218.03996,224.95004 l 14.93689,-16.37537 C 212.04778,229.19268 152.29088,203.40302 99.442573,150.86728 46.459724,98.197785 20.363732,38.497136 41.147661,17.589553 Z"
       id="path2841"
       stroke-dasharray="none"
       stroke-opacity="1"
       fill="url(#linearGradient2965)"
       stroke="none"
       stroke-linejoin="round"
       fill-opacity="1"
       stroke-linecap="round"
       stroke-width="0"
       stroke-miterlimit="4" />
    <path
       id="path4234"
       d="M 168.781,79.016294 C 126.82119,37.304649 79.44267,16.863101 62.825626,33.233161 l -17.87942,17.25813 C 61.563255,34.12124 108.94177,54.56278 150.90158,96.274424 c 42.06679,41.817996 62.76741,89.228036 46.2656,105.828026 L 215.0466,184.84432 C 231.54842,168.24433 210.84779,120.83429 168.781,79.016294 Z"
       inkscape:connector-curvature="0"
       sodipodi:nodetypes="sccsccs"
       stroke-dasharray="none"
       stroke-opacity="1"
       fill="url(#radialGradient4244)"
       stroke="none"
       stroke-linejoin="round"
       fill-opacity="1"
       stroke-linecap="round"
       stroke-width="0"
       stroke-miterlimit="4" />
    <path
       id="path1873"
       d="M 173.47558,76.801338 C 120.49274,24.131847 60.686739,-1.6582439 39.902799,19.24935 c -20.78394,20.907593 5.31204,80.608252 58.29489,133.27774 52.982851,52.66949 112.895571,78.46886 133.679511,57.56126 20.78394,-20.90759 -5.41877,-80.61752 -58.40162,-133.287012 z m -5.93942,3.874735 c 42.06679,41.817997 62.76741,89.228037 46.26558,105.828037 -16.50182,16.60001 -63.98541,-3.86772 -106.05221,-45.68572 C 65.682739,99.0004 44.933709,51.639053 61.435539,35.03905 77.937359,18.439052 125.46936,38.858076 167.53616,80.676073 Z"
       inkscape:connector-curvature="0"
       stroke-dasharray="none"
       stroke-opacity="0"
       fill="url(#radialGradient2967)"
       stroke="none"
       stroke-linejoin="round"
       fill-opacity="1"
       stroke-linecap="round"
       stroke-width="2.5"
       stroke-miterlimit="4" />
    <path
       id="path4196"
       d="M 41.147661,17.589553 26.21077,33.964925 C 5.4268405,54.872508 31.522831,114.57316 84.505681,167.24265 137.35398,219.77839 197.11087,245.56804 218.03996,224.95004 l 14.93689,-16.37537 C 212.04778,229.19268 152.29088,203.40302 99.442573,150.86728 46.459724,98.197785 20.363732,38.497136 41.147661,17.589553 Z"
       inkscape:connector-curvature="0"
       sodipodi:nodetypes="ccsccsc"
       stroke-dasharray="none"
       stroke-opacity="1"
       fill="url(#radialGradient4198)"
       stroke="none"
       stroke-linejoin="round"
       fill-opacity="1"
       stroke-linecap="round"
       stroke-width="0"
       stroke-miterlimit="4" />
    <path
       sodipodi:nodetypes="ccsccsc"
       inkscape:connector-curvature="0"
       d="M 41.147661,17.589553 26.21077,33.964925 C 5.4268405,54.872508 31.522831,114.57316 84.505681,167.24265 137.35398,219.77839 197.11087,245.56804 218.03996,224.95004 l 14.93689,-16.37537 C 212.04778,229.19268 154.36557,200.49846 101.51726,147.96272 48.534413,95.293221 20.363732,38.497136 41.147661,17.589553 Z"
       id="path4210"
       stroke-dasharray="none"
       stroke-opacity="1"
       fill="url(#radialGradient4222)"
       stroke="none"
       stroke-linejoin="round"
       fill-opacity="1"
       stroke-linecap="round"
       stroke-width="0"
       stroke-miterlimit="4" />
  </g>
</svg>
