<?xml version="1.0" encoding="UTF-8" standalone="no"?>
<svg
   xmlns:dc="http://purl.org/dc/elements/1.1/"
   xmlns:cc="http://creativecommons.org/ns#"
   xmlns:rdf="http://www.w3.org/1999/02/22-rdf-syntax-ns#"
   xmlns:svg="http://www.w3.org/2000/svg"
   xmlns="http://www.w3.org/2000/svg"
   xmlns:xlink="http://www.w3.org/1999/xlink"
   xmlns:sodipodi="http://sodipodi.sourceforge.net/DTD/sodipodi-0.dtd"
   xmlns:inkscape="http://www.inkscape.org/namespaces/inkscape"
   viewBox="0 0 256 256"
   id="svg2"
   inkscape:version="0.92.5 (2060ec1f9f, 2020-04-08)"
   width="256"
   height="256"
   sodipodi:docname="folder_work.svg"
   version="1.1">
  <metadata
     id="metadata145">
    <rdf:RDF>
      <cc:Work>
        <dc:format>image/svg+xml</dc:format>
        <dc:type
           rdf:resource="http://purl.org/dc/dcmitype/StillImage" />
        <dc:title />
      </cc:Work>
    </rdf:RDF>
  </metadata>
  <sodipodi:namedview
     pagecolor="#ffffff"
     bordercolor="#666666"
     borderopacity="1"
     objecttolerance="10"
     gridtolerance="10"
     guidetolerance="10"
     inkscape:pageopacity="0"
     inkscape:pageshadow="2"
     inkscape:window-width="1920"
     inkscape:window-height="1056"
     id="namedview143"
     showgrid="false"
     inkscape:zoom="3.4414062"
     inkscape:cx="128"
     inkscape:cy="128"
     inkscape:window-x="0"
     inkscape:window-y="0"
     inkscape:window-maximized="1"
     inkscape:current-layer="svg2"
     inkscape:snap-global="false" />
  <defs
     id="defs4">
    <linearGradient
       id="linearGradient3263">
      <stop
         id="stop3265"
         stop-color="#939393"
         stop-opacity="1" />
      <stop
         id="stop3267"
         offset="1"
         stop-color="#000000"
         stop-opacity="1" />
    </linearGradient>
    <linearGradient
       id="linearGradient3271">
      <stop
         id="stop3273"
         stop-color="#b4b4b4"
         stop-opacity="1" />
      <stop
         id="stop3275"
         offset="1"
         stop-color="#000000"
         stop-opacity="1" />
    </linearGradient>
    <linearGradient
       id="linearGradient3279">
      <stop
         id="stop3281"
         stop-color="#535353"
         stop-opacity="0" />
      <stop
         id="stop3283"
         offset="1"
         stop-color="#000000"
         stop-opacity="1" />
    </linearGradient>
    <linearGradient
       id="linearGradient3299">
      <stop
         id="stop3301"
         stop-color="#5f5f5f"
         stop-opacity="1" />
      <stop
         id="stop3303"
         offset="1"
         stop-color="#2c2c2c"
         stop-opacity="0" />
    </linearGradient>
    <linearGradient
       id="linearGradient3307">
      <stop
         id="stop3309"
         stop-color="#868686"
         stop-opacity="0" />
      <stop
         id="stop3311"
         offset="1"
         stop-color="#000000"
         stop-opacity="1" />
    </linearGradient>
    <radialGradient
       inkscape:collect="always"
       xlink:href="#linearGradient3263"
       id="radialGradient4038"
       gradientUnits="userSpaceOnUse"
       gradientTransform="matrix(1.8027448,-1.1839007,1.5735599,2.3960848,161.63289,157.19293)"
       spreadMethod="reflect"
       cx="86.43"
       cy="58.831"
       fx="86.43"
       fy="58.831"
       r="23.808" />
    <linearGradient
       inkscape:collect="always"
       xlink:href="#linearGradient3299"
       id="linearGradient4040"
       gradientUnits="userSpaceOnUse"
       gradientTransform="matrix(2.4082392,0,0,2.4082392,176.49035,71.787194)"
       x1="79.898"
       y1="65.34"
       x2="77.939"
       y2="34.537" />
    <radialGradient
       inkscape:collect="always"
       xlink:href="#linearGradient3271"
       id="radialGradient4042"
       gradientUnits="userSpaceOnUse"
       gradientTransform="matrix(3.4774348,3.9226905e-8,-3.2067981e-8,2.8428016,137.56553,58.894271)"
       spreadMethod="reflect"
       cx="74.906"
       cy="19.33"
       fx="74.906"
       fy="19.33"
       r="21.699" />
    <linearGradient
       inkscape:collect="always"
       xlink:href="#linearGradient3307"
       id="linearGradient4044"
       gradientUnits="userSpaceOnUse"
       x1="85.28"
       y1="25.513"
       x2="88.6"
       y2="53.03"
       gradientTransform="matrix(2.4082392,0,0,2.4082392,174.20301,70.806907)" />
    <linearGradient
       inkscape:collect="always"
       xlink:href="#linearGradient3279"
       id="linearGradient4046"
       gradientUnits="userSpaceOnUse"
       gradientTransform="matrix(2.4082392,0,0,2.4082392,206.87925,70.806907)"
       x1="74.898"
       y1="34.521"
       x2="75.51"
       y2="52.02" />
    <filter
       inkscape:collect="always"
       style="color-interpolation-filters:sRGB"
       id="filter4209"
       x="-0.028020725"
       width="1.0560414"
       y="-0.020988358"
       height="1.0419767">
      <feGaussianBlur
         inkscape:collect="always"
         stdDeviation="1.4510452"
         id="feGaussianBlur4211" />
    </filter>
    <linearGradient
       id="linearGradient858"
       inkscape:collect="always">
      <stop
         id="stop854"
         offset="0"
         style="stop-color:#ffffff;stop-opacity:1;" />
      <stop
         id="stop856"
         offset="1"
         style="stop-color:#ffffff;stop-opacity:0;" />
    </linearGradient>
    <linearGradient
       id="linearGradient855"
       inkscape:collect="always">
      <stop
         id="stop851"
         offset="0"
         style="stop-color:#000000;stop-opacity:1" />
      <stop
         id="stop853"
         offset="1"
         style="stop-color:#000000;stop-opacity:0" />
    </linearGradient>
    <linearGradient
       id="linearGradient4223"
       inkscape:collect="always">
      <stop
         stop-opacity="0.803"
         stop-color="#bebebe"
         id="stop4225" />
      <stop
         stop-opacity="0.732"
         stop-color="#9f9f9f"
         id="stop4227"
         offset="1" />
    </linearGradient>
    <linearGradient
       id="linearGradient4211"
       inkscape:collect="always">
      <stop
         stop-opacity="0.634"
         stop-color="#9f9f9f"
         id="stop4213" />
      <stop
         stop-opacity="0"
         stop-color="#696969"
         id="stop4215"
         offset="1" />
    </linearGradient>
    <linearGradient
       id="linearGradient4171"
       inkscape:collect="always">
      <stop
         stop-opacity="0.623"
         stop-color="#848484"
         id="stop4173" />
      <stop
         stop-opacity="0.698"
         stop-color="#cdcdcd"
         id="stop4175"
         offset="1" />
    </linearGradient>
    <linearGradient
       id="linearGradient4142"
       inkscape:collect="always">
      <stop
         stop-opacity="0.519"
         stop-color="#909090"
         id="stop4144" />
      <stop
         stop-opacity="0"
         stop-color="#696969"
         id="stop4146"
         offset="1" />
    </linearGradient>
    <linearGradient
       gradientTransform="matrix(0.77077081,0,0,0.77077081,-80.822015,-34.561922)"
       gradientUnits="userSpaceOnUse"
       y2="324.36"
       x2="278.75"
       y1="63.25"
       x1="165.74"
       id="linearGradient4148"
       xlink:href="#linearGradient4142"
       inkscape:collect="always" />
    <linearGradient
       gradientTransform="matrix(0.77077081,0,0,0.77077081,-80.822015,-34.561922)"
       spreadMethod="reflect"
       gradientUnits="userSpaceOnUse"
       y2="114.16"
       x2="387.93"
       y1="106.85"
       x1="379.78"
       id="linearGradient4177"
       xlink:href="#linearGradient4171"
       inkscape:collect="always" />
    <linearGradient
       gradientTransform="matrix(0.77077081,0,0,0.77077081,-60.158797,-54.897152)"
       y2="114.16"
       x2="387.93"
       y1="108.46"
       x1="381.27"
       spreadMethod="reflect"
       gradientUnits="userSpaceOnUse"
       id="linearGradient4207"
       xlink:href="#linearGradient4171"
       inkscape:collect="always" />
    <linearGradient
       gradientTransform="matrix(0.77077081,0,0,0.77077081,-80.822015,-34.561922)"
       gradientUnits="userSpaceOnUse"
       y2="125.1"
       x2="281.1"
       y1="61.711"
       x1="284.7"
       id="linearGradient4217"
       xlink:href="#linearGradient4211"
       inkscape:collect="always" />
    <linearGradient
       gradientTransform="matrix(0.77077081,0,0,0.77077081,-80.822015,-34.561922)"
       gradientUnits="userSpaceOnUse"
       y2="103.09"
       x2="255.7"
       y1="93.26"
       x1="259.02"
       id="linearGradient4229"
       xlink:href="#linearGradient4223"
       inkscape:collect="always" />
    <linearGradient
       gradientTransform="matrix(0.77077081,0,0,0.77077081,-80.822015,-34.561922)"
       gradientUnits="userSpaceOnUse"
       y2="117.29"
       x2="258.99"
       y1="102.54"
       x1="262.84"
       id="linearGradient4237"
       xlink:href="#linearGradient4223"
       inkscape:collect="always" />
    <filter
       height="1.0332601"
       y="-0.016630034"
       width="1.0187733"
       x="-0.0093866307"
       id="filter890"
       style="color-interpolation-filters:sRGB"
       inkscape:collect="always">
      <feGaussianBlur
         id="feGaussianBlur892"
         stdDeviation="0.91238843"
         inkscape:collect="always" />
    </filter>
    <linearGradient
       gradientUnits="userSpaceOnUse"
       y2="166.73978"
       x2="120.79942"
       y1="193.77997"
       x1="111.98162"
       id="linearGradient857"
       xlink:href="#linearGradient855"
       inkscape:collect="always" />
    <linearGradient
       gradientUnits="userSpaceOnUse"
       y2="86.098389"
       x2="185.756"
       y1="54.649479"
       x1="221.87906"
       id="linearGradient860"
       xlink:href="#linearGradient858"
       inkscape:collect="always" />
    <linearGradient
       gradientTransform="translate(19.986222,-19.692307)"
       y2="86.098389"
       x2="185.756"
       y1="54.649479"
       x1="221.87906"
       gradientUnits="userSpaceOnUse"
       id="linearGradient864"
       xlink:href="#linearGradient858"
       inkscape:collect="always" />
  </defs>
  <g
     id="g1066"
     transform="translate(2.2340684,3.8343527)">
    <g
       transform="matrix(1.027092,0,0,0.87914716,269.10213,48.787807)"
       style="fill:#000000;fill-opacity:0.12757203;filter:url(#filter890)"
       id="g888">
      <path
         style="fill:#000000;fill-opacity:0.12757203;fill-rule:evenodd;stroke:none;stroke-width:1;stroke-linecap:butt;stroke-linejoin:miter;stroke-opacity:1"
         d="m 177.77778,215.83334 -80.555558,82.4074 255.555558,88.42593 38.75029,-40.87068 c 4.25788,-4.69448 8.46018,-13.4447 8.35283,-19.27513 L 396.29629,282.5 Z"
         id="path4150"
         inkscape:connector-curvature="0"
         sodipodi:nodetypes="ccccccc"
         transform="matrix(0.77077081,0,0,0.77077081,-337.33598,-64.706486)" />
      <path
         style="fill:#000000;fill-opacity:0.12757203;fill-rule:evenodd;stroke:none;stroke-width:0.77077079;stroke-linecap:butt;stroke-linejoin:miter;stroke-opacity:1"
         d="m -258.76367,164.31055 c 64.25456,22.23242 128.50911,44.46484 192.76367,66.69726 10.704605,-12.11221 23.269675,-22.6975 32.626953,-35.88281 4.915466,-9.97175 -0.0014,-21.20106 0.334678,-31.66405 1.365667,-7.80464 -3.023601,-10.97488 -10.290126,-11.82807 -52.133991,-15.90432 -104.267985,-31.80864 -156.401975,-47.71296 -19.67773,20.13021 -39.35547,40.26042 -59.0332,60.39063 z"
         id="path866"
         inkscape:connector-curvature="0" />
      <path
         style="fill:#000000;fill-opacity:0.12757203;fill-rule:evenodd;stroke:none;stroke-width:0.77077079;stroke-linecap:butt;stroke-linejoin:miter;stroke-opacity:1"
         d="m -255.12695,163.45117 c 62.83854,21.74284 125.67708,43.48568 188.515622,65.22852 10.661699,-12.45649 24.482587,-22.55662 32.46289,-37.08399 2.693429,-10.92369 -1.823197,-22.00405 -0.960937,-33.02148 -3.239054,-6.39155 -11.866064,-4.61259 -17.48133,-7.67536 -48.853875,-14.90314 -97.707755,-29.80627 -146.561635,-44.70941 -18.65821,19.08724 -37.31641,38.17448 -55.97461,57.26172 z"
         id="path872"
         inkscape:connector-curvature="0" />
      <path
         style="fill:#000000;fill-opacity:0.12757203;fill-rule:evenodd;stroke:none;stroke-width:0.77077079;stroke-linecap:butt;stroke-linejoin:miter;stroke-opacity:1"
         d="m -251.49023,162.5918 c 61.41731,21.2513 122.83463,42.5026 184.251949,63.7539 10.44283,-12.37841 24.919813,-21.97631 31.529297,-37.15625 1.394259,-10.18414 -1.706975,-20.39676 -1.751954,-30.52929 -5.3153,-5.0699 -13.440876,-3.58672 -19.715715,-7.06986 -47.132517,-14.3771 -94.265047,-28.75421 -141.397567,-43.13132 -17.63867,18.04428 -35.27734,36.08855 -52.91601,54.13282 z"
         id="path878"
         inkscape:connector-curvature="0" />
    </g>
    <path
       sodipodi:nodetypes="ccccsccccccc"
       inkscape:connector-curvature="0"
       id="path4198"
       d="M 31.923711,151.40704 27.003904,17.342113 c -0.04147,-4.96221 1.926333,-7.258395 6.149764,-6.149768 L 137.28972,39.891259 c 6.26366,1.792607 13.72694,-0.97619 14.75945,-11.889551 0.72147,-7.625757 3.60011,-13.61923 14.34945,-11.479565 l 66.0075,15.169425 c 4.94172,1.164855 6.02562,3.428063 5.73978,9.019659 l -1.63993,177.933263 -4.09985,4.50983 -196.443848,-65.00808 z"
       style="fill:#000000;fill-opacity:0.73000004;fill-rule:evenodd;stroke:none;stroke-width:0.77077079;stroke-linecap:butt;stroke-linejoin:miter;stroke-opacity:1" />
    <path
       d="M 31.923711,151.40704 27.003904,17.342113 c -0.04147,-4.96221 1.926333,-7.258395 6.149764,-6.149768 L 137.28972,39.891259 c 6.26366,1.792607 13.72694,-0.97619 14.75945,-11.889551 0.72147,-7.625757 3.60011,-13.61923 14.34945,-11.479565 l 66.0075,15.169425 c 4.94172,1.164855 6.02562,3.428063 5.73978,9.019659 l -1.63993,177.933263 -4.09985,4.50983 -196.443848,-65.00808 z"
       id="path4209"
       inkscape:connector-curvature="0"
       sodipodi:nodetypes="ccccsccccccc"
       style="fill:url(#linearGradient4217);fill-opacity:1;fill-rule:evenodd;stroke:none;stroke-width:0.77077079;stroke-linecap:butt;stroke-linejoin:miter;stroke-opacity:1" />
    <path
       sodipodi:nodetypes="ccccc"
       d="M 29.107592,14.969579 235.06766,65.511931 235.91003,215.45423 37.952503,143.85257 Z"
       id="path4221"
       inkscape:connector-curvature="0"
       style="fill:url(#linearGradient4229);fill-opacity:1;fill-rule:evenodd;stroke:#cecece;stroke-width:0.77077079;stroke-linecap:butt;stroke-linejoin:miter;stroke-opacity:0.70499998" />
    <path
       inkscape:connector-curvature="0"
       id="path4219"
       d="M 24.474542,21.708559 230.43461,72.250911 233.8041,217.98135 33.319453,150.59155 Z"
       style="fill:url(#linearGradient4237);fill-opacity:1;fill-rule:evenodd;stroke:#cecece;stroke-width:0.77077079;stroke-linecap:butt;stroke-linejoin:miter;stroke-opacity:0.70499998" />
    <path
       sodipodi:nodetypes="cccscccccccc"
       inkscape:connector-curvature="0"
       id="path4138"
       d="M 8.7444046,36.877113 C 9.6167788,33.377352 12.316797,29.913809 16.981856,31.061446 L 120.43481,60.785279 c 4.99573,1.261166 12.61202,0.256235 16.05773,-8.564119 3.08985,-7.909442 8.3813,-14.47471 19.6261,-12.48934 l 52.81208,10.705152 c 9.44452,2.53589 9.22385,9.003112 9.99147,14.273527 l 9.63463,158.436221 c 0.50082,5.73672 -4.43247,10.18422 -9.99147,7.85044 L 30.868387,167.83678 c -3.793857,-1.20188 -6.890645,-2.38715 -7.136768,-7.85044 z"
       style="fill:#000000;fill-opacity:0.76999996;fill-rule:evenodd;stroke:none;stroke-width:0.77077079;stroke-linecap:butt;stroke-linejoin:miter;stroke-opacity:1" />
    <path
       d="M 8.7444046,36.877113 C 9.6167788,33.377352 12.316797,29.913809 16.981856,31.061446 L 120.43481,60.785279 c 4.99573,1.261166 12.61202,0.256235 16.05773,-8.564119 3.08985,-7.909442 8.3813,-14.47471 19.6261,-12.48934 l 52.81208,10.705152 c 9.44452,2.53589 9.22385,9.003112 9.99147,14.273527 l 9.63463,158.436221 c 0.50082,5.73672 -4.43247,10.18422 -9.99147,7.85044 L 31.136761,168.85067 c -4.722273,-3.4223 -8.128602,-7.01445 -8.632556,-13.84742 C 20.224751,124.09697 11.401175,65.991481 8.7444046,36.877113 Z"
       id="path4140"
       inkscape:connector-curvature="0"
       sodipodi:nodetypes="cccsccccccsc"
       style="fill:url(#linearGradient4148);fill-opacity:1;fill-rule:evenodd;stroke:none;stroke-width:0.77077079;stroke-linecap:butt;stroke-linejoin:miter;stroke-opacity:1" />
    <path
       id="path4164"
       d="m 19.607017,26.913071 c -2.88017,-0.04575 -4.833658,1.830128 -5.905731,4.126334 0.959671,-0.255062 2.049634,-0.280169 3.280285,0.02258 L 120.43498,60.784832 c 4.23816,1.069922 10.36086,0.506959 14.22463,-5.073237 -3.31914,1.838929 -7.06507,1.875224 -9.94324,1.148634 L 21.264475,27.135873 c -0.583135,-0.143455 -1.135469,-0.21451 -1.657458,-0.222802 z m 136.847943,8.535685 c -5.47778,0.02215 -9.24401,2.429575 -11.95748,5.964441 2.94992,-1.786966 6.72033,-2.546938 11.62177,-1.681544 l 52.81135,10.70498 c 9.44453,2.53589 9.2238,9.003905 9.99142,14.274321 l 9.63464,158.435546 c 0.13511,1.54767 -0.13551,2.99461 -0.69701,4.24677 3.15723,-0.99293 5.31942,-4.2823 4.9799,-8.17137 L 223.20492,60.784832 C 222.4373,55.514417 222.65802,49.047919 213.2135,46.51203 L 160.40065,35.807044 c -1.40561,-0.248171 -2.7188,-0.363249 -3.94569,-0.358288 z"
       inkscape:connector-curvature="0"
       style="fill:#848484;fill-opacity:1;fill-rule:evenodd;stroke:none;stroke-width:0.77077079;stroke-linecap:butt;stroke-linejoin:miter;stroke-opacity:1" />
    <path
       sodipodi:nodetypes="ccccc"
       inkscape:connector-curvature="0"
       d="m 208.9306,50.436633 c 9.44453,2.53589 9.2238,9.003905 9.99142,14.274321 1.68339,-1.586463 2.41577,-2.091371 4.2829,-3.926122 -0.76762,-5.270415 -0.5469,-11.736913 -9.99142,-14.272802 -1.84816,1.763315 -2.30646,2.157202 -4.2829,3.924603 z"
       id="path4169"
       style="fill:url(#linearGradient4177);fill-opacity:1;fill-rule:evenodd;stroke:none;stroke-width:0.77077079;stroke-linecap:butt;stroke-linejoin:miter;stroke-opacity:1" />
    <path
       id="path4200"
       d="m 36.261385,7.3156224 c -2.060871,0.08655 -3.297411,1.389248 -3.777077,3.7289046 0.217349,0.04036 0.439123,0.08695 0.669908,0.14753 L 137.28957,39.891226 c 4.17106,1.193724 8.87183,0.36004 11.85361,-3.549761 -2.13645,0.618155 -4.44087,0.560862 -6.60575,-0.05871 L 38.402078,7.5850914 C 37.610188,7.3772234 36.8963,7.2889584 36.261385,7.3156224 Z M 167.97287,12.480689 c -4.16112,-0.09755 -6.73394,1.427983 -8.33547,3.880952 1.80879,-0.399933 4.02936,-0.382617 6.76081,0.161079 l 66.00778,15.168528 c 4.94171,1.164855 6.02598,3.428831 5.74014,9.020428 l -1.6409,177.932144 -0.36582,0.40194 1.51445,0.5013 4.09924,-4.51021 1.64089,-177.933646 c 0.28584,-5.591596 -0.79841,-7.854067 -5.74013,-9.018922 L 171.64607,12.914248 c -1.34366,-0.267458 -2.56433,-0.407564 -3.6732,-0.433559 z"
       inkscape:connector-curvature="0"
       style="fill:#858585;fill-opacity:1;fill-rule:evenodd;stroke:none;stroke-width:0.77077079;stroke-linecap:butt;stroke-linejoin:miter;stroke-opacity:1" />
    <path
       id="path4205"
       d="m 229.89414,31.062402 c 9.55917,2.210105 8.25999,3.841895 8.2496,14.234276 1.6834,-1.586462 3.27666,-2.892201 5.14379,-4.726951 0.37357,-9.354662 0.77448,-11.556725 -9.17056,-13.291783 -1.84817,1.763316 -2.24639,2.017057 -4.22283,3.784458 z"
       inkscape:connector-curvature="0"
       sodipodi:nodetypes="ccccc"
       style="fill:url(#linearGradient4207);fill-opacity:1;fill-rule:evenodd;stroke:none;stroke-width:0.77077079;stroke-linecap:butt;stroke-linejoin:miter;stroke-opacity:1" />
    <path
       style="fill:none;fill-opacity:1;stroke:url(#linearGradient857);stroke-width:2.0999999;stroke-linecap:butt;stroke-linejoin:miter;stroke-miterlimit:4;stroke-dasharray:none;stroke-opacity:1"
       d="m 225.72675,196.33524 2.0574,24.39495 c 0.0295,8.34567 -2.0873,11.73805 -14.10792,7.34788 L 31.742824,167.82549 c -6.229286,-1.47576 -8.206505,-5.92013 -8.229621,-11.16877 l -2.057406,-24.10103"
       id="path858"
       inkscape:connector-curvature="0"
       sodipodi:nodetypes="cccccc" />
    <path
       style="fill:none;fill-opacity:1;fill-rule:evenodd;stroke:url(#linearGradient860);stroke-width:1;stroke-linecap:butt;stroke-linejoin:miter;stroke-miterlimit:4;stroke-dasharray:none;stroke-opacity:1"
       sodipodi:nodetypes="cccc"
       inkscape:connector-curvature="0"
       id="path851"
       d="m 156.11864,39.73182 52.81208,10.705152 c 9.44452,2.53589 9.22385,9.003112 9.99147,14.273527 l 4.07025,66.933111" />
    <path
       d="m 176.39878,18.569938 52.51816,12.174727 c 11.79584,2.53589 9.22385,9.003112 9.99147,14.273527 l -2.98371,67.814858"
       id="path862"
       inkscape:connector-curvature="0"
       sodipodi:nodetypes="cccc"
       style="fill:none;fill-opacity:1;fill-rule:evenodd;stroke:url(#linearGradient864);stroke-width:1;stroke-linecap:butt;stroke-linejoin:miter;stroke-miterlimit:4;stroke-dasharray:none;stroke-opacity:1" />
  </g>
  <g
     id="text4194"
     transform="translate(41.531873,-72.633711)"
     font-style="normal"
     word-spacing="0"
     line-height="125%"
     font-weight="bold"
     font-stretch="normal"
     letter-spacing="0"
     font-variant="normal"
     font-size="7.5"
     stroke-opacity="1"
     font-family="STIXIntegralsSm"
     fill="#000000"
     stroke="none"
     stroke-linejoin="miter"
     fill-opacity="1"
     stroke-linecap="butt"
     stroke-width="1">
    <path
       d="m -33.815041,58.840733 -2.204589,0 -0.347901,0.996093 -1.417236,0 2.025146,-5.467529 1.680909,0 2.025146,5.467529 -1.417236,0 -0.344239,-0.996093 z m -1.853027,-1.014405 1.497803,0 -0.747071,-2.175293 -0.750732,2.175293 z"
       id="path4199"
       inkscape:connector-curvature="0" />
    <path
       d="m -31.33213,54.369297 2.340087,0 q 1.043702,0 1.600342,0.465088 0.560303,0.461426 0.560303,1.318359 0,0.860596 -0.560303,1.325684 -0.55664,0.461426 -1.600342,0.461426 l -0.930175,0 0,1.896972 -1.409912,0 0,-5.467529 z m 1.409912,1.021729 0,1.527099 0.780029,0 q 0.410156,0 0.633545,-0.197754 0.223389,-0.201416 0.223389,-0.567627 0,-0.366211 -0.223389,-0.563965 -0.223389,-0.197753 -0.633545,-0.197753 l -0.780029,0 z"
       id="path4201"
       inkscape:connector-curvature="0" />
  </g>
  <path
     inkscape:connector-curvature="0"
     d="m 89.767843,87.425144 c -1.957509,0.128228 -4.044436,1.236941 -6.365292,4.272007 -22.396202,5.733595 -30.155891,21.877339 -37.081028,38.661669 -0.01217,0.0294 -0.03058,0.056 -0.04272,0.0854 -1.47173,1.84076 -2.910502,3.76346 -4.272008,5.89537 -8.287148,31.46067 -3.162994,42.49751 3.887528,61.17515 6.123748,16.22249 17.521315,30.34775 31.313817,43.01912 5.604888,6.40107 11.879955,11.51669 20.078441,12.73059 20.715539,0.84121 39.598359,-5.61062 57.714819,-15.16563 6.22051,-5.54417 6.55804,-11.07395 6.36529,-16.61811 1.86272,-13.81715 -0.558,-27.66406 -3.67393,-41.4812 0.0338,-0.0846 0.0518,-0.17149 0.0854,-0.25632 -1.00611,-38.51639 -4.02476,-76.06774 -58.69739,-89.02864 -3.113019,-0.982097 -6.050466,-3.503143 -9.312967,-3.289446 z"
     id="path3335"
     style="fill:#000000;fill-opacity:0.4025974;fill-rule:evenodd;stroke:none;stroke-width:2;stroke-linecap:butt;stroke-linejoin:miter;stroke-opacity:1;filter:url(#filter4209)" />
  <g
     id="g4466"
     transform="matrix(1.1355083,0,0,1.1355083,-319.41061,-7.0111101)">
    <path
       inkscape:connector-curvature="0"
       sodipodi:nodetypes="csccccccc"
       id="path2487"
       d="m 322.86589,119.44645 c -7.29818,27.70622 -2.76263,37.4028 3.4465,53.8515 5.39295,14.28655 15.42543,26.75225 27.57197,37.91146 4.93602,5.63718 10.44319,10.13209 17.66329,11.20112 18.24341,0.74082 34.88131,-4.94043 50.8358,-13.35518 5.47817,-4.88254 5.77031,-9.76507 5.60055,-14.64761 1.6843,-12.49355 -0.59717,-24.98709 -3.44648,-37.48064 l -20.24816,-46.5277 c -23.13155,-16.38067 -60.26159,-24.089288 -81.42347,9.04705 z"
       stroke-opacity="1"
       fill="url(#radialGradient4038)"
       fill-rule="evenodd"
       stroke="url(#linearGradient4040)"
       stroke-linejoin="miter"
       fill-opacity="1"
       stroke-linecap="butt"
       stroke-width="2.408" />
    <path
       inkscape:connector-curvature="0"
       sodipodi:nodetypes="ccscccccc"
       id="path2485"
       d="m 324.02505,120.62022 c 7.01835,-16.89676 7.92141,-29.28795 30.20056,-38.084078 8.11794,-2.459427 14.70498,-4.322308 18.91201,-3.273874 42.4052,10.567804 50.8114,44.487832 51.69744,78.407792 -3.33486,8.4087 -7.30265,15.55155 -12.92436,19.38654 l -4.30812,12.49355 -34.46496,7.75461 -10.33949,-8.18543 c -39.15192,-11.78985 -42.85038,-38.50747 -38.77308,-68.49911 z"
       stroke-opacity="1"
       fill="url(#radialGradient4042)"
       fill-rule="evenodd"
       stroke="url(#linearGradient4044)"
       stroke-linejoin="miter"
       fill-opacity="1"
       stroke-linecap="butt"
       stroke-width="2.408" />
    <path
       inkscape:connector-curvature="0"
       sodipodi:nodetypes="cccc"
       id="path2489"
       d="m 407.2603,147.41983 2.50639,43.6409 -35.75283,6.68946 -7.39863,-39.82819"
       fill="url(#linearGradient4046)"
       fill-rule="evenodd"
       stroke="none"
       fill-opacity="1" />
    <path
       inkscape:connector-curvature="0"
       sodipodi:nodetypes="cccc"
       id="path2491"
       d="m 379.50483,154.66011 c -2.20888,-23.59322 -7.08923,-46.35372 -21.68164,-70.054522 2.06223,-2.472898 3.54163,-5.802818 10.32294,-1.336514 17.07018,22.217656 25.33973,43.552506 26.09889,67.625986"
       fill="#929292"
       fill-rule="evenodd"
       stroke="none"
       fill-opacity="0.174" />
    <path
       d="m 381.31402,150.7402 c -2.20888,-23.59322 -6.18464,-42.43381 -20.77705,-66.134612 2.06223,-2.472898 -1.5844,-5.199756 5.19691,-0.733452 17.07018,22.217654 25.33973,40.838724 26.09889,64.912204"
       id="path4462"
       sodipodi:nodetypes="cccc"
       inkscape:connector-curvature="0"
       fill="#929292"
       fill-rule="evenodd"
       stroke="none"
       fill-opacity="0.174" />
    <path
       inkscape:connector-curvature="0"
       sodipodi:nodetypes="ccc"
       id="path4464"
       d="m 383.12321,147.12183 c -2.20888,-23.59322 -5.28005,-37.91085 -19.87246,-61.611648 10.6531,10.241564 25.92565,49.412638 26.4713,61.163438"
       fill="#929292"
       fill-rule="evenodd"
       stroke="none"
       fill-opacity="0.174" />
  </g>
</svg>
