<?xml version="1.0" encoding="UTF-8" standalone="no"?>
<!-- Created with Inkscape (http://www.inkscape.org/) -->

<svg
   xmlns:dc="http://purl.org/dc/elements/1.1/"
   xmlns:cc="http://creativecommons.org/ns#"
   xmlns:rdf="http://www.w3.org/1999/02/22-rdf-syntax-ns#"
   xmlns:svg="http://www.w3.org/2000/svg"
   xmlns="http://www.w3.org/2000/svg"
   xmlns:xlink="http://www.w3.org/1999/xlink"
   xmlns:sodipodi="http://sodipodi.sourceforge.net/DTD/sodipodi-0.dtd"
   xmlns:inkscape="http://www.inkscape.org/namespaces/inkscape"
   id="svg2"
   inkscape:version="0.92.4 (5da689c313, 2019-01-14)"
   width="256"
   height="256"
   viewBox="0 0 256 256"
   sodipodi:docname="folder-blender.svg"
   version="1.1">
  <metadata
     id="metadata8">
    <rdf:RDF>
      <cc:Work>
        <dc:format>image/svg+xml</dc:format>
        <dc:type
           rdf:resource="http://purl.org/dc/dcmitype/StillImage" />
        <dc:title></dc:title>
      </cc:Work>
    </rdf:RDF>
  </metadata>
  <defs
     id="defs6">
    <linearGradient
       inkscape:collect="always"
       id="linearGradient4223">
      <stop
         id="stop4225"
         stop-color="#bebebe"
         stop-opacity="0.803" />
      <stop
         offset="1"
         id="stop4227"
         stop-color="#9f9f9f"
         stop-opacity="0.732" />
    </linearGradient>
    <linearGradient
       inkscape:collect="always"
       id="linearGradient4211">
      <stop
         id="stop4213"
         stop-color="#9f9f9f"
         stop-opacity="0.634" />
      <stop
         offset="1"
         id="stop4215"
         stop-color="#696969"
         stop-opacity="0" />
    </linearGradient>
    <linearGradient
       inkscape:collect="always"
       id="linearGradient4171">
      <stop
         id="stop4173"
         stop-color="#848484"
         stop-opacity="0.623" />
      <stop
         offset="1"
         id="stop4175"
         stop-color="#cdcdcd"
         stop-opacity="0.698" />
    </linearGradient>
    <linearGradient
       inkscape:collect="always"
       id="linearGradient4142">
      <stop
         id="stop4144"
         stop-color="#909090"
         stop-opacity="0.519" />
      <stop
         offset="1"
         id="stop4146"
         stop-color="#696969"
         stop-opacity="0" />
    </linearGradient>
    <linearGradient
       inkscape:collect="always"
       xlink:href="#linearGradient4142"
       id="linearGradient4148"
       x1="165.74"
       y1="63.25"
       x2="278.75"
       y2="324.36"
       gradientUnits="userSpaceOnUse" />
    <linearGradient
       inkscape:collect="always"
       xlink:href="#linearGradient4171"
       id="linearGradient4177"
       x1="379.78"
       y1="106.85"
       x2="387.93"
       y2="114.16"
       gradientUnits="userSpaceOnUse"
       spreadMethod="reflect" />
    <linearGradient
       inkscape:collect="always"
       xlink:href="#linearGradient4171"
       id="linearGradient4207"
       gradientUnits="userSpaceOnUse"
       spreadMethod="reflect"
       x1="381.27"
       y1="108.46"
       x2="387.93"
       y2="114.16"
       gradientTransform="translate(26.808511,-26.382979)" />
    <linearGradient
       inkscape:collect="always"
       xlink:href="#linearGradient4211"
       id="linearGradient4217"
       x1="284.7"
       y1="61.711"
       x2="281.1"
       y2="125.1"
       gradientUnits="userSpaceOnUse" />
    <linearGradient
       inkscape:collect="always"
       xlink:href="#linearGradient4223"
       id="linearGradient4229"
       x1="259.02"
       y1="93.26"
       x2="255.7"
       y2="103.09"
       gradientUnits="userSpaceOnUse" />
    <linearGradient
       inkscape:collect="always"
       xlink:href="#linearGradient4223"
       id="linearGradient4237"
       x1="262.84"
       y1="102.54"
       x2="258.99"
       y2="117.29"
       gradientUnits="userSpaceOnUse" />
    <filter
       inkscape:collect="always"
       id="filter4257"
       x="-0.024"
       width="1.049"
       y="-0.068"
       height="1.136"
       color-interpolation-filters="sRGB">
      <feGaussianBlur
         inkscape:collect="always"
         stdDeviation="2.75443"
         id="feGaussianBlur4259" />
    </filter>
    <filter
       inkscape:collect="always"
       style="color-interpolation-filters:sRGB"
       id="filter4175"
       x="-0.028109536"
       width="1.0562191"
       y="-0.050048949"
       height="1.1000979">
      <feGaussianBlur
         inkscape:collect="always"
         stdDeviation="3.5625119"
         id="feGaussianBlur4177" />
    </filter>
    <linearGradient
       id="linearGradient4223-6"
       inkscape:collect="always">
      <stop
         id="stop4225-7"
         offset="0"
         style="stop-color:#cf8f35;stop-opacity:0.62433863" />
      <stop
         id="stop4227-5"
         offset="1"
         style="stop-color:#cf8f35;stop-opacity:0;" />
    </linearGradient>
    <linearGradient
       id="linearGradient4246">
      <stop
         id="stop4248"
         offset="0"
         style="stop-color:#c17d1b;stop-opacity:1" />
      <stop
         style="stop-color:#ece3d6;stop-opacity:1"
         offset="0.93946582"
         id="stop4252" />
      <stop
         id="stop4250"
         offset="1"
         style="stop-color:#f0ba71;stop-opacity:0" />
    </linearGradient>
    <linearGradient
       id="linearGradient2935">
      <stop
         style="stop-color:#c17d1b;stop-opacity:1"
         offset="0"
         id="stop4238" />
      <stop
         style="stop-color:#f0ba71;stop-opacity:1"
         offset="1"
         id="stop4240" />
    </linearGradient>
    <linearGradient
       id="linearGradient4224">
      <stop
         style="stop-color:#f4edd3;stop-opacity:0;"
         offset="0"
         id="stop4226" />
      <stop
         id="stop4232"
         offset="0.88415688"
         style="stop-color:#d2c2a9;stop-opacity:0" />
      <stop
         style="stop-color:#dcc29c;stop-opacity:0.8509804"
         offset="0.92796385"
         id="stop4228" />
      <stop
         style="stop-color:#907043;stop-opacity:0"
         offset="1"
         id="stop4230" />
    </linearGradient>
    <linearGradient
       id="linearGradient4200">
      <stop
         id="stop4214"
         offset="0"
         style="stop-color:#f4edd3;stop-opacity:0;" />
      <stop
         id="stop4216"
         offset="0.92630917"
         style="stop-color:#ab8856;stop-opacity:0" />
      <stop
         id="stop4218"
         offset="1"
         style="stop-color:#fff5e7;stop-opacity:1" />
    </linearGradient>
    <linearGradient
       id="linearGradient4170">
      <stop
         style="stop-color:#f4edd3;stop-opacity:0;"
         offset="0"
         id="stop4172" />
      <stop
         id="stop4174"
         offset="0.43247542"
         style="stop-color:#f3ddba;stop-opacity:1;" />
      <stop
         style="stop-color:#d28518;stop-opacity:1;"
         offset="0.82770801"
         id="stop4176" />
      <stop
         style="stop-color:#ffe4bf;stop-opacity:1;"
         offset="1"
         id="stop4178" />
    </linearGradient>
    <linearGradient
       id="linearGradient2943"
       inkscape:collect="always">
      <stop
         id="stop2945"
         offset="0"
         style="stop-color:white;stop-opacity:1" />
      <stop
         id="stop2947"
         offset="1"
         style="stop-color:white;stop-opacity:0.3068783" />
    </linearGradient>
    <linearGradient
       id="linearGradient2925">
      <stop
         style="stop-color:#f1b155;stop-opacity:1;"
         offset="0"
         id="stop2931" />
      <stop
         style="stop-color:#ffe4bf;stop-opacity:1;"
         offset="1"
         id="stop2933" />
    </linearGradient>
    <linearGradient
       id="linearGradient2897">
      <stop
         id="stop2899"
         offset="0"
         style="stop-color:#f4edd3;stop-opacity:0;" />
      <stop
         style="stop-color:#f3ddba;stop-opacity:1;"
         offset="0.5"
         id="stop2921" />
      <stop
         id="stop2923"
         offset="0.75"
         style="stop-color:#d28518;stop-opacity:1;" />
      <stop
         id="stop2901"
         offset="1"
         style="stop-color:#ffe4bf;stop-opacity:1;" />
    </linearGradient>
    <linearGradient
       spreadMethod="reflect"
       gradientUnits="userSpaceOnUse"
       y2="81.816803"
       x2="31.332062"
       y1="86.211113"
       x1="83.841362"
       id="linearGradient2903"
       xlink:href="#linearGradient2935"
       inkscape:collect="always" />
    <linearGradient
       spreadMethod="reflect"
       gradientUnits="userSpaceOnUse"
       y2="47.196804"
       x2="77.304871"
       y1="45.97543"
       x1="43.06345"
       id="linearGradient2911"
       xlink:href="#linearGradient2935"
       inkscape:collect="always" />
    <radialGradient
       spreadMethod="reflect"
       gradientUnits="userSpaceOnUse"
       gradientTransform="matrix(0.88124,-3.96578e-3,2.214133e-3,0.342898,7.548225,32.40839)"
       r="51.421871"
       fy="49.362289"
       fx="54.649857"
       cy="49.362289"
       cx="54.649857"
       id="radialGradient2919"
       xlink:href="#linearGradient2897"
       inkscape:collect="always" />
    <linearGradient
       spreadMethod="reflect"
       gradientUnits="userSpaceOnUse"
       y2="67.146309"
       x2="58.181194"
       y1="67.146309"
       x1="31.617887"
       id="linearGradient2949"
       xlink:href="#linearGradient2943"
       inkscape:collect="always" />
    <linearGradient
       gradientTransform="matrix(1.866661,1.855621,-1.5491262,1.5583427,114.91269,-81.231364)"
       y2="47.196804"
       x2="77.304871"
       y1="47.82769"
       x1="31.359205"
       spreadMethod="reflect"
       gradientUnits="userSpaceOnUse"
       id="linearGradient2963"
       xlink:href="#linearGradient2935"
       inkscape:collect="always" />
    <linearGradient
       gradientTransform="matrix(1.866661,1.855621,-1.5491262,1.5583427,114.91269,-81.231364)"
       y2="81.816803"
       x2="31.332062"
       y1="86.211113"
       x1="83.841362"
       spreadMethod="reflect"
       gradientUnits="userSpaceOnUse"
       id="linearGradient2965"
       xlink:href="#linearGradient2935"
       inkscape:collect="always" />
    <radialGradient
       r="51.421871"
       fy="49.362289"
       fx="54.649857"
       cy="49.362289"
       cx="54.649857"
       spreadMethod="reflect"
       gradientTransform="matrix(1.6629179,1.6170345,-0.7122683,0.7357402,80.583879,-18.642746)"
       gradientUnits="userSpaceOnUse"
       id="radialGradient2967"
       xlink:href="#linearGradient4170"
       inkscape:collect="always" />
    <radialGradient
       spreadMethod="reflect"
       gradientUnits="userSpaceOnUse"
       gradientTransform="matrix(-1.3495445,0.89811764,-1.1292219,-1.6968101,471.38045,-102.901)"
       r="106.95588"
       fy="20.120829"
       fx="187.52667"
       cy="20.120829"
       cx="187.52667"
       id="radialGradient4198"
       xlink:href="#linearGradient4200"
       inkscape:collect="always" />
    <radialGradient
       r="106.95588"
       fy="20.120829"
       fx="187.52667"
       cy="20.120829"
       cx="187.52667"
       spreadMethod="pad"
       gradientTransform="matrix(-1.2259556,0.94342079,-1.023095,-1.3294906,446.06888,-118.78733)"
       gradientUnits="userSpaceOnUse"
       id="radialGradient4222"
       xlink:href="#linearGradient4224"
       inkscape:collect="always" />
    <radialGradient
       spreadMethod="pad"
       gradientUnits="userSpaceOnUse"
       gradientTransform="matrix(1.5810526,1.3605715,-1.2612959,1.4656897,245.0006,-155.30955)"
       r="87.888222"
       fy="213.22336"
       fx="37.482128"
       cy="213.22336"
       cx="37.482128"
       id="radialGradient4244"
       xlink:href="#linearGradient4246"
       inkscape:collect="always" />
    <linearGradient
       y2="47.196804"
       x2="77.304871"
       y1="47.82769"
       x1="31.359205"
       spreadMethod="reflect"
       gradientTransform="matrix(-1.866661,1.855621,1.5491262,1.5583427,143.1606,-81.231364)"
       gradientUnits="userSpaceOnUse"
       id="linearGradient4209"
       xlink:href="#linearGradient2935"
       inkscape:collect="always" />
    <linearGradient
       y2="81.816803"
       x2="31.332062"
       y1="86.211113"
       x1="83.841362"
       spreadMethod="reflect"
       gradientTransform="matrix(-1.866661,1.855621,1.5491262,1.5583427,143.1606,-81.231364)"
       gradientUnits="userSpaceOnUse"
       id="linearGradient4211-3"
       xlink:href="#linearGradient2935"
       inkscape:collect="always" />
    <radialGradient
       r="87.888222"
       fy="213.22336"
       fx="37.482128"
       cy="213.22336"
       cx="37.482128"
       spreadMethod="pad"
       gradientTransform="matrix(-1.5810526,1.3605715,1.2612959,1.4656897,13.072689,-155.30955)"
       gradientUnits="userSpaceOnUse"
       id="radialGradient4213"
       xlink:href="#linearGradient4246"
       inkscape:collect="always" />
    <radialGradient
       r="51.421871"
       fy="49.362289"
       fx="54.649857"
       cy="49.362289"
       cx="54.649857"
       spreadMethod="reflect"
       gradientTransform="matrix(-1.6629179,1.6170345,0.7122683,0.7357402,177.48941,-18.642746)"
       gradientUnits="userSpaceOnUse"
       id="radialGradient4215"
       xlink:href="#linearGradient4170"
       inkscape:collect="always" />
    <radialGradient
       r="106.95588"
       fy="20.120829"
       fx="187.52667"
       cy="20.120829"
       cx="187.52667"
       spreadMethod="reflect"
       gradientTransform="matrix(1.3495445,0.89811764,1.1292219,-1.6968101,-213.30716,-102.901)"
       gradientUnits="userSpaceOnUse"
       id="radialGradient4217"
       xlink:href="#linearGradient4200"
       inkscape:collect="always" />
    <radialGradient
       r="106.95588"
       fy="20.120829"
       fx="187.52667"
       cy="20.120829"
       cx="187.52667"
       spreadMethod="pad"
       gradientTransform="matrix(1.2259556,0.94342079,1.023095,-1.3294906,-187.99559,-118.78733)"
       gradientUnits="userSpaceOnUse"
       id="radialGradient4219"
       xlink:href="#linearGradient4224"
       inkscape:collect="always" />
    <linearGradient
       gradientUnits="userSpaceOnUse"
       y2="94.130104"
       x2="94.553474"
       y1="83.404633"
       x1="82.699005"
       id="linearGradient4229-5"
       xlink:href="#linearGradient4223-6"
       inkscape:collect="always" />
    <linearGradient
       gradientTransform="rotate(92.191898,129.6776,120.58591)"
       y2="94.130104"
       x2="94.553474"
       y1="83.404633"
       x1="82.699005"
       gradientUnits="userSpaceOnUse"
       id="linearGradient4233"
       xlink:href="#linearGradient4223-6"
       inkscape:collect="always" />
  </defs>
  <sodipodi:namedview
     pagecolor="#ffffff"
     bordercolor="#666666"
     borderopacity="1"
     objecttolerance="10"
     gridtolerance="10"
     guidetolerance="10"
     inkscape:pageopacity="0"
     inkscape:pageshadow="2"
     inkscape:window-width="1920"
     inkscape:window-height="1056"
     id="namedview4"
     showgrid="false"
     inkscape:snap-global="false"
     inkscape:zoom="3.4492188"
     inkscape:cx="128"
     inkscape:cy="128"
     inkscape:window-x="0"
     inkscape:window-y="0"
     inkscape:window-maximized="1"
     inkscape:current-layer="svg2" />
  <g
     id="g4261"
     transform="matrix(0.77077081,0,0,0.77077081,-80.173665,-18.213863)">
    <path
       sodipodi:nodetypes="ccccccc"
       inkscape:connector-curvature="0"
       id="path4150"
       d="m 177.77778,215.83334 -80.555558,82.4074 255.555558,88.42593 38.75029,-40.87068 c 4.63488,-1.3015 9.96817,-1.38077 9.86082,-10.98118 L 396.29629,282.5 Z"
       style="fill:#000000;fill-opacity:0.27300002;fill-rule:evenodd;stroke:none;stroke-width:1;stroke-linecap:butt;stroke-linejoin:miter;stroke-opacity:1;filter:url(#filter4175)" />
    <path
       sodipodi:nodetypes="ccccccc"
       inkscape:connector-curvature="0"
       id="path4239"
       d="m 137.15847,253.33333 1.0929,10.92897 c 1.69466,2.56439 1.62485,5.1824 6.55737,7.10382 l 234.9905,77.59563 c 4.36168,2.76045 7.27409,1.93611 10.91114,-1.0929 l 16.39344,-17.48633 z"
       style="fill:#000000;fill-opacity:0.51399997;fill-rule:evenodd;stroke:none;stroke-width:1;stroke-linecap:butt;stroke-linejoin:miter;stroke-opacity:1;filter:url(#filter4257)" />
    <path
       sodipodi:nodetypes="ccccsccccccc"
       inkscape:connector-curvature="0"
       id="path4198"
       d="M 146.27659,241.2766 139.89362,67.340426 c -0.0538,-6.437983 2.49923,-9.41706 7.97872,-7.978724 l 135.10638,37.234043 c 8.12648,2.325734 17.80936,-1.266511 19.14894,-15.425533 0.93604,-9.893676 4.6708,-17.669623 18.61702,-14.893617 l 85.6383,19.680851 c 6.41139,1.511285 7.81765,4.447577 7.4468,11.702128 l -2.12765,230.851066 -5.31915,5.85106 -254.86675,-84.34164 z"
       style="fill:#000000;fill-opacity:0.73000004;fill-rule:evenodd;stroke:none;stroke-width:1;stroke-linecap:butt;stroke-linejoin:miter;stroke-opacity:1" />
    <path
       d="M 146.27659,241.2766 139.89362,67.340426 c -0.0538,-6.437983 2.49923,-9.41706 7.97872,-7.978724 l 135.10638,37.234043 c 8.12648,2.325734 17.80936,-1.266511 19.14894,-15.425533 0.93604,-9.893676 4.6708,-17.669623 18.61702,-14.893617 l 85.6383,19.680851 c 6.41139,1.511285 7.81765,4.447577 7.4468,11.702128 l -2.12765,230.851066 -5.31915,5.85106 -254.86675,-84.34164 z"
       id="path4209"
       inkscape:connector-curvature="0"
       sodipodi:nodetypes="ccccsccccccc"
       style="fill:url(#linearGradient4217);fill-opacity:1;fill-rule:evenodd;stroke:none;stroke-width:1;stroke-linecap:butt;stroke-linejoin:miter;stroke-opacity:1" />
    <path
       sodipodi:nodetypes="ccccc"
       d="m 142.62295,64.262295 267.21311,65.573775 1.0929,194.53552 -256.8306,-92.89618 z"
       id="path4221"
       inkscape:connector-curvature="0"
       style="fill:url(#linearGradient4229);fill-opacity:1;fill-rule:evenodd;stroke:#cecece;stroke-width:1;stroke-linecap:butt;stroke-linejoin:miter;stroke-opacity:0.70499998" />
    <path
       inkscape:connector-curvature="0"
       id="path4219"
       d="m 136.61202,73.005464 267.21311,65.573776 4.37159,189.07104 -260.10929,-87.4317 z"
       style="fill:url(#linearGradient4237);fill-opacity:1;fill-rule:evenodd;stroke:#cecece;stroke-width:1;stroke-linecap:butt;stroke-linejoin:miter;stroke-opacity:0.70499998" />
    <path
       sodipodi:nodetypes="cccscccccccc"
       inkscape:connector-curvature="0"
       id="path4138"
       d="m 116.2037,92.685185 c 1.13182,-4.540599 4.63483,-9.034209 10.68729,-7.545261 L 261.11111,123.7037 c 6.48148,1.63624 16.36287,0.33244 20.83334,-11.11111 4.00878,-10.26173 10.87392,-18.779525 25.46296,-16.203701 l 68.51852,13.888891 c 12.25335,3.29007 11.96705,11.68066 12.96296,18.51851 l 12.5,205.55556 c 0.64976,7.44283 -5.7507,13.21303 -12.96296,10.18518 L 144.90741,262.59259 c -4.92216,-1.55932 -8.93994,-3.09709 -9.25926,-10.18518 z"
       style="fill:#000000;fill-opacity:0.76999996;fill-rule:evenodd;stroke:none;stroke-width:1;stroke-linecap:butt;stroke-linejoin:miter;stroke-opacity:1" />
    <path
       d="m 116.2037,92.685185 c 1.13182,-4.540599 4.63483,-9.034209 10.68729,-7.545261 L 261.11111,123.7037 c 6.48148,1.63624 16.36287,0.33244 20.83334,-11.11111 4.00878,-10.26173 10.87392,-18.779525 25.46296,-16.203701 l 68.51852,13.888891 c 12.25335,3.29007 11.96705,11.68066 12.96296,18.51851 l 12.5,205.55556 c 0.64976,7.44283 -5.7507,13.21303 -12.96296,10.18518 L 209.72222,283.88889 C 173.76467,257.82993 120.35853,138.21611 116.2037,92.685185 Z"
       id="path4140"
       inkscape:connector-curvature="0"
       sodipodi:nodetypes="cccsccccccc"
       style="fill:url(#linearGradient4148);fill-opacity:1;fill-rule:evenodd;stroke:none;stroke-width:1;stroke-linecap:butt;stroke-linejoin:miter;stroke-opacity:1" />
    <path
       id="path4164"
       d="m 130.29688,79.757812 c -3.73674,-0.05935 -6.2712,2.374412 -7.66211,5.353516 1.24508,-0.330919 2.6592,-0.363492 4.25585,0.0293 l 134.22071,38.562492 c 5.49861,1.38812 13.44221,0.65773 18.45508,-6.58203 -4.30627,2.38583 -9.16625,2.43292 -12.90039,1.49024 L 132.44727,80.046875 c -0.75656,-0.186118 -1.47316,-0.278306 -2.15039,-0.289063 z m 177.54687,11.074219 c -7.10689,0.02874 -11.9932,3.152137 -15.51367,7.738281 3.82724,-2.318415 8.71897,-3.304404 15.07812,-2.18164 l 68.51758,13.888668 c 12.25335,3.29007 11.96698,11.68169 12.96289,18.51954 l 12.5,205.55468 c 0.1753,2.00795 -0.17581,3.88521 -0.90429,5.50977 4.09619,-1.28823 6.90142,-5.55587 6.46093,-10.60156 l -12.5,-205.55665 c -0.99591,-6.83785 -0.70954,-15.2275 -12.96289,-18.51757 L 312.96289,91.296875 c -1.82363,-0.321978 -3.52737,-0.47128 -5.11914,-0.464844 z"
       inkscape:connector-curvature="0"
       style="fill:#848484;fill-opacity:1;fill-rule:evenodd;stroke:none;stroke-width:1;stroke-linecap:butt;stroke-linejoin:miter;stroke-opacity:1" />
    <path
       sodipodi:nodetypes="ccccc"
       inkscape:connector-curvature="0"
       d="m 375.92578,110.27734 c 12.25335,3.29007 11.96698,11.68169 12.96289,18.51954 2.18404,-2.05828 3.13422,-2.71335 5.55664,-5.09376 -0.99591,-6.83785 -0.70954,-15.2275 -12.96289,-18.51757 -2.39781,2.28773 -2.9924,2.79876 -5.55664,5.09179 z"
       id="path4169"
       style="fill:url(#linearGradient4177);fill-opacity:1;fill-rule:evenodd;stroke:none;stroke-width:1;stroke-linecap:butt;stroke-linejoin:miter;stroke-opacity:1" />
    <path
       id="path4200"
       d="m 151.9043,54.332031 c -2.67378,0.112285 -4.27807,1.802415 -4.90039,4.837891 0.28199,0.05237 0.56972,0.11281 0.86914,0.191406 l 135.10547,37.234375 c 5.41154,1.54874 11.51034,0.467116 15.3789,-4.605469 -2.77183,0.801996 -5.76159,0.727663 -8.57031,-0.07617 L 154.68164,54.681641 c -1.0274,-0.269688 -1.9536,-0.384203 -2.77734,-0.34961 z m 170.88281,6.701172 c -5.39865,-0.126557 -8.73663,1.852669 -10.81445,5.035156 2.34672,-0.518874 5.2277,-0.496408 8.77148,0.208985 l 85.63867,19.679687 c 6.41139,1.511285 7.81812,4.448574 7.44727,11.703125 l -2.12891,230.849614 -0.47461,0.52148 1.96485,0.65039 5.31836,-5.85156 2.1289,-230.851564 c 0.37085,-7.254551 -1.03587,-10.189887 -7.44726,-11.701172 L 327.55273,61.595703 c -1.74327,-0.347001 -3.32697,-0.528775 -4.76562,-0.5625 z"
       inkscape:connector-curvature="0"
       style="fill:#858585;fill-opacity:1;fill-rule:evenodd;stroke:none;stroke-width:1;stroke-linecap:butt;stroke-linejoin:miter;stroke-opacity:1" />
    <path
       id="path4205"
       d="m 403.12392,85.141164 c 12.4021,2.867396 10.71654,4.984484 10.70306,18.467586 2.18404,-2.05828 4.25114,-3.752349 6.67356,-6.132759 0.48467,-12.136762 1.00482,-14.993724 -11.89791,-17.244792 -2.39781,2.28773 -2.91447,2.616935 -5.47871,4.909965 z"
       inkscape:connector-curvature="0"
       sodipodi:nodetypes="ccccc"
       style="fill:url(#linearGradient4207);fill-opacity:1;fill-rule:evenodd;stroke:none;stroke-width:1;stroke-linecap:butt;stroke-linejoin:miter;stroke-opacity:1" />
  </g>
  <g
     id="g4023"
     transform="matrix(0.67327478,0,0,0.67327478,17.474659,86.000561)">
    <path
       inkscape:connector-curvature="0"
       d="m 232.96298,208.58694 c 0.0533,-0.0525 0.10632,-0.10527 0.1591,-0.15836 l -23.48036,23.13135 c -0.0528,0.0531 -0.1058,0.10587 -0.15908,0.15838 z"
       id="path2845"
       style="fill:#cccccc;fill-opacity:1;stroke:none;stroke-width:0;stroke-linecap:round;stroke-linejoin:round;stroke-miterlimit:4;stroke-dasharray:none;stroke-opacity:1" />
    <path
       sodipodi:nodetypes="sccsccs"
       inkscape:connector-curvature="0"
       style="fill:url(#linearGradient2963);fill-opacity:1;stroke:none;stroke-width:0;stroke-linecap:round;stroke-linejoin:round;stroke-miterlimit:4;stroke-dasharray:none;stroke-opacity:1"
       d="M 168.781,79.016294 C 126.82119,37.304649 79.44267,16.863101 62.825626,33.233161 l -17.87942,17.25813 C 61.563255,34.12124 108.94177,54.56278 150.90158,96.274424 c 42.06679,41.817996 62.76741,89.228036 46.2656,105.828026 L 215.0466,184.84432 C 231.54842,168.24433 210.84779,120.83429 168.781,79.016294 Z"
       id="path2849" />
    <path
       inkscape:connector-curvature="0"
       d="m 215.0466,184.84432 c -0.042,0.0422 -0.0841,0.0842 -0.1265,0.12593 l -23.48035,23.13135 c 0.0424,-0.0417 0.0845,-0.0837 0.1265,-0.12593 z"
       id="path2851"
       style="fill:#cccccc;fill-opacity:1;stroke:none;stroke-width:0;stroke-linecap:round;stroke-linejoin:round;stroke-miterlimit:4;stroke-dasharray:none;stroke-opacity:1" />
    <path
       inkscape:connector-curvature="0"
       d="m 62.680396,33.379255 c 0.04197,-0.04221 0.08414,-0.0842 0.126496,-0.125927 L 39.326543,56.38468 c -0.04237,0.04175 -0.08453,0.08371 -0.126512,0.125943 z"
       id="path2857"
       style="fill:#cccccc;fill-opacity:1;stroke:none;stroke-width:0;stroke-linecap:round;stroke-linejoin:round;stroke-miterlimit:4;stroke-dasharray:none;stroke-opacity:1" />
    <path
       sodipodi:nodetypes="ccsccsc"
       inkscape:connector-curvature="0"
       style="fill:url(#linearGradient2965);fill-opacity:1;stroke:none;stroke-width:0;stroke-linecap:round;stroke-linejoin:round;stroke-miterlimit:4;stroke-dasharray:none;stroke-opacity:1"
       d="M 41.147661,17.589553 26.21077,33.964925 C 5.4268405,54.872508 31.522831,114.57316 84.505681,167.24265 137.35398,219.77839 197.11087,245.56804 218.03996,224.95004 l 14.93689,-16.37537 C 212.04778,229.19268 152.29088,203.40302 99.442573,150.86728 46.459724,98.197785 20.363732,38.497136 41.147661,17.589553 Z"
       id="path2841" />
    <path
       id="path4234"
       d="M 168.781,79.016294 C 126.82119,37.304649 79.44267,16.863101 62.825626,33.233161 l -17.87942,17.25813 C 61.563255,34.12124 108.94177,54.56278 150.90158,96.274424 c 42.06679,41.817996 62.76741,89.228036 46.2656,105.828026 L 215.0466,184.84432 C 231.54842,168.24433 210.84779,120.83429 168.781,79.016294 Z"
       style="fill:url(#radialGradient4244);fill-opacity:1;stroke:none;stroke-width:0;stroke-linecap:round;stroke-linejoin:round;stroke-miterlimit:4;stroke-dasharray:none;stroke-opacity:1"
       inkscape:connector-curvature="0"
       sodipodi:nodetypes="sccsccs" />
    <path
       inkscape:connector-curvature="0"
       id="path4221-6"
       d="m 70.562293,101.89195 37.539137,-39.514883 8.18523,7.620728 -39.232636,40.643885 z"
       style="fill:url(#linearGradient4229-5);fill-opacity:1;fill-rule:evenodd;stroke:none;stroke-width:1px;stroke-linecap:butt;stroke-linejoin:miter;stroke-opacity:1" />
    <path
       style="fill:url(#radialGradient2967);fill-opacity:1;stroke:none;stroke-width:2.5;stroke-linecap:round;stroke-linejoin:round;stroke-miterlimit:4;stroke-dasharray:none;stroke-opacity:0"
       id="path1873"
       d="M 173.47558,76.801338 C 120.49274,24.131847 60.686739,-1.6582439 39.902799,19.24935 c -20.78394,20.907593 5.31204,80.608252 58.29489,133.27774 52.982851,52.66949 112.895571,78.46886 133.679511,57.56126 20.78394,-20.90759 -5.41877,-80.61752 -58.40162,-133.287012 z m -5.93942,3.874735 c 42.06679,41.817997 62.76741,89.228037 46.26558,105.828037 -16.50182,16.60001 -63.98541,-3.86772 -106.05221,-45.68572 C 65.682739,99.0004 44.933709,51.639053 61.435539,35.03905 77.937359,18.439052 125.46936,38.858076 167.53616,80.676073 Z"
       inkscape:connector-curvature="0" />
    <path
       id="path4196"
       d="M 41.147661,17.589553 26.21077,33.964925 C 5.4268405,54.872508 31.522831,114.57316 84.505681,167.24265 137.35398,219.77839 197.11087,245.56804 218.03996,224.95004 l 14.93689,-16.37537 C 212.04778,229.19268 152.29088,203.40302 99.442573,150.86728 46.459724,98.197785 20.363732,38.497136 41.147661,17.589553 Z"
       style="fill:url(#radialGradient4198);fill-opacity:1;stroke:none;stroke-width:0;stroke-linecap:round;stroke-linejoin:round;stroke-miterlimit:4;stroke-dasharray:none;stroke-opacity:1"
       inkscape:connector-curvature="0"
       sodipodi:nodetypes="ccsccsc" />
    <path
       sodipodi:nodetypes="ccsccsc"
       inkscape:connector-curvature="0"
       style="fill:url(#radialGradient4222);fill-opacity:1;stroke:none;stroke-width:0;stroke-linecap:round;stroke-linejoin:round;stroke-miterlimit:4;stroke-dasharray:none;stroke-opacity:1"
       d="M 41.147661,17.589553 26.21077,33.964925 C 5.4268405,54.872508 31.522831,114.57316 84.505681,167.24265 137.35398,219.77839 197.11087,245.56804 218.03996,224.95004 l 14.93689,-16.37537 C 212.04778,229.19268 154.36557,200.49846 101.51726,147.96272 48.534413,95.293221 20.363732,38.497136 41.147661,17.589553 Z"
       id="path4210" />
    <path
       style="fill:#cccccc;fill-opacity:1;stroke:none;stroke-width:0;stroke-linecap:round;stroke-linejoin:round;stroke-miterlimit:4;stroke-dasharray:none;stroke-opacity:1"
       id="path4190"
       d="m 25.110309,208.58694 c -0.0533,-0.0525 -0.10632,-0.10527 -0.1591,-0.15836 l 23.48036,23.13135 c 0.0528,0.0531 0.1058,0.10587 0.15908,0.15838 z"
       inkscape:connector-curvature="0" />
    <path
       id="path4192"
       d="M 72.509768,97.304175 C 77.630254,91.164736 83.240148,85.032641 89.292289,79.016294 131.2521,37.304647 178.63062,16.863101 195.24766,33.233161 l 17.87942,17.25813 C 196.51003,34.12124 149.13152,54.562778 107.17171,96.274424 99.950385,103.45304 93.358685,110.79644 87.476719,118.12049 81.855442,111.4527 76.789047,104.54711 72.509768,97.304175 Z M 67.110411,148.45823 C 54.233348,172.19337 51.180524,192.319 60.906109,202.10245 l -17.87942,-17.25813 c -10.326467,-10.3879 -7.019802,-31.33015 7.909771,-56.92788 z"
       style="fill:url(#linearGradient4209);fill-opacity:1;stroke:none;stroke-width:0;stroke-linecap:round;stroke-linejoin:round;stroke-miterlimit:4;stroke-dasharray:none;stroke-opacity:1"
       inkscape:connector-curvature="0"
       sodipodi:nodetypes="csccsccccccc" />
    <path
       style="fill:#cccccc;fill-opacity:1;stroke:none;stroke-width:0;stroke-linecap:round;stroke-linejoin:round;stroke-miterlimit:4;stroke-dasharray:none;stroke-opacity:1"
       id="path4194"
       d="m 43.026689,184.84432 c 0.042,0.0422 0.0841,0.0842 0.1265,0.12593 l 23.48035,23.13135 c -0.0424,-0.0417 -0.0845,-0.0837 -0.1265,-0.12593 z"
       inkscape:connector-curvature="0" />
    <path
       style="fill:#cccccc;fill-opacity:1;stroke:none;stroke-width:0;stroke-linecap:round;stroke-linejoin:round;stroke-miterlimit:4;stroke-dasharray:none;stroke-opacity:1"
       id="path4197"
       d="m 195.39289,33.379255 c -0.042,-0.04221 -0.0841,-0.0842 -0.12649,-0.125927 l 23.48035,23.131352 c 0.0424,0.04175 0.0845,0.08371 0.12651,0.125943 z"
       inkscape:connector-curvature="0" />
    <path
       id="path4199"
       d="m 216.92563,17.589553 14.93689,16.375372 c 20.78393,20.907583 -5.31206,80.608235 -58.29491,133.277725 -52.8483,52.53574 -112.605191,78.32539 -133.534281,57.70739 l -14.93689,-16.37537 c 20.92907,20.61801 80.685971,-5.17165 133.534281,-57.70739 52.98284,-52.669495 79.07884,-112.370144 58.29491,-133.277727 z"
       style="fill:url(#linearGradient4211-3);fill-opacity:1;stroke:none;stroke-width:0;stroke-linecap:round;stroke-linejoin:round;stroke-miterlimit:4;stroke-dasharray:none;stroke-opacity:1"
       inkscape:connector-curvature="0"
       sodipodi:nodetypes="ccsccsc" />
    <path
       sodipodi:nodetypes="csccsccccccc"
       inkscape:connector-curvature="0"
       style="fill:url(#radialGradient4213);fill-opacity:1;stroke:none;stroke-width:0;stroke-linecap:round;stroke-linejoin:round;stroke-miterlimit:4;stroke-dasharray:none;stroke-opacity:1"
       d="M 72.39174,97.432476 C 77.427407,91.418475 83.363471,84.910047 89.292289,79.016294 131.2521,37.304647 178.63062,16.863101 195.24766,33.233161 l 17.87942,17.25813 C 196.51003,34.12124 149.13152,54.562778 107.17171,96.274424 100.11508,103.28931 93.29998,110.74933 87.520571,117.90711 Z m -5.449489,51.244094 c -12.616125,23.48936 -15.682685,43.72194 -6.036142,53.42588 l -17.87942,-17.25813 c -10.190192,-10.25081 -6.625627,-31.96265 7.827897,-57.13915 z"
       id="path4201" />
    <path
       sodipodi:nodetypes="cssssccsssscc"
       inkscape:connector-curvature="0"
       d="M 69.673985,92.321353 C 74.225069,87.206379 79.54123,81.827911 84.597709,76.801338 137.58055,24.131851 197.38655,-1.6582439 218.17049,19.24935 238.95443,40.156943 212.85845,99.857602 159.8756,152.52709 106.89275,205.19658 46.980034,230.99594 26.196089,210.08835 11.316273,195.12001 20.591579,159.90368 46.463309,121.98086 l 5.34843,7.03671 c -14.921583,25.59072 -17.864391,47.10092 -7.54019,57.48654 16.50183,16.6 63.985411,-3.86772 106.052211,-45.68572 C 192.39055,99.0004 213.13958,51.639053 196.63775,35.03905 180.13593,18.439052 132.60392,38.858073 90.537129,80.676073 84.586209,86.591798 78.703156,92.9072 73.652225,98.943688 c -2.039454,-1.779421 -2.82752,-4.309674 -3.97824,-6.622335 z"
       id="path4203"
       style="fill:url(#radialGradient4215);fill-opacity:1;stroke:none;stroke-width:2.5;stroke-linecap:round;stroke-linejoin:round;stroke-miterlimit:4;stroke-dasharray:none;stroke-opacity:0" />
    <path
       sodipodi:nodetypes="ccsccsc"
       inkscape:connector-curvature="0"
       style="fill:url(#radialGradient4217);fill-opacity:1;stroke:none;stroke-width:0;stroke-linecap:round;stroke-linejoin:round;stroke-miterlimit:4;stroke-dasharray:none;stroke-opacity:1"
       d="m 216.92563,17.589553 14.93689,16.375372 c 20.78393,20.907583 -5.31206,80.608235 -58.29491,133.277725 -52.8483,52.53574 -112.605191,78.32539 -133.534281,57.70739 l -14.93689,-16.37537 c 20.92907,20.61801 80.685971,-5.17165 133.534281,-57.70739 52.98284,-52.669495 79.07884,-112.370144 58.29491,-133.277727 z"
       id="path4205-2" />
    <path
       id="path4207"
       d="m 216.92563,17.589553 14.93689,16.375372 c 20.78393,20.907583 -5.31206,80.608235 -58.29491,133.277725 -52.8483,52.53574 -112.605191,78.32539 -133.534281,57.70739 l -14.93689,-16.37537 c 20.92907,20.61801 78.611281,-8.07621 131.459591,-60.61195 52.98285,-52.669499 81.15353,-109.465584 60.3696,-130.373167 z"
       style="fill:url(#radialGradient4219);fill-opacity:1;stroke:none;stroke-width:0;stroke-linecap:round;stroke-linejoin:round;stroke-miterlimit:4;stroke-dasharray:none;stroke-opacity:1"
       inkscape:connector-curvature="0"
       sodipodi:nodetypes="ccsccsc" />
    <path
       sodipodi:nodetypes="ccccc"
       style="fill:url(#linearGradient4233);fill-opacity:1;fill-rule:evenodd;stroke:none;stroke-width:1px;stroke-linecap:butt;stroke-linejoin:miter;stroke-opacity:1"
       d="m 150.61884,62.228837 36.92123,34.506996 -9.0572,11.274757 -36.85564,-39.629419 z"
       id="path4231"
       inkscape:connector-curvature="0" />
  </g>
</svg>
