<?xml version="1.0" encoding="UTF-8" standalone="no"?>
<!-- Created with Inkscape (http://www.inkscape.org/) -->

<svg
   xmlns:dc="http://purl.org/dc/elements/1.1/"
   xmlns:cc="http://creativecommons.org/ns#"
   xmlns:rdf="http://www.w3.org/1999/02/22-rdf-syntax-ns#"
   xmlns:svg="http://www.w3.org/2000/svg"
   xmlns="http://www.w3.org/2000/svg"
   xmlns:xlink="http://www.w3.org/1999/xlink"
   xmlns:sodipodi="http://sodipodi.sourceforge.net/DTD/sodipodi-0.dtd"
   xmlns:inkscape="http://www.inkscape.org/namespaces/inkscape"
   width="256"
   height="256"
   id="svg2"
   sodipodi:version="0.32"
   inkscape:version="0.91 r13725"
   sodipodi:docname="folder-video-xxx.svg"
   inkscape:output_extension="org.inkscape.output.svg.inkscape"
   version="1.1">
  <defs
     id="defs4">
    <filter
       inkscape:collect="always"
       id="filter4047">
      <feGaussianBlur
         inkscape:collect="always"
         stdDeviation="4.45358"
         id="feGaussianBlur4049" />
    </filter>
    <clipPath
       clipPathUnits="userSpaceOnUse"
       id="clipPath4053">
      <path
         sodipodi:nodetypes="sccccccccccccccccccscccccccccccccsccccc"
         inkscape:connector-curvature="0"
         id="path4055"
         d="m -220.2736,46.075255 c -0.88495,-7.39e-4 -1.929,0.164543 -3.1875,0.5 -47.20222,33.431263 -41.28368,49.390136 -45.15625,68.593755 -19.06483,-31.024026 -42.84827,-52.876305 -73.46875,-61.468755 -3.62194,-1.831585 -5.20754,-0.08875 -6.125,2.8125 0.39357,33.284648 19.37073,56.075485 51.03125,71.687505 -13.82031,2.81533 -23.92908,9.11441 -27.5625,21.4375 -4.28993,9.31591 -8.15495,26.14956 3.8125,35.96875 l 19.90625,10.6875 -0.5,10.71875 c 0.8451,3.40923 3.56901,3.96961 7.125,3.3125 l 13.78125,-6.375 5.09375,4.84375 c 1.82327,1.28543 3.74748,2.41682 6.90625,1.03125 l 19.375,-7.65625 c 6.71752,-3.14637 11.87073,-7.32605 12.5,-14.53125 0.66891,-12.82314 2.91515,-25.07112 -1.53125,-39.8125 -0.20976,-5.57442 -2.67575,-7.37679 -4.84375,-9.6875 18.0205,-20.31045 27.65632,-48.404316 27.3125,-85.718755 0.006,-3.460019 -0.63396,-6.340547 -4.46875,-6.34375 z m -5.4375,13.84375 c 0.28446,30.87271 -10.21545,58.195825 -25.125,75.000005 -0.46907,1.67326 -3.67012,3.84914 -1.09375,6.21875 5.20941,5.05367 6.41313,8.80512 6.625,14.3125 -0.52064,5.96134 4.12609,28.04348 -0.15625,32.6875 -4.8571,5.72192 -15.6497,8.9091 -24.96875,12.71875 -2.61346,0.12596 -4.67898,-4.87398 -6.1875,-5.9375 -2.00607,-0.32758 -4.14312,-1.05753 -5.5,0.5625 l -9.625,4.53125 c -2.94211,0.54367 1.94921,-2.49178 1.25,-5.3125 -0.67144,-2.55516 -2.50709,-4.33623 -5.21875,-5.53125 l -18.75,-10.15625 c -9.90147,-8.12407 -5.17435,-22.29233 -1.625,-30 3.85459,-8.22457 26.39154,-14.55923 35.03125,-12.96875 6.11062,1.1249 6.82321,-8.78217 1.78125,-8.09375 -26.19485,-12.91686 -58.45562,-36.336409 -58.78125,-63.875005 36.98357,7.548583 66.09708,64.015865 69.09375,65.531255 1.85746,4.52869 7.56614,5.33837 7.96875,-0.15625 -5.74288,-26.42053 21.88346,-69.003623 35.28125,-69.531255 z"
         fill="#dcdcdc"
         filter="url(#filter4047)"
         stroke="none"
         fill-opacity="1" />
    </clipPath>
    <filter
       inkscape:collect="always"
       id="filter4071">
      <feGaussianBlur
         inkscape:collect="always"
         stdDeviation="2.22679"
         id="feGaussianBlur4073" />
    </filter>
    <filter
       inkscape:collect="always"
       id="filter4144"
       x="-0.168"
       width="1.336"
       y="-0.168"
       height="1.336">
      <feGaussianBlur
         inkscape:collect="always"
         stdDeviation="1.6625"
         id="feGaussianBlur4146" />
    </filter>
    <clipPath
       clipPathUnits="userSpaceOnUse"
       id="clipPath4150">
      <path
         d="m -289.15625,140.9375 c -6.55134,0 -11.875,5.32366 -11.875,11.875 0,6.55134 5.32366,11.875 11.875,11.875 6.55134,0 11.875,-5.32366 11.875,-11.875 0,-6.55134 -5.32366,-11.875 -11.875,-11.875 z m 0,7.15625 c 2.60645,0 4.71875,2.1123 4.71875,4.71875 0,2.60645 -2.1123,4.71875 -4.71875,4.71875 -2.60645,0 -4.71875,-2.1123 -4.71875,-4.71875 0,-2.60645 2.1123,-4.71875 4.71875,-4.71875 z"
         id="path4152"
         inkscape:connector-curvature="0"
         fill="#e8e8e8"
         filter="url(#filter4144)"
         stroke="none"
         fill-opacity="1" />
    </clipPath>
    <filter
       inkscape:collect="always"
       id="filter4458"
       x="-0.023"
       width="1.047"
       y="-0.023"
       height="1.046"
       color-interpolation-filters="sRGB">
      <feGaussianBlur
         inkscape:collect="always"
         stdDeviation="1.58383"
         id="feGaussianBlur4460" />
    </filter>
    <linearGradient
       inkscape:collect="always"
       id="linearGradient4167">
      <stop
         id="stop4169"
         stop-color="#adadad"
         stop-opacity="0.624" />
      <stop
         offset="1"
         id="stop4171"
         stop-color="#ffffff"
         stop-opacity="0.973" />
    </linearGradient>
    <linearGradient
       id="linearGradient4223"
       inkscape:collect="always">
      <stop
         id="stop4225"
         stop-color="#bebebe"
         stop-opacity="0.803" />
      <stop
         id="stop4227"
         offset="1"
         stop-color="#9f9f9f"
         stop-opacity="0.732" />
    </linearGradient>
    <linearGradient
       id="linearGradient4211"
       inkscape:collect="always">
      <stop
         id="stop4213"
         stop-color="#9f9f9f"
         stop-opacity="0.634" />
      <stop
         id="stop4215"
         offset="1"
         stop-color="#696969"
         stop-opacity="0" />
    </linearGradient>
    <linearGradient
       id="linearGradient4171"
       inkscape:collect="always">
      <stop
         id="stop4173"
         stop-color="#b2b2b2"
         stop-opacity="0.624" />
      <stop
         id="stop4175"
         offset="1"
         stop-color="#ffffff"
         stop-opacity="0.698" />
    </linearGradient>
    <linearGradient
       id="linearGradient4142"
       inkscape:collect="always">
      <stop
         id="stop4144"
         stop-color="#909090"
         stop-opacity="0.519" />
      <stop
         id="stop4146"
         offset="1"
         stop-color="#696969"
         stop-opacity="0" />
    </linearGradient>
    <linearGradient
       gradientUnits="userSpaceOnUse"
       y2="324.36"
       x2="278.75"
       y1="63.25"
       x1="165.74"
       id="linearGradient4148"
       xlink:href="#linearGradient4142"
       inkscape:collect="always" />
    <filter
       height="1.1"
       y="-0.05"
       width="1.056"
       x="-0.028"
       id="filter4160"
       inkscape:collect="always"
       color-interpolation-filters="sRGB">
      <feGaussianBlur
         id="feGaussianBlur4162"
         stdDeviation="3.56251"
         inkscape:collect="always" />
    </filter>
    <linearGradient
       spreadMethod="reflect"
       gradientUnits="userSpaceOnUse"
       y2="114.16"
       x2="387.93"
       y1="106.85"
       x1="379.78"
       id="linearGradient4177"
       xlink:href="#linearGradient4167"
       inkscape:collect="always" />
    <linearGradient
       gradientTransform="translate(26.808511,-26.382979)"
       y2="114.16"
       x2="387.93"
       y1="108.46"
       x1="381.27"
       spreadMethod="reflect"
       gradientUnits="userSpaceOnUse"
       id="linearGradient4207"
       xlink:href="#linearGradient4171"
       inkscape:collect="always" />
    <linearGradient
       gradientUnits="userSpaceOnUse"
       y2="125.1"
       x2="281.1"
       y1="61.711"
       x1="284.7"
       id="linearGradient4217"
       xlink:href="#linearGradient4211"
       inkscape:collect="always" />
    <linearGradient
       gradientUnits="userSpaceOnUse"
       y2="103.09"
       x2="255.7"
       y1="93.26"
       x1="259.02"
       id="linearGradient4229"
       xlink:href="#linearGradient4223"
       inkscape:collect="always" />
    <linearGradient
       gradientUnits="userSpaceOnUse"
       y2="117.29"
       x2="258.99"
       y1="102.54"
       x1="262.84"
       id="linearGradient4237"
       xlink:href="#linearGradient4223"
       inkscape:collect="always" />
    <filter
       height="1.136"
       y="-0.068"
       width="1.049"
       x="-0.024"
       id="filter4257"
       inkscape:collect="always"
       color-interpolation-filters="sRGB">
      <feGaussianBlur
         id="feGaussianBlur4259"
         stdDeviation="2.75443"
         inkscape:collect="always" />
    </filter>
  </defs>
  <sodipodi:namedview
     id="base"
     pagecolor="#ffffff"
     bordercolor="#666666"
     borderopacity="1.0"
     gridtolerance="10000"
     guidetolerance="10"
     objecttolerance="10"
     inkscape:pageopacity="0.0"
     inkscape:pageshadow="2"
     inkscape:zoom="3.5351562"
     inkscape:cx="128"
     inkscape:cy="128"
     inkscape:document-units="px"
     inkscape:current-layer="layer1"
     showgrid="false"
     inkscape:window-width="1920"
     inkscape:window-height="1056"
     inkscape:window-x="0"
     inkscape:window-y="0"
     inkscape:window-maximized="1" />
  <metadata
     id="metadata7">
    <rdf:RDF>
      <cc:Work>
        <dc:format>image/svg+xml</dc:format>
        <dc:type
           rdf:resource="http://purl.org/dc/dcmitype/StillImage" />
      </cc:Work>
    </rdf:RDF>
  </metadata>
  <g
     inkscape:label="Layer 1"
     inkscape:groupmode="layer"
     id="layer1">
    <g
       transform="matrix(0.77128144,0,0,0.77128144,-80.375063,-24.14573)"
       id="g4261">
      <path
         d="m 137.15847,253.33333 1.0929,10.92897 c 1.69466,2.56439 1.62485,5.1824 6.55737,7.10382 l 234.9905,77.59563 c 4.36168,2.76045 7.27409,1.93611 10.91114,-1.0929 l 16.39344,-17.48633 z"
         id="path4239"
         inkscape:connector-curvature="0"
         sodipodi:nodetypes="ccccccc"
         stroke-opacity="1"
         fill="#000000"
         filter="url(#filter4257)"
         fill-rule="evenodd"
         stroke="none"
         stroke-linejoin="miter"
         fill-opacity="0.514"
         stroke-linecap="butt"
         stroke-width="1" />
      <path
         d="M 146.27659,241.2766 139.89362,67.340426 c -0.0538,-6.437983 2.49923,-9.41706 7.97872,-7.978724 l 135.10638,37.234043 c 8.12648,2.325734 17.80936,-1.266511 19.14894,-15.425533 0.93604,-9.893676 4.6708,-17.669623 18.61702,-14.893617 l 85.6383,19.680851 c 6.41139,1.511285 7.81765,4.447577 7.4468,11.702128 l -2.12765,230.851066 -5.31915,5.85106 -254.86675,-84.34164 z"
         id="path4198"
         inkscape:connector-curvature="0"
         sodipodi:nodetypes="ccccsccccccc"
         stroke-opacity="1"
         fill="#000000"
         fill-rule="evenodd"
         stroke="none"
         stroke-linejoin="miter"
         fill-opacity="0.73"
         stroke-linecap="butt"
         stroke-width="1" />
      <path
         sodipodi:nodetypes="ccccsccccccc"
         inkscape:connector-curvature="0"
         id="path4209"
         d="M 146.27659,241.2766 139.89362,67.340426 c -0.0538,-6.437983 2.49923,-9.41706 7.97872,-7.978724 l 135.10638,37.234043 c 8.12648,2.325734 17.80936,-1.266511 19.14894,-15.425533 0.93604,-9.893676 4.6708,-17.669623 18.61702,-14.893617 l 85.6383,19.680851 c 6.41139,1.511285 7.81765,4.447577 7.4468,11.702128 l -2.12765,230.851066 -5.31915,5.85106 -254.86675,-84.34164 z"
         stroke-opacity="1"
         fill="url(#linearGradient4217)"
         fill-rule="evenodd"
         stroke="none"
         stroke-linejoin="miter"
         fill-opacity="1"
         stroke-linecap="butt"
         stroke-width="1" />
      <path
         inkscape:connector-curvature="0"
         id="path4221"
         d="m 142.62295,64.262295 267.21311,65.573775 1.0929,194.53552 -256.8306,-92.89618 z"
         sodipodi:nodetypes="ccccc"
         stroke-opacity="0.705"
         fill="url(#linearGradient4229)"
         fill-rule="evenodd"
         stroke="#cecece"
         stroke-linejoin="miter"
         fill-opacity="1"
         stroke-linecap="butt"
         stroke-width="1" />
      <path
         d="m 136.61202,73.005464 267.21311,65.573776 4.37159,189.07104 -260.10929,-87.4317 z"
         id="path4219"
         inkscape:connector-curvature="0"
         stroke-opacity="0.705"
         fill="url(#linearGradient4237)"
         fill-rule="evenodd"
         stroke="#cecece"
         stroke-linejoin="miter"
         fill-opacity="1"
         stroke-linecap="butt"
         stroke-width="1" />
      <path
         d="m 116.2037,92.685185 c 1.13182,-4.540599 4.63483,-9.034209 10.68729,-7.545261 L 261.11111,123.7037 c 6.48148,1.63624 16.36287,0.33244 20.83334,-11.11111 4.00878,-10.26173 10.87392,-18.779525 25.46296,-16.203701 l 68.51852,13.888891 c 12.25335,3.29007 11.96705,11.68066 12.96296,18.51851 l 12.5,205.55556 c 0.64976,7.44283 -5.7507,13.21303 -12.96296,10.18518 L 144.90741,262.59259 c -4.92216,-1.55932 -8.93994,-3.09709 -9.25926,-10.18518 z"
         id="path4138"
         inkscape:connector-curvature="0"
         sodipodi:nodetypes="cccscccccccc"
         stroke-opacity="1"
         fill="#000000"
         fill-rule="evenodd"
         stroke="none"
         stroke-linejoin="miter"
         fill-opacity="0.77"
         stroke-linecap="butt"
         stroke-width="1" />
      <path
         sodipodi:nodetypes="cccsccccccc"
         inkscape:connector-curvature="0"
         id="path4140"
         d="m 116.2037,92.685185 c 1.13182,-4.540599 4.63483,-9.034209 10.68729,-7.545261 L 261.11111,123.7037 c 6.48148,1.63624 16.36287,0.33244 20.83334,-11.11111 4.00878,-10.26173 10.87392,-18.779525 25.46296,-16.203701 l 68.51852,13.888891 c 12.25335,3.29007 11.96705,11.68066 12.96296,18.51851 l 12.5,205.55556 c 0.64976,7.44283 -5.7507,13.21303 -12.96296,10.18518 L 209.72222,283.88889 C 173.76467,257.82993 120.35853,138.21611 116.2037,92.685185 Z"
         stroke-opacity="1"
         fill="url(#linearGradient4148)"
         fill-rule="evenodd"
         stroke="none"
         stroke-linejoin="miter"
         fill-opacity="1"
         stroke-linecap="butt"
         stroke-width="1" />
      <path
         d="m 177.77778,215.83334 -80.555558,82.4074 255.555558,88.42593 38.75029,-40.87068 c 4.63488,-1.3015 9.96817,-1.38077 9.86082,-10.98118 L 396.29629,282.5 Z"
         id="path4150"
         inkscape:connector-curvature="0"
         sodipodi:nodetypes="ccccccc"
         stroke-opacity="1"
         fill="#000000"
         filter="url(#filter4160)"
         fill-rule="evenodd"
         stroke="none"
         stroke-linejoin="miter"
         fill-opacity="0.273"
         stroke-linecap="butt"
         stroke-width="1" />
      <path
         inkscape:connector-curvature="0"
         d="m 130.29688,79.757812 c -3.73674,-0.05935 -6.2712,2.374412 -7.66211,5.353516 1.24508,-0.330919 2.6592,-0.363492 4.25585,0.0293 l 134.22071,38.562492 c 5.49861,1.38812 13.44221,0.65773 18.45508,-6.58203 -4.30627,2.38583 -9.16625,2.43292 -12.90039,1.49024 L 132.44727,80.046875 c -0.75656,-0.186118 -1.47316,-0.278306 -2.15039,-0.289063 z m 177.54687,11.074219 c -7.10689,0.02874 -11.9932,3.152137 -15.51367,7.738281 3.82724,-2.318415 8.71897,-3.304404 15.07812,-2.18164 l 68.51758,13.888668 c 12.25335,3.29007 11.96698,11.68169 12.96289,18.51954 l 12.5,205.55468 c 0.1753,2.00795 -0.17581,3.88521 -0.90429,5.50977 4.09619,-1.28823 6.90142,-5.55587 6.46093,-10.60156 l -12.5,-205.55665 c -0.99591,-6.83785 -0.70954,-15.2275 -12.96289,-18.51757 L 312.96289,91.296875 c -1.82363,-0.321978 -3.52737,-0.47128 -5.11914,-0.464844 z"
         id="path4164"
         stroke-opacity="1"
         fill="#b5b5b5"
         fill-rule="evenodd"
         stroke="none"
         stroke-linejoin="miter"
         fill-opacity="1"
         stroke-linecap="butt"
         stroke-width="1" />
      <path
         id="path4169"
         d="m 375.92578,110.27734 c 12.25335,3.29007 11.96698,11.68169 12.96289,18.51954 2.18404,-2.05828 3.13422,-2.71335 5.55664,-5.09376 -0.99591,-6.83785 -0.70954,-15.2275 -12.96289,-18.51757 -2.39781,2.28773 -2.9924,2.79876 -5.55664,5.09179 z"
         inkscape:connector-curvature="0"
         sodipodi:nodetypes="ccccc"
         stroke-opacity="1"
         fill="url(#linearGradient4177)"
         fill-rule="evenodd"
         stroke="none"
         stroke-linejoin="miter"
         fill-opacity="1"
         stroke-linecap="butt"
         stroke-width="1" />
      <path
         inkscape:connector-curvature="0"
         d="m 151.9043,54.332031 c -2.67378,0.112285 -4.27807,1.802415 -4.90039,4.837891 0.28199,0.05237 0.56972,0.11281 0.86914,0.191406 l 135.10547,37.234375 c 5.41154,1.54874 11.51034,0.467116 15.3789,-4.605469 -2.77183,0.801996 -5.76159,0.727663 -8.57031,-0.07617 L 154.68164,54.681641 c -1.0274,-0.269688 -1.9536,-0.384203 -2.77734,-0.34961 z m 170.88281,6.701172 c -5.39865,-0.126557 -8.73663,1.852669 -10.81445,5.035156 2.34672,-0.518874 5.2277,-0.496408 8.77148,0.208985 l 85.63867,19.679687 c 6.41139,1.511285 7.81812,4.448574 7.44727,11.703125 l -2.12891,230.849614 -0.47461,0.52148 1.96485,0.65039 5.31836,-5.85156 2.1289,-230.851564 c 0.37085,-7.254551 -1.03587,-10.189887 -7.44726,-11.701172 L 327.55273,61.595703 c -1.74327,-0.347001 -3.32697,-0.528775 -4.76562,-0.5625 z"
         id="path4200"
         stroke-opacity="1"
         fill="#b0b0b0"
         fill-rule="evenodd"
         stroke="none"
         stroke-linejoin="miter"
         fill-opacity="1"
         stroke-linecap="butt"
         stroke-width="1" />
      <path
         sodipodi:nodetypes="ccccc"
         inkscape:connector-curvature="0"
         d="m 403.12392,85.141164 c 12.4021,2.867396 10.71654,4.984484 10.70306,18.467586 2.18404,-2.05828 4.25114,-3.752349 6.67356,-6.132759 0.48467,-12.136762 1.00482,-14.993724 -11.89791,-17.244792 -2.39781,2.28773 -2.91447,2.616935 -5.47871,4.909965 z"
         id="path4205"
         stroke-opacity="1"
         fill="url(#linearGradient4207)"
         fill-rule="evenodd"
         stroke="none"
         stroke-linejoin="miter"
         fill-opacity="1"
         stroke-linecap="butt"
         stroke-width="1" />
    </g>
    <g
       id="text4194"
       transform="translate(41.531879,-72.33218)"
       font-style="normal"
       word-spacing="0"
       line-height="125%"
       font-weight="bold"
       font-stretch="normal"
       letter-spacing="0"
       font-variant="normal"
       font-size="7.5"
       stroke-opacity="1"
       font-family="STIXIntegralsSm"
       fill="#000000"
       stroke="none"
       stroke-linejoin="miter"
       fill-opacity="1"
       stroke-linecap="butt"
       stroke-width="1">
      <path
         d="m -33.815041,58.840733 -2.204589,0 -0.347901,0.996093 -1.417236,0 2.025146,-5.467529 1.680909,0 2.025146,5.467529 -1.417236,0 -0.344239,-0.996093 z m -1.853027,-1.014405 1.497803,0 -0.747071,-2.175293 -0.750732,2.175293 z"
         id="path4199"
         inkscape:connector-curvature="0" />
      <path
         d="m -31.33213,54.369297 2.340087,0 q 1.043702,0 1.600342,0.465088 0.560303,0.461426 0.560303,1.318359 0,0.860596 -0.560303,1.325684 -0.55664,0.461426 -1.600342,0.461426 l -0.930175,0 0,1.896972 -1.409912,0 0,-5.467529 z m 1.409912,1.021729 0,1.527099 0.780029,0 q 0.410156,0 0.633545,-0.197754 0.223389,-0.201416 0.223389,-0.567627 0,-0.366211 -0.223389,-0.563965 -0.223389,-0.197753 -0.633545,-0.197753 l -0.780029,0 z"
         id="path4201"
         inkscape:connector-curvature="0" />
    </g>
    <g
       id="g4450"
       transform="matrix(0.99447023,0,0.10754353,0.91152739,243.54029,54.425925)"
       fill="#000000"
       filter="url(#filter4458)"
       fill-opacity="0.607">
      <path
         sodipodi:nodetypes="sccccccccccccccccccscccccccccccccsccccc"
         inkscape:connector-curvature="0"
         id="path4433"
         d="m -220.2736,46.075255 c -0.88495,-7.39e-4 -1.929,0.164543 -3.1875,0.5 -47.20222,33.431263 -41.28368,49.390136 -45.15625,68.593755 -19.06483,-31.024026 -42.84827,-52.876305 -73.46875,-61.468755 -3.62194,-1.831585 -5.20754,-0.08875 -6.125,2.8125 0.39357,33.284648 19.37073,56.075485 51.03125,71.687505 -13.82031,2.81533 -23.92908,9.11441 -27.5625,21.4375 -4.28993,9.31591 -8.15495,26.14956 3.8125,35.96875 l 19.90625,10.6875 -0.5,10.71875 c 0.8451,3.40923 3.56901,3.96961 7.125,3.3125 l 13.78125,-6.375 5.09375,4.84375 c 1.82327,1.28543 3.74748,2.41682 6.90625,1.03125 l 19.375,-7.65625 c 6.71752,-3.14637 11.87073,-7.32605 12.5,-14.53125 0.66891,-12.82314 2.91515,-25.07112 -1.53125,-39.8125 -0.20976,-5.57442 -2.67575,-7.37679 -4.84375,-9.6875 18.0205,-20.31045 27.65632,-48.404316 27.3125,-85.718755 0.006,-3.460019 -0.63396,-6.340547 -4.46875,-6.34375 z m -5.4375,13.84375 c 0.28446,30.87271 -10.21545,58.195825 -25.125,75.000005 -0.46907,1.67326 -3.67012,3.84914 -1.09375,6.21875 5.20941,5.05367 6.41313,8.80512 6.625,14.3125 -0.52064,5.96134 4.12609,28.04348 -0.15625,32.6875 -4.8571,5.72192 -15.6497,8.9091 -24.96875,12.71875 -2.61346,0.12596 -4.67898,-4.87398 -6.1875,-5.9375 -2.00607,-0.32758 -4.14312,-1.05753 -5.5,0.5625 l -9.625,4.53125 c -2.94211,0.54367 1.94921,-2.49178 1.25,-5.3125 -0.67144,-2.55516 -2.50709,-4.33623 -5.21875,-5.53125 l -18.75,-10.15625 c -9.90147,-8.12407 -5.17435,-22.29233 -1.625,-30 3.85459,-8.22457 26.39154,-14.55923 35.03125,-12.96875 6.11062,1.1249 6.82321,-8.78217 1.78125,-8.09375 -26.19485,-12.91686 -58.45562,-36.336409 -58.78125,-63.875005 36.98357,7.548583 66.09708,64.015865 69.09375,65.531255 1.85746,4.52869 7.56614,5.33837 7.96875,-0.15625 -5.74288,-26.42053 21.88346,-69.003623 35.28125,-69.531255 z"
         clip-path="url(#clipPath4053)"
         transform="translate(139.70408,5.7066533)"
         fill="#000000"
         stroke="none"
         fill-opacity="0.607" />
      <path
         transform="translate(135.36735,10.043388)"
         inkscape:connector-curvature="0"
         d="m -289.15625,140.9375 c -6.55134,0 -11.875,5.32366 -11.875,11.875 0,6.55134 5.32366,11.875 11.875,11.875 6.55134,0 11.875,-5.32366 11.875,-11.875 0,-6.55134 -5.32366,-11.875 -11.875,-11.875 z m 0,7.15625 c 2.60645,0 4.71875,2.1123 4.71875,4.71875 0,2.60645 -2.1123,4.71875 -4.71875,4.71875 -2.60645,0 -4.71875,-2.1123 -4.71875,-4.71875 0,-2.60645 2.1123,-4.71875 4.71875,-4.71875 z"
         id="path4437"
         clip-path="url(#clipPath4150)"
         fill="#000000"
         stroke="none"
         fill-opacity="0.607" />
    </g>
    <g
       id="g4422"
       transform="translate(-30.686724,14.146112)">
      <g
         transform="translate(436.59704,27.83373)"
         id="g4160">
        <path
           sodipodi:nodetypes="sccccccccccccccccccscccccccccccccsccccc"
           inkscape:connector-curvature="0"
           id="path4005"
           d="m -220.2736,46.075255 c -0.88495,-7.39e-4 -1.929,0.164543 -3.1875,0.5 -47.20222,33.431263 -41.28368,49.390136 -45.15625,68.593755 -19.06483,-31.024026 -42.84827,-52.876305 -73.46875,-61.468755 -3.62194,-1.831585 -5.20754,-0.08875 -6.125,2.8125 0.39357,33.284648 19.37073,56.075485 51.03125,71.687505 -13.82031,2.81533 -23.92908,9.11441 -27.5625,21.4375 -4.28993,9.31591 -8.15495,26.14956 3.8125,35.96875 l 19.90625,10.6875 -0.5,10.71875 c 0.8451,3.40923 3.56901,3.96961 7.125,3.3125 l 13.78125,-6.375 5.09375,4.84375 c 1.82327,1.28543 3.74748,2.41682 6.90625,1.03125 l 19.375,-7.65625 c 6.71752,-3.14637 11.87073,-7.32605 12.5,-14.53125 0.66891,-12.82314 2.91515,-25.07112 -1.53125,-39.8125 -0.20976,-5.57442 -2.67575,-7.37679 -4.84375,-9.6875 18.0205,-20.31045 27.65632,-48.404316 27.3125,-85.718755 0.006,-3.460019 -0.63396,-6.340547 -4.46875,-6.34375 z m -5.4375,13.84375 c 0.28446,30.87271 -10.21545,58.195825 -25.125,75.000005 -0.46907,1.67326 -3.67012,3.84914 -1.09375,6.21875 5.20941,5.05367 6.41313,8.80512 6.625,14.3125 -0.52064,5.96134 4.12609,28.04348 -0.15625,32.6875 -4.8571,5.72192 -15.6497,8.9091 -24.96875,12.71875 -2.61346,0.12596 -4.67898,-4.87398 -6.1875,-5.9375 -2.00607,-0.32758 -4.14312,-1.05753 -5.5,0.5625 l -9.625,4.53125 c -2.94211,0.54367 1.94921,-2.49178 1.25,-5.3125 -0.67144,-2.55516 -2.50709,-4.33623 -5.21875,-5.53125 l -18.75,-10.15625 c -9.90147,-8.12407 -5.17435,-22.29233 -1.625,-30 3.85459,-8.22457 26.39154,-14.55923 35.03125,-12.96875 6.11062,1.1249 6.82321,-8.78217 1.78125,-8.09375 -26.19485,-12.91686 -58.45562,-36.336409 -58.78125,-63.875005 36.98357,7.548583 66.09708,64.015865 69.09375,65.531255 1.85746,4.52869 7.56614,5.33837 7.96875,-0.15625 -5.74288,-26.42053 21.88346,-69.003623 35.28125,-69.531255 z"
           clip-path="url(#clipPath4053)"
           transform="translate(4.3367347,-4.3367347)"
           style="fill:#000000;fill-opacity:1;stroke:none" />
        <path
           transform="translate(4.3367347,-4.3367347)"
           clip-path="url(#clipPath4053)"
           d="m -220.2736,46.075255 c -0.88495,-7.39e-4 -1.929,0.164543 -3.1875,0.5 -47.20222,33.431263 -41.28368,49.390136 -45.15625,68.593755 -19.06483,-31.024026 -42.84827,-52.876305 -73.46875,-61.468755 -3.62194,-1.831585 -5.20754,-0.08875 -6.125,2.8125 0.39357,33.284648 19.37073,56.075485 51.03125,71.687505 -13.82031,2.81533 -23.92908,9.11441 -27.5625,21.4375 -4.28993,9.31591 -8.15495,26.14956 3.8125,35.96875 l 19.90625,10.6875 -0.5,10.71875 c 0.8451,3.40923 3.56901,3.96961 7.125,3.3125 l 13.78125,-6.375 5.09375,4.84375 c 1.82327,1.28543 3.74748,2.41682 6.90625,1.03125 l 19.375,-7.65625 c 6.71752,-3.14637 11.87073,-7.32605 12.5,-14.53125 0.66891,-12.82314 2.91515,-25.07112 -1.53125,-39.8125 -0.20976,-5.57442 -2.67575,-7.37679 -4.84375,-9.6875 18.0205,-20.31045 27.65632,-48.404316 27.3125,-85.718755 0.006,-3.460019 -0.63396,-6.340547 -4.46875,-6.34375 z m -5.4375,13.84375 c 0.28446,30.87271 -10.21545,58.195825 -25.125,75.000005 -0.46907,1.67326 -3.67012,3.84914 -1.09375,6.21875 5.20941,5.05367 6.41313,8.80512 6.625,14.3125 -0.52064,5.96134 4.12609,28.04348 -0.15625,32.6875 -4.8571,5.72192 -15.6497,8.9091 -24.96875,12.71875 -2.61346,0.12596 -4.67898,-4.87398 -6.1875,-5.9375 -2.00607,-0.32758 -4.14312,-1.05753 -5.5,0.5625 l -9.625,4.53125 c -2.94211,0.54367 1.94921,-2.49178 1.25,-5.3125 -0.67144,-2.55516 -2.50709,-4.33623 -5.21875,-5.53125 l -18.75,-10.15625 c -9.90147,-8.12407 -5.17435,-22.29233 -1.625,-30 3.85459,-8.22457 26.39154,-14.55923 35.03125,-12.96875 6.11062,1.1249 6.82321,-8.78217 1.78125,-8.09375 -26.19485,-12.91686 -58.45562,-36.336409 -58.78125,-63.875005 36.98357,7.548583 66.09708,64.015865 69.09375,65.531255 1.85746,4.52869 7.56614,5.33837 7.96875,-0.15625 -5.74288,-26.42053 21.88346,-69.003623 35.28125,-69.531255 z"
           id="path4061"
           inkscape:connector-curvature="0"
           sodipodi:nodetypes="sccccccccccccccccccscccccccccccccsccccc"
           style="fill:#ffffff;fill-opacity:1;stroke:none;filter:url(#filter4071)" />
        <path
           inkscape:connector-curvature="0"
           d="m -289.15625,140.9375 c -6.55134,0 -11.875,5.32366 -11.875,11.875 0,6.55134 5.32366,11.875 11.875,11.875 6.55134,0 11.875,-5.32366 11.875,-11.875 0,-6.55134 -5.32366,-11.875 -11.875,-11.875 z m 0,7.15625 c 2.60645,0 4.71875,2.1123 4.71875,4.71875 0,2.60645 -2.1123,4.71875 -4.71875,4.71875 -2.60645,0 -4.71875,-2.1123 -4.71875,-4.71875 0,-2.60645 2.1123,-4.71875 4.71875,-4.71875 z"
           id="path4085"
           clip-path="url(#clipPath4150)"
           style="fill:#000000;fill-opacity:1;stroke:none" />
        <path
           inkscape:connector-curvature="0"
           id="path4090"
           d="m -289.15625,140.9375 c -6.55134,0 -11.875,5.32366 -11.875,11.875 0,6.55134 5.32366,11.875 11.875,11.875 6.55134,0 11.875,-5.32366 11.875,-11.875 0,-6.55134 -5.32366,-11.875 -11.875,-11.875 z m 0,7.15625 c 2.60645,0 4.71875,2.1123 4.71875,4.71875 0,2.60645 -2.1123,4.71875 -4.71875,4.71875 -2.60645,0 -4.71875,-2.1123 -4.71875,-4.71875 0,-2.60645 2.1123,-4.71875 4.71875,-4.71875 z"
           clip-path="url(#clipPath4150)"
           style="fill:#e8e8e8;fill-opacity:1;stroke:none;filter:url(#filter4144)" />
      </g>
    </g>
  </g>
</svg>
