<?xml version="1.0" encoding="UTF-8" standalone="no"?>
<!-- Created with Inkscape (http://www.inkscape.org/) -->

<svg
   xmlns:dc="http://purl.org/dc/elements/1.1/"
   xmlns:cc="http://creativecommons.org/ns#"
   xmlns:rdf="http://www.w3.org/1999/02/22-rdf-syntax-ns#"
   xmlns:svg="http://www.w3.org/2000/svg"
   xmlns="http://www.w3.org/2000/svg"
   xmlns:xlink="http://www.w3.org/1999/xlink"
   xmlns:sodipodi="http://sodipodi.sourceforge.net/DTD/sodipodi-0.dtd"
   xmlns:inkscape="http://www.inkscape.org/namespaces/inkscape"
   id="svg2"
   sodipodi:version="0.32"
   inkscape:version="0.91 r13725"
   width="256"
   height="256"
   sodipodi:docname="folder-video-horror.svg"
   inkscape:output_extension="org.inkscape.output.svg.inkscape"
   version="1.1">
  <metadata
     id="metadata7">
    <rdf:RDF>
      <cc:Work>
        <dc:format>image/svg+xml</dc:format>
        <dc:type
           rdf:resource="http://purl.org/dc/dcmitype/StillImage" />
      </cc:Work>
    </rdf:RDF>
  </metadata>
  <defs
     id="defs5">
    <filter
       inkscape:collect="always"
       id="filter4811"
       x="-0.025948617"
       width="1.0518972"
       y="-0.022336718"
       height="1.0446734"
       color-interpolation-filters="sRGB">
      <feGaussianBlur
         inkscape:collect="always"
         id="feGaussianBlur4813"
         stdDeviation="1.5727137" />
    </filter>
    <linearGradient
       inkscape:collect="always"
       id="linearGradient4167">
      <stop
         id="stop4169"
         stop-color="#adadad"
         stop-opacity="0.624" />
      <stop
         offset="1"
         id="stop4171"
         stop-color="#ffffff"
         stop-opacity="0.973" />
    </linearGradient>
    <linearGradient
       id="linearGradient4223"
       inkscape:collect="always">
      <stop
         id="stop4225"
         stop-color="#bebebe"
         stop-opacity="0.803" />
      <stop
         id="stop4227"
         offset="1"
         stop-color="#9f9f9f"
         stop-opacity="0.732" />
    </linearGradient>
    <linearGradient
       id="linearGradient4211"
       inkscape:collect="always">
      <stop
         id="stop4213"
         stop-color="#9f9f9f"
         stop-opacity="0.634" />
      <stop
         id="stop4215"
         offset="1"
         stop-color="#696969"
         stop-opacity="0" />
    </linearGradient>
    <linearGradient
       id="linearGradient4171"
       inkscape:collect="always">
      <stop
         id="stop4173"
         stop-color="#b2b2b2"
         stop-opacity="0.624" />
      <stop
         id="stop4175"
         offset="1"
         stop-color="#ffffff"
         stop-opacity="0.698" />
    </linearGradient>
    <linearGradient
       id="linearGradient4142"
       inkscape:collect="always">
      <stop
         id="stop4144"
         stop-color="#909090"
         stop-opacity="0.519" />
      <stop
         id="stop4146"
         offset="1"
         stop-color="#696969"
         stop-opacity="0" />
    </linearGradient>
    <linearGradient
       gradientUnits="userSpaceOnUse"
       y2="324.36"
       x2="278.75"
       y1="63.25"
       x1="165.74"
       id="linearGradient4148"
       xlink:href="#linearGradient4142"
       inkscape:collect="always" />
    <filter
       height="1.1"
       y="-0.05"
       width="1.056"
       x="-0.028"
       id="filter4160"
       inkscape:collect="always"
       color-interpolation-filters="sRGB">
      <feGaussianBlur
         id="feGaussianBlur4162"
         inkscape:collect="always" />
    </filter>
    <linearGradient
       spreadMethod="reflect"
       gradientUnits="userSpaceOnUse"
       y2="114.16"
       x2="387.93"
       y1="106.85"
       x1="379.78"
       id="linearGradient4177"
       xlink:href="#linearGradient4167"
       inkscape:collect="always" />
    <linearGradient
       gradientTransform="translate(26.808511,-26.382979)"
       y2="114.16"
       x2="387.93"
       y1="108.46"
       x1="381.27"
       spreadMethod="reflect"
       gradientUnits="userSpaceOnUse"
       id="linearGradient4207"
       xlink:href="#linearGradient4171"
       inkscape:collect="always" />
    <linearGradient
       gradientUnits="userSpaceOnUse"
       y2="125.1"
       x2="281.1"
       y1="61.711"
       x1="284.7"
       id="linearGradient4217"
       xlink:href="#linearGradient4211"
       inkscape:collect="always" />
    <linearGradient
       gradientUnits="userSpaceOnUse"
       y2="103.09"
       x2="255.7"
       y1="93.26"
       x1="259.02"
       id="linearGradient4229"
       xlink:href="#linearGradient4223"
       inkscape:collect="always" />
    <linearGradient
       gradientUnits="userSpaceOnUse"
       y2="117.29"
       x2="258.99"
       y1="102.54"
       x1="262.84"
       id="linearGradient4237"
       xlink:href="#linearGradient4223"
       inkscape:collect="always" />
    <filter
       height="1.136"
       y="-0.068"
       width="1.049"
       x="-0.024"
       id="filter4257"
       inkscape:collect="always"
       color-interpolation-filters="sRGB">
      <feGaussianBlur
         id="feGaussianBlur4259"
         stdDeviation="2.75443"
         inkscape:collect="always" />
    </filter>
  </defs>
  <sodipodi:namedview
     inkscape:window-height="1056"
     inkscape:window-width="1920"
     inkscape:pageshadow="2"
     inkscape:pageopacity="0.0"
     guidetolerance="10.0"
     gridtolerance="10.0"
     objecttolerance="10.0"
     borderopacity="1.0"
     bordercolor="#666666"
     pagecolor="#ffffff"
     id="base"
     showgrid="false"
     inkscape:zoom="3.2929688"
     inkscape:cx="128"
     inkscape:cy="128"
     inkscape:window-x="0"
     inkscape:window-y="0"
     inkscape:current-layer="svg2"
     inkscape:window-maximized="1" />
  <g
     transform="matrix(0.77128144,0,0,0.77128144,-81.945786,-22.13066)"
     id="g4261">
    <path
       d="m 137.15847,253.33333 1.0929,10.92897 c 1.69466,2.56439 1.62485,5.1824 6.55737,7.10382 l 234.9905,77.59563 c 4.36168,2.76045 7.27409,1.93611 10.91114,-1.0929 l 16.39344,-17.48633 z"
       id="path4239"
       inkscape:connector-curvature="0"
       sodipodi:nodetypes="ccccccc"
       stroke-opacity="1"
       fill="#000000"
       filter="url(#filter4257)"
       fill-rule="evenodd"
       stroke="none"
       stroke-linejoin="miter"
       fill-opacity="0.514"
       stroke-linecap="butt"
       stroke-width="1" />
    <path
       d="M 146.27659,241.2766 139.89362,67.340426 c -0.0538,-6.437983 2.49923,-9.41706 7.97872,-7.978724 l 135.10638,37.234043 c 8.12648,2.325734 17.80936,-1.266511 19.14894,-15.425533 0.93604,-9.893676 4.6708,-17.669623 18.61702,-14.893617 l 85.6383,19.680851 c 6.41139,1.511285 7.81765,4.447577 7.4468,11.702128 l -2.12765,230.851066 -5.31915,5.85106 -254.86675,-84.34164 z"
       id="path4198"
       inkscape:connector-curvature="0"
       sodipodi:nodetypes="ccccsccccccc"
       stroke-opacity="1"
       fill="#000000"
       fill-rule="evenodd"
       stroke="none"
       stroke-linejoin="miter"
       fill-opacity="0.73"
       stroke-linecap="butt"
       stroke-width="1" />
    <path
       sodipodi:nodetypes="ccccsccccccc"
       inkscape:connector-curvature="0"
       id="path4209"
       d="M 146.27659,241.2766 139.89362,67.340426 c -0.0538,-6.437983 2.49923,-9.41706 7.97872,-7.978724 l 135.10638,37.234043 c 8.12648,2.325734 17.80936,-1.266511 19.14894,-15.425533 0.93604,-9.893676 4.6708,-17.669623 18.61702,-14.893617 l 85.6383,19.680851 c 6.41139,1.511285 7.81765,4.447577 7.4468,11.702128 l -2.12765,230.851066 -5.31915,5.85106 -254.86675,-84.34164 z"
       stroke-opacity="1"
       fill="url(#linearGradient4217)"
       fill-rule="evenodd"
       stroke="none"
       stroke-linejoin="miter"
       fill-opacity="1"
       stroke-linecap="butt"
       stroke-width="1" />
    <path
       inkscape:connector-curvature="0"
       id="path4221"
       d="m 142.62295,64.262295 267.21311,65.573775 1.0929,194.53552 -256.8306,-92.89618 z"
       sodipodi:nodetypes="ccccc"
       stroke-opacity="0.705"
       fill="url(#linearGradient4229)"
       fill-rule="evenodd"
       stroke="#cecece"
       stroke-linejoin="miter"
       fill-opacity="1"
       stroke-linecap="butt"
       stroke-width="1" />
    <path
       d="m 136.61202,73.005464 267.21311,65.573776 4.37159,189.07104 -260.10929,-87.4317 z"
       id="path4219"
       inkscape:connector-curvature="0"
       stroke-opacity="0.705"
       fill="url(#linearGradient4237)"
       fill-rule="evenodd"
       stroke="#cecece"
       stroke-linejoin="miter"
       fill-opacity="1"
       stroke-linecap="butt"
       stroke-width="1" />
    <path
       d="m 116.2037,92.685185 c 1.13182,-4.540599 4.63483,-9.034209 10.68729,-7.545261 L 261.11111,123.7037 c 6.48148,1.63624 16.36287,0.33244 20.83334,-11.11111 4.00878,-10.26173 10.87392,-18.779525 25.46296,-16.203701 l 68.51852,13.888891 c 12.25335,3.29007 11.96705,11.68066 12.96296,18.51851 l 12.5,205.55556 c 0.64976,7.44283 -5.7507,13.21303 -12.96296,10.18518 L 144.90741,262.59259 c -4.92216,-1.55932 -8.93994,-3.09709 -9.25926,-10.18518 z"
       id="path4138"
       inkscape:connector-curvature="0"
       sodipodi:nodetypes="cccscccccccc"
       stroke-opacity="1"
       fill="#000000"
       fill-rule="evenodd"
       stroke="none"
       stroke-linejoin="miter"
       fill-opacity="0.77"
       stroke-linecap="butt"
       stroke-width="1" />
    <path
       sodipodi:nodetypes="cccsccccccc"
       inkscape:connector-curvature="0"
       id="path4140"
       d="m 116.2037,92.685185 c 1.13182,-4.540599 4.63483,-9.034209 10.68729,-7.545261 L 261.11111,123.7037 c 6.48148,1.63624 16.36287,0.33244 20.83334,-11.11111 4.00878,-10.26173 10.87392,-18.779525 25.46296,-16.203701 l 68.51852,13.888891 c 12.25335,3.29007 11.96705,11.68066 12.96296,18.51851 l 12.5,205.55556 c 0.64976,7.44283 -5.7507,13.21303 -12.96296,10.18518 L 209.72222,283.88889 C 173.76467,257.82993 120.35853,138.21611 116.2037,92.685185 Z"
       stroke-opacity="1"
       fill="url(#linearGradient4148)"
       fill-rule="evenodd"
       stroke="none"
       stroke-linejoin="miter"
       fill-opacity="1"
       stroke-linecap="butt"
       stroke-width="1" />
    <path
       d="m 177.77778,215.83334 -80.555558,82.4074 255.555558,88.42593 38.75029,-40.87068 c 4.63488,-1.3015 9.96817,-1.38077 9.86082,-10.98118 L 396.29629,282.5 Z"
       id="path4150"
       inkscape:connector-curvature="0"
       sodipodi:nodetypes="ccccccc"
       stroke-opacity="1"
       fill="#000000"
       filter="url(#filter4160)"
       fill-rule="evenodd"
       stroke="none"
       stroke-linejoin="miter"
       fill-opacity="0.273"
       stroke-linecap="butt"
       stroke-width="1" />
    <path
       inkscape:connector-curvature="0"
       d="m 130.29688,79.757812 c -3.73674,-0.05935 -6.2712,2.374412 -7.66211,5.353516 1.24508,-0.330919 2.6592,-0.363492 4.25585,0.0293 l 134.22071,38.562492 c 5.49861,1.38812 13.44221,0.65773 18.45508,-6.58203 -4.30627,2.38583 -9.16625,2.43292 -12.90039,1.49024 L 132.44727,80.046875 c -0.75656,-0.186118 -1.47316,-0.278306 -2.15039,-0.289063 z m 177.54687,11.074219 c -7.10689,0.02874 -11.9932,3.152137 -15.51367,7.738281 3.82724,-2.318415 8.71897,-3.304404 15.07812,-2.18164 l 68.51758,13.888668 c 12.25335,3.29007 11.96698,11.68169 12.96289,18.51954 l 12.5,205.55468 c 0.1753,2.00795 -0.17581,3.88521 -0.90429,5.50977 4.09619,-1.28823 6.90142,-5.55587 6.46093,-10.60156 l -12.5,-205.55665 c -0.99591,-6.83785 -0.70954,-15.2275 -12.96289,-18.51757 L 312.96289,91.296875 c -1.82363,-0.321978 -3.52737,-0.47128 -5.11914,-0.464844 z"
       id="path4164"
       stroke-opacity="1"
       fill="#b5b5b5"
       fill-rule="evenodd"
       stroke="none"
       stroke-linejoin="miter"
       fill-opacity="1"
       stroke-linecap="butt"
       stroke-width="1" />
    <path
       id="path4169"
       d="m 375.92578,110.27734 c 12.25335,3.29007 11.96698,11.68169 12.96289,18.51954 2.18404,-2.05828 3.13422,-2.71335 5.55664,-5.09376 -0.99591,-6.83785 -0.70954,-15.2275 -12.96289,-18.51757 -2.39781,2.28773 -2.9924,2.79876 -5.55664,5.09179 z"
       inkscape:connector-curvature="0"
       sodipodi:nodetypes="ccccc"
       stroke-opacity="1"
       fill="url(#linearGradient4177)"
       fill-rule="evenodd"
       stroke="none"
       stroke-linejoin="miter"
       fill-opacity="1"
       stroke-linecap="butt"
       stroke-width="1" />
    <path
       inkscape:connector-curvature="0"
       d="m 151.9043,54.332031 c -2.67378,0.112285 -4.27807,1.802415 -4.90039,4.837891 0.28199,0.05237 0.56972,0.11281 0.86914,0.191406 l 135.10547,37.234375 c 5.41154,1.54874 11.51034,0.467116 15.3789,-4.605469 -2.77183,0.801996 -5.76159,0.727663 -8.57031,-0.07617 L 154.68164,54.681641 c -1.0274,-0.269688 -1.9536,-0.384203 -2.77734,-0.34961 z m 170.88281,6.701172 c -5.39865,-0.126557 -8.73663,1.852669 -10.81445,5.035156 2.34672,-0.518874 5.2277,-0.496408 8.77148,0.208985 l 85.63867,19.679687 c 6.41139,1.511285 7.81812,4.448574 7.44727,11.703125 l -2.12891,230.849614 -0.47461,0.52148 1.96485,0.65039 5.31836,-5.85156 2.1289,-230.851564 c 0.37085,-7.254551 -1.03587,-10.189887 -7.44726,-11.701172 L 327.55273,61.595703 c -1.74327,-0.347001 -3.32697,-0.528775 -4.76562,-0.5625 z"
       id="path4200"
       stroke-opacity="1"
       fill="#b0b0b0"
       fill-rule="evenodd"
       stroke="none"
       stroke-linejoin="miter"
       fill-opacity="1"
       stroke-linecap="butt"
       stroke-width="1" />
    <path
       sodipodi:nodetypes="ccccc"
       inkscape:connector-curvature="0"
       d="m 403.12392,85.141164 c 12.4021,2.867396 10.71654,4.984484 10.70306,18.467586 2.18404,-2.05828 4.25114,-3.752349 6.67356,-6.132759 0.48467,-12.136762 1.00482,-14.993724 -11.89791,-17.244792 -2.39781,2.28773 -2.91447,2.616935 -5.47871,4.909965 z"
       id="path4205"
       stroke-opacity="1"
       fill="url(#linearGradient4207)"
       fill-rule="evenodd"
       stroke="none"
       stroke-linejoin="miter"
       fill-opacity="1"
       stroke-linecap="butt"
       stroke-width="1" />
  </g>
  <path
     inkscape:connector-curvature="0"
     d="m 112.31229,65.973937 c -2.09851,-0.05824 -4.10094,0.09537 -6.5278,0.397524 -17.083587,2.126926 -26.287997,7.888184 -29.684775,18.541634 -3.937354,12.348957 -0.451157,50.666025 6.840273,75.217135 l 3.204255,10.78993 -1.15438,5.42335 c -0.627532,2.98669 -0.889776,6.24297 -0.610543,7.24061 0.27925,0.99764 0.735613,2.5583 1.016023,3.46414 0.87542,2.8281 -1.199814,3.68846 -10.578182,4.42954 -9.174376,0.72497 -10.451816,1.26292 -8.634073,3.6629 1.95442,2.58044 8.19984,6.91594 12.325248,8.54676 3.663794,1.44832 5.263948,1.66313 19.829127,2.66908 10.356887,0.71532 17.363507,1.47316 20.216157,2.18638 6.92119,1.73047 14.85384,5.38464 19.66084,9.08625 9.5543,7.35727 11.88446,8.99269 15.86906,11.04548 5.45697,2.81132 8.45782,4.01709 13.20079,5.25299 5.09432,1.32747 10.20608,1.35376 12.0637,0.0851 2.92575,-1.99798 4.89263,-6.15233 5.20225,-11.07387 0.12847,-2.0421 0.69108,-4.10927 1.24157,-4.59992 0.55049,-0.49065 1.06582,-1.46073 1.16581,-2.15798 0.24375,-1.69938 2.8204,-2.83642 14.40948,-6.36038 11.91626,-3.62343 12.54065,-4.42041 5.61984,-7.18382 -5.25376,-2.09777 -13.13455,-7.29711 -12.33449,-8.14923 0.15409,-0.16412 1.52875,-0.54526 3.04984,-0.85184 3.49255,-0.70395 5.21946,-2.39335 5.1489,-5.02583 -0.0303,-1.13218 0.14896,-5.1599 0.39022,-8.94428 0.37285,-5.84812 0.23765,-7.57265 -0.97615,-11.47139 -1.61221,-5.17838 -11.28126,-23.62842 -13.05062,-24.90202 -0.40888,-0.29432 -0.72262,-0.44181 -1.02293,-0.42591 -1.32903,-4.06631 -2.20625,-7.4831 -2.99928,-10.76154 0.35965,0.81572 0.67121,1.55897 0.89857,2.21478 1.37938,3.97898 2.87882,4.86437 2.86101,1.67527 -0.0221,-3.97037 -4.05944,-14.18406 -11.7943,-29.72908 -2.2154,-4.45237 -5.48956,-9.352682 -9.13409,-13.742955 -3.52073,-4.24115 -11.98132,-12.317173 -15.23062,-14.509609 -2.84131,-1.917148 -20.73004,-8.507209 -26.57173,-9.796116 -6.61502,-1.459534 -10.4115,-2.146095 -13.90902,-2.243168 z"
     id="path3587"
     transform="matrix(0.99864257,0,-0.07747547,1.0367934,-13.367403,4.9494426)"
     fill="#000000"
     filter="url(#filter4811)"
     fill-opacity="0.516"
     style="fill:#000000;fill-opacity:0.26751593;filter:url(#filter4811)" />
  <g
     id="g2406"
     transform="matrix(0.66819049,0,0,0.66819049,-175.52965,41.6378)">
    <path
       d="m 436.46484,18.695312 c -20.74551,0.472927 -44.37424,8.845036 -53.09765,29.208985 -9.25513,23.001729 -10.76454,48.2195 -13.91299,72.635073 -2.93159,26.06981 -1.49335,52.43594 -0.67881,78.61297 -1.88471,7.35163 -7.32856,14.39697 -6.64258,22.20899 3.67675,5.18301 -0.37885,12.24845 -6.23633,13.20898 -8.02556,2.29828 -17.43623,1.40816 -24.92382,3.81641 5.67194,10.8067 17.85671,16.43174 29.84575,16.40807 19.00842,1.77086 39.46194,1.14709 56.33589,11.59193 14.12975,7.34551 21.6843,22.71964 35.39453,30.74219 9.00844,5.27149 20.6079,11.10724 30.76172,6.33593 7.2872,-6.60503 7.7783,-16.97448 11.96484,-25.26367 2.88861,-2.04299 3.35091,-6.38733 7.13281,-7.76562 10.57892,-5.92796 23.4541,-8.41871 34.01953,-12.99805 -7.00448,-4.75794 -15.51586,-9.13259 -19.4082,-16.97656 -1.0429,-3.56333 1.84442,-6.69368 5.44531,-6.47461 4.59058,-0.18111 9.18858,-3.22777 8.9336,-8.31445 2.17826,-13.25069 8.65344,-26.60793 4.48828,-40.10743 -2.57156,-15.29714 -8.99384,-29.83615 -8.87683,-45.54383 -0.5413,-13.86033 0.44746,-27.68345 -3.65956,-41.099197 C 519.72574,81.284988 514.80389,63.33913 503.19141,49.113281 499.07504,42.695871 494.26952,36.876358 487.14844,33.939453 471.45545,25.75756 454.671,17.703866 436.46484,18.695312 Z"
       id="path2404"
       inkscape:connector-curvature="0"
       style="fill:#ececec" />
    <path
       inkscape:connector-curvature="0"
       d="m 466.43579,306.74017 c -6.67941,-2.15544 -10.7859,-4.2417 -18,-9.14468 -5.26763,-3.58009 -8.21453,-6.41273 -20.0201,-19.2439 -5.93965,-6.45565 -16.54498,-12.85045 -26.31667,-15.86841 -4.02753,-1.24388 -14.25394,-2.56501 -29.51145,-3.81252 -21.45708,-1.7544 -23.78823,-2.13165 -28.78059,-4.65755 -5.62135,-2.84415 -13.50179,-10.38832 -15.55228,-14.88864 -1.90708,-4.18559 0.20523,-5.13945 14.18109,-6.4038 14.28662,-1.29246 17.64691,-2.79351 17.29514,-7.72576 -0.11266,-1.57979 -0.27017,-4.29589 -0.34999,-6.03578 -0.0798,-1.73989 1.45134,-7.4252 3.40261,-12.63402 l 3.54776,-9.47059 -1.13843,-18.80274 c -2.59243,-42.81745 5.18129,-109.654704 15.25863,-131.191459 8.69373,-18.579755 24.42364,-28.602398 50.71134,-32.311784 9.95841,-1.405205 14.89937,-0.878147 29.94781,3.194565 8.30576,2.247872 32.8299,13.762864 36.43247,17.106395 4.11987,3.823633 14.07899,17.87645 17.91083,25.273071 3.96657,7.656703 7.17796,16.235002 8.98468,24 6.30799,27.110702 8.91761,44.889832 7.6053,51.814212 -1.05407,5.56182 -3.00296,4.04508 -3.71895,-2.8943 -0.91252,-8.84425 -6.57192,-27.49869 -10.07014,-33.193065 -1.89007,-3.076636 -12.15638,-12.226847 -13.71823,-12.226847 -0.39371,0 -2.07997,-1.935328 -3.74726,-4.300728 -3.4726,-4.926621 -18.18769,-17.184383 -23.27351,-19.386989 -3.79863,-1.645141 -16.47353,-0.986785 -18.90315,0.981863 -2.21753,1.796798 -4.85926,7.949434 -5.49367,12.794867 -0.58801,4.490989 -0.52042,4.634216 3.1645,6.705259 2.07095,1.163935 6.7339,4.83638 10.36213,8.160987 3.62822,3.324608 7.0817,6.044741 7.6744,6.044741 0.59269,0 1.28296,-1.0125 1.53393,-2.25 1.5699,-7.740992 1.57477,-7.75 4.19656,-7.75 1.41716,0 3.84137,-0.747083 5.38712,-1.660184 2.40559,-1.421013 3.25876,-1.474496 5.92224,-0.371246 4.10199,1.699097 8.94225,7.937035 10.70596,13.797412 1.68894,5.61192 5.53702,10.7417 13.77993,18.36971 3.3495,3.09962 7.18325,7.67123 8.51946,10.15912 2.28508,4.2546 2.35558,4.8536 1.18615,10.07914 -0.91037,4.06796 -2.0617,6.24434 -4.29944,8.12727 -2.91134,2.44973 -3.17374,2.49452 -5.53824,0.94524 -1.36515,-0.89448 -3.3682,-1.39461 -4.45122,-1.1114 -2.88014,0.75318 -11.20029,-1.65337 -15.30842,-4.42786 -1.96036,-1.32396 -5.77097,-5.3322 -8.46802,-8.9072 -9.37917,-12.43228 -15.54435,-18.04846 -15.55151,-14.16667 -6.8e-4,0.36667 -0.85216,3.16824 -1.89218,6.22572 -3.25105,9.5575 -0.36944,18.94095 5.81668,18.94095 3.17819,0 7.97804,4.12228 11.1986,9.61774 3.51859,6.00402 2.76706,7.38226 -4.02539,7.38226 -3.00645,0 -6.73308,0.48734 -8.28138,1.08298 -1.54831,0.59563 -4.85644,1.07215 -7.35141,1.05891 -5.51319,-0.0292 -7.39304,0.97137 -6.544,3.48326 1.55602,4.60346 3.05385,5.33516 13.04141,6.37082 5.36346,0.55616 11.30309,1.74736 13.19917,2.64711 4.39116,2.08374 8.30911,9.54172 9.05903,17.24423 0.70573,7.24871 1.64476,9.16946 3.12795,6.3981 1.71473,-3.204 10.1556,-26.8848 10.12714,-28.4116 -0.0141,-0.7556 -1.6469,-2.52937 -3.62846,-3.94172 -2.86721,-2.04358 -4.18768,-4.172 -6.46704,-10.42402 -1.5753,-4.32086 -2.67301,-8.04728 -2.43936,-8.28093 0.23365,-0.23365 4.06001,0.97706 8.50303,2.69046 5.32825,2.05479 9.01082,2.91812 10.81783,2.5361 1.50678,-0.31856 3.68163,-0.76684 4.83299,-0.99619 1.15136,-0.22935 3.30639,-1.63001 4.78896,-3.11258 2.33267,-2.33266 2.88707,-2.50368 4.11784,-1.27025 2.2164,2.22117 10.43485,34.39418 11.09281,43.42532 0.49537,6.79947 0.13441,9.8008 -2.40537,20 -1.64352,6.6 -3.26497,13.61553 -3.60323,15.59007 -0.78649,4.59109 -3.94681,7.53245 -9.41225,8.76016 -2.38033,0.53469 -4.56205,1.20635 -4.84828,1.49257 -1.48608,1.48609 8.51797,10.5701 15.66975,14.22865 9.42107,4.81943 8.23176,6.19358 -10.82977,12.5129 -18.53817,6.14581 -22.77949,8.12933 -23.72015,11.09306 -0.38595,1.21602 -1.51183,2.91107 -2.50196,3.76677 -0.99012,0.8557 -2.52373,4.46973 -3.40802,8.03117 -2.13117,8.58324 -6.45052,15.83604 -11.50622,19.32054 -3.21001,2.21241 -10.85328,2.13682 -18.02749,-0.17829 z"
       id="path2394"
       style="fill:#ccb39a" />
    <path
       inkscape:connector-curvature="0"
       d="m 464.70148,305.20204 c -11.1156,-4.12995 -17.2882,-8.55181 -30.26569,-21.68141 -18.22368,-18.4373 -27.77111,-23.03746 -51.72842,-24.92388 -36.56048,-2.87881 -38.31801,-3.28871 -46.52075,-10.84974 -5.12315,-4.72236 -8.66257,-10.62333 -7.21864,-12.03503 0.53229,-0.52042 6.59281,-1.47994 13.46781,-2.13227 6.875,-0.65233 13.73098,-1.81773 15.23551,-2.58978 3.2472,-1.66631 4.2791,-4.88363 2.80765,-8.75385 -1.24486,-3.27422 -0.41806,-7.02875 3.9502,-17.93797 2.86421,-7.153 2.87657,-7.27619 1.97507,-19.68679 -2.34026,-32.21765 0.0288,-70.48659 6.60967,-106.770085 3.40519,-18.774422 4.20305,-21.684148 8.49959,-30.997143 6.97911,-15.127634 18.96378,-24.249037 38.42231,-29.242824 13.43485,-3.447884 21.29406,-3.584882 34.43907,-0.600325 15.81941,3.591775 36.30932,13.082441 43.47042,20.134942 8.43544,8.307522 16.97034,21.613566 21.55967,33.611882 4.35358,11.381932 10.36948,39.079193 11.59312,53.374803 0.87275,10.19618 -0.51561,9.19375 -4.01032,-2.89555 -6.38332,-22.081892 -8.1513,-25.165502 -21.50083,-37.500462 -12.34156,-11.4036 -24.32176,-20.422906 -31.48103,-23.700529 -6.42247,-2.940302 -15.13787,-4.031242 -19.83111,-2.482334 -3.65065,1.204823 -5.59738,4.453329 -8.73666,14.578873 -0.68208,2.2 -2.53663,6.304777 -4.12124,9.121727 -3.41001,6.061993 -3.61236,9.458993 -0.83144,13.95861 3.3864,5.479305 8.43955,5.568395 14.92819,0.263194 4.12587,-3.373366 7.99119,-3.641251 10.61717,-0.735821 1.56844,1.735342 1.90091,3.634538 1.88188,10.750002 -0.0198,7.41587 -0.42333,9.46449 -2.84336,14.43613 -4.32791,8.89113 -12.22356,16.74862 -21.8923,21.78648 -6.30751,3.2865 -9.35128,4.29526 -12.97208,4.29918 -5.39968,0.006 -9.19708,-2.7034 -10.10375,-7.20848 -0.86427,-4.29438 2.78355,-10.65804 7.79196,-13.59317 2.3852,-1.39782 6.66167,-4.52602 9.50325,-6.95155 7.59955,-6.48686 12.97988,-14.27037 8.03504,-11.62397 -1.68433,0.90142 -2.17902,0.68932 -3.09838,-1.32846 -0.88915,-1.95146 -1.84204,-2.40114 -5.08806,-2.40114 -3.65268,0 -4.37664,0.47975 -8.47106,5.61363 -2.46238,3.0875 -4.92701,6.73753 -5.47696,8.11117 -0.54995,1.37365 -2.82284,4.86039 -5.05086,7.74832 -3.90979,5.06781 -4.03143,5.45122 -3.49053,11.00247 1.09299,11.2173 2.23895,14.45 6.54682,18.46835 5.48455,5.11593 8.48492,4.99566 18.53131,-0.74284 4.34387,-2.48121 8.07776,-4.33147 8.29756,-4.11168 0.21979,0.21979 -0.69374,2.81572 -2.03006,5.76874 -5.88953,13.01472 -6.66543,15.07988 -6.66543,17.74087 0,1.57042 0.90692,3.63902 2.0483,4.67195 1.12656,1.01953 3.59799,4.40476 5.49206,7.52273 3.29005,5.416 3.46712,6.19944 3.96691,17.55131 0.28773,6.53524 1.22926,16.49339 2.09228,22.12922 1.68442,10.99977 1.46656,14.46458 -0.62895,10.00303 -1.26131,-2.68545 -2.9706,-3.71192 -2.9706,-1.78393 0,0.53134 0.75354,2.54626 1.67453,4.4776 1.267,2.65694 1.98465,3.25415 2.94882,2.45396 1.55393,-1.28965 3.52141,5.0195 5.8554,18.77655 1.77562,10.46592 3.54131,15.97796 7.01943,21.91293 4.03534,6.88578 11.76648,9.09289 15.89009,4.53636 3.32132,-3.67002 4.73035,-9.50355 5.66844,-23.46793 1.18923,-17.70261 2.64457,-29.69988 4.38591,-36.15554 1.83581,-6.80592 13.98904,-41.99819 18.1674,-52.6076 3.71867,-9.44218 4.00239,-10.88761 2.13998,-10.90217 -0.6875,-0.005 1.11941,-1.11287 4.01535,-2.46111 2.89595,-1.34823 6.75265,-4.0748 8.57045,-6.05904 4.15512,-4.53556 4.85217,-3.84734 7.68885,7.59142 1.15096,4.64117 2.96956,11.8135 4.04133,15.9385 1.07177,4.125 2.2088,11.325 2.52673,16 0.50324,7.39969 0.17902,10.05337 -2.50463,20.5 -1.69548,6.6 -3.08391,12.95181 -3.08539,14.11514 -0.004,3.19016 -3.62331,7.14349 -7.26488,7.93548 -1.78079,0.3873 -4.26478,1.09122 -5.51997,1.56426 -2.17005,0.81782 -2.20835,1.00279 -0.77969,3.76551 1.64954,3.18986 12.49824,11.82511 16.73168,13.31792 3.10889,1.09627 4.23721,3.21898 2.48432,4.67376 -0.67483,0.56006 -7.06058,2.90337 -14.19056,5.20736 -16.42361,5.30715 -23.31989,8.34354 -24.12255,10.62101 -0.34882,0.98976 -1.64958,2.92456 -2.89057,4.29956 -1.24099,1.375 -2.99169,5.41391 -3.89045,8.97535 -1.93099,7.6518 -5.33364,13.81493 -9.61713,17.41925 -4.05655,3.41336 -11.80145,3.4826 -20.6772,0.18487 z m 6.31327,-23.82947 c -2.34287,-3.59302 -5.27895,-12.49875 -7.50032,-22.75 -1.13222,-5.225 -3.15542,-14.45 -4.49599,-20.5 -6.37455,-28.76828 -7.01418,-43.04172 -2.34971,-52.43474 1.79934,-3.6234 3.40177,-5.14688 7.76706,-7.38439 4.8199,-2.47052 6.39058,-2.77756 12.7021,-2.48298 6.39483,0.29846 7.5529,0.67049 10.3319,3.31912 6.7067,6.39208 7.98227,14.72434 5.02967,32.8548 -1.15291,7.0795 -2.33267,13.25443 -2.62169,13.72206 -0.54782,0.88639 -1.32248,7.25924 -3.93917,32.40613 -2.33615,22.45087 -3.53801,25.5 -10.05119,25.5 -2.43027,0 -3.82566,-0.64434 -4.87266,-2.25 z m -8.32896,-121.35182 c -2.04594,-0.92451 -1.42506,-5.03668 1.23838,-8.202 3.36626,-4.00058 8.85097,-6.50019 12.50288,-5.6981 3.73254,0.8198 10.00874,7.7206 10.00874,11.0048 0,2.35185 -0.31143,2.49712 -5.35331,2.49712 -2.94432,0 -8.00682,0.21668 -11.25,0.48151 -3.24318,0.26483 -6.45919,0.22733 -7.14669,-0.0833 z m 39.49797,-15.82493 c -2.06362,-0.73643 -5.21362,-2.45561 -7,-3.8204 -4.77727,-3.6498 -11.2285,-15.81492 -13.77296,-25.97172 -2.06639,-8.24847 -2.09841,-8.97073 -0.5935,-13.38741 1.97151,-5.78605 6.14179,-11.393722 8.47321,-11.393722 2.68292,0 7.7586,5.859674 10.54912,12.178552 1.74876,3.95991 5.35146,8.65104 11.90368,15.5 5.16777,5.4018 9.91266,10.80437 10.54421,12.00571 2.87488,5.46864 0.27431,11.60445 -6.22566,14.68889 -4.10728,1.94903 -8.78814,2.01652 -13.8781,0.2001 z"
       id="path2392"
       style="fill:#af9275" />
    <path
       inkscape:connector-curvature="0"
       d="m 468.7103,306.08353 c -12.24184,-3.29719 -25.71881,-12.3922 -34.78695,-23.47616 -6.98959,-8.54336 -11.00533,-11.80682 -20.04309,-16.28835 -12.89043,-6.39194 -15.4009,-6.90851 -44.6765,-9.19291 -23.8558,-1.86149 -29.09023,-3.90858 -37.20587,-14.55051 -5.16325,-6.77051 -4.39323,-7.36481 11.4379,-8.82783 16.39042,-1.51471 17.61977,-2.33036 17.19611,-11.40927 -0.25733,-5.51435 0.2435,-7.92962 3.26836,-15.76199 l 3.57226,-9.24975 -1.15639,-20.19583 c -1.98194,-34.61348 1.9353,-78.625402 10.27381,-115.430647 6.32055,-27.898218 22.83874,-41.558413 55.69276,-46.056755 8.09754,-1.108707 17.2582,0.0077 30.15309,3.674778 9.51684,2.706415 33.76326,15.098887 36.47765,18.643918 16.50027,21.549565 20.16777,28.9846 25.48266,51.660344 4.94839,21.112042 7.36301,37.010022 5.85084,38.522182 -0.33406,0.33406 -1.26808,-1.55927 -2.07559,-4.2074 -0.80752,-2.64813 -2.4909,-8.18978 -3.74084,-12.31478 -5.04391,-16.64565 -13.30148,-26.925876 -33.07167,-41.172437 -5.59272,-4.030161 -11.80084,-8.510212 -13.79582,-9.955668 -5.10948,-3.702064 -12.19588,-5.871897 -19.17688,-5.871897 -5.6731,0 -6.0814,0.166663 -7.962,3.25 -1.09024,1.7875 -2.93237,6.175 -4.09362,9.75 -1.16125,3.575 -4.02165,9.425 -6.35643,13 -2.33479,3.575 -4.9775,8.692595 -5.8727,11.372434 -0.8952,2.679839 -5.81437,10.779838 -10.93148,17.999998 -10.30785,14.54422 -12.63886,19.79285 -13.38019,30.12757 -0.40414,5.6341 -0.133,7.68295 1.38952,10.5 2.51307,4.64981 10.86022,9 17.2692,9 2.55971,0 4.94959,0.29557 5.31084,0.65682 0.36125,0.36125 -1.38918,2.84416 -3.88985,5.51758 -4.38864,4.69181 -4.53961,5.06002 -4.3433,10.59318 0.11185,3.15283 -0.14479,8.47771 -0.57033,11.83306 -1.08665,8.56823 0.0862,11.41177 12.33253,29.89936 10.45462,15.78277 10.6843,16.25717 16.91684,34.94138 8.85,26.53096 14.06825,34.55862 22.46427,34.55862 3.12607,0 4.56386,-0.64223 6.80221,-3.03839 3.57463,-3.82665 4.71788,-9.22197 5.92499,-27.96161 0.51371,-7.975 1.41898,-17.85373 2.01172,-21.95274 1.02213,-7.06836 8.98452,-32.32377 16.72446,-53.04726 1.95147,-5.225 4.50546,-12.1404 5.67554,-15.36755 1.68969,-4.66026 2.76631,-6.1423 5.23242,-7.20284 1.70775,-0.7344 4.5065,-2.9315 6.21945,-4.88244 1.71295,-1.95094 3.56086,-3.54717 4.10646,-3.54717 0.54561,0 1.43076,1.6875 1.967,3.75 0.53624,2.0625 2.56802,9.825 4.51507,17.25 5.29084,20.17645 5.47961,24.81518 1.64815,40.5 -5.15793,21.1149 -4.87975,20.35485 -8.04986,21.99418 -1.60157,0.8282 -3.94679,1.51271 -5.2116,1.52113 -3.50105,0.0233 -5.10849,1.43628 -4.35059,3.82422 0.8801,2.77295 8.76715,9.6662 15.30093,13.37295 8.38128,4.75488 8.42307,4.71889 -14.25,12.27394 -14.47371,4.82288 -19.41509,7.3271 -20.13749,10.20536 -0.31863,1.26952 -0.98782,2.30822 -1.4871,2.30822 -1.10486,0 -3.12272,4.62244 -5.24758,12.02094 -2.05992,7.17241 -6.73082,14.46384 -10.52117,16.4239 -3.64055,1.88261 -7.8851,1.88722 -14.83215,0.0161 z m 4.10018,-23.91107 c -2.71574,-1.90218 -5.67041,-10.25821 -8.85758,-25.04989 -1.4221,-6.6 -3.22801,-14.475 -4.01313,-17.5 -7.39487,-28.4918 -7.08512,-51.96744 0.77293,-58.57955 4.08354,-3.43608 12.85729,-5.77737 18.48662,-4.9332 5.91079,0.88638 8.30554,2.52999 11.29731,7.75382 2.16962,3.78829 2.43492,5.41924 2.40078,14.75893 -0.0264,7.22741 -0.87346,14.70761 -2.71771,24 -1.47363,7.425 -3.40233,20.925 -4.28599,30 -1.88193,19.32689 -3.55622,26.82328 -6.53289,29.25 -2.61078,2.12842 -3.85821,2.18553 -6.55034,0.29989 z M 462.79734,158.12237 c -1.53651,-4.00409 6.38176,-11.4998 12.14808,-11.4998 1.67495,0 4.00858,0.67466 5.18584,1.49925 2.9141,2.04112 6.7675,8.45419 5.68133,9.45524 -0.48224,0.44445 -5.71681,1.11678 -11.63238,1.49406 -9.43185,0.60154 -10.83278,0.48477 -11.38287,-0.94875 z m -39.43847,-15.42288 c -1.6077,-1.60769 -2.9214,-3.97019 -2.91934,-5.25 0.006,-3.65977 3.41829,-8.33839 8.67075,-11.88813 9.67345,-6.53754 15.72419,-12.48713 20.97115,-20.62058 5.69907,-8.834278 8.88151,-11.666958 12.52151,-11.145339 3.57147,0.511799 4.9488,4.357076 4.59449,12.827129 -0.42857,10.24526 -3.78818,17.30176 -12.13292,25.48381 -7.53214,7.38531 -18.79945,13.51619 -24.84,13.51619 -3.02424,0 -4.62343,-0.68086 -6.86564,-2.92308 z m 76.57692,0.26145 c -7.90559,-4.16772 -14.41964,-14.75929 -17.60452,-28.62419 -2.16671,-9.4325 -2.17387,-9.69669 -0.38949,-14.369031 1.7644,-4.620033 5.46237,-9.345151 7.3137,-9.345151 2.33325,0 6.57027,4.824276 9.70631,11.051632 2.30964,4.58633 6.37064,9.91257 12.31069,16.14618 4.87526,5.11621 9.38143,10.28511 10.01371,11.48645 2.69417,5.11898 0.63252,10.98041 -4.86144,13.82145 -3.74946,1.93892 -12.6653,1.84844 -16.48896,-0.16734 z"
       id="path2390"
       style="fill:#8a7565" />
    <path
       inkscape:connector-curvature="0"
       d="m 464.41657,304.30426 c -11.84608,-4.87396 -17.34099,-8.85917 -29.98078,-21.74371 -10.76254,-10.97093 -13.62474,-13.30214 -20.59184,-16.77165 -11.35244,-5.65333 -17.23687,-6.91783 -40.49364,-8.70158 -11.22798,-0.86116 -21.99644,-1.98194 -23.9299,-2.49062 -5.23433,-1.37711 -12.15886,-6.1298 -16.30767,-11.19288 -5.19996,-6.34587 -4.90846,-7.50602 2.07305,-8.25046 22.71262,-2.42185 25.65016,-3.29265 26.81915,-7.9503 0.3305,-1.31681 0.11265,-3.30654 -0.48412,-4.42161 -1.67538,-3.13048 -1.33722,-5.40468 2.05871,-13.84519 l 3.14375,-7.81369 0.20451,-39 c 0.18719,-35.69715 0.42347,-40.60908 2.79,-58 5.05419,-37.141611 8.96246,-52.926572 15.67622,-63.314064 7.1399,-11.046814 17.78335,-18.091161 33.54178,-22.199554 20.75083,-5.409969 37.31016,-3.025001 61.65829,8.880373 7.89852,3.862095 15.55756,8.284522 17.0201,9.827617 7.96625,8.405013 18.17886,25.2178 21.91585,36.079527 3.54595,10.306497 9.12733,35.667981 10.39318,47.226101 0.55647,5.08089 0.48465,5.35208 -0.94253,3.55887 -0.84969,-1.06762 -1.54489,-2.64151 -1.54489,-3.49753 0,-3.32932 -6.25798,-20.10741 -9.52072,-25.525733 -5.86656,-9.742394 -11.13285,-15.100215 -21.74458,-22.122548 -5.62909,-3.725056 -12.7097,-9.014822 -15.7347,-11.755035 -6.67033,-6.042356 -11.85383,-8.464372 -19.91928,-9.307378 -7.78352,-0.813539 -9.0233,0.230378 -13.10704,11.036384 -1.68631,4.462132 -3.54242,9.332573 -4.12469,10.8232 -0.58228,1.490628 -3.08462,5.315628 -5.56077,8.5 -2.47614,3.184373 -5.83129,8.418569 -7.45587,11.631549 -3.66509,7.248511 -12.85241,19.786121 -16.01956,21.861311 -3.59018,2.35238 -5.54488,7.40046 -6.57767,16.98705 -1.69678,15.74982 0.38233,21.27612 9.81595,26.09093 6.09617,3.11141 7.33589,4.71893 3.63925,4.71893 -1.36199,0 -2.73765,0.68097 -3.05703,1.51326 -0.94911,2.47333 2.14073,21.67633 4.84877,30.13456 2.90782,9.08221 4.03183,11.04077 15.59618,27.176 8.92831,12.45727 9.63587,14.00802 17.65011,38.68359 4.03071,12.41041 9.36576,22.1977 13.61911,24.9846 1.34255,0.87967 3.99378,1.85138 5.89163,2.15936 2.8805,0.46744 4.04285,0.04 7.03505,-2.58721 2.94476,-2.58553 3.86474,-4.37959 5.15515,-10.05307 0.86389,-3.79825 1.57504,-9.74207 1.58034,-13.2085 0.005,-3.46642 0.68497,-12.37759 1.51039,-19.80259 1.35279,-12.16893 2.28613,-15.83474 9.46615,-37.17946 4.38096,-13.0237 9.81114,-28.36948 12.06707,-34.10173 3.59489,-9.13451 4.51657,-10.62011 7.45951,-12.0235 1.8468,-0.88068 4.37157,-2.9724 5.61059,-4.64827 1.91752,-2.59358 4.87666,-4.1467 4.87666,-2.55954 0,0.26812 1.16645,4.88062 2.5921,10.25 6.20308,23.36235 7.73637,32.58832 6.44207,38.7625 -3.20392,15.28349 -7.17751,30.07191 -8.41188,31.30629 -0.80425,0.80424 -3.63577,2.01175 -6.29228,2.68336 -3.66425,0.92639 -4.90629,1.73225 -5.14604,3.33886 -0.41765,2.79869 6.56486,9.56356 14.62741,14.17149 3.36819,1.925 5.99934,3.95 5.84698,4.5 -0.15235,0.55 -7.00031,3.2875 -15.21768,6.08333 -16.80512,5.71767 -23.25945,8.71559 -24.13841,11.21185 -0.33016,0.93765 -1.46221,2.66466 -2.51565,3.83779 -1.05345,1.17314 -2.59841,4.74863 -3.43324,7.94555 -2.05638,7.87475 -5.61369,14.62128 -9.38094,17.79122 -2.64681,2.22714 -4.07203,2.62662 -9.29917,2.60652 -4.086,-0.0157 -8.03939,-0.79153 -11.69249,-2.29457 z m 7.29871,-24.43169 c -2.5781,-3.8185 -4.74543,-10.73113 -7.7599,-24.75 -1.41919,-6.6 -3.43415,-15.825 -4.47768,-20.5 -3.89122,-17.43255 -5.25083,-28.21826 -4.53805,-36 1.40091,-15.29455 6.34578,-20.82698 19.45328,-21.76482 11.14943,-0.79774 16.21016,3.6545 18.17637,15.99091 0.8518,5.34433 0.60968,8.42232 -1.63412,20.77391 -3.31503,18.24839 -3.96876,22.86886 -5.94243,42 -1.63597,15.85783 -3.62028,24.78665 -5.81881,26.18299 -2.51049,1.59448 -5.62137,0.78826 -7.45866,-1.93299 z m -8.82936,-122.33069 c -0.8144,-1.31773 2.10731,-5.49975 5.73408,-8.20752 1.48177,-1.1063 4.17932,-1.91179 6.40252,-1.91179 3.14394,0 4.45021,0.66381 7.1905,3.65398 5.48809,5.98854 4.46708,6.92175 -7.96296,7.27823 -7.10157,0.20366 -10.90397,-0.0683 -11.36414,-0.8129 z m -39.45013,-14.91931 c -4.40652,-4.40652 -1.38936,-11.64337 7.24326,-17.37337 7.79247,-5.17235 17.2473,-14.75425 20.8399,-21.11999 3.08593,-5.467969 7.40481,-9.506642 10.16622,-9.506642 4.67381,0 6.73388,8.613362 4.3167,18.048532 -2.94699,11.50324 -11.94292,22.14271 -24.28366,28.72026 -7.42677,3.95843 -15.04234,4.47129 -18.28242,1.23121 z m 78,0.40806 c -4.08817,-1.76803 -10,-7.19157 -10,-9.17405 0,-0.75551 -1.29333,-3.25474 -2.87407,-5.55383 -3.49611,-5.08491 -7.58414,-20.46913 -6.7709,-25.48053 0.66977,-4.127338 5.10545,-11.199652 7.0243,-11.199652 2.63854,0 6.22045,3.882911 9.37741,10.165412 2.00659,3.9932 6.67172,10.1006 12.50489,16.37086 10.74416,11.54926 12.85504,15.38355 10.64082,19.32846 -3.61133,6.43404 -12.26785,8.84509 -19.90245,5.54333 z"
       id="path2388"
       style="fill:#6b5b53" />
    <path
       d="m 437.04883,14.15625 c -21.54425,0.380697 -45.68671,9.165729 -55.76758,29.599609 -11.2965,26.559378 -12.47031,55.910255 -15.93015,84.186511 -2.07124,23.66476 -0.21452,47.54315 -0.22805,71.13771 -2.53208,8.07925 -9.22173,16.96208 -4.99219,25.54687 0.16158,6.43755 -7.98941,6.24886 -12.43359,6.92774 -6.4002,0.89541 -14.05368,0.0503 -19.47071,3.83984 -2.3645,5.37238 4.14419,9.38513 6.75586,13.20899 13.41917,12.52499 33.38522,9.15437 49.97656,11.52343 17.59175,1.27874 35.03767,8.44692 46.50391,22.20508 10.92037,12.78637 25.35154,24.26489 42.5414,26.28702 7.03367,0.80602 14.55491,-2.02401 17.53087,-8.85343 3.90958,-6.15747 4.53928,-14.06987 8.2832,-20.06445 2.53194,-2.80604 3.62306,-6.95627 7.89648,-7.74219 10.5852,-5.45123 23.14151,-6.82445 33.25196,-12.85742 2.127,-5.48128 -5.13408,-7.23032 -8.27149,-9.75781 -3.64518,-3.58612 -10.23221,-5.97983 -10.9414,-11.46484 4.31536,-0.99617 9.79406,-1.40965 12.24609,-5.94336 3.52228,-7.2212 3.1605,-15.49167 5.99059,-22.96277 3.14558,-10.47037 2.04762,-21.48391 -1.11253,-31.78601 -2.1131,-8.70533 -3.54265,-17.98732 -7.214,-26.06568 -5.82276,-3.01226 -9.08708,4.89872 -13.59765,6.97657 -8.097,7.20383 -8.60384,18.96187 -13.17019,28.22689 -8.7321,23.94317 -17.57228,48.5755 -17.47535,74.43111 -0.6986,8.43551 -0.0231,19.63466 -7.84079,25.00801 -6.96516,3.1533 -12.79031,-3.557 -15.30664,-9.32226 -9.59432,-17.92154 -10.8273,-40.01926 -24.96733,-55.57072 -7.9862,-9.78619 -14.95347,-20.82099 -17.29244,-33.43514 -5.35951,-18.25233 -17.49633,-35.1513 -16.85937,-54.67383 0.35217,-9.50824 6.65157,-17.02771 13.35796,-23.15246 9.78738,-11.296037 18.8599,-23.36443 26.79633,-35.999885 3.96263,-8.107948 4.85566,-17.672276 10.68164,-24.763672 11.16503,-0.816959 18.8438,8.752183 26.39875,15.624235 6.91453,7.035685 15.96327,11.186981 23.63432,17.14746 10.57001,9.571817 13.50452,24.164232 19.62514,36.372832 2.22404,3.65022 7.06295,-0.34335 5.26958,-3.72979 C 528.84977,98.329396 524.84966,82.571152 519.49687,67.44304 514.2452,55.291721 506.55997,44.052561 497.3874,34.617346 479.36797,23.467745 458.78364,13.369081 437.04883,14.15625 Z M 488.25,90.728516 c -5.27769,0.693957 -3.91397,7.399755 -1.44336,10.322264 6.77204,10.33324 15.45087,19.49073 22.85742,29.14258 4.5867,3.21327 -0.90415,8.69161 -5.11523,7.32422 -3.27157,-0.75625 -10.20138,-4.64907 -11.08008,1.04492 1.18872,5.58817 8.3451,7.0538 13.13281,7.87891 7.89034,1.22121 18.09476,-4.58089 16.61133,-13.53711 -2.26866,-9.39748 -11.63862,-14.42453 -16.91601,-21.97852 -5.38674,-6.07426 -8.07052,-15.076385 -15.07032,-19.626952 -0.93899,-0.387218 -1.95809,-0.610124 -2.97656,-0.570312 z m -23.54883,7.84375 c -4.22116,0.674563 -4.09419,6.766714 -5.65039,9.884764 -1.74935,9.57652 -6.26193,19.26138 -15.01172,24.03125 -5.75381,3.71402 -13.00022,5.51622 -19.61328,3.7207 -4.35119,0.15986 -5.60279,6.35799 -1.72266,8.3418 7.29377,4.88105 17.08016,0.71762 23.4479,-3.85115 11.98691,-8.07557 23.23252,-20.64797 22.26304,-36.05119 -0.37511,-2.21187 -0.59663,-6.261127 -3.71289,-6.076174 z m 9.16406,47.021484 c -5.69345,1.06569 -12.29257,5.64433 -12.18164,11.86328 2.6242,5.36205 9.74211,2.37077 14.28711,2.39453 3.74728,-0.21404 10.61939,0.61554 11.50782,-4.15625 -2.32341,-5.27669 -7.46913,-10.38467 -13.61329,-10.10156 z m 4.71289,29.06641 c -10.20899,-0.53906 -22.71416,4.34164 -24.28906,15.7207 -4.77956,21.51735 3.67521,42.92157 7.8401,63.7962 2.47332,9.6133 3.20207,21.02567 10.64623,28.362 4.57828,2.38939 8.09684,-3.72463 5.99219,-7.55273 1.98705,-3.25223 7.49326,-4.48715 6.55596,-9.45677 2.4459,-22.97978 6.95154,-45.74651 9.6413,-68.66042 -0.11992,-9.39151 -5.27793,-22.41947 -16.38672,-22.20898 z"
       id="path2386"
       inkscape:connector-curvature="0"
       style="fill:#100807" />
  </g>
  <g
     font-size="7.5"
     font-variant="normal"
     letter-spacing="0"
     font-stretch="normal"
     font-weight="bold"
     line-height="125%"
     word-spacing="0"
     font-style="normal"
     transform="translate(64.810026,-42.042623)"
     id="text4330"
     stroke-opacity="1"
     font-family="STIX"
     fill="#000000"
     stroke="none"
     stroke-linejoin="miter"
     fill-opacity="1"
     stroke-linecap="butt"
     stroke-width="1">
    <path
       inkscape:connector-curvature="0"
       id="path4335"
       d="m -56.13327,39.467617 0,-0.1875 c -0.3075,0 -0.4425,-0.165 -0.825,-1.0725 l -1.665,-3.915 -0.21,0 -1.6575,4.0875 c -0.285,0.705 -0.3975,0.84 -0.7425,0.9 l 0,0.1875 1.515,0 0,-0.1875 c -0.4425,-0.03 -0.6075,-0.1125 -0.6075,-0.3075 0,-0.18 0.1425,-0.495 0.2325,-0.7275 l 0.0975,-0.255 1.6875,0 c 0.255,0.5925 0.345,0.855 0.345,1.02 0,0.165 -0.0975,0.225 -0.345,0.2475 l -0.24,0.0225 0,0.1875 2.415,0 z m -2.2875,-1.77 -1.4625,0 0.705,-1.8225 0.7575,1.8225 z" />
    <path
       inkscape:connector-curvature="0"
       id="path4337"
       d="m -55.760848,34.397617 0,0.1875 c 0.525,0.045 0.63,0.15 0.63,0.735 l 0,3.2025 c 0,0.3825 -0.045,0.5925 -0.2925,0.69 -0.0825,0.0375 -0.195,0.0525 -0.3375,0.0675 l 0,0.1875 2.4975,0 0,-0.1875 c -0.5925,-0.075 -0.6525,-0.1425 -0.6525,-0.645 l 0,-1.44 c 0.99,-0.0075 1.245,-0.03 1.5675,-0.15 0.6225,-0.2325 0.9675,-0.69 0.9675,-1.29 0,-0.915 -0.765,-1.3575 -2.0175,-1.3575 l -2.3625,0 z m 1.845,0.525 c 0,-0.1725 0.1275,-0.2625 0.375,-0.2625 0.6225,0 0.87,0.345 0.87,1.1775 0,0.8325 -0.3075,1.0875 -1.245,1.095 l 0,-2.01 z" />
  </g>
</svg>
