<?xml version="1.0" encoding="UTF-8" standalone="no"?>
<!-- Created with Inkscape (http://www.inkscape.org/) -->

<svg
   xmlns:dc="http://purl.org/dc/elements/1.1/"
   xmlns:cc="http://creativecommons.org/ns#"
   xmlns:rdf="http://www.w3.org/1999/02/22-rdf-syntax-ns#"
   xmlns:svg="http://www.w3.org/2000/svg"
   xmlns="http://www.w3.org/2000/svg"
   xmlns:xlink="http://www.w3.org/1999/xlink"
   xmlns:sodipodi="http://sodipodi.sourceforge.net/DTD/sodipodi-0.dtd"
   xmlns:inkscape="http://www.inkscape.org/namespaces/inkscape"
   id="svg2440"
   sodipodi:version="0.32"
   inkscape:version="0.91 r13725"
   width="256"
   height="256"
   sodipodi:docname="folder-arch.svg"
   inkscape:output_extension="org.inkscape.output.svg.inkscape"
   version="1.1">
  <metadata
     id="metadata2445">
    <rdf:RDF>
      <cc:Work>
        <dc:format>image/svg+xml</dc:format>
        <dc:type
           rdf:resource="http://purl.org/dc/dcmitype/StillImage" />
      </cc:Work>
    </rdf:RDF>
  </metadata>
  <defs
     id="defs2443">
    <linearGradient
       id="linearGradient3233">
      <stop
         id="stop3235"
         stop-color="#ffffff"
         stop-opacity="1" />
      <stop
         id="stop3237"
         offset="1"
         stop-color="#ffffff"
         stop-opacity="0" />
    </linearGradient>
    <linearGradient
       id="linearGradient3223">
      <stop
         id="stop3225"
         stop-color="#000000"
         stop-opacity="1" />
      <stop
         offset="1"
         id="stop3227"
         stop-color="#dbdbdb"
         stop-opacity="1" />
    </linearGradient>
    <linearGradient
       inkscape:collect="always"
       xlink:href="#linearGradient3233"
       id="linearGradient3667"
       gradientUnits="userSpaceOnUse"
       gradientTransform="matrix(2.5858658,0,0,2.5858658,72.28743,60.11935)"
       spreadMethod="pad"
       x1="41.09"
       y1="9.05"
       x2="52.757"
       y2="37.33" />
    <linearGradient
       inkscape:collect="always"
       xlink:href="#linearGradient3223"
       id="linearGradient3670"
       gradientUnits="userSpaceOnUse"
       gradientTransform="matrix(2.5858658,0,0,2.5858658,72.28743,60.11935)"
       spreadMethod="reflect"
       x1="58.909"
       y1="11.909"
       x2="42.18"
       y2="36.455" />
    <filter
       inkscape:collect="always"
       id="filter4204"
       x="-0.021"
       width="1.043"
       y="-0.024"
       height="1.049"
       color-interpolation-filters="sRGB">
      <feGaussianBlur
         inkscape:collect="always"
         stdDeviation="2.22158"
         id="feGaussianBlur4206" />
    </filter>
    <linearGradient
       inkscape:collect="always"
       id="linearGradient4167">
      <stop
         id="stop4169"
         stop-color="#adadad"
         stop-opacity="0.624" />
      <stop
         offset="1"
         id="stop4171"
         stop-color="#ffffff"
         stop-opacity="0.973" />
    </linearGradient>
    <linearGradient
       id="linearGradient4223"
       inkscape:collect="always">
      <stop
         id="stop4225"
         stop-color="#bebebe"
         stop-opacity="0.803" />
      <stop
         id="stop4227"
         offset="1"
         stop-color="#9f9f9f"
         stop-opacity="0.732" />
    </linearGradient>
    <linearGradient
       id="linearGradient4211"
       inkscape:collect="always">
      <stop
         id="stop4213"
         stop-color="#9f9f9f"
         stop-opacity="0.634" />
      <stop
         id="stop4215"
         offset="1"
         stop-color="#696969"
         stop-opacity="0" />
    </linearGradient>
    <linearGradient
       id="linearGradient4171"
       inkscape:collect="always">
      <stop
         id="stop4173"
         stop-color="#b2b2b2"
         stop-opacity="0.624" />
      <stop
         id="stop4175"
         offset="1"
         stop-color="#ffffff"
         stop-opacity="0.698" />
    </linearGradient>
    <linearGradient
       id="linearGradient4142"
       inkscape:collect="always">
      <stop
         id="stop4144"
         stop-color="#909090"
         stop-opacity="0.519" />
      <stop
         id="stop4146"
         offset="1"
         stop-color="#696969"
         stop-opacity="0" />
    </linearGradient>
    <linearGradient
       gradientUnits="userSpaceOnUse"
       y2="324.36"
       x2="278.75"
       y1="63.25"
       x1="165.74"
       id="linearGradient4148"
       xlink:href="#linearGradient4142"
       inkscape:collect="always" />
    <filter
       height="1.1334639"
       y="-0.066731932"
       width="1.0749588"
       x="-0.037479381"
       id="filter4160"
       inkscape:collect="always"
       color-interpolation-filters="sRGB">
      <feGaussianBlur
         id="feGaussianBlur4162"
         inkscape:collect="always"
         stdDeviation="4.7500159" />
    </filter>
    <linearGradient
       spreadMethod="reflect"
       gradientUnits="userSpaceOnUse"
       y2="114.16"
       x2="387.93"
       y1="106.85"
       x1="379.78"
       id="linearGradient4177"
       xlink:href="#linearGradient4167"
       inkscape:collect="always" />
    <linearGradient
       gradientTransform="translate(26.808511,-26.382979)"
       y2="114.16"
       x2="387.93"
       y1="108.46"
       x1="381.27"
       spreadMethod="reflect"
       gradientUnits="userSpaceOnUse"
       id="linearGradient4207"
       xlink:href="#linearGradient4171"
       inkscape:collect="always" />
    <linearGradient
       gradientUnits="userSpaceOnUse"
       y2="125.1"
       x2="281.1"
       y1="61.711"
       x1="284.7"
       id="linearGradient4217"
       xlink:href="#linearGradient4211"
       inkscape:collect="always" />
    <linearGradient
       gradientUnits="userSpaceOnUse"
       y2="103.09"
       x2="255.7"
       y1="93.26"
       x1="259.02"
       id="linearGradient4229"
       xlink:href="#linearGradient4223"
       inkscape:collect="always" />
    <linearGradient
       gradientUnits="userSpaceOnUse"
       y2="117.29"
       x2="258.99"
       y1="102.54"
       x1="262.84"
       id="linearGradient4237"
       xlink:href="#linearGradient4223"
       inkscape:collect="always" />
    <filter
       height="1.136"
       y="-0.068"
       width="1.049"
       x="-0.024"
       id="filter4257"
       inkscape:collect="always"
       color-interpolation-filters="sRGB">
      <feGaussianBlur
         id="feGaussianBlur4259"
         inkscape:collect="always" />
    </filter>
  </defs>
  <sodipodi:namedview
     inkscape:window-height="1056"
     inkscape:window-width="1920"
     inkscape:pageshadow="2"
     inkscape:pageopacity="0.0"
     guidetolerance="10.0"
     gridtolerance="10.0"
     objecttolerance="10.0"
     borderopacity="1.0"
     bordercolor="#666666"
     pagecolor="#ffffff"
     id="base"
     showgrid="false"
     inkscape:zoom="3.5351562"
     inkscape:cx="128"
     inkscape:cy="128"
     inkscape:window-x="0"
     inkscape:window-y="0"
     inkscape:current-layer="svg2440"
     inkscape:window-maximized="1" />
  <g
     transform="matrix(0.77128144,0,0,0.77128144,-83.090336,-30.757321)"
     id="g4261">
    <path
       d="m 137.15847,253.33333 1.0929,10.92897 c 1.69466,2.56439 1.62485,5.1824 6.55737,7.10382 l 234.9905,77.59563 c 4.36168,2.76045 7.27409,1.93611 10.91114,-1.0929 l 16.39344,-17.48633 z"
       id="path4239"
       inkscape:connector-curvature="0"
       sodipodi:nodetypes="ccccccc"
       stroke-opacity="1"
       fill="#000000"
       filter="url(#filter4257)"
       fill-rule="evenodd"
       stroke="none"
       stroke-linejoin="miter"
       fill-opacity="0.514"
       stroke-linecap="butt"
       stroke-width="1" />
    <path
       d="M 146.27659,241.2766 139.89362,67.340426 c -0.0538,-6.437983 2.49923,-9.41706 7.97872,-7.978724 l 135.10638,37.234043 c 8.12648,2.325734 17.80936,-1.266511 19.14894,-15.425533 0.93604,-9.893676 4.6708,-17.669623 18.61702,-14.893617 l 85.6383,19.680851 c 6.41139,1.511285 7.81765,4.447577 7.4468,11.702128 l -2.12765,230.851066 -5.31915,5.85106 -254.86675,-84.34164 z"
       id="path4198"
       inkscape:connector-curvature="0"
       sodipodi:nodetypes="ccccsccccccc"
       stroke-opacity="1"
       fill="#000000"
       fill-rule="evenodd"
       stroke="none"
       stroke-linejoin="miter"
       fill-opacity="0.73"
       stroke-linecap="butt"
       stroke-width="1" />
    <path
       sodipodi:nodetypes="ccccsccccccc"
       inkscape:connector-curvature="0"
       id="path4209"
       d="M 146.27659,241.2766 139.89362,67.340426 c -0.0538,-6.437983 2.49923,-9.41706 7.97872,-7.978724 l 135.10638,37.234043 c 8.12648,2.325734 17.80936,-1.266511 19.14894,-15.425533 0.93604,-9.893676 4.6708,-17.669623 18.61702,-14.893617 l 85.6383,19.680851 c 6.41139,1.511285 7.81765,4.447577 7.4468,11.702128 l -2.12765,230.851066 -5.31915,5.85106 -254.86675,-84.34164 z"
       stroke-opacity="1"
       fill="url(#linearGradient4217)"
       fill-rule="evenodd"
       stroke="none"
       stroke-linejoin="miter"
       fill-opacity="1"
       stroke-linecap="butt"
       stroke-width="1" />
    <path
       inkscape:connector-curvature="0"
       id="path4221"
       d="m 142.62295,64.262295 267.21311,65.573775 1.0929,194.53552 -256.8306,-92.89618 z"
       sodipodi:nodetypes="ccccc"
       stroke-opacity="0.705"
       fill="url(#linearGradient4229)"
       fill-rule="evenodd"
       stroke="#cecece"
       stroke-linejoin="miter"
       fill-opacity="1"
       stroke-linecap="butt"
       stroke-width="1" />
    <path
       d="m 136.61202,73.005464 267.21311,65.573776 4.37159,189.07104 -260.10929,-87.4317 z"
       id="path4219"
       inkscape:connector-curvature="0"
       stroke-opacity="0.705"
       fill="url(#linearGradient4237)"
       fill-rule="evenodd"
       stroke="#cecece"
       stroke-linejoin="miter"
       fill-opacity="1"
       stroke-linecap="butt"
       stroke-width="1" />
    <path
       d="m 116.2037,92.685185 c 1.13182,-4.540599 4.63483,-9.034209 10.68729,-7.545261 L 261.11111,123.7037 c 6.48148,1.63624 16.36287,0.33244 20.83334,-11.11111 4.00878,-10.26173 10.87392,-18.779525 25.46296,-16.203701 l 68.51852,13.888891 c 12.25335,3.29007 11.96705,11.68066 12.96296,18.51851 l 12.5,205.55556 c 0.64976,7.44283 -5.7507,13.21303 -12.96296,10.18518 L 144.90741,262.59259 c -4.92216,-1.55932 -8.93994,-3.09709 -9.25926,-10.18518 z"
       id="path4138"
       inkscape:connector-curvature="0"
       sodipodi:nodetypes="cccscccccccc"
       stroke-opacity="1"
       fill="#000000"
       fill-rule="evenodd"
       stroke="none"
       stroke-linejoin="miter"
       fill-opacity="0.77"
       stroke-linecap="butt"
       stroke-width="1" />
    <path
       sodipodi:nodetypes="cccsccccccc"
       inkscape:connector-curvature="0"
       id="path4140"
       d="m 116.2037,92.685185 c 1.13182,-4.540599 4.63483,-9.034209 10.68729,-7.545261 L 261.11111,123.7037 c 6.48148,1.63624 16.36287,0.33244 20.83334,-11.11111 4.00878,-10.26173 10.87392,-18.779525 25.46296,-16.203701 l 68.51852,13.888891 c 12.25335,3.29007 11.96705,11.68066 12.96296,18.51851 l 12.5,205.55556 c 0.64976,7.44283 -5.7507,13.21303 -12.96296,10.18518 L 209.72222,283.88889 C 173.76467,257.82993 120.35853,138.21611 116.2037,92.685185 Z"
       stroke-opacity="1"
       fill="url(#linearGradient4148)"
       fill-rule="evenodd"
       stroke="none"
       stroke-linejoin="miter"
       fill-opacity="1"
       stroke-linecap="butt"
       stroke-width="1" />
    <path
       d="m 177.77778,215.83334 -80.555558,82.4074 255.555558,88.42593 38.75029,-40.87068 c 4.63488,-1.3015 9.96817,-1.38077 9.86082,-10.98118 L 396.29629,282.5 Z"
       id="path4150"
       inkscape:connector-curvature="0"
       sodipodi:nodetypes="ccccccc"
       stroke-opacity="1"
       fill="#000000"
       filter="url(#filter4160)"
       fill-rule="evenodd"
       stroke="none"
       stroke-linejoin="miter"
       fill-opacity="0.273"
       stroke-linecap="butt"
       stroke-width="1"
       style="filter:url(#filter4160)" />
    <path
       inkscape:connector-curvature="0"
       d="m 130.29688,79.757812 c -3.73674,-0.05935 -6.2712,2.374412 -7.66211,5.353516 1.24508,-0.330919 2.6592,-0.363492 4.25585,0.0293 l 134.22071,38.562492 c 5.49861,1.38812 13.44221,0.65773 18.45508,-6.58203 -4.30627,2.38583 -9.16625,2.43292 -12.90039,1.49024 L 132.44727,80.046875 c -0.75656,-0.186118 -1.47316,-0.278306 -2.15039,-0.289063 z m 177.54687,11.074219 c -7.10689,0.02874 -11.9932,3.152137 -15.51367,7.738281 3.82724,-2.318415 8.71897,-3.304404 15.07812,-2.18164 l 68.51758,13.888668 c 12.25335,3.29007 11.96698,11.68169 12.96289,18.51954 l 12.5,205.55468 c 0.1753,2.00795 -0.17581,3.88521 -0.90429,5.50977 4.09619,-1.28823 6.90142,-5.55587 6.46093,-10.60156 l -12.5,-205.55665 c -0.99591,-6.83785 -0.70954,-15.2275 -12.96289,-18.51757 L 312.96289,91.296875 c -1.82363,-0.321978 -3.52737,-0.47128 -5.11914,-0.464844 z"
       id="path4164"
       stroke-opacity="1"
       fill="#b5b5b5"
       fill-rule="evenodd"
       stroke="none"
       stroke-linejoin="miter"
       fill-opacity="1"
       stroke-linecap="butt"
       stroke-width="1" />
    <path
       id="path4169"
       d="m 375.92578,110.27734 c 12.25335,3.29007 11.96698,11.68169 12.96289,18.51954 2.18404,-2.05828 3.13422,-2.71335 5.55664,-5.09376 -0.99591,-6.83785 -0.70954,-15.2275 -12.96289,-18.51757 -2.39781,2.28773 -2.9924,2.79876 -5.55664,5.09179 z"
       inkscape:connector-curvature="0"
       sodipodi:nodetypes="ccccc"
       stroke-opacity="1"
       fill="url(#linearGradient4177)"
       fill-rule="evenodd"
       stroke="none"
       stroke-linejoin="miter"
       fill-opacity="1"
       stroke-linecap="butt"
       stroke-width="1" />
    <path
       inkscape:connector-curvature="0"
       d="m 151.9043,54.332031 c -2.67378,0.112285 -4.27807,1.802415 -4.90039,4.837891 0.28199,0.05237 0.56972,0.11281 0.86914,0.191406 l 135.10547,37.234375 c 5.41154,1.54874 11.51034,0.467116 15.3789,-4.605469 -2.77183,0.801996 -5.76159,0.727663 -8.57031,-0.07617 L 154.68164,54.681641 c -1.0274,-0.269688 -1.9536,-0.384203 -2.77734,-0.34961 z m 170.88281,6.701172 c -5.39865,-0.126557 -8.73663,1.852669 -10.81445,5.035156 2.34672,-0.518874 5.2277,-0.496408 8.77148,0.208985 l 85.63867,19.679687 c 6.41139,1.511285 7.81812,4.448574 7.44727,11.703125 l -2.12891,230.849614 -0.47461,0.52148 1.96485,0.65039 5.31836,-5.85156 2.1289,-230.851564 c 0.37085,-7.254551 -1.03587,-10.189887 -7.44726,-11.701172 L 327.55273,61.595703 c -1.74327,-0.347001 -3.32697,-0.528775 -4.76562,-0.5625 z"
       id="path4200"
       stroke-opacity="1"
       fill="#b0b0b0"
       fill-rule="evenodd"
       stroke="none"
       stroke-linejoin="miter"
       fill-opacity="1"
       stroke-linecap="butt"
       stroke-width="1" />
    <path
       sodipodi:nodetypes="ccccc"
       inkscape:connector-curvature="0"
       d="m 403.12392,85.141164 c 12.4021,2.867396 10.71654,4.984484 10.70306,18.467586 2.18404,-2.05828 4.25114,-3.752349 6.67356,-6.132759 0.48467,-12.136762 1.00482,-14.993724 -11.89791,-17.244792 -2.39781,2.28773 -2.91447,2.616935 -5.47871,4.909965 z"
       id="path4205"
       stroke-opacity="1"
       fill="url(#linearGradient4207)"
       fill-rule="evenodd"
       stroke="none"
       stroke-linejoin="miter"
       fill-opacity="1"
       stroke-linecap="butt"
       stroke-width="1" />
  </g>
  <g
     id="text4194"
     transform="translate(44.17057,-64.395489)"
     font-style="normal"
     word-spacing="0"
     line-height="125%"
     font-weight="bold"
     font-stretch="normal"
     letter-spacing="0"
     font-variant="normal"
     font-size="7.5"
     stroke-opacity="1"
     font-family="STIXIntegralsSm"
     fill="#000000"
     stroke="none"
     stroke-linejoin="miter"
     fill-opacity="1"
     stroke-linecap="butt"
     stroke-width="1">
    <path
       d="m -33.815041,58.840733 -2.204589,0 -0.347901,0.996093 -1.417236,0 2.025146,-5.467529 1.680909,0 2.025146,5.467529 -1.417236,0 -0.344239,-0.996093 z m -1.853027,-1.014405 1.497803,0 -0.747071,-2.175293 -0.750732,2.175293 z"
       id="path4199"
       inkscape:connector-curvature="0" />
    <path
       d="m -31.33213,54.369297 2.340087,0 q 1.043702,0 1.600342,0.465088 0.560303,0.461426 0.560303,1.318359 0,0.860596 -0.560303,1.325684 -0.55664,0.461426 -1.600342,0.461426 l -0.930175,0 0,1.896972 -1.409912,0 0,-5.467529 z m 1.409912,1.021729 0,1.527099 0.780029,0 q 0.410156,0 0.633545,-0.197754 0.223389,-0.201416 0.223389,-0.567627 0,-0.366211 -0.223389,-0.563965 -0.223389,-0.197753 -0.633545,-0.197753 l -0.780029,0 z"
       id="path4201"
       inkscape:connector-curvature="0" />
  </g>
  <path
     inkscape:connector-curvature="0"
     sodipodi:nodetypes="cccccccc"
     id="path3893"
     d="M 28.204264,239.6324 C 70.656654,170.25042 108.0477,96.650644 140.25545,18.731456 169.73803,95.275524 207.05781,167.34117 248.4649,237.07123 221.4021,225.13603 199.88137,209.8756 165.22686,202.49543 l 1.28059,-23.69083 c -7.44592,-42.96403 -43.10791,-33.43176 -49.94282,-1.28058 l -0.6403,25.6117 c -30.50358,4.58421 -58.802682,22.39534 -87.720066,36.49668 z"
     transform="matrix(-0.73326805,0.03863705,0.32515021,0.55246926,146.86035,111.56448)"
     fill="#000000"
     filter="url(#filter4204)"
     fill-rule="evenodd"
     stroke="none"
     fill-opacity="0.6" />
  <g
     id="g4180"
     transform="translate(-64.495028,3.6773481)">
    <path
       sodipodi:nodetypes="cccccccc"
       id="path2451"
       d="m 110.37018,244.42105 c 31.17218,-50.94616 58.62787,-104.98939 82.27755,-162.204302 21.64862,56.205182 49.05199,109.121922 79.4566,160.323672 -19.87181,-8.76383 -35.67417,-19.96935 -61.12046,-25.3885 l 0.94031,-17.39582 c -5.46742,-31.54785 -31.6535,-24.54845 -36.67228,-0.94032 l -0.47015,18.8063 c -22.39833,3.36612 -43.17795,16.44457 -64.41157,26.79897 z"
       inkscape:connector-curvature="0"
       stroke-opacity="1"
       fill="url(#linearGradient3670)"
       fill-rule="evenodd"
       stroke="#616161"
       stroke-linejoin="miter"
       fill-opacity="1"
       stroke-linecap="butt"
       stroke-width="0.734" />
    <path
       d="m 154.32989,165.66968 c 13.71666,-27.03094 26.493,-54.84548 38.31784,-83.452932 5.41215,14.051294 17.76618,44.822732 23.85466,58.487552 -25.99589,-10.50139 -32.11039,31.69788 -62.1725,24.96538 z"
       id="path3231"
       sodipodi:nodetypes="cccc"
       inkscape:connector-curvature="0"
       fill="url(#linearGradient3667)"
       fill-rule="evenodd"
       stroke="none"
       fill-opacity="1" />
  </g>
</svg>
