<?xml version="1.0" encoding="UTF-8" standalone="no"?>
<!-- Created with Inkscape (http://www.inkscape.org/) -->

<svg
   xmlns:dc="http://purl.org/dc/elements/1.1/"
   xmlns:cc="http://creativecommons.org/ns#"
   xmlns:rdf="http://www.w3.org/1999/02/22-rdf-syntax-ns#"
   xmlns:svg="http://www.w3.org/2000/svg"
   xmlns="http://www.w3.org/2000/svg"
   xmlns:xlink="http://www.w3.org/1999/xlink"
   xmlns:sodipodi="http://sodipodi.sourceforge.net/DTD/sodipodi-0.dtd"
   xmlns:inkscape="http://www.inkscape.org/namespaces/inkscape"
   id="svg3938"
   height="256"
   width="256"
   inkscape:version="0.91 r13725"
   sodipodi:docname="folder-dock-skins.svg"
   version="1.1">
  <sodipodi:namedview
     pagecolor="#ffffff"
     bordercolor="#666666"
     borderopacity="1"
     objecttolerance="10"
     gridtolerance="10"
     guidetolerance="10"
     inkscape:pageopacity="0"
     inkscape:pageshadow="2"
     inkscape:window-width="1920"
     inkscape:window-height="1056"
     id="namedview96"
     showgrid="false"
     inkscape:zoom="3.3984375"
     inkscape:cx="128"
     inkscape:cy="128"
     inkscape:window-x="0"
     inkscape:window-y="0"
     inkscape:window-maximized="1"
     inkscape:current-layer="svg3938" />
  <defs
     id="defs3940">
    <linearGradient
       id="linearGradient3979">
      <stop
         id="stop3981"
         stop-color="#ffffff"
         stop-opacity="1" />
      <stop
         offset="1"
         id="stop3983"
         stop-color="#ffffff"
         stop-opacity="0" />
    </linearGradient>
    <linearGradient
       id="linearGradient3967">
      <stop
         id="stop3969"
         stop-color="#ffffff"
         stop-opacity="1" />
      <stop
         id="stop3975"
         offset="0.84"
         stop-color="#212993"
         stop-opacity="1" />
      <stop
         offset="1"
         id="stop3971"
         stop-color="#101a62"
         stop-opacity="1" />
    </linearGradient>
    <linearGradient
       id="linearGradient3953">
      <stop
         id="stop3955"
         stop-color="#383f9d"
         stop-opacity="1" />
      <stop
         id="stop3963"
         offset="0.817"
         stop-color="#3e45a1"
         stop-opacity="0" />
      <stop
         id="stop3961"
         offset="0.911"
         stop-color="#444ca5"
         stop-opacity="1" />
      <stop
         offset="1"
         id="stop3957"
         stop-color="#d5d6e3"
         stop-opacity="1" />
    </linearGradient>
    <radialGradient
       inkscape:collect="always"
       xlink:href="#linearGradient3953"
       id="radialGradient3959"
       cx="127.47"
       cy="528.06"
       fx="127.47"
       fy="528.06"
       r="120.81"
       gradientTransform="matrix(0.99288255,-0.01259676,0.00953377,0.75145672,-6.0580259,-135.52545)"
       gradientUnits="userSpaceOnUse" />
    <radialGradient
       inkscape:collect="always"
       xlink:href="#linearGradient3967"
       id="radialGradient3991"
       gradientUnits="userSpaceOnUse"
       spreadMethod="reflect"
       cx="50.756"
       cy="82.42"
       fx="49.18"
       fy="98.43"
       r="19.681" />
    <linearGradient
       inkscape:collect="always"
       xlink:href="#linearGradient3979"
       id="linearGradient3993"
       gradientUnits="userSpaceOnUse"
       x1="126.37"
       y1="52.828"
       x2="126.67"
       y2="75.32" />
    <linearGradient
       inkscape:collect="always"
       id="linearGradient4167">
      <stop
         id="stop4169"
         stop-color="#adadad"
         stop-opacity="0.624" />
      <stop
         offset="1"
         id="stop4171"
         stop-color="#ffffff"
         stop-opacity="0.973" />
    </linearGradient>
    <linearGradient
       id="linearGradient4223"
       inkscape:collect="always">
      <stop
         id="stop4225"
         stop-color="#bebebe"
         stop-opacity="0.803" />
      <stop
         id="stop4227"
         offset="1"
         stop-color="#9f9f9f"
         stop-opacity="0.732" />
    </linearGradient>
    <linearGradient
       id="linearGradient4211"
       inkscape:collect="always">
      <stop
         id="stop4213"
         stop-color="#9f9f9f"
         stop-opacity="0.634" />
      <stop
         id="stop4215"
         offset="1"
         stop-color="#696969"
         stop-opacity="0" />
    </linearGradient>
    <linearGradient
       id="linearGradient4171"
       inkscape:collect="always">
      <stop
         id="stop4173"
         stop-color="#b2b2b2"
         stop-opacity="0.624" />
      <stop
         id="stop4175"
         offset="1"
         stop-color="#ffffff"
         stop-opacity="0.698" />
    </linearGradient>
    <linearGradient
       id="linearGradient4142"
       inkscape:collect="always">
      <stop
         id="stop4144"
         stop-color="#909090"
         stop-opacity="0.519" />
      <stop
         id="stop4146"
         offset="1"
         stop-color="#696969"
         stop-opacity="0" />
    </linearGradient>
    <linearGradient
       gradientUnits="userSpaceOnUse"
       y2="324.36"
       x2="278.75"
       y1="63.25"
       x1="165.74"
       id="linearGradient4148"
       xlink:href="#linearGradient4142"
       inkscape:collect="always" />
    <filter
       height="1.1"
       y="-0.05"
       width="1.056"
       x="-0.028"
       id="filter4160"
       inkscape:collect="always"
       color-interpolation-filters="sRGB">
      <feGaussianBlur
         id="feGaussianBlur4162"
         stdDeviation="3.56251"
         inkscape:collect="always" />
    </filter>
    <linearGradient
       spreadMethod="reflect"
       gradientUnits="userSpaceOnUse"
       y2="114.16"
       x2="387.93"
       y1="106.85"
       x1="379.78"
       id="linearGradient4177"
       xlink:href="#linearGradient4167"
       inkscape:collect="always" />
    <linearGradient
       gradientTransform="translate(26.808511,-26.382979)"
       y2="114.16"
       x2="387.93"
       y1="108.46"
       x1="381.27"
       spreadMethod="reflect"
       gradientUnits="userSpaceOnUse"
       id="linearGradient4207"
       xlink:href="#linearGradient4171"
       inkscape:collect="always" />
    <linearGradient
       gradientUnits="userSpaceOnUse"
       y2="125.1"
       x2="281.1"
       y1="61.711"
       x1="284.7"
       id="linearGradient4217"
       xlink:href="#linearGradient4211"
       inkscape:collect="always" />
    <linearGradient
       gradientUnits="userSpaceOnUse"
       y2="103.09"
       x2="255.7"
       y1="93.26"
       x1="259.02"
       id="linearGradient4229"
       xlink:href="#linearGradient4223"
       inkscape:collect="always" />
    <linearGradient
       gradientUnits="userSpaceOnUse"
       y2="117.29"
       x2="258.99"
       y1="102.54"
       x1="262.84"
       id="linearGradient4237"
       xlink:href="#linearGradient4223"
       inkscape:collect="always" />
    <filter
       height="1.136"
       y="-0.068"
       width="1.049"
       x="-0.024"
       id="filter4257"
       inkscape:collect="always"
       color-interpolation-filters="sRGB">
      <feGaussianBlur
         id="feGaussianBlur4259"
         inkscape:collect="always" />
    </filter>
    <radialGradient
       inkscape:collect="always"
       xlink:href="#linearGradient3967"
       id="radialGradient4205"
       gradientUnits="userSpaceOnUse"
       spreadMethod="reflect"
       cx="50.756"
       cy="82.42"
       fx="49.18"
       fy="98.43"
       r="19.681" />
    <linearGradient
       inkscape:collect="always"
       xlink:href="#linearGradient3979"
       id="linearGradient4208"
       gradientUnits="userSpaceOnUse"
       x1="126.37"
       y1="52.828"
       x2="126.67"
       y2="75.32" />
    <radialGradient
       inkscape:collect="always"
       xlink:href="#linearGradient3967"
       id="radialGradient4210"
       gradientUnits="userSpaceOnUse"
       spreadMethod="reflect"
       cx="50.756"
       cy="82.42"
       fx="49.18"
       fy="98.43"
       r="19.681" />
    <linearGradient
       inkscape:collect="always"
       xlink:href="#linearGradient3979"
       id="linearGradient4212"
       gradientUnits="userSpaceOnUse"
       x1="126.37"
       y1="52.828"
       x2="126.67"
       y2="75.32" />
    <radialGradient
       inkscape:collect="always"
       xlink:href="#linearGradient3967"
       id="radialGradient4214"
       gradientUnits="userSpaceOnUse"
       spreadMethod="reflect"
       cx="50.756"
       cy="82.42"
       fx="49.18"
       fy="98.43"
       r="19.681" />
    <linearGradient
       inkscape:collect="always"
       xlink:href="#linearGradient3979"
       id="linearGradient4216"
       gradientUnits="userSpaceOnUse"
       x1="126.37"
       y1="52.828"
       x2="126.67"
       y2="75.32" />
    <radialGradient
       inkscape:collect="always"
       xlink:href="#linearGradient3967"
       id="radialGradient4218"
       gradientUnits="userSpaceOnUse"
       spreadMethod="reflect"
       cx="50.756"
       cy="82.42"
       fx="49.18"
       fy="98.43"
       r="19.681" />
    <linearGradient
       inkscape:collect="always"
       xlink:href="#linearGradient3979"
       id="linearGradient4220"
       gradientUnits="userSpaceOnUse"
       x1="126.37"
       y1="52.828"
       x2="126.67"
       y2="75.32" />
  </defs>
  <metadata
     id="metadata3943">
    <rdf:RDF>
      <cc:Work>
        <dc:format>image/svg+xml</dc:format>
        <dc:type
           rdf:resource="http://purl.org/dc/dcmitype/StillImage" />
        <dc:title />
      </cc:Work>
    </rdf:RDF>
  </metadata>
  <g
     transform="matrix(0.77128144,0,0,0.77128144,-77.259729,-34.768875)"
     id="g4261">
    <path
       d="m 177.77778,215.83334 -80.555558,82.4074 255.555558,88.42593 38.75029,-40.87068 c 4.63488,-1.3015 9.96817,-1.38077 9.86082,-10.98118 L 396.29629,282.5 Z"
       id="path4150"
       inkscape:connector-curvature="0"
       sodipodi:nodetypes="ccccccc"
       style="fill:#000000;fill-opacity:0.27300002;fill-rule:evenodd;stroke:none;stroke-width:1;stroke-linecap:butt;stroke-linejoin:miter;stroke-opacity:1;filter:url(#filter4160)" />
    <path
       d="m 137.15847,253.33333 1.0929,10.92897 c 1.69466,2.56439 1.62485,5.1824 6.55737,7.10382 l 234.9905,77.59563 c 4.36168,2.76045 7.27409,1.93611 10.91114,-1.0929 l 16.39344,-17.48633 z"
       id="path4239"
       inkscape:connector-curvature="0"
       sodipodi:nodetypes="ccccccc"
       style="fill:#000000;fill-opacity:0.51399997;fill-rule:evenodd;stroke:none;stroke-width:1;stroke-linecap:butt;stroke-linejoin:miter;stroke-opacity:1;filter:url(#filter4257)" />
    <path
       d="M 146.27659,241.2766 139.89362,67.340426 c -0.0538,-6.437983 2.49923,-9.41706 7.97872,-7.978724 l 135.10638,37.234043 c 8.12648,2.325734 17.80936,-1.266511 19.14894,-15.425533 0.93604,-9.893676 4.6708,-17.669623 18.61702,-14.893617 l 85.6383,19.680851 c 6.41139,1.511285 7.81765,4.447577 7.4468,11.702128 l -2.12765,230.851066 -5.31915,5.85106 -254.86675,-84.34164 z"
       id="path4198"
       inkscape:connector-curvature="0"
       sodipodi:nodetypes="ccccsccccccc"
       style="fill:#000000;fill-opacity:0.73000004;fill-rule:evenodd;stroke:none;stroke-width:1;stroke-linecap:butt;stroke-linejoin:miter;stroke-opacity:1" />
    <path
       sodipodi:nodetypes="ccccsccccccc"
       inkscape:connector-curvature="0"
       id="path4209"
       d="M 146.27659,241.2766 139.89362,67.340426 c -0.0538,-6.437983 2.49923,-9.41706 7.97872,-7.978724 l 135.10638,37.234043 c 8.12648,2.325734 17.80936,-1.266511 19.14894,-15.425533 0.93604,-9.893676 4.6708,-17.669623 18.61702,-14.893617 l 85.6383,19.680851 c 6.41139,1.511285 7.81765,4.447577 7.4468,11.702128 l -2.12765,230.851066 -5.31915,5.85106 -254.86675,-84.34164 z"
       style="fill:url(#linearGradient4217);fill-opacity:1;fill-rule:evenodd;stroke:none;stroke-width:1;stroke-linecap:butt;stroke-linejoin:miter;stroke-opacity:1" />
    <path
       inkscape:connector-curvature="0"
       id="path4221"
       d="m 142.62295,64.262295 267.21311,65.573775 1.0929,194.53552 -256.8306,-92.89618 z"
       sodipodi:nodetypes="ccccc"
       style="fill:url(#linearGradient4229);fill-opacity:1;fill-rule:evenodd;stroke:#cecece;stroke-width:1;stroke-linecap:butt;stroke-linejoin:miter;stroke-opacity:0.70499998" />
    <path
       d="m 136.61202,73.005464 267.21311,65.573776 4.37159,189.07104 -260.10929,-87.4317 z"
       id="path4219"
       inkscape:connector-curvature="0"
       style="fill:url(#linearGradient4237);fill-opacity:1;fill-rule:evenodd;stroke:#cecece;stroke-width:1;stroke-linecap:butt;stroke-linejoin:miter;stroke-opacity:0.70499998" />
    <path
       d="m 116.2037,92.685185 c 1.13182,-4.540599 4.63483,-9.034209 10.68729,-7.545261 L 261.11111,123.7037 c 6.48148,1.63624 16.36287,0.33244 20.83334,-11.11111 4.00878,-10.26173 10.87392,-18.779525 25.46296,-16.203701 l 68.51852,13.888891 c 12.25335,3.29007 11.96705,11.68066 12.96296,18.51851 l 12.5,205.55556 c 0.64976,7.44283 -5.7507,13.21303 -12.96296,10.18518 L 144.90741,262.59259 c -4.92216,-1.55932 -8.93994,-3.09709 -9.25926,-10.18518 z"
       id="path4138"
       inkscape:connector-curvature="0"
       sodipodi:nodetypes="cccscccccccc"
       style="fill:#000000;fill-opacity:0.76999996;fill-rule:evenodd;stroke:none;stroke-width:1;stroke-linecap:butt;stroke-linejoin:miter;stroke-opacity:1" />
    <path
       sodipodi:nodetypes="cccsccccccc"
       inkscape:connector-curvature="0"
       id="path4140"
       d="m 116.2037,92.685185 c 1.13182,-4.540599 4.63483,-9.034209 10.68729,-7.545261 L 261.11111,123.7037 c 6.48148,1.63624 16.36287,0.33244 20.83334,-11.11111 4.00878,-10.26173 10.87392,-18.779525 25.46296,-16.203701 l 68.51852,13.888891 c 12.25335,3.29007 11.96705,11.68066 12.96296,18.51851 l 12.5,205.55556 c 0.64976,7.44283 -5.7507,13.21303 -12.96296,10.18518 L 209.72222,283.88889 C 173.76467,257.82993 120.35853,138.21611 116.2037,92.685185 Z"
       style="fill:url(#linearGradient4148);fill-opacity:1;fill-rule:evenodd;stroke:none;stroke-width:1;stroke-linecap:butt;stroke-linejoin:miter;stroke-opacity:1" />
    <path
       inkscape:connector-curvature="0"
       d="m 130.29688,79.757812 c -3.73674,-0.05935 -6.2712,2.374412 -7.66211,5.353516 1.24508,-0.330919 2.6592,-0.363492 4.25585,0.0293 l 134.22071,38.562492 c 5.49861,1.38812 13.44221,0.65773 18.45508,-6.58203 -4.30627,2.38583 -9.16625,2.43292 -12.90039,1.49024 L 132.44727,80.046875 c -0.75656,-0.186118 -1.47316,-0.278306 -2.15039,-0.289063 z m 177.54687,11.074219 c -7.10689,0.02874 -11.9932,3.152137 -15.51367,7.738281 3.82724,-2.318415 8.71897,-3.304404 15.07812,-2.18164 l 68.51758,13.888668 c 12.25335,3.29007 11.96698,11.68169 12.96289,18.51954 l 12.5,205.55468 c 0.1753,2.00795 -0.17581,3.88521 -0.90429,5.50977 4.09619,-1.28823 6.90142,-5.55587 6.46093,-10.60156 l -12.5,-205.55665 c -0.99591,-6.83785 -0.70954,-15.2275 -12.96289,-18.51757 L 312.96289,91.296875 c -1.82363,-0.321978 -3.52737,-0.47128 -5.11914,-0.464844 z"
       id="path4164"
       style="fill:#b5b5b5;fill-opacity:1;fill-rule:evenodd;stroke:none;stroke-width:1;stroke-linecap:butt;stroke-linejoin:miter;stroke-opacity:1" />
    <path
       id="path4169"
       d="m 375.92578,110.27734 c 12.25335,3.29007 11.96698,11.68169 12.96289,18.51954 2.18404,-2.05828 3.13422,-2.71335 5.55664,-5.09376 -0.99591,-6.83785 -0.70954,-15.2275 -12.96289,-18.51757 -2.39781,2.28773 -2.9924,2.79876 -5.55664,5.09179 z"
       inkscape:connector-curvature="0"
       sodipodi:nodetypes="ccccc"
       style="fill:url(#linearGradient4177);fill-opacity:1;fill-rule:evenodd;stroke:none;stroke-width:1;stroke-linecap:butt;stroke-linejoin:miter;stroke-opacity:1" />
    <path
       inkscape:connector-curvature="0"
       d="m 151.9043,54.332031 c -2.67378,0.112285 -4.27807,1.802415 -4.90039,4.837891 0.28199,0.05237 0.56972,0.11281 0.86914,0.191406 l 135.10547,37.234375 c 5.41154,1.54874 11.51034,0.467116 15.3789,-4.605469 -2.77183,0.801996 -5.76159,0.727663 -8.57031,-0.07617 L 154.68164,54.681641 c -1.0274,-0.269688 -1.9536,-0.384203 -2.77734,-0.34961 z m 170.88281,6.701172 c -5.39865,-0.126557 -8.73663,1.852669 -10.81445,5.035156 2.34672,-0.518874 5.2277,-0.496408 8.77148,0.208985 l 85.63867,19.679687 c 6.41139,1.511285 7.81812,4.448574 7.44727,11.703125 l -2.12891,230.849614 -0.47461,0.52148 1.96485,0.65039 5.31836,-5.85156 2.1289,-230.851564 c 0.37085,-7.254551 -1.03587,-10.189887 -7.44726,-11.701172 L 327.55273,61.595703 c -1.74327,-0.347001 -3.32697,-0.528775 -4.76562,-0.5625 z"
       id="path4200"
       style="fill:#b0b0b0;fill-opacity:1;fill-rule:evenodd;stroke:none;stroke-width:1;stroke-linecap:butt;stroke-linejoin:miter;stroke-opacity:1" />
    <path
       sodipodi:nodetypes="ccccc"
       inkscape:connector-curvature="0"
       d="m 403.12392,85.141164 c 12.4021,2.867396 10.71654,4.984484 10.70306,18.467586 2.18404,-2.05828 4.25114,-3.752349 6.67356,-6.132759 0.48467,-12.136762 1.00482,-14.993724 -11.89791,-17.244792 -2.39781,2.28773 -2.91447,2.616935 -5.47871,4.909965 z"
       id="path4205"
       style="fill:url(#linearGradient4207);fill-opacity:1;fill-rule:evenodd;stroke:none;stroke-width:1;stroke-linecap:butt;stroke-linejoin:miter;stroke-opacity:1" />
  </g>
  <g
     id="text4194"
     transform="translate(41.115969,-64.043193)"
     font-style="normal"
     word-spacing="0"
     line-height="125%"
     font-weight="bold"
     font-stretch="normal"
     letter-spacing="0"
     font-variant="normal"
     font-size="7.5"
     stroke-opacity="1"
     font-family="STIXIntegralsSm"
     fill="#000000"
     stroke="none"
     stroke-linejoin="miter"
     fill-opacity="1"
     stroke-linecap="butt"
     stroke-width="1">
    <path
       d="m -33.815041,58.840733 -2.204589,0 -0.347901,0.996093 -1.417236,0 2.025146,-5.467529 1.680909,0 2.025146,5.467529 -1.417236,0 -0.344239,-0.996093 z m -1.853027,-1.014405 1.497803,0 -0.747071,-2.175293 -0.750732,2.175293 z"
       id="path4199"
       inkscape:connector-curvature="0" />
    <path
       d="m -31.33213,54.369297 2.340087,0 q 1.043702,0 1.600342,0.465088 0.560303,0.461426 0.560303,1.318359 0,0.860596 -0.560303,1.325684 -0.55664,0.461426 -1.600342,0.461426 l -0.930175,0 0,1.896972 -1.409912,0 0,-5.467529 z m 1.409912,1.021729 0,1.527099 0.780029,0 q 0.410156,0 0.633545,-0.197754 0.223389,-0.201416 0.223389,-0.567627 0,-0.366211 -0.223389,-0.563965 -0.223389,-0.197753 -0.633545,-0.197753 l -0.780029,0 z"
       id="path4201"
       inkscape:connector-curvature="0" />
  </g>
  <g
     id="g4493"
     transform="matrix(1.0411346,0.32397393,-0.25978963,1.1115875,45.210338,-86.841167)">
    <path
       sodipodi:nodetypes="ccc"
       inkscape:connector-curvature="0"
       id="path3951"
       d="M 37.569186,209.26762 C 95.471733,154.73161 154.5817,156.0387 214.80959,209.04962 153.6687,177.0334 94.64073,177.91835 37.569186,209.26762 Z"
       style="fill:url(#radialGradient3959);fill-opacity:1;stroke:#ffffff;stroke-width:0.73699999;stroke-linecap:butt;stroke-linejoin:miter;stroke-opacity:0.31100003" />
    <g
       id="g3995"
       transform="matrix(0.45179861,0,0,0.45179861,24.724161,122.1197)">
      <circle
         r="19.681"
         cy="82.419998"
         cx="50.756001"
         transform="matrix(2.2556391,0,0,2.2556391,8.0374824,-93.875191)"
         id="path3997"
         style="fill:url(#radialGradient4205);fill-opacity:1;stroke:none" />
      <ellipse
         ry="13.17"
         rx="26.34"
         cy="67.920998"
         cx="128.14999"
         transform="matrix(1.1741573,0,0,1.258427,-27.793052,-19.772371)"
         id="path3999"
         style="fill:url(#linearGradient4208);fill-opacity:1;stroke:none" />
    </g>
    <g
       transform="matrix(0.6408665,0,0,0.6408665,49.847389,86.51393)"
       id="g3987">
      <circle
         r="19.681"
         cy="82.419998"
         cx="50.756001"
         id="path3965"
         transform="matrix(2.2556391,0,0,2.2556391,8.0374824,-93.875191)"
         style="fill:url(#radialGradient4210);fill-opacity:1;stroke:none" />
      <ellipse
         ry="13.17"
         rx="26.34"
         cy="67.920998"
         cx="128.14999"
         id="path3977"
         transform="matrix(1.1741573,0,0,1.258427,-27.793052,-19.772371)"
         style="fill:url(#linearGradient4212);fill-opacity:1;stroke:none" />
    </g>
    <g
       transform="matrix(0.45179861,0,0,0.45179861,120.21161,123.42775)"
       id="g4005">
      <circle
         r="19.681"
         cy="82.419998"
         cx="50.756001"
         id="path4007"
         transform="matrix(2.2556391,0,0,2.2556391,8.0374824,-93.875191)"
         style="fill:url(#radialGradient4214);fill-opacity:1;stroke:none" />
      <ellipse
         ry="13.17"
         rx="26.34"
         cy="67.920998"
         cx="128.14999"
         id="path4009"
         transform="matrix(1.1741573,0,0,1.258427,-27.793052,-19.772371)"
         style="fill:url(#linearGradient4216);fill-opacity:1;stroke:none" />
    </g>
    <g
       id="g4015"
       transform="matrix(0.29710671,0,0,0.29710671,168.26927,158.92161)">
      <circle
         r="19.681"
         cy="82.419998"
         cx="50.756001"
         transform="matrix(2.2556391,0,0,2.2556391,8.0374824,-93.875191)"
         id="path4017"
         style="fill:url(#radialGradient4218);fill-opacity:1;stroke:none" />
      <ellipse
         ry="13.17"
         rx="26.34"
         cy="67.920998"
         cx="128.14999"
         transform="matrix(1.1741573,0,0,1.258427,-27.793052,-19.772371)"
         id="path4019"
         style="fill:url(#linearGradient4220);fill-opacity:1;stroke:none" />
    </g>
    <g
       transform="matrix(0.29710671,0,0,0.29710671,14.355707,155.8695)"
       id="g4025">
      <circle
         r="19.681"
         cy="82.419998"
         cx="50.756001"
         id="path4027"
         transform="matrix(2.2556391,0,0,2.2556391,8.0374824,-93.875191)"
         style="fill:url(#radialGradient3991);fill-opacity:1;stroke:none" />
      <ellipse
         ry="13.17"
         rx="26.34"
         cy="67.920998"
         cx="128.14999"
         id="path4029"
         transform="matrix(1.1741573,0,0,1.258427,-27.793052,-19.772371)"
         style="fill:url(#linearGradient3993);fill-opacity:1;stroke:none" />
    </g>
  </g>
</svg>
