<?xml version="1.0" encoding="UTF-8" standalone="no"?>
<!-- Created with Inkscape (http://www.inkscape.org/) -->

<svg
   xmlns:dc="http://purl.org/dc/elements/1.1/"
   xmlns:cc="http://creativecommons.org/ns#"
   xmlns:rdf="http://www.w3.org/1999/02/22-rdf-syntax-ns#"
   xmlns:svg="http://www.w3.org/2000/svg"
   xmlns="http://www.w3.org/2000/svg"
   xmlns:xlink="http://www.w3.org/1999/xlink"
   xmlns:sodipodi="http://sodipodi.sourceforge.net/DTD/sodipodi-0.dtd"
   xmlns:inkscape="http://www.inkscape.org/namespaces/inkscape"
   width="256"
   height="256"
   id="svg3897"
   sodipodi:version="0.32"
   inkscape:version="0.91 r13725"
   sodipodi:docname="folder-windows.svg"
   inkscape:output_extension="org.inkscape.output.svg.inkscape"
   inkscape:export-filename="/media/disk/melo/map-blue.png"
   inkscape:export-xdpi="90"
   inkscape:export-ydpi="90"
   version="1.1">
  <defs
     id="defs3899">
    <linearGradient
       id="linearGradient3558">
      <stop
         id="stop3560"
         stop-color="#6474d6"
         stop-opacity="1" />
      <stop
         offset="0.167"
         id="stop3564"
         stop-color="#949cd9"
         stop-opacity="1" />
      <stop
         id="stop3562"
         offset="1"
         stop-color="#20267b"
         stop-opacity="1" />
    </linearGradient>
    <linearGradient
       id="linearGradient2811">
      <stop
         id="stop2813"
         stop-color="#2e46c9"
         stop-opacity="1" />
      <stop
         offset="1"
         id="stop4535"
         stop-color="#202a7b"
         stop-opacity="1" />
    </linearGradient>
    <linearGradient
       inkscape:collect="always"
       id="linearGradient3134">
      <stop
         id="stop3136"
         stop-color="#716b6b"
         stop-opacity="1" />
      <stop
         id="stop3138"
         offset="1"
         stop-color="#000000"
         stop-opacity="1" />
    </linearGradient>
    <linearGradient
       inkscape:collect="always"
       id="linearGradient3384">
      <stop
         id="stop3386"
         stop-color="#000000"
         stop-opacity="1" />
      <stop
         id="stop3388"
         offset="1"
         stop-color="#8c8585"
         stop-opacity="1" />
    </linearGradient>
    <linearGradient
       inkscape:collect="always"
       xlink:href="#linearGradient3384"
       id="linearGradient3375"
       gradientUnits="userSpaceOnUse"
       gradientTransform="translate(-14.91509,18.042566)"
       spreadMethod="reflect"
       x1="-145.99"
       y1="115.92"
       x2="-111.65"
       y2="147.84" />
    <linearGradient
       inkscape:collect="always"
       xlink:href="#linearGradient3384"
       id="linearGradient3381"
       gradientUnits="userSpaceOnUse"
       gradientTransform="translate(-14.91509,18.042566)"
       spreadMethod="reflect"
       x1="-184"
       y1="171.67"
       x2="-193.1"
       y2="171.8" />
    <linearGradient
       inkscape:collect="always"
       xlink:href="#linearGradient3384"
       id="linearGradient3383"
       gradientUnits="userSpaceOnUse"
       gradientTransform="translate(-14.91509,18.042566)"
       spreadMethod="reflect"
       x1="-129.15"
       y1="196.21"
       x2="-212.65"
       y2="184.42" />
    <linearGradient
       inkscape:collect="always"
       xlink:href="#linearGradient3384"
       id="linearGradient3386"
       gradientUnits="userSpaceOnUse"
       gradientTransform="translate(-14.91509,18.042566)"
       spreadMethod="reflect"
       x1="-88.74"
       y1="203.06"
       x2="-83.931"
       y2="203.16" />
    <linearGradient
       inkscape:collect="always"
       xlink:href="#linearGradient3384"
       id="linearGradient3388"
       gradientUnits="userSpaceOnUse"
       gradientTransform="translate(-14.91509,18.042566)"
       spreadMethod="reflect"
       x1="-24.88"
       y1="140.91"
       x2="-116.13"
       y2="219.82" />
    <linearGradient
       inkscape:collect="always"
       xlink:href="#linearGradient3134"
       id="linearGradient3422"
       gradientUnits="userSpaceOnUse"
       spreadMethod="reflect"
       x1="391.76"
       y1="214.27"
       x2="556.21"
       y2="214.27" />
    <linearGradient
       inkscape:collect="always"
       xlink:href="#linearGradient3134"
       id="linearGradient3426"
       gradientUnits="userSpaceOnUse"
       spreadMethod="reflect"
       x1="415.72"
       y1="239.84"
       x2="445.49"
       y2="257.65" />
    <linearGradient
       inkscape:collect="always"
       xlink:href="#linearGradient3384"
       id="linearGradient3432"
       gradientUnits="userSpaceOnUse"
       gradientTransform="translate(-2.4462157,144.71083)"
       spreadMethod="reflect"
       x1="434.48"
       y1="63.879"
       x2="483.59"
       y2="103.18" />
    <linearGradient
       id="linearGradient3578">
      <stop
         id="stop3580"
         stop-color="#000000"
         stop-opacity="1" />
      <stop
         offset="1"
         id="stop3582"
         stop-color="#fffcfc"
         stop-opacity="1" />
    </linearGradient>
    <linearGradient
       inkscape:collect="always"
       xlink:href="#linearGradient3384"
       id="linearGradient4214"
       gradientUnits="userSpaceOnUse"
       gradientTransform="translate(-14.91509,18.042566)"
       spreadMethod="reflect"
       x1="-145.99"
       y1="115.92"
       x2="-111.65"
       y2="147.84" />
    <linearGradient
       inkscape:collect="always"
       xlink:href="#linearGradient3384"
       id="linearGradient4216"
       gradientUnits="userSpaceOnUse"
       gradientTransform="translate(-14.91509,18.042566)"
       spreadMethod="reflect"
       x1="-145.99"
       y1="115.92"
       x2="-111.65"
       y2="147.84" />
    <linearGradient
       inkscape:collect="always"
       xlink:href="#linearGradient3384"
       id="linearGradient4218"
       gradientUnits="userSpaceOnUse"
       gradientTransform="translate(-14.91509,18.042566)"
       spreadMethod="reflect"
       x1="-145.99"
       y1="115.92"
       x2="-111.65"
       y2="147.84" />
    <linearGradient
       inkscape:collect="always"
       xlink:href="#linearGradient3384"
       id="linearGradient4220"
       gradientUnits="userSpaceOnUse"
       gradientTransform="translate(-14.91509,18.042566)"
       spreadMethod="reflect"
       x1="-184"
       y1="171.67"
       x2="-193.1"
       y2="171.8" />
    <linearGradient
       inkscape:collect="always"
       xlink:href="#linearGradient3384"
       id="linearGradient4222"
       gradientUnits="userSpaceOnUse"
       gradientTransform="translate(-14.91509,18.042566)"
       spreadMethod="reflect"
       x1="-129.15"
       y1="196.21"
       x2="-212.65"
       y2="184.42" />
    <linearGradient
       inkscape:collect="always"
       xlink:href="#linearGradient3384"
       id="linearGradient4224"
       gradientUnits="userSpaceOnUse"
       gradientTransform="translate(-14.91509,18.042566)"
       spreadMethod="reflect"
       x1="-88.74"
       y1="203.06"
       x2="-83.931"
       y2="203.16" />
    <linearGradient
       inkscape:collect="always"
       xlink:href="#linearGradient3384"
       id="linearGradient4226"
       gradientUnits="userSpaceOnUse"
       gradientTransform="translate(-14.91509,18.042566)"
       spreadMethod="reflect"
       x1="-24.88"
       y1="140.91"
       x2="-116.13"
       y2="219.82" />
    <linearGradient
       inkscape:collect="always"
       xlink:href="#linearGradient3384"
       id="linearGradient4228"
       gradientUnits="userSpaceOnUse"
       gradientTransform="translate(-14.91509,18.042566)"
       spreadMethod="reflect"
       x1="-145.99"
       y1="115.92"
       x2="-111.65"
       y2="147.84" />
    <linearGradient
       inkscape:collect="always"
       xlink:href="#linearGradient3384"
       id="linearGradient4230"
       gradientUnits="userSpaceOnUse"
       gradientTransform="translate(-14.91509,18.042566)"
       spreadMethod="reflect"
       x1="-145.99"
       y1="115.92"
       x2="-111.65"
       y2="147.84" />
    <linearGradient
       inkscape:collect="always"
       xlink:href="#linearGradient3384"
       id="linearGradient4232"
       gradientUnits="userSpaceOnUse"
       gradientTransform="translate(-14.91509,18.042566)"
       spreadMethod="reflect"
       x1="-145.99"
       y1="115.92"
       x2="-111.65"
       y2="147.84" />
    <linearGradient
       inkscape:collect="always"
       xlink:href="#linearGradient3384"
       id="linearGradient4234"
       gradientUnits="userSpaceOnUse"
       gradientTransform="translate(-14.91509,18.042566)"
       spreadMethod="reflect"
       x1="-145.99"
       y1="115.92"
       x2="-111.65"
       y2="147.84" />
    <linearGradient
       inkscape:collect="always"
       xlink:href="#linearGradient3384"
       id="linearGradient4236"
       gradientUnits="userSpaceOnUse"
       gradientTransform="translate(-14.91509,18.042566)"
       spreadMethod="reflect"
       x1="-145.99"
       y1="115.92"
       x2="-111.65"
       y2="147.84" />
    <linearGradient
       inkscape:collect="always"
       xlink:href="#linearGradient3384"
       id="linearGradient4238"
       gradientUnits="userSpaceOnUse"
       gradientTransform="translate(-14.91509,18.042566)"
       spreadMethod="reflect"
       x1="-145.99"
       y1="115.92"
       x2="-111.65"
       y2="147.84" />
    <linearGradient
       inkscape:collect="always"
       xlink:href="#linearGradient3384"
       id="linearGradient4240"
       gradientUnits="userSpaceOnUse"
       gradientTransform="translate(-14.91509,18.042566)"
       spreadMethod="reflect"
       x1="-145.99"
       y1="115.92"
       x2="-111.65"
       y2="147.84" />
    <linearGradient
       inkscape:collect="always"
       xlink:href="#linearGradient3384"
       id="linearGradient4242"
       gradientUnits="userSpaceOnUse"
       gradientTransform="translate(-14.91509,18.042566)"
       spreadMethod="reflect"
       x1="-145.99"
       y1="115.92"
       x2="-111.65"
       y2="147.84" />
    <linearGradient
       inkscape:collect="always"
       xlink:href="#linearGradient3384"
       id="linearGradient4244"
       gradientUnits="userSpaceOnUse"
       gradientTransform="translate(-14.91509,18.042566)"
       spreadMethod="reflect"
       x1="-145.99"
       y1="115.92"
       x2="-111.65"
       y2="147.84" />
    <linearGradient
       inkscape:collect="always"
       xlink:href="#linearGradient3384"
       id="linearGradient4246"
       gradientUnits="userSpaceOnUse"
       gradientTransform="translate(-14.91509,18.042566)"
       spreadMethod="reflect"
       x1="-145.99"
       y1="115.92"
       x2="-111.65"
       y2="147.84" />
    <linearGradient
       inkscape:collect="always"
       xlink:href="#linearGradient3134"
       id="linearGradient4248"
       gradientUnits="userSpaceOnUse"
       spreadMethod="reflect"
       x1="391.76"
       y1="214.27"
       x2="556.21"
       y2="214.27" />
    <linearGradient
       inkscape:collect="always"
       xlink:href="#linearGradient3134"
       id="linearGradient4250"
       gradientUnits="userSpaceOnUse"
       spreadMethod="reflect"
       x1="391.76"
       y1="214.27"
       x2="556.21"
       y2="214.27" />
    <linearGradient
       inkscape:collect="always"
       xlink:href="#linearGradient3134"
       id="linearGradient4252"
       gradientUnits="userSpaceOnUse"
       spreadMethod="reflect"
       x1="415.72"
       y1="239.84"
       x2="445.49"
       y2="257.65" />
    <linearGradient
       inkscape:collect="always"
       xlink:href="#linearGradient3134"
       id="linearGradient4254"
       gradientUnits="userSpaceOnUse"
       spreadMethod="reflect"
       x1="391.76"
       y1="214.27"
       x2="556.21"
       y2="214.27" />
    <linearGradient
       inkscape:collect="always"
       xlink:href="#linearGradient3134"
       id="linearGradient4256"
       gradientUnits="userSpaceOnUse"
       spreadMethod="reflect"
       x1="391.76"
       y1="214.27"
       x2="556.21"
       y2="214.27" />
    <linearGradient
       inkscape:collect="always"
       xlink:href="#linearGradient3384"
       id="linearGradient4258"
       gradientUnits="userSpaceOnUse"
       gradientTransform="translate(-2.4462157,144.71083)"
       spreadMethod="reflect"
       x1="434.48"
       y1="63.879"
       x2="483.59"
       y2="103.18" />
    <linearGradient
       inkscape:collect="always"
       xlink:href="#linearGradient3134"
       id="linearGradient4260"
       gradientUnits="userSpaceOnUse"
       spreadMethod="reflect"
       x1="391.76"
       y1="214.27"
       x2="556.21"
       y2="214.27" />
    <linearGradient
       inkscape:collect="always"
       xlink:href="#linearGradient3134"
       id="linearGradient4262"
       gradientUnits="userSpaceOnUse"
       spreadMethod="reflect"
       x1="391.76"
       y1="214.27"
       x2="556.21"
       y2="214.27" />
    <linearGradient
       inkscape:collect="always"
       xlink:href="#linearGradient3134"
       id="linearGradient4264"
       gradientUnits="userSpaceOnUse"
       spreadMethod="reflect"
       x1="391.76"
       y1="214.27"
       x2="556.21"
       y2="214.27" />
    <linearGradient
       id="linearGradient4223"
       inkscape:collect="always">
      <stop
         stop-opacity="0.803"
         stop-color="#bebebe"
         id="stop4225" />
      <stop
         stop-opacity="0.732"
         stop-color="#9f9f9f"
         id="stop4227"
         offset="1" />
    </linearGradient>
    <linearGradient
       id="linearGradient4211"
       inkscape:collect="always">
      <stop
         stop-opacity="0.634"
         stop-color="#9f9f9f"
         id="stop4213" />
      <stop
         stop-opacity="0"
         stop-color="#696969"
         id="stop4215"
         offset="1" />
    </linearGradient>
    <linearGradient
       id="linearGradient4171"
       inkscape:collect="always">
      <stop
         stop-opacity="0.623"
         stop-color="#848484"
         id="stop4173" />
      <stop
         stop-opacity="0.698"
         stop-color="#cdcdcd"
         id="stop4175"
         offset="1" />
    </linearGradient>
    <linearGradient
       id="linearGradient4142"
       inkscape:collect="always">
      <stop
         stop-opacity="0.519"
         stop-color="#909090"
         id="stop4144" />
      <stop
         stop-opacity="0"
         stop-color="#696969"
         id="stop4146"
         offset="1" />
    </linearGradient>
    <linearGradient
       gradientUnits="userSpaceOnUse"
       y2="324.36"
       x2="278.75"
       y1="63.25"
       x1="165.74"
       id="linearGradient4148"
       xlink:href="#linearGradient4142"
       inkscape:collect="always" />
    <linearGradient
       spreadMethod="reflect"
       gradientUnits="userSpaceOnUse"
       y2="114.16"
       x2="387.93"
       y1="106.85"
       x1="379.78"
       id="linearGradient4177"
       xlink:href="#linearGradient4171"
       inkscape:collect="always" />
    <linearGradient
       gradientTransform="translate(26.808511,-26.382979)"
       y2="114.16"
       x2="387.93"
       y1="108.46"
       x1="381.27"
       spreadMethod="reflect"
       gradientUnits="userSpaceOnUse"
       id="linearGradient4207"
       xlink:href="#linearGradient4171"
       inkscape:collect="always" />
    <linearGradient
       gradientUnits="userSpaceOnUse"
       y2="125.1"
       x2="281.1"
       y1="61.711"
       x1="284.7"
       id="linearGradient4217"
       xlink:href="#linearGradient4211"
       inkscape:collect="always" />
    <linearGradient
       gradientUnits="userSpaceOnUse"
       y2="103.09"
       x2="255.7"
       y1="93.26"
       x1="259.02"
       id="linearGradient4229"
       xlink:href="#linearGradient4223"
       inkscape:collect="always" />
    <linearGradient
       gradientUnits="userSpaceOnUse"
       y2="117.29"
       x2="258.99"
       y1="102.54"
       x1="262.84"
       id="linearGradient4237"
       xlink:href="#linearGradient4223"
       inkscape:collect="always" />
    <filter
       color-interpolation-filters="sRGB"
       height="1.136"
       y="-0.068"
       width="1.049"
       x="-0.024"
       id="filter4257"
       inkscape:collect="always">
      <feGaussianBlur
         id="feGaussianBlur4259"
         stdDeviation="2.75443"
         inkscape:collect="always" />
    </filter>
    <filter
       height="1.1000979"
       y="-0.050048949"
       width="1.0562191"
       x="-0.028109536"
       id="filter4175"
       style="color-interpolation-filters:sRGB"
       inkscape:collect="always">
      <feGaussianBlur
         id="feGaussianBlur4177"
         stdDeviation="3.5625119"
         inkscape:collect="always" />
    </filter>
  </defs>
  <sodipodi:namedview
     id="base"
     pagecolor="#ffffff"
     bordercolor="#666666"
     borderopacity="1.0"
     inkscape:pageopacity="0.0"
     inkscape:pageshadow="2"
     inkscape:zoom="2.2382812"
     inkscape:cx="128"
     inkscape:cy="114.17689"
     inkscape:document-units="px"
     inkscape:current-layer="layer1"
     width="256"
     height="256"
     inkscape:window-width="1920"
     inkscape:window-height="1056"
     inkscape:window-x="0"
     inkscape:window-y="0"
     showgrid="false"
     showguides="true"
     inkscape:guide-bbox="true"
     inkscape:window-maximized="1" />
  <metadata
     id="metadata3902">
    <rdf:RDF>
      <cc:Work>
        <dc:format>image/svg+xml</dc:format>
        <dc:type
           rdf:resource="http://purl.org/dc/dcmitype/StillImage" />
        <dc:creator>
          <cc:Agent>
            <dc:title>Albert Pal</dc:title>
          </cc:Agent>
        </dc:creator>
        <dc:rights>
          <cc:Agent>
            <dc:title>Albert Pal</dc:title>
          </cc:Agent>
        </dc:rights>
        <dc:publisher>
          <cc:Agent>
            <dc:title>Albert Pal</dc:title>
          </cc:Agent>
        </dc:publisher>
        <cc:license
           rdf:resource="http://artlibre.org/licence.php/lalgb.html" />
      </cc:Work>
      <cc:License
         rdf:about="http://artlibre.org/licence.php/lalgb.html">
        <cc:permits
           rdf:resource="http://web.resource.org/cc/Reproduction" />
        <cc:permits
           rdf:resource="http://web.resource.org/cc/Distribution" />
        <cc:permits
           rdf:resource="http://web.resource.org/cc/DerivativeWorks" />
        <cc:requires
           rdf:resource="http://web.resource.org/cc/ShareAlike" />
        <cc:requires
           rdf:resource="http://web.resource.org/cc/Notice" />
        <cc:requires
           rdf:resource="http://web.resource.org/cc/Attribution" />
      </cc:License>
    </rdf:RDF>
  </metadata>
  <g
     inkscape:label="1. réteg"
     inkscape:groupmode="layer"
     id="layer1">
    <g
       transform="matrix(0.77077081,0,0,0.77077081,-86.396329,-33.85454)"
       id="g4261">
      <path
         style="fill:#000000;fill-opacity:0.27300002;fill-rule:evenodd;stroke:none;stroke-width:1;stroke-linecap:butt;stroke-linejoin:miter;stroke-opacity:1;filter:url(#filter4175)"
         d="m 177.77778,215.83334 -80.555558,82.4074 255.555558,88.42593 38.75029,-40.87068 c 4.63488,-1.3015 9.96817,-1.38077 9.86082,-10.98118 L 396.29629,282.5 Z"
         id="path4150"
         inkscape:connector-curvature="0"
         sodipodi:nodetypes="ccccccc" />
      <path
         style="fill:#000000;fill-opacity:0.51399997;fill-rule:evenodd;stroke:none;stroke-width:1;stroke-linecap:butt;stroke-linejoin:miter;stroke-opacity:1;filter:url(#filter4257)"
         d="m 137.15847,253.33333 1.0929,10.92897 c 1.69466,2.56439 1.62485,5.1824 6.55737,7.10382 l 234.9905,77.59563 c 4.36168,2.76045 7.27409,1.93611 10.91114,-1.0929 l 16.39344,-17.48633 z"
         id="path4239"
         inkscape:connector-curvature="0"
         sodipodi:nodetypes="ccccccc" />
      <path
         style="fill:#000000;fill-opacity:0.73000004;fill-rule:evenodd;stroke:none;stroke-width:1;stroke-linecap:butt;stroke-linejoin:miter;stroke-opacity:1"
         d="M 146.27659,241.2766 139.89362,67.340426 c -0.0538,-6.437983 2.49923,-9.41706 7.97872,-7.978724 l 135.10638,37.234043 c 8.12648,2.325734 17.80936,-1.266511 19.14894,-15.425533 0.93604,-9.893676 4.6708,-17.669623 18.61702,-14.893617 l 85.6383,19.680851 c 6.41139,1.511285 7.81765,4.447577 7.4468,11.702128 l -2.12765,230.851066 -5.31915,5.85106 -254.86675,-84.34164 z"
         id="path4198"
         inkscape:connector-curvature="0"
         sodipodi:nodetypes="ccccsccccccc" />
      <path
         style="fill:url(#linearGradient4217);fill-opacity:1;fill-rule:evenodd;stroke:none;stroke-width:1;stroke-linecap:butt;stroke-linejoin:miter;stroke-opacity:1"
         sodipodi:nodetypes="ccccsccccccc"
         inkscape:connector-curvature="0"
         id="path4209"
         d="M 146.27659,241.2766 139.89362,67.340426 c -0.0538,-6.437983 2.49923,-9.41706 7.97872,-7.978724 l 135.10638,37.234043 c 8.12648,2.325734 17.80936,-1.266511 19.14894,-15.425533 0.93604,-9.893676 4.6708,-17.669623 18.61702,-14.893617 l 85.6383,19.680851 c 6.41139,1.511285 7.81765,4.447577 7.4468,11.702128 l -2.12765,230.851066 -5.31915,5.85106 -254.86675,-84.34164 z" />
      <path
         style="fill:url(#linearGradient4229);fill-opacity:1;fill-rule:evenodd;stroke:#cecece;stroke-width:1;stroke-linecap:butt;stroke-linejoin:miter;stroke-opacity:0.70499998"
         inkscape:connector-curvature="0"
         id="path4221"
         d="m 142.62295,64.262295 267.21311,65.573775 1.0929,194.53552 -256.8306,-92.89618 z"
         sodipodi:nodetypes="ccccc" />
      <path
         style="fill:url(#linearGradient4237);fill-opacity:1;fill-rule:evenodd;stroke:#cecece;stroke-width:1;stroke-linecap:butt;stroke-linejoin:miter;stroke-opacity:0.70499998"
         d="m 136.61202,73.005464 267.21311,65.573776 4.37159,189.07104 -260.10929,-87.4317 z"
         id="path4219"
         inkscape:connector-curvature="0" />
      <path
         style="fill:#000000;fill-opacity:0.76999996;fill-rule:evenodd;stroke:none;stroke-width:1;stroke-linecap:butt;stroke-linejoin:miter;stroke-opacity:1"
         d="m 116.2037,92.685185 c 1.13182,-4.540599 4.63483,-9.034209 10.68729,-7.545261 L 261.11111,123.7037 c 6.48148,1.63624 16.36287,0.33244 20.83334,-11.11111 4.00878,-10.26173 10.87392,-18.779525 25.46296,-16.203701 l 68.51852,13.888891 c 12.25335,3.29007 11.96705,11.68066 12.96296,18.51851 l 12.5,205.55556 c 0.64976,7.44283 -5.7507,13.21303 -12.96296,10.18518 L 144.90741,262.59259 c -4.92216,-1.55932 -8.93994,-3.09709 -9.25926,-10.18518 z"
         id="path4138"
         inkscape:connector-curvature="0"
         sodipodi:nodetypes="cccscccccccc" />
      <path
         style="fill:url(#linearGradient4148);fill-opacity:1;fill-rule:evenodd;stroke:none;stroke-width:1;stroke-linecap:butt;stroke-linejoin:miter;stroke-opacity:1"
         sodipodi:nodetypes="cccsccccccc"
         inkscape:connector-curvature="0"
         id="path4140"
         d="m 116.2037,92.685185 c 1.13182,-4.540599 4.63483,-9.034209 10.68729,-7.545261 L 261.11111,123.7037 c 6.48148,1.63624 16.36287,0.33244 20.83334,-11.11111 4.00878,-10.26173 10.87392,-18.779525 25.46296,-16.203701 l 68.51852,13.888891 c 12.25335,3.29007 11.96705,11.68066 12.96296,18.51851 l 12.5,205.55556 c 0.64976,7.44283 -5.7507,13.21303 -12.96296,10.18518 L 209.72222,283.88889 C 173.76467,257.82993 120.35853,138.21611 116.2037,92.685185 Z" />
      <path
         style="fill:#848484;fill-opacity:1;fill-rule:evenodd;stroke:none;stroke-width:1;stroke-linecap:butt;stroke-linejoin:miter;stroke-opacity:1"
         inkscape:connector-curvature="0"
         d="m 130.29688,79.757812 c -3.73674,-0.05935 -6.2712,2.374412 -7.66211,5.353516 1.24508,-0.330919 2.6592,-0.363492 4.25585,0.0293 l 134.22071,38.562492 c 5.49861,1.38812 13.44221,0.65773 18.45508,-6.58203 -4.30627,2.38583 -9.16625,2.43292 -12.90039,1.49024 L 132.44727,80.046875 c -0.75656,-0.186118 -1.47316,-0.278306 -2.15039,-0.289063 z m 177.54687,11.074219 c -7.10689,0.02874 -11.9932,3.152137 -15.51367,7.738281 3.82724,-2.318415 8.71897,-3.304404 15.07812,-2.18164 l 68.51758,13.888668 c 12.25335,3.29007 11.96698,11.68169 12.96289,18.51954 l 12.5,205.55468 c 0.1753,2.00795 -0.17581,3.88521 -0.90429,5.50977 4.09619,-1.28823 6.90142,-5.55587 6.46093,-10.60156 l -12.5,-205.55665 c -0.99591,-6.83785 -0.70954,-15.2275 -12.96289,-18.51757 L 312.96289,91.296875 c -1.82363,-0.321978 -3.52737,-0.47128 -5.11914,-0.464844 z"
         id="path4164" />
      <path
         style="fill:url(#linearGradient4177);fill-opacity:1;fill-rule:evenodd;stroke:none;stroke-width:1;stroke-linecap:butt;stroke-linejoin:miter;stroke-opacity:1"
         id="path4169"
         d="m 375.92578,110.27734 c 12.25335,3.29007 11.96698,11.68169 12.96289,18.51954 2.18404,-2.05828 3.13422,-2.71335 5.55664,-5.09376 -0.99591,-6.83785 -0.70954,-15.2275 -12.96289,-18.51757 -2.39781,2.28773 -2.9924,2.79876 -5.55664,5.09179 z"
         inkscape:connector-curvature="0"
         sodipodi:nodetypes="ccccc" />
      <path
         style="fill:#858585;fill-opacity:1;fill-rule:evenodd;stroke:none;stroke-width:1;stroke-linecap:butt;stroke-linejoin:miter;stroke-opacity:1"
         inkscape:connector-curvature="0"
         d="m 151.9043,54.332031 c -2.67378,0.112285 -4.27807,1.802415 -4.90039,4.837891 0.28199,0.05237 0.56972,0.11281 0.86914,0.191406 l 135.10547,37.234375 c 5.41154,1.54874 11.51034,0.467116 15.3789,-4.605469 -2.77183,0.801996 -5.76159,0.727663 -8.57031,-0.07617 L 154.68164,54.681641 c -1.0274,-0.269688 -1.9536,-0.384203 -2.77734,-0.34961 z m 170.88281,6.701172 c -5.39865,-0.126557 -8.73663,1.852669 -10.81445,5.035156 2.34672,-0.518874 5.2277,-0.496408 8.77148,0.208985 l 85.63867,19.679687 c 6.41139,1.511285 7.81812,4.448574 7.44727,11.703125 l -2.12891,230.849614 -0.47461,0.52148 1.96485,0.65039 5.31836,-5.85156 2.1289,-230.851564 c 0.37085,-7.254551 -1.03587,-10.189887 -7.44726,-11.701172 L 327.55273,61.595703 c -1.74327,-0.347001 -3.32697,-0.528775 -4.76562,-0.5625 z"
         id="path4200" />
      <path
         style="fill:url(#linearGradient4207);fill-opacity:1;fill-rule:evenodd;stroke:none;stroke-width:1;stroke-linecap:butt;stroke-linejoin:miter;stroke-opacity:1"
         sodipodi:nodetypes="ccccc"
         inkscape:connector-curvature="0"
         d="m 403.12392,85.141164 c 12.4021,2.867396 10.71654,4.984484 10.70306,18.467586 2.18404,-2.05828 4.25114,-3.752349 6.67356,-6.132759 0.48467,-12.136762 1.00482,-14.993724 -11.89791,-17.244792 -2.39781,2.28773 -2.91447,2.616935 -5.47871,4.909965 z"
         id="path4205" />
    </g>
    <g
       id="g4622"
       transform="matrix(0.5021335,0,0,0.5021335,156.38322,73.974529)">
      <g
         id="g4223">
        <g
           style="fill:url(#linearGradient4232);fill-opacity:1;fill-rule:evenodd;stroke:#000000;stroke-width:0;stroke-linecap:round;stroke-linejoin:round;stroke-miterlimit:4;stroke-dasharray:none;stroke-opacity:1"
           stroke-miterlimit="4"
           id="g4013">
          <path
             inkscape:connector-curvature="0"
             style="fill:url(#linearGradient4214);stroke-width:0;stroke-linecap:round;stroke-linejoin:round;stroke-miterlimit:4;stroke-dasharray:none"
             stroke-miterlimit="4"
             d="m -109.60259,120.44882 c -14.93175,0.43765 -28.36708,8.17462 -39.85804,17.18879 l 0,12 c 11.49096,-9.01417 24.92629,-16.75114 39.85804,-17.18879 l 0,-12 z"
             id="path4015" />
          <path
             inkscape:connector-curvature="0"
             style="fill:url(#linearGradient4216);stroke-width:0;stroke-linecap:round;stroke-linejoin:round;stroke-miterlimit:4;stroke-dasharray:none"
             stroke-miterlimit="4"
             d="m -149.46063,137.63761 c -20.23481,14.85374 -40.46963,29.70747 -60.70445,44.56121 l 0,12 c 20.23482,-14.85374 40.46964,-29.70747 60.70445,-44.56121 l 0,-12 z"
             id="path4017" />
          <path
             inkscape:connector-curvature="0"
             style="fill:url(#linearGradient4218);stroke-width:0;stroke-linecap:round;stroke-linejoin:round;stroke-miterlimit:4;stroke-dasharray:none"
             stroke-miterlimit="4"
             d="m -210.16508,182.19882 c -0.13812,0.23092 -0.20026,0.39672 -0.20026,0.50891 l 0,12 c 0,-0.11219 0.0621,-0.27799 0.20026,-0.50891 l 0,-12 z"
             id="path4019" />
          <path
             inkscape:connector-curvature="0"
             style="fill:url(#linearGradient4220);stroke-width:0;stroke-linecap:round;stroke-linejoin:round;stroke-miterlimit:4;stroke-dasharray:none"
             stroke-miterlimit="4"
             d="m -210.36534,182.70773 c 0,0.85505 3.60868,-1.40264 4.69339,-1.66537 l 0,12 c -1.08471,0.26273 -4.69339,2.52042 -4.69339,1.66537 l 0,-12 z"
             id="path4021" />
          <path
             inkscape:connector-curvature="0"
             style="fill:url(#linearGradient4222);stroke-width:0;stroke-linecap:round;stroke-linejoin:round;stroke-miterlimit:4;stroke-dasharray:none"
             stroke-miterlimit="4"
             d="m -173.15625,173.78125 c -11.15301,0.10069 -22.3445,2.74839 -32.53125,7.25 l 0,12 c 16.2988,-7.20257 35.14544,-9.69754 52.375,-4.5 20.1459,5.79547 36.1128,19.99915 51.75,33.28125 l 0,-12 c -15.6372,-13.28211 -31.6041,-27.48578 -51.75,-33.28125 -6.46108,-1.94908 -13.15194,-2.81041 -19.84375,-2.75 z"
             id="path4023" />
          <path
             inkscape:connector-curvature="0"
             style="fill:url(#linearGradient4224);stroke-width:0;stroke-linecap:round;stroke-linejoin:round;stroke-miterlimit:4;stroke-dasharray:none"
             stroke-miterlimit="4"
             d="m -101.55253,209.80712 c 1.94,3.11378 3.65078,-0.1041 5.41286,-1.64867 l 0,12 c -1.76208,1.54457 -3.47286,4.76245 -5.41286,1.64867 l 0,-12 z"
             id="path4027" />
          <path
             inkscape:connector-curvature="0"
             style="fill:url(#linearGradient4226);stroke-width:0;stroke-linecap:round;stroke-linejoin:round;stroke-miterlimit:4;stroke-dasharray:none"
             stroke-miterlimit="4"
             d="m -96.13967,208.15845 c 17.792296,-17.35246 35.595092,-34.69428 53.38083,-52.05338 l 0,12 c -17.785738,17.3591 -35.588534,34.70092 -53.38083,52.05338 l 0,-12 z"
             id="path4029" />
          <path
             inkscape:connector-curvature="0"
             style="fill:url(#linearGradient4228);stroke-width:0;stroke-linecap:round;stroke-linejoin:round;stroke-miterlimit:4;stroke-dasharray:none"
             stroke-miterlimit="4"
             d="m -42.75884,156.10507 c -15.478218,-12.67978 -30.446024,-27.30708 -49.98624,-33.38198 l 0,12 c 19.540216,6.0749 34.508022,20.7022 49.98624,33.38198 l 0,-12 z"
             id="path4031" />
          <path
             inkscape:connector-curvature="0"
             style="fill:url(#linearGradient4230);stroke-width:0;stroke-linecap:round;stroke-linejoin:round;stroke-miterlimit:4;stroke-dasharray:none"
             stroke-miterlimit="4"
             d="m -92.74508,122.72309 c -5.44678,-1.64164 -11.1312,-2.5067 -16.85751,-2.27427 l 0,12 c 5.72631,-0.23243 11.41073,0.63263 16.85751,2.27427 l 0,-12 z"
             id="path4033" />
        </g>
        <path
           inkscape:connector-curvature="0"
           style="fill:url(#linearGradient4234);fill-opacity:1;fill-rule:evenodd;stroke:#000000;stroke-width:0;stroke-linecap:butt;stroke-linejoin:round;stroke-miterlimit:4;stroke-dasharray:none;stroke-opacity:1"
           stroke-miterlimit="4"
           id="path3225"
           d="m -109.60259,120.44882 c -14.93176,0.43765 -28.36709,8.17462 -39.85805,17.18879 -20.23481,14.85374 -40.46963,29.70747 -60.70445,44.56121 -1.19075,1.9908 3.26609,-0.85926 4.49313,-1.15646 16.2988,-7.20257 35.12015,-9.71677 52.34971,-4.51923 20.1459,5.79547 36.13251,20.00188 51.76972,33.28399 1.940005,3.11378 3.65078,-0.1041 5.41286,-1.64867 17.792296,-17.35246 35.595092,-34.69428 53.38083,-52.05338 -15.478218,-12.67978 -30.446024,-27.30708 -49.98624,-33.38198 -5.44678,-1.64164 -11.1312,-2.5067 -16.85751,-2.27427 z" />
      </g>
      <g
         transform="translate(-481.86915,4.9070182)"
         id="g4576">
        <g
           style="fill:url(#linearGradient4256);fill-opacity:1;fill-rule:evenodd;stroke:#000000;stroke-width:0;stroke-linecap:butt;stroke-linejoin:round;stroke-miterlimit:4;stroke-dasharray:none;stroke-opacity:1"
           stroke-miterlimit="4"
           id="g4411">
          <path
             inkscape:connector-curvature="0"
             style="fill:url(#linearGradient4248);fill-opacity:1;stroke-width:0;stroke-linejoin:round;stroke-miterlimit:4;stroke-dasharray:none"
             stroke-miterlimit="4"
             d="m 445.82599,160.22804 c 28.87808,31.5473 63.0688,40.73044 109.88182,27.01261 l 0,12 c -46.81302,13.71783 -81.00374,4.53469 -109.88182,-27.01261 l 0,-12 z"
             id="path4413" />
          <path
             inkscape:connector-curvature="0"
             style="fill:url(#linearGradient4250);fill-opacity:1;stroke-width:0;stroke-linejoin:round;stroke-miterlimit:4;stroke-dasharray:none"
             stroke-miterlimit="4"
             d="m 392.25859,215.62679 53.5674,-55.39875 0,12 -53.5674,55.39875 0,-12 z"
             id="path4419" />
          <path
             inkscape:connector-curvature="0"
             style="fill:url(#linearGradient4252);fill-opacity:1;stroke-width:0;stroke-linejoin:round;stroke-miterlimit:4;stroke-dasharray:none"
             stroke-miterlimit="4"
             d="m 511.29724,249.04918 c -56.85346,19.77225 -90.00581,-4.0332 -119.03865,-33.42239 l 0,12 c 29.03284,29.38919 62.18519,53.19464 119.03865,33.42239 l 0,-12 z"
             id="path4417" />
          <path
             inkscape:connector-curvature="0"
             style="fill:url(#linearGradient4254);fill-opacity:1;stroke-width:0;stroke-linejoin:round;stroke-miterlimit:4;stroke-dasharray:none"
             stroke-miterlimit="4"
             d="m 555.70781,187.24065 -44.41057,61.80853 0,12 44.41057,-61.80853 0,-12 z"
             id="path4415" />
        </g>
        <path
           inkscape:connector-curvature="0"
           style="fill:url(#linearGradient4258);fill-opacity:1;fill-rule:evenodd;stroke:#000000;stroke-width:0;stroke-linecap:butt;stroke-linejoin:miter;stroke-miterlimit:4;stroke-dasharray:none;stroke-opacity:1"
           stroke-miterlimit="4"
           id="path4282"
           sodipodi:nodetypes="ccccc"
           d="m 445.94284,160.55179 c 28.87808,31.5473 63.0688,40.73044 109.88182,27.01261 l -44.41057,61.80853 c -56.85346,19.77225 -90.00581,-4.0332 -119.03865,-33.42239 l 53.5674,-55.39875 z" />
      </g>
      <g
         id="g4596"
         transform="matrix(1.1140008,0,0,1.1140008,-596.75731,53.867032)">
        <g
           style="fill:url(#linearGradient3422);fill-opacity:1;fill-rule:evenodd;stroke:#000000;stroke-width:0;stroke-linecap:butt;stroke-linejoin:round;stroke-miterlimit:4;stroke-dasharray:none;stroke-opacity:1"
           stroke-miterlimit="4"
           id="g4598">
          <path
             inkscape:connector-curvature="0"
             style="fill:url(#linearGradient4260);fill-opacity:1;stroke-width:0;stroke-linejoin:round;stroke-miterlimit:4;stroke-dasharray:none"
             stroke-miterlimit="4"
             id="path4600"
             d="m 445.82599,160.22804 c 28.87808,31.5473 63.0688,40.73044 109.88182,27.01261 l 0,12 c -46.81302,13.71783 -81.00374,4.53469 -109.88182,-27.01261 l 0,-12 z" />
          <path
             inkscape:connector-curvature="0"
             style="fill:url(#linearGradient4262);fill-opacity:1;stroke-width:0;stroke-linejoin:round;stroke-miterlimit:4;stroke-dasharray:none"
             stroke-miterlimit="4"
             id="path4602"
             d="m 392.25859,215.62679 53.5674,-55.39875 0,12 -53.5674,55.39875 0,-12 z" />
          <path
             inkscape:connector-curvature="0"
             style="fill:url(#linearGradient3426);fill-opacity:1;stroke-width:0;stroke-linejoin:round;stroke-miterlimit:4;stroke-dasharray:none"
             stroke-miterlimit="4"
             id="path4604"
             d="m 511.29724,249.04918 c -56.85346,19.77225 -90.00581,-4.0332 -119.03865,-33.42239 l 0,12 c 29.03284,29.38919 62.18519,53.19464 119.03865,33.42239 l 0,-12 z" />
          <path
             inkscape:connector-curvature="0"
             style="fill:url(#linearGradient4264);fill-opacity:1;stroke-width:0;stroke-linejoin:round;stroke-miterlimit:4;stroke-dasharray:none"
             stroke-miterlimit="4"
             id="path4606"
             d="m 555.70781,187.24065 -44.41057,61.80853 0,12 44.41057,-61.80853 0,-12 z" />
        </g>
        <path
           inkscape:connector-curvature="0"
           style="fill:url(#linearGradient3432);fill-opacity:1;fill-rule:evenodd;stroke:#000000;stroke-width:0;stroke-linecap:butt;stroke-linejoin:miter;stroke-miterlimit:4;stroke-dasharray:none;stroke-opacity:1"
           stroke-miterlimit="4"
           id="path4608"
           sodipodi:nodetypes="ccccc"
           d="m 445.94284,160.55179 c 28.87808,31.5473 63.0688,40.73044 109.88182,27.01261 l -44.41057,61.80853 c -56.85346,19.77225 -90.00581,-4.0332 -119.03865,-33.42239 l 53.5674,-55.39875 z" />
      </g>
      <g
         transform="matrix(1.1236577,0,0,1.1236577,-65.65866,45.693393)"
         id="g4236">
        <g
           style="fill:url(#linearGradient4246);fill-opacity:1;fill-rule:evenodd;stroke:#000000;stroke-width:0;stroke-linecap:round;stroke-linejoin:round;stroke-miterlimit:4;stroke-dasharray:none;stroke-opacity:1"
           stroke-miterlimit="4"
           id="g4238">
          <path
             inkscape:connector-curvature="0"
             style="fill:url(#linearGradient4236);stroke-width:0;stroke-linecap:round;stroke-linejoin:round;stroke-miterlimit:4;stroke-dasharray:none"
             stroke-miterlimit="4"
             id="path4240"
             d="m -109.60259,120.44882 c -14.93175,0.43765 -28.36708,8.17462 -39.85804,17.18879 l 0,12 c 11.49096,-9.01417 24.92629,-16.75114 39.85804,-17.18879 l 0,-12 z" />
          <path
             inkscape:connector-curvature="0"
             style="fill:url(#linearGradient4238);stroke-width:0;stroke-linecap:round;stroke-linejoin:round;stroke-miterlimit:4;stroke-dasharray:none"
             stroke-miterlimit="4"
             id="path4242"
             d="m -149.46063,137.63761 c -20.23481,14.85374 -40.46963,29.70747 -60.70445,44.56121 l 0,12 c 20.23482,-14.85374 40.46964,-29.70747 60.70445,-44.56121 l 0,-12 z" />
          <path
             inkscape:connector-curvature="0"
             style="fill:url(#linearGradient4240);stroke-width:0;stroke-linecap:round;stroke-linejoin:round;stroke-miterlimit:4;stroke-dasharray:none"
             stroke-miterlimit="4"
             id="path4244"
             d="m -210.16508,182.19882 c -0.13812,0.23092 -0.20026,0.39672 -0.20026,0.50891 l 0,12 c 0,-0.11219 0.0621,-0.27799 0.20026,-0.50891 l 0,-12 z" />
          <path
             inkscape:connector-curvature="0"
             style="fill:url(#linearGradient3381);stroke-width:0;stroke-linecap:round;stroke-linejoin:round;stroke-miterlimit:4;stroke-dasharray:none"
             stroke-miterlimit="4"
             id="path4246"
             d="m -210.36534,182.70773 c 0,0.85505 3.60868,-1.40264 4.69339,-1.66537 l 0,12 c -1.08471,0.26273 -4.69339,2.52042 -4.69339,1.66537 l 0,-12 z" />
          <path
             inkscape:connector-curvature="0"
             style="fill:url(#linearGradient3383);stroke-width:0;stroke-linecap:round;stroke-linejoin:round;stroke-miterlimit:4;stroke-dasharray:none"
             stroke-miterlimit="4"
             id="path4248"
             d="m -173.15625,173.78125 c -11.15301,0.10069 -22.3445,2.74839 -32.53125,7.25 l 0,12 c 16.2988,-7.20257 35.14544,-9.69754 52.375,-4.5 20.1459,5.79547 36.1128,19.99915 51.75,33.28125 l 0,-12 c -15.6372,-13.28211 -31.6041,-27.48578 -51.75,-33.28125 -6.46108,-1.94908 -13.15194,-2.81041 -19.84375,-2.75 z" />
          <path
             inkscape:connector-curvature="0"
             style="fill:url(#linearGradient3386);stroke-width:0;stroke-linecap:round;stroke-linejoin:round;stroke-miterlimit:4;stroke-dasharray:none"
             stroke-miterlimit="4"
             id="path4250"
             d="m -101.55253,209.80712 c 1.94,3.11378 3.65078,-0.1041 5.41286,-1.64867 l 0,12 c -1.76208,1.54457 -3.47286,4.76245 -5.41286,1.64867 l 0,-12 z" />
          <path
             inkscape:connector-curvature="0"
             style="fill:url(#linearGradient3388);stroke-width:0;stroke-linecap:round;stroke-linejoin:round;stroke-miterlimit:4;stroke-dasharray:none"
             stroke-miterlimit="4"
             id="path4252"
             d="m -96.13967,208.15845 c 17.792296,-17.35246 35.595092,-34.69428 53.38083,-52.05338 l 0,12 c -17.785738,17.3591 -35.588534,34.70092 -53.38083,52.05338 l 0,-12 z" />
          <path
             inkscape:connector-curvature="0"
             style="fill:url(#linearGradient4242);stroke-width:0;stroke-linecap:round;stroke-linejoin:round;stroke-miterlimit:4;stroke-dasharray:none"
             stroke-miterlimit="4"
             id="path4254"
             d="m -42.75884,156.10507 c -15.478218,-12.67978 -30.446024,-27.30708 -49.98624,-33.38198 l 0,12 c 19.540216,6.0749 34.508022,20.7022 49.98624,33.38198 l 0,-12 z" />
          <path
             inkscape:connector-curvature="0"
             style="fill:url(#linearGradient4244);stroke-width:0;stroke-linecap:round;stroke-linejoin:round;stroke-miterlimit:4;stroke-dasharray:none"
             stroke-miterlimit="4"
             id="path4256"
             d="m -92.74508,122.72309 c -5.44678,-1.64164 -11.1312,-2.5067 -16.85751,-2.27427 l 0,12 c 5.72631,-0.23243 11.41073,0.63263 16.85751,2.27427 l 0,-12 z" />
        </g>
        <path
           inkscape:connector-curvature="0"
           style="fill:url(#linearGradient3375);fill-opacity:1;fill-rule:evenodd;stroke:#000000;stroke-width:0;stroke-linecap:butt;stroke-linejoin:round;stroke-miterlimit:4;stroke-dasharray:none;stroke-opacity:1"
           stroke-miterlimit="4"
           d="m -109.60259,120.44882 c -14.93176,0.43765 -28.36709,8.17462 -39.85805,17.18879 -20.23481,14.85374 -40.46963,29.70747 -60.70445,44.56121 -1.19075,1.9908 3.26609,-0.85926 4.49313,-1.15646 16.2988,-7.20257 35.12015,-9.71677 52.34971,-4.51923 20.1459,5.79547 36.13251,20.00188 51.76972,33.28399 1.940005,3.11378 3.65078,-0.1041 5.41286,-1.64867 17.792296,-17.35246 35.595092,-34.69428 53.38083,-52.05338 -15.478218,-12.67978 -30.446024,-27.30708 -49.98624,-33.38198 -5.44678,-1.64164 -11.1312,-2.5067 -16.85751,-2.27427 z"
           id="path4258" />
      </g>
    </g>
    <g
       font-size="7.5"
       font-variant="normal"
       letter-spacing="0"
       font-stretch="normal"
       font-weight="bold"
       line-height="125%"
       word-spacing="0"
       font-style="normal"
       transform="translate(68.816656,-42.241375)"
       id="text4330"
       style="font-style:normal;font-variant:normal;font-weight:bold;font-stretch:normal;font-size:7.5px;line-height:125%;font-family:STIX;letter-spacing:0;word-spacing:0;fill:#000000;fill-opacity:1;stroke:none;stroke-width:1;stroke-linecap:butt;stroke-linejoin:miter;stroke-opacity:1">
      <path
         inkscape:connector-curvature="0"
         id="path4335"
         d="m -56.13327,39.467617 0,-0.1875 c -0.3075,0 -0.4425,-0.165 -0.825,-1.0725 l -1.665,-3.915 -0.21,0 -1.6575,4.0875 c -0.285,0.705 -0.3975,0.84 -0.7425,0.9 l 0,0.1875 1.515,0 0,-0.1875 c -0.4425,-0.03 -0.6075,-0.1125 -0.6075,-0.3075 0,-0.18 0.1425,-0.495 0.2325,-0.7275 l 0.0975,-0.255 1.6875,0 c 0.255,0.5925 0.345,0.855 0.345,1.02 0,0.165 -0.0975,0.225 -0.345,0.2475 l -0.24,0.0225 0,0.1875 2.415,0 z m -2.2875,-1.77 -1.4625,0 0.705,-1.8225 0.7575,1.8225 z" />
      <path
         inkscape:connector-curvature="0"
         id="path4337"
         d="m -55.760848,34.397617 0,0.1875 c 0.525,0.045 0.63,0.15 0.63,0.735 l 0,3.2025 c 0,0.3825 -0.045,0.5925 -0.2925,0.69 -0.0825,0.0375 -0.195,0.0525 -0.3375,0.0675 l 0,0.1875 2.4975,0 0,-0.1875 c -0.5925,-0.075 -0.6525,-0.1425 -0.6525,-0.645 l 0,-1.44 c 0.99,-0.0075 1.245,-0.03 1.5675,-0.15 0.6225,-0.2325 0.9675,-0.69 0.9675,-1.29 0,-0.915 -0.765,-1.3575 -2.0175,-1.3575 l -2.3625,0 z m 1.845,0.525 c 0,-0.1725 0.1275,-0.2625 0.375,-0.2625 0.6225,0 0.87,0.345 0.87,1.1775 0,0.8325 -0.3075,1.0875 -1.245,1.095 l 0,-2.01 z" />
    </g>
  </g>
</svg>
