<?xml version="1.0" encoding="UTF-8" standalone="no"?>
<!-- Created with Inkscape (http://www.inkscape.org/) -->

<svg
   xmlns:dc="http://purl.org/dc/elements/1.1/"
   xmlns:cc="http://creativecommons.org/ns#"
   xmlns:rdf="http://www.w3.org/1999/02/22-rdf-syntax-ns#"
   xmlns:svg="http://www.w3.org/2000/svg"
   xmlns="http://www.w3.org/2000/svg"
   xmlns:xlink="http://www.w3.org/1999/xlink"
   xmlns:sodipodi="http://sodipodi.sourceforge.net/DTD/sodipodi-0.dtd"
   xmlns:inkscape="http://www.inkscape.org/namespaces/inkscape"
   id="svg2457"
   sodipodi:version="0.32"
   inkscape:version="0.92.5 (2060ec1f9f, 2020-04-08)"
   width="256"
   height="256"
   sodipodi:docname="folder-activities.svg"
   inkscape:output_extension="org.inkscape.output.svg.inkscape"
   version="1.1">
  <metadata
     id="metadata2462">
    <rdf:RDF>
      <cc:Work>
        <dc:format>image/svg+xml</dc:format>
        <dc:type
           rdf:resource="http://purl.org/dc/dcmitype/StillImage" />
        <dc:title></dc:title>
      </cc:Work>
    </rdf:RDF>
  </metadata>
  <defs
     id="defs2460">
    <linearGradient
       id="linearGradient3172">
      <stop
         stop-opacity="1"
         stop-color="#c9c9c9"
         id="stop3174" />
      <stop
         stop-opacity="1"
         stop-color="#ffffff"
         id="stop3176"
         offset="1" />
    </linearGradient>
    <linearGradient
       y2="246.45"
       x2="583.91"
       y1="246.45"
       x1="370.41"
       gradientUnits="userSpaceOnUse"
       id="linearGradient3332"
       xlink:href="#linearGradient3172"
       inkscape:collect="always" />
    <linearGradient
       y2="217.37"
       x2="486.37"
       y1="332.11"
       x1="552.26"
       gradientUnits="userSpaceOnUse"
       id="linearGradient3334"
       xlink:href="#linearGradient3172"
       inkscape:collect="always" />
    <linearGradient
       y2="396.97"
       x2="234.41"
       y1="492.96"
       x1="340.64"
       gradientUnits="userSpaceOnUse"
       id="linearGradient3336"
       xlink:href="#linearGradient3172"
       inkscape:collect="always" />
    <linearGradient
       y2="407.59"
       x2="1058.62"
       y1="269.7"
       x1="706.89"
       gradientUnits="userSpaceOnUse"
       id="linearGradient3338"
       xlink:href="#linearGradient3172"
       inkscape:collect="always" />
    <linearGradient
       y2="529.58"
       x2="762.05"
       y1="466.42"
       x1="578.32"
       gradientUnits="userSpaceOnUse"
       id="linearGradient3340"
       xlink:href="#linearGradient3172"
       inkscape:collect="always" />
    <linearGradient
       inkscape:collect="always"
       id="linearGradient4167">
      <stop
         id="stop4169"
         stop-color="#adadad"
         stop-opacity="0.624" />
      <stop
         offset="1"
         id="stop4171"
         stop-color="#ffffff"
         stop-opacity="0.973" />
    </linearGradient>
    <linearGradient
       id="linearGradient4223"
       inkscape:collect="always">
      <stop
         id="stop4225"
         stop-color="#bebebe"
         stop-opacity="0.803" />
      <stop
         id="stop4227"
         offset="1"
         stop-color="#9f9f9f"
         stop-opacity="0.732" />
    </linearGradient>
    <linearGradient
       id="linearGradient4211"
       inkscape:collect="always">
      <stop
         id="stop4213"
         stop-color="#9f9f9f"
         stop-opacity="0.634" />
      <stop
         id="stop4215"
         offset="1"
         stop-color="#696969"
         stop-opacity="0" />
    </linearGradient>
    <linearGradient
       id="linearGradient4171"
       inkscape:collect="always">
      <stop
         id="stop4173"
         stop-color="#b2b2b2"
         stop-opacity="0.624" />
      <stop
         id="stop4175"
         offset="1"
         stop-color="#ffffff"
         stop-opacity="0.698" />
    </linearGradient>
    <linearGradient
       id="linearGradient4142"
       inkscape:collect="always">
      <stop
         id="stop4144"
         stop-color="#909090"
         stop-opacity="0.519" />
      <stop
         id="stop4146"
         offset="1"
         stop-color="#696969"
         stop-opacity="0" />
    </linearGradient>
    <linearGradient
       gradientUnits="userSpaceOnUse"
       y2="324.36"
       x2="278.75"
       y1="63.25"
       x1="165.74"
       id="linearGradient4148"
       xlink:href="#linearGradient4142"
       inkscape:collect="always" />
    <filter
       height="1.1"
       y="-0.05"
       width="1.056"
       x="-0.028"
       id="filter4160"
       inkscape:collect="always"
       color-interpolation-filters="sRGB">
      <feGaussianBlur
         id="feGaussianBlur4162"
         stdDeviation="3.56251"
         inkscape:collect="always" />
    </filter>
    <linearGradient
       spreadMethod="reflect"
       gradientUnits="userSpaceOnUse"
       y2="114.16"
       x2="387.93"
       y1="106.85"
       x1="379.78"
       id="linearGradient4177"
       xlink:href="#linearGradient4167"
       inkscape:collect="always" />
    <linearGradient
       gradientTransform="translate(26.808511,-26.382979)"
       y2="114.16"
       x2="387.93"
       y1="108.46"
       x1="381.27"
       spreadMethod="reflect"
       gradientUnits="userSpaceOnUse"
       id="linearGradient4207"
       xlink:href="#linearGradient4171"
       inkscape:collect="always" />
    <linearGradient
       gradientUnits="userSpaceOnUse"
       y2="125.1"
       x2="281.1"
       y1="61.711"
       x1="284.7"
       id="linearGradient4217"
       xlink:href="#linearGradient4211"
       inkscape:collect="always" />
    <linearGradient
       gradientUnits="userSpaceOnUse"
       y2="103.09"
       x2="255.7"
       y1="93.26"
       x1="259.02"
       id="linearGradient4229"
       xlink:href="#linearGradient4223"
       inkscape:collect="always" />
    <linearGradient
       gradientUnits="userSpaceOnUse"
       y2="117.29"
       x2="258.99"
       y1="102.54"
       x1="262.84"
       id="linearGradient4237"
       xlink:href="#linearGradient4223"
       inkscape:collect="always" />
    <filter
       height="1.136"
       y="-0.068"
       width="1.049"
       x="-0.024"
       id="filter4257"
       inkscape:collect="always"
       color-interpolation-filters="sRGB">
      <feGaussianBlur
         id="feGaussianBlur4259"
         stdDeviation="2.75443"
         inkscape:collect="always" />
    </filter>
  </defs>
  <sodipodi:namedview
     inkscape:window-height="1056"
     inkscape:window-width="1920"
     inkscape:pageshadow="2"
     inkscape:pageopacity="0"
     guidetolerance="10.0"
     gridtolerance="10.0"
     objecttolerance="10.0"
     borderopacity="1.0"
     bordercolor="#666666"
     pagecolor="#ff0000"
     id="base"
     showgrid="false"
     inkscape:zoom="3.4414062"
     inkscape:cx="128"
     inkscape:cy="128"
     inkscape:window-x="0"
     inkscape:window-y="0"
     inkscape:current-layer="svg2457"
     inkscape:window-maximized="1"
     inkscape:snap-to-guides="false"
     inkscape:snap-grids="false"
     inkscape:snap-others="false"
     inkscape:object-nodes="false"
     inkscape:snap-nodes="false"
     inkscape:snap-global="false" />
  <g
     transform="matrix(0.77128144,0,0,0.77128144,-82.161746,-36.943758)"
     id="g4261">
    <path
       d="m 137.15847,253.33333 1.0929,10.92897 c 1.69466,2.56439 1.62485,5.1824 6.55737,7.10382 l 234.9905,77.59563 c 4.36168,2.76045 7.27409,1.93611 10.91114,-1.0929 l 16.39344,-17.48633 z"
       id="path4239"
       inkscape:connector-curvature="0"
       sodipodi:nodetypes="ccccccc"
       style="fill:#000000;fill-opacity:0.51399997;fill-rule:evenodd;stroke:none;stroke-width:1;stroke-linecap:butt;stroke-linejoin:miter;stroke-opacity:1;filter:url(#filter4257)" />
    <path
       d="M 146.27659,241.2766 139.89362,67.340426 c -0.0538,-6.437983 2.49923,-9.41706 7.97872,-7.978724 l 135.10638,37.234043 c 8.12648,2.325734 17.80936,-1.266511 19.14894,-15.425533 0.93604,-9.893676 4.6708,-17.669623 18.61702,-14.893617 l 85.6383,19.680851 c 6.41139,1.511285 7.81765,4.447577 7.4468,11.702128 l -2.12765,230.851066 -5.31915,5.85106 -254.86675,-84.34164 z"
       id="path4198"
       inkscape:connector-curvature="0"
       sodipodi:nodetypes="ccccsccccccc"
       style="fill:#000000;fill-opacity:0.73000004;fill-rule:evenodd;stroke:none;stroke-width:1;stroke-linecap:butt;stroke-linejoin:miter;stroke-opacity:1" />
    <path
       sodipodi:nodetypes="ccccsccccccc"
       inkscape:connector-curvature="0"
       id="path4209"
       d="M 146.27659,241.2766 139.89362,67.340426 c -0.0538,-6.437983 2.49923,-9.41706 7.97872,-7.978724 l 135.10638,37.234043 c 8.12648,2.325734 17.80936,-1.266511 19.14894,-15.425533 0.93604,-9.893676 4.6708,-17.669623 18.61702,-14.893617 l 85.6383,19.680851 c 6.41139,1.511285 7.81765,4.447577 7.4468,11.702128 l -2.12765,230.851066 -5.31915,5.85106 -254.86675,-84.34164 z"
       style="fill:url(#linearGradient4217);fill-opacity:1;fill-rule:evenodd;stroke:none;stroke-width:1;stroke-linecap:butt;stroke-linejoin:miter;stroke-opacity:1" />
    <path
       inkscape:connector-curvature="0"
       id="path4221"
       d="m 142.62295,64.262295 267.21311,65.573775 1.0929,194.53552 -256.8306,-92.89618 z"
       sodipodi:nodetypes="ccccc"
       style="fill:url(#linearGradient4229);fill-opacity:1;fill-rule:evenodd;stroke:#cecece;stroke-width:1;stroke-linecap:butt;stroke-linejoin:miter;stroke-opacity:0.70499998" />
    <path
       d="m 136.61202,73.005464 267.21311,65.573776 4.37159,189.07104 -260.10929,-87.4317 z"
       id="path4219"
       inkscape:connector-curvature="0"
       style="fill:url(#linearGradient4237);fill-opacity:1;fill-rule:evenodd;stroke:#cecece;stroke-width:1;stroke-linecap:butt;stroke-linejoin:miter;stroke-opacity:0.70499998" />
    <path
       d="m 116.2037,92.685185 c 1.13182,-4.540599 4.63483,-9.034209 10.68729,-7.545261 L 261.11111,123.7037 c 6.48148,1.63624 16.36287,0.33244 20.83334,-11.11111 4.00878,-10.26173 10.87392,-18.779525 25.46296,-16.203701 l 68.51852,13.888891 c 12.25335,3.29007 11.96705,11.68066 12.96296,18.51851 l 12.5,205.55556 c 0.64976,7.44283 -5.7507,13.21303 -12.96296,10.18518 L 144.90741,262.59259 c -4.92216,-1.55932 -8.93994,-3.09709 -9.25926,-10.18518 z"
       id="path4138"
       inkscape:connector-curvature="0"
       sodipodi:nodetypes="cccscccccccc"
       style="fill:#000000;fill-opacity:0.76999996;fill-rule:evenodd;stroke:none;stroke-width:1;stroke-linecap:butt;stroke-linejoin:miter;stroke-opacity:1" />
    <path
       sodipodi:nodetypes="cccsccccccc"
       inkscape:connector-curvature="0"
       id="path4140"
       d="m 116.2037,92.685185 c 1.13182,-4.540599 4.63483,-9.034209 10.68729,-7.545261 L 261.11111,123.7037 c 6.48148,1.63624 16.36287,0.33244 20.83334,-11.11111 4.00878,-10.26173 10.87392,-18.779525 25.46296,-16.203701 l 68.51852,13.888891 c 12.25335,3.29007 11.96705,11.68066 12.96296,18.51851 l 12.5,205.55556 c 0.64976,7.44283 -5.7507,13.21303 -12.96296,10.18518 L 209.72222,283.88889 C 173.76467,257.82993 120.35853,138.21611 116.2037,92.685185 Z"
       style="fill:url(#linearGradient4148);fill-opacity:1;fill-rule:evenodd;stroke:none;stroke-width:1;stroke-linecap:butt;stroke-linejoin:miter;stroke-opacity:1" />
    <path
       d="m 177.77778,215.83334 -80.555558,82.4074 255.555558,88.42593 38.75029,-40.87068 c 4.63488,-1.3015 9.96817,-1.38077 9.86082,-10.98118 L 396.29629,282.5 Z"
       id="path4150"
       inkscape:connector-curvature="0"
       sodipodi:nodetypes="ccccccc"
       style="fill:#000000;fill-opacity:0.27300002;fill-rule:evenodd;stroke:none;stroke-width:1;stroke-linecap:butt;stroke-linejoin:miter;stroke-opacity:1;filter:url(#filter4160)" />
    <path
       inkscape:connector-curvature="0"
       d="m 130.29688,79.757812 c -3.73674,-0.05935 -6.2712,2.374412 -7.66211,5.353516 1.24508,-0.330919 2.6592,-0.363492 4.25585,0.0293 l 134.22071,38.562492 c 5.49861,1.38812 13.44221,0.65773 18.45508,-6.58203 -4.30627,2.38583 -9.16625,2.43292 -12.90039,1.49024 L 132.44727,80.046875 c -0.75656,-0.186118 -1.47316,-0.278306 -2.15039,-0.289063 z m 177.54687,11.074219 c -7.10689,0.02874 -11.9932,3.152137 -15.51367,7.738281 3.82724,-2.318415 8.71897,-3.304404 15.07812,-2.18164 l 68.51758,13.888668 c 12.25335,3.29007 11.96698,11.68169 12.96289,18.51954 l 12.5,205.55468 c 0.1753,2.00795 -0.17581,3.88521 -0.90429,5.50977 4.09619,-1.28823 6.90142,-5.55587 6.46093,-10.60156 l -12.5,-205.55665 c -0.99591,-6.83785 -0.70954,-15.2275 -12.96289,-18.51757 L 312.96289,91.296875 c -1.82363,-0.321978 -3.52737,-0.47128 -5.11914,-0.464844 z"
       id="path4164"
       style="fill:#b5b5b5;fill-opacity:1;fill-rule:evenodd;stroke:none;stroke-width:1;stroke-linecap:butt;stroke-linejoin:miter;stroke-opacity:1" />
    <path
       id="path4169"
       d="m 375.92578,110.27734 c 12.25335,3.29007 11.96698,11.68169 12.96289,18.51954 2.18404,-2.05828 3.13422,-2.71335 5.55664,-5.09376 -0.99591,-6.83785 -0.70954,-15.2275 -12.96289,-18.51757 -2.39781,2.28773 -2.9924,2.79876 -5.55664,5.09179 z"
       inkscape:connector-curvature="0"
       sodipodi:nodetypes="ccccc"
       style="fill:url(#linearGradient4177);fill-opacity:1;fill-rule:evenodd;stroke:none;stroke-width:1;stroke-linecap:butt;stroke-linejoin:miter;stroke-opacity:1" />
    <path
       inkscape:connector-curvature="0"
       d="m 151.9043,54.332031 c -2.67378,0.112285 -4.27807,1.802415 -4.90039,4.837891 0.28199,0.05237 0.56972,0.11281 0.86914,0.191406 l 135.10547,37.234375 c 5.41154,1.54874 11.51034,0.467116 15.3789,-4.605469 -2.77183,0.801996 -5.76159,0.727663 -8.57031,-0.07617 L 154.68164,54.681641 c -1.0274,-0.269688 -1.9536,-0.384203 -2.77734,-0.34961 z m 170.88281,6.701172 c -5.39865,-0.126557 -8.73663,1.852669 -10.81445,5.035156 2.34672,-0.518874 5.2277,-0.496408 8.77148,0.208985 l 85.63867,19.679687 c 6.41139,1.511285 7.81812,4.448574 7.44727,11.703125 l -2.12891,230.849614 -0.47461,0.52148 1.96485,0.65039 5.31836,-5.85156 2.1289,-230.851564 c 0.37085,-7.254551 -1.03587,-10.189887 -7.44726,-11.701172 L 327.55273,61.595703 c -1.74327,-0.347001 -3.32697,-0.528775 -4.76562,-0.5625 z"
       id="path4200"
       style="fill:#b0b0b0;fill-opacity:1;fill-rule:evenodd;stroke:none;stroke-width:1;stroke-linecap:butt;stroke-linejoin:miter;stroke-opacity:1" />
    <path
       sodipodi:nodetypes="ccccc"
       inkscape:connector-curvature="0"
       d="m 403.12392,85.141164 c 12.4021,2.867396 10.71654,4.984484 10.70306,18.467586 2.18404,-2.05828 4.25114,-3.752349 6.67356,-6.132759 0.48467,-12.136762 1.00482,-14.993724 -11.89791,-17.244792 -2.39781,2.28773 -2.91447,2.616935 -5.47871,4.909965 z"
       id="path4205"
       style="fill:url(#linearGradient4207);fill-opacity:1;fill-rule:evenodd;stroke:none;stroke-width:1;stroke-linecap:butt;stroke-linejoin:miter;stroke-opacity:1" />
  </g>
  <g
     id="text4194"
     transform="translate(38.887811,-62.48518)"
     font-style="normal"
     word-spacing="0"
     line-height="125%"
     font-weight="bold"
     font-stretch="normal"
     letter-spacing="0"
     font-variant="normal"
     font-size="7.5"
     style="font-style:normal;font-variant:normal;font-weight:bold;font-stretch:normal;font-size:7.5px;line-height:125%;font-family:STIXIntegralsSm;letter-spacing:0;word-spacing:0;fill:#000000;fill-opacity:1;stroke:none;stroke-width:1;stroke-linecap:butt;stroke-linejoin:miter;stroke-opacity:1">
    <path
       d="m -33.815041,58.840733 -2.204589,0 -0.347901,0.996093 -1.417236,0 2.025146,-5.467529 1.680909,0 2.025146,5.467529 -1.417236,0 -0.344239,-0.996093 z m -1.853027,-1.014405 1.497803,0 -0.747071,-2.175293 -0.750732,2.175293 z"
       id="path4199"
       inkscape:connector-curvature="0" />
    <path
       d="m -31.33213,54.369297 2.340087,0 q 1.043702,0 1.600342,0.465088 0.560303,0.461426 0.560303,1.318359 0,0.860596 -0.560303,1.325684 -0.55664,0.461426 -1.600342,0.461426 l -0.930175,0 0,1.896972 -1.409912,0 0,-5.467529 z m 1.409912,1.021729 0,1.527099 0.780029,0 q 0.410156,0 0.633545,-0.197754 0.223389,-0.201416 0.223389,-0.567627 0,-0.366211 -0.223389,-0.563965 -0.223389,-0.197753 -0.633545,-0.197753 l -0.780029,0 z"
       id="path4201"
       inkscape:connector-curvature="0" />
  </g>
  <g
     id="g3224"
     transform="matrix(-0.22442923,0,0,0.21824315,258.80223,61.653607)">
    <path
       stroke-miterlimit="4"
       sodipodi:nodetypes="cccc"
       id="path3170"
       d="M 95.522388,746.02985 822.41053,166.83548 805.97015,216.92537 Z"
       inkscape:connector-curvature="0"
       style="fill:#e8e8e8;fill-opacity:1;fill-rule:evenodd;stroke:#c5c5c5;stroke-width:5;stroke-linecap:butt;stroke-linejoin:miter;stroke-miterlimit:4;stroke-dasharray:none;stroke-opacity:1" />
    <path
       stroke-miterlimit="4"
       sodipodi:nodetypes="ccccc"
       id="path3154"
       d="m 449.61201,207.58891 108.22171,-63.94919 25.57967,78.7067 -212.50808,126.91455 z"
       inkscape:connector-curvature="0"
       style="fill:url(#linearGradient3332);fill-opacity:1;fill-rule:evenodd;stroke:#c5c5c5;stroke-width:5;stroke-linecap:butt;stroke-linejoin:miter;stroke-miterlimit:4;stroke-dasharray:none;stroke-opacity:1" />
    <path
       stroke-miterlimit="4"
       sodipodi:nodetypes="ccccc"
       id="path3156"
       d="m 584.24242,221.39394 196.36364,-64.54546 -643.63636,500 238.18181,-309.09091 z"
       inkscape:connector-curvature="0"
       style="fill:url(#linearGradient3334);fill-opacity:1;fill-rule:evenodd;stroke:#c5c5c5;stroke-width:5;stroke-linecap:butt;stroke-linejoin:miter;stroke-miterlimit:4;stroke-dasharray:none;stroke-opacity:1" />
    <path
       stroke-miterlimit="4"
       d="M 440.60606,309.27273 509.69697,340.48484 137.57576,636.24242 375.15151,347.75757 Z"
       id="path3158"
       sodipodi:nodetypes="ccccc"
       inkscape:connector-curvature="0"
       style="fill:url(#linearGradient3336);fill-opacity:1;fill-rule:evenodd;stroke:#c5c5c5;stroke-width:5;stroke-linecap:butt;stroke-linejoin:miter;stroke-miterlimit:4;stroke-dasharray:none;stroke-opacity:1" />
    <path
       stroke-miterlimit="4"
       d="m 796.02442,189.92402 -16.1782,-32.275 -639.28539,498.74265 -49.651744,90.75984 z"
       id="path3162"
       sodipodi:nodetypes="ccccc"
       inkscape:connector-curvature="0"
       style="fill:#e5e5e5;fill-opacity:1;fill-rule:evenodd;stroke:#c5c5c5;stroke-width:5;stroke-linecap:butt;stroke-linejoin:miter;stroke-miterlimit:4;stroke-dasharray:none;stroke-opacity:1" />
    <path
       stroke-miterlimit="4"
       sodipodi:nodetypes="ccccc"
       id="path3160"
       d="M 523.63636,392.90909 509.69697,340.48484 137.57576,636.24242 90.909086,747.15151 Z"
       inkscape:connector-curvature="0"
       style="fill:#e8e8e8;fill-opacity:1;fill-rule:evenodd;stroke:#c5c5c5;stroke-width:5;stroke-linecap:butt;stroke-linejoin:miter;stroke-miterlimit:4;stroke-dasharray:none;stroke-opacity:1" />
    <path
       stroke-miterlimit="4"
       d="M 1058.123,299.75215 823.88964,162.81863 211.59657,652.37087 957.24106,409.69787 Z"
       id="path3168"
       sodipodi:nodetypes="ccccc"
       inkscape:connector-curvature="0"
       style="fill:url(#linearGradient3338);fill-opacity:1;fill-rule:evenodd;stroke:#c5c5c5;stroke-width:5;stroke-linecap:butt;stroke-linejoin:miter;stroke-miterlimit:4;stroke-dasharray:none;stroke-opacity:1" />
    <path
       stroke-miterlimit="4"
       sodipodi:nodetypes="ccccc"
       id="path3164"
       d="M 1015.2329,339.12348 586.56264,346.45499 211.45636,652.66033 957.24106,410.44414 Z"
       inkscape:connector-curvature="0"
       style="fill:url(#linearGradient3340);fill-opacity:1;fill-rule:evenodd;stroke:#c5c5c5;stroke-width:5;stroke-linecap:butt;stroke-linejoin:miter;stroke-miterlimit:4;stroke-dasharray:none;stroke-opacity:1" />
    <path
       stroke-miterlimit="4"
       d="m 1017.882,309.95819 80.2502,-75.27369 -37.0663,65.51199 -104.0385,108.55467 z"
       id="path3166"
       sodipodi:nodetypes="ccccc"
       inkscape:connector-curvature="0"
       style="fill:#cccccc;fill-opacity:1;fill-rule:evenodd;stroke:#c5c5c5;stroke-width:5;stroke-linecap:butt;stroke-linejoin:miter;stroke-miterlimit:4;stroke-dasharray:none;stroke-opacity:1" />
    <path
       stroke-miterlimit="4"
       sodipodi:nodetypes="cc"
       id="path3212"
       d="m 1015.2542,313.58192 -58.19205,97.74012"
       inkscape:connector-curvature="0"
       style="fill:none;fill-rule:evenodd;stroke:#ffffff;stroke-width:5;stroke-linecap:round;stroke-linejoin:round;stroke-miterlimit:4;stroke-dasharray:none;stroke-opacity:1" />
    <path
       stroke-miterlimit="4"
       id="path3214"
       d="M 229.9435,649.17514 956.49718,409.62712"
       inkscape:connector-curvature="0"
       style="fill:none;fill-rule:evenodd;stroke:#efefef;stroke-width:4;stroke-linecap:round;stroke-linejoin:round;stroke-miterlimit:4;stroke-dasharray:none;stroke-opacity:1" />
    <path
       stroke-miterlimit="4"
       sodipodi:nodetypes="cc"
       id="path3216"
       d="M 91.525423,748.0452 227.68362,649.17514"
       inkscape:connector-curvature="0"
       style="fill:none;fill-rule:evenodd;stroke:#f5f5f5;stroke-width:5;stroke-linecap:round;stroke-linejoin:round;stroke-miterlimit:4;stroke-dasharray:none;stroke-opacity:1" />
    <path
       stroke-miterlimit="4"
       sodipodi:nodetypes="cc"
       id="path3218"
       d="M 371.18644,349.17514 584.74576,219.79661"
       inkscape:connector-curvature="0"
       style="fill:none;fill-rule:evenodd;stroke:#ffffff;stroke-width:5;stroke-linecap:butt;stroke-linejoin:miter;stroke-miterlimit:4;stroke-dasharray:none;stroke-opacity:0.71700003" />
    <path
       stroke-miterlimit="4"
       sodipodi:nodetypes="cc"
       id="path3220"
       d="M 519.77401,366.1243 778.53107,160.47458"
       inkscape:connector-curvature="0"
       style="fill:none;fill-rule:evenodd;stroke:#ffffff;stroke-width:4;stroke-linecap:round;stroke-linejoin:round;stroke-miterlimit:4;stroke-dasharray:none;stroke-opacity:0.48500001" />
    <path
       stroke-miterlimit="4"
       id="path3222"
       d="M 511.29944,341.26554 138.41808,635.61582"
       inkscape:connector-curvature="0"
       style="fill:none;fill-rule:evenodd;stroke:#ffffff;stroke-width:4;stroke-linecap:round;stroke-linejoin:round;stroke-miterlimit:4;stroke-dasharray:none;stroke-opacity:0.44200003" />
  </g>
</svg>
