<?xml version="1.0" encoding="UTF-8" standalone="no"?>
<!-- Created with Inkscape (http://www.inkscape.org/) -->

<svg
   xmlns:dc="http://purl.org/dc/elements/1.1/"
   xmlns:cc="http://creativecommons.org/ns#"
   xmlns:rdf="http://www.w3.org/1999/02/22-rdf-syntax-ns#"
   xmlns:svg="http://www.w3.org/2000/svg"
   xmlns="http://www.w3.org/2000/svg"
   xmlns:xlink="http://www.w3.org/1999/xlink"
   xmlns:sodipodi="http://sodipodi.sourceforge.net/DTD/sodipodi-0.dtd"
   xmlns:inkscape="http://www.inkscape.org/namespaces/inkscape"
   width="255"
   height="255"
   viewBox="0 0 67.468749 67.468749"
   version="1.1"
   id="svg8"
   inkscape:version="0.92.5 (2060ec1f9f, 2020-04-08)"
   sodipodi:docname="user-music.svg">
  <defs
     id="defs2">
    <clipPath
       clipPathUnits="userSpaceOnUse"
       id="clipPath2059">
      <path
         d="m -10.099732,231.68531 c 3.5587363,2.50616 4.8319716,-0.58528 2.9651647,-3.064 -3.1818907,-4.22486 -6.4443207,-9.83985 -12.3548527,-15.91305 -2.594516,-2.66865 -11.860659,-7.80827 -11.860659,-7.80827 0,0 -0.115438,-2.18844 -0.09884,-3.064 0.01106,-0.582 -0.565687,-0.56369 -0.889553,-0.29652 -0.782426,0.64546 -2.47097,2.56981 -2.47097,2.56981 l -1.68026,-0.0988 -1.087226,-1.58142 c -0.296516,-0.41055 -0.636056,-0.34641 -0.88955,0 -0.545383,1.84962 -0.878698,3.8848 -3.459359,3.95355 l 4.447747,3.95356 c 7.76561,1.55335 15.578734,5.58545 20.261957,14.33163 0,0 4.526451,5.19364 7.116396,7.01755 z"
         id="path2061"
         sodipodi:nodetypes="csscsscccccccs"
         inkscape:connector-curvature="0"
         stroke-dasharray="none"
         stroke-opacity="1"
         fill="#ffffff"
         fill-rule="evenodd"
         stroke="none"
         stroke-linejoin="miter"
         fill-opacity="1"
         stroke-linecap="butt"
         stroke-width="0.048"
         stroke-miterlimit="4" />
    </clipPath>
    <clipPath
       id="clipPath2059-5"
       clipPathUnits="userSpaceOnUse">
      <path
         stroke-miterlimit="4"
         stroke-width="0.048"
         stroke-linecap="butt"
         fill-opacity="1"
         stroke-linejoin="miter"
         stroke="none"
         fill-rule="evenodd"
         fill="#ffffff"
         stroke-opacity="1"
         stroke-dasharray="none"
         inkscape:connector-curvature="0"
         sodipodi:nodetypes="csscsscccccccs"
         id="path2061-3"
         d="m -10.099732,231.68531 c 3.5587363,2.50616 4.8319716,-0.58528 2.9651647,-3.064 -3.1818907,-4.22486 -6.4443207,-9.83985 -12.3548527,-15.91305 -2.594516,-2.66865 -11.860659,-7.80827 -11.860659,-7.80827 0,0 -0.115438,-2.18844 -0.09884,-3.064 0.01106,-0.582 -0.565687,-0.56369 -0.889553,-0.29652 -0.782426,0.64546 -2.47097,2.56981 -2.47097,2.56981 l -1.68026,-0.0988 -1.087226,-1.58142 c -0.296516,-0.41055 -0.636056,-0.34641 -0.88955,0 -0.545383,1.84962 -0.878698,3.8848 -3.459359,3.95355 l 4.447747,3.95356 c 7.76561,1.55335 15.578734,5.58545 20.261957,14.33163 0,0 4.526451,5.19364 7.116396,7.01755 z" />
    </clipPath>
    <clipPath
       id="clipPath">
      <path
         fill-opacity="0.95"
         stroke="none"
         fill="#1b1b1b"
         sodipodi:nodetypes="csssscc"
         inkscape:connector-curvature="0"
         id="rect5264"
         d="m -515.73002,435.56445 v 5.83767 c 0,9.74315 -7.84377,17.58692 -17.58692,17.58692 h -135.05122 c -9.74315,0 -17.58692,-7.84377 -17.58692,-17.58692 v -5.83767 z" />
    </clipPath>
    <clipPath
       clipPathUnits="userSpaceOnUse"
       id="clipPath2059-7">
      <path
         d="m -10.099732,231.68531 c 3.5587363,2.50616 4.8319716,-0.58528 2.9651647,-3.064 -3.1818907,-4.22486 -6.4443207,-9.83985 -12.3548527,-15.91305 -2.594516,-2.66865 -11.860659,-7.80827 -11.860659,-7.80827 0,0 -0.115438,-2.18844 -0.09884,-3.064 0.01106,-0.582 -0.565687,-0.56369 -0.889553,-0.29652 -0.782426,0.64546 -2.47097,2.56981 -2.47097,2.56981 l -1.68026,-0.0988 -1.087226,-1.58142 c -0.296516,-0.41055 -0.636056,-0.34641 -0.88955,0 -0.545383,1.84962 -0.878698,3.8848 -3.459359,3.95355 l 4.447747,3.95356 c 7.76561,1.55335 15.578734,5.58545 20.261957,14.33163 0,0 4.526451,5.19364 7.116396,7.01755 z"
         id="path2061-5"
         sodipodi:nodetypes="csscsscccccccs"
         inkscape:connector-curvature="0"
         stroke-dasharray="none"
         stroke-opacity="1"
         fill="#ffffff"
         fill-rule="evenodd"
         stroke="none"
         stroke-linejoin="miter"
         fill-opacity="1"
         stroke-linecap="butt"
         stroke-width="0.048"
         stroke-miterlimit="4" />
    </clipPath>
    <clipPath
       clipPathUnits="userSpaceOnUse"
       id="clipPath1162">
      <path
         stroke-miterlimit="4"
         stroke-width="0.071"
         stroke-linecap="round"
         fill-opacity="0.347"
         stroke-linejoin="round"
         stroke="none"
         fill="#000000"
         stroke-opacity="1"
         stroke-dasharray="none"
         inkscape:connector-curvature="0"
         d="m -65.649736,239.84563 c -9.358079,0 -16.951888,7.59381 -16.951888,16.95188 0,9.35808 7.593811,16.94076 16.951888,16.94077 0.292439,0 0.578792,-0.008 0.867614,-0.0222 2.122786,-0.10753 4.148336,-0.60587 5.995453,-1.42378 l 2.669587,3.97101 c -0.225515,0.4951 -0.245107,0.96445 -0.01111,1.31255 l 15.67271,23.32553 c 0.495366,0.73695 1.94415,0.6317 3.247998,-0.24471 1.303846,-0.87642 1.96364,-2.17735 1.468276,-2.9143 L -51.42304,274.4168 c -0.233058,-0.34672 -0.682887,-0.49868 -1.22356,-0.47831 l -2.558357,-3.80416 c 3.95991,-3.10036 6.507123,-7.91951 6.507123,-13.33682 0,-9.35807 -7.593809,-16.95188 -16.951889,-16.95188 z m 0,2.5806 c 7.92884,0 14.371283,6.44244 14.371283,14.37128 0,7.92885 -6.442435,14.36016 -14.371283,14.36016 -7.928851,0 -14.349039,-6.43131 -14.349039,-14.36016 0,-0.24777 -0.0013,-0.48941 0.01111,-0.73413 0.384376,-7.58638 6.656848,-13.63715 14.337916,-13.63715 z"
         id="path1164" />
    </clipPath>
    <linearGradient
       id="linearGradient1048"
       inkscape:collect="always">
      <stop
         id="stop1044"
         offset="0"
         style="stop-color:#ffffff;stop-opacity:0.72395831" />
      <stop
         id="stop1046"
         offset="1"
         style="stop-color:#ffffff;stop-opacity:0;" />
    </linearGradient>
    <linearGradient
       id="linearGradient4703"
       inkscape:collect="always">
      <stop
         id="stop4699"
         offset="0"
         style="stop-color:#d4d4d4;stop-opacity:1" />
      <stop
         id="stop4701"
         offset="1"
         style="stop-color:#1d1d1d;stop-opacity:1" />
    </linearGradient>
    <linearGradient
       inkscape:collect="always"
       id="linearGradient4697">
      <stop
         style="stop-color:#444444;stop-opacity:1"
         offset="0"
         id="stop4693" />
      <stop
         style="stop-color:#3b3b3b;stop-opacity:1"
         offset="1"
         id="stop4695" />
    </linearGradient>
    <linearGradient
       id="linearGradient4663"
       inkscape:collect="always">
      <stop
         id="stop4659"
         offset="0"
         style="stop-color:#ffffff;stop-opacity:1;" />
      <stop
         style="stop-color:#363636;stop-opacity:1"
         offset="0.80994421"
         id="stop4671" />
      <stop
         style="stop-color:#000000;stop-opacity:1"
         offset="0.85211051"
         id="stop4669" />
      <stop
         style="stop-color:#969696;stop-opacity:1"
         offset="0.92590147"
         id="stop4667" />
      <stop
         id="stop4661"
         offset="1"
         style="stop-color:#363636;stop-opacity:1" />
    </linearGradient>
    <linearGradient
       id="linearGradient4653"
       inkscape:collect="always">
      <stop
         id="stop4649"
         offset="0"
         style="stop-color:#ffffff;stop-opacity:1" />
      <stop
         id="stop4651"
         offset="1"
         style="stop-color:#ffffff;stop-opacity:0.01339286" />
    </linearGradient>
    <linearGradient
       id="linearGradient4643"
       inkscape:collect="always">
      <stop
         id="stop4639"
         offset="0"
         style="stop-color:#444444;stop-opacity:1" />
      <stop
         id="stop4641"
         offset="1"
         style="stop-color:#222222;stop-opacity:1" />
    </linearGradient>
    <linearGradient
       id="linearGradient930"
       inkscape:collect="always">
      <stop
         id="stop926"
         offset="0"
         style="stop-color:#ffffff;stop-opacity:0.11607143" />
      <stop
         id="stop928"
         offset="1"
         style="stop-color:#ffffff;stop-opacity:0" />
    </linearGradient>
    <linearGradient
       inkscape:collect="always"
       id="linearGradient924">
      <stop
         style="stop-color:#000000;stop-opacity:1"
         offset="0"
         id="stop920" />
      <stop
         style="stop-color:#000000;stop-opacity:1"
         offset="1"
         id="stop922" />
    </linearGradient>
    <linearGradient
       inkscape:collect="always"
       id="linearGradient910">
      <stop
         style="stop-color:#ffffff;stop-opacity:0.1875"
         offset="0"
         id="stop904" />
      <stop
         style="stop-color:#ffffff;stop-opacity:0"
         offset="1"
         id="stop908" />
    </linearGradient>
    <linearGradient
       id="linearGradient898"
       inkscape:collect="always">
      <stop
         id="stop894"
         offset="0"
         style="stop-color:#000000;stop-opacity:1" />
      <stop
         style="stop-color:#333333;stop-opacity:1"
         offset="0.51606923"
         id="stop902" />
      <stop
         id="stop896"
         offset="1"
         style="stop-color:#000000;stop-opacity:1" />
    </linearGradient>
    <linearGradient
       id="linearGradient835"
       inkscape:collect="always">
      <stop
         id="stop831"
         offset="0"
         style="stop-color:#afafaf;stop-opacity:1" />
      <stop
         id="stop833"
         offset="1"
         style="stop-color:#000000;stop-opacity:1" />
    </linearGradient>
    <linearGradient
       spreadMethod="reflect"
       gradientTransform="translate(-3.6824341,9.1459045)"
       gradientUnits="userSpaceOnUse"
       y2="534.21051"
       x2="798.84558"
       y1="368.42105"
       x1="662.55786"
       id="linearGradient837"
       xlink:href="#linearGradient835"
       inkscape:collect="always" />
    <filter
       height="1.0500367"
       y="-0.025018362"
       width="1.0461226"
       x="-0.0230613"
       id="filter1045"
       style="color-interpolation-filters:sRGB"
       inkscape:collect="always">
      <feGaussianBlur
         id="feGaussianBlur1047"
         stdDeviation="1.6330685"
         inkscape:collect="always" />
    </filter>
    <filter
       height="1.0579185"
       y="-0.028959254"
       width="1.0951281"
       x="-0.047564056"
       id="filter886"
       style="color-interpolation-filters:sRGB"
       inkscape:collect="always">
      <feGaussianBlur
         id="feGaussianBlur888"
         stdDeviation="2.7320052"
         inkscape:collect="always" />
    </filter>
    <linearGradient
       gradientTransform="translate(-7.7912598,3.6579284)"
       spreadMethod="reflect"
       gradientUnits="userSpaceOnUse"
       y2="253.77359"
       x2="718.86792"
       y1="666.98114"
       x1="731.13208"
       id="linearGradient900"
       xlink:href="#linearGradient898"
       inkscape:collect="always" />
    <linearGradient
       gradientTransform="translate(-4.0677297,7.9132712)"
       gradientUnits="userSpaceOnUse"
       y2="462.26416"
       x2="612.21716"
       y1="394.33963"
       x1="612.1947"
       id="linearGradient912"
       xlink:href="#linearGradient930"
       inkscape:collect="always" />
    <linearGradient
       gradientUnits="userSpaceOnUse"
       y2="470.32794"
       x2="636.96985"
       y1="496.27844"
       x1="528.08673"
       id="linearGradient918"
       xlink:href="#linearGradient924"
       inkscape:collect="always" />
    <linearGradient
       gradientUnits="userSpaceOnUse"
       y2="522.57043"
       x2="569.53937"
       y1="385.89999"
       x1="588.65222"
       id="linearGradient932"
       xlink:href="#linearGradient910"
       inkscape:collect="always" />
    <linearGradient
       gradientTransform="translate(-4.5556641,-0.50616455)"
       gradientUnits="userSpaceOnUse"
       y2="225.75928"
       x2="711.78717"
       y1="691.45105"
       x1="752.1048"
       id="linearGradient4645"
       xlink:href="#linearGradient4643"
       inkscape:collect="always" />
    <radialGradient
       gradientTransform="matrix(0.94875482,-0.61127749,0.32418237,0.50315869,-97.052836,627.11367)"
       gradientUnits="userSpaceOnUse"
       r="105.40877"
       fy="434.71564"
       fx="696.42615"
       cy="434.71564"
       cx="696.42615"
       id="radialGradient4655"
       xlink:href="#linearGradient4653"
       inkscape:collect="always" />
    <radialGradient
       gradientUnits="userSpaceOnUse"
       r="288.10886"
       fy="462.1485"
       fx="723.34082"
       cy="462.1485"
       cx="723.34082"
       id="radialGradient4665"
       xlink:href="#linearGradient4663"
       inkscape:collect="always" />
    <linearGradient
       y2="225.75928"
       x2="711.78717"
       y1="691.45105"
       x1="752.1048"
       gradientTransform="matrix(1.3158976,0,0,1.3158976,-234.49641,-146.65766)"
       gradientUnits="userSpaceOnUse"
       id="linearGradient4675"
       xlink:href="#linearGradient4643"
       inkscape:collect="always" />
    <linearGradient
       y2="225.75928"
       x2="711.78717"
       y1="691.45105"
       x1="752.1048"
       gradientTransform="matrix(1.5971764,0,0,1.5971764,-439.23818,-276.79256)"
       gradientUnits="userSpaceOnUse"
       id="linearGradient4679"
       xlink:href="#linearGradient4697"
       inkscape:collect="always" />
    <linearGradient
       gradientUnits="userSpaceOnUse"
       y2="812.42963"
       x2="869.21112"
       y1="98.706367"
       x1="625.05219"
       id="linearGradient4705"
       xlink:href="#linearGradient4703"
       inkscape:collect="always" />
    <filter
       height="1.0479999"
       y="-0.023999969"
       width="1.0480001"
       x="-0.024000032"
       id="filter4717"
       style="color-interpolation-filters:sRGB"
       inkscape:collect="always">
      <feGaussianBlur
         id="feGaussianBlur4719"
         stdDeviation="7.4400684"
         inkscape:collect="always" />
    </filter>
    <linearGradient
       id="linearGradient889"
       inkscape:collect="always">
      <stop
         id="stop885"
         offset="0"
         style="stop-color:#000056;stop-opacity:1" />
      <stop
         id="stop887"
         offset="1"
         style="stop-color:#000d56;stop-opacity:0" />
    </linearGradient>
    <linearGradient
       id="linearGradient882"
       inkscape:collect="always">
      <stop
         id="stop874"
         offset="0"
         style="stop-color:#0013ff;stop-opacity:1" />
      <stop
         style="stop-color:#000856;stop-opacity:0.99607843"
         offset="0.75752091"
         id="stop876" />
      <stop
         style="stop-color:#798aff;stop-opacity:0.99607843"
         offset="0.93986434"
         id="stop878" />
      <stop
         id="stop880"
         offset="1"
         style="stop-color:#000fff;stop-opacity:0.99607843" />
    </linearGradient>
    <linearGradient
       inkscape:collect="always"
       id="linearGradient1118">
      <stop
         style="stop-color:#52ff57;stop-opacity:0"
         offset="0"
         id="stop1114" />
      <stop
         style="stop-color:#025d05;stop-opacity:0.67567569"
         offset="1"
         id="stop1116" />
    </linearGradient>
    <linearGradient
       inkscape:collect="always"
       id="linearGradient921">
      <stop
         style="stop-color:#000656;stop-opacity:1"
         offset="0"
         id="stop917" />
      <stop
         style="stop-color:#000356;stop-opacity:0"
         offset="1"
         id="stop919" />
    </linearGradient>
    <linearGradient
       inkscape:collect="always"
       id="linearGradient905">
      <stop
         style="stop-color:#025600;stop-opacity:1;"
         offset="0"
         id="stop901" />
      <stop
         id="stop909"
         offset="0.88655269"
         style="stop-color:#013300;stop-opacity:1" />
      <stop
         style="stop-color:#025600;stop-opacity:0.10810811"
         offset="1"
         id="stop903" />
    </linearGradient>
    <linearGradient
       id="linearGradient848"
       inkscape:collect="always">
      <stop
         id="stop882"
         offset="0"
         style="stop-color:#000bff;stop-opacity:1" />
      <stop
         id="stop884"
         offset="1"
         style="stop-color:#000a7c;stop-opacity:0" />
    </linearGradient>
    <linearGradient
       inkscape:collect="always"
       id="linearGradient856">
      <stop
         style="stop-color:#5253eb;stop-opacity:1"
         offset="0"
         id="stop852" />
      <stop
         style="stop-color:#000332;stop-opacity:1"
         offset="1"
         id="stop854" />
    </linearGradient>
    <linearGradient
       inkscape:collect="always"
       id="linearGradient848-3">
      <stop
         style="stop-color:#8e95ff;stop-opacity:1"
         offset="0"
         id="stop844" />
      <stop
         style="stop-color:#000344;stop-opacity:1"
         offset="1"
         id="stop846" />
    </linearGradient>
    <radialGradient
       inkscape:collect="always"
       xlink:href="#linearGradient848-3"
       id="radialGradient850"
       cx="-228.40999"
       cy="1737.8446"
       fx="-228.40999"
       fy="1737.8446"
       r="374.34732"
       gradientTransform="matrix(0.11288854,0,0,0.07525902,42.471241,84.035644)"
       gradientUnits="userSpaceOnUse" />
    <linearGradient
       inkscape:collect="always"
       xlink:href="#linearGradient856"
       id="linearGradient858"
       x1="758.98602"
       y1="944.23016"
       x2="795.00574"
       y2="944.23016"
       gradientUnits="userSpaceOnUse"
       spreadMethod="reflect"
       gradientTransform="matrix(0.16227727,0,0,0.11288854,4.1356008,-2.0469341)" />
    <radialGradient
       inkscape:collect="always"
       xlink:href="#linearGradient882"
       id="radialGradient878"
       cx="513.50116"
       cy="1240.864"
       fx="513.50116"
       fy="1240.864"
       r="186.2018"
       gradientTransform="matrix(0.54014774,0.02538536,-0.030734,0.65395602,-139.98159,-687.42899)"
       gradientUnits="userSpaceOnUse" />
    <radialGradient
       inkscape:collect="always"
       xlink:href="#linearGradient848"
       id="radialGradient887"
       gradientUnits="userSpaceOnUse"
       gradientTransform="matrix(0.11288854,0,0,0.07525902,41.747625,83.475146)"
       cx="-124.77984"
       cy="2180.8799"
       fx="-124.77984"
       fy="2180.8799"
       r="374.34732" />
    <radialGradient
       inkscape:collect="always"
       xlink:href="#linearGradient905"
       id="radialGradient913"
       gradientUnits="userSpaceOnUse"
       gradientTransform="matrix(0.39228938,0.01018253,-0.01078898,0.41565358,-87.786659,-235.396)"
       cx="559.72992"
       cy="878.3645"
       fx="559.72992"
       fy="878.3645"
       r="153.8391" />
    <linearGradient
       inkscape:collect="always"
       xlink:href="#linearGradient921"
       id="linearGradient923"
       x1="773.8725"
       y1="280.17804"
       x2="832.50348"
       y2="280.17804"
       gradientUnits="userSpaceOnUse"
       gradientTransform="matrix(0.11288854,0,0,0.11288854,44.578854,11.846369)" />
    <filter
       inkscape:collect="always"
       style="color-interpolation-filters:sRGB"
       id="filter1013"
       x="-0.13324897"
       width="1.2664979"
       y="-0.075026721"
       height="1.1500534">
      <feGaussianBlur
         inkscape:collect="always"
         stdDeviation="10.464001"
         id="feGaussianBlur1015" />
    </filter>
    <linearGradient
       inkscape:collect="always"
       xlink:href="#linearGradient1118"
       id="linearGradient1124"
       gradientUnits="userSpaceOnUse"
       x1="167.39156"
       y1="93.111115"
       x2="174.8186"
       y2="93.643974"
       gradientTransform="translate(13.557829,26.643861)" />
    <radialGradient
       inkscape:collect="always"
       xlink:href="#linearGradient882"
       id="radialGradient888"
       gradientUnits="userSpaceOnUse"
       gradientTransform="matrix(0.54014774,0.02538536,-0.030734,0.65395602,-139.98159,-687.42899)"
       cx="513.50116"
       cy="1240.864"
       fx="513.50116"
       fy="1240.864"
       r="186.2018" />
    <radialGradient
       inkscape:collect="always"
       xlink:href="#linearGradient905"
       id="radialGradient890"
       gradientUnits="userSpaceOnUse"
       gradientTransform="matrix(0.39228938,0.01018253,-0.01078898,0.41565358,-87.786659,-235.396)"
       cx="559.72992"
       cy="878.3645"
       fx="559.72992"
       fy="878.3645"
       r="153.8391" />
    <linearGradient
       inkscape:collect="always"
       xlink:href="#linearGradient889"
       id="linearGradient894"
       gradientUnits="userSpaceOnUse"
       gradientTransform="matrix(0.11288854,0,0,0.11288854,44.578854,11.846369)"
       x1="773.8725"
       y1="280.17804"
       x2="832.50348"
       y2="280.17804" />
    <filter
       inkscape:collect="always"
       style="color-interpolation-filters:sRGB"
       id="filter988"
       x="-0.02754634"
       width="1.0550927"
       y="-0.02126263"
       height="1.0425253">
      <feGaussianBlur
         inkscape:collect="always"
         stdDeviation="1.7288142"
         id="feGaussianBlur990" />
    </filter>
    <linearGradient
       gradientTransform="translate(261.46637,2.2491731)"
       gradientUnits="userSpaceOnUse"
       y2="113.41428"
       x2="-150.30606"
       y1="35.25552"
       x1="-217.72354"
       id="linearGradient1050"
       xlink:href="#linearGradient1048"
       inkscape:collect="always" />
    <linearGradient
       inkscape:collect="always"
       xlink:href="#linearGradient835"
       id="linearGradient1297"
       gradientUnits="userSpaceOnUse"
       gradientTransform="translate(-3.6824341,9.1459045)"
       x1="662.55786"
       y1="368.42105"
       x2="798.84558"
       y2="534.21051"
       spreadMethod="reflect" />
    <linearGradient
       inkscape:collect="always"
       xlink:href="#linearGradient1118"
       id="linearGradient1299"
       gradientUnits="userSpaceOnUse"
       gradientTransform="translate(13.557829,26.643861)"
       x1="167.39156"
       y1="93.111115"
       x2="174.8186"
       y2="93.643974" />
    <linearGradient
       id="linearGradient858-3"
       inkscape:collect="always">
      <stop
         id="stop854-6"
         offset="0"
         style="stop-color:#ffffff;stop-opacity:1;" />
      <stop
         id="stop856"
         offset="1"
         style="stop-color:#ffffff;stop-opacity:0;" />
    </linearGradient>
    <linearGradient
       id="linearGradient855"
       inkscape:collect="always">
      <stop
         id="stop851"
         offset="0"
         style="stop-color:#000000;stop-opacity:1" />
      <stop
         id="stop853"
         offset="1"
         style="stop-color:#000000;stop-opacity:0" />
    </linearGradient>
    <linearGradient
       id="linearGradient4223"
       inkscape:collect="always">
      <stop
         stop-opacity="0.803"
         stop-color="#bebebe"
         id="stop4225" />
      <stop
         stop-opacity="0.732"
         stop-color="#9f9f9f"
         id="stop4227"
         offset="1" />
    </linearGradient>
    <linearGradient
       id="linearGradient4211"
       inkscape:collect="always">
      <stop
         stop-opacity="0.634"
         stop-color="#9f9f9f"
         id="stop4213" />
      <stop
         stop-opacity="0"
         stop-color="#696969"
         id="stop4215"
         offset="1" />
    </linearGradient>
    <linearGradient
       id="linearGradient4171"
       inkscape:collect="always">
      <stop
         stop-opacity="0.623"
         stop-color="#848484"
         id="stop4173" />
      <stop
         stop-opacity="0.698"
         stop-color="#cdcdcd"
         id="stop4175"
         offset="1" />
    </linearGradient>
    <linearGradient
       id="linearGradient4142"
       inkscape:collect="always">
      <stop
         stop-opacity="0.519"
         stop-color="#909090"
         id="stop4144" />
      <stop
         stop-opacity="0"
         stop-color="#696969"
         id="stop4146"
         offset="1" />
    </linearGradient>
    <linearGradient
       gradientTransform="matrix(0.77077081,0,0,0.77077081,-80.822015,-34.561922)"
       gradientUnits="userSpaceOnUse"
       y2="324.36"
       x2="278.75"
       y1="63.25"
       x1="165.74"
       id="linearGradient4148"
       xlink:href="#linearGradient4142"
       inkscape:collect="always" />
    <linearGradient
       gradientTransform="matrix(0.77077081,0,0,0.77077081,-80.822015,-34.561922)"
       spreadMethod="reflect"
       gradientUnits="userSpaceOnUse"
       y2="114.16"
       x2="387.93"
       y1="106.85"
       x1="379.78"
       id="linearGradient4177"
       xlink:href="#linearGradient4171"
       inkscape:collect="always" />
    <linearGradient
       gradientTransform="matrix(0.77077081,0,0,0.77077081,-60.158797,-54.897152)"
       y2="114.16"
       x2="387.93"
       y1="108.46"
       x1="381.27"
       spreadMethod="reflect"
       gradientUnits="userSpaceOnUse"
       id="linearGradient4207"
       xlink:href="#linearGradient4171"
       inkscape:collect="always" />
    <linearGradient
       gradientTransform="matrix(0.77077081,0,0,0.77077081,-80.822015,-34.561922)"
       gradientUnits="userSpaceOnUse"
       y2="125.1"
       x2="281.1"
       y1="61.711"
       x1="284.7"
       id="linearGradient4217"
       xlink:href="#linearGradient4211"
       inkscape:collect="always" />
    <linearGradient
       gradientTransform="matrix(0.77077081,0,0,0.77077081,-80.822015,-34.561922)"
       gradientUnits="userSpaceOnUse"
       y2="103.09"
       x2="255.7"
       y1="93.26"
       x1="259.02"
       id="linearGradient4229"
       xlink:href="#linearGradient4223"
       inkscape:collect="always" />
    <linearGradient
       gradientTransform="matrix(0.77077081,0,0,0.77077081,-80.822015,-34.561922)"
       gradientUnits="userSpaceOnUse"
       y2="117.29"
       x2="258.99"
       y1="102.54"
       x1="262.84"
       id="linearGradient4237"
       xlink:href="#linearGradient4223"
       inkscape:collect="always" />
    <filter
       height="1.0332601"
       y="-0.016630034"
       width="1.0187733"
       x="-0.0093866307"
       id="filter890"
       style="color-interpolation-filters:sRGB"
       inkscape:collect="always">
      <feGaussianBlur
         id="feGaussianBlur892"
         stdDeviation="0.91238843"
         inkscape:collect="always" />
    </filter>
    <linearGradient
       gradientUnits="userSpaceOnUse"
       y2="166.73978"
       x2="120.79942"
       y1="193.77997"
       x1="111.98162"
       id="linearGradient857"
       xlink:href="#linearGradient855"
       inkscape:collect="always" />
    <linearGradient
       gradientUnits="userSpaceOnUse"
       y2="86.098389"
       x2="185.756"
       y1="54.649479"
       x1="221.87906"
       id="linearGradient860"
       xlink:href="#linearGradient858-3"
       inkscape:collect="always" />
    <linearGradient
       gradientTransform="translate(19.986222,-19.692307)"
       y2="86.098389"
       x2="185.756"
       y1="54.649479"
       x1="221.87906"
       gradientUnits="userSpaceOnUse"
       id="linearGradient864"
       xlink:href="#linearGradient858-3"
       inkscape:collect="always" />
  </defs>
  <sodipodi:namedview
     id="base"
     pagecolor="#ff0000"
     bordercolor="#666666"
     borderopacity="1.0"
     inkscape:pageopacity="0"
     inkscape:pageshadow="2"
     inkscape:zoom="2.44"
     inkscape:cx="127.5"
     inkscape:cy="127.5"
     inkscape:document-units="px"
     inkscape:current-layer="layer1"
     showgrid="false"
     inkscape:snap-to-guides="false"
     inkscape:snap-grids="false"
     inkscape:snap-others="false"
     inkscape:object-nodes="false"
     inkscape:snap-nodes="false"
     inkscape:snap-global="false"
     inkscape:window-width="1920"
     inkscape:window-height="1056"
     inkscape:window-x="0"
     inkscape:window-y="0"
     inkscape:window-maximized="1"
     units="px" />
  <metadata
     id="metadata5">
    <rdf:RDF>
      <cc:Work>
        <dc:format>image/svg+xml</dc:format>
        <dc:type
           rdf:resource="http://purl.org/dc/dcmitype/StillImage" />
        <dc:title />
      </cc:Work>
    </rdf:RDF>
  </metadata>
  <g
     inkscape:label="Layer 1"
     inkscape:groupmode="layer"
     id="layer1"
     transform="translate(0,-229.53126)">
    <g
       id="g1488"
       transform="matrix(0.26458333,0,0,0.26458333,-0.51530147,230.5241)">
      <g
         transform="matrix(1.027092,0,0,0.87914716,269.10213,48.787807)"
         style="fill:#000000;fill-opacity:0.12757203;filter:url(#filter890)"
         id="g888">
        <path
           style="fill:#000000;fill-opacity:0.12757203;fill-rule:evenodd;stroke:none;stroke-width:1;stroke-linecap:butt;stroke-linejoin:miter;stroke-opacity:1"
           d="m 177.77778,215.83334 -80.555558,82.4074 255.555558,88.42593 38.75029,-40.87068 c 4.25788,-4.69448 8.46018,-13.4447 8.35283,-19.27513 L 396.29629,282.5 Z"
           id="path4150"
           inkscape:connector-curvature="0"
           sodipodi:nodetypes="ccccccc"
           transform="matrix(0.77077081,0,0,0.77077081,-337.33598,-64.706486)" />
        <path
           style="fill:#000000;fill-opacity:0.12757203;fill-rule:evenodd;stroke:none;stroke-width:0.77077079;stroke-linecap:butt;stroke-linejoin:miter;stroke-opacity:1"
           d="m -258.76367,164.31055 c 64.25456,22.23242 128.50911,44.46484 192.76367,66.69726 10.704605,-12.11221 23.269675,-22.6975 32.626953,-35.88281 4.915466,-9.97175 -0.0014,-21.20106 0.334678,-31.66405 1.365667,-7.80464 -3.023601,-10.97488 -10.290126,-11.82807 -52.133991,-15.90432 -104.267985,-31.80864 -156.401975,-47.71296 -19.67773,20.13021 -39.35547,40.26042 -59.0332,60.39063 z"
           id="path866"
           inkscape:connector-curvature="0" />
        <path
           style="fill:#000000;fill-opacity:0.12757203;fill-rule:evenodd;stroke:none;stroke-width:0.77077079;stroke-linecap:butt;stroke-linejoin:miter;stroke-opacity:1"
           d="m -255.12695,163.45117 c 62.83854,21.74284 125.67708,43.48568 188.515622,65.22852 10.661699,-12.45649 24.482587,-22.55662 32.46289,-37.08399 2.693429,-10.92369 -1.823197,-22.00405 -0.960937,-33.02148 -3.239054,-6.39155 -11.866064,-4.61259 -17.48133,-7.67536 -48.853875,-14.90314 -97.707755,-29.80627 -146.561635,-44.70941 -18.65821,19.08724 -37.31641,38.17448 -55.97461,57.26172 z"
           id="path872"
           inkscape:connector-curvature="0" />
        <path
           style="fill:#000000;fill-opacity:0.12757203;fill-rule:evenodd;stroke:none;stroke-width:0.77077079;stroke-linecap:butt;stroke-linejoin:miter;stroke-opacity:1"
           d="m -251.49023,162.5918 c 61.41731,21.2513 122.83463,42.5026 184.251949,63.7539 10.44283,-12.37841 24.919813,-21.97631 31.529297,-37.15625 1.394259,-10.18414 -1.706975,-20.39676 -1.751954,-30.52929 -5.3153,-5.0699 -13.440876,-3.58672 -19.715715,-7.06986 -47.132517,-14.3771 -94.265047,-28.75421 -141.397567,-43.13132 -17.63867,18.04428 -35.27734,36.08855 -52.91601,54.13282 z"
           id="path878"
           inkscape:connector-curvature="0" />
      </g>
      <path
         sodipodi:nodetypes="ccccsccccccc"
         inkscape:connector-curvature="0"
         id="path4198"
         d="M 31.923711,151.40704 27.003904,17.342113 c -0.04147,-4.96221 1.926333,-7.258395 6.149764,-6.149768 L 137.28972,39.891259 c 6.26366,1.792607 13.72694,-0.97619 14.75945,-11.889551 0.72147,-7.625757 3.60011,-13.61923 14.34945,-11.479565 l 66.0075,15.169425 c 4.94172,1.164855 6.02562,3.428063 5.73978,9.019659 l -1.63993,177.933263 -4.09985,4.50983 -196.443848,-65.00808 z"
         style="fill:#000000;fill-opacity:0.73000004;fill-rule:evenodd;stroke:none;stroke-width:0.77077079;stroke-linecap:butt;stroke-linejoin:miter;stroke-opacity:1" />
      <path
         d="M 31.923711,151.40704 27.003904,17.342113 c -0.04147,-4.96221 1.926333,-7.258395 6.149764,-6.149768 L 137.28972,39.891259 c 6.26366,1.792607 13.72694,-0.97619 14.75945,-11.889551 0.72147,-7.625757 3.60011,-13.61923 14.34945,-11.479565 l 66.0075,15.169425 c 4.94172,1.164855 6.02562,3.428063 5.73978,9.019659 l -1.63993,177.933263 -4.09985,4.50983 -196.443848,-65.00808 z"
         id="path4209"
         inkscape:connector-curvature="0"
         sodipodi:nodetypes="ccccsccccccc"
         style="fill:url(#linearGradient4217);fill-opacity:1;fill-rule:evenodd;stroke:none;stroke-width:0.77077079;stroke-linecap:butt;stroke-linejoin:miter;stroke-opacity:1" />
      <path
         sodipodi:nodetypes="ccccc"
         d="M 29.107592,14.969579 235.06766,65.511931 235.91003,215.45423 37.952503,143.85257 Z"
         id="path4221"
         inkscape:connector-curvature="0"
         style="fill:url(#linearGradient4229);fill-opacity:1;fill-rule:evenodd;stroke:#cecece;stroke-width:0.77077079;stroke-linecap:butt;stroke-linejoin:miter;stroke-opacity:0.70499998" />
      <path
         inkscape:connector-curvature="0"
         id="path4219"
         d="M 24.474542,21.708559 230.43461,72.250911 233.8041,217.98135 33.319453,150.59155 Z"
         style="fill:url(#linearGradient4237);fill-opacity:1;fill-rule:evenodd;stroke:#cecece;stroke-width:0.77077079;stroke-linecap:butt;stroke-linejoin:miter;stroke-opacity:0.70499998" />
      <path
         sodipodi:nodetypes="cccscccccccc"
         inkscape:connector-curvature="0"
         id="path4138"
         d="M 8.7444046,36.877113 C 9.6167788,33.377352 12.316797,29.913809 16.981856,31.061446 L 120.43481,60.785279 c 4.99573,1.261166 12.61202,0.256235 16.05773,-8.564119 3.08985,-7.909442 8.3813,-14.47471 19.6261,-12.48934 l 52.81208,10.705152 c 9.44452,2.53589 9.22385,9.003112 9.99147,14.273527 l 9.63463,158.436221 c 0.50082,5.73672 -4.43247,10.18422 -9.99147,7.85044 L 30.868387,167.83678 c -3.793857,-1.20188 -6.890645,-2.38715 -7.136768,-7.85044 z"
         style="fill:#000000;fill-opacity:0.76999996;fill-rule:evenodd;stroke:none;stroke-width:0.77077079;stroke-linecap:butt;stroke-linejoin:miter;stroke-opacity:1" />
      <path
         d="M 8.7444046,36.877113 C 9.6167788,33.377352 12.316797,29.913809 16.981856,31.061446 L 120.43481,60.785279 c 4.99573,1.261166 12.61202,0.256235 16.05773,-8.564119 3.08985,-7.909442 8.3813,-14.47471 19.6261,-12.48934 l 52.81208,10.705152 c 9.44452,2.53589 9.22385,9.003112 9.99147,14.273527 l 9.63463,158.436221 c 0.50082,5.73672 -4.43247,10.18422 -9.99147,7.85044 L 31.136761,168.85067 c -4.722273,-3.4223 -8.128602,-7.01445 -8.632556,-13.84742 C 20.224751,124.09697 11.401175,65.991481 8.7444046,36.877113 Z"
         id="path4140"
         inkscape:connector-curvature="0"
         sodipodi:nodetypes="cccsccccccsc"
         style="fill:url(#linearGradient4148);fill-opacity:1;fill-rule:evenodd;stroke:none;stroke-width:0.77077079;stroke-linecap:butt;stroke-linejoin:miter;stroke-opacity:1" />
      <path
         id="path4164"
         d="m 19.607017,26.913071 c -2.88017,-0.04575 -4.833658,1.830128 -5.905731,4.126334 0.959671,-0.255062 2.049634,-0.280169 3.280285,0.02258 L 120.43498,60.784832 c 4.23816,1.069922 10.36086,0.506959 14.22463,-5.073237 -3.31914,1.838929 -7.06507,1.875224 -9.94324,1.148634 L 21.264475,27.135873 c -0.583135,-0.143455 -1.135469,-0.21451 -1.657458,-0.222802 z m 136.847943,8.535685 c -5.47778,0.02215 -9.24401,2.429575 -11.95748,5.964441 2.94992,-1.786966 6.72033,-2.546938 11.62177,-1.681544 l 52.81135,10.70498 c 9.44453,2.53589 9.2238,9.003905 9.99142,14.274321 l 9.63464,158.435546 c 0.13511,1.54767 -0.13551,2.99461 -0.69701,4.24677 3.15723,-0.99293 5.31942,-4.2823 4.9799,-8.17137 L 223.20492,60.784832 C 222.4373,55.514417 222.65802,49.047919 213.2135,46.51203 L 160.40065,35.807044 c -1.40561,-0.248171 -2.7188,-0.363249 -3.94569,-0.358288 z"
         inkscape:connector-curvature="0"
         style="fill:#848484;fill-opacity:1;fill-rule:evenodd;stroke:none;stroke-width:0.77077079;stroke-linecap:butt;stroke-linejoin:miter;stroke-opacity:1" />
      <path
         sodipodi:nodetypes="ccccc"
         inkscape:connector-curvature="0"
         d="m 208.9306,50.436633 c 9.44453,2.53589 9.2238,9.003905 9.99142,14.274321 1.68339,-1.586463 2.41577,-2.091371 4.2829,-3.926122 -0.76762,-5.270415 -0.5469,-11.736913 -9.99142,-14.272802 -1.84816,1.763315 -2.30646,2.157202 -4.2829,3.924603 z"
         id="path4169"
         style="fill:url(#linearGradient4177);fill-opacity:1;fill-rule:evenodd;stroke:none;stroke-width:0.77077079;stroke-linecap:butt;stroke-linejoin:miter;stroke-opacity:1" />
      <path
         id="path4200"
         d="m 36.261385,7.3156224 c -2.060871,0.08655 -3.297411,1.389248 -3.777077,3.7289046 0.217349,0.04036 0.439123,0.08695 0.669908,0.14753 L 137.28957,39.891226 c 4.17106,1.193724 8.87183,0.36004 11.85361,-3.549761 -2.13645,0.618155 -4.44087,0.560862 -6.60575,-0.05871 L 38.402078,7.5850914 C 37.610188,7.3772234 36.8963,7.2889584 36.261385,7.3156224 Z M 167.97287,12.480689 c -4.16112,-0.09755 -6.73394,1.427983 -8.33547,3.880952 1.80879,-0.399933 4.02936,-0.382617 6.76081,0.161079 l 66.00778,15.168528 c 4.94171,1.164855 6.02598,3.428831 5.74014,9.020428 l -1.6409,177.932144 -0.36582,0.40194 1.51445,0.5013 4.09924,-4.51021 1.64089,-177.933646 c 0.28584,-5.591596 -0.79841,-7.854067 -5.74013,-9.018922 L 171.64607,12.914248 c -1.34366,-0.267458 -2.56433,-0.407564 -3.6732,-0.433559 z"
         inkscape:connector-curvature="0"
         style="fill:#858585;fill-opacity:1;fill-rule:evenodd;stroke:none;stroke-width:0.77077079;stroke-linecap:butt;stroke-linejoin:miter;stroke-opacity:1" />
      <path
         id="path4205"
         d="m 229.89414,31.062402 c 9.55917,2.210105 8.25999,3.841895 8.2496,14.234276 1.6834,-1.586462 3.27666,-2.892201 5.14379,-4.726951 0.37357,-9.354662 0.77448,-11.556725 -9.17056,-13.291783 -1.84817,1.763316 -2.24639,2.017057 -4.22283,3.784458 z"
         inkscape:connector-curvature="0"
         sodipodi:nodetypes="ccccc"
         style="fill:url(#linearGradient4207);fill-opacity:1;fill-rule:evenodd;stroke:none;stroke-width:0.77077079;stroke-linecap:butt;stroke-linejoin:miter;stroke-opacity:1" />
      <path
         style="fill:none;fill-opacity:1;stroke:url(#linearGradient857);stroke-width:2.0999999;stroke-linecap:butt;stroke-linejoin:miter;stroke-miterlimit:4;stroke-dasharray:none;stroke-opacity:1"
         d="m 225.72675,196.33524 2.0574,24.39495 c 0.0295,8.34567 -2.0873,11.73805 -14.10792,7.34788 L 31.742824,167.82549 c -6.229286,-1.47576 -8.206505,-5.92013 -8.229621,-11.16877 l -2.057406,-24.10103"
         id="path858"
         inkscape:connector-curvature="0"
         sodipodi:nodetypes="cccccc" />
      <path
         style="fill:none;fill-opacity:1;fill-rule:evenodd;stroke:url(#linearGradient860);stroke-width:1;stroke-linecap:butt;stroke-linejoin:miter;stroke-miterlimit:4;stroke-dasharray:none;stroke-opacity:1"
         sodipodi:nodetypes="cccc"
         inkscape:connector-curvature="0"
         id="path851"
         d="m 156.11864,39.73182 52.81208,10.705152 c 9.44452,2.53589 9.22385,9.003112 9.99147,14.273527 l 4.07025,66.933111" />
      <path
         d="m 176.39878,18.569938 52.51816,12.174727 c 11.79584,2.53589 9.22385,9.003112 9.99147,14.273527 l -2.98371,67.814858"
         id="path862"
         inkscape:connector-curvature="0"
         sodipodi:nodetypes="cccc"
         style="fill:none;fill-opacity:1;fill-rule:evenodd;stroke:url(#linearGradient864);stroke-width:1;stroke-linecap:butt;stroke-linejoin:miter;stroke-miterlimit:4;stroke-dasharray:none;stroke-opacity:1" />
    </g>
    <g
       id="g1295"
       transform="matrix(0.20534313,0,0,0.20534313,0.24295997,243.93435)">
      <g
         transform="matrix(0.31389075,0,0,0.31389075,-95.497694,-23.893751)"
         id="g4741">
        <path
           id="path4707"
           d="M 721.31509,122.54048 A 372.00317,372.00317 0 0 0 349.31314,494.54439 372.00317,372.00317 0 0 0 721.31509,866.54829 372.00317,372.00317 0 0 0 1093.319,494.54439 372.00317,372.00317 0 0 0 721.31509,122.54048 Z m -207.53515,77.91016 a 24.80315,24.80315 0 0 1 24.80273,24.80273 24.80315,24.80315 0 0 1 -24.80273,24.80274 24.80315,24.80315 0 0 1 -24.80274,-24.80274 24.80315,24.80315 0 0 1 24.80274,-24.80273 z m 497.07416,92.125 a 24.80315,24.80315 0 0 1 24.8047,24.80273 24.80315,24.80315 0 0 1 -24.8047,24.80469 24.80315,24.80315 0 0 1 -24.80267,-24.80469 24.80315,24.80315 0 0 1 24.80267,-24.80273 z M 450.00064,673.22798 a 24.80315,24.80315 0 0 1 24.80273,24.80274 24.80315,24.80315 0 0 1 -24.80273,24.80468 24.80315,24.80315 0 0 1 -24.80469,-24.80468 24.80315,24.80315 0 0 1 24.80469,-24.80274 z m 493.02539,51.63086 a 24.80315,24.80315 0 0 1 24.80274,24.80273 24.80315,24.80315 0 0 1 -24.80274,24.80469 24.80315,24.80315 0 0 1 -24.80273,-24.80469 24.80315,24.80315 0 0 1 24.80273,-24.80273 z"
           style="opacity:1;fill:#0a0a0a;fill-opacity:1;stroke:none;stroke-width:4.60300016;stroke-linecap:square;stroke-linejoin:miter;stroke-miterlimit:4;stroke-dasharray:none;stroke-opacity:1;filter:url(#filter4717)"
           inkscape:connector-curvature="0" />
        <path
           inkscape:connector-curvature="0"
           style="opacity:1;fill:url(#linearGradient4679);fill-opacity:1;stroke:url(#linearGradient4705);stroke-width:4.60300016;stroke-linecap:square;stroke-linejoin:miter;stroke-miterlimit:4;stroke-dasharray:none;stroke-opacity:1"
           d="M 723.33984,90.144531 A 372.00317,372.00317 0 0 0 351.33789,462.14844 372.00317,372.00317 0 0 0 723.33984,834.15234 372.00317,372.00317 0 0 0 1095.3438,462.14844 372.00317,372.00317 0 0 0 723.33984,90.144531 Z M 515.80469,168.05469 a 24.80315,24.80315 0 0 1 24.80273,24.80273 24.80315,24.80315 0 0 1 -24.80273,24.80274 24.80315,24.80315 0 0 1 -24.80274,-24.80274 24.80315,24.80315 0 0 1 24.80274,-24.80273 z m 497.07421,92.125 a 24.80315,24.80315 0 0 1 24.8047,24.80273 24.80315,24.80315 0 0 1 -24.8047,24.80469 24.80315,24.80315 0 0 1 -24.80273,-24.80469 24.80315,24.80315 0 0 1 24.80273,-24.80273 z M 452.02539,640.83203 a 24.80315,24.80315 0 0 1 24.80273,24.80274 24.80315,24.80315 0 0 1 -24.80273,24.80468 24.80315,24.80315 0 0 1 -24.80469,-24.80468 24.80315,24.80315 0 0 1 24.80469,-24.80274 z m 493.02539,51.63086 a 24.80315,24.80315 0 0 1 24.80274,24.80273 24.80315,24.80315 0 0 1 -24.80274,24.80469 24.80315,24.80315 0 0 1 -24.80273,-24.80469 24.80315,24.80315 0 0 1 24.80273,-24.80273 z"
           id="circle4677" />
        <circle
           r="306.48969"
           cy="462.1485"
           cx="723.34082"
           id="circle4673"
           style="opacity:1;fill:url(#linearGradient4675);fill-opacity:1;stroke:#818181;stroke-width:2.72098565;stroke-linecap:square;stroke-linejoin:miter;stroke-miterlimit:4;stroke-dasharray:none;stroke-opacity:1" />
        <circle
           style="opacity:1;fill:url(#radialGradient4665);fill-opacity:1;stroke:#000000;stroke-width:2.2019999;stroke-linecap:square;stroke-linejoin:miter;stroke-miterlimit:4;stroke-dasharray:none;stroke-opacity:0.43137255"
           id="path4657"
           cx="723.34082"
           cy="462.1485"
           r="287.00787" />
        <circle
           style="opacity:1;fill:url(#linearGradient4645);fill-opacity:1;stroke:#ffffff;stroke-width:2.0677793;stroke-linecap:square;stroke-linejoin:miter;stroke-miterlimit:4;stroke-dasharray:none;stroke-opacity:0.43137255"
           id="path934"
           cx="723.34082"
           cy="462.1485"
           r="232.91301" />
        <circle
           r="209.43396"
           cy="462.1485"
           cx="723.34082"
           id="circle842"
           style="opacity:1;fill:url(#linearGradient900);fill-opacity:1;stroke:none;stroke-width:2.2019999;stroke-linecap:square;stroke-linejoin:miter;stroke-miterlimit:4;stroke-dasharray:none;stroke-opacity:1" />
        <circle
           style="opacity:1;fill:#000000;fill-opacity:1;stroke:url(#linearGradient1297);stroke-width:3.79999995;stroke-linecap:round;stroke-linejoin:round;stroke-miterlimit:4;stroke-dasharray:none;stroke-opacity:1"
           id="path817"
           cx="727.89648"
           cy="462.65466"
           r="103.50877" />
        <g
           id="g1035"
           style="fill:#ffffff;fill-opacity:0.0357143;filter:url(#filter1045)"
           transform="translate(-3.6398686,2.8749008)">
          <path
             sodipodi:nodetypes="sszsszs"
             inkscape:connector-curvature="0"
             id="path839"
             d="m 664.98676,394.53823 c 20.9705,-22.93046 63.64573,0.18859 36.84211,27.19298 -37.88592,38.1697 5.19056,79.83761 32.31545,77.19299 27.12489,-2.64462 63.2097,-34.74356 17.68455,-80.70176 -32.56676,-32.87655 15.53328,-49.33436 36.8421,-25.43859 56.71046,63.59527 20.54956,141.23921 -52.36677,145.20854 -72.91633,3.96933 -116.60807,-93.93054 -71.31744,-143.45416 z"
             style="fill:#ffffff;fill-opacity:0.0357143;stroke:none;stroke-width:1px;stroke-linecap:butt;stroke-linejoin:miter;stroke-opacity:1" />
          <path
             inkscape:connector-curvature="0"
             id="path999"
             d="m 761.60742,383.47461 c -8.82565,-0.20533 -20.27933,5.82678 -18.64844,16.08398 2.56227,13.56422 16.08599,20.73339 22.66602,32.12305 9.49561,13.2665 13.95943,32.08689 4.94922,46.75781 -9.08196,14.81067 -27.35329,24.61865 -44.79297,22.06055 -23.59622,-4.75987 -44.3685,-28.38145 -40.33203,-53.19336 1.7618,-12.51483 10.31741,-22.27001 18.56836,-31.16602 6.27245,-7.12356 5.94174,-19.42527 -2.92383,-24.48046 -11.94081,-8.45378 -29.69904,-4.3715 -37.5957,7.70117 -20.3676,25.48592 -18.30079,62.68463 -3.29102,90.23242 13.69345,26.64533 41.91739,47.35875 72.69922,46.50977 29.92669,0.0268 61.11535,-16.31601 74.13672,-44.11329 14.1322,-28.31952 6.91537,-62.96228 -11.52344,-87.50195 -6.71667,-10.08487 -16.12509,-19.92825 -28.98047,-20.83008 -1.63691,-0.18137 -3.28571,-0.24839 -4.93164,-0.18359 z"
             style="fill:#ffffff;fill-opacity:0.0357143;stroke:none;stroke-width:1px;stroke-linecap:butt;stroke-linejoin:miter;stroke-opacity:1" />
          <path
             inkscape:connector-curvature="0"
             id="path1003"
             d="m 761.64453,385.47461 c -8.39144,-0.66698 -19.84938,6.55248 -16.1582,16.00195 4.60565,13.14109 17.90691,20.23327 24.08521,32.55835 9.60714,14.94047 11.56947,36.47548 -0.85452,50.46503 -12.71893,16.08047 -36.93336,24.02625 -55.63694,13.75201 -19.96743,-9.46038 -34.66525,-32.58598 -28.89649,-54.9082 2.88869,-12.74246 12.98398,-21.76457 20.48243,-31.75 4.49221,-7.94106 -0.36833,-17.60042 -8.51368,-20.44727 -12.00707,-5.38489 -26.61563,0.67136 -32.89257,11.83008 -15.03046,20.86163 -15.71765,48.88876 -7.21485,72.41797 10.49965,30.48923 38.15005,56.57478 71.25977,58.62305 32.442,2.13316 67.12281,-15.67021 79.58083,-46.45203 11.92887,-27.81313 3.6241,-60.83232 -14.29958,-83.82336 -6.97219,-10.27756 -17.70902,-19.37823 -30.94141,-18.26758 z"
             style="fill:#ffffff;fill-opacity:0.0357143;stroke:none;stroke-width:1px;stroke-linecap:butt;stroke-linejoin:miter;stroke-opacity:1" />
          <path
             inkscape:connector-curvature="0"
             id="path1007"
             d="m 762.94141,387.40039 c -7.26545,-0.99642 -18.6792,4.74632 -15.57813,13.38672 5.32783,13.91251 19.74657,21.5557 25.6875,35.18945 9.16644,16.072 9.042,38.55934 -4.72266,52.08203 -14.24811,16.19266 -40.18098,22.50085 -59,10.51563 -20.06191,-10.81177 -33.72677,-35.61375 -26.42382,-58.19531 3.58723,-12.52743 14.3183,-20.98342 20.88086,-31.67774 3.43094,-10.72342 -8.51714,-18.41018 -18.05078,-17.52539 -11.94481,0.18708 -20.21762,9.99678 -25.14454,19.84961 -15.14683,29.15231 -7.59915,65.57101 12.17711,90.63384 16.01137,20.81648 42.60681,33.79157 69.09799,29.99176 29.94479,-3.13567 58.79593,-23.78975 66.29522,-53.91271 7.56808,-29.36766 -4.36748,-61.2039 -25.39844,-82.33594 -5.39172,-4.8715 -12.40848,-8.34187 -19.82031,-8.00195 z"
             style="fill:#ffffff;fill-opacity:0.0357143;stroke:none;stroke-width:1px;stroke-linecap:butt;stroke-linejoin:miter;stroke-opacity:1" />
          <path
             inkscape:connector-curvature="0"
             id="path1011"
             d="m 760.8457,389.29492 c -6.01057,-0.14991 -14.76943,5.35434 -11.13281,11.96094 6.33294,13.68911 20.69089,21.66279 26.36133,36.14258 8.94677,17.42051 6.8512,41.0294 -8.42969,54.30468 -15.57707,15.79568 -42.47879,20.53846 -61.2168,7.5254 -20.58202,-12.00447 -33.58882,-38.76237 -24.63476,-61.875 4.07782,-11.97223 15.20098,-19.79283 20.47656,-30.89258 1.13655,-10.58037 -12.76845,-15.54688 -21.34375,-12.59766 -14.84412,5.12403 -21.37479,21.57732 -24.79201,35.64023 -7.90652,39.42623 15.94925,84.10084 54.76662,97.18399 36.04995,12.09931 80.86201,-7.70383 93.72656,-44.09375 10.52912,-30.771 -1.84213,-65.82465 -25.21679,-87.39063 -5.21828,-4.25939 -11.87241,-6.27512 -18.56446,-5.9082 z"
             style="fill:#ffffff;fill-opacity:0.0357143;stroke:none;stroke-width:1px;stroke-linecap:butt;stroke-linejoin:miter;stroke-opacity:1" />
          <path
             inkscape:connector-curvature="0"
             id="path1015"
             d="m 760.91016,391.29297 c -5.198,-0.39263 -12.91344,4.88104 -8.78125,10.35547 7.43804,13.61068 21.82703,22.33743 26.9707,37.45312 8.51729,18.79018 4.32742,43.33771 -12.4082,56.25977 -16.93123,15.27562 -44.61986,18.37961 -63.26758,4.37109 -20.9911,-13.25786 -33.17518,-41.86895 -22.61133,-65.39453 4.44438,-11.05692 15.28723,-18.31932 19.51953,-29.2793 -1.05792,-10.18623 -15.5931,-12.50402 -22.97656,-7.39843 -13.31241,8.24918 -18.34623,24.83528 -20.34766,39.51367 -4.11537,40.07203 23.85637,83.06022 64.58203,90.11914 33.37968,5.59538 70.70833,-13.77553 81.61524,-46.77149 9.46856,-30.44664 -3.07591,-64.95358 -26.94531,-85.1582 -4.49075,-2.993 -9.97543,-4.37726 -15.34961,-4.07031 z"
             style="fill:#ffffff;fill-opacity:0.0357143;stroke:none;stroke-width:1px;stroke-linecap:butt;stroke-linejoin:miter;stroke-opacity:1" />
          <path
             inkscape:connector-curvature="0"
             id="path1019"
             d="m 760.98438,393.29102 c -4.44172,-0.63084 -10.84633,4.31531 -6.42969,8.58007 8.43791,13.585 22.87671,23.2166 27.53515,39.21875 7.88027,20.16719 1.52594,45.4451 -16.62695,57.92383 -18.27838,14.62586 -46.61531,16.04408 -65.13867,1.0625 -20.91899,-14.33484 -32.2025,-43.97121 -20.88867,-67.60937 4.41211,-10.59653 15.37869,-17.49144 18.70507,-28.36328 -2.97174,-9.08448 -16.53917,-8.73651 -22.53515,-2.77735 -14.05391,12.02163 -17.73765,32.43383 -16.74981,49.89146 2.60154,35.94458 30.59305,71.06532 67.66778,74.7101 33.83419,3.50798 70.71286,-19.30639 76.72666,-53.99665 4.92373,-27.95127 -7.09942,-57.52853 -28.91807,-75.42327 -3.98542,-2.39991 -8.71305,-3.4865 -13.34765,-3.21679 z"
             style="fill:#ffffff;fill-opacity:0.0357143;stroke:none;stroke-width:1px;stroke-linecap:butt;stroke-linejoin:miter;stroke-opacity:1" />
          <path
             inkscape:connector-curvature="0"
             id="path1023"
             d="m 759.83398,395.25195 c -3.74368,0.0211 -6.5809,4.27702 -2.7871,6.80078 9.4614,13.62249 23.92229,24.45667 27.96874,41.31836 7.02905,21.5199 -1.50915,47.33766 -21.0625,59.26368 -19.58211,13.8423 -48.42674,13.56394 -66.77929,-2.36133 -21.38694,-15.84953 -31.59774,-47.66447 -18.07031,-71.69141 4.64597,-8.86904 14.13589,-15.09759 16.75195,-24.81836 -4.48723,-7.83632 -16.62501,-4.98919 -21.35352,1.32813 -14.02033,15.06478 -15.9794,37.93321 -11.95507,57.39062 6.95681,32.04507 34.81763,60.98526 68.79296,61.76563 32.15984,1.19632 65.96535,-21.82873 70.30116,-54.94648 3.75094,-26.72971 -8.08833,-55.53457 -29.76209,-71.85821 -3.72091,-1.92797 -7.92439,-2.33116 -12.04493,-2.19141 z"
             style="fill:#ffffff;fill-opacity:0.0357143;stroke:none;stroke-width:1px;stroke-linecap:butt;stroke-linejoin:miter;stroke-opacity:1" />
        </g>
        <path
           style="fill:url(#linearGradient912);fill-opacity:1;stroke:none;stroke-width:1px;stroke-linecap:butt;stroke-linejoin:miter;stroke-opacity:1;filter:url(#filter886)"
           d="m 538.3851,376.78119 97.16981,38.67925 c -16.67789,37.23046 -22.02396,76.72728 23.58491,126.41509 l -91.50944,61.32076 C 509.89934,532.08665 513.56368,455.3956 538.3851,376.78119 Z"
           id="path852"
           inkscape:connector-curvature="0"
           sodipodi:nodetypes="ccccc" />
        <path
           sodipodi:nodetypes="ccccc"
           inkscape:connector-curvature="0"
           id="path890"
           d="m 542.45283,368.86792 97.16981,38.67925 c -16.67789,37.23046 -22.02396,76.72728 23.58491,126.41509 l -91.50944,61.32076 c -57.73104,-71.10964 -54.0667,-147.80069 -29.24528,-226.4151 z"
           style="fill:url(#linearGradient932);fill-opacity:1;stroke:none;stroke-width:1px;stroke-linecap:butt;stroke-linejoin:miter;stroke-opacity:1;filter:url(#filter886)"
           transform="matrix(-1,0,0,1,1464.9226,1.8390305)" />
        <path
           transform="matrix(-0.27277272,-0.9620785,-0.9620785,0.27277272,1368.7432,1037.4856)"
           style="fill:url(#linearGradient918);fill-opacity:1;stroke:none;stroke-width:1px;stroke-linecap:butt;stroke-linejoin:miter;stroke-opacity:1;filter:url(#filter886)"
           d="m 536.88508,371.49879 102.73756,36.04838 c -16.67789,37.23046 -22.02396,76.72728 23.58491,126.41509 l -91.50944,61.32076 C 513.96707,524.17338 512.06366,450.1132 536.88508,371.49879 Z"
           id="path914"
           inkscape:connector-curvature="0"
           sodipodi:nodetypes="ccccc" />
        <circle
           r="103.50877"
           cy="462.65466"
           cx="727.89648"
           id="circle4647"
           style="opacity:1;fill:url(#radialGradient4655);fill-opacity:1;stroke:url(#linearGradient837);stroke-width:3.79999995;stroke-linecap:round;stroke-linejoin:round;stroke-miterlimit:4;stroke-dasharray:none;stroke-opacity:1" />
      </g>
      <path
         sodipodi:nodetypes="cccccccccccccc"
         inkscape:connector-curvature="0"
         id="path952"
         d="m 47.499842,168.29048 c -7.74086,-13.86101 -12.15241,-29.83441 -12.15261,-46.83819 -4.4e-4,-53.132776 43.0723,-96.205513 96.205078,-96.20507 31.66105,-2.63e-4 59.74999,15.293875 77.28167,38.897273 l 17.3153,-11.162937 C 204.93065,23.716698 170.4643,4.6830248 131.55231,4.6827669 67.062772,4.6831922 14.784082,56.962755 14.784732,121.45229 c 1.3e-4,19.9458 5.00122,38.72355 13.81779,55.14775 8.84163,-3.29394 12.39028,-5.09645 18.89732,-8.30956 z M 66.407782,29.137845 c 4.30031,-9.01e-4 7.78693,3.484844 7.78711,7.785156 -1.8e-4,4.300312 -3.4868,7.786057 -7.78711,7.785156 -4.29955,-1.76e-4 -7.78498,-3.485605 -7.78516,-7.785156 1.8e-4,-4.299551 3.48561,-7.78498 7.78516,-7.785156 z"
         style="opacity:1;fill:url(#linearGradient1050);fill-opacity:1;stroke:none;stroke-width:1.44483912;stroke-linecap:square;stroke-linejoin:miter;stroke-miterlimit:4;stroke-dasharray:none;stroke-opacity:1" />
      <g
         transform="matrix(1.046668,0,0,1.046668,30.736785,1.757836)"
         id="g1118">
        <g
           id="g982"
           transform="translate(236.18616,14.472191)"
           style="filter:url(#filter988)">
          <path
             inkscape:connector-curvature="0"
             id="rect896"
             d="m -69.824182,31.163357 c -3.70083,0 -7.14356,2.51144 -7.71706,5.629523 l -26.077908,141.78468 a 22.963644,43.682317 73.359082 0 0 -36.77225,0.0148 22.963644,43.682317 73.359082 0 0 -36.84195,34.1836 22.963644,43.682317 73.359082 0 0 47.24868,10.61563 22.963644,43.682317 73.359082 0 0 37.083228,-30.45143 c 0.001,-0.007 0.005,-0.0153 0.006,-0.023 l 14.03934,-76.33015 c 0.50468,0.24529 1.01414,0.49112 1.50728,0.73557 l 1.08267,0.5381 c 6.89954,3.4716 12.62575,6.8726 17.27021,10.36056 7.85435,6.09839 12.58714,12.37387 14.51478,19.64986 -1.45039,3.34072 -3.09644,6.85519 -4.94973,10.57942 0.21596,-0.32216 0.40837,-0.62995 0.61994,-0.94949 -0.0819,0.16913 -0.16056,0.33523 -0.2433,0.50518 -0.10104,0.14646 -0.19724,0.29092 -0.29926,0.43773 0.0573,-0.0563 0.11298,-0.11465 0.17014,-0.17114 -0.11972,0.24536 -0.22918,0.48024 -0.35058,0.72735 2.11595,-2.0012 4.08216,-4.082 5.92668,-6.21701 1.00336,10.83994 -3.33397,23.99781 -12.17291,41.75985 0.21706,-0.32381 0.41018,-0.63327 0.6228,-0.95443 -0.0827,0.17078 -0.16261,0.3385 -0.24616,0.51013 -0.10103,0.14641 -0.19727,0.29095 -0.29926,0.43772 0.0573,-0.0563 0.11298,-0.11464 0.17014,-0.17113 -0.11972,0.24532 -0.22918,0.48027 -0.35057,0.72734 8.47868,-8.0189 14.81441,-17.19377 18.59354,-26.89698 0.16929,-0.41638 0.331,-0.83558 0.4907,-1.25557 0.0315,-0.0863 0.0652,-0.17203 0.0963,-0.25836 2.21747,-5.91544 3.47297,-12.18319 3.42407,-18.75467 0.002,-0.2093 -0.0104,-0.4192 -0.0113,-0.6286 -0.008,-0.39619 -0.0117,-0.79141 -0.0292,-1.18975 -0.0645,-2.42716 -0.2857,-4.85749 -0.68939,-7.28499 1.16444,-2.21092 2.18676,-4.45938 3.07309,-6.73699 0.16813,-0.41394 0.3305,-0.82984 0.48919,-1.24735 0.03,-0.0824 0.0626,-0.16435 0.0923,-0.24684 2.21914,-5.91911 3.47283,-12.19186 3.42259,-18.76782 0.001,-0.16165 -0.008,-0.32374 -0.008,-0.48544 -0.008,-0.44742 -0.012,-0.89428 -0.032,-1.34445 -0.4442,-16.455705 -8.51719,-33.110841 -26.20401,-47.335053 -7.58036,-6.096323 -10.61414,-12.642033 -11.97037,-17.905539 -0.0898,-0.426306 -0.18021,-0.849969 -0.26318,-1.276969 l 1.22944,-6.684399 c 0.5735,-3.118083 -1.94344,-5.629523 -5.64427,-5.629523 z m -1.62701,49.846217 c 0.14882,0.07332 0.30385,0.147254 0.45163,0.220508 l 1.08267,0.538103 c 6.9142,3.478981 12.64948,6.88785 17.29917,10.3836 12.62129,9.810075 17.17986,20.070025 14.96295,34.246135 -4.12689,-9.71102 -11.26243,-19.11615 -21.86835,-27.645725 -7.50153,-6.03293 -10.55107,-12.507573 -11.92807,-17.742621 z"
             style="opacity:1;fill:#000000;fill-opacity:0.14864867;stroke:none;stroke-width:0.04969447;stroke-linecap:round;stroke-linejoin:miter;stroke-miterlimit:4;stroke-dasharray:none;stroke-dashoffset:0;stroke-opacity:1" />
          <path
             inkscape:connector-curvature="0"
             id="path955"
             d="m -70.476562,31.691406 c -4.207383,0.182434 -7.264821,4.057403 -7.11883,8.157544 -8.546681,46.465649 -17.09054,92.93182 -25.638988,139.39714 -14.92235,-5.6759 -31.70581,-2.72686 -46.15304,2.9966 -10.78166,4.65221 -22.10851,11.41218 -26.72764,22.75482 -3.02232,6.87839 1.46324,14.69179 8.11076,17.29475 13.28919,5.84983 28.62363,3.58833 42.04141,-0.66921 12.16675,-4.37941 24.88497,-11.08236 31.016132,-23.02775 2.388962,-6.74529 2.770197,-14.0722 4.371618,-21.0525 3.782168,-20.5644 7.564652,-41.12875 11.346624,-61.69319 12.448109,6.20039 25.981924,13.17016 32.892578,25.875 1.19476,2.8009 3.507959,6.03844 1.185547,8.89453 -0.479425,2.09392 -3.350179,5.64226 -2.68801,5.57746 -1.237593,1.89684 1.144684,-0.73593 2.031949,-1.70488 1.35066,-1.41184 3.166748,-4.41084 2.777155,-0.70852 0.538845,13.52335 -5.356325,26.20682 -10.931641,38.1836 -0.674945,-0.40575 -1.071751,2.46087 0.743691,-0.22714 12.842626,-13.28162 21.606734,-31.88314 19.028597,-50.63061 -1.042918,-3.36751 2.031566,-6.04394 2.790212,-9.21061 7.562598,-17.77046 3.964426,-39.228777 -7.870643,-54.327481 -4.942797,-7.042217 -11.826178,-12.259376 -18.072716,-18.031897 -4.280197,-4.553382 -7.901176,-10.364644 -8.468163,-16.644098 0.177881,-3.273878 2.981276,-8.012269 -0.717384,-10.348089 -1.164305,-0.740124 -2.592022,-0.96318 -3.949218,-0.855469 z m -0.75586,48.869141 c 12.429398,6.286069 26.018918,13.638209 32.121094,26.884763 2.932402,6.49503 2.942063,13.87107 1.703125,20.77149 -4.914331,-12.65431 -14.332626,-22.81469 -24.815326,-31.147181 -4.933267,-4.508798 -8.491218,-10.482346 -10.010846,-16.999307 0.333984,0.163412 0.667969,0.326823 1.001953,0.490235 z"
             style="opacity:1;fill:#000000;fill-opacity:0.14864867;stroke:none;stroke-width:0.04969447;stroke-linecap:round;stroke-linejoin:miter;stroke-miterlimit:4;stroke-dasharray:none;stroke-dashoffset:0;stroke-opacity:1" />
          <path
             inkscape:connector-curvature="0"
             id="path960"
             d="m -70.451172,32.191406 c -4.179916,0.112663 -6.952717,4.337793 -6.74279,8.239799 -8.552002,46.495566 -17.103047,92.991305 -25.655648,139.486765 -16.75458,-6.41461 -35.54804,-2.47727 -51.27403,5.07277 -9.59174,4.72772 -19.37967,11.8972 -22.29238,22.71824 -1.25064,7.2574 4.8347,13.69563 11.57688,15.28016 14.72963,4.82771 30.82794,1.53903 44.85847,-4.26019 10.13888,-4.40363 20.578748,-11.05375 24.984576,-21.56293 2.548982,-9.37545 3.471517,-19.09125 5.561345,-28.58205 3.278631,-17.82612 6.555262,-35.65261 9.83514,-53.4785 13.016,6.48544 27.337157,13.7022 34.134827,27.32144 1.482667,2.62964 2.756436,6.11537 0.665954,8.77621 -0.417746,1.19424 -1.100978,2.26978 -1.742188,3.35157 1.126926,-0.71711 2.288576,-3.99264 3.88086,-2.64258 1.189125,13.55974 -4.460205,26.54995 -10.072266,38.58789 12.64651,-13.37377 20.976195,-32.33004 17.832031,-50.95312 0.477173,-3.71894 3.158396,-6.70429 4.023438,-10.34376 6.723836,-18.52463 1.539671,-40.029296 -11.367363,-54.64888 -6.960366,-8.63886 -17.860206,-13.999352 -22.22834,-24.646037 -1.693641,-3.672178 -2.420359,-7.849217 -0.89607,-11.716053 1.208638,-3.483837 -1.289809,-6.510421 -5.082446,-6.000744 z m -1.5625,47.429688 c 13.037912,6.510786 27.331645,14.094216 33.560584,28.083586 3.028449,7.03088 2.688386,14.982 1.246057,22.35001 -4.820825,-13.67097 -15.169794,-24.56338 -26.283203,-33.498049 -4.79743,-4.700139 -8.103129,-10.846875 -9.494141,-17.410157 0.323568,0.158204 0.647135,0.316407 0.970703,0.47461 z"
             style="opacity:1;fill:#000000;fill-opacity:0.14864867;stroke:none;stroke-width:0.04969447;stroke-linecap:round;stroke-linejoin:miter;stroke-miterlimit:4;stroke-dasharray:none;stroke-dashoffset:0;stroke-opacity:1" />
          <path
             inkscape:connector-curvature="0"
             id="path964"
             d="m -70.046875,32.652344 c -4.386466,-0.08721 -6.984748,4.484943 -6.744746,8.360891 -8.557628,46.526859 -17.116163,93.053555 -25.673219,139.580515 -18.16041,-7.06674 -38.47071,-2.21125 -55.01368,6.72656 -8.38979,4.73872 -16.86837,11.82873 -18.58789,21.75781 -0.31479,7.35951 6.50649,12.80759 13.22623,13.99008 16.82833,4.49268 34.66947,-0.33641 49.69035,-8.25221 9.02874,-4.9999 17.751781,-12.72768 19.048186,-23.55558 4.618352,-25.64703 9.458344,-51.25778 14.130941,-76.89908 13.31409,6.59764 27.980004,13.9402 34.943359,27.82617 1.600249,2.66365 2.737227,6.46019 0.765625,9.14844 1.544628,-0.93147 2.656139,0.8595 2.214175,2.32378 0.647732,11.84254 -4.246448,23.8497 -8.741518,33.93794 11.314369,-13.13174 18.292919,-30.76941 15.396484,-48.13282 0.915399,-4.7637 4.156758,-8.73415 5.04438,-13.51318 5.872681,-20.12806 -2.086317,-42.830659 -17.602554,-56.630686 -7.586679,-6.711876 -16.746945,-13.703698 -18.578545,-24.391286 -0.840418,-3.144577 0.851925,-6.106111 0.914063,-9.154297 -0.295189,-2.093874 -2.419969,-3.360178 -4.431641,-3.123047 z m -2.71875,46.044922 c 13.357081,6.607431 28.011575,14.20813 34.583407,28.407054 3.545094,7.77399 2.842319,16.6838 1.135343,24.83123 -4.695211,-14.74256 -15.788961,-26.13904 -27.501658,-35.742582 -4.750037,-4.906929 -7.863889,-11.272514 -9.160451,-17.95664 0.314453,0.153646 0.628906,0.307292 0.943359,0.460938 z"
             style="opacity:1;fill:#000000;fill-opacity:0.14864867;stroke:none;stroke-width:0.04969447;stroke-linecap:round;stroke-linejoin:miter;stroke-miterlimit:4;stroke-dasharray:none;stroke-dashoffset:0;stroke-opacity:1" />
          <path
             inkscape:connector-curvature="0"
             id="path968"
             d="m -70.011719,33.150391 c -4.345147,-0.113841 -6.599953,4.663529 -6.37756,8.444875 -8.564535,46.559338 -17.126797,93.119094 -25.692751,139.678174 -18.99658,-7.56428 -40.52776,-2.14984 -57.56617,7.92232 -7.47692,4.68443 -15.33653,11.7744 -15.89477,21.2144 0.64309,7.20303 7.80962,11.62626 14.4043,12.56836 17.76617,3.9469 36.27489,-1.64045 51.49631,-10.86198 8.04421,-5.03927 14.763605,-13.17131 15.405185,-22.91458 4.559432,-25.20824 9.292355,-50.38453 13.895378,-75.58477 13.80056,6.78301 28.941507,14.3761 36.052735,28.85156 1.50477,2.36679 1.900144,5.7767 1.183593,8.13672 2.658141,0.93609 1.275463,4.34354 1.59961,6.4082 -0.308534,9.57128 -3.621497,18.72364 -7.355469,27.4336 9.830888,-12.54233 15.653318,-29.05306 12.980469,-45.0918 1.414714,-5.81158 5.11725,-10.82515 5.886363,-16.85406 4.412153,-20.66189 -5.056792,-42.784008 -21.56334,-55.668659 -7.302683,-6.274592 -15.303774,-13.995047 -15.690211,-24.272204 -0.04914,-3.048843 2.908622,-7.273992 -0.792969,-9.119141 -0.616297,-0.267003 -1.303294,-0.371585 -1.970703,-0.291015 z m -3.478515,44.636718 c 13.649888,6.705206 28.642026,14.307387 35.556349,28.685521 4.112635,8.55253 2.984716,18.44501 1.008104,27.40432 -4.419316,-15.60027 -16.133277,-27.62777 -28.330577,-37.710035 -4.875869,-5.161829 -7.920361,-11.872667 -9.153798,-18.829024 0.30664,0.149739 0.613281,0.299479 0.919922,0.449218 z"
             style="opacity:1;fill:#000000;fill-opacity:0.14864867;stroke:none;stroke-width:0.04969447;stroke-linecap:round;stroke-linejoin:miter;stroke-miterlimit:4;stroke-dasharray:none;stroke-dashoffset:0;stroke-opacity:1" />
          <path
             inkscape:connector-curvature="0"
             id="path972"
             d="m -69.736328,33.628906 c -4.466026,-0.231637 -6.466776,4.812885 -6.250612,8.548391 -8.57081,46.593235 -17.141217,93.186543 -25.71228,139.779733 -18.59258,-7.66915 -40.10705,-2.59965 -56.96203,7.24557 -7.78874,4.71324 -16.09029,11.89008 -16.32039,21.69621 1.09073,7.37008 8.88839,11.17907 15.61055,11.93127 18.19965,3.34556 37.3578,-2.88001 52.36718,-13.14063 7.070887,-5.15522 12.088544,-13.20842 12.544541,-22.05378 4.524351,-24.93012 9.181368,-49.83574 13.744525,-74.75872 13.953725,6.83025 29.25664,14.4234 36.639722,28.9143 1.70393,2.49547 2.026114,5.8313 1.690356,8.59547 2.583871,1.8073 0.955121,5.46554 1.31122,8.05375 -0.486045,7.73422 -2.848087,15.21143 -5.729188,22.35836 8.312353,-11.97214 12.818892,-27.03116 10.439453,-41.57422 1.782264,-6.5316 5.789071,-12.35998 6.328916,-19.24764 3.318046,-20.428984 -6.817972,-41.667649 -23.227354,-53.961345 -7.082164,-6.169448 -14.518685,-14.084008 -14.458984,-24.103516 0.210347,-2.665656 2.697221,-6.797147 -0.929688,-8.160156 -0.352593,-0.09822 -0.720158,-0.14219 -1.085937,-0.123047 z m -4.455078,43.259766 c 13.920451,6.803585 29.226134,14.392677 36.482658,28.921618 4.719684,9.34196 3.130434,20.26634 0.864998,30.04909 -4.113963,-16.5063 -16.4448,-29.16544 -29.119064,-39.727829 -4.990335,-5.417507 -7.957299,-12.461608 -9.128983,-19.682332 0.30013,0.146484 0.600261,0.292969 0.900391,0.439453 z"
             style="opacity:1;fill:#000000;fill-opacity:0.14864867;stroke:none;stroke-width:0.04969447;stroke-linecap:round;stroke-linejoin:miter;stroke-miterlimit:4;stroke-dasharray:none;stroke-dashoffset:0;stroke-opacity:1" />
        </g>
        <rect
           style="opacity:1;fill:url(#linearGradient858);fill-opacity:1;stroke:none;stroke-width:0.05413945;stroke-linecap:round;stroke-linejoin:miter;stroke-miterlimit:4;stroke-dasharray:none;stroke-dashoffset:0;stroke-opacity:1"
           id="rect819"
           width="13.360398"
           height="198.66335"
           x="122.70914"
           y="5.2141385"
           ry="6.6801991" />
        <ellipse
           style="opacity:1;fill:url(#radialGradient850);fill-opacity:1;stroke:none;stroke-width:0.04382048;stroke-linecap:round;stroke-linejoin:miter;stroke-miterlimit:4;stroke-dasharray:none;stroke-dashoffset:0;stroke-opacity:1"
           id="path817-3"
           cx="21.462717"
           cy="226.65613"
           rx="42.259521"
           ry="28.173016"
           transform="rotate(-19.325659)" />
        <ellipse
           transform="rotate(-19.325659)"
           ry="28.173016"
           rx="42.259521"
           cy="226.09564"
           cx="20.739101"
           id="ellipse880"
           style="opacity:1;fill:url(#radialGradient887);fill-opacity:1;stroke:none;stroke-width:0.04382048;stroke-linecap:round;stroke-linejoin:miter;stroke-miterlimit:4;stroke-dasharray:none;stroke-dashoffset:0;stroke-opacity:1" />
        <path
           style="fill:#b5b8ff;fill-opacity:0.34684688;stroke:none;stroke-width:1px;stroke-linecap:butt;stroke-linejoin:miter;stroke-opacity:1;filter:url(#filter1013)"
           d="m 286.37832,-299.31565 c -20.39756,0.3983 -39.29919,5.7836 -57.39648,13.8496 -13.0928,56.0932 -26.49485,111.4849 -25.78862,166.0996 19.1949,-1.1163 45.12623,-3.0504 64.1187,-5.4825 -5.80632,-60.0353 5.32377,-118.0174 38.77148,-173.2949 -6.73002,-0.9298 -13.29159,-1.2971 -19.70508,-1.1718 z m -72.90618,23.474 c -12.28772,7.1607 -35.32561,19.2072 -47.39069,27.1099 -27.81607,45.7399 -39.10245,88.281 -37.30469,128.2891 18.56423,1.7424 36.9509,2.3344 55.20312,2.0488 -0.78164,-51.9788 17.1013,-107.1155 29.49226,-157.4478 z m 58.60345,183.660702 c -20.31462,2.4264 -46.05623,1.3642 -66.23441,2.1534 2.46521,37.4063 13.90672,77.1837 23.60355,113.8154 17.92492,5.8583 42.86106,10.4785 87.61914,11.6015 -21.3666,-43.2956 -36.93225,-85.8882 -44.98828,-127.5703 z m -139.13281,3.2285 c 7.05016,31.9487 22.39372,62.2921 44.11914,91.4004 10.21605,3.1981 25.00266,13.6626 32.81596,17.2847 -9.43319,-33.6596 -21.98342,-73.7131 -24.47807,-106.5054 -17.54748,0.011 -35.0343,-0.6938 -52.45703,-2.1797 z"
           id="path959"
           inkscape:connector-curvature="0"
           sodipodi:nodetypes="cccccccccccccccczcccz"
           transform="matrix(0.11288854,0,0,0.11288854,44.289414,225.04717)" />
        <g
           id="g885"
           transform="translate(0,42.548241)">
          <path
             style="fill:url(#radialGradient888);fill-opacity:1;stroke:none;stroke-width:0.11288853px;stroke-linecap:butt;stroke-linejoin:miter;stroke-opacity:1"
             d="m 133.74401,10.889517 c 1.55691,4.769829 3.01386,19.220295 18.37743,31.99559 42.07736,34.988679 44.886,82.376563 21.36035,114.345923 13.16357,-50.83034 6.30594,-70.465902 -39.15589,-94.103672 z"
             id="path877"
             inkscape:connector-curvature="0"
             sodipodi:nodetypes="csccc" />
          <path
             sodipodi:nodetypes="cccc"
             inkscape:connector-curvature="0"
             id="path879"
             d="m 147.80837,70.488189 0.75529,-9.414182 c 30.98058,20.026386 46.40976,43.070773 24.91979,95.505443 11.78732,-44.5969 7.25702,-64.757917 -25.67508,-86.091261 z"
             style="fill:url(#radialGradient890);fill-opacity:1;stroke:none;stroke-width:0.11288853px;stroke-linecap:butt;stroke-linejoin:miter;stroke-opacity:1" />
          <path
             sodipodi:nodetypes="ccc"
             inkscape:connector-curvature="0"
             id="path881"
             d="m 180.64029,79.706574 c 5.15654,27.080296 4.78278,49.310786 -7.08,76.863846 13.6903,-19.50239 21.46026,-46.16345 7.08,-76.863846 z"
             style="fill:url(#linearGradient1299);fill-opacity:1;stroke:none;stroke-width:1px;stroke-linecap:butt;stroke-linejoin:miter;stroke-opacity:1" />
          <path
             style="fill:url(#linearGradient894);fill-opacity:1;stroke:none;stroke-width:0.11288853px;stroke-linecap:butt;stroke-linejoin:miter;stroke-opacity:1"
             d="m 133.75553,11.122893 0.46831,51.918976 7.28905,3.938975 0.35154,-35.102882 c -2.7718,-1.365635 -6.81744,-15.808047 -8.1089,-20.755069 z"
             id="path883"
             inkscape:connector-curvature="0"
             sodipodi:nodetypes="ccccc" />
        </g>
        <g
           id="g875"
           transform="translate(-0.28944381,-0.28944381)">
          <path
             sodipodi:nodetypes="csccc"
             inkscape:connector-curvature="0"
             id="path821"
             d="m 133.74401,10.889517 c 1.55691,4.769829 3.01386,19.220295 18.37743,31.99559 42.07736,34.988679 44.886,82.376563 21.36035,114.345923 13.16357,-50.83034 6.30594,-70.465902 -39.15589,-94.103672 z"
             style="fill:url(#radialGradient878);fill-opacity:1;stroke:none;stroke-width:0.11288853px;stroke-linecap:butt;stroke-linejoin:miter;stroke-opacity:1" />
          <path
             style="fill:url(#radialGradient913);fill-opacity:1;stroke:none;stroke-width:0.11288853px;stroke-linecap:butt;stroke-linejoin:miter;stroke-opacity:1"
             d="m 147.80837,70.488189 0.75529,-9.414182 c 30.98058,20.026386 46.40976,43.070773 24.91979,95.505443 11.78732,-44.5969 7.25702,-64.757917 -25.67508,-86.091261 z"
             id="path911"
             inkscape:connector-curvature="0"
             sodipodi:nodetypes="cccc" />
          <path
             style="fill:url(#linearGradient1124);fill-opacity:1;stroke:none;stroke-width:1px;stroke-linecap:butt;stroke-linejoin:miter;stroke-opacity:1"
             d="m 180.64029,79.706574 c 5.15654,27.080296 4.78278,49.310786 -7.08,76.863846 13.6903,-19.50239 21.46026,-46.16345 7.08,-76.863846 z"
             id="path1122"
             inkscape:connector-curvature="0"
             sodipodi:nodetypes="ccc" />
          <path
             sodipodi:nodetypes="ccccc"
             inkscape:connector-curvature="0"
             id="path915"
             d="m 133.75553,11.122893 0.46831,51.918976 7.28905,3.938975 0.35154,-35.102882 c -2.7718,-1.365635 -6.81744,-15.808047 -8.1089,-20.755069 z"
             style="fill:url(#linearGradient923);fill-opacity:1;stroke:none;stroke-width:0.11288853px;stroke-linecap:butt;stroke-linejoin:miter;stroke-opacity:1" />
        </g>
      </g>
    </g>
  </g>
</svg>
