<?xml version="1.0" encoding="UTF-8" standalone="no"?>
<svg
   xmlns:dc="http://purl.org/dc/elements/1.1/"
   xmlns:cc="http://creativecommons.org/ns#"
   xmlns:rdf="http://www.w3.org/1999/02/22-rdf-syntax-ns#"
   xmlns:svg="http://www.w3.org/2000/svg"
   xmlns="http://www.w3.org/2000/svg"
   xmlns:xlink="http://www.w3.org/1999/xlink"
   xmlns:sodipodi="http://sodipodi.sourceforge.net/DTD/sodipodi-0.dtd"
   xmlns:inkscape="http://www.inkscape.org/namespaces/inkscape"
   version="1.1"
   inkscape:output_extension="org.inkscape.output.svg.inkscape"
   sodipodi:docname="folder-pictures-landscapes.svg"
   height="256"
   width="256"
   inkscape:version="1.0 (4035a4f, 2020-05-01)"
   sodipodi:version="0.32"
   id="svg2">
  <metadata
     id="metadata7">
    <rdf:RDF>
      <cc:Work>
        <dc:format>image/svg+xml</dc:format>
        <dc:type
           rdf:resource="http://purl.org/dc/dcmitype/StillImage" />
        <dc:title />
      </cc:Work>
    </rdf:RDF>
  </metadata>
  <defs
     id="defs5">
    <linearGradient
       id="linearGradient3267">
      <stop
         stop-opacity="0"
         stop-color="#ffffff"
         id="stop3269" />
      <stop
         stop-opacity="0"
         stop-color="#ffffff"
         offset="0.813"
         id="stop3275" />
      <stop
         stop-opacity="0.649"
         stop-color="#ffffff"
         id="stop3277"
         offset="0.959" />
      <stop
         stop-opacity="0"
         stop-color="#ffffff"
         id="stop3271"
         offset="1" />
    </linearGradient>
    <linearGradient
       inkscape:collect="always"
       id="linearGradient2459">
      <stop
         stop-opacity="1"
         stop-color="#0000ff"
         id="stop2461" />
      <stop
         stop-opacity="0"
         stop-color="#0000ff"
         offset="1"
         id="stop2463" />
    </linearGradient>
    <filter
       id="filter3287"
       inkscape:collect="always">
      <feGaussianBlur
         id="feGaussianBlur3289"
         inkscape:collect="always" />
    </filter>
    <linearGradient
       id="linearGradient1933">
      <stop
         stop-opacity="1"
         stop-color="#dadada"
         id="stop1935" />
      <stop
         stop-opacity="1"
         stop-color="#000000"
         offset="1"
         id="stop1937" />
    </linearGradient>
    <radialGradient
       r="851.96"
       fy="1042.17"
       fx="795.12"
       cy="1042.17"
       cx="795.12"
       gradientTransform="matrix(0.20404609,-4.269494e-4,1.2160056e-4,0.08473187,-283.15933,31.520281)"
       gradientUnits="userSpaceOnUse"
       id="radialGradient5041"
       xlink:href="#linearGradient2459"
       inkscape:collect="always" />
    <radialGradient
       r="857.84"
       fy="-132.91"
       fx="723.43"
       cy="-132.91"
       cx="723.43"
       gradientTransform="matrix(0.16044163,0.00121498,-2.4633382e-4,0.06276491,-243.94569,-122.33797)"
       gradientUnits="userSpaceOnUse"
       id="radialGradient5043"
       xlink:href="#linearGradient2459"
       inkscape:collect="always" />
    <radialGradient
       r="147.86"
       fy="655.76"
       fx="1583.29"
       cy="655.76"
       cx="1583.29"
       gradientTransform="matrix(0.9332897,-1.1965687,0.8245462,0.6431228,-441.76586,2020.0057)"
       gradientUnits="userSpaceOnUse"
       id="radialGradient5045"
       xlink:href="#linearGradient3267"
       inkscape:collect="always" />
    <linearGradient
       id="linearGradient4167"
       inkscape:collect="always">
      <stop
         stop-opacity="0.624"
         stop-color="#adadad"
         id="stop4169" />
      <stop
         stop-opacity="0.973"
         stop-color="#ffffff"
         id="stop4171"
         offset="1" />
    </linearGradient>
    <linearGradient
       inkscape:collect="always"
       id="linearGradient4223">
      <stop
         stop-opacity="0.803"
         stop-color="#bebebe"
         id="stop4225" />
      <stop
         stop-opacity="0.732"
         stop-color="#9f9f9f"
         offset="1"
         id="stop4227" />
    </linearGradient>
    <linearGradient
       inkscape:collect="always"
       id="linearGradient4211">
      <stop
         stop-opacity="0.634"
         stop-color="#9f9f9f"
         id="stop4213" />
      <stop
         stop-opacity="0"
         stop-color="#696969"
         offset="1"
         id="stop4215" />
    </linearGradient>
    <linearGradient
       inkscape:collect="always"
       id="linearGradient4171">
      <stop
         stop-opacity="0.624"
         stop-color="#b2b2b2"
         id="stop4173" />
      <stop
         stop-opacity="0.698"
         stop-color="#ffffff"
         offset="1"
         id="stop4175" />
    </linearGradient>
    <linearGradient
       inkscape:collect="always"
       id="linearGradient4142">
      <stop
         stop-opacity="0.519"
         stop-color="#909090"
         id="stop4144" />
      <stop
         stop-opacity="0"
         stop-color="#696969"
         offset="1"
         id="stop4146" />
    </linearGradient>
    <linearGradient
       inkscape:collect="always"
       xlink:href="#linearGradient4142"
       id="linearGradient4148"
       x1="165.74"
       y1="63.25"
       x2="278.75"
       y2="324.36"
       gradientUnits="userSpaceOnUse" />
    <filter
       color-interpolation-filters="sRGB"
       inkscape:collect="always"
       id="filter4160"
       x="-0.028109536"
       width="1.0562191"
       y="-0.050048949"
       height="1.1000979">
      <feGaussianBlur
         stdDeviation="3.5625119"
         inkscape:collect="always"
         id="feGaussianBlur4162" />
    </filter>
    <linearGradient
       inkscape:collect="always"
       xlink:href="#linearGradient4167"
       id="linearGradient4177"
       x1="379.78"
       y1="106.85"
       x2="387.93"
       y2="114.16"
       gradientUnits="userSpaceOnUse"
       spreadMethod="reflect" />
    <linearGradient
       inkscape:collect="always"
       xlink:href="#linearGradient4171"
       id="linearGradient4207"
       gradientUnits="userSpaceOnUse"
       spreadMethod="reflect"
       x1="381.27"
       y1="108.46"
       x2="387.93"
       y2="114.16"
       gradientTransform="translate(26.808511,-26.382979)" />
    <linearGradient
       inkscape:collect="always"
       xlink:href="#linearGradient4211"
       id="linearGradient4217"
       x1="284.7"
       y1="61.711"
       x2="281.1"
       y2="125.1"
       gradientUnits="userSpaceOnUse" />
    <linearGradient
       inkscape:collect="always"
       xlink:href="#linearGradient4223"
       id="linearGradient4229"
       x1="259.02"
       y1="93.26"
       x2="255.7"
       y2="103.09"
       gradientUnits="userSpaceOnUse" />
    <linearGradient
       inkscape:collect="always"
       xlink:href="#linearGradient4223"
       id="linearGradient4237"
       x1="262.84"
       y1="102.54"
       x2="258.99"
       y2="117.29"
       gradientUnits="userSpaceOnUse" />
    <filter
       color-interpolation-filters="sRGB"
       inkscape:collect="always"
       id="filter4257"
       x="-0.024"
       width="1.049"
       y="-0.068"
       height="1.136">
      <feGaussianBlur
         inkscape:collect="always"
         id="feGaussianBlur4259" />
    </filter>
  </defs>
  <sodipodi:namedview
     inkscape:document-rotation="0"
     inkscape:snap-global="false"
     inkscape:snap-nodes="false"
     inkscape:object-nodes="false"
     inkscape:snap-others="false"
     inkscape:snap-grids="false"
     inkscape:snap-to-guides="false"
     inkscape:window-maximized="1"
     inkscape:current-layer="svg2"
     inkscape:window-y="0"
     inkscape:window-x="0"
     inkscape:cy="128"
     inkscape:cx="128"
     inkscape:zoom="3.4375"
     showgrid="false"
     id="base"
     pagecolor="#ff0000"
     bordercolor="#666666"
     borderopacity="1.0"
     objecttolerance="10.0"
     gridtolerance="10.0"
     guidetolerance="10.0"
     inkscape:pageopacity="0"
     inkscape:pageshadow="2"
     inkscape:window-width="1920"
     inkscape:window-height="1056" />
  <g
     id="g4261"
     transform="matrix(0.77128144,0,0,0.77128144,-81.681683,-25.346156)">
    <path
       stroke-width="1"
       stroke-linecap="butt"
       fill-opacity="0.514"
       stroke-linejoin="miter"
       stroke="none"
       fill-rule="evenodd"
       filter="url(#filter4257)"
       fill="#000000"
       stroke-opacity="1"
       sodipodi:nodetypes="ccccccc"
       inkscape:connector-curvature="0"
       id="path4239"
       d="m 137.15847,253.33333 1.0929,10.92897 c 1.69466,2.56439 1.62485,5.1824 6.55737,7.10382 l 234.9905,77.59563 c 4.36168,2.76045 7.27409,1.93611 10.91114,-1.0929 l 16.39344,-17.48633 z" />
    <path
       stroke-width="1"
       stroke-linecap="butt"
       fill-opacity="0.73"
       stroke-linejoin="miter"
       stroke="none"
       fill-rule="evenodd"
       fill="#000000"
       stroke-opacity="1"
       sodipodi:nodetypes="ccccsccccccc"
       inkscape:connector-curvature="0"
       id="path4198"
       d="M 146.27659,241.2766 139.89362,67.340426 c -0.0538,-6.437983 2.49923,-9.41706 7.97872,-7.978724 l 135.10638,37.234043 c 8.12648,2.325734 17.80936,-1.266511 19.14894,-15.425533 0.93604,-9.893676 4.6708,-17.669623 18.61702,-14.893617 l 85.6383,19.680851 c 6.41139,1.511285 7.81765,4.447577 7.4468,11.702128 l -2.12765,230.851066 -5.31915,5.85106 -254.86675,-84.34164 z" />
    <path
       stroke-width="1"
       stroke-linecap="butt"
       fill-opacity="1"
       stroke-linejoin="miter"
       stroke="none"
       fill-rule="evenodd"
       fill="url(#linearGradient4217)"
       stroke-opacity="1"
       d="M 146.27659,241.2766 139.89362,67.340426 c -0.0538,-6.437983 2.49923,-9.41706 7.97872,-7.978724 l 135.10638,37.234043 c 8.12648,2.325734 17.80936,-1.266511 19.14894,-15.425533 0.93604,-9.893676 4.6708,-17.669623 18.61702,-14.893617 l 85.6383,19.680851 c 6.41139,1.511285 7.81765,4.447577 7.4468,11.702128 l -2.12765,230.851066 -5.31915,5.85106 -254.86675,-84.34164 z"
       id="path4209-6"
       inkscape:connector-curvature="0"
       sodipodi:nodetypes="ccccsccccccc" />
    <path
       stroke-width="1"
       stroke-linecap="butt"
       fill-opacity="1"
       stroke-linejoin="miter"
       stroke="#cecece"
       fill-rule="evenodd"
       fill="url(#linearGradient4229)"
       stroke-opacity="0.705"
       sodipodi:nodetypes="ccccc"
       d="m 142.62295,64.262295 267.21311,65.573775 1.0929,194.53552 -256.8306,-92.89618 z"
       id="path4221-7"
       inkscape:connector-curvature="0" />
    <path
       stroke-width="1"
       stroke-linecap="butt"
       fill-opacity="1"
       stroke-linejoin="miter"
       stroke="#cecece"
       fill-rule="evenodd"
       fill="url(#linearGradient4237)"
       stroke-opacity="0.705"
       inkscape:connector-curvature="0"
       id="path4219"
       d="m 136.61202,73.005464 267.21311,65.573776 4.37159,189.07104 -260.10929,-87.4317 z" />
    <path
       stroke-width="1"
       stroke-linecap="butt"
       fill-opacity="0.77"
       stroke-linejoin="miter"
       stroke="none"
       fill-rule="evenodd"
       fill="#000000"
       stroke-opacity="1"
       sodipodi:nodetypes="cccscccccccc"
       inkscape:connector-curvature="0"
       id="path4138"
       d="m 116.2037,92.685185 c 1.13182,-4.540599 4.63483,-9.034209 10.68729,-7.545261 L 261.11111,123.7037 c 6.48148,1.63624 16.36287,0.33244 20.83334,-11.11111 4.00878,-10.26173 10.87392,-18.779525 25.46296,-16.203701 l 68.51852,13.888891 c 12.25335,3.29007 11.96705,11.68066 12.96296,18.51851 l 12.5,205.55556 c 0.64976,7.44283 -5.7507,13.21303 -12.96296,10.18518 L 144.90741,262.59259 c -4.92216,-1.55932 -8.93994,-3.09709 -9.25926,-10.18518 z" />
    <path
       stroke-width="1"
       stroke-linecap="butt"
       fill-opacity="1"
       stroke-linejoin="miter"
       stroke="none"
       fill-rule="evenodd"
       fill="url(#linearGradient4148)"
       stroke-opacity="1"
       d="m 116.2037,92.685185 c 1.13182,-4.540599 4.63483,-9.034209 10.68729,-7.545261 L 261.11111,123.7037 c 6.48148,1.63624 16.36287,0.33244 20.83334,-11.11111 4.00878,-10.26173 10.87392,-18.779525 25.46296,-16.203701 l 68.51852,13.888891 c 12.25335,3.29007 11.96705,11.68066 12.96296,18.51851 l 12.5,205.55556 c 0.64976,7.44283 -5.7507,13.21303 -12.96296,10.18518 l -246.3301,-84.49161 c -0.25306,-3.54988 -6.28029,-5.15424 -6.75851,-9.28221 C 130.36519,207.84416 119.99398,134.22116 116.2037,92.685185 Z"
       id="path4140"
       inkscape:connector-curvature="0"
       sodipodi:nodetypes="cccsccccccsc" />
    <path
       style="filter:url(#filter4160)"
       stroke-width="1"
       stroke-linecap="butt"
       fill-opacity="0.273"
       stroke-linejoin="miter"
       stroke="none"
       fill-rule="evenodd"
       filter="url(#filter4160)"
       fill="#000000"
       stroke-opacity="1"
       sodipodi:nodetypes="ccccccc"
       inkscape:connector-curvature="0"
       id="path4150"
       d="m 177.77778,215.83334 -80.555558,82.4074 255.555558,88.42593 38.75029,-40.87068 c 4.63488,-1.3015 9.96817,-1.38077 9.86082,-10.98118 L 396.29629,282.5 Z" />
    <path
       stroke-width="1"
       stroke-linecap="butt"
       fill-opacity="1"
       stroke-linejoin="miter"
       stroke="none"
       fill-rule="evenodd"
       fill="#b5b5b5"
       stroke-opacity="1"
       id="path4164"
       d="m 130.29688,79.757812 c -3.73674,-0.05935 -6.2712,2.374412 -7.66211,5.353516 1.24508,-0.330919 2.6592,-0.363492 4.25585,0.0293 l 134.22071,38.562492 c 5.49861,1.38812 13.44221,0.65773 18.45508,-6.58203 -4.30627,2.38583 -9.16625,2.43292 -12.90039,1.49024 L 132.44727,80.046875 c -0.75656,-0.186118 -1.47316,-0.278306 -2.15039,-0.289063 z m 177.54687,11.074219 c -7.10689,0.02874 -11.9932,3.152137 -15.51367,7.738281 3.82724,-2.318415 8.71897,-3.304404 15.07812,-2.18164 l 68.51758,13.888668 c 12.25335,3.29007 11.96698,11.68169 12.96289,18.51954 l 12.5,205.55468 c 0.1753,2.00795 -0.17581,3.88521 -0.90429,5.50977 4.09619,-1.28823 6.90142,-5.55587 6.46093,-10.60156 l -12.5,-205.55665 c -0.99591,-6.83785 -0.70954,-15.2275 -12.96289,-18.51757 L 312.96289,91.296875 c -1.82363,-0.321978 -3.52737,-0.47128 -5.11914,-0.464844 z"
       inkscape:connector-curvature="0" />
    <path
       stroke-width="1"
       stroke-linecap="butt"
       fill-opacity="1"
       stroke-linejoin="miter"
       stroke="none"
       fill-rule="evenodd"
       fill="url(#linearGradient4177)"
       stroke-opacity="1"
       sodipodi:nodetypes="ccccc"
       inkscape:connector-curvature="0"
       d="m 375.92578,110.27734 c 12.25335,3.29007 11.96698,11.68169 12.96289,18.51954 2.18404,-2.05828 3.13422,-2.71335 5.55664,-5.09376 -0.99591,-6.83785 -0.70954,-15.2275 -12.96289,-18.51757 -2.39781,2.28773 -2.9924,2.79876 -5.55664,5.09179 z"
       id="path4169" />
    <path
       stroke-width="1"
       stroke-linecap="butt"
       fill-opacity="1"
       stroke-linejoin="miter"
       stroke="none"
       fill-rule="evenodd"
       fill="#b0b0b0"
       stroke-opacity="1"
       id="path4200"
       d="m 151.9043,54.332031 c -2.67378,0.112285 -4.27807,1.802415 -4.90039,4.837891 0.28199,0.05237 0.56972,0.11281 0.86914,0.191406 l 135.10547,37.234375 c 5.41154,1.54874 11.51034,0.467116 15.3789,-4.605469 -2.77183,0.801996 -5.76159,0.727663 -8.57031,-0.07617 L 154.68164,54.681641 c -1.0274,-0.269688 -1.9536,-0.384203 -2.77734,-0.34961 z m 170.88281,6.701172 c -5.39865,-0.126557 -8.73663,1.852669 -10.81445,5.035156 2.34672,-0.518874 5.2277,-0.496408 8.77148,0.208985 l 85.63867,19.679687 c 6.41139,1.511285 7.81812,4.448574 7.44727,11.703125 l -2.12891,230.849614 -0.47461,0.52148 1.96485,0.65039 5.31836,-5.85156 2.1289,-230.851564 c 0.37085,-7.254551 -1.03587,-10.189887 -7.44726,-11.701172 L 327.55273,61.595703 c -1.74327,-0.347001 -3.32697,-0.528775 -4.76562,-0.5625 z"
       inkscape:connector-curvature="0" />
    <path
       stroke-width="1"
       stroke-linecap="butt"
       fill-opacity="1"
       stroke-linejoin="miter"
       stroke="none"
       fill-rule="evenodd"
       fill="url(#linearGradient4207)"
       stroke-opacity="1"
       id="path4205-5"
       d="m 403.12392,85.141164 c 12.4021,2.867396 10.71654,4.984484 10.70306,18.467586 2.18404,-2.05828 4.25114,-3.752349 6.67356,-6.132759 0.48467,-12.136762 1.00482,-14.993724 -11.89791,-17.244792 -2.39781,2.28773 -2.91447,2.616935 -5.47871,4.909965 z"
       inkscape:connector-curvature="0"
       sodipodi:nodetypes="ccccc" />
  </g>
  <g
     stroke-width="1"
     stroke-linecap="butt"
     fill-opacity="1"
     stroke-linejoin="miter"
     stroke="none"
     fill="#000000"
     font-family="STIXIntegralsSm"
     stroke-opacity="1"
     font-size="7.5"
     font-variant="normal"
     letter-spacing="0"
     font-stretch="normal"
     font-weight="bold"
     line-height="125%"
     word-spacing="0"
     font-style="normal"
     transform="translate(42.446106,-76.957874)"
     id="text4194">
    <path
       inkscape:connector-curvature="0"
       id="path4199"
       d="m -33.815041,58.840733 -2.204589,0 -0.347901,0.996093 -1.417236,0 2.025146,-5.467529 1.680909,0 2.025146,5.467529 -1.417236,0 -0.344239,-0.996093 z m -1.853027,-1.014405 1.497803,0 -0.747071,-2.175293 -0.750732,2.175293 z" />
    <path
       inkscape:connector-curvature="0"
       id="path4201"
       d="m -31.33213,54.369297 2.340087,0 q 1.043702,0 1.600342,0.465088 0.560303,0.461426 0.560303,1.318359 0,0.860596 -0.560303,1.325684 -0.55664,0.461426 -1.600342,0.461426 l -0.930175,0 0,1.896972 -1.409912,0 0,-5.467529 z m 1.409912,1.021729 0,1.527099 0.780029,0 q 0.410156,0 0.633545,-0.197754 0.223389,-0.201416 0.223389,-0.567627 0,-0.366211 -0.223389,-0.563965 -0.223389,-0.197753 -0.633545,-0.197753 l -0.780029,0 z" />
  </g>
  <g
     transform="translate(-235.8619,49.864366)"
     inkscape:label="1. réteg"
     id="layer1-5" />
  <g
     transform="matrix(1.0796359,0,0,0.94160479,248.2628,52.503766)"
     id="g951">
    <rect
       y="49.054657"
       x="-199.40782"
       height="134.09201"
       width="166.87511"
       id="rect2453"
       style="fill:#000000;fill-rule:evenodd;stroke:#000000;stroke-width:0.111316;stroke-linecap:butt;stroke-linejoin:miter;stroke-opacity:1" />
    <rect
       y="48.893429"
       x="-199.40782"
       height="76.060097"
       width="167.64648"
       id="rect2457"
       style="fill:url(#radialGradient5041);fill-opacity:1;stroke-width:0.111316"
       ry="0" />
    <path
       inkscape:connector-curvature="0"
       sodipodi:nodetypes="ccccccccsccccccsssssssccccscccccccc"
       id="path2451"
       d="m -199.15303,96.791667 c 5.72177,1.2915 7.84011,6.541673 13.34173,8.655353 18.86257,5.50492 3.58339,7.12094 31.34563,13.71621 0.27428,0.0662 0.45414,0.18937 0.75314,0.18502 5.33699,1.93395 10.98394,1.0989 16.21255,3.30697 0.46593,0.21063 1.12291,0.26999 3.67623,0.33215 0.81544,0.40753 2.02431,-0.42231 2.78775,-0.0372 0.14907,0.0564 1.50011,-0.37379 1.51667,-0.38972 0.083,-0.16528 0.34184,-0.20018 2.29999,-0.31009 1.84419,-0.1035 2.14593,-0.13491 2.28061,-0.23739 5.14304,-0.69141 10.02168,0.8799 15.33608,-0.64785 0.3255,-0.10458 0.99307,-0.47428 1.3869,-0.51244 1.50617,0.0982 2.9559,-0.56875 4.43522,-0.69581 0.54947,-0.0257 2.96034,-0.82089 3.43297,-1.1323 1.11192,-0.47951 2.26302,-0.79129 3.36485,-1.31404 0.45494,-0.23574 1.00352,-0.38086 1.87714,-0.49656 0.89739,-0.11884 1.58345,-0.30349 2.51306,-0.67636 2.28927,-0.91825 4.01337,-1.3224 6.23999,-1.46275 3.67011,-0.23134 4.3308,-0.23137 5.06359,-2.5e-4 0.50909,0.16056 1.13003,0.22896 2.1482,0.23662 1.28768,0.01 1.51467,-0.0228 2.25048,-0.32227 1.40726,-0.57272 3.03103,-1.02059 4.0231,-1.10966 0.52484,-0.0471 0.98517,-0.1386 1.02296,-0.20328 1.68962,-1.15188 3.69524,-1.61196 5.54147,-2.26368 1.04086,-0.36768 2.19167,-0.73126 2.55737,-0.80796 1.15968,-0.27554 2.31109,-0.59614 3.47804,-0.82049 1.48396,-0.26819 1.58111,-0.29868 1.81828,-0.57071 0.11508,-0.13199 7.71864,-6.32371 8.15552,-6.58836 2.47182,-1.70254 4.84544,-3.593622 6.8986,-6.100022 3.66745,-4.35706 6.27922,-2.30304 7.44538,-0.81232 1.16616,1.49071 -0.513969,4.611662 3.890801,5.588282 l -0.464397,23.41557 c -81.180124,-0.0539 -86.945714,-1.18702 -166.969744,-1.47638 -0.32089,-9.53238 -0.13441,-13.6715 0.0501,-24.323187 z"
       style="fill:#000000;stroke-width:0.111316" />
    <rect
       transform="scale(1,-1)"
       id="rect2467"
       width="167.259"
       height="58.300209"
       x="-199.98654"
       y="-183.64061"
       style="fill:url(#radialGradient5043);fill-opacity:1;stroke-width:0.111316" />
    <path
       inkscape:connector-curvature="0"
       d="M -3.2958595,808.14664 C 54.858909,797.89189 78.352675,763.10755 134.26987,746.32462 325.98466,702.61473 170.69058,689.78335 452.85961,637.4159 c 2.78772,-0.52555 4.61573,-1.50364 7.6547,-1.46907 54.24396,-15.35587 111.6383,-8.72545 164.7807,-26.25785 4.73553,-1.67238 11.41293,-2.1437 37.36429,-2.6373 8.28801,-3.23581 20.57459,3.3532 28.33406,0.29562 1.51516,-0.44808 15.24675,2.96795 15.41504,3.09441 0.8433,1.31237 3.47448,1.5895 23.37665,2.46215 18.74386,0.82185 21.81067,1.07125 23.17953,1.88496 52.27269,5.48985 101.85805,-6.98655 155.87244,5.14398 3.30822,0.83045 10.09327,3.76586 14.09612,4.06887 95.99546,7.47971 176.63356,55.86988 273.67796,45.87875 30.723,-8.01811 54.3255,7.02483 85.597,9.4909 5.3344,0.37415 10.013,1.10048 10.3971,1.61407 17.1729,9.1461 37.5576,12.7992 56.3223,17.97396 10.579,2.91943 22.2756,5.80632 25.9925,6.41531 11.7867,2.1878 23.4894,4.73346 35.35,6.51485 39.4416,7.66009 68.6802,37.39092 101.3714,56.84405 25.123,13.51838 49.2479,28.53385 70.1157,48.435 37.2752,34.59566 63.8206,18.28647 75.6732,6.44998 11.8525,-11.83648 -10.1327,-29.71452 34.6364,-37.469 l -0.8244,-175.63163 C 866.14631,609.45352 812.7354,595.37493 -2.6419529,595.30969 c -3.261473,75.68844 -1.5470947,106.7859 0.3278513,191.3619 z"
       id="path2402"
       sodipodi:nodetypes="ccccccccsccccccccccccccccc"
       style="mix-blend-mode:normal;fill:#000000;fill-opacity:0.507397"
       transform="matrix(0.0983887,0,0,0.12594229,-199.30481,48.257663)" />
    <path
       inkscape:connector-curvature="0"
       d="m 1428.7505,472.7652 c 1.1697,-1.048 78.4505,-50.21114 82.8909,-52.31256 25.123,-13.51838 49.2479,-28.53385 70.1157,-48.435 24.2253,-19.23938 46.5036,-25.14922 75.6732,-6.44998 8.9113,20.66001 21.2466,26.00637 39.5451,36.70203 l -4.2737,16.75482 c -107.862,-49.13856 -123.4654,-23.82166 -263.9512,53.74069 z"
       id="path2495"
       sodipodi:nodetypes="ccccccc"
       style="opacity:0.623;fill:url(#radialGradient5045);fill-opacity:1;stroke:none;filter:url(#filter3287)"
       transform="matrix(0.0983887,0,0,0.12594229,-199.02194,49.672028)" />
    <ellipse
       id="path3291"
       cx="-183.77887"
       cy="60.605309"
       style="fill:#ffffff;fill-opacity:1;stroke:none;stroke-width:0.0046573"
       rx="0.19574447"
       ry="0.25056288" />
  </g>
</svg>
