<?xml version="1.0" encoding="UTF-8" standalone="no"?>
<svg xmlns:dc="http://purl.org/dc/elements/1.1/" xmlns:cc="http://creativecommons.org/ns#" xmlns:rdf="http://www.w3.org/1999/02/22-rdf-syntax-ns#" xmlns:svg="http://www.w3.org/2000/svg" xmlns="http://www.w3.org/2000/svg" xmlns:xlink="http://www.w3.org/1999/xlink" xmlns:sodipodi="http://sodipodi.sourceforge.net/DTD/sodipodi-0.dtd" xmlns:inkscape="http://www.inkscape.org/namespaces/inkscape" id="svg2" sodipodi:version="0.32" inkscape:version="1.0 (4035a4f, 2020-05-01)" width="256" height="256" version="1.0" sodipodi:docname="folder-war-WWII-west.svg" inkscape:output_extension="org.inkscape.output.svg.inkscape">
 <sodipodi:namedview inkscape:deskcolor="#ff0000" inkscape:showpageshadow="2" inkscape:pagecheckerboard="0" inkscape:window-height="1056" inkscape:window-width="1920" inkscape:pageshadow="2" inkscape:pageopacity="0" guidetolerance="10.0" gridtolerance="10.0" objecttolerance="10.0" borderopacity="1.0" bordercolor="#666666" pagecolor="#ff0000" id="base" showgrid="false" inkscape:zoom="3.484375" inkscape:cx="128" inkscape:cy="128" inkscape:window-x="0" inkscape:window-y="0" inkscape:current-layer="svg2" inkscape:window-maximized="1" inkscape:snap-to-guides="false" inkscape:snap-grids="false" inkscape:snap-others="false" inkscape:object-nodes="false" inkscape:snap-nodes="false" inkscape:snap-global="false" inkscape:document-rotation="0"/>
 <metadata id="metadata7">
  <rdf:RDF>
   <cc:Work>
    <dc:format>image/svg+xml</dc:format>
    <dc:type rdf:resource="http://purl.org/dc/dcmitype/StillImage"/>
   </cc:Work>
  </rdf:RDF>
 </metadata>
 <defs id="defs5">
  <linearGradient inkscape:collect="always" id="linearGradient4302">
   <stop id="stop4304" stop-color="#3e3e3e" stop-opacity="0"/>
   <stop offset="1" id="stop4306" stop-color="#000000" stop-opacity="0.157"/>
  </linearGradient>
  <linearGradient inkscape:collect="always" xlink:href="#linearGradient4302" id="linearGradient4308" x1="53.04" y1="119.43" x2="177.67" y2="119.43" gradientUnits="userSpaceOnUse" gradientTransform="translate(13.009646,-3.9652331)"/>
  <filter inkscape:collect="always" id="filter4278" x="-0.015" width="1.031" y="-0.0001" height="1.02" color-interpolation-filters="sRGB">
   <feGaussianBlur inkscape:collect="always" id="feGaussianBlur4280" stdDeviation="0.8058"/>
  </filter>
  <linearGradient id="linearGradient4489">
   <stop id="stop4491" stop-color="#bcb7b7" stop-opacity="1"/>
   <stop offset="1" id="stop4493" stop-color="#ffffff" stop-opacity="1"/>
  </linearGradient>
  <linearGradient id="linearGradient3785">
   <stop stop-opacity="1" stop-color="#c2c2c2" id="stop3787"/>
   <stop stop-opacity="1" stop-color="#ffffff" id="stop3789" offset="1"/>
  </linearGradient>
  <linearGradient id="linearGradient3775">
   <stop stop-opacity="1" stop-color="#ffffff" id="stop3777"/>
   <stop stop-opacity="1" stop-color="#434343" offset="1" id="stop3779"/>
  </linearGradient>
  <linearGradient id="linearGradient3757">
   <stop stop-opacity="1" stop-color="#144754" id="stop3759"/>
   <stop stop-opacity="1" stop-color="#ffffff" id="stop3761" offset="1"/>
  </linearGradient>
  <linearGradient y2="174.76" x2="156.87" y1="179.99" x1="146.42" gradientTransform="matrix(0.76044358,0,0,0.76044358,-185.1615,28.694898)" gradientUnits="userSpaceOnUse" id="linearGradient3346-6" xlink:href="#linearGradient3785" inkscape:collect="always"/>
  <linearGradient y2="129.51" x2="77.21" y1="167.07" x1="32.56" spreadMethod="reflect" gradientTransform="matrix(0.76044358,0,0,0.76044358,-185.1615,28.694898)" gradientUnits="userSpaceOnUse" id="linearGradient3350" xlink:href="#linearGradient4489" inkscape:collect="always"/>
  <linearGradient y2="136.9" x2="191.33" y1="136.9" x1="187.44" spreadMethod="reflect" gradientTransform="matrix(0.76044358,0,0,0.76044358,-239.6409,-13.026352)" gradientUnits="userSpaceOnUse" id="linearGradient3374" xlink:href="#linearGradient3757" inkscape:collect="always"/>
  <radialGradient gradientTransform="matrix(0.76044358,0,0,0.76044358,-175.39821,30.891637)" r="8.987" fy="8.02" fx="119.08" cy="8.02" cx="119.08" spreadMethod="reflect" gradientUnits="userSpaceOnUse" id="radialGradient3376" xlink:href="#linearGradient3775" inkscape:collect="always"/>
  <filter color-interpolation-filters="sRGB" height="1.023" y="-0.011" width="1.026" x="-0.013" id="filter4254" inkscape:collect="always">
   <feGaussianBlur id="feGaussianBlur4256" inkscape:collect="always"/>
  </filter>
  <linearGradient inkscape:collect="always" id="linearGradient858">
   <stop id="stop854" stop-color="#ffffff" stop-opacity="1"/>
   <stop offset="1" id="stop856" stop-color="#ffffff" stop-opacity="0"/>
  </linearGradient>
  <linearGradient inkscape:collect="always" id="linearGradient855">
   <stop id="stop851" stop-color="#000000" stop-opacity="1"/>
   <stop offset="1" id="stop853" stop-color="#000000" stop-opacity="0"/>
  </linearGradient>
  <linearGradient inkscape:collect="always" id="linearGradient4223">
   <stop id="stop4225" stop-color="#bebebe" stop-opacity="0.803"/>
   <stop offset="1" id="stop4227" stop-color="#9f9f9f" stop-opacity="0.732"/>
  </linearGradient>
  <linearGradient inkscape:collect="always" id="linearGradient4211">
   <stop id="stop4213" stop-color="#9f9f9f" stop-opacity="0.634"/>
   <stop offset="1" id="stop4215" stop-color="#696969" stop-opacity="0"/>
  </linearGradient>
  <linearGradient inkscape:collect="always" id="linearGradient4171">
   <stop id="stop4173" stop-color="#848484" stop-opacity="0.623"/>
   <stop offset="1" id="stop4175" stop-color="#cdcdcd" stop-opacity="0.698"/>
  </linearGradient>
  <linearGradient inkscape:collect="always" id="linearGradient4142">
   <stop id="stop4144" stop-color="#909090" stop-opacity="0.519"/>
   <stop offset="1" id="stop4146" stop-color="#696969" stop-opacity="0"/>
  </linearGradient>
  <linearGradient inkscape:collect="always" xlink:href="#linearGradient4142" id="linearGradient4148" x1="165.74" y1="63.25" x2="278.75" y2="324.36" gradientUnits="userSpaceOnUse" gradientTransform="matrix(0.77077081,0,0,0.77077081,-80.822015,-34.561922)"/>
  <linearGradient inkscape:collect="always" xlink:href="#linearGradient4171" id="linearGradient4177" x1="379.78" y1="106.85" x2="387.93" y2="114.16" gradientUnits="userSpaceOnUse" spreadMethod="reflect" gradientTransform="matrix(0.77077081,0,0,0.77077081,-80.822015,-34.561922)"/>
  <linearGradient inkscape:collect="always" xlink:href="#linearGradient4171" id="linearGradient4207" gradientUnits="userSpaceOnUse" spreadMethod="reflect" x1="381.27" y1="108.46" x2="387.93" y2="114.16" gradientTransform="matrix(0.77077081,0,0,0.77077081,-60.158797,-54.897152)"/>
  <linearGradient inkscape:collect="always" xlink:href="#linearGradient4211" id="linearGradient4217" x1="284.7" y1="61.711" x2="281.1" y2="125.1" gradientUnits="userSpaceOnUse" gradientTransform="matrix(0.77077081,0,0,0.77077081,-80.822015,-34.561922)"/>
  <linearGradient inkscape:collect="always" xlink:href="#linearGradient4223" id="linearGradient4229" x1="259.02" y1="93.26" x2="255.7" y2="103.09" gradientUnits="userSpaceOnUse" gradientTransform="matrix(0.77077081,0,0,0.77077081,-80.822015,-34.561922)"/>
  <linearGradient inkscape:collect="always" xlink:href="#linearGradient4223" id="linearGradient4237" x1="262.84" y1="102.54" x2="258.99" y2="117.29" gradientUnits="userSpaceOnUse" gradientTransform="matrix(0.77077081,0,0,0.77077081,-80.822015,-34.561922)"/>
  <filter inkscape:collect="always" id="filter890" x="-0.009" width="1.019" y="-0.017" height="1.033" color-interpolation-filters="sRGB">
   <feGaussianBlur inkscape:collect="always" id="feGaussianBlur892"/>
  </filter>
  <linearGradient inkscape:collect="always" xlink:href="#linearGradient855" id="linearGradient857" x1="111.98" y1="193.78" x2="120.8" y2="166.74" gradientUnits="userSpaceOnUse"/>
  <linearGradient inkscape:collect="always" xlink:href="#linearGradient858" id="linearGradient860" x1="221.88" y1="54.649" x2="185.76" y2="86.1" gradientUnits="userSpaceOnUse"/>
  <linearGradient inkscape:collect="always" xlink:href="#linearGradient858" id="linearGradient864" gradientUnits="userSpaceOnUse" x1="221.88" y1="54.649" x2="185.76" y2="86.1" gradientTransform="translate(19.986222,-19.692307)"/>
 </defs>
 <g transform="translate(6.459787,3.4119265)" id="g1221">
  <g id="g888" transform="matrix(1.027092,0,0,0.87914716,269.10213,48.787807)" fill="#000000" filter="url(#filter890)" fill-opacity="0.128">
   <path transform="matrix(0.77077081,0,0,0.77077081,-337.33598,-64.706486)" sodipodi:nodetypes="ccccccc" inkscape:connector-curvature="0" id="path4150" d="m 177.77778,215.83334 -80.555558,82.4074 255.555558,88.42593 38.75029,-40.87068 c 4.25788,-4.69448 8.46018,-13.4447 8.35283,-19.27513 L 396.29629,282.5 Z" stroke-opacity="1" fill="#000000" fill-rule="evenodd" stroke="none" stroke-linejoin="miter" fill-opacity="0.128" stroke-linecap="butt" stroke-width="1"/>
   <path inkscape:connector-curvature="0" id="path866" d="m -258.76367,164.31055 c 64.25456,22.23242 128.50911,44.46484 192.76367,66.69726 10.704605,-12.11221 23.269675,-22.6975 32.626953,-35.88281 4.915466,-9.97175 -0.0014,-21.20106 0.334678,-31.66405 1.365667,-7.80464 -3.023601,-10.97488 -10.290126,-11.82807 -52.133991,-15.90432 -104.267985,-31.80864 -156.401975,-47.71296 -19.67773,20.13021 -39.35547,40.26042 -59.0332,60.39063 z" stroke-opacity="1" fill="#000000" fill-rule="evenodd" stroke="none" stroke-linejoin="miter" fill-opacity="0.128" stroke-linecap="butt" stroke-width="0.771"/>
   <path inkscape:connector-curvature="0" id="path872" d="m -255.12695,163.45117 c 62.83854,21.74284 125.67708,43.48568 188.515622,65.22852 10.661699,-12.45649 24.482587,-22.55662 32.46289,-37.08399 2.693429,-10.92369 -1.823197,-22.00405 -0.960937,-33.02148 -3.239054,-6.39155 -11.866064,-4.61259 -17.48133,-7.67536 -48.853875,-14.90314 -97.707755,-29.80627 -146.561635,-44.70941 -18.65821,19.08724 -37.31641,38.17448 -55.97461,57.26172 z" stroke-opacity="1" fill="#000000" fill-rule="evenodd" stroke="none" stroke-linejoin="miter" fill-opacity="0.128" stroke-linecap="butt" stroke-width="0.771"/>
   <path inkscape:connector-curvature="0" id="path878" d="m -251.49023,162.5918 c 61.41731,21.2513 122.83463,42.5026 184.251949,63.7539 10.44283,-12.37841 24.919813,-21.97631 31.529297,-37.15625 1.394259,-10.18414 -1.706975,-20.39676 -1.751954,-30.52929 -5.3153,-5.0699 -13.440876,-3.58672 -19.715715,-7.06986 -47.132517,-14.3771 -94.265047,-28.75421 -141.397567,-43.13132 -17.63867,18.04428 -35.27734,36.08855 -52.91601,54.13282 z" stroke-opacity="1" fill="#000000" fill-rule="evenodd" stroke="none" stroke-linejoin="miter" fill-opacity="0.128" stroke-linecap="butt" stroke-width="0.771"/>
  </g>
  <path d="M 31.923711,151.40704 27.003904,17.342113 c -0.04147,-4.96221 1.926333,-7.258395 6.149764,-6.149768 L 137.28972,39.891259 c 6.26366,1.792607 13.72694,-0.97619 14.75945,-11.889551 0.72147,-7.625757 3.60011,-13.61923 14.34945,-11.479565 l 66.0075,15.169425 c 4.94172,1.164855 6.02562,3.428063 5.73978,9.019659 l -1.63993,177.933263 -4.09985,4.50983 -196.443848,-65.00808 z" id="path4198" inkscape:connector-curvature="0" sodipodi:nodetypes="ccccsccccccc" stroke-opacity="1" fill="#000000" fill-rule="evenodd" stroke="none" stroke-linejoin="miter" fill-opacity="0.73" stroke-linecap="butt" stroke-width="0.771"/>
  <path sodipodi:nodetypes="ccccsccccccc" inkscape:connector-curvature="0" id="path4209" d="M 31.923711,151.40704 27.003904,17.342113 c -0.04147,-4.96221 1.926333,-7.258395 6.149764,-6.149768 L 137.28972,39.891259 c 6.26366,1.792607 13.72694,-0.97619 14.75945,-11.889551 0.72147,-7.625757 3.60011,-13.61923 14.34945,-11.479565 l 66.0075,15.169425 c 4.94172,1.164855 6.02562,3.428063 5.73978,9.019659 l -1.63993,177.933263 -4.09985,4.50983 -196.443848,-65.00808 z" stroke-opacity="1" fill="url(#linearGradient4217)" fill-rule="evenodd" stroke="none" stroke-linejoin="miter" fill-opacity="1" stroke-linecap="butt" stroke-width="0.771"/>
  <path inkscape:connector-curvature="0" id="path4221" d="M 29.107592,14.969579 235.06766,65.511931 235.91003,215.45423 37.952503,143.85257 Z" sodipodi:nodetypes="ccccc" stroke-opacity="0.705" fill="url(#linearGradient4229)" fill-rule="evenodd" stroke="#cecece" stroke-linejoin="miter" fill-opacity="1" stroke-linecap="butt" stroke-width="0.771"/>
  <path d="M 24.474542,21.708559 230.43461,72.250911 233.8041,217.98135 33.319453,150.59155 Z" id="path4219" inkscape:connector-curvature="0" stroke-opacity="0.705" fill="url(#linearGradient4237)" fill-rule="evenodd" stroke="#cecece" stroke-linejoin="miter" fill-opacity="1" stroke-linecap="butt" stroke-width="0.771"/>
  <path d="M 8.7444046,36.877113 C 9.6167788,33.377352 12.316797,29.913809 16.981856,31.061446 L 120.43481,60.785279 c 4.99573,1.261166 12.61202,0.256235 16.05773,-8.564119 3.08985,-7.909442 8.3813,-14.47471 19.6261,-12.48934 l 52.81208,10.705152 c 9.44452,2.53589 9.22385,9.003112 9.99147,14.273527 l 9.63463,158.436221 c 0.50082,5.73672 -4.43247,10.18422 -9.99147,7.85044 L 30.868387,167.83678 c -3.793857,-1.20188 -6.890645,-2.38715 -7.136768,-7.85044 z" id="path4138" inkscape:connector-curvature="0" sodipodi:nodetypes="cccscccccccc" stroke-opacity="1" fill="#000000" fill-rule="evenodd" stroke="none" stroke-linejoin="miter" fill-opacity="0.77" stroke-linecap="butt" stroke-width="0.771"/>
  <path sodipodi:nodetypes="cccsccccccsc" inkscape:connector-curvature="0" id="path4140" d="M 8.7444046,36.877113 C 9.6167788,33.377352 12.316797,29.913809 16.981856,31.061446 L 120.43481,60.785279 c 4.99573,1.261166 12.61202,0.256235 16.05773,-8.564119 3.08985,-7.909442 8.3813,-14.47471 19.6261,-12.48934 l 52.81208,10.705152 c 9.44452,2.53589 9.22385,9.003112 9.99147,14.273527 l 9.63463,158.436221 c 0.50082,5.73672 -4.43247,10.18422 -9.99147,7.85044 L 31.136761,168.85067 c -4.722273,-3.4223 -8.128602,-7.01445 -8.632556,-13.84742 C 20.224751,124.09697 11.401175,65.991481 8.7444046,36.877113 Z" stroke-opacity="1" fill="url(#linearGradient4148)" fill-rule="evenodd" stroke="none" stroke-linejoin="miter" fill-opacity="1" stroke-linecap="butt" stroke-width="0.771"/>
  <path inkscape:connector-curvature="0" d="m 19.607017,26.913071 c -2.88017,-0.04575 -4.833658,1.830128 -5.905731,4.126334 0.959671,-0.255062 2.049634,-0.280169 3.280285,0.02258 L 120.43498,60.784832 c 4.23816,1.069922 10.36086,0.506959 14.22463,-5.073237 -3.31914,1.838929 -7.06507,1.875224 -9.94324,1.148634 L 21.264475,27.135873 c -0.583135,-0.143455 -1.135469,-0.21451 -1.657458,-0.222802 z m 136.847943,8.535685 c -5.47778,0.02215 -9.24401,2.429575 -11.95748,5.964441 2.94992,-1.786966 6.72033,-2.546938 11.62177,-1.681544 l 52.81135,10.70498 c 9.44453,2.53589 9.2238,9.003905 9.99142,14.274321 l 9.63464,158.435546 c 0.13511,1.54767 -0.13551,2.99461 -0.69701,4.24677 3.15723,-0.99293 5.31942,-4.2823 4.9799,-8.17137 L 223.20492,60.784832 C 222.4373,55.514417 222.65802,49.047919 213.2135,46.51203 L 160.40065,35.807044 c -1.40561,-0.248171 -2.7188,-0.363249 -3.94569,-0.358288 z" id="path4164" stroke-opacity="1" fill="#848484" fill-rule="evenodd" stroke="none" stroke-linejoin="miter" fill-opacity="1" stroke-linecap="butt" stroke-width="0.771"/>
  <path id="path4169" d="m 208.9306,50.436633 c 9.44453,2.53589 9.2238,9.003905 9.99142,14.274321 1.68339,-1.586463 2.41577,-2.091371 4.2829,-3.926122 -0.76762,-5.270415 -0.5469,-11.736913 -9.99142,-14.272802 -1.84816,1.763315 -2.30646,2.157202 -4.2829,3.924603 z" inkscape:connector-curvature="0" sodipodi:nodetypes="ccccc" stroke-opacity="1" fill="url(#linearGradient4177)" fill-rule="evenodd" stroke="none" stroke-linejoin="miter" fill-opacity="1" stroke-linecap="butt" stroke-width="0.771"/>
  <path inkscape:connector-curvature="0" d="m 36.261385,7.3156224 c -2.060871,0.08655 -3.297411,1.389248 -3.777077,3.7289046 0.217349,0.04036 0.439123,0.08695 0.669908,0.14753 L 137.28957,39.891226 c 4.17106,1.193724 8.87183,0.36004 11.85361,-3.549761 -2.13645,0.618155 -4.44087,0.560862 -6.60575,-0.05871 L 38.402078,7.5850914 C 37.610188,7.3772234 36.8963,7.2889584 36.261385,7.3156224 Z M 167.97287,12.480689 c -4.16112,-0.09755 -6.73394,1.427983 -8.33547,3.880952 1.80879,-0.399933 4.02936,-0.382617 6.76081,0.161079 l 66.00778,15.168528 c 4.94171,1.164855 6.02598,3.428831 5.74014,9.020428 l -1.6409,177.932144 -0.36582,0.40194 1.51445,0.5013 4.09924,-4.51021 1.64089,-177.933646 c 0.28584,-5.591596 -0.79841,-7.854067 -5.74013,-9.018922 L 171.64607,12.914248 c -1.34366,-0.267458 -2.56433,-0.407564 -3.6732,-0.433559 z" id="path4200" stroke-opacity="1" fill="#858585" fill-rule="evenodd" stroke="none" stroke-linejoin="miter" fill-opacity="1" stroke-linecap="butt" stroke-width="0.771"/>
  <path sodipodi:nodetypes="ccccc" inkscape:connector-curvature="0" d="m 229.89414,31.062402 c 9.55917,2.210105 8.25999,3.841895 8.2496,14.234276 1.6834,-1.586462 3.27666,-2.892201 5.14379,-4.726951 0.37357,-9.354662 0.77448,-11.556725 -9.17056,-13.291783 -1.84817,1.763316 -2.24639,2.017057 -4.22283,3.784458 z" id="path4205" stroke-opacity="1" fill="url(#linearGradient4207)" fill-rule="evenodd" stroke="none" stroke-linejoin="miter" fill-opacity="1" stroke-linecap="butt" stroke-width="0.771"/>
  <path sodipodi:nodetypes="cccccc" inkscape:connector-curvature="0" id="path858" d="m 225.72675,196.33524 2.0574,24.39495 c 0.0295,8.34567 -2.0873,11.73805 -14.10792,7.34788 L 31.742824,167.82549 c -6.229286,-1.47576 -8.206505,-5.92013 -8.229621,-11.16877 l -2.057406,-24.10103" stroke-dasharray="none" stroke-opacity="1" fill="none" stroke="url(#linearGradient857)" stroke-linejoin="miter" fill-opacity="1" stroke-linecap="butt" stroke-width="2.1" stroke-miterlimit="4"/>
  <path d="m 156.11864,39.73182 52.81208,10.705152 c 9.44452,2.53589 9.22385,9.003112 9.99147,14.273527 l 4.07025,66.933111" id="path851" inkscape:connector-curvature="0" sodipodi:nodetypes="cccc" stroke-dasharray="none" stroke-opacity="1" fill="none" fill-rule="evenodd" stroke="url(#linearGradient860)" stroke-linejoin="miter" fill-opacity="1" stroke-linecap="butt" stroke-width="1" stroke-miterlimit="4"/>
  <path sodipodi:nodetypes="cccc" inkscape:connector-curvature="0" id="path862" d="m 176.39878,18.569938 52.51816,12.174727 c 11.79584,2.53589 9.22385,9.003112 9.99147,14.273527 l -2.98371,67.814858" stroke-dasharray="none" stroke-opacity="1" fill="none" fill-rule="evenodd" stroke="url(#linearGradient864)" stroke-linejoin="miter" fill-opacity="1" stroke-linecap="butt" stroke-width="1" stroke-miterlimit="4"/>
 </g>
 <path stroke-width="0.213" stroke-linecap="round" fill-opacity="1" stroke-linejoin="round" stroke="none" filter="url(#filter4278)" fill="url(#linearGradient4308)" stroke-opacity="1" id="path4289" d="m 70.893336,5.8059963 c -2.84832,0.244554 -4.84174,2.3328192 -4.84174,5.5297967 V 179.90233 c 0,4.26264 3.5374,8.84284 7.93094,10.26258 l 107.349094,11.02911 c 4.39353,1.41974 11.24906,0.25043 11.04944,-4.00261 l -2.64141,-56.27701 c -0.0478,-3.86708 -0.55324,-6.77423 -4.79415,-8.6752 l -8.99851,-3.1331 0.31346,-82.158582 c 0.0163,-4.264228 -3.5374,-8.842837 -7.93094,-10.262584 L 73.982536,6.1991913 c -1.09838,-0.354937 -2.13976,-0.474714 -3.0892,-0.393195 z M 92.072206,18.697 c 0.76368,-0.09843 1.61794,-0.01032 2.52483,0.298951 l 68.616004,23.401401 c 3.22451,1.099639 5.79571,4.523022 5.82195,7.676796 l 1.134,136.312942 c 0.0262,3.15379 -2.59744,4.80995 -5.82195,3.71031 l -73.718994,-8.09244 c -3.22451,-1.09963 -5.90449,-4.52398 -5.82196,-7.67678 l 3.96899,-151.621938 c 0.0593,-2.266075 1.34551,-3.757666 3.29713,-4.009242 z" inkscape:connector-curvature="0" sodipodi:nodetypes="sssccscccsccssccssccsss" stroke-miterlimit="4" transform="matrix(1.0426754,0,0,1.0426754,-7.1498767,-3.0850405)"/>
 <g transform="matrix(-1,0,0,1,49.582743,2.3088118)" id="g4495">
  <path fill-opacity="0.346" stroke="none" filter="url(#filter4254)" fill="#062c38" d="m 158.70496,14.523314 c -4.19123,0 -7.59375,3.40252 -7.59375,7.59375 0,4.044636 3.16826,7.336213 7.15625,7.5625 l 3.71875,7.96875 c -39.20722,30.159096 -55.12908,55.709473 -52.875,77.968746 0.52027,5.13773 2.51293,10.18959 8.125,11.65625 -19.824678,24.99309 -40.325828,42.97053 -62.312498,46.34375 15.79124,24.48587 58.034358,28.65757 71.812498,62.59375 23.95308,-11.44539 46.54655,-28.3236 57.71875,-60.6875 1.79746,-5.20692 0.93104,-7.65679 -0.9375,-8.15625 h -0.0313 l -7.5,-9.375 c 7.64134,-9.90272 18.08066,-17.90885 29.875,-24.75 l -15.625,-34.874996 50.46875,108.406246 6.375,-2.96875 -82.40625,-176.999996 c 1.02427,-1.293629 1.625,-2.909332 1.625,-4.6875 0,-4.19123 -3.40252,-7.59375 -7.59375,-7.59375 z" id="path30238" inkscape:connector-curvature="0" transform="matrix(0.90056614,0,0,0.90056614,-229.17615,26.077066)"/>
  <path stroke-width="0.76" fill-opacity="1" stroke="#000000" fill="url(#linearGradient3346-6)" stroke-opacity="1" d="m -94.248765,171.01134 17.592343,-15.09538 11.009412,13.73339 -14.868374,17.93285 z" id="rect3859" inkscape:connector-curvature="0" sodipodi:nodetypes="ccccc"/>
  <path stroke-width="0.76" stroke-linecap="butt" fill-opacity="1" stroke-linejoin="miter" stroke="#3caad1" fill="url(#linearGradient3350)" stroke-opacity="0.401" d="m -83.867417,52.370864 c -35.835923,27.401475 -50.371993,50.601656 -48.328263,70.783816 0.46854,4.62687 3.15119,7.70345 5.55695,11.67254 -17.85344,22.50793 -34.57292,37.52323 -54.37337,40.56103 14.22105,22.05114 52.27363,25.8212 64.68176,56.38298 21.571332,-10.30733 41.928198,-25.52857 51.989494,-54.6744 3.471871,-10.05742 -4.182031,-8.61595 -7.810629,-3.17307 l -4.881644,7.32246 c -7.279601,10.9194 -4.521104,-1.28597 -3.905315,-3.17306 5.61992,-17.22226 19.290388,-29.43052 35.880077,-39.05315 z" id="path3781" inkscape:connector-curvature="0" sodipodi:nodetypes="cscccsssscc"/>
  <path stroke="none" fill="none" d="m -129.73033,130.56225 47.996868,55.30074" id="path3849" inkscape:connector-curvature="0"/>
  <path stroke-width="0.76" stroke-linecap="butt" stroke-linejoin="miter" stroke="#3b8aa0" fill="none" stroke-opacity="0.264" d="m -130.2788,129.91648 48.172891,55.39883" id="path3851" inkscape:connector-curvature="0" sodipodi:nodetypes="cc"/>
  <rect stroke-width="0.76" fill-opacity="1" stroke="#000000" fill="url(#linearGradient3374)" stroke-opacity="1" id="rect2987" width="6.349" height="178.42" x="-99.05" y="1.861" transform="rotate(-24.96662)"/>
  <circle fill-opacity="1" stroke="none" fill="url(#radialGradient3376)" r="6.834" cy="38.946" cx="-87.53" id="path3765"/>
 </g>
</svg>
