<?xml version="1.0" encoding="UTF-8" standalone="no"?>
<!-- Created with Inkscape (http://www.inkscape.org/) -->

<svg
   xmlns:dc="http://purl.org/dc/elements/1.1/"
   xmlns:cc="http://creativecommons.org/ns#"
   xmlns:rdf="http://www.w3.org/1999/02/22-rdf-syntax-ns#"
   xmlns:svg="http://www.w3.org/2000/svg"
   xmlns="http://www.w3.org/2000/svg"
   xmlns:xlink="http://www.w3.org/1999/xlink"
   xmlns:sodipodi="http://sodipodi.sourceforge.net/DTD/sodipodi-0.dtd"
   xmlns:inkscape="http://www.inkscape.org/namespaces/inkscape"
   width="256"
   height="256"
   id="svg2"
   sodipodi:version="0.32"
   inkscape:version="0.91 r13725"
   sodipodi:docname="folder-letters.svg"
   inkscape:output_extension="org.inkscape.output.svg.inkscape"
   version="1.1">
  <sodipodi:namedview
     id="base"
     pagecolor="#ffffff"
     bordercolor="#666666"
     borderopacity="1.0"
     gridtolerance="10000"
     guidetolerance="10"
     objecttolerance="10"
     inkscape:pageopacity="0"
     inkscape:pageshadow="2"
     inkscape:zoom="3.5429688"
     inkscape:cx="128"
     inkscape:cy="128"
     inkscape:document-units="px"
     inkscape:current-layer="layer1"
     showgrid="false"
     inkscape:window-width="1920"
     inkscape:window-height="1056"
     inkscape:window-x="0"
     inkscape:window-y="0"
     inkscape:window-maximized="1" />
  <defs
     id="defs4">
    <linearGradient
       id="linearGradient3243">
      <stop
         id="stop3245"
         stop-color="#ffffff"
         stop-opacity="1" />
      <stop
         offset="1"
         id="stop3247"
         stop-color="#ffffff"
         stop-opacity="0" />
    </linearGradient>
    <linearGradient
       id="linearGradient3223">
      <stop
         id="stop3225"
         stop-color="#585858"
         stop-opacity="1" />
      <stop
         offset="1"
         id="stop3227"
         stop-color="#ffffff"
         stop-opacity="0.655" />
    </linearGradient>
    <linearGradient
       id="linearGradient3213">
      <stop
         id="stop3215"
         stop-color="#ffffff"
         stop-opacity="0.46" />
      <stop
         offset="1"
         id="stop3217"
         stop-color="#ffffff"
         stop-opacity="0" />
    </linearGradient>
    <linearGradient
       id="linearGradient3203">
      <stop
         id="stop3205"
         stop-color="#000000"
         stop-opacity="1" />
      <stop
         offset="1"
         id="stop3207"
         stop-color="#5a5a5a"
         stop-opacity="1" />
    </linearGradient>
    <linearGradient
       id="linearGradient3193">
      <stop
         id="stop3195"
         stop-color="#ffffff"
         stop-opacity="0.425" />
      <stop
         offset="1"
         id="stop3197"
         stop-color="#ffffff"
         stop-opacity="0" />
    </linearGradient>
    <linearGradient
       inkscape:collect="always"
       xlink:href="#linearGradient3243"
       id="linearGradient3296"
       gradientUnits="userSpaceOnUse"
       gradientTransform="matrix(1.3225315,0,0,0.9869256,2.5288756,1.3309923)"
       spreadMethod="reflect"
       x1="3.141"
       y1="99.81"
       x2="3.141"
       y2="103.39" />
    <linearGradient
       inkscape:collect="always"
       xlink:href="#linearGradient3243"
       id="linearGradient3298"
       gradientUnits="userSpaceOnUse"
       spreadMethod="reflect"
       x1="267.48"
       y1="98.35"
       x2="267.48"
       y2="105.16" />
    <linearGradient
       inkscape:collect="always"
       xlink:href="#linearGradient3203"
       id="linearGradient3300"
       gradientUnits="userSpaceOnUse"
       gradientTransform="matrix(1.0102395,0,0,0.9996644,0.4891599,19.628429)"
       spreadMethod="reflect"
       x1="124.63"
       y1="84.17"
       x2="124.63"
       y2="80.895" />
    <linearGradient
       inkscape:collect="always"
       xlink:href="#linearGradient3193"
       id="linearGradient3302"
       gradientUnits="userSpaceOnUse"
       spreadMethod="reflect"
       x1="131.09"
       y1="97.4"
       x2="131.09"
       y2="105.34" />
    <linearGradient
       inkscape:collect="always"
       xlink:href="#linearGradient3213"
       id="linearGradient3304"
       gradientUnits="userSpaceOnUse"
       gradientTransform="translate(0,-1.6363636)"
       spreadMethod="reflect"
       x1="124.98"
       y1="98.47"
       x2="124.98"
       y2="101.45" />
    <linearGradient
       inkscape:collect="always"
       xlink:href="#linearGradient3223"
       id="linearGradient3306"
       gradientUnits="userSpaceOnUse"
       gradientTransform="matrix(1.320748,0,0,0.9968328,-74.260043,0.3230498)"
       spreadMethod="reflect"
       x1="244.66"
       y1="109.09"
       x2="244.8"
       y2="96.73" />
    <linearGradient
       inkscape:collect="always"
       xlink:href="#linearGradient3243"
       id="linearGradient3308"
       gradientUnits="userSpaceOnUse"
       x1="249.07"
       y1="99.28"
       x2="248.4"
       y2="109.3" />
    <linearGradient
       inkscape:collect="always"
       xlink:href="#linearGradient3243"
       id="linearGradient3310"
       gradientUnits="userSpaceOnUse"
       spreadMethod="reflect"
       x1="12.738"
       y1="98.55"
       x2="14.11"
       y2="105.75" />
    <linearGradient
       inkscape:collect="always"
       id="linearGradient4167">
      <stop
         id="stop4169"
         stop-color="#adadad"
         stop-opacity="0.624" />
      <stop
         offset="1"
         id="stop4171"
         stop-color="#ffffff"
         stop-opacity="0.973" />
    </linearGradient>
    <linearGradient
       id="linearGradient4223"
       inkscape:collect="always">
      <stop
         id="stop4225"
         stop-color="#bebebe"
         stop-opacity="0.803" />
      <stop
         id="stop4227"
         offset="1"
         stop-color="#9f9f9f"
         stop-opacity="0.732" />
    </linearGradient>
    <linearGradient
       id="linearGradient4211"
       inkscape:collect="always">
      <stop
         id="stop4213"
         stop-color="#9f9f9f"
         stop-opacity="0.634" />
      <stop
         id="stop4215"
         offset="1"
         stop-color="#696969"
         stop-opacity="0" />
    </linearGradient>
    <linearGradient
       id="linearGradient4171"
       inkscape:collect="always">
      <stop
         id="stop4173"
         stop-color="#b2b2b2"
         stop-opacity="0.624" />
      <stop
         id="stop4175"
         offset="1"
         stop-color="#ffffff"
         stop-opacity="0.698" />
    </linearGradient>
    <linearGradient
       id="linearGradient4142"
       inkscape:collect="always">
      <stop
         id="stop4144"
         stop-color="#909090"
         stop-opacity="0.519" />
      <stop
         id="stop4146"
         offset="1"
         stop-color="#696969"
         stop-opacity="0" />
    </linearGradient>
    <linearGradient
       gradientUnits="userSpaceOnUse"
       y2="324.36"
       x2="278.75"
       y1="63.25"
       x1="165.74"
       id="linearGradient4148"
       xlink:href="#linearGradient4142"
       inkscape:collect="always" />
    <filter
       height="1.1"
       y="-0.05"
       width="1.056"
       x="-0.028"
       id="filter4160"
       inkscape:collect="always"
       color-interpolation-filters="sRGB">
      <feGaussianBlur
         id="feGaussianBlur4162"
         stdDeviation="3.56251"
         inkscape:collect="always" />
    </filter>
    <linearGradient
       spreadMethod="reflect"
       gradientUnits="userSpaceOnUse"
       y2="114.16"
       x2="387.93"
       y1="106.85"
       x1="379.78"
       id="linearGradient4177"
       xlink:href="#linearGradient4167"
       inkscape:collect="always" />
    <linearGradient
       gradientTransform="translate(26.808511,-26.382979)"
       y2="114.16"
       x2="387.93"
       y1="108.46"
       x1="381.27"
       spreadMethod="reflect"
       gradientUnits="userSpaceOnUse"
       id="linearGradient4207"
       xlink:href="#linearGradient4171"
       inkscape:collect="always" />
    <linearGradient
       gradientUnits="userSpaceOnUse"
       y2="125.1"
       x2="281.1"
       y1="61.711"
       x1="284.7"
       id="linearGradient4217"
       xlink:href="#linearGradient4211"
       inkscape:collect="always" />
    <linearGradient
       gradientUnits="userSpaceOnUse"
       y2="103.09"
       x2="255.7"
       y1="93.26"
       x1="259.02"
       id="linearGradient4229"
       xlink:href="#linearGradient4223"
       inkscape:collect="always" />
    <linearGradient
       gradientUnits="userSpaceOnUse"
       y2="117.29"
       x2="258.99"
       y1="102.54"
       x1="262.84"
       id="linearGradient4237"
       xlink:href="#linearGradient4223"
       inkscape:collect="always" />
    <filter
       height="1.136"
       y="-0.068"
       width="1.049"
       x="-0.024"
       id="filter4257"
       inkscape:collect="always"
       color-interpolation-filters="sRGB">
      <feGaussianBlur
         id="feGaussianBlur4259"
         stdDeviation="2.75443"
         inkscape:collect="always" />
    </filter>
    <linearGradient
       inkscape:collect="always"
       xlink:href="#linearGradient3243"
       id="linearGradient4222"
       gradientUnits="userSpaceOnUse"
       gradientTransform="matrix(1.3225315,0,0,0.9869256,2.5288756,1.3309923)"
       spreadMethod="reflect"
       x1="3.141"
       y1="99.81"
       x2="3.141"
       y2="103.39" />
    <linearGradient
       inkscape:collect="always"
       xlink:href="#linearGradient3243"
       id="linearGradient4224"
       gradientUnits="userSpaceOnUse"
       spreadMethod="reflect"
       x1="267.48"
       y1="98.35"
       x2="267.48"
       y2="105.16" />
    <linearGradient
       inkscape:collect="always"
       xlink:href="#linearGradient3203"
       id="linearGradient4226"
       gradientUnits="userSpaceOnUse"
       gradientTransform="matrix(1.0102395,0,0,0.9996644,0.4891599,19.628429)"
       spreadMethod="reflect"
       x1="124.63"
       y1="84.17"
       x2="124.63"
       y2="80.895" />
    <linearGradient
       inkscape:collect="always"
       xlink:href="#linearGradient3193"
       id="linearGradient4228"
       gradientUnits="userSpaceOnUse"
       spreadMethod="reflect"
       x1="131.09"
       y1="97.4"
       x2="131.09"
       y2="105.34" />
    <linearGradient
       inkscape:collect="always"
       xlink:href="#linearGradient3213"
       id="linearGradient4230"
       gradientUnits="userSpaceOnUse"
       gradientTransform="translate(0,-1.6363636)"
       spreadMethod="reflect"
       x1="124.98"
       y1="98.47"
       x2="124.98"
       y2="101.45" />
    <linearGradient
       inkscape:collect="always"
       xlink:href="#linearGradient3223"
       id="linearGradient4232"
       gradientUnits="userSpaceOnUse"
       gradientTransform="matrix(1.320748,0,0,0.9968328,-74.260043,0.3230498)"
       spreadMethod="reflect"
       x1="244.66"
       y1="109.09"
       x2="244.8"
       y2="96.73" />
    <linearGradient
       inkscape:collect="always"
       xlink:href="#linearGradient3243"
       id="linearGradient4234"
       gradientUnits="userSpaceOnUse"
       x1="249.07"
       y1="99.28"
       x2="248.4"
       y2="109.3" />
    <linearGradient
       inkscape:collect="always"
       xlink:href="#linearGradient3243"
       id="linearGradient4236"
       gradientUnits="userSpaceOnUse"
       spreadMethod="reflect"
       x1="12.738"
       y1="98.55"
       x2="14.11"
       y2="105.75" />
  </defs>
  <metadata
     id="metadata7">
    <rdf:RDF>
      <cc:Work>
        <dc:format>image/svg+xml</dc:format>
        <dc:type
           rdf:resource="http://purl.org/dc/dcmitype/StillImage" />
      </cc:Work>
    </rdf:RDF>
  </metadata>
  <g
     id="layer1"
     inkscape:groupmode="layer"
     inkscape:label="Layer 1">
    <g
       transform="matrix(0.77128144,0,0,0.77128144,-82.967977,-22.07642)"
       id="g4261">
      <path
         d="m 137.15847,253.33333 1.0929,10.92897 c 1.69466,2.56439 1.62485,5.1824 6.55737,7.10382 l 234.9905,77.59563 c 4.36168,2.76045 7.27409,1.93611 10.91114,-1.0929 l 16.39344,-17.48633 z"
         id="path4239"
         inkscape:connector-curvature="0"
         sodipodi:nodetypes="ccccccc"
         stroke-opacity="1"
         fill="#000000"
         filter="url(#filter4257)"
         fill-rule="evenodd"
         stroke="none"
         stroke-linejoin="miter"
         fill-opacity="0.514"
         stroke-linecap="butt"
         stroke-width="1" />
      <path
         d="M 146.27659,241.2766 139.89362,67.340426 c -0.0538,-6.437983 2.49923,-9.41706 7.97872,-7.978724 l 135.10638,37.234043 c 8.12648,2.325734 17.80936,-1.266511 19.14894,-15.425533 0.93604,-9.893676 4.6708,-17.669623 18.61702,-14.893617 l 85.6383,19.680851 c 6.41139,1.511285 7.81765,4.447577 7.4468,11.702128 l -2.12765,230.851066 -5.31915,5.85106 -254.86675,-84.34164 z"
         id="path4198"
         inkscape:connector-curvature="0"
         sodipodi:nodetypes="ccccsccccccc"
         stroke-opacity="1"
         fill="#000000"
         fill-rule="evenodd"
         stroke="none"
         stroke-linejoin="miter"
         fill-opacity="0.73"
         stroke-linecap="butt"
         stroke-width="1" />
      <path
         sodipodi:nodetypes="ccccsccccccc"
         inkscape:connector-curvature="0"
         id="path4209"
         d="M 146.27659,241.2766 139.89362,67.340426 c -0.0538,-6.437983 2.49923,-9.41706 7.97872,-7.978724 l 135.10638,37.234043 c 8.12648,2.325734 17.80936,-1.266511 19.14894,-15.425533 0.93604,-9.893676 4.6708,-17.669623 18.61702,-14.893617 l 85.6383,19.680851 c 6.41139,1.511285 7.81765,4.447577 7.4468,11.702128 l -2.12765,230.851066 -5.31915,5.85106 -254.86675,-84.34164 z"
         stroke-opacity="1"
         fill="url(#linearGradient4217)"
         fill-rule="evenodd"
         stroke="none"
         stroke-linejoin="miter"
         fill-opacity="1"
         stroke-linecap="butt"
         stroke-width="1" />
      <path
         inkscape:connector-curvature="0"
         id="path4221"
         d="m 142.62295,64.262295 267.21311,65.573775 1.0929,194.53552 -256.8306,-92.89618 z"
         sodipodi:nodetypes="ccccc"
         stroke-opacity="0.705"
         fill="url(#linearGradient4229)"
         fill-rule="evenodd"
         stroke="#cecece"
         stroke-linejoin="miter"
         fill-opacity="1"
         stroke-linecap="butt"
         stroke-width="1" />
      <path
         d="m 136.61202,73.005464 267.21311,65.573776 4.37159,189.07104 -260.10929,-87.4317 z"
         id="path4219"
         inkscape:connector-curvature="0"
         stroke-opacity="0.705"
         fill="url(#linearGradient4237)"
         fill-rule="evenodd"
         stroke="#cecece"
         stroke-linejoin="miter"
         fill-opacity="1"
         stroke-linecap="butt"
         stroke-width="1" />
      <path
         d="m 116.2037,92.685185 c 1.13182,-4.540599 4.63483,-9.034209 10.68729,-7.545261 L 261.11111,123.7037 c 6.48148,1.63624 16.36287,0.33244 20.83334,-11.11111 4.00878,-10.26173 10.87392,-18.779525 25.46296,-16.203701 l 68.51852,13.888891 c 12.25335,3.29007 11.96705,11.68066 12.96296,18.51851 l 12.5,205.55556 c 0.64976,7.44283 -5.7507,13.21303 -12.96296,10.18518 L 144.90741,262.59259 c -4.92216,-1.55932 -8.93994,-3.09709 -9.25926,-10.18518 z"
         id="path4138"
         inkscape:connector-curvature="0"
         sodipodi:nodetypes="cccscccccccc"
         stroke-opacity="1"
         fill="#000000"
         fill-rule="evenodd"
         stroke="none"
         stroke-linejoin="miter"
         fill-opacity="0.77"
         stroke-linecap="butt"
         stroke-width="1" />
      <path
         sodipodi:nodetypes="cccsccccccc"
         inkscape:connector-curvature="0"
         id="path4140"
         d="m 116.2037,92.685185 c 1.13182,-4.540599 4.63483,-9.034209 10.68729,-7.545261 L 261.11111,123.7037 c 6.48148,1.63624 16.36287,0.33244 20.83334,-11.11111 4.00878,-10.26173 10.87392,-18.779525 25.46296,-16.203701 l 68.51852,13.888891 c 12.25335,3.29007 11.96705,11.68066 12.96296,18.51851 l 12.5,205.55556 c 0.64976,7.44283 -5.7507,13.21303 -12.96296,10.18518 L 209.72222,283.88889 C 173.76467,257.82993 120.35853,138.21611 116.2037,92.685185 Z"
         stroke-opacity="1"
         fill="url(#linearGradient4148)"
         fill-rule="evenodd"
         stroke="none"
         stroke-linejoin="miter"
         fill-opacity="1"
         stroke-linecap="butt"
         stroke-width="1" />
      <path
         d="m 177.77778,215.83334 -80.555558,82.4074 255.555558,88.42593 38.75029,-40.87068 c 4.63488,-1.3015 9.96817,-1.38077 9.86082,-10.98118 L 396.29629,282.5 Z"
         id="path4150"
         inkscape:connector-curvature="0"
         sodipodi:nodetypes="ccccccc"
         stroke-opacity="1"
         fill="#000000"
         filter="url(#filter4160)"
         fill-rule="evenodd"
         stroke="none"
         stroke-linejoin="miter"
         fill-opacity="0.273"
         stroke-linecap="butt"
         stroke-width="1" />
      <path
         inkscape:connector-curvature="0"
         d="m 130.29688,79.757812 c -3.73674,-0.05935 -6.2712,2.374412 -7.66211,5.353516 1.24508,-0.330919 2.6592,-0.363492 4.25585,0.0293 l 134.22071,38.562492 c 5.49861,1.38812 13.44221,0.65773 18.45508,-6.58203 -4.30627,2.38583 -9.16625,2.43292 -12.90039,1.49024 L 132.44727,80.046875 c -0.75656,-0.186118 -1.47316,-0.278306 -2.15039,-0.289063 z m 177.54687,11.074219 c -7.10689,0.02874 -11.9932,3.152137 -15.51367,7.738281 3.82724,-2.318415 8.71897,-3.304404 15.07812,-2.18164 l 68.51758,13.888668 c 12.25335,3.29007 11.96698,11.68169 12.96289,18.51954 l 12.5,205.55468 c 0.1753,2.00795 -0.17581,3.88521 -0.90429,5.50977 4.09619,-1.28823 6.90142,-5.55587 6.46093,-10.60156 l -12.5,-205.55665 c -0.99591,-6.83785 -0.70954,-15.2275 -12.96289,-18.51757 L 312.96289,91.296875 c -1.82363,-0.321978 -3.52737,-0.47128 -5.11914,-0.464844 z"
         id="path4164"
         stroke-opacity="1"
         fill="#b5b5b5"
         fill-rule="evenodd"
         stroke="none"
         stroke-linejoin="miter"
         fill-opacity="1"
         stroke-linecap="butt"
         stroke-width="1" />
      <path
         id="path4169"
         d="m 375.92578,110.27734 c 12.25335,3.29007 11.96698,11.68169 12.96289,18.51954 2.18404,-2.05828 3.13422,-2.71335 5.55664,-5.09376 -0.99591,-6.83785 -0.70954,-15.2275 -12.96289,-18.51757 -2.39781,2.28773 -2.9924,2.79876 -5.55664,5.09179 z"
         inkscape:connector-curvature="0"
         sodipodi:nodetypes="ccccc"
         stroke-opacity="1"
         fill="url(#linearGradient4177)"
         fill-rule="evenodd"
         stroke="none"
         stroke-linejoin="miter"
         fill-opacity="1"
         stroke-linecap="butt"
         stroke-width="1" />
      <path
         inkscape:connector-curvature="0"
         d="m 151.9043,54.332031 c -2.67378,0.112285 -4.27807,1.802415 -4.90039,4.837891 0.28199,0.05237 0.56972,0.11281 0.86914,0.191406 l 135.10547,37.234375 c 5.41154,1.54874 11.51034,0.467116 15.3789,-4.605469 -2.77183,0.801996 -5.76159,0.727663 -8.57031,-0.07617 L 154.68164,54.681641 c -1.0274,-0.269688 -1.9536,-0.384203 -2.77734,-0.34961 z m 170.88281,6.701172 c -5.39865,-0.126557 -8.73663,1.852669 -10.81445,5.035156 2.34672,-0.518874 5.2277,-0.496408 8.77148,0.208985 l 85.63867,19.679687 c 6.41139,1.511285 7.81812,4.448574 7.44727,11.703125 l -2.12891,230.849614 -0.47461,0.52148 1.96485,0.65039 5.31836,-5.85156 2.1289,-230.851564 c 0.37085,-7.254551 -1.03587,-10.189887 -7.44726,-11.701172 L 327.55273,61.595703 c -1.74327,-0.347001 -3.32697,-0.528775 -4.76562,-0.5625 z"
         id="path4200"
         stroke-opacity="1"
         fill="#b0b0b0"
         fill-rule="evenodd"
         stroke="none"
         stroke-linejoin="miter"
         fill-opacity="1"
         stroke-linecap="butt"
         stroke-width="1" />
      <path
         sodipodi:nodetypes="ccccc"
         inkscape:connector-curvature="0"
         d="m 403.12392,85.141164 c 12.4021,2.867396 10.71654,4.984484 10.70306,18.467586 2.18404,-2.05828 4.25114,-3.752349 6.67356,-6.132759 0.48467,-12.136762 1.00482,-14.993724 -11.89791,-17.244792 -2.39781,2.28773 -2.91447,2.616935 -5.47871,4.909965 z"
         id="path4205"
         stroke-opacity="1"
         fill="url(#linearGradient4207)"
         fill-rule="evenodd"
         stroke="none"
         stroke-linejoin="miter"
         fill-opacity="1"
         stroke-linecap="butt"
         stroke-width="1" />
    </g>
    <g
       id="g3281"
       transform="matrix(-0.58497733,-0.62286214,-0.62286214,0.58497733,298.40931,146.37302)">
      <rect
         rx="1.729"
         ry="3.2260001"
         y="98.580002"
         x="-7.665"
         height="6.4530001"
         width="30.129999"
         id="rect3271"
         stroke-miterlimit="4"
         style="fill:url(#linearGradient4222);fill-opacity:1;stroke:#1c1c1c;stroke-width:0.685;stroke-linecap:round;stroke-linejoin:round;stroke-miterlimit:4;stroke-dasharray:none;stroke-opacity:0.56300001" />
      <rect
         ry="7.2620001"
         rx="3.26"
         y="94.82"
         x="239.33"
         height="14.524"
         width="41"
         id="rect3251"
         style="fill:url(#linearGradient4224);fill-opacity:1;stroke:none" />
      <rect
         id="rect3231"
         width="31.938"
         height="23.200001"
         x="231.67"
         y="90.400002"
         ry="11.6"
         rx="4.803"
         stroke-miterlimit="4"
         style="fill:#5a5a5a;fill-opacity:0.53899997;stroke:#000000;stroke-width:0.574;stroke-linecap:round;stroke-linejoin:round;stroke-miterlimit:4;stroke-dasharray:none;stroke-opacity:1" />
      <rect
         y="98.459999"
         x="23.973"
         height="7.3540001"
         width="214.63"
         id="rect3201"
         stroke-miterlimit="4"
         style="fill:url(#linearGradient4226);fill-opacity:1;stroke:#000000;stroke-width:0.50199997;stroke-linecap:round;stroke-linejoin:round;stroke-miterlimit:4;stroke-dasharray:none;stroke-opacity:1" />
      <rect
         rx="3.5309999"
         ry="9.4160004"
         y="92.400002"
         x="22.952"
         height="18.832001"
         width="216.28"
         id="rect2421"
         stroke-miterlimit="4"
         style="fill:url(#linearGradient4228);fill-opacity:1;stroke:#000000;stroke-width:1;stroke-linecap:round;stroke-linejoin:round;stroke-miterlimit:4;stroke-dasharray:none;stroke-opacity:1" />
      <rect
         y="94.110001"
         x="24.319"
         height="5.4450002"
         width="213.61"
         id="rect3211"
         style="fill:url(#linearGradient4230);fill-opacity:1;stroke:none" />
      <rect
         rx="4.803"
         ry="11.6"
         y="90.400002"
         x="231.67"
         height="23.200001"
         width="31.938"
         id="rect3221"
         stroke-miterlimit="4"
         style="fill:url(#linearGradient4232);fill-opacity:1;stroke:#777777;stroke-width:0.574;stroke-linecap:round;stroke-linejoin:round;stroke-miterlimit:4;stroke-dasharray:none;stroke-opacity:0.58699999" />
      <path
         sodipodi:nodetypes="cccccccccccc"
         id="path3233"
         d="m 242.2452,90.564254 10.33973,-0.14771 c 3.81313,7.50443 3.50212,15.352596 -0.14771,23.190546 l -10.47079,12.6567 -118.70504,-1.67866 c -1.60047,0.16625 -0.98047,-2.23821 0,-3.35731 2.06328,-2.97114 4.82529,-4.079 7.91367,-4.31655 l 11.58755,0.0345 c 3.17384,0.34123 3.61197,2.50627 4.89017,4.11127 l 90.47672,-1.74771 3.35731,-5.51559 c 5.23268,-7.17913 4.03368,-15.024226 0.75839,-23.229506 z"
         inkscape:connector-curvature="0"
         stroke-miterlimit="4"
         style="fill:#d5d5d5;fill-opacity:0.76700003;fill-rule:evenodd;stroke:#8d8d8d;stroke-width:0.5;stroke-linecap:butt;stroke-linejoin:miter;stroke-miterlimit:4;stroke-dasharray:none;stroke-opacity:0.544" />
      <path
         sodipodi:nodetypes="ccccc"
         id="path3235"
         d="m 124.8072,121.9383 c 1.48614,-1.59336 2.91461,-3.28284 5.39846,-3.21336 l 11.95372,-0.38561 c 3.58922,0.93431 3.41575,2.8093 4.49872,4.37018 l 91.25964,-1.92802"
         inkscape:connector-curvature="0"
         stroke-miterlimit="4"
         style="fill:none;stroke:#ffffff;stroke-width:1.79999995;stroke-linecap:round;stroke-linejoin:round;stroke-miterlimit:4;stroke-dasharray:none;stroke-opacity:0.51499999" />
      <path
         d="m 124.8072,121.9383 c 1.48614,-1.59336 2.91461,-3.28284 5.39846,-3.21336 l 11.95372,-0.38561 c 3.58922,0.93431 3.41575,2.8093 4.49872,4.37018 l 91.25964,-1.92802"
         id="path3237"
         sodipodi:nodetypes="ccccc"
         inkscape:connector-curvature="0"
         stroke-miterlimit="4"
         style="fill:none;stroke:#ffffff;stroke-width:0.69999999;stroke-linecap:round;stroke-linejoin:round;stroke-miterlimit:4;stroke-dasharray:none;stroke-opacity:0.51499999" />
      <path
         sodipodi:nodetypes="cc"
         id="path3239"
         d="m 123.65039,124.25192 118.12339,1.28536"
         inkscape:connector-curvature="0"
         stroke-miterlimit="4"
         style="fill:none;stroke:#000000;stroke-width:0.69999999;stroke-linecap:butt;stroke-linejoin:miter;stroke-miterlimit:4;stroke-dasharray:none;stroke-opacity:0.46100003" />
      <path
         d="m 242.2452,90.564254 10.33973,-0.14771 c 3.81313,7.50443 3.50212,15.352596 -0.14771,23.190546 l -10.95041,0.18667 c 5.23268,-7.17913 4.03368,-15.024226 0.75839,-23.229506 z"
         id="path3241"
         sodipodi:nodetypes="ccccc"
         inkscape:connector-curvature="0"
         style="fill:url(#linearGradient4234);fill-opacity:1;fill-rule:evenodd;stroke:none" />
      <path
         sodipodi:nodetypes="ccccc"
         id="path3261"
         d="m 26.22108,92.760925 c -1.156813,0 -23.1362471,6.041131 -23.1362471,6.041131 l -0.1285347,5.912594 23.1362468,6.16967 C 24.733512,104.84319 24.838328,98.802055 26.22108,92.760925 Z"
         inkscape:connector-curvature="0"
         stroke-miterlimit="4"
         style="fill:url(#linearGradient4236);fill-opacity:1;fill-rule:evenodd;stroke:#5a5a5a;stroke-width:0.60000002;stroke-linecap:butt;stroke-linejoin:miter;stroke-miterlimit:4;stroke-dasharray:none;stroke-opacity:0.56300001" />
    </g>
    <g
       transform="matrix(-0.58497733,-0.62286214,-0.62286214,0.58497733,262.1413,158.84587)"
       id="g3476">
      <rect
         id="rect3478"
         width="30.13"
         height="6.453"
         x="-7.665"
         y="98.58"
         ry="3.226"
         rx="1.729"
         stroke-dasharray="none"
         stroke-opacity="0.563"
         fill="url(#linearGradient3296)"
         stroke="#1c1c1c"
         stroke-linejoin="round"
         fill-opacity="1"
         stroke-linecap="round"
         stroke-width="0.685"
         stroke-miterlimit="4" />
      <rect
         id="rect3480"
         width="41"
         height="14.524"
         x="239.33"
         y="94.82"
         rx="3.26"
         ry="7.262"
         fill="url(#linearGradient3298)"
         stroke="none"
         fill-opacity="1" />
      <rect
         rx="4.803"
         ry="11.6"
         y="90.4"
         x="231.67"
         height="23.2"
         width="31.938"
         id="rect3482"
         stroke-dasharray="none"
         stroke-opacity="1"
         fill="#5a5a5a"
         stroke="#000000"
         stroke-linejoin="round"
         fill-opacity="0.539"
         stroke-linecap="round"
         stroke-width="0.574"
         stroke-miterlimit="4" />
      <rect
         id="rect3484"
         width="214.63"
         height="7.354"
         x="23.973"
         y="98.46"
         stroke-dasharray="none"
         stroke-opacity="1"
         fill="url(#linearGradient3300)"
         stroke="#000000"
         stroke-linejoin="round"
         fill-opacity="1"
         stroke-linecap="round"
         stroke-width="0.502"
         stroke-miterlimit="4" />
      <rect
         id="rect3486"
         width="216.28"
         height="18.832"
         x="22.952"
         y="92.4"
         ry="9.416"
         rx="3.531"
         stroke-dasharray="none"
         stroke-opacity="1"
         fill="url(#linearGradient3302)"
         stroke="#000000"
         stroke-linejoin="round"
         fill-opacity="1"
         stroke-linecap="round"
         stroke-width="1"
         stroke-miterlimit="4" />
      <rect
         id="rect3488"
         width="213.61"
         height="5.445"
         x="24.319"
         y="94.11"
         fill="url(#linearGradient3304)"
         stroke="none"
         fill-opacity="1" />
      <rect
         id="rect3490"
         width="31.938"
         height="23.2"
         x="231.67"
         y="90.4"
         ry="11.6"
         rx="4.803"
         stroke-dasharray="none"
         stroke-opacity="0.587"
         fill="url(#linearGradient3306)"
         stroke="#777777"
         stroke-linejoin="round"
         fill-opacity="1"
         stroke-linecap="round"
         stroke-width="0.574"
         stroke-miterlimit="4" />
      <path
         inkscape:connector-curvature="0"
         d="m 242.2452,90.564254 10.33973,-0.14771 c 3.81313,7.50443 3.50212,15.352596 -0.14771,23.190546 l -10.47079,12.6567 -118.70504,-1.67866 c -1.60047,0.16625 -0.98047,-2.23821 0,-3.35731 2.06328,-2.97114 4.82529,-4.079 7.91367,-4.31655 l 11.58755,0.0345 c 3.17384,0.34123 3.61197,2.50627 4.89017,4.11127 l 90.47672,-1.74771 3.35731,-5.51559 c 5.23268,-7.17913 4.03368,-15.024226 0.75839,-23.229506 z"
         id="path3492"
         sodipodi:nodetypes="cccccccccccc"
         stroke-dasharray="none"
         stroke-opacity="0.544"
         fill="#d5d5d5"
         fill-rule="evenodd"
         stroke="#8d8d8d"
         stroke-linejoin="miter"
         fill-opacity="0.767"
         stroke-linecap="butt"
         stroke-width="0.5"
         stroke-miterlimit="4" />
      <path
         inkscape:connector-curvature="0"
         d="m 124.8072,121.9383 c 1.48614,-1.59336 2.91461,-3.28284 5.39846,-3.21336 l 11.95372,-0.38561 c 3.58922,0.93431 3.41575,2.8093 4.49872,4.37018 l 91.25964,-1.92802"
         id="path3494"
         sodipodi:nodetypes="ccccc"
         stroke-dasharray="none"
         stroke-opacity="0.515"
         fill="none"
         stroke="#ffffff"
         stroke-linejoin="round"
         stroke-linecap="round"
         stroke-width="1.8"
         stroke-miterlimit="4" />
      <path
         inkscape:connector-curvature="0"
         sodipodi:nodetypes="ccccc"
         id="path3496"
         d="m 124.8072,121.9383 c 1.48614,-1.59336 2.91461,-3.28284 5.39846,-3.21336 l 11.95372,-0.38561 c 3.58922,0.93431 3.41575,2.8093 4.49872,4.37018 l 91.25964,-1.92802"
         stroke-dasharray="none"
         stroke-opacity="0.515"
         fill="none"
         stroke="#ffffff"
         stroke-linejoin="round"
         stroke-linecap="round"
         stroke-width="0.7"
         stroke-miterlimit="4" />
      <path
         inkscape:connector-curvature="0"
         d="m 123.65039,124.25192 118.12339,1.28536"
         id="path3498"
         sodipodi:nodetypes="cc"
         stroke-dasharray="none"
         stroke-opacity="0.461"
         fill="none"
         stroke="#000000"
         stroke-linejoin="miter"
         stroke-linecap="butt"
         stroke-width="0.7"
         stroke-miterlimit="4" />
      <path
         inkscape:connector-curvature="0"
         sodipodi:nodetypes="ccccc"
         id="path3500"
         d="m 242.2452,90.564254 10.33973,-0.14771 c 3.81313,7.50443 3.50212,15.352596 -0.14771,23.190546 l -10.95041,0.18667 c 5.23268,-7.17913 4.03368,-15.024226 0.75839,-23.229506 z"
         fill="url(#linearGradient3308)"
         fill-rule="evenodd"
         stroke="none"
         fill-opacity="1" />
      <path
         inkscape:connector-curvature="0"
         d="m 26.22108,92.760925 c -1.156813,0 -23.1362471,6.041131 -23.1362471,6.041131 l -0.1285347,5.912594 23.1362468,6.16967 C 24.733512,104.84319 24.838328,98.802055 26.22108,92.760925 Z"
         id="path3502"
         sodipodi:nodetypes="ccccc"
         stroke-dasharray="none"
         stroke-opacity="0.563"
         fill="url(#linearGradient3310)"
         fill-rule="evenodd"
         stroke="#5a5a5a"
         stroke-linejoin="miter"
         fill-opacity="1"
         stroke-linecap="butt"
         stroke-width="0.6"
         stroke-miterlimit="4" />
    </g>
  </g>
</svg>
