<?xml version="1.0" encoding="UTF-8" standalone="no"?>
<!-- Created with Inkscape (http://www.inkscape.org/) -->

<svg
   xmlns:dc="http://purl.org/dc/elements/1.1/"
   xmlns:cc="http://creativecommons.org/ns#"
   xmlns:rdf="http://www.w3.org/1999/02/22-rdf-syntax-ns#"
   xmlns:svg="http://www.w3.org/2000/svg"
   xmlns="http://www.w3.org/2000/svg"
   xmlns:xlink="http://www.w3.org/1999/xlink"
   xmlns:sodipodi="http://sodipodi.sourceforge.net/DTD/sodipodi-0.dtd"
   xmlns:inkscape="http://www.inkscape.org/namespaces/inkscape"
   id="svg2"
   sodipodi:version="0.32"
   inkscape:version="0.91 r13725"
   width="255"
   height="255"
   sodipodi:docname="folder-library.svg"
   inkscape:output_extension="org.inkscape.output.svg.inkscape"
   version="1.1">
  <metadata
     id="metadata7">
    <rdf:RDF>
      <cc:Work>
        <dc:format>image/svg+xml</dc:format>
        <dc:type
           rdf:resource="http://purl.org/dc/dcmitype/StillImage" />
      </cc:Work>
    </rdf:RDF>
  </metadata>
  <defs
     id="defs5">
    <linearGradient
       id="linearGradient2806"
       inkscape:collect="always">
      <stop
         id="stop2808"
         stop-color="#161615"
         stop-opacity="1" />
      <stop
         id="stop2810"
         offset="1"
         stop-color="#a5a59b"
         stop-opacity="1" />
    </linearGradient>
    <linearGradient
       id="linearGradient2792"
       inkscape:collect="always">
      <stop
         id="stop2794"
         stop-color="#706960"
         stop-opacity="1" />
      <stop
         id="stop2796"
         offset="1"
         stop-color="#e1dbd3"
         stop-opacity="1" />
    </linearGradient>
    <linearGradient
       id="linearGradient2780"
       inkscape:collect="always">
      <stop
         id="stop2782"
         stop-color="#caccd5"
         stop-opacity="1" />
      <stop
         id="stop2784"
         offset="1"
         stop-color="#a9aab0"
         stop-opacity="1" />
    </linearGradient>
    <linearGradient
       id="linearGradient2770"
       inkscape:collect="always">
      <stop
         id="stop2772"
         stop-color="#bec0c5"
         stop-opacity="1" />
      <stop
         id="stop2774"
         offset="1"
         stop-color="#8c8d9c"
         stop-opacity="1" />
    </linearGradient>
    <linearGradient
       id="linearGradient2760"
       inkscape:collect="always">
      <stop
         id="stop2762"
         stop-color="#d9a802"
         stop-opacity="1" />
      <stop
         id="stop2764"
         offset="1"
         stop-color="#ebd58c"
         stop-opacity="1" />
    </linearGradient>
    <linearGradient
       y2="63.11"
       x2="26.15"
       y1="69.65"
       x1="2.646"
       spreadMethod="reflect"
       gradientTransform="matrix(1.8943628,0,0,1.8468896,-273.76,0.99530497)"
       gradientUnits="userSpaceOnUse"
       id="linearGradient3257"
       xlink:href="#linearGradient2760"
       inkscape:collect="always" />
    <linearGradient
       y2="64.847"
       x2="76.48"
       y1="80.09"
       x1="33.617"
       spreadMethod="reflect"
       gradientTransform="matrix(1.8943628,0,0,1.8468896,-276.0518,5.0172701)"
       gradientUnits="userSpaceOnUse"
       id="linearGradient3261"
       xlink:href="#linearGradient2770"
       inkscape:collect="always" />
    <linearGradient
       y2="63.48"
       x2="78.03"
       y1="74.855"
       x1="47.651"
       spreadMethod="reflect"
       gradientTransform="matrix(1.8943628,0,0,1.8468896,-271.00976,4.5703851)"
       gradientUnits="userSpaceOnUse"
       id="linearGradient3263"
       xlink:href="#linearGradient2780"
       inkscape:collect="always" />
    <linearGradient
       y2="48.877"
       x2="68.72"
       y1="58.07"
       x1="44.26"
       spreadMethod="reflect"
       gradientTransform="matrix(1.8943628,0,0,1.8468896,-270.09308,4.1235001)"
       gradientUnits="userSpaceOnUse"
       id="linearGradient3265"
       xlink:href="#linearGradient2792"
       inkscape:collect="always" />
    <linearGradient
       y2="63.03"
       x2="49.14"
       y1="70.29"
       x1="25.874"
       gradientTransform="matrix(1.8943628,0,0,1.8468896,-271.4682,2.3359631)"
       gradientUnits="userSpaceOnUse"
       id="linearGradient3267"
       xlink:href="#linearGradient2806"
       inkscape:collect="always" />
    <linearGradient
       y2="54.926"
       x2="191.9"
       y1="60.25"
       x1="174.7"
       gradientTransform="matrix(1.8943628,0,0,1.8468896,-535.03177,6.3579242)"
       gradientUnits="userSpaceOnUse"
       id="linearGradient3269"
       xlink:href="#linearGradient2806"
       inkscape:collect="always" />
    <linearGradient
       inkscape:collect="always"
       xlink:href="#linearGradient2760"
       id="linearGradient5763"
       gradientUnits="userSpaceOnUse"
       gradientTransform="matrix(1.8943628,0,0,1.8468896,-275.13512,-2.579763)"
       spreadMethod="reflect"
       x1="40.39"
       y1="78.17"
       x2="73.33"
       y2="66.55" />
    <filter
       inkscape:collect="always"
       id="filter4557"
       x="-0.022"
       width="1.044"
       y="-0.026"
       height="1.052"
       color-interpolation-filters="sRGB">
      <feGaussianBlur
         inkscape:collect="always"
         stdDeviation="1.74522"
         id="feGaussianBlur4559" />
    </filter>
    <linearGradient
       inkscape:collect="always"
       id="linearGradient4167">
      <stop
         id="stop4169"
         stop-color="#adadad"
         stop-opacity="0.624" />
      <stop
         offset="1"
         id="stop4171"
         stop-color="#ffffff"
         stop-opacity="0.973" />
    </linearGradient>
    <linearGradient
       id="linearGradient4223"
       inkscape:collect="always">
      <stop
         id="stop4225"
         stop-color="#bebebe"
         stop-opacity="0.803" />
      <stop
         id="stop4227"
         offset="1"
         stop-color="#9f9f9f"
         stop-opacity="0.732" />
    </linearGradient>
    <linearGradient
       id="linearGradient4211"
       inkscape:collect="always">
      <stop
         id="stop4213"
         stop-color="#9f9f9f"
         stop-opacity="0.634" />
      <stop
         id="stop4215"
         offset="1"
         stop-color="#696969"
         stop-opacity="0" />
    </linearGradient>
    <linearGradient
       id="linearGradient4171"
       inkscape:collect="always">
      <stop
         id="stop4173"
         stop-color="#b2b2b2"
         stop-opacity="0.624" />
      <stop
         id="stop4175"
         offset="1"
         stop-color="#ffffff"
         stop-opacity="0.698" />
    </linearGradient>
    <linearGradient
       id="linearGradient4142"
       inkscape:collect="always">
      <stop
         id="stop4144"
         stop-color="#909090"
         stop-opacity="0.519" />
      <stop
         id="stop4146"
         offset="1"
         stop-color="#696969"
         stop-opacity="0" />
    </linearGradient>
    <linearGradient
       gradientUnits="userSpaceOnUse"
       y2="324.36"
       x2="278.75"
       y1="63.25"
       x1="165.74"
       id="linearGradient4148"
       xlink:href="#linearGradient4142"
       inkscape:collect="always" />
    <filter
       height="1.1"
       y="-0.05"
       width="1.056"
       x="-0.028"
       id="filter4160"
       inkscape:collect="always"
       color-interpolation-filters="sRGB">
      <feGaussianBlur
         id="feGaussianBlur4162"
         stdDeviation="3.56251"
         inkscape:collect="always" />
    </filter>
    <linearGradient
       spreadMethod="reflect"
       gradientUnits="userSpaceOnUse"
       y2="114.16"
       x2="387.93"
       y1="106.85"
       x1="379.78"
       id="linearGradient4177"
       xlink:href="#linearGradient4167"
       inkscape:collect="always" />
    <linearGradient
       gradientTransform="translate(26.808511,-26.382979)"
       y2="114.16"
       x2="387.93"
       y1="108.46"
       x1="381.27"
       spreadMethod="reflect"
       gradientUnits="userSpaceOnUse"
       id="linearGradient4207"
       xlink:href="#linearGradient4171"
       inkscape:collect="always" />
    <linearGradient
       gradientUnits="userSpaceOnUse"
       y2="125.1"
       x2="281.1"
       y1="61.711"
       x1="284.7"
       id="linearGradient4217"
       xlink:href="#linearGradient4211"
       inkscape:collect="always" />
    <linearGradient
       gradientUnits="userSpaceOnUse"
       y2="103.09"
       x2="255.7"
       y1="93.26"
       x1="259.02"
       id="linearGradient4229-6"
       xlink:href="#linearGradient4223"
       inkscape:collect="always" />
    <linearGradient
       gradientUnits="userSpaceOnUse"
       y2="117.29"
       x2="258.99"
       y1="102.54"
       x1="262.84"
       id="linearGradient4237"
       xlink:href="#linearGradient4223"
       inkscape:collect="always" />
    <filter
       height="1.136"
       y="-0.068"
       width="1.049"
       x="-0.024"
       id="filter4257"
       inkscape:collect="always"
       color-interpolation-filters="sRGB">
      <feGaussianBlur
         id="feGaussianBlur4259"
         stdDeviation="2.75443"
         inkscape:collect="always" />
    </filter>
  </defs>
  <sodipodi:namedview
     inkscape:window-height="1056"
     inkscape:window-width="1920"
     inkscape:pageshadow="2"
     inkscape:pageopacity="0.0"
     guidetolerance="10.0"
     gridtolerance="10.0"
     objecttolerance="10.0"
     borderopacity="1.0"
     bordercolor="#666666"
     pagecolor="#ffffff"
     id="base"
     inkscape:zoom="3.5490196"
     inkscape:cx="127.5"
     inkscape:cy="127.5"
     inkscape:window-x="0"
     inkscape:window-y="0"
     inkscape:current-layer="svg2"
     showgrid="false"
     inkscape:window-maximized="1" />
  <g
     transform="matrix(0.77128144,0,0,0.77128144,-83.918579,-18.032985)"
     id="g4261">
    <path
       d="m 137.15847,253.33333 1.0929,10.92897 c 1.69466,2.56439 1.62485,5.1824 6.55737,7.10382 l 234.9905,77.59563 c 4.36168,2.76045 7.27409,1.93611 10.91114,-1.0929 l 16.39344,-17.48633 z"
       id="path4239"
       inkscape:connector-curvature="0"
       sodipodi:nodetypes="ccccccc"
       stroke-opacity="1"
       fill="#000000"
       filter="url(#filter4257)"
       fill-rule="evenodd"
       stroke="none"
       stroke-linejoin="miter"
       fill-opacity="0.514"
       stroke-linecap="butt"
       stroke-width="1" />
    <path
       d="M 146.27659,241.2766 139.89362,67.340426 c -0.0538,-6.437983 2.49923,-9.41706 7.97872,-7.978724 l 135.10638,37.234043 c 8.12648,2.325734 17.80936,-1.266511 19.14894,-15.425533 0.93604,-9.893676 4.6708,-17.669623 18.61702,-14.893617 l 85.6383,19.680851 c 6.41139,1.511285 7.81765,4.447577 7.4468,11.702128 l -2.12765,230.851066 -5.31915,5.85106 -254.86675,-84.34164 z"
       id="path4198"
       inkscape:connector-curvature="0"
       sodipodi:nodetypes="ccccsccccccc"
       stroke-opacity="1"
       fill="#000000"
       fill-rule="evenodd"
       stroke="none"
       stroke-linejoin="miter"
       fill-opacity="0.73"
       stroke-linecap="butt"
       stroke-width="1" />
    <path
       sodipodi:nodetypes="ccccsccccccc"
       inkscape:connector-curvature="0"
       id="path4209"
       d="M 146.27659,241.2766 139.89362,67.340426 c -0.0538,-6.437983 2.49923,-9.41706 7.97872,-7.978724 l 135.10638,37.234043 c 8.12648,2.325734 17.80936,-1.266511 19.14894,-15.425533 0.93604,-9.893676 4.6708,-17.669623 18.61702,-14.893617 l 85.6383,19.680851 c 6.41139,1.511285 7.81765,4.447577 7.4468,11.702128 l -2.12765,230.851066 -5.31915,5.85106 -254.86675,-84.34164 z"
       stroke-opacity="1"
       fill="url(#linearGradient4217)"
       fill-rule="evenodd"
       stroke="none"
       stroke-linejoin="miter"
       fill-opacity="1"
       stroke-linecap="butt"
       stroke-width="1" />
    <path
       inkscape:connector-curvature="0"
       id="path4221"
       d="m 142.62295,64.262295 267.21311,65.573775 1.0929,194.53552 -256.8306,-92.89618 z"
       sodipodi:nodetypes="ccccc"
       stroke-opacity="0.705"
       fill="url(#linearGradient4229-6)"
       fill-rule="evenodd"
       stroke="#cecece"
       stroke-linejoin="miter"
       fill-opacity="1"
       stroke-linecap="butt"
       stroke-width="1" />
    <path
       d="m 136.61202,73.005464 267.21311,65.573776 4.37159,189.07104 -260.10929,-87.4317 z"
       id="path4219"
       inkscape:connector-curvature="0"
       stroke-opacity="0.705"
       fill="url(#linearGradient4237)"
       fill-rule="evenodd"
       stroke="#cecece"
       stroke-linejoin="miter"
       fill-opacity="1"
       stroke-linecap="butt"
       stroke-width="1" />
    <path
       d="m 116.2037,92.685185 c 1.13182,-4.540599 4.63483,-9.034209 10.68729,-7.545261 L 261.11111,123.7037 c 6.48148,1.63624 16.36287,0.33244 20.83334,-11.11111 4.00878,-10.26173 10.87392,-18.779525 25.46296,-16.203701 l 68.51852,13.888891 c 12.25335,3.29007 11.96705,11.68066 12.96296,18.51851 l 12.5,205.55556 c 0.64976,7.44283 -5.7507,13.21303 -12.96296,10.18518 L 144.90741,262.59259 c -4.92216,-1.55932 -8.93994,-3.09709 -9.25926,-10.18518 z"
       id="path4138"
       inkscape:connector-curvature="0"
       sodipodi:nodetypes="cccscccccccc"
       stroke-opacity="1"
       fill="#000000"
       fill-rule="evenodd"
       stroke="none"
       stroke-linejoin="miter"
       fill-opacity="0.77"
       stroke-linecap="butt"
       stroke-width="1" />
    <path
       sodipodi:nodetypes="cccsccccccc"
       inkscape:connector-curvature="0"
       id="path4140"
       d="m 116.2037,92.685185 c 1.13182,-4.540599 4.63483,-9.034209 10.68729,-7.545261 L 261.11111,123.7037 c 6.48148,1.63624 16.36287,0.33244 20.83334,-11.11111 4.00878,-10.26173 10.87392,-18.779525 25.46296,-16.203701 l 68.51852,13.888891 c 12.25335,3.29007 11.96705,11.68066 12.96296,18.51851 l 12.5,205.55556 c 0.64976,7.44283 -5.7507,13.21303 -12.96296,10.18518 L 209.72222,283.88889 C 173.76467,257.82993 120.35853,138.21611 116.2037,92.685185 Z"
       stroke-opacity="1"
       fill="url(#linearGradient4148)"
       fill-rule="evenodd"
       stroke="none"
       stroke-linejoin="miter"
       fill-opacity="1"
       stroke-linecap="butt"
       stroke-width="1" />
    <path
       d="m 177.77778,215.83334 -80.555558,82.4074 255.555558,88.42593 38.75029,-40.87068 c 4.63488,-1.3015 9.96817,-1.38077 9.86082,-10.98118 L 396.29629,282.5 Z"
       id="path4150"
       inkscape:connector-curvature="0"
       sodipodi:nodetypes="ccccccc"
       stroke-opacity="1"
       fill="#000000"
       filter="url(#filter4160)"
       fill-rule="evenodd"
       stroke="none"
       stroke-linejoin="miter"
       fill-opacity="0.273"
       stroke-linecap="butt"
       stroke-width="1" />
    <path
       inkscape:connector-curvature="0"
       d="m 130.29688,79.757812 c -3.73674,-0.05935 -6.2712,2.374412 -7.66211,5.353516 1.24508,-0.330919 2.6592,-0.363492 4.25585,0.0293 l 134.22071,38.562492 c 5.49861,1.38812 13.44221,0.65773 18.45508,-6.58203 -4.30627,2.38583 -9.16625,2.43292 -12.90039,1.49024 L 132.44727,80.046875 c -0.75656,-0.186118 -1.47316,-0.278306 -2.15039,-0.289063 z m 177.54687,11.074219 c -7.10689,0.02874 -11.9932,3.152137 -15.51367,7.738281 3.82724,-2.318415 8.71897,-3.304404 15.07812,-2.18164 l 68.51758,13.888668 c 12.25335,3.29007 11.96698,11.68169 12.96289,18.51954 l 12.5,205.55468 c 0.1753,2.00795 -0.17581,3.88521 -0.90429,5.50977 4.09619,-1.28823 6.90142,-5.55587 6.46093,-10.60156 l -12.5,-205.55665 c -0.99591,-6.83785 -0.70954,-15.2275 -12.96289,-18.51757 L 312.96289,91.296875 c -1.82363,-0.321978 -3.52737,-0.47128 -5.11914,-0.464844 z"
       id="path4164"
       stroke-opacity="1"
       fill="#b5b5b5"
       fill-rule="evenodd"
       stroke="none"
       stroke-linejoin="miter"
       fill-opacity="1"
       stroke-linecap="butt"
       stroke-width="1" />
    <path
       id="path4169"
       d="m 375.92578,110.27734 c 12.25335,3.29007 11.96698,11.68169 12.96289,18.51954 2.18404,-2.05828 3.13422,-2.71335 5.55664,-5.09376 -0.99591,-6.83785 -0.70954,-15.2275 -12.96289,-18.51757 -2.39781,2.28773 -2.9924,2.79876 -5.55664,5.09179 z"
       inkscape:connector-curvature="0"
       sodipodi:nodetypes="ccccc"
       stroke-opacity="1"
       fill="url(#linearGradient4177)"
       fill-rule="evenodd"
       stroke="none"
       stroke-linejoin="miter"
       fill-opacity="1"
       stroke-linecap="butt"
       stroke-width="1" />
    <path
       inkscape:connector-curvature="0"
       d="m 151.9043,54.332031 c -2.67378,0.112285 -4.27807,1.802415 -4.90039,4.837891 0.28199,0.05237 0.56972,0.11281 0.86914,0.191406 l 135.10547,37.234375 c 5.41154,1.54874 11.51034,0.467116 15.3789,-4.605469 -2.77183,0.801996 -5.76159,0.727663 -8.57031,-0.07617 L 154.68164,54.681641 c -1.0274,-0.269688 -1.9536,-0.384203 -2.77734,-0.34961 z m 170.88281,6.701172 c -5.39865,-0.126557 -8.73663,1.852669 -10.81445,5.035156 2.34672,-0.518874 5.2277,-0.496408 8.77148,0.208985 l 85.63867,19.679687 c 6.41139,1.511285 7.81812,4.448574 7.44727,11.703125 l -2.12891,230.849614 -0.47461,0.52148 1.96485,0.65039 5.31836,-5.85156 2.1289,-230.851564 c 0.37085,-7.254551 -1.03587,-10.189887 -7.44726,-11.701172 L 327.55273,61.595703 c -1.74327,-0.347001 -3.32697,-0.528775 -4.76562,-0.5625 z"
       id="path4200"
       stroke-opacity="1"
       fill="#b0b0b0"
       fill-rule="evenodd"
       stroke="none"
       stroke-linejoin="miter"
       fill-opacity="1"
       stroke-linecap="butt"
       stroke-width="1" />
    <path
       sodipodi:nodetypes="ccccc"
       inkscape:connector-curvature="0"
       d="m 403.12392,85.141164 c 12.4021,2.867396 10.71654,4.984484 10.70306,18.467586 2.18404,-2.05828 4.25114,-3.752349 6.67356,-6.132759 0.48467,-12.136762 1.00482,-14.993724 -11.89791,-17.244792 -2.39781,2.28773 -2.91447,2.616935 -5.47871,4.909965 z"
       id="path4205"
       stroke-opacity="1"
       fill="url(#linearGradient4207)"
       fill-rule="evenodd"
       stroke="none"
       stroke-linejoin="miter"
       fill-opacity="1"
       stroke-linecap="butt"
       stroke-width="1" />
  </g>
  <g
     id="text4194"
     transform="translate(42.652644,-64.63514)"
     font-style="normal"
     word-spacing="0"
     line-height="125%"
     font-weight="bold"
     font-stretch="normal"
     letter-spacing="0"
     font-variant="normal"
     font-size="7.5"
     stroke-opacity="1"
     font-family="STIXIntegralsSm"
     fill="#000000"
     stroke="none"
     stroke-linejoin="miter"
     fill-opacity="1"
     stroke-linecap="butt"
     stroke-width="1">
    <path
       d="m -33.815041,58.840733 -2.204589,0 -0.347901,0.996093 -1.417236,0 2.025146,-5.467529 1.680909,0 2.025146,5.467529 -1.417236,0 -0.344239,-0.996093 z m -1.853027,-1.014405 1.497803,0 -0.747071,-2.175293 -0.750732,2.175293 z"
       id="path4199"
       inkscape:connector-curvature="0" />
    <path
       d="m -31.33213,54.369297 2.340087,0 q 1.043702,0 1.600342,0.465088 0.560303,0.461426 0.560303,1.318359 0,0.860596 -0.560303,1.325684 -0.55664,0.461426 -1.600342,0.461426 l -0.930175,0 0,1.896972 -1.409912,0 0,-5.467529 z m 1.409912,1.021729 0,1.527099 0.780029,0 q 0.410156,0 0.633545,-0.197754 0.223389,-0.201416 0.223389,-0.567627 0,-0.366211 -0.223389,-0.563965 -0.223389,-0.197753 -0.633545,-0.197753 l -0.780029,0 z"
       id="path4201"
       inkscape:connector-curvature="0" />
  </g>
  <path
     d="M 103.84607,90.471252 C 88.013414,101.32535 70.656004,117.28678 66.835694,134.05918 L 51.632264,93.746504 c -2.28119,13.287506 -2.35754,23.949166 2.43152,39.081386 -9.044816,-7.17688 -17.609216,-14.79252 -24.315256,-24.18268 l 6.62911,19.65151 C 24.840658,123.39518 16.508168,116.36776 7.4808779,106.4535 L 45.873378,235.81361 c 16.392476,11.06535 37.616786,16.30933 65.267272,13.81517 l -0.74225,-1.84695 c 0.11942,0.007 0.23909,0.0171 0.35833,0.0246 l 0.38392,-0.34476 c 0.11885,-0.0837 0.23914,-0.16303 0.35833,-0.24626 l 0.40952,0.96041 c 25.92361,-11.61691 54.85038,-17.542 84.84745,-21.44921 l -3.35295,-5.91022 c 0.8643,-0.0794 1.71649,-0.17446 2.5851,-0.24627 l -49.14242,-91.58388 c -1.50822,-0.19335 -3.04846,-0.34696 -4.60709,-0.49252 l -8.83028,-16.94265 c -5.77601,-0.20205 -12.05628,0.0779 -18.42841,1.00966 L 103.84607,90.471252 Z"
     id="path1899"
     sodipodi:nodetypes="cccccccccccccccccccccc"
     inkscape:connector-curvature="0"
     stroke-miterlimit="4"
     style="opacity:1;fill:#000000;fill-opacity:0.45238096;fill-rule:evenodd;stroke:#000000;stroke-width:0;stroke-linecap:butt;stroke-linejoin:miter;stroke-miterlimit:4;stroke-dasharray:none;stroke-opacity:1;filter:url(#filter4557)" />
  <g
     id="g5861"
     transform="matrix(0.79600869,0,0,0.79600869,227.30254,71.56438)">
    <path
       inkscape:connector-curvature="0"
       sodipodi:nodetypes="ccccc"
       id="path2822"
       d="m -144.04088,217.28743 c -33.00834,3.06743 -58.35427,-3.37291 -77.92314,-16.98162 L -267.80115,41.214919 c 18.00214,20.368454 33.70834,30.81337 68.75568,35.750762 l 55.00459,140.321749 z"
       stroke-opacity="1"
       fill="url(#linearGradient3257)"
       fill-rule="evenodd"
       stroke="#000000"
       stroke-linejoin="miter"
       fill-opacity="1"
       stroke-linecap="butt"
       stroke-width="1.87" />
    <path
       inkscape:connector-curvature="0"
       sodipodi:nodetypes="ccccc"
       id="path1873"
       d="m -143.12414,215.49987 c 30.94685,-14.28701 65.490437,-21.56092 101.300062,-26.36617 L -108.28793,68.474878 c -29.23795,-1.549488 -58.92413,1.271093 -89.3824,11.618997 l 54.54619,135.405995 z"
       stroke-opacity="1"
       fill="url(#linearGradient5763)"
       fill-rule="evenodd"
       stroke="#000000"
       stroke-linejoin="miter"
       fill-opacity="1"
       stroke-linecap="butt"
       stroke-width="1.87" />
    <path
       inkscape:connector-curvature="0"
       sodipodi:nodetypes="ccccc"
       id="path2768"
       d="m -144.04088,214.60612 c 27.61065,-20.02579 62.701981,-29.7821 101.300064,-33.06945 L -101.41236,68.92176 c -30.53671,-4.033166 -70.48104,0.355225 -94.42449,14.300306 l 51.79597,131.384054 z"
       stroke-opacity="1"
       fill="url(#linearGradient3261)"
       fill-rule="evenodd"
       stroke="#000000"
       stroke-linejoin="miter"
       fill-opacity="1"
       stroke-linecap="butt"
       stroke-width="1.87" />
    <path
       inkscape:connector-curvature="0"
       sodipodi:nodetypes="ccccc"
       id="path2778"
       d="m -142.66578,215.05301 c 16.19562,-24.69582 54.759525,-36.02359 87.548915,-44.24157 L -117.45535,47.471301 c -25.96097,-0.935579 -60.29746,6.538799 -77.92312,33.516343 l 52.71269,134.065366 z"
       stroke-opacity="1"
       fill="url(#linearGradient3263)"
       fill-rule="evenodd"
       stroke="#000000"
       stroke-linejoin="miter"
       fill-opacity="1"
       stroke-linecap="butt"
       stroke-width="1.87" />
    <path
       inkscape:connector-curvature="0"
       sodipodi:nodetypes="ccccc"
       id="path2790"
       d="m -142.66578,213.71235 c 3.3028,-24.75618 30.8901,-42.81355 55.921302,-51.8386 L -152.74994,21.551998 c -20.27083,14.316658 -42.64498,35.844729 -44.92039,58.094993 l 55.00455,134.065359 z"
       stroke-opacity="1"
       fill="url(#linearGradient3265)"
       fill-rule="evenodd"
       stroke="#000000"
       stroke-linejoin="miter"
       fill-opacity="1"
       stroke-linecap="butt"
       stroke-width="1.87" />
    <path
       inkscape:connector-curvature="0"
       sodipodi:nodetypes="ccccc"
       id="path2804"
       d="m -145.87437,213.71238 c -19.92944,3.78902 -44.6195,-6.18291 -54.16989,-17.42852 L -249.30344,32.643598 c 13.00133,18.755359 39.97251,43.028722 57.59192,57.281736 z"
       stroke-opacity="1"
       fill="url(#linearGradient3267)"
       fill-rule="evenodd"
       stroke="#000000"
       stroke-linejoin="miter"
       fill-opacity="1"
       stroke-linecap="butt"
       stroke-width="1.87" />
    <path
       inkscape:connector-curvature="0"
       sodipodi:nodetypes="cccccc"
       id="path2802"
       d="m -144.49925,215.05303 -14.66789,-36.64455 -55.92131,-152.83452 c -3.02844,18.173304 -2.81002,32.324648 5.04208,54.519913 l 40.33669,125.574567 c 2.62513,8.76174 14.31983,8.68118 25.21043,9.38459 z"
       stroke-opacity="1"
       fill="url(#linearGradient3269)"
       fill-rule="evenodd"
       stroke="#000000"
       stroke-linejoin="miter"
       fill-opacity="1"
       stroke-linecap="butt"
       stroke-width="1.87" />
  </g>
</svg>
