<?xml version="1.0" encoding="UTF-8" standalone="no"?>
<svg
   xmlns:dc="http://purl.org/dc/elements/1.1/"
   xmlns:cc="http://creativecommons.org/ns#"
   xmlns:rdf="http://www.w3.org/1999/02/22-rdf-syntax-ns#"
   xmlns:svg="http://www.w3.org/2000/svg"
   xmlns="http://www.w3.org/2000/svg"
   xmlns:xlink="http://www.w3.org/1999/xlink"
   xmlns:sodipodi="http://sodipodi.sourceforge.net/DTD/sodipodi-0.dtd"
   xmlns:inkscape="http://www.inkscape.org/namespaces/inkscape"
   viewBox="0 0 256 256"
   id="svg2"
   inkscape:version="0.92.5 (2060ec1f9f, 2020-04-08)"
   width="256"
   height="256"
   sodipodi:docname="gtk-directory.svg"
   version="1.1">
  <metadata
     id="metadata145">
    <rdf:RDF>
      <cc:Work>
        <dc:format>image/svg+xml</dc:format>
        <dc:type
           rdf:resource="http://purl.org/dc/dcmitype/StillImage" />
        <dc:title />
      </cc:Work>
    </rdf:RDF>
  </metadata>
  <sodipodi:namedview
     pagecolor="#ffffff"
     bordercolor="#666666"
     borderopacity="1"
     objecttolerance="10"
     gridtolerance="10"
     guidetolerance="10"
     inkscape:pageopacity="0"
     inkscape:pageshadow="2"
     inkscape:window-width="1920"
     inkscape:window-height="1056"
     id="namedview143"
     showgrid="false"
     inkscape:zoom="3.4414062"
     inkscape:cx="128"
     inkscape:cy="128"
     inkscape:window-x="0"
     inkscape:window-y="0"
     inkscape:window-maximized="1"
     inkscape:current-layer="svg2"
     inkscape:snap-global="false" />
  <defs
     id="defs4">
    <linearGradient
       inkscape:collect="always"
       id="linearGradient4343">
      <stop
         id="stop4345"
         stop-color="#a81212"
         stop-opacity="0.804" />
      <stop
         offset="1"
         id="stop4347"
         stop-color="#b00d0d"
         stop-opacity="0.733" />
    </linearGradient>
    <linearGradient
       inkscape:collect="always"
       id="linearGradient4167">
      <stop
         id="stop4169"
         stop-color="#adadad"
         stop-opacity="0.624" />
      <stop
         offset="1"
         id="stop4171"
         stop-color="#ffffff"
         stop-opacity="0.973" />
    </linearGradient>
    <linearGradient
       id="linearGradient4223"
       inkscape:collect="always">
      <stop
         id="stop4225"
         stop-color="#bebebe"
         stop-opacity="0.803" />
      <stop
         id="stop4227"
         offset="1"
         stop-color="#9f9f9f"
         stop-opacity="0.732" />
    </linearGradient>
    <linearGradient
       id="linearGradient4211"
       inkscape:collect="always">
      <stop
         id="stop4213"
         stop-color="#9f9f9f"
         stop-opacity="0.634" />
      <stop
         id="stop4215"
         offset="1"
         stop-color="#696969"
         stop-opacity="0" />
    </linearGradient>
    <linearGradient
       id="linearGradient4171"
       inkscape:collect="always">
      <stop
         id="stop4173"
         stop-color="#b2b2b2"
         stop-opacity="0.624" />
      <stop
         id="stop4175"
         offset="1"
         stop-color="#ffffff"
         stop-opacity="0.698" />
    </linearGradient>
    <linearGradient
       id="linearGradient4142"
       inkscape:collect="always">
      <stop
         id="stop4144"
         stop-color="#909090"
         stop-opacity="0.519" />
      <stop
         id="stop4146"
         offset="1"
         stop-color="#696969"
         stop-opacity="0" />
    </linearGradient>
    <linearGradient
       gradientUnits="userSpaceOnUse"
       y2="324.36"
       x2="278.75"
       y1="63.25"
       x1="165.74"
       id="linearGradient4148"
       xlink:href="#linearGradient4142"
       inkscape:collect="always"
       gradientTransform="matrix(0.77128144,0,0,0.77128144,-79.278879,-27.837745)" />
    <filter
       height="1.1"
       y="-0.05"
       width="1.056"
       x="-0.028"
       id="filter4160"
       inkscape:collect="always"
       color-interpolation-filters="sRGB">
      <feGaussianBlur
         id="feGaussianBlur4162"
         stdDeviation="3.56251"
         inkscape:collect="always" />
    </filter>
    <linearGradient
       spreadMethod="reflect"
       gradientUnits="userSpaceOnUse"
       y2="114.16"
       x2="387.93"
       y1="106.85"
       x1="379.78"
       id="linearGradient4177"
       xlink:href="#linearGradient4167"
       inkscape:collect="always"
       gradientTransform="matrix(0.77128144,0,0,0.77128144,-79.278879,-27.837745)" />
    <linearGradient
       gradientTransform="matrix(0.77128144,0,0,0.77128144,-58.601972,-48.186447)"
       y2="114.16"
       x2="387.93"
       y1="108.46"
       x1="381.27"
       spreadMethod="reflect"
       gradientUnits="userSpaceOnUse"
       id="linearGradient4207"
       xlink:href="#linearGradient4171"
       inkscape:collect="always" />
    <linearGradient
       gradientUnits="userSpaceOnUse"
       y2="125.1"
       x2="281.1"
       y1="61.711"
       x1="284.7"
       id="linearGradient4217"
       xlink:href="#linearGradient4211"
       inkscape:collect="always"
       gradientTransform="matrix(0.77128144,0,0,0.77128144,-79.278879,-27.837745)" />
    <linearGradient
       gradientUnits="userSpaceOnUse"
       y2="103.09"
       x2="255.7"
       y1="93.26"
       x1="259.02"
       id="linearGradient4229"
       xlink:href="#linearGradient4223"
       inkscape:collect="always"
       gradientTransform="matrix(0.77128144,0,0,0.77128144,-79.278879,-27.837745)" />
    <linearGradient
       gradientUnits="userSpaceOnUse"
       y2="117.29"
       x2="258.99"
       y1="102.54"
       x1="262.84"
       id="linearGradient4237"
       xlink:href="#linearGradient4343"
       inkscape:collect="always"
       gradientTransform="matrix(0.77128144,0,0,0.77128144,-79.278879,-27.837745)" />
  </defs>
  <path
     style="fill:#000000;fill-opacity:0.46396396;fill-rule:evenodd;stroke:none;stroke-width:1;stroke-linecap:butt;stroke-linejoin:miter;stroke-opacity:1;filter:url(#filter4160)"
     sodipodi:nodetypes="ccccccc"
     inkscape:connector-curvature="0"
     id="path4150"
     d="m 177.77778,215.83334 -70.78185,71.85179 244.99995,85.6893 39.53219,-27.57844 c 4.63488,-1.3015 9.96817,-1.38077 9.86082,-10.98118 L 396.29629,282.5 Z"
     transform="matrix(0.77128144,0,0,0.77128144,-72.502812,-30.737716)" />
  <path
     style="fill:#000000;fill-opacity:0.73000004;fill-rule:evenodd;stroke:none;stroke-width:0.77128142;stroke-linecap:butt;stroke-linejoin:miter;stroke-opacity:1"
     sodipodi:nodetypes="ccccsccccccc"
     inkscape:connector-curvature="0"
     id="path4198"
     d="M 33.54154,158.25442 28.618474,24.100676 c -0.0415,-4.965497 1.927609,-7.263204 6.153838,-6.153842 L 138.97736,46.66476 c 6.2678,1.793796 13.73603,-0.976836 14.76922,-11.897427 0.72195,-7.630809 3.6025,-13.628252 14.35896,-11.48717 l 66.05124,15.179475 c 4.94498,1.165626 6.0296,3.430333 5.74357,9.025634 l -1.64101,178.051148 -4.10256,4.51281 -196.574003,-65.05114 z" />
  <path
     style="fill:url(#linearGradient4217);fill-opacity:1;fill-rule:evenodd;stroke:none;stroke-width:0.77128142;stroke-linecap:butt;stroke-linejoin:miter;stroke-opacity:1"
     d="M 33.54154,158.25442 28.618474,24.100676 c -0.0415,-4.965497 1.927609,-7.263204 6.153838,-6.153842 L 138.97736,46.66476 c 6.2678,1.793796 13.73603,-0.976836 14.76922,-11.897427 0.72195,-7.630809 3.6025,-13.628252 14.35896,-11.48717 l 66.05124,15.179475 c 4.94498,1.165626 6.0296,3.430333 5.74357,9.025634 l -1.64101,178.051148 -4.10256,4.51281 -196.574003,-65.05114 z"
     id="path4209"
     inkscape:connector-curvature="0"
     sodipodi:nodetypes="ccccsccccccc" />
  <path
     style="fill:url(#linearGradient4229);fill-opacity:1;fill-rule:evenodd;stroke:#cecece;stroke-width:0.77128142;stroke-linecap:butt;stroke-linejoin:miter;stroke-opacity:0.70499998"
     sodipodi:nodetypes="ccccc"
     d="M 30.723555,21.72657 236.82007,72.302406 237.66301,222.34404 39.574326,150.69494 Z"
     id="path4221"
     inkscape:connector-curvature="0" />
  <path
     style="fill:url(#linearGradient4237);fill-opacity:1;fill-rule:evenodd;stroke:#801111;stroke-width:0.77128142;stroke-linecap:butt;stroke-linejoin:miter;stroke-opacity:0.70499998"
     inkscape:connector-curvature="0"
     id="path4219"
     d="M 26.087437,28.470014 232.18395,79.045851 235.55568,224.87284 34.938207,157.43839 Z" />
  <path
     style="fill:#000000;fill-opacity:0.76999996;fill-rule:evenodd;stroke:none;stroke-width:0.77128142;stroke-linecap:butt;stroke-linejoin:miter;stroke-opacity:1"
     sodipodi:nodetypes="cccscccccccc"
     inkscape:connector-curvature="0"
     id="path4138"
     d="m 10.346878,43.648618 c 0.872951,-3.50208 3.574758,-6.967918 8.242908,-5.81952 L 122.11128,67.572623 c 4.99904,1.262001 12.62038,0.256405 16.06837,-8.569793 3.09189,-7.914682 8.38685,-14.484299 19.6391,-12.497614 l 52.84707,10.712244 c 9.45078,2.53757 9.22996,9.009076 9.99809,14.282983 l 9.64102,158.541187 c 0.50114,5.74052 -4.43541,10.19097 -9.99809,7.85564 L 32.485517,174.69505 c -3.796371,-1.20268 -6.89521,-2.38873 -7.141496,-7.85564 z" />
  <path
     style="fill:url(#linearGradient4148);fill-opacity:1;fill-rule:evenodd;stroke:none;stroke-width:0.77128142;stroke-linecap:butt;stroke-linejoin:miter;stroke-opacity:1"
     d="m 10.346878,43.648618 c 0.872951,-3.50208 3.574758,-6.967918 8.242908,-5.81952 L 122.11128,67.572623 c 4.99904,1.262001 12.62038,0.256405 16.06837,-8.569793 3.09189,-7.914682 8.38685,-14.484299 19.6391,-12.497614 l 52.84707,10.712244 c 9.45078,2.53757 9.22996,9.009076 9.99809,14.282983 l 9.64102,158.541187 c 0.50114,5.74052 -4.43541,10.19097 -9.99809,7.85564 L 82.475977,191.12049 C 54.742586,171.0217 13.551421,78.765775 10.346878,43.648618 Z"
     id="path4140"
     inkscape:connector-curvature="0"
     sodipodi:nodetypes="cccsccccccc" />
  <path
     style="fill:#b5b5b5;fill-opacity:1;fill-rule:evenodd;stroke:none;stroke-width:0.77128142;stroke-linecap:butt;stroke-linejoin:miter;stroke-opacity:1"
     id="path4164"
     d="m 21.216686,33.677975 c -2.882078,-0.04577 -4.83686,1.83134 -5.909643,4.129068 0.960307,-0.255232 2.050992,-0.280355 3.282458,0.0226 L 122.11145,67.572176 c 4.24097,1.070631 10.36772,0.507294 14.23406,-5.076598 -3.32135,1.840146 -7.06976,1.876466 -9.94983,1.149394 L 22.875242,33.900924 c -0.583521,-0.143549 -1.136221,-0.214652 -1.658556,-0.222949 z m 136.938614,8.54134 c -5.48142,0.02217 -9.25014,2.431184 -11.96541,5.968392 2.95188,-1.78815 6.72478,-2.548625 11.62947,-1.682658 l 52.84634,10.712072 c 9.45078,2.53757 9.22991,9.00987 9.99804,14.283777 l 9.64102,158.540512 c 0.1352,1.54869 -0.1356,2.99659 -0.69747,4.24958 3.15932,-0.99359 5.32294,-4.28514 4.9832,-8.17678 L 224.94947,67.572176 c -0.76813,-5.273907 -0.54725,-11.744689 -9.99803,-14.282259 L 162.10359,42.57784 c -1.40653,-0.248335 -2.72059,-0.363489 -3.94829,-0.358525 z"
     inkscape:connector-curvature="0" />
  <path
     style="fill:url(#linearGradient4177);fill-opacity:1;fill-rule:evenodd;stroke:none;stroke-width:0.77128142;stroke-linecap:butt;stroke-linejoin:miter;stroke-opacity:1"
     sodipodi:nodetypes="ccccc"
     inkscape:connector-curvature="0"
     d="m 210.6657,57.217121 c 9.45078,2.53757 9.22991,9.00987 9.99804,14.283777 1.68451,-1.587513 2.41736,-2.092756 4.28573,-3.928722 -0.76813,-5.273907 -0.54725,-11.744689 -9.99803,-14.282259 -1.84939,1.764484 -2.30799,2.158632 -4.28574,3.927204 z"
     id="path4169" />
  <path
     style="fill:#b0b0b0;fill-opacity:1;fill-rule:evenodd;stroke:none;stroke-width:0.77128142;stroke-linecap:butt;stroke-linejoin:miter;stroke-opacity:1"
     id="path4200"
     d="m 37.882088,14.067542 c -2.062237,0.0866 -3.299596,1.390169 -3.77958,3.731376 0.217494,0.04039 0.439415,0.08701 0.670352,0.147628 l 104.20435,28.718182 c 4.17382,1.194514 8.87771,0.360278 11.86146,-3.552113 -2.13787,0.618565 -4.44381,0.561233 -6.61013,-0.05875 L 40.024199,14.33719 c -0.792415,-0.208006 -1.506775,-0.296329 -2.142111,-0.269648 z m 131.798742,5.16849 c -4.16388,-0.09761 -6.7384,1.428929 -8.34098,3.883522 1.80998,-0.400198 4.03203,-0.38287 6.76528,0.161186 l 66.05151,15.178578 c 4.94499,1.165626 6.02997,3.431102 5.74395,9.026403 l -1.64199,178.050019 -0.36606,0.40221 1.51545,0.50164 4.10195,-4.5132 1.64198,-178.051531 c 0.28603,-5.595301 -0.79894,-7.859271 -5.74393,-9.024897 L 173.35647,19.669878 c -1.34456,-0.267636 -2.56603,-0.407835 -3.67564,-0.433846 z"
     inkscape:connector-curvature="0" />
  <path
     style="fill:url(#linearGradient4207);fill-opacity:1;fill-rule:evenodd;stroke:none;stroke-width:0.77128142;stroke-linecap:butt;stroke-linejoin:miter;stroke-opacity:1"
     id="path4205"
     d="m 231.64312,37.830055 c 9.56551,2.211569 8.26547,3.84444 8.25507,14.243706 1.68451,-1.587513 3.27883,-2.894117 5.1472,-4.730083 0.37381,-9.36086 0.775,-11.564381 -9.17664,-13.300588 -1.84939,1.764483 -2.24788,2.018393 -4.22563,3.786965 z"
     inkscape:connector-curvature="0"
     sodipodi:nodetypes="ccccc" />
</svg>
