<?xml version="1.0" encoding="UTF-8" standalone="no"?>
<!-- Created with Inkscape (http://www.inkscape.org/) -->
<svg xmlns:dc="http://purl.org/dc/elements/1.1/" xmlns:cc="http://creativecommons.org/ns#" xmlns:rdf="http://www.w3.org/1999/02/22-rdf-syntax-ns#" xmlns:svg="http://www.w3.org/2000/svg" xmlns="http://www.w3.org/2000/svg" xmlns:xlink="http://www.w3.org/1999/xlink" xmlns:sodipodi="http://sodipodi.sourceforge.net/DTD/sodipodi-0.dtd" xmlns:inkscape="http://www.inkscape.org/namespaces/inkscape" id="svg2" sodipodi:version="0.32" inkscape:version="0.91 r13725" width="256" height="256" sodipodi:docname="lock_overlay.svg" inkscape:output_extension="org.inkscape.output.svg.inkscape">
 <metadata id="metadata7">
  <rdf:RDF>
   <cc:Work>
    <dc:format>image/svg+xml</dc:format>
    <dc:type rdf:resource="http://purl.org/dc/dcmitype/StillImage"/>
    <dc:title/>
   </cc:Work>
  </rdf:RDF>
 </metadata>
 <defs id="defs5">
  <linearGradient inkscape:collect="always" id="linearGradient3548">
   <stop id="stop3550" stop-color="white" stop-opacity="1"/>
   <stop offset="1" id="stop3552" stop-color="#8c9199" stop-opacity="1"/>
  </linearGradient>
  <linearGradient id="linearGradient3542" inkscape:collect="always">
   <stop id="stop3544" stop-color="#ffffff" stop-opacity="1"/>
   <stop id="stop3546" offset="1" stop-color="#676d78" stop-opacity="1"/>
  </linearGradient>
  <linearGradient id="linearGradient3536" inkscape:collect="always">
   <stop id="stop3538" stop-color="#666d78" stop-opacity="1"/>
   <stop id="stop3540" offset="1" stop-color="#ffffff" stop-opacity="1"/>
  </linearGradient>
  <linearGradient id="linearGradient3530" inkscape:collect="always">
   <stop id="stop3532" stop-color="#5f6268" stop-opacity="1"/>
   <stop id="stop3534" offset="1" stop-color="#ffffff" stop-opacity="1"/>
  </linearGradient>
  <linearGradient inkscape:collect="always" id="linearGradient2802">
   <stop id="stop2804" stop-color="#7d0f0f" stop-opacity="1"/>
   <stop offset="1" id="stop2806" stop-color="white" stop-opacity="0.996"/>
  </linearGradient>
  <linearGradient id="linearGradient2768">
   <stop id="stop2770" stop-color="#000003" stop-opacity="1"/>
   <stop id="stop3106" stop-color="#0a104d" stop-opacity="1"/>
   <stop offset="0.5" id="stop2776" stop-color="#142197" stop-opacity="1"/>
   <stop id="stop2788" offset="0.75" stop-color="white" stop-opacity="1"/>
   <stop id="stop3110" offset="1" stop-color="#161a3b" stop-opacity="1"/>
  </linearGradient>
  <linearGradient id="linearGradient2816" inkscape:collect="always">
   <stop id="stop2818" stop-color="white" stop-opacity="0.784"/>
   <stop id="stop2820" offset="1" stop-color="white" stop-opacity="0"/>
  </linearGradient>
  <linearGradient id="linearGradient2845" inkscape:collect="always">
   <stop id="stop2847" stop-color="#604812" stop-opacity="1"/>
   <stop id="stop2849" offset="1" stop-color="#8f650d" stop-opacity="1"/>
  </linearGradient>
  <linearGradient id="linearGradient2824" inkscape:collect="always">
   <stop id="stop2826" stop-color="black" stop-opacity="1"/>
   <stop id="stop2829" offset="1" stop-color="#a6a6a6" stop-opacity="1"/>
  </linearGradient>
  <linearGradient inkscape:collect="always" id="linearGradient2878">
   <stop id="stop2880" stop-color="white" stop-opacity="0.784"/>
   <stop offset="1" id="stop2882" stop-color="#a48787" stop-opacity="0"/>
  </linearGradient>
  <linearGradient inkscape:collect="always" id="linearGradient2884">
   <stop id="stop2886" stop-color="white" stop-opacity="0.784"/>
   <stop offset="1" id="stop2888" stop-color="#af9c9c" stop-opacity="0"/>
  </linearGradient>
  <filter inkscape:collect="always" id="filter4942">
   <feGaussianBlur inkscape:collect="always" stdDeviation="1.86795" id="feGaussianBlur4944"/>
  </filter>
  <linearGradient inkscape:collect="always" xlink:href="#linearGradient2845" id="linearGradient2742" gradientUnits="userSpaceOnUse" gradientTransform="matrix(0.1820316,0,0,0.1820316,-311.49049,72.109608)" spreadMethod="reflect" x1="92.91" y1="600.97" x2="360.92" y2="607.67"/>
  <linearGradient inkscape:collect="always" xlink:href="#linearGradient3530" id="linearGradient2744" gradientUnits="userSpaceOnUse" gradientTransform="matrix(0.1481811,0,0,0.1481811,-327.49415,76.071259)" spreadMethod="reflect" x1="220.48" y1="711.52" x2="481" y2="711.52"/>
  <linearGradient inkscape:collect="always" xlink:href="#linearGradient3536" id="linearGradient2746" gradientUnits="userSpaceOnUse" gradientTransform="matrix(0.1820316,0,0,0.1820316,-311.73451,72.109608)" spreadMethod="reflect" x1="135.85" y1="834.27" x2="360.91" y2="826.87"/>
  <radialGradient inkscape:collect="always" xlink:href="#linearGradient2768" id="radialGradient2748" gradientUnits="userSpaceOnUse" gradientTransform="matrix(0.1716444,-0.00551265,0.00529294,0.1648035,-309.51683,79.504252)" cx="374.09" cy="282.23" fx="374.09" fy="282.23" r="212.86"/>
  <radialGradient inkscape:collect="always" xlink:href="#linearGradient2802" id="radialGradient2750" gradientUnits="userSpaceOnUse" gradientTransform="matrix(0.3282663,0.06549367,-0.05311611,0.2662238,-342.75978,-39.496855)" spreadMethod="reflect" cx="385.04" cy="475.95" fx="385.04" fy="475.95" r="92.53"/>
  <linearGradient inkscape:collect="always" xlink:href="#linearGradient3542" id="linearGradient2752" gradientUnits="userSpaceOnUse" gradientTransform="matrix(0.1481811,0,0,0.1481811,-327.49415,76.071259)" spreadMethod="reflect" x1="221.1" y1="980.97" x2="263.45" y2="980.97"/>
  <linearGradient inkscape:collect="always" xlink:href="#linearGradient3548" id="linearGradient2754" gradientUnits="userSpaceOnUse" gradientTransform="matrix(0.1820316,0,0,0.1820316,-311.73451,72.109608)" spreadMethod="reflect" x1="693.46" y1="828.21" x2="648.93" y2="832.23"/>
  <linearGradient inkscape:collect="always" xlink:href="#linearGradient2884" id="linearGradient2756" gradientUnits="userSpaceOnUse" gradientTransform="matrix(0.1481811,0,0,0.1481811,-327.49415,76.071259)" x1="383.23" y1="402.17" x2="335.95" y2="393.42"/>
  <linearGradient inkscape:collect="always" xlink:href="#linearGradient2824" id="linearGradient2758" gradientUnits="userSpaceOnUse" x1="526.36" y1="1059.45" x2="714.93" y2="863.46"/>
  <linearGradient inkscape:collect="always" xlink:href="#linearGradient2816" id="linearGradient2761" gradientUnits="userSpaceOnUse" gradientTransform="matrix(0.1820316,0,0,0.1820316,-312.18395,72.109604)" x1="386.82" y1="69.791" x2="371.85" y2="407.75"/>
  <linearGradient inkscape:collect="always" xlink:href="#linearGradient2878" id="linearGradient2763" gradientUnits="userSpaceOnUse" gradientTransform="matrix(-0.1481811,0,0,0.1481811,-156.75803,76.110639)" x1="383.23" y1="402.17" x2="344.71" y2="394.67"/>
 </defs>
 <sodipodi:namedview inkscape:window-height="1056" inkscape:window-width="1920" inkscape:pageshadow="2" inkscape:pageopacity="0.0" guidetolerance="10.0" gridtolerance="10.0" objecttolerance="10.0" borderopacity="1.0" bordercolor="#666666" pagecolor="#ffffff" id="base" width="256" height="256" inkscape:zoom="3.5351562" inkscape:cx="128" inkscape:cy="128" inkscape:window-x="0" inkscape:window-y="0" inkscape:current-layer="svg2" showgrid="false" showguides="true" inkscape:guide-bbox="true" inkscape:window-maximized="1"/>
 <path inkscape:connector-curvature="0" d="m 79.113095,92.065476 c -18.82499,0.03751 -37.87416,11.220124 -37.71875,33.250004 l 0.28125,23.78125 c -1.40895,0.16258 -2.80977,0.32071 -4.21875,0.5 -3.28256,0 -5.90624,1.92784 -5.90625,4.3125 l -4.40625,63 c 0,2.34569 2.57345,4.25115 5.78125,4.3125 -0.03077,0.004 -0.06297,-0.004 -0.09375,0 -3.06199,1e-5 -5.55215,-1.65248 -5.875,-3.8125 0.4387,4.94757 0.25401,6.69141 0.5625,10.375 -0.5139,2.17762 2.05357,2.99559 3.8125,3.21875 31.67206,3.06715 65.57591,3.43401 97.218755,-0.4375 3.17098,-0.10071 5.09029,-1.68743 5.28125,-3.15625 0.22732,-3.06598 0.69779,-6.37232 0.34375,-9.59375 0.0859,-0.29275 0.15625,-0.59434 0.15625,-0.90625 l -6.71875,-62.75 c 0,-2.38467 -2.62368,-4.28124 -5.90625,-4.28125 -1.01875,-0.15076 -2.04262,-0.2672 -3.0625,-0.40625 l -3.25,-27.75 C 114.28934,101.82525 96.797175,92.030235 79.113095,92.065476 Z m -0.15625,7.71875 c 14.01879,8.6e-5 28.043615,8.551504 27.875005,24.687504 l 0.59375,6.75 -0.40625,0.0312 1.65625,15.15625 0,0.5 0.0625,0 0.125,1.21875 0.0937,0 0.0312,0.1875 c -19.560135,-1.96573 -39.294605,-1.87665 -59.062505,-0.0625 l 0,-0.0312 0.03125,0 0.25,-4.8125 0.65625,-11.96875 -0.0625,0 0.25,-5.03125 c -0.13289,-18.06909 13.88746,-26.62509 27.90625,-26.625004 z M 104.7381,219.09673 c 7.81195,0.52832 15.65094,1.25558 23.5625,2.125 -0.052,9.7e-4 -0.10395,0 -0.15625,0 -7.86966,-0.86587 -15.63591,-1.59586 -23.40625,-2.125 z" id="path4841" transform="matrix(0.4074993,0,0,0.4074993,185.70721,153.01183)" stroke-dasharray="none" stroke-opacity="1" fill="#000000" filter="url(#filter4942)" stroke="#000000" stroke-linejoin="round" fill-opacity="0.596" stroke-linecap="round" stroke-width="0.182" stroke-miterlimit="4"/>
 <g id="g4271" transform="matrix(0.4074993,0,0,0.4074993,319.95289,150.69192)">
  <path inkscape:connector-curvature="0" sodipodi:nodetypes="ccccccccc" id="path2843" d="m -284.18308,147.07621 c 28.22081,-3.59111 56.44535,-3.85562 84.24082,0.25761 3.28256,0 5.9252,1.91979 5.9252,4.30446 l 6.69806,62.75105 c 0,2.38467 -2.64265,4.30445 -5.92521,4.30445 -31.77279,-3.49583 -62.25749,-4.69146 -95.31836,0 -3.28256,0 -5.9252,-1.91978 -5.9252,-4.30445 l 4.3795,-63.00867 c 0,-2.38467 2.64263,-4.30445 5.92519,-4.30445 z" stroke-dasharray="none" stroke-opacity="1" fill="url(#linearGradient2742)" stroke="#000000" stroke-linejoin="round" fill-opacity="1" stroke-linecap="round" stroke-width="0.182" stroke-miterlimit="4"/>
  <path inkscape:connector-curvature="0" d="m -284.4271,147.07621 c 28.22081,-3.59111 56.44535,-3.85562 84.24083,0.25761 3.28256,0 5.92519,1.91979 5.92519,4.30446 l 6.69805,62.75105 c 0,2.38467 -2.64264,4.30445 -5.9252,4.30445 -31.77278,-3.49583 -62.25749,-4.69146 -95.31836,0 -3.28256,0 -5.9252,-1.91978 -5.9252,-4.30445 l 4.3795,-63.00867 c 0,-2.38467 2.64263,-4.30445 5.92519,-4.30445 z" id="rect1873" sodipodi:nodetypes="ccccccccc" stroke-dasharray="none" stroke-opacity="1" fill="url(#linearGradient2744)" stroke="#000000" stroke-linejoin="round" fill-opacity="1" stroke-linecap="round" stroke-width="0.182" stroke-miterlimit="4"/>
  <path inkscape:connector-curvature="0" sodipodi:nodetypes="ccccccccc" id="path1876" d="m -294.11216,225.24387 c -0.5139,2.17761 2.03829,3.00819 3.79722,3.23135 31.67205,3.06716 65.58042,3.44089 97.22326,-0.43063 3.17098,-0.1007 5.08007,-1.69917 5.27103,-3.16799 0.24821,-3.3478 0.82703,-6.99152 0.25762,-10.48727 0,2.38467 -2.64264,4.30445 -5.9252,4.30445 -31.77278,-3.49583 -62.25749,-4.69146 -95.31836,0 -3.28256,0 -5.9252,-1.91978 -5.9252,-4.30445 0.50529,5.4001 0.29951,7.03205 0.61963,10.85454 z" stroke-dasharray="none" stroke-opacity="1" fill="url(#linearGradient2746)" stroke="#000000" stroke-linejoin="round" fill-opacity="1" stroke-linecap="round" stroke-width="0.182" stroke-miterlimit="4"/>
  <path inkscape:connector-curvature="0" d="m -279.98218,147.06965 8.28322,-1.38053 1.10443,-21.81248 c -0.26577,-36.138169 56.11088,-34.20473 55.77367,-1.93275 l 2.20886,24.29744 9.66375,1.10443 -3.31329,-28.16294 c -2.28132,-41.07659 -74.29814,-39.135207 -73.99674,3.58939 l 0.2761,24.29744 z" id="path2764" sodipodi:nodetypes="ccccccccc" stroke-opacity="1" fill="#111b6c" fill-rule="evenodd" stroke="#000000" stroke-linejoin="miter" fill-opacity="1" stroke-linecap="butt" stroke-width="0.182"/>
  <path inkscape:connector-curvature="0" sodipodi:nodetypes="ccccccccc" id="path2766" d="m -279.98218,147.06965 8.28322,-1.38053 1.10443,-21.81248 c -0.26577,-36.138169 56.11088,-34.20473 55.77367,-1.93275 l 2.20886,24.29744 9.66375,1.10443 -3.31329,-28.16294 c -2.28132,-41.07659 -74.29814,-39.135207 -73.99674,3.58939 l 0.2761,24.29744 z" stroke-opacity="1" fill="url(#radialGradient2748)" fill-rule="evenodd" stroke="#000000" stroke-linejoin="miter" fill-opacity="1" stroke-linecap="butt" stroke-width="0.182"/>
  <path inkscape:connector-curvature="0" d="m -253.19977,93.504844 c 12.17203,-2.911395 24.38374,0.152397 33.68509,7.454896 -9.71223,-5.138202 -21.02826,-7.469756 -33.68509,-7.454896 z" id="path2790" sodipodi:nodetypes="ccc" opacity="0.536" stroke-dasharray="none" stroke-opacity="1" fill="url(#radialGradient2750)" fill-rule="evenodd" stroke="none" stroke-linejoin="miter" fill-opacity="1" stroke-linecap="butt" stroke-width="0" stroke-miterlimit="4"/>
  <path inkscape:connector-curvature="0" d="m -294.11216,225.24387 c -0.5139,2.17761 2.03829,3.00819 3.79722,3.23135 2.26594,-3.99152 2.03297,-5.36367 1.50835,-9.78144 -3.28256,0 -5.9252,-1.91978 -5.9252,-4.30445 0.50529,5.4001 0.29951,7.03205 0.61963,10.85454 z" id="path2891" sodipodi:nodetypes="ccccc" stroke-dasharray="none" stroke-opacity="1" fill="url(#linearGradient2752)" stroke="none" stroke-linejoin="round" fill-opacity="1" stroke-linecap="round" stroke-width="0" stroke-miterlimit="4"/>
  <path inkscape:connector-curvature="0" d="m -193.09168,228.04459 c 3.17098,-0.1007 5.08007,-1.69917 5.27103,-3.16799 0.24821,-3.3478 0.82703,-6.99152 0.25762,-10.48727 0,2.38467 -2.64264,4.30445 -5.9252,4.30445 -0.16831,3.89343 0.42995,6.58217 0.39655,9.35081 z" id="path2901" sodipodi:nodetypes="ccccc" stroke-dasharray="none" stroke-opacity="1" fill="url(#linearGradient2754)" stroke="none" stroke-linejoin="round" fill-opacity="1" stroke-linecap="round" stroke-width="0" stroke-miterlimit="4"/>
  <path inkscape:connector-curvature="0" d="m -277.6381,128.34459 6.85753,0.55602 -0.92669,16.8658 -5.56016,0.55601 -0.37068,-17.97783 z" id="path1942" stroke-opacity="1" fill="url(#linearGradient2756)" fill-rule="evenodd" stroke="none" stroke-linejoin="miter" fill-opacity="1" stroke-linecap="butt" stroke-width="1"/>
  <ellipse ry="38.11" rx="75.13" cy="996.29" cx="582.53" id="path1935" transform="matrix(0.1481811,0,0,0.1481811,-328.13954,75.748566)" stroke-dasharray="none" stroke-opacity="1" fill="#808080" stroke="url(#linearGradient2758)" stroke-linejoin="round" fill-opacity="1" stroke-linecap="round" stroke-width="10" stroke-miterlimit="4"/>
  <path inkscape:connector-curvature="0" d="m -250.82597,222.32032 c 0,0 0.88652,1.46733 2.56784,1.34506 1.68132,-0.12228 2.01855,-1.87806 4.15744,-1.83417 1.86211,0.0382 3.60859,0.80631 5.01339,1.58961 1.70332,0.94976 4.85968,0.61335 6.35845,-1.1005" id="path2833" sodipodi:nodetypes="csssc" stroke-dasharray="none" stroke-opacity="1" fill="none" fill-rule="evenodd" stroke="#000000" stroke-linejoin="miter" stroke-linecap="butt" stroke-width="1.185" stroke-miterlimit="4"/>
  <path inkscape:connector-curvature="0" sodipodi:nodetypes="csssc" id="path2835" d="m -250.82597,223.05399 c 0,0 0.88652,1.46733 2.56784,1.34505 1.68132,-0.12228 2.01855,-1.87805 4.15744,-1.83415 1.86211,0.0382 3.60859,0.80629 5.01339,1.58959 1.70332,0.94977 4.85968,0.61336 6.35845,-1.10049" stroke-dasharray="none" stroke-opacity="1" fill="none" fill-rule="evenodd" stroke="#bfb3b3" stroke-linejoin="miter" stroke-linecap="butt" stroke-width="1.185" stroke-miterlimit="4"/>
  <path inkscape:connector-curvature="0" d="m -273.68192,142.03088 1.04625,-23.43602 c 4.69401,-29.410856 54.37748,-31.657116 59.2178,-0.62775 l 3.55726,26.78402" id="path2814" sodipodi:nodetypes="cccc" stroke-dasharray="none" stroke-opacity="1" fill="none" fill-rule="evenodd" stroke="url(#linearGradient2761)" stroke-linejoin="miter" stroke-linecap="butt" stroke-width="0.619" stroke-miterlimit="4"/>
  <path inkscape:connector-curvature="0" id="path2873" d="m -206.61407,128.38397 -7.78422,0.55602 1.85339,16.8658 4.8188,0.18534 1.11203,-17.60716 z" sodipodi:nodetypes="ccccc" stroke-opacity="1" fill="url(#linearGradient2763)" fill-rule="evenodd" stroke="none" stroke-linejoin="miter" fill-opacity="1" stroke-linecap="butt" stroke-width="1"/>
 </g>
 <g font-size="7.5" font-variant="normal" letter-spacing="0" font-stretch="normal" font-weight="bold" line-height="125%" word-spacing="0" font-style="normal" transform="translate(60.833027,-41.123214)" id="text4330" stroke-opacity="1" font-family="STIX" fill="#000000" stroke="none" stroke-linejoin="miter" fill-opacity="1" stroke-linecap="butt" stroke-width="1">
  <path inkscape:connector-curvature="0" id="path4335" d="m -56.13327,39.467617 0,-0.1875 c -0.3075,0 -0.4425,-0.165 -0.825,-1.0725 l -1.665,-3.915 -0.21,0 -1.6575,4.0875 c -0.285,0.705 -0.3975,0.84 -0.7425,0.9 l 0,0.1875 1.515,0 0,-0.1875 c -0.4425,-0.03 -0.6075,-0.1125 -0.6075,-0.3075 0,-0.18 0.1425,-0.495 0.2325,-0.7275 l 0.0975,-0.255 1.6875,0 c 0.255,0.5925 0.345,0.855 0.345,1.02 0,0.165 -0.0975,0.225 -0.345,0.2475 l -0.24,0.0225 0,0.1875 2.415,0 z m -2.2875,-1.77 -1.4625,0 0.705,-1.8225 0.7575,1.8225 z"/>
  <path inkscape:connector-curvature="0" id="path4337" d="m -55.760848,34.397617 0,0.1875 c 0.525,0.045 0.63,0.15 0.63,0.735 l 0,3.2025 c 0,0.3825 -0.045,0.5925 -0.2925,0.69 -0.0825,0.0375 -0.195,0.0525 -0.3375,0.0675 l 0,0.1875 2.4975,0 0,-0.1875 c -0.5925,-0.075 -0.6525,-0.1425 -0.6525,-0.645 l 0,-1.44 c 0.99,-0.0075 1.245,-0.03 1.5675,-0.15 0.6225,-0.2325 0.9675,-0.69 0.9675,-1.29 0,-0.915 -0.765,-1.3575 -2.0175,-1.3575 l -2.3625,0 z m 1.845,0.525 c 0,-0.1725 0.1275,-0.2625 0.375,-0.2625 0.6225,0 0.87,0.345 0.87,1.1775 0,0.8325 -0.3075,1.0875 -1.245,1.095 l 0,-2.01 z"/>
 </g>
</svg>
