<?xml version="1.0" encoding="UTF-8" standalone="no"?>
<!-- Created with Inkscape (http://www.inkscape.org/) -->

<svg
   xmlns:dc="http://purl.org/dc/elements/1.1/"
   xmlns:cc="http://creativecommons.org/ns#"
   xmlns:rdf="http://www.w3.org/1999/02/22-rdf-syntax-ns#"
   xmlns:svg="http://www.w3.org/2000/svg"
   xmlns="http://www.w3.org/2000/svg"
   xmlns:xlink="http://www.w3.org/1999/xlink"
   xmlns:sodipodi="http://sodipodi.sourceforge.net/DTD/sodipodi-0.dtd"
   xmlns:inkscape="http://www.inkscape.org/namespaces/inkscape"
   width="255"
   height="255"
   viewBox="0 0 67.468749 67.468749"
   version="1.1"
   id="svg8"
   inkscape:version="0.92.5 (2060ec1f9f, 2020-04-08)"
   sodipodi:docname="user-identity.svg">
  <defs
     id="defs2">
    <linearGradient
       id="linearGradient4681"
       inkscape:collect="always">
      <stop
         id="stop4677"
         stop-color="#6883f5"
         stop-opacity="0.58" />
      <stop
         id="stop4679"
         offset="1"
         stop-color="#6983f0"
         stop-opacity="0.36" />
    </linearGradient>
    <linearGradient
       id="linearGradient4666"
       inkscape:collect="always">
      <stop
         id="stop4662"
         stop-color="#ffffff"
         stop-opacity="0.434" />
      <stop
         id="stop4664"
         offset="1"
         stop-color="#5559f9"
         stop-opacity="0.435" />
    </linearGradient>
    <linearGradient
       id="linearGradient993"
       inkscape:collect="always">
      <stop
         id="stop989"
         stop-color="#000000"
         stop-opacity="1" />
      <stop
         id="stop991"
         offset="1"
         stop-color="#000000"
         stop-opacity="0" />
    </linearGradient>
    <linearGradient
       inkscape:collect="always"
       id="linearGradient1781">
      <stop
         id="stop1777"
         stop-color="#000000"
         stop-opacity="0.109" />
      <stop
         offset="1"
         id="stop1779"
         stop-color="#000000"
         stop-opacity="0" />
    </linearGradient>
    <linearGradient
       id="linearGradient984"
       inkscape:collect="always">
      <stop
         id="stop980"
         stop-color="#e2e4ff"
         stop-opacity="0.815" />
      <stop
         id="stop982"
         offset="1"
         stop-color="#5c68ff"
         stop-opacity="0" />
    </linearGradient>
    <linearGradient
       inkscape:collect="always"
       id="linearGradient976">
      <stop
         id="stop972"
         stop-color="#9498ff"
         stop-opacity="0.321" />
      <stop
         offset="1"
         id="stop974"
         stop-color="#4a51ff"
         stop-opacity="0.19" />
    </linearGradient>
    <linearGradient
       id="linearGradient970"
       inkscape:collect="always">
      <stop
         id="stop966"
         stop-color="#b8b8ff"
         stop-opacity="0.325" />
      <stop
         id="stop968"
         offset="1"
         stop-color="#0f1fa2"
         stop-opacity="0.087" />
    </linearGradient>
    <linearGradient
       inkscape:collect="always"
       id="linearGradient868">
      <stop
         id="stop864"
         stop-color="#6a7cef"
         stop-opacity="0.694" />
      <stop
         offset="1"
         id="stop866"
         stop-color="#152bbf"
         stop-opacity="0" />
    </linearGradient>
    <linearGradient
       inkscape:collect="always"
       id="linearGradient899">
      <stop
         id="stop895"
         stop-color="#8c94ff"
         stop-opacity="0.725" />
      <stop
         offset="1"
         id="stop897"
         stop-color="#4652ff"
         stop-opacity="0" />
    </linearGradient>
    <linearGradient
       inkscape:collect="always"
       id="linearGradient891">
      <stop
         id="stop887"
         stop-color="#6883f5"
         stop-opacity="0.58" />
      <stop
         offset="1"
         id="stop889"
         stop-color="#243a95"
         stop-opacity="0.604" />
    </linearGradient>
    <linearGradient
       inkscape:collect="always"
       id="linearGradient879">
      <stop
         id="stop875"
         stop-color="#8f9aff"
         stop-opacity="0.614" />
      <stop
         offset="1"
         id="stop877"
         stop-color="#0e1eac"
         stop-opacity="0.663" />
    </linearGradient>
    <linearGradient
       inkscape:collect="always"
       id="linearGradient871">
      <stop
         id="stop867"
         stop-color="#fefefe"
         stop-opacity="0.451" />
      <stop
         offset="1"
         id="stop869"
         stop-color="#9496ea"
         stop-opacity="0.598" />
    </linearGradient>
    <linearGradient
       id="linearGradient865"
       inkscape:collect="always">
      <stop
         id="stop861"
         stop-color="#8a8eff"
         stop-opacity="0.475" />
      <stop
         id="stop863"
         offset="1"
         stop-color="#3e44e6"
         stop-opacity="0.592" />
    </linearGradient>
    <linearGradient
       inkscape:collect="always"
       id="linearGradient849">
      <stop
         id="stop845"
         stop-color="#090e77"
         stop-opacity="0.675" />
      <stop
         offset="1"
         id="stop847"
         stop-color="#2f38fc"
         stop-opacity="0.529" />
    </linearGradient>
    <linearGradient
       inkscape:collect="always"
       id="linearGradient841">
      <stop
         id="stop837"
         stop-color="#dbdcff"
         stop-opacity="0.554" />
      <stop
         offset="1"
         id="stop839"
         stop-color="#2429e4"
         stop-opacity="0.435" />
    </linearGradient>
    <linearGradient
       inkscape:collect="always"
       id="linearGradient833">
      <stop
         id="stop829"
         stop-color="#ffffff"
         stop-opacity="0.534" />
      <stop
         offset="1"
         id="stop831"
         stop-color="#c0c0c0"
         stop-opacity="0" />
    </linearGradient>
    <radialGradient
       inkscape:collect="always"
       xlink:href="#linearGradient984"
       id="radialGradient835"
       cx="151.06"
       cy="200.09"
       fx="151.06"
       fy="200.09"
       r="6.878"
       gradientTransform="matrix(1.1230153,0,0,1.3071161,-33.010596,-57.969182)"
       gradientUnits="userSpaceOnUse" />
    <linearGradient
       inkscape:collect="always"
       xlink:href="#linearGradient841"
       id="linearGradient843"
       x1="42.748"
       y1="252.85"
       x2="54.836"
       y2="252.78"
       gradientUnits="userSpaceOnUse"
       spreadMethod="reflect"
       gradientTransform="matrix(1.1230153,0,0,1.1230153,-19.357847,-34.081896)" />
    <linearGradient
       inkscape:collect="always"
       xlink:href="#linearGradient849"
       id="linearGradient851"
       x1="43.23"
       y1="263.31"
       x2="47.892"
       y2="272.78"
       gradientUnits="userSpaceOnUse"
       gradientTransform="matrix(1.2116421,0,0,1.1230153,-23.499215,-34.081896)" />
    <linearGradient
       inkscape:collect="always"
       xlink:href="#linearGradient865"
       id="linearGradient859"
       x1="42.913"
       y1="267.82"
       x2="49.32"
       y2="267.9"
       gradientUnits="userSpaceOnUse"
       gradientTransform="matrix(1.2116421,0,0,1.1230153,-23.499215,-34.081896)" />
    <linearGradient
       inkscape:collect="always"
       xlink:href="#linearGradient879"
       id="linearGradient881"
       x1="36.591"
       y1="279.9"
       x2="53.25"
       y2="280.23"
       gradientUnits="userSpaceOnUse"
       spreadMethod="reflect"
       gradientTransform="matrix(1.2116421,0,0,1.1230153,-23.499215,-34.081896)" />
    <radialGradient
       inkscape:collect="always"
       xlink:href="#linearGradient833"
       id="radialGradient885"
       gradientUnits="userSpaceOnUse"
       gradientTransform="matrix(1.192953,0,0,1.3302008,-24.226064,-23.296386)"
       cx="151.06"
       cy="200.09"
       fx="151.06"
       fy="200.09"
       r="6.878" />
    <linearGradient
       inkscape:collect="always"
       xlink:href="#linearGradient891"
       id="linearGradient893"
       x1="39.19"
       y1="280.27"
       x2="52.795"
       y2="280.79"
       gradientUnits="userSpaceOnUse"
       spreadMethod="reflect"
       gradientTransform="matrix(1.2116421,0,0,1.1230153,-23.499215,-34.081896)" />
    <linearGradient
       inkscape:collect="always"
       xlink:href="#linearGradient899"
       id="linearGradient901"
       x1="53.58"
       y1="277.88"
       x2="59.23"
       y2="279.98"
       gradientUnits="userSpaceOnUse"
       gradientTransform="matrix(1.2116421,0,0,1.1230153,-23.499215,-34.081896)" />
    <linearGradient
       inkscape:collect="always"
       xlink:href="#linearGradient868"
       id="linearGradient870"
       x1="28.466"
       y1="275.58"
       x2="34.01"
       y2="277.53"
       gradientUnits="userSpaceOnUse"
       gradientTransform="matrix(1.2116421,0,0,1.1230153,-23.499215,-34.081896)" />
    <linearGradient
       inkscape:collect="always"
       xlink:href="#linearGradient970"
       id="linearGradient964"
       gradientUnits="userSpaceOnUse"
       x1="53.58"
       y1="277.88"
       x2="66.52"
       y2="289.6"
       gradientTransform="matrix(1.2116421,0,0,1.1230153,-23.499215,-34.081896)" />
    <linearGradient
       inkscape:collect="always"
       xlink:href="#linearGradient976"
       id="linearGradient978"
       x1="35.605"
       y1="252.87"
       x2="53.13"
       y2="252.87"
       gradientUnits="userSpaceOnUse"
       spreadMethod="reflect"
       gradientTransform="matrix(1.1230153,0,0,1.1230153,-19.357847,-34.081896)" />
    <linearGradient
       inkscape:collect="always"
       xlink:href="#linearGradient993"
       id="linearGradient1783"
       x1="-32.451"
       y1="288.93"
       x2="-4.357"
       y2="246.03"
       gradientUnits="userSpaceOnUse" />
    <linearGradient
       inkscape:collect="always"
       xlink:href="#linearGradient1781"
       id="linearGradient1785"
       gradientUnits="userSpaceOnUse"
       x1="-32.451"
       y1="288.93"
       x2="-4.357"
       y2="246.03" />
    <linearGradient
       inkscape:collect="always"
       xlink:href="#linearGradient1781"
       id="linearGradient1787"
       gradientUnits="userSpaceOnUse"
       x1="-32.451"
       y1="288.93"
       x2="-4.357"
       y2="246.03" />
    <linearGradient
       inkscape:collect="always"
       xlink:href="#linearGradient1781"
       id="linearGradient1789"
       gradientUnits="userSpaceOnUse"
       x1="-32.451"
       y1="288.93"
       x2="-4.357"
       y2="246.03" />
    <linearGradient
       inkscape:collect="always"
       xlink:href="#linearGradient1781"
       id="linearGradient1791"
       gradientUnits="userSpaceOnUse"
       x1="-32.451"
       y1="288.93"
       x2="-4.357"
       y2="246.03" />
    <radialGradient
       inkscape:collect="always"
       xlink:href="#linearGradient4666"
       id="radialGradient4660"
       cx="25.11"
       cy="244.49"
       fx="25.11"
       fy="244.49"
       r="11.237"
       gradientTransform="matrix(-0.07338008,1.455772,-1.2917248,-0.06511107,342.7605,222.30029)"
       gradientUnits="userSpaceOnUse"
       spreadMethod="reflect" />
    <linearGradient
       inkscape:collect="always"
       xlink:href="#linearGradient879"
       id="linearGradient4686"
       gradientUnits="userSpaceOnUse"
       gradientTransform="matrix(1.1246457,0,0,1.0423824,-19.434032,-11.814405)"
       x1="36.591"
       y1="279.9"
       x2="50.633"
       y2="280.5"
       spreadMethod="reflect" />
    <linearGradient
       inkscape:collect="always"
       xlink:href="#linearGradient4681"
       id="linearGradient4688"
       gradientUnits="userSpaceOnUse"
       gradientTransform="matrix(1.1246457,0,0,1.0423824,-19.434032,-11.814405)"
       x1="39.19"
       y1="280.27"
       x2="52.795"
       y2="280.79"
       spreadMethod="reflect" />
    <linearGradient
       inkscape:collect="always"
       xlink:href="#linearGradient871"
       id="linearGradient4690"
       gradientUnits="userSpaceOnUse"
       gradientTransform="matrix(1.1246457,0,0,1.0423824,-19.810953,-12.26671)"
       x1="43.598"
       y1="272.14"
       x2="53.806"
       y2="271.84"
       spreadMethod="reflect" />
    <linearGradient
       inkscape:collect="always"
       xlink:href="#linearGradient849"
       id="linearGradient4692"
       gradientUnits="userSpaceOnUse"
       gradientTransform="matrix(1.1246457,0,0,1.0423824,-19.434032,-11.814405)"
       x1="42.826"
       y1="258.39"
       x2="47.892"
       y2="272.78" />
    <linearGradient
       inkscape:collect="always"
       xlink:href="#linearGradient865"
       id="linearGradient4694"
       gradientUnits="userSpaceOnUse"
       gradientTransform="matrix(1.1246457,0,0,1.0423824,-19.434032,-11.814405)"
       x1="42.913"
       y1="267.82"
       x2="49.32"
       y2="267.9" />
    <linearGradient
       inkscape:collect="always"
       xlink:href="#linearGradient868"
       id="linearGradient4696"
       gradientUnits="userSpaceOnUse"
       gradientTransform="matrix(1.1246457,0,0,1.0423824,-19.434032,-11.814405)"
       x1="28.466"
       y1="275.58"
       x2="31.525"
       y2="276.86" />
    <linearGradient
       inkscape:collect="always"
       xlink:href="#linearGradient970"
       id="linearGradient4698"
       gradientUnits="userSpaceOnUse"
       gradientTransform="matrix(1.1246457,0,0,1.0423824,-18.227887,-10.909796)"
       x1="53.58"
       y1="277.88"
       x2="66.52"
       y2="289.6" />
    <linearGradient
       inkscape:collect="always"
       xlink:href="#linearGradient899"
       id="linearGradient4700"
       gradientUnits="userSpaceOnUse"
       gradientTransform="matrix(1.1246457,0,0,1.0423824,-19.434032,-11.814405)"
       x1="53.58"
       y1="277.88"
       x2="59.23"
       y2="279.98" />
    <radialGradient
       inkscape:collect="always"
       xlink:href="#linearGradient833"
       id="radialGradient4702"
       gradientUnits="userSpaceOnUse"
       gradientTransform="matrix(1.1072985,0,0,1.2346918,-12.717882,-5.9232937)"
       cx="148.09"
       cy="199.32"
       fx="148.09"
       fy="199.32"
       r="6.878" />
  </defs>
  <sodipodi:namedview
     id="base"
     pagecolor="#ff0000"
     bordercolor="#666666"
     borderopacity="1.0"
     inkscape:pageopacity="0"
     inkscape:pageshadow="2"
     inkscape:zoom="3.5098039"
     inkscape:cx="127.5"
     inkscape:cy="127.5"
     inkscape:document-units="mm"
     inkscape:current-layer="layer1"
     showgrid="false"
     inkscape:snap-to-guides="false"
     inkscape:snap-grids="false"
     inkscape:snap-others="false"
     inkscape:object-nodes="false"
     inkscape:snap-nodes="false"
     inkscape:snap-global="false"
     inkscape:window-width="1920"
     inkscape:window-height="1056"
     inkscape:window-x="0"
     inkscape:window-y="0"
     inkscape:window-maximized="1"
     units="px"
     inkscape:pagecheckerboard="true" />
  <metadata
     id="metadata5">
    <rdf:RDF>
      <cc:Work>
        <dc:format>image/svg+xml</dc:format>
        <dc:type
           rdf:resource="http://purl.org/dc/dcmitype/StillImage" />
        <dc:title></dc:title>
      </cc:Work>
    </rdf:RDF>
  </metadata>
  <g
     inkscape:label="Layer 1"
     inkscape:groupmode="layer"
     id="layer1"
     transform="translate(0,-229.53126)">
    <g
       id="g1775"
       transform="matrix(1.0757483,0,0,1,66.456772,7.3876397)"
       fill="url(#linearGradient1783)"
       fill-opacity="1">
      <path
         inkscape:connector-curvature="0"
         id="path1690"
         d="m -9.6283091,245.43115 c -7.9251479,0.28135 -13.6870699,2.28701 -17.2167419,6.072 -1.499274,1.89398 -2.57579,3.8054 -3.059903,5.74102 -2.106851,2.83853 -2.722124,6.13345 -2.385662,9.71995 0.412261,0.30921 0.928789,0.54062 1.594891,0.66108 0.458272,0.13107 0.963945,0.20323 1.629249,0.0769 0.08421,-0.005 0.17038,-0.011 0.258128,-0.0184 -0.0567,0.18528 -0.08946,0.29353 -0.152281,0.50552 l -0.50567,0.14922 -2.599365,0.55802 c -1.634043,0.32196 -3.273889,0.64835 -3.273889,0.64835 -0.558288,0.13586 -1.116966,0.27095 -1.673704,0.41378 l -0.512552,0.10997 c 0.0049,-0.002 0.0095,-0.004 0.01433,-0.005 -0.01284,0.003 -0.02513,0.007 -0.03785,0.0103 l -0.311094,0.0666 -0.01257,0.0203 c -1.977335,0.53909 -3.807604,1.28664 -5.375354,2.40658 -0.02116,0.0148 -0.04232,0.0295 -0.06345,0.0445 -0.03333,0.0241 -0.06672,0.0483 -0.09979,0.0727 -0.532332,0.38616 -1.053362,0.82437 -1.559525,1.32843 0,0 -1.418761,1.80435 -2.578756,3.45021 l -1.324249,1.73926 c -0.616438,1.27645 -0.593824,2.10179 -0.07309,2.5755 0.360086,0.48174 0.983044,0.78826 1.744347,0.74552 0.630436,3.9775 7.520287,5.46487 13.662879,5.8486 0.338477,0.0343 0.67678,0.0686 1.014899,0.10324 0.06283,-0.0126 0.123015,-0.028 0.184964,-0.0414 3.049087,0.1241 5.789084,-0.0115 7.302599,-0.22883 0.585938,0.20085 1.373316,0.36108 2.28083,0.47211 0.01039,0.005 0.01905,0.0125 0.0296,0.0179 l 0.177766,0.007 c 4.253571,0.47456 10.976842,-0.1317 12.7994619,-2.87944 0.363637,-0.78184 0.676816,-1.5598 0.958325,-2.33582 0.727632,-1.38906 1.267829,-3.17522 1.533728,-5.47595 0.03899,-0.177 0.07926,-0.35415 0.11716,-0.53108 0.05464,-0.43563 0.05806,-0.82223 0.02283,-1.17141 0.0076,-0.14515 0.01594,-0.28909 0.02156,-0.43777 l -0.102559,-0.33831 c -0.02927,-0.0102 -0.06068,-0.0182 -0.09043,-0.0278 -0.367307,-1.08723 -1.204618,-1.72251 -2.06008,-2.34015 -0.112878,-0.0677 -0.220467,-0.1353 -0.325991,-0.20265 l -3.2302339,-2.75447 c -0.176447,-0.16447 -0.3577,-0.32912 -0.552038,-0.49433 l -0.09178,-0.11027 c 0.127624,-0.15268 0.247207,-0.32893 0.352054,-0.5478 -0.0078,-1.28386 -0.885842,-1.10131 -1.486864,-1.38551 -0.10274,-1.82217 1.275548,-3.58361 2.111853,-5.36725 l -0.03198,-0.002 c 0.364218,-0.11055 0.740547,-0.24942 0.998134,-0.38323 3.2963989,-1.35784 9.7570599,-8.52266 9.9784069,-10.89806 0.455368,-3.40289 -1.737867,-4.83776 -5.168474,-5.35348 -0.01669,-0.01 -0.03196,-0.0187 -0.04902,-0.028 -0.02267,0.003 -0.04486,0.007 -0.06747,0.0102 -0.8401,-0.12027 -1.751406,-0.18769 -2.715644,-0.21571 z"
         stroke-dasharray="none"
         stroke-opacity="1"
         fill="url(#linearGradient1785)"
         stroke="none"
         stroke-linejoin="miter"
         fill-opacity="1"
         stroke-linecap="butt"
         stroke-width="0.095"
         stroke-miterlimit="4" />
      <path
         inkscape:connector-curvature="0"
         id="path1745"
         d="m -11.068359,245.76758 c -5.886238,0.41641 -12.568306,1.87003 -16.259477,6.82395 -1.601986,1.90704 -1.96792,4.42949 -3.375289,6.42605 -1.256093,2.37954 -1.578496,5.14696 -1.333984,7.79883 1.058396,0.70562 2.373565,0.75789 3.591797,0.57812 -0.107316,1.76222 -2.363454,1.22503 -3.570313,1.76172 -5.230635,0.97854 -11.279097,2.02522 -14.236562,6.97362 -0.902437,1.70582 -3.28917,3.15788 -2.65211,5.29786 0.475907,1.11025 2.153991,0.35944 2.112039,1.63734 1.42691,3.12595 5.301707,3.81436 8.326644,4.46814 4.445065,0.75812 9.009225,0.8776 13.504676,0.41796 4.301721,1.04653 9.058624,0.8973 13.173333,-0.81134 2.2414333,-0.85172 2.5287917,-3.55271 3.4829175,-5.48163 0.4904351,-1.89838 1.1688727,-4.05759 0.8164063,-5.9414 -0.8392375,-2.15841 -3.3240678,-2.94097 -4.7755738,-4.61445 -0.637081,-0.68627 -2.133517,-1.25243 -1.206848,-2.23907 -0.06369,-1.09847 -2.027959,-0.56591 -1.449219,-1.9082 0.234721,-1.63377 1.245082,-3.0022 1.951172,-4.45313 -1.000922,-0.24673 1.407858,-0.69344 1.892578,-1.13867 3.6676439,-2.44624 6.8957421,-5.76963 8.9863282,-9.66601 1.0208924,-2.39831 -0.7023584,-5.07743 -3.2415477,-5.45258 -1.8303074,-0.48292 -3.8154007,-0.62362 -5.7369675,-0.47711 z"
         stroke-dasharray="none"
         stroke-opacity="1"
         fill="url(#linearGradient1787)"
         stroke="none"
         stroke-linejoin="miter"
         fill-opacity="1"
         stroke-linecap="butt"
         stroke-width="0.095"
         stroke-miterlimit="4" />
      <path
         inkscape:connector-curvature="0"
         id="path1749"
         d="m -10.330078,245.99023 c -6.514848,0.34359 -13.939809,1.93128 -17.558594,7.86915 -1.009185,2.1869 -2.064093,4.46087 -3.179687,6.63281 -0.677845,1.95077 -0.982341,4.17705 -0.644532,6.21484 1.083229,0.62362 2.38663,0.56948 3.580079,0.38281 0.126243,1.86014 -2.035056,2.0369 -3.341797,2.16993 -5.075071,1.10731 -11.118472,1.87162 -14.275391,6.57031 -0.836357,1.89023 -3.367133,3.18408 -2.908203,5.49609 0.45907,0.8566 2.185854,0.3745 2.125,1.66602 1.737322,3.42335 6.117948,3.83814 9.469136,4.48907 4.086662,0.64345 8.308083,0.48047 12.419917,0.26989 4.501488,0.97966 9.563671,0.89998 13.654813,-1.38792 1.6691923,-1.73126 2.1496087,-4.27822 2.875328,-6.49355 0.536509,-1.98552 1.0049356,-4.59668 -1.0481004,-5.92241 -1.6622286,-1.30941 -3.5369426,-2.50117 -4.8203126,-4.18165 -0.112953,-0.67426 0.597761,-1.39151 -0.55664,-1.52148 -1.427207,-0.47889 -0.361012,-2.20915 -0.08399,-3.14648 0.397544,-1.0214 1.306682,-1.98212 1.244141,-2.9668 1.460544,-0.64611 2.954477,-1.30936 4.1523435,-2.44336 2.8907241,-2.40155 5.6868166,-5.25667 7.1007061,-8.78207 0.5382165,-2.52739 -1.8705751,-4.52194 -4.2199195,-4.61742 -1.3087398,-0.26031 -2.6516228,-0.34434 -3.9843021,-0.29778 z"
         stroke-dasharray="none"
         stroke-opacity="1"
         fill="url(#linearGradient1789)"
         stroke="none"
         stroke-linejoin="miter"
         fill-opacity="1"
         stroke-linecap="butt"
         stroke-width="0.095"
         stroke-miterlimit="4" />
      <path
         inkscape:connector-curvature="0"
         id="path1753"
         d="m -10.3125,246.25391 c -6.33517,0.32137 -13.684698,1.86455 -17.297016,7.66051 -1.603106,3.88082 -4.469741,7.5615 -3.937359,11.99378 0.107011,1.46453 2.315258,0.99326 3.376953,0.91992 0.696221,0.0981 0.152751,1.64842 -0.480469,1.95508 -1.917455,0.9983 -4.225402,0.7964 -6.263176,1.47531 -4.329306,0.85332 -9.094463,2.54562 -11.248542,6.74735 -0.893173,1.24955 -2.825031,2.67576 -2.09961,4.38086 0.907132,0.34535 2.094607,0.59771 2.13086,1.79101 2.258961,3.48498 6.907848,3.55575 10.632812,4.24415 3.792454,0.50627 7.641891,0.045 11.425187,0.17385 4.343606,0.82259 9.270657,0.79302 13.093182,-1.64043 1.8197685,-2.37454 2.4753728,-5.46554 3.03625,-8.37315 0.4285508,-2.09403 -1.2594828,-3.57577 -2.86348,-4.55206 -1.19765,-1.05805 -2.973399,-1.97835 -3.448951,-3.53986 0.316258,-0.69969 0.03509,-1.04767 -0.673829,-1.13281 -1.350508,-1.07425 -0.02018,-2.92675 0.447266,-4.14648 0.818133,-0.72836 0.47826,-2.21966 1.476408,-2.53811 3.7749407,-1.62885 6.7202118,-4.76908 9.1201421,-8.02671 1.0914547,-1.5969 2.4002954,-3.74684 0.8116531,-5.48401 -1.7481734,-2.03917 -4.812333,-1.80081 -7.2382812,-1.9082 z"
         stroke-dasharray="none"
         stroke-opacity="1"
         fill="url(#linearGradient1791)"
         stroke="none"
         stroke-linejoin="miter"
         fill-opacity="1"
         stroke-linecap="butt"
         stroke-width="0.095"
         stroke-miterlimit="4" />
    </g>
    <path
       d="m 24.647582,266.63109 c -0.456659,0.12698 -5.982239,2.11629 -5.982239,2.11629 -3.027721,1.33043 -6.102662,2.58498 -7.352218,6.77211 0,0 -0.867654,6.0949 -0.639323,8.08419 -0.08543,2.05337 1.935068,4.11621 3.607609,3.89397 4.954207,8.65434 22.373716,7.85228 26.897246,6.64513 4.211582,1.39619 14.363304,0.66059 14.613105,-4.19024 -0.379966,-3.99047 -1.363137,-7.88775 -2.46596,-11.76654 -1.203255,-3.41676 -3.105335,-4.67447 -5.023255,-5.88326 -2.79916,-1.52373 -4.341412,-3.04745 -6.484566,-4.57118 l -2.922621,-2.62418 z"
       id="path830"
       inkscape:connector-curvature="0"
       sodipodi:nodetypes="cccccccccccc"
       stroke-dasharray="none"
       stroke-opacity="1"
       fill="url(#linearGradient881)"
       stroke="none"
       stroke-linejoin="miter"
       fill-opacity="1"
       stroke-linecap="butt"
       stroke-width="0.117"
       stroke-miterlimit="4" />
    <path
       d="m 16.382045,269.72087 -0.319662,15.27956 c 0.379353,2.04575 0.133398,4.09149 1.735307,6.13723 4.81513,3.15132 10.257838,3.39429 15.663421,3.80931 5.175881,-1.8803 4.601289,-8.30085 6.804227,-12.5284 3.424094,-8.03048 5.599063,-9.6933 7.580548,-10.36979 l -6.712895,-4.7828 -16.120081,-0.88884 z"
       id="path834"
       inkscape:connector-curvature="0"
       sodipodi:nodetypes="ccccccccc"
       stroke-dasharray="none"
       stroke-opacity="1"
       fill="url(#linearGradient893)"
       stroke="none"
       stroke-linejoin="miter"
       fill-opacity="1"
       stroke-linecap="butt"
       stroke-width="0.117"
       stroke-miterlimit="4" />
    <path
       d="m 24.236589,265.10736 c 6.061753,-1.29635 11.056747,-3.10302 9.681182,-7.95721 l 4.201268,0.21162 c 0.250307,2.70885 -0.170122,5.41768 1.415644,8.12653 0.139211,3.673 -5.056632,9.03783 -10.594501,9.52327 -3.686128,0.3663 -6.374545,-2.6806 -4.201268,-7.66094 -0.09133,-0.29628 -0.502325,-2.24327 -0.502325,-2.24327 z"
       id="path824"
       inkscape:connector-curvature="0"
       sodipodi:nodetypes="ccccccc"
       stroke-dasharray="none"
       stroke-opacity="1"
       fill="url(#linearGradient851)"
       stroke="none"
       stroke-linejoin="miter"
       fill-opacity="1"
       stroke-linecap="butt"
       stroke-width="0.117"
       stroke-miterlimit="4" />
    <path
       sodipodi:nodetypes="cccccc"
       inkscape:connector-curvature="0"
       id="path826"
       d="m 35.607411,257.65806 2.511628,-0.29629 c 0.250307,2.70885 -0.170122,5.41768 1.415644,8.12653 -0.682775,4.56185 -4.645638,8.48759 -10.183507,8.97304 -3.686129,0.36629 -5.0959,-2.342 -4.429599,-5.79861 4.669675,2.60478 9.295898,-6.66607 10.685834,-11.00467 z"
       stroke-dasharray="none"
       stroke-opacity="1"
       fill="url(#linearGradient859)"
       stroke="none"
       stroke-linejoin="miter"
       fill-opacity="1"
       stroke-linecap="butt"
       stroke-width="0.117"
       stroke-miterlimit="4" />
    <path
       d="m 35.38304,257.61573 -1.735352,3.08977 c -0.594649,1.34512 -1.761697,1.9703 -3.047448,2.79349 l -5.375361,2.24327 c -1.650296,0.36601 -2.933778,-10e-4 -4.020938,-0.76186 -2.406048,-4.97485 -3.713879,-9.59828 -3.301403,-13.6712 -0.648664,-2.72295 -0.705105,-5.4459 -0.338606,-8.16886 1.253206,-5.47214 5.716458,-8.59406 13.290261,-9.43862 4.944205,-0.083 9.132162,1.34658 11.047,7.32235 1.159939,3.32032 -0.996896,13.66606 -3.428379,15.74514 -0.442615,0.51155 -1.617333,1.12488 -1.735353,0.88885 z"
       id="path814"
       inkscape:connector-curvature="0"
       sodipodi:nodetypes="cccccccccccc"
       stroke-dasharray="none"
       stroke-opacity="1"
       fill="url(#linearGradient843)"
       stroke="none"
       stroke-linejoin="miter"
       fill-opacity="1"
       stroke-linecap="butt"
       stroke-width="0.112"
       stroke-miterlimit="4" />
    <path
       d="m 22.346733,265.53063 c 0.839864,0.31461 1.674678,0.66458 2.624192,0.21163 l 5.460011,-2.24327 c 1.677661,-0.69257 2.978163,-1.76231 3.640009,-3.4707 l 1.354421,-2.45489 1.481399,0.0847 c 1.229961,-3.25908 2.359778,-6.51815 2.920471,-9.77723 1.023921,-5.18865 0.971752,-10.20039 -6.137223,-14.05212 -18.75237,5.41053 -13.411523,24.13541 -11.34328,31.7019 z"
       id="path822"
       inkscape:connector-curvature="0"
       sodipodi:nodetypes="ccccccccc"
       stroke-dasharray="none"
       stroke-opacity="1"
       fill="url(#linearGradient978)"
       stroke="none"
       stroke-linejoin="miter"
       fill-opacity="1"
       stroke-linecap="butt"
       stroke-width="0.112"
       stroke-miterlimit="4" />
    <path
       d="m 36.483507,253.25618 c -1.045728,-4.01189 2.629107,-5.29445 4.40187,-2.83582 -2.978661,-2.09015 -4.456279,0.24128 -4.40187,2.83582 z"
       id="path816"
       inkscape:connector-curvature="0"
       sodipodi:nodetypes="ccc"
       stroke-dasharray="none"
       stroke-opacity="1"
       fill="#babdff"
       stroke="none"
       stroke-linejoin="miter"
       fill-opacity="0.457"
       stroke-linecap="butt"
       stroke-width="0.112"
       stroke-miterlimit="4" />
    <path
       d="m 37.033742,254.90688 c 0.01926,1.21499 0.210243,2.01499 1.566049,0 0.788615,-1.04803 1.256887,-2.35233 1.481399,-3.85164 -1.070102,-1.17366 -2.141915,-0.77628 -2.497215,0.0423 -0.624432,1.34031 -0.828454,2.46899 -0.550233,3.8093 z"
       id="path820"
       inkscape:connector-curvature="0"
       sodipodi:nodetypes="ccccc"
       stroke-dasharray="none"
       stroke-opacity="1"
       fill="#878cf5"
       stroke="none"
       stroke-linejoin="miter"
       fill-opacity="0.62"
       stroke-linecap="butt"
       stroke-width="0.112"
       stroke-miterlimit="4" />
    <path
       d="m 37.076067,254.82223 c -0.02345,-2.37588 0.823292,-5.41032 3.1321,-3.42838 -1.014561,-2.6123 -4.142542,-0.67584 -3.1321,3.42838 z"
       id="path818"
       inkscape:connector-curvature="0"
       sodipodi:nodetypes="ccc"
       stroke-dasharray="none"
       stroke-opacity="1"
       fill="#424af4"
       stroke="none"
       stroke-linejoin="miter"
       fill-opacity="0.571"
       stroke-linecap="butt"
       stroke-width="0.112"
       stroke-miterlimit="4" />
    <path
       d="m 16.701707,269.59389 c -4.905295,3.76886 -3.701454,14.39673 -4.657928,17.01493 -0.882747,-0.61864 -1.445953,-1.78026 -1.598308,-3.64001 l 0.913319,-7.407 c 0.756445,-3.00221 2.765913,-4.76561 5.342917,-5.96792 z"
       id="path832"
       inkscape:connector-curvature="0"
       sodipodi:nodetypes="ccccc"
       stroke-dasharray="none"
       stroke-opacity="1"
       fill="url(#linearGradient870)"
       stroke="none"
       stroke-linejoin="miter"
       fill-opacity="1"
       stroke-linecap="butt"
       stroke-width="0.117"
       stroke-miterlimit="4" />
    <path
       sodipodi:nodetypes="cccccc"
       inkscape:connector-curvature="0"
       id="path962"
       d="m 43.918615,294.69301 h 0.867653 c 3.451987,-1.54504 16.334639,2.11381 7.580548,-18.75027 l -0.319662,-0.46558 c -5.054782,-1.63795 -11.49574,0.15005 -10.959828,9.52327 0.433225,4.35925 0.854106,8.74578 2.831289,9.69258 z"
       stroke-dasharray="none"
       stroke-opacity="1"
       fill="url(#linearGradient964)"
       stroke="none"
       stroke-linejoin="miter"
       fill-opacity="1"
       stroke-linecap="butt"
       stroke-width="0.117"
       stroke-miterlimit="4" />
    <path
       d="m 43.918615,294.69301 h 0.867653 c -0.386508,-5.78197 -4.156312,-20.50408 7.580548,-18.75027 l -0.319662,-0.46558 c -5.054782,-1.63795 -11.49574,0.15005 -10.959828,9.52327 0.433225,4.35925 0.854106,8.74578 2.831289,9.69258 z"
       id="path836"
       inkscape:connector-curvature="0"
       sodipodi:nodetypes="cccccc"
       stroke-dasharray="none"
       stroke-opacity="1"
       fill="url(#linearGradient901)"
       stroke="none"
       stroke-linejoin="miter"
       fill-opacity="1"
       stroke-linecap="butt"
       stroke-width="0.117"
       stroke-miterlimit="4" />
    <ellipse
       id="path827"
       cx="136.63"
       cy="203.57"
       rx="7.724"
       ry="8.99"
       transform="rotate(27.777413)"
       opacity="1"
       stroke-dasharray="none"
       stroke-opacity="0.179"
       fill="url(#radialGradient835)"
       fill-rule="nonzero"
       stroke="none"
       stroke-linejoin="round"
       fill-opacity="1"
       stroke-linecap="round"
       stroke-width="0.112"
       stroke-dashoffset="0"
       stroke-miterlimit="4" />
    <ellipse
       transform="matrix(0.89862572,0.43871611,-0.49409088,0.86941026,0,0)"
       ry="9.149"
       rx="8.205"
       cy="242.86"
       cx="155.98"
       id="ellipse883"
       opacity="1"
       stroke-dasharray="none"
       stroke-opacity="0.179"
       fill="url(#radialGradient885)"
       fill-rule="nonzero"
       stroke="none"
       stroke-linejoin="round"
       fill-opacity="1"
       stroke-linecap="round"
       stroke-width="0.117"
       stroke-dashoffset="0"
       stroke-miterlimit="4" />
    <path
       sodipodi:nodetypes="cccccccccccc"
       inkscape:connector-curvature="0"
       id="path4656"
       d="m 34.840016,256.85732 -1.567138,2.79027 c -0.537008,1.21474 -1.59093,1.77931 -2.752049,2.52271 l -4.854309,2.02582 c -1.490327,0.33053 -2.649397,-9e-4 -3.631175,-0.68801 -2.172821,-4.49262 -3.35388,-8.66788 -2.981387,-12.346 -0.585786,-2.45901 -0.636756,-4.91801 -0.305783,-7.37703 1.131728,-4.9417 5.162342,-7.76101 12.001991,-8.5237 4.464946,-0.075 8.24695,1.21605 9.976177,6.61257 1.047502,2.99847 -0.900264,12.34136 -3.096055,14.21891 -0.399711,0.46196 -1.460559,1.01584 -1.567139,0.80269 z"
       stroke-dasharray="none"
       stroke-opacity="1"
       fill="url(#radialGradient4660)"
       stroke="none"
       stroke-linejoin="miter"
       fill-opacity="1"
       stroke-linecap="butt"
       stroke-width="0.101"
       stroke-miterlimit="4" />
    <path
       sodipodi:nodetypes="cccccccccccc"
       inkscape:connector-curvature="0"
       id="path4668"
       d="m 25.255806,267.30727 c -0.423871,0.11786 -5.552712,1.96434 -5.552712,1.96434 -2.81033,1.2349 -5.664489,2.39938 -6.824326,6.28587 0,0 -0.805356,5.65728 -0.593419,7.50374 -0.0793,1.90594 1.796129,3.82066 3.348581,3.61438 4.598493,8.03296 20.767274,7.28848 24.966013,6.16801 3.909189,1.29594 13.332013,0.61316 13.563878,-3.88938 -0.352684,-3.70395 -1.265263,-7.32141 -2.288903,-10.9217 -1.116861,-3.17143 -2.882371,-4.33884 -4.662583,-5.46084 -2.598179,-1.41432 -4.029697,-2.82864 -6.018972,-4.24297 l -2.712775,-2.43576 z"
       stroke-dasharray="none"
       stroke-opacity="1"
       fill="url(#linearGradient4686)"
       stroke="none"
       stroke-linejoin="miter"
       fill-opacity="1"
       stroke-linecap="butt"
       stroke-width="0.108"
       stroke-miterlimit="4" />
    <path
       sodipodi:nodetypes="ccccccccc"
       inkscape:connector-curvature="0"
       id="path4670"
       d="m 17.583738,270.1752 -0.296711,14.18248 c 0.352116,1.89887 0.12382,3.79772 1.610712,5.69658 4.469401,2.92505 9.521321,3.15058 14.538781,3.5358 4.80425,-1.7453 4.270914,-7.70485 6.315681,-11.62886 3.178242,-7.45389 5.197048,-8.99732 7.036261,-9.62523 l -6.230906,-4.4394 -14.962653,-0.82502 z"
       stroke-dasharray="none"
       stroke-opacity="1"
       fill="url(#linearGradient4688)"
       stroke="none"
       stroke-linejoin="miter"
       fill-opacity="1"
       stroke-linecap="butt"
       stroke-width="0.108"
       stroke-miterlimit="4" />
    <path
       sodipodi:nodetypes="ccccccc"
       inkscape:connector-curvature="0"
       id="path4672"
       d="m 25.345143,266.42282 12.970459,-1.1786 c 0.791225,0.42696 1.582453,0.0235 2.373679,1.7679 0.05668,0.66809 -0.08853,1.05551 -0.254323,1.41432 -2.103896,5.33113 -6.010436,8.53202 -12.631362,8.5252 -5.330244,-1.04125 -5.890799,-4.59631 -3.772454,-9.82166 z"
       stroke-dasharray="none"
       stroke-opacity="1"
       fill="url(#linearGradient4690)"
       stroke="none"
       stroke-linejoin="miter"
       fill-opacity="1"
       stroke-linecap="butt"
       stroke-width="0.108"
       stroke-miterlimit="4" />
    <path
       sodipodi:nodetypes="ccccccc"
       inkscape:connector-curvature="0"
       id="path4674"
       d="m 24.874322,265.89294 c 5.626517,-1.20327 10.262868,-2.88022 8.986069,-7.38588 l 3.899616,0.19643 c 0.232335,2.51435 -0.157908,5.02869 1.314,7.54304 0.129215,3.40928 -4.693564,8.38891 -9.833812,8.8395 -3.421462,0.34 -5.91685,-2.48814 -3.899615,-7.11089 -0.08477,-0.275 -0.466258,-2.0822 -0.466258,-2.0822 z"
       stroke-dasharray="none"
       stroke-opacity="1"
       fill="url(#linearGradient4692)"
       stroke="none"
       stroke-linejoin="miter"
       fill-opacity="1"
       stroke-linecap="butt"
       stroke-width="0.108"
       stroke-miterlimit="4" />
    <path
       d="m 35.428715,258.97851 2.331292,-0.27502 c 0.232335,2.51435 -0.157908,5.02869 1.314,7.54304 -0.633752,4.23431 -4.312079,7.87818 -9.452327,8.32877 -3.421464,0.33999 -4.730013,-2.17384 -4.111552,-5.38226 4.33439,2.41775 8.628449,-6.18745 9.918587,-10.21453 z"
       id="path4676"
       inkscape:connector-curvature="0"
       sodipodi:nodetypes="cccccc"
       stroke-dasharray="none"
       stroke-opacity="1"
       fill="url(#linearGradient4694)"
       stroke="none"
       stroke-linejoin="miter"
       fill-opacity="1"
       stroke-linecap="butt"
       stroke-width="0.108"
       stroke-miterlimit="4" />
    <path
       sodipodi:nodetypes="ccccc"
       inkscape:connector-curvature="0"
       id="path4678"
       d="m 17.880448,270.05734 c -5.457727,3.49825 -4.396611,13.36304 -4.323487,15.79325 -0.819366,-0.57422 -1.342133,-1.65244 -1.483549,-3.37866 l 0.847742,-6.87517 c 0.702132,-2.78665 2.56732,-4.42344 4.959294,-5.53942 z"
       stroke-dasharray="none"
       stroke-opacity="1"
       fill="url(#linearGradient4696)"
       stroke="none"
       stroke-linejoin="miter"
       fill-opacity="1"
       stroke-linecap="butt"
       stroke-width="0.108"
       stroke-miterlimit="4" />
    <path
       d="m 44.349316,294.25894 h 0.805355 c 3.204133,-1.4341 15.161805,1.96204 7.036262,-17.40399 l -0.296711,-0.43215 c -4.691846,-1.52035 -10.670341,0.13927 -10.172908,8.83949 0.40212,4.04626 0.792781,8.11783 2.628002,8.99665 z"
       id="path4680"
       inkscape:connector-curvature="0"
       sodipodi:nodetypes="cccccc"
       stroke-dasharray="none"
       stroke-opacity="1"
       fill="url(#linearGradient4698)"
       stroke="none"
       stroke-linejoin="miter"
       fill-opacity="1"
       stroke-linecap="butt"
       stroke-width="0.108"
       stroke-miterlimit="4" />
    <path
       sodipodi:nodetypes="cccccc"
       inkscape:connector-curvature="0"
       id="path4682"
       d="m 43.143171,293.35433 h 0.805355 c -0.358757,-5.36682 -3.857887,-19.03188 7.036262,-17.40399 l -0.296711,-0.43215 c -4.691846,-1.52035 -10.670341,0.13927 -10.172908,8.83949 0.40212,4.04626 0.792781,8.11783 2.628002,8.99665 z"
       stroke-dasharray="none"
       stroke-opacity="1"
       fill="url(#linearGradient4700)"
       stroke="none"
       stroke-linejoin="miter"
       fill-opacity="1"
       stroke-linecap="butt"
       stroke-width="0.108"
       stroke-miterlimit="4" />
    <ellipse
       id="ellipse4684"
       cx="154.55"
       cy="241.12"
       rx="7.616"
       ry="8.492"
       transform="matrix(0.89862572,0.43871611,-0.49409088,0.86941026,0,0)"
       opacity="1"
       stroke-dasharray="none"
       stroke-opacity="0.179"
       fill="url(#radialGradient4702)"
       fill-rule="nonzero"
       stroke="none"
       stroke-linejoin="round"
       fill-opacity="1"
       stroke-linecap="round"
       stroke-width="0.108"
       stroke-dashoffset="0"
       stroke-miterlimit="4" />
  </g>
</svg>
