<?xml version="1.0" encoding="UTF-8" standalone="no"?>
<!-- Created with Inkscape (http://www.inkscape.org/) -->
<svg
   xmlns:dc="http://purl.org/dc/elements/1.1/"
   xmlns:cc="http://creativecommons.org/ns#"
   xmlns:rdf="http://www.w3.org/1999/02/22-rdf-syntax-ns#"
   xmlns:svg="http://www.w3.org/2000/svg"
   xmlns="http://www.w3.org/2000/svg"
   xmlns:xlink="http://www.w3.org/1999/xlink"
   xmlns:sodipodi="http://sodipodi.sourceforge.net/DTD/sodipodi-0.dtd"
   xmlns:inkscape="http://www.inkscape.org/namespaces/inkscape"
   id="svg2"
   sodipodi:version="0.32"
   inkscape:version="0.46"
   width="256"
   height="256"
   version="1.0"
   sodipodi:docbase="/media/disk-hda2/svg4"
   sodipodi:docname="preferences-desktop-remote-desktop.svg"
   inkscape:output_extension="org.inkscape.output.svg.inkscape">
  <metadata
     id="metadata7">
    <rdf:RDF>
      <cc:Work
         rdf:about="">
        <dc:format>image/svg+xml</dc:format>
        <dc:type
           rdf:resource="http://purl.org/dc/dcmitype/StillImage" />
      </cc:Work>
    </rdf:RDF>
  </metadata>
  <defs
     id="defs5">
    <inkscape:perspective
       sodipodi:type="inkscape:persp3d"
       inkscape:vp_x="0 : 128 : 1"
       inkscape:vp_y="0 : 1000 : 0"
       inkscape:vp_z="256 : 128 : 1"
       inkscape:persp3d-origin="128 : 85.333333 : 1"
       id="perspective81" />
    <linearGradient
       id="linearGradient2977">
      <stop
         id="stop2979"
         offset="0"
         style="stop-color:#ffffff;stop-opacity:0;" />
      <stop
         id="stop2981"
         offset="1"
         style="stop-color:#fefeff;stop-opacity:1;" />
    </linearGradient>
    <linearGradient
       id="linearGradient2967">
      <stop
         style="stop-color:#000000;stop-opacity:1;"
         offset="0"
         id="stop2969" />
      <stop
         style="stop-color:#eaeaea;stop-opacity:1;"
         offset="1"
         id="stop2971" />
    </linearGradient>
    <linearGradient
       id="linearGradient2959">
      <stop
         style="stop-color:#b6b6b6;stop-opacity:1;"
         offset="0"
         id="stop2961" />
      <stop
         style="stop-color:#000000;stop-opacity:1;"
         offset="1"
         id="stop2963" />
    </linearGradient>
    <linearGradient
       inkscape:collect="always"
       id="linearGradient2764">
      <stop
         style="stop-color:#424e42;stop-opacity:1"
         offset="0"
         id="stop2766" />
      <stop
         style="stop-color:#b0b9b0;stop-opacity:1"
         offset="1"
         id="stop2768" />
    </linearGradient>
    <linearGradient
       inkscape:collect="always"
       xlink:href="#linearGradient2764"
       id="linearGradient2875"
       gradientUnits="userSpaceOnUse"
       spreadMethod="reflect"
       x1="151.02818"
       y1="25.667763"
       x2="157.81485"
       y2="25.667763" />
    <linearGradient
       inkscape:collect="always"
       xlink:href="#linearGradient2959"
       id="linearGradient2989"
       gradientUnits="userSpaceOnUse"
       x1="80.497353"
       y1="119.52362"
       x2="80.697357"
       y2="76.329285" />
    <linearGradient
       inkscape:collect="always"
       xlink:href="#linearGradient2967"
       id="linearGradient2991"
       gradientUnits="userSpaceOnUse"
       x1="97.964272"
       y1="123.51606"
       x2="94.171829"
       y2="71.614357" />
    <linearGradient
       inkscape:collect="always"
       xlink:href="#linearGradient2977"
       id="linearGradient2993"
       gradientUnits="userSpaceOnUse"
       x1="80.996407"
       y1="92.325134"
       x2="80.697357"
       y2="73.61058" />
    <linearGradient
       inkscape:collect="always"
       xlink:href="#linearGradient2967"
       id="linearGradient3020"
       x1="73.360115"
       y1="129.75426"
       x2="74.110588"
       y2="114.78261"
       gradientUnits="userSpaceOnUse"
       gradientTransform="matrix(2.093054,0,0,1.885686,-10.32222,5.87806)" />
    <linearGradient
       inkscape:collect="always"
       xlink:href="#linearGradient2977"
       id="linearGradient3315"
       gradientUnits="userSpaceOnUse"
       x1="81.296738"
       y1="90.116379"
       x2="80.697357"
       y2="73.61058" />
  </defs>
  <sodipodi:namedview
     inkscape:window-height="1025"
     inkscape:window-width="1680"
     inkscape:pageshadow="2"
     inkscape:pageopacity="0.0"
     guidetolerance="10.0"
     gridtolerance="10.0"
     objecttolerance="10.0"
     borderopacity="1.0"
     bordercolor="#666666"
     pagecolor="#ffffff"
     id="base"
     width="256px"
     height="256px"
     inkscape:zoom="3.3828125"
     inkscape:cx="128"
     inkscape:cy="128"
     inkscape:window-x="-5"
     inkscape:window-y="0"
     inkscape:current-layer="svg2"
     showgrid="false" />
  <path
     style="fill:none;fill-rule:evenodd;stroke:#103788;stroke-width:3.37733269;stroke-linecap:round;stroke-linejoin:round;stroke-miterlimit:4;stroke-dasharray:none;stroke-opacity:1"
     d="M 213.73349,119.7464 L 213.73349,143.74345"
     id="path3024" />
  <g
     id="g2850"
     transform="matrix(2.093054,0,0,1.885686,-247.4295,14.16279)"
     style="stroke:#000000;stroke-opacity:1">
    <g
       transform="translate(6.29956,18.89868)"
       id="g2808"
       style="stroke:#000000;stroke-opacity:1">
      <path
         style="fill:#000000;fill-opacity:1;stroke:#000000;stroke-width:0;stroke-linecap:round;stroke-linejoin:round;stroke-miterlimit:4;stroke-opacity:1"
         d="M 147.96875,12.46875 L 134,81.59375 L 173.90625,81.34375 L 159.9375,12.46875 L 147.96875,12.46875 z M 149.13141,13.890858 L 158.59347,13.890858 L 171.58498,79.629629 L 136.06495,79.991695 L 149.13141,13.890858 z "
         id="rect1873"
         sodipodi:nodetypes="cccccccccc" />
      <path
         sodipodi:nodetypes="cccccccccc"
         id="path2778"
         d="M 154.41797,16.338278 L 140.44922,85.463278 L 168.46025,77.330906 L 154.4915,8.4559058 L 154.41797,16.338278 z M 155.58063,17.760386 L 153.14747,9.8780138 L 166.13898,75.616785 L 142.51417,83.861223 L 155.58063,17.760386 z "
         style="fill:#000000;fill-opacity:1;stroke:#000000;stroke-width:0;stroke-linecap:round;stroke-linejoin:round;stroke-miterlimit:4;stroke-opacity:1" />
      <path
         style="fill:#000000;fill-opacity:1;stroke:#000000;stroke-width:0;stroke-linecap:round;stroke-linejoin:round;stroke-miterlimit:4;stroke-opacity:1"
         d="M 153.34497,16.481594 L 167.31372,85.606594 L 139.30269,77.474222 L 153.27144,8.5992217 L 153.34497,16.481594 z M 152.18231,17.903702 L 154.61547,10.021329 L 141.62396,75.760101 L 165.24877,84.004539 L 152.18231,17.903702 z "
         id="path2780"
         sodipodi:nodetypes="cccccccccc" />
      <path
         sodipodi:type="arc"
         style="opacity:1;fill:none;fill-opacity:1;stroke:#000000;stroke-width:0.99951208000000002;stroke-linecap:round;stroke-linejoin:round;stroke-miterlimit:4;stroke-dasharray:none;stroke-opacity:1"
         id="path2786"
         sodipodi:cx="155.42606"
         sodipodi:cy="40.636139"
         sodipodi:rx="11.393611"
         sodipodi:ry="5.5176606"
         d="M 166.81967 40.636139 A 11.393611 5.5176606 0 1 1  144.03244,40.636139 A 11.393611 5.5176606 0 1 1  166.81967 40.636139 z"
         transform="matrix(0.966623,0,0,0.593415,3.539601,16.30706)" />
      <path
         transform="matrix(1.252086,0,0,0.780279,-41.04374,28.92113)"
         d="M 166.81967 40.636139 A 11.393611 5.5176606 0 1 1  144.03244,40.636139 A 11.393611 5.5176606 0 1 1  166.81967 40.636139 z"
         sodipodi:ry="5.5176606"
         sodipodi:rx="11.393611"
         sodipodi:cy="40.636139"
         sodipodi:cx="155.42606"
         id="path2796"
         style="opacity:1;fill:none;fill-opacity:1;stroke:#000000;stroke-width:0.99951208000000002;stroke-linecap:round;stroke-linejoin:round;stroke-miterlimit:4;stroke-dasharray:none;stroke-opacity:1"
         sodipodi:type="arc" />
      <path
         sodipodi:type="arc"
         style="opacity:1;fill:none;fill-opacity:1;stroke:#000000;stroke-width:0.99951208000000002;stroke-linecap:round;stroke-linejoin:round;stroke-miterlimit:4;stroke-dasharray:none;stroke-opacity:1"
         id="path2800"
         sodipodi:cx="155.42606"
         sodipodi:cy="40.636139"
         sodipodi:rx="11.393611"
         sodipodi:ry="5.5176606"
         d="M 166.81967 40.636139 A 11.393611 5.5176606 0 1 1  144.03244,40.636139 A 11.393611 5.5176606 0 1 1  166.81967 40.636139 z"
         transform="matrix(1.676225,0,0,0.876878,-106.6078,45.41823)" />
      <path
         transform="matrix(0.614099,0,0,0.371971,58.33091,4.166611)"
         d="M 166.81967 40.636139 A 11.393611 5.5176606 0 1 1  144.03244,40.636139 A 11.393611 5.5176606 0 1 1  166.81967 40.636139 z"
         sodipodi:ry="5.5176606"
         sodipodi:rx="11.393611"
         sodipodi:cy="40.636139"
         sodipodi:cx="155.42606"
         id="path2804"
         style="opacity:1;fill:none;fill-opacity:1;stroke:#000000;stroke-width:0.99951208000000002;stroke-linecap:round;stroke-linejoin:round;stroke-miterlimit:4;stroke-dasharray:none;stroke-opacity:1"
         sodipodi:type="arc" />
    </g>
    <path
       sodipodi:nodetypes="ccccc"
       id="rect2831"
       d="M 154.85962,19.454132 C 159.18448,17.60346 162.81615,17.832328 165.98352,19.454132 L 165.98352,31.881392 C 162.39269,33.1699 158.73796,33.755532 154.85962,31.881392 L 154.85962,19.454132 z "
       style="fill:url(#linearGradient2875);fill-opacity:1;stroke:#000000;stroke-width:0.71163630000000000;stroke-linecap:round;stroke-linejoin:round;stroke-miterlimit:4;stroke-opacity:1" />
  </g>
  <g
     id="g3248">
    <g
       style="stroke:#7d7d7d;stroke-opacity:1"
       id="g2933"
       transform="matrix(-2.093054,0,0,1.885686,281.97014,-36.447802)">
      <path
         sodipodi:nodetypes="cscss"
         id="path2935"
         d="M 104.06079,42.119353 C 105.29152,43.259756 106.28767,44.617528 106.97613,46.124939 C 107.66459,47.632349 108.04537,49.289399 108.04537,51.028355 C 108.04537,52.767312 107.66459,54.424361 106.97613,55.931771 C 106.28767,57.439182 105.29152,58.796954 104.06079,59.937357"
         style="fill:none;fill-opacity:1;stroke:#000000;stroke-width:2;stroke-linecap:round;stroke-linejoin:round;stroke-miterlimit:4;stroke-dasharray:none;stroke-opacity:1" />
      <path
         style="fill:none;fill-opacity:1;stroke:#7d7d7d;stroke-width:1;stroke-linecap:round;stroke-linejoin:round;stroke-miterlimit:4;stroke-dasharray:none;stroke-opacity:1"
         d="M 104.06079,42.119353 C 105.29152,43.259756 106.28767,44.617528 106.97613,46.124939 C 107.66459,47.632349 108.04537,49.289399 108.04537,51.028355 C 108.04537,52.767312 107.66459,54.424361 106.97613,55.931771 C 106.28767,57.439182 105.29152,58.796954 104.06079,59.937357"
         id="path2937"
         sodipodi:nodetypes="cscss" />
      <path
         sodipodi:nodetypes="cscss"
         id="path2939"
         d="M 104.06079,42.119353 C 105.29152,43.259756 106.28767,44.617528 106.97613,46.124939 C 107.66459,47.632349 108.04537,49.289399 108.04537,51.028355 C 108.04537,52.767312 107.66459,54.424361 106.97613,55.931771 C 106.28767,57.439182 105.29152,58.796954 104.06079,59.937357"
         style="fill:none;fill-opacity:1;stroke:#ffffff;stroke-width:0.20000000000000001;stroke-linecap:round;stroke-linejoin:round;stroke-miterlimit:4;stroke-dasharray:none;stroke-opacity:1" />
    </g>
    <g
       style="stroke:#7d7d7d;stroke-opacity:1"
       transform="matrix(-4.2748033,0,0,3.4526948,504.73396,-117.35078)"
       id="g2941">
      <path
         style="fill:none;fill-opacity:1;stroke:#000000;stroke-width:2;stroke-linecap:round;stroke-linejoin:round;stroke-miterlimit:4;stroke-dasharray:none;stroke-opacity:1"
         d="M 104.06079,42.119353 C 105.29152,43.259756 106.28767,44.617528 106.97613,46.124939 C 107.66459,47.632349 108.04537,49.289399 108.04537,51.028355 C 108.04537,52.767312 107.66459,54.424361 106.97613,55.931771 C 106.28767,57.439182 105.29152,58.796954 104.06079,59.937357"
         id="path2943"
         sodipodi:nodetypes="cscss" />
      <path
         sodipodi:nodetypes="cscss"
         id="path2945"
         d="M 104.06079,42.119353 C 105.29152,43.259756 106.28767,44.617528 106.97613,46.124939 C 107.66459,47.632349 108.04537,49.289399 108.04537,51.028355 C 108.04537,52.767312 107.66459,54.424361 106.97613,55.931771 C 106.28767,57.439182 105.29152,58.796954 104.06079,59.937357"
         style="fill:none;fill-opacity:1;stroke:#818181;stroke-width:1;stroke-linecap:round;stroke-linejoin:round;stroke-miterlimit:4;stroke-dasharray:none;stroke-opacity:1" />
      <path
         style="fill:none;fill-opacity:1;stroke:#ffffff;stroke-width:0.20000000000000001;stroke-linecap:round;stroke-linejoin:round;stroke-miterlimit:4;stroke-dasharray:none;stroke-opacity:1"
         d="M 104.06079,42.119353 C 105.29152,43.259756 106.28767,44.617528 106.97613,46.124939 C 107.66459,47.632349 108.04537,49.289399 108.04537,51.028355 C 108.04537,52.767312 107.66459,54.424361 106.97613,55.931771 C 106.28767,57.439182 105.29152,58.796954 104.06079,59.937357"
         id="path2947"
         sodipodi:nodetypes="cscss" />
    </g>
    <g
       style="stroke:#7d7d7d;stroke-opacity:1"
       id="g2949"
       transform="matrix(-6.3183189,0,0,5.1735719,704.48122,-203.51749)">
      <path
         sodipodi:nodetypes="cscss"
         id="path2951"
         d="M 104.06079,42.119353 C 105.29152,43.259756 106.28767,44.617528 106.97613,46.124939 C 107.66459,47.632349 108.04537,49.289399 108.04537,51.028355 C 108.04537,52.767312 107.66459,54.424361 106.97613,55.931771 C 106.28767,57.439182 105.29152,58.796954 104.06079,59.937357"
         style="fill:none;fill-opacity:1;stroke:#000000;stroke-width:2;stroke-linecap:round;stroke-linejoin:round;stroke-miterlimit:4;stroke-dasharray:none;stroke-opacity:1" />
      <path
         style="fill:none;fill-opacity:1;stroke:#7d7d7d;stroke-width:1;stroke-linecap:round;stroke-linejoin:round;stroke-miterlimit:4;stroke-dasharray:none;stroke-opacity:1"
         d="M 104.06079,42.119353 C 105.29152,43.259756 106.28767,44.617528 106.97613,46.124939 C 107.66459,47.632349 108.04537,49.289399 108.04537,51.028355 C 108.04537,52.767312 107.66459,54.424361 106.97613,55.931771 C 106.28767,57.439182 105.29152,58.796954 104.06079,59.937357"
         id="path2953"
         sodipodi:nodetypes="cscss" />
      <path
         sodipodi:nodetypes="cscss"
         id="path2955"
         d="M 104.06079,42.119353 C 105.29152,43.259756 106.28767,44.617528 106.97613,46.124939 C 107.66459,47.632349 108.04537,49.289399 108.04537,51.028355 C 108.04537,52.767312 107.66459,54.424361 106.97613,55.931771 C 106.28767,57.439182 105.29152,58.796954 104.06079,59.937357"
         style="fill:none;fill-opacity:1;stroke:#ffffff;stroke-width:0.20000000000000001;stroke-linecap:round;stroke-linejoin:round;stroke-miterlimit:4;stroke-dasharray:none;stroke-opacity:1" />
    </g>
  </g>
  <g
     id="g2985"
     transform="matrix(2.355894,0,0,2.135585,-22.53295,-20.26079)">
    <rect
       y="76.854439"
       x="56.89225"
       height="40.423439"
       width="52.650284"
       id="rect2957"
       style="opacity:1;fill:url(#linearGradient2989);fill-opacity:1;stroke:url(#linearGradient2991);stroke-width:1;stroke-linecap:round;stroke-linejoin:round;stroke-miterlimit:4;stroke-dasharray:none;stroke-opacity:1" />
    <path
       style="fill:url(#linearGradient3315);fill-opacity:1;stroke:none;stroke-width:1;stroke-linecap:round;stroke-linejoin:round;stroke-miterlimit:4;stroke-opacity:1"
       d="M 56.89225,76.854439 L 109.54253,76.854439 L 109.54253,91.325025 L 56.89225,91.325025 L 56.89225,76.854439 z"
       id="rect2975"
       sodipodi:nodetypes="ccccc" />
  </g>
  <path
     style="fill:url(#linearGradient3020);fill-opacity:1;stroke:#333333;stroke-width:1.98666619999999994;stroke-linecap:round;stroke-linejoin:round;stroke-miterlimit:4;stroke-opacity:1"
     d="M 109.27861,231.2621 L 236.71357,231.2621 L 242.98086,241.14324 L 97.78858,241.61376 L 109.27861,231.2621 z "
     id="rect2995"
     sodipodi:nodetypes="ccccc" />
  <path
     sodipodi:nodetypes="ccccc"
     id="path3066"
     d="M 98.632107,247.71579 L 242.52075,247.71579 L 242.98086,241.14324 L 97.78858,241.61376 L 98.632107,247.71579 z "
     style="fill:url(#linearGradient3020);fill-opacity:1;stroke:#000000;stroke-width:1.98666619999999994;stroke-linecap:round;stroke-linejoin:round;stroke-miterlimit:4;stroke-opacity:1" />
  <g
     id="g3262"
     transform="matrix(-1,0,0,1,178.00542,2.8301887)">
    <g
       transform="matrix(-2.093054,0,0,1.885686,281.97014,-36.447802)"
       id="g3264"
       style="stroke:#7d7d7d;stroke-opacity:1">
      <path
         style="fill:none;fill-opacity:1;stroke:#000000;stroke-width:2;stroke-linecap:round;stroke-linejoin:round;stroke-miterlimit:4;stroke-dasharray:none;stroke-opacity:1"
         d="M 104.06079,42.119353 C 105.29152,43.259756 106.28767,44.617528 106.97613,46.124939 C 107.66459,47.632349 108.04537,49.289399 108.04537,51.028355 C 108.04537,52.767312 107.66459,54.424361 106.97613,55.931771 C 106.28767,57.439182 105.29152,58.796954 104.06079,59.937357"
         id="path3266"
         sodipodi:nodetypes="cscss" />
      <path
         sodipodi:nodetypes="cscss"
         id="path3268"
         d="M 104.06079,42.119353 C 105.29152,43.259756 106.28767,44.617528 106.97613,46.124939 C 107.66459,47.632349 108.04537,49.289399 108.04537,51.028355 C 108.04537,52.767312 107.66459,54.424361 106.97613,55.931771 C 106.28767,57.439182 105.29152,58.796954 104.06079,59.937357"
         style="fill:none;fill-opacity:1;stroke:#7d7d7d;stroke-width:1;stroke-linecap:round;stroke-linejoin:round;stroke-miterlimit:4;stroke-dasharray:none;stroke-opacity:1" />
      <path
         style="fill:none;fill-opacity:1;stroke:#ffffff;stroke-width:0.2;stroke-linecap:round;stroke-linejoin:round;stroke-miterlimit:4;stroke-dasharray:none;stroke-opacity:1"
         d="M 104.06079,42.119353 C 105.29152,43.259756 106.28767,44.617528 106.97613,46.124939 C 107.66459,47.632349 108.04537,49.289399 108.04537,51.028355 C 108.04537,52.767312 107.66459,54.424361 106.97613,55.931771 C 106.28767,57.439182 105.29152,58.796954 104.06079,59.937357"
         id="path3270"
         sodipodi:nodetypes="cscss" />
    </g>
    <g
       id="g3272"
       transform="matrix(-4.2748033,0,0,3.4526948,504.73396,-117.35078)"
       style="stroke:#7d7d7d;stroke-opacity:1">
      <path
         sodipodi:nodetypes="cscss"
         id="path3274"
         d="M 104.06079,42.119353 C 105.29152,43.259756 106.28767,44.617528 106.97613,46.124939 C 107.66459,47.632349 108.04537,49.289399 108.04537,51.028355 C 108.04537,52.767312 107.66459,54.424361 106.97613,55.931771 C 106.28767,57.439182 105.29152,58.796954 104.06079,59.937357"
         style="fill:none;fill-opacity:1;stroke:#000000;stroke-width:2;stroke-linecap:round;stroke-linejoin:round;stroke-miterlimit:4;stroke-dasharray:none;stroke-opacity:1" />
      <path
         style="fill:none;fill-opacity:1;stroke:#818181;stroke-width:1;stroke-linecap:round;stroke-linejoin:round;stroke-miterlimit:4;stroke-dasharray:none;stroke-opacity:1"
         d="M 104.06079,42.119353 C 105.29152,43.259756 106.28767,44.617528 106.97613,46.124939 C 107.66459,47.632349 108.04537,49.289399 108.04537,51.028355 C 108.04537,52.767312 107.66459,54.424361 106.97613,55.931771 C 106.28767,57.439182 105.29152,58.796954 104.06079,59.937357"
         id="path3276"
         sodipodi:nodetypes="cscss" />
      <path
         sodipodi:nodetypes="cscss"
         id="path3278"
         d="M 104.06079,42.119353 C 105.29152,43.259756 106.28767,44.617528 106.97613,46.124939 C 107.66459,47.632349 108.04537,49.289399 108.04537,51.028355 C 108.04537,52.767312 107.66459,54.424361 106.97613,55.931771 C 106.28767,57.439182 105.29152,58.796954 104.06079,59.937357"
         style="fill:none;fill-opacity:1;stroke:#ffffff;stroke-width:0.2;stroke-linecap:round;stroke-linejoin:round;stroke-miterlimit:4;stroke-dasharray:none;stroke-opacity:1" />
    </g>
    <g
       transform="matrix(-6.3183189,0,0,5.1735719,704.48122,-203.51749)"
       id="g3280"
       style="stroke:#7d7d7d;stroke-opacity:1">
      <path
         style="fill:none;fill-opacity:1;stroke:#000000;stroke-width:2;stroke-linecap:round;stroke-linejoin:round;stroke-miterlimit:4;stroke-dasharray:none;stroke-opacity:1"
         d="M 104.06079,42.119353 C 105.29152,43.259756 106.28767,44.617528 106.97613,46.124939 C 107.66459,47.632349 108.04537,49.289399 108.04537,51.028355 C 108.04537,52.767312 107.66459,54.424361 106.97613,55.931771 C 106.28767,57.439182 105.29152,58.796954 104.06079,59.937357"
         id="path3282"
         sodipodi:nodetypes="cscss" />
      <path
         sodipodi:nodetypes="cscss"
         id="path3284"
         d="M 104.06079,42.119353 C 105.29152,43.259756 106.28767,44.617528 106.97613,46.124939 C 107.66459,47.632349 108.04537,49.289399 108.04537,51.028355 C 108.04537,52.767312 107.66459,54.424361 106.97613,55.931771 C 106.28767,57.439182 105.29152,58.796954 104.06079,59.937357"
         style="fill:none;fill-opacity:1;stroke:#7d7d7d;stroke-width:1;stroke-linecap:round;stroke-linejoin:round;stroke-miterlimit:4;stroke-dasharray:none;stroke-opacity:1" />
      <path
         style="fill:none;fill-opacity:1;stroke:#ffffff;stroke-width:0.2;stroke-linecap:round;stroke-linejoin:round;stroke-miterlimit:4;stroke-dasharray:none;stroke-opacity:1"
         d="M 104.06079,42.119353 C 105.29152,43.259756 106.28767,44.617528 106.97613,46.124939 C 107.66459,47.632349 108.04537,49.289399 108.04537,51.028355 C 108.04537,52.767312 107.66459,54.424361 106.97613,55.931771 C 106.28767,57.439182 105.29152,58.796954 104.06079,59.937357"
         id="path3286"
         sodipodi:nodetypes="cscss" />
    </g>
  </g>
  <g
     transform="matrix(0,0.7926734,0.6858911,0,174.40587,67.74089)"
     id="g3288">
    <g
       style="stroke:#7d7d7d;stroke-opacity:1"
       id="g3290"
       transform="matrix(-2.093054,0,0,1.885686,281.97014,-36.447802)">
      <path
         sodipodi:nodetypes="cscss"
         id="path3292"
         d="M 104.06079,42.119353 C 105.29152,43.259756 106.28767,44.617528 106.97613,46.124939 C 107.66459,47.632349 108.04537,49.289399 108.04537,51.028355 C 108.04537,52.767312 107.66459,54.424361 106.97613,55.931771 C 106.28767,57.439182 105.29152,58.796954 104.06079,59.937357"
         style="fill:none;fill-opacity:1;stroke:#000000;stroke-width:2;stroke-linecap:round;stroke-linejoin:round;stroke-miterlimit:4;stroke-dasharray:none;stroke-opacity:1" />
      <path
         style="fill:none;fill-opacity:1;stroke:#7d7d7d;stroke-width:1;stroke-linecap:round;stroke-linejoin:round;stroke-miterlimit:4;stroke-dasharray:none;stroke-opacity:1"
         d="M 104.06079,42.119353 C 105.29152,43.259756 106.28767,44.617528 106.97613,46.124939 C 107.66459,47.632349 108.04537,49.289399 108.04537,51.028355 C 108.04537,52.767312 107.66459,54.424361 106.97613,55.931771 C 106.28767,57.439182 105.29152,58.796954 104.06079,59.937357"
         id="path3294"
         sodipodi:nodetypes="cscss" />
      <path
         sodipodi:nodetypes="cscss"
         id="path3296"
         d="M 104.06079,42.119353 C 105.29152,43.259756 106.28767,44.617528 106.97613,46.124939 C 107.66459,47.632349 108.04537,49.289399 108.04537,51.028355 C 108.04537,52.767312 107.66459,54.424361 106.97613,55.931771 C 106.28767,57.439182 105.29152,58.796954 104.06079,59.937357"
         style="fill:none;fill-opacity:1;stroke:#ffffff;stroke-width:0.2;stroke-linecap:round;stroke-linejoin:round;stroke-miterlimit:4;stroke-dasharray:none;stroke-opacity:1" />
    </g>
    <g
       style="stroke:#7d7d7d;stroke-opacity:1"
       transform="matrix(-4.2748033,0,0,3.4526948,504.73396,-117.35078)"
       id="g3298">
      <path
         style="fill:none;fill-opacity:1;stroke:#000000;stroke-width:2;stroke-linecap:round;stroke-linejoin:round;stroke-miterlimit:4;stroke-dasharray:none;stroke-opacity:1"
         d="M 104.06079,42.119353 C 105.29152,43.259756 106.28767,44.617528 106.97613,46.124939 C 107.66459,47.632349 108.04537,49.289399 108.04537,51.028355 C 108.04537,52.767312 107.66459,54.424361 106.97613,55.931771 C 106.28767,57.439182 105.29152,58.796954 104.06079,59.937357"
         id="path3300"
         sodipodi:nodetypes="cscss" />
      <path
         sodipodi:nodetypes="cscss"
         id="path3302"
         d="M 104.06079,42.119353 C 105.29152,43.259756 106.28767,44.617528 106.97613,46.124939 C 107.66459,47.632349 108.04537,49.289399 108.04537,51.028355 C 108.04537,52.767312 107.66459,54.424361 106.97613,55.931771 C 106.28767,57.439182 105.29152,58.796954 104.06079,59.937357"
         style="fill:none;fill-opacity:1;stroke:#818181;stroke-width:1;stroke-linecap:round;stroke-linejoin:round;stroke-miterlimit:4;stroke-dasharray:none;stroke-opacity:1" />
      <path
         style="fill:none;fill-opacity:1;stroke:#ffffff;stroke-width:0.2;stroke-linecap:round;stroke-linejoin:round;stroke-miterlimit:4;stroke-dasharray:none;stroke-opacity:1"
         d="M 104.06079,42.119353 C 105.29152,43.259756 106.28767,44.617528 106.97613,46.124939 C 107.66459,47.632349 108.04537,49.289399 108.04537,51.028355 C 108.04537,52.767312 107.66459,54.424361 106.97613,55.931771 C 106.28767,57.439182 105.29152,58.796954 104.06079,59.937357"
         id="path3304"
         sodipodi:nodetypes="cscss" />
    </g>
    <g
       style="stroke:#7d7d7d;stroke-opacity:1"
       id="g3306"
       transform="matrix(-6.3183189,0,0,5.1735719,704.48122,-203.51749)">
      <path
         sodipodi:nodetypes="cscss"
         id="path3308"
         d="M 104.06079,42.119353 C 105.29152,43.259756 106.28767,44.617528 106.97613,46.124939 C 107.66459,47.632349 108.04537,49.289399 108.04537,51.028355 C 108.04537,52.767312 107.66459,54.424361 106.97613,55.931771 C 106.28767,57.439182 105.29152,58.796954 104.06079,59.937357"
         style="fill:none;fill-opacity:1;stroke:#000000;stroke-width:2;stroke-linecap:round;stroke-linejoin:round;stroke-miterlimit:4;stroke-dasharray:none;stroke-opacity:1" />
      <path
         style="fill:none;fill-opacity:1;stroke:#7d7d7d;stroke-width:1;stroke-linecap:round;stroke-linejoin:round;stroke-miterlimit:4;stroke-dasharray:none;stroke-opacity:1"
         d="M 104.06079,42.119353 C 105.29152,43.259756 106.28767,44.617528 106.97613,46.124939 C 107.66459,47.632349 108.04537,49.289399 108.04537,51.028355 C 108.04537,52.767312 107.66459,54.424361 106.97613,55.931771 C 106.28767,57.439182 105.29152,58.796954 104.06079,59.937357"
         id="path3310"
         sodipodi:nodetypes="cscss" />
      <path
         sodipodi:nodetypes="cscss"
         id="path3312"
         d="M 104.06079,42.119353 C 105.29152,43.259756 106.28767,44.617528 106.97613,46.124939 C 107.66459,47.632349 108.04537,49.289399 108.04537,51.028355 C 108.04537,52.767312 107.66459,54.424361 106.97613,55.931771 C 106.28767,57.439182 105.29152,58.796954 104.06079,59.937357"
         style="fill:none;fill-opacity:1;stroke:#ffffff;stroke-width:0.2;stroke-linecap:round;stroke-linejoin:round;stroke-miterlimit:4;stroke-dasharray:none;stroke-opacity:1" />
    </g>
  </g>
</svg>
