<?xml version="1.0" encoding="UTF-8" standalone="no"?>
<!-- Created with Inkscape (http://www.inkscape.org/) -->

<svg
   xmlns:dc="http://purl.org/dc/elements/1.1/"
   xmlns:cc="http://creativecommons.org/ns#"
   xmlns:rdf="http://www.w3.org/1999/02/22-rdf-syntax-ns#"
   xmlns:svg="http://www.w3.org/2000/svg"
   xmlns="http://www.w3.org/2000/svg"
   xmlns:xlink="http://www.w3.org/1999/xlink"
   xmlns:sodipodi="http://sodipodi.sourceforge.net/DTD/sodipodi-0.dtd"
   xmlns:inkscape="http://www.inkscape.org/namespaces/inkscape"
   id="svg2"
   sodipodi:version="0.32"
   inkscape:version="0.91 r13725"
   width="256"
   height="256"
   version="1.0"
   sodipodi:docname="del.svg">
  <defs
     id="defs5">
    <linearGradient
       id="linearGradient2969"
       inkscape:collect="always">
      <stop
         id="stop2971"
         offset="0"
         style="stop-color:white;stop-opacity:0" />
      <stop
         id="stop2973"
         offset="1"
         style="stop-color:white;stop-opacity:1" />
    </linearGradient>
    <linearGradient
       inkscape:collect="always"
       id="linearGradient2959">
      <stop
         style="stop-color:white;stop-opacity:1"
         offset="0"
         id="stop2961" />
      <stop
         style="stop-color:black;stop-opacity:1"
         offset="1"
         id="stop2963" />
    </linearGradient>
    <linearGradient
       inkscape:collect="always"
       id="linearGradient2951">
      <stop
         style="stop-color:red;stop-opacity:1;"
         offset="0"
         id="stop2953" />
      <stop
         style="stop-color:#710000;stop-opacity:1"
         offset="1"
         id="stop2955" />
    </linearGradient>
    <linearGradient
       inkscape:collect="always"
       id="linearGradient2927">
      <stop
         style="stop-color:#6f6f6f;stop-opacity:1"
         offset="0"
         id="stop2929" />
      <stop
         style="stop-color:#dadada;stop-opacity:1"
         offset="1"
         id="stop2931" />
    </linearGradient>
    <linearGradient
       inkscape:collect="always"
       id="linearGradient2893">
      <stop
         style="stop-color:black;stop-opacity:1;"
         offset="0"
         id="stop2895" />
      <stop
         style="stop-color:white;stop-opacity:1"
         offset="1"
         id="stop2897" />
    </linearGradient>
    <linearGradient
       inkscape:collect="always"
       xlink:href="#linearGradient2893"
       id="linearGradient3053"
       gradientUnits="userSpaceOnUse"
       spreadMethod="reflect"
       x1="13.059419"
       y1="59.654648"
       x2="35.958626"
       y2="24.062605" />
    <linearGradient
       inkscape:collect="always"
       xlink:href="#linearGradient2893"
       id="linearGradient3055"
       gradientUnits="userSpaceOnUse"
       spreadMethod="reflect"
       x1="109.89442"
       y1="24.789549"
       x2="109.89443"
       y2="67.5" />
    <linearGradient
       inkscape:collect="always"
       xlink:href="#linearGradient2893"
       id="linearGradient3057"
       gradientUnits="userSpaceOnUse"
       x1="88.175781"
       y1="106.47175"
       x2="32.323654"
       y2="48.15556" />
    <linearGradient
       inkscape:collect="always"
       xlink:href="#linearGradient2893"
       id="linearGradient3059"
       gradientUnits="userSpaceOnUse"
       x1="56.324493"
       y1="110.70238"
       x2="83.794792"
       y2="106.86938" />
    <linearGradient
       inkscape:collect="always"
       xlink:href="#linearGradient2927"
       id="linearGradient3061"
       gradientUnits="userSpaceOnUse"
       gradientTransform="translate(0.273785,0.821355)"
       x1="108.68002"
       y1="116.63667"
       x2="37.800198"
       y2="23.823576" />
    <linearGradient
       inkscape:collect="always"
       xlink:href="#linearGradient2951"
       id="linearGradient3063"
       gradientUnits="userSpaceOnUse"
       x1="100.85229"
       y1="117.18424"
       x2="44.25901"
       y2="25.466284" />
    <linearGradient
       inkscape:collect="always"
       xlink:href="#linearGradient2959"
       id="linearGradient3065"
       gradientUnits="userSpaceOnUse"
       x1="38.155533"
       y1="25.740068"
       x2="97.647072"
       y2="122.11237" />
    <linearGradient
       inkscape:collect="always"
       xlink:href="#linearGradient2969"
       id="linearGradient3067"
       gradientUnits="userSpaceOnUse"
       x1="62.836285"
       y1="56.951553"
       x2="44.25901"
       y2="25.466284" />
    <linearGradient
       gradientUnits="userSpaceOnUse"
       y2="42.245087"
       x2="150.11748"
       y1="202.21474"
       x1="142.96986"
       id="linearGradient2865"
       xlink:href="#linearGradient2837"
       inkscape:collect="always" />
    <linearGradient
       gradientUnits="userSpaceOnUse"
       y2="204.89578"
       x2="113.72008"
       y1="41.947189"
       x1="121.57563"
       id="linearGradient2857"
       xlink:href="#linearGradient2837"
       inkscape:collect="always" />
    <linearGradient
       spreadMethod="reflect"
       gradientUnits="userSpaceOnUse"
       y2="165.71899"
       x2="145.41264"
       y1="77.370277"
       x1="144.8076"
       id="linearGradient2849"
       xlink:href="#linearGradient2837"
       inkscape:collect="always" />
    <linearGradient
       gradientUnits="userSpaceOnUse"
       y2="53.922462"
       x2="122.81"
       y1="165.71899"
       x1="123.61967"
       id="linearGradient2835"
       xlink:href="#linearGradient2837"
       inkscape:collect="always" />
    <linearGradient
       gradientUnits="userSpaceOnUse"
       y2="190.7674"
       x2="177.70123"
       y1="172.18156"
       x1="177.02089"
       id="linearGradient2827"
       xlink:href="#linearGradient2813"
       inkscape:collect="always" />
    <linearGradient
       gradientUnits="userSpaceOnUse"
       y2="172.18156"
       x2="165.0208"
       y1="190.7674"
       x1="165.0208"
       id="linearGradient2819"
       xlink:href="#linearGradient2813"
       inkscape:collect="always" />
    <linearGradient
       id="linearGradient2813"
       inkscape:collect="always">
      <stop
         id="stop2815"
         offset="0"
         style="stop-color:white;stop-opacity:1" />
      <stop
         id="stop2817"
         offset="1"
         style="stop-color:black;stop-opacity:1" />
    </linearGradient>
    <linearGradient
       inkscape:collect="always"
       id="linearGradient2837">
      <stop
         style="stop-color:white;stop-opacity:1"
         offset="0"
         id="stop2839" />
      <stop
         style="stop-color:black;stop-opacity:1"
         offset="1"
         id="stop2841" />
    </linearGradient>
    <filter
       inkscape:collect="always"
       style="color-interpolation-filters:sRGB"
       id="filter4204"
       x="-0.031148969"
       width="1.0622979"
       y="-0.042814412"
       height="1.0856288">
      <feGaussianBlur
         inkscape:collect="always"
         stdDeviation="1.3551895"
         id="feGaussianBlur4206" />
    </filter>
  </defs>
  <sodipodi:namedview
     inkscape:window-height="1056"
     inkscape:window-width="1920"
     inkscape:pageshadow="2"
     inkscape:pageopacity="0.0"
     guidetolerance="10.0"
     gridtolerance="10.0"
     objecttolerance="10.0"
     borderopacity="1.0"
     bordercolor="#666666"
     pagecolor="#ffffff"
     id="base"
     width="256px"
     height="256px"
     inkscape:zoom="3.5351562"
     inkscape:cx="128"
     inkscape:cy="128"
     inkscape:window-x="0"
     inkscape:window-y="0"
     inkscape:current-layer="svg2"
     showgrid="false"
     inkscape:window-maximized="1" />
  <metadata
     id="metadata7">
    <rdf:RDF>
      <cc:Work
         rdf:about="">
        <dc:format>image/svg+xml</dc:format>
        <dc:type
           rdf:resource="http://purl.org/dc/dcmitype/StillImage" />
      </cc:Work>
    </rdf:RDF>
  </metadata>
  <g
     id="g3033"
     transform="matrix(1.8790436,0,-0.24114827,1.7275805,24.741547,17.575502)">
    <path
       id="path3005"
       d="M 61.105827,52.110603 C 32.609487,48.125529 7.0795346,61.591942 4.1047956,82.177228 1.1300566,102.76251 21.833674,122.69446 50.330017,126.67953 78.826357,130.6646 104.3563,117.19819 107.33104,96.612913 110.30578,76.027626 89.60217,56.095676 61.105827,52.110603 Z m -1.47137,10.181934 c 20.71818,2.897336 35.764443,17.3828 33.601673,32.349271 -0.77603,5.370132 -3.67652,10.077652 -8.01637,13.770862 L 37.436017,64.16653 c 6.53446,-2.223082 14.21046,-2.991072 22.19844,-1.873993 z M 23.077514,73.516068 68.998727,115.99314 c -5.31651,1.12563 -11.1653,1.36956 -17.20039,0.52558 -20.71818,-2.89733 -35.790642,-17.408005 -33.627868,-32.374476 0.571587,-3.955391 2.30538,-7.535301 4.907045,-10.628176 z"
       style="fill:#000000;fill-opacity:0.44999999;stroke:none;stroke-width:0.2;stroke-linecap:round;stroke-linejoin:round;stroke-miterlimit:4;stroke-dasharray:none;stroke-dashoffset:0;stroke-opacity:1;filter:url(#filter4204)"
       inkscape:connector-curvature="0" />
    <g
       id="g2935">
      <g
         style="fill:#000000;fill-opacity:0.24867727;stroke:#000000;stroke-width:0.1;stroke-linecap:round;stroke-linejoin:round;stroke-miterlimit:4;stroke-dasharray:none;stroke-dashoffset:0;stroke-opacity:1"
         id="g1930">
        <path
           style="fill:url(#linearGradient3053);fill-opacity:1;stroke:#000000;stroke-width:0.1;stroke-miterlimit:4;stroke-dasharray:none;stroke-opacity:1"
           d="m 59.90625,8.15625 c -24.017584,0.2800487 -43.897103,18.854017 -46.5,45.5 -1.858641,19.027003 5.527286,37.683537 18.28125,50.4375 l 7.0625,7.0625 C 25.996034,98.402285 18.641359,79.777004 20.5,60.75 c 2.974739,-30.452553 28.503656,-50.395262 57,-44.5 10.691597,2.211854 20.278853,7.747608 27.9375,15.40625 l -7.09375,-7.0625 C 90.685107,16.935109 81.097845,11.399354 70.40625,9.1875 66.844207,8.4505922 63.337333,8.116243 59.90625,8.15625 Z"
           id="path1932"
           inkscape:connector-curvature="0" />
        <path
           d="m 31.6938,104.0968 c 7.658643,7.65864 17.253264,13.19135 27.944859,15.4032 l 7.071068,7.07107 C 56.018132,124.35921 46.423511,118.82651 38.764868,111.16787 L 31.6938,104.0968 Z"
           id="path1936"
           style="stroke:#000000;stroke-width:0.1;stroke-miterlimit:4;stroke-dasharray:none;stroke-opacity:1"
           inkscape:connector-curvature="0" />
        <path
           d="m 59.638659,119.5 c 28.496344,5.89526 54.026291,-14.02609 57.001031,-44.478637 l 7.07107,7.071068 C 120.73602,112.54498 95.206071,132.46633 66.709727,126.57107 L 59.638659,119.5 Z"
           id="path1938"
           style="stroke:#000000;stroke-width:0.1;stroke-miterlimit:4;stroke-dasharray:none;stroke-opacity:1"
           inkscape:connector-curvature="0" />
        <path
           d="m 116.63969,75.021363 c 1.85864,-19.027004 -5.5264,-37.6767 -18.280362,-50.430664 l 7.071072,7.071068 c 12.75396,12.753964 20.139,31.40366 18.28036,50.430664 l -7.07107,-7.071068 z"
           id="path1940"
           style="stroke:#000000;stroke-width:0.1;stroke-miterlimit:4;stroke-dasharray:none;stroke-opacity:1"
           inkscape:connector-curvature="0" />
        <path
           d="m 68.943099,24.25 c 7.773904,1.608249 14.749254,5.630042 20.316568,11.197356 l 7.071068,7.071067 C 90.763421,36.95111 83.788071,32.929317 76.014167,31.321068 L 68.943099,24.25 Z"
           id="path1944"
           style="stroke:#000000;stroke-width:0.1;stroke-miterlimit:4;stroke-dasharray:none;stroke-opacity:1"
           inkscape:connector-curvature="0" />
        <path
           style="fill:url(#linearGradient3055);fill-opacity:1;stroke:#000000;stroke-width:0.1;stroke-miterlimit:4;stroke-dasharray:none;stroke-opacity:1"
           d="m 89.25,35.4375 c 9.270099,9.270097 14.6325,22.823378 13.28125,36.65625 -0.77603,7.944222 -3.660146,14.911502 -8,20.375 l 7.0625,7.09375 c 4.33986,-5.463495 7.25522,-12.430777 8.03125,-20.375 1.35125,-13.832873 -4.01116,-27.386152 -13.28125,-36.65625 L 89.25,35.4375 Z"
           id="path1946"
           inkscape:connector-curvature="0" />
        <path
           d="M 94.528405,92.47716 46.744654,27.022265 53.815722,34.093333 101.59947,99.548228 94.528405,92.47716 Z"
           id="path1950"
           style="stroke:#000000;stroke-width:0.1;stroke-miterlimit:4;stroke-dasharray:none;stroke-opacity:1"
           inkscape:connector-curvature="0" />
        <path
           d="M 46.744654,27.022265 C 53.279115,23.733581 60.955123,22.597465 68.943099,24.25 l 7.071068,7.071068 C 68.026191,29.668533 60.350183,30.804649 53.815722,34.093333 l -7.071068,-7.071068 z"
           id="path1952"
           style="stroke:#000000;stroke-width:0.1;stroke-miterlimit:4;stroke-dasharray:none;stroke-opacity:1"
           inkscape:connector-curvature="0" />
        <path
           d="m 32.386155,40.853373 45.921214,62.837867 7.071068,7.07107 -45.921214,-62.837869 -7.071068,-7.071068 z"
           id="path1954"
           style="fill:url(#linearGradient3057);fill-opacity:1;stroke:#000000;stroke-width:0.1;stroke-miterlimit:4;stroke-dasharray:none;stroke-opacity:1"
           inkscape:connector-curvature="0" />
        <path
           style="fill:url(#linearGradient3059);fill-opacity:1;stroke:#000000;stroke-width:0.1;stroke-miterlimit:4;stroke-dasharray:none;stroke-opacity:1"
           d="m 40.78125,93.25 7.0625,7.09375 c 5.571011,5.57101 12.572417,9.57978 20.34375,11.1875 6.035094,1.24853 11.870986,0.88393 17.1875,-0.78125 l -7.0625,-7.0625 c -5.31651,1.66518 -11.183655,2.02978 -17.21875,0.78125 C 53.322416,102.86103 46.352259,98.821009 40.78125,93.25 Z"
           id="path1956"
           inkscape:connector-curvature="0" />
        <path
           d="M 40.787645,93.265114 C 31.506482,83.983951 26.127587,70.411634 27.47911,56.576014 l 7.071068,7.071068 c -1.351524,13.83562 4.027372,27.407937 13.308535,36.689098 l -7.071068,-7.071066 z"
           id="path1960"
           style="stroke:#000000;stroke-width:0.1;stroke-miterlimit:4;stroke-dasharray:none;stroke-opacity:1"
           inkscape:connector-curvature="0" />
        <path
           d="m 27.47911,56.576014 c 0.571587,-5.851352 2.30538,-11.147241 4.907045,-15.722641 l 7.071068,7.071068 c -2.601665,4.5754 -4.335458,9.871289 -4.907045,15.722641 L 27.47911,56.576014 Z"
           id="path1962"
           style="stroke:#000000;stroke-width:0.1;stroke-miterlimit:4;stroke-dasharray:none;stroke-opacity:1"
           inkscape:connector-curvature="0" />
      </g>
      <path
         id="path1912"
         d="M 77.532877,16.305909 C 49.036537,10.410646 23.506585,30.331994 20.531846,60.784546 17.557107,91.237098 38.260724,120.72314 66.757067,126.6184 95.253407,132.51366 120.78335,112.59231 123.75809,82.139772 126.73283,51.68722 106.02922,22.201171 77.532877,16.305909 Z m -1.47137,15.0625 c 20.71818,4.286134 35.764443,25.715 33.601673,47.855437 -0.77603,7.944223 -3.67652,14.908225 -8.01637,20.371723 L 53.863067,34.140674 c 6.53446,-3.288684 14.21046,-4.4248 22.19844,-2.772265 z M 39.504564,47.971782 85.425777,110.80964 c -5.31651,1.66518 -11.1653,2.02604 -17.20039,0.77751 -20.71818,-4.28613 -35.790642,-25.75229 -33.627868,-47.892727 0.571587,-5.851352 2.30538,-11.147241 4.907045,-15.722641 z"
         style="fill:url(#linearGradient3061);fill-opacity:1;stroke:#000000;stroke-width:0.2;stroke-linecap:round;stroke-linejoin:round;stroke-miterlimit:4;stroke-dasharray:none;stroke-dashoffset:0;stroke-opacity:1"
         inkscape:connector-curvature="0" />
    </g>
    <path
       sodipodi:nodetypes="csssccccccc"
       d="m 77.539222,18.769972 c -27.08184,-5.602632 -51.34454,13.329858 -54.17162,42.270804 -2.82708,28.940946 16.84886,56.963364 43.9307,62.565994 27.08184,5.60263 51.344538,-13.32986 54.171608,-42.2708 C 124.29699,52.395024 104.62106,24.372605 77.539222,18.769972 Z M 101.55133,103.40099 51.211343,32.70782 C 92.935292,13.700617 132.31813,66.927047 101.55133,103.40099 Z M 39.482067,45.304808 88.873321,111.32058 C 56.872245,129.46298 14.512915,80.434151 39.482067,45.304808 Z"
       id="path1920"
       style="opacity:1;fill:url(#linearGradient3063);fill-opacity:1;stroke:url(#linearGradient3065);stroke-width:0.5;stroke-linecap:round;stroke-linejoin:round;stroke-miterlimit:4;stroke-dasharray:none;stroke-dashoffset:0;stroke-opacity:1"
       inkscape:connector-curvature="0" />
    <path
       style="opacity:1;fill:url(#linearGradient3067);fill-opacity:1;stroke:none;stroke-width:0.5;stroke-linecap:round;stroke-linejoin:round;stroke-miterlimit:4;stroke-dasharray:none;stroke-dashoffset:0;stroke-opacity:1"
       id="path2967"
       d="m 77.539222,18.769972 c -27.08184,-5.602632 -51.34454,13.329858 -54.17162,42.270804 -2.82708,28.940946 16.84886,56.963364 43.9307,62.565994 27.08184,5.60263 51.344538,-13.32986 54.171608,-42.2708 C 124.29699,52.395024 104.62106,24.372605 77.539222,18.769972 Z M 101.55133,103.40099 51.211343,32.70782 C 92.935292,13.700617 132.31813,66.927047 101.55133,103.40099 Z M 39.482067,45.304808 88.873321,111.32058 C 56.872245,129.46298 14.512915,80.434151 39.482067,45.304808 Z"
       sodipodi:nodetypes="csssccccccc"
       inkscape:connector-curvature="0" />
  </g>
  <g
     id="layer1"
     inkscape:label="1. réteg"
     transform="translate(4.859296,1.674548)">
    <path
       id="text3905"
       d="M 14.672896,-7.9438771 L 9.3818802,-7.9438771 L 8.5469192,-5.5532521 L 5.1455522,-5.5532521 L 10.005903,-18.675323 L 14.040083,-18.675323 L 18.900435,-5.5532521 L 15.499067,-5.5532521 L 14.672896,-7.9438771 M 10.22563,-10.378448 L 13.820357,-10.378448 L 12.027388,-15.599151 L 10.22563,-10.378448 M 20.63188,-18.675323 L 26.248091,-18.675323 C 27.918004,-18.67531 29.198276,-18.30324 30.088911,-17.559112 C 30.985384,-16.820819 31.433625,-15.766133 31.433638,-14.395049 C 31.433625,-13.018089 30.985384,-11.957543 30.088911,-11.213409 C 29.198276,-10.475122 27.918004,-10.105982 26.248091,-10.105987 L 24.015669,-10.105987 L 24.015669,-5.5532521 L 20.63188,-5.5532521 L 20.63188,-18.675323 M 24.015669,-16.223174 L 24.015669,-12.558135 L 25.887739,-12.558135 C 26.543982,-12.558128 27.050817,-12.716331 27.408247,-13.032745 C 27.76566,-13.355002 27.944371,-13.809103 27.94438,-14.395049 C 27.944371,-14.980977 27.76566,-15.432149 27.408247,-15.748565 C 27.050817,-16.064961 26.543982,-16.223164 25.887739,-16.223174 L 24.015669,-16.223174"
       style="font-size:18px;font-style:normal;font-weight:bold;fill:black;fill-opacity:1;stroke:none;stroke-width:1px;stroke-linecap:butt;stroke-linejoin:miter;stroke-opacity:1;font-family:Bitstream Vera Sans" />
  </g>
</svg>
