<?xml version="1.0" encoding="UTF-8" standalone="no"?>
<!-- Created with Inkscape (http://www.inkscape.org/) -->
<svg xmlns:dc="http://purl.org/dc/elements/1.1/" xmlns:cc="http://creativecommons.org/ns#" xmlns:rdf="http://www.w3.org/1999/02/22-rdf-syntax-ns#" xmlns:svg="http://www.w3.org/2000/svg" xmlns="http://www.w3.org/2000/svg" xmlns:xlink="http://www.w3.org/1999/xlink" xmlns:sodipodi="http://sodipodi.sourceforge.net/DTD/sodipodi-0.dtd" xmlns:inkscape="http://www.inkscape.org/namespaces/inkscape" id="svg2" sodipodi:version="0.32" inkscape:version="0.91 r13725" width="256" height="256" sodipodi:docname="document-encrypted.svg" inkscape:output_extension="org.inkscape.output.svg.inkscape">
 <metadata id="metadata7">
  <rdf:RDF>
   <cc:Work>
    <dc:format>image/svg+xml</dc:format>
    <dc:type rdf:resource="http://purl.org/dc/dcmitype/StillImage"/>
   </cc:Work>
  </rdf:RDF>
 </metadata>
 <defs id="defs5">
  <pattern inkscape:collect="always" xlink:href="#pattern3365" id="pattern3606" patternTransform="matrix(0.2976541,0,0,0.2976541,-90.769231,91.709014)"/>
  <linearGradient id="linearGradient3571">
   <stop id="stop3573" stop-color="#1b6012" stop-opacity="1"/>
   <stop id="stop3575" offset="1" stop-color="#52ec74" stop-opacity="1"/>
  </linearGradient>
  <pattern inkscape:collect="always" xlink:href="#pattern2852" id="pattern3365" patternTransform="matrix(0.3036863,0,0,0.3036863,163.08884,91.048601)"/>
  <linearGradient id="linearGradient2884" inkscape:collect="always">
   <stop id="stop2886" stop-color="white" stop-opacity="0.784"/>
   <stop id="stop2888" offset="1" stop-color="#af9c9c" stop-opacity="0"/>
  </linearGradient>
  <linearGradient id="linearGradient2878" inkscape:collect="always">
   <stop id="stop2880" stop-color="white" stop-opacity="0.784"/>
   <stop id="stop2882" offset="1" stop-color="#a48787" stop-opacity="0"/>
  </linearGradient>
  <pattern inkscape:collect="always" xlink:href="#pattern2834" id="pattern2852" patternTransform="matrix(1.22844,0,0,1.22844,772.823,439.3718)"/>
  <linearGradient inkscape:collect="always" id="linearGradient2824">
   <stop id="stop2826" stop-color="black" stop-opacity="1"/>
   <stop offset="1" id="stop2829" stop-color="#a6a6a6" stop-opacity="1"/>
  </linearGradient>
  <linearGradient inkscape:collect="always" id="linearGradient2883">
   <stop id="stop2885" stop-color="#936d16" stop-opacity="1"/>
   <stop offset="1" id="stop2887" stop-color="#ded4bc" stop-opacity="1"/>
  </linearGradient>
  <linearGradient inkscape:collect="always" id="linearGradient2875">
   <stop id="stop2877" stop-color="#d2be31" stop-opacity="1"/>
   <stop offset="1" id="stop2879" stop-color="#eccc1c" stop-opacity="1"/>
  </linearGradient>
  <linearGradient inkscape:collect="always" id="linearGradient2826">
   <stop id="stop2828" stop-color="#000003" stop-opacity="1"/>
   <stop offset="1" id="stop2830" stop-color="#acacb8" stop-opacity="1"/>
  </linearGradient>
  <linearGradient inkscape:collect="always" id="linearGradient2816">
   <stop id="stop2818" stop-color="white" stop-opacity="0.784"/>
   <stop offset="1" id="stop2820" stop-color="white" stop-opacity="0"/>
  </linearGradient>
  <linearGradient id="linearGradient2802">
   <stop id="stop2804" stop-color="#000003" stop-opacity="0.471"/>
   <stop id="stop2806" stop-color="#0a104d" stop-opacity="1"/>
   <stop offset="0.5" id="stop2808" stop-color="#142197" stop-opacity="1"/>
   <stop id="stop2810" offset="0.75" stop-color="white" stop-opacity="1"/>
   <stop id="stop2812" offset="1" stop-color="#161a3b" stop-opacity="0"/>
  </linearGradient>
  <linearGradient id="linearGradient2768">
   <stop id="stop2770" stop-color="#000003" stop-opacity="1"/>
   <stop id="stop2782" stop-color="#0a104d" stop-opacity="1"/>
   <stop id="stop2776" offset="0.5" stop-color="#142197" stop-opacity="1"/>
   <stop offset="0.75" id="stop2788" stop-color="white" stop-opacity="1"/>
   <stop offset="1" id="stop2772" stop-color="#161a3b" stop-opacity="1"/>
  </linearGradient>
  <pattern patternUnits="userSpaceOnUse" width="17.629" height="17.629" patternTransform="translate(542.5329,379.43)" id="pattern2834">
   <path transform="matrix(0.674109,0,0,0.637899,-516.6613,-239.1654)" d="M 792.58777 388.74496 A 13.075994 13.818249 0 1 1  766.43579,388.74496 A 13.075994 13.818249 0 1 1  792.58777 388.74496 z" sodipodi:ry="13.818249" sodipodi:rx="13.075994" sodipodi:cy="388.74496" sodipodi:cx="779.51178" id="path2824" sodipodi:type="arc" opacity="1" stroke-dasharray="none" stroke-opacity="1" fill="url(#radialGradient2837)" stroke="none" stroke-linejoin="round" fill-opacity="1" stroke-linecap="round" stroke-width="3.4" stroke-miterlimit="4"/>
  </pattern>
  <radialGradient inkscape:collect="always" xlink:href="#linearGradient2826" id="radialGradient2837" gradientUnits="userSpaceOnUse" gradientTransform="matrix(0.5505,-0.882224,0.946284,0.659412,-17.47299,820.1058)" cx="779.51" cy="388.74" fx="779.51" fy="388.74" r="13.818"/>
  <linearGradient inkscape:collect="always" xlink:href="#linearGradient2878" id="linearGradient3579" gradientUnits="userSpaceOnUse" gradientTransform="matrix(0.2423025,0,0,0.2423025,-0.7903454,-15.054934)" x1="383.23" y1="402.17" x2="344.71" y2="394.67"/>
  <linearGradient inkscape:collect="always" xlink:href="#linearGradient2816" id="linearGradient3582" gradientUnits="userSpaceOnUse" gradientTransform="matrix(-0.2976541,0,0,0.2976541,252.25637,-21.22988)" x1="386.82" y1="69.791" x2="371.85" y2="407.75"/>
  <linearGradient inkscape:collect="always" xlink:href="#linearGradient2884" id="linearGradient3589" gradientUnits="userSpaceOnUse" gradientTransform="matrix(-0.2423025,0,0,0.2423025,278.02619,-14.751873)" x1="383.23" y1="402.17" x2="335.95" y2="393.42"/>
  <linearGradient inkscape:collect="always" xlink:href="#linearGradient3571" id="linearGradient3593" gradientUnits="userSpaceOnUse" gradientTransform="matrix(-0.2976541,0,0,0.2976541,252.25636,-21.229879)" spreadMethod="reflect" x1="683.48" y1="829.48" x2="642.19" y2="835.33"/>
  <linearGradient inkscape:collect="always" xlink:href="#linearGradient3571" id="linearGradient3597" gradientUnits="userSpaceOnUse" gradientTransform="matrix(-0.2976541,0,0,0.2976541,252.25636,-21.229879)" spreadMethod="reflect" x1="149.19" y1="825.01" x2="93.41" y2="820.31"/>
  <linearGradient inkscape:collect="always" xlink:href="#linearGradient2883" id="linearGradient3601" gradientUnits="userSpaceOnUse" gradientTransform="matrix(-0.2976541,0,0,0.2976541,396.30028,-22.825933)" spreadMethod="reflect" x1="914.93" y1="636.57" x2="918.92" y2="529.32"/>
  <linearGradient inkscape:collect="always" xlink:href="#linearGradient2875" id="linearGradient3603" gradientUnits="userSpaceOnUse" gradientTransform="matrix(-0.2976541,0,0,0.2976541,396.30028,-22.825933)" x1="906.2" y1="615.12" x2="912.9" y2="481.07"/>
  <radialGradient inkscape:collect="always" xlink:href="#linearGradient2802" id="radialGradient3609" gradientUnits="userSpaceOnUse" gradientTransform="matrix(-0.5367739,0.1070938,0.0868543,0.4353233,302.98821,-203.72633)" spreadMethod="reflect" cx="385.04" cy="475.95" fx="385.04" fy="475.95" r="92.53"/>
  <radialGradient inkscape:collect="always" xlink:href="#linearGradient2768" id="radialGradient3612" gradientUnits="userSpaceOnUse" gradientTransform="matrix(-0.2806692,-0.00901416,-0.0086549,0.269483,248.63008,-9.1383185)" cx="374.09" cy="282.23" fx="374.09" fy="282.23" r="212.86"/>
  <linearGradient inkscape:collect="always" xlink:href="#linearGradient3571" id="linearGradient3617" gradientUnits="userSpaceOnUse" gradientTransform="matrix(-0.2976541,0,0,0.2976541,252.25636,-21.229879)" spreadMethod="reflect" x1="198.81" y1="826.87" x2="360.91" y2="826.87"/>
  <linearGradient inkscape:collect="always" xlink:href="#linearGradient3571" id="linearGradient3621" gradientUnits="userSpaceOnUse" gradientTransform="matrix(-0.2976541,0,0,0.2976541,251.85735,-21.22988)" spreadMethod="reflect" x1="92.91" y1="600.97" x2="311.46" y2="595.31"/>
  <linearGradient inkscape:collect="always" xlink:href="#linearGradient2824" id="linearGradient3627" gradientUnits="userSpaceOnUse" x1="526.36" y1="1059.45" x2="714.93" y2="863.46"/>
  <filter inkscape:collect="always" id="filter4924" x="-0.042" width="1.083" y="-0.032" height="1.063" color-interpolation-filters="sRGB">
   <feGaussianBlur inkscape:collect="always" stdDeviation="3.05057" id="feGaussianBlur4926"/>
  </filter>
 </defs>
 <sodipodi:namedview inkscape:window-height="1056" inkscape:window-width="1920" inkscape:pageshadow="2" inkscape:pageopacity="0.0" guidetolerance="10.0" gridtolerance="10.0" objecttolerance="10.0" borderopacity="1.0" bordercolor="#666666" pagecolor="#ffffff" id="base" inkscape:zoom="2.1" inkscape:cx="128" inkscape:cy="139.77011" inkscape:window-x="0" inkscape:window-y="0" inkscape:current-layer="svg2" width="256" height="256" showgrid="false" inkscape:window-maximized="1"/>
 <g transform="translate(203.08075,-26.325324)" id="g1974">
  <path inkscape:connector-curvature="0" transform="matrix(0.962617,-0.270866,0.270866,0.962617,0,0)" d="m -146.80996,34.985371 102.661965,0 0,173.556839 -136.882615,0 -1.08964,-141.918413 35.31029,-31.638426 z" id="rect2793" sodipodi:nodetypes="cccccc" stroke-opacity="1" fill="#e4c19e" stroke="#a5a6b4" stroke-linejoin="round" fill-opacity="1" stroke-linecap="round" stroke-width="2.803" stroke-miterlimit="4"/>
  <path inkscape:connector-curvature="0" d="m -119.63372,102.52029 -35.83402,9.66783 24.45508,-39.14343 11.37894,29.4756 z" id="rect1970" sodipodi:nodetypes="cccc" stroke-opacity="1" fill="#e4c19e" stroke="#a5a6b4" stroke-linejoin="round" fill-opacity="1" stroke-linecap="round" stroke-width="2.803" stroke-miterlimit="4"/>
 </g>
 <g id="g3629" transform="matrix(0.7098593,0,0,0.7098593,59.401179,62.039447)">
  <path sodipodi:nodetypes="ccccccccccccccccccccccccccccc" id="path4100" d="m 127.09682,15.37229 c 30.7822,0.06134 61.97209,18.344182 61.71796,54.36695 l -0.45943,38.9298 c 2.29294,0.26471 4.59859,0.53521 6.89159,0.82699 5.36755,0 9.67884,3.14538 9.67884,7.04473 l 7.16725,103.03687 c -0.0188,-1.38661 0.38342,8.65091 0.33693,0.73509 -0.73472,8.20953 -0.44191,10.93807 -0.94951,16.99925 0.84031,3.56077 -3.34158,4.93395 -6.21774,5.29886 -51.78945,5.01535 -107.224226,5.62614 -158.965911,-0.70446 -5.185108,-0.16468 -8.325192,-2.80521 -8.637453,-5.20699 -0.371119,-5.00557 -1.155562,-10.39174 -0.581957,-15.65155 -0.140806,-0.47914 -0.245034,-0.95966 -0.245034,-1.4702 L 47.797633,116.93895 c 0,-3.89938 4.311268,-7.01411 9.678848,-7.01411 1.669888,-0.24711 3.351461,-0.4766 5.023201,-0.70447 L 67.829175,63.88905 C 69.636076,31.354773 98.180192,15.314664 127.09682,15.37229 Z m 0.27566,12.649887 c -22.92323,1.4e-4 -45.821433,13.984154 -45.54573,40.369375 l -3.552995,38.960428 c 31.980265,-3.21431 64.254105,-3.05694 96.574085,-0.0919 l 0,-0.0306 -0.0306,0 -0.24503,-4.83943 -1.2558,-22.6044 0.12252,0 -0.42881,-8.239273 c 0.21728,-29.546176 -22.7144,-43.524331 -45.63761,-43.52419 z" inkscape:connector-curvature="0" stroke-dasharray="none" stroke-opacity="1" fill="#000000" filter="url(#filter4924)" stroke="none" stroke-linejoin="round" fill-opacity="0.42" stroke-linecap="round" stroke-width="0.304" stroke-miterlimit="4"/>
  <path d="m 207.20486,101.35387 c -46.14603,-5.872099 -92.29821,-6.304611 -137.748757,0.42125 -5.367571,0 -9.688748,3.13919 -9.688748,7.03855 L 48.814838,211.42281 c 0,3.89937 4.321196,7.03855 9.688758,7.03855 51.954164,-5.71629 101.802104,-7.67137 155.862524,0 5.36757,0 9.68875,-3.13918 9.68875,-7.03855 l -7.16125,-103.03039 c 0,-3.89936 -4.32118,-7.03855 -9.68876,-7.03855 z" id="path2843" sodipodi:nodetypes="ccccccccc" inkscape:connector-curvature="0" stroke-dasharray="none" stroke-opacity="1" fill="url(#linearGradient3621)" stroke="#000000" stroke-linejoin="round" fill-opacity="1" stroke-linecap="round" stroke-width="0.298" stroke-miterlimit="4"/>
  <path d="m 223.44069,229.17193 c -0.28956,3.30969 -3.36868,4.91099 -6.20914,5.28385 -51.78945,5.01533 -107.23569,5.62644 -158.97737,-0.70416 -5.185118,-0.16467 -8.306804,-2.77846 -8.619065,-5.18024 -0.405865,-5.47425 -1.352344,-11.43237 -0.421253,-17.14857 0,3.89937 4.321186,7.03855 9.688748,7.03855 51.95417,-5.71629 101.80211,-7.67137 155.86252,0 5.36757,0 9.36343,-3.08496 9.36343,-6.98433 -0.82623,8.83013 -0.16442,11.44443 -0.68787,17.6949 z" id="path1876" sodipodi:nodetypes="ccccccccc" inkscape:connector-curvature="0" stroke-dasharray="none" stroke-opacity="1" fill="url(#linearGradient3617)" stroke="none" stroke-linejoin="round" fill-opacity="1" stroke-linecap="round" stroke-width="0.262" stroke-miterlimit="4"/>
  <path sodipodi:nodetypes="ccccccccc" id="path2764" d="M 200.33564,101.34315 186.79111,99.085729 184.98517,63.41845 C 185.41975,4.326096 93.233863,7.4876135 93.785269,60.258057 l -3.611872,39.730642 -15.801958,1.805941 5.417813,-46.05143 c 3.73037,-67.167542 121.490708,-63.9930363 120.997868,5.869302 l -0.45148,39.730638 z" inkscape:connector-curvature="0" stroke-opacity="1" fill="#111b6c" fill-rule="evenodd" stroke="#000000" stroke-linejoin="miter" fill-opacity="1" stroke-linecap="butt" stroke-width="0.298"/>
  <path d="M 200.33564,101.34315 186.79111,99.085729 184.98517,63.41845 C 185.41975,4.326096 93.233863,7.4876135 93.785269,60.258057 l -3.611872,39.730642 -15.801958,1.805941 5.417813,-46.05143 c 3.73037,-67.167542 121.490708,-63.9930363 120.997868,5.869302 l -0.45148,39.730638 z" id="path2766" sodipodi:nodetypes="ccccccccc" inkscape:connector-curvature="0" stroke-opacity="1" fill="url(#radialGradient3612)" fill-rule="evenodd" stroke="#000000" stroke-linejoin="miter" fill-opacity="1" stroke-linecap="butt" stroke-width="0.298"/>
  <path sodipodi:nodetypes="ccc" id="path2790" d="M 156.54164,13.755144 C 136.63819,8.9944935 116.66987,14.00434 101.46051,25.945228 117.34174,17.543353 135.84545,13.730846 156.54164,13.755144 Z" inkscape:connector-curvature="0" opacity="0.536" stroke-dasharray="none" stroke-opacity="1" fill="url(#radialGradient3609)" fill-rule="evenodd" stroke="none" stroke-linejoin="miter" fill-opacity="1" stroke-linecap="butt" stroke-width="0" stroke-miterlimit="4"/>
  <rect transform="scale(-1,1)" id="rect2839" y="91.71" x="-90.77" height="5.247" width="5.247" fill="url(#pattern3606)" stroke="none"/>
  <path sodipodi:nodetypes="ccsccccsccc" id="rect2867" d="m 176.04794,123.75874 0.39902,5.60316 c 9.55747,0.33096 17.15231,5.37899 17.15231,11.55271 0,6.1737 -7.59484,11.22174 -17.15231,11.55269 l -0.39902,4.40546 c -26.6848,-6.15262 -52.58183,-4.42753 -78.208621,0 l 0,-5.24617 c -9.181732,-0.57403 -16.361684,-5.50405 -16.361655,-11.50618 0,-6.00212 7.179923,-10.94145 16.361655,-11.51549 l 0,-4.84618 c 25.574501,-3.46529 51.571131,-3.97565 78.208621,0 z" inkscape:connector-curvature="0" stroke-dasharray="none" stroke-opacity="1" fill="url(#linearGradient3601)" stroke="url(#linearGradient3603)" stroke-linejoin="round" fill-opacity="1" stroke-linecap="round" stroke-width="1.191" stroke-miterlimit="4"/>
  <path sodipodi:nodetypes="ccccc" id="path2891" d="m 223.44069,229.17193 c -0.90293,3.8098 -3.39681,4.92805 -6.20914,5.28385 -3.70521,-6.52686 -3.32427,-8.77057 -2.46642,-15.99442 5.36757,0 9.36343,-3.13918 9.36343,-7.03855 -0.82623,8.83013 -0.16442,11.49865 -0.68787,17.74912 z" inkscape:connector-curvature="0" stroke-dasharray="none" stroke-opacity="1" fill="url(#linearGradient3597)" stroke="none" stroke-linejoin="round" fill-opacity="1" stroke-linecap="round" stroke-width="0" stroke-miterlimit="4"/>
  <path sodipodi:nodetypes="ccccc" id="path2901" d="m 58.25418,233.75162 c -5.185118,-0.16467 -8.306804,-2.77846 -8.619065,-5.18024 -0.405865,-5.47425 -1.569222,-11.37815 -0.638131,-17.09435 0,3.89937 4.538064,6.98433 9.905626,6.98433 0.275222,6.36646 -0.703033,10.76302 -0.64843,15.29026 z" inkscape:connector-curvature="0" stroke-dasharray="none" stroke-opacity="1" fill="url(#linearGradient3593)" stroke="none" stroke-linejoin="round" fill-opacity="1" stroke-linecap="round" stroke-width="0.262" stroke-miterlimit="4"/>
  <path id="path1942" d="m 196.50265,70.724339 -11.21327,0.909184 1.51531,27.578596 9.09184,0.909181 0.60612,-29.396961 z" inkscape:connector-curvature="0" stroke-opacity="1" fill="url(#linearGradient3589)" fill-rule="evenodd" stroke="none" stroke-linejoin="miter" fill-opacity="1" stroke-linecap="butt" stroke-width="1"/>
  <ellipse transform="matrix(-0.2423025,0,0,0.2423025,279.0815,-15.279534)" id="path1935" cx="582.53" cy="996.29" rx="75.13" ry="38.11" stroke-dasharray="none" stroke-opacity="1" fill="#808080" stroke="url(#linearGradient3627)" stroke-linejoin="round" fill-opacity="1" stroke-linecap="round" stroke-width="10" stroke-miterlimit="4"/>
  <path sodipodi:nodetypes="csssc" id="path2833" d="m 152.66005,224.39142 c 0,0 -1.44961,2.39934 -4.19888,2.19939 -2.74925,-0.19994 -3.30069,-3.07094 -6.79816,-2.99918 -3.04487,0.0625 -5.90068,1.31846 -8.19779,2.59929 -2.78522,1.55303 -7.94643,1.00294 -10.39719,-1.7995" inkscape:connector-curvature="0" stroke-dasharray="none" stroke-opacity="1" fill="none" fill-rule="evenodd" stroke="#000000" stroke-linejoin="miter" stroke-linecap="butt" stroke-width="1.938" stroke-miterlimit="4"/>
  <path d="m 152.66005,225.59109 c 0,0 -1.44961,2.39935 -4.19888,2.1994 -2.74925,-0.19995 -3.30069,-3.07094 -6.79816,-2.99918 -3.04487,0.0625 -5.90068,1.31844 -8.19779,2.59928 -2.78522,1.55304 -7.94643,1.00295 -10.39719,-1.7995" id="path2835" sodipodi:nodetypes="csssc" inkscape:connector-curvature="0" stroke-dasharray="none" stroke-opacity="1" fill="none" fill-rule="evenodd" stroke="#bfb3b3" stroke-linejoin="miter" stroke-linecap="butt" stroke-width="1.938" stroke-miterlimit="4"/>
  <path sodipodi:nodetypes="cccc" id="path2814" d="m 189.29869,93.103863 -1.71082,-38.32207 C 179.91234,6.6897966 98.671004,3.0167716 90.756216,53.75531 l -5.816749,43.796646" inkscape:connector-curvature="0" stroke-dasharray="none" stroke-opacity="1" fill="none" fill-rule="evenodd" stroke="url(#linearGradient3582)" stroke-linejoin="miter" stroke-linecap="butt" stroke-width="1.012" stroke-miterlimit="4"/>
  <path sodipodi:nodetypes="ccccc" d="m 80.733163,70.421277 12.728582,0.909184 -3.030612,27.578598 -7.879601,0.30306 -1.818369,-28.790842 z" id="path2873" inkscape:connector-curvature="0" stroke-opacity="1" fill="url(#linearGradient3579)" fill-rule="evenodd" stroke="none" stroke-linejoin="miter" fill-opacity="1" stroke-linecap="butt" stroke-width="1"/>
 </g>
</svg>
