<?xml version="1.0" encoding="UTF-8" standalone="no"?>
<!-- Created with Inkscape (http://www.inkscape.org/) -->
<svg
   xmlns:dc="http://purl.org/dc/elements/1.1/"
   xmlns:cc="http://creativecommons.org/ns#"
   xmlns:rdf="http://www.w3.org/1999/02/22-rdf-syntax-ns#"
   xmlns:svg="http://www.w3.org/2000/svg"
   xmlns="http://www.w3.org/2000/svg"
   xmlns:xlink="http://www.w3.org/1999/xlink"
   xmlns:sodipodi="http://sodipodi.sourceforge.net/DTD/sodipodi-0.dtd"
   xmlns:inkscape="http://www.inkscape.org/namespaces/inkscape"
   id="svg2"
   sodipodi:version="0.32"
   inkscape:version="0.46"
   width="256"
   height="256"
   version="1.0"
   sodipodi:docbase="/media/disk-hdb2/svg1/apps"
   sodipodi:docname="gtk-save-as.svg"
   inkscape:output_extension="org.inkscape.output.svg.inkscape">
  <metadata
     id="metadata7">
    <rdf:RDF>
      <cc:Work
         rdf:about="">
        <dc:format>image/svg+xml</dc:format>
        <dc:type
           rdf:resource="http://purl.org/dc/dcmitype/StillImage" />
      </cc:Work>
    </rdf:RDF>
  </metadata>
  <defs
     id="defs5">
    <inkscape:perspective
       sodipodi:type="inkscape:persp3d"
       inkscape:vp_x="0 : 128 : 1"
       inkscape:vp_y="0 : 1000 : 0"
       inkscape:vp_z="256 : 128 : 1"
       inkscape:persp3d-origin="128 : 85.333333 : 1"
       id="perspective48" />
    <linearGradient
       id="linearGradient2902">
      <stop
         id="stop2904"
         offset="0"
         style="stop-color:#808080;stop-opacity:0.72941178;" />
      <stop
         id="stop2906"
         offset="1"
         style="stop-color:#000004;stop-opacity:0.69411767;" />
    </linearGradient>
    <linearGradient
       inkscape:collect="always"
       id="linearGradient2892">
      <stop
         style="stop-color:black;stop-opacity:1;"
         offset="0"
         id="stop2894" />
      <stop
         style="stop-color:#c5c8d8;stop-opacity:1"
         offset="1"
         id="stop2896" />
    </linearGradient>
    <linearGradient
       id="linearGradient2813">
      <stop
         style="stop-color:#3b1b1b;stop-opacity:0;"
         offset="0"
         id="stop2815" />
      <stop
         id="stop2821"
         offset="0.5"
         style="stop-color:#7b7c82;stop-opacity:1;" />
      <stop
         style="stop-color:white;stop-opacity:1;"
         offset="0.75"
         id="stop2823" />
      <stop
         style="stop-color:#9296aa;stop-opacity:1;"
         offset="1"
         id="stop2817" />
    </linearGradient>
    <linearGradient
       id="linearGradient2796"
       inkscape:collect="always">
      <stop
         id="stop2798"
         offset="0"
         style="stop-color:white;stop-opacity:0.78431374" />
      <stop
         id="stop2800"
         offset="1"
         style="stop-color:#c9c9c9;stop-opacity:0" />
    </linearGradient>
    <linearGradient
       inkscape:collect="always"
       id="linearGradient2780">
      <stop
         style="stop-color:#a0a1b1;stop-opacity:0.78306878"
         offset="0"
         id="stop2782" />
      <stop
         style="stop-color:#c9c9c9;stop-opacity:0"
         offset="1"
         id="stop2784" />
    </linearGradient>
    <linearGradient
       id="linearGradient2768">
      <stop
         style="stop-color:#a0a0a0;stop-opacity:1;"
         offset="0"
         id="stop2770" />
      <stop
         style="stop-color:#000000;stop-opacity:1;"
         offset="1"
         id="stop2772" />
    </linearGradient>
    <linearGradient
       inkscape:collect="always"
       xlink:href="#linearGradient2768"
       id="linearGradient2938"
       gradientUnits="userSpaceOnUse"
       gradientTransform="translate(-2.515971,-1.257985)"
       spreadMethod="reflect"
       x1="62.59137"
       y1="5.976428"
       x2="62.280941"
       y2="63.84375" />
    <linearGradient
       inkscape:collect="always"
       xlink:href="#linearGradient2780"
       id="linearGradient2940"
       gradientUnits="userSpaceOnUse"
       gradientTransform="matrix(0.988656,0,0,1,8.205808e-2,-0.638626)"
       x1="56.535339"
       y1="7.3912868"
       x2="56.517471"
       y2="11.758032" />
    <linearGradient
       inkscape:collect="always"
       xlink:href="#linearGradient2902"
       id="linearGradient2942"
       gradientUnits="userSpaceOnUse"
       gradientTransform="translate(-2.274021,-0.774053)"
       spreadMethod="reflect"
       x1="62.59137"
       y1="5.976428"
       x2="62.280941"
       y2="63.84375" />
    <linearGradient
       inkscape:collect="always"
       xlink:href="#linearGradient2780"
       id="linearGradient2944"
       gradientUnits="userSpaceOnUse"
       gradientTransform="matrix(0.919885,0,0,1,3.967032,-125.906)"
       x1="56.535339"
       y1="7.3912868"
       x2="56.517471"
       y2="11.758032" />
    <radialGradient
       inkscape:collect="always"
       xlink:href="#linearGradient2796"
       id="radialGradient2946"
       gradientUnits="userSpaceOnUse"
       gradientTransform="matrix(1.604604,-1.577849e-6,1.001507e-7,0.101849,-37.21026,-105.8163)"
       cx="61.544846"
       cy="-117.8159"
       fx="61.544846"
       fy="-117.8159"
       r="52.026726" />
    <radialGradient
       inkscape:collect="always"
       xlink:href="#linearGradient2796"
       id="radialGradient2948"
       gradientUnits="userSpaceOnUse"
       gradientTransform="matrix(1.604604,-1.577849e-6,1.001507e-7,0.101849,-37.45223,19.23705)"
       cx="61.544846"
       cy="-117.8159"
       fx="61.544846"
       fy="-117.8159"
       r="52.026726" />
    <radialGradient
       inkscape:collect="always"
       xlink:href="#linearGradient2813"
       id="radialGradient2950"
       gradientUnits="userSpaceOnUse"
       gradientTransform="matrix(0.853551,-3.900375e-4,2.886779e-5,0.276456,231.4,41.00808)"
       cx="-196.04634"
       cy="69.679871"
       fx="-196.04634"
       fy="69.679871"
       r="44.609375" />
    <linearGradient
       inkscape:collect="always"
       xlink:href="#linearGradient2780"
       id="linearGradient2952"
       gradientUnits="userSpaceOnUse"
       gradientTransform="matrix(0.638106,0,0,1,22.07394,1.306995)"
       x1="56.535339"
       y1="7.3912868"
       x2="56.517471"
       y2="11.758032" />
    <linearGradient
       inkscape:collect="always"
       xlink:href="#linearGradient2892"
       id="linearGradient2954"
       gradientUnits="userSpaceOnUse"
       gradientTransform="translate(0,-2.41966)"
       x1="64.90625"
       y1="125.57783"
       x2="95.625"
       y2="76.103455" />
    <radialGradient
       r="31.233118"
       fy="24.518105"
       fx="185.74677"
       cy="24.518105"
       cx="185.74677"
       gradientTransform="matrix(1.557285,0.830911,-0.331539,0.621372,-100.4122,-156.6666)"
       gradientUnits="userSpaceOnUse"
       id="radialGradient1946"
       xlink:href="#linearGradient2824"
       inkscape:collect="always" />
    <linearGradient
       y2="71.639923"
       x2="240.97064"
       y1="28.054794"
       x1="163.82094"
       gradientUnits="userSpaceOnUse"
       id="linearGradient1944"
       xlink:href="#linearGradient2806"
       inkscape:collect="always" />
    <linearGradient
       y2="11.021526"
       x2="160.31213"
       y1="86.168297"
       x1="237.96576"
       gradientUnits="userSpaceOnUse"
       id="linearGradient1942"
       xlink:href="#linearGradient2788"
       inkscape:collect="always" />
    <linearGradient
       y2="197.58252"
       x2="72.800331"
       y1="190.41528"
       x1="61.85902"
       gradientUnits="userSpaceOnUse"
       id="linearGradient1940"
       xlink:href="#linearGradient2783"
       inkscape:collect="always" />
    <linearGradient
       y2="76.023483"
       x2="219.63081"
       y1="58.739727"
       x1="200.79686"
       gradientTransform="matrix(1.633728,0,0,1.645868,-183.9312,3.407019)"
       gradientUnits="userSpaceOnUse"
       id="linearGradient1938"
       xlink:href="#linearGradient2778"
       inkscape:collect="always" />
    <linearGradient
       y2="66.88063"
       x2="211.41292"
       y1="51.099804"
       x1="191.62524"
       gradientTransform="matrix(1.633728,0,0,1.645868,-183.9312,3.407019)"
       gradientUnits="userSpaceOnUse"
       id="linearGradient1936"
       xlink:href="#linearGradient2794"
       inkscape:collect="always" />
    <linearGradient
       y2="47.843445"
       x2="202.14384"
       y1="37.823872"
       x1="191.12427"
       gradientTransform="matrix(1.633728,0,0,1.645868,-183.9312,3.407019)"
       gradientUnits="userSpaceOnUse"
       id="linearGradient1934"
       xlink:href="#linearGradient2802"
       inkscape:collect="always" />
    <linearGradient
       y2="191.12317"
       x2="115.17735"
       y1="145.53412"
       x1="53.012367"
       gradientUnits="userSpaceOnUse"
       id="linearGradient1932"
       xlink:href="#linearGradient2805"
       inkscape:collect="always" />
    <radialGradient
       r="23.3167"
       fy="113.93974"
       fx="148.06133"
       cy="113.93974"
       cx="148.06133"
       spreadMethod="reflect"
       gradientTransform="matrix(2.810254,-3.213599,1.259503,1.11785,-501.6365,542.7496)"
       gradientUnits="userSpaceOnUse"
       id="radialGradient1930"
       xlink:href="#linearGradient2762"
       inkscape:collect="always" />
    <linearGradient
       y2="69.707771"
       x2="208.08186"
       y1="51.672543"
       x1="176.34541"
       gradientTransform="matrix(1.633728,0,0,1.645868,-183.9312,3.407019)"
       gradientUnits="userSpaceOnUse"
       id="linearGradient1928"
       xlink:href="#linearGradient2786"
       inkscape:collect="always" />
    <radialGradient
       gradientUnits="userSpaceOnUse"
       gradientTransform="matrix(1.557285,0.830911,-0.331539,0.621372,-100.4122,-156.6666)"
       r="31.233118"
       fy="24.518105"
       fx="185.74677"
       cy="24.518105"
       cx="185.74677"
       id="radialGradient2822"
       xlink:href="#linearGradient2824"
       inkscape:collect="always" />
    <linearGradient
       gradientUnits="userSpaceOnUse"
       y2="71.639923"
       x2="240.97064"
       y1="28.054794"
       x1="163.82094"
       id="linearGradient2804"
       xlink:href="#linearGradient2806"
       inkscape:collect="always" />
    <linearGradient
       gradientUnits="userSpaceOnUse"
       y2="191.12317"
       x2="115.17735"
       y1="145.53412"
       x1="53.012367"
       id="linearGradient2803"
       xlink:href="#linearGradient2805"
       inkscape:collect="always" />
    <linearGradient
       gradientUnits="userSpaceOnUse"
       y2="11.021526"
       x2="160.31213"
       y1="86.168297"
       x1="237.96576"
       id="linearGradient2795"
       xlink:href="#linearGradient2788"
       inkscape:collect="always" />
    <linearGradient
       gradientUnits="userSpaceOnUse"
       y2="197.58252"
       x2="72.800331"
       y1="190.41528"
       x1="61.85902"
       id="linearGradient2791"
       xlink:href="#linearGradient2783"
       inkscape:collect="always" />
    <linearGradient
       gradientTransform="matrix(1.633728,0,0,1.645868,-183.9312,3.407019)"
       gradientUnits="userSpaceOnUse"
       y2="47.843445"
       x2="202.14384"
       y1="37.823872"
       x1="191.12427"
       id="linearGradient2808"
       xlink:href="#linearGradient2802"
       inkscape:collect="always" />
    <linearGradient
       gradientTransform="matrix(1.633728,0,0,1.645868,-183.9312,3.407019)"
       gradientUnits="userSpaceOnUse"
       y2="66.88063"
       x2="211.41292"
       y1="51.099804"
       x1="191.62524"
       id="linearGradient2800"
       xlink:href="#linearGradient2794"
       inkscape:collect="always" />
    <linearGradient
       gradientTransform="matrix(1.633728,0,0,1.645868,-183.9312,3.407019)"
       gradientUnits="userSpaceOnUse"
       y2="69.707771"
       x2="208.08186"
       y1="51.672543"
       x1="176.34541"
       id="linearGradient2792"
       xlink:href="#linearGradient2786"
       inkscape:collect="always" />
    <linearGradient
       gradientTransform="matrix(1.633728,0,0,1.645868,-183.9312,3.407019)"
       gradientUnits="userSpaceOnUse"
       y2="76.023483"
       x2="219.63081"
       y1="58.739727"
       x1="200.79686"
       id="linearGradient2784"
       xlink:href="#linearGradient2778"
       inkscape:collect="always" />
    <radialGradient
       spreadMethod="reflect"
       gradientUnits="userSpaceOnUse"
       gradientTransform="matrix(2.810254,-3.213599,1.259503,1.11785,-501.6365,542.7496)"
       r="23.3167"
       fy="113.93974"
       fx="148.06133"
       cy="113.93974"
       cx="148.06133"
       id="radialGradient2770"
       xlink:href="#linearGradient2762"
       inkscape:collect="always" />
    <linearGradient
       id="linearGradient2762"
       inkscape:collect="always">
      <stop
         id="stop2764"
         offset="0"
         style="stop-color:#ffe6ce;stop-opacity:1" />
      <stop
         id="stop2766"
         offset="1"
         style="stop-color:#9b644f;stop-opacity:1" />
    </linearGradient>
    <linearGradient
       id="linearGradient2778"
       inkscape:collect="always">
      <stop
         id="stop2780"
         offset="0"
         style="stop-color:#ffe6ce;stop-opacity:1;" />
      <stop
         id="stop2736"
         offset="1"
         style="stop-color:#995310;stop-opacity:1" />
    </linearGradient>
    <linearGradient
       id="linearGradient2786"
       inkscape:collect="always">
      <stop
         id="stop2788"
         offset="0"
         style="stop-color:#fda451;stop-opacity:1;" />
      <stop
         id="stop2790"
         offset="1"
         style="stop-color:#bf8e21;stop-opacity:1" />
    </linearGradient>
    <linearGradient
       id="linearGradient2794"
       inkscape:collect="always">
      <stop
         id="stop2796"
         offset="0"
         style="stop-color:#dab663;stop-opacity:1" />
      <stop
         id="stop2729"
         offset="1"
         style="stop-color:#ebc46c;stop-opacity:1" />
    </linearGradient>
    <linearGradient
       id="linearGradient2802"
       inkscape:collect="always">
      <stop
         id="stop2804"
         offset="0"
         style="stop-color:#fffcf5;stop-opacity:1" />
      <stop
         id="stop2806"
         offset="1"
         style="stop-color:#dab663;stop-opacity:1" />
    </linearGradient>
    <linearGradient
       inkscape:collect="always"
       id="linearGradient2783">
      <stop
         style="stop-color:#a0754a;stop-opacity:1"
         offset="0"
         id="stop2785" />
      <stop
         style="stop-color:#614338;stop-opacity:1"
         offset="1"
         id="stop2787" />
    </linearGradient>
    <linearGradient
       id="linearGradient2788"
       inkscape:collect="always">
      <stop
         id="stop2791"
         offset="0"
         style="stop-color:#2c289a;stop-opacity:1" />
      <stop
         id="stop2793"
         offset="1"
         style="stop-color:#e6e9f1;stop-opacity:1" />
    </linearGradient>
    <linearGradient
       id="linearGradient2805"
       inkscape:collect="always">
      <stop
         id="stop2807"
         offset="0"
         style="stop-color:#d0b879;stop-opacity:1" />
      <stop
         id="stop2809"
         offset="1"
         style="stop-color:#a88932;stop-opacity:1" />
    </linearGradient>
    <linearGradient
       inkscape:collect="always"
       id="linearGradient2806">
      <stop
         style="stop-color:#a5acee;stop-opacity:1"
         offset="0"
         id="stop2808" />
      <stop
         style="stop-color:#1e213d;stop-opacity:1"
         offset="1"
         id="stop2810" />
    </linearGradient>
    <linearGradient
       inkscape:collect="always"
       id="linearGradient2824">
      <stop
         style="stop-color:white;stop-opacity:1"
         offset="0"
         id="stop2826" />
      <stop
         style="stop-color:#937125;stop-opacity:1"
         offset="1"
         id="stop2828" />
    </linearGradient>
    <inkscape:perspective
       id="perspective2706"
       inkscape:persp3d-origin="128 : 85.333333 : 1"
       inkscape:vp_z="256 : 128 : 1"
       inkscape:vp_y="0 : 1000 : 0"
       inkscape:vp_x="0 : 128 : 1"
       sodipodi:type="inkscape:persp3d" />
    <linearGradient
       inkscape:collect="always"
       xlink:href="#linearGradient2786"
       id="linearGradient3567"
       gradientUnits="userSpaceOnUse"
       gradientTransform="matrix(1.526243,0,0,1.537585,-161.5361,9.14878)"
       x1="176.34541"
       y1="51.672543"
       x2="208.08186"
       y2="69.707771" />
    <radialGradient
       inkscape:collect="always"
       xlink:href="#linearGradient2762"
       id="radialGradient3569"
       gradientUnits="userSpaceOnUse"
       gradientTransform="matrix(2.625365,-3.002173,1.176639,1.044306,-458.3392,513.0075)"
       spreadMethod="reflect"
       cx="148.06133"
       cy="113.93974"
       fx="148.06133"
       fy="113.93974"
       r="23.3167" />
    <linearGradient
       inkscape:collect="always"
       xlink:href="#linearGradient2805"
       id="linearGradient3571"
       gradientUnits="userSpaceOnUse"
       gradientTransform="matrix(0.934209,0,0,0.934209,10.29412,5.965912)"
       x1="53.012367"
       y1="145.53412"
       x2="115.17735"
       y2="191.12317" />
    <linearGradient
       inkscape:collect="always"
       xlink:href="#linearGradient2802"
       id="linearGradient3573"
       gradientUnits="userSpaceOnUse"
       gradientTransform="matrix(1.526243,0,0,1.537585,-161.5361,9.14878)"
       x1="191.12427"
       y1="37.823872"
       x2="202.14384"
       y2="47.843445" />
    <linearGradient
       inkscape:collect="always"
       xlink:href="#linearGradient2794"
       id="linearGradient3575"
       gradientUnits="userSpaceOnUse"
       gradientTransform="matrix(1.526243,0,0,1.537585,-161.5361,9.14878)"
       x1="191.62524"
       y1="51.099804"
       x2="211.41292"
       y2="66.88063" />
    <linearGradient
       inkscape:collect="always"
       xlink:href="#linearGradient2778"
       id="linearGradient3577"
       gradientUnits="userSpaceOnUse"
       gradientTransform="matrix(1.526243,0,0,1.537585,-161.5361,9.14878)"
       x1="200.79686"
       y1="58.739727"
       x2="219.63081"
       y2="76.023483" />
    <linearGradient
       inkscape:collect="always"
       xlink:href="#linearGradient2783"
       id="linearGradient3579"
       gradientUnits="userSpaceOnUse"
       gradientTransform="matrix(0.934209,0,0,0.934209,10.29412,5.965912)"
       x1="61.85902"
       y1="190.41528"
       x2="72.800331"
       y2="197.58252" />
    <linearGradient
       inkscape:collect="always"
       xlink:href="#linearGradient2788"
       id="linearGradient3581"
       gradientUnits="userSpaceOnUse"
       gradientTransform="matrix(0.934209,0,0,0.934209,10.29412,5.965912)"
       x1="237.96576"
       y1="86.168297"
       x2="160.31213"
       y2="11.021526" />
    <linearGradient
       inkscape:collect="always"
       xlink:href="#linearGradient2806"
       id="linearGradient3583"
       gradientUnits="userSpaceOnUse"
       gradientTransform="matrix(0.934209,0,0,0.934209,10.29412,5.965912)"
       x1="163.82094"
       y1="28.054794"
       x2="240.97064"
       y2="71.639923" />
    <radialGradient
       inkscape:collect="always"
       xlink:href="#linearGradient2824"
       id="radialGradient3585"
       gradientUnits="userSpaceOnUse"
       gradientTransform="matrix(1.45483,0.776245,-0.309727,0.580491,-83.51186,-140.3934)"
       cx="185.74677"
       cy="24.518105"
       fx="185.74677"
       fy="24.518105"
       r="31.233118" />
    <linearGradient
       gradientTransform="matrix(0.4584837,0,0,0.4584837,12.357625,81.058821)"
       y2="50.573639"
       x2="215.89148"
       y1="113.36433"
       x1="155.81395"
       spreadMethod="reflect"
       gradientUnits="userSpaceOnUse"
       id="linearGradient3403"
       xlink:href="#linearGradient3369"
       inkscape:collect="always" />
    <linearGradient
       y2="78.617943"
       x2="-79.282944"
       y1="145.67221"
       x1="-81.182167"
       gradientUnits="userSpaceOnUse"
       id="linearGradient3397"
       xlink:href="#linearGradient3387"
       inkscape:collect="always" />
    <linearGradient
       gradientUnits="userSpaceOnUse"
       y2="78.617943"
       x2="-79.282944"
       y1="145.67221"
       x1="-81.182167"
       id="linearGradient3393"
       xlink:href="#linearGradient3387"
       inkscape:collect="always" />
    <linearGradient
       spreadMethod="reflect"
       gradientUnits="userSpaceOnUse"
       y2="50.573639"
       x2="215.89148"
       y1="113.36433"
       x1="155.81395"
       id="linearGradient3375"
       xlink:href="#linearGradient3369"
       inkscape:collect="always" />
    <linearGradient
       y2="-7.4748664"
       x2="16.093008"
       y1="-7.4748664"
       x1="13.514812"
       spreadMethod="reflect"
       gradientUnits="userSpaceOnUse"
       id="linearGradient2595"
       xlink:href="#linearGradient3578"
       inkscape:collect="always" />
    <linearGradient
       y2="-7.4748664"
       x2="16.093008"
       y1="-7.4748664"
       x1="13.514812"
       spreadMethod="reflect"
       gradientUnits="userSpaceOnUse"
       id="linearGradient2593"
       xlink:href="#linearGradient3578"
       inkscape:collect="always" />
    <linearGradient
       y2="-7.4748664"
       x2="16.093008"
       y1="-7.4748664"
       x1="13.514812"
       spreadMethod="reflect"
       gradientUnits="userSpaceOnUse"
       id="linearGradient2591"
       xlink:href="#linearGradient3578"
       inkscape:collect="always" />
    <linearGradient
       y2="-7.4748664"
       x2="16.093008"
       y1="-7.4748664"
       x1="13.514812"
       spreadMethod="reflect"
       gradientUnits="userSpaceOnUse"
       id="linearGradient2589"
       xlink:href="#linearGradient3578"
       inkscape:collect="always" />
    <linearGradient
       y2="-7.4748664"
       x2="16.093008"
       y1="-7.4748664"
       x1="13.514812"
       spreadMethod="reflect"
       gradientUnits="userSpaceOnUse"
       id="linearGradient2587"
       xlink:href="#linearGradient3578"
       inkscape:collect="always" />
    <linearGradient
       y2="-7.4748664"
       x2="16.093008"
       y1="-7.4748664"
       x1="13.514812"
       spreadMethod="reflect"
       gradientUnits="userSpaceOnUse"
       id="linearGradient2585"
       xlink:href="#linearGradient3578"
       inkscape:collect="always" />
    <linearGradient
       y2="-7.4748664"
       x2="16.093008"
       y1="-7.4748664"
       x1="13.514812"
       spreadMethod="reflect"
       gradientUnits="userSpaceOnUse"
       id="linearGradient2583"
       xlink:href="#linearGradient3578"
       inkscape:collect="always" />
    <linearGradient
       y2="-7.4748664"
       x2="16.093008"
       y1="-7.4748664"
       x1="13.514812"
       spreadMethod="reflect"
       gradientUnits="userSpaceOnUse"
       id="linearGradient2581"
       xlink:href="#linearGradient3578"
       inkscape:collect="always" />
    <linearGradient
       y2="-7.4748664"
       x2="16.093008"
       y1="-7.4748664"
       x1="13.514812"
       spreadMethod="reflect"
       gradientUnits="userSpaceOnUse"
       id="linearGradient2579"
       xlink:href="#linearGradient3578"
       inkscape:collect="always" />
    <linearGradient
       y2="-7.4748664"
       x2="16.093008"
       y1="-7.4748664"
       x1="13.514812"
       spreadMethod="reflect"
       gradientUnits="userSpaceOnUse"
       id="linearGradient2577"
       xlink:href="#linearGradient3578"
       inkscape:collect="always" />
    <linearGradient
       y2="-7.4748664"
       x2="16.093008"
       y1="-7.4748664"
       x1="13.514812"
       spreadMethod="reflect"
       gradientUnits="userSpaceOnUse"
       id="linearGradient2575"
       xlink:href="#linearGradient3578"
       inkscape:collect="always" />
    <linearGradient
       y2="-7.4748664"
       x2="16.093008"
       y1="-7.4748664"
       x1="13.514812"
       spreadMethod="reflect"
       gradientUnits="userSpaceOnUse"
       id="linearGradient2573"
       xlink:href="#linearGradient3578"
       inkscape:collect="always" />
    <linearGradient
       y2="-7.4748664"
       x2="16.093008"
       y1="-7.4748664"
       x1="13.514812"
       spreadMethod="reflect"
       gradientUnits="userSpaceOnUse"
       id="linearGradient2571"
       xlink:href="#linearGradient3578"
       inkscape:collect="always" />
    <linearGradient
       y2="-7.4748664"
       x2="16.093008"
       y1="-7.4748664"
       x1="13.514812"
       spreadMethod="reflect"
       gradientUnits="userSpaceOnUse"
       id="linearGradient2569"
       xlink:href="#linearGradient3578"
       inkscape:collect="always" />
    <linearGradient
       y2="-7.4748664"
       x2="16.093008"
       y1="-7.4748664"
       x1="13.514812"
       spreadMethod="reflect"
       gradientUnits="userSpaceOnUse"
       id="linearGradient2567"
       xlink:href="#linearGradient3578"
       inkscape:collect="always" />
    <linearGradient
       y2="-7.4748664"
       x2="16.093008"
       y1="-7.4748664"
       x1="13.514812"
       spreadMethod="reflect"
       gradientUnits="userSpaceOnUse"
       id="linearGradient2565"
       xlink:href="#linearGradient3578"
       inkscape:collect="always" />
    <linearGradient
       y2="-7.4748664"
       x2="16.093008"
       y1="-7.4748664"
       x1="13.514812"
       spreadMethod="reflect"
       gradientUnits="userSpaceOnUse"
       id="linearGradient2563"
       xlink:href="#linearGradient3578"
       inkscape:collect="always" />
    <linearGradient
       y2="-7.4748664"
       x2="16.093008"
       y1="-7.4748664"
       x1="13.514812"
       spreadMethod="reflect"
       gradientUnits="userSpaceOnUse"
       id="linearGradient2561"
       xlink:href="#linearGradient3578"
       inkscape:collect="always" />
    <linearGradient
       y2="-7.4748664"
       x2="16.093008"
       y1="-7.4748664"
       x1="13.514812"
       spreadMethod="reflect"
       gradientUnits="userSpaceOnUse"
       id="linearGradient2559"
       xlink:href="#linearGradient3578"
       inkscape:collect="always" />
    <linearGradient
       y2="-7.4748664"
       x2="16.093008"
       y1="-7.4748664"
       x1="13.514812"
       spreadMethod="reflect"
       gradientUnits="userSpaceOnUse"
       id="linearGradient2557"
       xlink:href="#linearGradient3578"
       inkscape:collect="always" />
    <linearGradient
       y2="-7.4748664"
       x2="16.093008"
       y1="-7.4748664"
       x1="13.514812"
       spreadMethod="reflect"
       gradientUnits="userSpaceOnUse"
       id="linearGradient2555"
       xlink:href="#linearGradient3578"
       inkscape:collect="always" />
    <linearGradient
       y2="-7.4748664"
       x2="16.093008"
       y1="-7.4748664"
       x1="13.514812"
       spreadMethod="reflect"
       gradientUnits="userSpaceOnUse"
       id="linearGradient2553"
       xlink:href="#linearGradient3578"
       inkscape:collect="always" />
    <linearGradient
       y2="-7.4748664"
       x2="16.093008"
       y1="-7.4748664"
       x1="13.514812"
       spreadMethod="reflect"
       gradientUnits="userSpaceOnUse"
       id="linearGradient2551"
       xlink:href="#linearGradient3578"
       inkscape:collect="always" />
    <linearGradient
       y2="-7.4748664"
       x2="16.093008"
       y1="-2.2096405"
       x1="15.650429"
       spreadMethod="reflect"
       gradientUnits="userSpaceOnUse"
       id="linearGradient3610"
       xlink:href="#linearGradient3578"
       inkscape:collect="always" />
    <linearGradient
       y2="-7.4748664"
       x2="16.093008"
       y1="-6.4087667"
       x1="10.621114"
       spreadMethod="reflect"
       gradientUnits="userSpaceOnUse"
       id="linearGradient3608"
       xlink:href="#linearGradient3578"
       inkscape:collect="always" />
    <linearGradient
       y2="-1.5134122"
       x2="9.7181683"
       y1="-5.8865957"
       x1="11.186799"
       spreadMethod="reflect"
       gradientUnits="userSpaceOnUse"
       id="linearGradient3606"
       xlink:href="#linearGradient3578"
       inkscape:collect="always" />
    <linearGradient
       y2="-4.5158963"
       x2="12.916467"
       y1="-3.7543969"
       x1="7.7709298"
       spreadMethod="reflect"
       gradientUnits="userSpaceOnUse"
       id="linearGradient3604"
       xlink:href="#linearGradient3578"
       inkscape:collect="always" />
    <linearGradient
       y2="-3.7326398"
       x2="14.93988"
       y1="-2.2749119"
       x1="17.082983"
       spreadMethod="reflect"
       gradientUnits="userSpaceOnUse"
       id="linearGradient3602"
       xlink:href="#linearGradient3578"
       inkscape:collect="always" />
    <linearGradient
       y2="-1.9920692"
       x2="17.376678"
       y1="-6.2564669"
       x1="15.58174"
       spreadMethod="reflect"
       gradientUnits="userSpaceOnUse"
       id="linearGradient3600"
       xlink:href="#linearGradient3578"
       inkscape:collect="always" />
    <linearGradient
       y2="-7.4748664"
       x2="16.093008"
       y1="-10.977764"
       x1="16.691353"
       spreadMethod="reflect"
       gradientUnits="userSpaceOnUse"
       id="linearGradient3598"
       xlink:href="#linearGradient3578"
       inkscape:collect="always" />
    <linearGradient
       y2="-11.199143"
       x2="11.132382"
       y1="-11.39115"
       x1="16.386753"
       spreadMethod="reflect"
       gradientUnits="userSpaceOnUse"
       id="linearGradient3596"
       xlink:href="#linearGradient3578"
       inkscape:collect="always" />
    <linearGradient
       y2="-2.6882975"
       x2="8.6955833"
       y1="-11.586965"
       x1="12.035328"
       spreadMethod="reflect"
       gradientUnits="userSpaceOnUse"
       id="linearGradient3594"
       xlink:href="#linearGradient3578"
       inkscape:collect="always" />
    <linearGradient
       y2="-5.7778101"
       x2="11.371711"
       y1="-10.150993"
       x1="12.905613"
       spreadMethod="reflect"
       gradientUnits="userSpaceOnUse"
       id="linearGradient3592"
       xlink:href="#linearGradient3578"
       inkscape:collect="always" />
    <linearGradient
       y2="-6.9526954"
       x2="17.74655"
       y1="-5.9083529"
       x1="16.386753"
       spreadMethod="reflect"
       gradientUnits="userSpaceOnUse"
       id="linearGradient3590"
       xlink:href="#linearGradient3578"
       inkscape:collect="always" />
    <linearGradient
       y2="-8.018795"
       x2="17.07476"
       y1="-7.4748664"
       x1="13.514812"
       spreadMethod="reflect"
       gradientUnits="userSpaceOnUse"
       id="linearGradient3588"
       xlink:href="#linearGradient3578"
       inkscape:collect="always" />
    <linearGradient
       y2="-6.5828238"
       x2="18.616835"
       y1="-5.2121248"
       x1="16.908924"
       spreadMethod="reflect"
       gradientUnits="userSpaceOnUse"
       id="linearGradient3586"
       xlink:href="#linearGradient3578"
       inkscape:collect="always" />
    <linearGradient
       spreadMethod="reflect"
       gradientUnits="userSpaceOnUse"
       y2="-7.4748664"
       x2="16.093008"
       y1="-7.4748664"
       x1="13.514812"
       id="linearGradient3584"
       xlink:href="#linearGradient3578"
       inkscape:collect="always" />
    <inkscape:perspective
       sodipodi:type="inkscape:persp3d"
       inkscape:vp_x="0 : 128 : 1"
       inkscape:vp_y="0 : 1000 : 0"
       inkscape:vp_z="256 : 128 : 1"
       inkscape:persp3d-origin="128 : 85.333333 : 1"
       id="perspective2503" />
    <linearGradient
       id="linearGradient3578">
      <stop
         id="stop3580"
         offset="0"
         style="stop-color:#000000;stop-opacity:1;" />
      <stop
         id="stop3582"
         offset="1"
         style="stop-color:#fffcfc;stop-opacity:1;" />
    </linearGradient>
    <linearGradient
       id="linearGradient3369"
       inkscape:collect="always">
      <stop
         id="stop3371"
         offset="0"
         style="stop-color:#6465df;stop-opacity:1" />
      <stop
         id="stop3373"
         offset="1"
         style="stop-color:#ffffff;stop-opacity:1" />
    </linearGradient>
    <linearGradient
       id="linearGradient3387"
       inkscape:collect="always">
      <stop
         id="stop3389"
         offset="0"
         style="stop-color:#000000;stop-opacity:1;" />
      <stop
         id="stop3391"
         offset="1"
         style="stop-color:#ffffff;stop-opacity:1" />
    </linearGradient>
    <linearGradient
       inkscape:collect="always"
       xlink:href="#linearGradient2768"
       id="linearGradient3376"
       gradientUnits="userSpaceOnUse"
       gradientTransform="translate(-2.515971,-1.257985)"
       spreadMethod="reflect"
       x1="62.59137"
       y1="5.976428"
       x2="62.280941"
       y2="63.84375" />
    <linearGradient
       inkscape:collect="always"
       xlink:href="#linearGradient2780"
       id="linearGradient3378"
       gradientUnits="userSpaceOnUse"
       gradientTransform="matrix(0.988656,0,0,1,8.205808e-2,-0.638626)"
       x1="56.535339"
       y1="7.3912868"
       x2="56.517471"
       y2="11.758032" />
    <linearGradient
       inkscape:collect="always"
       xlink:href="#linearGradient2902"
       id="linearGradient3380"
       gradientUnits="userSpaceOnUse"
       gradientTransform="translate(-2.274021,-0.774053)"
       spreadMethod="reflect"
       x1="62.59137"
       y1="5.976428"
       x2="62.280941"
       y2="63.84375" />
    <linearGradient
       inkscape:collect="always"
       xlink:href="#linearGradient2780"
       id="linearGradient3382"
       gradientUnits="userSpaceOnUse"
       gradientTransform="matrix(0.919885,0,0,1,3.967032,-125.906)"
       x1="56.535339"
       y1="7.3912868"
       x2="56.517471"
       y2="11.758032" />
    <radialGradient
       inkscape:collect="always"
       xlink:href="#linearGradient2796"
       id="radialGradient3384"
       gradientUnits="userSpaceOnUse"
       gradientTransform="matrix(1.604604,-1.577849e-6,1.001507e-7,0.101849,-37.21026,-105.8163)"
       cx="61.544846"
       cy="-117.8159"
       fx="61.544846"
       fy="-117.8159"
       r="52.026726" />
    <radialGradient
       inkscape:collect="always"
       xlink:href="#linearGradient2796"
       id="radialGradient3386"
       gradientUnits="userSpaceOnUse"
       gradientTransform="matrix(1.604604,-1.577849e-6,1.001507e-7,0.101849,-37.45223,19.23705)"
       cx="61.544846"
       cy="-117.8159"
       fx="61.544846"
       fy="-117.8159"
       r="52.026726" />
    <radialGradient
       inkscape:collect="always"
       xlink:href="#linearGradient2813"
       id="radialGradient3388"
       gradientUnits="userSpaceOnUse"
       gradientTransform="matrix(0.853551,-3.900375e-4,2.886779e-5,0.276456,231.4,41.00808)"
       cx="-196.04634"
       cy="69.679871"
       fx="-196.04634"
       fy="69.679871"
       r="44.609375" />
    <linearGradient
       inkscape:collect="always"
       xlink:href="#linearGradient2780"
       id="linearGradient3390"
       gradientUnits="userSpaceOnUse"
       gradientTransform="matrix(0.638106,0,0,1,22.07394,1.306995)"
       x1="56.535339"
       y1="7.3912868"
       x2="56.517471"
       y2="11.758032" />
    <linearGradient
       inkscape:collect="always"
       xlink:href="#linearGradient2892"
       id="linearGradient3392"
       gradientUnits="userSpaceOnUse"
       gradientTransform="translate(0,-2.41966)"
       x1="64.90625"
       y1="125.57783"
       x2="95.625"
       y2="76.103455" />
    <linearGradient
       inkscape:collect="always"
       xlink:href="#linearGradient2892"
       id="linearGradient3395"
       gradientUnits="userSpaceOnUse"
       gradientTransform="matrix(1.9459,0,0,1.9459,1.30552,-0.7237954)"
       x1="64.90625"
       y1="125.57783"
       x2="95.625"
       y2="76.103455" />
    <linearGradient
       inkscape:collect="always"
       xlink:href="#linearGradient2780"
       id="linearGradient3398"
       gradientUnits="userSpaceOnUse"
       gradientTransform="matrix(1.2416905,0,0,1.9459,44.2592,6.5279026)"
       x1="56.535339"
       y1="7.3912868"
       x2="56.517471"
       y2="11.758032" />
    <radialGradient
       inkscape:collect="always"
       xlink:href="#linearGradient2813"
       id="radialGradient3401"
       gradientUnits="userSpaceOnUse"
       gradientTransform="matrix(1.6609249,-7.5897397e-4,5.6173833e-5,0.5379557,451.58678,83.782244)"
       cx="-196.04634"
       cy="69.679871"
       fx="-196.04634"
       fy="69.679871"
       r="44.609375" />
    <radialGradient
       inkscape:collect="always"
       xlink:href="#linearGradient2796"
       id="radialGradient3405"
       gradientUnits="userSpaceOnUse"
       gradientTransform="matrix(3.1223989,-3.0703364e-6,1.9488325e-7,0.198188,-68.893673,38.738896)"
       cx="61.544846"
       cy="-117.8159"
       fx="61.544846"
       fy="-117.8159"
       r="52.026726" />
    <radialGradient
       inkscape:collect="always"
       xlink:href="#linearGradient2796"
       id="radialGradient3408"
       gradientUnits="userSpaceOnUse"
       gradientTransform="matrix(3.1223989,-3.0703364e-6,1.9488325e-7,0.198188,-68.422824,-207.21346)"
       cx="61.544846"
       cy="-117.8159"
       fx="61.544846"
       fy="-117.8159"
       r="52.026726" />
    <linearGradient
       inkscape:collect="always"
       xlink:href="#linearGradient2780"
       id="linearGradient3411"
       gradientUnits="userSpaceOnUse"
       gradientTransform="matrix(1.7900042,0,0,1.9459,9.0249676,-248.98511)"
       x1="56.535339"
       y1="7.3912868"
       x2="56.517471"
       y2="11.758032" />
    <linearGradient
       inkscape:collect="always"
       xlink:href="#linearGradient2902"
       id="linearGradient3414"
       gradientUnits="userSpaceOnUse"
       gradientTransform="matrix(1.9459,0,0,1.9459,-4.0873608,1.5105274)"
       spreadMethod="reflect"
       x1="62.59137"
       y1="5.976428"
       x2="62.280941"
       y2="63.84375" />
    <linearGradient
       inkscape:collect="always"
       xlink:href="#linearGradient2780"
       id="linearGradient3418"
       gradientUnits="userSpaceOnUse"
       gradientTransform="matrix(1.9238257,0,0,1.9459,1.4651968,2.7419187)"
       x1="56.535339"
       y1="7.3912868"
       x2="56.517471"
       y2="11.758032" />
    <linearGradient
       inkscape:collect="always"
       xlink:href="#linearGradient2768"
       id="linearGradient3421"
       gradientUnits="userSpaceOnUse"
       gradientTransform="matrix(1.9459,0,0,1.9459,-3.590308,1.536708)"
       spreadMethod="reflect"
       x1="62.59137"
       y1="5.976428"
       x2="62.280941"
       y2="63.84375" />
  </defs>
  <sodipodi:namedview
     inkscape:window-height="1025"
     inkscape:window-width="1680"
     inkscape:pageshadow="2"
     inkscape:pageopacity="0.0"
     guidetolerance="10.0"
     gridtolerance="10.0"
     objecttolerance="10.0"
     borderopacity="1.0"
     bordercolor="#666666"
     pagecolor="#ffffff"
     id="base"
     width="256px"
     height="256px"
     inkscape:zoom="2.0664062"
     inkscape:cx="128"
     inkscape:cy="128"
     inkscape:window-x="-5"
     inkscape:window-y="0"
     inkscape:current-layer="svg2"
     showgrid="false" />
  <g
     id="g3424">
    <path
       style="fill:#000000;fill-opacity:0.18518515;stroke:none;stroke-width:0;stroke-linecap:round;stroke-linejoin:round;stroke-miterlimit:4;stroke-dashoffset:0;stroke-opacity:1"
       d="M 18.453762,22.968801 L 18.453762,228.6869 L 25.994124,237.1394 L 228.73258,237.1394 L 237.54994,229.90309 L 237.54994,22.968801 L 18.453762,22.968801 z M 208.17901,32.151018 L 227.15154,32.151018 L 227.15154,44.981796 L 208.17901,44.981796 L 208.17901,32.151018 z M 31.28454,33.367205 L 50.257065,33.367205 L 50.257065,46.197983 L 31.28454,46.197983 L 31.28454,33.367205 z"
       id="path2776" />
    <path
       id="rect1873"
       d="M 13.557937,18.684951 L 13.557937,224.40306 L 21.098298,232.85556 L 223.83676,232.85556 L 232.65412,225.61925 L 232.65412,18.684951 L 13.557937,18.684951 z M 203.28319,27.867167 L 222.25571,27.867167 L 222.25571,40.697945 L 203.28319,40.697945 L 203.28319,27.867167 z M 26.388714,29.083355 L 45.361239,29.083355 L 45.361239,41.914133 L 26.388714,41.914133 L 26.388714,29.083355 z"
       style="fill:url(#linearGradient3421);fill-opacity:1;stroke:none;stroke-width:0;stroke-linecap:round;stroke-linejoin:round;stroke-miterlimit:4;stroke-dashoffset:0;stroke-opacity:1" />
    <rect
       y="19.265335"
       x="15.381022"
       height="3.67187"
       width="216.60286"
       id="rect2778"
       style="fill:url(#linearGradient3418);fill-opacity:1;stroke:none;stroke-width:0;stroke-linecap:round;stroke-linejoin:round;stroke-miterlimit:4;stroke-dasharray:none;stroke-dashoffset:0;stroke-opacity:1" />
    <path
       id="text2919"
       d="M 82.886585,73.583154 C 83.463389,73.583164 83.875735,73.428532 84.123628,73.119263 C 84.376272,72.810013 84.502598,72.301452 84.502606,71.593579 C 84.502598,70.8926 84.376272,70.39091 84.123628,70.088511 C 83.875735,69.786137 83.463389,69.634942 82.886585,69.63493 L 81.728199,69.63493 L 81.728199,73.583154 L 82.886585,73.583154 M 81.728199,76.325264 L 81.728199,82.149667 L 78.975242,82.149667 L 78.975242,66.758808 L 83.179757,66.758808 C 84.586021,66.758824 85.615697,67.099011 86.268787,67.779367 C 86.926627,68.459755 87.255552,69.535291 87.255562,71.005985 C 87.255552,72.023117 87.08394,72.85812 86.740723,73.510994 C 86.402255,74.163883 85.8898,74.644957 85.203358,74.954209 C 85.579946,75.077921 85.916019,75.35969 86.211583,75.79952 C 86.511897,76.232491 86.814603,76.892246 87.119701,77.778788 L 88.614163,82.149667 L 85.682444,82.149667 L 84.381046,78.325148 C 84.118853,77.555437 83.8519,77.029695 83.580186,76.74792 C 83.313228,76.466153 82.955701,76.325269 82.507606,76.325264 L 81.728199,76.325264 M 90.244485,66.758808 L 97.67389,66.758808 L 97.67389,69.758635 L 92.997442,69.758635 L 92.997442,72.624447 L 97.395019,72.624447 L 97.395019,75.624272 L 92.997442,75.624272 L 92.997442,79.14984 L 97.831203,79.14984 L 97.831203,82.149667 L 90.244485,82.149667 L 90.244485,66.758808 M 106.73362,79.345705 L 102.429,79.345705 L 101.7497,82.149667 L 98.98244,82.149667 L 102.93668,66.758808 L 106.21878,66.758808 L 110.17303,82.149667 L 107.40577,82.149667 L 106.73362,79.345705 M 103.11545,76.490202 L 106.04002,76.490202 L 104.58131,70.366845 L 103.11545,76.490202 M 114.33464,69.758635 L 114.33464,79.14984 L 115.32141,79.14984 C 116.44642,79.149845 117.30449,78.747806 117.8956,77.943726 C 118.49147,77.139655 118.78941,75.971337 118.78942,74.438774 C 118.78941,72.913099 118.49386,71.751657 117.90275,70.954441 C 117.31164,70.157249 116.45119,69.758647 115.32141,69.758635 L 114.33464,69.758635 M 111.58168,66.758808 L 114.4848,66.758808 C 116.10558,66.758824 117.31164,66.927199 118.10297,67.263935 C 118.89905,67.593827 119.58074,68.157367 120.14802,68.954557 C 120.64855,69.648687 121.02038,70.449328 121.26351,71.35648 C 121.50661,72.263653 121.62817,73.291084 121.62818,74.438774 C 121.62817,75.600225 121.50661,76.637965 121.26351,77.551995 C 121.02038,78.459163 120.64855,79.259804 120.14802,79.953918 C 119.57597,80.751124 118.88952,81.318101 118.08867,81.654851 C 117.2878,81.984729 116.08651,82.149667 114.4848,82.149667 L 111.58168,82.149667 L 111.58168,66.758808 M 122.25028,66.758808 L 125.26065,66.758808 L 127.69183,72.243027 L 130.12302,66.758808 L 133.14054,66.758808 L 129.07189,75.665507 L 129.07189,82.149667 L 126.31893,82.149667 L 126.31893,75.665507 L 122.25028,66.758808"
       style="font-size:9.03608131px;font-style:normal;font-weight:bold;fill:#c916da;fill-opacity:1;stroke:none;stroke-width:1px;stroke-linecap:butt;stroke-linejoin:miter;stroke-opacity:1;font-family:Bitstream Vera Sans" />
    <path
       style="fill:url(#linearGradient3414);fill-opacity:1;stroke:none;stroke-width:0;stroke-linecap:round;stroke-linejoin:round;stroke-miterlimit:4;stroke-dashoffset:0;stroke-opacity:1"
       d="M 13.060919,18.65877 L 13.060919,224.37688 L 20.601279,232.82938 L 223.33975,232.82938 L 232.15711,225.59306 L 232.15711,18.65877 L 13.060919,18.65877 z M 202.78618,27.840987 L 221.7587,27.840987 L 221.7587,40.671765 L 202.78618,40.671765 L 202.78618,27.840987 z M 25.891699,29.057174 L 44.864219,29.057174 L 44.864219,41.887952 L 25.891699,41.887952 L 25.891699,29.057174 z"
       id="path2900" />
    <rect
       transform="scale(1,-1)"
       style="fill:url(#linearGradient3411);fill-opacity:1;stroke:none;stroke-width:0;stroke-linecap:round;stroke-linejoin:round;stroke-miterlimit:4;stroke-dasharray:none;stroke-dashoffset:0;stroke-opacity:1"
       id="rect2788"
       width="201.53593"
       height="3.67187"
       x="21.972803"
       y="-232.46172" />
    <rect
       transform="matrix(0,1,-1,0,0,0)"
       style="fill:url(#radialGradient3408);fill-opacity:1;stroke:none;stroke-width:0;stroke-linecap:round;stroke-linejoin:round;stroke-miterlimit:4;stroke-dasharray:none;stroke-dashoffset:0;stroke-opacity:1"
       id="rect2792"
       width="202.47762"
       height="3.67187"
       x="22.505932"
       y="-232.39941" />
    <rect
       y="13.552943"
       x="22.035089"
       height="3.67187"
       width="202.47762"
       id="rect2804"
       style="fill:url(#radialGradient3405);fill-opacity:1;stroke:none;stroke-width:0;stroke-linecap:round;stroke-linejoin:round;stroke-miterlimit:4;stroke-dasharray:none;stroke-dashoffset:0;stroke-opacity:1"
       transform="matrix(0,1,1,0,0,0)" />
    <path
       id="text2910"
       d="M 71.403228,37.011774 L 75.717014,37.011774 L 75.717014,46.381557 L 82.081247,46.381557 L 82.081247,37.011774 L 86.395031,37.011774 L 86.395031,61.597163 L 82.081247,61.597163 L 82.081247,51.173483 L 75.717014,51.173483 L 75.717014,61.597163 L 71.403228,61.597163 L 71.403228,37.011774 M 94.94417,41.803702 L 94.94417,56.805234 L 96.490409,56.805234 C 98.253262,56.805239 99.597817,56.163024 100.52408,54.878584 C 101.45778,53.594156 101.92464,51.727887 101.92466,49.279767 C 101.92464,46.84265 101.46152,44.987357 100.53528,43.713885 C 99.609022,42.440449 98.260732,41.803721 96.490409,41.803702 L 94.94417,41.803702 M 90.630384,37.011774 L 95.179466,37.011774 C 97.719175,37.011798 99.609022,37.28076 100.84901,37.818662 C 102.09645,38.345633 103.16462,39.245834 104.05354,40.519267 C 104.83785,41.628072 105.42049,42.907017 105.80146,44.356102 C 106.1824,45.805225 106.37288,47.446444 106.3729,49.279767 C 106.37288,51.135072 106.1824,52.792759 105.80146,54.252832 C 105.42049,55.701945 104.83785,56.980889 104.05354,58.08967 C 103.15715,59.363128 102.08151,60.268817 100.8266,60.80674 C 99.571672,61.333689 97.689295,61.597163 95.179466,61.597163 L 90.630384,61.597163 L 90.630384,37.011774"
       style="font-size:14.29607964px;font-style:normal;font-weight:bold;fill:#757b9d;fill-opacity:1;stroke:none;stroke-width:1px;stroke-linecap:butt;stroke-linejoin:miter;stroke-opacity:1;font-family:Bitstream Vera Sans" />
    <path
       id="rect2808"
       d="M 51.879953,22.187545 L 51.879953,141.54232 L 200.06529,141.54232 L 200.06529,22.187545 L 51.879953,22.187545 z M 56.966524,22.399074 L 194.25206,22.399074 L 194.25206,135.77818 L 56.966524,135.77818 L 56.966524,22.399074 z"
       style="fill:url(#radialGradient3401);fill-opacity:1;stroke:none;stroke-width:0;stroke-linecap:round;stroke-linejoin:round;stroke-miterlimit:4;stroke-dasharray:none;stroke-dashoffset:0;stroke-opacity:1" />
    <rect
       style="fill:url(#linearGradient3398);fill-opacity:1;stroke:none;stroke-width:0;stroke-linecap:round;stroke-linejoin:round;stroke-miterlimit:4;stroke-dasharray:none;stroke-dashoffset:0;stroke-opacity:1"
       id="rect2825"
       width="139.80145"
       height="3.67187"
       x="53.240868"
       y="23.051319" />
    <path
       id="rect2829"
       d="M 82.972511,168.87355 C 74.582769,168.87355 67.830978,175.62535 67.830976,184.01509 L 67.830976,232.66259 C 112.2688,232.74381 137.8864,233.26107 187.38221,232.66259 L 187.38221,184.01509 C 187.38221,175.62534 180.63041,168.87356 172.24067,168.87355 L 82.972511,168.87355 z M 95.924908,176.41391 L 116.47848,176.41391 L 116.47848,224.02765 L 95.924908,224.02765 L 95.924908,176.41391 z"
       style="fill:url(#linearGradient3395);fill-opacity:1;stroke:none;stroke-width:0;stroke-linecap:round;stroke-linejoin:round;stroke-miterlimit:4;stroke-dashoffset:0;stroke-opacity:1" />
    <g
       transform="translate(-0.9139741,-6.4030621)"
       id="g1960">
      <path
         sodipodi:nodetypes="cccccc"
         id="path1873"
         d="M 60.584702,189.78332 L 85.052394,120.07149 L 184.07009,19.547781 C 201.15261,-0.70483184 254.81669,35.232306 231.85856,61.143798 L 125.57701,167.05958 L 60.584702,189.78332 z"
         style="fill:url(#linearGradient3567);fill-opacity:1;fill-rule:evenodd;stroke:#000000;stroke-width:1.53190362px;stroke-linecap:butt;stroke-linejoin:miter;stroke-opacity:1" />
      <path
         style="fill:url(#radialGradient3569);fill-opacity:1;fill-rule:evenodd;stroke:url(#linearGradient3571);stroke-width:1.53190362px;stroke-linecap:butt;stroke-linejoin:miter;stroke-opacity:1"
         d="M 60.584702,189.78332 L 85.052394,120.07149 C 99.44512,113.62103 101.4827,109.07975 102.63856,116.9903 C 96.162794,128.3683 107.13911,138.59211 117.50465,135.04771 C 125.37117,134.24902 134.68228,140.3714 127.87086,152.03879 C 123.89395,162.54112 123.76457,160.44552 125.57701,167.05958 L 60.584702,189.78332 z"
         id="path1875"
         sodipodi:nodetypes="ccccccc" />
      <path
         sodipodi:nodetypes="ccccc"
         id="path2772"
         d="M 100.72701,122.76752 L 201.27394,27.635896 L 176.80624,25.710155 L 83.09461,121.39267 C 91.724696,115.31894 104.79556,104.23936 100.72701,122.76752 z"
         style="fill:url(#linearGradient3573);fill-opacity:1;fill-rule:evenodd;stroke:#d9c76e;stroke-width:1.53190362px;stroke-linecap:butt;stroke-linejoin:miter;stroke-opacity:1" />
      <path
         sodipodi:nodetypes="ccccc"
         id="path2774"
         d="M 101.49161,123.15267 L 201.65624,27.635896 L 220.77164,46.123015 L 126.34163,137.7883 C 118.31796,127.5499 102.90867,147.98963 101.49161,123.15267 z"
         style="fill:url(#linearGradient3575);fill-opacity:1;fill-rule:evenodd;stroke:#bd9224;stroke-width:1.53190362px;stroke-linecap:butt;stroke-linejoin:miter;stroke-opacity:1" />
      <path
         sodipodi:nodetypes="ccccc"
         id="path2780"
         d="M 127.48854,137.7883 L 220.77164,45.737866 L 223.44779,69.231911 L 125.95932,167.05958 C 118.33065,158.10328 134.90916,148.4331 127.48854,137.7883 z"
         style="fill:url(#linearGradient3577);fill-opacity:1;fill-rule:evenodd;stroke:#b08519;stroke-width:1.53190362px;stroke-linecap:butt;stroke-linejoin:miter;stroke-opacity:1" />
      <path
         sodipodi:nodetypes="cccc"
         id="path1894"
         d="M 60.584702,189.78332 L 69.039688,167.59307 C 79.625197,168.91023 81.414588,170.99397 85.286981,181.00613 L 60.584702,189.78332 z"
         style="fill:url(#linearGradient3579);fill-opacity:1;fill-rule:evenodd;stroke:#000000;stroke-width:1.53190362px;stroke-linecap:butt;stroke-linejoin:miter;stroke-opacity:1" />
      <path
         sodipodi:nodetypes="ccccccccc"
         id="path2786"
         d="M 176.90874,25.154674 L 201.24571,26.558731 L 221.83853,46.215512 L 223.24259,68.680405 L 211.54211,82.252943 L 207.32995,60.724088 L 187.20515,42.003344 L 163.80422,40.599288 L 176.90874,25.154674 z"
         style="fill:url(#linearGradient3581);fill-opacity:1;fill-rule:evenodd;stroke:url(#linearGradient3583);stroke-width:1.86841798;stroke-linecap:round;stroke-linejoin:round;stroke-miterlimit:4;stroke-dasharray:none;stroke-opacity:1" />
      <path
         style="fill:url(#radialGradient3585);fill-opacity:1;fill-rule:evenodd;stroke:none;stroke-width:1.63978684px;stroke-linecap:butt;stroke-linejoin:miter;stroke-opacity:1"
         d="M 179.12413,23.191641 L 184.07009,19.547781 C 201.15261,-0.70483184 254.81669,35.232306 231.85856,61.143798 L 225.73299,68.307654 C 221.86988,47.811826 199.37296,27.078461 179.12413,23.191641 z"
         id="path2812"
         sodipodi:nodetypes="ccccc" />
    </g>
  </g>
  <g
     inkscape:label="1. rteg"
     id="layer1"
     transform="translate(1.6668744,-0.2680541)">
    <g
       id="g2637">
      <g
         id="g3612"
         transform="translate(-2.5722563,0)">
        <g
           id="g2650"
           style="font-size:12px;font-style:normal;font-weight:normal;fill:url(#linearGradient3584);fill-opacity:1;stroke:none;stroke-width:1px;stroke-linecap:butt;stroke-linejoin:miter;stroke-opacity:1;font-family:Bitstream Vera Sans">
          <path
             style="fill:url(#linearGradient2551);fill-opacity:1"
             id="path2652"
             d="M 16.1875,-12.21875 L 12.09375,-12.1875 L 12.800857,-11.480393 L 16.894607,-11.511643 L 16.1875,-12.21875 z" />
          <path
             style="fill:url(#linearGradient2553);fill-opacity:1"
             id="path2654"
             d="M 12.09375,-12.1875 L 8.75,-3.4375 L 9.4571068,-2.7303932 L 12.800857,-11.480393 L 12.09375,-12.1875 z" />
          <path
             style="fill:url(#linearGradient2555);fill-opacity:1"
             id="path2662"
             d="M 14.75,-5.6875 L 15.53125,-3.46875 L 16.238357,-2.7616432 L 15.457107,-4.9803932 L 14.75,-5.6875 z" />
          <path
             style="fill:url(#linearGradient2557);fill-opacity:1"
             id="path2664"
             d="M 15.53125,-3.46875 L 15.53125,-3.4375 L 16.238357,-2.7303932 L 16.238357,-2.7616432 L 15.53125,-3.46875 z" />
          <path
             style="fill:url(#linearGradient2559);fill-opacity:1"
             id="path2672"
             d="M 17.92037,-11.519527 C 17.478803,-11.961094 16.896486,-12.233764 16.1875,-12.21875 L 16.894607,-11.511643 C 17.603593,-11.526657 18.185909,-11.253988 18.627477,-10.81242 L 17.92037,-11.519527 z" />
          <path
             style="fill:url(#linearGradient3598);fill-opacity:1"
             id="path2674"
             d="M 16.21875,-11.96875 C 16.818366,-11.965939 17.317195,-11.725944 17.700221,-11.342918 L 18.407328,-10.635811 C 18.024302,-11.018837 17.525473,-11.258832 16.925857,-11.261643 L 16.21875,-11.96875 z" />
          <path
             style="fill:url(#linearGradient2561);fill-opacity:1"
             id="path2676"
             d="M 17.700221,-11.342918 C 19.261676,-9.7814631 18.898615,-5.8429893 15.59375,-5.90625 L 16.300857,-5.1991432 C 19.605722,-5.1358825 19.968783,-9.0743563 18.407328,-10.635811 L 17.700221,-11.342918 z" />
          <path
             style="fill:url(#linearGradient2563);fill-opacity:1"
             id="path2678"
             d="M 15.59375,-5.90625 L 16.375,-3.71875 L 17.082107,-3.0116432 L 16.300857,-5.1991432 L 15.59375,-5.90625 z" />
          <path
             style="fill:url(#linearGradient2565);fill-opacity:1"
             id="path2680"
             d="M 16.375,-3.71875 L 15.71875,-3.71875 L 16.425857,-3.0116432 L 17.082107,-3.0116432 L 16.375,-3.71875 z" />
          <path
             style="fill:url(#linearGradient2567);fill-opacity:1"
             id="path2684"
             d="M 14.875,-5.96875 L 10.5625,-5.96875 L 11.269607,-5.2616432 L 15.582107,-5.2616432 L 14.875,-5.96875 z" />
          <path
             style="fill:url(#linearGradient2569);fill-opacity:1"
             id="path2686"
             d="M 10.5625,-5.96875 L 9.75,-3.75 L 10.457107,-3.0428932 L 11.269607,-5.2616432 L 10.5625,-5.96875 z" />
          <path
             style="fill:url(#linearGradient3594);fill-opacity:1"
             id="path2690"
             d="M 9.1875,-3.75 L 12.28125,-11.90625 L 12.988357,-11.199143 L 9.8946068,-3.0428932 L 9.1875,-3.75 z" />
          <path
             style="fill:url(#linearGradient3608);fill-opacity:1"
             id="path2660"
             d="M 10.8125,-5.6875 L 14.75,-5.6875 L 15.457107,-4.9803932 L 11.519607,-4.9803932 L 10.8125,-5.6875 z" />
          <path
             style="fill:url(#linearGradient3610);fill-opacity:1"
             id="path2682"
             d="M 15.71875,-3.71875 L 14.875,-5.96875 L 15.582107,-5.2616432 L 16.425857,-3.0116432 L 15.71875,-3.71875 z" />
          <path
             style="fill:url(#linearGradient2571);fill-opacity:1"
             id="path2688"
             d="M 9.75,-3.75 L 9.1875,-3.75 L 9.8946068,-3.0428932 L 10.457107,-3.0428932 L 9.75,-3.75 z" />
          <path
             style="fill:url(#linearGradient3596);fill-opacity:1"
             id="path2692"
             d="M 12.28125,-11.90625 L 16.21875,-11.96875 L 16.925857,-11.261643 L 12.988357,-11.199143 L 12.28125,-11.90625 z" />
          <path
             style="fill:url(#linearGradient2573);fill-opacity:1"
             id="path2694"
             d="M 13.59375,-11.375 L 15.4375,-6.4375 L 16.144607,-5.7303932 L 14.300857,-10.667893 L 13.59375,-11.375 z" />
          <path
             style="fill:url(#linearGradient2575);fill-opacity:1"
             id="path2698"
             d="M 17.29651,-10.694689 C 16.87154,-11.11966 16.292483,-11.392236 15.59375,-11.375 L 16.300857,-10.667893 C 16.99959,-10.685129 17.578646,-10.412554 18.003617,-9.9875826 L 17.29651,-10.694689 z" />
          <path
             style="fill:url(#linearGradient2577);fill-opacity:1"
             id="path2700"
             d="M 15.59375,-11.375 L 13.59375,-11.375 L 14.300857,-10.667893 L 16.300857,-10.667893 L 15.59375,-11.375 z" />
          <path
             style="fill:url(#linearGradient2579);fill-opacity:1"
             id="path2702"
             d="M 12.5,-11.25 L 10.71875,-6.375 L 11.425857,-5.6678932 L 13.207107,-10.542893 L 12.5,-11.25 z" />
          <path
             style="fill:url(#linearGradient2581);fill-opacity:1"
             id="path2704"
             d="M 10.71875,-6.375 L 14.71875,-6.3125 L 15.425857,-5.6053932 L 11.425857,-5.6678932 L 10.71875,-6.375 z" />
          <path
             style="fill:url(#linearGradient2583);fill-opacity:1"
             id="path2706"
             d="M 14.71875,-6.3125 L 12.96875,-11.25 L 13.675857,-10.542893 L 15.425857,-5.6053932 L 14.71875,-6.3125 z" />
          <path
             style="fill:url(#linearGradient2585);fill-opacity:1"
             id="path2708"
             d="M 12.96875,-11.25 L 12.5,-11.25 L 13.207107,-10.542893 L 13.675857,-10.542893 L 12.96875,-11.25 z" />
          <path
             style="fill:url(#linearGradient2587);fill-opacity:1"
             id="path2710"
             d="M 13.96875,-11.125 L 15.5625,-11.125 L 16.269607,-10.417893 L 14.675857,-10.417893 L 13.96875,-11.125 z" />
          <path
             style="fill:url(#linearGradient2589);fill-opacity:1"
             id="path2712"
             d="M 15.5625,-11.125 C 16.263236,-11.142285 16.807643,-10.897983 17.18911,-10.516516 L 17.896217,-9.8094094 C 17.51475,-10.190876 16.970342,-10.435179 16.269607,-10.417893 L 15.5625,-11.125 z" />
          <path
             style="fill:url(#linearGradient3588);fill-opacity:1"
             id="path2714"
             d="M 17.18911,-10.516516 C 18.415922,-9.2897044 17.957455,-6.644214 15.59375,-6.71875 L 16.300857,-6.0116432 C 18.664562,-5.9371073 19.123029,-8.5825976 17.896217,-9.8094094 L 17.18911,-10.516516 z" />
          <path
             style="fill:url(#linearGradient2591);fill-opacity:1"
             id="path2716"
             d="M 15.59375,-6.71875 L 13.96875,-11.125 L 14.675857,-10.417893 L 16.300857,-6.0116432 L 15.59375,-6.71875 z" />
          <path
             style="fill:url(#linearGradient3590);fill-opacity:1"
             id="path2696"
             d="M 15.4375,-6.4375 C 18.434536,-6.3628978 18.668368,-9.3228317 17.29651,-10.694689 L 18.003617,-9.9875826 C 19.375475,-8.6157249 19.141643,-5.655791 16.144607,-5.7303932 L 15.4375,-6.4375 z" />
          <path
             style="fill:url(#linearGradient3592);fill-opacity:1"
             id="path2722"
             d="M 11.15625,-6.65625 L 12.75,-11.03125 L 13.457107,-10.324143 L 11.863357,-5.9491432 L 11.15625,-6.65625 z" />
          <path
             style="fill:url(#linearGradient2593);fill-opacity:1"
             id="path2718"
             d="M 12.75,-11.03125 L 14.375,-6.65625 L 15.082107,-5.9491432 L 13.457107,-10.324143 L 12.75,-11.03125 z" />
          <path
             style="fill:url(#linearGradient2595);fill-opacity:1"
             id="path2720"
             d="M 14.375,-6.65625 L 11.15625,-6.65625 L 11.863357,-5.9491432 L 15.082107,-5.9491432 L 14.375,-6.65625 z" />
          <path
             style="fill:url(#linearGradient3586);fill-opacity:1"
             id="path2670"
             d="M 15.96875,-5.6875 C 19.235011,-5.6249782 19.618583,-9.8213136 17.92037,-11.519527 L 18.627477,-10.81242 C 20.32569,-9.1142068 19.942118,-4.9178714 16.675857,-4.9803932 L 15.96875,-5.6875 z" />
          <path
             style="fill:url(#linearGradient3600);fill-opacity:1"
             id="path2668"
             d="M 16.78125,-3.4375 L 15.96875,-5.6875 L 16.675857,-4.9803932 L 17.488357,-2.7303932 L 16.78125,-3.4375 z" />
          <path
             style="fill:url(#linearGradient3602);fill-opacity:1"
             id="path2666"
             d="M 15.53125,-3.4375 L 16.78125,-3.4375 L 17.488357,-2.7303932 L 16.238357,-2.7303932 L 15.53125,-3.4375 z" />
          <path
             style="fill:url(#linearGradient3604);fill-opacity:1"
             id="path2656"
             d="M 8.75,-3.4375 L 10,-3.4375 L 10.707107,-2.7303932 L 9.4571068,-2.7303932 L 8.75,-3.4375 z" />
          <path
             style="fill:url(#linearGradient3606);fill-opacity:1"
             id="path2658"
             d="M 10,-3.4375 L 10.8125,-5.6875 L 11.519607,-4.9803932 L 10.707107,-2.7303932 L 10,-3.4375 z" />
        </g>
        <path
           id="path2505"
           d="M 16.1875,-12.175236 L 12.09375,-12.143986 L 8.7499996,-3.3939857 L 9.9999996,-3.3939857 L 10.8125,-5.6439857 L 14.75,-5.6439857 L 15.53125,-3.4252357 L 15.53125,-3.3939857 L 16.78125,-3.3939857 L 15.96875,-5.6439857 C 20.084301,-5.565207 19.623157,-12.247993 16.1875,-12.175236 z M 16.21875,-11.925236 C 19.262779,-11.910965 19.709301,-5.7839571 15.59375,-5.8627357 L 16.375,-3.6752357 L 15.71875,-3.6752357 L 14.875,-5.9252357 L 10.5625,-5.9252357 L 9.7499996,-3.7064857 L 9.1874996,-3.7064857 L 12.28125,-11.862736 L 16.21875,-11.925236 z M 13.59375,-11.331486 L 15.4375,-6.3939857 C 19.362951,-6.2962734 18.548077,-11.404362 15.59375,-11.331486 L 13.59375,-11.331486 z M 12.5,-11.206486 L 10.71875,-6.3314857 L 14.71875,-6.2689857 L 12.96875,-11.206486 L 12.5,-11.206486 z M 13.96875,-11.081486 L 15.5625,-11.081486 C 18.516827,-11.154362 18.69243,-6.5775234 15.59375,-6.6752357 L 13.96875,-11.081486 z M 12.75,-10.987736 L 14.375,-6.6127357 L 11.15625,-6.6127357 L 12.75,-10.987736 z"
           style="font-size:12px;font-style:normal;font-weight:normal;fill:#333333;fill-opacity:1;stroke:none;stroke-width:1px;stroke-linecap:butt;stroke-linejoin:miter;stroke-opacity:1;font-family:Bitstream Vera Sans" />
      </g>
      <path
         id="text2170"
         d="M 6.0871491,-4.0239012 C 6.0766271,-4.0350472 6.0650871,-4.0430982 6.0525291,-4.0480532 C 6.0403101,-4.0536252 6.0267331,-4.0564122 6.0117991,-4.0564132 C 5.9588511,-4.0564122 5.9181211,-4.0248292 5.8896111,-3.9616652 C 5.8614391,-3.8991182 5.8473541,-3.8090152 5.8473541,-3.6913552 L 5.8473541,-3.1433032 L 5.7531671,-3.1433032 L 5.7531671,-4.1836722 L 5.8473541,-4.1836722 L 5.8473541,-4.0220442 C 5.8670401,-4.0852082 5.8926651,-4.1319622 5.9242311,-4.1623082 C 5.9557961,-4.1932692 5.9941491,-4.2087522 6.0392921,-4.2087532 C 6.0457401,-4.2087522 6.0528681,-4.2078222 6.0606751,-4.2059662 C 6.0684811,-4.2047262 6.0771361,-4.2025592 6.0866401,-4.1994642 L 6.0871491,-4.0239012 M 6.3849841,-4.0638442 C 6.3347511,-4.0638432 6.2950401,-4.0279262 6.2658501,-3.9560922 C 6.2366611,-3.8848752 6.2220661,-3.7870312 6.2220661,-3.6625592 C 6.2220661,-3.5380862 6.2364911,-3.4399322 6.2653411,-3.3680972 C 6.2945301,-3.2968812 6.3344111,-3.2612732 6.3849841,-3.2612732 C 6.4348791,-3.2612732 6.4744201,-3.2971912 6.5036101,-3.3690262 C 6.5327991,-3.4408612 6.5473941,-3.5387052 6.5473941,-3.6625592 C 6.5473941,-3.7857922 6.5327991,-3.8833272 6.5036101,-3.9551632 C 6.4744201,-4.0276162 6.4348791,-4.0638432 6.3849841,-4.0638442 M 6.3849841,-4.2087532 C 6.4664441,-4.2087522 6.5304231,-4.1604492 6.5769231,-4.0638442 C 6.6234221,-3.9672382 6.6466721,-3.8334762 6.6466731,-3.6625592 C 6.6466721,-3.4922602 6.6234221,-3.3584982 6.5769231,-3.2612732 C 6.5304231,-3.1646682 6.4664441,-3.1163652 6.3849841,-3.1163652 C 6.3031851,-3.1163652 6.2390361,-3.1646682 6.1925371,-3.2612732 C 6.1463771,-3.3584982 6.1232971,-3.4922602 6.1232971,-3.6625592 C 6.1232971,-3.8334762 6.1463771,-3.9672382 6.1925371,-4.0638442 C 6.2390361,-4.1604492 6.3031851,-4.2087522 6.3849841,-4.2087532 M 7.0224031,-4.0638442 C 6.9721701,-4.0638432 6.9324581,-4.0279262 6.9032691,-3.9560922 C 6.8740791,-3.8848752 6.8594851,-3.7870312 6.8594851,-3.6625592 C 6.8594851,-3.5380862 6.8739101,-3.4399322 6.9027601,-3.3680972 C 6.9319491,-3.2968812 6.9718301,-3.2612732 7.0224031,-3.2612732 C 7.0722961,-3.2612732 7.1118381,-3.2971912 7.1410281,-3.3690262 C 7.1702171,-3.4408612 7.1848121,-3.5387052 7.1848121,-3.6625592 C 7.1848121,-3.7857922 7.1702171,-3.8833272 7.1410281,-3.9551632 C 7.1118381,-4.0276162 7.0722961,-4.0638432 7.0224031,-4.0638442 M 7.0224031,-4.2087532 C 7.1038621,-4.2087522 7.1678411,-4.1604492 7.2143411,-4.0638442 C 7.2608401,-3.9672382 7.2840901,-3.8334762 7.2840901,-3.6625592 C 7.2840901,-3.4922602 7.2608401,-3.3584982 7.2143411,-3.2612732 C 7.1678411,-3.1646682 7.1038621,-3.1163652 7.0224031,-3.1163652 C 6.9406041,-3.1163652 6.8764551,-3.1646682 6.8299561,-3.2612732 C 6.7837951,-3.3584982 6.7607161,-3.4922602 6.7607161,-3.6625592 C 6.7607161,-3.8334762 6.7837951,-3.9672382 6.8299561,-4.0638442 C 6.8764551,-4.1604492 6.9406041,-4.2087522 7.0224031,-4.2087532 M 7.5315231,-4.4790632 L 7.5315231,-4.1836722 L 7.7244781,-4.1836722 L 7.7244781,-4.0508402 L 7.5315231,-4.0508402 L 7.5315231,-3.4860682 C 7.5315221,-3.4012282 7.5378011,-3.3467322 7.5503591,-3.3225812 C 7.5632571,-3.2984292 7.5892221,-3.2863532 7.6282551,-3.2863542 L 7.7244781,-3.2863542 L 7.7244781,-3.1433032 L 7.6282551,-3.1433032 C 7.5559591,-3.1433032 7.5060671,-3.1677642 7.4785741,-3.2166862 C 7.4510821,-3.2662282 7.4373361,-3.3560212 7.4373361,-3.4860682 L 7.4373361,-4.0508402 L 7.3686041,-4.0508402 L 7.3686041,-4.1836722 L 7.4373361,-4.1836722 L 7.4373361,-4.4790632 L 7.5315231,-4.4790632 M 7.9551091,-4.3759552 L 7.9551091,-3.8548412 L 8.0844261,-3.8548412 C 8.1322831,-3.8548412 8.1692791,-3.8774442 8.1954141,-3.9226512 C 8.2215481,-3.9678572 8.2346161,-4.0322602 8.2346161,-4.1158622 C 8.2346161,-4.1988432 8.2215481,-4.2629372 8.1954141,-4.3081452 C 8.1692791,-4.3533502 8.1322831,-4.3759542 8.0844261,-4.3759552 L 7.9551091,-4.3759552 M 7.8522671,-4.5301522 L 8.0844261,-4.5301522 C 8.1696181,-4.5301512 8.2339371,-4.4948522 8.2773821,-4.4242582 C 8.3211661,-4.3542792 8.3430581,-4.2514812 8.3430581,-4.1158622 C 8.3430581,-3.9790032 8.3211661,-3.8755862 8.2773821,-3.8056102 C 8.2339371,-3.7356322 8.1696181,-3.7006432 8.0844261,-3.7006432 L 7.9551091,-3.7006432 L 7.9551091,-3.1433032 L 7.8522671,-3.1433032 L 7.8522671,-4.5301522 M 8.6897691,-3.6662742 C 8.6140801,-3.6662742 8.5616401,-3.6504832 8.5324511,-3.6189002 C 8.5032611,-3.5873172 8.4886671,-3.5334412 8.4886671,-3.4572722 C 8.4886671,-3.3965832 8.4995281,-3.3482812 8.5212501,-3.3123632 C 8.5433121,-3.2770652 8.5731801,-3.2594162 8.6108561,-3.2594162 C 8.6627861,-3.2594162 8.7043641,-3.2928562 8.7355901,-3.3597372 C 8.7671551,-3.4272372 8.7829381,-3.5167212 8.7829381,-3.6281902 L 8.7829381,-3.6662742 L 8.6897691,-3.6662742 M 8.8766161,-3.7368712 L 8.8766161,-3.1433032 L 8.7829381,-3.1433032 L 8.7829381,-3.3012162 C 8.7615551,-3.2380512 8.7349111,-3.1912962 8.7030061,-3.1609522 C 8.6711011,-3.1312272 8.6320691,-3.1163652 8.5859091,-3.1163652 C 8.5275291,-3.1163652 8.4810301,-3.1460902 8.4464101,-3.2055402 C 8.4121291,-3.2656082 8.3949891,-3.3458032 8.3949891,-3.4461252 C 8.3949891,-3.5631662 8.4163721,-3.6514122 8.4591381,-3.7108622 C 8.5022431,-3.7703102 8.5663921,-3.8000352 8.6515851,-3.8000362 L 8.7829381,-3.8000362 L 8.7829381,-3.8167562 C 8.7829381,-3.8954022 8.7686821,-3.9560912 8.7401721,-3.9988212 C 8.7120001,-4.0421682 8.6722891,-4.0638432 8.6210381,-4.0638442 C 8.5884541,-4.0638432 8.5567191,-4.0567212 8.5258321,-4.0424792 C 8.4949461,-4.0282352 8.4652471,-4.0068712 8.4367361,-3.9783852 L 8.4367361,-4.1362982 C 8.4710171,-4.1604492 8.5042801,-4.1784082 8.5365241,-4.1901742 C 8.5687681,-4.2025592 8.6001641,-4.2087522 8.6307111,-4.2087532 C 8.7131881,-4.2087522 8.7747921,-4.1697372 8.8155221,-4.0917112 C 8.8562511,-4.0136832 8.8766151,-3.8954022 8.8766161,-3.7368712 M 9.0700821,-4.5886732 L 9.1637601,-4.5886732 L 9.1637601,-3.1433032 L 9.0700821,-3.1433032 L 9.0700821,-4.5886732 M 9.7173101,-3.6686217 C 9.7173091,-3.5800657 9.7293591,-3.5103987 9.7534571,-3.4596187 C 9.7775551,-3.4094577 9.8106481,-3.3843777 9.8527351,-3.3843777 C 9.8944841,-3.3843777 9.9272371,-3.4097677 9.9509961,-3.4605477 C 9.9750941,-3.5113277 9.9871441,-3.5806857 9.9871441,-3.6686217 C 9.9871441,-3.7553187 9.9749251,-3.8240567 9.9504871,-3.8748377 C 9.9260491,-3.9262367 9.8931261,-3.9519357 9.8517171,-3.9519367 C 9.8106481,-3.9519357 9.7778941,-3.9265457 9.7534571,-3.8757667 C 9.7293591,-3.8249857 9.7173091,-3.7559377 9.7173101,-3.6686217 M 9.9947811,-3.3908797 C 9.9744161,-3.3431967 9.9509961,-3.3078987 9.9245221,-3.2849857 C 9.8983871,-3.2626917 9.8678391,-3.2515447 9.8328801,-3.2515447 C 9.7745001,-3.2515447 9.7269831,-3.2899397 9.6903261,-3.3667287 C 9.6540091,-3.4441367 9.6358501,-3.5447677 9.6358501,-3.6686217 C 9.6358501,-3.7924747 9.6541781,-3.8931047 9.6908361,-3.9705147 C 9.7274921,-4.0479217 9.7748401,-4.0866257 9.8328801,-4.0866267 C 9.8678391,-4.0866257 9.8985571,-4.0748597 9.9250311,-4.0513287 C 9.9515051,-4.0284147 9.9747551,-3.9934267 9.9947811,-3.9463627 L 9.9947811,-4.0680487 L 10.067585,-4.0680487 L 10.067585,-3.3843777 C 10.117139,-3.3980017 10.155832,-3.4391827 10.183664,-3.5079217 C 10.211835,-3.5772787 10.22592,-3.6667627 10.225921,-3.7763737 C 10.22592,-3.8426357 10.22049,-3.9048717 10.209629,-3.9630827 C 10.199107,-4.0212937 10.182985,-4.0751697 10.161263,-4.1247117 C 10.125963,-4.2058347 10.082858,-4.2677617 10.031947,-4.3104917 C 9.9813731,-4.3538397 9.9262191,-4.3755137 9.8664821,-4.3755157 C 9.8247341,-4.3755137 9.7846831,-4.3652967 9.7463291,-4.3448617 C 9.7079751,-4.3250437 9.6725071,-4.2953187 9.6399231,-4.2556877 C 9.5866351,-4.1925207 9.5448881,-4.1095387 9.5146801,-4.0067417 C 9.4848111,-3.9045617 9.4698771,-3.7937127 9.4698771,-3.6741947 C 9.4698771,-3.5757307 9.4795511,-3.4834607 9.4988971,-3.3973827 C 9.5185831,-3.3113037 9.5469241,-3.2354437 9.5839201,-3.1698017 C 9.6195581,-3.1053977 9.6607971,-3.0564757 9.7076361,-3.0230357 C 9.7544751,-2.9889757 9.8045381,-2.9719457 9.8578271,-2.9719457 C 9.9016111,-2.9719457 9.9445471,-2.9855697 9.9866351,-3.0128177 C 10.029061,-3.0394457 10.067924,-3.0778407 10.103223,-3.1280017 L 10.149044,-3.0248937 C 10.106617,-2.9648247 10.060287,-2.9189987 10.010055,-2.8874157 C 9.9601601,-2.8552147 9.9094181,-2.8391137 9.8578271,-2.8391127 C 9.7950351,-2.8391137 9.7358071,-2.8595487 9.6801441,-2.9004207 C 9.6244801,-2.9406727 9.5749261,-2.9995037 9.5314811,-3.0769117 C 9.4880361,-3.1543197 9.4549431,-3.2438037 9.4322031,-3.3453637 C 9.4094621,-3.4475427 9.3980911,-3.5571537 9.3980921,-3.6741947 C 9.3980911,-3.7869007 9.4096321,-3.8943437 9.4327121,-3.9965237 C 9.4557921,-4.0987017 9.4887151,-4.1884957 9.5314811,-4.2659047 C 9.5752651,-4.3445507 9.6258371,-4.4046197 9.6831991,-4.4461117 C 9.7405591,-4.4882207 9.8013141,-4.5092757 9.8654631,-4.5092767 C 9.9374201,-4.5092757 10.004114,-4.4823377 10.065549,-4.4284627 C 10.127321,-4.3745847 10.179081,-4.2981057 10.22083,-4.1990237 C 10.246285,-4.1383347 10.265632,-4.0723827 10.27887,-4.0011677 C 10.292445,-3.9299517 10.299233,-3.8562587 10.299235,-3.7800897 C 10.299233,-3.6172217 10.27225,-3.4887247 10.218284,-3.3945957 C 10.164317,-3.3004667 10.089816,-3.2515447 9.9947811,-3.2478297 L 9.9947811,-3.3908797 M 10.84552,-3.7020617 C 10.845519,-3.8259147 10.831434,-3.9219007 10.803263,-3.9900217 C 10.775431,-4.0581397 10.736229,-4.0921997 10.685656,-4.0922007 C 10.635423,-4.0921997 10.596221,-4.0581397 10.56805,-3.9900217 C 10.540218,-3.9219007 10.526302,-3.8259147 10.526302,-3.7020617 C 10.526302,-3.5788277 10.540218,-3.4831507 10.56805,-3.4150317 C 10.596221,-3.3469117 10.635423,-3.3128517 10.685656,-3.3128527 C 10.736229,-3.3128517 10.775431,-3.3469117 10.803263,-3.4150317 C 10.831434,-3.4831507 10.845519,-3.5788277 10.84552,-3.7020617 M 10.939198,-3.2989187 C 10.939197,-3.1218087 10.917645,-2.9902147 10.87454,-2.9041367 C 10.831434,-2.8174387 10.765418,-2.7740907 10.676492,-2.7740897 C 10.643569,-2.7740907 10.612513,-2.7787347 10.583323,-2.7880237 C 10.554134,-2.7966937 10.525793,-2.8103177 10.4983,-2.8288957 L 10.4983,-2.9951687 C 10.525793,-2.9679207 10.552946,-2.9477947 10.57976,-2.9347897 C 10.606573,-2.9217857 10.633896,-2.9152837 10.661728,-2.9152827 C 10.723161,-2.9152837 10.769152,-2.9446987 10.799699,-3.0035287 C 10.830246,-3.0617397 10.845519,-3.1499857 10.84552,-3.2682657 L 10.84552,-3.3527957 C 10.826173,-3.2914877 10.801396,-3.2456617 10.771189,-3.2153177 C 10.74098,-3.1849737 10.704833,-3.1698017 10.662746,-3.1698017 C 10.592827,-3.1698017 10.536484,-3.2184147 10.493718,-3.3156387 C 10.450952,-3.4128637 10.429569,-3.5416717 10.429569,-3.7020617 C 10.429569,-3.8630707 10.450952,-3.9921877 10.493718,-4.0894137 C 10.536484,-4.1866377 10.592827,-4.2352507 10.662746,-4.2352517 C 10.704833,-4.2352507 10.74098,-4.2200787 10.771189,-4.1897347 C 10.801396,-4.1593897 10.826173,-4.1135637 10.84552,-4.0522577 L 10.84552,-4.2101707 L 10.939198,-4.2101707 L 10.939198,-3.2989187 M 11.576107,-4.0104577 C 11.599526,-4.0872457 11.627527,-4.1439077 11.660111,-4.1804457 C 11.692695,-4.2169817 11.731048,-4.2352507 11.775172,-4.2352517 C 11.834569,-4.2352507 11.88039,-4.1971647 11.912635,-4.1209957 C 11.944878,-4.0454447 11.961,-3.9376927 11.961001,-3.7977387 L 11.961001,-3.1698017 L 11.866814,-3.1698017 L 11.866814,-3.7921657 C 11.866813,-3.8918667 11.85714,-3.9658687 11.837794,-4.0141727 C 11.818447,-4.0624747 11.788918,-4.0866257 11.749207,-4.0866267 C 11.700671,-4.0866257 11.662317,-4.0572107 11.634146,-3.9983817 C 11.605975,-3.9395497 11.591889,-3.8593557 11.591889,-3.7577967 L 11.591889,-3.1698017 L 11.497702,-3.1698017 L 11.497702,-3.7921657 C 11.497702,-3.8924857 11.488029,-3.9664887 11.468682,-4.0141727 C 11.449336,-4.0624747 11.419467,-4.0866257 11.379077,-4.0866267 C 11.33122,-4.0866257 11.293206,-4.0569017 11.265035,-3.9974527 C 11.236863,-3.9386217 11.222777,-3.8587357 11.222778,-3.7577967 L 11.222778,-3.1698017 L 11.128591,-3.1698017 L 11.128591,-4.2101707 L 11.222778,-4.2101707 L 11.222778,-4.0485427 C 11.24416,-4.1123257 11.269786,-4.1593897 11.299655,-4.1897347 C 11.329523,-4.2200787 11.364991,-4.2352507 11.406061,-4.2352517 C 11.447469,-4.2352507 11.482598,-4.2160527 11.511449,-4.1776597 C 11.540638,-4.1392637 11.56219,-4.0835297 11.576107,-4.0104577 M 12.407499,-3.6927727 C 12.33181,-3.6927727 12.27937,-3.6769817 12.250181,-3.6453987 C 12.220992,-3.6138157 12.206397,-3.5599397 12.206397,-3.4837707 C 12.206397,-3.4230817 12.217258,-3.3747797 12.238981,-3.3388617 C 12.261042,-3.3035637 12.290911,-3.2859147 12.328586,-3.2859147 C 12.380516,-3.2859147 12.422094,-3.3193547 12.45332,-3.3862357 C 12.484885,-3.4537357 12.500668,-3.5432197 12.500668,-3.6546887 L 12.500668,-3.6927727 L 12.407499,-3.6927727 M 12.594346,-3.7633697 L 12.594346,-3.1698017 L 12.500668,-3.1698017 L 12.500668,-3.3277147 C 12.479285,-3.2645497 12.452641,-3.2177947 12.420736,-3.1874507 C 12.388831,-3.1577257 12.349799,-3.1428637 12.303639,-3.1428637 C 12.24526,-3.1428637 12.19876,-3.1725887 12.16414,-3.2320387 C 12.129859,-3.2921067 12.112719,-3.3723017 12.112719,-3.4726237 C 12.112719,-3.5896647 12.134102,-3.6779107 12.176868,-3.7373607 C 12.219973,-3.7968087 12.284122,-3.8265337 12.369315,-3.8265347 L 12.500668,-3.8265347 L 12.500668,-3.8432547 C 12.500668,-3.9219007 12.486412,-3.9825897 12.457902,-4.0253197 C 12.429731,-4.0686667 12.390019,-4.0903417 12.338768,-4.0903427 C 12.306184,-4.0903417 12.274449,-4.0832197 12.243563,-4.0689777 C 12.212676,-4.0547337 12.182977,-4.0333697 12.154467,-4.0048837 L 12.154467,-4.1627967 C 12.188747,-4.1869477 12.22201,-4.2049067 12.254254,-4.2166727 C 12.286498,-4.2290577 12.317894,-4.2352507 12.348441,-4.2352517 C 12.430918,-4.2352507 12.492522,-4.1962357 12.533252,-4.1182097 C 12.573981,-4.0401817 12.594346,-3.9219007 12.594346,-3.7633697 M 12.787812,-4.2101707 L 12.88149,-4.2101707 L 12.88149,-3.1698017 L 12.787812,-3.1698017 L 12.787812,-4.2101707 M 12.787812,-4.6151717 L 12.88149,-4.6151717 L 12.88149,-4.3987377 L 12.787812,-4.3987377 L 12.787812,-4.6151717 M 13.076992,-4.6151717 L 13.17067,-4.6151717 L 13.17067,-3.1698017 L 13.076992,-3.1698017 L 13.076992,-4.6151717 M 13.379409,-3.4057427 L 13.486833,-3.4057427 L 13.486833,-3.1698017 L 13.379409,-3.1698017 L 13.379409,-3.4057427 M 14.108468,-4.1702277 L 14.108468,-4.0104577 C 14.081994,-4.0370847 14.05535,-4.0569017 14.028537,-4.0699067 C 14.002062,-4.0835297 13.975248,-4.0903417 13.948096,-4.0903427 C 13.88734,-4.0903417 13.840162,-4.0550437 13.80656,-3.9844477 C 13.772958,-3.9144697 13.756157,-3.8160067 13.756157,-3.6890577 C 13.756157,-3.5621067 13.772958,-3.4633337 13.80656,-3.3927377 C 13.840162,-3.3227607 13.88734,-3.2877717 13.948096,-3.2877717 C 13.975248,-3.2877717 14.002062,-3.2942747 14.028537,-3.3072787 C 14.05535,-3.3209027 14.081994,-3.3410287 14.108468,-3.3676577 L 14.108468,-3.2097447 C 14.082333,-3.1874507 14.05518,-3.1707307 14.027009,-3.1595837 C 13.999177,-3.1484377 13.969478,-3.1428637 13.937913,-3.1428637 C 13.852041,-3.1428637 13.783819,-3.1920947 13.733247,-3.2905587 C 13.682674,-3.3890217 13.657388,-3.5218547 13.657388,-3.6890577 C 13.657388,-3.8587357 13.682844,-3.9921877 13.733756,-4.0894137 C 13.785007,-4.1866377 13.855096,-4.2352507 13.944023,-4.2352517 C 13.972872,-4.2352507 14.001043,-4.2296767 14.028537,-4.2185307 C 14.056029,-4.2080027 14.082672,-4.1919017 14.108468,-4.1702277 M 14.493363,-4.0903427 C 14.443129,-4.0903417 14.403418,-4.0544247 14.374229,-3.9825907 C 14.345039,-3.9113737 14.330444,-3.8135297 14.330445,-3.6890577 C 14.330444,-3.5645847 14.344869,-3.4664307 14.37372,-3.3945957 C 14.402909,-3.3233797 14.44279,-3.2877717 14.493363,-3.2877717 C 14.543256,-3.2877717 14.582798,-3.3236897 14.611988,-3.3955247 C 14.641177,-3.4673597 14.655772,-3.5652037 14.655772,-3.6890577 C 14.655772,-3.8122907 14.641177,-3.9098257 14.611988,-3.9816617 C 14.582798,-4.0541147 14.543256,-4.0903417 14.493363,-4.0903427 M 14.493363,-4.2352517 C 14.574821,-4.2352507 14.638801,-4.1869477 14.685301,-4.0903427 C 14.7318,-3.9937367 14.75505,-3.8599747 14.75505,-3.6890577 C 14.75505,-3.5187587 14.7318,-3.3849967 14.685301,-3.2877717 C 14.638801,-3.1911667 14.574821,-3.1428637 14.493363,-3.1428637 C 14.411564,-3.1428637 14.347415,-3.1911667 14.300915,-3.2877717 C 14.254755,-3.3849967 14.231675,-3.5187587 14.231675,-3.6890577 C 14.231675,-3.8599747 14.254755,-3.9937367 14.300915,-4.0903427 C 14.347415,-4.1869477 14.411564,-4.2352507 14.493363,-4.2352517 M 15.353775,-4.0104577 C 15.377194,-4.0872457 15.405195,-4.1439077 15.43778,-4.1804457 C 15.470363,-4.2169817 15.508716,-4.2352507 15.552841,-4.2352517 C 15.612237,-4.2352507 15.658058,-4.1971647 15.690303,-4.1209957 C 15.722547,-4.0454447 15.738669,-3.9376927 15.738669,-3.7977387 L 15.738669,-3.1698017 L 15.644482,-3.1698017 L 15.644482,-3.7921657 C 15.644482,-3.8918667 15.634808,-3.9658687 15.615463,-4.0141727 C 15.596115,-4.0624747 15.566586,-4.0866257 15.526876,-4.0866267 C 15.478339,-4.0866257 15.439985,-4.0572107 15.411815,-3.9983817 C 15.383643,-3.9395497 15.369557,-3.8593557 15.369558,-3.7577967 L 15.369558,-3.1698017 L 15.275371,-3.1698017 L 15.275371,-3.7921657 C 15.27537,-3.8924857 15.265697,-3.9664887 15.246351,-4.0141727 C 15.227004,-4.0624747 15.197136,-4.0866257 15.156746,-4.0866267 C 15.108888,-4.0866257 15.070874,-4.0569017 15.042703,-3.9974527 C 15.014531,-3.9386217 15.000446,-3.8587357 15.000446,-3.7577967 L 15.000446,-3.1698017 L 14.906259,-3.1698017 L 14.906259,-4.2101707 L 15.000446,-4.2101707 L 15.000446,-4.0485427 C 15.021829,-4.1123257 15.047455,-4.1593897 15.077323,-4.1897347 C 15.107191,-4.2200787 15.14266,-4.2352507 15.183729,-4.2352517 C 15.225137,-4.2352507 15.260266,-4.2160527 15.289117,-4.1776597 C 15.318306,-4.1392637 15.339859,-4.0835297 15.353775,-4.0104577"
         style="font-size:4px;font-style:normal;font-weight:normal;fill:#d40000;fill-opacity:1;stroke:none;stroke-width:1px;stroke-linecap:butt;stroke-linejoin:miter;stroke-opacity:1;font-family:Bitstream Vera Sans"
         sodipodi:nodetypes="csssccccccssscccsssssssccsssssssccsssssssccssssssscccccccsccccsccccccccccsssccccsssccccccssssscccccccssssscccsssccssscccccccsssssssccsssssssccccsssssssssssssssccssssssssssssssscccsssssssccsssccsssccssssssscccccsssccccsssccccsssccccccsssccssssscccccccssssscccsssccssscccccccccccccccccccccccsssssssccsssssssccsssssssccsssssssccsssccccsssccccsssccccccsssc" />
    </g>
  </g>
</svg>
