<?xml version="1.0" encoding="UTF-8" standalone="no"?>
<svg
   xmlns:dc="http://purl.org/dc/elements/1.1/"
   xmlns:cc="http://creativecommons.org/ns#"
   xmlns:rdf="http://www.w3.org/1999/02/22-rdf-syntax-ns#"
   xmlns:svg="http://www.w3.org/2000/svg"
   xmlns="http://www.w3.org/2000/svg"
   xmlns:xlink="http://www.w3.org/1999/xlink"
   xmlns:sodipodi="http://sodipodi.sourceforge.net/DTD/sodipodi-0.dtd"
   xmlns:inkscape="http://www.inkscape.org/namespaces/inkscape"
   id="svg2"
   inkscape:version="1.0 (4035a4f, 2020-05-01)"
   width="256"
   height="256"
   viewBox="0 0 256 256"
   sodipodi:docname="folder-new.svg"
   version="1.1">
  <metadata
     id="metadata8">
    <rdf:RDF>
      <cc:Work>
        <dc:format>image/svg+xml</dc:format>
        <dc:type
           rdf:resource="http://purl.org/dc/dcmitype/StillImage" />
        <dc:title />
      </cc:Work>
    </rdf:RDF>
  </metadata>
  <defs
     id="defs6">
    <linearGradient
       inkscape:collect="always"
       id="linearGradient858">
      <stop
         style="stop-color:#ffffff;stop-opacity:1;"
         offset="0"
         id="stop854" />
      <stop
         style="stop-color:#ffffff;stop-opacity:0;"
         offset="1"
         id="stop856" />
    </linearGradient>
    <linearGradient
       inkscape:collect="always"
       id="linearGradient855">
      <stop
         style="stop-color:#000000;stop-opacity:1"
         offset="0"
         id="stop851" />
      <stop
         style="stop-color:#000000;stop-opacity:0"
         offset="1"
         id="stop853" />
    </linearGradient>
    <linearGradient
       inkscape:collect="always"
       id="linearGradient4223">
      <stop
         id="stop4225"
         stop-color="#bebebe"
         stop-opacity="0.803" />
      <stop
         offset="1"
         id="stop4227"
         stop-color="#9f9f9f"
         stop-opacity="0.732" />
    </linearGradient>
    <linearGradient
       inkscape:collect="always"
       id="linearGradient4211">
      <stop
         id="stop4213"
         stop-color="#9f9f9f"
         stop-opacity="0.634" />
      <stop
         offset="1"
         id="stop4215"
         stop-color="#696969"
         stop-opacity="0" />
    </linearGradient>
    <linearGradient
       inkscape:collect="always"
       id="linearGradient4171">
      <stop
         id="stop4173"
         stop-color="#848484"
         stop-opacity="0.623" />
      <stop
         offset="1"
         id="stop4175"
         stop-color="#cdcdcd"
         stop-opacity="0.698" />
    </linearGradient>
    <linearGradient
       inkscape:collect="always"
       id="linearGradient4142">
      <stop
         id="stop4144"
         stop-color="#909090"
         stop-opacity="0.519" />
      <stop
         offset="1"
         id="stop4146"
         stop-color="#696969"
         stop-opacity="0" />
    </linearGradient>
    <linearGradient
       inkscape:collect="always"
       xlink:href="#linearGradient4142"
       id="linearGradient4148"
       x1="165.74"
       y1="63.25"
       x2="278.75"
       y2="324.36"
       gradientUnits="userSpaceOnUse"
       gradientTransform="matrix(0.77077081,0,0,0.77077081,-80.822015,-34.561922)" />
    <linearGradient
       inkscape:collect="always"
       xlink:href="#linearGradient4171"
       id="linearGradient4177"
       x1="379.78"
       y1="106.85"
       x2="387.93"
       y2="114.16"
       gradientUnits="userSpaceOnUse"
       spreadMethod="reflect"
       gradientTransform="matrix(0.77077081,0,0,0.77077081,-80.822015,-34.561922)" />
    <linearGradient
       inkscape:collect="always"
       xlink:href="#linearGradient4171"
       id="linearGradient4207"
       gradientUnits="userSpaceOnUse"
       spreadMethod="reflect"
       x1="381.27"
       y1="108.46"
       x2="387.93"
       y2="114.16"
       gradientTransform="matrix(0.77077081,0,0,0.77077081,-60.158797,-54.897152)" />
    <linearGradient
       inkscape:collect="always"
       xlink:href="#linearGradient4211"
       id="linearGradient4217"
       x1="284.7"
       y1="61.711"
       x2="281.1"
       y2="125.1"
       gradientUnits="userSpaceOnUse"
       gradientTransform="matrix(0.77077081,0,0,0.77077081,-80.822015,-34.561922)" />
    <linearGradient
       inkscape:collect="always"
       xlink:href="#linearGradient4223"
       id="linearGradient4229"
       x1="259.02"
       y1="93.26"
       x2="255.7"
       y2="103.09"
       gradientUnits="userSpaceOnUse"
       gradientTransform="matrix(0.77077081,0,0,0.77077081,-80.822015,-34.561922)" />
    <linearGradient
       inkscape:collect="always"
       xlink:href="#linearGradient4223"
       id="linearGradient4237"
       x1="262.84"
       y1="102.54"
       x2="258.99"
       y2="117.29"
       gradientUnits="userSpaceOnUse"
       gradientTransform="matrix(0.77077081,0,0,0.77077081,-80.822015,-34.561922)" />
    <filter
       inkscape:collect="always"
       style="color-interpolation-filters:sRGB"
       id="filter890"
       x="-0.0093866307"
       width="1.0187733"
       y="-0.016630034"
       height="1.0332601">
      <feGaussianBlur
         inkscape:collect="always"
         stdDeviation="0.91238843"
         id="feGaussianBlur892" />
    </filter>
    <linearGradient
       inkscape:collect="always"
       xlink:href="#linearGradient855"
       id="linearGradient857"
       x1="111.98162"
       y1="193.77997"
       x2="120.79942"
       y2="166.73978"
       gradientUnits="userSpaceOnUse" />
    <linearGradient
       inkscape:collect="always"
       xlink:href="#linearGradient858"
       id="linearGradient860"
       x1="221.87906"
       y1="54.649479"
       x2="185.756"
       y2="86.098389"
       gradientUnits="userSpaceOnUse" />
    <linearGradient
       inkscape:collect="always"
       xlink:href="#linearGradient858"
       id="linearGradient864"
       gradientUnits="userSpaceOnUse"
       x1="221.87906"
       y1="54.649479"
       x2="185.756"
       y2="86.098389"
       gradientTransform="translate(19.986222,-19.692307)" />
    <linearGradient
       id="linearGradient3617">
      <stop
         stop-opacity="0.503"
         stop-color="#000000"
         id="stop3619" />
      <stop
         stop-opacity="1"
         stop-color="#d1d1d1"
         id="stop3621"
         offset="1" />
    </linearGradient>
    <linearGradient
       id="linearGradient3532">
      <stop
         stop-opacity="1"
         stop-color="#a1a1a1"
         id="stop3534" />
      <stop
         stop-opacity="1"
         stop-color="#2a2a2a"
         offset="1"
         id="stop3536" />
    </linearGradient>
    <linearGradient
       id="linearGradient3518">
      <stop
         stop-opacity="0.65"
         stop-color="#000000"
         id="stop3520" />
      <stop
         stop-opacity="1"
         stop-color="#a1a1a1"
         id="stop3522"
         offset="1" />
    </linearGradient>
    <linearGradient
       id="linearGradient3501">
      <stop
         stop-opacity="0.749"
         stop-color="#b1b1b1"
         id="stop3503" />
      <stop
         stop-opacity="0.871"
         stop-color="#000000"
         offset="1"
         id="stop3505" />
    </linearGradient>
    <linearGradient
       id="linearGradient3493">
      <stop
         stop-opacity="0"
         stop-color="#8d8d8d"
         id="stop3495" />
      <stop
         stop-opacity="0.662"
         stop-color="#000000"
         offset="1"
         id="stop3497" />
    </linearGradient>
    <linearGradient
       id="linearGradient3483">
      <stop
         stop-opacity="0"
         stop-color="#656565"
         id="stop3485" />
      <stop
         stop-opacity="1"
         stop-color="#d3d3d3"
         id="stop3487"
         offset="1" />
    </linearGradient>
    <linearGradient
       id="linearGradient3475">
      <stop
         stop-opacity="0.715"
         stop-color="#bebebe"
         id="stop3477" />
      <stop
         stop-opacity="0.391"
         stop-color="#000000"
         offset="1"
         id="stop3479" />
    </linearGradient>
    <linearGradient
       id="linearGradient3578">
      <stop
         stop-opacity="1"
         stop-color="#000000"
         id="stop3580" />
      <stop
         stop-opacity="1"
         stop-color="#fffcfc"
         id="stop3582"
         offset="1" />
    </linearGradient>
  </defs>
  <sodipodi:namedview
     pagecolor="#ff0000"
     bordercolor="#666666"
     borderopacity="1"
     objecttolerance="10"
     gridtolerance="10"
     guidetolerance="10"
     inkscape:pageopacity="0"
     inkscape:pageshadow="2"
     inkscape:window-width="1920"
     inkscape:window-height="1056"
     id="namedview4"
     showgrid="false"
     inkscape:snap-global="false"
     inkscape:zoom="3.4375"
     inkscape:cx="128"
     inkscape:cy="128"
     inkscape:window-x="0"
     inkscape:window-y="0"
     inkscape:window-maximized="1"
     inkscape:current-layer="svg2"
     inkscape:document-rotation="0" />
  <g
     id="g888"
     style="fill:#000000;fill-opacity:0.12757201;filter:url(#filter890)"
     transform="matrix(1.027092,0,0,0.87914716,269.10213,48.787807)">
    <path
       transform="matrix(0.77077081,0,0,0.77077081,-337.33598,-64.706486)"
       sodipodi:nodetypes="ccccccc"
       inkscape:connector-curvature="0"
       id="path4150"
       d="m 177.77778,215.83334 -80.555558,82.4074 255.555558,88.42593 38.75029,-40.87068 c 4.25788,-4.69448 8.46018,-13.4447 8.35283,-19.27513 L 396.29629,282.5 Z"
       style="fill:#000000;fill-opacity:0.12757201;fill-rule:evenodd;stroke:none;stroke-width:1;stroke-linecap:butt;stroke-linejoin:miter;stroke-opacity:1" />
    <path
       inkscape:connector-curvature="0"
       id="path866"
       d="m -258.76367,164.31055 c 64.25456,22.23242 128.50911,44.46484 192.76367,66.69726 10.704605,-12.11221 23.269675,-22.6975 32.626953,-35.88281 4.915466,-9.97175 -0.0014,-21.20106 0.334678,-31.66405 1.365667,-7.80464 -3.023601,-10.97488 -10.290126,-11.82807 -52.133991,-15.90432 -104.267985,-31.80864 -156.401975,-47.71296 -19.67773,20.13021 -39.35547,40.26042 -59.0332,60.39063 z"
       style="fill:#000000;fill-opacity:0.12757201;fill-rule:evenodd;stroke:none;stroke-width:0.77077079;stroke-linecap:butt;stroke-linejoin:miter;stroke-opacity:1" />
    <path
       inkscape:connector-curvature="0"
       id="path872"
       d="m -255.12695,163.45117 c 62.83854,21.74284 125.67708,43.48568 188.515622,65.22852 10.661699,-12.45649 24.482587,-22.55662 32.46289,-37.08399 2.693429,-10.92369 -1.823197,-22.00405 -0.960937,-33.02148 -3.239054,-6.39155 -11.866064,-4.61259 -17.48133,-7.67536 -48.853875,-14.90314 -97.707755,-29.80627 -146.561635,-44.70941 -18.65821,19.08724 -37.31641,38.17448 -55.97461,57.26172 z"
       style="fill:#000000;fill-opacity:0.12757201;fill-rule:evenodd;stroke:none;stroke-width:0.77077079;stroke-linecap:butt;stroke-linejoin:miter;stroke-opacity:1" />
    <path
       inkscape:connector-curvature="0"
       id="path878"
       d="m -251.49023,162.5918 c 61.41731,21.2513 122.83463,42.5026 184.251949,63.7539 10.44283,-12.37841 24.919813,-21.97631 31.529297,-37.15625 1.394259,-10.18414 -1.706975,-20.39676 -1.751954,-30.52929 -5.3153,-5.0699 -13.440876,-3.58672 -19.715715,-7.06986 -47.132517,-14.3771 -94.265047,-28.75421 -141.397567,-43.13132 -17.63867,18.04428 -35.27734,36.08855 -52.91601,54.13282 z"
       style="fill:#000000;fill-opacity:0.12757201;fill-rule:evenodd;stroke:none;stroke-width:0.77077079;stroke-linecap:butt;stroke-linejoin:miter;stroke-opacity:1" />
  </g>
  <path
     style="fill:#000000;fill-opacity:0.73000004;fill-rule:evenodd;stroke:none;stroke-width:0.77077079;stroke-linecap:butt;stroke-linejoin:miter;stroke-opacity:1"
     d="M 31.923711,151.40704 27.003904,17.342113 c -0.04147,-4.96221 1.926333,-7.258395 6.149764,-6.149768 L 137.28972,39.891259 c 6.26366,1.792607 13.72694,-0.97619 14.75945,-11.889551 0.72147,-7.625757 3.60011,-13.61923 14.34945,-11.479565 l 66.0075,15.169425 c 4.94172,1.164855 6.02562,3.428063 5.73978,9.019659 l -1.63993,177.933263 -4.09985,4.50983 -196.443848,-65.00808 z"
     id="path4198"
     inkscape:connector-curvature="0"
     sodipodi:nodetypes="ccccsccccccc" />
  <path
     style="fill:url(#linearGradient4217);fill-opacity:1;fill-rule:evenodd;stroke:none;stroke-width:0.77077079;stroke-linecap:butt;stroke-linejoin:miter;stroke-opacity:1"
     sodipodi:nodetypes="ccccsccccccc"
     inkscape:connector-curvature="0"
     id="path4209"
     d="M 31.923711,151.40704 27.003904,17.342113 c -0.04147,-4.96221 1.926333,-7.258395 6.149764,-6.149768 L 137.28972,39.891259 c 6.26366,1.792607 13.72694,-0.97619 14.75945,-11.889551 0.72147,-7.625757 3.60011,-13.61923 14.34945,-11.479565 l 66.0075,15.169425 c 4.94172,1.164855 6.02562,3.428063 5.73978,9.019659 l -1.63993,177.933263 -4.09985,4.50983 -196.443848,-65.00808 z" />
  <path
     style="fill:url(#linearGradient4229);fill-opacity:1;fill-rule:evenodd;stroke:#cecece;stroke-width:0.77077079;stroke-linecap:butt;stroke-linejoin:miter;stroke-opacity:0.70499998"
     inkscape:connector-curvature="0"
     id="path4221"
     d="M 29.107592,14.969579 235.06766,65.511931 235.91003,215.45423 37.952503,143.85257 Z"
     sodipodi:nodetypes="ccccc" />
  <path
     style="fill:url(#linearGradient4237);fill-opacity:1;fill-rule:evenodd;stroke:#cecece;stroke-width:0.77077079;stroke-linecap:butt;stroke-linejoin:miter;stroke-opacity:0.70499998"
     d="M 24.474542,21.708559 230.43461,72.250911 233.8041,217.98135 33.319453,150.59155 Z"
     id="path4219"
     inkscape:connector-curvature="0" />
  <path
     style="fill:#000000;fill-opacity:0.76999996;fill-rule:evenodd;stroke:none;stroke-width:0.77077079;stroke-linecap:butt;stroke-linejoin:miter;stroke-opacity:1"
     d="M 8.7444046,36.877113 C 9.6167788,33.377352 12.316797,29.913809 16.981856,31.061446 L 120.43481,60.785279 c 4.99573,1.261166 12.61202,0.256235 16.05773,-8.564119 3.08985,-7.909442 8.3813,-14.47471 19.6261,-12.48934 l 52.81208,10.705152 c 9.44452,2.53589 9.22385,9.003112 9.99147,14.273527 l 9.63463,158.436221 c 0.50082,5.73672 -4.43247,10.18422 -9.99147,7.85044 L 30.868387,167.83678 c -3.793857,-1.20188 -6.890645,-2.38715 -7.136768,-7.85044 z"
     id="path4138"
     inkscape:connector-curvature="0"
     sodipodi:nodetypes="cccscccccccc" />
  <path
     style="fill:url(#linearGradient4148);fill-opacity:1;fill-rule:evenodd;stroke:none;stroke-width:0.77077079;stroke-linecap:butt;stroke-linejoin:miter;stroke-opacity:1"
     sodipodi:nodetypes="cccsccccccsc"
     inkscape:connector-curvature="0"
     id="path4140"
     d="M 8.7444046,36.877113 C 9.6167788,33.377352 12.316797,29.913809 16.981856,31.061446 L 120.43481,60.785279 c 4.99573,1.261166 12.61202,0.256235 16.05773,-8.564119 3.08985,-7.909442 8.3813,-14.47471 19.6261,-12.48934 l 52.81208,10.705152 c 9.44452,2.53589 9.22385,9.003112 9.99147,14.273527 l 9.63463,158.436221 c 0.50082,5.73672 -4.43247,10.18422 -9.99147,7.85044 L 31.136761,168.85067 c -4.722273,-3.4223 -8.128602,-7.01445 -8.632556,-13.84742 C 20.224751,124.09697 11.401175,65.991481 8.7444046,36.877113 Z" />
  <path
     style="fill:#848484;fill-opacity:1;fill-rule:evenodd;stroke:none;stroke-width:0.77077079;stroke-linecap:butt;stroke-linejoin:miter;stroke-opacity:1"
     inkscape:connector-curvature="0"
     d="m 19.607017,26.913071 c -2.88017,-0.04575 -4.833658,1.830128 -5.905731,4.126334 0.959671,-0.255062 2.049634,-0.280169 3.280285,0.02258 L 120.43498,60.784832 c 4.23816,1.069922 10.36086,0.506959 14.22463,-5.073237 -3.31914,1.838929 -7.06507,1.875224 -9.94324,1.148634 L 21.264475,27.135873 c -0.583135,-0.143455 -1.135469,-0.21451 -1.657458,-0.222802 z m 136.847943,8.535685 c -5.47778,0.02215 -9.24401,2.429575 -11.95748,5.964441 2.94992,-1.786966 6.72033,-2.546938 11.62177,-1.681544 l 52.81135,10.70498 c 9.44453,2.53589 9.2238,9.003905 9.99142,14.274321 l 9.63464,158.435546 c 0.13511,1.54767 -0.13551,2.99461 -0.69701,4.24677 3.15723,-0.99293 5.31942,-4.2823 4.9799,-8.17137 L 223.20492,60.784832 C 222.4373,55.514417 222.65802,49.047919 213.2135,46.51203 L 160.40065,35.807044 c -1.40561,-0.248171 -2.7188,-0.363249 -3.94569,-0.358288 z"
     id="path4164" />
  <path
     style="fill:url(#linearGradient4177);fill-opacity:1;fill-rule:evenodd;stroke:none;stroke-width:0.77077079;stroke-linecap:butt;stroke-linejoin:miter;stroke-opacity:1"
     id="path4169"
     d="m 208.9306,50.436633 c 9.44453,2.53589 9.2238,9.003905 9.99142,14.274321 1.68339,-1.586463 2.41577,-2.091371 4.2829,-3.926122 -0.76762,-5.270415 -0.5469,-11.736913 -9.99142,-14.272802 -1.84816,1.763315 -2.30646,2.157202 -4.2829,3.924603 z"
     inkscape:connector-curvature="0"
     sodipodi:nodetypes="ccccc" />
  <path
     style="fill:#858585;fill-opacity:1;fill-rule:evenodd;stroke:none;stroke-width:0.77077079;stroke-linecap:butt;stroke-linejoin:miter;stroke-opacity:1"
     inkscape:connector-curvature="0"
     d="m 36.261385,7.3156224 c -2.060871,0.08655 -3.297411,1.389248 -3.777077,3.7289046 0.217349,0.04036 0.439123,0.08695 0.669908,0.14753 L 137.28957,39.891226 c 4.17106,1.193724 8.87183,0.36004 11.85361,-3.549761 -2.13645,0.618155 -4.44087,0.560862 -6.60575,-0.05871 L 38.402078,7.5850914 C 37.610188,7.3772234 36.8963,7.2889584 36.261385,7.3156224 Z M 167.97287,12.480689 c -4.16112,-0.09755 -6.73394,1.427983 -8.33547,3.880952 1.80879,-0.399933 4.02936,-0.382617 6.76081,0.161079 l 66.00778,15.168528 c 4.94171,1.164855 6.02598,3.428831 5.74014,9.020428 l -1.6409,177.932144 -0.36582,0.40194 1.51445,0.5013 4.09924,-4.51021 1.64089,-177.933646 c 0.28584,-5.591596 -0.79841,-7.854067 -5.74013,-9.018922 L 171.64607,12.914248 c -1.34366,-0.267458 -2.56433,-0.407564 -3.6732,-0.433559 z"
     id="path4200" />
  <path
     style="fill:url(#linearGradient4207);fill-opacity:1;fill-rule:evenodd;stroke:none;stroke-width:0.77077079;stroke-linecap:butt;stroke-linejoin:miter;stroke-opacity:1"
     sodipodi:nodetypes="ccccc"
     inkscape:connector-curvature="0"
     d="m 229.89414,31.062402 c 9.55917,2.210105 8.25999,3.841895 8.2496,14.234276 1.6834,-1.586462 3.27666,-2.892201 5.14379,-4.726951 0.37357,-9.354662 0.77448,-11.556725 -9.17056,-13.291783 -1.84817,1.763316 -2.24639,2.017057 -4.22283,3.784458 z"
     id="path4205" />
  <path
     sodipodi:nodetypes="cccccc"
     inkscape:connector-curvature="0"
     id="path858"
     d="m 225.72675,196.33524 2.0574,24.39495 c 0.0295,8.34567 -2.0873,11.73805 -14.10792,7.34788 L 31.742824,167.82549 c -6.229286,-1.47576 -8.206505,-5.92013 -8.229621,-11.16877 l -2.057406,-24.10103"
     style="fill:none;fill-opacity:1;stroke:url(#linearGradient857);stroke-width:2.1;stroke-linecap:butt;stroke-linejoin:miter;stroke-miterlimit:4;stroke-dasharray:none;stroke-opacity:1" />
  <path
     d="m 156.11864,39.73182 52.81208,10.705152 c 9.44452,2.53589 9.22385,9.003112 9.99147,14.273527 l 4.07025,66.933111"
     id="path851"
     inkscape:connector-curvature="0"
     sodipodi:nodetypes="cccc"
     style="fill:none;fill-opacity:1;fill-rule:evenodd;stroke:url(#linearGradient860);stroke-width:1;stroke-linecap:butt;stroke-linejoin:miter;stroke-opacity:1;stroke-miterlimit:4;stroke-dasharray:none" />
  <path
     style="fill:none;fill-opacity:1;fill-rule:evenodd;stroke:url(#linearGradient864);stroke-width:1;stroke-linecap:butt;stroke-linejoin:miter;stroke-miterlimit:4;stroke-dasharray:none;stroke-opacity:1"
     sodipodi:nodetypes="cccc"
     inkscape:connector-curvature="0"
     id="path862"
     d="m 176.39878,18.569938 52.51816,12.174727 c 11.79584,2.53589 9.22385,9.003112 9.99147,14.273527 l -2.98371,67.814858" />
  <g
     id="g3484"
     transform="matrix(-0.64212208,0,0,0.72811428,190.21045,63.122655)">
    <g
       stroke-miterlimit="4"
       stroke-width="0.2"
       stroke-linecap="round"
       fill-opacity="1"
       stroke-linejoin="round"
       stroke="#d8d9f2"
       fill="#3f4dd1"
       stroke-opacity="0.62"
       transform="matrix(1.2443962,0,0,1.2443962,252.59559,-30.281301)"
       id="g3800">
      <path
         fill-opacity="1"
         fill="#ede88b"
         inkscape:connector-curvature="0"
         id="path3802"
         d="m -145.11658,51.38801 38.68229,30.619241 9.961947,0.871557 -38.682287,-30.619241 z" />
      <path
         fill-opacity="1"
         fill="#ede88b"
         inkscape:connector-curvature="0"
         id="path3806"
         d="m -74.48598,36.504425 1.84203,51.777256 9.961947,0.871557 -1.84203,-51.777256 z" />
      <path
         fill-opacity="1"
         fill="#ede88b"
         inkscape:connector-curvature="0"
         id="path3810"
         d="m -20.24374,74.575279 -36.07726,42.604871 9.961947,0.87156 36.07726,-42.604874 z" />
      <path
         fill-opacity="1"
         fill="#ede88b"
         inkscape:connector-curvature="0"
         id="path3812"
         d="m -56.321,117.18015 42.15677,26.11904 9.961947,0.87156 -42.15677,-26.11904 z" />
      <path
         fill-opacity="1"
         fill="#ede88b"
         inkscape:connector-curvature="0"
         id="path3814"
         d="m -14.16423,143.29919 -52.86299,8.47511 9.961947,0.87156 52.86299,-8.47511 z" />
      <path
         sodipodi:nodetypes="ccccc"
         fill-opacity="1"
         fill="#ede88b"
         inkscape:connector-curvature="0"
         id="path3816"
         d="m -79.601366,147.10656 6.686193,47.92746 23.06835,8.25616 -7.21845,-50.64432 z" />
      <path
         style="fill:#8f8f12;fill-opacity:1"
         sodipodi:nodetypes="ccccc"
         fill-opacity="1"
         fill="#6c6c15"
         inkscape:connector-curvature="0"
         id="path3818"
         d="m -74.203695,195.85517 -29.748355,-23.09259 15.422947,-0.0917 38.68228,30.61925 z" />
      <path
         sodipodi:nodetypes="ccccc"
         fill-opacity="1"
         fill="#ede88b"
         inkscape:connector-curvature="0"
         id="path3820"
         d="m -98.49105,171.79937 -41.77812,34.90754 19.79175,11.46685 31.948317,-45.50283 z" />
      <path
         sodipodi:nodetypes="ccccc"
         fill-opacity="1"
         fill="#afa728"
         inkscape:connector-curvature="0"
         id="path3822"
         d="m -141.03719,207.95601 0.38226,-45.64177 18.33549,4.08226 1.84202,51.77726 z" />
      <path
         sodipodi:nodetypes="ccccc"
         fill-opacity="1"
         fill="#ede88b"
         inkscape:connector-curvature="0"
         id="path3824"
         d="m -132.28139,165.52494 -57.49715,6.64288 15.05888,7.93509 52.40022,-13.70641 z" />
      <path
         sodipodi:nodetypes="ccccc"
         fill-opacity="1"
         fill="#d4c957"
         inkscape:connector-curvature="0"
         id="path3826"
         d="m -188.32227,172.48889 34.98506,-41.32058 14.69482,6.32974 -36.07727,42.60486 z" />
      <path
         sodipodi:nodetypes="ccccc"
         fill-opacity="1"
         fill="#afa728"
         inkscape:connector-curvature="0"
         id="path3828"
         d="m -143.87147,136.62649 -49.84207,-31.93348 12.91439,6.68599 42.15676,26.11905 z" />
      <path
         sodipodi:nodetypes="ccccc"
         fill-opacity="1"
         fill="#ede88b"
         inkscape:connector-curvature="0"
         id="path3830"
         d="m -194.76583,104.08605 51.40671,-8.79618 15.42295,7.61402 -52.86298,8.47511 z" />
      <path
         sodipodi:nodetypes="ccccc"
         fill-opacity="1"
         fill="#afa728"
         inkscape:connector-curvature="0"
         id="path3832"
         d="m -142.99505,95.61094 -5.7622,-46.505592 13.60262,3.154219 7.21846,50.644323 z" />
      <path
         sodipodi:nodetypes="ccccc"
         fill-opacity="1"
         fill="#d4c657"
         inkscape:connector-curvature="0"
         id="path3804"
         d="m -112.98749,75.585861 30.599835,-42.807441 17.863622,4.597562 -31.94831,45.502826 z" />
      <path
         sodipodi:nodetypes="ccccc"
         fill-opacity="1"
         fill="#ede78b"
         inkscape:connector-curvature="0"
         id="path3808"
         d="m -80.653418,84.749916 49.123609,-14.027471 20.519883,4.724391 -51.672077,13.706402 z" />
    </g>
    <path
       stroke-miterlimit="4"
       stroke-width="1.742"
       stroke-linecap="round"
       fill-opacity="1"
       stroke-linejoin="round"
       stroke="#ffffff"
       fill="#a9991a"
       stroke-dasharray="none"
       stroke-opacity="0.62"
       inkscape:connector-curvature="0"
       id="path2738"
       d="m 84.590605,34.445588 48.136095,38.10246 39.75636,-56.62354 2.29221,64.43142 65.20662,-17.05619 -44.8944,53.017342 52.45972,32.50244 -65.7825,10.54639 8.98261,63.0216 -48.13608,-38.10248 -39.75636,56.62355 -2.29221,-64.43142 -65.206635,17.0562 44.89441,-53.01733 -52.45971,-32.50244 65.78249,-10.546392 z"
       style="stroke-width:1.74181965;stroke-miterlimit:4;stroke-dasharray:none;fill:#ffe204;fill-opacity:1" />
  </g>
</svg>
