<?xml version="1.0" encoding="UTF-8" standalone="no"?>
<!-- Created with Inkscape (http://www.inkscape.org/) -->
<svg
   xmlns:dc="http://purl.org/dc/elements/1.1/"
   xmlns:cc="http://creativecommons.org/ns#"
   xmlns:rdf="http://www.w3.org/1999/02/22-rdf-syntax-ns#"
   xmlns:svg="http://www.w3.org/2000/svg"
   xmlns="http://www.w3.org/2000/svg"
   xmlns:xlink="http://www.w3.org/1999/xlink"
   xmlns:sodipodi="http://sodipodi.sourceforge.net/DTD/sodipodi-0.dtd"
   xmlns:inkscape="http://www.inkscape.org/namespaces/inkscape"
   id="svg2"
   sodipodi:version="0.32"
   inkscape:version="0.46"
   width="255"
   height="255"
   version="1.0"
   sodipodi:docbase="/media/disk-hda4/svg1/apps"
   sodipodi:docname="im-status-message-edit.svg"
   inkscape:output_extension="org.inkscape.output.svg.inkscape">
  <metadata
     id="metadata7">
    <rdf:RDF>
      <cc:Work
         rdf:about="">
        <dc:format>image/svg+xml</dc:format>
        <dc:type
           rdf:resource="http://purl.org/dc/dcmitype/StillImage" />
      </cc:Work>
    </rdf:RDF>
  </metadata>
  <defs
     id="defs5">
    <linearGradient
       id="linearGradient3448">
      <stop
         style="stop-color:#000000;stop-opacity:1;"
         offset="0"
         id="stop3450" />
      <stop
         id="stop3456"
         offset="0.5"
         style="stop-color:#000000;stop-opacity:1;" />
      <stop
         style="stop-color:#000000;stop-opacity:1;"
         offset="0.75"
         id="stop3458" />
      <stop
         style="stop-color:#000000;stop-opacity:0;"
         offset="1"
         id="stop3452" />
    </linearGradient>
    <inkscape:perspective
       sodipodi:type="inkscape:persp3d"
       inkscape:vp_x="0 : 127.5 : 1"
       inkscape:vp_y="0 : 1000 : 0"
       inkscape:vp_z="255 : 127.5 : 1"
       inkscape:persp3d-origin="127.5 : 85 : 1"
       id="perspective54" />
    <linearGradient
       id="linearGradient2843">
      <stop
         style="stop-color:#dbd1ae;stop-opacity:1;"
         offset="0"
         id="stop2845" />
      <stop
         style="stop-color:white;stop-opacity:1"
         offset="1"
         id="stop2847" />
    </linearGradient>
    <linearGradient
       inkscape:collect="always"
       id="linearGradient2812">
      <stop
         style="stop-color:#acacac;stop-opacity:1"
         offset="0"
         id="stop2814" />
      <stop
         style="stop-color:white;stop-opacity:1"
         offset="1"
         id="stop2816" />
    </linearGradient>
    <linearGradient
       id="linearGradient2804">
      <stop
         style="stop-color:white;stop-opacity:1"
         offset="0"
         id="stop2806" />
      <stop
         style="stop-color:#d7d6c9;stop-opacity:1"
         offset="1"
         id="stop2808" />
    </linearGradient>
    <linearGradient
       inkscape:collect="always"
       id="linearGradient2784">
      <stop
         style="stop-color:#7d7d7d;stop-opacity:0.85333333"
         offset="0"
         id="stop2786" />
      <stop
         style="stop-color:#8e8e8e;stop-opacity:0"
         offset="1"
         id="stop2788" />
    </linearGradient>
    <linearGradient
       inkscape:collect="always"
       id="linearGradient2776">
      <stop
         style="stop-color:#888888;stop-opacity:1"
         offset="0"
         id="stop2778" />
      <stop
         style="stop-color:black;stop-opacity:0;"
         offset="1"
         id="stop2780" />
    </linearGradient>
    <linearGradient
       inkscape:collect="always"
       id="linearGradient2768">
      <stop
         style="stop-color:#747474;stop-opacity:1"
         offset="0"
         id="stop2770" />
      <stop
         style="stop-color:#949494;stop-opacity:0"
         offset="1"
         id="stop2772" />
    </linearGradient>
    <linearGradient
       inkscape:collect="always"
       xlink:href="#linearGradient2768"
       id="linearGradient2798"
       gradientUnits="userSpaceOnUse"
       gradientTransform="translate(2.727155,101.9956)"
       x1="227.38409"
       y1="37.254597"
       x2="158.17497"
       y2="114.13732" />
    <linearGradient
       inkscape:collect="always"
       xlink:href="#linearGradient2776"
       id="linearGradient2800"
       gradientUnits="userSpaceOnUse"
       gradientTransform="translate(1.090862,103.6319)"
       x1="224.81027"
       y1="27.970419"
       x2="168.53816"
       y2="98.263771" />
    <linearGradient
       inkscape:collect="always"
       xlink:href="#linearGradient2784"
       id="linearGradient2802"
       gradientUnits="userSpaceOnUse"
       x1="227.37683"
       y1="132.28822"
       x2="183.2648"
       y2="183.26662" />
    <radialGradient
       inkscape:collect="always"
       xlink:href="#linearGradient2804"
       id="radialGradient2810"
       cx="162.27423"
       cy="162.09016"
       fx="162.27423"
       fy="162.09016"
       r="107.66867"
       gradientTransform="matrix(4.615088e-2,-1.563078,1.353934,3.997586e-2,-64.67422,413.0392)"
       gradientUnits="userSpaceOnUse" />
    <linearGradient
       inkscape:collect="always"
       xlink:href="#linearGradient2812"
       id="linearGradient2818"
       x1="176.8268"
       y1="236.48242"
       x2="41.40733"
       y2="-2.1210465"
       gradientUnits="userSpaceOnUse" />
    <radialGradient
       inkscape:collect="always"
       xlink:href="#linearGradient2843"
       id="radialGradient2851"
       cx="176.71964"
       cy="180.44443"
       fx="176.71964"
       fy="180.44443"
       r="31.04413"
       gradientTransform="matrix(0.754607,3.976438e-2,-4.166753e-2,0.790723,50.88446,29.53464)"
       gradientUnits="userSpaceOnUse"
       spreadMethod="reflect" />
    <linearGradient
       gradientUnits="userSpaceOnUse"
       y2="42.245087"
       x2="150.11748"
       y1="202.21474"
       x1="142.96986"
       id="linearGradient2865"
       xlink:href="#linearGradient2837"
       inkscape:collect="always" />
    <linearGradient
       gradientUnits="userSpaceOnUse"
       y2="204.89578"
       x2="113.72008"
       y1="41.947189"
       x1="121.57563"
       id="linearGradient2857"
       xlink:href="#linearGradient2837"
       inkscape:collect="always" />
    <linearGradient
       spreadMethod="reflect"
       gradientUnits="userSpaceOnUse"
       y2="165.71899"
       x2="145.41264"
       y1="77.370277"
       x1="144.8076"
       id="linearGradient2849"
       xlink:href="#linearGradient2837"
       inkscape:collect="always" />
    <linearGradient
       gradientUnits="userSpaceOnUse"
       y2="53.922462"
       x2="122.81"
       y1="165.71899"
       x1="123.61967"
       id="linearGradient2835"
       xlink:href="#linearGradient2837"
       inkscape:collect="always" />
    <linearGradient
       gradientUnits="userSpaceOnUse"
       y2="190.7674"
       x2="177.70123"
       y1="172.18156"
       x1="177.02089"
       id="linearGradient2827"
       xlink:href="#linearGradient2813"
       inkscape:collect="always" />
    <linearGradient
       gradientUnits="userSpaceOnUse"
       y2="172.18156"
       x2="165.0208"
       y1="190.7674"
       x1="165.0208"
       id="linearGradient2819"
       xlink:href="#linearGradient2813"
       inkscape:collect="always" />
    <linearGradient
       id="linearGradient2813"
       inkscape:collect="always">
      <stop
         id="stop2815"
         offset="0"
         style="stop-color:white;stop-opacity:1" />
      <stop
         id="stop2817"
         offset="1"
         style="stop-color:black;stop-opacity:1" />
    </linearGradient>
    <linearGradient
       inkscape:collect="always"
       id="linearGradient2837">
      <stop
         style="stop-color:white;stop-opacity:1"
         offset="0"
         id="stop2839" />
      <stop
         style="stop-color:black;stop-opacity:1"
         offset="1"
         id="stop2841" />
    </linearGradient>
    <linearGradient
       id="linearGradient2797">
      <stop
         id="stop2799"
         offset="0"
         style="stop-color:#d1ff8d;stop-opacity:0;" />
      <stop
         style="stop-color:#a5af46;stop-opacity:0;"
         offset="0.5"
         id="stop2278" />
      <stop
         id="stop2280"
         offset="0.75"
         style="stop-color:#6b8723;stop-opacity:0.29019609;" />
      <stop
         id="stop2801"
         offset="1"
         style="stop-color:#446000;stop-opacity:1;" />
    </linearGradient>
    <linearGradient
       id="linearGradient2284">
      <stop
         style="stop-color:#c8c6fd;stop-opacity:1;"
         offset="0"
         id="stop2290" />
      <stop
         style="stop-color:#000c66;stop-opacity:1;"
         offset="1"
         id="stop2292" />
    </linearGradient>
    <linearGradient
       id="linearGradient2296">
      <stop
         id="stop2298"
         offset="0"
         style="stop-color:#6274ac;stop-opacity:1;" />
      <stop
         id="stop2300"
         offset="1"
         style="stop-color:#ffffff;stop-opacity:1;" />
    </linearGradient>
    <inkscape:perspective
       id="perspective2589"
       inkscape:persp3d-origin="250.0002 : 166.6668 : 1"
       inkscape:vp_z="500.0004 : 250.0002 : 1"
       inkscape:vp_y="0 : 1000 : 0"
       inkscape:vp_x="0 : 250.0002 : 1"
       sodipodi:type="inkscape:persp3d" />
    <linearGradient
       gradientTransform="matrix(0.4584837,0,0,0.4584837,12.357625,81.058821)"
       y2="50.573639"
       x2="215.89148"
       y1="113.36433"
       x1="155.81395"
       spreadMethod="reflect"
       gradientUnits="userSpaceOnUse"
       id="linearGradient3403"
       xlink:href="#linearGradient3369"
       inkscape:collect="always" />
    <linearGradient
       y2="78.617943"
       x2="-79.282944"
       y1="145.67221"
       x1="-81.182167"
       gradientUnits="userSpaceOnUse"
       id="linearGradient3397"
       xlink:href="#linearGradient3387"
       inkscape:collect="always" />
    <linearGradient
       gradientUnits="userSpaceOnUse"
       y2="78.617943"
       x2="-79.282944"
       y1="145.67221"
       x1="-81.182167"
       id="linearGradient3393"
       xlink:href="#linearGradient3387"
       inkscape:collect="always" />
    <linearGradient
       spreadMethod="reflect"
       gradientUnits="userSpaceOnUse"
       y2="50.573639"
       x2="215.89148"
       y1="113.36433"
       x1="155.81395"
       id="linearGradient3375"
       xlink:href="#linearGradient3369"
       inkscape:collect="always" />
    <linearGradient
       y2="-7.4748664"
       x2="16.093008"
       y1="-7.4748664"
       x1="13.514812"
       spreadMethod="reflect"
       gradientUnits="userSpaceOnUse"
       id="linearGradient2595"
       xlink:href="#linearGradient3578"
       inkscape:collect="always" />
    <linearGradient
       y2="-7.4748664"
       x2="16.093008"
       y1="-7.4748664"
       x1="13.514812"
       spreadMethod="reflect"
       gradientUnits="userSpaceOnUse"
       id="linearGradient2593"
       xlink:href="#linearGradient3578"
       inkscape:collect="always" />
    <linearGradient
       y2="-7.4748664"
       x2="16.093008"
       y1="-7.4748664"
       x1="13.514812"
       spreadMethod="reflect"
       gradientUnits="userSpaceOnUse"
       id="linearGradient2591"
       xlink:href="#linearGradient3578"
       inkscape:collect="always" />
    <linearGradient
       y2="-7.4748664"
       x2="16.093008"
       y1="-7.4748664"
       x1="13.514812"
       spreadMethod="reflect"
       gradientUnits="userSpaceOnUse"
       id="linearGradient2589"
       xlink:href="#linearGradient3578"
       inkscape:collect="always" />
    <linearGradient
       y2="-7.4748664"
       x2="16.093008"
       y1="-7.4748664"
       x1="13.514812"
       spreadMethod="reflect"
       gradientUnits="userSpaceOnUse"
       id="linearGradient2587"
       xlink:href="#linearGradient3578"
       inkscape:collect="always" />
    <linearGradient
       y2="-7.4748664"
       x2="16.093008"
       y1="-7.4748664"
       x1="13.514812"
       spreadMethod="reflect"
       gradientUnits="userSpaceOnUse"
       id="linearGradient2585"
       xlink:href="#linearGradient3578"
       inkscape:collect="always" />
    <linearGradient
       y2="-7.4748664"
       x2="16.093008"
       y1="-7.4748664"
       x1="13.514812"
       spreadMethod="reflect"
       gradientUnits="userSpaceOnUse"
       id="linearGradient2583"
       xlink:href="#linearGradient3578"
       inkscape:collect="always" />
    <linearGradient
       y2="-7.4748664"
       x2="16.093008"
       y1="-7.4748664"
       x1="13.514812"
       spreadMethod="reflect"
       gradientUnits="userSpaceOnUse"
       id="linearGradient2581"
       xlink:href="#linearGradient3578"
       inkscape:collect="always" />
    <linearGradient
       y2="-7.4748664"
       x2="16.093008"
       y1="-7.4748664"
       x1="13.514812"
       spreadMethod="reflect"
       gradientUnits="userSpaceOnUse"
       id="linearGradient2579"
       xlink:href="#linearGradient3578"
       inkscape:collect="always" />
    <linearGradient
       y2="-7.4748664"
       x2="16.093008"
       y1="-7.4748664"
       x1="13.514812"
       spreadMethod="reflect"
       gradientUnits="userSpaceOnUse"
       id="linearGradient2577"
       xlink:href="#linearGradient3578"
       inkscape:collect="always" />
    <linearGradient
       y2="-7.4748664"
       x2="16.093008"
       y1="-7.4748664"
       x1="13.514812"
       spreadMethod="reflect"
       gradientUnits="userSpaceOnUse"
       id="linearGradient2575"
       xlink:href="#linearGradient3578"
       inkscape:collect="always" />
    <linearGradient
       y2="-7.4748664"
       x2="16.093008"
       y1="-7.4748664"
       x1="13.514812"
       spreadMethod="reflect"
       gradientUnits="userSpaceOnUse"
       id="linearGradient2573"
       xlink:href="#linearGradient3578"
       inkscape:collect="always" />
    <linearGradient
       y2="-7.4748664"
       x2="16.093008"
       y1="-7.4748664"
       x1="13.514812"
       spreadMethod="reflect"
       gradientUnits="userSpaceOnUse"
       id="linearGradient2571"
       xlink:href="#linearGradient3578"
       inkscape:collect="always" />
    <linearGradient
       y2="-7.4748664"
       x2="16.093008"
       y1="-7.4748664"
       x1="13.514812"
       spreadMethod="reflect"
       gradientUnits="userSpaceOnUse"
       id="linearGradient2569"
       xlink:href="#linearGradient3578"
       inkscape:collect="always" />
    <linearGradient
       y2="-7.4748664"
       x2="16.093008"
       y1="-7.4748664"
       x1="13.514812"
       spreadMethod="reflect"
       gradientUnits="userSpaceOnUse"
       id="linearGradient2567"
       xlink:href="#linearGradient3578"
       inkscape:collect="always" />
    <linearGradient
       y2="-7.4748664"
       x2="16.093008"
       y1="-7.4748664"
       x1="13.514812"
       spreadMethod="reflect"
       gradientUnits="userSpaceOnUse"
       id="linearGradient2565"
       xlink:href="#linearGradient3578"
       inkscape:collect="always" />
    <linearGradient
       y2="-7.4748664"
       x2="16.093008"
       y1="-7.4748664"
       x1="13.514812"
       spreadMethod="reflect"
       gradientUnits="userSpaceOnUse"
       id="linearGradient2563"
       xlink:href="#linearGradient3578"
       inkscape:collect="always" />
    <linearGradient
       y2="-7.4748664"
       x2="16.093008"
       y1="-7.4748664"
       x1="13.514812"
       spreadMethod="reflect"
       gradientUnits="userSpaceOnUse"
       id="linearGradient2561"
       xlink:href="#linearGradient3578"
       inkscape:collect="always" />
    <linearGradient
       y2="-7.4748664"
       x2="16.093008"
       y1="-7.4748664"
       x1="13.514812"
       spreadMethod="reflect"
       gradientUnits="userSpaceOnUse"
       id="linearGradient2559"
       xlink:href="#linearGradient3578"
       inkscape:collect="always" />
    <linearGradient
       y2="-7.4748664"
       x2="16.093008"
       y1="-7.4748664"
       x1="13.514812"
       spreadMethod="reflect"
       gradientUnits="userSpaceOnUse"
       id="linearGradient2557"
       xlink:href="#linearGradient3578"
       inkscape:collect="always" />
    <linearGradient
       y2="-7.4748664"
       x2="16.093008"
       y1="-7.4748664"
       x1="13.514812"
       spreadMethod="reflect"
       gradientUnits="userSpaceOnUse"
       id="linearGradient2555"
       xlink:href="#linearGradient3578"
       inkscape:collect="always" />
    <linearGradient
       y2="-7.4748664"
       x2="16.093008"
       y1="-7.4748664"
       x1="13.514812"
       spreadMethod="reflect"
       gradientUnits="userSpaceOnUse"
       id="linearGradient2553"
       xlink:href="#linearGradient3578"
       inkscape:collect="always" />
    <linearGradient
       y2="-7.4748664"
       x2="16.093008"
       y1="-7.4748664"
       x1="13.514812"
       spreadMethod="reflect"
       gradientUnits="userSpaceOnUse"
       id="linearGradient2551"
       xlink:href="#linearGradient3578"
       inkscape:collect="always" />
    <linearGradient
       y2="-7.4748664"
       x2="16.093008"
       y1="-2.2096405"
       x1="15.650429"
       spreadMethod="reflect"
       gradientUnits="userSpaceOnUse"
       id="linearGradient3610"
       xlink:href="#linearGradient3578"
       inkscape:collect="always" />
    <linearGradient
       y2="-7.4748664"
       x2="16.093008"
       y1="-6.4087667"
       x1="10.621114"
       spreadMethod="reflect"
       gradientUnits="userSpaceOnUse"
       id="linearGradient3608"
       xlink:href="#linearGradient3578"
       inkscape:collect="always" />
    <linearGradient
       y2="-1.5134122"
       x2="9.7181683"
       y1="-5.8865957"
       x1="11.186799"
       spreadMethod="reflect"
       gradientUnits="userSpaceOnUse"
       id="linearGradient3606"
       xlink:href="#linearGradient3578"
       inkscape:collect="always" />
    <linearGradient
       y2="-4.5158963"
       x2="12.916467"
       y1="-3.7543969"
       x1="7.7709298"
       spreadMethod="reflect"
       gradientUnits="userSpaceOnUse"
       id="linearGradient3604"
       xlink:href="#linearGradient3578"
       inkscape:collect="always" />
    <linearGradient
       y2="-3.7326398"
       x2="14.93988"
       y1="-2.2749119"
       x1="17.082983"
       spreadMethod="reflect"
       gradientUnits="userSpaceOnUse"
       id="linearGradient3602"
       xlink:href="#linearGradient3578"
       inkscape:collect="always" />
    <linearGradient
       y2="-1.9920692"
       x2="17.376678"
       y1="-6.2564669"
       x1="15.58174"
       spreadMethod="reflect"
       gradientUnits="userSpaceOnUse"
       id="linearGradient3600"
       xlink:href="#linearGradient3578"
       inkscape:collect="always" />
    <linearGradient
       y2="-7.4748664"
       x2="16.093008"
       y1="-10.977764"
       x1="16.691353"
       spreadMethod="reflect"
       gradientUnits="userSpaceOnUse"
       id="linearGradient3598"
       xlink:href="#linearGradient3578"
       inkscape:collect="always" />
    <linearGradient
       y2="-11.199143"
       x2="11.132382"
       y1="-11.39115"
       x1="16.386753"
       spreadMethod="reflect"
       gradientUnits="userSpaceOnUse"
       id="linearGradient3596"
       xlink:href="#linearGradient3578"
       inkscape:collect="always" />
    <linearGradient
       y2="-2.6882975"
       x2="8.6955833"
       y1="-11.586965"
       x1="12.035328"
       spreadMethod="reflect"
       gradientUnits="userSpaceOnUse"
       id="linearGradient3594"
       xlink:href="#linearGradient3578"
       inkscape:collect="always" />
    <linearGradient
       y2="-5.7778101"
       x2="11.371711"
       y1="-10.150993"
       x1="12.905613"
       spreadMethod="reflect"
       gradientUnits="userSpaceOnUse"
       id="linearGradient3592"
       xlink:href="#linearGradient3578"
       inkscape:collect="always" />
    <linearGradient
       y2="-6.9526954"
       x2="17.74655"
       y1="-5.9083529"
       x1="16.386753"
       spreadMethod="reflect"
       gradientUnits="userSpaceOnUse"
       id="linearGradient3590"
       xlink:href="#linearGradient3578"
       inkscape:collect="always" />
    <linearGradient
       y2="-8.018795"
       x2="17.07476"
       y1="-7.4748664"
       x1="13.514812"
       spreadMethod="reflect"
       gradientUnits="userSpaceOnUse"
       id="linearGradient3588"
       xlink:href="#linearGradient3578"
       inkscape:collect="always" />
    <linearGradient
       y2="-6.5828238"
       x2="18.616835"
       y1="-5.2121248"
       x1="16.908924"
       spreadMethod="reflect"
       gradientUnits="userSpaceOnUse"
       id="linearGradient3586"
       xlink:href="#linearGradient3578"
       inkscape:collect="always" />
    <linearGradient
       spreadMethod="reflect"
       gradientUnits="userSpaceOnUse"
       y2="-7.4748664"
       x2="16.093008"
       y1="-7.4748664"
       x1="13.514812"
       id="linearGradient3584"
       xlink:href="#linearGradient3578"
       inkscape:collect="always" />
    <inkscape:perspective
       sodipodi:type="inkscape:persp3d"
       inkscape:vp_x="0 : 128 : 1"
       inkscape:vp_y="0 : 1000 : 0"
       inkscape:vp_z="256 : 128 : 1"
       inkscape:persp3d-origin="128 : 85.333333 : 1"
       id="perspective2503" />
    <linearGradient
       id="linearGradient3578">
      <stop
         id="stop3580"
         offset="0"
         style="stop-color:#000000;stop-opacity:1;" />
      <stop
         id="stop3582"
         offset="1"
         style="stop-color:#fffcfc;stop-opacity:1;" />
    </linearGradient>
    <linearGradient
       id="linearGradient3369"
       inkscape:collect="always">
      <stop
         id="stop3371"
         offset="0"
         style="stop-color:#6465df;stop-opacity:1" />
      <stop
         id="stop3373"
         offset="1"
         style="stop-color:#ffffff;stop-opacity:1" />
    </linearGradient>
    <linearGradient
       id="linearGradient3387"
       inkscape:collect="always">
      <stop
         id="stop3389"
         offset="0"
         style="stop-color:#000000;stop-opacity:1;" />
      <stop
         id="stop3391"
         offset="1"
         style="stop-color:#ffffff;stop-opacity:1" />
    </linearGradient>
    <linearGradient
       inkscape:collect="always"
       xlink:href="#linearGradient2813"
       id="linearGradient2854"
       x1="165.0208"
       y1="190.7674"
       x2="165.0208"
       y2="172.18156"
       gradientUnits="userSpaceOnUse" />
    <linearGradient
       inkscape:collect="always"
       xlink:href="#linearGradient2813"
       id="linearGradient2852"
       x1="177.02089"
       y1="172.18156"
       x2="177.70123"
       y2="190.7674"
       gradientUnits="userSpaceOnUse" />
    <linearGradient
       inkscape:collect="always"
       xlink:href="#linearGradient2837"
       id="linearGradient2850"
       x1="123.61967"
       y1="165.71899"
       x2="122.81"
       y2="53.922462"
       gradientUnits="userSpaceOnUse" />
    <linearGradient
       inkscape:collect="always"
       xlink:href="#linearGradient2837"
       id="linearGradient2848"
       x1="144.8076"
       y1="77.370277"
       x2="145.41264"
       y2="165.71899"
       gradientUnits="userSpaceOnUse"
       spreadMethod="reflect" />
    <linearGradient
       inkscape:collect="always"
       xlink:href="#linearGradient2837"
       id="linearGradient2846"
       x1="121.57563"
       y1="41.947189"
       x2="113.72008"
       y2="204.89578"
       gradientUnits="userSpaceOnUse" />
    <linearGradient
       inkscape:collect="always"
       xlink:href="#linearGradient2837"
       id="linearGradient2844"
       x1="142.96986"
       y1="202.21474"
       x2="150.11748"
       y2="42.245087"
       gradientUnits="userSpaceOnUse" />
    <linearGradient
       id="linearGradient2760">
      <stop
         id="stop2762"
         offset="0"
         style="stop-color:black;stop-opacity:1;" />
      <stop
         id="stop2764"
         offset="1"
         style="stop-color:white;stop-opacity:1;" />
    </linearGradient>
    <linearGradient
       id="linearGradient2772">
      <stop
         style="stop-color:black;stop-opacity:0;"
         offset="0"
         id="stop2774" />
      <stop
         style="stop-color:white;stop-opacity:1;"
         offset="1"
         id="stop2776" />
    </linearGradient>
    <linearGradient
       id="linearGradient2811"
       inkscape:collect="always">
      <stop
         id="stop2813"
         offset="0"
         style="stop-color:white;stop-opacity:1" />
      <stop
         id="stop2818"
         offset="1"
         style="stop-color:black;stop-opacity:1" />
    </linearGradient>
    <linearGradient
       id="linearGradient2831"
       inkscape:collect="always">
      <stop
         id="stop2833"
         offset="0"
         style="stop-color:#fff9f9;stop-opacity:1;" />
      <stop
         id="stop2835"
         offset="1"
         style="stop-color:black;stop-opacity:1" />
    </linearGradient>
    <linearGradient
       id="linearGradient2845">
      <stop
         style="stop-color:black;stop-opacity:0"
         offset="0"
         id="stop2807" />
      <stop
         style="stop-color:black;stop-opacity:1"
         offset="1"
         id="stop2849" />
    </linearGradient>
    <inkscape:perspective
       id="perspective2803"
       inkscape:persp3d-origin="128 : 85.333333 : 1"
       inkscape:vp_z="256 : 128 : 1"
       inkscape:vp_y="0 : 1000 : 0"
       inkscape:vp_x="0 : 128 : 1"
       sodipodi:type="inkscape:persp3d" />
    <linearGradient
       inkscape:collect="always"
       xlink:href="#linearGradient2760"
       id="linearGradient2917"
       gradientUnits="userSpaceOnUse"
       gradientTransform="matrix(0.763152,0,0,0.961942,10.34819,-7.885952)"
       spreadMethod="reflect"
       x1="49.225178"
       y1="16.340425"
       x2="39.058514"
       y2="16.340425" />
    <linearGradient
       inkscape:collect="always"
       xlink:href="#linearGradient2797"
       id="linearGradient2919"
       gradientUnits="userSpaceOnUse"
       gradientTransform="translate(-1.376389,-8.152458)"
       spreadMethod="reflect"
       x1="46.510506"
       y1="12.499445"
       x2="49.245777"
       y2="12.499445" />
    <linearGradient
       inkscape:collect="always"
       xlink:href="#linearGradient2760"
       id="linearGradient2921"
       gradientUnits="userSpaceOnUse"
       spreadMethod="reflect"
       x1="49.225178"
       y1="16.340425"
       x2="39.058514"
       y2="16.340425" />
    <linearGradient
       inkscape:collect="always"
       xlink:href="#linearGradient2760"
       id="linearGradient2923"
       gradientUnits="userSpaceOnUse"
       x1="48.747795"
       y1="19.582497"
       x2="32.157841"
       y2="19.97764" />
    <linearGradient
       inkscape:collect="always"
       xlink:href="#linearGradient2831"
       id="linearGradient2925"
       gradientUnits="userSpaceOnUse"
       gradientTransform="matrix(0.559323,0,0,1,-2.273874,4.192479)"
       spreadMethod="reflect"
       x1="79.657104"
       y1="65.711746"
       x2="91.336151"
       y2="65.711739" />
    <linearGradient
       inkscape:collect="always"
       xlink:href="#linearGradient2760"
       id="linearGradient2927"
       gradientUnits="userSpaceOnUse"
       gradientTransform="matrix(0.843003,0,0,1.003339,6.845093,8.646559)"
       spreadMethod="reflect"
       x1="49.225178"
       y1="16.340425"
       x2="39.058514"
       y2="16.340425" />
    <linearGradient
       inkscape:collect="always"
       xlink:href="#linearGradient2797"
       id="linearGradient2929"
       gradientUnits="userSpaceOnUse"
       spreadMethod="reflect"
       x1="46.510506"
       y1="12.499445"
       x2="49.245777"
       y2="12.499445" />
    <linearGradient
       inkscape:collect="always"
       xlink:href="#linearGradient2797"
       id="linearGradient2931"
       gradientUnits="userSpaceOnUse"
       gradientTransform="translate(-0.748657,8.834152)"
       spreadMethod="reflect"
       x1="46.510506"
       y1="12.499445"
       x2="49.245777"
       y2="12.499445" />
    <linearGradient
       inkscape:collect="always"
       xlink:href="#linearGradient2811"
       id="linearGradient2933"
       gradientUnits="userSpaceOnUse"
       x1="21.959726"
       y1="36.694828"
       x2="33.009834"
       y2="36.694828" />
    <linearGradient
       inkscape:collect="always"
       xlink:href="#linearGradient2760"
       id="linearGradient2935"
       gradientUnits="userSpaceOnUse"
       gradientTransform="matrix(0.843003,0,0,1.003339,6.845093,8.646559)"
       spreadMethod="reflect"
       x1="33.917374"
       y1="120.14248"
       x2="41.286198"
       y2="119.23307" />
    <linearGradient
       inkscape:collect="always"
       xlink:href="#linearGradient2845"
       id="linearGradient2937"
       gradientUnits="userSpaceOnUse"
       gradientTransform="matrix(0.843003,0,0,1.003339,6.845093,8.646559)"
       spreadMethod="pad"
       x1="45.978069"
       y1="122.22112"
       x2="51.182152"
       y2="122.87069" />
    <linearGradient
       inkscape:collect="always"
       xlink:href="#linearGradient2831"
       id="linearGradient2939"
       gradientUnits="userSpaceOnUse"
       gradientTransform="matrix(0.531915,0,0,0.597561,29.88314,56.32079)"
       spreadMethod="reflect"
       x1="25.678703"
       y1="148.8558"
       x2="29.589167"
       y2="148.8558" />
  </defs>
  <sodipodi:namedview
     inkscape:window-height="1024"
     inkscape:window-width="845"
     inkscape:pageshadow="2"
     inkscape:pageopacity="0.0"
     guidetolerance="10.0"
     gridtolerance="10.0"
     objecttolerance="10.0"
     borderopacity="1.0"
     bordercolor="#666666"
     pagecolor="#ffffff"
     id="base"
     inkscape:zoom="1.2"
     inkscape:cx="77.248677"
     inkscape:cy="113.18481"
     inkscape:window-x="825"
     inkscape:window-y="0"
     inkscape:current-layer="svg2"
     showgrid="false" />
  <g
     inkscape:label="1. réteg"
     id="layer1"
     transform="translate(3.93405,0.4748633)">
    <g
       id="g2637">
      <g
         id="g3612"
         transform="translate(-2.5722563,0)">
        <g
           id="g2650"
           style="font-size:12px;font-style:normal;font-weight:normal;fill:url(#linearGradient3584);fill-opacity:1;stroke:none;stroke-width:1px;stroke-linecap:butt;stroke-linejoin:miter;stroke-opacity:1;font-family:Bitstream Vera Sans">
          <path
             style="fill:url(#linearGradient2551);fill-opacity:1"
             id="path2652"
             d="M 16.1875,-12.21875 L 12.09375,-12.1875 L 12.800857,-11.480393 L 16.894607,-11.511643 L 16.1875,-12.21875 z" />
          <path
             style="fill:url(#linearGradient2553);fill-opacity:1"
             id="path2654"
             d="M 12.09375,-12.1875 L 8.75,-3.4375 L 9.4571068,-2.7303932 L 12.800857,-11.480393 L 12.09375,-12.1875 z" />
          <path
             style="fill:url(#linearGradient2555);fill-opacity:1"
             id="path2662"
             d="M 14.75,-5.6875 L 15.53125,-3.46875 L 16.238357,-2.7616432 L 15.457107,-4.9803932 L 14.75,-5.6875 z" />
          <path
             style="fill:url(#linearGradient2557);fill-opacity:1"
             id="path2664"
             d="M 15.53125,-3.46875 L 15.53125,-3.4375 L 16.238357,-2.7303932 L 16.238357,-2.7616432 L 15.53125,-3.46875 z" />
          <path
             style="fill:url(#linearGradient2559);fill-opacity:1"
             id="path2672"
             d="M 17.92037,-11.519527 C 17.478803,-11.961094 16.896486,-12.233764 16.1875,-12.21875 L 16.894607,-11.511643 C 17.603593,-11.526657 18.185909,-11.253988 18.627477,-10.81242 L 17.92037,-11.519527 z" />
          <path
             style="fill:url(#linearGradient3598);fill-opacity:1"
             id="path2674"
             d="M 16.21875,-11.96875 C 16.818366,-11.965939 17.317195,-11.725944 17.700221,-11.342918 L 18.407328,-10.635811 C 18.024302,-11.018837 17.525473,-11.258832 16.925857,-11.261643 L 16.21875,-11.96875 z" />
          <path
             style="fill:url(#linearGradient2561);fill-opacity:1"
             id="path2676"
             d="M 17.700221,-11.342918 C 19.261676,-9.7814631 18.898615,-5.8429893 15.59375,-5.90625 L 16.300857,-5.1991432 C 19.605722,-5.1358825 19.968783,-9.0743563 18.407328,-10.635811 L 17.700221,-11.342918 z" />
          <path
             style="fill:url(#linearGradient2563);fill-opacity:1"
             id="path2678"
             d="M 15.59375,-5.90625 L 16.375,-3.71875 L 17.082107,-3.0116432 L 16.300857,-5.1991432 L 15.59375,-5.90625 z" />
          <path
             style="fill:url(#linearGradient2565);fill-opacity:1"
             id="path2680"
             d="M 16.375,-3.71875 L 15.71875,-3.71875 L 16.425857,-3.0116432 L 17.082107,-3.0116432 L 16.375,-3.71875 z" />
          <path
             style="fill:url(#linearGradient2567);fill-opacity:1"
             id="path2684"
             d="M 14.875,-5.96875 L 10.5625,-5.96875 L 11.269607,-5.2616432 L 15.582107,-5.2616432 L 14.875,-5.96875 z" />
          <path
             style="fill:url(#linearGradient2569);fill-opacity:1"
             id="path2686"
             d="M 10.5625,-5.96875 L 9.75,-3.75 L 10.457107,-3.0428932 L 11.269607,-5.2616432 L 10.5625,-5.96875 z" />
          <path
             style="fill:url(#linearGradient3594);fill-opacity:1"
             id="path2690"
             d="M 9.1875,-3.75 L 12.28125,-11.90625 L 12.988357,-11.199143 L 9.8946068,-3.0428932 L 9.1875,-3.75 z" />
          <path
             style="fill:url(#linearGradient3608);fill-opacity:1"
             id="path2660"
             d="M 10.8125,-5.6875 L 14.75,-5.6875 L 15.457107,-4.9803932 L 11.519607,-4.9803932 L 10.8125,-5.6875 z" />
          <path
             style="fill:url(#linearGradient3610);fill-opacity:1"
             id="path2682"
             d="M 15.71875,-3.71875 L 14.875,-5.96875 L 15.582107,-5.2616432 L 16.425857,-3.0116432 L 15.71875,-3.71875 z" />
          <path
             style="fill:url(#linearGradient2571);fill-opacity:1"
             id="path2688"
             d="M 9.75,-3.75 L 9.1875,-3.75 L 9.8946068,-3.0428932 L 10.457107,-3.0428932 L 9.75,-3.75 z" />
          <path
             style="fill:url(#linearGradient3596);fill-opacity:1"
             id="path2692"
             d="M 12.28125,-11.90625 L 16.21875,-11.96875 L 16.925857,-11.261643 L 12.988357,-11.199143 L 12.28125,-11.90625 z" />
          <path
             style="fill:url(#linearGradient2573);fill-opacity:1"
             id="path2694"
             d="M 13.59375,-11.375 L 15.4375,-6.4375 L 16.144607,-5.7303932 L 14.300857,-10.667893 L 13.59375,-11.375 z" />
          <path
             style="fill:url(#linearGradient2575);fill-opacity:1"
             id="path2698"
             d="M 17.29651,-10.694689 C 16.87154,-11.11966 16.292483,-11.392236 15.59375,-11.375 L 16.300857,-10.667893 C 16.99959,-10.685129 17.578646,-10.412554 18.003617,-9.9875826 L 17.29651,-10.694689 z" />
          <path
             style="fill:url(#linearGradient2577);fill-opacity:1"
             id="path2700"
             d="M 15.59375,-11.375 L 13.59375,-11.375 L 14.300857,-10.667893 L 16.300857,-10.667893 L 15.59375,-11.375 z" />
          <path
             style="fill:url(#linearGradient2579);fill-opacity:1"
             id="path2702"
             d="M 12.5,-11.25 L 10.71875,-6.375 L 11.425857,-5.6678932 L 13.207107,-10.542893 L 12.5,-11.25 z" />
          <path
             style="fill:url(#linearGradient2581);fill-opacity:1"
             id="path2704"
             d="M 10.71875,-6.375 L 14.71875,-6.3125 L 15.425857,-5.6053932 L 11.425857,-5.6678932 L 10.71875,-6.375 z" />
          <path
             style="fill:url(#linearGradient2583);fill-opacity:1"
             id="path2706"
             d="M 14.71875,-6.3125 L 12.96875,-11.25 L 13.675857,-10.542893 L 15.425857,-5.6053932 L 14.71875,-6.3125 z" />
          <path
             style="fill:url(#linearGradient2585);fill-opacity:1"
             id="path2708"
             d="M 12.96875,-11.25 L 12.5,-11.25 L 13.207107,-10.542893 L 13.675857,-10.542893 L 12.96875,-11.25 z" />
          <path
             style="fill:url(#linearGradient2587);fill-opacity:1"
             id="path2710"
             d="M 13.96875,-11.125 L 15.5625,-11.125 L 16.269607,-10.417893 L 14.675857,-10.417893 L 13.96875,-11.125 z" />
          <path
             style="fill:url(#linearGradient2589);fill-opacity:1"
             id="path2712"
             d="M 15.5625,-11.125 C 16.263236,-11.142285 16.807643,-10.897983 17.18911,-10.516516 L 17.896217,-9.8094094 C 17.51475,-10.190876 16.970342,-10.435179 16.269607,-10.417893 L 15.5625,-11.125 z" />
          <path
             style="fill:url(#linearGradient3588);fill-opacity:1"
             id="path2714"
             d="M 17.18911,-10.516516 C 18.415922,-9.2897044 17.957455,-6.644214 15.59375,-6.71875 L 16.300857,-6.0116432 C 18.664562,-5.9371073 19.123029,-8.5825976 17.896217,-9.8094094 L 17.18911,-10.516516 z" />
          <path
             style="fill:url(#linearGradient2591);fill-opacity:1"
             id="path2716"
             d="M 15.59375,-6.71875 L 13.96875,-11.125 L 14.675857,-10.417893 L 16.300857,-6.0116432 L 15.59375,-6.71875 z" />
          <path
             style="fill:url(#linearGradient3590);fill-opacity:1"
             id="path2696"
             d="M 15.4375,-6.4375 C 18.434536,-6.3628978 18.668368,-9.3228317 17.29651,-10.694689 L 18.003617,-9.9875826 C 19.375475,-8.6157249 19.141643,-5.655791 16.144607,-5.7303932 L 15.4375,-6.4375 z" />
          <path
             style="fill:url(#linearGradient3592);fill-opacity:1"
             id="path2722"
             d="M 11.15625,-6.65625 L 12.75,-11.03125 L 13.457107,-10.324143 L 11.863357,-5.9491432 L 11.15625,-6.65625 z" />
          <path
             style="fill:url(#linearGradient2593);fill-opacity:1"
             id="path2718"
             d="M 12.75,-11.03125 L 14.375,-6.65625 L 15.082107,-5.9491432 L 13.457107,-10.324143 L 12.75,-11.03125 z" />
          <path
             style="fill:url(#linearGradient2595);fill-opacity:1"
             id="path2720"
             d="M 14.375,-6.65625 L 11.15625,-6.65625 L 11.863357,-5.9491432 L 15.082107,-5.9491432 L 14.375,-6.65625 z" />
          <path
             style="fill:url(#linearGradient3586);fill-opacity:1"
             id="path2670"
             d="M 15.96875,-5.6875 C 19.235011,-5.6249782 19.618583,-9.8213136 17.92037,-11.519527 L 18.627477,-10.81242 C 20.32569,-9.1142068 19.942118,-4.9178714 16.675857,-4.9803932 L 15.96875,-5.6875 z" />
          <path
             style="fill:url(#linearGradient3600);fill-opacity:1"
             id="path2668"
             d="M 16.78125,-3.4375 L 15.96875,-5.6875 L 16.675857,-4.9803932 L 17.488357,-2.7303932 L 16.78125,-3.4375 z" />
          <path
             style="fill:url(#linearGradient3602);fill-opacity:1"
             id="path2666"
             d="M 15.53125,-3.4375 L 16.78125,-3.4375 L 17.488357,-2.7303932 L 16.238357,-2.7303932 L 15.53125,-3.4375 z" />
          <path
             style="fill:url(#linearGradient3604);fill-opacity:1"
             id="path2656"
             d="M 8.75,-3.4375 L 10,-3.4375 L 10.707107,-2.7303932 L 9.4571068,-2.7303932 L 8.75,-3.4375 z" />
          <path
             style="fill:url(#linearGradient3606);fill-opacity:1"
             id="path2658"
             d="M 10,-3.4375 L 10.8125,-5.6875 L 11.519607,-4.9803932 L 10.707107,-2.7303932 L 10,-3.4375 z" />
        </g>
        <path
           id="path2505"
           d="M 16.1875,-12.175236 L 12.09375,-12.143986 L 8.7499996,-3.3939857 L 9.9999996,-3.3939857 L 10.8125,-5.6439857 L 14.75,-5.6439857 L 15.53125,-3.4252357 L 15.53125,-3.3939857 L 16.78125,-3.3939857 L 15.96875,-5.6439857 C 20.084301,-5.565207 19.623157,-12.247993 16.1875,-12.175236 z M 16.21875,-11.925236 C 19.262779,-11.910965 19.709301,-5.7839571 15.59375,-5.8627357 L 16.375,-3.6752357 L 15.71875,-3.6752357 L 14.875,-5.9252357 L 10.5625,-5.9252357 L 9.7499996,-3.7064857 L 9.1874996,-3.7064857 L 12.28125,-11.862736 L 16.21875,-11.925236 z M 13.59375,-11.331486 L 15.4375,-6.3939857 C 19.362951,-6.2962734 18.548077,-11.404362 15.59375,-11.331486 L 13.59375,-11.331486 z M 12.5,-11.206486 L 10.71875,-6.3314857 L 14.71875,-6.2689857 L 12.96875,-11.206486 L 12.5,-11.206486 z M 13.96875,-11.081486 L 15.5625,-11.081486 C 18.516827,-11.154362 18.69243,-6.5775234 15.59375,-6.6752357 L 13.96875,-11.081486 z M 12.75,-10.987736 L 14.375,-6.6127357 L 11.15625,-6.6127357 L 12.75,-10.987736 z"
           style="font-size:12px;font-style:normal;font-weight:normal;fill:#333333;fill-opacity:1;stroke:none;stroke-width:1px;stroke-linecap:butt;stroke-linejoin:miter;stroke-opacity:1;font-family:Bitstream Vera Sans" />
      </g>
      <path
         id="text2170"
         d="M 6.0871491,-4.0239012 C 6.0766271,-4.0350472 6.0650871,-4.0430982 6.0525291,-4.0480532 C 6.0403101,-4.0536252 6.0267331,-4.0564122 6.0117991,-4.0564132 C 5.9588511,-4.0564122 5.9181211,-4.0248292 5.8896111,-3.9616652 C 5.8614391,-3.8991182 5.8473541,-3.8090152 5.8473541,-3.6913552 L 5.8473541,-3.1433032 L 5.7531671,-3.1433032 L 5.7531671,-4.1836722 L 5.8473541,-4.1836722 L 5.8473541,-4.0220442 C 5.8670401,-4.0852082 5.8926651,-4.1319622 5.9242311,-4.1623082 C 5.9557961,-4.1932692 5.9941491,-4.2087522 6.0392921,-4.2087532 C 6.0457401,-4.2087522 6.0528681,-4.2078222 6.0606751,-4.2059662 C 6.0684811,-4.2047262 6.0771361,-4.2025592 6.0866401,-4.1994642 L 6.0871491,-4.0239012 M 6.3849841,-4.0638442 C 6.3347511,-4.0638432 6.2950401,-4.0279262 6.2658501,-3.9560922 C 6.2366611,-3.8848752 6.2220661,-3.7870312 6.2220661,-3.6625592 C 6.2220661,-3.5380862 6.2364911,-3.4399322 6.2653411,-3.3680972 C 6.2945301,-3.2968812 6.3344111,-3.2612732 6.3849841,-3.2612732 C 6.4348791,-3.2612732 6.4744201,-3.2971912 6.5036101,-3.3690262 C 6.5327991,-3.4408612 6.5473941,-3.5387052 6.5473941,-3.6625592 C 6.5473941,-3.7857922 6.5327991,-3.8833272 6.5036101,-3.9551632 C 6.4744201,-4.0276162 6.4348791,-4.0638432 6.3849841,-4.0638442 M 6.3849841,-4.2087532 C 6.4664441,-4.2087522 6.5304231,-4.1604492 6.5769231,-4.0638442 C 6.6234221,-3.9672382 6.6466721,-3.8334762 6.6466731,-3.6625592 C 6.6466721,-3.4922602 6.6234221,-3.3584982 6.5769231,-3.2612732 C 6.5304231,-3.1646682 6.4664441,-3.1163652 6.3849841,-3.1163652 C 6.3031851,-3.1163652 6.2390361,-3.1646682 6.1925371,-3.2612732 C 6.1463771,-3.3584982 6.1232971,-3.4922602 6.1232971,-3.6625592 C 6.1232971,-3.8334762 6.1463771,-3.9672382 6.1925371,-4.0638442 C 6.2390361,-4.1604492 6.3031851,-4.2087522 6.3849841,-4.2087532 M 7.0224031,-4.0638442 C 6.9721701,-4.0638432 6.9324581,-4.0279262 6.9032691,-3.9560922 C 6.8740791,-3.8848752 6.8594851,-3.7870312 6.8594851,-3.6625592 C 6.8594851,-3.5380862 6.8739101,-3.4399322 6.9027601,-3.3680972 C 6.9319491,-3.2968812 6.9718301,-3.2612732 7.0224031,-3.2612732 C 7.0722961,-3.2612732 7.1118381,-3.2971912 7.1410281,-3.3690262 C 7.1702171,-3.4408612 7.1848121,-3.5387052 7.1848121,-3.6625592 C 7.1848121,-3.7857922 7.1702171,-3.8833272 7.1410281,-3.9551632 C 7.1118381,-4.0276162 7.0722961,-4.0638432 7.0224031,-4.0638442 M 7.0224031,-4.2087532 C 7.1038621,-4.2087522 7.1678411,-4.1604492 7.2143411,-4.0638442 C 7.2608401,-3.9672382 7.2840901,-3.8334762 7.2840901,-3.6625592 C 7.2840901,-3.4922602 7.2608401,-3.3584982 7.2143411,-3.2612732 C 7.1678411,-3.1646682 7.1038621,-3.1163652 7.0224031,-3.1163652 C 6.9406041,-3.1163652 6.8764551,-3.1646682 6.8299561,-3.2612732 C 6.7837951,-3.3584982 6.7607161,-3.4922602 6.7607161,-3.6625592 C 6.7607161,-3.8334762 6.7837951,-3.9672382 6.8299561,-4.0638442 C 6.8764551,-4.1604492 6.9406041,-4.2087522 7.0224031,-4.2087532 M 7.5315231,-4.4790632 L 7.5315231,-4.1836722 L 7.7244781,-4.1836722 L 7.7244781,-4.0508402 L 7.5315231,-4.0508402 L 7.5315231,-3.4860682 C 7.5315221,-3.4012282 7.5378011,-3.3467322 7.5503591,-3.3225812 C 7.5632571,-3.2984292 7.5892221,-3.2863532 7.6282551,-3.2863542 L 7.7244781,-3.2863542 L 7.7244781,-3.1433032 L 7.6282551,-3.1433032 C 7.5559591,-3.1433032 7.5060671,-3.1677642 7.4785741,-3.2166862 C 7.4510821,-3.2662282 7.4373361,-3.3560212 7.4373361,-3.4860682 L 7.4373361,-4.0508402 L 7.3686041,-4.0508402 L 7.3686041,-4.1836722 L 7.4373361,-4.1836722 L 7.4373361,-4.4790632 L 7.5315231,-4.4790632 M 7.9551091,-4.3759552 L 7.9551091,-3.8548412 L 8.0844261,-3.8548412 C 8.1322831,-3.8548412 8.1692791,-3.8774442 8.1954141,-3.9226512 C 8.2215481,-3.9678572 8.2346161,-4.0322602 8.2346161,-4.1158622 C 8.2346161,-4.1988432 8.2215481,-4.2629372 8.1954141,-4.3081452 C 8.1692791,-4.3533502 8.1322831,-4.3759542 8.0844261,-4.3759552 L 7.9551091,-4.3759552 M 7.8522671,-4.5301522 L 8.0844261,-4.5301522 C 8.1696181,-4.5301512 8.2339371,-4.4948522 8.2773821,-4.4242582 C 8.3211661,-4.3542792 8.3430581,-4.2514812 8.3430581,-4.1158622 C 8.3430581,-3.9790032 8.3211661,-3.8755862 8.2773821,-3.8056102 C 8.2339371,-3.7356322 8.1696181,-3.7006432 8.0844261,-3.7006432 L 7.9551091,-3.7006432 L 7.9551091,-3.1433032 L 7.8522671,-3.1433032 L 7.8522671,-4.5301522 M 8.6897691,-3.6662742 C 8.6140801,-3.6662742 8.5616401,-3.6504832 8.5324511,-3.6189002 C 8.5032611,-3.5873172 8.4886671,-3.5334412 8.4886671,-3.4572722 C 8.4886671,-3.3965832 8.4995281,-3.3482812 8.5212501,-3.3123632 C 8.5433121,-3.2770652 8.5731801,-3.2594162 8.6108561,-3.2594162 C 8.6627861,-3.2594162 8.7043641,-3.2928562 8.7355901,-3.3597372 C 8.7671551,-3.4272372 8.7829381,-3.5167212 8.7829381,-3.6281902 L 8.7829381,-3.6662742 L 8.6897691,-3.6662742 M 8.8766161,-3.7368712 L 8.8766161,-3.1433032 L 8.7829381,-3.1433032 L 8.7829381,-3.3012162 C 8.7615551,-3.2380512 8.7349111,-3.1912962 8.7030061,-3.1609522 C 8.6711011,-3.1312272 8.6320691,-3.1163652 8.5859091,-3.1163652 C 8.5275291,-3.1163652 8.4810301,-3.1460902 8.4464101,-3.2055402 C 8.4121291,-3.2656082 8.3949891,-3.3458032 8.3949891,-3.4461252 C 8.3949891,-3.5631662 8.4163721,-3.6514122 8.4591381,-3.7108622 C 8.5022431,-3.7703102 8.5663921,-3.8000352 8.6515851,-3.8000362 L 8.7829381,-3.8000362 L 8.7829381,-3.8167562 C 8.7829381,-3.8954022 8.7686821,-3.9560912 8.7401721,-3.9988212 C 8.7120001,-4.0421682 8.6722891,-4.0638432 8.6210381,-4.0638442 C 8.5884541,-4.0638432 8.5567191,-4.0567212 8.5258321,-4.0424792 C 8.4949461,-4.0282352 8.4652471,-4.0068712 8.4367361,-3.9783852 L 8.4367361,-4.1362982 C 8.4710171,-4.1604492 8.5042801,-4.1784082 8.5365241,-4.1901742 C 8.5687681,-4.2025592 8.6001641,-4.2087522 8.6307111,-4.2087532 C 8.7131881,-4.2087522 8.7747921,-4.1697372 8.8155221,-4.0917112 C 8.8562511,-4.0136832 8.8766151,-3.8954022 8.8766161,-3.7368712 M 9.0700821,-4.5886732 L 9.1637601,-4.5886732 L 9.1637601,-3.1433032 L 9.0700821,-3.1433032 L 9.0700821,-4.5886732 M 9.7173101,-3.6686217 C 9.7173091,-3.5800657 9.7293591,-3.5103987 9.7534571,-3.4596187 C 9.7775551,-3.4094577 9.8106481,-3.3843777 9.8527351,-3.3843777 C 9.8944841,-3.3843777 9.9272371,-3.4097677 9.9509961,-3.4605477 C 9.9750941,-3.5113277 9.9871441,-3.5806857 9.9871441,-3.6686217 C 9.9871441,-3.7553187 9.9749251,-3.8240567 9.9504871,-3.8748377 C 9.9260491,-3.9262367 9.8931261,-3.9519357 9.8517171,-3.9519367 C 9.8106481,-3.9519357 9.7778941,-3.9265457 9.7534571,-3.8757667 C 9.7293591,-3.8249857 9.7173091,-3.7559377 9.7173101,-3.6686217 M 9.9947811,-3.3908797 C 9.9744161,-3.3431967 9.9509961,-3.3078987 9.9245221,-3.2849857 C 9.8983871,-3.2626917 9.8678391,-3.2515447 9.8328801,-3.2515447 C 9.7745001,-3.2515447 9.7269831,-3.2899397 9.6903261,-3.3667287 C 9.6540091,-3.4441367 9.6358501,-3.5447677 9.6358501,-3.6686217 C 9.6358501,-3.7924747 9.6541781,-3.8931047 9.6908361,-3.9705147 C 9.7274921,-4.0479217 9.7748401,-4.0866257 9.8328801,-4.0866267 C 9.8678391,-4.0866257 9.8985571,-4.0748597 9.9250311,-4.0513287 C 9.9515051,-4.0284147 9.9747551,-3.9934267 9.9947811,-3.9463627 L 9.9947811,-4.0680487 L 10.067585,-4.0680487 L 10.067585,-3.3843777 C 10.117139,-3.3980017 10.155832,-3.4391827 10.183664,-3.5079217 C 10.211835,-3.5772787 10.22592,-3.6667627 10.225921,-3.7763737 C 10.22592,-3.8426357 10.22049,-3.9048717 10.209629,-3.9630827 C 10.199107,-4.0212937 10.182985,-4.0751697 10.161263,-4.1247117 C 10.125963,-4.2058347 10.082858,-4.2677617 10.031947,-4.3104917 C 9.9813731,-4.3538397 9.9262191,-4.3755137 9.8664821,-4.3755157 C 9.8247341,-4.3755137 9.7846831,-4.3652967 9.7463291,-4.3448617 C 9.7079751,-4.3250437 9.6725071,-4.2953187 9.6399231,-4.2556877 C 9.5866351,-4.1925207 9.5448881,-4.1095387 9.5146801,-4.0067417 C 9.4848111,-3.9045617 9.4698771,-3.7937127 9.4698771,-3.6741947 C 9.4698771,-3.5757307 9.4795511,-3.4834607 9.4988971,-3.3973827 C 9.5185831,-3.3113037 9.5469241,-3.2354437 9.5839201,-3.1698017 C 9.6195581,-3.1053977 9.6607971,-3.0564757 9.7076361,-3.0230357 C 9.7544751,-2.9889757 9.8045381,-2.9719457 9.8578271,-2.9719457 C 9.9016111,-2.9719457 9.9445471,-2.9855697 9.9866351,-3.0128177 C 10.029061,-3.0394457 10.067924,-3.0778407 10.103223,-3.1280017 L 10.149044,-3.0248937 C 10.106617,-2.9648247 10.060287,-2.9189987 10.010055,-2.8874157 C 9.9601601,-2.8552147 9.9094181,-2.8391137 9.8578271,-2.8391127 C 9.7950351,-2.8391137 9.7358071,-2.8595487 9.6801441,-2.9004207 C 9.6244801,-2.9406727 9.5749261,-2.9995037 9.5314811,-3.0769117 C 9.4880361,-3.1543197 9.4549431,-3.2438037 9.4322031,-3.3453637 C 9.4094621,-3.4475427 9.3980911,-3.5571537 9.3980921,-3.6741947 C 9.3980911,-3.7869007 9.4096321,-3.8943437 9.4327121,-3.9965237 C 9.4557921,-4.0987017 9.4887151,-4.1884957 9.5314811,-4.2659047 C 9.5752651,-4.3445507 9.6258371,-4.4046197 9.6831991,-4.4461117 C 9.7405591,-4.4882207 9.8013141,-4.5092757 9.8654631,-4.5092767 C 9.9374201,-4.5092757 10.004114,-4.4823377 10.065549,-4.4284627 C 10.127321,-4.3745847 10.179081,-4.2981057 10.22083,-4.1990237 C 10.246285,-4.1383347 10.265632,-4.0723827 10.27887,-4.0011677 C 10.292445,-3.9299517 10.299233,-3.8562587 10.299235,-3.7800897 C 10.299233,-3.6172217 10.27225,-3.4887247 10.218284,-3.3945957 C 10.164317,-3.3004667 10.089816,-3.2515447 9.9947811,-3.2478297 L 9.9947811,-3.3908797 M 10.84552,-3.7020617 C 10.845519,-3.8259147 10.831434,-3.9219007 10.803263,-3.9900217 C 10.775431,-4.0581397 10.736229,-4.0921997 10.685656,-4.0922007 C 10.635423,-4.0921997 10.596221,-4.0581397 10.56805,-3.9900217 C 10.540218,-3.9219007 10.526302,-3.8259147 10.526302,-3.7020617 C 10.526302,-3.5788277 10.540218,-3.4831507 10.56805,-3.4150317 C 10.596221,-3.3469117 10.635423,-3.3128517 10.685656,-3.3128527 C 10.736229,-3.3128517 10.775431,-3.3469117 10.803263,-3.4150317 C 10.831434,-3.4831507 10.845519,-3.5788277 10.84552,-3.7020617 M 10.939198,-3.2989187 C 10.939197,-3.1218087 10.917645,-2.9902147 10.87454,-2.9041367 C 10.831434,-2.8174387 10.765418,-2.7740907 10.676492,-2.7740897 C 10.643569,-2.7740907 10.612513,-2.7787347 10.583323,-2.7880237 C 10.554134,-2.7966937 10.525793,-2.8103177 10.4983,-2.8288957 L 10.4983,-2.9951687 C 10.525793,-2.9679207 10.552946,-2.9477947 10.57976,-2.9347897 C 10.606573,-2.9217857 10.633896,-2.9152837 10.661728,-2.9152827 C 10.723161,-2.9152837 10.769152,-2.9446987 10.799699,-3.0035287 C 10.830246,-3.0617397 10.845519,-3.1499857 10.84552,-3.2682657 L 10.84552,-3.3527957 C 10.826173,-3.2914877 10.801396,-3.2456617 10.771189,-3.2153177 C 10.74098,-3.1849737 10.704833,-3.1698017 10.662746,-3.1698017 C 10.592827,-3.1698017 10.536484,-3.2184147 10.493718,-3.3156387 C 10.450952,-3.4128637 10.429569,-3.5416717 10.429569,-3.7020617 C 10.429569,-3.8630707 10.450952,-3.9921877 10.493718,-4.0894137 C 10.536484,-4.1866377 10.592827,-4.2352507 10.662746,-4.2352517 C 10.704833,-4.2352507 10.74098,-4.2200787 10.771189,-4.1897347 C 10.801396,-4.1593897 10.826173,-4.1135637 10.84552,-4.0522577 L 10.84552,-4.2101707 L 10.939198,-4.2101707 L 10.939198,-3.2989187 M 11.576107,-4.0104577 C 11.599526,-4.0872457 11.627527,-4.1439077 11.660111,-4.1804457 C 11.692695,-4.2169817 11.731048,-4.2352507 11.775172,-4.2352517 C 11.834569,-4.2352507 11.88039,-4.1971647 11.912635,-4.1209957 C 11.944878,-4.0454447 11.961,-3.9376927 11.961001,-3.7977387 L 11.961001,-3.1698017 L 11.866814,-3.1698017 L 11.866814,-3.7921657 C 11.866813,-3.8918667 11.85714,-3.9658687 11.837794,-4.0141727 C 11.818447,-4.0624747 11.788918,-4.0866257 11.749207,-4.0866267 C 11.700671,-4.0866257 11.662317,-4.0572107 11.634146,-3.9983817 C 11.605975,-3.9395497 11.591889,-3.8593557 11.591889,-3.7577967 L 11.591889,-3.1698017 L 11.497702,-3.1698017 L 11.497702,-3.7921657 C 11.497702,-3.8924857 11.488029,-3.9664887 11.468682,-4.0141727 C 11.449336,-4.0624747 11.419467,-4.0866257 11.379077,-4.0866267 C 11.33122,-4.0866257 11.293206,-4.0569017 11.265035,-3.9974527 C 11.236863,-3.9386217 11.222777,-3.8587357 11.222778,-3.7577967 L 11.222778,-3.1698017 L 11.128591,-3.1698017 L 11.128591,-4.2101707 L 11.222778,-4.2101707 L 11.222778,-4.0485427 C 11.24416,-4.1123257 11.269786,-4.1593897 11.299655,-4.1897347 C 11.329523,-4.2200787 11.364991,-4.2352507 11.406061,-4.2352517 C 11.447469,-4.2352507 11.482598,-4.2160527 11.511449,-4.1776597 C 11.540638,-4.1392637 11.56219,-4.0835297 11.576107,-4.0104577 M 12.407499,-3.6927727 C 12.33181,-3.6927727 12.27937,-3.6769817 12.250181,-3.6453987 C 12.220992,-3.6138157 12.206397,-3.5599397 12.206397,-3.4837707 C 12.206397,-3.4230817 12.217258,-3.3747797 12.238981,-3.3388617 C 12.261042,-3.3035637 12.290911,-3.2859147 12.328586,-3.2859147 C 12.380516,-3.2859147 12.422094,-3.3193547 12.45332,-3.3862357 C 12.484885,-3.4537357 12.500668,-3.5432197 12.500668,-3.6546887 L 12.500668,-3.6927727 L 12.407499,-3.6927727 M 12.594346,-3.7633697 L 12.594346,-3.1698017 L 12.500668,-3.1698017 L 12.500668,-3.3277147 C 12.479285,-3.2645497 12.452641,-3.2177947 12.420736,-3.1874507 C 12.388831,-3.1577257 12.349799,-3.1428637 12.303639,-3.1428637 C 12.24526,-3.1428637 12.19876,-3.1725887 12.16414,-3.2320387 C 12.129859,-3.2921067 12.112719,-3.3723017 12.112719,-3.4726237 C 12.112719,-3.5896647 12.134102,-3.6779107 12.176868,-3.7373607 C 12.219973,-3.7968087 12.284122,-3.8265337 12.369315,-3.8265347 L 12.500668,-3.8265347 L 12.500668,-3.8432547 C 12.500668,-3.9219007 12.486412,-3.9825897 12.457902,-4.0253197 C 12.429731,-4.0686667 12.390019,-4.0903417 12.338768,-4.0903427 C 12.306184,-4.0903417 12.274449,-4.0832197 12.243563,-4.0689777 C 12.212676,-4.0547337 12.182977,-4.0333697 12.154467,-4.0048837 L 12.154467,-4.1627967 C 12.188747,-4.1869477 12.22201,-4.2049067 12.254254,-4.2166727 C 12.286498,-4.2290577 12.317894,-4.2352507 12.348441,-4.2352517 C 12.430918,-4.2352507 12.492522,-4.1962357 12.533252,-4.1182097 C 12.573981,-4.0401817 12.594346,-3.9219007 12.594346,-3.7633697 M 12.787812,-4.2101707 L 12.88149,-4.2101707 L 12.88149,-3.1698017 L 12.787812,-3.1698017 L 12.787812,-4.2101707 M 12.787812,-4.6151717 L 12.88149,-4.6151717 L 12.88149,-4.3987377 L 12.787812,-4.3987377 L 12.787812,-4.6151717 M 13.076992,-4.6151717 L 13.17067,-4.6151717 L 13.17067,-3.1698017 L 13.076992,-3.1698017 L 13.076992,-4.6151717 M 13.379409,-3.4057427 L 13.486833,-3.4057427 L 13.486833,-3.1698017 L 13.379409,-3.1698017 L 13.379409,-3.4057427 M 14.108468,-4.1702277 L 14.108468,-4.0104577 C 14.081994,-4.0370847 14.05535,-4.0569017 14.028537,-4.0699067 C 14.002062,-4.0835297 13.975248,-4.0903417 13.948096,-4.0903427 C 13.88734,-4.0903417 13.840162,-4.0550437 13.80656,-3.9844477 C 13.772958,-3.9144697 13.756157,-3.8160067 13.756157,-3.6890577 C 13.756157,-3.5621067 13.772958,-3.4633337 13.80656,-3.3927377 C 13.840162,-3.3227607 13.88734,-3.2877717 13.948096,-3.2877717 C 13.975248,-3.2877717 14.002062,-3.2942747 14.028537,-3.3072787 C 14.05535,-3.3209027 14.081994,-3.3410287 14.108468,-3.3676577 L 14.108468,-3.2097447 C 14.082333,-3.1874507 14.05518,-3.1707307 14.027009,-3.1595837 C 13.999177,-3.1484377 13.969478,-3.1428637 13.937913,-3.1428637 C 13.852041,-3.1428637 13.783819,-3.1920947 13.733247,-3.2905587 C 13.682674,-3.3890217 13.657388,-3.5218547 13.657388,-3.6890577 C 13.657388,-3.8587357 13.682844,-3.9921877 13.733756,-4.0894137 C 13.785007,-4.1866377 13.855096,-4.2352507 13.944023,-4.2352517 C 13.972872,-4.2352507 14.001043,-4.2296767 14.028537,-4.2185307 C 14.056029,-4.2080027 14.082672,-4.1919017 14.108468,-4.1702277 M 14.493363,-4.0903427 C 14.443129,-4.0903417 14.403418,-4.0544247 14.374229,-3.9825907 C 14.345039,-3.9113737 14.330444,-3.8135297 14.330445,-3.6890577 C 14.330444,-3.5645847 14.344869,-3.4664307 14.37372,-3.3945957 C 14.402909,-3.3233797 14.44279,-3.2877717 14.493363,-3.2877717 C 14.543256,-3.2877717 14.582798,-3.3236897 14.611988,-3.3955247 C 14.641177,-3.4673597 14.655772,-3.5652037 14.655772,-3.6890577 C 14.655772,-3.8122907 14.641177,-3.9098257 14.611988,-3.9816617 C 14.582798,-4.0541147 14.543256,-4.0903417 14.493363,-4.0903427 M 14.493363,-4.2352517 C 14.574821,-4.2352507 14.638801,-4.1869477 14.685301,-4.0903427 C 14.7318,-3.9937367 14.75505,-3.8599747 14.75505,-3.6890577 C 14.75505,-3.5187587 14.7318,-3.3849967 14.685301,-3.2877717 C 14.638801,-3.1911667 14.574821,-3.1428637 14.493363,-3.1428637 C 14.411564,-3.1428637 14.347415,-3.1911667 14.300915,-3.2877717 C 14.254755,-3.3849967 14.231675,-3.5187587 14.231675,-3.6890577 C 14.231675,-3.8599747 14.254755,-3.9937367 14.300915,-4.0903427 C 14.347415,-4.1869477 14.411564,-4.2352507 14.493363,-4.2352517 M 15.353775,-4.0104577 C 15.377194,-4.0872457 15.405195,-4.1439077 15.43778,-4.1804457 C 15.470363,-4.2169817 15.508716,-4.2352507 15.552841,-4.2352517 C 15.612237,-4.2352507 15.658058,-4.1971647 15.690303,-4.1209957 C 15.722547,-4.0454447 15.738669,-3.9376927 15.738669,-3.7977387 L 15.738669,-3.1698017 L 15.644482,-3.1698017 L 15.644482,-3.7921657 C 15.644482,-3.8918667 15.634808,-3.9658687 15.615463,-4.0141727 C 15.596115,-4.0624747 15.566586,-4.0866257 15.526876,-4.0866267 C 15.478339,-4.0866257 15.439985,-4.0572107 15.411815,-3.9983817 C 15.383643,-3.9395497 15.369557,-3.8593557 15.369558,-3.7577967 L 15.369558,-3.1698017 L 15.275371,-3.1698017 L 15.275371,-3.7921657 C 15.27537,-3.8924857 15.265697,-3.9664887 15.246351,-4.0141727 C 15.227004,-4.0624747 15.197136,-4.0866257 15.156746,-4.0866267 C 15.108888,-4.0866257 15.070874,-4.0569017 15.042703,-3.9974527 C 15.014531,-3.9386217 15.000446,-3.8587357 15.000446,-3.7577967 L 15.000446,-3.1698017 L 14.906259,-3.1698017 L 14.906259,-4.2101707 L 15.000446,-4.2101707 L 15.000446,-4.0485427 C 15.021829,-4.1123257 15.047455,-4.1593897 15.077323,-4.1897347 C 15.107191,-4.2200787 15.14266,-4.2352507 15.183729,-4.2352517 C 15.225137,-4.2352507 15.260266,-4.2160527 15.289117,-4.1776597 C 15.318306,-4.1392637 15.339859,-4.0835297 15.353775,-4.0104577"
         style="font-size:4px;font-style:normal;font-weight:normal;fill:#d40000;fill-opacity:1;stroke:none;stroke-width:1px;stroke-linecap:butt;stroke-linejoin:miter;stroke-opacity:1;font-family:Bitstream Vera Sans"
         sodipodi:nodetypes="csssccccccssscccsssssssccsssssssccsssssssccssssssscccccccsccccsccccccccccsssccccsssccccccssssscccccccssssscccsssccssscccccccsssssssccsssssssccccsssssssssssssssccssssssssssssssscccsssssssccsssccsssccssssssscccccsssccccsssccccsssccccccsssccssssscccccccssssscccsssccssscccccccccccccccccccccccsssssssccsssssssccsssssssccsssssssccsssccccsssccccsssccccccsssc" />
    </g>
  </g>
  <g
     id="g2981">
    <g
       transform="translate(-3.4332925,-2.49694)"
       id="g2832">
      <path
         style="fill:#000000;fill-opacity:0.03703703;fill-rule:evenodd;stroke:none;stroke-width:2.70000005;stroke-linecap:round;stroke-linejoin:round;stroke-miterlimit:4;stroke-dasharray:none;stroke-opacity:1"
         d="M 187.03388,14.289655 C 141.33285,24.369335 94.158351,32.256322 47.252628,26.727155 C 40.494306,31.92806 43.497489,42.021584 41.289733,49.313782 C 33.216082,115.55478 31.92582,183.33035 45.065128,249.0084 C 56.214738,256.06213 70.626692,254.45533 83.408812,255.34066 C 140.58448,254.92289 194.7695,228.81756 252.28388,233.4459 C 258.00862,230.15282 252.63372,223.42194 250.97138,219.22715 C 234.4249,173.07479 240.61973,123.10855 246.12747,75.50986 C 249.10923,60.411332 237.10303,48.146038 227.55629,38.259892 C 216.859,28.363075 204.706,19.90724 191.84638,13.195905 C 190.24221,13.560488 188.63805,13.925072 187.03388,14.289655 z"
         id="path2828" />
      <path
         style="fill:#000000;fill-opacity:0.07407406;fill-rule:evenodd;stroke:none;stroke-width:2.70000005;stroke-linecap:round;stroke-linejoin:round;stroke-miterlimit:4;stroke-dasharray:none;stroke-opacity:1"
         d="M 182.35215,12.542543 C 136.5654,22.638882 89.291899,30.541451 42.227155,25.011293 C 37.236694,30.235563 39.339145,39.097005 37.508405,45.730043 C 29.300296,112.1858 27.976368,180.19703 41.133405,246.10504 C 52.05095,251.70156 65.380566,250.9849 77.508339,251.6248 C 135.11608,251.48535 189.54285,225.00121 247.4459,229.73004 C 251.87725,225.83126 245.39417,220.00566 244.8209,215.57379 C 228.00548,168.59566 235.19166,117.74082 240.59221,69.356425 C 241.61624,57.764058 232.82806,48.410164 225.91024,40.164305 C 214.71079,28.491438 201.0171,19.459078 187.16465,11.448793 C 185.56048,11.813376 183.95632,12.17796 182.35215,12.542543 z"
         id="path2824" />
      <path
         style="fill:#000000;fill-opacity:0.07407406;fill-rule:evenodd;stroke:none;stroke-width:2.70000005;stroke-linecap:round;stroke-linejoin:round;stroke-miterlimit:4;stroke-dasharray:none;stroke-opacity:1"
         d="M 179.85767,11.877628 C 133.94757,22.003246 86.509667,29.931249 39.388921,24.377628 C 36.310073,29.936467 37.187197,37.751666 35.768747,44.214017 C 27.578367,110.56853 26.262947,178.47533 39.388921,244.28388 C 50.024665,248.36261 62.304208,248.63527 73.795075,248.99099 C 131.70255,249.14074 186.59184,222.28207 244.79517,227.09638 C 246.87092,223.56375 241.59967,218.07948 241.02727,213.68217 C 224.80063,168.66802 231.11032,119.80228 236.17017,73.283878 C 237.20142,67.111783 237.76802,60.778242 234.10767,55.346378 C 223.61041,35.142749 203.23704,22.538702 184.67017,10.783878 C 183.066,11.148462 181.46184,11.513045 179.85767,11.877628 z"
         id="path2820" />
      <path
         style="fill:url(#radialGradient2810);fill-opacity:1;fill-rule:evenodd;stroke:url(#linearGradient2818);stroke-width:2.70000005;stroke-linecap:round;stroke-linejoin:round;stroke-miterlimit:4;stroke-dasharray:none;stroke-opacity:1"
         d="M 32.725858,20.464695 C 77.100848,25.923509 126.74421,18.738237 178.35592,6.8289216 C 199.92514,21.231662 222.18326,35.221059 229.62643,58.09943 C 224.4799,112.46071 214.26347,166.82199 238.35333,221.18328 C 170.71989,215.10512 100.3593,255.51531 33.816718,239.1825 C 19.799598,168.686 22.076388,95.31412 32.725858,20.464695 z"
         id="path1873"
         sodipodi:nodetypes="cccccc" />
      <g
         id="g2792"
         transform="translate(-4.908878,-108.5408)">
        <path
           sodipodi:nodetypes="cccc"
           id="path2766"
           d="M 156.53869,211.36553 C 169.82411,193.91624 190.55962,133.82417 183.81022,113.73339 C 205.37944,128.13613 227.63756,142.12552 235.08073,165.00389 C 213.02229,171.72444 180.94612,215.39807 156.53869,211.36553 z"
           style="fill:url(#linearGradient2798);fill-opacity:1;fill-rule:evenodd;stroke:none;stroke-width:1px;stroke-linecap:butt;stroke-linejoin:miter;stroke-opacity:1" />
        <path
           style="fill:url(#linearGradient2800);fill-opacity:1;fill-rule:evenodd;stroke:none;stroke-width:1px;stroke-linecap:butt;stroke-linejoin:miter;stroke-opacity:1"
           d="M 162.53843,201.54777 C 175.82385,184.09848 188.92333,135.46046 182.17393,115.36968 C 203.74315,129.77242 226.00127,143.76182 233.44444,166.64019 C 211.386,173.36074 186.94586,205.58031 162.53843,201.54777 z"
           id="path2764"
           sodipodi:nodetypes="cccc" />
        <path
           sodipodi:nodetypes="cccc"
           id="path1877"
           d="M 167.44731,190.09372 C 180.73273,172.64443 191.10506,136.00589 184.35566,115.91511 C 205.92488,130.31785 228.183,144.30725 235.62617,167.18562 C 213.56773,173.90617 191.85474,194.12626 167.44731,190.09372 z"
           style="fill:url(#linearGradient2802);fill-opacity:1;fill-rule:evenodd;stroke:none;stroke-width:1px;stroke-linecap:butt;stroke-linejoin:miter;stroke-opacity:1" />
        <path
           style="fill:url(#radialGradient2851);fill-opacity:1;fill-rule:evenodd;stroke:#d4cec1;stroke-width:1px;stroke-linecap:butt;stroke-linejoin:miter;stroke-opacity:1"
           d="M 173.99247,172.0945 C 187.27789,154.64521 190.55962,134.91503 183.81022,114.82425 C 205.37944,129.22699 227.63756,143.21639 235.08073,166.09476 C 213.02229,172.81531 198.3999,176.12704 173.99247,172.0945 z"
           id="path1875"
           sodipodi:nodetypes="cccc" />
      </g>
    </g>
    <g
       transform="translate(203.33333,-74.166667)"
       id="g2961">
      <g
         id="g3012"
         transform="translate(-470.7397,83.736888)">
        <path
           id="path3008"
           d="M 470.34375,45.75 C 465.52645,46.555829 463.90334,54.469251 458.375,51.9375 C 456.068,52.053202 454.24477,56.227876 452.40625,53 C 448.42094,49.30239 440.84049,47.971772 437.96987,53.75849 C 423.47633,69.361791 407.31029,83.680422 393.96875,100.15625 C 393.55353,105.61699 400.97505,103.54449 404,102.59375 C 409.85568,101.59542 417.02429,97.171619 414.46875,90.40625 C 418.50046,85.713486 423.63194,81.941807 427.6875,77.15625 C 433.56977,71.698643 438.67646,64.481005 445.4375,60.65625 C 448.85264,61.608339 444.7974,64.708269 445.4375,66.6875 C 443.20879,72.295948 436.86406,75.273758 433.36944,80.18913 C 402.20051,112.57391 370.65292,144.63427 339.75,177.25 C 336.31167,190.42157 329.06651,202.76277 326.125,215.9375 C 333.78194,216.6395 340.58234,210.63897 347.84375,208.5625 C 357.14074,204.85031 367.56333,201.75204 373.39471,192.94155 C 406.20812,159.45384 438.40688,125.05106 471.59375,92.125 C 478.37469,91.695709 482.16251,84.739472 485.90625,80.0625 C 486.35222,77.205408 484.50208,73.063931 488.5,72.09375 C 495.69291,66.384772 489.85591,55.92142 484.125,51.5 C 480.39152,48.151702 475.56935,45.215663 470.34375,45.75 z"
           style="fill:#000000;fill-opacity:0.11111109;stroke:none;stroke-width:0.65615714;stroke-linecap:round;stroke-linejoin:round;stroke-miterlimit:4;stroke-dashoffset:0;stroke-opacity:1" />
        <path
           id="path3004"
           d="M 471.4375,46.6875 C 466.10016,46.532378 464.89159,55.312813 459.4375,53.03125 C 456.38746,52.106468 455.02958,57.508863 452.53125,54.375 C 448.98855,51.422202 442.57371,48.271306 439.51134,53.589503 C 424.83446,69.133734 409.13053,83.898461 395.0625,99.90625 C 393.81283,104.42613 400.54017,102.4182 402.81776,101.83599 C 407.357,100.78844 416.07513,97.933769 413.46875,91.75 C 412.36118,88.164002 419.46844,85.453861 421.2222,82.157904 C 429.06779,74.839115 436.08307,66.219942 444.375,59.59375 C 447.35432,59.336647 449.3606,62.183903 446.75,64.1875 C 446.46129,67.248176 446.2093,69.690688 443.11733,71.531174 C 409.01171,106.88569 374.68826,142.07105 340.71875,177.53125 C 337.07095,190.44418 330.81747,202.67222 326.9375,215.34375 C 333.42173,214.80208 340.06909,210.14204 346.61123,208.04196 C 355.23185,203.93656 365.50439,202.22578 371.197,193.81452 C 404.47194,159.65278 437.52237,124.86386 470.9375,91.09375 C 477.33137,91.547628 480.62052,84.292482 484.71875,80.46875 C 486.10491,77.25141 482.76676,73.61064 487.24592,71.746227 C 494.43854,67.129563 489.56951,57.911986 484.8125,53.53125 C 481.27432,50.047741 476.63987,46.64928 471.4375,46.6875 z"
           style="fill:#000000;fill-opacity:0.11111109;stroke:none;stroke-width:0.65615714;stroke-linecap:round;stroke-linejoin:round;stroke-miterlimit:4;stroke-dashoffset:0;stroke-opacity:1" />
        <path
           id="path2904"
           d="M 472.04012,47.669105 C 470.5649,47.626364 469.35421,48.014216 468.50887,48.887855 L 462.85262,54.700355 C 461.6266,54.279545 460.49501,54.063038 459.50887,54.044105 C 458.22668,54.019488 457.18065,54.348792 456.47762,55.075355 L 454.79012,56.825355 C 451.1528,55.111094 447.03088,51.227297 443.85262,51.606605 C 443.03389,51.704317 442.30591,52.083452 441.63387,52.856605 L 397.29012,98.419105 C 393.68387,102.64782 397.29791,101.91848 400.32137,101.3566 C 407.10361,100.0962 417.0011,96.465645 411.38387,90.606605 L 442.41512,59.481605 C 444.22751,58.11218 446.05241,58.169001 447.91512,59.856605 L 450.00887,61.731605 L 448.91512,62.887855 C 449.40866,62.533682 450.18776,62.509175 451.13387,62.731605 C 449.90772,62.692016 448.9219,62.983886 448.25887,63.669105 C 447.31408,64.645529 447.17417,66.27148 447.69637,68.262855 L 341.69637,177.82535 C 339.26948,186.14738 333.53846,200.47822 327.79012,214.82535 L 364.22762,199.6066 L 470.32137,89.981605 C 472.2216,90.374575 473.75637,90.170765 474.66512,89.231605 C 475.72627,88.134955 475.75403,86.223315 474.97762,83.887855 C 476.06484,86.035925 476.36795,87.827515 475.47762,88.950355 L 483.19637,80.950355 C 484.4623,79.642075 484.40498,77.277005 483.29012,74.419105 L 488.88387,68.606605 C 491.589,65.810959 489.22176,59.167772 483.57137,53.700355 C 479.68673,49.941505 475.28562,47.763137 472.04012,47.669105 z"
           style="fill:#000000;fill-opacity:0.11111109;stroke:none;stroke-width:0.65615714;stroke-linecap:round;stroke-linejoin:round;stroke-miterlimit:4;stroke-dashoffset:0;stroke-opacity:1" />
      </g>
      <g
         id="g2863"
         transform="matrix(1.100712,1.065067,-1.065067,1.100712,-38.4401,80.095748)">
        <path
           style="fill:url(#linearGradient2917);fill-opacity:1;stroke:#000000;stroke-width:0.42840043;stroke-linecap:round;stroke-linejoin:round;stroke-miterlimit:4;stroke-dashoffset:0;stroke-opacity:1"
           d="M 43.861934,-0.24499563 C 48.995339,-0.24499563 53.128007,1.7997241 53.128007,4.339577 L 53.128007,11.325592 C 52.762534,6.6651823 34.537577,7.7389631 34.595861,11.325592 L 34.595861,4.339577 C 34.595861,1.7997241 38.72853,-0.24499563 43.861934,-0.24499563 z"
           id="path2819"
           sodipodi:nodetypes="cccccc" />
        <path
           style="fill:url(#linearGradient2919);fill-opacity:1;fill-rule:evenodd;stroke:none;stroke-width:0;stroke-linecap:round;stroke-linejoin:round;stroke-miterlimit:4;stroke-dasharray:none;stroke-opacity:1"
           d="M 46.053232,-0.018774079 L 50.104657,1.1687127 L 50.034805,8.3634855 C 48.436521,7.5119545 47.055314,7.5287345 45.634118,7.3855555 L 46.053232,-0.018774079 z"
           id="path2823"
           sodipodi:nodetypes="ccccc" />
        <path
           sodipodi:nodetypes="cccccc"
           id="rect1873"
           d="M 43.914894,7.9432626 C 50.641476,7.9432626 56.056738,10.06888 56.056738,12.70922 L 56.056738,19.971632 C 55.577839,15.126836 31.696678,16.2431 31.77305,19.971632 L 31.77305,12.70922 C 31.77305,10.06888 37.188313,7.9432626 43.914894,7.9432626 z"
           style="fill:url(#linearGradient2921);fill-opacity:1;stroke:#000000;stroke-width:0.5;stroke-linecap:round;stroke-linejoin:round;stroke-miterlimit:4;stroke-dashoffset:0;stroke-opacity:1" />
        <rect
           ry="4.4947567"
           rx="11.755522"
           y="15.976812"
           x="31.809053"
           height="8.9895134"
           width="24.004974"
           id="rect2781"
           style="opacity:1;fill:url(#linearGradient2923);fill-opacity:1;stroke:#000000;stroke-width:0.5;stroke-linecap:round;stroke-linejoin:round;stroke-miterlimit:4;stroke-dasharray:none;stroke-dashoffset:0;stroke-opacity:1" />
        <rect
           rx="4.9411359"
           ry="2.3957024"
           y="20.492859"
           x="38.930164"
           height="98.822723"
           width="9.8822718"
           id="rect2829"
           style="opacity:1;fill:url(#linearGradient2925);fill-opacity:1;stroke:none;stroke-width:0;stroke-linecap:round;stroke-linejoin:round;stroke-miterlimit:4;stroke-dasharray:none;stroke-dashoffset:0;stroke-opacity:1" />
        <path
           style="opacity:0.65306121;fill:url(#linearGradient2927);fill-opacity:1;stroke:#000000;stroke-width:0.45984173;stroke-linecap:round;stroke-linejoin:round;stroke-miterlimit:4;stroke-dashoffset:0;stroke-opacity:1"
           d="M 43.865487,16.616341 C 49.536017,16.616341 54.1011,18.749055 54.1011,21.39821 L 54.1011,122.4041 C 53.697386,117.54313 33.565492,118.66312 33.629874,122.4041 L 33.629874,21.39821 C 33.629874,18.749055 38.194958,16.616341 43.865487,16.616341 z"
           id="path2791"
           sodipodi:nodetypes="cccccc" />
        <path
           sodipodi:nodetypes="ccccc"
           id="path2795"
           d="M 47.429621,8.1336844 L 51.481046,9.3211712 L 51.411194,16.515944 C 49.81291,15.664413 48.431703,15.681193 47.010507,15.538014 L 47.429621,8.1336844 z"
           style="fill:url(#linearGradient2929);fill-opacity:1;fill-rule:evenodd;stroke:none;stroke-width:0;stroke-linecap:round;stroke-linejoin:round;stroke-miterlimit:4;stroke-dasharray:none;stroke-opacity:1" />
        <path
           style="opacity:0.62244897;fill:url(#linearGradient2931);fill-opacity:1;fill-rule:evenodd;stroke:none;stroke-width:0;stroke-linecap:round;stroke-linejoin:round;stroke-miterlimit:4;stroke-dasharray:none;stroke-opacity:1"
           d="M 46.680964,16.967837 L 50.732389,18.155323 L 50.662537,119.24049 C 49.064253,118.38896 47.683046,118.40574 46.26185,118.26256 L 46.680964,16.967837 z"
           id="path2805"
           sodipodi:nodetypes="ccccc" />
        <path
           sodipodi:nodetypes="cccccsccc"
           id="path2809"
           d="M 32.609834,12.700944 L 32.609834,17.465368 L 29.962932,17.571244 C 28.322769,17.625098 27.438801,18.435148 27.210154,19.900518 L 26.786649,48.592937 C 32.082297,48.791735 29.079012,54.980606 26.469021,58.651165 C 25.30551,60.287468 23.94405,62.272539 23.716243,58.651165 L 23.822119,17.14774 C 23.631759,13.585742 29.650474,14.163128 32.609834,12.700944 z"
           style="fill:#ababab;fill-opacity:1;fill-rule:evenodd;stroke:url(#linearGradient2933);stroke-width:0.80000001;stroke-linecap:round;stroke-linejoin:round;stroke-miterlimit:4;stroke-dasharray:none;stroke-opacity:1" />
        <rect
           y="18.100624"
           x="24.457375"
           height="41.397549"
           width="0.74113262"
           id="rect2827"
           style="opacity:1;fill:#fff9f9;fill-opacity:0.6719577;stroke:#000000;stroke-width:0;stroke-linecap:round;stroke-linejoin:round;stroke-miterlimit:4;stroke-dasharray:none;stroke-dashoffset:0;stroke-opacity:1" />
        <path
           sodipodi:nodetypes="cccc"
           id="path2839"
           d="M 43.918305,146.07198 L 54.1011,122.4041 C 53.697386,117.54313 33.565492,118.66312 33.629874,122.4041 C 36.269423,127.41062 40.101752,136.73053 43.918305,146.07198 z"
           style="opacity:1;fill:url(#linearGradient2935);fill-opacity:1;stroke:#000000;stroke-width:0.30000001;stroke-linecap:round;stroke-linejoin:round;stroke-miterlimit:4;stroke-dasharray:none;stroke-dashoffset:0;stroke-opacity:1" />
        <path
           style="opacity:1;fill:url(#linearGradient2937);fill-opacity:1;stroke:none;stroke-width:0;stroke-linecap:round;stroke-linejoin:round;stroke-miterlimit:4;stroke-dasharray:none;stroke-dashoffset:0;stroke-opacity:1"
           d="M 43.918305,146.07198 L 54.1011,122.4041 C 53.697386,117.54313 33.565492,118.66312 33.629874,122.4041 C 36.269423,127.41062 40.101752,136.73053 43.918305,146.07198 z"
           id="path2843"
           sodipodi:nodetypes="cccc" />
        <rect
           rx="1.6293595"
           ry="0.91244125"
           y="142.07767"
           x="42.363342"
           height="6.3870888"
           width="3.258719"
           id="rect2853"
           style="opacity:1;fill:url(#linearGradient2939);fill-opacity:1;stroke:none;stroke-width:0;stroke-linecap:round;stroke-linejoin:round;stroke-miterlimit:4;stroke-dasharray:none;stroke-dashoffset:0;stroke-opacity:1" />
      </g>
    </g>
  </g>
</svg>
