<?xml version="1.0" encoding="UTF-8" standalone="no"?>
<!-- Created with Inkscape (http://www.inkscape.org/) -->
<svg
   xmlns:dc="http://purl.org/dc/elements/1.1/"
   xmlns:cc="http://web.resource.org/cc/"
   xmlns:rdf="http://www.w3.org/1999/02/22-rdf-syntax-ns#"
   xmlns:svg="http://www.w3.org/2000/svg"
   xmlns="http://www.w3.org/2000/svg"
   xmlns:xlink="http://www.w3.org/1999/xlink"
   xmlns:sodipodi="http://sodipodi.sourceforge.net/DTD/sodipodi-0.dtd"
   xmlns:inkscape="http://www.inkscape.org/namespaces/inkscape"
   width="256"
   height="256"
   id="svg2"
   sodipodi:version="0.32"
   inkscape:version="0.44"
   version="1.0"
   sodipodi:docbase="/media/disk-hda3/svg1/aktion"
   sodipodi:docname="pasvord.svg">
  <defs
     id="defs4">
    <linearGradient
       inkscape:collect="always"
       id="linearGradient8734">
      <stop
         style="stop-color:#7a7a7a;stop-opacity:1;"
         offset="0"
         id="stop8736" />
      <stop
         style="stop-color:#fff3f3;stop-opacity:1"
         offset="1"
         id="stop8738" />
    </linearGradient>
    <linearGradient
       inkscape:collect="always"
       id="linearGradient2815">
      <stop
         style="stop-color:#979249;stop-opacity:1"
         offset="0"
         id="stop2817" />
      <stop
         style="stop-color:#f1e76c;stop-opacity:1"
         offset="1"
         id="stop2819" />
    </linearGradient>
    <linearGradient
       inkscape:collect="always"
       id="linearGradient2807">
      <stop
         style="stop-color:#526ef2;stop-opacity:0.49803922"
         offset="0"
         id="stop2809" />
      <stop
         style="stop-color:#afbaea;stop-opacity:0.49803922"
         offset="1"
         id="stop2811" />
    </linearGradient>
    <linearGradient
       inkscape:collect="always"
       xlink:href="#linearGradient2807"
       id="linearGradient2813"
       x1="230.2258"
       y1="198.9222"
       x2="35.003796"
       y2="46.062618"
       gradientUnits="userSpaceOnUse" />
    <linearGradient
       inkscape:collect="always"
       xlink:href="#linearGradient2815"
       id="linearGradient2821"
       x1="187.42125"
       y1="189.6926"
       x2="57.891842"
       y2="51.734344"
       gradientUnits="userSpaceOnUse" />
    <linearGradient
       y2="57.261162"
       x2="-45.416462"
       y1="24.553545"
       x1="-65.28624"
       spreadMethod="reflect"
       gradientTransform="translate(138.3783,5.031941)"
       gradientUnits="userSpaceOnUse"
       id="linearGradient2820"
       xlink:href="#linearGradient2772"
       inkscape:collect="always" />
    <linearGradient
       y2="29.160112"
       x2="47.504581"
       y1="70.988121"
       x1="40.384521"
       spreadMethod="reflect"
       gradientUnits="userSpaceOnUse"
       id="linearGradient2818"
       xlink:href="#linearGradient2772"
       inkscape:collect="always" />
    <radialGradient
       r="21.857494"
       fy="40.412785"
       fx="-78.781326"
       cy="40.412785"
       cx="-78.781326"
       gradientTransform="matrix(1.460205,-2.573059e-2,2.877708e-2,1.633093,35.09259,-27.61216)"
       gradientUnits="userSpaceOnUse"
       id="radialGradient2816"
       xlink:href="#linearGradient2760"
       inkscape:collect="always" />
    <linearGradient
       y2="82.085342"
       x2="-26.232187"
       y1="121.71188"
       x1="-97.993858"
       gradientTransform="translate(136.8059,3.144963)"
       gradientUnits="userSpaceOnUse"
       id="linearGradient2814"
       xlink:href="#linearGradient2800"
       inkscape:collect="always" />
    <linearGradient
       gradientTransform="translate(136.8059,3.144963)"
       gradientUnits="userSpaceOnUse"
       y2="82.085342"
       x2="-26.232187"
       y1="121.71188"
       x1="-97.993858"
       id="linearGradient2806"
       xlink:href="#linearGradient2800"
       inkscape:collect="always" />
    <linearGradient
       spreadMethod="reflect"
       gradientUnits="userSpaceOnUse"
       y2="29.160112"
       x2="47.504581"
       y1="70.988121"
       x1="40.384521"
       id="linearGradient2796"
       xlink:href="#linearGradient2772"
       inkscape:collect="always" />
    <linearGradient
       gradientTransform="translate(138.3783,5.031941)"
       spreadMethod="reflect"
       gradientUnits="userSpaceOnUse"
       y2="57.261162"
       x2="-45.416462"
       y1="24.553545"
       x1="-65.28624"
       id="linearGradient2778"
       xlink:href="#linearGradient2772"
       inkscape:collect="always" />
    <radialGradient
       gradientUnits="userSpaceOnUse"
       gradientTransform="matrix(1.460205,-2.573059e-2,2.877708e-2,1.633093,35.09259,-27.61216)"
       r="21.857494"
       fy="40.412785"
       fx="-78.781326"
       cy="40.412785"
       cx="-78.781326"
       id="radialGradient2768"
       xlink:href="#linearGradient2760"
       inkscape:collect="always" />
    <linearGradient
       id="linearGradient2760"
       inkscape:collect="always">
      <stop
         id="stop2762"
         offset="0"
         style="stop-color:#fbf7db;stop-opacity:1" />
      <stop
         id="stop2764"
         offset="1"
         style="stop-color:#eaba21;stop-opacity:1" />
    </linearGradient>
    <linearGradient
       id="linearGradient2772"
       inkscape:collect="always">
      <stop
         id="stop2774"
         offset="0"
         style="stop-color:#9fb3e7;stop-opacity:1" />
      <stop
         id="stop2776"
         offset="1"
         style="stop-color:#686d67;stop-opacity:1" />
    </linearGradient>
    <linearGradient
       id="linearGradient2800"
       inkscape:collect="always">
      <stop
         id="stop2802"
         offset="0"
         style="stop-color:#14a8f1;stop-opacity:1" />
      <stop
         id="stop2804"
         offset="1"
         style="stop-color:#13445d;stop-opacity:1" />
    </linearGradient>
    <radialGradient
       inkscape:collect="always"
       xlink:href="#linearGradient8734"
       id="radialGradient8740"
       cx="-60.963943"
       cy="64.877663"
       fx="-60.963943"
       fy="64.877663"
       r="16.844402"
       gradientTransform="matrix(1,0,0,1.346063,0,-23.45085)"
       gradientUnits="userSpaceOnUse"
       spreadMethod="reflect" />
    <radialGradient
       inkscape:collect="always"
       xlink:href="#linearGradient8734"
       id="radialGradient8743"
       gradientUnits="userSpaceOnUse"
       gradientTransform="matrix(1,0,0,1.346063,274.9449,-18.1074)"
       spreadMethod="reflect"
       cx="-60.963943"
       cy="64.877663"
       fx="-60.963943"
       fy="64.877663"
       r="16.844402" />
    <radialGradient
       inkscape:collect="always"
       xlink:href="#linearGradient8734"
       id="radialGradient8753"
       cx="89.867172"
       cy="34.489574"
       fx="89.867172"
       fy="34.489574"
       r="15.144213"
       gradientTransform="matrix(1,0,0,1.41699,0,-14.38182)"
       gradientUnits="userSpaceOnUse"
       spreadMethod="reflect" />
    <radialGradient
       inkscape:collect="always"
       xlink:href="#linearGradient8734"
       id="radialGradient8756"
       gradientUnits="userSpaceOnUse"
       gradientTransform="matrix(1,0,0,1.41699,122.4137,-6.123755)"
       spreadMethod="reflect"
       cx="89.867172"
       cy="34.489574"
       fx="89.867172"
       fy="34.489574"
       r="15.144213" />
  </defs>
  <sodipodi:namedview
     id="base"
     pagecolor="#ffffff"
     bordercolor="#666666"
     borderopacity="1.0"
     inkscape:pageopacity="0.0"
     inkscape:pageshadow="2"
     inkscape:zoom="2.0585938"
     inkscape:cx="128"
     inkscape:cy="128"
     inkscape:document-units="px"
     inkscape:current-layer="layer1"
     width="256px"
     height="256px"
     inkscape:window-width="1024"
     inkscape:window-height="741"
     inkscape:window-x="0"
     inkscape:window-y="0" />
  <metadata
     id="metadata7">
    <rdf:RDF>
      <cc:Work
         rdf:about="">
        <dc:format>image/svg+xml</dc:format>
        <dc:type
           rdf:resource="http://purl.org/dc/dcmitype/StillImage" />
      </cc:Work>
    </rdf:RDF>
  </metadata>
  <g
     inkscape:label="1. réteg"
     inkscape:groupmode="layer"
     id="layer1">
    <g
       id="g8758">
      <g
         transform="translate(-2.914611,22.83112)"
         id="g8702">
        <path
           style="opacity:1;fill:url(#linearGradient2821);fill-opacity:1;stroke:url(#linearGradient2813);stroke-width:6;stroke-linecap:round;stroke-linejoin:round;stroke-miterlimit:4;stroke-dasharray:none;stroke-opacity:1"
           d="M 43.21875,49.0625 C 31.915889,49.0625 22.84375,58.165887 22.84375,69.46875 L 22.84375,172.9375 C 22.84375,184.24036 31.915887,193.34375 43.21875,193.34375 L 222,193.34375 C 233.30286,193.34375 242.40625,184.24036 242.40625,172.9375 L 242.40625,69.46875 C 242.40625,58.165889 233.30286,49.0625 222,49.0625 L 43.21875,49.0625 z M 219.09375,61.21875 C 224.18849,61.218751 228.3125,65.34276 228.3125,70.4375 C 228.3125,75.532244 224.18849,79.65625 219.09375,79.65625 C 213.99901,79.656249 209.84375,75.53224 209.84375,70.4375 C 209.84375,65.342763 213.99901,61.21875 219.09375,61.21875 z "
           id="rect1918" />
        <rect
           style="opacity:1;fill:#d0d6f1;fill-opacity:0.49803922;stroke:#7a7a7a;stroke-width:0.5;stroke-linecap:round;stroke-linejoin:round;stroke-miterlimit:4;stroke-dasharray:none;stroke-opacity:1"
           id="rect2826"
           width="58.777988"
           height="70.922203"
           x="46.148006"
           y="61.6926" />
        <g
           transform="matrix(0.524673,0,0,0.49377,36.48342,64.04646)"
           id="g2808">
          <path
             style="fill:url(#linearGradient2814);fill-opacity:1;fill-rule:evenodd;stroke:none;stroke-width:0;stroke-linecap:butt;stroke-linejoin:miter;stroke-miterlimit:4;stroke-dasharray:none;stroke-opacity:1"
             d="M 39.31204,120.13759 C 42.64868,34.363965 99.107992,47.844986 110.07371,115.73464 C 84.711143,124.89544 59.728965,132.4079 39.31204,120.13759 z "
             id="path2798"
             sodipodi:nodetypes="ccc" />
          <path
             sodipodi:type="arc"
             style="opacity:1;fill:url(#radialGradient2816);fill-opacity:1;stroke:none;stroke-width:0;stroke-miterlimit:4;stroke-dasharray:none;stroke-opacity:1"
             id="path1873"
             sodipodi:cx="-68.717445"
             sodipodi:cy="40.412777"
             sodipodi:rx="21.857494"
             sodipodi:ry="29.09091"
             d="M -46.859951 40.412777 A 21.857494 29.09091 0 1 1  -90.57494,40.412777 A 21.857494 29.09091 0 1 1  -46.859951 40.412777 z"
             transform="translate(134.9189,7.233415)" />
          <path
             style="fill:url(#linearGradient2818);fill-opacity:1;fill-rule:evenodd;stroke:none;stroke-width:0;stroke-linecap:butt;stroke-linejoin:miter;stroke-miterlimit:4;stroke-dasharray:none;stroke-opacity:1"
             d="M 59.125307,26.732187 C 51.804091,30.828823 42.652493,33.580972 46.702703,52.363636 C 52.389427,69.141382 58.807461,86.531846 34.280098,77.995086 C 56.699785,81.602302 34.627812,45.569117 41.684953,29.783766 C 49.724654,13.467742 92.144554,5.6218308 59.125307,26.732187 z "
             id="path2780"
             sodipodi:nodetypes="ccccc" />
          <path
             style="fill:url(#linearGradient2820);fill-opacity:1;fill-rule:evenodd;stroke:none;stroke-width:0;stroke-linecap:butt;stroke-linejoin:miter;stroke-miterlimit:4;stroke-dasharray:none;stroke-opacity:1"
             d="M 58.81081,27.361179 C 91.007957,33.465148 66.285854,123.02955 119.1941,66.987715 C 75.684151,89.894815 111.23755,-25.231009 58.81081,27.361179 z "
             id="path2770"
             sodipodi:nodetypes="ccc" />
        </g>
        <path
           style="font-size:14px;font-style:normal;font-weight:bold;fill:blue;fill-opacity:1;stroke:none;stroke-width:1px;stroke-linecap:butt;stroke-linejoin:miter;stroke-opacity:1;font-family:Bitstream Vera Sans"
           d="M 127.58497,109.77876 L 130.2168,109.77876 L 130.2168,113.50434 L 134.01075,109.77876 L 137.06641,109.77876 L 132.15137,114.61177 L 137.57227,119.98482 L 134.27735,119.98482 L 130.2168,115.96528 L 130.2168,119.98482 L 127.58497,119.98482 L 127.58497,109.77876 M 138.33106,112.32856 L 140.77832,112.32856 L 140.77832,119.98482 L 138.33106,119.98482 L 138.33106,112.32856 M 138.33106,109.34809 L 140.77832,109.34809 L 140.77832,111.34419 L 138.33106,111.34419 L 138.33106,109.34809 M 149.125,112.56782 L 149.125,114.4272 C 148.60091,114.20845 148.09505,114.04439 147.60743,113.93501 C 147.11979,113.82564 146.65951,113.77095 146.22657,113.77095 C 145.76172,113.77095 145.41537,113.8302 145.1875,113.94868 C 144.96419,114.06262 144.85254,114.24035 144.85254,114.48188 C 144.85254,114.67785 144.93685,114.82824 145.10547,114.93306 C 145.27865,115.03788 145.58626,115.11535 146.02832,115.16548 L 146.45899,115.227 C 147.71224,115.38651 148.55534,115.64855 148.98829,116.01313 C 149.42122,116.37772 149.63769,116.94966 149.6377,117.72896 C 149.63769,118.54471 149.33691,119.15767 148.73536,119.56782 C 148.13379,119.97798 147.236,120.18306 146.042,120.18306 C 145.53613,120.18306 145.01205,120.14204 144.46973,120.06001 C 143.93197,119.98254 143.37826,119.86405 142.8086,119.70454 L 142.8086,117.84517 C 143.29623,118.08215 143.79525,118.25988 144.30567,118.37837 C 144.82064,118.49686 145.34245,118.55611 145.8711,118.55611 C 146.34961,118.55611 146.70964,118.49003 146.95118,118.35786 C 147.19271,118.2257 147.31348,118.02974 147.31348,117.76997 C 147.31348,117.55123 147.22917,117.38944 147.06055,117.28462 C 146.89648,117.17525 146.56608,117.09094 146.06934,117.03169 L 145.63868,116.977 C 144.54948,116.84029 143.78614,116.58736 143.34864,116.21821 C 142.91114,115.84908 142.69239,115.28853 142.69239,114.53657 C 142.69239,113.72538 142.97038,113.12382 143.52637,112.73188 C 144.08236,112.33996 144.93457,112.144 146.08301,112.14399 C 146.53418,112.144 147.00814,112.17818 147.50489,112.24653 C 148.00163,112.3149 148.54166,112.422 149.125,112.56782 M 157.46485,112.56782 L 157.46485,114.4272 C 156.94075,114.20845 156.43489,114.04439 155.94727,113.93501 C 155.45963,113.82564 154.99935,113.77095 154.56641,113.77095 C 154.10156,113.77095 153.75521,113.8302 153.52735,113.94868 C 153.30404,114.06262 153.19238,114.24035 153.19239,114.48188 C 153.19238,114.67785 153.27669,114.82824 153.44532,114.93306 C 153.61849,115.03788 153.92611,115.11535 154.36817,115.16548 L 154.79883,115.227 C 156.05208,115.38651 156.89518,115.64855 157.32813,116.01313 C 157.76106,116.37772 157.97754,116.94966 157.97754,117.72896 C 157.97754,118.54471 157.67676,119.15767 157.0752,119.56782 C 156.47363,119.97798 155.57585,120.18306 154.38184,120.18306 C 153.87598,120.18306 153.35189,120.14204 152.80957,120.06001 C 152.27181,119.98254 151.7181,119.86405 151.14844,119.70454 L 151.14844,117.84517 C 151.63607,118.08215 152.13509,118.25988 152.64551,118.37837 C 153.16048,118.49686 153.68229,118.55611 154.21094,118.55611 C 154.68945,118.55611 155.04948,118.49003 155.29102,118.35786 C 155.53255,118.2257 155.65332,118.02974 155.65332,117.76997 C 155.65332,117.55123 155.56901,117.38944 155.4004,117.28462 C 155.23633,117.17525 154.90592,117.09094 154.40918,117.03169 L 153.97852,116.977 C 152.88932,116.84029 152.12598,116.58736 151.68848,116.21821 C 151.25098,115.84908 151.03223,115.28853 151.03223,114.53657 C 151.03223,113.72538 151.31022,113.12382 151.86622,112.73188 C 152.4222,112.33996 153.27442,112.144 154.42286,112.14399 C 154.87402,112.144 155.34798,112.17818 155.84473,112.24653 C 156.34147,112.3149 156.88151,112.422 157.46485,112.56782 M 164.79981,109.77876 L 168.14942,109.77876 L 170.47364,115.24067 L 172.81153,109.77876 L 176.1543,109.77876 L 176.1543,119.98482 L 173.66602,119.98482 L 173.66602,112.51997 L 171.31446,118.0229 L 169.64649,118.0229 L 167.29493,112.51997 L 167.29493,119.98482 L 164.79981,119.98482 L 164.79981,109.77876 M 186.27832,116.13618 L 186.27832,116.83345 L 180.55665,116.83345 C 180.61589,117.40767 180.82324,117.83833 181.17872,118.12544 C 181.53418,118.41255 182.03092,118.55611 182.66895,118.55611 C 183.18392,118.55611 183.71028,118.48091 184.24805,118.33052 C 184.79036,118.17557 185.34635,117.94315 185.91602,117.63325 L 185.91602,119.51997 C 185.33724,119.73872 184.75846,119.90279 184.17969,120.01216 C 183.60091,120.12609 183.02213,120.18306 182.44336,120.18306 C 181.05794,120.18306 179.98015,119.83215 179.20997,119.13032 C 178.44434,118.42395 178.06153,117.43501 178.06153,116.16352 C 178.06153,114.91483 178.4375,113.93274 179.18946,113.21723 C 179.94597,112.50175 180.98503,112.144 182.30665,112.14399 C 183.50976,112.144 184.47135,112.5063 185.19141,113.23091 C 185.91601,113.95552 186.27832,114.92395 186.27832,116.13618 M 183.7627,115.3227 C 183.76269,114.85787 183.62598,114.48417 183.35254,114.20161 C 183.08366,113.91451 182.73047,113.77095 182.29297,113.77095 C 181.81901,113.77095 181.43392,113.90539 181.1377,114.17427 C 180.84147,114.43859 180.6569,114.82141 180.58399,115.3227 L 183.7627,115.3227"
           id="text8682" />
        <path
           style="font-size:14px;font-style:normal;font-weight:bold;fill:black;fill-opacity:1;stroke:none;stroke-width:1px;stroke-linecap:butt;stroke-linejoin:miter;stroke-opacity:1;font-family:Bitstream Vera Sans"
           d="M 105.10931,174.02984 L 107.43353,174.02984 L 107.43353,167.43316 L 105.04779,167.92534 L 105.04779,166.13433 L 107.41986,165.64214 L 109.92181,165.64214 L 109.92181,174.02984 L 112.24603,174.02984 L 112.24603,175.84819 L 105.10931,175.84819 L 105.10931,174.02984 M 118.26849,170.81011 C 117.8082,170.81011 117.46185,170.9605 117.22943,171.26128 C 117.00156,171.55751 116.88763,172.00412 116.88763,172.60112 C 116.88763,173.19813 117.00156,173.64703 117.22943,173.9478 C 117.46185,174.24403 117.8082,174.39214 118.26849,174.39214 C 118.73333,174.39214 119.07969,174.24403 119.30756,173.9478 C 119.53997,173.64703 119.65618,173.19813 119.65619,172.60112 C 119.65618,172.00412 119.53997,171.55751 119.30756,171.26128 C 119.07969,170.9605 118.73333,170.81011 118.26849,170.81011 M 121.5224,165.90874 L 121.5224,167.79546 C 121.08945,167.59039 120.68157,167.44 120.29877,167.34429 C 119.91595,167.24404 119.54225,167.19391 119.17767,167.1939 C 118.39381,167.19391 117.78314,167.41266 117.34564,167.85015 C 116.90814,168.2831 116.65293,168.92795 116.58002,169.78472 C 116.88079,169.56142 117.20664,169.39508 117.55756,169.28569 C 117.90846,169.17177 118.29127,169.1148 118.70599,169.1148 C 119.74961,169.1148 120.59043,169.42014 121.22845,170.03081 C 121.87102,170.64149 122.19231,171.4413 122.19232,172.43023 C 122.19231,173.52398 121.83457,174.40126 121.11908,175.06206 C 120.40358,175.71831 119.44427,176.04644 118.24115,176.04644 C 116.91497,176.04644 115.88731,175.59982 115.15814,174.70659 C 114.43353,173.80881 114.07123,172.53733 114.07123,170.89214 C 114.07123,169.20595 114.49505,167.88206 115.34271,166.92046 C 116.19492,165.95432 117.36159,165.47125 118.84271,165.47124 C 119.31211,165.47125 119.76784,165.50771 120.2099,165.58062 C 120.65195,165.65354 121.08945,165.76292 121.5224,165.90874 M 124.42084,165.64214 L 130.96283,165.64214 L 130.96283,167.57671 L 126.51947,167.57671 L 126.51947,169.15581 C 126.71999,169.10113 126.92051,169.06012 127.12103,169.03277 C 127.32611,169.00087 127.53802,168.98492 127.75677,168.98491 C 129.00091,168.98492 129.96933,169.29709 130.66205,169.92144 C 131.35475,170.54123 131.7011,171.40712 131.70111,172.51909 C 131.7011,173.62196 131.32285,174.48557 130.56634,175.10991 C 129.81438,175.73426 128.76849,176.04644 127.42865,176.04644 C 126.84987,176.04644 126.27565,175.98947 125.70599,175.87554 C 125.14089,175.76616 124.57806,175.59754 124.01752,175.36968 L 124.01752,173.29839 C 124.5735,173.6174 125.09987,173.85666 125.59662,174.01616 C 126.09792,174.17567 126.5696,174.25542 127.01166,174.25542 C 127.64967,174.25542 128.15097,174.10048 128.51556,173.79058 C 128.8847,173.47613 129.06927,173.0523 129.06927,172.51909 C 129.06927,171.98134 128.8847,171.55751 128.51556,171.24761 C 128.15097,170.93772 127.64967,170.78277 127.01166,170.78277 C 126.6334,170.78277 126.23008,170.8329 125.8017,170.93316 C 125.37331,171.02886 124.91302,171.17925 124.42084,171.38433 L 124.42084,165.64214 M 134.31244,174.02984 L 136.63666,174.02984 L 136.63666,167.43316 L 134.25091,167.92534 L 134.25091,166.13433 L 136.62299,165.64214 L 139.12494,165.64214 L 139.12494,174.02984 L 141.44916,174.02984 L 141.44916,175.84819 L 134.31244,175.84819 L 134.31244,174.02984 M 148.92767,170.34527 C 149.61582,170.523 150.13763,170.8329 150.4931,171.27495 C 150.85312,171.71246 151.03313,172.27072 151.03314,172.94976 C 151.03313,173.96148 150.64576,174.73166 149.87103,175.2603 C 149.09629,175.78439 147.96608,176.04644 146.48041,176.04644 C 145.95632,176.04644 145.42995,176.00314 144.90131,175.91655 C 144.37722,175.83452 143.85768,175.7092 143.34271,175.54058 L 143.34271,173.5103 C 143.8349,173.7564 144.32253,173.94325 144.8056,174.07085 C 145.29323,174.1939 145.77174,174.25542 146.24115,174.25542 C 146.93841,174.25542 147.47161,174.13465 147.84076,173.89312 C 148.21445,173.65158 148.4013,173.30523 148.40131,172.85405 C 148.4013,172.38921 148.20989,172.0383 147.82709,171.80132 C 147.44883,171.55979 146.88828,171.43902 146.14545,171.43902 L 145.09271,171.43902 L 145.09271,169.7437 L 146.20013,169.7437 C 146.86094,169.74371 147.35312,169.64117 147.6767,169.43609 C 148.00026,169.22646 148.16204,168.90973 148.16205,168.48589 C 148.16204,168.09397 148.00482,167.79091 147.69037,167.57671 C 147.37591,167.36253 146.93157,167.25543 146.35736,167.25542 C 145.93353,167.25543 145.50514,167.30328 145.0722,167.39898 C 144.63926,167.49469 144.2086,167.63596 143.78021,167.8228 L 143.78021,165.89507 C 144.29974,165.74925 144.81471,165.63987 145.32513,165.56694 C 145.83555,165.49404 146.33685,165.45758 146.82904,165.45757 C 148.15521,165.45758 149.14642,165.67633 149.80267,166.11382 C 150.46347,166.54677 150.79388,167.20074 150.79388,168.07573 C 150.79388,168.67275 150.63665,169.16265 150.3222,169.54546 C 150.00774,169.92372 149.5429,170.19032 148.92767,170.34527 M 153.62396,165.64214 L 160.16595,165.64214 L 160.16595,167.57671 L 155.72259,167.57671 L 155.72259,169.15581 C 155.92311,169.10113 156.12363,169.06012 156.32416,169.03277 C 156.52923,169.00087 156.74114,168.98492 156.9599,168.98491 C 158.20403,168.98492 159.17246,169.29709 159.86517,169.92144 C 160.55787,170.54123 160.90423,171.40712 160.90424,172.51909 C 160.90423,173.62196 160.52597,174.48557 159.76947,175.10991 C 159.01751,175.73426 157.97161,176.04644 156.63177,176.04644 C 156.05299,176.04644 155.47878,175.98947 154.90912,175.87554 C 154.34401,175.76616 153.78119,175.59754 153.22064,175.36968 L 153.22064,173.29839 C 153.77663,173.6174 154.303,173.85666 154.79974,174.01616 C 155.30104,174.17567 155.77272,174.25542 156.21478,174.25542 C 156.8528,174.25542 157.3541,174.10048 157.71869,173.79058 C 158.08782,173.47613 158.27239,173.0523 158.2724,172.51909 C 158.27239,171.98134 158.08782,171.55751 157.71869,171.24761 C 157.3541,170.93772 156.8528,170.78277 156.21478,170.78277 C 155.83652,170.78277 155.4332,170.8329 155.00482,170.93316 C 154.57643,171.02886 154.11615,171.17925 153.62396,171.38433 L 153.62396,165.64214 M 163.51556,174.02984 L 165.83978,174.02984 L 165.83978,167.43316 L 163.45404,167.92534 L 163.45404,166.13433 L 165.82611,165.64214 L 168.32806,165.64214 L 168.32806,174.02984 L 170.65228,174.02984 L 170.65228,175.84819 L 163.51556,175.84819 L 163.51556,174.02984 M 173.24994,174.02984 L 175.57416,174.02984 L 175.57416,167.43316 L 173.18841,167.92534 L 173.18841,166.13433 L 175.56049,165.64214 L 178.06244,165.64214 L 178.06244,174.02984 L 180.38666,174.02984 L 180.38666,175.84819 L 173.24994,175.84819 L 173.24994,174.02984 M 186.21771,171.28179 C 185.72552,171.28179 185.34727,171.41623 185.08295,171.68511 C 184.81862,171.95399 184.68646,172.33908 184.68646,172.84038 C 184.68646,173.34169 184.81862,173.72678 185.08295,173.99566 C 185.34727,174.25998 185.72552,174.39214 186.21771,174.39214 C 186.70534,174.39214 187.07903,174.25998 187.33881,173.99566 C 187.59856,173.72678 187.72845,173.34169 187.72845,172.84038 C 187.72845,172.33453 187.59856,171.94944 187.33881,171.68511 C 187.07903,171.41623 186.70534,171.28179 186.21771,171.28179 M 184.29681,170.41362 C 183.67702,170.22678 183.2099,169.93967 182.89545,169.5523 C 182.58099,169.16493 182.42377,168.68186 182.42377,168.10308 C 182.42377,167.24176 182.74505,166.58551 183.38763,166.13433 C 184.03021,165.68317 184.97357,165.45758 186.21771,165.45757 C 187.45273,165.45758 188.39153,165.68317 189.03412,166.13433 C 189.67669,166.58095 189.99798,167.2372 189.99799,168.10308 C 189.99798,168.68186 189.83847,169.16493 189.51947,169.5523 C 189.20501,169.93967 188.73789,170.22678 188.1181,170.41362 C 188.8108,170.60504 189.33261,170.91721 189.68353,171.35015 C 190.03899,171.77854 190.21673,172.32085 190.21674,172.9771 C 190.21673,173.98882 189.87949,174.75445 189.20502,175.27398 C 188.53509,175.78895 187.53932,176.04644 186.21771,176.04644 C 184.89154,176.04644 183.88893,175.78895 183.2099,175.27398 C 182.53542,174.75445 182.19818,173.98882 182.19818,172.9771 C 182.19818,172.32085 182.37364,171.77854 182.72455,171.35015 C 183.08001,170.91721 183.6041,170.60504 184.29681,170.41362 M 184.91205,168.36968 C 184.91204,168.77529 185.0237,169.08746 185.24701,169.3062 C 185.47487,169.52496 185.79844,169.63433 186.21771,169.63433 C 186.62786,169.63433 186.94459,169.52496 187.16791,169.3062 C 187.39121,169.08746 187.50286,168.77529 187.50287,168.36968 C 187.50286,167.96409 187.39121,167.65419 187.16791,167.43999 C 186.94459,167.22125 186.62786,167.11188 186.21771,167.11187 C 185.79844,167.11188 185.47487,167.22125 185.24701,167.43999 C 185.0237,167.65875 184.91204,167.96865 184.91205,168.36968 M 192.01459,165.64214 L 199.70502,165.64214 L 199.70502,167.12554 L 195.7265,175.84819 L 193.16302,175.84819 L 196.92963,167.57671 L 192.01459,167.57671 L 192.01459,165.64214 M 205.96674,167.80913 L 203.08197,172.08159 L 205.96674,172.08159 L 205.96674,167.80913 M 205.52924,165.64214 L 208.45502,165.64214 L 208.45502,172.08159 L 209.91107,172.08159 L 209.91107,173.98882 L 208.45502,173.98882 L 208.45502,175.84819 L 205.96674,175.84819 L 205.96674,173.98882 L 201.44134,173.98882 L 201.44134,171.73296 L 205.52924,165.64214 M 211.94818,175.62261 L 211.94818,173.73589 C 212.36745,173.93186 212.76849,174.07997 213.15131,174.18023 C 213.53412,174.27593 213.91237,174.32378 214.28607,174.32378 C 215.06992,174.32378 215.6806,174.10731 216.1181,173.67437 C 216.5556,173.23687 216.81308,172.58973 216.89056,171.73296 C 216.58066,171.96083 216.25026,172.13173 215.89935,172.24566 C 215.54844,172.35959 215.1679,172.41656 214.75775,172.41655 C 213.71413,172.41656 212.87103,172.1135 212.22845,171.50737 C 211.59043,170.8967 211.27142,170.09462 211.27142,169.10112 C 211.27142,168.00283 211.62689,167.12327 212.33783,166.46245 C 213.05332,165.80166 214.01035,165.47125 215.20892,165.47124 C 216.53965,165.47125 217.56959,165.92014 218.29877,166.81792 C 219.02792,167.71572 219.39251,168.98492 219.39252,170.62554 C 219.39251,172.31174 218.9664,173.63791 218.1142,174.60405 C 217.26198,175.56564 216.09303,176.04644 214.60736,176.04644 C 214.12884,176.04644 213.67083,176.00998 213.23334,175.93706 C 212.79583,175.8687 212.36745,175.76389 211.94818,175.62261 M 215.19525,170.70757 C 215.65553,170.70758 216.00189,170.55946 216.23431,170.26323 C 216.46673,169.96246 216.58294,169.51357 216.58295,168.91655 C 216.58294,168.32411 216.46673,167.8775 216.23431,167.57671 C 216.00189,167.27594 215.65553,167.12555 215.19525,167.12554 C 214.73496,167.12555 214.38861,167.27594 214.15619,167.57671 C 213.92376,167.8775 213.80755,168.32411 213.80756,168.91655 C 213.80755,169.51357 213.92376,169.96246 214.15619,170.26323 C 214.38861,170.55946 214.73496,170.70758 215.19525,170.70757"
           id="text8687" />
        <path
           style="font-size:14px;font-style:normal;font-weight:bold;fill:black;fill-opacity:1;stroke:none;stroke-width:1px;stroke-linecap:butt;stroke-linejoin:miter;stroke-opacity:1;font-family:Dragonwick"
           d="M 119.35122,136.53385 C 115.16522,137.13585 117.37722,141.74186 116.85922,144.21986 C 116.67722,144.62586 116.71922,145.10186 116.27122,145.43786 C 115.08122,145.53586 114.01721,145.95586 112.89722,146.22186 C 112.54722,146.58586 111.73522,146.40386 111.81922,147.13186 C 112.71522,147.32786 113.56922,147.01986 114.36722,146.79586 C 120.41521,143.35186 127.62522,150.08585 133.05722,144.65386 C 133.29522,144.13586 133.12722,143.57585 132.83322,143.25385 C 130.84522,142.44186 128.05921,142.77786 126.14122,143.53385 L 126.14122,143.68785 C 128.07321,143.21185 130.64922,142.80586 132.55322,143.68785 C 132.04922,144.40186 130.24321,144.79386 128.70322,145.21386 C 124.44722,146.41786 120.93321,145.47986 117.36322,145.21386 C 119.37921,142.87586 118.18922,139.22185 119.71522,136.72985 C 119.58922,136.65985 119.51922,136.44985 119.35122,136.53385 M 139.71815,143.40785 C 138.05216,143.02985 136.00815,142.87586 134.62215,144.06586 C 134.84615,144.90586 133.75415,146.38986 135.12615,146.75386 C 136.86215,147.43986 139.20015,147.39786 140.53015,146.01186 C 140.82415,145.32586 140.34815,144.90586 140.51615,144.17786 L 139.71815,143.40785 M 140.01215,145.11586 C 139.21415,146.20786 137.54815,146.01186 136.27415,145.95586 C 135.84015,145.74586 134.93015,145.67586 135.15415,145.04586 C 136.10615,144.51386 137.52015,144.73786 138.59815,144.76586 C 139.03215,144.97586 139.57815,144.91986 140.01215,145.11586 M 141.3474,138.64785 C 140.8434,140.20185 141.4734,141.44786 141.1794,142.94585 C 141.4874,144.38786 140.8154,145.98386 141.9634,147.11786 C 142.7054,147.32786 143.4054,147.04786 144.0214,146.71186 C 144.1334,145.75986 142.9434,146.73986 142.8034,145.89986 L 143.2374,139.99185 C 142.8454,139.37586 142.1454,138.67585 141.3474,138.64785 M 144.72469,139.93585 C 144.30469,140.32785 144.82269,140.67785 144.87869,141.06985 C 145.20068,141.11185 145.55069,141.36385 145.88669,141.13985 C 146.29268,140.88785 146.79669,140.56585 146.72669,139.99185 C 146.55869,139.05386 145.17268,139.47385 144.72469,139.93585 M 145.53669,143.12785 C 145.07469,143.30985 144.83668,143.68785 144.62669,144.10786 C 144.68269,144.94786 144.50069,146.34786 145.50869,146.83786 C 146.16668,147.04786 146.92269,147.39786 147.58069,147.00586 C 148.14068,146.92186 148.85468,146.40386 148.53269,145.75986 L 148.44869,145.85786 C 147.87469,146.23586 146.86668,146.26386 146.43269,145.60586 C 146.36269,144.76586 146.05469,144.07986 146.39069,143.40785 C 146.37669,142.84786 145.84468,143.19785 145.53669,143.12785 M 157.26278,137.55585 C 156.22678,138.14385 154.33678,138.35386 154.47678,139.94985 C 155.30278,140.78985 156.52078,140.99985 157.76678,141.06985 L 157.97678,140.81785 C 157.08078,140.38385 155.90478,140.60785 155.13478,139.85185 L 155.47078,139.48785 C 156.63278,138.98385 157.93478,138.67585 159.20878,138.49385 L 159.30678,138.61985 C 157.99078,140.01985 158.95678,142.00786 158.90078,143.70185 C 159.33478,144.82186 158.80278,147.04786 160.53878,147.18786 C 161.04278,146.09586 160.70678,144.83586 160.76278,143.68785 L 161.00078,143.46385 C 163.61878,144.06586 166.72678,143.96786 169.34478,143.60385 C 172.11678,142.94586 175.91078,143.04385 176.82078,139.68385 C 176.44278,138.08786 174.80478,137.58385 173.43278,137.16385 C 168.29478,136.19786 162.33077,136.30986 157.26278,137.55585 M 176.02278,139.85185 C 176.79278,140.49585 175.51878,140.80385 175.32278,141.16785 C 172.28478,143.22585 167.97277,143.18385 164.34678,143.40785 C 163.21278,143.14185 161.95278,143.12785 160.90278,142.74985 C 160.76278,141.20986 161.05678,139.96385 161.11278,138.46585 C 164.52878,137.68186 168.08478,138.42385 171.55678,138.39585 C 173.25078,138.64785 174.66478,138.82986 176.02278,139.85185 M 183.44081,143.40785 C 181.77481,143.02985 179.73081,142.87586 178.34481,144.06586 C 178.56881,144.90586 177.47681,146.38986 178.84881,146.75386 C 180.58481,147.43986 182.92281,147.39786 184.25281,146.01186 C 184.54681,145.32586 184.07081,144.90586 184.23881,144.17786 L 183.44081,143.40785 M 183.73481,145.11586 C 182.93681,146.20786 181.27081,146.01186 179.99681,145.95586 C 179.56281,145.74586 178.65281,145.67586 178.87681,145.04586 C 179.82881,144.51386 181.24281,144.73786 182.32081,144.76586 C 182.75481,144.97586 183.30081,144.91986 183.73481,145.11586 M 189.29806,143.29585 C 187.66006,143.02985 186.19006,143.47786 184.97206,144.47186 C 185.19606,145.01786 184.91606,145.87186 185.09806,146.37586 C 185.15406,147.62186 185.05606,148.93786 185.25206,150.15586 C 187.43606,150.12786 185.96606,147.69186 186.79206,146.54386 C 187.85606,146.99186 188.99006,147.48186 190.20806,147.24386 C 191.46806,146.79586 190.72606,145.59186 191.30006,144.56986 C 191.03406,143.64586 190.02606,143.57585 189.29806,143.29585 M 190.09606,145.42386 L 190.11006,145.96986 C 188.61206,146.57186 187.53406,145.94186 186.76406,145.03186 C 187.75806,144.47186 189.24206,143.96786 190.09606,145.42386 M 191.92,139.93585 C 191.5,140.32785 192.018,140.67785 192.074,141.06985 C 192.396,141.11185 192.746,141.36385 193.082,141.13985 C 193.488,140.88785 193.992,140.56585 193.922,139.99185 C 193.754,139.05386 192.368,139.47385 191.92,139.93585 M 192.732,143.12785 C 192.27,143.30985 192.032,143.68785 191.822,144.10786 C 191.878,144.94786 191.696,146.34786 192.704,146.83786 C 193.362,147.04786 194.118,147.39786 194.776,147.00586 C 195.336,146.92186 196.05,146.40386 195.728,145.75986 L 195.644,145.85786 C 195.07,146.23586 194.062,146.26386 193.628,145.60586 C 193.558,144.76586 193.25,144.07986 193.586,143.40785 C 193.572,142.84786 193.04,143.19785 192.732,143.12785 M 196.71106,144.20586 C 196.57106,144.41586 196.34706,144.80786 196.65506,145.01786 C 197.92906,145.40986 199.24506,145.18586 200.60306,145.39586 L 200.89706,145.66186 C 199.62306,146.30586 198.01306,146.10986 196.51506,146.17986 C 196.17906,146.22186 196.41706,146.54386 196.52906,146.68386 C 197.01906,147.39786 197.92906,147.15986 198.60106,147.10386 C 199.37106,146.89386 200.37906,146.79586 200.99506,146.10986 C 201.17706,145.77386 201.45706,145.38186 201.24706,145.00386 C 200.15506,144.13586 198.71306,144.69586 197.46706,144.76586 C 197.28506,144.72386 196.85106,144.80786 196.80906,144.51386 C 198.01306,143.82786 199.58106,143.50586 200.86906,144.20586 C 201.03706,144.07986 201.34506,143.79986 201.21906,143.47785 C 199.73506,142.81986 197.91506,143.28186 196.71106,144.20586"
           id="text8697" />
      </g>
      <path
         sodipodi:nodetypes="csssc"
         id="path8732"
         d="M 216.40986,92.781783 C 212.58881,92.781783 209.12771,90.578337 206.62187,87.017411 C 204.11603,83.456485 202.56546,78.538078 202.56546,73.108158 C 202.56546,62.248318 208.76775,53.434534 216.40986,53.434534 C 224.05197,53.434534 230.25426,57.876401 230.25426,68.736241"
         style="fill:none;fill-opacity:0.49803922;stroke:url(#radialGradient8743);stroke-width:6;stroke-linecap:round;stroke-linejoin:round;stroke-miterlimit:4;stroke-opacity:1" />
      <path
         sodipodi:nodetypes="csscss"
         id="path8745"
         d="M 201.63428,55.798285 C 198.90864,52.457169 197.22205,47.842368 197.22205,42.747628 C 197.22205,32.558148 203.9684,24.288424 212.28087,24.288424 C 220.59334,24.288424 227.3397,32.558148 227.3397,42.747628 C 227.3397,47.842368 225.65311,52.457169 222.92746,55.798285 C 220.20182,59.139401 216.43711,61.206832 212.28087,61.206832"
         style="fill:none;fill-opacity:0.49803922;stroke:url(#radialGradient8756);stroke-width:6;stroke-linecap:round;stroke-linejoin:round;stroke-miterlimit:4;stroke-opacity:1" />
    </g>
  </g>
</svg>
