<?xml version="1.0" encoding="UTF-8" standalone="no"?>
<!-- Created with Inkscape (http://www.inkscape.org/) -->
<svg
   xmlns:dc="http://purl.org/dc/elements/1.1/"
   xmlns:cc="http://creativecommons.org/ns#"
   xmlns:rdf="http://www.w3.org/1999/02/22-rdf-syntax-ns#"
   xmlns:svg="http://www.w3.org/2000/svg"
   xmlns="http://www.w3.org/2000/svg"
   xmlns:xlink="http://www.w3.org/1999/xlink"
   xmlns:sodipodi="http://sodipodi.sourceforge.net/DTD/sodipodi-0.dtd"
   xmlns:inkscape="http://www.inkscape.org/namespaces/inkscape"
   id="svg2"
   sodipodi:version="0.32"
   inkscape:version="0.46"
   width="256"
   height="256"
   version="1.0"
   sodipodi:docname="rss_tag.svg"
   inkscape:output_extension="org.inkscape.output.svg.inkscape">
  <metadata
     id="metadata7">
    <rdf:RDF>
      <cc:Work
         rdf:about="">
        <dc:format>image/svg+xml</dc:format>
        <dc:type
           rdf:resource="http://purl.org/dc/dcmitype/StillImage" />
      </cc:Work>
    </rdf:RDF>
  </metadata>
  <defs
     id="defs5">
    <linearGradient
       id="linearGradient3571">
      <stop
         style="stop-color:#ffffff;stop-opacity:0"
         offset="0"
         id="stop3573" />
      <stop
         id="stop3579"
         offset="0.65965569"
         style="stop-color:#ffffff;stop-opacity:0" />
      <stop
         style="stop-color:#ffffff;stop-opacity:0.49803922;"
         offset="0.94814408"
         id="stop3581" />
      <stop
         style="stop-color:#ffffff;stop-opacity:0;"
         offset="1"
         id="stop3575" />
    </linearGradient>
    <linearGradient
       id="linearGradient3551">
      <stop
         style="stop-color:#000000;stop-opacity:1;"
         offset="0"
         id="stop3553" />
      <stop
         id="stop3559"
         offset="0.27817437"
         style="stop-color:#ffffff;stop-opacity:1" />
      <stop
         style="stop-color:#000000;stop-opacity:1"
         offset="0.66190672"
         id="stop3561" />
      <stop
         id="stop3563"
         offset="0.87146223"
         style="stop-color:#b5b5b5;stop-opacity:1" />
      <stop
         style="stop-color:#ffffff;stop-opacity:1"
         offset="1"
         id="stop3555" />
    </linearGradient>
    <linearGradient
       inkscape:collect="always"
       id="linearGradient3508">
      <stop
         style="stop-color:#393939;stop-opacity:1"
         offset="0"
         id="stop3510" />
      <stop
         style="stop-color:#d0d0d0;stop-opacity:1"
         offset="1"
         id="stop3512" />
    </linearGradient>
    <linearGradient
       inkscape:collect="always"
       id="linearGradient3500">
      <stop
         style="stop-color:#cdcdcd;stop-opacity:1;"
         offset="0"
         id="stop3502" />
      <stop
         style="stop-color:#ffffff;stop-opacity:1"
         offset="1"
         id="stop3504" />
    </linearGradient>
    <linearGradient
       inkscape:collect="always"
       id="linearGradient3492">
      <stop
         style="stop-color:#ffffff;stop-opacity:1"
         offset="0"
         id="stop3494" />
      <stop
         style="stop-color:#5f5f5f;stop-opacity:1"
         offset="1"
         id="stop3496" />
    </linearGradient>
    <inkscape:perspective
       sodipodi:type="inkscape:persp3d"
       inkscape:vp_x="0 : 526.18109 : 1"
       inkscape:vp_y="0 : 1000 : 0"
       inkscape:vp_z="744.09448 : 526.18109 : 1"
       inkscape:persp3d-origin="372.04724 : 350.78739 : 1"
       id="perspective9" />
    <linearGradient
       gradientTransform="matrix(0.4584837,0,0,0.4584837,12.357625,81.058821)"
       y2="50.573639"
       x2="215.89148"
       y1="113.36433"
       x1="155.81395"
       spreadMethod="reflect"
       gradientUnits="userSpaceOnUse"
       id="linearGradient3403"
       xlink:href="#linearGradient3369"
       inkscape:collect="always" />
    <linearGradient
       y2="78.617943"
       x2="-79.282944"
       y1="145.67221"
       x1="-81.182167"
       gradientUnits="userSpaceOnUse"
       id="linearGradient3397"
       xlink:href="#linearGradient3387"
       inkscape:collect="always" />
    <linearGradient
       gradientUnits="userSpaceOnUse"
       y2="78.617943"
       x2="-79.282944"
       y1="145.67221"
       x1="-81.182167"
       id="linearGradient3393"
       xlink:href="#linearGradient3387"
       inkscape:collect="always" />
    <linearGradient
       spreadMethod="reflect"
       gradientUnits="userSpaceOnUse"
       y2="50.573639"
       x2="215.89148"
       y1="113.36433"
       x1="155.81395"
       id="linearGradient3375"
       xlink:href="#linearGradient3369"
       inkscape:collect="always" />
    <linearGradient
       y2="-7.4748664"
       x2="16.093008"
       y1="-7.4748664"
       x1="13.514812"
       spreadMethod="reflect"
       gradientUnits="userSpaceOnUse"
       id="linearGradient2595"
       xlink:href="#linearGradient3578"
       inkscape:collect="always" />
    <linearGradient
       y2="-7.4748664"
       x2="16.093008"
       y1="-7.4748664"
       x1="13.514812"
       spreadMethod="reflect"
       gradientUnits="userSpaceOnUse"
       id="linearGradient2593"
       xlink:href="#linearGradient3578"
       inkscape:collect="always" />
    <linearGradient
       y2="-7.4748664"
       x2="16.093008"
       y1="-7.4748664"
       x1="13.514812"
       spreadMethod="reflect"
       gradientUnits="userSpaceOnUse"
       id="linearGradient2591"
       xlink:href="#linearGradient3578"
       inkscape:collect="always" />
    <linearGradient
       y2="-7.4748664"
       x2="16.093008"
       y1="-7.4748664"
       x1="13.514812"
       spreadMethod="reflect"
       gradientUnits="userSpaceOnUse"
       id="linearGradient2589"
       xlink:href="#linearGradient3578"
       inkscape:collect="always" />
    <linearGradient
       y2="-7.4748664"
       x2="16.093008"
       y1="-7.4748664"
       x1="13.514812"
       spreadMethod="reflect"
       gradientUnits="userSpaceOnUse"
       id="linearGradient2587"
       xlink:href="#linearGradient3578"
       inkscape:collect="always" />
    <linearGradient
       y2="-7.4748664"
       x2="16.093008"
       y1="-7.4748664"
       x1="13.514812"
       spreadMethod="reflect"
       gradientUnits="userSpaceOnUse"
       id="linearGradient2585"
       xlink:href="#linearGradient3578"
       inkscape:collect="always" />
    <linearGradient
       y2="-7.4748664"
       x2="16.093008"
       y1="-7.4748664"
       x1="13.514812"
       spreadMethod="reflect"
       gradientUnits="userSpaceOnUse"
       id="linearGradient2583"
       xlink:href="#linearGradient3578"
       inkscape:collect="always" />
    <linearGradient
       y2="-7.4748664"
       x2="16.093008"
       y1="-7.4748664"
       x1="13.514812"
       spreadMethod="reflect"
       gradientUnits="userSpaceOnUse"
       id="linearGradient2581"
       xlink:href="#linearGradient3578"
       inkscape:collect="always" />
    <linearGradient
       y2="-7.4748664"
       x2="16.093008"
       y1="-7.4748664"
       x1="13.514812"
       spreadMethod="reflect"
       gradientUnits="userSpaceOnUse"
       id="linearGradient2579"
       xlink:href="#linearGradient3578"
       inkscape:collect="always" />
    <linearGradient
       y2="-7.4748664"
       x2="16.093008"
       y1="-7.4748664"
       x1="13.514812"
       spreadMethod="reflect"
       gradientUnits="userSpaceOnUse"
       id="linearGradient2577"
       xlink:href="#linearGradient3578"
       inkscape:collect="always" />
    <linearGradient
       y2="-7.4748664"
       x2="16.093008"
       y1="-7.4748664"
       x1="13.514812"
       spreadMethod="reflect"
       gradientUnits="userSpaceOnUse"
       id="linearGradient2575"
       xlink:href="#linearGradient3578"
       inkscape:collect="always" />
    <linearGradient
       y2="-7.4748664"
       x2="16.093008"
       y1="-7.4748664"
       x1="13.514812"
       spreadMethod="reflect"
       gradientUnits="userSpaceOnUse"
       id="linearGradient2573"
       xlink:href="#linearGradient3578"
       inkscape:collect="always" />
    <linearGradient
       y2="-7.4748664"
       x2="16.093008"
       y1="-7.4748664"
       x1="13.514812"
       spreadMethod="reflect"
       gradientUnits="userSpaceOnUse"
       id="linearGradient2571"
       xlink:href="#linearGradient3578"
       inkscape:collect="always" />
    <linearGradient
       y2="-7.4748664"
       x2="16.093008"
       y1="-7.4748664"
       x1="13.514812"
       spreadMethod="reflect"
       gradientUnits="userSpaceOnUse"
       id="linearGradient2569"
       xlink:href="#linearGradient3578"
       inkscape:collect="always" />
    <linearGradient
       y2="-7.4748664"
       x2="16.093008"
       y1="-7.4748664"
       x1="13.514812"
       spreadMethod="reflect"
       gradientUnits="userSpaceOnUse"
       id="linearGradient2567"
       xlink:href="#linearGradient3578"
       inkscape:collect="always" />
    <linearGradient
       y2="-7.4748664"
       x2="16.093008"
       y1="-7.4748664"
       x1="13.514812"
       spreadMethod="reflect"
       gradientUnits="userSpaceOnUse"
       id="linearGradient2565"
       xlink:href="#linearGradient3578"
       inkscape:collect="always" />
    <linearGradient
       y2="-7.4748664"
       x2="16.093008"
       y1="-7.4748664"
       x1="13.514812"
       spreadMethod="reflect"
       gradientUnits="userSpaceOnUse"
       id="linearGradient2563"
       xlink:href="#linearGradient3578"
       inkscape:collect="always" />
    <linearGradient
       y2="-7.4748664"
       x2="16.093008"
       y1="-7.4748664"
       x1="13.514812"
       spreadMethod="reflect"
       gradientUnits="userSpaceOnUse"
       id="linearGradient2561"
       xlink:href="#linearGradient3578"
       inkscape:collect="always" />
    <linearGradient
       y2="-7.4748664"
       x2="16.093008"
       y1="-7.4748664"
       x1="13.514812"
       spreadMethod="reflect"
       gradientUnits="userSpaceOnUse"
       id="linearGradient2559"
       xlink:href="#linearGradient3578"
       inkscape:collect="always" />
    <linearGradient
       y2="-7.4748664"
       x2="16.093008"
       y1="-7.4748664"
       x1="13.514812"
       spreadMethod="reflect"
       gradientUnits="userSpaceOnUse"
       id="linearGradient2557"
       xlink:href="#linearGradient3578"
       inkscape:collect="always" />
    <linearGradient
       y2="-7.4748664"
       x2="16.093008"
       y1="-7.4748664"
       x1="13.514812"
       spreadMethod="reflect"
       gradientUnits="userSpaceOnUse"
       id="linearGradient2555"
       xlink:href="#linearGradient3578"
       inkscape:collect="always" />
    <linearGradient
       y2="-7.4748664"
       x2="16.093008"
       y1="-7.4748664"
       x1="13.514812"
       spreadMethod="reflect"
       gradientUnits="userSpaceOnUse"
       id="linearGradient2553"
       xlink:href="#linearGradient3578"
       inkscape:collect="always" />
    <linearGradient
       y2="-7.4748664"
       x2="16.093008"
       y1="-7.4748664"
       x1="13.514812"
       spreadMethod="reflect"
       gradientUnits="userSpaceOnUse"
       id="linearGradient2551"
       xlink:href="#linearGradient3578"
       inkscape:collect="always" />
    <linearGradient
       y2="-7.4748664"
       x2="16.093008"
       y1="-2.2096405"
       x1="15.650429"
       spreadMethod="reflect"
       gradientUnits="userSpaceOnUse"
       id="linearGradient3610"
       xlink:href="#linearGradient3578"
       inkscape:collect="always" />
    <linearGradient
       y2="-7.4748664"
       x2="16.093008"
       y1="-6.4087667"
       x1="10.621114"
       spreadMethod="reflect"
       gradientUnits="userSpaceOnUse"
       id="linearGradient3608"
       xlink:href="#linearGradient3578"
       inkscape:collect="always" />
    <linearGradient
       y2="-1.5134122"
       x2="9.7181683"
       y1="-5.8865957"
       x1="11.186799"
       spreadMethod="reflect"
       gradientUnits="userSpaceOnUse"
       id="linearGradient3606"
       xlink:href="#linearGradient3578"
       inkscape:collect="always" />
    <linearGradient
       y2="-4.5158963"
       x2="12.916467"
       y1="-3.7543969"
       x1="7.7709298"
       spreadMethod="reflect"
       gradientUnits="userSpaceOnUse"
       id="linearGradient3604"
       xlink:href="#linearGradient3578"
       inkscape:collect="always" />
    <linearGradient
       y2="-3.7326398"
       x2="14.93988"
       y1="-2.2749119"
       x1="17.082983"
       spreadMethod="reflect"
       gradientUnits="userSpaceOnUse"
       id="linearGradient3602"
       xlink:href="#linearGradient3578"
       inkscape:collect="always" />
    <linearGradient
       y2="-1.9920692"
       x2="17.376678"
       y1="-6.2564669"
       x1="15.58174"
       spreadMethod="reflect"
       gradientUnits="userSpaceOnUse"
       id="linearGradient3600"
       xlink:href="#linearGradient3578"
       inkscape:collect="always" />
    <linearGradient
       y2="-7.4748664"
       x2="16.093008"
       y1="-10.977764"
       x1="16.691353"
       spreadMethod="reflect"
       gradientUnits="userSpaceOnUse"
       id="linearGradient3598"
       xlink:href="#linearGradient3578"
       inkscape:collect="always" />
    <linearGradient
       y2="-11.199143"
       x2="11.132382"
       y1="-11.39115"
       x1="16.386753"
       spreadMethod="reflect"
       gradientUnits="userSpaceOnUse"
       id="linearGradient3596"
       xlink:href="#linearGradient3578"
       inkscape:collect="always" />
    <linearGradient
       y2="-2.6882975"
       x2="8.6955833"
       y1="-11.586965"
       x1="12.035328"
       spreadMethod="reflect"
       gradientUnits="userSpaceOnUse"
       id="linearGradient3594"
       xlink:href="#linearGradient3578"
       inkscape:collect="always" />
    <linearGradient
       y2="-5.7778101"
       x2="11.371711"
       y1="-10.150993"
       x1="12.905613"
       spreadMethod="reflect"
       gradientUnits="userSpaceOnUse"
       id="linearGradient3592"
       xlink:href="#linearGradient3578"
       inkscape:collect="always" />
    <linearGradient
       y2="-6.9526954"
       x2="17.74655"
       y1="-5.9083529"
       x1="16.386753"
       spreadMethod="reflect"
       gradientUnits="userSpaceOnUse"
       id="linearGradient3590"
       xlink:href="#linearGradient3578"
       inkscape:collect="always" />
    <linearGradient
       y2="-8.018795"
       x2="17.07476"
       y1="-7.4748664"
       x1="13.514812"
       spreadMethod="reflect"
       gradientUnits="userSpaceOnUse"
       id="linearGradient3588"
       xlink:href="#linearGradient3578"
       inkscape:collect="always" />
    <linearGradient
       y2="-6.5828238"
       x2="18.616835"
       y1="-5.2121248"
       x1="16.908924"
       spreadMethod="reflect"
       gradientUnits="userSpaceOnUse"
       id="linearGradient3586"
       xlink:href="#linearGradient3578"
       inkscape:collect="always" />
    <linearGradient
       spreadMethod="reflect"
       gradientUnits="userSpaceOnUse"
       y2="-7.4748664"
       x2="16.093008"
       y1="-7.4748664"
       x1="13.514812"
       id="linearGradient3584"
       xlink:href="#linearGradient3578"
       inkscape:collect="always" />
    <inkscape:perspective
       sodipodi:type="inkscape:persp3d"
       inkscape:vp_x="0 : 128 : 1"
       inkscape:vp_y="0 : 1000 : 0"
       inkscape:vp_z="256 : 128 : 1"
       inkscape:persp3d-origin="128 : 85.333333 : 1"
       id="perspective2503" />
    <linearGradient
       id="linearGradient3578">
      <stop
         id="stop3580"
         offset="0"
         style="stop-color:#000000;stop-opacity:1;" />
      <stop
         id="stop3582"
         offset="1"
         style="stop-color:#fffcfc;stop-opacity:1;" />
    </linearGradient>
    <linearGradient
       id="linearGradient3369"
       inkscape:collect="always">
      <stop
         id="stop3371"
         offset="0"
         style="stop-color:#6465df;stop-opacity:1" />
      <stop
         id="stop3373"
         offset="1"
         style="stop-color:#ffffff;stop-opacity:1" />
    </linearGradient>
    <linearGradient
       id="linearGradient3387"
       inkscape:collect="always">
      <stop
         id="stop3389"
         offset="0"
         style="stop-color:#000000;stop-opacity:1;" />
      <stop
         id="stop3391"
         offset="1"
         style="stop-color:#ffffff;stop-opacity:1" />
    </linearGradient>
    <linearGradient
       inkscape:collect="always"
       xlink:href="#linearGradient3508"
       id="linearGradient3520"
       gradientUnits="userSpaceOnUse"
       x1="156.92542"
       y1="242.86835"
       x2="66.488197"
       y2="69.678078" />
    <linearGradient
       inkscape:collect="always"
       xlink:href="#linearGradient3500"
       id="linearGradient3522"
       gradientUnits="userSpaceOnUse"
       x1="71.503456"
       y1="228.63449"
       x2="155.36552"
       y2="105.63678" />
    <linearGradient
       inkscape:collect="always"
       xlink:href="#linearGradient3492"
       id="linearGradient3524"
       gradientUnits="userSpaceOnUse"
       x1="81.502289"
       y1="233.48964"
       x2="144.77817"
       y2="103.27701" />
    <radialGradient
       inkscape:collect="always"
       xlink:href="#linearGradient3551"
       id="radialGradient3557"
       cx="164.39435"
       cy="50.400146"
       fx="164.39435"
       fy="50.400146"
       r="32.21875"
       gradientUnits="userSpaceOnUse"
       spreadMethod="reflect"
       gradientTransform="matrix(-0.735275,-5.4565181e-2,4.8084738e-2,-0.6479499,296.99254,102.34277)" />
    <radialGradient
       inkscape:collect="always"
       xlink:href="#linearGradient3571"
       id="radialGradient3577"
       cx="176.99174"
       cy="56.509171"
       fx="176.99174"
       fy="56.509171"
       r="32.22115"
       gradientTransform="matrix(1,0,0,1.0051405,0,-0.2904851)"
       gradientUnits="userSpaceOnUse" />
    <linearGradient
       inkscape:collect="always"
       xlink:href="#linearGradient3508"
       id="linearGradient3621"
       gradientUnits="userSpaceOnUse"
       x1="156.92542"
       y1="242.86835"
       x2="66.488197"
       y2="69.678078" />
    <linearGradient
       inkscape:collect="always"
       xlink:href="#linearGradient3500"
       id="linearGradient3623"
       gradientUnits="userSpaceOnUse"
       x1="71.503456"
       y1="228.63449"
       x2="155.36552"
       y2="105.63678" />
    <linearGradient
       inkscape:collect="always"
       xlink:href="#linearGradient3492"
       id="linearGradient3625"
       gradientUnits="userSpaceOnUse"
       x1="81.502289"
       y1="233.48964"
       x2="144.77817"
       y2="103.27701" />
    <radialGradient
       inkscape:collect="always"
       xlink:href="#linearGradient3551"
       id="radialGradient3627"
       gradientUnits="userSpaceOnUse"
       gradientTransform="matrix(-0.735275,-5.4565181e-2,4.8084738e-2,-0.6479499,296.99254,102.34277)"
       spreadMethod="reflect"
       cx="164.39435"
       cy="50.400146"
       fx="164.39435"
       fy="50.400146"
       r="32.21875" />
    <radialGradient
       inkscape:collect="always"
       xlink:href="#linearGradient3571"
       id="radialGradient3629"
       gradientUnits="userSpaceOnUse"
       gradientTransform="matrix(1,0,0,1.0051405,0,-0.2904851)"
       cx="176.99174"
       cy="56.509171"
       fx="176.99174"
       fy="56.509171"
       r="32.22115" />
  </defs>
  <sodipodi:namedview
     inkscape:window-height="1025"
     inkscape:window-width="1680"
     inkscape:pageshadow="2"
     inkscape:pageopacity="0.0"
     guidetolerance="10.0"
     gridtolerance="10.0"
     objecttolerance="10.0"
     borderopacity="1.0"
     bordercolor="#666666"
     pagecolor="#ffffff"
     id="base"
     showgrid="false"
     inkscape:zoom="2.76"
     inkscape:cx="128"
     inkscape:cy="128"
     inkscape:window-x="-5"
     inkscape:window-y="0"
     inkscape:current-layer="svg2" />
  <g
     inkscape:label="1. réteg"
     id="layer1"
     transform="translate(-2.5717038,1.0013068)">
    <g
       id="g2637">
      <g
         id="g3612"
         transform="translate(-2.5722563,0)">
        <g
           id="g2650"
           style="font-size:12px;font-style:normal;font-weight:normal;fill:url(#linearGradient3584);fill-opacity:1;stroke:none;stroke-width:1px;stroke-linecap:butt;stroke-linejoin:miter;stroke-opacity:1;font-family:Bitstream Vera Sans">
          <path
             style="fill:url(#linearGradient2551);fill-opacity:1"
             id="path2652"
             d="M 16.1875,-12.21875 L 12.09375,-12.1875 L 12.800857,-11.480393 L 16.894607,-11.511643 L 16.1875,-12.21875 z" />
          <path
             style="fill:url(#linearGradient2553);fill-opacity:1"
             id="path2654"
             d="M 12.09375,-12.1875 L 8.75,-3.4375 L 9.4571068,-2.7303932 L 12.800857,-11.480393 L 12.09375,-12.1875 z" />
          <path
             style="fill:url(#linearGradient2555);fill-opacity:1"
             id="path2662"
             d="M 14.75,-5.6875 L 15.53125,-3.46875 L 16.238357,-2.7616432 L 15.457107,-4.9803932 L 14.75,-5.6875 z" />
          <path
             style="fill:url(#linearGradient2557);fill-opacity:1"
             id="path2664"
             d="M 15.53125,-3.46875 L 15.53125,-3.4375 L 16.238357,-2.7303932 L 16.238357,-2.7616432 L 15.53125,-3.46875 z" />
          <path
             style="fill:url(#linearGradient2559);fill-opacity:1"
             id="path2672"
             d="M 17.92037,-11.519527 C 17.478803,-11.961094 16.896486,-12.233764 16.1875,-12.21875 L 16.894607,-11.511643 C 17.603593,-11.526657 18.185909,-11.253988 18.627477,-10.81242 L 17.92037,-11.519527 z" />
          <path
             style="fill:url(#linearGradient3598);fill-opacity:1"
             id="path2674"
             d="M 16.21875,-11.96875 C 16.818366,-11.965939 17.317195,-11.725944 17.700221,-11.342918 L 18.407328,-10.635811 C 18.024302,-11.018837 17.525473,-11.258832 16.925857,-11.261643 L 16.21875,-11.96875 z" />
          <path
             style="fill:url(#linearGradient2561);fill-opacity:1"
             id="path2676"
             d="M 17.700221,-11.342918 C 19.261676,-9.7814631 18.898615,-5.8429893 15.59375,-5.90625 L 16.300857,-5.1991432 C 19.605722,-5.1358825 19.968783,-9.0743563 18.407328,-10.635811 L 17.700221,-11.342918 z" />
          <path
             style="fill:url(#linearGradient2563);fill-opacity:1"
             id="path2678"
             d="M 15.59375,-5.90625 L 16.375,-3.71875 L 17.082107,-3.0116432 L 16.300857,-5.1991432 L 15.59375,-5.90625 z" />
          <path
             style="fill:url(#linearGradient2565);fill-opacity:1"
             id="path2680"
             d="M 16.375,-3.71875 L 15.71875,-3.71875 L 16.425857,-3.0116432 L 17.082107,-3.0116432 L 16.375,-3.71875 z" />
          <path
             style="fill:url(#linearGradient2567);fill-opacity:1"
             id="path2684"
             d="M 14.875,-5.96875 L 10.5625,-5.96875 L 11.269607,-5.2616432 L 15.582107,-5.2616432 L 14.875,-5.96875 z" />
          <path
             style="fill:url(#linearGradient2569);fill-opacity:1"
             id="path2686"
             d="M 10.5625,-5.96875 L 9.75,-3.75 L 10.457107,-3.0428932 L 11.269607,-5.2616432 L 10.5625,-5.96875 z" />
          <path
             style="fill:url(#linearGradient3594);fill-opacity:1"
             id="path2690"
             d="M 9.1875,-3.75 L 12.28125,-11.90625 L 12.988357,-11.199143 L 9.8946068,-3.0428932 L 9.1875,-3.75 z" />
          <path
             style="fill:url(#linearGradient3608);fill-opacity:1"
             id="path2660"
             d="M 10.8125,-5.6875 L 14.75,-5.6875 L 15.457107,-4.9803932 L 11.519607,-4.9803932 L 10.8125,-5.6875 z" />
          <path
             style="fill:url(#linearGradient3610);fill-opacity:1"
             id="path2682"
             d="M 15.71875,-3.71875 L 14.875,-5.96875 L 15.582107,-5.2616432 L 16.425857,-3.0116432 L 15.71875,-3.71875 z" />
          <path
             style="fill:url(#linearGradient2571);fill-opacity:1"
             id="path2688"
             d="M 9.75,-3.75 L 9.1875,-3.75 L 9.8946068,-3.0428932 L 10.457107,-3.0428932 L 9.75,-3.75 z" />
          <path
             style="fill:url(#linearGradient3596);fill-opacity:1"
             id="path2692"
             d="M 12.28125,-11.90625 L 16.21875,-11.96875 L 16.925857,-11.261643 L 12.988357,-11.199143 L 12.28125,-11.90625 z" />
          <path
             style="fill:url(#linearGradient2573);fill-opacity:1"
             id="path2694"
             d="M 13.59375,-11.375 L 15.4375,-6.4375 L 16.144607,-5.7303932 L 14.300857,-10.667893 L 13.59375,-11.375 z" />
          <path
             style="fill:url(#linearGradient2575);fill-opacity:1"
             id="path2698"
             d="M 17.29651,-10.694689 C 16.87154,-11.11966 16.292483,-11.392236 15.59375,-11.375 L 16.300857,-10.667893 C 16.99959,-10.685129 17.578646,-10.412554 18.003617,-9.9875826 L 17.29651,-10.694689 z" />
          <path
             style="fill:url(#linearGradient2577);fill-opacity:1"
             id="path2700"
             d="M 15.59375,-11.375 L 13.59375,-11.375 L 14.300857,-10.667893 L 16.300857,-10.667893 L 15.59375,-11.375 z" />
          <path
             style="fill:url(#linearGradient2579);fill-opacity:1"
             id="path2702"
             d="M 12.5,-11.25 L 10.71875,-6.375 L 11.425857,-5.6678932 L 13.207107,-10.542893 L 12.5,-11.25 z" />
          <path
             style="fill:url(#linearGradient2581);fill-opacity:1"
             id="path2704"
             d="M 10.71875,-6.375 L 14.71875,-6.3125 L 15.425857,-5.6053932 L 11.425857,-5.6678932 L 10.71875,-6.375 z" />
          <path
             style="fill:url(#linearGradient2583);fill-opacity:1"
             id="path2706"
             d="M 14.71875,-6.3125 L 12.96875,-11.25 L 13.675857,-10.542893 L 15.425857,-5.6053932 L 14.71875,-6.3125 z" />
          <path
             style="fill:url(#linearGradient2585);fill-opacity:1"
             id="path2708"
             d="M 12.96875,-11.25 L 12.5,-11.25 L 13.207107,-10.542893 L 13.675857,-10.542893 L 12.96875,-11.25 z" />
          <path
             style="fill:url(#linearGradient2587);fill-opacity:1"
             id="path2710"
             d="M 13.96875,-11.125 L 15.5625,-11.125 L 16.269607,-10.417893 L 14.675857,-10.417893 L 13.96875,-11.125 z" />
          <path
             style="fill:url(#linearGradient2589);fill-opacity:1"
             id="path2712"
             d="M 15.5625,-11.125 C 16.263236,-11.142285 16.807643,-10.897983 17.18911,-10.516516 L 17.896217,-9.8094094 C 17.51475,-10.190876 16.970342,-10.435179 16.269607,-10.417893 L 15.5625,-11.125 z" />
          <path
             style="fill:url(#linearGradient3588);fill-opacity:1"
             id="path2714"
             d="M 17.18911,-10.516516 C 18.415922,-9.2897044 17.957455,-6.644214 15.59375,-6.71875 L 16.300857,-6.0116432 C 18.664562,-5.9371073 19.123029,-8.5825976 17.896217,-9.8094094 L 17.18911,-10.516516 z" />
          <path
             style="fill:url(#linearGradient2591);fill-opacity:1"
             id="path2716"
             d="M 15.59375,-6.71875 L 13.96875,-11.125 L 14.675857,-10.417893 L 16.300857,-6.0116432 L 15.59375,-6.71875 z" />
          <path
             style="fill:url(#linearGradient3590);fill-opacity:1"
             id="path2696"
             d="M 15.4375,-6.4375 C 18.434536,-6.3628978 18.668368,-9.3228317 17.29651,-10.694689 L 18.003617,-9.9875826 C 19.375475,-8.6157249 19.141643,-5.655791 16.144607,-5.7303932 L 15.4375,-6.4375 z" />
          <path
             style="fill:url(#linearGradient3592);fill-opacity:1"
             id="path2722"
             d="M 11.15625,-6.65625 L 12.75,-11.03125 L 13.457107,-10.324143 L 11.863357,-5.9491432 L 11.15625,-6.65625 z" />
          <path
             style="fill:url(#linearGradient2593);fill-opacity:1"
             id="path2718"
             d="M 12.75,-11.03125 L 14.375,-6.65625 L 15.082107,-5.9491432 L 13.457107,-10.324143 L 12.75,-11.03125 z" />
          <path
             style="fill:url(#linearGradient2595);fill-opacity:1"
             id="path2720"
             d="M 14.375,-6.65625 L 11.15625,-6.65625 L 11.863357,-5.9491432 L 15.082107,-5.9491432 L 14.375,-6.65625 z" />
          <path
             style="fill:url(#linearGradient3586);fill-opacity:1"
             id="path2670"
             d="M 15.96875,-5.6875 C 19.235011,-5.6249782 19.618583,-9.8213136 17.92037,-11.519527 L 18.627477,-10.81242 C 20.32569,-9.1142068 19.942118,-4.9178714 16.675857,-4.9803932 L 15.96875,-5.6875 z" />
          <path
             style="fill:url(#linearGradient3600);fill-opacity:1"
             id="path2668"
             d="M 16.78125,-3.4375 L 15.96875,-5.6875 L 16.675857,-4.9803932 L 17.488357,-2.7303932 L 16.78125,-3.4375 z" />
          <path
             style="fill:url(#linearGradient3602);fill-opacity:1"
             id="path2666"
             d="M 15.53125,-3.4375 L 16.78125,-3.4375 L 17.488357,-2.7303932 L 16.238357,-2.7303932 L 15.53125,-3.4375 z" />
          <path
             style="fill:url(#linearGradient3604);fill-opacity:1"
             id="path2656"
             d="M 8.75,-3.4375 L 10,-3.4375 L 10.707107,-2.7303932 L 9.4571068,-2.7303932 L 8.75,-3.4375 z" />
          <path
             style="fill:url(#linearGradient3606);fill-opacity:1"
             id="path2658"
             d="M 10,-3.4375 L 10.8125,-5.6875 L 11.519607,-4.9803932 L 10.707107,-2.7303932 L 10,-3.4375 z" />
        </g>
        <path
           id="path2505"
           d="M 16.1875,-12.175236 L 12.09375,-12.143986 L 8.7499996,-3.3939857 L 9.9999996,-3.3939857 L 10.8125,-5.6439857 L 14.75,-5.6439857 L 15.53125,-3.4252357 L 15.53125,-3.3939857 L 16.78125,-3.3939857 L 15.96875,-5.6439857 C 20.084301,-5.565207 19.623157,-12.247993 16.1875,-12.175236 z M 16.21875,-11.925236 C 19.262779,-11.910965 19.709301,-5.7839571 15.59375,-5.8627357 L 16.375,-3.6752357 L 15.71875,-3.6752357 L 14.875,-5.9252357 L 10.5625,-5.9252357 L 9.7499996,-3.7064857 L 9.1874996,-3.7064857 L 12.28125,-11.862736 L 16.21875,-11.925236 z M 13.59375,-11.331486 L 15.4375,-6.3939857 C 19.362951,-6.2962734 18.548077,-11.404362 15.59375,-11.331486 L 13.59375,-11.331486 z M 12.5,-11.206486 L 10.71875,-6.3314857 L 14.71875,-6.2689857 L 12.96875,-11.206486 L 12.5,-11.206486 z M 13.96875,-11.081486 L 15.5625,-11.081486 C 18.516827,-11.154362 18.69243,-6.5775234 15.59375,-6.6752357 L 13.96875,-11.081486 z M 12.75,-10.987736 L 14.375,-6.6127357 L 11.15625,-6.6127357 L 12.75,-10.987736 z"
           style="font-size:12px;font-style:normal;font-weight:normal;fill:#333333;fill-opacity:1;stroke:none;stroke-width:1px;stroke-linecap:butt;stroke-linejoin:miter;stroke-opacity:1;font-family:Bitstream Vera Sans" />
      </g>
      <path
         id="text2170"
         d="M 6.0871491,-4.0239012 C 6.0766271,-4.0350472 6.0650871,-4.0430982 6.0525291,-4.0480532 C 6.0403101,-4.0536252 6.0267331,-4.0564122 6.0117991,-4.0564132 C 5.9588511,-4.0564122 5.9181211,-4.0248292 5.8896111,-3.9616652 C 5.8614391,-3.8991182 5.8473541,-3.8090152 5.8473541,-3.6913552 L 5.8473541,-3.1433032 L 5.7531671,-3.1433032 L 5.7531671,-4.1836722 L 5.8473541,-4.1836722 L 5.8473541,-4.0220442 C 5.8670401,-4.0852082 5.8926651,-4.1319622 5.9242311,-4.1623082 C 5.9557961,-4.1932692 5.9941491,-4.2087522 6.0392921,-4.2087532 C 6.0457401,-4.2087522 6.0528681,-4.2078222 6.0606751,-4.2059662 C 6.0684811,-4.2047262 6.0771361,-4.2025592 6.0866401,-4.1994642 L 6.0871491,-4.0239012 M 6.3849841,-4.0638442 C 6.3347511,-4.0638432 6.2950401,-4.0279262 6.2658501,-3.9560922 C 6.2366611,-3.8848752 6.2220661,-3.7870312 6.2220661,-3.6625592 C 6.2220661,-3.5380862 6.2364911,-3.4399322 6.2653411,-3.3680972 C 6.2945301,-3.2968812 6.3344111,-3.2612732 6.3849841,-3.2612732 C 6.4348791,-3.2612732 6.4744201,-3.2971912 6.5036101,-3.3690262 C 6.5327991,-3.4408612 6.5473941,-3.5387052 6.5473941,-3.6625592 C 6.5473941,-3.7857922 6.5327991,-3.8833272 6.5036101,-3.9551632 C 6.4744201,-4.0276162 6.4348791,-4.0638432 6.3849841,-4.0638442 M 6.3849841,-4.2087532 C 6.4664441,-4.2087522 6.5304231,-4.1604492 6.5769231,-4.0638442 C 6.6234221,-3.9672382 6.6466721,-3.8334762 6.6466731,-3.6625592 C 6.6466721,-3.4922602 6.6234221,-3.3584982 6.5769231,-3.2612732 C 6.5304231,-3.1646682 6.4664441,-3.1163652 6.3849841,-3.1163652 C 6.3031851,-3.1163652 6.2390361,-3.1646682 6.1925371,-3.2612732 C 6.1463771,-3.3584982 6.1232971,-3.4922602 6.1232971,-3.6625592 C 6.1232971,-3.8334762 6.1463771,-3.9672382 6.1925371,-4.0638442 C 6.2390361,-4.1604492 6.3031851,-4.2087522 6.3849841,-4.2087532 M 7.0224031,-4.0638442 C 6.9721701,-4.0638432 6.9324581,-4.0279262 6.9032691,-3.9560922 C 6.8740791,-3.8848752 6.8594851,-3.7870312 6.8594851,-3.6625592 C 6.8594851,-3.5380862 6.8739101,-3.4399322 6.9027601,-3.3680972 C 6.9319491,-3.2968812 6.9718301,-3.2612732 7.0224031,-3.2612732 C 7.0722961,-3.2612732 7.1118381,-3.2971912 7.1410281,-3.3690262 C 7.1702171,-3.4408612 7.1848121,-3.5387052 7.1848121,-3.6625592 C 7.1848121,-3.7857922 7.1702171,-3.8833272 7.1410281,-3.9551632 C 7.1118381,-4.0276162 7.0722961,-4.0638432 7.0224031,-4.0638442 M 7.0224031,-4.2087532 C 7.1038621,-4.2087522 7.1678411,-4.1604492 7.2143411,-4.0638442 C 7.2608401,-3.9672382 7.2840901,-3.8334762 7.2840901,-3.6625592 C 7.2840901,-3.4922602 7.2608401,-3.3584982 7.2143411,-3.2612732 C 7.1678411,-3.1646682 7.1038621,-3.1163652 7.0224031,-3.1163652 C 6.9406041,-3.1163652 6.8764551,-3.1646682 6.8299561,-3.2612732 C 6.7837951,-3.3584982 6.7607161,-3.4922602 6.7607161,-3.6625592 C 6.7607161,-3.8334762 6.7837951,-3.9672382 6.8299561,-4.0638442 C 6.8764551,-4.1604492 6.9406041,-4.2087522 7.0224031,-4.2087532 M 7.5315231,-4.4790632 L 7.5315231,-4.1836722 L 7.7244781,-4.1836722 L 7.7244781,-4.0508402 L 7.5315231,-4.0508402 L 7.5315231,-3.4860682 C 7.5315221,-3.4012282 7.5378011,-3.3467322 7.5503591,-3.3225812 C 7.5632571,-3.2984292 7.5892221,-3.2863532 7.6282551,-3.2863542 L 7.7244781,-3.2863542 L 7.7244781,-3.1433032 L 7.6282551,-3.1433032 C 7.5559591,-3.1433032 7.5060671,-3.1677642 7.4785741,-3.2166862 C 7.4510821,-3.2662282 7.4373361,-3.3560212 7.4373361,-3.4860682 L 7.4373361,-4.0508402 L 7.3686041,-4.0508402 L 7.3686041,-4.1836722 L 7.4373361,-4.1836722 L 7.4373361,-4.4790632 L 7.5315231,-4.4790632 M 7.9551091,-4.3759552 L 7.9551091,-3.8548412 L 8.0844261,-3.8548412 C 8.1322831,-3.8548412 8.1692791,-3.8774442 8.1954141,-3.9226512 C 8.2215481,-3.9678572 8.2346161,-4.0322602 8.2346161,-4.1158622 C 8.2346161,-4.1988432 8.2215481,-4.2629372 8.1954141,-4.3081452 C 8.1692791,-4.3533502 8.1322831,-4.3759542 8.0844261,-4.3759552 L 7.9551091,-4.3759552 M 7.8522671,-4.5301522 L 8.0844261,-4.5301522 C 8.1696181,-4.5301512 8.2339371,-4.4948522 8.2773821,-4.4242582 C 8.3211661,-4.3542792 8.3430581,-4.2514812 8.3430581,-4.1158622 C 8.3430581,-3.9790032 8.3211661,-3.8755862 8.2773821,-3.8056102 C 8.2339371,-3.7356322 8.1696181,-3.7006432 8.0844261,-3.7006432 L 7.9551091,-3.7006432 L 7.9551091,-3.1433032 L 7.8522671,-3.1433032 L 7.8522671,-4.5301522 M 8.6897691,-3.6662742 C 8.6140801,-3.6662742 8.5616401,-3.6504832 8.5324511,-3.6189002 C 8.5032611,-3.5873172 8.4886671,-3.5334412 8.4886671,-3.4572722 C 8.4886671,-3.3965832 8.4995281,-3.3482812 8.5212501,-3.3123632 C 8.5433121,-3.2770652 8.5731801,-3.2594162 8.6108561,-3.2594162 C 8.6627861,-3.2594162 8.7043641,-3.2928562 8.7355901,-3.3597372 C 8.7671551,-3.4272372 8.7829381,-3.5167212 8.7829381,-3.6281902 L 8.7829381,-3.6662742 L 8.6897691,-3.6662742 M 8.8766161,-3.7368712 L 8.8766161,-3.1433032 L 8.7829381,-3.1433032 L 8.7829381,-3.3012162 C 8.7615551,-3.2380512 8.7349111,-3.1912962 8.7030061,-3.1609522 C 8.6711011,-3.1312272 8.6320691,-3.1163652 8.5859091,-3.1163652 C 8.5275291,-3.1163652 8.4810301,-3.1460902 8.4464101,-3.2055402 C 8.4121291,-3.2656082 8.3949891,-3.3458032 8.3949891,-3.4461252 C 8.3949891,-3.5631662 8.4163721,-3.6514122 8.4591381,-3.7108622 C 8.5022431,-3.7703102 8.5663921,-3.8000352 8.6515851,-3.8000362 L 8.7829381,-3.8000362 L 8.7829381,-3.8167562 C 8.7829381,-3.8954022 8.7686821,-3.9560912 8.7401721,-3.9988212 C 8.7120001,-4.0421682 8.6722891,-4.0638432 8.6210381,-4.0638442 C 8.5884541,-4.0638432 8.5567191,-4.0567212 8.5258321,-4.0424792 C 8.4949461,-4.0282352 8.4652471,-4.0068712 8.4367361,-3.9783852 L 8.4367361,-4.1362982 C 8.4710171,-4.1604492 8.5042801,-4.1784082 8.5365241,-4.1901742 C 8.5687681,-4.2025592 8.6001641,-4.2087522 8.6307111,-4.2087532 C 8.7131881,-4.2087522 8.7747921,-4.1697372 8.8155221,-4.0917112 C 8.8562511,-4.0136832 8.8766151,-3.8954022 8.8766161,-3.7368712 M 9.0700821,-4.5886732 L 9.1637601,-4.5886732 L 9.1637601,-3.1433032 L 9.0700821,-3.1433032 L 9.0700821,-4.5886732 M 9.7173101,-3.6686217 C 9.7173091,-3.5800657 9.7293591,-3.5103987 9.7534571,-3.4596187 C 9.7775551,-3.4094577 9.8106481,-3.3843777 9.8527351,-3.3843777 C 9.8944841,-3.3843777 9.9272371,-3.4097677 9.9509961,-3.4605477 C 9.9750941,-3.5113277 9.9871441,-3.5806857 9.9871441,-3.6686217 C 9.9871441,-3.7553187 9.9749251,-3.8240567 9.9504871,-3.8748377 C 9.9260491,-3.9262367 9.8931261,-3.9519357 9.8517171,-3.9519367 C 9.8106481,-3.9519357 9.7778941,-3.9265457 9.7534571,-3.8757667 C 9.7293591,-3.8249857 9.7173091,-3.7559377 9.7173101,-3.6686217 M 9.9947811,-3.3908797 C 9.9744161,-3.3431967 9.9509961,-3.3078987 9.9245221,-3.2849857 C 9.8983871,-3.2626917 9.8678391,-3.2515447 9.8328801,-3.2515447 C 9.7745001,-3.2515447 9.7269831,-3.2899397 9.6903261,-3.3667287 C 9.6540091,-3.4441367 9.6358501,-3.5447677 9.6358501,-3.6686217 C 9.6358501,-3.7924747 9.6541781,-3.8931047 9.6908361,-3.9705147 C 9.7274921,-4.0479217 9.7748401,-4.0866257 9.8328801,-4.0866267 C 9.8678391,-4.0866257 9.8985571,-4.0748597 9.9250311,-4.0513287 C 9.9515051,-4.0284147 9.9747551,-3.9934267 9.9947811,-3.9463627 L 9.9947811,-4.0680487 L 10.067585,-4.0680487 L 10.067585,-3.3843777 C 10.117139,-3.3980017 10.155832,-3.4391827 10.183664,-3.5079217 C 10.211835,-3.5772787 10.22592,-3.6667627 10.225921,-3.7763737 C 10.22592,-3.8426357 10.22049,-3.9048717 10.209629,-3.9630827 C 10.199107,-4.0212937 10.182985,-4.0751697 10.161263,-4.1247117 C 10.125963,-4.2058347 10.082858,-4.2677617 10.031947,-4.3104917 C 9.9813731,-4.3538397 9.9262191,-4.3755137 9.8664821,-4.3755157 C 9.8247341,-4.3755137 9.7846831,-4.3652967 9.7463291,-4.3448617 C 9.7079751,-4.3250437 9.6725071,-4.2953187 9.6399231,-4.2556877 C 9.5866351,-4.1925207 9.5448881,-4.1095387 9.5146801,-4.0067417 C 9.4848111,-3.9045617 9.4698771,-3.7937127 9.4698771,-3.6741947 C 9.4698771,-3.5757307 9.4795511,-3.4834607 9.4988971,-3.3973827 C 9.5185831,-3.3113037 9.5469241,-3.2354437 9.5839201,-3.1698017 C 9.6195581,-3.1053977 9.6607971,-3.0564757 9.7076361,-3.0230357 C 9.7544751,-2.9889757 9.8045381,-2.9719457 9.8578271,-2.9719457 C 9.9016111,-2.9719457 9.9445471,-2.9855697 9.9866351,-3.0128177 C 10.029061,-3.0394457 10.067924,-3.0778407 10.103223,-3.1280017 L 10.149044,-3.0248937 C 10.106617,-2.9648247 10.060287,-2.9189987 10.010055,-2.8874157 C 9.9601601,-2.8552147 9.9094181,-2.8391137 9.8578271,-2.8391127 C 9.7950351,-2.8391137 9.7358071,-2.8595487 9.6801441,-2.9004207 C 9.6244801,-2.9406727 9.5749261,-2.9995037 9.5314811,-3.0769117 C 9.4880361,-3.1543197 9.4549431,-3.2438037 9.4322031,-3.3453637 C 9.4094621,-3.4475427 9.3980911,-3.5571537 9.3980921,-3.6741947 C 9.3980911,-3.7869007 9.4096321,-3.8943437 9.4327121,-3.9965237 C 9.4557921,-4.0987017 9.4887151,-4.1884957 9.5314811,-4.2659047 C 9.5752651,-4.3445507 9.6258371,-4.4046197 9.6831991,-4.4461117 C 9.7405591,-4.4882207 9.8013141,-4.5092757 9.8654631,-4.5092767 C 9.9374201,-4.5092757 10.004114,-4.4823377 10.065549,-4.4284627 C 10.127321,-4.3745847 10.179081,-4.2981057 10.22083,-4.1990237 C 10.246285,-4.1383347 10.265632,-4.0723827 10.27887,-4.0011677 C 10.292445,-3.9299517 10.299233,-3.8562587 10.299235,-3.7800897 C 10.299233,-3.6172217 10.27225,-3.4887247 10.218284,-3.3945957 C 10.164317,-3.3004667 10.089816,-3.2515447 9.9947811,-3.2478297 L 9.9947811,-3.3908797 M 10.84552,-3.7020617 C 10.845519,-3.8259147 10.831434,-3.9219007 10.803263,-3.9900217 C 10.775431,-4.0581397 10.736229,-4.0921997 10.685656,-4.0922007 C 10.635423,-4.0921997 10.596221,-4.0581397 10.56805,-3.9900217 C 10.540218,-3.9219007 10.526302,-3.8259147 10.526302,-3.7020617 C 10.526302,-3.5788277 10.540218,-3.4831507 10.56805,-3.4150317 C 10.596221,-3.3469117 10.635423,-3.3128517 10.685656,-3.3128527 C 10.736229,-3.3128517 10.775431,-3.3469117 10.803263,-3.4150317 C 10.831434,-3.4831507 10.845519,-3.5788277 10.84552,-3.7020617 M 10.939198,-3.2989187 C 10.939197,-3.1218087 10.917645,-2.9902147 10.87454,-2.9041367 C 10.831434,-2.8174387 10.765418,-2.7740907 10.676492,-2.7740897 C 10.643569,-2.7740907 10.612513,-2.7787347 10.583323,-2.7880237 C 10.554134,-2.7966937 10.525793,-2.8103177 10.4983,-2.8288957 L 10.4983,-2.9951687 C 10.525793,-2.9679207 10.552946,-2.9477947 10.57976,-2.9347897 C 10.606573,-2.9217857 10.633896,-2.9152837 10.661728,-2.9152827 C 10.723161,-2.9152837 10.769152,-2.9446987 10.799699,-3.0035287 C 10.830246,-3.0617397 10.845519,-3.1499857 10.84552,-3.2682657 L 10.84552,-3.3527957 C 10.826173,-3.2914877 10.801396,-3.2456617 10.771189,-3.2153177 C 10.74098,-3.1849737 10.704833,-3.1698017 10.662746,-3.1698017 C 10.592827,-3.1698017 10.536484,-3.2184147 10.493718,-3.3156387 C 10.450952,-3.4128637 10.429569,-3.5416717 10.429569,-3.7020617 C 10.429569,-3.8630707 10.450952,-3.9921877 10.493718,-4.0894137 C 10.536484,-4.1866377 10.592827,-4.2352507 10.662746,-4.2352517 C 10.704833,-4.2352507 10.74098,-4.2200787 10.771189,-4.1897347 C 10.801396,-4.1593897 10.826173,-4.1135637 10.84552,-4.0522577 L 10.84552,-4.2101707 L 10.939198,-4.2101707 L 10.939198,-3.2989187 M 11.576107,-4.0104577 C 11.599526,-4.0872457 11.627527,-4.1439077 11.660111,-4.1804457 C 11.692695,-4.2169817 11.731048,-4.2352507 11.775172,-4.2352517 C 11.834569,-4.2352507 11.88039,-4.1971647 11.912635,-4.1209957 C 11.944878,-4.0454447 11.961,-3.9376927 11.961001,-3.7977387 L 11.961001,-3.1698017 L 11.866814,-3.1698017 L 11.866814,-3.7921657 C 11.866813,-3.8918667 11.85714,-3.9658687 11.837794,-4.0141727 C 11.818447,-4.0624747 11.788918,-4.0866257 11.749207,-4.0866267 C 11.700671,-4.0866257 11.662317,-4.0572107 11.634146,-3.9983817 C 11.605975,-3.9395497 11.591889,-3.8593557 11.591889,-3.7577967 L 11.591889,-3.1698017 L 11.497702,-3.1698017 L 11.497702,-3.7921657 C 11.497702,-3.8924857 11.488029,-3.9664887 11.468682,-4.0141727 C 11.449336,-4.0624747 11.419467,-4.0866257 11.379077,-4.0866267 C 11.33122,-4.0866257 11.293206,-4.0569017 11.265035,-3.9974527 C 11.236863,-3.9386217 11.222777,-3.8587357 11.222778,-3.7577967 L 11.222778,-3.1698017 L 11.128591,-3.1698017 L 11.128591,-4.2101707 L 11.222778,-4.2101707 L 11.222778,-4.0485427 C 11.24416,-4.1123257 11.269786,-4.1593897 11.299655,-4.1897347 C 11.329523,-4.2200787 11.364991,-4.2352507 11.406061,-4.2352517 C 11.447469,-4.2352507 11.482598,-4.2160527 11.511449,-4.1776597 C 11.540638,-4.1392637 11.56219,-4.0835297 11.576107,-4.0104577 M 12.407499,-3.6927727 C 12.33181,-3.6927727 12.27937,-3.6769817 12.250181,-3.6453987 C 12.220992,-3.6138157 12.206397,-3.5599397 12.206397,-3.4837707 C 12.206397,-3.4230817 12.217258,-3.3747797 12.238981,-3.3388617 C 12.261042,-3.3035637 12.290911,-3.2859147 12.328586,-3.2859147 C 12.380516,-3.2859147 12.422094,-3.3193547 12.45332,-3.3862357 C 12.484885,-3.4537357 12.500668,-3.5432197 12.500668,-3.6546887 L 12.500668,-3.6927727 L 12.407499,-3.6927727 M 12.594346,-3.7633697 L 12.594346,-3.1698017 L 12.500668,-3.1698017 L 12.500668,-3.3277147 C 12.479285,-3.2645497 12.452641,-3.2177947 12.420736,-3.1874507 C 12.388831,-3.1577257 12.349799,-3.1428637 12.303639,-3.1428637 C 12.24526,-3.1428637 12.19876,-3.1725887 12.16414,-3.2320387 C 12.129859,-3.2921067 12.112719,-3.3723017 12.112719,-3.4726237 C 12.112719,-3.5896647 12.134102,-3.6779107 12.176868,-3.7373607 C 12.219973,-3.7968087 12.284122,-3.8265337 12.369315,-3.8265347 L 12.500668,-3.8265347 L 12.500668,-3.8432547 C 12.500668,-3.9219007 12.486412,-3.9825897 12.457902,-4.0253197 C 12.429731,-4.0686667 12.390019,-4.0903417 12.338768,-4.0903427 C 12.306184,-4.0903417 12.274449,-4.0832197 12.243563,-4.0689777 C 12.212676,-4.0547337 12.182977,-4.0333697 12.154467,-4.0048837 L 12.154467,-4.1627967 C 12.188747,-4.1869477 12.22201,-4.2049067 12.254254,-4.2166727 C 12.286498,-4.2290577 12.317894,-4.2352507 12.348441,-4.2352517 C 12.430918,-4.2352507 12.492522,-4.1962357 12.533252,-4.1182097 C 12.573981,-4.0401817 12.594346,-3.9219007 12.594346,-3.7633697 M 12.787812,-4.2101707 L 12.88149,-4.2101707 L 12.88149,-3.1698017 L 12.787812,-3.1698017 L 12.787812,-4.2101707 M 12.787812,-4.6151717 L 12.88149,-4.6151717 L 12.88149,-4.3987377 L 12.787812,-4.3987377 L 12.787812,-4.6151717 M 13.076992,-4.6151717 L 13.17067,-4.6151717 L 13.17067,-3.1698017 L 13.076992,-3.1698017 L 13.076992,-4.6151717 M 13.379409,-3.4057427 L 13.486833,-3.4057427 L 13.486833,-3.1698017 L 13.379409,-3.1698017 L 13.379409,-3.4057427 M 14.108468,-4.1702277 L 14.108468,-4.0104577 C 14.081994,-4.0370847 14.05535,-4.0569017 14.028537,-4.0699067 C 14.002062,-4.0835297 13.975248,-4.0903417 13.948096,-4.0903427 C 13.88734,-4.0903417 13.840162,-4.0550437 13.80656,-3.9844477 C 13.772958,-3.9144697 13.756157,-3.8160067 13.756157,-3.6890577 C 13.756157,-3.5621067 13.772958,-3.4633337 13.80656,-3.3927377 C 13.840162,-3.3227607 13.88734,-3.2877717 13.948096,-3.2877717 C 13.975248,-3.2877717 14.002062,-3.2942747 14.028537,-3.3072787 C 14.05535,-3.3209027 14.081994,-3.3410287 14.108468,-3.3676577 L 14.108468,-3.2097447 C 14.082333,-3.1874507 14.05518,-3.1707307 14.027009,-3.1595837 C 13.999177,-3.1484377 13.969478,-3.1428637 13.937913,-3.1428637 C 13.852041,-3.1428637 13.783819,-3.1920947 13.733247,-3.2905587 C 13.682674,-3.3890217 13.657388,-3.5218547 13.657388,-3.6890577 C 13.657388,-3.8587357 13.682844,-3.9921877 13.733756,-4.0894137 C 13.785007,-4.1866377 13.855096,-4.2352507 13.944023,-4.2352517 C 13.972872,-4.2352507 14.001043,-4.2296767 14.028537,-4.2185307 C 14.056029,-4.2080027 14.082672,-4.1919017 14.108468,-4.1702277 M 14.493363,-4.0903427 C 14.443129,-4.0903417 14.403418,-4.0544247 14.374229,-3.9825907 C 14.345039,-3.9113737 14.330444,-3.8135297 14.330445,-3.6890577 C 14.330444,-3.5645847 14.344869,-3.4664307 14.37372,-3.3945957 C 14.402909,-3.3233797 14.44279,-3.2877717 14.493363,-3.2877717 C 14.543256,-3.2877717 14.582798,-3.3236897 14.611988,-3.3955247 C 14.641177,-3.4673597 14.655772,-3.5652037 14.655772,-3.6890577 C 14.655772,-3.8122907 14.641177,-3.9098257 14.611988,-3.9816617 C 14.582798,-4.0541147 14.543256,-4.0903417 14.493363,-4.0903427 M 14.493363,-4.2352517 C 14.574821,-4.2352507 14.638801,-4.1869477 14.685301,-4.0903427 C 14.7318,-3.9937367 14.75505,-3.8599747 14.75505,-3.6890577 C 14.75505,-3.5187587 14.7318,-3.3849967 14.685301,-3.2877717 C 14.638801,-3.1911667 14.574821,-3.1428637 14.493363,-3.1428637 C 14.411564,-3.1428637 14.347415,-3.1911667 14.300915,-3.2877717 C 14.254755,-3.3849967 14.231675,-3.5187587 14.231675,-3.6890577 C 14.231675,-3.8599747 14.254755,-3.9937367 14.300915,-4.0903427 C 14.347415,-4.1869477 14.411564,-4.2352507 14.493363,-4.2352517 M 15.353775,-4.0104577 C 15.377194,-4.0872457 15.405195,-4.1439077 15.43778,-4.1804457 C 15.470363,-4.2169817 15.508716,-4.2352507 15.552841,-4.2352517 C 15.612237,-4.2352507 15.658058,-4.1971647 15.690303,-4.1209957 C 15.722547,-4.0454447 15.738669,-3.9376927 15.738669,-3.7977387 L 15.738669,-3.1698017 L 15.644482,-3.1698017 L 15.644482,-3.7921657 C 15.644482,-3.8918667 15.634808,-3.9658687 15.615463,-4.0141727 C 15.596115,-4.0624747 15.566586,-4.0866257 15.526876,-4.0866267 C 15.478339,-4.0866257 15.439985,-4.0572107 15.411815,-3.9983817 C 15.383643,-3.9395497 15.369557,-3.8593557 15.369558,-3.7577967 L 15.369558,-3.1698017 L 15.275371,-3.1698017 L 15.275371,-3.7921657 C 15.27537,-3.8924857 15.265697,-3.9664887 15.246351,-4.0141727 C 15.227004,-4.0624747 15.197136,-4.0866257 15.156746,-4.0866267 C 15.108888,-4.0866257 15.070874,-4.0569017 15.042703,-3.9974527 C 15.014531,-3.9386217 15.000446,-3.8587357 15.000446,-3.7577967 L 15.000446,-3.1698017 L 14.906259,-3.1698017 L 14.906259,-4.2101707 L 15.000446,-4.2101707 L 15.000446,-4.0485427 C 15.021829,-4.1123257 15.047455,-4.1593897 15.077323,-4.1897347 C 15.107191,-4.2200787 15.14266,-4.2352507 15.183729,-4.2352517 C 15.225137,-4.2352507 15.260266,-4.2160527 15.289117,-4.1776597 C 15.318306,-4.1392637 15.339859,-4.0835297 15.353775,-4.0104577"
         style="font-size:4px;font-style:normal;font-weight:normal;fill:#d40000;fill-opacity:1;stroke:none;stroke-width:1px;stroke-linecap:butt;stroke-linejoin:miter;stroke-opacity:1;font-family:Bitstream Vera Sans"
         sodipodi:nodetypes="csssccccccssscccsssssssccsssssssccsssssssccssssssscccccccsccccsccccccccccsssccccsssccccccssssscccccccssssscccsssccssscccccccsssssssccsssssssccccsssssssssssssssccssssssssssssssscccsssssssccsssccsssccssssssscccccsssccccsssccccsssccccccsssccssssscccccccssssscccsssccssscccccccccccccccccccccccsssssssccsssssssccsssssssccsssssssccsssccccsssccccsssccccccsssc" />
    </g>
  </g>
  <g
     id="g3607"
     transform="matrix(1.0702674,0,0,1.0702674,6.0796281,-18.724004)">
    <path
       id="path3603"
       d="M 179.21875,44.625 C 159.90076,44.699186 145.80359,67.92566 155.09375,85 C 156.58937,87.97759 159.18201,92.586534 161.65625,93.4375 C 163.44688,86.710432 155.6924,82.404122 155.84375,75.71875 C 153.09145,59.549759 169.60305,44.155187 185.5625,48.28125 C 199.90554,51.079542 209.70106,67.452715 204.125,81.28125 C 201.24563,90.222958 192.07404,96.246633 183.90625,98.09375 C 184.16061,99.829815 184.11212,102.69349 186.53125,100.90625 C 204.21941,96.69502 215.15403,73.823013 204.6875,58.15625 C 199.45573,49.585403 189.42158,44.04106 179.21875,44.625 z"
       style="opacity:1;fill:#000000;fill-opacity:0.10628022;stroke:none;stroke-width:2;stroke-linecap:butt;stroke-linejoin:round;stroke-miterlimit:4;stroke-dasharray:none;stroke-opacity:1" />
    <path
       id="path3599"
       d="M 179.15625,42.625 C 161.14442,42.834843 146.38356,61.87667 151.0625,79.46875 C 152.59071,86.171842 156.93316,93.635873 162.5,97 C 164.76068,92.56867 164.30436,87.285713 160.90625,83.59375 C 153.12612,72.048461 159.89104,55.215366 172.84375,51.09375 C 187.0981,45.421455 204.23713,57.614299 203.5625,72.9375 C 203.7706,84.960647 193.20039,95.828625 181.15625,95.84375 C 182.67457,98.582519 181.486,105.1958 186.25,103.03125 C 203.85446,99.119704 216.18121,78.268125 208.46875,61.34375 C 203.95628,49.828811 191.63683,41.882265 179.15625,42.625 z"
       style="opacity:1;fill:#000000;fill-opacity:0.10628022;stroke:none;stroke-width:2;stroke-linecap:butt;stroke-linejoin:round;stroke-miterlimit:4;stroke-dasharray:none;stroke-opacity:1" />
    <path
       sodipodi:nodetypes="cccssccssscc"
       id="path3595"
       d="M 181.65429,105.32298 C 180.49524,101.0493 179.96288,98.14542 178.30803,93.736006 C 189.85702,94.958998 200.21409,86.585432 201.43708,75.036437 C 202.66007,63.487441 194.28651,53.130377 182.73751,51.907384 C 171.18852,50.684392 160.83145,59.057958 159.60846,70.606953 C 158.99696,76.381451 162.3543,83.058315 165.73844,87.24408 C 166.23436,92.79272 165.53261,96.689671 162.98977,99.914027 C 159.32874,97.886227 158.06404,96.281862 155.47157,93.075297 C 150.28663,86.662166 147.54667,78.272292 148.48316,69.428829 C 150.35614,51.741903 166.22871,38.909115 183.91564,40.78209 C 201.60256,42.655064 214.43535,58.527635 212.56238,76.214561 C 210.6894,93.901487 192.97014,106.2726 181.65429,105.32298 z"
       style="opacity:1;fill:#000000;fill-opacity:0.10628022;stroke:none;stroke-width:2;stroke-linecap:butt;stroke-linejoin:round;stroke-miterlimit:4;stroke-dasharray:none;stroke-opacity:1" />
    <path
       id="path3591"
       d="M 128.40625,68.5 C 116.0894,71.025552 102.32936,72.924979 92.90625,81.78125 C 84.458321,91.903741 78.389074,103.71392 70.208723,114.16104 C 54.256211,137.55375 36.99348,160.05018 22.46875,184.3125 C 18.903165,195.64799 26.970221,207.30228 37.22404,211.80073 C 53.824644,222.55117 68.806001,235.95616 86.65625,244.53125 C 97.719789,247.24366 108.44537,239.26337 112.84997,229.50691 C 134.23787,198.10805 156.97527,167.63896 177.3125,135.59375 C 181.68982,121.09985 176.10312,105.82274 171.71875,92.375 C 167.86564,107.54506 148.39841,114.27406 135.34375,106.34375 C 121.77481,98.91848 120.02317,78.516716 131.03125,68.0625 C 130.15625,68.208333 129.28125,68.354167 128.40625,68.5 z"
       style="fill:#000000;fill-opacity:0.10628022;stroke:none;stroke-width:2;stroke-linecap:butt;stroke-linejoin:round;stroke-miterlimit:4;stroke-dasharray:none;stroke-opacity:1" />
    <path
       id="path3587"
       d="M 154,63.6875 C 168.38136,67.351067 175.71815,86.600272 166.46875,98.46875 C 157.67459,111.68497 134.95216,110.49782 128.21875,95.8125 C 122.05046,84.662385 127.91001,69.280874 139.65625,64.625 C 124.34952,67.12286 108.06698,69.177305 94.65625,77.3125 C 85.657195,85.080293 81.097152,96.717417 73.53125,105.8125 C 56.102857,131.26375 37.77388,156.03012 21.1875,182 C 16.353342,193.63411 23.318615,207.20038 34.437588,212.33971 C 51.254585,223.32856 66.893012,236.59626 84.5625,246 C 96.001226,249.84764 108.55529,242.66574 113.38306,232.28942 C 135.09773,200.43432 157.99012,169.42462 178.90625,137.0625 C 185.00146,118.99764 175.7418,100.69328 171.24521,83.354281 C 169.09926,74.400058 164.11641,63.752614 153.5,63.5625 L 154,63.6875 z"
       style="fill:#000000;fill-opacity:0.10628022;stroke:none;stroke-width:2;stroke-linecap:butt;stroke-linejoin:round;stroke-miterlimit:4;stroke-dasharray:none;stroke-opacity:1" />
    <path
       id="path3583"
       d="M 148.40625,61.375 C 131.57076,63.717398 114.04318,65.936659 98.34375,72.84375 C 86.911202,77.795509 82.926443,90.713939 75.298019,99.704205 C 57.020567,126.32511 37.984329,152.70552 20.15625,179.46875 C 13.954886,191.42549 19.850682,206.952 31.658535,212.87813 C 48.233628,224.00739 64.181203,236.26226 81.09375,246.78125 C 92.947939,252.54485 108.08238,246.66663 113.90816,235.05937 C 135.90522,203.0895 158.62764,171.37188 180.1875,139.25 C 186.98915,123.15412 179.77496,105.55695 175.28125,89.78125 C 171.88042,79.635048 169.93078,65.351647 157.71875,62.34375 C 154.79632,61.528648 151.55892,61.222969 148.40625,61.375 z M 147.53125,65.0625 C 162.27998,63.949677 173.51586,81.461437 166.46875,94.40625 C 160.62223,107.69893 140.40564,109.8084 132.03125,97.9375 C 121.72594,85.236861 131.17707,65.190845 147.53125,65.0625 z"
       style="fill:#000000;fill-opacity:0.10628022;stroke:none;stroke-width:2;stroke-linecap:butt;stroke-linejoin:round;stroke-miterlimit:4;stroke-dasharray:none;stroke-opacity:1" />
    <path
       style="fill:#000000;fill-opacity:0.10628022;stroke:none;stroke-width:2;stroke-linecap:butt;stroke-linejoin:round;stroke-miterlimit:4;stroke-dasharray:none;stroke-opacity:1"
       d="M 165.04332,63.725449 C 159.28953,59.493762 151.287,58.333823 141.12517,60.193015 C 121.99703,63.692672 96.030317,66.955783 87.337977,78.828527 L 20.492057,175.00486 C 12.025697,187.18607 15.035237,203.78873 27.216447,212.2551 L 76.023117,246.17745 C 88.204327,254.64381 104.81482,251.67776 113.28118,239.49655 L 180.1271,143.32021 C 191.35795,127.19433 180.30018,100.12776 174.96091,82.035541 C 172.52818,73.792182 170.12019,67.459294 165.04332,63.725449 z M 158.64725,70.354466 C 166.98322,76.148351 169.0426,87.594028 163.24872,95.929997 C 157.45483,104.26597 145.99131,106.35101 137.65535,100.55712 C 129.31938,94.763233 127.25217,83.274063 133.04606,74.938095 C 138.83995,66.602125 150.31128,64.560579 158.64725,70.354466 z"
       id="path3528"
       sodipodi:nodetypes="csccccccsccsssc" />
    <g
       transform="matrix(0.8211427,0.5707229,-0.5707229,0.8211427,95.979154,-44.668633)"
       id="g3516">
      <path
         style="opacity:1;fill:#bababa;fill-opacity:1;stroke:url(#linearGradient3621);stroke-width:2;stroke-linecap:butt;stroke-linejoin:round;stroke-miterlimit:4;stroke-dasharray:none;stroke-opacity:1"
         d="M 109.03125,41.53125 C 101.89145,41.340248 94.658227,44.955 87.375,52.28125 C 73.665396,66.071839 54.205349,83.571119 53.84375,98.28125 L 53.84375,215.40625 C 53.84375,230.24071 65.790535,242.15625 80.625,242.15625 L 140.0625,242.15625 C 154.89696,242.15625 166.84375,230.24071 166.84375,215.40625 L 166.84375,98.28125 C 166.86247,78.629902 142.33494,62.7153 127.625,50.90625 C 120.92271,45.525689 115.33108,41.699781 109.03125,41.53125 z M 107.5625,50.625 C 117.71422,50.62508 125.93758,58.848276 125.9375,69 C 125.93742,79.151727 117.71422,87.40633 107.5625,87.40625 C 97.410774,87.40617 89.15617,79.151724 89.15625,69 C 89.156331,58.848273 97.410776,50.62492 107.5625,50.625 z"
         id="rect2711"
         sodipodi:nodetypes="csccccccsccsssc" />
      <rect
         style="opacity:1;fill:url(#linearGradient3623);fill-opacity:1;stroke:url(#linearGradient3625);stroke-width:2;stroke-linecap:butt;stroke-linejoin:round;stroke-miterlimit:4;stroke-dasharray:none;stroke-opacity:1"
         id="rect2720"
         width="84.450577"
         height="126.82298"
         x="68.266663"
         y="103.57701"
         ry="13.24138" />
    </g>
    <path
       sodipodi:nodetypes="cccssccssscc"
       id="path3546"
       d="M 178.12326,88.844812 C 176.96421,84.571139 176.43185,81.667259 174.777,77.257845 C 186.32599,78.480837 196.68306,70.107271 197.90605,58.558276 C 199.12904,47.00928 190.75548,36.652216 179.20648,35.429223 C 167.65749,34.206231 157.30042,42.579797 156.07743,54.128792 C 155.46593,59.90329 158.82327,66.580154 162.20741,70.765919 C 162.70333,76.314559 162.00158,80.21151 159.45874,83.435865 C 155.79771,81.408066 154.53301,79.803701 151.94054,76.597136 C 146.7556,70.184005 144.01564,61.794131 144.95213,52.950668 C 146.82511,35.263742 162.69768,22.430954 180.38461,24.303929 C 198.07153,26.176903 210.90432,42.049474 209.03135,59.7364 C 207.15837,77.423326 189.43911,89.794441 178.12326,88.844812 z"
       style="opacity:1;fill:url(#radialGradient3627);fill-opacity:1;stroke:none;stroke-width:2;stroke-linecap:butt;stroke-linejoin:round;stroke-miterlimit:4;stroke-dasharray:none;stroke-opacity:1" />
    <path
       style="opacity:1;fill:url(#radialGradient3629);fill-opacity:1;stroke:none;stroke-width:2;stroke-linecap:butt;stroke-linejoin:round;stroke-miterlimit:4;stroke-dasharray:none;stroke-opacity:1"
       d="M 178.12326,88.844812 C 176.96421,84.571139 176.43185,81.667259 174.777,77.257845 C 186.32599,78.480837 196.68306,70.107271 197.90605,58.558276 C 199.12904,47.00928 190.75548,36.652216 179.20648,35.429223 C 167.65749,34.206231 157.30042,42.579797 156.07743,54.128792 C 155.46593,59.90329 158.82327,66.580154 162.20741,70.765919 C 162.70333,76.314559 162.00158,80.21151 159.45874,83.435865 C 155.79771,81.408066 154.53301,79.803701 151.94054,76.597136 C 146.7556,70.184005 144.01564,61.794131 144.95213,52.950668 C 146.82511,35.263742 162.69768,22.430954 180.38461,24.303929 C 198.07153,26.176903 210.90432,42.049474 209.03135,59.7364 C 207.15837,77.423326 189.43911,89.794441 178.12326,88.844812 z"
       id="path3569"
       sodipodi:nodetypes="cccssccssscc" />
  </g>
</svg>
