<?xml version="1.0" encoding="UTF-8" standalone="no"?>
<!-- Created with Inkscape (http://www.inkscape.org/) -->
<svg
   xmlns:dc="http://purl.org/dc/elements/1.1/"
   xmlns:cc="http://creativecommons.org/ns#"
   xmlns:rdf="http://www.w3.org/1999/02/22-rdf-syntax-ns#"
   xmlns:svg="http://www.w3.org/2000/svg"
   xmlns="http://www.w3.org/2000/svg"
   xmlns:xlink="http://www.w3.org/1999/xlink"
   xmlns:sodipodi="http://sodipodi.sourceforge.net/DTD/sodipodi-0.dtd"
   xmlns:inkscape="http://www.inkscape.org/namespaces/inkscape"
   id="svg2"
   sodipodi:version="0.32"
   inkscape:version="0.46"
   width="256"
   height="256"
   version="1.0"
   sodipodi:docname="run-build-install-root.svg"
   inkscape:output_extension="org.inkscape.output.svg.inkscape">
  <sodipodi:namedview
     inkscape:window-height="1025"
     inkscape:window-width="1680"
     inkscape:pageshadow="2"
     inkscape:pageopacity="0.0"
     guidetolerance="10.0"
     gridtolerance="10.0"
     objecttolerance="10.0"
     borderopacity="1.0"
     bordercolor="#666666"
     pagecolor="#ffffff"
     id="base"
     showgrid="false"
     inkscape:zoom="2.58"
     inkscape:cx="128"
     inkscape:cy="104.45977"
     inkscape:window-x="-5"
     inkscape:window-y="0"
     inkscape:current-layer="svg2" />
  <metadata
     id="metadata7">
    <rdf:RDF>
      <cc:Work
         rdf:about="">
        <dc:format>image/svg+xml</dc:format>
        <dc:type
           rdf:resource="http://purl.org/dc/dcmitype/StillImage" />
      </cc:Work>
    </rdf:RDF>
  </metadata>
  <defs
     id="defs5">
    <linearGradient
       id="linearGradient3168">
      <stop
         style="stop-color:#ffffff;stop-opacity:1;"
         offset="0"
         id="stop3170" />
      <stop
         style="stop-color:#ffffff;stop-opacity:0;"
         offset="1"
         id="stop3172" />
    </linearGradient>
    <inkscape:perspective
       id="perspective9"
       inkscape:persp3d-origin="372.04724 : 350.78739 : 1"
       inkscape:vp_z="744.09448 : 526.18109 : 1"
       inkscape:vp_y="0 : 1000 : 0"
       inkscape:vp_x="0 : 526.18109 : 1"
       sodipodi:type="inkscape:persp3d" />
    <inkscape:perspective
       sodipodi:type="inkscape:persp3d"
       inkscape:vp_x="0 : 526.18109 : 1"
       inkscape:vp_y="0 : 1000 : 0"
       inkscape:vp_z="744.09448 : 526.18109 : 1"
       inkscape:persp3d-origin="372.04724 : 350.78739 : 1"
       id="perspective10" />
    <linearGradient
       inkscape:collect="always"
       xlink:href="#linearGradient3168"
       id="linearGradient3174"
       x1="160.31018"
       y1="163.47737"
       x2="164.3645"
       y2="200.68668"
       gradientUnits="userSpaceOnUse" />
    <linearGradient
       inkscape:collect="always"
       xlink:href="#linearGradient3168"
       id="linearGradient3184"
       x1="160.21321"
       y1="89.349159"
       x2="187.34392"
       y2="149.03908"
       gradientUnits="userSpaceOnUse" />
  </defs>
  <g
     transform="translate(-5.2132485,0.8865131)"
     inkscape:label="Layer 1"
     id="layer1">
    <path
       style="font-size:14px;font-style:normal;font-weight:normal;fill:#000000;fill-opacity:1;stroke:none;stroke-width:1px;stroke-linecap:butt;stroke-linejoin:miter;stroke-opacity:1;font-family:Bitstream Vera Sans"
       d="M 10.338337,-10.630085 L 10.369587,-10.598835 L 6.9504776,-1.4142743 L 8.3879776,-1.3856193 L 9.6246406,-4.5355853 L 12.857374,-4.5355853 L 14.083033,-1.3856183 L 15.520533,-1.3856183 L 14.244587,-4.5675853 C 15.011057,-4.6616323 15.614006,-4.8951793 16.057087,-5.2863353 C 16.64497,-5.8013043 16.93208,-6.5604173 16.932087,-7.5675853 C 16.932079,-8.5656233 16.644971,-9.3338523 16.057087,-9.8488353 C 15.473747,-10.368356 14.607212,-10.630075 13.463337,-10.630085 L 11.932087,-10.630085 L 10.369587,-10.630085 L 10.338337,-10.630085 z M 12.369587,-9.5050853 L 13.463337,-9.5050853 C 14.10591,-9.5050763 14.612421,-9.3377583 14.963337,-9.0050853 C 15.314242,-8.6723943 15.494581,-8.1782543 15.494587,-7.5675853 C 15.494581,-6.9523443 15.314243,-6.4940113 14.963337,-6.1613353 C 14.676858,-5.8897383 14.287944,-5.7424543 13.807087,-5.6925853 L 12.369587,-9.5050853 z M 11.140459,-8.6820923 L 12.326124,-5.6918353 L 9.9475186,-5.6345243 L 11.140459,-8.6820923 z"
       id="text2383"
       sodipodi:nodetypes="cccccccccsssccccccssscccccc" />
  </g>
  <g
     id="g3366"
     transform="translate(53.973383,22.293662)"
     inkscape:label="Gear24"
     style="fill:#9a9a9a;fill-opacity:1" />
  <g
     style="fill:#9a9a9a;fill-opacity:1"
     inkscape:label="Gear24"
     transform="matrix(0.6006603,0,0,0.6006603,53.689292,21.583435)"
     id="g3380" />
  <g
     id="g3186">
    <g
       transform="matrix(3.6484311,0,0,3.6484311,-77.37391,37.564368)"
       id="g3459">
      <path
         style="fill:#000000;fill-opacity:1;stroke:#676767;stroke-width:1;stroke-linecap:round;stroke-linejoin:round;stroke-miterlimit:4;stroke-dasharray:none;stroke-opacity:1"
         d="M 54.0625,-6.90625 C 37.98924,-6.90625 24.937499,6.1454902 24.9375,22.21875 C 24.9375,38.29201 37.98924,51.34375 54.0625,51.34375 C 70.13576,51.34375 83.156249,38.292011 83.15625,22.21875 C 83.15625,6.1454896 70.13576,-6.9062499 54.0625,-6.90625 z M 53.21875,-4.53125 L 54.71875,-4.53125 L 55.59375,-2.4375 L 55.84375,-0.90625 L 55.78125,-0.34375 L 58.0625,-0.03125 L 58.1875,-0.59375 L 58.8125,-2 L 60.1875,-3.8125 L 61.625,-3.4375 L 61.9375,-1.15625 L 61.78125,0.375 L 61.59375,0.90625 L 63.71875,1.78125 L 63.96875,1.28125 L 64.9375,0.09375 L 66.75,-1.3125 L 68.03125,-0.5625 L 67.75,1.6875 L 67.1875,3.125 L 66.875,3.59375 L 68.6875,5 L 69.0625,4.5625 L 70.3125,3.6875 L 72.4375,2.8125 L 73.46875,3.84375 L 72.59375,5.96875 L 71.71875,7.21875 L 71.28125,7.59375 L 72.65625,9.40625 L 73.125,9.09375 L 74.5625,8.53125 L 76.84375,8.25 L 77.59375,9.53125 L 76.1875,11.34375 L 75,12.3125 L 74.5,12.5625 L 75.375,14.6875 L 75.90625,14.5 L 77.4375,14.34375 L 79.6875,14.65625 L 80.09375,16.0625 L 78.28125,17.46875 L 76.875,18.09375 L 76.3125,18.21875 L 76.625,20.46875 L 77.1875,20.4375 L 78.6875,20.6875 L 80.8125,21.5625 L 80.8125,23.03125 L 78.6875,23.9375 L 77.1875,24.15625 L 76.625,24.125 L 76.3125,26.40625 L 76.875,26.5 L 78.28125,27.125 L 80.09375,28.53125 L 79.6875,29.96875 L 77.4375,30.28125 L 75.90625,30.125 L 75.375,29.9375 L 74.5,32.03125 L 75,32.28125 L 76.1875,33.25 L 77.59375,35.09375 L 76.84375,36.34375 L 74.5625,36.0625 L 73.125,35.53125 L 72.65625,35.1875 L 71.28125,37.03125 L 71.71875,37.40625 L 72.59375,38.625 L 73.46875,40.75 L 72.4375,41.8125 L 70.3125,40.9375 L 69.0625,40.03125 L 68.6875,39.59375 L 66.875,41 L 67.1875,41.46875 L 67.75,42.90625 L 68.03125,45.15625 L 66.75,45.90625 L 64.9375,44.53125 L 63.96875,43.34375 L 63.71875,42.8125 L 61.59375,43.6875 L 61.78125,44.25 L 61.9375,45.78125 L 61.625,48.03125 L 60.1875,48.40625 L 58.8125,46.59375 L 58.1875,45.21875 L 58.0625,44.65625 L 55.78125,44.9375 L 55.84375,45.5 L 55.59375,47.03125 L 54.71875,49.125 L 53.21875,49.125 L 52.34375,47.03125 L 52.09375,45.5 L 52.15625,44.9375 L 49.875,44.65625 L 49.78125,45.21875 L 49.125,46.59375 L 47.75,48.40625 L 46.3125,48.03125 L 46,45.78125 L 46.15625,44.25 L 46.34375,43.6875 L 44.21875,42.8125 L 44,43.34375 L 43,44.53125 L 41.1875,45.90625 L 39.90625,45.15625 L 40.21875,42.90625 L 40.75,41.46875 L 41.0625,41 L 39.25,39.59375 L 38.875,40.03125 L 37.625,40.9375 L 35.53125,41.8125 L 34.46875,40.75 L 35.34375,38.625 L 36.25,37.40625 L 36.6875,37.03125 L 35.28125,35.1875 L 34.8125,35.53125 L 33.375,36.0625 L 31.09375,36.34375 L 30.375,35.09375 L 31.75,33.25 L 32.9375,32.28125 L 33.4375,32.03125 L 32.5625,29.9375 L 32.03125,30.125 L 30.5,30.28125 L 28.25,29.96875 L 27.875,28.53125 L 29.65625,27.125 L 31.0625,26.5 L 31.625,26.40625 L 31.34375,24.125 L 30.75,24.15625 L 29.25,23.9375 L 27.125,23.03125 L 27.125,21.5625 L 29.25,20.6875 L 30.75,20.4375 L 31.34375,20.46875 L 31.625,18.21875 L 31.0625,18.09375 L 29.65625,17.46875 L 27.875,16.0625 L 28.25,14.65625 L 30.5,14.34375 L 32.03125,14.5 L 32.5625,14.6875 L 33.4375,12.5625 L 32.9375,12.3125 L 31.75,11.34375 L 30.375,9.53125 L 31.09375,8.25 L 33.375,8.53125 L 34.8125,9.09375 L 35.28125,9.40625 L 36.6875,7.59375 L 36.25,7.21875 L 35.34375,5.96875 L 34.46875,3.84375 L 35.53125,2.8125 L 37.625,3.6875 L 38.875,4.5625 L 39.25,5 L 41.0625,3.59375 L 40.75,3.125 L 40.21875,1.6875 L 39.90625,-0.5625 L 41.1875,-1.3125 L 43,0.09375 L 44,1.28125 L 44.21875,1.78125 L 46.34375,0.90625 L 46.15625,0.375 L 46,-1.15625 L 46.3125,-3.4375 L 47.75,-3.8125 L 49.125,-2 L 49.78125,-0.59375 L 49.875,-0.03125 L 52.15625,-0.34375 L 52.09375,-0.90625 L 52.34375,-2.4375 L 53.21875,-4.53125 z"
         id="path3330"
         sodipodi:nodetypes="cssscccccccccccccccccccccccccccccccccccccccccccccccccccccccccccccccccccccccccccccccccccccccccccccccccccccccccccccccccccccccccccccccccccccccccccccccccccccccccccccccccccccccccccccccccccccccccccccccccc" />
      <g
         id="g3428"
         transform="matrix(0.7221718,0,0,0.7221718,49.569974,13.912981)"
         inkscape:label="Gear12"
         style="fill:#9a9a9a;fill-opacity:1;stroke:#676767;stroke-opacity:1">
        <path
           style="fill:#000000;fill-opacity:1;stroke:#676767;stroke-width:0.72217178;stroke-linecap:round;stroke-linejoin:round;stroke-opacity:1"
           d="M 48.8125,-3.4375 L 47.625,-0.84375 L 47.53125,0.0625 L 47.78125,1.625 L 45,2.375 L 44.40625,0.90625 L 43.875,0.15625 L 41.5625,-1.5 L 40.21875,-0.75 L 40.5,2.09375 L 40.875,2.9375 L 41.875,4.1875 L 39.84375,6.21875 L 38.59375,5.21875 L 37.75,4.84375 L 34.90625,4.5625 L 34.15625,5.90625 L 35.8125,8.21875 L 36.5625,8.75 L 38.03125,9.34375 L 37.28125,12.125 L 35.71875,11.875 L 34.8125,11.96875 L 32.21875,13.15625 L 32.21875,14.6875 L 34.8125,15.84375 L 35.71875,15.9375 L 37.28125,15.71875 L 38.03125,18.5 L 36.5625,19.0625 L 35.8125,19.625 L 34.15625,21.9375 L 34.90625,23.25 L 37.75,22.96875 L 38.59375,22.59375 L 39.84375,21.625 L 41.875,23.65625 L 40.875,24.875 L 40.5,25.71875 L 40.21875,28.5625 L 41.5625,29.34375 L 43.875,27.6875 L 44.40625,26.9375 L 45,25.4375 L 47.78125,26.1875 L 47.53125,27.75 L 47.625,28.6875 L 48.8125,31.28125 L 50.34375,31.28125 L 51.5,28.6875 L 51.59375,27.75 L 51.375,26.1875 L 54.15625,25.4375 L 54.71875,26.9375 L 55.28125,27.6875 L 57.59375,29.34375 L 58.90625,28.5625 L 58.625,25.71875 L 58.25,24.875 L 57.28125,23.65625 L 59.3125,21.625 L 60.5625,22.59375 L 61.375,22.96875 L 64.21875,23.25 L 65,21.9375 L 63.34375,19.625 L 62.59375,19.0625 L 61.09375,18.5 L 61.84375,15.71875 L 63.40625,15.9375 L 64.34375,15.84375 L 66.9375,14.6875 L 66.9375,13.15625 L 64.34375,11.96875 L 63.40625,11.875 L 61.84375,12.125 L 61.09375,9.34375 L 62.59375,8.75 L 63.34375,8.21875 L 65,5.90625 L 64.21875,4.5625 L 61.375,4.84375 L 60.5625,5.21875 L 59.3125,6.21875 L 57.28125,4.1875 L 58.25,2.9375 L 58.625,2.09375 L 58.90625,-0.75 L 57.59375,-1.5 L 55.28125,0.15625 L 54.71875,0.90625 L 54.15625,2.375 L 51.375,1.625 L 51.59375,0.0625 L 51.5,-0.84375 L 50.34375,-3.4375 L 48.8125,-3.4375 z M 49.375,8.9375 C 52.001705,8.9375004 54.125,11.060796 54.125,13.6875 C 54.125001,16.314204 52.001704,18.46875 49.375,18.46875 C 46.748296,18.468749 44.59375,16.314204 44.59375,13.6875 C 44.59375,11.060795 46.748296,8.9375 49.375,8.9375 z"
           transform="matrix(1.3847121,0,0,1.3847121,-68.640141,-19.265473)"
           id="path3430" />
      </g>
    </g>
    <rect
       ry="10.593103"
       y="97.929321"
       x="131.53104"
       height="111.52184"
       width="72.091949"
       id="rect2387"
       style="fill:#000000;fill-opacity:1;stroke:#000000;stroke-width:3;stroke-linecap:round;stroke-linejoin:round;stroke-miterlimit:4;stroke-dasharray:none;stroke-opacity:0.68663598999999997" />
    <rect
       style="fill:url(#linearGradient3184);fill-opacity:1;stroke:none;stroke-width:3;stroke-linecap:round;stroke-linejoin:round;stroke-miterlimit:4;stroke-dasharray:none;stroke-opacity:0.68663598999999997"
       id="rect3176"
       width="72.091949"
       height="111.52184"
       x="131.53104"
       y="97.929321"
       ry="10.593103" />
    <path
       sodipodi:nodetypes="cccc"
       id="rect2389"
       d="M 99.457474,168.90115 L 234.51955,168.90115 L 165.66437,249.52644 L 99.457474,168.90115 z"
       style="fill:#000000;fill-opacity:1;stroke:#000000;stroke-width:3;stroke-linecap:round;stroke-linejoin:round;stroke-miterlimit:4;stroke-opacity:0.68663598999999997" />
    <path
       style="fill:url(#linearGradient3174);fill-opacity:1;stroke:none;stroke-width:3;stroke-linecap:round;stroke-linejoin:round;stroke-miterlimit:4;stroke-opacity:0.68663598999999997"
       d="M 99.457474,168.90115 L 234.51955,168.90115 L 165.66437,249.52644 L 99.457474,168.90115 z"
       id="path3166"
       sodipodi:nodetypes="cccc" />
  </g>
</svg>
