<?xml version="1.0" encoding="UTF-8" standalone="no"?>
<!-- Created with Inkscape (http://www.inkscape.org/) -->
<svg
   xmlns:dc="http://purl.org/dc/elements/1.1/"
   xmlns:cc="http://web.resource.org/cc/"
   xmlns:rdf="http://www.w3.org/1999/02/22-rdf-syntax-ns#"
   xmlns:svg="http://www.w3.org/2000/svg"
   xmlns="http://www.w3.org/2000/svg"
   xmlns:xlink="http://www.w3.org/1999/xlink"
   xmlns:sodipodi="http://sodipodi.sourceforge.net/DTD/sodipodi-0.dtd"
   xmlns:inkscape="http://www.inkscape.org/namespaces/inkscape"
   id="svg2"
   sodipodi:version="0.32"
   inkscape:version="0.44"
   width="256"
   height="256"
   version="1.0"
   sodipodi:docbase="/media/disk-hda3/svg3"
   sodipodi:docname="STOP.svg">
  <metadata
     id="metadata7">
    <rdf:RDF>
      <cc:Work
         rdf:about="">
        <dc:format>image/svg+xml</dc:format>
        <dc:type
           rdf:resource="http://purl.org/dc/dcmitype/StillImage" />
      </cc:Work>
    </rdf:RDF>
  </metadata>
  <defs
     id="defs5">
    <linearGradient
       inkscape:collect="always"
       id="linearGradient2781">
      <stop
         style="stop-color:#3253cc;stop-opacity:1"
         offset="0"
         id="stop2783" />
      <stop
         style="stop-color:#b4c1f3;stop-opacity:1"
         offset="1"
         id="stop2785" />
    </linearGradient>
    <linearGradient
       inkscape:collect="always"
       id="linearGradient2772">
      <stop
         style="stop-color:#1644a2;stop-opacity:1"
         offset="0"
         id="stop2775" />
      <stop
         style="stop-color:#5e6ef0;stop-opacity:1"
         offset="1"
         id="stop2777" />
    </linearGradient>
    <linearGradient
       id="linearGradient2780">
      <stop
         id="stop2782"
         offset="0"
         style="stop-color:#eceaea;stop-opacity:1" />
      <stop
         style="stop-color:#a64349;stop-opacity:0;"
         offset="0.5"
         id="stop2784" />
      <stop
         id="stop2786"
         offset="0.5"
         style="stop-color:#bc4047;stop-opacity:0;" />
      <stop
         id="stop2788"
         offset="1"
         style="stop-color:#d23d46;stop-opacity:0;" />
    </linearGradient>
    <linearGradient
       id="linearGradient2764">
      <stop
         style="stop-color:#eceaea;stop-opacity:1;"
         offset="0"
         id="stop2766" />
      <stop
         id="stop2772"
         offset="0.5"
         style="stop-color:#a64349;stop-opacity:0.49803922;" />
      <stop
         style="stop-color:#bc4047;stop-opacity:0.24705882;"
         offset="0.5"
         id="stop2774" />
      <stop
         style="stop-color:#d23d46;stop-opacity:0;"
         offset="1"
         id="stop2768" />
    </linearGradient>
    <linearGradient
       inkscape:collect="always"
       xlink:href="#linearGradient2780"
       id="linearGradient2770"
       x1="128.60672"
       y1="-56.647655"
       x2="183.59798"
       y2="16.068052"
       gradientUnits="userSpaceOnUse"
       spreadMethod="reflect"
       gradientTransform="matrix(1.475455,0,0,1.459518,-136.3804,105.7762)" />
    <linearGradient
       inkscape:collect="always"
       xlink:href="#linearGradient2780"
       id="linearGradient2778"
       gradientUnits="userSpaceOnUse"
       spreadMethod="reflect"
       x1="177.23535"
       y1="-72.554214"
       x2="183.59798"
       y2="16.068052"
       gradientTransform="matrix(1.450727,0,0,1.435057,-130.2837,106.1693)" />
    <linearGradient
       inkscape:collect="always"
       xlink:href="#linearGradient2772"
       id="linearGradient2779"
       x1="155.2233"
       y1="187.39255"
       x2="51.676086"
       y2="57.074646"
       gradientUnits="userSpaceOnUse" />
    <linearGradient
       inkscape:collect="always"
       xlink:href="#linearGradient2781"
       id="linearGradient2787"
       x1="193.34"
       y1="201.81509"
       x2="99.579506"
       y2="49.348286"
       gradientUnits="userSpaceOnUse" />
  </defs>
  <sodipodi:namedview
     inkscape:window-height="711"
     inkscape:window-width="1016"
     inkscape:pageshadow="2"
     inkscape:pageopacity="0.0"
     guidetolerance="10.0"
     gridtolerance="10.0"
     objecttolerance="10.0"
     borderopacity="1.0"
     bordercolor="#666666"
     pagecolor="#ffffff"
     id="base"
     inkscape:zoom="1.9414062"
     inkscape:cx="128"
     inkscape:cy="128.46873"
     inkscape:window-x="0"
     inkscape:window-y="0"
     inkscape:current-layer="svg2"
     width="256px"
     height="256px" />
  <path
     id="path2803"
     d="M 178.93176,247.89301 L 79.524561,247.96066 L 9.184723,178.47623 L 9.1163371,80.142781 L 79.359473,10.562695 L 178.76664,10.495046 L 249.1065,79.979464 L 249.17488,178.31291 L 178.93176,247.89301 z "
     style="fill:#d23d46;fill-opacity:1;fill-rule:evenodd;stroke:#212654;stroke-width:7.33732367;stroke-linecap:square;stroke-linejoin:bevel;stroke-miterlimit:4;stroke-dasharray:none;stroke-opacity:1" />
  <path
     style="fill:#d23d46;fill-opacity:1;fill-rule:evenodd;stroke:#212654;stroke-width:4.69588709;stroke-linecap:square;stroke-linejoin:bevel;stroke-miterlimit:4;stroke-dasharray:none;stroke-opacity:1"
     d="M 178.93176,247.89301 L 79.524561,247.96066 L 9.184723,178.47623 L 9.1163371,80.142781 L 79.359473,10.562695 L 178.76664,10.495046 L 249.1065,79.979464 L 249.17488,178.31291 L 178.93176,247.89301 z "
     id="path1873" />
  <path
     id="path2762"
     d="M 178.93176,247.89301 L 79.524561,247.96066 L 9.184723,178.47623 L 9.1163371,80.142781 L 79.359473,10.562695 L 178.76664,10.495046 L 249.1065,79.979464 L 249.17488,178.31291 L 178.93176,247.89301 z "
     style="fill:url(#linearGradient2770);fill-opacity:1;fill-rule:evenodd;stroke:#212654;stroke-width:0;stroke-linecap:square;stroke-linejoin:bevel;stroke-miterlimit:4;stroke-dasharray:none;stroke-opacity:1" />
  <path
     style="fill:url(#linearGradient2778);fill-opacity:1;fill-rule:evenodd;stroke:#212654;stroke-width:0;stroke-linecap:square;stroke-linejoin:bevel;stroke-miterlimit:4;stroke-dasharray:none;stroke-opacity:1"
     d="M 179.74393,245.9042 L 82.002766,245.97073 L 12.841794,177.65085 L 12.774552,80.965436 L 81.840433,12.551496 L 179.58158,12.484982 L 248.74256,80.804855 L 248.80979,177.49028 L 179.74393,245.9042 z "
     id="path2776" />
  <path
     style="font-size:63.92811203px;font-style:normal;font-variant:normal;font-weight:800;font-stretch:normal;text-align:start;line-height:100%;writing-mode:lr-tb;text-anchor:start;fill:#10131e;fill-opacity:0.3174603;stroke:none;stroke-width:1px;stroke-linecap:butt;stroke-linejoin:miter;stroke-opacity:1;font-family:Cooper"
     d="M 115.2826,75.459737 C 105.11514,79.398836 94.039418,76.965022 83.772557,75.459737 C 79.069023,76.407188 77.040006,81.908306 75.088314,84.826953 C 73.332541,79.689463 67.709032,76.082161 62.560225,77.824727 C 50.598416,70.504776 36.174404,80.422403 32.37892,92.107412 C 27.464568,103.93865 27.818477,117.86401 32.47383,129.48352 C 24.197881,137.76237 27.963654,151.05989 29.958721,161.10947 C 31.81686,170.81094 41.157054,176.51653 50.791414,177.10793 C 67.895699,178.89927 78.445768,161.90498 79.643982,147.29051 C 81.21953,138.23439 79.082406,127.07809 75.800137,119.88445 C 79.057812,123.43977 84.951933,120.21231 86.809669,118.81788 C 85.981144,128.77894 87.987088,139.85273 85.053839,149.1454 C 76.421504,156.11796 78.868995,173.11537 90.795879,175.39215 C 99.778735,178.44805 113.44481,177.66492 118.36716,168.52905 C 121.30385,161.11471 119.02566,152.39816 113.85895,146.91953 C 113.25286,138.25833 113.13665,125.229 114.42841,119.14249 C 117.1176,122.42394 123.21409,119.89289 121.21446,125.40276 C 121.56997,143.2089 125.52578,164.3371 141.62006,174.88206 C 154.421,181.99334 169.16911,172.3662 174.69611,160.64575 C 176.61245,157.51893 177.86089,153.52985 176.30957,159.16183 C 174.12417,167.31887 180.03192,175.23461 188.45802,176.36597 C 198.98412,179.50051 213.92347,172.16427 211.094,159.90379 C 211.52852,154.26696 203.71031,149.03983 206.91797,144.60091 C 221.07602,145.83737 228.72587,129.89686 230.26577,118.21504 C 232.42064,102.95543 229.05997,81.688507 211.71092,76.619046 C 201.36466,76.521022 190.62813,77.514666 180.34324,78.844919 C 174.7294,80.54587 174.79443,89.866839 174.55374,92.107412 C 169.72089,81.567812 158.06101,72.02041 145.65372,76.10895 C 137.70647,78.640213 132.56152,85.731265 128.66487,92.524763 C 127.04842,86.035461 124.54412,74.259964 115.2826,75.459737 z M 178.63486,101.33551 C 182.51215,101.96768 180.57137,108.36716 180.58051,108.84783 C 180.0979,106.50259 178.87196,102.8834 178.63486,101.33551 z M 149.49757,108.43048 C 153.87198,117.99423 154.64436,128.84137 155.19215,139.17535 C 155.07689,143.13725 153.82815,145.31592 152.81941,139.82456 C 149.77846,129.95283 147.13833,117.96941 149.49757,108.43048 z M 180.77033,145.57473 C 182.17041,149.01893 178.61383,152.65982 177.73322,154.43185 C 178.85634,151.55924 180.25395,147.27807 180.77033,145.57473 z M 48.181396,146.45581 C 51.065113,148.47975 48.823102,147.4426 48.181396,146.45581 z "
     id="text2794" />
  <path
     id="path2799"
     d="M 63.977935,84.472297 C 63.769483,84.598957 63.491557,84.725616 63.283104,84.725616 C 61.40705,84.725616 57.515962,81.179157 52.930059,81.179157 C 42.160124,81.179157 33.822081,93.845101 33.822081,110.05747 C 33.822081,116.51708 35.837114,123.73668 39.172334,129.18302 C 45.564803,139.69572 56.473716,139.44242 56.473716,147.92859 C 56.473716,151.34838 54.180757,153.75492 50.915041,153.75492 C 46.954479,153.75492 42.924429,150.46177 41.187352,145.77539 C 39.936639,142.10226 38.199547,134.62937 35.350721,134.62937 C 33.544155,134.62937 32.571383,137.0359 32.571383,141.46896 C 32.571383,148.43521 34.308475,158.44133 36.184529,161.73445 C 38.199547,165.53424 46.398627,169.0807 53.277474,169.0807 C 65.784501,169.0807 74.608922,156.66805 74.608922,139.06244 C 74.608922,109.55086 51.748835,115.5038 51.748835,102.83789 C 51.748835,99.038119 53.416452,96.758246 55.987338,96.758246 C 62.449295,96.758246 65.576063,110.5641 69.88404,110.5641 C 72.107526,110.5641 73.775128,106.89098 73.775128,102.33126 C 73.775128,96.124957 70.231471,83.205704 66.479346,83.205704 C 65.576063,83.205704 64.811744,83.965662 63.977935,84.472297 M 91.808272,82.952387 C 87.708762,82.952387 86.735975,81.432473 84.512505,81.432473 C 79.857113,81.432473 75.966025,97.264891 75.966025,104.86444 C 75.966025,110.05746 77.772606,113.60393 80.274002,113.60393 C 85.27681,113.60393 87.08339,99.418089 89.862728,99.418089 C 91.460856,99.418089 91.877761,101.95129 91.877761,112.33733 C 91.877761,117.02372 91.808272,121.33015 91.738783,125.12992 L 91.321878,139.94905 C 91.043952,150.08178 90.488069,152.86831 88.542556,153.88158 C 86.944427,154.76818 84.929394,155.65479 84.929394,159.45459 C 84.929394,165.78754 89.932217,168.70072 100.84113,168.70072 C 110.01295,168.70072 114.32094,165.91421 114.32094,159.96121 C 114.32094,156.9214 113.62609,155.65479 111.1247,153.75492 C 108.90123,151.9817 108.20637,149.44851 108.20637,142.22892 L 108.20637,107.65094 C 108.20637,101.82462 108.90123,99.418089 110.56882,99.418089 C 111.81953,99.418089 112.3754,100.43137 113.90404,105.62439 C 115.57164,111.1974 117.23924,113.47727 119.60167,113.47727 C 122.72844,113.47727 124.67399,109.80414 124.67399,103.97782 C 124.67399,96.631596 121.47773,81.052497 116.75286,81.052497 C 116.26647,81.052497 115.57164,81.305815 114.94628,81.559136 C 112.65334,82.699066 111.61108,82.952387 109.66553,82.952387 L 91.808272,82.952387 M 151.08968,81.305815 C 137.26245,81.305815 126.28405,100.55805 126.28405,124.74994 C 126.28405,149.70179 136.98453,169.0807 150.74225,169.0807 C 165.54222,169.0807 177.14599,150.5884 177.14599,126.90315 C 177.14599,113.0973 173.32439,98.911448 167.27934,90.298624 C 162.90187,84.092327 157.89903,81.305815 151.08968,81.305815 M 148.65774,98.911455 C 156.50937,98.911455 159.98356,126.90316 159.98356,138.04917 C 159.98356,145.90203 157.69058,150.96841 154.21641,150.96841 C 147.12912,150.96841 143.02958,122.34341 143.02958,112.33733 C 143.02958,104.61113 145.46152,98.911455 148.65774,98.911455 M 185.71636,138.30248 L 185.71636,145.01543 C 185.64687,151.34838 185.99428,153.37493 182.79804,156.28809 C 181.61683,157.42802 180.92197,159.0746 180.92197,160.84784 C 180.92197,165.91421 185.22998,168.70072 193.0816,168.70072 C 201.5586,168.70072 205.93607,165.91421 205.93607,160.46787 C 205.93607,158.69463 205.38019,157.42802 203.78207,155.90811 C 201.62808,153.75492 201.1417,152.48832 201.00274,148.43523 C 200.93325,144.88877 200.79427,141.46896 200.79427,137.92251 C 200.79427,136.4026 201.07223,135.89596 201.83653,135.89596 C 203.85155,135.89596 205.79709,136.52926 207.81211,136.52926 C 218.09568,136.52926 225.32196,125.1299 225.32196,108.79088 C 225.32196,92.958485 218.16516,82.192431 207.67315,82.192431 C 201.35017,82.192431 195.02714,83.839002 188.70415,83.839002 C 187.38396,83.839002 185.9943,83.585682 184.6741,83.585682 C 181.33889,83.585682 179.6018,85.738893 179.6018,89.538671 C 179.6018,92.071853 180.64405,93.971744 182.65908,94.985017 C 185.43842,96.378269 185.71636,97.391552 185.71636,105.75105 L 185.71636,138.30248 M 201.00274,97.89818 C 201.00274,96.378271 201.90603,95.491655 203.50413,95.491655 C 207.53418,95.491655 210.10507,100.81135 210.10507,109.42417 C 210.10507,117.78367 207.81211,122.72339 203.99053,122.72339 C 201.69757,122.72339 201.00274,121.83678 201.00274,118.92362 L 201.00274,97.89818"
     style="font-size:63.92811203px;font-style:normal;font-variant:normal;font-weight:800;font-stretch:normal;text-align:start;line-height:100%;writing-mode:lr-tb;text-anchor:start;fill:url(#linearGradient2787);fill-opacity:1.0;stroke:url(#linearGradient2779);stroke-width:3.99999995;stroke-linecap:butt;stroke-linejoin:miter;stroke-opacity:1;font-family:Cooper;stroke-miterlimit:4;stroke-dasharray:none" />
</svg>
