<?xml version="1.0" encoding="UTF-8" standalone="no"?>
<!-- Created with Inkscape (http://www.inkscape.org/) -->
<svg xmlns:dc="http://purl.org/dc/elements/1.1/" xmlns:cc="http://creativecommons.org/ns#" xmlns:rdf="http://www.w3.org/1999/02/22-rdf-syntax-ns#" xmlns:svg="http://www.w3.org/2000/svg" xmlns="http://www.w3.org/2000/svg" xmlns:xlink="http://www.w3.org/1999/xlink" xmlns:sodipodi="http://sodipodi.sourceforge.net/DTD/sodipodi-0.dtd" xmlns:inkscape="http://www.inkscape.org/namespaces/inkscape" width="255" height="255" viewBox="0 0 67.468748 67.468752" version="1.1" id="svg8" inkscape:version="0.92.5 (2060ec1f9f, 2020-04-08)" sodipodi:docname="switchuser.svg">
 <defs id="defs2"/>
 <sodipodi:namedview id="base" pagecolor="#ff0000" bordercolor="#666666" borderopacity="1.0" inkscape:pageopacity="0" inkscape:pageshadow="2" inkscape:zoom="3.5058824" inkscape:cx="127.5" inkscape:cy="127.5" inkscape:document-units="mm" inkscape:current-layer="layer1" showgrid="false" units="px" inkscape:snap-to-guides="false" inkscape:snap-grids="false" inkscape:snap-others="false" inkscape:object-nodes="false" inkscape:snap-nodes="false" inkscape:snap-global="false" inkscape:window-width="1920" inkscape:window-height="1056" inkscape:window-x="0" inkscape:window-y="0" inkscape:window-maximized="1"/>
 <metadata id="metadata5">
  <rdf:RDF>
   <cc:Work>
    <dc:format>image/svg+xml</dc:format>
    <dc:type rdf:resource="http://purl.org/dc/dcmitype/StillImage"/>
    <dc:title/>
   </cc:Work>
  </rdf:RDF>
 </metadata>
 <g inkscape:label="Layer 1" inkscape:groupmode="layer" id="layer1" transform="translate(0,-229.53123)">
  <path id="path4456" d="m 27.307238,255.49311 c 0,2.55491 2.058986,4.61388 4.613886,4.61388 h 15.376821 l -3.296828,3.48978 c -1.754025,1.85767 -1.673114,4.76414 0.184554,6.51817 l 0.159389,0.14261 c 1.857668,1.75401 4.764141,1.67311 6.518158,-0.18457 l 10.242825,-10.83843 c 0.10567,-0.0837 0.210456,-0.16568 0.31039,-0.26006 l 0.151001,-0.151 c 1.469432,-1.38743 1.83073,-3.4942 1.048608,-5.23465 -0.01367,-0.0305 -0.02759,-0.0621 -0.04194,-0.0923 -0.0076,-0.0172 -0.01741,-0.0331 -0.02517,-0.0503 -0.0055,-0.0109 -0.01121,-0.0224 -0.01679,-0.0336 -0.30009,-0.64829 -0.74159,-1.21079 -1.291886,-1.6526 L 50.930348,240.83776 c -1.754017,-1.85766 -4.660495,-1.93857 -6.518158,-0.18455 l -0.150999,0.151 c -1.857672,1.75402 -1.946967,4.66049 -0.192949,6.51815 l 3.23811,3.42267 H 31.921141 c -2.554899,0 -4.613885,2.0506 -4.613885,4.6055 z" inkscape:connector-curvature="0" stroke-dasharray="none" stroke-opacity="1" fill="#000000" stroke="none" fill-opacity="1" stroke-width="0.645" stroke-miterlimit="4"/>
  <path inkscape:connector-curvature="0" d="m 26.401472,254.31562 c 0,2.55489 2.058985,4.61389 4.613884,4.61389 h 15.376823 l -3.296829,3.48976 c -1.754025,1.85768 -1.673114,4.76415 0.184553,6.51817 l 0.15939,0.14261 c 1.857668,1.75402 4.764141,1.67311 6.518158,-0.18455 l 10.242826,-10.83844 c 0.10567,-0.0837 0.210455,-0.1657 0.31039,-0.26006 l 0.151,-0.151 c 1.469433,-1.38744 1.830731,-3.49422 1.048607,-5.23466 -0.01367,-0.0305 -0.02759,-0.0621 -0.04194,-0.0923 -0.0076,-0.0173 -0.01741,-0.0331 -0.02516,-0.0503 -0.0055,-0.0109 -0.01121,-0.0224 -0.0168,-0.0335 -0.300091,-0.6483 -0.74159,-1.2108 -1.291886,-1.65261 L 50.024571,239.66036 c -1.754018,-1.85766 -4.660494,-1.93858 -6.518159,-0.18456 l -0.150999,0.151 c -1.857672,1.75402 -1.946965,4.66049 -0.192947,6.51816 l 3.23811,3.42268 H 31.015365 c -2.554899,0 -4.613884,2.05059 -4.613884,4.60549 z" id="rect2883" stroke-dasharray="none" stroke-opacity="1" fill="#ffffff" stroke="#000000" fill-opacity="1" stroke-width="0.645" stroke-miterlimit="4"/>
  <path d="m 9.0449219,230.10742 c -4.7315227,0 -8.57031252,3.84074 -8.57031252,8.57227 v 49.39843 c 0,4.73153 3.83878982,8.57227 8.57031252,8.57227 H 58.40625 c 4.731523,0 8.572266,-3.84074 8.572266,-8.57227 v -49.39843 c 0,-4.73153 -3.840743,-8.57227 -8.572266,-8.57227 z m 0,2 H 58.40625 c 3.658117,0 6.572266,2.91415 6.572266,6.57227 v 49.39843 c 0,3.65812 -2.914149,6.57227 -6.572266,6.57227 H 9.0449219 c -3.6581171,0 -6.5703125,-2.91415 -6.5703125,-6.57227 v -49.39843 c 0,-3.65812 2.9121954,-6.57227 6.5703125,-6.57227 z" id="rect3792" inkscape:connector-curvature="0" visibility="visible" font-variant-ligatures="normal" letter-spacing="0" text-align="start" font-variant-caps="normal" shape-rendering="auto" mix-blend-mode="normal" isolation="auto" color-interpolation-filters="linearRGB" stroke-dasharray="none" stroke-opacity="0.98" word-spacing="0" white-space="normal" font-feature-settings="normal" overflow="visible" font-size="0" font-family="sans-serif" text-decoration-line="none" opacity="1" fill="#aeaeae" solid-opacity="1" stroke-miterlimit="4" dominant-baseline="auto" image-rendering="auto" text-decoration-style="solid" fill-opacity="1" text-rendering="auto" font-variant-alternates="normal" solid-color="#000000" font-weight="normal" text-decoration="none" stroke="#000000" clip-rule="nonzero" font-style="normal" display="inline" line-height="normal" text-decoration-color="#000000" color="#000000" enable-background="accumulate" fill-rule="nonzero" font-variant="normal" stroke-linecap="round" stroke-linejoin="round" text-transform="none" font-variant-numeric="normal" stroke-width="0.3" color-rendering="auto" text-orientation="mixed" vector-effect="none" stroke-dashoffset="0" text-anchor="start" font-variant-position="normal" font-stretch="normal" shape-padding="0" writing-mode="lr-tb" baseline-shift="0" text-indent="0" direction="ltr" color-interpolation="sRGB"/>
  <path d="m 42.820947,273.91015 c 0,2.55491 -2.058985,4.6139 -4.613884,4.6139 H 22.830246 l 3.296826,3.48976 c 1.754024,1.85768 1.673114,4.76416 -0.184553,6.51817 l -0.159391,0.14261 c -1.857666,1.75402 -4.764139,1.67311 -6.518157,-0.18455 L 9.0221457,277.65159 c -0.10567,-0.0837 -0.2104566,-0.16569 -0.31039,-0.26005 l -0.1510005,-0.151 c -1.4694324,-1.38744 -1.8307306,-3.49421 -1.048608,-5.23466 0.013669,-0.0305 0.027581,-0.0621 0.041944,-0.0922 0.00755,-0.0172 0.017397,-0.0331 0.025169,-0.0503 0.00548,-0.0109 0.011208,-0.0224 0.016775,-0.0335 0.300091,-0.64828 0.7415901,-1.2108 1.2918864,-1.6526 L 19.197858,259.25491 c 1.754018,-1.85767 4.660495,-1.93857 6.518157,-0.18455 l 0.151002,0.151 c 1.857669,1.75402 1.946964,4.6605 0.192946,6.51816 l -3.238109,3.42266 h 15.385207 c 2.5549,0 4.613885,2.05061 4.613885,4.6055 z" id="path4458" inkscape:connector-curvature="0" stroke-dasharray="none" stroke-opacity="1" fill="#000000" stroke="none" fill-opacity="1" stroke-width="0.645" stroke-miterlimit="4"/>
  <path inkscape:connector-curvature="0" id="path2709" d="m 41.371721,272.82323 c 0,2.5549 -2.058986,4.61389 -4.613885,4.61389 H 21.381019 l 3.296827,3.48978 c 1.754023,1.85766 1.673114,4.76414 -0.184554,6.51815 l -0.159389,0.14262 c -1.857666,1.75402 -4.76414,1.67311 -6.518157,-0.18456 L 7.572919,276.56468 C 7.4672491,276.481 7.3624635,276.39897 7.2625291,276.30462 l -0.1509994,-0.151 c -1.4694333,-1.38745 -1.8307311,-3.49422 -1.0486084,-5.23466 0.013666,-0.0305 0.027578,-0.0621 0.041944,-0.0923 0.00756,-0.0172 0.017393,-0.0331 0.025164,-0.0503 0.00546,-0.0109 0.01122,-0.0224 0.01678,-0.0335 0.3000915,-0.6483 0.7415905,-1.2108 1.2918869,-1.65262 L 17.748634,258.16798 c 1.754017,-1.85766 4.660493,-1.93857 6.518157,-0.18456 l 0.151,0.151 c 1.85767,1.75401 1.946964,4.66049 0.192947,6.51816 l -3.23811,3.42267 h 15.385208 c 2.554899,0 4.613885,2.0506 4.613885,4.60549 z" stroke-dasharray="none" stroke-opacity="1" fill="#ffffff" stroke="#000000" fill-opacity="1" stroke-width="0.645" stroke-miterlimit="4"/>
 </g>
</svg>
