<?xml version="1.0" encoding="UTF-8" standalone="no"?>
<!-- Created with Inkscape (http://www.inkscape.org/) -->
<svg xmlns:dc="http://purl.org/dc/elements/1.1/" xmlns:cc="http://creativecommons.org/ns#" xmlns:rdf="http://www.w3.org/1999/02/22-rdf-syntax-ns#" xmlns:svg="http://www.w3.org/2000/svg" xmlns="http://www.w3.org/2000/svg" xmlns:xlink="http://www.w3.org/1999/xlink" xmlns:sodipodi="http://sodipodi.sourceforge.net/DTD/sodipodi-0.dtd" xmlns:inkscape="http://www.inkscape.org/namespaces/inkscape" width="255" height="255" viewBox="0 0 67.468748 67.468752" version="1.1" id="svg8" inkscape:version="0.92.5 (2060ec1f9f, 2020-04-08)" sodipodi:docname="system-log-out.svg">
 <defs id="defs2">
  <clipPath id="clipPath2059" clipPathUnits="userSpaceOnUse">
   <path stroke-miterlimit="4" stroke-width="0.048" stroke-linecap="butt" fill-opacity="1" stroke-linejoin="miter" stroke="none" fill-rule="evenodd" fill="#ffffff" stroke-opacity="1" stroke-dasharray="none" inkscape:connector-curvature="0" sodipodi:nodetypes="csscsscccccccs" id="path2061" d="m -10.099732,231.68531 c 3.5587363,2.50616 4.8319716,-0.58528 2.9651647,-3.064 -3.1818907,-4.22486 -6.4443207,-9.83985 -12.3548527,-15.91305 -2.594516,-2.66865 -11.860659,-7.80827 -11.860659,-7.80827 0,0 -0.115438,-2.18844 -0.09884,-3.064 0.01106,-0.582 -0.565687,-0.56369 -0.889553,-0.29652 -0.782426,0.64546 -2.47097,2.56981 -2.47097,2.56981 l -1.68026,-0.0988 -1.087226,-1.58142 c -0.296516,-0.41055 -0.636056,-0.34641 -0.88955,0 -0.545383,1.84962 -0.878698,3.8848 -3.459359,3.95355 l 4.447747,3.95356 c 7.76561,1.55335 15.578734,5.58545 20.261957,14.33163 0,0 4.526451,5.19364 7.116396,7.01755 z"/>
  </clipPath>
  <clipPath clipPathUnits="userSpaceOnUse" id="clipPath2059-5">
   <path d="m -10.099732,231.68531 c 3.5587363,2.50616 4.8319716,-0.58528 2.9651647,-3.064 -3.1818907,-4.22486 -6.4443207,-9.83985 -12.3548527,-15.91305 -2.594516,-2.66865 -11.860659,-7.80827 -11.860659,-7.80827 0,0 -0.115438,-2.18844 -0.09884,-3.064 0.01106,-0.582 -0.565687,-0.56369 -0.889553,-0.29652 -0.782426,0.64546 -2.47097,2.56981 -2.47097,2.56981 l -1.68026,-0.0988 -1.087226,-1.58142 c -0.296516,-0.41055 -0.636056,-0.34641 -0.88955,0 -0.545383,1.84962 -0.878698,3.8848 -3.459359,3.95355 l 4.447747,3.95356 c 7.76561,1.55335 15.578734,5.58545 20.261957,14.33163 0,0 4.526451,5.19364 7.116396,7.01755 z" id="path2061-3" sodipodi:nodetypes="csscsscccccccs" inkscape:connector-curvature="0" stroke-dasharray="none" stroke-opacity="1" fill="#ffffff" fill-rule="evenodd" stroke="none" stroke-linejoin="miter" fill-opacity="1" stroke-linecap="butt" stroke-width="0.048" stroke-miterlimit="4"/>
  </clipPath>
  <clipPath id="clipPath">
   <path d="m -515.73002,435.56445 v 5.83767 c 0,9.74315 -7.84377,17.58692 -17.58692,17.58692 h -135.05122 c -9.74315,0 -17.58692,-7.84377 -17.58692,-17.58692 v -5.83767 z" id="rect5264" inkscape:connector-curvature="0" sodipodi:nodetypes="csssscc" fill="#1b1b1b" stroke="none" fill-opacity="0.95"/>
  </clipPath>
  <clipPath id="clipPath2059-7" clipPathUnits="userSpaceOnUse">
   <path stroke-miterlimit="4" stroke-width="0.048" stroke-linecap="butt" fill-opacity="1" stroke-linejoin="miter" stroke="none" fill-rule="evenodd" fill="#ffffff" stroke-opacity="1" stroke-dasharray="none" inkscape:connector-curvature="0" sodipodi:nodetypes="csscsscccccccs" id="path2061-5" d="m -10.099732,231.68531 c 3.5587363,2.50616 4.8319716,-0.58528 2.9651647,-3.064 -3.1818907,-4.22486 -6.4443207,-9.83985 -12.3548527,-15.91305 -2.594516,-2.66865 -11.860659,-7.80827 -11.860659,-7.80827 0,0 -0.115438,-2.18844 -0.09884,-3.064 0.01106,-0.582 -0.565687,-0.56369 -0.889553,-0.29652 -0.782426,0.64546 -2.47097,2.56981 -2.47097,2.56981 l -1.68026,-0.0988 -1.087226,-1.58142 c -0.296516,-0.41055 -0.636056,-0.34641 -0.88955,0 -0.545383,1.84962 -0.878698,3.8848 -3.459359,3.95355 l 4.447747,3.95356 c 7.76561,1.55335 15.578734,5.58545 20.261957,14.33163 0,0 4.526451,5.19364 7.116396,7.01755 z"/>
  </clipPath>
  <clipPath id="clipPath1162" clipPathUnits="userSpaceOnUse">
   <path id="path1164" d="m -65.649736,239.84563 c -9.358079,0 -16.951888,7.59381 -16.951888,16.95188 0,9.35808 7.593811,16.94076 16.951888,16.94077 0.292439,0 0.578792,-0.008 0.867614,-0.0222 2.122786,-0.10753 4.148336,-0.60587 5.995453,-1.42378 l 2.669587,3.97101 c -0.225515,0.4951 -0.245107,0.96445 -0.01111,1.31255 l 15.67271,23.32553 c 0.495366,0.73695 1.94415,0.6317 3.247998,-0.24471 1.303846,-0.87642 1.96364,-2.17735 1.468276,-2.9143 L -51.42304,274.4168 c -0.233058,-0.34672 -0.682887,-0.49868 -1.22356,-0.47831 l -2.558357,-3.80416 c 3.95991,-3.10036 6.507123,-7.91951 6.507123,-13.33682 0,-9.35807 -7.593809,-16.95188 -16.951889,-16.95188 z m 0,2.5806 c 7.92884,0 14.371283,6.44244 14.371283,14.37128 0,7.92885 -6.442435,14.36016 -14.371283,14.36016 -7.928851,0 -14.349039,-6.43131 -14.349039,-14.36016 0,-0.24777 -0.0013,-0.48941 0.01111,-0.73413 0.384376,-7.58638 6.656848,-13.63715 14.337916,-13.63715 z" inkscape:connector-curvature="0" stroke-dasharray="none" stroke-opacity="1" fill="#000000" stroke="none" stroke-linejoin="round" fill-opacity="0.347" stroke-linecap="round" stroke-width="0.071" stroke-miterlimit="4"/>
  </clipPath>
 </defs>
 <sodipodi:namedview id="base" pagecolor="#ff0000" bordercolor="#666666" borderopacity="1.0" inkscape:pageopacity="0" inkscape:pageshadow="2" inkscape:zoom="3.5058824" inkscape:cx="127.5" inkscape:cy="127.5" inkscape:document-units="mm" inkscape:current-layer="layer1" showgrid="false" units="px" inkscape:snap-to-guides="false" inkscape:snap-grids="false" inkscape:snap-others="false" inkscape:object-nodes="false" inkscape:snap-nodes="false" inkscape:snap-global="false" inkscape:window-width="1920" inkscape:window-height="1056" inkscape:window-x="0" inkscape:window-y="0" inkscape:window-maximized="1"/>
 <metadata id="metadata5">
  <rdf:RDF>
   <cc:Work>
    <dc:format>image/svg+xml</dc:format>
    <dc:type rdf:resource="http://purl.org/dc/dcmitype/StillImage"/>
    <dc:title/>
   </cc:Work>
  </rdf:RDF>
 </metadata>
 <g inkscape:label="Layer 1" inkscape:groupmode="layer" id="layer1" transform="translate(0,-229.53123)">
  <path d="m 9.0449219,230.10742 c -4.7315227,0 -8.57031252,3.84074 -8.57031252,8.57227 v 49.39843 c 0,4.73153 3.83878982,8.57227 8.57031252,8.57227 H 58.40625 c 4.731523,0 8.572266,-3.84074 8.572266,-8.57227 v -49.39843 c 0,-4.73153 -3.840743,-8.57227 -8.572266,-8.57227 z m 0,2 H 58.40625 c 3.658117,0 6.572266,2.91415 6.572266,6.57227 v 49.39843 c 0,3.65812 -2.914149,6.57227 -6.572266,6.57227 H 9.0449219 c -3.6581171,0 -6.5703125,-2.91415 -6.5703125,-6.57227 v -49.39843 c 0,-3.65812 2.9121954,-6.57227 6.5703125,-6.57227 z" id="rect3792" inkscape:connector-curvature="0" visibility="visible" font-variant-ligatures="normal" letter-spacing="0" text-align="start" font-variant-caps="normal" shape-rendering="auto" mix-blend-mode="normal" isolation="auto" color-interpolation-filters="linearRGB" stroke-dasharray="none" stroke-opacity="0.98" word-spacing="0" white-space="normal" font-feature-settings="normal" overflow="visible" font-size="0" font-family="sans-serif" text-decoration-line="none" opacity="1" fill="#aeaeae" solid-opacity="1" stroke-miterlimit="4" dominant-baseline="auto" image-rendering="auto" text-decoration-style="solid" fill-opacity="1" text-rendering="auto" font-variant-alternates="normal" solid-color="#000000" font-weight="normal" text-decoration="none" stroke="#000000" clip-rule="nonzero" font-style="normal" display="inline" line-height="normal" text-decoration-color="#000000" color="#000000" enable-background="accumulate" fill-rule="nonzero" font-variant="normal" stroke-linecap="round" stroke-linejoin="round" text-transform="none" font-variant-numeric="normal" stroke-width="0.3" color-rendering="auto" text-orientation="mixed" vector-effect="none" stroke-dashoffset="0" text-anchor="start" font-variant-position="normal" font-stretch="normal" shape-padding="0" writing-mode="lr-tb" baseline-shift="0" text-indent="0" direction="ltr" color-interpolation="sRGB"/>
  <path sodipodi:nodetypes="cscccccccccccsscc" id="path4458" d="m 34.077471,238.55302 c -3.664265,0 -6.617283,2.953 -6.617283,6.61726 v 22.05361 l -5.005072,-4.72836 c -2.664289,-2.51563 -6.832782,-2.3996 -9.348417,0.26469 l -0.204533,0.2286 c -2.515636,2.66429 -2.399594,6.83279 0.264691,9.34842 4.117771,3.26027 20.822117,20.22073 20.822117,20.22073 l 21.107394,-20.12443 c 2.664286,-2.51565 2.780323,-6.68415 0.264691,-9.34842 l -0.216565,-0.21657 c -2.515632,-2.66429 -6.684128,-2.79237 -9.348415,-0.27673 l -4.90882,4.64414 v -22.06564 c 0,-3.66426 -2.940995,-6.61728 -6.605252,-6.61728 h -0.204536 z" inkscape:connector-curvature="0" stroke-miterlimit="4" stroke-dasharray="none" stroke-opacity="1" fill="#000000" stroke="none" stroke-linejoin="round" fill-opacity="1" stroke-linecap="round" stroke-width="0.889"/>
  <path inkscape:connector-curvature="0" d="m 32.955521,235.96864 c -3.664265,0 -6.61728,2.95303 -6.61728,6.61728 v 22.0536 l -5.005073,-4.72834 c -2.664288,-2.51566 -6.832781,-2.3996 -9.348415,0.2647 l -0.204536,0.22858 c -2.5156342,2.66429 -2.3995922,6.83278 0.264692,9.34843 4.11777,3.26025 20.822116,20.22072 20.822116,20.22072 L 53.97442,269.84917 c 2.664285,-2.51564 2.780323,-6.68413 0.264691,-9.34842 l -0.216565,-0.21655 c -2.515632,-2.66429 -6.684127,-2.79236 -9.348417,-0.27673 l -4.908819,4.64413 v -22.06565 c 0,-3.66425 -2.940994,-6.61727 -6.605252,-6.61727 h -0.204537 z" id="rect2883" sodipodi:nodetypes="cscccccccccccsscc" stroke-miterlimit="4" stroke-dasharray="none" stroke-opacity="1" fill="#ffffff" stroke="#000000" stroke-linejoin="round" fill-opacity="1" stroke-linecap="round" stroke-width="0.889"/>
 </g>
</svg>
