<?xml version="1.0" encoding="UTF-8" standalone="no"?>
<!-- Created with Inkscape (http://www.inkscape.org/) -->
<svg
   xmlns:dc="http://purl.org/dc/elements/1.1/"
   xmlns:cc="http://web.resource.org/cc/"
   xmlns:rdf="http://www.w3.org/1999/02/22-rdf-syntax-ns#"
   xmlns:svg="http://www.w3.org/2000/svg"
   xmlns="http://www.w3.org/2000/svg"
   xmlns:xlink="http://www.w3.org/1999/xlink"
   xmlns:sodipodi="http://sodipodi.sourceforge.net/DTD/sodipodi-0.dtd"
   xmlns:inkscape="http://www.inkscape.org/namespaces/inkscape"
   id="svg2"
   sodipodi:version="0.32"
   inkscape:version="0.44"
   width="256"
   height="256"
   version="1.0"
   sodipodi:docbase="/media/disk-hda2/svg1"
   sodipodi:docname="magic-lamp.svg">
  <metadata
     id="metadata7">
    <rdf:RDF>
      <cc:Work
         rdf:about="">
        <dc:format>image/svg+xml</dc:format>
        <dc:type
           rdf:resource="http://purl.org/dc/dcmitype/StillImage" />
      </cc:Work>
    </rdf:RDF>
  </metadata>
  <defs
     id="defs5">
    <linearGradient
       id="linearGradient2866"
       inkscape:collect="always">
      <stop
         id="stop2868"
         offset="0"
         style="stop-color:white;stop-opacity:1" />
      <stop
         id="stop2870"
         offset="1"
         style="stop-color:#e5c127;stop-opacity:0;" />
    </linearGradient>
    <linearGradient
       inkscape:collect="always"
       id="linearGradient2840">
      <stop
         style="stop-color:#f5d24d;stop-opacity:0"
         offset="0"
         id="stop2842" />
      <stop
         style="stop-color:#473a13;stop-opacity:1"
         offset="1"
         id="stop2844" />
    </linearGradient>
    <linearGradient
       id="linearGradient2830"
       inkscape:collect="always">
      <stop
         id="stop2832"
         offset="0"
         style="stop-color:white;stop-opacity:1" />
      <stop
         id="stop2834"
         offset="1"
         style="stop-color:#d3c424;stop-opacity:1" />
    </linearGradient>
    <linearGradient
       id="linearGradient2821"
       inkscape:collect="always">
      <stop
         id="stop2824"
         offset="0"
         style="stop-color:#423514;stop-opacity:1" />
      <stop
         id="stop2826"
         offset="1"
         style="stop-color:#d6b117;stop-opacity:0" />
    </linearGradient>
    <linearGradient
       inkscape:collect="always"
       id="linearGradient3789">
      <stop
         style="stop-color:black;stop-opacity:1;"
         offset="0"
         id="stop3791" />
      <stop
         style="stop-color:black;stop-opacity:0;"
         offset="1"
         id="stop3793" />
    </linearGradient>
    <linearGradient
       inkscape:collect="always"
       id="linearGradient2836">
      <stop
         style="stop-color:#bbbfec;stop-opacity:1;"
         offset="0"
         id="stop2838" />
      <stop
         style="stop-color:#bbbfec;stop-opacity:0;"
         offset="1"
         id="stop2840" />
    </linearGradient>
    <linearGradient
       id="linearGradient2819"
       inkscape:collect="always">
      <stop
         id="stop2821"
         offset="0"
         style="stop-color:white;stop-opacity:1" />
      <stop
         id="stop2823"
         offset="1"
         style="stop-color:white;stop-opacity:0" />
    </linearGradient>
    <linearGradient
       inkscape:collect="always"
       id="linearGradient2805">
      <stop
         style="stop-color:#e4d65c;stop-opacity:0"
         offset="0"
         id="stop2807" />
      <stop
         style="stop-color:white;stop-opacity:1"
         offset="1"
         id="stop2809" />
    </linearGradient>
    <linearGradient
       inkscape:collect="always"
       id="linearGradient2789">
      <stop
         style="stop-color:white;stop-opacity:1"
         offset="0"
         id="stop2791" />
      <stop
         style="stop-color:#edeed3;stop-opacity:0"
         offset="1"
         id="stop2793" />
    </linearGradient>
    <linearGradient
       inkscape:collect="always"
       id="linearGradient2779">
      <stop
         style="stop-color:#d6c927;stop-opacity:1"
         offset="0"
         id="stop2781" />
      <stop
         style="stop-color:#beb32a;stop-opacity:1"
         offset="1"
         id="stop2783" />
    </linearGradient>
    <linearGradient
       inkscape:collect="always"
       xlink:href="#linearGradient2779"
       id="linearGradient2785"
       x1="66.034111"
       y1="5.5255179"
       x2="76.219032"
       y2="5.5255179"
       gradientUnits="userSpaceOnUse" />
    <radialGradient
       inkscape:collect="always"
       xlink:href="#linearGradient2789"
       id="radialGradient2795"
       cx="68.495743"
       cy="10.080575"
       fx="68.495743"
       fy="10.080575"
       r="10.0625"
       gradientTransform="matrix(5.316612,-0.204852,0.118366,2.80379,-272.4758,124.9615)"
       gradientUnits="userSpaceOnUse" />
    <radialGradient
       inkscape:collect="always"
       xlink:href="#linearGradient2836"
       id="radialGradient2872"
       gradientUnits="userSpaceOnUse"
       gradientTransform="matrix(1,0,0,1.104167,0,-1.111869)"
       cx="39.844311"
       cy="10.67394"
       fx="39.844311"
       fy="10.67394"
       r="2.6861331" />
    <radialGradient
       inkscape:collect="always"
       xlink:href="#linearGradient2836"
       id="radialGradient2874"
       gradientUnits="userSpaceOnUse"
       gradientTransform="matrix(1,0,0,1.104167,0,-1.111869)"
       cx="39.844311"
       cy="10.67394"
       fx="39.844311"
       fy="10.67394"
       r="2.6861331" />
    <radialGradient
       inkscape:collect="always"
       xlink:href="#linearGradient2836"
       id="radialGradient2876"
       gradientUnits="userSpaceOnUse"
       gradientTransform="matrix(1,0,0,1.104167,0,-1.111869)"
       cx="39.844311"
       cy="10.67394"
       fx="39.844311"
       fy="10.67394"
       r="2.6861331" />
    <radialGradient
       inkscape:collect="always"
       xlink:href="#linearGradient2836"
       id="radialGradient2878"
       gradientUnits="userSpaceOnUse"
       gradientTransform="matrix(1,0,0,1.104167,0,-1.111869)"
       cx="39.844311"
       cy="10.67394"
       fx="39.844311"
       fy="10.67394"
       r="2.6861331" />
    <radialGradient
       inkscape:collect="always"
       xlink:href="#linearGradient2836"
       id="radialGradient2880"
       gradientUnits="userSpaceOnUse"
       gradientTransform="matrix(1,0,0,1.104167,0,-1.111869)"
       cx="39.844311"
       cy="10.67394"
       fx="39.844311"
       fy="10.67394"
       r="2.6861331" />
    <radialGradient
       inkscape:collect="always"
       xlink:href="#linearGradient2836"
       id="radialGradient2882"
       gradientUnits="userSpaceOnUse"
       gradientTransform="matrix(1,0,0,1.104167,0,-1.111869)"
       cx="39.844311"
       cy="10.67394"
       fx="39.844311"
       fy="10.67394"
       r="2.6861331" />
    <radialGradient
       inkscape:collect="always"
       xlink:href="#linearGradient3789"
       id="radialGradient3795"
       cx="107.63636"
       cy="187.39394"
       fx="107.63636"
       fy="187.39394"
       r="64.969696"
       gradientTransform="matrix(1,0,0,0.242537,0,141.9439)"
       gradientUnits="userSpaceOnUse" />
    <radialGradient
       inkscape:collect="always"
       xlink:href="#linearGradient2819"
       id="radialGradient1918"
       gradientUnits="userSpaceOnUse"
       gradientTransform="matrix(5.272821,0.682046,-0.239143,1.687362,-266.1713,81.64492)"
       cx="60.272255"
       cy="13.023435"
       fx="60.272255"
       fy="13.023435"
       r="4.9805384" />
    <linearGradient
       inkscape:collect="always"
       xlink:href="#linearGradient2805"
       id="linearGradient1921"
       gradientUnits="userSpaceOnUse"
       x1="58.703205"
       y1="9.7481928"
       x2="59.318779"
       y2="5.5207405"
       gradientTransform="matrix(5.320933,0,0,5.083335,-271.5787,86.07233)" />
    <linearGradient
       inkscape:collect="always"
       xlink:href="#linearGradient2830"
       id="linearGradient1924"
       gradientUnits="userSpaceOnUse"
       x1="83.263489"
       y1="3.3178709"
       x2="89.090088"
       y2="10.928581"
       gradientTransform="matrix(5.320933,0,0,5.083335,-271.5787,86.07233)" />
    <radialGradient
       inkscape:collect="always"
       xlink:href="#linearGradient2821"
       id="radialGradient2828"
       gradientUnits="userSpaceOnUse"
       gradientTransform="matrix(6.898492,-0.165955,4.57885e-2,1.699077,-384.4895,148.0907)"
       cx="72.950356"
       cy="27.869839"
       fx="72.950356"
       fy="27.869839"
       r="10.0625" />
    <linearGradient
       inkscape:collect="always"
       xlink:href="#linearGradient2840"
       id="linearGradient2846"
       gradientUnits="userSpaceOnUse"
       gradientTransform="matrix(5.320933,0,0,5.083335,-271.5787,86.07233)"
       x1="85.723755"
       y1="8.5637712"
       x2="89.910179"
       y2="14.445688" />
    <radialGradient
       inkscape:collect="always"
       xlink:href="#linearGradient2866"
       id="radialGradient2864"
       cx="105.5714"
       cy="103.48299"
       fx="105.5714"
       fy="103.48299"
       r="10.124021"
       gradientTransform="matrix(1,0,0,1.011543,0,-1.255413)"
       gradientUnits="userSpaceOnUse" />
  </defs>
  <sodipodi:namedview
     inkscape:window-height="743"
     inkscape:window-width="1016"
     inkscape:pageshadow="2"
     inkscape:pageopacity="0.0"
     guidetolerance="10.0"
     gridtolerance="10.0"
     objecttolerance="10.0"
     borderopacity="1.0"
     bordercolor="#666666"
     pagecolor="#ffffff"
     id="base"
     width="256px"
     height="256px"
     inkscape:zoom="2.0625"
     inkscape:cx="128"
     inkscape:cy="127.75758"
     inkscape:window-x="0"
     inkscape:window-y="0"
     inkscape:current-layer="svg2" />
  <path
     sodipodi:type="arc"
     style="opacity:1;fill:url(#radialGradient3795);fill-opacity:1;stroke:none;stroke-width:0;stroke-linecap:round;stroke-linejoin:round;stroke-miterlimit:4;stroke-dasharray:none;stroke-dashoffset:0;stroke-opacity:1"
     id="path2902"
     sodipodi:cx="107.63636"
     sodipodi:cy="187.39394"
     sodipodi:rx="64.969696"
     sodipodi:ry="15.757576"
     d="M 172.60606 187.39394 A 64.969696 15.757576 0 1 1  42.666664,187.39394 A 64.969696 15.757576 0 1 1  172.60606 187.39394 z"
     transform="translate(0,-0.484848)" />
  <path
     style="fill:#d3c424;fill-opacity:1;fill-rule:evenodd;stroke:none;stroke-width:1px;stroke-linecap:butt;stroke-linejoin:miter;stroke-opacity:1"
     d="M 108.36917,106.40567 C 93.857844,107.22432 77.751114,109.4633 67.131941,119.90828 C 52.500988,118.39395 36.312853,114.49298 22.571352,121.46562 C 17.238388,123.55157 17.269196,129.32551 15.419124,133.7286 C 20.777309,145.2362 31.622833,154.48876 44.949674,156.28201 C 51.521037,155.68212 55.456564,160.09124 56.225832,165.82795 C 61.926568,178.77066 77.50393,184.43313 91.385632,183.29111 C 105.45952,183.1371 119.56545,183.64756 133.61185,182.92999 C 146.68508,181.86193 158.56581,172.46197 161.24594,160.0984 C 172.39941,160.30838 180.40898,152.28914 188.13374,145.80804 C 196.57382,141.32978 201.46804,133.1986 208.39085,127.10879 C 218.6196,118.98439 232.74075,118.66385 245.3832,118.95515 C 247.03642,113.11588 242.87245,111.82668 237.26038,111.61623 C 226.51058,109.70844 213.15569,106.74236 204.23304,114.67697 C 197.23617,120.85228 188.19485,125.08693 179.80834,129.52789 C 171.84457,132.61359 156.96145,139.1553 154.09594,127.53328 C 145.90362,111.263 125.78826,106.31172 108.36917,106.40567 z M 44.517976,129.12182 C 49.778953,130.63203 64.057107,126.07638 57.909099,134.27806 C 54.452759,139.52392 60.903082,147.14692 48.915014,146.30789 C 40.069782,144.30272 29.116775,140.61971 31.365029,132.04291 C 34.895814,128.9991 40.069697,129.15258 44.517976,129.12182 z "
     id="path2768"
     sodipodi:nodetypes="cccccccccccccccccccccc" />
  <path
     style="fill:url(#radialGradient2795);fill-opacity:1;fill-rule:evenodd;stroke:none;stroke-width:1px;stroke-linecap:butt;stroke-linejoin:miter;stroke-opacity:1"
     d="M 107.77083,106.4292 C 81.007716,107.73929 67.503938,114.86071 60.783414,127.54559 C 53.635384,138.54506 54.924401,149.5878 53.63341,160.58727 C 58.186309,175.39192 70.351122,183.94604 89.882266,183.30342 L 124.46833,183.30342 C 143.99947,183.94604 156.16429,175.39192 160.71719,160.58727 C 159.4262,149.5878 160.71521,138.54506 153.56718,127.54559 C 146.84668,114.86071 132.74735,106.60141 107.77083,106.4292 z "
     id="path1873"
     sodipodi:nodetypes="cccccccc" />
  <path
     sodipodi:type="arc"
     style="fill:url(#linearGradient2785);fill-opacity:1;stroke:none;stroke-width:0;stroke-linecap:round;stroke-linejoin:round;stroke-miterlimit:4;stroke-dasharray:none;stroke-dashoffset:0;stroke-opacity:1"
     id="path2777"
     sodipodi:cx="71.126572"
     sodipodi:cy="5.5255179"
     sodipodi:rx="5.0924611"
     sodipodi:ry="1.51095"
     d="M 76.219033 5.5255179 A 5.0924611 1.51095 0 1 1  66.034111,5.5255179 A 5.0924611 1.51095 0 1 1  76.219033 5.5255179 z"
     transform="matrix(5.320933,0,0,5.083335,-270.3876,90.0549)" />
  <rect
     ry="3.9480429"
     y="114.51459"
     x="108.05344"
     height="8.3605614"
     width="20.248041"
     id="rect2848"
     style="fill:black;fill-opacity:0.19047619;stroke:none;stroke-width:0;stroke-linecap:round;stroke-linejoin:round;stroke-miterlimit:4;stroke-dasharray:none;stroke-dashoffset:0;stroke-opacity:1" />
  <rect
     ry="9.6719484"
     y="98.514587"
     x="98.841324"
     height="20.481773"
     width="20.248041"
     id="rect2872"
     style="fill:#dbb921;fill-opacity:1;stroke:none;stroke-width:0;stroke-linecap:round;stroke-linejoin:round;stroke-miterlimit:4;stroke-dasharray:none;stroke-dashoffset:0;stroke-opacity:1" />
  <rect
     style="fill:url(#radialGradient2864);fill-opacity:1.0;stroke:none;stroke-width:0;stroke-linecap:round;stroke-linejoin:round;stroke-miterlimit:4;stroke-dasharray:none;stroke-dashoffset:0;stroke-opacity:1"
     id="rect2787"
     width="20.248041"
     height="20.481773"
     x="98.841324"
     y="98.514587"
     ry="9.6719484" />
  <path
     style="fill:url(#linearGradient1924);fill-opacity:1.0;fill-rule:evenodd;stroke:none;stroke-width:1px;stroke-linecap:butt;stroke-linejoin:miter;stroke-opacity:1"
     d="M 153.63017,132.08194 C 172.40644,137.7624 189.19461,124.21589 203.65474,116.15167 C 212.22906,104.08765 233.34135,110.29046 246.53295,112.73804 L 246.53295,118.42742 C 204.76954,116.96941 207.6632,133.47475 192.93519,142.89176 C 181.98286,149.35929 177.28895,160.76443 157.79888,159.39097 C 151.79228,151.0231 150.11013,141.96668 153.63017,132.08194 z "
     id="path2766"
     sodipodi:nodetypes="ccccccc" />
  <path
     style="fill:url(#linearGradient1921);fill-opacity:1;fill-rule:evenodd;stroke:none;stroke-width:1px;stroke-linecap:butt;stroke-linejoin:miter;stroke-opacity:1"
     d="M 61.918454,128.66831 C 51.81173,130.39166 33.586571,125.49694 29.16427,132.65088 C 30.105175,141.2014 43.516954,142.93589 53.581025,148.58115 L 58.940801,141.75389 L 58.940801,163.37354 L 49.412314,156.54628 C 27.800882,154.44517 20.24869,144.28519 14.276006,133.21982 L 17.253659,124.11681 C 27.429624,113.78553 47.600393,116.97262 67.27823,119.56531 L 61.918454,128.66831 z "
     id="path2764"
     sodipodi:nodetypes="cccccccccc" />
  <path
     sodipodi:nodetypes="cccccccccc"
     id="path2813"
     d="M 61.918454,128.66831 C 51.81173,130.39166 33.586571,125.49694 29.16427,132.65088 C 30.105175,141.2014 43.516954,142.93589 53.581025,148.58115 L 58.940801,141.75389 L 58.940801,163.37354 L 49.412314,156.54628 C 27.800882,154.44517 20.24869,144.28519 14.276006,133.21982 L 17.253659,124.11681 C 27.429624,113.78553 47.600393,116.97262 67.27823,119.56531 L 61.918454,128.66831 z "
     style="fill:url(#radialGradient1918);fill-opacity:1;fill-rule:evenodd;stroke:none;stroke-width:1px;stroke-linecap:butt;stroke-linejoin:miter;stroke-opacity:1" />
  <g
     id="g2864"
     transform="matrix(5.320933,0,0,5.083335,-265.2913,5.347538)">
    <path
       transform="translate(53.49882,7.163022)"
       d="M 42.530444 10.67394 A 2.6861331 2.9659388 0 1 1  37.158178,10.67394 A 2.6861331 2.9659388 0 1 1  42.530444 10.67394 z"
       sodipodi:ry="2.9659388"
       sodipodi:rx="2.6861331"
       sodipodi:cy="10.67394"
       sodipodi:cx="39.844311"
       id="path2834"
       style="opacity:1;fill:url(#radialGradient2872);fill-opacity:1;stroke:none;stroke-width:0;stroke-linecap:round;stroke-linejoin:round;stroke-miterlimit:4;stroke-dasharray:none;stroke-dashoffset:0;stroke-opacity:1"
       sodipodi:type="arc" />
    <path
       sodipodi:type="arc"
       style="opacity:1;fill:url(#radialGradient2874);fill-opacity:1;stroke:none;stroke-width:0;stroke-linecap:round;stroke-linejoin:round;stroke-miterlimit:4;stroke-dasharray:none;stroke-dashoffset:0;stroke-opacity:1"
       id="path2844"
       sodipodi:cx="39.844311"
       sodipodi:cy="10.67394"
       sodipodi:rx="2.6861331"
       sodipodi:ry="2.9659388"
       d="M 42.530444 10.67394 A 2.6861331 2.9659388 0 1 1  37.158178,10.67394 A 2.6861331 2.9659388 0 1 1  42.530444 10.67394 z"
       transform="translate(51.93191,4.476889)" />
    <path
       transform="translate(53.05113,1.902678)"
       d="M 42.530444 10.67394 A 2.6861331 2.9659388 0 1 1  37.158178,10.67394 A 2.6861331 2.9659388 0 1 1  42.530444 10.67394 z"
       sodipodi:ry="2.9659388"
       sodipodi:rx="2.6861331"
       sodipodi:cy="10.67394"
       sodipodi:cx="39.844311"
       id="path2848"
       style="opacity:1;fill:url(#radialGradient2876);fill-opacity:1;stroke:none;stroke-width:0;stroke-linecap:round;stroke-linejoin:round;stroke-miterlimit:4;stroke-dasharray:none;stroke-dashoffset:0;stroke-opacity:1"
       sodipodi:type="arc" />
    <path
       sodipodi:type="arc"
       style="opacity:1;fill:url(#radialGradient2878);fill-opacity:1;stroke:none;stroke-width:0;stroke-linecap:round;stroke-linejoin:round;stroke-miterlimit:4;stroke-dasharray:none;stroke-dashoffset:0;stroke-opacity:1"
       id="path2852"
       sodipodi:cx="39.844311"
       sodipodi:cy="10.67394"
       sodipodi:rx="2.6861331"
       sodipodi:ry="2.9659388"
       d="M 42.530444 10.67394 A 2.6861331 2.9659388 0 1 1  37.158178,10.67394 A 2.6861331 2.9659388 0 1 1  42.530444 10.67394 z"
       transform="matrix(1.479167,0,0,1.584906,29.20237,-5.963442)" />
    <path
       sodipodi:type="arc"
       style="opacity:1;fill:url(#radialGradient2880);fill-opacity:1;stroke:none;stroke-width:0;stroke-linecap:round;stroke-linejoin:round;stroke-miterlimit:4;stroke-dasharray:none;stroke-dashoffset:0;stroke-opacity:1"
       id="path2856"
       sodipodi:cx="39.844311"
       sodipodi:cy="10.67394"
       sodipodi:rx="2.6861331"
       sodipodi:ry="2.9659388"
       d="M 42.530444 10.67394 A 2.6861331 2.9659388 0 1 1  37.158178,10.67394 A 2.6861331 2.9659388 0 1 1  42.530444 10.67394 z"
       transform="translate(51.93191,-3.805355)" />
    <path
       transform="translate(47.3431,-3.133822)"
       d="M 42.530444 10.67394 A 2.6861331 2.9659388 0 1 1  37.158178,10.67394 A 2.6861331 2.9659388 0 1 1  42.530444 10.67394 z"
       sodipodi:ry="2.9659388"
       sodipodi:rx="2.6861331"
       sodipodi:cy="10.67394"
       sodipodi:cx="39.844311"
       id="path2860"
       style="opacity:1;fill:url(#radialGradient2882);fill-opacity:1;stroke:none;stroke-width:0;stroke-linecap:round;stroke-linejoin:round;stroke-miterlimit:4;stroke-dasharray:none;stroke-dashoffset:0;stroke-opacity:1"
       sodipodi:type="arc" />
  </g>
  <path
     sodipodi:nodetypes="cccccccc"
     id="path1930"
     d="M 107.77083,106.4292 C 81.007716,107.73929 67.503938,114.86071 60.783414,127.54559 C 53.635384,138.54506 54.924401,149.5878 53.63341,160.58727 C 58.186309,175.39192 70.351122,183.94604 89.882264,183.30342 L 124.46833,183.30342 C 143.99947,183.94604 156.16429,175.39192 160.71719,160.58727 C 159.4262,149.5878 160.71521,138.54506 153.56718,127.54559 C 146.84668,114.86071 132.74735,106.60141 107.77083,106.4292 z "
     style="fill:url(#radialGradient2828);fill-opacity:1;fill-rule:evenodd;stroke:none;stroke-width:1px;stroke-linecap:butt;stroke-linejoin:miter;stroke-opacity:1" />
  <path
     sodipodi:nodetypes="ccccccc"
     id="path2836"
     d="M 153.63017,132.08194 C 172.40644,137.7624 189.19461,124.21589 203.65474,116.15167 C 212.22906,104.08765 233.34135,110.29046 246.53295,112.73804 L 246.53295,118.42742 C 204.76954,116.96941 207.6632,133.47475 192.93519,142.89176 C 181.98286,149.35929 177.28895,160.76443 157.79888,159.39097 C 151.79228,151.0231 150.11013,141.96668 153.63017,132.08194 z "
     style="fill:url(#linearGradient2846);fill-opacity:1.0;fill-rule:evenodd;stroke:none;stroke-width:1px;stroke-linecap:butt;stroke-linejoin:miter;stroke-opacity:1" />
</svg>
