<?xml version="1.0" encoding="UTF-8" standalone="no"?>
<!-- Created with Inkscape (http://www.inkscape.org/) -->

<svg
   xmlns:dc="http://purl.org/dc/elements/1.1/"
   xmlns:cc="http://creativecommons.org/ns#"
   xmlns:rdf="http://www.w3.org/1999/02/22-rdf-syntax-ns#"
   xmlns:svg="http://www.w3.org/2000/svg"
   xmlns="http://www.w3.org/2000/svg"
   xmlns:xlink="http://www.w3.org/1999/xlink"
   xmlns:sodipodi="http://sodipodi.sourceforge.net/DTD/sodipodi-0.dtd"
   xmlns:inkscape="http://www.inkscape.org/namespaces/inkscape"
   id="svg2"
   version="1.1"
   inkscape:version="0.92.5 (2060ec1f9f, 2020-04-08)"
   width="256"
   height="256"
   sodipodi:docname="panel-symbolic-horror.svg">
  <metadata
     id="metadata8">
    <rdf:RDF>
      <cc:Work
         rdf:about="">
        <dc:format>image/svg+xml</dc:format>
        <dc:type
           rdf:resource="http://purl.org/dc/dcmitype/StillImage" />
        <dc:title></dc:title>
      </cc:Work>
    </rdf:RDF>
  </metadata>
  <defs
     id="defs6">
    <linearGradient
       id="linearGradient3896">
      <stop
         style="stop-color:#1a667d;stop-opacity:0.75675678;"
         offset="0"
         id="stop3898" />
      <stop
         style="stop-color:#9dd5e6;stop-opacity:0.75;"
         offset="1"
         id="stop3900" />
    </linearGradient>
    <linearGradient
       id="linearGradient4276">
      <stop
         style="stop-color:#58dce8;stop-opacity:0.76351351;"
         offset="0"
         id="stop4278" />
      <stop
         style="stop-color:#3e686b;stop-opacity:0.70945948;"
         offset="1"
         id="stop4280" />
    </linearGradient>
    <linearGradient
       y2="-16.116301"
       x2="359.2764"
       y1="-13.077438"
       x1="317.97549"
       spreadMethod="reflect"
       gradientTransform="matrix(0.82699483,0,0,0.82699483,-308.16653,32.017753)"
       gradientUnits="userSpaceOnUse"
       id="linearGradient3122"
       xlink:href="#linearGradient3906"
       inkscape:collect="always" />
    <linearGradient
       y2="-6.6779003"
       x2="360.23688"
       y1="1.0481687"
       x1="364.68701"
       spreadMethod="reflect"
       gradientTransform="matrix(0.82699483,0,0,0.82699483,-308.16653,32.017753)"
       gradientUnits="userSpaceOnUse"
       id="linearGradient3120"
       xlink:href="#linearGradient3892"
       inkscape:collect="always" />
    <linearGradient
       y2="30.136816"
       x2="264.01617"
       y1="-44.747936"
       x1="289.31772"
       gradientTransform="matrix(0.82310306,0.08013618,0,0.82699483,-308.18932,32.259602)"
       gradientUnits="userSpaceOnUse"
       id="linearGradient3118"
       xlink:href="#linearGradient3878"
       inkscape:collect="always" />
    <linearGradient
       y2="54.151554"
       x2="278.9527"
       y1="56.223431"
       x1="227.44495"
       spreadMethod="reflect"
       gradientTransform="matrix(0.82699483,0,0,0.82699483,-309.04999,61.539909)"
       gradientUnits="userSpaceOnUse"
       id="linearGradient3116"
       xlink:href="#linearGradient3867"
       inkscape:collect="always" />
    <linearGradient
       y2="-4.0930724"
       x2="361.37955"
       y1="-9.785778"
       x1="359.71127"
       spreadMethod="reflect"
       gradientTransform="matrix(0.82699483,0,0,-0.82699483,-308.37831,209.25344)"
       gradientUnits="userSpaceOnUse"
       id="linearGradient3114"
       xlink:href="#linearGradient3892"
       inkscape:collect="always" />
    <linearGradient
       y2="-16.116301"
       x2="359.2764"
       y1="-13.077438"
       x1="317.97549"
       spreadMethod="reflect"
       gradientTransform="matrix(0.82699483,0,0,0.82699483,-308.16653,221.32204)"
       gradientUnits="userSpaceOnUse"
       id="linearGradient3112"
       xlink:href="#linearGradient3906"
       inkscape:collect="always" />
    <linearGradient
       y2="6.5781136"
       x2="63.371296"
       y1="10.421225"
       x1="61.93013"
       spreadMethod="reflect"
       gradientTransform="matrix(0,1,1,0,-156.37299,-45.269302)"
       gradientUnits="userSpaceOnUse"
       id="linearGradient3110"
       xlink:href="#linearGradient3828"
       inkscape:collect="always" />
    <linearGradient
       y2="-16.116301"
       x2="359.2764"
       y1="-13.077438"
       x1="317.97549"
       spreadMethod="reflect"
       gradientTransform="matrix(0.82699483,0,0,0.82699483,-308.16653,32.017753)"
       gradientUnits="userSpaceOnUse"
       id="linearGradient3899"
       xlink:href="#linearGradient3906"
       inkscape:collect="always" />
    <linearGradient
       y2="-4.7591624"
       x2="362.74997"
       y1="0.34619138"
       x1="364.99564"
       spreadMethod="reflect"
       gradientTransform="matrix(0.82699483,0,0,0.82699483,-308.16653,32.017753)"
       gradientUnits="userSpaceOnUse"
       id="linearGradient3897"
       xlink:href="#linearGradient3892"
       inkscape:collect="always" />
    <linearGradient
       y2="48.259113"
       x2="290.46658"
       y1="-52.84383"
       x1="342.90558"
       gradientTransform="matrix(0.82310306,0.08013618,0,0.82699483,-308.18932,32.259602)"
       gradientUnits="userSpaceOnUse"
       id="linearGradient3895"
       xlink:href="#linearGradient3894"
       inkscape:collect="always" />
    <linearGradient
       y2="54.151554"
       x2="278.9527"
       y1="56.223431"
       x1="227.44495"
       spreadMethod="reflect"
       gradientTransform="matrix(0.82699483,0,0,0.82699483,-309.04999,61.539909)"
       gradientUnits="userSpaceOnUse"
       id="linearGradient3893"
       xlink:href="#linearGradient3867"
       inkscape:collect="always" />
    <linearGradient
       y2="-3.8122816"
       x2="361.29135"
       y1="-0.84726745"
       x1="359.79944"
       spreadMethod="reflect"
       gradientTransform="matrix(0.82699483,0,0,-0.82699483,-308.37831,209.25344)"
       gradientUnits="userSpaceOnUse"
       id="linearGradient3890"
       xlink:href="#linearGradient3892"
       inkscape:collect="always" />
    <linearGradient
       y2="-16.116301"
       x2="359.2764"
       y1="-13.077438"
       x1="317.97549"
       spreadMethod="reflect"
       gradientTransform="matrix(0.82699483,0,0,0.82699483,-308.16653,221.32204)"
       gradientUnits="userSpaceOnUse"
       id="linearGradient3888"
       xlink:href="#linearGradient3906"
       inkscape:collect="always" />
    <linearGradient
       y2="6.5781136"
       x2="63.371296"
       y1="10.421225"
       x1="61.93013"
       spreadMethod="reflect"
       gradientTransform="matrix(0,1,1,0,-156.37299,-45.269302)"
       gradientUnits="userSpaceOnUse"
       id="linearGradient3886"
       xlink:href="#linearGradient3828"
       inkscape:collect="always" />
    <linearGradient
       y2="6.5781136"
       x2="63.371296"
       y1="10.421225"
       x1="61.93013"
       spreadMethod="reflect"
       gradientTransform="matrix(0,1,1,0,-156.37299,-45.269302)"
       gradientUnits="userSpaceOnUse"
       id="linearGradient3103"
       xlink:href="#linearGradient3828"
       inkscape:collect="always" />
    <linearGradient
       y2="-16.116301"
       x2="359.2764"
       y1="-13.077438"
       x1="317.97549"
       spreadMethod="reflect"
       gradientTransform="matrix(0.82699483,0,0,0.82699483,-308.16653,221.32204)"
       gradientUnits="userSpaceOnUse"
       id="linearGradient3100"
       xlink:href="#linearGradient3906"
       inkscape:collect="always" />
    <linearGradient
       y2="-4.0930724"
       x2="361.37955"
       y1="-9.785778"
       x1="359.71127"
       spreadMethod="reflect"
       gradientTransform="matrix(0.82699483,0,0,-0.82699483,-308.37831,209.25344)"
       gradientUnits="userSpaceOnUse"
       id="linearGradient3097"
       xlink:href="#linearGradient3892"
       inkscape:collect="always" />
    <linearGradient
       y2="54.151554"
       x2="278.9527"
       y1="56.223431"
       x1="227.44495"
       spreadMethod="reflect"
       gradientTransform="matrix(0.82699483,0,0,0.82699483,-309.04999,61.539909)"
       gradientUnits="userSpaceOnUse"
       id="linearGradient3092"
       xlink:href="#linearGradient3867"
       inkscape:collect="always" />
    <linearGradient
       y2="30.136816"
       x2="264.01617"
       y1="-44.747936"
       x1="289.31772"
       gradientTransform="matrix(0.82310306,0.08013618,0,0.82699483,-308.18932,32.259602)"
       gradientUnits="userSpaceOnUse"
       id="linearGradient3089"
       xlink:href="#linearGradient3878"
       inkscape:collect="always" />
    <linearGradient
       y2="-6.6779003"
       x2="360.23688"
       y1="1.0481687"
       x1="364.68701"
       spreadMethod="reflect"
       gradientTransform="matrix(0.82699483,0,0,0.82699483,-308.16653,32.017753)"
       gradientUnits="userSpaceOnUse"
       id="linearGradient3085"
       xlink:href="#linearGradient3892"
       inkscape:collect="always" />
    <linearGradient
       y2="-16.116301"
       x2="359.2764"
       y1="-13.077438"
       x1="317.97549"
       spreadMethod="reflect"
       gradientTransform="matrix(0.82699483,0,0,0.82699483,-308.16653,32.017753)"
       gradientUnits="userSpaceOnUse"
       id="linearGradient3082"
       xlink:href="#linearGradient3906"
       inkscape:collect="always" />
    <linearGradient
       y2="135.61926"
       x2="-189.4104"
       y1="45.160995"
       x1="-220.78151"
       gradientUnits="userSpaceOnUse"
       id="linearGradient3891"
       xlink:href="#linearGradient3757"
       inkscape:collect="always" />
    <linearGradient
       y2="308.18231"
       x2="-65.096169"
       y1="389.56958"
       x1="-69.751083"
       spreadMethod="reflect"
       gradientTransform="matrix(1,0.02486862,0,1,11.542195,-217.79508)"
       gradientUnits="userSpaceOnUse"
       id="linearGradient3889"
       xlink:href="#linearGradient3851"
       inkscape:collect="always" />
    <linearGradient
       y2="176.27921"
       x2="-205.68785"
       y1="139.83815"
       x1="-255.70406"
       spreadMethod="reflect"
       gradientUnits="userSpaceOnUse"
       id="linearGradient3887"
       xlink:href="#linearGradient3906"
       inkscape:collect="always" />
    <linearGradient
       y2="176.27921"
       x2="-205.68785"
       y1="139.83815"
       x1="-255.70406"
       spreadMethod="reflect"
       gradientUnits="userSpaceOnUse"
       id="linearGradient3885"
       xlink:href="#linearGradient3906"
       inkscape:collect="always" />
    <linearGradient
       y2="139.83815"
       x2="-117.92745"
       y1="139.83815"
       x1="-256.45405"
       gradientUnits="userSpaceOnUse"
       id="linearGradient3882"
       xlink:href="#linearGradient3947"
       inkscape:collect="always" />
    <linearGradient
       y2="296.33984"
       x2="-180.90938"
       y1="350.20343"
       x1="-192.23256"
       spreadMethod="reflect"
       gradientTransform="matrix(1,0.02486862,0,1,11.542195,-217.79508)"
       gradientUnits="userSpaceOnUse"
       id="linearGradient3880"
       xlink:href="#linearGradient3851"
       inkscape:collect="always" />
    <linearGradient
       gradientUnits="userSpaceOnUse"
       y2="135.61926"
       x2="-189.4104"
       y1="45.160995"
       x1="-220.78151"
       id="linearGradient3869"
       xlink:href="#linearGradient3757"
       inkscape:collect="always" />
    <linearGradient
       y2="176.27921"
       x2="-205.68785"
       y1="139.83815"
       x1="-255.70406"
       spreadMethod="reflect"
       gradientUnits="userSpaceOnUse"
       id="linearGradient3857"
       xlink:href="#linearGradient3906"
       inkscape:collect="always" />
    <linearGradient
       gradientTransform="matrix(1,0.02486862,0,1,11.542195,-217.79508)"
       y2="296.33984"
       x2="-180.90938"
       y1="350.20343"
       x1="-192.23256"
       spreadMethod="reflect"
       gradientUnits="userSpaceOnUse"
       id="linearGradient3855"
       xlink:href="#linearGradient3851"
       inkscape:collect="always" />
    <linearGradient
       gradientTransform="matrix(1,0.02486862,0,1,11.542195,-217.79508)"
       y2="308.18231"
       x2="-65.096169"
       y1="389.56958"
       x1="-69.751083"
       spreadMethod="reflect"
       gradientUnits="userSpaceOnUse"
       id="linearGradient3850"
       xlink:href="#linearGradient3851"
       inkscape:collect="always" />
    <linearGradient
       y2="308.18231"
       x2="-65.096169"
       y1="389.56958"
       x1="-69.751083"
       spreadMethod="reflect"
       gradientUnits="userSpaceOnUse"
       id="linearGradient3969"
       xlink:href="#linearGradient3851"
       inkscape:collect="always" />
    <linearGradient
       y2="176.27921"
       x2="-205.68785"
       y1="139.83815"
       x1="-255.70406"
       spreadMethod="reflect"
       gradientUnits="userSpaceOnUse"
       id="linearGradient3967"
       xlink:href="#linearGradient3906"
       inkscape:collect="always" />
    <linearGradient
       y2="176.27921"
       x2="-205.68785"
       y1="139.83815"
       x1="-255.70406"
       spreadMethod="reflect"
       gradientUnits="userSpaceOnUse"
       id="linearGradient3965"
       xlink:href="#linearGradient3906"
       inkscape:collect="always" />
    <linearGradient
       y2="139.83815"
       x2="-117.92745"
       y1="139.83815"
       x1="-256.45405"
       gradientUnits="userSpaceOnUse"
       id="linearGradient3963"
       xlink:href="#linearGradient3947"
       inkscape:collect="always" />
    <linearGradient
       y2="296.33984"
       x2="-180.90938"
       y1="350.20343"
       x1="-192.23256"
       spreadMethod="reflect"
       gradientUnits="userSpaceOnUse"
       id="linearGradient3961"
       xlink:href="#linearGradient3851"
       inkscape:collect="always" />
    <linearGradient
       y2="234.13206"
       x2="144.09691"
       y1="264.76553"
       x1="66.089592"
       spreadMethod="reflect"
       gradientTransform="matrix(0.82699483,0,0,0.862037,114.19173,14.733697)"
       gradientUnits="userSpaceOnUse"
       id="linearGradient3881"
       xlink:href="#linearGradient3824"
       inkscape:collect="always" />
    <linearGradient
       y2="173.91013"
       x2="67.0896"
       y1="264.76553"
       x1="66.089592"
       gradientUnits="userSpaceOnUse"
       id="linearGradient3879"
       xlink:href="#linearGradient3773"
       inkscape:collect="always" />
    <radialGradient
       r="126.75981"
       fy="149.72612"
       fx="-39.669415"
       cy="149.72612"
       cx="-39.669415"
       spreadMethod="reflect"
       gradientTransform="matrix(1,0,0,0.28322862,0,157.8256)"
       gradientUnits="userSpaceOnUse"
       id="radialGradient3876"
       xlink:href="#linearGradient3815"
       inkscape:collect="always" />
    <linearGradient
       y2="254.2218"
       x2="266.18427"
       y1="253.17581"
       x1="229.62024"
       spreadMethod="reflect"
       gradientTransform="matrix(-0.82699483,0,0,0.6334491,365.06232,74.617591)"
       gradientUnits="userSpaceOnUse"
       id="linearGradient3874"
       xlink:href="#linearGradient3757"
       inkscape:collect="always" />
    <linearGradient
       y2="252.5482"
       x2="249.44826"
       y1="251.92061"
       x1="226.48224"
       spreadMethod="reflect"
       gradientTransform="matrix(0.82699483,0,0,0.60822815,-100.84689,80.374138)"
       gradientUnits="userSpaceOnUse"
       id="linearGradient3872"
       xlink:href="#linearGradient3757"
       inkscape:collect="always" />
    <linearGradient
       y2="173.91013"
       x2="67.0896"
       y1="264.76553"
       x1="66.089592"
       gradientUnits="userSpaceOnUse"
       id="linearGradient3870"
       xlink:href="#linearGradient3773"
       inkscape:collect="always" />
    <linearGradient
       y2="234.59987"
       x2="354.07419"
       y1="236.05972"
       x1="218.4319"
       spreadMethod="reflect"
       gradientTransform="matrix(0.82699483,0,0,0.82699483,-100.84689,27.344659)"
       gradientUnits="userSpaceOnUse"
       id="linearGradient3868"
       xlink:href="#linearGradient3851"
       inkscape:collect="always" />
    <linearGradient
       y2="173.91013"
       x2="67.0896"
       y1="264.76553"
       x1="66.089592"
       gradientUnits="userSpaceOnUse"
       id="linearGradient3866"
       xlink:href="#linearGradient3773"
       inkscape:collect="always" />
    <linearGradient
       y2="256.24783"
       x2="17.757229"
       y1="183.52803"
       x1="17.757229"
       gradientUnits="userSpaceOnUse"
       id="linearGradient3864"
       xlink:href="#linearGradient3765"
       inkscape:collect="always" />
    <linearGradient
       y2="252.5482"
       x2="249.44826"
       y1="251.92061"
       x1="226.48224"
       spreadMethod="reflect"
       gradientTransform="matrix(-0.82002201,-0.10716502,0.10716502,-0.82002201,367.07244,422.46474)"
       gradientUnits="userSpaceOnUse"
       id="linearGradient3862"
       xlink:href="#linearGradient3757"
       inkscape:collect="always" />
    <linearGradient
       y2="254.2218"
       x2="266.18427"
       y1="253.17581"
       x1="229.62024"
       spreadMethod="reflect"
       gradientTransform="matrix(0.82699483,0,0,-0.82699483,-106.37695,393.98956)"
       gradientUnits="userSpaceOnUse"
       id="linearGradient3860"
       xlink:href="#linearGradient3757"
       inkscape:collect="always" />
    <linearGradient
       gradientTransform="translate(-69.456067,-43.096235)"
       spreadMethod="reflect"
       gradientUnits="userSpaceOnUse"
       y2="6.5781136"
       x2="63.371296"
       y1="10.421225"
       x1="61.93013"
       id="linearGradient3826"
       xlink:href="#linearGradient3828"
       inkscape:collect="always" />
    <linearGradient
       y2="173.91013"
       x2="67.0896"
       y1="264.76553"
       x1="66.089592"
       gradientUnits="userSpaceOnUse"
       id="linearGradient3787"
       xlink:href="#linearGradient3773"
       inkscape:collect="always" />
    <linearGradient
       gradientUnits="userSpaceOnUse"
       y2="173.91013"
       x2="67.0896"
       y1="264.76553"
       x1="66.089592"
       id="linearGradient3779"
       xlink:href="#linearGradient3773"
       inkscape:collect="always" />
    <linearGradient
       gradientUnits="userSpaceOnUse"
       y2="256.24783"
       x2="17.757229"
       y1="183.52803"
       x1="17.757229"
       id="linearGradient3771"
       xlink:href="#linearGradient3765"
       inkscape:collect="always" />
    <linearGradient
       id="linearGradient3757">
      <stop
         id="stop3759"
         offset="0"
         style="stop-color:#ffffff;stop-opacity:1;" />
      <stop
         id="stop3761"
         offset="1"
         style="stop-color:#286483;stop-opacity:0;" />
    </linearGradient>
    <linearGradient
       id="linearGradient3765">
      <stop
         id="stop3767"
         offset="0"
         style="stop-color:#668dbd;stop-opacity:0.35251799;" />
      <stop
         id="stop3769"
         offset="1"
         style="stop-color:#668dbd;stop-opacity:0.09352518;" />
    </linearGradient>
    <linearGradient
       id="linearGradient3773">
      <stop
         id="stop3775"
         offset="0"
         style="stop-color:#70b5d4;stop-opacity:0.83802819;" />
      <stop
         id="stop3777"
         offset="1"
         style="stop-color:#70b5d4;stop-opacity:0.27464789;" />
    </linearGradient>
    <linearGradient
       id="linearGradient3815">
      <stop
         style="stop-color:#9fcaff;stop-opacity:0.11267605;"
         offset="0"
         id="stop3817" />
      <stop
         style="stop-color:#668dbd;stop-opacity:0;"
         offset="1"
         id="stop3819" />
    </linearGradient>
    <linearGradient
       id="linearGradient3824">
      <stop
         style="stop-color:#ffffff;stop-opacity:0.83802819;"
         offset="0"
         id="stop3826" />
      <stop
         style="stop-color:#70b5d4;stop-opacity:0;"
         offset="1"
         id="stop3828" />
    </linearGradient>
    <linearGradient
       id="linearGradient3851">
      <stop
         id="stop3853"
         offset="0"
         style="stop-color:#123e50;stop-opacity:0.68309861;" />
      <stop
         style="stop-color:#c6d7de;stop-opacity:0.74901962;"
         offset="0.37100297"
         id="stop3861" />
      <stop
         style="stop-color:#123e50;stop-opacity:0.78169012;"
         offset="0.71590734"
         id="stop3859" />
      <stop
         id="stop3855"
         offset="1"
         style="stop-color:#c3d4db;stop-opacity:0.09859155;" />
    </linearGradient>
    <linearGradient
       id="linearGradient3867">
      <stop
         id="stop3869"
         offset="0"
         style="stop-color:#99bbc9;stop-opacity:0.50704223;" />
      <stop
         id="stop3871"
         offset="1"
         style="stop-color:#476b7a;stop-opacity:0;" />
    </linearGradient>
    <linearGradient
       id="linearGradient3878">
      <stop
         id="stop3880"
         offset="0"
         style="stop-color:#d3f2ff;stop-opacity:0.8211382;" />
      <stop
         id="stop3882"
         offset="1"
         style="stop-color:#9abcca;stop-opacity:0;" />
    </linearGradient>
    <linearGradient
       id="linearGradient3892">
      <stop
         id="stop3894"
         offset="0"
         style="stop-color:#1a485c;stop-opacity:0.53521127;" />
      <stop
         id="stop3896"
         offset="1"
         style="stop-color:#ffffff;stop-opacity:0.58536583;" />
    </linearGradient>
    <linearGradient
       id="linearGradient3906">
      <stop
         id="stop3908"
         offset="0"
         style="stop-color:#cedce2;stop-opacity:1;" />
      <stop
         id="stop3910"
         offset="1"
         style="stop-color:#cedce2;stop-opacity:0;" />
    </linearGradient>
    <linearGradient
       id="linearGradient3828">
      <stop
         style="stop-color:#ffffff;stop-opacity:0.48591548;"
         offset="0"
         id="stop3830" />
      <stop
         style="stop-color:#286483;stop-opacity:0;"
         offset="1"
         id="stop3832" />
    </linearGradient>
    <linearGradient
       id="linearGradient3947">
      <stop
         id="stop3949"
         offset="0"
         style="stop-color:#608596;stop-opacity:0.29577464;" />
      <stop
         id="stop3951"
         offset="1"
         style="stop-color:#608596;stop-opacity:0.13380282;" />
    </linearGradient>
    <linearGradient
       id="linearGradient3863">
      <stop
         id="stop3865"
         offset="0"
         style="stop-color:#608596;stop-opacity:1;" />
      <stop
         id="stop3867"
         offset="1"
         style="stop-color:#608596;stop-opacity:0;" />
    </linearGradient>
    <linearGradient
       id="linearGradient3894">
      <stop
         style="stop-color:#ffffff;stop-opacity:0.902439;"
         offset="0"
         id="stop3897" />
      <stop
         style="stop-color:#9abcca;stop-opacity:0;"
         offset="1"
         id="stop3899" />
    </linearGradient>
    <radialGradient
       inkscape:collect="always"
       xlink:href="#linearGradient4276"
       id="radialGradient4282"
       cx="142.80859"
       cy="139.83952"
       fx="142.80859"
       fy="139.83952"
       r="41.126985"
       gradientTransform="matrix(1,0,0,1.8324693,0,-116.4121)"
       gradientUnits="userSpaceOnUse" />
    <linearGradient
       inkscape:collect="always"
       xlink:href="#linearGradient3896"
       id="linearGradient3902"
       x1="-32.51231"
       y1="185.17233"
       x2="-25.984118"
       y2="185.17233"
       gradientUnits="userSpaceOnUse"
       spreadMethod="reflect" />
    <linearGradient
       inkscape:collect="always"
       xlink:href="#linearGradient3906"
       id="linearGradient3913"
       x1="-18.507032"
       y1="113.89449"
       x2="-37.915005"
       y2="112.3939"
       gradientUnits="userSpaceOnUse" />
    <linearGradient
       inkscape:collect="always"
       xlink:href="#linearGradient3906"
       id="linearGradient3919"
       gradientUnits="userSpaceOnUse"
       x1="-18.507032"
       y1="113.89449"
       x2="-37.915005"
       y2="112.3939" />
    <linearGradient
       inkscape:collect="always"
       xlink:href="#linearGradient3896"
       id="linearGradient3921"
       gradientUnits="userSpaceOnUse"
       spreadMethod="reflect"
       x1="-32.51231"
       y1="185.17233"
       x2="-25.984118"
       y2="185.17233" />
  </defs>
  <sodipodi:namedview
     pagecolor="#ff0000"
     bordercolor="#666666"
     borderopacity="1"
     objecttolerance="10"
     gridtolerance="10"
     guidetolerance="10"
     inkscape:pageopacity="0"
     inkscape:pageshadow="2"
     inkscape:window-width="1920"
     inkscape:window-height="1056"
     id="namedview4"
     showgrid="false"
     inkscape:zoom="3.3320312"
     inkscape:cx="128"
     inkscape:cy="128"
     inkscape:window-x="0"
     inkscape:window-y="0"
     inkscape:window-maximized="1"
     inkscape:current-layer="svg2"
     inkscape:snap-global="false" />
  <g
     id="g3846"
     transform="translate(0.3873481,6.0129567)">
    <path
       sodipodi:nodetypes="ccccc"
       inkscape:connector-curvature="0"
       id="path3807"
       d="m 54.736434,189.87309 c 11.34321,-2.98591 45.458516,-11.09467 58.887356,-9.85865 l -0.88646,-4.41695 c -12.71639,0.16462 -45.30945,4.76633 -58.433689,9.79607 z"
       style="opacity:0.6;fill:url(#linearGradient3860);fill-opacity:1;stroke:none" />
    <path
       style="fill:url(#linearGradient3862);fill-opacity:1;stroke:none"
       d="m 225.18456,193.8499 c -10.99552,-4.57681 -21.97894,-7.51195 -35.15989,-9.58669 l 1.51764,-4.32005 c 13.50116,1.50274 24.01737,6.30605 34.7842,10.30907 z"
       id="path3803"
       inkscape:connector-curvature="0"
       sodipodi:nodetypes="ccccc" />
    <path
       sodipodi:nodetypes="ccccc"
       inkscape:connector-curvature="0"
       id="path3781"
       d="m 29.95332,202.76883 0.295954,6.78299 c 17.429155,-41.66727 194.671716,-41.85651 208.155156,0 l -0.29595,-6.50171 C 231.10287,165.65974 39.311097,165.15265 29.95332,202.76883 z"
       style="fill:#7b97c2;fill-opacity:0.33193276;stroke:none" />
    <path
       transform="matrix(0.82699483,0,0,0.862037,115.18046,19.830364)"
       d="m 150.34451,220.18959 c 0,19.28719 -56.31378,34.92254 -125.780349,34.92254 -69.466569,0 -125.780351,-15.63535 -125.780351,-34.92254 0,-19.28719 56.313782,-34.92254 125.780351,-34.92254 69.466569,0 125.780349,15.63535 125.780349,34.92254 z"
       sodipodi:ry="34.922543"
       sodipodi:rx="125.78035"
       sodipodi:cy="220.18959"
       sodipodi:cx="24.564161"
       id="path3755"
       style="fill:url(#linearGradient3864);fill-opacity:1;stroke:url(#linearGradient3866);stroke-width:1.95892787;stroke-miterlimit:4;stroke-opacity:0.42738588;stroke-dasharray:none"
       sodipodi:type="arc" />
    <path
       style="fill:url(#linearGradient3868);fill-opacity:1;stroke:none"
       d="m 29.982648,213.06881 0.06684,-8.22029 c 13.101763,40.12356 195.926662,39.62893 207.496412,1.43728 l 0.59191,6.50172 C 231.1322,250.1779 39.340425,250.68498 29.982648,213.06881 z"
       id="path3783"
       inkscape:connector-curvature="0"
       sodipodi:nodetypes="ccccc" />
    <path
       sodipodi:type="arc"
       style="fill:none;stroke:url(#linearGradient3870);stroke-width:1.95892787;stroke-miterlimit:4;stroke-opacity:0.42738588;stroke-dasharray:none"
       id="path3785"
       sodipodi:cx="24.564161"
       sodipodi:cy="220.18959"
       sodipodi:rx="125.78035"
       sodipodi:ry="34.922543"
       d="m 150.34451,220.18959 c 0,19.28719 -56.31378,34.92254 -125.780349,34.92254 -69.466569,0 -125.780351,-15.63535 -125.780351,-34.92254 0,-19.28719 56.313782,-34.92254 125.780351,-34.92254 69.466569,0 125.780349,15.63535 125.780349,34.92254 z"
       transform="matrix(0.82699483,0,0,0.88958816,114.51701,13.92547)" />
    <path
       sodipodi:nodetypes="ccccc"
       inkscape:connector-curvature="0"
       id="path3789"
       d="m 68.008438,227.80985 c 11.495889,2.2898 23.526195,5.87838 36.864872,6.13522 l -0.34601,4.77863 c -13.505206,-0.50428 -25.079598,-2.40682 -35.68238,-5.02282 z"
       style="fill:url(#linearGradient3872);fill-opacity:1;stroke:none" />
    <path
       style="fill:url(#linearGradient3874);fill-opacity:1;stroke:none"
       d="m 203.81933,227.63684 c -11.34321,2.11718 -44.49242,8.05513 -57.98607,6.59676 l -0.14445,5.49147 c 12.95907,0.45089 46.3116,-4.40142 58.37491,-7.44429 z"
       id="path3799"
       inkscape:connector-curvature="0"
       sodipodi:nodetypes="ccccc" />
    <path
       sodipodi:type="arc"
       style="fill:url(#radialGradient3876);fill-opacity:1;stroke:url(#linearGradient3879);stroke-width:1.95892787;stroke-miterlimit:4;stroke-opacity:0.42738588;stroke-dasharray:none"
       id="path3811"
       sodipodi:cx="24.564161"
       sodipodi:cy="220.18959"
       sodipodi:rx="125.78035"
       sodipodi:ry="34.922543"
       d="m 150.34451,220.18959 c 0,19.28719 -56.31378,34.92254 -125.780349,34.92254 -69.466569,0 -125.780351,-15.63535 -125.780351,-34.92254 0,-19.28719 56.313782,-34.92254 125.780351,-34.92254 69.466569,0 125.780349,15.63535 125.780349,34.92254 z"
       transform="matrix(0.82699483,0,0,0.862037,114.12171,14.436903)" />
    <path
       sodipodi:nodetypes="csc"
       inkscape:connector-curvature="0"
       id="path3821"
       d="m 238.52586,204.54527 c 0,16.62627 -46.5712,30.10452 -104.0197,30.10452 -57.448495,0 -104.019702,-13.47825 -104.019702,-30.10452"
       style="fill:none;stroke:url(#linearGradient3881);stroke-width:0.82699484;stroke-miterlimit:4;stroke-opacity:0.42738588;stroke-dasharray:none" />
  </g>
  <g
     id="g3873"
     transform="matrix(1.0614389,0,0,1,222.13952,-11.601973)">
    <path
       sodipodi:nodetypes="ccccc"
       inkscape:connector-curvature="0"
       id="path3818"
       d="m -141.32802,13.578329 -1.32107,2.64214 c -2.31697,0.54708 -4.95002,2.20156 -6.32512,6.72545 0.18667,-3.30646 1.43774,-5.22102 3.00243,-6.72545 1.47914,-1.98116 3.06018,-2.33197 4.64376,-2.64214 z"
       style="fill:url(#linearGradient3886);fill-opacity:1;stroke:none" />
    <path
       style="opacity:0.77083333;fill:url(#linearGradient3888);fill-opacity:1;stroke:none"
       d="m -142.52885,202.625 3.31276,-1.37079 128.16928,12.33714 -4.45508,1.14235 z"
       id="path3914"
       inkscape:connector-curvature="0" />
    <path
       style="fill:url(#linearGradient3890);fill-opacity:1;stroke:none"
       d="m -15.93254,215.17187 c 3.22056,1.30219 7.76972,-3.23263 8.1687,-6.41288 l 3.01979,-2.24417 c 0.63231,4.07648 -2.777,8.03896 -7.56896,9.56853 z"
       id="path3900"
       inkscape:connector-curvature="0"
       sodipodi:nodetypes="ccccc" />
    <rect
       transform="matrix(0.99529408,0.09690046,0,1,0,0)"
       ry="7.8473959"
       y="25.144096"
       x="-145.27965"
       height="189.54471"
       width="141.61775"
       id="rect3863"
       style="opacity:0.6;fill:#123e50;fill-opacity:0.47302904;stroke:#b6ccd6;stroke-width:1.65789521;stroke-miterlimit:4;stroke-opacity:0.42738588;stroke-dasharray:none" />
    <path
       style="fill:#449abe;fill-opacity:0.1991701;stroke:none"
       d="m -148.30186,19.704743 3.83675,-1.918377 -1.27891,173.932764 -3.19729,2.77098 z"
       id="path3888"
       inkscape:connector-curvature="0"
       sodipodi:nodetypes="ccccc" />
    <rect
       style="opacity:0.6;fill:url(#linearGradient3893);fill-opacity:1;stroke:#b6ccd6;stroke-width:1.65789521;stroke-miterlimit:4;stroke-opacity:0.42738588;stroke-dasharray:none"
       id="rect3865"
       width="141.61775"
       height="189.54471"
       x="-149.23723"
       y="27.252451"
       ry="7.8473959"
       transform="matrix(0.99529408,0.09690046,0,1,0,0)" />
    <path
       sodipodi:nodetypes="sssccss"
       inkscape:connector-curvature="0"
       id="rect3875"
       d="m -141.31817,14.218493 125.330398,12.201994 c 4.326997,0.42127 7.810457,4.260354 7.810457,8.607811 l 0,90.848592 C -83.296852,31.653305 -118.38326,45.376176 -149.12863,70.804335 l 0,-49.498863 c 0,-4.347457 3.48347,-7.508249 7.81046,-7.086979 z"
       style="opacity:0.6;fill:url(#linearGradient3895);fill-opacity:1;stroke:none" />
    <path
       sodipodi:nodetypes="ccccc"
       inkscape:connector-curvature="0"
       id="path3886"
       d="m -7.83411,33.133375 3.83676,-1.918377 -0.63946,175.424832 -3.19729,2.13152 z"
       style="fill:#204757;fill-opacity:0.58506224;stroke:none" />
    <path
       sodipodi:nodetypes="ccccc"
       inkscape:connector-curvature="0"
       id="path3890"
       d="m -15.72076,26.099329 c 3.22057,-1.302188 7.5586,3.858891 7.95758,7.03915 l 3.61358,-1.862584 c -0.28018,-2.408813 -2.4989,-6.572254 -6.8818,-7.094942 z"
       style="fill:url(#linearGradient3897);fill-opacity:1;stroke:none" />
    <path
       inkscape:connector-curvature="0"
       id="path3904"
       d="m -142.52885,13.320711 3.31276,-1.370794 128.16928,12.33715 -4.45508,1.142328 z"
       style="fill:url(#linearGradient3899);fill-opacity:1;stroke:none" />
  </g>
  <g
     id="g4231"
     transform="matrix(1,0.18711044,0,1,3.6014065,-44.148477)">
    <path
       sodipodi:nodetypes="ccccccccccccccccc"
       inkscape:connector-curvature="0"
       id="path3757"
       d="m 105.14192,76.804918 c 31.27433,-33.822059 57.7901,-25.610175 82.01092,2.873697 11.2234,20.868655 12.56162,42.796435 7.29478,65.431895 -11.58824,13.5465 -11.35321,27.656 -10.83164,41.77915 2.67228,8.46241 3.93677,18.54919 13.92639,18.56851 6.87368,0.31322 6.61659,13.1053 9.28425,20.77905 -5.43151,-2.36817 -14.22203,-14.81335 -15.47375,-4.64213 -13.16891,-5.86382 -17.05479,2.19691 -22.32643,8.17899 l -9.94741,-5.96846 -28.95804,9.28426 -8.84215,-4.86318 c -3.82002,-4.0082 -7.27018,-9.42189 -13.92638,-2.65264 l -9.726362,-0.22106 5.084232,-22.54748 0.22105,-33.3791 0.22106,-8.6211 C 80.59866,119.47694 97.457838,86.659835 105.14192,76.804918 z"
       style="fill:#145e63;fill-opacity:0.75471699;stroke:#3e8796;stroke-width:0.50179189000000002px;stroke-linecap:butt;stroke-linejoin:miter;stroke-opacity:0.42452830000000003" />
    <path
       inkscape:connector-curvature="0"
       id="path2987"
       d="m 146.81193,64.726752 c -0.32579,-0.002 -0.6472,0.0074 -0.97223,0.01571 -13.37278,0.338745 -26.03331,9.189697 -32.38125,17.719527 -10.70539,14.384973 -11.13563,28.396981 -11.50986,41.178291 -0.28862,9.85754 3.33031,16.65081 8.98522,24.46236 12.71773,17.56797 14.73438,35.48063 20.15008,53.42515 6.20647,20.56468 21.39513,15.12425 25.71683,-0.36066 4.65936,-16.69478 9.3086,-35.13843 18.87992,-51.62184 4.7328,-8.15066 9.26313,-13.4596 7.68369,-25.70116 C 181.542,109.7201 182.14869,94.188132 175.68064,83.543978 167.33749,69.814063 156.91128,64.787604 146.81193,64.726781 z m -13.94041,39.202488 c 3.30476,-0.06 6.43823,2.77783 5.53539,7.80914 -1.78958,9.97295 -4.64364,18.53483 -19.2249,22.53359 -6.87859,1.88638 -12.10934,-3.35769 -4.42204,-9.06361 6.93735,-5.14927 8.46998,-10.07443 12.82705,-17.89202 1.26577,-2.27108 3.30164,-3.35113 5.2845,-3.3871 z m 20.25985,1.09767 c 1.98285,0.036 4.01873,1.11602 5.28449,3.3871 4.35707,7.81759 5.88971,12.75843 12.82706,17.9077 7.6873,5.70592 2.45655,10.94999 -4.42204,9.06361 -14.58127,-3.99876 -17.451,-12.57632 -19.24059,-22.54927 -0.90283,-5.03131 2.24632,-7.86909 5.55108,-7.80914 z m -9.14202,29.82526 c 0.0485,-0.006 0.10309,-0.003 0.15681,0 0.39064,0.0191 0.92155,0.29359 1.66218,0.97222 1.35146,1.23832 2.48723,2.48989 2.49328,3.44982 0.0225,3.56993 -2.5574,3.83052 -4.28091,2.97939 -1.15739,-0.57156 -1.50275,-3.77754 -1.06631,-5.59812 0.15147,-0.63184 0.30746,-1.70679 1.03495,-1.80331 z m -4.2966,0.12545 c 0.85941,-0.042 1.01451,1.12935 1.17608,1.80331 0.43644,1.82058 0.0911,5.01087 -1.06631,5.58244 -1.72351,0.85113 -4.30339,0.60622 -4.28091,-2.96371 0.006,-0.95994 1.14182,-2.2115 2.49328,-3.44982 0.74063,-0.67864 1.28722,-0.95312 1.67786,-0.97222 z m 2.38351,17.43726 c 6.01414,-0.005 12.35385,3.34052 12.1371,10.16129 -0.44256,13.92638 -0.95915,27.84779 -4.86111,41.77418 -2.50064,8.92494 -10.93959,4.59214 -11.05511,-2.21103 -0.21868,-12.87958 -3.31815,-26.32776 -6.41352,-39.78268 -1.51337,-6.5783 4.17851,-9.9364 10.19264,-9.94176 z"
       style="fill:url(#radialGradient4282);fill-opacity:1;stroke:#4d92ab;stroke-width:2;stroke-linecap:butt;stroke-linejoin:miter;stroke-opacity:0.45754716000000001;stroke-miterlimit:4;stroke-dasharray:none" />
  </g>
  <g
     id="g3915"
     transform="matrix(0.77312162,-0.63425781,0.63425781,0.77312162,71.068964,34.325628)">
    <path
       sodipodi:nodetypes="ccccccccccc"
       inkscape:connector-curvature="0"
       id="path3905"
       d="m -30.011724,151.25908 -3.001172,0.30012 c -0.05625,-24.32356 -5.040302,-49.87907 3.601407,-72.028136 4.248185,-9.399019 -2.301525,-19.877828 -5.402111,-30.011724 7.474995,7.413571 18.249277,6.81459 20.70809,26.410317 -8.663203,24.116113 -8.903942,49.635973 -8.103166,75.329423 l -3.301289,0 0,61.82415 -4.201642,0 0,-61.82415 z"
       style="fill:#5ab9c9;fill-opacity:1;stroke:url(#linearGradient3919);stroke-width:1.89999998;stroke-linecap:butt;stroke-linejoin:miter;stroke-miterlimit:4;stroke-opacity:0.49056606;stroke-dasharray:none" />
    <rect
       ry="4.5461063"
       y="147.35756"
       x="-36.614304"
       height="75.629547"
       width="16.506449"
       id="rect3119"
       style="fill:url(#linearGradient3921);fill-opacity:1;stroke:#155162;stroke-width:2;stroke-linecap:round;stroke-linejoin:round;stroke-miterlimit:4;stroke-opacity:0.28301888;stroke-dasharray:none;stroke-dashoffset:0" />
  </g>
  <g
     transform="matrix(0.86893036,0.35224966,0,1,187.98397,39.810245)"
     id="g3088">
    <path
       style="fill:url(#linearGradient3110);fill-opacity:1;stroke:none"
       d="m -141.32802,13.578329 -1.32107,2.64214 c -2.31697,0.54708 -4.95002,2.20156 -6.32512,6.72545 0.18667,-3.30646 1.43774,-5.22102 3.00243,-6.72545 1.47914,-1.98116 3.06018,-2.33197 4.64376,-2.64214 z"
       id="path3090"
       inkscape:connector-curvature="0"
       sodipodi:nodetypes="ccccc" />
    <path
       inkscape:connector-curvature="0"
       id="path3092"
       d="m -142.52885,202.625 3.31276,-1.37079 128.16928,12.33714 -4.45508,1.14235 z"
       style="opacity:0.77083333;fill:url(#linearGradient3112);fill-opacity:1;stroke:none" />
    <path
       sodipodi:nodetypes="ccccc"
       inkscape:connector-curvature="0"
       id="path3094"
       d="m -15.93254,215.17187 c 3.22056,1.30219 7.76972,-3.23263 8.1687,-6.41288 l 3.01979,-2.24417 c 0.63231,4.07648 -2.777,8.03896 -7.56896,9.56853 z"
       style="fill:url(#linearGradient3114);fill-opacity:1;stroke:none" />
    <rect
       style="opacity:0.6;fill:#123e50;fill-opacity:0.47302904;stroke:#b6ccd6;stroke-width:1.65789521;stroke-miterlimit:4;stroke-opacity:0.42738588;stroke-dasharray:none"
       id="rect3096"
       width="141.61775"
       height="189.54471"
       x="-145.27965"
       y="25.144096"
       ry="7.8473959"
       transform="matrix(0.99529408,0.09690046,0,1,0,0)" />
    <path
       sodipodi:nodetypes="ccccc"
       inkscape:connector-curvature="0"
       id="path3098"
       d="m -148.30186,19.704743 3.83675,-1.918377 -1.27891,173.932764 -3.19729,2.77098 z"
       style="fill:#449abe;fill-opacity:0.1991701;stroke:none" />
    <rect
       transform="matrix(0.99529408,0.09690046,0,1,0,0)"
       ry="7.8473959"
       y="27.252451"
       x="-149.23723"
       height="189.54471"
       width="141.61775"
       id="rect3100"
       style="opacity:0.6;fill:url(#linearGradient3116);fill-opacity:1;stroke:#b6ccd6;stroke-width:1.65789521;stroke-miterlimit:4;stroke-opacity:0.42738588;stroke-dasharray:none" />
    <path
       style="opacity:0.6;fill:url(#linearGradient3118);fill-opacity:1;stroke:none"
       d="m -141.31817,14.218493 125.330398,12.201994 c 4.326997,0.42127 7.810457,4.260354 7.810457,8.607811 l 0,90.848592 C -83.296852,31.653305 -118.38326,45.376176 -149.12863,70.804335 l 0,-49.498863 c 0,-4.347457 3.48347,-7.508249 7.81046,-7.086979 z"
       id="path3102"
       inkscape:connector-curvature="0"
       sodipodi:nodetypes="sssccss" />
    <path
       style="fill:#204757;fill-opacity:0.58506224;stroke:none"
       d="m -7.83411,33.133375 3.83676,-1.918377 -0.63946,175.424832 -3.19729,2.13152 z"
       id="path3104"
       inkscape:connector-curvature="0"
       sodipodi:nodetypes="ccccc" />
    <path
       style="fill:url(#linearGradient3120);fill-opacity:1;stroke:none"
       d="m -15.72076,26.099329 c 3.22057,-1.302188 7.5586,3.858891 7.95758,7.03915 l 3.61358,-1.862584 c -0.28018,-2.408813 -2.4989,-6.572254 -6.8818,-7.094942 z"
       id="path3106"
       inkscape:connector-curvature="0"
       sodipodi:nodetypes="ccccc" />
    <path
       style="fill:url(#linearGradient3122);fill-opacity:1;stroke:none"
       d="m -142.52885,13.320711 3.31276,-1.370794 128.16928,12.33715 -4.45508,1.142328 z"
       id="path3108"
       inkscape:connector-curvature="0" />
  </g>
</svg>
