<?xml version="1.0" encoding="UTF-8" standalone="no"?>
<!-- Created with Inkscape (http://www.inkscape.org/) -->

<svg
   xmlns:a="http://ns.adobe.com/AdobeSVGViewerExtensions/3.0/"
   xmlns:dc="http://purl.org/dc/elements/1.1/"
   xmlns:cc="http://creativecommons.org/ns#"
   xmlns:rdf="http://www.w3.org/1999/02/22-rdf-syntax-ns#"
   xmlns:svg="http://www.w3.org/2000/svg"
   xmlns="http://www.w3.org/2000/svg"
   xmlns:xlink="http://www.w3.org/1999/xlink"
   xmlns:sodipodi="http://sodipodi.sourceforge.net/DTD/sodipodi-0.dtd"
   xmlns:inkscape="http://www.inkscape.org/namespaces/inkscape"
   id="svg2"
   sodipodi:version="0.32"
   inkscape:version="0.91 r13725"
   width="256"
   height="256"
   sodipodi:docname="panel-symbolic-work.svg"
   inkscape:output_extension="org.inkscape.output.svg.inkscape"
   version="1.1">
  <metadata
     id="metadata7">
    <rdf:RDF>
      <cc:Work>
        <dc:format>image/svg+xml</dc:format>
        <dc:type
           rdf:resource="http://purl.org/dc/dcmitype/StillImage" />
      </cc:Work>
    </rdf:RDF>
  </metadata>
  <defs
     id="defs5">
    <linearGradient
       inkscape:collect="always"
       id="linearGradient4263">
      <stop
         id="stop4265"
         stop-color="#000000"
         stop-opacity="0.765" />
      <stop
         offset="1"
         id="stop4267"
         stop-color="#000000"
         stop-opacity="0.094" />
    </linearGradient>
    <linearGradient
       inkscape:collect="always"
       id="linearGradient4707">
      <stop
         id="stop4709"
         stop-color="#ffffff"
         stop-opacity="1" />
      <stop
         offset="1"
         id="stop4711"
         stop-color="#9f9f9f"
         stop-opacity="1" />
    </linearGradient>
    <linearGradient
       inkscape:collect="always"
       id="linearGradient4699">
      <stop
         id="stop4701"
         stop-color="#ffffff"
         stop-opacity="1" />
      <stop
         offset="1"
         id="stop4703"
         stop-color="#b0b0b0"
         stop-opacity="1" />
    </linearGradient>
    <linearGradient
       inkscape:collect="always"
       id="linearGradient3200">
      <stop
         id="stop3203"
         stop-color="#000000"
         stop-opacity="1" />
      <stop
         offset="1"
         id="stop3205"
         stop-color="#393939"
         stop-opacity="0" />
    </linearGradient>
    <linearGradient
       inkscape:collect="always"
       id="linearGradient3240">
      <stop
         id="stop3242"
         stop-color="#000000"
         stop-opacity="1" />
      <stop
         offset="1"
         id="stop3244"
         stop-color="#000000"
         stop-opacity="0" />
    </linearGradient>
    <linearGradient
       inkscape:collect="always"
       id="linearGradient3230">
      <stop
         id="stop3232"
         stop-color="#000000"
         stop-opacity="1" />
      <stop
         offset="1"
         id="stop3234"
         stop-color="#4d4d4d"
         stop-opacity="0" />
    </linearGradient>
    <linearGradient
       id="linearGradient3220">
      <stop
         id="stop3222"
         stop-color="#b30505"
         stop-opacity="1" />
      <stop
         offset="1"
         id="stop3224"
         stop-color="#db5353"
         stop-opacity="1" />
    </linearGradient>
    <linearGradient
       inkscape:collect="always"
       id="linearGradient3210">
      <stop
         id="stop3212"
         stop-color="#000000"
         stop-opacity="1" />
      <stop
         offset="1"
         id="stop3214"
         stop-color="#ffffff"
         stop-opacity="1" />
    </linearGradient>
    <linearGradient
       inkscape:collect="always"
       id="linearGradient3198">
      <stop
         id="stop3200"
         stop-color="#cfcfcf"
         stop-opacity="1" />
      <stop
         offset="1"
         id="stop3202"
         stop-color="#4a4a4a"
         stop-opacity="1" />
    </linearGradient>
    <linearGradient
       id="linearGradient3190">
      <stop
         id="stop3192"
         stop-color="#5f5f5f"
         stop-opacity="1" />
      <stop
         offset="1"
         id="stop3194"
         stop-color="#ffffff"
         stop-opacity="1" />
    </linearGradient>
    <linearGradient
       inkscape:collect="always"
       id="linearGradient3178">
      <stop
         id="stop3180"
         stop-color="#000000"
         stop-opacity="1" />
      <stop
         offset="1"
         id="stop3182"
         stop-color="#7a7a7a"
         stop-opacity="1" />
    </linearGradient>
    <linearGradient
       id="linearGradient3168">
      <stop
         id="stop3170"
         stop-color="#ffffff"
         stop-opacity="1" />
      <stop
         offset="1"
         id="stop3172"
         stop-color="#585858"
         stop-opacity="1" />
    </linearGradient>
    <linearGradient
       inkscape:collect="always"
       xlink:href="#linearGradient3178"
       id="linearGradient3195"
       gradientUnits="userSpaceOnUse"
       gradientTransform="matrix(0.9992875,-0.03774262,0.03774262,0.9992875,635.79565,-72.301452)"
       x1="-374.95"
       y1="245.4"
       x2="-370.78"
       y2="254.88" />
    <linearGradient
       inkscape:collect="always"
       xlink:href="#linearGradient3240"
       id="linearGradient3197"
       gradientUnits="userSpaceOnUse"
       gradientTransform="translate(-183.63636,73.636364)"
       x1="547.78"
       y1="148.45"
       x2="552.22"
       y2="159.14" />
    <linearGradient
       inkscape:collect="always"
       xlink:href="#linearGradient3190"
       id="linearGradient3199"
       gradientUnits="userSpaceOnUse"
       spreadMethod="reflect"
       x1="380.28"
       y1="208.27"
       x2="397.55"
       y2="250.76" />
    <linearGradient
       inkscape:collect="always"
       xlink:href="#linearGradient3198"
       id="linearGradient3201"
       gradientUnits="userSpaceOnUse"
       spreadMethod="pad"
       x1="387.15"
       y1="315.58"
       x2="389.93"
       y2="272.52" />
    <linearGradient
       inkscape:collect="always"
       xlink:href="#linearGradient3210"
       id="linearGradient3203"
       gradientUnits="userSpaceOnUse"
       spreadMethod="reflect"
       x1="313.49"
       y1="173.43"
       x2="315.9"
       y2="178.56" />
    <radialGradient
       inkscape:collect="always"
       xlink:href="#linearGradient3168"
       id="radialGradient3205"
       gradientUnits="userSpaceOnUse"
       gradientTransform="matrix(1,0,0,0.9336512,660.12137,-39.596913)"
       cx="-338.07"
       cy="282.17"
       fx="-338.07"
       fy="282.17"
       r="20.735"
       spreadMethod="reflect" />
    <radialGradient
       inkscape:collect="always"
       xlink:href="#linearGradient3220"
       id="radialGradient3207"
       gradientUnits="userSpaceOnUse"
       gradientTransform="matrix(1.413398,1.341284,-0.4240825,0.4468832,55.924036,-67.987397)"
       cx="146.7"
       cy="294.24"
       fx="146.7"
       fy="294.24"
       r="62.22" />
    <linearGradient
       inkscape:collect="always"
       xlink:href="#linearGradient3230"
       id="linearGradient3209"
       gradientUnits="userSpaceOnUse"
       spreadMethod="reflect"
       x1="262.51"
       y1="307.72"
       x2="265.67"
       y2="308.98" />
    <linearGradient
       inkscape:collect="always"
       xlink:href="#linearGradient3240"
       id="linearGradient3211"
       gradientUnits="userSpaceOnUse"
       x1="547.78"
       y1="148.45"
       x2="552.22"
       y2="159.14" />
    <linearGradient
       inkscape:collect="always"
       xlink:href="#linearGradient3200"
       id="linearGradient3213"
       gradientUnits="userSpaceOnUse"
       x1="531.74"
       y1="209.96"
       x2="524.13"
       y2="196.03" />
    <linearGradient
       inkscape:collect="always"
       xlink:href="#linearGradient4699"
       id="linearGradient4705"
       x1="254.45"
       y1="254.36"
       x2="273.95"
       y2="300.35"
       gradientUnits="userSpaceOnUse"
       spreadMethod="reflect" />
    <linearGradient
       inkscape:collect="always"
       xlink:href="#linearGradient4707"
       id="linearGradient4713"
       x1="173.93"
       y1="244.57"
       x2="194.2"
       y2="307.91"
       gradientUnits="userSpaceOnUse"
       spreadMethod="reflect" />
    <linearGradient
       inkscape:collect="always"
       xlink:href="#linearGradient4263"
       id="linearGradient4269"
       x1="184.94"
       y1="249.76"
       x2="44.528"
       y2="21.425"
       gradientUnits="userSpaceOnUse"
       gradientTransform="matrix(0.58355648,0.74654269,-0.71802608,0.41295472,138.06167,-14.809946)" />
    <filter
       inkscape:collect="always"
       id="filter4443"
       x="-0.056"
       width="1.113"
       y="-0.026"
       height="1.053"
       color-interpolation-filters="sRGB">
      <feGaussianBlur
         inkscape:collect="always"
         stdDeviation="2.44232"
         id="feGaussianBlur4445" />
    </filter>
    <linearGradient
       id="linearGradient4385">
      <stop
         stop-opacity="0.535"
         stop-color="#1a485c"
         id="stop4387" />
      <stop
         stop-opacity="0.769"
         stop-color="#ffffff"
         id="stop4389"
         offset="1" />
    </linearGradient>
    <linearGradient
       id="linearGradient3828">
      <stop
         id="stop3830"
         stop-color="#ffffff"
         stop-opacity="0.486" />
      <stop
         id="stop3832"
         offset="1"
         stop-color="#286483"
         stop-opacity="0" />
    </linearGradient>
    <linearGradient
       id="linearGradient3906">
      <stop
         id="stop3908"
         stop-color="#cedce2"
         stop-opacity="1" />
      <stop
         offset="1"
         id="stop3910"
         stop-color="#cedce2"
         stop-opacity="0" />
    </linearGradient>
    <linearGradient
       id="linearGradient3878">
      <stop
         id="stop3880"
         stop-color="#cdeaf6"
         stop-opacity="0.915" />
      <stop
         offset="1"
         id="stop3882"
         stop-color="#c5e1ed"
         stop-opacity="0" />
    </linearGradient>
    <linearGradient
       id="linearGradient3867">
      <stop
         id="stop3869"
         stop-color="#99bbc9"
         stop-opacity="0.338" />
      <stop
         offset="1"
         id="stop3871"
         stop-color="#174457"
         stop-opacity="0" />
    </linearGradient>
    <linearGradient
       id="linearGradient3851">
      <stop
         id="stop3853"
         stop-color="#123e50"
         stop-opacity="0.683" />
      <stop
         id="stop3861"
         offset="0.371"
         stop-color="#c6d7de"
         stop-opacity="0.749" />
      <stop
         id="stop3859"
         offset="0.716"
         stop-color="#123e50"
         stop-opacity="0.782" />
      <stop
         offset="1"
         id="stop3855"
         stop-color="#c3d4db"
         stop-opacity="0.099" />
    </linearGradient>
    <linearGradient
       id="linearGradient3824">
      <stop
         id="stop3826"
         stop-color="#ffffff"
         stop-opacity="0.838" />
      <stop
         id="stop3828"
         offset="1"
         stop-color="#70b5d4"
         stop-opacity="0" />
    </linearGradient>
    <linearGradient
       id="linearGradient3815">
      <stop
         id="stop3817"
         stop-color="#9fcaff"
         stop-opacity="0.113" />
      <stop
         id="stop3819"
         offset="1"
         stop-color="#668dbd"
         stop-opacity="0" />
    </linearGradient>
    <linearGradient
       id="linearGradient3773">
      <stop
         id="stop3775"
         stop-color="#70b5d4"
         stop-opacity="0.838" />
      <stop
         offset="1"
         id="stop3777"
         stop-color="#70b5d4"
         stop-opacity="0.275" />
    </linearGradient>
    <linearGradient
       id="linearGradient3765">
      <stop
         id="stop3767"
         stop-color="#668dbd"
         stop-opacity="0.353" />
      <stop
         offset="1"
         id="stop3769"
         stop-color="#668dbd"
         stop-opacity="0.094" />
    </linearGradient>
    <linearGradient
       inkscape:collect="always"
       xlink:href="#linearGradient4385"
       id="linearGradient3898"
       x1="364.85001"
       y1="0.76999998"
       x2="360.76001"
       y2="-7.507"
       gradientUnits="userSpaceOnUse"
       spreadMethod="reflect"
       gradientTransform="matrix(0.82699483,0,0,0.82699483,-170.30296,-15.751576)" />
    <linearGradient
       inkscape:collect="always"
       xlink:href="#linearGradient3906"
       id="linearGradient3912"
       x1="317.98001"
       y1="-13.08"
       x2="359.28"
       y2="-16.120001"
       gradientUnits="userSpaceOnUse"
       spreadMethod="reflect"
       gradientTransform="matrix(0.82699483,0,0,0.82699483,-170.30296,-15.751576)" />
    <linearGradient
       id="linearGradient3578">
      <stop
         id="stop3580"
         stop-color="#000000"
         stop-opacity="1" />
      <stop
         offset="1"
         id="stop3582"
         stop-color="#fffcfc"
         stop-opacity="1" />
    </linearGradient>
    <linearGradient
       gradientTransform="matrix(2.161916,0,0,2.599807,-140.2925,-51.89728)"
       id="XMLID_26_"
       gradientUnits="userSpaceOnUse"
       x1="76.239998"
       y1="31.681"
       x2="76.239998"
       y2="40.478001">
      <stop
         offset="8.04598%"
         id="stop191"
         stop-color="rgb(255,255,255)" />
      <stop
         offset="100%"
         id="stop193"
         stop-color="rgb(255,255,255)"
         stop-opacity="0" />
    </linearGradient>
    <radialGradient
       gradientTransform="matrix(2.161916,0,0,2.599807,-139.8969,-51.106)"
       id="XMLID_25_"
       cx="76.510002"
       cy="49.450001"
       r="14.862"
       fx="76.510002"
       fy="49.450001"
       gradientUnits="userSpaceOnUse">
      <stop
         id="stop184"
         stop-color="rgb(187,235,255)" />
      <stop
         offset="1"
         id="stop186"
         stop-color="#7b7b7d"
         stop-opacity="1" />
      <a:midPointStop
         offset="0"
         stop-color="#BBEBFF" />
      <a:midPointStop
         offset="0.5"
         stop-color="#BBEBFF" />
      <a:midPointStop
         offset="1"
         stop-color="#003DD7" />
    </radialGradient>
    <radialGradient
       gradientUnits="userSpaceOnUse"
       fy="49.450001"
       fx="76.510002"
       r="14.862"
       cy="49.450001"
       cx="76.510002"
       id="radialGradient3407"
       gradientTransform="matrix(2.161916,0,0,2.599807,-139.8969,-51.106)">
      <stop
         id="stop3409"
         stop-color="#55b6de"
         stop-opacity="1" />
      <stop
         id="stop3411"
         offset="1"
         stop-color="#000007"
         stop-opacity="1" />
      <a:midPointStop
         offset="0"
         stop-color="#BBEBFF" />
      <a:midPointStop
         offset="0.5"
         stop-color="#BBEBFF" />
      <a:midPointStop
         offset="1"
         stop-color="#003DD7" />
    </radialGradient>
    <linearGradient
       id="linearGradient2924">
      <stop
         id="stop2926"
         stop-color="#205274"
         stop-opacity="0.754" />
      <stop
         offset="1"
         id="stop2928"
         stop-color="#ffffff"
         stop-opacity="0.458" />
    </linearGradient>
    <linearGradient
       inkscape:collect="always"
       xlink:href="#linearGradient3828"
       id="linearGradient3662"
       gradientUnits="userSpaceOnUse"
       gradientTransform="matrix(0.82699483,0,0,-0.82699483,-106.37695,393.98956)"
       spreadMethod="reflect"
       x1="229.62"
       y1="253.17999"
       x2="266.17999"
       y2="254.22" />
    <linearGradient
       inkscape:collect="always"
       xlink:href="#linearGradient3828"
       id="linearGradient3664"
       gradientUnits="userSpaceOnUse"
       gradientTransform="matrix(-0.82002201,-0.10716502,0.10716502,-0.82002201,367.07244,422.46474)"
       spreadMethod="reflect"
       x1="226.48"
       y1="251.92"
       x2="249.45"
       y2="252.55" />
    <linearGradient
       inkscape:collect="always"
       xlink:href="#linearGradient3765"
       id="linearGradient3666"
       gradientUnits="userSpaceOnUse"
       x1="17.757"
       y1="183.53"
       x2="17.757"
       y2="256.25" />
    <linearGradient
       inkscape:collect="always"
       xlink:href="#linearGradient3773"
       id="linearGradient3668"
       gradientUnits="userSpaceOnUse"
       x1="66.089996"
       y1="264.76999"
       x2="67.089996"
       y2="173.91" />
    <linearGradient
       inkscape:collect="always"
       xlink:href="#linearGradient3851"
       id="linearGradient3670"
       gradientUnits="userSpaceOnUse"
       gradientTransform="matrix(0.82699483,0,0,0.82699483,-100.84689,27.344659)"
       spreadMethod="reflect"
       x1="218.42999"
       y1="236.06"
       x2="354.07001"
       y2="234.60001" />
    <linearGradient
       inkscape:collect="always"
       xlink:href="#linearGradient3828"
       id="linearGradient3674"
       gradientUnits="userSpaceOnUse"
       gradientTransform="matrix(0.82699483,0,0,0.60822815,-100.84689,80.374138)"
       spreadMethod="reflect"
       x1="226.48"
       y1="251.92"
       x2="249.45"
       y2="252.55" />
    <linearGradient
       inkscape:collect="always"
       xlink:href="#linearGradient3828"
       id="linearGradient3676"
       gradientUnits="userSpaceOnUse"
       gradientTransform="matrix(-0.82699483,0,0,0.6334491,365.06232,74.617591)"
       spreadMethod="reflect"
       x1="229.62"
       y1="253.17999"
       x2="266.17999"
       y2="254.22" />
    <radialGradient
       inkscape:collect="always"
       xlink:href="#linearGradient3815"
       id="radialGradient3678"
       gradientUnits="userSpaceOnUse"
       gradientTransform="matrix(1,0,0,0.28322862,0,157.8256)"
       spreadMethod="reflect"
       cx="-39.668999"
       cy="149.73"
       fx="-39.668999"
       fy="149.73"
       r="126.76" />
    <linearGradient
       inkscape:collect="always"
       xlink:href="#linearGradient3824"
       id="linearGradient3682"
       gradientUnits="userSpaceOnUse"
       gradientTransform="matrix(0.82699483,0,0,0.862037,114.19173,14.733697)"
       spreadMethod="reflect"
       x1="66.089996"
       y1="264.76999"
       x2="144.10001"
       y2="234.13" />
    <linearGradient
       id="linearGradient4311">
      <stop
         stop-opacity="1"
         stop-color="#bcbfeb"
         id="stop4313" />
      <stop
         stop-opacity="1"
         stop-color="#5975ff"
         offset="0.293"
         id="stop4315" />
      <stop
         stop-opacity="1"
         stop-color="#000984"
         id="stop4317-3"
         offset="1" />
    </linearGradient>
    <linearGradient
       id="linearGradient3381">
      <stop
         stop-opacity="1"
         stop-color="#ffffff"
         id="stop3383" />
      <stop
         stop-opacity="0"
         stop-color="#ffffff"
         offset="1"
         id="stop3385" />
    </linearGradient>
    <linearGradient
       y2="6.5780001"
       x2="63.369999"
       y1="10.421"
       x1="61.93"
       spreadMethod="reflect"
       gradientTransform="translate(-69.456067,-43.096235)"
       gradientUnits="userSpaceOnUse"
       id="linearGradient5480"
       xlink:href="#linearGradient3828"
       inkscape:collect="always" />
    <linearGradient
       y2="-16.120001"
       x2="359.28"
       y1="-13.08"
       x1="317.98001"
       spreadMethod="reflect"
       gradientTransform="matrix(0.82699483,0,0,0.82699483,-170.30296,173.55271)"
       gradientUnits="userSpaceOnUse"
       id="linearGradient5482"
       xlink:href="#linearGradient3906"
       inkscape:collect="always" />
    <linearGradient
       y2="-4.0929999"
       x2="361.38"
       y1="-9.7860003"
       x1="359.70999"
       spreadMethod="reflect"
       gradientTransform="matrix(0.82699483,0,0,-0.82699483,-170.51474,161.48411)"
       gradientUnits="userSpaceOnUse"
       id="linearGradient5484"
       xlink:href="#linearGradient4385"
       inkscape:collect="always" />
    <linearGradient
       y2="54.150002"
       x2="278.95001"
       y1="56.220001"
       x1="227.44"
       spreadMethod="reflect"
       gradientTransform="matrix(0.82699483,0,0,0.82699483,-171.10818,0.53293058)"
       gradientUnits="userSpaceOnUse"
       id="linearGradient5486"
       xlink:href="#linearGradient3867"
       inkscape:collect="always" />
    <linearGradient
       y2="54.154095"
       x2="264.01999"
       y1="-44.748001"
       x1="289.32001"
       gradientTransform="matrix(0.82310306,0.08013618,0,0.82699483,-170.30296,-15.751576)"
       gradientUnits="userSpaceOnUse"
       id="linearGradient5488"
       xlink:href="#linearGradient3878"
       inkscape:collect="always" />
    <linearGradient
       inkscape:collect="always"
       xlink:href="#linearGradient3773"
       id="linearGradient4706"
       gradientUnits="userSpaceOnUse"
       x1="66.089996"
       y1="264.76999"
       x2="67.089996"
       y2="173.91" />
    <linearGradient
       inkscape:collect="always"
       xlink:href="#linearGradient3773"
       id="linearGradient4708"
       gradientUnits="userSpaceOnUse"
       x1="66.089996"
       y1="264.76999"
       x2="67.089996"
       y2="173.91" />
  </defs>
  <sodipodi:namedview
     inkscape:window-height="1056"
     inkscape:window-width="1920"
     inkscape:pageshadow="2"
     inkscape:pageopacity="0.0"
     guidetolerance="10.0"
     gridtolerance="10.0"
     objecttolerance="10.0"
     borderopacity="1.0"
     bordercolor="#666666"
     pagecolor="#ffffff"
     id="base"
     showgrid="false"
     inkscape:zoom="3.5429688"
     inkscape:cx="128"
     inkscape:cy="128"
     inkscape:window-x="0"
     inkscape:window-y="0"
     inkscape:current-layer="svg2"
     inkscape:window-maximized="1" />
  <g
     id="g3846"
     transform="matrix(1.0183153,0.03112447,-0.03112447,1.0183153,-7.089007,2.9762977)">
    <path
       style="opacity:0.6;fill:url(#linearGradient3662);fill-opacity:1;stroke:none"
       sodipodi:nodetypes="ccccc"
       inkscape:connector-curvature="0"
       id="path3807"
       d="m 54.736434,189.87309 c 11.34321,-2.98591 45.458516,-11.09467 58.887356,-9.85865 l -0.88646,-4.41695 c -12.71639,0.16462 -45.30945,4.76633 -58.433689,9.79607 z" />
    <path
       style="fill:url(#linearGradient3664);fill-opacity:1;stroke:none"
       d="m 225.18456,193.8499 c -10.99552,-4.57681 -21.97894,-7.51195 -35.15989,-9.58669 l 1.51764,-4.32005 c 13.50116,1.50274 24.01737,6.30605 34.7842,10.30907 z"
       id="path3803"
       inkscape:connector-curvature="0"
       sodipodi:nodetypes="ccccc" />
    <path
       style="fill:#7b97c2;fill-opacity:0.33200001;stroke:none"
       sodipodi:nodetypes="ccccc"
       inkscape:connector-curvature="0"
       id="path3781"
       d="m 29.95332,202.76883 0.295954,6.78299 c 17.429155,-41.66727 194.671716,-41.85651 208.155156,0 l -0.29595,-6.50171 C 231.10287,165.65974 39.311097,165.15265 29.95332,202.76883 Z" />
    <ellipse
       style="fill:url(#linearGradient3666);fill-opacity:1;stroke:url(#linearGradient4706);stroke-width:1.95899999;stroke-miterlimit:4;stroke-dasharray:none;stroke-opacity:0.42699998"
       ry="34.922543"
       rx="125.78035"
       cy="220.18959"
       cx="24.564161"
       transform="matrix(0.82699483,0,0,0.862037,115.18046,19.830364)"
       id="path3755"
       stroke-miterlimit="4" />
    <path
       style="fill:url(#linearGradient3670);fill-opacity:1;stroke:none"
       d="m 29.982648,213.06881 0.06684,-8.22029 c 13.101763,40.12356 195.926662,39.62893 207.496412,1.43728 l 0.59191,6.50172 C 231.1322,250.1779 39.340425,250.68498 29.982648,213.06881 Z"
       id="path3783"
       inkscape:connector-curvature="0"
       sodipodi:nodetypes="ccccc" />
    <ellipse
       style="fill:none;stroke:url(#linearGradient4708);stroke-width:1.95899999;stroke-miterlimit:4;stroke-dasharray:none;stroke-opacity:0.42699998"
       ry="34.922543"
       rx="125.78035"
       cy="220.18959"
       cx="24.564161"
       id="path3785"
       transform="matrix(0.82699483,0,0,0.88958816,114.51701,13.92547)"
       stroke-miterlimit="4" />
    <path
       style="fill:url(#linearGradient3674);fill-opacity:1;stroke:none"
       sodipodi:nodetypes="ccccc"
       inkscape:connector-curvature="0"
       id="path3789"
       d="m 68.008438,227.80985 c 11.495889,2.2898 23.526195,5.87838 36.864872,6.13522 l -0.34601,4.77863 c -13.505206,-0.50428 -25.079598,-2.40682 -35.68238,-5.02282 z" />
    <path
       style="fill:url(#linearGradient3676);fill-opacity:1;stroke:none"
       d="m 203.81933,227.63684 c -11.34321,2.11718 -44.49242,8.05513 -57.98607,6.59676 l -0.14445,5.49147 c 12.95907,0.45089 46.3116,-4.40142 58.37491,-7.44429 z"
       id="path3799"
       inkscape:connector-curvature="0"
       sodipodi:nodetypes="ccccc" />
    <ellipse
       style="fill:url(#radialGradient3678);fill-opacity:1;stroke:url(#linearGradient3668);stroke-width:1.95899999;stroke-miterlimit:4;stroke-dasharray:none;stroke-opacity:0.42699998"
       ry="34.922543"
       rx="125.78035"
       cy="220.18959"
       cx="24.564161"
       id="path3811"
       transform="matrix(0.82699483,0,0,0.862037,114.12171,14.436903)"
       stroke-miterlimit="4" />
    <path
       style="fill:none;stroke:url(#linearGradient3682);stroke-width:0.82700002;stroke-miterlimit:4;stroke-dasharray:none;stroke-opacity:0.42699998"
       sodipodi:nodetypes="csc"
       inkscape:connector-curvature="0"
       id="path3821"
       d="m 238.52586,204.54527 c 0,16.62627 -46.5712,30.10452 -104.0197,30.10452 -57.448495,0 -104.019702,-13.47825 -104.019702,-30.10452"
       stroke-miterlimit="4" />
  </g>
  <g
     id="g3834"
     transform="matrix(1.164241,0,0,1.0187909,61.635218,41.136962)">
    <path
       style="fill:url(#linearGradient5480);fill-opacity:1;stroke:none"
       sodipodi:nodetypes="ccccc"
       inkscape:connector-curvature="0"
       id="path3818"
       d="m -10.608435,-28.051268 2.6421394,-1.321069 c 0.54708,-2.31697 2.2015587,-4.950025 6.7254437,-6.32512 -3.306454,0.186674 -5.2210137,1.437738 -6.7254437,3.00243 -1.981169,1.479141 -2.3319794,3.06018 -2.6421394,4.643759 z" />
    <path
       style="opacity:0.77100004;fill:url(#linearGradient5482);fill-opacity:1;stroke:none"
       d="m -4.6652759,154.85567 3.312751,-1.37079 128.1692849,12.33714 -4.45508,1.14235 z"
       id="path3914"
       inkscape:connector-curvature="0" />
    <path
       style="fill:url(#linearGradient5484);fill-opacity:1;stroke:none"
       d="m 121.93103,167.40254 c 3.22056,1.30219 7.76972,-3.23263 8.1687,-6.41288 l 3.01979,-2.24417 c 0.63231,4.07648 -2.777,8.03896 -7.56896,9.56853 z"
       id="path3900"
       inkscape:connector-curvature="0"
       sodipodi:nodetypes="ccccc" />
    <rect
       style="opacity:0.6;fill:#123e50;fill-opacity:0.47300002;stroke:#b6ccd6;stroke-width:1.65799999;stroke-miterlimit:4;stroke-dasharray:none;stroke-opacity:0.42699998"
       transform="matrix(0.99529408,0.09690046,0,1,0,0)"
       ry="7.8470001"
       y="-36.518002"
       x="-10.624"
       height="189.53999"
       width="141.62"
       id="rect3863"
       stroke-miterlimit="4"
       rx="7.8470001" />
    <path
       style="fill:#204757;fill-opacity:0.58499995;stroke:none"
       d="m -10.438287,-28.064586 3.8367514,-1.918377 -1.278914,173.932763 -3.1972864,2.77098 z"
       id="path3888"
       inkscape:connector-curvature="0"
       sodipodi:nodetypes="ccccc" />
    <rect
       style="opacity:0.6;fill:url(#linearGradient5486);fill-opacity:1;stroke:#b6ccd6;stroke-width:1.65799999;stroke-miterlimit:4;stroke-dasharray:none;stroke-opacity:0.42699998"
       id="rect3865"
       width="141.62"
       height="189.53999"
       x="-11.295"
       y="-33.755001"
       ry="7.8470001"
       transform="matrix(0.99529408,0.09690046,0,1,0,0)"
       stroke-miterlimit="4"
       rx="7.8470001" />
    <path
       style="opacity:0.6;fill:url(#linearGradient5488);fill-opacity:1;stroke:none"
       sodipodi:nodetypes="sssccss"
       inkscape:connector-curvature="0"
       id="rect3875"
       d="M -3.4318059,-33.792685 121.89858,-21.590691 c 4.327,0.42127 7.81046,4.260354 7.81046,8.607811 l 0,90.848605 C 54.589503,-16.357873 19.503097,-2.6350023 -11.242272,22.793157 l 0,-49.498863 c 0,-4.347457 3.4834714,-7.508249 7.8104661,-7.086979 z" />
    <path
       style="fill:#204757;fill-opacity:0.41800005;stroke:none"
       sodipodi:nodetypes="ccccc"
       inkscape:connector-curvature="0"
       id="path3886"
       d="m 130.02946,-14.635954 3.83676,-1.918377 -0.63946,175.424831 -3.19729,2.13152 z" />
    <path
       style="fill:url(#linearGradient3898);fill-opacity:1;stroke:none"
       sodipodi:nodetypes="ccccc"
       inkscape:connector-curvature="0"
       id="path3890"
       d="m 122.14281,-21.67 c 3.22057,-1.302188 7.50991,3.846574 7.90889,7.026833 l 3.60704,-1.800998 c -0.28018,-2.408813 -2.44367,-6.621523 -6.82657,-7.144211 z" />
    <path
       style="fill:url(#linearGradient3912);fill-opacity:1;stroke:none"
       inkscape:connector-curvature="0"
       id="path3904"
       d="m -4.6652759,-34.448618 3.312751,-1.370794 128.1692849,12.33715 -4.45508,1.142328 z" />
  </g>
  <g
     id="text4257"
     transform="translate(2.1857259,3.2675783)"
     stroke-opacity="1"
     font-family="sans-serif"
     fill="#000000"
     stroke="none"
     font-style="normal"
     word-spacing="0"
     stroke-linejoin="miter"
     line-height="125%"
     fill-opacity="1"
     font-weight="normal"
     stroke-linecap="butt"
     stroke-width="1"
     letter-spacing="0"
     font-size="7.5">
    <path
       inkscape:connector-curvature="0"
       d="m 8.9787512,-9.0156193 -1.003418,2.7209473 2.0104981,0 -1.0070801,-2.7209473 z m -0.4174805,-0.7287597 0.8386231,0 2.0837402,5.4675293 -0.769043,0 -0.498047,-1.4025879 -2.4645995,0 -0.4980468,1.4025879 -0.7800293,0 2.0874023,-5.4675293 z"
       id="path4262" />
    <path
       inkscape:connector-curvature="0"
       d="m 13.018058,-9.1364689 0,2.0544434 0.930176,0 q 0.516357,0 0.798339,-0.267334 0.281983,-0.267334 0.281983,-0.7617188 0,-0.4907226 -0.281983,-0.7580566 -0.281982,-0.267334 -0.798339,-0.267334 l -0.930176,0 z m -0.739746,-0.6079101 1.669922,0 q 0.919189,0 1.387939,0.4174804 0.472412,0.4138184 0.472412,1.2158203 0,0.8093262 -0.472412,1.2231446 -0.46875,0.4138183 -1.387939,0.4138183 l -0.930176,0 0,2.1972657 -0.739746,0 0,-5.4675293 z"
       id="path4264" />
  </g>
  <path
     d="m 147.1386,33.706644 c -2.41086,-3.115263 -5.9946,-5.74357 -8.39207,-5.589307 l 0.11185,-0.07277 -3.8181,-0.08891 -26.69537,63.832704 -4.00391,-0.529471 -12.35774,28.92165 c -0.689929,-0.0685 -1.390771,-0.10621 -2.114564,-0.0837 l -8.970778,2.1094 -7.790706,17.12415 c -0.06095,4.12239 1.586412,7.31005 4.575655,9.75199 l -3.950928,8.57289 -3.881917,1.02573 0.805415,0.92118 -3.241074,-2.67174 -9.945529,0.93263 -5.176937,8.3438 -0.152177,0.0368 13.036498,13.31495 16.545433,16.96131 0.04837,-0.011 0.14869,0.1512 5.438314,-1.3882 7.978201,-1.76683 0.185768,-0.42811 0.107147,0.10325 c 0,0 3.38798,-6.79713 3.302272,-7.88915 l -0.730978,-0.64907 -1.664048,-2.12882 2.451489,-5.4511 1.153934,-2.85123 5.15337,4.75925 -14.891521,35.07108 4.861718,2.90638 -0.3082,0.0504 -34.66948,-21.49564 -0.395575,0.74746 -0.23258,-0.13891 0.231964,-0.46524 -4.701709,-0.32469 -7.211652,-0.70099 -2.442535,6.14134 c 18.94734,25.54631 49.96582,65.49869 60.20943,41.04085 l 17.96586,-43.15041 -0.18251,1.11104 -1.18581,3.67907 5.32477,0.24537 c 2.69009,0.37467 4.87803,-0.42831 6.23221,-3.18907 l 3.83132,-11.27714 c -0.1748,-2.45126 1.30648,-4.37086 -1.78849,-7.75974 l -3.71091,-3.27021 0.0241,-0.0603 2.8566,2.53357 c 1.98381,0.10437 3.25032,-1.04854 3.94144,-2.78043 0.0565,-0.137 0.0971,-0.28982 0.14597,-0.43481 0.0604,-0.18383 0.12797,-0.35997 0.17681,-0.554 0.0784,-0.30583 0.13595,-0.62946 0.18578,-0.95862 0.008,-0.0566 0.0234,-0.10867 0.031,-0.16578 0.0826,-0.6105 0.10997,-1.25391 0.1013,-1.91189 l 2.45559,0.34834 3.34352,-9.97151 c 0.42146,-2.75833 -0.71755,-4.67104 -2.54955,-6.20814 l -1.74528,-1.37193 0.62014,-1.48743 0.61503,-0.4615 -0.31701,-0.25731 0.53504,-1.2842 c -2.74564,-9.04549 -6.90352,-12.86458 -12.21274,-12.42755 l 0.15735,-0.0587 -9.07871,0.0833 -0.12793,0.30185 -5.94044,-4.67647 10.28272,-25.40753 -2.31912,-2.80041 25.97057,-67.108254 c 0.9252,-1.919676 -0.26201,-4.803558 -2.24397,-7.364607 z m -19.25144,16.529287 -18.31589,43.053696 -2.37665,-1.175787 -2.50214,6.091065 2.45743,-6.111853 2.20673,0.914201 18.53052,-42.771322 z m -32.524792,70.681219 -0.0093,0.0245 c -0.0547,-0.0207 -0.109326,-0.0422 -0.164279,-0.0619 l 0.173672,0.0376 z m -12.76117,31.0686 -3.178438,7.7355 -7.910703,0.58665 -0.137397,-0.11332 7.832409,-0.74664 3.359317,-7.4781 c 0.01217,0.005 0.02294,0.0107 0.03481,0.0159 z"
     id="path4609"
     inkscape:connector-curvature="0"
     style="fill:url(#linearGradient4269);fill-opacity:1;fill-rule:evenodd;stroke:none;stroke-width:0.48300001;stroke-linecap:butt;stroke-linejoin:miter;stroke-opacity:1;filter:url(#filter4443)"
     transform="matrix(1.0325134,0,0,1.0325134,-1.290823,-8.3042902)" />
  <g
     id="g4717"
     transform="matrix(0.36724674,1.0148567,-1.0148567,0.36724674,253.46732,-59.536864)">
    <g
       transform="matrix(-0.37825281,-0.18382333,-0.18382333,0.37825281,309.83218,142.93961)"
       id="g3258">
      <path
         d="m 180.63241,266.40316 192.88537,-85.77075 3.55732,-7.11462 -2.37155,20.55336 -187.74703,83.39921 -6.32411,-11.0672 z"
         id="path3252"
         inkscape:connector-curvature="0"
         style="fill:#303030;fill-opacity:1;fill-rule:evenodd;stroke:#000000;stroke-width:1;stroke-linecap:butt;stroke-linejoin:miter;stroke-opacity:1" />
      <path
         d="m 349.23077,148.46154 c 25.51625,5.43963 32.67824,16.61497 25.38462,32.30769 L 180,266.92308 l 44.61539,78.46154 0,24.61538 -15.69231,6.61538 C 150.58545,338.28745 59.678437,275.20843 122.30769,247.69231 l 226.92308,-99.23077 z"
         id="path2384"
         sodipodi:nodetypes="cccccccc"
         inkscape:connector-curvature="0"
         style="fill:#c40000;fill-opacity:1;fill-rule:evenodd;stroke:#000000;stroke-width:1;stroke-linecap:butt;stroke-linejoin:miter;stroke-opacity:1" />
      <path
         d="m 184.61538,253.84615 -3.84615,13.84616 44.61539,74.61538 -6.93009,3.68249 -6.91607,2.47136 -56.92308,-80.76923 c -6.95885,-11.73921 -1.11573,-12.81012 3.84616,-14.61539 l 13.07692,-6.92307 c 8.91343,-3.50851 9.88,3.57879 13.07692,7.6923 z"
         id="path3156"
         sodipodi:nodetypes="ccccccccc"
         inkscape:connector-curvature="0"
         style="fill:url(#linearGradient4713);fill-opacity:1;fill-rule:evenodd;stroke:#9a1010;stroke-width:1;stroke-linecap:butt;stroke-linejoin:miter;stroke-opacity:1" />
      <path
         d="m 190.76924,218.46154 c -7.8502,6.19216 13.22349,31.20079 21.53846,26.92308 l 7.44617,-7.70071 12.45768,-0.37621 6.67517,-7.70071 13.22867,-0.37622 7.44617,-8.8572 12.45768,0.78028 7.25342,-8.08621 12.65042,0.009 7.06068,-8.27896 12.84317,0.20204 6.09692,-8.47171 13.80693,0.39478 6.67517,-8.27896 13.22867,0.20204 6.48242,-8.08621 13.42143,0.009 -26.15385,-31.53847 -6.77221,7.79642 -12.55471,0.85743 -6.19396,8.18192 -13.13296,0.47192 -6.38672,8.95292 -12.94021,-0.29907 -6.38671,7.98917 -12.94021,0.66468 -6.57946,7.60367 -12.74746,1.05017 -6.57946,7.21817 -12.74747,1.43568 -7.54321,7.02542 -11.78371,1.62842 -7.35046,7.41093 -11.97646,1.24292 z"
         id="path3158"
         sodipodi:nodetypes="ccccccccccccccccccccccccccccccccccc"
         inkscape:connector-curvature="0"
         style="fill:#cfcfcf;fill-opacity:1;fill-rule:evenodd;stroke:#000000;stroke-width:1;stroke-linecap:round;stroke-linejoin:round;stroke-opacity:1" />
      <path
         d="M 455.33334,184 626.66667,113.33333 C 639.85241,106.84296 666.31891,133.10289 652,140 l -163.33333,72.66667 2.32749,5.16959 L 318,292.66667 l -3.33333,18 L 322,319.33333 317.33334,342 l -22,13.33333 L 228,294 238.66667,262.66667 259.33334,253.33333 266,258 280,251.48538 448.99416,179.25147 455.33334,184 Z"
         id="path3160"
         sodipodi:nodetypes="ccccccccccccccccc"
         inkscape:connector-curvature="0"
         style="fill:#006bb7;fill-opacity:1;fill-rule:evenodd;stroke:#000000;stroke-width:1;stroke-linecap:butt;stroke-linejoin:miter;stroke-opacity:1" />
      <path
         d="m 259.74079,253.07411 c -2.66667,0 -20.20373,8.8704 -20.20373,8.8704 l 66.22196,65.09235 15.74078,-7.18511 -61.75901,-66.77764 z"
         id="path3162"
         sodipodi:nodetypes="ccccc"
         inkscape:connector-curvature="0"
         style="fill:url(#linearGradient4705);fill-opacity:1;fill-rule:evenodd;stroke:#686868;stroke-width:1;stroke-linecap:butt;stroke-linejoin:miter;stroke-opacity:1" />
      <path
         d="m 205.8096,218.80143 c -13.56497,7.90845 -2.61995,24.00621 15.28526,16.10122 l 130.53405,-58.96871 c 11.598,-3.24316 1.73344,-20.39269 -15.85081,-13.4113 l -129.9685,56.27879 z"
         id="path3176"
         sodipodi:nodetypes="ccccc"
         inkscape:connector-curvature="0"
         style="fill:url(#linearGradient3195);fill-opacity:1;fill-rule:evenodd;stroke:#000000;stroke-width:1;stroke-linecap:butt;stroke-linejoin:miter;stroke-opacity:1" />
      <path
         sodipodi:nodetypes="ccccc"
         id="path3254"
         d="m 282.91536,259.84326 20,20.34482 160.68966,-70.34482 -17.93104,-17.58621 -162.75862,67.58621 z"
         inkscape:connector-curvature="0"
         style="fill:url(#linearGradient3197);fill-opacity:1;fill-rule:evenodd;stroke:none" />
      <path
         d="m 230,200 8.57392,-1.88901 56.75941,58.55568 c 8.91888,4.38446 14.9405,14.56345 28.66667,9.33333 23.19966,-9.4883 41.14278,-6.28763 53.33333,0 5.1364,2.64925 6.6761,13.89839 -8.66666,18 -10.3872,2.77683 -9.42241,-8.65869 -18.6857,-5.03685 l -12.3147,4.8149 c 4.97931,13.41365 14.06648,20.83396 29.0004,19.55529 l 44,-20.66667 L 418,262 c 1.3147,-9.45921 -1.09778,-17.42755 -8.66667,-23.33333 l -72,-90 C 333.98842,144.79515 329.55473,142.5568 322.66667,144 l -25.33334,9.33334 0.72216,14.62941 39.27784,34.70392 -10.66666,10 -12,-4 -36.66667,-40 C 270.40002,162.26675 265.32339,165.96023 259.33333,166 l -28.66666,10.66667 c -7.11673,3.55369 -9.61296,8.64753 -9.33334,14.66667 l -0.66666,12 L 230,200 Z"
         id="path3164"
         sodipodi:nodetypes="ccccssscccccccccccccccccc"
         inkscape:connector-curvature="0"
         stroke-miterlimit="4"
         style="fill:url(#linearGradient3199);fill-opacity:1;fill-rule:evenodd;stroke:#979797;stroke-width:2.34699988;stroke-linecap:butt;stroke-linejoin:miter;stroke-miterlimit:4;stroke-dasharray:none;stroke-opacity:1" />
      <path
         sodipodi:nodetypes="ccccccccccccccccc"
         id="path3188"
         d="m 230,200 8.57392,-1.88901 56.75941,58.55568 c 8.91888,4.38446 14.9405,14.56345 28.66667,9.33333 23.19966,-9.4883 41.14278,-6.28763 53.33333,0 -13.09962,5.90663 -22.62422,9.46659 -30.59294,13.88903 l 7.99762,10.01189 c 5.31681,4.42256 8.75475,3.85569 14.61039,1.20412 16.09495,-7.19903 18.06382,-10.25802 19.83431,-23.62664 2.12705,-11.40747 -10.11246,-16.23981 -21.3143,-19.16527 -13.76102,-2.91299 -29.59332,0.38785 -45.79468,4.79587 -6.88455,1.48867 -12.45651,-3.58562 -18.14904,-8.05707 -7.59998,-6.39992 -34.43483,-36.03819 -49.68371,-52.66429 -8.88163,-8.31395 -12.47017,-17.12975 -23.57431,-15.72097 -7.11673,3.55369 -9.61296,8.64753 -9.33334,14.66667 l -0.66666,12 L 230,200 Z"
         inkscape:connector-curvature="0"
         style="fill:url(#linearGradient3201);fill-opacity:1;fill-rule:evenodd;stroke:#000000;stroke-width:1;stroke-linecap:butt;stroke-linejoin:miter;stroke-opacity:1" />
      <path
         d="m 279.76319,170.40358 c 0.67685,-13.95146 29.66153,-14.43584 38.27724,-6.49395 9.24298,8.52011 24.89967,26.77479 18.971,39.0786 l -10.63806,9.5302 -11.57353,-4.16647 -35.03665,-37.94838 z"
         id="path3206"
         sodipodi:nodetypes="cscccc"
         inkscape:connector-curvature="0"
         stroke-miterlimit="4"
         style="fill:#595959;fill-opacity:1;fill-rule:evenodd;stroke:#686868;stroke-width:0.40000001;stroke-linecap:butt;stroke-linejoin:miter;stroke-miterlimit:4;stroke-dasharray:none;stroke-opacity:1" />
      <path
         sodipodi:nodetypes="cscccc"
         id="path3208"
         d="m 280.49751,169.66926 c 0.38312,-13.07028 28.92721,-13.70152 37.54292,-5.75963 9.24298,8.52011 24.89967,26.77479 18.971,39.0786 l -10.63806,9.5302 c 0,0 -7.33961,-23.32763 -18.32927,-33.09869 -11.7576,-11.69626 -21.77154,-16.52217 -27.54659,-9.75048 z"
         inkscape:connector-curvature="0"
         stroke-miterlimit="4"
         style="fill:url(#linearGradient3203);fill-opacity:1;fill-rule:evenodd;stroke:#686868;stroke-width:0.40000001;stroke-linecap:butt;stroke-linejoin:miter;stroke-miterlimit:4;stroke-dasharray:none;stroke-opacity:1" />
      <path
         d="m 298.78804,216.06374 c -14.25332,19.73865 26.85248,42.05167 36,24 8.52459,-16.82238 -21.52921,-44.03982 -36,-24 z"
         id="path3166"
         sodipodi:nodetypes="css"
         inkscape:connector-curvature="0"
         style="fill:url(#radialGradient3205);fill-opacity:1;fill-rule:evenodd;stroke:none" />
      <path
         sodipodi:nodetypes="cccccc"
         id="path3218"
         d="M 149.00585,259.90554 210.5803,348.3086 224.61539,370 208.92308,376.61538 C 150.58545,338.28745 59.678437,275.20843 122.30769,247.69231 l 26.69816,12.21323 z"
         inkscape:connector-curvature="0"
         style="fill:url(#radialGradient3207);fill-opacity:1;fill-rule:evenodd;stroke:none" />
      <path
         d="m 239.41117,262.41043 66.47308,64.31136 -10.44834,28.82301 -67.73409,-61.96948 11.70935,-31.16489 z"
         id="path3228"
         inkscape:connector-curvature="0"
         style="fill:url(#linearGradient3209);fill-opacity:1;fill-rule:evenodd;stroke:#626262;stroke-width:1;stroke-linecap:butt;stroke-linejoin:miter;stroke-opacity:1" />
      <path
         d="m 466.55172,186.2069 20,20.34482 160.68966,-70.34482 -17.93104,-17.58621 -162.75862,67.58621 z"
         id="path3238"
         sodipodi:nodetypes="ccccc"
         inkscape:connector-curvature="0"
         style="fill:url(#linearGradient3211);fill-opacity:1;fill-rule:evenodd;stroke:none" />
      <path
         d="m 417.24138,249.31034 73.7931,-31.37931 -1.72414,-4.82758 163.44828,-73.79311 3.44828,-4.48275 -0.68966,8.62069 -163.44827,71.72413 0.34482,8.96552 -74.13793,33.10345 -1.03448,-7.93104 z"
         id="path3248"
         inkscape:connector-curvature="0"
         style="fill:#303030;fill-opacity:1;fill-rule:evenodd;stroke:url(#linearGradient3213);stroke-width:1;stroke-linecap:butt;stroke-linejoin:miter;stroke-opacity:1" />
      <path
         d="m 377.24138,265.86207 -1.03448,13.44827 -54.48276,25.86207 -3.44828,8.96552 -3.44827,-2.75862 3.7931,-18.27586 58.62069,-27.24138 z"
         id="path3250"
         inkscape:connector-curvature="0"
         style="fill:#303030;fill-opacity:1;fill-rule:evenodd;stroke:#000000;stroke-width:1;stroke-linecap:butt;stroke-linejoin:miter;stroke-opacity:1" />
    </g>
    <path
       sodipodi:nodetypes="ccccc"
       inkscape:connector-curvature="0"
       id="path4715"
       d="m 161.65576,231.41914 3.42711,4.51435 -4.03518,10.11594 -3.8965,-4.59703 z"
       style="fill:#c2c2c2;fill-opacity:1;fill-rule:evenodd;stroke:#aba6a6;stroke-width:1;stroke-linecap:butt;stroke-linejoin:round;stroke-opacity:1" />
  </g>
</svg>
