<?xml version="1.0" encoding="UTF-8" standalone="no"?>
<!-- Created with Inkscape (http://www.inkscape.org/) -->
<svg xmlns:a="http://ns.adobe.com/AdobeSVGViewerExtensions/3.0/" xmlns:dc="http://purl.org/dc/elements/1.1/" xmlns:cc="http://creativecommons.org/ns#" xmlns:rdf="http://www.w3.org/1999/02/22-rdf-syntax-ns#" xmlns:svg="http://www.w3.org/2000/svg" xmlns="http://www.w3.org/2000/svg" xmlns:xlink="http://www.w3.org/1999/xlink" xmlns:sodipodi="http://sodipodi.sourceforge.net/DTD/sodipodi-0.dtd" xmlns:inkscape="http://www.inkscape.org/namespaces/inkscape" id="svg2" version="1.1" inkscape:version="0.91 r13725" width="256" height="256" sodipodi:docname="folder-video-war1.svg">
 <metadata id="metadata8">
  <rdf:RDF>
   <cc:Work>
    <dc:format>image/svg+xml</dc:format>
    <dc:type rdf:resource="http://purl.org/dc/dcmitype/StillImage"/>
    <dc:title/>
   </cc:Work>
  </rdf:RDF>
 </metadata>
 <defs id="defs6">
  <linearGradient id="linearGradient4385">
   <stop stop-opacity="0.535" stop-color="#1a485c" id="stop4387"/>
   <stop stop-opacity="0.769" stop-color="#ffffff" id="stop4389" offset="1"/>
  </linearGradient>
  <linearGradient id="linearGradient4379">
   <stop stop-opacity="0.379" stop-color="#1a485c" id="stop4381"/>
   <stop stop-opacity="0.769" stop-color="#ffffff" id="stop4383" offset="1"/>
  </linearGradient>
  <linearGradient id="linearGradient3828">
   <stop id="stop3830" stop-color="#ffffff" stop-opacity="0.486"/>
   <stop id="stop3832" offset="1" stop-color="#286483" stop-opacity="0"/>
  </linearGradient>
  <linearGradient id="linearGradient3906">
   <stop id="stop3908" stop-color="#cedce2" stop-opacity="1"/>
   <stop offset="1" id="stop3910" stop-color="#cedce2" stop-opacity="0"/>
  </linearGradient>
  <linearGradient id="linearGradient3892">
   <stop id="stop3894" stop-color="#1a485c" stop-opacity="0.535"/>
   <stop offset="1" id="stop3896" stop-color="#ffffff" stop-opacity="1"/>
  </linearGradient>
  <linearGradient id="linearGradient3878">
   <stop id="stop3880" stop-color="#cdeaf6" stop-opacity="0.915"/>
   <stop offset="1" id="stop3882" stop-color="#c5e1ed" stop-opacity="0"/>
  </linearGradient>
  <linearGradient id="linearGradient3867">
   <stop id="stop3869" stop-color="#99bbc9" stop-opacity="0.338"/>
   <stop offset="1" id="stop3871" stop-color="#174457" stop-opacity="0"/>
  </linearGradient>
  <linearGradient id="linearGradient3851">
   <stop id="stop3853" stop-color="#123e50" stop-opacity="0.683"/>
   <stop id="stop3861" offset="0.371" stop-color="#c6d7de" stop-opacity="0.749"/>
   <stop id="stop3859" offset="0.716" stop-color="#123e50" stop-opacity="0.782"/>
   <stop offset="1" id="stop3855" stop-color="#c3d4db" stop-opacity="0.099"/>
  </linearGradient>
  <linearGradient id="linearGradient3824">
   <stop id="stop3826" stop-color="#ffffff" stop-opacity="0.838"/>
   <stop id="stop3828" offset="1" stop-color="#70b5d4" stop-opacity="0"/>
  </linearGradient>
  <linearGradient id="linearGradient3815">
   <stop id="stop3817" stop-color="#9fcaff" stop-opacity="0.113"/>
   <stop id="stop3819" offset="1" stop-color="#668dbd" stop-opacity="0"/>
  </linearGradient>
  <linearGradient id="linearGradient3773">
   <stop id="stop3775" stop-color="#70b5d4" stop-opacity="0.838"/>
   <stop offset="1" id="stop3777" stop-color="#70b5d4" stop-opacity="0.275"/>
  </linearGradient>
  <linearGradient id="linearGradient3765">
   <stop id="stop3767" stop-color="#668dbd" stop-opacity="0.353"/>
   <stop offset="1" id="stop3769" stop-color="#668dbd" stop-opacity="0.094"/>
  </linearGradient>
  <linearGradient id="linearGradient3757">
   <stop id="stop3759" stop-color="#ffffff" stop-opacity="1"/>
   <stop offset="1" id="stop3761" stop-color="#286483" stop-opacity="0"/>
  </linearGradient>
  <linearGradient inkscape:collect="always" xlink:href="#linearGradient3867" id="linearGradient3873" x1="227.44" y1="56.22" x2="278.95" y2="54.15" gradientUnits="userSpaceOnUse" spreadMethod="reflect" gradientTransform="matrix(0.82699483,0,0,0.82699483,-171.10818,0.53293058)"/>
  <linearGradient inkscape:collect="always" xlink:href="#linearGradient3878" id="linearGradient3884" x1="289.32" y1="-44.748" x2="264.02" y2="30.14" gradientUnits="userSpaceOnUse" gradientTransform="matrix(0.82310306,0.08013618,0,0.82699483,-170.30296,-15.751576)"/>
  <linearGradient inkscape:collect="always" xlink:href="#linearGradient4379" id="linearGradient3898" x1="364.85" y1="0.77" x2="360.76" y2="-7.507" gradientUnits="userSpaceOnUse" spreadMethod="reflect" gradientTransform="matrix(0.82699483,0,0,0.82699483,-170.30296,-15.751576)"/>
  <linearGradient inkscape:collect="always" xlink:href="#linearGradient3892" id="linearGradient3902" gradientUnits="userSpaceOnUse" spreadMethod="reflect" x1="359.71" y1="-9.786" x2="361.38" y2="-4.093" gradientTransform="matrix(0.82699483,0,0,-0.82699483,-170.51474,161.48411)"/>
  <linearGradient inkscape:collect="always" xlink:href="#linearGradient3906" id="linearGradient3912" x1="317.98" y1="-13.08" x2="359.28" y2="-16.12" gradientUnits="userSpaceOnUse" spreadMethod="reflect" gradientTransform="matrix(0.82699483,0,0,0.82699483,-170.30296,-15.751576)"/>
  <linearGradient inkscape:collect="always" xlink:href="#linearGradient3906" id="linearGradient3916" gradientUnits="userSpaceOnUse" spreadMethod="reflect" x1="317.98" y1="-13.08" x2="359.28" y2="-16.12" gradientTransform="matrix(0.82699483,0,0,0.82699483,-170.30296,173.55271)"/>
  <linearGradient inkscape:collect="always" xlink:href="#linearGradient3828" id="linearGradient3858" gradientUnits="userSpaceOnUse" gradientTransform="translate(-69.456067,-43.096235)" spreadMethod="reflect" x1="61.93" y1="10.421" x2="63.37" y2="6.578"/>
  <linearGradient inkscape:collect="always" xlink:href="#linearGradient4385" id="linearGradient3127" gradientUnits="userSpaceOnUse" gradientTransform="matrix(0.82699483,0,0,0.82699483,-170.30296,-15.751576)" spreadMethod="reflect" x1="364.04" y1="0.636" x2="360.19" y2="-5.81"/>
  <linearGradient inkscape:collect="always" xlink:href="#linearGradient3906" id="linearGradient3129" gradientUnits="userSpaceOnUse" gradientTransform="matrix(0.82699483,0,0,0.82699483,-170.30296,-15.751576)" spreadMethod="reflect" x1="290.73" y1="-13.14" x2="330.8" y2="-13.995"/>
  <linearGradient id="linearGradient3578">
   <stop id="stop3580" stop-color="#000000" stop-opacity="1"/>
   <stop offset="1" id="stop3582" stop-color="#fffcfc" stop-opacity="1"/>
  </linearGradient>
  <linearGradient inkscape:collect="always" xlink:href="#linearGradient3578" id="linearGradient4078" gradientUnits="userSpaceOnUse" spreadMethod="reflect" x1="13.515" y1="-7.475" x2="16.09" y2="-7.475"/>
  <linearGradient inkscape:collect="always" xlink:href="#linearGradient3578" id="linearGradient4088" gradientUnits="userSpaceOnUse" spreadMethod="reflect" x1="16.691" y1="-10.978" x2="16.09" y2="-7.475"/>
  <linearGradient inkscape:collect="always" xlink:href="#linearGradient3578" id="linearGradient4100" gradientUnits="userSpaceOnUse" spreadMethod="reflect" x1="12.04" y1="-11.587" x2="8.696" y2="-2.688"/>
  <linearGradient inkscape:collect="always" xlink:href="#linearGradient3578" id="linearGradient4102" gradientUnits="userSpaceOnUse" spreadMethod="reflect" x1="10.621" y1="-6.409" x2="16.09" y2="-7.475"/>
  <linearGradient inkscape:collect="always" xlink:href="#linearGradient3578" id="linearGradient4104" gradientUnits="userSpaceOnUse" spreadMethod="reflect" x1="15.65" y1="-2.21" x2="16.09" y2="-7.475"/>
  <linearGradient inkscape:collect="always" xlink:href="#linearGradient3578" id="linearGradient4108" gradientUnits="userSpaceOnUse" spreadMethod="reflect" x1="16.387" y1="-11.391" x2="11.132" y2="-11.199"/>
  <linearGradient inkscape:collect="always" xlink:href="#linearGradient3578" id="linearGradient4128" gradientUnits="userSpaceOnUse" spreadMethod="reflect" x1="13.515" y1="-7.475" x2="17.07" y2="-8.02"/>
  <linearGradient inkscape:collect="always" xlink:href="#linearGradient3578" id="linearGradient4132" gradientUnits="userSpaceOnUse" spreadMethod="reflect" x1="16.387" y1="-5.908" x2="17.747" y2="-6.953"/>
  <linearGradient inkscape:collect="always" xlink:href="#linearGradient3578" id="linearGradient4134" gradientUnits="userSpaceOnUse" spreadMethod="reflect" x1="12.906" y1="-10.151" x2="11.372" y2="-5.778"/>
  <linearGradient inkscape:collect="always" xlink:href="#linearGradient3578" id="linearGradient4140" gradientUnits="userSpaceOnUse" spreadMethod="reflect" x1="16.909" y1="-5.212" x2="18.617" y2="-6.583"/>
  <linearGradient inkscape:collect="always" xlink:href="#linearGradient3578" id="linearGradient4142" gradientUnits="userSpaceOnUse" spreadMethod="reflect" x1="15.582" y1="-6.256" x2="17.377" y2="-1.992"/>
  <linearGradient inkscape:collect="always" xlink:href="#linearGradient3578" id="linearGradient4144" gradientUnits="userSpaceOnUse" spreadMethod="reflect" x1="17.08" y1="-2.275" x2="14.94" y2="-3.733"/>
  <linearGradient inkscape:collect="always" xlink:href="#linearGradient3578" id="linearGradient4146" gradientUnits="userSpaceOnUse" spreadMethod="reflect" x1="7.771" y1="-3.754" x2="12.916" y2="-4.516"/>
  <linearGradient inkscape:collect="always" xlink:href="#linearGradient3578" id="linearGradient4148" gradientUnits="userSpaceOnUse" spreadMethod="reflect" x1="11.187" y1="-5.887" x2="9.718" y2="-1.513"/>
  <linearGradient inkscape:collect="always" xlink:href="#linearGradient3757" id="linearGradient3662" gradientUnits="userSpaceOnUse" gradientTransform="matrix(0.82699483,0,0,-0.82699483,-106.37695,393.98956)" spreadMethod="reflect" x1="229.62" y1="253.18" x2="266.18" y2="254.22"/>
  <linearGradient inkscape:collect="always" xlink:href="#linearGradient3757" id="linearGradient3664" gradientUnits="userSpaceOnUse" gradientTransform="matrix(-0.82002201,-0.10716502,0.10716502,-0.82002201,367.07244,422.46474)" spreadMethod="reflect" x1="226.48" y1="251.92" x2="249.45" y2="252.55"/>
  <linearGradient inkscape:collect="always" xlink:href="#linearGradient3765" id="linearGradient3666" gradientUnits="userSpaceOnUse" x1="17.757" y1="183.53" x2="17.757" y2="256.25"/>
  <linearGradient inkscape:collect="always" xlink:href="#linearGradient3773" id="linearGradient3668" gradientUnits="userSpaceOnUse" x1="66.09" y1="264.77" x2="67.09" y2="173.91"/>
  <linearGradient inkscape:collect="always" xlink:href="#linearGradient3851" id="linearGradient3670" gradientUnits="userSpaceOnUse" gradientTransform="matrix(0.82699483,0,0,0.82699483,-100.84689,27.344659)" spreadMethod="reflect" x1="218.43" y1="236.06" x2="354.07" y2="234.6"/>
  <linearGradient inkscape:collect="always" xlink:href="#linearGradient3757" id="linearGradient3674" gradientUnits="userSpaceOnUse" gradientTransform="matrix(0.82699483,0,0,0.60822815,-100.84689,80.374138)" spreadMethod="reflect" x1="226.48" y1="251.92" x2="249.45" y2="252.55"/>
  <linearGradient inkscape:collect="always" xlink:href="#linearGradient3757" id="linearGradient3676" gradientUnits="userSpaceOnUse" gradientTransform="matrix(-0.82699483,0,0,0.6334491,365.06232,74.617591)" spreadMethod="reflect" x1="229.62" y1="253.18" x2="266.18" y2="254.22"/>
  <radialGradient inkscape:collect="always" xlink:href="#linearGradient3815" id="radialGradient3678" gradientUnits="userSpaceOnUse" gradientTransform="matrix(1,0,0,0.28322862,0,157.8256)" spreadMethod="reflect" cx="-39.669" cy="149.73" fx="-39.669" fy="149.73" r="126.76"/>
  <linearGradient inkscape:collect="always" xlink:href="#linearGradient3824" id="linearGradient3682" gradientUnits="userSpaceOnUse" gradientTransform="matrix(0.82699483,0,0,0.862037,114.19173,14.733697)" spreadMethod="reflect" x1="66.09" y1="264.77" x2="144.1" y2="234.13"/>
  <linearGradient id="linearGradient3134" inkscape:collect="always">
   <stop id="stop3136" stop-color="#000000" stop-opacity="1"/>
   <stop id="stop3138" offset="1" stop-color="#ffffff" stop-opacity="1"/>
  </linearGradient>
  <linearGradient inkscape:collect="always" id="linearGradient2851">
   <stop id="stop2853" stop-color="black" stop-opacity="1"/>
   <stop offset="1" id="stop2855" stop-color="black" stop-opacity="0"/>
  </linearGradient>
  <linearGradient id="linearGradient4738" inkscape:collect="always">
   <stop id="stop4740" stop-color="#6d7d81" stop-opacity="1"/>
   <stop id="stop4742" offset="1" stop-color="#000000" stop-opacity="1"/>
  </linearGradient>
  <linearGradient id="linearGradient4732">
   <stop id="stop4734" stop-color="#000000" stop-opacity="1"/>
   <stop offset="1" id="stop4736" stop-color="#3e565c" stop-opacity="1"/>
  </linearGradient>
  <linearGradient id="linearGradient4726">
   <stop id="stop4728" stop-color="#355b66" stop-opacity="1"/>
   <stop id="stop4730" offset="1" stop-color="#000000" stop-opacity="1"/>
  </linearGradient>
  <linearGradient id="linearGradient4720">
   <stop id="stop4722" stop-color="#4492a9" stop-opacity="1"/>
   <stop offset="1" id="stop4724" stop-color="#000000" stop-opacity="1"/>
  </linearGradient>
  <linearGradient id="linearGradient6701" inkscape:collect="always">
   <stop id="stop6703" stop-color="#f9aa77" stop-opacity="0.58"/>
   <stop id="stop6705" offset="1" stop-color="#462007" stop-opacity="0.512"/>
  </linearGradient>
  <linearGradient inkscape:collect="always" id="linearGradient6678">
   <stop id="stop6680" stop-color="black" stop-opacity="1"/>
   <stop offset="1" id="stop6682" stop-color="#c8c5c5" stop-opacity="1"/>
  </linearGradient>
  <linearGradient inkscape:collect="always" id="linearGradient6672">
   <stop id="stop6674" stop-color="black" stop-opacity="1"/>
   <stop offset="1" id="stop6676" stop-color="#cdc6c6" stop-opacity="1"/>
  </linearGradient>
  <linearGradient inkscape:collect="always" id="linearGradient6660">
   <stop id="stop6662" stop-color="#462007" stop-opacity="1"/>
   <stop offset="1" id="stop6664" stop-color="#eeceb7" stop-opacity="1"/>
  </linearGradient>
  <linearGradient id="linearGradient6624" inkscape:collect="always">
   <stop id="stop6626" stop-color="#4091a7" stop-opacity="1"/>
   <stop id="stop6628" offset="1" stop-color="#51808c" stop-opacity="0"/>
  </linearGradient>
  <linearGradient id="linearGradient2880-2">
   <stop id="stop2882-0" stop-color="#7a4102" stop-opacity="1"/>
   <stop offset="1" id="stop2884-2" stop-color="#ffe0bf" stop-opacity="1"/>
  </linearGradient>
  <linearGradient id="linearGradient2835-8">
   <stop id="stop2837-9" stop-color="#7b7b8f" stop-opacity="1"/>
   <stop offset="1" id="stop2839-7" stop-color="#000000" stop-opacity="1"/>
  </linearGradient>
  <linearGradient y2="68.948" x2="441.9" y1="157.39" x1="441.32" spreadMethod="reflect" gradientTransform="matrix(-0.00455572,-1.097111,-0.5016495,0.00208312,186.64436,586.11592)" gradientUnits="userSpaceOnUse" id="linearGradient6653" xlink:href="#linearGradient6660" inkscape:collect="always"/>
  <linearGradient y2="46.839" x2="90.99" y1="121.42" x1="166.64" gradientTransform="matrix(-0.8283793,-0.796695,-0.796695,0.8283793,307.06059,120.82528)" gradientUnits="userSpaceOnUse" id="linearGradient6655" xlink:href="#linearGradient6672" inkscape:collect="always"/>
  <linearGradient y2="67.68" x2="441.34" y1="157.39" x1="441.32" spreadMethod="reflect" gradientTransform="matrix(-0.00455572,-1.097111,-0.5016495,0.00208312,186.15294,603.60655)" gradientUnits="userSpaceOnUse" id="linearGradient6668" xlink:href="#linearGradient6660" inkscape:collect="always"/>
  <linearGradient y2="46.839" x2="90.99" y1="121.42" x1="166.64" gradientTransform="matrix(-0.8283793,-0.796695,-0.796695,0.8283793,306.56917,138.31591)" gradientUnits="userSpaceOnUse" id="linearGradient6670" xlink:href="#linearGradient6678" inkscape:collect="always"/>
  <linearGradient y2="75.13" x2="378.89" y1="171.72" x1="375.08" spreadMethod="reflect" gradientTransform="matrix(-0.00455572,-1.097111,-0.5016495,0.00208312,186.26456,592.85148)" gradientUnits="userSpaceOnUse" id="linearGradient6694" xlink:href="#linearGradient2880-2" inkscape:collect="always"/>
  <linearGradient spreadMethod="reflect" gradientUnits="userSpaceOnUse" y2="226.73" x2="129.05" y1="232.51" x1="129.05" id="linearGradient6707" xlink:href="#linearGradient6701" inkscape:collect="always"/>
  <filter id="filter6880" inkscape:collect="always">
   <feGaussianBlur id="feGaussianBlur6882" inkscape:collect="always"/>
  </filter>
  <linearGradient y2="59.824" x2="209.26" y1="59.824" x1="109.82" gradientTransform="matrix(-0.8283793,-0.796695,-0.796695,0.8283793,305.99205,119.38936)" gradientUnits="userSpaceOnUse" id="linearGradient6921" xlink:href="#linearGradient2851" inkscape:collect="always"/>
  <linearGradient y2="166.81" x2="120.29" y1="105.33" x1="51.27" gradientTransform="matrix(-0.8283793,-0.796695,-0.796695,0.8283793,305.99205,118.71368)" gradientUnits="userSpaceOnUse" id="linearGradient6925" xlink:href="#linearGradient3134" inkscape:collect="always"/>
  <radialGradient r="57.15" fy="32.801" fx="62.993" cy="32.801" cx="62.993" gradientTransform="matrix(0.04880238,1.9044172,-0.9998259,0.02562143,175.91516,-105.56527)" gradientUnits="userSpaceOnUse" id="radialGradient6931" xlink:href="#linearGradient6624" inkscape:collect="always"/>
  <linearGradient y2="29.02" x2="137.48" y1="75.61" x1="194.21" gradientTransform="matrix(-0.8283793,-0.796695,-0.796695,0.8283793,306.62019,119.58521)" gradientUnits="userSpaceOnUse" id="linearGradient6933" xlink:href="#linearGradient3134" inkscape:collect="always"/>
  <linearGradient inkscape:collect="always" xlink:href="#linearGradient2828" id="linearGradient2842" x1="126.47" y1="104.19" x2="134.83" y2="104.19" gradientUnits="userSpaceOnUse"/>
  <linearGradient id="linearGradient2762">
   <stop id="stop2764" stop-color="#000000" stop-opacity="1"/>
   <stop offset="1" id="stop2766" stop-color="#004f67" stop-opacity="1"/>
  </linearGradient>
  <linearGradient id="linearGradient2807">
   <stop id="stop2809" stop-color="#000000" stop-opacity="1"/>
   <stop id="stop2811" offset="1" stop-color="#7c8f94" stop-opacity="1"/>
  </linearGradient>
  <linearGradient inkscape:collect="always" id="linearGradient2828">
   <stop id="stop2830" stop-color="#6c929d" stop-opacity="1"/>
   <stop offset="1" id="stop2832" stop-color="#1f4550" stop-opacity="1"/>
  </linearGradient>
  <linearGradient id="linearGradient2804">
   <stop id="stop2806" stop-color="#366979" stop-opacity="0"/>
   <stop offset="1" id="stop2808" stop-color="#000000" stop-opacity="1"/>
  </linearGradient>
  <linearGradient gradientTransform="translate(247.6021,61.630022)" y2="71.13" x2="242.17" y1="78.56" x1="242.17" spreadMethod="reflect" gradientUnits="userSpaceOnUse" id="linearGradient4685" xlink:href="#linearGradient4720" inkscape:collect="always"/>
  <linearGradient y2="16.16" x2="341.85" y1="109.61" x1="417.27" gradientTransform="matrix(0.664557,-0.685268,0.313336,0.303866,38.50326,436.10413)" gradientUnits="userSpaceOnUse" id="linearGradient4693" xlink:href="#linearGradient4738" inkscape:collect="always"/>
  <linearGradient y2="153.12" x2="318.26" y1="153.12" x1="239.35" gradientTransform="translate(19.5825,64.922752)" gradientUnits="userSpaceOnUse" id="linearGradient4696" xlink:href="#linearGradient4732" inkscape:collect="always"/>
  <linearGradient y2="102.17" x2="134.77" y1="99.03" x1="101.86" gradientTransform="translate(238.54905,57.606446)" gradientUnits="userSpaceOnUse" id="linearGradient4699" xlink:href="#linearGradient4726" inkscape:collect="always"/>
  <linearGradient y2="85.18" x2="308.85" y1="81.52" x1="301.01" spreadMethod="reflect" gradientTransform="translate(19.5825,64.922752)" gradientUnits="userSpaceOnUse" id="linearGradient4704" xlink:href="#linearGradient2807" inkscape:collect="always"/>
  <linearGradient gradientTransform="translate(247.6021,61.630022)" y2="111.12" x2="172.54" y1="87.9" x1="172.54" gradientUnits="userSpaceOnUse" id="linearGradient4707" xlink:href="#linearGradient2762" inkscape:collect="always"/>
  <linearGradient y2="78.39" x2="454.66" y1="78.39" x1="445.77" spreadMethod="reflect" gradientTransform="translate(-310.8218,-552.62764)" gradientUnits="userSpaceOnUse" id="linearGradient4710" xlink:href="#linearGradient2762" inkscape:collect="always"/>
  <linearGradient y2="60.64" x2="441.57" y1="157.39" x1="441.32" spreadMethod="reflect" gradientTransform="matrix(0.954583,0,0,1.089296,-51.9481,62.34634)" gradientUnits="userSpaceOnUse" id="linearGradient4715" xlink:href="#linearGradient2807" inkscape:collect="always"/>
  <radialGradient r="14.169" fy="109.98" fx="358.04" cy="109.98" cx="358.04" gradientTransform="matrix(-1.700802,0.331947,-0.188055,-0.963539,1007.2476,162.11072)" gradientUnits="userSpaceOnUse" id="radialGradient4762" xlink:href="#linearGradient2835-8" inkscape:collect="always"/>
  <radialGradient r="18.58" fy="120.68" fx="138.81" cy="120.68" cx="138.81" gradientTransform="matrix(1,0,0,0.917346,247.6021,71.604308)" gradientUnits="userSpaceOnUse" id="radialGradient4782" xlink:href="#linearGradient2804" inkscape:collect="always"/>
  <filter id="filter4881" inkscape:collect="always">
   <feGaussianBlur id="feGaussianBlur4883" stdDeviation="1.95641" inkscape:collect="always"/>
  </filter>
 </defs>
 <sodipodi:namedview pagecolor="#ffffff" bordercolor="#666666" borderopacity="1" objecttolerance="10" gridtolerance="10" guidetolerance="10" inkscape:pageopacity="0" inkscape:pageshadow="2" inkscape:window-width="1920" inkscape:window-height="1057" id="namedview4" showgrid="false" inkscape:zoom="3.3984375" inkscape:cx="179.38527" inkscape:cy="128" inkscape:window-x="-2" inkscape:window-y="-5" inkscape:window-maximized="1" inkscape:current-layer="svg2"/>
 <g id="g3846" transform="matrix(1.0183153,0.03112447,-0.03112447,1.0183153,-7.2201779,-7.4318568)">
  <path sodipodi:nodetypes="ccccc" inkscape:connector-curvature="0" id="path3807" d="m 54.736434,189.87309 c 11.34321,-2.98591 45.458516,-11.09467 58.887356,-9.85865 l -0.88646,-4.41695 c -12.71639,0.16462 -45.30945,4.76633 -58.433689,9.79607 z" opacity="0.6" fill="url(#linearGradient3662)" stroke="none" fill-opacity="1"/>
  <path d="m 225.18456,193.8499 c -10.99552,-4.57681 -21.97894,-7.51195 -35.15989,-9.58669 l 1.51764,-4.32005 c 13.50116,1.50274 24.01737,6.30605 34.7842,10.30907 z" id="path3803" inkscape:connector-curvature="0" sodipodi:nodetypes="ccccc" fill="url(#linearGradient3664)" stroke="none" fill-opacity="1"/>
  <path sodipodi:nodetypes="ccccc" inkscape:connector-curvature="0" id="path3781" d="m 29.95332,202.76883 0.295954,6.78299 c 17.429155,-41.66727 194.671716,-41.85651 208.155156,0 l -0.29595,-6.50171 C 231.10287,165.65974 39.311097,165.15265 29.95332,202.76883 z" fill="#7b97c2" stroke="none" fill-opacity="0.332"/>
  <path transform="matrix(0.82699483,0,0,0.862037,115.18046,19.830364)" d="M 150.34451,220.18959 A 125.78035,34.922543 0 0 1 24.564161,255.11213 125.78035,34.922543 0 0 1 -101.21619,220.18959 125.78035,34.922543 0 0 1 24.564161,185.26705 125.78035,34.922543 0 0 1 150.34451,220.18959 Z" sodipodi:ry="34.922543" sodipodi:rx="125.78035" sodipodi:cy="220.18959" sodipodi:cx="24.564161" id="path3755" sodipodi:type="arc" stroke-opacity="0.427" stroke-dasharray="none" fill="url(#linearGradient3666)" stroke="url(#linearGradient3668)" fill-opacity="1" stroke-width="1.959" stroke-miterlimit="4"/>
  <path d="m 29.982648,213.06881 0.06684,-8.22029 c 13.101763,40.12356 195.926662,39.62893 207.496412,1.43728 l 0.59191,6.50172 C 231.1322,250.1779 39.340425,250.68498 29.982648,213.06881 z" id="path3783" inkscape:connector-curvature="0" sodipodi:nodetypes="ccccc" fill="url(#linearGradient3670)" stroke="none" fill-opacity="1"/>
  <path sodipodi:type="arc" id="path3785" sodipodi:cx="24.564161" sodipodi:cy="220.18959" sodipodi:rx="125.78035" sodipodi:ry="34.922543" d="M 150.34451,220.18959 A 125.78035,34.922543 0 0 1 24.564161,255.11213 125.78035,34.922543 0 0 1 -101.21619,220.18959 125.78035,34.922543 0 0 1 24.564161,185.26705 125.78035,34.922543 0 0 1 150.34451,220.18959 Z" transform="matrix(0.82699483,0,0,0.88958816,114.51701,13.92547)" stroke-opacity="0.427" stroke-dasharray="none" fill="none" stroke="url(#linearGradient3668)" stroke-width="1.959" stroke-miterlimit="4"/>
  <path sodipodi:nodetypes="ccccc" inkscape:connector-curvature="0" id="path3789" d="m 68.008438,227.80985 c 11.495889,2.2898 23.526195,5.87838 36.864872,6.13522 l -0.34601,4.77863 c -13.505206,-0.50428 -25.079598,-2.40682 -35.68238,-5.02282 z" fill="url(#linearGradient3674)" stroke="none" fill-opacity="1"/>
  <path d="m 203.81933,227.63684 c -11.34321,2.11718 -44.49242,8.05513 -57.98607,6.59676 l -0.14445,5.49147 c 12.95907,0.45089 46.3116,-4.40142 58.37491,-7.44429 z" id="path3799" inkscape:connector-curvature="0" sodipodi:nodetypes="ccccc" fill="url(#linearGradient3676)" stroke="none" fill-opacity="1"/>
  <path sodipodi:type="arc" id="path3811" sodipodi:cx="24.564161" sodipodi:cy="220.18959" sodipodi:rx="125.78035" sodipodi:ry="34.922543" d="M 150.34451,220.18959 A 125.78035,34.922543 0 0 1 24.564161,255.11213 125.78035,34.922543 0 0 1 -101.21619,220.18959 125.78035,34.922543 0 0 1 24.564161,185.26705 125.78035,34.922543 0 0 1 150.34451,220.18959 Z" transform="matrix(0.82699483,0,0,0.862037,114.12171,14.436903)" stroke-opacity="0.427" stroke-dasharray="none" fill="url(#radialGradient3678)" stroke="url(#linearGradient3668)" fill-opacity="1" stroke-width="1.959" stroke-miterlimit="4"/>
  <path sodipodi:nodetypes="csc" inkscape:connector-curvature="0" id="path3821" d="m 238.52586,204.54527 c 0,16.62627 -46.5712,30.10452 -104.0197,30.10452 -57.448495,0 -104.019702,-13.47825 -104.019702,-30.10452" stroke-opacity="0.427" stroke-dasharray="none" fill="none" stroke="url(#linearGradient3682)" stroke-width="0.827" stroke-miterlimit="4"/>
 </g>
 <g id="g3834" transform="matrix(1.164241,0,0,1.0187909,48.524622,43.413982)">
  <path sodipodi:nodetypes="ccccc" inkscape:connector-curvature="0" id="path3818" d="m -10.608435,-28.051268 2.6421394,-1.321069 c 0.54708,-2.31697 2.2015587,-4.950025 6.7254437,-6.32512 -3.306454,0.186674 -5.2210137,1.437738 -6.7254437,3.00243 -1.981169,1.479141 -2.3319794,3.06018 -2.6421394,4.643759 z" fill="url(#linearGradient3858)" stroke="none" fill-opacity="1"/>
  <path d="m -4.6652759,154.85567 3.312751,-1.37079 128.1692849,12.33714 -4.45508,1.14235 z" id="path3914" inkscape:connector-curvature="0" opacity="0.771" fill="url(#linearGradient3916)" stroke="none" fill-opacity="1"/>
  <path d="m 121.93103,167.40254 c 3.22056,1.30219 7.76972,-3.23263 8.1687,-6.41288 l 3.01979,-2.24417 c 0.63231,4.07648 -2.777,8.03896 -7.56896,9.56853 z" id="path3900" inkscape:connector-curvature="0" sodipodi:nodetypes="ccccc" fill="url(#linearGradient3902)" stroke="none" fill-opacity="1"/>
  <rect transform="matrix(0.99529408,0.09690046,0,1,0,0)" ry="7.847" y="-36.518" x="-10.624" height="189.54" width="141.62" id="rect3863" opacity="0.6" stroke-opacity="0.427" stroke-dasharray="none" fill="#123e50" stroke="#b6ccd6" fill-opacity="0.473" stroke-width="1.658" stroke-miterlimit="4" rx="7.847"/>
  <path d="m -10.438287,-28.064586 3.8367514,-1.918377 -1.278914,173.932763 -3.1972864,2.77098 z" id="path3888" inkscape:connector-curvature="0" sodipodi:nodetypes="ccccc" fill="#204757" stroke="none" fill-opacity="0.585"/>
  <rect id="rect3865" width="141.62" height="189.54" x="-11.295" y="-33.755" ry="7.847" transform="matrix(0.99529408,0.09690046,0,1,0,0)" opacity="0.6" stroke-opacity="0.427" stroke-dasharray="none" fill="url(#linearGradient3873)" stroke="#b6ccd6" fill-opacity="1" stroke-width="1.658" stroke-miterlimit="4" rx="7.847"/>
  <path sodipodi:nodetypes="sssccss" inkscape:connector-curvature="0" id="rect3875" d="M -3.4318059,-33.792685 121.89858,-21.590691 c 4.327,0.42127 7.81046,4.260354 7.81046,8.607811 l 0,90.848605 C 54.589503,-16.357873 19.503097,-2.6350023 -11.242272,22.793157 l 0,-49.498863 c 0,-4.347457 3.4834714,-7.508249 7.8104661,-7.086979 z" opacity="0.6" fill="url(#linearGradient3884)" stroke="none" fill-opacity="1"/>
  <path sodipodi:nodetypes="ccccc" inkscape:connector-curvature="0" id="path3886" d="m 130.02946,-14.635954 3.83676,-1.918377 -0.63946,175.424831 -3.19729,2.13152 z" fill="#204757" stroke="none" fill-opacity="0.418"/>
  <path sodipodi:nodetypes="ccccc" inkscape:connector-curvature="0" id="path3890" d="m 122.14281,-21.67 c 3.22057,-1.302188 7.50991,3.846574 7.90889,7.026833 l 3.60704,-1.800998 c -0.28018,-2.408813 -2.44367,-6.621523 -6.82657,-7.144211 z" fill="url(#linearGradient3898)" stroke="none" fill-opacity="1"/>
  <path inkscape:connector-curvature="0" id="path3904" d="m -4.6652759,-34.448618 3.312751,-1.370794 128.1692849,12.33715 -4.45508,1.142328 z" fill="url(#linearGradient3912)" stroke="none" fill-opacity="1"/>
 </g>
 <g inkscape:label="1. réteg" id="layer1" transform="translate(-1.3131233,-0.17120144)">
  <g id="g2637">
   <g id="g3612" transform="translate(-2.5722563,0)">
    <g id="g2650" fill="url(#linearGradient4078)" font-family="Bitstream Vera Sans" stroke="none" font-style="normal" fill-opacity="1" font-weight="normal" font-size="12">
     <path inkscape:connector-curvature="0" id="path2652" d="m 16.1875,-12.21875 -4.09375,0.03125 0.707107,0.707107 4.09375,-0.03125 -0.707107,-0.707107 z" fill="url(#linearGradient4078)" fill-opacity="1"/>
     <path inkscape:connector-curvature="0" id="path2654" d="M 12.09375,-12.1875 8.75,-3.4375 9.4571068,-2.7303932 12.800857,-11.480393 12.09375,-12.1875 z" fill="url(#linearGradient4078)" fill-opacity="1"/>
     <path inkscape:connector-curvature="0" id="path2662" d="m 14.75,-5.6875 0.78125,2.21875 0.707107,0.7071068 -0.78125,-2.21875 L 14.75,-5.6875 z" fill="url(#linearGradient4078)" fill-opacity="1"/>
     <path inkscape:connector-curvature="0" id="path2664" d="m 15.53125,-3.46875 0,0.03125 0.707107,0.7071068 0,-0.03125 L 15.53125,-3.46875 z" fill="url(#linearGradient4078)" fill-opacity="1"/>
     <path inkscape:connector-curvature="0" id="path2672" d="m 17.92037,-11.519527 c -0.441567,-0.441567 -1.023884,-0.714237 -1.73287,-0.699223 l 0.707107,0.707107 c 0.708986,-0.01501 1.291302,0.257655 1.73287,0.699223 l -0.707107,-0.707107 z" fill="url(#linearGradient4078)" fill-opacity="1"/>
     <path inkscape:connector-curvature="0" id="path2674" d="m 16.21875,-11.96875 c 0.599616,0.0028 1.098445,0.242806 1.481471,0.625832 l 0.707107,0.707107 c -0.383026,-0.383026 -0.881855,-0.623021 -1.481471,-0.625832 L 16.21875,-11.96875 z" fill="url(#linearGradient4088)" fill-opacity="1"/>
     <path inkscape:connector-curvature="0" id="path2676" d="m 17.700221,-11.342918 c 1.561455,1.5614549 1.198394,5.4999287 -2.106471,5.436668 l 0.707107,0.7071068 c 3.304865,0.063261 3.667926,-3.8752131 2.106471,-5.4366678 l -0.707107,-0.707107 z" fill="url(#linearGradient4078)" fill-opacity="1"/>
     <path inkscape:connector-curvature="0" id="path2678" d="m 15.59375,-5.90625 0.78125,2.1875 0.707107,0.7071068 -0.78125,-2.1875 L 15.59375,-5.90625 z" fill="url(#linearGradient4078)" fill-opacity="1"/>
     <path inkscape:connector-curvature="0" id="path2680" d="m 16.375,-3.71875 -0.65625,0 0.707107,0.7071068 0.65625,0 L 16.375,-3.71875 z" fill="url(#linearGradient4078)" fill-opacity="1"/>
     <path inkscape:connector-curvature="0" id="path2684" d="m 14.875,-5.96875 -4.3125,0 0.707107,0.7071068 4.3125,0 L 14.875,-5.96875 z" fill="url(#linearGradient4078)" fill-opacity="1"/>
     <path inkscape:connector-curvature="0" id="path2686" d="M 10.5625,-5.96875 9.75,-3.75 l 0.707107,0.7071068 0.8125,-2.21875 L 10.5625,-5.96875 z" fill="url(#linearGradient4078)" fill-opacity="1"/>
     <path inkscape:connector-curvature="0" id="path2690" d="m 9.1875,-3.75 3.09375,-8.15625 0.707107,0.707107 L 9.8946068,-3.0428932 9.1875,-3.75 z" fill="url(#linearGradient4100)" fill-opacity="1"/>
     <path inkscape:connector-curvature="0" id="path2660" d="m 10.8125,-5.6875 3.9375,0 0.707107,0.7071068 -3.9375,0 L 10.8125,-5.6875 z" fill="url(#linearGradient4102)" fill-opacity="1"/>
     <path inkscape:connector-curvature="0" id="path2682" d="m 15.71875,-3.71875 -0.84375,-2.25 0.707107,0.7071068 0.84375,2.25 L 15.71875,-3.71875 z" fill="url(#linearGradient4104)" fill-opacity="1"/>
     <path inkscape:connector-curvature="0" id="path2688" d="m 9.75,-3.75 -0.5625,0 0.7071068,0.7071068 0.5625002,0 L 9.75,-3.75 z" fill="url(#linearGradient4078)" fill-opacity="1"/>
     <path inkscape:connector-curvature="0" id="path2692" d="m 12.28125,-11.90625 3.9375,-0.0625 0.707107,0.707107 -3.9375,0.0625 -0.707107,-0.707107 z" fill="url(#linearGradient4108)" fill-opacity="1"/>
     <path inkscape:connector-curvature="0" id="path2694" d="m 13.59375,-11.375 1.84375,4.9375 0.707107,0.7071068 -1.84375,-4.9374998 L 13.59375,-11.375 z" fill="url(#linearGradient4078)" fill-opacity="1"/>
     <path inkscape:connector-curvature="0" id="path2698" d="M 17.29651,-10.694689 C 16.87154,-11.11966 16.292483,-11.392236 15.59375,-11.375 l 0.707107,0.707107 c 0.698733,-0.01724 1.277789,0.255339 1.70276,0.6803104 L 17.29651,-10.694689 z" fill="url(#linearGradient4078)" fill-opacity="1"/>
     <path inkscape:connector-curvature="0" id="path2700" d="m 15.59375,-11.375 -2,0 0.707107,0.707107 2,0 L 15.59375,-11.375 z" fill="url(#linearGradient4078)" fill-opacity="1"/>
     <path inkscape:connector-curvature="0" id="path2702" d="m 12.5,-11.25 -1.78125,4.875 0.707107,0.7071068 1.78125,-4.8749998 L 12.5,-11.25 z" fill="url(#linearGradient4078)" fill-opacity="1"/>
     <path inkscape:connector-curvature="0" id="path2704" d="m 10.71875,-6.375 4,0.0625 0.707107,0.7071068 -4,-0.0625 L 10.71875,-6.375 z" fill="url(#linearGradient4078)" fill-opacity="1"/>
     <path inkscape:connector-curvature="0" id="path2706" d="m 14.71875,-6.3125 -1.75,-4.9375 0.707107,0.707107 1.75,4.9374998 L 14.71875,-6.3125 z" fill="url(#linearGradient4078)" fill-opacity="1"/>
     <path inkscape:connector-curvature="0" id="path2708" d="m 12.96875,-11.25 -0.46875,0 0.707107,0.707107 0.46875,0 L 12.96875,-11.25 z" fill="url(#linearGradient4078)" fill-opacity="1"/>
     <path inkscape:connector-curvature="0" id="path2710" d="m 13.96875,-11.125 1.59375,0 0.707107,0.707107 -1.59375,0 L 13.96875,-11.125 z" fill="url(#linearGradient4078)" fill-opacity="1"/>
     <path inkscape:connector-curvature="0" id="path2712" d="m 15.5625,-11.125 c 0.700736,-0.01728 1.245143,0.227017 1.62661,0.608484 l 0.707107,0.7071066 C 17.51475,-10.190876 16.970342,-10.435179 16.269607,-10.417893 L 15.5625,-11.125 z" fill="url(#linearGradient4078)" fill-opacity="1"/>
     <path inkscape:connector-curvature="0" id="path2714" d="m 17.18911,-10.516516 c 1.226812,1.2268116 0.768345,3.872302 -1.59536,3.797766 l 0.707107,0.7071068 c 2.363705,0.074536 2.822172,-2.5709544 1.59536,-3.7977662 L 17.18911,-10.516516 z" fill="url(#linearGradient4128)" fill-opacity="1"/>
     <path inkscape:connector-curvature="0" id="path2716" d="m 15.59375,-6.71875 -1.625,-4.40625 0.707107,0.707107 1.625,4.4062498 L 15.59375,-6.71875 z" fill="url(#linearGradient4078)" fill-opacity="1"/>
     <path inkscape:connector-curvature="0" id="path2696" d="m 15.4375,-6.4375 c 2.997036,0.074602 3.230868,-2.8853317 1.85901,-4.257189 l 0.707107,0.7071064 c 1.371858,1.3718577 1.138026,4.3317916 -1.85901,4.2571894 L 15.4375,-6.4375 z" fill="url(#linearGradient4132)" fill-opacity="1"/>
     <path inkscape:connector-curvature="0" id="path2722" d="m 11.15625,-6.65625 1.59375,-4.375 0.707107,0.707107 -1.59375,4.3749998 L 11.15625,-6.65625 z" fill="url(#linearGradient4134)" fill-opacity="1"/>
     <path inkscape:connector-curvature="0" id="path2718" d="m 12.75,-11.03125 1.625,4.375 0.707107,0.7071068 -1.625,-4.3749998 L 12.75,-11.03125 z" fill="url(#linearGradient4078)" fill-opacity="1"/>
     <path inkscape:connector-curvature="0" id="path2720" d="m 14.375,-6.65625 -3.21875,0 0.707107,0.7071068 3.21875,0 L 14.375,-6.65625 z" fill="url(#linearGradient4078)" fill-opacity="1"/>
     <path inkscape:connector-curvature="0" id="path2670" d="m 15.96875,-5.6875 c 3.266261,0.062522 3.649833,-4.1338136 1.95162,-5.832027 l 0.707107,0.707107 c 1.698213,1.6982132 1.314641,5.8945486 -1.95162,5.8320268 L 15.96875,-5.6875 z" fill="url(#linearGradient4140)" fill-opacity="1"/>
     <path inkscape:connector-curvature="0" id="path2668" d="m 16.78125,-3.4375 -0.8125,-2.25 0.707107,0.7071068 0.8125,2.25 L 16.78125,-3.4375 z" fill="url(#linearGradient4142)" fill-opacity="1"/>
     <path inkscape:connector-curvature="0" id="path2666" d="m 15.53125,-3.4375 1.25,0 0.707107,0.7071068 -1.25,0 L 15.53125,-3.4375 z" fill="url(#linearGradient4144)" fill-opacity="1"/>
     <path inkscape:connector-curvature="0" id="path2656" d="m 8.75,-3.4375 1.25,0 0.707107,0.7071068 -1.2500002,0 L 8.75,-3.4375 z" fill="url(#linearGradient4146)" fill-opacity="1"/>
     <path inkscape:connector-curvature="0" id="path2658" d="m 10,-3.4375 0.8125,-2.25 0.707107,0.7071068 -0.8125,2.25 L 10,-3.4375 z" fill="url(#linearGradient4148)" fill-opacity="1"/>
    </g>
    <path inkscape:connector-curvature="0" id="path2505" d="m 16.1875,-12.175236 -4.09375,0.03125 -3.3437504,8.7500003 1.25,0 0.8125004,-2.25 3.9375,0 0.78125,2.21875 0,0.03125 1.25,0 -0.8125,-2.25 c 4.115551,0.078779 3.654407,-6.6040073 0.21875,-6.5312503 z m 0.03125,0.25 c 3.044029,0.01427 3.490551,6.1412789 -0.625,6.0625003 l 0.78125,2.1875 -0.65625,0 -0.84375,-2.25 -4.3125,0 -0.8125004,2.21875 -0.5625,0 3.0937504,-8.1562503 3.9375,-0.0625 z m -2.625,0.59375 1.84375,4.9375003 c 3.925451,0.097712 3.110577,-5.0103763 0.15625,-4.9375003 l -2,0 z m -1.09375,0.125 -1.78125,4.8750003 4,0.0625 -1.75,-4.9375003 -0.46875,0 z m 1.46875,0.125 1.59375,0 c 2.954327,-0.07288 3.12993,4.5039626 0.03125,4.4062503 l -1.625,-4.4062503 z m -1.21875,0.09375 1.625,4.3750003 -3.21875,0 1.59375,-4.3750003 z" fill="#333333" font-family="Bitstream Vera Sans" stroke="none" font-style="normal" fill-opacity="1" font-weight="normal" font-size="12"/>
   </g>
   <path inkscape:connector-curvature="0" id="text2170" d="m 6.0871491,-4.0239012 c -0.010522,-0.011146 -0.022062,-0.019197 -0.03462,-0.024152 -0.012219,-0.00557 -0.025796,-0.00836 -0.04073,-0.00836 -0.052948,1e-6 -0.093678,0.031584 -0.122188,0.094748 -0.028172,0.062547 -0.042257,0.15265 -0.042257,0.27031 l 0,0.548052 -0.094187,0 0,-1.040369 0.094187,0 0,0.161628 c 0.019686,-0.063164 0.045311,-0.109918 0.076877,-0.140264 0.031565,-0.030961 0.069918,-0.046444 0.115061,-0.046445 0.00645,1e-6 0.013576,9.31e-4 0.021383,0.00279 0.00781,0.00124 0.016461,0.00341 0.025965,0.0065 l 5.09e-4,0.175563 m 0.297835,-0.039943 c -0.050233,1e-6 -0.089944,0.035918 -0.119134,0.107752 -0.029189,0.071217 -0.043784,0.169061 -0.043784,0.293533 0,0.124473 0.014425,0.222627 0.043275,0.294462 0.029189,0.071216 0.06907,0.106824 0.119643,0.106824 0.049895,0 0.089436,-0.035918 0.118626,-0.107753 0.029189,-0.071835 0.043784,-0.169679 0.043784,-0.293533 0,-0.123233 -0.014595,-0.220768 -0.043784,-0.292604 -0.02919,-0.072453 -0.068731,-0.10868 -0.118626,-0.108681 m 0,-0.144909 c 0.08146,1e-6 0.145439,0.048304 0.191939,0.144909 0.046499,0.096606 0.069749,0.230368 0.06975,0.401285 -1e-6,0.170299 -0.023251,0.304061 -0.06975,0.401286 -0.0465,0.096605 -0.110479,0.144908 -0.191939,0.144908 -0.081799,0 -0.145948,-0.048303 -0.192447,-0.144908 -0.04616,-0.097225 -0.06924,-0.230987 -0.06924,-0.401286 0,-0.170917 0.02308,-0.304679 0.06924,-0.401285 0.046499,-0.096605 0.110648,-0.144908 0.192447,-0.144909 m 0.637419,0.144909 c -0.050233,1e-6 -0.089945,0.035918 -0.119134,0.107752 -0.02919,0.071217 -0.043784,0.169061 -0.043784,0.293533 0,0.124473 0.014425,0.222627 0.043275,0.294462 0.029189,0.071216 0.06907,0.106824 0.119643,0.106824 0.049893,0 0.089435,-0.035918 0.118625,-0.107753 0.029189,-0.071835 0.043784,-0.169679 0.043784,-0.293533 0,-0.123233 -0.014595,-0.220768 -0.043784,-0.292604 -0.02919,-0.072453 -0.068732,-0.10868 -0.118625,-0.108681 m 0,-0.144909 c 0.081459,1e-6 0.145438,0.048304 0.191938,0.144909 0.046499,0.096606 0.069749,0.230368 0.069749,0.401285 0,0.170299 -0.02325,0.304061 -0.069749,0.401286 -0.0465,0.096605 -0.110479,0.144908 -0.191938,0.144908 -0.081799,0 -0.145948,-0.048303 -0.192447,-0.144908 -0.046161,-0.097225 -0.06924,-0.230987 -0.06924,-0.401286 0,-0.170917 0.023079,-0.304679 0.06924,-0.401285 0.046499,-0.096605 0.110648,-0.144908 0.192447,-0.144909 m 0.50912,-0.27031 0,0.295391 0.192955,0 0,0.132832 -0.192955,0 0,0.564772 c -1e-6,0.08484 0.00628,0.139336 0.018836,0.163487 0.012898,0.024152 0.038863,0.036228 0.077896,0.036227 l 0.096223,0 0,0.143051 -0.096223,0 c -0.072296,0 -0.122188,-0.024461 -0.149681,-0.073383 -0.027492,-0.049542 -0.041238,-0.139335 -0.041238,-0.269382 l 0,-0.564772 -0.068732,0 0,-0.132832 0.068732,0 0,-0.295391 0.094187,0 m 0.423586,0.103108 0,0.521114 0.129317,0 c 0.047857,0 0.084853,-0.022603 0.110988,-0.06781 0.026134,-0.045206 0.039202,-0.109609 0.039202,-0.193211 0,-0.082981 -0.013068,-0.147075 -0.039202,-0.192283 -0.026135,-0.045205 -0.063131,-0.067809 -0.110988,-0.06781 l -0.129317,0 m -0.102842,-0.154197 0.232159,0 c 0.085192,1e-6 0.149511,0.0353 0.192956,0.105894 0.043784,0.069979 0.065676,0.172777 0.065676,0.308396 0,0.136859 -0.021892,0.240276 -0.065676,0.310252 -0.043445,0.069978 -0.107764,0.104967 -0.192956,0.104967 l -0.129317,0 0,0.55734 -0.102842,0 0,-1.386849 m 0.837502,0.863878 c -0.075689,0 -0.128129,0.015791 -0.157318,0.047374 -0.02919,0.031583 -0.043784,0.085459 -0.043784,0.161628 0,0.060689 0.010861,0.108991 0.032583,0.144909 0.022062,0.035298 0.05193,0.052947 0.089606,0.052947 0.05193,0 0.093508,-0.03344 0.124734,-0.100321 0.031565,-0.0675 0.047348,-0.156984 0.047348,-0.268453 l 0,-0.038084 -0.093169,0 m 0.186847,-0.070597 0,0.593568 -0.093678,0 0,-0.157913 c -0.021383,0.063165 -0.048027,0.10992 -0.079932,0.140264 -0.031905,0.029725 -0.070937,0.044587 -0.117097,0.044587 -0.05838,0 -0.104879,-0.029725 -0.139499,-0.089175 -0.034281,-0.060068 -0.051421,-0.140263 -0.051421,-0.240585 0,-0.117041 0.021383,-0.205287 0.064149,-0.264737 0.043105,-0.059448 0.107254,-0.089173 0.192447,-0.089174 l 0.131353,0 0,-0.01672 c 0,-0.078646 -0.014256,-0.139335 -0.042766,-0.182065 -0.028172,-0.043347 -0.067883,-0.065022 -0.119134,-0.065023 -0.032584,1e-6 -0.064319,0.00712 -0.095206,0.021365 -0.030886,0.014244 -0.060585,0.035608 -0.089096,0.064094 l 0,-0.157913 c 0.034281,-0.024151 0.067544,-0.04211 0.099788,-0.053876 0.032244,-0.012385 0.06364,-0.018578 0.094187,-0.018579 0.082477,1e-6 0.144081,0.039016 0.184811,0.117042 0.040729,0.078028 0.061093,0.196309 0.061094,0.35484 m 0.193466,-0.851802 0.093678,0 0,1.44537 -0.093678,0 0,-1.44537 m 0.647228,0.9200515 c -1e-6,0.088556 0.012049,0.158223 0.036147,0.209003 0.024098,0.050161 0.057191,0.075241 0.099278,0.075241 0.041749,0 0.074502,-0.02539 0.098261,-0.07617 0.024098,-0.05078 0.036148,-0.120138 0.036148,-0.208074 0,-0.086697 -0.012219,-0.155435 -0.036657,-0.206216 -0.024438,-0.051399 -0.057361,-0.077098 -0.09877,-0.077099 -0.041069,1e-6 -0.073823,0.025391 -0.09826,0.07617 -0.024098,0.050781 -0.036148,0.119829 -0.036147,0.207145 m 0.277471,0.277742 c -0.020365,0.047683 -0.043785,0.082981 -0.070259,0.105894 -0.026135,0.022294 -0.056683,0.033441 -0.091642,0.033441 -0.05838,0 -0.105897,-0.038395 -0.142554,-0.115184 -0.036317,-0.077408 -0.054476,-0.178039 -0.054476,-0.301893 0,-0.123853 0.018328,-0.224483 0.054986,-0.301893 0.036656,-0.077407 0.084004,-0.116111 0.142044,-0.116112 0.034959,1e-6 0.065677,0.011767 0.092151,0.035298 0.026474,0.022914 0.049724,0.057902 0.06975,0.104966 l 0,-0.121686 0.072804,0 0,0.683671 c 0.04955,-0.013624 0.08825,-0.054805 0.116079,-0.123544 0.02817,-0.069357 0.04226,-0.158841 0.04226,-0.268452 -10e-7,-0.066262 -0.0054,-0.128498 -0.01629,-0.186709 -0.01052,-0.058211 -0.02664,-0.112087 -0.04837,-0.161629 -0.0353,-0.081123 -0.07841,-0.14305 -0.129316,-0.18578 -0.050574,-0.043348 -0.1057274,-0.065022 -0.1654644,-0.065024 -0.041748,2e-6 -0.081799,0.010219 -0.120153,0.030654 -0.038354,0.019818 -0.073822,0.049543 -0.106406,0.089174 -0.053288,0.063167 -0.095035,0.146149 -0.125243,0.248946 -0.029869,0.10218 -0.044803,0.213029 -0.044803,0.332547 0,0.098464 0.00967,0.190734 0.02902,0.276812 0.019686,0.086079 0.048027,0.161939 0.085023,0.227581 0.035638,0.064404 0.076877,0.113326 0.123716,0.146766 0.046839,0.03406 0.096902,0.05109 0.150191,0.05109 0.043784,0 0.08672,-0.013624 0.128808,-0.040872 0.042427,-0.026628 0.08129,-0.065023 0.1165874,-0.115184 l 0.04582,0.103108 c -0.04243,0.060069 -0.08876,0.105895 -0.138989,0.137478 -0.049895,0.032201 -0.1006364,0.048302 -0.1522274,0.048303 -0.062792,-10e-7 -0.12202,-0.020436 -0.177683,-0.061308 -0.055664,-0.040252 -0.105218,-0.099083 -0.148663,-0.176491 -0.043445,-0.077408 -0.076538,-0.166892 -0.099278,-0.268452 -0.022741,-0.102179 -0.034112,-0.21179 -0.034111,-0.328831 -10e-7,-0.112706 0.01154,-0.220149 0.03462,-0.322329 0.02308,-0.102178 0.056003,-0.191972 0.098769,-0.269381 0.043784,-0.078646 0.094356,-0.138715 0.151718,-0.180207 0.05736,-0.042109 0.118115,-0.063164 0.182264,-0.063165 0.071957,1e-6 0.1386504,0.026939 0.2000854,0.080814 0.06177,0.053878 0.113532,0.130357 0.155281,0.229439 0.02546,0.060689 0.0448,0.126641 0.05804,0.197856 0.01358,0.071216 0.02036,0.144909 0.02036,0.221078 -2e-6,0.162868 -0.02698,0.291365 -0.08095,0.385494 -0.05397,0.094129 -0.128468,0.143051 -0.2235024,0.146766 l 0,-0.14305 m 0.8507384,-0.311182 c -10e-7,-0.123853 -0.01409,-0.219839 -0.04226,-0.28796 -0.02783,-0.068118 -0.06703,-0.102178 -0.117607,-0.102179 -0.05023,1e-6 -0.08943,0.034061 -0.117606,0.102179 -0.02783,0.068121 -0.04175,0.164107 -0.04175,0.28796 0,0.123234 0.01392,0.218911 0.04175,0.28703 0.02817,0.06812 0.06737,0.10218 0.117606,0.102179 0.05057,1e-6 0.08977,-0.034059 0.117607,-0.102179 0.02817,-0.068119 0.04226,-0.163796 0.04226,-0.28703 m 0.09368,0.403143 c -1e-6,0.17711 -0.02155,0.308704 -0.06466,0.394782 -0.04311,0.086698 -0.109122,0.130046 -0.198048,0.130047 -0.03292,-1e-6 -0.06398,-0.00464 -0.09317,-0.013934 -0.02919,-0.00867 -0.05753,-0.022294 -0.08502,-0.040872 l 0,-0.166273 c 0.02749,0.027248 0.05465,0.047374 0.08146,0.060379 0.02681,0.013004 0.05414,0.019506 0.08197,0.019507 0.06143,-1e-6 0.107424,-0.029416 0.137971,-0.088246 0.03055,-0.058211 0.04582,-0.146457 0.04582,-0.264737 l 0,-0.08453 c -0.01935,0.061308 -0.04412,0.107134 -0.07433,0.137478 -0.03021,0.030344 -0.06636,0.045516 -0.108443,0.045516 -0.06992,0 -0.126262,-0.048613 -0.169028,-0.145837 -0.04277,-0.097225 -0.06415,-0.226033 -0.06415,-0.386423 0,-0.161009 0.02138,-0.290126 0.06415,-0.387352 0.04277,-0.097224 0.09911,-0.145837 0.169028,-0.145838 0.04209,1e-6 0.07823,0.015173 0.108443,0.045517 0.03021,0.030345 0.05498,0.076171 0.07433,0.137477 l 0,-0.157913 0.09368,0 0,0.911252 m 0.636909,-0.711539 c 0.02342,-0.076788 0.05142,-0.13345 0.084,-0.169988 0.03258,-0.036536 0.07094,-0.054805 0.115061,-0.054806 0.0594,1e-6 0.105218,0.038087 0.137463,0.114256 0.03224,0.075551 0.04837,0.183303 0.04837,0.323257 l 0,0.627937 -0.09419,0 0,-0.622364 c -10e-7,-0.099701 -0.0097,-0.173703 -0.02902,-0.222007 -0.01935,-0.048302 -0.04888,-0.072453 -0.08859,-0.072454 -0.04854,1e-6 -0.08689,0.029416 -0.115061,0.088245 -0.02817,0.058832 -0.04226,0.139026 -0.04226,0.240585 l 0,0.587995 -0.09419,0 0,-0.622364 c 0,-0.10032 -0.0097,-0.174323 -0.02902,-0.222007 -0.01935,-0.048302 -0.04922,-0.072453 -0.0896,-0.072454 -0.04786,1e-6 -0.08587,0.029725 -0.114042,0.089174 -0.02817,0.058831 -0.04226,0.138717 -0.04226,0.239656 l 0,0.587995 -0.09419,0 0,-1.040369 0.09419,0 0,0.161628 c 0.02138,-0.063783 0.04701,-0.110847 0.07688,-0.141192 0.02987,-0.030344 0.06534,-0.045516 0.106406,-0.045517 0.04141,1e-6 0.07654,0.019199 0.105388,0.057592 0.02919,0.038396 0.05074,0.09413 0.06466,0.167202 m 0.831392,0.317685 c -0.07569,0 -0.128129,0.015791 -0.157318,0.047374 -0.02919,0.031583 -0.04378,0.085459 -0.04378,0.161628 0,0.060689 0.01086,0.108991 0.03258,0.144909 0.02206,0.035298 0.05193,0.052947 0.0896,0.052947 0.05193,0 0.09351,-0.03344 0.124734,-0.100321 0.03157,-0.0675 0.04735,-0.156984 0.04735,-0.268453 l 0,-0.038084 -0.09317,0 m 0.186847,-0.070597 0,0.593568 -0.09368,0 0,-0.157913 c -0.02138,0.063165 -0.04803,0.10992 -0.07993,0.140264 -0.03191,0.029725 -0.07094,0.044587 -0.117097,0.044587 -0.05838,0 -0.104879,-0.029725 -0.139499,-0.089175 -0.03428,-0.060068 -0.05142,-0.140263 -0.05142,-0.240585 0,-0.117041 0.02138,-0.205287 0.06415,-0.264737 0.0431,-0.059448 0.107254,-0.089173 0.192447,-0.089174 l 0.131353,0 0,-0.01672 c 0,-0.078646 -0.01426,-0.139335 -0.04277,-0.182065 -0.02817,-0.043347 -0.06788,-0.065022 -0.119134,-0.065023 -0.03258,1e-6 -0.06432,0.00712 -0.0952,0.021365 -0.03089,0.014244 -0.06059,0.035608 -0.0891,0.064094 l 0,-0.157913 c 0.03428,-0.024151 0.06754,-0.04211 0.09979,-0.053876 0.03224,-0.012385 0.06364,-0.018578 0.09419,-0.018579 0.08248,1e-6 0.144081,0.039016 0.184811,0.117042 0.04073,0.078028 0.06109,0.196309 0.06109,0.35484 m 0.193466,-0.446801 0.09368,0 0,1.040369 -0.09368,0 0,-1.040369 m 0,-0.405001 0.09368,0 0,0.216434 -0.09368,0 0,-0.216434 m 0.28918,0 0.09368,0 0,1.44537 -0.09368,0 0,-1.44537 m 0.302417,1.209429 0.107424,0 0,0.235941 -0.107424,0 0,-0.235941 m 0.729059,-0.764485 0,0.15977 c -0.02647,-0.026627 -0.05312,-0.046444 -0.07993,-0.059449 -0.02647,-0.013623 -0.05329,-0.020435 -0.08044,-0.020436 -0.06076,1e-6 -0.107934,0.035299 -0.141536,0.105895 -0.0336,0.069978 -0.0504,0.168441 -0.0504,0.29539 0,0.126951 0.0168,0.225724 0.0504,0.29632 0.0336,0.069977 0.08078,0.104966 0.141536,0.104966 0.02715,0 0.05397,-0.0065 0.08044,-0.019507 0.02681,-0.013624 0.05346,-0.03375 0.07993,-0.060379 l 0,0.157913 c -0.02614,0.022294 -0.05329,0.039014 -0.08146,0.050161 -0.02783,0.011146 -0.05753,0.01672 -0.0891,0.01672 -0.08587,0 -0.154094,-0.049231 -0.204666,-0.147695 -0.05057,-0.098463 -0.07586,-0.231296 -0.07586,-0.398499 0,-0.169678 0.02546,-0.30313 0.07637,-0.400356 0.05125,-0.097224 0.12134,-0.145837 0.210267,-0.145838 0.02885,1e-6 0.05702,0.00558 0.08451,0.016721 0.02749,0.010528 0.05414,0.026629 0.07993,0.048303 m 0.384895,0.079885 c -0.05023,1e-6 -0.08995,0.035918 -0.119134,0.107752 -0.02919,0.071217 -0.04378,0.169061 -0.04378,0.293533 -10e-7,0.124473 0.01442,0.222627 0.04328,0.294462 0.02919,0.071216 0.06907,0.106824 0.119643,0.106824 0.04989,0 0.08943,-0.035918 0.118625,-0.107753 0.02919,-0.071835 0.04378,-0.169679 0.04378,-0.293533 0,-0.123233 -0.01459,-0.220768 -0.04378,-0.292604 -0.02919,-0.072453 -0.06873,-0.10868 -0.118625,-0.108681 m 0,-0.144909 c 0.08146,1e-6 0.145438,0.048304 0.191938,0.144909 0.0465,0.096606 0.06975,0.230368 0.06975,0.401285 0,0.170299 -0.02325,0.304061 -0.06975,0.401286 -0.0465,0.096605 -0.11048,0.144908 -0.191938,0.144908 -0.0818,0 -0.145948,-0.048303 -0.192448,-0.144908 -0.04616,-0.097225 -0.06924,-0.230987 -0.06924,-0.401286 0,-0.170917 0.02308,-0.304679 0.06924,-0.401285 0.0465,-0.096605 0.110649,-0.144908 0.192448,-0.144909 m 0.860412,0.224794 c 0.02342,-0.076788 0.05142,-0.13345 0.084,-0.169988 0.03258,-0.036536 0.07094,-0.054805 0.115061,-0.054806 0.0594,1e-6 0.105217,0.038087 0.137462,0.114256 0.03224,0.075551 0.04837,0.183303 0.04837,0.323257 l 0,0.627937 -0.09419,0 0,-0.622364 c 0,-0.099701 -0.0097,-0.173703 -0.02902,-0.222007 -0.01935,-0.048302 -0.04888,-0.072453 -0.08859,-0.072454 -0.04854,1e-6 -0.08689,0.029416 -0.115061,0.088245 -0.02817,0.058832 -0.04226,0.139026 -0.04226,0.240585 l 0,0.587995 -0.09419,0 0,-0.622364 c -10e-7,-0.10032 -0.0097,-0.174323 -0.02902,-0.222007 -0.01935,-0.048302 -0.04922,-0.072453 -0.08961,-0.072454 -0.04786,1e-6 -0.08587,0.029725 -0.114043,0.089174 -0.02817,0.058831 -0.04226,0.138717 -0.04226,0.239656 l 0,0.587995 -0.09419,0 0,-1.040369 0.09419,0 0,0.161628 c 0.02138,-0.063783 0.04701,-0.110847 0.07688,-0.141192 0.02987,-0.030344 0.06534,-0.045516 0.106406,-0.045517 0.04141,1e-6 0.07654,0.019199 0.105388,0.057592 0.02919,0.038396 0.05074,0.09413 0.06466,0.167202" sodipodi:nodetypes="csssccccccssscccsssssssccsssssssccsssssssccssssssscccccccsccccsccccccccccsssccccsssccccccssssscccccccssssscccsssccssscccccccsssssssccsssssssccccsssssssssssssssccssssssssssssssscccsssssssccsssccsssccssssssscccccsssccccsssccccsssccccccsssccssssscccccccssssscccsssccssscccccccccccccccccccccccsssssssccsssssssccsssssssccsssssssccsssccccsssccccsssccccccsssc" fill="#d40000" font-family="Bitstream Vera Sans" stroke="none" font-style="normal" fill-opacity="1" font-weight="normal" font-size="4"/>
  </g>
 </g>
 <path d="m 446.28277,12.981175 c 5.10037,0.689674 9.30836,4.33235 9.79662,8.078859" id="path3384" inkscape:connector-curvature="0" sodipodi:nodetypes="cc" opacity="0.601" stroke-opacity="0.502" fill="none" stroke="#cfeaf2" stroke-linejoin="round" stroke-linecap="round" stroke-width="1.019"/>
 <path sodipodi:nodetypes="cc" inkscape:connector-curvature="0" id="path4154" d="m 443.53731,14.875293 c 5.10037,0.689675 8.29622,4.378357 8.78447,8.124866" stroke-opacity="0.303" fill="none" stroke="#80c4da" stroke-linejoin="round" stroke-linecap="round" stroke-width="1.019"/>
 <g id="g4885" transform="matrix(0.79255656,0,0,0.79255656,46.730312,55.822837)">
  <path inkscape:connector-curvature="0" id="path4788" d="m 59.692154,37.825133 -8.34375,10.4375 -12.53125,0.53125 -5.25,5.75 c 1.26962,13.986052 -6.24483,19.19498 -13.0625,25.09375 l 0.53125,6.25 c 3.48208,0.454926 7.03973,0.81264 9.78125,2.15625 l -2.46875,-4.25 4.8125,-7.1875 -4.28125,7.1875 2.1875,4.375 c -0.0822,-0.04293 -0.16624,-0.08395 -0.25,-0.125 l 1.28125,2.1875 3.5625,7.15625 4.15625,9.406247 -26.09375,69.9375 c 0,0 19.81764,13.5 22.21875,13.5 2.4011,0 37.1875,1.75 37.1875,1.75 l 20.40625,-78.15625 29.406246,-0.21875 -0.53125,-2.5 c -16.63534,-0.829 -18.01654,-11.399487 -13.0625,-18.406247 l 2.21875,-0.71875 c 3.82009,7.109148 10.29503,13.454067 18.3125,13.906247 4.51489,0.0876 6.51506,1.37929 6.8125,-3.6875 -8.72652,-3.560777 -12.24707,-8.566777 -13.875,-13.906247 l 9,-2.9375 -0.53125,-4.15625 3.21875,0 c 12.86308,8.554459 19.21791,19.081287 9.875,26.124997 l -21.75,3.34375 0.875,3.03125 28.1875,-3.25 c 10.51798,-7.09859 9.99648,-20.28843 2.90625,-29.249997 l 1.78125,0 0,-5.75 63.21875,0 0,-7.84375 1.0625,0 0,-0.53125 17.25,0 0,-17.75 -12.8125,0 0.78125,-0.53125 16.71875,0 0,-2.09375 -4.15625,0 -5.25,-4.1875 -5.90625,0.125 -2.625,-3.84375 -2.96875,3.9375 -6.25,0.3125 -4.1875,3.65625 -82.5625,-1.03125 -5.21875,-1.0625 -60.624996,-0.53125 -3.15625,-6.25 z m 178.593746,12.59375 0,12.59375 12.5625,0 0,-12.59375 -12.5625,0 z m -18.15625,2.28125 0,0.78125 -87.125,0 86.71875,-0.5 0.40625,-0.28125 z m -143.218746,11.1875 -1.375,3.8125 -1.125,-0.03125 2.5,-3.78125 z m -38.84375,4.25 0.125,0 -0.4375,0.71875 0.3125,-0.71875 z m 63.499996,0 28.6875,0 0,4.75 -0.53125,-4.25 -28.15625,-0.5 z m -2.656246,5.75 3.124996,4.15625 -0.125,0.46875 -3.718746,-4.46875 0.71875,-0.15625 z m -32.15625,1.84375 -1.71875,3.5625 -0.40625,0.09375 2.125,-3.65625 z" stroke-opacity="1" fill="#000000" filter="url(#filter4881)" fill-rule="evenodd" stroke="none" stroke-linejoin="miter" fill-opacity="0.553" stroke-linecap="butt" stroke-width="1"/>
  <g transform="translate(-251.06383,-98.93617)" id="g4744">
   <path inkscape:connector-curvature="0" d="m 353.51958,168.91882 c 2.04067,9.69283 10.31628,21.95664 21.58717,22.59231 4.5149,0.0876 6.49628,1.40864 6.79372,-3.65815 -13.11312,-5.35069 -14.47974,-13.99085 -15.31606,-22.06972 l -13.06483,3.13556 z" id="path2831" sodipodi:nodetypes="ccccc" stroke-opacity="1" fill="url(#radialGradient4762)" fill-rule="evenodd" stroke="none" stroke-linejoin="miter" fill-opacity="1" stroke-linecap="butt" stroke-width="1"/>
   <path inkscape:connector-curvature="0" d="m 286.62763,196.09368 -5.74851,-13.06484 -6.79371,-13.58743 9.92927,-16.72298 32.40079,1.04519 -7.31632,12.54223 -22.47152,29.78783 z" id="path2813" sodipodi:nodetypes="ccccccc" stroke-dasharray="none" stroke-opacity="1" fill="url(#linearGradient4715)" fill-rule="evenodd" stroke="none" stroke-linejoin="miter" fill-opacity="1" stroke-linecap="butt" stroke-width="0" stroke-miterlimit="4"/>
   <path inkscape:connector-curvature="0" d="m 286.34625,139.13101 42.61146,0 -9.64789,14.63261 -42.61145,0 9.64788,-14.63261 z" id="rect2788" sodipodi:nodetypes="ccccc" stroke-opacity="0.225" fill="#000000" stroke="none" stroke-linejoin="round" fill-opacity="1" stroke-linecap="round" stroke-width="2" stroke-miterlimit="4"/>
   <rect id="rect1873" width="90.41" height="14.11" x="375.47" y="139.13" stroke-dasharray="none" stroke-opacity="0.225" fill="#000000" stroke="none" stroke-linejoin="round" fill-opacity="1" stroke-linecap="round" stroke-width="2" stroke-miterlimit="4"/>
   <rect id="rect2760" width="17.768" height="17.768" x="134.95" y="-483.12" transform="matrix(0,1,-1,0,0,0)" stroke-dasharray="none" stroke-opacity="0.225" fill="url(#linearGradient4710)" stroke="none" stroke-linejoin="round" fill-opacity="1" stroke-linecap="round" stroke-width="2" stroke-miterlimit="4"/>
   <path inkscape:connector-curvature="0" d="m 375.47476,153.23525 0,5.75001 0,2.09375 0,5.74999 26.125,0 0,-5.74999 63.21875,0 0,-7.84376 -89.34375,0 z" id="rect2770" stroke-dasharray="none" stroke-opacity="0.225" fill="url(#linearGradient4707)" stroke="none" stroke-linejoin="round" fill-opacity="1" stroke-linecap="round" stroke-width="2" stroke-miterlimit="4"/>
   <path inkscape:connector-curvature="0" d="m 325.82214,139.13101 56.96267,0 -5.22593,14.63261 -56.96268,0 5.22594,-14.63261 z" id="rect2775" sodipodi:nodetypes="ccccc" stroke-opacity="0.225" fill="url(#linearGradient4704)" stroke="none" stroke-linejoin="round" fill-opacity="1" stroke-linecap="round" stroke-width="2" stroke-miterlimit="4"/>
   <path inkscape:connector-curvature="0" d="m 286.10505,139.6536 178.81824,-1.04519 6.17979,-4.18075 16.72298,0 0,-2.09037 -4.18074,0 -5.22594,-4.18075 -5.93524,0.13065 -2.61703,-3.8512 -2.94884,3.94659 -6.26706,0.29656 -4.18075,3.65815 -82.56974,-1.04519 -5.22593,-1.04518 -60.62082,-0.5226 -3.13556,-6.27112 -8.36149,10.45187 -12.54224,0.52259 -5.22594,5.74853 c 1.26962,13.98605 -6.24716,19.18571 -13.06483,25.08448 l 0.52258,6.27112 c 7.01688,0.91674 14.38117,1.4166 14.63263,10.45186 l -7.31631,-12.54224 8.36149,-12.54223 6.27112,-14.63262" id="path2786" sodipodi:nodetypes="ccccccccccccccccccccccccc" stroke-opacity="1" fill="#444444" fill-rule="evenodd" stroke="#4d4d4d" stroke-linejoin="miter" fill-opacity="1" stroke-linecap="butt" stroke-width="1"/>
   <path inkscape:connector-curvature="0" d="m 309.09915,167.35104 35.01376,-7.83889 3.13556,4.18074 -9.64253,35.76897 30.54626,-0.23262 -0.51941,-2.49154 c -16.63534,-0.829 -18.02206,-11.40544 -13.06802,-18.4122 l 22.47151,-7.3163 -2.09037,-16.72299 -59.05303,-1.04519 -6.79373,14.11002 z" id="path2791" sodipodi:nodetypes="ccccccccccc" stroke-opacity="1" fill="#444444" fill-rule="evenodd" stroke="#3f3f3f" stroke-linejoin="miter" fill-opacity="1" stroke-linecap="butt" stroke-width="1"/>
   <path inkscape:connector-curvature="0" d="m 346.72587,153.76361 25.08448,4.18076 c 2.6493,3.90252 2.04459,6.72038 -3.65816,7.83889 l -22.47149,-6.27111 c -3.41048,-2.66796 -2.50286,-4.47229 1.04517,-5.74854 z" id="path2793" sodipodi:nodetypes="ccccc" stroke-opacity="1" fill="url(#linearGradient4699)" fill-rule="evenodd" stroke="none" stroke-linejoin="miter" fill-opacity="1" stroke-linecap="butt" stroke-width="1"/>
   <path inkscape:connector-curvature="0" id="path2797" d="m 291.3451,175.48856 10.2047,-8.80428 40.81876,-8.21732 5.40249,6.45647 -29.41352,112.6948 c 0,0 -34.81601,-1.76085 -37.21711,-1.76085 -2.40111,0 -22.21022,-13.49991 -22.21022,-13.49991 l 32.4149,-86.86891 z" stroke-opacity="1" fill="url(#linearGradient4696)" fill-rule="evenodd" stroke="none" stroke-linejoin="miter" fill-opacity="1" stroke-linecap="butt" stroke-width="1"/>
   <path inkscape:connector-curvature="0" d="m 294.42218,186.22296 8.76403,-7.8389 35.05611,-7.3163 4.63979,5.74852 -25.26103,100.33792 c 0,0 -29.90081,-1.56778 -31.96293,-1.56778 -2.06213,0 -19.07466,-12.01965 -19.07466,-12.01965 l 27.83869,-77.34381 z" id="path2795" stroke-opacity="1" fill="url(#linearGradient4693)" fill-rule="evenodd" stroke="none" stroke-linejoin="miter" fill-opacity="1" stroke-linecap="butt" stroke-width="1"/>
   <path inkscape:connector-curvature="0" d="m 378.08146,165.78326 c 13.95283,8.73138 21.23042,19.83677 11.49706,27.17485 l -21.74802,3.33647 0.88497,3.05545 28.17935,-3.25636 c 11.15349,-7.52749 9.91328,-21.91273 1.56779,-30.833 l -20.38115,0.52259 z" id="path2829" sodipodi:nodetypes="ccccccc" stroke-opacity="1" fill="#44aaca" fill-rule="evenodd" stroke="none" stroke-linejoin="miter" fill-opacity="1" stroke-linecap="butt" stroke-width="1"/>
   <ellipse ry="3.919" rx="4.181" cy="104.19" cx="130.65" id="path2826" transform="translate(238.54905,57.606446)" stroke-dasharray="none" stroke-opacity="1" fill="url(#linearGradient2842)" stroke="url(#linearGradient2842)" stroke-linejoin="round" fill-opacity="1" stroke-linecap="round" stroke-width="1" stroke-miterlimit="4"/>
   <path inkscape:connector-curvature="0" sodipodi:nodetypes="ccccccc" id="path1915" d="m 378.08146,165.78326 c 13.95283,8.73138 21.23042,19.83677 11.49706,27.17485 l -21.74802,3.33647 0.88497,3.05545 28.17935,-3.25636 c 11.15349,-7.52749 9.91328,-21.91273 1.56779,-30.833 l -20.38115,0.52259 z" stroke-opacity="1" fill="url(#radialGradient4782)" fill-rule="evenodd" stroke="none" stroke-linejoin="miter" fill-opacity="1" stroke-linecap="butt" stroke-width="1"/>
   <rect id="rect2812" width="12.574" height="12.574" x="483.48" y="136.07" stroke-dasharray="none" stroke-opacity="1" fill="url(#linearGradient4685)" stroke="#2f2fc4" stroke-linejoin="round" fill-opacity="1" stroke-linecap="round" stroke-width="0.5" stroke-miterlimit="4"/>
  </g>
  <g transform="matrix(0.7205832,0,0,0.7205832,57.036202,55.998523)" id="g6892">
   <path inkscape:connector-curvature="0" d="M 107.42708,56.619048 C 91.660974,56.487775 85.668174,69.513679 95.114584,90.306549 c 0.03879,0.08629 0.08568,0.16344 0.125,0.25 0.69798,1.52113 1.47925,3.08583 2.34375,4.6875 0.04489,0.08381 0.07965,0.16597 0.125,0.25 0.41658,0.7662 0.85722,1.52871 1.3125,2.3125 0.42762,0.7411 0.881,1.49345 1.343746,2.250001 0.0964,0.15669 0.1833,0.31141 0.28125,0.46875 6.02473,9.7364 14.95049,20.7374 27.21875,32.5625 l -0.4375,0.4375 4.375,4.1875 c -0.53559,2.8684 1.96888,5.402 4.8125,4.625 l 3.625,3.46875 -0.0937,0.0937 c -0.81675,3.11785 2.02879,6.01158 5.125,4.84375 l 0.0312,-0.0312 54.09375,51.9375 c 0.0286,-0.0413 0.064,-0.083 0.0937,-0.125 0.0811,-0.11423 0.15167,-0.24253 0.25,-0.34375 0.12787,-0.13161 0.26373,-0.23726 0.40625,-0.34375 l -0.65625,0.6875 c 0.93491,-0.87895 1.8844,-1.27831 2.75,-1.375 0.86219,0.007 1.71019,0.35412 2.375,1 1.36177,1.32296 1.38547,3.48198 0.0625,4.84375 -0.1245,0.12815 -0.26798,0.23919 -0.40625,0.34375 l 1.125,1.0625 c -0.0646,0.41666 0.0483,0.87005 0.375,1.1875 l 3.0625,2.9375 c 0.33501,0.32546 0.79527,0.4637 1.21875,0.375 l 0.0312,0 0.90625,0.875 40.0625,-42.0625 -0.375,-0.34375 c 0.36477,-0.53238 0.29176,-1.25315 -0.1875,-1.71875 l -3.03125,-2.96875 c -0.48017,-0.46649 -1.22818,-0.50735 -1.75,-0.125 l -0.59375,-0.59375 c -0.0142,0.0152 -0.0479,0.0163 -0.0625,0.0312 -1.32297,1.36177 -3.48198,1.38548 -4.84375,0.0625 -0.17723,-0.17219 -0.33663,-0.36515 -0.46875,-0.5625 -0.0428,-0.0623 -0.0857,-0.12277 -0.125,-0.1875 -0.74831,-1.29715 -0.56429,-2.96608 0.53125,-4.09375 0.0146,-0.015 0.0165,-0.0479 0.0312,-0.0625 l -53.75,-52 c 0.98989,-3.77379 -2.39567,-6.9604 -5.625,-5.4375 l -2.875,-2.78125 0.21875,-0.21875 c 1.04898,-3.824941 -2.422,-7.072171 -5.6875,-5.468751 l -0.1875,0.1875 -3.78125,-3.65625 c -0.0645,-0.06199 -0.12305,-0.12569 -0.1875,-0.1875 l 0.0312,-0.0625 C 142.96167,67.141049 121.37402,56.735174 107.42708,56.619048 Z" id="path6878" stroke-opacity="1" fill="#000000" filter="url(#filter6880)" fill-rule="evenodd" stroke="none" stroke-linejoin="miter" fill-opacity="0.473" stroke-linecap="butt" stroke-width="0.504"/>
   <path inkscape:connector-curvature="0" id="path6876" d="m 63.14137,79 c -15.76611,-0.131273 -21.75891,12.894631 -12.3125,33.6875 0.03879,0.0863 0.08568,0.16344 0.125,0.25 0.69798,1.52113 1.47925,3.08583 2.34375,4.6875 0.04489,0.0838 0.07965,0.16597 0.125,0.25 0.41658,0.7662 0.85722,1.52871 1.3125,2.3125 0.42762,0.7411 0.881,1.49345 1.34375,2.25 0.09644,0.15669 0.1833,0.31141 0.28125,0.46875 6.02473,9.7364 14.95049,20.7374 27.21875,32.5625 l -0.4375,0.4375 4.375,4.1875 c -0.53559,2.8684 1.96888,5.402 4.8125,4.625 l 3.625,3.46875 -0.09375,0.0937 c -0.81675,3.11785 2.02879,6.01158 5.125,4.84375 l 0.0312,-0.0312 54.09375,51.9375 c 0.0286,-0.0413 0.064,-0.083 0.0937,-0.125 0.0811,-0.11423 0.15167,-0.24253 0.25,-0.34375 0.12787,-0.13161 0.26373,-0.23726 0.40625,-0.34375 l -0.65625,0.6875 c 0.93491,-0.87895 1.8844,-1.27831 2.75,-1.375 0.86219,0.007 1.71019,0.35412 2.375,1 1.36177,1.32296 1.38547,3.48198 0.0625,4.84375 -0.1245,0.12815 -0.26798,0.23919 -0.40625,0.34375 l 1.125,1.0625 c -0.0646,0.41666 0.0482,0.87005 0.375,1.1875 l 3.0625,2.9375 c 0.33501,0.32546 0.79527,0.4637 1.21875,0.375 l 0.0312,0 0.90625,0.875 40.0625,-42.0625 -0.375,-0.34375 c 0.36477,-0.53238 0.29176,-1.25315 -0.1875,-1.71875 l -3.03125,-2.96875 c -0.48017,-0.46649 -1.22818,-0.50735 -1.75,-0.125 l -0.59375,-0.59375 c -0.0142,0.0152 -0.0479,0.0163 -0.0625,0.0312 -1.32297,1.36177 -3.48198,1.38548 -4.84375,0.0625 -0.17723,-0.17219 -0.33663,-0.36515 -0.46875,-0.5625 -0.0428,-0.0623 -0.0857,-0.12277 -0.125,-0.1875 -0.74831,-1.29715 -0.56429,-2.96608 0.53125,-4.09375 0.0146,-0.015 0.0165,-0.0479 0.0312,-0.0625 l -53.75,-52 c 0.98989,-3.77379 -2.39567,-6.9604 -5.625,-5.4375 l -2.875,-2.78125 0.21875,-0.21875 c 1.04898,-3.82494 -2.422,-7.07217 -5.6875,-5.46875 l -0.1875,0.1875 -3.78125,-3.65625 c -0.0645,-0.062 -0.12305,-0.12569 -0.1875,-0.1875 l 0.0312,-0.0625 C 98.675959,89.522001 77.08831,79.116126 63.14137,79 Z" stroke-opacity="1" fill="#000000" filter="url(#filter6880)" fill-rule="evenodd" stroke="none" stroke-linejoin="miter" fill-opacity="0.473" stroke-linecap="butt" stroke-width="0.504"/>
   <path inkscape:connector-curvature="0" d="m 16.950893,101.38095 c -15.7661101,-0.13127 -21.7589101,12.89463 -12.3125001,33.6875 0.03879,0.0863 0.08568,0.16344 0.125,0.25 0.69798,1.52113 1.47925,3.08583 2.34375,4.6875 0.04489,0.0838 0.07965,0.16597 0.125,0.25 0.41658,0.7662 0.85722,1.52871 1.3125002,2.3125 0.42762,0.7411 0.881,1.49345 1.34375,2.25 0.09644,0.15669 0.1832999,0.31141 0.2812499,0.46875 6.02473,9.7364 14.95049,20.7374 27.21875,32.5625 l -0.4375,0.4375 4.375,4.1875 c -0.53559,2.8684 1.96888,5.402 4.8125,4.625 l 3.625,3.46875 -0.09375,0.0937 c -0.81675,3.11785 2.02879,6.01158 5.125,4.84375 l 0.03125,-0.0312 54.093747,51.9375 c 0.0286,-0.0413 0.064,-0.083 0.0937,-0.125 0.0811,-0.11423 0.15167,-0.24253 0.25,-0.34375 0.12787,-0.13161 0.26373,-0.23726 0.40625,-0.34375 l -0.65625,0.6875 c 0.93491,-0.87895 1.8844,-1.27831 2.75,-1.375 0.86219,0.007 1.71019,0.35412 2.375,1 1.36177,1.32296 1.38547,3.48198 0.0625,4.84375 -0.1245,0.12815 -0.26798,0.23919 -0.40625,0.34375 l 1.125,1.0625 c -0.0646,0.41666 0.0482,0.87005 0.375,1.1875 l 3.0625,2.9375 c 0.33501,0.32546 0.79527,0.4637 1.21875,0.375 l 0.0312,0 0.90625,0.875 40.0625,-42.0625 -0.375,-0.34375 c 0.36477,-0.53238 0.29176,-1.25315 -0.1875,-1.71875 l -3.03125,-2.96875 c -0.48017,-0.46649 -1.22818,-0.50735 -1.75,-0.125 l -0.59375,-0.59375 c -0.0142,0.0152 -0.0479,0.0163 -0.0625,0.0312 -1.32297,1.36177 -3.48198,1.38548 -4.84375,0.0625 -0.17723,-0.17219 -0.33663,-0.36515 -0.46875,-0.5625 -0.0428,-0.0623 -0.0857,-0.12277 -0.125,-0.1875 -0.74831,-1.29715 -0.56429,-2.96608 0.53125,-4.09375 0.0146,-0.015 0.0165,-0.0479 0.0312,-0.0625 l -53.749997,-52 c 0.989886,-3.77379 -2.395673,-6.9604 -5.625,-5.4375 l -2.875,-2.78125 0.21875,-0.21875 c 1.04898,-3.82494 -2.422,-7.07217 -5.6875,-5.46875 l -0.1875,0.1875 -3.78125,-3.65625 c -0.0645,-0.062 -0.12305,-0.12569 -0.1875,-0.1875 l 0.03125,-0.0625 C 52.485333,111.9029 30.897683,101.49703 16.950743,101.3809 Z" id="path6814" stroke-opacity="1" fill="#000000" filter="url(#filter6880)" fill-rule="evenodd" stroke="none" stroke-linejoin="miter" fill-opacity="0.473" stroke-linecap="butt" stroke-width="0.504"/>
   <g id="g6711" transform="matrix(0.4729469,-0.4868155,0.4868155,0.4729469,47.120896,113.044)">
    <path inkscape:connector-curvature="0" d="m 168.69396,79.529497 c -0.77811,-144.26697 -86.086692,-146.55732 -85.329585,-0.07374 l 85.329585,0.07374 z" id="path1985" sodipodi:nodetypes="ccc" stroke-opacity="1" fill="#000000" fill-rule="evenodd" stroke="url(#linearGradient6921)" stroke-linejoin="miter" fill-opacity="1" stroke-linecap="butt" stroke-width="0.742"/>
    <path inkscape:connector-curvature="0" sodipodi:nodetypes="cccsssccccssscc" id="path2912" d="m 168.71875,78.605574 -86.281248,0.375 0.84375,147.031256 c 0.27162,-0.0451 0.5594,-0.0937 0.84375,-0.0937 2.7973,0 5.0625,2.29645 5.0625,5.09375 0,2.79729 -2.26521,5.0625 -5.0625,5.0625 -0.26324,0 -0.5288,-0.055 -0.78125,-0.0937 l 0.0625,13.71875 85.624998,-0.84375 L 169,236.6433 c -0.0306,5.5e-4 -0.063,0 -0.0937,0 -2.79729,0 -5.0625,-2.2652 -5.0625,-5.0625 0,-2.79729 2.2652,-5.0625 5.0625,-5.0625 0.0308,0 0.0631,-5.5e-4 0.0937,0 L 168.71875,78.605574 Z" stroke-opacity="1" fill="url(#linearGradient6694)" fill-rule="evenodd" stroke="url(#linearGradient6925)" stroke-linejoin="miter" fill-opacity="1" stroke-linecap="butt" stroke-width="0.742"/>
    <path inkscape:connector-curvature="0" d="m 169.20082,98.884934 c 5.11898,-2.818375 4.99884,-9.788041 -0.0481,-11.592729 L 82.895334,87.65034 c -4.133344,2.33784 -4.233596,8.328847 0.179256,10.401847 l 86.12623,0.832747 z" id="path2920" sodipodi:nodetypes="ccccc" stroke-opacity="1" fill="url(#linearGradient6653)" fill-rule="evenodd" stroke="url(#linearGradient6655)" stroke-linejoin="miter" fill-opacity="1" stroke-linecap="butt" stroke-width="0.742"/>
    <path inkscape:connector-curvature="0" d="M 168.83412,79.122078 C 168.056,-65.144898 82.747417,-67.435262 83.504528,79.048329 l 85.329592,0.07375 z" id="path2936" sodipodi:nodetypes="ccc" stroke-opacity="1" fill="url(#radialGradient6931)" fill-rule="evenodd" stroke="url(#linearGradient6933)" stroke-linejoin="miter" fill-opacity="1" stroke-linecap="butt" stroke-width="0.742"/>
    <path inkscape:connector-curvature="0" sodipodi:nodetypes="ccccc" id="path6666" d="m 168.7094,116.37556 c 5.11898,-2.81837 4.99885,-9.78804 -0.0481,-11.59273 l -86.257352,0.35814 c -4.133344,2.33784 -4.233596,8.32885 0.179256,10.40185 l 86.126226,0.83274 z" stroke-opacity="1" fill="url(#linearGradient6668)" fill-rule="evenodd" stroke="url(#linearGradient6670)" stroke-linejoin="miter" fill-opacity="1" stroke-linecap="butt" stroke-width="0.742"/>
    <path inkscape:connector-curvature="0" sodipodi:nodetypes="ccccc" id="rect6698" d="m 83.448273,226 85.603447,0 c -6.61391,0.60027 -7.27488,10.38278 0,10.94829 L 83.53448,236.17243 C 91.203487,236.15732 91.935696,226.3304 83.448273,226 Z" opacity="1" stroke-opacity="1" fill="url(#linearGradient6707)" stroke="#c8c5c5" stroke-linejoin="round" fill-opacity="1" stroke-linecap="round" stroke-width="0" stroke-miterlimit="4"/>
    <rect ry="1.987" y="237.89" x="82.52" height="10.232" width="88.11" id="rect6709" opacity="1" stroke-dasharray="none" stroke-opacity="1" fill="#875115" stroke="#6d4d0e" stroke-linejoin="round" fill-opacity="0.614" stroke-linecap="round" stroke-width="0.3" stroke-miterlimit="4" rx="1.987"/>
   </g>
   <g transform="matrix(0.4729469,-0.4868155,0.4868155,0.4729469,3.918047,135.49253)" id="g6740">
    <path inkscape:connector-curvature="0" sodipodi:nodetypes="ccc" id="path6742" d="m 168.69396,79.529497 c -0.77811,-144.26697 -86.086692,-146.55732 -85.329585,-0.07374 l 85.329585,0.07374 z" stroke-opacity="1" fill="#000000" fill-rule="evenodd" stroke="url(#linearGradient6921)" stroke-linejoin="miter" fill-opacity="1" stroke-linecap="butt" stroke-width="0.742"/>
    <path inkscape:connector-curvature="0" d="m 168.71875,78.605574 -86.281248,0.375 0.84375,147.031256 c 0.27162,-0.0451 0.5594,-0.0937 0.84375,-0.0937 2.7973,0 5.0625,2.29645 5.0625,5.09375 0,2.79729 -2.26521,5.0625 -5.0625,5.0625 -0.26324,0 -0.5288,-0.055 -0.78125,-0.0937 l 0.0625,13.71875 85.624998,-0.84375 L 169,236.6433 c -0.0306,5.5e-4 -0.063,0 -0.0937,0 -2.79729,0 -5.0625,-2.2652 -5.0625,-5.0625 0,-2.79729 2.2652,-5.0625 5.0625,-5.0625 0.0308,0 0.0631,-5.5e-4 0.0937,0 L 168.71875,78.605574 Z" id="path6744" sodipodi:nodetypes="cccsssccccssscc" stroke-opacity="1" fill="url(#linearGradient6694)" fill-rule="evenodd" stroke="url(#linearGradient6925)" stroke-linejoin="miter" fill-opacity="1" stroke-linecap="butt" stroke-width="0.742"/>
    <path inkscape:connector-curvature="0" sodipodi:nodetypes="ccccc" id="path6746" d="m 169.20082,98.884934 c 5.11898,-2.818375 4.99884,-9.788041 -0.0481,-11.592729 L 82.895334,87.65034 c -4.133344,2.33784 -4.233596,8.328847 0.179256,10.401847 l 86.12623,0.832747 z" stroke-opacity="1" fill="url(#linearGradient6653)" fill-rule="evenodd" stroke="url(#linearGradient6655)" stroke-linejoin="miter" fill-opacity="1" stroke-linecap="butt" stroke-width="0.742"/>
    <path inkscape:connector-curvature="0" sodipodi:nodetypes="ccc" id="path6748" d="M 168.83412,79.122078 C 168.056,-65.144898 82.747417,-67.435262 83.504528,79.048329 l 85.329592,0.07375 z" stroke-opacity="1" fill="url(#radialGradient6931)" fill-rule="evenodd" stroke="url(#linearGradient6933)" stroke-linejoin="miter" fill-opacity="1" stroke-linecap="butt" stroke-width="0.742"/>
    <path inkscape:connector-curvature="0" d="m 168.7094,116.37556 c 5.11898,-2.81837 4.99885,-9.78804 -0.0481,-11.59273 l -86.257352,0.35814 c -4.133344,2.33784 -4.233596,8.32885 0.179256,10.40185 l 86.126226,0.83274 z" id="path6750" sodipodi:nodetypes="ccccc" stroke-opacity="1" fill="url(#linearGradient6668)" fill-rule="evenodd" stroke="url(#linearGradient6670)" stroke-linejoin="miter" fill-opacity="1" stroke-linecap="butt" stroke-width="0.742"/>
    <path inkscape:connector-curvature="0" d="m 83.448273,226 85.603447,0 c -6.61391,0.60027 -7.27488,10.38278 0,10.94829 L 83.53448,236.17243 C 91.203487,236.15732 91.935696,226.3304 83.448273,226 Z" id="path6752" sodipodi:nodetypes="ccccc" opacity="1" stroke-opacity="1" fill="url(#linearGradient6707)" stroke="#c8c5c5" stroke-linejoin="round" fill-opacity="1" stroke-linecap="round" stroke-width="0" stroke-miterlimit="4"/>
    <rect id="rect6754" width="88.11" height="10.232" x="82.52" y="237.89" ry="1.987" opacity="1" stroke-dasharray="none" stroke-opacity="1" fill="#875115" stroke="#6d4d0e" stroke-linejoin="round" fill-opacity="0.614" stroke-linecap="round" stroke-width="0.3" stroke-miterlimit="4" rx="1.987"/>
   </g>
   <g id="g6776" transform="matrix(0.4729469,-0.4868155,0.4868155,0.4729469,-37.167016,155.82329)">
    <path inkscape:connector-curvature="0" d="m 168.69396,79.529497 c -0.77811,-144.26697 -86.086692,-146.55732 -85.329585,-0.07374 l 85.329585,0.07374 z" id="path6778" sodipodi:nodetypes="ccc" stroke-opacity="1" fill="#000000" fill-rule="evenodd" stroke="url(#linearGradient6921)" stroke-linejoin="miter" fill-opacity="1" stroke-linecap="butt" stroke-width="0.742"/>
    <path inkscape:connector-curvature="0" sodipodi:nodetypes="cccsssccccssscc" id="path6780" d="m 168.71875,78.605574 -86.281248,0.375 0.84375,147.031256 c 0.27162,-0.0451 0.5594,-0.0937 0.84375,-0.0937 2.7973,0 5.0625,2.29645 5.0625,5.09375 0,2.79729 -2.26521,5.0625 -5.0625,5.0625 -0.26324,0 -0.5288,-0.055 -0.78125,-0.0937 l 0.0625,13.71875 85.624998,-0.84375 L 169,236.6433 c -0.0306,5.5e-4 -0.063,0 -0.0937,0 -2.79729,0 -5.0625,-2.2652 -5.0625,-5.0625 0,-2.79729 2.2652,-5.0625 5.0625,-5.0625 0.0308,0 0.0631,-5.5e-4 0.0937,0 L 168.71875,78.605574 Z" stroke-opacity="1" fill="url(#linearGradient6694)" fill-rule="evenodd" stroke="url(#linearGradient6925)" stroke-linejoin="miter" fill-opacity="1" stroke-linecap="butt" stroke-width="0.742"/>
    <path inkscape:connector-curvature="0" d="m 169.20082,98.884934 c 5.11898,-2.818375 4.99884,-9.788041 -0.0481,-11.592729 L 82.895334,87.65034 c -4.133344,2.33784 -4.233596,8.328847 0.179256,10.401847 l 86.12623,0.832747 z" id="path6782" sodipodi:nodetypes="ccccc" stroke-opacity="1" fill="url(#linearGradient6653)" fill-rule="evenodd" stroke="url(#linearGradient6655)" stroke-linejoin="miter" fill-opacity="1" stroke-linecap="butt" stroke-width="0.742"/>
    <path inkscape:connector-curvature="0" d="M 168.83412,79.122078 C 168.056,-65.144898 82.747417,-67.435262 83.504528,79.048329 l 85.329592,0.07375 z" id="path6784" sodipodi:nodetypes="ccc" stroke-opacity="1" fill="url(#radialGradient6931)" fill-rule="evenodd" stroke="url(#linearGradient6933)" stroke-linejoin="miter" fill-opacity="1" stroke-linecap="butt" stroke-width="0.742"/>
    <path inkscape:connector-curvature="0" sodipodi:nodetypes="ccccc" id="path6786" d="m 168.7094,116.37556 c 5.11898,-2.81837 4.99885,-9.78804 -0.0481,-11.59273 l -86.257352,0.35814 c -4.133344,2.33784 -4.233596,8.32885 0.179256,10.40185 l 86.126226,0.83274 z" stroke-opacity="1" fill="url(#linearGradient6668)" fill-rule="evenodd" stroke="url(#linearGradient6670)" stroke-linejoin="miter" fill-opacity="1" stroke-linecap="butt" stroke-width="0.742"/>
    <path inkscape:connector-curvature="0" sodipodi:nodetypes="ccccc" id="path6788" d="m 83.448273,226 85.603447,0 c -6.61391,0.60027 -7.27488,10.38278 0,10.94829 L 83.53448,236.17243 C 91.203487,236.15732 91.935696,226.3304 83.448273,226 Z" opacity="1" stroke-opacity="1" fill="url(#linearGradient6707)" stroke="#c8c5c5" stroke-linejoin="round" fill-opacity="1" stroke-linecap="round" stroke-width="0" stroke-miterlimit="4"/>
    <rect ry="1.987" y="237.89" x="82.52" height="10.232" width="88.11" id="rect6790" opacity="1" stroke-dasharray="none" stroke-opacity="1" fill="#875115" stroke="#6d4d0e" stroke-linejoin="round" fill-opacity="0.614" stroke-linecap="round" stroke-width="0.3" stroke-miterlimit="4" rx="1.987"/>
   </g>
  </g>
 </g>
 <g transform="matrix(0.82970571,0.25206226,0,1.0187909,42.14897,49.228139)" id="g3095">
  <path d="m -10.608435,-28.051268 2.6421394,-1.321069 c 0.54708,-2.31697 2.2015587,-4.950025 6.7254437,-6.32512 -3.306454,0.186674 -5.2210137,1.437738 -6.7254437,3.00243 -1.981169,1.479141 -2.3319794,3.06018 -2.6421394,4.643759 z" id="path3097" inkscape:connector-curvature="0" sodipodi:nodetypes="ccccc" fill="url(#linearGradient3858)" stroke="none" fill-opacity="1"/>
  <path inkscape:connector-curvature="0" id="path3099" d="m -4.6652759,154.85567 3.312751,-1.37079 128.1692849,12.33714 -4.45508,1.14235 z" opacity="0.771" fill="url(#linearGradient3916)" stroke="none" fill-opacity="1"/>
  <path sodipodi:nodetypes="ccccc" inkscape:connector-curvature="0" id="path3101" d="m 121.93103,167.40254 c 3.22056,1.30219 7.76972,-3.23263 8.1687,-6.41288 l 3.01979,-2.24417 c 0.63231,4.07648 -2.777,8.03896 -7.56896,9.56853 z" fill="url(#linearGradient3902)" stroke="none" fill-opacity="1"/>
  <rect id="rect3103" width="141.62" height="189.54" x="-10.624" y="-36.518" ry="7.847" transform="matrix(0.99529408,0.09690046,0,1,0,0)" stroke-miterlimit="4" rx="7.847" opacity="0.6" stroke-dasharray="none" stroke-opacity="0.427" fill="#123e50" stroke="#b6ccd6" fill-opacity="0.473" stroke-width="1.658"/>
  <path sodipodi:nodetypes="ccccc" inkscape:connector-curvature="0" id="path3105" d="m -10.438287,-28.064586 3.8367514,-1.918377 -1.278914,173.932763 -3.1972864,2.77098 z" fill="#204757" stroke="none" fill-opacity="0.585"/>
  <rect transform="matrix(0.99529408,0.09690046,0,1,0,0)" ry="7.847" y="-33.755" x="-11.295" height="189.54" width="141.62" id="rect3107" stroke-miterlimit="4" rx="7.847" opacity="0.6" stroke-dasharray="none" stroke-opacity="0.427" fill="url(#linearGradient3873)" stroke="#b6ccd6" fill-opacity="1" stroke-width="1.658"/>
  <path d="M -3.4318059,-33.792685 121.89858,-21.590691 c 4.327,0.42127 7.81046,4.260354 7.81046,8.607811 l 0,90.848605 C 54.589503,-16.357873 19.503097,-2.6350023 -11.242272,22.793157 l 0,-49.498863 c 0,-4.347457 3.4834714,-7.508249 7.8104661,-7.086979 z" id="path3109" inkscape:connector-curvature="0" sodipodi:nodetypes="sssccss" opacity="0.6" fill="url(#linearGradient3884)" stroke="none" fill-opacity="1"/>
  <path d="m 130.02946,-14.635954 3.83676,-1.918377 -0.63946,175.424831 -3.19729,2.13152 z" id="path3111" inkscape:connector-curvature="0" sodipodi:nodetypes="ccccc" fill="#204757" stroke="none" fill-opacity="0.44"/>
  <path d="m 121.34291,-22.24568 c 5.27031,0.145 8.3326,4.376719 8.73158,7.556978 l 3.74174,-1.834104 c -0.28018,-2.408813 -3.60103,-7.720526 -9.58373,-7.155247 z" id="path3113" inkscape:connector-curvature="0" sodipodi:nodetypes="ccccc" fill="url(#linearGradient3127)" stroke="none" fill-opacity="1"/>
  <path d="m -4.6652759,-34.448618 3.312751,-1.370794 125.5497849,12.19048 -2.5033,1.20322 z" id="path3115" inkscape:connector-curvature="0" sodipodi:nodetypes="ccccc" fill="url(#linearGradient3129)" stroke="none" fill-opacity="1"/>
 </g>
 <g transform="matrix(0.837865,0.647118,-0.637461,0.850558,398.41788,74.992772)" id="g2042" stroke-dasharray="none" stroke-opacity="1" fill="#ff0000" stroke="none" fill-opacity="1" stroke-width="1" stroke-miterlimit="4"/>
</svg>
