<?xml version="1.0" encoding="UTF-8" standalone="no"?>
<!-- Created with Inkscape (http://www.inkscape.org/) -->

<svg
   xmlns:a="http://ns.adobe.com/AdobeSVGViewerExtensions/3.0/"
   xmlns:dc="http://purl.org/dc/elements/1.1/"
   xmlns:cc="http://creativecommons.org/ns#"
   xmlns:rdf="http://www.w3.org/1999/02/22-rdf-syntax-ns#"
   xmlns:svg="http://www.w3.org/2000/svg"
   xmlns="http://www.w3.org/2000/svg"
   xmlns:xlink="http://www.w3.org/1999/xlink"
   xmlns:sodipodi="http://sodipodi.sourceforge.net/DTD/sodipodi-0.dtd"
   xmlns:inkscape="http://www.inkscape.org/namespaces/inkscape"
   id="svg2272"
   sodipodi:version="0.32"
   inkscape:version="0.92.5 (2060ec1f9f, 2020-04-08)"
   width="256"
   height="256"
   sodipodi:docname="panel-symbolic-shell-scripts.svg"
   version="1.0"
   inkscape:output_extension="org.inkscape.output.svg.inkscape">
  <metadata
     id="metadata2277">
    <rdf:RDF>
      <cc:Work>
        <dc:format>image/svg+xml</dc:format>
        <dc:type
           rdf:resource="http://purl.org/dc/dcmitype/StillImage" />
        <dc:title />
      </cc:Work>
    </rdf:RDF>
  </metadata>
  <defs
     id="defs2275">
    <linearGradient
       id="linearGradient5560">
      <stop
         id="stop5562"
         stop-color="#ffffff"
         stop-opacity="1" />
      <stop
         id="stop5564"
         offset="0.41"
         stop-color="#e4c9a5"
         stop-opacity="1" />
      <stop
         id="stop5566"
         offset="1"
         stop-color="#804e11"
         stop-opacity="1" />
    </linearGradient>
    <linearGradient
       id="linearGradient5552">
      <stop
         id="stop5554"
         stop-color="#ffffff"
         stop-opacity="1" />
      <stop
         id="stop5556"
         offset="0.411"
         stop-color="#e4c9a5"
         stop-opacity="1" />
      <stop
         id="stop5558"
         offset="1"
         stop-color="#804e11"
         stop-opacity="1" />
    </linearGradient>
    <linearGradient
       id="linearGradient5544">
      <stop
         id="stop5546"
         stop-color="#ffffff"
         stop-opacity="1" />
      <stop
         offset="0.376"
         id="stop5548"
         stop-color="#e4c9a5"
         stop-opacity="1" />
      <stop
         offset="1"
         id="stop5550"
         stop-color="#804e11"
         stop-opacity="1" />
    </linearGradient>
    <linearGradient
       id="linearGradient5536">
      <stop
         id="stop5538"
         stop-color="#ffffff"
         stop-opacity="1" />
      <stop
         id="stop5540"
         offset="0.348"
         stop-color="#e4c9a5"
         stop-opacity="1" />
      <stop
         id="stop5542"
         offset="1"
         stop-color="#804e11"
         stop-opacity="1" />
    </linearGradient>
    <linearGradient
       id="linearGradient5528">
      <stop
         id="stop5530"
         stop-color="#ffffff"
         stop-opacity="1" />
      <stop
         id="stop5532"
         offset="0.32"
         stop-color="#e4c9a5"
         stop-opacity="1" />
      <stop
         id="stop5534"
         offset="1"
         stop-color="#804e11"
         stop-opacity="1" />
    </linearGradient>
    <linearGradient
       id="linearGradient5516">
      <stop
         id="stop5518"
         stop-color="#020201"
         stop-opacity="1" />
      <stop
         id="stop5520"
         offset="0.5"
         stop-color="#d6bb8f"
         stop-opacity="1" />
      <stop
         offset="0.691"
         id="stop5522"
         stop-color="#ffffff"
         stop-opacity="1" />
      <stop
         id="stop5524"
         offset="0.875"
         stop-color="#d2b18d"
         stop-opacity="1" />
      <stop
         offset="1"
         id="stop5526"
         stop-color="#ab7128"
         stop-opacity="1" />
    </linearGradient>
    <linearGradient
       gradientTransform="matrix(1.270572,0,0,1,-23.78315,-1.733539)"
       id="linearGradient5510"
       gradientUnits="userSpaceOnUse"
       x1="59.773"
       y1="0.028"
       x2="59.773"
       y2="59.23">
      <stop
         id="stop5512"
         stop-color="#d7cab0"
         stop-opacity="1" />
      <stop
         offset="1"
         id="stop5514"
         stop-color="#ceb28f"
         stop-opacity="0" />
    </linearGradient>
    <linearGradient
       id="linearGradient5502">
      <stop
         id="stop5504"
         stop-color="#a7a7a7"
         stop-opacity="1" />
      <stop
         offset="0.5"
         id="stop5506"
         stop-color="#787878"
         stop-opacity="1" />
      <stop
         id="stop5508"
         offset="1"
         stop-color="#ccb78c"
         stop-opacity="0" />
    </linearGradient>
    <linearGradient
       id="linearGradient5493">
      <stop
         id="stop5495"
         stop-color="#d8ceb2"
         stop-opacity="1" />
      <stop
         id="stop5497"
         offset="0.537"
         stop-color="#ab7c3c"
         stop-opacity="1" />
      <stop
         id="stop5499"
         offset="1"
         stop-color="#4d3409"
         stop-opacity="1" />
    </linearGradient>
    <linearGradient
       id="linearGradient5483">
      <stop
         id="stop5485"
         stop-color="white"
         stop-opacity="1" />
      <stop
         id="stop5487"
         offset="0.5"
         stop-color="#cda972"
         stop-opacity="1" />
      <stop
         offset="0.75"
         id="stop5489"
         stop-color="#9b692b"
         stop-opacity="1" />
      <stop
         offset="1"
         id="stop5491"
         stop-color="#4a320c"
         stop-opacity="1" />
    </linearGradient>
    <linearGradient
       y2="59.23"
       x2="59.773"
       y1="0.028"
       x1="59.773"
       gradientUnits="userSpaceOnUse"
       id="linearGradient3519"
       gradientTransform="matrix(1.270572,0,0,1,-23.78315,-1.733539)">
      <stop
         id="stop3521"
         offset="0%"
         stop-color="rgb(255,255,255)" />
      <stop
         id="stop3523"
         offset="1"
         stop-color="#c09765"
         stop-opacity="0" />
    </linearGradient>
    <linearGradient
       y2="-7.475"
       x2="16.09"
       y1="-7.475"
       x1="13.515"
       spreadMethod="reflect"
       gradientUnits="userSpaceOnUse"
       id="linearGradient2595"
       xlink:href="#linearGradient3578"
       inkscape:collect="always" />
    <linearGradient
       y2="-7.475"
       x2="16.09"
       y1="-2.21"
       x1="15.65"
       spreadMethod="reflect"
       gradientUnits="userSpaceOnUse"
       id="linearGradient3610"
       xlink:href="#linearGradient3578"
       inkscape:collect="always" />
    <linearGradient
       y2="-7.475"
       x2="16.09"
       y1="-6.409"
       x1="10.621"
       spreadMethod="reflect"
       gradientUnits="userSpaceOnUse"
       id="linearGradient3608"
       xlink:href="#linearGradient3578"
       inkscape:collect="always" />
    <linearGradient
       y2="-1.513"
       x2="9.718"
       y1="-5.887"
       x1="11.187"
       spreadMethod="reflect"
       gradientUnits="userSpaceOnUse"
       id="linearGradient3606"
       xlink:href="#linearGradient3578"
       inkscape:collect="always" />
    <linearGradient
       y2="-4.516"
       x2="12.916"
       y1="-3.754"
       x1="7.771"
       spreadMethod="reflect"
       gradientUnits="userSpaceOnUse"
       id="linearGradient3604"
       xlink:href="#linearGradient3578"
       inkscape:collect="always" />
    <linearGradient
       y2="-3.733"
       x2="14.94"
       y1="-2.275"
       x1="17.08"
       spreadMethod="reflect"
       gradientUnits="userSpaceOnUse"
       id="linearGradient3602"
       xlink:href="#linearGradient3578"
       inkscape:collect="always" />
    <linearGradient
       y2="-1.992"
       x2="17.377"
       y1="-6.256"
       x1="15.582"
       spreadMethod="reflect"
       gradientUnits="userSpaceOnUse"
       id="linearGradient3600"
       xlink:href="#linearGradient3578"
       inkscape:collect="always" />
    <linearGradient
       y2="-7.475"
       x2="16.09"
       y1="-10.978"
       x1="16.691"
       spreadMethod="reflect"
       gradientUnits="userSpaceOnUse"
       id="linearGradient3598"
       xlink:href="#linearGradient3578"
       inkscape:collect="always" />
    <linearGradient
       y2="-11.199"
       x2="11.132"
       y1="-11.391"
       x1="16.387"
       spreadMethod="reflect"
       gradientUnits="userSpaceOnUse"
       id="linearGradient3596"
       xlink:href="#linearGradient3578"
       inkscape:collect="always" />
    <linearGradient
       y2="-2.688"
       x2="8.696"
       y1="-11.587"
       x1="12.04"
       spreadMethod="reflect"
       gradientUnits="userSpaceOnUse"
       id="linearGradient3594"
       xlink:href="#linearGradient3578"
       inkscape:collect="always" />
    <linearGradient
       y2="-5.778"
       x2="11.372"
       y1="-10.151"
       x1="12.906"
       spreadMethod="reflect"
       gradientUnits="userSpaceOnUse"
       id="linearGradient3592"
       xlink:href="#linearGradient3578"
       inkscape:collect="always" />
    <linearGradient
       y2="-6.953"
       x2="17.747"
       y1="-5.908"
       x1="16.387"
       spreadMethod="reflect"
       gradientUnits="userSpaceOnUse"
       id="linearGradient3590"
       xlink:href="#linearGradient3578"
       inkscape:collect="always" />
    <linearGradient
       y2="-8.02"
       x2="17.07"
       y1="-7.475"
       x1="13.515"
       spreadMethod="reflect"
       gradientUnits="userSpaceOnUse"
       id="linearGradient3588"
       xlink:href="#linearGradient3578"
       inkscape:collect="always" />
    <linearGradient
       y2="-6.583"
       x2="18.617"
       y1="-5.212"
       x1="16.909"
       spreadMethod="reflect"
       gradientUnits="userSpaceOnUse"
       id="linearGradient3586"
       xlink:href="#linearGradient3578"
       inkscape:collect="always" />
    <linearGradient
       id="linearGradient3578">
      <stop
         id="stop3580"
         stop-color="#000000"
         stop-opacity="1" />
      <stop
         id="stop3582"
         offset="1"
         stop-color="#fffcfc"
         stop-opacity="1" />
    </linearGradient>
    <linearGradient
       id="linearGradient2847">
      <stop
         id="stop2849"
         stop-color="#ffffff"
         stop-opacity="1" />
      <stop
         id="stop2899"
         stop-color="#e4c9a5"
         stop-opacity="1" />
      <stop
         offset="1"
         id="stop2851"
         stop-color="#804e11"
         stop-opacity="1" />
    </linearGradient>
    <linearGradient
       id="linearGradient2817">
      <stop
         id="stop2819"
         stop-color="#a7a7a7"
         stop-opacity="1" />
      <stop
         id="stop2825"
         offset="0.5"
         stop-color="#787878"
         stop-opacity="1" />
      <stop
         offset="1"
         id="stop2823"
         stop-color="#ddd1b2"
         stop-opacity="0" />
    </linearGradient>
    <linearGradient
       id="linearGradient2801">
      <stop
         id="stop2803"
         stop-color="white"
         stop-opacity="1" />
      <stop
         offset="0.5"
         id="stop2805"
         stop-color="#e4c596"
         stop-opacity="1" />
      <stop
         id="stop2901"
         offset="0.75"
         stop-color="#cd9249"
         stop-opacity="1" />
      <stop
         id="stop2807"
         offset="1"
         stop-color="#9d6b1a"
         stop-opacity="1" />
    </linearGradient>
    <radialGradient
       inkscape:collect="always"
       xlink:href="#linearGradient2801"
       id="radialGradient4645"
       gradientUnits="userSpaceOnUse"
       gradientTransform="matrix(-0.7775,0.776906,-0.579068,-0.579511,1359.2,-135.0146)"
       cx="638.46"
       cy="365.86"
       fx="638.46"
       fy="365.86"
       r="170.16" />
    <radialGradient
       inkscape:collect="always"
       xlink:href="#linearGradient5516"
       id="radialGradient4647"
       gradientUnits="userSpaceOnUse"
       gradientTransform="matrix(-1.17273,-0.09334766,0.06491377,-0.81549,991.177,599.3364)"
       cx="342.26"
       cy="457.15"
       fx="342.26"
       fy="457.15"
       r="167.77" />
    <radialGradient
       inkscape:collect="always"
       xlink:href="#linearGradient2817"
       id="radialGradient4649"
       gradientUnits="userSpaceOnUse"
       gradientTransform="matrix(0.540058,-0.144735,0.140112,0.522807,190.6058,276.795)"
       cx="749.02"
       cy="252.67"
       fx="749.02"
       fy="252.67"
       r="170.16" />
    <radialGradient
       inkscape:collect="always"
       xlink:href="#linearGradient5528"
       id="radialGradient4651"
       gradientUnits="userSpaceOnUse"
       gradientTransform="matrix(1.047247,1.175513,-1.037001,0.923849,153.2897,-1218.425)"
       cx="901.12"
       cy="287.31"
       fx="901.12"
       fy="287.31"
       r="63.34" />
    <radialGradient
       inkscape:collect="always"
       xlink:href="#linearGradient5536"
       id="radialGradient4653"
       gradientUnits="userSpaceOnUse"
       gradientTransform="matrix(0.7213596,1.5187769,-1.0392132,0.6544564,581.67075,-1587.1244)"
       cx="940.54"
       cy="378.48"
       fx="940.54"
       fy="378.48"
       r="45.04" />
    <radialGradient
       inkscape:collect="always"
       xlink:href="#linearGradient5544"
       id="radialGradient4655"
       gradientUnits="userSpaceOnUse"
       gradientTransform="matrix(0.89659036,0.98441103,-0.67336007,0.59795254,298.41757,-1115.9211)"
       cx="972.61"
       cy="379.72"
       fx="972.61"
       fy="379.72"
       r="32.27" />
    <radialGradient
       inkscape:collect="always"
       xlink:href="#linearGradient5552"
       id="radialGradient4657"
       gradientUnits="userSpaceOnUse"
       gradientTransform="matrix(1.0232194,0.90302325,-0.72716241,0.83216453,157.40097,-1191.7525)"
       cx="1037.96"
       cy="380.63"
       fx="1037.96"
       fy="380.63"
       r="24.588" />
    <radialGradient
       inkscape:collect="always"
       xlink:href="#linearGradient5510"
       id="radialGradient4659"
       gradientUnits="userSpaceOnUse"
       gradientTransform="matrix(-0.7655458,0.2165779,-0.1375756,-0.4341752,948.62869,352.52282)"
       cx="328.68"
       cy="375.87"
       fx="328.68"
       fy="375.87"
       r="167.77" />
    <radialGradient
       inkscape:collect="always"
       xlink:href="#linearGradient5560"
       id="radialGradient4661"
       gradientUnits="userSpaceOnUse"
       gradientTransform="matrix(1.9185971,-0.63075414,0.20422844,0.5739578,-980.24314,463.76691)"
       cx="977.95"
       cy="362.16"
       fx="977.95"
       fy="362.16"
       r="30.72" />
    <linearGradient
       id="linearGradient4806">
      <stop
         stop-opacity="0.126"
         stop-color="#398baf"
         id="stop4808" />
      <stop
         stop-opacity="1"
         stop-color="#ffffff"
         offset="1"
         id="stop4810" />
    </linearGradient>
    <linearGradient
       id="linearGradient4800">
      <stop
         stop-opacity="0.445"
         stop-color="#3b7d99"
         id="stop4802" />
      <stop
         stop-opacity="1"
         stop-color="#ffffff"
         offset="1"
         id="stop4804" />
    </linearGradient>
    <linearGradient
       id="linearGradient4794">
      <stop
         stop-opacity="0.33"
         stop-color="#45819b"
         id="stop4796" />
      <stop
         stop-opacity="1"
         stop-color="#ffffff"
         offset="1"
         id="stop4798" />
    </linearGradient>
    <linearGradient
       id="linearGradient3828">
      <stop
         stop-opacity="0.486"
         stop-color="#ffffff"
         id="stop3830" />
      <stop
         stop-opacity="0"
         stop-color="#286483"
         offset="1"
         id="stop3832" />
    </linearGradient>
    <linearGradient
       id="linearGradient3906">
      <stop
         stop-opacity="1"
         stop-color="#cedce2"
         id="stop3908" />
      <stop
         stop-opacity="0"
         stop-color="#cedce2"
         id="stop3910"
         offset="1" />
    </linearGradient>
    <linearGradient
       id="linearGradient3892">
      <stop
         stop-opacity="0.132"
         stop-color="#4b98ba"
         id="stop3894" />
      <stop
         stop-opacity="1"
         stop-color="#ffffff"
         id="stop3896"
         offset="1" />
    </linearGradient>
    <linearGradient
       id="linearGradient3878">
      <stop
         stop-opacity="0.915"
         stop-color="#cdeaf6"
         id="stop3880" />
      <stop
         stop-opacity="0"
         stop-color="#c5e1ed"
         id="stop3882"
         offset="1" />
    </linearGradient>
    <linearGradient
       id="linearGradient3867">
      <stop
         stop-opacity="0.338"
         stop-color="#99bbc9"
         id="stop3869" />
      <stop
         stop-opacity="0"
         stop-color="#174457"
         id="stop3871"
         offset="1" />
    </linearGradient>
    <linearGradient
       id="linearGradient3851">
      <stop
         stop-opacity="0.683"
         stop-color="#123e50"
         id="stop3853" />
      <stop
         stop-opacity="0.749"
         stop-color="#c6d7de"
         offset="0.371"
         id="stop3861" />
      <stop
         stop-opacity="0.782"
         stop-color="#123e50"
         offset="0.716"
         id="stop3859" />
      <stop
         stop-opacity="0.099"
         stop-color="#c3d4db"
         id="stop3855"
         offset="1" />
    </linearGradient>
    <linearGradient
       id="linearGradient3824">
      <stop
         stop-opacity="0.838"
         stop-color="#ffffff"
         id="stop3826" />
      <stop
         stop-opacity="0"
         stop-color="#70b5d4"
         offset="1"
         id="stop3828" />
    </linearGradient>
    <linearGradient
       id="linearGradient3815">
      <stop
         stop-opacity="0.113"
         stop-color="#9fcaff"
         id="stop3817" />
      <stop
         stop-opacity="0"
         stop-color="#668dbd"
         offset="1"
         id="stop3819" />
    </linearGradient>
    <linearGradient
       id="linearGradient3773">
      <stop
         stop-opacity="0.838"
         stop-color="#70b5d4"
         id="stop3775" />
      <stop
         stop-opacity="0.275"
         stop-color="#70b5d4"
         id="stop3777"
         offset="1" />
    </linearGradient>
    <linearGradient
       id="linearGradient3765">
      <stop
         stop-opacity="0.353"
         stop-color="#668dbd"
         id="stop3767" />
      <stop
         stop-opacity="0.094"
         stop-color="#668dbd"
         id="stop3769"
         offset="1" />
    </linearGradient>
    <linearGradient
       gradientTransform="matrix(0.82699483,0,0,0.82699483,-169.83849,-1.9007072)"
       spreadMethod="reflect"
       gradientUnits="userSpaceOnUse"
       y2="54.15"
       x2="278.95"
       y1="56.22"
       x1="227.44"
       id="linearGradient3873"
       xlink:href="#linearGradient3867"
       inkscape:collect="always" />
    <linearGradient
       gradientTransform="matrix(0.82310306,0.08013618,0,0.82699483,-170.30296,-15.751576)"
       gradientUnits="userSpaceOnUse"
       y2="30.14"
       x2="264.02"
       y1="-44.748"
       x1="289.32"
       id="linearGradient3884"
       xlink:href="#linearGradient3878"
       inkscape:collect="always" />
    <linearGradient
       gradientTransform="matrix(0.82699483,0,0,0.82699483,-170.30296,-15.751576)"
       spreadMethod="reflect"
       gradientUnits="userSpaceOnUse"
       y2="-6.63"
       x2="361"
       y1="0.77"
       x1="364.85"
       id="linearGradient3898"
       xlink:href="#linearGradient4794"
       inkscape:collect="always" />
    <linearGradient
       gradientTransform="matrix(0.82699483,0,0,-0.82699483,-170.51474,161.48411)"
       y2="-4.093"
       x2="361.38"
       y1="-8.398"
       x1="356.22"
       spreadMethod="reflect"
       gradientUnits="userSpaceOnUse"
       id="linearGradient3902"
       xlink:href="#linearGradient4806"
       inkscape:collect="always" />
    <linearGradient
       gradientTransform="matrix(0.82699483,0,0,0.82699483,-170.30296,-15.751576)"
       spreadMethod="reflect"
       gradientUnits="userSpaceOnUse"
       y2="-16.12"
       x2="359.28"
       y1="-13.08"
       x1="317.98"
       id="linearGradient3912"
       xlink:href="#linearGradient3906"
       inkscape:collect="always" />
    <linearGradient
       gradientTransform="matrix(0.82699483,0,0,0.82699483,-170.30296,173.55271)"
       y2="-16.12"
       x2="359.28"
       y1="-13.08"
       x1="317.98"
       spreadMethod="reflect"
       gradientUnits="userSpaceOnUse"
       id="linearGradient3916"
       xlink:href="#linearGradient3906"
       inkscape:collect="always" />
    <linearGradient
       y2="6.578"
       x2="63.37"
       y1="10.421"
       x1="61.93"
       spreadMethod="reflect"
       gradientTransform="translate(-69.456067,-43.096235)"
       gradientUnits="userSpaceOnUse"
       id="linearGradient3858"
       xlink:href="#linearGradient3828"
       inkscape:collect="always" />
    <linearGradient
       y2="-4.093"
       x2="361.38"
       y1="-9.786"
       x1="359.71"
       spreadMethod="reflect"
       gradientTransform="matrix(0.82699483,0,0,-0.82699483,-170.51474,161.48411)"
       gradientUnits="userSpaceOnUse"
       id="linearGradient3121"
       xlink:href="#linearGradient3892"
       inkscape:collect="always" />
    <linearGradient
       y2="54.15"
       x2="278.95"
       y1="56.22"
       x1="227.44"
       spreadMethod="reflect"
       gradientTransform="matrix(0.82699483,0,0,0.82699483,-169.68288,-1.1114612)"
       gradientUnits="userSpaceOnUse"
       id="linearGradient3123"
       xlink:href="#linearGradient3867"
       inkscape:collect="always" />
    <linearGradient
       y2="-5.81"
       x2="360.19"
       y1="0.636"
       x1="364.04"
       spreadMethod="reflect"
       gradientTransform="matrix(0.82699483,0,0,0.82699483,-170.30296,-15.751576)"
       gradientUnits="userSpaceOnUse"
       id="linearGradient3127"
       xlink:href="#linearGradient4800"
       inkscape:collect="always" />
    <linearGradient
       y2="-13.995"
       x2="330.8"
       y1="-13.14"
       x1="290.73"
       spreadMethod="reflect"
       gradientTransform="matrix(0.82699483,0,0,0.82699483,-170.30296,-15.751576)"
       gradientUnits="userSpaceOnUse"
       id="linearGradient3129"
       xlink:href="#linearGradient3906"
       inkscape:collect="always" />
    <linearGradient
       y2="40.478"
       x2="76.24"
       y1="31.681"
       x1="76.24"
       gradientUnits="userSpaceOnUse"
       id="XMLID_26_"
       gradientTransform="matrix(2.161916,0,0,2.599807,-140.2925,-51.89728)">
      <stop
         stop-color="rgb(255,255,255)"
         id="stop191"
         offset="8.04598%" />
      <stop
         stop-opacity="0"
         stop-color="rgb(255,255,255)"
         id="stop193"
         offset="100%" />
    </linearGradient>
    <radialGradient
       gradientUnits="userSpaceOnUse"
       fy="49.45"
       fx="76.51"
       r="14.862"
       cy="49.45"
       cx="76.51"
       id="XMLID_25_"
       gradientTransform="matrix(2.161916,0,0,2.599807,-139.8969,-51.106)">
      <stop
         stop-color="rgb(187,235,255)"
         id="stop184" />
      <stop
         stop-opacity="1"
         stop-color="#7b7b7d"
         id="stop186"
         offset="1" />
      <a:midPointStop
         stop-color="#BBEBFF"
         offset="0" />
      <a:midPointStop
         stop-color="#BBEBFF"
         offset="0.5" />
      <a:midPointStop
         stop-color="#003DD7"
         offset="1" />
    </radialGradient>
    <radialGradient
       gradientTransform="matrix(2.161916,0,0,2.599807,-139.8969,-51.106)"
       id="radialGradient3407"
       cx="76.51"
       cy="49.45"
       r="14.862"
       fx="76.51"
       fy="49.45"
       gradientUnits="userSpaceOnUse">
      <stop
         stop-opacity="1"
         stop-color="#55b6de"
         id="stop3409" />
      <stop
         stop-opacity="1"
         stop-color="#000007"
         offset="1"
         id="stop3411" />
      <a:midPointStop
         stop-color="#BBEBFF"
         offset="0" />
      <a:midPointStop
         stop-color="#BBEBFF"
         offset="0.5" />
      <a:midPointStop
         stop-color="#003DD7"
         offset="1" />
    </radialGradient>
    <linearGradient
       id="linearGradient2924">
      <stop
         stop-opacity="0.754"
         stop-color="#205274"
         id="stop2926" />
      <stop
         stop-opacity="0.458"
         stop-color="#ffffff"
         id="stop2928"
         offset="1" />
    </linearGradient>
    <linearGradient
       y2="254.22"
       x2="266.18"
       y1="253.18"
       x1="229.62"
       spreadMethod="reflect"
       gradientTransform="matrix(0.82699483,0,0,-0.82699483,-106.37695,393.98956)"
       gradientUnits="userSpaceOnUse"
       id="linearGradient3662"
       xlink:href="#linearGradient3828"
       inkscape:collect="always" />
    <linearGradient
       y2="252.55"
       x2="249.45"
       y1="251.92"
       x1="226.48"
       spreadMethod="reflect"
       gradientTransform="matrix(-0.82002201,-0.10716502,0.10716502,-0.82002201,367.07244,422.46474)"
       gradientUnits="userSpaceOnUse"
       id="linearGradient3664"
       xlink:href="#linearGradient3828"
       inkscape:collect="always" />
    <linearGradient
       y2="256.25"
       x2="17.757"
       y1="183.53"
       x1="17.757"
       gradientUnits="userSpaceOnUse"
       id="linearGradient3666"
       xlink:href="#linearGradient3765"
       inkscape:collect="always" />
    <linearGradient
       y2="173.91"
       x2="67.09"
       y1="264.77"
       x1="66.09"
       gradientUnits="userSpaceOnUse"
       id="linearGradient3668"
       xlink:href="#linearGradient3773"
       inkscape:collect="always" />
    <linearGradient
       y2="234.6"
       x2="354.07"
       y1="236.06"
       x1="218.43"
       spreadMethod="reflect"
       gradientTransform="matrix(0.82699483,0,0,0.82699483,-100.84689,27.344659)"
       gradientUnits="userSpaceOnUse"
       id="linearGradient3670"
       xlink:href="#linearGradient3851"
       inkscape:collect="always" />
    <linearGradient
       y2="252.55"
       x2="249.45"
       y1="251.92"
       x1="226.48"
       spreadMethod="reflect"
       gradientTransform="matrix(0.82699483,0,0,0.60822815,-100.84689,80.374138)"
       gradientUnits="userSpaceOnUse"
       id="linearGradient3674"
       xlink:href="#linearGradient3828"
       inkscape:collect="always" />
    <linearGradient
       y2="254.22"
       x2="266.18"
       y1="253.18"
       x1="229.62"
       spreadMethod="reflect"
       gradientTransform="matrix(-0.82699483,0,0,0.6334491,365.06232,74.617591)"
       gradientUnits="userSpaceOnUse"
       id="linearGradient3676"
       xlink:href="#linearGradient3828"
       inkscape:collect="always" />
    <radialGradient
       r="126.76"
       fy="149.73"
       fx="-39.669"
       cy="149.73"
       cx="-39.669"
       spreadMethod="reflect"
       gradientTransform="matrix(1,0,0,0.28322862,0,157.8256)"
       gradientUnits="userSpaceOnUse"
       id="radialGradient3678"
       xlink:href="#linearGradient3815"
       inkscape:collect="always" />
    <linearGradient
       y2="234.13"
       x2="144.1"
       y1="264.77"
       x1="66.09"
       spreadMethod="reflect"
       gradientTransform="matrix(0.82699483,0,0,0.862037,114.19173,14.733697)"
       gradientUnits="userSpaceOnUse"
       id="linearGradient3682"
       xlink:href="#linearGradient3824"
       inkscape:collect="always" />
    <linearGradient
       inkscape:collect="always"
       xlink:href="#linearGradient3773"
       id="linearGradient5184"
       gradientUnits="userSpaceOnUse"
       x1="66.09"
       y1="264.77"
       x2="67.09"
       y2="173.91" />
    <linearGradient
       inkscape:collect="always"
       xlink:href="#linearGradient3773"
       id="linearGradient5186"
       gradientUnits="userSpaceOnUse"
       x1="66.09"
       y1="264.77"
       x2="67.09"
       y2="173.91" />
    <linearGradient
       inkscape:collect="always"
       xlink:href="#linearGradient3828"
       id="linearGradient5188"
       gradientUnits="userSpaceOnUse"
       gradientTransform="translate(-69.456067,-43.096235)"
       spreadMethod="reflect"
       x1="61.93"
       y1="10.421"
       x2="63.37"
       y2="6.578" />
    <linearGradient
       inkscape:collect="always"
       xlink:href="#linearGradient3906"
       id="linearGradient5190"
       gradientUnits="userSpaceOnUse"
       gradientTransform="matrix(0.82699483,0,0,0.82699483,-170.30296,173.55271)"
       spreadMethod="reflect"
       x1="317.98"
       y1="-13.08"
       x2="359.28"
       y2="-16.12" />
    <linearGradient
       inkscape:collect="always"
       xlink:href="#linearGradient3878"
       id="linearGradient5192"
       gradientUnits="userSpaceOnUse"
       gradientTransform="matrix(0.82310306,0.08013618,0,0.82699483,-170.30296,-15.751576)"
       x1="289.32"
       y1="-44.748"
       x2="264.02"
       y2="30.14" />
    <filter
       inkscape:collect="always"
       style="color-interpolation-filters:sRGB"
       id="filter1222"
       x="-0.033299521"
       width="1.066599"
       y="-0.039177133"
       height="1.0783543">
      <feGaussianBlur
         inkscape:collect="always"
         stdDeviation="2.5974637"
         id="feGaussianBlur1224" />
    </filter>
  </defs>
  <sodipodi:namedview
     inkscape:window-height="1056"
     inkscape:window-width="1920"
     inkscape:pageshadow="2"
     inkscape:pageopacity="0"
     borderopacity="1.0"
     bordercolor="#666666"
     pagecolor="#ffffff"
     id="base"
     inkscape:zoom="3.4414062"
     inkscape:cx="128"
     inkscape:cy="128"
     inkscape:window-x="0"
     inkscape:window-y="0"
     inkscape:current-layer="svg2272"
     showgrid="false"
     inkscape:window-maximized="1"
     inkscape:snap-to-guides="false"
     inkscape:snap-grids="false"
     inkscape:snap-others="false"
     inkscape:object-nodes="false"
     inkscape:snap-nodes="false"
     inkscape:snap-global="false" />
  <g
     id="g3846"
     transform="matrix(1.0183153,0.03112447,-0.03112447,1.0183153,3.3611579,-9.8447514)">
    <path
       style="opacity:0.6;fill:url(#linearGradient3662);fill-opacity:1;stroke:none"
       sodipodi:nodetypes="ccccc"
       inkscape:connector-curvature="0"
       id="path3807"
       d="m 54.736434,189.87309 c 11.34321,-2.98591 45.458516,-11.09467 58.887356,-9.85865 l -0.88646,-4.41695 c -12.71639,0.16462 -45.30945,4.76633 -58.433689,9.79607 z" />
    <path
       style="fill:url(#linearGradient3664);fill-opacity:1;stroke:none"
       d="m 225.18456,193.8499 c -10.99552,-4.57681 -21.97894,-7.51195 -35.15989,-9.58669 l 1.51764,-4.32005 c 13.50116,1.50274 24.01737,6.30605 34.7842,10.30907 z"
       id="path3803"
       inkscape:connector-curvature="0"
       sodipodi:nodetypes="ccccc" />
    <path
       style="fill:#7b97c2;fill-opacity:0.33200001;stroke:none"
       sodipodi:nodetypes="ccccc"
       inkscape:connector-curvature="0"
       id="path3781"
       d="m 29.95332,202.76883 0.295954,6.78299 c 17.429155,-41.66727 194.671716,-41.85651 208.155156,0 l -0.29595,-6.50171 C 231.10287,165.65974 39.311097,165.15265 29.95332,202.76883 Z" />
    <ellipse
       style="fill:url(#linearGradient3666);fill-opacity:1;stroke:url(#linearGradient5184);stroke-width:1.95899999;stroke-miterlimit:4;stroke-dasharray:none;stroke-opacity:0.42699998"
       ry="34.922543"
       rx="125.78035"
       cy="220.18959"
       cx="24.564161"
       transform="matrix(0.82699483,0,0,0.862037,115.18046,19.830364)"
       id="path3755"
       stroke-miterlimit="4" />
    <path
       style="fill:url(#linearGradient3670);fill-opacity:1;stroke:none"
       d="m 29.982648,213.06881 0.06684,-8.22029 c 13.101763,40.12356 195.926662,39.62893 207.496412,1.43728 l 0.59191,6.50172 C 231.1322,250.1779 39.340425,250.68498 29.982648,213.06881 Z"
       id="path3783"
       inkscape:connector-curvature="0"
       sodipodi:nodetypes="ccccc" />
    <ellipse
       style="fill:none;stroke:url(#linearGradient5186);stroke-width:1.95899999;stroke-miterlimit:4;stroke-dasharray:none;stroke-opacity:0.42699998"
       ry="34.922543"
       rx="125.78035"
       cy="220.18959"
       cx="24.564161"
       id="path3785"
       transform="matrix(0.82699483,0,0,0.88958816,114.51701,13.92547)"
       stroke-miterlimit="4" />
    <path
       style="fill:url(#linearGradient3674);fill-opacity:1;stroke:none"
       sodipodi:nodetypes="ccccc"
       inkscape:connector-curvature="0"
       id="path3789"
       d="m 68.008438,227.80985 c 11.495889,2.2898 23.526195,5.87838 36.864872,6.13522 l -0.34601,4.77863 c -13.505206,-0.50428 -25.079598,-2.40682 -35.68238,-5.02282 z" />
    <path
       style="fill:url(#linearGradient3676);fill-opacity:1;stroke:none"
       d="m 203.81933,227.63684 c -11.34321,2.11718 -44.49242,8.05513 -57.98607,6.59676 l -0.14445,5.49147 c 12.95907,0.45089 46.3116,-4.40142 58.37491,-7.44429 z"
       id="path3799"
       inkscape:connector-curvature="0"
       sodipodi:nodetypes="ccccc" />
    <ellipse
       style="fill:url(#radialGradient3678);fill-opacity:1;stroke:url(#linearGradient3668);stroke-width:1.95899999;stroke-miterlimit:4;stroke-dasharray:none;stroke-opacity:0.42699998"
       ry="34.922543"
       rx="125.78035"
       cy="220.18959"
       cx="24.564161"
       id="path3811"
       transform="matrix(0.82699483,0,0,0.862037,114.12171,14.436903)"
       stroke-miterlimit="4" />
    <path
       style="fill:none;stroke:url(#linearGradient3682);stroke-width:0.82700002;stroke-miterlimit:4;stroke-dasharray:none;stroke-opacity:0.42699998"
       sodipodi:nodetypes="csc"
       inkscape:connector-curvature="0"
       id="path3821"
       d="m 238.52586,204.54527 c 0,16.62627 -46.5712,30.10452 -104.0197,30.10452 -57.448495,0 -104.019702,-13.47825 -104.019702,-30.10452"
       stroke-miterlimit="4" />
  </g>
  <g
     id="g3834"
     transform="matrix(1.164241,0,0,1.0187909,55.280668,41.883846)">
    <path
       style="fill:url(#linearGradient5188);fill-opacity:1;stroke:none"
       sodipodi:nodetypes="ccccc"
       inkscape:connector-curvature="0"
       id="path3818"
       d="m -10.608435,-28.051268 2.6421394,-1.321069 c 0.54708,-2.31697 2.2015587,-4.950025 6.7254437,-6.32512 -3.306454,0.186674 -5.2210137,1.437738 -6.7254437,3.00243 -1.981169,1.479141 -2.3319794,3.06018 -2.6421394,4.643759 z" />
    <path
       style="opacity:0.77100004;fill:url(#linearGradient5190);fill-opacity:1;stroke:none"
       d="m -4.6652759,154.85567 3.312751,-1.37079 128.1692849,12.33714 -4.45508,1.14235 z"
       id="path3914"
       inkscape:connector-curvature="0" />
    <path
       style="fill:url(#linearGradient3902);fill-opacity:1;stroke:none"
       d="m 121.14666,164.85689 c 3.22056,1.30219 8.55409,-0.68698 8.95307,-3.86723 l 2.98842,-2.02904 c 0.4323,6.51398 -6.90258,8.945 -11.3967,6.84361 z"
       id="path3900"
       inkscape:connector-curvature="0"
       sodipodi:nodetypes="ccccc" />
    <rect
       style="opacity:0.6;fill:#123e50;fill-opacity:0.47300002;stroke:#b6ccd6;stroke-width:1.65799999;stroke-miterlimit:4;stroke-dasharray:none;stroke-opacity:0.42699998"
       transform="matrix(0.99529408,0.09690046,0,1,0,0)"
       ry="7.8470001"
       y="-36.518002"
       x="-10.624"
       height="189.53999"
       width="141.62"
       id="rect3863"
       stroke-miterlimit="4"
       rx="7.8470001" />
    <path
       style="fill:#4590af;fill-opacity:0.33000004;stroke:none"
       d="m -10.438287,-28.064586 3.8367514,-1.918377 -1.278914,173.932763 -3.1972864,2.77098 z"
       id="path3888"
       inkscape:connector-curvature="0"
       sodipodi:nodetypes="ccccc" />
    <rect
       style="opacity:0.6;fill:url(#linearGradient3873);fill-opacity:1;stroke:#b6ccd6;stroke-width:1.65799999;stroke-miterlimit:4;stroke-dasharray:none;stroke-opacity:0.42699998"
       id="rect3865"
       width="141.62"
       height="189.53999"
       x="-10.03"
       y="-36.189999"
       ry="7.8470001"
       transform="matrix(0.99529408,0.09690046,0,1,0,0)"
       stroke-miterlimit="4"
       rx="7.8470001" />
    <path
       style="opacity:0.6;fill:url(#linearGradient5192);fill-opacity:1;stroke:none"
       sodipodi:nodetypes="sssccss"
       inkscape:connector-curvature="0"
       id="rect3875"
       d="M -3.4318059,-33.792685 121.89858,-21.590691 c 4.327,0.42127 7.81046,4.260354 7.81046,8.607811 l 0,90.848605 C 54.589503,-16.357873 19.503097,-2.6350023 -11.242272,22.793157 l 0,-49.498863 c 0,-4.347457 3.4834714,-7.508249 7.8104661,-7.086979 z" />
    <path
       style="fill:#3b7a94;fill-opacity:0.37400004;stroke:none"
       sodipodi:nodetypes="ccccc"
       inkscape:connector-curvature="0"
       id="path3886"
       d="m 130.02946,-14.635954 3.83676,-1.918377 -0.63946,175.424831 -3.19729,2.13152 z" />
    <path
       style="fill:url(#linearGradient3898);fill-opacity:1;stroke:none"
       sodipodi:nodetypes="ccccc"
       inkscape:connector-curvature="0"
       id="path3890"
       d="m 122.14281,-21.67 c 3.22057,-1.302188 7.50991,3.846574 7.90889,7.026833 l 3.60704,-1.800998 c -0.28018,-2.408813 -2.44367,-6.621523 -6.82657,-7.144211 z" />
    <path
       style="fill:url(#linearGradient3912);fill-opacity:1;stroke:none"
       inkscape:connector-curvature="0"
       id="path3904"
       d="m -4.6652759,-34.448618 3.312751,-1.370794 128.1692849,12.33715 -4.45508,1.142328 z" />
  </g>
  <path
     style="fill:#020202;fill-opacity:0.82448977;fill-rule:evenodd;stroke:none;stroke-width:0.39130393;filter:url(#filter1222)"
     d="m 240.49877,42.80621 c -0.96171,0.06362 -2.13309,0.138328 -3.29492,0.31836 -1.64665,0.104972 -3.2291,0.369429 -4.41406,1.607422 -1.41846,0.03356 -2.74191,0.625258 -3.94141,1.964844 -1.92858,0.283185 -3.48678,0.863229 -4.48828,1.884765 -3.21028,0.221355 -4.57617,1.590013 -6.0957,3.083985 -1.12028,0.278557 -2.2594,0.645643 -3.35547,1.082031 -2.9652,0.821008 -5.34601,2.426919 -7.05664,4.93164 -5.16953,-0.206078 -9.10032,2.10678 -12.44531,5.611329 -7.98167,0.171801 -14.16118,2.886243 -18.45704,8.257812 -11.97912,-0.761438 -21.63008,4.595276 -26.02539,9.783203 -25.16229,-1.062253 -42.86773,13.44012 -54.041014,36.601569 -6.89518,14.29326 1.21962,28.28315 -26.40039,62.17382 l -0.13867,1.18946 -16.7168,20.09375 2.03515,-2.02539 -2.37109,2.5625 17.31836,-17.25391 c 0.05775,-0.0339 0.11604,-0.0714 0.17383,-0.10547 l 0.0098,0.0625 c 0.04867,-0.0535 0.09593,-0.10294 0.14453,-0.15625 7.96606,-4.72682 16.20683,-11.54973 21.64844,2.91602 5.3e-4,0.001 0.0014,0.002 0.002,0.004 5.34781,-1.32494 10.444984,-1.68909 13.859374,4.38477 2.81931,-1.97061 5.72135,-3.44554 9.47461,0.1543 2.62543,-3.64887 5.49365,-5.85461 9.34961,-2.16407 0.0923,-0.20509 0.19227,-0.39309 0.29101,-0.58398 0.0172,0.0163 0.0335,0.0284 0.0508,0.0449 0.1954,-0.43443 0.41101,-0.82511 0.63476,-1.19726 2.27912,-3.30245 5.7487,-4.00562 9.23633,-4.66797 0.0224,-0.0471 0.0494,-0.0883 0.0723,-0.13477 0.0279,0.002 0.0584,0.001 0.0859,0.004 0.0514,-0.1379 0.11359,-0.2653 0.16992,-0.39844 0.002,-3.8e-4 0.004,-0.002 0.006,-0.002 0.13493,-0.28361 0.28242,-0.5512 0.4336,-0.8125 2.70135,-4.11008 7.48117,-5.36168 12.01367,-6.95508 0.0194,-0.0327 0.0392,-0.0649 0.0586,-0.0977 0.0179,-0.005 0.0348,-0.009 0.0527,-0.0137 0.0549,-0.12039 0.11102,-0.22759 0.16601,-0.3457 0.0133,-0.0224 0.0277,-0.044 0.041,-0.0664 0.008,-0.003 0.0157,-0.005 0.0234,-0.008 0.49648,-0.83561 0.99507,-1.6686 1.51172,-2.48438 1.17183,-1.78265 2.4879,-3.42729 4.24414,-4.65234 0.96024,-0.5904 2.07126,-1.1192 3.38671,-1.5918 l -1.11328,0.36914 c 0.19704,-0.0788 0.393,-0.15888 0.59961,-0.22851 1.23765,-1.50025 2.29498,-2.97039 3.23243,-4.41992 0.30565,-0.47262 0.61325,-0.94428 0.89062,-1.41211 5.08472,-8.29554 5.81043,-15.85698 7.05859,-23.50391 7.65014,-7.56341 13.25629,-16.51244 17.83594,-26.15625 6.2067,-5.07714 11.93387,-10.534949 13.57031,-19.251955 0.63926,-0.332311 1.26191,-0.692421 1.8711,-1.074219 4.62935,-2.583072 8.45863,-6.482753 11.05859,-12.40625 -0.0789,-0.0601 -0.15206,-0.110554 -0.23047,-0.169922 1.29497,-1.160372 2.60132,-2.303866 3.79297,-3.61914 0.0212,-0.02084 0.0413,-0.04355 0.0625,-0.06445 0.001,-0.0013 0.003,-0.0026 0.004,-0.0039 1.80051,-1.776831 3.4278,-3.810964 4.48437,-6.703125 0.70978,-0.398794 1.33912,-0.846996 1.90235,-1.33789 2.10754,-1.536269 3.39494,-3.587737 4.32617,-5.863282 0.83485,-0.559556 1.52558,-1.171129 2.08594,-1.828125 0.0149,-0.01579 0.0304,-0.03105 0.0449,-0.04687 0.0249,-0.0296 0.0479,-0.06006 0.0723,-0.08984 0.13382,-0.154033 0.25272,-0.312716 0.35743,-0.47461 0.50393,-0.710024 0.88479,-1.463875 1.15234,-2.257812 1.59518,-1.439165 2.42349,-2.748284 3.25586,-4.058594 1.53187,-0.885926 2.10798,-1.610766 2.5957,-2.320312 0.14177,-0.14792 0.25047,-0.275593 0.36133,-0.408204 0.24204,-0.221298 0.45346,-0.445556 0.62891,-0.673828 1.85753,-1.649779 2.19634,-3.18812 2.84765,-4.996094 z"
     id="path1163"
     inkscape:connector-curvature="0" />
  <g
     transform="matrix(0.36558269,-0.06175457,0.06828859,0.40729947,-140.13775,80.64219)"
     id="g2913">
    <path
       d="m 451.07282,341.43739 52.66402,-36.51453 2.79675,-8.65183 c 88.58458,-69.77707 73.23831,-106.45009 97.95424,-137.79542 40.05081,-50.79339 93.61448,-78.278857 160.07299,-65.594407 14.00537,-10.613889 42.06786,-19.513941 73.59302,-12.86463 13.82271,-11.09246 31.47159,-15.07918 52.77965,-12.27027 10.46074,-7.0183 21.9486,-10.95525 35.60777,-8.37829 7.35016,-6.86112 16.99884,-9.69985 28.62585,-9.07649 5.50907,-3.33469 9.63712,-6.84739 19.34173,-5.98655 3.11959,-2.03508 7.51872,-2.79062 12.77508,-2.68893 3.78814,-2.71459 7.57634,-3.59618 11.36444,-3.10424 5.23494,-3.50192 11.70664,-2.0564 17.95964,-1.48592 -2.6779,4.27603 -2.5937,9.24262 -9.0765,12.56744 -1.7258,1.62912 -3.5152,3.25823 -8.37834,4.88735 -2.7985,2.79276 -5.5878,5.58553 -10.47286,8.37829 -2.67215,4.48219 -7.01891,8.12707 -13.96383,10.47288 -4.52116,6.66976 -10.40947,12.2458 -20.24755,14.66202 -6.83316,11.93404 -17.3356,16.529507 -27.22947,22.342127 -10.04532,13.76218 -22.68601,21.68476 -37.00415,25.83309 -8.24061,20.15251 -25.90996,30.87628 -44.68426,40.4951 -16.70119,21.4587 -35.87772,40.79568 -60.04447,55.85533 -8.24328,21.64394 -14.0799,43.28787 -41.8915,64.93181 -12.82535,1.83164 -20.3071,10.07559 -27.92766,18.15298 -14.07241,2.1784 -28.77934,3.21467 -37.70234,14.66202 -11.0639,0.20206 -22.09291,0.52042 -30.02224,11.17107 -8.61103,-10.3666 -17.22205,-6.25672 -25.83308,1.39638 -8.3783,-10.10863 -16.7566,-7.75706 -25.1349,-4.18915 -6.37349,-15.87887 -20.09338,-17.06496 -34.90958,-16.0584 -8.1307,-37.24946 -33.68227,-23.39771 -57.2517,-15.36022 z"
       id="path1882"
       sodipodi:nodetypes="cccsccccccccccccccccccccccccccc"
       inkscape:connector-curvature="0"
       style="fill:#898989;fill-opacity:1;fill-rule:evenodd;stroke:none" />
    <path
       sodipodi:nodetypes="ccscccc"
       id="path1884"
       d="m 505.33897,306.29555 1.1739,-7.90407 c 88.58458,-69.77707 74.00404,-107.75642 98.71997,-139.10175 40.05081,-50.79339 91.34507,-77.958764 157.80358,-65.274314 24.69696,32.148484 36.68377,59.299574 79.11198,83.782974 -16.70119,21.4587 -35.87772,40.79568 -60.04447,55.85533 -98.2684,58.07395 -125.49781,-33.99755 -276.76496,72.64183 z"
       inkscape:connector-curvature="0"
       style="fill:url(#radialGradient4645);fill-opacity:1;fill-rule:evenodd;stroke:none" />
    <path
       d="m 784.36171,232.50668 c -97.77113,57.7801 -127.71707,-39.26336 -277,64.78125 v 0.4375 l -55.15625,42.5625 53.75,-34.1875 c 23.56943,-8.03749 49.11929,-21.90569 57.25,15.34375 14.8162,-1.00656 28.56404,0.18364 34.9375,16.0625 8.3783,-3.56791 16.74668,-5.92112 25.125,4.1875 8.61103,-7.6531 17.23271,-11.77286 25.84375,-1.40625 7.92933,-10.65065 18.93611,-10.95419 30,-11.15625 8.923,-11.44735 23.64636,-12.47788 37.71875,-14.65625 7.62056,-8.07739 15.08091,-16.3246 27.90625,-18.15625 27.8116,-21.64394 33.663,-43.29357 41.90625,-64.9375 0.58212,-0.61644 -1.58161,0.64609 -2.28125,1.125 z"
       id="path2786"
       sodipodi:nodetypes="cccccccccccccc"
       inkscape:connector-curvature="0"
       style="fill:url(#radialGradient4647);fill-opacity:1;fill-rule:evenodd;stroke:none" />
    <path
       d="m 505.33897,307.1975 v -5.58553 c 88.58458,-69.77707 76.82751,-77.3442 116.43754,-82.28915 43.45346,-5.42477 26.42032,2.65087 92.87883,15.33532 31.79114,6.31842 48.46172,0.0462 67.44859,-1.00442 -98.2684,58.07395 -125.49781,-33.0956 -276.76496,73.54378 z"
       id="path2813"
       sodipodi:nodetypes="ccsccc"
       inkscape:connector-curvature="0"
       style="fill:url(#radialGradient4649);fill-opacity:1;fill-rule:evenodd;stroke:none" />
    <path
       sodipodi:nodetypes="ccccc"
       id="path2837"
       d="m 764.15214,94.34878 c 19.01022,-14.01247 43.34838,-18.540189 74.0017,-14.332208 11.91325,23.481838 31.96623,41.257998 52.08146,56.152498 -8.2406,20.15251 -28.36202,31.61007 -47.13632,41.22889 -39.09516,-19.08929 -49.34925,-30.87927 -78.94684,-83.04918 z"
       inkscape:connector-curvature="0"
       style="fill:url(#radialGradient4651);fill-opacity:1;fill-rule:evenodd;stroke:none" />
    <path
       sodipodi:nodetypes="ccccc"
       id="path2855"
       d="m 839.41953,80.161333 c 13.82271,-11.09246 32.18391,-14.439689 53.49197,-11.630779 11.26286,18.88507 23.09741,26.651937 37.73059,40.671216 -10.04532,13.76218 -22.68601,21.68476 -37.00415,25.83309 -29.59103,-10.29153 -45.47393,-24.80321 -54.21841,-54.873527 z"
       inkscape:connector-curvature="0"
       style="fill:url(#radialGradient4653);fill-opacity:1;fill-rule:evenodd;stroke:none" />
    <path
       sodipodi:nodetypes="ccccc"
       id="path2865"
       d="m 892.09376,67.607126 c 10.46074,-7.0183 20.40259,-9.988853 34.06176,-7.411893 6.27167,16.3369 24.00559,22.091103 31.71609,25.530203 -6.8332,11.93404 -17.33564,16.529504 -27.22951,22.342124 C 908.14782,97.159666 899.26845,89.936366 892.09376,67.607126 Z"
       inkscape:connector-curvature="0"
       style="fill:url(#radialGradient4655);fill-opacity:1;fill-rule:evenodd;stroke:none" />
    <path
       sodipodi:nodetypes="ccccc"
       id="path2875"
       d="m 927.51442,59.519942 c 2.69835,-5.19388 17.27057,-9.586974 29.92108,-10.362633 10.8132,6.39558 13.138,16.9181 19.5494,23.04032 -4.5212,6.66976 -10.4095,12.2458 -20.2475,14.66202 -10.912,-4.15632 -25.8177,-13.502111 -29.22298,-27.339707 z"
       inkscape:connector-curvature="0"
       style="fill:url(#radialGradient4657);fill-opacity:1;fill-rule:evenodd;stroke:none" />
    <path
       sodipodi:nodetypes="ccccccc"
       id="path2885"
       d="m 562.07125,322.5784 c 14.63906,-0.9668 30.18018,-1.28008 35.07963,15.38058 3.97709,-2.73723 21.39227,-6.38522 25.05393,4.45244 8.47665,-7.53246 17.33629,-12.38222 25.86751,-1.53921 6.36366,-10.33804 21.89447,-12.85485 30.39285,-10.8575 7.06419,-10.98825 21.11095,-13.42245 37.56624,-14.6273 7.22527,-9.59676 13.80443,-15.61284 29.01331,-18.0637"
       inkscape:connector-curvature="0"
       stroke-miterlimit="4"
       style="fill:url(#radialGradient4659);fill-opacity:1;fill-rule:evenodd;stroke:#787878;stroke-width:1;stroke-linecap:round;stroke-linejoin:round;stroke-miterlimit:4;stroke-dasharray:none;stroke-opacity:0.57300002" />
    <path
       sodipodi:nodetypes="cccccccccc"
       id="path2903"
       d="m 958.56976,49.01254 c 5.50907,-3.33469 5.97805,-4.819948 15.68265,-3.959108 3.1196,-2.03508 7.89092,-2.695973 13.14722,-2.594283 3.7881,-2.71459 7.81108,-4.017734 11.59923,-3.525794 5.23504,-3.50192 14.75884,-2.477953 21.01184,-1.907473 -2.6779,4.27603 -4.2372,7.97796 -10.72,11.30278 -1.7258,1.62912 -6.0977,4.312113 -10.96095,5.941233 -2.79855,2.79276 -5.35307,5.796307 -10.23807,8.589067 -2.6721,4.48219 -3.73197,6.440856 -10.67687,8.786666 -6.65362,-7.211824 -11.47247,-12.652959 -18.84505,-22.633088 z"
       inkscape:connector-curvature="0"
       style="fill:url(#radialGradient4661);fill-opacity:1;fill-rule:evenodd;stroke:none" />
  </g>
  <g
     transform="matrix(0.82970571,0.25206226,0,1.0187909,48.598568,47.321938)"
     id="g3095">
    <path
       style="fill:url(#linearGradient3858);fill-opacity:1;stroke:none"
       d="m -10.608435,-28.051268 2.6421394,-1.321069 c 0.54708,-2.31697 2.2015587,-4.950025 6.7254437,-6.32512 -3.306454,0.186674 -5.2210137,1.437738 -6.7254437,3.00243 -1.981169,1.479141 -2.3319794,3.06018 -2.6421394,4.643759 z"
       id="path3097"
       inkscape:connector-curvature="0"
       sodipodi:nodetypes="ccccc" />
    <path
       style="opacity:0.77100004;fill:url(#linearGradient3916);fill-opacity:1;stroke:none"
       inkscape:connector-curvature="0"
       id="path3099"
       d="m -4.6652759,154.85567 3.312751,-1.37079 128.1692849,12.33714 -4.45508,1.14235 z" />
    <path
       style="fill:url(#linearGradient3121);fill-opacity:1;stroke:none"
       sodipodi:nodetypes="ccccc"
       inkscape:connector-curvature="0"
       id="path3101"
       d="m 120.58092,165.56142 c 3.22056,1.30219 9.11983,-1.39151 9.51881,-4.57176 l 3.04914,-2.06021 c 0.63231,4.07648 -6.24031,8.29826 -10.79747,7.83361 z" />
    <rect
       style="opacity:0.6;fill:#123e50;fill-opacity:0.47300002;stroke:#b6ccd6;stroke-width:1.65799999;stroke-miterlimit:4;stroke-dasharray:none;stroke-opacity:0.42699998"
       id="rect3103"
       width="141.62"
       height="189.53999"
       x="-10.624"
       y="-36.518002"
       ry="7.8470001"
       transform="matrix(0.99529408,0.09690046,0,1,0,0)"
       stroke-miterlimit="4"
       rx="7.8470001" />
    <path
       style="fill:#3c7b95;fill-opacity:0.38500001;stroke:none"
       sodipodi:nodetypes="ccccc"
       inkscape:connector-curvature="0"
       id="path3105"
       d="m -10.438287,-28.064586 3.8367514,-1.918377 -1.278914,173.932763 -3.1972864,2.77098 z" />
    <rect
       style="opacity:0.6;fill:url(#linearGradient3123);fill-opacity:1;stroke:#b6ccd6;stroke-width:1.65799999;stroke-miterlimit:4;stroke-dasharray:none;stroke-opacity:0.42699998"
       transform="matrix(0.99529408,0.09690046,0,1,0,0)"
       ry="7.8470001"
       y="-35.398998"
       x="-9.8699999"
       height="189.53999"
       width="141.62"
       id="rect3107"
       stroke-miterlimit="4"
       rx="7.8470001" />
    <path
       style="opacity:0.6;fill:url(#linearGradient3884);fill-opacity:1;stroke:none"
       d="M -3.4318059,-33.792685 121.89858,-21.590691 c 4.327,0.42127 7.81046,4.260354 7.81046,8.607811 l 0,90.848605 C 54.589503,-16.357873 19.503097,-2.6350023 -11.242272,22.793157 l 0,-49.498863 c 0,-4.347457 3.4834714,-7.508249 7.8104661,-7.086979 z"
       id="path3109"
       inkscape:connector-curvature="0"
       sodipodi:nodetypes="sssccss" />
    <path
       style="fill:#357b98;fill-opacity:0.4510002;stroke:none"
       d="m 130.02946,-14.635954 3.83676,-1.918377 -0.63946,175.424831 -3.19729,2.13152 z"
       id="path3111"
       inkscape:connector-curvature="0"
       sodipodi:nodetypes="ccccc" />
    <path
       style="fill:url(#linearGradient3127);fill-opacity:1;stroke:none"
       d="m 121.34291,-22.24568 c 5.27031,0.145 8.3326,4.376719 8.73158,7.556978 l 3.74174,-1.834104 c -0.28018,-2.408813 -3.60103,-7.720526 -9.58373,-7.155247 z"
       id="path3113"
       inkscape:connector-curvature="0"
       sodipodi:nodetypes="ccccc" />
    <path
       style="fill:url(#linearGradient3129);fill-opacity:1;stroke:none"
       d="m -4.6652759,-34.448618 3.312751,-1.370794 128.1692849,12.33715 -4.45508,1.142328 z"
       id="path3115"
       inkscape:connector-curvature="0" />
  </g>
  <path
     style="opacity:0.60100002;fill:none;stroke:#cfeaf2;stroke-width:1.01900005;stroke-linecap:round;stroke-linejoin:round;stroke-opacity:0.50199998"
     d="m 204.48926,16.392315 c 5.10037,0.689674 9.30836,4.33235 9.79662,8.078859"
     id="path3384"
     inkscape:connector-curvature="0"
     sodipodi:nodetypes="cc" />
  <path
     style="fill:none;stroke:#80c4da;stroke-width:1.01900005;stroke-linecap:round;stroke-linejoin:round;stroke-opacity:0.303"
     sodipodi:nodetypes="cc"
     inkscape:connector-curvature="0"
     id="path4154"
     d="m 201.7438,18.286433 c 5.10037,0.689675 8.29622,4.378357 8.78447,8.124866" />
  <g
     inkscape:label="1. rteg"
     id="layer1"
     transform="translate(1.2777838,0.5601005)">
    <g
       id="g2637">
      <g
         id="g3612"
         transform="translate(-2.5722563,0)">
        <g
           id="g2650"
           stroke-opacity="1"
           fill="url(#linearGradient2595)"
           font-family="Bitstream Vera Sans"
           stroke="none"
           font-style="normal"
           stroke-linejoin="miter"
           fill-opacity="1"
           font-weight="normal"
           stroke-linecap="butt"
           stroke-width="1"
           font-size="12">
          <path
             id="path2652"
             d="M 16.1875,-12.21875 L 12.09375,-12.1875 L 12.800857,-11.480393 L 16.894607,-11.511643 L 16.1875,-12.21875 z"
             fill="url(#linearGradient2595)"
             fill-opacity="1" />
          <path
             id="path2654"
             d="M 12.09375,-12.1875 L 8.75,-3.4375 L 9.4571068,-2.7303932 L 12.800857,-11.480393 L 12.09375,-12.1875 z"
             fill="url(#linearGradient2595)"
             fill-opacity="1" />
          <path
             id="path2662"
             d="M 14.75,-5.6875 L 15.53125,-3.46875 L 16.238357,-2.7616432 L 15.457107,-4.9803932 L 14.75,-5.6875 z"
             fill="url(#linearGradient2595)"
             fill-opacity="1" />
          <path
             id="path2664"
             d="M 15.53125,-3.46875 L 15.53125,-3.4375 L 16.238357,-2.7303932 L 16.238357,-2.7616432 L 15.53125,-3.46875 z"
             fill="url(#linearGradient2595)"
             fill-opacity="1" />
          <path
             id="path2672"
             d="M 17.92037,-11.519527 C 17.478803,-11.961094 16.896486,-12.233764 16.1875,-12.21875 L 16.894607,-11.511643 C 17.603593,-11.526657 18.185909,-11.253988 18.627477,-10.81242 L 17.92037,-11.519527 z"
             fill="url(#linearGradient2595)"
             fill-opacity="1" />
          <path
             id="path2674"
             d="M 16.21875,-11.96875 C 16.818366,-11.965939 17.317195,-11.725944 17.700221,-11.342918 L 18.407328,-10.635811 C 18.024302,-11.018837 17.525473,-11.258832 16.925857,-11.261643 L 16.21875,-11.96875 z"
             fill="url(#linearGradient3598)"
             fill-opacity="1" />
          <path
             id="path2676"
             d="M 17.700221,-11.342918 C 19.261676,-9.7814631 18.898615,-5.8429893 15.59375,-5.90625 L 16.300857,-5.1991432 C 19.605722,-5.1358825 19.968783,-9.0743563 18.407328,-10.635811 L 17.700221,-11.342918 z"
             fill="url(#linearGradient2595)"
             fill-opacity="1" />
          <path
             id="path2678"
             d="M 15.59375,-5.90625 L 16.375,-3.71875 L 17.082107,-3.0116432 L 16.300857,-5.1991432 L 15.59375,-5.90625 z"
             fill="url(#linearGradient2595)"
             fill-opacity="1" />
          <path
             id="path2680"
             d="M 16.375,-3.71875 L 15.71875,-3.71875 L 16.425857,-3.0116432 L 17.082107,-3.0116432 L 16.375,-3.71875 z"
             fill="url(#linearGradient2595)"
             fill-opacity="1" />
          <path
             id="path2684"
             d="M 14.875,-5.96875 L 10.5625,-5.96875 L 11.269607,-5.2616432 L 15.582107,-5.2616432 L 14.875,-5.96875 z"
             fill="url(#linearGradient2595)"
             fill-opacity="1" />
          <path
             id="path2686"
             d="M 10.5625,-5.96875 L 9.75,-3.75 L 10.457107,-3.0428932 L 11.269607,-5.2616432 L 10.5625,-5.96875 z"
             fill="url(#linearGradient2595)"
             fill-opacity="1" />
          <path
             id="path2690"
             d="M 9.1875,-3.75 L 12.28125,-11.90625 L 12.988357,-11.199143 L 9.8946068,-3.0428932 L 9.1875,-3.75 z"
             fill="url(#linearGradient3594)"
             fill-opacity="1" />
          <path
             id="path2660"
             d="M 10.8125,-5.6875 L 14.75,-5.6875 L 15.457107,-4.9803932 L 11.519607,-4.9803932 L 10.8125,-5.6875 z"
             fill="url(#linearGradient3608)"
             fill-opacity="1" />
          <path
             id="path2682"
             d="M 15.71875,-3.71875 L 14.875,-5.96875 L 15.582107,-5.2616432 L 16.425857,-3.0116432 L 15.71875,-3.71875 z"
             fill="url(#linearGradient3610)"
             fill-opacity="1" />
          <path
             id="path2688"
             d="M 9.75,-3.75 L 9.1875,-3.75 L 9.8946068,-3.0428932 L 10.457107,-3.0428932 L 9.75,-3.75 z"
             fill="url(#linearGradient2595)"
             fill-opacity="1" />
          <path
             id="path2692"
             d="M 12.28125,-11.90625 L 16.21875,-11.96875 L 16.925857,-11.261643 L 12.988357,-11.199143 L 12.28125,-11.90625 z"
             fill="url(#linearGradient3596)"
             fill-opacity="1" />
          <path
             id="path2694"
             d="M 13.59375,-11.375 L 15.4375,-6.4375 L 16.144607,-5.7303932 L 14.300857,-10.667893 L 13.59375,-11.375 z"
             fill="url(#linearGradient2595)"
             fill-opacity="1" />
          <path
             id="path2698"
             d="M 17.29651,-10.694689 C 16.87154,-11.11966 16.292483,-11.392236 15.59375,-11.375 L 16.300857,-10.667893 C 16.99959,-10.685129 17.578646,-10.412554 18.003617,-9.9875826 L 17.29651,-10.694689 z"
             fill="url(#linearGradient2595)"
             fill-opacity="1" />
          <path
             id="path2700"
             d="M 15.59375,-11.375 L 13.59375,-11.375 L 14.300857,-10.667893 L 16.300857,-10.667893 L 15.59375,-11.375 z"
             fill="url(#linearGradient2595)"
             fill-opacity="1" />
          <path
             id="path2702"
             d="M 12.5,-11.25 L 10.71875,-6.375 L 11.425857,-5.6678932 L 13.207107,-10.542893 L 12.5,-11.25 z"
             fill="url(#linearGradient2595)"
             fill-opacity="1" />
          <path
             id="path2704"
             d="M 10.71875,-6.375 L 14.71875,-6.3125 L 15.425857,-5.6053932 L 11.425857,-5.6678932 L 10.71875,-6.375 z"
             fill="url(#linearGradient2595)"
             fill-opacity="1" />
          <path
             id="path2706"
             d="M 14.71875,-6.3125 L 12.96875,-11.25 L 13.675857,-10.542893 L 15.425857,-5.6053932 L 14.71875,-6.3125 z"
             fill="url(#linearGradient2595)"
             fill-opacity="1" />
          <path
             id="path2708"
             d="M 12.96875,-11.25 L 12.5,-11.25 L 13.207107,-10.542893 L 13.675857,-10.542893 L 12.96875,-11.25 z"
             fill="url(#linearGradient2595)"
             fill-opacity="1" />
          <path
             id="path2710"
             d="M 13.96875,-11.125 L 15.5625,-11.125 L 16.269607,-10.417893 L 14.675857,-10.417893 L 13.96875,-11.125 z"
             fill="url(#linearGradient2595)"
             fill-opacity="1" />
          <path
             id="path2712"
             d="M 15.5625,-11.125 C 16.263236,-11.142285 16.807643,-10.897983 17.18911,-10.516516 L 17.896217,-9.8094094 C 17.51475,-10.190876 16.970342,-10.435179 16.269607,-10.417893 L 15.5625,-11.125 z"
             fill="url(#linearGradient2595)"
             fill-opacity="1" />
          <path
             id="path2714"
             d="M 17.18911,-10.516516 C 18.415922,-9.2897044 17.957455,-6.644214 15.59375,-6.71875 L 16.300857,-6.0116432 C 18.664562,-5.9371073 19.123029,-8.5825976 17.896217,-9.8094094 L 17.18911,-10.516516 z"
             fill="url(#linearGradient3588)"
             fill-opacity="1" />
          <path
             id="path2716"
             d="M 15.59375,-6.71875 L 13.96875,-11.125 L 14.675857,-10.417893 L 16.300857,-6.0116432 L 15.59375,-6.71875 z"
             fill="url(#linearGradient2595)"
             fill-opacity="1" />
          <path
             id="path2696"
             d="M 15.4375,-6.4375 C 18.434536,-6.3628978 18.668368,-9.3228317 17.29651,-10.694689 L 18.003617,-9.9875826 C 19.375475,-8.6157249 19.141643,-5.655791 16.144607,-5.7303932 L 15.4375,-6.4375 z"
             fill="url(#linearGradient3590)"
             fill-opacity="1" />
          <path
             id="path2722"
             d="M 11.15625,-6.65625 L 12.75,-11.03125 L 13.457107,-10.324143 L 11.863357,-5.9491432 L 11.15625,-6.65625 z"
             fill="url(#linearGradient3592)"
             fill-opacity="1" />
          <path
             id="path2718"
             d="M 12.75,-11.03125 L 14.375,-6.65625 L 15.082107,-5.9491432 L 13.457107,-10.324143 L 12.75,-11.03125 z"
             fill="url(#linearGradient2595)"
             fill-opacity="1" />
          <path
             id="path2720"
             d="M 14.375,-6.65625 L 11.15625,-6.65625 L 11.863357,-5.9491432 L 15.082107,-5.9491432 L 14.375,-6.65625 z"
             fill="url(#linearGradient2595)"
             fill-opacity="1" />
          <path
             id="path2670"
             d="M 15.96875,-5.6875 C 19.235011,-5.6249782 19.618583,-9.8213136 17.92037,-11.519527 L 18.627477,-10.81242 C 20.32569,-9.1142068 19.942118,-4.9178714 16.675857,-4.9803932 L 15.96875,-5.6875 z"
             fill="url(#linearGradient3586)"
             fill-opacity="1" />
          <path
             id="path2668"
             d="M 16.78125,-3.4375 L 15.96875,-5.6875 L 16.675857,-4.9803932 L 17.488357,-2.7303932 L 16.78125,-3.4375 z"
             fill="url(#linearGradient3600)"
             fill-opacity="1" />
          <path
             id="path2666"
             d="M 15.53125,-3.4375 L 16.78125,-3.4375 L 17.488357,-2.7303932 L 16.238357,-2.7303932 L 15.53125,-3.4375 z"
             fill="url(#linearGradient3602)"
             fill-opacity="1" />
          <path
             id="path2656"
             d="M 8.75,-3.4375 L 10,-3.4375 L 10.707107,-2.7303932 L 9.4571068,-2.7303932 L 8.75,-3.4375 z"
             fill="url(#linearGradient3604)"
             fill-opacity="1" />
          <path
             id="path2658"
             d="M 10,-3.4375 L 10.8125,-5.6875 L 11.519607,-4.9803932 L 10.707107,-2.7303932 L 10,-3.4375 z"
             fill="url(#linearGradient3606)"
             fill-opacity="1" />
        </g>
        <path
           id="path2505"
           d="M 16.1875,-12.175236 L 12.09375,-12.143986 L 8.7499996,-3.3939857 L 9.9999996,-3.3939857 L 10.8125,-5.6439857 L 14.75,-5.6439857 L 15.53125,-3.4252357 L 15.53125,-3.3939857 L 16.78125,-3.3939857 L 15.96875,-5.6439857 C 20.084301,-5.565207 19.623157,-12.247993 16.1875,-12.175236 z M 16.21875,-11.925236 C 19.262779,-11.910965 19.709301,-5.7839571 15.59375,-5.8627357 L 16.375,-3.6752357 L 15.71875,-3.6752357 L 14.875,-5.9252357 L 10.5625,-5.9252357 L 9.7499996,-3.7064857 L 9.1874996,-3.7064857 L 12.28125,-11.862736 L 16.21875,-11.925236 z M 13.59375,-11.331486 L 15.4375,-6.3939857 C 19.362951,-6.2962734 18.548077,-11.404362 15.59375,-11.331486 L 13.59375,-11.331486 z M 12.5,-11.206486 L 10.71875,-6.3314857 L 14.71875,-6.2689857 L 12.96875,-11.206486 L 12.5,-11.206486 z M 13.96875,-11.081486 L 15.5625,-11.081486 C 18.516827,-11.154362 18.69243,-6.5775234 15.59375,-6.6752357 L 13.96875,-11.081486 z M 12.75,-10.987736 L 14.375,-6.6127357 L 11.15625,-6.6127357 L 12.75,-10.987736 z"
           stroke-opacity="1"
           fill="#333333"
           font-family="Bitstream Vera Sans"
           stroke="none"
           font-style="normal"
           stroke-linejoin="miter"
           fill-opacity="1"
           font-weight="normal"
           stroke-linecap="butt"
           stroke-width="1"
           font-size="12" />
      </g>
      <path
         id="text2170"
         d="M 6.0871491,-4.0239012 C 6.0766271,-4.0350472 6.0650871,-4.0430982 6.0525291,-4.0480532 C 6.0403101,-4.0536252 6.0267331,-4.0564122 6.0117991,-4.0564132 C 5.9588511,-4.0564122 5.9181211,-4.0248292 5.8896111,-3.9616652 C 5.8614391,-3.8991182 5.8473541,-3.8090152 5.8473541,-3.6913552 L 5.8473541,-3.1433032 L 5.7531671,-3.1433032 L 5.7531671,-4.1836722 L 5.8473541,-4.1836722 L 5.8473541,-4.0220442 C 5.8670401,-4.0852082 5.8926651,-4.1319622 5.9242311,-4.1623082 C 5.9557961,-4.1932692 5.9941491,-4.2087522 6.0392921,-4.2087532 C 6.0457401,-4.2087522 6.0528681,-4.2078222 6.0606751,-4.2059662 C 6.0684811,-4.2047262 6.0771361,-4.2025592 6.0866401,-4.1994642 L 6.0871491,-4.0239012 M 6.3849841,-4.0638442 C 6.3347511,-4.0638432 6.2950401,-4.0279262 6.2658501,-3.9560922 C 6.2366611,-3.8848752 6.2220661,-3.7870312 6.2220661,-3.6625592 C 6.2220661,-3.5380862 6.2364911,-3.4399322 6.2653411,-3.3680972 C 6.2945301,-3.2968812 6.3344111,-3.2612732 6.3849841,-3.2612732 C 6.4348791,-3.2612732 6.4744201,-3.2971912 6.5036101,-3.3690262 C 6.5327991,-3.4408612 6.5473941,-3.5387052 6.5473941,-3.6625592 C 6.5473941,-3.7857922 6.5327991,-3.8833272 6.5036101,-3.9551632 C 6.4744201,-4.0276162 6.4348791,-4.0638432 6.3849841,-4.0638442 M 6.3849841,-4.2087532 C 6.4664441,-4.2087522 6.5304231,-4.1604492 6.5769231,-4.0638442 C 6.6234221,-3.9672382 6.6466721,-3.8334762 6.6466731,-3.6625592 C 6.6466721,-3.4922602 6.6234221,-3.3584982 6.5769231,-3.2612732 C 6.5304231,-3.1646682 6.4664441,-3.1163652 6.3849841,-3.1163652 C 6.3031851,-3.1163652 6.2390361,-3.1646682 6.1925371,-3.2612732 C 6.1463771,-3.3584982 6.1232971,-3.4922602 6.1232971,-3.6625592 C 6.1232971,-3.8334762 6.1463771,-3.9672382 6.1925371,-4.0638442 C 6.2390361,-4.1604492 6.3031851,-4.2087522 6.3849841,-4.2087532 M 7.0224031,-4.0638442 C 6.9721701,-4.0638432 6.9324581,-4.0279262 6.9032691,-3.9560922 C 6.8740791,-3.8848752 6.8594851,-3.7870312 6.8594851,-3.6625592 C 6.8594851,-3.5380862 6.8739101,-3.4399322 6.9027601,-3.3680972 C 6.9319491,-3.2968812 6.9718301,-3.2612732 7.0224031,-3.2612732 C 7.0722961,-3.2612732 7.1118381,-3.2971912 7.1410281,-3.3690262 C 7.1702171,-3.4408612 7.1848121,-3.5387052 7.1848121,-3.6625592 C 7.1848121,-3.7857922 7.1702171,-3.8833272 7.1410281,-3.9551632 C 7.1118381,-4.0276162 7.0722961,-4.0638432 7.0224031,-4.0638442 M 7.0224031,-4.2087532 C 7.1038621,-4.2087522 7.1678411,-4.1604492 7.2143411,-4.0638442 C 7.2608401,-3.9672382 7.2840901,-3.8334762 7.2840901,-3.6625592 C 7.2840901,-3.4922602 7.2608401,-3.3584982 7.2143411,-3.2612732 C 7.1678411,-3.1646682 7.1038621,-3.1163652 7.0224031,-3.1163652 C 6.9406041,-3.1163652 6.8764551,-3.1646682 6.8299561,-3.2612732 C 6.7837951,-3.3584982 6.7607161,-3.4922602 6.7607161,-3.6625592 C 6.7607161,-3.8334762 6.7837951,-3.9672382 6.8299561,-4.0638442 C 6.8764551,-4.1604492 6.9406041,-4.2087522 7.0224031,-4.2087532 M 7.5315231,-4.4790632 L 7.5315231,-4.1836722 L 7.7244781,-4.1836722 L 7.7244781,-4.0508402 L 7.5315231,-4.0508402 L 7.5315231,-3.4860682 C 7.5315221,-3.4012282 7.5378011,-3.3467322 7.5503591,-3.3225812 C 7.5632571,-3.2984292 7.5892221,-3.2863532 7.6282551,-3.2863542 L 7.7244781,-3.2863542 L 7.7244781,-3.1433032 L 7.6282551,-3.1433032 C 7.5559591,-3.1433032 7.5060671,-3.1677642 7.4785741,-3.2166862 C 7.4510821,-3.2662282 7.4373361,-3.3560212 7.4373361,-3.4860682 L 7.4373361,-4.0508402 L 7.3686041,-4.0508402 L 7.3686041,-4.1836722 L 7.4373361,-4.1836722 L 7.4373361,-4.4790632 L 7.5315231,-4.4790632 M 7.9551091,-4.3759552 L 7.9551091,-3.8548412 L 8.0844261,-3.8548412 C 8.1322831,-3.8548412 8.1692791,-3.8774442 8.1954141,-3.9226512 C 8.2215481,-3.9678572 8.2346161,-4.0322602 8.2346161,-4.1158622 C 8.2346161,-4.1988432 8.2215481,-4.2629372 8.1954141,-4.3081452 C 8.1692791,-4.3533502 8.1322831,-4.3759542 8.0844261,-4.3759552 L 7.9551091,-4.3759552 M 7.8522671,-4.5301522 L 8.0844261,-4.5301522 C 8.1696181,-4.5301512 8.2339371,-4.4948522 8.2773821,-4.4242582 C 8.3211661,-4.3542792 8.3430581,-4.2514812 8.3430581,-4.1158622 C 8.3430581,-3.9790032 8.3211661,-3.8755862 8.2773821,-3.8056102 C 8.2339371,-3.7356322 8.1696181,-3.7006432 8.0844261,-3.7006432 L 7.9551091,-3.7006432 L 7.9551091,-3.1433032 L 7.8522671,-3.1433032 L 7.8522671,-4.5301522 M 8.6897691,-3.6662742 C 8.6140801,-3.6662742 8.5616401,-3.6504832 8.5324511,-3.6189002 C 8.5032611,-3.5873172 8.4886671,-3.5334412 8.4886671,-3.4572722 C 8.4886671,-3.3965832 8.4995281,-3.3482812 8.5212501,-3.3123632 C 8.5433121,-3.2770652 8.5731801,-3.2594162 8.6108561,-3.2594162 C 8.6627861,-3.2594162 8.7043641,-3.2928562 8.7355901,-3.3597372 C 8.7671551,-3.4272372 8.7829381,-3.5167212 8.7829381,-3.6281902 L 8.7829381,-3.6662742 L 8.6897691,-3.6662742 M 8.8766161,-3.7368712 L 8.8766161,-3.1433032 L 8.7829381,-3.1433032 L 8.7829381,-3.3012162 C 8.7615551,-3.2380512 8.7349111,-3.1912962 8.7030061,-3.1609522 C 8.6711011,-3.1312272 8.6320691,-3.1163652 8.5859091,-3.1163652 C 8.5275291,-3.1163652 8.4810301,-3.1460902 8.4464101,-3.2055402 C 8.4121291,-3.2656082 8.3949891,-3.3458032 8.3949891,-3.4461252 C 8.3949891,-3.5631662 8.4163721,-3.6514122 8.4591381,-3.7108622 C 8.5022431,-3.7703102 8.5663921,-3.8000352 8.6515851,-3.8000362 L 8.7829381,-3.8000362 L 8.7829381,-3.8167562 C 8.7829381,-3.8954022 8.7686821,-3.9560912 8.7401721,-3.9988212 C 8.7120001,-4.0421682 8.6722891,-4.0638432 8.6210381,-4.0638442 C 8.5884541,-4.0638432 8.5567191,-4.0567212 8.5258321,-4.0424792 C 8.4949461,-4.0282352 8.4652471,-4.0068712 8.4367361,-3.9783852 L 8.4367361,-4.1362982 C 8.4710171,-4.1604492 8.5042801,-4.1784082 8.5365241,-4.1901742 C 8.5687681,-4.2025592 8.6001641,-4.2087522 8.6307111,-4.2087532 C 8.7131881,-4.2087522 8.7747921,-4.1697372 8.8155221,-4.0917112 C 8.8562511,-4.0136832 8.8766151,-3.8954022 8.8766161,-3.7368712 M 9.0700821,-4.5886732 L 9.1637601,-4.5886732 L 9.1637601,-3.1433032 L 9.0700821,-3.1433032 L 9.0700821,-4.5886732 M 9.7173101,-3.6686217 C 9.7173091,-3.5800657 9.7293591,-3.5103987 9.7534571,-3.4596187 C 9.7775551,-3.4094577 9.8106481,-3.3843777 9.8527351,-3.3843777 C 9.8944841,-3.3843777 9.9272371,-3.4097677 9.9509961,-3.4605477 C 9.9750941,-3.5113277 9.9871441,-3.5806857 9.9871441,-3.6686217 C 9.9871441,-3.7553187 9.9749251,-3.8240567 9.9504871,-3.8748377 C 9.9260491,-3.9262367 9.8931261,-3.9519357 9.8517171,-3.9519367 C 9.8106481,-3.9519357 9.7778941,-3.9265457 9.7534571,-3.8757667 C 9.7293591,-3.8249857 9.7173091,-3.7559377 9.7173101,-3.6686217 M 9.9947811,-3.3908797 C 9.9744161,-3.3431967 9.9509961,-3.3078987 9.9245221,-3.2849857 C 9.8983871,-3.2626917 9.8678391,-3.2515447 9.8328801,-3.2515447 C 9.7745001,-3.2515447 9.7269831,-3.2899397 9.6903261,-3.3667287 C 9.6540091,-3.4441367 9.6358501,-3.5447677 9.6358501,-3.6686217 C 9.6358501,-3.7924747 9.6541781,-3.8931047 9.6908361,-3.9705147 C 9.7274921,-4.0479217 9.7748401,-4.0866257 9.8328801,-4.0866267 C 9.8678391,-4.0866257 9.8985571,-4.0748597 9.9250311,-4.0513287 C 9.9515051,-4.0284147 9.9747551,-3.9934267 9.9947811,-3.9463627 L 9.9947811,-4.0680487 L 10.067585,-4.0680487 L 10.067585,-3.3843777 C 10.117139,-3.3980017 10.155832,-3.4391827 10.183664,-3.5079217 C 10.211835,-3.5772787 10.22592,-3.6667627 10.225921,-3.7763737 C 10.22592,-3.8426357 10.22049,-3.9048717 10.209629,-3.9630827 C 10.199107,-4.0212937 10.182985,-4.0751697 10.161263,-4.1247117 C 10.125963,-4.2058347 10.082858,-4.2677617 10.031947,-4.3104917 C 9.9813731,-4.3538397 9.9262191,-4.3755137 9.8664821,-4.3755157 C 9.8247341,-4.3755137 9.7846831,-4.3652967 9.7463291,-4.3448617 C 9.7079751,-4.3250437 9.6725071,-4.2953187 9.6399231,-4.2556877 C 9.5866351,-4.1925207 9.5448881,-4.1095387 9.5146801,-4.0067417 C 9.4848111,-3.9045617 9.4698771,-3.7937127 9.4698771,-3.6741947 C 9.4698771,-3.5757307 9.4795511,-3.4834607 9.4988971,-3.3973827 C 9.5185831,-3.3113037 9.5469241,-3.2354437 9.5839201,-3.1698017 C 9.6195581,-3.1053977 9.6607971,-3.0564757 9.7076361,-3.0230357 C 9.7544751,-2.9889757 9.8045381,-2.9719457 9.8578271,-2.9719457 C 9.9016111,-2.9719457 9.9445471,-2.9855697 9.9866351,-3.0128177 C 10.029061,-3.0394457 10.067924,-3.0778407 10.103223,-3.1280017 L 10.149044,-3.0248937 C 10.106617,-2.9648247 10.060287,-2.9189987 10.010055,-2.8874157 C 9.9601601,-2.8552147 9.9094181,-2.8391137 9.8578271,-2.8391127 C 9.7950351,-2.8391137 9.7358071,-2.8595487 9.6801441,-2.9004207 C 9.6244801,-2.9406727 9.5749261,-2.9995037 9.5314811,-3.0769117 C 9.4880361,-3.1543197 9.4549431,-3.2438037 9.4322031,-3.3453637 C 9.4094621,-3.4475427 9.3980911,-3.5571537 9.3980921,-3.6741947 C 9.3980911,-3.7869007 9.4096321,-3.8943437 9.4327121,-3.9965237 C 9.4557921,-4.0987017 9.4887151,-4.1884957 9.5314811,-4.2659047 C 9.5752651,-4.3445507 9.6258371,-4.4046197 9.6831991,-4.4461117 C 9.7405591,-4.4882207 9.8013141,-4.5092757 9.8654631,-4.5092767 C 9.9374201,-4.5092757 10.004114,-4.4823377 10.065549,-4.4284627 C 10.127321,-4.3745847 10.179081,-4.2981057 10.22083,-4.1990237 C 10.246285,-4.1383347 10.265632,-4.0723827 10.27887,-4.0011677 C 10.292445,-3.9299517 10.299233,-3.8562587 10.299235,-3.7800897 C 10.299233,-3.6172217 10.27225,-3.4887247 10.218284,-3.3945957 C 10.164317,-3.3004667 10.089816,-3.2515447 9.9947811,-3.2478297 L 9.9947811,-3.3908797 M 10.84552,-3.7020617 C 10.845519,-3.8259147 10.831434,-3.9219007 10.803263,-3.9900217 C 10.775431,-4.0581397 10.736229,-4.0921997 10.685656,-4.0922007 C 10.635423,-4.0921997 10.596221,-4.0581397 10.56805,-3.9900217 C 10.540218,-3.9219007 10.526302,-3.8259147 10.526302,-3.7020617 C 10.526302,-3.5788277 10.540218,-3.4831507 10.56805,-3.4150317 C 10.596221,-3.3469117 10.635423,-3.3128517 10.685656,-3.3128527 C 10.736229,-3.3128517 10.775431,-3.3469117 10.803263,-3.4150317 C 10.831434,-3.4831507 10.845519,-3.5788277 10.84552,-3.7020617 M 10.939198,-3.2989187 C 10.939197,-3.1218087 10.917645,-2.9902147 10.87454,-2.9041367 C 10.831434,-2.8174387 10.765418,-2.7740907 10.676492,-2.7740897 C 10.643569,-2.7740907 10.612513,-2.7787347 10.583323,-2.7880237 C 10.554134,-2.7966937 10.525793,-2.8103177 10.4983,-2.8288957 L 10.4983,-2.9951687 C 10.525793,-2.9679207 10.552946,-2.9477947 10.57976,-2.9347897 C 10.606573,-2.9217857 10.633896,-2.9152837 10.661728,-2.9152827 C 10.723161,-2.9152837 10.769152,-2.9446987 10.799699,-3.0035287 C 10.830246,-3.0617397 10.845519,-3.1499857 10.84552,-3.2682657 L 10.84552,-3.3527957 C 10.826173,-3.2914877 10.801396,-3.2456617 10.771189,-3.2153177 C 10.74098,-3.1849737 10.704833,-3.1698017 10.662746,-3.1698017 C 10.592827,-3.1698017 10.536484,-3.2184147 10.493718,-3.3156387 C 10.450952,-3.4128637 10.429569,-3.5416717 10.429569,-3.7020617 C 10.429569,-3.8630707 10.450952,-3.9921877 10.493718,-4.0894137 C 10.536484,-4.1866377 10.592827,-4.2352507 10.662746,-4.2352517 C 10.704833,-4.2352507 10.74098,-4.2200787 10.771189,-4.1897347 C 10.801396,-4.1593897 10.826173,-4.1135637 10.84552,-4.0522577 L 10.84552,-4.2101707 L 10.939198,-4.2101707 L 10.939198,-3.2989187 M 11.576107,-4.0104577 C 11.599526,-4.0872457 11.627527,-4.1439077 11.660111,-4.1804457 C 11.692695,-4.2169817 11.731048,-4.2352507 11.775172,-4.2352517 C 11.834569,-4.2352507 11.88039,-4.1971647 11.912635,-4.1209957 C 11.944878,-4.0454447 11.961,-3.9376927 11.961001,-3.7977387 L 11.961001,-3.1698017 L 11.866814,-3.1698017 L 11.866814,-3.7921657 C 11.866813,-3.8918667 11.85714,-3.9658687 11.837794,-4.0141727 C 11.818447,-4.0624747 11.788918,-4.0866257 11.749207,-4.0866267 C 11.700671,-4.0866257 11.662317,-4.0572107 11.634146,-3.9983817 C 11.605975,-3.9395497 11.591889,-3.8593557 11.591889,-3.7577967 L 11.591889,-3.1698017 L 11.497702,-3.1698017 L 11.497702,-3.7921657 C 11.497702,-3.8924857 11.488029,-3.9664887 11.468682,-4.0141727 C 11.449336,-4.0624747 11.419467,-4.0866257 11.379077,-4.0866267 C 11.33122,-4.0866257 11.293206,-4.0569017 11.265035,-3.9974527 C 11.236863,-3.9386217 11.222777,-3.8587357 11.222778,-3.7577967 L 11.222778,-3.1698017 L 11.128591,-3.1698017 L 11.128591,-4.2101707 L 11.222778,-4.2101707 L 11.222778,-4.0485427 C 11.24416,-4.1123257 11.269786,-4.1593897 11.299655,-4.1897347 C 11.329523,-4.2200787 11.364991,-4.2352507 11.406061,-4.2352517 C 11.447469,-4.2352507 11.482598,-4.2160527 11.511449,-4.1776597 C 11.540638,-4.1392637 11.56219,-4.0835297 11.576107,-4.0104577 M 12.407499,-3.6927727 C 12.33181,-3.6927727 12.27937,-3.6769817 12.250181,-3.6453987 C 12.220992,-3.6138157 12.206397,-3.5599397 12.206397,-3.4837707 C 12.206397,-3.4230817 12.217258,-3.3747797 12.238981,-3.3388617 C 12.261042,-3.3035637 12.290911,-3.2859147 12.328586,-3.2859147 C 12.380516,-3.2859147 12.422094,-3.3193547 12.45332,-3.3862357 C 12.484885,-3.4537357 12.500668,-3.5432197 12.500668,-3.6546887 L 12.500668,-3.6927727 L 12.407499,-3.6927727 M 12.594346,-3.7633697 L 12.594346,-3.1698017 L 12.500668,-3.1698017 L 12.500668,-3.3277147 C 12.479285,-3.2645497 12.452641,-3.2177947 12.420736,-3.1874507 C 12.388831,-3.1577257 12.349799,-3.1428637 12.303639,-3.1428637 C 12.24526,-3.1428637 12.19876,-3.1725887 12.16414,-3.2320387 C 12.129859,-3.2921067 12.112719,-3.3723017 12.112719,-3.4726237 C 12.112719,-3.5896647 12.134102,-3.6779107 12.176868,-3.7373607 C 12.219973,-3.7968087 12.284122,-3.8265337 12.369315,-3.8265347 L 12.500668,-3.8265347 L 12.500668,-3.8432547 C 12.500668,-3.9219007 12.486412,-3.9825897 12.457902,-4.0253197 C 12.429731,-4.0686667 12.390019,-4.0903417 12.338768,-4.0903427 C 12.306184,-4.0903417 12.274449,-4.0832197 12.243563,-4.0689777 C 12.212676,-4.0547337 12.182977,-4.0333697 12.154467,-4.0048837 L 12.154467,-4.1627967 C 12.188747,-4.1869477 12.22201,-4.2049067 12.254254,-4.2166727 C 12.286498,-4.2290577 12.317894,-4.2352507 12.348441,-4.2352517 C 12.430918,-4.2352507 12.492522,-4.1962357 12.533252,-4.1182097 C 12.573981,-4.0401817 12.594346,-3.9219007 12.594346,-3.7633697 M 12.787812,-4.2101707 L 12.88149,-4.2101707 L 12.88149,-3.1698017 L 12.787812,-3.1698017 L 12.787812,-4.2101707 M 12.787812,-4.6151717 L 12.88149,-4.6151717 L 12.88149,-4.3987377 L 12.787812,-4.3987377 L 12.787812,-4.6151717 M 13.076992,-4.6151717 L 13.17067,-4.6151717 L 13.17067,-3.1698017 L 13.076992,-3.1698017 L 13.076992,-4.6151717 M 13.379409,-3.4057427 L 13.486833,-3.4057427 L 13.486833,-3.1698017 L 13.379409,-3.1698017 L 13.379409,-3.4057427 M 14.108468,-4.1702277 L 14.108468,-4.0104577 C 14.081994,-4.0370847 14.05535,-4.0569017 14.028537,-4.0699067 C 14.002062,-4.0835297 13.975248,-4.0903417 13.948096,-4.0903427 C 13.88734,-4.0903417 13.840162,-4.0550437 13.80656,-3.9844477 C 13.772958,-3.9144697 13.756157,-3.8160067 13.756157,-3.6890577 C 13.756157,-3.5621067 13.772958,-3.4633337 13.80656,-3.3927377 C 13.840162,-3.3227607 13.88734,-3.2877717 13.948096,-3.2877717 C 13.975248,-3.2877717 14.002062,-3.2942747 14.028537,-3.3072787 C 14.05535,-3.3209027 14.081994,-3.3410287 14.108468,-3.3676577 L 14.108468,-3.2097447 C 14.082333,-3.1874507 14.05518,-3.1707307 14.027009,-3.1595837 C 13.999177,-3.1484377 13.969478,-3.1428637 13.937913,-3.1428637 C 13.852041,-3.1428637 13.783819,-3.1920947 13.733247,-3.2905587 C 13.682674,-3.3890217 13.657388,-3.5218547 13.657388,-3.6890577 C 13.657388,-3.8587357 13.682844,-3.9921877 13.733756,-4.0894137 C 13.785007,-4.1866377 13.855096,-4.2352507 13.944023,-4.2352517 C 13.972872,-4.2352507 14.001043,-4.2296767 14.028537,-4.2185307 C 14.056029,-4.2080027 14.082672,-4.1919017 14.108468,-4.1702277 M 14.493363,-4.0903427 C 14.443129,-4.0903417 14.403418,-4.0544247 14.374229,-3.9825907 C 14.345039,-3.9113737 14.330444,-3.8135297 14.330445,-3.6890577 C 14.330444,-3.5645847 14.344869,-3.4664307 14.37372,-3.3945957 C 14.402909,-3.3233797 14.44279,-3.2877717 14.493363,-3.2877717 C 14.543256,-3.2877717 14.582798,-3.3236897 14.611988,-3.3955247 C 14.641177,-3.4673597 14.655772,-3.5652037 14.655772,-3.6890577 C 14.655772,-3.8122907 14.641177,-3.9098257 14.611988,-3.9816617 C 14.582798,-4.0541147 14.543256,-4.0903417 14.493363,-4.0903427 M 14.493363,-4.2352517 C 14.574821,-4.2352507 14.638801,-4.1869477 14.685301,-4.0903427 C 14.7318,-3.9937367 14.75505,-3.8599747 14.75505,-3.6890577 C 14.75505,-3.5187587 14.7318,-3.3849967 14.685301,-3.2877717 C 14.638801,-3.1911667 14.574821,-3.1428637 14.493363,-3.1428637 C 14.411564,-3.1428637 14.347415,-3.1911667 14.300915,-3.2877717 C 14.254755,-3.3849967 14.231675,-3.5187587 14.231675,-3.6890577 C 14.231675,-3.8599747 14.254755,-3.9937367 14.300915,-4.0903427 C 14.347415,-4.1869477 14.411564,-4.2352507 14.493363,-4.2352517 M 15.353775,-4.0104577 C 15.377194,-4.0872457 15.405195,-4.1439077 15.43778,-4.1804457 C 15.470363,-4.2169817 15.508716,-4.2352507 15.552841,-4.2352517 C 15.612237,-4.2352507 15.658058,-4.1971647 15.690303,-4.1209957 C 15.722547,-4.0454447 15.738669,-3.9376927 15.738669,-3.7977387 L 15.738669,-3.1698017 L 15.644482,-3.1698017 L 15.644482,-3.7921657 C 15.644482,-3.8918667 15.634808,-3.9658687 15.615463,-4.0141727 C 15.596115,-4.0624747 15.566586,-4.0866257 15.526876,-4.0866267 C 15.478339,-4.0866257 15.439985,-4.0572107 15.411815,-3.9983817 C 15.383643,-3.9395497 15.369557,-3.8593557 15.369558,-3.7577967 L 15.369558,-3.1698017 L 15.275371,-3.1698017 L 15.275371,-3.7921657 C 15.27537,-3.8924857 15.265697,-3.9664887 15.246351,-4.0141727 C 15.227004,-4.0624747 15.197136,-4.0866257 15.156746,-4.0866267 C 15.108888,-4.0866257 15.070874,-4.0569017 15.042703,-3.9974527 C 15.014531,-3.9386217 15.000446,-3.8587357 15.000446,-3.7577967 L 15.000446,-3.1698017 L 14.906259,-3.1698017 L 14.906259,-4.2101707 L 15.000446,-4.2101707 L 15.000446,-4.0485427 C 15.021829,-4.1123257 15.047455,-4.1593897 15.077323,-4.1897347 C 15.107191,-4.2200787 15.14266,-4.2352507 15.183729,-4.2352517 C 15.225137,-4.2352507 15.260266,-4.2160527 15.289117,-4.1776597 C 15.318306,-4.1392637 15.339859,-4.0835297 15.353775,-4.0104577"
         sodipodi:nodetypes="csssccccccssscccsssssssccsssssssccsssssssccssssssscccccccsccccsccccccccccsssccccsssccccccssssscccccccssssscccsssccssscccccccsssssssccsssssssccccsssssssssssssssccssssssssssssssscccsssssssccsssccsssccssssssscccccsssccccsssccccsssccccccsssccssssscccccccssssscccsssccssscccccccccccccccccccccccsssssssccsssssssccsssssssccsssssssccsssccccsssccccsssccccccsssc"
         stroke-opacity="1"
         fill="#d40000"
         font-family="Bitstream Vera Sans"
         stroke="none"
         font-style="normal"
         stroke-linejoin="miter"
         fill-opacity="1"
         font-weight="normal"
         stroke-linecap="butt"
         stroke-width="1"
         font-size="4" />
    </g>
  </g>
</svg>
