<?xml version="1.0" encoding="UTF-8" standalone="no"?>
<!-- Created with Inkscape (http://www.inkscape.org/) -->

<svg
   xmlns:dc="http://purl.org/dc/elements/1.1/"
   xmlns:cc="http://creativecommons.org/ns#"
   xmlns:rdf="http://www.w3.org/1999/02/22-rdf-syntax-ns#"
   xmlns:svg="http://www.w3.org/2000/svg"
   xmlns="http://www.w3.org/2000/svg"
   xmlns:xlink="http://www.w3.org/1999/xlink"
   xmlns:sodipodi="http://sodipodi.sourceforge.net/DTD/sodipodi-0.dtd"
   xmlns:inkscape="http://www.inkscape.org/namespaces/inkscape"
   id="svg2"
   sodipodi:version="0.32"
   inkscape:version="0.91 r13725"
   width="256"
   height="256"
   version="1.0"
   sodipodi:docname="seahorse.svg">
  <metadata
     id="metadata7">
    <rdf:RDF>
      <cc:Work
         rdf:about="">
        <dc:format>image/svg+xml</dc:format>
        <dc:type
           rdf:resource="http://purl.org/dc/dcmitype/StillImage" />
        <dc:title></dc:title>
      </cc:Work>
    </rdf:RDF>
  </metadata>
  <defs
     id="defs5">
    <linearGradient
       inkscape:collect="always"
       id="linearGradient2828">
      <stop
         style="stop-color:white;stop-opacity:0"
         offset="0"
         id="stop2830" />
      <stop
         style="stop-color:#ffffff;stop-opacity:0.63186812"
         offset="1"
         id="stop2832" />
    </linearGradient>
    <linearGradient
       inkscape:collect="always"
       id="linearGradient2814">
      <stop
         style="stop-color:white;stop-opacity:0"
         offset="0"
         id="stop2816" />
      <stop
         style="stop-color:white;stop-opacity:1"
         offset="1"
         id="stop2818" />
    </linearGradient>
    <linearGradient
       inkscape:collect="always"
       id="linearGradient2798">
      <stop
         style="stop-color:#efe219;stop-opacity:1"
         offset="0"
         id="stop2800" />
      <stop
         style="stop-color:#91870e;stop-opacity:1"
         offset="1"
         id="stop2802" />
    </linearGradient>
    <linearGradient
       inkscape:collect="always"
       id="linearGradient2786">
      <stop
         style="stop-color:white;stop-opacity:1"
         offset="0"
         id="stop2788" />
      <stop
         style="stop-color:black;stop-opacity:1"
         offset="1"
         id="stop2790" />
    </linearGradient>
    <linearGradient
       id="linearGradient2770">
      <stop
         style="stop-color:#f2e394;stop-opacity:1"
         offset="0"
         id="stop2772" />
      <stop
         style="stop-color:#ffed93;stop-opacity:0"
         offset="1"
         id="stop2774" />
    </linearGradient>
    <radialGradient
       inkscape:collect="always"
       xlink:href="#linearGradient2770"
       id="radialGradient2850"
       gradientUnits="userSpaceOnUse"
       gradientTransform="matrix(0.86597988,-0.0127945,0.0152935,1.0351217,16.231785,0.54486222)"
       cx="115.31772"
       cy="26.495272"
       fx="115.31772"
       fy="26.495272"
       r="7.1379962" />
    <radialGradient
       inkscape:collect="always"
       xlink:href="#linearGradient2786"
       id="radialGradient2852"
       gradientUnits="userSpaceOnUse"
       gradientTransform="matrix(-1.94139,-0.02665742,0.02099797,-1.529228,160.7255,59.27799)"
       cx="54.805294"
       cy="22.776361"
       fx="54.805294"
       fy="22.776361"
       r="6.1701322" />
    <linearGradient
       inkscape:collect="always"
       xlink:href="#linearGradient2798"
       id="linearGradient2854"
       gradientUnits="userSpaceOnUse"
       x1="128.69376"
       y1="43.069942"
       x2="132.11342"
       y2="40.408318" />
    <linearGradient
       inkscape:collect="always"
       xlink:href="#linearGradient2814"
       id="linearGradient2856"
       gradientUnits="userSpaceOnUse"
       x1="119.16824"
       y1="14.517958"
       x2="125.82231"
       y2="9.7996216" />
    <linearGradient
       inkscape:collect="always"
       xlink:href="#linearGradient2828"
       id="linearGradient2858"
       gradientUnits="userSpaceOnUse"
       x1="98.874046"
       y1="55.651333"
       x2="104.61063"
       y2="58.071835" />
    <linearGradient
       id="linearGradient4266">
      <stop
         stop-opacity="0.319"
         stop-color="#1a485c"
         id="stop4268" />
      <stop
         stop-opacity="0.585"
         stop-color="#ffffff"
         offset="1"
         id="stop4270" />
    </linearGradient>
    <linearGradient
       id="linearGradient3894">
      <stop
         stop-opacity="0.902"
         stop-color="#ffffff"
         id="stop3897" />
      <stop
         stop-opacity="0"
         stop-color="#9abcca"
         offset="1"
         id="stop3899" />
    </linearGradient>
    <linearGradient
       id="linearGradient3828">
      <stop
         stop-opacity="0.486"
         stop-color="#ffffff"
         id="stop3830" />
      <stop
         stop-opacity="0"
         stop-color="#286483"
         offset="1"
         id="stop3832" />
    </linearGradient>
    <linearGradient
       id="linearGradient3906">
      <stop
         stop-opacity="1"
         stop-color="#cedce2"
         id="stop3908" />
      <stop
         stop-opacity="0"
         stop-color="#cedce2"
         id="stop3910"
         offset="1" />
    </linearGradient>
    <linearGradient
       id="linearGradient3878">
      <stop
         stop-opacity="0.821"
         stop-color="#d3f2ff"
         id="stop3880" />
      <stop
         stop-opacity="0"
         stop-color="#9abcca"
         id="stop3882"
         offset="1" />
    </linearGradient>
    <linearGradient
       id="linearGradient3867">
      <stop
         stop-opacity="0.507"
         stop-color="#99bbc9"
         id="stop3869" />
      <stop
         stop-opacity="0"
         stop-color="#476b7a"
         id="stop3871"
         offset="1" />
    </linearGradient>
    <linearGradient
       id="linearGradient3851">
      <stop
         stop-opacity="0.683"
         stop-color="#123e50"
         id="stop3853" />
      <stop
         stop-opacity="0.749"
         stop-color="#c6d7de"
         offset="0.371"
         id="stop3861" />
      <stop
         stop-opacity="0.782"
         stop-color="#123e50"
         offset="0.716"
         id="stop3859" />
      <stop
         stop-opacity="0.099"
         stop-color="#c3d4db"
         id="stop3855"
         offset="1" />
    </linearGradient>
    <linearGradient
       id="linearGradient3824">
      <stop
         stop-opacity="0.838"
         stop-color="#ffffff"
         id="stop3826" />
      <stop
         stop-opacity="0"
         stop-color="#70b5d4"
         offset="1"
         id="stop3828" />
    </linearGradient>
    <linearGradient
       id="linearGradient3815">
      <stop
         stop-opacity="0.113"
         stop-color="#9fcaff"
         id="stop3817" />
      <stop
         stop-opacity="0"
         stop-color="#668dbd"
         offset="1"
         id="stop3819" />
    </linearGradient>
    <linearGradient
       id="linearGradient3773">
      <stop
         stop-opacity="0.838"
         stop-color="#70b5d4"
         id="stop3775" />
      <stop
         stop-opacity="0.275"
         stop-color="#70b5d4"
         id="stop3777"
         offset="1" />
    </linearGradient>
    <linearGradient
       id="linearGradient3765">
      <stop
         stop-opacity="0.353"
         stop-color="#668dbd"
         id="stop3767" />
      <stop
         stop-opacity="0.094"
         stop-color="#668dbd"
         id="stop3769"
         offset="1" />
    </linearGradient>
    <linearGradient
       y2="254.22"
       x2="266.18"
       y1="253.18"
       x1="229.62"
       spreadMethod="reflect"
       gradientTransform="matrix(0.82699483,0,0,-0.82699483,-106.37695,393.98956)"
       gradientUnits="userSpaceOnUse"
       id="linearGradient3860"
       xlink:href="#linearGradient3828"
       inkscape:collect="always" />
    <linearGradient
       y2="252.55"
       x2="249.45"
       y1="251.92"
       x1="226.48"
       spreadMethod="reflect"
       gradientTransform="matrix(-0.82002201,-0.10716502,0.10716502,-0.82002201,367.07244,422.46474)"
       gradientUnits="userSpaceOnUse"
       id="linearGradient3862"
       xlink:href="#linearGradient3828"
       inkscape:collect="always" />
    <linearGradient
       y2="256.25"
       x2="17.757"
       y1="183.53"
       x1="17.757"
       gradientUnits="userSpaceOnUse"
       id="linearGradient3864"
       xlink:href="#linearGradient3765"
       inkscape:collect="always" />
    <linearGradient
       y2="173.91"
       x2="67.09"
       y1="264.77"
       x1="66.09"
       gradientUnits="userSpaceOnUse"
       id="linearGradient3866"
       xlink:href="#linearGradient3773"
       inkscape:collect="always" />
    <linearGradient
       y2="234.6"
       x2="354.07"
       y1="236.06"
       x1="218.43"
       spreadMethod="reflect"
       gradientTransform="matrix(0.82699483,0,0,0.82699483,-100.84689,27.344659)"
       gradientUnits="userSpaceOnUse"
       id="linearGradient3868"
       xlink:href="#linearGradient3851"
       inkscape:collect="always" />
    <linearGradient
       y2="252.55"
       x2="249.45"
       y1="251.92"
       x1="226.48"
       spreadMethod="reflect"
       gradientTransform="matrix(0.82699483,0,0,0.60822815,-100.84689,80.374138)"
       gradientUnits="userSpaceOnUse"
       id="linearGradient3872"
       xlink:href="#linearGradient3828"
       inkscape:collect="always" />
    <linearGradient
       y2="254.22"
       x2="266.18"
       y1="253.18"
       x1="229.62"
       spreadMethod="reflect"
       gradientTransform="matrix(-0.82699483,0,0,0.6334491,365.06232,74.617591)"
       gradientUnits="userSpaceOnUse"
       id="linearGradient3874"
       xlink:href="#linearGradient3828"
       inkscape:collect="always" />
    <radialGradient
       r="126.76"
       fy="149.73"
       fx="-39.669"
       cy="149.73"
       cx="-39.669"
       spreadMethod="reflect"
       gradientTransform="matrix(1,0,0,0.28322862,0,157.8256)"
       gradientUnits="userSpaceOnUse"
       id="radialGradient3876"
       xlink:href="#linearGradient3815"
       inkscape:collect="always" />
    <linearGradient
       y2="234.13"
       x2="144.1"
       y1="264.77"
       x1="66.09"
       spreadMethod="reflect"
       gradientTransform="matrix(0.82699483,0,0,0.862037,114.19173,14.733697)"
       gradientUnits="userSpaceOnUse"
       id="linearGradient3881"
       xlink:href="#linearGradient3824"
       inkscape:collect="always" />
    <linearGradient
       y2="6.578"
       x2="63.37"
       y1="10.421"
       x1="61.93"
       spreadMethod="reflect"
       gradientTransform="matrix(0,1,1,0,-156.37299,-45.269302)"
       gradientUnits="userSpaceOnUse"
       id="linearGradient3886"
       xlink:href="#linearGradient3828"
       inkscape:collect="always" />
    <linearGradient
       y2="-16.12"
       x2="359.28"
       y1="-13.08"
       x1="317.98"
       spreadMethod="reflect"
       gradientTransform="matrix(0.82699483,0,0,0.82699483,-308.16653,221.32204)"
       gradientUnits="userSpaceOnUse"
       id="linearGradient3888"
       xlink:href="#linearGradient3906"
       inkscape:collect="always" />
    <linearGradient
       y2="-3.812"
       x2="361.29"
       y1="-0.847"
       x1="359.8"
       spreadMethod="reflect"
       gradientTransform="matrix(0.82699483,0,0,-0.82699483,-308.37831,209.25344)"
       gradientUnits="userSpaceOnUse"
       id="linearGradient3890"
       xlink:href="#linearGradient4266"
       inkscape:collect="always" />
    <linearGradient
       y2="54.15"
       x2="278.95"
       y1="56.22"
       x1="227.44"
       spreadMethod="reflect"
       gradientTransform="matrix(0.82699483,0,0,0.82699483,-309.04999,61.539909)"
       gradientUnits="userSpaceOnUse"
       id="linearGradient3893"
       xlink:href="#linearGradient3867"
       inkscape:collect="always" />
    <linearGradient
       y2="48.26"
       x2="290.47"
       y1="-52.844"
       x1="342.91"
       gradientTransform="matrix(0.82310306,0.08013618,0,0.82699483,-308.18932,32.259602)"
       gradientUnits="userSpaceOnUse"
       id="linearGradient3895"
       xlink:href="#linearGradient3894"
       inkscape:collect="always" />
    <linearGradient
       y2="-4.03"
       x2="363.13"
       y1="0.346"
       x1="365"
       spreadMethod="reflect"
       gradientTransform="matrix(0.82699483,0,0,0.82699483,-308.16653,32.017753)"
       gradientUnits="userSpaceOnUse"
       id="linearGradient3897"
       xlink:href="#linearGradient4266"
       inkscape:collect="always" />
    <linearGradient
       y2="-16.12"
       x2="359.28"
       y1="-13.08"
       x1="317.98"
       spreadMethod="reflect"
       gradientTransform="matrix(0.82699483,0,0,0.82699483,-308.16653,32.017753)"
       gradientUnits="userSpaceOnUse"
       id="linearGradient3899"
       xlink:href="#linearGradient3906"
       inkscape:collect="always" />
    <linearGradient
       y2="-4.093"
       x2="361.38"
       y1="-9.786"
       x1="359.71"
       spreadMethod="reflect"
       gradientTransform="matrix(0.82699483,0,0,-0.82699483,-308.37831,209.25344)"
       gradientUnits="userSpaceOnUse"
       id="linearGradient3114"
       xlink:href="#linearGradient4266"
       inkscape:collect="always" />
    <linearGradient
       y2="30.14"
       x2="264.02"
       y1="-44.748"
       x1="289.32"
       gradientTransform="matrix(0.82310306,0.08013618,0,0.82699483,-308.18932,32.259602)"
       gradientUnits="userSpaceOnUse"
       id="linearGradient3118"
       xlink:href="#linearGradient3878"
       inkscape:collect="always" />
    <linearGradient
       y2="-5.674"
       x2="361"
       y1="1.048"
       x1="364.69"
       spreadMethod="reflect"
       gradientTransform="matrix(0.82699483,0,0,0.82699483,-308.16653,32.017753)"
       gradientUnits="userSpaceOnUse"
       id="linearGradient3120"
       xlink:href="#linearGradient4266"
       inkscape:collect="always" />
    <linearGradient
       inkscape:collect="always"
       xlink:href="#linearGradient3773"
       id="linearGradient4508"
       gradientUnits="userSpaceOnUse"
       x1="66.09"
       y1="264.77"
       x2="67.09"
       y2="173.91" />
    <linearGradient
       inkscape:collect="always"
       xlink:href="#linearGradient3773"
       id="linearGradient4510"
       gradientUnits="userSpaceOnUse"
       x1="66.09"
       y1="264.77"
       x2="67.09"
       y2="173.91" />
    <linearGradient
       inkscape:collect="always"
       xlink:href="#linearGradient3828"
       id="linearGradient4512"
       gradientUnits="userSpaceOnUse"
       gradientTransform="matrix(0,1,1,0,-156.37299,-45.269302)"
       spreadMethod="reflect"
       x1="61.93"
       y1="10.421"
       x2="63.37"
       y2="6.578" />
    <linearGradient
       inkscape:collect="always"
       xlink:href="#linearGradient3906"
       id="linearGradient4514"
       gradientUnits="userSpaceOnUse"
       gradientTransform="matrix(0.82699483,0,0,0.82699483,-308.16653,221.32204)"
       spreadMethod="reflect"
       x1="317.98"
       y1="-13.08"
       x2="359.28"
       y2="-16.12" />
    <linearGradient
       inkscape:collect="always"
       xlink:href="#linearGradient3867"
       id="linearGradient4516"
       gradientUnits="userSpaceOnUse"
       gradientTransform="matrix(0.82699483,0,0,0.82699483,-309.04999,61.539909)"
       spreadMethod="reflect"
       x1="227.44"
       y1="56.22"
       x2="278.95"
       y2="54.15" />
    <linearGradient
       inkscape:collect="always"
       xlink:href="#linearGradient3906"
       id="linearGradient4518"
       gradientUnits="userSpaceOnUse"
       gradientTransform="matrix(0.82699483,0,0,0.82699483,-308.16653,32.017753)"
       spreadMethod="reflect"
       x1="317.98"
       y1="-13.08"
       x2="359.28"
       y2="-16.12" />
  </defs>
  <sodipodi:namedview
     inkscape:window-height="1057"
     inkscape:window-width="1920"
     inkscape:pageshadow="2"
     inkscape:pageopacity="0"
     guidetolerance="10.0"
     gridtolerance="10.0"
     objecttolerance="10.0"
     borderopacity="1.0"
     bordercolor="#666666"
     pagecolor="#ffffff"
     id="base"
     width="256px"
     height="256px"
     inkscape:zoom="3.17"
     inkscape:cx="128"
     inkscape:cy="128"
     inkscape:window-x="-2"
     inkscape:window-y="-5"
     inkscape:current-layer="svg2"
     showgrid="false"
     inkscape:window-maximized="1" />
  <g
     id="g3846"
     transform="matrix(0.97913718,0,0,0.97913718,-1.8723824,7.7652202)">
    <path
       sodipodi:nodetypes="ccccc"
       inkscape:connector-curvature="0"
       id="path3807"
       d="m 54.736434,189.87309 c 11.34321,-2.98591 45.458516,-11.09467 58.887356,-9.85865 l -0.88646,-4.41695 c -12.71639,0.16462 -45.30945,4.76633 -58.433689,9.79607 z"
       style="opacity:0.6;fill:url(#linearGradient3860);fill-opacity:1;stroke:none" />
    <path
       d="m 225.18456,193.8499 c -10.99552,-4.57681 -21.97894,-7.51195 -35.15989,-9.58669 l 1.51764,-4.32005 c 13.50116,1.50274 24.01737,6.30605 34.7842,10.30907 z"
       id="path3803"
       inkscape:connector-curvature="0"
       sodipodi:nodetypes="ccccc"
       style="fill:url(#linearGradient3862);fill-opacity:1;stroke:none" />
    <path
       sodipodi:nodetypes="ccccc"
       inkscape:connector-curvature="0"
       id="path3781"
       d="m 29.95332,202.76883 0.295954,6.78299 c 17.429155,-41.66727 194.671716,-41.85651 208.155156,0 l -0.29595,-6.50171 C 231.10287,165.65974 39.311097,165.15265 29.95332,202.76883 Z"
       style="fill:#7b97c2;fill-opacity:0.33200001;stroke:none" />
    <ellipse
       transform="matrix(0.82699483,0,0,0.862037,115.18046,19.830364)"
       id="path3755"
       cx="24.563999"
       cy="220.19"
       rx="125.78"
       ry="34.923"
       stroke-miterlimit="4"
       style="fill:url(#linearGradient3864);fill-opacity:1;stroke:url(#linearGradient4508);stroke-width:1.95899999;stroke-miterlimit:4;stroke-dasharray:none;stroke-opacity:0.42699998" />
    <path
       d="m 29.982648,213.06881 0.06684,-8.22029 c 13.101763,40.12356 195.926662,39.62893 207.496412,1.43728 l 0.59191,6.50172 C 231.1322,250.1779 39.340425,250.68498 29.982648,213.06881 Z"
       id="path3783"
       inkscape:connector-curvature="0"
       sodipodi:nodetypes="ccccc"
       style="fill:url(#linearGradient3868);fill-opacity:1;stroke:none" />
    <ellipse
       id="path3785"
       transform="matrix(0.82699483,0,0,0.88958816,114.51701,13.92547)"
       cx="24.563999"
       cy="220.19"
       rx="125.78"
       ry="34.923"
       stroke-miterlimit="4"
       style="fill:none;stroke:url(#linearGradient4510);stroke-width:1.95899999;stroke-miterlimit:4;stroke-dasharray:none;stroke-opacity:0.42699998" />
    <path
       sodipodi:nodetypes="ccccc"
       inkscape:connector-curvature="0"
       id="path3789"
       d="m 68.008438,227.80985 c 11.495889,2.2898 23.526195,5.87838 36.864872,6.13522 l -0.34601,4.77863 c -13.505206,-0.50428 -25.079598,-2.40682 -35.68238,-5.02282 z"
       style="fill:url(#linearGradient3872);fill-opacity:1;stroke:none" />
    <path
       d="m 203.81933,227.63684 c -11.34321,2.11718 -44.49242,8.05513 -57.98607,6.59676 l -0.14445,5.49147 c 12.95907,0.45089 46.3116,-4.40142 58.37491,-7.44429 z"
       id="path3799"
       inkscape:connector-curvature="0"
       sodipodi:nodetypes="ccccc"
       style="fill:url(#linearGradient3874);fill-opacity:1;stroke:none" />
    <ellipse
       id="path3811"
       transform="matrix(0.82699483,0,0,0.862037,114.12171,14.436903)"
       cx="24.563999"
       cy="220.19"
       rx="125.78"
       ry="34.923"
       stroke-miterlimit="4"
       style="fill:url(#radialGradient3876);fill-opacity:1;stroke:url(#linearGradient3866);stroke-width:1.95899999;stroke-miterlimit:4;stroke-dasharray:none;stroke-opacity:0.42699998" />
    <path
       sodipodi:nodetypes="csc"
       inkscape:connector-curvature="0"
       id="path3821"
       d="m 238.52586,204.54527 c 0,16.62627 -46.5712,30.10452 -104.0197,30.10452 -57.448495,0 -104.019702,-13.47825 -104.019702,-30.10452"
       stroke-miterlimit="4"
       style="fill:none;stroke:url(#linearGradient3881);stroke-width:0.82700002;stroke-miterlimit:4;stroke-dasharray:none;stroke-opacity:0.42699998" />
  </g>
  <g
     id="g3873"
     transform="matrix(1.0392943,0,0,0.97913718,213.52472,-7.177301)">
    <path
       sodipodi:nodetypes="ccccc"
       inkscape:connector-curvature="0"
       id="path3818"
       d="m -141.32802,13.578329 -1.32107,2.64214 c -2.31697,0.54708 -4.95002,2.20156 -6.32512,6.72545 0.18667,-3.30646 1.43774,-5.22102 3.00243,-6.72545 1.47914,-1.98116 3.06018,-2.33197 4.64376,-2.64214 z"
       style="fill:url(#linearGradient4512);fill-opacity:1;stroke:none" />
    <path
       d="m -142.52885,202.625 3.31276,-1.37079 128.16928,12.33714 -4.45508,1.14235 z"
       id="path3914"
       inkscape:connector-curvature="0"
       style="opacity:0.77100004;fill:url(#linearGradient4514);fill-opacity:1;stroke:none" />
    <path
       d="m -15.93254,215.17187 c 3.22056,1.30219 7.76972,-3.23263 8.1687,-6.41288 l 3.01979,-2.24417 c 0.63231,4.07648 -2.777,8.03896 -7.56896,9.56853 z"
       id="path3900"
       inkscape:connector-curvature="0"
       sodipodi:nodetypes="ccccc"
       style="fill:url(#linearGradient3890);fill-opacity:1;stroke:none" />
    <rect
       transform="matrix(0.99529408,0.09690046,0,1,0,0)"
       ry="7.8470001"
       y="25.139999"
       x="-145.28"
       height="189.53999"
       width="141.62"
       id="rect3863"
       stroke-miterlimit="4"
       rx="7.8470001"
       style="opacity:0.6;fill:#123e50;fill-opacity:0.47300002;stroke:#b6ccd6;stroke-width:1.65799999;stroke-miterlimit:4;stroke-dasharray:none;stroke-opacity:0.42699998" />
    <path
       d="m -148.30186,19.704743 3.83675,-1.918377 -1.27891,173.932764 -3.19729,2.77098 z"
       id="path3888"
       inkscape:connector-curvature="0"
       sodipodi:nodetypes="ccccc"
       style="fill:#449abe;fill-opacity:0.19899998;stroke:none" />
    <rect
       id="rect3865"
       width="141.62"
       height="189.53999"
       x="-149.24001"
       y="27.25"
       ry="7.8470001"
       transform="matrix(0.99529408,0.09690046,0,1,0,0)"
       stroke-miterlimit="4"
       rx="7.8470001"
       style="opacity:0.6;fill:url(#linearGradient4516);fill-opacity:1;stroke:#b6ccd6;stroke-width:1.65799999;stroke-miterlimit:4;stroke-dasharray:none;stroke-opacity:0.42699998" />
    <path
       sodipodi:nodetypes="sssccss"
       inkscape:connector-curvature="0"
       id="rect3875"
       d="m -141.31817,14.218493 125.330398,12.201994 c 4.326997,0.42127 7.810457,4.260354 7.810457,8.607811 l 0,90.848592 C -83.296852,31.653305 -118.38326,45.376176 -149.12863,70.804335 l 0,-49.498863 c 0,-4.347457 3.48347,-7.508249 7.81046,-7.086979 z"
       style="opacity:0.6;fill:url(#linearGradient3895);fill-opacity:1;stroke:none" />
    <path
       sodipodi:nodetypes="ccccc"
       inkscape:connector-curvature="0"
       id="path3886"
       d="m -7.83411,33.133375 3.83676,-1.918377 -0.63946,175.424832 -3.19729,2.13152 z"
       style="fill:#204757;fill-opacity:0.31400003;stroke:none" />
    <path
       sodipodi:nodetypes="ccccc"
       inkscape:connector-curvature="0"
       id="path3890"
       d="m -15.72076,26.099329 c 3.22057,-1.302188 7.5586,3.858891 7.95758,7.03915 l 3.61358,-1.862584 c -0.28018,-2.408813 -2.4989,-6.572254 -6.8818,-7.094942 z"
       style="fill:url(#linearGradient3897);fill-opacity:1;stroke:none" />
    <path
       inkscape:connector-curvature="0"
       id="path3904"
       d="m -142.52885,13.320711 3.31276,-1.370794 128.16928,12.33715 -4.45508,1.142328 z"
       style="fill:url(#linearGradient4518);fill-opacity:1;stroke:none" />
  </g>
  <g
     id="g2836"
     transform="matrix(1.4920076,0,0,1.4920076,-6.9087451,25.610161)">
    <path
       sodipodi:nodetypes="cccccccc"
       id="path2822"
       d="m 86.139887,50.812854 c -5.020721,0.9073 -7.400134,-0.826708 -7.258979,-5.081285 -4.706645,-1.056347 -5.320701,3.616929 -7.017014,6.775047 -2.378808,0.945119 -5.566311,1.428126 -3.629489,4.83932 l -3.145558,5.323251 c 0.133257,7.063769 6.345294,3.996238 12.098299,1.693762 l 0.725898,-5.323251 8.226843,-8.226844 z"
       style="fill:#e6dfaf;fill-opacity:0.64285715;fill-rule:evenodd;stroke:none;stroke-width:1px;stroke-linecap:butt;stroke-linejoin:miter;stroke-opacity:1"
       inkscape:connector-curvature="0" />
    <path
       sodipodi:nodetypes="ccccccccccccccccccccccccccc"
       id="path1875"
       d="M 82.021042,122.99265 C 73.165923,118.96758 69.91618,112.905 67.00388,104.30543 c -2.67774,-8.910085 0.05318,-18.247138 2.171594,-26.95609 2.04248,-3.39825 4.043319,-6.740617 6.492945,-9.31603 2.677331,-3.133674 -2.663975,-6.235731 1.322776,-9.283143 2.23136,-3.812293 6.372418,-5.947544 8.7163,-9.613827 1.632039,-5.02949 1.283274,-10.497448 2.611498,-15.629234 0.453541,-5.459214 2.485145,-10.527575 6.9196,-13.96548 4.647575,-3.681217 10.109077,-6.423365 15.812387,-7.954155 3.69491,-1.328093 8.30622,-6.435567 11.94408,-2.5653176 3.65669,3.9058186 2.71803,9.7121616 5.31133,14.1633086 4.65592,3.006302 1.43494,8.781486 2.81996,13.095328 1.78555,3.819699 5.95589,7.930616 9.16446,8.069502 0.93469,4.270949 -2.33552,6.803447 -6.40717,5.065467 -0.70126,-3.844329 -4.6928,-6.106339 -7.60798,-8.627778 -3.85581,-3.95988 -8.61184,-7.804344 -14.43371,-7.747949 -2.44131,-0.672498 -5.4798,-6.580945 -5.63247,-0.857305 0.10518,10.122654 1.71952,20.963124 -3.37018,30.258364 -1.93176,4.762142 -5.706019,8.843316 -11.039543,9.495386 -4.466377,0.219005 -7.816031,3.197864 -10.591944,6.434836 -8.98055,9.562652 -9.534463,26.344647 0.262776,35.547987 3.952678,4.2401 11.206559,6.93009 16.042124,2.48354 4.950877,-2.81594 -1.166634,-11.42454 -3.688529,-5.36477 3.214494,4.53318 -4.592928,-1.16126 -0.482534,-3.36957 3.126279,-4.76275 9.47757,-1.04223 10.4762,3.42548 1.87827,6.34245 -3.43865,13.16297 -9.990449,13.31604 -3.897599,0.41783 -8.323372,0.63522 -11.806359,-1.41737 z"
       style="fill:#e39c24"
       inkscape:connector-curvature="0" />
    <circle
       transform="translate(0,-0.241966)"
       id="path1882"
       style="opacity:1;fill:url(#radialGradient2850);fill-opacity:1;stroke:none;stroke-width:0;stroke-linecap:round;stroke-linejoin:round;stroke-miterlimit:4;stroke-dasharray:none;stroke-dashoffset:0;stroke-opacity:1"
       cx="115.78072"
       cy="26.495274"
       r="7.1379962" />
    <ellipse
       transform="matrix(0.705882,0,0,0.705882,90.95074,10.0487)"
       id="path2784"
       style="opacity:1;fill:url(#radialGradient2852);fill-opacity:1;stroke:none;stroke-width:0;stroke-linecap:round;stroke-linejoin:round;stroke-miterlimit:4;stroke-dasharray:none;stroke-dashoffset:0;stroke-opacity:1"
       cx="52.143669"
       cy="24.922495"
       rx="6.1701322"
       ry="5.5652175" />
    <ellipse
       transform="translate(77.91304,3.387524)"
       id="path2794"
       style="opacity:1;fill:#000000;fill-opacity:1;stroke:none;stroke-width:0;stroke-linecap:round;stroke-linejoin:round;stroke-miterlimit:4;stroke-dasharray:none;stroke-dashoffset:0;stroke-opacity:1"
       cx="51.054821"
       cy="23.954632"
       rx="2.4196599"
       ry="2.1776938" />
    <path
       id="path2796"
       d="M 126.30624,37.26276 137.9206,48.877127"
       style="fill:none;fill-rule:evenodd;stroke:url(#linearGradient2854);stroke-width:2;stroke-linecap:butt;stroke-linejoin:miter;stroke-miterlimit:4;stroke-dasharray:none;stroke-opacity:1"
       inkscape:connector-curvature="0" />
    <path
       sodipodi:nodetypes="cc"
       id="path2806"
       d="M 108.64272,20.325142 C 88.884251,21.277709 104.12874,62.847714 80.332703,75.493384"
       style="fill:none;fill-rule:evenodd;stroke:#d1bd07;stroke-width:2;stroke-linecap:round;stroke-linejoin:round;stroke-miterlimit:4;stroke-dasharray:2, 4;stroke-dashoffset:0;stroke-opacity:1"
       inkscape:connector-curvature="0" />
    <path
       sodipodi:nodetypes="csc"
       id="path2808"
       d="M 113.24008,13.308129 C 93.807681,14.846116 87.995823,29.31603 87.10775,50.086957 86.883276,55.337118 83.239672,59.176374 76.461248,60.491493"
       style="fill:none;fill-rule:evenodd;stroke:#d0c615;stroke-width:1.5;stroke-linecap:round;stroke-linejoin:round;stroke-miterlimit:4;stroke-dasharray:1.5, 1.5;stroke-dashoffset:0;stroke-opacity:1"
       inkscape:connector-curvature="0" />
    <path
       sodipodi:nodetypes="csc"
       id="path2810"
       d="m 90.253308,59.523629 c -14.808552,10.752548 -35.940592,38.710769 -8.952741,60.975421 4.146192,3.42056 14.540349,5.44652 20.567103,-1.45179"
       style="fill:none;fill-rule:evenodd;stroke:#ddc712;stroke-width:1;stroke-linecap:round;stroke-linejoin:round;stroke-miterlimit:4;stroke-dasharray:1, 2;stroke-dashoffset:0;stroke-opacity:1"
       inkscape:connector-curvature="0" />
    <circle
       transform="translate(0.241966,-0.241966)"
       id="path2812"
       style="opacity:1;fill:url(#linearGradient2856);fill-opacity:1;stroke:none;stroke-width:0;stroke-linecap:round;stroke-linejoin:round;stroke-miterlimit:4;stroke-dasharray:none;stroke-dashoffset:0;stroke-opacity:1"
       cx="119.16824"
       cy="13.187145"
       r="5.4442344" />
    <path
       sodipodi:nodetypes="ccc"
       id="path2824"
       d="m 80.574669,75.73535 c -13.570066,17.447728 -11.914703,32.15488 6.775047,43.79584 6.779171,2.5171 12.056076,0.11286 13.066164,-7.98488"
       style="fill:none;fill-rule:evenodd;stroke:#e4d112;stroke-width:1;stroke-linecap:round;stroke-linejoin:round;stroke-miterlimit:4;stroke-dasharray:1, 2;stroke-dashoffset:0;stroke-opacity:1"
       inkscape:connector-curvature="0" />
    <path
       sodipodi:nodetypes="ccc"
       id="path2826"
       d="M 105.2552,31.939509 C 102.74616,47.577921 98.777898,61.757104 90.495274,71.621928 104.41735,70.250052 106.71057,53.847477 105.2552,31.939509 Z"
       style="fill:url(#linearGradient2858);fill-opacity:1;fill-rule:evenodd;stroke:none;stroke-width:0;stroke-linecap:butt;stroke-linejoin:miter;stroke-miterlimit:4;stroke-dasharray:none;stroke-opacity:1"
       inkscape:connector-curvature="0" />
  </g>
  <g
     transform="matrix(0.85080202,0.34490074,0,0.97913718,182.09855,46.043452)"
     id="g3088">
    <path
       d="m -141.32802,13.578329 -1.32107,2.64214 c -2.31697,0.54708 -4.95002,2.20156 -6.32512,6.72545 0.18667,-3.30646 1.43774,-5.22102 3.00243,-6.72545 1.47914,-1.98116 3.06018,-2.33197 4.64376,-2.64214 z"
       id="path3090"
       inkscape:connector-curvature="0"
       sodipodi:nodetypes="ccccc"
       style="fill:url(#linearGradient3886);fill-opacity:1;stroke:none" />
    <path
       inkscape:connector-curvature="0"
       id="path3092"
       d="m -142.52885,202.625 3.31276,-1.37079 128.16928,12.33714 -4.45508,1.14235 z"
       style="opacity:0.77100004;fill:url(#linearGradient3888);fill-opacity:1;stroke:none" />
    <path
       sodipodi:nodetypes="ccccc"
       inkscape:connector-curvature="0"
       id="path3094"
       d="m -15.93254,215.17187 c 3.22056,1.30219 7.76972,-3.23263 8.1687,-6.41288 l 3.01979,-2.24417 c 0.63231,4.07648 -2.777,8.03896 -7.56896,9.56853 z"
       style="fill:url(#linearGradient3114);fill-opacity:1;stroke:none" />
    <rect
       id="rect3096"
       width="141.62"
       height="189.53999"
       x="-145.28"
       y="25.139999"
       ry="7.8470001"
       transform="matrix(0.99529408,0.09690046,0,1,0,0)"
       stroke-miterlimit="4"
       rx="7.8470001"
       style="opacity:0.6;fill:#123e50;fill-opacity:0.47300002;stroke:#b6ccd6;stroke-width:1.65799999;stroke-miterlimit:4;stroke-dasharray:none;stroke-opacity:0.42699998" />
    <path
       sodipodi:nodetypes="ccccc"
       inkscape:connector-curvature="0"
       id="path3098"
       d="m -148.30186,19.704743 3.83675,-1.918377 -1.27891,173.932764 -3.19729,2.77098 z"
       style="fill:#449abe;fill-opacity:0.19899998;stroke:none" />
    <rect
       transform="matrix(0.99529408,0.09690046,0,1,0,0)"
       ry="7.8470001"
       y="27.25"
       x="-149.24001"
       height="189.53999"
       width="141.62"
       id="rect3100"
       stroke-miterlimit="4"
       rx="7.8470001"
       style="opacity:0.6;fill:url(#linearGradient3893);fill-opacity:1;stroke:#b6ccd6;stroke-width:1.65799999;stroke-miterlimit:4;stroke-dasharray:none;stroke-opacity:0.42699998" />
    <path
       d="m -141.31817,14.218493 125.330398,12.201994 c 4.326997,0.42127 7.810457,4.260354 7.810457,8.607811 l 0,90.848592 C -83.296852,31.653305 -118.38326,45.376176 -149.12863,70.804335 l 0,-49.498863 c 0,-4.347457 3.48347,-7.508249 7.81046,-7.086979 z"
       id="path3102"
       inkscape:connector-curvature="0"
       sodipodi:nodetypes="sssccss"
       style="opacity:0.6;fill:url(#linearGradient3118);fill-opacity:1;stroke:none" />
    <path
       d="m -7.83411,33.133375 3.83676,-1.918377 -0.63946,175.424832 -3.19729,2.13152 z"
       id="path3104"
       inkscape:connector-curvature="0"
       sodipodi:nodetypes="ccccc"
       style="fill:#204757;fill-opacity:0.31400003;stroke:none" />
    <path
       d="m -15.72076,26.099329 c 3.22057,-1.302188 7.5586,3.858891 7.95758,7.03915 l 3.61358,-1.862584 c -0.28018,-2.408813 -2.4989,-6.572254 -6.8818,-7.094942 z"
       id="path3106"
       inkscape:connector-curvature="0"
       sodipodi:nodetypes="ccccc"
       style="fill:url(#linearGradient3120);fill-opacity:1;stroke:none" />
    <path
       d="m -142.52885,13.320711 3.31276,-1.370794 128.16928,12.33715 -4.45508,1.142328 z"
       id="path3108"
       inkscape:connector-curvature="0"
       style="fill:url(#linearGradient3899);fill-opacity:1;stroke:none" />
  </g>
  <g
     id="layer1"
     inkscape:label="1. réteg"
     transform="translate(-2.3197929,0.49991022)">
    <path
       id="text3905"
       d="m 14.672896,-7.9438771 -5.2910158,0 -0.834961,2.390625 -3.401367,0 4.8603508,-13.1220709 4.03418,0 4.860352,13.1220709 -3.401368,0 -0.826171,-2.390625 m -4.447266,-2.4345709 3.594727,0 -1.792969,-5.220703 -1.801758,5.220703 m 10.40625,-8.296875 5.616211,0 c 1.669913,1.3e-5 2.950185,0.372083 3.84082,1.116211 0.896473,0.738293 1.344714,1.792979 1.344727,3.164063 -1.3e-5,1.37696 -0.448254,2.437506 -1.344727,3.18164 -0.890635,0.738287 -2.170907,1.107427 -3.84082,1.107422 l -2.232422,0 0,4.5527349 -3.383789,0 0,-13.1220709 m 3.383789,2.452149 0,3.665039 1.87207,0 c 0.656243,7e-6 1.163078,-0.158196 1.520508,-0.47461 0.357413,-0.322257 0.536124,-0.776358 0.536133,-1.362304 -9e-6,-0.585928 -0.17872,-1.0371 -0.536133,-1.353516 -0.35743,-0.316396 -0.864265,-0.474599 -1.520508,-0.474609 l -1.87207,0"
       style="font-style:normal;font-weight:bold;font-size:18px;font-family:'Bitstream Vera Sans';fill:#000000;fill-opacity:1;stroke:none;stroke-width:1px;stroke-linecap:butt;stroke-linejoin:miter;stroke-opacity:1"
       inkscape:connector-curvature="0" />
  </g>
</svg>
