<?xml version="1.0" encoding="UTF-8" standalone="no"?>
<!-- Created with Inkscape (http://www.inkscape.org/) -->

<svg
   xmlns:a="http://ns.adobe.com/AdobeSVGViewerExtensions/3.0/"
   xmlns:dc="http://purl.org/dc/elements/1.1/"
   xmlns:cc="http://creativecommons.org/ns#"
   xmlns:rdf="http://www.w3.org/1999/02/22-rdf-syntax-ns#"
   xmlns:svg="http://www.w3.org/2000/svg"
   xmlns="http://www.w3.org/2000/svg"
   xmlns:xlink="http://www.w3.org/1999/xlink"
   xmlns:sodipodi="http://sodipodi.sourceforge.net/DTD/sodipodi-0.dtd"
   xmlns:inkscape="http://www.inkscape.org/namespaces/inkscape"
   id="svg2"
   sodipodi:version="0.32"
   inkscape:version="0.91 r13725"
   width="256"
   height="256"
   version="1.0"
   sodipodi:docname="folder-fekete.svg"
   inkscape:output_extension="org.inkscape.output.svg.inkscape">
  <metadata
     id="metadata7">
    <rdf:RDF>
      <cc:Work
         rdf:about="">
        <dc:format>image/svg+xml</dc:format>
        <dc:type
           rdf:resource="http://purl.org/dc/dcmitype/StillImage" />
        <dc:title />
      </cc:Work>
    </rdf:RDF>
  </metadata>
  <defs
     id="defs5">
    <linearGradient
       id="linearGradient5159">
      <stop
         stop-opacity="0.535"
         stop-color="#1a485c"
         id="stop5161"
         style="stop-color:#1a485c;stop-opacity:0.34615386" />
      <stop
         stop-opacity="1"
         stop-color="#ffffff"
         id="stop5163"
         offset="1"
         style="stop-color:#ffffff;stop-opacity:0.62087911" />
    </linearGradient>
    <inkscape:perspective
       sodipodi:type="inkscape:persp3d"
       inkscape:vp_x="0 : 526.18109 : 1"
       inkscape:vp_y="0 : 1000 : 0"
       inkscape:vp_z="744.09448 : 526.18109 : 1"
       inkscape:persp3d-origin="372.04724 : 350.78739 : 1"
       id="perspective9" />
    <linearGradient
       id="linearGradient4385">
      <stop
         id="stop4387"
         stop-color="#1a485c"
         stop-opacity="0.535" />
      <stop
         style="stop-color:#ffffff;stop-opacity:0.76923078"
         offset="1"
         id="stop4389"
         stop-color="#ffffff"
         stop-opacity="1" />
    </linearGradient>
    <linearGradient
       id="linearGradient3828">
      <stop
         stop-opacity="0.486"
         stop-color="#ffffff"
         id="stop3830" />
      <stop
         stop-opacity="0"
         stop-color="#286483"
         offset="1"
         id="stop3832" />
    </linearGradient>
    <linearGradient
       id="linearGradient3906">
      <stop
         stop-opacity="1"
         stop-color="#cedce2"
         id="stop3908" />
      <stop
         stop-opacity="0"
         stop-color="#cedce2"
         id="stop3910"
         offset="1" />
    </linearGradient>
    <linearGradient
       id="linearGradient3878">
      <stop
         stop-opacity="0.915"
         stop-color="#cdeaf6"
         id="stop3880" />
      <stop
         stop-opacity="0"
         stop-color="#c5e1ed"
         id="stop3882"
         offset="1" />
    </linearGradient>
    <linearGradient
       id="linearGradient3867">
      <stop
         stop-opacity="0.338"
         stop-color="#99bbc9"
         id="stop3869" />
      <stop
         stop-opacity="0"
         stop-color="#174457"
         id="stop3871"
         offset="1" />
    </linearGradient>
    <linearGradient
       id="linearGradient3851">
      <stop
         stop-opacity="0.683"
         stop-color="#123e50"
         id="stop3853" />
      <stop
         stop-opacity="0.749"
         stop-color="#c6d7de"
         offset="0.371"
         id="stop3861" />
      <stop
         stop-opacity="0.782"
         stop-color="#123e50"
         offset="0.716"
         id="stop3859" />
      <stop
         stop-opacity="0.099"
         stop-color="#c3d4db"
         id="stop3855"
         offset="1" />
    </linearGradient>
    <linearGradient
       id="linearGradient3824">
      <stop
         stop-opacity="0.838"
         stop-color="#ffffff"
         id="stop3826" />
      <stop
         stop-opacity="0"
         stop-color="#70b5d4"
         offset="1"
         id="stop3828" />
    </linearGradient>
    <linearGradient
       id="linearGradient3815">
      <stop
         stop-opacity="0.113"
         stop-color="#9fcaff"
         id="stop3817" />
      <stop
         stop-opacity="0"
         stop-color="#668dbd"
         offset="1"
         id="stop3819" />
    </linearGradient>
    <linearGradient
       id="linearGradient3773">
      <stop
         stop-opacity="0.838"
         stop-color="#70b5d4"
         id="stop3775" />
      <stop
         stop-opacity="0.275"
         stop-color="#70b5d4"
         id="stop3777"
         offset="1" />
    </linearGradient>
    <linearGradient
       id="linearGradient3765">
      <stop
         stop-opacity="0.353"
         stop-color="#668dbd"
         id="stop3767" />
      <stop
         stop-opacity="0.094"
         stop-color="#668dbd"
         id="stop3769"
         offset="1" />
    </linearGradient>
    <linearGradient
       gradientTransform="matrix(0.82699483,0,0,0.82699483,-171.10818,0.53293058)"
       spreadMethod="reflect"
       gradientUnits="userSpaceOnUse"
       y2="54.15"
       x2="278.95"
       y1="56.22"
       x1="227.44"
       id="linearGradient3873"
       xlink:href="#linearGradient3867"
       inkscape:collect="always" />
    <linearGradient
       gradientTransform="matrix(0.82310306,0.08013618,0,0.82699483,-170.30296,-15.751576)"
       gradientUnits="userSpaceOnUse"
       y2="32.046867"
       x2="266.60519"
       y1="-44.748"
       x1="289.32"
       id="linearGradient3884"
       xlink:href="#linearGradient3878"
       inkscape:collect="always" />
    <linearGradient
       gradientTransform="matrix(0.82699483,0,0,0.82699483,-170.30296,-15.751576)"
       spreadMethod="reflect"
       gradientUnits="userSpaceOnUse"
       y2="-7.507"
       x2="360.76"
       y1="0.77"
       x1="364.85"
       id="linearGradient3898"
       xlink:href="#linearGradient4385"
       inkscape:collect="always" />
    <linearGradient
       gradientTransform="matrix(0.82699483,0,0,-0.82699483,-170.51474,161.48411)"
       y2="-4.093"
       x2="361.38"
       y1="-9.786"
       x1="359.71"
       spreadMethod="reflect"
       gradientUnits="userSpaceOnUse"
       id="linearGradient3902"
       xlink:href="#linearGradient4385"
       inkscape:collect="always" />
    <linearGradient
       gradientTransform="matrix(0.82699483,0,0,0.82699483,-170.30296,-15.751576)"
       spreadMethod="reflect"
       gradientUnits="userSpaceOnUse"
       y2="-15.770754"
       x2="332.6915"
       y1="-15.175483"
       x1="296.89255"
       id="linearGradient3912"
       xlink:href="#linearGradient3906"
       inkscape:collect="always" />
    <linearGradient
       gradientTransform="matrix(0.82699483,0,0,0.82699483,-170.30296,173.55271)"
       y2="-16.12"
       x2="359.28"
       y1="-13.08"
       x1="317.98"
       spreadMethod="reflect"
       gradientUnits="userSpaceOnUse"
       id="linearGradient3916"
       xlink:href="#linearGradient3906"
       inkscape:collect="always" />
    <linearGradient
       y2="6.578"
       x2="63.37"
       y1="10.421"
       x1="61.93"
       spreadMethod="reflect"
       gradientTransform="translate(-69.456067,-43.096235)"
       gradientUnits="userSpaceOnUse"
       id="linearGradient3858"
       xlink:href="#linearGradient3828"
       inkscape:collect="always" />
    <linearGradient
       y2="-5.81"
       x2="360.19"
       y1="0.636"
       x1="364.04"
       spreadMethod="reflect"
       gradientTransform="matrix(0.82699483,0,0,0.82699483,-170.30296,-15.751576)"
       gradientUnits="userSpaceOnUse"
       id="linearGradient3127"
       xlink:href="#linearGradient5159"
       inkscape:collect="always" />
    <linearGradient
       y2="-14.339824"
       x2="340.66327"
       y1="-15.898608"
       x1="301.87979"
       spreadMethod="reflect"
       gradientTransform="matrix(0.82699483,0,0,0.82699483,-170.30296,-15.751576)"
       gradientUnits="userSpaceOnUse"
       id="linearGradient3129"
       xlink:href="#linearGradient3906"
       inkscape:collect="always" />
    <linearGradient
       id="linearGradient3578">
      <stop
         stop-opacity="1"
         stop-color="#000000"
         id="stop3580" />
      <stop
         stop-opacity="1"
         stop-color="#fffcfc"
         id="stop3582"
         offset="1" />
    </linearGradient>
    <linearGradient
       y2="40.478"
       x2="76.24"
       y1="31.681"
       x1="76.24"
       gradientUnits="userSpaceOnUse"
       id="XMLID_26_"
       gradientTransform="matrix(2.161916,0,0,2.599807,-140.2925,-51.89728)">
      <stop
         stop-color="rgb(255,255,255)"
         id="stop191"
         offset="8.04598%" />
      <stop
         stop-opacity="0"
         stop-color="rgb(255,255,255)"
         id="stop193"
         offset="100%" />
    </linearGradient>
    <radialGradient
       gradientUnits="userSpaceOnUse"
       fy="49.45"
       fx="76.51"
       r="14.862"
       cy="49.45"
       cx="76.51"
       id="XMLID_25_"
       gradientTransform="matrix(2.161916,0,0,2.599807,-139.8969,-51.106)">
      <stop
         stop-color="rgb(187,235,255)"
         id="stop184" />
      <stop
         stop-opacity="1"
         stop-color="#7b7b7d"
         id="stop186"
         offset="1" />
      <a:midPointStop
         stop-color="#BBEBFF"
         offset="0" />
      <a:midPointStop
         stop-color="#BBEBFF"
         offset="0.5" />
      <a:midPointStop
         stop-color="#003DD7"
         offset="1" />
    </radialGradient>
    <radialGradient
       gradientTransform="matrix(2.161916,0,0,2.599807,-139.8969,-51.106)"
       id="radialGradient3407"
       cx="76.51"
       cy="49.45"
       r="14.862"
       fx="76.51"
       fy="49.45"
       gradientUnits="userSpaceOnUse">
      <stop
         stop-opacity="1"
         stop-color="#55b6de"
         id="stop3409" />
      <stop
         stop-opacity="1"
         stop-color="#000007"
         offset="1"
         id="stop3411" />
      <a:midPointStop
         stop-color="#BBEBFF"
         offset="0" />
      <a:midPointStop
         stop-color="#BBEBFF"
         offset="0.5" />
      <a:midPointStop
         stop-color="#003DD7"
         offset="1" />
    </radialGradient>
    <linearGradient
       id="linearGradient2924">
      <stop
         stop-opacity="0.754"
         stop-color="#205274"
         id="stop2926" />
      <stop
         stop-opacity="0.458"
         stop-color="#ffffff"
         id="stop2928"
         offset="1" />
    </linearGradient>
    <linearGradient
       y2="-7.475"
       x2="16.09"
       y1="-7.475"
       x1="13.515"
       spreadMethod="reflect"
       gradientUnits="userSpaceOnUse"
       id="linearGradient4078"
       xlink:href="#linearGradient3578"
       inkscape:collect="always" />
    <linearGradient
       y2="-7.475"
       x2="16.09"
       y1="-10.978"
       x1="16.691"
       spreadMethod="reflect"
       gradientUnits="userSpaceOnUse"
       id="linearGradient4088"
       xlink:href="#linearGradient3578"
       inkscape:collect="always" />
    <linearGradient
       y2="-2.688"
       x2="8.696"
       y1="-11.587"
       x1="12.04"
       spreadMethod="reflect"
       gradientUnits="userSpaceOnUse"
       id="linearGradient4100"
       xlink:href="#linearGradient3578"
       inkscape:collect="always" />
    <linearGradient
       y2="-7.475"
       x2="16.09"
       y1="-6.409"
       x1="10.621"
       spreadMethod="reflect"
       gradientUnits="userSpaceOnUse"
       id="linearGradient4102"
       xlink:href="#linearGradient3578"
       inkscape:collect="always" />
    <linearGradient
       y2="-7.475"
       x2="16.09"
       y1="-2.21"
       x1="15.65"
       spreadMethod="reflect"
       gradientUnits="userSpaceOnUse"
       id="linearGradient4104"
       xlink:href="#linearGradient3578"
       inkscape:collect="always" />
    <linearGradient
       y2="-11.199"
       x2="11.132"
       y1="-11.391"
       x1="16.387"
       spreadMethod="reflect"
       gradientUnits="userSpaceOnUse"
       id="linearGradient4108"
       xlink:href="#linearGradient3578"
       inkscape:collect="always" />
    <linearGradient
       y2="-8.02"
       x2="17.07"
       y1="-7.475"
       x1="13.515"
       spreadMethod="reflect"
       gradientUnits="userSpaceOnUse"
       id="linearGradient4128"
       xlink:href="#linearGradient3578"
       inkscape:collect="always" />
    <linearGradient
       y2="-6.953"
       x2="17.747"
       y1="-5.908"
       x1="16.387"
       spreadMethod="reflect"
       gradientUnits="userSpaceOnUse"
       id="linearGradient4132"
       xlink:href="#linearGradient3578"
       inkscape:collect="always" />
    <linearGradient
       y2="-5.778"
       x2="11.372"
       y1="-10.151"
       x1="12.906"
       spreadMethod="reflect"
       gradientUnits="userSpaceOnUse"
       id="linearGradient4134"
       xlink:href="#linearGradient3578"
       inkscape:collect="always" />
    <linearGradient
       y2="-6.583"
       x2="18.617"
       y1="-5.212"
       x1="16.909"
       spreadMethod="reflect"
       gradientUnits="userSpaceOnUse"
       id="linearGradient4140"
       xlink:href="#linearGradient3578"
       inkscape:collect="always" />
    <linearGradient
       y2="-1.992"
       x2="17.377"
       y1="-6.256"
       x1="15.582"
       spreadMethod="reflect"
       gradientUnits="userSpaceOnUse"
       id="linearGradient4142"
       xlink:href="#linearGradient3578"
       inkscape:collect="always" />
    <linearGradient
       y2="-3.733"
       x2="14.94"
       y1="-2.275"
       x1="17.08"
       spreadMethod="reflect"
       gradientUnits="userSpaceOnUse"
       id="linearGradient4144"
       xlink:href="#linearGradient3578"
       inkscape:collect="always" />
    <linearGradient
       y2="-4.516"
       x2="12.916"
       y1="-3.754"
       x1="7.771"
       spreadMethod="reflect"
       gradientUnits="userSpaceOnUse"
       id="linearGradient4146"
       xlink:href="#linearGradient3578"
       inkscape:collect="always" />
    <linearGradient
       y2="-1.513"
       x2="9.718"
       y1="-5.887"
       x1="11.187"
       spreadMethod="reflect"
       gradientUnits="userSpaceOnUse"
       id="linearGradient4148"
       xlink:href="#linearGradient3578"
       inkscape:collect="always" />
    <linearGradient
       y2="254.22"
       x2="266.18"
       y1="253.18"
       x1="229.62"
       spreadMethod="reflect"
       gradientTransform="matrix(0.82699483,0,0,-0.82699483,-106.37695,393.98956)"
       gradientUnits="userSpaceOnUse"
       id="linearGradient3662"
       xlink:href="#linearGradient3828"
       inkscape:collect="always" />
    <linearGradient
       y2="252.55"
       x2="249.45"
       y1="251.92"
       x1="226.48"
       spreadMethod="reflect"
       gradientTransform="matrix(-0.82002201,-0.10716502,0.10716502,-0.82002201,367.07244,422.46474)"
       gradientUnits="userSpaceOnUse"
       id="linearGradient3664"
       xlink:href="#linearGradient3828"
       inkscape:collect="always" />
    <linearGradient
       y2="256.25"
       x2="17.757"
       y1="183.53"
       x1="17.757"
       gradientUnits="userSpaceOnUse"
       id="linearGradient3666"
       xlink:href="#linearGradient3765"
       inkscape:collect="always" />
    <linearGradient
       y2="173.91"
       x2="67.09"
       y1="264.77"
       x1="66.09"
       gradientUnits="userSpaceOnUse"
       id="linearGradient3668"
       xlink:href="#linearGradient3773"
       inkscape:collect="always" />
    <linearGradient
       y2="234.6"
       x2="354.07"
       y1="236.06"
       x1="218.43"
       spreadMethod="reflect"
       gradientTransform="matrix(0.82699483,0,0,0.82699483,-100.84689,27.344659)"
       gradientUnits="userSpaceOnUse"
       id="linearGradient3670"
       xlink:href="#linearGradient3851"
       inkscape:collect="always" />
    <linearGradient
       y2="252.55"
       x2="249.45"
       y1="251.92"
       x1="226.48"
       spreadMethod="reflect"
       gradientTransform="matrix(0.82699483,0,0,0.60822815,-100.84689,80.374138)"
       gradientUnits="userSpaceOnUse"
       id="linearGradient3674"
       xlink:href="#linearGradient3828"
       inkscape:collect="always" />
    <linearGradient
       y2="254.22"
       x2="266.18"
       y1="253.18"
       x1="229.62"
       spreadMethod="reflect"
       gradientTransform="matrix(-0.82699483,0,0,0.6334491,365.06232,74.617591)"
       gradientUnits="userSpaceOnUse"
       id="linearGradient3676"
       xlink:href="#linearGradient3828"
       inkscape:collect="always" />
    <radialGradient
       r="126.76"
       fy="149.73"
       fx="-39.669"
       cy="149.73"
       cx="-39.669"
       spreadMethod="reflect"
       gradientTransform="matrix(1,0,0,0.28322862,0,157.8256)"
       gradientUnits="userSpaceOnUse"
       id="radialGradient3678"
       xlink:href="#linearGradient3815"
       inkscape:collect="always" />
    <linearGradient
       y2="234.13"
       x2="144.1"
       y1="264.77"
       x1="66.09"
       spreadMethod="reflect"
       gradientTransform="matrix(0.82699483,0,0,0.862037,114.19173,14.733697)"
       gradientUnits="userSpaceOnUse"
       id="linearGradient3682"
       xlink:href="#linearGradient3824"
       inkscape:collect="always" />
    <linearGradient
       inkscape:collect="always"
       xlink:href="#linearGradient3773"
       id="linearGradient4942"
       gradientUnits="userSpaceOnUse"
       x1="66.09"
       y1="264.77"
       x2="67.09"
       y2="173.91" />
    <linearGradient
       inkscape:collect="always"
       xlink:href="#linearGradient3773"
       id="linearGradient4944"
       gradientUnits="userSpaceOnUse"
       x1="66.09"
       y1="264.77"
       x2="67.09"
       y2="173.91" />
    <linearGradient
       inkscape:collect="always"
       xlink:href="#linearGradient3828"
       id="linearGradient4946"
       gradientUnits="userSpaceOnUse"
       gradientTransform="translate(-69.456067,-43.096235)"
       spreadMethod="reflect"
       x1="61.93"
       y1="10.421"
       x2="63.37"
       y2="6.578" />
    <linearGradient
       inkscape:collect="always"
       xlink:href="#linearGradient3906"
       id="linearGradient4948"
       gradientUnits="userSpaceOnUse"
       gradientTransform="matrix(0.82699483,0,0,0.82699483,-170.30296,173.55271)"
       spreadMethod="reflect"
       x1="317.98"
       y1="-13.08"
       x2="359.28"
       y2="-16.12" />
    <linearGradient
       inkscape:collect="always"
       xlink:href="#linearGradient4385"
       id="linearGradient4950"
       gradientUnits="userSpaceOnUse"
       gradientTransform="matrix(0.82699483,0,0,-0.82699483,-170.51474,161.48411)"
       spreadMethod="reflect"
       x1="359.71"
       y1="-9.786"
       x2="361.38"
       y2="-4.093" />
    <linearGradient
       inkscape:collect="always"
       xlink:href="#linearGradient3867"
       id="linearGradient4952"
       gradientUnits="userSpaceOnUse"
       gradientTransform="matrix(0.82699483,0,0,0.82699483,-171.10818,0.53293058)"
       spreadMethod="reflect"
       x1="227.44"
       y1="56.22"
       x2="278.95"
       y2="54.15" />
    <linearGradient
       inkscape:collect="always"
       xlink:href="#linearGradient3878"
       id="linearGradient4954"
       gradientUnits="userSpaceOnUse"
       gradientTransform="matrix(0.82310306,0.08013618,0,0.82699483,-170.30296,-15.751576)"
       x1="289.32"
       y1="-44.748"
       x2="264.02"
       y2="30.14" />
    <linearGradient
       inkscape:collect="always"
       xlink:href="#linearGradient3578"
       id="linearGradient4984"
       gradientUnits="userSpaceOnUse"
       spreadMethod="reflect"
       x1="13.515"
       y1="-7.475"
       x2="16.09"
       y2="-7.475" />
    <linearGradient
       inkscape:collect="always"
       xlink:href="#linearGradient3578"
       id="linearGradient4986"
       gradientUnits="userSpaceOnUse"
       spreadMethod="reflect"
       x1="13.515"
       y1="-7.475"
       x2="16.09"
       y2="-7.475" />
    <linearGradient
       inkscape:collect="always"
       xlink:href="#linearGradient3578"
       id="linearGradient4988"
       gradientUnits="userSpaceOnUse"
       spreadMethod="reflect"
       x1="13.515"
       y1="-7.475"
       x2="16.09"
       y2="-7.475" />
    <linearGradient
       inkscape:collect="always"
       xlink:href="#linearGradient3578"
       id="linearGradient4990"
       gradientUnits="userSpaceOnUse"
       spreadMethod="reflect"
       x1="13.515"
       y1="-7.475"
       x2="16.09"
       y2="-7.475" />
    <linearGradient
       inkscape:collect="always"
       xlink:href="#linearGradient3578"
       id="linearGradient4992"
       gradientUnits="userSpaceOnUse"
       spreadMethod="reflect"
       x1="13.515"
       y1="-7.475"
       x2="16.09"
       y2="-7.475" />
    <linearGradient
       inkscape:collect="always"
       xlink:href="#linearGradient3578"
       id="linearGradient4994"
       gradientUnits="userSpaceOnUse"
       spreadMethod="reflect"
       x1="13.515"
       y1="-7.475"
       x2="16.09"
       y2="-7.475" />
    <linearGradient
       inkscape:collect="always"
       xlink:href="#linearGradient3578"
       id="linearGradient4996"
       gradientUnits="userSpaceOnUse"
       spreadMethod="reflect"
       x1="13.515"
       y1="-7.475"
       x2="16.09"
       y2="-7.475" />
    <linearGradient
       inkscape:collect="always"
       xlink:href="#linearGradient3578"
       id="linearGradient4998"
       gradientUnits="userSpaceOnUse"
       spreadMethod="reflect"
       x1="13.515"
       y1="-7.475"
       x2="16.09"
       y2="-7.475" />
    <linearGradient
       inkscape:collect="always"
       xlink:href="#linearGradient3578"
       id="linearGradient5000"
       gradientUnits="userSpaceOnUse"
       spreadMethod="reflect"
       x1="13.515"
       y1="-7.475"
       x2="16.09"
       y2="-7.475" />
    <linearGradient
       inkscape:collect="always"
       xlink:href="#linearGradient3578"
       id="linearGradient5002"
       gradientUnits="userSpaceOnUse"
       spreadMethod="reflect"
       x1="13.515"
       y1="-7.475"
       x2="16.09"
       y2="-7.475" />
    <linearGradient
       inkscape:collect="always"
       xlink:href="#linearGradient3578"
       id="linearGradient5004"
       gradientUnits="userSpaceOnUse"
       spreadMethod="reflect"
       x1="13.515"
       y1="-7.475"
       x2="16.09"
       y2="-7.475" />
    <linearGradient
       inkscape:collect="always"
       xlink:href="#linearGradient3578"
       id="linearGradient5006"
       gradientUnits="userSpaceOnUse"
       spreadMethod="reflect"
       x1="13.515"
       y1="-7.475"
       x2="16.09"
       y2="-7.475" />
    <linearGradient
       inkscape:collect="always"
       xlink:href="#linearGradient3578"
       id="linearGradient5008"
       gradientUnits="userSpaceOnUse"
       spreadMethod="reflect"
       x1="13.515"
       y1="-7.475"
       x2="16.09"
       y2="-7.475" />
    <linearGradient
       inkscape:collect="always"
       xlink:href="#linearGradient3578"
       id="linearGradient5010"
       gradientUnits="userSpaceOnUse"
       spreadMethod="reflect"
       x1="13.515"
       y1="-7.475"
       x2="16.09"
       y2="-7.475" />
    <linearGradient
       inkscape:collect="always"
       xlink:href="#linearGradient3578"
       id="linearGradient5012"
       gradientUnits="userSpaceOnUse"
       spreadMethod="reflect"
       x1="13.515"
       y1="-7.475"
       x2="16.09"
       y2="-7.475" />
    <linearGradient
       inkscape:collect="always"
       xlink:href="#linearGradient3578"
       id="linearGradient5014"
       gradientUnits="userSpaceOnUse"
       spreadMethod="reflect"
       x1="13.515"
       y1="-7.475"
       x2="16.09"
       y2="-7.475" />
    <linearGradient
       inkscape:collect="always"
       xlink:href="#linearGradient3578"
       id="linearGradient5016"
       gradientUnits="userSpaceOnUse"
       spreadMethod="reflect"
       x1="13.515"
       y1="-7.475"
       x2="16.09"
       y2="-7.475" />
    <linearGradient
       inkscape:collect="always"
       xlink:href="#linearGradient3578"
       id="linearGradient5018"
       gradientUnits="userSpaceOnUse"
       spreadMethod="reflect"
       x1="13.515"
       y1="-7.475"
       x2="16.09"
       y2="-7.475" />
    <linearGradient
       inkscape:collect="always"
       xlink:href="#linearGradient3578"
       id="linearGradient5020"
       gradientUnits="userSpaceOnUse"
       spreadMethod="reflect"
       x1="13.515"
       y1="-7.475"
       x2="16.09"
       y2="-7.475" />
    <linearGradient
       inkscape:collect="always"
       xlink:href="#linearGradient3578"
       id="linearGradient5022"
       gradientUnits="userSpaceOnUse"
       spreadMethod="reflect"
       x1="13.515"
       y1="-7.475"
       x2="16.09"
       y2="-7.475" />
    <linearGradient
       inkscape:collect="always"
       xlink:href="#linearGradient3578"
       id="linearGradient5024"
       gradientUnits="userSpaceOnUse"
       spreadMethod="reflect"
       x1="13.515"
       y1="-7.475"
       x2="16.09"
       y2="-7.475" />
    <linearGradient
       inkscape:collect="always"
       xlink:href="#linearGradient3578"
       id="linearGradient5026"
       gradientUnits="userSpaceOnUse"
       spreadMethod="reflect"
       x1="13.515"
       y1="-7.475"
       x2="16.09"
       y2="-7.475" />
    <linearGradient
       inkscape:collect="always"
       xlink:href="#linearGradient3578"
       id="linearGradient5028"
       gradientUnits="userSpaceOnUse"
       spreadMethod="reflect"
       x1="13.515"
       y1="-7.475"
       x2="16.09"
       y2="-7.475" />
    <filter
       inkscape:collect="always"
       style="color-interpolation-filters:sRGB"
       id="filter5171"
       x="-0.03647254"
       width="1.0729451"
       y="-0.017884146"
       height="1.0357683">
      <feGaussianBlur
         inkscape:collect="always"
         stdDeviation="0.78666206"
         id="feGaussianBlur5173" />
    </filter>
  </defs>
  <sodipodi:namedview
     inkscape:window-height="1057"
     inkscape:window-width="1920"
     inkscape:pageshadow="2"
     inkscape:pageopacity="0"
     guidetolerance="10.0"
     gridtolerance="10.0"
     objecttolerance="10.0"
     borderopacity="1.0"
     bordercolor="#666666"
     pagecolor="#ffffff"
     id="base"
     showgrid="false"
     inkscape:zoom="3.3984375"
     inkscape:cx="128"
     inkscape:cy="128"
     inkscape:window-x="-2"
     inkscape:window-y="-5"
     inkscape:current-layer="svg2"
     inkscape:window-maximized="1" />
  <g
     id="g3846"
     transform="matrix(1.0183153,0.03112447,-0.03112447,1.0183153,1.0071419,-6.5806227)">
    <path
       style="opacity:0.6;fill:url(#linearGradient3662);fill-opacity:1;stroke:none"
       sodipodi:nodetypes="ccccc"
       inkscape:connector-curvature="0"
       id="path3807"
       d="m 54.736434,189.87309 c 11.34321,-2.98591 45.458516,-11.09467 58.887356,-9.85865 l -0.88646,-4.41695 c -12.71639,0.16462 -45.30945,4.76633 -58.433689,9.79607 z" />
    <path
       style="fill:url(#linearGradient3664);fill-opacity:1;stroke:none"
       d="m 225.18456,193.8499 c -10.99552,-4.57681 -21.97894,-7.51195 -35.15989,-9.58669 l 1.51764,-4.32005 c 13.50116,1.50274 24.01737,6.30605 34.7842,10.30907 z"
       id="path3803"
       inkscape:connector-curvature="0"
       sodipodi:nodetypes="ccccc" />
    <path
       style="fill:#7b97c2;fill-opacity:0.33200001;stroke:none"
       sodipodi:nodetypes="ccccc"
       inkscape:connector-curvature="0"
       id="path3781"
       d="m 29.95332,202.76883 0.295954,6.78299 c 17.429155,-41.66727 194.671716,-41.85651 208.155156,0 l -0.29595,-6.50171 C 231.10287,165.65974 39.311097,165.15265 29.95332,202.76883 Z" />
    <ellipse
       style="fill:url(#linearGradient3666);fill-opacity:1;stroke:url(#linearGradient4942);stroke-width:1.95899999;stroke-miterlimit:4;stroke-dasharray:none;stroke-opacity:0.42699998"
       ry="34.922543"
       rx="125.78035"
       cy="220.18959"
       cx="24.564161"
       transform="matrix(0.82699483,0,0,0.862037,115.18046,19.830364)"
       id="path3755"
       stroke-miterlimit="4" />
    <path
       style="fill:url(#linearGradient3670);fill-opacity:1;stroke:none"
       d="m 29.982648,213.06881 0.06684,-8.22029 c 13.101763,40.12356 195.926662,39.62893 207.496412,1.43728 l 0.59191,6.50172 C 231.1322,250.1779 39.340425,250.68498 29.982648,213.06881 Z"
       id="path3783"
       inkscape:connector-curvature="0"
       sodipodi:nodetypes="ccccc" />
    <ellipse
       style="fill:none;stroke:url(#linearGradient4944);stroke-width:1.95899999;stroke-miterlimit:4;stroke-dasharray:none;stroke-opacity:0.42699998"
       ry="34.922543"
       rx="125.78035"
       cy="220.18959"
       cx="24.564161"
       id="path3785"
       transform="matrix(0.82699483,0,0,0.88958816,114.51701,13.92547)"
       stroke-miterlimit="4" />
    <path
       style="fill:url(#linearGradient3674);fill-opacity:1;stroke:none"
       sodipodi:nodetypes="ccccc"
       inkscape:connector-curvature="0"
       id="path3789"
       d="m 68.008438,227.80985 c 11.495889,2.2898 23.526195,5.87838 36.864872,6.13522 l -0.34601,4.77863 c -13.505206,-0.50428 -25.079598,-2.40682 -35.68238,-5.02282 z" />
    <path
       style="fill:url(#linearGradient3676);fill-opacity:1;stroke:none"
       d="m 203.81933,227.63684 c -11.34321,2.11718 -44.49242,8.05513 -57.98607,6.59676 l -0.14445,5.49147 c 12.95907,0.45089 46.3116,-4.40142 58.37491,-7.44429 z"
       id="path3799"
       inkscape:connector-curvature="0"
       sodipodi:nodetypes="ccccc" />
    <ellipse
       style="fill:url(#radialGradient3678);fill-opacity:1;stroke:url(#linearGradient3668);stroke-width:1.95899999;stroke-miterlimit:4;stroke-dasharray:none;stroke-opacity:0.42699998"
       ry="34.922543"
       rx="125.78035"
       cy="220.18959"
       cx="24.564161"
       id="path3811"
       transform="matrix(0.82699483,0,0,0.862037,114.12171,14.436903)"
       stroke-miterlimit="4" />
    <path
       style="fill:none;stroke:url(#linearGradient3682);stroke-width:0.82700002;stroke-miterlimit:4;stroke-dasharray:none;stroke-opacity:0.42699998"
       sodipodi:nodetypes="csc"
       inkscape:connector-curvature="0"
       id="path3821"
       d="m 238.52586,204.54527 c 0,16.62627 -46.5712,30.10452 -104.0197,30.10452 -57.448495,0 -104.019702,-13.47825 -104.019702,-30.10452"
       stroke-miterlimit="4" />
  </g>
  <g
     id="g3834"
     transform="matrix(1.164241,0,0,1.0187909,56.751942,44.265216)">
    <path
       style="fill:url(#linearGradient4946);fill-opacity:1;stroke:none"
       sodipodi:nodetypes="ccccc"
       inkscape:connector-curvature="0"
       id="path3818"
       d="m -10.608435,-28.051268 2.6421394,-1.321069 c 0.54708,-2.31697 2.2015587,-4.950025 6.7254437,-6.32512 -3.306454,0.186674 -5.2210137,1.437738 -6.7254437,3.00243 -1.981169,1.479141 -2.3319794,3.06018 -2.6421394,4.643759 z" />
    <path
       style="opacity:0.77100004;fill:url(#linearGradient4948);fill-opacity:1;stroke:none"
       d="m -4.6652759,154.85567 3.312751,-1.37079 128.1692849,12.33714 -4.45508,1.14235 z"
       id="path3914"
       inkscape:connector-curvature="0" />
    <path
       style="fill:url(#linearGradient4950);fill-opacity:1;stroke:none"
       d="m 121.93103,167.40254 c 3.22056,1.30219 7.76972,-3.23263 8.1687,-6.41288 l 3.01979,-2.24417 c 0.63231,4.07648 -2.777,8.03896 -7.56896,9.56853 z"
       id="path3900"
       inkscape:connector-curvature="0"
       sodipodi:nodetypes="ccccc" />
    <rect
       style="opacity:0.6;fill:#123e50;fill-opacity:0.47300002;stroke:#b6ccd6;stroke-width:1.65799999;stroke-miterlimit:4;stroke-dasharray:none;stroke-opacity:0.42699998"
       transform="matrix(0.99529408,0.09690046,0,1,0,0)"
       ry="7.8470001"
       y="-36.518002"
       x="-10.624"
       height="189.53999"
       width="141.62"
       id="rect3863"
       stroke-miterlimit="4"
       rx="7.8470001" />
    <path
       style="fill:#204757;fill-opacity:0.58499995;stroke:none"
       d="m -10.438287,-28.064586 3.8367514,-1.918377 -1.278914,173.932763 -3.1972864,2.77098 z"
       id="path3888"
       inkscape:connector-curvature="0"
       sodipodi:nodetypes="ccccc" />
    <rect
       style="opacity:0.6;fill:url(#linearGradient4952);fill-opacity:1;stroke:#b6ccd6;stroke-width:1.65799999;stroke-miterlimit:4;stroke-dasharray:none;stroke-opacity:0.42699998"
       id="rect3865"
       width="141.62"
       height="189.53999"
       x="-11.295"
       y="-33.755001"
       ry="7.8470001"
       transform="matrix(0.99529408,0.09690046,0,1,0,0)"
       stroke-miterlimit="4"
       rx="7.8470001" />
    <path
       style="opacity:0.6;fill:url(#linearGradient4954);fill-opacity:1;stroke:none"
       sodipodi:nodetypes="sssccss"
       inkscape:connector-curvature="0"
       id="rect3875"
       d="M -3.4318059,-33.792685 121.89858,-21.590691 c 4.327,0.42127 7.81046,4.260354 7.81046,8.607811 l 0,90.848605 C 54.589503,-16.357873 19.503097,-2.6350023 -11.242272,22.793157 l 0,-49.498863 c 0,-4.347457 3.4834714,-7.508249 7.8104661,-7.086979 z" />
    <path
       sodipodi:nodetypes="ccccc"
       inkscape:connector-curvature="0"
       id="path3886"
       d="m 130.02946,-14.635954 3.83676,-1.918377 -0.63946,175.424831 -3.19729,2.13152 z"
       style="fill:#204757;fill-opacity:0.41758243;stroke:none" />
    <path
       style="fill:url(#linearGradient3898);fill-opacity:1;stroke:none"
       sodipodi:nodetypes="ccccc"
       inkscape:connector-curvature="0"
       id="path3890"
       d="m 122.14281,-21.67 c 3.22057,-1.302188 7.50991,3.846574 7.90889,7.026833 l 3.60704,-1.800998 c -0.28018,-2.408813 -2.44367,-6.621523 -6.82657,-7.144211 z" />
    <path
       style="fill:url(#linearGradient3912);fill-opacity:1;stroke:none"
       inkscape:connector-curvature="0"
       id="path3904"
       d="m -4.6652759,-34.448618 3.312751,-1.370794 128.1692849,12.33715 -4.45508,1.142328 z" />
  </g>
  <path
     sodipodi:nodetypes="sssscsssssssscssssscsscscscssssssssssssss"
     id="path5165"
     d="m 128.87741,218.51848 c -0.4065,-0.17042 -0.50296,-1.17515 -0.30344,-3.16068 0.25493,-2.537 0.15611,-3.01952 -0.76946,-3.75701 -0.94555,-0.75339 7.35342,-3.36864 4.00545,-26.24638 l -3.76018,-25.69447 -2.50274,-2.93514 c -4.8203,-5.6531 -4.64415,-4.19051 -1.54133,-12.79579 4.82841,-13.39103 4.43421,-12.62644 7.35539,-14.26674 2.59962,-1.45974 2.61712,-1.48669 2.61712,-4.02849 0,-5.38265 3.53738,-11.65447 6.94341,-12.31076 4.12629,-0.79507 6.97619,2.5069 6.76608,7.83934 -0.16391,4.15966 -0.10818,4.30477 2.23862,5.82969 1.97268,1.28183 2.55187,2.16918 5.25386,8.04901 l 3.03677,6.60836 4.40385,2.44562 c 3.30384,1.83475 4.95139,2.44564 6.59585,2.44564 2.09609,0 2.24094,0.10346 3.31045,2.36447 1.42842,3.0198 1.41703,3.12743 -0.41369,3.90629 -0.84724,0.36045 -1.63414,1.14762 -1.76032,1.76095 -0.12551,0.61002 -2.73941,27.65954 -4.57976,42.59828 -0.9695,12.60776 -11.48055,15.41214 -12.48299,15.41214 -0.60008,0 -0.70262,-0.42653 -0.47091,-1.95875 0.16292,-1.07732 9.38484,-4.28298 10.6535,-12.14756 1.39434,-13.64597 3.66941,-40.10795 3.82682,-41.29264 l 0.2862,-2.154 -4.47139,-0.50991 c -2.45928,-0.28045 -4.56774,-0.42664 -4.68548,-0.32485 -0.11774,0.10178 -0.73429,3.88609 -1.3701,8.40957 -0.93172,6.6288 -4.05403,15.48847 -4.02936,30.01551 0.0211,12.42864 -6.68605,13.97261 -7.86803,15.57209 -0.98234,1.32933 -1.71473,4.91287 -1.00408,4.91287 0.10465,0 1.09291,-0.32707 2.19605,-0.72683 3.06958,-1.11235 4.95947,0.49668 2.82631,2.4063 -0.74573,0.66759 -8.33495,3.54387 -9.3507,3.54387 -0.1762,0 -0.43583,-0.45351 -0.57695,-1.00779 -0.24951,-0.97996 -0.36397,-0.97275 -4.14713,0.26117 -3.82712,1.24826 -5.04683,1.43171 -6.22769,0.93662 z m 8.69124,-5.20806 c 0.85887,-0.33851 1.12502,-1.77228 0.32897,-1.77228 -1.01059,0 -3.08443,1.04489 -3.08443,1.55407 0,0.59199 1.50475,0.71115 2.75546,0.21821 z"
     style="fill:#030303;fill-opacity:0.1978022;filter:url(#filter5171)"
     inkscape:connector-curvature="0"
     transform="matrix(0.97385528,0,0,0.97385528,-13.656963,5.822659)" />
  <path
     inkscape:connector-curvature="0"
     style="fill:#030303"
     d="m 116.86877,217.98824 c 0.83642,-0.32965 -0.61625,-4.72524 -1.39149,-4.72524 -0.98417,0 -3.06492,0.46737 -3.06492,0.96324 0,0.31532 -1.97034,3.02193 2.71383,5.31305 0.0212,-0.19319 3.94817,3.39917 0.0804,3.15788 -4.03274,-0.25159 -4.73499,-1.72625 -5.88498,-2.20839 -0.39588,-0.16597 -2.58982,-1.41808 -1.57932,-3.07805 1.43198,-2.3523 -0.84721,-3.33394 -2.09427,-4.08672 -1.00797,-0.60845 -1.43563,-3.56713 -4.69606,-25.84673 l -3.661877,-25.0227 -2.437307,-2.8584 c -4.694294,-5.50528 -4.522729,-4.08095 -1.501032,-12.46124 4.702172,-13.04093 4.318278,-12.29633 7.163086,-13.89374 2.53165,-1.42158 2.54869,-1.44783 2.54869,-3.92317 0,-5.24193 3.4449,-11.34977 6.76188,-11.9889 4.01841,-0.77429 6.7938,2.44136 6.58919,7.63438 -0.15963,4.0509 -0.10535,4.19222 2.18009,5.67728 1.9211,1.24831 2.48516,2.11246 5.1165,7.83856 l 2.95737,6.43559 4.28871,2.38168 c 3.21747,1.7868 4.82194,2.3817 6.42341,2.3817 2.04129,0 2.18235,0.10076 3.22389,2.30265 1.39108,2.94085 1.37999,3.04566 -0.40287,3.80417 -0.82509,0.35102 -1.59142,1.11761 -1.71429,1.71491 -0.12224,0.59407 -1.68862,12.98318 -3.48086,27.53135 -3.75927,30.51522 -3.56277,29.24896 -4.539,29.24896 -0.58439,0 -0.68425,-0.41538 -0.45859,-1.90754 0.15865,-1.04915 1.39945,-12.78053 2.75734,-26.06973 1.35788,-13.2892 2.5943,-25.10614 2.74759,-26.25985 l 0.27872,-2.09768 -4.35449,-0.49659 c -2.39497,-0.27311 -4.44831,-0.41548 -4.56297,-0.31635 -0.11467,0.0991 -0.7151,3.78449 -1.33429,8.1897 -0.90735,6.45549 -1.19375,11.41443 -1.47608,25.55887 -0.34663,17.36674 -0.36238,17.56575 -1.51346,19.12341 -0.95665,1.29458 -1.91468,5.27402 -1.22261,5.27402 0.10191,0 1.4155,1.27584 2.50581,1.61771 2.01016,0.63028 5.07461,1.58526 2.99722,3.44495 -0.72623,0.65014 -7.68949,-0.95454 -8.67869,-0.95454"
     id="path2384"
     sodipodi:nodetypes="csscssssscsssssssscsssssssssscscssssssc" />
  <path
     id="path4142"
     d="m 190.2848,73.507247 c -0.004,-0.443914 2.04555,-1.292656 4.5549,-1.886104 l 4.56245,-1.078991 -6.95061,-5.938092 c -7.07959,-6.048279 -14.31125,-14.478167 -12.42024,-14.478167 1.29807,0 19.5917,11.496996 22.54197,14.166967 4.08816,3.699717 12.22963,2.481649 24.04322,-3.597195 5.93848,-3.055721 10.79723,-5.268865 10.79723,-4.918083 0,0.35077 -0.86451,1.957156 -1.92112,3.569757 -2.02761,3.094534 -4.88968,4.462955 -14.5502,6.956772 -3.26019,0.841597 -5.64629,1.811517 -5.30246,2.155365 0.34385,0.343836 -1.88581,1.961882 -4.95481,3.595633 -4.43847,2.362777 -7.09514,2.897702 -12.98638,2.614846 -4.07352,-0.195579 -7.40979,-0.718807 -7.41395,-1.162708 z"
     style="fill:#030303"
     inkscape:connector-curvature="0"
     sodipodi:nodetypes="cscssssssscssc" />
  <g
     transform="matrix(0.82970571,0.25206226,0,1.0187909,50.65834,48.232046)"
     id="g3095">
    <path
       style="fill:url(#linearGradient3858);fill-opacity:1;stroke:none"
       d="m -10.608435,-28.051268 2.6421394,-1.321069 c 0.54708,-2.31697 2.2015587,-4.950025 6.7254437,-6.32512 -3.306454,0.186674 -5.2210137,1.437738 -6.7254437,3.00243 -1.981169,1.479141 -2.3319794,3.06018 -2.6421394,4.643759 z"
       id="path3097"
       inkscape:connector-curvature="0"
       sodipodi:nodetypes="ccccc" />
    <path
       style="opacity:0.77100004;fill:url(#linearGradient3916);fill-opacity:1;stroke:none"
       inkscape:connector-curvature="0"
       id="path3099"
       d="m -4.6652759,154.85567 3.312751,-1.37079 128.1692849,12.33714 -4.45508,1.14235 z" />
    <path
       style="fill:url(#linearGradient3902);fill-opacity:1;stroke:none"
       sodipodi:nodetypes="ccccc"
       inkscape:connector-curvature="0"
       id="path3101"
       d="m 121.93103,167.40254 c 3.22056,1.30219 7.76972,-3.23263 8.1687,-6.41288 l 3.01979,-2.24417 c 0.63231,4.07648 -2.777,8.03896 -7.56896,9.56853 z" />
    <rect
       style="opacity:0.6;fill:#123e50;fill-opacity:0.47300002;stroke:#b6ccd6;stroke-width:1.65799999;stroke-miterlimit:4;stroke-dasharray:none;stroke-opacity:0.42699998"
       id="rect3103"
       width="141.62"
       height="189.53999"
       x="-10.624"
       y="-36.518002"
       ry="7.8470001"
       transform="matrix(0.99529408,0.09690046,0,1,0,0)"
       stroke-miterlimit="4"
       rx="7.8470001" />
    <path
       style="fill:#204757;fill-opacity:0.58499995;stroke:none"
       sodipodi:nodetypes="ccccc"
       inkscape:connector-curvature="0"
       id="path3105"
       d="m -10.438287,-28.064586 3.8367514,-1.918377 -1.278914,173.932763 -3.1972864,2.77098 z" />
    <rect
       style="opacity:0.6;fill:url(#linearGradient3873);fill-opacity:1;stroke:#b6ccd6;stroke-width:1.65799999;stroke-miterlimit:4;stroke-dasharray:none;stroke-opacity:0.42699998"
       transform="matrix(0.99529408,0.09690046,0,1,0,0)"
       ry="7.8470001"
       y="-33.755001"
       x="-11.295"
       height="189.53999"
       width="141.62"
       id="rect3107"
       stroke-miterlimit="4"
       rx="7.8470001" />
    <path
       style="opacity:0.6;fill:url(#linearGradient3884);fill-opacity:1;stroke:none"
       d="M -3.4318059,-33.792685 121.89858,-21.590691 c 4.327,0.42127 7.81046,4.260354 7.81046,8.607811 l 0,90.848605 C 54.589503,-16.357873 19.503097,-2.6350023 -11.242272,22.793157 l 0,-49.498863 c 0,-4.347457 3.4834714,-7.508249 7.8104661,-7.086979 z"
       id="path3109"
       inkscape:connector-curvature="0"
       sodipodi:nodetypes="sssccss" />
    <path
       d="m 130.02946,-14.635954 3.83676,-1.918377 -0.63946,175.424831 -3.19729,2.13152 z"
       id="path3111"
       inkscape:connector-curvature="0"
       sodipodi:nodetypes="ccccc"
       style="fill:#204757;fill-opacity:0.43956048;stroke:none" />
    <path
       style="fill:url(#linearGradient3127);fill-opacity:1;stroke:none"
       d="m 121.34291,-22.24568 c 5.27031,0.145 8.3326,4.376719 8.73158,7.556978 l 3.74174,-1.834104 c -0.28018,-2.408813 -3.60103,-7.720526 -9.58373,-7.155247 z"
       id="path3113"
       inkscape:connector-curvature="0"
       sodipodi:nodetypes="ccccc" />
    <path
       d="m -4.6652759,-34.448618 3.312751,-1.370794 125.5497849,12.19048 -2.5033,1.20322 z"
       id="path3115"
       inkscape:connector-curvature="0"
       style="fill:url(#linearGradient3129);fill-opacity:1;stroke:none"
       sodipodi:nodetypes="ccccc" />
  </g>
  <g
     inkscape:label="1. réteg"
     id="layer1"
     transform="translate(6.9141965,0.6800327)">
    <g
       id="g2637">
      <g
         id="g3612"
         transform="translate(-2.5722563,0)">
        <g
           style="font-style:normal;font-weight:normal;font-size:12px;font-family:'Bitstream Vera Sans';fill:url(#linearGradient4078);fill-opacity:1;stroke:none"
           id="g2650"
           font-style="normal"
           font-weight="normal"
           font-size="12">
          <path
             style="fill:url(#linearGradient4984);fill-opacity:1"
             inkscape:connector-curvature="0"
             id="path2652"
             d="m 16.1875,-12.21875 -4.09375,0.03125 0.707107,0.707107 4.09375,-0.03125 -0.707107,-0.707107 z" />
          <path
             style="fill:url(#linearGradient4986);fill-opacity:1"
             inkscape:connector-curvature="0"
             id="path2654"
             d="M 12.09375,-12.1875 8.75,-3.4375 9.4571068,-2.7303932 12.800857,-11.480393 12.09375,-12.1875 Z" />
          <path
             style="fill:url(#linearGradient4988);fill-opacity:1"
             inkscape:connector-curvature="0"
             id="path2662"
             d="m 14.75,-5.6875 0.78125,2.21875 0.707107,0.7071068 -0.78125,-2.21875 L 14.75,-5.6875 Z" />
          <path
             style="fill:url(#linearGradient4990);fill-opacity:1"
             inkscape:connector-curvature="0"
             id="path2664"
             d="m 15.53125,-3.46875 0,0.03125 0.707107,0.7071068 0,-0.03125 L 15.53125,-3.46875 Z" />
          <path
             style="fill:url(#linearGradient4992);fill-opacity:1"
             inkscape:connector-curvature="0"
             id="path2672"
             d="m 17.92037,-11.519527 c -0.441567,-0.441567 -1.023884,-0.714237 -1.73287,-0.699223 l 0.707107,0.707107 c 0.708986,-0.01501 1.291302,0.257655 1.73287,0.699223 l -0.707107,-0.707107 z" />
          <path
             style="fill:url(#linearGradient4088);fill-opacity:1"
             inkscape:connector-curvature="0"
             id="path2674"
             d="m 16.21875,-11.96875 c 0.599616,0.0028 1.098445,0.242806 1.481471,0.625832 l 0.707107,0.707107 c -0.383026,-0.383026 -0.881855,-0.623021 -1.481471,-0.625832 L 16.21875,-11.96875 Z" />
          <path
             style="fill:url(#linearGradient4994);fill-opacity:1"
             inkscape:connector-curvature="0"
             id="path2676"
             d="m 17.700221,-11.342918 c 1.561455,1.5614549 1.198394,5.4999287 -2.106471,5.436668 l 0.707107,0.7071068 c 3.304865,0.063261 3.667926,-3.8752131 2.106471,-5.4366678 l -0.707107,-0.707107 z" />
          <path
             style="fill:url(#linearGradient4996);fill-opacity:1"
             inkscape:connector-curvature="0"
             id="path2678"
             d="m 15.59375,-5.90625 0.78125,2.1875 0.707107,0.7071068 -0.78125,-2.1875 L 15.59375,-5.90625 Z" />
          <path
             style="fill:url(#linearGradient4998);fill-opacity:1"
             inkscape:connector-curvature="0"
             id="path2680"
             d="m 16.375,-3.71875 -0.65625,0 0.707107,0.7071068 0.65625,0 L 16.375,-3.71875 Z" />
          <path
             style="fill:url(#linearGradient5000);fill-opacity:1"
             inkscape:connector-curvature="0"
             id="path2684"
             d="m 14.875,-5.96875 -4.3125,0 0.707107,0.7071068 4.3125,0 L 14.875,-5.96875 Z" />
          <path
             style="fill:url(#linearGradient5002);fill-opacity:1"
             inkscape:connector-curvature="0"
             id="path2686"
             d="M 10.5625,-5.96875 9.75,-3.75 l 0.707107,0.7071068 0.8125,-2.21875 L 10.5625,-5.96875 Z" />
          <path
             style="fill:url(#linearGradient4100);fill-opacity:1"
             inkscape:connector-curvature="0"
             id="path2690"
             d="m 9.1875,-3.75 3.09375,-8.15625 0.707107,0.707107 L 9.8946068,-3.0428932 9.1875,-3.75 Z" />
          <path
             style="fill:url(#linearGradient4102);fill-opacity:1"
             inkscape:connector-curvature="0"
             id="path2660"
             d="m 10.8125,-5.6875 3.9375,0 0.707107,0.7071068 -3.9375,0 L 10.8125,-5.6875 Z" />
          <path
             style="fill:url(#linearGradient4104);fill-opacity:1"
             inkscape:connector-curvature="0"
             id="path2682"
             d="m 15.71875,-3.71875 -0.84375,-2.25 0.707107,0.7071068 0.84375,2.25 L 15.71875,-3.71875 Z" />
          <path
             style="fill:url(#linearGradient5004);fill-opacity:1"
             inkscape:connector-curvature="0"
             id="path2688"
             d="m 9.75,-3.75 -0.5625,0 0.7071068,0.7071068 0.5625002,0 L 9.75,-3.75 Z" />
          <path
             style="fill:url(#linearGradient4108);fill-opacity:1"
             inkscape:connector-curvature="0"
             id="path2692"
             d="m 12.28125,-11.90625 3.9375,-0.0625 0.707107,0.707107 -3.9375,0.0625 -0.707107,-0.707107 z" />
          <path
             style="fill:url(#linearGradient5006);fill-opacity:1"
             inkscape:connector-curvature="0"
             id="path2694"
             d="m 13.59375,-11.375 1.84375,4.9375 0.707107,0.7071068 -1.84375,-4.9374998 L 13.59375,-11.375 Z" />
          <path
             style="fill:url(#linearGradient5008);fill-opacity:1"
             inkscape:connector-curvature="0"
             id="path2698"
             d="M 17.29651,-10.694689 C 16.87154,-11.11966 16.292483,-11.392236 15.59375,-11.375 l 0.707107,0.707107 c 0.698733,-0.01724 1.277789,0.255339 1.70276,0.6803104 L 17.29651,-10.694689 Z" />
          <path
             style="fill:url(#linearGradient5010);fill-opacity:1"
             inkscape:connector-curvature="0"
             id="path2700"
             d="m 15.59375,-11.375 -2,0 0.707107,0.707107 2,0 L 15.59375,-11.375 Z" />
          <path
             style="fill:url(#linearGradient5012);fill-opacity:1"
             inkscape:connector-curvature="0"
             id="path2702"
             d="m 12.5,-11.25 -1.78125,4.875 0.707107,0.7071068 1.78125,-4.8749998 L 12.5,-11.25 Z" />
          <path
             style="fill:url(#linearGradient5014);fill-opacity:1"
             inkscape:connector-curvature="0"
             id="path2704"
             d="m 10.71875,-6.375 4,0.0625 0.707107,0.7071068 -4,-0.0625 L 10.71875,-6.375 Z" />
          <path
             style="fill:url(#linearGradient5016);fill-opacity:1"
             inkscape:connector-curvature="0"
             id="path2706"
             d="m 14.71875,-6.3125 -1.75,-4.9375 0.707107,0.707107 1.75,4.9374998 L 14.71875,-6.3125 Z" />
          <path
             style="fill:url(#linearGradient5018);fill-opacity:1"
             inkscape:connector-curvature="0"
             id="path2708"
             d="m 12.96875,-11.25 -0.46875,0 0.707107,0.707107 0.46875,0 L 12.96875,-11.25 Z" />
          <path
             style="fill:url(#linearGradient5020);fill-opacity:1"
             inkscape:connector-curvature="0"
             id="path2710"
             d="m 13.96875,-11.125 1.59375,0 0.707107,0.707107 -1.59375,0 L 13.96875,-11.125 Z" />
          <path
             style="fill:url(#linearGradient5022);fill-opacity:1"
             inkscape:connector-curvature="0"
             id="path2712"
             d="m 15.5625,-11.125 c 0.700736,-0.01728 1.245143,0.227017 1.62661,0.608484 l 0.707107,0.7071066 C 17.51475,-10.190876 16.970342,-10.435179 16.269607,-10.417893 L 15.5625,-11.125 Z" />
          <path
             style="fill:url(#linearGradient4128);fill-opacity:1"
             inkscape:connector-curvature="0"
             id="path2714"
             d="m 17.18911,-10.516516 c 1.226812,1.2268116 0.768345,3.872302 -1.59536,3.797766 l 0.707107,0.7071068 c 2.363705,0.074536 2.822172,-2.5709544 1.59536,-3.7977662 L 17.18911,-10.516516 Z" />
          <path
             style="fill:url(#linearGradient5024);fill-opacity:1"
             inkscape:connector-curvature="0"
             id="path2716"
             d="m 15.59375,-6.71875 -1.625,-4.40625 0.707107,0.707107 1.625,4.4062498 L 15.59375,-6.71875 Z" />
          <path
             style="fill:url(#linearGradient4132);fill-opacity:1"
             inkscape:connector-curvature="0"
             id="path2696"
             d="m 15.4375,-6.4375 c 2.997036,0.074602 3.230868,-2.8853317 1.85901,-4.257189 l 0.707107,0.7071064 c 1.371858,1.3718577 1.138026,4.3317916 -1.85901,4.2571894 L 15.4375,-6.4375 Z" />
          <path
             style="fill:url(#linearGradient4134);fill-opacity:1"
             inkscape:connector-curvature="0"
             id="path2722"
             d="m 11.15625,-6.65625 1.59375,-4.375 0.707107,0.707107 -1.59375,4.3749998 L 11.15625,-6.65625 Z" />
          <path
             style="fill:url(#linearGradient5026);fill-opacity:1"
             inkscape:connector-curvature="0"
             id="path2718"
             d="m 12.75,-11.03125 1.625,4.375 0.707107,0.7071068 -1.625,-4.3749998 L 12.75,-11.03125 Z" />
          <path
             style="fill:url(#linearGradient5028);fill-opacity:1"
             inkscape:connector-curvature="0"
             id="path2720"
             d="m 14.375,-6.65625 -3.21875,0 0.707107,0.7071068 3.21875,0 L 14.375,-6.65625 Z" />
          <path
             style="fill:url(#linearGradient4140);fill-opacity:1"
             inkscape:connector-curvature="0"
             id="path2670"
             d="m 15.96875,-5.6875 c 3.266261,0.062522 3.649833,-4.1338136 1.95162,-5.832027 l 0.707107,0.707107 c 1.698213,1.6982132 1.314641,5.8945486 -1.95162,5.8320268 L 15.96875,-5.6875 Z" />
          <path
             style="fill:url(#linearGradient4142);fill-opacity:1"
             inkscape:connector-curvature="0"
             id="path2668"
             d="m 16.78125,-3.4375 -0.8125,-2.25 0.707107,0.7071068 0.8125,2.25 L 16.78125,-3.4375 Z" />
          <path
             style="fill:url(#linearGradient4144);fill-opacity:1"
             inkscape:connector-curvature="0"
             id="path2666"
             d="m 15.53125,-3.4375 1.25,0 0.707107,0.7071068 -1.25,0 L 15.53125,-3.4375 Z" />
          <path
             style="fill:url(#linearGradient4146);fill-opacity:1"
             inkscape:connector-curvature="0"
             id="path2656"
             d="m 8.75,-3.4375 1.25,0 0.707107,0.7071068 -1.2500002,0 L 8.75,-3.4375 Z" />
          <path
             style="fill:url(#linearGradient4148);fill-opacity:1"
             inkscape:connector-curvature="0"
             id="path2658"
             d="m 10,-3.4375 0.8125,-2.25 0.707107,0.7071068 -0.8125,2.25 L 10,-3.4375 Z" />
        </g>
        <path
           style="font-style:normal;font-weight:normal;font-size:12px;font-family:'Bitstream Vera Sans';fill:#333333;fill-opacity:1;stroke:none"
           inkscape:connector-curvature="0"
           id="path2505"
           d="m 16.1875,-12.175236 -4.09375,0.03125 -3.3437504,8.7500003 1.25,0 0.8125004,-2.25 3.9375,0 0.78125,2.21875 0,0.03125 1.25,0 -0.8125,-2.25 c 4.115551,0.078779 3.654407,-6.6040073 0.21875,-6.5312503 z m 0.03125,0.25 c 3.044029,0.01427 3.490551,6.1412789 -0.625,6.0625003 l 0.78125,2.1875 -0.65625,0 -0.84375,-2.25 -4.3125,0 -0.8125004,2.21875 -0.5625,0 3.0937504,-8.1562503 3.9375,-0.0625 z m -2.625,0.59375 1.84375,4.9375003 c 3.925451,0.097712 3.110577,-5.0103763 0.15625,-4.9375003 l -2,0 z m -1.09375,0.125 -1.78125,4.8750003 4,0.0625 -1.75,-4.9375003 -0.46875,0 z m 1.46875,0.125 1.59375,0 c 2.954327,-0.07288 3.12993,4.5039626 0.03125,4.4062503 l -1.625,-4.4062503 z m -1.21875,0.09375 1.625,4.3750003 -3.21875,0 1.59375,-4.3750003 z"
           font-style="normal"
           font-weight="normal"
           font-size="12" />
      </g>
      <path
         style="font-style:normal;font-weight:normal;font-size:4px;font-family:'Bitstream Vera Sans';fill:#d40000;fill-opacity:1;stroke:none"
         inkscape:connector-curvature="0"
         id="text2170"
         d="m 6.0871491,-4.0239012 c -0.010522,-0.011146 -0.022062,-0.019197 -0.03462,-0.024152 -0.012219,-0.00557 -0.025796,-0.00836 -0.04073,-0.00836 -0.052948,1e-6 -0.093678,0.031584 -0.122188,0.094748 -0.028172,0.062547 -0.042257,0.15265 -0.042257,0.27031 l 0,0.548052 -0.094187,0 0,-1.040369 0.094187,0 0,0.161628 c 0.019686,-0.063164 0.045311,-0.109918 0.076877,-0.140264 0.031565,-0.030961 0.069918,-0.046444 0.115061,-0.046445 0.00645,1e-6 0.013576,9.31e-4 0.021383,0.00279 0.00781,0.00124 0.016461,0.00341 0.025965,0.0065 l 5.09e-4,0.175563 m 0.297835,-0.039943 c -0.050233,1e-6 -0.089944,0.035918 -0.119134,0.107752 -0.029189,0.071217 -0.043784,0.169061 -0.043784,0.293533 0,0.124473 0.014425,0.222627 0.043275,0.294462 0.029189,0.071216 0.06907,0.106824 0.119643,0.106824 0.049895,0 0.089436,-0.035918 0.118626,-0.107753 0.029189,-0.071835 0.043784,-0.169679 0.043784,-0.293533 0,-0.123233 -0.014595,-0.220768 -0.043784,-0.292604 -0.02919,-0.072453 -0.068731,-0.10868 -0.118626,-0.108681 m 0,-0.144909 c 0.08146,1e-6 0.145439,0.048304 0.191939,0.144909 0.046499,0.096606 0.069749,0.230368 0.06975,0.401285 -1e-6,0.170299 -0.023251,0.304061 -0.06975,0.401286 -0.0465,0.096605 -0.110479,0.144908 -0.191939,0.144908 -0.081799,0 -0.145948,-0.048303 -0.192447,-0.144908 -0.04616,-0.097225 -0.06924,-0.230987 -0.06924,-0.401286 0,-0.170917 0.02308,-0.304679 0.06924,-0.401285 0.046499,-0.096605 0.110648,-0.144908 0.192447,-0.144909 m 0.637419,0.144909 c -0.050233,1e-6 -0.089945,0.035918 -0.119134,0.107752 -0.02919,0.071217 -0.043784,0.169061 -0.043784,0.293533 0,0.124473 0.014425,0.222627 0.043275,0.294462 0.029189,0.071216 0.06907,0.106824 0.119643,0.106824 0.049893,0 0.089435,-0.035918 0.118625,-0.107753 0.029189,-0.071835 0.043784,-0.169679 0.043784,-0.293533 0,-0.123233 -0.014595,-0.220768 -0.043784,-0.292604 -0.02919,-0.072453 -0.068732,-0.10868 -0.118625,-0.108681 m 0,-0.144909 c 0.081459,1e-6 0.145438,0.048304 0.191938,0.144909 0.046499,0.096606 0.069749,0.230368 0.069749,0.401285 0,0.170299 -0.02325,0.304061 -0.069749,0.401286 -0.0465,0.096605 -0.110479,0.144908 -0.191938,0.144908 -0.081799,0 -0.145948,-0.048303 -0.192447,-0.144908 -0.046161,-0.097225 -0.06924,-0.230987 -0.06924,-0.401286 0,-0.170917 0.023079,-0.304679 0.06924,-0.401285 0.046499,-0.096605 0.110648,-0.144908 0.192447,-0.144909 m 0.50912,-0.27031 0,0.295391 0.192955,0 0,0.132832 -0.192955,0 0,0.564772 c -1e-6,0.08484 0.00628,0.139336 0.018836,0.163487 0.012898,0.024152 0.038863,0.036228 0.077896,0.036227 l 0.096223,0 0,0.143051 -0.096223,0 c -0.072296,0 -0.122188,-0.024461 -0.149681,-0.073383 -0.027492,-0.049542 -0.041238,-0.139335 -0.041238,-0.269382 l 0,-0.564772 -0.068732,0 0,-0.132832 0.068732,0 0,-0.295391 0.094187,0 m 0.423586,0.103108 0,0.521114 0.129317,0 c 0.047857,0 0.084853,-0.022603 0.110988,-0.06781 0.026134,-0.045206 0.039202,-0.109609 0.039202,-0.193211 0,-0.082981 -0.013068,-0.147075 -0.039202,-0.192283 -0.026135,-0.045205 -0.063131,-0.067809 -0.110988,-0.06781 l -0.129317,0 m -0.102842,-0.154197 0.232159,0 c 0.085192,1e-6 0.149511,0.0353 0.192956,0.105894 0.043784,0.069979 0.065676,0.172777 0.065676,0.308396 0,0.136859 -0.021892,0.240276 -0.065676,0.310252 -0.043445,0.069978 -0.107764,0.104967 -0.192956,0.104967 l -0.129317,0 0,0.55734 -0.102842,0 0,-1.386849 m 0.837502,0.863878 c -0.075689,0 -0.128129,0.015791 -0.157318,0.047374 -0.02919,0.031583 -0.043784,0.085459 -0.043784,0.161628 0,0.060689 0.010861,0.108991 0.032583,0.144909 0.022062,0.035298 0.05193,0.052947 0.089606,0.052947 0.05193,0 0.093508,-0.03344 0.124734,-0.100321 0.031565,-0.0675 0.047348,-0.156984 0.047348,-0.268453 l 0,-0.038084 -0.093169,0 m 0.186847,-0.070597 0,0.593568 -0.093678,0 0,-0.157913 c -0.021383,0.063165 -0.048027,0.10992 -0.079932,0.140264 -0.031905,0.029725 -0.070937,0.044587 -0.117097,0.044587 -0.05838,0 -0.104879,-0.029725 -0.139499,-0.089175 -0.034281,-0.060068 -0.051421,-0.140263 -0.051421,-0.240585 0,-0.117041 0.021383,-0.205287 0.064149,-0.264737 0.043105,-0.059448 0.107254,-0.089173 0.192447,-0.089174 l 0.131353,0 0,-0.01672 c 0,-0.078646 -0.014256,-0.139335 -0.042766,-0.182065 -0.028172,-0.043347 -0.067883,-0.065022 -0.119134,-0.065023 -0.032584,1e-6 -0.064319,0.00712 -0.095206,0.021365 -0.030886,0.014244 -0.060585,0.035608 -0.089096,0.064094 l 0,-0.157913 c 0.034281,-0.024151 0.067544,-0.04211 0.099788,-0.053876 0.032244,-0.012385 0.06364,-0.018578 0.094187,-0.018579 0.082477,1e-6 0.144081,0.039016 0.184811,0.117042 0.040729,0.078028 0.061093,0.196309 0.061094,0.35484 m 0.193466,-0.851802 0.093678,0 0,1.44537 -0.093678,0 0,-1.44537 m 0.647228,0.9200515 c -1e-6,0.088556 0.012049,0.158223 0.036147,0.209003 0.024098,0.050161 0.057191,0.075241 0.099278,0.075241 0.041749,0 0.074502,-0.02539 0.098261,-0.07617 0.024098,-0.05078 0.036148,-0.120138 0.036148,-0.208074 0,-0.086697 -0.012219,-0.155435 -0.036657,-0.206216 -0.024438,-0.051399 -0.057361,-0.077098 -0.09877,-0.077099 -0.041069,1e-6 -0.073823,0.025391 -0.09826,0.07617 -0.024098,0.050781 -0.036148,0.119829 -0.036147,0.207145 m 0.277471,0.277742 c -0.020365,0.047683 -0.043785,0.082981 -0.070259,0.105894 -0.026135,0.022294 -0.056683,0.033441 -0.091642,0.033441 -0.05838,0 -0.105897,-0.038395 -0.142554,-0.115184 -0.036317,-0.077408 -0.054476,-0.178039 -0.054476,-0.301893 0,-0.123853 0.018328,-0.224483 0.054986,-0.301893 0.036656,-0.077407 0.084004,-0.116111 0.142044,-0.116112 0.034959,1e-6 0.065677,0.011767 0.092151,0.035298 0.026474,0.022914 0.049724,0.057902 0.06975,0.104966 l 0,-0.121686 0.072804,0 0,0.683671 c 0.04955,-0.013624 0.08825,-0.054805 0.116079,-0.123544 0.02817,-0.069357 0.04226,-0.158841 0.04226,-0.268452 -10e-7,-0.066262 -0.0054,-0.128498 -0.01629,-0.186709 -0.01052,-0.058211 -0.02664,-0.112087 -0.04837,-0.161629 -0.0353,-0.081123 -0.07841,-0.14305 -0.129316,-0.18578 -0.050574,-0.043348 -0.1057269,-0.065022 -0.1654639,-0.065024 -0.041748,2e-6 -0.081799,0.010219 -0.120153,0.030654 -0.038354,0.019818 -0.073822,0.049543 -0.106406,0.089174 -0.053288,0.063167 -0.095035,0.146149 -0.125243,0.248946 -0.029869,0.10218 -0.044803,0.213029 -0.044803,0.332547 0,0.098464 0.00967,0.190734 0.02902,0.276812 0.019686,0.086079 0.048027,0.161939 0.085023,0.227581 0.035638,0.064404 0.076877,0.113326 0.123716,0.146766 0.046839,0.03406 0.096902,0.05109 0.150191,0.05109 0.043784,0 0.08672,-0.013624 0.128808,-0.040872 0.042427,-0.026628 0.08129,-0.065023 0.1165869,-0.115184 l 0.04582,0.103108 c -0.04243,0.060069 -0.08876,0.105895 -0.138989,0.137478 -0.049895,0.032201 -0.1006359,0.048302 -0.1522269,0.048303 -0.062792,-10e-7 -0.12202,-0.020436 -0.177683,-0.061308 -0.055664,-0.040252 -0.105218,-0.099083 -0.148663,-0.176491 -0.043445,-0.077408 -0.076538,-0.166892 -0.099278,-0.268452 -0.022741,-0.102179 -0.034112,-0.21179 -0.034111,-0.328831 -1e-6,-0.112706 0.01154,-0.220149 0.03462,-0.322329 0.02308,-0.102178 0.056003,-0.191972 0.098769,-0.269381 0.043784,-0.078646 0.094356,-0.138715 0.151718,-0.180207 0.05736,-0.042109 0.118115,-0.063164 0.182264,-0.063165 0.071957,1e-6 0.1386499,0.026939 0.2000849,0.080814 0.06177,0.053878 0.113532,0.130357 0.155281,0.229439 0.02546,0.060689 0.0448,0.126641 0.05804,0.197856 0.01358,0.071216 0.02036,0.144909 0.02036,0.221078 -2e-6,0.162868 -0.02698,0.291365 -0.08095,0.385494 -0.05397,0.094129 -0.128468,0.143051 -0.2235019,0.146766 l 0,-0.14305 m 0.8507379,-0.311182 c -10e-7,-0.123853 -0.01409,-0.219839 -0.04226,-0.28796 -0.02783,-0.068118 -0.06703,-0.102178 -0.117607,-0.102179 -0.05023,1e-6 -0.08943,0.034061 -0.117606,0.102179 -0.02783,0.068121 -0.04175,0.164107 -0.04175,0.28796 0,0.123234 0.01392,0.218911 0.04175,0.28703 0.02817,0.06812 0.06737,0.10218 0.117606,0.102179 0.05057,1e-6 0.08977,-0.034059 0.117607,-0.102179 0.02817,-0.068119 0.04226,-0.163796 0.04226,-0.28703 m 0.09368,0.403143 c -1e-6,0.17711 -0.02155,0.308704 -0.06466,0.394782 -0.04311,0.086698 -0.109122,0.130046 -0.198048,0.130047 -0.03292,-1e-6 -0.06398,-0.00464 -0.09317,-0.013934 -0.02919,-0.00867 -0.05753,-0.022294 -0.08502,-0.040872 l 0,-0.166273 c 0.02749,0.027248 0.05465,0.047374 0.08146,0.060379 0.02681,0.013004 0.05414,0.019506 0.08197,0.019507 0.06143,-1e-6 0.107424,-0.029416 0.137971,-0.088246 0.03055,-0.058211 0.04582,-0.146457 0.04582,-0.264737 l 0,-0.08453 c -0.01935,0.061308 -0.04412,0.107134 -0.07433,0.137478 -0.03021,0.030344 -0.06636,0.045516 -0.108443,0.045516 -0.06992,0 -0.126262,-0.048613 -0.169028,-0.145837 -0.04277,-0.097225 -0.06415,-0.226033 -0.06415,-0.386423 0,-0.161009 0.02138,-0.290126 0.06415,-0.387352 0.04277,-0.097224 0.09911,-0.145837 0.169028,-0.145838 0.04209,1e-6 0.07823,0.015173 0.108443,0.045517 0.03021,0.030345 0.05498,0.076171 0.07433,0.137477 l 0,-0.157913 0.09368,0 0,0.911252 m 0.636909,-0.711539 c 0.02342,-0.076788 0.05142,-0.13345 0.084,-0.169988 0.03258,-0.036536 0.07094,-0.054805 0.115061,-0.054806 0.0594,1e-6 0.105218,0.038087 0.137463,0.114256 0.03224,0.075551 0.04837,0.183303 0.04837,0.323257 l 0,0.627937 -0.09419,0 0,-0.622364 c -10e-7,-0.099701 -0.0097,-0.173703 -0.02902,-0.222007 -0.01935,-0.048302 -0.04888,-0.072453 -0.08859,-0.072454 -0.04854,1e-6 -0.08689,0.029416 -0.115061,0.088245 -0.02817,0.058832 -0.04226,0.139026 -0.04226,0.240585 l 0,0.587995 -0.09419,0 0,-0.622364 c 0,-0.10032 -0.0097,-0.174323 -0.02902,-0.222007 -0.01935,-0.048302 -0.04922,-0.072453 -0.0896,-0.072454 -0.04786,1e-6 -0.08587,0.029725 -0.114042,0.089174 -0.02817,0.058831 -0.04226,0.138717 -0.04226,0.239656 l 0,0.587995 -0.09419,0 0,-1.040369 0.09419,0 0,0.161628 c 0.02138,-0.063783 0.04701,-0.110847 0.07688,-0.141192 0.02987,-0.030344 0.06534,-0.045516 0.106406,-0.045517 0.04141,1e-6 0.07654,0.019199 0.105388,0.057592 0.02919,0.038396 0.05074,0.09413 0.06466,0.167202 m 0.831392,0.317685 c -0.07569,0 -0.128129,0.015791 -0.157318,0.047374 -0.02919,0.031583 -0.04378,0.085459 -0.04378,0.161628 0,0.060689 0.01086,0.108991 0.03258,0.144909 0.02206,0.035298 0.05193,0.052947 0.0896,0.052947 0.05193,0 0.09351,-0.03344 0.124734,-0.100321 0.03157,-0.0675 0.04735,-0.156984 0.04735,-0.268453 l 0,-0.038084 -0.09317,0 m 0.186847,-0.070597 0,0.593568 -0.09368,0 0,-0.157913 c -0.02138,0.063165 -0.04803,0.10992 -0.07993,0.140264 -0.03191,0.029725 -0.07094,0.044587 -0.117097,0.044587 -0.05838,0 -0.104879,-0.029725 -0.139499,-0.089175 -0.03428,-0.060068 -0.05142,-0.140263 -0.05142,-0.240585 0,-0.117041 0.02138,-0.205287 0.06415,-0.264737 0.0431,-0.059448 0.107254,-0.089173 0.192447,-0.089174 l 0.131353,0 0,-0.01672 c 0,-0.078646 -0.01426,-0.139335 -0.04277,-0.182065 -0.02817,-0.043347 -0.06788,-0.065022 -0.119134,-0.065023 -0.03258,1e-6 -0.06432,0.00712 -0.0952,0.021365 -0.03089,0.014244 -0.06059,0.035608 -0.0891,0.064094 l 0,-0.157913 c 0.03428,-0.024151 0.06754,-0.04211 0.09979,-0.053876 0.03224,-0.012385 0.06364,-0.018578 0.09419,-0.018579 0.08248,1e-6 0.144081,0.039016 0.184811,0.117042 0.04073,0.078028 0.06109,0.196309 0.06109,0.35484 m 0.193466,-0.446801 0.09368,0 0,1.040369 -0.09368,0 0,-1.040369 m 0,-0.405001 0.09368,0 0,0.216434 -0.09368,0 0,-0.216434 m 0.28918,0 0.09368,0 0,1.44537 -0.09368,0 0,-1.44537 m 0.302417,1.209429 0.107424,0 0,0.235941 -0.107424,0 0,-0.235941 m 0.729059,-0.764485 0,0.15977 c -0.02647,-0.026627 -0.05312,-0.046444 -0.07993,-0.059449 -0.02647,-0.013623 -0.05329,-0.020435 -0.08044,-0.020436 -0.06076,1e-6 -0.107934,0.035299 -0.141536,0.105895 -0.0336,0.069978 -0.0504,0.168441 -0.0504,0.29539 0,0.126951 0.0168,0.225724 0.0504,0.29632 0.0336,0.069977 0.08078,0.104966 0.141536,0.104966 0.02715,0 0.05397,-0.0065 0.08044,-0.019507 0.02681,-0.013624 0.05346,-0.03375 0.07993,-0.060379 l 0,0.157913 c -0.02614,0.022294 -0.05329,0.039014 -0.08146,0.050161 -0.02783,0.011146 -0.05753,0.01672 -0.0891,0.01672 -0.08587,0 -0.154094,-0.049231 -0.204666,-0.147695 -0.05057,-0.098463 -0.07586,-0.231296 -0.07586,-0.398499 0,-0.169678 0.02546,-0.30313 0.07637,-0.400356 0.05125,-0.097224 0.12134,-0.145837 0.210267,-0.145838 0.02885,1e-6 0.05702,0.00558 0.08451,0.016721 0.02749,0.010528 0.05414,0.026629 0.07993,0.048303 m 0.384895,0.079885 c -0.05023,1e-6 -0.08995,0.035918 -0.119134,0.107752 -0.02919,0.071217 -0.04378,0.169061 -0.04378,0.293533 -10e-7,0.124473 0.01442,0.222627 0.04328,0.294462 0.02919,0.071216 0.06907,0.106824 0.119643,0.106824 0.04989,0 0.08943,-0.035918 0.118625,-0.107753 0.02919,-0.071835 0.04378,-0.169679 0.04378,-0.293533 0,-0.123233 -0.01459,-0.220768 -0.04378,-0.292604 -0.02919,-0.072453 -0.06873,-0.10868 -0.118625,-0.108681 m 0,-0.144909 c 0.08146,1e-6 0.145438,0.048304 0.191938,0.144909 0.0465,0.096606 0.06975,0.230368 0.06975,0.401285 0,0.170299 -0.02325,0.304061 -0.06975,0.401286 -0.0465,0.096605 -0.11048,0.144908 -0.191938,0.144908 -0.0818,0 -0.145948,-0.048303 -0.192448,-0.144908 -0.04616,-0.097225 -0.06924,-0.230987 -0.06924,-0.401286 0,-0.170917 0.02308,-0.304679 0.06924,-0.401285 0.0465,-0.096605 0.110649,-0.144908 0.192448,-0.144909 m 0.860412,0.224794 c 0.02342,-0.076788 0.05142,-0.13345 0.084,-0.169988 0.03258,-0.036536 0.07094,-0.054805 0.115061,-0.054806 0.0594,1e-6 0.105217,0.038087 0.137462,0.114256 0.03224,0.075551 0.04837,0.183303 0.04837,0.323257 l 0,0.627937 -0.09419,0 0,-0.622364 c 0,-0.099701 -0.0097,-0.173703 -0.02902,-0.222007 -0.01935,-0.048302 -0.04888,-0.072453 -0.08859,-0.072454 -0.04854,1e-6 -0.08689,0.029416 -0.115061,0.088245 -0.02817,0.058832 -0.04226,0.139026 -0.04226,0.240585 l 0,0.587995 -0.09419,0 0,-0.622364 c -10e-7,-0.10032 -0.0097,-0.174323 -0.02902,-0.222007 -0.01935,-0.048302 -0.04922,-0.072453 -0.08961,-0.072454 -0.04786,1e-6 -0.08587,0.029725 -0.114043,0.089174 -0.02817,0.058831 -0.04226,0.138717 -0.04226,0.239656 l 0,0.587995 -0.09419,0 0,-1.040369 0.09419,0 0,0.161628 c 0.02138,-0.063783 0.04701,-0.110847 0.07688,-0.141192 0.02987,-0.030344 0.06534,-0.045516 0.106406,-0.045517 0.04141,1e-6 0.07654,0.019199 0.105388,0.057592 0.02919,0.038396 0.05074,0.09413 0.06466,0.167202"
         sodipodi:nodetypes="csssccccccssscccsssssssccsssssssccsssssssccssssssscccccccsccccsccccccccccsssccccsssccccccssssscccccccssssscccsssccssscccccccsssssssccsssssssccccsssssssssssssssccssssssssssssssscccsssssssccsssccsssccssssssscccccsssccccsssccccsssccccccsssccssssscccccccssssscccsssccssscccccccccccccccccccccccsssssssccsssssssccsssssssccsssssssccsssccccsssccccsssccccccsssc"
         font-style="normal"
         font-weight="normal"
         font-size="4" />
    </g>
  </g>
</svg>
