<?xml version="1.0" encoding="UTF-8" standalone="no"?>
<!-- Created with Inkscape (http://www.inkscape.org/) -->
<svg xmlns:dc="http://purl.org/dc/elements/1.1/" xmlns:cc="http://creativecommons.org/ns#" xmlns:rdf="http://www.w3.org/1999/02/22-rdf-syntax-ns#" xmlns:svg="http://www.w3.org/2000/svg" xmlns="http://www.w3.org/2000/svg" xmlns:xlink="http://www.w3.org/1999/xlink" xmlns:sodipodi="http://sodipodi.sourceforge.net/DTD/sodipodi-0.dtd" xmlns:inkscape="http://www.inkscape.org/namespaces/inkscape" width="255" height="255" viewBox="0 0 67.468748 67.468752" version="1.1" id="svg8" inkscape:version="0.92.1 r15371" sodipodi:docname="user-trash-full.svg">
 <defs id="defs2">
  <linearGradient id="linearGradient4557">
   <stop id="stop4549" stop-color="#1d6b8d" stop-opacity="0.333"/>
   <stop id="stop4551" offset="0.298" stop-color="#49bde8" stop-opacity="0.345"/>
   <stop offset="0.75" id="stop4553" stop-color="#62b8ec" stop-opacity="0.287"/>
   <stop offset="1" id="stop4555" stop-color="#5bbced" stop-opacity="0.353"/>
  </linearGradient>
  <linearGradient id="linearGradient4554">
   <stop stop-opacity="0.504" stop-color="#1d6b8d" id="stop4546"/>
   <stop stop-opacity="0.345" stop-color="#2389af" offset="0.298" id="stop4548"/>
   <stop stop-opacity="0.399" stop-color="#2c86bd" id="stop4550" offset="0.75"/>
   <stop stop-opacity="0.353" stop-color="#297ca5" id="stop4552" offset="1"/>
  </linearGradient>
  <linearGradient id="linearGradient4604" inkscape:collect="always">
   <stop id="stop4600" stop-color="#ffffff" stop-opacity="0.633"/>
   <stop id="stop4602" offset="1" stop-color="#70a5c3" stop-opacity="0.353"/>
  </linearGradient>
  <linearGradient id="linearGradient4598">
   <stop id="stop4594" stop-color="#ffffff" stop-opacity="0.633"/>
   <stop id="stop4596" offset="1" stop-color="#70a5c3" stop-opacity="0.353"/>
  </linearGradient>
  <linearGradient id="linearGradient5184">
   <stop id="stop5180" stop-color="#ffffff" stop-opacity="0.633"/>
   <stop id="stop5182" offset="1" stop-color="#d8daff" stop-opacity="0.235"/>
  </linearGradient>
  <linearGradient inkscape:collect="always" id="linearGradient3565">
   <stop id="stop3567" stop-color="#ffffff" stop-opacity="0.461"/>
   <stop offset="1" id="stop3569" stop-color="#ffffff" stop-opacity="0"/>
  </linearGradient>
  <linearGradient id="linearGradient3481">
   <stop id="stop3483" stop-color="#ffffff" stop-opacity="0.633"/>
   <stop offset="1" id="stop3485" stop-color="#070887" stop-opacity="0.47"/>
  </linearGradient>
  <linearGradient id="linearGradient3449" inkscape:collect="always">
   <stop id="stop3451" stop-color="#ffffff" stop-opacity="1"/>
   <stop id="stop3453" offset="1" stop-color="#ffffff" stop-opacity="0"/>
  </linearGradient>
  <linearGradient spreadMethod="reflect" gradientUnits="userSpaceOnUse" y2="40.23" x2="103.91" y1="35.772" x1="184.73" id="linearGradient3559" xlink:href="#linearGradient3449" inkscape:collect="always" gradientTransform="matrix(0.28331236,0,0,0.25970423,0.65815813,227.28704)"/>
  <linearGradient gradientTransform="matrix(0.28321534,0,0,0.27384295,0.67027883,271.46043)" y2="68.34" x2="76.43" y1="68.34" x1="168.72" spreadMethod="reflect" gradientUnits="userSpaceOnUse" id="linearGradient3640" xlink:href="#linearGradient3449" inkscape:collect="always"/>
  <linearGradient y2="133.44" x2="93.87" y1="135.17" x1="165.62" spreadMethod="reflect" gradientTransform="matrix(0.2809826,0,0,0.2809826,0.80544764,225.69408)" gradientUnits="userSpaceOnUse" id="linearGradient3643" xlink:href="#linearGradient3565" inkscape:collect="always"/>
  <linearGradient y2="150.07" x2="88.982" y1="150.07" x1="74.03" spreadMethod="reflect" gradientTransform="matrix(0.2809826,0,0,0.2809826,30.217872,226.40935)" gradientUnits="userSpaceOnUse" id="linearGradient3646" xlink:href="#linearGradient4604" inkscape:collect="always"/>
  <linearGradient y2="150.07" x2="88.982" y1="150.07" x1="74.03" gradientTransform="matrix(0.2809826,0,0,0.2809826,30.217872,226.40935)" gradientUnits="userSpaceOnUse" id="linearGradient3648" xlink:href="#linearGradient4598" inkscape:collect="always"/>
  <linearGradient y2="150.07" x2="88.982" y1="150.07" x1="74.03" spreadMethod="reflect" gradientTransform="matrix(0.2809826,0,0,0.2809826,20.378958,229.37862)" gradientUnits="userSpaceOnUse" id="linearGradient3651" xlink:href="#linearGradient4604" inkscape:collect="always"/>
  <linearGradient y2="150.07" x2="88.982" y1="150.07" x1="74.03" gradientTransform="matrix(0.2809826,0,0,0.2809826,20.378958,229.37862)" gradientUnits="userSpaceOnUse" id="linearGradient3653" xlink:href="#linearGradient3481" inkscape:collect="always"/>
  <linearGradient y2="150.07" x2="88.982" y1="150.07" x1="74.03" spreadMethod="reflect" gradientTransform="matrix(0.2809826,0,0,0.2809826,10.601091,229.38583)" gradientUnits="userSpaceOnUse" id="linearGradient3656" xlink:href="#linearGradient4604" inkscape:collect="always"/>
  <linearGradient y2="150.07" x2="88.982" y1="150.07" x1="74.03" gradientTransform="matrix(0.2809826,0,0,0.2809826,10.601091,229.38583)" gradientUnits="userSpaceOnUse" id="linearGradient3658" xlink:href="#linearGradient3481" inkscape:collect="always"/>
  <linearGradient gradientTransform="matrix(0.2809826,0,0,0.2809826,0.64008767,225.8378)" y2="150.07" x2="88.982" y1="150.07" x1="74.03" spreadMethod="reflect" gradientUnits="userSpaceOnUse" id="linearGradient3661" xlink:href="#linearGradient4604" inkscape:collect="always"/>
  <linearGradient gradientTransform="matrix(0.2809826,0,0,0.2809826,0.64008767,225.8378)" y2="150.07" x2="88.982" y1="150.07" x1="74.03" gradientUnits="userSpaceOnUse" id="linearGradient3663" xlink:href="#linearGradient3481" inkscape:collect="always"/>
  <linearGradient gradientTransform="matrix(0.2809826,0,0,0.2809826,0.86649314,226.29061)" y2="131.38" x2="200.68" y1="131.38" x1="48.846" spreadMethod="reflect" gradientUnits="userSpaceOnUse" id="linearGradient3667" xlink:href="#linearGradient4557" inkscape:collect="always"/>
  <linearGradient y2="65.02" x2="101.83" y1="68.34" x1="168.72" spreadMethod="reflect" gradientTransform="matrix(0.28321534,0,0,-0.27384295,0.58759893,299.29853)" gradientUnits="userSpaceOnUse" id="linearGradient3673" xlink:href="#linearGradient3449" inkscape:collect="always"/>
  <linearGradient y2="150.07" x2="83.68" y1="150.07" x1="69.55" spreadMethod="reflect" gradientTransform="matrix(0.20279238,0,0,0.28159543,3.5711323,215.85644)" gradientUnits="userSpaceOnUse" id="linearGradient3676" xlink:href="#linearGradient4604" inkscape:collect="always"/>
  <linearGradient y2="150.07" x2="83.68" y1="150.07" x1="69.55" gradientTransform="matrix(0.20279238,0,0,0.28159543,3.5711323,215.85644)" gradientUnits="userSpaceOnUse" id="linearGradient3678" xlink:href="#linearGradient3481" inkscape:collect="always"/>
  <linearGradient y2="150.07" x2="84.27" y1="150.07" x1="70.5" spreadMethod="reflect" gradientTransform="matrix(0.2809826,0,0,0.2809826,7.3155278,212.72389)" gradientUnits="userSpaceOnUse" id="linearGradient3681" xlink:href="#linearGradient4604" inkscape:collect="always"/>
  <linearGradient y2="150.07" x2="84.27" y1="150.07" x1="70.5" gradientTransform="matrix(0.2809826,0,0,0.2809826,7.3155278,212.72389)" gradientUnits="userSpaceOnUse" id="linearGradient3683" xlink:href="#linearGradient5184" inkscape:collect="always"/>
  <linearGradient y2="150.07" x2="84.27" y1="150.07" x1="70.5" spreadMethod="reflect" gradientTransform="matrix(0.2809826,0,0,0.2809826,17.319801,211.73173)" gradientUnits="userSpaceOnUse" id="linearGradient3686" xlink:href="#linearGradient4604" inkscape:collect="always"/>
  <linearGradient y2="150.07" x2="84.27" y1="150.07" x1="70.5" gradientTransform="matrix(0.2809826,0,0,0.2809826,17.319801,211.73173)" gradientUnits="userSpaceOnUse" id="linearGradient3688" xlink:href="#linearGradient3481" inkscape:collect="always"/>
  <linearGradient y2="150.07" x2="84.27" y1="150.07" x1="70.5" spreadMethod="reflect" gradientTransform="matrix(0.2809826,0,0,0.2809826,27.902833,214.29481)" gradientUnits="userSpaceOnUse" id="linearGradient3691" xlink:href="#linearGradient4604" inkscape:collect="always"/>
  <linearGradient y2="150.07" x2="84.27" y1="150.07" x1="70.5" gradientTransform="matrix(0.2809826,0,0,0.2809826,27.902833,214.29481)" gradientUnits="userSpaceOnUse" id="linearGradient3693" xlink:href="#linearGradient3481" inkscape:collect="always"/>
  <linearGradient gradientTransform="matrix(0.2809826,0,0,0.2809826,0.7155558,226.36608)" y2="66.06" x2="93.87" y1="65.18" x1="173.31" spreadMethod="reflect" gradientUnits="userSpaceOnUse" id="linearGradient3696" xlink:href="#linearGradient3565" inkscape:collect="always"/>
  <linearGradient y2="60.948" x2="152.85" y1="56.968" x1="85.42" spreadMethod="reflect" gradientTransform="matrix(0.28321534,0,0,-0.27384295,0.59242443,298.84619)" gradientUnits="userSpaceOnUse" id="linearGradient3700" xlink:href="#linearGradient3449" inkscape:collect="always"/>
  <linearGradient inkscape:collect="always" xlink:href="#linearGradient4554" id="linearGradient5121" gradientUnits="userSpaceOnUse" gradientTransform="matrix(0.2809826,0,0,0.2809826,1.0928983,226.21514)" x1="48.846" y1="131.38" x2="200.68" y2="131.38" spreadMethod="reflect"/>
 </defs>
 <sodipodi:namedview id="base" pagecolor="#ff0000" bordercolor="#666666" borderopacity="1.0" inkscape:pageopacity="0" inkscape:pageshadow="2" inkscape:zoom="3.5254902" inkscape:cx="127.5" inkscape:cy="127.5" inkscape:document-units="mm" inkscape:current-layer="layer1" showgrid="false" units="px" inkscape:snap-to-guides="false" inkscape:snap-grids="false" inkscape:snap-others="false" inkscape:object-nodes="false" inkscape:snap-nodes="false" inkscape:snap-global="false" inkscape:window-width="1920" inkscape:window-height="1056" inkscape:window-x="0" inkscape:window-y="0" inkscape:window-maximized="1"/>
 <metadata id="metadata5">
  <rdf:RDF>
   <cc:Work>
    <dc:format>image/svg+xml</dc:format>
    <dc:type rdf:resource="http://purl.org/dc/dcmitype/StillImage"/>
    <dc:title/>
   </cc:Work>
  </rdf:RDF>
 </metadata>
 <g inkscape:label="Layer 1" inkscape:groupmode="layer" id="layer1" transform="translate(0,-229.53123)">
  <path d="m 36.145476,231.17624 c -11.817608,0 -21.328334,4.3138 -21.328334,9.66756 v 44.57964 c 0,5.35376 9.510726,9.66756 21.328334,9.66756 11.817609,0 21.337117,-4.3138 21.337117,-9.66756 V 240.8438 c 0,-5.35376 -9.519508,-9.66756 -21.337117,-9.66756 z m 2.85373,3.38935 c 1.809287,0 3.266424,1.45714 3.266424,3.26642 v 31.9969 c 3e-6,1.80928 -1.457137,3.26642 -3.266424,3.26642 -1.809282,0 -3.266422,-1.45714 -3.266422,-3.26642 v -31.9969 c 0,-1.80928 1.457138,-3.26642 3.266422,-3.26642 z m -10.08025,0.82539 c 1.809282,0 3.257643,1.45713 3.257643,3.26642 v 31.99689 c 0,1.80929 -1.448355,3.26643 -3.257643,3.26643 -1.809286,0 -3.266423,-1.45714 -3.266423,-3.26643 V 238.6574 c 0,-1.80929 1.457138,-3.26642 3.266423,-3.26642 z m 20.581975,1.57174 c 1.809287,0 3.266424,1.45714 3.266424,3.26643 v 31.99689 c -3e-6,1.80929 -1.457137,3.26642 -3.266424,3.26642 -1.809282,0 -3.266421,-1.45713 -3.266421,-3.26642 v -31.99689 c 0,-1.80929 1.457137,-3.26643 3.266421,-3.26643 z m -30.258313,1.78249 c 1.371258,0 2.476159,1.46252 2.476159,3.2752 v 32.05836 c 1e-6,1.81268 -1.104901,3.26642 -2.476159,3.26642 -1.371259,0 -2.476159,-1.45374 -2.476159,-3.26642 v -32.05836 c 0,-1.81268 1.1049,-3.2752 2.476159,-3.2752 z" id="rect3418" inkscape:connector-curvature="0" stroke-miterlimit="4" stroke-dasharray="none" stroke-opacity="1" fill="url(#linearGradient5121)" stroke="none" stroke-linejoin="round" fill-opacity="1" stroke-linecap="round" stroke-width="0.529"/>
  <ellipse id="path3702" cx="35.844" cy="285.24" rx="21.328" ry="9.845" opacity="1" stroke-dasharray="none" stroke-opacity="1" fill="#2b6895" stroke="none" stroke-linejoin="round" fill-opacity="0.516" stroke-linecap="round" stroke-width="0.532" stroke-miterlimit="4"/>
  <path id="path3571" d="m 35.768134,231.32718 c -11.817608,0 -21.328334,4.3138 -21.328334,9.66756 v 44.57964 c 0,5.35376 9.510726,9.66756 21.328334,9.66756 11.817609,0 21.337117,-4.3138 21.337117,-9.66756 v -44.57964 c 0,-5.35376 -9.519508,-9.66756 -21.337117,-9.66756 z m 2.85373,3.38935 c 1.809287,0 3.266424,1.45714 3.266424,3.26642 v 31.9969 c 3e-6,1.80928 -1.457137,3.26642 -3.266424,3.26642 -1.809282,0 -3.266422,-1.45714 -3.266422,-3.26642 v -31.9969 c 0,-1.80928 1.457138,-3.26642 3.266422,-3.26642 z m -10.08025,0.82539 c 1.809282,0 3.257643,1.45713 3.257643,3.26642 v 31.99689 c 0,1.80929 -1.448355,3.26643 -3.257643,3.26643 -1.809286,0 -3.266423,-1.45714 -3.266423,-3.26643 v -31.99689 c 0,-1.80929 1.457138,-3.26642 3.266423,-3.26642 z m 20.581975,1.57174 c 1.809287,0 3.266424,1.45714 3.266424,3.26643 v 31.99689 c -3e-6,1.80929 -1.457137,3.26642 -3.266424,3.26642 -1.809282,0 -3.266421,-1.45713 -3.266421,-3.26642 v -31.99689 c 0,-1.80929 1.457137,-3.26643 3.266421,-3.26643 z m -30.258313,1.78249 c 1.371258,0 2.476159,1.46252 2.476159,3.2752 v 32.05836 c 1e-6,1.81268 -1.104901,3.26642 -2.476159,3.26642 -1.371259,0 -2.476159,-1.45374 -2.476159,-3.26642 v -32.05836 c 0,-1.81268 1.1049,-3.2752 2.476159,-3.2752 z" inkscape:connector-curvature="0" stroke-miterlimit="4" stroke-dasharray="none" stroke-opacity="1" fill="url(#linearGradient3696)" stroke="none" stroke-linejoin="round" fill-opacity="1" stroke-linecap="round" stroke-width="0.529"/>
  <rect ry="3.266" y="237.2" x="46.09" height="38.529" width="6.532" id="rect3527" stroke-dasharray="none" stroke-opacity="1" fill="url(#linearGradient3691)" stroke="url(#linearGradient3693)" stroke-linejoin="round" fill-opacity="1" stroke-linecap="round" stroke-width="0.562" stroke-miterlimit="4" rx="3.266"/>
  <rect id="rect3521" width="6.532" height="38.529" x="35.509" y="234.63" ry="3.266" stroke-dasharray="none" stroke-opacity="1" fill="url(#linearGradient3686)" stroke="url(#linearGradient3688)" stroke-linejoin="round" fill-opacity="1" stroke-linecap="round" stroke-width="0.562" stroke-miterlimit="4" rx="3.266"/>
  <rect ry="3.266" y="235.63" x="25.505" height="38.529" width="6.532" id="rect3515" stroke-dasharray="none" stroke-opacity="1" fill="url(#linearGradient3681)" stroke="url(#linearGradient3683)" stroke-linejoin="round" fill-opacity="1" stroke-linecap="round" stroke-width="0.562" stroke-miterlimit="4" rx="3.266"/>
  <rect id="rect3509" width="4.714" height="38.613" x="16.699" y="238.81" ry="1.915" stroke-miterlimit="4" rx="2.357" stroke-dasharray="none" stroke-opacity="1" fill="url(#linearGradient3676)" stroke="url(#linearGradient3678)" stroke-linejoin="round" fill-opacity="1" stroke-linecap="round" stroke-width="0.478"/>
  <path sodipodi:nodetypes="css" id="path3505" d="m 57.090037,285.31806 c 0,-5.22635 -9.464405,-9.46804 -21.12591,-9.46804 -11.661504,0 -21.125912,4.24169 -21.125912,9.46804" inkscape:connector-curvature="0" stroke-dasharray="none" stroke-opacity="1" fill="none" stroke="url(#linearGradient3673)" stroke-linejoin="round" fill-opacity="0.86" stroke-linecap="round" stroke-width="0.557" stroke-miterlimit="4"/>
  <path sodipodi:nodetypes="css" id="path3698" d="m 57.094863,284.86572 c 0,-5.22636 -9.464408,-9.46804 -21.12591,-9.46804 -11.661505,0 -21.125913,4.24168 -21.125913,9.46804" inkscape:connector-curvature="0" stroke-dasharray="none" stroke-opacity="1" fill="none" stroke="url(#linearGradient3700)" stroke-linejoin="round" fill-opacity="0.86" stroke-linecap="round" stroke-width="0.557" stroke-miterlimit="4"/>
  <g transform="translate(-0.52027479,-0.85834846)" id="layer1-6" inkscape:label="Layer 1">
   <g transform="matrix(0.26458333,0,0,0.26458333,3.0264214,228.83229)" id="g3421">
    <path inkscape:connector-curvature="0" d="m 51.550386,200.57364 65.116284,-41.47286 c -40.528547,45.03374 -17.808598,35.54291 -0.3876,30.62015 l 17.44186,8.91473 -49.224807,19.76744 c -2.45899,11.11892 -9.75566,10.65305 -10.85271,-70.93023 -0.08213,-6.10739 50.263757,91.35564 56.976737,88.37209 -5.19086,-31.33235 -1.24573,-87.78871 -29.45736,-55.81395 -31.553247,-24.12251 -33.272117,13.28841 -49.612404,20.54263 z" id="path2643" sodipodi:nodetypes="cccccsccc" stroke-opacity="1" fill="#e7e7e7" fill-rule="evenodd" stroke="#9d9d9d" stroke-linejoin="miter" fill-opacity="1" stroke-linecap="butt" stroke-width="1"/>
    <path inkscape:connector-curvature="0" d="m 74.418599,203.67442 c 12.84128,-24.00526 13.7767,-53.3538 45.348841,-52.71318 1.95798,-5.3145 45.55789,28.88341 28.68217,19.37984 -12.03541,-6.77775 -51.945661,39.5482 -43.79845,49.61241 2.00255,-28.41785 -10.039591,-22.16338 -30.232561,-16.27907 z" id="path3415" sodipodi:nodetypes="ccscc" stroke-opacity="1" fill="#e7e7e7" fill-rule="evenodd" stroke="#b5b5b5" stroke-linejoin="miter" fill-opacity="1" stroke-linecap="butt" stroke-width="1"/>
    <path inkscape:connector-curvature="0" d="m 198.19855,188.94152 -28.80351,-17.5432 -41.23448,11.78275 -14.25016,-14.1393 -16.372515,22.51814 34.564205,7.59333 h 24.86196 l 14.25016,-19.89976 -7.57987,40.06135 z" id="path3417" stroke-opacity="1" fill="#e7e7e7" fill-rule="evenodd" stroke="#9d9d9d" stroke-linejoin="miter" fill-opacity="1" stroke-linecap="butt" stroke-width="0.727"/>
    <path inkscape:connector-curvature="0" id="path3419" d="m 175.33033,213.36012 -5.93529,-26.07033 -21.07944,-22.32578 2.8041,30.43435 -53.581817,12.05302 34.564207,7.59333 h 24.86196 l -38.46302,-14.861 45.13331,35.02259 z" sodipodi:nodetypes="cccccccccc" stroke-opacity="1" fill="#e7e7e7" fill-rule="evenodd" stroke="#9d9d9d" stroke-linejoin="miter" fill-opacity="1" stroke-linecap="butt" stroke-width="0.727"/>
   </g>
  </g>
  <path d="m 35.919071,249.19325 c -11.817608,0 -21.245654,-4.03417 -21.328334,-8.27398 v 44.57964 c 0,5.35376 9.510726,9.66756 21.328334,9.66756 11.817609,0 21.337117,-4.3138 21.337117,-9.66756 v -44.57964 c -0.08268,4.48515 -9.519508,8.27398 -21.337117,8.27398 z m -13.601312,-0.16939 c 1.809284,0 3.266422,1.45714 3.266422,3.26642 v 31.99689 c 0,1.80929 -1.457137,3.26643 -3.266422,3.26643 -1.809287,0 -3.257643,-1.45714 -3.257643,-3.26643 v -31.99689 c 0,-1.80928 1.448357,-3.26642 3.257643,-3.26642 z m 29.3539,0.5005 c 1.809287,0 3.266424,1.45714 3.266424,3.26642 v 31.99689 c 3e-6,1.80929 -1.457137,3.26643 -3.266424,3.26643 -1.809282,0 -3.266422,-1.45714 -3.266422,-3.26643 v -31.99689 c 0,-1.80928 1.457135,-3.26642 3.266422,-3.26642 z m -19.677562,2.97666 c 1.809287,0 3.266424,1.45713 3.266424,3.26642 v 31.99689 c 0,1.80929 -1.457137,3.26643 -3.266424,3.26643 -1.809285,0 -3.266423,-1.45714 -3.266423,-3.26643 v -31.99689 c 0,-1.80929 1.457136,-3.26642 3.266423,-3.26642 z m 9.922197,0.16683 c 1.809287,0 3.266424,1.45714 3.266424,3.26642 v 31.9969 c 3e-6,1.80928 -1.457137,3.26642 -3.266424,3.26642 -1.809281,0 -3.266421,-1.45714 -3.266421,-3.26642 v -31.9969 c 0,-1.80928 1.457134,-3.26642 3.266421,-3.26642 z" id="rect3385" sodipodi:nodetypes="cccsccccccsccccccsccccccsccccccsccc" inkscape:connector-curvature="0" stroke-miterlimit="4" stroke-dasharray="none" stroke-opacity="1" fill="url(#linearGradient3667)" stroke="none" stroke-linejoin="round" fill-opacity="1" stroke-linecap="round" stroke-width="0.529"/>
  <ellipse id="path3400" cx="36.05" cy="240.55" rx="21.13" ry="8.979" stroke-dasharray="none" stroke-opacity="1" fill="none" stroke="url(#linearGradient3559)" stroke-linejoin="round" fill-opacity="0.86" stroke-linecap="round" stroke-width="0.543" stroke-miterlimit="4"/>
  <rect ry="3.266" y="248.74" x="18.834" height="38.529" width="6.532" id="rect3432" stroke-miterlimit="4" rx="3.266" stroke-dasharray="none" stroke-opacity="1" fill="url(#linearGradient3661)" stroke="url(#linearGradient3663)" stroke-linejoin="round" fill-opacity="1" stroke-linecap="round" stroke-width="0.562"/>
  <rect id="rect3487" width="6.532" height="38.529" x="28.79" y="252.29" ry="3.266" stroke-miterlimit="4" rx="3.266" stroke-dasharray="none" stroke-opacity="1" fill="url(#linearGradient3656)" stroke="url(#linearGradient3658)" stroke-linejoin="round" fill-opacity="1" stroke-linecap="round" stroke-width="0.562"/>
  <rect ry="3.266" y="252.28" x="38.569" height="38.529" width="6.532" id="rect3493" stroke-miterlimit="4" rx="3.266" stroke-dasharray="none" stroke-opacity="1" fill="url(#linearGradient3651)" stroke="url(#linearGradient3653)" stroke-linejoin="round" fill-opacity="1" stroke-linecap="round" stroke-width="0.562"/>
  <rect id="rect3499" width="6.532" height="38.529" x="48.41" y="249.31" ry="3.266" stroke-miterlimit="4" rx="3.266" stroke-dasharray="none" stroke-opacity="1" fill="url(#linearGradient3646)" stroke="url(#linearGradient3648)" stroke-linejoin="round" fill-opacity="1" stroke-linecap="round" stroke-width="0.562"/>
  <path sodipodi:nodetypes="cccsccccccsccccccsccccccsccccccsccc" id="path3561" d="m 35.858029,248.59673 c -11.81761,0 -21.245656,-4.03417 -21.328335,-8.27399 v 44.57964 c 0,5.35376 9.510725,9.66756 21.328335,9.66756 11.817608,0 21.337115,-4.3138 21.337115,-9.66756 v -44.57964 c -0.08268,4.48516 -9.519507,8.27399 -21.337115,8.27399 z m -13.601315,-0.1694 c 1.809284,0 3.266423,1.45714 3.266423,3.26643 v 31.99689 c 0,1.80928 -1.457138,3.26642 -3.266423,3.26642 -1.809286,0 -3.257642,-1.45714 -3.257642,-3.26642 v -31.99689 c 0,-1.80929 1.448356,-3.26643 3.257642,-3.26643 z m 29.353901,0.5005 c 1.809288,0 3.266422,1.45714 3.266422,3.26643 v 31.99689 c 3e-6,1.80928 -1.457134,3.26642 -3.266422,3.26642 -1.809284,0 -3.266424,-1.45714 -3.266424,-3.26642 v -31.99689 c 0,-1.80929 1.457137,-3.26643 3.266424,-3.26643 z m -19.677561,2.97666 c 1.809284,0 3.266421,1.45714 3.266421,3.26642 v 31.9969 c 0,1.80928 -1.457137,3.26642 -3.266421,3.26642 -1.809284,0 -3.266424,-1.45714 -3.266424,-3.26642 v -31.9969 c 0,-1.80928 1.457137,-3.26642 3.266424,-3.26642 z m 9.922197,0.16684 c 1.809287,0 3.266421,1.45713 3.266421,3.26642 v 31.99689 c 3e-6,1.80929 -1.457134,3.26642 -3.266421,3.26642 -1.809285,0 -3.266424,-1.45713 -3.266424,-3.26642 v -31.99689 c 0,-1.80929 1.457137,-3.26642 3.266424,-3.26642 z" inkscape:connector-curvature="0" stroke-miterlimit="4" stroke-dasharray="none" stroke-opacity="1" fill="url(#linearGradient3643)" stroke="none" stroke-linejoin="round" fill-opacity="1" stroke-linecap="round" stroke-width="0.529"/>
  <path d="m 57.172717,285.4409 c 0,5.22636 -9.464408,9.46804 -21.12591,9.46804 -11.661504,0 -21.125912,-4.24168 -21.125912,-9.46804" id="path3446" sodipodi:nodetypes="css" inkscape:connector-curvature="0" stroke-dasharray="none" stroke-opacity="1" fill="none" stroke="url(#linearGradient3640)" stroke-linejoin="round" fill-opacity="0.86" stroke-linecap="round" stroke-width="0.557" stroke-miterlimit="4"/>
 </g>
</svg>
