<?xml version="1.0" encoding="UTF-8" standalone="no"?>
<!-- Created with Inkscape (http://www.inkscape.org/) -->

<svg
   xmlns:dc="http://purl.org/dc/elements/1.1/"
   xmlns:cc="http://creativecommons.org/ns#"
   xmlns:rdf="http://www.w3.org/1999/02/22-rdf-syntax-ns#"
   xmlns:svg="http://www.w3.org/2000/svg"
   xmlns="http://www.w3.org/2000/svg"
   xmlns:xlink="http://www.w3.org/1999/xlink"
   xmlns:sodipodi="http://sodipodi.sourceforge.net/DTD/sodipodi-0.dtd"
   xmlns:inkscape="http://www.inkscape.org/namespaces/inkscape"
   id="svg2"
   version="1.1"
   inkscape:version="0.48.4 r9939"
   width="265"
   height="265"
   sodipodi:docname="herramienta_insercion2.jpg">
  <metadata
     id="metadata8">
    <rdf:RDF>
      <cc:Work
         rdf:about="">
        <dc:format>image/svg+xml</dc:format>
        <dc:type
           rdf:resource="http://purl.org/dc/dcmitype/StillImage" />
        <dc:title></dc:title>
      </cc:Work>
    </rdf:RDF>
  </metadata>
  <defs
     id="defs6">
    <linearGradient
       id="linearGradient3823">
      <stop
         style="stop-color:#000000;stop-opacity:1;"
         offset="0"
         id="stop3825" />
      <stop
         style="stop-color:#ffffff;stop-opacity:1;"
         offset="1"
         id="stop3827" />
    </linearGradient>
    <linearGradient
       id="linearGradient3775">
      <stop
         id="stop3777"
         offset="0"
         style="stop-color:#606060;stop-opacity:1;" />
      <stop
         style="stop-color:#000000;stop-opacity:1;"
         offset="0.18920116"
         id="stop3781" />
      <stop
         id="stop3783"
         offset="0.63408095"
         style="stop-color:#ffffff;stop-opacity:1;" />
      <stop
         id="stop3779"
         offset="1"
         style="stop-color:#525252;stop-opacity:1;" />
    </linearGradient>
    <linearGradient
       id="linearGradient3757">
      <stop
         style="stop-color:#000000;stop-opacity:1;"
         offset="0"
         id="stop3759" />
      <stop
         style="stop-color:#ffffff;stop-opacity:1;"
         offset="1"
         id="stop3761" />
    </linearGradient>
    <linearGradient
       inkscape:collect="always"
       xlink:href="#linearGradient3757"
       id="linearGradient3763"
       x1="242.44167"
       y1="127.70507"
       x2="248.84721"
       y2="127.70507"
       gradientUnits="userSpaceOnUse"
       spreadMethod="reflect" />
    <linearGradient
       inkscape:collect="always"
       xlink:href="#linearGradient3775"
       id="linearGradient3773"
       x1="233.20345"
       y1="12.78649"
       x2="253.32251"
       y2="13.106152"
       gradientUnits="userSpaceOnUse"
       spreadMethod="reflect" />
    <linearGradient
       inkscape:collect="always"
       xlink:href="#linearGradient3775"
       id="linearGradient3787"
       gradientUnits="userSpaceOnUse"
       spreadMethod="reflect"
       x1="233.20345"
       y1="12.78649"
       x2="253.32251"
       y2="13.106152"
       gradientTransform="translate(0,60.416164)" />
    <filter
       inkscape:collect="always"
       id="filter3817"
       x="-0.17876578"
       width="1.3575316"
       y="-0.045077805"
       height="1.0901556">
      <feGaussianBlur
         inkscape:collect="always"
         stdDeviation="0.48421245"
         id="feGaussianBlur3819" />
    </filter>
    <linearGradient
       inkscape:collect="always"
       xlink:href="#linearGradient3823"
       id="linearGradient3829"
       x1="251.91689"
       y1="266.09189"
       x2="257.42993"
       y2="265.64612"
       gradientUnits="userSpaceOnUse"
       spreadMethod="reflect" />
    <filter
       height="1.3702221"
       y="-0.18511106"
       width="1.1274301"
       x="-0.06371503"
       id="filter3912"
       inkscape:collect="always">
      <feGaussianBlur
         id="feGaussianBlur3914"
         stdDeviation="2.1502207"
         inkscape:collect="always" />
    </filter>
    <filter
       color-interpolation-filters="sRGB"
       id="filter4852"
       inkscape:collect="always">
      <feGaussianBlur
         id="feGaussianBlur4854"
         stdDeviation="7.1823646"
         inkscape:collect="always" />
    </filter>
    <linearGradient
       spreadMethod="reflect"
       gradientUnits="userSpaceOnUse"
       y2="687.32593"
       x2="342.08762"
       y1="715.77527"
       x1="381.27206"
       id="linearGradient4335"
       xlink:href="#linearGradient4329"
       inkscape:collect="always" />
    <linearGradient
       y2="634.70148"
       x2="446.16159"
       y1="591.44611"
       x1="392.29388"
       spreadMethod="reflect"
       gradientUnits="userSpaceOnUse"
       id="linearGradient4327"
       xlink:href="#linearGradient4198"
       inkscape:collect="always" />
    <linearGradient
       y2="619.08148"
       x2="462.32776"
       y1="572.76764"
       x1="406.49393"
       gradientUnits="userSpaceOnUse"
       id="linearGradient4325"
       xlink:href="#linearGradient4150"
       inkscape:collect="always" />
    <linearGradient
       y2="642.67529"
       x2="426.50006"
       y1="615.58606"
       x1="392.94931"
       spreadMethod="reflect"
       gradientTransform="translate(21.190773,-20.972311)"
       gradientUnits="userSpaceOnUse"
       id="linearGradient4323"
       xlink:href="#linearGradient4104"
       inkscape:collect="always" />
    <linearGradient
       y2="634.70148"
       x2="446.16159"
       y1="591.44611"
       x1="392.29388"
       spreadMethod="reflect"
       gradientUnits="userSpaceOnUse"
       id="linearGradient4313"
       xlink:href="#linearGradient4198"
       inkscape:collect="always" />
    <linearGradient
       y2="619.08148"
       x2="462.32776"
       y1="572.76764"
       x1="406.49393"
       gradientUnits="userSpaceOnUse"
       id="linearGradient4311"
       xlink:href="#linearGradient4150"
       inkscape:collect="always" />
    <linearGradient
       y2="642.67529"
       x2="426.50006"
       y1="615.58606"
       x1="392.94931"
       spreadMethod="reflect"
       gradientTransform="translate(21.190773,-20.972311)"
       gradientUnits="userSpaceOnUse"
       id="linearGradient4309"
       xlink:href="#linearGradient4104"
       inkscape:collect="always" />
    <linearGradient
       y2="634.70148"
       x2="446.16159"
       y1="591.44611"
       x1="392.29388"
       spreadMethod="reflect"
       gradientUnits="userSpaceOnUse"
       id="linearGradient4299"
       xlink:href="#linearGradient4198"
       inkscape:collect="always" />
    <linearGradient
       y2="619.08148"
       x2="462.32776"
       y1="572.76764"
       x1="406.49393"
       gradientUnits="userSpaceOnUse"
       id="linearGradient4297"
       xlink:href="#linearGradient4150"
       inkscape:collect="always" />
    <linearGradient
       y2="642.67529"
       x2="426.50006"
       y1="615.58606"
       x1="392.94931"
       spreadMethod="reflect"
       gradientTransform="translate(21.190773,-20.972311)"
       gradientUnits="userSpaceOnUse"
       id="linearGradient4295"
       xlink:href="#linearGradient4104"
       inkscape:collect="always" />
    <linearGradient
       y2="634.70148"
       x2="446.16159"
       y1="591.44611"
       x1="392.29388"
       spreadMethod="reflect"
       gradientUnits="userSpaceOnUse"
       id="linearGradient4285"
       xlink:href="#linearGradient4198"
       inkscape:collect="always" />
    <linearGradient
       y2="619.08148"
       x2="462.32776"
       y1="572.76764"
       x1="406.49393"
       gradientUnits="userSpaceOnUse"
       id="linearGradient4283"
       xlink:href="#linearGradient4150"
       inkscape:collect="always" />
    <linearGradient
       y2="642.67529"
       x2="426.50006"
       y1="615.58606"
       x1="392.94931"
       spreadMethod="reflect"
       gradientTransform="translate(21.190773,-20.972311)"
       gradientUnits="userSpaceOnUse"
       id="linearGradient4281"
       xlink:href="#linearGradient4104"
       inkscape:collect="always" />
    <linearGradient
       y2="634.70148"
       x2="446.16159"
       y1="591.44611"
       x1="392.29388"
       spreadMethod="reflect"
       gradientUnits="userSpaceOnUse"
       id="linearGradient4271"
       xlink:href="#linearGradient4198"
       inkscape:collect="always" />
    <linearGradient
       y2="619.08148"
       x2="462.32776"
       y1="572.76764"
       x1="406.49393"
       gradientUnits="userSpaceOnUse"
       id="linearGradient4269"
       xlink:href="#linearGradient4150"
       inkscape:collect="always" />
    <linearGradient
       y2="642.67529"
       x2="426.50006"
       y1="615.58606"
       x1="392.94931"
       spreadMethod="reflect"
       gradientTransform="translate(21.190773,-20.972311)"
       gradientUnits="userSpaceOnUse"
       id="linearGradient4267"
       xlink:href="#linearGradient4104"
       inkscape:collect="always" />
    <linearGradient
       y2="634.70148"
       x2="446.16159"
       y1="591.44611"
       x1="392.29388"
       spreadMethod="reflect"
       gradientUnits="userSpaceOnUse"
       id="linearGradient4257"
       xlink:href="#linearGradient4198"
       inkscape:collect="always" />
    <linearGradient
       y2="619.08148"
       x2="462.32776"
       y1="572.76764"
       x1="406.49393"
       gradientUnits="userSpaceOnUse"
       id="linearGradient4255"
       xlink:href="#linearGradient4150"
       inkscape:collect="always" />
    <linearGradient
       y2="642.67529"
       x2="426.50006"
       y1="615.58606"
       x1="392.94931"
       spreadMethod="reflect"
       gradientTransform="translate(21.190773,-20.972311)"
       gradientUnits="userSpaceOnUse"
       id="linearGradient4253"
       xlink:href="#linearGradient4104"
       inkscape:collect="always" />
    <linearGradient
       y2="634.70148"
       x2="446.16159"
       y1="591.44611"
       x1="392.29388"
       spreadMethod="reflect"
       gradientUnits="userSpaceOnUse"
       id="linearGradient4243"
       xlink:href="#linearGradient4198"
       inkscape:collect="always" />
    <linearGradient
       y2="619.08148"
       x2="462.32776"
       y1="572.76764"
       x1="406.49393"
       gradientUnits="userSpaceOnUse"
       id="linearGradient4241"
       xlink:href="#linearGradient4150"
       inkscape:collect="always" />
    <linearGradient
       y2="642.67529"
       x2="426.50006"
       y1="615.58606"
       x1="392.94931"
       spreadMethod="reflect"
       gradientTransform="translate(21.190773,-20.972311)"
       gradientUnits="userSpaceOnUse"
       id="linearGradient4239"
       xlink:href="#linearGradient4104"
       inkscape:collect="always" />
    <linearGradient
       y2="634.70148"
       x2="446.16159"
       y1="591.44611"
       x1="392.29388"
       spreadMethod="reflect"
       gradientUnits="userSpaceOnUse"
       id="linearGradient4229"
       xlink:href="#linearGradient4198"
       inkscape:collect="always" />
    <linearGradient
       y2="619.08148"
       x2="462.32776"
       y1="572.76764"
       x1="406.49393"
       gradientUnits="userSpaceOnUse"
       id="linearGradient4227"
       xlink:href="#linearGradient4150"
       inkscape:collect="always" />
    <linearGradient
       y2="642.67529"
       x2="426.50006"
       y1="615.58606"
       x1="392.94931"
       spreadMethod="reflect"
       gradientTransform="translate(21.190773,-20.972311)"
       gradientUnits="userSpaceOnUse"
       id="linearGradient4225"
       xlink:href="#linearGradient4104"
       inkscape:collect="always" />
    <filter
       color-interpolation-filters="sRGB"
       id="filter4216"
       inkscape:collect="always">
      <feGaussianBlur
         id="feGaussianBlur4218"
         stdDeviation="0.74877705"
         inkscape:collect="always" />
    </filter>
    <filter
       color-interpolation-filters="sRGB"
       id="filter4192"
       inkscape:collect="always">
      <feGaussianBlur
         id="feGaussianBlur4194"
         stdDeviation="1.5756541"
         inkscape:collect="always" />
    </filter>
    <filter
       color-interpolation-filters="sRGB"
       id="filter4172"
       inkscape:collect="always">
      <feGaussianBlur
         id="feGaussianBlur4174"
         stdDeviation="0.76352325"
         inkscape:collect="always" />
    </filter>
    <linearGradient
       gradientTransform="translate(548.3871,-15.053763)"
       y2="200.80147"
       x2="729.52301"
       y1="301.33337"
       x1="647.25708"
       spreadMethod="reflect"
       gradientUnits="userSpaceOnUse"
       id="linearGradient4057"
       xlink:href="#linearGradient3931"
       inkscape:collect="always" />
    <linearGradient
       gradientTransform="translate(548.3871,-15.053763)"
       y2="243.80945"
       x2="611.95984"
       y1="180.99742"
       x1="648.24451"
       gradientUnits="userSpaceOnUse"
       id="linearGradient4054"
       xlink:href="#linearGradient3775-7"
       inkscape:collect="always" />
    <linearGradient
       gradientTransform="translate(548.3871,-15.053763)"
       y2="363.55899"
       x2="781.38153"
       y1="331.84805"
       x1="801.42047"
       gradientUnits="userSpaceOnUse"
       id="linearGradient4045"
       xlink:href="#linearGradient3881"
       inkscape:collect="always" />
    <linearGradient
       gradientTransform="translate(548.3871,-15.053763)"
       y2="327.12192"
       x2="759.73273"
       y1="301.20435"
       x1="783.12573"
       spreadMethod="reflect"
       gradientUnits="userSpaceOnUse"
       id="linearGradient4042"
       xlink:href="#linearGradient3891"
       inkscape:collect="always" />
    <linearGradient
       gradientTransform="translate(548.3871,-15.053763)"
       y2="380.93839"
       x2="577.17053"
       y1="392.98657"
       x1="592.05316"
       spreadMethod="reflect"
       gradientUnits="userSpaceOnUse"
       id="linearGradient4031"
       xlink:href="#linearGradient3945"
       inkscape:collect="always" />
    <linearGradient
       gradientTransform="translate(548.3871,-15.053763)"
       y2="294.48193"
       x2="648.67474"
       y1="474.40161"
       x1="513.97589"
       gradientUnits="userSpaceOnUse"
       id="linearGradient4028"
       xlink:href="#linearGradient3965"
       inkscape:collect="always" />
    <filter
       color-interpolation-filters="sRGB"
       id="filter3959"
       inkscape:collect="always">
      <feGaussianBlur
         id="feGaussianBlur3961"
         stdDeviation="1.7068273"
         inkscape:collect="always" />
    </filter>
    <filter
       color-interpolation-filters="sRGB"
       id="filter3915"
       inkscape:collect="always">
      <feGaussianBlur
         id="feGaussianBlur3917"
         stdDeviation="1.7037"
         inkscape:collect="always" />
    </filter>
    <filter
       color-interpolation-filters="sRGB"
       id="filter3873"
       inkscape:collect="always">
      <feGaussianBlur
         id="feGaussianBlur3875"
         stdDeviation="1.1742706"
         inkscape:collect="always" />
    </filter>
    <filter
       color-interpolation-filters="sRGB"
       id="filter3869"
       inkscape:collect="always">
      <feGaussianBlur
         id="feGaussianBlur3871"
         stdDeviation="1.3102725"
         inkscape:collect="always" />
    </filter>
    <filter
       color-interpolation-filters="sRGB"
       height="1.198561"
       y="-0.099280484"
       width="1.3937751"
       x="-0.19688752"
       id="filter3829"
       inkscape:collect="always">
      <feGaussianBlur
         id="feGaussianBlur3831"
         stdDeviation="1.5081696"
         inkscape:collect="always" />
    </filter>
    <filter
       color-interpolation-filters="sRGB"
       id="filter3769"
       inkscape:collect="always">
      <feGaussianBlur
         id="feGaussianBlur3771"
         stdDeviation="1.7077455"
         inkscape:collect="always" />
    </filter>
    <linearGradient
       id="linearGradient3775-7">
      <stop
         id="stop3777-9"
         offset="0"
         style="stop-color:#8f8f8f;stop-opacity:1;" />
      <stop
         id="stop3779-8"
         offset="1"
         style="stop-color:#5f5f5f;stop-opacity:1;" />
    </linearGradient>
    <linearGradient
       id="linearGradient3881">
      <stop
         id="stop3883"
         offset="0"
         style="stop-color:#b4b4b4;stop-opacity:1;" />
      <stop
         id="stop3885"
         offset="1"
         style="stop-color:#515151;stop-opacity:1;" />
    </linearGradient>
    <linearGradient
       id="linearGradient3891">
      <stop
         id="stop3893"
         offset="0"
         style="stop-color:#797979;stop-opacity:1;" />
      <stop
         id="stop3895"
         offset="1"
         style="stop-color:#303030;stop-opacity:1;" />
    </linearGradient>
    <linearGradient
       id="linearGradient3931">
      <stop
         id="stop3933"
         offset="0"
         style="stop-color:#000000;stop-opacity:1;" />
      <stop
         style="stop-color:#595959;stop-opacity:1;"
         offset="0.41748741"
         id="stop3941" />
      <stop
         style="stop-color:#2c2c2c;stop-opacity:1;"
         offset="0.725106"
         id="stop3939" />
      <stop
         id="stop3935"
         offset="1"
         style="stop-color:#adadad;stop-opacity:1;" />
    </linearGradient>
    <linearGradient
       id="linearGradient3945">
      <stop
         id="stop3947"
         offset="0"
         style="stop-color:#000000;stop-opacity:1;" />
      <stop
         id="stop3949"
         offset="1"
         style="stop-color:#727272;stop-opacity:1;" />
    </linearGradient>
    <linearGradient
       id="linearGradient3965">
      <stop
         id="stop3967"
         offset="0"
         style="stop-color:#dedede;stop-opacity:1;" />
      <stop
         id="stop3969"
         offset="1"
         style="stop-color:#ffffff;stop-opacity:0;" />
    </linearGradient>
    <linearGradient
       id="linearGradient4104">
      <stop
         id="stop4106"
         offset="0"
         style="stop-color:#dbdbdb;stop-opacity:0.62804878;" />
      <stop
         id="stop4108"
         offset="1"
         style="stop-color:#383838;stop-opacity:0;" />
    </linearGradient>
    <linearGradient
       id="linearGradient4150">
      <stop
         id="stop4152"
         offset="0"
         style="stop-color:#d0d0d0;stop-opacity:0;" />
      <stop
         style="stop-color:#ffffff;stop-opacity:1;"
         offset="0.16771533"
         id="stop4158" />
      <stop
         id="stop4160"
         offset="0.58385766"
         style="stop-color:#ffffff;stop-opacity:0.49803922;" />
      <stop
         style="stop-color:#444444;stop-opacity:0.24705882;"
         offset="0.79192883"
         id="stop4162" />
      <stop
         id="stop4154"
         offset="1"
         style="stop-color:#000000;stop-opacity:0.73780489;" />
    </linearGradient>
    <linearGradient
       id="linearGradient4198">
      <stop
         id="stop4200"
         offset="0"
         style="stop-color:#000000;stop-opacity:0;" />
      <stop
         style="stop-color:#000000;stop-opacity:1;"
         offset="0.25410977"
         id="stop4206" />
      <stop
         id="stop4202"
         offset="1"
         style="stop-color:#383838;stop-opacity:0.43902439;" />
    </linearGradient>
    <linearGradient
       id="linearGradient4329">
      <stop
         id="stop4331"
         offset="0"
         style="stop-color:#000000;stop-opacity:1;" />
      <stop
         id="stop4333"
         offset="1"
         style="stop-color:#6a6a6a;stop-opacity:1;" />
    </linearGradient>
    <linearGradient
       inkscape:collect="always"
       xlink:href="#linearGradient3757"
       id="linearGradient4388"
       gradientUnits="userSpaceOnUse"
       spreadMethod="reflect"
       x1="242.44167"
       y1="127.70507"
       x2="248.84721"
       y2="127.70507" />
    <linearGradient
       inkscape:collect="always"
       xlink:href="#linearGradient3775"
       id="linearGradient4390"
       gradientUnits="userSpaceOnUse"
       spreadMethod="reflect"
       x1="233.20345"
       y1="12.78649"
       x2="253.32251"
       y2="13.106152" />
    <linearGradient
       inkscape:collect="always"
       xlink:href="#linearGradient3775"
       id="linearGradient4392"
       gradientUnits="userSpaceOnUse"
       gradientTransform="translate(0,60.416164)"
       spreadMethod="reflect"
       x1="233.20345"
       y1="12.78649"
       x2="253.32251"
       y2="13.106152" />
    <linearGradient
       inkscape:collect="always"
       xlink:href="#linearGradient3823"
       id="linearGradient4394"
       gradientUnits="userSpaceOnUse"
       spreadMethod="reflect"
       x1="251.91689"
       y1="266.09189"
       x2="257.42993"
       y2="265.64612" />
    <linearGradient
       inkscape:collect="always"
       xlink:href="#linearGradient3823"
       id="linearGradient4399"
       gradientUnits="userSpaceOnUse"
       spreadMethod="reflect"
       x1="251.91689"
       y1="266.09189"
       x2="257.42993"
       y2="265.64612"
       gradientTransform="matrix(0.77420211,-0.42005053,0.42005053,0.77420211,-351.7212,130.28866)" />
    <linearGradient
       inkscape:collect="always"
       xlink:href="#linearGradient3775"
       id="linearGradient4402"
       gradientUnits="userSpaceOnUse"
       gradientTransform="matrix(0.88081289,0,0,0.88081289,-371.2833,0.00208147)"
       spreadMethod="reflect"
       x1="233.20345"
       y1="12.78649"
       x2="253.32251"
       y2="13.106152" />
    <linearGradient
       inkscape:collect="always"
       xlink:href="#linearGradient3775"
       id="linearGradient4405"
       gradientUnits="userSpaceOnUse"
       spreadMethod="reflect"
       x1="233.20345"
       y1="12.78649"
       x2="253.32251"
       y2="13.106152"
       gradientTransform="matrix(0.88081289,0,0,0.88081289,-371.2833,-53.213255)" />
    <linearGradient
       inkscape:collect="always"
       xlink:href="#linearGradient3757"
       id="linearGradient4408"
       gradientUnits="userSpaceOnUse"
       spreadMethod="reflect"
       x1="242.44167"
       y1="127.70507"
       x2="248.84721"
       y2="127.70507"
       gradientTransform="matrix(0.77420211,-0.42005052,0.42005052,0.77420211,-351.7212,130.28866)" />
    <filter
       inkscape:collect="always"
       id="filter4419">
      <feGaussianBlur
         inkscape:collect="always"
         stdDeviation="2.626641"
         id="feGaussianBlur4421" />
    </filter>
  </defs>
  <sodipodi:namedview
     pagecolor="#ffffff"
     bordercolor="#666666"
     borderopacity="1"
     objecttolerance="10"
     gridtolerance="10"
     guidetolerance="10"
     inkscape:pageopacity="0"
     inkscape:pageshadow="2"
     inkscape:window-width="1680"
     inkscape:window-height="1027"
     id="namedview4"
     showgrid="false"
     inkscape:zoom="2.06"
     inkscape:cx="132.5"
     inkscape:cy="132.5"
     inkscape:window-x="-2"
     inkscape:window-y="-5"
     inkscape:window-maximized="1"
     inkscape:current-layer="svg2" />
  <path
     style="fill:#000000;fill-opacity:1;stroke:none;filter:url(#filter4419)"
     d="m 81.384405,28.562803 -25.96875,14.125 6.4375,11.875 3.96875,-2.15625 18.9375,34.875 -3.96875,2.15625 6.4375,11.906247 3.96875,-2.156247 71.437505,131.656247 -0.0625,0.0313 21.84375,18.90625 -3.71875,-28.75 -71.4375,-131.656247 3.96875,-2.15625 -6.46875,-11.875 -3.96875,2.15625 -18.906255,-34.875 3.9375,-2.15625 -6.4375,-11.90625 z"
     id="rect4376"
     inkscape:connector-curvature="0" />
  <g
     id="g3831"
     transform="matrix(0.77420211,-0.42005053,0.42005053,0.77420211,-119.19693,130.7741)">
    <rect
       y="6.0735826"
       x="237.50905"
       height="243.26297"
       width="23.335344"
       id="rect2987"
       style="fill:url(#linearGradient3763);fill-opacity:1;stroke:#000000;stroke-width:0.30000001;stroke-linecap:round;stroke-linejoin:round;stroke-miterlimit:4;stroke-opacity:1;stroke-dasharray:none" />
    <rect
       y="3.5162847"
       x="232.39445"
       height="15.343788"
       width="33.564537"
       id="rect3765"
       style="fill:url(#linearGradient3773);fill-opacity:1;stroke:#000000;stroke-width:0.30000001;stroke-linecap:round;stroke-linejoin:round;stroke-miterlimit:4;stroke-opacity:1;stroke-dasharray:none" />
    <rect
       style="fill:url(#linearGradient3787);fill-opacity:1;stroke:#000000;stroke-width:0.30000001;stroke-linecap:round;stroke-linejoin:round;stroke-miterlimit:4;stroke-opacity:1;stroke-dasharray:none"
       id="rect3785"
       width="33.564537"
       height="15.343788"
       x="232.39445"
       y="63.932449" />
    <path
       sodipodi:nodetypes="cccc"
       inkscape:connector-curvature="0"
       id="path3789"
       d="m 237.42952,249.33349 23.41794,0.003 -11.8321,30.69064 z"
       style="fill:url(#linearGradient3829);fill-opacity:1;stroke:none" />
    <path
       sodipodi:nodetypes="ccccc"
       inkscape:connector-curvature="0"
       id="path3791"
       d="m 250.52006,249.10104 -0.96583,25.78009 -1.48588,0 -4.04903,-25.7058 z"
       style="fill:#c4c4c4;fill-opacity:1;stroke:none;filter:url(#filter3817)" />
    <path
       style="fill:#c4c4c4;fill-opacity:1;stroke:none;filter:url(#filter3817)"
       d="M 259.06389,249.47251 250,275.40119 l -0.81724,0 6.87222,-25.92868 z"
       id="path3821"
       inkscape:connector-curvature="0"
       sodipodi:nodetypes="ccccc" />
  </g>
  <g
     id="g4322"
     transform="translate(5.9201902,11.283886)">
    <path
       transform="matrix(0.2991432,0.03158076,-0.03158076,0.2991432,-20.987623,189.44313)"
       inkscape:connector-curvature="0"
       id="path4424"
       d="m 527.38577,-609.69935 c -33.7208,0.23347 -69.7314,6.25429 -99.0937,21.03125 l 0.3124,3.9375 c 52.6936,-7.39391 109.3895,-20.53159 158.8438,23.78125 0.8078,0.72383 1.6127,1.47113 2.375,2.1875 0.0105,0.01 0.0208,0.0213 0.0312,0.0313 1.3267,1.26307 2.5801,2.56584 3.8126,3.875 7.0956,8.45351 13.0332,18.58541 17.4687,30.65625 3.6605,15.97258 -0.3093,33.53925 -15.75,51.6875 -2.5571,3.00557 -6.1322,7.38343 -1.1563,11.71875 l -139.0312,181.4375 -9.2188,-7.1875 c -4.4163,-1.6346 -8.8338,-1.06166 -13.25,1.71875 -32.1132,20.1095 -47.702,44.46301 -64.9062,68.40625 l -25.1562,47.1875 -2.4376,1.09375 -8.5312,10.65625 0.5312,3.03125 -6.4687,8.96875 -3,0.59375 -8.6875,10.15625 0.2188,2.6875 -6.9063,8.875 -2.625,1.3438 -6.9375,8.0937 -0.5312,3.9375 -6.1563,8.625 -3.6563,1 -6.1562,7.4062 -0.625,4 -7.3438,8.9688 -2.3124,1.5938 -6.25,7.5312 -0.75,4.6562 -5.5313,5.6563 -1.8437,1.4375 -7.4376,9.9375 -0.8437,4.25 -5.2813,7.0625 -3.6874,1 -8.0938,9.3438 -0.0312,4.5937 -6,7.3125 -3.75,1.5625 -7.2188,8.875 0.0625,3.4063 c -24.3249,16.1262 -49.71499,36.6513 -71.87499,58.4062 -5.7363,7.729 -4.90644,14.0179 -2.78125,20 19.08265,22.3193 39.35995,44.2311 74.06254,61.34375 9.8865,4.3446 18.1851,0.048 25.875,-7.4688 16.4275,-27.11515 25.8008,-55.38315 37.3437,-83.31245 l 4.5937,-2.3437 5.5,-7.3126 1.4063,-4.1562 3.4375,-9.1875 4.125,-0.0313 8.1875,-8.5312 0.3437,-4.0938 6.4063,-8.5312 2.7813,-1.2188 7.625,-10.25 1,-4.125 6,-6.25 3.375,-1.875 5.0624,-6.0937 0.7188,-3.625 5.9688,-8.5937 2.9374,-1.6563 6.7813,-8.125 0.9063,-4.1875 4.875,-6.8125 4.375,-2.5 6.6874,-8.5313 0,-3.8124 6.5938,-7.75 2.5625,-0.9063 8.5313,-10.8437 0.4687,-3.5938 3.2187,-5.8125 3,-1.25 9.6876,-10.9687 0.4374,-3.7188 c 33.7818,-28.25665 66.7172,-59.16186 91.375,-116.09375 0.9359,-5.3095 -0.4112,-10.04044 -3,-14.46875 l -8,-6.25 139.1876,-181.09375 -3.0313,-2.53125 0.125,-0.15625 1.5625,1.21875 c 0.888,0.74783 1.8675,1.44987 3.4062,1.53125 0.0105,6.9e-4 0.0208,-6.4e-4 0.0313,0 0.3335,0.0158 0.7032,0.0181 1.0937,-0.0313 0.3452,-0.0436 0.7284,-0.1467 1.125,-0.25 0.0597,-0.0155 0.1267,-0.0143 0.1876,-0.0313 0.2265,-0.0628 0.4738,-0.1345 0.7187,-0.21875 0.5123,-0.17883 1.0891,-0.40698 1.6875,-0.6875 0.8786,-0.41183 1.7514,-0.81405 2.625,-1.21875 l 71.8438,7.4375 5.4062,4.15625 0,19.09375 -0.5938,12.90625 c 0.1986,-0.22863 0.3953,-0.45888 0.5938,-0.6875 l 0,0.375 46.0312,32.03125 1.8438,0 66.1562,-83.25 -1.2187,-4.875 -43.5937,-32.9375 -1.1876,0.34375 c 0.1839,-0.31517 0.3802,-0.62185 0.5626,-0.9375 l -22.6876,7.375 -5.9687,1.75 -27.75,-21.625 c -6.1065,-2.43112 -7.1428,-9.91349 -9.4375,-16.15625 -0.6592,-11.07036 -7.923,-12.88321 -12.1875,-18.90625 l -74.4063,-54.90625 c -16.7843,-12.38192 -56.3634,-21.61267 -99.7187,-21.3125 z"
       style="fill:#000000;fill-opacity:1;stroke:#444444;stroke-width:1px;stroke-linecap:butt;stroke-linejoin:miter;stroke-opacity:1;filter:url(#filter4852)" />
    <g
       transform="matrix(0.2991432,0.03158076,-0.03158076,0.2991432,-173.53179,-60.006572)"
       id="g4372">
      <path
         style="fill:url(#linearGradient4057);fill-opacity:1;stroke:#444444;stroke-width:1px;stroke-linecap:butt;stroke-linejoin:miter;stroke-opacity:1"
         d="m 1017.9527,150.00704 0.3049,3.96387 c 52.6935,-7.39391 109.4053,-20.52965 158.8596,23.78319 25.8499,23.16242 36.5324,54.80404 7.9277,88.4247 -2.6498,3.1145 -6.4237,7.7097 -0.6098,12.19651 l 28.052,21.6488 c 1.6339,1.261 3.4453,2.54905 8.2326,0.30492 13.3095,-6.23902 26.0192,-11.75242 39.0288,-13.72108 4.4171,0.17944 9.0393,0.70059 15.8555,4.87861 l 25.0028,19.2095 0,31.71093 46.0419,32.01583 1.8294,0 66.1661,-83.24118 -1.2196,-4.8786 -43.6026,-32.93058 -29.2716,8.53756 -27.747,-21.6488 c -6.1065,-2.43112 -7.1576,-9.91762 -9.4523,-16.16038 -0.6592,-11.07036 -7.9321,-12.88155 -12.1966,-18.90459 l -74.3987,-54.88429 c -29.8389,-22.01231 -131.6891,-34.08082 -198.8031,-0.30492 z"
         id="path2987"
         inkscape:connector-curvature="0"
         sodipodi:nodetypes="ccssssscccccccccccccsc" />
      <path
         sodipodi:nodetypes="cccscsscccccccccc"
         inkscape:connector-curvature="0"
         id="path3757"
         d="m 1017.9527,150.00704 0.3049,3.96387 c 52.6935,-7.39391 109.4053,-20.52965 158.8596,23.78319 25.8499,23.16242 27.9936,42.43101 33.8453,62.81203 4.9296,17.16967 -12.7534,43.33633 -15.8555,44.82217 l 17.3801,14.63581 c 1.5787,1.32948 3.4453,2.54905 8.2326,0.30492 13.3095,-6.23902 26.0192,-11.75242 39.0288,-13.72108 4.4171,0.17944 9.0393,0.70059 15.8555,4.87861 l 21.6488,16.46529 c 12.2256,-7.22373 16.4101,-13.46341 21.039,-22.56355 l -22.8685,-19.81933 0.9148,-24.0881 c -6.1065,-2.43112 -65.091,19.65892 -67.3858,13.41616 -0.6592,-11.07036 -1.224,-24.77315 -5.4884,-30.79619 -7.1896,-18.47841 -10.9516,-37.33767 -32.0158,-54.27446 -29.8468,-28.8585 -96.0144,-42.61838 -173.4954,-19.81934 z"
         style="fill:url(#linearGradient4054);fill-opacity:1;stroke:none;filter:url(#filter3873)" />
      <path
         style="fill:#ffffff;fill-opacity:0.95850621;stroke:none;filter:url(#filter3769)"
         d="m 1221.0246,208.8552 c 2.9079,10.89759 16.9016,6.46269 10.672,-4.57369 -35.2205,-54.13272 -89.6195,-65.27915 -148.1876,-67.0808 64.0616,3.94253 116.3418,20.77803 137.5156,71.65449 z"
         id="path3759"
         inkscape:connector-curvature="0"
         sodipodi:nodetypes="cccc" />
      <path
         sodipodi:nodetypes="cccc"
         inkscape:connector-curvature="0"
         id="path3773"
         d="m 1278.0433,213.12398 c 2.9079,10.89759 16.9016,6.46269 10.6719,-4.57369 -37.665,-42.97947 -104.6501,-72.49719 -162.5185,-77.44783 61.605,10.49374 116.6643,43.09175 151.8466,82.02152 z"
         style="fill:#ffffff;fill-opacity:0.95850621;stroke:none;filter:url(#filter3769)" />
      <path
         sodipodi:type="arc"
         style="fill:#ffffff;fill-opacity:0.95850621;stroke:none;filter:url(#filter3829)"
         id="path3783"
         sodipodi:cx="680.26031"
         sodipodi:cy="248.75935"
         sodipodi:rx="7.3179059"
         sodipodi:ry="19.057047"
         d="m 687.57822,248.75935 c 0,10.52492 -3.27634,19.05705 -7.31791,19.05705 -4.04156,0 -7.3179,-8.53213 -7.3179,-19.05705 0,-10.52491 3.27634,-19.05704 7.3179,-19.05704 4.04157,0 7.31791,8.53213 7.31791,19.05704 z"
         transform="matrix(0.94872103,0.31611455,-0.31611455,0.94872103,665.56555,-215.50834)" />
      <path
         style="fill:#363636;fill-opacity:0.95850621;stroke:#000000;stroke-width:0.30000001;stroke-linecap:butt;stroke-linejoin:miter;stroke-miterlimit:4;stroke-opacity:1;stroke-dasharray:none"
         d="m 1018.2576,153.05617 c 58.4804,-13.60264 157.5476,-18.93722 184.4723,67.08081 l 3.354,-11.58669 c -44.7448,-78.08221 -114.9479,-68.65154 -185.082,-59.45798 z"
         id="path3833"
         inkscape:connector-curvature="0"
         sodipodi:nodetypes="ccccc" />
      <path
         style="fill:#fcfcfc;fill-opacity:0.95850621;stroke:none;filter:url(#filter3869)"
         d="m 1307.9247,245.13982 28.6618,21.03898 c -0.048,4.72705 -3.957,8.16717 -8.8424,11.28177 l -25.9176,-19.81933 c -11.6726,-8.87187 -4.8154,-18.11512 6.0982,-12.50142 z"
         id="path3835"
         inkscape:connector-curvature="0"
         sodipodi:nodetypes="ccccc" />
      <path
         sodipodi:nodetypes="ccccc"
         inkscape:connector-curvature="0"
         id="path3877"
         d="m 1372.5662,272.88688 34.4552,23.17337 c 0.7469,2.34192 -10.139,15.7363 -15.8555,21.34389 l -35.3699,-29.27163 c -11.6725,-8.87187 5.8566,-20.85933 16.7702,-15.24563 z"
         style="fill:#fcfcfc;fill-opacity:0.95850621;stroke:none;filter:url(#filter3869)" />
      <path
         style="fill:url(#linearGradient4045);fill-opacity:1;stroke:none;filter:url(#filter3915)"
         d="m 1310.364,332.34486 42.078,34.45514 27.7471,-35.67479 -43.9075,-30.79619 z"
         id="path3879"
         inkscape:connector-curvature="0"
         sodipodi:nodetypes="ccccc" />
      <path
         style="fill:url(#linearGradient4042);fill-opacity:1;stroke:#3e3e3e;stroke-width:1px;stroke-linecap:butt;stroke-linejoin:miter;stroke-opacity:1"
         d="m 1301.5216,310.08623 c 17.2831,-14.02364 28.7569,-30.9519 39.6386,-48.17621 l 28.052,-9.14738 c -18.2493,31.59055 -43.8461,60.73195 -69.2152,89.94926 z"
         id="path3889"
         inkscape:connector-curvature="0"
         sodipodi:nodetypes="ccccc" />
      <path
         style="fill:url(#linearGradient4031);fill-opacity:1;stroke:#000000;stroke-width:1px;stroke-linecap:butt;stroke-linejoin:miter;stroke-opacity:1"
         d="m 1184.5573,277.03135 29.2553,24.46808 -143.0851,186.17021 -30.1888,-22.72067 z"
         id="path3943"
         inkscape:connector-curvature="0"
         sodipodi:nodetypes="ccccc" />
      <path
         style="fill:url(#linearGradient4028);fill-opacity:1;stroke:none;filter:url(#filter3959)"
         d="m 1189.351,282.44022 7.6305,4.41767 -144.1767,187.14859 -5.6225,-4.41767 z"
         id="path3953"
         inkscape:connector-curvature="0" />
      <path
         inkscape:connector-curvature="0"
         id="path3963"
         d="m 1201.8008,290.87396 9.6385,7.22891 -144.1767,187.14859 -8.0321,-9.23695 z"
         style="fill:#cdcdcd;fill-opacity:1;stroke:none;filter:url(#filter3959)"
         sodipodi:nodetypes="ccccc" />
      <path
         style="fill:none;stroke:#dddddd;stroke-width:4;stroke-linecap:round;stroke-linejoin:round;stroke-miterlimit:4;stroke-opacity:0.32780086;stroke-dasharray:none;filter:url(#filter3912)"
         d="m 1218.8585,298.64132 c 10.7244,-4.97919 20.748,-9.72418 32.0805,-12.87892 12.6737,-4.22339 18.6728,-2.70676 24.0397,1.31125 l 26.2252,20.10594"
         id="path4059"
         inkscape:connector-curvature="0"
         sodipodi:nodetypes="cccc" />
      <g
         id="g4337"
         transform="translate(551.72414,-20.689655)">
        <path
           sodipodi:nodetypes="cccccccccccccccccccccccccccccccccccccccccccccccccccccccccccccccccccccccccc"
           inkscape:connector-curvature="0"
           id="path4100"
           d="m 483.90805,472.85057 46.99893,36.67314 c 2.58884,4.42831 3.93701,9.16679 3.00107,14.47629 -24.65786,56.93189 -57.59752,87.83526 -91.37931,116.09195 l -0.42819,3.70138 -9.69209,10.98806 -3.01058,1.24647 -3.2142,5.80612 -0.46814,3.58529 -8.53315,10.87007 -2.54244,0.90584 -6.59397,7.72436 0,3.82888 -6.71197,8.52363 -4.37313,2.49297 -4.85081,6.81853 -0.90583,4.17903 -6.80902,8.13351 -2.92304,1.65563 -5.9812,8.61118 -0.6908,3.61383 -5.08488,6.07826 -3.36073,1.89921 -6.00974,6.23431 -0.99338,4.14097 -7.62731,10.22684 -2.767,1.23696 -6.4284,8.53316 -0.34065,4.08198 -8.19251,8.54267 -4.11052,0.019 -3.44828,9.19541 -1.39301,4.16 -5.50354,7.31522 -4.5977,2.31788 c -11.54297,27.9293 -20.92878,56.21812 -37.35632,83.33333 -7.68984,7.51702 -15.97563,11.81592 -25.86207,7.47127 -34.70258,-17.11271 -54.9677,-39.0379 -74.0504,-61.35724 -2.12519,-5.98201 -2.95978,-12.25082 2.77652,-19.97982 22.16002,-21.75493 47.53321,-42.30794 71.85811,-58.4342 l -0.059,-3.4007 7.21817,-8.87379 3.76037,-1.56809 5.9907,-7.29619 0.0286,-4.58818 8.09545,-9.35145 3.69186,-1.01241 5.26947,-7.06211 0.85636,-4.24755 7.44272,-9.94519 1.85164,-1.41204 5.52257,-5.67862 0.75931,-4.64718 6.22478,-7.53977 2.33882,-1.59664 7.32472,-8.96133 0.6223,-3.99445 6.15627,-7.39324 3.67284,-1.00288 6.13724,-8.62069 0.52523,-3.93545 6.96506,-8.11449 2.61095,-1.32451 6.89655,-8.8833 -0.21504,-2.708 8.6892,-10.14121 3.00107,-0.59374 6.4874,-8.96133 -0.55569,-3.02961 8.54267,-10.66644 2.44538,-1.09043 25.14083,-47.18543 c 17.2042,-23.94324 32.7989,-48.30034 64.91208,-68.40984 4.41628,-2.78041 8.83256,-3.33971 13.24884,-1.70511 z"
           style="fill:url(#linearGradient4335);fill-opacity:1;stroke:#272727;stroke-width:0.40000001;stroke-linecap:butt;stroke-linejoin:miter;stroke-miterlimit:4;stroke-opacity:1;stroke-dasharray:none" />
        <g
           transform="translate(-20.734066,22.25863)"
           id="g4220">
          <path
             style="fill:url(#linearGradient4225);fill-opacity:1;stroke:none;filter:url(#filter4192)"
             d="m 393.44929,585.76608 58.11078,46.96924 9.17539,-11.14154 -58.5477,-47.62462 z"
             id="path4102"
             inkscape:connector-curvature="0" />
          <path
             style="fill:none;stroke:url(#linearGradient4227);stroke-width:1px;stroke-linecap:butt;stroke-linejoin:miter;stroke-opacity:1;filter:url(#filter4172)"
             d="M 404.37237,574.843 460.517,620.50147"
             id="path4132"
             inkscape:connector-curvature="0"
             sodipodi:nodetypes="cc" />
          <path
             style="fill:url(#linearGradient4229);fill-opacity:1;stroke:none;filter:url(#filter4216)"
             d="m 448.72007,629.23993 -1.0923,1.96616 c -19.28367,-12.90301 -37.05568,-27.31766 -54.6154,-41.94462 l 2.18462,-2.18462 c 16.72168,13.66013 34.33479,28.34436 53.52308,42.16308 z"
             id="path4196"
             inkscape:connector-curvature="0"
             sodipodi:nodetypes="ccccc" />
        </g>
        <g
           id="g4231"
           transform="translate(-41.773045,44.212347)">
          <path
             inkscape:connector-curvature="0"
             id="path4233"
             d="m 393.44929,585.76608 58.11078,46.96924 9.17539,-11.14154 -58.5477,-47.62462 z"
             style="fill:url(#linearGradient4239);fill-opacity:1;stroke:none;filter:url(#filter4192)" />
          <path
             sodipodi:nodetypes="cc"
             inkscape:connector-curvature="0"
             id="path4235"
             d="M 404.37237,574.843 460.517,620.50147"
             style="fill:none;stroke:url(#linearGradient4241);stroke-width:1px;stroke-linecap:butt;stroke-linejoin:miter;stroke-opacity:1;filter:url(#filter4172)" />
          <path
             sodipodi:nodetypes="ccccc"
             inkscape:connector-curvature="0"
             id="path4237"
             d="m 448.72007,629.23993 -1.0923,1.96616 c -19.28367,-12.90301 -37.05568,-27.31766 -54.6154,-41.94462 l 2.18462,-2.18462 c 16.72168,13.66013 34.33479,28.34436 53.52308,42.16308 z"
             style="fill:url(#linearGradient4243);fill-opacity:1;stroke:none;filter:url(#filter4216)" />
        </g>
        <g
           transform="translate(-57.018682,66.77589)"
           id="g4245">
          <path
             style="fill:url(#linearGradient4253);fill-opacity:1;stroke:none;filter:url(#filter4192)"
             d="m 393.44929,585.76608 58.11078,46.96924 9.17539,-11.14154 -58.5477,-47.62462 z"
             id="path4247"
             inkscape:connector-curvature="0" />
          <path
             style="fill:none;stroke:url(#linearGradient4255);stroke-width:1px;stroke-linecap:butt;stroke-linejoin:miter;stroke-opacity:1;filter:url(#filter4172)"
             d="M 404.37237,574.843 460.517,620.50147"
             id="path4249"
             inkscape:connector-curvature="0"
             sodipodi:nodetypes="cc" />
          <path
             style="fill:url(#linearGradient4257);fill-opacity:1;stroke:none;filter:url(#filter4216)"
             d="m 448.72007,629.23993 -1.0923,1.96616 c -19.28367,-12.90301 -37.05568,-27.31766 -54.6154,-41.94462 l 2.18462,-2.18462 c 16.72168,13.66013 34.33479,28.34436 53.52308,42.16308 z"
             id="path4251"
             inkscape:connector-curvature="0"
             sodipodi:nodetypes="ccccc" />
        </g>
        <g
           id="g4259"
           transform="translate(-74.703621,91.168909)">
          <path
             inkscape:connector-curvature="0"
             id="path4261"
             d="m 393.44929,585.76608 58.11078,46.96924 9.17539,-11.14154 -58.5477,-47.62462 z"
             style="fill:url(#linearGradient4267);fill-opacity:1;stroke:none;filter:url(#filter4192)" />
          <path
             sodipodi:nodetypes="cc"
             inkscape:connector-curvature="0"
             id="path4263"
             d="M 404.37237,574.843 460.517,620.50147"
             style="fill:none;stroke:url(#linearGradient4269);stroke-width:1px;stroke-linecap:butt;stroke-linejoin:miter;stroke-opacity:1;filter:url(#filter4172)" />
          <path
             sodipodi:nodetypes="ccccc"
             inkscape:connector-curvature="0"
             id="path4265"
             d="m 448.72007,629.23993 -1.0923,1.96616 c -19.28367,-12.90301 -37.05568,-27.31766 -54.6154,-41.94462 l 2.18462,-2.18462 c 16.72168,13.66013 34.33479,28.34436 53.52308,42.16308 z"
             style="fill:url(#linearGradient4271);fill-opacity:1;stroke:none;filter:url(#filter4216)" />
        </g>
        <g
           transform="translate(-93.303298,111.29315)"
           id="g4273">
          <path
             style="fill:url(#linearGradient4281);fill-opacity:1;stroke:none;filter:url(#filter4192)"
             d="m 393.44929,585.76608 58.11078,46.96924 9.17539,-11.14154 -58.5477,-47.62462 z"
             id="path4275"
             inkscape:connector-curvature="0" />
          <path
             style="fill:none;stroke:url(#linearGradient4283);stroke-width:1px;stroke-linecap:butt;stroke-linejoin:miter;stroke-opacity:1;filter:url(#filter4172)"
             d="M 404.37237,574.843 460.517,620.50147"
             id="path4277"
             inkscape:connector-curvature="0"
             sodipodi:nodetypes="cc" />
          <path
             style="fill:url(#linearGradient4285);fill-opacity:1;stroke:none;filter:url(#filter4216)"
             d="m 448.72007,629.23993 -1.0923,1.96616 c -19.28367,-12.90301 -37.05568,-27.31766 -54.6154,-41.94462 l 2.18462,-2.18462 c 16.72168,13.66013 34.33479,28.34436 53.52308,42.16308 z"
             id="path4279"
             inkscape:connector-curvature="0"
             sodipodi:nodetypes="ccccc" />
        </g>
        <g
           id="g4287"
           transform="translate(-107.93911,132.02722)">
          <path
             inkscape:connector-curvature="0"
             id="path4289"
             d="m 393.44929,585.76608 58.11078,46.96924 9.17539,-11.14154 -58.5477,-47.62462 z"
             style="fill:url(#linearGradient4295);fill-opacity:1;stroke:none;filter:url(#filter4192)" />
          <path
             sodipodi:nodetypes="cc"
             inkscape:connector-curvature="0"
             id="path4291"
             d="M 404.37237,574.843 460.517,620.50147"
             style="fill:none;stroke:url(#linearGradient4297);stroke-width:1px;stroke-linecap:butt;stroke-linejoin:miter;stroke-opacity:1;filter:url(#filter4172)" />
          <path
             sodipodi:nodetypes="ccccc"
             inkscape:connector-curvature="0"
             id="path4293"
             d="m 448.72007,629.23993 -1.0923,1.96616 c -19.28367,-12.90301 -37.05568,-27.31766 -54.6154,-41.94462 l 2.18462,-2.18462 c 16.72168,13.66013 34.33479,28.34436 53.52308,42.16308 z"
             style="fill:url(#linearGradient4299);fill-opacity:1;stroke:none;filter:url(#filter4216)" />
        </g>
        <g
           transform="translate(-122.87983,153.0662)"
           id="g4301">
          <path
             style="fill:url(#linearGradient4309);fill-opacity:1;stroke:none;filter:url(#filter4192)"
             d="m 393.44929,585.76608 58.11078,46.96924 9.17539,-11.14154 -58.5477,-47.62462 z"
             id="path4303"
             inkscape:connector-curvature="0" />
          <path
             style="fill:none;stroke:url(#linearGradient4311);stroke-width:1px;stroke-linecap:butt;stroke-linejoin:miter;stroke-opacity:1;filter:url(#filter4172)"
             d="M 404.37237,574.843 460.517,620.50147"
             id="path4305"
             inkscape:connector-curvature="0"
             sodipodi:nodetypes="cc" />
          <path
             style="fill:url(#linearGradient4313);fill-opacity:1;stroke:none;filter:url(#filter4216)"
             d="m 448.72007,629.23993 -1.0923,1.96616 c -19.28367,-12.90301 -37.05568,-27.31766 -54.6154,-41.94462 l 2.18462,-2.18462 c 16.72168,13.66013 34.33479,28.34436 53.52308,42.16308 z"
             id="path4307"
             inkscape:connector-curvature="0"
             sodipodi:nodetypes="ccccc" />
        </g>
        <g
           id="g4315"
           transform="translate(-140.86968,174.41009)">
          <path
             inkscape:connector-curvature="0"
             id="path4317"
             d="m 393.44929,585.76608 58.11078,46.96924 9.17539,-11.14154 -58.5477,-47.62462 z"
             style="fill:url(#linearGradient4323);fill-opacity:1;stroke:none;filter:url(#filter4192)" />
          <path
             sodipodi:nodetypes="cc"
             inkscape:connector-curvature="0"
             id="path4319"
             d="M 404.37237,574.843 460.517,620.50147"
             style="fill:none;stroke:url(#linearGradient4325);stroke-width:1px;stroke-linecap:butt;stroke-linejoin:miter;stroke-opacity:1;filter:url(#filter4172)" />
          <path
             sodipodi:nodetypes="ccccc"
             inkscape:connector-curvature="0"
             id="path4321"
             d="m 448.72007,629.23993 -1.0923,1.96616 c -19.28367,-12.90301 -37.05568,-27.31766 -54.6154,-41.94462 l 2.18462,-2.18462 c 16.72168,13.66013 34.33479,28.34436 53.52308,42.16308 z"
             style="fill:url(#linearGradient4327);fill-opacity:1;stroke:none;filter:url(#filter4216)" />
        </g>
      </g>
    </g>
  </g>
</svg>
