<?xml version="1.0" encoding="UTF-8" standalone="no"?>
<!-- Created with Inkscape (http://www.inkscape.org/) -->
<svg
   xmlns:dc="http://purl.org/dc/elements/1.1/"
   xmlns:cc="http://creativecommons.org/ns#"
   xmlns:rdf="http://www.w3.org/1999/02/22-rdf-syntax-ns#"
   xmlns:svg="http://www.w3.org/2000/svg"
   xmlns="http://www.w3.org/2000/svg"
   xmlns:xlink="http://www.w3.org/1999/xlink"
   xmlns:sodipodi="http://sodipodi.sourceforge.net/DTD/sodipodi-0.dtd"
   xmlns:inkscape="http://www.inkscape.org/namespaces/inkscape"
   version="1.0"
   width="64"
   height="64"
   id="svg602"
   xml:space="preserve"
   sodipodi:version="0.32"
   inkscape:version="0.46"
   sodipodi:docname="link_overlay.svg"
   sodipodi:docbase="/media/disk-hda3"
   inkscape:output_extension="org.inkscape.output.svg.inkscape"><metadata
     id="metadata24"><rdf:RDF><cc:Work
         rdf:about=""><dc:format>image/svg+xml</dc:format><dc:type
           rdf:resource="http://purl.org/dc/dcmitype/StillImage" /></cc:Work></rdf:RDF></metadata><sodipodi:namedview
     inkscape:window-height="1025"
     inkscape:window-width="1680"
     inkscape:pageshadow="2"
     inkscape:pageopacity="0.0"
     guidetolerance="10.0"
     gridtolerance="10.0"
     objecttolerance="10.0"
     borderopacity="1.0"
     bordercolor="#666666"
     pagecolor="#ffffff"
     id="base"
     inkscape:zoom="12.765625"
     inkscape:cx="32"
     inkscape:cy="24.089327"
     inkscape:window-x="-5"
     inkscape:window-y="0"
     inkscape:current-layer="svg602"
     showgrid="false" /><defs
     id="defs604"><inkscape:perspective
       sodipodi:type="inkscape:persp3d"
       inkscape:vp_x="0 : 80 : 1"
       inkscape:vp_y="0 : 1000 : 0"
       inkscape:vp_z="160 : 80 : 1"
       inkscape:persp3d-origin="80 : 53.333333 : 1"
       id="perspective25" /><linearGradient
       id="linearGradient640"><stop
         style="stop-color:#004188;stop-opacity:0.68629998"
         offset="0"
         id="stop641" /><stop
         style="stop-color:#4a6cb3;stop-opacity:0.62349999"
         offset="1"
         id="stop642" /></linearGradient><linearGradient
       id="linearGradient621"><stop
         style="stop-color:#ffffff;stop-opacity:0.72939998"
         offset="0"
         id="stop622" /><stop
         style="stop-color:#ffffff;stop-opacity:0.1137"
         offset="1"
         id="stop623" /></linearGradient><linearGradient
       id="linearGradient607"><stop
         style="stop-color:#cadfff;stop-opacity:0.74900001"
         offset="0"
         id="stop608" /><stop
         style="stop-color:#ffffff;stop-opacity:0.36469999"
         offset="1"
         id="stop609" /></linearGradient><radialGradient
       cx="0.93845993"
       cy="0.96875173"
       r="0.71857744"
       fx="0.93845993"
       fy="0.96875173"
       id="radialGradient610"
       xlink:href="#linearGradient607" /><linearGradient
       x1="28.569497"
       y1="117.10094"
       x2="29.941745"
       y2="149.67627"
       id="linearGradient620"
       xlink:href="#linearGradient621"
       gradientTransform="matrix(0.3041446,0,0,0.2385031,1.5531289,18.481664)"
       gradientUnits="userSpaceOnUse" /><radialGradient
       cx="384.71931"
       cy="284.7825"
       r="193.84395"
       fx="384.71931"
       fy="284.7825"
       id="radialGradient638"
       xlink:href="#linearGradient640"
       gradientTransform="scale(0.7737228,1.2924526)"
       gradientUnits="userSpaceOnUse" /><radialGradient
       id="radialGradient639"
       xlink:href="#linearGradient640" /><radialGradient
       inkscape:collect="always"
       xlink:href="#linearGradient640"
       id="radialGradient2400"
       gradientTransform="scale(0.7737228,1.2924526)"
       cx="6905.2538"
       cy="5029.0177"
       fx="6905.2538"
       fy="5029.0177"
       r="3479.2682"
       gradientUnits="userSpaceOnUse" /><filter
       inkscape:collect="always"
       id="filter3172"><feGaussianBlur
         inkscape:collect="always"
         stdDeviation="0.23387718"
         id="feGaussianBlur3174" /></filter><linearGradient
       inkscape:collect="always"
       xlink:href="#linearGradient621"
       id="linearGradient3184"
       gradientUnits="userSpaceOnUse"
       gradientTransform="matrix(0.3041446,0,0,0.2385031,1.5531289,18.481664)"
       x1="28.569497"
       y1="117.10094"
       x2="29.941745"
       y2="149.67627" /><radialGradient
       inkscape:collect="always"
       xlink:href="#linearGradient640"
       id="radialGradient3186"
       gradientUnits="userSpaceOnUse"
       gradientTransform="scale(0.7737228,1.2924526)"
       cx="6905.2538"
       cy="5029.0177"
       fx="6905.2538"
       fy="5029.0177"
       r="3479.2682" /><radialGradient
       inkscape:collect="always"
       xlink:href="#linearGradient640"
       id="radialGradient3188"
       gradientUnits="userSpaceOnUse"
       gradientTransform="scale(0.7737228,1.2924526)"
       cx="384.71931"
       cy="284.7825"
       fx="384.71931"
       fy="284.7825"
       r="193.84395" /></defs><g
     id="g3174"
     transform="translate(-1.5667075,2.0367197)"><rect
       ry="0"
       y="45.434517"
       x="3.9951041"
       height="13.787025"
       width="13.708691"
       id="rect3172"
       style="opacity:1;fill:#ffffff;fill-opacity:0.98543689;stroke:none;stroke-width:1.39999998;stroke-linecap:round;stroke-linejoin:round;stroke-miterlimit:4;stroke-dasharray:none;stroke-opacity:1" /><g
       id="g3176"><path
         d="M 4.0360799,60.15764 C 4.1342149,60.623799 4.5267689,60.918205 5.0174669,60.918205 L 18.413422,60.918205 C 19.051328,60.918205 19.566554,60.402974 19.566554,59.765089 L 19.566554,46.369107 C 19.566554,45.780295 19.149467,45.314125 18.560631,45.265055 C 18.683303,45.363194 18.707839,45.485861 18.707839,45.633078 L 18.707839,59.029033 C 18.707839,59.666945 18.192613,60.206712 17.554707,60.206712 L 4.1587489,60.206712 C 4.1096799,60.206712 4.0606139,60.206712 4.0360799,60.15764 z"
         style="font-size:12px;fill:#000000;fill-opacity:0.40579708;fill-rule:evenodd;filter:url(#filter3172)"
         id="path644" /><path
         d="M 4.1691529,44.479943 C 3.5067169,44.479943 2.9914889,44.995172 2.9914889,45.633078 L 2.9914889,59.029033 C 2.9914889,59.666945 3.5067169,60.206712 4.1691529,60.206712 L 17.540575,60.206712 C 18.203018,60.206712 18.718241,59.666945 18.718241,59.029033 L 18.718241,45.633078 C 18.718241,44.995172 18.203018,44.479943 17.540575,44.479943 L 4.1691529,44.479943 z M 4.9051959,45.657614 C 4.5617099,45.657614 4.2672929,45.95202 4.2672929,46.295526 L 4.2672929,58.366586 C 4.2672929,58.734627 4.5617099,59.004497 4.9051959,59.004497 L 16.976277,59.004497 C 17.344297,59.004497 17.638714,58.734627 17.638714,58.366586 L 17.638714,46.295526 C 17.638714,45.95202 17.344297,45.657614 16.976277,45.657614 L 4.9051959,45.657614 z"
         style="font-size:12px;fill:#000000;fill-opacity:0.98543689;fill-rule:evenodd"
         id="path634" /><path
         d="M 5.2069549,46.815443 C 6.2130669,45.911513 15.842979,45.760903 16.705365,47.116771 C 17.232371,48.723791 16.609542,50.330758 16.705362,52.540353 C 16.868537,56.303129 6.0851989,56.557109 5.4944149,52.841654 C 4.9194919,50.12989 4.7757659,48.171366 5.2069549,46.815443 z"
         style="font-size:12px;fill:url(#linearGradient3184);fill-rule:evenodd"
         id="path625" /><g
         transform="matrix(3.5316628e-2,-8.8298224e-3,6.6207791e-3,2.6481271e-2,1.4763229,48.11249)"
         style="font-size:12px;fill:url(#radialGradient3188)"
         id="g684"><g
           transform="matrix(5.5714e-2,0,0,-5.5714e-2,0,468)"
           id="g686"
           style="fill:url(#radialGradient3186)"><path
             d="M 2792,8162 C 2799,8153 3106,7824 3474,7430 L 4143,6715 L 4094,6707 C 3724,6646 3439,6524 3131,6296 C 2990,6190 2738,5937 2624,5785 C 1956,4893 1799,3684 2217,2635 C 2402,2169 2671,1767 3054,1384 C 3360,1078 3628,871 4040,623 C 4284,477 4658,291 4915,189 C 4948,176 4988,156 5003,145 L 5031,125 L 5065,165 C 5084,187 5099,210 5099,215 C 5099,221 5037,276 4962,337 C 4804,467 4537,718 4394,870 C 3786,1518 3394,2222 3279,2875 C 3252,3027 3243,3300 3259,3437 C 3304,3805 3451,4112 3705,4366 C 3884,4545 4078,4677 4334,4792 C 4537,4884 4872,4994 4889,4974 C 4893,4969 4920,4495 4949,3920 C 4977,3345 5004,2858 5008,2837 C 5015,2801 5073,2929 5905,4811 C 6395,5918 6798,6830 6801,6840 C 6807,6854 6554,6939 5046,7435 C 2692,8208 2777,8181 2792,8162 z"
             id="path687"
             style="fill:#000000;fill-opacity:0.98543689" /></g></g></g></g></svg>