<?xml version="1.0" encoding="UTF-8" standalone="no"?>
<!-- Created with Inkscape (http://www.inkscape.org/) -->

<svg
   xmlns:dc="http://purl.org/dc/elements/1.1/"
   xmlns:cc="http://creativecommons.org/ns#"
   xmlns:rdf="http://www.w3.org/1999/02/22-rdf-syntax-ns#"
   xmlns:svg="http://www.w3.org/2000/svg"
   xmlns="http://www.w3.org/2000/svg"
   xmlns:xlink="http://www.w3.org/1999/xlink"
   xmlns:sodipodi="http://sodipodi.sourceforge.net/DTD/sodipodi-0.dtd"
   xmlns:inkscape="http://www.inkscape.org/namespaces/inkscape"
   width="255"
   height="255"
   viewBox="0 0 67.468749 67.468749"
   version="1.1"
   id="svg8"
   inkscape:version="0.92.5 (2060ec1f9f, 2020-04-08)"
   sodipodi:docname="emblem-downloads.svg">
  <defs
     id="defs2">
    <clipPath
       clipPathUnits="userSpaceOnUse"
       id="clipPath2059">
      <path
         d="m -10.099732,231.68531 c 3.5587363,2.50616 4.8319716,-0.58528 2.9651647,-3.064 -3.1818907,-4.22486 -6.4443207,-9.83985 -12.3548527,-15.91305 -2.594516,-2.66865 -11.860659,-7.80827 -11.860659,-7.80827 0,0 -0.115438,-2.18844 -0.09884,-3.064 0.01106,-0.582 -0.565687,-0.56369 -0.889553,-0.29652 -0.782426,0.64546 -2.47097,2.56981 -2.47097,2.56981 l -1.68026,-0.0988 -1.087226,-1.58142 c -0.296516,-0.41055 -0.636056,-0.34641 -0.88955,0 -0.545383,1.84962 -0.878698,3.8848 -3.459359,3.95355 l 4.447747,3.95356 c 7.76561,1.55335 15.578734,5.58545 20.261957,14.33163 0,0 4.526451,5.19364 7.116396,7.01755 z"
         id="path2061"
         sodipodi:nodetypes="csscsscccccccs"
         inkscape:connector-curvature="0"
         stroke-dasharray="none"
         stroke-opacity="1"
         fill="#ffffff"
         fill-rule="evenodd"
         stroke="none"
         stroke-linejoin="miter"
         fill-opacity="1"
         stroke-linecap="butt"
         stroke-width="0.048"
         stroke-miterlimit="4" />
    </clipPath>
    <clipPath
       id="clipPath2059-5"
       clipPathUnits="userSpaceOnUse">
      <path
         stroke-miterlimit="4"
         stroke-width="0.048"
         stroke-linecap="butt"
         fill-opacity="1"
         stroke-linejoin="miter"
         stroke="none"
         fill-rule="evenodd"
         fill="#ffffff"
         stroke-opacity="1"
         stroke-dasharray="none"
         inkscape:connector-curvature="0"
         sodipodi:nodetypes="csscsscccccccs"
         id="path2061-3"
         d="m -10.099732,231.68531 c 3.5587363,2.50616 4.8319716,-0.58528 2.9651647,-3.064 -3.1818907,-4.22486 -6.4443207,-9.83985 -12.3548527,-15.91305 -2.594516,-2.66865 -11.860659,-7.80827 -11.860659,-7.80827 0,0 -0.115438,-2.18844 -0.09884,-3.064 0.01106,-0.582 -0.565687,-0.56369 -0.889553,-0.29652 -0.782426,0.64546 -2.47097,2.56981 -2.47097,2.56981 l -1.68026,-0.0988 -1.087226,-1.58142 c -0.296516,-0.41055 -0.636056,-0.34641 -0.88955,0 -0.545383,1.84962 -0.878698,3.8848 -3.459359,3.95355 l 4.447747,3.95356 c 7.76561,1.55335 15.578734,5.58545 20.261957,14.33163 0,0 4.526451,5.19364 7.116396,7.01755 z" />
    </clipPath>
    <clipPath
       id="clipPath">
      <path
         fill-opacity="0.95"
         stroke="none"
         fill="#1b1b1b"
         sodipodi:nodetypes="csssscc"
         inkscape:connector-curvature="0"
         id="rect5264"
         d="m -515.73002,435.56445 v 5.83767 c 0,9.74315 -7.84377,17.58692 -17.58692,17.58692 h -135.05122 c -9.74315,0 -17.58692,-7.84377 -17.58692,-17.58692 v -5.83767 z" />
    </clipPath>
    <clipPath
       clipPathUnits="userSpaceOnUse"
       id="clipPath2059-7">
      <path
         d="m -10.099732,231.68531 c 3.5587363,2.50616 4.8319716,-0.58528 2.9651647,-3.064 -3.1818907,-4.22486 -6.4443207,-9.83985 -12.3548527,-15.91305 -2.594516,-2.66865 -11.860659,-7.80827 -11.860659,-7.80827 0,0 -0.115438,-2.18844 -0.09884,-3.064 0.01106,-0.582 -0.565687,-0.56369 -0.889553,-0.29652 -0.782426,0.64546 -2.47097,2.56981 -2.47097,2.56981 l -1.68026,-0.0988 -1.087226,-1.58142 c -0.296516,-0.41055 -0.636056,-0.34641 -0.88955,0 -0.545383,1.84962 -0.878698,3.8848 -3.459359,3.95355 l 4.447747,3.95356 c 7.76561,1.55335 15.578734,5.58545 20.261957,14.33163 0,0 4.526451,5.19364 7.116396,7.01755 z"
         id="path2061-5"
         sodipodi:nodetypes="csscsscccccccs"
         inkscape:connector-curvature="0"
         stroke-dasharray="none"
         stroke-opacity="1"
         fill="#ffffff"
         fill-rule="evenodd"
         stroke="none"
         stroke-linejoin="miter"
         fill-opacity="1"
         stroke-linecap="butt"
         stroke-width="0.048"
         stroke-miterlimit="4" />
    </clipPath>
    <clipPath
       clipPathUnits="userSpaceOnUse"
       id="clipPath1162">
      <path
         stroke-miterlimit="4"
         stroke-width="0.071"
         stroke-linecap="round"
         fill-opacity="0.347"
         stroke-linejoin="round"
         stroke="none"
         fill="#000000"
         stroke-opacity="1"
         stroke-dasharray="none"
         inkscape:connector-curvature="0"
         d="m -65.649736,239.84563 c -9.358079,0 -16.951888,7.59381 -16.951888,16.95188 0,9.35808 7.593811,16.94076 16.951888,16.94077 0.292439,0 0.578792,-0.008 0.867614,-0.0222 2.122786,-0.10753 4.148336,-0.60587 5.995453,-1.42378 l 2.669587,3.97101 c -0.225515,0.4951 -0.245107,0.96445 -0.01111,1.31255 l 15.67271,23.32553 c 0.495366,0.73695 1.94415,0.6317 3.247998,-0.24471 1.303846,-0.87642 1.96364,-2.17735 1.468276,-2.9143 L -51.42304,274.4168 c -0.233058,-0.34672 -0.682887,-0.49868 -1.22356,-0.47831 l -2.558357,-3.80416 c 3.95991,-3.10036 6.507123,-7.91951 6.507123,-13.33682 0,-9.35807 -7.593809,-16.95188 -16.951889,-16.95188 z m 0,2.5806 c 7.92884,0 14.371283,6.44244 14.371283,14.37128 0,7.92885 -6.442435,14.36016 -14.371283,14.36016 -7.928851,0 -14.349039,-6.43131 -14.349039,-14.36016 0,-0.24777 -0.0013,-0.48941 0.01111,-0.73413 0.384376,-7.58638 6.656848,-13.63715 14.337916,-13.63715 z"
         id="path1164" />
    </clipPath>
    <linearGradient
       id="linearGradient3311"
       inkscape:collect="always">
      <stop
         id="stop3313"
         stop-color="white"
         stop-opacity="1" />
      <stop
         id="stop3315"
         offset="1"
         stop-color="white"
         stop-opacity="0" />
    </linearGradient>
    <linearGradient
       id="linearGradient1452"
       inkscape:collect="always">
      <stop
         id="stop1448"
         offset="0"
         style="stop-color:#000000;stop-opacity:1" />
      <stop
         id="stop1450"
         offset="1"
         style="stop-color:#ffffff;stop-opacity:1" />
    </linearGradient>
    <linearGradient
       id="linearGradient3578">
      <stop
         style="stop-color:#000000;stop-opacity:1;"
         offset="0"
         id="stop3580" />
      <stop
         style="stop-color:#fffcfc;stop-opacity:1;"
         offset="1"
         id="stop3582" />
    </linearGradient>
    <inkscape:perspective
       id="perspective2503"
       inkscape:persp3d-origin="128 : 85.333333 : 1"
       inkscape:vp_z="256 : 128 : 1"
       inkscape:vp_y="0 : 1000 : 0"
       inkscape:vp_x="0 : 128 : 1"
       sodipodi:type="inkscape:persp3d" />
    <linearGradient
       id="linearGradient3868">
      <stop
         style="stop-color:#ffffff;stop-opacity:1;"
         offset="0"
         id="stop3870" />
      <stop
         id="stop3872"
         offset="0.63157099"
         style="stop-color:#6f6f6f;stop-opacity:1;" />
      <stop
         style="stop-color:#ffffff;stop-opacity:1;"
         offset="1"
         id="stop3874" />
    </linearGradient>
    <linearGradient
       id="linearGradient3218">
      <stop
         id="stop3220"
         offset="0"
         style="stop-color:#7a7a7a;stop-opacity:1;" />
      <stop
         id="stop3222"
         offset="1"
         style="stop-color:#ffffff;stop-opacity:1;" />
    </linearGradient>
    <inkscape:perspective
       sodipodi:type="inkscape:persp3d"
       inkscape:vp_x="0 : 526.18109 : 1"
       inkscape:vp_y="0 : 1000 : 0"
       inkscape:vp_z="744.09448 : 526.18109 : 1"
       inkscape:persp3d-origin="372.04724 : 350.78739 : 1"
       id="perspective10" />
    <inkscape:perspective
       id="perspective2390"
       inkscape:persp3d-origin="372.04724 : 350.78739 : 1"
       inkscape:vp_z="744.09448 : 526.18109 : 1"
       inkscape:vp_y="0 : 1000 : 0"
       inkscape:vp_x="0 : 526.18109 : 1"
       sodipodi:type="inkscape:persp3d" />
    <linearGradient
       gradientTransform="matrix(0.4584837,0,0,0.4584837,12.357625,81.058821)"
       y2="50.573639"
       x2="215.89148"
       y1="113.36433"
       x1="155.81395"
       spreadMethod="reflect"
       gradientUnits="userSpaceOnUse"
       id="linearGradient3403"
       xlink:href="#linearGradient3369"
       inkscape:collect="always" />
    <linearGradient
       y2="78.617943"
       x2="-79.282944"
       y1="145.67221"
       x1="-81.182167"
       gradientUnits="userSpaceOnUse"
       id="linearGradient3397"
       xlink:href="#linearGradient1452"
       inkscape:collect="always" />
    <linearGradient
       spreadMethod="reflect"
       gradientUnits="userSpaceOnUse"
       y2="50.573639"
       x2="215.89148"
       y1="113.36433"
       x1="155.81395"
       id="linearGradient3375"
       xlink:href="#linearGradient3369"
       inkscape:collect="always" />
    <inkscape:perspective
       sodipodi:type="inkscape:persp3d"
       inkscape:vp_x="0 : 128 : 1"
       inkscape:vp_y="0 : 1000 : 0"
       inkscape:vp_z="256 : 128 : 1"
       inkscape:persp3d-origin="128 : 85.333333 : 1"
       id="perspective2503-3" />
    <linearGradient
       id="linearGradient3369">
      <stop
         id="stop3371"
         offset="0"
         style="stop-color:#ffffff;stop-opacity:1;" />
      <stop
         style="stop-color:#6f6f6f;stop-opacity:1;"
         offset="0.5"
         id="stop3866" />
      <stop
         id="stop3373"
         offset="1"
         style="stop-color:#ffffff;stop-opacity:1;" />
    </linearGradient>
    <linearGradient
       inkscape:collect="always"
       xlink:href="#linearGradient3218"
       id="linearGradient2487"
       gradientUnits="userSpaceOnUse"
       gradientTransform="matrix(1.1283429,0,0,1.1365179,-15.443402,-24.283912)"
       x1="110.78604"
       y1="200.12624"
       x2="109.9457"
       y2="51.818779" />
    <linearGradient
       inkscape:collect="always"
       xlink:href="#linearGradient3311"
       id="linearGradient2489"
       gradientUnits="userSpaceOnUse"
       gradientTransform="matrix(1.1283429,0,0,1.1365179,-15.443402,-24.283912)"
       x1="129.05124"
       y1="200.52469"
       x2="129.05124"
       y2="48.815548" />
    <linearGradient
       inkscape:collect="always"
       xlink:href="#linearGradient3218"
       id="linearGradient3878"
       gradientUnits="userSpaceOnUse"
       gradientTransform="matrix(1.1283429,0,0,1.1365179,-11.578668,-18.969902)"
       spreadMethod="reflect"
       x1="110.78604"
       y1="200.12624"
       x2="109.08942"
       y2="118.55368" />
    <linearGradient
       inkscape:collect="always"
       id="linearGradient891">
      <stop
         style="stop-color:#ffffff;stop-opacity:1"
         offset="0"
         id="stop887" />
      <stop
         style="stop-color:#6772ff;stop-opacity:0;"
         offset="1"
         id="stop889" />
    </linearGradient>
    <linearGradient
       id="linearGradient879"
       inkscape:collect="always">
      <stop
         id="stop875"
         offset="0"
         style="stop-color:#6772ff;stop-opacity:1;" />
      <stop
         id="stop877"
         offset="1"
         style="stop-color:#6772ff;stop-opacity:0;" />
    </linearGradient>
    <linearGradient
       id="linearGradient850"
       inkscape:collect="always">
      <stop
         id="stop846"
         offset="0"
         style="stop-color:#2333f4;stop-opacity:1;" />
      <stop
         id="stop848"
         offset="1"
         style="stop-color:#6772ff;stop-opacity:1" />
    </linearGradient>
    <linearGradient
       inkscape:collect="always"
       id="linearGradient844">
      <stop
         style="stop-color:#ffffff;stop-opacity:0.02352941"
         offset="0"
         id="stop840" />
      <stop
         style="stop-color:#b1b4ff;stop-opacity:1"
         offset="1"
         id="stop842" />
    </linearGradient>
    <linearGradient
       id="linearGradient832"
       inkscape:collect="always">
      <stop
         id="stop828"
         offset="0"
         style="stop-color:#4648ff;stop-opacity:0.02232143" />
      <stop
         id="stop830"
         offset="1"
         style="stop-color:#ffffff;stop-opacity:1" />
    </linearGradient>
    <linearGradient
       gradientTransform="matrix(-0.2063372,-0.00145896,0.00165328,-0.23381938,7.9752464,300.15819)"
       gradientUnits="userSpaceOnUse"
       y2="215.26666"
       x2="300.58398"
       y1="152.11095"
       x1="300.11813"
       id="linearGradient834"
       xlink:href="#linearGradient832"
       inkscape:collect="always" />
    <linearGradient
       gradientTransform="matrix(0.2063372,-0.00145896,-0.00165328,-0.23381938,-105.19374,300.397)"
       y2="146.35167"
       x2="193.22318"
       y1="152.11095"
       x1="304.14963"
       gradientUnits="userSpaceOnUse"
       id="linearGradient838"
       xlink:href="#linearGradient844"
       inkscape:collect="always" />
    <linearGradient
       gradientTransform="matrix(-0.2063372,-0.00145896,0.00165328,-0.23381938,7.9752464,300.15819)"
       gradientUnits="userSpaceOnUse"
       y2="222.37491"
       x2="331.4032"
       y1="112.66061"
       x1="222.11502"
       id="linearGradient852"
       xlink:href="#linearGradient850"
       inkscape:collect="always" />
    <linearGradient
       gradientTransform="matrix(-0.2063372,-0.00145896,0.00165328,-0.23381938,7.9752464,300.15819)"
       spreadMethod="reflect"
       gradientUnits="userSpaceOnUse"
       y2="62.198509"
       x2="283.87564"
       y1="62.486473"
       x1="275.93753"
       id="linearGradient881"
       xlink:href="#linearGradient879"
       inkscape:collect="always" />
    <linearGradient
       gradientTransform="matrix(0.13514123,0.17642607,-0.15593146,0.15345183,-54.40608,191.55927)"
       spreadMethod="reflect"
       y2="61.586014"
       x2="287.10132"
       y1="59.7803"
       x1="276.78616"
       gradientUnits="userSpaceOnUse"
       id="linearGradient885"
       xlink:href="#linearGradient891"
       inkscape:collect="always" />
    <linearGradient
       spreadMethod="reflect"
       y2="62.321594"
       x2="288.3721"
       y1="59.486935"
       x1="278.19577"
       gradientTransform="matrix(-0.13762253,0.17449742,0.15374593,0.15564148,-42.020643,191.98351)"
       gradientUnits="userSpaceOnUse"
       id="linearGradient895"
       xlink:href="#linearGradient891"
       inkscape:collect="always" />
    <radialGradient
       gradientUnits="userSpaceOnUse"
       gradientTransform="matrix(1,0,0,0.99386819,1.151856,-0.62370103)"
       r="15.385594"
       fy="180.05813"
       fx="32.269936"
       cy="180.05813"
       cx="32.269936"
       id="radialGradient929"
       xlink:href="#linearGradient3311"
       inkscape:collect="always" />
    <inkscape:perspective
       sodipodi:type="inkscape:persp3d"
       inkscape:vp_x="0 : 128 : 1"
       inkscape:vp_y="0 : 1000 : 0"
       inkscape:vp_z="256 : 128 : 1"
       inkscape:persp3d-origin="128 : 85.333333 : 1"
       id="perspective70" />
    <linearGradient
       id="linearGradient2821"
       inkscape:collect="always">
      <stop
         id="stop2823"
         offset="0"
         style="stop-color:#1f1f47;stop-opacity:1" />
      <stop
         id="stop2825"
         offset="1"
         style="stop-color:#162a97;stop-opacity:0" />
    </linearGradient>
    <linearGradient
       id="linearGradient2916">
      <stop
         id="stop2918"
         offset="0"
         style="stop-color:#ffffff;stop-opacity:0;" />
      <stop
         id="stop2920"
         offset="1"
         style="stop-color:white;stop-opacity:1" />
    </linearGradient>
    <linearGradient
       id="linearGradient2908">
      <stop
         style="stop-color:#292929;stop-opacity:0;"
         offset="0"
         id="stop2910" />
      <stop
         style="stop-color:#000000;stop-opacity:1;"
         offset="1"
         id="stop2912" />
    </linearGradient>
    <linearGradient
       id="linearGradient2890">
      <stop
         style="stop-color:#828282;stop-opacity:1;"
         offset="0"
         id="stop2892" />
      <stop
         style="stop-color:#000000;stop-opacity:1;"
         offset="1"
         id="stop2894" />
    </linearGradient>
    <linearGradient
       inkscape:collect="always"
       xlink:href="#linearGradient2890"
       id="linearGradient2896"
       x1="93.801529"
       y1="209.34351"
       x2="153.89313"
       y2="5.8625956"
       gradientUnits="userSpaceOnUse" />
    <linearGradient
       inkscape:collect="always"
       xlink:href="#linearGradient2908"
       id="linearGradient2906"
       gradientUnits="userSpaceOnUse"
       x1="155.35878"
       y1="139.48091"
       x2="163.17557"
       y2="150.47328"
       gradientTransform="translate(-0.977146,0.48855)" />
    <linearGradient
       inkscape:collect="always"
       xlink:href="#linearGradient2916"
       id="linearGradient2922"
       gradientUnits="userSpaceOnUse"
       x1="114.80917"
       y1="106.25954"
       x2="154.38168"
       y2="52.763359" />
    <linearGradient
       y2="21.740461"
       x2="131.90839"
       y1="217.40459"
       x1="33.221375"
       gradientUnits="userSpaceOnUse"
       id="linearGradient3922"
       xlink:href="#linearGradient2890"
       inkscape:collect="always" />
    <linearGradient
       y2="26.137407"
       x2="88.183228"
       y1="51.786266"
       x1="88.183228"
       gradientUnits="userSpaceOnUse"
       id="linearGradient3919"
       xlink:href="#linearGradient3888"
       inkscape:collect="always" />
    <linearGradient
       gradientTransform="translate(95.26718,-0.48855)"
       y2="21.740461"
       x2="131.90839"
       y1="217.40459"
       x1="33.221375"
       gradientUnits="userSpaceOnUse"
       id="linearGradient3912"
       xlink:href="#linearGradient2890"
       inkscape:collect="always" />
    <linearGradient
       gradientTransform="translate(95.26718,-0.48855)"
       y2="26.137407"
       x2="88.183228"
       y1="51.786266"
       x1="88.183228"
       gradientUnits="userSpaceOnUse"
       id="linearGradient3909"
       xlink:href="#linearGradient3888"
       inkscape:collect="always" />
    <linearGradient
       inkscape:collect="always"
       id="linearGradient3888">
      <stop
         style="stop-color:#aaf;stop-opacity:0"
         offset="0"
         id="stop3890" />
      <stop
         style="stop-color:white;stop-opacity:1"
         offset="1"
         id="stop3892" />
    </linearGradient>
    <linearGradient
       inkscape:collect="always"
       xlink:href="#linearGradient3888"
       id="linearGradient2087"
       gradientUnits="userSpaceOnUse"
       gradientTransform="translate(334.8109,36.78514)"
       x1="88.183228"
       y1="51.786266"
       x2="88.183228"
       y2="26.137407" />
    <linearGradient
       inkscape:collect="always"
       xlink:href="#linearGradient2890"
       id="linearGradient2090"
       gradientUnits="userSpaceOnUse"
       gradientTransform="translate(334.8109,36.78514)"
       x1="33.221375"
       y1="217.40459"
       x2="131.90839"
       y2="21.740461" />
    <linearGradient
       inkscape:collect="always"
       xlink:href="#linearGradient3888"
       id="linearGradient2093"
       gradientUnits="userSpaceOnUse"
       x1="88.183228"
       y1="51.786266"
       x2="88.183228"
       y2="26.137407"
       gradientTransform="translate(239.5437,37.27369)" />
    <linearGradient
       inkscape:collect="always"
       xlink:href="#linearGradient2890"
       id="linearGradient2096"
       gradientUnits="userSpaceOnUse"
       x1="33.221375"
       y1="217.40459"
       x2="131.90839"
       y2="21.740461"
       gradientTransform="translate(239.5437,37.27369)" />
    <linearGradient
       inkscape:collect="always"
       xlink:href="#linearGradient3888"
       id="linearGradient1927"
       gradientUnits="userSpaceOnUse"
       gradientTransform="matrix(0.490066,0,0,1.080729,-234.0628,-3.61673)"
       x1="88.183228"
       y1="51.786266"
       x2="88.183228"
       y2="26.137407" />
    <linearGradient
       inkscape:collect="always"
       xlink:href="#linearGradient2890"
       id="linearGradient1930"
       gradientUnits="userSpaceOnUse"
       gradientTransform="matrix(0.490066,0,0,1.080729,-234.0629,-3.616732)"
       x1="33.221375"
       y1="217.40459"
       x2="131.90839"
       y2="21.740461" />
    <linearGradient
       inkscape:collect="always"
       xlink:href="#linearGradient2821"
       id="linearGradient2827"
       gradientUnits="userSpaceOnUse"
       gradientTransform="matrix(0.490066,0,0,1.080729,-234.0628,-3.61673)"
       x1="88.183067"
       y1="220.85507"
       x2="88.183067"
       y2="197.01443" />
    <inkscape:perspective
       sodipodi:type="inkscape:persp3d"
       inkscape:vp_x="0 : 128 : 1"
       inkscape:vp_y="0 : 1000 : 0"
       inkscape:vp_z="256 : 128 : 1"
       inkscape:persp3d-origin="128 : 85.333333 : 1"
       id="perspective2503-36" />
    <linearGradient
       inkscape:collect="always"
       xlink:href="#linearGradient2916"
       id="linearGradient2784"
       gradientUnits="userSpaceOnUse"
       x1="114.80917"
       y1="106.25954"
       x2="154.38168"
       y2="52.763359"
       gradientTransform="matrix(1.2152197,0,0,1.2152197,159.41637,21.412996)" />
    <linearGradient
       inkscape:collect="always"
       xlink:href="#linearGradient2908"
       id="linearGradient2787"
       gradientUnits="userSpaceOnUse"
       gradientTransform="matrix(1.2152197,0,0,1.2152197,-39.895494,0.4936174)"
       x1="155.35878"
       y1="139.48091"
       x2="163.17557"
       y2="150.47328" />
    <linearGradient
       inkscape:collect="always"
       xlink:href="#linearGradient2890"
       id="linearGradient2790"
       gradientUnits="userSpaceOnUse"
       x1="93.801529"
       y1="209.34351"
       x2="153.89313"
       y2="5.8625956"
       gradientTransform="matrix(1.2152197,0,0,1.2152197,-36.753848,-1.5657271)" />
    <filter
       inkscape:collect="always"
       style="color-interpolation-filters:sRGB"
       id="filter1254"
       x="-0.021746208"
       width="1.0434924"
       y="-0.026774977"
       height="1.05355">
      <feGaussianBlur
         inkscape:collect="always"
         stdDeviation="2.0912683"
         id="feGaussianBlur1256" />
    </filter>
  </defs>
  <sodipodi:namedview
     id="base"
     pagecolor="#ff0000"
     bordercolor="#666666"
     borderopacity="1.0"
     inkscape:pageopacity="0"
     inkscape:pageshadow="2"
     inkscape:zoom="3.4901961"
     inkscape:cx="127.5"
     inkscape:cy="127.5"
     inkscape:document-units="px"
     inkscape:current-layer="layer1"
     showgrid="false"
     inkscape:snap-to-guides="false"
     inkscape:snap-grids="false"
     inkscape:snap-others="false"
     inkscape:object-nodes="false"
     inkscape:snap-nodes="false"
     inkscape:snap-global="false"
     inkscape:window-width="1920"
     inkscape:window-height="1056"
     inkscape:window-x="0"
     inkscape:window-y="0"
     inkscape:window-maximized="1"
     units="px"
     showguides="false" />
  <metadata
     id="metadata5">
    <rdf:RDF>
      <cc:Work>
        <dc:format>image/svg+xml</dc:format>
        <dc:type
           rdf:resource="http://purl.org/dc/dcmitype/StillImage" />
        <dc:title></dc:title>
      </cc:Work>
    </rdf:RDF>
  </metadata>
  <g
     inkscape:label="Layer 1"
     inkscape:groupmode="layer"
     id="layer1"
     transform="translate(0,-229.53126)">
    <g
       id="g1290"
       transform="matrix(1.23534,0,0,1.23534,94.319713,-64.554742)">
      <path
         transform="matrix(0.00293044,-0.22446293,0.22446293,0.00293044,-78.443424,298.85271)"
         style="fill:#000000;fill-opacity:1;stroke:none;stroke-width:1.85913873;stroke-linecap:butt;stroke-linejoin:miter;stroke-miterlimit:4;stroke-dasharray:none;stroke-opacity:0.52232139;filter:url(#filter1254)"
         d="m 36.180673,130.02372 c 0.07675,2.70137 2.606231,5.53083 8.01255,8.98616 L 202.57683,240.23619 c 11.68035,7.46524 21.34039,4.29842 21.24837,-8.06789 L 222.29024,25.976517 C 222.20068,13.935473 210.65673,10.104686 200.93735,16.576475 L 42.892025,121.813 c -4.410591,2.93685 -6.788102,5.50935 -6.711352,8.21072 z m 20.994632,-0.15257 c -0.06138,-2.1464 1.843085,-4.1886 5.376683,-6.52229 L 189.17432,39.724053 c 7.78679,-5.14262 17.03434,-2.097014 17.10561,7.470345 l 1.22043,163.831012 c 0.0732,9.82582 -7.66527,12.3436 -17.02253,6.41246 L 63.596045,137.01226 c -4.331059,-2.74526 -6.359358,-4.9947 -6.42074,-7.14111 z"
         id="path897"
         inkscape:connector-curvature="0" />
      <path
         sodipodi:nodetypes="sssssss"
         inkscape:connector-curvature="0"
         id="path819"
         d="m -23.824561,251.11553 -23.185648,35.25422 c -1.58287,2.40679 -2.571474,2.23926 -3.864054,0.24202 l -23.158719,-35.78392 c -1.424193,-2.20062 -0.530188,-4.7806 2.172841,-4.76542 l 46.286851,0.25995 c 2.77605,0.0156 3.458627,2.19322 1.748729,4.79315 z"
         style="fill:#0000ff;fill-opacity:0.99553576;stroke:none;stroke-width:0.21965437px;stroke-linecap:butt;stroke-linejoin:miter;stroke-opacity:1" />
      <path
         inkscape:connector-curvature="0"
         id="path823"
         d="m -48.991044,288.0752 c 0.606582,-0.009 1.249103,-0.5688 2.04054,-1.77218 l 23.185687,-35.25461 c 1.709899,-2.59994 1.027373,-4.77754 -1.748675,-4.79312 l -46.28691,-0.25969 c -2.703029,-0.0152 -3.596728,2.56478 -2.172534,4.76538 l 23.158559,35.7837 c 0.646287,0.99863 1.216753,1.53983 1.823333,1.53052 z m 0.02729,-4.71297 c -0.481968,0.008 -0.934783,-0.42597 -1.448257,-1.22598 L -68.81162,253.46918 c -1.131509,-1.76291 -0.420785,-3.82972 1.726942,-3.81768 l 36.777569,0.20615 c 2.205749,0.0124 2.748218,1.75674 1.389476,3.83972 l -18.424396,28.24457 c -0.628901,0.96412 -1.139763,1.4128 -1.621732,1.42029 z"
         style="fill:url(#linearGradient852);fill-opacity:1;stroke:#00038f;stroke-width:0.41734329;stroke-linecap:butt;stroke-linejoin:miter;stroke-miterlimit:4;stroke-dasharray:none;stroke-opacity:0.52232139" />
      <path
         style="fill:url(#linearGradient834);fill-opacity:1;stroke:#ffffff;stroke-width:0.43930873;stroke-linecap:butt;stroke-linejoin:miter;stroke-miterlimit:4;stroke-dasharray:none;stroke-opacity:0.52232139"
         d="m -28.918246,253.76487 -18.424107,28.2445 c -1.257805,1.92823 -2.043303,1.79407 -3.070251,0.19406 l -18.399412,-28.6667 c -1.131508,-1.76292 -0.421044,-3.82988 1.726683,-3.81785 l 36.777833,0.2061 c 2.205748,0.0124 2.747997,1.75691 1.389254,3.83989 z"
         id="path821"
         inkscape:connector-curvature="0"
         sodipodi:nodetypes="sssssss" />
      <path
         sodipodi:nodetypes="ssccss"
         inkscape:connector-curvature="0"
         id="path836"
         d="m -68.300244,254.00368 18.424107,28.2445 c 1.257805,1.92823 3.070251,0.19406 3.070251,0.19406 l -0.03645,-32.38471 -20.068653,0.10626 c -2.205752,0.0116 -2.747996,1.75691 -1.389255,3.83989 z"
         style="fill:url(#linearGradient838);fill-opacity:1;stroke:none;stroke-width:0.17524968px;stroke-linecap:butt;stroke-linejoin:miter;stroke-opacity:1" />
      <path
         sodipodi:nodetypes="ccccc"
         inkscape:connector-curvature="0"
         id="path854"
         d="m -50.014326,282.64509 -0.389831,4.71068 c 1.592078,1.69378 2.225395,0.60897 2.913846,-0.31607 l -0.145402,-4.64713 c -0.800309,1.13582 -1.595983,1.61693 -2.378613,0.25252 z"
         style="fill:url(#linearGradient881);fill-opacity:1;stroke:none;stroke-width:0.21965437px;stroke-linecap:butt;stroke-linejoin:miter;stroke-opacity:1" />
      <path
         style="fill:url(#linearGradient885);fill-opacity:1;stroke:none;stroke-width:0.21965437px;stroke-linecap:butt;stroke-linejoin:miter;stroke-opacity:1"
         d="m -28.231315,253.07245 5.462963,-3.71631 c 0.882691,-1.8924 -0.874478,-2.6665 -2.364298,-2.94346 l -4.528777,3.52716 c 1.280086,-0.0717 1.817407,1.56346 1.430112,3.13261 z"
         id="path883"
         inkscape:connector-curvature="0"
         sodipodi:nodetypes="ccccc" />
      <path
         sodipodi:nodetypes="ccccc"
         inkscape:connector-curvature="0"
         id="path893"
         d="m -69.417712,252.91591 -4.762463,-2.91326 c -0.855841,-1.9047 -0.150753,-3.60407 1.342831,-3.85994 l 5.010826,3.93128 c -1.278945,-0.0898 -1.956263,1.26744 -1.591194,2.84192 z"
         style="fill:url(#linearGradient895);fill-opacity:1;stroke:none;stroke-width:0.21965437px;stroke-linecap:butt;stroke-linejoin:miter;stroke-opacity:1" />
      <path
         transform="matrix(-0.22404947,-0.0015842,0.0017952,-0.25389075,-59.967318,295.52089)"
         inkscape:transform-center-y="-0.0049194054"
         inkscape:transform-center-x="0.24026461"
         d="m 20.733407,169.61081 8.674456,4.55636 -3.074606,-9.42208 5.563402,8.06568 1.656229,-9.77168 1.17784,9.72725 6.007643,-7.8827 -3.477552,9.16042 8.982778,-4.1879 -7.336278,6.49505 9.900067,0.46631 -9.514351,2.34174 8.549369,5.01368 -9.512801,-2.34803 5.240115,8.41249 -7.331983,-6.49989 0.730413,9.88409 -3.471496,-9.16272 -3.946618,9.09137 1.184269,-9.72646 -7.719526,6.21592 5.568732,-8.062 -9.723984,1.91648 8.677467,-4.55063 -9.500795,-2.822 9.798297,0.003 z"
         inkscape:randomized="0"
         inkscape:rounded="-2.4286129e-17"
         inkscape:flatsided="false"
         sodipodi:arg2="-2.3114552"
         sodipodi:arg1="-2.5278226"
         sodipodi:r2="5.9219213"
         sodipodi:r1="15.499313"
         sodipodi:cy="178.53769"
         sodipodi:cx="33.403824"
         sodipodi:sides="13"
         id="path921"
         style="opacity:1;fill:url(#radialGradient929);fill-opacity:1;stroke:none;stroke-width:1.89999998;stroke-linecap:round;stroke-linejoin:miter;stroke-miterlimit:4;stroke-dasharray:none;stroke-opacity:0.52232139"
         sodipodi:type="star" />
      <path
         sodipodi:nodetypes="ccccccccc"
         inkscape:connector-curvature="0"
         id="path931"
         d="m -59.244968,273.21343 -1.764604,-2.91298 0.511188,-3.5937 14.187062,-16.95105 5.354465,-3.50796 3.838605,0.17314 -5.502381,3.37391 -16.214392,19.82625 z"
         style="fill:#ffffff;fill-opacity:0.34375;stroke:none;stroke-width:0.23850979px;stroke-linecap:butt;stroke-linejoin:miter;stroke-opacity:1" />
    </g>
  </g>
</svg>
