<?xml version="1.0" encoding="UTF-8" standalone="no"?>
<!-- Created with Inkscape (http://www.inkscape.org/) -->

<svg
   xmlns:dc="http://purl.org/dc/elements/1.1/"
   xmlns:cc="http://creativecommons.org/ns#"
   xmlns:rdf="http://www.w3.org/1999/02/22-rdf-syntax-ns#"
   xmlns:svg="http://www.w3.org/2000/svg"
   xmlns="http://www.w3.org/2000/svg"
   xmlns:xlink="http://www.w3.org/1999/xlink"
   xmlns:sodipodi="http://sodipodi.sourceforge.net/DTD/sodipodi-0.dtd"
   xmlns:inkscape="http://www.inkscape.org/namespaces/inkscape"
   width="256"
   height="256"
   id="svg2"
   sodipodi:version="0.32"
   inkscape:version="0.92.5 (2060ec1f9f, 2020-04-08)"
   sodipodi:docname="atunes.svg"
   inkscape:output_extension="org.inkscape.output.svg.inkscape"
   version="1.0">
  <defs
     id="defs4">
    <linearGradient
       id="linearGradient970"
       inkscape:collect="always">
      <stop
         stop-opacity="0.531"
         stop-color="#ffffff"
         id="stop966"
         style="stop-color:#ffffff;stop-opacity:0.74074072" />
      <stop
         stop-opacity="0"
         stop-color="#ffffff"
         id="stop968"
         offset="1" />
    </linearGradient>
    <linearGradient
       id="linearGradient1104"
       inkscape:collect="always">
      <stop
         id="stop1100"
         stop-color="#ffffff"
         stop-opacity="0.927" />
      <stop
         id="stop1102"
         offset="1"
         stop-color="#ffffff"
         stop-opacity="0" />
    </linearGradient>
    <linearGradient
       id="linearGradient1098">
      <stop
         id="stop1092"
         stop-color="#c3c4ff"
         stop-opacity="0" />
      <stop
         offset="0.774"
         id="stop1094"
         stop-color="#8c8df7"
         stop-opacity="0.498" />
      <stop
         id="stop1096"
         offset="1"
         stop-color="#0a0cbc"
         stop-opacity="1" />
    </linearGradient>
    <linearGradient
       inkscape:collect="always"
       id="linearGradient1290">
      <stop
         id="stop1286"
         stop-color="#ffffff"
         stop-opacity="0.531" />
      <stop
         offset="1"
         id="stop1288"
         stop-color="#ffffff"
         stop-opacity="0" />
    </linearGradient>
    <linearGradient
       id="linearGradient4533">
      <stop
         id="stop4535"
         stop-color="#004bb9"
         stop-opacity="1" />
      <stop
         offset="0.873"
         id="stop4537"
         stop-color="#405ded"
         stop-opacity="1" />
      <stop
         id="stop4539"
         offset="1"
         stop-color="#000ae6"
         stop-opacity="1" />
    </linearGradient>
    <linearGradient
       id="linearGradient4527"
       inkscape:collect="always">
      <stop
         id="stop4529"
         stop-color="#505ae2"
         stop-opacity="0.204" />
      <stop
         id="stop4531"
         offset="1"
         stop-color="#dfe1f3"
         stop-opacity="0.6" />
    </linearGradient>
    <linearGradient
       inkscape:collect="always"
       id="linearGradient4517">
      <stop
         id="stop4519"
         stop-color="#b5b6e4"
         stop-opacity="1" />
      <stop
         offset="1"
         id="stop4521"
         stop-color="#b5b6e4"
         stop-opacity="0" />
    </linearGradient>
    <linearGradient
       id="linearGradient3566"
       inkscape:collect="always">
      <stop
         id="stop3568"
         stop-color="#9597f4"
         stop-opacity="1" />
      <stop
         id="stop3570"
         offset="1"
         stop-color="#000187"
         stop-opacity="1" />
    </linearGradient>
    <linearGradient
       id="linearGradient3560"
       inkscape:collect="always">
      <stop
         id="stop3562"
         stop-color="#c0c1ef"
         stop-opacity="1" />
      <stop
         id="stop3564"
         offset="1"
         stop-color="#101491"
         stop-opacity="1" />
    </linearGradient>
    <linearGradient
       id="linearGradient3548">
      <stop
         id="stop3550"
         stop-color="#202186"
         stop-opacity="1"
         style="stop-color:#000004;stop-opacity:1" />
      <stop
         id="stop3556"
         offset="0.89157987"
         stop-color="#202186"
         stop-opacity="0.589"
         style="stop-color:#000000;stop-opacity:1" />
      <stop
         id="stop3558"
         offset="1"
         stop-color="#202186"
         stop-opacity="0" />
    </linearGradient>
    <linearGradient
       inkscape:collect="always"
       id="linearGradient3656">
      <stop
         id="stop3658"
         stop-color="#aaaedc"
         stop-opacity="1" />
      <stop
         offset="1"
         id="stop3660"
         stop-color="#aaaedc"
         stop-opacity="0" />
    </linearGradient>
    <linearGradient
       inkscape:collect="always"
       id="linearGradient3616">
      <stop
         id="stop3618"
         stop-color="#c3c4ff"
         stop-opacity="1" />
      <stop
         offset="1"
         id="stop3620"
         stop-color="#c3c4ff"
         stop-opacity="0" />
    </linearGradient>
    <linearGradient
       id="linearGradient3414">
      <stop
         id="stop3416"
         stop-color="#636fec"
         stop-opacity="0" />
      <stop
         offset="0.649"
         id="stop3418"
         stop-color="#bbbef5"
         stop-opacity="0" />
      <stop
         id="stop3420"
         offset="1"
         stop-color="#e966ed"
         stop-opacity="1" />
    </linearGradient>
    <linearGradient
       id="linearGradient3406">
      <stop
         id="stop3408"
         stop-color="#636fec"
         stop-opacity="0" />
      <stop
         offset="0.649"
         id="stop3410"
         stop-color="#bbbef5"
         stop-opacity="0" />
      <stop
         id="stop3412"
         offset="1"
         stop-color="#ed66e9"
         stop-opacity="0.7" />
    </linearGradient>
    <linearGradient
       id="linearGradient3386">
      <stop
         id="stop3388"
         stop-color="#636fec"
         stop-opacity="0" />
      <stop
         id="stop3390"
         offset="0.649"
         stop-color="#bbbef5"
         stop-opacity="0" />
      <stop
         offset="1"
         id="stop3392"
         stop-color="#ede766"
         stop-opacity="1" />
    </linearGradient>
    <linearGradient
       id="linearGradient3309">
      <stop
         id="stop3311"
         stop-color="#c3c4ff"
         stop-opacity="0" />
      <stop
         id="stop3317"
         offset="0.598"
         stop-color="#e1e1ff"
         stop-opacity="0" />
      <stop
         offset="1"
         id="stop3313"
         stop-color="#ffffff"
         stop-opacity="1" />
    </linearGradient>
    <linearGradient
       id="linearGradient3293">
      <stop
         id="stop3295"
         stop-color="#c3c4ff"
         stop-opacity="0.034" />
      <stop
         id="stop3301"
         offset="0.358"
         stop-color="#c3c4ff"
         stop-opacity="0.498" />
      <stop
         offset="0.655"
         id="stop3303"
         stop-color="#c3c4ff"
         stop-opacity="0" />
      <stop
         offset="1"
         id="stop3297"
         stop-color="#c3c4ff"
         stop-opacity="0.425" />
    </linearGradient>
    <linearGradient
       id="linearGradient3268">
      <stop
         id="stop3270"
         stop-color="#636fec"
         stop-opacity="0" />
      <stop
         offset="0.649"
         id="stop3272"
         stop-color="#bbbef5"
         stop-opacity="0" />
      <stop
         id="stop3274"
         offset="1"
         stop-color="#6668ed"
         stop-opacity="0.7" />
    </linearGradient>
    <linearGradient
       id="linearGradient3212">
      <stop
         id="stop3214"
         stop-color="#636fec"
         stop-opacity="0.976" />
      <stop
         id="stop3218"
         offset="0.269"
         stop-color="#bbbef5"
         stop-opacity="0" />
      <stop
         offset="1"
         id="stop3216"
         stop-color="#c3c4ff"
         stop-opacity="0" />
    </linearGradient>
    <linearGradient
       id="linearGradient3176">
      <stop
         id="stop3178"
         stop-color="#787889"
         stop-opacity="1" />
      <stop
         offset="1"
         id="stop3180"
         stop-color="#a2a9f5"
         stop-opacity="1" />
    </linearGradient>
    <linearGradient
       inkscape:collect="always"
       xlink:href="#linearGradient3176"
       id="linearGradient3182"
       x1="572.34"
       y1="292.69"
       x2="514.36"
       y2="22.671"
       gradientUnits="userSpaceOnUse"
       gradientTransform="matrix(0.89693454,0,0,0.8651083,-357.43001,-31.877869)" />
    <radialGradient
       inkscape:collect="always"
       xlink:href="#linearGradient3293"
       id="radialGradient3299"
       cx="544.82"
       cy="157.55"
       fx="544.82"
       fy="157.55"
       r="35.09"
       gradientUnits="userSpaceOnUse"
       spreadMethod="reflect"
       gradientTransform="matrix(0.157246,-2.7172153e-7,2.7744926e-7,0.1605607,459.1499,132.25736)" />
    <linearGradient
       inkscape:collect="always"
       xlink:href="#linearGradient3309"
       id="linearGradient3322"
       gradientUnits="userSpaceOnUse"
       spreadMethod="reflect"
       x1="669.18"
       y1="172.9"
       x2="611.5"
       y2="102.47" />
    <linearGradient
       inkscape:collect="always"
       xlink:href="#linearGradient3212"
       id="linearGradient3336"
       x1="414.84"
       y1="157.69"
       x2="674.53"
       y2="157.69"
       gradientUnits="userSpaceOnUse" />
    <linearGradient
       inkscape:collect="always"
       xlink:href="#linearGradient3268"
       id="linearGradient3354"
       gradientUnits="userSpaceOnUse"
       spreadMethod="reflect"
       x1="666.57"
       y1="167.69"
       x2="641.94"
       y2="114.21"
       gradientTransform="rotate(-90,544.6875,157.6875)" />
    <linearGradient
       inkscape:collect="always"
       xlink:href="#linearGradient3386"
       id="linearGradient3400"
       gradientUnits="userSpaceOnUse"
       spreadMethod="reflect"
       x1="635.22"
       y1="199.41"
       x2="573.17"
       y2="223.86" />
    <linearGradient
       inkscape:collect="always"
       xlink:href="#linearGradient3414"
       id="linearGradient3402"
       gradientUnits="userSpaceOnUse"
       spreadMethod="reflect"
       x1="635.22"
       y1="199.41"
       x2="573.17"
       y2="223.86" />
    <linearGradient
       inkscape:collect="always"
       xlink:href="#linearGradient3309"
       id="linearGradient3432"
       gradientUnits="userSpaceOnUse"
       spreadMethod="reflect"
       x1="669.18"
       y1="172.9"
       x2="611.5"
       y2="102.47"
       gradientTransform="translate(-26.714664,78.368118)" />
    <linearGradient
       inkscape:collect="always"
       xlink:href="#linearGradient3176"
       id="linearGradient3448"
       gradientUnits="userSpaceOnUse"
       x1="572.34"
       y1="292.69"
       x2="514.36"
       y2="22.671"
       gradientTransform="matrix(0.8391655,0,0,0.8093891,-325.96433,-23.091997)" />
    <linearGradient
       inkscape:collect="always"
       xlink:href="#linearGradient3406"
       id="linearGradient3958"
       gradientUnits="userSpaceOnUse"
       spreadMethod="reflect"
       x1="648.09"
       y1="184.44"
       x2="573.17"
       y2="223.86" />
    <radialGradient
       inkscape:collect="always"
       xlink:href="#linearGradient3548"
       id="radialGradient3477"
       gradientUnits="userSpaceOnUse"
       gradientTransform="matrix(0.887732,0,0,0.4842115,-244.38794,96.326675)"
       cx="418.92"
       cy="194.95"
       fx="418.92"
       fy="194.95"
       r="129.84" />
    <linearGradient
       inkscape:collect="always"
       xlink:href="#linearGradient3560"
       id="linearGradient3526"
       gradientUnits="userSpaceOnUse"
       gradientTransform="matrix(0.887732,0,0,0.96520011,-713.20189,25.006052)"
       spreadMethod="reflect"
       x1="660.95"
       y1="99.47"
       x2="667.94"
       y2="99.47" />
    <linearGradient
       inkscape:collect="always"
       xlink:href="#linearGradient3566"
       id="linearGradient3530"
       gradientUnits="userSpaceOnUse"
       gradientTransform="matrix(0.887732,0,0,0.96520011,-613.86045,13.132558)"
       spreadMethod="reflect"
       x1="659.64"
       y1="99.47"
       x2="667.94"
       y2="99.47" />
    <linearGradient
       inkscape:collect="always"
       xlink:href="#linearGradient4533"
       id="linearGradient3532"
       gradientUnits="userSpaceOnUse"
       gradientTransform="matrix(0.887732,0,0,0.96520011,-713.20189,25.006052)"
       x1="713.97"
       y1="13.384"
       x2="719.25"
       y2="49.783" />
    <linearGradient
       inkscape:collect="always"
       xlink:href="#linearGradient4527"
       id="linearGradient3542"
       gradientUnits="userSpaceOnUse"
       gradientTransform="matrix(0.887732,0,0,0.96520011,-713.78305,25.296631)"
       spreadMethod="reflect"
       x1="721.71"
       y1="37.449"
       x2="715.6"
       y2="6.717" />
    <linearGradient
       inkscape:collect="always"
       xlink:href="#linearGradient3656"
       id="linearGradient3544"
       gradientUnits="userSpaceOnUse"
       gradientTransform="matrix(0.887732,0,0,0.96520011,-713.20189,25.006052)"
       x1="707.04"
       y1="10.914"
       x2="706.5"
       y2="6.772" />
    <linearGradient
       inkscape:collect="always"
       xlink:href="#linearGradient4517"
       id="linearGradient4523"
       x1="113.17"
       y1="23.13"
       x2="113.47"
       y2="97.48"
       gradientUnits="userSpaceOnUse"
       gradientTransform="translate(-243.21453,17.725312)" />
    <radialGradient
       inkscape:collect="always"
       xlink:href="#linearGradient3616"
       id="radialGradient1109"
       gradientUnits="userSpaceOnUse"
       gradientTransform="matrix(0.03668005,0.63003191,-1.1570626,0.07893317,4.4852338,-241.72706)"
       cx="627.74"
       cy="194.52"
       fx="627.74"
       fy="194.52"
       r="30.935" />
    <radialGradient
       inkscape:collect="always"
       xlink:href="#linearGradient1098"
       id="radialGradient1111"
       gradientUnits="userSpaceOnUse"
       gradientTransform="matrix(0.10350053,1.4041665,-1.4901155,0.12869969,8.736287,-725.53052)"
       cx="601.8"
       cy="182.87"
       fx="601.8"
       fy="182.87"
       r="30.935" />
    <linearGradient
       inkscape:collect="always"
       xlink:href="#linearGradient1104"
       id="linearGradient1113"
       gradientUnits="userSpaceOnUse"
       gradientTransform="matrix(0.89593236,0,0,1.0717762,-767.99142,-39.295784)"
       x1="630.28"
       y1="162.48"
       x2="629.94"
       y2="180.36" />
    <filter
       inkscape:collect="always"
       id="filter1280"
       x="-0.025"
       width="1.049"
       y="-0.023"
       height="1.047"
       color-interpolation-filters="sRGB">
      <feGaussianBlur
         inkscape:collect="always"
         stdDeviation="1.62508"
         id="feGaussianBlur1282" />
    </filter>
    <radialGradient
       inkscape:collect="always"
       xlink:href="#linearGradient1290"
       id="radialGradient1292"
       cx="-49.11"
       cy="108.68"
       fx="-49.11"
       fy="108.68"
       r="40.48"
       gradientUnits="userSpaceOnUse" />
    <radialGradient
       inkscape:collect="always"
       xlink:href="#linearGradient1290"
       id="radialGradient1297"
       gradientUnits="userSpaceOnUse"
       cx="-49.11"
       cy="108.68"
       fx="-49.11"
       fy="108.68"
       r="40.48"
       gradientTransform="rotate(-22.918507,-49.107834,108.6765)" />
    <radialGradient
       inkscape:collect="always"
       xlink:href="#linearGradient1290"
       id="radialGradient962"
       gradientUnits="userSpaceOnUse"
       cx="-49.11"
       cy="108.68"
       fx="-49.11"
       fy="108.68"
       r="40.48" />
    <radialGradient
       inkscape:collect="always"
       xlink:href="#linearGradient970"
       id="radialGradient964"
       gradientUnits="userSpaceOnUse"
       gradientTransform="rotate(-22.918507,-49.107834,108.6765)"
       cx="-49.11"
       cy="108.68"
       fx="-49.11"
       fy="108.68"
       r="40.48" />
  </defs>
  <sodipodi:namedview
     id="base"
     pagecolor="#ff0000"
     bordercolor="#666666"
     borderopacity="1.0"
     gridtolerance="10000"
     guidetolerance="10"
     objecttolerance="10"
     inkscape:pageopacity="0"
     inkscape:pageshadow="2"
     inkscape:zoom="3.4414062"
     inkscape:cx="128"
     inkscape:cy="128"
     inkscape:document-units="px"
     inkscape:current-layer="layer1"
     showgrid="false"
     inkscape:window-width="1920"
     inkscape:window-height="1056"
     inkscape:window-x="0"
     inkscape:window-y="0"
     inkscape:window-maximized="1"
     inkscape:snap-global="false" />
  <metadata
     id="metadata7">
    <rdf:RDF>
      <cc:Work>
        <dc:format>image/svg+xml</dc:format>
        <dc:type
           rdf:resource="http://purl.org/dc/dcmitype/StillImage" />
        <dc:title />
      </cc:Work>
    </rdf:RDF>
  </metadata>
  <g
     inkscape:label="Layer 1"
     inkscape:groupmode="layer"
     id="layer1">
    <path
       inkscape:connector-curvature="0"
       d="M 125.42353,131.08547 C 61.795183,127.57599 10.157064,152.7474 10.157073,187.27303 c 0,34.52563 51.63811,65.39333 115.266457,68.90282 63.62834,3.50948 115.26647,-21.66193 115.26645,-56.18757 0,-34.52563 -51.6381,-65.39334 -115.26645,-68.90281 z m 0,42.13333 c 20.7691,1.14553 37.61764,11.21709 37.61764,22.48669 1e-5,11.2696 -16.84855,19.48256 -37.61764,18.33704 -20.7691,-1.14555 -37.617649,-11.2171 -37.617649,-22.48671 9e-6,-11.26961 16.848549,-19.48256 37.617649,-18.33702 z"
       id="path3825"
       stroke-miterlimit="4"
       style="opacity:0.5;fill:url(#radialGradient3477);fill-opacity:1;stroke:none;stroke-width:0.88800001;stroke-linecap:round;stroke-linejoin:round;stroke-miterlimit:4;stroke-dasharray:none;stroke-opacity:1" />
    <ellipse
       id="path2396"
       cx="131.11"
       cy="104.53"
       transform="matrix(0.98974,0.1428801,0,1,0,0)"
       rx="119.75"
       ry="115.5"
       opacity="1"
       stroke-dasharray="none"
       stroke-opacity="1"
       fill="none"
       stroke="url(#linearGradient3182)"
       stroke-linejoin="round"
       fill-opacity="1"
       stroke-linecap="round"
       stroke-width="2.643"
       stroke-miterlimit="4" />
    <path
       d="M 129.48316,11.525448 C 65.854823,2.3399805 14.216704,45.207557 14.216713,107.21435 c 0,62.00678 51.63811,119.78344 115.266447,128.96891 63.62835,9.18547 115.26647,-33.6821 115.26646,-95.6889 0,-62.006786 -51.63811,-119.783443 -115.26646,-128.968912 z m 0,75.669941 c 20.76911,2.998254 37.61765,21.849701 37.61765,42.089501 1e-5,20.23979 -16.84855,34.22668 -37.61765,31.22843 -20.76909,-2.99825 -37.617639,-21.8497 -37.617639,-42.08949 9e-6,-20.239811 16.848549,-34.226693 37.617639,-31.228441 z"
       id="path3184"
       inkscape:connector-curvature="0"
       opacity="1"
       stroke-dasharray="none"
       stroke-opacity="1"
       fill="#c3c4ff"
       stroke="#9497aa"
       stroke-linejoin="round"
       fill-opacity="1"
       stroke-linecap="round"
       stroke-width="0.789"
       stroke-miterlimit="4" />
    <g
       id="g3319"
       transform="matrix(-0.72996071,-0.46429488,0.58457061,-0.68027111,434.61358,481.69558)"
       stroke="none">
      <path
         sodipodi:nodetypes="cccccccccc"
         d="m 545.0496,195.54385 c -0.51736,31.30435 6.55552,42.73043 7.05426,78.38259 -68.23422,-3.5043 -134.75209,-55.14108 -147.15745,-114.18253 39.56522,0.49874 65.14527,-2.64476 92.10179,-3.16212 1.42449,20.351 26.3078,35.32404 48.0014,38.96206 z m 139.52775,-38.73284 c -39.56522,-0.064 -62.73224,0.79389 -97.51485,0.87649 0,-23.39568 -18.97931,-42.375 -42.375,-42.375 0.0826,-21.73913 -7.42118,-35.39521 -7.05035,-75.395209 67.37101,3.502734 134.73048,55.154825 146.9402,116.893719 z"
         id="path3307"
         inkscape:connector-curvature="0"
         opacity="1"
         stroke-dasharray="none"
         stroke-opacity="1"
         fill="url(#linearGradient3322)"
         stroke="none"
         stroke-linejoin="round"
         fill-opacity="1"
         stroke-linecap="round"
         stroke-width="0.9"
         stroke-miterlimit="4" />
      <path
         id="path3422"
         d="m 548.03359,197.77875 c -0.51736,31.30435 6.48311,43.63416 6.98185,79.28632 -66.0355,-2.79273 -138.83363,-53.18649 -150.91755,-118.87779 39.56522,0.49874 65.55535,1.34689 92.51187,0.82951 0,23.39568 28.02815,38.76196 51.42383,38.76196 z M 685.7596,160.27563 c -39.56522,-0.064 -63.91449,-2.67073 -98.6971,-2.58813 0,-23.39568 -18.97931,-42.375 -42.375,-42.375 0.0826,-21.73913 -11.39067,-31.404516 -11.01984,-71.404515 68.5994,0.0096 136.77131,44.74016 152.09194,116.367645 z"
         sodipodi:nodetypes="cccccccccc"
         inkscape:connector-curvature="0"
         opacity="1"
         stroke-dasharray="none"
         stroke-opacity="1"
         fill="url(#linearGradient3322)"
         stroke="none"
         stroke-linejoin="round"
         fill-opacity="1"
         stroke-linecap="round"
         stroke-width="0.9"
         stroke-miterlimit="4" />
    </g>
    <g
       id="g3350"
       transform="matrix(0.62753868,-0.6546066,0.69130197,0.50268375,-320.75782,392.71665)"
       stroke="none">
      <path
         id="path3352"
         d="m 636.48756,249.48756 c -23.50154,23.50154 -55.96248,38.04369 -91.80006,38.04369 0.49874,-39.56522 0.51736,-60.51223 0,-87.46875 11.69784,0 22.29159,-4.74483 29.96088,-12.41412 24.69644,22.33348 32.86517,30.93662 61.83918,61.83918 z M 544.6875,27.843748 c -0.064,39.56522 -0.0826,52.68614 0,87.468752 -11.69784,0 -22.29159,4.74483 -29.96088,12.41412 -24.83449,-26.61949 -34.16778,-36.156052 -61.83918,-61.839192 23.50154,-23.50154 55.96247,-38.04368 91.80006,-38.04368 z"
         sodipodi:nodetypes="cccccccccc"
         inkscape:connector-curvature="0"
         opacity="1"
         stroke-dasharray="none"
         stroke-opacity="1"
         fill="url(#linearGradient3354)"
         stroke="none"
         stroke-linejoin="round"
         fill-opacity="1"
         stroke-linecap="round"
         stroke-width="0.9"
         stroke-miterlimit="4" />
      <path
         sodipodi:nodetypes="cccccccccc"
         d="m 630.56751,243.5125 c -23.50154,23.50154 -53.32462,57.08626 -89.1622,57.08626 0.49874,-39.56522 0.96946,-65.12599 0.4521,-92.08251 15.51127,0.0864 23.41896,-18.10456 28.987,-25.82148 24.69644,22.33348 30.74909,29.91517 59.7231,60.81773 z M 544.14148,16.149666 c -0.064,39.56522 0.46342,64.380222 0.54602,99.162834 -11.69784,0 -22.29159,4.74483 -29.96088,12.41412 -24.83449,-26.61949 -28.5571,-26.53747 -56.2285,-52.220613 23.50154,-23.50154 49.80577,-59.356341 85.64336,-59.356341 z"
         id="path3364"
         inkscape:connector-curvature="0"
         opacity="1"
         stroke-dasharray="none"
         stroke-opacity="1"
         fill="url(#linearGradient3354)"
         stroke="none"
         stroke-linejoin="round"
         fill-opacity="1"
         stroke-linecap="round"
         stroke-width="0.9"
         stroke-miterlimit="4" />
    </g>
    <g
       transform="matrix(0.05750954,-0.93061056,0.82652064,-0.02059676,-35.369905,630.79775)"
       id="g3368"
       fill="url(#linearGradient3400)"
       stroke="none"
       fill-opacity="1">
      <path
         sodipodi:nodetypes="cccccccccc"
         d="m 630.53695,236.19042 c -22.95402,26.97913 -49.41759,52.70576 -87.30298,60.58276 0.49874,-39.56522 2.46386,-63.81179 1.9465,-90.76831 11.69784,0 17.4672,-12.49523 25.13649,-20.16452 24.69644,22.33348 31.24598,19.44751 60.21999,50.35007 z M 543.92077,20.162583 c -0.064,39.56522 1.30179,60.675897 1.38439,95.458507 -11.69784,0 -21.74407,8.22242 -29.41336,15.89171 -24.83449,-26.61949 -27.81872,-26.75389 -55.49012,-52.437031 23.10567,-22.796097 38.8251,-43.131057 83.51909,-58.913186 z"
         id="path3370"
         inkscape:connector-curvature="0"
         opacity="1"
         stroke-dasharray="none"
         stroke-opacity="1"
         fill="url(#linearGradient3400)"
         stroke="none"
         stroke-linejoin="round"
         fill-opacity="1"
         stroke-linecap="round"
         stroke-width="0.9"
         stroke-miterlimit="4" />
      <path
         id="path3372"
         d="m 631.88138,231.87805 c -18.00494,29.09575 -49.20618,57.26144 -86.74767,63.70824 0.49874,-39.56522 1.17404,-61.9642 0.65663,-88.92072 11.69784,0 21.18875,-11.3479 28.85804,-19.01719 24.69644,22.33348 28.25899,13.32711 57.233,44.22967 z M 544.85116,20.449415 c -0.064,39.56522 -0.24626,60.080473 -0.16366,94.863085 -11.69784,0 -22.29159,4.74483 -29.96088,12.41412 -24.83449,-26.61949 -26.31743,-24.0458 -53.98883,-49.728944 23.44091,-23.336919 43.43903,-44.415211 84.11337,-57.548261 z"
         sodipodi:nodetypes="cccccccccc"
         inkscape:connector-curvature="0"
         opacity="1"
         stroke-dasharray="none"
         stroke-opacity="1"
         fill="url(#linearGradient3400)"
         stroke="none"
         stroke-linejoin="round"
         fill-opacity="1"
         stroke-linecap="round"
         stroke-width="0.9"
         stroke-miterlimit="4" />
    </g>
    <g
       id="g3474"
       transform="matrix(0.887732,0.1281541,0,0.8651083,-354.34394,-83.819244)">
      <path
         id="path3278"
         d="m 544.6875,115.3125 c -23.39568,0 -42.37499,18.97931 -42.375,42.375 0,23.39568 18.97932,42.375 42.375,42.375 23.39568,0 42.37501,-18.97932 42.375,-42.375 0,-23.39568 -18.97931,-42.375 -42.375,-42.375 z m 0,25.4375 c 9.35075,1e-5 16.9375,7.58676 16.9375,16.9375 0,9.35074 -7.58676,16.9375 -16.9375,16.9375 -9.35073,0 -16.9375,-7.58676 -16.9375,-16.9375 2e-5,-9.35074 7.58676,-16.9375 16.9375,-16.9375 z"
         inkscape:connector-curvature="0"
         opacity="1"
         stroke-dasharray="none"
         stroke-opacity="1"
         fill="#c3c4ff"
         stroke="#9497aa"
         stroke-linejoin="round"
         fill-opacity="0.425"
         stroke-linecap="round"
         stroke-width="0.294"
         stroke-miterlimit="4" />
      <path
         id="path3286"
         d="m 544.82078,122.58547 c -19.29842,0 -34.96874,15.67032 -34.96875,34.96875 0,19.29842 15.67033,34.96875 34.96875,34.96875 19.29842,0 34.96875,-15.67033 34.96875,-34.96875 0,-19.29842 -15.67032,-34.96875 -34.96875,-34.96875 z m -0.0625,17.9375 c 9.50476,0 17.21875,7.714 17.21875,17.21875 10e-6,9.50476 -7.714,17.21875 -17.21875,17.21875 -9.50475,0 -17.21875,-7.714 -17.21875,-17.21875 0,-9.50475 7.714,-17.21875 17.21875,-17.21875 z"
         inkscape:connector-curvature="0"
         opacity="1"
         stroke-dasharray="none"
         stroke-opacity="1"
         fill="url(#radialGradient3299)"
         stroke="#9497aa"
         stroke-linejoin="round"
         fill-opacity="1"
         stroke-linecap="round"
         stroke-width="0.242"
         stroke-miterlimit="4" />
      <circle
         id="path3450"
         transform="matrix(0.8872874,0,0,0.8872874,61.392361,17.772664)"
         cx="544.68"
         cy="157.68"
         r="133.51"
         opacity="1"
         stroke-dasharray="none"
         stroke-opacity="1"
         fill="none"
         stroke="#888ae3"
         stroke-linejoin="round"
         fill-opacity="1"
         stroke-linecap="round"
         stroke-width="1.127"
         stroke-miterlimit="4" />
      <circle
         transform="matrix(0.8645874,0,0,0.8645874,73.756596,21.352024)"
         id="path3454"
         cx="544.68"
         cy="157.68"
         r="133.51"
         opacity="1"
         stroke-dasharray="none"
         stroke-opacity="1"
         fill="none"
         stroke="#888ae3"
         stroke-linejoin="round"
         fill-opacity="1"
         stroke-linecap="round"
         stroke-width="1.127"
         stroke-miterlimit="4" />
      <circle
         id="path3456"
         transform="matrix(0.8418874,0,0,0.8418874,86.120831,24.931384)"
         cx="544.68"
         cy="157.68"
         r="133.51"
         opacity="1"
         stroke-dasharray="none"
         stroke-opacity="1"
         fill="none"
         stroke="#888ae3"
         stroke-linejoin="round"
         fill-opacity="1"
         stroke-linecap="round"
         stroke-width="1.127"
         stroke-miterlimit="4" />
      <circle
         transform="matrix(0.8191874,0,0,0.8191874,98.485066,28.510744)"
         id="path3458"
         cx="544.68"
         cy="157.68"
         r="133.51"
         opacity="1"
         stroke-dasharray="none"
         stroke-opacity="1"
         fill="none"
         stroke="#888ae3"
         stroke-linejoin="round"
         fill-opacity="1"
         stroke-linecap="round"
         stroke-width="1.127"
         stroke-miterlimit="4" />
      <circle
         id="path3460"
         transform="matrix(0.7964874,0,0,0.7964874,110.8493,32.090104)"
         cx="544.68"
         cy="157.68"
         r="133.51"
         opacity="1"
         stroke-dasharray="none"
         stroke-opacity="1"
         fill="none"
         stroke="#888ae3"
         stroke-linejoin="round"
         fill-opacity="1"
         stroke-linecap="round"
         stroke-width="1.127"
         stroke-miterlimit="4" />
      <circle
         transform="matrix(0.7770303,0,0,0.7770303,121.44722,35.158127)"
         id="path3462"
         cx="544.68"
         cy="157.68"
         r="133.51"
         opacity="1"
         stroke-dasharray="none"
         stroke-opacity="1"
         fill="none"
         stroke="#888ae3"
         stroke-linejoin="round"
         fill-opacity="1"
         stroke-linecap="round"
         stroke-width="1.127"
         stroke-miterlimit="4" />
      <circle
         id="path3464"
         transform="matrix(0.7575732,0,0,0.7575732,132.04514,38.22615)"
         cx="544.68"
         cy="157.68"
         r="133.51"
         opacity="1"
         stroke-dasharray="none"
         stroke-opacity="1"
         fill="none"
         stroke="#888ae3"
         stroke-linejoin="round"
         fill-opacity="1"
         stroke-linecap="round"
         stroke-width="1.127"
         stroke-miterlimit="4" />
      <circle
         transform="matrix(0.7348732,0,0,0.7348732,144.40938,41.80551)"
         id="path3466"
         cx="544.68"
         cy="157.68"
         r="133.51"
         opacity="1"
         stroke-dasharray="none"
         stroke-opacity="1"
         fill="none"
         stroke="#888ae3"
         stroke-linejoin="round"
         fill-opacity="1"
         stroke-linecap="round"
         stroke-width="1.127"
         stroke-miterlimit="4" />
      <circle
         id="path3468"
         transform="matrix(0.7121732,0,0,0.7121732,156.77362,45.38487)"
         cx="544.68"
         cy="157.68"
         r="133.51"
         opacity="1"
         stroke-dasharray="none"
         stroke-opacity="1"
         fill="none"
         stroke="#888ae3"
         stroke-linejoin="round"
         fill-opacity="1"
         stroke-linecap="round"
         stroke-width="1.127"
         stroke-miterlimit="4" />
      <circle
         transform="matrix(0.6862304,0,0,0.6862304,170.90417,49.475568)"
         id="path3470"
         cx="544.68"
         cy="157.68"
         r="133.51"
         opacity="1"
         stroke-dasharray="none"
         stroke-opacity="1"
         fill="none"
         stroke="#888ae3"
         stroke-linejoin="round"
         fill-opacity="1"
         stroke-linecap="round"
         stroke-width="1.127"
         stroke-miterlimit="4" />
      <circle
         id="path3472"
         transform="matrix(0.6602876,0,0,0.6602876,185.03472,53.566266)"
         cx="544.68"
         cy="157.68"
         r="133.51"
         opacity="1"
         stroke-dasharray="none"
         stroke-opacity="1"
         fill="none"
         stroke="#888ae3"
         stroke-linejoin="round"
         fill-opacity="1"
         stroke-linecap="round"
         stroke-width="1.127"
         stroke-miterlimit="4" />
    </g>
    <g
       id="g3394"
       transform="matrix(0.66279874,0.67119611,-0.59056408,0.56065286,-140.15394,-330.72689)"
       fill="url(#linearGradient3958)"
       fill-opacity="1">
      <path
         id="path3396"
         d="m 636.48756,249.48756 c -23.50154,23.50154 -55.96248,38.04369 -91.80006,38.04369 0.49874,-39.56522 0.51736,-60.51223 0,-87.46875 11.69784,0 22.29159,-4.74483 29.96088,-12.41412 24.69644,22.33348 32.86517,30.93662 61.83918,61.83918 z M 544.6875,27.843748 c -0.064,39.56522 -0.0826,52.68614 0,87.468752 -11.69784,0 -22.29159,4.74483 -29.96088,12.41412 -24.83449,-26.61949 -34.16778,-36.156052 -61.83918,-61.839192 23.50154,-23.50154 55.96247,-38.04368 91.80006,-38.04368 z"
         sodipodi:nodetypes="cccccccccc"
         inkscape:connector-curvature="0"
         opacity="1"
         stroke-dasharray="none"
         stroke-opacity="1"
         fill="url(#linearGradient3400)"
         stroke="none"
         stroke-linejoin="round"
         fill-opacity="1"
         stroke-linecap="round"
         stroke-width="0.9"
         stroke-miterlimit="4" />
      <path
         sodipodi:nodetypes="cccccccccc"
         d="m 636.48756,249.48756 c -23.50154,23.50154 -55.96248,38.04369 -91.80006,38.04369 0.49874,-39.56522 0.51736,-60.51223 0,-87.46875 11.69784,0 22.29159,-4.74483 29.96088,-12.41412 24.69644,22.33348 32.86517,30.93662 61.83918,61.83918 z M 544.6875,27.843748 c -0.064,39.56522 -0.0826,52.68614 0,87.468752 -11.69784,0 -22.29159,4.74483 -29.96088,12.41412 -24.83449,-26.61949 -34.16778,-36.156052 -61.83918,-61.839192 23.50154,-23.50154 55.96247,-38.04368 91.80006,-38.04368 z"
         id="path3398"
         inkscape:connector-curvature="0"
         opacity="1"
         stroke-dasharray="none"
         stroke-opacity="1"
         fill="url(#linearGradient3402)"
         stroke="none"
         stroke-linejoin="round"
         fill-opacity="1"
         stroke-linecap="round"
         stroke-width="0.9"
         stroke-miterlimit="4" />
    </g>
    <g
       transform="matrix(-0.15201083,-0.81322961,0.89739654,-0.25126421,-2.4525274,600.03882)"
       id="g3426">
      <path
         id="path3428"
         d="m 517.26655,273.77775 c -0.51736,31.30435 -0.53954,45.00984 -0.0408,80.662 -79.22679,19.24023 -161.13465,-36.08195 -138.01987,-119.57184 39.56522,0.49874 60.11841,7.5743 87.07493,7.05694 0,23.39568 28.90757,41.46634 50.98574,31.8529 z m 142.43402,-43.80414 c -39.56522,-0.064 -64.57012,5.99941 -99.35273,6.08201 3.99054,-26.54715 -16.78209,-44.11022 -42.375,-42.375 0.0826,-21.73913 -0.34357,-34.83585 0.0273,-74.83585 81.82979,-14.575 153.59996,26.93552 141.70047,111.12884 z"
         sodipodi:nodetypes="ccccccccccc"
         inkscape:connector-curvature="0"
         opacity="1"
         stroke-dasharray="none"
         stroke-opacity="1"
         fill="url(#linearGradient3432)"
         stroke="none"
         stroke-linejoin="round"
         fill-opacity="1"
         stroke-linecap="round"
         stroke-width="0.9"
         stroke-miterlimit="4" />
    </g>
    <ellipse
       id="path3446"
       transform="matrix(0.98974,0.1428801,0,1,0,0)"
       cx="131.11"
       cy="104.53"
       rx="112.04"
       ry="108.06"
       opacity="1"
       stroke-dasharray="none"
       stroke-opacity="1"
       fill="none"
       stroke="url(#linearGradient3448)"
       stroke-linejoin="round"
       fill-opacity="1"
       stroke-linecap="round"
       stroke-width="1.166"
       stroke-miterlimit="4" />
    <path
       d="m 190.76078,58.675053 -29.32561,3.389888 c -23.53907,2.684295 -47.07934,5.365196 -70.620283,8.044022 l -4.42017,0.388117 0.0495,0.252195 -0.0124,-0.0131 7.24454,38.392525 h 0.15039 l 14.553973,80.62854 c -0.68429,-0.23625 -1.40161,-0.46019 -2.16659,-0.66323 a 30.254105,19.806314 0.99945017 0 0 -6.827043,-1.87673 30.254105,19.806314 0.99945017 0 0 -15.24058,-0.33734 30.254105,19.806314 0.99945017 0 0 -22.30538,23.68172 30.254105,19.806314 0.99945017 0 0 21.65901,14.70917 30.254105,19.806314 0.99945017 0 0 15.26295,0.34226 30.254105,19.806314 0.99945017 0 0 3.996263,-0.81062 c 3.95339,-0.86867 7.39279,-2.34517 10.18906,-4.25456 a 30.254105,19.806314 0.99945017 0 0 8.11811,-18.61654 30.254105,19.806314 0.99945017 0 0 -1.02484,-2.15021 l -6.95222,-36.96779 -10.12733,-56.10507 80.7514,-10.552874 7.15529,-0.83847 0.3786,2.01101 14.71152,81.501414 a 30.254105,19.806314 0.99945017 0 0 -10.1808,-3.30637 30.254105,19.806314 0.99945017 0 0 -15.23667,-0.33735 30.254105,19.806314 0.99945017 0 0 -22.30538,23.68172 30.254105,19.806314 0.99945017 0 0 21.67912,14.71244 30.254105,19.806314 0.99945017 0 0 15.24284,0.33899 30.254105,19.806314 0.99945017 0 0 2.57413,-0.47655 c 0.15952,-0.0293 0.31726,-0.0526 0.47711,-0.0835 14.35767,-2.7825 22.06835,-12.25084 20.07098,-22.36179 l -23.59591,-129.822875 -0.39277,-0.239093 0.23296,-0.02948 z"
       id="path1195"
       inkscape:connector-curvature="0"
       stroke-dasharray="none"
       stroke-opacity="1"
       fill="#000000"
       filter="url(#filter1280)"
       stroke="none"
       stroke-linejoin="round"
       fill-opacity="0.522"
       stroke-linecap="round"
       stroke-width="0.848"
       stroke-miterlimit="4" />
    <g
       id="g1136"
       transform="translate(241.76164,-4.9398412)">
      <path
         sodipodi:nodetypes="ccccsssccccssscccc"
         id="path3563"
         d="m -130.35035,38.276596 -0.0277,0.271462 h -0.36064 l 2.03405,142.675552 c -5.45832,-3.13554 -16.44684,-4.4279 -24.00116,-3.07658 -14.71606,2.63242 -29.16798,12.49481 -27.21921,27.65307 1.87556,14.5888 20.65491,19.56165 35.37099,16.92923 14.71606,-2.63242 24.90754,-14.47911 24.12115,-26.49075 L -121.16783,80.161468 -30.757871,67.794841 V 167.88583 c -5.278605,-2.96062 -15.58289,-5.11375 -22.795118,-4.03881 -14.775713,2.20227 -29.477211,10.65656 -27.594421,27.51034 1.24636,11.15678 16.559633,21.65532 36.40776,17.22278 14.859933,-3.31856 24.279754,-14.60985 24.107472,-26.66874 L -20.794677,27.077451 -24.370053,24.166333 C -59.693309,28.895709 -95.02306,33.57727 -130.35035,38.276596 Z"
         inkscape:connector-curvature="0"
         stroke-dasharray="none"
         stroke-opacity="1"
         fill="#00149a"
         stroke="#2c2eac"
         stroke-linejoin="round"
         fill-opacity="1"
         stroke-linecap="round"
         stroke-width="0.926"
         stroke-miterlimit="4" />
      <g
         id="g1107"
         transform="matrix(1.1324753,0,0,1.0913463,142.92157,-30.957512)">
        <ellipse
           id="ellipse1101"
           transform="matrix(0.98442489,-0.17580569,0.14937546,0.98878055,0,0)"
           cx="-199.89"
           cy="165.61"
           rx="27.08"
           ry="21.359"
           stroke-dasharray="none"
           stroke-opacity="1"
           fill="url(#radialGradient1109)"
           stroke="#888ae3"
           stroke-linejoin="round"
           fill-opacity="1"
           stroke-linecap="round"
           stroke-width="0.926"
           stroke-miterlimit="4" />
        <ellipse
           transform="matrix(0.98442489,-0.17580569,0.14937546,0.98878055,0,0)"
           id="ellipse1103"
           cx="-199.55"
           cy="165.76"
           rx="27.08"
           ry="21.359"
           stroke-dasharray="none"
           stroke-opacity="1"
           fill="url(#radialGradient1111)"
           stroke="none"
           stroke-linejoin="round"
           fill-opacity="1"
           stroke-linecap="round"
           stroke-width="0.926"
           stroke-miterlimit="4" />
        <ellipse
           transform="matrix(0.97535988,-0.22061983,0.14639504,0.98922621,0,0)"
           id="ellipse1105"
           cx="-200.21"
           cy="148.24"
           rx="19.91"
           ry="11.909"
           stroke-dasharray="none"
           stroke-opacity="1"
           fill="url(#linearGradient1113)"
           stroke="none"
           stroke-linejoin="round"
           fill-opacity="1"
           stroke-linecap="round"
           stroke-width="0.98"
           stroke-miterlimit="4" />
      </g>
      <path
         sodipodi:nodetypes="ccccc"
         id="rect3573"
         d="m -130.30841,48.879844 h 9.5726 V 195.2512 c -1.37976,-4.32072 -4.74545,-11.25667 -9.5726,-13.90193 z"
         inkscape:connector-curvature="0"
         stroke-opacity="1"
         fill="url(#linearGradient3526)"
         stroke="none"
         stroke-linejoin="round"
         fill-opacity="1"
         stroke-linecap="round"
         stroke-width="1.01"
         stroke-miterlimit="4" />
      <path
         sodipodi:nodetypes="ccccc"
         id="rect3598"
         d="m -30.966949,37.006351 9.572591,-9.215142 V 181.28336 c -0.297319,-6.21017 -4.77222,-10.54414 -8.744652,-12.75849 z"
         inkscape:connector-curvature="0"
         stroke-opacity="0.546"
         fill="url(#linearGradient3530)"
         stroke="none"
         stroke-linejoin="round"
         fill-opacity="1"
         stroke-linecap="round"
         stroke-width="1.01"
         stroke-miterlimit="4" />
      <path
         sodipodi:nodetypes="ccccc"
         id="path3578"
         d="m -130.18742,82.823339 -0.58116,-44.628427 109.434011,-11.261733 -0.704549,39.420475 z"
         inkscape:connector-curvature="0"
         stroke-opacity="1"
         fill="url(#linearGradient3532)"
         fill-rule="evenodd"
         stroke="none"
         stroke-linejoin="miter"
         fill-opacity="1"
         stroke-linecap="butt"
         stroke-width="0.888" />
      <path
         sodipodi:nodetypes="ccccc"
         id="path3644"
         d="m -127.65618,77.324699 c 20.48712,-32.833432 76.773542,-13.117448 105.483252,-40.067973 l -0.30968,-9.464395 -106.034652,14.904602 c -0.0627,16.366677 0.86108,34.627766 0.86108,34.627766 z"
         inkscape:connector-curvature="0"
         stroke-opacity="1"
         fill="url(#linearGradient3542)"
         fill-rule="evenodd"
         stroke="none"
         stroke-linejoin="miter"
         fill-opacity="1"
         stroke-linecap="butt"
         stroke-width="0.888" />
      <path
         sodipodi:nodetypes="ccccc"
         id="path3654"
         d="m -130.4439,38.431846 2.53219,3.978806 107.006155,-15.654855 -3.362391,-2.659057 z"
         inkscape:connector-curvature="0"
         stroke-opacity="1"
         fill="url(#linearGradient3544)"
         fill-rule="evenodd"
         stroke="none"
         stroke-linejoin="miter"
         fill-opacity="1"
         stroke-linecap="butt"
         stroke-width="0.888" />
      <path
         sodipodi:nodetypes="ccccc"
         inkscape:connector-curvature="0"
         id="rect4514"
         d="m -130.77358,38.481864 2.18489,3.610795 v 42.176869 h -1.87074 z"
         opacity="1"
         stroke-dasharray="none"
         stroke-opacity="0.47"
         fill="url(#linearGradient4523)"
         fill-rule="nonzero"
         stroke="none"
         stroke-linejoin="round"
         fill-opacity="1"
         stroke-linecap="round"
         stroke-width="0.7"
         stroke-dashoffset="0"
         stroke-miterlimit="4" />
      <path
         sodipodi:nodetypes="cc"
         inkscape:connector-curvature="0"
         id="path4525"
         d="M -128.02527,42.961923 -21.108702,27.463731"
         stroke-opacity="1"
         fill="#8697ef"
         fill-rule="evenodd"
         stroke="#a5c3e6"
         stroke-linejoin="miter"
         fill-opacity="1"
         stroke-linecap="round"
         stroke-width="1" />
      <g
         transform="matrix(1.1324753,0,0,1.0913463,44.124747,-15.84741)"
         id="g1112">
        <ellipse
           ry="21.359"
           rx="27.08"
           cy="165.61"
           cx="-199.89"
           transform="matrix(0.98442489,-0.17580569,0.14937546,0.98878055,0,0)"
           id="ellipse1106"
           stroke-dasharray="none"
           stroke-opacity="1"
           fill="url(#radialGradient1109)"
           stroke="#888ae3"
           stroke-linejoin="round"
           fill-opacity="1"
           stroke-linecap="round"
           stroke-width="0.926"
           stroke-miterlimit="4" />
        <ellipse
           ry="21.359"
           rx="27.08"
           cy="165.76"
           cx="-199.55"
           id="ellipse1108"
           transform="matrix(0.98442489,-0.17580569,0.14937546,0.98878055,0,0)"
           stroke-dasharray="none"
           stroke-opacity="1"
           fill="url(#radialGradient1111)"
           stroke="none"
           stroke-linejoin="round"
           fill-opacity="1"
           stroke-linecap="round"
           stroke-width="0.926"
           stroke-miterlimit="4" />
        <ellipse
           ry="11.909"
           rx="19.91"
           cy="148.24"
           cx="-200.21"
           id="ellipse1110"
           transform="matrix(0.97535988,-0.22061983,0.14639504,0.98922621,0,0)"
           stroke-dasharray="none"
           stroke-opacity="1"
           fill="url(#linearGradient1113)"
           stroke="none"
           stroke-linejoin="round"
           fill-opacity="1"
           stroke-linecap="round"
           stroke-width="0.98"
           stroke-miterlimit="4" />
      </g>
    </g>
    <g
       id="g1301"
       transform="matrix(0.54846761,0,0,0.54846761,123.26096,113.43418)">
      <path
         id="path1284"
         d="m -70.061775,72.383207 20.226377,30.766893 11.574122,-34.953508 -7.453271,36.057688 32.900004,-16.531723 -30.766894,20.226373 34.9535093,11.57413 -36.0576883,-7.45327 16.531723,32.9 -20.226377,-30.76689 -11.574122,34.9535 7.453271,-36.05768 -32.900004,16.53172 30.766894,-20.22638 -34.953509,-11.57412 36.057688,7.45327 z"
         inkscape:connector-curvature="0"
         stroke-miterlimit="4"
         style="opacity:1;fill:url(#radialGradient962);fill-opacity:1;stroke:none;stroke-width:0.5;stroke-linecap:round;stroke-linejoin:round;stroke-miterlimit:4;stroke-dasharray:none;stroke-dashoffset:0;stroke-opacity:1" />
      <path
         inkscape:connector-curvature="0"
         d="m -82.54105,83.408126 30.610989,20.461554 -2.95119,-36.701473 7.176731,36.113743 23.865058,-28.038669 -20.46156,30.610989 36.701482,-2.95119 -36.113746,7.17674 28.03867,23.86505 -30.610988,-20.46156 2.951187,36.70148 -7.176728,-36.11374 -23.865059,28.03867 20.461558,-30.611 -36.701479,2.9512 36.113746,-7.17674 z"
         id="path1295"
         stroke-miterlimit="4"
         style="opacity:1;fill:url(#radialGradient964);fill-opacity:1;stroke:none;stroke-width:0.5;stroke-linecap:round;stroke-linejoin:round;stroke-miterlimit:4;stroke-dasharray:none;stroke-dashoffset:0;stroke-opacity:1" />
    </g>
    <g
       transform="matrix(0.54846761,0,0,0.54846761,244.14178,-36.795107)"
       id="g1307">
      <path
         inkscape:connector-curvature="0"
         d="m -70.061775,72.383207 20.226377,30.766893 11.574122,-34.953508 -7.453271,36.057688 32.900004,-16.531723 -30.766894,20.226373 34.9535093,11.57413 -36.0576883,-7.45327 16.531723,32.9 -20.226377,-30.76689 -11.574122,34.9535 7.453271,-36.05768 -32.900004,16.53172 30.766894,-20.22638 -34.953509,-11.57412 36.057688,7.45327 z"
         id="path1303"
         opacity="1"
         stroke-dasharray="none"
         stroke-opacity="1"
         fill="url(#radialGradient1292)"
         stroke="none"
         stroke-linejoin="round"
         fill-opacity="1"
         stroke-linecap="round"
         stroke-width="0.5"
         stroke-dashoffset="0"
         stroke-miterlimit="4" />
      <path
         id="path1305"
         d="m -82.54105,83.408126 30.610989,20.461554 -2.95119,-36.701473 7.176731,36.113743 23.865058,-28.038669 -20.46156,30.610989 36.701482,-2.95119 -36.113746,7.17674 28.03867,23.86505 -30.610988,-20.46156 2.951187,36.70148 -7.176728,-36.11374 -23.865059,28.03867 20.461558,-30.611 -36.701479,2.9512 36.113746,-7.17674 z"
         inkscape:connector-curvature="0"
         opacity="1"
         stroke-dasharray="none"
         stroke-opacity="1"
         fill="url(#radialGradient1297)"
         stroke="none"
         stroke-linejoin="round"
         fill-opacity="1"
         stroke-linecap="round"
         stroke-width="0.5"
         stroke-dashoffset="0"
         stroke-miterlimit="4" />
    </g>
  </g>
</svg>
