<?xml version="1.0" encoding="UTF-8" standalone="no"?>
<!-- Created with Inkscape (http://www.inkscape.org/) -->

<svg
   xmlns:dc="http://purl.org/dc/elements/1.1/"
   xmlns:cc="http://creativecommons.org/ns#"
   xmlns:rdf="http://www.w3.org/1999/02/22-rdf-syntax-ns#"
   xmlns:svg="http://www.w3.org/2000/svg"
   xmlns="http://www.w3.org/2000/svg"
   xmlns:xlink="http://www.w3.org/1999/xlink"
   xmlns:sodipodi="http://sodipodi.sourceforge.net/DTD/sodipodi-0.dtd"
   xmlns:inkscape="http://www.inkscape.org/namespaces/inkscape"
   id="svg2"
   sodipodi:version="0.32"
   inkscape:version="0.91 r13725"
   width="256"
   height="256"
   sodipodi:docname="folder-mp3.svg"
   version="1.1">
  <metadata
     id="metadata7">
    <rdf:RDF>
      <cc:Work>
        <dc:format>image/svg+xml</dc:format>
        <dc:type
           rdf:resource="http://purl.org/dc/dcmitype/StillImage" />
        <dc:title />
      </cc:Work>
    </rdf:RDF>
  </metadata>
  <defs
     id="defs5">
    <linearGradient
       inkscape:collect="always"
       id="linearGradient2937">
      <stop
         id="stop2939"
         stop-color="#a9a7a6"
         stop-opacity="1" />
      <stop
         offset="1"
         id="stop2941"
         stop-color="white"
         stop-opacity="1" />
    </linearGradient>
    <linearGradient
       inkscape:collect="always"
       id="linearGradient2919">
      <stop
         id="stop2921"
         stop-color="#675757"
         stop-opacity="1" />
      <stop
         offset="1"
         id="stop2923"
         stop-color="#d8d1d1"
         stop-opacity="1" />
    </linearGradient>
    <linearGradient
       inkscape:collect="always"
       id="linearGradient2791">
      <stop
         id="stop2793"
         stop-color="black"
         stop-opacity="1" />
      <stop
         offset="1"
         id="stop2795"
         stop-color="#a2abbf"
         stop-opacity="1" />
    </linearGradient>
    <linearGradient
       inkscape:collect="always"
       id="linearGradient2767">
      <stop
         id="stop2769"
         stop-color="#91949b"
         stop-opacity="1" />
      <stop
         offset="1"
         id="stop2771"
         stop-color="#fcfdff"
         stop-opacity="1" />
    </linearGradient>
    <linearGradient
       inkscape:collect="always"
       xlink:href="#linearGradient2767"
       id="linearGradient3082"
       gradientUnits="userSpaceOnUse"
       gradientTransform="translate(0,3.177305)"
       spreadMethod="reflect"
       x1="182.65"
       y1="45.28"
       x2="192.23"
       y2="41.872" />
    <linearGradient
       inkscape:collect="always"
       xlink:href="#linearGradient2767"
       id="linearGradient3084"
       gradientUnits="userSpaceOnUse"
       gradientTransform="matrix(-0.684746,0,0,1.002734,326.7385,-5.905816)"
       spreadMethod="reflect"
       x1="195.52"
       y1="94.64"
       x2="195.52"
       y2="78.979" />
    <linearGradient
       inkscape:collect="always"
       xlink:href="#linearGradient2791"
       id="linearGradient3086"
       gradientUnits="userSpaceOnUse"
       spreadMethod="reflect"
       x1="160.45"
       y1="91.69"
       x2="164.09"
       y2="63.773" />
    <linearGradient
       inkscape:collect="always"
       xlink:href="#linearGradient2767"
       id="linearGradient3088"
       gradientUnits="userSpaceOnUse"
       spreadMethod="reflect"
       x1="168.85"
       y1="103.72"
       x2="171.12"
       y2="81.02" />
    <linearGradient
       inkscape:collect="always"
       xlink:href="#linearGradient2767"
       id="linearGradient3090"
       gradientUnits="userSpaceOnUse"
       spreadMethod="reflect"
       x1="171.1"
       y1="96.45"
       x2="179.31"
       y2="72.4" />
    <linearGradient
       inkscape:collect="always"
       xlink:href="#linearGradient2767"
       id="linearGradient3092"
       gradientUnits="userSpaceOnUse"
       spreadMethod="reflect"
       x1="195.52"
       y1="94.64"
       x2="195.52"
       y2="78.979" />
    <linearGradient
       inkscape:collect="always"
       xlink:href="#linearGradient2767"
       id="linearGradient3094"
       gradientUnits="userSpaceOnUse"
       spreadMethod="reflect"
       x1="198.01"
       y1="102.81"
       x2="195.52"
       y2="61.28" />
    <linearGradient
       inkscape:collect="always"
       xlink:href="#linearGradient2767"
       id="linearGradient3096"
       gradientUnits="userSpaceOnUse"
       gradientTransform="matrix(0.684746,0,0,1.002734,58.86462,-5.678866)"
       spreadMethod="reflect"
       x1="195.52"
       y1="94.64"
       x2="195.52"
       y2="78.979" />
    <linearGradient
       inkscape:collect="always"
       xlink:href="#linearGradient2767"
       id="linearGradient3098"
       gradientUnits="userSpaceOnUse"
       spreadMethod="reflect"
       x1="194.04"
       y1="60.823"
       x2="190.87"
       y2="60.823" />
    <linearGradient
       inkscape:collect="always"
       xlink:href="#linearGradient2767"
       id="linearGradient3100"
       gradientUnits="userSpaceOnUse"
       gradientTransform="matrix(1.5379391,0,0,1.5379391,-336.80952,38.547934)"
       spreadMethod="reflect"
       x1="198.01"
       y1="102.81"
       x2="195.52"
       y2="61.28" />
    <linearGradient
       inkscape:collect="always"
       xlink:href="#linearGradient2767"
       id="linearGradient3102"
       gradientUnits="userSpaceOnUse"
       gradientTransform="matrix(-1.5379391,0,0,1.5379391,327.7346,48.320937)"
       spreadMethod="reflect"
       x1="182.65"
       y1="45.28"
       x2="192.23"
       y2="41.872" />
    <linearGradient
       inkscape:collect="always"
       xlink:href="#linearGradient2767"
       id="linearGradient3104"
       gradientUnits="userSpaceOnUse"
       gradientTransform="matrix(-1.0530976,0,0,1.5421438,236.85548,28.767076)"
       spreadMethod="reflect"
       x1="195.52"
       y1="94.64"
       x2="195.52"
       y2="78.979" />
    <linearGradient
       inkscape:collect="always"
       xlink:href="#linearGradient2767"
       id="linearGradient3106"
       gradientUnits="userSpaceOnUse"
       gradientTransform="matrix(1.5379391,0,0,1.5379391,-336.80952,38.547934)"
       spreadMethod="reflect"
       x1="195.52"
       y1="94.64"
       x2="195.52"
       y2="78.979" />
    <linearGradient
       inkscape:collect="always"
       xlink:href="#linearGradient2767"
       id="linearGradient3108"
       gradientUnits="userSpaceOnUse"
       gradientTransform="matrix(-1.5379391,0,0,1.5379391,336.80952,38.547934)"
       spreadMethod="reflect"
       x1="171.1"
       y1="96.45"
       x2="179.31"
       y2="72.4" />
    <linearGradient
       inkscape:collect="always"
       xlink:href="#linearGradient2767"
       id="linearGradient3110"
       gradientUnits="userSpaceOnUse"
       gradientTransform="matrix(1.5379391,0,0,1.5379391,-328.43268,41.689256)"
       spreadMethod="reflect"
       x1="194.04"
       y1="60.823"
       x2="190.87"
       y2="60.823" />
    <linearGradient
       inkscape:collect="always"
       xlink:href="#linearGradient2767"
       id="linearGradient3112"
       gradientUnits="userSpaceOnUse"
       gradientTransform="matrix(1.5379391,0,0,1.5379391,-336.80952,38.547934)"
       spreadMethod="reflect"
       x1="168.85"
       y1="103.72"
       x2="171.12"
       y2="81.02" />
    <linearGradient
       inkscape:collect="always"
       xlink:href="#linearGradient2767"
       id="linearGradient3114"
       gradientUnits="userSpaceOnUse"
       gradientTransform="matrix(1.0530976,0,0,1.5421438,-172.67503,30.512256)"
       spreadMethod="reflect"
       x1="195.52"
       y1="94.64"
       x2="195.52"
       y2="78.979" />
    <linearGradient
       inkscape:collect="always"
       xlink:href="#linearGradient2791"
       id="linearGradient3116"
       gradientUnits="userSpaceOnUse"
       gradientTransform="matrix(1.5379391,0,0,1.5379391,-336.46041,40.293113)"
       spreadMethod="reflect"
       x1="160.45"
       y1="91.69"
       x2="164.09"
       y2="63.773" />
    <linearGradient
       inkscape:collect="always"
       xlink:href="#linearGradient2791"
       id="linearGradient3118"
       gradientUnits="userSpaceOnUse"
       gradientTransform="matrix(1.5379391,0,0,1.5379391,-336.46041,40.293113)"
       spreadMethod="reflect"
       x1="167.26"
       y1="127.32"
       x2="160.23"
       y2="42.44" />
    <linearGradient
       inkscape:collect="always"
       xlink:href="#linearGradient2937"
       id="linearGradient3120"
       gradientUnits="userSpaceOnUse"
       spreadMethod="reflect"
       x1="133.52"
       y1="10.9"
       x2="176.26"
       y2="16.801" />
    <linearGradient
       inkscape:collect="always"
       xlink:href="#linearGradient2919"
       id="linearGradient3124"
       gradientUnits="userSpaceOnUse"
       gradientTransform="translate(104.8511,9.758865)"
       x1="57.756"
       y1="97.61"
       x2="48.613"
       y2="2.145" />
    <linearGradient
       inkscape:collect="always"
       xlink:href="#linearGradient2791"
       id="linearGradient4244"
       gradientUnits="userSpaceOnUse"
       gradientTransform="matrix(1.1678598,0,0,1.1678598,-273.67818,-265.04713)"
       spreadMethod="reflect"
       x1="167.26"
       y1="127.32"
       x2="160.23"
       y2="42.44" />
    <filter
       inkscape:collect="always"
       style="color-interpolation-filters:sRGB"
       id="filter4251"
       x="-0.01159204"
       width="1.0231841"
       y="-0.011845338"
       height="1.0236907">
      <feGaussianBlur
         inkscape:collect="always"
         stdDeviation="0.96937031"
         id="feGaussianBlur4253" />
    </filter>
    <linearGradient
       id="linearGradient4378">
      <stop
         id="stop4380"
         stop-color="#595959"
         stop-opacity="1" />
      <stop
         offset="0.304"
         id="stop4382"
         stop-color="#5c5c5c"
         stop-opacity="1" />
      <stop
         id="stop4384"
         offset="0.561"
         stop-color="#a3a3a3"
         stop-opacity="1" />
      <stop
         id="stop4386"
         offset="1"
         stop-color="#5c5c5c"
         stop-opacity="1" />
    </linearGradient>
    <linearGradient
       id="linearGradient4310">
      <stop
         stop-opacity="1"
         stop-color="#cecece"
         id="stop4312" />
      <stop
         stop-opacity="1"
         stop-color="#3a3a3a"
         id="stop4314"
         offset="1" />
    </linearGradient>
    <linearGradient
       id="linearGradient4290">
      <stop
         id="stop4292"
         stop-color="#a8a8a8"
         stop-opacity="1" />
      <stop
         id="stop4294"
         offset="1"
         stop-color="#272727"
         stop-opacity="1" />
    </linearGradient>
    <linearGradient
       id="linearGradient4331">
      <stop
         stop-opacity="1"
         stop-color="#616161"
         id="stop4333" />
      <stop
         stop-opacity="1"
         stop-color="#cbcbcb"
         id="stop4335"
         offset="1" />
    </linearGradient>
    <linearGradient
       id="linearGradient4325">
      <stop
         stop-opacity="1"
         stop-color="#bababa"
         id="stop4327" />
      <stop
         stop-opacity="1"
         stop-color="#000000"
         id="stop4329"
         offset="1" />
    </linearGradient>
    <linearGradient
       id="linearGradient4319">
      <stop
         stop-opacity="1"
         stop-color="#a6a6a6"
         id="stop4321" />
      <stop
         stop-opacity="0"
         stop-color="#666666"
         offset="1"
         id="stop4323" />
    </linearGradient>
    <linearGradient
       id="linearGradient4297">
      <stop
         stop-opacity="1"
         stop-color="#9b9b9b"
         id="stop4299" />
      <stop
         stop-opacity="1"
         stop-color="#606060"
         id="stop4302"
         offset="0.5" />
      <stop
         stop-opacity="1"
         stop-color="#c6c6c6"
         offset="0.75"
         id="stop4305" />
      <stop
         stop-opacity="1"
         stop-color="#6d6d6d"
         offset="1"
         id="stop4307" />
    </linearGradient>
    <linearGradient
       id="linearGradient4372">
      <stop
         stop-opacity="1"
         stop-color="#8c8c8c"
         id="stop4374" />
      <stop
         stop-opacity="1"
         stop-color="#707070"
         offset="1"
         id="stop4376" />
    </linearGradient>
    <linearGradient
       id="linearGradient4342">
      <stop
         stop-opacity="1"
         stop-color="#828282"
         id="stop4344" />
      <stop
         stop-opacity="1"
         stop-color="#282828"
         offset="1"
         id="stop4346" />
    </linearGradient>
    <linearGradient
       id="linearGradient4336">
      <stop
         stop-opacity="1"
         stop-color="#616161"
         id="stop4338" />
      <stop
         stop-opacity="1"
         stop-color="#e4e4e4"
         offset="1"
         id="stop4340" />
    </linearGradient>
    <linearGradient
       id="linearGradient4299">
      <stop
         stop-opacity="1"
         stop-color="#ffffff"
         id="stop4301" />
      <stop
         stop-opacity="0"
         stop-color="#dddddd"
         id="stop4303"
         offset="1" />
    </linearGradient>
    <linearGradient
       id="linearGradient4293">
      <stop
         stop-opacity="0.646"
         stop-color="#d1d1d1"
         id="stop4295" />
      <stop
         stop-opacity="0"
         stop-color="#c9c9c9"
         offset="1"
         id="stop4297" />
    </linearGradient>
    <linearGradient
       id="linearGradient3877">
      <stop
         stop-opacity="1"
         stop-color="#212121"
         id="stop3879" />
      <stop
         stop-opacity="1"
         stop-color="#e4e4e4"
         id="stop3881"
         offset="1" />
    </linearGradient>
    <linearGradient
       id="linearGradient3871">
      <stop
         stop-opacity="1"
         stop-color="#d8d8d8"
         id="stop3873" />
      <stop
         stop-opacity="1"
         stop-color="#252525"
         offset="1"
         id="stop3875" />
    </linearGradient>
    <linearGradient
       id="linearGradient3863">
      <stop
         stop-opacity="1"
         stop-color="#aaaaaa"
         id="stop3865" />
      <stop
         stop-opacity="1"
         stop-color="#1d1d1d"
         offset="0.5"
         id="stop3350" />
      <stop
         stop-opacity="1"
         stop-color="#acacac"
         id="stop3352"
         offset="0.75" />
      <stop
         stop-opacity="1"
         stop-color="#878787"
         id="stop3867"
         offset="1" />
    </linearGradient>
    <linearGradient
       id="linearGradient3831">
      <stop
         stop-opacity="1"
         stop-color="#000000"
         id="stop3833" />
      <stop
         stop-opacity="1"
         stop-color="#a7a7a7"
         offset="1"
         id="stop3835" />
    </linearGradient>
    <linearGradient
       id="linearGradient3803">
      <stop
         stop-opacity="1"
         stop-color="#909090"
         id="stop3805" />
      <stop
         stop-opacity="1"
         stop-color="#000000"
         id="stop3807"
         offset="1" />
    </linearGradient>
    <linearGradient
       id="linearGradient2762">
      <stop
         id="stop2764"
         stop-color="white"
         stop-opacity="1" />
      <stop
         id="stop2770"
         offset="0.5"
         stop-color="white"
         stop-opacity="1" />
      <stop
         offset="0.75"
         id="stop2772"
         stop-color="black"
         stop-opacity="1" />
      <stop
         offset="1"
         id="stop2766"
         stop-color="#aaa"
         stop-opacity="1" />
    </linearGradient>
  </defs>
  <sodipodi:namedview
     inkscape:window-height="1056"
     inkscape:window-width="1920"
     inkscape:pageshadow="2"
     inkscape:pageopacity="0.0"
     guidetolerance="10.0"
     gridtolerance="10.0"
     objecttolerance="10.0"
     borderopacity="1.0"
     bordercolor="#666666"
     pagecolor="#ffffff"
     id="base"
     width="256"
     height="256"
     inkscape:zoom="3.5351562"
     inkscape:cx="128"
     inkscape:cy="128"
     inkscape:window-x="0"
     inkscape:window-y="0"
     inkscape:current-layer="svg2"
     showgrid="false"
     inkscape:window-maximized="1" />
  <path
     d="M 97.677499,70.130329 C 62.527089,70.36621 34.517068,91.75224 20.73932,120.95353 l 3.370496,3.71244 c -0.802079,9.41762 -1.268949,18.92686 1.682595,29.37142 l -1.72657,0 c -2.13583,0 -3.485677,1.51255 -3.026393,3.39119 l 1.326762,5.42694 c 0.110469,0.45186 0.317383,0.87944 0.594414,1.27298 l -0.06641,0 c -2.14437,0 -3.242133,3.32844 -3.22162,8.56044 l -1.45703,0 c -5.55318,0 -7.472179,10.43559 -4.303124,23.39818 3.169054,12.96259 10.190577,23.39819 15.743757,23.39819 l 1.54297,0 11.5,0 c 5.532245,5.612 11.536454,9.64035 16.190472,11.32458 2.88048,2.90562 5.79742,4.80638 8.56796,5.41491 4.02509,4.01687 8.10723,6.31854 11.86895,6.31854 l 6.77344,0 c 11.5796,0 15.596731,-21.7019 9.00602,-48.66032 l -0.0832,-0.34015 c -6.59068,-26.95842 -21.21903,-48.66033 -32.79863,-48.66033 l -6.773442,0 c -3.508346,0 -6.315999,2.003 -8.351154,5.53002 -3.778791,0.60128 -6.511162,4.06524 -8.025493,9.52248 -1.482907,1.02068 -2.952908,2.38007 -4.327615,4.02854 0.05201,-0.34908 0.0513,-0.71688 -0.04434,-1.10806 l -1.326762,-5.42694 c -0.459284,-1.87864 -2.548697,-3.39119 -4.684537,-3.39119 l -0.4414,0 c 0.643853,-7.8703 2.012416,-15.45358 4.697148,-22.51346 l 8.501865,2.34842 C 69.345299,80.446178 133.34338,70.442209 167.87318,116.62778 l -0.29581,0.10822 c 0.52773,0.53848 1.04299,1.08306 1.55637,1.62861 0.23304,0.32807 0.4706,0.64749 0.70074,0.98093 l 0.12898,-0.0876 c 6.66735,7.2413 12.12232,15.07942 16.90295,23.25045 l -0.65235,0 c -2.13583,0 -3.48568,1.51255 -3.0264,3.39119 l 1.32634,5.42522 c 0.0318,0.13006 0.0889,0.25349 0.13582,0.37966 -0.44535,1.51081 -0.65091,3.57698 -0.62137,6.03852 -5.00735,-5.60611 -10.5913,-9.96051 -15.31263,-12.39142 -4.61317,-6.01847 -9.52507,-9.62555 -13.92939,-9.62555 l -0.0332,0 c -3.06561,-2.40108 -6.11367,-3.72963 -8.97431,-3.72963 l -6.77344,0 c -0.0465,0 -0.0902,0.008 -0.13647,0.009 -0.046,-7e-4 -0.0931,-0.009 -0.13892,-0.009 -11.42671,0 -15.33758,21.62749 -8.76983,48.49197 0.007,0.0282 0.0136,0.0559 0.0206,0.0842 0.007,0.0288 0.014,0.0571 0.021,0.0858 l 0.0827,0.33844 c 6.59071,26.95842 21.21754,48.66204 32.79714,48.66204 l 6.77344,0 c 4.47331,0 7.8134,-3.24913 9.85383,-8.77862 1.62154,-0.93461 2.97429,-2.52263 4.04429,-4.65214 3.8316,-1.68379 7.86835,-5.71055 10.65718,-11.32459 l 13.04101,0 c 4.51196,0 6.6247,-6.88886 5.55866,-16.42511 -0.246,-2.20068 -0.66134,-4.54259 -1.25553,-6.97308 -1.50627,-6.16118 -3.88646,-11.73438 -6.56214,-15.90458 -2.48943,-6.97793 -5.52226,-12.31639 -8.1352,-14.23819 -0.003,-0.0129 -0.002,-0.0249 -0.005,-0.0378 l -1.32634,-5.42522 c -0.45928,-1.87863 -2.5487,-3.39119 -4.68454,-3.39119 l -0.9121,0 c -2.38716,-9.99875 -7.40852,-19.16611 -12.64454,-28.26508 l 0.92358,-0.63219 c -8.31822,-10.45086 -17.6863,-18.513486 -27.60281,-24.354994 2.03334,1.047392 4.06585,2.162829 6.09579,3.363704 L 131.76346,76.24102 C 119.86862,71.966629 108.43808,70.05814 97.677739,70.130348 Z m 95.067341,87.339481 c 0.10909,0.20369 0.21702,0.42633 0.32573,0.63735 l -0.30859,0 c -0.004,-0.21076 -0.0161,-0.43232 -0.0171,-0.63735 z M 28.756561,168.0952 c 0.566931,0.80016 1.138427,1.71696 1.706578,2.73837 -0.277942,0.60385 -0.545731,1.21929 -0.794455,1.85537 l -1.27148,0 c -0.0069,-1.76723 0.113916,-3.31612 0.359357,-4.59374 z"
     id="path4376"
     inkscape:connector-curvature="0"
     stroke-miterlimit="4"
     transform="matrix(-1.0756526,0.35421175,0.09559072,1.1062596,239.22983,-67.758648)"
     style="fill:#000000;fill-opacity:0.20903955;fill-rule:evenodd;stroke:none;stroke-width:0;stroke-linecap:butt;stroke-linejoin:miter;stroke-miterlimit:4;stroke-dasharray:none;stroke-opacity:1;filter:url(#filter4251)" />
  <g
     id="g4246"
     transform="matrix(-1.2219256,0,0,1.2219256,256.7967,-51.960886)">
    <g
       transform="matrix(1.5379391,0,0,1.5379391,-113.48216,53.556474)"
       id="g2888">
      <path
         d="m 192.22695,60.822695 c -1.99018,-8.007274 -4.67717,-15.66614 -9.07801,-22.468085 l 5.90071,-2.269504 c 2.29109,7.835199 4.44345,15.716644 3.1773,24.737589 z"
         id="path2838"
         sodipodi:nodetypes="cccc"
         inkscape:connector-curvature="0"
         stroke-miterlimit="4"
         style="fill:url(#linearGradient3082);fill-opacity:1;fill-rule:evenodd;stroke:none;stroke-width:0;stroke-linecap:butt;stroke-linejoin:miter;stroke-miterlimit:4;stroke-dasharray:none;stroke-opacity:1" />
      <path
         id="path2814"
         d="m 195.73017,63.491288 c 2.23844,0 4.04428,6.999929 4.04428,15.699051 0,8.699122 -1.80584,15.730388 -4.04428,15.730387 l -5.1356,0 c 2.23844,10e-7 4.04429,-7.031265 4.04429,-15.730387 0,-8.699122 -1.80585,-15.699051 -4.04429,-15.699051 l 5.1356,0 z"
         inkscape:connector-curvature="0"
         stroke-miterlimit="4"
         style="fill:url(#linearGradient3084);fill-opacity:1;stroke:#a1a2ad;stroke-width:0.414;stroke-linecap:round;stroke-linejoin:round;stroke-miterlimit:4;stroke-dasharray:none;stroke-dashoffset:0;stroke-opacity:1" />
      <rect
         id="rect1873"
         width="28.596001"
         height="65.360001"
         x="157.5"
         y="50.610001"
         rx="12.304"
         ry="32.567001"
         stroke-miterlimit="4"
         style="fill:url(#linearGradient3086);fill-opacity:1;stroke:none;stroke-width:0.5;stroke-linecap:round;stroke-linejoin:round;stroke-miterlimit:4;stroke-dasharray:none;stroke-dashoffset:0;stroke-opacity:1" />
      <rect
         ry="28.368999"
         rx="10.716"
         y="54.240002"
         x="166.13"
         height="57.645"
         width="23.375999"
         id="rect1875"
         stroke-miterlimit="4"
         style="fill:url(#linearGradient3088);fill-opacity:1;stroke:none;stroke-width:0.5;stroke-linecap:round;stroke-linejoin:round;stroke-miterlimit:4;stroke-dasharray:none;stroke-dashoffset:0;stroke-opacity:1" />
      <path
         d="m 180.6525,59.234039 1.13472,0 c 5.15496,0 15.20569,11.259917 15.20569,24.964543 0,13.704626 -10.05073,24.510638 -15.20569,24.510638 l -1.13472,0 c -5.15496,0 -9.30498,-11.032962 -9.30498,-24.737588 0,-13.704626 4.15002,-24.737593 9.30498,-24.737593 z"
         id="rect2762"
         sodipodi:nodetypes="ccsccsc"
         inkscape:connector-curvature="0"
         stroke-miterlimit="4"
         style="fill:url(#linearGradient3090);fill-opacity:1;stroke:#837c7c;stroke-width:0.5;stroke-linecap:round;stroke-linejoin:round;stroke-miterlimit:4;stroke-dashoffset:0;stroke-opacity:1" />
      <rect
         id="rect2765"
         width="20.200001"
         height="31.32"
         x="185.42"
         y="69.220001"
         rx="5.901"
         ry="15.66"
         stroke-miterlimit="4"
         style="fill:url(#linearGradient3092);fill-opacity:1;stroke:#a1a2ad;stroke-width:0.5;stroke-linecap:round;stroke-linejoin:round;stroke-miterlimit:4;stroke-dasharray:none;stroke-dashoffset:0;stroke-opacity:1" />
      <rect
         ry="15.66"
         rx="5.901"
         y="69.220001"
         x="192.91"
         height="31.32"
         width="12.709"
         id="rect2799"
         stroke-miterlimit="4"
         style="fill:url(#linearGradient3094);fill-opacity:1;stroke:#a1a2ad;stroke-width:0.5;stroke-linecap:round;stroke-linejoin:round;stroke-miterlimit:4;stroke-dasharray:none;stroke-dashoffset:0;stroke-opacity:1" />
      <path
         d="m 189.87289,63.718238 c -2.23844,0 -4.04428,6.999929 -4.04428,15.699051 0,8.699122 1.80584,15.730388 4.04428,15.730387 l 5.1356,0 c -2.23844,10e-7 -4.04429,-7.031265 -4.04429,-15.730387 0,-8.699122 1.80585,-15.699051 4.04429,-15.699051 l -5.1356,0 z"
         id="rect2803"
         inkscape:connector-curvature="0"
         stroke-miterlimit="4"
         style="fill:url(#linearGradient3096);fill-opacity:1;stroke:#a1a2ad;stroke-width:0.414;stroke-linecap:round;stroke-linejoin:round;stroke-miterlimit:4;stroke-dasharray:none;stroke-dashoffset:0;stroke-opacity:1" />
      <rect
         id="rect2818"
         width="7.2620001"
         height="8.1700001"
         x="188.60001"
         y="56.737999"
         ry="2.27"
         stroke-miterlimit="4"
         rx="2.27"
         style="fill:url(#linearGradient3098);fill-opacity:1;stroke:none;stroke-width:0.5;stroke-linecap:round;stroke-linejoin:round;stroke-miterlimit:4;stroke-dasharray:none;stroke-dashoffset:0;stroke-opacity:1" />
    </g>
    <rect
       transform="scale(-1,1)"
       ry="24.08"
       rx="9.0699997"
       y="145"
       x="-40.130001"
       height="48.169998"
       width="19.546"
       id="rect2969"
       stroke-miterlimit="4"
       style="fill:url(#linearGradient3100);fill-opacity:1;stroke:#a1a2ad;stroke-width:0.76899999;stroke-linecap:round;stroke-linejoin:round;stroke-miterlimit:4;stroke-dasharray:none;stroke-dashoffset:0;stroke-opacity:1" />
    <path
       inkscape:connector-curvature="0"
       d="m 32.101247,136.97604 c 3.060775,-12.3147 7.193202,-24.09357 13.961426,-34.55455 l -9.074932,-3.490359 c -3.523557,12.050059 -6.833756,24.171239 -4.886494,38.044909 z"
       id="path2957"
       sodipodi:nodetypes="cccc"
       stroke-miterlimit="4"
       style="fill:url(#linearGradient3102);fill-opacity:1;fill-rule:evenodd;stroke:none;stroke-width:0;stroke-linecap:butt;stroke-linejoin:miter;stroke-miterlimit:4;stroke-dasharray:none;stroke-opacity:1" />
    <path
       inkscape:connector-curvature="0"
       id="path2959"
       d="m 35.372612,135.4956 c 3.442585,0 6.219857,10.76546 6.219857,24.14418 0,13.37872 -2.777272,24.19238 -6.219857,24.19238 l -7.89824,0 c 3.442585,0 6.219872,-10.81366 6.219872,-24.19238 0,-13.37872 -2.777287,-24.14418 -6.219872,-24.14418 l 7.89824,0 z"
       stroke-miterlimit="4"
       style="fill:url(#linearGradient3104);fill-opacity:1;stroke:#a1a2ad;stroke-width:0.63700002;stroke-linecap:round;stroke-linejoin:round;stroke-miterlimit:4;stroke-dasharray:none;stroke-dashoffset:0;stroke-opacity:1" />
    <rect
       transform="scale(-1,1)"
       id="rect2967"
       width="31.059999"
       height="48.169998"
       x="-51.646999"
       y="145"
       rx="9.0699997"
       ry="24.08"
       stroke-miterlimit="4"
       style="fill:url(#linearGradient3106);fill-opacity:1;stroke:#a1a2ad;stroke-width:0.76899999;stroke-linecap:round;stroke-linejoin:round;stroke-miterlimit:4;stroke-dasharray:none;stroke-dashoffset:0;stroke-opacity:1" />
    <path
       inkscape:connector-curvature="0"
       d="m 58.976979,129.64628 -1.745131,0 c -7.928014,0 -23.385425,17.31706 -23.385425,38.39395 0,21.07688 15.457411,37.69587 23.385425,37.69587 l 1.745131,0 c 7.928014,0 14.310492,-16.96803 14.310492,-38.04491 0,-21.07688 -6.382478,-38.04491 -14.310492,-38.04491 z"
       id="path2965"
       sodipodi:nodetypes="ccsccsc"
       stroke-miterlimit="4"
       style="fill:url(#linearGradient3108);fill-opacity:1;stroke:#837c7c;stroke-width:0.76899999;stroke-linecap:round;stroke-linejoin:round;stroke-miterlimit:4;stroke-dashoffset:0;stroke-opacity:1" />
    <rect
       transform="scale(-1,1)"
       id="rect2973"
       width="11.169"
       height="12.565"
       x="-38.380001"
       y="128.95"
       ry="3.49"
       stroke-miterlimit="4"
       rx="3.49"
       style="fill:url(#linearGradient3110);fill-opacity:1;stroke:none;stroke-width:0.5;stroke-linecap:round;stroke-linejoin:round;stroke-miterlimit:4;stroke-dasharray:none;stroke-dashoffset:0;stroke-opacity:1" />
    <rect
       transform="scale(-1,1)"
       ry="43.629002"
       rx="16.48"
       y="121.97"
       x="-81.32"
       height="88.660004"
       width="35.951"
       id="rect2963"
       stroke-miterlimit="4"
       style="fill:url(#linearGradient3112);fill-opacity:1;stroke:none;stroke-width:0.5;stroke-linecap:round;stroke-linejoin:round;stroke-miterlimit:4;stroke-dasharray:none;stroke-dashoffset:0;stroke-opacity:1" />
    <path
       inkscape:connector-curvature="0"
       d="m 28.807735,137.24078 c -3.442585,0 -6.219857,10.76546 -6.219857,24.14418 0,13.37872 2.777272,24.19238 6.219857,24.19238 l 7.89824,0 c -3.442585,0 -6.219872,-10.81366 -6.219872,-24.19238 0,-13.37872 2.777287,-24.14418 6.219872,-24.14418 l -7.89824,0 z"
       id="path2971"
       stroke-miterlimit="4"
       style="fill:url(#linearGradient3114);fill-opacity:1;stroke:#a1a2ad;stroke-width:0.63700002;stroke-linecap:round;stroke-linejoin:round;stroke-miterlimit:4;stroke-dasharray:none;stroke-dashoffset:0;stroke-opacity:1" />
    <rect
       transform="scale(-1,1)"
       id="rect2961"
       width="43.978001"
       height="100.52"
       x="-94.230003"
       y="118.13"
       rx="18.923"
       ry="50.09"
       stroke-miterlimit="4"
       style="fill:url(#linearGradient3116);fill-opacity:1;stroke:none;stroke-width:0.5;stroke-linecap:round;stroke-linejoin:round;stroke-miterlimit:4;stroke-dasharray:none;stroke-dashoffset:0;stroke-opacity:1" />
    <rect
       ry="49.911999"
       rx="18.673"
       y="118.13"
       x="-94.230003"
       height="99.82"
       width="37.349998"
       id="rect3020"
       transform="scale(-1,1)"
       stroke-miterlimit="4"
       style="fill:url(#linearGradient3118);fill-opacity:1;stroke:none;stroke-width:0.5;stroke-linecap:round;stroke-linejoin:round;stroke-miterlimit:4;stroke-dasharray:none;stroke-dashoffset:0;stroke-opacity:1" />
    <g
       transform="matrix(1.5254587,-0.19553358,0.19553358,1.5254587,-154.70022,71.183424)"
       id="g2945">
      <path
         d="m 131.85816,21.106383 13.61702,-9.304965 c 28.58187,-8.6418837 54.69771,11.444874 67.40425,38.808511 l -4.539,5.900709 C 190.82227,20.496589 159.5016,4.5795333 131.85816,21.106383 Z"
         id="path2927"
         sodipodi:nodetypes="ccccc"
         inkscape:connector-curvature="0"
         stroke-miterlimit="4"
         style="fill:url(#linearGradient3120);fill-opacity:1;fill-rule:evenodd;stroke:#b7b7b7;stroke-width:0.30000001;stroke-linecap:butt;stroke-linejoin:round;stroke-miterlimit:4;stroke-dasharray:none;stroke-opacity:1" />
      <path
         d="m 120.51064,33.815603 5.21986,4.539007 c 17.01916,-31.0699848 56.05978,-19.754549 75.80141,19.51773 l 6.80851,-1.361702 C 189.10545,13.421355 143.68849,-1.6315978 120.51064,33.815603 Z"
         id="path2917"
         sodipodi:nodetypes="ccccc"
         inkscape:connector-curvature="0"
         stroke-miterlimit="4"
         style="fill:#a9a7a6;fill-opacity:1;fill-rule:evenodd;stroke:url(#linearGradient3124);stroke-width:0.60000002;stroke-linecap:butt;stroke-linejoin:miter;stroke-miterlimit:4;stroke-dasharray:none;stroke-opacity:1" />
    </g>
    <rect
       transform="scale(-1,-1)"
       id="rect4242"
       width="28.360001"
       height="75.800003"
       x="-89.739998"
       y="-205.94"
       rx="14.18"
       ry="37.902"
       stroke-miterlimit="4"
       style="fill:url(#linearGradient4244);fill-opacity:1;stroke:none;stroke-width:0.5;stroke-linecap:round;stroke-linejoin:round;stroke-miterlimit:4;stroke-dasharray:none;stroke-dashoffset:0;stroke-opacity:1" />
  </g>
  <g
     id="layer1"
     inkscape:label="1. réteg"
     transform="matrix(0.33274554,0,0,0.33274554,1.4975177,1.0125331)">
    <path
       style="font-style:normal;font-weight:bold;font-size:18px;font-family:'Bitstream Vera Sans';fill:#000000;fill-opacity:1;stroke:none;stroke-width:1;stroke-linecap:butt;stroke-linejoin:miter;stroke-opacity:1"
       inkscape:connector-curvature="0"
       id="text3905"
       d="m 14.672896,-7.9438771 -5.2910158,0 -0.834961,2.390625 -3.401367,0 4.8603508,-13.1220709 4.03418,0 4.860352,13.1220709 -3.401368,0 -0.826171,-2.390625 m -4.447266,-2.4345709 3.594727,0 -1.792969,-5.220703 -1.801758,5.220703 m 10.40625,-8.296875 5.616211,0 c 1.669913,1.3e-5 2.950185,0.372083 3.84082,1.116211 0.896473,0.738293 1.344714,1.792979 1.344727,3.164063 -1.3e-5,1.37696 -0.448254,2.437506 -1.344727,3.18164 -0.890635,0.738287 -2.170907,1.107427 -3.84082,1.107422 l -2.232422,0 0,4.5527349 -3.383789,0 0,-13.1220709 m 3.383789,2.452149 0,3.665039 1.87207,0 c 0.656243,7e-6 1.163078,-0.158196 1.520508,-0.47461 0.357413,-0.322257 0.536124,-0.776358 0.536133,-1.362304 -9e-6,-0.585928 -0.17872,-1.0371 -0.536133,-1.353516 -0.35743,-0.316396 -0.864265,-0.474599 -1.520508,-0.474609 l -1.87207,0"
       font-style="normal"
       font-weight="bold"
       font-size="18" />
  </g>
</svg>
