<?xml version="1.0" encoding="UTF-8" standalone="no"?>
<!-- Created with Inkscape (http://www.inkscape.org/) -->

<svg
   xmlns:dc="http://purl.org/dc/elements/1.1/"
   xmlns:cc="http://creativecommons.org/ns#"
   xmlns:rdf="http://www.w3.org/1999/02/22-rdf-syntax-ns#"
   xmlns:svg="http://www.w3.org/2000/svg"
   xmlns="http://www.w3.org/2000/svg"
   xmlns:xlink="http://www.w3.org/1999/xlink"
   xmlns:sodipodi="http://sodipodi.sourceforge.net/DTD/sodipodi-0.dtd"
   xmlns:inkscape="http://www.inkscape.org/namespaces/inkscape"
   version="1.1"
   id="svg2"
   width="341.33"
   height="341.33"
   viewBox="0 0 341.33334 341.33334"
   sodipodi:docname="7z.svg"
   inkscape:version="0.92.5 (2060ec1f9f, 2020-04-08)">
  <metadata
     id="metadata8">
    <rdf:RDF>
      <cc:Work>
        <dc:format>image/svg+xml</dc:format>
        <dc:type
           rdf:resource="http://purl.org/dc/dcmitype/StillImage" />
        <dc:title />
      </cc:Work>
    </rdf:RDF>
  </metadata>
  <defs
     id="defs6">
    <linearGradient
       id="linearGradient882"
       inkscape:collect="always">
      <stop
         id="stop878"
         stop-color="#ffffff"
         stop-opacity="1" />
      <stop
         id="stop880"
         offset="1"
         stop-color="#000000"
         stop-opacity="1" />
    </linearGradient>
    <linearGradient
       inkscape:collect="always"
       id="linearGradient1030">
      <stop
         id="stop1026"
         stop-color="#ffffff"
         stop-opacity="1" />
      <stop
         offset="1"
         id="stop1028"
         stop-color="#c6bfbf"
         stop-opacity="1"
         style="stop-color:#5c5c5c;stop-opacity:1" />
    </linearGradient>
    <linearGradient
       inkscape:collect="always"
       id="linearGradient973">
      <stop
         id="stop969"
         stop-color="#ff9dac"
         stop-opacity="1" />
      <stop
         offset="1"
         id="stop971"
         stop-color="#7d0006"
         stop-opacity="1" />
    </linearGradient>
    <linearGradient
       inkscape:collect="always"
       id="linearGradient961">
      <stop
         id="stop957"
         stop-color="#000000"
         stop-opacity="0.514" />
      <stop
         offset="1"
         id="stop959"
         stop-color="#000000"
         stop-opacity="0.131" />
    </linearGradient>
    <linearGradient
       id="linearGradient945"
       inkscape:collect="always">
      <stop
         id="stop939"
         stop-color="#c5c5c5"
         stop-opacity="1" />
      <stop
         offset="0.558"
         id="stop941"
         stop-color="#8b8b8b"
         stop-opacity="1" />
      <stop
         id="stop943"
         offset="1"
         stop-color="#000000"
         stop-opacity="1" />
    </linearGradient>
    <linearGradient
       inkscape:collect="always"
       id="linearGradient861">
      <stop
         id="stop857"
         stop-color="#c5c5c5"
         stop-opacity="1" />
      <stop
         id="stop865"
         offset="0.558"
         stop-color="#d1d1d1"
         stop-opacity="1" />
      <stop
         offset="1"
         id="stop859"
         stop-color="#000000"
         stop-opacity="1" />
    </linearGradient>
    <linearGradient
       inkscape:collect="always"
       id="linearGradient847">
      <stop
         id="stop843"
         stop-color="#e5e5e5"
         stop-opacity="1" />
      <stop
         id="stop965"
         offset="0.401"
         stop-color="#ad1111"
         stop-opacity="1" />
      <stop
         offset="1"
         id="stop845"
         stop-color="#000000"
         stop-opacity="1" />
    </linearGradient>
    <linearGradient
       inkscape:collect="always"
       id="linearGradient827">
      <stop
         id="stop823"
         stop-color="#d4d4d4"
         stop-opacity="1" />
      <stop
         offset="1"
         id="stop825"
         stop-color="#000000"
         stop-opacity="1" />
    </linearGradient>
    <linearGradient
       inkscape:collect="always"
       xlink:href="#linearGradient882"
       id="linearGradient829"
       x1="115.38"
       y1="44.98"
       x2="229.67"
       y2="44.98"
       gradientUnits="userSpaceOnUse"
       spreadMethod="reflect"
       gradientTransform="matrix(0.96541084,0,0,0.96541084,5.8518998,5.934333)" />
    <linearGradient
       inkscape:collect="always"
       xlink:href="#linearGradient827"
       id="linearGradient833"
       gradientUnits="userSpaceOnUse"
       x1="115.38"
       y1="44.98"
       x2="229.67"
       y2="44.98"
       spreadMethod="reflect"
       gradientTransform="matrix(0.96541084,0,0,-0.96541084,5.4228283,329.74827)" />
    <linearGradient
       inkscape:collect="always"
       xlink:href="#linearGradient882"
       id="linearGradient837"
       gradientUnits="userSpaceOnUse"
       x1="115.38"
       y1="44.98"
       x2="229.67"
       y2="44.98"
       spreadMethod="reflect"
       gradientTransform="matrix(0,-0.80822856,0.57581747,0,5.3593264,304.07084)" />
    <linearGradient
       inkscape:collect="always"
       xlink:href="#linearGradient882"
       id="linearGradient841"
       gradientUnits="userSpaceOnUse"
       gradientTransform="matrix(0,-0.80822856,-0.57581747,0,333.59045,304.07084)"
       x1="115.38"
       y1="44.98"
       x2="229.67"
       y2="44.98"
       spreadMethod="reflect" />
    <radialGradient
       inkscape:collect="always"
       xlink:href="#linearGradient847"
       id="radialGradient849"
       cx="145.76"
       cy="133.91"
       fx="145.76"
       fy="133.91"
       r="167.86"
       gradientTransform="matrix(0.96535368,-0.01049704,0.01009014,0.92793313,4.2028355,13.972928)"
       gradientUnits="userSpaceOnUse"
       spreadMethod="reflect" />
    <radialGradient
       inkscape:collect="always"
       xlink:href="#linearGradient861"
       id="radialGradient863"
       cx="8.362"
       cy="34.31"
       fx="8.362"
       fy="34.31"
       r="27.746"
       gradientTransform="matrix(2.0514484,1.8241594,-0.53906483,0.60623192,13.414082,-1.5966939)"
       gradientUnits="userSpaceOnUse" />
    <radialGradient
       inkscape:collect="always"
       xlink:href="#linearGradient861"
       id="radialGradient869"
       gradientUnits="userSpaceOnUse"
       gradientTransform="matrix(-1.8501123,1.6649634,0.54266522,0.60301119,323.00923,-0.32568002)"
       cx="9.269"
       cy="30.332"
       fx="9.269"
       fy="30.332"
       r="27.746" />
    <radialGradient
       inkscape:collect="always"
       xlink:href="#linearGradient945"
       id="radialGradient873"
       gradientUnits="userSpaceOnUse"
       gradientTransform="matrix(1.9812148,-1.838206,-0.55176743,-0.59469382,13.674185,338.75747)"
       cx="8.34"
       cy="22.707"
       fx="8.34"
       fy="22.707"
       r="27.746"
       spreadMethod="pad" />
    <radialGradient
       inkscape:collect="always"
       xlink:href="#linearGradient945"
       id="radialGradient877"
       gradientUnits="userSpaceOnUse"
       gradientTransform="matrix(-1.8501123,-1.6649634,0.54266522,-0.60301119,322.63519,337.65318)"
       cx="9.813"
       cy="28.24"
       fx="9.813"
       fy="28.24"
       r="27.746" />
    <filter
       inkscape:collect="always"
       id="filter953"
       x="-0.024"
       width="1.047"
       y="-0.024"
       height="1.049"
       color-interpolation-filters="sRGB">
      <feGaussianBlur
         inkscape:collect="always"
         stdDeviation="3.30764"
         id="feGaussianBlur955" />
    </filter>
    <linearGradient
       inkscape:collect="always"
       xlink:href="#linearGradient961"
       id="linearGradient963"
       x1="164.93"
       y1="21.628"
       x2="163.69"
       y2="268.81"
       gradientUnits="userSpaceOnUse" />
    <radialGradient
       inkscape:collect="always"
       xlink:href="#linearGradient973"
       id="radialGradient975"
       cx="140.94"
       cy="120.89"
       fx="140.94"
       fy="120.89"
       r="144.2"
       gradientTransform="matrix(1,0,0,0.8614588,0,23.726677)"
       gradientUnits="userSpaceOnUse"
       spreadMethod="reflect" />
    <filter
       inkscape:collect="always"
       id="filter977"
       x="-0.012"
       width="1.024"
       y="-0.012"
       height="1.024"
       color-interpolation-filters="sRGB">
      <feGaussianBlur
         inkscape:collect="always"
         stdDeviation="1.65382"
         id="feGaussianBlur979" />
    </filter>
    <linearGradient
       inkscape:collect="always"
       xlink:href="#linearGradient1030"
       id="linearGradient1032"
       x1="164.6"
       y1="96.19"
       x2="163.25"
       y2="229.46"
       gradientUnits="userSpaceOnUse" />
    <filter
       inkscape:collect="always"
       id="filter888"
       x="-0.011"
       width="1.022"
       y="-0.013"
       height="1.026"
       color-interpolation-filters="sRGB">
      <feGaussianBlur
         inkscape:collect="always"
         stdDeviation="1.34207"
         id="feGaussianBlur890" />
    </filter>
    <filter
       inkscape:collect="always"
       style="color-interpolation-filters:sRGB"
       id="filter881"
       x="-0.0098096871"
       width="1.0196194"
       y="-0.015449595"
       height="1.0308992">
      <feGaussianBlur
         inkscape:collect="always"
         stdDeviation="0.84169396"
         id="feGaussianBlur883" />
    </filter>
    <linearGradient
       inkscape:collect="always"
       xlink:href="#linearGradient1030"
       id="linearGradient888"
       gradientUnits="userSpaceOnUse"
       x1="164.6"
       y1="96.19"
       x2="163.25"
       y2="229.46" />
    <linearGradient
       inkscape:collect="always"
       xlink:href="#linearGradient1030"
       id="linearGradient890"
       gradientUnits="userSpaceOnUse"
       x1="164.6"
       y1="96.19"
       x2="163.25"
       y2="229.46" />
    <linearGradient
       inkscape:collect="always"
       xlink:href="#linearGradient1030"
       id="linearGradient892"
       gradientUnits="userSpaceOnUse"
       x1="164.6"
       y1="96.19"
       x2="163.25"
       y2="229.46" />
    <linearGradient
       inkscape:collect="always"
       xlink:href="#linearGradient1030"
       id="linearGradient894"
       gradientUnits="userSpaceOnUse"
       x1="164.6"
       y1="96.19"
       x2="163.25"
       y2="229.46" />
    <linearGradient
       inkscape:collect="always"
       xlink:href="#linearGradient1030"
       id="linearGradient896"
       gradientUnits="userSpaceOnUse"
       x1="164.6"
       y1="96.19"
       x2="163.25"
       y2="229.46" />
  </defs>
  <sodipodi:namedview
     pagecolor="#ff0000"
     bordercolor="#666666"
     borderopacity="1"
     objecttolerance="10"
     gridtolerance="10"
     guidetolerance="10"
     inkscape:pageopacity="0"
     inkscape:pageshadow="2"
     inkscape:window-width="1920"
     inkscape:window-height="1056"
     id="namedview4"
     showgrid="false"
     inkscape:snap-to-guides="false"
     inkscape:snap-grids="false"
     inkscape:snap-others="false"
     inkscape:object-nodes="false"
     inkscape:snap-nodes="false"
     inkscape:snap-global="false"
     inkscape:zoom="2.622096"
     inkscape:cx="170.66499"
     inkscape:cy="170.66499"
     inkscape:current-layer="svg2"
     inkscape:window-x="0"
     inkscape:window-y="0"
     inkscape:window-maximized="1" />
  <path
     transform="matrix(0.96541084,0,0,0.96541084,5.0770226,13.295665)"
     sodipodi:nodetypes="cccccccccccccccccccccccccccccccccccccccc"
     inkscape:connector-curvature="0"
     id="path885"
     d="M 318.95508,5.6191406 C 216.12069,87.78758 116.60412,78.949982 18.892578,6.4003906 L 40.103516,28.189453 C 124.89531,92.541101 203.32972,105.26206 296.14844,33.996094 270.45853,76.653088 269.53638,110.45454 320.58398,62.525391 267.46513,142.66697 275.28386,202.08886 316.94727,272.30859 l -0.24219,-0.26757 c -63.0814,-22.69346 -56.17905,-5.07295 -26.01563,27.16406 C 205.72196,247.6309 128.94446,253.34965 51.330078,297.91602 l 0.855469,-0.83594 C 89.955511,258.1487 80.244546,244.91559 23.046875,270.84766 l -0.775391,0.88476 C 57.451489,201.14125 69.81975,146.74654 20.441406,66.205078 L 20.248047,65.972656 C 73.783174,106.91974 69.592253,78.984677 40.316406,28.71875 L 18.787109,6.34375 C 66.362854,76.343016 56.833189,83.701974 4.390625,46.943359 L 3.2636719,45.591797 c 0.1293524,0.277637 0.2525013,0.554521 0.3808593,0.832031 -0.091147,-0.06412 -0.1761761,-0.121164 -0.2675781,-0.185547 l 0.3964844,0.466797 C 48.629408,132.29504 43.377465,211.65782 2.6777344,293.17773 l 6.3183594,-6.31054 -7.1738282,8.18164 C 57.310191,265.48645 65.242884,263.12613 16.835938,331.63281 l 0.783203,-0.76562 -0.863282,1.22265 C 115.78715,278.63892 216.38295,269.50565 318.51172,329.79688 l -0.0918,-0.14258 0.76367,0.83593 c -1.47922,-2.17641 -2.90058,-4.27898 -4.26367,-6.3164 l -10.96875,-17.17969 c -0.0888,-0.055 -0.17687,-0.10727 -0.26562,-0.16211 -28.29078,-45.51544 -12.34123,-39.69399 33.19336,-12.46875 l -14.59571,-16.15039 14.00977,14.96484 C 300.70485,212.25299 296.24023,131.91357 335.98828,44.363281 l 0.33594,-0.396484 c -54.42881,39.110209 -68.57179,41.522877 -21.40039,-32.03125 z"
     style="fill:#000000;fill-opacity:0.63265306;stroke:none;stroke-width:1;stroke-linecap:butt;stroke-linejoin:miter;stroke-opacity:1;filter:url(#filter977)" />
  <path
     d="M 23.78096,11.818752 C 115.58746,71.50439 210.8896,84.435829 312.48478,13.19791 288.52995,54.194786 257.45495,102.13818 330.87356,48.136592 293.59255,125.96942 290.1889,206.44892 331.33327,290.40873 282.8458,258.16692 265.05604,257.39026 314.32365,325.34742 221.69327,265.38364 123.91956,267.78273 21.482356,326.72657 76.016832,258.9763 56.449016,260.96937 7.2310581,290.86845 39.5517,218.36775 51.182544,140.77942 9.069934,49.975468 74.956762,97.496023 57.308472,62.500178 23.78096,11.818752 Z"
     id="path817"
     inkscape:connector-curvature="0"
     sodipodi:nodetypes="ccccccccc"
     stroke-opacity="1"
     fill="url(#radialGradient849)"
     stroke="none"
     stroke-linejoin="miter"
     fill-opacity="1"
     stroke-linecap="butt"
     stroke-width="0.965" />
  <path
     sodipodi:nodetypes="ccccccccc"
     inkscape:connector-curvature="0"
     id="path967"
     d="M 61.189669,50.26324 C 155.15737,87.269531 174.64278,100.27519 280.81239,47.04255 265.32771,83.006659 258.46668,112.77296 311.09573,73.159628 272.4813,156.21013 269.50337,180.4062 307.31009,263.67159 278.10703,252.27399 248.86402,239.21351 276.51813,285.1394 181.13461,250.74442 160.34484,257.23113 53.772008,295.47906 104.70382,229.46882 73.604454,241.20589 25.062322,270.34679 69.885657,196.38298 75.601657,163.0753 22.705258,68.090495 82.740663,112.14309 77.150969,90.94396 61.189669,50.26324 Z"
     transform="matrix(0.96541084,0,0,0.96541084,5.8518998,5.934333)"
     stroke-opacity="1"
     fill="url(#radialGradient975)"
     filter="url(#filter888)"
     stroke="none"
     stroke-linejoin="miter"
     fill-opacity="1"
     stroke-linecap="butt"
     stroke-width="1" />
  <path
     sodipodi:nodetypes="cccccccccccccccccccccccccccccccccccccccc"
     inkscape:connector-curvature="0"
     id="path947"
     d="M 318.95508,5.6191406 C 216.12069,87.78758 116.60412,78.949982 18.892578,6.4003906 L 42.040709,33.226154 C 125.93557,106.54714 200.61781,119.98314 294.59869,37.095602 268.90878,79.752596 269.53638,110.45454 320.58398,62.525391 267.46513,142.66697 268.69741,193.95265 310.36082,264.17238 l 9.05633,10.58071 c -63.0814,-22.69346 -58.89112,-7.78502 -28.7277,24.45199 -95.70504,-56.70157 -168.35793,-43.85817 -239.359372,-1.28906 l 0.855469,-0.83594 C 89.955511,258.1487 80.244546,244.91559 23.046875,270.84766 l 6.198503,-4.15194 C 64.425383,196.10455 79.505713,154.49531 30.127369,73.953849 L 29.159133,70.621918 C 82.69426,111.569 59.518851,66.974083 30.243004,16.708156 L 18.787109,6.34375 C 66.362854,76.343016 56.833189,83.701974 4.390625,46.943359 L 3.2636719,45.591797 c 0.1293524,0.277637 0.2525013,0.554521 0.3808593,0.832031 -0.091147,-0.06412 -0.1761761,-0.121164 -0.2675781,-0.185547 l 0.3964844,0.466797 C 48.629408,132.29504 43.377465,211.65782 2.6777344,293.17773 l 6.3183594,-6.31054 -7.1738282,8.18164 C 57.310191,265.48645 65.242884,263.12613 16.835938,331.63281 l 0.783203,-0.76562 -0.863282,1.22265 c 99.031291,-69.2289 199.627091,-72.16006 301.755861,-2.29296 l -0.0918,-0.14258 0.76367,0.83593 c -1.47922,-2.17641 -2.90058,-4.27898 -4.26367,-6.3164 l -10.96875,-17.17969 c -0.0888,-0.055 -0.17687,-0.10727 -0.26562,-0.16211 -28.29078,-45.51544 -12.34123,-39.69399 33.19336,-12.46875 l -14.59571,-16.15039 14.00977,14.96484 C 300.70485,212.25299 296.24023,131.91357 335.98828,44.363281 l 0.33594,-0.396484 c -54.42881,39.110209 -68.57179,41.522877 -21.40039,-32.03125 z"
     transform="matrix(0.96541084,0,0,0.96541084,5.8518998,5.934333)"
     stroke-opacity="1"
     fill="#000000"
     filter="url(#filter953)"
     stroke="none"
     stroke-linejoin="miter"
     fill-opacity="0.4"
     stroke-linecap="butt"
     stroke-width="1" />
  <path
     d="M 318.95508,5.6191406 C 216.12069,87.78758 116.60412,78.949982 18.892578,6.4003906 L 40.103516,28.189453 C 124.89531,92.541101 203.32972,105.26206 296.14844,33.996094 270.45853,76.653088 269.53638,110.45454 320.58398,62.525391 267.46513,142.66697 275.28386,202.08886 316.94727,272.30859 l -0.24219,-0.26757 c -63.0814,-22.69346 -56.17905,-5.07295 -26.01563,27.16406 C 205.72196,247.6309 128.94446,253.34965 51.330078,297.91602 l 0.855469,-0.83594 C 89.955511,258.1487 80.244546,244.91559 23.046875,270.84766 l -0.775391,0.88476 C 57.451489,201.14125 69.81975,146.74654 20.441406,66.205078 L 20.248047,65.972656 C 73.783174,106.91974 69.592253,78.984677 40.316406,28.71875 L 18.787109,6.34375 C 66.362854,76.343016 56.833189,83.701974 4.390625,46.943359 L 3.2636719,45.591797 c 0.1293524,0.277637 0.2525013,0.554521 0.3808593,0.832031 -0.091147,-0.06412 -0.1761761,-0.121164 -0.2675781,-0.185547 l 0.3964844,0.466797 C 48.629408,132.29504 43.377465,211.65782 2.6777344,293.17773 l 6.3183594,-6.31054 -7.1738282,8.18164 C 57.310191,265.48645 65.242884,263.12613 16.835938,331.63281 l 0.783203,-0.76562 -0.863282,1.22265 c 99.031291,-69.2289 199.627091,-72.16006 301.755861,-2.29296 l -0.0918,-0.14258 0.76367,0.83593 c -1.47922,-2.17641 -2.90058,-4.27898 -4.26367,-6.3164 l -10.96875,-17.17969 c -0.0888,-0.055 -0.17687,-0.10727 -0.26562,-0.16211 -28.29078,-45.51544 -12.34123,-39.69399 33.19336,-12.46875 l -14.59571,-16.15039 14.00977,14.96484 C 300.70485,212.25299 296.24023,131.91357 335.98828,44.363281 l 0.33594,-0.396484 c -54.42881,39.110209 -68.57179,41.522877 -21.40039,-32.03125 z"
     id="path902"
     inkscape:connector-curvature="0"
     sodipodi:nodetypes="cccccccccccccccccccccccccccccccccccccccc"
     transform="matrix(0.96541084,0,0,0.96541084,5.8518998,5.934333)"
     stroke-opacity="1"
     fill="url(#linearGradient963)"
     filter="url(#filter977)"
     stroke="none"
     stroke-linejoin="miter"
     fill-opacity="1"
     stroke-linecap="butt"
     stroke-width="1" />
  <path
     d="m 24.09083,12.112723 c 94.33178,61.141803 190.40725,69.517458 289.68469,-0.753691 l -14.0568,22.013489 C 206.18886,98.687463 128.23072,82.719753 44.568316,33.149276 Z"
     id="path821"
     inkscape:connector-curvature="0"
     sodipodi:nodetypes="ccccc"
     stroke-opacity="1"
     fill="url(#linearGradient829)"
     stroke="none"
     stroke-linejoin="miter"
     fill-opacity="1"
     stroke-linecap="butt"
     stroke-width="0.965" />
  <path
     sodipodi:nodetypes="ccccc"
     inkscape:connector-curvature="0"
     id="path831"
     d="M 22.028908,326.53753 C 116.36069,271.17011 214.06902,263.00399 313.34645,324.32357 l -14.05679,-22.0135 C 206.41061,244.80494 124.03108,257.54545 39.880219,301.25458 Z"
     stroke-opacity="1"
     fill="url(#linearGradient833)"
     stroke="none"
     stroke-linejoin="miter"
     fill-opacity="1"
     stroke-linecap="butt"
     stroke-width="0.965" />
  <path
     sodipodi:nodetypes="ccccc"
     inkscape:connector-curvature="0"
     id="path835"
     d="M 8.4366908,288.97206 C 40.347486,209.34779 47.498007,132.57501 9.0024446,49.949542 L 25.586428,69.848551 c 38.956971,78.301909 30.04079,131.484359 0.474577,201.525359 z"
     stroke-opacity="1"
     fill="url(#linearGradient837)"
     stroke="none"
     stroke-linejoin="miter"
     fill-opacity="1"
     stroke-linecap="butt"
     stroke-width="0.683" />
  <path
     d="M 330.51309,288.97206 C 296.15416,210.8424 291.84538,133.27694 330.22499,48.749844 L 317.65406,62.340325 C 270.87274,141.35354 277.88875,199.60352 312.03063,269.22855 Z"
     id="path839"
     inkscape:connector-curvature="0"
     sodipodi:nodetypes="ccccc"
     stroke-opacity="1"
     fill="url(#linearGradient841)"
     stroke="none"
     stroke-linejoin="miter"
     fill-opacity="1"
     stroke-linecap="butt"
     stroke-width="0.683" />
  <path
     d="m 23.988558,12.058128 20.785833,21.600964 c 24.589521,40.084574 28.884781,62.3264 -19.563136,35.865751 L 9.1124227,50.573055 C 60.61718,86.852477 70.21905,80.078093 23.988558,12.058128 Z"
     id="path855"
     inkscape:connector-curvature="0"
     sodipodi:nodetypes="ccccc"
     stroke-opacity="1"
     fill="url(#radialGradient863)"
     stroke="none"
     stroke-linejoin="miter"
     fill-opacity="1"
     stroke-linecap="butt"
     stroke-width="0.965" />
  <path
     sodipodi:nodetypes="ccccc"
     inkscape:connector-curvature="0"
     id="path867"
     d="M 313.32914,11.814006 291.76382,38.7415 c -24.58953,40.084574 -22.38902,57.259699 23.5905,27.551168 l 15.18943,-17.912466 c -51.50476,36.29722 -60.58697,33.836035 -17.21461,-36.566196 z"
     stroke-opacity="1"
     fill="url(#radialGradient869)"
     stroke="none"
     stroke-linejoin="miter"
     fill-opacity="1"
     stroke-linecap="butt"
     stroke-width="0.965" />
  <path
     sodipodi:nodetypes="ccccc"
     inkscape:connector-curvature="0"
     id="path871"
     d="M 22.104706,326.09539 56.231563,292.73905 C 80.821084,252.65447 76.548728,240.95226 28.100811,267.41291 L 7.6115186,290.77842 C 61.180164,262.23858 68.837296,259.95829 22.104706,326.09539 Z"
     stroke-opacity="1"
     fill="url(#radialGradient873)"
     stroke="none"
     stroke-linejoin="miter"
     fill-opacity="1"
     stroke-linecap="butt"
     stroke-width="0.965" />
  <path
     d="m 313.99442,324.99383 -27.41151,-30.04546 c -24.58952,-40.08457 -23.42834,-52.84258 25.01958,-26.38194 l 19.47663,21.55011 c -50.46544,-30.17341 -63.31519,-33.14267 -17.0847,34.87729 z"
     id="path875"
     inkscape:connector-curvature="0"
     sodipodi:nodetypes="ccccc"
     stroke-opacity="1"
     fill="url(#radialGradient877)"
     stroke="none"
     stroke-linejoin="miter"
     fill-opacity="1"
     stroke-linecap="butt"
     stroke-width="0.965" />
  <g
     id="g1012"
     transform="matrix(0.96541084,0,0,0.96541084,11.903503,17.517286)"
     style="fill:#000000;fill-opacity:1;filter:url(#filter881)">
    <path
       d="m 179.07234,119.54993 q -12.672,10.176 -26.88,34.176 -12.864,21.696 -18.624,39.936 -5.568,17.28 -5.568,34.176 0,2.112 0.192,2.688 H 89.024344 q 1.728,-25.536 23.039996,-58.176 17.088,-26.304 40.704,-48.96 h -47.616 q -12.863996,0 -17.279996,3.072 -4.224,3.072 -9.408,15.36 l -13.824,-1.92 6.336,-40.128005 H 176.57634 Z"
       id="path989"
       inkscape:connector-curvature="0"
       font-style="normal"
       word-spacing="0"
       line-height="1.25"
       font-weight="bold"
       font-stretch="normal"
       letter-spacing="0"
       font-variant="normal"
       font-size="192"
       style="font-style:normal;font-variant:normal;font-weight:bold;font-stretch:normal;font-size:192px;line-height:1.25;font-family:'Bookman Uralic';letter-spacing:0;word-spacing:0;fill:#000000;fill-opacity:1;stroke:none" />
    <g
       transform="matrix(0.52589509,0,0,0.52589509,56.398694,85.065435)"
       id="g1005"
       style="fill:#000000;fill-opacity:1">
      <path
         inkscape:connector-curvature="0"
         id="path991"
         d="m 202.95226,178.62403 -17.088,44.928 H 85.256257 l -3.072,-12.48 73.152003,-100.8 q -9.408,-0.768 -11.52,-0.768 -32.64,0 -48.384003,30.72 l -13.248,-5.568 19.008003,-41.855998 h 92.736 l 3.264,12.287998 -72.576,100.416 q 7.68,1.344 13.632,1.344 30.912,0 44.736,-20.736 3.072,-4.8 5.76,-12.096 z"
         font-style="normal"
         word-spacing="0"
         line-height="1.25"
         font-weight="bold"
         font-stretch="normal"
         letter-spacing="0"
         font-variant="normal"
         font-size="192"
         style="font-style:normal;font-variant:normal;font-weight:bold;font-stretch:normal;font-size:192px;line-height:1.25;font-family:'Bookman Uralic';letter-spacing:0;word-spacing:0;fill:#000000;fill-opacity:1;stroke:none" />
      <path
         inkscape:connector-curvature="0"
         id="path993"
         d="m 276.80026,223.55203 h -68.928 v -15.744 q 10.752,-0.96 13.632,-2.88 4.032,-2.88 4.032,-12.48 v -68.544 q 0,-9.6 -4.032,-12.48 -2.88,-1.92 -13.632,-2.88 V 92.800032 h 68.928 v 15.743998 q -10.752,0.96 -13.632,2.88 -4.032,2.88 -4.032,12.48 v 68.544 q 0,9.6 4.032,12.48 2.88,1.92 13.632,2.88 z"
         font-style="normal"
         word-spacing="0"
         line-height="1.25"
         font-weight="bold"
         font-stretch="normal"
         letter-spacing="0"
         font-variant="normal"
         font-size="192"
         style="font-style:normal;font-variant:normal;font-weight:bold;font-stretch:normal;font-size:192px;line-height:1.25;font-family:'Bookman Uralic';letter-spacing:0;word-spacing:0;fill:#000000;fill-opacity:1;stroke:none" />
      <path
         inkscape:connector-curvature="0"
         id="path995"
         d="m 407.24326,131.77603 q 0,38.784 -53.76,38.784 h -18.24 v 20.736 q 0,10.368 3.264,13.248 2.688,2.112 13.632,3.264 v 15.744 h -67.392 v -15.744 q 10.752,-1.152 13.44,-3.264 3.456,-3.072 3.456,-13.248 v -66.24 q 0,-10.176 -3.456,-13.248 -2.688,-2.112 -13.44,-3.264 V 92.800032 h 69.888 q 14.976,0 22.848,1.728 14.016,3.264 21.888,13.055998 7.872,9.792 7.872,24.192 z m -36.864,-0.384 q 0,-9.6 -6.336,-15.168 -6.144,-5.76 -15.744,-5.76 -4.608,0 -7.488,0.96 -4.224,1.344 -5.184,4.608 -0.384,1.344 -0.384,7.488 v 29.568 q 2.304,0.384 6.336,0.384 28.8,0 28.8,-22.08 z"
         font-style="normal"
         word-spacing="0"
         line-height="1.25"
         font-weight="bold"
         font-stretch="normal"
         letter-spacing="0"
         font-variant="normal"
         font-size="192"
         style="font-style:normal;font-variant:normal;font-weight:bold;font-stretch:normal;font-size:192px;line-height:1.25;font-family:'Bookman Uralic';letter-spacing:0;word-spacing:0;fill:#000000;fill-opacity:1;stroke:none" />
    </g>
  </g>
  <g
     transform="matrix(0.96541084,0,0,0.96541084,7.1336306,12.31977)"
     id="g1024"
     style="fill:url(#linearGradient1032);fill-opacity:1;stroke:#010101;stroke-opacity:1;stroke-width:1.3465902;stroke-miterlimit:4;stroke-dasharray:none">
    <path
       inkscape:connector-curvature="0"
       id="path1014"
       d="m 179.07234,119.54993 q -12.672,10.176 -26.88,34.176 -12.864,21.696 -18.624,39.936 -5.568,17.28 -5.568,34.176 0,2.112 0.192,2.688 H 89.024344 q 1.728,-25.536 23.039996,-58.176 17.088,-26.304 40.704,-48.96 h -47.616 q -12.863996,0 -17.279996,3.072 -4.224,3.072 -9.408,15.36 l -13.824,-1.92 6.336,-40.128005 H 176.57634 Z"
       font-style="normal"
       word-spacing="0"
       line-height="1.25"
       font-weight="bold"
       font-stretch="normal"
       letter-spacing="0"
       font-variant="normal"
       font-size="192"
       style="font-style:normal;font-variant:normal;font-weight:bold;font-stretch:normal;font-size:192px;line-height:1.25;font-family:'Bookman Uralic';letter-spacing:0;word-spacing:0;fill:url(#linearGradient888);fill-opacity:1;stroke:#010101;stroke-opacity:1;stroke-width:1.3465902;stroke-miterlimit:4;stroke-dasharray:none" />
    <g
       id="g1022"
       transform="matrix(0.52589509,0,0,0.52589509,56.398694,85.065435)"
       style="fill:url(#linearGradient896);fill-opacity:1;stroke:#010101;stroke-opacity:1;stroke-width:2.56056811;stroke-miterlimit:4;stroke-dasharray:none">
      <path
         d="m 202.95226,178.62403 -17.088,44.928 H 85.256257 l -3.072,-12.48 73.152003,-100.8 q -9.408,-0.768 -11.52,-0.768 -32.64,0 -48.384003,30.72 l -13.248,-5.568 19.008003,-41.855998 h 92.736 l 3.264,12.287998 -72.576,100.416 q 7.68,1.344 13.632,1.344 30.912,0 44.736,-20.736 3.072,-4.8 5.76,-12.096 z"
         id="path1016"
         inkscape:connector-curvature="0"
         font-style="normal"
         word-spacing="0"
         line-height="1.25"
         font-weight="bold"
         font-stretch="normal"
         letter-spacing="0"
         font-variant="normal"
         font-size="192"
         style="font-style:normal;font-variant:normal;font-weight:bold;font-stretch:normal;font-size:192px;line-height:1.25;font-family:'Bookman Uralic';letter-spacing:0;word-spacing:0;fill:url(#linearGradient890);fill-opacity:1;stroke:none;stroke-opacity:1;stroke-width:2.56056811;stroke-miterlimit:4;stroke-dasharray:none" />
      <path
         d="m 276.80026,223.55203 h -68.928 v -15.744 q 10.752,-0.96 13.632,-2.88 4.032,-2.88 4.032,-12.48 v -68.544 q 0,-9.6 -4.032,-12.48 -2.88,-1.92 -13.632,-2.88 V 92.800032 h 68.928 v 15.743998 q -10.752,0.96 -13.632,2.88 -4.032,2.88 -4.032,12.48 v 68.544 q 0,9.6 4.032,12.48 2.88,1.92 13.632,2.88 z"
         id="path1018"
         inkscape:connector-curvature="0"
         font-style="normal"
         word-spacing="0"
         line-height="1.25"
         font-weight="bold"
         font-stretch="normal"
         letter-spacing="0"
         font-variant="normal"
         font-size="192"
         style="font-style:normal;font-variant:normal;font-weight:bold;font-stretch:normal;font-size:192px;line-height:1.25;font-family:'Bookman Uralic';letter-spacing:0;word-spacing:0;fill:url(#linearGradient892);fill-opacity:1;stroke:#010101;stroke-opacity:1;stroke-width:2.56056811;stroke-miterlimit:4;stroke-dasharray:none" />
      <path
         d="m 407.24326,131.77603 q 0,38.784 -53.76,38.784 h -18.24 v 20.736 q 0,10.368 3.264,13.248 2.688,2.112 13.632,3.264 v 15.744 h -67.392 v -15.744 q 10.752,-1.152 13.44,-3.264 3.456,-3.072 3.456,-13.248 v -66.24 q 0,-10.176 -3.456,-13.248 -2.688,-2.112 -13.44,-3.264 V 92.800032 h 69.888 q 14.976,0 22.848,1.728 14.016,3.264 21.888,13.055998 7.872,9.792 7.872,24.192 z m -36.864,-0.384 q 0,-9.6 -6.336,-15.168 -6.144,-5.76 -15.744,-5.76 -4.608,0 -7.488,0.96 -4.224,1.344 -5.184,4.608 -0.384,1.344 -0.384,7.488 v 29.568 q 2.304,0.384 6.336,0.384 28.8,0 28.8,-22.08 z"
         id="path1020"
         inkscape:connector-curvature="0"
         font-style="normal"
         word-spacing="0"
         line-height="1.25"
         font-weight="bold"
         font-stretch="normal"
         letter-spacing="0"
         font-variant="normal"
         font-size="192"
         style="font-style:normal;font-variant:normal;font-weight:bold;font-stretch:normal;font-size:192px;line-height:1.25;font-family:'Bookman Uralic';letter-spacing:0;word-spacing:0;fill:url(#linearGradient894);fill-opacity:1;stroke:#010101;stroke-opacity:1;stroke-width:2.56056811;stroke-miterlimit:4;stroke-dasharray:none" />
    </g>
  </g>
  <path
     style="fill:none;stroke:#ffffff;stroke-width:3.00002947;stroke-linecap:butt;stroke-linejoin:miter;stroke-opacity:1;stroke-miterlimit:4;stroke-dasharray:none"
     d="m 72.461824,143.01676 6.483427,-32.41714 95.725879,-0.38137"
     id="path4632"
     inkscape:connector-curvature="0" />
  <path
     style="fill:none;stroke:#ffffff;stroke-width:1.7000167;stroke-linecap:butt;stroke-linejoin:miter;stroke-opacity:1;stroke-miterlimit:4;stroke-dasharray:none"
     d="m 106.40447,160.56014 7.24618,-16.78062 44.62123,-1.14414"
     id="path4634"
     inkscape:connector-curvature="0" />
</svg>
