<?xml version="1.0" encoding="UTF-8" standalone="no"?>
<!-- Created with Inkscape (http://www.inkscape.org/) -->
<svg xmlns:dc="http://purl.org/dc/elements/1.1/" xmlns:cc="http://creativecommons.org/ns#" xmlns:rdf="http://www.w3.org/1999/02/22-rdf-syntax-ns#" xmlns:svg="http://www.w3.org/2000/svg" xmlns="http://www.w3.org/2000/svg" xmlns:xlink="http://www.w3.org/1999/xlink" xmlns:sodipodi="http://sodipodi.sourceforge.net/DTD/sodipodi-0.dtd" xmlns:inkscape="http://www.inkscape.org/namespaces/inkscape" width="255" height="255" viewBox="0 0 67.468749 67.468749" version="1.1" id="svg8" inkscape:version="0.92.5 (2060ec1f9f, 2020-04-08)" sodipodi:docname="addressbook.svg">
 <defs id="defs2">
  <linearGradient inkscape:collect="always" id="linearGradient959">
   <stop id="stop955" stop-color="#010000" stop-opacity="0.653"/>
   <stop offset="1" id="stop957" stop-color="#ffffff" stop-opacity="0.734"/>
  </linearGradient>
  <pattern inkscape:collect="always" xlink:href="#pattern1574" id="pattern2316" patternTransform="matrix(0.10286653,0,0,0.08984244,-11.689324,249.52683)"/>
  <pattern inkscape:collect="always" xlink:href="#pattern1574" id="pattern2309" patternTransform="matrix(0.51671524,0,0,0.5307414,3.2242711e-7,4.3922244e-5)"/>
  <linearGradient id="linearGradient2307">
   <stop id="stop2303" stop-color="#d4a983" stop-opacity="0.82"/>
   <stop id="stop2305" offset="1" stop-color="#5c3512" stop-opacity="0.568"/>
  </linearGradient>
  <pattern inkscape:collect="always" xlink:href="#pattern1574" id="pattern2298" patternTransform="matrix(0.20753304,0,0,0.21386792,-11.678314,248.95469)"/>
  <linearGradient id="linearGradient4351" inkscape:collect="always">
   <stop id="stop4353" stop-color="#dbea25" stop-opacity="1"/>
   <stop id="stop4355" offset="1" stop-color="#6d6c13" stop-opacity="1"/>
  </linearGradient>
  <linearGradient id="linearGradient4325" inkscape:collect="always">
   <stop id="stop4327" stop-color="#000000" stop-opacity="0.618"/>
   <stop id="stop4329" offset="1" stop-color="#7a714d" stop-opacity="0"/>
  </linearGradient>
  <linearGradient id="linearGradient4271" inkscape:collect="always">
   <stop id="stop4273" stop-color="#dff06e" stop-opacity="1"/>
   <stop id="stop4275" offset="1" stop-color="#7c6e10" stop-opacity="1"/>
  </linearGradient>
  <linearGradient id="linearGradient928" inkscape:collect="always">
   <stop id="stop924" stop-color="#9b9b22" stop-opacity="1"/>
   <stop id="stop926" offset="1" stop-color="#e6e616" stop-opacity="1"/>
  </linearGradient>
  <linearGradient id="linearGradient3857" inkscape:collect="always">
   <stop id="stop3859" stop-color="#e3b219" stop-opacity="1"/>
   <stop id="stop3861" offset="1" stop-color="#d3e319" stop-opacity="0"/>
  </linearGradient>
  <linearGradient id="linearGradient3913">
   <stop id="stop3925" stop-color="#9e9e9e" stop-opacity="1"/>
   <stop offset="1" id="stop3927" stop-color="#000000" stop-opacity="1"/>
  </linearGradient>
  <linearGradient id="linearGradient5048">
   <stop id="stop5056" stop-color="black" stop-opacity="1"/>
   <stop offset="1" id="stop5052" stop-color="#b85700" stop-opacity="1"/>
  </linearGradient>
  <linearGradient y2="237.73" x2="45.32" y1="237.73" x1="26.56" gradientTransform="matrix(0.26458333,0,0,0.26458333,3.850291,171.20064)" gradientUnits="userSpaceOnUse" id="linearGradient3853" xlink:href="#linearGradient3913" inkscape:collect="always"/>
  <linearGradient gradientTransform="matrix(0.26458333,0,0,0.26458333,3.9495362,230.08962)" y2="237.73" x2="45.32" y1="237.73" x1="26.56" gradientUnits="userSpaceOnUse" id="linearGradient3856" xlink:href="#linearGradient3913" inkscape:collect="always"/>
  <linearGradient y2="113.21" x2="50.36" y1="113.47" x1="35.14" spreadMethod="reflect" gradientTransform="matrix(0.36089576,0.1096986,0,0.26458333,-1.8051218,230.02181)" gradientUnits="userSpaceOnUse" id="linearGradient3860" xlink:href="#linearGradient2307" inkscape:collect="always"/>
  <linearGradient y2="108.26" x2="37.671" y1="108.46" x1="11.641" spreadMethod="reflect" gradientTransform="matrix(0.14924693,-0.10845985,0,-0.26159558,5.7043574,295.30876)" gradientUnits="userSpaceOnUse" id="linearGradient3867" xlink:href="#linearGradient5048" inkscape:collect="always"/>
  <linearGradient gradientUnits="userSpaceOnUse" y2="147.84" x2="28.32" y1="147.84" x1="45.38" id="linearGradient3863" xlink:href="#linearGradient3857" inkscape:collect="always" gradientTransform="matrix(0.26458333,0,0,0.26458333,3.7929273,229.93301)"/>
  <linearGradient gradientTransform="matrix(0.26458333,0,0,0.26458333,3.6424088,229.85775)" spreadMethod="reflect" gradientUnits="userSpaceOnUse" y2="37.07" x2="205.06" y1="45.602" x1="194.31" id="linearGradient930" xlink:href="#linearGradient928" inkscape:collect="always"/>
  <filter height="1.023" y="-0.011" width="1.026" x="-0.013" id="filter976" inkscape:collect="always" color-interpolation-filters="sRGB">
   <feGaussianBlur id="feGaussianBlur978" stdDeviation="0.69442" inkscape:collect="always"/>
  </filter>
  <linearGradient gradientTransform="matrix(0.26458333,0,0,-0.26458333,3.7929273,299.36155)" y2="37.07" x2="205.06" y1="45.602" x1="194.31" spreadMethod="reflect" gradientUnits="userSpaceOnUse" id="linearGradient4263" xlink:href="#linearGradient928" inkscape:collect="always"/>
  <linearGradient gradientUnits="userSpaceOnUse" y2="44.86" x2="45.658" y1="44.01" x1="25.73" id="linearGradient4277" xlink:href="#linearGradient4271" inkscape:collect="always" gradientTransform="matrix(0.26458333,0,0,0.26458333,3.7929273,229.93301)"/>
  <linearGradient gradientUnits="userSpaceOnUse" y2="45.17" x2="25.921" y1="44.581" x1="52.786" id="linearGradient4287" xlink:href="#linearGradient928" inkscape:collect="always" gradientTransform="matrix(0.26458333,0,0,0.26458333,3.7929273,229.93301)"/>
  <linearGradient gradientTransform="matrix(0.26458333,0,0,0.26458333,3.7929273,243.19652)" y2="44.86" x2="45.658" y1="44.01" x1="25.73" gradientUnits="userSpaceOnUse" id="linearGradient4299" xlink:href="#linearGradient4271" inkscape:collect="always"/>
  <linearGradient gradientTransform="matrix(0.26458333,0,0,0.26458333,3.7929273,243.19652)" y2="49.852" x2="32.654" y1="48.68" x1="59.23" gradientUnits="userSpaceOnUse" id="linearGradient4301" xlink:href="#linearGradient928" inkscape:collect="always"/>
  <linearGradient gradientTransform="matrix(0.26458333,0,0,0.26458333,3.7929273,256.98163)" y2="44.86" x2="45.658" y1="44.01" x1="25.73" gradientUnits="userSpaceOnUse" id="linearGradient4309" xlink:href="#linearGradient4271" inkscape:collect="always"/>
  <linearGradient gradientTransform="matrix(0.26458333,0,0,0.26458333,3.7929273,256.98163)" y2="50.73" x2="32.654" y1="49.558" x1="53.37" gradientUnits="userSpaceOnUse" id="linearGradient4311" xlink:href="#linearGradient928" inkscape:collect="always"/>
  <linearGradient gradientTransform="matrix(0.26458333,0,0,0.26458333,3.7929273,270.0216)" y2="44.86" x2="45.658" y1="44.01" x1="25.73" gradientUnits="userSpaceOnUse" id="linearGradient4319" xlink:href="#linearGradient4271" inkscape:collect="always"/>
  <linearGradient gradientTransform="matrix(0.26458333,0,0,0.26458333,3.7929273,270.0216)" y2="47.22" x2="25.628" y1="46.923" x1="55.42" gradientUnits="userSpaceOnUse" id="linearGradient4321" xlink:href="#linearGradient928" inkscape:collect="always"/>
  <linearGradient gradientUnits="userSpaceOnUse" y2="7.325" x2="130.33" y1="19.15" x1="130.15" id="linearGradient4331" xlink:href="#linearGradient4325" inkscape:collect="always" gradientTransform="matrix(0.26458333,0,0,0.26458333,3.7929273,229.93301)"/>
  <radialGradient gradientTransform="matrix(0.14497716,0,0,0.14497716,-12.938772,234.44775)" spreadMethod="reflect" gradientUnits="userSpaceOnUse" r="10.279" fy="54.21" fx="-26.332" cy="54.21" cx="-26.332" id="radialGradient4357" xlink:href="#linearGradient4351" inkscape:collect="always"/>
  <radialGradient r="10.279" fy="54.21" fx="-26.332" cy="54.21" cx="-26.332" spreadMethod="reflect" gradientTransform="matrix(0.14497716,0,0,0.14497716,-12.938772,247.78578)" gradientUnits="userSpaceOnUse" id="radialGradient4361" xlink:href="#linearGradient4351" inkscape:collect="always"/>
  <radialGradient r="10.279" fy="54.21" fx="-26.332" cy="54.21" cx="-26.332" spreadMethod="reflect" gradientTransform="matrix(0.14497716,0,0,0.14497716,-12.938772,261.49637)" gradientUnits="userSpaceOnUse" id="radialGradient4365" xlink:href="#linearGradient4351" inkscape:collect="always"/>
  <radialGradient r="10.279" fy="54.21" fx="-26.332" cy="54.21" cx="-26.332" spreadMethod="reflect" gradientTransform="matrix(0.14497716,0,0,0.14497716,-12.938772,274.46183)" gradientUnits="userSpaceOnUse" id="radialGradient4369" xlink:href="#linearGradient4351" inkscape:collect="always"/>
  <pattern patternUnits="userSpaceOnUse" width="39.91" height="32.641" patternTransform="matrix(0.26458333,0,0,0.26458333,-11.689324,249.52683)" id="pattern1574">
   <g transform="matrix(3.7795276,0,0,3.7795276,47.016607,-899.12803)" id="g1572">
    <path d="m -9.4619189,237.89429 c -0.5406291,0.44446 0.6954489,0.34418 0,0 z m -0.3604649,0.49066 c -0.1697231,0.35824 0.2688582,0.0545 0,0 z m -1.7191402,0.0743 c -0.19737,0.55856 1.232177,0.75072 0.141671,0.0745 z m -0.277281,0.13385 c -0.369373,0.1978 0.269454,0.24872 0,0 z m 7.3618021,0.0148 c -0.7435656,0.51684 0.6716998,0.3411 0,0 z m -5.2544687,0.14871 c -0.5645144,0.58487 0.4309725,0.89352 0,0 z m 4.9355959,0.17845 c -0.5749795,0.30558 1.0961971,1.34617 0.2218246,0.44612 -0.073064,-0.14862 -0.080909,-0.34351 -0.2218246,-0.44612 z m -4.3394424,0.22304 c -0.070834,0.40565 0.9943189,0.65282 1.1645788,1.29375 0.9107979,0.52438 -0.4394652,-1.19033 -1.1645788,-1.29375 z m 3.7710171,0.13384 c -0.2274295,0.35277 -1.3334223,0.0387 -1.0354152,0.44586 0.2648213,-0.13251 1.1257583,-0.0995 1.0354152,-0.44586 z m 2.3291575,0 c -0.2142706,0.11714 0.2288233,0.0348 0,0 z m -3.8403371,0.43125 c -0.4667894,0.30102 0.7317655,-0.0245 0,0 z m -0.5268334,0.35691 c -0.3955564,0.19175 0.2574155,0.25162 0,0 z m 4.2146662,0.0297 c -0.1323816,0.18587 0.1130985,0.23703 0,0 z m -8.2491002,0.22306 c -0.137905,0.0411 0.112164,0.10817 0,0 z m 0.06932,0.0743 c -0.115395,0.81578 2.0784887,1.59852 0.707065,0.68404 -0.385309,-0.0592 -0.366839,-0.57188 -0.707065,-0.68404 z m 7.9995468,0 c -1.043551,0.24921 1.5627882,1.21458 1.2754906,0.68402 -0.5248973,-0.1873 -1.0192818,-0.0906 -1.2754906,-0.68402 z m -1.1507148,0.11897 c -0.6501425,0.27867 1.0906837,0.25208 0,0 z m -3.2857759,0.10404 c -0.2581858,0.59679 0.7908066,2.40106 -0.4510451,1.95589 -0.9256521,0.21947 1.0743994,0.23527 0.825374,1.01826 0.039735,0.76393 1.6164111,1.26304 0.5129692,0.40151 -0.6241634,-0.79941 -0.4373002,-1.59907 -0.5684253,-2.4537 -0.1500245,-0.26356 -0.1022148,-0.71867 -0.3188728,-0.92196 z m -1.6082279,0.59482 c -0.1764939,0.52299 1.3813672,0.65187 0.2072058,0.19787 l -0.096293,-0.0939 -0.1109123,-0.10405 z m 6.211087,0.28254 c -0.2094361,0.36912 0.2960585,0.39351 0,0 z m -0.1663684,0.41639 c -0.754711,0.49838 1.6576922,2.50178 0.7460596,1.05323 -0.6325892,-0.16286 -0.533192,-0.64821 -0.7460596,-1.05323 z m -6.5854159,0.2528 c -0.3713169,0.91817 0.5224643,0.71059 0,0 z m 6.4606396,0.44613 c -0.1367607,0.06 0.1052334,0.0891 0,0 z m -7.0290645,0.52048 c -0.326048,0.14817 0.313198,0.45569 0,0 z m 6.6131434,0.16356 c -0.1439526,0.20223 0.304428,-0.009 0,0 z m -6.7795124,0.11897 c -0.721755,0.32334 0.298442,1.68375 -0.06643,0.44643 0.09865,-0.12784 0.157077,-0.28828 0.06643,-0.44643 z m 4.3671706,0.0892 c 0.079169,0.54927 0.7621561,0.97604 0.3188729,0.11895 -0.1201297,5.9e-4 -0.1944192,-0.15573 -0.3188729,-0.11895 z m 3.327368,0.25281 c -0.010873,0.32198 0.455197,1.04828 0.7019818,1.10124 0.077222,-0.54811 -0.3384613,-0.83347 -0.7019818,-1.10124 z m -2.4677978,0.16357 c -0.079332,0.52222 0.8248771,-0.0506 0,0 z m 1.5111795,0 c -0.1326589,0.4904 -1.64271,-0.17421 -0.6793376,0.3718 0.2440695,0.14594 1.2830015,0.0353 0.6793376,-0.3718 z m -1.5804997,0.19332 c -0.1635661,0.0201 -0.017586,0.13827 0,0 z m -0.8734342,0.44614 c 0.1767157,0.38383 0.6961919,-0.1522 0,1e-5 z m -4.7137714,0.10404 c -0.108814,0.46562 0.562235,0.49582 0.02773,0.0297 z m 4.7692276,0.22307 c -0.1480919,0.84797 0.7712556,0.61228 0,0 z m -3.4105522,0.23792 c -0.2145504,0.18248 1.122221,1.129 0.4434008,0.16161 -0.1459797,-0.0604 -0.3061426,-0.0768 -0.4434008,-0.16161 z m 2.883719,0.34201 c -0.5680738,0.12465 0.020123,1.356 -0.0054,0.17437 0.095262,-0.0805 0.374298,-0.15177 0.0054,-0.17437 z m 2.4400698,0.11893 c -0.3634153,0.48289 1.1289988,0.32428 0.2079605,0.0594 -0.046848,0.14245 -0.1356914,-0.15873 -0.2079605,-0.0594 z m -6.6963282,0.10405 c -1.076303,0.62592 2.2764759,0.40545 0.569654,0.235 -0.195229,-0.0607 -0.379868,-0.18831 -0.569654,-0.235 z m 2.0241489,0.14871 c -0.069098,0.11367 0.1076223,0.0857 0,0 z m 6.59928,0 c -0.3674262,0.93237 0.6885028,0.61456 0,0 z m -9.7880079,0.16358 c -0.608061,0.26192 0.729856,0.15871 0,0 z m 8.9977579,0.0595 c -0.1450818,0.0913 0.1450817,0.0913 0,0 z m -8.4709249,0.35682 c -0.132444,0.19575 0.395594,-0.028 0,0 z" id="path1566" inkscape:connector-curvature="0" sodipodi:nodetypes="cccccccccccccccccccccccccccccccccccccccccccccccccccccccccccccccccccccccccccccccccccccccccccccccccccccccccccccc" fill="#cbab44" fill-opacity="1" stroke-width="0.119"/>
    <g transform="matrix(1,0,0,1.0691145,0.1652647,-16.406193)" id="g1570">
     <path d="m -9.6452672,237.97553 c -0.5406288,0.41437 0.695448,0.32088 0,0 z m -0.3604648,0.45744 c -0.169723,0.33398 0.2688583,0.0508 0,0 z m -1.71914,0.0693 c -0.197371,0.52074 1.232177,0.69989 0.141671,0.0695 z m -0.277281,0.12478 c -0.369373,0.18441 0.269454,0.23188 0,0 z m 7.3618024,0.0138 c -0.7435658,0.48185 0.6716989,0.31802 0,0 z m -5.2544691,0.13864 c -0.5645153,0.54527 0.430972,0.83303 0,0 z m 4.9355961,0.16637 c -0.5749798,0.2849 1.0961974,1.25503 0.2218249,0.41592 -0.073064,-0.13856 -0.080909,-0.32026 -0.2218249,-0.41592 z m -4.3394428,0.20796 c -0.070834,0.37818 0.994319,0.60863 1.1645788,1.20615 0.9107984,0.48888 -0.439462,-1.10972 -1.1645788,-1.20615 z m 3.7710175,0.12478 c -0.227429,0.32888 -1.333423,0.0361 -1.0354154,0.41567 0.2648208,-0.12354 1.1257604,-0.0928 1.0354154,-0.41567 z m 2.3291575,0 c -0.2142715,0.10921 0.2288267,0.0324 0,0 z m -3.8403373,0.40206 c -0.4667887,0.28063 0.7317667,-0.0228 0,0 z m -0.526833,0.33273 c -0.3955562,0.17878 0.2574143,0.23459 0,0 z m 4.214666,0.0277 c -0.1323808,0.1733 0.1130972,0.22098 0,0 z m -8.2491003,0.20796 c -0.137906,0.0383 0.112164,0.10085 0,0 z m 0.06932,0.0693 c -0.115396,0.76055 2.0784898,1.4903 0.707066,0.63772 -0.385309,-0.0552 -0.36684,-0.53316 -0.707066,-0.63772 z m 7.9995485,0 c -1.0435535,0.23234 1.562792,1.13234 1.2754906,0.6377 -0.5248971,-0.1746 -1.0192837,-0.0845 -1.2754906,-0.6377 z m -1.150715,0.11091 c -0.6501576,0.2598 1.0906883,0.23501 0,0 z m -3.2857763,0.097 c -0.2581849,0.55639 0.7908066,2.23849 -0.4510453,1.82346 -0.9256516,0.20461 1.0744,0.21934 0.8253746,0.94933 0.039734,0.71219 1.6164107,1.17752 0.512969,0.37431 -0.6241618,-0.74527 -0.4373011,-1.49079 -0.5684252,-2.28757 -0.1500243,-0.2457 -0.1022145,-0.67 -0.3188731,-0.85953 z m -1.6082281,0.55454 c -0.1764942,0.48758 1.3813672,0.60775 0.2072057,0.18449 l -0.096293,-0.0876 -0.1109122,-0.097 z m 6.2110869,0.26342 c -0.2094355,0.34412 0.2960592,0.36686 0,0 z m -0.1663675,0.38819 c -0.7547126,0.46464 1.6576917,2.33239 0.7460593,0.98192 -0.6325887,-0.15182 -0.5331925,-0.60431 -0.7460593,-0.98192 z m -6.5854165,0.23569 c -0.371318,0.856 0.5224641,0.66248 0,0 z m 6.4606397,0.41592 c -0.1367593,0.0559 0.1052315,0.0831 0,0 z m -7.0290657,0.48524 c -0.326047,0.13815 0.313199,0.42485 0,0 z m 6.6131447,0.15247 c -0.1439524,0.18853 0.3044285,-0.008 0,0 z m -6.7795127,0.11091 c -0.721755,0.30145 0.298441,1.56975 -0.06643,0.4162 0.09865,-0.11918 0.157076,-0.26876 0.06643,-0.4162 z m 4.3671703,0.0832 c 0.079169,0.51208 0.7621577,0.90995 0.3188729,0.11089 -0.120128,5.5e-4 -0.1944219,-0.14519 -0.3188729,-0.11089 z m 3.3273682,0.23569 c -0.010865,0.30015 0.4551966,0.9773 0.7019824,1.02666 0.077227,-0.51099 -0.3384824,-0.77707 -0.7019824,-1.02666 z m -2.4677975,0.1525 c -0.079331,0.48685 0.824875,-0.0471 0,0 z m 1.5111798,0 c -0.132658,0.45719 -1.6427108,-0.16242 -0.6793377,0.34662 0.2440657,0.13606 1.2830021,0.0329 0.6793377,-0.34662 z m -1.5805003,0.18023 c -0.1635661,0.0187 -0.017584,0.12891 0,0 z m -0.8734339,0.41591 c 0.1767144,0.35785 0.6961928,-0.14189 0,3e-5 z m -4.7137716,0.097 c -0.108814,0.43409 0.562235,0.46225 0.02773,0.0277 z m 4.7692278,0.20796 c -0.1651329,0.80489 0.7772812,0.52159 0,0 z m 4.4642188,0.0416 c -0.6133331,0.74804 0.046093,1.22074 0,0 z m -7.8747714,0.18023 c -0.2145542,0.17016 1.1222219,1.05256 0.4434006,0.15068 -0.1459791,-0.0563 -0.3061197,-0.0716 -0.4434006,-0.15068 z m 2.8837191,0.31886 c -0.5680724,0.11621 0.020121,1.2642 -0.0054,0.16256 0.09526,-0.075 0.3742972,-0.14149 0.0054,-0.16256 z m 2.4400699,0.11091 c -0.3634144,0.45019 1.1289991,0.30232 0.2079606,0.0554 -0.046848,0.13281 -0.1356887,-0.14798 -0.2079606,-0.0554 z m -6.6963282,0.097 c -1.076304,0.58354 2.2764748,0.378 0.569654,0.21909 -0.195229,-0.0566 -0.379867,-0.17556 -0.569654,-0.21909 z m 2.0241488,0.13864 c -0.069098,0.10598 0.1076219,0.0799 0,0 z m 6.5992803,0 c -0.3674258,0.86924 0.6885026,0.57295 0,0 z m -9.7880081,0.15251 c -0.217782,0.37043 0.591097,0.0825 0,0 z m 8.9977579,0.0555 c -0.1450804,0.0851 0.1450804,0.0851 0,0 z" id="path1568" inkscape:connector-curvature="0" sodipodi:nodetypes="cccccccccccccccccccccccccccccccccccccccccccccccccccccccccccccccccccccccccccccccccccccccccccccccccccccccccccccccc" fill="#655228" fill-opacity="1" stroke-width="0.115"/>
    </g>
   </g>
  </pattern>
  <pattern patternUnits="userSpaceOnUse" width="20.622" height="17.324" patternTransform="matrix(0.26458333,0,0,0.26458333,-7.7117448,251.47809)" id="pattern2311">
   <rect id="rect1580" y="0" x="0" height="17.324" width="20.622" fill="url(#pattern2309)" stroke="none" stroke-width="1.979"/>
  </pattern>
  <linearGradient inkscape:collect="always" xlink:href="#linearGradient959" id="linearGradient961" x1="33.443" y1="256.03" x2="28.442" y2="251.46" gradientUnits="userSpaceOnUse" spreadMethod="reflect"/>
  <linearGradient inkscape:collect="always" xlink:href="#linearGradient928" id="linearGradient965" gradientUnits="userSpaceOnUse" gradientTransform="matrix(0.26458333,0,0,0.26458333,1.8608,226.13961)" x1="194.31" y1="45.602" x2="205.06" y2="37.07" spreadMethod="reflect"/>
  <filter inkscape:collect="always" id="filter1001" x="-0.037" width="1.073" y="-0.167" height="1.334" color-interpolation-filters="sRGB">
   <feGaussianBlur inkscape:collect="always" stdDeviation="0.85708" id="feGaussianBlur1003"/>
  </filter>
 </defs>
 <sodipodi:namedview id="base" pagecolor="#ff0000" bordercolor="#666666" borderopacity="1.0" inkscape:pageopacity="0" inkscape:pageshadow="2" inkscape:zoom="2.98" inkscape:cx="127.5" inkscape:cy="115.78932" inkscape:document-units="mm" inkscape:current-layer="layer1" showgrid="false" inkscape:snap-to-guides="false" inkscape:snap-grids="false" inkscape:snap-others="false" inkscape:object-nodes="false" inkscape:snap-nodes="false" inkscape:snap-global="false" inkscape:window-width="1920" inkscape:window-height="1056" inkscape:window-x="0" inkscape:window-y="0" inkscape:window-maximized="1" units="px"/>
 <metadata id="metadata5">
  <rdf:RDF>
   <cc:Work>
    <dc:format>image/svg+xml</dc:format>
    <dc:type rdf:resource="http://purl.org/dc/dcmitype/StillImage"/>
    <dc:title/>
   </cc:Work>
  </rdf:RDF>
 </metadata>
 <g inkscape:label="Layer 1" inkscape:groupmode="layer" id="layer1" transform="translate(0,-229.53126)">
  <path d="m 11.15442,295.91555 53.680645,-0.38731 -2.168915,-11.92903 -50.427272,0.54223 -3.0209893,6.66166 c -1.081176,2.24543 -0.9843787,4.97211 1.9365313,5.11245 z" id="path971" inkscape:connector-curvature="0" sodipodi:nodetypes="cccccc" stroke-opacity="1" fill="#000000" filter="url(#filter1001)" stroke="none" stroke-linejoin="miter" fill-opacity="1" stroke-linecap="butt" stroke-width="0.265"/>
  <path inkscape:connector-curvature="0" sodipodi:nodetypes="ccccc" id="path3254" d="m 11.254226,293.3074 c -0.08563,-1.22258 0.351724,-3.06996 1.88213,-2.78428 l -0.01366,-58.59232 c -1.271762,0.0379 -1.960733,0.78075 -1.958592,1.83785 z" fill="url(#linearGradient3867)" fill-opacity="1" stroke-width="0.265"/>
  <rect y="231.88" x="13.06" height="59.35" width="47.26" id="rect3247" fill="#51380d" fill-opacity="1" stroke-width="0.265"/>
  <path sodipodi:nodetypes="ccccccc" inkscape:connector-curvature="0" id="path963" d="m 51.306132,232.46139 c 3.450238,0.40576 4.995074,1.23443 5.117629,2.25778 -2.167445,1.16402 -4.61061,1.71776 -4.440295,4.44029 2.12985,0.23839 3.661412,-0.48267 5.192889,-3.23615 2.07753,0.53956 2.183395,1.63383 2.483554,3.98875 l -0.0013,-7.52028 z" stroke-opacity="1" fill="url(#linearGradient965)" stroke="#93741e" stroke-linejoin="miter" fill-opacity="1" stroke-linecap="butt" stroke-width="0.265"/>
  <rect id="rect3234" width="47.26" height="59.35" x="15.783" y="234.92" fill="#732201" fill-opacity="1" stroke-width="0.265"/>
  <path d="m 11.157099,232.67569 c -0.01952,0.11659 -0.01593,0.226 -0.001,0.33177 z m -0.001,0.33177 -0.185002,57.92359 c -0.136376,1.5969 1.019613,2.59337 4.823478,2.65824 v 0.1018 H 63.052154 V 234.34432 H 15.794575 v 0.0171 c -2.821222,0.16093 -4.496748,-0.34737 -4.638476,-1.35392 z" id="rect1446" inkscape:connector-curvature="0" fill="url(#pattern2298)" fill-opacity="1" stroke-width="0.265"/>
  <path inkscape:connector-curvature="0" id="path2462" d="m 167.27385,85.104797 -10.68344,67.604723 c -0.228,1.36751 -0.34195,2.36463 -0.34188,2.99136 -7e-5,1.02563 0.28483,1.82333 0.85469,2.39308 0.56968,0.56982 1.42436,0.8547 2.56402,0.85468 2.62091,2e-5 5.58377,-1.16802 8.88861,-3.50416 4.90003,-3.41867 8.91699,-8.34728 12.05092,-14.78586 3.19065,-6.49548 4.78604,-14.32999 4.78617,-23.50355 -1.3e-4,-15.04218 -4.33048,-26.922135 -12.99105,-35.639904 -8.60383,-8.717564 -20.1704,-13.076397 -34.69977,-13.076513 -10.71198,1.16e-4 -20.48373,2.564136 -29.31532,7.692066 -8.774675,5.128147 -15.555084,12.563804 -20.341233,22.306994 -4.729215,9.743357 -7.093811,20.512237 -7.093798,32.306687 -1.3e-5,18.34704 5.156511,32.90497 15.469597,43.67384 10.370014,10.71192 23.731404,16.06787 40.084214,16.06787 7.97687,0 15.64044,-1.33899 22.99073,-4.01696 7.40707,-2.67798 14.50086,-6.66645 21.28138,-11.96544 h 17.52081 c -4.67234,5.5269 -9.11665,9.85724 -13.33291,12.99105 -6.21074,4.61523 -13.41848,8.37579 -21.62325,11.28169 -8.20496,2.90588 -17.03659,4.35882 -26.49489,4.35884 -13.16203,-2e-5 -24.98501,-3.04836 -35.46897,-9.14502 -10.484025,-6.09667 -18.688884,-14.78586 -24.614611,-26.06755 -5.868768,-11.28167 -8.803145,-23.70292 -8.803145,-37.26378 0,-14.24452 3.048333,-27.17857 9.145014,-38.802218 6.153641,-11.680442 14.301516,-20.626021 24.443672,-26.836765 10.1421,-6.210507 22.16449,-9.315819 36.06724,-9.315946 17.94806,1.27e-4 32.53449,5.697948 43.75931,17.09348 11.28158,11.395753 16.92242,26.124623 16.92254,44.186649 -1.2e-4,10.71196 -2.19379,20.51223 -6.58099,29.40079 -4.38744,8.88864 -10.82598,15.92545 -19.31562,21.11045 -6.55261,3.98848 -12.70624,5.98273 -18.46096,5.98272 -3.41878,10e-6 -6.21071,-0.79768 -8.37582,-2.39309 -2.16524,-1.59537 -3.76063,-4.1309 -4.78616,-7.6066 -3.81761,3.70362 -7.29328,6.3246 -10.42703,7.863 -3.13387,1.48146 -6.52406,2.22216 -10.17061,2.22215 -7.57815,1e-5 -14.10216,-3.16227 -19.57203,-9.48688 -5.469953,-6.32456 -8.204897,-15.3841 -8.204873,-27.17864 -2.4e-5,-13.95962 3.504136,-26.58029 10.512483,-37.862055 7.00829,-11.281602 15.69745,-16.922445 26.06755,-16.922547 4.04539,1.02e-4 7.60654,0.940242 10.68343,2.820426 3.13373,1.880378 6.26752,5.156625 9.40141,9.82875 l 1.53841,-9.657817 h 16.66616 m -56.92129,55.981153 c -5e-5,6.78046 1.4529,12.05094 4.35884,15.81147 2.16513,2.79196 4.92856,4.18794 8.29033,4.18791 3.64654,3e-5 6.95128,-1.5384 9.91422,-4.61524 2.9628,-3.13379 5.55531,-9.34441 7.77753,-18.63189 2.22207,-9.28741 3.33314,-17.63471 3.33323,-25.04196 -9e-5,-5.5838 -1.19662,-9.80019 -3.58964,-12.64918 -2.39316,-2.848826 -5.24206,-4.273281 -8.54673,-4.273369 -3.76064,8.8e-5 -7.06537,1.424543 -9.91421,4.273369 -3.8176,3.81763 -6.72349,9.88582 -8.71768,18.20456 -1.9373,8.26192 -2.90594,15.84001 -2.90589,22.73433" transform="matrix(0.23656373,0,0,0.23656373,7.0292569,233.28703)" stroke-opacity="1" font-family="&apos;Arial Black&apos;" fill="#0c0b09" filter="url(#filter976)" stroke="none" font-style="normal" stroke-linejoin="miter" fill-opacity="1" font-weight="normal" stroke-linecap="butt" stroke-width="0.934" font-stretch="normal" font-variant="normal" font-size="144"/>
  <path inkscape:connector-curvature="0" d="m 47.773985,252.83177 -2.527316,15.99283 c -0.05394,0.3235 -0.08089,0.55938 -0.08087,0.70764 -1.9e-5,0.24263 0.06738,0.43134 0.202184,0.56612 0.13477,0.1348 0.336954,0.20219 0.606554,0.20218 0.620017,10e-6 1.320922,-0.27631 2.102723,-0.82895 1.159172,-0.80874 2.109438,-1.97467 2.850814,-3.4978 0.754793,-1.53659 1.132203,-3.38996 1.132232,-5.56009 -2.9e-5,-3.55843 -1.02443,-6.3688 -3.07321,-8.43111 -2.035352,-2.06226 -4.771583,-3.0934 -8.208708,-3.09343 -2.534066,3e-5 -4.845706,0.60659 -6.934941,1.81967 -2.07577,1.21313 -3.679769,2.97214 -4.811998,5.27703 -1.118761,2.30492 -1.678138,4.85245 -1.678135,7.64258 -3e-6,4.34025 1.219842,7.78413 3.659544,10.33165 2.453171,2.53405 5.613992,3.80108 9.482473,3.80108 1.887038,0 3.699963,-0.31676 5.438773,-0.95027 1.752248,-0.63351 3.430378,-1.57704 5.034404,-2.83059 h 4.14479 c -1.10531,1.30746 -2.156669,2.33187 -3.154084,3.07321 -1.469237,1.0918 -3.174326,1.98141 -5.115277,2.66884 -1.940997,0.68743 -4.030239,1.03114 -6.267731,1.03114 -3.113656,0 -5.91055,-0.72113 -8.39067,-2.16338 -2.480143,-1.44225 -4.421115,-3.49779 -5.822927,-6.16663 -1.388338,-2.66883 -2.082505,-5.60725 -2.082505,-8.81526 0,-3.36974 0.721125,-6.42947 2.163379,-9.1792 1.455729,-2.76317 3.383219,-4.87937 5.782487,-6.34861 2.399252,-1.46918 5.243314,-2.20378 8.532201,-2.20381 4.245861,3e-5 7.69648,1.34793 10.351868,4.0437 2.668812,2.69582 4.00323,6.18014 4.003259,10.45296 -2.9e-5,2.53406 -0.518975,4.85244 -1.556827,6.95516 -1.03791,2.10273 -2.561031,3.76738 -4.569375,4.99396 -1.550106,0.94353 -3.005836,1.4153 -4.367194,1.4153 -0.80876,0 -1.469228,-0.18871 -1.981414,-0.56612 -0.512217,-0.37741 -0.88963,-0.97722 -1.132234,-1.79944 -0.903108,0.87614 -1.725327,1.49616 -2.466655,1.8601 -0.74136,0.35045 -1.543357,0.52568 -2.405999,0.52568 -1.792714,0 -3.33606,-0.74808 -4.630031,-2.24426 -1.293995,-1.49616 -1.94098,-3.63932 -1.940975,-6.42947 -5e-6,-3.30235 0.82895,-6.28794 2.486871,-8.9568 1.657908,-2.66881 3.713451,-4.00323 6.166639,-4.00326 0.956992,3e-5 1.799428,0.22243 2.527313,0.66721 0.741325,0.44483 1.482669,1.21987 2.224029,2.32513 l 0.363934,-2.28469 h 3.94261 m -13.465514,13.24311 c -1.1e-5,1.60401 0.343704,2.85082 1.031142,3.74042 0.512191,0.66048 1.165918,0.99071 1.961192,0.99071 0.862643,0 1.64442,-0.36393 2.345344,-1.0918 0.700892,-0.74134 1.314185,-2.21055 1.839883,-4.40763 0.525661,-2.19706 0.788503,-4.17173 0.788522,-5.92402 -1.9e-5,-1.32092 -0.283078,-2.31837 -0.84918,-2.99234 -0.566132,-0.67392 -1.240079,-1.0109 -2.021848,-1.01092 -0.88963,2e-5 -1.671408,0.337 -2.345344,1.01092 -0.903102,0.90312 -1.590529,2.33863 -2.062284,4.30654 -0.458295,1.95447 -0.687438,3.74717 -0.687427,5.37812" id="text2457" font-family="&apos;Arial Black&apos;" fill="url(#pattern2316)" stroke="none" font-style="normal" fill-opacity="1" font-weight="normal" stroke-width="0.265" font-stretch="normal" font-variant="normal" font-size="144"/>
  <path inkscape:connector-curvature="0" d="m 11.451121,233.18008 c -0.207066,1.23654 1.547336,1.87532 4.715159,1.68202 v 59.23389 c -3.868208,-0.0521 -5.038627,-1.05224 -4.901292,-2.66037 z" id="rect3236" sodipodi:nodetypes="ccccc" fill="url(#linearGradient3860)" fill-opacity="1" stroke-width="0.265"/>
  <path inkscape:connector-curvature="0" d="M 15.782322,235.17024 H 62.652844 V 294.0309 H 15.782322" id="rect3249" sodipodi:nodetypes="cccc" stroke-opacity="1" fill="none" stroke="#000000" stroke-width="0.262"/>
  <path inkscape:connector-curvature="0" d="m 11.109109,291.90674 c 0.02217,1.92277 2.73766,2.21286 4.700178,2.1588" id="path3258" sodipodi:nodetypes="cc" stroke-opacity="1" fill="none" stroke="url(#linearGradient3856)" stroke-linejoin="round" stroke-linecap="round" stroke-width="0.265"/>
  <path inkscape:connector-curvature="0" sodipodi:nodetypes="cc" id="path3268" d="m 11.25685,233.32917 c 0.02217,1.92277 2.490673,1.90145 4.453191,1.84738" stroke-opacity="1" fill="none" stroke="url(#linearGradient3853)" stroke-linejoin="round" stroke-linecap="round" stroke-width="0.265"/>
  <path d="m 11.388457,234.86619 c 0.991856,0.83525 2.401336,1.14846 4.228439,0.93965 l 46.199613,0.0783 3e-6,57.31884 -45.808093,0.15661 c -2.397951,0.0612 -4.099981,-0.24492 -4.619962,-1.6444" id="path3087" inkscape:connector-curvature="0" sodipodi:nodetypes="cccccc" stroke-dasharray="none" stroke-opacity="1" fill="none" stroke="url(#linearGradient3863)" stroke-linejoin="miter" stroke-linecap="butt" stroke-width="0.635" stroke-miterlimit="4"/>
  <path d="m 53.087741,236.17953 c 3.450238,0.40576 4.995074,1.23443 5.117629,2.25778 -2.167445,1.16402 -4.61061,1.71776 -4.440295,4.44029 2.12985,0.23839 3.661412,-0.48267 5.192889,-3.23615 2.07753,0.53956 2.183395,1.63383 2.483554,3.98875 l -0.0013,-7.52028 z" id="path922" inkscape:connector-curvature="0" sodipodi:nodetypes="ccccccc" stroke-opacity="1" fill="url(#linearGradient930)" stroke="#93741e" stroke-linejoin="miter" fill-opacity="1" stroke-linecap="butt" stroke-width="0.265"/>
  <path d="m 40.758391,246.01138 c -3.092688,3e-5 -5.792121,0.64975 -8.098152,1.94888 2.034145,-0.90607 4.34132,-1.36114 6.924111,-1.36117 4.245861,3e-5 7.696589,1.34799 10.351974,4.04376 2.668815,2.69583 4.003074,6.18034 4.0031,10.45316 -2.6e-5,2.53406 -0.518755,4.85236 -1.556604,6.95507 -1.03791,2.10273 -2.561222,3.76713 -4.569563,4.99371 -0.104961,0.0639 -0.208241,0.12017 -0.312336,0.17973 0.485675,-0.20741 0.980604,-0.45959 1.486377,-0.76744 2.008343,-1.22658 3.53119,-2.89145 4.569097,-4.99418 1.037852,-2.10271 1.557041,-4.421 1.55707,-6.95506 -2.9e-5,-4.27283 -1.334749,-7.75734 -4.003561,-10.45316 -2.655387,-2.69577 -6.105652,-4.04327 -10.351513,-4.0433 z m -6.758702,4.74467 c -0.452697,0.1995 -0.896668,0.42377 -1.330209,0.6755 -2.075769,1.21314 -3.679441,2.97206 -4.811669,5.27695 -1.118762,2.30492 -1.678126,4.85243 -1.678124,7.64257 -2e-6,4.34025 1.219642,7.78412 3.659345,10.33165 2.453169,2.53405 5.613939,3.80119 9.482417,3.80119 1.88704,0 3.699846,-0.3169 5.438659,-0.95041 0.812697,-0.29383 1.608846,-0.65767 2.389661,-1.08487 -0.401354,0.18189 -0.806172,0.34866 -1.215623,0.49669 -1.73881,0.63351 -3.551616,0.95041 -5.438653,0.95041 -3.868486,0 -7.029252,-1.26714 -9.482421,-3.80119 -2.439701,-2.54753 -3.659809,-5.9914 -3.659806,-10.33164 -3e-6,-2.79014 0.559364,-5.33766 1.678123,-7.64258 1.132231,-2.30489 2.736362,-4.06381 4.812132,-5.27694 0.05174,-0.03 0.104154,-0.058 0.156168,-0.0873 z m 4.716492,1.50255 c -1.206617,1e-5 -2.316618,0.32463 -3.330837,0.97028 0.681254,-0.25411 1.39982,-0.3821 2.156796,-0.3821 0.956992,2e-5 1.799471,0.2224 2.52735,0.66718 0.741328,0.44483 1.482892,1.21972 2.224257,2.32498 l 0.279992,-1.75806 c -0.443412,-0.50232 -0.886809,-0.88903 -1.330208,-1.15509 -0.727885,-0.44479 -1.570358,-0.66716 -2.52735,-0.66719 z m 5.115229,0.70785 -0.0938,0.58771 h 2.862792 l -2.527353,15.993 c -0.05394,0.3235 -0.08087,0.55958 -0.08085,0.70784 -1.6e-5,0.24263 0.0671,0.43122 0.201909,0.566 0.134765,0.1348 0.337055,0.20191 0.606657,0.20191 0.573739,0 1.217653,-0.23969 1.929935,-0.71293 -0.264054,0.0827 -0.516512,0.12522 -0.756357,0.12522 -0.2696,0 -0.471424,-0.0676 -0.606195,-0.20238 -0.134807,-0.13478 -0.202393,-0.32336 -0.202374,-0.56599 -1.9e-5,-0.14826 0.02692,-0.38434 0.08086,-0.70784 l 2.527351,-15.99254 z m -6.408939,3.23981 c -0.562821,0.14543 -1.076502,0.4449 -1.538123,0.90652 -0.90311,0.90311 -1.590329,2.33875 -2.062083,4.30666 -0.458293,1.95447 -0.687525,3.74718 -0.687512,5.37813 -1.3e-5,1.60401 0.343831,2.8506 1.031272,3.7402 0.512191,0.66048 1.165619,0.99062 1.960893,0.99061 0.678037,10e-6 1.305602,-0.22813 1.88373,-0.67781 -0.230442,0.0579 -0.466386,0.0901 -0.709692,0.0901 -0.795271,0 -1.449162,-0.33014 -1.961351,-0.99061 -0.687443,-0.88961 -1.031282,-2.13665 -1.031274,-3.74067 -8e-6,-1.63094 0.229219,-3.42366 0.687514,-5.37812 0.471755,-1.96792 1.159439,-3.40355 2.062541,-4.30666 0.117777,-0.11778 0.239723,-0.22116 0.364085,-0.31835 z m 2.90992,15.88858 c -0.645896,0.62661 -1.249429,1.11992 -1.812576,1.48453 0.176337,-0.0619 0.349829,-0.13219 0.519792,-0.21254 0.441177,-0.21658 0.911672,-0.52609 1.410142,-0.92408 -0.04171,-0.11173 -0.08153,-0.22647 -0.117358,-0.34791 z m 10.636128,2.02003 c -0.262848,0.20542 -0.528341,0.39941 -0.795168,0.58818 h 3.766073 c -1.105304,1.30746 -2.15646,2.33167 -3.153873,3.07302 -0.651174,0.48389 -1.351512,0.92574 -2.095343,1.3302 1.194498,-0.54955 2.285677,-1.18773 3.268921,-1.91838 0.997413,-0.74135 2.049029,-1.76555 3.154336,-3.07302 z" id="path953" inkscape:connector-curvature="0" font-family="&apos;Arial Black&apos;" fill="url(#pattern1574)" stroke="none" font-style="normal" fill-opacity="1" font-weight="normal" stroke-width="0.265" font-stretch="normal" font-variant="normal" font-size="144"/>
  <path sodipodi:nodetypes="ccccccc" inkscape:connector-curvature="0" id="path4261" d="m 53.23826,293.03977 c 3.450238,-0.40577 4.995074,-1.23443 5.117629,-2.25778 -2.167445,-1.16402 -4.610611,-1.71776 -4.440296,-4.4403 2.129851,-0.23839 3.661413,0.48268 5.19289,3.23615 2.07753,-0.53955 2.183395,-1.63382 2.483554,-3.98874 l -0.0013,7.52027 z" stroke-opacity="1" fill="url(#linearGradient4263)" stroke="#93741e" stroke-linejoin="miter" fill-opacity="1" stroke-linecap="butt" stroke-width="0.265"/>
  <path d="m 11.19131,240.4058 c 0.949445,1.26352 2.780556,1.22024 5.190304,1.19008 l 3.91867,0.0156 0.02633,4.09174 -4.571828,0.0238 c -2.583757,0.0268 -4.669887,-0.0409 -4.586966,-1.88148 z" id="path4341" inkscape:connector-curvature="0" sodipodi:nodetypes="ccccccc" opacity="1" stroke-dasharray="none" stroke-opacity="1" fill="#000000" fill-rule="nonzero" stroke="none" stroke-linejoin="round" fill-opacity="0.618" stroke-linecap="round" stroke-width="0.529" stroke-miterlimit="4"/>
  <path d="m 10.867297,238.21153 c 0.488754,2.03102 2.211534,2.18652 4.365037,2.10726 h 4.365037 v 4.59081 h -4.515555 c -2.523488,0.15808 -4.289347,-0.26663 -4.214519,-2.10726 z" id="rect4268" inkscape:connector-curvature="0" sodipodi:nodetypes="ccccccc" opacity="1" stroke-dasharray="none" stroke-opacity="1" fill="#000000" fill-rule="nonzero" stroke="url(#linearGradient4277)" stroke-linejoin="round" fill-opacity="0.705" stroke-linecap="round" stroke-width="0.529" stroke-miterlimit="4"/>
  <path sodipodi:nodetypes="ccccccc" inkscape:connector-curvature="0" id="path4279" d="m 11.11427,239.36261 c 0.856776,1.26351 2.509163,1.22023 4.683709,1.19007 l 3.536192,0.0156 0.02376,4.09173 -4.125598,0.0238 c -2.331573,0.0268 -4.214088,-0.0409 -4.13926,-1.88148 z" opacity="1" stroke-dasharray="none" stroke-opacity="1" fill="url(#linearGradient4287)" fill-rule="nonzero" stroke="none" stroke-linejoin="round" fill-opacity="1" stroke-linecap="round" stroke-width="0.529" stroke-miterlimit="4"/>
  <path sodipodi:nodetypes="ccccccc" inkscape:connector-curvature="0" id="path4343" d="m 11.116796,253.52029 c 0.949445,1.26351 2.780556,1.22024 5.190304,1.19007 l 3.91867,0.0156 0.02633,4.09173 -4.571828,0.0238 c -2.583758,0.0268 -4.669887,-0.0408 -4.586966,-1.88148 z" opacity="1" stroke-dasharray="none" stroke-opacity="1" fill="#000000" fill-rule="nonzero" stroke="none" stroke-linejoin="round" fill-opacity="0.618" stroke-linecap="round" stroke-width="0.529" stroke-miterlimit="4"/>
  <path sodipodi:nodetypes="ccccccc" inkscape:connector-curvature="0" id="path4295" d="m 10.867297,251.47504 c 0.488754,2.03103 2.211534,2.18653 4.365037,2.10726 h 4.365037 v 4.59082 h -4.515555 c -2.523488,0.15807 -4.289347,-0.26664 -4.214519,-2.10726 z" opacity="1" stroke-dasharray="none" stroke-opacity="1" fill="#000000" fill-rule="nonzero" stroke="url(#linearGradient4299)" stroke-linejoin="round" fill-opacity="0.705" stroke-linecap="round" stroke-width="0.529" stroke-miterlimit="4"/>
  <path d="m 11.11427,252.62612 c 0.856776,1.26351 2.509163,1.22024 4.683709,1.19007 l 3.536192,0.0156 0.02376,4.09173 -4.125598,0.0238 c -2.331573,0.0268 -4.214088,-0.0409 -4.13926,-1.88147 z" id="path4297" inkscape:connector-curvature="0" sodipodi:nodetypes="ccccccc" opacity="1" stroke-dasharray="none" stroke-opacity="1" fill="url(#linearGradient4301)" fill-rule="nonzero" stroke="none" stroke-linejoin="round" fill-opacity="1" stroke-linecap="round" stroke-width="0.529" stroke-miterlimit="4"/>
  <path d="m 11.265824,267.60346 c 0.949446,1.26351 2.780556,1.22023 5.190304,1.19007 l 3.918671,0.0156 0.02633,4.09174 -4.571828,0.0238 c -2.583757,0.0268 -4.669887,-0.0409 -4.586966,-1.88148 z" id="path4345" inkscape:connector-curvature="0" sodipodi:nodetypes="ccccccc" opacity="1" stroke-dasharray="none" stroke-opacity="1" fill="#000000" fill-rule="nonzero" stroke="none" stroke-linejoin="round" fill-opacity="0.618" stroke-linecap="round" stroke-width="0.529" stroke-miterlimit="4"/>
  <path d="m 10.867297,265.26015 c 0.488754,2.03103 2.211534,2.18653 4.365037,2.10726 h 4.365037 v 4.59081 h -4.515555 c -2.523488,0.15809 -4.289347,-0.26663 -4.214519,-2.10725 z" id="path4305" inkscape:connector-curvature="0" sodipodi:nodetypes="ccccccc" opacity="1" stroke-dasharray="none" stroke-opacity="1" fill="#000000" fill-rule="nonzero" stroke="url(#linearGradient4309)" stroke-linejoin="round" fill-opacity="0.705" stroke-linecap="round" stroke-width="0.529" stroke-miterlimit="4"/>
  <path sodipodi:nodetypes="ccccccc" inkscape:connector-curvature="0" id="path4307" d="m 11.11427,266.41123 c 0.856776,1.26352 2.509163,1.22024 4.683709,1.19007 l 3.536192,0.0156 0.02376,4.09174 -4.125598,0.0238 c -2.331573,0.0268 -4.214088,-0.0409 -4.13926,-1.88148 z" opacity="1" stroke-dasharray="none" stroke-opacity="1" fill="url(#linearGradient4311)" fill-rule="nonzero" stroke="none" stroke-linejoin="round" fill-opacity="1" stroke-linecap="round" stroke-width="0.529" stroke-miterlimit="4"/>
  <path sodipodi:nodetypes="ccccccc" inkscape:connector-curvature="0" id="path4347" d="m 11.116796,280.27086 c 0.949445,1.26351 2.780556,1.22023 5.190304,1.19007 l 3.91867,0.0156 0.02633,4.09173 -4.571828,0.0238 c -2.583758,0.0268 -4.669887,-0.0409 -4.586966,-1.88148 z" opacity="1" stroke-dasharray="none" stroke-opacity="1" fill="#000000" fill-rule="nonzero" stroke="none" stroke-linejoin="round" fill-opacity="0.618" stroke-linecap="round" stroke-width="0.529" stroke-miterlimit="4"/>
  <path sodipodi:nodetypes="ccccccc" inkscape:connector-curvature="0" id="path4315" d="m 10.867297,278.30012 c 0.488754,2.03103 2.211534,2.18653 4.365037,2.10726 h 4.365037 v 4.59082 h -4.515555 c -2.523488,0.15808 -4.289347,-0.26664 -4.214519,-2.10726 z" opacity="1" stroke-dasharray="none" stroke-opacity="1" fill="#000000" fill-rule="nonzero" stroke="url(#linearGradient4319)" stroke-linejoin="round" fill-opacity="0.705" stroke-linecap="round" stroke-width="0.529" stroke-miterlimit="4"/>
  <path d="m 11.11427,279.4512 c 0.856776,1.26352 2.509163,1.22024 4.683709,1.19007 l 3.536192,0.0156 0.02376,4.09174 -4.125598,0.0238 c -2.331573,0.0268 -4.214088,-0.0409 -4.13926,-1.88149 z" id="path4317" inkscape:connector-curvature="0" sodipodi:nodetypes="ccccccc" opacity="1" stroke-dasharray="none" stroke-opacity="1" fill="url(#linearGradient4321)" fill-rule="nonzero" stroke="none" stroke-linejoin="round" fill-opacity="1" stroke-linecap="round" stroke-width="0.529" stroke-miterlimit="4"/>
  <path d="m 14.52296,231.94489 45.528125,-0.0745 v 2.68251 l -45.677153,0.44708 z" id="path4323" inkscape:connector-curvature="0" sodipodi:nodetypes="ccccc" stroke-opacity="1" fill="url(#linearGradient4331)" fill-rule="evenodd" stroke="none" stroke-linejoin="miter" fill-opacity="1" stroke-linecap="butt" stroke-width="0.265"/>
  <circle id="path4349" cx="-17.205" cy="242.67" r="1.49" transform="scale(-1,1)" opacity="1" stroke-dasharray="none" stroke-opacity="1" fill="url(#radialGradient4357)" fill-rule="nonzero" stroke="none" stroke-linejoin="round" fill-opacity="1" stroke-linecap="round" stroke-width="0.529" stroke-miterlimit="4"/>
  <circle transform="scale(-1,1)" r="1.49" cy="256.01" cx="-17.205" id="circle4359" opacity="1" stroke-dasharray="none" stroke-opacity="1" fill="url(#radialGradient4361)" fill-rule="nonzero" stroke="none" stroke-linejoin="round" fill-opacity="1" stroke-linecap="round" stroke-width="0.529" stroke-miterlimit="4"/>
  <circle id="circle4363" cx="-17.205" cy="269.72" r="1.49" transform="scale(-1,1)" opacity="1" stroke-dasharray="none" stroke-opacity="1" fill="url(#radialGradient4365)" fill-rule="nonzero" stroke="none" stroke-linejoin="round" fill-opacity="1" stroke-linecap="round" stroke-width="0.529" stroke-miterlimit="4"/>
  <circle transform="scale(-1,1)" r="1.49" cy="282.69" cx="-17.205" id="circle4367" opacity="1" stroke-dasharray="none" stroke-opacity="1" fill="url(#radialGradient4369)" fill-rule="nonzero" stroke="none" stroke-linejoin="round" fill-opacity="1" stroke-linecap="round" stroke-width="0.529" stroke-miterlimit="4"/>
  <g id="g1555" transform="matrix(1,0,0,1.0726239,-8.4432763,-54.53568)">
   <path d="m -9.6452672,237.97553 c -0.5406288,0.41437 0.695448,0.32088 0,0 z m -0.3604648,0.45744 c -0.169723,0.33398 0.2688583,0.0508 0,0 z m -1.71914,0.0693 c -0.197371,0.52074 1.232177,0.69989 0.141671,0.0695 z m -0.277281,0.12478 c -0.369373,0.18441 0.269454,0.23188 0,0 z m 7.3618024,0.0138 c -0.7435658,0.48185 0.6716989,0.31802 0,0 z m -5.2544691,0.13864 c -0.5645153,0.54527 0.430972,0.83303 0,0 z m 4.9355961,0.16637 c -0.5749798,0.2849 1.0961974,1.25503 0.2218249,0.41592 -0.073064,-0.13856 -0.080909,-0.32026 -0.2218249,-0.41592 z m -4.3394428,0.20796 c -0.070834,0.37818 0.994319,0.60863 1.1645788,1.20615 0.9107984,0.48888 -0.439462,-1.10972 -1.1645788,-1.20615 z m 3.7710175,0.12478 c -0.227429,0.32888 -1.333423,0.0361 -1.0354154,0.41567 0.2648208,-0.12354 1.1257604,-0.0928 1.0354154,-0.41567 z m 2.3291575,0 c -0.2142715,0.10921 0.2288267,0.0324 0,0 z m -3.8403373,0.40206 c -0.4667887,0.28063 0.7317667,-0.0228 0,0 z m -0.526833,0.33273 c -0.3955562,0.17878 0.2574143,0.23459 0,0 z m 4.214666,0.0277 c -0.1323808,0.1733 0.1130972,0.22098 0,0 z m -8.2491003,0.20796 c -0.137906,0.0383 0.112164,0.10085 0,0 z m 0.06932,0.0693 c -0.115396,0.76055 2.0784898,1.4903 0.707066,0.63772 -0.385309,-0.0552 -0.36684,-0.53316 -0.707066,-0.63772 z m 7.9995485,0 c -1.0435535,0.23234 1.562792,1.13234 1.2754906,0.6377 -0.5248971,-0.1746 -1.0192837,-0.0845 -1.2754906,-0.6377 z m -1.150715,0.11091 c -0.6501576,0.2598 1.0906883,0.23501 0,0 z m -3.2857763,0.097 c -0.2581849,0.55639 0.7908066,2.23849 -0.4510453,1.82346 -0.9256516,0.20461 1.0744,0.21934 0.8253746,0.94933 0.039734,0.71219 1.6164107,1.17752 0.512969,0.37431 -0.6241618,-0.74527 -0.4373011,-1.49079 -0.5684252,-2.28757 -0.1500243,-0.2457 -0.1022145,-0.67 -0.3188731,-0.85953 z m -1.6082281,0.55454 c -0.1764942,0.48758 1.3813672,0.60775 0.2072057,0.18449 l -0.096293,-0.0876 -0.1109122,-0.097 z m 6.2110869,0.26342 c -0.2094355,0.34412 0.2960592,0.36686 0,0 z m -0.1663675,0.38819 c -0.7547126,0.46464 1.6576917,2.33239 0.7460593,0.98192 -0.6325887,-0.15182 -0.5331925,-0.60431 -0.7460593,-0.98192 z m -6.5854165,0.23569 c -0.371318,0.856 0.5224641,0.66248 0,0 z m 6.4606397,0.41592 c -0.1367593,0.0559 0.1052315,0.0831 0,0 z m -7.0290657,0.48524 c -0.326047,0.13815 0.313199,0.42485 0,0 z m 6.6131447,0.15247 c -0.1439524,0.18853 0.3044285,-0.008 0,0 z m -6.7795127,0.11091 c -0.721755,0.30145 0.298441,1.56975 -0.06643,0.4162 0.09865,-0.11918 0.157076,-0.26876 0.06643,-0.4162 z m 4.3671703,0.0832 c 0.079169,0.51208 0.7621577,0.90995 0.3188729,0.11089 -0.120128,5.5e-4 -0.1944219,-0.14519 -0.3188729,-0.11089 z m 3.3273682,0.23569 c -0.010865,0.30015 0.4551966,0.9773 0.7019824,1.02666 0.077227,-0.51099 -0.3384824,-0.77707 -0.7019824,-1.02666 z m -2.4677975,0.1525 c -0.079331,0.48685 0.824875,-0.0471 0,0 z m 1.5111798,0 c -0.132658,0.45719 -1.6427108,-0.16242 -0.6793377,0.34662 0.2440657,0.13606 1.2830021,0.0329 0.6793377,-0.34662 z m -1.5805003,0.18023 c -0.1635661,0.0187 -0.017584,0.12891 0,0 z m -0.8734339,0.41591 c 0.1767144,0.35785 0.6961928,-0.14189 0,3e-5 z m -4.7137716,0.097 c -0.108814,0.43409 0.562235,0.46225 0.02773,0.0277 z m 4.7692278,0.20796 c -0.1651329,0.80489 0.7772812,0.52159 0,0 z m 4.4642188,0.0416 c -0.6133331,0.74804 0.046093,1.22074 0,0 z m -7.8747714,0.18023 c -0.2145542,0.17016 1.1222219,1.05256 0.4434006,0.15068 -0.1459791,-0.0563 -0.3061197,-0.0716 -0.4434006,-0.15068 z m 2.8837191,0.31886 c -0.5680724,0.11621 0.020121,1.2642 -0.0054,0.16256 0.09526,-0.075 0.3742972,-0.14149 0.0054,-0.16256 z m 2.4400699,0.11091 c -0.3634144,0.45019 1.1289991,0.30232 0.2079606,0.0554 -0.046848,0.13281 -0.1356887,-0.14798 -0.2079606,-0.0554 z m -6.6963282,0.097 c -1.076304,0.58354 2.2764748,0.378 0.569654,0.21909 -0.195229,-0.0566 -0.379867,-0.17556 -0.569654,-0.21909 z m 2.0241488,0.13864 c -0.069098,0.10598 0.1076219,0.0799 0,0 z m 6.5992803,0 c -0.3674258,0.86924 0.6885026,0.57295 0,0 z m -9.7880081,0.15251 c -0.217782,0.37043 0.591097,0.0825 0,0 z m 8.9977579,0.0555 c -0.1450804,0.0851 0.1450804,0.0851 0,0 z" id="path3054" inkscape:connector-curvature="0" sodipodi:nodetypes="cccccccccccccccccccccccccccccccccccccccccccccccccccccccccccccccccccccccccccccccccccccccccccccccccccccccccccccccc" fill="#655228" fill-opacity="1" stroke-width="0.115"/>
  </g>
  <g id="g1564" transform="translate(0,-1.0506813)">
   <path d="m -9.4619189,237.89429 c -0.5406291,0.44446 0.6954489,0.34418 0,0 z m -0.3604649,0.49066 c -0.1697231,0.35824 0.2688582,0.0545 0,0 z m -1.7191402,0.0743 c -0.19737,0.55856 1.232177,0.75072 0.141671,0.0745 z m -0.277281,0.13385 c -0.369373,0.1978 0.269454,0.24872 0,0 z m 7.3618021,0.0148 c -0.7435656,0.51684 0.6716998,0.3411 0,0 z m -5.2544687,0.14871 c -0.5645144,0.58487 0.4309725,0.89352 0,0 z m 4.9355959,0.17845 c -0.5749795,0.30558 1.0961971,1.34617 0.2218246,0.44612 -0.073064,-0.14862 -0.080909,-0.34351 -0.2218246,-0.44612 z m -4.3394424,0.22304 c -0.070834,0.40565 0.9943189,0.65282 1.1645788,1.29375 0.9107979,0.52438 -0.4394652,-1.19033 -1.1645788,-1.29375 z m 3.7710171,0.13384 c -0.2274295,0.35277 -1.3334223,0.0387 -1.0354152,0.44586 0.2648213,-0.13251 1.1257583,-0.0995 1.0354152,-0.44586 z m 2.3291575,0 c -0.2142706,0.11714 0.2288233,0.0348 0,0 z m -3.8403371,0.43125 c -0.4667894,0.30102 0.7317655,-0.0245 0,0 z m -0.5268334,0.35691 c -0.3955564,0.19175 0.2574155,0.25162 0,0 z m 4.2146662,0.0297 c -0.1323816,0.18587 0.1130985,0.23703 0,0 z m -8.2491002,0.22306 c -0.137905,0.0411 0.112164,0.10817 0,0 z m 0.06932,0.0743 c -0.115395,0.81578 2.0784887,1.59852 0.707065,0.68404 -0.385309,-0.0592 -0.366839,-0.57188 -0.707065,-0.68404 z m 7.9995468,0 c -1.043551,0.24921 1.5627882,1.21458 1.2754906,0.68402 -0.5248973,-0.1873 -1.0192818,-0.0906 -1.2754906,-0.68402 z m -1.1507148,0.11897 c -0.6501425,0.27867 1.0906837,0.25208 0,0 z m -3.2857759,0.10404 c -0.2581858,0.59679 0.7908066,2.40106 -0.4510451,1.95589 -0.9256521,0.21947 1.0743994,0.23527 0.825374,1.01826 0.039735,0.76393 1.6164111,1.26304 0.5129692,0.40151 -0.6241634,-0.79941 -0.4373002,-1.59907 -0.5684253,-2.4537 -0.1500245,-0.26356 -0.1022148,-0.71867 -0.3188728,-0.92196 z m -1.6082279,0.59482 c -0.1764939,0.52299 1.3813672,0.65187 0.2072058,0.19787 l -0.096293,-0.0939 -0.1109123,-0.10405 z m 6.211087,0.28254 c -0.2094361,0.36912 0.2960585,0.39351 0,0 z m -0.1663684,0.41639 c -0.754711,0.49838 1.6576922,2.50178 0.7460596,1.05323 -0.6325892,-0.16286 -0.533192,-0.64821 -0.7460596,-1.05323 z m -6.5854159,0.2528 c -0.3713169,0.91817 0.5224643,0.71059 0,0 z m 6.4606396,0.44613 c -0.1367607,0.06 0.1052334,0.0891 0,0 z m -7.0290645,0.52048 c -0.326048,0.14817 0.313198,0.45569 0,0 z m 6.6131434,0.16356 c -0.1439526,0.20223 0.304428,-0.009 0,0 z m -6.7795124,0.11897 c -0.721755,0.32334 0.298442,1.68375 -0.06643,0.44643 0.09865,-0.12784 0.157077,-0.28828 0.06643,-0.44643 z m 4.3671706,0.0892 c 0.079169,0.54927 0.7621561,0.97604 0.3188729,0.11895 -0.1201297,5.9e-4 -0.1944192,-0.15573 -0.3188729,-0.11895 z m 3.327368,0.25281 c -0.010873,0.32198 0.455197,1.04828 0.7019818,1.10124 0.077222,-0.54811 -0.3384613,-0.83347 -0.7019818,-1.10124 z m -2.4677978,0.16357 c -0.079332,0.52222 0.8248771,-0.0506 0,0 z m 1.5111795,0 c -0.1326589,0.4904 -1.64271,-0.17421 -0.6793376,0.3718 0.2440695,0.14594 1.2830015,0.0353 0.6793376,-0.3718 z m -1.5804997,0.19332 c -0.1635661,0.0201 -0.017586,0.13827 0,0 z m -0.8734342,0.44614 c 0.1767157,0.38383 0.6961919,-0.1522 0,1e-5 z m -4.7137714,0.10404 c -0.108814,0.46562 0.562235,0.49582 0.02773,0.0297 z m 4.7692276,0.22307 c -0.1480919,0.84797 0.7712556,0.61228 0,0 z m -3.4105522,0.23792 c -0.2145504,0.18248 1.122221,1.129 0.4434008,0.16161 -0.1459797,-0.0604 -0.3061426,-0.0768 -0.4434008,-0.16161 z m 2.883719,0.34201 c -0.5680738,0.12465 0.020123,1.356 -0.0054,0.17437 0.095262,-0.0805 0.374298,-0.15177 0.0054,-0.17437 z m 2.4400698,0.11893 c -0.3634153,0.48289 1.1289988,0.32428 0.2079605,0.0594 -0.046848,0.14245 -0.1356914,-0.15873 -0.2079605,-0.0594 z m -6.6963282,0.10405 c -1.076303,0.62592 2.2764759,0.40545 0.569654,0.235 -0.195229,-0.0607 -0.379868,-0.18831 -0.569654,-0.235 z m 2.0241489,0.14871 c -0.069098,0.11367 0.1076223,0.0857 0,0 z m 6.59928,0 c -0.3674262,0.93237 0.6885028,0.61456 0,0 z m -9.7880079,0.16358 c -0.608061,0.26192 0.729856,0.15871 0,0 z m 8.9977579,0.0595 c -0.1450818,0.0913 0.1450817,0.0913 0,0 z m -8.4709249,0.35682 c -0.132444,0.19575 0.395594,-0.028 0,0 z" id="path3802" inkscape:connector-curvature="0" sodipodi:nodetypes="cccccccccccccccccccccccccccccccccccccccccccccccccccccccccccccccccccccccccccccccccccccccccccccccccccccccccccccc" fill="#cbab44" fill-opacity="1" stroke-width="0.119"/>
   <g transform="matrix(1,0,0,1.0691145,0.1652647,-16.406193)" id="g1559">
    <path d="m -9.6452672,237.97553 c -0.5406288,0.41437 0.695448,0.32088 0,0 z m -0.3604648,0.45744 c -0.169723,0.33398 0.2688583,0.0508 0,0 z m -1.71914,0.0693 c -0.197371,0.52074 1.232177,0.69989 0.141671,0.0695 z m -0.277281,0.12478 c -0.369373,0.18441 0.269454,0.23188 0,0 z m 7.3618024,0.0138 c -0.7435658,0.48185 0.6716989,0.31802 0,0 z m -5.2544691,0.13864 c -0.5645153,0.54527 0.430972,0.83303 0,0 z m 4.9355961,0.16637 c -0.5749798,0.2849 1.0961974,1.25503 0.2218249,0.41592 -0.073064,-0.13856 -0.080909,-0.32026 -0.2218249,-0.41592 z m -4.3394428,0.20796 c -0.070834,0.37818 0.994319,0.60863 1.1645788,1.20615 0.9107984,0.48888 -0.439462,-1.10972 -1.1645788,-1.20615 z m 3.7710175,0.12478 c -0.227429,0.32888 -1.333423,0.0361 -1.0354154,0.41567 0.2648208,-0.12354 1.1257604,-0.0928 1.0354154,-0.41567 z m 2.3291575,0 c -0.2142715,0.10921 0.2288267,0.0324 0,0 z m -3.8403373,0.40206 c -0.4667887,0.28063 0.7317667,-0.0228 0,0 z m -0.526833,0.33273 c -0.3955562,0.17878 0.2574143,0.23459 0,0 z m 4.214666,0.0277 c -0.1323808,0.1733 0.1130972,0.22098 0,0 z m -8.2491003,0.20796 c -0.137906,0.0383 0.112164,0.10085 0,0 z m 0.06932,0.0693 c -0.115396,0.76055 2.0784898,1.4903 0.707066,0.63772 -0.385309,-0.0552 -0.36684,-0.53316 -0.707066,-0.63772 z m 7.9995485,0 c -1.0435535,0.23234 1.562792,1.13234 1.2754906,0.6377 -0.5248971,-0.1746 -1.0192837,-0.0845 -1.2754906,-0.6377 z m -1.150715,0.11091 c -0.6501576,0.2598 1.0906883,0.23501 0,0 z m -3.2857763,0.097 c -0.2581849,0.55639 0.7908066,2.23849 -0.4510453,1.82346 -0.9256516,0.20461 1.0744,0.21934 0.8253746,0.94933 0.039734,0.71219 1.6164107,1.17752 0.512969,0.37431 -0.6241618,-0.74527 -0.4373011,-1.49079 -0.5684252,-2.28757 -0.1500243,-0.2457 -0.1022145,-0.67 -0.3188731,-0.85953 z m -1.6082281,0.55454 c -0.1764942,0.48758 1.3813672,0.60775 0.2072057,0.18449 l -0.096293,-0.0876 -0.1109122,-0.097 z m 6.2110869,0.26342 c -0.2094355,0.34412 0.2960592,0.36686 0,0 z m -0.1663675,0.38819 c -0.7547126,0.46464 1.6576917,2.33239 0.7460593,0.98192 -0.6325887,-0.15182 -0.5331925,-0.60431 -0.7460593,-0.98192 z m -6.5854165,0.23569 c -0.371318,0.856 0.5224641,0.66248 0,0 z m 6.4606397,0.41592 c -0.1367593,0.0559 0.1052315,0.0831 0,0 z m -7.0290657,0.48524 c -0.326047,0.13815 0.313199,0.42485 0,0 z m 6.6131447,0.15247 c -0.1439524,0.18853 0.3044285,-0.008 0,0 z m -6.7795127,0.11091 c -0.721755,0.30145 0.298441,1.56975 -0.06643,0.4162 0.09865,-0.11918 0.157076,-0.26876 0.06643,-0.4162 z m 4.3671703,0.0832 c 0.079169,0.51208 0.7621577,0.90995 0.3188729,0.11089 -0.120128,5.5e-4 -0.1944219,-0.14519 -0.3188729,-0.11089 z m 3.3273682,0.23569 c -0.010865,0.30015 0.4551966,0.9773 0.7019824,1.02666 0.077227,-0.51099 -0.3384824,-0.77707 -0.7019824,-1.02666 z m -2.4677975,0.1525 c -0.079331,0.48685 0.824875,-0.0471 0,0 z m 1.5111798,0 c -0.132658,0.45719 -1.6427108,-0.16242 -0.6793377,0.34662 0.2440657,0.13606 1.2830021,0.0329 0.6793377,-0.34662 z m -1.5805003,0.18023 c -0.1635661,0.0187 -0.017584,0.12891 0,0 z m -0.8734339,0.41591 c 0.1767144,0.35785 0.6961928,-0.14189 0,3e-5 z m -4.7137716,0.097 c -0.108814,0.43409 0.562235,0.46225 0.02773,0.0277 z m 4.7692278,0.20796 c -0.1651329,0.80489 0.7772812,0.52159 0,0 z m 4.4642188,0.0416 c -0.6133331,0.74804 0.046093,1.22074 0,0 z m -7.8747714,0.18023 c -0.2145542,0.17016 1.1222219,1.05256 0.4434006,0.15068 -0.1459791,-0.0563 -0.3061197,-0.0716 -0.4434006,-0.15068 z m 2.8837191,0.31886 c -0.5680724,0.11621 0.020121,1.2642 -0.0054,0.16256 0.09526,-0.075 0.3742972,-0.14149 0.0054,-0.16256 z m 2.4400699,0.11091 c -0.3634144,0.45019 1.1289991,0.30232 0.2079606,0.0554 -0.046848,0.13281 -0.1356887,-0.14798 -0.2079606,-0.0554 z m -6.6963282,0.097 c -1.076304,0.58354 2.2764748,0.378 0.569654,0.21909 -0.195229,-0.0566 -0.379867,-0.17556 -0.569654,-0.21909 z m 2.0241488,0.13864 c -0.069098,0.10598 0.1076219,0.0799 0,0 z m 6.5992803,0 c -0.3674258,0.86924 0.6885026,0.57295 0,0 z m -9.7880081,0.15251 c -0.217782,0.37043 0.591097,0.0825 0,0 z m 8.9977579,0.0555 c -0.1450804,0.0851 0.1450804,0.0851 0,0 z" id="path1557" inkscape:connector-curvature="0" sodipodi:nodetypes="cccccccccccccccccccccccccccccccccccccccccccccccccccccccccccccccccccccccccccccccccccccccccccccccccccccccccccccccc" fill="#655228" fill-opacity="1" stroke-width="0.115"/>
   </g>
  </g>
  <rect width="5.456" height="4.584" x="-7.712" y="251.48" id="rect2314" fill="url(#pattern2311)" stroke="none"/>
  <path id="path2318" d="m 47.386678,253.45146 -2.527316,15.99283 c -0.05394,0.3235 -0.08089,0.55938 -0.08087,0.70764 -1.9e-5,0.24263 0.06738,0.43134 0.202184,0.56612 0.13477,0.1348 0.336954,0.20219 0.606554,0.20218 0.620017,10e-6 1.320922,-0.27631 2.102723,-0.82895 1.159172,-0.80874 2.109438,-1.97467 2.850814,-3.4978 0.754793,-1.53659 1.132203,-3.38996 1.132232,-5.56009 -2.9e-5,-3.55843 -1.02443,-6.3688 -3.07321,-8.43111 -2.035352,-2.06226 -4.771583,-3.0934 -8.208708,-3.09343 -2.534066,3e-5 -4.845706,0.60659 -6.934941,1.81967 -2.07577,1.21313 -3.679769,2.97214 -4.811998,5.27703 -1.118761,2.30492 -1.678138,4.85245 -1.678135,7.64258 -3e-6,4.34025 1.219842,7.78413 3.659544,10.33165 2.453171,2.53405 5.613992,3.80108 9.482473,3.80108 1.887038,0 3.699963,-0.31676 5.438773,-0.95027 1.752248,-0.63351 3.430378,-1.57704 5.034404,-2.83059 h 4.14479 c -1.10531,1.30746 -2.156669,2.33187 -3.154084,3.07321 -1.469237,1.0918 -3.174326,1.98141 -5.115277,2.66884 -1.940997,0.68743 -4.030239,1.03114 -6.267731,1.03114 -3.113656,0 -5.91055,-0.72113 -8.39067,-2.16338 -2.480143,-1.44225 -4.421115,-3.49779 -5.822927,-6.16663 -1.388338,-2.66883 -2.082505,-5.60725 -2.082505,-8.81526 0,-3.36974 0.721125,-6.42947 2.163379,-9.1792 1.455729,-2.76317 3.383219,-4.87937 5.782487,-6.34861 2.399252,-1.46918 5.243314,-2.20378 8.532201,-2.20381 4.245861,3e-5 7.69648,1.34793 10.351868,4.0437 2.668812,2.69582 4.00323,6.18014 4.003259,10.45296 -2.9e-5,2.53406 -0.518975,4.85244 -1.556827,6.95516 -1.03791,2.10273 -2.561031,3.76738 -4.569375,4.99396 -1.550106,0.94353 -3.005836,1.4153 -4.367194,1.4153 -0.80876,0 -1.469228,-0.18871 -1.981414,-0.56612 -0.512217,-0.37741 -0.88963,-0.97722 -1.132234,-1.79944 -0.903108,0.87614 -1.725327,1.49616 -2.466655,1.8601 -0.74136,0.35045 -1.543357,0.52568 -2.405999,0.52568 -1.792714,0 -3.33606,-0.74808 -4.630031,-2.24426 -1.293995,-1.49616 -1.94098,-3.63932 -1.940975,-6.42947 -5e-6,-3.30235 0.82895,-6.28794 2.486871,-8.9568 1.657908,-2.66881 3.713451,-4.00323 6.166639,-4.00326 0.956992,3e-5 1.799428,0.22243 2.527313,0.66721 0.741325,0.44483 1.482669,1.21987 2.224029,2.32513 l 0.363934,-2.28469 h 3.94261 m -13.465514,13.24311 c -1.1e-5,1.60401 0.343704,2.85082 1.031142,3.74042 0.512191,0.66048 1.165918,0.99071 1.961192,0.99071 0.862643,0 1.64442,-0.36393 2.345344,-1.0918 0.700892,-0.74134 1.314185,-2.21055 1.839883,-4.40763 0.525661,-2.19706 0.788503,-4.17173 0.788522,-5.92402 -1.9e-5,-1.32092 -0.283078,-2.31837 -0.84918,-2.99234 -0.566132,-0.67392 -1.240079,-1.0109 -2.021848,-1.01092 -0.88963,2e-5 -1.671408,0.337 -2.345344,1.01092 -0.903102,0.90312 -1.590529,2.33863 -2.062284,4.30654 -0.458295,1.95447 -0.687438,3.74717 -0.687427,5.37812" inkscape:connector-curvature="0" stroke-opacity="0.541" stroke-dasharray="none" font-family="&apos;Arial Black&apos;" fill="#905a2b" stroke="url(#linearGradient961)" font-style="normal" fill-opacity="0.532" font-weight="normal" stroke-width="0.3" font-stretch="normal" font-variant="normal" font-size="144" stroke-miterlimit="4"/>
  <path inkscape:connector-curvature="0" id="path1674" d="m 40.758391,246.01138 c -3.092688,3e-5 -5.792121,0.64975 -8.098152,1.94888 2.034145,-0.90607 4.34132,-1.36114 6.924111,-1.36117 4.245861,3e-5 7.696589,1.34799 10.351974,4.04376 2.668815,2.69583 4.003074,6.18034 4.0031,10.45316 -2.6e-5,2.53406 -0.518755,4.85236 -1.556604,6.95507 -1.03791,2.10273 -2.561222,3.76713 -4.569563,4.99371 -0.104961,0.0639 -0.208241,0.12017 -0.312336,0.17973 0.485675,-0.20741 0.980604,-0.45959 1.486377,-0.76744 2.008343,-1.22658 3.53119,-2.89145 4.569097,-4.99418 1.037852,-2.10271 1.557041,-4.421 1.55707,-6.95506 -2.9e-5,-4.27283 -1.334749,-7.75734 -4.003561,-10.45316 -2.655387,-2.69577 -6.105652,-4.04327 -10.351513,-4.0433 z m -6.758702,4.74467 c -0.452697,0.1995 -0.896668,0.42377 -1.330209,0.6755 -2.075769,1.21314 -3.679441,2.97206 -4.811669,5.27695 -1.118762,2.30492 -1.678126,4.85243 -1.678124,7.64257 -2e-6,4.34025 1.219642,7.78412 3.659345,10.33165 2.453169,2.53405 5.613939,3.80119 9.482417,3.80119 1.88704,0 3.699846,-0.3169 5.438659,-0.95041 0.812697,-0.29383 1.608846,-0.65767 2.389661,-1.08487 -0.401354,0.18189 -0.806172,0.34866 -1.215623,0.49669 -1.73881,0.63351 -3.551616,0.95041 -5.438653,0.95041 -3.868486,0 -7.029252,-1.26714 -9.482421,-3.80119 -2.439701,-2.54753 -3.659809,-5.9914 -3.659806,-10.33164 -3e-6,-2.79014 0.559364,-5.33766 1.678123,-7.64258 1.132231,-2.30489 2.736362,-4.06381 4.812132,-5.27694 0.05174,-0.03 0.104154,-0.058 0.156168,-0.0873 z m 4.716492,1.50255 c -1.206617,1e-5 -2.316618,0.32463 -3.330837,0.97028 0.681254,-0.25411 1.39982,-0.3821 2.156796,-0.3821 0.956992,2e-5 1.799471,0.2224 2.52735,0.66718 0.741328,0.44483 1.482892,1.21972 2.224257,2.32498 l 0.279992,-1.75806 c -0.443412,-0.50232 -0.886809,-0.88903 -1.330208,-1.15509 -0.727885,-0.44479 -1.570358,-0.66716 -2.52735,-0.66719 z m 5.115229,0.70785 -0.0938,0.58771 h 2.862792 l -2.527353,15.993 c -0.05394,0.3235 -0.08087,0.55958 -0.08085,0.70784 -1.6e-5,0.24263 0.0671,0.43122 0.201909,0.566 0.134765,0.1348 0.337055,0.20191 0.606657,0.20191 0.573739,0 1.217653,-0.23969 1.929935,-0.71293 -0.264054,0.0827 -0.516512,0.12522 -0.756357,0.12522 -0.2696,0 -0.471424,-0.0676 -0.606195,-0.20238 -0.134807,-0.13478 -0.202393,-0.32336 -0.202374,-0.56599 -1.9e-5,-0.14826 0.02692,-0.38434 0.08086,-0.70784 l 2.527351,-15.99254 z m -6.408939,3.23981 c -0.562821,0.14543 -1.076502,0.4449 -1.538123,0.90652 -0.90311,0.90311 -1.590329,2.33875 -2.062083,4.30666 -0.458293,1.95447 -0.687525,3.74718 -0.687512,5.37813 -1.3e-5,1.60401 0.343831,2.8506 1.031272,3.7402 0.512191,0.66048 1.165619,0.99062 1.960893,0.99061 0.678037,10e-6 1.305602,-0.22813 1.88373,-0.67781 -0.230442,0.0579 -0.466386,0.0901 -0.709692,0.0901 -0.795271,0 -1.449162,-0.33014 -1.961351,-0.99061 -0.687443,-0.88961 -1.031282,-2.13665 -1.031274,-3.74067 -8e-6,-1.63094 0.229219,-3.42366 0.687514,-5.37812 0.471755,-1.96792 1.159439,-3.40355 2.062541,-4.30666 0.117777,-0.11778 0.239723,-0.22116 0.364085,-0.31835 z m 2.90992,15.88858 c -0.645896,0.62661 -1.249429,1.11992 -1.812576,1.48453 0.176337,-0.0619 0.349829,-0.13219 0.519792,-0.21254 0.441177,-0.21658 0.911672,-0.52609 1.410142,-0.92408 -0.04171,-0.11173 -0.08153,-0.22647 -0.117358,-0.34791 z m 10.636128,2.02003 c -0.262848,0.20542 -0.528341,0.39941 -0.795168,0.58818 h 3.766073 c -1.105304,1.30746 -2.15646,2.33167 -3.153873,3.07302 -0.651174,0.48389 -1.351512,0.92574 -2.095343,1.3302 1.194498,-0.54955 2.285677,-1.18773 3.268921,-1.91838 0.997413,-0.74135 2.049029,-1.76555 3.154336,-3.07302 z" font-family="&apos;Arial Black&apos;" fill="#978576" stroke="none" font-style="normal" fill-opacity="0.532" font-weight="normal" stroke-width="0.265" font-stretch="normal" font-variant="normal" font-size="144"/>
  <path d="m 62.666152,234.87609 c -0.54223,0 -49.032972,0.23238 -49.032972,0.23238 -4.0481321,-0.41048 -2.539156,-3.53833 -0.154923,-3.17591 l 46.476752,-0.0775" id="path967" inkscape:connector-curvature="0" sodipodi:nodetypes="cccc" stroke-opacity="1" fill="none" stroke="#fee9ad" stroke-linejoin="miter" stroke-linecap="butt" stroke-width="0.265"/>
  <path d="m 15.414789,233.09448 c -0.309845,0 -2.943528,-0.15492 -3.330834,0.85207 -0.387307,1.007 1.781609,0.85208 1.781609,0.85208 l 46.47675,-0.0775 -1.781609,-1.47176 z" id="path969" inkscape:connector-curvature="0" sodipodi:nodetypes="cccccc" stroke-opacity="1" fill="#e6d7a5" stroke="#93710f" stroke-linejoin="miter" fill-opacity="1" stroke-linecap="butt" stroke-width="0.265"/>
 </g>
</svg>
