<?xml version="1.0" encoding="UTF-8" standalone="no"?>
<!-- Created with Inkscape (http://www.inkscape.org/) -->

<svg
   xmlns:dc="http://purl.org/dc/elements/1.1/"
   xmlns:cc="http://creativecommons.org/ns#"
   xmlns:rdf="http://www.w3.org/1999/02/22-rdf-syntax-ns#"
   xmlns:svg="http://www.w3.org/2000/svg"
   xmlns="http://www.w3.org/2000/svg"
   xmlns:xlink="http://www.w3.org/1999/xlink"
   xmlns:sodipodi="http://sodipodi.sourceforge.net/DTD/sodipodi-0.dtd"
   xmlns:inkscape="http://www.inkscape.org/namespaces/inkscape"
   width="255"
   height="255"
   viewBox="0 0 67.468749 67.468749"
   version="1.1"
   id="svg8"
   inkscape:version="0.92.5 (2060ec1f9f, 2020-04-08)"
   sodipodi:docname="address-book.svg">
  <defs
     id="defs2">
    <linearGradient
       inkscape:collect="always"
       id="linearGradient1658">
      <stop
         id="stop1654"
         stop-color="#402c00"
         stop-opacity="1" />
      <stop
         offset="1"
         id="stop1656"
         stop-color="#ffe2a0"
         stop-opacity="1" />
    </linearGradient>
    <pattern
       inkscape:collect="always"
       xlink:href="#pattern1574"
       id="pattern2309"
       patternTransform="matrix(0.51671524,0,0,0.5307414,3.2242711e-7,4.3922244e-5)" />
    <linearGradient
       id="linearGradient2307">
      <stop
         id="stop2303"
         stop-color="#d4a983"
         stop-opacity="0.82" />
      <stop
         id="stop2305"
         offset="1"
         stop-color="#5c3512"
         stop-opacity="0.568" />
    </linearGradient>
    <pattern
       inkscape:collect="always"
       xlink:href="#pattern1574"
       id="pattern2298"
       patternTransform="matrix(0.20753304,0,0,0.21386792,-14.530163,247.67886)" />
    <linearGradient
       id="linearGradient4351"
       inkscape:collect="always">
      <stop
         id="stop4353"
         stop-color="#dbea25"
         stop-opacity="1" />
      <stop
         id="stop4355"
         offset="1"
         stop-color="#6d6c13"
         stop-opacity="1" />
    </linearGradient>
    <linearGradient
       id="linearGradient4325"
       inkscape:collect="always">
      <stop
         id="stop4327"
         stop-color="#000000"
         stop-opacity="0.618" />
      <stop
         id="stop4329"
         offset="1"
         stop-color="#7a714d"
         stop-opacity="0" />
    </linearGradient>
    <linearGradient
       id="linearGradient4271"
       inkscape:collect="always">
      <stop
         id="stop4273"
         stop-color="#dff06e"
         stop-opacity="1" />
      <stop
         id="stop4275"
         offset="1"
         stop-color="#7c6e10"
         stop-opacity="1" />
    </linearGradient>
    <linearGradient
       id="linearGradient928"
       inkscape:collect="always">
      <stop
         id="stop924"
         stop-color="#9b9b22"
         stop-opacity="1" />
      <stop
         id="stop926"
         offset="1"
         stop-color="#e6e616"
         stop-opacity="1" />
    </linearGradient>
    <linearGradient
       id="linearGradient3857"
       inkscape:collect="always">
      <stop
         id="stop3859"
         stop-color="#e3b219"
         stop-opacity="1" />
      <stop
         id="stop3861"
         offset="1"
         stop-color="#d3e319"
         stop-opacity="0" />
    </linearGradient>
    <linearGradient
       id="linearGradient3913">
      <stop
         id="stop3925"
         stop-color="#9e9e9e"
         stop-opacity="1" />
      <stop
         offset="1"
         id="stop3927"
         stop-color="#000000"
         stop-opacity="1" />
    </linearGradient>
    <linearGradient
       id="linearGradient5048">
      <stop
         id="stop5056"
         stop-color="black"
         stop-opacity="1" />
      <stop
         offset="1"
         id="stop5052"
         stop-color="#b85700"
         stop-opacity="1" />
    </linearGradient>
    <linearGradient
       y2="237.73"
       x2="45.32"
       y1="237.73"
       x1="26.56"
       gradientTransform="matrix(0.26458333,0,0,0.26458333,0.99844172,169.92481)"
       gradientUnits="userSpaceOnUse"
       id="linearGradient3853"
       xlink:href="#linearGradient3913"
       inkscape:collect="always" />
    <linearGradient
       gradientTransform="matrix(0.26458333,0,0,0.26458333,1.0976869,228.81379)"
       y2="237.73"
       x2="45.32"
       y1="237.73"
       x1="26.56"
       gradientUnits="userSpaceOnUse"
       id="linearGradient3856"
       xlink:href="#linearGradient3913"
       inkscape:collect="always" />
    <linearGradient
       y2="113.21"
       x2="50.36"
       y1="113.47"
       x1="35.14"
       spreadMethod="reflect"
       gradientTransform="matrix(0.36089576,0.1096986,0,0.26458333,-4.656971,228.74598)"
       gradientUnits="userSpaceOnUse"
       id="linearGradient3860"
       xlink:href="#linearGradient2307"
       inkscape:collect="always" />
    <linearGradient
       y2="108.26"
       x2="37.671"
       y1="108.46"
       x1="11.641"
       spreadMethod="reflect"
       gradientTransform="matrix(0.14924693,-0.10845985,0,-0.26159558,2.8525082,294.03293)"
       gradientUnits="userSpaceOnUse"
       id="linearGradient3867"
       xlink:href="#linearGradient5048"
       inkscape:collect="always" />
    <linearGradient
       gradientUnits="userSpaceOnUse"
       y2="147.84"
       x2="28.32"
       y1="147.84"
       x1="45.38"
       id="linearGradient3863"
       xlink:href="#linearGradient3857"
       inkscape:collect="always"
       gradientTransform="matrix(0.26458333,0,0,0.26458333,0.94107802,228.65718)" />
    <linearGradient
       gradientTransform="matrix(0.26458333,0,0,0.26458333,0.79055952,228.58192)"
       spreadMethod="reflect"
       gradientUnits="userSpaceOnUse"
       y2="37.07"
       x2="205.06"
       y1="45.602"
       x1="194.31"
       id="linearGradient930"
       xlink:href="#linearGradient928"
       inkscape:collect="always" />
    <linearGradient
       gradientTransform="matrix(0.26458333,0,0,-0.26458333,0.94107802,298.08572)"
       y2="37.07"
       x2="205.06"
       y1="45.602"
       x1="194.31"
       spreadMethod="reflect"
       gradientUnits="userSpaceOnUse"
       id="linearGradient4263"
       xlink:href="#linearGradient928"
       inkscape:collect="always" />
    <linearGradient
       gradientUnits="userSpaceOnUse"
       y2="44.86"
       x2="45.658"
       y1="44.01"
       x1="25.73"
       id="linearGradient4277"
       xlink:href="#linearGradient4271"
       inkscape:collect="always"
       gradientTransform="matrix(0.26458333,0,0,0.26458333,3.7929273,229.93301)" />
    <linearGradient
       gradientUnits="userSpaceOnUse"
       y2="45.17"
       x2="25.921"
       y1="44.581"
       x1="52.786"
       id="linearGradient4287"
       xlink:href="#linearGradient928"
       inkscape:collect="always"
       gradientTransform="matrix(0.26458333,0,0,0.26458333,3.7929273,229.93301)" />
    <linearGradient
       gradientTransform="matrix(0.26458333,0,0,0.26458333,-24.26356,259.71078)"
       y2="44.86"
       x2="45.658"
       y1="44.01"
       x1="25.73"
       gradientUnits="userSpaceOnUse"
       id="linearGradient4299"
       xlink:href="#linearGradient4271"
       inkscape:collect="always" />
    <linearGradient
       gradientTransform="matrix(0.26458333,0,0,0.26458333,-24.26356,259.71078)"
       y2="49.852"
       x2="32.654"
       y1="48.68"
       x1="59.23"
       gradientUnits="userSpaceOnUse"
       id="linearGradient4301"
       xlink:href="#linearGradient928"
       inkscape:collect="always" />
    <linearGradient
       gradientTransform="matrix(0.26458333,0,0,0.26458333,0.94107802,249.31318)"
       y2="44.86"
       x2="45.658"
       y1="44.01"
       x1="25.73"
       gradientUnits="userSpaceOnUse"
       id="linearGradient4309"
       xlink:href="#linearGradient4271"
       inkscape:collect="always" />
    <linearGradient
       gradientTransform="matrix(0.26458333,0,0,0.26458333,0.94107802,249.31318)"
       y2="50.73"
       x2="32.654"
       y1="49.558"
       x1="53.37"
       gradientUnits="userSpaceOnUse"
       id="linearGradient4311"
       xlink:href="#linearGradient928"
       inkscape:collect="always" />
    <linearGradient
       gradientTransform="matrix(0.26458333,0,0,0.26458333,3.7929273,270.0216)"
       y2="44.86"
       x2="45.658"
       y1="44.01"
       x1="25.73"
       gradientUnits="userSpaceOnUse"
       id="linearGradient4319"
       xlink:href="#linearGradient4271"
       inkscape:collect="always" />
    <linearGradient
       gradientTransform="matrix(0.26458333,0,0,0.26458333,3.7929273,270.0216)"
       y2="47.22"
       x2="25.628"
       y1="46.923"
       x1="55.42"
       gradientUnits="userSpaceOnUse"
       id="linearGradient4321"
       xlink:href="#linearGradient928"
       inkscape:collect="always" />
    <linearGradient
       gradientUnits="userSpaceOnUse"
       y2="7.325"
       x2="130.33"
       y1="19.15"
       x1="130.15"
       id="linearGradient4331"
       xlink:href="#linearGradient4325"
       inkscape:collect="always"
       gradientTransform="matrix(0.26458333,0,0,0.26458333,0.94107802,228.65718)" />
    <radialGradient
       gradientTransform="matrix(0.14497716,0,0,0.14497716,-12.938772,234.44775)"
       spreadMethod="reflect"
       gradientUnits="userSpaceOnUse"
       r="10.279"
       fy="54.21"
       fx="-26.332"
       cy="54.21"
       cx="-26.332"
       id="radialGradient4357"
       xlink:href="#linearGradient4351"
       inkscape:collect="always" />
    <radialGradient
       r="10.279"
       fy="54.21"
       fx="-26.332"
       cy="54.21"
       cx="-26.332"
       spreadMethod="reflect"
       gradientTransform="matrix(0.14497716,0,0,0.14497716,-12.938772,274.46183)"
       gradientUnits="userSpaceOnUse"
       id="radialGradient4369"
       xlink:href="#linearGradient4351"
       inkscape:collect="always" />
    <pattern
       patternUnits="userSpaceOnUse"
       width="39.91"
       height="32.641"
       patternTransform="matrix(0.26458333,0,0,0.26458333,-11.689324,249.52683)"
       id="pattern1574">
      <g
         transform="matrix(3.7795276,0,0,3.7795276,47.016607,-899.12803)"
         id="g1572">
        <path
           d="m -9.4619189,237.89429 c -0.5406291,0.44446 0.6954489,0.34418 0,0 z m -0.3604649,0.49066 c -0.1697231,0.35824 0.2688582,0.0545 0,0 z m -1.7191402,0.0743 c -0.19737,0.55856 1.232177,0.75072 0.141671,0.0745 z m -0.277281,0.13385 c -0.369373,0.1978 0.269454,0.24872 0,0 z m 7.3618021,0.0148 c -0.7435656,0.51684 0.6716998,0.3411 0,0 z m -5.2544687,0.14871 c -0.5645144,0.58487 0.4309725,0.89352 0,0 z m 4.9355959,0.17845 c -0.5749795,0.30558 1.0961971,1.34617 0.2218246,0.44612 -0.073064,-0.14862 -0.080909,-0.34351 -0.2218246,-0.44612 z m -4.3394424,0.22304 c -0.070834,0.40565 0.9943189,0.65282 1.1645788,1.29375 0.9107979,0.52438 -0.4394652,-1.19033 -1.1645788,-1.29375 z m 3.7710171,0.13384 c -0.2274295,0.35277 -1.3334223,0.0387 -1.0354152,0.44586 0.2648213,-0.13251 1.1257583,-0.0995 1.0354152,-0.44586 z m 2.3291575,0 c -0.2142706,0.11714 0.2288233,0.0348 0,0 z m -3.8403371,0.43125 c -0.4667894,0.30102 0.7317655,-0.0245 0,0 z m -0.5268334,0.35691 c -0.3955564,0.19175 0.2574155,0.25162 0,0 z m 4.2146662,0.0297 c -0.1323816,0.18587 0.1130985,0.23703 0,0 z m -8.2491002,0.22306 c -0.137905,0.0411 0.112164,0.10817 0,0 z m 0.06932,0.0743 c -0.115395,0.81578 2.0784887,1.59852 0.707065,0.68404 -0.385309,-0.0592 -0.366839,-0.57188 -0.707065,-0.68404 z m 7.9995468,0 c -1.043551,0.24921 1.5627882,1.21458 1.2754906,0.68402 -0.5248973,-0.1873 -1.0192818,-0.0906 -1.2754906,-0.68402 z m -1.1507148,0.11897 c -0.6501425,0.27867 1.0906837,0.25208 0,0 z m -3.2857759,0.10404 c -0.2581858,0.59679 0.7908066,2.40106 -0.4510451,1.95589 -0.9256521,0.21947 1.0743994,0.23527 0.825374,1.01826 0.039735,0.76393 1.6164111,1.26304 0.5129692,0.40151 -0.6241634,-0.79941 -0.4373002,-1.59907 -0.5684253,-2.4537 -0.1500245,-0.26356 -0.1022148,-0.71867 -0.3188728,-0.92196 z m -1.6082279,0.59482 c -0.1764939,0.52299 1.3813672,0.65187 0.2072058,0.19787 l -0.096293,-0.0939 -0.1109123,-0.10405 z m 6.211087,0.28254 c -0.2094361,0.36912 0.2960585,0.39351 0,0 z m -0.1663684,0.41639 c -0.754711,0.49838 1.6576922,2.50178 0.7460596,1.05323 -0.6325892,-0.16286 -0.533192,-0.64821 -0.7460596,-1.05323 z m -6.5854159,0.2528 c -0.3713169,0.91817 0.5224643,0.71059 0,0 z m 6.4606396,0.44613 c -0.1367607,0.06 0.1052334,0.0891 0,0 z m -7.0290645,0.52048 c -0.326048,0.14817 0.313198,0.45569 0,0 z m 6.6131434,0.16356 c -0.1439526,0.20223 0.304428,-0.009 0,0 z m -6.7795124,0.11897 c -0.721755,0.32334 0.298442,1.68375 -0.06643,0.44643 0.09865,-0.12784 0.157077,-0.28828 0.06643,-0.44643 z m 4.3671706,0.0892 c 0.079169,0.54927 0.7621561,0.97604 0.3188729,0.11895 -0.1201297,5.9e-4 -0.1944192,-0.15573 -0.3188729,-0.11895 z m 3.327368,0.25281 c -0.010873,0.32198 0.455197,1.04828 0.7019818,1.10124 0.077222,-0.54811 -0.3384613,-0.83347 -0.7019818,-1.10124 z m -2.4677978,0.16357 c -0.079332,0.52222 0.8248771,-0.0506 0,0 z m 1.5111795,0 c -0.1326589,0.4904 -1.64271,-0.17421 -0.6793376,0.3718 0.2440695,0.14594 1.2830015,0.0353 0.6793376,-0.3718 z m -1.5804997,0.19332 c -0.1635661,0.0201 -0.017586,0.13827 0,0 z m -0.8734342,0.44614 c 0.1767157,0.38383 0.6961919,-0.1522 0,1e-5 z m -4.7137714,0.10404 c -0.108814,0.46562 0.562235,0.49582 0.02773,0.0297 z m 4.7692276,0.22307 c -0.1480919,0.84797 0.7712556,0.61228 0,0 z m -3.4105522,0.23792 c -0.2145504,0.18248 1.122221,1.129 0.4434008,0.16161 -0.1459797,-0.0604 -0.3061426,-0.0768 -0.4434008,-0.16161 z m 2.883719,0.34201 c -0.5680738,0.12465 0.020123,1.356 -0.0054,0.17437 0.095262,-0.0805 0.374298,-0.15177 0.0054,-0.17437 z m 2.4400698,0.11893 c -0.3634153,0.48289 1.1289988,0.32428 0.2079605,0.0594 -0.046848,0.14245 -0.1356914,-0.15873 -0.2079605,-0.0594 z m -6.6963282,0.10405 c -1.076303,0.62592 2.2764759,0.40545 0.569654,0.235 -0.195229,-0.0607 -0.379868,-0.18831 -0.569654,-0.235 z m 2.0241489,0.14871 c -0.069098,0.11367 0.1076223,0.0857 0,0 z m 6.59928,0 c -0.3674262,0.93237 0.6885028,0.61456 0,0 z m -9.7880079,0.16358 c -0.608061,0.26192 0.729856,0.15871 0,0 z m 8.9977579,0.0595 c -0.1450818,0.0913 0.1450817,0.0913 0,0 z m -8.4709249,0.35682 c -0.132444,0.19575 0.395594,-0.028 0,0 z"
           id="path1566"
           inkscape:connector-curvature="0"
           sodipodi:nodetypes="cccccccccccccccccccccccccccccccccccccccccccccccccccccccccccccccccccccccccccccccccccccccccccccccccccccccccccccc"
           fill="#cbab44"
           fill-opacity="1"
           stroke-width="0.119" />
        <g
           transform="matrix(1,0,0,1.0691145,0.1652647,-16.406193)"
           id="g1570">
          <path
             d="m -9.6452672,237.97553 c -0.5406288,0.41437 0.695448,0.32088 0,0 z m -0.3604648,0.45744 c -0.169723,0.33398 0.2688583,0.0508 0,0 z m -1.71914,0.0693 c -0.197371,0.52074 1.232177,0.69989 0.141671,0.0695 z m -0.277281,0.12478 c -0.369373,0.18441 0.269454,0.23188 0,0 z m 7.3618024,0.0138 c -0.7435658,0.48185 0.6716989,0.31802 0,0 z m -5.2544691,0.13864 c -0.5645153,0.54527 0.430972,0.83303 0,0 z m 4.9355961,0.16637 c -0.5749798,0.2849 1.0961974,1.25503 0.2218249,0.41592 -0.073064,-0.13856 -0.080909,-0.32026 -0.2218249,-0.41592 z m -4.3394428,0.20796 c -0.070834,0.37818 0.994319,0.60863 1.1645788,1.20615 0.9107984,0.48888 -0.439462,-1.10972 -1.1645788,-1.20615 z m 3.7710175,0.12478 c -0.227429,0.32888 -1.333423,0.0361 -1.0354154,0.41567 0.2648208,-0.12354 1.1257604,-0.0928 1.0354154,-0.41567 z m 2.3291575,0 c -0.2142715,0.10921 0.2288267,0.0324 0,0 z m -3.8403373,0.40206 c -0.4667887,0.28063 0.7317667,-0.0228 0,0 z m -0.526833,0.33273 c -0.3955562,0.17878 0.2574143,0.23459 0,0 z m 4.214666,0.0277 c -0.1323808,0.1733 0.1130972,0.22098 0,0 z m -8.2491003,0.20796 c -0.137906,0.0383 0.112164,0.10085 0,0 z m 0.06932,0.0693 c -0.115396,0.76055 2.0784898,1.4903 0.707066,0.63772 -0.385309,-0.0552 -0.36684,-0.53316 -0.707066,-0.63772 z m 7.9995485,0 c -1.0435535,0.23234 1.562792,1.13234 1.2754906,0.6377 -0.5248971,-0.1746 -1.0192837,-0.0845 -1.2754906,-0.6377 z m -1.150715,0.11091 c -0.6501576,0.2598 1.0906883,0.23501 0,0 z m -3.2857763,0.097 c -0.2581849,0.55639 0.7908066,2.23849 -0.4510453,1.82346 -0.9256516,0.20461 1.0744,0.21934 0.8253746,0.94933 0.039734,0.71219 1.6164107,1.17752 0.512969,0.37431 -0.6241618,-0.74527 -0.4373011,-1.49079 -0.5684252,-2.28757 -0.1500243,-0.2457 -0.1022145,-0.67 -0.3188731,-0.85953 z m -1.6082281,0.55454 c -0.1764942,0.48758 1.3813672,0.60775 0.2072057,0.18449 l -0.096293,-0.0876 -0.1109122,-0.097 z m 6.2110869,0.26342 c -0.2094355,0.34412 0.2960592,0.36686 0,0 z m -0.1663675,0.38819 c -0.7547126,0.46464 1.6576917,2.33239 0.7460593,0.98192 -0.6325887,-0.15182 -0.5331925,-0.60431 -0.7460593,-0.98192 z m -6.5854165,0.23569 c -0.371318,0.856 0.5224641,0.66248 0,0 z m 6.4606397,0.41592 c -0.1367593,0.0559 0.1052315,0.0831 0,0 z m -7.0290657,0.48524 c -0.326047,0.13815 0.313199,0.42485 0,0 z m 6.6131447,0.15247 c -0.1439524,0.18853 0.3044285,-0.008 0,0 z m -6.7795127,0.11091 c -0.721755,0.30145 0.298441,1.56975 -0.06643,0.4162 0.09865,-0.11918 0.157076,-0.26876 0.06643,-0.4162 z m 4.3671703,0.0832 c 0.079169,0.51208 0.7621577,0.90995 0.3188729,0.11089 -0.120128,5.5e-4 -0.1944219,-0.14519 -0.3188729,-0.11089 z m 3.3273682,0.23569 c -0.010865,0.30015 0.4551966,0.9773 0.7019824,1.02666 0.077227,-0.51099 -0.3384824,-0.77707 -0.7019824,-1.02666 z m -2.4677975,0.1525 c -0.079331,0.48685 0.824875,-0.0471 0,0 z m 1.5111798,0 c -0.132658,0.45719 -1.6427108,-0.16242 -0.6793377,0.34662 0.2440657,0.13606 1.2830021,0.0329 0.6793377,-0.34662 z m -1.5805003,0.18023 c -0.1635661,0.0187 -0.017584,0.12891 0,0 z m -0.8734339,0.41591 c 0.1767144,0.35785 0.6961928,-0.14189 0,3e-5 z m -4.7137716,0.097 c -0.108814,0.43409 0.562235,0.46225 0.02773,0.0277 z m 4.7692278,0.20796 c -0.1651329,0.80489 0.7772812,0.52159 0,0 z m 4.4642188,0.0416 c -0.6133331,0.74804 0.046093,1.22074 0,0 z m -7.8747714,0.18023 c -0.2145542,0.17016 1.1222219,1.05256 0.4434006,0.15068 -0.1459791,-0.0563 -0.3061197,-0.0716 -0.4434006,-0.15068 z m 2.8837191,0.31886 c -0.5680724,0.11621 0.020121,1.2642 -0.0054,0.16256 0.09526,-0.075 0.3742972,-0.14149 0.0054,-0.16256 z m 2.4400699,0.11091 c -0.3634144,0.45019 1.1289991,0.30232 0.2079606,0.0554 -0.046848,0.13281 -0.1356887,-0.14798 -0.2079606,-0.0554 z m -6.6963282,0.097 c -1.076304,0.58354 2.2764748,0.378 0.569654,0.21909 -0.195229,-0.0566 -0.379867,-0.17556 -0.569654,-0.21909 z m 2.0241488,0.13864 c -0.069098,0.10598 0.1076219,0.0799 0,0 z m 6.5992803,0 c -0.3674258,0.86924 0.6885026,0.57295 0,0 z m -9.7880081,0.15251 c -0.217782,0.37043 0.591097,0.0825 0,0 z m 8.9977579,0.0555 c -0.1450804,0.0851 0.1450804,0.0851 0,0 z"
             id="path1568"
             inkscape:connector-curvature="0"
             sodipodi:nodetypes="cccccccccccccccccccccccccccccccccccccccccccccccccccccccccccccccccccccccccccccccccccccccccccccccccccccccccccccccc"
             fill="#655228"
             fill-opacity="1"
             stroke-width="0.115" />
        </g>
      </g>
    </pattern>
    <pattern
       patternUnits="userSpaceOnUse"
       width="20.622"
       height="17.324"
       patternTransform="matrix(0.26458333,0,0,0.26458333,-7.7117448,251.47809)"
       id="pattern2311">
      <rect
         id="rect1580"
         y="0"
         x="0"
         height="17.324"
         width="20.622"
         fill="url(#pattern2309)"
         stroke="none"
         stroke-width="1.979" />
    </pattern>
    <linearGradient
       inkscape:collect="always"
       xlink:href="#linearGradient928"
       id="linearGradient965"
       gradientUnits="userSpaceOnUse"
       gradientTransform="matrix(0.26458333,0,0,0.26458333,-0.99104924,224.86378)"
       x1="194.31"
       y1="45.602"
       x2="205.06"
       y2="37.07"
       spreadMethod="reflect" />
    <linearGradient
       inkscape:collect="always"
       xlink:href="#linearGradient1658"
       id="linearGradient1660"
       x1="47.12"
       y1="262.28"
       x2="46.9"
       y2="264.86"
       gradientUnits="userSpaceOnUse"
       gradientTransform="translate(-2.8518492,-1.2758273)" />
    <filter
       inkscape:collect="always"
       id="filter1672"
       x="-0.019"
       width="1.039"
       y="-0.032"
       height="1.064"
       color-interpolation-filters="sRGB">
      <feGaussianBlur
         inkscape:collect="always"
         stdDeviation="0.05293"
         id="feGaussianBlur1674" />
    </filter>
    <filter
       inkscape:collect="always"
       id="filter1680"
       x="-0.019"
       width="1.038"
       y="-0.032"
       height="1.064"
       color-interpolation-filters="sRGB">
      <feGaussianBlur
         inkscape:collect="always"
         stdDeviation="0.05327"
         id="feGaussianBlur1682" />
    </filter>
    <filter
       inkscape:collect="always"
       id="filter953"
       x="-0.027"
       width="1.055"
       y="-0.053"
       height="1.106"
       color-interpolation-filters="sRGB">
      <feGaussianBlur
         inkscape:collect="always"
         stdDeviation="0.12932"
         id="feGaussianBlur955" />
    </filter>
    <filter
       inkscape:collect="always"
       id="filter965"
       x="-0.031"
       width="1.063"
       y="-0.042"
       height="1.084"
       color-interpolation-filters="sRGB">
      <feGaussianBlur
         inkscape:collect="always"
         stdDeviation="0.12767"
         id="feGaussianBlur967" />
    </filter>
    <filter
       inkscape:collect="always"
       id="filter981"
       x="-0.124"
       width="1.248"
       y="-0.03"
       height="1.06"
       color-interpolation-filters="sRGB">
      <feGaussianBlur
         inkscape:collect="always"
         stdDeviation="0.05212"
         id="feGaussianBlur983" />
    </filter>
    <filter
       inkscape:collect="always"
       id="filter1006"
       x="-0.138"
       width="1.276"
       y="-0.038"
       height="1.077"
       color-interpolation-filters="sRGB">
      <feGaussianBlur
         inkscape:collect="always"
         stdDeviation="0.09346"
         id="feGaussianBlur1008" />
    </filter>
    <filter
       inkscape:collect="always"
       id="filter952"
       x="-0.012"
       width="1.025"
       y="-0.012"
       height="1.023"
       color-interpolation-filters="sRGB">
      <feGaussianBlur
         inkscape:collect="always"
         stdDeviation="0.08548"
         id="feGaussianBlur954" />
    </filter>
    <filter
       inkscape:collect="always"
       style="color-interpolation-filters:sRGB"
       id="filter970"
       x="-0.016284954"
       width="1.0325699"
       y="-0.12440798"
       height="1.248816">
      <feGaussianBlur
         inkscape:collect="always"
         stdDeviation="0.38168005"
         id="feGaussianBlur972" />
    </filter>
  </defs>
  <sodipodi:namedview
     id="base"
     pagecolor="#ff0000"
     bordercolor="#666666"
     borderopacity="1.0"
     inkscape:pageopacity="0"
     inkscape:pageshadow="2"
     inkscape:zoom="3.5254902"
     inkscape:cx="127.5"
     inkscape:cy="127.5"
     inkscape:document-units="mm"
     inkscape:current-layer="layer1"
     showgrid="false"
     inkscape:snap-to-guides="false"
     inkscape:snap-grids="false"
     inkscape:snap-others="false"
     inkscape:object-nodes="false"
     inkscape:snap-nodes="false"
     inkscape:snap-global="false"
     inkscape:window-width="1920"
     inkscape:window-height="1056"
     inkscape:window-x="0"
     inkscape:window-y="0"
     inkscape:window-maximized="1"
     units="px" />
  <metadata
     id="metadata5">
    <rdf:RDF>
      <cc:Work>
        <dc:format>image/svg+xml</dc:format>
        <dc:type
           rdf:resource="http://purl.org/dc/dcmitype/StillImage" />
        <dc:title />
      </cc:Work>
    </rdf:RDF>
  </metadata>
  <g
     inkscape:label="Layer 1"
     inkscape:groupmode="layer"
     id="layer1"
     transform="translate(0,-229.53126)">
    <path
       d="m 8.3025708,294.63972 53.6806452,-0.38731 -2.243964,-6.97582 -50.4272719,0.54223 -2.9459406,1.70845 c -1.081176,2.24543 -0.9843787,4.97211 1.9365313,5.11245 z"
       id="path971"
       inkscape:connector-curvature="0"
       sodipodi:nodetypes="cccccc"
       style="fill:#000000;fill-opacity:0.66666669;stroke:none;stroke-width:0.26499999;stroke-linecap:butt;stroke-linejoin:miter;stroke-opacity:1;filter:url(#filter970)" />
    <path
       inkscape:connector-curvature="0"
       sodipodi:nodetypes="ccccc"
       id="path3254"
       d="m 8.4023768,292.03157 c -0.08563,-1.22258 0.351724,-3.06996 1.8821302,-2.78428 l -0.01366,-58.59232 c -1.2717622,0.0379 -1.9607332,0.78075 -1.9585922,1.83785 z"
       fill="url(#linearGradient3867)"
       fill-opacity="1"
       stroke-width="0.265" />
    <rect
       y="230.6"
       x="10.208"
       height="59.35"
       width="47.26"
       id="rect3247"
       fill="#51380d"
       fill-opacity="1"
       stroke-width="0.265" />
    <path
       sodipodi:nodetypes="ccccccc"
       inkscape:connector-curvature="0"
       id="path963"
       d="m 48.454283,231.18556 c 3.450238,0.40576 4.995074,1.23443 5.117629,2.25778 -2.167445,1.16402 -4.61061,1.71776 -4.440295,4.44029 2.12985,0.23839 3.661412,-0.48267 5.192889,-3.23615 2.07753,0.53956 2.183395,1.63383 2.483554,3.98875 l -0.0013,-7.52028 z"
       stroke-opacity="1"
       fill="url(#linearGradient965)"
       stroke="#93741e"
       stroke-linejoin="miter"
       fill-opacity="1"
       stroke-linecap="butt"
       stroke-width="0.265" />
    <rect
       id="rect3234"
       width="47.26"
       height="59.35"
       x="12.931"
       y="233.64"
       fill="#732201"
       fill-opacity="1"
       stroke-width="0.265" />
    <path
       d="m 8.3052498,231.39986 c -0.01952,0.11659 -0.01593,0.226 -0.001,0.33177 z m -0.001,0.33177 -0.185002,57.92359 c -0.136376,1.5969 1.019613,2.59337 4.8234782,2.65824 v 0.1018 H 60.200305 V 233.06849 H 12.942726 v 0.0171 c -2.821222,0.16093 -4.4967482,-0.34737 -4.6384762,-1.35392 z"
       id="rect1446"
       inkscape:connector-curvature="0"
       fill="url(#pattern2298)"
       fill-opacity="1"
       stroke-width="0.265" />
    <path
       inkscape:connector-curvature="0"
       d="m 8.5992718,231.90425 c -0.207066,1.23654 1.5473362,1.87532 4.7151592,1.68202 v 59.23389 c -3.8682082,-0.0521 -5.0386272,-1.05224 -4.9012922,-2.66037 z"
       id="rect3236"
       sodipodi:nodetypes="ccccc"
       fill="url(#linearGradient3860)"
       fill-opacity="1"
       stroke-width="0.265" />
    <path
       inkscape:connector-curvature="0"
       d="m 12.930473,233.89441 h 46.870522 v 58.86066 H 12.930473"
       id="rect3249"
       sodipodi:nodetypes="cccc"
       stroke-opacity="1"
       fill="none"
       stroke="#000000"
       stroke-width="0.262" />
    <path
       inkscape:connector-curvature="0"
       d="m 8.2572598,290.63091 c 0.02217,1.92277 2.7376602,2.21286 4.7001782,2.1588"
       id="path3258"
       sodipodi:nodetypes="cc"
       stroke-opacity="1"
       fill="none"
       stroke="url(#linearGradient3856)"
       stroke-linejoin="round"
       stroke-linecap="round"
       stroke-width="0.265" />
    <path
       inkscape:connector-curvature="0"
       sodipodi:nodetypes="cc"
       id="path3268"
       d="m 8.4050008,232.05334 c 0.02217,1.92277 2.4906732,1.90145 4.4531912,1.84738"
       stroke-opacity="1"
       fill="none"
       stroke="url(#linearGradient3853)"
       stroke-linejoin="round"
       stroke-linecap="round"
       stroke-width="0.265" />
    <path
       d="m 8.5366078,233.59036 c 0.991856,0.83525 2.4013362,1.14846 4.2284392,0.93965 l 46.199613,0.0783 3e-6,57.31884 -45.808093,0.15661 c -2.397951,0.0612 -4.0999812,-0.24492 -4.6199622,-1.6444"
       id="path3087"
       inkscape:connector-curvature="0"
       sodipodi:nodetypes="cccccc"
       stroke-miterlimit="4"
       stroke-dasharray="none"
       stroke-opacity="1"
       fill="none"
       stroke="url(#linearGradient3863)"
       stroke-linejoin="miter"
       stroke-linecap="butt"
       stroke-width="0.635" />
    <path
       d="m 50.235892,234.9037 c 3.450238,0.40576 4.995074,1.23443 5.117629,2.25778 -2.167445,1.16402 -4.61061,1.71776 -4.440295,4.44029 2.12985,0.23839 3.661412,-0.48267 5.192889,-3.23615 2.07753,0.53956 2.183395,1.63383 2.483554,3.98875 l -0.0013,-7.52028 z"
       id="path922"
       inkscape:connector-curvature="0"
       sodipodi:nodetypes="ccccccc"
       stroke-opacity="1"
       fill="url(#linearGradient930)"
       stroke="#93741e"
       stroke-linejoin="miter"
       fill-opacity="1"
       stroke-linecap="butt"
       stroke-width="0.265" />
    <path
       sodipodi:nodetypes="ccccccc"
       inkscape:connector-curvature="0"
       id="path4261"
       d="m 50.386411,291.76394 c 3.450238,-0.40577 4.995074,-1.23443 5.117629,-2.25778 -2.167445,-1.16402 -4.610611,-1.71776 -4.440296,-4.4403 2.129851,-0.23839 3.661413,0.48268 5.19289,3.23615 2.07753,-0.53955 2.183395,-1.63382 2.483554,-3.98874 l -0.0013,7.52027 z"
       stroke-opacity="1"
       fill="url(#linearGradient4263)"
       stroke="#93741e"
       stroke-linejoin="miter"
       fill-opacity="1"
       stroke-linecap="butt"
       stroke-width="0.265" />
    <path
       d="m 8.4139748,259.93501 c 0.949446,1.26351 2.7805562,1.22023 5.1903042,1.19007 l 45.470684,-0.16197 0.02633,4.09174 -46.123841,0.20137 c -2.583757,0.0268 -4.6698872,-0.0409 -4.5869662,-1.88148 z"
       id="path4345"
       inkscape:connector-curvature="0"
       sodipodi:nodetypes="ccccccc"
       stroke-miterlimit="4"
       opacity="1"
       stroke-dasharray="none"
       stroke-opacity="1"
       fill="#000000"
       fill-rule="nonzero"
       stroke="none"
       stroke-linejoin="round"
       fill-opacity="0.618"
       stroke-linecap="round"
       stroke-width="0.529" />
    <path
       d="m 8.0154478,257.5917 c 0.488754,2.03103 2.2115342,2.18653 4.3650372,2.10726 l 46.716128,0.0888 v 4.59081 l -46.866646,-0.0888 c -2.5234882,0.15809 -4.2893472,-0.26663 -4.2145192,-2.10725 z"
       id="path4305"
       inkscape:connector-curvature="0"
       sodipodi:nodetypes="ccccccc"
       stroke-miterlimit="4"
       opacity="1"
       stroke-dasharray="none"
       stroke-opacity="1"
       fill="#000000"
       fill-rule="nonzero"
       stroke="url(#linearGradient4309)"
       stroke-linejoin="round"
       fill-opacity="0.705"
       stroke-linecap="round"
       stroke-width="0.529" />
    <path
       sodipodi:nodetypes="ccccccc"
       inkscape:connector-curvature="0"
       id="path4307"
       d="m 8.2624208,258.74278 c 0.856776,1.26352 2.5091632,1.22024 4.6837092,1.19007 l 45.798496,0.0156 0.02376,4.09174 -46.387902,0.0238 c -2.331573,0.0268 -4.2140882,-0.0409 -4.1392602,-1.88148 z"
       stroke-miterlimit="4"
       opacity="1"
       stroke-dasharray="none"
       stroke-opacity="1"
       fill="url(#linearGradient4311)"
       fill-rule="nonzero"
       stroke="none"
       stroke-linejoin="round"
       fill-opacity="1"
       stroke-linecap="round"
       stroke-width="0.529" />
    <path
       d="m 11.671111,230.66906 45.528125,-0.0745 v 2.68251 l -45.677153,0.44708 z"
       id="path4323"
       inkscape:connector-curvature="0"
       sodipodi:nodetypes="ccccc"
       stroke-opacity="1"
       fill="url(#linearGradient4331)"
       fill-rule="evenodd"
       stroke="none"
       stroke-linejoin="miter"
       fill-opacity="1"
       stroke-linecap="butt"
       stroke-width="0.265" />
    <g
       id="g1639"
       transform="translate(-2.8518492,-1.2758273)">
      <path
         stroke-miterlimit="4"
         sodipodi:nodetypes="ccccccc"
         inkscape:connector-curvature="0"
         id="path4341"
         d="m 11.19131,240.4058 c 0.949445,1.26352 2.780556,1.22024 5.190304,1.19008 l 3.91867,0.0156 0.02633,4.09174 -4.571828,0.0238 c -2.583757,0.0268 -4.669887,-0.0409 -4.586966,-1.88148 z"
         opacity="1"
         stroke-dasharray="none"
         stroke-opacity="1"
         fill="#000000"
         fill-rule="nonzero"
         stroke="none"
         stroke-linejoin="round"
         fill-opacity="0.618"
         stroke-linecap="round"
         stroke-width="0.529" />
      <path
         stroke-miterlimit="4"
         sodipodi:nodetypes="ccccccc"
         inkscape:connector-curvature="0"
         id="rect4268"
         d="m 10.867297,238.21153 c 0.488754,2.03102 2.211534,2.18652 4.365037,2.10726 h 4.365037 v 4.59081 h -4.515555 c -2.523488,0.15808 -4.289347,-0.26663 -4.214519,-2.10726 z"
         opacity="1"
         stroke-dasharray="none"
         stroke-opacity="1"
         fill="#000000"
         fill-rule="nonzero"
         stroke="url(#linearGradient4277)"
         stroke-linejoin="round"
         fill-opacity="0.705"
         stroke-linecap="round"
         stroke-width="0.529" />
      <path
         stroke-miterlimit="4"
         d="m 11.11427,239.36261 c 0.856776,1.26351 2.509163,1.22023 4.683709,1.19007 l 3.536192,0.0156 0.02376,4.09173 -4.125598,0.0238 c -2.331573,0.0268 -4.214088,-0.0409 -4.13926,-1.88148 z"
         id="path4279"
         inkscape:connector-curvature="0"
         sodipodi:nodetypes="ccccccc"
         opacity="1"
         stroke-dasharray="none"
         stroke-opacity="1"
         fill="url(#linearGradient4287)"
         fill-rule="nonzero"
         stroke="none"
         stroke-linejoin="round"
         fill-opacity="1"
         stroke-linecap="round"
         stroke-width="0.529" />
      <circle
         stroke-miterlimit="4"
         transform="scale(-1,1)"
         r="1.49"
         cy="242.67"
         cx="-17.205"
         id="path4349"
         opacity="1"
         stroke-dasharray="none"
         stroke-opacity="1"
         fill="url(#radialGradient4357)"
         fill-rule="nonzero"
         stroke="none"
         stroke-linejoin="round"
         fill-opacity="1"
         stroke-linecap="round"
         stroke-width="0.529" />
    </g>
    <g
       id="g1645"
       transform="translate(-2.8518492,-1.2758273)">
      <path
         stroke-miterlimit="4"
         d="m 11.116796,280.27086 c 0.949445,1.26351 2.780556,1.22023 5.190304,1.19007 l 3.91867,0.0156 0.02633,4.09173 -4.571828,0.0238 c -2.583758,0.0268 -4.669887,-0.0409 -4.586966,-1.88148 z"
         id="path4347"
         inkscape:connector-curvature="0"
         sodipodi:nodetypes="ccccccc"
         opacity="1"
         stroke-dasharray="none"
         stroke-opacity="1"
         fill="#000000"
         fill-rule="nonzero"
         stroke="none"
         stroke-linejoin="round"
         fill-opacity="0.618"
         stroke-linecap="round"
         stroke-width="0.529" />
      <path
         stroke-miterlimit="4"
         d="m 10.867297,278.30012 c 0.488754,2.03103 2.211534,2.18653 4.365037,2.10726 h 4.365037 v 4.59082 h -4.515555 c -2.523488,0.15808 -4.289347,-0.26664 -4.214519,-2.10726 z"
         id="path4315"
         inkscape:connector-curvature="0"
         sodipodi:nodetypes="ccccccc"
         opacity="1"
         stroke-dasharray="none"
         stroke-opacity="1"
         fill="#000000"
         fill-rule="nonzero"
         stroke="url(#linearGradient4319)"
         stroke-linejoin="round"
         fill-opacity="0.705"
         stroke-linecap="round"
         stroke-width="0.529" />
      <path
         stroke-miterlimit="4"
         sodipodi:nodetypes="ccccccc"
         inkscape:connector-curvature="0"
         id="path4317"
         d="m 11.11427,279.4512 c 0.856776,1.26352 2.509163,1.22024 4.683709,1.19007 l 3.536192,0.0156 0.02376,4.09174 -4.125598,0.0238 c -2.331573,0.0268 -4.214088,-0.0409 -4.13926,-1.88149 z"
         opacity="1"
         stroke-dasharray="none"
         stroke-opacity="1"
         fill="url(#linearGradient4321)"
         fill-rule="nonzero"
         stroke="none"
         stroke-linejoin="round"
         fill-opacity="1"
         stroke-linecap="round"
         stroke-width="0.529" />
      <circle
         stroke-miterlimit="4"
         id="circle4367"
         cx="-17.205"
         cy="282.69"
         r="1.49"
         transform="scale(-1,1)"
         opacity="1"
         stroke-dasharray="none"
         stroke-opacity="1"
         fill="url(#radialGradient4369)"
         fill-rule="nonzero"
         stroke="none"
         stroke-linejoin="round"
         fill-opacity="1"
         stroke-linecap="round"
         stroke-width="0.529" />
    </g>
    <g
       id="g1555"
       transform="matrix(1,0,0,1.0726239,-8.4432763,-54.53568)">
      <path
         d="m -9.6452672,237.97553 c -0.5406288,0.41437 0.695448,0.32088 0,0 z m -0.3604648,0.45744 c -0.169723,0.33398 0.2688583,0.0508 0,0 z m -1.71914,0.0693 c -0.197371,0.52074 1.232177,0.69989 0.141671,0.0695 z m -0.277281,0.12478 c -0.369373,0.18441 0.269454,0.23188 0,0 z m 7.3618024,0.0138 c -0.7435658,0.48185 0.6716989,0.31802 0,0 z m -5.2544691,0.13864 c -0.5645153,0.54527 0.430972,0.83303 0,0 z m 4.9355961,0.16637 c -0.5749798,0.2849 1.0961974,1.25503 0.2218249,0.41592 -0.073064,-0.13856 -0.080909,-0.32026 -0.2218249,-0.41592 z m -4.3394428,0.20796 c -0.070834,0.37818 0.994319,0.60863 1.1645788,1.20615 0.9107984,0.48888 -0.439462,-1.10972 -1.1645788,-1.20615 z m 3.7710175,0.12478 c -0.227429,0.32888 -1.333423,0.0361 -1.0354154,0.41567 0.2648208,-0.12354 1.1257604,-0.0928 1.0354154,-0.41567 z m 2.3291575,0 c -0.2142715,0.10921 0.2288267,0.0324 0,0 z m -3.8403373,0.40206 c -0.4667887,0.28063 0.7317667,-0.0228 0,0 z m -0.526833,0.33273 c -0.3955562,0.17878 0.2574143,0.23459 0,0 z m 4.214666,0.0277 c -0.1323808,0.1733 0.1130972,0.22098 0,0 z m -8.2491003,0.20796 c -0.137906,0.0383 0.112164,0.10085 0,0 z m 0.06932,0.0693 c -0.115396,0.76055 2.0784898,1.4903 0.707066,0.63772 -0.385309,-0.0552 -0.36684,-0.53316 -0.707066,-0.63772 z m 7.9995485,0 c -1.0435535,0.23234 1.562792,1.13234 1.2754906,0.6377 -0.5248971,-0.1746 -1.0192837,-0.0845 -1.2754906,-0.6377 z m -1.150715,0.11091 c -0.6501576,0.2598 1.0906883,0.23501 0,0 z m -3.2857763,0.097 c -0.2581849,0.55639 0.7908066,2.23849 -0.4510453,1.82346 -0.9256516,0.20461 1.0744,0.21934 0.8253746,0.94933 0.039734,0.71219 1.6164107,1.17752 0.512969,0.37431 -0.6241618,-0.74527 -0.4373011,-1.49079 -0.5684252,-2.28757 -0.1500243,-0.2457 -0.1022145,-0.67 -0.3188731,-0.85953 z m -1.6082281,0.55454 c -0.1764942,0.48758 1.3813672,0.60775 0.2072057,0.18449 l -0.096293,-0.0876 -0.1109122,-0.097 z m 6.2110869,0.26342 c -0.2094355,0.34412 0.2960592,0.36686 0,0 z m -0.1663675,0.38819 c -0.7547126,0.46464 1.6576917,2.33239 0.7460593,0.98192 -0.6325887,-0.15182 -0.5331925,-0.60431 -0.7460593,-0.98192 z m -6.5854165,0.23569 c -0.371318,0.856 0.5224641,0.66248 0,0 z m 6.4606397,0.41592 c -0.1367593,0.0559 0.1052315,0.0831 0,0 z m -7.0290657,0.48524 c -0.326047,0.13815 0.313199,0.42485 0,0 z m 6.6131447,0.15247 c -0.1439524,0.18853 0.3044285,-0.008 0,0 z m -6.7795127,0.11091 c -0.721755,0.30145 0.298441,1.56975 -0.06643,0.4162 0.09865,-0.11918 0.157076,-0.26876 0.06643,-0.4162 z m 4.3671703,0.0832 c 0.079169,0.51208 0.7621577,0.90995 0.3188729,0.11089 -0.120128,5.5e-4 -0.1944219,-0.14519 -0.3188729,-0.11089 z m 3.3273682,0.23569 c -0.010865,0.30015 0.4551966,0.9773 0.7019824,1.02666 0.077227,-0.51099 -0.3384824,-0.77707 -0.7019824,-1.02666 z m -2.4677975,0.1525 c -0.079331,0.48685 0.824875,-0.0471 0,0 z m 1.5111798,0 c -0.132658,0.45719 -1.6427108,-0.16242 -0.6793377,0.34662 0.2440657,0.13606 1.2830021,0.0329 0.6793377,-0.34662 z m -1.5805003,0.18023 c -0.1635661,0.0187 -0.017584,0.12891 0,0 z m -0.8734339,0.41591 c 0.1767144,0.35785 0.6961928,-0.14189 0,3e-5 z m -4.7137716,0.097 c -0.108814,0.43409 0.562235,0.46225 0.02773,0.0277 z m 4.7692278,0.20796 c -0.1651329,0.80489 0.7772812,0.52159 0,0 z m 4.4642188,0.0416 c -0.6133331,0.74804 0.046093,1.22074 0,0 z m -7.8747714,0.18023 c -0.2145542,0.17016 1.1222219,1.05256 0.4434006,0.15068 -0.1459791,-0.0563 -0.3061197,-0.0716 -0.4434006,-0.15068 z m 2.8837191,0.31886 c -0.5680724,0.11621 0.020121,1.2642 -0.0054,0.16256 0.09526,-0.075 0.3742972,-0.14149 0.0054,-0.16256 z m 2.4400699,0.11091 c -0.3634144,0.45019 1.1289991,0.30232 0.2079606,0.0554 -0.046848,0.13281 -0.1356887,-0.14798 -0.2079606,-0.0554 z m -6.6963282,0.097 c -1.076304,0.58354 2.2764748,0.378 0.569654,0.21909 -0.195229,-0.0566 -0.379867,-0.17556 -0.569654,-0.21909 z m 2.0241488,0.13864 c -0.069098,0.10598 0.1076219,0.0799 0,0 z m 6.5992803,0 c -0.3674258,0.86924 0.6885026,0.57295 0,0 z m -9.7880081,0.15251 c -0.217782,0.37043 0.591097,0.0825 0,0 z m 8.9977579,0.0555 c -0.1450804,0.0851 0.1450804,0.0851 0,0 z"
         id="path3054"
         inkscape:connector-curvature="0"
         sodipodi:nodetypes="cccccccccccccccccccccccccccccccccccccccccccccccccccccccccccccccccccccccccccccccccccccccccccccccccccccccccccccccc"
         fill="#655228"
         fill-opacity="1"
         stroke-width="0.115" />
    </g>
    <g
       id="g1564"
       transform="translate(0,-1.0506813)">
      <path
         d="m -9.4619189,237.89429 c -0.5406291,0.44446 0.6954489,0.34418 0,0 z m -0.3604649,0.49066 c -0.1697231,0.35824 0.2688582,0.0545 0,0 z m -1.7191402,0.0743 c -0.19737,0.55856 1.232177,0.75072 0.141671,0.0745 z m -0.277281,0.13385 c -0.369373,0.1978 0.269454,0.24872 0,0 z m 7.3618021,0.0148 c -0.7435656,0.51684 0.6716998,0.3411 0,0 z m -5.2544687,0.14871 c -0.5645144,0.58487 0.4309725,0.89352 0,0 z m 4.9355959,0.17845 c -0.5749795,0.30558 1.0961971,1.34617 0.2218246,0.44612 -0.073064,-0.14862 -0.080909,-0.34351 -0.2218246,-0.44612 z m -4.3394424,0.22304 c -0.070834,0.40565 0.9943189,0.65282 1.1645788,1.29375 0.9107979,0.52438 -0.4394652,-1.19033 -1.1645788,-1.29375 z m 3.7710171,0.13384 c -0.2274295,0.35277 -1.3334223,0.0387 -1.0354152,0.44586 0.2648213,-0.13251 1.1257583,-0.0995 1.0354152,-0.44586 z m 2.3291575,0 c -0.2142706,0.11714 0.2288233,0.0348 0,0 z m -3.8403371,0.43125 c -0.4667894,0.30102 0.7317655,-0.0245 0,0 z m -0.5268334,0.35691 c -0.3955564,0.19175 0.2574155,0.25162 0,0 z m 4.2146662,0.0297 c -0.1323816,0.18587 0.1130985,0.23703 0,0 z m -8.2491002,0.22306 c -0.137905,0.0411 0.112164,0.10817 0,0 z m 0.06932,0.0743 c -0.115395,0.81578 2.0784887,1.59852 0.707065,0.68404 -0.385309,-0.0592 -0.366839,-0.57188 -0.707065,-0.68404 z m 7.9995468,0 c -1.043551,0.24921 1.5627882,1.21458 1.2754906,0.68402 -0.5248973,-0.1873 -1.0192818,-0.0906 -1.2754906,-0.68402 z m -1.1507148,0.11897 c -0.6501425,0.27867 1.0906837,0.25208 0,0 z m -3.2857759,0.10404 c -0.2581858,0.59679 0.7908066,2.40106 -0.4510451,1.95589 -0.9256521,0.21947 1.0743994,0.23527 0.825374,1.01826 0.039735,0.76393 1.6164111,1.26304 0.5129692,0.40151 -0.6241634,-0.79941 -0.4373002,-1.59907 -0.5684253,-2.4537 -0.1500245,-0.26356 -0.1022148,-0.71867 -0.3188728,-0.92196 z m -1.6082279,0.59482 c -0.1764939,0.52299 1.3813672,0.65187 0.2072058,0.19787 l -0.096293,-0.0939 -0.1109123,-0.10405 z m 6.211087,0.28254 c -0.2094361,0.36912 0.2960585,0.39351 0,0 z m -0.1663684,0.41639 c -0.754711,0.49838 1.6576922,2.50178 0.7460596,1.05323 -0.6325892,-0.16286 -0.533192,-0.64821 -0.7460596,-1.05323 z m -6.5854159,0.2528 c -0.3713169,0.91817 0.5224643,0.71059 0,0 z m 6.4606396,0.44613 c -0.1367607,0.06 0.1052334,0.0891 0,0 z m -7.0290645,0.52048 c -0.326048,0.14817 0.313198,0.45569 0,0 z m 6.6131434,0.16356 c -0.1439526,0.20223 0.304428,-0.009 0,0 z m -6.7795124,0.11897 c -0.721755,0.32334 0.298442,1.68375 -0.06643,0.44643 0.09865,-0.12784 0.157077,-0.28828 0.06643,-0.44643 z m 4.3671706,0.0892 c 0.079169,0.54927 0.7621561,0.97604 0.3188729,0.11895 -0.1201297,5.9e-4 -0.1944192,-0.15573 -0.3188729,-0.11895 z m 3.327368,0.25281 c -0.010873,0.32198 0.455197,1.04828 0.7019818,1.10124 0.077222,-0.54811 -0.3384613,-0.83347 -0.7019818,-1.10124 z m -2.4677978,0.16357 c -0.079332,0.52222 0.8248771,-0.0506 0,0 z m 1.5111795,0 c -0.1326589,0.4904 -1.64271,-0.17421 -0.6793376,0.3718 0.2440695,0.14594 1.2830015,0.0353 0.6793376,-0.3718 z m -1.5804997,0.19332 c -0.1635661,0.0201 -0.017586,0.13827 0,0 z m -0.8734342,0.44614 c 0.1767157,0.38383 0.6961919,-0.1522 0,1e-5 z m -4.7137714,0.10404 c -0.108814,0.46562 0.562235,0.49582 0.02773,0.0297 z m 4.7692276,0.22307 c -0.1480919,0.84797 0.7712556,0.61228 0,0 z m -3.4105522,0.23792 c -0.2145504,0.18248 1.122221,1.129 0.4434008,0.16161 -0.1459797,-0.0604 -0.3061426,-0.0768 -0.4434008,-0.16161 z m 2.883719,0.34201 c -0.5680738,0.12465 0.020123,1.356 -0.0054,0.17437 0.095262,-0.0805 0.374298,-0.15177 0.0054,-0.17437 z m 2.4400698,0.11893 c -0.3634153,0.48289 1.1289988,0.32428 0.2079605,0.0594 -0.046848,0.14245 -0.1356914,-0.15873 -0.2079605,-0.0594 z m -6.6963282,0.10405 c -1.076303,0.62592 2.2764759,0.40545 0.569654,0.235 -0.195229,-0.0607 -0.379868,-0.18831 -0.569654,-0.235 z m 2.0241489,0.14871 c -0.069098,0.11367 0.1076223,0.0857 0,0 z m 6.59928,0 c -0.3674262,0.93237 0.6885028,0.61456 0,0 z m -9.7880079,0.16358 c -0.608061,0.26192 0.729856,0.15871 0,0 z m 8.9977579,0.0595 c -0.1450818,0.0913 0.1450817,0.0913 0,0 z m -8.4709249,0.35682 c -0.132444,0.19575 0.395594,-0.028 0,0 z"
         id="path3802"
         inkscape:connector-curvature="0"
         sodipodi:nodetypes="cccccccccccccccccccccccccccccccccccccccccccccccccccccccccccccccccccccccccccccccccccccccccccccccccccccccccccccc"
         fill="#cbab44"
         fill-opacity="1"
         stroke-width="0.119" />
      <g
         transform="matrix(1,0,0,1.0691145,0.1652647,-16.406193)"
         id="g1559">
        <path
           d="m -9.6452672,237.97553 c -0.5406288,0.41437 0.695448,0.32088 0,0 z m -0.3604648,0.45744 c -0.169723,0.33398 0.2688583,0.0508 0,0 z m -1.71914,0.0693 c -0.197371,0.52074 1.232177,0.69989 0.141671,0.0695 z m -0.277281,0.12478 c -0.369373,0.18441 0.269454,0.23188 0,0 z m 7.3618024,0.0138 c -0.7435658,0.48185 0.6716989,0.31802 0,0 z m -5.2544691,0.13864 c -0.5645153,0.54527 0.430972,0.83303 0,0 z m 4.9355961,0.16637 c -0.5749798,0.2849 1.0961974,1.25503 0.2218249,0.41592 -0.073064,-0.13856 -0.080909,-0.32026 -0.2218249,-0.41592 z m -4.3394428,0.20796 c -0.070834,0.37818 0.994319,0.60863 1.1645788,1.20615 0.9107984,0.48888 -0.439462,-1.10972 -1.1645788,-1.20615 z m 3.7710175,0.12478 c -0.227429,0.32888 -1.333423,0.0361 -1.0354154,0.41567 0.2648208,-0.12354 1.1257604,-0.0928 1.0354154,-0.41567 z m 2.3291575,0 c -0.2142715,0.10921 0.2288267,0.0324 0,0 z m -3.8403373,0.40206 c -0.4667887,0.28063 0.7317667,-0.0228 0,0 z m -0.526833,0.33273 c -0.3955562,0.17878 0.2574143,0.23459 0,0 z m 4.214666,0.0277 c -0.1323808,0.1733 0.1130972,0.22098 0,0 z m -8.2491003,0.20796 c -0.137906,0.0383 0.112164,0.10085 0,0 z m 0.06932,0.0693 c -0.115396,0.76055 2.0784898,1.4903 0.707066,0.63772 -0.385309,-0.0552 -0.36684,-0.53316 -0.707066,-0.63772 z m 7.9995485,0 c -1.0435535,0.23234 1.562792,1.13234 1.2754906,0.6377 -0.5248971,-0.1746 -1.0192837,-0.0845 -1.2754906,-0.6377 z m -1.150715,0.11091 c -0.6501576,0.2598 1.0906883,0.23501 0,0 z m -3.2857763,0.097 c -0.2581849,0.55639 0.7908066,2.23849 -0.4510453,1.82346 -0.9256516,0.20461 1.0744,0.21934 0.8253746,0.94933 0.039734,0.71219 1.6164107,1.17752 0.512969,0.37431 -0.6241618,-0.74527 -0.4373011,-1.49079 -0.5684252,-2.28757 -0.1500243,-0.2457 -0.1022145,-0.67 -0.3188731,-0.85953 z m -1.6082281,0.55454 c -0.1764942,0.48758 1.3813672,0.60775 0.2072057,0.18449 l -0.096293,-0.0876 -0.1109122,-0.097 z m 6.2110869,0.26342 c -0.2094355,0.34412 0.2960592,0.36686 0,0 z m -0.1663675,0.38819 c -0.7547126,0.46464 1.6576917,2.33239 0.7460593,0.98192 -0.6325887,-0.15182 -0.5331925,-0.60431 -0.7460593,-0.98192 z m -6.5854165,0.23569 c -0.371318,0.856 0.5224641,0.66248 0,0 z m 6.4606397,0.41592 c -0.1367593,0.0559 0.1052315,0.0831 0,0 z m -7.0290657,0.48524 c -0.326047,0.13815 0.313199,0.42485 0,0 z m 6.6131447,0.15247 c -0.1439524,0.18853 0.3044285,-0.008 0,0 z m -6.7795127,0.11091 c -0.721755,0.30145 0.298441,1.56975 -0.06643,0.4162 0.09865,-0.11918 0.157076,-0.26876 0.06643,-0.4162 z m 4.3671703,0.0832 c 0.079169,0.51208 0.7621577,0.90995 0.3188729,0.11089 -0.120128,5.5e-4 -0.1944219,-0.14519 -0.3188729,-0.11089 z m 3.3273682,0.23569 c -0.010865,0.30015 0.4551966,0.9773 0.7019824,1.02666 0.077227,-0.51099 -0.3384824,-0.77707 -0.7019824,-1.02666 z m -2.4677975,0.1525 c -0.079331,0.48685 0.824875,-0.0471 0,0 z m 1.5111798,0 c -0.132658,0.45719 -1.6427108,-0.16242 -0.6793377,0.34662 0.2440657,0.13606 1.2830021,0.0329 0.6793377,-0.34662 z m -1.5805003,0.18023 c -0.1635661,0.0187 -0.017584,0.12891 0,0 z m -0.8734339,0.41591 c 0.1767144,0.35785 0.6961928,-0.14189 0,3e-5 z m -4.7137716,0.097 c -0.108814,0.43409 0.562235,0.46225 0.02773,0.0277 z m 4.7692278,0.20796 c -0.1651329,0.80489 0.7772812,0.52159 0,0 z m 4.4642188,0.0416 c -0.6133331,0.74804 0.046093,1.22074 0,0 z m -7.8747714,0.18023 c -0.2145542,0.17016 1.1222219,1.05256 0.4434006,0.15068 -0.1459791,-0.0563 -0.3061197,-0.0716 -0.4434006,-0.15068 z m 2.8837191,0.31886 c -0.5680724,0.11621 0.020121,1.2642 -0.0054,0.16256 0.09526,-0.075 0.3742972,-0.14149 0.0054,-0.16256 z m 2.4400699,0.11091 c -0.3634144,0.45019 1.1289991,0.30232 0.2079606,0.0554 -0.046848,0.13281 -0.1356887,-0.14798 -0.2079606,-0.0554 z m -6.6963282,0.097 c -1.076304,0.58354 2.2764748,0.378 0.569654,0.21909 -0.195229,-0.0566 -0.379867,-0.17556 -0.569654,-0.21909 z m 2.0241488,0.13864 c -0.069098,0.10598 0.1076219,0.0799 0,0 z m 6.5992803,0 c -0.3674258,0.86924 0.6885026,0.57295 0,0 z m -9.7880081,0.15251 c -0.217782,0.37043 0.591097,0.0825 0,0 z m 8.9977579,0.0555 c -0.1450804,0.0851 0.1450804,0.0851 0,0 z"
           id="path1557"
           inkscape:connector-curvature="0"
           sodipodi:nodetypes="cccccccccccccccccccccccccccccccccccccccccccccccccccccccccccccccccccccccccccccccccccccccccccccccccccccccccccccccc"
           fill="#655228"
           fill-opacity="1"
           stroke-width="0.115" />
      </g>
    </g>
    <rect
       width="5.456"
       height="4.584"
       x="-7.712"
       y="251.48"
       id="rect2314"
       fill="url(#pattern2311)"
       stroke="none" />
    <path
       d="m 59.814303,233.60026 c -0.54223,0 -49.032972,0.23238 -49.032972,0.23238 -4.0481323,-0.41048 -2.5391562,-3.53833 -0.154923,-3.17591 l 46.476752,-0.0775"
       id="path967"
       inkscape:connector-curvature="0"
       sodipodi:nodetypes="cccc"
       stroke-opacity="1"
       fill="none"
       stroke="#fee9ad"
       stroke-linejoin="miter"
       stroke-linecap="butt"
       stroke-width="0.265" />
    <path
       d="m 12.56294,231.81865 c -0.309845,0 -2.9435282,-0.15492 -3.3308342,0.85207 -0.387307,1.007 1.7816092,0.85208 1.7816092,0.85208 l 46.47675,-0.0775 -1.781609,-1.47176 z"
       id="path969"
       inkscape:connector-curvature="0"
       sodipodi:nodetypes="cccccc"
       stroke-opacity="1"
       fill="#e6d7a5"
       stroke="#93710f"
       stroke-linejoin="miter"
       fill-opacity="1"
       stroke-linecap="butt"
       stroke-width="0.265" />
    <g
       id="g1650"
       transform="matrix(-1,0,0,1,43.005897,-10.154463)">
      <path
         stroke-miterlimit="4"
         d="m -16.939692,270.03455 c 0.949445,1.26351 2.780556,1.22024 5.190304,1.19007 l 16.1711871,-0.69469 0.02633,4.09173 -16.8243451,0.73409 c -2.583758,0.0268 -4.669887,-0.0408 -4.586966,-1.88148 z"
         id="path4343"
         inkscape:connector-curvature="0"
         sodipodi:nodetypes="ccccccc"
         opacity="1"
         stroke-dasharray="none"
         stroke-opacity="1"
         fill="#000000"
         fill-rule="nonzero"
         stroke="none"
         stroke-linejoin="round"
         fill-opacity="0.618"
         stroke-linecap="round"
         stroke-width="0.529" />
      <path
         stroke-miterlimit="4"
         d="m -17.189191,267.9893 c 0.488754,2.03103 2.211534,2.18653 4.365037,2.10726 l 17.1502722,0.17757 v 4.59082 l -17.3007902,-0.17757 c -2.523488,0.15807 -4.289347,-0.26664 -4.214519,-2.10726 z"
         id="path4295"
         inkscape:connector-curvature="0"
         sodipodi:nodetypes="ccccccc"
         opacity="1"
         stroke-dasharray="none"
         stroke-opacity="1"
         fill="#000000"
         fill-rule="nonzero"
         stroke="url(#linearGradient4299)"
         stroke-linejoin="round"
         fill-opacity="0.705"
         stroke-linecap="round"
         stroke-width="0.529" />
      <path
         stroke-miterlimit="4"
         sodipodi:nodetypes="ccccccc"
         inkscape:connector-curvature="0"
         id="path4297"
         d="m -16.942218,269.14038 c 0.856776,1.26351 2.509163,1.22024 4.683709,1.19007 l 16.1438545,-0.0732 0.02376,4.09173 -16.7332605,0.11257 c -2.331573,0.0268 -4.214088,-0.0409 -4.13926,-1.88147 z"
         opacity="1"
         stroke-dasharray="none"
         stroke-opacity="1"
         fill="url(#linearGradient4301)"
         fill-rule="nonzero"
         stroke="none"
         stroke-linejoin="round"
         fill-opacity="1"
         stroke-linecap="round"
         stroke-width="0.529" />
    </g>
    <rect
       id="rect1652"
       width="8.435"
       height="1.953"
       x="39.943"
       y="261.19"
       ry="0.977"
       opacity="1"
       stroke-dasharray="none"
       stroke-opacity="1"
       fill="#000000"
       fill-rule="nonzero"
       stroke="url(#linearGradient1660)"
       stroke-linejoin="round"
       fill-opacity="1"
       stroke-linecap="round"
       stroke-width="0.397"
       stroke-dashoffset="0"
       stroke-miterlimit="4"
       rx="0.977" />
    <path
       d="m 47.273151,261.22222 a 0.75413788,0.75413788 0 0 0 -0.705078,0.64257 c -0.08804,0.53995 0.02582,1.00923 0.126953,1.42774 0.101136,0.41851 0.200807,0.79455 0.216797,1.04492 0.01599,0.25037 -0.0033,0.30053 -0.0918,0.38672 -0.08839,0.0861 -0.388991,0.25735 -1.089844,0.32812 -0.0012,1.2e-4 -7.99e-4,-1.1e-4 -0.002,0 l -3.058594,0.084 c -0.533218,-0.0616 -0.740258,-0.19442 -0.8125,-0.27539 -0.0738,-0.0827 -0.118349,-0.2007 -0.117187,-0.48047 0.0023,-0.55953 0.367229,-1.47748 0.08398,-2.50586 a 0.75413788,0.75413788 0 1 0 -1.453125,0.40039 c 0.08424,0.30587 -0.134748,1.15305 -0.138672,2.09766 -0.002,0.4723 0.09537,1.04084 0.498047,1.49218 0.402682,0.45135 1.018753,0.69453 1.796875,0.77735 a 0.75413788,0.75413788 0 0 0 0.101563,0.004 l 3.195312,-0.0899 a 0.75413788,0.75413788 0 0 0 0.05469,-0.002 c 0.883997,-0.0887 1.537005,-0.30298 1.99414,-0.74805 0.457136,-0.44507 0.576391,-1.07172 0.544922,-1.56445 -0.03147,-0.49273 -0.164942,-0.92651 -0.255859,-1.30274 -0.09092,-0.37622 -0.129314,-0.68578 -0.105469,-0.83203 a 0.75413788,0.75413788 0 0 0 -0.783151,-0.88476 z"
       id="path1662"
       inkscape:connector-curvature="0"
       visibility="visible"
       font-variant-ligatures="normal"
       letter-spacing="0"
       text-align="start"
       font-variant-caps="normal"
       shape-rendering="auto"
       mix-blend-mode="normal"
       isolation="auto"
       color-interpolation-filters="linearRGB"
       stroke-dasharray="none"
       stroke-opacity="1"
       word-spacing="0"
       white-space="normal"
       font-feature-settings="normal"
       overflow="visible"
       font-size="0"
       font-family="sans-serif"
       text-decoration-line="none"
       opacity="1"
       fill="#959595"
       solid-opacity="1"
       stroke-miterlimit="4"
       dominant-baseline="auto"
       image-rendering="auto"
       text-decoration-style="solid"
       fill-opacity="1"
       text-rendering="auto"
       font-variant-alternates="normal"
       solid-color="#000000"
       font-weight="normal"
       text-decoration="none"
       stroke="#020101"
       clip-rule="nonzero"
       font-style="normal"
       display="inline"
       line-height="normal"
       text-decoration-color="#000000"
       color="#000000"
       enable-background="accumulate"
       fill-rule="nonzero"
       font-variant="normal"
       stroke-linecap="round"
       stroke-linejoin="round"
       text-transform="none"
       font-variant-numeric="normal"
       stroke-width="0.212"
       color-rendering="auto"
       text-orientation="mixed"
       vector-effect="none"
       stroke-dashoffset="0"
       text-anchor="start"
       font-variant-position="normal"
       font-stretch="normal"
       shape-padding="0"
       writing-mode="lr-tb"
       baseline-shift="0"
       text-indent="0"
       direction="ltr"
       color-interpolation="sRGB" />
    <path
       d="m 40.665791,262.08419 c 0.426105,1.20236 -1.259255,3.20055 1.397249,4.11551 1.285179,0.31138 3.176983,0.005 4.83454,-0.1006 m 0.519272,-1.18511 c 0.02378,-0.7695 -0.654222,-2.07354 -0.532176,-2.82208"
       id="path1666"
       inkscape:connector-curvature="0"
       sodipodi:nodetypes="ccccc"
       stroke-dasharray="none"
       stroke-opacity="1"
       fill="none"
       filter="url(#filter1680)"
       stroke="#231a00"
       stroke-linejoin="round"
       stroke-linecap="round"
       stroke-width="0.423"
       stroke-miterlimit="4" />
    <path
       sodipodi:nodetypes="cccc"
       inkscape:connector-curvature="0"
       id="path1664"
       d="m 41.328253,261.6024 c 0.367489,1.33425 -1.290413,3.70671 1.385822,3.99154 l 3.624107,-0.17907 c 3.174643,-0.31849 0.940351,-2.37098 1.164113,-3.74336"
       stroke-dasharray="none"
       stroke-opacity="1"
       fill="none"
       filter="url(#filter1672)"
       stroke="#ffffff"
       stroke-linejoin="round"
       stroke-linecap="round"
       stroke-width="0.423"
       stroke-miterlimit="4" />
    <path
       sodipodi:nodetypes="cccccccccccc"
       inkscape:connector-curvature="0"
       id="path1010"
       d="m 41.276766,272.53415 c -0.516363,-0.22971 -1.916227,-1.72361 -1.916227,-1.72361 l -2.530764,1.73062 c 0,0 -0.260049,1.17994 0.319314,2.46959 -1.944597,3.2583 -0.647782,6.05355 0.07505,8.93079 0.32293,4.41606 4.124239,3.90234 7.279721,4.35282 3.771974,0.0882 5.618198,-1.75294 6.604282,-4.05262 0.27238,-3.07346 2.026377,-3.18503 0.900584,-8.6306 0.04024,-1.21601 0.82193,-3.00119 0.82193,-3.00119 l -2.021039,-1.30494 c 0,0 -1.11091,0.41913 -1.952935,1.30418 z"
       stroke-opacity="1"
       fill="#000000"
       filter="url(#filter952)"
       stroke="none"
       stroke-linejoin="miter"
       fill-opacity="0.716"
       stroke-linecap="butt"
       stroke-width="0.265" />
    <path
       d="M 42.252399,271.70861 C 41.736036,271.4789 40.336172,269.985 40.336172,269.985 l -2.530764,1.73062 c 0,0 -0.260049,1.17994 0.319314,2.46959 -1.944597,3.2583 -0.647782,6.05355 0.07505,8.93079 0.32293,4.41606 4.124239,3.90234 7.279721,4.35282 3.771974,0.0882 5.618198,-1.75294 6.604282,-4.05262 0.27238,-3.07346 2.026377,-3.18503 0.900584,-8.6306 0.04024,-1.21601 0.82193,-3.00119 0.82193,-3.00119 l -2.021039,-1.30494 c 0,0 -1.11091,0.41913 -1.952935,1.30418 z"
       id="path918"
       inkscape:connector-curvature="0"
       sodipodi:nodetypes="cccccccccccc"
       stroke-opacity="1"
       fill="#383838"
       stroke="#000000"
       stroke-linejoin="miter"
       fill-opacity="1"
       stroke-linecap="butt"
       stroke-width="0.265" />
    <path
       d="m 38.049947,271.86806 c -0.315253,1.17475 1.084419,2.65976 0.179011,3.66082 -1.433381,3.14713 0.484396,5.78822 1.050578,8.90422 1.211531,2.57679 4.061721,2.11551 6.407201,2.47027 3.117543,0.22541 5.856346,-1.94957 6.050467,-5.11622 1.065765,-2.21999 1.13882,-4.20448 0.532373,-6.57623 0.06162,-0.99679 0.477016,-2.54954 0.832861,-3.47343 -0.554756,-0.57557 -1.698505,-0.73209 -1.698505,-0.73209 0,0 -1.012039,0.43521 -1.47919,1.06774 -1.789422,0.47364 -3.34813,0.09 -5.274272,0.219 -1.264714,0.11479 -3.020211,0.0905 -3.812291,-1.04378 -0.756636,-1.47015 0.02568,-0.9847 -0.912016,-0.73114 z"
       id="path920"
       inkscape:connector-curvature="0"
       sodipodi:nodetypes="ccccccccccccc"
       stroke-opacity="1"
       fill="#979797"
       stroke="#545454"
       stroke-linejoin="miter"
       fill-opacity="1"
       stroke-linecap="butt"
       stroke-width="0.265" />
    <ellipse
       id="path925"
       cx="45.22"
       cy="277.04"
       rx="1.962"
       ry="1.851"
       opacity="1"
       stroke-dasharray="none"
       stroke-opacity="1"
       fill="#000000"
       fill-rule="nonzero"
       stroke="#ffffff"
       stroke-linejoin="round"
       fill-opacity="1"
       stroke-linecap="round"
       stroke-width="0.262"
       stroke-dashoffset="0"
       stroke-miterlimit="4" />
    <rect
       id="rect927"
       width="1.436"
       height="5.327"
       x="44.499"
       y="277.26"
       ry="0.677"
       opacity="1"
       stroke-dasharray="none"
       stroke-opacity="1"
       fill="#000000"
       fill-rule="nonzero"
       stroke="none"
       stroke-linejoin="round"
       fill-opacity="1"
       stroke-linecap="round"
       stroke-width="0.262"
       stroke-dashoffset="0"
       stroke-miterlimit="4"
       rx="0.677" />
    <path
       d="m 40.086434,264.01867 c -0.3599,0.20031 -0.696714,0.42753 -1.005237,0.68337 -0.841768,0.69802 -1.462598,1.66032 -1.603515,2.80078 -0.140918,1.14047 0.186626,2.39097 0.978515,3.70703 l 1.587891,-0.95508 c -0.643196,-1.06894 -0.806482,-1.8944 -0.728516,-2.52539 0.07797,-0.63098 0.386748,-1.13514 0.949219,-1.60156 0.100518,-0.0834 0.2095,-0.16385 0.326214,-0.24132 -0.510373,-0.44337 -0.515283,-1.15151 -0.504571,-1.86783 z m 2.624293,0.98451 c 0.941506,-0.24146 2.006963,-0.36939 3.079455,-0.35583 2.215232,0.028 4.436166,0.65275 5.634765,1.63672 0.5993,0.49199 0.9461,1.03223 1.054688,1.66992 0.108588,0.6377 -0.01517,1.43658 -0.601563,2.47266 l 1.611328,0.91211 c 0.738108,-1.30414 1.009639,-2.56249 0.816407,-3.69727 -0.193233,-1.13478 -0.844848,-2.08287 -1.705079,-2.78906 -1.720461,-1.41238 -4.26412,-2.02669 -6.787109,-2.05859 -1.298683,-0.0164 -2.598137,0.11976 -3.78308,0.4462 -0.187976,0.82962 -0.59232,1.78547 0.680188,1.76314 z"
       id="path929"
       inkscape:connector-curvature="0"
       sodipodi:nodetypes="cssccccccccccccssscc"
       visibility="visible"
       font-variant-ligatures="normal"
       letter-spacing="0"
       text-align="start"
       font-variant-caps="normal"
       shape-rendering="auto"
       mix-blend-mode="normal"
       isolation="auto"
       color-interpolation-filters="linearRGB"
       stroke-dasharray="none"
       stroke-opacity="1"
       word-spacing="0"
       white-space="normal"
       font-feature-settings="normal"
       overflow="visible"
       font-size="0"
       font-family="sans-serif"
       text-decoration-line="none"
       opacity="1"
       fill="#a4a4a4"
       solid-opacity="1"
       stroke-miterlimit="4"
       dominant-baseline="auto"
       image-rendering="auto"
       text-decoration-style="solid"
       fill-opacity="1"
       text-rendering="auto"
       font-variant-alternates="normal"
       solid-color="#000000"
       font-weight="normal"
       text-decoration="none"
       stroke="none"
       clip-rule="nonzero"
       font-style="normal"
       display="inline"
       line-height="normal"
       text-decoration-color="#000000"
       color="#000000"
       enable-background="accumulate"
       fill-rule="nonzero"
       font-variant="normal"
       stroke-linecap="butt"
       stroke-linejoin="miter"
       text-transform="none"
       font-variant-numeric="normal"
       stroke-width="1.853"
       color-rendering="auto"
       text-orientation="mixed"
       vector-effect="none"
       stroke-dashoffset="0"
       text-anchor="start"
       font-variant-position="normal"
       font-stretch="normal"
       shape-padding="0"
       writing-mode="lr-tb"
       baseline-shift="0"
       text-indent="0"
       direction="ltr"
       color-interpolation="sRGB" />
    <path
       d="m 42.402496,263.5283 c 6.182989,-0.41234 12.975262,0.30024 10.957105,7.20467"
       id="path931"
       inkscape:connector-curvature="0"
       sodipodi:nodetypes="cc"
       stroke-dasharray="none"
       stroke-opacity="1"
       fill="none"
       filter="url(#filter965)"
       stroke="#ffffff"
       stroke-linejoin="miter"
       stroke-linecap="butt"
       stroke-width="0.644"
       stroke-miterlimit="4" />
    <path
       d="m 39.700744,265.85481 c -0.996242,0.89322 -1.445744,2.11448 -0.450292,4.20272"
       id="path935"
       inkscape:connector-curvature="0"
       sodipodi:nodetypes="cc"
       stroke-dasharray="none"
       stroke-opacity="1"
       fill="none"
       filter="url(#filter981)"
       stroke="#ffffff"
       stroke-linejoin="miter"
       stroke-linecap="butt"
       stroke-width="0.565"
       stroke-miterlimit="4" />
    <path
       d="m 38.725112,270.65792 c -1.498974,-2.38855 -0.946612,-4.26426 0.750486,-5.85379"
       id="path937"
       inkscape:connector-curvature="0"
       sodipodi:nodetypes="cc"
       stroke-dasharray="none"
       stroke-opacity="1"
       fill="none"
       filter="url(#filter1006)"
       stroke="#000000"
       stroke-linejoin="miter"
       stroke-linecap="butt"
       stroke-width="0.529"
       stroke-miterlimit="4" />
    <path
       d="m 41.65201,264.87917 c 4.537072,-1.34108 12.956316,-0.8971 11.107202,5.25341"
       id="path939"
       inkscape:connector-curvature="0"
       sodipodi:nodetypes="cc"
       stroke-dasharray="none"
       stroke-opacity="1"
       fill="none"
       filter="url(#filter953)"
       stroke="#000000"
       stroke-linejoin="miter"
       stroke-linecap="butt"
       stroke-width="0.676"
       stroke-miterlimit="4" />
    <path
       d="m 41.276764,272.45909 c 2.139397,0.64974 4.938804,0.41947 7.654964,0.3002 0.927864,0.23646 1.67001,-0.45567 2.40156,-1.20078 0,0 1.576019,0.30019 1.275826,0.45029 -0.667154,0.0278 -1.276837,2.62637 -1.050682,2.70175 0.719641,1.77615 0.72694,3.55231 0.450292,5.32846 l -4.427871,-2.6267 c 0.0994,-2.15825 -2.137263,-3.31965 -3.452239,-2.25146 z"
       id="path938"
       inkscape:connector-curvature="0"
       sodipodi:nodetypes="ccccccccc"
       stroke-opacity="1"
       fill="#ffffff"
       stroke="none"
       stroke-linejoin="miter"
       fill-opacity="0.86"
       stroke-linecap="butt"
       stroke-width="0.265" />
    <g
       transform="matrix(0,-0.57250438,-0.57250438,0.22815292,191.59938,211.81865)"
       id="layer1-3"
       inkscape:label="Layer 1"
       fill="#ffffff"
       fill-opacity="0.18">
      <rect
         y="232.7"
         x="11.02"
         height="28.904"
         width="19.848"
         id="rect812"
         opacity="1"
         stroke-dasharray="none"
         stroke-opacity="1"
         fill="#ffffff"
         fill-rule="nonzero"
         stroke="none"
         stroke-linejoin="round"
         fill-opacity="0.18"
         stroke-linecap="round"
         stroke-width="0.476"
         stroke-dashoffset="0"
         stroke-miterlimit="4" />
      <rect
         id="rect814"
         width="19.848"
         height="28.904"
         x="32.983"
         y="232.7"
         opacity="1"
         stroke-dasharray="none"
         stroke-opacity="1"
         fill="#ffffff"
         fill-rule="nonzero"
         stroke="none"
         stroke-linejoin="round"
         fill-opacity="0.18"
         stroke-linecap="round"
         stroke-width="0.476"
         stroke-dashoffset="0"
         stroke-miterlimit="4" />
      <rect
         y="263.72"
         x="11.02"
         height="28.904"
         width="19.848"
         id="rect816"
         opacity="1"
         stroke-dasharray="none"
         stroke-opacity="1"
         fill="#ffffff"
         fill-rule="nonzero"
         stroke="none"
         stroke-linejoin="round"
         fill-opacity="0.18"
         stroke-linecap="round"
         stroke-width="0.476"
         stroke-dashoffset="0"
         stroke-miterlimit="4" />
      <rect
         id="rect818"
         width="19.848"
         height="28.904"
         x="32.983"
         y="263.72"
         opacity="1"
         stroke-dasharray="none"
         stroke-opacity="1"
         fill="#ffffff"
         fill-rule="nonzero"
         stroke="none"
         stroke-linejoin="round"
         fill-opacity="0.18"
         stroke-linecap="round"
         stroke-width="0.476"
         stroke-dashoffset="0"
         stroke-miterlimit="4" />
    </g>
  </g>
</svg>
