<?xml version='1.0' encoding='UTF-8' standalone='no'?>
<!-- Created with Inkscape (http://www.inkscape.org/) -->
<svg width="256" inkscape:output_extension="org.inkscape.output.svg.inkscape" xmlns:rdf="http://www.w3.org/1999/02/22-rdf-syntax-ns#" version="1.0" xmlns="http://www.w3.org/2000/svg" sodipodi:version="0.32" height="256" xmlns:xlink="http://www.w3.org/1999/xlink" xmlns:sodipodi="http://sodipodi.sourceforge.net/DTD/sodipodi-0.dtd" xmlns:cc="http://creativecommons.org/ns#" sodipodi:docname="akonadi.svg" id="svg2" inkscape:version="0.46" xmlns:dc="http://purl.org/dc/elements/1.1/" sodipodi:docbase="/media/disk-hdb2/svg1/apps" xmlns:svg="http://www.w3.org/2000/svg" xmlns:inkscape="http://www.inkscape.org/namespaces/inkscape">
<defs id="defs5">
<linearGradient id="linearGradient4073">
<stop offset="0" style="stop-color:#000000;stop-opacity:1;" id="stop4075"/>
<stop offset="1" style="stop-color:#494949;stop-opacity:0;" id="stop4077"/>
</linearGradient>
<linearGradient id="linearGradient4067">
<stop offset="0" style="stop-color:#424242;stop-opacity:1;" id="stop4069"/>
<stop offset="1" style="stop-color:#a7a7a7;stop-opacity:0;" id="stop4071"/>
</linearGradient>
<linearGradient id="linearGradient3963">
<stop offset="0" style="stop-color:#666666;stop-opacity:1;" id="stop3965"/>
<stop offset="1" style="stop-color:#cbcbcb;stop-opacity:1;" id="stop3967"/>
</linearGradient>
<linearGradient id="linearGradient5794">
<stop offset="0" style="stop-color:#7f8086;stop-opacity:1" id="stop5796"/>
<stop offset="0.31594139" style="stop-color:white;stop-opacity:1;" id="stop5798"/>
<stop offset="1" style="stop-color:#2f2f45;stop-opacity:1" id="stop5800"/>
</linearGradient>
<linearGradient inkscape:collect="always" id="linearGradient2813">
<stop offset="0" style="stop-color:white;stop-opacity:1" id="stop2815"/>
<stop offset="1" style="stop-color:#191b38;stop-opacity:1" id="stop2817"/>
</linearGradient>
<linearGradient inkscape:collect="always" id="linearGradient2805">
<stop offset="0" style="stop-color:#736565;stop-opacity:1" id="stop2807"/>
<stop offset="1" style="stop-color:white;stop-opacity:1" id="stop2809"/>
</linearGradient>
<linearGradient inkscape:collect="always" xlink:href="#linearGradient2813" id="linearGradient2823" y1="-20.446123" x1="-15.517958" y2="-14.880906" gradientUnits="userSpaceOnUse" x2="2.2098303"/>
<linearGradient inkscape:collect="always" spreadMethod="reflect" id="linearGradient7170" xlink:href="#linearGradient3578" y1="-7.4748664" y2="-7.4748664" x1="13.514812" x2="16.093008" gradientUnits="userSpaceOnUse"/>
<linearGradient inkscape:collect="always" spreadMethod="reflect" xlink:href="#linearGradient3578" id="linearGradient6525" y1="-5.2121248" x1="16.908924" y2="-6.5828238" gradientUnits="userSpaceOnUse" x2="18.616835"/>
<linearGradient inkscape:collect="always" spreadMethod="reflect" xlink:href="#linearGradient3578" id="linearGradient6527" y1="-7.4748664" x1="13.514812" y2="-8.018795" gradientUnits="userSpaceOnUse" x2="17.07476"/>
<linearGradient inkscape:collect="always" spreadMethod="reflect" xlink:href="#linearGradient3578" id="linearGradient6529" y1="-5.9083529" x1="16.386753" y2="-6.9526954" gradientUnits="userSpaceOnUse" x2="17.74655"/>
<linearGradient inkscape:collect="always" spreadMethod="reflect" xlink:href="#linearGradient3578" id="linearGradient6531" y1="-10.150993" x1="12.905613" y2="-5.7778101" gradientUnits="userSpaceOnUse" x2="11.371711"/>
<linearGradient inkscape:collect="always" spreadMethod="reflect" xlink:href="#linearGradient3578" id="linearGradient6533" y1="-11.586965" x1="12.035328" y2="-2.6882975" gradientUnits="userSpaceOnUse" x2="8.6955833"/>
<linearGradient inkscape:collect="always" spreadMethod="reflect" xlink:href="#linearGradient3578" id="linearGradient6535" y1="-11.39115" x1="16.386753" y2="-11.199143" gradientUnits="userSpaceOnUse" x2="11.132382"/>
<linearGradient inkscape:collect="always" spreadMethod="reflect" xlink:href="#linearGradient3578" id="linearGradient6537" y1="-10.977764" x1="16.691353" y2="-7.4748664" gradientUnits="userSpaceOnUse" x2="16.093008"/>
<linearGradient inkscape:collect="always" spreadMethod="reflect" xlink:href="#linearGradient3578" id="linearGradient6539" y1="-6.2564669" x1="15.58174" y2="-1.9920692" gradientUnits="userSpaceOnUse" x2="17.376678"/>
<linearGradient inkscape:collect="always" spreadMethod="reflect" xlink:href="#linearGradient3578" id="linearGradient6541" y1="-2.2749119" x1="17.082983" y2="-3.7326398" gradientUnits="userSpaceOnUse" x2="14.93988"/>
<linearGradient inkscape:collect="always" spreadMethod="reflect" xlink:href="#linearGradient3578" id="linearGradient6543" y1="-3.7543969" x1="7.7709298" y2="-4.5158963" gradientUnits="userSpaceOnUse" x2="12.916467"/>
<linearGradient inkscape:collect="always" spreadMethod="reflect" xlink:href="#linearGradient3578" id="linearGradient6545" y1="-5.8865957" x1="11.186799" y2="-1.5134122" gradientUnits="userSpaceOnUse" x2="9.7181683"/>
<linearGradient inkscape:collect="always" spreadMethod="reflect" xlink:href="#linearGradient3578" id="linearGradient6547" y1="-6.4087667" x1="10.621114" y2="-7.4748664" gradientUnits="userSpaceOnUse" x2="16.093008"/>
<linearGradient inkscape:collect="always" spreadMethod="reflect" xlink:href="#linearGradient3578" id="linearGradient6549" y1="-2.2096405" x1="15.650429" y2="-7.4748664" gradientUnits="userSpaceOnUse" x2="16.093008"/>
<linearGradient id="linearGradient3578">
<stop offset="0" style="stop-color:#000000;stop-opacity:1;" id="stop3580"/>
<stop offset="1" style="stop-color:#fffcfc;stop-opacity:1;" id="stop3582"/>
</linearGradient>
<linearGradient id="linearGradient3386">
<stop offset="0" style="stop-color:#00010c;stop-opacity:1;" id="stop3388"/>
<stop offset="1" style="stop-color:#ffffff;stop-opacity:1;" id="stop3390"/>
</linearGradient>
<linearGradient id="linearGradient3435">
<stop offset="0" style="stop-color:#ffffff;stop-opacity:1" id="stop3437"/>
<stop offset="1" style="stop-color:#ffffff;stop-opacity:0;" id="stop3439"/>
</linearGradient>
<linearGradient id="linearGradient3447">
<stop offset="0" style="stop-color:#000000;stop-opacity:1;" id="stop3449"/>
<stop offset="1" style="stop-color:#777777;stop-opacity:0;" id="stop3451"/>
</linearGradient>
<linearGradient id="linearGradient5327">
<stop offset="0" style="stop-color:#aaaaaa;stop-opacity:1;" id="stop5329"/>
<stop offset="1" style="stop-color:#3d3d3d;stop-opacity:1;" id="stop5331"/>
</linearGradient>
<linearGradient inkscape:collect="always" xlink:href="#linearGradient2805" id="linearGradient5813" y1="-25.196596" x1="-15.517958" y2="-12.945179" gradientUnits="userSpaceOnUse" x2="-0.69376135"/>
<linearGradient inkscape:collect="always" gradientTransform="matrix(2.2208777,0,0,2.2208777,-19.012374,-0.5424898)" xlink:href="#linearGradient5794" id="linearGradient3990" y1="17.059227" x1="22.809803" y2="91.463142" gradientUnits="userSpaceOnUse" x2="114.31042"/>
<linearGradient inkscape:collect="always" gradientTransform="matrix(1.1458026,0,0,1.1458026,-16.811357,-20.249882)" xlink:href="#linearGradient3963" id="linearGradient3992" y1="198.81128" x1="140.08556" y2="36.250935" gradientUnits="userSpaceOnUse" x2="153.83676"/>
<linearGradient inkscape:collect="always" gradientTransform="matrix(0.6473069,0,0,0.7091509,-323.74165,3.2774097)" xlink:href="#linearGradient4067" id="linearGradient4034" y1="150.69028" x1="142.47787" y2="150.69023" gradientUnits="userSpaceOnUse" x2="167.54178"/>
<linearGradient inkscape:collect="always" gradientTransform="matrix(0.6473069,0,0,0.7120173,-69.416619,2.6052545)" xlink:href="#linearGradient4073" id="linearGradient4037" y1="150.69028" x1="142.47787" y2="150.69025" gradientUnits="userSpaceOnUse" x2="168.45094"/>
<linearGradient inkscape:collect="always" gradientTransform="matrix(0.9511988,0,0,0.9253098,160.94628,-13.68858)" xlink:href="#linearGradient5327" id="linearGradient4040" y1="221.10696" x1="-35.234375" y2="43.925755" gradientUnits="userSpaceOnUse" x2="-35.234375"/>
<linearGradient inkscape:collect="always" gradientTransform="matrix(-2.6189475,0,0,-2.2356742,543.09386,400.23558)" xlink:href="#linearGradient3447" id="linearGradient4056" y1="94.160919" x1="160.66208" y2="107.10956" gradientUnits="userSpaceOnUse" x2="160.52299"/>
<linearGradient inkscape:collect="always" gradientTransform="matrix(2.6306636,0,0,2.6082229,-291.23907,-217.77593)" xlink:href="#linearGradient3435" id="linearGradient4059" y1="94.160919" x1="160.66208" y2="122.06464" gradientUnits="userSpaceOnUse" x2="155.50662"/>
<linearGradient inkscape:collect="always" gradientTransform="matrix(2.5098593,0,0,2.4995814,-268.86967,-221.60675)" spreadMethod="reflect" xlink:href="#linearGradient3386" id="linearGradient4062" y1="147.86206" x1="143.38966" y2="121.96781" gradientUnits="userSpaceOnUse" x2="177.64023"/>
<linearGradient inkscape:collect="always" gradientTransform="matrix(2.5342822,0,0,2.4577778,-273.4476,-217.33236)" spreadMethod="reflect" xlink:href="#linearGradient3386" id="linearGradient4065" y1="147.86206" x1="143.38966" y2="121.96781" gradientUnits="userSpaceOnUse" x2="177.64023"/>
<linearGradient inkscape:collect="always" gradientTransform="matrix(2.3891451,0,0,2.3891451,-23.041601,-51.873364)" spreadMethod="reflect" id="linearGradient3157" xlink:href="#linearGradient3586" y1="88.38028" y2="88.38028" x1="55.922073" x2="81.773773" gradientUnits="userSpaceOnUse"/>
<linearGradient inkscape:collect="always" gradientTransform="matrix(2.3891451,0,0,2.3891451,-23.041601,-51.873364)" spreadMethod="reflect" id="linearGradient3155" xlink:href="#linearGradient3573" y1="33.266644" y2="55.804523" x1="27.181591" x2="94.084381" gradientUnits="userSpaceOnUse"/>
<radialGradient fx="43.479687" fy="24.44582" cx="43.479687" cy="24.44582" inkscape:collect="always" gradientTransform="matrix(2.9240052,0.2920178,-0.1306677,1.3083905,-43.102868,-18.659758)" spreadMethod="reflect" r="30.12385" id="radialGradient3153" xlink:href="#linearGradient3561" gradientUnits="userSpaceOnUse"/>
<linearGradient inkscape:collect="always" gradientTransform="matrix(2.3891451,0,0,2.3891451,-23.041601,-51.873364)" spreadMethod="reflect" id="linearGradient3151" xlink:href="#linearGradient3529" y1="88.38028" y2="88.38028" x1="55.922073" x2="81.773773" gradientUnits="userSpaceOnUse"/>
<linearGradient inkscape:collect="always" gradientTransform="matrix(2.3891451,0,0,2.3891451,-23.041601,-51.873364)" spreadMethod="reflect" id="linearGradient3149" xlink:href="#linearGradient3545" y1="74.175735" y2="74.175735" x1="57.305443" x2="83.273224" gradientUnits="userSpaceOnUse"/>
<linearGradient id="linearGradient3586">
<stop offset="0" style="stop-color:#000000;stop-opacity:1;" id="stop3588"/>
<stop offset="1" style="stop-color:#9d9999;stop-opacity:1;" id="stop3590"/>
</linearGradient>
<linearGradient inkscape:collect="always" id="linearGradient3573">
<stop offset="0" style="stop-color:#ffffff;stop-opacity:1" id="stop3575"/>
<stop offset="1" style="stop-color:#c3c3c3;stop-opacity:1" id="stop3577"/>
</linearGradient>
<linearGradient id="linearGradient3561">
<stop offset="0" style="stop-color:#ffffff;stop-opacity:1" id="stop3563"/>
<stop offset="1" style="stop-color:#afafaf;stop-opacity:1" id="stop3565"/>
</linearGradient>
<linearGradient id="linearGradient3545">
<stop offset="0" style="stop-color:#ffffff;stop-opacity:1" id="stop3547"/>
<stop offset="0.69783264" style="stop-color:#afafaf;stop-opacity:1" id="stop3553"/>
<stop offset="0.88173676" style="stop-color:#686868;stop-opacity:1" id="stop3555"/>
<stop offset="1" style="stop-color:#ffffff;stop-opacity:1;" id="stop3549"/>
</linearGradient>
<linearGradient inkscape:collect="always" id="linearGradient3529">
<stop offset="0" style="stop-color:#858585;stop-opacity:1" id="stop3531"/>
<stop offset="1" style="stop-color:#ffffff;stop-opacity:1" id="stop3533"/>
</linearGradient>
</defs>
<metadata id="metadata7">
<rdf:RDF>
<cc:Work>
<dc:format>image/svg+xml</dc:format>
<dc:type rdf:resource="http://purl.org/dc/dcmitype/StillImage"/>
</cc:Work>
</rdf:RDF>
</metadata>
<sodipodi:namedview inkscape:zoom="2.58" objecttolerance="10.0" inkscape:window-x="-5" inkscape:window-y="0" bordercolor="#666666" id="base" inkscape:pageopacity="0.0" guidetolerance="10.0" pagecolor="#ffffff" inkscape:window-width="1680" showgrid="false" width="256" inkscape:cx="231.08472" inkscape:cy="128" inkscape:window-height="1025" borderopacity="1.0" inkscape:pageshadow="2" gridtolerance="10.0" height="256" inkscape:current-layer="svg2"/>
<g inkscape:label="1. réteg" id="g3815" transform="translate(-0.5959556,0.1764943)">
<g id="g2637">
<g id="g3612" transform="translate(-2.5722563,0)">
<g style="font-size:12px;font-style:normal;font-weight:normal;fill:url(#linearGradient7170);fill-opacity:1;stroke:none;stroke-width:1px;stroke-linecap:butt;stroke-linejoin:miter;stroke-opacity:1;font-family:Bitstream Vera Sans" id="g2650">
<path style="fill:url(#linearGradient7170);fill-opacity:1" id="path2652" d="m 16.1875,-12.2188 l -4.0938,.0312 .7071,.7071 4.0938,-.0312 -.7071,-.7071 z "/>
<path style="fill:url(#linearGradient7170);fill-opacity:1" id="path2654" d="m 12.0938,-12.1875 l -3.3438,8.75 .7071,.7071 3.3438,-8.75 -.7071,-.7071 z "/>
<path style="fill:url(#linearGradient7170);fill-opacity:1" id="path2662" d="m 14.75,-5.6875 l .7812,2.2188 .7071,.7071 -.7812,-2.2188 -.7071,-.7071 z "/>
<path style="fill:url(#linearGradient7170);fill-opacity:1" id="path2664" d="m 15.5312,-3.4688 v 0.03125 l .7071,.7071 v -0.03125 l -.7071,-.7071 z "/>
<path style="fill:url(#linearGradient7170);fill-opacity:1" id="path2672" d="m 17.9204,-11.5195 c -0.441567,-0.441567 -1.02388,-0.714237 -1.73287,-0.699223 l .7071,.7071 c 0.708986,-0.015014 1.2913,0.257655 1.73287,0.699223 l -.7071,-.7071 z "/>
<path style="fill:url(#linearGradient6537);fill-opacity:1" id="path2674" d="m 16.2188,-11.9688 c 0.599616,0.002811 1.09845,0.242806 1.48147,0.625832 l .7071,.7071 c -0.383026,-0.383026 -0.881855,-0.623021 -1.48147,-0.625832 l -.7071,-.7071 z "/>
<path style="fill:url(#linearGradient7170);fill-opacity:1" id="path2676" d="m 17.7002,-11.3429 c 1.56146,1.56145 1.19839,5.49993 -2.10647,5.43667 l .7071,.7071 c 3.30486,0.0632607 3.66793,-3.87521 2.10647,-5.43667 l -.7071,-.7071 z "/>
<path style="fill:url(#linearGradient7170);fill-opacity:1" id="path2678" d="m 15.5938,-5.9062 l .7812,2.1875 .7071,.7071 -.7812,-2.1875 -.7071,-.7071 z "/>
<path style="fill:url(#linearGradient7170);fill-opacity:1" id="path2680" d="m 16.375,-3.7188 h -0.65625 l .7071,.7071 h 0.65625 l -.7071,-.7071 z "/>
<path style="fill:url(#linearGradient7170);fill-opacity:1" id="path2684" d="m 14.875,-5.9688 h -4.3125 l .7071,.7071 h 4.3125 l -.7071,-.7071 z "/>
<path style="fill:url(#linearGradient7170);fill-opacity:1" id="path2686" d="m 10.5625,-5.9688 l -.8125,2.2188 .7071,.7071 .8125,-2.2188 -.7071,-.7071 z "/>
<path style="fill:url(#linearGradient6533);fill-opacity:1" id="path2690" d="m 9.1875,-3.75 l 3.0938,-8.1562 .7071,.7071 -3.0938,8.1562 -.7071,-.7071 z "/>
<path style="fill:url(#linearGradient6547);fill-opacity:1" id="path2660" d="m 10.8125,-5.6875 h 3.9375 l .7071,.7071 h -3.9375 l -.7071,-.7071 z "/>
<path style="fill:url(#linearGradient6549);fill-opacity:1" id="path2682" d="m 15.7188,-3.7188 l -.8438,-2.25 .7071,.7071 .8438,2.25 -.7071,-.7071 z "/>
<path style="fill:url(#linearGradient7170);fill-opacity:1" id="path2688" d="m 9.75,-3.75 h -0.5625 l .7071,.7071 h 0.5625 l -.7071,-.7071 z "/>
<path style="fill:url(#linearGradient6535);fill-opacity:1" id="path2692" d="m 12.2812,-11.9062 l 3.9375,-.0625 .7071,.7071 -3.9375,.0625 -.7071,-.7071 z "/>
<path style="fill:url(#linearGradient7170);fill-opacity:1" id="path2694" d="m 13.5938,-11.375 l 1.8438,4.9375 .7071,.7071 -1.8438,-4.9375 -.7071,-.7071 z "/>
<path style="fill:url(#linearGradient7170);fill-opacity:1" id="path2698" d="m 17.2965,-10.6947 c -0.42497,-0.424971 -1.00403,-0.697547 -1.70276,-0.680311 l .7071,.7071 c 0.698733,-0.017236 1.27779,0.255339 1.70276,0.68031 l -.7071,-.7071 z "/>
<path style="fill:url(#linearGradient7170);fill-opacity:1" id="path2700" d="m 15.5938,-11.375 h -2 l .7071,.7071 h 2 l -.7071,-.7071 z "/>
<path style="fill:url(#linearGradient7170);fill-opacity:1" id="path2702" d="m 12.5,-11.25 l -1.7812,4.875 .7071,.7071 1.7812,-4.875 -.7071,-.7071 z "/>
<path style="fill:url(#linearGradient7170);fill-opacity:1" id="path2704" d="m 10.7188,-6.375 l 4,.0625 .7071,.7071 -4,-.0625 -.7071,-.7071 z "/>
<path style="fill:url(#linearGradient7170);fill-opacity:1" id="path2706" d="m 14.7188,-6.3125 l -1.75,-4.9375 .7071,.7071 1.75,4.9375 -.7071,-.7071 z "/>
<path style="fill:url(#linearGradient7170);fill-opacity:1" id="path2708" d="m 12.9688,-11.25 h -0.46875 l .7071,.7071 h 0.46875 l -.7071,-.7071 z "/>
<path style="fill:url(#linearGradient7170);fill-opacity:1" id="path2710" d="m 13.9688,-11.125 h 1.59375 l .7071,.7071 h -1.59375 l -.7071,-.7071 z "/>
<path style="fill:url(#linearGradient7170);fill-opacity:1" id="path2712" d="m 15.5625,-11.125 c 0.700736,-0.017285 1.24514,0.227017 1.62661,0.608484 l .7071,.7071 c -0.381467,-0.381467 -0.925875,-0.62577 -1.62661,-0.608484 l -.7071,-.7071 z "/>
<path style="fill:url(#linearGradient6527);fill-opacity:1" id="path2714" d="m 17.1891,-10.5165 c 1.22681,1.22681 0.768345,3.8723 -1.59536,3.79777 l .7071,.7071 c 2.3637,0.0745359 2.82217,-2.57095 1.59536,-3.79777 l -.7071,-.7071 z "/>
<path style="fill:url(#linearGradient7170);fill-opacity:1" id="path2716" d="m 15.5938,-6.7188 l -1.625,-4.4062 .7071,.7071 1.625,4.4062 -.7071,-.7071 z "/>
<path style="fill:url(#linearGradient6529);fill-opacity:1" id="path2696" d="m 15.4375,-6.4375 c 2.99704,0.0746022 3.23087,-2.88533 1.85901,-4.25719 l .7071,.7071 c 1.37186,1.37186 1.13803,4.33179 -1.85901,4.25719 l -.7071,-.7071 z "/>
<path style="fill:url(#linearGradient6531);fill-opacity:1" id="path2722" d="m 11.1562,-6.6562 l 1.5938,-4.375 .7071,.7071 -1.5938,4.375 -.7071,-.7071 z "/>
<path style="fill:url(#linearGradient7170);fill-opacity:1" id="path2718" d="m 12.75,-11.0312 l 1.625,4.375 .7071,.7071 -1.625,-4.375 -.7071,-.7071 z "/>
<path style="fill:url(#linearGradient7170);fill-opacity:1" id="path2720" d="m 14.375,-6.6562 h -3.21875 l .7071,.7071 h 3.21875 l -.7071,-.7071 z "/>
<path style="fill:url(#linearGradient6525);fill-opacity:1" id="path2670" d="m 15.9688,-5.6875 c 3.26626,0.0625218 3.64983,-4.13381 1.95162,-5.83203 l .7071,.7071 c 1.69821,1.69821 1.31464,5.89455 -1.95162,5.83203 l -.7071,-.7071 z "/>
<path style="fill:url(#linearGradient6539);fill-opacity:1" id="path2668" d="m 16.7812,-3.4375 l -.8125,-2.25 .7071,.7071 .8125,2.25 -.7071,-.7071 z "/>
<path style="fill:url(#linearGradient6541);fill-opacity:1" id="path2666" d="m 15.5312,-3.4375 h 1.25 l .7071,.7071 h -1.25 l -.7071,-.7071 z "/>
<path style="fill:url(#linearGradient6543);fill-opacity:1" id="path2656" d="m 8.75,-3.4375 h 1.25 l .7071,.7071 h -1.25 l -.7071,-.7071 z "/>
<path style="fill:url(#linearGradient6545);fill-opacity:1" id="path2658" d="m 10,-3.4375 l .8125,-2.25 .7071,.7071 -.8125,2.25 -.7071,-.7071 z "/>
</g>
<path style="font-size:12px;font-style:normal;font-weight:normal;fill:#333333;fill-opacity:1;stroke:none;stroke-width:1px;stroke-linecap:butt;stroke-linejoin:miter;stroke-opacity:1;font-family:Bitstream Vera Sans" id="path2505" d="m 16.1875,-12.1752 l -4.0938,.0312 -3.3438,8.75 h 1.25 l .8125,-2.25 h 3.9375 l .7812,2.2188 v 0.03125 h 1.25 l -.8125,-2.25 c 4.11555,0.0787787 3.65441,-6.60401 0.21875,-6.53125 z  m .0312,.25 c 3.04403,0.014271 3.49055,6.14128 -0.625,6.0625 l .7812,2.1875 h -0.65625 l -.8438,-2.25 h -4.3125 l -.8125,2.2188 h -0.5625 l 3.0938,-8.1563 3.9375,-.0625 z  m -2.625,.5938 l 1.8438,4.9375 c 3.92545,0.0977123 3.11058,-5.01038 0.15625,-4.9375 h -2 z  m -1.0938,.125 l -1.7812,4.875 4,.0625 -1.75,-4.9375 h -0.46875 z  m 1.4688,.125 h 1.59375 c 2.95433,-0.072876 3.12993,4.50396 0.03125,4.40625 l -1.625,-4.4063 z  m -1.2188,.0938 l 1.625,4.375 h -3.21875 l 1.5938,-4.375 z "/>
</g>
<path sodipodi:nodetypes="csssccccccssscccsssssssccsssssssccsssssssccssssssscccccccsccccsccccccccccsssccccsssccccccssssscccccccssssscccsssccssscccccccsssssssccsssssssccccsssssssssssssssccssssssssssssssscccsssssssccsssccsssccssssssscccccsssccccsssccccsssccccccsssccssssscccccccssssscccsssccssscccccccccccccccccccccccsssssssccsssssssccsssssssccsssssssccsssccccsssccccsssccccccsssc" style="font-size:4px;font-style:normal;font-weight:normal;fill:#d40000;fill-opacity:1;stroke:none;stroke-width:1px;stroke-linecap:butt;stroke-linejoin:miter;stroke-opacity:1;font-family:Bitstream Vera Sans" id="text2170" d="m 6.0871,-4.0239 c -0.010522,-0.011146 -0.022062,-0.019197 -0.03462,-0.024152 -0.012219,-0.005572 -0.025796,-0.008359 -0.04073,-0.00836 -0.052948,1e-06 -0.093678,0.031584 -0.122188,0.094748 -0.028172,0.062547 -0.042257,0.15265 -0.042257,0.27031 v 0.548052 h -0.094187 v -1.04037 h 0.094187 v 0.161628 c 0.019686,-0.063164 0.045311,-0.109918 0.076877,-0.140264 0.031565,-0.030961 0.069918,-0.046444 0.115061,-0.046445 0.006448,1e-06 0.013576,0.000931 0.021383,0.002787 0.007806,0.00124 0.016461,0.003407 0.025965,0.006502 l .0005,.1756 m .2978,-.0399 c -0.050233,1e-06 -0.089944,0.035918 -0.119134,0.107752 -0.029189,0.071217 -0.043784,0.169061 -0.043784,0.293533 0,0.124473 0.014425,0.222627 0.043275,0.294462 0.029189,0.071216 0.06907,0.106824 0.119643,0.106824 0.049895,0 0.089436,-0.035918 0.118626,-0.107753 0.029189,-0.071835 0.043784,-0.169679 0.043784,-0.293533 0,-0.123233 -0.014595,-0.220768 -0.043784,-0.292604 -0.02919,-0.072453 -0.068731,-0.10868 -0.118626,-0.108681 m 0,-.1449 c 0.08146,1e-06 0.145439,0.048304 0.191939,0.144909 0.046499,0.096606 0.069749,0.230368 0.06975,0.401285 -1e-06,0.170299 -0.023251,0.304061 -0.06975,0.401286 -0.0465,0.096605 -0.110479,0.144908 -0.191939,0.144908 -0.081799,0 -0.145948,-0.048303 -0.192447,-0.144908 -0.04616,-0.097225 -0.06924,-0.230987 -0.06924,-0.401286 0,-0.170917 0.02308,-0.304679 0.06924,-0.401285 0.046499,-0.096605 0.110648,-0.144908 0.192447,-0.144909 m .6374,.1449 c -0.050233,1e-06 -0.089945,0.035918 -0.119134,0.107752 -0.02919,0.071217 -0.043784,0.169061 -0.043784,0.293533 0,0.124473 0.014425,0.222627 0.043275,0.294462 0.029189,0.071216 0.06907,0.106824 0.119643,0.106824 0.049893,0 0.089435,-0.035918 0.118625,-0.107753 0.029189,-0.071835 0.043784,-0.169679 0.043784,-0.293533 0,-0.123233 -0.014595,-0.220768 -0.043784,-0.292604 -0.02919,-0.072453 -0.068732,-0.10868 -0.118625,-0.108681 m 0,-.1449 c 0.081459,1e-06 0.145438,0.048304 0.191938,0.144909 0.046499,0.096606 0.069749,0.230368 0.069749,0.401285 0,0.170299 -0.02325,0.304061 -0.069749,0.401286 -0.0465,0.096605 -0.110479,0.144908 -0.191938,0.144908 -0.081799,0 -0.145948,-0.048303 -0.192447,-0.144908 -0.046161,-0.097225 -0.06924,-0.230987 -0.06924,-0.401286 0,-0.170917 0.023079,-0.304679 0.06924,-0.401285 0.046499,-0.096605 0.110648,-0.144908 0.192447,-0.144909 m .5091,-.2703 v 0.295391 h 0.192955 v 0.132832 h -0.192955 v 0.564772 c -1e-06,0.08484 0.006278,0.139336 0.018836,0.163487 0.012898,0.024152 0.038863,0.036228 0.077896,0.036227 h 0.096223 v 0.143051 h -0.096223 c -0.072296,0 -0.122188,-0.024461 -0.149681,-0.073383 -0.027492,-0.049542 -0.041238,-0.139335 -0.041238,-0.269382 v -0.564772 h -0.068732 v -0.132832 h 0.068732 v -0.295391 h 0.094187 m .4236,.1031 v 0.521114 h 0.129317 c 0.047857,0 0.084853,-0.022603 0.110988,-0.06781 0.026134,-0.045206 0.039202,-0.109609 0.039202,-0.193211 0,-0.082981 -0.013068,-0.147075 -0.039202,-0.192283 -0.026135,-0.045205 -0.063131,-0.067809 -0.110988,-0.06781 h -0.129317 m -.1028,-.1542 h 0.232159 c 0.085192,1e-06 0.149511,0.0353 0.192956,0.105894 0.043784,0.069979 0.065676,0.172777 0.065676,0.308396 0,0.136859 -0.021892,0.240276 -0.065676,0.310252 -0.043445,0.069978 -0.107764,0.104967 -0.192956,0.104967 h -0.129317 v 0.55734 h -0.102842 v -1.38685 m .8375,.8639 c -0.075689,0 -0.128129,0.015791 -0.157318,0.047374 -0.02919,0.031583 -0.043784,0.085459 -0.043784,0.161628 0,0.060689 0.010861,0.108991 0.032583,0.144909 0.022062,0.035298 0.05193,0.052947 0.089606,0.052947 0.05193,0 0.093508,-0.03344 0.124734,-0.100321 0.031565,-0.0675 0.047348,-0.156984 0.047348,-0.268453 v -0.038084 h -0.093169 m .1868,-.0706 v 0.593568 h -0.093678 v -0.157913 c -0.021383,0.063165 -0.048027,0.10992 -0.079932,0.140264 -0.031905,0.029725 -0.070937,0.044587 -0.117097,0.044587 -0.05838,0 -0.104879,-0.029725 -0.139499,-0.089175 -0.034281,-0.060068 -0.051421,-0.140263 -0.051421,-0.240585 0,-0.117041 0.021383,-0.205287 0.064149,-0.264737 0.043105,-0.059448 0.107254,-0.089173 0.192447,-0.089174 h 0.131353 v -0.01672 c 0,-0.078646 -0.014256,-0.139335 -0.042766,-0.182065 -0.028172,-0.043347 -0.067883,-0.065022 -0.119134,-0.065023 -0.032584,1e-06 -0.064319,0.007123 -0.095206,0.021365 -0.030886,0.014244 -0.060585,0.035608 -0.089096,0.064094 v -0.157913 c 0.034281,-0.024151 0.067544,-0.04211 0.099788,-0.053876 0.032244,-0.012385 0.06364,-0.018578 0.094187,-0.018579 0.082477,1e-06 0.144081,0.039016 0.184811,0.117042 0.040729,0.078028 0.061093,0.196309 0.061094,0.35484 m .1935,-.8518 h 0.093678 v 1.44537 h -0.093678 v -1.44537 m .6472,.9201 c -1e-06,0.088556 0.012049,0.158223 0.036147,0.209003 0.024098,0.050161 0.057191,0.075241 0.099278,0.075241 0.041749,0 0.074502,-0.02539 0.098261,-0.07617 0.024098,-0.05078 0.036148,-0.120138 0.036148,-0.208074 0,-0.086697 -0.012219,-0.155435 -0.036657,-0.206216 -0.024438,-0.051399 -0.057361,-0.077098 -0.09877,-0.077099 -0.041069,1e-06 -0.073823,0.025391 -0.09826,0.07617 -0.024098,0.050781 -0.036148,0.119829 -0.036147,0.207145 m .2775,.2777 c -0.020365,0.047683 -0.043785,0.082981 -0.070259,0.105894 -0.026135,0.022294 -0.056683,0.033441 -0.091642,0.033441 -0.05838,0 -0.105897,-0.038395 -0.142554,-0.115184 -0.036317,-0.077408 -0.054476,-0.178039 -0.054476,-0.301893 0,-0.123853 0.018328,-0.224483 0.054986,-0.301893 0.036656,-0.077407 0.084004,-0.116111 0.142044,-0.116112 0.034959,1e-06 0.065677,0.011767 0.092151,0.035298 0.026474,0.022914 0.049724,0.057902 0.06975,0.104966 v -0.121686 h 0.0728039 v 0.683671 c 0.049554,-0.013624 0.088247,-0.054805 0.116079,-0.123544 0.028171,-0.069357 0.042256,-0.158841 0.042257,-0.268452 -1e-06,-0.066262 -0.005431,-0.128498 -0.016292,-0.186709 -0.010522,-0.058211 -0.026644,-0.112087 -0.048366,-0.161629 -0.0353,-0.081123 -0.078405,-0.14305 -0.129316,-0.18578 -0.0505739,-0.043348 -0.105728,-0.065022 -0.165465,-0.065024 -0.041748,2e-06 -0.081799,0.010219 -0.120153,0.030654 -0.038354,0.019818 -0.073822,0.049543 -0.106406,0.089174 -0.053288,0.063167 -0.095035,0.146149 -0.125243,0.248946 -0.029869,0.10218 -0.044803,0.213029 -0.044803,0.332547 0,0.098464 0.009674,0.190734 0.02902,0.276812 0.019686,0.086079 0.048027,0.161939 0.085023,0.227581 0.035638,0.064404 0.076877,0.113326 0.123716,0.146766 0.046839,0.03406 0.096902,0.05109 0.150191,0.05109 0.043784,0 0.08672,-0.013624 0.128808,-0.040872 0.0424259,-0.026628 0.0812889,-0.065023 0.116588,-0.115184 l .0458,.1031 c -0.042427,0.060069 -0.088757,0.105895 -0.138989,0.137478 -0.0498949,0.032201 -0.100637,0.048302 -0.152228,0.048303 -0.062792,-1e-06 -0.12202,-0.020436 -0.177683,-0.061308 -0.055664,-0.040252 -0.105218,-0.099083 -0.148663,-0.176491 -0.043445,-0.077408 -0.076538,-0.166892 -0.099278,-0.268452 -0.022741,-0.102179 -0.034112,-0.21179 -0.034111,-0.328831 -1e-06,-0.112706 0.01154,-0.220149 0.03462,-0.322329 0.02308,-0.102178 0.056003,-0.191972 0.098769,-0.269381 0.043784,-0.078646 0.094356,-0.138715 0.151718,-0.180207 0.05736,-0.042109 0.118115,-0.063164 0.182264,-0.063165 0.071957,1e-06 0.138651,0.026939 0.200086,0.080814 0.061772,0.053878 0.113532,0.130357 0.155281,0.229439 0.025455,0.060689 0.044802,0.126641 0.05804,0.197856 0.013575,0.071216 0.020363,0.144909 0.020365,0.221078 -2e-06,0.162868 -0.026985,0.291365 -0.080951,0.385494 -0.053967,0.094129 -0.128468,0.143051 -0.223503,0.146766 v -0.14305 m .8507,-.3112 c -1e-06,-0.123853 -0.014086,-0.219839 -0.042257,-0.28796 -0.027832,-0.068118 -0.067034,-0.102178 -0.117607,-0.102179 -0.050233,1e-06 -0.089435,0.034061 -0.117606,0.102179 -0.027832,0.068121 -0.041748,0.164107 -0.041748,0.28796 0,0.123234 0.013916,0.218911 0.041748,0.28703 0.028171,0.06812 0.067373,0.10218 0.117606,0.102179 0.050573,1e-06 0.089775,-0.034059 0.117607,-0.102179 0.028171,-0.068119 0.042256,-0.163796 0.042257,-0.28703 m .0937,.4031 c -1e-06,0.17711 -0.021553,0.308704 -0.064658,0.394782 -0.043106,0.086698 -0.109122,0.130046 -0.198048,0.130047 -0.032923,-1e-06 -0.063979,-0.004645 -0.093169,-0.013934 -0.029189,-0.00867 -0.05753,-0.022294 -0.085023,-0.040872 v -0.166273 c 0.027493,0.027248 0.054646,0.047374 0.08146,0.060379 0.026813,0.013004 0.054136,0.019506 0.081968,0.019507 0.061433,-1e-06 0.107424,-0.029416 0.137971,-0.088246 0.030547,-0.058211 0.04582,-0.146457 0.045821,-0.264737 v -0.08453 c -0.019347,0.061308 -0.044124,0.107134 -0.074331,0.137478 -0.030209,0.030344 -0.066356,0.045516 -0.108443,0.045516 -0.069919,0 -0.126262,-0.048613 -0.169028,-0.145837 -0.042766,-0.097225 -0.064149,-0.226033 -0.064149,-0.386423 0,-0.161009 0.021383,-0.290126 0.064149,-0.387352 0.042766,-0.097224 0.099109,-0.145837 0.169028,-0.145838 0.042087,1e-06 0.078234,0.015173 0.108443,0.045517 0.030207,0.030345 0.054984,0.076171 0.074331,0.137477 v -0.157913 h 0.093678 v 0.911252 m .6369,-.7115 c 0.023419,-0.076788 0.05142,-0.13345 0.084004,-0.169988 0.032584,-0.036536 0.070937,-0.054805 0.115061,-0.054806 0.059397,1e-06 0.105218,0.038087 0.137463,0.114256 0.032243,0.075551 0.048365,0.183303 0.048366,0.323257 v 0.627937 h -0.094187 v -0.622364 c -1e-06,-0.099701 -0.009674,-0.173703 -0.02902,-0.222007 -0.019347,-0.048302 -0.048876,-0.072453 -0.088587,-0.072454 -0.048536,1e-06 -0.08689,0.029416 -0.115061,0.088245 -0.028171,0.058832 -0.042257,0.139026 -0.042257,0.240585 v 0.587995 h -0.094187 v -0.622364 c 0,-0.10032 -0.009673,-0.174323 -0.02902,-0.222007 -0.019346,-0.048302 -0.049215,-0.072453 -0.089605,-0.072454 -0.047857,1e-06 -0.085871,0.029725 -0.114042,0.089174 -0.028172,0.058831 -0.042258,0.138717 -0.042257,0.239656 v 0.587995 h -0.094187 v -1.04037 h 0.094187 v 0.161628 c 0.021382,-0.063783 0.047008,-0.110847 0.076877,-0.141192 0.029868,-0.030344 0.065336,-0.045516 0.106406,-0.045517 0.041408,1e-06 0.076537,0.019199 0.105388,0.057592 0.029189,0.038396 0.050741,0.09413 0.064658,0.167202 m .8314,.3177 c -0.075689,0 -0.128129,0.015791 -0.157318,0.047374 -0.029189,0.031583 -0.043784,0.085459 -0.043784,0.161628 0,0.060689 0.010861,0.108991 0.032584,0.144909 0.022061,0.035298 0.05193,0.052947 0.089605,0.052947 0.05193,0 0.093508,-0.03344 0.124734,-0.100321 0.031565,-0.0675 0.047348,-0.156984 0.047348,-0.268453 v -0.038084 h -0.093169 m .1868,-.0706 v 0.593568 h -0.093678 v -0.157913 c -0.021383,0.063165 -0.048027,0.10992 -0.079932,0.140264 -0.031905,0.029725 -0.070937,0.044587 -0.117097,0.044587 -0.058379,0 -0.104879,-0.029725 -0.139499,-0.089175 -0.034281,-0.060068 -0.051421,-0.140263 -0.051421,-0.240585 0,-0.117041 0.021383,-0.205287 0.064149,-0.264737 0.043105,-0.059448 0.107254,-0.089173 0.192447,-0.089174 h 0.131353 v -0.01672 c 0,-0.078646 -0.014256,-0.139335 -0.042766,-0.182065 -0.028171,-0.043347 -0.067883,-0.065022 -0.119134,-0.065023 -0.032584,1e-06 -0.064319,0.007123 -0.095205,0.021365 -0.030887,0.014244 -0.060586,0.035608 -0.089096,0.064094 v -0.157913 c 0.03428,-0.024151 0.067543,-0.04211 0.099787,-0.053876 0.032244,-0.012385 0.06364,-0.018578 0.094187,-0.018579 0.082477,1e-06 0.144081,0.039016 0.184811,0.117042 0.040729,0.078028 0.061094,0.196309 0.061094,0.35484 m .1935,-.4468 h 0.093678 v 1.04037 h -0.093678 v -1.04037 m 0,-.405 h 0.093678 v 0.216434 h -0.093678 v -0.216434 m .2892,0 h 0.093678 v 1.44537 h -0.093678 v -1.44537 m .3024,1.2094 h 0.107424 v 0.235941 h -0.107424 v -0.235941 m .7291,-.7645 v 0.15977 c -0.026474,-0.026627 -0.053118,-0.046444 -0.079931,-0.059449 -0.026475,-0.013623 -0.053289,-0.020435 -0.080441,-0.020436 -0.060756,1e-06 -0.107934,0.035299 -0.141536,0.105895 -0.033602,0.069978 -0.050403,0.168441 -0.050403,0.29539 0,0.126951 0.016801,0.225724 0.050403,0.29632 0.033602,0.069977 0.08078,0.104966 0.141536,0.104966 0.027152,0 0.053966,-0.006503 0.080441,-0.019507 0.026813,-0.013624 0.053457,-0.03375 0.079931,-0.060379 v 0.157913 c -0.026135,0.022294 -0.053288,0.039014 -0.081459,0.050161 -0.027832,0.011146 -0.057531,0.01672 -0.089096,0.01672 -0.085872,0 -0.154094,-0.049231 -0.204666,-0.147695 -0.050573,-0.098463 -0.075859,-0.231296 -0.075859,-0.398499 0,-0.169678 0.025456,-0.30313 0.076368,-0.400356 0.051251,-0.097224 0.12134,-0.145837 0.210267,-0.145838 0.028849,1e-06 0.05702,0.005575 0.084514,0.016721 0.027492,0.010528 0.054135,0.026629 0.079931,0.048303 m .3849,.0799 c -0.050234,1e-06 -0.089945,0.035918 -0.119134,0.107752 -0.02919,0.071217 -0.043785,0.169061 -0.043784,0.293533 -1e-06,0.124473 0.014424,0.222627 0.043275,0.294462 0.029189,0.071216 0.06907,0.106824 0.119643,0.106824 0.049893,0 0.089435,-0.035918 0.118625,-0.107753 0.029189,-0.071835 0.043784,-0.169679 0.043784,-0.293533 0,-0.123233 -0.014595,-0.220768 -0.043784,-0.292604 -0.02919,-0.072453 -0.068732,-0.10868 -0.118625,-0.108681 m 0,-.1449 c 0.081458,1e-06 0.145438,0.048304 0.191938,0.144909 0.046499,0.096606 0.069749,0.230368 0.069749,0.401285 0,0.170299 -0.02325,0.304061 -0.069749,0.401286 -0.0465,0.096605 -0.11048,0.144908 -0.191938,0.144908 -0.081799,0 -0.145948,-0.048303 -0.192448,-0.144908 -0.04616,-0.097225 -0.06924,-0.230987 -0.06924,-0.401286 0,-0.170917 0.02308,-0.304679 0.06924,-0.401285 0.0465,-0.096605 0.110649,-0.144908 0.192448,-0.144909 m .8604,.2248 c 0.023419,-0.076788 0.05142,-0.13345 0.084005,-0.169988 0.032583,-0.036536 0.070936,-0.054805 0.115061,-0.054806 0.059396,1e-06 0.105217,0.038087 0.137462,0.114256 0.032244,0.075551 0.048366,0.183303 0.048366,0.323257 v 0.627937 h -0.094187 v -0.622364 c 0,-0.099701 -0.009674,-0.173703 -0.029019,-0.222007 -0.019348,-0.048302 -0.048877,-0.072453 -0.088587,-0.072454 -0.048537,1e-06 -0.086891,0.029416 -0.115061,0.088245 -0.028172,0.058832 -0.042258,0.139026 -0.042257,0.240585 v 0.587995 h -0.094187 v -0.622364 c -1e-06,-0.10032 -0.009674,-0.174323 -0.02902,-0.222007 -0.019347,-0.048302 -0.049215,-0.072453 -0.089605,-0.072454 -0.047858,1e-06 -0.085872,0.029725 -0.114043,0.089174 -0.028172,0.058831 -0.042257,0.138717 -0.042257,0.239656 v 0.587995 h -0.094187 v -1.04037 h 0.094187 v 0.161628 c 0.021383,-0.063783 0.047009,-0.110847 0.076877,-0.141192 0.029868,-0.030344 0.065337,-0.045516 0.106406,-0.045517 0.041408,1e-06 0.076537,0.019199 0.105388,0.057592 0.029189,0.038396 0.050742,0.09413 0.064658,0.167202"/>
</g>
</g>
<g id="g2934" transform="matrix(0.889364,-0.104939,-5.307796e-2,0.877142,552.29933,125.58381)"/>
<g id="g6973" transform="matrix(0.889364,-0.104939,-5.307796e-2,0.877142,504.44851,-26.068114)"/>
<g id="g4737">
<g id="g4648" transform="matrix(1.0513865,0,0,1.0513865,-5.5801286,-10.552153)">
<rect width="232.32628" x="11.285244" y="25.072126" rx="8.9315596" height="178.39662" ry="8.9315596" style="fill:url(#linearGradient3990);fill-opacity:1;stroke:url(#linearGradient3992);stroke-width:1.5;stroke-linecap:round;stroke-linejoin:round;stroke-miterlimit:4;stroke-dasharray:none;stroke-dashoffset:0;stroke-opacity:1" id="rect1873"/>
<rect width="216.2587" x="18.874535" y="32.897686" height="151.15051" style="fill:url(#linearGradient4065);fill-opacity:1;stroke:none;stroke-width:0;stroke-linecap:round;stroke-linejoin:round;stroke-miterlimit:4;stroke-dasharray:none;stroke-opacity:1" id="rect3394"/>
<rect width="214.17465" x="20.63538" y="32.879372" height="153.72137" style="fill:url(#linearGradient4062);fill-opacity:1;stroke:none;stroke-width:0;stroke-linecap:round;stroke-linejoin:round;stroke-miterlimit:4;stroke-dasharray:none;stroke-opacity:1" id="rect3376"/>
<path sodipodi:nodetypes="ccccc" style="fill:url(#linearGradient4056);fill-opacity:1;stroke:none;stroke-width:3.70000005;stroke-linecap:round;stroke-linejoin:round;stroke-miterlimit:4;stroke-opacity:1" id="path3443" d="m 234.0701,185.1175 h -214.236 l 1.5413,-33.5506 c 76.3417,0.65081 137.016,1.18449 214.236,0 l -1.5413,33.5506 z "/>
<path sodipodi:nodetypes="cccccccccc" style="fill:url(#linearGradient4040);fill-opacity:1;stroke:#00000f;stroke-width:2.58392072;stroke-miterlimit:4;stroke-dasharray:none;stroke-opacity:1" id="rect5322" d="m 19.2177,32.548 v 154.006 h 216.427 v -154.006 h -216.427 z  m 4.2187,3.8529 l 207.9901,-0 .2943,146.3005 -208.2843,.2943 -0,-146.5947 z "/>
<rect width="20.04933" x="22.810289" y="36.807285" height="146.18407" style="fill:url(#linearGradient4037);fill-opacity:1;stroke:none;stroke-width:0;stroke-miterlimit:4;stroke-dasharray:none" id="rect7390"/>
<rect width="20.637823" x="-232.10327" y="35.87048" height="147.06683" style="fill:url(#linearGradient4034);fill-opacity:1;stroke:none;stroke-width:0;stroke-miterlimit:4;stroke-dasharray:none" id="rect7380" transform="scale(-1,1)"/>
<g style="opacity:0.39534882" id="g5823" transform="matrix(1.1458026,0,0,1.1458026,-17.988368,-14.659077)">
<path sodipodi:nodetypes="ccccc" style="fill:#ffffff;fill-opacity:0.3068783;stroke:none;stroke-width:0;stroke-linecap:round;stroke-linejoin:round;stroke-miterlimit:4;stroke-dashoffset:0;stroke-opacity:1" id="rect2794" d="m 64.6837,47.0732 h 32.9393 v 48.6715 h -37.8556 c 1.03352,-16.4256 0.284885,-33.4452 4.91631,-48.6715 z "/>
<path sodipodi:nodetypes="ccccc" style="fill:#ffffff;fill-opacity:0.3068783;stroke:none;stroke-width:0;stroke-linecap:round;stroke-linejoin:round;stroke-miterlimit:4;stroke-dashoffset:0;stroke-opacity:1" id="path2797" d="m 136.365,47.0732 h -32.9393 v 48.6715 h 37.8556 c -1.03352,-16.4256 -0.28489,-33.4452 -4.91631,-48.6715 z "/>
<path sodipodi:nodetypes="ccccc" style="fill:#ffffff;fill-opacity:0.2962963;stroke:none;stroke-width:0;stroke-linecap:round;stroke-linejoin:round;stroke-miterlimit:4;stroke-dashoffset:0;stroke-opacity:1" id="path2799" d="m 64.8811,147.9544 h 32.9393 v -48.6714 h -37.8556 c 1.03352,16.4256 0.284886,33.4452 4.91631,48.6714 z "/>
<path sodipodi:nodetypes="ccccc" style="fill:#ffffff;fill-opacity:0.2962963;stroke:none;stroke-width:0;stroke-linecap:round;stroke-linejoin:round;stroke-miterlimit:4;stroke-dashoffset:0;stroke-opacity:1" id="path2801" d="m 136.1676,148.3456 h -32.9393 v -48.6715 h 37.8556 c -1.03352,16.4256 -0.28489,33.4452 -4.91631,48.6715 z "/>
</g>
<g id="g5806" transform="matrix(1.1458026,0,0,1.1458026,-24.565938,-6.7636536)">
<path sodipodi:type="arc" sodipodi:cx="-8.1058598" sodipodi:cy="-17.784498" sodipodi:rx="6.4120984" style="fill:url(#linearGradient2823);fill-opacity:1;stroke:url(#linearGradient5813);stroke-width:2;stroke-linecap:round;stroke-linejoin:round;stroke-miterlimit:4;stroke-dasharray:none;stroke-dashoffset:0;stroke-opacity:1" sodipodi:ry="6.4120984" id="path2803" d="m -1.6938,-17.7845 a 6.4121,6.4121 0 1,1 -12.8242,0 6.4121,6.4121 0 1,1 12.8242,0 z " transform="matrix(0.6389255,0,0,0.6389255,207.56417,187.53285)"/>
<path sodipodi:type="arc" sodipodi:cx="-8.1058598" sodipodi:cy="-17.784498" style="fill:url(#linearGradient2823);fill-opacity:1;stroke:url(#linearGradient5813);stroke-width:2;stroke-linecap:round;stroke-linejoin:round;stroke-miterlimit:4;stroke-dasharray:none;stroke-dashoffset:0;stroke-opacity:1" sodipodi:rx="6.4120984" id="path2821" sodipodi:ry="6.4120984" d="m -1.6938,-17.7845 a 6.4121,6.4121 0 1,1 -12.8242,0 6.4121,6.4121 0 1,1 12.8242,0 z " transform="matrix(0.6389255,0,0,0.6389255,219.95186,187.33546)"/>
<path sodipodi:type="arc" sodipodi:cx="-8.1058598" sodipodi:cy="-17.784498" sodipodi:rx="6.4120984" style="fill:url(#linearGradient2823);fill-opacity:1;stroke:url(#linearGradient5813);stroke-width:2;stroke-linecap:round;stroke-linejoin:round;stroke-miterlimit:4;stroke-dasharray:none;stroke-dashoffset:0;stroke-opacity:1" sodipodi:ry="6.4120984" id="path2827" d="m -1.6938,-17.7845 a 6.4121,6.4121 0 1,1 -12.8242,0 6.4121,6.4121 0 1,1 12.8242,0 z " transform="matrix(0.6389255,0,0,0.6389255,194.87876,187.8271)"/>
</g>
<path sodipodi:nodetypes="ccccc" style="fill:url(#linearGradient4059);fill-opacity:1;stroke:none;stroke-width:3.70000005;stroke-linecap:round;stroke-linejoin:round;stroke-miterlimit:4;stroke-opacity:1" id="rect3432" d="m 21.5212,35.5431 l 210.192,1.177 .5885,59.9906 c -89.8425,36.0797 -134.949,-59.3643 -210.192,2.64828 l -.5885,-63.8159 z "/>
</g>
<g id="g3101" transform="matrix(1.2135325,0,0,1.2135325,2.632128,42.885303)">
<g id="g2520" transform="matrix(0.9999584,-9.118774e-3,9.118774e-3,0.9999584,7.4930597,96.306588)">
<rect width="142.02917" x="42.85482" y="11.463971" rx="71.0146" height="63.052284" ry="27.510157" style="fill:url(#linearGradient3149);fill-opacity:1;stroke:url(#linearGradient3151);stroke-width:2.86697412;stroke-linecap:round;stroke-linejoin:round;stroke-miterlimit:4;stroke-dasharray:none;stroke-opacity:1" id="rect3557"/>
<rect width="142.02917" x="42.85482" y="11.463971" rx="71.0146" ry="26.775003" height="53.550007" style="fill:url(#radialGradient3153);fill-opacity:1;stroke:url(#linearGradient3155);stroke-width:1.91131616;stroke-linecap:round;stroke-linejoin:round;stroke-miterlimit:4;stroke-dasharray:none;stroke-opacity:1" id="rect3559"/>
<path sodipodi:nodetypes="ccscc" style="fill:none;fill-opacity:1;stroke:url(#linearGradient3157);stroke-width:0.95565808;stroke-linecap:round;stroke-linejoin:round;stroke-miterlimit:4;stroke-dasharray:none;stroke-opacity:1" id="rect3583" d="m 184.884,38.9741 v 8.03197 c 0,15.2406 -31.6725,27.5102 -71.0146,27.5102 -39.3421,0 -71.0146,-12.2695 -71.0146,-27.5102 v -8.03197"/>
</g>
<g id="g3047" transform="matrix(0.9999584,-9.118774e-3,9.118774e-3,0.9999584,7.4930597,82.645386)">
<rect width="142.02917" x="42.85482" y="11.463971" rx="71.0146" ry="27.510157" height="63.052284" style="fill:url(#linearGradient3149);fill-opacity:1;stroke:url(#linearGradient3151);stroke-width:2.86697412;stroke-linecap:round;stroke-linejoin:round;stroke-miterlimit:4;stroke-dasharray:none;stroke-opacity:1" id="rect3049"/>
<rect width="142.02917" x="42.85482" y="11.463971" rx="71.0146" height="53.550007" ry="26.775003" style="fill:url(#radialGradient3153);fill-opacity:1;stroke:url(#linearGradient3155);stroke-width:1.91131616;stroke-linecap:round;stroke-linejoin:round;stroke-miterlimit:4;stroke-dasharray:none;stroke-opacity:1" id="rect3051"/>
<path sodipodi:nodetypes="ccscc" style="fill:none;fill-opacity:1;stroke:url(#linearGradient3157);stroke-width:0.95565808;stroke-linecap:round;stroke-linejoin:round;stroke-miterlimit:4;stroke-dasharray:none;stroke-opacity:1" id="path3053" d="m 184.884,38.9741 v 8.03197 c 0,15.2406 -31.6725,27.5102 -71.0146,27.5102 -39.3421,0 -71.0146,-12.2695 -71.0146,-27.5102 v -8.03197"/>
</g>
<g id="g3065" transform="matrix(0.9999584,-9.118774e-3,9.118774e-3,0.9999584,8.0395078,68.437736)">
<rect width="142.02917" x="42.85482" y="11.463971" rx="71.0146" height="63.052284" ry="27.510157" style="fill:url(#linearGradient3149);fill-opacity:1;stroke:url(#linearGradient3151);stroke-width:2.86697412;stroke-linecap:round;stroke-linejoin:round;stroke-miterlimit:4;stroke-dasharray:none;stroke-opacity:1" id="rect3067"/>
<rect width="142.02917" x="42.85482" y="11.463971" rx="71.0146" ry="26.775003" height="53.550007" style="fill:url(#radialGradient3153);fill-opacity:1;stroke:url(#linearGradient3155);stroke-width:1.91131616;stroke-linecap:round;stroke-linejoin:round;stroke-miterlimit:4;stroke-dasharray:none;stroke-opacity:1" id="rect3069"/>
<path sodipodi:nodetypes="ccscc" style="fill:none;fill-opacity:1;stroke:url(#linearGradient3157);stroke-width:0.95565808;stroke-linecap:round;stroke-linejoin:round;stroke-miterlimit:4;stroke-dasharray:none;stroke-opacity:1" id="path3071" d="m 184.884,38.9741 v 8.03197 c 0,15.2406 -31.6725,27.5102 -71.0146,27.5102 -39.3421,0 -71.0146,-12.2695 -71.0146,-27.5102 v -8.03197"/>
</g>
<g id="g3083" transform="matrix(0.9999584,-9.118774e-3,9.118774e-3,0.9999584,7.4930597,54.776534)">
<rect width="142.02917" x="42.85482" y="11.463971" rx="71.0146" ry="27.510157" height="63.052284" style="fill:url(#linearGradient3149);fill-opacity:1;stroke:url(#linearGradient3151);stroke-width:2.86697412;stroke-linecap:round;stroke-linejoin:round;stroke-miterlimit:4;stroke-dasharray:none;stroke-opacity:1" id="rect3085"/>
<rect width="142.02917" x="42.85482" y="11.463971" rx="71.0146" height="53.550007" ry="26.775003" style="fill:url(#radialGradient3153);fill-opacity:1;stroke:url(#linearGradient3155);stroke-width:1.91131616;stroke-linecap:round;stroke-linejoin:round;stroke-miterlimit:4;stroke-dasharray:none;stroke-opacity:1" id="rect3087"/>
<path sodipodi:nodetypes="ccscc" style="fill:none;fill-opacity:1;stroke:url(#linearGradient3157);stroke-width:0.95565808;stroke-linecap:round;stroke-linejoin:round;stroke-miterlimit:4;stroke-dasharray:none;stroke-opacity:1" id="path3089" d="m 184.884,38.9741 v 8.03197 c 0,15.2406 -31.6725,27.5102 -71.0146,27.5102 -39.3421,0 -71.0146,-12.2695 -71.0146,-27.5102 v -8.03197"/>
</g>
</g>
</g>
</svg>
