<?xml version="1.0" encoding="UTF-8" standalone="no"?>
<!-- Created with Inkscape (http://www.inkscape.org/) -->
<svg xmlns:a="http://ns.adobe.com/AdobeSVGViewerExtensions/3.0/" xmlns:dc="http://purl.org/dc/elements/1.1/" xmlns:cc="http://creativecommons.org/ns#" xmlns:rdf="http://www.w3.org/1999/02/22-rdf-syntax-ns#" xmlns:svg="http://www.w3.org/2000/svg" xmlns="http://www.w3.org/2000/svg" xmlns:xlink="http://www.w3.org/1999/xlink" xmlns:sodipodi="http://sodipodi.sourceforge.net/DTD/sodipodi-0.dtd" xmlns:inkscape="http://www.inkscape.org/namespaces/inkscape" id="svg2" version="1.1" inkscape:version="0.92.5 (2060ec1f9f, 2020-04-08)" width="256" height="256" viewBox="0 0 256 256" sodipodi:docname="angelfish.svg">
 <metadata id="metadata8">
  <rdf:RDF>
   <cc:Work>
    <dc:format>image/svg+xml</dc:format>
    <dc:type rdf:resource="http://purl.org/dc/dcmitype/StillImage"/>
    <dc:title/>
   </cc:Work>
  </rdf:RDF>
 </metadata>
 <defs id="defs6">
  <linearGradient inkscape:collect="always" id="linearGradient1076">
   <stop id="stop1072" stop-color="#000000" stop-opacity="0.259"/>
   <stop offset="1" id="stop1074" stop-color="#000000" stop-opacity="0.02"/>
  </linearGradient>
  <linearGradient id="linearGradient1057" inkscape:collect="always">
   <stop stop-opacity="1" stop-color="#ffffff" id="stop1053"/>
   <stop stop-opacity="1" stop-color="#818181" id="stop1055" offset="1"/>
  </linearGradient>
  <linearGradient id="linearGradient1051" inkscape:collect="always">
   <stop stop-opacity="1" stop-color="#ffffff" id="stop1047"/>
   <stop stop-opacity="1" stop-color="#818181" id="stop1049" offset="1"/>
  </linearGradient>
  <linearGradient id="linearGradient1045" inkscape:collect="always">
   <stop stop-opacity="1" stop-color="#c1c1c1" id="stop1041"/>
   <stop stop-opacity="1" stop-color="#ffffff" id="stop1043" offset="1"/>
  </linearGradient>
  <linearGradient inkscape:collect="always" id="linearGradient4484">
   <stop id="stop4486" stop-color="#e2e2e2" stop-opacity="1"/>
   <stop offset="1" id="stop4488" stop-color="#717171" stop-opacity="1"/>
  </linearGradient>
  <linearGradient inkscape:collect="always" id="linearGradient4470">
   <stop id="stop4472" stop-color="#5c5c5c" stop-opacity="1"/>
   <stop offset="1" id="stop4474" stop-color="#c8c8c8" stop-opacity="1"/>
  </linearGradient>
  <linearGradient inkscape:collect="always" id="linearGradient4462">
   <stop id="stop4464" stop-color="#e2e2e2" stop-opacity="1"/>
   <stop offset="1" id="stop4466" stop-color="#818181" stop-opacity="1"/>
  </linearGradient>
  <linearGradient inkscape:collect="always" id="linearGradient4345">
   <stop id="stop4347" stop-color="#979797" stop-opacity="1"/>
   <stop offset="1" id="stop4349" stop-color="#ffffff" stop-opacity="1"/>
  </linearGradient>
  <linearGradient inkscape:collect="always" id="linearGradient4331">
   <stop id="stop4333" stop-color="#a0a0a0" stop-opacity="1"/>
   <stop offset="1" id="stop4335" stop-color="#ffffff" stop-opacity="1"/>
  </linearGradient>
  <linearGradient inkscape:collect="always" id="linearGradient4321">
   <stop id="stop4323" stop-color="#d5d5d5" stop-opacity="1"/>
   <stop offset="1" id="stop4325" stop-color="#888888" stop-opacity="1"/>
  </linearGradient>
  <linearGradient inkscape:collect="always" id="linearGradient4311">
   <stop id="stop4313" stop-color="#b8b8b8" stop-opacity="1"/>
   <stop offset="1" id="stop4315" stop-color="#b8b8b8" stop-opacity="0"/>
  </linearGradient>
  <linearGradient inkscape:collect="always" id="linearGradient4299">
   <stop id="stop4301" stop-color="#818181" stop-opacity="1"/>
   <stop offset="1" id="stop4303" stop-color="#ffffff" stop-opacity="1"/>
  </linearGradient>
  <linearGradient inkscape:collect="always" id="linearGradient4282">
   <stop id="stop4284" stop-color="#818181" stop-opacity="1"/>
   <stop offset="1" id="stop4286" stop-color="#eaeaea" stop-opacity="1"/>
  </linearGradient>
  <linearGradient inkscape:collect="always" id="linearGradient4266">
   <stop id="stop4268" stop-color="#eaeaea" stop-opacity="1"/>
   <stop id="stop4276" offset="0.253" stop-color="#aaaaaa" stop-opacity="1"/>
   <stop id="stop4274" offset="0.603" stop-color="#6a6a6a" stop-opacity="1"/>
   <stop offset="1" id="stop4270" stop-color="#e3e3e3" stop-opacity="1"/>
  </linearGradient>
  <linearGradient inkscape:collect="always" id="linearGradient4254">
   <stop id="stop4256" stop-color="#000000" stop-opacity="1"/>
   <stop offset="1" id="stop4258" stop-color="#5f5f5f" stop-opacity="1"/>
  </linearGradient>
  <linearGradient inkscape:collect="always" id="linearGradient4244">
   <stop id="stop4246" stop-color="#ffffff" stop-opacity="1"/>
   <stop offset="1" id="stop4248" stop-color="#959595" stop-opacity="1"/>
  </linearGradient>
  <linearGradient inkscape:collect="always" id="linearGradient4234">
   <stop id="stop4236" stop-color="#959595" stop-opacity="1"/>
   <stop offset="1" id="stop4238" stop-color="#dddddd" stop-opacity="1"/>
  </linearGradient>
  <linearGradient inkscape:collect="always" id="linearGradient4180">
   <stop id="stop4182" stop-color="#6f6f6f" stop-opacity="1"/>
   <stop offset="1" id="stop4184" stop-color="#bababa" stop-opacity="0"/>
  </linearGradient>
  <linearGradient inkscape:collect="always" id="linearGradient4179">
   <stop id="stop4181" stop-color="#e6e6e6" stop-opacity="1"/>
   <stop offset="1" id="stop4183" stop-color="#818181" stop-opacity="0"/>
  </linearGradient>
  <linearGradient inkscape:collect="always" id="linearGradient4164">
   <stop id="stop4166" stop-color="#cacaca" stop-opacity="1"/>
   <stop offset="1" id="stop4168" stop-color="#787878" stop-opacity="1"/>
  </linearGradient>
  <linearGradient inkscape:collect="always" id="linearGradient4155">
   <stop id="stop4157" stop-color="#d3d3d3" stop-opacity="1"/>
   <stop offset="1" id="stop4159" stop-color="#878787" stop-opacity="1"/>
  </linearGradient>
  <linearGradient inkscape:collect="always" id="linearGradient4271">
   <stop id="stop4273" stop-color="#b7c730" stop-opacity="1"/>
   <stop id="stop4153" offset="0.817" stop-color="#8c9925" stop-opacity="1"/>
   <stop offset="1" id="stop4275" stop-color="#b7c730" stop-opacity="1"/>
  </linearGradient>
  <linearGradient inkscape:collect="always" id="linearGradient4261">
   <stop id="stop4263" stop-color="#979797" stop-opacity="1"/>
   <stop id="stop4269" offset="0.899" stop-color="#cacaca" stop-opacity="1"/>
   <stop offset="1" id="stop4265" stop-color="#8c8c8c" stop-opacity="1"/>
  </linearGradient>
  <linearGradient inkscape:collect="always" id="linearGradient4253">
   <stop id="stop4255" stop-color="#ffffff" stop-opacity="1"/>
   <stop offset="1" id="stop4257" stop-color="#686363" stop-opacity="1"/>
  </linearGradient>
  <linearGradient inkscape:collect="always" xlink:href="#linearGradient4253" id="linearGradient4259" x1="342.55" y1="299.18" x2="463.27" y2="302.86" gradientUnits="userSpaceOnUse" spreadMethod="reflect"/>
  <radialGradient inkscape:collect="always" xlink:href="#linearGradient4261" id="radialGradient4267" cx="527.6" cy="318.39" fx="527.6" fy="318.39" r="233.75" gradientTransform="matrix(1,0,0,0.14351341,0,260.46722)" gradientUnits="userSpaceOnUse"/>
  <radialGradient inkscape:collect="always" xlink:href="#linearGradient4271" id="radialGradient4277" cx="531.43" cy="-204.81" fx="531.43" fy="-204.81" r="236.29" gradientTransform="matrix(0.99998933,-0.0046203,0.00173449,0.37540362,0.48018792,337.82773)" gradientUnits="userSpaceOnUse" spreadMethod="reflect"/>
  <linearGradient inkscape:collect="always" xlink:href="#linearGradient4155" id="linearGradient4161" x1="348.83" y1="283.18" x2="458.78" y2="281.54" gradientUnits="userSpaceOnUse" spreadMethod="reflect" gradientTransform="matrix(0.89245821,0,0,1.0045438,57.265338,-1.2867535)"/>
  <radialGradient inkscape:collect="always" xlink:href="#linearGradient4164" id="radialGradient4170" cx="513.52" cy="247.92" fx="513.52" fy="247.92" r="98.27" gradientTransform="matrix(1.0000002,0,0,0.21600094,-8.1074108e-5,218.17095)" gradientUnits="userSpaceOnUse" spreadMethod="reflect"/>
  <linearGradient inkscape:collect="always" xlink:href="#linearGradient4179" id="linearGradient4185" x1="529.03" y1="211.58" x2="531.29" y2="243.14" gradientUnits="userSpaceOnUse"/>
  <linearGradient inkscape:collect="always" xlink:href="#linearGradient4180" id="linearGradient4186" x1="588.21" y1="884.6" x2="598.66" y2="1110.96" gradientUnits="userSpaceOnUse" gradientTransform="translate(558.90411,175.34247)"/>
  <linearGradient inkscape:collect="always" xlink:href="#linearGradient4234" id="linearGradient4240" x1="211.62" y1="850.51" x2="225.32" y2="834.07" gradientUnits="userSpaceOnUse" spreadMethod="reflect"/>
  <radialGradient inkscape:collect="always" xlink:href="#linearGradient4244" id="radialGradient4250" cx="542.47" cy="1013.7" fx="542.47" fy="1013.7" r="49.32" gradientUnits="userSpaceOnUse" spreadMethod="reflect"/>
  <linearGradient inkscape:collect="always" xlink:href="#linearGradient4254" id="linearGradient4260" x1="-217.41" y1="680.48" x2="-145.94" y2="612.21" gradientUnits="userSpaceOnUse" spreadMethod="reflect" gradientTransform="translate(86.206896,-1.1494245)"/>
  <linearGradient inkscape:collect="always" xlink:href="#linearGradient4266" id="linearGradient4272" x1="1297.99" y1="1094.71" x2="1679.59" y2="793.56" gradientUnits="userSpaceOnUse" spreadMethod="reflect"/>
  <linearGradient inkscape:collect="always" xlink:href="#linearGradient4282" id="linearGradient4288" x1="-110.8" y1="679.88" x2="-82.49" y2="660.29" gradientUnits="userSpaceOnUse" spreadMethod="pad"/>
  <linearGradient inkscape:collect="always" xlink:href="#linearGradient4299" id="linearGradient4305" x1="-231.03" y1="324.14" x2="-193.1" y2="325.29" gradientUnits="userSpaceOnUse" spreadMethod="reflect"/>
  <linearGradient inkscape:collect="always" xlink:href="#linearGradient4311" id="linearGradient4317" x1="-232.22" y1="714.53" x2="-121.84" y2="639.81" gradientUnits="userSpaceOnUse"/>
  <linearGradient inkscape:collect="always" xlink:href="#linearGradient4321" id="linearGradient4327" x1="228.81" y1="726.36" x2="337.32" y2="724.24" gradientUnits="userSpaceOnUse" spreadMethod="reflect" gradientTransform="matrix(0.15946,-0.04975784,0.04975784,0.15946,16.514522,31.991526)"/>
  <linearGradient inkscape:collect="always" xlink:href="#linearGradient4331" id="linearGradient4337" x1="461.97" y1="736.27" x2="569.01" y2="738.38" gradientUnits="userSpaceOnUse" spreadMethod="reflect" gradientTransform="translate(2.1126761,38.028169)"/>
  <linearGradient inkscape:collect="always" xlink:href="#linearGradient4331" id="linearGradient4341" gradientUnits="userSpaceOnUse" spreadMethod="reflect" x1="357.75" y1="737.68" x2="524.65" y2="742.61" gradientTransform="translate(2.1126761,-4.225352)"/>
  <linearGradient inkscape:collect="always" xlink:href="#linearGradient4345" id="linearGradient4351" x1="416.9" y1="618.66" x2="521.83" y2="618.66" gradientUnits="userSpaceOnUse" spreadMethod="reflect"/>
  <linearGradient inkscape:collect="always" xlink:href="#linearGradient1045" id="linearGradient4458" x1="218.49" y1="588.74" x2="249.47" y2="573.24" gradientUnits="userSpaceOnUse" spreadMethod="reflect" gradientTransform="matrix(0.15946,-0.04975784,0.04975784,0.15946,16.137075,28.412408)"/>
  <radialGradient inkscape:collect="always" xlink:href="#linearGradient1057" id="radialGradient4468" cx="260.56" cy="601.41" fx="260.56" fy="601.41" r="33.1" gradientUnits="userSpaceOnUse" spreadMethod="reflect" gradientTransform="matrix(0.16704291,0,0,0.16704291,6.941198,31.929452)"/>
  <linearGradient inkscape:collect="always" xlink:href="#linearGradient4470" id="linearGradient4476" x1="271.13" y1="641.55" x2="227.46" y2="588.73" gradientUnits="userSpaceOnUse" gradientTransform="matrix(0.16704291,0,0,0.16704291,6.941198,31.929452)"/>
  <radialGradient inkscape:collect="always" xlink:href="#linearGradient4462" id="radialGradient4480" gradientUnits="userSpaceOnUse" spreadMethod="reflect" cx="260.56" cy="601.41" fx="260.56" fy="601.41" r="33.1" gradientTransform="matrix(0.09665966,0,0,0.09665966,18.519077,59.740418)"/>
  <linearGradient inkscape:collect="always" xlink:href="#linearGradient4470" id="linearGradient4482" gradientUnits="userSpaceOnUse" x1="271.13" y1="641.55" x2="227.46" y2="588.73" gradientTransform="matrix(0.09665966,0,0,0.09665966,18.519077,59.740418)"/>
  <linearGradient inkscape:collect="always" xlink:href="#linearGradient1045" id="linearGradient4490" x1="215.17" y1="494.37" x2="277.43" y2="563.38" gradientUnits="userSpaceOnUse" spreadMethod="reflect" gradientTransform="matrix(0.15946,-0.04975784,0.04975784,0.15946,16.137075,28.412408)"/>
  <linearGradient inkscape:collect="always" xlink:href="#linearGradient1045" id="linearGradient4494" gradientUnits="userSpaceOnUse" spreadMethod="reflect" x1="218.49" y1="588.74" x2="249.47" y2="573.24" gradientTransform="matrix(-0.15871581,0.04952562,0.06739522,0.21598289,181.00069,-64.007592)"/>
  <linearGradient inkscape:collect="always" xlink:href="#linearGradient4484" id="linearGradient4496" gradientUnits="userSpaceOnUse" spreadMethod="reflect" x1="215.17" y1="494.37" x2="277.43" y2="563.38" gradientTransform="matrix(-0.15871581,0.04952562,0.06739522,0.21598289,181.00069,-64.007592)"/>
  <radialGradient inkscape:collect="always" xlink:href="#linearGradient1051" id="radialGradient4500" gradientUnits="userSpaceOnUse" spreadMethod="reflect" cx="260.56" cy="601.41" fx="260.56" fy="601.41" r="33.1" gradientTransform="matrix(0.16704291,0,0,0.16704291,111.87238,8.990461)"/>
  <linearGradient inkscape:collect="always" xlink:href="#linearGradient4470" id="linearGradient4502" gradientUnits="userSpaceOnUse" x1="271.13" y1="641.55" x2="227.46" y2="588.73" gradientTransform="matrix(0.16704291,0,0,0.16704291,111.87238,8.990461)"/>
  <radialGradient inkscape:collect="always" xlink:href="#linearGradient4462" id="radialGradient4506" gradientUnits="userSpaceOnUse" gradientTransform="matrix(0.09665966,0,0,0.09665966,127.68515,75.738894)" spreadMethod="reflect" cx="260.56" cy="601.41" fx="260.56" fy="601.41" r="33.1"/>
  <linearGradient inkscape:collect="always" xlink:href="#linearGradient4470" id="linearGradient4508" gradientUnits="userSpaceOnUse" gradientTransform="matrix(0.09665966,0,0,0.09665966,127.68515,75.738894)" x1="271.13" y1="641.55" x2="227.46" y2="588.73"/>
  <linearGradient id="linearGradient3381">
   <stop id="stop3383" stop-color="#ffffff" stop-opacity="1"/>
   <stop id="stop3385" offset="1" stop-color="#ffffff" stop-opacity="0"/>
  </linearGradient>
  <filter inkscape:collect="always" id="filter1127" x="-0.031" width="1.062" y="-0.043" height="1.086" color-interpolation-filters="sRGB">
   <feGaussianBlur inkscape:collect="always" stdDeviation="0.66838" id="feGaussianBlur1129"/>
  </filter>
  <filter inkscape:collect="always" id="filter1051" x="-0.025" width="1.049" y="-0.023" height="1.047" color-interpolation-filters="sRGB">
   <feGaussianBlur inkscape:collect="always" stdDeviation="5.37328" id="feGaussianBlur1053"/>
  </filter>
  <filter inkscape:collect="always" id="filter1069" x="-0.017" width="1.034" y="-0.042" height="1.084" color-interpolation-filters="sRGB">
   <feGaussianBlur inkscape:collect="always" stdDeviation="0.5435" id="feGaussianBlur1071"/>
  </filter>
  <linearGradient inkscape:collect="always" xlink:href="#linearGradient1076" id="linearGradient1078" x1="-118.76" y1="197.56" x2="-119.99" y2="55.04" gradientUnits="userSpaceOnUse"/>
  <linearGradient inkscape:collect="always" xlink:href="#linearGradient1076" id="linearGradient1080" gradientUnits="userSpaceOnUse" x1="-118.76" y1="197.56" x2="-119.99" y2="55.04"/>
  <linearGradient inkscape:collect="always" xlink:href="#linearGradient1076" id="linearGradient1082" gradientUnits="userSpaceOnUse" x1="-118.76" y1="197.56" x2="-119.99" y2="55.04"/>
  <linearGradient inkscape:collect="always" xlink:href="#linearGradient1076" id="linearGradient1084" gradientUnits="userSpaceOnUse" x1="-118.76" y1="197.56" x2="-119.99" y2="55.04"/>
  <linearGradient inkscape:collect="always" xlink:href="#linearGradient1076" id="linearGradient1086" gradientUnits="userSpaceOnUse" x1="-118.76" y1="197.56" x2="-119.99" y2="55.04"/>
  <filter inkscape:collect="always" id="filter1088" x="-0.001" width="1.02" y="-0.016" height="1.032" color-interpolation-filters="sRGB">
   <feGaussianBlur inkscape:collect="always" stdDeviation="0.98916" id="feGaussianBlur1090"/>
  </filter>
  <linearGradient id="linearGradient4961" inkscape:collect="always">
   <stop stop-opacity="1" stop-color="#ffffff" id="stop4957"/>
   <stop stop-opacity="0.192" stop-color="#ffffff" id="stop4959" offset="1"/>
  </linearGradient>
  <linearGradient id="linearGradient1239" inkscape:collect="always">
   <stop stop-opacity="1" stop-color="#2c3375" id="stop1235"/>
   <stop stop-opacity="0" stop-color="#2a3fea" id="stop1237" offset="1"/>
  </linearGradient>
  <clipPath id="clipPath2059" clipPathUnits="userSpaceOnUse">
   <path stroke-miterlimit="4" stroke-width="0.048" stroke-linecap="butt" fill-opacity="1" stroke-linejoin="miter" stroke="none" fill-rule="evenodd" fill="#ffffff" stroke-opacity="1" stroke-dasharray="none" inkscape:connector-curvature="0" sodipodi:nodetypes="csscsscccccccs" id="path2061" d="m -10.099732,231.68531 c 3.5587363,2.50616 4.8319716,-0.58528 2.9651647,-3.064 -3.1818907,-4.22486 -6.4443207,-9.83985 -12.3548527,-15.91305 -2.594516,-2.66865 -11.860659,-7.80827 -11.860659,-7.80827 0,0 -0.115438,-2.18844 -0.09884,-3.064 0.01106,-0.582 -0.565687,-0.56369 -0.889553,-0.29652 -0.782426,0.64546 -2.47097,2.56981 -2.47097,2.56981 l -1.68026,-0.0988 -1.087226,-1.58142 c -0.296516,-0.41055 -0.636056,-0.34641 -0.88955,0 -0.545383,1.84962 -0.878698,3.8848 -3.459359,3.95355 l 4.447747,3.95356 c 7.76561,1.55335 15.578734,5.58545 20.261957,14.33163 0,0 4.526451,5.19364 7.116396,7.01755 z"/>
  </clipPath>
  <clipPath clipPathUnits="userSpaceOnUse" id="clipPath2059-5">
   <path d="m -10.099732,231.68531 c 3.5587363,2.50616 4.8319716,-0.58528 2.9651647,-3.064 -3.1818907,-4.22486 -6.4443207,-9.83985 -12.3548527,-15.91305 -2.594516,-2.66865 -11.860659,-7.80827 -11.860659,-7.80827 0,0 -0.115438,-2.18844 -0.09884,-3.064 0.01106,-0.582 -0.565687,-0.56369 -0.889553,-0.29652 -0.782426,0.64546 -2.47097,2.56981 -2.47097,2.56981 l -1.68026,-0.0988 -1.087226,-1.58142 c -0.296516,-0.41055 -0.636056,-0.34641 -0.88955,0 -0.545383,1.84962 -0.878698,3.8848 -3.459359,3.95355 l 4.447747,3.95356 c 7.76561,1.55335 15.578734,5.58545 20.261957,14.33163 0,0 4.526451,5.19364 7.116396,7.01755 z" id="path2061-3" sodipodi:nodetypes="csscsscccccccs" inkscape:connector-curvature="0" stroke-dasharray="none" stroke-opacity="1" fill="#ffffff" fill-rule="evenodd" stroke="none" stroke-linejoin="miter" fill-opacity="1" stroke-linecap="butt" stroke-width="0.048" stroke-miterlimit="4"/>
  </clipPath>
  <clipPath id="clipPath">
   <path d="m -515.73002,435.56445 v 5.83767 c 0,9.74315 -7.84377,17.58692 -17.58692,17.58692 h -135.05122 c -9.74315,0 -17.58692,-7.84377 -17.58692,-17.58692 v -5.83767 z" id="rect5264" inkscape:connector-curvature="0" sodipodi:nodetypes="csssscc" fill="#1b1b1b" stroke="none" fill-opacity="0.95"/>
  </clipPath>
  <clipPath id="clipPath2059-7" clipPathUnits="userSpaceOnUse">
   <path stroke-miterlimit="4" stroke-width="0.048" stroke-linecap="butt" fill-opacity="1" stroke-linejoin="miter" stroke="none" fill-rule="evenodd" fill="#ffffff" stroke-opacity="1" stroke-dasharray="none" inkscape:connector-curvature="0" sodipodi:nodetypes="csscsscccccccs" id="path2061-5" d="m -10.099732,231.68531 c 3.5587363,2.50616 4.8319716,-0.58528 2.9651647,-3.064 -3.1818907,-4.22486 -6.4443207,-9.83985 -12.3548527,-15.91305 -2.594516,-2.66865 -11.860659,-7.80827 -11.860659,-7.80827 0,0 -0.115438,-2.18844 -0.09884,-3.064 0.01106,-0.582 -0.565687,-0.56369 -0.889553,-0.29652 -0.782426,0.64546 -2.47097,2.56981 -2.47097,2.56981 l -1.68026,-0.0988 -1.087226,-1.58142 c -0.296516,-0.41055 -0.636056,-0.34641 -0.88955,0 -0.545383,1.84962 -0.878698,3.8848 -3.459359,3.95355 l 4.447747,3.95356 c 7.76561,1.55335 15.578734,5.58545 20.261957,14.33163 0,0 4.526451,5.19364 7.116396,7.01755 z"/>
  </clipPath>
  <clipPath id="clipPath1162" clipPathUnits="userSpaceOnUse">
   <path id="path1164" d="m -65.649736,239.84563 c -9.358079,0 -16.951888,7.59381 -16.951888,16.95188 0,9.35808 7.593811,16.94076 16.951888,16.94077 0.292439,0 0.578792,-0.008 0.867614,-0.0222 2.122786,-0.10753 4.148336,-0.60587 5.995453,-1.42378 l 2.669587,3.97101 c -0.225515,0.4951 -0.245107,0.96445 -0.01111,1.31255 l 15.67271,23.32553 c 0.495366,0.73695 1.94415,0.6317 3.247998,-0.24471 1.303846,-0.87642 1.96364,-2.17735 1.468276,-2.9143 L -51.42304,274.4168 c -0.233058,-0.34672 -0.682887,-0.49868 -1.22356,-0.47831 l -2.558357,-3.80416 c 3.95991,-3.10036 6.507123,-7.91951 6.507123,-13.33682 0,-9.35807 -7.593809,-16.95188 -16.951889,-16.95188 z m 0,2.5806 c 7.92884,0 14.371283,6.44244 14.371283,14.37128 0,7.92885 -6.442435,14.36016 -14.371283,14.36016 -7.928851,0 -14.349039,-6.43131 -14.349039,-14.36016 0,-0.24777 -0.0013,-0.48941 0.01111,-0.73413 0.384376,-7.58638 6.656848,-13.63715 14.337916,-13.63715 z" inkscape:connector-curvature="0" stroke-dasharray="none" stroke-opacity="1" fill="#000000" stroke="none" stroke-linejoin="round" fill-opacity="0.347" stroke-linecap="round" stroke-width="0.071" stroke-miterlimit="4"/>
  </clipPath>
  <linearGradient id="linearGradient2816">
   <stop stop-opacity="0.852" stop-color="#2035a5" id="stop2818"/>
   <stop stop-opacity="0.582" stop-color="#ebedf5" id="stop2820" offset="1"/>
  </linearGradient>
  <linearGradient inkscape:collect="always" id="linearGradient2784">
   <stop stop-opacity="1" stop-color="#5a8cce" id="stop2786"/>
   <stop stop-opacity="1" stop-color="#e3e8f3" offset="1" id="stop2788"/>
  </linearGradient>
  <linearGradient id="linearGradient2762">
   <stop stop-opacity="0" stop-color="#9aa6f1" id="stop2764"/>
   <stop stop-opacity="0" stop-color="#99aef2" id="stop2770" offset="0.5"/>
   <stop stop-opacity="0.247" stop-color="#214cc4" offset="0.75" id="stop2772"/>
   <stop stop-opacity="0.567" stop-color="#2035a5" id="stop2774" offset="0.875"/>
   <stop stop-opacity="1" stop-color="#253da5" offset="1" id="stop2780"/>
  </linearGradient>
  <linearGradient gradientTransform="matrix(0.28058269,0,0,0.28058269,-1.4834926,228.91043)" inkscape:collect="always" xlink:href="#linearGradient2784" id="linearGradient2790" x1="115.34" y1="149.75" x2="115.8" y2="29.896" gradientUnits="userSpaceOnUse" spreadMethod="reflect"/>
  <radialGradient inkscape:collect="always" xlink:href="#linearGradient1239" id="radialGradient2928" gradientUnits="userSpaceOnUse" gradientTransform="matrix(0.29471356,0,0,0.0678628,-7.9702685,275.04197)" cx="130.26" cy="217.37" fx="130.26" fy="217.37" r="102.81"/>
  <radialGradient gradientTransform="matrix(0.28058269,0,0,0.28058269,-1.4834953,228.91041)" inkscape:collect="always" xlink:href="#linearGradient2816" id="radialGradient2930" gradientUnits="userSpaceOnUse" spreadMethod="reflect" cx="126.09" cy="159.81" fx="126.09" fy="159.81" r="104.53"/>
  <radialGradient inkscape:collect="always" xlink:href="#linearGradient2762" id="radialGradient2934" gradientUnits="userSpaceOnUse" gradientTransform="matrix(0.28058269,-1.0885391e-8,1.1838168e-8,0.30514153,-1.4898195,225.42789)" cx="122.46" cy="130.18" fx="122.46" fy="130.18" r="104.53"/>
  <radialGradient inkscape:collect="always" xlink:href="#linearGradient3381" id="radialGradient2938" gradientUnits="userSpaceOnUse" gradientTransform="matrix(0.42232615,0.09794231,-0.02212672,0.09541012,-15.946957,226.63788)" cx="108.88" cy="52.31" fx="108.88" fy="52.31" r="18.873"/>
  <radialGradient inkscape:collect="always" xlink:href="#linearGradient3381" id="radialGradient2942" gradientUnits="userSpaceOnUse" gradientTransform="matrix(-0.42232615,0.09794226,0.02212672,0.09541021,77.376703,258.14116)" cx="108.88" cy="52.31" fx="108.88" fy="52.31" r="18.873"/>
  <radialGradient gradientTransform="matrix(0.26523362,0,0,0.26523362,-35.501239,207.7858)" inkscape:collect="always" xlink:href="#linearGradient3381" id="radialGradient2946" gradientUnits="userSpaceOnUse" cx="207.12" cy="109.37" fx="207.12" fy="109.37" r="8.711"/>
  <radialGradient gradientTransform="matrix(0.26523362,0,0,0.26523362,7.8624224,249.3857)" inkscape:collect="always" xlink:href="#linearGradient3381" id="radialGradient2948" gradientUnits="userSpaceOnUse" cx="207.12" cy="109.37" fx="207.12" fy="109.37" r="8.711"/>
  <radialGradient inkscape:collect="always" xlink:href="#linearGradient3381" id="radialGradient2952" gradientUnits="userSpaceOnUse" gradientTransform="matrix(-0.28596729,-0.1432719,-0.02669463,0.06008559,72.936187,254.89147)" cx="108.88" cy="52.31" fx="108.88" fy="52.31" r="18.873"/>
  <radialGradient gradientTransform="matrix(0.2614401,0,0,0.2614401,-21.094745,244.99988)" inkscape:collect="always" xlink:href="#linearGradient3381" id="radialGradient2954" gradientUnits="userSpaceOnUse" cx="207.12" cy="109.37" fx="207.12" fy="109.37" r="8.711"/>
  <radialGradient gradientTransform="matrix(0.2614401,0,0,0.2614401,-25.143359,213.37007)" inkscape:collect="always" xlink:href="#linearGradient3381" id="radialGradient2956" gradientUnits="userSpaceOnUse" cx="207.12" cy="109.37" fx="207.12" fy="109.37" r="8.711"/>
  <linearGradient gradientTransform="matrix(1.0145101,0,0,1.0145101,-1.6923736,-1.8221035)" spreadMethod="reflect" gradientUnits="userSpaceOnUse" y2="240.84" x2="62.941" y1="261.82" x1="30.461" id="linearGradient4963" xlink:href="#linearGradient4961" inkscape:collect="always"/>
  <linearGradient spreadMethod="reflect" y2="240.84" x2="62.941" y1="261.82" x1="30.461" gradientTransform="matrix(-0.5299136,-0.85828433,0.85828433,-0.5299136,-172.56886,426.0376)" gradientUnits="userSpaceOnUse" id="linearGradient910" xlink:href="#linearGradient4961" inkscape:collect="always"/>
  <linearGradient id="linearGradient668-3">
   <stop stop-opacity="0.443" stop-color="#000000" id="stop669-6"/>
   <stop stop-opacity="0.103" stop-color="#000000" offset="1" id="stop670-7"/>
  </linearGradient>
  <radialGradient cx="631.63" cy="476.61" r="165.79" fx="631.63" fy="476.61" id="radialGradient708-5" xlink:href="#linearGradient668-3" gradientUnits="userSpaceOnUse" gradientTransform="matrix(0.20133995,0,0,0.19258361,-95.438318,169.31293)"/>
  <linearGradient id="linearGradient4907-3">
   <stop stop-opacity="0.845" stop-color="#ffffff" id="stop4909-5"/>
   <stop stop-opacity="0" stop-color="#ffffff" offset="1" id="stop4908-6"/>
  </linearGradient>
  <linearGradient x1="559.98" y1="378.52" x2="562.89" y2="471.97" id="linearGradient4300-2" xlink:href="#linearGradient4907-3" gradientUnits="userSpaceOnUse" gradientTransform="matrix(0.24101769,0,0,0.16581091,-103.29235,171.67569)"/>
  <linearGradient spreadMethod="reflect" y2="240.84" x2="62.941" y1="261.82" x1="30.461" gradientTransform="matrix(0.51021211,0.82637446,-0.82637446,0.51021211,231.42373,105.72665)" gradientUnits="userSpaceOnUse" id="linearGradient986" xlink:href="#linearGradient4961" inkscape:collect="always"/>
 </defs>
 <sodipodi:namedview pagecolor="#ff0000" bordercolor="#666666" borderopacity="1" objecttolerance="10" gridtolerance="10" guidetolerance="10" inkscape:pageopacity="0" inkscape:pageshadow="2" inkscape:window-width="1920" inkscape:window-height="1056" id="namedview4" showgrid="false" showguides="true" inkscape:guide-bbox="true" inkscape:zoom="3.4765625" inkscape:cx="128" inkscape:cy="128" inkscape:window-x="0" inkscape:window-y="0" inkscape:window-maximized="1" inkscape:current-layer="svg2" inkscape:snap-global="false"/>
 <g transform="matrix(3.2880351,0,0,3.1998632,1.2826095,-741.85322)" id="layer1" inkscape:label="Layer 1">
  <ellipse stroke-miterlimit="4" id="path2899" cx="30.42" cy="289.79" rx="30.3" ry="6.977" opacity="1" stroke-dasharray="none" stroke-opacity="1" fill="url(#radialGradient2928)" stroke="none" stroke-linejoin="round" fill-opacity="1" stroke-linecap="round" stroke-width="0.6" stroke-dashoffset="0"/>
  <circle stroke-miterlimit="4" id="path2804" cx="32.87" cy="262.58" r="29.329" opacity="1" stroke-dasharray="none" stroke-opacity="1" fill="url(#radialGradient2930)" stroke="none" stroke-linejoin="round" fill-opacity="1" stroke-linecap="round" stroke-width="0.281" stroke-dashoffset="0"/>
  <circle stroke-miterlimit="4" id="path1873" cx="32.87" cy="262.58" r="29.329" opacity="1" stroke-dasharray="none" stroke-opacity="1" fill="url(#linearGradient2790)" stroke="none" stroke-linejoin="round" fill-opacity="1" stroke-linecap="round" stroke-width="0.281" stroke-dashoffset="0"/>
  <path stroke-miterlimit="4" id="path4653" d="m 32.781905,233.76571 -2.350535,0.0475 -0.207581,0.52212 -2.026957,0.0416 -1.3859,0.13053 c -5.119313,0.3698 -13.319093,4.7311 -18.0533469,11.96128 l 0.7570558,0.3026 1.1539001,-1.07391 0.43958,0.51619 0.518952,-0.74165 0.54337,0.61705 -0.634952,0.32632 0.433477,0.30853 0.958531,-0.12459 0.09158,-0.94338 1.044005,-1.27563 0.128211,1.15103 0.543371,0.19579 -1.385902,0.55179 0.02443,0.94338 -0.09158,0.83657 0.848635,-0.32632 -0.01221,-0.52805 0.317476,-0.21359 0.09158,-0.73572 0.421266,-0.42719 0.73874,-0.32632 0.525055,-0.53399 0.616635,-1.2697 1.471376,-1.38836 -0.537267,-0.1958 0.732635,-0.74758 0.934109,-1.38243 -1.69727,0.66452 -1.056216,0.64671 -0.750951,-0.089 1.160005,-0.86031 2.845067,-2.2546 1.514112,0.9137 -0.09768,0.42126 -1.172215,0.33225 -0.09768,0.52806 -0.738743,0.43313 -0.409054,0.95523 1.068426,-0.13052 0.305264,-0.63485 0.122107,0.62892 0.952426,-0.43906 0.518949,-0.74165 0.427371,0.0949 0.317475,-0.32039 0.946319,-0.64078 0.952425,-0.75351 0.311369,-0.3204 -0.109895,-0.30852 -0.750949,0.0118 -0.63495,0.11273 -0.531162,0.32633 -0.213685,-0.10086 0.525056,-0.42719 1.379795,-0.34413 0.433477,0.30853 0.42737,-0.2136 0.311369,-0.42719 -0.01222,-0.42126 -1.483582,0.45093 -0.537267,-0.20173 1.160005,-0.86031 1.91096,-0.66451 0.848633,-0.32633 1.807165,-0.45686 1.709481,-0.0296 3.309066,-0.16613 -0.75095,-0.1958 1.068428,-0.12459 -1.288216,-0.29073 1.48969,-0.23733 z m 2.95496,0.52213 0.964636,0.72978 1.28211,0.62892 1.495797,0.52211 -0.109893,0.31446 0.537264,0.42125 v 0.83659 l 0.75095,0.10086 0.531161,0.73572 -0.854743,0.20765 0.537267,0.31446 -0.323581,0.52806 h -1.178318 l -0.317478,0.52212 0.427371,1.35869 v 0.42126 l 0.317475,0.73571 -0.317475,0.62892 -0.75095,-0.21359 0.42737,0.62892 0.109894,0.52804 0.641057,0.41533 h -1.709482 l -0.854737,-0.41533 v -0.31445 -0.94338 l 0.317472,-0.62891 -0.213685,-0.31447 -0.427371,0.52213 -0.213685,0.52212 0.109895,1.25782 1.172218,0.52806 0.854739,0.31446 -0.958532,0.31446 -0.854737,0.93744 -0.323583,-0.52212 -0.317476,0.10679 0.213686,0.72979 -0.75095,0.52211 0.109893,0.31447 -0.213683,0.42125 -0.647161,0.1068 -0.103789,-0.62892 -0.427371,-0.42125 0.744846,0.20765 0.537265,-0.20765 0.109893,-0.62892 -1.929269,-0.62298 -0.427371,-0.2136 -1.276005,0.2136 -0.964638,0.72978 -1.605689,1.88081 -0.744847,-0.10086 -0.537264,0.62891 -0.427372,1.25784 0.323579,0.31445 1.068425,-0.42125 0.427372,1.88675 1.068428,-0.52211 -0.103792,-0.84251 0.427371,-0.20767 0.317475,-0.42126 -0.317475,-0.41532 v -0.52805 l 0.854739,-0.83657 v -0.41533 l 0.64106,-0.31446 0.317472,0.52212 -0.958532,0.83658 0.103793,1.15103 1.178321,-0.10086 0.63495,0.20766 -0.427371,0.31446 -1.062319,-0.20766 v 0.41533 l 0.213686,0.21359 v 0.72978 l -0.537267,-0.52212 -0.317478,1.15104 -0.537265,0.52804 -0.213685,-0.31445 -1.392004,0.31445 -0.213686,-0.42125 -0.317475,0.31446 -0.323582,-0.31446 -0.103789,-0.42126 0.317474,-0.52211 v -0.42126 l -0.744846,0.31446 v 1.25783 l -1.17832,0.1068 -0.213684,0.52212 -0.641056,0.20766 -0.213686,0.52806 -0.964635,0.20765 -0.531161,-0.52211 v 0.62891 l -0.213686,0.10087 -0.323579,-0.20767 -0.53116,0.1068 0.744845,0.62892 v 0.72978 l -0.531158,1.15104 -2.136855,-0.73572 -1.17832,1.99355 -0.103789,1.05018 h 0.53116 l 0.433474,0.62891 h 0.427371 l 0.958531,0.20766 0.641055,-0.31446 0.427373,-0.42126 0.109892,-0.52212 0.634952,-0.52211 0.750949,-0.31446 v -0.42125 l 0.427372,-0.20767 0.750951,0.41532 1.068425,-0.52212 0.317475,0.42127 -0.103789,0.31445 0.958529,1.04424 h 0.323581 l 0.85474,0.94338 -0.213685,0.52212 -0.537266,0.1068 -0.42737,-0.20767 -0.531161,0.20767 1.172217,0.62891 v -0.20766 -0.42125 h 0.427372 l 0.427368,-0.41533 v -0.21359 l -0.213683,-0.31446 h 0.213683 l 0.537269,0.10679 v -0.20766 l -0.750952,-0.52805 -0.103792,-0.31446 -0.427372,-0.20766 -0.750949,-1.15104 0.213685,-0.62891 2.142957,2.0944 0.10379,0.62892 0.75095,1.77996 0.641059,0.1068 0.317472,-0.84251 -0.42737,-0.83658 1.172217,-0.31447 v 0.94338 0.31447 l 0.323579,-0.1068 0.317478,0.73571 0.854739,0.20766 0.537265,-0.20766 0.537265,0.31446 0.744846,-0.20766 0.109898,-0.2136 0.427369,0.2136 0.317475,0.62891 -0.744844,1.77996 h -1.282113 l -0.860847,0.42125 -2.771803,-0.94337 -0.964635,0.52212 v 0.42125 l -0.641052,0.20767 -0.323584,-0.42127 -0.85474,-0.10086 -0.213686,-0.73571 h -0.958531 l -0.964635,-0.83658 0.537267,-0.62892 -0.213686,-0.21359 v -0.52212 l -0.323581,-0.31445 -0.744844,0.20765 -1.178323,-0.31445 h -1.495793 l -1.282113,0.31445 -0.744846,-0.20765 -0.427371,-0.41533 -0.750949,0.72978 -0.537266,0.1068 -0.958532,0.52212 0.103789,0.73571 -0.854741,0.62892 h -0.641053 l -2.460435,2.2012 v 0.72979 l 0.109897,0.94337 -0.323582,1.15104 h -0.53116 l 0.213684,0.52212 -0.323578,0.83657 1.068425,1.47143 0.109896,1.04425 2.246747,2.51566 1.3859,-0.10679 1.178324,0.72977 3.101485,-0.20765 0.427371,1.25782 1.062322,-0.31445 0.854741,0.83658 -0.427371,1.67909 2.142957,2.93099 0.317475,1.25783 -0.85474,1.36463 1.495797,1.98762 0.427368,1.46549 h 0.537264 l 0.958532,0.83658 0.109899,0.62891 3.95012,-0.31445 2.356642,-1.15104 0.10379,-0.73572 1.178321,-0.52211 v -0.83658 l 2.026957,-1.25783 0.75095,-0.93745 -0.10379,-1.36462 -0.433474,-1.6791 4.060018,-4.71094 0.964636,-2.09441 0.109893,-1.4655 -3.101486,1.15104 -0.427371,-0.72978 -0.958532,-0.62892 -0.750951,-0.73571 -1.28211,-1.36464 0.103791,-0.72978 -0.854741,-0.84251 -1.068426,-2.19527 0.537265,-0.1068 1.172217,1.4655 0.641057,0.21359 0.323579,1.46549 0.75095,0.31447 0.958532,1.15103 0.537265,1.36463 0.53116,0.41533 3.315172,-1.88676 -0.109893,-0.62892 1.392004,-0.94337 0.854743,-1.04423 0.427368,-1.88676 -1.392005,-0.30853 -0.531161,-0.7357 -0.750949,1.04423 -0.75095,0.1068 -0.317478,-0.72978 h -0.641054 l -0.854743,-1.15697 0.531163,-0.41532 0.750951,1.04424 1.709479,-0.10087 0.427371,-0.42125 0.537265,0.62892 1.709481,-0.42127 1.282112,-0.72977 2.136852,1.35869 0.42737,-0.20765 2.564224,3.97522 0.323579,-0.10086 -0.109897,-0.52806 h 0.537267 l 0.103791,0.73572 h 0.641056 l -0.103792,-0.83658 -0.641055,-1.15104 -0.109897,-0.8425 -0.213687,-1.3587 0.64106,-1.15104 0.109894,-1.25784 0.317477,-1.15103 0.641054,-1.36464 0.85474,0.62893 0.427371,0.83657 0.213685,-0.83657 1.178322,3.35224 0.427368,1.47143 -0.427368,-0.2136 -0.537267,0.2136 0.109895,0.72978 0.427372,0.10087 0.641054,1.47142 0.323581,-2.83012 -0.427371,-1.3587 -0.42737,-0.42126 -0.32358,-1.99354 0.964636,0.62891 -0.213686,-3.13865 -1.074531,-1.05017 -0.10379,-1.2519 v -1.47143 l -0.427371,-1.88082 -0.75095,-1.99355 -1.068425,-1.98761 -1.282113,-0.84252 -1.178319,-1.35869 1.392007,0.21359 -2.136854,-1.99354 -1.923165,-2.40887 -2.136853,-1.57229 -2.564222,-1.57229 0.641058,1.25782 -1.923168,-1.25782 -2.033061,-1.36464 -0.964636,-0.30853 -0.744846,-0.62891 2.881699,0.93744 v -0.41532 l -3.41286,-0.83658 -1.068426,-0.62892 -2.356642,-0.62892 -0.641054,0.20767 -0.744844,-0.20767 z m -8.980883,1.67315 -1.453057,0.49839 1.758322,0.44498 1.092849,-0.37378 0.982951,-0.39753 z m 1.166111,1.01457 -0.952425,0.74166 -0.549475,-0.0237 -0.952428,0.74164 1.22106,0.83065 1.770533,0.85438 0.775374,-0.45686 -0.262528,-0.71198 -0.476214,-0.75945 0.720424,-1.12137 z m -2.252853,2.56907 -1.068426,0.62892 0.213686,0.31446 -2.350536,1.46549 -1.923167,0.94337 -1.605692,1.4655 -0.641057,0.73571 0.641057,-0.10679 -0.531161,0.83657 2.777908,-1.15103 0.427371,0.31446 1.17832,-0.31446 0.531162,0.42125 1.495795,-0.31445 -0.103789,-0.52806 2.13685,-0.72978 -0.213685,-0.42125 2.454328,-1.36463 -0.317473,-0.41533 0.317473,-0.73571 -2.454328,-0.83658 v 0.42126 z m -3.15033,6.3841 -0.42737,0.94338 v 0.73571 h 0.958531 l 0.750951,-0.31446 -0.109895,-0.94338 -0.744846,-0.10679 v -0.31446 z m 3.168648,3.33445 -0.641056,0.52212 0.213685,1.88674 -0.641055,-0.10679 0.109894,0.42125 -0.537265,0.1068 0.427371,0.52212 -0.958531,0.31446 2.564221,0.20766 0.323582,-0.72978 -0.323582,-0.42126 -0.323579,-1.4655 0.433477,-0.62891 -0.537267,-0.21359 0.323582,-0.20767 z m -1.202742,0.83657 -0.42737,0.20766 h -0.427373 l -0.213685,0.31447 0.213685,0.21359 -0.641055,0.41532 1.068428,0.42125 0.42737,-0.42125 0.323579,-0.83658 z m 12.381528,5.72552 0.787582,0.98491 1.349271,-0.21953 1.233267,0.54585 0.897476,0.65859 -0.561686,0.65265 h -0.781475 v 0.32632 l -1.459164,-0.54585 h -0.677689 l -0.445686,0.43905 -1.465268,0.1068 v -0.87218 l 0.115999,-0.87218 0.561687,-0.43905 z m 6.837925,0.52806 0.677689,0.54585 0.33579,0.54585 h 0.671581 v 0.54585 l 0.335792,0.43312 v 0.76538 l 1.239375,0.76538 -1.239375,0.43313 -1.007373,-0.2136 -0.45179,-0.43905 0.561683,-1.09171 h -0.67158 l -0.787584,-0.54585 -0.109892,-0.87219 -0.225896,-0.65264 z m -39.4283916,1.38256 c -0.9224123,7.7066 0.7222297,14.04111 4.1638078,19.37776 l -0.6410536,-2.40887 0.7509494,-0.94338 -0.1098958,-0.52212 -0.7448459,-1.4655 -0.6410555,-1.57229 -1.3858996,-2.2012 -0.5372661,-1.77996 -0.1037894,-1.67315 -0.5372662,-2.10035 v -1.04423 -1.57229 -0.73572 z m 33.7626836,21.49577 0.561686,0.32632 -0.671583,0.87218 h -1.007371 l 0.109894,-0.75945 z m 6.941714,2.65806 -0.958531,0.62892 0.10379,0.42125 -1.172216,0.62892 -0.537264,0.10086 -0.317475,0.62892 0.317475,0.52212 -0.744847,0.73572 0.531159,0.72978 1.495798,-0.72978 1.605693,-2.72334 z" inkscape:connector-curvature="0" stroke-opacity="1" fill="url(#radialGradient708-5)" fill-rule="nonzero" stroke="none" stroke-linejoin="miter" fill-opacity="1" stroke-linecap="butt" stroke-width="0.062"/>
  <circle stroke-miterlimit="4" id="path2760" cx="32.87" cy="262.58" r="29.329" opacity="1" stroke-dasharray="none" stroke-opacity="1" fill="url(#radialGradient2934)" stroke="none" stroke-linejoin="round" fill-opacity="1" stroke-linecap="round" stroke-width="0.281" stroke-dashoffset="0"/>
  <path stroke-miterlimit="4" sodipodi:nodetypes="csssc" inkscape:connector-curvature="0" id="path4954" d="m 51.209729,239.58143 c 4.739519,0.41479 8.418173,2.22852 10.300207,5.50286 4.930702,8.57839 -4.337301,23.93365 -20.700683,34.29692 -16.363386,10.36327 -33.625649,11.81023 -38.5563594,3.23184 -2.26168017,-3.93485 -1.53596697,-9.29553 1.4916087,-14.94627" opacity="1" stroke-dasharray="none" stroke-opacity="1" paint-order="normal" fill="none" fill-rule="evenodd" stroke="url(#linearGradient4963)" stroke-linejoin="round" fill-opacity="0.582" stroke-linecap="round" stroke-width="0.57" stroke-dashoffset="0"/>
  <g transform="matrix(0.91212981,-0.44412819,0.44412819,0.91212981,-104.32701,39.461545)" id="g1245">
   <path stroke-miterlimit="4" inkscape:connector-curvature="0" d="m 24.578693,275.30123 c 0,0.87298 7.512208,-0.18979 8.350272,-0.18979 0.838062,0 1.51823,-0.7085 1.51823,-1.58148 0,-0.87299 -0.680168,-1.58149 -1.51823,-1.58149 -0.838064,0 -8.350272,2.47977 -8.350272,3.35276 z" id="path2847" sodipodi:nodetypes="csssc" opacity="1" stroke-opacity="1" fill="url(#radialGradient2942)" stroke="none" stroke-linejoin="round" fill-opacity="1" stroke-linecap="round" stroke-width="0.549" stroke-dashoffset="0"/>
   <circle stroke-miterlimit="4" r="2.277" cy="273.59" cx="33.06" id="path2883" opacity="1" stroke-dasharray="none" stroke-opacity="1" fill="url(#radialGradient2954)" stroke="none" stroke-linejoin="round" fill-opacity="1" stroke-linecap="round" stroke-width="0.549" stroke-dashoffset="0"/>
  </g>
  <path stroke-miterlimit="4" sodipodi:nodetypes="csssc" inkscape:connector-curvature="0" id="path908" d="m 4.0280418,255.18856 c -2.1247046,-4.22632 -2.511761,-8.28588 -0.72469,-11.58839 4.6819103,-8.65221 22.5135882,-8.83197 39.8281632,-0.4015 17.314588,8.43047 27.555392,22.2787 22.873482,30.93091 -1.787851,3.30396 -5.493184,5.37247 -10.354997,6.19786" opacity="1" stroke-dasharray="none" stroke-opacity="1" paint-order="normal" fill="none" fill-rule="evenodd" stroke="url(#linearGradient910)" stroke-linejoin="round" fill-opacity="0.582" stroke-linecap="round" stroke-width="0.567" stroke-dashoffset="0"/>
  <path stroke-miterlimit="4" sodipodi:nodetypes="sssss" id="path1123" d="m 57.599995,251.66388 c -0.100477,9.51266 -11.209875,17.22516 -25.037955,17.22516 -13.828071,0 -25.0379465,-7.71197 -25.0379465,-17.22516 0,-8.37925 11.8713335,-18.35907 24.9434525,-18.26457 13.827719,0.0999 25.226943,9.31835 25.132449,18.26457 z" inkscape:connector-curvature="0" stroke-opacity="1" fill="url(#linearGradient4300-2)" fill-rule="nonzero" stroke="none" stroke-linejoin="round" fill-opacity="1" stroke-width="0.948"/>
  <path stroke-miterlimit="4" d="m 61.392471,270.22374 c 2.045711,4.0692 2.418378,7.97783 0.697748,11.15756 -4.507844,8.33053 -21.676564,8.50361 -38.347407,0.38657 -16.6708535,-8.11704 -26.5309174,-21.45041 -22.0230751,-29.78094 1.236877,-2.28576 3.4269371,-3.95737 6.2983605,-5.0121" id="path984" inkscape:connector-curvature="0" sodipodi:nodetypes="csssc" opacity="1" stroke-dasharray="none" stroke-opacity="1" paint-order="normal" fill="none" fill-rule="evenodd" stroke="url(#linearGradient986)" stroke-linejoin="round" fill-opacity="0.582" stroke-linecap="round" stroke-width="0.546" stroke-dashoffset="0"/>
  <g transform="matrix(0.931147,0.40273561,-0.40273561,0.931147,81.757547,37.70614)" id="g1249">
   <path stroke-miterlimit="4" inkscape:connector-curvature="0" sodipodi:nodetypes="csssc" id="path2832" d="m 36.851059,243.79794 c 0,0.87298 -7.512206,-0.18978 -8.350271,-0.18978 -0.838062,0 -1.51823,-0.70851 -1.51823,-1.58149 0,-0.87298 0.680168,-1.58149 1.51823,-1.58149 0.838065,0 8.350271,2.47978 8.350271,3.35276 z" opacity="1" stroke-opacity="1" fill="url(#radialGradient2938)" stroke="none" stroke-linejoin="round" fill-opacity="1" stroke-linecap="round" stroke-width="0.63" stroke-dashoffset="0"/>
   <circle stroke-miterlimit="4" r="2.277" cy="241.96" cx="29.01" id="path2887" opacity="1" stroke-dasharray="none" stroke-opacity="1" fill="url(#radialGradient2956)" stroke="none" stroke-linejoin="round" fill-opacity="1" stroke-linecap="round" stroke-width="0.549" stroke-dashoffset="0"/>
  </g>
  <path stroke-miterlimit="4" sodipodi:nodetypes="csssc" id="path2879" d="m 35.147728,239.55067 c -0.361879,0.45653 4.443194,3.36031 4.930095,3.74626 0.486916,0.38594 1.175794,0.32862 1.537647,-0.12787 0.361871,-0.45653 0.260411,-1.1403 -0.226508,-1.52624 -0.486902,-0.38595 -5.879362,-2.54869 -6.241234,-2.09215 z" inkscape:connector-curvature="0" opacity="1" stroke-opacity="1" fill="url(#radialGradient2952)" stroke="none" stroke-linejoin="round" fill-opacity="1" stroke-linecap="round" stroke-width="0.557" stroke-dashoffset="0"/>
  <circle stroke-miterlimit="4" id="path2855" cx="19.435" cy="236.79" r="2.31" opacity="1" stroke-dasharray="none" stroke-opacity="1" fill="url(#radialGradient2946)" stroke="none" stroke-linejoin="round" fill-opacity="1" stroke-linecap="round" stroke-width="0.557" stroke-dashoffset="0"/>
  <circle stroke-miterlimit="4" id="path2865" cx="62.798" cy="278.39" r="2.31" opacity="1" stroke-dasharray="none" stroke-opacity="1" fill="url(#radialGradient2948)" stroke="none" stroke-linejoin="round" fill-opacity="1" stroke-linecap="round" stroke-width="0.557" stroke-dashoffset="0"/>
 </g>
 <g id="g1070" transform="matrix(0.87766243,0,0,0.70146607,245.36131,101.52565)" fill="url(#linearGradient1078)" filter="url(#filter1088)" fill-opacity="1">
  <path sodipodi:nodetypes="cccccccccccccccccccccccccccsssccccccccscccccccccccccccscccccccccccccccccccccc" inkscape:connector-curvature="0" id="path4511" d="m -63.169996,52.511809 c -4.04378,0.102169 -7.9708,3.95384 -7.26172,9.75 l -13.91602,5.466797 c 1.5815,-1.057267 3.321093,-3.135707 2.75391,-5.123047 -0.17308,-0.554677 -0.96081,-0.811879 -2.24414,-0.828125 -1.38405,-0.200921 -3.46363,-0.135887 -6.08594,0.16211 -8.858572,-1.184334 -17.238394,2.627343 -24.447274,3.546875 -0.2345,-0.731979 -0.51517,-1.54723 -0.96289,-2.875 -0.0228,-0.740869 -0.44897,-1.479696 -0.7268,-2.175782 -0.0389,-0.02717 -7.59649,-0.814375 -7.65039,-0.796875 -0.0538,0.01752 -2.87876,2.498084 -5.67187,5.13086 -0.0122,0.0366 1.12684,3.415796 1.62304,4.853515 -6.97704,2.450969 -14.91375,4.952951 -20.0996,9.097658 -0.57827,0.47198 -1.02538,1.01275 -1.37695,1.57813 -2.67155,1.693174 -6.41081,3.183453 -7.19727,6.13281 0.30641,0.98195 2.59338,2.93463 6.4961,2.95703 1.23537,0.007 2.63271,-0.085 4.14648,-0.25195 -0.25834,1.002726 -0.006,1.659091 0.29292,2.61133 l -15.88476,6.24023 c -2.95508,-5.43662 -12.0814,-3.04199 -9.34571,4.919935 1.8805,5.66988 4.84198,-0.56695 6.17969,5.58789 1.48024,4.65811 1.46402,10.86457 5.40625,12.97851 0.44298,0.008 0.88987,0.0396 1.33789,0.0762 1.31528,5.96527 3.03023,11.41339 4.90039,16.66016 -9.87569,-4.64809 -19.66206,-9.66376 -29.61719,-13.98438 -2.82681,-2.61226 -7.89694,-2.39654 -9.71484,0.01 l -1.38477,1.9707 c -5.78425,-3.83537 -11.9696,-6.83543 -18.23437,-8.74804 -11.9338,-3.64334 -22.40819,6.15637 -17.08203,17.81445 7.99747,17.50511 26.21654,32.43045 46.68359,34.79492 8.75693,1.01165 18.80781,-8.71321 12.45703,-19.22851 -3.65764,-6.05616 -8.29445,-11.64821 -13.55273,-16.53125 0.6395,-0.7808 1.20598,-1.65578 1.80469,-2.50782 11.0236,5.31646 22.10833,10.70704 32.73632,15.54883 3.54267,4.78685 8.94696,7.38571 15.5664,8.55664 0.9836,-0.20028 1.93254,-0.41568 2.9082,-0.61914 7.90951,3.14308 15.31073,5.67684 21.89063,7.22461 13.337794,26.32941 20.213324,32.11538 27.351564,38.2207 2.41578,2.06623 5.00884,-0.27743 7.70899,-3.00781 20.34763,-20.57547 28.95803,-49.41546 40.28125,-76.53125 3.737707,-3.88899 8.362082,-7.4281 12.54492,-11.00195 3.857408,-2.07744 7.907753,-1.79035 10.8496096,0.88674 l 12.38281,22.2832 1.5918,-0.69727 -19.9472696,-64.574226 -2.69336,1.041016 c 0,0 3.10751,24.484455 3.27735,25.326175 0.55306,2.74105 -4.20121,5.864705 -8.81836,7.146495 -8.84106,2.4544 -9.75394,6.6246 -12.83789,10.4707 -8.09943,10.1011 -13.4066,17.98425 -20.16797,22.38477 -3.02289,1.96739 -4.73422,1.83404 -6.00391,1.06445 2.07562,-0.85447 4.13831,-1.72237 6.17578,-2.62305 4.52607,-2.00077 9.82082,-5.65212 8.70117,-13.18945 -0.25354,-4.16287 -5.46568,-19.40764 -8.47265,-31.201175 1.93373,-0.95952 3.60891,-2.39311 4.47851,-3.84571 2.73842,-4.57431 2.42623,-7.522515 0.47852,-13.849611 -3.05993,-7.947075 -2.04276,-4.150287 -4.35156,-11.904297 -1.356726,-3.325704 -4.198719,-6.396189 -7.25557,-6.398488 z m -6.12305,12.476563 c 2.52533,2.491919 8.67678,2.417948 6.20312,4.339844 -2.67689,1.94068 -5.211,4.651805 -6.29101,6.187504 -0.9701,6.265985 -0.22441,8.667735 1.78125,10.617185 0.14321,9.13425 4.55686,21.675275 5.41601,28.160165 l -1.7246,-5.5293 -0.42188,-1.34961 c -0.73662,-2.36065 -5.01277,-3.38195 -11.4668,-3.17968 l -9.39843,-30.119155 c 5.37158,-2.935019 10.65877,-5.996869 15.90234,-9.126953 z m -74.421874,32.480473 7.96093,25.507815 c -2.46368,1.59956 -4.41515,3.15008 -5.71874,4.58594 -1.75142,-5.30478 -3.77142,-11.22681 -6.29883,-15.91211 -0.0933,-2.73178 -1.62538,-5.54367 -5.25195,-8.47461 -1.67918,-0.36102 -3.19961,-1.48845 -6.44336,2.25586 -3.55095,3.92949 -2.21433,-1.29146 -1.76953,-4.79297 6.01821,-0.785295 11.85357,-1.850855 17.52148,-3.169925 z" stroke-opacity="1" fill="url(#linearGradient1080)" fill-rule="evenodd" stroke="none" stroke-linejoin="miter" fill-opacity="1" stroke-linecap="butt" stroke-width="1"/>
  <path inkscape:connector-curvature="0" id="path1054" d="m -63.515625,53.132812 c -4.510355,0.356697 -7.175681,5.361466 -6.275391,9.521485 -5.346257,1.837922 -10.446555,4.648991 -15.958984,5.830078 1.26607,-1.718179 4.459654,-3.326255 3.410156,-5.857422 -4.113391,-0.767923 -8.326723,0.08071 -12.492187,-0.279297 -6.778659,0.297546 -13.224589,2.928803 -19.949219,3.806641 -1.15475,-1.961444 -0.51367,-5.930567 -3.74601,-5.388549 -2.79354,-0.409996 -5.73147,-1.122899 -7.48338,1.711552 -3.14865,1.564391 -2.75319,4.079596 -1.21826,6.841958 -0.67406,1.889324 -4.90736,2.025827 -7.03672,3.22957 -5.69496,2.026785 -11.481,4.579855 -15.7168,8.898438 -2.03449,1.320587 -5.15549,2.48603 -5.75,5.050781 2.63129,3.038504 7.19308,2.303515 10.69336,1.960937 -0.0117,3.012614 0.14592,4.651086 -3.59096,5.163967 -4.33483,1.703361 -8.67027,3.405187 -13.00475,5.109471 -1.65789,-4.968821 -10.03687,-3.410656 -8.96679,2.037108 0.0716,2.33842 1.46154,4.91507 4.11523,4.1582 3.0912,0.96582 2.6075,5.23507 3.5631,7.72538 0.76255,3.14141 1.39812,8.46177 5.60292,8.33127 1.35542,6.25657 3.29084,12.36888 5.45898,18.38671 -10.49211,-5.09611 -21.13276,-10.04491 -31.58398,-15.1289 -3.30524,-2.47017 -8.60886,-1.36828 -10.01758,2.7832 -7.21336,-4.49829 -15.12012,-9.2055 -23.82227,-9.73437 -7.20365,-0.27288 -14.00002,6.72207 -12.25976,14.14257 3.38374,11.0663 11.53158,20.24569 20.60851,27.15997 8.46039,6.10112 18.56678,10.67397 29.09852,10.88886 7.8091,-0.56283 14.20354,-9.57833 10.28906,-16.9043 -3.75585,-6.86536 -8.91401,-12.9098 -14.60937,-18.20703 1.53502,-2.79683 3.28269,-4.01214 6.11698,-1.54623 9.85517,4.80794 19.82689,9.47723 29.70919,14.16147 3.76207,4.93283 10.05815,8.16803 16.26152,8.05839 3.67117,-0.85834 7.02249,2.24092 10.60567,2.9377 4.38858,1.71339 9.26587,2.73591 13.55664,4.25586 7.35137,14.0795 15.001004,29.03709 28.136716,38.58203 3.913203,0.10655 6.083897,-4.15611 8.732422,-6.44922 18.737105,-20.84028 26.763433,-48.3472 37.509765,-73.59765 4.394294,-4.18791 8.898668,-8.51475 14.017853,-11.72886 4.728591,-2.20774 11.0315687,0.0831 12.3698109,5.41382 3.35906,6.04512 6.71811997,12.09023 10.07718,18.13535 0.8505336,-2.58089 -1.9204887,-6.8159 -2.41092144,-10.00927 C -5.0050674,104.68392 -10.53476,86.783368 -16.064453,68.882812 c -3.445304,1.419897 0.0058,6.952495 -0.439483,10.161499 0.487493,5.545326 1.807808,11.102662 1.953155,16.623658 -2.393823,5.717791 -9.604611,5.919771 -14.375,8.591801 -5.107972,3.10703 -7.277368,9.13107 -11.379239,13.28594 -5.73888,6.82576 -10.816411,15.32414 -19.370761,18.90156 -1.60274,0.5428 -3.299096,-0.0512 -4.613281,-1.00586 5.954938,-2.63009 14.790607,-4.79076 15.726562,-12.53125 -0.02341,-8.62574 -4.037267,-16.67456 -5.976562,-24.968754 -0.675536,-3.248547 -2.572083,-7.059708 -2.263672,-9.960937 6.01642,-2.601973 7.417561,-10.371426 5.007812,-15.853516 -1.948367,-4.877127 -3.64527,-9.880546 -5.554687,-14.746094 -1.309227,-2.138762 -3.452318,-4.44052 -6.166016,-4.248047 z m -5.371094,11.414063 c 1.723257,2.215107 5.963317,1.343682 6.976563,4.042969 -1.521346,2.636873 -4.915418,3.954748 -6.53711,6.68164 -1.271038,3.417846 -1.19852,8.079042 1.447266,10.84375 0.144863,9.806767 4.307958,19.059826 5.301657,28.674096 -1.371653,1.23074 -2.271258,-5.1359 -3.194235,-7.16824 -2.059794,-3.30257 -6.991668,-2.5445 -10.324489,-2.79851 -2.745185,-1.23254 -2.45289,-6.689682 -4.01169,-9.57272 -2.228696,-7.140497 -4.455354,-14.281631 -6.685305,-21.421735 5.628751,-3.084726 11.189094,-6.292345 16.699218,-9.583984 z m -74.255861,32.742187 c 2.69878,8.645768 5.39592,17.292048 8.0957,25.937498 -2.42641,1.55937 -4.76838,3.29387 -6.68164,5.47071 -1.79134,-5.9747 -4.2515,-11.81617 -6.67382,-17.48047 -0.66725,-3.47922 -3.45891,-8.15302 -7.49024,-7.79297 -2.48352,0.20163 -3.53311,4.83978 -6.14844,3.69531 -1.11358,-2.14375 0.28139,-4.75301 0.2754,-7.01367 6.21414,-0.800443 12.37205,-1.919918 18.45898,-3.343751 z" stroke-opacity="1" fill="url(#linearGradient1082)" fill-rule="evenodd" stroke="none" stroke-linejoin="miter" fill-opacity="1" stroke-linecap="butt" stroke-width="1"/>
  <path inkscape:connector-curvature="0" id="path1058" d="m -63.480469,53.732422 c -4.3815,0.450609 -6.7194,5.349401 -5.625,9.314453 -6.081718,2.099972 -11.815157,5.265762 -18.203125,6.417969 1.087422,-2.34034 4.68652,-3.469357 4.515625,-6.304688 -5.415616,-0.420045 -11.000201,-0.315066 -16.329807,0.268453 -5.343914,0.901336 -10.574504,2.712018 -16.000274,3.381938 -1.32251,-1.970334 -0.63554,-6.258168 -4.08729,-5.541578 -2.26018,-0.541844 -5.2518,-0.577231 -6.50841,1.732984 -2.99331,1.009355 -1.89037,4.567067 -0.95703,6.552735 -1.90556,2.971936 -6.27859,2.418532 -9.07175,4.179126 -5.71235,1.843969 -10.6885,5.249299 -15.26351,9.023106 -1.27506,0.856721 -4.2337,2.081715 -3.81123,3.815346 2.88882,2.440345 6.96424,1.483937 10.38477,1.222656 0.33299,2.552769 -0.18239,6.146667 -3.4375,6.310547 -4.76978,1.551779 -9.3887,3.649105 -14.10156,5.40625 -0.79382,-5.122097 -9.63545,-3.518508 -7.99805,1.638671 -0.0829,2.36165 1.99689,3.70807 4.01758,3.33203 3.77334,1.99578 2.78013,7.2831 4.22461,10.68164 0.49966,2.41794 1.81965,5.68901 4.89062,5.22461 1.46819,6.86942 3.64247,13.56097 6.03321,20.15821 -11.81841,-5.63412 -23.63722,-11.44084 -35.48829,-16.90235 -2.96369,-0.65152 -6.21259,1.25556 -6.85937,4.27344 -8.06689,-4.87059 -16.96944,-10.75826 -26.69141,-9.81055 -7.03195,1.25163 -11.81969,9.72505 -8.0625,16.17578 7.01101,16.32849 22.32802,28.98 39.46094,33.46485 5.43861,1.4519 12.3826,2.15285 16.39649,-2.8711 4.0552,-4.06919 3.90129,-10.77601 0.19535,-15.03666 -3.58589,-5.71447 -8.11545,-10.78534 -13.05668,-15.35787 0.8866,-2.73116 4.28021,-4.93181 6.71094,-2.56054 9.90862,5.23286 20.31626,9.68088 30.34179,14.69335 4.12244,5.46103 11.13673,8.46103 17.90625,7.72852 4.90236,1.20037 9.35055,3.84914 14.32802,4.93145 3.40022,1.48207 8.59829,0.93766 9.64238,5.34115 6.896149,13.09529 14.2587,26.87782 26.551086,35.6024 4.435111,-0.71429 6.532165,-5.48938 9.667969,-8.21289 17.558376,-20.64685 25.271882,-47.21092 35.822266,-71.66797 4.928386,-4.39967 9.529292,-9.66765 15.652343,-12.37891 5.016975,-1.51848 10.7736089,1.66972 11.9984877,6.79399 2.8826657,5.18716 5.76533136,10.37432 8.6479971,15.56148 -6.4628119,-20.06623 -12.4260208,-40.480455 -18.7988278,-60.498044 -1.583295,3.197266 1.116958,6.7723 0.638671,10.208985 0.333041,5.416315 2.298723,11.057882 1.542969,16.447265 -3.856467,7.249204 -14.416402,5.315124 -18.666195,12.271344 -5.346031,7.58558 -11.173368,14.8433 -17.34357,21.77553 -3.186307,2.86364 -6.777215,6.59581 -11.316407,6.69141 -1.562668,-0.19678 -5.456572,-1.96579 -2.383382,-2.55703 5.689114,-2.44278 13.772326,-4.53237 14.809164,-11.78282 -0.295981,-9.92831 -4.872144,-18.99106 -7.042969,-28.564449 -0.569324,-2.499349 -2.785198,-6.575243 0.61914,-7.673829 5.378423,-3.76989 5.12348,-11.441004 2.29649,-16.687768 -2.53797,-5.036867 -2.766225,-11.633397 -7.35313,-15.359106 -0.823209,-0.572865 -1.824372,-0.937739 -2.837891,-0.853516 z m -5.328125,10.070312 c 1.891922,2.536054 6.512935,1.436576 7.574219,4.841797 -2.088034,3.714332 -7.608636,5.20073 -7.373047,10.13086 -0.356181,2.643004 0.631233,5.335297 2.207031,7.324218 0.168504,9.912651 4.385773,19.161671 5.335938,28.966801 -2.239192,1.69525 -2.931657,-2.37486 -3.353516,-3.80274 -0.10244,-3.25975 -2.649082,-5.83268 -5.945312,-5.66797 -2.622249,-0.1412 -6.384996,0.60148 -7.25,-2.75195 -2.684695,-9.846102 -6.093364,-19.504312 -9.019531,-29.302734 5.894194,-3.237378 11.723587,-6.591481 17.496093,-10.041016 z m -73.925786,32.78125 c 2.79696,8.965696 5.5976,17.930636 8.39454,26.896486 -2.82598,1.77107 -5.49671,3.83105 -7.65625,6.39062 -2.29672,-7.66635 -5.49879,-15.0567 -8.51368,-22.42187 -1.30076,-2.79754 -5.75403,-5.14526 -7.67749,-1.60491 -0.89442,2.00319 -4.77753,3.25188 -4.83813,0.0795 -0.027,-2.11087 0.29903,-5.03607 1.17969,-6.412111 6.378,-0.82419 12.69953,-1.989011 18.94726,-3.458985 z" stroke-opacity="1" fill="url(#linearGradient1084)" fill-rule="evenodd" stroke="none" stroke-linejoin="miter" fill-opacity="1" stroke-linecap="butt" stroke-width="1"/>
  <path inkscape:connector-curvature="0" id="path1062" d="m -63.4375,54.332031 c -4.319512,0.321813 -7.064768,6.636695 -4.181641,9.791016 2.254938,1.319659 6.840782,1.45224 6.898438,4.830078 -2.215595,3.819779 -8.096226,5.578644 -7.359375,10.839844 -0.228374,3.600623 3.125998,6.027755 2.483699,9.616729 0.91538,8.80159 4.371372,17.124682 5.166691,25.945772 -1.867326,1.93051 -4.037485,-0.50225 -4.18164,-2.5 -0.153095,-3.44076 -2.437348,-7.19334 -6.277344,-6.67774 -2.878665,0.29543 -7.064489,-0.13665 -7.463099,-3.752 -2.71135,-9.804317 -6.086579,-19.41531 -8.995885,-29.173777 4.669664,-2.57334 9.331889,-5.218578 13.916015,-7.90625 -4.849912,2.024499 -9.740689,4.122763 -14.96875,4.949219 0.768142,-2.852705 4.143753,-3.850532 4.982422,-6.574219 -9.224399,-0.867508 -18.430771,0.427008 -27.296401,2.938394 -1.95009,0.153378 -5.20047,1.940319 -5.55907,-0.991128 -0.31893,-1.971557 -0.98785,-4.550373 -3.49804,-3.908203 -2.88444,-0.951988 -5.27343,0.961661 -7.04883,2.855468 -1.16117,2.405787 2.2659,5.312141 -0.83203,6.779297 -3.67638,1.851934 -7.89623,2.33266 -11.54548,4.335856 -5.44736,2.510386 -10.12912,6.424131 -14.87445,9.949301 -0.40736,1.509104 2.55354,1.689702 3.62891,1.890624 2.13276,0.444191 5.32804,-1.031666 6.60156,0.160157 0.67639,3.111293 -0.86921,7.093732 -4.47441,7.159658 -2.94881,0.980761 -5.82268,2.167983 -8.70527,3.324717 4.85394,-0.764796 9.72182,-1.734996 14.53125,-2.871094 2.94493,9.45671 5.90725,18.93103 8.85937,28.39453 -3.23142,1.98009 -6.24674,4.36971 -8.61914,7.3457 -2.61296,-8.32884 -5.69004,-16.68346 -9.54492,-24.51562 -1.49497,-2.16598 -5.28659,-2.78172 -6.25391,0.19922 -1.02801,1.29009 -3.0717,2.2633 -4.60937,1.29297 1.155,3.85392 0.68437,9.00758 4.25781,11.58398 2.09026,-0.0509 2.4792,1.10619 2.72266,3.16992 1.54541,6.43306 3.6653,12.67677 5.92382,18.9043 -12.39659,-5.82155 -24.62972,-12.09646 -37.16015,-17.56836 -2.84676,-0.38627 -5.56435,1.88989 -5.85352,4.70508 -8.53502,-5.01274 -17.82526,-11.74508 -28.18359,-9.86133 -6.54297,1.91926 -9.90845,10.44193 -5.92145,16.13807 8.08766,17.38599 25.35368,30.62075 44.46185,33.04108 7.24222,1.24589 14.41909,-5.98165 12.50452,-13.13618 -1.71862,-5.32667 -5.82511,-9.5414 -9.25391,-13.86133 -1.84455,-2.45471 -4.96332,-4.51256 -6.31445,-6.91016 0.89765,-3.46762 5.52928,-5.33612 8.15119,-2.56052 9.81204,5.17569 20.09956,9.46787 29.93475,14.54099 4.15261,5.7003 11.3845,8.06928 18.16788,7.67125 6.49788,2.14235 12.76531,4.99532 19.50204,6.36782 4.65592,1.12996 4.97264,6.75353 7.45307,10.03525 5.957391,10.87629 12.730969,22.14853 23.127008,29.23037 4.764146,-1.54086 7.025849,-6.65107 10.525391,-9.87695 16.480475,-20.41049 23.89933,-46.11554 34.267578,-69.78125 5.436288,-4.59423 10.250805,-10.98134 17.419922,-12.83594 5.173511,-0.73313 10.2348718,3.01624 11.4848129,7.99321 1.7986821,3.23664 3.5973641,6.47328 5.39604623,9.70992 C -5.58114,107.39485 -10.893088,89.140358 -16.34375,72.273438 c 0.973225,3.879717 1.21631,7.836649 1.621094,11.757812 0.366825,4.493943 2.577774,9.727852 0.232609,13.928805 -4.685704,6.339445 -14.869631,4.730045 -18.648548,12.108995 -6.708415,8.78336 -12.995161,18.24486 -21.725849,25.17016 -2.905145,2.40851 -8.248308,3.97645 -10.817197,0.35845 0.140677,-2.14441 3.470905,-1.73725 4.828306,-2.8576 5.267339,-1.81581 12.241365,-5.67468 10.933411,-12.26121 -1.16628,-10.90164 -6.512517,-20.872037 -8.103514,-31.660491 0.23617,-2.935375 4.212355,-3.0866 4.921876,-5.908203 2.743955,-5.187992 0.247247,-10.908997 -1.984376,-15.74414 -1.801037,-4.441086 -2.536808,-12.052883 -8.351562,-12.833985 z m -102.96289,42.677735 c -4.70064,-0.03795 -3.78189,8.062454 0.74414,6.953124 1.22228,0.40133 2.35258,2.92513 2.06654,0.50814 -0.28286,-2.5641 2.58074,-6.179991 -1.12513,-7.320639 -0.54352,-0.163242 -1.12263,-0.202426 -1.68555,-0.140625 z" stroke-opacity="1" fill="url(#linearGradient1086)" fill-rule="evenodd" stroke="none" stroke-linejoin="miter" fill-opacity="1" stroke-linecap="butt" stroke-width="1"/>
 </g>
 <g id="g1349" transform="matrix(0.87766243,0,0,0.87766243,32.79738,61.97911)">
  <g transform="matrix(0.15946,-0.04975784,0.04975784,0.15946,-82.562049,29.241508)" id="g4224">
   <path inkscape:connector-curvature="0" d="m 1700.283,777.6413 -17.2402,1.15039 c 0,0 -25.9071,145.46119 -26.4375,150.57422 -1.7273,16.65064 -34.4652,26.03139 -63.1367,25.12304 -54.901,-1.73933 -67.5528,20.46522 -92.0352,36.94532 -64.2985,43.28193 -108.6873,78.86433 -155.1738,91.95513 -41.6879,11.7394 -38.1489,-15.4089 -50.5742,-26.4375 l -305.74613,17.2402 c 33.33333,239.9342 66.06353,290.7909 100.00003,344.8281 10.121,16.1158 29.1243,7.3412 49.4238,-3.4472 152.9718,-81.2989 253.6054,-230.75 366.668,-365.5176 27.7075,-33.0268 59.3578,-46.6623 93.1035,-40.2305 22.1399,4.2198 46.3583,1.5378 58.6211,24.1387 l 31.0332,149.4258 10.3457,-1.1504 z m -209.6328,261.1934 c 2.8166,-1.5364 -209.2409,234.4846 -232.5391,247.6191 -3.2827,-51.2784 64.2902,-119.6954 232.5391,-247.6191 z" id="path4170" stroke-opacity="1" fill="url(#linearGradient4272)" fill-rule="evenodd" stroke="none" stroke-linejoin="miter" fill-opacity="1" stroke-linecap="butt" stroke-width="1"/>
   <ellipse id="ellipse4192" cx="1128.45" cy="1143.07" rx="84.09" ry="79.55" stroke-miterlimit="4" opacity="0.714" stroke-dasharray="none" stroke-opacity="0" fill="#bababa" fill-rule="nonzero" stroke="none" stroke-linejoin="round" fill-opacity="0.291" stroke-linecap="round" stroke-width="1"/>
   <path d="m 1219.8132,1267.1607 c 0.4796,-63.2569 78.1213,-97.4934 27.2727,-200.9091 l -190,3.6363 c -74.41861,92.7909 29.4511,137.6162 35.4546,225.4546 z" id="path4178" inkscape:connector-curvature="0" sodipodi:nodetypes="ccccc" stroke-opacity="1" fill="url(#linearGradient4186)" fill-rule="evenodd" stroke="none" stroke-linejoin="miter" fill-opacity="1" stroke-linecap="butt" stroke-width="1"/>
   <ellipse id="path4188" cx="1118.45" cy="1149.43" rx="67.73" ry="62.27" stroke-miterlimit="4" opacity="1" stroke-dasharray="none" stroke-opacity="0" fill="#848484" fill-rule="nonzero" stroke="none" stroke-linejoin="round" fill-opacity="1" stroke-linecap="round" stroke-width="1"/>
   <ellipse ry="62.27" rx="67.73" cy="1163.98" cx="1112.99" id="ellipse4190" stroke-miterlimit="4" opacity="1" stroke-dasharray="none" stroke-opacity="0" fill="#dddddd" fill-rule="nonzero" stroke="none" stroke-linejoin="round" fill-opacity="1" stroke-linecap="round" stroke-width="1"/>
   <path d="m 1024.6575,1254.7945 c 32.401,32.4392 35.3724,114.1854 81.1686,154.5335 122.4964,-42.7524 173.9394,-125.047 327.0506,-290.1499 94.5657,-118.9306 86.619,-118.8865 219.4668,-115.8603" id="path4222" inkscape:connector-curvature="0" sodipodi:nodetypes="cccc" stroke-miterlimit="4" stroke-dasharray="none" stroke-opacity="0.424" fill="none" filter="url(#filter1051)" fill-rule="evenodd" stroke="#ffffff" stroke-linejoin="miter" stroke-linecap="butt" stroke-width="7.2"/>
  </g>
  <path sodipodi:nodetypes="ccccccccccc" inkscape:connector-curvature="0" id="path4319" d="m 83.330537,111.4514 c -0.121578,-3.07851 8.52885,-6.31547 10.232435,-1.96063 6.657568,9.91695 9.993208,29.49656 13.600768,31.73914 l 73.02012,-22.29225 c 3.18412,-2.02546 -5.15835,-21.270069 -4.86322,-33.356535 0.21327,-3.72764 7.54896,-7.594124 9.41933,-4.171501 1.91579,11.541424 9.83816,33.698266 10.15215,38.853506 1.11965,7.53734 -4.17423,11.18861 -8.70029,13.18938 -22.81623,10.08602 -47.97912,17.20044 -76.49412,23.00659 -7.89776,-1.39706 -14.076881,-4.81392 -17.412748,-11.57226 -3.805487,-10.08247 -7.448092,-20.37585 -8.954425,-33.43544 z" stroke-opacity="1" fill="url(#linearGradient4327)" fill-rule="evenodd" stroke="none" stroke-linejoin="miter" fill-opacity="1" stroke-linecap="butt" stroke-width="1"/>
  <g transform="matrix(0.15946,-0.04975784,0.04975784,0.15946,16.137075,28.412408)" id="g4353">
   <rect id="rect4329" width="495.07" height="168.31" x="291.55" y="685.92" ry="59.15" rx="246.83" stroke-miterlimit="4" opacity="1" stroke-dasharray="none" stroke-opacity="0.148" fill="url(#linearGradient4337)" fill-rule="nonzero" stroke="none" stroke-linejoin="round" fill-opacity="1" stroke-linecap="round" stroke-width="7.2"/>
   <rect rx="246.83" ry="59.15" y="685.21" x="291.55" height="126.76" width="495.07" id="rect4339" stroke-miterlimit="4" opacity="1" stroke-dasharray="none" stroke-opacity="0.148" fill="url(#linearGradient4341)" fill-rule="nonzero" stroke="none" stroke-linejoin="round" fill-opacity="1" stroke-linecap="round" stroke-width="7.2"/>
   <rect id="rect4343" width="376.06" height="330.28" x="350.7" y="453.52" ry="50" rx="188.03" stroke-miterlimit="4" opacity="1" stroke-dasharray="none" stroke-opacity="0.148" fill="url(#linearGradient4351)" fill-rule="nonzero" stroke="none" stroke-linejoin="round" fill-opacity="1" stroke-linecap="round" stroke-width="7.2"/>
  </g>
  <g transform="matrix(0.15946,-0.04975784,0.04975784,0.15946,16.137075,28.412408)" id="g4418" stroke-opacity="1" stroke="#7ced31">
   <path d="m 352.11268,731.69014 c -0.3526,63.76436 373.59166,56.75982 374.64788,0" id="path4358" inkscape:connector-curvature="0" sodipodi:nodetypes="cc" stroke-miterlimit="4" stroke-dasharray="none" stroke-opacity="1" fill="none" fill-rule="evenodd" stroke="#7ced31" stroke-linejoin="miter" stroke-linecap="butt" stroke-width="4"/>
   <path sodipodi:nodetypes="cc" inkscape:connector-curvature="0" id="path4360" d="m 352.11268,722.53521 c -0.3526,63.76436 373.59166,56.75982 374.64788,0" stroke-miterlimit="4" stroke-dasharray="none" stroke-opacity="1" fill="none" fill-rule="evenodd" stroke="#7ced31" stroke-linejoin="miter" stroke-linecap="butt" stroke-width="4"/>
   <path d="m 352.11268,712.67606 c -0.3526,63.76436 373.59166,56.75982 374.64788,0" id="path4362" inkscape:connector-curvature="0" sodipodi:nodetypes="cc" stroke-miterlimit="4" stroke-dasharray="none" stroke-opacity="1" fill="none" fill-rule="evenodd" stroke="#7ced31" stroke-linejoin="miter" stroke-linecap="butt" stroke-width="4"/>
   <path sodipodi:nodetypes="cc" inkscape:connector-curvature="0" id="path4364" d="m 352.11268,704.22535 c -0.3526,63.76436 373.59166,56.75982 374.64788,0" stroke-miterlimit="4" stroke-dasharray="none" stroke-opacity="1" fill="none" fill-rule="evenodd" stroke="#7ced31" stroke-linejoin="miter" stroke-linecap="butt" stroke-width="4"/>
   <path d="m 352.11268,695.07042 c -0.3526,63.76436 373.59166,56.75982 374.64788,0" id="path4366" inkscape:connector-curvature="0" sodipodi:nodetypes="cc" stroke-miterlimit="4" stroke-dasharray="none" stroke-opacity="1" fill="none" fill-rule="evenodd" stroke="#7ced31" stroke-linejoin="miter" stroke-linecap="butt" stroke-width="4"/>
   <path sodipodi:nodetypes="cc" inkscape:connector-curvature="0" id="path4368" d="m 352.11268,685.21127 c -0.3526,63.76436 373.59166,56.75982 374.64788,0" stroke-miterlimit="4" stroke-dasharray="none" stroke-opacity="1" fill="none" fill-rule="evenodd" stroke="#7ced31" stroke-linejoin="miter" stroke-linecap="butt" stroke-width="4"/>
   <path sodipodi:nodetypes="cc" inkscape:connector-curvature="0" id="path4370" d="m 352.11268,673.94366 c -0.3526,63.76436 373.59166,56.75982 374.64788,0" stroke-miterlimit="4" stroke-dasharray="none" stroke-opacity="1" fill="none" fill-rule="evenodd" stroke="#7ced31" stroke-linejoin="miter" stroke-linecap="butt" stroke-width="4"/>
   <path d="m 352.11268,664.78873 c -0.3526,63.76436 373.59166,56.75982 374.64788,0" id="path4372" inkscape:connector-curvature="0" sodipodi:nodetypes="cc" stroke-miterlimit="4" stroke-dasharray="none" stroke-opacity="1" fill="none" fill-rule="evenodd" stroke="#7ced31" stroke-linejoin="miter" stroke-linecap="butt" stroke-width="4"/>
   <path sodipodi:nodetypes="cc" inkscape:connector-curvature="0" id="path4374" d="m 352.11268,654.92958 c -0.3526,63.76436 373.59166,56.75982 374.64788,0" stroke-miterlimit="4" stroke-dasharray="none" stroke-opacity="1" fill="none" fill-rule="evenodd" stroke="#7ced31" stroke-linejoin="miter" stroke-linecap="butt" stroke-width="4"/>
   <path d="m 352.11268,646.47887 c -0.3526,63.76436 373.59166,56.75982 374.64788,0" id="path4376" inkscape:connector-curvature="0" sodipodi:nodetypes="cc" stroke-miterlimit="4" stroke-dasharray="none" stroke-opacity="1" fill="none" fill-rule="evenodd" stroke="#7ced31" stroke-linejoin="miter" stroke-linecap="butt" stroke-width="4"/>
   <path sodipodi:nodetypes="cc" inkscape:connector-curvature="0" id="path4378" d="m 352.11268,637.32394 c -0.3526,63.76436 373.59166,56.75982 374.64788,0" stroke-miterlimit="4" stroke-dasharray="none" stroke-opacity="1" fill="none" fill-rule="evenodd" stroke="#7ced31" stroke-linejoin="miter" stroke-linecap="butt" stroke-width="4"/>
   <path d="m 352.11268,627.46479 c -0.3526,63.76436 373.59166,56.75982 374.64788,0" id="path4380" inkscape:connector-curvature="0" sodipodi:nodetypes="cc" stroke-miterlimit="4" stroke-dasharray="none" stroke-opacity="1" fill="none" fill-rule="evenodd" stroke="#7ced31" stroke-linejoin="miter" stroke-linecap="butt" stroke-width="4"/>
   <path d="m 352.11268,616.19718 c -0.3526,63.76436 373.59166,56.75982 374.64788,0" id="path4382" inkscape:connector-curvature="0" sodipodi:nodetypes="cc" stroke-miterlimit="4" stroke-dasharray="none" stroke-opacity="1" fill="none" fill-rule="evenodd" stroke="#7ced31" stroke-linejoin="miter" stroke-linecap="butt" stroke-width="4"/>
   <path sodipodi:nodetypes="cc" inkscape:connector-curvature="0" id="path4384" d="m 352.11268,607.04225 c -0.3526,63.76436 373.59166,56.75982 374.64788,0" stroke-miterlimit="4" stroke-dasharray="none" stroke-opacity="1" fill="none" fill-rule="evenodd" stroke="#7ced31" stroke-linejoin="miter" stroke-linecap="butt" stroke-width="4"/>
   <path d="m 352.11268,597.1831 c -0.3526,63.76436 373.59166,56.75982 374.64788,0" id="path4386" inkscape:connector-curvature="0" sodipodi:nodetypes="cc" stroke-miterlimit="4" stroke-dasharray="none" stroke-opacity="1" fill="none" fill-rule="evenodd" stroke="#7ced31" stroke-linejoin="miter" stroke-linecap="butt" stroke-width="4"/>
   <path sodipodi:nodetypes="cc" inkscape:connector-curvature="0" id="path4388" d="m 352.11268,588.73239 c -0.3526,63.76436 373.59166,56.75982 374.64788,0" stroke-miterlimit="4" stroke-dasharray="none" stroke-opacity="1" fill="none" fill-rule="evenodd" stroke="#7ced31" stroke-linejoin="miter" stroke-linecap="butt" stroke-width="4"/>
   <path d="m 352.11268,579.57746 c -0.3526,63.76436 373.59166,56.75982 374.64788,0" id="path4390" inkscape:connector-curvature="0" sodipodi:nodetypes="cc" stroke-miterlimit="4" stroke-dasharray="none" stroke-opacity="1" fill="none" fill-rule="evenodd" stroke="#7ced31" stroke-linejoin="miter" stroke-linecap="butt" stroke-width="4"/>
   <path sodipodi:nodetypes="cc" inkscape:connector-curvature="0" id="path4392" d="m 352.11268,569.71831 c -0.3526,63.76436 373.59166,56.75982 374.64788,0" stroke-miterlimit="4" stroke-dasharray="none" stroke-opacity="1" fill="none" fill-rule="evenodd" stroke="#7ced31" stroke-linejoin="miter" stroke-linecap="butt" stroke-width="4"/>
   <path sodipodi:nodetypes="cc" inkscape:connector-curvature="0" id="path4394" d="m 352.11268,559.85915 c -0.3526,63.76436 373.59166,56.75982 374.64788,0" stroke-miterlimit="4" stroke-dasharray="none" stroke-opacity="1" fill="none" fill-rule="evenodd" stroke="#7ced31" stroke-linejoin="miter" stroke-linecap="butt" stroke-width="4"/>
   <path d="m 352.11268,550.70422 c -0.3526,63.76436 373.59166,56.75982 374.64788,0" id="path4396" inkscape:connector-curvature="0" sodipodi:nodetypes="cc" stroke-miterlimit="4" stroke-dasharray="none" stroke-opacity="1" fill="none" fill-rule="evenodd" stroke="#7ced31" stroke-linejoin="miter" stroke-linecap="butt" stroke-width="4"/>
   <path sodipodi:nodetypes="cc" inkscape:connector-curvature="0" id="path4398" d="m 352.11268,540.84507 c -0.3526,63.76436 373.59166,56.75982 374.64788,0" stroke-miterlimit="4" stroke-dasharray="none" stroke-opacity="1" fill="none" fill-rule="evenodd" stroke="#7ced31" stroke-linejoin="miter" stroke-linecap="butt" stroke-width="4"/>
   <path d="m 352.11268,532.39436 c -0.3526,63.76436 373.59166,56.75982 374.64788,0" id="path4400" inkscape:connector-curvature="0" sodipodi:nodetypes="cc" stroke-miterlimit="4" stroke-dasharray="none" stroke-opacity="1" fill="none" fill-rule="evenodd" stroke="#7ced31" stroke-linejoin="miter" stroke-linecap="butt" stroke-width="4"/>
   <path sodipodi:nodetypes="cc" inkscape:connector-curvature="0" id="path4402" d="m 352.11268,523.23943 c -0.3526,63.76436 373.59166,56.75982 374.64788,0" stroke-miterlimit="4" stroke-dasharray="none" stroke-opacity="1" fill="none" fill-rule="evenodd" stroke="#7ced31" stroke-linejoin="miter" stroke-linecap="butt" stroke-width="4"/>
   <path d="m 352.11268,513.38028 c -0.3526,63.76436 373.59166,56.75982 374.64788,0" id="path4404" inkscape:connector-curvature="0" sodipodi:nodetypes="cc" stroke-miterlimit="4" stroke-dasharray="none" stroke-opacity="1" fill="none" fill-rule="evenodd" stroke="#7ced31" stroke-linejoin="miter" stroke-linecap="butt" stroke-width="4"/>
   <path d="m 352.11268,505.6338 c -0.3526,63.76436 373.59166,56.75982 374.64788,0" id="path4406" inkscape:connector-curvature="0" sodipodi:nodetypes="cc" stroke-miterlimit="4" stroke-dasharray="none" stroke-opacity="1" fill="none" fill-rule="evenodd" stroke="#7ced31" stroke-linejoin="miter" stroke-linecap="butt" stroke-width="4"/>
   <path sodipodi:nodetypes="cc" inkscape:connector-curvature="0" id="path4408" d="m 352.11268,496.47887 c -0.3526,63.76436 373.59166,56.75982 374.64788,0" stroke-miterlimit="4" stroke-dasharray="none" stroke-opacity="1" fill="none" fill-rule="evenodd" stroke="#7ced31" stroke-linejoin="miter" stroke-linecap="butt" stroke-width="4"/>
   <path d="m 352.11268,486.61972 c -0.3526,63.76436 373.59166,56.75982 374.64788,0" id="path4410" inkscape:connector-curvature="0" sodipodi:nodetypes="cc" stroke-miterlimit="4" stroke-dasharray="none" stroke-opacity="1" fill="none" fill-rule="evenodd" stroke="#7ced31" stroke-linejoin="miter" stroke-linecap="butt" stroke-width="4"/>
   <path sodipodi:nodetypes="cc" inkscape:connector-curvature="0" id="path4412" d="m 352.11268,478.16901 c -0.3526,63.76436 373.59166,56.75982 374.64788,0" stroke-miterlimit="4" stroke-dasharray="none" stroke-opacity="1" fill="none" fill-rule="evenodd" stroke="#7ced31" stroke-linejoin="miter" stroke-linecap="butt" stroke-width="4"/>
   <path d="m 352.11268,469.01408 c -0.3526,63.76436 373.59166,56.75982 374.64788,0" id="path4414" inkscape:connector-curvature="0" sodipodi:nodetypes="cc" stroke-miterlimit="4" stroke-dasharray="none" stroke-opacity="1" fill="none" fill-rule="evenodd" stroke="#7ced31" stroke-linejoin="miter" stroke-linecap="butt" stroke-width="4"/>
   <path sodipodi:nodetypes="cc" inkscape:connector-curvature="0" id="path4416" d="m 352.11268,459.15493 c -0.3526,63.76436 373.59166,56.75982 374.64788,0" stroke-miterlimit="4" stroke-dasharray="none" stroke-opacity="1" fill="none" fill-rule="evenodd" stroke="#7ced31" stroke-linejoin="miter" stroke-linecap="butt" stroke-width="4"/>
  </g>
  <g transform="matrix(0.15946,-0.04975784,0.04975784,0.15946,24.241751,52.776831)" id="g4187">
   <path d="m 765.0017,303.81445 c -2e-5,5.3949 -3.24828,16.68511 -20.0391,22.77193 -38.81286,14.07001 -122.8599,22.48767 -212.50964,24.35362 -84.16415,1.75177 -163.45696,-2.46724 -205.78364,-15.94166 -22.26313,-7.08732 -31.84809,-22.32808 -31.84811,-28.48604 -4e-5,-17.86547 109.19864,-17.59572 237.63175,-20.2689 128.43314,-2.67317 232.54878,-0.29443 232.54874,17.57105 z" id="ellipse4171" inkscape:connector-curvature="0" sodipodi:nodetypes="sssssss" stroke-miterlimit="4" opacity="1" stroke-dasharray="none" stroke-opacity="0.204" fill="url(#radialGradient4277)" fill-rule="nonzero" stroke="#e0e0e0" stroke-linejoin="round" fill-opacity="1" stroke-linecap="round" stroke-width="2.395"/>
   <path d="m 763.01582,304.11127 c -2e-5,17.86547 -104.11562,36.03682 -232.54872,36.03682 -128.4331,0 -232.5487,-18.17135 -232.54872,-36.03682 -2e-5,-17.86548 104.11559,-32.34831 232.54872,-32.34831 128.43313,0 232.54874,14.48283 232.54872,32.34831 z" id="path4169" inkscape:connector-curvature="0" sodipodi:nodetypes="sssss" stroke-miterlimit="4" opacity="1" stroke-dasharray="none" stroke-opacity="0.204" fill="url(#radialGradient4267)" fill-rule="nonzero" stroke="#bdbdbd" stroke-linejoin="round" fill-opacity="1" stroke-linecap="round" stroke-width="2.395"/>
   <path sodipodi:nodetypes="sssssss" inkscape:connector-curvature="0" id="path4174" d="m 730.19719,304.5713 c 0,-5.4106 -3.79072,-17.18887 -18.0046,-22.94292 -32.85617,-13.30077 -102.96338,-19.46551 -178.85436,-19.46551 -71.24729,0 -139.93231,1.17945 -175.76302,15.57664 -18.84637,7.57267 -25.39884,27.7649 -25.39886,33.94079 -4e-5,17.91747 91.62,19.46584 200.34221,19.46584 108.72222,0 197.67868,-8.65737 197.67863,-26.57484 z" stroke-miterlimit="4" opacity="1" stroke-dasharray="none" stroke-opacity="0.204" fill="url(#linearGradient4259)" fill-rule="nonzero" stroke="#e0e0e0" stroke-linejoin="round" fill-opacity="1" stroke-linecap="round" stroke-width="2.207"/>
   <ellipse id="path4176" cx="532.49" cy="283.18" rx="162.61" ry="17.06" stroke-miterlimit="4" opacity="1" stroke-dasharray="none" stroke-opacity="0.204" fill="url(#linearGradient4161)" fill-rule="nonzero" stroke="#e0e0e0" stroke-linejoin="round" fill-opacity="1" stroke-linecap="round" stroke-width="2.75"/>
   <ellipse ry="10.809" rx="148.56" cy="283.65" cx="533.61" id="ellipse4178" stroke-miterlimit="4" opacity="1" stroke-dasharray="none" stroke-opacity="0.204" fill="#c0c0c0" fill-rule="nonzero" stroke="#e0e0e0" stroke-linejoin="round" fill-opacity="1" stroke-linecap="round" stroke-width="2.092"/>
   <path d="m 626.98093,283.40256 c 0,8.23213 -43.4599,14.90559 -97.07041,14.90559 -53.61051,0 -97.07041,-6.67346 -97.07041,-14.90559 0,-8.23213 43.4599,-25.15149 97.07041,-25.15149 53.61051,0 97.07041,16.91936 97.07041,25.15149 z" id="path4180" inkscape:connector-curvature="0" sodipodi:nodetypes="sssss" stroke-miterlimit="4" opacity="1" stroke-dasharray="none" stroke-opacity="1" fill="url(#radialGradient4170)" fill-rule="nonzero" stroke="#a7a7a7" stroke-linejoin="round" fill-opacity="1" stroke-linecap="round" stroke-width="2.395"/>
   <path d="m 571.90306,229.9523 c 0.17405,0.22471 0.91847,37.17425 0.75358,37.40304 -0.38918,11.48971 -85.55983,14.15184 -83.86101,1.0083 -0.17402,-0.22471 -0.91845,-37.17427 -0.75358,-37.40304 0.16491,-0.22879 41.21481,-19.20159 41.55373,-19.20567 0.33893,-0.004 42.13326,17.97265 42.30728,18.19737 z" id="path4182" inkscape:connector-curvature="0" sodipodi:nodetypes="cccccc" stroke-miterlimit="4" opacity="1" stroke-dasharray="none" stroke-opacity="0.204" fill="#a6a6a6" fill-rule="nonzero" stroke="#e0e0e0" stroke-linejoin="round" fill-opacity="1" stroke-linecap="round" stroke-width="1.433"/>
   <path d="m 515.16393,219.67213 -16.80327,7.78689 -1.63935,46.31148 -34.01639,17.62294 36.47541,3.68852 15.98361,-18.85246 z" id="path4173" inkscape:connector-curvature="0" sodipodi:nodetypes="ccccccc" stroke-opacity="1" fill="#7e7e7e" fill-rule="evenodd" stroke="none" stroke-linejoin="miter" fill-opacity="0.593" stroke-linecap="butt" stroke-width="1"/>
   <path sodipodi:nodetypes="ccccccc" inkscape:connector-curvature="0" id="path4175" d="m 536.06559,216.39345 14.34425,6.14754 2.04919,51.63935 53.27868,16.39343 c -17.34973,3.44361 -34.69945,5.81926 -52.04918,4.91803 l -18.03279,-19.67213 z" stroke-opacity="1" fill="#d6d6d6" fill-rule="evenodd" stroke="none" stroke-linejoin="miter" fill-opacity="0.423" stroke-linecap="butt" stroke-width="1"/>
   <path sodipodi:nodetypes="cccccccc" inkscape:connector-curvature="0" id="path4177" d="m 571.90306,229.9523 c 0.17405,0.22471 0.91847,11.76441 0.75358,11.9932 -0.15416,4.55128 -8.27381,7.97465 -20.0329,9.63262 -14.27096,1.23528 -28.65577,0.8355 -41.53389,-0.90294 -7.83375,-1.31635 -15.07258,-7.81987 -21.88438,-10.59023 -0.17402,-0.22471 6.04876,-2.74804 -1.16342,-9.12435 20.65671,-10.06486 41.21481,-19.20159 41.55373,-19.20567 0.33893,-0.004 42.13326,17.97265 42.30728,18.19737 z" stroke-miterlimit="4" opacity="1" stroke-dasharray="none" stroke-opacity="0.204" fill="url(#linearGradient4185)" fill-rule="nonzero" stroke="none" stroke-linejoin="round" fill-opacity="1" stroke-linecap="round" stroke-width="1.433"/>
  </g>
  <g transform="matrix(0.15946,-0.04975784,0.04975784,0.15946,17.113405,21.872606)" id="g4262">
   <path d="m 497.26027,982.19178 c 35.72552,-29.35099 122.82578,36.61192 78.0822,79.45202 -20.81974,61.4971 -111.63147,14.6704 -104.10959,-19.178 C 353.31238,995.39079 187.46531,832.49323 27.39726,683.56164 L 53.424658,656.16438 C 194.83619,775.72963 315.83368,929.31829 497.26027,982.19178 Z" id="path4232" inkscape:connector-curvature="0" sodipodi:nodetypes="cccccc" stroke-opacity="1" fill="url(#linearGradient4240)" fill-rule="evenodd" stroke="none" stroke-linejoin="miter" fill-opacity="1" stroke-linecap="butt" stroke-width="1"/>
   <circle id="path4242" cx="527.4" cy="1032.88" r="49.32" stroke-miterlimit="4" opacity="1" stroke-dasharray="none" stroke-opacity="0.308" fill="url(#radialGradient4250)" fill-rule="nonzero" stroke="none" stroke-linejoin="round" fill-opacity="1" stroke-linecap="round" stroke-width="7.2"/>
  </g>
  <g transform="matrix(-0.10594962,-0.0744393,0.0744393,-0.10594962,9.7695817,148.87636)" id="g4307">
   <rect id="rect4295" width="101.15" height="108.05" x="-252.87" y="270.11" ry="44.22" rx="50.575" stroke-miterlimit="4" opacity="1" stroke-dasharray="none" stroke-opacity="0.308" fill="url(#linearGradient4305)" fill-rule="nonzero" stroke="none" stroke-linejoin="round" fill-opacity="1" stroke-linecap="round" stroke-width="7.2"/>
   <rect rx="48.85" ry="31.609" y="268.97" x="-251.72" height="63.22" width="97.7" id="rect4297" stroke-miterlimit="4" opacity="1" stroke-dasharray="none" stroke-opacity="0.308" fill="#d2d2d2" fill-rule="nonzero" stroke="none" stroke-linejoin="round" fill-opacity="1" stroke-linecap="round" stroke-width="7.2"/>
  </g>
  <g transform="matrix(0.15946,-0.04975784,0.04975784,0.15946,22.65481,27.384286)" id="g4290">
   <path d="m -242.82861,604.27949 c -9.64864,-76.12053 67.69244,-113.43527 129.39395,-71.33397 C -27.808026,591.37186 41.197364,692.07377 67.387265,798.69895 84.929122,870.11593 10.147339,907.76707 -38.092186,886.37018 -150.8394,836.36057 -228.34077,718.57772 -242.82861,604.27949 Z" id="path4252" inkscape:connector-curvature="0" sodipodi:nodetypes="sssss" stroke-opacity="1" fill="url(#linearGradient4260)" fill-rule="evenodd" stroke="none" stroke-linejoin="miter" fill-opacity="1" stroke-linecap="butt" stroke-width="1"/>
   <path d="m -229.88506,588.50575 c 7.82944,-21.85862 25.34616,-29.34809 43.7069,-35.20116 9.76919,-3.11423 13.28865,1.88077 17.12644,6.17817 71.862331,80.46849 134.567583,165.50717 190.8908,265.8046 5.169509,9.20559 10.511577,9.5525 3.448276,20.68965 -6.338612,9.99449 -34.2977838,26.60288 -37.514367,26.43678 -9.678781,-0.49981 -15.070012,-2.96545 -21.106322,-6.89655 C -122.91969,807.1748 -187.76831,718.97445 -231.03448,608.04598 c -2.27075,-5.82189 -1.54045,-12.03051 1.14942,-19.54023 z" id="path4278" inkscape:connector-curvature="0" sodipodi:nodetypes="sssssssss" stroke-opacity="1" fill="url(#linearGradient4288)" fill-rule="evenodd" stroke="none" stroke-linejoin="miter" fill-opacity="1" stroke-linecap="butt" stroke-width="1"/>
   <path sodipodi:nodetypes="scsccssss" inkscape:connector-curvature="0" id="path4280" d="m -229.88506,588.50575 c 5.82312,-21.53438 33.30184,-32.00285 33.7069,-31.86783 0,0 -3.74771,10.69006 4.62644,24.09484 54.53503,87.296 102.033997,171.59535 184.2241333,256.63793 21.0028427,17.53893 32.6149427,8.60632 32.6149427,8.60632 0,0 -34.2977838,26.60288 -37.514367,26.43678 -9.678781,-0.49981 -15.070012,-2.96545 -21.106322,-6.89655 C -122.91969,807.1748 -187.76831,718.97445 -231.03448,608.04598 c -2.27075,-5.82189 -0.93284,-11.83987 1.14942,-19.54023 z" stroke-opacity="1" fill="url(#linearGradient4317)" fill-rule="evenodd" stroke="none" stroke-linejoin="miter" fill-opacity="1" stroke-linecap="butt" stroke-width="1"/>
  </g>
  <path sodipodi:nodetypes="cccccccc" inkscape:connector-curvature="0" id="path4450" d="m 83.473181,105.98477 c 3.243749,-3.74431 4.763898,-2.61797 6.443074,-2.25695 5.790046,4.67942 6.239414,9.05782 4.022511,13.28594 -2.496017,6.74159 -6.458803,5.07774 -10.142488,5.01331 -3.942229,-2.11394 -3.924867,-8.31964 -5.4051,-12.97775 -1.337708,-6.15485 -4.299629,0.0813 -6.180132,-5.58858 -2.809514,-8.17676 6.894695,-10.485438 9.573834,-4.466173 0.507256,2.365553 -2.773638,11.927793 1.688301,6.990203 z" stroke-miterlimit="4" stroke-dasharray="none" stroke-opacity="1" fill="url(#linearGradient4458)" fill-rule="evenodd" stroke="url(#linearGradient4490)" stroke-linejoin="miter" fill-opacity="1" stroke-linecap="butt" stroke-width="0.568"/>
  <circle transform="rotate(-17.329991)" r="5.529" cy="134.51" cx="48.937" id="path4460" stroke-miterlimit="4" opacity="1" stroke-dasharray="none" stroke-opacity="1" fill="url(#radialGradient4468)" fill-rule="nonzero" stroke="url(#linearGradient4476)" stroke-linejoin="round" fill-opacity="1" stroke-linecap="round" stroke-width="0.668"/>
  <circle transform="rotate(-17.329991)" id="circle4478" cx="42.82" cy="119.1" r="3.199" stroke-miterlimit="4" opacity="1" stroke-dasharray="none" stroke-opacity="1" fill="url(#radialGradient4480)" fill-rule="nonzero" stroke="url(#linearGradient4482)" stroke-linejoin="round" fill-opacity="1" stroke-linecap="round" stroke-width="0.387"/>
  <path d="m 179.84974,69.879924 c -2.6769,1.940681 -5.21182,4.653294 -6.29184,6.188988 -1.42917,9.231215 0.85693,10.078668 5.42637,13.442686 3.9017,2.176091 9.95274,-1.018524 11.91406,-4.294748 2.73843,-4.574309 2.42562,-7.522875 0.4779,-13.849975 -3.05993,-7.947075 -2.0427,-4.150432 -4.35151,-11.904442 -3.25284,-11.247547 -16.65609,-6.337232 -14.3361,4.442185 0.93535,4.235643 10.08543,3.703273 7.16112,5.975306 z" id="path4492" inkscape:connector-curvature="0" sodipodi:nodetypes="cccscccc" stroke-miterlimit="4" stroke-dasharray="none" stroke-opacity="1" fill="url(#linearGradient4494)" fill-rule="evenodd" stroke="url(#linearGradient4496)" stroke-linejoin="miter" fill-opacity="1" stroke-linecap="butt" stroke-width="0.659"/>
  <circle transform="rotate(-17.329991)" id="circle4498" cx="153.87" cy="111.57" r="5.529" stroke-miterlimit="4" opacity="1" stroke-dasharray="none" stroke-opacity="1" fill="url(#radialGradient4500)" fill-rule="nonzero" stroke="url(#linearGradient4502)" stroke-linejoin="round" fill-opacity="1" stroke-linecap="round" stroke-width="0.668"/>
  <circle transform="rotate(-17.329991)" r="3.199" cy="135.1" cx="151.99" id="circle4504" stroke-miterlimit="4" opacity="1" stroke-dasharray="none" stroke-opacity="1" fill="url(#radialGradient4506)" fill-rule="nonzero" stroke="url(#linearGradient4508)" stroke-linejoin="round" fill-opacity="1" stroke-linecap="round" stroke-width="0.387"/>
  <path sodipodi:nodetypes="cc" inkscape:connector-curvature="0" id="path4510" d="M 76.499806,101.01341 C 117.84459,96.75822 150.29872,78.955629 181.77364,59.660938" stroke-miterlimit="4" stroke-dasharray="none" stroke-opacity="1" fill="none" fill-rule="evenodd" stroke="#a4a4a4" stroke-linejoin="miter" stroke-linecap="round" stroke-width="2"/>
  <path d="M 76.584234,100.49414 C 117.92902,96.238956 150.38315,78.436364 181.85807,59.141673" id="path4512" inkscape:connector-curvature="0" sodipodi:nodetypes="cc" stroke-miterlimit="4" stroke-dasharray="none" stroke-opacity="0.522" fill="none" fill-rule="evenodd" stroke="#e7e7e7" stroke-linejoin="miter" stroke-linecap="round" stroke-width="0.535"/>
  <path sodipodi:nodetypes="cc" inkscape:connector-curvature="0" id="path4514" d="M 76.857386,101.76444 C 118.20217,97.50925 150.6563,79.706659 182.13122,60.411968" stroke-miterlimit="4" stroke-dasharray="none" stroke-opacity="0.522" fill="none" fill-rule="evenodd" stroke="#404040" stroke-linejoin="miter" stroke-linecap="round" stroke-width="0.535"/>
  <path sodipodi:nodetypes="cc" inkscape:connector-curvature="0" id="path1109" d="m 21.853659,118.63415 c 16.913732,3.35874 33.989351,11.57409 51.654102,37.46341" stroke-dasharray="none" stroke-opacity="0.589" fill="none" filter="url(#filter1127)" stroke="#bdbdbd" stroke-linejoin="miter" stroke-linecap="round" stroke-width="1.7" stroke-miterlimit="4"/>
  <path sodipodi:nodetypes="cc" inkscape:connector-curvature="0" id="path1055" d="m 63.574279,131.68958 c 26.489284,13.83179 50.424241,24.19765 77.481151,31.21951" stroke-opacity="0.576" fill="none" filter="url(#filter1069)" stroke="#000000" stroke-linejoin="miter" stroke-linecap="butt" stroke-width="1"/>
 </g>
</svg>
