<?xml version="1.0" encoding="UTF-8" standalone="no"?>
<svg
   xmlns:dc="http://purl.org/dc/elements/1.1/"
   xmlns:cc="http://creativecommons.org/ns#"
   xmlns:rdf="http://www.w3.org/1999/02/22-rdf-syntax-ns#"
   xmlns:svg="http://www.w3.org/2000/svg"
   xmlns="http://www.w3.org/2000/svg"
   xmlns:xlink="http://www.w3.org/1999/xlink"
   xmlns:sodipodi="http://sodipodi.sourceforge.net/DTD/sodipodi-0.dtd"
   xmlns:inkscape="http://www.inkscape.org/namespaces/inkscape"
   sodipodi:docname="joy.svg"
   inkscape:version="1.0 (4035a4f, 2020-05-01)"
   id="svg8"
   version="1.1"
   viewBox="0 0 67.468748 67.468752"
   height="255"
   width="255">
  <defs
     id="defs2">
    <linearGradient
       inkscape:collect="always"
       id="linearGradient977">
      <stop
         style="stop-color:#000000;stop-opacity:1;"
         offset="0"
         id="stop973" />
      <stop
         id="stop981"
         offset="0.9001984"
         style="stop-color:#000000;stop-opacity:0.96771193" />
      <stop
         style="stop-color:#000000;stop-opacity:0;"
         offset="1"
         id="stop975" />
    </linearGradient>
    <linearGradient
       id="linearGradient896"
       inkscape:collect="always">
      <stop
         id="stop892"
         offset="0"
         style="stop-color:#484848;stop-opacity:1" />
      <stop
         style="stop-color:#bbbbbb;stop-opacity:1"
         offset="0.56681746"
         id="stop902" />
      <stop
         style="stop-color:#787878;stop-opacity:1"
         offset="0.72251159"
         id="stop900" />
      <stop
         id="stop894"
         offset="1"
         style="stop-color:#8b8b8b;stop-opacity:0" />
    </linearGradient>
    <linearGradient
       inkscape:collect="always"
       id="linearGradient912-3">
      <stop
         style="stop-color:#525252;stop-opacity:1;"
         offset="0"
         id="stop908" />
      <stop
         style="stop-color:#ffffff;stop-opacity:0.99539411"
         offset="1"
         id="stop910" />
    </linearGradient>
    <linearGradient
       inkscape:collect="always"
       xlink:href="#linearGradient3545"
       id="linearGradient914"
       x1="37.605118"
       y1="282.05048"
       x2="53.68708"
       y2="281.61508"
       gradientUnits="userSpaceOnUse"
       spreadMethod="reflect"
       gradientTransform="matrix(1.0604517,0,0,1.0604517,-5.1417196,-14.631559)" />
    <linearGradient
       inkscape:collect="always"
       xlink:href="#linearGradient3798"
       id="linearGradient922"
       x1="37.994205"
       y1="275.73288"
       x2="50.4673"
       y2="275.84027"
       gradientUnits="userSpaceOnUse"
       spreadMethod="reflect"
       gradientTransform="matrix(1.0604517,0,0,1.0604517,-5.2242739,-14.642571)" />
    <linearGradient
       inkscape:collect="always"
       xlink:href="#linearGradient3545"
       id="linearGradient930"
       x1="38.780445"
       y1="272.9097"
       x2="49.807938"
       y2="273.483"
       gradientUnits="userSpaceOnUse"
       spreadMethod="reflect"
       gradientTransform="matrix(0.86377512,0,0,0.85092279,2.3077721,39.562916)" />
    <linearGradient
       inkscape:collect="always"
       xlink:href="#linearGradient912-3"
       id="linearGradient938"
       x1="35.05677"
       y1="264.24524"
       x2="39.261692"
       y2="264.24524"
       gradientUnits="userSpaceOnUse"
       spreadMethod="reflect"
       gradientTransform="matrix(1.0604517,0,0,1.0604517,-5.5494891,-16.837774)" />
    <linearGradient
       inkscape:collect="always"
       xlink:href="#linearGradient3798"
       id="linearGradient961"
       x1="31.361609"
       y1="270.9437"
       x2="38.875172"
       y2="269.02695"
       gradientUnits="userSpaceOnUse"
       spreadMethod="reflect"
       gradientTransform="matrix(1.0604517,0,0,1.0604517,-5.2242739,-14.642571)" />
    <linearGradient
       inkscape:collect="always"
       xlink:href="#linearGradient3798"
       id="linearGradient969"
       x1="22.397755"
       y1="278.50827"
       x2="38.071274"
       y2="273.71954"
       gradientUnits="userSpaceOnUse"
       spreadMethod="reflect"
       gradientTransform="matrix(1.0604517,0,0,1.0604517,-5.2242739,-14.642571)" />
    <linearGradient
       inkscape:collect="always"
       xlink:href="#linearGradient3798"
       id="linearGradient973"
       gradientUnits="userSpaceOnUse"
       x1="23.445427"
       y1="277.88705"
       x2="40.783066"
       y2="273.79123"
       spreadMethod="reflect"
       gradientTransform="matrix(0.64174747,0,0,0.63302901,10.759401,97.278594)" />
    <radialGradient
       gradientUnits="userSpaceOnUse"
       gradientTransform="matrix(0.96880373,-0.00614094,7.4673912e-4,0.38758073,-1.6814666,156.58411)"
       r="7.1356015"
       fy="260.30411"
       fx="38.862709"
       cy="260.30411"
       cx="38.862709"
       id="radialGradient898"
       xlink:href="#linearGradient896"
       inkscape:collect="always"
       spreadMethod="reflect" />
    <linearGradient
       id="linearGradient3208">
      <stop
         style="stop-color:#ffffff;stop-opacity:0.6026336"
         id="stop3222"
         stop-color="#ffffff"
         stop-opacity="1" />
      <stop
         id="stop3224"
         offset="1"
         stop-color="#ffffff"
         stop-opacity="0" />
    </linearGradient>
    <linearGradient
       id="linearGradient3188">
      <stop
         id="stop3190"
         stop-color="#ffffff"
         stop-opacity="1" />
      <stop
         style="stop-color:#969696;stop-opacity:1"
         id="stop3192"
         offset="0.628"
         stop-color="#6c6c6c"
         stop-opacity="1" />
      <stop
         offset="0.7345311"
         id="stop3194"
         stop-color="#5f5f5f"
         stop-opacity="1" />
      <stop
         style="stop-color:#7b7b7b;stop-opacity:1"
         id="stop3196"
         offset="0.805"
         stop-color="#474747"
         stop-opacity="1" />
      <stop
         id="stop3198"
         offset="0.84294307"
         stop-color="#7a7a7a"
         stop-opacity="1"
         style="stop-color:#7b7b7b;stop-opacity:1" />
      <stop
         id="stop3200"
         offset="0.89778769"
         stop-color="#674d02"
         stop-opacity="1"
         style="stop-color:#585858;stop-opacity:1" />
      <stop
         offset="0.96349412"
         id="stop3202"
         stop-color="#585858"
         stop-opacity="1"
         style="stop-color:#595959;stop-opacity:1" />
      <stop
         offset="1"
         id="stop3204"
         stop-color="#8d8d8d"
         stop-opacity="1" />
    </linearGradient>
    <radialGradient
       r="92.92"
       fy="108.99"
       fx="244.24"
       cy="78.34"
       cx="305.04"
       spreadMethod="reflect"
       gradientTransform="matrix(0.25163659,1.0846374,-1.1187727,0.25955618,140.56664,-239.0995)"
       gradientUnits="userSpaceOnUse"
       id="radialGradient3186"
       xlink:href="#linearGradient3188"
       inkscape:collect="always" />
    <linearGradient
       gradientTransform="matrix(1.0846372,0,0,1.0846372,-201.67376,-12.140202)"
       spreadMethod="pad"
       gradientUnits="userSpaceOnUse"
       y2="152.52"
       x2="308.88"
       y1="212.21"
       x1="316.78"
       id="linearGradient3228"
       xlink:href="#linearGradient3208"
       inkscape:collect="always" />
    <clipPath
       clipPathUnits="userSpaceOnUse"
       id="clipPath2059">
      <path
         d="m -10.099732,231.68531 c 3.5587363,2.50616 4.8319716,-0.58528 2.9651647,-3.064 -3.1818907,-4.22486 -6.4443207,-9.83985 -12.3548527,-15.91305 -2.594516,-2.66865 -11.860659,-7.80827 -11.860659,-7.80827 0,0 -0.115438,-2.18844 -0.09884,-3.064 0.01106,-0.582 -0.565687,-0.56369 -0.889553,-0.29652 -0.782426,0.64546 -2.47097,2.56981 -2.47097,2.56981 l -1.68026,-0.0988 -1.087226,-1.58142 c -0.296516,-0.41055 -0.636056,-0.34641 -0.88955,0 -0.545383,1.84962 -0.878698,3.8848 -3.459359,3.95355 l 4.447747,3.95356 c 7.76561,1.55335 15.578734,5.58545 20.261957,14.33163 0,0 4.526451,5.19364 7.116396,7.01755 z"
         id="path2061"
         sodipodi:nodetypes="csscsscccccccs"
         inkscape:connector-curvature="0"
         stroke-dasharray="none"
         stroke-opacity="1"
         fill="#ffffff"
         fill-rule="evenodd"
         stroke="none"
         stroke-linejoin="miter"
         fill-opacity="1"
         stroke-linecap="butt"
         stroke-width="0.048"
         stroke-miterlimit="4" />
    </clipPath>
    <clipPath
       id="clipPath2059-5"
       clipPathUnits="userSpaceOnUse">
      <path
         stroke-miterlimit="4"
         stroke-width="0.048"
         stroke-linecap="butt"
         fill-opacity="1"
         stroke-linejoin="miter"
         stroke="none"
         fill-rule="evenodd"
         fill="#ffffff"
         stroke-opacity="1"
         stroke-dasharray="none"
         inkscape:connector-curvature="0"
         sodipodi:nodetypes="csscsscccccccs"
         id="path2061-3"
         d="m -10.099732,231.68531 c 3.5587363,2.50616 4.8319716,-0.58528 2.9651647,-3.064 -3.1818907,-4.22486 -6.4443207,-9.83985 -12.3548527,-15.91305 -2.594516,-2.66865 -11.860659,-7.80827 -11.860659,-7.80827 0,0 -0.115438,-2.18844 -0.09884,-3.064 0.01106,-0.582 -0.565687,-0.56369 -0.889553,-0.29652 -0.782426,0.64546 -2.47097,2.56981 -2.47097,2.56981 l -1.68026,-0.0988 -1.087226,-1.58142 c -0.296516,-0.41055 -0.636056,-0.34641 -0.88955,0 -0.545383,1.84962 -0.878698,3.8848 -3.459359,3.95355 l 4.447747,3.95356 c 7.76561,1.55335 15.578734,5.58545 20.261957,14.33163 0,0 4.526451,5.19364 7.116396,7.01755 z" />
    </clipPath>
    <clipPath
       id="clipPath">
      <path
         fill-opacity="0.95"
         stroke="none"
         fill="#1b1b1b"
         sodipodi:nodetypes="csssscc"
         inkscape:connector-curvature="0"
         id="rect5264"
         d="m -515.73002,435.56445 v 5.83767 c 0,9.74315 -7.84377,17.58692 -17.58692,17.58692 h -135.05122 c -9.74315,0 -17.58692,-7.84377 -17.58692,-17.58692 v -5.83767 z" />
    </clipPath>
    <clipPath
       clipPathUnits="userSpaceOnUse"
       id="clipPath2059-7">
      <path
         d="m -10.099732,231.68531 c 3.5587363,2.50616 4.8319716,-0.58528 2.9651647,-3.064 -3.1818907,-4.22486 -6.4443207,-9.83985 -12.3548527,-15.91305 -2.594516,-2.66865 -11.860659,-7.80827 -11.860659,-7.80827 0,0 -0.115438,-2.18844 -0.09884,-3.064 0.01106,-0.582 -0.565687,-0.56369 -0.889553,-0.29652 -0.782426,0.64546 -2.47097,2.56981 -2.47097,2.56981 l -1.68026,-0.0988 -1.087226,-1.58142 c -0.296516,-0.41055 -0.636056,-0.34641 -0.88955,0 -0.545383,1.84962 -0.878698,3.8848 -3.459359,3.95355 l 4.447747,3.95356 c 7.76561,1.55335 15.578734,5.58545 20.261957,14.33163 0,0 4.526451,5.19364 7.116396,7.01755 z"
         id="path2061-5"
         sodipodi:nodetypes="csscsscccccccs"
         inkscape:connector-curvature="0"
         stroke-dasharray="none"
         stroke-opacity="1"
         fill="#ffffff"
         fill-rule="evenodd"
         stroke="none"
         stroke-linejoin="miter"
         fill-opacity="1"
         stroke-linecap="butt"
         stroke-width="0.048"
         stroke-miterlimit="4" />
    </clipPath>
    <clipPath
       clipPathUnits="userSpaceOnUse"
       id="clipPath1162">
      <path
         stroke-miterlimit="4"
         stroke-width="0.071"
         stroke-linecap="round"
         fill-opacity="0.347"
         stroke-linejoin="round"
         stroke="none"
         fill="#000000"
         stroke-opacity="1"
         stroke-dasharray="none"
         inkscape:connector-curvature="0"
         d="m -65.649736,239.84563 c -9.358079,0 -16.951888,7.59381 -16.951888,16.95188 0,9.35808 7.593811,16.94076 16.951888,16.94077 0.292439,0 0.578792,-0.008 0.867614,-0.0222 2.122786,-0.10753 4.148336,-0.60587 5.995453,-1.42378 l 2.669587,3.97101 c -0.225515,0.4951 -0.245107,0.96445 -0.01111,1.31255 l 15.67271,23.32553 c 0.495366,0.73695 1.94415,0.6317 3.247998,-0.24471 1.303846,-0.87642 1.96364,-2.17735 1.468276,-2.9143 L -51.42304,274.4168 c -0.233058,-0.34672 -0.682887,-0.49868 -1.22356,-0.47831 l -2.558357,-3.80416 c 3.95991,-3.10036 6.507123,-7.91951 6.507123,-13.33682 0,-9.35807 -7.593809,-16.95188 -16.951889,-16.95188 z m 0,2.5806 c 7.92884,0 14.371283,6.44244 14.371283,14.37128 0,7.92885 -6.442435,14.36016 -14.371283,14.36016 -7.928851,0 -14.349039,-6.43131 -14.349039,-14.36016 0,-0.24777 -0.0013,-0.48941 0.01111,-0.73413 0.384376,-7.58638 6.656848,-13.63715 14.337916,-13.63715 z"
         id="path1164" />
    </clipPath>
    <clipPath
       id="clipPath2059-2"
       clipPathUnits="userSpaceOnUse">
      <path
         stroke-miterlimit="4"
         stroke-width="0.048"
         stroke-linecap="butt"
         fill-opacity="1"
         stroke-linejoin="miter"
         stroke="none"
         fill-rule="evenodd"
         fill="#ffffff"
         stroke-opacity="1"
         stroke-dasharray="none"
         inkscape:connector-curvature="0"
         sodipodi:nodetypes="csscsscccccccs"
         id="path2061-0"
         d="m -10.099732,231.68531 c 3.5587363,2.50616 4.8319716,-0.58528 2.9651647,-3.064 -3.1818907,-4.22486 -6.4443207,-9.83985 -12.3548527,-15.91305 -2.594516,-2.66865 -11.860659,-7.80827 -11.860659,-7.80827 0,0 -0.115438,-2.18844 -0.09884,-3.064 0.01106,-0.582 -0.565687,-0.56369 -0.889553,-0.29652 -0.782426,0.64546 -2.47097,2.56981 -2.47097,2.56981 l -1.68026,-0.0988 -1.087226,-1.58142 c -0.296516,-0.41055 -0.636056,-0.34641 -0.88955,0 -0.545383,1.84962 -0.878698,3.8848 -3.459359,3.95355 l 4.447747,3.95356 c 7.76561,1.55335 15.578734,5.58545 20.261957,14.33163 0,0 4.526451,5.19364 7.116396,7.01755 z" />
    </clipPath>
    <clipPath
       clipPathUnits="userSpaceOnUse"
       id="clipPath2059-5-2">
      <path
         d="m -10.099732,231.68531 c 3.5587363,2.50616 4.8319716,-0.58528 2.9651647,-3.064 -3.1818907,-4.22486 -6.4443207,-9.83985 -12.3548527,-15.91305 -2.594516,-2.66865 -11.860659,-7.80827 -11.860659,-7.80827 0,0 -0.115438,-2.18844 -0.09884,-3.064 0.01106,-0.582 -0.565687,-0.56369 -0.889553,-0.29652 -0.782426,0.64546 -2.47097,2.56981 -2.47097,2.56981 l -1.68026,-0.0988 -1.087226,-1.58142 c -0.296516,-0.41055 -0.636056,-0.34641 -0.88955,0 -0.545383,1.84962 -0.878698,3.8848 -3.459359,3.95355 l 4.447747,3.95356 c 7.76561,1.55335 15.578734,5.58545 20.261957,14.33163 0,0 4.526451,5.19364 7.116396,7.01755 z"
         id="path2061-3-3"
         sodipodi:nodetypes="csscsscccccccs"
         inkscape:connector-curvature="0"
         stroke-dasharray="none"
         stroke-opacity="1"
         fill="#ffffff"
         fill-rule="evenodd"
         stroke="none"
         stroke-linejoin="miter"
         fill-opacity="1"
         stroke-linecap="butt"
         stroke-width="0.048"
         stroke-miterlimit="4" />
    </clipPath>
    <clipPath
       id="clipPath-7">
      <path
         d="m -515.73002,435.56445 v 5.83767 c 0,9.74315 -7.84377,17.58692 -17.58692,17.58692 h -135.05122 c -9.74315,0 -17.58692,-7.84377 -17.58692,-17.58692 v -5.83767 z"
         id="rect5264-5"
         inkscape:connector-curvature="0"
         sodipodi:nodetypes="csssscc"
         fill="#1b1b1b"
         stroke="none"
         fill-opacity="0.95" />
    </clipPath>
    <clipPath
       id="clipPath2059-7-9"
       clipPathUnits="userSpaceOnUse">
      <path
         stroke-miterlimit="4"
         stroke-width="0.048"
         stroke-linecap="butt"
         fill-opacity="1"
         stroke-linejoin="miter"
         stroke="none"
         fill-rule="evenodd"
         fill="#ffffff"
         stroke-opacity="1"
         stroke-dasharray="none"
         inkscape:connector-curvature="0"
         sodipodi:nodetypes="csscsscccccccs"
         id="path2061-5-2"
         d="m -10.099732,231.68531 c 3.5587363,2.50616 4.8319716,-0.58528 2.9651647,-3.064 -3.1818907,-4.22486 -6.4443207,-9.83985 -12.3548527,-15.91305 -2.594516,-2.66865 -11.860659,-7.80827 -11.860659,-7.80827 0,0 -0.115438,-2.18844 -0.09884,-3.064 0.01106,-0.582 -0.565687,-0.56369 -0.889553,-0.29652 -0.782426,0.64546 -2.47097,2.56981 -2.47097,2.56981 l -1.68026,-0.0988 -1.087226,-1.58142 c -0.296516,-0.41055 -0.636056,-0.34641 -0.88955,0 -0.545383,1.84962 -0.878698,3.8848 -3.459359,3.95355 l 4.447747,3.95356 c 7.76561,1.55335 15.578734,5.58545 20.261957,14.33163 0,0 4.526451,5.19364 7.116396,7.01755 z" />
    </clipPath>
    <clipPath
       id="clipPath1162-2"
       clipPathUnits="userSpaceOnUse">
      <path
         id="path1164-8"
         d="m -65.649736,239.84563 c -9.358079,0 -16.951888,7.59381 -16.951888,16.95188 0,9.35808 7.593811,16.94076 16.951888,16.94077 0.292439,0 0.578792,-0.008 0.867614,-0.0222 2.122786,-0.10753 4.148336,-0.60587 5.995453,-1.42378 l 2.669587,3.97101 c -0.225515,0.4951 -0.245107,0.96445 -0.01111,1.31255 l 15.67271,23.32553 c 0.495366,0.73695 1.94415,0.6317 3.247998,-0.24471 1.303846,-0.87642 1.96364,-2.17735 1.468276,-2.9143 L -51.42304,274.4168 c -0.233058,-0.34672 -0.682887,-0.49868 -1.22356,-0.47831 l -2.558357,-3.80416 c 3.95991,-3.10036 6.507123,-7.91951 6.507123,-13.33682 0,-9.35807 -7.593809,-16.95188 -16.951889,-16.95188 z m 0,2.5806 c 7.92884,0 14.371283,6.44244 14.371283,14.37128 0,7.92885 -6.442435,14.36016 -14.371283,14.36016 -7.928851,0 -14.349039,-6.43131 -14.349039,-14.36016 0,-0.24777 -0.0013,-0.48941 0.01111,-0.73413 0.384376,-7.58638 6.656848,-13.63715 14.337916,-13.63715 z"
         inkscape:connector-curvature="0"
         stroke-dasharray="none"
         stroke-opacity="1"
         fill="#000000"
         stroke="none"
         stroke-linejoin="round"
         fill-opacity="0.347"
         stroke-linecap="round"
         stroke-width="0.071"
         stroke-miterlimit="4" />
    </clipPath>
    <clipPath
       id="clipPath2059-20"
       clipPathUnits="userSpaceOnUse">
      <path
         stroke-miterlimit="4"
         stroke-width="0.048"
         stroke-linecap="butt"
         fill-opacity="1"
         stroke-linejoin="miter"
         stroke="none"
         fill-rule="evenodd"
         fill="#ffffff"
         stroke-opacity="1"
         stroke-dasharray="none"
         inkscape:connector-curvature="0"
         sodipodi:nodetypes="csscsscccccccs"
         id="path2061-2"
         d="m -10.099732,231.68531 c 3.5587363,2.50616 4.8319716,-0.58528 2.9651647,-3.064 -3.1818907,-4.22486 -6.4443207,-9.83985 -12.3548527,-15.91305 -2.594516,-2.66865 -11.860659,-7.80827 -11.860659,-7.80827 0,0 -0.115438,-2.18844 -0.09884,-3.064 0.01106,-0.582 -0.565687,-0.56369 -0.889553,-0.29652 -0.782426,0.64546 -2.47097,2.56981 -2.47097,2.56981 l -1.68026,-0.0988 -1.087226,-1.58142 c -0.296516,-0.41055 -0.636056,-0.34641 -0.88955,0 -0.545383,1.84962 -0.878698,3.8848 -3.459359,3.95355 l 4.447747,3.95356 c 7.76561,1.55335 15.578734,5.58545 20.261957,14.33163 0,0 4.526451,5.19364 7.116396,7.01755 z" />
    </clipPath>
    <clipPath
       clipPathUnits="userSpaceOnUse"
       id="clipPath2059-5-3">
      <path
         d="m -10.099732,231.68531 c 3.5587363,2.50616 4.8319716,-0.58528 2.9651647,-3.064 -3.1818907,-4.22486 -6.4443207,-9.83985 -12.3548527,-15.91305 -2.594516,-2.66865 -11.860659,-7.80827 -11.860659,-7.80827 0,0 -0.115438,-2.18844 -0.09884,-3.064 0.01106,-0.582 -0.565687,-0.56369 -0.889553,-0.29652 -0.782426,0.64546 -2.47097,2.56981 -2.47097,2.56981 l -1.68026,-0.0988 -1.087226,-1.58142 c -0.296516,-0.41055 -0.636056,-0.34641 -0.88955,0 -0.545383,1.84962 -0.878698,3.8848 -3.459359,3.95355 l 4.447747,3.95356 c 7.76561,1.55335 15.578734,5.58545 20.261957,14.33163 0,0 4.526451,5.19364 7.116396,7.01755 z"
         id="path2061-3-7"
         sodipodi:nodetypes="csscsscccccccs"
         inkscape:connector-curvature="0"
         stroke-dasharray="none"
         stroke-opacity="1"
         fill="#ffffff"
         fill-rule="evenodd"
         stroke="none"
         stroke-linejoin="miter"
         fill-opacity="1"
         stroke-linecap="butt"
         stroke-width="0.048"
         stroke-miterlimit="4" />
    </clipPath>
    <clipPath
       id="clipPath-5">
      <path
         d="m -515.73002,435.56445 v 5.83767 c 0,9.74315 -7.84377,17.58692 -17.58692,17.58692 h -135.05122 c -9.74315,0 -17.58692,-7.84377 -17.58692,-17.58692 v -5.83767 z"
         id="rect5264-9"
         inkscape:connector-curvature="0"
         sodipodi:nodetypes="csssscc"
         fill="#1b1b1b"
         stroke="none"
         fill-opacity="0.95" />
    </clipPath>
    <clipPath
       id="clipPath2059-7-2"
       clipPathUnits="userSpaceOnUse">
      <path
         stroke-miterlimit="4"
         stroke-width="0.048"
         stroke-linecap="butt"
         fill-opacity="1"
         stroke-linejoin="miter"
         stroke="none"
         fill-rule="evenodd"
         fill="#ffffff"
         stroke-opacity="1"
         stroke-dasharray="none"
         inkscape:connector-curvature="0"
         sodipodi:nodetypes="csscsscccccccs"
         id="path2061-5-28"
         d="m -10.099732,231.68531 c 3.5587363,2.50616 4.8319716,-0.58528 2.9651647,-3.064 -3.1818907,-4.22486 -6.4443207,-9.83985 -12.3548527,-15.91305 -2.594516,-2.66865 -11.860659,-7.80827 -11.860659,-7.80827 0,0 -0.115438,-2.18844 -0.09884,-3.064 0.01106,-0.582 -0.565687,-0.56369 -0.889553,-0.29652 -0.782426,0.64546 -2.47097,2.56981 -2.47097,2.56981 l -1.68026,-0.0988 -1.087226,-1.58142 c -0.296516,-0.41055 -0.636056,-0.34641 -0.88955,0 -0.545383,1.84962 -0.878698,3.8848 -3.459359,3.95355 l 4.447747,3.95356 c 7.76561,1.55335 15.578734,5.58545 20.261957,14.33163 0,0 4.526451,5.19364 7.116396,7.01755 z" />
    </clipPath>
    <clipPath
       id="clipPath1162-9"
       clipPathUnits="userSpaceOnUse">
      <path
         id="path1164-7"
         d="m -65.649736,239.84563 c -9.358079,0 -16.951888,7.59381 -16.951888,16.95188 0,9.35808 7.593811,16.94076 16.951888,16.94077 0.292439,0 0.578792,-0.008 0.867614,-0.0222 2.122786,-0.10753 4.148336,-0.60587 5.995453,-1.42378 l 2.669587,3.97101 c -0.225515,0.4951 -0.245107,0.96445 -0.01111,1.31255 l 15.67271,23.32553 c 0.495366,0.73695 1.94415,0.6317 3.247998,-0.24471 1.303846,-0.87642 1.96364,-2.17735 1.468276,-2.9143 L -51.42304,274.4168 c -0.233058,-0.34672 -0.682887,-0.49868 -1.22356,-0.47831 l -2.558357,-3.80416 c 3.95991,-3.10036 6.507123,-7.91951 6.507123,-13.33682 0,-9.35807 -7.593809,-16.95188 -16.951889,-16.95188 z m 0,2.5806 c 7.92884,0 14.371283,6.44244 14.371283,14.37128 0,7.92885 -6.442435,14.36016 -14.371283,14.36016 -7.928851,0 -14.349039,-6.43131 -14.349039,-14.36016 0,-0.24777 -0.0013,-0.48941 0.01111,-0.73413 0.384376,-7.58638 6.656848,-13.63715 14.337916,-13.63715 z"
         inkscape:connector-curvature="0"
         stroke-dasharray="none"
         stroke-opacity="1"
         fill="#000000"
         stroke="none"
         stroke-linejoin="round"
         fill-opacity="0.347"
         stroke-linecap="round"
         stroke-width="0.071"
         stroke-miterlimit="4" />
    </clipPath>
    <clipPath
       id="clipPath2059-75"
       clipPathUnits="userSpaceOnUse">
      <path
         stroke-miterlimit="4"
         stroke-width="0.048"
         stroke-linecap="butt"
         fill-opacity="1"
         stroke-linejoin="miter"
         stroke="none"
         fill-rule="evenodd"
         fill="#ffffff"
         stroke-opacity="1"
         stroke-dasharray="none"
         inkscape:connector-curvature="0"
         sodipodi:nodetypes="csscsscccccccs"
         id="path2061-35"
         d="m -10.099732,231.68531 c 3.5587363,2.50616 4.8319716,-0.58528 2.9651647,-3.064 -3.1818907,-4.22486 -6.4443207,-9.83985 -12.3548527,-15.91305 -2.594516,-2.66865 -11.860659,-7.80827 -11.860659,-7.80827 0,0 -0.115438,-2.18844 -0.09884,-3.064 0.01106,-0.582 -0.565687,-0.56369 -0.889553,-0.29652 -0.782426,0.64546 -2.47097,2.56981 -2.47097,2.56981 l -1.68026,-0.0988 -1.087226,-1.58142 c -0.296516,-0.41055 -0.636056,-0.34641 -0.88955,0 -0.545383,1.84962 -0.878698,3.8848 -3.459359,3.95355 l 4.447747,3.95356 c 7.76561,1.55335 15.578734,5.58545 20.261957,14.33163 0,0 4.526451,5.19364 7.116396,7.01755 z" />
    </clipPath>
    <clipPath
       clipPathUnits="userSpaceOnUse"
       id="clipPath2059-5-6">
      <path
         d="m -10.099732,231.68531 c 3.5587363,2.50616 4.8319716,-0.58528 2.9651647,-3.064 -3.1818907,-4.22486 -6.4443207,-9.83985 -12.3548527,-15.91305 -2.594516,-2.66865 -11.860659,-7.80827 -11.860659,-7.80827 0,0 -0.115438,-2.18844 -0.09884,-3.064 0.01106,-0.582 -0.565687,-0.56369 -0.889553,-0.29652 -0.782426,0.64546 -2.47097,2.56981 -2.47097,2.56981 l -1.68026,-0.0988 -1.087226,-1.58142 c -0.296516,-0.41055 -0.636056,-0.34641 -0.88955,0 -0.545383,1.84962 -0.878698,3.8848 -3.459359,3.95355 l 4.447747,3.95356 c 7.76561,1.55335 15.578734,5.58545 20.261957,14.33163 0,0 4.526451,5.19364 7.116396,7.01755 z"
         id="path2061-3-2"
         sodipodi:nodetypes="csscsscccccccs"
         inkscape:connector-curvature="0"
         stroke-dasharray="none"
         stroke-opacity="1"
         fill="#ffffff"
         fill-rule="evenodd"
         stroke="none"
         stroke-linejoin="miter"
         fill-opacity="1"
         stroke-linecap="butt"
         stroke-width="0.048"
         stroke-miterlimit="4" />
    </clipPath>
    <clipPath
       id="clipPath-9">
      <path
         d="m -515.73002,435.56445 v 5.83767 c 0,9.74315 -7.84377,17.58692 -17.58692,17.58692 h -135.05122 c -9.74315,0 -17.58692,-7.84377 -17.58692,-17.58692 v -5.83767 z"
         id="rect5264-1"
         inkscape:connector-curvature="0"
         sodipodi:nodetypes="csssscc"
         fill="#1b1b1b"
         stroke="none"
         fill-opacity="0.95" />
    </clipPath>
    <clipPath
       id="clipPath2059-7-27"
       clipPathUnits="userSpaceOnUse">
      <path
         stroke-miterlimit="4"
         stroke-width="0.048"
         stroke-linecap="butt"
         fill-opacity="1"
         stroke-linejoin="miter"
         stroke="none"
         fill-rule="evenodd"
         fill="#ffffff"
         stroke-opacity="1"
         stroke-dasharray="none"
         inkscape:connector-curvature="0"
         sodipodi:nodetypes="csscsscccccccs"
         id="path2061-5-0"
         d="m -10.099732,231.68531 c 3.5587363,2.50616 4.8319716,-0.58528 2.9651647,-3.064 -3.1818907,-4.22486 -6.4443207,-9.83985 -12.3548527,-15.91305 -2.594516,-2.66865 -11.860659,-7.80827 -11.860659,-7.80827 0,0 -0.115438,-2.18844 -0.09884,-3.064 0.01106,-0.582 -0.565687,-0.56369 -0.889553,-0.29652 -0.782426,0.64546 -2.47097,2.56981 -2.47097,2.56981 l -1.68026,-0.0988 -1.087226,-1.58142 c -0.296516,-0.41055 -0.636056,-0.34641 -0.88955,0 -0.545383,1.84962 -0.878698,3.8848 -3.459359,3.95355 l 4.447747,3.95356 c 7.76561,1.55335 15.578734,5.58545 20.261957,14.33163 0,0 4.526451,5.19364 7.116396,7.01755 z" />
    </clipPath>
    <clipPath
       id="clipPath1162-93"
       clipPathUnits="userSpaceOnUse">
      <path
         id="path1164-6"
         d="m -65.649736,239.84563 c -9.358079,0 -16.951888,7.59381 -16.951888,16.95188 0,9.35808 7.593811,16.94076 16.951888,16.94077 0.292439,0 0.578792,-0.008 0.867614,-0.0222 2.122786,-0.10753 4.148336,-0.60587 5.995453,-1.42378 l 2.669587,3.97101 c -0.225515,0.4951 -0.245107,0.96445 -0.01111,1.31255 l 15.67271,23.32553 c 0.495366,0.73695 1.94415,0.6317 3.247998,-0.24471 1.303846,-0.87642 1.96364,-2.17735 1.468276,-2.9143 L -51.42304,274.4168 c -0.233058,-0.34672 -0.682887,-0.49868 -1.22356,-0.47831 l -2.558357,-3.80416 c 3.95991,-3.10036 6.507123,-7.91951 6.507123,-13.33682 0,-9.35807 -7.593809,-16.95188 -16.951889,-16.95188 z m 0,2.5806 c 7.92884,0 14.371283,6.44244 14.371283,14.37128 0,7.92885 -6.442435,14.36016 -14.371283,14.36016 -7.928851,0 -14.349039,-6.43131 -14.349039,-14.36016 0,-0.24777 -0.0013,-0.48941 0.01111,-0.73413 0.384376,-7.58638 6.656848,-13.63715 14.337916,-13.63715 z"
         inkscape:connector-curvature="0"
         stroke-dasharray="none"
         stroke-opacity="1"
         fill="#000000"
         stroke="none"
         stroke-linejoin="round"
         fill-opacity="0.347"
         stroke-linecap="round"
         stroke-width="0.071"
         stroke-miterlimit="4" />
    </clipPath>
    <clipPath
       id="clipPath2059-2-0"
       clipPathUnits="userSpaceOnUse">
      <path
         stroke-miterlimit="4"
         stroke-width="0.048"
         stroke-linecap="butt"
         fill-opacity="1"
         stroke-linejoin="miter"
         stroke="none"
         fill-rule="evenodd"
         fill="#ffffff"
         stroke-opacity="1"
         stroke-dasharray="none"
         inkscape:connector-curvature="0"
         sodipodi:nodetypes="csscsscccccccs"
         id="path2061-0-6"
         d="m -10.099732,231.68531 c 3.5587363,2.50616 4.8319716,-0.58528 2.9651647,-3.064 -3.1818907,-4.22486 -6.4443207,-9.83985 -12.3548527,-15.91305 -2.594516,-2.66865 -11.860659,-7.80827 -11.860659,-7.80827 0,0 -0.115438,-2.18844 -0.09884,-3.064 0.01106,-0.582 -0.565687,-0.56369 -0.889553,-0.29652 -0.782426,0.64546 -2.47097,2.56981 -2.47097,2.56981 l -1.68026,-0.0988 -1.087226,-1.58142 c -0.296516,-0.41055 -0.636056,-0.34641 -0.88955,0 -0.545383,1.84962 -0.878698,3.8848 -3.459359,3.95355 l 4.447747,3.95356 c 7.76561,1.55335 15.578734,5.58545 20.261957,14.33163 0,0 4.526451,5.19364 7.116396,7.01755 z" />
    </clipPath>
    <clipPath
       clipPathUnits="userSpaceOnUse"
       id="clipPath2059-5-2-2">
      <path
         d="m -10.099732,231.68531 c 3.5587363,2.50616 4.8319716,-0.58528 2.9651647,-3.064 -3.1818907,-4.22486 -6.4443207,-9.83985 -12.3548527,-15.91305 -2.594516,-2.66865 -11.860659,-7.80827 -11.860659,-7.80827 0,0 -0.115438,-2.18844 -0.09884,-3.064 0.01106,-0.582 -0.565687,-0.56369 -0.889553,-0.29652 -0.782426,0.64546 -2.47097,2.56981 -2.47097,2.56981 l -1.68026,-0.0988 -1.087226,-1.58142 c -0.296516,-0.41055 -0.636056,-0.34641 -0.88955,0 -0.545383,1.84962 -0.878698,3.8848 -3.459359,3.95355 l 4.447747,3.95356 c 7.76561,1.55335 15.578734,5.58545 20.261957,14.33163 0,0 4.526451,5.19364 7.116396,7.01755 z"
         id="path2061-3-3-6"
         sodipodi:nodetypes="csscsscccccccs"
         inkscape:connector-curvature="0"
         stroke-dasharray="none"
         stroke-opacity="1"
         fill="#ffffff"
         fill-rule="evenodd"
         stroke="none"
         stroke-linejoin="miter"
         fill-opacity="1"
         stroke-linecap="butt"
         stroke-width="0.048"
         stroke-miterlimit="4" />
    </clipPath>
    <clipPath
       id="clipPath-7-1">
      <path
         d="m -515.73002,435.56445 v 5.83767 c 0,9.74315 -7.84377,17.58692 -17.58692,17.58692 h -135.05122 c -9.74315,0 -17.58692,-7.84377 -17.58692,-17.58692 v -5.83767 z"
         id="rect5264-5-8"
         inkscape:connector-curvature="0"
         sodipodi:nodetypes="csssscc"
         fill="#1b1b1b"
         stroke="none"
         fill-opacity="0.95" />
    </clipPath>
    <clipPath
       id="clipPath2059-7-9-7"
       clipPathUnits="userSpaceOnUse">
      <path
         stroke-miterlimit="4"
         stroke-width="0.048"
         stroke-linecap="butt"
         fill-opacity="1"
         stroke-linejoin="miter"
         stroke="none"
         fill-rule="evenodd"
         fill="#ffffff"
         stroke-opacity="1"
         stroke-dasharray="none"
         inkscape:connector-curvature="0"
         sodipodi:nodetypes="csscsscccccccs"
         id="path2061-5-2-9"
         d="m -10.099732,231.68531 c 3.5587363,2.50616 4.8319716,-0.58528 2.9651647,-3.064 -3.1818907,-4.22486 -6.4443207,-9.83985 -12.3548527,-15.91305 -2.594516,-2.66865 -11.860659,-7.80827 -11.860659,-7.80827 0,0 -0.115438,-2.18844 -0.09884,-3.064 0.01106,-0.582 -0.565687,-0.56369 -0.889553,-0.29652 -0.782426,0.64546 -2.47097,2.56981 -2.47097,2.56981 l -1.68026,-0.0988 -1.087226,-1.58142 c -0.296516,-0.41055 -0.636056,-0.34641 -0.88955,0 -0.545383,1.84962 -0.878698,3.8848 -3.459359,3.95355 l 4.447747,3.95356 c 7.76561,1.55335 15.578734,5.58545 20.261957,14.33163 0,0 4.526451,5.19364 7.116396,7.01755 z" />
    </clipPath>
    <clipPath
       id="clipPath1162-2-2"
       clipPathUnits="userSpaceOnUse">
      <path
         id="path1164-8-0"
         d="m -65.649736,239.84563 c -9.358079,0 -16.951888,7.59381 -16.951888,16.95188 0,9.35808 7.593811,16.94076 16.951888,16.94077 0.292439,0 0.578792,-0.008 0.867614,-0.0222 2.122786,-0.10753 4.148336,-0.60587 5.995453,-1.42378 l 2.669587,3.97101 c -0.225515,0.4951 -0.245107,0.96445 -0.01111,1.31255 l 15.67271,23.32553 c 0.495366,0.73695 1.94415,0.6317 3.247998,-0.24471 1.303846,-0.87642 1.96364,-2.17735 1.468276,-2.9143 L -51.42304,274.4168 c -0.233058,-0.34672 -0.682887,-0.49868 -1.22356,-0.47831 l -2.558357,-3.80416 c 3.95991,-3.10036 6.507123,-7.91951 6.507123,-13.33682 0,-9.35807 -7.593809,-16.95188 -16.951889,-16.95188 z m 0,2.5806 c 7.92884,0 14.371283,6.44244 14.371283,14.37128 0,7.92885 -6.442435,14.36016 -14.371283,14.36016 -7.928851,0 -14.349039,-6.43131 -14.349039,-14.36016 0,-0.24777 -0.0013,-0.48941 0.01111,-0.73413 0.384376,-7.58638 6.656848,-13.63715 14.337916,-13.63715 z"
         inkscape:connector-curvature="0"
         stroke-dasharray="none"
         stroke-opacity="1"
         fill="#000000"
         stroke="none"
         stroke-linejoin="round"
         fill-opacity="0.347"
         stroke-linecap="round"
         stroke-width="0.071"
         stroke-miterlimit="4" />
    </clipPath>
    <clipPath
       id="clipPath2059-20-2"
       clipPathUnits="userSpaceOnUse">
      <path
         stroke-miterlimit="4"
         stroke-width="0.048"
         stroke-linecap="butt"
         fill-opacity="1"
         stroke-linejoin="miter"
         stroke="none"
         fill-rule="evenodd"
         fill="#ffffff"
         stroke-opacity="1"
         stroke-dasharray="none"
         inkscape:connector-curvature="0"
         sodipodi:nodetypes="csscsscccccccs"
         id="path2061-2-3"
         d="m -10.099732,231.68531 c 3.5587363,2.50616 4.8319716,-0.58528 2.9651647,-3.064 -3.1818907,-4.22486 -6.4443207,-9.83985 -12.3548527,-15.91305 -2.594516,-2.66865 -11.860659,-7.80827 -11.860659,-7.80827 0,0 -0.115438,-2.18844 -0.09884,-3.064 0.01106,-0.582 -0.565687,-0.56369 -0.889553,-0.29652 -0.782426,0.64546 -2.47097,2.56981 -2.47097,2.56981 l -1.68026,-0.0988 -1.087226,-1.58142 c -0.296516,-0.41055 -0.636056,-0.34641 -0.88955,0 -0.545383,1.84962 -0.878698,3.8848 -3.459359,3.95355 l 4.447747,3.95356 c 7.76561,1.55335 15.578734,5.58545 20.261957,14.33163 0,0 4.526451,5.19364 7.116396,7.01755 z" />
    </clipPath>
    <clipPath
       clipPathUnits="userSpaceOnUse"
       id="clipPath2059-5-3-7">
      <path
         d="m -10.099732,231.68531 c 3.5587363,2.50616 4.8319716,-0.58528 2.9651647,-3.064 -3.1818907,-4.22486 -6.4443207,-9.83985 -12.3548527,-15.91305 -2.594516,-2.66865 -11.860659,-7.80827 -11.860659,-7.80827 0,0 -0.115438,-2.18844 -0.09884,-3.064 0.01106,-0.582 -0.565687,-0.56369 -0.889553,-0.29652 -0.782426,0.64546 -2.47097,2.56981 -2.47097,2.56981 l -1.68026,-0.0988 -1.087226,-1.58142 c -0.296516,-0.41055 -0.636056,-0.34641 -0.88955,0 -0.545383,1.84962 -0.878698,3.8848 -3.459359,3.95355 l 4.447747,3.95356 c 7.76561,1.55335 15.578734,5.58545 20.261957,14.33163 0,0 4.526451,5.19364 7.116396,7.01755 z"
         id="path2061-3-7-5"
         sodipodi:nodetypes="csscsscccccccs"
         inkscape:connector-curvature="0"
         stroke-dasharray="none"
         stroke-opacity="1"
         fill="#ffffff"
         fill-rule="evenodd"
         stroke="none"
         stroke-linejoin="miter"
         fill-opacity="1"
         stroke-linecap="butt"
         stroke-width="0.048"
         stroke-miterlimit="4" />
    </clipPath>
    <clipPath
       id="clipPath-5-9">
      <path
         d="m -515.73002,435.56445 v 5.83767 c 0,9.74315 -7.84377,17.58692 -17.58692,17.58692 h -135.05122 c -9.74315,0 -17.58692,-7.84377 -17.58692,-17.58692 v -5.83767 z"
         id="rect5264-9-2"
         inkscape:connector-curvature="0"
         sodipodi:nodetypes="csssscc"
         fill="#1b1b1b"
         stroke="none"
         fill-opacity="0.95" />
    </clipPath>
    <clipPath
       id="clipPath2059-7-2-2"
       clipPathUnits="userSpaceOnUse">
      <path
         stroke-miterlimit="4"
         stroke-width="0.048"
         stroke-linecap="butt"
         fill-opacity="1"
         stroke-linejoin="miter"
         stroke="none"
         fill-rule="evenodd"
         fill="#ffffff"
         stroke-opacity="1"
         stroke-dasharray="none"
         inkscape:connector-curvature="0"
         sodipodi:nodetypes="csscsscccccccs"
         id="path2061-5-28-8"
         d="m -10.099732,231.68531 c 3.5587363,2.50616 4.8319716,-0.58528 2.9651647,-3.064 -3.1818907,-4.22486 -6.4443207,-9.83985 -12.3548527,-15.91305 -2.594516,-2.66865 -11.860659,-7.80827 -11.860659,-7.80827 0,0 -0.115438,-2.18844 -0.09884,-3.064 0.01106,-0.582 -0.565687,-0.56369 -0.889553,-0.29652 -0.782426,0.64546 -2.47097,2.56981 -2.47097,2.56981 l -1.68026,-0.0988 -1.087226,-1.58142 c -0.296516,-0.41055 -0.636056,-0.34641 -0.88955,0 -0.545383,1.84962 -0.878698,3.8848 -3.459359,3.95355 l 4.447747,3.95356 c 7.76561,1.55335 15.578734,5.58545 20.261957,14.33163 0,0 4.526451,5.19364 7.116396,7.01755 z" />
    </clipPath>
    <clipPath
       id="clipPath1162-9-9"
       clipPathUnits="userSpaceOnUse">
      <path
         id="path1164-7-7"
         d="m -65.649736,239.84563 c -9.358079,0 -16.951888,7.59381 -16.951888,16.95188 0,9.35808 7.593811,16.94076 16.951888,16.94077 0.292439,0 0.578792,-0.008 0.867614,-0.0222 2.122786,-0.10753 4.148336,-0.60587 5.995453,-1.42378 l 2.669587,3.97101 c -0.225515,0.4951 -0.245107,0.96445 -0.01111,1.31255 l 15.67271,23.32553 c 0.495366,0.73695 1.94415,0.6317 3.247998,-0.24471 1.303846,-0.87642 1.96364,-2.17735 1.468276,-2.9143 L -51.42304,274.4168 c -0.233058,-0.34672 -0.682887,-0.49868 -1.22356,-0.47831 l -2.558357,-3.80416 c 3.95991,-3.10036 6.507123,-7.91951 6.507123,-13.33682 0,-9.35807 -7.593809,-16.95188 -16.951889,-16.95188 z m 0,2.5806 c 7.92884,0 14.371283,6.44244 14.371283,14.37128 0,7.92885 -6.442435,14.36016 -14.371283,14.36016 -7.928851,0 -14.349039,-6.43131 -14.349039,-14.36016 0,-0.24777 -0.0013,-0.48941 0.01111,-0.73413 0.384376,-7.58638 6.656848,-13.63715 14.337916,-13.63715 z"
         inkscape:connector-curvature="0"
         stroke-dasharray="none"
         stroke-opacity="1"
         fill="#000000"
         stroke="none"
         stroke-linejoin="round"
         fill-opacity="0.347"
         stroke-linecap="round"
         stroke-width="0.071"
         stroke-miterlimit="4" />
    </clipPath>
    <linearGradient
       id="linearGradient3798">
      <stop
         stop-opacity="1"
         stop-color="#ffffff"
         id="stop3800" />
      <stop
         stop-opacity="1"
         stop-color="#5c5c5c"
         offset="0.825"
         id="stop3806" />
      <stop
         stop-opacity="1"
         stop-color="#ffffff"
         id="stop3802"
         offset="1" />
    </linearGradient>
    <linearGradient
       id="linearGradient3545">
      <stop
         stop-opacity="1"
         stop-color="#ffffff"
         id="stop3547" />
      <stop
         stop-opacity="1"
         stop-color="#afafaf"
         id="stop3553"
         offset="0.698" />
      <stop
         stop-opacity="1"
         stop-color="#686868"
         offset="0.882"
         id="stop3555" />
      <stop
         stop-opacity="1"
         stop-color="#ffffff"
         offset="1"
         id="stop3549" />
    </linearGradient>
    <radialGradient
       inkscape:collect="always"
       xlink:href="#linearGradient977"
       id="radialGradient979"
       cx="35.150963"
       cy="286.36511"
       fx="35.150963"
       fy="286.36511"
       r="24.323542"
       gradientTransform="matrix(1,0,0,0.35018993,-1.2267045,186.00626)"
       gradientUnits="userSpaceOnUse" />
  </defs>
  <sodipodi:namedview
     inkscape:document-rotation="0"
     inkscape:window-maximized="1"
     inkscape:window-y="0"
     inkscape:window-x="0"
     inkscape:window-height="1056"
     inkscape:window-width="1920"
     inkscape:snap-global="false"
     inkscape:snap-nodes="false"
     inkscape:object-nodes="false"
     inkscape:snap-others="false"
     inkscape:snap-grids="false"
     inkscape:snap-to-guides="false"
     units="px"
     showgrid="false"
     inkscape:current-layer="layer1"
     inkscape:document-units="mm"
     inkscape:cy="127.5"
     inkscape:cx="127.5"
     inkscape:zoom="3.4509804"
     inkscape:pageshadow="2"
     inkscape:pageopacity="0"
     borderopacity="1.0"
     bordercolor="#666666"
     pagecolor="#ff0000"
     id="base"
     inkscape:showpageshadow="2"
     inkscape:pagecheckerboard="0"
     inkscape:deskcolor="#ff0000" />
  <metadata
     id="metadata5">
    <rdf:RDF>
      <cc:Work
         rdf:about="">
        <dc:format>image/svg+xml</dc:format>
        <dc:type
           rdf:resource="http://purl.org/dc/dcmitype/StillImage" />
        <dc:title />
      </cc:Work>
    </rdf:RDF>
  </metadata>
  <g
     transform="translate(0,-229.53123)"
     id="layer1"
     inkscape:groupmode="layer"
     inkscape:label="Layer 1">
    <ellipse
       style="opacity:1;fill:url(#radialGradient979);fill-opacity:1;stroke:none;stroke-width:0.076477;stroke-linecap:round;stroke-linejoin:round"
       id="path971"
       cx="33.924259"
       cy="286.28845"
       rx="24.323542"
       ry="8.5178595" />
    <rect
       style="fill:url(#linearGradient914);fill-opacity:1;stroke-width:0.0841734;stroke-linecap:round;stroke-linejoin:round"
       id="rect902"
       width="43.46349"
       height="19.666964"
       x="13.368524"
       y="273.66019"
       ry="7.9677629"
       rx="21.731745" />
    <ellipse
       style="fill:url(#linearGradient969);fill-opacity:1;stroke-width:0.102389;stroke-linecap:round;stroke-linejoin:round"
       id="path900"
       cx="35.060188"
       cy="281.67764"
       rx="21.736168"
       ry="7.9678526" />
    <rect
       rx="13.032235"
       ry="5.366034"
       y="269.34012"
       x="21.985479"
       height="17.06522"
       width="26.308382"
       id="rect904"
       style="fill:url(#linearGradient922);fill-opacity:1;stroke-width:0.0841734;stroke-linecap:round;stroke-linejoin:round" />
    <ellipse
       ry="4.7563524"
       rx="13.153952"
       cy="274.16483"
       cx="35.138115"
       id="ellipse971"
       style="fill:url(#linearGradient973);fill-opacity:1;stroke-width:0.0615397;stroke-linecap:round;stroke-linejoin:round" />
    <rect
       rx="10.401251"
       ry="4.0146894"
       y="267.23923"
       x="24.669744"
       height="9.5039797"
       width="20.986095"
       id="rect906"
       style="fill:url(#linearGradient930);fill-opacity:1;stroke-width:0.0421825;stroke-linecap:round;stroke-linejoin:round" />
    <ellipse
       style="fill:url(#linearGradient961);fill-opacity:1;stroke-width:0.0822956;stroke-linecap:round;stroke-linejoin:round"
       id="path953"
       cx="34.986965"
       cy="270.90878"
       rx="10.336036"
       ry="3.9131427" />
    <rect
       style="fill:url(#linearGradient938);fill-opacity:1;stroke-width:0.0841734;stroke-linecap:round;stroke-linejoin:round"
       id="rect898"
       width="7.0608363"
       height="15.88536"
       x="31.626518"
       y="255.43886"
       ry="1.2195671"
       rx="3.4897661" />
    <g
       transform="matrix(-0.13016205,0,0,0.13016205,52.107051,229.95138)"
       id="g974">
      <circle
         style="fill:url(#radialGradient3186);stroke:none"
         id="path2384"
         cx="126.27"
         cy="112.1"
         r="100.51"
         stroke-dasharray="none"
         stroke-opacity="1"
         fill="url(#radialGradient3186)"
         stroke="#0d1221"
         stroke-linejoin="round"
         fill-opacity="1"
         stroke-linecap="round"
         stroke-width="1.085"
         stroke-dashoffset="0"
         stroke-miterlimit="4" />
      <path
         style="fill:url(#linearGradient3228)"
         sodipodi:nodetypes="cscc"
         id="path3206"
         d="m 227.63814,112.40567 c 0,55.48345 -45.03006,100.51351 -100.5135,100.51351 -55.483459,0 -100.513507,-45.03006 -100.513507,-100.51351 1.161453,52.45293 157.181197,95.14581 201.027007,0 z"
         stroke-opacity="1"
         fill="url(#linearGradient3228)"
         stroke="none"
         stroke-linejoin="round"
         fill-opacity="1"
         stroke-linecap="round"
         stroke-width="0"
         stroke-dashoffset="0"
         stroke-miterlimit="4" />
    </g>
    <path
       id="path890"
       style="opacity:1;fill:url(#radialGradient898);fill-opacity:1;stroke:none;stroke-width:0.0737106;stroke-linecap:round;stroke-linejoin:round"
       d="m 42.285921,255.0999 c -4e-6,1.29023 -3.095254,2.33616 -6.91344,2.33616 -3.818185,0 -6.913437,-1.04593 -6.913441,-2.33616 4e-6,-1.29023 3.174866,-0.94199 6.993052,-0.94199 3.818185,0 6.833825,-0.34824 6.833829,0.94199"
       sodipodi:nodetypes="cscsc" />
    <path
       style="fill:#000000;fill-opacity:0.295108;stroke:none;stroke-width:0.280577px;stroke-linecap:butt;stroke-linejoin:miter;stroke-opacity:1"
       d="m 32.192969,270.35569 2.113898,1.21956 -5.203443,2.43911 0.325216,2.27651 -2.683026,1.54477 -0.162609,7.39865 -5.528658,2.52041 -0.243911,3.73998 -4.309102,-1.95129 0.162607,-3.73997 6.179088,-3.00825 -0.08131,-6.91082 3.170847,-1.21955 0.325214,-1.86999 z"
       id="path965"
       sodipodi:nodetypes="ccccccccccccccc" />
    <path
       sodipodi:nodetypes="ccccccccccccccc"
       id="path967"
       d="m 39.022482,269.86788 -2.113898,1.21955 5.203442,2.43911 -0.325215,2.27651 2.683026,1.54477 0.162608,7.39865 5.528659,2.52042 0.243911,3.73998 4.309102,-1.9513 -0.162608,-3.73997 -6.179087,-3.00824 0.08131,-6.91083 -3.170847,-1.21955 -0.325214,-1.86999 z"
       style="fill:#ffffff;fill-opacity:0.37927;stroke:none;stroke-width:0.280577px;stroke-linecap:butt;stroke-linejoin:miter;stroke-opacity:1" />
    <path
       style="fill:#ffffff;fill-opacity:0.268037;stroke:none;stroke-width:0.280577px;stroke-linecap:butt;stroke-linejoin:miter;stroke-opacity:1"
       d="m 34.239363,234.48761 c 4.642678,2.33424 7.332339,6.6215 8.289546,12.64121 l 5.070729,-2.98609 c -1.328478,-4.97492 -3.279494,-9.50516 -9.104103,-11.26855 z"
       id="path969"
       sodipodi:nodetypes="ccccc" />
  </g>
</svg>
