<?xml version="1.0" encoding="UTF-8" standalone="no"?>
<!-- Created with Inkscape (http://www.inkscape.org/) -->

<svg
   xmlns:dc="http://purl.org/dc/elements/1.1/"
   xmlns:cc="http://creativecommons.org/ns#"
   xmlns:rdf="http://www.w3.org/1999/02/22-rdf-syntax-ns#"
   xmlns:svg="http://www.w3.org/2000/svg"
   xmlns="http://www.w3.org/2000/svg"
   xmlns:xlink="http://www.w3.org/1999/xlink"
   xmlns:sodipodi="http://sodipodi.sourceforge.net/DTD/sodipodi-0.dtd"
   xmlns:inkscape="http://www.inkscape.org/namespaces/inkscape"
   id="svg2"
   version="1.1"
   inkscape:version="0.92.5 (2060ec1f9f, 2020-04-08)"
   width="256"
   height="256"
   sodipodi:docname="ascd.svg">
  <metadata
     id="metadata8">
    <rdf:RDF>
      <cc:Work
         rdf:about="">
        <dc:format>image/svg+xml</dc:format>
        <dc:type
           rdf:resource="http://purl.org/dc/dcmitype/StillImage" />
        <dc:title />
      </cc:Work>
    </rdf:RDF>
  </metadata>
  <defs
     id="defs6">
    <linearGradient
       id="linearGradient864">
      <stop
         id="stop860"
         offset="0"
         style="stop-color:#848484;stop-opacity:1" />
      <stop
         id="stop862"
         offset="1"
         style="stop-color:#c8c8c8;stop-opacity:1;" />
    </linearGradient>
    <linearGradient
       id="linearGradient3832">
      <stop
         style="stop-color:#eaeaea;stop-opacity:1;"
         offset="0"
         id="stop3834" />
      <stop
         style="stop-color:#eaeaea;stop-opacity:0;"
         offset="1"
         id="stop3836" />
    </linearGradient>
    <linearGradient
       id="linearGradient3808">
      <stop
         style="stop-color:#000000;stop-opacity:1;"
         offset="0"
         id="stop3810" />
      <stop
         style="stop-color:#bdbdbd;stop-opacity:1;"
         offset="1"
         id="stop3812" />
    </linearGradient>
    <linearGradient
       id="linearGradient3800">
      <stop
         style="stop-color:#ffffff;stop-opacity:1;"
         offset="0"
         id="stop3802" />
      <stop
         style="stop-color:#000000;stop-opacity:0;"
         offset="1"
         id="stop3804" />
    </linearGradient>
    <linearGradient
       id="linearGradient3777">
      <stop
         id="stop3779"
         offset="0"
         style="stop-color:#ffffff;stop-opacity:0.97841728;" />
      <stop
         id="stop3781"
         offset="1"
         style="stop-color:#c8c8c8;stop-opacity:0;" />
    </linearGradient>
    <linearGradient
       id="linearGradient3765">
      <stop
         style="stop-color:#000000;stop-opacity:1;"
         offset="0"
         id="stop3767" />
      <stop
         style="stop-color:#c8c8c8;stop-opacity:1;"
         offset="1"
         id="stop3769" />
    </linearGradient>
    <linearGradient
       inkscape:collect="always"
       xlink:href="#linearGradient3765"
       id="linearGradient3771"
       x1="300.23645"
       y1="183.72769"
       x2="302.31793"
       y2="147.32538"
       gradientUnits="userSpaceOnUse"
       spreadMethod="reflect" />
    <linearGradient
       inkscape:collect="always"
       xlink:href="#linearGradient3777"
       id="linearGradient3775"
       gradientUnits="userSpaceOnUse"
       spreadMethod="reflect"
       x1="258.80292"
       y1="152.3566"
       x2="296.99075"
       y2="114.77045" />
    <linearGradient
       inkscape:collect="always"
       xlink:href="#linearGradient3808"
       id="linearGradient3814"
       x1="257.18381"
       y1="128.29596"
       x2="253.04045"
       y2="128.29596"
       gradientUnits="userSpaceOnUse"
       spreadMethod="reflect"
       gradientTransform="matrix(1.1752492,0,0,1.6742602,-167.2614,-137.80778)" />
    <linearGradient
       inkscape:collect="always"
       xlink:href="#linearGradient3808"
       id="linearGradient3822"
       x1="257.47977"
       y1="186.3029"
       x2="251.85663"
       y2="186.3029"
       gradientUnits="userSpaceOnUse"
       spreadMethod="reflect"
       gradientTransform="matrix(1.1752492,0,0,1.4093506,-167.2614,-102.83738)" />
    <linearGradient
       inkscape:collect="always"
       xlink:href="#linearGradient3765"
       id="linearGradient3826"
       gradientUnits="userSpaceOnUse"
       spreadMethod="reflect"
       x1="300.23645"
       y1="183.72769"
       x2="302.31793"
       y2="147.32538" />
    <linearGradient
       inkscape:collect="always"
       xlink:href="#linearGradient3777"
       id="linearGradient3828"
       gradientUnits="userSpaceOnUse"
       spreadMethod="reflect"
       x1="253.011"
       y1="155.37846"
       x2="296.99075"
       y2="114.77045" />
    <linearGradient
       inkscape:collect="always"
       xlink:href="#linearGradient3832"
       id="linearGradient3838"
       x1="168.51236"
       y1="81.341187"
       x2="140.94006"
       y2="33.953133"
       gradientUnits="userSpaceOnUse"
       spreadMethod="reflect"
       gradientTransform="matrix(1,0,0,1.2821334,0,-34.150865)" />
    <linearGradient
       inkscape:collect="always"
       xlink:href="#linearGradient3832"
       id="linearGradient3846"
       x1="205.17966"
       y1="174.7146"
       x2="197.81656"
       y2="193.3597"
       gradientUnits="userSpaceOnUse"
       spreadMethod="reflect"
       gradientTransform="matrix(0.9020194,0.43169549,-0.43169549,0.9020194,88.998662,-50.349268)" />
    <linearGradient
       inkscape:collect="always"
       xlink:href="#linearGradient3777"
       id="linearGradient3849"
       gradientUnits="userSpaceOnUse"
       spreadMethod="reflect"
       x1="260.06201"
       y1="151.60114"
       x2="296.99075"
       y2="114.77045"
       gradientTransform="matrix(1.0600976,0.50734978,-0.50734978,1.0600976,-61.685922,-174.15729)" />
    <linearGradient
       inkscape:collect="always"
       xlink:href="#linearGradient864"
       id="linearGradient3853"
       gradientUnits="userSpaceOnUse"
       spreadMethod="reflect"
       x1="300.23645"
       y1="183.72769"
       x2="302.31793"
       y2="147.32538"
       gradientTransform="matrix(1.0600976,0.50734978,-0.50734978,1.0600976,-61.172052,-173.61459)" />
    <radialGradient
       inkscape:collect="always"
       xlink:href="#linearGradient3800"
       id="radialGradient3023"
       gradientUnits="userSpaceOnUse"
       gradientTransform="matrix(1,0,0,0.51122682,0,108.05673)"
       spreadMethod="reflect"
       cx="236.34422"
       cy="205.2462"
       fx="236.34422"
       fy="205.2462"
       r="30.039307" />
    <radialGradient
       inkscape:collect="always"
       xlink:href="#linearGradient3800"
       id="radialGradient3795"
       gradientUnits="userSpaceOnUse"
       gradientTransform="matrix(1,0,0,0.51122682,0,108.05673)"
       spreadMethod="reflect"
       cx="236.34422"
       cy="205.2462"
       fx="236.34422"
       fy="205.2462"
       r="30.039307" />
    <radialGradient
       inkscape:collect="always"
       xlink:href="#linearGradient3800"
       id="radialGradient3801"
       gradientUnits="userSpaceOnUse"
       gradientTransform="matrix(1,0,0,0.51122682,0,108.05673)"
       spreadMethod="reflect"
       cx="236.34422"
       cy="205.2462"
       fx="236.34422"
       fy="205.2462"
       r="30.039307" />
    <filter
       inkscape:collect="always"
       id="filter3823">
      <feGaussianBlur
         inkscape:collect="always"
         stdDeviation="1.4544514"
         id="feGaussianBlur3825" />
    </filter>
    <filter
       inkscape:collect="always"
       id="filter3837">
      <feGaussianBlur
         inkscape:collect="always"
         stdDeviation="2.5265343"
         id="feGaussianBlur3839" />
    </filter>
  </defs>
  <sodipodi:namedview
     pagecolor="#ffffff"
     bordercolor="#666666"
     borderopacity="1"
     objecttolerance="10"
     gridtolerance="10"
     guidetolerance="10"
     inkscape:pageopacity="0"
     inkscape:pageshadow="2"
     inkscape:window-width="1920"
     inkscape:window-height="1056"
     id="namedview4"
     showgrid="false"
     inkscape:zoom="3.3789062"
     inkscape:cx="128"
     inkscape:cy="128"
     inkscape:window-x="0"
     inkscape:window-y="0"
     inkscape:window-maximized="1"
     inkscape:current-layer="svg2" />
  <path
     style="fill:#000000;fill-opacity:0.76470588;stroke:none;filter:url(#filter3837)"
     d="M 164.52437,100.001 C 105.95785,77.268476 49.397116,78.643784 38.181827,103.09221 c -11.215286,24.44842 27.163866,62.70751 85.730383,85.44004 58.56652,22.73252 115.1401,21.32922 126.35539,-3.1192 11.21529,-24.44843 -27.17671,-62.67952 -85.74323,-85.41205 z m -5.28941,14.76335 c 20.72331,8.04373 34.31226,21.59212 30.34382,30.243 -3.96845,8.65089 -23.9882,9.12113 -44.71151,1.07741 -20.72331,-8.04373 -34.3251,-21.56414 -30.35666,-30.21502 3.96844,-8.65088 24.00104,-9.14912 44.72435,-1.10539 z"
     id="path3827"
     inkscape:connector-curvature="0" />
  <path
     transform="matrix(1.3349763,-0.48767299,0.48767299,1.3349763,-316.59658,33.825352)"
     d="m 267.83815,221.07745 a 30.039307,17.757225 0 1 1 -60.07861,0 30.039307,17.757225 0 1 1 60.07861,0 z"
     sodipodi:ry="17.757225"
     sodipodi:rx="30.039307"
     sodipodi:cy="221.07745"
     sodipodi:cx="237.79884"
     id="path3797"
     style="fill:#000000;fill-opacity:0.7647059;stroke:none;filter:url(#filter3823)"
     sodipodi:type="arc" />
  <path
     style="fill:#000000;fill-opacity:1;stroke:#000000;stroke-width:1.27770436px;stroke-linecap:butt;stroke-linejoin:miter;stroke-opacity:1"
     d="m 128.77455,17.171132 c 8.38004,62.016214 99.66843,73.039833 60.52059,184.998058 -3.2712,4.58099 -8.30946,1.41708 -6.60857,-2.46665 29.89719,-82.98169 -7.42082,-131.546571 -53.5642,-121.687607 z"
     id="path3789"
     inkscape:connector-curvature="0"
     sodipodi:nodetypes="ccccc" />
  <rect
     rx="5.7390203"
     ry="3.1282694"
     y="99.040291"
     x="126.64598"
     height="104.69276"
     width="11.478041"
     id="rect3787"
     style="fill:url(#linearGradient3822);fill-opacity:1;stroke:none" />
  <path
     sodipodi:nodetypes="cc"
     inkscape:connector-curvature="0"
     id="path3830"
     d="m 196.17253,174.59389 c -4.5743,10.21606 -2.30313,16.32623 -8.26591,28.34576"
     style="fill:none;stroke:url(#linearGradient3846);stroke-width:2.3499999;stroke-linecap:round;stroke-linejoin:round;stroke-miterlimit:4;stroke-opacity:0.61344539;stroke-dasharray:none" />
  <path
     style="fill:url(#linearGradient3853);fill-opacity:1;stroke:#6e6e6e;stroke-width:1.05762005;stroke-opacity:1"
     d="M 147.0631,79.344418 C 88.49658,51.315195 31.935844,47.575206 20.720555,71.009335 9.5052698,94.443456 47.884421,136.17351 106.45094,164.20274 c 58.56652,28.02922 115.1401,31.74238 126.35539,8.30826 11.21529,-23.43413 -27.17671,-65.13736 -85.74323,-93.166582 z m -5.28941,14.284979 c 20.72331,9.917923 34.31226,24.695283 30.34382,32.987263 -3.96845,8.29199 -23.9882,6.95166 -44.71151,-2.96626 -20.72331,-9.91792 -34.325096,-24.668456 -30.356656,-32.96044 3.968436,-8.29198 24.001036,-6.978487 44.724346,2.939437 z"
     id="path3755"
     inkscape:connector-curvature="0" />
  <path
     style="fill:#c8c8c8;fill-opacity:0.50840334;stroke:#6e6e6e;stroke-width:1.05762005;stroke-miterlimit:4;stroke-opacity:1;stroke-dasharray:none"
     d="m 141.25982,93.086701 c -20.72331,-9.917924 -40.74307,-11.258249 -44.711516,-2.966259 -3.96844,8.291982 9.620516,23.069348 30.343826,32.987268 20.7233,9.91792 40.75589,11.23142 44.72433,2.93943 3.96845,-8.29199 -9.63334,-23.04252 -30.35664,-32.960439 z m -3.00423,7.893689 c 7.08532,3.39094 11.72498,8.42495 10.36817,11.25998 -1.35681,2.83503 -8.18764,2.37942 -15.27296,-1.01152 -7.08531,-3.39095 -11.72496,-8.42497 -10.36815,-11.259996 1.35681,-2.835032 8.18763,-2.379411 15.27294,1.011536 z"
     id="path3759"
     inkscape:connector-curvature="0" />
  <path
     inkscape:connector-curvature="0"
     id="path3773"
     d="M 146.54923,78.801721 C 87.98271,50.772501 31.421978,47.032512 20.206688,70.466641 c -11.21529,23.43412 27.16386,65.164169 85.730382,93.193399 58.56652,28.02922 115.1401,31.74238 126.35539,8.30826 11.21529,-23.43413 -27.17671,-65.13736 -85.74323,-93.166579 z m -5.28941,14.28498 c 20.72331,9.917919 34.31226,24.695279 30.34382,32.987259 -3.96845,8.29199 -23.9882,6.95166 -44.71151,-2.96626 -20.72331,-9.91792 -34.325096,-24.668449 -30.356656,-32.960439 3.968436,-8.29198 24.001036,-6.97848 44.724346,2.93944 z"
     style="fill:url(#linearGradient3849);fill-opacity:1;stroke:#6e6e6e;stroke-width:1.05762005;stroke-opacity:1" />
  <rect
     style="fill:url(#linearGradient3814);fill-opacity:1;stroke:none"
     id="rect3785"
     width="11.478041"
     height="102.56925"
     x="126.64598"
     y="6.8792825"
     ry="3.7162766"
     rx="5.7390203" />
  <path
     sodipodi:nodetypes="ccccc"
     inkscape:connector-curvature="0"
     id="path3791"
     d="m 137.4284,9.4391782 c 7.90311,44.4956648 81.63627,93.0649818 63.00719,141.8128718 -3.2712,4.96928 -10.44823,2.88717 -8.74734,-1.32573 9.43292,-15.45332 -7.04419,-69.09896 -53.91203,-74.486413 z"
     style="fill:#3a3a3a;fill-opacity:1;stroke:none" />
  <path
     sodipodi:type="arc"
     style="fill:#000000;fill-opacity:1;stroke:none"
     id="path3783"
     sodipodi:cx="237.79884"
     sodipodi:cy="221.07745"
     sodipodi:rx="30.039307"
     sodipodi:ry="17.757225"
     d="m 267.83815,221.07745 a 30.039307,17.757225 0 1 1 -60.07861,0 30.039307,17.757225 0 1 1 60.07861,0 z"
     transform="matrix(1.3349763,-0.48767299,0.48767299,1.3349763,-327.84282,30.273907)" />
  <path
     transform="matrix(1.3349763,-0.48767299,0.48767299,1.3349763,-327.84282,30.273907)"
     d="m 267.83815,221.07745 a 30.039307,17.153028 0 1 1 -60.07861,0 30.039307,17.153028 0 1 1 60.07861,0 z"
     sodipodi:ry="17.153028"
     sodipodi:rx="30.039307"
     sodipodi:cy="221.07745"
     sodipodi:cx="237.79884"
     id="path3798"
     style="fill:url(#radialGradient3795);fill-opacity:1;stroke:none"
     sodipodi:type="arc" />
  <path
     style="fill:none;stroke:url(#linearGradient3838);stroke-width:2.66093612;stroke-linecap:round;stroke-linejoin:round;stroke-miterlimit:4;stroke-opacity:0.61344539;stroke-dasharray:none"
     d="m 137.13245,15.01684 c 19.14627,48.406696 75.65659,91.06186 63.30313,135.3019"
     id="path3824"
     inkscape:connector-curvature="0"
     sodipodi:nodetypes="cc" />
  <path
     style="fill:none;stroke:#000000;stroke-width:2;stroke-linecap:round;stroke-linejoin:round;stroke-miterlimit:4;stroke-opacity:1;stroke-dasharray:none"
     d="m 139.09827,73.512243 c 27.2309,7.5376 65.15917,34.067747 54.75144,78.423177"
     id="path3855"
     inkscape:connector-curvature="0"
     sodipodi:nodetypes="cc" />
</svg>
