<?xml version="1.0" encoding="UTF-8" standalone="no"?>
<!-- Created with Inkscape (http://www.inkscape.org/) -->

<svg
   xmlns:dc="http://purl.org/dc/elements/1.1/"
   xmlns:cc="http://creativecommons.org/ns#"
   xmlns:rdf="http://www.w3.org/1999/02/22-rdf-syntax-ns#"
   xmlns:svg="http://www.w3.org/2000/svg"
   xmlns="http://www.w3.org/2000/svg"
   xmlns:xlink="http://www.w3.org/1999/xlink"
   xmlns:sodipodi="http://sodipodi.sourceforge.net/DTD/sodipodi-0.dtd"
   xmlns:inkscape="http://www.inkscape.org/namespaces/inkscape"
   width="255"
   height="255"
   viewBox="0 0 67.468748 67.468752"
   version="1.1"
   id="svg8"
   inkscape:version="0.92.5 (2060ec1f9f, 2020-04-08)"
   sodipodi:docname="atom.svg">
  <defs
     id="defs2">
    <linearGradient
       inkscape:collect="always"
       id="linearGradient3947">
      <stop
         style="stop-color:#e6e3cb;stop-opacity:1;"
         offset="0"
         id="stop3949" />
      <stop
         style="stop-color:#f3f3f3;stop-opacity:1"
         offset="1"
         id="stop3951" />
    </linearGradient>
    <linearGradient
       inkscape:collect="always"
       id="linearGradient3939">
      <stop
         style="stop-color:#a7a7a7;stop-opacity:1"
         offset="0"
         id="stop3941" />
      <stop
         style="stop-color:#ffffff;stop-opacity:1"
         offset="1"
         id="stop3943" />
    </linearGradient>
    <linearGradient
       id="linearGradient3929"
       inkscape:collect="always">
      <stop
         id="stop3931"
         offset="0"
         style="stop-color:#bdbdac;stop-opacity:1" />
      <stop
         style="stop-color:#ffffff;stop-opacity:1"
         offset="0.46499303"
         id="stop3933" />
      <stop
         style="stop-color:#abab7b;stop-opacity:1"
         offset="0.77223015"
         id="stop3935" />
      <stop
         id="stop3937"
         offset="1"
         style="stop-color:#d8d8d8;stop-opacity:1" />
    </linearGradient>
    <linearGradient
       id="linearGradient863"
       inkscape:collect="always">
      <stop
         id="stop859"
         offset="0"
         style="stop-color:#000000;stop-opacity:0.3018018" />
      <stop
         id="stop861"
         offset="1"
         style="stop-color:#fffef8;stop-opacity:0" />
    </linearGradient>
    <linearGradient
       id="linearGradient832"
       inkscape:collect="always">
      <stop
         id="stop828"
         offset="0"
         style="stop-color:#f1f1c2;stop-opacity:0" />
      <stop
         id="stop830"
         offset="1"
         style="stop-color:#717171;stop-opacity:1" />
    </linearGradient>
    <linearGradient
       inkscape:collect="always"
       xlink:href="#linearGradient832"
       id="linearGradient842"
       gradientUnits="userSpaceOnUse"
       x1="45.442814"
       y1="278.58569"
       x2="47.911533"
       y2="281.30258"
       spreadMethod="pad"
       gradientTransform="matrix(0.66195377,0,0,0.66195377,15.313724,98.191214)" />
    <linearGradient
       inkscape:collect="always"
       xlink:href="#linearGradient3929"
       id="linearGradient844"
       gradientUnits="userSpaceOnUse"
       x1="37.745033"
       y1="267.71823"
       x2="48.81715"
       y2="279.49133"
       spreadMethod="reflect"
       gradientTransform="matrix(0.66195377,0,0,0.66195377,15.395194,98.354155)" />
    <linearGradient
       inkscape:collect="always"
       xlink:href="#linearGradient863"
       id="linearGradient852"
       x1="53.573002"
       y1="278.9335"
       x2="57.382515"
       y2="283.04489"
       gradientUnits="userSpaceOnUse"
       gradientTransform="matrix(0.89644406,0,0,0.89644406,0.25439102,32.056177)" />
    <linearGradient
       id="linearGradient2845">
      <stop
         style="stop-color:black;stop-opacity:0"
         offset="0"
         id="stop2847" />
      <stop
         style="stop-color:black;stop-opacity:1"
         offset="1"
         id="stop2849" />
    </linearGradient>
    <linearGradient
       id="linearGradient2831"
       inkscape:collect="always">
      <stop
         id="stop2833"
         offset="0"
         style="stop-color:#fff9f9;stop-opacity:1;" />
      <stop
         id="stop2835"
         offset="1"
         style="stop-color:black;stop-opacity:1" />
    </linearGradient>
    <linearGradient
       id="linearGradient2811"
       inkscape:collect="always">
      <stop
         id="stop2813"
         offset="0"
         style="stop-color:white;stop-opacity:1" />
      <stop
         id="stop2815"
         offset="1"
         style="stop-color:black;stop-opacity:1" />
    </linearGradient>
    <linearGradient
       id="linearGradient2797"
       inkscape:collect="always">
      <stop
         id="stop2799"
         offset="0"
         style="stop-color:black;stop-opacity:0" />
      <stop
         id="stop2801"
         offset="1"
         style="stop-color:white;stop-opacity:1" />
    </linearGradient>
    <linearGradient
       id="linearGradient2760">
      <stop
         id="stop2762"
         offset="0"
         style="stop-color:black;stop-opacity:1;" />
      <stop
         id="stop2764"
         offset="1"
         style="stop-color:white;stop-opacity:1;" />
    </linearGradient>
    <linearGradient
       y2="16.340425"
       x2="39.058514"
       y1="16.340425"
       x1="49.225178"
       spreadMethod="reflect"
       gradientTransform="matrix(0.763152,0,0,0.961942,10.34819,-7.885952)"
       gradientUnits="userSpaceOnUse"
       id="linearGradient2878"
       xlink:href="#linearGradient2760"
       inkscape:collect="always" />
    <linearGradient
       y2="12.499445"
       x2="49.245777"
       y1="12.499445"
       x1="46.510506"
       spreadMethod="reflect"
       gradientTransform="translate(-1.376389,-8.152458)"
       gradientUnits="userSpaceOnUse"
       id="linearGradient2880"
       xlink:href="#linearGradient2797"
       inkscape:collect="always" />
    <linearGradient
       y2="16.340425"
       x2="39.058514"
       y1="16.340425"
       x1="49.225178"
       spreadMethod="reflect"
       gradientUnits="userSpaceOnUse"
       id="linearGradient2882"
       xlink:href="#linearGradient2760"
       inkscape:collect="always" />
    <linearGradient
       y2="19.97764"
       x2="32.157841"
       y1="19.582497"
       x1="48.747795"
       gradientUnits="userSpaceOnUse"
       id="linearGradient2884"
       xlink:href="#linearGradient2760"
       inkscape:collect="always" />
    <linearGradient
       y2="65.711739"
       x2="91.336151"
       y1="65.711746"
       x1="79.657104"
       spreadMethod="reflect"
       gradientTransform="matrix(0.559323,0,0,1,-2.273874,4.192479)"
       gradientUnits="userSpaceOnUse"
       id="linearGradient2886"
       xlink:href="#linearGradient2831"
       inkscape:collect="always" />
    <linearGradient
       y2="16.340425"
       x2="39.058514"
       y1="16.340425"
       x1="49.225178"
       spreadMethod="reflect"
       gradientTransform="matrix(0.843003,0,0,1.003339,6.845093,8.646559)"
       gradientUnits="userSpaceOnUse"
       id="linearGradient2888"
       xlink:href="#linearGradient2760"
       inkscape:collect="always" />
    <linearGradient
       y2="12.499445"
       x2="49.245777"
       y1="12.499445"
       x1="46.510506"
       spreadMethod="reflect"
       gradientUnits="userSpaceOnUse"
       id="linearGradient2890"
       xlink:href="#linearGradient2797"
       inkscape:collect="always" />
    <linearGradient
       y2="12.499445"
       x2="49.245777"
       y1="12.499445"
       x1="46.510506"
       spreadMethod="reflect"
       gradientTransform="translate(-0.748657,8.834152)"
       gradientUnits="userSpaceOnUse"
       id="linearGradient2892"
       xlink:href="#linearGradient2797"
       inkscape:collect="always" />
    <linearGradient
       y2="36.694828"
       x2="33.009834"
       y1="36.694828"
       x1="21.959726"
       gradientUnits="userSpaceOnUse"
       id="linearGradient2894"
       xlink:href="#linearGradient2811"
       inkscape:collect="always" />
    <linearGradient
       y2="119.23307"
       x2="41.286198"
       y1="120.14248"
       x1="33.917374"
       spreadMethod="reflect"
       gradientTransform="matrix(0.843003,0,0,1.003339,6.845093,8.646559)"
       gradientUnits="userSpaceOnUse"
       id="linearGradient2896"
       xlink:href="#linearGradient2760"
       inkscape:collect="always" />
    <linearGradient
       y2="122.87069"
       x2="51.182152"
       y1="122.22112"
       x1="45.978069"
       spreadMethod="pad"
       gradientTransform="matrix(0.843003,0,0,1.003339,6.845093,8.646559)"
       gradientUnits="userSpaceOnUse"
       id="linearGradient2898"
       xlink:href="#linearGradient2845"
       inkscape:collect="always" />
    <linearGradient
       y2="148.8558"
       x2="29.589167"
       y1="148.8558"
       x1="25.678703"
       spreadMethod="reflect"
       gradientTransform="matrix(0.531915,0,0,0.597561,29.88314,56.32079)"
       gradientUnits="userSpaceOnUse"
       id="linearGradient2900"
       xlink:href="#linearGradient2831"
       inkscape:collect="always" />
    <linearGradient
       inkscape:collect="always"
       xlink:href="#linearGradient2811"
       id="linearGradient2865"
       x1="142.96986"
       y1="202.21474"
       x2="150.11748"
       y2="42.245087"
       gradientUnits="userSpaceOnUse" />
    <linearGradient
       inkscape:collect="always"
       xlink:href="#linearGradient2811"
       id="linearGradient2857"
       x1="121.57563"
       y1="41.947189"
       x2="113.72008"
       y2="204.89578"
       gradientUnits="userSpaceOnUse" />
    <linearGradient
       inkscape:collect="always"
       xlink:href="#linearGradient2811"
       id="linearGradient2849"
       x1="144.8076"
       y1="77.370277"
       x2="145.41264"
       y2="165.71899"
       gradientUnits="userSpaceOnUse"
       spreadMethod="reflect" />
    <linearGradient
       inkscape:collect="always"
       xlink:href="#linearGradient2811"
       id="linearGradient2835"
       x1="123.61967"
       y1="165.71899"
       x2="122.81"
       y2="53.922462"
       gradientUnits="userSpaceOnUse" />
    <linearGradient
       inkscape:collect="always"
       xlink:href="#linearGradient2811"
       id="linearGradient2827"
       x1="177.02089"
       y1="172.18156"
       x2="177.70123"
       y2="190.7674"
       gradientUnits="userSpaceOnUse" />
    <linearGradient
       inkscape:collect="always"
       xlink:href="#linearGradient2811"
       id="linearGradient2819"
       x1="165.0208"
       y1="190.7674"
       x2="165.0208"
       y2="172.18156"
       gradientUnits="userSpaceOnUse" />
    <linearGradient
       inkscape:collect="always"
       xlink:href="#linearGradient3939"
       id="linearGradient3945"
       x1="34.918575"
       y1="291.43677"
       x2="34.708"
       y2="233.08331"
       gradientUnits="userSpaceOnUse"
       gradientTransform="matrix(1.0457168,0,0,1.0457168,-1.7371763,-12.291663)" />
    <linearGradient
       inkscape:collect="always"
       xlink:href="#linearGradient3947"
       id="linearGradient3953"
       x1="28.997532"
       y1="256.8454"
       x2="29.56604"
       y2="238.30319"
       gradientUnits="userSpaceOnUse"
       spreadMethod="reflect"
       gradientTransform="matrix(1.0457168,0,0,1.0457168,-1.7371763,-12.291663)" />
    <filter
       inkscape:collect="always"
       style="color-interpolation-filters:sRGB"
       id="filter901"
       x="-0.013837829"
       width="1.0276757"
       y="-0.010593109"
       height="1.0211862">
      <feGaussianBlur
         inkscape:collect="always"
         stdDeviation="0.25550912"
         id="feGaussianBlur903" />
    </filter>
    <filter
       inkscape:collect="always"
       style="color-interpolation-filters:sRGB"
       id="filter905"
       x="-0.012166418"
       width="1.0243328"
       y="-0.011838073"
       height="1.0236761">
      <feGaussianBlur
         inkscape:collect="always"
         stdDeviation="0.84004669"
         id="feGaussianBlur907" />
    </filter>
    <filter
       inkscape:collect="always"
       style="color-interpolation-filters:sRGB"
       id="filter909"
       x="-0.012193627"
       width="1.0243873"
       y="-0.011812426"
       height="1.0236249">
      <feGaussianBlur
         inkscape:collect="always"
         stdDeviation="0.14896256"
         id="feGaussianBlur911" />
    </filter>
  </defs>
  <sodipodi:namedview
     id="base"
     pagecolor="#ff0000"
     bordercolor="#666666"
     borderopacity="1.0"
     inkscape:pageopacity="0"
     inkscape:pageshadow="2"
     inkscape:zoom="3.3960784"
     inkscape:cx="127.5"
     inkscape:cy="130.60588"
     inkscape:document-units="mm"
     inkscape:current-layer="layer1"
     showgrid="false"
     units="px"
     inkscape:snap-to-guides="false"
     inkscape:snap-grids="false"
     inkscape:snap-others="false"
     inkscape:object-nodes="false"
     inkscape:snap-nodes="false"
     inkscape:snap-global="false"
     inkscape:window-width="1920"
     inkscape:window-height="1056"
     inkscape:window-x="0"
     inkscape:window-y="0"
     inkscape:window-maximized="1" />
  <metadata
     id="metadata5">
    <rdf:RDF>
      <cc:Work
         rdf:about="">
        <dc:format>image/svg+xml</dc:format>
        <dc:type
           rdf:resource="http://purl.org/dc/dcmitype/StillImage" />
        <dc:title />
      </cc:Work>
    </rdf:RDF>
  </metadata>
  <g
     inkscape:label="Layer 1"
     inkscape:groupmode="layer"
     id="layer1"
     transform="translate(0,-229.53123)">
    <g
       id="g3963"
       transform="matrix(1.0457168,0,0,1.0457168,72.726602,-9.1957943)"
       style="filter:url(#filter901)">
      <path
         style="fill:#000000;fill-opacity:0.25980392;stroke:none"
         d="m -54.767664,232.96511 h 40.952246 c 0.931453,0 1.681324,0.74987 1.681324,1.68132 v 38.75474 l -19.156388,17.43679 c -14.214202,0.0254 -9.26296,0.0127 -23.47718,0.0127 -0.931454,0 -1.681324,-0.74988 -1.681324,-1.68133 V 234.6464 c 0,-0.93145 0.74987,-1.68132 1.681324,-1.68132 z"
         id="path3955"
         inkscape:connector-curvature="0"
         sodipodi:nodetypes="csscccsssc" />
      <path
         sodipodi:nodetypes="csscccsssc"
         inkscape:connector-curvature="0"
         id="path3957"
         d="m -54.337605,233.58837 h 40.015294 c 0.910142,0 1.642857,0.73474 1.642857,1.64739 v 37.97237 l -18.718107,17.08479 c -13.888993,0.0249 -9.051031,0.0124 -22.940042,0.0124 -0.910143,0 -1.642857,-0.73474 -1.642857,-1.64738 v -53.42225 c 0,-0.91265 0.732714,-1.64739 1.642857,-1.64739 z"
         style="fill:#000000;fill-opacity:0.25980392;stroke:none" />
      <path
         sodipodi:nodetypes="csscccsssc"
         inkscape:connector-curvature="0"
         id="path3959"
         d="m -53.775597,234.36746 h 38.968112 c 0.886325,0 1.599864,0.71354 1.599864,1.59986 v 36.87708 l -18.228262,16.59198 c -13.525525,0.0242 -8.81417,0.0121 -22.339712,0.0121 -0.886326,0 -1.599864,-0.71355 -1.599864,-1.59987 v -51.8813 c 0,-0.88632 0.713538,-1.59986 1.599864,-1.59986 z"
         style="fill:#000000;fill-opacity:0.25980392;stroke:none" />
      <path
         style="fill:#000000;fill-opacity:0.25980392;stroke:none"
         d="m -53.169334,235.22445 h 37.755586 c 0.858746,0 1.550083,0.69134 1.550083,1.55008 v 35.72962 l -17.661074,16.07571 c -13.104667,0.0234 -8.53991,0.0117 -21.644593,0.0117 -0.858747,0 -1.550083,-0.69135 -1.550083,-1.55009 V 236.7745 c 0,-0.85874 0.691336,-1.55008 1.550083,-1.55008 z"
         id="path3961"
         inkscape:connector-curvature="0"
         sodipodi:nodetypes="csscccsssc" />
    </g>
    <g
       id="layer1-6"
       inkscape:label="1. réteg"
       transform="matrix(0.26458333,0,0,0.26458333,3.3683007,227.66356)">
      <path
         inkscape:connector-curvature="0"
         id="text3905"
         d="M 14.672896,-7.9438771 H 9.3818802 l -0.834961,2.390625 H 5.1455522 L 10.005903,-18.675323 h 4.03418 l 4.860352,13.1220709 h -3.401368 l -0.826171,-2.390625 M 10.22563,-10.378448 h 3.594727 l -1.792969,-5.220703 -1.801758,5.220703 m 10.40625,-8.296875 h 5.616211 c 1.669913,1.3e-5 2.950185,0.372083 3.84082,1.116211 0.896473,0.738293 1.344714,1.792979 1.344727,3.164063 -1.3e-5,1.37696 -0.448254,2.437506 -1.344727,3.18164 -0.890635,0.738287 -2.170907,1.107427 -3.84082,1.107422 h -2.232422 v 4.5527349 H 20.63188 V -18.675323 m 3.383789,2.452149 v 3.665039 h 1.87207 c 0.656243,7e-6 1.163078,-0.158196 1.520508,-0.47461 0.357413,-0.322257 0.536124,-0.776358 0.536133,-1.362304 -9e-6,-0.585928 -0.17872,-1.0371 -0.536133,-1.353516 -0.35743,-0.316396 -0.864265,-0.474599 -1.520508,-0.474609 h -1.87207"
         style="font-style:normal;font-weight:bold;font-size:18px;font-family:'Bitstream Vera Sans';fill:#000000;fill-opacity:1;stroke:none;stroke-width:1px;stroke-linecap:butt;stroke-linejoin:miter;stroke-opacity:1" />
    </g>
    <path
       style="fill:url(#linearGradient3953);fill-opacity:1;stroke:url(#linearGradient3945);stroke-width:0.69169807;stroke-linecap:round;stroke-linejoin:round;stroke-miterlimit:4;stroke-dasharray:none;stroke-dashoffset:0;stroke-opacity:1"
       d="m 13.336909,231.40534 h 42.824452 c 0.974037,0 1.758189,0.78415 1.758189,1.75818 v 40.52649 l -20.032157,18.23394 c -14.86403,0.0266 -9.686433,0.0132 -24.550482,0.0132 -0.974037,0 -1.758189,-0.78416 -1.758189,-1.75819 v -57.01555 c 0,-0.97403 0.784152,-1.75818 1.758189,-1.75818 z"
       id="rect3035"
       inkscape:connector-curvature="0"
       sodipodi:nodetypes="csscccsssc" />
    <g
       id="g3012"
       transform="matrix(0.30751004,0,0,0.30751004,-92.951648,227.30887)"
       style="filter:url(#filter905)">
      <path
         inkscape:connector-curvature="0"
         id="path3008"
         d="m 470.34375,45.75 c -4.8173,0.805829 -6.44041,8.719251 -11.96875,6.1875 -2.307,0.115702 -4.13023,4.290376 -5.96875,1.0625 -3.98531,-3.69761 -11.56576,-5.028228 -14.43638,0.75849 -14.49354,15.603301 -30.65958,29.921932 -44.00112,46.39776 -0.41522,5.46074 7.0063,3.38824 10.03125,2.4375 5.85568,-0.99833 13.02429,-5.422131 10.46875,-12.1875 4.03171,-4.692764 9.16319,-8.464443 13.21875,-13.25 5.88227,-5.457607 10.98896,-12.675245 17.75,-16.5 3.41514,0.952089 -0.6401,4.052019 0,6.03125 -2.22871,5.608448 -8.57344,8.586258 -12.06806,13.50163 -31.16893,32.38478 -62.71652,64.44514 -93.61944,97.06087 -3.43833,13.17157 -10.68349,25.51277 -13.625,38.6875 7.65694,0.702 14.45734,-5.29853 21.71875,-7.375 9.29699,-3.71219 19.71958,-6.81046 25.55096,-15.62095 32.81341,-33.48771 65.01217,-67.89049 98.19904,-100.81655 6.78094,-0.429291 10.56876,-7.385528 14.3125,-12.0625 0.44597,-2.857092 -1.40417,-6.998569 2.59375,-7.96875 7.19291,-5.708978 1.35591,-16.17233 -4.375,-20.59375 -3.73348,-3.348298 -8.55565,-6.284337 -13.78125,-5.75 z"
         style="fill:#000000;fill-opacity:0.11111109;stroke:none;stroke-width:0.65615714;stroke-linecap:round;stroke-linejoin:round;stroke-miterlimit:4;stroke-dashoffset:0;stroke-opacity:1" />
      <path
         inkscape:connector-curvature="0"
         id="path3004"
         d="m 471.4375,46.6875 c -5.33734,-0.155122 -6.54591,8.625313 -12,6.34375 -3.05004,-0.924782 -4.40792,4.477613 -6.90625,1.34375 -3.5427,-2.952798 -9.95754,-6.103694 -13.01991,-0.785497 -14.67688,15.544231 -30.38081,30.308958 -44.44884,46.316747 -1.24967,4.51988 5.47767,2.51195 7.75526,1.92974 4.53924,-1.04755 13.25737,-3.902221 10.65099,-10.08599 -1.10757,-3.585998 5.99969,-6.296139 7.75345,-9.592096 7.84559,-7.318789 14.86087,-15.937962 23.1528,-22.564154 2.97932,-0.257103 4.9856,2.590153 2.375,4.59375 -0.28871,3.060676 -0.5407,5.503188 -3.63267,7.343674 -34.10562,35.354516 -68.42907,70.539876 -102.39858,106.000076 -3.6478,12.91293 -9.90128,25.14097 -13.78125,37.8125 6.48423,-0.54167 13.13159,-5.20171 19.67373,-7.30179 8.62062,-4.1054 18.89316,-5.81618 24.58577,-14.22744 33.27494,-34.16174 66.32537,-68.95066 99.7405,-102.72077 6.39387,0.453878 9.68302,-6.801268 13.78125,-10.625 1.38616,-3.21734 -1.95199,-6.85811 2.52717,-8.722523 7.19262,-4.616664 2.32359,-13.834241 -2.43342,-18.214977 -3.53818,-3.483509 -8.17263,-6.88197 -13.375,-6.84375 z"
         style="fill:#000000;fill-opacity:0.11111109;stroke:none;stroke-width:0.65615714;stroke-linecap:round;stroke-linejoin:round;stroke-miterlimit:4;stroke-dashoffset:0;stroke-opacity:1" />
      <path
         inkscape:connector-curvature="0"
         id="path2904"
         d="m 472.04012,47.669105 c -1.47522,-0.04274 -2.68591,0.345111 -3.53125,1.21875 l -5.65625,5.8125 c -1.22602,-0.42081 -2.35761,-0.637317 -3.34375,-0.65625 -1.28219,-0.02462 -2.32822,0.304687 -3.03125,1.03125 l -1.6875,1.75 c -3.63732,-1.714261 -7.75924,-5.598058 -10.9375,-5.21875 -0.81873,0.09771 -1.54671,0.476847 -2.21875,1.25 l -44.34375,45.5625 c -3.60625,4.228715 0.008,3.499375 3.03125,2.937495 6.78224,-1.2604 16.67973,-4.890955 11.0625,-10.749995 l 31.03125,-31.125 c 1.81239,-1.369425 3.63729,-1.312604 5.5,0.375 l 2.09375,1.875 -1.09375,1.15625 c 0.49354,-0.354173 1.27264,-0.37868 2.21875,-0.15625 -1.22615,-0.03959 -2.21197,0.252281 -2.875,0.9375 -0.94479,0.976424 -1.0847,2.602375 -0.5625,4.59375 l -106,109.562495 c -2.42689,8.32203 -8.15791,22.65287 -13.90625,37 L 364.22762,199.6066 470.32137,89.981605 c 1.90023,0.39297 3.435,0.18916 4.34375,-0.75 1.06115,-1.09665 1.08891,-3.00829 0.3125,-5.34375 1.08722,2.14807 1.39033,3.93966 0.5,5.0625 l 7.71875,-8 c 1.26593,-1.30828 1.20861,-3.67335 0.0937,-6.53125 l 5.59375,-5.8125 c 2.70513,-2.795646 0.33789,-9.438833 -5.3125,-14.90625 -3.88464,-3.75885 -8.28575,-5.937218 -11.53125,-6.03125 z"
         style="fill:#000000;fill-opacity:0.11111109;stroke:none;stroke-width:0.65615714;stroke-linecap:round;stroke-linejoin:round;stroke-miterlimit:4;stroke-dashoffset:0;stroke-opacity:1" />
    </g>
    <g
       id="g2863"
       transform="matrix(0.33848,0.3275188,-0.3275188,0.33848,39.984817,226.18917)">
      <path
         inkscape:connector-curvature="0"
         style="fill:url(#linearGradient2878);fill-opacity:1;stroke:#000000;stroke-width:0.42840043;stroke-linecap:round;stroke-linejoin:round;stroke-miterlimit:4;stroke-dashoffset:0;stroke-opacity:1"
         d="m 43.861934,-0.24499563 c 5.133405,0 9.266073,2.04471973 9.266073,4.58457263 v 6.986015 c -0.365473,-4.6604097 -18.59043,-3.5866289 -18.532146,0 V 4.339577 c 0,-2.5398529 4.132669,-4.58457263 9.266073,-4.58457263 z"
         id="path2819"
         sodipodi:nodetypes="cccccc" />
      <path
         inkscape:connector-curvature="0"
         style="fill:url(#linearGradient2880);fill-opacity:1;fill-rule:evenodd;stroke:none;stroke-width:0;stroke-linecap:round;stroke-linejoin:round;stroke-miterlimit:4;stroke-dasharray:none;stroke-opacity:1"
         d="m 46.053232,-0.01877408 4.051425,1.18748678 -0.06985,7.1947728 c -1.598284,-0.851531 -2.979491,-0.834751 -4.400687,-0.97793 l 0.419114,-7.40432958 z"
         id="path2823"
         sodipodi:nodetypes="ccccc" />
      <path
         inkscape:connector-curvature="0"
         sodipodi:nodetypes="cccccc"
         id="rect1873"
         d="m 43.914894,7.9432626 c 6.726582,0 12.141844,2.1256174 12.141844,4.7659574 v 7.262412 c -0.478899,-4.844796 -24.36006,-3.728532 -24.283688,0 V 12.70922 c 0,-2.64034 5.415263,-4.7659574 12.141844,-4.7659574 z"
         style="fill:url(#linearGradient2882);fill-opacity:1;stroke:#000000;stroke-width:0.5;stroke-linecap:round;stroke-linejoin:round;stroke-miterlimit:4;stroke-dashoffset:0;stroke-opacity:1" />
      <rect
         ry="4.4947567"
         rx="11.755522"
         y="15.976812"
         x="31.809053"
         height="8.9895134"
         width="24.004974"
         id="rect2781"
         style="opacity:1;fill:url(#linearGradient2884);fill-opacity:1;stroke:#000000;stroke-width:0.5;stroke-linecap:round;stroke-linejoin:round;stroke-miterlimit:4;stroke-dasharray:none;stroke-dashoffset:0;stroke-opacity:1" />
      <rect
         rx="4.9411359"
         ry="2.3957024"
         y="20.492859"
         x="38.930164"
         height="98.822723"
         width="9.8822718"
         id="rect2829"
         style="opacity:1;fill:url(#linearGradient2886);fill-opacity:1;stroke:none;stroke-width:0;stroke-linecap:round;stroke-linejoin:round;stroke-miterlimit:4;stroke-dasharray:none;stroke-dashoffset:0;stroke-opacity:1" />
      <path
         inkscape:connector-curvature="0"
         style="opacity:0.65306121;fill:url(#linearGradient2888);fill-opacity:1;stroke:#000000;stroke-width:0.45984173;stroke-linecap:round;stroke-linejoin:round;stroke-miterlimit:4;stroke-dashoffset:0;stroke-opacity:1"
         d="m 43.865487,16.616341 c 5.67053,0 10.235613,2.132714 10.235613,4.781869 V 122.4041 c -0.403714,-4.86097 -20.535608,-3.74098 -20.471226,0 V 21.39821 c 0,-2.649155 4.565084,-4.781869 10.235613,-4.781869 z"
         id="path2791"
         sodipodi:nodetypes="cccccc" />
      <path
         inkscape:connector-curvature="0"
         sodipodi:nodetypes="ccccc"
         id="path2795"
         d="m 47.429621,8.1336844 4.051425,1.1874868 -0.06985,7.1947728 c -1.598284,-0.851531 -2.979491,-0.834751 -4.400687,-0.97793 l 0.419114,-7.4043296 z"
         style="fill:url(#linearGradient2890);fill-opacity:1;fill-rule:evenodd;stroke:none;stroke-width:0;stroke-linecap:round;stroke-linejoin:round;stroke-miterlimit:4;stroke-dasharray:none;stroke-opacity:1" />
      <path
         inkscape:connector-curvature="0"
         style="opacity:0.62244897;fill:url(#linearGradient2892);fill-opacity:1;fill-rule:evenodd;stroke:none;stroke-width:0;stroke-linecap:round;stroke-linejoin:round;stroke-miterlimit:4;stroke-dasharray:none;stroke-opacity:1"
         d="m 46.680964,16.967837 4.051425,1.187486 -0.06985,101.085167 c -1.598284,-0.85153 -2.979491,-0.83475 -4.400687,-0.97793 z"
         id="path2805"
         sodipodi:nodetypes="ccccc" />
      <path
         inkscape:connector-curvature="0"
         sodipodi:nodetypes="cccccsccc"
         id="path2809"
         d="m 32.609834,12.700944 v 4.764424 l -2.646902,0.105876 c -1.640163,0.05385 -2.524131,0.863904 -2.752778,2.329274 l -0.423505,28.692419 c 5.295648,0.198798 2.292363,6.387669 -0.317628,10.058228 -1.163511,1.636303 -2.524971,3.621374 -2.752778,0 L 23.822119,17.14774 c -0.19036,-3.561998 5.828355,-2.984612 8.787715,-4.446796 z"
         style="fill:#ababab;fill-opacity:1;fill-rule:evenodd;stroke:url(#linearGradient2894);stroke-width:0.80000001;stroke-linecap:round;stroke-linejoin:round;stroke-miterlimit:4;stroke-dasharray:none;stroke-opacity:1" />
      <rect
         y="18.100624"
         x="24.457375"
         height="41.397549"
         width="0.74113262"
         id="rect2827"
         style="opacity:1;fill:#fff9f9;fill-opacity:0.6719577;stroke:#000000;stroke-width:0;stroke-linecap:round;stroke-linejoin:round;stroke-miterlimit:4;stroke-dasharray:none;stroke-dashoffset:0;stroke-opacity:1;filter:url(#filter909)" />
      <path
         inkscape:connector-curvature="0"
         sodipodi:nodetypes="cccc"
         id="path2839"
         d="M 43.918305,146.07198 54.1011,122.4041 c -0.403714,-4.86097 -20.535608,-3.74098 -20.471226,0 2.639549,5.00652 6.471878,14.32643 10.288431,23.66788 z"
         style="opacity:1;fill:url(#linearGradient2896);fill-opacity:1;stroke:#000000;stroke-width:0.30000001;stroke-linecap:round;stroke-linejoin:round;stroke-miterlimit:4;stroke-dasharray:none;stroke-dashoffset:0;stroke-opacity:1" />
      <path
         inkscape:connector-curvature="0"
         style="opacity:1;fill:url(#linearGradient2898);fill-opacity:1;stroke:none;stroke-width:0;stroke-linecap:round;stroke-linejoin:round;stroke-miterlimit:4;stroke-dasharray:none;stroke-dashoffset:0;stroke-opacity:1"
         d="M 43.918305,146.07198 54.1011,122.4041 c -0.403714,-4.86097 -20.535608,-3.74098 -20.471226,0 2.639549,5.00652 6.471878,14.32643 10.288431,23.66788 z"
         id="path2843"
         sodipodi:nodetypes="cccc" />
      <rect
         rx="1.6293595"
         ry="0.91244125"
         y="142.07767"
         x="42.363342"
         height="6.3870888"
         width="3.258719"
         id="rect2853"
         style="opacity:1;fill:url(#linearGradient2900);fill-opacity:1;stroke:none;stroke-width:0;stroke-linecap:round;stroke-linejoin:round;stroke-miterlimit:4;stroke-dasharray:none;stroke-dashoffset:0;stroke-opacity:1" />
    </g>
    <path
       style="fill:url(#linearGradient852);fill-opacity:1;stroke:none;stroke-width:1.04571688"
       d="m 38.006306,291.97924 19.372155,-17.45024 0.922376,5.43704 -13.462989,12.51583 z"
       id="path844"
       inkscape:connector-curvature="0"
       sodipodi:nodetypes="ccccc" />
    <path
       style="fill:url(#linearGradient842);fill-opacity:1;stroke:none;stroke-width:1.04571688"
       d="m 34.946666,292.09383 22.930076,-20.0326 0.06097,1.70972 -20.443263,18.37283 z"
       id="path838"
       inkscape:connector-curvature="0"
       sodipodi:nodetypes="ccccc" />
    <path
       sodipodi:nodetypes="cccccc"
       inkscape:connector-curvature="0"
       id="path840"
       d="m 37.625878,292.30673 20.432247,-18.48394 c -1.521285,0.8569 -3.035529,1.73025 -4.946194,1.67859 l -13.03818,-0.08 0.205809,11.93694 c -0.126436,1.89925 -0.73483,3.29892 -2.653682,4.94839 z"
       style="fill:url(#linearGradient844);fill-opacity:1;stroke:none;stroke-width:0.15762775;stroke-linecap:butt;stroke-linejoin:round;stroke-miterlimit:4;stroke-dasharray:none;stroke-opacity:1" />
  </g>
</svg>
