<?xml version="1.0" encoding="UTF-8" standalone="no"?>
<!-- Created with Inkscape (http://www.inkscape.org/) -->

<svg
   xmlns:dc="http://purl.org/dc/elements/1.1/"
   xmlns:cc="http://creativecommons.org/ns#"
   xmlns:rdf="http://www.w3.org/1999/02/22-rdf-syntax-ns#"
   xmlns:svg="http://www.w3.org/2000/svg"
   xmlns="http://www.w3.org/2000/svg"
   xmlns:xlink="http://www.w3.org/1999/xlink"
   xmlns:sodipodi="http://sodipodi.sourceforge.net/DTD/sodipodi-0.dtd"
   xmlns:inkscape="http://www.inkscape.org/namespaces/inkscape"
   id="svg2"
   version="1.1"
   inkscape:version="0.91 r13725"
   width="256"
   height="256"
   viewBox="0 0 256 256"
   sodipodi:docname="8x56_presse_mr3.svg">
  <metadata
     id="metadata8">
    <rdf:RDF>
      <cc:Work
         rdf:about="">
        <dc:format>image/svg+xml</dc:format>
        <dc:type
           rdf:resource="http://purl.org/dc/dcmitype/StillImage" />
        <dc:title></dc:title>
      </cc:Work>
    </rdf:RDF>
  </metadata>
  <defs
     id="defs6">
    <linearGradient
       inkscape:collect="always"
       id="linearGradient4336">
      <stop
         style="stop-color:#545454;stop-opacity:0.73113215"
         offset="0"
         id="stop4338" />
      <stop
         style="stop-color:#545454;stop-opacity:0.11792453"
         offset="1"
         id="stop4340" />
    </linearGradient>
    <linearGradient
       inkscape:collect="always"
       id="linearGradient4318">
      <stop
         style="stop-color:#868686;stop-opacity:0.43867925"
         offset="0"
         id="stop4320" />
      <stop
         style="stop-color:#868686;stop-opacity:0;"
         offset="1"
         id="stop4322" />
    </linearGradient>
    <linearGradient
       inkscape:collect="always"
       id="linearGradient4306">
      <stop
         style="stop-color:#3d3d3d;stop-opacity:1"
         offset="0"
         id="stop4308" />
      <stop
         style="stop-color:#4d4d4d;stop-opacity:0;"
         offset="1"
         id="stop4310" />
    </linearGradient>
    <linearGradient
       inkscape:collect="always"
       id="linearGradient4296">
      <stop
         style="stop-color:#4d4d4d;stop-opacity:1"
         offset="0"
         id="stop4298" />
      <stop
         style="stop-color:#000000;stop-opacity:1"
         offset="1"
         id="stop4300" />
    </linearGradient>
    <linearGradient
       inkscape:collect="always"
       id="linearGradient4282">
      <stop
         style="stop-color:#585858;stop-opacity:1"
         offset="0"
         id="stop4284" />
      <stop
         style="stop-color:#000000;stop-opacity:0;"
         offset="1"
         id="stop4286" />
    </linearGradient>
    <linearGradient
       inkscape:collect="always"
       id="linearGradient4253">
      <stop
         style="stop-color:#161616;stop-opacity:1"
         offset="0"
         id="stop4255" />
      <stop
         id="stop4261"
         offset="0.49129432"
         style="stop-color:#636363;stop-opacity:1" />
      <stop
         style="stop-color:#6c6c6c;stop-opacity:1"
         offset="1"
         id="stop4257" />
    </linearGradient>
    <linearGradient
       inkscape:collect="always"
       id="linearGradient4185">
      <stop
         style="stop-color:#8a8eef;stop-opacity:1"
         offset="0"
         id="stop4187" />
      <stop
         style="stop-color:#2c31b8;stop-opacity:0"
         offset="1"
         id="stop4189" />
    </linearGradient>
    <linearGradient
       inkscape:collect="always"
       id="linearGradient4175">
      <stop
         style="stop-color:#4247e8;stop-opacity:1"
         offset="0"
         id="stop4177" />
      <stop
         style="stop-color:#000359;stop-opacity:1"
         offset="1"
         id="stop4179" />
    </linearGradient>
    <linearGradient
       inkscape:collect="always"
       id="linearGradient4163">
      <stop
         style="stop-color:#000000;stop-opacity:1;"
         offset="0"
         id="stop4165" />
      <stop
         style="stop-color:#2e2e2e;stop-opacity:1"
         offset="1"
         id="stop4167" />
    </linearGradient>
    <linearGradient
       inkscape:collect="always"
       id="linearGradient4155">
      <stop
         style="stop-color:#050505;stop-opacity:1"
         offset="0"
         id="stop4157" />
      <stop
         style="stop-color:#7e7e7e;stop-opacity:1"
         offset="1"
         id="stop4159" />
    </linearGradient>
    <linearGradient
       inkscape:collect="always"
       id="linearGradient4140">
      <stop
         style="stop-color:#000000;stop-opacity:1;"
         offset="0"
         id="stop4142" />
      <stop
         style="stop-color:#757575;stop-opacity:1"
         offset="1"
         id="stop4144" />
    </linearGradient>
    <linearGradient
       inkscape:collect="always"
       xlink:href="#linearGradient4140"
       id="linearGradient4146"
       x1="171.92159"
       y1="337.29797"
       x2="211.07605"
       y2="359.2594"
       gradientUnits="userSpaceOnUse"
       spreadMethod="reflect"
       gradientTransform="translate(557.72358,13.00813)" />
    <linearGradient
       inkscape:collect="always"
       xlink:href="#linearGradient4155"
       id="linearGradient4161"
       x1="32.040558"
       y1="377.72095"
       x2="96.391586"
       y2="381.17575"
       gradientUnits="userSpaceOnUse"
       spreadMethod="reflect"
       gradientTransform="translate(557.72358,13.00813)" />
    <linearGradient
       inkscape:collect="always"
       xlink:href="#linearGradient4163"
       id="linearGradient4169"
       x1="244.73178"
       y1="351.07224"
       x2="334.72601"
       y2="339.16855"
       gradientUnits="userSpaceOnUse"
       spreadMethod="reflect"
       gradientTransform="translate(458.61796,-263.27701)" />
    <radialGradient
       inkscape:collect="always"
       xlink:href="#linearGradient4175"
       id="radialGradient4181"
       cx="429.70615"
       cy="311.31958"
       fx="429.70615"
       fy="311.31958"
       r="74.866646"
       gradientTransform="matrix(1,0,0,0.48861399,363.78509,-121.48825)"
       gradientUnits="userSpaceOnUse" />
    <radialGradient
       inkscape:collect="always"
       xlink:href="#linearGradient4185"
       id="radialGradient4191"
       cx="195.28748"
       cy="365.87079"
       fx="195.28748"
       fy="365.87079"
       r="33.972263"
       gradientTransform="matrix(1,0,0,0.51694918,531.14054,6.1044084)"
       gradientUnits="userSpaceOnUse" />
    <linearGradient
       inkscape:collect="always"
       xlink:href="#linearGradient4140"
       id="linearGradient4241"
       gradientUnits="userSpaceOnUse"
       gradientTransform="translate(557.72358,13.00813)"
       spreadMethod="reflect"
       x1="171.92159"
       y1="337.29797"
       x2="211.07605"
       y2="359.2594" />
    <linearGradient
       inkscape:collect="always"
       xlink:href="#linearGradient4163"
       id="linearGradient4243"
       gradientUnits="userSpaceOnUse"
       gradientTransform="translate(458.61796,-263.27701)"
       spreadMethod="reflect"
       x1="244.73178"
       y1="351.07224"
       x2="334.72601"
       y2="339.16855" />
    <linearGradient
       inkscape:collect="always"
       xlink:href="#linearGradient4155"
       id="linearGradient4245"
       gradientUnits="userSpaceOnUse"
       gradientTransform="translate(557.72358,13.00813)"
       spreadMethod="reflect"
       x1="32.040558"
       y1="377.72095"
       x2="96.391586"
       y2="381.17575" />
    <radialGradient
       inkscape:collect="always"
       xlink:href="#linearGradient4175"
       id="radialGradient4247"
       gradientUnits="userSpaceOnUse"
       gradientTransform="matrix(1,0,0,0.48861399,363.78509,-121.48825)"
       cx="429.70615"
       cy="311.31958"
       fx="429.70615"
       fy="311.31958"
       r="74.866646" />
    <radialGradient
       inkscape:collect="always"
       xlink:href="#linearGradient4185"
       id="radialGradient4249"
       gradientUnits="userSpaceOnUse"
       gradientTransform="matrix(1,0,0,0.51694918,531.14054,6.1044084)"
       cx="195.28748"
       cy="365.87079"
       fx="195.28748"
       fy="365.87079"
       r="33.972263" />
    <linearGradient
       inkscape:collect="always"
       xlink:href="#linearGradient4253"
       id="linearGradient4259"
       x1="705.96655"
       y1="204.97099"
       x2="947.41632"
       y2="274.43161"
       gradientUnits="userSpaceOnUse"
       spreadMethod="pad" />
    <linearGradient
       inkscape:collect="always"
       xlink:href="#linearGradient4282"
       id="linearGradient4288"
       x1="626.77094"
       y1="-36.773521"
       x2="662.20557"
       y2="-13.938876"
       gradientUnits="userSpaceOnUse"
       spreadMethod="reflect" />
    <linearGradient
       inkscape:collect="always"
       xlink:href="#linearGradient4296"
       id="linearGradient4302"
       x1="656.69293"
       y1="-37.955139"
       x2="683.4646"
       y2="-37.955139"
       gradientUnits="userSpaceOnUse"
       spreadMethod="reflect"
       gradientTransform="translate(223.7466,-219.67878)" />
    <linearGradient
       inkscape:collect="always"
       xlink:href="#linearGradient4306"
       id="linearGradient4312"
       x1="865.78571"
       y1="239.47939"
       x2="941.45239"
       y2="278.13443"
       gradientUnits="userSpaceOnUse" />
    <linearGradient
       inkscape:collect="always"
       xlink:href="#linearGradient4318"
       id="linearGradient4324"
       x1="1058.7238"
       y1="192.68013"
       x2="1067.6812"
       y2="199.46213"
       gradientUnits="userSpaceOnUse"
       gradientTransform="translate(10.533708,0.28089888)" />
    <linearGradient
       inkscape:collect="always"
       xlink:href="#linearGradient4336"
       id="linearGradient4342"
       x1="1061.2899"
       y1="236.01196"
       x2="1062.0231"
       y2="225.19743"
       gradientUnits="userSpaceOnUse"
       gradientTransform="translate(10.533708,0.28089888)" />
    <linearGradient
       inkscape:collect="always"
       xlink:href="#linearGradient4318"
       id="linearGradient4379"
       gradientUnits="userSpaceOnUse"
       gradientTransform="translate(10.533708,0.28089888)"
       x1="1058.7238"
       y1="192.68013"
       x2="1067.6812"
       y2="199.46213" />
    <linearGradient
       inkscape:collect="always"
       xlink:href="#linearGradient4336"
       id="linearGradient4381"
       gradientUnits="userSpaceOnUse"
       gradientTransform="translate(10.533708,0.28089888)"
       x1="1061.2899"
       y1="236.01196"
       x2="1062.0231"
       y2="225.19743" />
    <filter
       inkscape:collect="always"
       style="color-interpolation-filters:sRGB"
       id="filter4610"
       x="-0.023947288"
       width="1.0478946"
       y="-0.024052944"
       height="1.0481059">
      <feGaussianBlur
         inkscape:collect="always"
         stdDeviation="2.289355"
         id="feGaussianBlur4612" />
    </filter>
  </defs>
  <sodipodi:namedview
     pagecolor="#ff0000"
     bordercolor="#666666"
     borderopacity="1"
     objecttolerance="10"
     gridtolerance="10"
     guidetolerance="10"
     inkscape:pageopacity="0"
     inkscape:pageshadow="2"
     inkscape:window-width="1920"
     inkscape:window-height="1056"
     id="namedview4"
     showgrid="false"
     inkscape:zoom="3.5273438"
     inkscape:cx="128"
     inkscape:cy="128"
     inkscape:window-x="0"
     inkscape:window-y="0"
     inkscape:window-maximized="1"
     inkscape:current-layer="svg2" />
  <path
     style="fill:#202020;fill-opacity:0.76886782;fill-rule:evenodd;stroke:none;stroke-width:1px;stroke-linecap:butt;stroke-linejoin:miter;stroke-opacity:1;filter:url(#filter4610)"
     d="m 130.59971,22.467102 c -5.40177,-0.06212 -9.99536,1.596642 -12.52344,5.583984 -7.09376,10.526249 -13.19531,22.389013 -19.121085,32.744138 l -3.32031,-0.98437 -4.00586,6.51172 c 0.51033,1.65105 0.8216,3.2911 0.96679,4.92187 -0.3612,0.54316 -0.72176,1.09016 -1.08398,1.61328 C 66.440335,109.0658 37.822015,145.6348 20.072375,183.81672 a 38.609659,20.992303 26.030582 0 0 -0.18555,0.20703 38.609659,20.992303 26.030582 0 0 20.85351,35.81445 38.609659,20.992303 26.030582 0 0 30.24219,8.30664 38.609661,20.992303 26.030583 0 0 16.2832,-6.55078 38.609661,20.992303 26.030583 0 0 1.11915,-1.83203 c -0.07586,0.2398 -0.14553,0.4797 -0.23438,0.71875 9.8779,-20.66949 18.988585,-41.82175 28.169915,-62.91016 a 9.5910931,10.35838 0 0 0 5.91992,2.22071 9.5910931,10.35838 0 0 0 0.8125,-0.043 9.5910933,10.358381 0 0 0 0.48243,-0.0625 9.5910931,10.35838 0 0 0 0.47851,-0.0801 9.5910933,10.358381 0 0 0 0.43555,-0.10547 9.5910931,10.35838 0 0 0 0.49609,-0.13672 9.5910933,10.358381 0 0 0 0.43946,-0.1582 9.5910931,10.35838 0 0 0 0.45312,-0.17773 9.5910933,10.358381 0 0 0 0.46484,-0.22461 9.5910931,10.35838 0 0 0 0.40039,-0.20899 9.5910933,10.358381 0 0 0 0.32422,-0.19531 c 1.144,1.91999 1.71501,4.22088 1.03125,7.35937 -8.20604,14.28517 -15.63744,28.6917 -21.54882,43.24805 a 38.609663,20.992303 23.199696 0 0 -0.17774,0.21875 38.609663,20.992303 23.199696 0 0 22.5957,34.74219 38.609663,20.992303 23.199696 0 0 30.60157,6.80273 38.609661,20.992303 23.199696 0 0 15.95508,-7.34765 38.609661,20.992303 23.199696 0 0 1.03124,-1.90235 c -0.0651,0.24889 -0.1244,0.49731 -0.20312,0.7461 16.40062,-39.1836 30.07893,-79.90234 46.5625,-118.91211 0.93235,-2.20648 1.88576,-4.36105 2.85156,-6.48047 l 6.52149,2.32812 c 1.00577,0.15936 2.46825,-0.45154 3.41601,-1.46289 1.20883,-1.43476 2.16003,-2.39473 2.39063,-4.13086 l 0.0469,-11.72265 c -0.18543,-2.744782 -1.59432,-3.531462 -3.12304,-4.126962 4.27269,-8.632764 8.40302,-17.191114 11.83789,-26.564454 3.36772,-19.88261 -40.80491,-39.028944 -50.11719,-22.599609 -7.52638,12.454199 -13.66813,26.594689 -19.85547,38.197269 -0.38981,-0.17332 -0.77964,-0.34693 -1.16992,-0.51758 l 2.875,-5.94727 c 2.72306,-5.63306 -2.1962,-13.60697 -11.0293,-17.87695 -1.34493,-0.65015 -2.69917,-1.16023 -4.04101,-1.56445 1.22431,-2.54097 2.41189,-5.12407 3.53906,-7.78516 3.25918,-14.769015 -20.21267,-30.446442 -36.41797,-30.632812 z m -36.072265,45.542972 0.13282,0.03711 c -0.01436,0.02301 -0.02862,0.04537 -0.04297,0.06836 l -0.01172,-0.002 0,0.02149 c -0.02584,0.04136 -0.05229,0.07982 -0.07813,0.12109 l 0,-0.24609 z m 136.816405,37.101566 1.39063,0.38086 0,7.43164 -2.7754,-0.89844 0.0801,-0.10351 0,-4.14453 c 0.43476,-0.89144 0.86914,-1.78218 1.30469,-2.66602 z m -4.0918,8.50586 -0.0137,1.84961 0,-1.82031 c 0.005,-0.01 0.009,-0.0195 0.0137,-0.0293 z m -0.0137,1.89062 0.79492,0.23438 -0.79492,-0.2168 0,-0.0176 z"
     id="path4428"
     inkscape:connector-curvature="0" />
  <g
     id="g4383"
     transform="matrix(0.42435865,0,0,0.42435865,-225.36937,2.5263988)">
    <g
       transform="translate(-312.7339,-84.78208)"
       id="g4367">
      <path
         sodipodi:nodetypes="cccccccccccccc"
         inkscape:connector-curvature="0"
         id="path4369"
         d="m 1054.2114,182.87465 -9.4394,15.34766 c 3.4768,11.2483 3.2382,22.2902 -0.025,33.16406 l 18.6601,6.66211 c 2.3701,0.37553 5.8135,-1.06596 8.0469,-3.44922 2.8486,-3.38099 5.093,-5.64352 5.6364,-9.73471 l 0.1097,-27.62076 c -0.4415,-6.53506 -3.8253,-8.3627 -7.4707,-9.77148 z m -2.6113,19.32422 12.9531,3.54492 0,27.18945 -12.9531,-3.54492 z"
         style="fill:#202020;fill-opacity:1;fill-rule:evenodd;stroke:none;stroke-width:1px;stroke-linecap:butt;stroke-linejoin:miter;stroke-opacity:1" />
      <path
         sodipodi:nodetypes="ccccccc"
         inkscape:connector-curvature="0"
         id="path4371"
         d="m 1054.3493,183.44223 17.6576,5.25451 c 2.3437,0.87257 5.3834,4.67019 4.8027,10.31399 l -6.2567,8.96803 c -0.2586,-4.44333 -3.5443,-5.9785 -7.4665,-6.51232 l -16.9855,-4.33803 z"
         style="fill:url(#linearGradient4379);fill-opacity:1;fill-rule:evenodd;stroke:none;stroke-width:1px;stroke-linecap:butt;stroke-linejoin:miter;stroke-opacity:1" />
      <path
         sodipodi:nodetypes="ccccc"
         inkscape:connector-curvature="0"
         id="path4373"
         d="m 1051.5387,229.32759 6.2932,-8.24837 6.782,2.19956 0.1222,9.95914 z"
         style="fill:#000000;fill-opacity:1;fill-rule:evenodd;stroke:none;stroke-width:1px;stroke-linecap:butt;stroke-linejoin:miter;stroke-opacity:1" />
      <path
         style="fill:#1e1e1e;fill-opacity:1;fill-rule:evenodd;stroke:none;stroke-width:1px;stroke-linecap:butt;stroke-linejoin:miter;stroke-opacity:1"
         d="m 1051.7831,202.44402 6.4154,1.52748 0,16.92442 -6.5987,8.37056 z"
         id="path4375"
         inkscape:connector-curvature="0"
         sodipodi:nodetypes="ccccc" />
      <path
         sodipodi:nodetypes="ccccsc"
         inkscape:connector-curvature="0"
         id="path4377"
         d="m 1070.7238,207.75964 5.9877,-8.06507 -0.061,24.19521 c -1.0447,7.55953 -5.5694,11.00805 -9.1038,13.19738 1.5502,-2.20665 2.6344,-4.81244 2.7717,-7.704 0.2849,-6.00051 0.4017,-14.33521 0.4055,-21.62352 z"
         style="fill:url(#linearGradient4381);fill-opacity:1;fill-rule:evenodd;stroke:none;stroke-width:1px;stroke-linecap:butt;stroke-linejoin:miter;stroke-opacity:1" />
    </g>
    <g
       id="g4216">
      <path
         style="fill:url(#linearGradient4146);fill-opacity:1;fill-rule:evenodd;stroke:none;stroke-width:0.30000001;stroke-linecap:butt;stroke-linejoin:miter;stroke-miterlimit:4;stroke-dasharray:none;stroke-opacity:1"
         d="M 562.07422,393.17886 C 603.79153,302.16651 672.05096,215.06967 731.75886,128.83997 751.56711,100.23303 770.61396,58.490004 794.3596,23.254474 818.18926,-14.33017 919.93015,35.874296 909.68981,82.278494 891.7903,124.53676 868.03722,159.17616 847.26876,202.25788 803.93258,292.15371 766.99902,386.39712 723.83786,476.71173 746.33481,416.18134 590.7325,344.91561 562.07422,393.17886 Z"
         id="path4138"
         inkscape:connector-curvature="0"
         sodipodi:nodetypes="csccscc" />
      <ellipse
         transform="matrix(0.87264455,0.48835591,-0.59827903,0.80128784,0,0)"
         ry="50.081913"
         rx="90.647247"
         cy="66.671448"
         cx="781.4942"
         id="ellipse4150"
         style="opacity:1;fill:url(#linearGradient4169);fill-opacity:1;fill-rule:evenodd;stroke:none;stroke-width:0.30000001;stroke-linecap:round;stroke-linejoin:round;stroke-miterlimit:4;stroke-dasharray:none;stroke-dashoffset:0;stroke-opacity:1" />
      <path
         style="opacity:1;fill:url(#linearGradient4161);fill-opacity:1;fill-rule:evenodd;stroke:none;stroke-width:0.30000001;stroke-linecap:round;stroke-linejoin:round;stroke-miterlimit:4;stroke-dasharray:none;stroke-dashoffset:0;stroke-opacity:1"
         d="m 601.456,375.35969 a 90.983561,49.468304 26.030583 0 0 -37.9043,15.44336 90.983561,49.468304 26.030583 0 0 -4.85742,23.5625 83.19015,43.298744 23.417287 0 1 4.44727,-9.5293 83.19015,43.298744 23.417287 0 1 100.89844,3.58008 83.19015,43.298744 23.417287 0 1 45.46093,73.01172 83.19015,43.298744 23.417287 0 1 -33.47461,13.25 90.983561,49.468304 26.030583 0 0 45.73047,-15.33984 90.983561,49.468304 26.030583 0 0 -49.13867,-84.39844 90.983561,49.468304 26.030583 0 0 -71.16211,-19.58008 z"
         id="path4148"
         inkscape:connector-curvature="0" />
      <ellipse
         style="opacity:1;fill:url(#radialGradient4181);fill-opacity:1;fill-rule:evenodd;stroke:none;stroke-width:0.30000001;stroke-linecap:round;stroke-linejoin:round;stroke-miterlimit:4;stroke-dasharray:none;stroke-dashoffset:0;stroke-opacity:1"
         id="ellipse4171"
         cx="795.93347"
         cy="49.411621"
         rx="74.866646"
         ry="36.580891"
         transform="matrix(0.85884445,0.51223648,-0.81666839,0.57710721,0,0)" />
      <ellipse
         style="opacity:1;fill:url(#radialGradient4191);fill-opacity:1;fill-rule:evenodd;stroke:none;stroke-width:0.30000001;stroke-linecap:round;stroke-linejoin:round;stroke-miterlimit:4;stroke-dasharray:none;stroke-dashoffset:0;stroke-opacity:1"
         id="path4183"
         cx="726.42804"
         cy="195.24101"
         rx="33.972263"
         ry="17.561934"
         transform="matrix(0.94468702,0.32797321,-0.32797321,0.94468702,0,0)" />
      <path
         style="fill:none;fill-rule:evenodd;stroke:#000000;stroke-width:3;stroke-linecap:round;stroke-linejoin:miter;stroke-miterlimit:4;stroke-dasharray:none;stroke-opacity:1"
         d="m 767.31517,71.73984 c 26.71532,-42.651751 138.19076,12.550341 115.77428,62.20564"
         id="path4193"
         inkscape:connector-curvature="0"
         sodipodi:nodetypes="cc" />
      <path
         sodipodi:nodetypes="cc"
         inkscape:connector-curvature="0"
         id="path4195"
         d="M 766.73937,70.012437 C 793.30404,27.417179 904.08972,81.737649 885.28999,130.03667"
         style="fill:none;fill-rule:evenodd;stroke:#333445;stroke-width:1.89999998;stroke-linecap:round;stroke-linejoin:miter;stroke-miterlimit:4;stroke-dasharray:none;stroke-opacity:1" />
    </g>
    <g
       transform="matrix(0.99877966,-0.0493882,0.0493882,0.99877966,185.094,87.667722)"
       id="g4225">
      <path
         sodipodi:nodetypes="csccscc"
         inkscape:connector-curvature="0"
         id="path4227"
         d="M 562.07422,393.17886 C 603.79153,302.16651 672.05096,215.06967 731.75886,128.83997 751.56711,100.23303 770.61396,58.490004 794.3596,23.254474 818.18926,-14.33017 919.93015,35.874296 909.68981,82.278494 891.7903,124.53676 868.03722,159.17616 847.26876,202.25788 803.93258,292.15371 766.99902,386.39712 723.83786,476.71173 746.33481,416.18134 590.7325,344.91561 562.07422,393.17886 Z"
         style="fill:url(#linearGradient4241);fill-opacity:1;fill-rule:evenodd;stroke:none;stroke-width:0.30000001;stroke-linecap:butt;stroke-linejoin:miter;stroke-miterlimit:4;stroke-dasharray:none;stroke-opacity:1" />
      <ellipse
         style="opacity:1;fill:url(#linearGradient4243);fill-opacity:1;fill-rule:evenodd;stroke:none;stroke-width:0.30000001;stroke-linecap:round;stroke-linejoin:round;stroke-miterlimit:4;stroke-dasharray:none;stroke-dashoffset:0;stroke-opacity:1"
         id="ellipse4229"
         cx="781.4942"
         cy="66.671448"
         rx="90.647247"
         ry="50.081913"
         transform="matrix(0.87264455,0.48835591,-0.59827903,0.80128784,0,0)" />
      <path
         inkscape:connector-curvature="0"
         id="path4231"
         d="m 601.456,375.35969 a 90.983561,49.468304 26.030583 0 0 -37.9043,15.44336 90.983561,49.468304 26.030583 0 0 -4.85742,23.5625 83.19015,43.298744 23.417287 0 1 4.44727,-9.5293 83.19015,43.298744 23.417287 0 1 100.89844,3.58008 83.19015,43.298744 23.417287 0 1 45.46093,73.01172 83.19015,43.298744 23.417287 0 1 -33.47461,13.25 90.983561,49.468304 26.030583 0 0 45.73047,-15.33984 90.983561,49.468304 26.030583 0 0 -49.13867,-84.39844 90.983561,49.468304 26.030583 0 0 -71.16211,-19.58008 z"
         style="opacity:1;fill:url(#linearGradient4245);fill-opacity:1;fill-rule:evenodd;stroke:none;stroke-width:0.30000001;stroke-linecap:round;stroke-linejoin:round;stroke-miterlimit:4;stroke-dasharray:none;stroke-dashoffset:0;stroke-opacity:1" />
      <ellipse
         transform="matrix(0.85884445,0.51223648,-0.81666839,0.57710721,0,0)"
         ry="36.580891"
         rx="74.866646"
         cy="49.411621"
         cx="795.93347"
         id="ellipse4233"
         style="opacity:1;fill:url(#radialGradient4247);fill-opacity:1;fill-rule:evenodd;stroke:none;stroke-width:0.30000001;stroke-linecap:round;stroke-linejoin:round;stroke-miterlimit:4;stroke-dasharray:none;stroke-dashoffset:0;stroke-opacity:1" />
      <ellipse
         transform="matrix(0.94468702,0.32797321,-0.32797321,0.94468702,0,0)"
         ry="17.561934"
         rx="33.972263"
         cy="195.24101"
         cx="726.42804"
         id="ellipse4235"
         style="opacity:1;fill:url(#radialGradient4249);fill-opacity:1;fill-rule:evenodd;stroke:none;stroke-width:0.30000001;stroke-linecap:round;stroke-linejoin:round;stroke-miterlimit:4;stroke-dasharray:none;stroke-dashoffset:0;stroke-opacity:1" />
      <path
         sodipodi:nodetypes="cc"
         inkscape:connector-curvature="0"
         id="path4237"
         d="m 767.31517,71.73984 c 26.71532,-42.651751 138.19076,12.550341 115.77428,62.20564"
         style="fill:none;fill-rule:evenodd;stroke:#000000;stroke-width:3;stroke-linecap:round;stroke-linejoin:miter;stroke-miterlimit:4;stroke-dasharray:none;stroke-opacity:1" />
      <path
         style="fill:none;fill-rule:evenodd;stroke:#333445;stroke-width:1.89999998;stroke-linecap:round;stroke-linejoin:miter;stroke-miterlimit:4;stroke-dasharray:none;stroke-opacity:1"
         d="M 766.73937,70.012437 C 793.30404,27.417179 904.08972,81.737649 885.28999,130.03667"
         id="path4239"
         inkscape:connector-curvature="0"
         sodipodi:nodetypes="cc" />
    </g>
    <rect
       transform="matrix(0.90032299,0.43522237,-0.43522237,0.90032299,0,0)"
       ry="26.613571"
       rx="41.732285"
       y="-302.51584"
       x="823.74664"
       height="89.763779"
       width="83.464569"
       id="rect4294"
       style="opacity:1;fill:url(#linearGradient4302);fill-opacity:1;fill-rule:evenodd;stroke:none;stroke-width:2.5;stroke-linecap:round;stroke-linejoin:round;stroke-miterlimit:4;stroke-dasharray:none;stroke-dashoffset:0;stroke-opacity:1" />
    <path
       sodipodi:nodetypes="ccccc"
       inkscape:connector-curvature="0"
       id="path4251"
       d="m 754.44444,126.65553 c 84.42453,-4.94886 163.34127,21.31305 238.88889,66.66667 L 916.66667,328.87775 C 842.44378,271.05835 756.70239,261.6166 667.77778,265.54442 Z"
       style="fill:url(#linearGradient4259);fill-opacity:1;fill-rule:evenodd;stroke:none;stroke-width:1px;stroke-linecap:butt;stroke-linejoin:miter;stroke-opacity:1" />
    <path
       sodipodi:nodetypes="cccccc"
       inkscape:connector-curvature="0"
       id="path4263"
       d="m 669.10066,265.70437 c 84.23957,4.68434 109.56966,42.68472 110.37803,86.63964 2.64615,-16.55111 5.45212,-32.96238 24.5093,-35.15384 7.74419,8.49667 17.88399,15.39627 13.60911,31.90566 18.02938,-36.53384 50.29984,-44.05383 97.95846,-21.32919 -67.49745,-57.56376 -159.99665,-73.88125 -246.4549,-62.06227 z"
       style="fill:#000000;fill-opacity:1;fill-rule:evenodd;stroke:none;stroke-width:1px;stroke-linecap:butt;stroke-linejoin:miter;stroke-opacity:1" />
    <path
       sodipodi:nodetypes="ccccccccccccc"
       inkscape:connector-curvature="0"
       id="path4265"
       d="m 931.34264,300.95179 -83.19921,-40.18412 c -5.86215,-1.82898 -8.48545,-8.17422 -5.87273,-12.10912 l 38.97718,-66.14607 c 4.86067,-8.51657 11.09873,-8.26409 17.60601,-6.29766 l 82.78438,34.22119 -0.84509,1.43823 -70.81221,-16.6567 c -8.71949,-1.3372 -15.75628,1.45035 -19.44276,8.23389 l -23.66117,41.13493 c -6.34198,10.94552 -5.12355,18.73988 4.55738,22.38184 l 60.55769,32.6545 z"
       style="fill:#000000;fill-opacity:1;fill-rule:evenodd;stroke:none;stroke-width:1px;stroke-linecap:butt;stroke-linejoin:miter;stroke-opacity:1" />
    <path
       style="fill:#000000;fill-opacity:1;fill-rule:evenodd;stroke:none;stroke-width:1px;stroke-linecap:butt;stroke-linejoin:miter;stroke-opacity:1"
       d="m 749.29344,138.65994 80.05728,13.37366 c 5.7842,-0.006 7.58177,5.21905 4.3241,9.7144 l -49.66405,74.10372 c -6.23169,9.49444 -12.62918,11.10262 -19.05907,11.16939 l -78.03446,-5.04576 1.07737,-1.61054 67.44459,0.12511 c 10.42338,-0.50598 16.71676,-1.59588 28.78799,-16.1317 l 32.44587,-50.01677 c 5.40387,-8.17568 0.68979,-14.70731 -13.36882,-16.90755 l -54.87081,-15.38281 z"
       id="path4267"
       inkscape:connector-curvature="0"
       sodipodi:nodetypes="ccccccccccccc" />
    <path
       inkscape:connector-curvature="0"
       id="path4269"
       d="M 877.6699,141.48833 801.45631,270.61454"
       style="fill:none;fill-rule:evenodd;stroke:#000000;stroke-width:4.19999981;stroke-linecap:butt;stroke-linejoin:miter;stroke-miterlimit:4;stroke-dasharray:none;stroke-opacity:1" />
    <path
       sodipodi:nodetypes="cc"
       style="fill:none;fill-rule:evenodd;stroke:#4e4e4e;stroke-width:2.5;stroke-linecap:butt;stroke-linejoin:miter;stroke-miterlimit:4;stroke-dasharray:none;stroke-opacity:1"
       d="m 875.24272,141.48833 -77.18447,127.6699"
       id="path4271"
       inkscape:connector-curvature="0" />
    <g
       transform="matrix(0.76543358,0,0,0.76543358,328.93867,327.19112)"
       id="g4290">
      <ellipse
         style="opacity:1;fill:#0e0e0e;fill-opacity:1;fill-rule:evenodd;stroke:none;stroke-width:2.5;stroke-linecap:round;stroke-linejoin:round;stroke-miterlimit:4;stroke-dasharray:none;stroke-dashoffset:0;stroke-opacity:1"
         id="path4273"
         cx="620.86615"
         cy="-23.388214"
         rx="29.527559"
         ry="31.889763" />
      <path
         inkscape:connector-curvature="0"
         style="opacity:1;fill:url(#linearGradient4288);fill-opacity:1;fill-rule:evenodd;stroke:none;stroke-width:2.5;stroke-linecap:round;stroke-linejoin:round;stroke-miterlimit:4;stroke-dasharray:none;stroke-dashoffset:0;stroke-opacity:1"
         d="m 620.86523,-55.277344 a 29.527559,31.889763 0 0 0 -29.52734,31.888672 29.527559,31.889763 0 0 0 3.24805,14.5332032 25.984253,26.771652 0 0 1 -1.67188,-9.4140622 25.984253,26.771652 0 0 1 25.98438,-26.771485 25.984253,26.771652 0 0 1 25.98437,26.771485 25.984253,26.771652 0 0 1 -24.8164,26.7285154 29.527559,31.889763 0 0 0 0.79882,0.042969 29.527559,31.889763 0 0 0 29.5293,-31.8906254 29.527559,31.889763 0 0 0 -29.5293,-31.888672 z"
         id="ellipse4277" />
    </g>
    <path
       sodipodi:nodetypes="ccccccc"
       inkscape:connector-curvature="0"
       id="path4304"
       d="m 980.97331,211.85956 -69.47097,-16.48922 c -6.76337,-0.0978 -13.36637,-2.60124 -20.81426,7.56882 l -26.22056,45.68325 c -2.5254,6.25134 -4.70937,12.46001 4.05473,17.30016 l 64.06467,33.51907 z"
       style="fill:url(#linearGradient4312);fill-opacity:1;fill-rule:evenodd;stroke:none;stroke-width:1px;stroke-linecap:butt;stroke-linejoin:miter;stroke-opacity:1" />
    <g
       id="g4344">
      <path
         style="fill:#202020;fill-opacity:1;fill-rule:evenodd;stroke:none;stroke-width:1px;stroke-linecap:butt;stroke-linejoin:miter;stroke-opacity:1"
         d="m 1054.2114,182.87465 -9.4394,15.34766 c 3.4768,11.2483 3.2382,22.2902 -0.025,33.16406 l 18.6601,6.66211 c 2.3701,0.37553 5.8135,-1.06596 8.0469,-3.44922 2.8486,-3.38099 5.093,-5.64352 5.6364,-9.73471 l 0.1097,-27.62076 c -0.4415,-6.53506 -3.8253,-8.3627 -7.4707,-9.77148 z m -2.6113,19.32422 12.9531,3.54492 0,27.18945 -12.9531,-3.54492 z"
         id="path4314"
         inkscape:connector-curvature="0"
         sodipodi:nodetypes="cccccccccccccc" />
      <path
         style="fill:url(#linearGradient4324);fill-opacity:1;fill-rule:evenodd;stroke:none;stroke-width:1px;stroke-linecap:butt;stroke-linejoin:miter;stroke-opacity:1"
         d="m 1054.3493,183.44223 17.6576,5.25451 c 2.3437,0.87257 5.3834,4.67019 4.8027,10.31399 l -6.2567,8.96803 c -0.2586,-4.44333 -3.5443,-5.9785 -7.4665,-6.51232 l -16.9855,-4.33803 z"
         id="path4316"
         inkscape:connector-curvature="0"
         sodipodi:nodetypes="ccccccc" />
      <path
         style="fill:#000000;fill-opacity:1;fill-rule:evenodd;stroke:none;stroke-width:1px;stroke-linecap:butt;stroke-linejoin:miter;stroke-opacity:1"
         d="m 1051.5387,229.32759 6.2932,-8.24837 6.782,2.19956 0.1222,9.95914 z"
         id="path4330"
         inkscape:connector-curvature="0"
         sodipodi:nodetypes="ccccc" />
      <path
         sodipodi:nodetypes="ccccc"
         inkscape:connector-curvature="0"
         id="path4332"
         d="m 1051.7831,202.44402 6.4154,1.52748 0,16.92442 -6.5987,8.37056 z"
         style="fill:#1e1e1e;fill-opacity:1;fill-rule:evenodd;stroke:none;stroke-width:1px;stroke-linecap:butt;stroke-linejoin:miter;stroke-opacity:1" />
      <path
         style="fill:url(#linearGradient4342);fill-opacity:1;fill-rule:evenodd;stroke:none;stroke-width:1px;stroke-linecap:butt;stroke-linejoin:miter;stroke-opacity:1"
         d="m 1070.7238,207.75964 5.9877,-8.06507 -0.061,24.19521 c -1.0447,7.55953 -5.5694,11.00805 -9.1038,13.19738 1.5502,-2.20665 2.6344,-4.81244 2.7717,-7.704 0.2849,-6.00051 0.4017,-14.33521 0.4055,-21.62352 z"
         id="path4334"
         inkscape:connector-curvature="0"
         sodipodi:nodetypes="ccccsc" />
    </g>
  </g>
</svg>
