<?xml version="1.0" encoding="UTF-8" standalone="no"?>
<!-- Created with Inkscape (http://www.inkscape.org/) -->

<svg
   xmlns:dc="http://purl.org/dc/elements/1.1/"
   xmlns:cc="http://creativecommons.org/ns#"
   xmlns:rdf="http://www.w3.org/1999/02/22-rdf-syntax-ns#"
   xmlns:svg="http://www.w3.org/2000/svg"
   xmlns="http://www.w3.org/2000/svg"
   xmlns:xlink="http://www.w3.org/1999/xlink"
   xmlns:sodipodi="http://sodipodi.sourceforge.net/DTD/sodipodi-0.dtd"
   xmlns:inkscape="http://www.inkscape.org/namespaces/inkscape"
   width="255"
   height="255"
   viewBox="0 0 67.468749 67.468749"
   version="1.1"
   id="svg8"
   inkscape:version="0.92.5 (2060ec1f9f, 2020-04-08)"
   sodipodi:docname="Chess.svg">
  <defs
     id="defs2">
    <linearGradient
       inkscape:collect="always"
       id="linearGradient928">
      <stop
         style="stop-color:#000000;stop-opacity:0.33208954"
         offset="0"
         id="stop924" />
      <stop
         style="stop-color:#000000;stop-opacity:0;"
         offset="1"
         id="stop926" />
    </linearGradient>
    <linearGradient
       id="linearGradient923">
      <stop
         id="stop915"
         stop-color="#f5f5f5"
         stop-opacity="0" />
      <stop
         id="stop917"
         offset="0.826"
         stop-color="#f5f5f5"
         stop-opacity="0" />
      <stop
         offset="0.922"
         id="stop919"
         stop-color="#f5f5f5"
         stop-opacity="0.407" />
      <stop
         offset="1"
         id="stop921"
         stop-color="#f5f5f5"
         stop-opacity="0" />
    </linearGradient>
    <clipPath
       clipPathUnits="userSpaceOnUse"
       id="clipPath2059">
      <path
         d="m -10.099732,231.68531 c 3.5587363,2.50616 4.8319716,-0.58528 2.9651647,-3.064 -3.1818907,-4.22486 -6.4443207,-9.83985 -12.3548527,-15.91305 -2.594516,-2.66865 -11.860659,-7.80827 -11.860659,-7.80827 0,0 -0.115438,-2.18844 -0.09884,-3.064 0.01106,-0.582 -0.565687,-0.56369 -0.889553,-0.29652 -0.782426,0.64546 -2.47097,2.56981 -2.47097,2.56981 l -1.68026,-0.0988 -1.087226,-1.58142 c -0.296516,-0.41055 -0.636056,-0.34641 -0.88955,0 -0.545383,1.84962 -0.878698,3.8848 -3.459359,3.95355 l 4.447747,3.95356 c 7.76561,1.55335 15.578734,5.58545 20.261957,14.33163 0,0 4.526451,5.19364 7.116396,7.01755 z"
         id="path2061"
         sodipodi:nodetypes="csscsscccccccs"
         inkscape:connector-curvature="0"
         stroke-dasharray="none"
         stroke-opacity="1"
         fill="#ffffff"
         fill-rule="evenodd"
         stroke="none"
         stroke-linejoin="miter"
         fill-opacity="1"
         stroke-linecap="butt"
         stroke-width="0.048"
         stroke-miterlimit="4" />
    </clipPath>
    <clipPath
       id="clipPath2059-5"
       clipPathUnits="userSpaceOnUse">
      <path
         stroke-miterlimit="4"
         stroke-width="0.048"
         stroke-linecap="butt"
         fill-opacity="1"
         stroke-linejoin="miter"
         stroke="none"
         fill-rule="evenodd"
         fill="#ffffff"
         stroke-opacity="1"
         stroke-dasharray="none"
         inkscape:connector-curvature="0"
         sodipodi:nodetypes="csscsscccccccs"
         id="path2061-3"
         d="m -10.099732,231.68531 c 3.5587363,2.50616 4.8319716,-0.58528 2.9651647,-3.064 -3.1818907,-4.22486 -6.4443207,-9.83985 -12.3548527,-15.91305 -2.594516,-2.66865 -11.860659,-7.80827 -11.860659,-7.80827 0,0 -0.115438,-2.18844 -0.09884,-3.064 0.01106,-0.582 -0.565687,-0.56369 -0.889553,-0.29652 -0.782426,0.64546 -2.47097,2.56981 -2.47097,2.56981 l -1.68026,-0.0988 -1.087226,-1.58142 c -0.296516,-0.41055 -0.636056,-0.34641 -0.88955,0 -0.545383,1.84962 -0.878698,3.8848 -3.459359,3.95355 l 4.447747,3.95356 c 7.76561,1.55335 15.578734,5.58545 20.261957,14.33163 0,0 4.526451,5.19364 7.116396,7.01755 z" />
    </clipPath>
    <clipPath
       id="clipPath">
      <path
         fill-opacity="0.95"
         stroke="none"
         fill="#1b1b1b"
         sodipodi:nodetypes="csssscc"
         inkscape:connector-curvature="0"
         id="rect5264"
         d="m -515.73002,435.56445 v 5.83767 c 0,9.74315 -7.84377,17.58692 -17.58692,17.58692 h -135.05122 c -9.74315,0 -17.58692,-7.84377 -17.58692,-17.58692 v -5.83767 z" />
    </clipPath>
    <clipPath
       clipPathUnits="userSpaceOnUse"
       id="clipPath2059-7">
      <path
         d="m -10.099732,231.68531 c 3.5587363,2.50616 4.8319716,-0.58528 2.9651647,-3.064 -3.1818907,-4.22486 -6.4443207,-9.83985 -12.3548527,-15.91305 -2.594516,-2.66865 -11.860659,-7.80827 -11.860659,-7.80827 0,0 -0.115438,-2.18844 -0.09884,-3.064 0.01106,-0.582 -0.565687,-0.56369 -0.889553,-0.29652 -0.782426,0.64546 -2.47097,2.56981 -2.47097,2.56981 l -1.68026,-0.0988 -1.087226,-1.58142 c -0.296516,-0.41055 -0.636056,-0.34641 -0.88955,0 -0.545383,1.84962 -0.878698,3.8848 -3.459359,3.95355 l 4.447747,3.95356 c 7.76561,1.55335 15.578734,5.58545 20.261957,14.33163 0,0 4.526451,5.19364 7.116396,7.01755 z"
         id="path2061-5"
         sodipodi:nodetypes="csscsscccccccs"
         inkscape:connector-curvature="0"
         stroke-dasharray="none"
         stroke-opacity="1"
         fill="#ffffff"
         fill-rule="evenodd"
         stroke="none"
         stroke-linejoin="miter"
         fill-opacity="1"
         stroke-linecap="butt"
         stroke-width="0.048"
         stroke-miterlimit="4" />
    </clipPath>
    <clipPath
       clipPathUnits="userSpaceOnUse"
       id="clipPath1162">
      <path
         stroke-miterlimit="4"
         stroke-width="0.071"
         stroke-linecap="round"
         fill-opacity="0.347"
         stroke-linejoin="round"
         stroke="none"
         fill="#000000"
         stroke-opacity="1"
         stroke-dasharray="none"
         inkscape:connector-curvature="0"
         d="m -65.649736,239.84563 c -9.358079,0 -16.951888,7.59381 -16.951888,16.95188 0,9.35808 7.593811,16.94076 16.951888,16.94077 0.292439,0 0.578792,-0.008 0.867614,-0.0222 2.122786,-0.10753 4.148336,-0.60587 5.995453,-1.42378 l 2.669587,3.97101 c -0.225515,0.4951 -0.245107,0.96445 -0.01111,1.31255 l 15.67271,23.32553 c 0.495366,0.73695 1.94415,0.6317 3.247998,-0.24471 1.303846,-0.87642 1.96364,-2.17735 1.468276,-2.9143 L -51.42304,274.4168 c -0.233058,-0.34672 -0.682887,-0.49868 -1.22356,-0.47831 l -2.558357,-3.80416 c 3.95991,-3.10036 6.507123,-7.91951 6.507123,-13.33682 0,-9.35807 -7.593809,-16.95188 -16.951889,-16.95188 z m 0,2.5806 c 7.92884,0 14.371283,6.44244 14.371283,14.37128 0,7.92885 -6.442435,14.36016 -14.371283,14.36016 -7.928851,0 -14.349039,-6.43131 -14.349039,-14.36016 0,-0.24777 -0.0013,-0.48941 0.01111,-0.73413 0.384376,-7.58638 6.656848,-13.63715 14.337916,-13.63715 z"
         id="path1164" />
    </clipPath>
    <linearGradient
       id="linearGradient3307">
      <stop
         id="stop3309"
         stop-color="#000000"
         stop-opacity="1" />
      <stop
         offset="0.772"
         id="stop886"
         stop-color="#000000"
         stop-opacity="1" />
      <stop
         id="stop3311"
         offset="1"
         stop-color="#000000"
         stop-opacity="0" />
    </linearGradient>
    <linearGradient
       id="linearGradient3223">
      <stop
         id="stop3225"
         stop-color="#f5f5f5"
         stop-opacity="0.476" />
      <stop
         offset="1"
         id="stop3227"
         stop-color="#f5f5f5"
         stop-opacity="0" />
    </linearGradient>
    <linearGradient
       id="linearGradient3187"
       inkscape:collect="always">
      <stop
         id="stop3189"
         stop-color="#f5f5f5"
         stop-opacity="1" />
      <stop
         id="stop3191"
         offset="1"
         stop-color="#f5f5f5"
         stop-opacity="0" />
    </linearGradient>
    <linearGradient
       id="linearGradient3169">
      <stop
         id="stop3171"
         stop-color="#f5f5f5"
         stop-opacity="0" />
      <stop
         offset="0.707"
         id="stop3177"
         stop-color="#f5f5f5"
         stop-opacity="0" />
      <stop
         id="stop3179"
         offset="0.854"
         stop-color="#f5f5f5"
         stop-opacity="0.579" />
      <stop
         id="stop3173"
         offset="1"
         stop-color="#f5f5f5"
         stop-opacity="0" />
    </linearGradient>
    <radialGradient
       gradientUnits="userSpaceOnUse"
       gradientTransform="matrix(0.9530799,1.4543072,-1.2229366,0.8014511,118.88002,-236.05015)"
       r="12.627"
       fy="90.5"
       fx="174.83"
       cy="90.5"
       cx="174.83"
       id="radialGradient3175"
       xlink:href="#linearGradient3169"
       inkscape:collect="always" />
    <radialGradient
       r="12.627"
       fy="97.65"
       fx="177.07"
       cy="97.65"
       cx="177.07"
       gradientTransform="matrix(1.3915206,2.208759,-2.0311301,1.2796135,113.04751,-412.77238)"
       gradientUnits="userSpaceOnUse"
       id="radialGradient3183"
       xlink:href="#linearGradient3169"
       inkscape:collect="always" />
    <radialGradient
       gradientUnits="userSpaceOnUse"
       gradientTransform="matrix(0.46372385,0,0,0.85499086,-183.22009,148.1698)"
       r="2.712"
       fy="70.986"
       fx="151.94"
       cy="72.69"
       cx="152.03"
       id="radialGradient3193"
       xlink:href="#linearGradient3187"
       inkscape:collect="always" />
    <radialGradient
       r="2.712"
       fy="70.986"
       fx="151.94"
       cy="72.69"
       cx="152.03"
       gradientTransform="matrix(0.66335513,0,0,1.2729865,-199.01919,112.77042)"
       gradientUnits="userSpaceOnUse"
       id="radialGradient3197"
       xlink:href="#linearGradient3187"
       inkscape:collect="always" />
    <radialGradient
       gradientUnits="userSpaceOnUse"
       gradientTransform="matrix(0.46372385,0,0,0.15183877,-113.14305,226.22676)"
       r="9.576"
       fy="85.92"
       fx="153.81"
       cy="85.92"
       cx="153.81"
       id="radialGradient3207"
       xlink:href="#linearGradient3223"
       inkscape:collect="always" />
    <radialGradient
       r="9.576"
       fy="85.92"
       fx="153.81"
       cy="85.92"
       cx="153.81"
       gradientTransform="matrix(0.25036442,0,0,0.15182962,-14.186088,230.28184)"
       gradientUnits="userSpaceOnUse"
       id="radialGradient3211"
       xlink:href="#linearGradient3187"
       inkscape:collect="always" />
    <linearGradient
       spreadMethod="reflect"
       gradientUnits="userSpaceOnUse"
       y2="88.63"
       x2="137.97"
       y1="85.58"
       x1="136.27"
       id="linearGradient3221"
       xlink:href="#linearGradient3223"
       inkscape:collect="always" />
    <radialGradient
       r="9.576"
       fy="85.92"
       fx="153.81"
       cy="85.92"
       cx="153.81"
       gradientTransform="matrix(0.46372386,0,0,0.15183877,-184.70749,206.99136)"
       gradientUnits="userSpaceOnUse"
       id="radialGradient3231"
       xlink:href="#linearGradient3223"
       inkscape:collect="always" />
    <linearGradient
       gradientUnits="userSpaceOnUse"
       y2="105.68"
       x2="112.11"
       y1="105.62"
       x1="120.45"
       id="linearGradient3241"
       xlink:href="#linearGradient3223"
       inkscape:collect="always" />
    <linearGradient
       y2="105.68"
       x2="112.11"
       y1="104.69"
       x1="120.43"
       gradientUnits="userSpaceOnUse"
       id="linearGradient3245"
       xlink:href="#linearGradient3223"
       inkscape:collect="always"
       gradientTransform="matrix(0.45611655,0,0,0.45611655,-186.13606,171.45708)" />
    <radialGradient
       r="12.627"
       fy="90.5"
       fx="174.83"
       cy="90.5"
       cx="174.83"
       gradientTransform="matrix(-0.5500999,-0.6809239,0.7058561,-0.3752489,198.43622,261.20103)"
       gradientUnits="userSpaceOnUse"
       id="radialGradient3249"
       xlink:href="#linearGradient3169"
       inkscape:collect="always" />
    <radialGradient
       r="12.627"
       fy="104.29"
       fx="177.78"
       cy="104.29"
       cx="177.78"
       gradientTransform="matrix(-3.6749774,0.33252522,0.00840232,-4.0343528,825.12554,470.25732)"
       gradientUnits="userSpaceOnUse"
       id="radialGradient3255"
       xlink:href="#linearGradient3169"
       inkscape:collect="always" />
    <radialGradient
       r="12.627"
       fy="100"
       fx="176.25"
       cy="100"
       cx="176.25"
       gradientTransform="matrix(-4.2415897,0.5086436,0.04470536,-3.3977002,920.81249,391.57575)"
       gradientUnits="userSpaceOnUse"
       id="radialGradient3259"
       xlink:href="#linearGradient3169"
       inkscape:collect="always" />
    <filter
       id="filter3269"
       inkscape:collect="always">
      <feGaussianBlur
         id="feGaussianBlur3271"
         stdDeviation="1.03471"
         inkscape:collect="always" />
    </filter>
    <filter
       height="1.235"
       y="-0.117"
       width="1.246"
       x="-0.123"
       id="filter3273"
       inkscape:collect="always">
      <feGaussianBlur
         id="feGaussianBlur3275"
         stdDeviation="1.2927"
         inkscape:collect="always" />
    </filter>
    <filter
       height="1.261"
       y="-0.131"
       width="1.222"
       x="-0.111"
       id="filter3277"
       inkscape:collect="always">
      <feGaussianBlur
         id="feGaussianBlur3279"
         stdDeviation="0.67406"
         inkscape:collect="always" />
    </filter>
    <filter
       id="filter3281"
       inkscape:collect="always">
      <feGaussianBlur
         id="feGaussianBlur3283"
         stdDeviation="0.90254"
         inkscape:collect="always" />
    </filter>
    <filter
       height="1.635"
       y="-0.317"
       width="1.148"
       x="-0.074"
       id="filter3289"
       inkscape:collect="always">
      <feGaussianBlur
         id="feGaussianBlur3291"
         stdDeviation="1.87695"
         inkscape:collect="always" />
    </filter>
    <filter
       height="1.599"
       y="-0.3"
       width="1.15"
       x="-0.075"
       id="filter3293"
       inkscape:collect="always">
      <feGaussianBlur
         id="feGaussianBlur3295"
         stdDeviation="2.32184"
         inkscape:collect="always" />
    </filter>
    <filter
       id="filter3301"
       inkscape:collect="always">
      <feGaussianBlur
         id="feGaussianBlur3303"
         stdDeviation="0.24709"
         inkscape:collect="always" />
    </filter>
    <radialGradient
       gradientUnits="userSpaceOnUse"
       gradientTransform="matrix(0.46372384,0,0,0.1929362,-43.811052,250.72104)"
       r="40.41"
       fy="191.99"
       fx="166.96"
       cy="191.99"
       cx="166.96"
       id="radialGradient3315"
       xlink:href="#linearGradient3307"
       inkscape:collect="always" />
    <filter
       inkscape:collect="always"
       id="filter907"
       x="-0.023"
       width="1.046"
       y="-0.025"
       height="1.051"
       color-interpolation-filters="sRGB">
      <feGaussianBlur
         inkscape:collect="always"
         stdDeviation="0.02676"
         id="feGaussianBlur909" />
    </filter>
    <filter
       inkscape:collect="always"
       id="filter1003"
       x="-0.045"
       width="1.089"
       y="-0.03"
       height="1.06"
       color-interpolation-filters="sRGB">
      <feGaussianBlur
         inkscape:collect="always"
         stdDeviation="0.12339"
         id="feGaussianBlur1005" />
    </filter>
    <linearGradient
       inkscape:collect="always"
       xlink:href="#linearGradient928"
       id="linearGradient930"
       x1="-46.348072"
       y1="287.47098"
       x2="-11.697684"
       y2="244.90678"
       gradientUnits="userSpaceOnUse" />
    <linearGradient
       inkscape:collect="always"
       xlink:href="#linearGradient928"
       id="linearGradient932"
       gradientUnits="userSpaceOnUse"
       x1="-46.348072"
       y1="287.47098"
       x2="-11.697684"
       y2="244.90678" />
    <linearGradient
       inkscape:collect="always"
       xlink:href="#linearGradient928"
       id="linearGradient934"
       gradientUnits="userSpaceOnUse"
       x1="-46.348072"
       y1="287.47098"
       x2="-11.697684"
       y2="244.90678" />
    <linearGradient
       inkscape:collect="always"
       xlink:href="#linearGradient928"
       id="linearGradient936"
       gradientUnits="userSpaceOnUse"
       x1="-46.348072"
       y1="287.47098"
       x2="-11.697684"
       y2="244.90678" />
    <linearGradient
       inkscape:collect="always"
       xlink:href="#linearGradient928"
       id="linearGradient938"
       gradientUnits="userSpaceOnUse"
       x1="-46.348072"
       y1="287.47098"
       x2="-11.697684"
       y2="244.90678" />
    <filter
       inkscape:collect="always"
       style="color-interpolation-filters:sRGB"
       id="filter903"
       x="-0.010978056"
       width="1.0219561"
       y="-0.013214071"
       height="1.0264281">
      <feGaussianBlur
         inkscape:collect="always"
         stdDeviation="0.23313037"
         id="feGaussianBlur905" />
    </filter>
  </defs>
  <sodipodi:namedview
     id="base"
     pagecolor="#ff0000"
     bordercolor="#666666"
     borderopacity="1.0"
     inkscape:pageopacity="0"
     inkscape:pageshadow="2"
     inkscape:zoom="3.5058824"
     inkscape:cx="127.5"
     inkscape:cy="127.5"
     inkscape:document-units="px"
     inkscape:current-layer="layer1"
     showgrid="false"
     inkscape:snap-to-guides="false"
     inkscape:snap-grids="false"
     inkscape:snap-others="false"
     inkscape:object-nodes="false"
     inkscape:snap-nodes="false"
     inkscape:snap-global="false"
     inkscape:window-width="1920"
     inkscape:window-height="1056"
     inkscape:window-x="0"
     inkscape:window-y="0"
     inkscape:window-maximized="1"
     units="px"
     showguides="false" />
  <metadata
     id="metadata5">
    <rdf:RDF>
      <cc:Work>
        <dc:format>image/svg+xml</dc:format>
        <dc:type
           rdf:resource="http://purl.org/dc/dcmitype/StillImage" />
        <dc:title />
      </cc:Work>
    </rdf:RDF>
  </metadata>
  <g
     inkscape:label="Layer 1"
     inkscape:groupmode="layer"
     id="layer1"
     transform="translate(0,-229.53126)">
    <g
       id="g922"
       style="fill:url(#linearGradient930);fill-opacity:1;filter:url(#filter903)"
       transform="matrix(1,0,-0.08555254,0.96970014,95.996849,10.751473)">
      <path
         d="m -21.848121,250.66519 c 0,0 -8.26749,2.21029 -12.030905,3.36229 -2.196493,0.67236 -7.760403,3.30272 -9.936616,3.9046 -4.17818,1.15558 -2.43542,5.23879 1.572366,4.39268 -3.442929,1.61286 -2.133327,2.74314 0.977357,1.68115 l 5.345637,-2.6573 c 2.392381,0.17801 3.985327,0.63611 7.265657,-0.16269 -0.629286,1.51077 -0.994624,2.33099 1.676377,2.71153 -4.446154,1.96952 -8.572445,4.28736 -12.091087,7.2669 -1.900391,0.0748 -3.579219,0.56131 -5.099795,1.34157 l -3.787371,4.24418 -5.201458,2.6573 -0.905738,1.14526 c -7.622803,9.00937 23.573168,9.62661 31.534721,0.32539 l 1.564586,-1.79603 0.09852,-2.49461 2.562201,-4.24031 c 0.334265,-0.83927 -0.471367,-1.32049 -2.384335,-1.4539 l 10.620005,-11.60535 c 5.0699702,-5.54037 3.3898522,-11.3688 -3.009702,-10.14112 l -0.94544,-3.3623 c -0.652079,-1.2372 -3.227513,-0.19619 -3.550678,1.57269 l -0.100348,2.22345 -1.351504,-1.57268 c -0.525373,-0.48479 -1.926967,-0.45472 -2.114343,0.75922 z"
         id="path890"
         sodipodi:nodetypes="csscccccccccccccccsccccccc"
         inkscape:connector-curvature="0"
         stroke-miterlimit="4"
         style="fill:url(#linearGradient932);fill-opacity:1;fill-rule:evenodd;stroke:none;stroke-width:0.09301141;stroke-linecap:butt;stroke-linejoin:round;stroke-miterlimit:4;stroke-dasharray:none;stroke-opacity:1" />
      <path
         inkscape:connector-curvature="0"
         id="path892"
         d="m -15.300781,245.5332 c -1.964609,0.28479 -2.265776,2.44142 -2.109375,4.0586 -1.14144,0.37287 -1.766603,-2.57479 -3.205078,-1.33789 -0.672317,1.17367 -0.620719,3.09932 -2.440889,3.01412 -5.906244,1.60359 -11.840942,3.03948 -17.384286,5.68514 -1.684519,1.02278 -4.119463,0.8866 -5.336935,2.58589 -0.839254,2.01027 1.913088,3.0688 3.486328,2.52539 0.473985,0.98124 -1.67971,0.94916 -1.695312,1.95703 2.693277,0.52065 4.961256,-1.73913 7.361258,-2.61779 1.79596,-0.69551 3.851398,0.3141 5.765695,-0.0931 0.74531,0.0849 2.86306,-1.00475 2.230469,0.50976 -0.796021,1.21202 0.729847,1.8184 1.693359,1.81446 -0.196386,1.24591 -2.419894,1.32792 -3.429586,2.17179 -3.108367,1.54563 -5.982781,3.47482 -8.685648,5.62117 -2.478725,0.1247 -5.179309,0.79897 -6.542785,3.07137 -1.251088,1.59244 -2.637056,3.01828 -4.598426,3.69116 -2.144615,0.84133 -4.262898,2.32656 -4.778711,4.70232 -0.05907,2.50296 2.968072,3.29814 4.912109,3.79297 7.363829,1.36789 15.285487,0.50757 22.226563,-2.41016 2.66104,-1.16841 5.177773,-3.08554 6.617962,-5.56125 -0.303696,-1.8351 0.643766,-3.30665 1.62747,-4.75393 0.283952,-0.7215 1.856853,-2.08077 0.496755,-2.5188 -1.526744,-0.0638 -2.320034,-0.80278 -0.721328,-1.89778 3.586775,-4.08782 7.578382,-7.94683 10.9172935,-12.18084 1.517653,-2.10706 2.5280558,-5.81914 -0.076825,-7.50927 -1.2983405,-0.94404 -3.0188135,-0.35828 -4.3613275,-0.63477 -0.565686,-1.11996 -0.325929,-2.838 -1.324219,-3.65039 -0.206479,-0.0721 -0.431299,-0.0707 -0.644531,-0.0352 z"
         style="fill:url(#linearGradient934);fill-opacity:1;fill-rule:evenodd;stroke:none;stroke-width:0.09301141;stroke-linecap:butt;stroke-linejoin:round;stroke-miterlimit:4;stroke-dasharray:none;stroke-opacity:1" />
      <path
         inkscape:connector-curvature="0"
         id="path896"
         d="m -15.121094,245.77734 c -1.846191,0.13567 -2.224125,2.31796 -2.02539,3.79883 -1.099085,1.1403 -1.812309,-1.40495 -2.904297,-1.3457 -1.134458,0.79515 -0.81091,3.24182 -2.681641,3.29492 -6.482412,1.54083 -12.968948,3.3954 -19.003906,6.27734 -1.378172,0.51499 -3.965447,0.76519 -3.90625,2.71094 0.478414,1.58044 2.414854,1.35426 3.601562,1.46485 0.61927,1.10643 -1.672295,1.37223 -1.417968,1.8457 3.530057,0.12047 6.047326,-3.76501 9.703125,-2.83789 1.73826,0.50028 3.474219,-0.22129 5.175781,-0.16602 0.971926,0.56976 -0.772389,1.9456 0.58789,2.32227 0.951049,0.0377 1.811702,0.7257 0.730469,1.45508 -4.211084,1.82674 -8.142919,4.29251 -11.767578,7.09375 -2.670684,0.0197 -5.488388,1.10537 -6.841797,3.57031 -1.402224,1.99959 -3.636006,2.95874 -5.773437,3.91601 -1.684639,0.96886 -3.878279,3.10144 -2.634766,5.14844 2.276937,2.37583 5.925889,2.31657 8.963924,2.65976 6.693445,0.30787 13.622612,-0.80011 19.529539,-4.09365 1.689683,-1.16552 3.615601,-2.56214 4.266303,-4.50556 -0.304829,-2.52954 1.993073,-4.32191 2.679687,-6.47852 -0.739852,-0.30914 -2.632096,-0.44439 -1.966797,-1.76562 4.056355,-4.4757 8.495976,-8.71537 12.1061052,-13.57026 1.399902,-2.07114 1.74125,-5.85979 -1.1119642,-6.84771 -1.239037,-0.60978 -3.310935,0.57338 -3.953125,-0.88477 -0.418395,-0.90003 -0.11908,-2.83828 -1.355469,-3.0625 z"
         style="fill:url(#linearGradient936);fill-opacity:1;fill-rule:evenodd;stroke:none;stroke-width:0.09301141;stroke-linecap:butt;stroke-linejoin:round;stroke-miterlimit:4;stroke-dasharray:none;stroke-opacity:1" />
      <path
         inkscape:connector-curvature="0"
         id="path900"
         d="m -15.396484,246.08594 c -1.615122,0.44618 -1.50311,2.40125 -1.578125,3.6914 -1.206658,1.25046 -2.092825,-1.20413 -3.083985,-1.19336 -0.814818,1.17956 -0.990867,3.32535 -2.884,3.26583 -6.621587,1.52724 -13.102497,3.58057 -19.285922,6.39042 -1.172391,0.34697 -3.411974,0.77238 -3.068359,2.4336 0.660104,1.52283 2.841404,0.42528 3.603516,1.4707 0.501585,0.82679 -1.839875,1.58568 -0.535157,1.29492 2.971708,-0.75923 5.572561,-3.71765 8.861328,-2.63086 1.700606,0.45552 3.57202,-0.68735 5.154297,-0.0273 0.71861,0.65458 -0.815841,2.17076 0.636719,2.14844 1.234945,0.0428 1.42569,1.75263 0.180046,2.0175 -4.168607,1.80415 -7.983125,4.33738 -11.625358,7.00789 -2.905357,-0.0761 -5.710654,1.47655 -7.092016,4.04276 -2.187914,2.88015 -6.892457,2.81202 -8.187281,6.48458 -0.516195,2.25242 2.267149,3.16672 3.961067,3.60578 8.416584,1.49425 17.633575,0.63414 25.042839,-3.86164 1.764654,-1.24198 3.778387,-2.88735 3.597656,-5.26172 0.362481,-1.81809 2.024877,-3.27727 2.449219,-4.91796 -1.101175,-0.0554 -2.713668,-1.14792 -1.572766,-2.27866 4.14844,-4.67441 8.907408,-8.8978 12.3481566,-14.14517 1.0513563,-1.9814 0.7600948,-5.32031 -1.8730466,-5.78711 -1.31838,-0.0953 -3.45914,0.53281 -3.804688,-1.32617 -0.273617,-0.77385 -0.018,-2.55228 -1.24414,-2.42383 z"
         style="fill:url(#linearGradient938);fill-opacity:1;fill-rule:evenodd;stroke:none;stroke-width:0.09301141;stroke-linecap:butt;stroke-linejoin:round;stroke-miterlimit:4;stroke-dasharray:none;stroke-opacity:1" />
    </g>
    <ellipse
       id="path3305"
       cx="33.612953"
       cy="287.76743"
       rx="18.740435"
       ry="7.7969069"
       stroke-miterlimit="4"
       style="fill:url(#radialGradient3315);fill-opacity:1;stroke:none;stroke-width:1.8544215;stroke-linecap:round;stroke-linejoin:round;stroke-miterlimit:4;stroke-dasharray:none;stroke-opacity:1" />
    <path
       d="m 25.786563,239.07407 c 0,0 -7.107866,3.20341 -10.217644,4.87302 -1.815002,0.97446 -5.6130807,4.78668 -7.4667428,5.659 -3.5588905,1.6748 1.8618515,7.59266 5.5018048,6.36638 -2.362997,2.33754 0.03937,3.97568 2.515118,2.43651 l 3.536877,-3.85126 c 2.761787,0.25799 4.893493,0.92192 7.781129,-0.23579 0.616558,2.18959 0.925472,3.37835 4.165655,3.92986 -3.149242,2.85446 -5.649419,6.21374 -6.916562,10.53204 -2.007413,0.10848 -3.418274,0.81352 -4.403318,1.94436 l -0.46971,6.15116 -3.379685,3.85127 v 1.65984 c -0.54258,13.05742 34.001137,13.952 34.661397,0.47158 l 0.157193,-2.60301 -2.043529,-3.61547 -0.862702,-6.14555 c -0.359211,-1.21637 -1.652481,-1.91381 -3.853133,-2.10717 l 1.571941,-16.81981 c 0.750444,-8.02975 -6.106794,-16.47698 -12.02538,-14.69769 l -3.929865,-4.87303 c -1.777691,-1.7931 -3.687969,-0.28435 -2.515109,2.27932 l 1.807735,3.22249 -2.829504,-2.27932 c -0.990793,-0.70261 -2.492956,-0.65902 -1.650542,1.10036 z"
       id="path2395"
       sodipodi:nodetypes="csscccccccccccccccsccccccc"
       inkscape:connector-curvature="0"
       stroke-miterlimit="4"
       style="fill:#000000;fill-opacity:1;fill-rule:evenodd;stroke:#000000;stroke-width:0.11691802;stroke-linecap:butt;stroke-linejoin:round;stroke-miterlimit:4;stroke-dasharray:none;stroke-opacity:1" />
    <path
       d="m 169.32203,72.779661 c 12.388,4.965094 19.10825,15.169865 25.25424,25.932203 -0.6122,-8.787647 -7.82216,-30.04165 -25.25424,-25.932203 z"
       id="path3167"
       sodipodi:nodetypes="ccc"
       inkscape:connector-curvature="0"
       transform="matrix(0.46372385,0,0,0.46372385,-44.400796,203.75245)"
       style="fill:url(#radialGradient3175);fill-opacity:1;fill-rule:evenodd;stroke:none;stroke-width:1;stroke-linecap:butt;stroke-linejoin:miter;stroke-opacity:1;filter:url(#filter3273)" />
    <path
       sodipodi:nodetypes="ccc"
       id="path3181"
       d="m 162.20338,76.338983 c 12.388,4.965094 24.36249,24.491897 28.81356,37.118647 4.98262,-15.598733 -6.59395,-47.056397 -28.81356,-37.118647 z"
       inkscape:connector-curvature="0"
       transform="matrix(0.46372385,0,0,0.46372385,-44.400796,203.75245)"
       style="fill:url(#radialGradient3183);fill-opacity:1;fill-rule:evenodd;stroke:none;stroke-width:1;stroke-linecap:butt;stroke-linejoin:miter;stroke-opacity:1;filter:url(#filter3269)" />
    <ellipse
       id="path3185"
       transform="rotate(-34.56273)"
       cx="-112.72028"
       cy="210.32487"
       rx="1.2576312"
       ry="2.3190434"
       stroke-miterlimit="4"
       style="fill:url(#radialGradient3193);fill-opacity:1;stroke:none;stroke-width:1.8544215;stroke-linecap:round;stroke-linejoin:round;stroke-miterlimit:4;stroke-dasharray:none;stroke-opacity:1" />
    <ellipse
       transform="matrix(0.79191775,-0.61062777,0.52415156,0.851625,0,0)"
       id="path3195"
       cx="-98.168007"
       cy="205.3132"
       rx="1.7985042"
       ry="3.4526398"
       stroke-miterlimit="4"
       style="fill:url(#radialGradient3197);fill-opacity:1;stroke:none;stroke-width:2.70741463;stroke-linecap:round;stroke-linejoin:round;stroke-miterlimit:4;stroke-dasharray:none;stroke-opacity:1" />
    <ellipse
       id="path3199"
       transform="rotate(-16.296292)"
       cx="-41.819954"
       cy="239.27541"
       rx="4.4408512"
       ry="1.45385"
       stroke-miterlimit="4"
       style="fill:url(#radialGradient3207);fill-opacity:1;stroke:none;stroke-width:1.8544215;stroke-linecap:round;stroke-linejoin:round;stroke-miterlimit:4;stroke-dasharray:none;stroke-opacity:1" />
    <ellipse
       transform="matrix(0.99970827,0.02415328,-0.00703946,0.99997522,0,0)"
       id="path3209"
       cx="24.323172"
       cy="243.32349"
       rx="2.3973277"
       ry="1.45385"
       stroke-miterlimit="4"
       style="fill:url(#radialGradient3211);fill-opacity:1;stroke:none;stroke-width:1.36336577;stroke-linecap:round;stroke-linejoin:round;stroke-miterlimit:4;stroke-dasharray:none;stroke-opacity:1" />
    <path
       d="m 152.88136,76.169492 c 0,0 -19.49153,8.474576 -22.37289,10.508474 -2.88135,2.033898 -13.05084,10.338983 -13.05084,10.338983 l 1.69491,1.694915 14.0678,-10.508474 21.86441,-9.661017 z"
       id="path3213"
       inkscape:connector-curvature="0"
       transform="matrix(0.46372385,0,0,0.46372385,-44.400796,203.75245)"
       style="fill:url(#linearGradient3221);fill-opacity:1;fill-rule:evenodd;stroke:none;stroke-width:1;stroke-linecap:butt;stroke-linejoin:miter;stroke-opacity:1;filter:url(#filter3281)" />
    <ellipse
       transform="rotate(-31.368702)"
       id="path3229"
       cx="-113.38416"
       cy="220.03481"
       rx="4.4408512"
       ry="1.45385"
       stroke-miterlimit="4"
       style="fill:url(#radialGradient3231);fill-opacity:1;stroke:none;stroke-width:1.8544215;stroke-linecap:round;stroke-linejoin:round;stroke-miterlimit:4;stroke-dasharray:none;stroke-opacity:1" />
    <ellipse
       id="path3233"
       transform="matrix(0.37734763,-0.26953401,0.26953401,0.37734763,-62.820561,243.40471)"
       cx="115.93"
       cy="105.49"
       rx="3.3900001"
       ry="4.7459998"
       stroke-miterlimit="4"
       style="fill:url(#linearGradient3241);fill-opacity:1;stroke:none;stroke-width:4;stroke-linecap:round;stroke-linejoin:round;stroke-miterlimit:4;stroke-dasharray:none;stroke-opacity:1;filter:url(#filter3301)" />
    <ellipse
       transform="matrix(0.82730528,-0.5909323,0.5909323,0.82730528,-4.961321,-2.9346417)"
       id="path3243"
       cx="-133.25999"
       cy="219.57001"
       rx="1.546"
       ry="1.095"
       stroke-miterlimit="4"
       style="fill:url(#linearGradient3245);fill-opacity:1;stroke:none;stroke-width:1.824;stroke-linecap:round;stroke-linejoin:round;stroke-miterlimit:4;stroke-dasharray:none;stroke-opacity:1;filter:url(#filter907)" />
    <path
       sodipodi:nodetypes="ccc"
       id="path3247"
       d="m 169.32203,116.60325 c -7.15012,-2.32471 -11.02892,-7.10271 -14.57627,-12.14176 0.35335,4.11448 4.5148,14.06585 14.57627,12.14176 z"
       inkscape:connector-curvature="0"
       transform="matrix(0.46372385,0,0,0.46372385,-44.400796,203.75245)"
       style="fill:url(#radialGradient3249);fill-opacity:1;fill-rule:evenodd;stroke:none;stroke-width:1;stroke-linecap:butt;stroke-linejoin:miter;stroke-opacity:1;filter:url(#filter3277)" />
    <path
       inkscape:connector-curvature="0"
       d="m 199.76813,142.0516 c -2.10196,12.1762 -59.2334,9.45234 -60.88782,0.0238 -1.77627,20.22583 58.57279,24.3966 60.88782,-0.0238 z"
       id="path3253"
       sodipodi:nodetypes="ccc"
       transform="matrix(0.46372385,0,0,0.46372385,-44.400796,203.75245)"
       style="fill:url(#radialGradient3255);fill-opacity:1;fill-rule:evenodd;stroke:none;stroke-width:1;stroke-linecap:butt;stroke-linejoin:miter;stroke-opacity:1;filter:url(#filter3289)" />
    <path
       sodipodi:nodetypes="ccc"
       id="path3257"
       d="m 205.86982,165.10245 c -20.61208,15.46269 -55.28721,8.23921 -74.27765,0.0238 13.74487,18.24928 63.83908,30.53724 74.27765,-0.0238 z"
       inkscape:connector-curvature="0"
       transform="matrix(0.46372385,0,0,0.46372385,-44.400796,203.75245)"
       style="fill:url(#radialGradient3259);fill-opacity:1;fill-rule:evenodd;stroke:none;stroke-width:1;stroke-linecap:butt;stroke-linejoin:miter;stroke-opacity:1;filter:url(#filter3293)" />
    <path
       d="m 25.810194,269.15217 c 1.219449,-4.06573 3.409338,-7.35511 6.641219,-9.81089"
       id="path981"
       inkscape:connector-curvature="0"
       sodipodi:nodetypes="cc"
       stroke-miterlimit="4"
       style="fill:none;stroke:#ffffff;stroke-width:0.58200002;stroke-linecap:round;stroke-linejoin:miter;stroke-miterlimit:4;stroke-dasharray:none;stroke-opacity:0.36100003;filter:url(#filter1003)"
       transform="matrix(1.0166784,0,0,1.0166784,-0.89478514,-4.9295461)" />
  </g>
</svg>
