<?xml version="1.0" encoding="UTF-8" standalone="no"?>
<!-- Created with Inkscape (http://www.inkscape.org/) -->

<svg
   xmlns:dc="http://purl.org/dc/elements/1.1/"
   xmlns:cc="http://creativecommons.org/ns#"
   xmlns:rdf="http://www.w3.org/1999/02/22-rdf-syntax-ns#"
   xmlns:svg="http://www.w3.org/2000/svg"
   xmlns="http://www.w3.org/2000/svg"
   xmlns:xlink="http://www.w3.org/1999/xlink"
   xmlns:sodipodi="http://sodipodi.sourceforge.net/DTD/sodipodi-0.dtd"
   xmlns:inkscape="http://www.inkscape.org/namespaces/inkscape"
   id="svg2"
   sodipodi:version="0.32"
   inkscape:version="0.48.2 r9819"
   width="256"
   height="256"
   version="1.0"
   sodipodi:docname="choqok.svg">
  <metadata
     id="metadata7">
    <rdf:RDF>
      <cc:Work
         rdf:about="">
        <dc:format>image/svg+xml</dc:format>
        <dc:type
           rdf:resource="http://purl.org/dc/dcmitype/StillImage" />
      </cc:Work>
    </rdf:RDF>
  </metadata>
  <defs
     id="defs5">
    <linearGradient
       id="linearGradient3871">
      <stop
         style="stop-color:#ffffff;stop-opacity:1;"
         offset="0"
         id="stop3873" />
      <stop
         style="stop-color:#ffffff;stop-opacity:0.36507937;"
         offset="1"
         id="stop3875" />
    </linearGradient>
    <linearGradient
       id="linearGradient2930">
      <stop
         style="stop-color:#000000;stop-opacity:0.61904764;"
         offset="0"
         id="stop2932" />
      <stop
         id="stop3897"
         offset="0.77302128"
         style="stop-color:#000000;stop-opacity:0.65079367;" />
      <stop
         style="stop-color:#545454;stop-opacity:0;"
         offset="1"
         id="stop2934" />
    </linearGradient>
    <linearGradient
       id="linearGradient2914">
      <stop
         id="stop2920"
         offset="0"
         style="stop-color:#000000;stop-opacity:1;" />
      <stop
         id="stop2922"
         offset="1"
         style="stop-color:#b8b8b8;stop-opacity:1;" />
    </linearGradient>
    <linearGradient
       id="linearGradient2900">
      <stop
         style="stop-color:#000000;stop-opacity:1;"
         offset="0"
         id="stop2902" />
      <stop
         id="stop2908"
         offset="0.62920666"
         style="stop-color:#6d6d6d;stop-opacity:1;" />
      <stop
         style="stop-color:white;stop-opacity:1;"
         offset="0.85182947"
         id="stop2910" />
      <stop
         style="stop-color:#b8b8b8;stop-opacity:1;"
         offset="1"
         id="stop2904" />
    </linearGradient>
    <linearGradient
       id="linearGradient2874">
      <stop
         style="stop-color:#fbfb5b;stop-opacity:1"
         offset="0"
         id="stop2876" />
      <stop
         style="stop-color:#8e8e09;stop-opacity:1;"
         offset="1"
         id="stop2878" />
    </linearGradient>
    <linearGradient
       id="linearGradient2866">
      <stop
         style="stop-color:#57510a;stop-opacity:1;"
         offset="0"
         id="stop2868" />
      <stop
         style="stop-color:#eee98f;stop-opacity:1"
         offset="1"
         id="stop2870" />
    </linearGradient>
    <linearGradient
       id="linearGradient2854">
      <stop
         style="stop-color:#f2f2f2;stop-opacity:1;"
         offset="0"
         id="stop2856" />
      <stop
         id="stop3830"
         offset="0.60613227"
         style="stop-color:#797979;stop-opacity:1;" />
      <stop
         style="stop-color:#000000;stop-opacity:1;"
         offset="1"
         id="stop2858" />
    </linearGradient>
    <linearGradient
       id="linearGradient2844">
      <stop
         style="stop-color:#8d8d8d;stop-opacity:1;"
         offset="0"
         id="stop2846" />
      <stop
         style="stop-color:#000000;stop-opacity:1;"
         offset="1"
         id="stop2848" />
    </linearGradient>
    <linearGradient
       id="linearGradient2836"
       inkscape:collect="always">
      <stop
         id="stop2838"
         offset="0"
         style="stop-color:white;stop-opacity:1" />
      <stop
         id="stop2840"
         offset="1"
         style="stop-color:#8d8d8d;stop-opacity:1" />
    </linearGradient>
    <linearGradient
       inkscape:collect="always"
       id="linearGradient2812">
      <stop
         style="stop-color:#6c6509;stop-opacity:1"
         offset="0"
         id="stop2814" />
      <stop
         style="stop-color:#efe897;stop-opacity:1"
         offset="1"
         id="stop2816" />
    </linearGradient>
    <linearGradient
       inkscape:collect="always"
       id="linearGradient2788">
      <stop
         style="stop-color:yellow;stop-opacity:1;"
         offset="0"
         id="stop2790" />
      <stop
         style="stop-color:#656500;stop-opacity:1"
         offset="1"
         id="stop2792" />
    </linearGradient>
    <linearGradient
       inkscape:collect="always"
       id="linearGradient1891">
      <stop
         style="stop-color:white;stop-opacity:1"
         offset="0"
         id="stop1893" />
      <stop
         style="stop-color:black;stop-opacity:1"
         offset="1"
         id="stop1895" />
    </linearGradient>
    <radialGradient
       inkscape:collect="always"
       xlink:href="#linearGradient1891"
       id="radialGradient2961"
       gradientUnits="userSpaceOnUse"
       gradientTransform="matrix(-1.198871,0.03224619,-0.04954962,-1.842199,209.5846,127.4928)"
       cx="90.716698"
       cy="46.860737"
       fx="90.716698"
       fy="46.860737"
       r="31.176191" />
    <radialGradient
       inkscape:collect="always"
       xlink:href="#linearGradient1891"
       id="radialGradient2967"
       gradientUnits="userSpaceOnUse"
       gradientTransform="matrix(-1.466658,0,0,-2.066664,252.7262,209.212)"
       cx="102.45697"
       cy="68.494705"
       fx="102.45697"
       fy="68.494705"
       r="4.3910127" />
    <radialGradient
       inkscape:collect="always"
       xlink:href="#linearGradient1891"
       id="radialGradient2969"
       gradientUnits="userSpaceOnUse"
       gradientTransform="matrix(-1.434774,0.03770912,-0.06058551,-2.305185,217.5745,219.9347)"
       cx="87.673889"
       cy="67.810707"
       fx="87.673889"
       fy="67.810707"
       r="3.3664432" />
    <linearGradient
       gradientUnits="userSpaceOnUse"
       y2="42.245087"
       x2="150.11748"
       y1="202.21474"
       x1="142.96986"
       id="linearGradient2865"
       xlink:href="#linearGradient2837"
       inkscape:collect="always" />
    <linearGradient
       gradientUnits="userSpaceOnUse"
       y2="204.89578"
       x2="113.72008"
       y1="41.947189"
       x1="121.57563"
       id="linearGradient2857"
       xlink:href="#linearGradient2837"
       inkscape:collect="always" />
    <linearGradient
       spreadMethod="reflect"
       gradientUnits="userSpaceOnUse"
       y2="165.71899"
       x2="145.41264"
       y1="77.370277"
       x1="144.8076"
       id="linearGradient2849"
       xlink:href="#linearGradient2837"
       inkscape:collect="always" />
    <linearGradient
       gradientUnits="userSpaceOnUse"
       y2="53.922462"
       x2="122.81"
       y1="165.71899"
       x1="123.61967"
       id="linearGradient2835"
       xlink:href="#linearGradient2837"
       inkscape:collect="always" />
    <linearGradient
       gradientUnits="userSpaceOnUse"
       y2="190.7674"
       x2="177.70123"
       y1="172.18156"
       x1="177.02089"
       id="linearGradient2827"
       xlink:href="#linearGradient2813"
       inkscape:collect="always" />
    <linearGradient
       gradientUnits="userSpaceOnUse"
       y2="172.18156"
       x2="165.0208"
       y1="190.7674"
       x1="165.0208"
       id="linearGradient2819"
       xlink:href="#linearGradient2813"
       inkscape:collect="always" />
    <linearGradient
       id="linearGradient2813"
       inkscape:collect="always">
      <stop
         id="stop2815"
         offset="0"
         style="stop-color:white;stop-opacity:1" />
      <stop
         id="stop2817"
         offset="1"
         style="stop-color:black;stop-opacity:1" />
    </linearGradient>
    <linearGradient
       inkscape:collect="always"
       id="linearGradient2837">
      <stop
         style="stop-color:white;stop-opacity:1"
         offset="0"
         id="stop2839" />
      <stop
         style="stop-color:black;stop-opacity:1"
         offset="1"
         id="stop2841" />
    </linearGradient>
    <linearGradient
       inkscape:collect="always"
       xlink:href="#linearGradient2914"
       id="linearGradient3835"
       gradientUnits="userSpaceOnUse"
       x1="300.91351"
       y1="128.97742"
       x2="320.56619"
       y2="112.00388"
       gradientTransform="matrix(2.0615624,-1.2037942,2.6882217,0.92317413,-816.9393,474.12426)" />
    <linearGradient
       inkscape:collect="always"
       xlink:href="#linearGradient2812"
       id="linearGradient3846"
       gradientUnits="userSpaceOnUse"
       x1="269.98642"
       y1="121.77454"
       x2="297.03973"
       y2="93.379318"
       gradientTransform="matrix(2.4781313,0,0,2.4781313,-566.82841,-70.654003)" />
    <radialGradient
       inkscape:collect="always"
       xlink:href="#linearGradient2788"
       id="radialGradient3850"
       gradientUnits="userSpaceOnUse"
       gradientTransform="matrix(-3.7525921,0.14626156,-0.06517562,-1.6721935,1111.9301,285.72977)"
       cx="274.35501"
       cy="105.14992"
       fx="274.35501"
       fy="105.14992"
       r="24.799271"
       spreadMethod="reflect" />
    <linearGradient
       inkscape:collect="always"
       xlink:href="#linearGradient2844"
       id="linearGradient3853"
       gradientUnits="userSpaceOnUse"
       x1="265.50507"
       y1="106.81893"
       x2="276.8049"
       y2="118.84052"
       gradientTransform="matrix(2.4781313,0,0,2.4781313,-566.82841,-70.654003)" />
    <radialGradient
       inkscape:collect="always"
       xlink:href="#linearGradient2836"
       id="radialGradient3858"
       gradientUnits="userSpaceOnUse"
       gradientTransform="matrix(-3.2034481,-0.04930629,0.09350298,-6.0749281,1035.0837,521.75591)"
       cx="283.07397"
       cy="68.396957"
       fx="283.07397"
       fy="68.396957"
       r="12.0021" />
    <radialGradient
       inkscape:collect="always"
       xlink:href="#linearGradient2836"
       id="radialGradient3861"
       gradientUnits="userSpaceOnUse"
       gradientTransform="matrix(-4.2051063,0.10727572,-0.14747592,-5.7809152,1211.8295,459.39472)"
       cx="264.63171"
       cy="68.224998"
       fx="264.63171"
       fy="68.224998"
       r="9.6602249" />
  </defs>
  <sodipodi:namedview
     inkscape:window-height="1027"
     inkscape:window-width="1680"
     inkscape:pageshadow="2"
     inkscape:pageopacity="0"
     guidetolerance="10.0"
     gridtolerance="10.0"
     objecttolerance="10.0"
     borderopacity="1.0"
     bordercolor="#666666"
     pagecolor="#ffffff"
     id="base"
     width="256px"
     height="256px"
     inkscape:zoom="2.86"
     inkscape:cx="128"
     inkscape:cy="125.94056"
     inkscape:window-x="-2"
     inkscape:window-y="-5"
     inkscape:current-layer="svg2"
     showgrid="false"
     inkscape:window-maximized="1"
     inkscape:snap-global="false" />
  <path
     inkscape:connector-curvature="0"
     sodipodi:nodetypes="ccccc"
     id="path2912"
     d="m 90.334147,205.77345 c 42.563253,-3.64009 62.902113,-10.64687 92.211913,-17.44551 -14.07628,6.6939 -37.27294,22.58304 -8.29065,34.20834 -28.50849,11.14771 -52.91622,4.58209 -89.049438,5.11672 7.105816,-5.31318 3.036287,-13.78645 5.128175,-21.87955 z"
     style="fill:url(#linearGradient3835);fill-opacity:1;fill-rule:evenodd;stroke:none" />
  <path
     sodipodi:type="arc"
     style="fill:url(#radialGradient2961);fill-opacity:1;stroke:none"
     id="path1873"
     sodipodi:cx="104.35974"
     sodipodi:cy="69.851929"
     sodipodi:rx="31.176191"
     sodipodi:ry="38.201813"
     d="m 135.53593,69.851929 a 31.176191,38.201813 0 1 1 -62.35238,0 31.176191,38.201813 0 1 1 62.35238,0 z"
     transform="matrix(2.4781313,0,0,2.4781313,-121.41207,-58.321632)" />
  <path
     inkscape:connector-curvature="0"
     style="fill:url(#radialGradient3861);fill-opacity:1;stroke:none"
     d="m 107.09953,117.31964 c 0,14.29394 -9.999384,27.56648 -23.213864,27.56648 -13.21451,0 -24.664746,-11.82167 -24.664746,-27.56648 0,-20.82285 11.450236,-47.878628 24.664746,-47.878628 13.21448,0 23.213864,27.055778 23.213864,47.878628 z"
     id="path1878"
     sodipodi:nodetypes="csssc" />
  <path
     inkscape:connector-curvature="0"
     style="fill:url(#radialGradient3858);fill-opacity:1;stroke:none"
     d="m 155.70359,119.85872 c 0,27.02968 -13.32476,38.0853 -29.74278,38.0853 -16.418,0 -29.742774,-11.05562 -29.742774,-38.0853 0,-27.029662 13.324774,-59.848293 29.742774,-59.848293 16.41802,0 29.74278,32.818631 29.74278,59.848293 z"
     id="path1875"
     sodipodi:nodetypes="csssc" />
  <path
     sodipodi:type="arc"
     style="fill:url(#radialGradient2967);fill-opacity:1;stroke:none"
     id="path1881"
     sodipodi:cx="100.40783"
     sodipodi:cy="70.291031"
     sodipodi:rx="4.3910127"
     sodipodi:ry="6.4401522"
     d="m 104.79884,70.291031 a 4.3910127,6.4401522 0 1 1 -8.782023,0 4.3910127,6.4401522 0 1 1 8.782023,0 z"
     transform="matrix(2.4781313,0,0,2.4781313,-127.94096,-55.419894)" />
  <path
     sodipodi:type="arc"
     style="fill:url(#radialGradient2969);fill-opacity:1;stroke:none"
     id="path1883"
     sodipodi:cx="86.21022"
     sodipodi:cy="69.266464"
     sodipodi:rx="3.3664432"
     sodipodi:ry="5.4155827"
     d="m 89.576663,69.266464 a 3.3664432,5.4155827 0 1 1 -6.732886,0 3.3664432,5.4155827 0 1 1 6.732886,0 z"
     transform="matrix(2.4781313,0,0,2.4781313,-135.19544,-55.419894)" />
  <path
     inkscape:connector-curvature="0"
     style="fill:url(#linearGradient3853);fill-opacity:1;fill-rule:evenodd;stroke:none"
     d="m 94.767166,218.15491 -16.68499,-18.13582 22.488454,2.90175 26.84106,-23.2139 0,-18.13584 12.33237,-5.07804 18.13584,7.97977 0,15.95955 -15.2341,16.68496 -25.39018,20.31215 -22.488454,0.72542 z"
     id="path2842" />
  <path
     style="fill:#750b0b;fill-opacity:0.99555556;stroke:none"
     d="m 78.062909,184.76371 c 23.484311,-10.24489 17.708599,-27.78912 74.970401,-25.8853 l 4.56814,21.8544 -44.20117,35.32586 C 84.622885,220.40813 87.632102,197.11704 78.062909,184.76371 z"
     id="rect3071"
     inkscape:connector-curvature="0"
     sodipodi:nodetypes="ccccc" />
  <path
     inkscape:connector-curvature="0"
     style="fill:url(#radialGradient3850);fill-opacity:1;fill-rule:evenodd;stroke:none"
     d="m 131.03885,159.3948 c 5.91809,3.72471 6.78783,10.01222 4.35261,21.03758 -7.49617,14.50867 -17.4104,23.69751 -34.09538,29.74278 -33.28602,-7.86385 -72.763024,-6.44126 -84.150333,-47.15319 11.403937,-20.71817 24.491817,-27.39778 43.522799,-32.86183 9.562514,18.23107 25.3184,23.09507 39.17665,11.09881 6.324044,12.56343 15.245524,20.97096 31.193654,18.13585 z"
     id="path1885"
     sodipodi:nodetypes="ccccccc" />
  <path
     inkscape:connector-curvature="0"
     style="fill:url(#linearGradient3846);fill-opacity:1;fill-rule:evenodd;stroke:none"
     d="m 90.718253,207.96492 c 2.040942,31.32361 59.444557,6.90396 72.965127,-34.06146 -12.57722,-32.79712 -20.87916,-20.70411 -29.74278,-14.50866 7.20958,-0.57186 27.19783,-2.61128 19.33935,21.90215 -7.13305,1.01853 -0.0377,-18.02575 -11.3596,-7.39349 -3.64501,13.03997 -20.13751,35.72089 -32.0065,39.08602 -12.152144,1.34791 -7.44916,-2.81906 -19.195597,-5.02456 z"
     id="path1887"
     sodipodi:nodetypes="ccccccc" />
  <g
     id="layer1"
     inkscape:label="1. réteg"
     transform="translate(1.0676828,0.98385855)">
    <path
       id="text3905"
       d="m 14.672896,-7.9438771 -5.2910158,0 -0.834961,2.390625 -3.401367,0 4.8603508,-13.1220709 4.03418,0 4.860352,13.1220709 -3.401368,0 -0.826171,-2.390625 m -4.447266,-2.4345709 3.594727,0 -1.792969,-5.220703 -1.801758,5.220703 m 10.40625,-8.296875 5.616211,0 c 1.669913,1.3e-5 2.950185,0.372083 3.84082,1.116211 0.896473,0.738293 1.344714,1.792979 1.344727,3.164063 -1.3e-5,1.37696 -0.448254,2.437506 -1.344727,3.18164 -0.890635,0.738287 -2.170907,1.107427 -3.84082,1.107422 l -2.232422,0 0,4.5527349 -3.383789,0 0,-13.1220709 m 3.383789,2.452149 0,3.665039 1.87207,0 c 0.656243,7e-6 1.163078,-0.158196 1.520508,-0.47461 0.357413,-0.322257 0.536124,-0.776358 0.536133,-1.362304 -9e-6,-0.585928 -0.17872,-1.0371 -0.536133,-1.353516 -0.35743,-0.316396 -0.864265,-0.474599 -1.520508,-0.474609 l -1.87207,0"
       style="font-size:18px;font-style:normal;font-weight:bold;fill:#000000;fill-opacity:1;stroke:none;font-family:Bitstream Vera Sans"
       inkscape:connector-curvature="0" />
  </g>
</svg>
