<?xml version="1.0" encoding="UTF-8" standalone="no"?>
<!-- Created with Inkscape (http://www.inkscape.org/) -->

<svg
   xmlns:dc="http://purl.org/dc/elements/1.1/"
   xmlns:cc="http://creativecommons.org/ns#"
   xmlns:rdf="http://www.w3.org/1999/02/22-rdf-syntax-ns#"
   xmlns:svg="http://www.w3.org/2000/svg"
   xmlns="http://www.w3.org/2000/svg"
   xmlns:xlink="http://www.w3.org/1999/xlink"
   xmlns:sodipodi="http://sodipodi.sourceforge.net/DTD/sodipodi-0.dtd"
   xmlns:inkscape="http://www.inkscape.org/namespaces/inkscape"
   width="255"
   height="255"
   viewBox="0 0 67.468749 67.468749"
   version="1.1"
   id="svg8"
   inkscape:version="0.92.5 (2060ec1f9f, 2020-04-08)"
   sodipodi:docname="comix.svg">
  <defs
     id="defs2">
    <clipPath
       clipPathUnits="userSpaceOnUse"
       id="clipPath2059">
      <path
         d="m -10.099732,231.68531 c 3.5587363,2.50616 4.8319716,-0.58528 2.9651647,-3.064 -3.1818907,-4.22486 -6.4443207,-9.83985 -12.3548527,-15.91305 -2.594516,-2.66865 -11.860659,-7.80827 -11.860659,-7.80827 0,0 -0.115438,-2.18844 -0.09884,-3.064 0.01106,-0.582 -0.565687,-0.56369 -0.889553,-0.29652 -0.782426,0.64546 -2.47097,2.56981 -2.47097,2.56981 l -1.68026,-0.0988 -1.087226,-1.58142 c -0.296516,-0.41055 -0.636056,-0.34641 -0.88955,0 -0.545383,1.84962 -0.878698,3.8848 -3.459359,3.95355 l 4.447747,3.95356 c 7.76561,1.55335 15.578734,5.58545 20.261957,14.33163 0,0 4.526451,5.19364 7.116396,7.01755 z"
         id="path2061"
         sodipodi:nodetypes="csscsscccccccs"
         inkscape:connector-curvature="0"
         stroke-dasharray="none"
         stroke-opacity="1"
         fill="#ffffff"
         fill-rule="evenodd"
         stroke="none"
         stroke-linejoin="miter"
         fill-opacity="1"
         stroke-linecap="butt"
         stroke-width="0.048"
         stroke-miterlimit="4" />
    </clipPath>
    <clipPath
       id="clipPath2059-5"
       clipPathUnits="userSpaceOnUse">
      <path
         stroke-miterlimit="4"
         stroke-width="0.048"
         stroke-linecap="butt"
         fill-opacity="1"
         stroke-linejoin="miter"
         stroke="none"
         fill-rule="evenodd"
         fill="#ffffff"
         stroke-opacity="1"
         stroke-dasharray="none"
         inkscape:connector-curvature="0"
         sodipodi:nodetypes="csscsscccccccs"
         id="path2061-3"
         d="m -10.099732,231.68531 c 3.5587363,2.50616 4.8319716,-0.58528 2.9651647,-3.064 -3.1818907,-4.22486 -6.4443207,-9.83985 -12.3548527,-15.91305 -2.594516,-2.66865 -11.860659,-7.80827 -11.860659,-7.80827 0,0 -0.115438,-2.18844 -0.09884,-3.064 0.01106,-0.582 -0.565687,-0.56369 -0.889553,-0.29652 -0.782426,0.64546 -2.47097,2.56981 -2.47097,2.56981 l -1.68026,-0.0988 -1.087226,-1.58142 c -0.296516,-0.41055 -0.636056,-0.34641 -0.88955,0 -0.545383,1.84962 -0.878698,3.8848 -3.459359,3.95355 l 4.447747,3.95356 c 7.76561,1.55335 15.578734,5.58545 20.261957,14.33163 0,0 4.526451,5.19364 7.116396,7.01755 z" />
    </clipPath>
    <clipPath
       id="clipPath">
      <path
         fill-opacity="0.95"
         stroke="none"
         fill="#1b1b1b"
         sodipodi:nodetypes="csssscc"
         inkscape:connector-curvature="0"
         id="rect5264"
         d="m -515.73002,435.56445 v 5.83767 c 0,9.74315 -7.84377,17.58692 -17.58692,17.58692 h -135.05122 c -9.74315,0 -17.58692,-7.84377 -17.58692,-17.58692 v -5.83767 z" />
    </clipPath>
    <clipPath
       clipPathUnits="userSpaceOnUse"
       id="clipPath2059-7">
      <path
         d="m -10.099732,231.68531 c 3.5587363,2.50616 4.8319716,-0.58528 2.9651647,-3.064 -3.1818907,-4.22486 -6.4443207,-9.83985 -12.3548527,-15.91305 -2.594516,-2.66865 -11.860659,-7.80827 -11.860659,-7.80827 0,0 -0.115438,-2.18844 -0.09884,-3.064 0.01106,-0.582 -0.565687,-0.56369 -0.889553,-0.29652 -0.782426,0.64546 -2.47097,2.56981 -2.47097,2.56981 l -1.68026,-0.0988 -1.087226,-1.58142 c -0.296516,-0.41055 -0.636056,-0.34641 -0.88955,0 -0.545383,1.84962 -0.878698,3.8848 -3.459359,3.95355 l 4.447747,3.95356 c 7.76561,1.55335 15.578734,5.58545 20.261957,14.33163 0,0 4.526451,5.19364 7.116396,7.01755 z"
         id="path2061-5"
         sodipodi:nodetypes="csscsscccccccs"
         inkscape:connector-curvature="0"
         stroke-dasharray="none"
         stroke-opacity="1"
         fill="#ffffff"
         fill-rule="evenodd"
         stroke="none"
         stroke-linejoin="miter"
         fill-opacity="1"
         stroke-linecap="butt"
         stroke-width="0.048"
         stroke-miterlimit="4" />
    </clipPath>
    <clipPath
       clipPathUnits="userSpaceOnUse"
       id="clipPath1162">
      <path
         stroke-miterlimit="4"
         stroke-width="0.071"
         stroke-linecap="round"
         fill-opacity="0.347"
         stroke-linejoin="round"
         stroke="none"
         fill="#000000"
         stroke-opacity="1"
         stroke-dasharray="none"
         inkscape:connector-curvature="0"
         d="m -65.649736,239.84563 c -9.358079,0 -16.951888,7.59381 -16.951888,16.95188 0,9.35808 7.593811,16.94076 16.951888,16.94077 0.292439,0 0.578792,-0.008 0.867614,-0.0222 2.122786,-0.10753 4.148336,-0.60587 5.995453,-1.42378 l 2.669587,3.97101 c -0.225515,0.4951 -0.245107,0.96445 -0.01111,1.31255 l 15.67271,23.32553 c 0.495366,0.73695 1.94415,0.6317 3.247998,-0.24471 1.303846,-0.87642 1.96364,-2.17735 1.468276,-2.9143 L -51.42304,274.4168 c -0.233058,-0.34672 -0.682887,-0.49868 -1.22356,-0.47831 l -2.558357,-3.80416 c 3.95991,-3.10036 6.507123,-7.91951 6.507123,-13.33682 0,-9.35807 -7.593809,-16.95188 -16.951889,-16.95188 z m 0,2.5806 c 7.92884,0 14.371283,6.44244 14.371283,14.37128 0,7.92885 -6.442435,14.36016 -14.371283,14.36016 -7.928851,0 -14.349039,-6.43131 -14.349039,-14.36016 0,-0.24777 -0.0013,-0.48941 0.01111,-0.73413 0.384376,-7.58638 6.656848,-13.63715 14.337916,-13.63715 z"
         id="path1164" />
    </clipPath>
    <linearGradient
       id="linearGradient929">
      <stop
         style="stop-color:#5b5b5b;stop-opacity:1"
         offset="0"
         id="stop925" />
      <stop
         style="stop-color:#ebaeb4;stop-opacity:1;"
         offset="1"
         id="stop927" />
    </linearGradient>
    <pattern
       patternTransform="matrix(0.4071082,-0.02440982,0.1425041,0.36359606,-8.5437095,235.59112)"
       id="pattern4918"
       xlink:href="#pattern4333"
       inkscape:collect="always" />
    <linearGradient
       id="linearGradient4323">
      <stop
         style="stop-color:#820200;stop-opacity:1"
         offset="0"
         id="stop4325" />
      <stop
         style="stop-color:#d56568;stop-opacity:1"
         offset="1"
         id="stop4327" />
    </linearGradient>
    <linearGradient
       inkscape:collect="always"
       id="linearGradient4311">
      <stop
         style="stop-color:#ffffff;stop-opacity:0.43312103"
         offset="0"
         id="stop4313" />
      <stop
         style="stop-color:#000000;stop-opacity:0"
         offset="1"
         id="stop4315" />
    </linearGradient>
    <linearGradient
       id="linearGradient4268">
      <stop
         style="stop-color:#000000;stop-opacity:1"
         offset="0"
         id="stop4270" />
      <stop
         style="stop-color:#ac6062;stop-opacity:1"
         offset="1"
         id="stop4272" />
    </linearGradient>
    <inkscape:perspective
       id="perspective45"
       inkscape:persp3d-origin="128 : 85.333333 : 1"
       inkscape:vp_z="256 : 128 : 1"
       inkscape:vp_y="0 : 1000 : 0"
       inkscape:vp_x="0 : 128 : 1"
       sodipodi:type="inkscape:persp3d" />
    <linearGradient
       id="linearGradient2814"
       inkscape:collect="always">
      <stop
         id="stop2816"
         offset="0"
         style="stop-color:#f4dd83;stop-opacity:1" />
      <stop
         id="stop2818"
         offset="1"
         style="stop-color:#a0830c;stop-opacity:1" />
    </linearGradient>
    <linearGradient
       id="linearGradient2804">
      <stop
         id="stop2806"
         offset="0"
         style="stop-color:#ed4050;stop-opacity:1;" />
      <stop
         id="stop2808"
         offset="1"
         style="stop-color:#ebaeaf;stop-opacity:1;" />
    </linearGradient>
    <linearGradient
       id="linearGradient2770">
      <stop
         id="stop2772"
         offset="0"
         style="stop-color:#f15964;stop-opacity:1;" />
      <stop
         id="stop2774"
         offset="1"
         style="stop-color:#ebaeb4;stop-opacity:1;" />
    </linearGradient>
    <linearGradient
       id="linearGradient2762"
       inkscape:collect="always">
      <stop
         id="stop2764"
         offset="0"
         style="stop-color:white;stop-opacity:1" />
      <stop
         id="stop2766"
         offset="1"
         style="stop-color:#5974f1;stop-opacity:0;" />
    </linearGradient>
    <linearGradient
       y2="61.144611"
       x2="100.40433"
       y1="61.144611"
       x1="19.720865"
       gradientUnits="userSpaceOnUse"
       id="linearGradient2782"
       xlink:href="#linearGradient2770"
       inkscape:collect="always" />
    <linearGradient
       y2="61.144608"
       x2="29.748808"
       y1="61.144608"
       x1="19.826675"
       spreadMethod="reflect"
       gradientUnits="userSpaceOnUse"
       id="linearGradient2784"
       xlink:href="#linearGradient2762"
       inkscape:collect="always" />
    <linearGradient
       gradientTransform="matrix(0.858264,0,0,1.055152,-22.37693,18.75149)"
       y2="61.144611"
       x2="100.40433"
       y1="61.144611"
       x1="19.720865"
       gradientUnits="userSpaceOnUse"
       id="linearGradient2800"
       xlink:href="#linearGradient2770"
       inkscape:collect="always" />
    <linearGradient
       spreadMethod="reflect"
       gradientUnits="userSpaceOnUse"
       y2="68.839325"
       x2="28.08412"
       y1="70.533081"
       x1="23.938564"
       id="linearGradient2810"
       xlink:href="#linearGradient2804"
       inkscape:collect="always" />
    <linearGradient
       gradientUnits="userSpaceOnUse"
       y2="109.73158"
       x2="75.97731"
       y1="120.62004"
       x1="77.896973"
       id="linearGradient2820"
       xlink:href="#linearGradient2814"
       inkscape:collect="always" />
    <linearGradient
       y2="61.144611"
       x2="100.40433"
       y1="61.144611"
       x1="19.720865"
       gradientTransform="matrix(0.5683086,-0.03407508,0.220383,0.56230304,-12.046133,237.47617)"
       gradientUnits="userSpaceOnUse"
       id="linearGradient2890"
       xlink:href="#linearGradient929"
       inkscape:collect="always" />
    <linearGradient
       gradientTransform="matrix(0.66434954,0.04463915,-0.03598435,0.55486932,-3.9485197,217.61945)"
       y2="109.73158"
       x2="75.97731"
       y1="120.62004"
       x1="77.896973"
       gradientUnits="userSpaceOnUse"
       id="linearGradient2892"
       xlink:href="#linearGradient2814"
       inkscape:collect="always" />
    <linearGradient
       gradientTransform="matrix(0.5465424,-0.03277017,0.2119426,0.54076688,-8.80696,233.40551)"
       y2="61.144611"
       x2="100.40433"
       y1="61.144611"
       x1="19.720865"
       gradientUnits="userSpaceOnUse"
       id="linearGradient2894"
       xlink:href="#linearGradient4323"
       inkscape:collect="always" />
    <linearGradient
       gradientTransform="matrix(0.56932925,0,0,0.6039483,-98.458943,244.16159)"
       y2="61.144608"
       x2="29.748808"
       y1="61.144608"
       x1="19.826675"
       spreadMethod="reflect"
       gradientUnits="userSpaceOnUse"
       id="linearGradient2896"
       xlink:href="#linearGradient4311"
       inkscape:collect="always" />
    <linearGradient
       gradientTransform="matrix(0.66434954,0.04463915,-0.03598435,0.55486932,-1.1455176,226.59485)"
       y2="68.839325"
       x2="28.08412"
       y1="70.277107"
       x1="24.322529"
       spreadMethod="reflect"
       gradientUnits="userSpaceOnUse"
       id="linearGradient2898"
       xlink:href="#linearGradient4268"
       inkscape:collect="always" />
    <linearGradient
       inkscape:collect="always"
       xlink:href="#linearGradient3369"
       id="linearGradient3403"
       gradientUnits="userSpaceOnUse"
       spreadMethod="reflect"
       x1="155.81395"
       y1="113.36433"
       x2="215.89148"
       y2="50.573639"
       gradientTransform="matrix(0.4584837,0,0,0.4584837,12.357625,81.058821)" />
    <linearGradient
       inkscape:collect="always"
       xlink:href="#linearGradient3387"
       id="linearGradient3397"
       gradientUnits="userSpaceOnUse"
       x1="-81.182167"
       y1="145.67221"
       x2="-79.282944"
       y2="78.617943" />
    <linearGradient
       inkscape:collect="always"
       xlink:href="#linearGradient3369"
       id="linearGradient3375"
       x1="155.81395"
       y1="113.36433"
       x2="215.89148"
       y2="50.573639"
       gradientUnits="userSpaceOnUse"
       spreadMethod="reflect" />
    <inkscape:perspective
       id="perspective2503"
       inkscape:persp3d-origin="128 : 85.333333 : 1"
       inkscape:vp_z="256 : 128 : 1"
       inkscape:vp_y="0 : 1000 : 0"
       inkscape:vp_x="0 : 128 : 1"
       sodipodi:type="inkscape:persp3d" />
    <linearGradient
       id="linearGradient3578">
      <stop
         style="stop-color:#000000;stop-opacity:1;"
         offset="0"
         id="stop3580" />
      <stop
         style="stop-color:#fffcfc;stop-opacity:1;"
         offset="1"
         id="stop3582" />
    </linearGradient>
    <linearGradient
       inkscape:collect="always"
       id="linearGradient3369">
      <stop
         style="stop-color:#6465df;stop-opacity:1"
         offset="0"
         id="stop3371" />
      <stop
         style="stop-color:#ffffff;stop-opacity:1"
         offset="1"
         id="stop3373" />
    </linearGradient>
    <linearGradient
       inkscape:collect="always"
       id="linearGradient3387">
      <stop
         style="stop-color:#000000;stop-opacity:1;"
         offset="0"
         id="stop3389" />
      <stop
         style="stop-color:#ffffff;stop-opacity:1"
         offset="1"
         id="stop3391" />
    </linearGradient>
    <pattern
       id="pattern4333"
       patternTransform="translate(-25.265858,20.276956)"
       height="10.645386"
       width="10.646686"
       patternUnits="userSpaceOnUse">
      <path
         d="m 9.5474412,5.86554 c -0.227565,-0.0234 -0.514989,-0.0028 -0.681176,0.23471 -0.234116,0.14116 -0.226406,0.406707 -0.15783,0.647371 -0.0277,0.230134 0.08911,0.392789 0.263933,0.526954 0.217302,0.207297 0.395875,0.43528 0.629,0.625897 0.112648,0.272718 0.6010388,0.262068 0.5720448,0.02728 -0.161296,-0.346798 0.273593,-0.709787 0.462976,-0.546169 -3.75e-4,0.219848 0.0052,0.501136 7.97e-4,0.640429 -0.07958,0.01474 -0.250716,0.81165 0.0095,1.08609 -0.0024,0.178742 -0.01223,0.255808 -0.0077,0.447781 C 10.346423,9.468173 10.251381,9.135191 10.068344,8.936892 9.9923842,8.614949 9.7105102,8.875882 9.5274742,9.070369 9.3172562,9.25683 9.1367862,9.444319 8.8834102,9.62352 c -0.0201,0.266602 -0.290235,0.320923 -0.387412,0.483099 -0.136877,-0.09654 -0.338758,0.231014 -0.114954,0.533267 -0.165171,0.0084 -0.271412,0.0058 -0.434311,0.0013 -0.07272,-0.144703 -0.395087,-0.495783 -0.592609,-0.507923 -0.162385,0.06502 -0.380145,0.143627 -0.457745,-0.02081 -0.124449,0.245479 -0.53167,0.170738 -0.84941,0.288849 -0.287199,0.01687 -0.478928,-0.130241 -0.515838,0.238214 -0.26845,-0.0025 -0.471655,4.55e-4 -0.760163,7.31e-4 -0.07886,-0.347044 -0.01602,0.02616 -0.228986,-0.03905 -0.09721,-0.14563 -0.368357,0.03261 -0.494001,-0.1643 -0.206323,0.0452 -0.395363,-0.183658 -0.525534,-0.114765 -0.08963,0.05336 -0.186016,0.171331 -0.21376,0.315445 l -1.072962,0.0052 c 0.01595,-0.333004 0.188603,-0.604537 0.110103,-0.942969 7.31e-4,-0.276 0.213871,-0.574542 -0.05215,-0.796277 -0.227067,-0.189025 -0.329298,-0.456118 -0.367233,-0.747118 -0.031,-0.189942 0.08357,-0.63185 -0.213493,-0.484478 -0.368272,-0.18753 -0.587487,0.33269 -0.87117204,0.371239 -0.52724,0.339167 -0.687403,0.413731 -0.834952,-0.01641 0.0085,-0.286985 0.0062,-0.324775 -0.0057,-0.645171 0.386525,-0.13477 0.285806,-0.862985 0.01186,-1.091888 -0.0021,-0.19197 -0.0052,-0.243288 -0.0011,-0.402233 0.149143,-0.141357 0.387065,0.295048 0.452857,0.509395 0.04028,0.342685 0.07693,0.690523 0.12681,1.018293 0.03248,0.308312 0.163426,0.155125 0.375703,0.124064 C 1.0796802,7.408643 1.0101282,7.203272 1.1161472,7.094967 1.1813072,6.929614 1.4183392,6.940621 1.4242782,6.803806 1.5375942,6.570417 1.8123522,6.40604 1.9578532,6.159781 2.3598932,6.023767 2.2081992,5.269356 1.8941732,5.445956 1.7177512,5.282684 1.4815052,5.229093 1.2483442,5.237254 0.99600216,5.114434 0.60802716,4.874381 0.45705016,5.206604 c 0.108276,0.41169 -0.360266,0.519714 -0.26983,0.01132 0.02875,-0.260801 -0.182166,-0.511851 -0.182166,-0.511851 0,0 0.0099,-0.106461 0.0025,-0.183239 0.232435,-0.05116 0.853131,0.158983 1.17598204,0.413249 0.389584,0.130651 0.484574,-0.124276 0.712843,-0.406117 0.291016,-0.04787 0.313748,-0.296489 0.244427,-0.564666 -0.03416,-0.276653 0.08341,-0.680794 -0.248377,-0.817645 -0.282386,0.116157 -0.763783,-0.333526 -0.847977,0.0063 -0.20881804,0.133413 -0.68577604,0.551105 -1.03450104,0.502393 -0.0023,-0.194269 -0.0012,-0.304248 0.0021,-0.530812 0.178861,-0.118863 0.69391,0.264661 0.81308,-0.200725 0.106497,-0.02024 0.44791104,-0.34814 0.70322704,-0.250294 0.384186,0.02804 0.437101,-0.501418 0.334435,-0.796754 -0.126178,-0.29474 -0.07122,-0.62627 -0.09521,-0.930484 C 1.5278652,0.780906 1.2822072,0.384637 0.98965116,0.542624 0.65319316,0.317614 0.37156016,0.814479 2.9315538e-4,0.955507 -0.00180684,0.882617 0.00969316,0.839698 0.00459316,0.771671 c 0.126094,-0.150715 0.327986,-0.251996 0.308999,-0.49733 L 0.56989916,0.0019 C 0.71085116,0.0039 0.76034316,1e-4 0.88422916,0 1.0001852,0.126328 1.0579752,0.4333 1.1708542,0.0077 c 0.09735,-0.0038 0.23717,6.65e-4 0.383418,-0.0027 -0.04794,0.315236 0.523874,0.69125 0.600962,0.343623 0.0175,-0.13168 -0.03051,-0.172136 0.08303,-0.343113 l 1.076914,0 c -0.14548,0.216014 -0.294949,0.605124 -0.632027,0.544491 -0.379146,0.143908 -0.310936,0.506809 -0.400423,0.81089 -0.0735,0.242618 0.0056,0.494944 0.07792,0.72008 0.01462,0.261556 0.02959,0.651975 0.224515,0.784735 0.274076,-0.156687 0.666318,0.07147 0.855975,0.377648 0.173962,0.358241 0.347529,0.04611 0.642819,0.106949 0.208524,-0.221137 0.351143,-0.307322 0.535142,-0.594666 0.176851,-0.180291 0.214063,0.250287 0.186537,-0.100285 0.203757,-0.228188 0.402405,-0.480471 0.645209,-0.657184 0.09955,-0.220188 0.298045,0.163139 0.176851,-0.162971 -0.219144,-0.282986 -0.762792,-0.537308 -0.745324,-0.997549 -0.0014,-0.277181 -0.104888,-0.556534 -0.110772,-0.834733 0.248723,0.0063 0.509544,0.0023 0.757127,0.0029 0.111917,0.211416 -0.0465,0.48104 -0.02815,0.711012 -0.165134,0.387777 0.163938,0.58013 0.40457,0.796853 0.281119,0.169986 0.312841,0.48601 0.451608,0.754636 0.162505,0.176776 0.341534,0.367533 0.508467,0.547114 0.274744,0.197723 0.503904,0.687303 0.805886,0.398658 0.10145,-0.219176 -0.02938,-0.543205 0.17207,-0.654477 C 7.6341632,2.073348 8.1158142,1.890442 8.3049442,1.577547 8.5259022,1.439867 9.0546262,0.94732 8.5051872,0.653726 8.2330232,0.486447 7.9434972,0.26178 7.9386302,0.00409 c 0.145174,-0.0017 0.274054,0.0044 0.440333,0.0041 0.06917,0.152308 0.311524,0.283609 0.44802,0.464961 0.269621,0.409117 0.692354,0.057 0.940809,0.567555 0.3240318,-0.04098 0.7368428,-0.447237 0.8754658,-0.26591 0.0027,0.05882 -7.31e-4,0.112438 -0.0022,0.170775 -0.118292,0.169288 -0.23724,0.518456 -0.189278,0.740151 -0.08267,0.363773 0.05235,1.160439 0.192378,1.438142 l -0.0026,0.520202 c -0.195098,-0.05996 -0.02152,0.263346 -0.103536,0.372031 -0.115233,0.141152 0.04052,0.348546 0.105827,0.503135 0.0011,0.08396 -0.007,0.118762 -0.0023,0.175816 C 10.456659,4.555857 10.441065,4.289207 10.214871,4.427878 10.098773,4.037761 9.9377872,4.390698 9.7425482,4.27051 c -0.110117,0.115257 -0.349414,0.278045 -0.496089,0.41202 -0.181018,0.03149 -0.150056,0.394793 -0.202211,0.589957 -0.149343,0.386407 0.379361,0.256904 0.533196,0.357912 l 0.189303,0.0065 c 0.173355,-0.05773 0.6411988,0.392644 0.8690708,0.251652 0.0039,0.16574 -0.0014,0.262372 0.0064,0.402691 -0.284246,0.08999 -0.7377768,-0.366947 -0.8445758,-0.450341 -0.08675,-0.05789 -0.08409,0.0083 -0.250073,0.02472 z M 8.9354372,1.269515 c -0.06165,0.250259 -0.409905,0.411325 -0.596737,0.678883 -0.299029,0.252374 -0.06741,0.636869 -0.0698,0.963098 -0.06143,0.449396 0.101534,0.366353 0.317579,0.651252 0.03992,0.150191 0.321297,0.26024 0.326105,0.3188 0.332003,0.0075 0.790008,0.03058 0.927361,-0.302922 0.114159,-0.399909 0.5836928,-0.204632 0.3783878,-0.665625 0.0073,-0.24363 0.118636,-0.469168 0.07723,-0.717578 C 10.065798,1.934641 10.209103,1.388125 9.7656582,1.333817 9.3393252,0.980383 9.0951192,1.046753 8.9354372,1.269517 Z M 5.8872742,2.515847 C 5.4637822,2.293346 5.2616692,2.89611 4.9733172,3.040425 4.8336292,3.302852 4.4311752,3.465942 4.3639282,3.82187 c 0.166075,0.322153 -0.18388,0.636209 -0.320616,0.538384 0.18956,0.220771 0.77271,0.316354 0.637281,0.841769 0.08241,0.296707 0.08019,0.590906 0.182579,0.881174 0.174236,0.130089 0.3282,0.265569 0.470643,0.432364 0.253208,0.299449 0.401942,0.282283 0.470644,-0.149497 0.127632,-0.07885 -0.0199,-0.21028 0.0423,-0.335294 -0.226426,-0.260128 0.154241,-0.44634 0.308135,-0.66288 0.276972,-0.121998 0.337927,-0.246034 0.506407,-0.471853 0.271327,-0.205272 0.532189,-0.479233 0.361755,-0.824611 0.0071,-0.257428 -0.03107,-0.528023 -0.236765,-0.708763 -0.173919,-0.0537 -0.259287,-0.286375 -0.358959,-0.447167 -0.15305,-0.08696 -0.382591,-0.169311 -0.39442,-0.387165 -0.02601,0.06593 -0.12265,0.04625 -0.145642,-0.01251 z m -0.853071,0.397414 c 0.01082,0.03452 0.01919,-0.01427 0,0 z m -2.082634,0.37452 c -0.261831,0.02264 -0.394435,0.165501 -0.363964,0.46339 -0.06628,0.322976 -0.152024,0.681891 -0.416582,0.89758 -0.385403,0.07718 -0.178848,0.575941 0.140637,0.803475 0.256018,0.174793 0.271601,0.454681 0.621078,0.409167 0.292879,-0.178963 0.511419,0.0362 0.755418,-0.118835 0.318029,-0.0187 0.649553,-0.0998 0.543352,-0.527017 C 4.2622282,4.764676 3.8148542,4.493871 3.8576052,4.021175 3.7704452,3.78179 3.4148602,3.839001 3.3066342,3.52446 3.2062172,3.49044 2.9876352,3.169734 2.9515692,3.287781 Z m 5.235768,0.499372 c -0.122551,-0.221994 -0.50387,-0.420414 -0.548272,-0.03093 -0.163945,0.248157 -0.03114,0.562339 -0.197044,0.810889 -0.210472,0.15791 -0.422601,0.440637 -0.630077,0.59918 -0.236204,0.276892 -0.510617,0.328184 -0.508888,0.696954 0.02967,0.273835 0.0063,0.564722 0.124407,0.817934 0.248659,0.168137 0.682449,0.136765 0.999494,0.193083 0.249586,-0.06987 0.504853,0.299252 0.688902,-0.02228 0.322106,-0.151689 0.105717,-0.54937 0.44886,-0.801927 0.192047,-0.12867 0.384024,-0.38749 0.122664,-0.560288 C 8.6520332,5.11548 8.6221532,4.739385 8.5605022,4.369743 8.4652122,4.10099 8.4528592,3.887768 8.1873372,3.787146 Z m -3.95429,2.512015 C 3.9086012,6.053091 3.7161602,6.187707 3.3857462,6.179582 c -0.221675,-0.07645 -0.453485,0.03332 -0.676967,0.05897 -0.340782,-0.216785 -0.375406,0.238795 -0.72274,0.315884 -0.09957,0.02636 -0.156613,0.397885 -0.391214,0.541722 0.179718,0.14828 0.463761,0.411824 0.73452,0.507365 0.307134,-0.06818 0.613122,0.02692 0.832266,0.272154 0.362846,-0.02481 0.700472,-0.121584 1.076124,-0.145743 0.275496,-0.09315 0.433256,-0.02481 0.731259,-0.100031 0.300386,0.0658 0.364365,-0.07741 0.338484,-0.351042 0.06685,-0.279473 -0.233055,-0.412527 -0.387814,-0.593022 -0.25715,-0.06776 -0.411662,-0.543888 -0.686617,-0.386702 z m 3.49561,1.041595 c -0.26316,-0.0466 -0.283038,-0.01293 -0.540976,0.05293 -0.352288,0.04105 -0.638742,-0.134299 -0.897467,0.06186 -0.474305,-0.0447 -0.360829,0.32483 -0.629183,0.584994 -0.170539,0.177851 -0.148629,0.27311 0.0021,0.459383 0.09057,0.222023 0.08213,0.467087 0.119521,0.694986 -0.06938,0.229305 0.05673,0.447947 0.135878,0.657465 -0.09173,-0.526223 0.49701,-0.0074 0.769841,-0.203178 0.373285,0.198341 0.879214,-0.07637 1.113154,0.400845 0.367289,0.04288 0.380411,-0.08728 0.546016,-0.332135 0.283038,-0.175827 0.418994,-0.417644 0.634237,-0.7078 C 9.1536452,8.924023 9.6818702,8.476846 9.5166112,8.35146 9.2459582,8.208965 9.0066742,7.919097 8.7831652,7.640349 8.7697452,7.340331 8.5923772,7.735259 8.4847132,7.376566 8.2203092,7.417546 7.9388662,7.166992 7.7287042,7.340786 Z m -4.889553,0.542544 c -0.303379,0.0014 -0.697133,0.04084 -0.568585,0.435203 -0.115297,0.470145 0.554457,0.551324 0.395059,1.041278 0.08683,0.386982 0.08859,0.788453 0.144391,1.177769 0.09522,0.05729 0.368863,-0.267986 0.518237,-0.404092 0.207919,-0.339859 0.496932,-0.153917 0.739427,-0.32521 0.242291,-0.05307 0.319498,-0.108573 0.369952,-0.358824 C 4.6008142,9.133477 4.9396692,9.094529 5.0806012,8.791213 5.0613412,8.501872 4.9376802,8.26589 4.6523932,8.292931 4.4185642,8.228681 4.3762712,8.082049 4.2065412,8.213371 3.8879212,8.000775 3.4254672,8.330034 3.0958752,8.048193 2.9582542,8.086853 2.9915082,7.766303 2.8391042,7.88331 Z M 0.08493816,9.124543 c 0.246375,0.270187 0.42222,0.459186 0.708175,0.698206 0.180879,0.138417 0.51085704,0.60935 0.44254904,0.554628 0.24877,0.01564 0.307853,0.26342 0.307853,0.26342 0,0 -0.267422,0.004 -0.379185,-8.64e-4 -0.02705,-0.372251 -0.27968804,-0.05461 -0.27823004,0.0023 0,0 -0.223681,-0.0026 -0.325683,-0.0043 -0.0092,-0.289984 0.0195,-0.349703 -0.127718,-0.574299 -0.175207,-0.108882 -0.425935,-0.482965 -0.425935,-0.482965 -0.01534,-0.162018 1.97e-4,-0.328588 2.78e-4,-0.466435 z M 4.4516152,9.498648 c 0.01082,0.03452 0.01919,-0.01427 0,0 z"
         id="path4331"
         inkscape:connector-curvature="0"
         sodipodi:nodetypes="cccccccccccccccccccccccccccccccccccccccccccccccccccccccccccccccccccccccccccccccccccccccccccccccccccccccccccccccccccccccccccccccccccccccccccccccccccccccccccccccccccccccccccccccccccccccccccccccccccccccccccccccccccccccccc"
         stroke-miterlimit="4"
         style="fill:#000000;fill-opacity:1;stroke:none;stroke-width:0.12899999;stroke-miterlimit:4;stroke-dasharray:none;stroke-opacity:1" />
    </pattern>
    <linearGradient
       inkscape:collect="always"
       id="linearGradient851">
      <stop
         style="stop-color:#f1bd64;stop-opacity:1"
         offset="0"
         id="stop847" />
      <stop
         style="stop-color:#86590b;stop-opacity:0.96774191"
         offset="1"
         id="stop849" />
    </linearGradient>
    <filter
       inkscape:collect="always"
       style="color-interpolation-filters:sRGB"
       id="filter843"
       x="-0.015426115"
       width="1.0308522"
       y="-0.054030111"
       height="1.1080602">
      <feGaussianBlur
         inkscape:collect="always"
         stdDeviation="9.5864526"
         id="feGaussianBlur845" />
    </filter>
    <linearGradient
       inkscape:collect="always"
       xlink:href="#linearGradient851"
       id="linearGradient853"
       x1="2565.6143"
       y1="2679.4736"
       x2="2932.8374"
       y2="2681.9126"
       gradientUnits="userSpaceOnUse"
       spreadMethod="reflect" />
    <linearGradient
       inkscape:collect="always"
       xlink:href="#linearGradient851"
       id="linearGradient868"
       gradientUnits="userSpaceOnUse"
       x1="2927.6719"
       y1="2649.6375"
       x2="3205.3816"
       y2="2628.9995"
       spreadMethod="reflect"
       gradientTransform="matrix(-0.00680598,-0.03447015,0.04197554,0.00865014,-109.10415,225.91991)" />
    <linearGradient
       inkscape:collect="always"
       xlink:href="#linearGradient851"
       id="linearGradient1368"
       gradientUnits="userSpaceOnUse"
       x1="2565.6143"
       y1="2679.4736"
       x2="2932.8374"
       y2="2681.9126"
       spreadMethod="reflect" />
    <linearGradient
       inkscape:collect="always"
       xlink:href="#linearGradient851"
       id="linearGradient1370"
       gradientUnits="userSpaceOnUse"
       gradientTransform="matrix(-0.00680598,-0.03447015,0.04197554,0.00865014,-109.10415,225.91991)"
       x1="2927.6719"
       y1="2649.6375"
       x2="3205.3816"
       y2="2628.9995"
       spreadMethod="reflect" />
    <linearGradient
       id="linearGradient828"
       inkscape:collect="always">
      <stop
         id="stop824"
         offset="0"
         style="stop-color:#d7d7d7;stop-opacity:1" />
      <stop
         id="stop826"
         offset="1"
         style="stop-color:#303030;stop-opacity:1" />
    </linearGradient>
    <linearGradient
       id="linearGradient824"
       inkscape:collect="always">
      <stop
         stop-opacity="1"
         stop-color="#5b5b5b"
         id="stop820" />
      <stop
         stop-opacity="1"
         stop-color="#000000"
         id="stop822"
         offset="1" />
    </linearGradient>
    <radialGradient
       spreadMethod="reflect"
       gradientUnits="userSpaceOnUse"
       gradientTransform="matrix(1.1862983,-0.0162871,0.01311265,0.9550816,-23.398545,15.60516)"
       r="124.14"
       fy="89.72"
       fx="119.2"
       cy="89.72"
       cx="119.2"
       id="radialGradient824"
       xlink:href="#linearGradient824"
       inkscape:collect="always" />
    <linearGradient
       gradientUnits="userSpaceOnUse"
       y2="104.91435"
       x2="111.87749"
       y1="34.943058"
       x1="112.15662"
       id="linearGradient830"
       xlink:href="#linearGradient828"
       inkscape:collect="always" />
  </defs>
  <sodipodi:namedview
     id="base"
     pagecolor="#ff0000"
     bordercolor="#666666"
     borderopacity="1.0"
     inkscape:pageopacity="0"
     inkscape:pageshadow="2"
     inkscape:zoom="3.5098039"
     inkscape:cx="127.5"
     inkscape:cy="127.5"
     inkscape:document-units="px"
     inkscape:current-layer="layer1"
     showgrid="false"
     inkscape:snap-to-guides="false"
     inkscape:snap-grids="false"
     inkscape:snap-others="false"
     inkscape:object-nodes="false"
     inkscape:snap-nodes="false"
     inkscape:snap-global="false"
     inkscape:window-width="1920"
     inkscape:window-height="1056"
     inkscape:window-x="0"
     inkscape:window-y="0"
     inkscape:window-maximized="1"
     units="px"
     showguides="false" />
  <metadata
     id="metadata5">
    <rdf:RDF>
      <cc:Work>
        <dc:format>image/svg+xml</dc:format>
        <dc:type
           rdf:resource="http://purl.org/dc/dcmitype/StillImage" />
        <dc:title />
      </cc:Work>
    </rdf:RDF>
  </metadata>
  <g
     inkscape:label="Layer 1"
     inkscape:groupmode="layer"
     id="layer1"
     transform="translate(0,-229.53126)">
    <g
       id="g1759"
       transform="matrix(1.1042182,0.07419492,-0.06653523,1.0259561,87.520992,-3.1788736)">
      <g
         id="g1751">
        <path
           transform="matrix(0.26195864,-0.03598916,0.09667754,0.22179555,-66.336203,231.13297)"
           style="opacity:1;fill:#000000;fill-opacity:0.22935779;stroke:none;stroke-width:1.29632699;stroke-linecap:round;stroke-linejoin:round;stroke-miterlimit:4;stroke-dasharray:none;stroke-opacity:1"
           d="M -18.075083,71.610435 123.023,69.506937 147.52665,265.90322 H -18.075083 Z"
           id="rect1604"
           inkscape:connector-curvature="0"
           sodipodi:nodetypes="ccccc" />
        <path
           style="opacity:1;fill:#000000;fill-opacity:0.22935779;stroke:none;stroke-width:0.32168925;stroke-linecap:round;stroke-linejoin:round;stroke-miterlimit:4;stroke-dasharray:none;stroke-opacity:1"
           d="m -63.766752,247.8612 c 6.192964,14.20777 12.385928,28.41553 18.578893,42.6233 14.261567,-1.95932 28.523134,-3.91865 42.7847018,-5.87797 -8.3759438,-14.07039 -16.7518848,-28.14079 -25.1278288,-42.21118 -12.078588,1.82195 -24.157177,3.6439 -36.235766,5.46585 z"
           id="path1730"
           inkscape:connector-curvature="0" />
        <path
           style="opacity:1;fill:#000000;fill-opacity:0.22935779;stroke:none;stroke-width:0.32168925;stroke-linecap:round;stroke-linejoin:round;stroke-miterlimit:4;stroke-dasharray:none;stroke-opacity:1"
           d="m -63.388672,248.07227 c 6.121094,14.04101 12.242188,28.08203 18.363281,42.12304 14.064453,-1.93164 28.128907,-3.86328 42.1933598,-5.79492 -8.2779948,-13.90625 -16.5559898,-27.8125 -24.8339848,-41.71875 -11.907552,1.79688 -23.815104,3.59375 -35.722656,5.39063 z"
           id="path1734"
           inkscape:connector-curvature="0" />
        <path
           style="opacity:1;fill:#000000;fill-opacity:0.22935779;stroke:none;stroke-width:0.32168925;stroke-linecap:round;stroke-linejoin:round;stroke-miterlimit:4;stroke-dasharray:none;stroke-opacity:1"
           d="m -63.009766,248.2832 c 6.048829,13.87435 12.097657,27.7487 18.146485,41.62305 13.867187,-1.9043 27.734375,-3.80859 41.6015622,-5.71289 -8.1796872,-13.74154 -16.3593752,-27.48307 -24.5390622,-41.22461 -11.736328,1.77148 -23.472656,3.54297 -35.208985,5.31445 z"
           id="path1738"
           inkscape:connector-curvature="0" />
        <path
           style="opacity:1;fill:#000000;fill-opacity:0.22935779;stroke:none;stroke-width:0.32168925;stroke-linecap:round;stroke-linejoin:round;stroke-miterlimit:4;stroke-dasharray:none;stroke-opacity:1"
           d="m -62.630859,248.49414 c 5.976562,13.70768 11.953125,27.41537 17.929687,41.12305 13.669922,-1.87696 27.339844,-3.75391 41.0097658,-5.63086 -8.0813798,-13.57682 -16.1627608,-27.15365 -24.2441408,-40.73047 -11.565104,1.74609 -23.130208,3.49219 -34.695312,5.23828 z"
           id="path1742"
           inkscape:connector-curvature="0" />
      </g>
    </g>
    <path
       style="fill:url(#linearGradient2890);fill-opacity:1;stroke:#000000;stroke-width:0.34314105;stroke-linecap:round;stroke-linejoin:round;stroke-miterlimit:4;stroke-dasharray:none;stroke-opacity:1"
       d="m 2.1179029,243.90237 39.5464341,-2.88236 24.71117,45.73736 -46.371758,2.78039 z"
       id="rect2788"
       inkscape:connector-curvature="0"
       sodipodi:nodetypes="ccccc" />
    <path
       style="fill:url(#linearGradient2892);fill-opacity:1;fill-rule:evenodd;stroke:none;stroke-width:0;stroke-linecap:butt;stroke-linejoin:miter;stroke-miterlimit:4;stroke-dasharray:none;stroke-opacity:1"
       d="m 64.431308,285.99547 -44.419888,2.81366 1.734079,-4.33336 44.250437,-2.69019 z"
       id="path2812"
       sodipodi:nodetypes="ccccc"
       inkscape:connector-curvature="0" />
    <path
       style="opacity:1;fill:url(#linearGradient2894);fill-opacity:1;stroke:#000000;stroke-width:0.32999858;stroke-linecap:round;stroke-linejoin:round;stroke-miterlimit:4;stroke-dasharray:none;stroke-opacity:1"
       d="m 4.8146035,239.58562 36.3854595,-1.00846 25.678896,43.27815 -44.354391,2.55013 z"
       id="rect1873"
       inkscape:connector-curvature="0"
       sodipodi:nodetypes="ccccc" />
    <path
       style="opacity:0.45700001;fill:url(#pattern4918);fill-opacity:1;stroke:none;stroke-width:0.43815839;stroke-linecap:round;stroke-linejoin:round;stroke-miterlimit:4;stroke-dasharray:none;stroke-opacity:1"
       d="m 4.8919465,239.6594 36.2471995,-1.06818 25.635671,43.24744 -44.136613,2.20164 z"
       id="rect4329"
       inkscape:connector-curvature="0"
       sodipodi:nodetypes="ccccc" />
    <rect
       y="251.67923"
       x="-87.171021"
       height="48.437141"
       width="5.1923857"
       id="rect1875"
       style="opacity:1;fill:url(#linearGradient2896);fill-opacity:1;stroke:none;stroke-width:0.0655064;stroke-linecap:round;stroke-linejoin:round;stroke-miterlimit:4;stroke-dasharray:none;stroke-opacity:1"
       transform="matrix(0.99820729,-0.05985159,0.36490423,0.93104506,0,0)" />
    <path
       style="fill:url(#linearGradient2898);fill-opacity:1;fill-rule:evenodd;stroke:none;stroke-width:0;stroke-linecap:round;stroke-linejoin:round;stroke-miterlimit:4;stroke-dasharray:none;stroke-opacity:1"
       d="m 1.9369029,243.79236 c -0.95626577,-2.39378 0.040591,-3.81433 3.0200793,-4.24695 l 17.3867728,45.21132 c -2.421184,0.44865 -3.002169,1.9312 -2.520416,4.01083 z"
       id="path2802"
       sodipodi:nodetypes="ccccc"
       inkscape:connector-curvature="0" />
    <g
       id="g858"
       transform="matrix(-0.01101449,-0.0081503,0.00863339,-0.01014484,48.741261,294.21469)">
      <path
         sodipodi:nodetypes="cccccccccccccccccccc"
         inkscape:connector-curvature="0"
         id="path817"
         d="m 2842.7012,2431.6621 c -2.892,44.9577 -41.2594,80.1678 -83.1482,91.0152 -22.4968,8.7442 -46.2512,16.1366 -65.1057,31.8305 -8.4489,18.3026 9.6125,34.6132 24.3739,42.2698 24.1571,13.5313 57.7751,20.3843 81.0167,1.4763 24.267,-14.0481 55.7799,5.515 63.6601,29.8828 4.5033,21.2723 -10.8859,42.3827 -30.9734,48.5532 -39.097,18.1529 -83.8369,7.4853 -122.5246,-6.2368 -21.5782,-3.2387 -34.2445,-23.3211 -43.4844,-41.0937 -10.9154,-13.2861 -31.5108,-27.5494 -48.3066,-15.9375 -11.6031,14.5207 -29.0394,27.6983 -48.7397,24.1003 -43.0085,-10.9706 -87.2068,-18.5499 -131.415,-23.5797 -94.8118,-12.3117 -188.5367,12.0587 -281.8842,24.8507 -8.3494,2.2289 -40.7009,1.2094 -18.1571,7.6194 225.2668,92.9461 451.515,183.6182 674.9687,280.8755 39.9938,17.6834 76.7705,42.1909 117.573,57.9951 57.6529,19.1557 121.288,8.7977 175.0054,-17.3983 49.5285,-22.4814 85.4443,-64.7426 126.5567,-98.9288 125.9389,-109.2157 255.479,-214.1885 383.0033,-321.536 5.7064,-6.899 33.0867,-20.9568 10.3637,-18.4657 -83.1258,-4.9203 -167.6183,-9.7871 -249.8002,6.737 -49.2369,11.6633 -89.5327,47.6713 -140.2774,54.1856 -21.6488,6.2982 -37.5165,-11.1009 -56.2471,-17.6664 -16.3706,-6.8551 -30.9813,8.9483 -31.7198,24.4542 -1.8241,16.4061 -4.867,33.7955 -18.0454,45.2022 -25.8992,27.6647 -69.836,34.1122 -103.6768,18.062 -23.181,-8.5931 -47.9962,-16.5331 -66.7386,-33.1243 -13.0409,-16.9797 -0.3287,-45.8117 22.5117,-42.0859 20.7283,0.7269 41.3401,9.2146 62.0664,3.4057 18.858,-2.2002 44.7659,-11.8806 45.0079,-34.2515 -1.89,-21.8785 -24.5195,-34.4921 -44.2305,-37.4781 -40.6167,-9.6518 -85.0756,-4.5461 -122.756,-25.2519 -30.4959,-13.2982 -57.0098,-34.7546 -78.1483,-60.2953 z"
         style="fill:url(#linearGradient1368);fill-opacity:1;stroke:#ffd601;stroke-width:19.10735512;stroke-linecap:butt;stroke-linejoin:miter;stroke-miterlimit:4;stroke-dasharray:none;stroke-opacity:1" />
      <path
         sodipodi:nodetypes="ccccccccc"
         inkscape:connector-curvature="0"
         id="path819"
         d="m 3593.6465,2481.8984 c -30.4804,9.2578 -52.4635,33.8599 -79.9996,48.6711 -114.6822,77.4352 -231.2985,152.1882 -342.434,234.7235 -48.726,37.7026 -99.5496,80.3233 -162.957,88.1172 -51.8515,7.2739 -99.8871,-17.8758 -147.2148,-34.7823 -40.7354,-15.2999 -82.9744,-25.8879 -125.2144,-35.9867 -63.0169,-18.6278 -124.0484,-43.2805 -186.3104,-64.2239 -127.4813,-45.0011 -254.9627,-90.0022 -382.444,-135.0032 -23.1328,9.458 -43.1789,36.5835 -32.875,61.9687 18.9801,22.4884 50.635,24.1873 75.237,37.5468 205.6761,83.3015 412.3558,164.226 616.2005,251.9649 59.6249,32.7206 124.3313,66.016 194.4074,61.5098 65.0349,-3.1841 120.773,-43.2311 166.0457,-86.8906 150.9785,-122.1146 301.957,-244.2292 452.9355,-366.3438 9.0033,-28.3156 -13.8843,-64.5419 -45.3769,-61.2715 z"
         style="fill:#846835;fill-opacity:1;stroke:none;stroke-width:1px;stroke-linecap:butt;stroke-linejoin:miter;stroke-opacity:1" />
      <path
         style="fill:#fffd98;fill-opacity:1;stroke:none;stroke-width:1px;stroke-linecap:butt;stroke-linejoin:miter;stroke-opacity:1;filter:url(#filter843)"
         d="m 3608.5371,2489.5117 c -139.5195,95.0576 -281.9303,186.1017 -416.793,287.8008 -51.3528,41.9103 -97.5628,94.8717 -162.4678,115.8068 -50.0961,16.7872 -103.2896,-2.159 -147.6865,-26.0138 -41.6002,-20.168 -83.8044,-40.5176 -129.4492,-49.6641 -160.9119,-58.0886 -320.559,-119.6026 -480.9322,-179.1526 -37.964,-14.2265 -75.928,-28.453 -113.892,-42.6794 -23.3565,5.0451 -20.1137,44.4583 5.1445,42.7327 44.0008,14.3023 86.6036,32.708 130.0247,48.7035 172.4996,66.4689 345.5223,131.6414 516.7644,201.3157 57.2754,29.398 118.039,62.2307 184.508,58.1218 59.9831,-2.4543 111.0044,-39.5857 153.8041,-78.4641 69.1597,-64.1001 147.3275,-117.2539 222.0687,-174.4457 85.1442,-63.7928 170.558,-127.2237 255.9786,-190.6456 -3.2313,-6.4213 -8.2866,-15.8667 -17.0723,-13.416 z"
         id="path821"
         inkscape:connector-curvature="0"
         sodipodi:nodetypes="ccccccccc" />
    </g>
    <g
       id="g1076"
       transform="matrix(0.28654893,0.01925386,-0.02283897,0.35217096,70.893906,229.20529)">
      <path
         style="opacity:1;fill:url(#linearGradient1370);fill-opacity:1;stroke:#ffd601;stroke-width:0.83508188;stroke-linecap:butt;stroke-linejoin:miter;stroke-miterlimit:4;stroke-dasharray:none;stroke-opacity:1"
         d="m -30.662109,122.03125 c 0.483136,1.49846 1.012212,3.01342 1.943359,4.30078 0.137954,0.93295 -0.563537,1.6647 -0.917969,2.45899 0.131803,1.23252 1.389444,1.81344 2.304688,2.42187 1.040884,0.70382 1.98386,1.58466 2.628906,2.67188 0.267748,1.32273 -1.324777,2.5403 -2.535156,1.95898 -1.148031,-0.31661 -2.155179,-0.97133 -3.177735,-1.55859 -0.918237,-0.11139 -1.057653,-1.65928 -0.162109,-1.91993 0.18638,-1.33366 -1.075007,-2.36473 -2.263672,-2.62304 -0.920552,-0.25932 -1.869002,-0.39022 -2.810547,-0.54688 -2.197925,0.71079 -4.584077,1.41645 -6.884765,0.75977 -1.065523,0.0881 -0.09391,1.39043 0.539473,1.40294 1.026556,0.79178 2.022374,1.64606 2.808183,2.68495 0.396272,1.94157 1.469441,3.89066 3.310547,4.78711 0.747354,0.46578 1.612185,1.09679 2.541015,0.80273 0.830304,-0.41092 0.647462,-1.6814 1.535157,-2.02929 1.521344,-0.15397 3.057723,0.48494 4.167534,1.50062 0.859302,0.92093 1.224653,2.34923 0.72895,3.53453 -0.685114,0.72744 -1.789951,0.48824 -2.652344,0.30469 -0.666425,-0.26218 -1.77285,-0.9505 -2.245302,-0.0462 -0.02241,0.73154 0.495858,1.62514 -0.110166,2.24928 -1.166431,0.8972 -2.86139,0.61443 -3.955079,1.63477 -1.061691,1.68695 -1.502665,3.68342 -2.560028,5.36894 -0.697747,0.9528 0.5085,1.69074 1.358857,1.27559 1.348378,-0.54045 2.797785,-0.75648 4.244738,-0.79415 4.602003,-0.096 9.232271,-0.23131 13.759736,-1.13921 3.27147,-0.58366 6.583099,-0.92929 9.9017755,-1.08617 1.339826,-0.25017 2.3104288,-1.54819 2.362187,-2.88029 0.4440959,-2.37636 -0.8097036,-4.70252 -2.4168745,-6.36776 -7.707682,-8.27539 -15.415365,-16.55078 -23.123047,-24.82617 0.559896,1.89974 1.119792,3.79948 1.679688,5.69922 z"
         id="path860"
         inkscape:connector-curvature="0"
         sodipodi:nodetypes="ccccccccccccccccccc" />
      <path
         style="fill:#846835;fill-opacity:1;stroke:none;stroke-width:0.03725628px;stroke-linecap:butt;stroke-linejoin:miter;stroke-opacity:1"
         d="m -30.337891,118.39453 c -0.864834,0.36235 -1.020229,1.69837 -0.308593,2.28711 6.060546,7.61914 12.121093,15.23828 18.18164,22.85742 0.447479,0.76279 0.974603,1.49001 1.285156,2.32422 -1.047795,1.19576 -2.751854,1.24237 -4.205592,1.50359 -6.550477,0.89801 -13.124368,1.6125 -19.701833,2.27784 -0.858788,0.15801 -2.262685,-0.0219 -2.367965,1.14826 -0.101078,0.84714 -1.098654,1.60418 -0.72461,2.43164 0.598044,0.7815 1.625189,0.33833 2.357706,0.042 1.234094,-0.43554 2.569773,-0.35427 3.857131,-0.46753 4.271367,-0.17054 8.562679,-0.38033 12.758831,-1.25592 3.888972,-0.69595 7.79694,-1.33824 11.7430239,-1.58814 1.0804394,-0.14666 2.4081925,-0.73796 2.520485,-1.96933 0.1711548,-1.59935 -0.9848701,-2.90662 -1.9152409,-4.06881 -3.281821,-3.89181 -6.77624,-7.59723 -10.149175,-11.40924 -4.161103,-4.62364 -8.322205,-9.24729 -12.483307,-13.87094 -0.254302,-0.13958 -0.543963,-0.33225 -0.847657,-0.24219 z m -8.914062,35.68945 c 0.01202,0.19984 0.119951,-0.53178 0,0 z"
         id="path862"
         inkscape:connector-curvature="0"
         sodipodi:nodetypes="ccccccccc" />
      <path
         transform="matrix(-0.00680598,-0.03447015,0.04197554,0.00865014,-109.10415,225.91991)"
         sodipodi:nodetypes="ccccccccc"
         inkscape:connector-curvature="0"
         id="path864"
         d="m 2683.7344,2158.1465 c 52.426,130.9362 87.7711,268.2599 146.2155,396.8701 49.3056,118.7142 107.7905,233.6435 149.9993,355.249 13.486,31.0339 51.4906,46.6156 83.1193,35.4413 30.9947,-11.198 58.4765,-30.2808 86.9274,-46.6378 104.0726,-64.3457 200.5941,-139.8495 300.7982,-209.8849 99.995,-71.6304 199.9901,-143.2608 299.9852,-214.8912 -34.7804,-9.8783 -64.7852,16.659 -91.6816,34.5039 -184.7943,124.6159 -369.5886,249.2317 -554.3829,373.8476 -37.9793,21.6867 -86.1412,-7.5227 -99.8444,-45.332 -44.7033,-86.5755 -85.4554,-175.2991 -120.1812,-266.4018 -49.5463,-127.4747 -95.9653,-256.1227 -141.5525,-385.0572 -14.2867,-21.8505 -38.147,-35.551 -62.8594,-42.418 1.1524,4.9037 2.3047,9.8073 3.4571,14.711 z"
         style="fill:#fffd98;fill-opacity:1;stroke:none;stroke-width:1px;stroke-linecap:butt;stroke-linejoin:miter;stroke-opacity:1;filter:url(#filter843)" />
    </g>
    <g
       transform="matrix(-0.16413643,-0.20823117,-0.29362889,0.19859218,47.720214,209.12703)"
       id="g952">
      <path
         sodipodi:nodetypes="ccccccccccccccccccc"
         inkscape:connector-curvature="0"
         id="path946"
         d="m -30.662109,122.03125 c 0.431054,1.51496 0.918778,3.07002 1.943359,4.30078 0.380308,0.89298 -0.533389,1.58058 -0.894531,2.29883 -0.292204,0.81244 0.509171,1.47316 1.134907,1.83225 1.447832,0.88285 3.044847,1.81086 3.775249,3.42166 0.306082,1.2086 -1.039767,2.45782 -2.220703,2.03711 -1.297228,-0.1953 -2.422853,-0.92143 -3.492188,-1.63672 -0.926114,-0.10205 -1.065228,-1.6648 -0.162109,-1.91993 0.317841,-1.03839 -0.571359,-2.02706 -1.5,-2.35156 -1.106654,-0.55988 -2.357113,-0.69853 -3.574219,-0.81836 -1.912489,0.6673 -3.96448,1.42818 -6.011718,0.94336 -0.630621,0.009 -2.016889,-0.44398 -2.166178,-0.12175 1.658684,1.19468 3.50713,2.26859 4.640787,4.02605 0.303169,1.41392 0.703193,2.99893 2.002607,3.83126 0.964861,0.85977 2.060871,1.64222 3.341143,1.93436 0.929672,-0.146 1.561355,-1.11688 1.488281,-2.02539 0.794774,-0.64198 1.853893,-0.15802 2.703125,0.0918 1.463996,0.37093 2.881272,1.57004 2.935547,3.16992 0.247923,0.82419 -0.01559,2.15152 -1.085602,2.12938 -0.925266,0.0599 -1.783291,-0.36973 -2.687836,-0.48289 -0.411177,-0.45587 -2.105284,-0.50182 -1.548828,0.43554 0.75304,0.58733 0.709713,1.9286 -0.251953,2.27539 -1.019532,0.61143 -2.275295,0.55961 -3.326172,1.09375 -0.87108,0.87483 -0.550149,2.21682 -0.825486,3.31307 -0.156769,1.05066 -0.207627,2.11206 -0.270217,3.17131 -0.292636,0.53025 -1.212432,1.83354 -0.09242,1.95499 1.609715,-0.12684 3.21847,-0.29161 4.829078,-0.42059 5.496972,-0.63332 10.764082,-2.44497 16.197676,-3.42063 2.022218,-0.42528 4.104054,-0.56942 6.0969909,-1.12122 2.0271798,-0.7567 3.5089419,-3.11857 2.8140076,-5.2628 -0.679906,-2.25645 -2.5918694,-3.78195 -4.0881105,-5.49391 -7.128059,-7.62809 -14.256118,-15.25619 -21.384177,-22.88428 0.559896,1.89974 1.119792,3.79948 1.679688,5.69922 z"
         style="opacity:1;fill:url(#linearGradient868);fill-opacity:1;stroke:#ffd601;stroke-width:0.83508188;stroke-linecap:butt;stroke-linejoin:miter;stroke-miterlimit:4;stroke-dasharray:none;stroke-opacity:1" />
      <path
         sodipodi:nodetypes="ccccccccc"
         inkscape:connector-curvature="0"
         id="path948"
         d="m -30.197266,118.31641 c -0.937121,0.22072 -1.282496,1.60882 -0.550781,2.23828 6.169271,7.77474 12.338542,15.54948 18.507813,23.32422 0.329799,0.74588 1.296119,1.4871 0.83789,2.37304 -0.678466,0.96812 -2.005686,0.8953 -3.051017,1.03959 -4.56317,0.43199 -9.104883,1.0928 -13.58915,2.04588 -2.378953,0.47835 -4.780427,0.83568 -7.187958,1.13524 -1.056317,-0.39527 -1.541649,1.12906 -0.96734,1.8403 0.175573,0.84726 -0.404723,1.55955 -0.817816,2.2261 -0.0312,1.07141 1.507654,0.56013 2.174708,0.52499 2.353167,-0.27313 4.720161,-0.48045 7.028914,-1.0375 4.545835,-1.02959 8.997386,-2.45995 13.589734,-3.28907 2.227951,-0.45698 4.5004434,-0.7256 6.6932271,-1.33586 0.967017,-0.30403 2.1002861,-0.77127 2.4138075,-1.83521 0.1985552,-1.3991 -0.8670845,-2.52324 -1.6259842,-3.56863 -2.1923675,-2.7839 -4.6963004,-5.30037 -7.0321674,-7.96106 -5.368507,-5.93477 -10.737014,-11.86953 -16.10552,-17.8043 -0.10612,0.028 -0.21224,0.056 -0.31836,0.084 z m -8.001953,37.02148 c -0.250869,0.24919 0.268119,-0.0929 0,0 z"
         style="fill:#846835;fill-opacity:1;stroke:none;stroke-width:0.03725628px;stroke-linecap:butt;stroke-linejoin:miter;stroke-opacity:1" />
      <path
         style="fill:#fffd98;fill-opacity:1;stroke:none;stroke-width:1px;stroke-linecap:butt;stroke-linejoin:miter;stroke-opacity:1;filter:url(#filter843)"
         d="m 2646.1172,2182.9277 c -0.1206,33.0954 22.0025,60.0397 31.4989,90.5614 61.3524,138.3218 148.3798,263.7395 206.2866,403.7546 34.6794,79.0403 61.6683,161.538 102.7848,237.6723 20.852,28.547 63.5088,41.8022 94.5768,21.8415 103.0482,-43.5514 186.5279,-120.0634 278.6838,-181.5346 130.277,-93.6433 260.5541,-187.2866 390.8312,-280.9299 -22.8793,-13.3499 -48.0641,4.2481 -66.4121,17.5195 -191.4369,128.5056 -382.6921,257.281 -573.7656,386.3262 -24.148,15.9413 -62.7467,21.0333 -82.4668,-4.4825 -54.3257,-56.2945 -72.2336,-134.861 -103.3779,-204.294 -40.2345,-100.2567 -84.4302,-198.8834 -132.6493,-295.5534 -25.9936,-53.53 -50.9869,-107.7062 -70.0803,-164.1154 -13.4024,-23.3829 -44.4791,-17.2237 -66.1093,-26.4883 -3.2564,-0.8701 -6.5095,-0.6225 -9.8008,-0.2774 z"
         id="path950"
         inkscape:connector-curvature="0"
         sodipodi:nodetypes="ccccccccc"
         transform="matrix(-0.00680598,-0.03447015,0.04197554,0.00865014,-109.10415,225.91991)" />
    </g>
    <g
       transform="matrix(0.0112728,0.00868251,-0.00920267,0.01037865,17.938524,225.71974)"
       id="g963">
      <path
         style="fill:url(#linearGradient853);fill-opacity:1;stroke:#ffd601;stroke-width:19.10735512;stroke-linecap:butt;stroke-linejoin:miter;stroke-miterlimit:4;stroke-dasharray:none;stroke-opacity:1"
         d="m 2850.8887,2451.2852 c -51.142,42.2992 -103.3064,83.3434 -155.4727,124.3443 -36.1413,29.0418 -29.8861,96.3822 13.8555,114.8451 36.2667,20.6471 73.9234,41.2 101.5918,73.2227 39.6982,89.9234 58.0483,187.079 88.8183,280.0566 4.1439,21.8661 -31.718,34.0994 -41.8808,14.2891 -52.1357,-71.8375 -83.7246,-158.557 -148.918,-220.6582 -42.537,-39.1164 -100.4926,-63.536 -128.748,-116.4961 -13.7971,-16.1565 -36.4996,-17.7678 -56.2266,-18.875 -51.1364,-24.9315 -93.0317,-71.0054 -151.6777,-78.625 -56.5038,-3.1024 -112.8138,4.1562 -169.0977,7.9726 -17.3969,-11.4889 -44.2634,12.7566 -31.3711,30.6407 31.2669,26.3201 68.9058,43.2526 103.8618,63.9394 99.8995,53.3969 196.4911,112.661 294.7847,168.9082 75.7699,45.9007 147.7148,97.7069 222.805,144.6656 38.1015,24.8901 76.2029,49.7802 114.3044,74.6703 44.2852,14.1069 90.5238,-3.2619 130.2656,-22.705 86.4448,-57.4423 136.482,-152.4646 214.2942,-219.3351 103.0194,-97.1233 205.3687,-195.1433 314.0496,-285.9931 10.4196,-15.2624 35.1916,-16.2968 40.4726,-35.5625 1.8254,-22.9942 -29.6471,-18.0335 -44.3587,-15.5907 -60.4097,1.5349 -120.8847,3.0599 -181.319,4.6103 -46.5334,16.6764 -84.1586,50.8951 -130.4141,68.1699 -18.7603,0.8665 -46.9968,-10.9456 -56.5095,12.4805 -10.5368,22.6699 -10.2589,48.8526 -22.2273,71.0857 -34.0041,85.7316 -86.0381,164.5255 -106.374,255.4283 -6.5184,20.1176 -10.0129,42.112 -19.5307,60.7757 -13.6014,12.9547 -42.0976,1.0008 -38.9249,-18.7077 -0.3815,-90.1203 -4.519,-181.268 13.3945,-270.1602 21.486,-43.688 46.881,-85.2644 72.334,-126.7168 3.6241,-36.637 -27.3293,-71.2981 -63.3652,-74.9257 -50.2496,-14.6777 -101.1421,-28.4166 -148.5235,-51.1094 -7.4428,-8.4624 -17.8048,-16.872 -29.8925,-14.6445 z"
         id="path957"
         inkscape:connector-curvature="0"
         sodipodi:nodetypes="cccccccccccccccccccc" />
      <path
         style="fill:#846835;fill-opacity:1;stroke:none;stroke-width:1px;stroke-linecap:butt;stroke-linejoin:miter;stroke-opacity:1"
         d="m 3597.6562,2488.5391 c -120.0501,61.5217 -224.4785,150.4742 -311.5517,252.9733 -42.2835,48.5966 -85.1273,96.8593 -124.6001,147.772 -33.0403,44.9288 -55.16,96.6681 -86.3336,142.7293 -25.8741,36.9623 -63.7442,68.4296 -109.7014,74.7042 -59.0461,10.225 -122.3528,-17.5328 -154.9114,-67.8448 -45.1866,-53.5907 -77.8385,-120.4001 -139.0367,-158.404 -83.008,-47.6991 -173.8267,-84.0415 -246.2498,-148.2718 -68.7426,-60.7086 -148.563,-110.8326 -237.5293,-135.4239 -19.7118,-12.4186 -51.6482,8.8794 -42.6856,32.1172 14.7378,29.2862 48.2148,40.0181 74.9348,55.3003 73.5709,37.1588 147.1521,74.4768 217.4481,117.6314 74.0344,44.1664 155.9544,74.7671 225.8417,125.832 68.7027,53.1892 119.9069,127.2185 195.1778,172.1475 74.54,37.3077 169.9527,15.2035 227.3567,-43.1318 38.1465,-37.8648 69.1791,-82.1155 106.5197,-120.7573 61.6976,-68.3413 135.394,-124.0064 204.227,-184.7066 74.9681,-64.3942 149.9363,-128.7884 224.9044,-193.1827 20.4213,-21.4813 9.0726,-63.1798 -20.1738,-70.0214 z"
         id="path959"
         inkscape:connector-curvature="0"
         sodipodi:nodetypes="ccccccccc" />
      <path
         sodipodi:nodetypes="ccccccccc"
         inkscape:connector-curvature="0"
         id="path961"
         d="m 3586.5098,2509.8301 c -30.0682,17.2735 -58.2046,37.7482 -86.7515,57.4071 -75.2816,54.0011 -143.449,117.4741 -204.3134,187.2489 -69.0818,75.5679 -140.1626,151.2358 -189.569,241.7271 -28.6081,47.1867 -67.2768,94.1887 -122.5025,109.6939 -68.7448,18.547 -146.0018,-14.4103 -184.0336,-73.7665 -47.6852,-59.1795 -92.6349,-125.2097 -161.5466,-161.6188 -67.2995,-33.4238 -135.1729,-66.7131 -196.0564,-111.2024 -53.4455,-40.0819 -106.2949,-81.914 -166.7879,-111.1232 -30.3123,-15.232 -60.3915,-30.9241 -91.2966,-44.9442 -21.5926,-3.729 -33.0731,31.8246 -13.3671,41.5019 56.1774,27.0534 115.8584,46.5299 170.0797,77.696 76.0527,42.5625 147.0594,94.1376 226.6781,130.2504 62.8718,30.3709 127.6148,64.2307 170.498,121.2509 41.5501,45.2078 78.4604,97.6649 133.8047,127.2246 75.1811,32.6461 169.0318,2.3245 215.8672,-63.6328 56.3925,-73.7977 103.8779,-155.8153 174.6822,-217.3591 92.2902,-89.3204 179.558,-185.0856 284.5365,-260.0472 14.7449,-15.9599 40.9254,-16.2934 52.6719,-35.6523 3.6516,-8.0637 -3.9517,-17.2676 -12.5937,-14.6543 z"
         style="fill:#fffd98;fill-opacity:1;stroke:none;stroke-width:1px;stroke-linecap:butt;stroke-linejoin:miter;stroke-opacity:1;filter:url(#filter843)" />
    </g>
    <g
       id="g1004"
       transform="matrix(0.15028939,-0.00156601,0.05098198,0.1020365,7.8497743,245.55275)">
      <path
         style="opacity:1;fill:url(#radialGradient824);fill-opacity:1;fill-rule:nonzero;stroke:url(#linearGradient830);stroke-width:3;stroke-linecap:round;stroke-linejoin:miter;stroke-miterlimit:4;stroke-dasharray:none;stroke-dashoffset:0;stroke-opacity:1"
         stroke-miterlimit="4"
         sodipodi:nodetypes="sscccccccccssssczcsss"
         inkscape:connector-curvature="0"
         id="ellipse4140"
         d="m 250.80836,130.55139 c 0,13.41663 -3.0882,26.74667 -9.35028,39.09726 -15.52463,30.61881 -35.34695,41.52873 -50.24441,47.94139 34.43734,-64.04936 1.22747,-89.83714 -26.00174,-44.83147 -2.53268,-4.39825 -3.89161,-6.13741 -5.86837,-10.48241 -4.82405,3.86395 -8.3199,6.08027 -15.86976,8.6892 -5.44051,10.13372 -13.8254,39.20685 -16.09149,45.51179 -6.15905,-15.93731 -10.76794,-29.54727 -17.06742,-44.97084 -6.26018,-2.10586 -9.31962,-3.72425 -15.235304,-8.3073 -1.843937,3.11309 -3.974275,6.02653 -6.141305,10.06793 C 54.617592,124.04483 36.226407,161.23532 64.146731,216.96707 37.703271,206.93606 22.354494,183.15335 14.487647,169.64865 7.6563366,157.92166 5.1373671,143.96802 5.1373671,130.55139 c 0,-13.41665 3.1771994,-26.70189 9.3502799,-39.097202 6.173084,-12.395382 15.221034,-23.658045 26.627398,-33.145049 11.406364,-9.486977 25.580535,-16.5378 40.483628,-21.672104 -31.160212,40.338353 3.778216,74.246725 47.555297,71.768565 43.77709,-2.47816 67.26976,-34.693549 42.02833,-73.034478 14.90309,5.134304 32.24202,13.45104 43.64838,22.938017 11.40629,9.487004 20.45432,20.749667 26.6274,33.145049 6.17301,12.395312 9.35028,25.680552 9.35028,39.097202 z" />
      <path
         sodipodi:nodetypes="cccccccccccccccccc"
         inkscape:connector-curvature="0"
         id="path4162"
         d="m 136.55485,21.636875 c -5.63004,0.657807 -2.92847,21.008296 -4.36181,31.585418 -2.06975,-2.684739 -5.09985,-3.832778 -9.17489,-3.308995 v 0.03 c -3.03159,0.06183 -5.37202,1.2303 -7.06774,3.429896 -1.43335,-10.577226 1.26822,-30.927716 -4.36182,-31.585523 -3.93772,7.307236 -4.60906,18.534182 -6.76829,27.975684 l -2.25617,35.345563 c -1.9809,8.02662 -2.966079,16.252432 -6.768301,23.914732 l -11.43094,6.76829 c -7.397993,1.6402 -16.549648,0.43069 -21.056874,6.76829 16.866357,14.53816 37.609075,21.32373 62.476795,19.85917 23.3533,0.66952 42.96501,-6.14415 59.05094,-20.0095 -4.50734,-6.3376 -13.659,-5.12817 -21.05698,-6.76839 l -11.43095,-6.7684 c -3.80222,-7.6623 -4.7874,-15.888112 -6.76829,-23.914732 l -3.30899,-35.195123 c -2.15923,-9.441529 -1.77765,-20.818883 -5.71547,-28.126093 z"
         style="fill:#000000;fill-opacity:1;fill-rule:evenodd;stroke:#000000;stroke-width:0.007;stroke-linecap:butt;stroke-linejoin:miter;stroke-opacity:1" />
      <path
         stroke-miterlimit="4"
         sodipodi:nodetypes="ccccccccccccccccccccc"
         inkscape:connector-curvature="0"
         id="path4167"
         d="m 112.03953,25.998706 c 2.76154,8.862852 1.73407,20.039522 2.85773,29.930895 5.2313,-2.111282 10.00539,-5.274329 19.10175,1.504088 l 2.70732,-18.95123 -2.85773,10.378029 c -0.20752,-8.140602 -0.82315,-16.319975 0.75198,-24.817123 3.43342,12.804947 6.80452,25.634941 6.31715,40.00821 l -2.70732,-2.857742 c 0.79119,5.339841 2.60516,10.906925 0,15.49193 l -0.30083,5.865895 c -4.78196,1.47635 -8.35152,3.43767 -11.13011,5.71546 l -1.05283,-4.96339 -1.05292,2.70733 -2.55691,-0.75209 -0.75198,2.85774 -10.97969,-4.81298 -0.60168,-4.361806 4.66265,1.504086 c -3.17274,-3.387836 -3.23442,-9.204393 -2.40658,-15.792771 -1.2287,2.537618 -3.29834,4.888927 -3.00805,9.325193 -2.24083,-15.790505 -1.1684,-31.788138 3.00805,-47.979724 z"
         style="fill:#ffffff;fill-opacity:1;fill-rule:evenodd;stroke:none;stroke-width:22.29899979;stroke-linecap:butt;stroke-linejoin:miter;stroke-miterlimit:4;stroke-dasharray:none;stroke-opacity:1" />
      <path
         sodipodi:nodetypes="ccccc"
         inkscape:connector-curvature="0"
         id="path4169"
         d="m 111.98754,86.403088 c 1.9254,1.19012 3.93133,1.89792 5.95058,2.52557 0.57472,0.12027 0.41099,0.64471 -0.0767,0.67072 -2.90727,0.1735 -4.64731,-0.74709 -6.04699,-1.98689 -0.61382,-0.62691 -0.34368,-1.31509 0.17277,-1.2094 z"
         style="fill:#ffffff;fill-opacity:1;fill-rule:evenodd;stroke:none;stroke-width:3.37899995;stroke-linecap:butt;stroke-linejoin:miter;stroke-opacity:1" />
      <path
         d="m 135.81981,86.154008 c -1.92551,1.19004 -3.93144,1.89792 -5.95059,2.52559 -0.57482,0.12028 -0.41109,0.64471 0.0767,0.6707 2.90727,0.17349 4.64731,-0.7472 6.04709,-1.98686 0.61371,-0.62702 0.34356,-1.31509 -0.17277,-1.20943 z"
         id="path4171"
         inkscape:connector-curvature="0"
         sodipodi:nodetypes="ccccc"
         style="fill:#ffffff;fill-opacity:1;fill-rule:evenodd;stroke:none;stroke-width:3.37899995;stroke-linecap:butt;stroke-linejoin:miter;stroke-opacity:1" />
      <path
         sodipodi:nodetypes="ccccccc"
         inkscape:connector-curvature="0"
         id="path4173"
         d="m 123.34967,92.157418 c 0.0395,-0.47744 1.11653,-0.54489 0.96089,-0.0352 l 0.14232,7.366461 c -0.0138,0.856491 -0.36775,0.965461 -0.85404,0.782891 l -1.42354,-1.352281 c -0.32322,-0.29069 -0.72835,-0.91583 -0.53383,-1.74377 z"
         style="fill:#ffffff;fill-opacity:1;fill-rule:evenodd;stroke:none;stroke-width:3.37899995;stroke-linecap:butt;stroke-linejoin:miter;stroke-opacity:1" />
      <path
         sodipodi:nodetypes="ccccccccccccccsccccccccccccc"
         inkscape:connector-curvature="0"
         id="path4175"
         d="m 105.01205,100.11352 c 0.0522,-1.006271 1.51292,-1.323831 1.43686,0.16906 l -0.4226,4.22611 c 1.16979,0.93212 0.78117,1.60464 -0.0842,2.19756 -2.04524,3.88405 -7.867774,4.34266 -8.198653,7.09982 2.235397,1.54766 5.359893,-0.12392 5.409423,3.71903 1.55414,1.37614 3.6535,2.60078 1.2678,5.0714 -1.95534,1.57748 -4.539298,2.52632 -5.866113,4.73231 2.546993,-0.97037 5.094093,-0.90091 7.641083,-1.35141 -2.06377,3.02028 -6.550336,4.21565 -8.240519,7.90835 4.232599,-1.37708 8.927519,-5.22779 12.635679,-4.61204 1.43388,-0.37809 2.94115,0.35209 1.09884,1.2679 -11.04947,5.09282 -21.158497,11.67937 -28.399564,22.82098 -0.639601,0.18889 -0.56716,-0.33437 -0.4226,-0.92977 0,0 1.436857,-6.50815 0.845196,-6.50815 -0.591659,0 -6.170137,5.40942 -6.170137,5.40942 l -0.422601,-0.16906 c 1.699983,-3.8769 4.072694,-8.35921 3.634437,-10.31176 -2.64734,3.1673 -5.44638,4.51531 -8.198653,6.42377 0.844987,-1.49949 0.915931,-2.34416 -1.18332,-1.35237 21.269715,-26.6655 1.49161,-11.75874 -9.551036,-0.76074 -0.300291,-5.02887 -0.685296,-8.44739 -1.098734,-11.326 -1.086487,0.6004 -1.820576,2.25819 -2.704761,3.46548 0.799922,-4.94176 3.334237,-9.99195 5.916597,-15.04504 4.164953,-4.53512 9.235605,-3.93805 14.030669,-4.90233 3.452164,-1.67548 6.97422,-3.28108 10.988,-4.39515 5.207758,-1.09119 10.373437,-3.44409 15.467537,-7.94511 z"
         style="fill:#ffffff;fill-opacity:1;fill-rule:evenodd;stroke:none;stroke-width:3.37899995;stroke-linecap:butt;stroke-linejoin:miter;stroke-opacity:1" />
      <path
         d="m 146.48662,100.11352 c -0.0522,-1.006271 -1.51292,-1.323831 -1.43686,0.16906 l 0.4226,4.22611 c -1.16979,0.93212 -0.78107,1.60464 0.0842,2.19756 2.04534,3.88405 7.86778,4.34266 8.19875,7.09982 -2.2355,1.54766 -5.35987,-0.12392 -5.40952,3.71903 -1.55414,1.37614 -3.6535,2.60078 -1.26779,5.0714 1.95544,1.57748 4.53929,2.52632 5.86621,4.73231 -2.5471,-0.97037 -5.09409,-0.90091 -7.64119,-1.35141 2.06378,3.02028 6.55034,4.21565 8.24052,7.90835 -4.2326,-1.37708 -8.92742,-5.22779 -12.63568,-4.61204 -1.43388,-0.37809 -2.94115,0.35209 -1.09874,1.2679 11.04947,5.09282 21.1585,11.67937 28.39947,22.82098 0.6396,0.18889 0.56726,-0.33437 0.4226,-0.92977 0,0 -1.43686,-6.50815 -0.8452,-6.50815 0.59166,0 6.17013,5.40942 6.17013,5.40942 l 0.4226,-0.16906 c -1.69998,-3.8769 -4.0727,-8.35921 -3.63444,-10.31176 2.64735,3.1673 5.44639,4.51531 8.19866,6.42377 -0.84488,-1.49949 -0.91593,-2.34416 1.18332,-1.35237 -21.26972,-26.6655 -1.49161,-11.75874 9.55104,-0.76074 0.30029,-5.02887 0.6853,-8.44739 1.09884,-11.326 1.08648,0.6004 1.82046,2.25819 2.70466,3.46548 -0.79994,-4.94176 -3.33426,-9.99195 -5.91662,-15.04504 -4.16495,-4.53514 -9.2356,-3.93805 -14.03066,-4.90233 -3.45217,-1.67548 -6.97422,-3.28108 -10.9879,-4.39515 -5.20775,-1.09119 -10.37354,-3.44409 -15.46763,-7.94514 z"
         id="path4177"
         inkscape:connector-curvature="0"
         sodipodi:nodetypes="ccccccccccccccsccccccccccccc"
         style="fill:#ffffff;fill-opacity:1;fill-rule:evenodd;stroke:none;stroke-width:3.37899995;stroke-linecap:butt;stroke-linejoin:miter;stroke-opacity:1" />
      <path
         stroke-miterlimit="4"
         sodipodi:nodetypes="ccccccccccccccccc"
         inkscape:connector-curvature="0"
         id="path4179"
         d="m 105.18111,135.27478 c 1.15285,-0.54074 2.15135,-1.62264 3.45046,-0.11636 3.07538,2.95511 4.67874,7.14712 10.49573,7.21636 0.82826,-0.58037 1.59101,-1.22636 1.35239,-2.87384 0.20428,-0.63638 0.10697,-1.43737 1.94403,-1.1832 l 3.19117,0.24211 c 0.86843,-0.33192 1.54136,-0.31191 1.63788,0.74571 l 0.88078,1.80694 c 5.51403,2.03596 9.27757,-2.2793 13.47673,-6.5985 0.63309,-0.93713 1.79511,-0.99902 2.66715,-0.0104 6.9103,3.93432 12.20786,9.34693 17.28011,14.96611 -10.04565,-1.72684 -15.21932,1.70478 -14.70691,11.15695 -9.22027,-1.69369 -16.42884,-0.3477 -19.62417,7.8456 -1.1912,0.47354 -2.3187,1.13805 -3.95754,0.26855 -3.96723,-6.28454 -9.41201,-9.48795 -17.86623,-7.72703 -2.0331,-6.87824 -5.09558,-12.68746 -15.097554,-11.29034 4.137355,-5.5805 8.590569,-10.86761 14.875974,-14.45337 z"
         style="fill:#dadada;fill-opacity:1;fill-rule:evenodd;stroke:none;stroke-width:130.41000366;stroke-linecap:butt;stroke-linejoin:miter;stroke-miterlimit:4;stroke-dasharray:none;stroke-opacity:1" />
    </g>
    <path
       style="opacity:1;fill:#ffffff;fill-opacity:0.19444445;fill-rule:evenodd;stroke:none;stroke-width:0.56997705;stroke-linecap:round;stroke-linejoin:round;stroke-miterlimit:4;stroke-dasharray:none;stroke-dashoffset:0;stroke-opacity:1;paint-order:normal"
       d="m 17.270773,239.18256 12.140966,-0.006 21.300022,43.48882 -0.377546,4.9507 -13.016221,0.70917 0.658665,-5.17091 z"
       id="rect929"
       inkscape:connector-curvature="0"
       sodipodi:nodetypes="ccccccc" />
  </g>
</svg>
