<?xml version="1.0" encoding="UTF-8" standalone="no"?>
<!-- Created with Inkscape (http://www.inkscape.org/) -->

<svg
   xmlns:dc="http://purl.org/dc/elements/1.1/"
   xmlns:cc="http://creativecommons.org/ns#"
   xmlns:rdf="http://www.w3.org/1999/02/22-rdf-syntax-ns#"
   xmlns:svg="http://www.w3.org/2000/svg"
   xmlns="http://www.w3.org/2000/svg"
   xmlns:xlink="http://www.w3.org/1999/xlink"
   xmlns:sodipodi="http://sodipodi.sourceforge.net/DTD/sodipodi-0.dtd"
   xmlns:inkscape="http://www.inkscape.org/namespaces/inkscape"
   id="svg2474"
   sodipodi:version="0.32"
   inkscape:version="0.91 r13725"
   width="256"
   height="256"
   sodipodi:docname="control-center.svg"
   inkscape:output_extension="org.inkscape.output.svg.inkscape"
   version="1.1">
  <sodipodi:namedview
     inkscape:window-height="1056"
     inkscape:window-width="1920"
     inkscape:pageshadow="2"
     inkscape:pageopacity="0"
     guidetolerance="10.0"
     gridtolerance="10.0"
     objecttolerance="10.0"
     borderopacity="1.0"
     bordercolor="#666666"
     pagecolor="#ffffff"
     id="base"
     showgrid="false"
     inkscape:zoom="3.2890625"
     inkscape:cx="128"
     inkscape:cy="128.30404"
     inkscape:window-x="0"
     inkscape:window-y="0"
     inkscape:current-layer="svg2474"
     inkscape:window-maximized="1" />
  <metadata
     id="metadata2479">
    <rdf:RDF>
      <cc:Work>
        <dc:format>image/svg+xml</dc:format>
        <dc:type
           rdf:resource="http://purl.org/dc/dcmitype/StillImage" />
        <dc:title />
      </cc:Work>
    </rdf:RDF>
  </metadata>
  <defs
     id="defs2477">
    <linearGradient
       inkscape:collect="always"
       id="linearGradient5232">
      <stop
         id="stop5234"
         stop-color="#000000"
         stop-opacity="1" />
      <stop
         offset="1"
         id="stop5236"
         stop-color="#9b9b9b"
         stop-opacity="1" />
    </linearGradient>
    <linearGradient
       inkscape:collect="always"
       id="linearGradient4723">
      <stop
         id="stop4725"
         stop-color="#ffffff"
         stop-opacity="1" />
      <stop
         offset="1"
         id="stop4727"
         stop-color="#5c5c5c"
         stop-opacity="1" />
    </linearGradient>
    <linearGradient
       id="linearGradient3570">
      <stop
         id="stop3572"
         stop-color="#000000"
         stop-opacity="1" />
      <stop
         offset="1"
         id="stop3574"
         stop-color="#ffffff"
         stop-opacity="1" />
    </linearGradient>
    <linearGradient
       inkscape:collect="always"
       xlink:href="#linearGradient4723"
       id="linearGradient3946"
       gradientUnits="userSpaceOnUse"
       x1="282.34"
       y1="232.94"
       x2="317.22"
       y2="-118.91"
       gradientTransform="matrix(-0.452325,0,0,0.452325,234.66001,81.652075)" />
    <linearGradient
       inkscape:collect="always"
       xlink:href="#linearGradient3570"
       id="linearGradient4109"
       gradientUnits="userSpaceOnUse"
       gradientTransform="matrix(-0.2890882,-0.9573024,0.9573024,-0.2890882,255.41844,732.69789)"
       spreadMethod="reflect"
       x1="332.28"
       y1="316.6"
       x2="328.06"
       y2="274.88" />
    <linearGradient
       inkscape:collect="always"
       xlink:href="#linearGradient3570"
       id="linearGradient4117"
       gradientUnits="userSpaceOnUse"
       gradientTransform="matrix(-0.2890882,-0.9573024,0.9573024,-0.2890882,255.41844,732.69789)"
       spreadMethod="reflect"
       x1="301.6"
       y1="306.71"
       x2="294.23"
       y2="298.34" />
    <linearGradient
       inkscape:collect="always"
       xlink:href="#linearGradient3570"
       id="linearGradient4119"
       gradientUnits="userSpaceOnUse"
       gradientTransform="matrix(-0.2890882,-0.9573024,0.9573024,-0.2890882,193.29646,630.24274)"
       spreadMethod="reflect"
       x1="430.97"
       y1="285.68"
       x2="442.41"
       y2="298.4" />
    <linearGradient
       inkscape:collect="always"
       xlink:href="#linearGradient3570"
       id="linearGradient4126"
       gradientUnits="userSpaceOnUse"
       gradientTransform="matrix(0.11616743,-0.38468314,-0.38468314,-0.11616743,147.8828,397.02706)"
       x1="295"
       y1="302.51"
       x2="495.45"
       y2="307.18" />
    <linearGradient
       inkscape:collect="always"
       xlink:href="#linearGradient3570"
       id="linearGradient4315"
       gradientUnits="userSpaceOnUse"
       gradientTransform="matrix(-0.40184078,0,0,0.40184078,318.31461,91.972294)"
       spreadMethod="reflect"
       x1="332.28"
       y1="316.6"
       x2="328.06"
       y2="274.88" />
    <linearGradient
       inkscape:collect="always"
       xlink:href="#linearGradient3570"
       id="linearGradient4324"
       gradientUnits="userSpaceOnUse"
       gradientTransform="matrix(-0.40184078,0,0,0.40184078,318.31461,91.972296)"
       spreadMethod="reflect"
       x1="328.96"
       y1="311.67"
       x2="345.53"
       y2="283.92" />
    <linearGradient
       inkscape:collect="always"
       xlink:href="#linearGradient3570"
       id="linearGradient4326"
       gradientUnits="userSpaceOnUse"
       gradientTransform="matrix(-0.40184078,0,0,0.40184078,318.31461,91.972294)"
       spreadMethod="reflect"
       x1="510.29"
       y1="271.16"
       x2="501.55"
       y2="283.02" />
    <linearGradient
       inkscape:collect="always"
       xlink:href="#linearGradient3570"
       id="linearGradient4328"
       gradientUnits="userSpaceOnUse"
       gradientTransform="matrix(-0.40184078,0,0,0.40184078,300.91478,102.04293)"
       spreadMethod="reflect"
       x1="332.28"
       y1="316.6"
       x2="328.06"
       y2="274.88" />
    <linearGradient
       inkscape:collect="always"
       xlink:href="#linearGradient3570"
       id="linearGradient4330"
       gradientUnits="userSpaceOnUse"
       gradientTransform="matrix(-0.40184078,0,0,0.40184078,275.83197,140.713)"
       spreadMethod="reflect"
       x1="306.36"
       y1="238.16"
       x2="321.29"
       y2="213.42" />
    <linearGradient
       inkscape:collect="always"
       xlink:href="#linearGradient3570"
       id="linearGradient4332"
       gradientUnits="userSpaceOnUse"
       gradientTransform="matrix(-0.40184078,0,0,0.40184078,275.61506,140.88436)"
       spreadMethod="reflect"
       x1="306.36"
       y1="238.16"
       x2="321.29"
       y2="213.42" />
    <linearGradient
       inkscape:collect="always"
       xlink:href="#linearGradient3570"
       id="linearGradient4334"
       gradientUnits="userSpaceOnUse"
       gradientTransform="matrix(-0.40184078,0,0,0.40184078,275.48925,140.88436)"
       spreadMethod="reflect"
       x1="306.36"
       y1="238.16"
       x2="321.29"
       y2="213.42" />
    <linearGradient
       inkscape:collect="always"
       xlink:href="#linearGradient3570"
       id="linearGradient4340"
       gradientUnits="userSpaceOnUse"
       gradientTransform="matrix(-0.40184078,0,0,0.40184078,275.48925,140.88436)"
       spreadMethod="reflect"
       x1="340.48"
       y1="194.66"
       x2="331.74"
       y2="208.73" />
    <linearGradient
       inkscape:collect="always"
       xlink:href="#linearGradient3570"
       id="linearGradient4342"
       gradientUnits="userSpaceOnUse"
       gradientTransform="matrix(-0.40184078,0,0,0.40184078,266.23848,122.01169)"
       x1="332.28"
       y1="316.6"
       x2="328.8"
       y2="239.05" />
    <linearGradient
       inkscape:collect="always"
       xlink:href="#linearGradient3570"
       id="linearGradient4344"
       gradientUnits="userSpaceOnUse"
       gradientTransform="matrix(-0.40184078,0,0,0.40184078,251.05964,97.96487)"
       spreadMethod="reflect"
       x1="332.28"
       y1="316.6"
       x2="328.06"
       y2="274.88" />
    <linearGradient
       inkscape:collect="always"
       xlink:href="#linearGradient3570"
       id="linearGradient4346"
       gradientUnits="userSpaceOnUse"
       gradientTransform="matrix(-0.40184078,0,0,0.40184078,250.94677,98.077747)"
       spreadMethod="reflect"
       x1="332.28"
       y1="316.6"
       x2="328.06"
       y2="274.88" />
    <linearGradient
       inkscape:collect="always"
       xlink:href="#linearGradient3570"
       id="linearGradient4352"
       gradientUnits="userSpaceOnUse"
       gradientTransform="matrix(-0.40184078,0,0,0.40184078,250.94677,98.077747)"
       spreadMethod="reflect"
       x1="328.34"
       y1="309.15"
       x2="344.35"
       y2="283.95" />
    <linearGradient
       inkscape:collect="always"
       xlink:href="#linearGradient3570"
       id="linearGradient4354"
       gradientUnits="userSpaceOnUse"
       gradientTransform="matrix(-0.40184078,0,0,0.40184078,250.94677,98.077747)"
       spreadMethod="reflect"
       x1="399.41"
       y1="289.35"
       x2="391.26"
       y2="301.57" />
    <linearGradient
       inkscape:collect="always"
       xlink:href="#linearGradient3570"
       id="linearGradient4356"
       gradientUnits="userSpaceOnUse"
       gradientTransform="matrix(-0.40184078,0,0,0.40184078,233.52067,108.0362)"
       x1="332.28"
       y1="316.6"
       x2="329.05"
       y2="254.37" />
    <linearGradient
       id="linearGradient3288">
      <stop
         id="stop3290"
         stop-color="#211414"
         stop-opacity="1" />
      <stop
         offset="1"
         id="stop3292"
         stop-color="#c5b9b9"
         stop-opacity="1" />
    </linearGradient>
    <linearGradient
       id="linearGradient2760"
       inkscape:collect="always">
      <stop
         id="stop2762"
         stop-color="#6a6a6a"
         stop-opacity="1" />
      <stop
         id="stop2764"
         offset="1"
         stop-color="black"
         stop-opacity="1" />
    </linearGradient>
    <linearGradient
       inkscape:collect="always"
       id="linearGradient2813">
      <stop
         id="stop2815"
         stop-color="white"
         stop-opacity="1" />
      <stop
         offset="1"
         id="stop2817"
         stop-color="black"
         stop-opacity="1" />
    </linearGradient>
    <linearGradient
       inkscape:collect="always"
       xlink:href="#linearGradient3342"
       id="linearGradient3727"
       gradientUnits="userSpaceOnUse"
       gradientTransform="matrix(0.8438312,0.5366087,0.5366087,-0.8438312,-193.92252,664.65004)"
       x1="1421.64"
       y1="785.45"
       x2="1421.03"
       y2="792.28" />
    <linearGradient
       inkscape:collect="always"
       xlink:href="#linearGradient3342"
       id="linearGradient3725"
       gradientUnits="userSpaceOnUse"
       x1="1421.25"
       y1="794.9"
       x2="1424.71"
       y2="784.52" />
    <linearGradient
       inkscape:collect="always"
       xlink:href="#linearGradient2813"
       id="linearGradient3723"
       gradientUnits="userSpaceOnUse"
       gradientTransform="translate(2038.173,-163.18477)"
       x1="-618.45"
       y1="949.62"
       x2="-611.64"
       y2="937.48" />
    <linearGradient
       inkscape:collect="always"
       xlink:href="#linearGradient3324"
       id="linearGradient3721"
       gradientUnits="userSpaceOnUse"
       gradientTransform="translate(2038.173,-163.18477)"
       x1="-607.44"
       y1="952.95"
       x2="-604.05"
       y2="942.05" />
    <linearGradient
       inkscape:collect="always"
       xlink:href="#linearGradient3312"
       id="linearGradient3719"
       gradientUnits="userSpaceOnUse"
       x1="1050.25"
       y1="631.68"
       x2="1037.11"
       y2="669.57" />
    <linearGradient
       inkscape:collect="always"
       xlink:href="#linearGradient3302"
       id="linearGradient3717"
       gradientUnits="userSpaceOnUse"
       gradientTransform="matrix(0.3141751,-0.9493651,0.9493651,0.3141751,116.6289,1510)"
       spreadMethod="reflect"
       x1="1099.71"
       y1="684.5"
       x2="1114.37"
       y2="684.5" />
    <linearGradient
       inkscape:collect="always"
       xlink:href="#linearGradient3294"
       id="linearGradient3715"
       gradientUnits="userSpaceOnUse"
       spreadMethod="reflect"
       x1="753.58"
       y1="539.44"
       x2="746.9"
       y2="578.29" />
    <linearGradient
       inkscape:collect="always"
       xlink:href="#linearGradient3266"
       id="linearGradient3711"
       gradientUnits="userSpaceOnUse"
       x1="592.67"
       y1="542.14"
       x2="648.34"
       y2="557.6" />
    <linearGradient
       inkscape:collect="always"
       xlink:href="#linearGradient2760"
       id="linearGradient3709"
       gradientUnits="userSpaceOnUse"
       x1="594.86"
       y1="472.82"
       x2="665.42"
       y2="506.57" />
    <linearGradient
       id="linearGradient3266"
       inkscape:collect="always">
      <stop
         id="stop3268"
         stop-color="#0c5590"
         stop-opacity="1" />
      <stop
         id="stop3270"
         offset="1"
         stop-color="#265379"
         stop-opacity="0.13" />
    </linearGradient>
    <linearGradient
       inkscape:collect="always"
       id="linearGradient3294">
      <stop
         id="stop3296"
         stop-color="#b5c9da"
         stop-opacity="1" />
      <stop
         offset="1"
         id="stop3298"
         stop-color="#014c8b"
         stop-opacity="1" />
    </linearGradient>
    <linearGradient
       inkscape:collect="always"
       id="linearGradient3302">
      <stop
         id="stop3304"
         stop-color="#2c2255"
         stop-opacity="1" />
      <stop
         offset="1"
         id="stop3306"
         stop-color="#aeabbd"
         stop-opacity="1" />
    </linearGradient>
    <linearGradient
       inkscape:collect="always"
       id="linearGradient3312">
      <stop
         id="stop3314"
         stop-color="#ffffff"
         stop-opacity="1" />
      <stop
         offset="1"
         id="stop3316"
         stop-color="#3e307b"
         stop-opacity="1" />
    </linearGradient>
    <linearGradient
       inkscape:collect="always"
       id="linearGradient3324">
      <stop
         id="stop3326"
         stop-color="#ffffff"
         stop-opacity="1" />
      <stop
         offset="1"
         id="stop3328"
         stop-color="#1d446e"
         stop-opacity="1" />
    </linearGradient>
    <linearGradient
       inkscape:collect="always"
       id="linearGradient3342">
      <stop
         id="stop3344"
         stop-color="#6d8caf"
         stop-opacity="1" />
      <stop
         offset="1"
         id="stop3346"
         stop-color="#000915"
         stop-opacity="1" />
    </linearGradient>
    <linearGradient
       gradientUnits="userSpaceOnUse"
       y2="384.77"
       x2="1068.59"
       y1="384.77"
       x1="990.28"
       gradientTransform="scale(0.7073752,1.4136769)"
       id="linearGradient3159"
       xlink:href="#linearGradient3288"
       inkscape:collect="always" />
    <linearGradient
       inkscape:collect="always"
       xlink:href="#linearGradient5232"
       id="linearGradient5238"
       x1="73.38"
       y1="132.23"
       x2="131.73"
       y2="58.04"
       gradientUnits="userSpaceOnUse" />
  </defs>
  <g
     id="g4291"
     transform="translate(2.9339853,-2.4449878)">
    <path
       inkscape:connector-curvature="0"
       d="m 117.79732,201.83628 c -1.75234,1.01171 -3.00907,2.82031 -3.23834,4.99537 l -17.400217,10.04602 c 0.22927,-2.17506 1.486003,-3.98366 3.238337,-4.99537 l 17.40022,-10.04602 z"
       id="path4480"
       fill="url(#linearGradient4315)"
       fill-rule="evenodd"
       stroke="none"
       fill-opacity="1" />
    <path
       inkscape:connector-curvature="0"
       d="m 114.55898,206.83165 c -0.38076,3.61221 2.22073,6.82676 5.83294,7.20752 l -17.40022,10.04602 c -3.612208,-0.38076 -6.213697,-3.59531 -5.832937,-7.20752 l 17.400217,-10.04602 z"
       id="path4482"
       fill="url(#linearGradient4315)"
       fill-rule="evenodd"
       stroke="none"
       fill-opacity="1" />
    <path
       inkscape:connector-curvature="0"
       d="m 120.39192,214.03917 66.64135,5.09453 -17.40021,10.04602 -66.64136,-5.09453 17.40022,-10.04602 z"
       id="path4484"
       fill="url(#linearGradient4315)"
       fill-rule="evenodd"
       stroke="none"
       fill-opacity="1" />
    <path
       inkscape:connector-curvature="0"
       d="m 187.03327,219.1337 c 1.43715,0.15149 2.81135,-0.16908 3.96918,-0.83756 l -17.40021,10.04602 c -1.15784,0.66848 -2.53204,0.98905 -3.96918,0.83756 l 17.40021,-10.04602 z"
       id="path4486"
       fill="url(#linearGradient4315)"
       fill-rule="evenodd"
       stroke="none"
       fill-opacity="1" />
    <path
       inkscape:connector-curvature="0"
       d="m 188.41284,206.0879 c 3.6122,0.38076 6.20745,3.59581 5.82669,7.20802 -0.22927,2.17506 -1.48751,3.98618 -3.23984,4.99789 l -17.39217,10.04602 c 1.75233,-1.01171 2.99801,-2.82283 3.22728,-4.99789 0.38076,-3.61221 -2.21449,-6.82726 -5.82669,-7.20802 l 17.40473,-10.04602 z"
       id="path4488"
       fill="url(#linearGradient4324)"
       fill-rule="evenodd"
       stroke="none"
       fill-opacity="1" />
    <path
       inkscape:connector-curvature="0"
       d="m 121.7665,200.99872 c -1.43715,-0.15149 -2.81135,0.16909 -3.96918,0.83756 L 100.3971,211.8823 c 1.15783,-0.66847 2.53203,-0.98905 3.96918,-0.83756 l 17.40022,-10.04602 z"
       id="path4478"
       fill="url(#linearGradient4326)"
       fill-rule="evenodd"
       stroke="none"
       fill-opacity="1" />
    <path
       sodipodi:nodetypes="ccsccsc"
       d="m 171.00802,216.16389 -66.64136,-5.09453 c -3.6122,-0.38076 -6.826752,2.22072 -7.207512,5.83293 -0.38076,3.6122 2.220729,6.82676 5.832932,7.20752 l 66.64136,5.09453 c 3.61221,0.38076 6.82676,-2.22073 7.20752,-5.83293 0.38076,-3.61221 -2.22073,-6.82676 -5.83294,-7.20752 z"
       id="path3633"
       inkscape:connector-curvature="0"
       fill="url(#linearGradient4328)"
       fill-rule="evenodd"
       stroke="none"
       fill-opacity="1" />
    <path
       d="m 151.40766,214.97899 c -1.75233,1.01171 -3.00907,2.82031 -3.23834,4.99537 l -34.80043,20.09204 c 0.22927,-2.17506 1.48601,-3.98366 3.23834,-4.99537 l 34.80043,-20.09204 z"
       id="path2762"
       inkscape:connector-curvature="0"
       fill="url(#linearGradient4330)"
       fill-rule="evenodd"
       stroke="none"
       fill-opacity="1" />
    <path
       d="m 147.95241,220.14573 c -0.38076,3.6122 2.22073,6.82675 5.83294,7.20751 l -34.80043,20.09204 c -3.61221,-0.38076 -6.2137,-3.59531 -5.83294,-7.20752 l 34.80043,-20.09203 z"
       id="path2764"
       inkscape:connector-curvature="0"
       fill="url(#linearGradient4332)"
       fill-rule="evenodd"
       stroke="none"
       fill-opacity="1" />
    <path
       d="m 153.65954,227.35324 15.98506,1.68497 -34.80043,20.09204 -15.98507,-1.68497 34.80044,-20.09204 z"
       id="path2766"
       inkscape:connector-curvature="0"
       fill="url(#linearGradient4334)"
       fill-rule="evenodd"
       stroke="none"
       fill-opacity="1" />
    <path
       d="m 169.6446,229.03821 c 1.43714,0.15149 2.81135,-0.16908 3.96918,-0.83756 l -34.80043,20.09204 c -1.15784,0.66848 -2.53204,0.98905 -3.96918,0.83756 l 34.80043,-20.09204 z"
       id="path2768"
       inkscape:connector-curvature="0"
       fill="url(#linearGradient4334)"
       fill-rule="evenodd"
       stroke="none"
       fill-opacity="1" />
    <path
       d="m 171.02519,215.9929 c 3.61221,0.38076 6.20745,3.59581 5.82669,7.20802 -0.22927,2.17506 -1.4875,3.98618 -3.23984,4.99789 l -34.7969,20.09204 c 1.75234,-1.01171 3.01058,-2.82284 3.23984,-4.9979 0.38076,-3.6122 -2.22703,-6.82726 -5.83925,-7.20801 l 34.80946,-20.09204 z"
       id="path2770"
       inkscape:connector-curvature="0"
       fill="url(#linearGradient4334)"
       fill-rule="evenodd"
       stroke="none"
       fill-opacity="1" />
    <path
       d="m 155.03412,214.31279 c -1.43715,-0.15149 -2.81135,0.16909 -3.96918,0.83756 l -34.80043,20.09204 c 1.15783,-0.66847 2.53203,-0.98905 3.96917,-0.83756 l 34.80044,-20.09204 z"
       id="path2760"
       inkscape:connector-curvature="0"
       fill="url(#linearGradient4340)"
       fill-rule="evenodd"
       stroke="none"
       fill-opacity="1" />
    <path
       inkscape:connector-curvature="0"
       id="rect2485"
       d="m 136.33172,236.13265 -15.98506,-1.68498 c -3.61221,-0.38076 -6.82676,2.22073 -7.20752,5.83294 -0.38076,3.6122 2.22073,6.82676 5.83294,7.20752 l 15.98506,1.68497 c 3.61221,0.38076 6.82676,-2.22073 7.20752,-5.83294 0.38076,-3.6122 -2.22073,-6.82675 -5.83294,-7.20751 z"
       fill="url(#linearGradient4342)"
       fill-rule="evenodd"
       stroke="none"
       fill-opacity="1" />
    <path
       inkscape:connector-curvature="0"
       d="m 101.19865,211.23841 c -1.752335,1.01171 -3.009072,2.82031 -3.238342,4.99538 l -17.400216,10.04602 c 0.22927,-2.17507 1.486007,-3.98367 3.238342,-4.99538 l 17.400216,-10.04602 z"
       id="path3886"
       fill="url(#linearGradient4344)"
       fill-rule="evenodd"
       stroke="none"
       fill-opacity="1" />
    <path
       inkscape:connector-curvature="0"
       d="m 97.847431,216.34666 c -0.380761,3.61221 2.220729,6.82676 5.832939,7.20752 L 86.28015,233.6002 c -3.612207,-0.38076 -6.213696,-3.59531 -5.832936,-7.20752 l 17.400217,-10.04602 z"
       id="path3888"
       fill="url(#linearGradient4346)"
       fill-rule="evenodd"
       stroke="none"
       fill-opacity="1" />
    <path
       inkscape:connector-curvature="0"
       d="m 103.68037,223.55418 15.98506,1.68497 -17.40021,10.04602 -15.98507,-1.68497 17.40022,-10.04602 z"
       id="path3890"
       fill="url(#linearGradient4346)"
       fill-rule="evenodd"
       stroke="none"
       fill-opacity="1" />
    <path
       inkscape:connector-curvature="0"
       d="m 119.66543,225.23915 c 1.43715,0.15149 2.81135,-0.16909 3.96918,-0.83756 l -17.40022,10.04602 c -1.15783,0.66847 -2.53203,0.98905 -3.96917,0.83756 l 17.40021,-10.04602 z"
       id="path3892"
       fill="url(#linearGradient4346)"
       fill-rule="evenodd"
       stroke="none"
       fill-opacity="1" />
    <path
       inkscape:connector-curvature="0"
       d="m 121.04313,212.20403 c 3.6122,0.38076 6.20745,3.59582 5.82669,7.20802 -0.22927,2.17506 -1.48751,3.97362 -3.23984,4.98534 l -17.39217,10.04602 c 1.75233,-1.01171 3.01057,-2.81027 3.23984,-4.98534 0.38076,-3.61221 -2.22704,-6.82726 -5.83925,-7.20802 l 17.40473,-10.04602 z"
       id="path3894"
       fill="url(#linearGradient4352)"
       fill-rule="evenodd"
       stroke="none"
       fill-opacity="1" />
    <path
       inkscape:connector-curvature="0"
       d="m 105.05495,210.51373 c -1.43715,-0.15149 -2.81135,0.16908 -3.96918,0.83756 l -17.400213,10.04602 c 1.157832,-0.66848 2.532031,-0.98905 3.969174,-0.83756 l 17.400219,-10.04602 z"
       id="path3884"
       fill="url(#linearGradient4354)"
       fill-rule="evenodd"
       stroke="none"
       fill-opacity="1" />
    <path
       id="path3805"
       d="m 103.61392,222.15715 -15.985063,-1.68497 c -3.612207,-0.38076 -6.826757,2.22073 -7.207517,5.83294 -0.38076,3.6122 2.220729,6.82675 5.832932,7.20751 l 15.985068,1.68497 c 3.61221,0.38077 6.82676,-2.22072 7.20752,-5.83293 0.38075,-3.61221 -2.22073,-6.82676 -5.83294,-7.20752 z"
       inkscape:connector-curvature="0"
       fill="url(#linearGradient4356)"
       fill-rule="evenodd"
       stroke="none"
       fill-opacity="1" />
    <path
       id="path4476"
       d="M 121.78125,201 105.25,210.53125 105.0625,210.5 87.65625,220.5625 103.625,222.25 l 17.21875,-9.96875 33.25,2.5625 L 120,234.5 l 16.25,1.625 34.5625,-20 0.1875,0 17.40625,-10.03125 L 121.78125,201 z"
       inkscape:connector-curvature="0"
       fill="#adadad"
       fill-rule="evenodd"
       stroke="none"
       fill-opacity="1" />
  </g>
  <g
     transform="matrix(-0.40184078,0,0,0.40184078,267.7075,92.674183)"
     id="g4171"
     stroke-opacity="1"
     stroke-dasharray="none"
     fill="url(#linearGradient4109)"
     fill-rule="evenodd"
     stroke="#000000"
     stroke-linejoin="miter"
     fill-opacity="1"
     stroke-linecap="butt"
     stroke-width="0.1"
     stroke-miterlimit="4">
    <path
       inkscape:connector-curvature="0"
       id="path4179"
       d="m 411.36504,204.65043 c 2.97493,1.71758 5.43366,4.39087 6.87466,7.8154 l 43.30127,25 c -1.441,-3.42453 -3.89973,-6.09782 -6.87466,-7.8154 l -43.30127,-25 z"
       fill="url(#linearGradient4109)"
       fill-opacity="1" />
    <path
       inkscape:connector-curvature="0"
       id="path4181"
       d="m 418.2397,212.46583 45.66937,116.00029 43.30127,25 -45.66937,-116.00029 -43.30127,-25 z"
       fill="url(#linearGradient4109)"
       fill-opacity="1" />
    <path
       inkscape:connector-curvature="0"
       id="path4183"
       d="m 463.90907,328.46612 c 3.50575,8.33141 -0.37918,17.86096 -8.71059,21.36669 l 43.30127,25 c 8.33141,-3.50573 12.21634,-13.03528 8.71059,-21.36669 l -43.30127,-25 z"
       fill="url(#linearGradient4109)"
       fill-opacity="1" />
    <path
       inkscape:connector-curvature="0"
       id="path4185"
       d="m 455.19848,349.83281 c -4.90689,2.06474 -10.22937,1.56584 -14.49204,-0.89521 l 43.30127,25 c 4.26267,2.46105 9.58515,2.95995 14.49204,0.89521 l -43.30127,-25 z"
       fill="url(#linearGradient4109)"
       fill-opacity="1" />
    <path
       inkscape:connector-curvature="0"
       id="path4187"
       d="m 440.70644,348.9376 c -2.97493,-1.71758 -5.43366,-4.39087 -6.87466,-7.8154 l 43.30127,25 c 1.441,3.42453 3.89973,6.09782 6.87466,7.8154 l -43.30127,-25 z"
       fill="url(#linearGradient4117)"
       fill-opacity="1" />
    <path
       inkscape:connector-curvature="0"
       id="path4173"
       d="m 433.83178,341.1222 -45.66937,-116.00029 43.30127,25 45.66937,116.00029 -43.30127,-25 z"
       fill="#525252"
       fill-opacity="1" />
    <path
       inkscape:connector-curvature="0"
       id="path4175"
       transform="translate(62.121978,102.45515)"
       d="m 341.3125,100 c -2.18231,-0.0277 -4.41573,0.40918 -6.5625,1.3125 -8.3314,3.50574 -12.2245,13.01233 -8.71875,21.34375 l 43.3125,25 c -3.50575,-8.33142 0.38733,-17.83801 8.71875,-21.34375 4.90688,-2.06474 10.20606,-1.58605 14.46875,0.875 l -43.28125,-25 c -2.39776,-1.38434 -5.13167,-2.15189 -7.9375,-2.1875 z"
       fill="url(#linearGradient4119)"
       fill-opacity="1" />
  </g>
  <path
     inkscape:connector-curvature="0"
     sodipodi:nodetypes="ccsccsc"
     d="m 76.18904,239.67598 18.351815,-46.61365 c 1.408753,-3.3479 -0.152374,-7.17726 -3.50027,-8.58601 -3.3479,-1.40874 -7.177258,0.15238 -8.586012,3.50028 l -18.351815,46.61365 c -1.408753,3.3479 0.15237,7.17726 3.50027,8.58601 3.347905,1.40874 7.177259,-0.15238 8.586012,-3.50028 z"
     id="path4057"
     stroke-opacity="1"
     stroke-dasharray="none"
     fill="url(#linearGradient4126)"
     fill-rule="evenodd"
     stroke="#000000"
     stroke-linejoin="miter"
     fill-opacity="1"
     stroke-linecap="butt"
     stroke-width="0.04"
     stroke-miterlimit="4" />
  <path
     inkscape:connector-curvature="0"
     d="m 82.693646,196.81674 88.763334,-24.35276 c 0.67086,-0.52296 1.75819,-0.45389 1.03341,-2.33419 L 138.11156,54.407864 c -0.53213,-1.41773 -1.09719,-2.258761 -3.58148,-3.260651 L 34.558102,7.0728014 C 32.520626,6.2013882 31.238923,6.6829651 32.057685,10.618636 L 79.456623,192.77803 c 0.698756,2.47247 1.19744,4.49171 3.237023,4.03871 z"
     id="path4709"
     sodipodi:nodetypes="ccccccccc"
     stroke-opacity="1"
     fill="#464646"
     fill-rule="evenodd"
     stroke="#747474"
     stroke-linejoin="miter"
     fill-opacity="1"
     stroke-linecap="butt"
     stroke-width="0.674" />
  <path
     inkscape:connector-curvature="0"
     sodipodi:nodetypes="scccccs"
     id="path4711"
     d="m 74.975403,195.2013 c -2.419824,-1.79638 -3.28885,-3.32842 -4.12007,-5.41001 C 56.904848,130.24576 44.391308,82.124858 27.213565,13.136331 l 0.703257,-4.4480826 c 0.654935,-2.3073641 3.322101,-2.0052833 4.140863,1.9303876 L 79.456623,192.77803 c 2.874146,5.45503 -2.531276,3.87083 -4.48122,2.42327 z"
     stroke-opacity="1"
     fill="#3b3b3b"
     fill-rule="evenodd"
     stroke="#7f7f7f"
     stroke-linejoin="miter"
     fill-opacity="1"
     stroke-linecap="butt"
     stroke-width="0.674" />
  <path
     inkscape:connector-curvature="0"
     sodipodi:nodetypes="ccccccccc"
     id="path4713"
     d="m 86.283813,186.28079 78.606257,-21.56612 c 0.5941,-0.46311 1.55701,-0.40194 0.91516,-2.06708 L 135.36033,60.167572 c -0.47124,-1.255501 -0.97164,-2.000294 -3.17166,-2.887539 L 43.656357,18.249001 c -1.804329,-0.771698 -2.939366,-0.345228 -2.214294,3.14009 L 83.417199,182.70422 c 0.618799,2.18955 1.060417,3.97773 2.866614,3.57657 z"
     stroke-opacity="1"
     stroke-dasharray="none"
     fill="url(#linearGradient5238)"
     fill-rule="evenodd"
     stroke="url(#linearGradient3946)"
     stroke-linejoin="miter"
     fill-opacity="1"
     stroke-linecap="butt"
     stroke-width="1.357"
     stroke-miterlimit="4" />
  <path
     inkscape:connector-curvature="0"
     d="M 31.11376,7.4572731 80.39693,196.48862"
     id="path4731"
     stroke-opacity="1"
     stroke-dasharray="none"
     fill="none"
     stroke="#888888"
     stroke-linejoin="miter"
     stroke-linecap="round"
     stroke-width="2.262"
     stroke-miterlimit="4" />
  <g
     id="g5205"
     transform="matrix(-0.79794741,0,0,0.79794741,243.09085,45.310317)">
    <g
       transform="translate(292.48736,2.354023)"
       id="g4492"
       fill="#000000"
       fill-opacity="0.093">
      <path
         d="m -289.04107,219.22101 c -0.6934,1.52213 -0.94772,3.25611 0.0405,5.58687 2.10695,6.43265 6.49346,10.52116 10.98745,14.49199 6.07041,3.19662 11.07981,2.58089 15.58301,0.12808 l 26.0656,-18.30943 c 1.63818,-1.38577 3.18399,-3.04782 4.56379,-5.1707 l 45.427,-55.71391 c 4.32617,-6.13367 9.84499,-6.75692 15.48187,-6.82504 l 7.08862,-9.47866 -0.99282,-4.15627 1.09413,-1.31708 -1.16984,-3.78815 3.54795,-4.5034 c -0.0119,-0.0469 -0.0263,-0.0928 -0.0387,-0.13948 l 0.0388,-0.0493 c -0.02,-0.006 -0.0383,-0.0145 -0.0582,-0.0204 -0.12129,-0.44724 -0.25825,-0.88781 -0.42526,-1.31496 -0.39692,-1.34121 -1.05356,-2.62441 -1.90115,-3.82254 l 95.967231,-97.758689 -0.2663,-1.472711 7.94168,-9.44616 0.0265,-0.05521 0.0388,-0.0493 0.36962,-0.910058 2.10718,-4.931841 -1.36839,-1.4587514 -6.53422,2.7803484 -7.67535,9.143637 -0.4939,-0.433886 -95.344271,99.652191 c -1.10343,-0.71968 -2.26969,-1.33428 -3.44455,-1.82256 -0.39332,-0.23446 -0.79058,-0.45847 -1.1951,-0.688 l -0.21052,0.17071 c -0.0216,-0.007 -0.0427,-0.0164 -0.0643,-0.0234 0.007,0.0197 0.0179,0.0378 0.0252,0.0575 l -0.0842,0.0652 c -0.0263,-0.0638 -0.0561,-0.12663 -0.0821,-0.19057 l -1.32564,1.31151 -2.74918,2.19824 -5.21919,-1.58814 -2.39689,1.15143 -1.12279,-0.53991 -9.59652,8.96012 c 0.46812,6.43907 -4.04151,10.48972 -9.25438,13.96684 l -58.42277,43.48182 c -1.31434,1.29746 -2.59845,2.53513 -4.37769,4.79939 l -18.5406,24.68521 c -0.692,1.11045 -1.50094,2.16355 -2.04025,3.34742 z"
         id="path3673"
         inkscape:connector-curvature="0"
         stroke-dasharray="none"
         stroke-opacity="1"
         fill="#000000"
         fill-rule="evenodd"
         stroke="none"
         stroke-linejoin="miter"
         fill-opacity="0.093"
         stroke-linecap="butt"
         stroke-width="0"
         stroke-miterlimit="4" />
      <path
         d="m -65.058594,11.423213 c -2.659725,3.167783 -5.31774,6.337005 -7.978515,9.503906 -2.478553,0.06252 -4.7539,4.762741 -7.160037,6.477553 -29.548144,30.883855 -59.096874,61.767146 -88.644654,92.651348 -2.15966,-1.07496 -4.83955,-3.84559 -6.5721,-1.04323 -2.4226,4.2856 -6.3746,-0.9547 -9.44914,1.18919 -3.07428,-0.26283 -5.00126,3.30888 -7.53617,5.23112 -2.00651,1.62425 -3.89529,3.14103 -3.5461,5.88464 -1.67068,8.40828 -10.83431,11.76332 -16.59677,16.86958 -17.32714,13.05416 -34.98554,25.72296 -52.10636,39.01714 -8.03194,9.1088 -14.74321,19.33086 -22.18322,28.92376 -2.52498,2.66413 -2.75773,6.50347 -0.96131,9.6153 2.56613,5.51751 6.88795,10.65414 12.21875,13.42969 6.10297,2.83205 13.04451,-0.018 17.73982,-4.29454 7.7056,-5.80271 16.2444,-10.6154 23.40862,-17.06484 16.42432,-20.47907 33.08951,-40.81391 49.7539,-61.0957 3.49013,-3.55848 8.67603,-4.53983 13.47461,-4.49219 2.03109,-3.23632 5.40934,-6.19453 6.60639,-9.60304 -1.73952,-3.27417 1.15801,-5.45755 -0.94623,-8.66649 1.27336,-2.16016 4.7145,-3.98537 2.82227,-6.68945 -1.84821,-2.45579 -1.67955,-4.23401 1.10011,-6.02599 31.07666,-31.655397 62.153311,-63.310796 93.229964,-94.966195 -0.410369,-3.464394 4.127686,-5.615468 5.709587,-8.551026 2.408591,-2.096504 3.171174,-5.197293 4.446663,-7.9919427 -1.56286,-1.8821432 -4.763469,1.4182137 -6.830078,1.6914067 z"
         id="path4460"
         inkscape:connector-curvature="0"
         stroke-dasharray="none"
         stroke-opacity="1"
         fill="#000000"
         fill-rule="evenodd"
         stroke="none"
         stroke-linejoin="miter"
         fill-opacity="0.093"
         stroke-linecap="butt"
         stroke-width="0"
         stroke-miterlimit="4" />
      <path
         d="m -59.901675,9.4674659 c -3.080794,1.0842691 -6.163555,2.4263231 -7.831461,5.4314801 -2.372276,2.370662 -3.870182,5.822531 -7.047445,6.998207 -16.468879,17.579072 -33.471559,34.945001 -50.102959,52.478577 -14.71188,15.37683 -29.42291,30.75448 -44.13532,46.1308 -1.89288,-0.836 -4.99824,-4.09509 -6.43945,-1.05469 -2.07658,3.34859 -5.83542,0.21905 -8.66211,0.61524 -2.74643,0.35434 -5.02292,2.09828 -6.78321,4.28711 -2.39256,2.01465 -5.36593,4.05406 -4.9375,7.61328 -2.49862,8.6715 -11.94061,11.9191 -18.07708,17.48576 -16.95122,12.84282 -34.39366,25.09435 -51.00525,38.35053 -8.28362,9.6922 -15.5558,20.23656 -23.11884,30.45668 -2.0858,5.64102 2.6195,10.8607 5.89009,14.98125 4.07355,5.05663 11.11571,7.96589 17.18023,5.00312 5.99858,-2.79488 10.62968,-7.78854 16.37569,-11.06208 7.18042,-4.72897 14.26844,-9.79742 19.08372,-17.09481 14.85892,-18.31887 29.6502,-36.72387 44.83355,-54.76108 3.50307,-3.05818 8.32981,-4.00606 12.86133,-3.99414 1.93448,-3.10286 5.06614,-5.59828 6.23047,-9.07617 -1.46719,-2.74545 1.16583,-6.07548 -0.95508,-8.60156 1.30329,-2.23705 5.27342,-4.59493 2.40625,-7.29102 -2.11201,-2.89933 1.00574,-5.54202 3.10087,-7.16531 30.55241,-31.190694 61.30704,-62.305703 91.733115,-93.543674 0.261604,-4.143787 4.670566,-6.208204 6.697265,-9.4375 1.481622,-1.871561 2.934616,-4.762216 3.107422,-6.7285158 -0.1322,-0.031187 -0.269608,-0.031552 -0.404297,-0.021484 z"
         id="path4468"
         inkscape:connector-curvature="0"
         stroke-dasharray="none"
         stroke-opacity="1"
         fill="#000000"
         fill-rule="evenodd"
         stroke="none"
         stroke-linejoin="miter"
         fill-opacity="0.093"
         stroke-linecap="butt"
         stroke-width="0"
         stroke-miterlimit="4" />
      <path
         d="m -61.122378,10.151059 c -6.476068,1.561064 -7.941507,9.284132 -13.605469,11.958985 -31.356063,33.063392 -63.006783,65.854667 -94.457023,98.833986 -1.93167,-0.68157 -4.91346,-4.2531 -6.30079,-1.11328 -2.89478,3.74266 -7.63067,-1.17351 -11.1289,1.20312 -3.08231,1.82963 -5.5126,4.58452 -7.98633,7.08008 -1.51896,2.32888 -0.70303,5.3791 -2.67383,7.58399 -4.6632,6.99564 -12.89808,10.2075 -18.97087,15.74649 -16.38576,12.52757 -33.59306,24.11083 -49.32879,37.41835 -7.94018,9.54617 -15.24634,19.66979 -22.36245,29.79805 -1.45171,6.26407 3.89522,11.30977 7.56641,15.64453 4.6984,4.84675 12.70454,5.64899 18.04101,1.35351 6.24654,-4.5073 12.44925,-9.05441 18.91237,-13.25412 9.40713,-6.10453 14.99964,-15.91733 22.2093,-24.17669 12.12877,-14.78562 23.93824,-29.89466 36.55802,-44.23325 3.4649,-2.91667 8.41297,-3.16064 12.41797,-3.86914 1.73808,-2.86496 5.12277,-5.15115 5.54883,-8.50781 -1.02367,-2.67571 1.32895,-5.93894 -0.88867,-8.22852 1.21968,-2.26021 5.39127,-4.73699 2.4375,-7.29101 -2.30859,-3.97646 2.83151,-6.94404 5.08125,-9.34981 29.91846,-30.651648 60.278647,-61.031875 89.901165,-91.865039 1.005686,-5.304496 7.020148,-7.545415 8.761719,-12.560546 0.08108,-0.474268 1.578382,-2.9275764 0.267578,-2.171876 z"
         id="path4472"
         inkscape:connector-curvature="0"
         stroke-dasharray="none"
         stroke-opacity="1"
         fill="#000000"
         fill-rule="evenodd"
         stroke="none"
         stroke-linejoin="miter"
         fill-opacity="0.093"
         stroke-linecap="butt"
         stroke-width="0"
         stroke-miterlimit="4" />
      <path
         d="m -62.398384,10.880859 c -5.967543,2.119594 -7.7055,9.385908 -13.260951,12.149801 -31.299925,32.9906 -62.872035,65.721021 -94.260535,98.62754 -1.94607,-0.35219 -4.53001,-4.19587 -5.99023,-1.4414 -3.22133,4.27689 -8.84007,-1.58777 -12.37891,2.04297 -3.44997,2.89948 -7.91645,5.84016 -7.97461,10.83203 -2.78642,7.59503 -10.8353,11.35979 -16.9082,15.92968 -17.47565,14.09652 -36.84209,26.16895 -53.62487,41.19529 -7.58105,9.38375 -14.99618,19.06429 -21.55091,29.14261 -0.74343,6.70483 5.07961,11.8284 9.35742,16.08984 5.27462,3.8921 12.76932,2.8027 17.37147,-1.68243 7.67112,-6.13956 16.60971,-10.6332 23.75571,-17.41 8.15962,-8.80073 15.01217,-18.71934 22.86559,-27.795 9.83338,-11.93172 19.25437,-24.28625 29.79238,-35.57741 3.4375,-2.64185 8.20583,-2.44505 11.94922,-3.74024 1.84541,-2.84734 5.86134,-5.36587 4.81836,-9.19922 -0.0402,-2.18017 1.22289,-4.91416 -0.76172,-6.58984 0.94509,-2.27715 5.39705,-4.57032 2.65039,-7.07813 -2.38576,-4.23233 2.56532,-7.54617 5.18555,-10.05078 29.89621,-30.612783 60.12664,-60.895997 89.779299,-91.736326 1.189224,-5.653954 8.087122,-8.297608 9.185547,-13.708985 z"
         id="path4476-3"
         inkscape:connector-curvature="0"
         stroke-dasharray="none"
         stroke-opacity="1"
         fill="#000000"
         fill-rule="evenodd"
         stroke="none"
         stroke-linejoin="miter"
         fill-opacity="0.093"
         stroke-linecap="butt"
         stroke-width="0"
         stroke-miterlimit="4" />
    </g>
    <g
       transform="matrix(0.09441024,-0.1963334,0.1963334,0.09441024,-64.579131,219.6985)"
       id="g3354">
      <path
         inkscape:connector-curvature="0"
         d="m 153.28399,251.5543 139.00288,27.61016 c 12.90617,2.85622 20.58031,5.71245 28.56223,8.56867 l 296.09516,155.18814 c 24.75394,14.64772 50.45995,25.21828 76.16596,10.47282 l 56.1724,21.89771 0,5.71245 9.52074,7.61659 3.8083,24.75394 23.80186,11.4249 c -2.15563,31.70161 -8.73915,59.60787 -28.56223,76.16595 l -25.70601,-5.71244 -13.32905,12.37697 -7.61659,-1.90415 -15.23319,12.37696 -53.31618,-10.47281 c -11.49495,-23.18318 -25.04893,-44.7649 -59.02861,-50.45995 l -320.8491,-77.11804 c -11.52676,-1.48493 -21.47495,-4.54842 -30.46639,-8.56867 L 104.72819,400.07792 C 85.62336,386.32826 73.113585,366.80793 74.26181,335.33685 c 7.486884,-26.48975 15.66359,-52.74956 38.08298,-74.26181 13.6464,-15.51033 27.2928,-11.01491 40.9392,-9.52074 z"
         id="path2468"
         sodipodi:nodetypes="ccccccccccccccccccccccc"
         stroke-opacity="1"
         fill="#014c8b"
         fill-rule="evenodd"
         stroke="none"
         stroke-linejoin="miter"
         fill-opacity="1"
         stroke-linecap="butt"
         stroke-width="1" />
      <path
         inkscape:connector-curvature="0"
         d="m 143.60465,259.51163 c -23.69223,-1.87424 -36.87263,27.92601 -25,40.11628 l 145.34884,58.72093 14.53488,7.55814 327.90698,128.48837 35.46512,-30.23256 L 325,300.2093 305.81395,294.97674 143.60465,259.51163 Z"
         id="path3242"
         sodipodi:nodetypes="ccccccccc"
         stroke-opacity="1"
         fill="#9fc4e3"
         fill-rule="evenodd"
         stroke="none"
         stroke-linejoin="miter"
         fill-opacity="0.237"
         stroke-linecap="butt"
         stroke-width="1" />
      <path
         inkscape:connector-curvature="0"
         d="m 104.65116,325.2093 134.30233,61.04651 16.27907,5.23256 345.93023,126.74419 -3.48837,35.46511 L 256.97674,469.97674 228.48837,458.93023 95.930233,387.4186 C 74.599452,359.818 77.920735,323.54665 104.65116,325.2093 Z"
         id="path3244"
         sodipodi:nodetypes="ccccccccc"
         stroke-opacity="1"
         fill="#2b6da5"
         fill-rule="evenodd"
         stroke="none"
         stroke-linejoin="miter"
         fill-opacity="0.237"
         stroke-linecap="butt"
         stroke-width="1" />
      <path
         inkscape:connector-curvature="0"
         d="m 642.27455,463.94111 c 15.46763,4.05645 29.06456,2.96692 47.84173,-5.59227 -16.64701,12.82088 -23.11677,22.95884 -28.48837,36.6279 -20.15065,5.68925 -38.05884,4.6511 -54.37511,-1.16279 l 35.02175,-29.87284 z"
         id="path3246"
         sodipodi:nodetypes="ccccc"
         stroke-opacity="1"
         fill="url(#linearGradient3709)"
         fill-rule="evenodd"
         stroke="none"
         stroke-linejoin="miter"
         fill-opacity="1"
         stroke-linecap="butt"
         stroke-width="1" />
      <path
         inkscape:connector-curvature="0"
         d="m 600.71942,518.21583 c 20.65271,2.57886 36.05998,11.45225 47.12231,25.53957 l -1.07914,53.23741 c -10.7389,-21.05298 -25.74079,-37.18712 -48.92086,-43.8849 l 2.87769,-34.89208 z"
         id="path3256"
         sodipodi:nodetypes="ccccc"
         stroke-opacity="1"
         fill="url(#linearGradient3711)"
         fill-rule="evenodd"
         stroke="none"
         stroke-linejoin="miter"
         fill-opacity="1"
         stroke-linecap="butt"
         stroke-width="1" />
      <path
         inkscape:connector-curvature="0"
         d="m 691.0072,458.50359 c -23.16538,17.78823 -30.50903,34.96793 -28.77698,51.79857 l 42.08633,16.54676 c 11.0154,-12.73468 22.20269,-30.2628 25.58393,-47.76883 l -38.89328,-20.5765 z"
         id="path3272"
         sodipodi:nodetypes="ccccc"
         stroke-opacity="1"
         fill="#b5c9da"
         fill-rule="evenodd"
         stroke="none"
         stroke-linejoin="miter"
         fill-opacity="0.13"
         stroke-linecap="butt"
         stroke-width="1" />
      <path
         inkscape:connector-curvature="0"
         d="m 660.07194,513.89928 c -3.23741,5.03597 -11.51079,25.53957 -11.51079,25.53957 l 42.80576,17.26619 10.07194,-24.82015 -41.36691,-17.98561 z"
         id="path3274"
         stroke-opacity="1"
         fill="#b5c9da"
         fill-rule="evenodd"
         stroke="none"
         stroke-linejoin="miter"
         fill-opacity="0.13"
         stroke-linecap="butt"
         stroke-width="1" />
      <path
         inkscape:connector-curvature="0"
         d="m 651.43885,544.11511 42.44604,17.6259 -5.39568,45.32374 -40.28777,-7.55396 3.23741,-55.39568 z"
         id="path3276"
         stroke-opacity="1"
         fill="none"
         fill-rule="evenodd"
         stroke="none"
         stroke-linejoin="miter"
         stroke-linecap="butt"
         stroke-width="1" />
      <path
         inkscape:connector-curvature="0"
         d="m 755.39568,492.31655 -13.30935,-3.23741 c -34.28489,33.98229 -41.99838,70.83717 -41.00719,108.63309 l 15.82733,1.07914 c -7.40825,-42.60225 10.56545,-76.28652 38.48921,-106.47482 z"
         id="path3280"
         sodipodi:nodetypes="ccccc"
         stroke-opacity="1"
         fill="url(#linearGradient3159)"
         fill-rule="evenodd"
         stroke="#000000"
         stroke-linejoin="miter"
         fill-opacity="1"
         stroke-linecap="butt"
         stroke-width="1" />
      <path
         inkscape:connector-curvature="0"
         d="m 756.47482,492.31655 c -24.89291,6.03304 -56.31442,96.43174 -38.48921,106.1151 17.72359,0.91021 52.98303,-103.77769 38.48921,-106.1151 z"
         id="path3278"
         sodipodi:nodetypes="ccc"
         stroke-opacity="1"
         fill="#20547d"
         fill-rule="evenodd"
         stroke="#000000"
         stroke-linejoin="miter"
         fill-opacity="1"
         stroke-linecap="butt"
         stroke-width="1" />
      <path
         inkscape:connector-curvature="0"
         d="M 785.2518,523.2518 747.84173,509.94245 C 731.3267,532.9799 721.21777,559.2204 721.94245,590.8777 l 36.69064,9.71223 c -5.67878,-35.09246 8.58258,-57.42322 26.61871,-77.33813 z"
         id="path3292"
         sodipodi:nodetypes="ccccc"
         stroke-opacity="1"
         fill="url(#linearGradient3715)"
         fill-rule="evenodd"
         stroke="#000000"
         stroke-linejoin="miter"
         fill-opacity="1"
         stroke-linecap="butt"
         stroke-width="1" />
      <path
         inkscape:connector-curvature="0"
         d="m 651.98238,549.01322 -2.64317,51.54185 39.20705,8.81057 0.88105,-46.69604 -37.44493,-13.65638 z"
         id="path3310"
         stroke-opacity="1"
         fill="#254b6a"
         fill-rule="evenodd"
         stroke="none"
         stroke-linejoin="miter"
         fill-opacity="1"
         stroke-linecap="butt"
         stroke-width="1" />
      <path
         inkscape:connector-curvature="0"
         d="m 785.2518,523.97122 c -19.3327,19.8986 -30.74666,44.273 -28.05756,76.61871 22.56341,-14.71714 31.83257,-49.15472 28.05756,-76.61871 z"
         id="path3290"
         sodipodi:nodetypes="ccc"
         stroke-opacity="1"
         fill="#6694bc"
         fill-rule="evenodd"
         stroke="#000000"
         stroke-linejoin="miter"
         fill-opacity="1"
         stroke-linecap="butt"
         stroke-width="1" />
      <path
         inkscape:connector-curvature="0"
         d="m 776.2674,546.10921 610.9017,199.08662 -0.8399,2.89123 53.1147,13.58227 24.48,21.49805 -3.2971,8.55036 -29.6656,1.3127 -54.8587,-14.05419 -5.5594,4.02837 -605.45379,-205.96903 c -2.51215,-12.18157 2.02676,-23.07041 11.17809,-30.92638 z"
         id="path3240"
         sodipodi:nodetypes="ccccccccccc"
         stroke-opacity="1"
         fill="url(#linearGradient3717)"
         fill-rule="evenodd"
         stroke="url(#linearGradient3719)"
         stroke-linejoin="miter"
         fill-opacity="1"
         stroke-linecap="butt"
         stroke-width="1" />
      <path
         inkscape:connector-curvature="0"
         d="M 748.01762,482.05286 C 704.17668,507.58918 682.03102,590.6514 703.0837,610.2467"
         id="path3320"
         sodipodi:nodetypes="cc"
         stroke-opacity="1"
         fill="#000000"
         fill-rule="evenodd"
         stroke="#1a2b40"
         stroke-linejoin="miter"
         fill-opacity="0"
         stroke-linecap="butt"
         stroke-width="1" />
      <path
         inkscape:connector-curvature="0"
         d="m 1414.4736,760.36436 c -12.2978,0.71015 -20.0716,8.7031 -8.0925,17.91908 l 31.7919,10.98266 23.6994,-2.31214 -22.5433,-17.34104 -24.8555,-9.24856 z"
         id="path3322"
         sodipodi:nodetypes="cccccc"
         stroke-opacity="1"
         fill="url(#linearGradient3721)"
         fill-rule="evenodd"
         stroke="url(#linearGradient3723)"
         stroke-linejoin="miter"
         fill-opacity="1"
         stroke-linecap="butt"
         stroke-width="1" />
      <path
         inkscape:connector-curvature="0"
         d="m 1403.3256,781.18335 31.1799,9.85836 14.6729,0.91706 -17.6533,1.14632 -35.536,-9.85836 7.3365,-2.06338 z"
         id="path3340"
         stroke-dasharray="none"
         stroke-opacity="1"
         fill="url(#linearGradient3725)"
         fill-rule="evenodd"
         stroke="#253240"
         stroke-linejoin="miter"
         fill-opacity="1"
         stroke-linecap="butt"
         stroke-width="0.6"
         stroke-miterlimit="4" />
      <path
         inkscape:connector-curvature="0"
         id="path3350"
         d="m 1410.7513,757.84284 29.1039,10.38385 12.8735,7.62541 -13.8871,-12.67423 -34.3565,-9.56744 c 0.5236,1.92117 1.2648,3.00015 6.2662,4.23241 z"
         sodipodi:nodetypes="cccccc"
         stroke-dasharray="none"
         stroke-opacity="1"
         fill="url(#linearGradient3727)"
         fill-rule="evenodd"
         stroke="#253240"
         stroke-linejoin="miter"
         fill-opacity="1"
         stroke-linecap="butt"
         stroke-width="0.6"
         stroke-miterlimit="4" />
    </g>
  </g>
  <g
     font-size="7.5"
     font-variant="normal"
     letter-spacing="0"
     font-stretch="normal"
     font-weight="bold"
     line-height="125%"
     word-spacing="0"
     font-style="normal"
     transform="translate(65.428196,-42.048765)"
     id="text4330"
     style="font-style:normal;font-variant:normal;font-weight:bold;font-stretch:normal;font-size:7.5px;line-height:125%;font-family:STIX;letter-spacing:0;word-spacing:0;fill:#000000;fill-opacity:1;stroke:none;stroke-width:1;stroke-linecap:butt;stroke-linejoin:miter;stroke-opacity:1">
    <path
       inkscape:connector-curvature="0"
       id="path4335"
       d="m -56.13327,39.467617 0,-0.1875 c -0.3075,0 -0.4425,-0.165 -0.825,-1.0725 l -1.665,-3.915 -0.21,0 -1.6575,4.0875 c -0.285,0.705 -0.3975,0.84 -0.7425,0.9 l 0,0.1875 1.515,0 0,-0.1875 c -0.4425,-0.03 -0.6075,-0.1125 -0.6075,-0.3075 0,-0.18 0.1425,-0.495 0.2325,-0.7275 l 0.0975,-0.255 1.6875,0 c 0.255,0.5925 0.345,0.855 0.345,1.02 0,0.165 -0.0975,0.225 -0.345,0.2475 l -0.24,0.0225 0,0.1875 2.415,0 z m -2.2875,-1.77 -1.4625,0 0.705,-1.8225 0.7575,1.8225 z" />
    <path
       inkscape:connector-curvature="0"
       id="path4337"
       d="m -55.760848,34.397617 0,0.1875 c 0.525,0.045 0.63,0.15 0.63,0.735 l 0,3.2025 c 0,0.3825 -0.045,0.5925 -0.2925,0.69 -0.0825,0.0375 -0.195,0.0525 -0.3375,0.0675 l 0,0.1875 2.4975,0 0,-0.1875 c -0.5925,-0.075 -0.6525,-0.1425 -0.6525,-0.645 l 0,-1.44 c 0.99,-0.0075 1.245,-0.03 1.5675,-0.15 0.6225,-0.2325 0.9675,-0.69 0.9675,-1.29 0,-0.915 -0.765,-1.3575 -2.0175,-1.3575 l -2.3625,0 z m 1.845,0.525 c 0,-0.1725 0.1275,-0.2625 0.375,-0.2625 0.6225,0 0.87,0.345 0.87,1.1775 0,0.8325 -0.3075,1.0875 -1.245,1.095 l 0,-2.01 z" />
  </g>
</svg>
