<?xml version="1.0" encoding="UTF-8" standalone="no"?>
<!-- Created with Inkscape (http://www.inkscape.org/) -->

<svg
   xmlns:dc="http://purl.org/dc/elements/1.1/"
   xmlns:cc="http://creativecommons.org/ns#"
   xmlns:rdf="http://www.w3.org/1999/02/22-rdf-syntax-ns#"
   xmlns:svg="http://www.w3.org/2000/svg"
   xmlns="http://www.w3.org/2000/svg"
   xmlns:xlink="http://www.w3.org/1999/xlink"
   xmlns:sodipodi="http://sodipodi.sourceforge.net/DTD/sodipodi-0.dtd"
   xmlns:inkscape="http://www.inkscape.org/namespaces/inkscape"
   id="svg2324"
   sodipodi:version="0.32"
   inkscape:version="0.48.4 r9939"
   width="256"
   height="256"
   version="1.0"
   sodipodi:docname="input-tablet.svg"
   inkscape:output_extension="org.inkscape.output.svg.inkscape">
  <metadata
     id="metadata2329">
    <rdf:RDF>
      <cc:Work
         rdf:about="">
        <dc:format>image/svg+xml</dc:format>
        <dc:type
           rdf:resource="http://purl.org/dc/dcmitype/StillImage" />
      </cc:Work>
    </rdf:RDF>
  </metadata>
  <defs
     id="defs2327">
    <inkscape:perspective
       sodipodi:type="inkscape:persp3d"
       inkscape:vp_x="0 : 128 : 1"
       inkscape:vp_y="0 : 1000 : 0"
       inkscape:vp_z="256 : 128 : 1"
       inkscape:persp3d-origin="128 : 85.333333 : 1"
       id="perspective63" />
    <linearGradient
       id="linearGradient2853"
       inkscape:collect="always">
      <stop
         id="stop2855"
         offset="0"
         style="stop-color:#3a9932;stop-opacity:1" />
      <stop
         id="stop2857"
         offset="1"
         style="stop-color:#22b521;stop-opacity:1" />
    </linearGradient>
    <linearGradient
       inkscape:collect="always"
       id="linearGradient2847">
      <stop
         style="stop-color:#30a12c;stop-opacity:1"
         offset="0"
         id="stop2849" />
      <stop
         style="stop-color:#31d42e;stop-opacity:1"
         offset="1"
         id="stop2851" />
    </linearGradient>
    <linearGradient
       inkscape:collect="always"
       id="linearGradient2821">
      <stop
         style="stop-color:#993b32;stop-opacity:1"
         offset="0"
         id="stop2823" />
      <stop
         style="stop-color:#b52521;stop-opacity:1"
         offset="1"
         id="stop2825" />
    </linearGradient>
    <linearGradient
       id="linearGradient2811"
       inkscape:collect="always">
      <stop
         id="stop2813"
         offset="0"
         style="stop-color:#c33c2f;stop-opacity:1" />
      <stop
         id="stop2815"
         offset="1"
         style="stop-color:#d4332e;stop-opacity:1" />
    </linearGradient>
    <linearGradient
       inkscape:collect="always"
       id="linearGradient2793">
      <stop
         style="stop-color:#2b2a36;stop-opacity:1;"
         offset="0"
         id="stop2795" />
      <stop
         style="stop-color:#b8b7c8;stop-opacity:1"
         offset="1"
         id="stop2797" />
    </linearGradient>
    <linearGradient
       inkscape:collect="always"
       id="linearGradient3680">
      <stop
         style="stop-color:#0b0b14;stop-opacity:1;"
         offset="0"
         id="stop3682" />
      <stop
         style="stop-color:#0b0b14;stop-opacity:0;"
         offset="1"
         id="stop3684" />
    </linearGradient>
    <linearGradient
       inkscape:collect="always"
       id="linearGradient3670">
      <stop
         style="stop-color:#0b0b14;stop-opacity:1"
         offset="0"
         id="stop3672" />
      <stop
         style="stop-color:#151524;stop-opacity:0"
         offset="1"
         id="stop3674" />
    </linearGradient>
    <linearGradient
       id="linearGradient3658">
      <stop
         style="stop-color:#cccccd;stop-opacity:1;"
         offset="0"
         id="stop3660" />
      <stop
         style="stop-color:#535353;stop-opacity:1;"
         offset="1"
         id="stop3662" />
    </linearGradient>
    <linearGradient
       id="linearGradient2757">
      <stop
         style="stop-color:#16161a;stop-opacity:1;"
         offset="0"
         id="stop2759" />
      <stop
         style="stop-color:#ffffff;stop-opacity:1;"
         offset="1"
         id="stop2761" />
    </linearGradient>
    <linearGradient
       inkscape:collect="always"
       xlink:href="#linearGradient2757"
       id="linearGradient2767"
       gradientUnits="userSpaceOnUse"
       spreadMethod="reflect"
       x1="359.98441"
       y1="85.880356"
       x2="362.65164"
       y2="100.3311"
       gradientTransform="translate(-267.6315,3.585267)" />
    <linearGradient
       inkscape:collect="always"
       xlink:href="#linearGradient3658"
       id="linearGradient3664"
       x1="359.19336"
       y1="222.24423"
       x2="390.9173"
       y2="146.95195"
       gradientUnits="userSpaceOnUse"
       gradientTransform="translate(-251.3828,-45.65932)"
       spreadMethod="reflect" />
    <linearGradient
       inkscape:collect="always"
       xlink:href="#linearGradient3670"
       id="linearGradient3676"
       x1="313.20419"
       y1="156.63824"
       x2="309.20389"
       y2="143.48068"
       gradientUnits="userSpaceOnUse"
       gradientTransform="translate(-255.487,-44.63327)" />
    <linearGradient
       inkscape:collect="always"
       xlink:href="#linearGradient3680"
       id="linearGradient3686"
       x1="465.70172"
       y1="130.69629"
       x2="462.86472"
       y2="119.76431"
       gradientUnits="userSpaceOnUse"
       spreadMethod="reflect"
       gradientTransform="translate(-254.9739,-43.60721)" />
    <linearGradient
       inkscape:collect="always"
       xlink:href="#linearGradient2793"
       id="linearGradient2799"
       x1="96.758972"
       y1="96.072098"
       x2="98.188019"
       y2="103.76997"
       gradientUnits="userSpaceOnUse" />
    <linearGradient
       inkscape:collect="always"
       xlink:href="#linearGradient2811"
       id="linearGradient2809"
       x1="69.289787"
       y1="132.27808"
       x2="74.761002"
       y2="125.83485"
       gradientUnits="userSpaceOnUse"
       gradientTransform="translate(-0.155344,0.168364)" />
    <linearGradient
       inkscape:collect="always"
       xlink:href="#linearGradient2821"
       id="linearGradient2819"
       gradientUnits="userSpaceOnUse"
       x1="69.289787"
       y1="132.27808"
       x2="75.733002"
       y2="124.77965"
       gradientTransform="translate(0,1.166403)" />
    <linearGradient
       inkscape:collect="always"
       xlink:href="#linearGradient2821"
       id="linearGradient2837"
       gradientUnits="userSpaceOnUse"
       gradientTransform="translate(0,1.166403)"
       x1="69.289787"
       y1="132.27808"
       x2="75.733002"
       y2="124.77965" />
    <linearGradient
       inkscape:collect="always"
       xlink:href="#linearGradient2811"
       id="linearGradient2839"
       gradientUnits="userSpaceOnUse"
       gradientTransform="translate(-0.155344,0.168364)"
       x1="69.289787"
       y1="132.27808"
       x2="74.761002"
       y2="125.83485" />
    <linearGradient
       inkscape:collect="always"
       xlink:href="#linearGradient2847"
       id="linearGradient2842"
       gradientUnits="userSpaceOnUse"
       gradientTransform="translate(86.14036,34.59978)"
       x1="69.289787"
       y1="132.27808"
       x2="74.761002"
       y2="125.83485" />
    <linearGradient
       inkscape:collect="always"
       xlink:href="#linearGradient2853"
       id="linearGradient2845"
       gradientUnits="userSpaceOnUse"
       gradientTransform="translate(86.2957,35.59782)"
       x1="69.289787"
       y1="132.27808"
       x2="75.733002"
       y2="124.77965" />
    <linearGradient
       y2="-7.4748664"
       x2="16.093008"
       y1="-7.4748664"
       x1="13.514812"
       spreadMethod="reflect"
       gradientUnits="userSpaceOnUse"
       id="linearGradient3290"
       xlink:href="#linearGradient3578"
       inkscape:collect="always" />
    <linearGradient
       gradientTransform="matrix(0.4584837,0,0,0.4584837,12.357625,81.058821)"
       y2="50.573639"
       x2="215.89148"
       y1="113.36433"
       x1="155.81395"
       spreadMethod="reflect"
       gradientUnits="userSpaceOnUse"
       id="linearGradient3403"
       xlink:href="#linearGradient3369"
       inkscape:collect="always" />
    <linearGradient
       y2="78.617943"
       x2="-79.282944"
       y1="145.67221"
       x1="-81.182167"
       gradientUnits="userSpaceOnUse"
       id="linearGradient3397"
       xlink:href="#linearGradient3387"
       inkscape:collect="always" />
    <linearGradient
       gradientUnits="userSpaceOnUse"
       y2="78.617943"
       x2="-79.282944"
       y1="145.67221"
       x1="-81.182167"
       id="linearGradient3393"
       xlink:href="#linearGradient3387"
       inkscape:collect="always" />
    <linearGradient
       spreadMethod="reflect"
       gradientUnits="userSpaceOnUse"
       y2="50.573639"
       x2="215.89148"
       y1="113.36433"
       x1="155.81395"
       id="linearGradient3375"
       xlink:href="#linearGradient3369"
       inkscape:collect="always" />
    <linearGradient
       y2="-7.4748664"
       x2="16.093008"
       y1="-7.4748664"
       x1="13.514812"
       spreadMethod="reflect"
       gradientUnits="userSpaceOnUse"
       id="linearGradient2595"
       xlink:href="#linearGradient3578"
       inkscape:collect="always" />
    <linearGradient
       y2="-7.4748664"
       x2="16.093008"
       y1="-7.4748664"
       x1="13.514812"
       spreadMethod="reflect"
       gradientUnits="userSpaceOnUse"
       id="linearGradient2593"
       xlink:href="#linearGradient3578"
       inkscape:collect="always" />
    <linearGradient
       y2="-7.4748664"
       x2="16.093008"
       y1="-7.4748664"
       x1="13.514812"
       spreadMethod="reflect"
       gradientUnits="userSpaceOnUse"
       id="linearGradient2591"
       xlink:href="#linearGradient3578"
       inkscape:collect="always" />
    <linearGradient
       y2="-7.4748664"
       x2="16.093008"
       y1="-7.4748664"
       x1="13.514812"
       spreadMethod="reflect"
       gradientUnits="userSpaceOnUse"
       id="linearGradient2589"
       xlink:href="#linearGradient3578"
       inkscape:collect="always" />
    <linearGradient
       y2="-7.4748664"
       x2="16.093008"
       y1="-7.4748664"
       x1="13.514812"
       spreadMethod="reflect"
       gradientUnits="userSpaceOnUse"
       id="linearGradient2587"
       xlink:href="#linearGradient3578"
       inkscape:collect="always" />
    <linearGradient
       y2="-7.4748664"
       x2="16.093008"
       y1="-7.4748664"
       x1="13.514812"
       spreadMethod="reflect"
       gradientUnits="userSpaceOnUse"
       id="linearGradient2585"
       xlink:href="#linearGradient3578"
       inkscape:collect="always" />
    <linearGradient
       y2="-7.4748664"
       x2="16.093008"
       y1="-7.4748664"
       x1="13.514812"
       spreadMethod="reflect"
       gradientUnits="userSpaceOnUse"
       id="linearGradient2583"
       xlink:href="#linearGradient3578"
       inkscape:collect="always" />
    <linearGradient
       y2="-7.4748664"
       x2="16.093008"
       y1="-7.4748664"
       x1="13.514812"
       spreadMethod="reflect"
       gradientUnits="userSpaceOnUse"
       id="linearGradient2581"
       xlink:href="#linearGradient3578"
       inkscape:collect="always" />
    <linearGradient
       y2="-7.4748664"
       x2="16.093008"
       y1="-7.4748664"
       x1="13.514812"
       spreadMethod="reflect"
       gradientUnits="userSpaceOnUse"
       id="linearGradient2579"
       xlink:href="#linearGradient3578"
       inkscape:collect="always" />
    <linearGradient
       y2="-7.4748664"
       x2="16.093008"
       y1="-7.4748664"
       x1="13.514812"
       spreadMethod="reflect"
       gradientUnits="userSpaceOnUse"
       id="linearGradient2577"
       xlink:href="#linearGradient3578"
       inkscape:collect="always" />
    <linearGradient
       y2="-7.4748664"
       x2="16.093008"
       y1="-7.4748664"
       x1="13.514812"
       spreadMethod="reflect"
       gradientUnits="userSpaceOnUse"
       id="linearGradient2575"
       xlink:href="#linearGradient3578"
       inkscape:collect="always" />
    <linearGradient
       y2="-7.4748664"
       x2="16.093008"
       y1="-7.4748664"
       x1="13.514812"
       spreadMethod="reflect"
       gradientUnits="userSpaceOnUse"
       id="linearGradient2573"
       xlink:href="#linearGradient3578"
       inkscape:collect="always" />
    <linearGradient
       y2="-7.4748664"
       x2="16.093008"
       y1="-7.4748664"
       x1="13.514812"
       spreadMethod="reflect"
       gradientUnits="userSpaceOnUse"
       id="linearGradient2571"
       xlink:href="#linearGradient3578"
       inkscape:collect="always" />
    <linearGradient
       y2="-7.4748664"
       x2="16.093008"
       y1="-7.4748664"
       x1="13.514812"
       spreadMethod="reflect"
       gradientUnits="userSpaceOnUse"
       id="linearGradient2569"
       xlink:href="#linearGradient3578"
       inkscape:collect="always" />
    <linearGradient
       y2="-7.4748664"
       x2="16.093008"
       y1="-7.4748664"
       x1="13.514812"
       spreadMethod="reflect"
       gradientUnits="userSpaceOnUse"
       id="linearGradient2567"
       xlink:href="#linearGradient3578"
       inkscape:collect="always" />
    <linearGradient
       y2="-7.4748664"
       x2="16.093008"
       y1="-7.4748664"
       x1="13.514812"
       spreadMethod="reflect"
       gradientUnits="userSpaceOnUse"
       id="linearGradient2565"
       xlink:href="#linearGradient3578"
       inkscape:collect="always" />
    <linearGradient
       y2="-7.4748664"
       x2="16.093008"
       y1="-7.4748664"
       x1="13.514812"
       spreadMethod="reflect"
       gradientUnits="userSpaceOnUse"
       id="linearGradient2563"
       xlink:href="#linearGradient3578"
       inkscape:collect="always" />
    <linearGradient
       y2="-7.4748664"
       x2="16.093008"
       y1="-7.4748664"
       x1="13.514812"
       spreadMethod="reflect"
       gradientUnits="userSpaceOnUse"
       id="linearGradient2561"
       xlink:href="#linearGradient3578"
       inkscape:collect="always" />
    <linearGradient
       y2="-7.4748664"
       x2="16.093008"
       y1="-7.4748664"
       x1="13.514812"
       spreadMethod="reflect"
       gradientUnits="userSpaceOnUse"
       id="linearGradient2559"
       xlink:href="#linearGradient3578"
       inkscape:collect="always" />
    <linearGradient
       y2="-7.4748664"
       x2="16.093008"
       y1="-7.4748664"
       x1="13.514812"
       spreadMethod="reflect"
       gradientUnits="userSpaceOnUse"
       id="linearGradient2557"
       xlink:href="#linearGradient3578"
       inkscape:collect="always" />
    <linearGradient
       y2="-7.4748664"
       x2="16.093008"
       y1="-7.4748664"
       x1="13.514812"
       spreadMethod="reflect"
       gradientUnits="userSpaceOnUse"
       id="linearGradient2555"
       xlink:href="#linearGradient3578"
       inkscape:collect="always" />
    <linearGradient
       y2="-7.4748664"
       x2="16.093008"
       y1="-7.4748664"
       x1="13.514812"
       spreadMethod="reflect"
       gradientUnits="userSpaceOnUse"
       id="linearGradient2553"
       xlink:href="#linearGradient3578"
       inkscape:collect="always" />
    <linearGradient
       y2="-7.4748664"
       x2="16.093008"
       y1="-7.4748664"
       x1="13.514812"
       spreadMethod="reflect"
       gradientUnits="userSpaceOnUse"
       id="linearGradient2551"
       xlink:href="#linearGradient3578"
       inkscape:collect="always" />
    <linearGradient
       y2="-7.4748664"
       x2="16.093008"
       y1="-2.2096405"
       x1="15.650429"
       spreadMethod="reflect"
       gradientUnits="userSpaceOnUse"
       id="linearGradient3610"
       xlink:href="#linearGradient3578"
       inkscape:collect="always" />
    <linearGradient
       y2="-7.4748664"
       x2="16.093008"
       y1="-6.4087667"
       x1="10.621114"
       spreadMethod="reflect"
       gradientUnits="userSpaceOnUse"
       id="linearGradient3608"
       xlink:href="#linearGradient3578"
       inkscape:collect="always" />
    <linearGradient
       y2="-1.5134122"
       x2="9.7181683"
       y1="-5.8865957"
       x1="11.186799"
       spreadMethod="reflect"
       gradientUnits="userSpaceOnUse"
       id="linearGradient3606"
       xlink:href="#linearGradient3578"
       inkscape:collect="always" />
    <linearGradient
       y2="-4.5158963"
       x2="12.916467"
       y1="-3.7543969"
       x1="7.7709298"
       spreadMethod="reflect"
       gradientUnits="userSpaceOnUse"
       id="linearGradient3604"
       xlink:href="#linearGradient3578"
       inkscape:collect="always" />
    <linearGradient
       y2="-3.7326398"
       x2="14.93988"
       y1="-2.2749119"
       x1="17.082983"
       spreadMethod="reflect"
       gradientUnits="userSpaceOnUse"
       id="linearGradient3602"
       xlink:href="#linearGradient3578"
       inkscape:collect="always" />
    <linearGradient
       y2="-1.9920692"
       x2="17.376678"
       y1="-6.2564669"
       x1="15.58174"
       spreadMethod="reflect"
       gradientUnits="userSpaceOnUse"
       id="linearGradient3600"
       xlink:href="#linearGradient3578"
       inkscape:collect="always" />
    <linearGradient
       y2="-7.4748664"
       x2="16.093008"
       y1="-10.977764"
       x1="16.691353"
       spreadMethod="reflect"
       gradientUnits="userSpaceOnUse"
       id="linearGradient3598"
       xlink:href="#linearGradient3578"
       inkscape:collect="always" />
    <linearGradient
       y2="-11.199143"
       x2="11.132382"
       y1="-11.39115"
       x1="16.386753"
       spreadMethod="reflect"
       gradientUnits="userSpaceOnUse"
       id="linearGradient3596"
       xlink:href="#linearGradient3578"
       inkscape:collect="always" />
    <linearGradient
       y2="-2.6882975"
       x2="8.6955833"
       y1="-11.586965"
       x1="12.035328"
       spreadMethod="reflect"
       gradientUnits="userSpaceOnUse"
       id="linearGradient3594"
       xlink:href="#linearGradient3578"
       inkscape:collect="always" />
    <linearGradient
       y2="-5.7778101"
       x2="11.371711"
       y1="-10.150993"
       x1="12.905613"
       spreadMethod="reflect"
       gradientUnits="userSpaceOnUse"
       id="linearGradient3592"
       xlink:href="#linearGradient3578"
       inkscape:collect="always" />
    <linearGradient
       y2="-6.9526954"
       x2="17.74655"
       y1="-5.9083529"
       x1="16.386753"
       spreadMethod="reflect"
       gradientUnits="userSpaceOnUse"
       id="linearGradient3590"
       xlink:href="#linearGradient3578"
       inkscape:collect="always" />
    <linearGradient
       y2="-8.018795"
       x2="17.07476"
       y1="-7.4748664"
       x1="13.514812"
       spreadMethod="reflect"
       gradientUnits="userSpaceOnUse"
       id="linearGradient3588"
       xlink:href="#linearGradient3578"
       inkscape:collect="always" />
    <linearGradient
       y2="-6.5828238"
       x2="18.616835"
       y1="-5.2121248"
       x1="16.908924"
       spreadMethod="reflect"
       gradientUnits="userSpaceOnUse"
       id="linearGradient3586"
       xlink:href="#linearGradient3578"
       inkscape:collect="always" />
    <linearGradient
       spreadMethod="reflect"
       gradientUnits="userSpaceOnUse"
       y2="-7.4748664"
       x2="16.093008"
       y1="-7.4748664"
       x1="13.514812"
       id="linearGradient3584"
       xlink:href="#linearGradient3578"
       inkscape:collect="always" />
    <inkscape:perspective
       sodipodi:type="inkscape:persp3d"
       inkscape:vp_x="0 : 128 : 1"
       inkscape:vp_y="0 : 1000 : 0"
       inkscape:vp_z="256 : 128 : 1"
       inkscape:persp3d-origin="128 : 85.333333 : 1"
       id="perspective2503" />
    <linearGradient
       id="linearGradient3578">
      <stop
         id="stop3580"
         offset="0"
         style="stop-color:#000000;stop-opacity:1;" />
      <stop
         id="stop3582"
         offset="1"
         style="stop-color:#fffcfc;stop-opacity:1;" />
    </linearGradient>
    <linearGradient
       id="linearGradient3369"
       inkscape:collect="always">
      <stop
         id="stop3371"
         offset="0"
         style="stop-color:#6465df;stop-opacity:1" />
      <stop
         id="stop3373"
         offset="1"
         style="stop-color:#ffffff;stop-opacity:1" />
    </linearGradient>
    <linearGradient
       id="linearGradient3387"
       inkscape:collect="always">
      <stop
         id="stop3389"
         offset="0"
         style="stop-color:#000000;stop-opacity:1;" />
      <stop
         id="stop3391"
         offset="1"
         style="stop-color:#ffffff;stop-opacity:1" />
    </linearGradient>
    <filter
       inkscape:collect="always"
       id="filter3907">
      <feGaussianBlur
         inkscape:collect="always"
         stdDeviation="3.0937292"
         id="feGaussianBlur3909" />
    </filter>
  </defs>
  <sodipodi:namedview
     inkscape:window-height="1020"
     inkscape:window-width="1676"
     inkscape:pageshadow="2"
     inkscape:pageopacity="0.0"
     guidetolerance="10.0"
     gridtolerance="10.0"
     objecttolerance="10.0"
     borderopacity="1.0"
     bordercolor="#666666"
     pagecolor="#ffffff"
     id="base"
     inkscape:zoom="3.2890625"
     inkscape:cx="128"
     inkscape:cy="128"
     inkscape:window-x="0"
     inkscape:window-y="0"
     inkscape:current-layer="svg2324"
     showgrid="false"
     inkscape:window-maximized="0" />
  <g
     id="g3671"
     transform="translate(-2.736342,-0.304038)">
    <path
       style="fill:#000000;fill-opacity:1;fill-rule:evenodd;stroke:#000000;stroke-width:0;stroke-linecap:butt;stroke-linejoin:miter;stroke-miterlimit:4;stroke-opacity:1;stroke-dasharray:none;filter:url(#filter3907)"
       d="m 25.500446,138.42105 c -1.06188,5.48494 -5.67262,10.96987 -0.63288,16.45481 36.8569,34.01318 81.509244,61.79002 151.890594,68.98364 5.24415,-0.87367 10.10783,-2.1278 12.02467,-6.32877 l 59.49048,-113.91794 c 3.26523,-5.484946 0.87617,-10.969886 -2.53151,-16.454826 L 115.36905,39.059271 c -9.47333,-1.878804 -12.29704,2.892014 -17.087694,5.695897 l -72.78091,93.665882 z"
       id="path2789"
       sodipodi:nodetypes="ccccccccc"
       inkscape:connector-curvature="0" />
    <path
       style="opacity:0.53061224;fill:#0b0b14;fill-opacity:0.62962964;fill-rule:evenodd;stroke:#000000;stroke-width:1px;stroke-linecap:butt;stroke-linejoin:miter;stroke-opacity:1"
       d="m 166.22044,53.354709 8.20842,-8.208417 2.05211,0.513026 c 11.65939,-20.677447 28.75955,-23.67239 46.17234,-25.651303 l 3.59118,2.565131 c -19.23771,1.381709 -37.54773,4.48627 -46.68537,24.62525 l 2.05211,2.052104 -4.89216,7.805856 -10.49863,-3.701647 z"
       id="path2787"
       sodipodi:nodetypes="ccccccccc"
       inkscape:connector-curvature="0" />
    <path
       sodipodi:nodetypes="ccccccccc"
       id="path1893"
       d="m 19.76211,133.55644 c -1.06188,5.48494 -5.67262,10.96987 -0.63288,16.45481 36.8569,34.01318 81.50924,61.79002 151.89059,68.98364 5.24415,-0.87367 10.10783,-2.1278 12.02467,-6.32877 L 242.53497,98.748176 c 3.26523,-5.48494 0.87617,-10.96988 -2.53151,-16.45482 L 109.63071,34.194663 c -9.47333,-1.878804 -12.29704,2.892014 -17.08769,5.695897 l -72.78091,93.66588 z"
       style="fill:#9998a5;fill-opacity:1;fill-rule:evenodd;stroke:#000000;stroke-width:0;stroke-linecap:butt;stroke-linejoin:miter;stroke-miterlimit:4;stroke-opacity:1;stroke-dasharray:none"
       inkscape:connector-curvature="0" />
    <path
       sodipodi:nodetypes="ccccccccc"
       id="path3690"
       d="m 163.65531,51.815631 8.20842,-8.208417 2.05211,0.513026 c 11.65939,-20.677447 28.75955,-23.67239 46.17234,-25.651303 l 3.59118,2.565131 c -19.23771,1.381709 -37.54773,4.48627 -46.68537,24.62525 l 2.05211,2.052104 -4.89216,7.805856 -10.49863,-3.701647 z"
       style="fill:#0b0b14;fill-opacity:1;fill-rule:evenodd;stroke:#000000;stroke-width:1px;stroke-linecap:butt;stroke-linejoin:miter;stroke-opacity:1"
       inkscape:connector-curvature="0" />
    <path
       sodipodi:nodetypes="ccccccccc"
       id="path2769"
       d="m 17.710008,130.47828 c -1.06188,5.48494 -5.67262,10.96987 -0.63288,16.45481 36.8569,34.01318 81.50924,61.79002 151.890592,68.98364 5.24415,-0.87367 10.10783,-2.1278 12.02467,-6.32877 L 240.48287,95.670017 c 3.26523,-5.48494 0.87617,-10.96988 -2.53151,-16.45482 L 107.57861,31.116507 c -9.473332,-1.878804 -12.297042,2.892014 -17.087692,5.695897 l -72.78091,93.665876 z"
       style="fill:#bababb;fill-opacity:1;fill-rule:evenodd;stroke:#000000;stroke-width:1px;stroke-linecap:butt;stroke-linejoin:miter;stroke-opacity:1"
       inkscape:connector-curvature="0" />
    <path
       style="fill:url(#linearGradient3664);fill-opacity:1;fill-rule:evenodd;stroke:#d3d3d3;stroke-width:1px;stroke-linecap:butt;stroke-linejoin:miter;stroke-opacity:1"
       d="m 18.223034,129.96525 c -1.06188,5.48494 -5.67262,10.96987 -0.63288,16.45481 36.8569,34.01318 81.50924,61.79002 151.890586,68.98364 5.24415,-0.87367 10.10783,-2.1278 12.02467,-6.32877 L 240.99589,95.156991 c 3.26523,-5.48494 0.87617,-10.96988 -2.53151,-16.45482 L 108.09163,30.603481 c -9.473326,-1.878804 -12.297036,2.892014 -17.087686,5.695897 l -72.78091,93.665872 z"
       id="path2771"
       sodipodi:nodetypes="ccccccccc"
       inkscape:connector-curvature="0" />
    <path
       id="path3666"
       d="M 108.48481,44.88634 222.40276,88.554883 182.53148,164.50018 53.424467,113.2371 108.48481,44.88634 z"
       style="fill:#696969;fill-opacity:1;fill-rule:evenodd;stroke:#000000;stroke-width:1px;stroke-linecap:butt;stroke-linejoin:miter;stroke-opacity:1"
       inkscape:connector-curvature="0" />
    <path
       sodipodi:nodetypes="ccccccccccccccccccccccccccccccc"
       id="path2333"
       d="m 5.12267,121.41678 6.49545,-3.54297 c 9.94001,-7.89191 19.88002,-9.44275 29.82002,-12.9909 l 0.29525,-0.5905 28.34379,-6.20021 1.18099,1.18099 163.86251,-27.45804 5.90496,-1.18099 1.18099,2.06674 5.31446,-1.181 c 4.35872,2.35793 1.29493,5.77621 0.59049,8.85744 l -5.31446,2.65723 -5.31446,7.38119 -45.7634,10.03842 -9.44793,1.18099 -1.77148,-1.18099 -1.181,-2.06673 -68.49748,14.46715 -1.18099,1.18099 -3.54297,1.77149 -4.13347,0.88574 -1.77149,0 -4.72396,0 -19.48636,3.54297 -2.36198,0.29525 -1.77148,0.5905 -1.77149,0 -23.02933,4.13346 -2.36198,0 c -11.1827,-0.21812 -23.86853,1.44267 -32.18201,-2.36198 l -7.38119,-1.47624 z"
       style="fill:#dedbdb;fill-opacity:1;fill-rule:evenodd;stroke:#000000;stroke-width:1px;stroke-linecap:butt;stroke-linejoin:miter;stroke-opacity:1"
       inkscape:connector-curvature="0" />
    <path
       style="fill:url(#linearGradient2767);fill-opacity:1;fill-rule:evenodd;stroke:#414141;stroke-width:1px;stroke-linecap:butt;stroke-linejoin:miter;stroke-opacity:1"
       d="m 5.5158321,121.0236 6.4954499,-3.54297 c 9.94001,-7.89191 19.88002,-9.44275 29.82002,-12.9909 l 0.29525,-0.5905 28.34379,-6.200203 1.18099,1.18099 163.862508,-27.45804 5.90496,-1.18099 1.18099,2.06673 5.31446,-1.18099 c 4.35872,2.35792 1.29493,5.7762 0.59049,8.85743 l -5.31446,2.65723 -5.31446,7.3812 -45.7634,10.038423 -9.44793,1.18099 -1.77148,-1.18099 -1.181,-2.066733 -68.49748,14.467143 -1.18099,1.18099 -3.54297,1.77149 -4.13347,0.88574 -1.77149,0 -4.723958,0 -19.48636,3.54297 -2.36198,0.29525 -1.77148,0.5905 -1.77149,0 -23.02933,4.13346 -2.36198,0 c -11.1827,-0.21812 -23.86853,1.44267 -32.18201,-2.36198 L 5.5158321,121.0236 z"
       id="path2765"
       sodipodi:nodetypes="ccccccccccccccccccccccccccccccc"
       inkscape:connector-curvature="0" />
    <path
       sodipodi:nodetypes="ccccc"
       id="path3668"
       d="m 41.812186,104.10394 c 5.37729,4.55846 8.82453,9.31799 5.84915,20.55858 l 24.68222,-4.43014 c 2.84777,-6.96165 4.48343,-15.36219 -2.75144,-22.323847 l -27.77993,6.195407 z"
       style="fill:url(#linearGradient3676);fill-opacity:1;fill-rule:evenodd;stroke:#000000;stroke-width:1px;stroke-linecap:butt;stroke-linejoin:miter;stroke-opacity:1"
       inkscape:connector-curvature="0" />
    <path
       id="path3678"
       d="m 238.08716,72.340406 -3.1176,15.82784 -54.9178,11.03152 3.83705,3.357424 4.07687,0.23982 4.55649,-0.95926 45.32517,-10.791714 5.27595,-6.71484 5.27595,-3.35742 1.91852,-6.23521 -1.43889,-2.39816 -1.91853,0.47963 -3.35742,0.71945 -1.67871,-2.15834 -3.83705,0.95926 z"
       style="fill:url(#linearGradient3686);fill-opacity:1;fill-rule:evenodd;stroke:#000000;stroke-width:1px;stroke-linecap:butt;stroke-linejoin:miter;stroke-opacity:1"
       inkscape:connector-curvature="0" />
    <path
       id="path3688"
       d="m 13.025558,117.25697 1.57902,5.52658 -9.0004298,-0.94742 7.4214098,-4.57916 z"
       style="fill:#0b0b14;fill-opacity:1;fill-rule:evenodd;stroke:#000000;stroke-width:1px;stroke-linecap:butt;stroke-linejoin:miter;stroke-opacity:1"
       inkscape:connector-curvature="0" />
    <path
       sodipodi:nodetypes="ccccc"
       id="path2791"
       d="m 83.237855,101.61599 38.697885,-7.530938 -1.37462,3.389902 -36.937876,7.182366 -0.385389,-3.04133 z"
       style="fill:url(#linearGradient2799);fill-opacity:1;fill-rule:evenodd;stroke:#000000;stroke-width:0;stroke-linecap:butt;stroke-linejoin:miter;stroke-miterlimit:4;stroke-opacity:1;stroke-dasharray:none"
       inkscape:connector-curvature="0" />
    <g
       id="g2827">
      <path
         id="path2817"
         d="m 69.595387,125.94605 8.164822,3.49921 -3.110409,3.49921 -8.553623,-3.69361 3.49921,-3.30481 z"
         style="fill:url(#linearGradient2819);fill-opacity:1;fill-rule:evenodd;stroke:#000000;stroke-width:0;stroke-linecap:butt;stroke-linejoin:miter;stroke-miterlimit:4;stroke-opacity:1;stroke-dasharray:none"
         inkscape:connector-curvature="0" />
      <path
         style="fill:url(#linearGradient2809);fill-opacity:1;fill-rule:evenodd;stroke:#000000;stroke-width:0;stroke-linecap:butt;stroke-linejoin:miter;stroke-miterlimit:4;stroke-opacity:1;stroke-dasharray:none"
         d="m 69.440043,124.94801 8.164822,3.49921 -3.110409,3.49921 -8.553623,-3.69361 3.49921,-3.30481 z"
         id="path2801"
         inkscape:connector-curvature="0" />
    </g>
    <path
       id="path2833"
       d="m 155.89109,160.37747 8.16482,3.49921 -3.11041,3.49921 -8.55362,-3.69361 3.49921,-3.30481 z"
       style="fill:url(#linearGradient2845);fill-opacity:1;fill-rule:evenodd;stroke:#000000;stroke-width:0;stroke-linecap:butt;stroke-linejoin:miter;stroke-miterlimit:4;stroke-opacity:1;stroke-dasharray:none"
       inkscape:connector-curvature="0" />
    <path
       style="fill:url(#linearGradient2842);fill-opacity:1;fill-rule:evenodd;stroke:#000000;stroke-width:0;stroke-linecap:butt;stroke-linejoin:miter;stroke-miterlimit:4;stroke-opacity:1;stroke-dasharray:none"
       d="m 155.73574,159.37943 8.16483,3.49921 -3.11041,3.49921 -8.55363,-3.69361 3.49921,-3.30481 z"
       id="path2835"
       inkscape:connector-curvature="0" />
  </g>
  <g
     inkscape:label="1. réteg"
     id="layer1"
     transform="translate(1.4138734,-1.1115438)">
    <g
       transform="translate(-3.2850782,0.8910274)"
       id="g3612">
      <g
         style="font-size:12px;font-style:normal;font-weight:normal;fill:url(#linearGradient3290);fill-opacity:1;stroke:none;stroke-width:1px;stroke-linecap:butt;stroke-linejoin:miter;stroke-opacity:1;font-family:Bitstream Vera Sans"
         id="g2650">
        <path
           d="M 16.1875,-12.21875 L 12.09375,-12.1875 L 12.800857,-11.480393 L 16.894607,-11.511643 L 16.1875,-12.21875 z"
           id="path2652"
           style="fill:url(#linearGradient2551);fill-opacity:1" />
        <path
           d="M 12.09375,-12.1875 L 8.75,-3.4375 L 9.4571068,-2.7303932 L 12.800857,-11.480393 L 12.09375,-12.1875 z"
           id="path2654"
           style="fill:url(#linearGradient2553);fill-opacity:1" />
        <path
           d="M 14.75,-5.6875 L 15.53125,-3.46875 L 16.238357,-2.7616432 L 15.457107,-4.9803932 L 14.75,-5.6875 z"
           id="path2662"
           style="fill:url(#linearGradient2555);fill-opacity:1" />
        <path
           d="M 15.53125,-3.46875 L 15.53125,-3.4375 L 16.238357,-2.7303932 L 16.238357,-2.7616432 L 15.53125,-3.46875 z"
           id="path2664"
           style="fill:url(#linearGradient2557);fill-opacity:1" />
        <path
           d="M 17.92037,-11.519527 C 17.478803,-11.961094 16.896486,-12.233764 16.1875,-12.21875 L 16.894607,-11.511643 C 17.603593,-11.526657 18.185909,-11.253988 18.627477,-10.81242 L 17.92037,-11.519527 z"
           id="path2672"
           style="fill:url(#linearGradient2559);fill-opacity:1" />
        <path
           d="M 16.21875,-11.96875 C 16.818366,-11.965939 17.317195,-11.725944 17.700221,-11.342918 L 18.407328,-10.635811 C 18.024302,-11.018837 17.525473,-11.258832 16.925857,-11.261643 L 16.21875,-11.96875 z"
           id="path2674"
           style="fill:url(#linearGradient3598);fill-opacity:1" />
        <path
           d="M 17.700221,-11.342918 C 19.261676,-9.7814631 18.898615,-5.8429893 15.59375,-5.90625 L 16.300857,-5.1991432 C 19.605722,-5.1358825 19.968783,-9.0743563 18.407328,-10.635811 L 17.700221,-11.342918 z"
           id="path2676"
           style="fill:url(#linearGradient2561);fill-opacity:1" />
        <path
           d="M 15.59375,-5.90625 L 16.375,-3.71875 L 17.082107,-3.0116432 L 16.300857,-5.1991432 L 15.59375,-5.90625 z"
           id="path2678"
           style="fill:url(#linearGradient2563);fill-opacity:1" />
        <path
           d="M 16.375,-3.71875 L 15.71875,-3.71875 L 16.425857,-3.0116432 L 17.082107,-3.0116432 L 16.375,-3.71875 z"
           id="path2680"
           style="fill:url(#linearGradient2565);fill-opacity:1" />
        <path
           d="M 14.875,-5.96875 L 10.5625,-5.96875 L 11.269607,-5.2616432 L 15.582107,-5.2616432 L 14.875,-5.96875 z"
           id="path2684"
           style="fill:url(#linearGradient2567);fill-opacity:1" />
        <path
           d="M 10.5625,-5.96875 L 9.75,-3.75 L 10.457107,-3.0428932 L 11.269607,-5.2616432 L 10.5625,-5.96875 z"
           id="path2686"
           style="fill:url(#linearGradient2569);fill-opacity:1" />
        <path
           d="M 9.1875,-3.75 L 12.28125,-11.90625 L 12.988357,-11.199143 L 9.8946068,-3.0428932 L 9.1875,-3.75 z"
           id="path2690"
           style="fill:url(#linearGradient3594);fill-opacity:1" />
        <path
           d="M 10.8125,-5.6875 L 14.75,-5.6875 L 15.457107,-4.9803932 L 11.519607,-4.9803932 L 10.8125,-5.6875 z"
           id="path2660"
           style="fill:url(#linearGradient3608);fill-opacity:1" />
        <path
           d="M 15.71875,-3.71875 L 14.875,-5.96875 L 15.582107,-5.2616432 L 16.425857,-3.0116432 L 15.71875,-3.71875 z"
           id="path2682"
           style="fill:url(#linearGradient3610);fill-opacity:1" />
        <path
           d="M 9.75,-3.75 L 9.1875,-3.75 L 9.8946068,-3.0428932 L 10.457107,-3.0428932 L 9.75,-3.75 z"
           id="path2688"
           style="fill:url(#linearGradient2571);fill-opacity:1" />
        <path
           d="M 12.28125,-11.90625 L 16.21875,-11.96875 L 16.925857,-11.261643 L 12.988357,-11.199143 L 12.28125,-11.90625 z"
           id="path2692"
           style="fill:url(#linearGradient3596);fill-opacity:1" />
        <path
           d="M 13.59375,-11.375 L 15.4375,-6.4375 L 16.144607,-5.7303932 L 14.300857,-10.667893 L 13.59375,-11.375 z"
           id="path2694"
           style="fill:url(#linearGradient2573);fill-opacity:1" />
        <path
           d="M 17.29651,-10.694689 C 16.87154,-11.11966 16.292483,-11.392236 15.59375,-11.375 L 16.300857,-10.667893 C 16.99959,-10.685129 17.578646,-10.412554 18.003617,-9.9875826 L 17.29651,-10.694689 z"
           id="path2698"
           style="fill:url(#linearGradient2575);fill-opacity:1" />
        <path
           d="M 15.59375,-11.375 L 13.59375,-11.375 L 14.300857,-10.667893 L 16.300857,-10.667893 L 15.59375,-11.375 z"
           id="path2700"
           style="fill:url(#linearGradient2577);fill-opacity:1" />
        <path
           d="M 12.5,-11.25 L 10.71875,-6.375 L 11.425857,-5.6678932 L 13.207107,-10.542893 L 12.5,-11.25 z"
           id="path2702"
           style="fill:url(#linearGradient2579);fill-opacity:1" />
        <path
           d="M 10.71875,-6.375 L 14.71875,-6.3125 L 15.425857,-5.6053932 L 11.425857,-5.6678932 L 10.71875,-6.375 z"
           id="path2704"
           style="fill:url(#linearGradient2581);fill-opacity:1" />
        <path
           d="M 14.71875,-6.3125 L 12.96875,-11.25 L 13.675857,-10.542893 L 15.425857,-5.6053932 L 14.71875,-6.3125 z"
           id="path2706"
           style="fill:url(#linearGradient2583);fill-opacity:1" />
        <path
           d="M 12.96875,-11.25 L 12.5,-11.25 L 13.207107,-10.542893 L 13.675857,-10.542893 L 12.96875,-11.25 z"
           id="path2708"
           style="fill:url(#linearGradient2585);fill-opacity:1" />
        <path
           d="M 13.96875,-11.125 L 15.5625,-11.125 L 16.269607,-10.417893 L 14.675857,-10.417893 L 13.96875,-11.125 z"
           id="path2710"
           style="fill:url(#linearGradient2587);fill-opacity:1" />
        <path
           d="M 15.5625,-11.125 C 16.263236,-11.142285 16.807643,-10.897983 17.18911,-10.516516 L 17.896217,-9.8094094 C 17.51475,-10.190876 16.970342,-10.435179 16.269607,-10.417893 L 15.5625,-11.125 z"
           id="path2712"
           style="fill:url(#linearGradient2589);fill-opacity:1" />
        <path
           d="M 17.18911,-10.516516 C 18.415922,-9.2897044 17.957455,-6.644214 15.59375,-6.71875 L 16.300857,-6.0116432 C 18.664562,-5.9371073 19.123029,-8.5825976 17.896217,-9.8094094 L 17.18911,-10.516516 z"
           id="path2714"
           style="fill:url(#linearGradient3588);fill-opacity:1" />
        <path
           d="M 15.59375,-6.71875 L 13.96875,-11.125 L 14.675857,-10.417893 L 16.300857,-6.0116432 L 15.59375,-6.71875 z"
           id="path2716"
           style="fill:url(#linearGradient2591);fill-opacity:1" />
        <path
           d="M 15.4375,-6.4375 C 18.434536,-6.3628978 18.668368,-9.3228317 17.29651,-10.694689 L 18.003617,-9.9875826 C 19.375475,-8.6157249 19.141643,-5.655791 16.144607,-5.7303932 L 15.4375,-6.4375 z"
           id="path2696"
           style="fill:url(#linearGradient3590);fill-opacity:1" />
        <path
           d="M 11.15625,-6.65625 L 12.75,-11.03125 L 13.457107,-10.324143 L 11.863357,-5.9491432 L 11.15625,-6.65625 z"
           id="path2722"
           style="fill:url(#linearGradient3592);fill-opacity:1" />
        <path
           d="M 12.75,-11.03125 L 14.375,-6.65625 L 15.082107,-5.9491432 L 13.457107,-10.324143 L 12.75,-11.03125 z"
           id="path2718"
           style="fill:url(#linearGradient2593);fill-opacity:1" />
        <path
           d="M 14.375,-6.65625 L 11.15625,-6.65625 L 11.863357,-5.9491432 L 15.082107,-5.9491432 L 14.375,-6.65625 z"
           id="path2720"
           style="fill:url(#linearGradient2595);fill-opacity:1" />
        <path
           d="M 15.96875,-5.6875 C 19.235011,-5.6249782 19.618583,-9.8213136 17.92037,-11.519527 L 18.627477,-10.81242 C 20.32569,-9.1142068 19.942118,-4.9178714 16.675857,-4.9803932 L 15.96875,-5.6875 z"
           id="path2670"
           style="fill:url(#linearGradient3586);fill-opacity:1" />
        <path
           d="M 16.78125,-3.4375 L 15.96875,-5.6875 L 16.675857,-4.9803932 L 17.488357,-2.7303932 L 16.78125,-3.4375 z"
           id="path2668"
           style="fill:url(#linearGradient3600);fill-opacity:1" />
        <path
           d="M 15.53125,-3.4375 L 16.78125,-3.4375 L 17.488357,-2.7303932 L 16.238357,-2.7303932 L 15.53125,-3.4375 z"
           id="path2666"
           style="fill:url(#linearGradient3602);fill-opacity:1" />
        <path
           d="M 8.75,-3.4375 L 10,-3.4375 L 10.707107,-2.7303932 L 9.4571068,-2.7303932 L 8.75,-3.4375 z"
           id="path2656"
           style="fill:url(#linearGradient3604);fill-opacity:1" />
        <path
           d="M 10,-3.4375 L 10.8125,-5.6875 L 11.519607,-4.9803932 L 10.707107,-2.7303932 L 10,-3.4375 z"
           id="path2658"
           style="fill:url(#linearGradient3606);fill-opacity:1" />
      </g>
      <path
         style="font-size:12px;font-style:normal;font-weight:normal;fill:#333333;fill-opacity:1;stroke:none;stroke-width:1px;stroke-linecap:butt;stroke-linejoin:miter;stroke-opacity:1;font-family:Bitstream Vera Sans"
         d="M 16.1875,-12.175236 L 12.09375,-12.143986 L 8.7499996,-3.3939857 L 9.9999996,-3.3939857 L 10.8125,-5.6439857 L 14.75,-5.6439857 L 15.53125,-3.4252357 L 15.53125,-3.3939857 L 16.78125,-3.3939857 L 15.96875,-5.6439857 C 20.084301,-5.565207 19.623157,-12.247993 16.1875,-12.175236 z M 16.21875,-11.925236 C 19.262779,-11.910965 19.709301,-5.7839571 15.59375,-5.8627357 L 16.375,-3.6752357 L 15.71875,-3.6752357 L 14.875,-5.9252357 L 10.5625,-5.9252357 L 9.7499996,-3.7064857 L 9.1874996,-3.7064857 L 12.28125,-11.862736 L 16.21875,-11.925236 z M 13.59375,-11.331486 L 15.4375,-6.3939857 C 19.362951,-6.2962734 18.548077,-11.404362 15.59375,-11.331486 L 13.59375,-11.331486 z M 12.5,-11.206486 L 10.71875,-6.3314857 L 14.71875,-6.2689857 L 12.96875,-11.206486 L 12.5,-11.206486 z M 13.96875,-11.081486 L 15.5625,-11.081486 C 18.516827,-11.154362 18.69243,-6.5775234 15.59375,-6.6752357 L 13.96875,-11.081486 z M 12.75,-10.987736 L 14.375,-6.6127357 L 11.15625,-6.6127357 L 12.75,-10.987736 z"
         id="path2505" />
    </g>
  </g>
</svg>
