<?xml version="1.0" encoding="UTF-8" standalone="no"?>
<!-- Created with Inkscape (http://www.inkscape.org/) -->
<svg xmlns:dc="http://purl.org/dc/elements/1.1/" xmlns:cc="http://creativecommons.org/ns#" xmlns:rdf="http://www.w3.org/1999/02/22-rdf-syntax-ns#" xmlns:svg="http://www.w3.org/2000/svg" xmlns="http://www.w3.org/2000/svg" xmlns:xlink="http://www.w3.org/1999/xlink" xmlns:sodipodi="http://sodipodi.sourceforge.net/DTD/sodipodi-0.dtd" xmlns:inkscape="http://www.inkscape.org/namespaces/inkscape" width="256" height="256" id="svg2160" sodipodi:version="0.32" inkscape:version="0.92.5 (2060ec1f9f, 2020-04-08)" sodipodi:docname="eeschema.svg" inkscape:output_extension="org.inkscape.output.svg.inkscape" inkscape:export-filename="/home/pcjc2/gedawork/electronics-menu-0.1.0/applications-electronics-48.png" inkscape:export-xdpi="90" inkscape:export-ydpi="90" version="1.0">
 <defs id="defs2162">
  <linearGradient inkscape:collect="always" id="linearGradient930">
   <stop id="stop926" stop-color="#f4f4f4" stop-opacity="0.768"/>
   <stop offset="1" id="stop928" stop-color="#acacac" stop-opacity="0"/>
  </linearGradient>
  <linearGradient id="linearGradient925" inkscape:collect="always">
   <stop id="stop921" stop-color="#282828" stop-opacity="1"/>
   <stop id="stop923" offset="1" stop-color="#f9f9f9" stop-opacity="1"/>
  </linearGradient>
  <linearGradient inkscape:collect="always" id="linearGradient4284">
   <stop id="stop4286" stop-color="#d9d9d9" stop-opacity="1"/>
   <stop offset="1" id="stop4288" stop-color="#808080" stop-opacity="0"/>
  </linearGradient>
  <linearGradient inkscape:collect="always" id="linearGradient4274">
   <stop id="stop4276" stop-color="#3c3c3c" stop-opacity="1"/>
   <stop offset="1" id="stop4278" stop-color="#979797" stop-opacity="1"/>
  </linearGradient>
  <linearGradient inkscape:collect="always" id="linearGradient4251">
   <stop id="stop4253" stop-color="#818181" stop-opacity="1"/>
   <stop offset="1" id="stop4255" stop-color="#dedede" stop-opacity="1"/>
  </linearGradient>
  <linearGradient inkscape:collect="always" id="linearGradient4243">
   <stop id="stop4245" stop-color="#b7b9f0" stop-opacity="0.424"/>
   <stop offset="1" id="stop4247" stop-color="#ffffff" stop-opacity="0.537"/>
  </linearGradient>
  <linearGradient id="linearGradient4222" inkscape:collect="always">
   <stop id="stop4235" stop-color="#4f4f4f" stop-opacity="1"/>
   <stop id="stop4237" offset="1" stop-color="#ababab" stop-opacity="1"/>
  </linearGradient>
  <linearGradient inkscape:collect="always" id="linearGradient4211">
   <stop id="stop4213" stop-color="#c8c8c8" stop-opacity="1"/>
   <stop offset="1" id="stop4215" stop-color="#808080" stop-opacity="1"/>
  </linearGradient>
  <linearGradient id="linearGradient4194-3" inkscape:collect="always">
   <stop id="stop4199" stop-color="#676767" stop-opacity="0.351"/>
   <stop id="stop4201" offset="1" stop-color="#e6e6e6" stop-opacity="0.539"/>
  </linearGradient>
  <linearGradient inkscape:collect="always" id="linearGradient4194">
   <stop id="stop4196" stop-color="#676767" stop-opacity="1"/>
   <stop offset="1" id="stop4198" stop-color="#e6e6e6" stop-opacity="1"/>
  </linearGradient>
  <linearGradient inkscape:collect="always" id="linearGradient4226">
   <stop id="stop4228" stop-color="#000000" stop-opacity="1"/>
   <stop offset="1" id="stop4230" stop-color="#3c3c3c" stop-opacity="1"/>
  </linearGradient>
  <linearGradient inkscape:collect="always" id="linearGradient4218">
   <stop id="stop4220" stop-color="#474747" stop-opacity="1"/>
   <stop offset="1" id="stop4222" stop-color="#373737" stop-opacity="0"/>
  </linearGradient>
  <linearGradient inkscape:collect="always" id="linearGradient4208">
   <stop id="stop4210" stop-color="#373737" stop-opacity="1"/>
   <stop offset="1" id="stop4212" stop-color="#000000" stop-opacity="1"/>
  </linearGradient>
  <linearGradient inkscape:collect="always" xlink:href="#linearGradient4208" id="linearGradient4214" x1="33.937" y1="69.63" x2="206.19" y2="-39.36" gradientUnits="userSpaceOnUse" gradientTransform="matrix(1.0964277,0,0,1.0964277,3.1178092,-13.491201)"/>
  <linearGradient inkscape:collect="always" xlink:href="#linearGradient4218" id="linearGradient4224" x1="157.75" y1="-41.35" x2="139.1" y2="25.01" gradientUnits="userSpaceOnUse" gradientTransform="matrix(1.0964277,0,0,1.0964277,3.1178076,-13.491201)"/>
  <linearGradient inkscape:collect="always" xlink:href="#linearGradient4226" id="linearGradient4232" x1="102.61" y1="101.49" x2="102.61" y2="66.24" gradientUnits="userSpaceOnUse" gradientTransform="matrix(1.0964277,0,0,1.0964277,3.1178092,-13.491201)"/>
  <linearGradient inkscape:collect="always" xlink:href="#linearGradient4194" id="linearGradient4200" x1="304.98" y1="-50.01" x2="318.3" y2="-40.937" gradientUnits="userSpaceOnUse" spreadMethod="reflect" gradientTransform="matrix(0.81145058,0,0,0.81145058,-109.04896,-2.9507235)"/>
  <linearGradient inkscape:collect="always" xlink:href="#linearGradient4194" id="linearGradient4223" x1="361.46" y1="-88.59" x2="337.93" y2="-105.6" gradientUnits="userSpaceOnUse" spreadMethod="reflect" gradientTransform="matrix(0.81145058,0,0,0.81145058,-109.7391,-4.1009524)"/>
  <linearGradient inkscape:collect="always" xlink:href="#linearGradient4194" id="linearGradient4235" x1="327.16" y1="-121.9" x2="335.38" y2="-121.9" gradientUnits="userSpaceOnUse" spreadMethod="reflect" gradientTransform="matrix(0.81145058,0,0,0.81145058,-109.04896,-2.9507235)"/>
  <linearGradient inkscape:collect="always" xlink:href="#linearGradient4194-3" id="linearGradient3394" gradientUnits="userSpaceOnUse" spreadMethod="reflect" x1="333.96" y1="-121.9" x2="335.38" y2="-121.9" gradientTransform="matrix(0.81145058,0,0,0.81145058,-108.35882,-2.9507235)"/>
  <linearGradient inkscape:collect="always" xlink:href="#linearGradient4211" id="linearGradient4217" x1="276.13" y1="45.08" x2="293.71" y2="45.08" gradientUnits="userSpaceOnUse" spreadMethod="reflect" gradientTransform="matrix(0.81145058,0,0,0.81145058,-151.94781,1.1994897)"/>
  <linearGradient inkscape:collect="always" xlink:href="#linearGradient4222" id="linearGradient4228" x1="271.42" y1="112.27" x2="280.55" y2="112.48" gradientUnits="userSpaceOnUse" spreadMethod="reflect" gradientTransform="matrix(0.81145058,0,0,0.81145058,-152.29757,0.49996329)"/>
  <linearGradient inkscape:collect="always" xlink:href="#linearGradient4243" id="linearGradient4241" gradientUnits="userSpaceOnUse" spreadMethod="reflect" x1="262.66" y1="110.66" x2="278.61" y2="111.94" gradientTransform="matrix(0.81145058,0,0,0.81145058,-152.40963,0.53137282)"/>
  <linearGradient inkscape:collect="always" xlink:href="#linearGradient925" id="linearGradient4257" x1="272.65" y1="35.579" x2="288.54" y2="35.579" gradientUnits="userSpaceOnUse" spreadMethod="reflect" gradientTransform="matrix(0.81145058,0,0,0.81145058,-152.29757,0.49996329)"/>
  <linearGradient inkscape:collect="always" xlink:href="#linearGradient4274" id="linearGradient4280" x1="275.35" y1="-26.11" x2="286.4" y2="-25.824" gradientUnits="userSpaceOnUse" spreadMethod="reflect" gradientTransform="matrix(0.81145058,0,0,0.81145058,-152.29757,0.49996329)"/>
  <radialGradient inkscape:collect="always" xlink:href="#linearGradient4284" id="radialGradient4290" cx="287.82" cy="-29.604" fx="287.82" fy="-29.604" r="13.314" gradientTransform="matrix(0.81145058,0,0,0.4402551,-152.79971,-10.496054)" gradientUnits="userSpaceOnUse" spreadMethod="reflect"/>
  <linearGradient inkscape:collect="always" xlink:href="#linearGradient4251" id="linearGradient4308" x1="357.02" y1="77.54" x2="365.56" y2="78" gradientUnits="userSpaceOnUse" spreadMethod="reflect" gradientTransform="matrix(0.37079177,0,0,0.81516532,42.515485,-17.178015)"/>
  <linearGradient inkscape:collect="always" xlink:href="#linearGradient4251" id="linearGradient4312" gradientUnits="userSpaceOnUse" gradientTransform="matrix(0.26504662,0,0,0.81636651,80.081947,13.578367)" spreadMethod="reflect" x1="357.02" y1="77.54" x2="365.56" y2="78"/>
  <linearGradient inkscape:collect="always" xlink:href="#linearGradient930" id="linearGradient932" x1="67.61" y1="50.917" x2="73.26" y2="50.917" gradientUnits="userSpaceOnUse" spreadMethod="reflect"/>
  <filter inkscape:collect="always" id="filter935" x="-0.015" width="1.031" y="-0.054" height="1.108" color-interpolation-filters="sRGB">
   <feGaussianBlur inkscape:collect="always" id="feGaussianBlur937"/>
  </filter>
 </defs>
 <sodipodi:namedview id="base" pagecolor="#ff0000" bordercolor="#666666" borderopacity="1.0" inkscape:pageopacity="0" inkscape:pageshadow="2" inkscape:zoom="6.97" inkscape:cx="128" inkscape:cy="116.52224" inkscape:current-layer="layer1" showgrid="true" inkscape:grid-bbox="true" inkscape:document-units="px" inkscape:grid-points="false" showguides="true" inkscape:guide-bbox="true" inkscape:window-width="1920" inkscape:window-height="1056" inkscape:window-x="0" inkscape:window-y="0" width="128" height="128" inkscape:window-maximized="1" inkscape:snap-global="false"/>
 <metadata id="metadata2165">
  <rdf:RDF>
   <cc:Work>
    <dc:format>image/svg+xml</dc:format>
    <dc:type rdf:resource="http://purl.org/dc/dcmitype/StillImage"/>
    <dc:title/>
   </cc:Work>
  </rdf:RDF>
 </metadata>
 <g id="layer1" inkscape:label="Layer 1" inkscape:groupmode="layer" transform="translate(0,128)">
  <g transform="matrix(-1.0964277,0,0,1.0964277,312.75759,-98.659062)" id="g4295">
   <path sodipodi:nodetypes="ccccccccccccc" inkscape:connector-curvature="0" id="path4297" d="m 186.55236,64.257053 2.84856,-9.989773 6.91244,-0.230418 c 6.74505,0.05908 10.11514,1.493974 10.8295,6.912452 l 0.14232,12.777726 -1.83077,3.99235 0.33934,11.998381 -2.24968,2.924102 -0.1885,-13.36405 -2.2035,1.487154 -0.0454,-11.724826 c -0.10373,-3.955495 -2.74184,-5.268592 -5.80757,-5.344121 z" stroke-dasharray="none" stroke-opacity="1" fill="#ababab" fill-rule="evenodd" stroke="#6a6a6a" stroke-linejoin="round" fill-opacity="1" stroke-linecap="butt" stroke-width="0.7" stroke-miterlimit="4"/>
   <path sodipodi:nodetypes="ccccccccc" inkscape:connector-curvature="0" id="path4299" d="m 190.30501,55.287579 7.78867,-0.217899 c 5.76656,0.445452 8.00194,3.149578 7.89761,5.61002 l 0.43573,12.63616 -1.41613,2.450986 -0.43572,-14.052289 c -0.1656,-1.435895 -1.46106,-4.224341 -7.13508,-4.411767 l -8.06101,0.272332 z" stroke-opacity="1" fill="#e3e3e3" fill-rule="evenodd" stroke="none" stroke-linejoin="miter" fill-opacity="0.63" stroke-linecap="butt" stroke-width="1"/>
   <path sodipodi:nodetypes="cccc" inkscape:connector-curvature="0" id="path4301" d="m 190.19608,56.10458 7.7342,0 c 4.64426,0.194181 7.3677,2.676076 7.35294,5.174288 l 0.4902,11.601302" stroke-dasharray="none" stroke-opacity="1" fill="none" fill-rule="evenodd" stroke="#ffffff" stroke-linejoin="miter" stroke-linecap="butt" stroke-width="0.7" stroke-miterlimit="4"/>
  </g>
  <g id="g4287" transform="matrix(-1.0964277,0,0,1.0964277,286.33853,-67.893107)">
   <path d="m 186.55236,64.257053 2.84856,-9.989773 6.91244,-0.230418 c 6.74505,0.05908 10.11514,1.493974 10.8295,6.912452 l 0.14232,12.777726 -1.83077,3.99235 0.33934,11.998381 -2.24968,2.924102 -0.1885,-13.36405 -2.2035,1.487154 -0.0454,-11.724826 c -0.10373,-3.955495 -2.74184,-5.268592 -5.80757,-5.344121 z" id="path4289" inkscape:connector-curvature="0" sodipodi:nodetypes="ccccccccccccc" stroke-dasharray="none" stroke-opacity="1" fill="#ababab" fill-rule="evenodd" stroke="#6a6a6a" stroke-linejoin="round" fill-opacity="1" stroke-linecap="butt" stroke-width="0.7" stroke-miterlimit="4"/>
   <path d="m 190.30501,55.287579 7.78867,-0.217899 c 5.76656,0.445452 8.00194,3.149578 7.89761,5.61002 l 0.43573,12.63616 -1.41613,2.450986 -0.43572,-14.052289 c -0.1656,-1.435895 -1.46106,-4.224341 -7.13508,-4.411767 l -8.06101,0.272332 z" id="path4291" inkscape:connector-curvature="0" sodipodi:nodetypes="ccccccccc" stroke-opacity="1" fill="#e3e3e3" fill-rule="evenodd" stroke="none" stroke-linejoin="miter" fill-opacity="0.63" stroke-linecap="butt" stroke-width="1"/>
   <path d="m 190.19608,56.10458 7.7342,0 c 4.64426,0.194181 7.3677,2.676076 7.35294,5.174288 l 0.4902,11.601302" id="path4293" inkscape:connector-curvature="0" sodipodi:nodetypes="cccc" stroke-dasharray="none" stroke-opacity="1" fill="none" fill-rule="evenodd" stroke="#ffffff" stroke-linejoin="miter" stroke-linecap="butt" stroke-width="0.7" stroke-miterlimit="4"/>
  </g>
  <g transform="matrix(-1.0964277,0,0,1.0964277,266.44086,-45.194477)" id="g4279">
   <path sodipodi:nodetypes="ccccccccccccc" inkscape:connector-curvature="0" id="path4281" d="m 186.55236,64.257053 2.84856,-9.989773 6.91244,-0.230418 c 6.74505,0.05908 10.11514,1.493974 10.8295,6.912452 l 0.14232,12.777726 -1.83077,3.99235 0.33934,11.998381 -2.24968,2.924102 -0.1885,-13.36405 -2.2035,1.487154 -0.0454,-11.724826 c -0.10373,-3.955495 -2.74184,-5.268592 -5.80757,-5.344121 z" stroke-dasharray="none" stroke-opacity="1" fill="#ababab" fill-rule="evenodd" stroke="#6a6a6a" stroke-linejoin="round" fill-opacity="1" stroke-linecap="butt" stroke-width="0.7" stroke-miterlimit="4"/>
   <path sodipodi:nodetypes="ccccccccc" inkscape:connector-curvature="0" id="path4283" d="m 190.30501,55.287579 7.78867,-0.217899 c 5.76656,0.445452 8.00194,3.149578 7.89761,5.61002 l 0.43573,12.63616 -1.41613,2.450986 -0.43572,-14.052289 c -0.1656,-1.435895 -1.46106,-4.224341 -7.13508,-4.411767 l -8.06101,0.272332 z" stroke-opacity="1" fill="#e3e3e3" fill-rule="evenodd" stroke="none" stroke-linejoin="miter" fill-opacity="0.63" stroke-linecap="butt" stroke-width="1"/>
   <path sodipodi:nodetypes="cccc" inkscape:connector-curvature="0" id="path4285" d="m 190.19608,56.10458 7.7342,0 c 4.64426,0.194181 7.3677,2.676076 7.35294,5.174288 l 0.4902,11.601302" stroke-dasharray="none" stroke-opacity="1" fill="none" fill-rule="evenodd" stroke="#ffffff" stroke-linejoin="miter" stroke-linecap="butt" stroke-width="0.7" stroke-miterlimit="4"/>
  </g>
  <g id="g4271" transform="matrix(-1.0964277,0,0,1.0964277,249.655,-21.570206)">
   <path d="m 186.55236,64.257053 2.84856,-9.989773 6.91244,-0.230418 c 6.74505,0.05908 10.11514,1.493974 10.8295,6.912452 l 0.14232,12.777726 -1.83077,3.99235 0.33934,11.998381 -2.24968,2.924102 -0.1885,-13.36405 -2.2035,1.487154 -0.0454,-11.724826 c -0.10373,-3.955495 -2.74184,-5.268592 -5.80757,-5.344121 z" id="path4273" inkscape:connector-curvature="0" sodipodi:nodetypes="ccccccccccccc" stroke-dasharray="none" stroke-opacity="1" fill="#ababab" fill-rule="evenodd" stroke="#6a6a6a" stroke-linejoin="round" fill-opacity="1" stroke-linecap="butt" stroke-width="0.7" stroke-miterlimit="4"/>
   <path d="m 190.30501,55.287579 7.78867,-0.217899 c 5.76656,0.445452 8.00194,3.149578 7.89761,5.61002 l 0.43573,12.63616 -1.41613,2.450986 -0.43572,-14.052289 c -0.1656,-1.435895 -1.46106,-4.224341 -7.13508,-4.411767 l -8.06101,0.272332 z" id="path4275" inkscape:connector-curvature="0" sodipodi:nodetypes="ccccccccc" stroke-opacity="1" fill="#e3e3e3" fill-rule="evenodd" stroke="none" stroke-linejoin="miter" fill-opacity="0.63" stroke-linecap="butt" stroke-width="1"/>
   <path d="m 190.19608,56.10458 7.7342,0 c 4.64426,0.194181 7.3677,2.676076 7.35294,5.174288 l 0.4902,11.601302" id="path4277" inkscape:connector-curvature="0" sodipodi:nodetypes="cccc" stroke-dasharray="none" stroke-opacity="1" fill="none" fill-rule="evenodd" stroke="#ffffff" stroke-linejoin="miter" stroke-linecap="butt" stroke-width="0.7" stroke-miterlimit="4"/>
  </g>
  <path d="M 202.54951,64.398746 231.2719,-51.879523 113.15398,-59.339601 26.430553,40.128121 Z" id="path4200" inkscape:connector-curvature="0" sodipodi:nodetypes="ccccc" stroke-opacity="1" fill="url(#linearGradient4214)" fill-rule="evenodd" stroke="#000000" stroke-linejoin="miter" fill-opacity="1" stroke-linecap="butt" stroke-width="1.096"/>
  <path d="m 202.98575,64.147937 0.25081,32.05619 L 25.558066,71.357199 26.119717,40.749788 Z" id="path4204" inkscape:connector-curvature="0" sodipodi:nodetypes="ccccc" stroke-opacity="1" fill="url(#linearGradient4232)" fill-rule="evenodd" stroke="#000000" stroke-linejoin="miter" fill-opacity="1" stroke-linecap="butt" stroke-width="1.096"/>
  <path d="m 201.76181,64.79024 1.15595,31.669607 28.79213,-114.732284 0,-34.027068 z" id="path4206" inkscape:connector-curvature="0" sodipodi:nodetypes="ccccc" stroke-opacity="1" fill="#262626" fill-rule="evenodd" stroke="#000000" stroke-linejoin="miter" fill-opacity="1" stroke-linecap="butt" stroke-width="1.096"/>
  <path d="M 111.67202,-58.909306 230.99286,-51.50743 216.59278,5.840283 C 176.71259,-21.607527 122.20863,-32.643793 70.203058,-9.5690876 Z" id="path4216" inkscape:connector-curvature="0" sodipodi:nodetypes="ccccc" stroke-opacity="1" fill="url(#linearGradient4224)" fill-rule="evenodd" stroke="none" stroke-linejoin="miter" fill-opacity="1" stroke-linecap="butt" stroke-width="1"/>
  <path d="M 26.726586,40.380513 200.92952,63.945901 231.2455,-52.012697" id="path4234" inkscape:connector-curvature="0" sodipodi:nodetypes="ccc" stroke-dasharray="none" stroke-opacity="0.331" fill="none" fill-rule="evenodd" stroke="#aeaeae" stroke-linejoin="miter" stroke-linecap="butt" stroke-width="1.864" stroke-miterlimit="4"/>
  <g id="g4242" transform="matrix(1.0964277,0,0,1.0964277,3.1178076,-13.491201)">
   <path sodipodi:nodetypes="ccccccccccccc" inkscape:connector-curvature="0" id="path4236" d="m 186.55236,64.257053 2.84856,-9.989773 6.91244,-0.230418 c 6.74505,0.05908 10.11514,1.493974 10.8295,6.912452 l 0.14232,12.777726 -1.83077,3.99235 0.33934,11.998381 -2.24968,2.924102 -0.1885,-13.36405 -2.2035,1.487154 -0.0454,-11.724826 c -0.10373,-3.955495 -2.74184,-5.268592 -5.80757,-5.344121 z" stroke-dasharray="none" stroke-opacity="1" fill="#ababab" fill-rule="evenodd" stroke="#6a6a6a" stroke-linejoin="round" fill-opacity="1" stroke-linecap="butt" stroke-width="0.7" stroke-miterlimit="4"/>
   <path sodipodi:nodetypes="ccccccccc" inkscape:connector-curvature="0" id="path4238" d="m 190.30501,55.287579 7.78867,-0.217899 c 5.76656,0.445452 8.00194,3.149578 7.89761,5.61002 l 0.43573,12.63616 -1.41613,2.450986 -0.43572,-14.052289 c -0.1656,-1.435895 -1.46106,-4.224341 -7.13508,-4.411767 l -8.06101,0.272332 z" stroke-opacity="1" fill="#e3e3e3" fill-rule="evenodd" stroke="none" stroke-linejoin="miter" fill-opacity="0.63" stroke-linecap="butt" stroke-width="1"/>
   <path sodipodi:nodetypes="cccc" inkscape:connector-curvature="0" id="path4240" d="m 190.19608,56.10458 7.7342,0 c 4.64426,0.194181 7.3677,2.676076 7.35294,5.174288 l 0.4902,11.601302" stroke-dasharray="none" stroke-opacity="1" fill="none" fill-rule="evenodd" stroke="#ffffff" stroke-linejoin="miter" stroke-linecap="butt" stroke-width="0.7" stroke-miterlimit="4"/>
  </g>
  <g id="g4247" transform="matrix(1.0964277,0,0,1.0964277,9.9562137,-35.560603)">
   <path d="m 186.55236,64.257053 2.84856,-9.989773 6.91244,-0.230418 c 6.74505,0.05908 10.11514,1.493974 10.8295,6.912452 l 0.14232,12.777726 -1.83077,3.99235 0.33934,11.998381 -2.24968,2.924102 -0.1885,-13.36405 -2.2035,1.487154 -0.0454,-11.724826 c -0.10373,-3.955495 -2.74184,-5.268592 -5.80757,-5.344121 z" id="path4249" inkscape:connector-curvature="0" sodipodi:nodetypes="ccccccccccccc" stroke-dasharray="none" stroke-opacity="1" fill="#ababab" fill-rule="evenodd" stroke="#6a6a6a" stroke-linejoin="round" fill-opacity="1" stroke-linecap="butt" stroke-width="0.7" stroke-miterlimit="4"/>
   <path d="m 190.30501,55.287579 7.78867,-0.217899 c 5.76656,0.445452 8.00194,3.149578 7.89761,5.61002 l 0.43573,12.63616 -1.41613,2.450986 -0.43572,-14.052289 c -0.1656,-1.435895 -1.46106,-4.224341 -7.13508,-4.411767 l -8.06101,0.272332 z" id="path4251" inkscape:connector-curvature="0" sodipodi:nodetypes="ccccccccc" stroke-opacity="1" fill="#e3e3e3" fill-rule="evenodd" stroke="none" stroke-linejoin="miter" fill-opacity="0.63" stroke-linecap="butt" stroke-width="1"/>
   <path d="m 190.19608,56.10458 7.7342,0 c 4.64426,0.194181 7.3677,2.676076 7.35294,5.174288 l 0.4902,11.601302" id="path4253" inkscape:connector-curvature="0" sodipodi:nodetypes="cccc" stroke-dasharray="none" stroke-opacity="1" fill="none" fill-rule="evenodd" stroke="#ffffff" stroke-linejoin="miter" stroke-linecap="butt" stroke-width="0.7" stroke-miterlimit="4"/>
  </g>
  <g transform="matrix(1.0964277,0,0,1.0964277,15.240436,-60.116696)" id="g4255">
   <path sodipodi:nodetypes="ccccccccccccc" inkscape:connector-curvature="0" id="path4257" d="m 186.55236,64.257053 2.84856,-9.989773 6.91244,-0.230418 c 6.74505,0.05908 10.11514,1.493974 10.8295,6.912452 l 0.14232,12.777726 -1.83077,3.99235 0.33934,11.998381 -2.24968,2.924102 -0.1885,-13.36405 -2.2035,1.487154 -0.0454,-11.724826 c -0.10373,-3.955495 -2.74184,-5.268592 -5.80757,-5.344121 z" stroke-dasharray="none" stroke-opacity="1" fill="#ababab" fill-rule="evenodd" stroke="#6a6a6a" stroke-linejoin="round" fill-opacity="1" stroke-linecap="butt" stroke-width="0.7" stroke-miterlimit="4"/>
   <path sodipodi:nodetypes="ccccccccc" inkscape:connector-curvature="0" id="path4259" d="m 190.30501,55.287579 7.78867,-0.217899 c 5.76656,0.445452 8.00194,3.149578 7.89761,5.61002 l 0.43573,12.63616 -1.41613,2.450986 -0.43572,-14.052289 c -0.1656,-1.435895 -1.46106,-4.224341 -7.13508,-4.411767 l -8.06101,0.272332 z" stroke-opacity="1" fill="#e3e3e3" fill-rule="evenodd" stroke="none" stroke-linejoin="miter" fill-opacity="0.63" stroke-linecap="butt" stroke-width="1"/>
   <path sodipodi:nodetypes="cccc" inkscape:connector-curvature="0" id="path4261" d="m 190.19608,56.10458 7.7342,0 c 4.64426,0.194181 7.3677,2.676076 7.35294,5.174288 l 0.4902,11.601302" stroke-dasharray="none" stroke-opacity="1" fill="none" fill-rule="evenodd" stroke="#ffffff" stroke-linejoin="miter" stroke-linecap="butt" stroke-width="0.7" stroke-miterlimit="4"/>
  </g>
  <g id="g4263" transform="matrix(1.0964277,0,0,1.0964277,21.457169,-86.848646)">
   <path d="m 186.55236,64.257053 2.84856,-9.989773 6.91244,-0.230418 c 6.74505,0.05908 10.11514,1.493974 10.8295,6.912452 l 0.14232,12.777726 -1.83077,3.99235 0.33934,11.998381 -2.24968,2.924102 -0.1885,-13.36405 -2.2035,1.487154 -0.0454,-11.724826 c -0.10373,-3.955495 -2.74184,-5.268592 -5.80757,-5.344121 z" id="path4265" inkscape:connector-curvature="0" sodipodi:nodetypes="ccccccccccccc" stroke-dasharray="none" stroke-opacity="1" fill="#ababab" fill-rule="evenodd" stroke="#6a6a6a" stroke-linejoin="round" fill-opacity="1" stroke-linecap="butt" stroke-width="0.7" stroke-miterlimit="4"/>
   <path d="m 190.30501,55.287579 7.78867,-0.217899 c 5.76656,0.445452 8.00194,3.149578 7.89761,5.61002 l 0.43573,12.63616 -1.41613,2.450986 -0.43572,-14.052289 c -0.1656,-1.435895 -1.46106,-4.224341 -7.13508,-4.411767 l -8.06101,0.272332 z" id="path4267" inkscape:connector-curvature="0" sodipodi:nodetypes="ccccccccc" stroke-opacity="1" fill="#e3e3e3" fill-rule="evenodd" stroke="none" stroke-linejoin="miter" fill-opacity="0.63" stroke-linecap="butt" stroke-width="1"/>
   <path d="m 190.19608,56.10458 7.7342,0 c 4.64426,0.194181 7.3677,2.676076 7.35294,5.174288 l 0.4902,11.601302" id="path4269" inkscape:connector-curvature="0" sodipodi:nodetypes="cccc" stroke-dasharray="none" stroke-opacity="1" fill="none" fill-rule="evenodd" stroke="#ffffff" stroke-linejoin="miter" stroke-linecap="butt" stroke-width="0.7" stroke-miterlimit="4"/>
  </g>
  <rect id="rect4314" width="3.739" height="15.519" x="174.34" y="90.9" rx="1.869" ry="0" opacity="1" stroke-dasharray="none" stroke-opacity="1" fill="#000000" fill-rule="evenodd" stroke="none" stroke-linejoin="round" fill-opacity="1" stroke-linecap="round" stroke-width="0.568" stroke-dashoffset="0" stroke-miterlimit="4"/>
  <rect id="rect4249" width="5.334" height="15.739" x="73.65" y="101.65" ry="1.924" rx="2.667" opacity="1" stroke-dasharray="none" stroke-opacity="1" fill="#000000" fill-rule="evenodd" stroke="none" stroke-linejoin="round" fill-opacity="1" stroke-linecap="round" stroke-width="0.568" stroke-dashoffset="0" stroke-miterlimit="4"/>
  <path d="M 133.18925,-39.41298 151.13283,-28.830873 106.2739,43.863597 92.701196,50.995014 92.47115,19.938836 115.70578,9.5867719 Z" id="path4203" inkscape:connector-curvature="0" stroke-opacity="1" fill="#c5c5c5" fill-rule="evenodd" stroke="none" stroke-linejoin="miter" fill-opacity="1" stroke-linecap="butt" stroke-width="0.811"/>
  <path d="m 163.78473,-92.783625 c -12.01472,0.0129 -25.11919,11.598477 -31.22232,23.163413 4.94233,-4.836452 16.25615,-11.658869 23.1712,-11.660468 14.61091,-4.86e-4 26.45576,11.843651 26.45615,26.454557 -0.0101,5.068799 -0.35429,11.710736 -3.10184,15.970284 6.15693,-8.954379 12.74867,-15.910208 12.76317,-25.861423 4.3e-4,-15.500802 -12.56556,-28.066793 -28.06636,-28.066363 z" id="path4214" inkscape:connector-curvature="0" sodipodi:nodetypes="ccccccc" opacity="1" stroke-dasharray="none" stroke-opacity="1" fill="url(#linearGradient4223)" fill-rule="evenodd" stroke="none" stroke-linejoin="round" fill-opacity="1" stroke-linecap="round" stroke-width="0.568" stroke-dashoffset="0" stroke-miterlimit="4"/>
  <path d="m 137.45388,-68.572515 c -3.19689,4.178625 -4.93403,9.290963 -4.94478,14.552225 2e-4,13.271168 10.75856,24.029526 24.02972,24.029715 10.88729,0.6604 22.85422,-9.216303 22.96759,-19.502072 -4.5363,5.961843 -13.08927,11.523681 -20.5807,11.535747 -14.92153,-0.424003 -20.9148,-9.316749 -23.65577,-20.664251 0.008,-3.435089 0.75305,-6.828469 2.18394,-9.951364 z" id="circle3388" inkscape:connector-curvature="0" sodipodi:nodetypes="ccccccc" opacity="1" stroke-dasharray="none" stroke-opacity="1" fill="url(#linearGradient4200)" fill-rule="evenodd" stroke="#6a6a6a" stroke-linejoin="round" fill-opacity="1" stroke-linecap="round" stroke-width="0.587" stroke-dashoffset="0" stroke-miterlimit="4"/>
  <path inkscape:connector-curvature="0" id="path4298" d="m 174.20432,-31.034197 -20.60325,3.075478 14.30219,84.215535 9.9048,11.703436 11.86706,-28.70038 -17.65211,-18.314368 z" stroke-opacity="1" fill="#c5c5c5" fill-rule="evenodd" stroke="none" stroke-linejoin="miter" fill-opacity="1" stroke-linecap="butt" stroke-width="0.811"/>
  <path d="m 156.07825,-81.97206 a 28.18061,28.18061 0 0 0 -28.18047,28.180471 28.18061,28.18061 0 0 0 28.18047,28.182057 28.18061,28.18061 0 0 0 28.18048,-28.182057 28.18061,28.18061 0 0 0 -28.18048,-28.180471 z m -0.34391,5.062054 a 23.234625,23.234625 0 0 1 23.23411,23.234112 23.234625,23.234625 0 0 1 -23.23411,23.234112 23.234625,23.234625 0 0 1 -23.2357,-23.234112 23.234625,23.234625 0 0 1 23.2357,-23.234112 z" id="path3384" inkscape:connector-curvature="0" opacity="1" stroke-dasharray="none" stroke-opacity="1" fill="#dcdcdc" fill-rule="evenodd" stroke="#888888" stroke-linejoin="round" fill-opacity="1" stroke-linecap="round" stroke-width="0.568" stroke-dashoffset="0" stroke-miterlimit="4"/>
  <rect id="rect4212" width="15.183" height="37.04" x="153.2" y="-120.62" ry="4.831" rx="7.591" opacity="1" stroke-dasharray="none" stroke-opacity="1" fill="url(#linearGradient4235)" fill-rule="evenodd" stroke="none" stroke-linejoin="round" fill-opacity="1" stroke-linecap="round" stroke-width="0.568" stroke-dashoffset="0" stroke-miterlimit="4"/>
  <rect rx="7.591" ry="4.831" y="-120.62" x="153.89" height="37.04" width="15.183" id="rect4237" opacity="1" stroke-dasharray="none" stroke-opacity="1" fill="url(#linearGradient3394)" fill-rule="evenodd" stroke="none" stroke-linejoin="round" fill-opacity="1" stroke-linecap="round" stroke-width="0.568" stroke-dashoffset="0" stroke-miterlimit="4"/>
  <path d="m 61.407734,76.384582 c 0.174884,1.486496 11.104978,30.691718 11.104978,30.691718 2.448344,2.33432 4.896687,1.28656 7.345031,0.26233 0,0 14.427729,-30.779164 11.717062,-31.04149 -2.710658,-0.262318 -30.167071,0.08744 -30.167071,0.08744 z" id="path4220" inkscape:connector-curvature="0" sodipodi:nodetypes="cccscc" stroke-opacity="1" fill="url(#linearGradient4228)" fill-rule="evenodd" stroke="none" stroke-linejoin="miter" fill-opacity="1" stroke-linecap="butt" stroke-width="0.811"/>
  <path sodipodi:nodetypes="cccscc" inkscape:connector-curvature="0" id="path4230" d="m 61.295674,76.415991 c 0.174884,1.486497 11.104977,30.691719 11.104977,30.691719 2.989884,2.44021 5.08525,0.6829 7.345032,0.26232 0,0 14.427729,-30.779155 11.717062,-31.041481 -2.710658,-0.262317 -30.167071,0.08744 -30.167071,0.08744 z" stroke-opacity="1" fill="url(#linearGradient4241)" fill-rule="evenodd" stroke="none" stroke-linejoin="miter" fill-opacity="1" stroke-linecap="butt" stroke-width="0.811"/>
  <rect id="rect4207" width="30.366" height="104.9" x="61.59" y="-23.31" rx="15.07" ry="6.441" opacity="1" stroke-dasharray="none" stroke-opacity="1" fill="url(#linearGradient4257)" fill-rule="evenodd" stroke="none" stroke-linejoin="round" fill-opacity="1" stroke-linecap="round" stroke-width="0.568" stroke-dashoffset="0" stroke-miterlimit="4"/>
  <path d="m 64.495026,-11.735087 c 2.572203,1.47955 5.402394,2.7011118 8.769057,3.386202 l 0,89.734352 c -2.869227,-0.581586 -5.651666,-0.816017 -8.769057,-2.39026 z" id="rect924" inkscape:connector-curvature="0" sodipodi:nodetypes="ccccc" opacity="1" stroke-dasharray="none" stroke-opacity="1" fill="url(#linearGradient932)" stroke="none" fill-opacity="1" stroke-width="1.4" stroke-miterlimit="4"/>
  <path d="m 76.183219,24.496276 c 6.911279,0 16.365976,-2.076989 16.365976,-4.945933 V 49.15992 c 0,3.568471 -7.735785,5.217111 -15.063898,5.217111 -5.842274,0.261712 -16.412034,-1.605794 -16.640766,-7.053368 l 0.210377,-27.254736 c -0.51945,2.570154 8.217024,4.427349 15.128311,4.427349 z" id="rect4209" inkscape:connector-curvature="0" sodipodi:nodetypes="zsscccz" opacity="1" stroke-dasharray="none" stroke-opacity="1" fill="url(#linearGradient4217)" fill-rule="evenodd" stroke="none" stroke-linejoin="round" fill-opacity="1" stroke-linecap="round" stroke-width="0.568" stroke-dashoffset="0" stroke-miterlimit="4"/>
  <path d="m 146.53692,-27.121539 -39.5381,68.502058 -14.302614,5.763652 -0.868983,4.154547 13.562487,-5.780491 45.05505,-71.260529 z" id="path4260" inkscape:connector-curvature="0" sodipodi:nodetypes="ccccccc" stroke-opacity="1" fill="#a7a7a7" fill-rule="evenodd" stroke="none" stroke-linejoin="miter" fill-opacity="1" stroke-linecap="butt" stroke-width="0.811"/>
  <path d="M 132.97443,-36.086574 116.4236,10.347707 93.43633,20.002358" id="path4262" inkscape:connector-curvature="0" sodipodi:nodetypes="ccc" stroke-opacity="1" fill="none" fill-rule="evenodd" stroke="#ffffff" stroke-linejoin="miter" stroke-linecap="butt" stroke-width="0.811"/>
  <rect id="rect4264" width="22.298" height="17.93" x="65.62" y="-29.19" rx="11.149" ry="6.441" opacity="1" stroke-dasharray="none" stroke-opacity="1" fill="url(#linearGradient4280)" fill-rule="evenodd" stroke="none" stroke-linejoin="round" fill-opacity="1" stroke-linecap="round" stroke-width="0.568" stroke-dashoffset="0" stroke-miterlimit="4"/>
  <ellipse id="path4282" cx="76.61" cy="-23.3" rx="10.804" ry="5.862" opacity="1" stroke-dasharray="none" stroke-opacity="1" fill="url(#radialGradient4290)" fill-rule="evenodd" stroke="none" stroke-linejoin="round" fill-opacity="1" stroke-linecap="round" stroke-width="0.568" stroke-dashoffset="0" stroke-miterlimit="4"/>
  <path d="m 62.013758,-16.548535 c -0.03084,9.7265748 28.417527,11.9488602 29.82683,-0.401707" id="path4292" inkscape:connector-curvature="0" sodipodi:nodetypes="cc" stroke-opacity="1" fill="none" fill-rule="evenodd" stroke="#b1b1b1" stroke-linejoin="miter" stroke-linecap="butt" stroke-width="0.811" filter="url(#filter935)"/>
  <path d="m 61.511624,20.207766 c 0.406659,6.534507 31.71325,5.398224 31.132389,-0.30128" id="path4294" inkscape:connector-curvature="0" sodipodi:nodetypes="cc" stroke-opacity="1" fill="none" fill-rule="evenodd" stroke="#838383" stroke-linejoin="miter" stroke-linecap="butt" stroke-width="0.811"/>
  <path sodipodi:nodetypes="cc" inkscape:connector-curvature="0" id="path4296" d="m 61.511624,49.678015 c 0.406659,6.534507 31.71325,5.398224 31.132389,-0.30128" stroke-opacity="1" fill="none" fill-rule="evenodd" stroke="#838383" stroke-linejoin="miter" stroke-linecap="butt" stroke-width="0.811"/>
  <rect ry="3.484" rx="3.206" y="57.13" x="172.91" height="40.25" width="6.412" id="rect4310" opacity="1" stroke-dasharray="none" stroke-opacity="1" fill="url(#linearGradient4312)" fill-rule="evenodd" stroke="#838383" stroke-linejoin="round" fill-opacity="1" stroke-linecap="round" stroke-width="0.326" stroke-dashoffset="0" stroke-miterlimit="4"/>
  <rect id="rect4300" width="8.971" height="40.19" x="172.38" y="26.307" rx="4.485" ry="3.479" opacity="1" stroke-dasharray="none" stroke-opacity="1" fill="url(#linearGradient4308)" fill-rule="evenodd" stroke="#838383" stroke-linejoin="round" fill-opacity="1" stroke-linecap="round" stroke-width="0.385" stroke-dashoffset="0" stroke-miterlimit="4"/>
 </g>
</svg>
