<?xml version="1.0" encoding="UTF-8" standalone="no"?>
<svg
   xmlns:dc="http://purl.org/dc/elements/1.1/"
   xmlns:cc="http://creativecommons.org/ns#"
   xmlns:rdf="http://www.w3.org/1999/02/22-rdf-syntax-ns#"
   xmlns:svg="http://www.w3.org/2000/svg"
   xmlns="http://www.w3.org/2000/svg"
   xmlns:xlink="http://www.w3.org/1999/xlink"
   xmlns:sodipodi="http://sodipodi.sourceforge.net/DTD/sodipodi-0.dtd"
   xmlns:inkscape="http://www.inkscape.org/namespaces/inkscape"
   sodipodi:docname="evolution-mail.svg"
   inkscape:version="1.0 (4035a4f, 2020-05-01)"
   id="svg8"
   version="1.1"
   viewBox="0 0 67.468749 67.468749"
   height="255"
   width="255">
  <defs
     id="defs2">
    <clipPath
       id="clipPath2059"
       clipPathUnits="userSpaceOnUse">
      <path
         stroke-miterlimit="4"
         stroke-width="0.048"
         stroke-linecap="butt"
         fill-opacity="1"
         stroke-linejoin="miter"
         stroke="none"
         fill-rule="evenodd"
         fill="#ffffff"
         stroke-opacity="1"
         stroke-dasharray="none"
         inkscape:connector-curvature="0"
         sodipodi:nodetypes="csscsscccccccs"
         id="path2061"
         d="m -10.099732,231.68531 c 3.5587363,2.50616 4.8319716,-0.58528 2.9651647,-3.064 -3.1818907,-4.22486 -6.4443207,-9.83985 -12.3548527,-15.91305 -2.594516,-2.66865 -11.860659,-7.80827 -11.860659,-7.80827 0,0 -0.115438,-2.18844 -0.09884,-3.064 0.01106,-0.582 -0.565687,-0.56369 -0.889553,-0.29652 -0.782426,0.64546 -2.47097,2.56981 -2.47097,2.56981 l -1.68026,-0.0988 -1.087226,-1.58142 c -0.296516,-0.41055 -0.636056,-0.34641 -0.88955,0 -0.545383,1.84962 -0.878698,3.8848 -3.459359,3.95355 l 4.447747,3.95356 c 7.76561,1.55335 15.578734,5.58545 20.261957,14.33163 0,0 4.526451,5.19364 7.116396,7.01755 z" />
    </clipPath>
    <clipPath
       clipPathUnits="userSpaceOnUse"
       id="clipPath2059-5">
      <path
         d="m -10.099732,231.68531 c 3.5587363,2.50616 4.8319716,-0.58528 2.9651647,-3.064 -3.1818907,-4.22486 -6.4443207,-9.83985 -12.3548527,-15.91305 -2.594516,-2.66865 -11.860659,-7.80827 -11.860659,-7.80827 0,0 -0.115438,-2.18844 -0.09884,-3.064 0.01106,-0.582 -0.565687,-0.56369 -0.889553,-0.29652 -0.782426,0.64546 -2.47097,2.56981 -2.47097,2.56981 l -1.68026,-0.0988 -1.087226,-1.58142 c -0.296516,-0.41055 -0.636056,-0.34641 -0.88955,0 -0.545383,1.84962 -0.878698,3.8848 -3.459359,3.95355 l 4.447747,3.95356 c 7.76561,1.55335 15.578734,5.58545 20.261957,14.33163 0,0 4.526451,5.19364 7.116396,7.01755 z"
         id="path2061-3"
         sodipodi:nodetypes="csscsscccccccs"
         inkscape:connector-curvature="0"
         stroke-dasharray="none"
         stroke-opacity="1"
         fill="#ffffff"
         fill-rule="evenodd"
         stroke="none"
         stroke-linejoin="miter"
         fill-opacity="1"
         stroke-linecap="butt"
         stroke-width="0.048"
         stroke-miterlimit="4" />
    </clipPath>
    <clipPath
       id="clipPath">
      <path
         d="m -515.73002,435.56445 v 5.83767 c 0,9.74315 -7.84377,17.58692 -17.58692,17.58692 h -135.05122 c -9.74315,0 -17.58692,-7.84377 -17.58692,-17.58692 v -5.83767 z"
         id="rect5264"
         inkscape:connector-curvature="0"
         sodipodi:nodetypes="csssscc"
         fill="#1b1b1b"
         stroke="none"
         fill-opacity="0.95" />
    </clipPath>
    <clipPath
       id="clipPath2059-7"
       clipPathUnits="userSpaceOnUse">
      <path
         stroke-miterlimit="4"
         stroke-width="0.048"
         stroke-linecap="butt"
         fill-opacity="1"
         stroke-linejoin="miter"
         stroke="none"
         fill-rule="evenodd"
         fill="#ffffff"
         stroke-opacity="1"
         stroke-dasharray="none"
         inkscape:connector-curvature="0"
         sodipodi:nodetypes="csscsscccccccs"
         id="path2061-5"
         d="m -10.099732,231.68531 c 3.5587363,2.50616 4.8319716,-0.58528 2.9651647,-3.064 -3.1818907,-4.22486 -6.4443207,-9.83985 -12.3548527,-15.91305 -2.594516,-2.66865 -11.860659,-7.80827 -11.860659,-7.80827 0,0 -0.115438,-2.18844 -0.09884,-3.064 0.01106,-0.582 -0.565687,-0.56369 -0.889553,-0.29652 -0.782426,0.64546 -2.47097,2.56981 -2.47097,2.56981 l -1.68026,-0.0988 -1.087226,-1.58142 c -0.296516,-0.41055 -0.636056,-0.34641 -0.88955,0 -0.545383,1.84962 -0.878698,3.8848 -3.459359,3.95355 l 4.447747,3.95356 c 7.76561,1.55335 15.578734,5.58545 20.261957,14.33163 0,0 4.526451,5.19364 7.116396,7.01755 z" />
    </clipPath>
    <clipPath
       id="clipPath1162"
       clipPathUnits="userSpaceOnUse">
      <path
         id="path1164"
         d="m -65.649736,239.84563 c -9.358079,0 -16.951888,7.59381 -16.951888,16.95188 0,9.35808 7.593811,16.94076 16.951888,16.94077 0.292439,0 0.578792,-0.008 0.867614,-0.0222 2.122786,-0.10753 4.148336,-0.60587 5.995453,-1.42378 l 2.669587,3.97101 c -0.225515,0.4951 -0.245107,0.96445 -0.01111,1.31255 l 15.67271,23.32553 c 0.495366,0.73695 1.94415,0.6317 3.247998,-0.24471 1.303846,-0.87642 1.96364,-2.17735 1.468276,-2.9143 L -51.42304,274.4168 c -0.233058,-0.34672 -0.682887,-0.49868 -1.22356,-0.47831 l -2.558357,-3.80416 c 3.95991,-3.10036 6.507123,-7.91951 6.507123,-13.33682 0,-9.35807 -7.593809,-16.95188 -16.951889,-16.95188 z m 0,2.5806 c 7.92884,0 14.371283,6.44244 14.371283,14.37128 0,7.92885 -6.442435,14.36016 -14.371283,14.36016 -7.928851,0 -14.349039,-6.43131 -14.349039,-14.36016 0,-0.24777 -0.0013,-0.48941 0.01111,-0.73413 0.384376,-7.58638 6.656848,-13.63715 14.337916,-13.63715 z"
         inkscape:connector-curvature="0"
         stroke-dasharray="none"
         stroke-opacity="1"
         fill="#000000"
         stroke="none"
         stroke-linejoin="round"
         fill-opacity="0.347"
         stroke-linecap="round"
         stroke-width="0.071"
         stroke-miterlimit="4" />
    </clipPath>
    <clipPath
       clipPathUnits="userSpaceOnUse"
       id="clipPath2059-3">
      <path
         d="m -10.099732,231.68531 c 3.5587363,2.50616 4.8319716,-0.58528 2.9651647,-3.064 -3.1818907,-4.22486 -6.4443207,-9.83985 -12.3548527,-15.91305 -2.594516,-2.66865 -11.860659,-7.80827 -11.860659,-7.80827 0,0 -0.115438,-2.18844 -0.09884,-3.064 0.01106,-0.582 -0.565687,-0.56369 -0.889553,-0.29652 -0.782426,0.64546 -2.47097,2.56981 -2.47097,2.56981 l -1.68026,-0.0988 -1.087226,-1.58142 c -0.296516,-0.41055 -0.636056,-0.34641 -0.88955,0 -0.545383,1.84962 -0.878698,3.8848 -3.459359,3.95355 l 4.447747,3.95356 c 7.76561,1.55335 15.578734,5.58545 20.261957,14.33163 0,0 4.526451,5.19364 7.116396,7.01755 z"
         id="path2061-56"
         sodipodi:nodetypes="csscsscccccccs"
         inkscape:connector-curvature="0"
         stroke-dasharray="none"
         stroke-opacity="1"
         fill="#ffffff"
         fill-rule="evenodd"
         stroke="none"
         stroke-linejoin="miter"
         fill-opacity="1"
         stroke-linecap="butt"
         stroke-width="0.048"
         stroke-miterlimit="4" />
    </clipPath>
    <clipPath
       id="clipPath2059-5-2"
       clipPathUnits="userSpaceOnUse">
      <path
         stroke-miterlimit="4"
         stroke-width="0.048"
         stroke-linecap="butt"
         fill-opacity="1"
         stroke-linejoin="miter"
         stroke="none"
         fill-rule="evenodd"
         fill="#ffffff"
         stroke-opacity="1"
         stroke-dasharray="none"
         inkscape:connector-curvature="0"
         sodipodi:nodetypes="csscsscccccccs"
         id="path2061-3-9"
         d="m -10.099732,231.68531 c 3.5587363,2.50616 4.8319716,-0.58528 2.9651647,-3.064 -3.1818907,-4.22486 -6.4443207,-9.83985 -12.3548527,-15.91305 -2.594516,-2.66865 -11.860659,-7.80827 -11.860659,-7.80827 0,0 -0.115438,-2.18844 -0.09884,-3.064 0.01106,-0.582 -0.565687,-0.56369 -0.889553,-0.29652 -0.782426,0.64546 -2.47097,2.56981 -2.47097,2.56981 l -1.68026,-0.0988 -1.087226,-1.58142 c -0.296516,-0.41055 -0.636056,-0.34641 -0.88955,0 -0.545383,1.84962 -0.878698,3.8848 -3.459359,3.95355 l 4.447747,3.95356 c 7.76561,1.55335 15.578734,5.58545 20.261957,14.33163 0,0 4.526451,5.19364 7.116396,7.01755 z" />
    </clipPath>
    <clipPath
       id="clipPath-1">
      <path
         fill-opacity="0.95"
         stroke="none"
         fill="#1b1b1b"
         sodipodi:nodetypes="csssscc"
         inkscape:connector-curvature="0"
         id="rect5264-2"
         d="m -515.73002,435.56445 v 5.83767 c 0,9.74315 -7.84377,17.58692 -17.58692,17.58692 h -135.05122 c -9.74315,0 -17.58692,-7.84377 -17.58692,-17.58692 v -5.83767 z" />
    </clipPath>
    <clipPath
       clipPathUnits="userSpaceOnUse"
       id="clipPath2059-7-7">
      <path
         d="m -10.099732,231.68531 c 3.5587363,2.50616 4.8319716,-0.58528 2.9651647,-3.064 -3.1818907,-4.22486 -6.4443207,-9.83985 -12.3548527,-15.91305 -2.594516,-2.66865 -11.860659,-7.80827 -11.860659,-7.80827 0,0 -0.115438,-2.18844 -0.09884,-3.064 0.01106,-0.582 -0.565687,-0.56369 -0.889553,-0.29652 -0.782426,0.64546 -2.47097,2.56981 -2.47097,2.56981 l -1.68026,-0.0988 -1.087226,-1.58142 c -0.296516,-0.41055 -0.636056,-0.34641 -0.88955,0 -0.545383,1.84962 -0.878698,3.8848 -3.459359,3.95355 l 4.447747,3.95356 c 7.76561,1.55335 15.578734,5.58545 20.261957,14.33163 0,0 4.526451,5.19364 7.116396,7.01755 z"
         id="path2061-5-0"
         sodipodi:nodetypes="csscsscccccccs"
         inkscape:connector-curvature="0"
         stroke-dasharray="none"
         stroke-opacity="1"
         fill="#ffffff"
         fill-rule="evenodd"
         stroke="none"
         stroke-linejoin="miter"
         fill-opacity="1"
         stroke-linecap="butt"
         stroke-width="0.048"
         stroke-miterlimit="4" />
    </clipPath>
    <clipPath
       clipPathUnits="userSpaceOnUse"
       id="clipPath1162-9">
      <path
         stroke-miterlimit="4"
         stroke-width="0.071"
         stroke-linecap="round"
         fill-opacity="0.347"
         stroke-linejoin="round"
         stroke="none"
         fill="#000000"
         stroke-opacity="1"
         stroke-dasharray="none"
         inkscape:connector-curvature="0"
         d="m -65.649736,239.84563 c -9.358079,0 -16.951888,7.59381 -16.951888,16.95188 0,9.35808 7.593811,16.94076 16.951888,16.94077 0.292439,0 0.578792,-0.008 0.867614,-0.0222 2.122786,-0.10753 4.148336,-0.60587 5.995453,-1.42378 l 2.669587,3.97101 c -0.225515,0.4951 -0.245107,0.96445 -0.01111,1.31255 l 15.67271,23.32553 c 0.495366,0.73695 1.94415,0.6317 3.247998,-0.24471 1.303846,-0.87642 1.96364,-2.17735 1.468276,-2.9143 L -51.42304,274.4168 c -0.233058,-0.34672 -0.682887,-0.49868 -1.22356,-0.47831 l -2.558357,-3.80416 c 3.95991,-3.10036 6.507123,-7.91951 6.507123,-13.33682 0,-9.35807 -7.593809,-16.95188 -16.951889,-16.95188 z m 0,2.5806 c 7.92884,0 14.371283,6.44244 14.371283,14.37128 0,7.92885 -6.442435,14.36016 -14.371283,14.36016 -7.928851,0 -14.349039,-6.43131 -14.349039,-14.36016 0,-0.24777 -0.0013,-0.48941 0.01111,-0.73413 0.384376,-7.58638 6.656848,-13.63715 14.337916,-13.63715 z"
         id="path1164-3" />
    </clipPath>
    <linearGradient
       id="linearGradient1332"
       inkscape:collect="always">
      <stop
         stop-opacity="0.839"
         stop-color="#085707"
         id="stop1328" />
      <stop
         stop-opacity="0.773"
         stop-color="#378333"
         offset="0.519"
         id="stop1338" />
      <stop
         stop-opacity="0.773"
         stop-color="#363c8b"
         offset="0.551"
         id="stop1336" />
      <stop
         stop-opacity="0.72"
         stop-color="#5c6bf8"
         id="stop1330"
         offset="1" />
    </linearGradient>
    <clipPath
       id="clipPath2059-36"
       clipPathUnits="userSpaceOnUse">
      <path
         stroke-miterlimit="4"
         stroke-width="0.048"
         stroke-linecap="butt"
         fill-opacity="1"
         stroke-linejoin="miter"
         stroke="none"
         fill-rule="evenodd"
         fill="#ffffff"
         stroke-opacity="1"
         stroke-dasharray="none"
         inkscape:connector-curvature="0"
         sodipodi:nodetypes="csscsscccccccs"
         id="path2061-7"
         d="m -10.099732,231.68531 c 3.5587363,2.50616 4.8319716,-0.58528 2.9651647,-3.064 -3.1818907,-4.22486 -6.4443207,-9.83985 -12.3548527,-15.91305 -2.594516,-2.66865 -11.860659,-7.80827 -11.860659,-7.80827 0,0 -0.115438,-2.18844 -0.09884,-3.064 0.01106,-0.582 -0.565687,-0.56369 -0.889553,-0.29652 -0.782426,0.64546 -2.47097,2.56981 -2.47097,2.56981 l -1.68026,-0.0988 -1.087226,-1.58142 c -0.296516,-0.41055 -0.636056,-0.34641 -0.88955,0 -0.545383,1.84962 -0.878698,3.8848 -3.459359,3.95355 l 4.447747,3.95356 c 7.76561,1.55335 15.578734,5.58545 20.261957,14.33163 0,0 4.526451,5.19364 7.116396,7.01755 z" />
    </clipPath>
    <clipPath
       clipPathUnits="userSpaceOnUse"
       id="clipPath2059-5-5">
      <path
         d="m -10.099732,231.68531 c 3.5587363,2.50616 4.8319716,-0.58528 2.9651647,-3.064 -3.1818907,-4.22486 -6.4443207,-9.83985 -12.3548527,-15.91305 -2.594516,-2.66865 -11.860659,-7.80827 -11.860659,-7.80827 0,0 -0.115438,-2.18844 -0.09884,-3.064 0.01106,-0.582 -0.565687,-0.56369 -0.889553,-0.29652 -0.782426,0.64546 -2.47097,2.56981 -2.47097,2.56981 l -1.68026,-0.0988 -1.087226,-1.58142 c -0.296516,-0.41055 -0.636056,-0.34641 -0.88955,0 -0.545383,1.84962 -0.878698,3.8848 -3.459359,3.95355 l 4.447747,3.95356 c 7.76561,1.55335 15.578734,5.58545 20.261957,14.33163 0,0 4.526451,5.19364 7.116396,7.01755 z"
         id="path2061-3-3"
         sodipodi:nodetypes="csscsscccccccs"
         inkscape:connector-curvature="0"
         stroke-dasharray="none"
         stroke-opacity="1"
         fill="#ffffff"
         fill-rule="evenodd"
         stroke="none"
         stroke-linejoin="miter"
         fill-opacity="1"
         stroke-linecap="butt"
         stroke-width="0.048"
         stroke-miterlimit="4" />
    </clipPath>
    <clipPath
       id="clipPath-5">
      <path
         d="m -515.73002,435.56445 v 5.83767 c 0,9.74315 -7.84377,17.58692 -17.58692,17.58692 h -135.05122 c -9.74315,0 -17.58692,-7.84377 -17.58692,-17.58692 v -5.83767 z"
         id="rect5264-6"
         inkscape:connector-curvature="0"
         sodipodi:nodetypes="csssscc"
         fill="#1b1b1b"
         stroke="none"
         fill-opacity="0.95" />
    </clipPath>
    <clipPath
       id="clipPath2059-7-2"
       clipPathUnits="userSpaceOnUse">
      <path
         stroke-miterlimit="4"
         stroke-width="0.048"
         stroke-linecap="butt"
         fill-opacity="1"
         stroke-linejoin="miter"
         stroke="none"
         fill-rule="evenodd"
         fill="#ffffff"
         stroke-opacity="1"
         stroke-dasharray="none"
         inkscape:connector-curvature="0"
         sodipodi:nodetypes="csscsscccccccs"
         id="path2061-5-9"
         d="m -10.099732,231.68531 c 3.5587363,2.50616 4.8319716,-0.58528 2.9651647,-3.064 -3.1818907,-4.22486 -6.4443207,-9.83985 -12.3548527,-15.91305 -2.594516,-2.66865 -11.860659,-7.80827 -11.860659,-7.80827 0,0 -0.115438,-2.18844 -0.09884,-3.064 0.01106,-0.582 -0.565687,-0.56369 -0.889553,-0.29652 -0.782426,0.64546 -2.47097,2.56981 -2.47097,2.56981 l -1.68026,-0.0988 -1.087226,-1.58142 c -0.296516,-0.41055 -0.636056,-0.34641 -0.88955,0 -0.545383,1.84962 -0.878698,3.8848 -3.459359,3.95355 l 4.447747,3.95356 c 7.76561,1.55335 15.578734,5.58545 20.261957,14.33163 0,0 4.526451,5.19364 7.116396,7.01755 z" />
    </clipPath>
    <clipPath
       id="clipPath1162-1"
       clipPathUnits="userSpaceOnUse">
      <path
         id="path1164-2"
         d="m -65.649736,239.84563 c -9.358079,0 -16.951888,7.59381 -16.951888,16.95188 0,9.35808 7.593811,16.94076 16.951888,16.94077 0.292439,0 0.578792,-0.008 0.867614,-0.0222 2.122786,-0.10753 4.148336,-0.60587 5.995453,-1.42378 l 2.669587,3.97101 c -0.225515,0.4951 -0.245107,0.96445 -0.01111,1.31255 l 15.67271,23.32553 c 0.495366,0.73695 1.94415,0.6317 3.247998,-0.24471 1.303846,-0.87642 1.96364,-2.17735 1.468276,-2.9143 L -51.42304,274.4168 c -0.233058,-0.34672 -0.682887,-0.49868 -1.22356,-0.47831 l -2.558357,-3.80416 c 3.95991,-3.10036 6.507123,-7.91951 6.507123,-13.33682 0,-9.35807 -7.593809,-16.95188 -16.951889,-16.95188 z m 0,2.5806 c 7.92884,0 14.371283,6.44244 14.371283,14.37128 0,7.92885 -6.442435,14.36016 -14.371283,14.36016 -7.928851,0 -14.349039,-6.43131 -14.349039,-14.36016 0,-0.24777 -0.0013,-0.48941 0.01111,-0.73413 0.384376,-7.58638 6.656848,-13.63715 14.337916,-13.63715 z"
         inkscape:connector-curvature="0"
         stroke-dasharray="none"
         stroke-opacity="1"
         fill="#000000"
         stroke="none"
         stroke-linejoin="round"
         fill-opacity="0.347"
         stroke-linecap="round"
         stroke-width="0.071"
         stroke-miterlimit="4" />
    </clipPath>
    <linearGradient
       gradientTransform="matrix(1.0552327,0,0,1.0552327,-0.73393911,-10.83398)"
       gradientUnits="userSpaceOnUse"
       y2="234.96"
       x2="40.1"
       y1="284.94"
       x1="39.35"
       id="linearGradient1334"
       xlink:href="#linearGradient1332"
       inkscape:collect="always" />
    <linearGradient
       inkscape:collect="always"
       id="linearGradient1011">
      <stop
         stop-opacity="1"
         stop-color="#2f2f2f"
         id="stop1007" />
      <stop
         stop-opacity="1"
         stop-color="#1c1c1c"
         offset="1"
         id="stop1009" />
    </linearGradient>
    <linearGradient
       inkscape:collect="always"
       id="linearGradient1003">
      <stop
         stop-opacity="1"
         stop-color="#3d3d3d"
         id="stop999" />
      <stop
         stop-opacity="0.912"
         stop-color="#1c1c1c"
         offset="1"
         id="stop1001" />
    </linearGradient>
    <linearGradient
       inkscape:collect="always"
       id="linearGradient893">
      <stop
         stop-opacity="1"
         stop-color="#040404"
         id="stop889" />
      <stop
         stop-opacity="1"
         stop-color="#383838"
         offset="1"
         id="stop891" />
    </linearGradient>
    <linearGradient
       inkscape:collect="always"
       id="linearGradient881">
      <stop
         stop-opacity="1"
         stop-color="#383838"
         id="stop877" />
      <stop
         stop-opacity="1"
         stop-color="#222222"
         offset="1"
         id="stop879" />
    </linearGradient>
    <linearGradient
       inkscape:collect="always"
       id="linearGradient866">
      <stop
         stop-opacity="1"
         stop-color="#3e3e3e"
         id="stop862" />
      <stop
         stop-opacity="1"
         stop-color="#121212"
         offset="1"
         id="stop864" />
    </linearGradient>
    <linearGradient
       inkscape:collect="always"
       id="linearGradient856">
      <stop
         stop-opacity="1"
         stop-color="#2b2b2b"
         id="stop852" />
      <stop
         stop-opacity="1"
         stop-color="#272727"
         id="stop860"
         offset="0.522" />
      <stop
         stop-opacity="1"
         stop-color="#000000"
         offset="1"
         id="stop854" />
    </linearGradient>
    <linearGradient
       inkscape:collect="always"
       id="linearGradient848">
      <stop
         stop-opacity="1"
         stop-color="#5a5a5a"
         id="stop844" />
      <stop
         stop-opacity="1"
         stop-color="#353535"
         offset="1"
         id="stop846" />
    </linearGradient>
    <linearGradient
       inkscape:collect="always"
       id="linearGradient840">
      <stop
         stop-opacity="1"
         stop-color="#363636"
         id="stop836" />
      <stop
         stop-opacity="1"
         stop-color="#000000"
         offset="1"
         id="stop838" />
    </linearGradient>
    <linearGradient
       inkscape:collect="always"
       id="linearGradient828">
      <stop
         stop-opacity="1"
         stop-color="#000000"
         id="stop824" />
      <stop
         stop-opacity="1"
         stop-color="#202020"
         id="stop834"
         offset="0.207" />
      <stop
         stop-opacity="1"
         stop-color="#2b2b2b"
         id="stop832"
         offset="0.862" />
      <stop
         stop-opacity="1"
         stop-color="#1c1c1c"
         offset="1"
         id="stop826" />
    </linearGradient>
    <linearGradient
       inkscape:collect="always"
       xlink:href="#linearGradient828"
       id="linearGradient830"
       x1="22.982"
       y1="148.86"
       x2="108.13"
       y2="247.22"
       gradientUnits="userSpaceOnUse"
       spreadMethod="reflect"
       gradientTransform="matrix(0.86839774,0,0,0.86839774,31.71732,7.6262818)" />
    <linearGradient
       inkscape:collect="always"
       xlink:href="#linearGradient840"
       id="linearGradient842"
       x1="160.27"
       y1="207.72"
       x2="169.76"
       y2="219.85"
       gradientUnits="userSpaceOnUse"
       gradientTransform="matrix(0.86839774,0,0,0.86839774,31.71732,7.6262818)" />
    <linearGradient
       inkscape:collect="always"
       xlink:href="#linearGradient848"
       id="linearGradient850"
       x1="72.62"
       y1="179.63"
       x2="114.03"
       y2="181.87"
       gradientUnits="userSpaceOnUse"
       spreadMethod="reflect"
       gradientTransform="matrix(0.86839774,0,0,0.86839774,31.71732,7.6262818)" />
    <linearGradient
       inkscape:collect="always"
       xlink:href="#linearGradient856"
       id="linearGradient858"
       x1="112.29"
       y1="115.38"
       x2="186.77"
       y2="110.79"
       gradientUnits="userSpaceOnUse"
       spreadMethod="reflect"
       gradientTransform="matrix(0.86839774,0,0,0.86839774,31.71732,7.6262818)" />
    <radialGradient
       inkscape:collect="always"
       xlink:href="#linearGradient866"
       id="radialGradient870"
       cx="94.08"
       cy="88.54"
       fx="94.08"
       fy="88.54"
       r="88.39"
       gradientTransform="matrix(0.84666384,-0.19306729,0.09934842,0.43567565,24.965441,22.507678)"
       gradientUnits="userSpaceOnUse" />
    <linearGradient
       inkscape:collect="always"
       xlink:href="#linearGradient881"
       id="linearGradient883"
       x1="138.56"
       y1="174.09"
       x2="136.49"
       y2="186.45"
       gradientUnits="userSpaceOnUse"
       spreadMethod="reflect"
       gradientTransform="matrix(0.86839774,0,0,0.86839774,31.71732,7.6262818)" />
    <linearGradient
       inkscape:collect="always"
       xlink:href="#linearGradient881"
       id="linearGradient887"
       gradientUnits="userSpaceOnUse"
       x1="138.56"
       y1="174.09"
       x2="136.49"
       y2="186.45"
       spreadMethod="reflect"
       gradientTransform="matrix(-0.86839774,0,0,0.86839774,325.53785,-9.9368184)" />
    <linearGradient
       inkscape:collect="always"
       xlink:href="#linearGradient893"
       id="linearGradient895"
       x1="100.19"
       y1="-2.05"
       x2="103.31"
       y2="48.51"
       gradientUnits="userSpaceOnUse"
       gradientTransform="translate(12.030075,-18.255333)" />
    <filter
       color-interpolation-filters="sRGB"
       inkscape:collect="always"
       id="filter907"
       x="-0.015"
       width="1.03"
       y="-0.057"
       height="1.113">
      <feGaussianBlur
         inkscape:collect="always"
         id="feGaussianBlur909" />
    </filter>
    <filter
       color-interpolation-filters="sRGB"
       inkscape:collect="always"
       id="filter955"
       x="-0.07"
       width="1.141"
       y="-0.41"
       height="1.82">
      <feGaussianBlur
         inkscape:collect="always"
         id="feGaussianBlur957" />
    </filter>
    <filter
       color-interpolation-filters="sRGB"
       inkscape:collect="always"
       id="filter989"
       x="-0.046"
       width="1.092"
       y="-0.478"
       height="1.955">
      <feGaussianBlur
         inkscape:collect="always"
         id="feGaussianBlur991" />
    </filter>
    <radialGradient
       inkscape:collect="always"
       xlink:href="#linearGradient1003"
       id="radialGradient1005"
       cx="160.26"
       cy="197.09"
       fx="160.26"
       fy="197.09"
       r="72.46"
       gradientTransform="matrix(0.81490768,-0.50154411,0.11769713,0.19123402,17.092813,223.89672)"
       gradientUnits="userSpaceOnUse" />
    <linearGradient
       inkscape:collect="always"
       xlink:href="#linearGradient1011"
       id="linearGradient1013"
       x1="151.95"
       y1="201.72"
       x2="161.24"
       y2="215.16"
       gradientUnits="userSpaceOnUse"
       gradientTransform="matrix(0.86839774,0,0,0.86839774,31.71732,7.6262818)" />
    <filter
       color-interpolation-filters="sRGB"
       inkscape:collect="always"
       id="filter1029"
       x="-0.028"
       width="1.057"
       y="-0.049"
       height="1.098">
      <feGaussianBlur
         inkscape:collect="always"
         id="feGaussianBlur1031" />
    </filter>
    <linearGradient
       inkscape:collect="always"
       id="linearGradient4158">
      <stop
         stop-opacity="1"
         stop-color="#e5e5e5"
         id="stop4160" />
      <stop
         stop-opacity="1"
         stop-color="#b1b1b1"
         offset="1"
         id="stop4162" />
    </linearGradient>
    <linearGradient
       inkscape:collect="always"
       xlink:href="#linearGradient4158"
       id="linearGradient4164"
       x1="111.09"
       y1="76.06"
       x2="139.22"
       y2="105.28"
       gradientUnits="userSpaceOnUse"
       spreadMethod="reflect" />
    <filter
       color-interpolation-filters="sRGB"
       inkscape:collect="always"
       id="filter3019"
       x="-0.012869851"
       width="1.0257397"
       y="-0.014402496"
       height="1.028805">
      <feGaussianBlur
         stdDeviation="0.34579704"
         inkscape:collect="always"
         id="feGaussianBlur3021" />
    </filter>
  </defs>
  <sodipodi:namedview
     inkscape:document-rotation="0"
     showguides="false"
     units="px"
     inkscape:window-maximized="1"
     inkscape:window-y="0"
     inkscape:window-x="0"
     inkscape:window-height="1056"
     inkscape:window-width="1920"
     inkscape:snap-global="false"
     inkscape:snap-nodes="false"
     inkscape:object-nodes="false"
     inkscape:snap-others="false"
     inkscape:snap-grids="false"
     inkscape:snap-to-guides="false"
     showgrid="false"
     inkscape:current-layer="layer1"
     inkscape:document-units="px"
     inkscape:cy="117.58782"
     inkscape:cx="127.5"
     inkscape:zoom="2.31"
     inkscape:pageshadow="2"
     inkscape:pageopacity="0"
     borderopacity="1.0"
     bordercolor="#666666"
     pagecolor="#ff0000"
     id="base" />
  <metadata
     id="metadata5">
    <rdf:RDF>
      <cc:Work>
        <dc:format>image/svg+xml</dc:format>
        <dc:type
           rdf:resource="http://purl.org/dc/dcmitype/StillImage" />
        <dc:title />
      </cc:Work>
    </rdf:RDF>
  </metadata>
  <g
     transform="translate(0,-229.53126)"
     id="layer1"
     inkscape:groupmode="layer"
     inkscape:label="Layer 1">
    <rect
       style="filter:url(#filter3019)"
       stroke-miterlimit="4"
       stroke-dashoffset="0"
       stroke-width="0"
       stroke-linecap="butt"
       fill-opacity="0.877"
       stroke-linejoin="round"
       stroke="none"
       filter="url(#filter3019)"
       mix-blend-mode="normal"
       fill="#000000"
       stroke-opacity="1"
       stroke-dasharray="none"
       transform="matrix(0.88315133,-0.46908819,0.46699373,0.88426063,0,0)"
       y="231.01"
       x="-121.4"
       height="36.735"
       width="53.592"
       id="rect3299" />
    <g
       id="g1961"
       transform="matrix(0.7454921,-0.38910535,0.38910535,0.7454921,-92.950738,81.23433)">
      <rect
         id="rect825"
         width="65.02"
         height="43.479"
         x="1.424"
         y="238.74"
         opacity="1"
         stroke-dasharray="none"
         stroke-opacity="1"
         paint-order="normal"
         fill="#e5c69f"
         fill-rule="evenodd"
         stroke="#b1540c"
         stroke-linejoin="round"
         fill-opacity="1"
         stroke-linecap="round"
         stroke-width="0.724"
         stroke-dashoffset="0"
         stroke-miterlimit="4" />
      <rect
         id="rect1031"
         width="1.045"
         height="53.17"
         x="195.3"
         y="289.25"
         transform="matrix(1,0,-0.56571546,0.82460052,0,0)"
         opacity="1"
         stroke-dasharray="none"
         stroke-opacity="1"
         paint-order="normal"
         fill="#000bff"
         fill-rule="evenodd"
         stroke="none"
         stroke-linejoin="round"
         fill-opacity="1"
         stroke-linecap="round"
         stroke-width="0.003"
         stroke-dashoffset="0"
         stroke-miterlimit="4" />
      <rect
         transform="matrix(1,0,-0.56571546,0.82460052,0,0)"
         y="289.25"
         x="197.21"
         height="53.17"
         width="1.045"
         id="rect1033"
         opacity="1"
         stroke-dasharray="none"
         stroke-opacity="1"
         paint-order="normal"
         fill="#000bff"
         fill-rule="evenodd"
         stroke="none"
         stroke-linejoin="round"
         fill-opacity="1"
         stroke-linecap="round"
         stroke-width="0.003"
         stroke-dashoffset="0"
         stroke-miterlimit="4" />
      <rect
         id="rect1035"
         width="1.045"
         height="53.17"
         x="199.19"
         y="289.25"
         transform="matrix(1,0,-0.56571546,0.82460052,0,0)"
         opacity="1"
         stroke-dasharray="none"
         stroke-opacity="1"
         paint-order="normal"
         fill="#000bff"
         fill-rule="evenodd"
         stroke="none"
         stroke-linejoin="round"
         fill-opacity="1"
         stroke-linecap="round"
         stroke-width="0.003"
         stroke-dashoffset="0"
         stroke-miterlimit="4" />
    </g>
    <g
       inkscape:label="Layer 1"
       id="layer1-6"
       transform="matrix(0.39509032,-0.20821899,0.20821899,0.39509032,-25.958234,156.57149)">
      <path
         d="m 14.003528,233.11028 v 1.98001 a 1.8446941,1.8446941 0 0 1 1.296193,1.75916 1.8446941,1.8446941 0 0 1 -1.296193,1.76134 v 0.96683 a 1.8446941,1.8446941 0 0 1 1.296193,1.75916 1.8446941,1.8446941 0 0 1 -1.296193,1.76134 v 0.96682 a 1.8446941,1.8446941 0 0 1 1.296193,1.75862 1.8446941,1.8446941 0 0 1 -1.296193,1.76135 v 1.06662 a 1.8446941,1.8446941 0 0 1 1.296193,1.75915 1.8446941,1.8446941 0 0 1 -1.296193,1.76135 v 0.96682 a 1.8446941,1.8446941 0 0 1 1.296193,1.7586 1.8446941,1.8446941 0 0 1 -1.296193,1.76135 v 0.96683 a 1.8446941,1.8446941 0 0 1 1.296193,1.75916 1.8446941,1.8446941 0 0 1 -1.296193,1.76134 v 0.96683 a 1.8446941,1.8446941 0 0 1 1.296193,1.75915 1.8446941,1.8446941 0 0 1 -1.296193,1.7608 v 1.06662 a 1.8446941,1.8446941 0 0 1 1.296193,1.75917 1.8446941,1.8446941 0 0 1 -1.296193,1.76133 v 0.96684 a 1.8446941,1.8446941 0 0 1 1.296193,1.75915 1.8446941,1.8446941 0 0 1 -1.296193,1.76079 v 1.26621 a 1.8446941,1.8446941 0 0 1 1.296193,1.75916 1.8446941,1.8446941 0 0 1 -1.296193,1.76134 v 0.96628 a 1.8446941,1.8446941 0 0 1 1.296193,1.75917 1.8446941,1.8446941 0 0 1 -1.296193,1.76133 v 0.86704 a 1.8446941,1.8446941 0 0 1 1.296193,1.75915 1.8446941,1.8446941 0 0 1 -1.296193,1.76135 v 0.96682 a 1.8446941,1.8446941 0 0 1 1.296193,1.75917 1.8446941,1.8446941 0 0 1 -1.296193,1.76079 v 1.97837 h 2.113062 a 1.8446941,1.8446941 0 0 1 1.825687,-1.59557 1.8446941,1.8446941 0 0 1 1.825686,1.59557 h 0.83541 a 1.8446941,1.8446941 0 0 1 1.825686,-1.59557 1.8446941,1.8446941 0 0 1 1.825687,1.59557 h 0.835956 a 1.8446941,1.8446941 0 0 1 1.825686,-1.59557 1.8446941,1.8446941 0 0 1 1.825684,1.59557 h 0.835956 a 1.8446941,1.8446941 0 0 1 1.825141,-1.59557 1.8446941,1.8446941 0 0 1 1.825688,1.59557 h 0.935746 a 1.8446941,1.8446941 0 0 1 1.825685,-1.59557 1.8446941,1.8446941 0 0 1 1.825687,1.59557 h 0.835954 a 1.8446941,1.8446941 0 0 1 1.825142,-1.59557 1.8446941,1.8446941 0 0 1 1.825688,1.59557 h 0.835955 a 1.8446941,1.8446941 0 0 1 1.825686,-1.59557 1.8446941,1.8446941 0 0 1 1.825686,1.59557 h 0.835954 a 1.8446941,1.8446941 0 0 1 1.825689,-1.59557 1.8446941,1.8446941 0 0 1 1.825141,1.59557 h 0.935746 a 1.8446941,1.8446941 0 0 1 1.825684,-1.59557 1.8446941,1.8446941 0 0 1 1.825687,1.59557 h 0.835955 a 1.8446941,1.8446941 0 0 1 1.825689,-1.59557 1.8446941,1.8446941 0 0 1 1.825141,1.59557 h 0.835954 a 1.8446941,1.8446941 0 0 1 1.825686,-1.59557 1.8446941,1.8446941 0 0 1 1.825687,1.59557 h 1.913482 v -1.89658 a 1.8446941,1.8446941 0 0 1 -1.794606,-1.84258 1.8446941,1.8446941 0 0 1 1.794606,-1.84205 v -0.80215 a 1.8446941,1.8446941 0 0 1 -1.794606,-1.84314 1.8446941,1.8446941 0 0 1 1.794606,-1.84204 v -0.70236 a 1.8446941,1.8446941 0 0 1 -1.794606,-1.84312 1.8446941,1.8446941 0 0 1 1.794606,-1.84205 v -0.80162 a 1.8446941,1.8446941 0 0 1 -1.794606,-1.84312 1.8446941,1.8446941 0 0 1 1.794606,-1.84205 v -1.10152 a 1.8446941,1.8446941 0 0 1 -1.794606,-1.84259 1.8446941,1.8446941 0 0 1 1.794606,-1.84205 v -0.80215 a 1.8446941,1.8446941 0 0 1 -1.794606,-1.84312 1.8446941,1.8446941 0 0 1 1.794606,-1.84205 v -0.90193 a 1.8446941,1.8446941 0 0 1 -1.794606,-1.84261 1.8446941,1.8446941 0 0 1 1.794606,-1.84204 v -0.80214 a 1.8446941,1.8446941 0 0 1 -1.794606,-1.84314 1.8446941,1.8446941 0 0 1 1.794606,-1.84204 v -0.80215 a 1.8446941,1.8446941 0 0 1 -1.794606,-1.84315 1.8446941,1.8446941 0 0 1 1.794606,-1.84149 v -0.80215 a 1.8446941,1.8446941 0 0 1 -1.794606,-1.84313 1.8446941,1.8446941 0 0 1 1.794606,-1.84204 v -0.90195 a 1.8446941,1.8446941 0 0 1 -1.794606,-1.84313 1.8446941,1.8446941 0 0 1 1.794606,-1.8415 v -0.80215 a 1.8446941,1.8446941 0 0 1 -1.794606,-1.84313 1.8446941,1.8446941 0 0 1 1.794606,-1.84204 v -0.80215 a 1.8446941,1.8446941 0 0 1 -1.794606,-1.84314 1.8446941,1.8446941 0 0 1 1.794606,-1.84204 v -1.89713 h -1.951654 a 1.8446941,1.8446941 0 0 1 -1.787515,1.39599 1.8446941,1.8446941 0 0 1 -1.786969,-1.39599 H 60.3126 a 1.8446941,1.8446941 0 0 1 -1.786969,1.39599 1.8446941,1.8446941 0 0 1 -1.78697,-1.39599 h -0.912845 a 1.8446941,1.8446941 0 0 1 -1.787516,1.39599 1.8446941,1.8446941 0 0 1 -1.786968,-1.39599 h -1.012634 a 1.8446941,1.8446941 0 0 1 -1.786969,1.39599 1.8446941,1.8446941 0 0 1 -1.78697,-1.39599 h -0.912845 a 1.8446941,1.8446941 0 0 1 -1.787514,1.39599 1.8446941,1.8446941 0 0 1 -1.78697,-1.39599 h -0.912842 a 1.8446941,1.8446941 0 0 1 -1.787517,1.39599 1.8446941,1.8446941 0 0 1 -1.786422,-1.39599 h -0.912844 a 1.8446941,1.8446941 0 0 1 -1.787517,1.39599 1.8446941,1.8446941 0 0 1 -1.786969,-1.39599 h -1.012633 a 1.8446941,1.8446941 0 0 1 -1.787517,1.39599 1.8446941,1.8446941 0 0 1 -1.786423,-1.39599 h -0.912843 a 1.8446941,1.8446941 0 0 1 -1.787515,1.39599 1.8446941,1.8446941 0 0 1 -1.78697,-1.39599 h -0.912843 a 1.8446941,1.8446941 0 0 1 -1.787516,1.39599 1.8446941,1.8446941 0 0 1 -1.786968,-1.39599 h -0.912299 a 1.8446941,1.8446941 0 0 1 -1.787515,1.39599 1.8446941,1.8446941 0 0 1 -1.786969,-1.39599 z"
         id="rect844"
         inkscape:connector-curvature="0"
         opacity="1"
         stroke-dasharray="none"
         stroke-opacity="1"
         paint-order="normal"
         fill="#ede1b3"
         fill-rule="evenodd"
         stroke="none"
         stroke-linejoin="round"
         fill-opacity="1"
         stroke-linecap="round"
         stroke-width="0.082"
         stroke-dashoffset="0"
         stroke-miterlimit="4" />
      <rect
         id="rect1326"
         width="43.672"
         height="52.661"
         x="18.358"
         y="237.18"
         opacity="1"
         stroke-dasharray="none"
         stroke-opacity="0.491"
         paint-order="normal"
         fill="url(#linearGradient1334)"
         fill-rule="evenodd"
         stroke="none"
         stroke-linejoin="round"
         fill-opacity="1"
         stroke-linecap="round"
         stroke-width="0.475"
         stroke-dashoffset="0"
         stroke-miterlimit="4" />
      <rect
         id="rect1557"
         width="45.819"
         height="55.37"
         x="17.323"
         y="235.91"
         opacity="1"
         stroke-dasharray="none"
         stroke-opacity="0.491"
         paint-order="normal"
         fill="none"
         fill-rule="evenodd"
         stroke="#4a3300"
         stroke-linejoin="round"
         fill-opacity="1"
         stroke-linecap="round"
         stroke-width="0.475"
         stroke-dashoffset="0"
         stroke-miterlimit="4" />
      <g
         id="g1297"
         transform="matrix(0.17028836,0,0,0.17028836,18.048076,240.90458)">
        <path
           stroke-width="0.868"
           stroke-linecap="butt"
           fill-opacity="0.779"
           stroke-linejoin="miter"
           stroke="none"
           filter="url(#filter1029)"
           fill="#000000"
           stroke-opacity="1"
           d="m 22.150164,208.13323 c 4.822032,29.56754 47.080402,49.72125 83.138406,34.73591 21.68839,-9.01348 44.00043,-19.7854 63.77741,-34.16647 20.38682,-14.82452 41.6277,-25.34197 62.06908,-51.81914 l -3.41665,-7.97218 -93.95778,-18.79156 c -28.17029,-5.63406 -56.960423,-5.7434 -81.145365,8.82634 -27.959436,16.8436 -35.143892,40.49787 -30.465101,69.1871 z"
           id="path1015"
           inkscape:connector-curvature="0"
           sodipodi:nodetypes="sssccsss" />
        <path
           stroke-width="0.868"
           stroke-linecap="butt"
           fill-opacity="1"
           stroke-linejoin="miter"
           stroke="none"
           fill="url(#linearGradient842)"
           stroke-opacity="1"
           sodipodi:nodetypes="sssccsss"
           inkscape:connector-curvature="0"
           id="path812"
           d="m 24.029864,200.61443 c 4.822032,29.56754 47.080402,49.72125 83.138406,34.73591 21.68839,-9.01348 44.00043,-19.7854 63.77741,-34.16647 20.38682,-14.82452 41.6277,-25.34197 62.06908,-51.81914 l -3.41665,-7.97218 -93.95778,-18.79156 c -28.17029,-5.63406 -56.960423,-5.7434 -81.145365,8.82634 -27.959436,16.8436 -35.143892,40.49787 -30.465101,69.1871 z" />
        <path
           stroke-width="0.868"
           stroke-linecap="butt"
           fill-opacity="1"
           stroke-linejoin="miter"
           stroke="none"
           fill="url(#linearGradient830)"
           stroke-opacity="1"
           sodipodi:nodetypes="ssccsss"
           inkscape:connector-curvature="0"
           id="path816"
           d="m 29.154835,199.19083 c 4.822031,29.56754 41.67071,46.01988 77.728715,31.03453 21.68838,-9.01347 32.32689,-23.77148 52.10387,-38.15255 13.3366,-15.40876 43.32427,-33.7727 66.33989,-49.25666 l -89.68698,-20.21516 c -28.0251,-6.31677 -56.106261,-3.75035 -80.291203,10.81938 -27.959436,16.8436 -30.873084,37.08123 -26.194292,65.77046 z" />
        <path
           stroke-width="0.868"
           stroke-linecap="butt"
           fill-opacity="1"
           stroke-linejoin="miter"
           stroke="none"
           fill="url(#linearGradient858)"
           stroke-opacity="1"
           sodipodi:nodetypes="cccccccc"
           inkscape:connector-curvature="0"
           id="path818"
           d="M 55.349127,174.98957 C 57.836788,129.05542 54.463256,84.355216 42.536701,41.455637 41.25235,36.387987 41.856594,32.174497 47.36048,27.106846 79.330821,7.4018678 163.33678,-1.4811066 190.87611,16.684946 c 4.01645,2.310044 4.37884,8.155434 3.70137,13.666588 -3.48461,37.850845 -5.33472,76.110316 9.11107,118.443746 -20.96779,38.51023 -44.97918,43.54088 -68.90239,49.54138 -30.04006,1.43447 -61.804458,7.33194 -79.437033,-23.34709 z" />
        <path
           stroke-miterlimit="4"
           stroke-dashoffset="0"
           stroke-width="0.608"
           stroke-linecap="butt"
           fill-opacity="1"
           stroke-linejoin="miter"
           stroke="#000000"
           fill="url(#linearGradient850)"
           stroke-opacity="1"
           stroke-dasharray="1.21576 0.607878"
           d="m 55.349127,174.98957 c 0.779338,-7.21215 1.107173,-20.02366 0.569441,-27.90261 3.923102,11.12224 44.205652,32.3844 84.340222,14.85355 2.43023,-1.06153 28.77242,-1.53965 28.77242,-1.53965 0,0 10.747,-6.94783 14.60645,-9.59892 2.84584,-9.02242 10.68033,-20.74524 12.79332,-28.48568 0.50148,8.52463 2.49228,10.90931 7.25757,26.47902 -20.96779,38.51023 -44.97918,43.54088 -68.90239,49.54138 -30.04006,1.43447 -61.804458,7.33194 -79.437033,-23.34709 z"
           id="path820"
           inkscape:connector-curvature="0"
           sodipodi:nodetypes="ccscccccc" />
        <path
           stroke-width="0.868"
           stroke-linecap="butt"
           fill-opacity="1"
           stroke-linejoin="miter"
           stroke="none"
           fill="url(#radialGradient870)"
           stroke-opacity="1"
           d="m 42.536701,41.455637 c -1.284351,-5.06765 -0.680107,-9.28114 4.823779,-14.348791 31.970341,-19.7049782 115.9763,-28.5879526 143.51563,-10.4219 4.01645,2.310044 4.09411,3.884625 3.41665,9.395779 -31.94727,17.797612 -46.16818,20.558142 -74.59678,21.638766 -32.809726,-0.03943 -51.806483,1.512329 -77.159279,-6.263854 z"
           id="path822"
           inkscape:connector-curvature="0"
           sodipodi:nodetypes="cccccc" />
        <path
           stroke-miterlimit="4"
           stroke-dashoffset="0"
           stroke-width="1.476"
           stroke-linecap="butt"
           fill-opacity="1"
           stroke-linejoin="miter"
           stroke="none"
           fill="#333333"
           stroke-opacity="0.955"
           stroke-dasharray="none"
           opacity="1"
           sodipodi:nodetypes="ccccc"
           inkscape:connector-curvature="0"
           id="rect872"
           d="m 167.99227,159.79257 15.55057,-8.74539 3.1567,22.42897 -15.98048,8.74539 z" />
        <path
           stroke-width="0.868"
           stroke-linecap="butt"
           fill-opacity="1"
           stroke-linejoin="miter"
           stroke="#212121"
           fill="url(#linearGradient883)"
           stroke-opacity="1"
           sodipodi:nodetypes="ccccc"
           inkscape:connector-curvature="0"
           id="path875"
           d="m 167.99397,160.34406 -30.10224,1.26639 c 4.8564,11.15956 6.89079,23.41782 3.96289,36.30722 l 28.74129,-10.57847 z" />
        <path
           stroke-width="0.868"
           stroke-linecap="butt"
           fill-opacity="1"
           stroke-linejoin="miter"
           stroke="#212121"
           fill="url(#linearGradient887)"
           stroke-opacity="1"
           d="m 184.05732,150.91203 11.70874,-24.3932 c -4.8564,11.15956 4.22743,22.2368 7.15534,35.1262 l -16.26213,8.13106 z"
           id="path885"
           inkscape:connector-curvature="0"
           sodipodi:nodetypes="ccccc" />
        <path
           stroke-width="0.868"
           stroke-linecap="butt"
           fill-opacity="1"
           stroke-linejoin="miter"
           stroke="url(#linearGradient1013)"
           fill="url(#radialGradient1005)"
           stroke-opacity="1"
           d="m 106.10719,235.35034 c 21.68839,-9.01348 38.22822,-24.34093 58.0052,-38.722 20.38682,-14.82452 45.32906,-33.88359 68.90237,-47.26361 l -3.41665,-7.97218 c -25.71278,14.44444 -50.30759,31.87014 -73.74262,52.38858 -14.26121,12.80541 -34.1493,31.45196 -49.7483,41.56921 z"
           id="path814"
           inkscape:connector-curvature="0"
           sodipodi:nodetypes="cscccc" />
        <path
           stroke-width="1"
           stroke-linecap="butt"
           fill-opacity="1"
           stroke-linejoin="miter"
           stroke="url(#linearGradient895)"
           filter="url(#filter907)"
           fill="none"
           stroke-opacity="1"
           transform="matrix(0.86839774,0,0,0.86839774,21.27043,23.479172)"
           sodipodi:nodetypes="cccccc"
           inkscape:connector-curvature="0"
           id="path897"
           d="M 26.016446,21.31167 C 24.537457,15.476037 25.233272,11.234952 31.57125,5.3993186 68.38657,-17.291872 161.76312,-28.131968 193.47593,-7.2129214 c 4.62512,2.6601219 4.71456,3.5569109 3.93443,9.903259 C 160.62161,23.185108 146.0784,26.669456 113.34156,27.913844 75.559644,27.868434 55.211358,30.266303 26.016446,21.31167 Z" />
        <path
           stroke-miterlimit="4"
           stroke-width="2.1"
           stroke-linecap="butt"
           stroke-linejoin="miter"
           stroke="#1d1d1d"
           filter="url(#filter989)"
           fill="none"
           stroke-opacity="1"
           stroke-dasharray="none"
           transform="matrix(0.86839774,0,0,0.86839774,21.27043,23.479172)"
           sodipodi:nodetypes="cc"
           inkscape:connector-curvature="0"
           id="path911"
           d="m 143.6881,174.49689 c 8.45137,2.22069 16.90273,0.15166 25.3541,-2.44377" />
        <path
           stroke-miterlimit="4"
           stroke-width="2.1"
           stroke-linecap="butt"
           stroke-linejoin="miter"
           stroke="#ffffff"
           filter="url(#filter955)"
           fill="none"
           stroke-opacity="0.129"
           stroke-dasharray="none"
           transform="matrix(0.86839774,0,0,0.86839774,21.27043,23.479172)"
           d="m 146.74282,182.43914 c 11.31053,2.16211 14.646,-4.79015 20.77203,-8.5532"
           id="path959"
           inkscape:connector-curvature="0"
           sodipodi:nodetypes="cc" />
        <path
           stroke-miterlimit="4"
           stroke-width="2.1"
           stroke-linecap="butt"
           stroke-linejoin="miter"
           stroke="#1d1d1d"
           filter="url(#filter989)"
           fill="none"
           stroke-opacity="1"
           stroke-dasharray="none"
           transform="matrix(-0.62466532,0.60324777,0.60324777,0.62466532,169.23783,-54.398739)"
           d="m 138.81133,191.36477 c 8.45137,2.22069 9.74942,1.53912 18.20079,-1.05631"
           id="path993"
           inkscape:connector-curvature="0"
           sodipodi:nodetypes="cc" />
        <path
           stroke-miterlimit="4"
           stroke-width="2.1"
           stroke-linecap="butt"
           stroke-linejoin="miter"
           stroke="#ffffff"
           filter="url(#filter955)"
           fill="none"
           stroke-opacity="0.129"
           stroke-dasharray="none"
           transform="matrix(-0.81335484,-0.30425076,-0.30425076,0.81335484,331.01759,61.885852)"
           d="m 132.87991,182.97716 c 4.5523,2.47666 9.6807,4.8093 23.82674,4.88753"
           id="path995"
           inkscape:connector-curvature="0"
           sodipodi:nodetypes="cc" />
        <path
           stroke-miterlimit="4"
           stroke-width="2.1"
           stroke-linecap="butt"
           stroke-linejoin="miter"
           stroke="#ffffff"
           filter="url(#filter955)"
           fill="none"
           stroke-opacity="0.129"
           stroke-dasharray="none"
           transform="matrix(-0.1227729,0.8596752,0.8596752,0.1227729,40.103134,0.58022556)"
           sodipodi:nodetypes="cc"
           inkscape:connector-curvature="0"
           id="path997"
           d="m 134.71274,200.69448 c 11.31053,2.16211 14.646,-4.79015 20.77203,-8.5532" />
      </g>
      <g
         id="g1034"
         transform="matrix(0.13939562,0,0,0.13939562,34.23351,261.60141)">
        <path
           stroke-width="1"
           fill-opacity="1"
           stroke="none"
           fill="url(#linearGradient4164)"
           sodipodi:nodetypes="cccccccccccccccccccccccccccccccccccccccccccccccccccccccccccccccccccccccccccccccccccccccccccccccccccccccccccccccccccccccccccccccccccccccccccccccccccccccccccccccccccccccccccccccccccccccccccccccccccccccccccccccccccccccccccccccccccccccccccccccccccccccccccccccccccccccccccccccccccccccccccccccccccccccccccccccccccccccccccccccccccccccccccccccccccccccccccccccccccccccccccccccccccccccccccccc"
           inkscape:connector-curvature="0"
           d="m 179.55772,46.625591 c 0.86973,0.536649 1.73394,1.585992 2.86486,1.041091 0.47127,-0.224344 1.26971,-1.21606 1.73058,-1.636187 1.4261,-1.307352 3.69594,-3.031101 4.615,-4.804797 0.41702,-0.803211 0.22682,-1.404937 0.73639,-2.237742 0.89775,-1.469282 3.05354,-2.310032 4.25138,-3.582577 2.58341,-2.749298 1.20052,-2.519829 2.47969,-4.679026 l 1.70663,-2.941693 c 0.78841,-1.433915 1.9445,-2.363531 0.87043,-4.066942 -2.71401,-4.304668 -7.37497,-2.614633 -10.98904,-3.947743 -1.32145,-0.486882 -1.2982,-0.793626 -3.04192,-1.114429 -1.37908,-0.252825 -5.10065,-0.351209 -6.50761,-0.225571 l -3.49319,0.344437 c -1.90243,0.01921 -1.82111,-0.867416 -3.67997,-0.743874 -2.01369,0.132577 -4.10362,1.486359 -5.89324,1.560713 -1.51586,0.06589 -2.5035,-0.685382 -4.46122,-0.179415 -1.32999,0.341619 -2.95561,1.540818 -4.14614,2.246483 l -2.34194,1.213417 -5.64656,5.198488 -5.53933,8.472217 c -0.44493,-3.179782 0.94092,-8.412875 1.90637,-11.528394 0.49753,-1.599025 1.47021,-4.004115 1.37045,-5.612151 l -5.67337,3.584166 -1.74667,2.076308 -3.14285,0.973422 -2.82517,2.000724 -2.20184,0.933347 -5.48433,3.345242 -2.1986,2.925767 c -1.49779,-0.551653 -1.99035,0.478523 -2.89248,1.546177 l -0.73609,-1.017164 -8.17696,5.855415 -3.452,4.656961 c -1.40881,-0.822999 -2.06959,-0.08954 -3.27902,0.823064 -1.93602,1.459387 -3.25676,3.587582 -5.557427,4.477576 l 1.955077,-4.722399 1.90266,-3.174726 c -2.18606,1.818102 -5.30012,5.406349 -6.79799,7.811336 l -5.538424,9.28479 c -2.083731,2.704051 -3.242125,6.815277 -4.555666,10.079687 -0.911666,-2.251246 0.464701,-2.756801 0.647197,-5.02675 -2.327252,1.408827 -2.824375,1.659178 -4.190716,4.035533 -0.577406,-0.680723 -1.140158,-1.241682 -1.370731,-2.136018 -0.492581,-1.90268 0.389403,-2.577407 -0.937491,-4.581045 l -0.821967,4.879729 -2.067481,8.607269 -2.844364,5.964012 -2.264146,3.268574 -1.88108,5.580534 c -0.264066,-3.588731 0.101203,-3.488388 1.084397,-6.64867 0.353845,-1.134927 0.41306,-1.626321 1.016276,-2.726559 0.855667,-1.556418 3.579084,-5.489203 3.861536,-6.700105 -3.588683,2.520437 -4.349712,4.522567 -6.252695,8.270062 -2.917789,5.739086 -3.642856,6.880088 -5.505494,13.275993 l -1.128163,-0.5511 1.201517,-4.162495 1.023269,-2.720673 2.195096,-4.520487 -2.696434,1.31315 1.261248,-2.918418 -1.902657,3.174725 -2.959729,4.275192 -2.020904,5.462916 c -2.288884,-1.7305 -1.784021,-5.074307 -1.99277,-7.64552 -0.648284,0.728058 -1.598167,1.417285 -1.96034,2.330315 -0.675791,1.361527 -0.373183,3.116325 -0.21159,4.589355 0.52567,4.767852 2.268489,7.885422 5.910773,10.949432 -1.779472,0.24206 -4.689346,-2.52418 -6.228155,-3.47645 -2.973035,-1.84441 -9.392149,-4.251852 -12.839593,-4.605132 2.737913,2.852392 3.002781,0.5602 7.505059,4.323802 l -0.5881,0.6991 c 2.440656,1.96163 3.774202,1.86177 5.706962,3.62297 1.503356,1.36814 2.960039,3.54862 3.831163,5.37975 0.641734,1.35166 0.803772,2.47884 1.71035,3.64341 -2.360793,0.0674 -2.926887,-2.7129 -4.554777,-4.04652 -2.481644,-2.03591 -7.97427,-4.62699 -11.126997,-5.2218 -1.77952,-0.33501 -3.288765,-0.51826 -4.980205,0.24356 1.364221,1.85994 2.678468,2.38851 3.426621,3.49541 0.946415,1.40103 1.276951,3.35443 2.246737,4.42493 1.504356,1.6555 4.458489,3.70686 3.969852,6.16098 l -3.839506,-4.42374 3.086273,8.02022 -0.126964,1.23424 -2.161229,-3.10743 c -3.963216,-3.72796 -10.181091,-5.30553 -14.158183,-0.67245 3.269268,0.0164 7.95601,-1.85096 10.300259,1.47411 0.911055,1.2917 0.989061,2.79786 1.64345,4.19597 l -1.250198,0.54007 0.810083,1.8753 -3.813547,-1.61632 1.165158,0.98017 -2.341366,0.41802 3.574885,0.95393 5.342837,3.10974 1.039695,1.1293 c -1.6785,-0.0908 -5.076764,-0.8763 -6.548444,-1.67658 l -2.105372,-1.28164 c -1.05862,-0.4966 -1.760919,-0.39497 -2.243411,-0.77698 -0.870536,-0.69651 -0.417521,-1.60873 -1.978606,-2.71901 l 1.117112,2.92946 c -1.671751,0.88979 -3.575869,1.19014 -4.264704,3.1774 1.123885,-0.62643 3.457384,-1.78724 4.716155,-1.15014 l 3.069983,3.72068 -1.801312,1.66822 1.838306,-1.23915 1.472188,2.03434 -4.698396,1.6068 -2.436687,-1.63995 1.47218,2.03434 c -3.287328,1.10258 -1.953012,0.83624 -5.111789,0.87303 0.440511,0.77251 0.08032,1.00672 -0.281078,1.75327 l 0.985774,-0.27304 c 0.87626,-0.11446 1.809107,0.17685 1.517034,1.27619 -0.146573,0.58105 -1.675594,2.47434 -2.028835,4.56882 1.249586,-1.75032 1.192213,-2.2403 3.109104,-3.69587 0.88431,-0.67277 1.46652,-0.18698 1.125544,0.94684 l -0.281015,0.90171 c 1.542565,-1.78639 2.102903,-1.8801 4.253661,-0.79904 l -4.667824,6.02183 c 2.47588,-2.9432 5.204823,-6.13515 9.424515,-5.99974 l 0.03699,0.42906 c -3.843134,2.15119 -4.07265,4.05129 -5.763074,5.10047 -1.595817,0.99347 -4.163064,1.27319 -5.965844,1.74635 2.284096,0.74753 3.752108,-0.0988 6.013913,-0.51208 l -2.94247,3.49781 -1.928379,2.75117 c -5.881511,6.73865 -11.031623,14.05971 -16.784938,20.89886 l -4.863863,6.25486 c 1.949464,0.85203 3.647143,0.0875 5.256568,-1.1492 1.3903,-1.07084 2.302339,-2.17393 3.420842,-3.48934 7.1024,-6.88192 13.2287,-14.58634 19.248346,-22.40805 l 3.099554,-4.15758 5.292919,-6.29185 c 0.927687,4.09128 -2.400962,8.54958 0.2518,12.94598 l 0.706277,-9.35442 1.827255,1.13921 c -1.798763,-2.48814 -2.075269,-6.67231 0.547247,-8.69231 0.757029,2.63849 1.025524,6.02799 0.427405,8.71633 l -1.939913,6.32693 c 2.475007,-1.82573 4.330198,-7.2052 4.322783,-10.22386 -0.0079,-2.27084 -0.927568,-3.61365 0.04517,-6.79464 1.434153,1.49297 2.700601,4.92611 2.495322,6.98189 l -0.982274,3.04565 1.176201,-1.39819 c 0.34231,2.44083 -0.309944,4.52652 -1.620658,6.5955 l -1.56827,1.86426 c 2.595302,-1.28282 3.438664,-3.88424 5.483575,-3.85525 1.178011,-0.0237 2.7848,2.24319 3.611991,3.03853 1.757727,1.83681 5.167288,4.80851 7.720198,5.01415 -2.462424,-1.38702 -4.661227,-2.1981 -6.582239,-4.4747 l -1.274434,-1.79635 c -0.657636,-0.78404 -2.030971,-1.77219 -1.9157,-2.91681 0.0797,-0.80439 1.597524,-2.20177 2.385498,-3.79126 0.413011,0.22807 0.668678,0.3357 1.036018,0.66063 2.47203,2.17506 -0.206645,3.69416 -0.910126,5.81236 l 2.940517,-3.49548 4.697627,4.34976 c 1.337976,1.12952 2.713462,2.74426 4.406291,3.27693 l -4.194566,-3.52861 -3.352124,-3.58396 0.392062,-0.46607 1.128163,0.5511 -2.330316,-1.96033 0.943176,-1.59423 c 1.99708,1.68001 4.00837,3.57493 6.370512,4.72637 0.954282,0.46452 3.697777,1.27617 4.126936,2.14258 0.625023,1.258 -0.410241,3.53881 -1.076236,4.63797 l 0.466066,0.39207 1.599144,-2.63417 1.051721,-2.21523 3.378148,-0.42529 -3.23795,-0.8814 -2.539795,-5.96875 7.235627,2.47753 4.060671,4.90825 3.738058,3.59824 3.797041,2.90369 0.24021,1.75803 c 1.27243,-2.137 0.543818,-2.66637 0.64719,-5.02675 1.1271,0.86458 2.417313,1.86639 3.868193,2.02441 l -4.651317,-3.91284 c -0.724297,-1.20622 -0.174454,-2.39911 -0.670798,-3.99456 -0.501632,-1.63174 -2.027184,-3.00661 -3.295617,-4.08161 1.859288,-0.7201 4.437641,0.80821 6.005679,1.84874 2.597713,1.72764 6.795953,4.04562 9.958673,2.82626 l -3.9743,-1.42523 -3.3759,-3.08266 -4.038242,-2.76836 -1.421277,-3.1734 -3.1972,-2.68959 c 2.250071,-0.82511 2.748527,1.07058 4.800696,1.38424 1.94464,0.29483 3.300813,-0.64556 5.006043,-1.0217 1.88555,-0.41546 2.54618,-0.0229 4.35415,-1.11244 l -3.04045,-0.17009 3.48057,-2.24527 c -1.6813,0.4281 -5.53413,0.88784 -7.18631,0.50079 -2.318553,-0.54571 -4.218325,-2.02447 -6.4068,-2.79105 l -7.286998,-1.74474 c 5.518273,-0.89846 11.25965,0.23741 16.894788,1.20367 l 5.28356,0.34192 c 0.0725,-0.48822 0.12667,-0.91218 0.29144,-1.38242 1.10737,-3.19908 2.74582,-1.36712 4.9054,-1.01085 l -2.52636,-1.72731 c 2.88807,-1.77274 5.16244,-0.61157 7.69724,-3.47339 l -9.17823,-0.44266 c -2.85999,-0.40826 -3.69624,-1.18337 -5.09486,-1.51232 l -7.882948,-1.03632 c -3.680843,-0.55361 -6.176705,0.30351 -9.598706,-1.83503 1.83078,-0.12328 3.31278,0.72151 5.320553,0.77099 l 5.279118,-0.21098 4.165263,-0.57097 c 2.53829,-0.0892 6.24179,-0.55118 7.20247,-3.39614 -2.79617,1.88585 -6.6415,1.90619 -9.723443,0.6785 -5.305787,-2.2114 -10.143227,-5.31109 -15.314229,-7.81306 2.982529,-1.8803 8.85172,-1.78987 12.300061,-1.37616 3.182171,0.38481 6.929421,1.33253 10.159361,1.16855 l -5.99587,-1.86039 c 2.09445,-0.90031 4.12666,0.18449 6.21397,0.65504 3.25541,0.73293 6.79014,0.84527 9.83771,-0.68187 1.97867,-0.98974 6.50635,-3.69921 8.13211,-5.09726 l 2.15638,-2.56335 2.10368,-1.79587 c 0.8296,-0.98144 0.35446,-1.60398 1.034,-2.34554 0.80807,-0.88016 1.53635,-0.27945 3.41476,-2.682662 1.24219,-1.58543 0.79958,-2.15675 1.6906,-3.35312 l 2.76488,-2.4494 2.89186,-3.934348 c 0.40435,-0.423897 1.27208,-1.389169 1.53495,-1.82464 0.44488,-1.006613 -0.0136,-1.611143 0.99105,-2.417479 l 2.12523,-1.395731 c 1.0725,-0.896476 1.32759,-1.672759 2.15637,-2.56335 l 3.95012,-3.44205 5.42897,-4.187694 7.26061,-2.646865 c 1.77731,-0.868641 5.33277,-5.553975 5.67624,-7.561166 -2.23093,1.573428 -5.69564,3.175438 -8.43333,2.456217 4.35137,-1.269982 4.38591,-2.072636 7.70509,-4.660607 l 5.08818,-3.678502 c 0.48668,-0.521769 2.29426,-4.297781 2.4753,-5.080644 -5.25114,5.272453 -13.20168,3.176442 -19.44298,1.352336 -1.81137,-0.528932 -3.72826,-0.752673 -5.4318,-1.584842 4.68607,-2.226029 15.59608,-2.753974 20.89535,-2.605764 1.00542,0.03002 3.99891,0.1566 4.83097,0.406883 1.60846,0.481595 1.76783,1.678171 3.32814,0.774212 -1.72839,-2.699535 -3.04187,-3.394596 -5.62977,-5.133887 1.45668,-0.250962 2.43562,0.02339 3.69839,0.807121 z m -27.12307,5.751435 -0.42907,0.03699 0.19603,-0.233029 z M 90.825303,151.15841 c 0.78841,1.4233 1.304752,2.57396 -0.004,3.78906 -2.290392,-2.75049 -6.414906,-6.41914 -6.502796,-10.24568 1.554314,1.30755 5.620169,4.84727 6.506741,6.45662 z M 71.782609,136.4244 c 2.880469,1.37258 7.287618,5.13574 8.870638,7.90399 0.811813,1.41913 1.891694,2.96427 1.656922,4.65301 -4.782339,-4.41614 -9.611477,-8.74823 -14.325928,-13.24528 l 0.39207,-0.46606 c 0.937253,0.26715 2.558951,0.75192 3.406298,1.15434 z m 24.202441,23.26489 -0.392069,0.46606 -4.157571,-3.09954 c 2.126394,0.19703 2.990658,1.32201 4.54964,2.63348 z m -3.040458,-0.17008 c 1.952433,1.63848 4.498666,2.44337 4.138685,5.48723 -2.128268,-0.97061 -3.293362,-2.55162 -4.893665,-4.11672 -1.32063,-1.25421 -1.810798,-1.32433 -3.082097,-2.95887 -0.807328,-1.04128 -1.670799,-1.58063 -1.522654,-2.92043 z m -24.168495,-9.58691 -0.824992,-7.0611 c 1.592142,2.1472 2.178678,4.63829 0.824992,7.0611 z m 8.260285,2.47994 2.115153,5.05439 c -2.477913,0.93986 -6.711767,-2.44272 -8.559234,-4.01677 -0.438463,-0.37283 -1.135562,-0.88762 -1.274021,-1.46571 l 0.756059,-4.54121 c 1.561459,1.36529 1.728553,3.75422 2.430265,5.62591 l -0.128854,-4.5773 z m -9.570976,-6.1254 c 0.312429,1.31738 0.135348,2.17123 0.648594,3.48642 l -0.784139,0.93213 -3.913495,-5.28188 -0.762046,-3.8246 0.392069,-0.46606 c 2.647659,1.12898 3.737518,2.28855 4.419017,5.15399 z m 16.82387,13.11419 1.2872,-0.111 z m -26.90579,-16.26698 c -0.968388,-1.70604 -0.173437,-1.86104 0.758188,-3.73955 1.214441,1.4514 0.180518,2.26891 -0.758188,3.73955 z m 5.237698,5.59994 c -1.886415,-1.75006 -3.44011,-4.95527 -2.811284,-7.53819 1.937302,1.78891 3.316861,4.87945 2.811284,7.53819 z M 39.501806,126.07381 c -3.407854,-1.5735 -6.810405,-2.10787 -10.484635,-1.23127 -1.594532,0.38171 -3.920576,1.27822 -4.742424,2.77552 3.251143,-1.62249 7.307805,-2.40022 10.885683,-1.58703 l 0.037,0.42907 c -2.078595,0.75845 -4.737431,1.27949 -5.747943,3.52142 1.841846,-1.2481 4.183721,-2.3621 6.361987,-1.4131 l 0.355075,-0.89512 3.273491,0.36611 -4.24261,-1.57931 c 2.799081,-0.99997 4.778577,1.77949 7.675138,1.28333 z m 21.758181,21.91305 -0.39207,0.46606 c -1.024483,-0.87775 -3.235885,-2.83754 -3.033368,-4.29874 0.08232,-0.59929 0.468622,-1.08214 0.799143,-1.56019 z m 6.217867,4.43479 -0.98017,1.16516 c -1.412068,-1.21175 -3.035441,-2.34261 -2.319273,-4.3387 z m -10.153455,-4.95995 -2.748338,-4.3017 0.821134,-0.50306 c 1.189546,1.43842 1.889955,2.91902 1.927204,4.80476 z m 9.872377,6.71322 -0.429064,0.037 0.196031,-0.23303 z m -20.92433,-16.00253 c -0.580772,0.88433 -2.86991,1.30649 -3.761166,0.87112 -0.563665,-0.19563 -0.79153,-0.5823 -1.160498,-0.97626 1.714581,-1.04477 3.219095,-0.76602 5.143163,-0.91031 -0.0285,0.42174 0.04589,0.60768 -0.221499,1.01545 z m 15.795933,13.39949 c 0.490827,1.35602 -1.097838,2.90865 -1.895695,3.85709 -1.507499,-1.56662 -2.554283,-3.60522 -1.572136,-5.6999 l 1.165166,0.98017 c -0.697965,-1.001 -0.870664,-1.17414 -0.418022,-2.34136 1.223214,2.07958 2.353362,2.20258 2.720687,3.204 z m -8.435493,-6.81765 -0.551098,1.12815 -0.344032,-1.48323 z m -10.412433,-7.96341 c -2.614506,1.13534 -3.088606,0.37439 -4.279613,-2.00839 l 0.39207,-0.46606 c 1.722242,0.74843 2.781037,0.87109 3.887543,2.47445 z m 9.617251,11.27389 -0.381019,-1.91229 c 0.637075,0.84631 0.754179,0.90106 0.381019,1.91229 z m -9.713341,-7.3753 c -1.099203,0.68697 -1.358164,0.61636 -2.574392,0.22198 1.162054,-0.53461 1.360943,-0.70954 2.574392,-0.22198 z m 16.227188,15.24262 -1.213204,0.96913 -0.540055,-1.25021 0.784131,-0.93212 z M 40.294845,145.47209 39.36272,144.68795 c 1.015299,-1.76038 2.90681,-2.03155 4.804767,-1.92721 -0.594674,1.27456 -2.590404,2.24201 -3.872642,2.71135 z m 4.841761,-1.49814 -0.636137,2.64838 -2.88143,-0.83217 3.051509,-2.20828 z m -5.259783,-0.84323 -1.017164,0.73609 -0.932125,-0.78414 c 0.932427,-0.54075 1.006408,-0.43474 1.949289,0.048 z m -0.636145,2.64839 0.89513,0.35507 c -1.191054,0.64951 -1.651793,0.11866 -2.648388,-0.63614 0.744604,-0.56347 1.704482,-1.13684 1.753258,0.28107 z m -3.73955,-0.75819 1.801304,-1.66822 c 1.034494,1.74573 -0.293646,2.1088 -1.801304,1.66822 z m -1.827255,-1.13921 1.250198,-0.54005 c -0.332442,0.80672 -0.443148,0.80114 -1.250198,0.54005 z"
           id="Selection" />
        <path
           stroke-width="1"
           fill-opacity="1"
           stroke="none"
           fill="#d5d5d5"
           id="path4156"
           d="m 189.62443,26.502657 c -12.33136,1.229919 -62.45752,19.116386 -89.00511,51.851993 l -56.436936,69.59189 c -4.299533,4.58573 -5.751652,6.33073 -8.657474,9.83255 l -1.928379,2.75117 c -5.881511,6.73865 -11.031623,14.05971 -16.784938,20.89886 l -4.863863,6.25486 c 1.949464,0.85203 3.647143,0.0875 5.256568,-1.1492 1.3903,-1.07084 2.302339,-2.17393 3.420842,-3.48934 7.1024,-6.88192 13.2287,-14.58634 19.248346,-22.40805 l 3.099554,-4.15758 5.292919,-6.29185 c 1.264076,-3.27568 26.240156,-37.41561 54.969201,-71.192084 30.2554,-35.570999 81.91678,-48.013752 86.38927,-52.493219 z"
           inkscape:connector-curvature="0"
           sodipodi:nodetypes="csccccccccccsc" />
        <path
           stroke-width="1"
           fill-opacity="1"
           stroke="#b1b1b1"
           fill="none"
           stroke-opacity="0.732"
           sodipodi:nodetypes="ccccccsc"
           inkscape:connector-curvature="0"
           d="m 11.94773,187.68398 c 1.949464,0.85203 3.647143,0.0875 5.256568,-1.1492 1.3903,-1.07084 2.302339,-2.17393 3.420842,-3.48934 7.1024,-6.88192 13.2287,-14.58634 19.248346,-22.40805 l 3.099554,-4.15758 5.292919,-6.29185 c 1.264076,-3.27568 26.240156,-37.41561 54.969201,-71.192084 30.2554,-35.570999 81.91678,-48.013752 86.38927,-52.493219"
           id="path4166" />
        <path
           stroke-miterlimit="4"
           stroke-width="0.8"
           fill-opacity="1"
           stroke="#ffffff"
           fill="none"
           stroke-opacity="0.77"
           stroke-dasharray="none"
           sodipodi:nodetypes="csccccc"
           inkscape:connector-curvature="0"
           d="m 189.62443,26.502657 c -12.33136,1.229919 -62.45752,19.116386 -89.00511,51.851993 l -56.436936,69.59189 c -4.299533,4.58573 -5.751652,6.33073 -8.657474,9.83255 l -1.928379,2.75117 c -5.881511,6.73865 -11.031623,14.05971 -16.784938,20.89886 l -4.863863,6.25486"
           id="path4168" />
      </g>
      <circle
         stroke-dashoffset="0"
         stroke-width="0.556"
         stroke-linecap="round"
         fill-opacity="1"
         stroke-linejoin="round"
         stroke="#ff0000"
         fill-rule="evenodd"
         fill="none"
         stroke-opacity="1"
         stroke-dasharray="none"
         opacity="1"
         id="path1340"
         cx="20.276"
         cy="268.12"
         r="18.292"
         stroke-miterlimit="4" />
      <circle
         stroke-dashoffset="0"
         stroke-width="0.556"
         stroke-linecap="round"
         fill-opacity="1"
         stroke-linejoin="round"
         stroke="#ff0000"
         fill-rule="evenodd"
         fill="none"
         stroke-opacity="1"
         stroke-dasharray="none"
         opacity="1"
         r="12.06"
         cy="268.12"
         cx="20.276"
         id="circle1342"
         stroke-miterlimit="4" />
      <g
         stroke="#000979"
         stroke-opacity="1"
         id="g1075"
         transform="translate(29.86517,23.89626)">
        <path
           stroke-width="0.926"
           stroke-linecap="round"
           stroke-linejoin="miter"
           stroke="#000979"
           fill="none"
           stroke-opacity="1"
           stroke-dasharray="none"
           sodipodi:nodetypes="czc"
           inkscape:connector-curvature="0"
           id="path1066"
           d="m -22.395443,262.51499 c 0,0 5.351124,4.85565 9.414014,0 4.0628901,-4.85565 9.0176339,0 9.0176339,0"
           stroke-miterlimit="4" />
        <path
           stroke-width="0.926"
           stroke-linecap="round"
           stroke-linejoin="miter"
           stroke="#000979"
           fill="none"
           stroke-opacity="1"
           stroke-dasharray="none"
           d="m -22.395443,265.19055 c 0,0 5.351124,4.85565 9.414014,0 4.0628901,-4.85565 9.0176339,0 9.0176339,0"
           id="path1068"
           inkscape:connector-curvature="0"
           sodipodi:nodetypes="czc"
           stroke-miterlimit="4" />
        <path
           stroke-width="0.926"
           stroke-linecap="round"
           stroke-linejoin="miter"
           stroke="#000979"
           fill="none"
           stroke-opacity="1"
           stroke-dasharray="none"
           sodipodi:nodetypes="czc"
           inkscape:connector-curvature="0"
           id="path1070"
           d="m -22.395443,267.86611 c 0,0 5.351124,4.85565 9.414014,0 4.0628901,-4.85565 9.0176339,0 9.0176339,0"
           stroke-miterlimit="4" />
      </g>
      <g
         font-size="2.117"
         font-variant="normal"
         letter-spacing="0"
         font-stretch="normal"
         stroke-width="0.265"
         font-weight="bold"
         fill-opacity="1"
         line-height="1.25"
         word-spacing="0"
         font-style="normal"
         stroke="none"
         fill="#000000"
         font-family="FreeSans"
         aria-label="MARK TWAIN"
         id="text939"
         transform="translate(73.348707,26.9875)">
        <path
           stroke-width="0.265"
           d="m -25.67144,262.17646 0.277283,1.20226 h 0.3175 l 0.27305,-1.20226 v 1.20226 h 0.3175 v -1.54305 h -0.478367 l -0.270933,1.22767 -0.2794,-1.22767 h -0.474133 v 1.54305 h 0.3175 z"
           id="path941"
           inkscape:connector-curvature="0" />
        <path
           stroke-width="0.265"
           d="m -23.29201,263.06757 0.1016,0.31115 h 0.325967 l -0.5334,-1.54305 h -0.351366 l -0.548217,1.54305 h 0.32385 l 0.103717,-0.31115 z m -0.08678,-0.26458 h -0.402166 l 0.201083,-0.60325 z"
           id="path943"
           inkscape:connector-curvature="0" />
        <path
           stroke-width="0.265"
           d="m -21.799197,263.11414 c 0,0.14393 0.0085,0.1905 0.04868,0.26458 h 0.340783 v -0.0571 c -0.04868,-0.0275 -0.06773,-0.0593 -0.06773,-0.127 -0.0085,-0.45508 -0.01693,-0.47625 -0.213783,-0.56091 0.173566,-0.0677 0.26035,-0.19262 0.26035,-0.381 0,-0.17145 -0.08255,-0.41699 -0.414867,-0.41699 h -0.827617 v 1.54305 h 0.3175 v -0.61171 h 0.364067 c 0.137583,0 0.19685,0.055 0.19685,0.18415 0,0.0656 -0.0042,0.0487 -0.0042,0.16298 z m 0.0508,-0.81703 c 0,0.17991 -0.09313,0.20531 -0.224367,0.20531 h -0.383117 v -0.40216 h 0.383117 c 0.13335,0 0.224367,0.0254 0.224367,0.19685 z"
           id="path945"
           inkscape:connector-curvature="0" />
        <path
           stroke-width="0.265"
           d="m -20.826258,262.86226 0.15875,-0.1651 0.505883,0.68156 h 0.378883 l -0.681566,-0.87841 0.61595,-0.66464 h -0.37465 l -0.60325,0.67734 v -0.67734 h -0.3175 v 1.54305 h 0.3175 z"
           id="path947"
           inkscape:connector-curvature="0" />
        <path
           stroke-width="0.265"
           d="m -18.33524,262.10026 h 0.45085 v -0.26459 h -1.236133 v 0.26459 h 0.467783 v 1.27846 h 0.3175 z"
           id="path949"
           inkscape:connector-curvature="0" />
        <path
           stroke-width="0.265"
           d="m -16.259782,263.37872 0.427567,-1.54305 h -0.33655 l -0.230717,1.15782 -0.249766,-1.15782 h -0.313267 l -0.239183,1.1557 -0.239184,-1.1557 h -0.33655 l 0.436034,1.54305 h 0.28575 l 0.251883,-1.20438 0.258233,1.20438 z"
           id="path951"
           inkscape:connector-curvature="0" />
        <path
           stroke-width="0.265"
           d="m -14.763332,263.06757 0.1016,0.31115 h 0.325967 l -0.5334,-1.54305 h -0.351367 l -0.548216,1.54305 h 0.32385 l 0.103716,-0.31115 z m -0.08678,-0.26458 h -0.402167 l 0.201084,-0.60325 z"
           id="path953"
           inkscape:connector-curvature="0" />
        <path
           stroke-width="0.265"
           d="m -13.827203,261.83567 h -0.3175 v 1.54305 h 0.3175 z"
           id="path956"
           inkscape:connector-curvature="0" />
        <path
           stroke-width="0.265"
           d="m -12.549695,263.37872 h 0.3175 v -1.54305 h -0.3175 v 1.04987 l -0.611717,-1.04987 h -0.325966 v 1.54305 h 0.3175 v -1.0668 z"
           id="path958"
           inkscape:connector-curvature="0" />
      </g>
      <g
         font-size="3.528"
         font-variant="normal"
         letter-spacing="-0.233"
         font-stretch="normal"
         stroke-width="0.265"
         font-weight="bold"
         fill-opacity="1"
         line-height="1.25"
         word-spacing="1.556"
         font-style="normal"
         stroke="none"
         fill="#a90000"
         font-family="FreeSans"
         aria-label="POST OFFICE OF UNITED STATES GOVERMENT"
         id="text971">
        <path
           font-size="3.528"
           letter-spacing="-0.233"
           stroke-width="0.265"
           fill-opacity="1"
           word-spacing="1.556"
           fill="#a90000"
           d="m 34.71508,268.9346 -0.05752,0.65718 c -0.04122,0.47093 0.266189,0.80238 0.786312,0.84791 0.513094,0.0449 0.819772,-0.22218 0.866528,-0.75635 l 0.09905,-1.13162 -2.561955,-0.22425 -0.04614,0.52715 z m 0.439293,0.0385 0.769641,0.0674 -0.04306,0.49201 c -0.02461,0.28114 -0.158992,0.40041 -0.422567,0.37734 -0.260062,-0.0228 -0.371682,-0.16356 -0.347074,-0.44471 z"
           id="path976" />
        <path
           font-size="3.528"
           letter-spacing="-0.233"
           stroke-width="0.265"
           fill-opacity="1"
           word-spacing="1.556"
           fill="#a90000"
           d="m 34.906391,270.67072 c -0.756752,-0.20168 -1.426622,0.11996 -1.62104,0.84944 -0.198961,0.74653 0.253794,1.34912 0.966232,1.53899 0.790839,0.21077 1.447299,-0.12905 1.638992,-0.8483 0.192601,-0.72267 -0.227433,-1.33844 -0.984184,-1.54013 z m 0.54695,1.42725 c -0.111745,0.41928 -0.523486,0.59431 -1.062075,0.45077 -0.50791,-0.13536 -0.77861,-0.50323 -0.66959,-0.91229 0.109928,-0.41246 0.526896,-0.59341 1.04844,-0.45441 0.521545,0.139 0.793153,0.50346 0.683225,0.91593 z"
           id="path978" />
        <path
           font-size="3.528"
           letter-spacing="-0.233"
           stroke-width="0.265"
           fill-opacity="1"
           word-spacing="1.556"
           fill="#a90000"
           d="m 33.779618,275.37484 c 0.636668,0.2958 1.005797,-0.20566 1.173764,-0.56719 0.260126,-0.55988 0.14791,-1.0049 -0.306395,-1.21597 -0.361525,-0.16797 -0.622215,-0.0674 -0.931788,0.36452 l -0.215603,0.2966 c -0.209431,0.29169 -0.35401,0.36845 -0.542771,0.28075 -0.195159,-0.0907 -0.230294,-0.32483 -0.09503,-0.61597 0.151616,-0.32634 0.373914,-0.44478 0.630895,-0.34484 l 0.217019,-0.4671 c -0.512474,-0.20309 -0.943466,0.0129 -1.219942,0.60797 -0.27945,0.60147 -0.162902,1.08741 0.310599,1.3074 0.367923,0.17094 0.646096,0.0746 0.929948,-0.3187 l 0.239838,-0.33202 c 0.226235,-0.31112 0.3395,-0.37908 0.509065,-0.3003 0.175963,0.0817 0.215104,0.29055 0.100649,0.5369 -0.141211,0.30393 -0.347965,0.41404 -0.592148,0.32004 z"
           id="path980" />
        <path
           font-size="3.528"
           letter-spacing="-0.233"
           stroke-width="0.265"
           fill-opacity="1"
           word-spacing="1.556"
           fill="#a90000"
           d="m 33.147451,276.99486 -0.418498,0.62409 0.366249,0.2456 1.147431,-1.71112 -0.366249,-0.24559 -0.434216,0.64752 -1.769716,-1.18672 -0.294717,0.4395 z"
           id="path982" />
        <path
           font-size="3.528"
           letter-spacing="-0.233"
           stroke-width="0.265"
           fill-opacity="1"
           word-spacing="1.556"
           fill="#a90000"
           d="m 30.141773,279.15811 c -0.469761,-0.62664 -1.195037,-0.78837 -1.799093,-0.33554 -0.618169,0.46341 -0.63527,1.21694 -0.193017,1.80688 0.490921,0.65487 1.216907,0.79402 1.812495,0.34754 0.598411,-0.4486 0.649376,-1.19224 0.179615,-1.81888 z m -0.453291,1.45969 c -0.347191,0.26027 -0.778965,0.14306 -1.113299,-0.30293 -0.31529,-0.42058 -0.300372,-0.87707 0.03835,-1.131 0.341545,-0.25604 0.781081,-0.14023 1.104835,0.29164 0.323754,0.43188 0.311659,0.88625 -0.02989,1.14229 z"
           id="path984" />
        <path
           font-size="3.528"
           letter-spacing="-0.233"
           stroke-width="0.265"
           fill-opacity="1"
           word-spacing="1.556"
           fill="#a90000"
           d="m 27.257451,280.93111 -1.000057,0.51607 0.202221,0.39187 1.000056,-0.51607 0.266932,0.51728 -1.134861,0.58563 0.202221,0.39187 1.605106,-0.8283 -1.179351,-2.28539 -0.470245,0.24266 z"
           id="path986" />
        <path
           font-size="3.528"
           letter-spacing="-0.233"
           stroke-width="0.265"
           fill-opacity="1"
           word-spacing="1.556"
           fill="#a90000"
           d="m 25.285596,281.81915 -1.065395,0.36245 0.142027,0.41748 1.065395,-0.36246 0.187475,0.55107 -1.209006,0.41131 0.142027,0.41747 1.709975,-0.58174 -0.8283,-2.43471 -0.500969,0.17043 z"
           id="path988" />
        <path
           font-size="3.528"
           letter-spacing="-0.233"
           stroke-width="0.265"
           fill-opacity="1"
           word-spacing="1.556"
           fill="#a90000"
           d="m 23.571192,283.82346 0.516242,-0.11624 -0.564934,-2.50893 -0.516242,0.11624 z"
           id="path990" />
        <path
           font-size="3.528"
           letter-spacing="-0.233"
           stroke-width="0.265"
           fill-opacity="1"
           word-spacing="1.556"
           fill="#a90000"
           d="m 21.26323,283.26866 -0.501733,0.0525 c 0.105825,0.57064 0.565248,0.85953 1.161713,0.79712 0.722776,-0.0756 1.117908,-0.6384 1.031259,-1.46643 -0.08591,-0.82102 -0.58548,-1.29016 -1.29773,-1.21563 -0.63506,0.0665 -1.021052,0.47929 -0.991315,1.06853 l 0.512259,-0.0536 c -0.0026,-0.32961 0.184982,-0.53723 0.511283,-0.57137 0.407,-0.0426 0.680099,0.26225 0.738476,0.82012 0.05911,0.56489 -0.154753,0.92778 -0.56877,0.97111 -0.438578,0.0459 -0.553789,-0.27547 -0.595442,-0.40235 z"
           id="path992" />
        <path
           font-size="3.528"
           letter-spacing="-0.233"
           stroke-width="0.265"
           fill-opacity="1"
           word-spacing="1.556"
           fill="#a90000"
           d="m 19.78804,282.69148 -1.229184,-0.0704 -0.0252,0.44026 1.229183,0.0703 -0.03326,0.58113 -1.3278,-0.076 -0.0252,0.44026 1.856102,0.10622 0.14694,-2.56755 -1.919498,-0.10985 -0.0252,0.44025 1.391196,0.0796 z"
           id="path994" />
        <path
           font-size="3.528"
           letter-spacing="-0.233"
           stroke-width="0.265"
           fill-opacity="1"
           word-spacing="1.556"
           fill="#a90000"
           d="m 15.662773,282.17553 c 0.304362,-0.72161 0.07841,-1.42951 -0.617194,-1.72291 -0.711854,-0.30024 -1.371244,0.0649 -1.657783,0.74421 -0.318072,0.75411 -0.07226,1.45125 0.613589,1.74053 0.689101,0.29065 1.357026,-0.0402 1.661388,-0.76183 z m -1.48915,0.3444 c -0.399808,-0.16864 -0.516245,-0.60062 -0.299627,-1.1142 0.204279,-0.48432 0.606038,-0.70157 0.996095,-0.53705 0.393307,0.1659 0.514874,0.60387 0.305111,1.1012 -0.209763,0.49732 -0.608272,0.71594 -1.001579,0.55005 z"
           id="path996" />
        <path
           font-size="3.528"
           letter-spacing="-0.233"
           stroke-width="0.265"
           fill-opacity="1"
           word-spacing="1.556"
           fill="#a90000"
           d="m 12.677451,280.57701 -0.949506,-0.60405 -0.236697,0.37207 0.949506,0.60405 -0.31244,0.49112 -1.077495,-0.68547 -0.236697,0.37206 1.523972,0.96951 1.380415,-2.16987 -0.446476,-0.28404 z"
           id="path998" />
        <path
           font-size="3.528"
           letter-spacing="-0.233"
           stroke-width="0.265"
           fill-opacity="1"
           word-spacing="1.556"
           fill="#a90000"
           d="M 9.7548001,276.44442 C 9.4838418,276.1055 8.9748759,275.76265 8.4072575,276.21645 l -1.361182,1.08824 0.330437,0.41332 1.361182,-1.08824 c 0.2424777,-0.19386 0.4573369,-0.16239 0.6644107,0.0966 0.2070738,0.25901 0.1904769,0.47553 -0.052001,0.66939 l -1.361182,1.08824 0.3304369,0.41331 1.361182,-1.08824 c 0.5676189,-0.4538 0.3452169,-1.02575 0.074259,-1.36467 z"
           id="path1000" />
        <path
           font-size="3.528"
           letter-spacing="-0.233"
           stroke-width="0.265"
           fill-opacity="1"
           word-spacing="1.556"
           fill="#a90000"
           d="m 8.1198082,274.04573 -0.2525422,-0.46502 -2.2599773,1.22736 0.2525422,0.46501 1.5376526,-0.83507 -1.0510881,1.731 0.2592767,0.47742 2.2599773,-1.22735 -0.2525422,-0.46502 -1.5624534,0.84854 z"
           id="path1002" />
        <path
           font-size="3.528"
           letter-spacing="-0.233"
           stroke-width="0.265"
           fill-opacity="1"
           word-spacing="1.556"
           fill="#a90000"
           d="m 5.1813793,273.70701 0.1940982,0.49228 2.3924987,-0.94332 -0.1940982,-0.49228 z"
           id="path1004" />
        <path
           font-size="3.528"
           letter-spacing="-0.233"
           stroke-width="0.265"
           fill-opacity="1"
           word-spacing="1.556"
           fill="#a90000"
           d="m 5.0835762,271.92779 -0.1986672,-0.72468 -0.4252805,0.11659 0.5447024,1.98691 0.4252805,-0.11659 -0.2061288,-0.7519 2.0549557,-0.56335 -0.1399064,-0.51034 z"
           id="path1006" />
        <path
           font-size="3.528"
           letter-spacing="-0.233"
           stroke-width="0.265"
           fill-opacity="1"
           word-spacing="1.556"
           fill="#a90000"
           d="m 5.7597185,270.07991 -0.1398498,-1.22323 -0.4381182,0.0501 0.1398498,1.22323 -0.578316,0.0661 -0.1510698,-1.32137 -0.4381182,0.0501 0.2111772,1.84711 2.5551052,-0.29212 -0.2183901,-1.9102 -0.4381182,0.0501 0.1582828,1.38446 z"
           id="path1008" />
        <path
           font-size="3.528"
           letter-spacing="-0.233"
           stroke-width="0.265"
           fill-opacity="1"
           word-spacing="1.556"
           fill="#a90000"
           d="m 6.6991232,268.37783 0.0484,-1.00425 c 0.01885,-0.39113 -0.060878,-0.6422 -0.2604542,-0.82488 -0.229761,-0.21592 -0.5733416,-0.34197 -0.9715183,-0.36116 -0.394653,-0.019 -0.7487626,0.0734 -1.0017468,0.26606 -0.2162189,0.16264 -0.3160289,0.40153 -0.3350491,0.79618 l -0.048399,1.00425 z m -0.4149875,-0.54978 -1.6878465,-0.0813 0.022926,-0.4757 c 0.01919,-0.39818 0.3070714,-0.58209 0.8743852,-0.55475 0.56379,0.0272 0.8326513,0.23792 0.8134613,0.6361 z"
           id="path1010" />
        <path
           font-size="3.528"
           letter-spacing="-0.233"
           stroke-width="0.265"
           fill-opacity="1"
           word-spacing="1.556"
           fill="#a90000"
           d="m 6.4224676,261.39275 c -0.6506783,-0.26356 -0.994239,0.25575 -1.1438952,0.62523 -0.2317686,0.57221 -0.097413,1.01105 0.3668897,1.19912 0.3694807,0.14965 0.6248067,0.0361 0.9123694,-0.41072 l 0.2004828,-0.30702 c 0.1945642,-0.30182 0.3351194,-0.38571 0.5280341,-0.30757 0.1994542,0.0808 0.2462686,0.31289 0.125749,0.61044 -0.135088,0.33351 -0.3511771,0.46294 -0.6128388,0.37598 l -0.1933612,0.47739 c 0.521999,0.17717 0.9416369,-0.0601 1.1879737,-0.66829 0.2489856,-0.61471 0.1082559,-1.0942 -0.3756656,-1.29021 -0.3760202,-0.1523 -0.6490193,-0.0421 -0.9128254,0.36486 l -0.222915,0.34362 c -0.2103744,0.32205 -0.3200951,0.3956 -0.4933913,0.3254 -0.1798358,-0.0728 -0.2293815,-0.27941 -0.1274033,-0.53118 0.1258172,-0.31063 0.3267995,-0.43095 0.5753823,-0.34929 z"
           id="path1012" />
        <path
           font-size="3.528"
           letter-spacing="-0.233"
           stroke-width="0.265"
           fill-opacity="1"
           word-spacing="1.556"
           fill="#a90000"
           d="m 6.9734291,259.7427 0.3869292,-0.64413 -0.3780148,-0.22708 -1.0608764,1.76609 0.3780148,0.22707 0.4014618,-0.66833 1.8265674,1.09721 0.2724854,-0.45362 z"
           id="path1014" />
        <path
           font-size="3.528"
           letter-spacing="-0.233"
           stroke-width="0.265"
           fill-opacity="1"
           word-spacing="1.556"
           fill="#a90000"
           d="m 9.8068625,258.64066 0.5061165,0.20359 0.349185,-0.4162 -2.5415769,-0.9719 -0.376394,0.44862 1.3829181,2.35293 0.3469174,-0.41349 -0.2861755,-0.46574 z m -0.4307877,-0.17262 -0.4308125,0.51349 -0.5548301,-0.90296 z"
           id="path1016" />
        <path
           font-size="3.528"
           letter-spacing="-0.233"
           stroke-width="0.265"
           fill-opacity="1"
           word-spacing="1.556"
           fill="#a90000"
           d="m 10.199584,256.03186 0.566863,-0.49325 -0.289464,-0.33267 -1.5542173,1.35238 0.2894642,0.33267 0.5881542,-0.51178 1.3986909,1.60745 0.3992,-0.34736 z"
           id="path1018" />
        <path
           font-size="3.528"
           letter-spacing="-0.233"
           stroke-width="0.265"
           fill-opacity="1"
           word-spacing="1.556"
           fill="#a90000"
           d="m 12.15617,255.83938 1.040947,-0.65747 -0.235484,-0.37283 -1.040947,0.65747 -0.310839,-0.49214 1.124461,-0.71022 -0.235484,-0.37283 -1.57186,0.9928 1.373344,2.17436 1.625548,-1.02671 -0.235485,-0.37283 -1.178148,0.74413 z"
           id="path1020" />
        <path
           font-size="3.528"
           letter-spacing="-0.233"
           stroke-width="0.265"
           fill-opacity="1"
           word-spacing="1.556"
           fill="#a90000"
           d="m 15.129377,253.56316 c -0.27651,-0.64528 -0.886114,-0.51838 -1.252529,-0.36137 -0.567456,0.24316 -0.781021,0.64939 -0.583712,1.10984 0.157013,0.36642 0.418264,0.46556 0.937076,0.35071 l 0.358536,-0.0769 c 0.350662,-0.0773 0.509544,-0.038 0.591525,0.15336 0.08476,0.1978 -0.04542,0.39558 -0.340493,0.52203 -0.330746,0.14173 -0.575323,0.0815 -0.699917,-0.16448 l -0.473421,0.20287 c 0.245945,0.49334 0.711012,0.62028 1.314137,0.36184 0.60961,-0.26123 0.847264,-0.70081 0.641618,-1.18072 -0.159792,-0.3729 -0.431233,-0.48686 -0.905112,-0.38359 l -0.400227,0.0871 c -0.376138,0.0806 -0.505839,0.0556 -0.579482,-0.1163 -0.07642,-0.17834 0.03383,-0.35992 0.283514,-0.46691 0.308048,-0.132 0.535486,-0.0759 0.654522,0.15706 z"
           id="path1022" />
        <path
           font-size="3.528"
           letter-spacing="-0.233"
           stroke-width="0.265"
           fill-opacity="1"
           word-spacing="1.556"
           fill="#a90000"
           d="m 19.96205,252.73146 0.496459,-0.0308 c -0.0962,-0.52421 -0.54654,-0.83201 -1.166234,-0.79351 -0.739407,0.0459 -1.208997,0.62298 -1.159333,1.42225 0.04835,0.77814 0.590597,1.31351 1.284232,1.27041 0.345056,-0.0214 0.569784,-0.15911 0.749019,-0.46009 l 0.08438,0.33408 0.316889,-0.0197 -0.0862,-1.38727 -1.028128,0.0639 0.02735,0.44012 0.584484,-0.0363 c -0.01558,0.48874 -0.485663,0.60278 -0.61594,0.61088 -0.426039,0.0265 -0.755556,-0.32772 -0.788374,-0.85587 -0.03435,-0.5528 0.215983,-0.90414 0.663148,-0.93192 0.366183,-0.0228 0.550744,0.16018 0.63825,0.37389 z"
           id="path1024" />
        <path
           font-size="3.528"
           letter-spacing="-0.233"
           stroke-width="0.265"
           fill-opacity="1"
           word-spacing="1.556"
           fill="#a90000"
           d="m 20.849236,253.19163 c -0.09451,0.77745 0.317156,1.39609 1.066584,1.48719 0.766938,0.0932 1.300719,-0.43892 1.38969,-1.17083 0.09876,-0.81247 -0.329036,-1.4153 -1.067957,-1.50512 -0.742424,-0.0902 -1.293812,0.41132 -1.388317,1.18876 z m 1.337329,-0.74008 c 0.430746,0.0524 0.661332,0.43576 0.594071,0.98908 -0.06343,0.5218 -0.390086,0.84102 -0.810326,0.78993 -0.423742,-0.0515 -0.660906,-0.43927 -0.595774,-0.97507 0.06513,-0.53581 0.388287,-0.85545 0.812029,-0.80394 z"
           id="path1026" />
        <path
           font-size="3.528"
           letter-spacing="-0.233"
           stroke-width="0.265"
           fill-opacity="1"
           word-spacing="1.556"
           fill="#a90000"
           d="m 24.394786,255.13469 1.585805,-2.20838 -0.510085,-0.15355 -1.095368,1.69287 0.01101,-2.01928 -0.510085,-0.15355 0.08971,2.71275 z"
           id="path1028" />
        <path
           font-size="3.528"
           letter-spacing="-0.233"
           stroke-width="0.265"
           fill-opacity="1"
           word-spacing="1.556"
           fill="#a90000"
           d="m 26.303219,254.67983 1.109206,0.53433 0.191377,-0.39729 -1.109207,-0.53432 0.252617,-0.52441 1.198197,0.57719 0.191376,-0.39728 -1.674933,-0.80684 -1.116107,2.31694 1.732142,0.8344 0.191377,-0.39728 -1.255406,-0.60475 z"
           id="path1030" />
        <path
           font-size="3.528"
           letter-spacing="-0.233"
           stroke-width="0.265"
           fill-opacity="1"
           word-spacing="1.556"
           fill="#a90000"
           d="m 28.686908,256.85941 c -0.137905,0.19629 -0.170974,0.26791 -0.187109,0.40747 l 0.464741,0.32651 0.05476,-0.0779 c -0.04003,-0.0842 -0.03559,-0.14572 0.02931,-0.23809 0.424474,-0.62873 0.433208,-0.66571 0.245874,-0.96978 0.301597,0.0739 0.5396,-0.0132 0.720092,-0.27014 0.164268,-0.23382 0.286939,-0.64775 -0.166256,-0.96615 l -1.128658,-0.79295 -1.478414,2.10433 0.432989,0.3042 0.586093,-0.83423 0.496494,0.34882 c 0.187629,0.13182 0.215725,0.26366 0.09202,0.43974 -0.06287,0.0895 -0.05242,0.0623 -0.161929,0.21821 z m 0.852087,-1.06555 c -0.17238,0.24536 -0.323726,0.19076 -0.502695,0.065 l -0.522474,-0.36707 0.385321,-0.54845 0.522473,0.36707 c 0.181856,0.12776 0.281643,0.2496 0.117375,0.48342 z"
           id="path1032" />
        <path
           font-size="3.528"
           letter-spacing="-0.233"
           stroke-width="0.265"
           fill-opacity="1"
           word-spacing="1.556"
           fill="#a90000"
           d="m 30.945748,256.71134 -1.118286,1.72572 0.36805,0.38021 1.756238,-1.0667 -1.439716,1.39368 0.368049,0.38021 1.847804,-1.78872 -0.554527,-0.57285 -1.784201,1.09868 1.146249,-1.7577 -0.54962,-0.56778 -1.847805,1.78872 0.36805,0.38021 z"
           id="path1034" />
        <path
           font-size="3.528"
           letter-spacing="-0.233"
           stroke-width="0.265"
           fill-opacity="1"
           word-spacing="1.556"
           fill="#a90000"
           d="m 32.279417,259.63167 0.68238,1.02479 0.367046,-0.24441 -0.682381,-1.02479 0.4845,-0.32261 0.737127,1.10701 0.367046,-0.24441 -1.030414,-1.54746 -2.140609,1.42537 1.065608,1.60032 0.367046,-0.24441 -0.772322,-1.15986 z"
           id="path1036" />
        <path
           font-size="3.528"
           letter-spacing="-0.233"
           stroke-width="0.265"
           fill-opacity="1"
           word-spacing="1.556"
           fill="#a90000"
           d="m 32.860399,263.00004 0.2156,0.48325 2.348612,-1.04781 -0.2156,-0.48326 -1.597959,0.71292 1.182569,-1.64399 -0.221349,-0.49614 -2.348612,1.04782 0.2156,0.48325 1.623732,-0.72441 z"
           id="path1038" />
        <path
           font-size="3.528"
           letter-spacing="-0.233"
           stroke-width="0.265"
           fill-opacity="1"
           word-spacing="1.556"
           fill="#a90000"
           d="m 35.519885,264.36992 0.188516,0.72738 0.426869,-0.11063 -0.51687,-1.99433 -0.426869,0.11063 0.195596,0.75471 -2.062631,0.53457 0.132758,0.51224 z"
           id="path1040" />
      </g>
      <path
         font-size="3.881"
         font-variant="normal"
         letter-spacing="0"
         font-stretch="normal"
         stroke-width="0.265"
         font-weight="bold"
         fill-opacity="1"
         line-height="1.25"
         word-spacing="0"
         font-style="normal"
         stroke="none"
         fill="#000000"
         font-family="'hooge 05_53'"
         inkscape:connector-curvature="0"
         id="path985"
         d="m 56.269288,238.67244 v 0.48507 h 1.940277 v 1.45521 h -2.425347 v -0.48507 h 1.940278 v -0.48507 h -1.940278 v -1.45521 h 2.425347 v 0.48507 z" />
      <path
         font-size="3.881"
         font-variant="normal"
         letter-spacing="0"
         font-stretch="normal"
         stroke-width="0.265"
         font-weight="bold"
         fill-opacity="1"
         line-height="1.25"
         word-spacing="0"
         font-style="normal"
         stroke="none"
         fill="#000000"
         font-family="'hooge 05_53'"
         inkscape:connector-curvature="0"
         id="path991"
         d="m 59.726854,237.7023 h 0.48507 v 0.48507 h 0.970139 v 0.48507 h -1.940278 v 0.48507 h 1.940278 v 1.45521 h -2.425347 v -0.48507 h 1.940277 v -0.48507 h -1.940277 v -1.45521 h 0.970138 z m 0,2.91042 h 0.48507 v 0.48507 h -0.48507 z" />
    </g>
  </g>
</svg>
