<?xml version="1.0" encoding="UTF-8" standalone="no"?>
<!-- Created with Inkscape (http://www.inkscape.org/) -->

<svg
   xmlns:dc="http://purl.org/dc/elements/1.1/"
   xmlns:cc="http://creativecommons.org/ns#"
   xmlns:rdf="http://www.w3.org/1999/02/22-rdf-syntax-ns#"
   xmlns:svg="http://www.w3.org/2000/svg"
   xmlns="http://www.w3.org/2000/svg"
   xmlns:xlink="http://www.w3.org/1999/xlink"
   xmlns:sodipodi="http://sodipodi.sourceforge.net/DTD/sodipodi-0.dtd"
   xmlns:inkscape="http://www.inkscape.org/namespaces/inkscape"
   width="256"
   height="256"
   id="svg2"
   sodipodi:version="0.32"
   inkscape:version="0.91 r13725"
   sodipodi:docname="evolution-default.svg"
   inkscape:output_extension="org.inkscape.output.svg.inkscape"
   version="1.1">
  <defs
     id="defs4">
    <linearGradient
       inkscape:collect="always"
       id="linearGradient3113">
      <stop
         id="stop3115"
         stop-color="white"
         stop-opacity="1" />
      <stop
         offset="1"
         id="stop3117"
         stop-color="#dfdfe4"
         stop-opacity="1" />
    </linearGradient>
    <linearGradient
       id="linearGradient3578">
      <stop
         id="stop3580"
         stop-color="#000000"
         stop-opacity="1" />
      <stop
         id="stop3582"
         offset="1"
         stop-color="#fffcfc"
         stop-opacity="1" />
    </linearGradient>
    <filter
       inkscape:collect="always"
       id="filter3330">
      <feGaussianBlur
         inkscape:collect="always"
         stdDeviation="3.62017"
         id="feGaussianBlur3332" />
    </filter>
    <linearGradient
       id="linearGradient2967">
      <stop
         id="stop2969"
         stop-color="#363636"
         stop-opacity="1" />
      <stop
         offset="1"
         id="stop2971"
         stop-color="#d2d2d2"
         stop-opacity="1" />
    </linearGradient>
    <linearGradient
       id="linearGradient2959">
      <stop
         id="stop2961"
         stop-color="#c0c0c0"
         stop-opacity="1" />
      <stop
         offset="1"
         id="stop2963"
         stop-color="#343434"
         stop-opacity="1" />
    </linearGradient>
    <linearGradient
       id="linearGradient2808"
       inkscape:collect="always">
      <stop
         id="stop2810"
         stop-color="black"
         stop-opacity="1" />
      <stop
         id="stop2812"
         offset="1"
         stop-color="white"
         stop-opacity="1" />
    </linearGradient>
    <linearGradient
       id="linearGradient2841">
      <stop
         id="stop2843"
         stop-color="#8a8a8a"
         stop-opacity="1" />
      <stop
         id="stop2845"
         offset="1"
         stop-color="#000000"
         stop-opacity="0" />
    </linearGradient>
    <linearGradient
       id="linearGradient2849">
      <stop
         id="stop2851"
         stop-color="#c9c9c9"
         stop-opacity="1" />
      <stop
         id="stop2853"
         offset="1"
         stop-color="#343434"
         stop-opacity="1" />
    </linearGradient>
    <linearGradient
       id="linearGradient1899">
      <stop
         id="stop1901"
         stop-color="black"
         stop-opacity="1" />
      <stop
         offset="1"
         id="stop1903"
         stop-color="#c0c0c0"
         stop-opacity="1" />
    </linearGradient>
    <linearGradient
       id="linearGradient1905">
      <stop
         id="stop1907"
         stop-color="#959595"
         stop-opacity="1" />
      <stop
         offset="1"
         id="stop1909"
         stop-color="#141414"
         stop-opacity="1" />
    </linearGradient>
    <linearGradient
       inkscape:collect="always"
       xlink:href="#linearGradient2959"
       id="linearGradient4178"
       gradientUnits="userSpaceOnUse"
       gradientTransform="matrix(0.28598148,-0.12959102,0.12959102,0.28598148,75.201508,111.64938)"
       spreadMethod="reflect"
       x1="167.44"
       y1="189.94"
       x2="167.92"
       y2="168.17" />
    <linearGradient
       inkscape:collect="always"
       xlink:href="#linearGradient2967"
       id="linearGradient4180"
       gradientUnits="userSpaceOnUse"
       gradientTransform="matrix(0.28598148,-0.12959102,0.12959102,0.28598148,75.201508,111.64938)"
       spreadMethod="reflect"
       x1="152.92"
       y1="181.72"
       x2="153.41"
       y2="154.13" />
    <linearGradient
       inkscape:collect="always"
       xlink:href="#linearGradient2959"
       id="linearGradient4183"
       gradientUnits="userSpaceOnUse"
       gradientTransform="matrix(0.29427622,0.10945799,-0.10945799,0.29427622,114.47081,78.395599)"
       spreadMethod="reflect"
       x1="167.44"
       y1="189.94"
       x2="167.92"
       y2="168.17" />
    <linearGradient
       inkscape:collect="always"
       xlink:href="#linearGradient2967"
       id="linearGradient4185"
       gradientUnits="userSpaceOnUse"
       gradientTransform="matrix(0.29427622,0.10945799,-0.10945799,0.29427622,114.47081,78.395599)"
       spreadMethod="reflect"
       x1="152.92"
       y1="181.72"
       x2="153.41"
       y2="154.13" />
    <filter
       inkscape:collect="always"
       id="filter4995"
       x="-0.108"
       width="1.216"
       y="-0.069"
       height="1.137">
      <feGaussianBlur
         inkscape:collect="always"
         stdDeviation="0.90823"
         id="feGaussianBlur4997" />
    </filter>
    <filter
       inkscape:collect="always"
       id="filter5025">
      <feGaussianBlur
         inkscape:collect="always"
         stdDeviation="0.95746"
         id="feGaussianBlur5027" />
    </filter>
    <radialGradient
       inkscape:collect="always"
       xlink:href="#linearGradient3113"
       id="radialGradient5046"
       gradientUnits="userSpaceOnUse"
       gradientTransform="matrix(0.97153867,0.9871617,-1.3012594,1.2867561,124.22062,-63.45964)"
       cx="67.39"
       cy="93.59"
       fx="67.39"
       fy="93.59"
       r="65.6" />
    <radialGradient
       inkscape:collect="always"
       xlink:href="#linearGradient3113"
       id="radialGradient5049"
       gradientUnits="userSpaceOnUse"
       gradientTransform="matrix(0.02124929,1.3849418,-1.8297502,0.0280799,135.41524,36.45575)"
       cx="67.39"
       cy="93.59"
       fx="67.39"
       fy="93.59"
       r="65.6" />
    <radialGradient
       inkscape:collect="always"
       xlink:href="#linearGradient3113"
       id="radialGradient5052"
       gradientUnits="userSpaceOnUse"
       gradientTransform="matrix(0.02160895,1.4083836,-1.8607203,0.02855518,139.06989,35.729149)"
       cx="67.39"
       cy="93.59"
       fx="67.39"
       fy="93.59"
       r="65.6" />
    <linearGradient
       inkscape:collect="always"
       xlink:href="#linearGradient1905"
       id="linearGradient5054"
       gradientUnits="userSpaceOnUse"
       x1="25.543"
       y1="23.394"
       x2="91.71"
       y2="105.14" />
    <linearGradient
       inkscape:collect="always"
       xlink:href="#linearGradient2808"
       id="linearGradient5056"
       gradientUnits="userSpaceOnUse"
       gradientTransform="translate(-0.25545,0)"
       spreadMethod="reflect"
       x1="36.647"
       y1="20.379"
       x2="44.687"
       y2="31.06" />
    <linearGradient
       inkscape:collect="always"
       xlink:href="#linearGradient2841"
       id="linearGradient5058"
       gradientUnits="userSpaceOnUse"
       x1="44.639"
       y1="44.15"
       x2="87.41"
       y2="86.48" />
    <linearGradient
       inkscape:collect="always"
       xlink:href="#linearGradient1899"
       id="linearGradient5060"
       gradientUnits="userSpaceOnUse"
       x1="40.461"
       y1="40.6"
       x2="90.64"
       y2="91.92" />
    <linearGradient
       inkscape:collect="always"
       xlink:href="#linearGradient2849"
       id="linearGradient5062"
       gradientUnits="userSpaceOnUse"
       x1="42.989"
       y1="39.719"
       x2="86.18"
       y2="90.39" />
  </defs>
  <sodipodi:namedview
     id="base"
     pagecolor="#ffffff"
     bordercolor="#666666"
     borderopacity="1.0"
     inkscape:pageopacity="0.0"
     inkscape:pageshadow="2"
     inkscape:zoom="2.3892475"
     inkscape:cx="128"
     inkscape:cy="128"
     inkscape:document-units="px"
     inkscape:current-layer="layer1"
     width="256"
     height="256"
     inkscape:window-width="1920"
     inkscape:window-height="1056"
     inkscape:window-x="0"
     inkscape:window-y="0"
     showgrid="false"
     inkscape:window-maximized="1" />
  <metadata
     id="metadata7">
    <rdf:RDF>
      <cc:Work>
        <dc:format>image/svg+xml</dc:format>
        <dc:type
           rdf:resource="http://purl.org/dc/dcmitype/StillImage" />
      </cc:Work>
    </rdf:RDF>
  </metadata>
  <g
     inkscape:label="1. réteg"
     id="layer1"
     inkscape:groupmode="layer">
    <rect
       id="rect3299"
       width="202.55"
       height="138.84"
       x="-97.16"
       y="112.49"
       transform="matrix(0.70419432,-0.6752921,0.67362118,0.70579283,4.1574994,4.1562112)"
       fill="#000000"
       filter="url(#filter3330)"
       stroke="none"
       fill-opacity="1" />
    <rect
       transform="matrix(0.72176329,-0.69213998,0.69042744,0.72340165,0,0)"
       y="112.22"
       x="-86.46"
       height="128.03"
       width="186.77"
       id="rect3121"
       fill="url(#radialGradient5052)"
       stroke="none"
       fill-opacity="1" />
    <rect
       id="rect3111"
       width="183.86"
       height="125.69"
       x="-85.73"
       y="113.07"
       transform="matrix(0.72176329,-0.69213998,0.69042744,0.72340165,0,0)"
       stroke-opacity="1"
       stroke-dasharray="3.83459 3.83459"
       fill="url(#radialGradient5049)"
       stroke="#000000"
       stroke-linejoin="round"
       fill-opacity="1"
       stroke-linecap="butt"
       stroke-width="3.835"
       stroke-dashoffset="0"
       stroke-miterlimit="4" />
    <path
       d="M 19.774276,140.19852 148.64768,17.333277 127.04163,129.89697 z"
       id="rect3125"
       sodipodi:nodetypes="cccc"
       inkscape:connector-curvature="0"
       stroke-opacity="1"
       stroke-dasharray="none"
       fill="url(#radialGradient5046)"
       stroke="#000000"
       stroke-linejoin="round"
       fill-opacity="1"
       stroke-linecap="butt"
       stroke-width="0.426"
       stroke-dashoffset="0"
       stroke-miterlimit="4" />
    <path
       inkscape:connector-curvature="0"
       sodipodi:nodetypes="ccccc"
       id="path4961"
       d="m 132.90819,147.36803 12.77554,4.75194 c 17.20418,11.23188 -16.53584,18.09414 3.83779,26.9624 l -12.77554,-4.75195 c -20.41248,-8.38465 18.26566,-12.40963 -3.83779,-26.96239 z"
       transform="matrix(0.95864584,0,0,0.95864584,4.1379869,4.1518324)"
       fill="#000000"
       filter="url(#filter4995)"
       stroke="none"
       fill-opacity="1" />
    <g
       id="g2865"
       transform="matrix(0.56853236,0,0,0.56853236,91.184143,85.891944)">
      <path
         d="m 117.76266,64.137425 c -0.5109,9.313723 -9.64459,9.627844 -13.12153,16.898367 -3.60791,7.544413 5.49548,12.580288 -0.62426,18.657781 -6.768213,6.721497 -14.690813,0.589767 -22.489534,4.456017 -8.453015,4.19062 -5.798626,13.21706 -16.642917,13.37698 -9.57149,0.14456 -8.965914,-9.48201 -17.153818,-13.37698 -6.944156,-3.30332 -15.226712,4.30154 -21.723185,-2.66786 -6.14097,-6.588027 2.169069,-13.649048 -1.390612,-20.445938 -4.487615,-8.568696 -13.532747,-6.309416 -13.376979,-16.898367 0.163527,-10.8482 10.108513,-8.403269 13.376979,-16.898368 3.133704,-8.144833 -5.349447,-12.428622 0.879711,-18.913231 6.353035,-6.613565 15.110249,-0.216021 22.234086,-4.200566 8.004939,-4.477367 6.818294,-13.121529 16.387467,-13.121529 10.080075,0 9.987715,10.503812 17.409268,13.121529 7.251928,2.557888 13.633477,-3.487538 20.190484,2.667863 7.34579,6.895869 -1.36696,12.972637 2.92331,20.445934 4.34486,7.568394 13.12153,7.073744 13.12153,16.898368 z"
         sodipodi:nodetypes="csssssssssssssssc"
         id="path1873"
         inkscape:connector-curvature="0"
         fill="url(#linearGradient5054)"
         stroke="none"
         fill-opacity="1" />
      <path
         id="path2804"
         d="m 63.1508,13.03125 c -7.746169,0.546605 -8.430266,11.163004 -15.59375,13.28125 -6.977865,3.677232 -17.670079,-3.084004 -22.25,5.3125 -1.297899,5.441872 4.007685,10.938125 0.875,16.46875 -2.070711,7.598344 -14.554848,7.964866 -13.1875,17 0.237135,7.916853 11.13882,8.182207 13.3125,15.34375 3.838307,6.75075 -5.548762,16.594703 2.875,21.25 6.798934,2.83778 15.21143,-3.626606 21.5625,2.09375 5.464097,3.52885 7.341677,13.49981 15.53125,11.625 7.255662,-0.93358 7.31967,-10.94536 14.125,-13.0625 7.176849,-4.282151 18.340432,2.69246 23.25,-5.875 0.96778,-5.411213 -4.566199,-10.94993 -1,-16.40625 2.96313,-7.186982 15.23647,-9.258984 12.5,-18.71875 C 112.46999,54.438607 102.48099,52.982853 101.36955,44.875 100.18593,38.976087 105.77291,30.886516 98.6508,27.125 92.026403,23.650649 83.882342,29.803709 77.5883,24.40625 72.596208,20.790009 70.748178,12.071348 63.1508,13.03125 z"
         inkscape:connector-curvature="0"
         stroke-opacity="1"
         fill="none"
         stroke="url(#linearGradient5056)"
         stroke-linejoin="round"
         stroke-linecap="round"
         stroke-width="2.6"
         stroke-miterlimit="4" />
      <path
         transform="matrix(1.080098,0,0,1.080098,-6.683947,-6.665036)"
         d="M 98.092945,65.670105 A 32.186749,32.186749 0 0 1 65.906197,97.856853 32.186749,32.186749 0 0 1 33.719448,65.670105 32.186749,32.186749 0 0 1 65.906197,33.483356 32.186749,32.186749 0 0 1 98.092945,65.670105 Z"
         sodipodi:ry="32.186749"
         sodipodi:rx="32.186749"
         sodipodi:cy="65.670105"
         sodipodi:cx="65.906197"
         id="path2824"
         sodipodi:type="arc"
         stroke-opacity="1"
         stroke-dasharray="none"
         fill="url(#linearGradient5058)"
         stroke="url(#linearGradient5060)"
         stroke-linejoin="round"
         fill-opacity="1"
         stroke-linecap="round"
         stroke-width="3.703"
         stroke-miterlimit="4" />
      <path
         id="text2834"
         d="m 61.165557,42.865415 c -7.775993,1.402856 -14.928003,7.126526 -17.52,16.048692 -0.432,2.132341 -0.912,4.601374 -0.912,6.733717 0,6.958167 2.880004,13.186866 7.296,18.349378 4.463995,4.489134 10.080005,6.228689 15.696,6.228689 7.007993,0 14.496005,-2.805727 19.968,-7.463204 0.335999,0.336685 0.768,0.729486 1.104,0.897829 0.287999,0 0.72,-0.336687 0.912,-0.729486 l -5.952,-8.529375 c -0.144,0.168343 -0.480001,0.505029 -0.624,0.729486 0,0.168343 -0.144,0.505029 -0.144,0.673372 0,0.392799 0.288,0.897829 0.288,1.234515 -0.288,0.561142 -0.768001,1.066172 -1.2,1.458972 -4.271996,3.198512 -8.688005,5.330859 -13.44,5.330859 -1.823999,0 -3.936002,-0.336687 -5.904,-1.066172 -5.183995,-1.963999 -9.024002,-5.723666 -10.992,-11.784004 -0.432,-1.739543 -0.768,-3.535204 -0.768,-5.162516 0,-5.162512 2.304003,-10.325036 6.24,-13.691891 3.359996,-2.469027 7.008003,-3.591316 10.512,-3.591316 5.039995,0 10.512004,2.188461 15.12,5.386974 l -0.144,2.469029 0.72,0 4.896,-9.595546 -1.056,-0.729486 c 0,0.336685 -0.144001,0.729486 -0.48,1.066172 -0.144,0 -0.576001,0.168343 -0.768,0.168343 -0.144,0 -0.432001,-0.168343 -0.576,-0.168343 -5.183995,-2.861828 -11.280006,-4.601373 -17.088,-4.601373 -1.679999,0 -3.504002,0.168343 -5.184,0.336685"
         inkscape:connector-curvature="0"
         fill="#000000"
         font-family="Engraver"
         stroke="none"
         font-style="normal"
         fill-opacity="1"
         font-weight="bold"
         font-size="48" />
      <path
         d="m 59.632855,40.055461 c -7.775993,1.402856 -14.928003,7.126526 -17.52,16.048692 -0.432,2.132341 -0.912,4.601374 -0.912,6.733717 0,6.958167 2.880004,13.186866 7.296,18.349378 4.463995,4.489134 10.080005,6.228689 15.696,6.228689 7.007993,0 14.496005,-2.805727 19.968,-7.463204 0.335999,0.336685 0.768,0.729486 1.104,0.897829 0.287999,0 0.72,-0.336687 0.912,-0.729486 l -5.952,-8.529375 c -0.144,0.168343 -0.480001,0.505029 -0.624,0.729486 0,0.168343 -0.144,0.505029 -0.144,0.673372 0,0.392799 0.288,0.897829 0.288,1.234515 -0.288,0.561142 -0.768001,1.066172 -1.2,1.458972 -4.271996,3.198512 -8.688005,5.330859 -13.44,5.330859 -1.823999,0 -3.936002,-0.336687 -5.904,-1.066172 -5.183995,-1.963999 -9.024002,-5.723666 -10.992,-11.784004 -0.432,-1.739543 -0.768,-3.535204 -0.768,-5.162516 0,-5.162512 2.304003,-10.325036 6.24,-13.691891 3.359996,-2.469027 7.008003,-3.591316 10.512,-3.591316 5.039995,0 10.512004,2.188461 15.12,5.386974 l -0.144,2.469029 0.72,0 4.896,-9.595546 -1.056,-0.729486 c 0,0.336685 -0.144001,0.729486 -0.48,1.066172 -0.144,0 -0.576001,0.168343 -0.768,0.168343 -0.144,0 -0.432001,-0.168343 -0.576,-0.168343 -5.183995,-2.861828 -11.280006,-4.601373 -17.088,-4.601373 -1.679999,0 -3.504002,0.168343 -5.184,0.336685"
         id="path2839"
         inkscape:connector-curvature="0"
         fill="url(#linearGradient5062)"
         font-family="Engraver"
         stroke="none"
         font-style="normal"
         fill-opacity="1"
         font-weight="bold"
         font-size="48" />
    </g>
    <path
       d="m 134.34884,143.50129 12.24721,4.55543 c 16.49272,10.7674 -15.85201,17.34588 3.67908,25.84739 l -12.24721,-4.55544 c -19.56833,-8.0379 17.5103,-11.89643 -3.67908,-25.84738 z"
       id="rect2956"
       sodipodi:nodetypes="ccccc"
       inkscape:connector-curvature="0"
       stroke-opacity="1"
       stroke-dasharray="none"
       fill="url(#linearGradient4183)"
       stroke="url(#linearGradient4185)"
       stroke-linejoin="round"
       fill-opacity="1"
       stroke-linecap="round"
       stroke-width="0.628"
       stroke-dashoffset="0"
       stroke-miterlimit="4" />
    <path
       inkscape:connector-curvature="0"
       d="m 137.04182,145.81618 13.37405,-2.63246 c 20.53801,0.57383 -4.62882,24.07085 17.37412,20.97234 l -13.37405,2.63246 c -21.78311,3.531 9.07653,-20.13081 -17.37412,-20.97234 z"
       id="path4999"
       sodipodi:nodetypes="ccccc"
       transform="matrix(0.95864584,0,0,0.95864584,4.1379869,4.1518324)"
       fill="#000000"
       filter="url(#filter5025)"
       stroke="none"
       fill-opacity="1" />
    <path
       sodipodi:nodetypes="ccccc"
       id="path2975"
       d="m 135.17107,143.8602 11.90202,-5.39333 c 19.29118,-3.97453 0.96637,23.4783 20.81815,15.75525 l -11.90203,5.39332 c -19.55166,8.07838 4.04924,-20.77834 -20.81814,-15.75524 z"
       inkscape:connector-curvature="0"
       stroke-opacity="1"
       stroke-dasharray="none"
       fill="url(#linearGradient4178)"
       stroke="url(#linearGradient4180)"
       stroke-linejoin="round"
       fill-opacity="1"
       stroke-linecap="round"
       stroke-width="0.628"
       stroke-dashoffset="0"
       stroke-miterlimit="4" />
  </g>
</svg>
