<?xml version="1.0" encoding="UTF-8" standalone="no"?>
<!-- Created with Inkscape (http://www.inkscape.org/) -->

<svg
   xmlns:dc="http://purl.org/dc/elements/1.1/"
   xmlns:cc="http://creativecommons.org/ns#"
   xmlns:rdf="http://www.w3.org/1999/02/22-rdf-syntax-ns#"
   xmlns:svg="http://www.w3.org/2000/svg"
   xmlns="http://www.w3.org/2000/svg"
   xmlns:xlink="http://www.w3.org/1999/xlink"
   xmlns:sodipodi="http://sodipodi.sourceforge.net/DTD/sodipodi-0.dtd"
   xmlns:inkscape="http://www.inkscape.org/namespaces/inkscape"
   width="255"
   height="255"
   viewBox="0 0 67.468749 67.468749"
   version="1.1"
   id="svg8"
   inkscape:version="0.92.5 (2060ec1f9f, 2020-04-08)"
   sodipodi:docname="firejail.svg">
  <defs
     id="defs2">
    <clipPath
       clipPathUnits="userSpaceOnUse"
       id="clipPath2059">
      <path
         d="m -10.099732,231.68531 c 3.5587363,2.50616 4.8319716,-0.58528 2.9651647,-3.064 -3.1818907,-4.22486 -6.4443207,-9.83985 -12.3548527,-15.91305 -2.594516,-2.66865 -11.860659,-7.80827 -11.860659,-7.80827 0,0 -0.115438,-2.18844 -0.09884,-3.064 0.01106,-0.582 -0.565687,-0.56369 -0.889553,-0.29652 -0.782426,0.64546 -2.47097,2.56981 -2.47097,2.56981 l -1.68026,-0.0988 -1.087226,-1.58142 c -0.296516,-0.41055 -0.636056,-0.34641 -0.88955,0 -0.545383,1.84962 -0.878698,3.8848 -3.459359,3.95355 l 4.447747,3.95356 c 7.76561,1.55335 15.578734,5.58545 20.261957,14.33163 0,0 4.526451,5.19364 7.116396,7.01755 z"
         id="path2061"
         sodipodi:nodetypes="csscsscccccccs"
         inkscape:connector-curvature="0"
         stroke-dasharray="none"
         stroke-opacity="1"
         fill="#ffffff"
         fill-rule="evenodd"
         stroke="none"
         stroke-linejoin="miter"
         fill-opacity="1"
         stroke-linecap="butt"
         stroke-width="0.048"
         stroke-miterlimit="4" />
    </clipPath>
    <clipPath
       id="clipPath2059-5"
       clipPathUnits="userSpaceOnUse">
      <path
         stroke-miterlimit="4"
         stroke-width="0.048"
         stroke-linecap="butt"
         fill-opacity="1"
         stroke-linejoin="miter"
         stroke="none"
         fill-rule="evenodd"
         fill="#ffffff"
         stroke-opacity="1"
         stroke-dasharray="none"
         inkscape:connector-curvature="0"
         sodipodi:nodetypes="csscsscccccccs"
         id="path2061-3"
         d="m -10.099732,231.68531 c 3.5587363,2.50616 4.8319716,-0.58528 2.9651647,-3.064 -3.1818907,-4.22486 -6.4443207,-9.83985 -12.3548527,-15.91305 -2.594516,-2.66865 -11.860659,-7.80827 -11.860659,-7.80827 0,0 -0.115438,-2.18844 -0.09884,-3.064 0.01106,-0.582 -0.565687,-0.56369 -0.889553,-0.29652 -0.782426,0.64546 -2.47097,2.56981 -2.47097,2.56981 l -1.68026,-0.0988 -1.087226,-1.58142 c -0.296516,-0.41055 -0.636056,-0.34641 -0.88955,0 -0.545383,1.84962 -0.878698,3.8848 -3.459359,3.95355 l 4.447747,3.95356 c 7.76561,1.55335 15.578734,5.58545 20.261957,14.33163 0,0 4.526451,5.19364 7.116396,7.01755 z" />
    </clipPath>
    <clipPath
       id="clipPath">
      <path
         fill-opacity="0.95"
         stroke="none"
         fill="#1b1b1b"
         sodipodi:nodetypes="csssscc"
         inkscape:connector-curvature="0"
         id="rect5264"
         d="m -515.73002,435.56445 v 5.83767 c 0,9.74315 -7.84377,17.58692 -17.58692,17.58692 h -135.05122 c -9.74315,0 -17.58692,-7.84377 -17.58692,-17.58692 v -5.83767 z" />
    </clipPath>
    <clipPath
       clipPathUnits="userSpaceOnUse"
       id="clipPath2059-7">
      <path
         d="m -10.099732,231.68531 c 3.5587363,2.50616 4.8319716,-0.58528 2.9651647,-3.064 -3.1818907,-4.22486 -6.4443207,-9.83985 -12.3548527,-15.91305 -2.594516,-2.66865 -11.860659,-7.80827 -11.860659,-7.80827 0,0 -0.115438,-2.18844 -0.09884,-3.064 0.01106,-0.582 -0.565687,-0.56369 -0.889553,-0.29652 -0.782426,0.64546 -2.47097,2.56981 -2.47097,2.56981 l -1.68026,-0.0988 -1.087226,-1.58142 c -0.296516,-0.41055 -0.636056,-0.34641 -0.88955,0 -0.545383,1.84962 -0.878698,3.8848 -3.459359,3.95355 l 4.447747,3.95356 c 7.76561,1.55335 15.578734,5.58545 20.261957,14.33163 0,0 4.526451,5.19364 7.116396,7.01755 z"
         id="path2061-5"
         sodipodi:nodetypes="csscsscccccccs"
         inkscape:connector-curvature="0"
         stroke-dasharray="none"
         stroke-opacity="1"
         fill="#ffffff"
         fill-rule="evenodd"
         stroke="none"
         stroke-linejoin="miter"
         fill-opacity="1"
         stroke-linecap="butt"
         stroke-width="0.048"
         stroke-miterlimit="4" />
    </clipPath>
    <clipPath
       clipPathUnits="userSpaceOnUse"
       id="clipPath1162">
      <path
         stroke-miterlimit="4"
         stroke-width="0.071"
         stroke-linecap="round"
         fill-opacity="0.347"
         stroke-linejoin="round"
         stroke="none"
         fill="#000000"
         stroke-opacity="1"
         stroke-dasharray="none"
         inkscape:connector-curvature="0"
         d="m -65.649736,239.84563 c -9.358079,0 -16.951888,7.59381 -16.951888,16.95188 0,9.35808 7.593811,16.94076 16.951888,16.94077 0.292439,0 0.578792,-0.008 0.867614,-0.0222 2.122786,-0.10753 4.148336,-0.60587 5.995453,-1.42378 l 2.669587,3.97101 c -0.225515,0.4951 -0.245107,0.96445 -0.01111,1.31255 l 15.67271,23.32553 c 0.495366,0.73695 1.94415,0.6317 3.247998,-0.24471 1.303846,-0.87642 1.96364,-2.17735 1.468276,-2.9143 L -51.42304,274.4168 c -0.233058,-0.34672 -0.682887,-0.49868 -1.22356,-0.47831 l -2.558357,-3.80416 c 3.95991,-3.10036 6.507123,-7.91951 6.507123,-13.33682 0,-9.35807 -7.593809,-16.95188 -16.951889,-16.95188 z m 0,2.5806 c 7.92884,0 14.371283,6.44244 14.371283,14.37128 0,7.92885 -6.442435,14.36016 -14.371283,14.36016 -7.928851,0 -14.349039,-6.43131 -14.349039,-14.36016 0,-0.24777 -0.0013,-0.48941 0.01111,-0.73413 0.384376,-7.58638 6.656848,-13.63715 14.337916,-13.63715 z"
         id="path1164" />
    </clipPath>
    <linearGradient
       id="linearGradient4484"
       inkscape:collect="always">
      <stop
         stop-opacity="1"
         stop-color="#b6490f"
         id="stop4486" />
      <stop
         stop-opacity="1"
         stop-color="#532c17"
         id="stop4488"
         offset="1" />
    </linearGradient>
    <linearGradient
       id="linearGradient4446"
       inkscape:collect="always">
      <stop
         stop-opacity="1"
         stop-color="#000000"
         id="stop4448" />
      <stop
         stop-opacity="0"
         stop-color="#000000"
         id="stop4450"
         offset="1" />
    </linearGradient>
    <linearGradient
       id="linearGradient4308"
       inkscape:collect="always">
      <stop
         stop-opacity="1"
         stop-color="#e6862d"
         id="stop4310" />
      <stop
         stop-opacity="1"
         stop-color="#6d390c"
         id="stop4312"
         offset="1" />
    </linearGradient>
    <linearGradient
       id="linearGradient4253"
       inkscape:collect="always">
      <stop
         stop-opacity="1"
         stop-color="#e69468"
         id="stop4255" />
      <stop
         stop-opacity="1"
         stop-color="#894724"
         offset="0.796"
         id="stop4482" />
      <stop
         stop-opacity="1"
         stop-color="#3a2316"
         id="stop4257"
         offset="1" />
    </linearGradient>
    <linearGradient
       id="linearGradient4237"
       inkscape:collect="always">
      <stop
         stop-opacity="1"
         stop-color="#1d1d1d"
         id="stop4239" />
      <stop
         stop-opacity="1"
         stop-color="#4b2d0b"
         id="stop4241"
         offset="1" />
    </linearGradient>
    <linearGradient
       inkscape:collect="always"
       id="linearGradient4197">
      <stop
         stop-opacity="0.656"
         stop-color="#ffffff"
         id="stop4199" />
      <stop
         stop-opacity="0"
         stop-color="#ffffff"
         offset="1"
         id="stop4201" />
    </linearGradient>
    <linearGradient
       id="linearGradient4183"
       inkscape:collect="always">
      <stop
         stop-opacity="0.774"
         stop-color="#ffffff"
         id="stop4185" />
      <stop
         stop-opacity="0"
         stop-color="#ffffff"
         id="stop4187"
         offset="1" />
    </linearGradient>
    <linearGradient
       id="linearGradient4153"
       inkscape:collect="always">
      <stop
         stop-opacity="0"
         stop-color="#ffffff"
         id="stop4155" />
      <stop
         stop-opacity="0.667"
         stop-color="#ffffff"
         id="stop4157"
         offset="1" />
    </linearGradient>
    <linearGradient
       id="linearGradient4137"
       inkscape:collect="always">
      <stop
         stop-opacity="0"
         stop-color="#000000"
         id="stop4139" />
      <stop
         stop-opacity="0"
         stop-color="#000000"
         offset="0.81"
         id="stop4147" />
      <stop
         stop-opacity="1"
         stop-color="#000000"
         id="stop4141"
         offset="1" />
    </linearGradient>
    <radialGradient
       r="20.953"
       fy="193.25"
       fx="261.34"
       cy="193.25"
       cx="261.34"
       gradientTransform="matrix(0.38530707,0,0,0.34158192,-52.157644,197.38926)"
       gradientUnits="userSpaceOnUse"
       id="radialGradient4227"
       xlink:href="#linearGradient4137"
       inkscape:collect="always" />
    <linearGradient
       y2="183.97"
       x2="214.94"
       y1="187.51"
       x1="214.68"
       gradientTransform="matrix(0.41903485,0,0,0.36083195,-39.958164,191.86971)"
       gradientUnits="userSpaceOnUse"
       id="linearGradient4229"
       xlink:href="#linearGradient4153"
       inkscape:collect="always" />
    <radialGradient
       r="2.452"
       fy="195.63"
       fx="215.06"
       cy="195.63"
       cx="215.06"
       gradientTransform="matrix(0.53367847,0,0,0.49555854,-63.809965,164.56522)"
       gradientUnits="userSpaceOnUse"
       id="radialGradient4231"
       xlink:href="#linearGradient4183"
       inkscape:collect="always" />
    <radialGradient
       r="2.452"
       fy="195.63"
       fx="215.06"
       cy="195.63"
       cx="215.06"
       gradientTransform="matrix(0.38530704,0,0,0.35778514,-33.434753,193.36973)"
       gradientUnits="userSpaceOnUse"
       id="radialGradient4233"
       xlink:href="#linearGradient4197"
       inkscape:collect="always" />
    <linearGradient
       gradientTransform="matrix(0.26742784,0,0,0.26742784,-32.974122,210.05404)"
       gradientUnits="userSpaceOnUse"
       y2="232.3"
       x2="263.24"
       y1="248.56"
       x1="262.3"
       id="linearGradient4243"
       xlink:href="#linearGradient4237"
       inkscape:collect="always" />
    <radialGradient
       spreadMethod="pad"
       gradientUnits="userSpaceOnUse"
       gradientTransform="matrix(0.26120462,0.00777866,-0.00673368,0.22611469,-128.39109,216.05248)"
       r="115.63"
       fy="194.2"
       fx="637.6"
       cy="194.2"
       cx="637.6"
       id="radialGradient4259"
       xlink:href="#linearGradient4253"
       inkscape:collect="always" />
    <radialGradient
       gradientUnits="userSpaceOnUse"
       gradientTransform="matrix(0.26738596,0.00473249,-0.01371411,0.77484797,-127.66305,53.765248)"
       r="6.373"
       fy="294.86"
       fx="553.43"
       cy="294.86"
       cx="553.43"
       id="radialGradient4314"
       xlink:href="#linearGradient4308"
       inkscape:collect="always" />
    <radialGradient
       r="6.373"
       fy="294.86"
       fx="553.43"
       cy="294.86"
       cx="553.43"
       gradientTransform="matrix(0.21939408,0.00419582,-0.01125263,0.6869786,-98.860583,80.922695)"
       gradientUnits="userSpaceOnUse"
       id="radialGradient4318"
       xlink:href="#linearGradient4308"
       inkscape:collect="always" />
    <radialGradient
       r="6.373"
       fy="294.86"
       fx="553.43"
       cy="294.86"
       cx="553.43"
       gradientTransform="matrix(0.21939408,0.0038543,-0.01125263,0.63106175,-104.62863,97.77568)"
       gradientUnits="userSpaceOnUse"
       id="radialGradient4322"
       xlink:href="#linearGradient4308"
       inkscape:collect="always" />
    <radialGradient
       r="6.373"
       fy="294.86"
       fx="553.43"
       cy="294.86"
       cx="553.43"
       gradientTransform="matrix(0.17825818,0.00263458,-0.00914278,0.43135862,-74.397478,158.98866)"
       gradientUnits="userSpaceOnUse"
       id="radialGradient4326"
       xlink:href="#linearGradient4308"
       inkscape:collect="always" />
    <radialGradient
       r="6.373"
       fy="294.86"
       fx="553.43"
       cy="294.86"
       cx="553.43"
       gradientTransform="matrix(-0.26738596,0.00473249,0.01371411,0.77484797,195.95339,53.677859)"
       gradientUnits="userSpaceOnUse"
       id="radialGradient4344"
       xlink:href="#linearGradient4308"
       inkscape:collect="always" />
    <radialGradient
       r="6.373"
       fy="294.86"
       fx="553.43"
       cy="294.86"
       cx="553.43"
       gradientTransform="matrix(-0.21939408,0.00419582,0.01125263,0.6869786,167.15092,80.835301)"
       gradientUnits="userSpaceOnUse"
       id="radialGradient4346"
       xlink:href="#linearGradient4308"
       inkscape:collect="always" />
    <radialGradient
       r="6.373"
       fy="294.86"
       fx="553.43"
       cy="294.86"
       cx="553.43"
       gradientTransform="matrix(-0.21939408,0.0038543,0.01125263,0.63106175,172.91897,97.688285)"
       gradientUnits="userSpaceOnUse"
       id="radialGradient4348"
       xlink:href="#linearGradient4308"
       inkscape:collect="always" />
    <radialGradient
       r="6.373"
       fy="294.86"
       fx="553.43"
       cy="294.86"
       cx="553.43"
       gradientTransform="matrix(-0.17825818,0.00263458,0.00914278,0.43135862,142.68781,158.90127)"
       gradientUnits="userSpaceOnUse"
       id="radialGradient4350"
       xlink:href="#linearGradient4308"
       inkscape:collect="always" />
    <linearGradient
       gradientTransform="matrix(0.24380852,0,0,0.24380852,-117.82315,213.41301)"
       gradientUnits="userSpaceOnUse"
       y2="260.26"
       x2="595.25"
       y1="170.42"
       x1="589.1"
       id="linearGradient4452"
       xlink:href="#linearGradient4446"
       inkscape:collect="always" />
    <linearGradient
       gradientTransform="matrix(0.24380852,0,0,0.24380852,-117.82315,213.41301)"
       gradientUnits="userSpaceOnUse"
       y2="245.65"
       x2="682.43"
       y1="167.77"
       x1="683.81"
       id="linearGradient4460"
       xlink:href="#linearGradient4446"
       inkscape:collect="always" />
    <radialGradient
       r="20.953"
       fy="193.25"
       fx="261.34"
       cy="193.25"
       cx="261.34"
       gradientTransform="matrix(0.38530707,0,0,0.34158192,-76.891203,197.87423)"
       gradientUnits="userSpaceOnUse"
       id="radialGradient4474"
       xlink:href="#linearGradient4137"
       inkscape:collect="always" />
    <linearGradient
       y2="183.97"
       x2="214.94"
       y1="187.51"
       x1="214.68"
       gradientTransform="matrix(0.39872144,0,0,0.34334002,-60.62874,195.31267)"
       gradientUnits="userSpaceOnUse"
       id="linearGradient4476"
       xlink:href="#linearGradient4153"
       inkscape:collect="always" />
    <radialGradient
       r="2.452"
       fy="195.63"
       fx="215.06"
       cy="195.63"
       cx="215.06"
       gradientTransform="matrix(0.51719278,0,0,0.48025041,-85.200217,168.05357)"
       gradientUnits="userSpaceOnUse"
       id="radialGradient4478"
       xlink:href="#linearGradient4183"
       inkscape:collect="always" />
    <radialGradient
       r="2.452"
       fy="195.63"
       fx="215.06"
       cy="195.63"
       cx="215.06"
       gradientTransform="matrix(0.38530704,0,0,0.35778514,-58.16831,193.8547)"
       gradientUnits="userSpaceOnUse"
       id="radialGradient4480"
       xlink:href="#linearGradient4197"
       inkscape:collect="always" />
    <radialGradient
       gradientUnits="userSpaceOnUse"
       gradientTransform="matrix(0.28511034,0,0,0.34225084,-4.1825001,221.51603)"
       r="23.25"
       fy="73.17"
       fx="72.46"
       cy="73.17"
       cx="72.46"
       id="radialGradient4490"
       xlink:href="#linearGradient4484"
       inkscape:collect="always" />
    <radialGradient
       gradientUnits="userSpaceOnUse"
       gradientTransform="matrix(0.28511034,0,0,0.34225071,-4.1825001,221.45943)"
       r="23.25"
       fy="77.935"
       fx="215.97"
       cy="77.935"
       cx="215.97"
       id="radialGradient4498"
       xlink:href="#linearGradient4484"
       inkscape:collect="always" />
  </defs>
  <sodipodi:namedview
     id="base"
     pagecolor="#ff0000"
     bordercolor="#666666"
     borderopacity="1.0"
     inkscape:pageopacity="0"
     inkscape:pageshadow="2"
     inkscape:zoom="3.4901961"
     inkscape:cx="127.5"
     inkscape:cy="127.5"
     inkscape:document-units="px"
     inkscape:current-layer="layer1"
     showgrid="false"
     inkscape:snap-to-guides="false"
     inkscape:snap-grids="false"
     inkscape:snap-others="false"
     inkscape:object-nodes="false"
     inkscape:snap-nodes="false"
     inkscape:snap-global="false"
     inkscape:window-width="1920"
     inkscape:window-height="1056"
     inkscape:window-x="0"
     inkscape:window-y="0"
     inkscape:window-maximized="1"
     units="px"
     showguides="false" />
  <metadata
     id="metadata5">
    <rdf:RDF>
      <cc:Work>
        <dc:format>image/svg+xml</dc:format>
        <dc:type
           rdf:resource="http://purl.org/dc/dcmitype/StillImage" />
        <dc:title />
      </cc:Work>
    </rdf:RDF>
  </metadata>
  <g
     inkscape:label="Layer 1"
     inkscape:groupmode="layer"
     id="layer1"
     transform="translate(0,-229.53126)">
    <rect
       id="rect4277"
       width="58.932308"
       height="49.597801"
       x="6.0315781"
       y="241.92978"
       stroke-miterlimit="4"
       style="opacity:1;fill:#000000;fill-opacity:1;fill-rule:nonzero;stroke:none;stroke-width:0.76979798;stroke-linecap:round;stroke-linejoin:round;stroke-miterlimit:4;stroke-dasharray:none;stroke-dashoffset:0;stroke-opacity:0.403" />
    <path
       d="m 17.714953,286.69387 c 0,2.34094 0.02355,4.23864 -1.704197,4.23864 -1.727754,0 -1.704197,-1.8977 -1.704197,-4.23864 0,-2.34094 0.151231,-4.23864 1.704197,-4.23864 1.552965,0 1.704197,1.8977 1.704197,4.23864 z"
       id="path4305"
       inkscape:connector-curvature="0"
       sodipodi:nodetypes="szszs"
       stroke-miterlimit="4"
       style="opacity:1;fill:url(#radialGradient4314);fill-opacity:1;fill-rule:nonzero;stroke:none;stroke-width:0.76979798;stroke-linecap:round;stroke-linejoin:round;stroke-miterlimit:4;stroke-dasharray:none;stroke-dashoffset:0;stroke-opacity:0.403" />
    <path
       sodipodi:nodetypes="szszs"
       inkscape:connector-curvature="0"
       id="path4316"
       d="m 20.424192,287.43673 c 0,2.07547 0.01934,3.75797 -1.398317,3.75797 -1.41765,0 -1.39832,-1.6825 -1.39832,-3.75797 0,-2.07548 0.124089,-3.75797 1.39832,-3.75797 1.274228,0 1.398317,1.68249 1.398317,3.75797 z"
       stroke-miterlimit="4"
       style="opacity:1;fill:url(#radialGradient4318);fill-opacity:1;fill-rule:nonzero;stroke:none;stroke-width:0.76979798;stroke-linecap:round;stroke-linejoin:round;stroke-miterlimit:4;stroke-dasharray:none;stroke-dashoffset:0;stroke-opacity:0.403" />
    <path
       d="m 14.656141,287.48042 c 0,1.90654 0.01934,3.45209 -1.39832,3.45209 -1.417649,0 -1.398317,-1.54555 -1.398317,-3.45209 0,-1.90653 0.124088,-3.45209 1.398317,-3.45209 1.274231,0 1.39832,1.54556 1.39832,3.45209 z"
       id="path4320"
       inkscape:connector-curvature="0"
       sodipodi:nodetypes="szszs"
       stroke-miterlimit="4"
       style="opacity:1;fill:url(#radialGradient4322);fill-opacity:1;fill-rule:nonzero;stroke:none;stroke-width:0.76979798;stroke-linecap:round;stroke-linejoin:round;stroke-miterlimit:4;stroke-dasharray:none;stroke-dashoffset:0;stroke-opacity:0.403" />
    <path
       sodipodi:nodetypes="szszs"
       inkscape:connector-curvature="0"
       id="path4324"
       d="m 22.521668,288.66025 c 0,1.3032 0.0157,2.35966 -1.136137,2.35966 -1.151844,0 -1.136138,-1.05646 -1.136138,-2.35966 0,-1.3032 0.100822,-2.35966 1.136138,-2.35966 1.035313,0 1.136137,1.05646 1.136137,2.35966 z"
       stroke-miterlimit="4"
       style="opacity:1;fill:url(#radialGradient4326);fill-opacity:1;fill-rule:nonzero;stroke:none;stroke-width:0.76979798;stroke-linecap:round;stroke-linejoin:round;stroke-miterlimit:4;stroke-dasharray:none;stroke-dashoffset:0;stroke-opacity:0.403" />
    <path
       sodipodi:nodetypes="szszs"
       inkscape:connector-curvature="0"
       id="path4336"
       d="m 50.575388,286.60648 c 0,2.34093 -0.02355,4.23864 1.704192,4.23864 1.727756,0 1.7042,-1.89771 1.7042,-4.23864 0,-2.34094 -0.151236,-4.23864 -1.7042,-4.23864 -1.552961,0 -1.704192,1.8977 -1.704192,4.23864 z"
       stroke-miterlimit="4"
       style="opacity:1;fill:url(#radialGradient4344);fill-opacity:1;fill-rule:nonzero;stroke:none;stroke-width:0.76979798;stroke-linecap:round;stroke-linejoin:round;stroke-miterlimit:4;stroke-dasharray:none;stroke-dashoffset:0;stroke-opacity:0.403" />
    <path
       d="m 47.866145,287.34933 c 0,2.07547 -0.01934,3.75798 1.398318,3.75798 1.41765,0 1.39832,-1.68251 1.39832,-3.75798 0,-2.07547 -0.12409,-3.75797 -1.39832,-3.75797 -1.274228,0 -1.398318,1.6825 -1.398318,3.75797 z"
       id="path4338"
       inkscape:connector-curvature="0"
       sodipodi:nodetypes="szszs"
       stroke-miterlimit="4"
       style="opacity:1;fill:url(#radialGradient4346);fill-opacity:1;fill-rule:nonzero;stroke:none;stroke-width:0.76979798;stroke-linecap:round;stroke-linejoin:round;stroke-miterlimit:4;stroke-dasharray:none;stroke-dashoffset:0;stroke-opacity:0.403" />
    <path
       sodipodi:nodetypes="szszs"
       inkscape:connector-curvature="0"
       id="path4340"
       d="m 53.634194,287.39303 c 0,1.90654 -0.01931,3.45209 1.39832,3.45209 1.417648,0 1.39832,-1.54555 1.39832,-3.45209 0,-1.90654 -0.124089,-3.45209 -1.39832,-3.45209 -1.274228,0 -1.39832,1.54555 -1.39832,3.45209 z"
       stroke-miterlimit="4"
       style="opacity:1;fill:url(#radialGradient4348);fill-opacity:1;fill-rule:nonzero;stroke:none;stroke-width:0.76979798;stroke-linecap:round;stroke-linejoin:round;stroke-miterlimit:4;stroke-dasharray:none;stroke-dashoffset:0;stroke-opacity:0.403" />
    <path
       d="m 45.768669,288.57286 c 0,1.3032 -0.01572,2.35965 1.136139,2.35965 1.151842,0 1.136134,-1.05645 1.136134,-2.35965 0,-1.30321 -0.100822,-2.35966 -1.136134,-2.35966 -1.035317,0 -1.136139,1.05645 -1.136139,2.35966 z"
       id="path4342"
       inkscape:connector-curvature="0"
       sodipodi:nodetypes="szszs"
       stroke-miterlimit="4"
       style="opacity:1;fill:url(#radialGradient4350);fill-opacity:1;fill-rule:nonzero;stroke:none;stroke-width:0.76979798;stroke-linecap:round;stroke-linejoin:round;stroke-miterlimit:4;stroke-dasharray:none;stroke-dashoffset:0;stroke-opacity:0.403" />
    <path
       sodipodi:nodetypes="cccc"
       inkscape:connector-curvature="0"
       id="path4275"
       d="m 12.655614,258.39377 c -0.604053,-5.20202 -2.260112,-10.2422 0.18833,-15.91384 3.638484,3.5766 7.839497,4.05929 11.958918,4.99073 z"
       style="fill:url(#radialGradient4490);fill-opacity:1;fill-rule:evenodd;stroke:none;stroke-width:0.28511032;stroke-linecap:butt;stroke-linejoin:miter;stroke-opacity:1" />
    <path
       d="m 59.193272,258.67626 c 0.604054,-5.20202 2.260111,-10.24219 -0.18833,-15.91383 -3.638484,3.57659 -7.839496,4.05929 -11.958923,4.99073 z"
       id="path4273"
       inkscape:connector-curvature="0"
       sodipodi:nodetypes="cccc"
       style="fill:url(#radialGradient4498);fill-opacity:1;fill-rule:evenodd;stroke:none;stroke-width:0.28511032;stroke-linecap:butt;stroke-linejoin:miter;stroke-opacity:1" />
    <ellipse
       id="path4133"
       cx="35.117111"
       cy="268.11603"
       rx="26.52952"
       ry="22.643461"
       stroke-miterlimit="4"
       style="opacity:1;fill:url(#radialGradient4259);fill-opacity:1;fill-rule:nonzero;stroke:none;stroke-width:0.43764436;stroke-linecap:round;stroke-linejoin:round;stroke-miterlimit:4;stroke-dasharray:none;stroke-dashoffset:0;stroke-opacity:1" />
    <ellipse
       id="ellipse4215"
       cx="48.537254"
       cy="263.4003"
       rx="7.7692571"
       ry="6.8540525"
       stroke-miterlimit="4"
       style="opacity:1;fill:#783d11;fill-opacity:1;fill-rule:nonzero;stroke:none;stroke-width:0.44933388;stroke-linecap:round;stroke-linejoin:round;stroke-miterlimit:4;stroke-dasharray:none;stroke-dashoffset:0;stroke-opacity:1" />
    <ellipse
       ry="6.8540525"
       rx="7.7692571"
       cy="263.4003"
       cx="48.537254"
       id="ellipse4217"
       stroke-miterlimit="4"
       style="opacity:1;fill:url(#radialGradient4227);fill-opacity:1;fill-rule:nonzero;stroke:#000000;stroke-width:0.60728508;stroke-linecap:round;stroke-linejoin:round;stroke-miterlimit:4;stroke-dasharray:none;stroke-dashoffset:0;stroke-opacity:1" />
    <ellipse
       ry="5.1690502"
       rx="4.8867908"
       cy="263.1665"
       cx="48.970623"
       id="ellipse4219"
       stroke-miterlimit="4"
       style="opacity:1;fill:#000000;fill-opacity:1;fill-rule:nonzero;stroke:#000000;stroke-width:0.72018874;stroke-linecap:round;stroke-linejoin:round;stroke-miterlimit:4;stroke-dasharray:none;stroke-dashoffset:0;stroke-opacity:0.54299999" />
    <ellipse
       ry="1.1963382"
       rx="2.5010581"
       cy="259.396"
       cx="49.795712"
       id="ellipse4221"
       stroke-miterlimit="4"
       style="opacity:1;fill:url(#linearGradient4229);fill-opacity:1;fill-rule:nonzero;stroke:none;stroke-width:0.4846876;stroke-linecap:round;stroke-linejoin:round;stroke-miterlimit:4;stroke-dasharray:none;stroke-dashoffset:0;stroke-opacity:1" />
    <ellipse
       ry="1.2151033"
       rx="1.3082994"
       cy="261.51196"
       cx="50.964184"
       id="ellipse4223"
       stroke-miterlimit="4"
       style="opacity:1;fill:url(#radialGradient4231);fill-opacity:1;fill-rule:nonzero;stroke:none;stroke-width:0.4846876;stroke-linecap:round;stroke-linejoin:round;stroke-miterlimit:4;stroke-dasharray:none;stroke-dashoffset:0;stroke-opacity:0.54299999" />
    <ellipse
       id="ellipse4225"
       cx="49.429649"
       cy="263.36322"
       rx="0.94457054"
       ry="0.87728453"
       stroke-miterlimit="4"
       style="opacity:1;fill:url(#radialGradient4233);fill-opacity:1;fill-rule:nonzero;stroke:none;stroke-width:0.4846876;stroke-linecap:round;stroke-linejoin:round;stroke-miterlimit:4;stroke-dasharray:none;stroke-dashoffset:0;stroke-opacity:0.54299999" />
    <path
       d="m 31.103457,282.64756 c -0.461676,0.35294 0.04552,1.30898 0.615792,0.96766 l 3.340266,-1.87715 c 1.202823,0.21267 2.341719,0.62092 3.815303,-0.0713 l 2.959536,1.21233 c 0.47257,0.2588 1.063834,-0.51147 0.178284,-0.89142 L 38.33996,280.0622 c -0.868096,-0.72157 -1.156192,-1.526 -0.03566,-2.53165 0.854337,-1.56535 2.129169,-2.86789 3.74399,-3.95794 1.181028,-0.77916 0.51368,-1.82257 -0.713145,-1.64022 -2.531645,0.7314 -5.063294,1.17766 -7.594947,-0.2496 -1.905537,-1.13654 -2.822588,1.29266 -1.640223,2.06811 2.084522,1.13692 3.098527,2.54147 4.064905,3.95793 0.949073,0.99804 0.772856,1.77102 -0.17829,2.38902 z"
       id="path4235"
       inkscape:connector-curvature="0"
       sodipodi:nodetypes="ccccccccccccccc"
       style="fill:url(#linearGradient4243);fill-opacity:1;fill-rule:evenodd;stroke:#000000;stroke-width:0.26743352;stroke-linecap:butt;stroke-linejoin:miter;stroke-opacity:1" />
    <path
       d="m 32.884439,274.03522 c 1.741247,-1.32921 3.636698,0.3498 2.460332,2.06811 z"
       id="path4245"
       inkscape:connector-curvature="0"
       sodipodi:nodetypes="ccc"
       style="fill:#000000;fill-opacity:1;fill-rule:evenodd;stroke:#000000;stroke-width:0.26743352;stroke-linecap:butt;stroke-linejoin:miter;stroke-opacity:1" />
    <path
       sodipodi:nodetypes="ccc"
       inkscape:connector-curvature="0"
       id="path4247"
       d="m 41.763964,273.90996 c -1.741249,-1.32922 -3.636705,0.3498 -2.460334,2.0681 z"
       style="fill:#000000;fill-opacity:1;fill-rule:evenodd;stroke:#000000;stroke-width:0.26743352;stroke-linecap:butt;stroke-linejoin:miter;stroke-opacity:1" />
    <path
       d="m 33.21656,270.24772 c -1.405218,-1.9799 -0.987293,-5.55053 -1.906852,-8.74457 -2.250358,-7.61126 -11.008791,-5.02035 -12.852466,-2.975 l -2.717051,3.01425"
       id="path4249"
       inkscape:connector-curvature="0"
       sodipodi:nodetypes="ccsc"
       stroke-miterlimit="4"
       style="fill:none;fill-rule:evenodd;stroke:url(#linearGradient4452);stroke-width:1.75542438;stroke-linecap:round;stroke-linejoin:round;stroke-miterlimit:4;stroke-dasharray:none;stroke-opacity:0.70999995" />
    <path
       d="m 5.8922589,241.79058 -5.15480953,-5.15481 59.21063963,0.6966 5.015492,4.59753 z"
       id="path4279"
       inkscape:connector-curvature="0"
       style="fill:#4c4c4c;fill-opacity:1;fill-rule:evenodd;stroke:#000000;stroke-width:0.24376936;stroke-linecap:butt;stroke-linejoin:miter;stroke-opacity:1" />
    <path
       d="m 0.73744937,236.91441 5.29412883,4.73685 0.2786388,49.59762 -4.4582141,-5.43345 z"
       id="path4281"
       inkscape:connector-curvature="0"
       style="fill:#303030;fill-opacity:1;fill-rule:evenodd;stroke:#000000;stroke-width:0.24376936;stroke-linecap:butt;stroke-linejoin:miter;stroke-opacity:1" />
    <path
       sodipodi:nodetypes="ccsc"
       inkscape:connector-curvature="0"
       id="path4444"
       d="m 40.23132,270.89509 c 1.405216,-1.97989 0.07018,-7.16896 0.989738,-10.363 2.250358,-7.61125 11.440374,-5.02034 13.284049,-2.975 l 2.717051,3.01425"
       stroke-miterlimit="4"
       style="fill:none;fill-rule:evenodd;stroke:url(#linearGradient4460);stroke-width:1.75542438;stroke-linecap:round;stroke-linejoin:round;stroke-miterlimit:4;stroke-dasharray:none;stroke-opacity:0.70999995" />
    <ellipse
       ry="6.8540525"
       rx="7.7692571"
       cy="263.88498"
       cx="23.80393"
       id="ellipse4462"
       stroke-miterlimit="4"
       style="opacity:1;fill:#783d11;fill-opacity:1;fill-rule:nonzero;stroke:none;stroke-width:0.44933388;stroke-linecap:round;stroke-linejoin:round;stroke-miterlimit:4;stroke-dasharray:none;stroke-dashoffset:0;stroke-opacity:1" />
    <ellipse
       id="ellipse4464"
       cx="23.80393"
       cy="263.88498"
       rx="7.7692571"
       ry="6.8540525"
       stroke-miterlimit="4"
       style="opacity:1;fill:url(#radialGradient4474);fill-opacity:1;fill-rule:nonzero;stroke:#000000;stroke-width:0.60728508;stroke-linecap:round;stroke-linejoin:round;stroke-miterlimit:4;stroke-dasharray:none;stroke-dashoffset:0;stroke-opacity:1" />
    <ellipse
       id="ellipse4466"
       cx="24.237297"
       cy="263.65121"
       rx="4.8867908"
       ry="5.1690502"
       stroke-miterlimit="4"
       style="opacity:1;fill:#000000;fill-opacity:1;fill-rule:nonzero;stroke:#000000;stroke-width:0.72018874;stroke-linecap:round;stroke-linejoin:round;stroke-miterlimit:4;stroke-dasharray:none;stroke-dashoffset:0;stroke-opacity:0.54299999" />
    <ellipse
       id="ellipse4468"
       cx="24.774464"
       cy="259.56516"
       rx="2.3798151"
       ry="1.1383436"
       stroke-miterlimit="4"
       style="opacity:1;fill:url(#linearGradient4476);fill-opacity:1;fill-rule:nonzero;stroke:none;stroke-width:0.4846876;stroke-linecap:round;stroke-linejoin:round;stroke-miterlimit:4;stroke-dasharray:none;stroke-dashoffset:0;stroke-opacity:1" />
    <ellipse
       id="ellipse4470"
       cx="26.028793"
       cy="262.00519"
       rx="1.2678851"
       ry="1.1775678"
       stroke-miterlimit="4"
       style="opacity:1;fill:url(#radialGradient4478);fill-opacity:1;fill-rule:nonzero;stroke:none;stroke-width:0.4846876;stroke-linecap:round;stroke-linejoin:round;stroke-miterlimit:4;stroke-dasharray:none;stroke-dashoffset:0;stroke-opacity:0.54299999" />
    <ellipse
       ry="0.87728453"
       rx="0.94457054"
       cy="263.84793"
       cx="24.696325"
       id="ellipse4472"
       stroke-miterlimit="4"
       style="opacity:1;fill:url(#radialGradient4480);fill-opacity:1;fill-rule:nonzero;stroke:none;stroke-width:0.4846876;stroke-linecap:round;stroke-linejoin:round;stroke-miterlimit:4;stroke-dasharray:none;stroke-dashoffset:0;stroke-opacity:0.54299999" />
    <path
       d="m 41.808983,275.00334 c 8.51395,0.47532 17.027901,1.19657 25.541848,4.84972"
       id="path4214"
       inkscape:connector-curvature="0"
       sodipodi:nodetypes="cc"
       style="fill:none;fill-rule:evenodd;stroke:#000000;stroke-width:0.28511032;stroke-linecap:butt;stroke-linejoin:miter;stroke-opacity:1" />
    <path
       d="m 41.485668,275.89245 c 8.352292,1.12265 16.704585,2.52083 25.056877,5.98132"
       id="path4216"
       inkscape:connector-curvature="0"
       sodipodi:nodetypes="cc"
       style="fill:none;fill-rule:evenodd;stroke:#000000;stroke-width:0.28511032;stroke-linecap:butt;stroke-linejoin:miter;stroke-opacity:1" />
    <path
       d="m 41.324015,277.10488 c 8.644334,1.89152 17.086075,5.30251 25.299358,10.42689"
       id="path4218"
       inkscape:connector-curvature="0"
       sodipodi:nodetypes="cc"
       style="fill:none;fill-rule:evenodd;stroke:#000000;stroke-width:0.28511032;stroke-linecap:butt;stroke-linejoin:miter;stroke-opacity:1" />
    <path
       d="m 33.887779,276.45826 c -9.807203,-0.68948 -19.61441,-1.73236 -29.4216166,0.48497"
       id="path4220"
       inkscape:connector-curvature="0"
       sodipodi:nodetypes="cc"
       style="fill:none;fill-rule:evenodd;stroke:#000000;stroke-width:0.28511032;stroke-linecap:butt;stroke-linejoin:miter;stroke-opacity:1" />
    <path
       d="M 32.837007,277.91317 C 23.14835,277.4713 13.594201,277.79165 4.5469911,280.98466"
       id="path4222"
       inkscape:connector-curvature="0"
       sodipodi:nodetypes="cc"
       style="fill:none;fill-rule:evenodd;stroke:#000000;stroke-width:0.28511032;stroke-linecap:butt;stroke-linejoin:miter;stroke-opacity:1" />
    <path
       d="m 33.321981,279.28726 c -9.726385,0.53882 -19.438611,1.13429 -28.5325038,4.20309"
       id="path4224"
       inkscape:connector-curvature="0"
       sodipodi:nodetypes="cc"
       style="fill:none;fill-rule:evenodd;stroke:#000000;stroke-width:0.28511032;stroke-linecap:butt;stroke-linejoin:miter;stroke-opacity:1" />
    <path
       style="fill:#ffffff;fill-opacity:0.57671958;stroke:none;stroke-width:0.26458332px;stroke-linecap:butt;stroke-linejoin:miter;stroke-opacity:1"
       d="m 19.635318,266.542 c 2.070417,4.10061 6.059726,3.59766 9.000889,0.3997 -3.195024,1.67303 -6.427499,1.65709 -9.000889,-0.3997 z"
       id="path902"
       inkscape:connector-curvature="0"
       sodipodi:nodetypes="ccc" />
    <path
       sodipodi:nodetypes="ccc"
       inkscape:connector-curvature="0"
       id="path904"
       d="m 44.44236,266.15318 c 2.070417,4.10061 6.059725,3.59766 9.000889,0.3997 -3.195026,1.67302 -6.427499,1.65709 -9.000889,-0.3997 z"
       style="fill:#ffffff;fill-opacity:0.57671958;stroke:none;stroke-width:0.26458332px;stroke-linecap:butt;stroke-linejoin:miter;stroke-opacity:1" />
  </g>
</svg>
