<?xml version="1.0" encoding="UTF-8" standalone="no"?>
<!-- Created with Inkscape (http://www.inkscape.org/) -->

<svg
   xmlns:dc="http://purl.org/dc/elements/1.1/"
   xmlns:cc="http://creativecommons.org/ns#"
   xmlns:rdf="http://www.w3.org/1999/02/22-rdf-syntax-ns#"
   xmlns:svg="http://www.w3.org/2000/svg"
   xmlns="http://www.w3.org/2000/svg"
   xmlns:xlink="http://www.w3.org/1999/xlink"
   xmlns:sodipodi="http://sodipodi.sourceforge.net/DTD/sodipodi-0.dtd"
   xmlns:inkscape="http://www.inkscape.org/namespaces/inkscape"
   id="svg2941"
   sodipodi:version="0.32"
   inkscape:version="0.91 r13725"
   width="256"
   height="256"
   version="1.0"
   sodipodi:docname="geeqie.svg"
   inkscape:output_extension="org.inkscape.output.svg.inkscape">
  <metadata
     id="metadata2946">
    <rdf:RDF>
      <cc:Work>
        <dc:format>image/svg+xml</dc:format>
        <dc:type
           rdf:resource="http://purl.org/dc/dcmitype/StillImage" />
        <dc:title />
      </cc:Work>
    </rdf:RDF>
  </metadata>
  <defs
     id="defs2944">
    <linearGradient
       inkscape:collect="always"
       id="linearGradient4269">
      <stop
         id="stop4271"
         stop-color="#a4a4a4"
         stop-opacity="1" />
      <stop
         id="stop4279"
         offset="0.265"
         stop-color="#575757"
         stop-opacity="1" />
      <stop
         id="stop4277"
         offset="0.69"
         stop-color="#575757"
         stop-opacity="1" />
      <stop
         offset="1"
         id="stop4273"
         stop-color="#000000"
         stop-opacity="1" />
    </linearGradient>
    <linearGradient
       id="linearGradient3752">
      <stop
         id="stop3754"
         stop-color="#56291e"
         stop-opacity="1" />
      <stop
         offset="0.28"
         id="stop3756"
         stop-color="#aa340b"
         stop-opacity="1" />
      <stop
         id="stop4041"
         offset="0.431"
         stop-color="#7d2b0a"
         stop-opacity="1" />
      <stop
         id="stop3758"
         offset="0.582"
         stop-color="#602509"
         stop-opacity="1" />
      <stop
         id="stop3760"
         offset="1"
         stop-color="#000000"
         stop-opacity="1" />
    </linearGradient>
    <linearGradient
       id="linearGradient3730">
      <stop
         id="stop3732"
         stop-color="#290c04"
         stop-opacity="1" />
      <stop
         id="stop4039"
         offset="0.103"
         stop-color="#551808"
         stop-opacity="1" />
      <stop
         id="stop3740"
         offset="0.262"
         stop-color="#ab4504"
         stop-opacity="1" />
      <stop
         offset="0.705"
         id="stop3742"
         stop-color="#90300a"
         stop-opacity="1" />
      <stop
         offset="1"
         id="stop3734"
         stop-color="#562819"
         stop-opacity="1" />
    </linearGradient>
    <radialGradient
       inkscape:collect="always"
       xlink:href="#linearGradient3730"
       id="radialGradient3738"
       cx="1620.54"
       cy="913.07"
       fx="1620.54"
       fy="913.07"
       r="512"
       gradientTransform="matrix(0.48480858,0,0,0.14411597,-671.68915,-21.709346)"
       gradientUnits="userSpaceOnUse" />
    <radialGradient
       inkscape:collect="always"
       xlink:href="#linearGradient3752"
       id="radialGradient3746"
       gradientUnits="userSpaceOnUse"
       gradientTransform="matrix(0.48631088,0.00359962,9.2388541e-4,-0.08601787,-674.61137,183.20461)"
       cx="1624.43"
       cy="852.68"
       fx="1624.43"
       fy="852.68"
       r="512" />
    <filter
       inkscape:collect="always"
       id="filter3265">
      <feGaussianBlur
         inkscape:collect="always"
         id="feGaussianBlur3267" />
    </filter>
    <linearGradient
       inkscape:collect="always"
       xlink:href="#linearGradient4269"
       id="linearGradient4275"
       x1="126.3"
       y1="11.494"
       x2="126.3"
       y2="28.523"
       gradientUnits="userSpaceOnUse"
       gradientTransform="matrix(0.84541357,0,0,0.4965127,6.7224525,25.278488)" />
    <linearGradient
       inkscape:collect="always"
       xlink:href="#linearGradient4269"
       id="linearGradient4284"
       gradientUnits="userSpaceOnUse"
       gradientTransform="matrix(0,-0.84541357,0.4965127,0,-0.35387268,244.94165)"
       x1="126.3"
       y1="11.494"
       x2="126.3"
       y2="28.523" />
    <linearGradient
       inkscape:collect="always"
       xlink:href="#linearGradient4269"
       id="linearGradient4288"
       gradientUnits="userSpaceOnUse"
       gradientTransform="matrix(0,-0.84541357,-0.4965127,0,224.43337,244.94165)"
       x1="126.3"
       y1="11.494"
       x2="126.3"
       y2="28.523" />
    <linearGradient
       inkscape:collect="always"
       xlink:href="#linearGradient4269"
       id="linearGradient4292"
       gradientUnits="userSpaceOnUse"
       gradientTransform="matrix(0.84541357,0,0,-0.4965127,6.4415842,173.02805)"
       x1="138.59"
       y1="29.03"
       x2="138.59"
       y2="11.553" />
    <linearGradient
       id="linearGradient3874">
      <stop
         stop-opacity="1"
         stop-color="#acacac"
         id="stop3876" />
      <stop
         stop-opacity="1"
         stop-color="#343434"
         id="stop3880"
         offset="0.305" />
      <stop
         stop-opacity="1"
         stop-color="#1a1a1a"
         offset="1"
         id="stop3878" />
    </linearGradient>
    <linearGradient
       id="linearGradient3860">
      <stop
         stop-opacity="0"
         stop-color="#8d8d8d"
         id="stop3862" />
      <stop
         stop-opacity="0"
         stop-color="#8d8d8d"
         offset="0.631"
         id="stop3866" />
      <stop
         stop-opacity="0.22"
         stop-color="#8d8d8d"
         id="stop3868"
         offset="0.874" />
      <stop
         stop-opacity="0"
         stop-color="#8d8d8d"
         id="stop3864"
         offset="1" />
    </linearGradient>
    <linearGradient
       id="linearGradient3834"
       inkscape:collect="always">
      <stop
         stop-opacity="1"
         stop-color="#8d8d8d"
         id="stop3836" />
      <stop
         stop-opacity="0"
         stop-color="#8d8d8d"
         id="stop3838"
         offset="1" />
    </linearGradient>
    <linearGradient
       id="linearGradient3792"
       inkscape:collect="always">
      <stop
         stop-opacity="1"
         stop-color="#717171"
         id="stop3794" />
      <stop
         stop-opacity="0"
         stop-color="#717171"
         id="stop3796"
         offset="1" />
    </linearGradient>
    <linearGradient
       id="linearGradient3784">
      <stop
         stop-opacity="1"
         stop-color="#575757"
         id="stop3786" />
      <stop
         stop-opacity="1"
         stop-color="#1a1a1a"
         id="stop3788"
         offset="1" />
    </linearGradient>
    <linearGradient
       id="linearGradient3774">
      <stop
         stop-opacity="1"
         stop-color="#000000"
         id="stop3776" />
      <stop
         stop-opacity="0"
         stop-color="#000000"
         id="stop3778"
         offset="1" />
    </linearGradient>
    <linearGradient
       id="linearGradient3759">
      <stop
         stop-opacity="0.581"
         stop-color="#ffffff"
         id="stop3761" />
      <stop
         stop-opacity="0"
         stop-color="#ffffff"
         id="stop3763"
         offset="1" />
    </linearGradient>
    <filter
       color-interpolation-filters="sRGB"
       id="filter3810"
       inkscape:collect="always">
      <feGaussianBlur
         id="feGaussianBlur3812"
         stdDeviation="1.09837"
         inkscape:collect="always" />
    </filter>
    <linearGradient
       y2="74.97"
       x2="-98.7"
       y1="151.13"
       x1="-130.5"
       spreadMethod="reflect"
       gradientTransform="translate(247.16137,-14.010601)"
       gradientUnits="userSpaceOnUse"
       id="linearGradient3616"
       xlink:href="#linearGradient3784"
       inkscape:collect="always" />
    <radialGradient
       r="49.969"
       fy="138.77"
       fx="84.54"
       cy="139.21"
       cx="114.49"
       spreadMethod="reflect"
       gradientTransform="matrix(0.38171771,0.2228692,-0.67386413,1.1541562,158.49029,-71.76499)"
       gradientUnits="userSpaceOnUse"
       id="radialGradient3618"
       xlink:href="#linearGradient3759"
       inkscape:collect="always" />
    <linearGradient
       y2="120.17"
       x2="-150.63"
       y1="146.46"
       x1="-104.64"
       gradientTransform="translate(247.87986,-12.932862)"
       gradientUnits="userSpaceOnUse"
       id="linearGradient3620"
       xlink:href="#linearGradient3792"
       inkscape:collect="always" />
    <linearGradient
       y2="99.48"
       x2="-187.54"
       y1="172.77"
       x1="-226.8"
       spreadMethod="reflect"
       gradientTransform="translate(247.87986,-12.932862)"
       gradientUnits="userSpaceOnUse"
       id="linearGradient3622"
       xlink:href="#linearGradient3874"
       inkscape:collect="always" />
    <linearGradient
       y2="70.59"
       x2="100.73"
       y1="105.08"
       x1="71.35"
       spreadMethod="reflect"
       gradientTransform="translate(-12.214371,-31.254417)"
       gradientUnits="userSpaceOnUse"
       id="linearGradient3624"
       xlink:href="#linearGradient3774"
       inkscape:collect="always" />
    <linearGradient
       y2="145.67"
       x2="-52.09"
       y1="127.35"
       x1="-101.07"
       gradientTransform="translate(247.87986,-12.932862)"
       gradientUnits="userSpaceOnUse"
       id="linearGradient3626"
       xlink:href="#linearGradient3834"
       inkscape:collect="always" />
    <linearGradient
       y2="233.36"
       x2="-82.66"
       y1="216.14"
       x1="-139.87"
       gradientUnits="userSpaceOnUse"
       id="linearGradient3628"
       xlink:href="#linearGradient3834"
       inkscape:collect="always" />
    <linearGradient
       y2="32.92"
       x2="-41.75"
       y1="97.94"
       x1="-170.16"
       spreadMethod="reflect"
       gradientTransform="translate(247.87986,-12.932862)"
       gradientUnits="userSpaceOnUse"
       id="linearGradient3630"
       xlink:href="#linearGradient3834"
       inkscape:collect="always" />
    <radialGradient
       r="63.23"
       fy="182.56"
       fx="-91.42"
       cy="170.73"
       cx="-76.52"
       gradientTransform="matrix(0.72959776,0.47493857,-0.90283642,1.3869319,381.32813,-42.650339)"
       gradientUnits="userSpaceOnUse"
       id="radialGradient3632"
       xlink:href="#linearGradient3860"
       inkscape:collect="always" />
  </defs>
  <sodipodi:namedview
     inkscape:window-height="1051"
     inkscape:window-width="1920"
     inkscape:pageshadow="2"
     inkscape:pageopacity="0.0"
     guidetolerance="10.0"
     gridtolerance="10.0"
     objecttolerance="10.0"
     borderopacity="1.0"
     bordercolor="#666666"
     pagecolor="#ffffff"
     id="base"
     showgrid="false"
     inkscape:zoom="3.5234375"
     inkscape:cx="128"
     inkscape:cy="128"
     inkscape:window-x="0"
     inkscape:window-y="0"
     inkscape:current-layer="svg2941"
     inkscape:window-maximized="1" />
  <g
     id="g4238"
     transform="matrix(1.0589985,0,0,1.0589985,3.9038276,-12.314041)">
    <g
       id="g4226">
      <path
         style="fill:url(#radialGradient3746);fill-opacity:1"
         d="m 12.361459,134.78164 0,24.96571 99.297821,0 99.29786,0 0,-24.96571 0,-24.96571 -99.29786,0 -99.297821,0 0,24.96571 z"
         id="path3744"
         inkscape:connector-curvature="0" />
      <path
         style="fill:url(#radialGradient3738);fill-opacity:1"
         id="path2956"
         d="m 12.380259,72.989047 0,-36.890022 98.987151,0 98.98714,0 0,36.890022 0,36.890023 -98.98714,0 -98.987151,0 0,-36.890023 z"
         inkscape:connector-curvature="0" />
      <path
         style="fill:#130300"
         d="m 40.02983,69.783423 c -0.267553,0 -0.66741,0.868659 -0.429622,0.93371 0.270313,0.07396 0.284077,2.240436 0.01455,2.314145 -0.110856,0.03033 -0.228911,0.857521 -0.271694,1.885731 -0.04528,1.08689 -0.162553,1.875959 -0.290082,1.940659 -0.118204,0.05995 -0.248307,0.53322 -0.286428,1.054544 -0.05517,0.754166 -0.155616,0.995681 -0.492025,1.17904 -0.487213,0.265506 -0.581433,0.995964 -0.128536,0.995961 0.163486,0 0.293738,0.143336 0.293738,0.322224 0,0.1771 -0.08296,0.32222 -0.183591,0.32222 -0.100598,0 -0.236258,0.145123 -0.304779,0.322224 -0.06844,0.177101 -0.294521,0.322221 -0.503028,0.322221 -0.561292,0 -0.551594,1.120531 0.01119,1.24129 0.215781,0.04631 0.392919,0.181323 0.392919,0.300251 0,0.290903 -1.494204,1.41337 -2.026924,1.523234 -0.316491,0.06527 -0.425966,0.210066 -0.425966,0.563887 0,0.399309 0.08706,0.484517 0.539769,0.527274 0.423691,0.04001 0.539807,0.135313 0.539807,0.443058 0,0.284472 -0.108096,0.391792 -0.392919,0.391792 -0.215781,0 -0.392882,0.08278 -0.392882,0.18308 0,0.100304 -0.193401,0.319893 -0.433315,0.490656 -0.341967,0.243454 -0.638614,0.294089 -1.373314,0.234345 l -0.939999,-0.07689 0,0.695706 c 0,0.668253 0.02723,0.696381 0.712357,0.801896 0.685463,0.105552 0.706724,0.126387 0.598517,0.673736 -0.06166,0.311821 -0.215184,0.669648 -0.341482,0.794574 -0.302429,0.299079 -0.951674,0.290287 -1.094235,-0.01466 -0.184785,-0.395224 -0.412017,-0.277065 -0.539769,0.281943 -0.08877,0.38832 -0.28128,0.58566 -0.745442,0.754294 -0.462335,0.167973 -0.644881,0.17556 -0.701316,0.03663 -0.125328,-0.308591 -0.526938,-0.211413 -0.734401,0.175758 -0.106492,0.19872 -0.351777,0.383576 -0.547118,0.413762 -0.508661,0.07859 -1.703792,-0.424817 -1.703792,-0.717679 0,-0.136048 -0.111154,-0.215986 -0.246032,-0.179417 -0.146402,0.03971 -0.289224,0.49301 -0.356178,1.124116 -0.119323,1.125115 -0.447489,1.574495 -1.149327,1.574495 -0.484528,0 -0.544917,0.433584 -0.121151,0.893434 0.416195,0.451637 0.368712,0.737792 -0.194631,1.135101 -0.475949,0.335682 -1.270478,0.363414 -1.270478,0.04394 0,-0.07822 -0.13193,-0.142799 -0.293775,-0.142799 -0.212499,0 -0.293738,0.179327 -0.293738,0.644444 0,0.465113 0.08124,0.644441 0.293738,0.644445 0.161845,0 0.293775,0.108841 0.293775,0.241663 0,0.134169 -0.171282,0.241671 -0.389226,0.241667 -0.308546,0 -0.392919,-0.10626 -0.392919,-0.501641 0,-0.413829 -0.04819,-0.46966 -0.275386,-0.314898 -0.151812,0.103399 -0.253044,0.364828 -0.223987,0.582198 0.02909,0.21737 -0.04957,0.395451 -0.172588,0.395455 -0.256848,0 -0.811799,-0.490589 -0.804152,-0.710353 0.01306,-0.370912 -0.446109,-0.220772 -0.547117,0.179417 -0.117533,0.465642 -1.144143,-0.483663 -1.277863,-0.812877 -0.04081,-0.100498 -1.056227,-0.164773 -2.610744,-0.164773 -2.263033,0 -2.764346,-1.565663 -3.135854,-1.281567 -0.306756,0.234558 -0.482738,0.276528 -0.668306,0.150125 -0.139838,-0.09528 -0.3661,-0.116372 -0.506721,-0.04394 -0.13954,0.07191 -0.520896,0.141598 -0.844548,0.153788 -0.323653,0.0122 -0.830598,0.03185 -1.127283,0.04394 l -0.539769,0.02197 0.179935,16.272238 c 103.949247,0.45856 117.167797,0.73816 200.246347,-0.41392 0.28274,-3.27985 0.62008,-13.638714 0.48102,-18.926752 -0.075,0 -0.37814,0.190036 -0.67196,0.421084 -0.32544,0.255901 -0.58188,-2.029922 -0.73074,-2.105428 -1.486,-0.452838 -1.09148,0.288676 -1.64135,0.347853 -0.0913,-0.12127 -0.59304,0.723032 -0.77111,0.83485 -0.14308,0.08985 -0.57576,-0.0958 -1.19341,-0.120834 -0.78151,-0.03167 -1.49428,0.968545 -1.69276,1.131438 -0.15684,0.12873 -0.30034,1.693975 -0.55077,1.695329 -0.59915,0.0034 -1.06753,0.24144 -0.77114,0.391793 0.15379,0.07801 0.13577,0.177861 -0.0624,0.340531 -0.38162,0.313238 -0.50672,0.290168 -0.50672,-0.09154 0,-0.267531 -0.1423,-2.011951 -0.62791,-1.592807 -0.51422,0.443834 -0.97249,1.343142 -1.03918,1.431693 -0.0667,0.08855 -0.28997,0.161114 -0.49938,0.161114 -0.22947,0 -0.38546,0.112139 -0.38922,0.281943 -0.006,0.256408 0.0168,1.335596 -0.24234,1.054544 -0.257,-0.278751 -0.47953,0.92838 -0.96943,1.131442 -0.53265,0.22079 -0.49714,1.275897 -1.76985,1.321843 -0.4745,0.01712 -0.60262,0.08581 -0.51776,0.267296 0.0787,0.168268 -0.016,0.241668 -0.30848,0.241668 -0.23066,0 -0.46908,-0.11356 -0.53242,-0.24899 -0.0995,-0.212964 -0.1511,-0.207504 -0.38553,0.04028 -0.25961,0.274383 -0.28341,0.27542 -0.54712,-0.0037 -0.19105,-0.202148 -0.3185,-0.234297 -0.41496,-0.10619 -0.0764,0.101565 -0.32347,0.143994 -0.55077,0.0952 -0.7309,-0.156876 -1.3559,0.06055 -1.26683,0.443054 0.0745,0.319986 -0.005,0.344794 -1.30352,0.369823 -1.54296,0.02973 -3.19404,0.177552 -3.64261,0.325883 -0.16181,0.0535 -0.48867,0.0813 -0.72706,0.0623 -0.23831,-0.019 -0.72451,0.0734 -1.07954,0.20505 -0.35498,0.13165 -0.86491,0.27904 -1.13463,0.32954 -0.26971,0.0505 -0.38087,0.0508 -0.24599,0 0.13484,-0.0508 0.24599,-0.19816 0.24599,-0.32588 0,-0.19752 -0.0894,-0.19413 -0.59851,0.022 -0.32921,0.13973 -0.65119,0.36352 -0.71236,0.49432 -0.0937,0.2004 -0.15591,0.19015 -0.39657,-0.0513 -0.15708,-0.15756 -0.22992,-0.1949 -0.16159,-0.0842 0.0834,0.13513 -0.0412,0.20139 -0.37818,0.20139 -0.2761,0 -0.50329,-0.0907 -0.50676,-0.20139 -0.004,-0.12377 -0.10549,-0.0912 -0.26439,0.0806 -0.14207,0.15358 -0.32063,0.22708 -0.39657,0.16476 -0.0759,-0.0623 -0.43842,-0.12139 -0.80415,-0.13181 -0.63753,-0.0182 -0.6585,-3.7e-4 -0.56182,0.47601 0.0951,0.4685 0.0829,0.48217 -0.20194,0.19406 -0.24092,-0.24367 -0.3583,-0.26715 -0.58386,-0.1135 -0.21276,0.14493 -0.32059,0.14721 -0.42593,0.007 -0.10246,-0.13607 -0.19,-0.13051 -0.32678,0.0293 -0.13197,0.15412 -0.16002,0.089 -0.0992,-0.22336 0.0925,-0.47507 0.0134,-0.52288 -0.44801,-0.28194 -0.23685,0.12368 -0.25054,0.21214 -0.0624,0.46136 -0.23734,0.61899 -3.46242,0.68575 -5.21418,0.67374 -0.25852,-0.003 -0.58837,-0.0873 -0.7344,-0.18675 -0.16583,-0.11294 -0.26804,-0.1204 -0.26804,-0.0183 0,0.0899 -0.13368,0.20724 -0.30112,0.25998 -0.17456,0.055 -0.25595,0.0254 -0.18725,-0.0659 0.0659,-0.0875 0.0343,-0.15746 -0.0734,-0.15745 -0.10787,0 -0.24834,0.0691 -0.31213,0.15379 -0.0637,0.0847 -0.24248,0.11444 -0.39657,0.0659 -0.20153,-0.0635 -0.26024,0.008 -0.20194,0.25632 0.0664,0.28331 0.0138,0.32923 -0.30844,0.24533 -0.21585,-0.0562 -0.51202,-0.0221 -0.6573,0.0769 -0.14528,0.099 -0.37401,0.15706 -0.50672,0.13182 -0.13271,-0.0252 -0.28012,0.0389 -0.32679,0.1428 -0.0467,0.10386 0.11821,0.22749 0.36719,0.27096 0.41891,0.0731 0.41716,0.0757 -0.0369,0.0513 -0.33149,-0.0178 -0.49102,-0.11996 -0.49203,-0.31856 -0.004,-0.38522 -0.64376,-0.69355 -0.94,-0.45037 -0.11906,0.0977 -0.35472,0.17942 -0.52511,0.17941 -1.14813,1.58894 -2.72891,0.35593 -4.56426,1.20834 -0.42279,0.21106 -0.68378,0.26192 -0.7307,0.14646 -0.0912,-0.22441 -0.75597,-0.23468 -0.92165,-0.0147 -0.0678,0.09 -0.19329,0.12955 -0.27539,0.0879 -0.0821,-0.0417 -0.60262,0.022 -1.16037,0.1428 -0.0336,0.007 -0.0678,0.0205 -0.0991,0.0329 -0.0101,0.21256 -0.007,0.44161 -0.0404,0.46869 -0.0354,0.029 -0.0856,-0.19051 -0.0918,-0.39912 -0.38856,0.26372 -0.55081,0.88179 -0.55081,0.82386 0,-0.0683 -0.31885,-0.0938 -0.70871,-0.0586 -0.50511,0.0457 -0.77837,-0.0149 -0.951,-0.20872 -0.29978,-0.33649 -0.69206,-0.16196 -0.70135,0.31124 -0.007,0.34079 -0.0157,0.3376 -0.28643,-0.0513 -0.1542,-0.22137 -0.28258,-0.31527 -0.28643,-0.21237 -0.007,0.19517 -0.76457,0.1879 -1.15663,-0.011 -0.12455,-0.0632 -0.22399,-0.0485 -0.22399,0.0366 0,0.0851 -0.25965,0.23156 -0.57651,0.32222 -0.54018,0.15457 -0.95078,2.06945 -1.06854,1.62942 -0.0691,-0.25808 -0.21231,-0.5132 -0.31947,-0.56755 -0.10713,-0.0543 -0.2652,-0.25288 -0.35249,-0.44306 -0.14379,-0.31322 -0.19302,-0.28375 -0.52141,0.33321 -0.45331,0.85173 -0.69751,0.93024 -1.34762,0.43573 -0.82948,-0.63097 -1.62035,-0.40286 -1.49816,0.43207 0.022,0.1492 -0.14755,0.30252 -0.39291,0.35518 -0.62045,0.13319 -1.54587,-0.0527 -1.54587,-0.31124 0,-0.12175 -0.0904,-0.22335 -0.19829,-0.22336 -0.1079,0 -0.19463,-0.14512 -0.19463,-0.32222 0,-0.39494 -0.3915,-0.43434 -0.40023,-0.0403 -0.004,0.15497 -0.13842,0.42751 -0.30112,0.60417 -0.25543,0.27746 -0.32369,0.28848 -0.49937,0.0806 -0.15305,-0.18119 -0.22619,-0.19177 -0.30109,-0.0403 -0.0548,0.11069 -0.26703,0.20139 -0.47002,0.20139 -0.20298,0 -0.46468,0.14512 -0.58016,0.32222 -0.31892,0.48909 -0.96328,0.40894 -1.20073,-0.15013 -0.11981,-0.28215 -0.30422,-0.44304 -0.45532,-0.39545 -0.3946,0.12428 -0.53597,-0.60348 -0.17994,-0.92639 0.36077,-0.3272 0.20579,-0.62248 -0.33048,-0.62248 -0.42294,0 -0.51925,-0.25658 -0.13584,-0.3625 0.1915,-0.0529 0.18683,-0.12553 -0.022,-0.3332 -0.14707,-0.14625 -0.33484,-0.23103 -0.41493,-0.19041 -0.0801,0.0406 -0.10235,-0.10719 -0.0514,-0.32588 0.0558,-0.23936 0.004,-0.39546 -0.13588,-0.39546 -0.12604,0 -0.32414,-0.21768 -0.43693,-0.48333 -0.11284,-0.26565 -0.2686,-0.48333 -0.34883,-0.48333 -0.16285,0 -0.60221,1.0995 -0.60221,1.50859 0,0.14468 -0.14226,0.25997 -0.31582,0.25997 -0.23857,0 -0.284,0.0984 -0.19094,0.40278 0.10131,0.33131 0.052,0.40277 -0.27908,0.40277 -0.57013,0 -0.70833,0.44088 -0.2423,0.7726 0.42608,0.30334 0.27714,0.5419 -0.44432,0.71036 -0.21384,0.0499 -0.55652,0.14759 -0.7601,0.21604 -0.32955,0.11081 -0.36121,0.064 -0.27173,-0.42475 -1.71823,0.16234 -2.2179,0.32106 -4.26314,-0.91541 0.0827,0.21943 -0.54678,-1.21843 -1.08323,-1.27058 -0.6701,-0.0651 -0.97674,-0.039 -0.97674,0.0879 0,0.1016 -0.35058,0.30134 -0.78211,0.44306 -0.43152,0.14172 -0.7858,-0.81155 -0.7858,-0.73965 0,0.0719 -0.24573,0.17269 -0.54712,0.22702 -0.37042,0.0668 -0.61903,0.25576 -0.76744,0.57854 -0.25148,0.54685 -0.75637,0.62867 -0.94004,0.15378 -0.0684,-0.1771 -0.2078,-0.32222 -0.30843,-0.32222 -0.1006,0 -0.1836,-0.13263 -0.1836,-0.29659 0,-0.16396 -0.28187,-0.54131 -0.6279,-0.83851 -0.5811,-0.49907 -0.76454,1.34216 -1.80294,1.36578 -1.31255,0.0299 -2.26527,-1.40235 -2.66214,-0.66641 -0.21224,0.39353 -0.21127,0.49565 0.0145,0.61515 0.37129,0.19638 -0.11455,0.46164 -0.85555,0.46502 -0.29668,10e-4 -0.53977,0.0726 -0.53977,0.16112 0,0.23331 -0.73574,0.19807 -0.84089,-0.0403 -0.0701,-0.15894 -0.18042,-0.15473 -0.52877,0.0147 -0.31634,0.15383 -0.50135,0.16524 -0.65361,0.0403 -0.11671,-0.0958 -0.3505,-0.17344 -0.51772,-0.17209 -0.26793,0.002 -0.26662,0.0199 -0.007,0.15745 0.45625,0.24201 0.1088,0.1913 -0.51776,-0.0769 -0.309,-0.13229 -0.69934,-0.24113 -0.86656,-0.24167 -0.16721,-3.7e-4 -0.39571,-0.0773 -0.50676,-0.16844 -0.13842,-0.11361 -0.38195,-0.0876 -0.77476,0.0806 -0.31511,0.13487 -0.68031,0.24478 -0.81519,0.24533 -0.13484,3.7e-4 -0.24599,0.0726 -0.24599,0.16111 0,0.0885 -0.17714,0.16111 -0.39292,0.16111 -0.54596,0 -0.54596,-0.7323 0,-0.84949 0.45405,-0.0975 0.53719,-0.60051 0.0991,-0.60051 -0.16181,0 -0.29743,-0.0689 -0.29743,-0.15745 0,-0.0885 -0.12361,-0.16111 -0.27904,-0.16111 -0.41392,0 -0.57383,-0.30152 -0.30113,-0.57121 0.17062,-0.16874 0.17546,-0.23434 0.0145,-0.23435 -0.12283,0 -0.37072,-0.25396 -0.55081,-0.56389 -0.18005,-0.30992 -0.40045,-0.56389 -0.48837,-0.56389 -0.0879,0 -0.15789,-0.1814 -0.15789,-0.40277 0,-0.22138 -0.0904,-0.40278 -0.19829,-0.40278 -0.10787,0 -0.2041,-0.19955 -0.21664,-0.44306 -0.0172,-0.33121 -0.0488,-0.36172 -0.11749,-0.12083 -0.0505,0.1771 -0.23891,0.42107 -0.41862,0.54192 -0.23861,0.16047 -0.25983,0.24149 -0.0808,0.29659 0.34745,0.1069 0.30381,0.47918 -0.0698,0.59684 -0.1796,0.0566 -0.26606,0.19976 -0.20194,0.33687 0.0752,0.16097 -0.14865,0.29314 -0.37823,0.3918 -0.54077,0.23242 -0.82791,-0.13199 -0.37822,0.65176 0.0556,0.097 -0.0606,0.16478 -0.28273,0.16478 -0.22213,0 -0.40389,0.0726 -0.40393,0.16111 0,0.0885 0.58412,0.32588 0.42228,0.32588 -1.30461,0.35444 -0.57737,0.72818 -0.19825,0.87147 -0.35693,-0.0799 -3.12015,-0.0769 -3.2607,-0.0769 -0.15028,0 -1.1052,-0.28426 -1.16402,-0.4101 -0.0806,-0.1723 -0.14335,-0.26383 -1.36966,-0.26363 -0.89554,1.4e-4 -1.31166,-0.0179 -1.51651,-0.51996 -0.0803,-0.19669 -0.91016,0.77187 -2.757629,0.86781 -2.544686,0.13215 -3.399902,-0.48869 -3.605873,0.0439 -0.105894,0.27393 -0.249985,0.29403 -1.424713,0.19773 -2.882139,-0.21412 -4.807457,-0.37041 -6.455299,-0.49799 l 0.400267,-0.26729 c -1.117883,-0.18931 -1.982797,0.12998 -2.28862,-0.7679 0.89908,0.38859 1.555375,-0.56172 2.362064,-0.72604 -1.309233,-0.31688 -1.953293,0.29816 -2.885944,-1.23908 l 1.77332,-0.55878 c -1.190917,0.19382 -1.430346,-0.47629 -2.419805,-1.18636 l 0.921648,-0.574872 c -1.371966,-0.131779 -1.069201,-2.092718 -1.289085,-2.84214 -0.653647,1.137887 -0.0078,2.845831 -1.321952,2.842348 l 0.576473,0.574872 c -0.01045,0.757962 -0.65581,0.818732 -1.766196,0.878792 l 1.489392,0.58655 c -1.025491,0.63931 -1.196027,0.66225 -2.411039,0.64009 l 2.051168,0.76528 c -0.963051,0.91779 -1.453323,0.80584 -2.010772,0.61149 0.288254,0.48842 0.392918,0.49387 1.380624,0.38447 l -0.212946,0.53093 c -1.621247,-0.0679 -3.581776,-0.1299 -6.367196,-0.19406 -0.701241,-0.0803 -3.199302,-1.99982 -4.817603,-2.10177 -6.109079,-0.38487 -5.816348,-0.85633 -5.816348,-1.212 0,-0.51579 -0.281802,-0.74882 -0.752753,-0.62614 -0.233275,0.0608 -0.51724,0.21585 -0.631602,0.3442 -0.240362,0.26983 -0.923065,-0.32675 -0.855552,-0.607832 0.02462,-0.103191 -0.127939,-0.229966 -0.341482,-0.285607 -0.21358,-0.05564 -0.389226,-0.170066 -0.389226,-0.252652 0,-0.08258 -0.177138,-0.150125 -0.392919,-0.150125 -0.384004,0 -0.482775,0.160528 -0.396575,0.644444 0.03245,0.181602 -0.063,0.161752 -0.389226,-0.08055 -0.2379,-0.176724 -0.464796,-0.285942 -0.503028,-0.241667 -0.07225,0.08365 -0.726345,-0.254573 -1.171372,-0.604168 -0.318393,-0.250119 -1.072228,-0.265863 -1.07219,-0.02197 0,0.189548 0.08657,-0.322309 -3.976747,-0.666414 -2.87412,-0.243394 -3.040366,-0.279008 -3.040366,-0.659092 0,-0.175411 0.07725,-0.318557 0.172587,-0.318561 0.09526,0 0.216453,-0.181402 0.268039,-0.402778 0.08691,-0.373123 0.03752,-0.402781 -0.664613,-0.402777 -0.677145,0 -0.756445,-0.04294 -0.756445,-0.402777 0,-0.243118 -0.112013,-0.402778 -0.282735,-0.402778 -0.155467,0 -0.33488,-0.06821 -0.396574,-0.150129 -0.128984,-0.171315 0.276953,-0.977649 0.492062,-0.977649 0.07885,0 0.200339,-0.181402 0.268039,-0.402778 0.0677,-0.221376 0.242674,-0.399118 0.389226,-0.399118 0.449988,0 0.655511,-0.376607 0.558121,-1.014267 -0.08165,-0.534801 -0.145844,-0.595503 -0.51407,-0.501641 -0.230552,0.05877 -0.44872,0.172147 -0.484677,0.248989 -0.09112,0.194755 -0.815193,0.175157 -0.815193,-0.02197 0,-0.08855 -0.13193,-0.16111 -0.293738,-0.16111 -0.161845,0 -0.293775,-0.07059 -0.293775,-0.157451 0,-0.08686 -0.223055,-0.204565 -0.492026,-0.259974 -0.26897,-0.05541 -0.43779,-0.166224 -0.378222,-0.245326 0.05957,-0.07911 0.02723,-0.142804 -0.06975,-0.142804 -0.242339,0 -0.631602,-0.73772 -0.631602,-1.197351 0,-0.513804 -0.460395,-0.620072 -1.046491,-0.241667 -0.705083,0.455236 -1.465632,0.411025 -1.619345,-0.09154 -0.175833,-0.575107 0.03133,-0.886111 0.587513,-0.886111 0.659726,0 1.121315,-0.420406 1.035525,-0.941036 -0.05942,-0.360573 -0.151849,-0.418224 -0.60221,-0.373486 -0.385646,0.0383 -0.677929,-0.0727 -1.046528,-0.399118 -0.422796,-0.374441 -0.524663,-0.646 -0.598517,-1.581818 -0.08512,-1.07871 -0.118987,-1.142628 -0.705009,-1.373105 -0.373187,-0.146772 -0.637122,-0.385022 -0.675653,-0.607831 -0.04125,-0.238642 -0.178779,-0.351254 -0.392882,-0.32222 -0.517874,0.07023 -0.566737,-0.680301 -0.0514,-0.790911 0.543313,-0.116622 0.552675,-0.862993 0.01455,-1.138763 -0.215744,-0.110599 -0.389226,-0.304395 -0.389226,-0.432069 0,-0.127675 -0.153714,-0.305551 -0.341483,-0.391793 -0.316901,-0.14556 -0.312127,-0.176951 0.0771,-0.454042 0.389151,-0.277002 0.400229,-0.344243 0.157891,-0.922726 -0.143605,-0.342851 -0.355992,-0.672628 -0.473674,-0.732323 -0.122717,-0.06227 -0.183404,-0.411431 -0.139539,-0.820203 0.0514,-0.478832 -0.01828,-0.801332 -0.216639,-0.988638 -0.235177,-0.222293 -0.246554,-0.326901 -0.05509,-0.516289 0.135474,-0.133941 0.169454,-0.329225 0.08079,-0.446717 -0.176504,-0.233912 -0.242115,-1.228776 -0.271731,-4.111997 -0.01119,-1.084738 -0.0884,-1.97361 -0.17255,-1.97361 z m 119.40461,34.518067 c 0.042,-0.0285 0.0847,-0.0507 0.13215,-0.0696 0.005,-0.10823 0.0168,-0.21025 0.0332,-0.28195 -0.0179,0.001 -0.0302,0.003 -0.0514,0.004 -0.0948,0.003 -0.1191,0.17134 -0.1138,0.34786 z m 0.1652,-0.35152 c 0.17691,-0.012 0.21186,-0.0485 0.0698,-0.0952 -0.0336,-0.011 -0.0549,0.0295 -0.0698,0.0952 z M 43.033455,85.627243 c 0.07788,-0.0034 0.145844,0.01123 0.194632,0.05126 0.205188,0.168406 0.124769,0.541884 -0.165239,0.779922 -0.436784,0.358495 -0.895948,0.283466 -0.895948,-0.146462 0,-0.299654 0.529214,-0.670644 0.866555,-0.684721 z m -6.359811,8.60846 0.53977,0.0476 c 0.506572,0.04784 0.543574,0.105809 0.602209,0.937373 0.03432,0.487027 0.0093,1.19449 -0.05875,1.570832 -0.130998,0.725804 -0.195527,0.768333 -0.738057,0.508967 -0.286763,-0.137089 -0.345175,-0.402053 -0.345175,-1.614776 z m 2.85312,0.01832 c 0.403997,0 0.410375,2.177395 0.0075,2.508209 -0.374381,0.307267 -0.437791,0.293063 -0.57651,-0.131818 -0.340475,-1.042862 -0.02163,-2.376391 0.569162,-2.376391 z m -4.843302,2.929293 c 0.222085,-0.01813 0.394523,0.161551 0.293738,0.377149 -0.0608,0.129987 -0.179563,0.238004 -0.264383,0.238004 -0.243047,0 -0.395455,-0.461943 -0.187246,-0.56755 0.05386,-0.0273 0.106641,-0.04342 0.157891,-0.0476 z m -5.658495,0.292933 c 0.107872,0 0.198287,0.07256 0.198287,0.16111 0,0.08855 -0.09042,0.16111 -0.198287,0.16111 -0.107872,0 -0.194632,-0.07256 -0.194632,-0.16111 0,-0.08855 0.08676,-0.161114 0.194632,-0.16111 z M 173.0904,102.15213 c 0.0542,0 0.12798,0.0506 0.20564,0.15379 0.0667,0.0885 0.0298,0.16111 -0.0845,0.16111 -0.11425,0 -0.20929,-0.0726 -0.20929,-0.16111 0,-0.10316 0.0339,-0.15379 0.0881,-0.15379 z m -12.65722,2.15669 c 0.0682,-0.002 0.14589,0.006 0.21664,0.0293 0.15651,0.0514 0.10735,0.0911 -0.12115,0.0989 -0.20679,0.007 -0.32223,-0.0344 -0.25703,-0.0879 0.0325,-0.0268 0.0934,-0.038 0.16154,-0.0403 z m -49.46489,0.97399 c 0.44029,0 0.23779,0.10436 0.19094,0.2197 -0.0802,0.19744 0.43171,0.72962 -0.29373,0.14646 -0.28218,-0.22682 -0.54854,-0.36616 0.10279,-0.36616 z m -2.01957,0.0842 c 0.0306,0.0111 0.0689,0.0255 0.0918,0.0329 -0.0246,-0.008 -0.031,-0.0107 -0.0845,-0.0256 0,-0.003 0,-0.004 -0.007,-0.007 z"
         id="path2954"
         sodipodi:nodetypes="csssssssssssssssssssscccssssssssssssssssssssssssssssssssscccccsccsssssssssssssssssssssssssssssssssssssssssssssccssssssssssssssssccsssscscsssssssssssssssssssssssssssssssssssssssssssccsssssssssssssssssssssssssssssssssssssssssssssssccssssssccccccccccccccccccccssssssssssssssssssssssssssssssssssssssssssssssssssssssssccscsccsscscscccssscccssccsssccsssccsssccsscccssccsccccccc"
         inkscape:connector-curvature="0" />
      <path
         style="fill:#130300"
         sodipodi:nodetypes="csssssssssssssssssssssssssssssssssssssssssssssssssssssssssssssssssssssscccsssscccccssssssssssssssssssssssssssssssssssssssssssssssssssssssssssssssssssssssssssssssssssssssssssssssssssssssssssssssssssssssccssssccssssccssssccsssccssccssccsssssccssccssccssssssssccssccsssccssccssssccsssssccsssccssssccsssssssssssssssssscccsssssssssssssssssssscccssssssssssssssssssssssssssssssssssssssssssccssccccssssssssssssssssssssssscccsscccssssssccssccssccsssccssccssccssccssssssssssssssssssssssc"
         d="m 164.55801,51.41879 c 0.18826,-0.03443 0.34231,-0.161845 0.34231,-0.28316 0,-0.121311 0.16341,-0.315238 0.36315,-0.430942 0.1997,-0.115709 0.4257,-0.373397 0.50217,-0.572635 0.14954,-0.389543 0.69953,-0.503853 0.69953,-0.145384 0,0.119278 0.16855,0.376846 0.37456,0.57238 0.37312,0.354086 0.37513,0.354183 0.50221,0.02462 0.0702,-0.181983 0.23167,-0.338576 0.3589,-0.347991 0.12723,-0.0094 0.40736,-0.02753 0.62254,-0.04025 0.21515,-0.01272 0.3692,-0.113698 0.3423,-0.224386 -0.0268,-0.110688 0.0711,-0.201253 0.21791,-0.201253 0.31906,0 0.56345,-1.211715 0.38911,-1.929196 -0.0753,-0.310102 -0.0384,-0.485808 0.10202,-0.485808 0.12104,0 0.22007,0.245826 0.22007,0.546278 0,0.337055 0.11239,0.581766 0.2934,0.638947 0.40407,0.127633 0.40407,-1.071116 0,-1.403725 -0.32611,-0.268415 -0.40217,-1.069501 -0.10153,-1.069501 0.10552,0 0.24547,0.175881 0.31105,0.390849 0.14304,0.469044 0.66927,0.694296 0.67367,0.288348 0,-0.170935 0.0579,-0.209291 0.1467,-0.100345 0.18811,0.230828 1.47481,0.394788 1.79999,0.229366 0.1752,-0.08912 0.21258,-0.308494 0.12108,-0.710089 -0.0835,-0.36641 -0.0569,-0.581131 0.072,-0.581131 0.11242,0 0.20444,0.181125 0.20444,0.402501 0,0.543902 0.50858,0.519967 0.67685,-0.03185 0.0938,-0.307759 0.17855,-0.372952 0.29064,-0.223678 0.087,0.115873 0.1147,0.347555 0.0615,0.514853 -0.0532,0.167299 0,0.304179 0.12179,0.304179 0.1201,0 0.21839,-0.245823 0.21839,-0.546275 0,-0.337058 0.11238,-0.581769 0.2934,-0.63895 0.19997,-0.06316 0.29344,-0.320792 0.29344,-0.809057 0,-0.791993 0.14581,-1.225725 0.41213,-1.225725 0.096,0 0.17464,0.181125 0.17464,0.402501 0,0.221376 -0.0767,0.402501 -0.17043,0.402501 -0.21223,0 -0.4909,3.357727 -0.31063,3.74326 0.19534,0.417813 0.6767,0.34594 0.6767,-0.101038 0,-0.210533 0.132,-0.47298 0.2934,-0.583213 0.2454,-0.167649 0.2934,-0.143501 0.2934,0.147634 0,0.290634 0.0457,0.313809 0.27703,0.140464 0.16919,-0.126775 0.20728,-0.267147 0.0978,-0.36055 -0.24566,-0.209622 -0.23074,-1.09974 0.0164,-0.974054 0.10758,0.05473 0.1956,-0.04967 0.1956,-0.231999 0,-0.182322 -0.088,-0.3315 -0.1956,-0.3315 -0.10757,0 -0.1956,-0.108674 -0.1956,-0.2415 0,-0.132825 0.088,-0.241503 0.1956,-0.241503 0.11694,0 0.20817,-0.728261 0.2269,-1.811254 0.0172,-0.996188 0.0684,-1.558311 0.11373,-1.24916 0.0453,0.309154 0.15625,0.599662 0.24648,0.645574 0.0903,0.04591 0.25658,0.898593 0.36956,1.894844 0.1639,1.444695 0.28584,1.882348 0.6024,2.162039 0.21832,0.192875 0.39695,0.409469 0.39695,0.481323 0,0.07185 0.13204,0.13064 0.2934,0.13064 0.18255,0 0.2934,-0.152053 0.2934,-0.402501 0,-0.462864 0.51094,-0.558136 0.64764,-0.120748 0.0484,0.154963 0.0563,-0.02611 0.0172,-0.402393 -0.0389,-0.376276 -0.12589,-0.865313 -0.19344,-1.086752 -0.1947,-0.638555 0.44813,-0.507181 0.78726,0.16089 0.29568,0.582507 0.64272,0.704967 1.04932,0.3703 0.26894,-0.221376 0.31635,-0.880506 0.0691,-0.960634 -0.091,-0.0295 -0.21842,-0.430275 -0.28295,-0.890576 -0.0948,-0.675709 -0.0649,-0.820344 0.1549,-0.750903 0.14976,0.0473 0.34313,0.258576 0.42966,0.469496 0.12328,0.300303 0.22108,0.347029 0.45081,0.215397 0.22067,-0.126421 0.23279,-0.188347 0.0489,-0.249757 -0.1345,-0.04491 -0.2445,-0.256748 -0.2445,-0.470746 0,-0.213994 -0.088,-0.389084 -0.19564,-0.389084 -0.10758,0 -0.1956,-0.217352 -0.1956,-0.482999 0,-0.322004 -0.0978,-0.483002 -0.29341,-0.483002 -0.17575,0 -0.2934,-0.148481 -0.2934,-0.370301 0,-0.203665 -0.0979,-0.450901 -0.21761,-0.549415 -0.11966,-0.09851 -0.18515,-0.25928 -0.14547,-0.35726 0.04,-0.09881 0.35473,0.03428 0.70662,0.298837 l 0.63451,0.476986 0,-0.385851 c 0,-0.565607 -0.39389,-1.231196 -0.9995,-1.689003 -0.48713,-0.368237 -0.64808,-0.709861 -0.58788,-1.247754 0.0317,-0.282041 0.54395,-0.251716 0.68009,0.04025 0.0619,0.132826 0.22876,0.2415 0.37076,0.2415 0.19228,0 0.25625,-0.318498 0.25062,-1.247751 l -0.007,-1.247754 -15.87338,-0.0412 -15.87334,-0.04119 -0.13469,0.95527 c -0.0833,0.590747 -0.23995,0.988511 -0.41056,1.042391 -0.19646,0.06205 -0.27584,-0.04116 -0.27584,-0.358621 0,-0.245162 -0.10563,-0.53269 -0.23469,-0.63895 -0.18258,-0.150267 -0.18258,-0.236132 0,-0.386399 0.60583,-0.49868 0.26834,-0.611803 -1.82528,-0.611803 -1.65064,0 -2.08231,0.04799 -2.17254,0.241503 -0.0619,0.132821 -0.23797,0.241499 -0.3912,0.241499 -0.15323,0 -0.32929,0.108674 -0.39121,0.241499 -0.0619,0.132826 -0.23521,0.241503 -0.38508,0.241503 -0.14984,0 -0.27244,0.108674 -0.27244,0.2415 0,0.134168 -0.1739,0.241499 -0.39121,0.241499 -0.21518,0 -0.39124,0.100822 -0.39124,0.224046 0,0.123229 -0.20388,0.266174 -0.45312,0.317659 -0.2492,0.05148 -0.57214,0.276688 -0.71765,0.500455 -0.14551,0.223763 -0.33768,0.406843 -0.42709,0.406843 -0.0894,0 -0.16255,0.108678 -0.16255,0.241503 0,0.132826 -0.088,0.241499 -0.1956,0.241499 -0.10757,0 -0.1956,0.155027 -0.1956,0.344504 0,0.189477 -0.1539,0.437127 -0.34201,0.550336 -0.51015,0.307051 -0.15863,0.462163 1.04739,0.462163 0.73362,0 1.13582,-0.07531 1.2591,-0.235748 0.13659,-0.177757 0.18952,-0.116932 0.21518,0.247251 0.0758,1.076544 -0.0876,2.245535 -0.34338,2.456053 -0.18285,0.150495 -0.27147,0.613948 -0.27147,1.419454 0,1.08867 0.0351,1.196005 0.39124,1.196005 0.21515,0 0.3912,0.07763 0.3912,0.172501 0,0.297114 0.56122,-0.274088 0.69259,-0.704904 0.18255,-0.598655 0.71336,-0.719947 0.65943,-0.150688 -0.0709,0.74894 0.006,1.005091 0.30086,1.005091 0.15603,0 0.37341,0.126787 0.48307,0.28175 0.18986,0.268337 0.19963,0.268337 0.2053,0 0.004,-0.154963 0.09,-0.28175 0.1927,-0.28175 0.10268,0 0.24577,-0.258986 0.3179,-0.575529 0.14853,-0.651699 0.35357,-0.569975 0.63601,0.253529 0.19068,0.555894 0.19351,0.551936 0.21093,-0.29325 0.0104,-0.507818 0.13074,-0.949853 0.29534,-1.085346 0.22514,-0.185292 0.27326,-0.924169 0.25416,-3.900692 -0.022,-3.446966 -7e-5,-3.69145 0.35988,-3.987724 0.38087,-0.3135 0.38322,-0.301519 0.34595,1.778937 -0.0205,1.152009 0.0108,2.465956 0.0696,2.919883 0.0943,0.726833 0.15371,0.815286 0.49792,0.741197 0.35073,-0.0755 0.36681,-0.04713 0.1564,0.276427 -0.25547,0.392923 -0.12123,1.13556 0.2053,1.13556 0.1119,0 0.14009,0.08437 0.0627,0.187489 -0.0774,0.103119 -0.16061,0.646496 -0.18486,1.207504 -0.0377,0.871922 0.005,1.020015 0.29281,1.020015 0.26822,0 0.33346,0.13845 0.32003,0.679279 -0.0138,0.548296 0.0559,0.691349 0.36047,0.741868 0.20757,0.03443 0.50907,0.170987 0.67006,0.303481 0.24174,0.198985 0.24953,0.297759 0.0447,0.567715 -0.15121,0.199331 -0.1749,0.365503 -0.0607,0.425992 0.10298,0.05454 0.24909,0.262186 0.32462,0.461425 0.0755,0.199234 0.21943,0.362247 0.31977,0.362247 0.37084,0 0.9469,-0.643139 1.0735,-1.198522 0.073,-0.320274 0.24681,-0.572482 0.39456,-0.572482 0.39161,0 0.71996,-1.159678 0.47718,-1.685295 -0.25424,-0.550441 -0.25569,-1.373713 -0.004,-1.373713 0.10757,0 0.1956,0.07245 0.1956,0.161002 0,0.244755 0.38083,0.192505 0.73768,-0.101199 0.39594,-0.325898 0.41884,-1.318464 0.0351,-1.513831 -0.24412,-0.124217 -0.23875,-0.181278 0.0384,-0.40945 0.29896,-0.246151 0.33156,-0.229287 0.45562,0.235677 0.18482,0.69255 0.93914,0.702819 1.30755,0.01779 0.30952,-0.575611 0.50098,-0.613915 0.60359,-0.120752 0.0589,0.282862 0.10948,0.229933 0.23096,-0.241499 0.0893,-0.346342 0.27143,-0.603754 0.42727,-0.603754 0.14939,0 0.27162,-0.07245 0.27162,-0.160998 0,-0.388883 0.39262,-0.11572 0.40497,0.28175 0.0123,0.392333 0.0328,0.406082 0.18184,0.120751 0.0925,-0.177101 0.1743,-0.528993 0.18187,-0.781977 0.0101,-0.34027 0.0901,-0.435859 0.30717,-0.367305 0.18113,0.05723 0.29336,-3.73e-4 0.29336,-0.151069 0,-0.191368 0.14715,-0.221029 0.68465,-0.138033 0.55226,0.08528 0.6846,0.05558 0.6846,-0.153702 0,-0.14268 0.13201,-0.259418 0.2934,-0.259418 0.16136,0 0.29341,0.108673 0.29341,0.241499 0,0.132825 -0.0732,0.241499 -0.16259,0.241499 -0.0894,0 -0.28031,0.181126 -0.42422,0.402501 -0.14394,0.221376 -0.37889,0.402502 -0.52209,0.402502 -0.14319,0 -0.26035,0.108677 -0.26035,0.241503 0,0.132822 -0.088,0.241499 -0.19557,0.241499 -0.24644,0 -0.97804,0.593575 -0.97804,0.793503 0,0.08222 -0.13831,0.26335 -0.30739,0.402501 -0.27942,0.23 -0.27942,0.252999 0,0.252999 0.16908,0 0.30739,0.07245 0.30739,0.161002 0,0.08855 0.14215,0.160999 0.31589,0.160999 0.28774,0 0.28874,0.03417 0.0108,0.383109 -0.2984,0.374862 -0.29501,0.379241 0.15767,0.203397 0.25446,-0.09884 0.45812,-0.216904 0.45256,-0.262358 -0.0284,-0.231197 0.5473,-1.131057 0.7679,-1.200741 0.35084,-0.110811 0.0964,1.230824 -0.26703,1.407846 -0.14536,0.07081 -0.26431,0.272324 -0.26431,0.447803 0,0.175478 -0.12869,0.359699 -0.28595,0.409375 -0.15729,0.04968 -0.342,0.235681 -0.41052,0.413341 -0.0685,0.17766 -0.29191,0.460768 -0.49646,0.629129 -0.20456,0.168358 -0.37054,0.432894 -0.3689,0.587857 0.004,0.240783 0.0306,0.246635 0.19262,0.04025 0.25062,-0.319165 0.24405,-0.162457 -0.019,0.458978 -0.11809,0.278862 -0.29415,0.507023 -0.3912,0.507023 -0.097,0 -0.17647,0.217351 -0.17647,0.483002 0,0.479873 0.46749,0.697165 0.63101,0.293313 0.0423,-0.104324 0.53373,-0.212084 1.09214,-0.239466 0.85022,-0.04169 1.01897,-0.0043 1.03799,0.229936 0.0213,0.263421 0.028,0.263301 0.11212,-0.0019 0.0492,-0.154963 0.17103,-0.28175 0.27073,-0.28175 0.0997,0 0.18128,-0.152065 0.18128,-0.337916 0,-0.185859 0.12096,-0.566222 0.26882,-0.845253 0.38512,-0.726844 0.70918,-1.762328 0.70918,-2.26627 0,-0.248053 0.0837,-0.390998 0.19561,-0.334071 0.10757,0.05473 0.1956,-0.04967 0.1956,-0.231999 0,-0.187336 0.1276,-0.3315 0.2934,-0.3315 0.18255,0 0.2934,0.152053 0.2934,0.402501 0,0.221376 -0.088,0.402501 -0.1956,0.402501 -0.10757,0 -0.1956,0.181126 -0.1956,0.402498 0,0.221376 0.0764,0.402501 0.16983,0.402501 0.20515,0 0.44458,1.046808 0.5141,2.247478 0.028,0.483435 0.14961,0.90606 0.27028,0.939168 0.1301,0.0357 0.22048,0.4643 0.22205,1.053033 0.004,1.567334 0.20213,1.906649 1.02426,1.756318 z m -5.8272,-3.570277 c 0.16628,-0.221469 0.49706,-0.222275 0.49706,-0.0011 0,0.09378 -0.088,0.125727 -0.1956,0.071 -0.10761,-0.05473 -0.19564,-0.0107 -0.19564,0.09783 0,0.108532 -0.0528,0.153856 -0.11738,0.100714 -0.0645,-0.05314 -0.0594,-0.173893 0.0116,-0.268333 z m 1.36365,-2.357954 c 0.0653,-0.214371 0.2492,-0.389767 0.40851,-0.389767 0.36778,0 0.3667,0.120606 -0.004,0.425501 -0.16139,0.132825 -0.30362,0.399338 -0.31612,0.592254 -0.019,0.291015 -0.0384,0.300598 -0.1151,0.05626 -0.0508,-0.161964 -0.0389,-0.46988 0.0265,-0.684251 z m 19.10752,-1.798519 c 0.0138,-0.272395 0.0571,-0.334343 0.11216,-0.161002 0.0492,0.154963 0.17099,0.281753 0.27069,0.281753 0.0997,0 0.18128,0.07245 0.18128,0.160998 0,0.08855 -0.13204,0.161002 -0.2934,0.161002 -0.19519,0 -0.28583,-0.148226 -0.27073,-0.442751 z m -18.4093,0.281749 c 0,-0.08855 0.13201,-0.160998 0.29341,-0.160998 0.16136,0 0.2934,0.07245 0.2934,0.160998 0,0.08855 -0.13204,0.161002 -0.2934,0.161002 -0.1614,0 -0.29341,-0.07245 -0.29341,-0.161002 z M 144.43947,42.89039 c 0.065,-0.0535 0.11123,0.04159 0.10273,0.211316 -0.009,0.187556 -0.0557,0.225707 -0.11817,0.09727 -0.0565,-0.116223 -0.0495,-0.255087 0.0153,-0.308587 z m 30.82777,0.105899 c 0,-0.09488 0.13204,-0.281176 0.29344,-0.414001 0.30459,-0.250754 0.37971,-0.108062 0.17463,0.331833 -0.13394,0.287307 -0.46807,0.345961 -0.46807,0.08217 z m -9.77632,-1.841934 c -0.0871,0.04432 -0.21264,-0.03573 -0.27893,-0.177925 -0.0881,-0.188924 -0.0365,-0.23201 0.19113,-0.160073 0.17136,0.05413 0.34842,0.09842 0.3934,0.09842 0.045,0 0.0749,0.12679 0.0664,0.281753 -0.009,0.169977 -0.0548,0.201514 -0.11451,0.0795 -0.0545,-0.11124 -0.17035,-0.165996 -0.25745,-0.121677 z m 11.14556,-1.144787 c 0,-0.357048 0.0453,-0.391282 0.29341,-0.22179 0.37829,0.258441 0.37829,0.644004 0,0.644004 -0.18624,0 -0.29341,-0.154247 -0.29341,-0.422214 z m -13.81035,-0.0172 c 0.065,-0.0535 0.11119,0.04159 0.10273,0.211312 -0.009,0.187556 -0.0557,0.225706 -0.11817,0.09727 -0.0565,-0.11622 -0.0496,-0.255084 0.0153,-0.308583 z m 3.24779,-0.607104 c 0,-0.143113 -0.1793,-0.241503 -0.4401,-0.241503 -0.35312,0 -0.4401,-0.09039 -0.4401,-0.457403 0,-0.355138 0.076,-0.441044 0.33991,-0.384236 0.19501,0.04197 0.39158,-0.03759 0.46103,-0.186597 0.17307,-0.37118 0.5338,-0.318528 0.77685,0.113385 0.15692,0.278933 0.14484,0.419622 -0.0489,0.568595 -0.14163,0.108871 -0.25744,0.339997 -0.25744,0.513607 0,0.173605 -0.088,0.315651 -0.19564,0.315651 -0.10758,0 -0.19561,-0.108677 -0.19561,-0.241499 z m -2.77508,0.131516 c 0.14118,-0.0465 0.30989,-0.04079 0.37486,0.01272 0.065,0.0535 -0.0505,0.09155 -0.2567,0.08456 -0.22786,-0.0077 -0.27423,-0.04588 -0.11816,-0.09727 z m -0.94134,-0.221521 c 0,-0.08333 0.088,-0.151498 0.1956,-0.151498 0.10757,0 0.1956,0.112952 0.1956,0.251003 0,0.138052 -0.088,0.206225 -0.1956,0.151498 -0.10758,-0.05473 -0.1956,-0.167678 -0.1956,-0.251003 z m 16.76746,-0.153337 c -0.34272,-0.329471 -0.45659,-0.807341 -0.19016,-0.798042 0.35118,0.01227 0.83131,0.461223 0.83131,0.777382 0,0.431203 -0.20713,0.437876 -0.64115,0.02066 z m -15.98506,-1.17429 c 0,-0.210388 0.0949,-0.277353 0.30079,-0.212309 0.17117,0.05406 0.34879,-0.0079 0.41216,-0.143773 0.19949,-0.427925 0.65626,-0.269042 0.65626,0.228277 0,0.429499 -0.055,0.46578 -0.6846,0.451095 -0.53653,-0.01253 -0.68461,-0.08245 -0.68461,-0.32329 z m 12.12734,-0.03137 c 0,-0.136473 0.17516,-0.241499 0.40276,-0.241499 0.25461,0 0.35141,-0.06836 0.26319,-0.185878 -0.0865,-0.115164 -0.0537,-0.142172 0.0863,-0.071 0.12417,0.06318 0.22581,0.255502 0.22581,0.427377 0,0.225998 -0.13536,0.3125 -0.48904,0.3125 -0.30426,0 -0.489,-0.09124 -0.489,-0.241503 z m -19.16903,-0.322 c 0,-0.132826 0.088,-0.241499 0.1956,-0.241499 0.10757,0 0.1956,0.108673 0.1956,0.241499 0,0.132825 -0.088,0.241503 -0.1956,0.241503 -0.10757,0 -0.1956,-0.108678 -0.1956,-0.241503 z m 9.07272,-0.684251 c 0.0486,-0.243514 0.0957,-0.569539 0.10451,-0.724502 0.009,-0.154963 0.10411,-0.28175 0.21168,-0.28175 0.10761,0 0.1956,0.326025 0.1956,0.724502 0,0.543846 -0.0748,0.724502 -0.30008,0.724502 -0.21839,0 -0.27602,-0.120521 -0.21171,-0.442752 z m 25.54894,10.666279 c 0,-0.799799 0.27822,-0.943744 0.62239,-0.322004 0.12253,0.221376 0.33641,0.402501 0.47528,0.402501 0.19597,0 0.22615,-0.315264 0.13469,-1.408752 -0.0648,-0.774816 -0.17755,-1.444979 -0.25058,-1.489254 -0.24204,-0.146683 -0.61068,-2.811996 -0.39706,-2.870614 0.25662,-0.0704 0.25849,-0.832395 0.004,-0.832395 -0.10761,0 -0.19564,-0.108674 -0.19564,-0.2415 0,-0.132825 -0.088,-0.241503 -0.1956,-0.241503 -0.28233,0 -0.24111,-0.599688 0.0489,-0.711084 0.19557,-0.07513 0.19557,-0.112699 0,-0.187832 -0.28456,-0.109293 -0.33529,-1.033089 -0.0568,-1.033089 0.10325,0 0.29322,0.289803 0.42217,0.644004 0.1289,0.354202 0.30436,0.644001 0.38986,0.644001 0.18758,0 0.64331,0.808449 0.95301,1.690506 0.29456,0.838976 0.61139,1.375138 1.0102,1.70947 0.17732,0.148637 0.38345,0.499007 0.45805,0.778605 0.17049,0.63892 0.75525,0.615294 0.8463,-0.0342 0.0339,-0.242756 0.13793,-0.441376 0.23088,-0.441376 0.093,0 0.20799,-0.163012 0.25562,-0.36225 l 0.0866,-0.362251 0.1454,0.362251 c 0.08,0.199238 0.21343,0.36225 0.2965,0.36225 0.0831,0 0.20974,0.257617 0.2815,0.572482 0.1266,0.555383 0.70262,1.198522 1.0735,1.198522 0.42667,0 0.45547,-1.168208 0.0358,-1.449003 -0.28524,-0.190801 -0.60934,-0.831922 -0.60934,-1.205318 0,-0.222577 -0.088,-0.404684 -0.1956,-0.404684 -0.10757,0 -0.1956,-0.08226 -0.1956,-0.182789 0,-0.100535 -0.19806,-0.347286 -0.4401,-0.548337 -0.64571,-0.536315 -0.81721,-0.741111 -1.10677,-1.321631 -0.14357,-0.287789 -0.3288,-0.523253 -0.41168,-0.523253 -0.0829,0 -0.20325,-0.172468 -0.26756,-0.383262 -0.0643,-0.210794 -0.29385,-0.42136 -0.51019,-0.467929 -0.21634,-0.04657 -0.39333,-0.192371 -0.39333,-0.324011 0,-0.131643 -0.13204,-0.281052 -0.2934,-0.332023 -0.16136,-0.05097 -0.2934,-0.192091 -0.2934,-0.313604 0,-0.121512 -0.36162,-0.524577 -0.80359,-0.895697 -0.5435,-0.456374 -0.7723,-0.773272 -0.70691,-0.979124 0.0897,-0.282357 -0.0358,-0.304581 -1.73927,-0.307457 -1.58663,-0.0026 -1.839,0.03387 -1.85859,0.269251 -0.0205,0.245688 -0.0313,0.244767 -0.11216,-0.0094 -0.0751,-0.23643 -0.32309,-0.281749 -1.54213,-0.281749 l -1.45265,0 0,0.563503 c 0,0.332728 -0.14756,0.684956 -0.36036,0.860072 -0.49292,0.405751 -0.66685,0.991432 -0.29441,0.991432 0.15767,0 0.23223,-0.07245 0.16576,-0.161002 -0.0665,-0.08855 -0.0638,-0.160998 0.006,-0.160998 0.17356,0 0.85962,0.689462 0.86767,0.871994 0.004,0.08112 0.15708,0.265132 0.34104,0.408909 0.30869,0.241231 0.3592,0.241108 0.65409,-0.0015 0.17792,-0.146459 0.37882,-0.678037 0.45327,-1.199402 0.0858,-0.600539 0.25454,-1.009866 0.47062,-1.141315 0.27587,-0.167806 0.34801,-0.164669 0.39821,0.01731 0.0336,0.122244 -0.0324,0.366194 -0.14673,0.542112 -0.11437,0.175922 -0.20795,0.469518 -0.20795,0.652441 0,0.18292 -0.078,0.332583 -0.17341,0.332583 -0.0953,0 -0.23286,0.326413 -0.30552,0.725363 -0.0727,0.398947 -0.2582,0.924214 -0.41221,1.167253 -0.15405,0.24304 -0.28061,0.604903 -0.28128,0.804141 0,0.201827 -0.12186,0.362251 -0.27367,0.362251 -0.35181,0 -0.50993,0.353586 -0.50993,1.14017 0,0.346962 -0.0931,0.630834 -0.20686,0.630834 -0.2927,0 -0.14391,1.327957 0.15796,1.409659 0.1385,0.03749 0.2445,-0.06758 0.2445,-0.242406 0,-0.169719 0.13201,-0.308583 0.29341,-0.308583 0.1843,0 0.29452,0.154642 0.29638,0.415918 0.004,0.386537 0.37494,1.093981 0.38822,0.737918 0.004,-0.08855 0.0913,-0.05232 0.1956,0.0805 0.13779,0.175486 0.19042,0.18389 0.19262,0.03074 0,-0.115914 0.0912,-0.165892 0.19892,-0.111061 0.25398,0.129192 0.58647,-0.596436 0.58647,-1.279892 0,-0.394273 0.0999,-0.555753 0.38139,-0.616343 0.35697,-0.07683 0.37405,-0.189552 0.26629,-1.755942 -0.0965,-1.401792 -0.0646,-1.71543 0.19571,-1.929734 0.48554,-0.399655 0.62899,-1.077312 0.25316,-1.196019 -0.17278,-0.05457 -0.31414,-0.168201 -0.31414,-0.252503 0,-0.0843 0.0817,-0.111699 0.18161,-0.06088 0.0999,0.05081 0.20993,-0.06603 0.2445,-0.259638 0.0347,-0.193617 0.15954,-0.378182 0.27767,-0.410144 0.27001,-0.07308 0.45726,2.115178 0.3856,4.50624 -0.0287,0.954986 0.008,1.766725 0.0807,1.803865 0.073,0.03715 0.14253,0.915246 0.1545,1.951345 0.0119,1.036099 0.0994,1.926941 0.19418,1.979646 0.0948,0.0527 0.22925,0.222614 0.2987,0.377573 0.0695,0.154963 0.30508,0.281754 0.52366,0.281754 0.34051,0 0.39736,-0.103605 0.39736,-0.724502 z m 20.14704,-3.634011 c 0,-0.181033 -0.47871,-0.632501 -0.67066,-0.632501 -0.21186,0 -0.11112,0.34554 0.16766,0.575003 0.33276,0.273864 0.503,0.293327 0.503,0.0575 z m -0.0104,-4.38566 0.0123,-3.833664 -5.03763,0.03111 c -2.97107,0.01835 -5.13798,0.09654 -5.28214,0.190615 -0.40691,0.265427 -0.27662,0.442072 0.326,0.442072 0.31377,0 0.61672,0.09056 0.67323,0.201253 0.0736,0.14412 0.16427,0.121266 0.31944,-0.0805 0.22458,-0.292063 0.78405,-0.390513 0.78405,-0.137977 0,0.07908 -0.15405,0.192995 -0.34231,0.253145 -0.30358,0.09699 -0.28989,0.132613 0.12074,0.314753 0.38613,0.17127 0.41053,0.22198 0.1467,0.305304 -0.17396,0.05496 -0.31634,0.174647 -0.31634,0.265976 0,0.234934 0.53153,0.206844 0.66599,-0.03521 0.0615,-0.110688 0.0637,0.0273 0.005,0.306673 -0.0588,0.279356 -0.022,0.551146 0.0819,0.603971 0.10384,0.05283 0.15326,-0.03085 0.10981,-0.185923 -0.0911,-0.325036 0.43193,-0.960655 0.6457,-0.784715 0.0787,0.06476 0.0265,0.177146 -0.11641,0.249743 -0.21056,0.107107 -0.1971,0.210372 0.0714,0.547669 0.18198,0.22862 0.2727,0.493182 0.20157,0.58792 -0.0742,0.09883 0.127,0.2458 0.47214,0.344828 0.59967,0.172073 0.82112,0.460872 0.35696,0.465554 -0.163,0.0015 -0.1467,0.05449 0.0489,0.158532 0.37468,0.199295 1.3164,0.207292 1.40181,0.0119 0.0358,-0.082 0.30005,-0.197038 0.58707,-0.255636 0.40844,-0.08338 0.56931,-0.0335 0.74037,0.229597 0.20552,0.316099 0.16859,0.336629 -0.61963,0.344432 l -0.83817,0.0083 0.73351,0.250425 c 0.75025,0.256159 0.97476,0.537983 0.42854,0.537983 -0.18188,0 -0.24827,0.07552 -0.16446,0.187138 0.0968,0.128823 0.24775,0.07813 0.48471,-0.162718 l 0.34417,-0.349852 0.22914,0.571448 c 0.16483,0.411028 0.16975,0.630356 0.0175,0.781284 -0.23246,0.230537 -0.0962,0.421707 0.30049,0.421707 0.14599,0 0.20664,-0.103042 0.14207,-0.241503 -0.21112,-0.452834 0.48602,-0.252544 0.8406,0.241503 0.19064,0.265647 0.47196,0.482998 0.62518,0.482998 0.15323,0 0.39318,0.126791 0.53321,0.281754 0.21164,0.234211 0.2567,-0.365101 0.26695,-3.55191 z m -4.87952,-0.442353 c 0,-0.09378 0.088,-0.125728 0.1956,-0.071 0.25066,0.127503 0.25066,0.241503 0,0.241503 -0.10757,0 -0.1956,-0.07673 -0.1956,-0.170502 z m -1.71711,-0.608029 c -0.10347,-0.255542 0.36521,-0.227433 0.80759,0.04844 0.51489,0.321072 0.21761,0.657821 -0.3209,0.363512 -0.22592,-0.123463 -0.44491,-0.308841 -0.48669,-0.41195 z m -0.0433,-1.565476 c 0,-0.03905 0.088,-0.071 0.1956,-0.071 0.10757,0 0.1956,0.07673 0.1956,0.170503 0,0.09378 -0.088,0.125727 -0.1956,0.071 -0.10757,-0.05473 -0.1956,-0.131456 -0.1956,-0.170502 z m 3.70099,4.691927 c 0.009,-0.169719 -0.0377,-0.264812 -0.10273,-0.211312 -0.065,0.0535 -0.0719,0.192364 -0.0153,0.308583 0.0624,0.128436 0.1088,0.09029 0.11816,-0.09727 z m -0.47357,-0.09391 c 0.0665,-0.08855 -0.0164,-0.161002 -0.18403,-0.161002 -0.16774,0 -0.30497,0.07245 -0.30497,0.161002 0,0.208317 0.3326,0.208317 0.489,0 z m -3.37412,-2.038635 c -0.13447,-0.04466 -0.35454,-0.04466 -0.48901,0 -0.13446,0.04467 -0.0242,0.08121 0.2445,0.08121 0.26898,0 0.37901,-0.03655 0.24451,-0.08121 z m -6.74829,-1.610002 c 0.1345,-0.04466 0.2445,-0.256296 0.2445,-0.47029 0,-0.213998 0.11003,-0.394807 0.2445,-0.401797 0.1956,-0.01018 0.1956,-0.02894 0,-0.09392 -0.35849,-0.119062 -0.3153,-1.020374 0.0489,-1.020374 0.35558,0 0.38829,0.259299 0.0489,0.387597 -0.13447,0.05084 -0.0336,0.04863 0.22425,-0.0049 0.4153,-0.08625 0.45543,-0.05396 0.35204,0.283238 -0.10534,0.343411 -0.0917,0.353064 0.13961,0.09883 0.3009,-0.330728 0.50601,-0.36322 0.50814,-0.0805 0,0.110688 0.20481,0.278759 0.45334,0.37349 0.42418,0.161721 0.45096,0.139636 0.43858,-0.361778 -0.007,-0.293708 -0.0845,-0.53423 -0.17147,-0.534491 -0.0871,-2.61e-4 -0.10384,-0.07292 -0.0373,-0.161472 0.0791,-0.10544 -1.33926,-0.161002 -4.11013,-0.161002 -3.54649,0 -4.18835,0.03506 -3.96757,0.216792 0.14487,0.119233 0.59124,0.267415 0.992,0.329296 0.40075,0.06188 0.72861,0.186847 0.72861,0.27771 0,0.196889 0.49169,0.624791 0.71952,0.626198 0.0884,3.73e-4 0.41791,0.111404 0.73228,0.246352 0.45767,0.196437 0.60333,0.204266 0.73052,0.03926 0.10593,-0.137395 0.15991,-0.144262 0.16188,-0.02059 0.004,0.137261 1.12661,0.60889 1.25474,0.526293 0.0108,-0.007 0.12973,-0.04926 0.2642,-0.09392 z"
         id="path2494"
         inkscape:connector-curvature="0" />
      <path
         style="fill:#130300;filter:url(#filter3265)"
         sodipodi:nodetypes="csssssssssssssssssssscccssssssssssssssssssssssssssssssssscccccsccsssssssssssssssssssssssssssssssssssssssssssssccssssssssssssssssccsssscscsssssssssssssssssssssssssssssssssssssssssssccsssssssssssssssssssssssssssssssssssssssssssssssccssssssccccccccccccccccccccssssssssssssssssssssssssssssssssssssssssssssssssssssssssccccsccsccssscccssscccssccsssccsssccsssccsssccssccscc"
         id="path3263"
         d="m 231.65891,994.00996 c -2.29622,0 -5.72813,-7.41356 -3.68733,-7.96875 2.32011,-0.63122 2.43825,-19.12095 0.12606,-19.75 -0.95152,-0.25888 -1.96478,-7.31852 -2.33214,-16.09375 -0.3884,-9.27605 -1.3951,-16.01032 -2.48973,-16.5625 -1.01434,-0.51167 -2.13092,-4.55076 -2.45822,-9 -0.47357,-6.43641 -1.33545,-8.49762 -4.22308,-10.0625 -4.18143,-2.26595 -4.99019,-8.50001 -1.10303,-8.5 1.40308,0 2.52123,-1.22329 2.52124,-2.75 0,-1.51146 -0.71211,-2.74999 -1.57578,-2.75 -0.86349,0 -2.02787,-1.23853 -2.61579,-2.75 -0.58773,-1.51146 -2.52802,-2.74999 -4.31763,-2.75 -4.8175,0 -4.73403,-9.56315 0.0945,-10.59375 1.85191,-0.39526 3.37216,-1.5475 3.37215,-2.5625 0,-2.4827 -12.82439,-12.06238 -17.39657,-13 -2.71624,-0.55704 -3.6558,-1.79281 -3.65581,-4.8125 0,-3.40789 0.747,-4.13507 4.63279,-4.5 3.63647,-0.34149 4.63278,-1.15483 4.63279,-3.78125 0,-2.42783 -0.92748,-3.34374 -3.37217,-3.34375 -1.8519,0 -3.37216,-0.7065 -3.37216,-1.5625 0,-0.85602 -1.65985,-2.73013 -3.71883,-4.1875 -2.93527,-2.07775 -5.48124,-2.50989 -11.78682,-2 l -8.06798,0.65625 0,-5.9375 c 0,-5.70318 0.23271,-5.94324 6.11402,-6.84375 5.88335,-0.90085 6.06584,-1.07867 5.13703,-5.75 -0.52915,-2.66124 -1.84688,-5.7151 -2.93095,-6.78125 -2.59552,-2.5525 -8.16802,-2.47746 -9.39162,0.125 -1.58589,3.37303 -3.53628,2.36461 -4.63279,-2.40625 -0.76181,-3.31411 -2.41404,-4.99831 -6.39765,-6.4375 -3.96831,-1.43356 -5.53512,-1.49832 -6.01947,-0.3125 -1.07563,2.63366 -4.5224,1.8043 -6.3031,-1.5 -0.91417,-1.69598 -3.01917,-3.27362 -4.69583,-3.53125 -4.36578,-0.67073 -14.6232,3.62561 -14.6232,6.125 0,1.16112 -0.95409,1.84335 -2.11155,1.53125 -1.25676,-0.33893 -2.48259,-4.20759 -3.05701,-9.59375 -1.02427,-9.60226 -3.84079,-13.4375 -9.86435,-13.4375 -4.15889,0 -4.677,-3.70041 -1.04003,-7.625 3.57216,-3.85447 3.16468,-6.29666 -1.67031,-9.6875 -4.08498,-2.86486 -10.904381,-3.10153 -10.904381,-0.375 0,0.66758 -1.13231,1.21875 -2.521241,1.21875 -1.823804,0 -2.521252,-1.53048 -2.521252,-5.5 0,-3.9695 0.697448,-5.49998 2.521252,-5.5 1.388931,0 2.521241,-0.92893 2.521241,-2.0625 0,-1.14504 -1.470053,-2.06252 -3.340653,-2.0625 -2.64805,0 -3.372163,0.90688 -3.372162,4.28125 0,3.53184 -0.413778,4.0083 -2.363665,2.6875 -1.302902,-0.88246 -2.171956,-3.11362 -1.922448,-4.96875 0.249666,-1.85513 -0.425468,-3.37498 -1.481231,-3.375 -2.2046,0 -6.967564,4.1869 -6.901903,6.0625 0.11061,3.16554 -3.828785,1.88415 -4.695816,-1.53125 -1.008615,-3.974 -9.819897,4.12781 -10.967408,6.9375 -0.350347,0.85767 -9.065581,1.40624 -22.40755,1.40625 -19.42312,0 -23.725628,13.36211 -26.914272,10.9375 -2.632737,-2.00182 -4.1431913,-2.36002 -5.7358289,-1.28125 -1.200372,0.81314 -3.1422077,0.99318 -4.3491443,0.375 -1.1978471,-0.61367 -4.47071393,-1.20848 -7.2485749,-1.3125 -2.7778588,-0.10403 -7.1289009,-0.27191 -9.6752709,-0.375 l -4.632784,-0.1875 1.544261,-138.875 c 892.172831,-3.91358 994.721441,-5.32056 1712.592971,-2.72953 2.4269,27.99185 2.8775,122.66136 1.6839,167.79203 -9.1638,0 5.2747,-1.62188 2.7528,-3.59375 -2.793,-2.18397 -4.994,17.32433 -6.2716,17.96875 -12.7538,3.86473 -9.3681,-2.4637 -14.0875,-2.96875 -0.7836,1.03498 -5.0898,-6.17069 -6.6181,-7.125 -1.2281,-0.76682 -4.9417,0.81759 -10.2427,1.03125 -6.7076,0.27036 -12.8252,-8.26605 -14.5287,-9.65625 -1.3461,-1.09864 -2.5778,-14.45719 -4.7272,-14.46875 -5.1424,-0.0277 -9.1621,-2.06056 -6.6184,-3.34375 1.3199,-0.66577 1.1653,-1.51795 -0.5357,-2.90625 -3.2753,-2.67333 -4.3492,-2.47644 -4.3492,0.78125 0,2.28323 -1.2212,17.17093 -5.3891,13.59375 -4.4133,-3.78788 -8.3465,-11.46301 -8.9189,-12.21875 -0.5722,-0.75574 -2.4888,-1.375 -4.2861,-1.375 -1.9695,0 -3.3081,-0.95707 -3.3407,-2.40625 -0.049,-2.18833 0.1437,-11.39863 -2.0799,-9 -2.2055,2.379 -4.1157,-7.92323 -8.3202,-9.65625 -4.5716,-1.88434 -4.2669,-10.88912 -15.1905,-11.28125 -4.0721,-0.14618 -5.172,-0.73233 -4.4437,-2.28125 0.6752,-1.43608 -0.1389,-2.06249 -2.6473,-2.0625 -1.98,0 -4.0261,0.96918 -4.5697,2.125 -0.8545,1.81756 -1.2972,1.77094 -3.3091,-0.34375 -2.228,-2.34172 -2.4322,-2.35054 -4.6958,0.0312 -1.6397,1.72523 -2.7336,1.99958 -3.5613,0.90625 -0.6563,-0.86678 -2.7763,-1.22888 -4.7273,-0.8125 -6.273,1.33885 -11.6375,-0.51678 -10.8729,-3.78125 0.6397,-2.73092 -0.044,-2.94263 -11.188,-3.15625 -13.2427,-0.25385 -27.4136,-1.51529 -31.2634,-2.78125 -1.389,-0.45673 -4.1943,-0.69368 -6.2402,-0.53125 -2.0455,0.16242 -6.2185,-0.62642 -9.2654,-1.75 -3.0468,-1.12356 -7.4236,-2.38151 -9.7384,-2.8125 -2.315,-0.43097 -3.2689,-0.43385 -2.1115,0 1.1573,0.43388 2.1115,1.69125 2.1115,2.78125 0,1.68574 -0.7673,1.65676 -5.137,-0.1875 -2.8256,-1.19252 -5.589,-3.10246 -6.1141,-4.21875 -0.804,-1.71032 -1.3381,-1.62284 -3.4037,0.4375 -1.3481,1.34473 -1.9731,1.66342 -1.3866,0.71875 0.7156,-1.15326 -0.3535,-1.71878 -3.2461,-1.71875 -2.3697,0 -4.3196,0.77409 -4.3491,1.71875 -0.033,1.05633 -0.9054,0.77821 -2.2692,-0.6875 -1.2194,-1.31078 -2.752,-1.93809 -3.4036,-1.40625 -0.6518,0.53185 -3.7632,1.03604 -6.902,1.125 -5.4717,0.15509 -5.6518,0.004 -4.8218,-4.0625 0.8158,-3.99839 0.7115,-4.11508 -1.7334,-1.65625 -2.0677,2.07968 -3.0752,2.28002 -5.0109,0.96875 -1.8262,-1.23694 -2.7517,-1.2564 -3.6558,-0.0625 -0.8795,1.16127 -1.6308,1.11375 -2.805,-0.25 -1.1323,-1.31537 -1.3732,-0.75988 -0.8508,1.90625 0.794,4.0545 0.1157,4.46252 -3.8449,2.40625 -2.0331,-1.05556 -2.1506,-1.81051 -0.5358,-3.9375 -2.037,-5.28274 -29.7171,-5.85253 -44.752,-5.75 -2.219,0.0272 -5.0498,0.74481 -6.3032,1.59375 -1.4233,0.96391 -2.3007,1.02761 -2.3007,0.15625 0,-0.76741 -1.1472,-1.76868 -2.5842,-2.21875 -1.4983,-0.46922 -2.197,-0.21642 -1.6073,0.5625 0.5656,0.74707 0.2957,1.34377 -0.6304,1.34375 -0.9259,0 -2.1314,-0.58977 -2.6788,-1.3125 -0.5472,-0.72272 -2.0811,-0.97668 -3.4036,-0.5625 -1.73,0.5418 -2.2336,-0.0679 -1.7334,-2.1875 0.5703,-2.41788 0.1173,-2.8098 -2.6473,-2.09375 -1.8525,0.47987 -4.3944,0.18843 -5.6412,-0.65625 -1.2471,-0.84469 -3.2101,-1.34041 -4.3492,-1.125 -1.1391,0.21545 -2.4042,-0.33237 -2.8049,-1.21875 -0.4005,-0.88639 1.0146,-1.94149 3.1516,-2.3125 3.5957,-0.62432 3.5803,-0.64579 -0.3152,-0.4375 -2.8453,0.15217 -4.2146,1.02382 -4.223,2.71875 -0.017,3.28763 -5.5254,5.91911 -8.068,3.84375 -1.0218,-0.83404 -3.0444,-1.53126 -4.5068,-1.53125 -9.854,-13.56078 -23.4216,-3.03768 -39.1738,-10.3125 -3.6291,-1.80135 -5.8691,-2.23536 -6.2715,-1.25 -0.7824,1.91527 -6.4886,2.00294 -7.9105,0.125 -0.5817,-0.76805 -1.6588,-1.10564 -2.3636,-0.75 -0.705,0.35559 -5.172,-0.18816 -9.959,-1.21875 -0.2894,-0.0623 -0.5821,-0.17504 -0.8509,-0.28125 -0.087,-1.81412 -0.063,-3.76893 -0.3466,-4 -0.303,-0.24732 -0.7344,1.62589 -0.7879,3.40625 -3.3348,-2.25071 -4.7274,-7.52562 -4.7273,-7.03125 0,0.58313 -2.7368,0.80093 -6.0826,0.5 -4.3354,-0.38993 -6.6808,0.12739 -8.1625,1.78125 -2.5729,2.87179 -5.9395,1.38229 -6.0194,-2.65625 -0.058,-2.90849 -0.1338,-2.88122 -2.4583,0.4375 -1.3233,1.88933 -2.4254,2.69062 -2.4581,1.8125 -0.062,-1.66572 -6.5626,-1.60361 -9.9276,0.0937 -1.069,0.53921 -1.9223,0.41392 -1.9223,-0.3125 0,-0.72639 -2.2284,-1.97632 -4.9479,-2.75 -4.6363,-1.31916 -8.1605,-17.66168 -9.1711,-13.90625 -0.5927,2.20256 -1.8222,4.37988 -2.7419,4.84375 -0.9195,0.46386 -2.2763,2.15817 -3.0254,3.78125 -1.2341,2.67322 -1.6568,2.42166 -4.4752,-2.84375 -3.8908,-7.26908 -5.9866,-7.93913 -11.5662,-3.71875 -7.1193,5.38506 -13.9073,3.43825 -12.8584,-3.6875 0.1875,-1.27332 -1.2663,-2.58184 -3.3722,-3.03125 -5.3254,-1.13666 -13.2679,0.44964 -13.268,2.65625 0,1.03913 -0.7761,1.90623 -1.7019,1.90625 -0.926,0 -1.6703,1.23853 -1.6703,2.75 0,3.37068 -3.3603,3.70689 -3.4352,0.34375 -0.029,-1.32253 -1.1881,-3.6485 -2.5842,-5.15625 -2.1925,-2.36802 -2.7785,-2.46204 -4.2861,-0.6875 -1.3136,1.54639 -1.9415,1.6366 -2.5843,0.34375 -0.4698,-0.94466 -2.2919,-1.71874 -4.034,-1.71875 -1.7421,0 -3.9883,-1.23854 -4.9795,-2.75 -2.7371,-4.17411 -8.2674,-3.4901 -10.3055,1.28125 -1.0284,2.40803 -2.6111,3.78118 -3.9079,3.375 -3.3866,-1.06069 -4.6001,5.15041 -1.5443,7.90625 3.0964,2.7925 1.7662,5.31249 -2.8364,5.3125 -3.6302,0 -4.4567,2.18983 -1.166,3.09375 1.6435,0.45148 1.6034,1.07134 -0.1892,2.84375 -1.2623,1.24816 -2.8739,1.97167 -3.5612,1.625 -0.6872,-0.34668 -0.8784,0.9148 -0.4413,2.78125 0.4785,2.04282 0.018,3.37499 -1.1661,3.375 -1.0819,0 -2.7819,1.85778 -3.7503,4.125 -0.9684,2.26719 -2.3051,4.125 -2.9939,4.125 -1.3977,0 -5.1686,-9.38373 -5.1686,-12.875 0,-1.23485 -1.221,-2.21873 -2.7104,-2.21875 -2.0476,0 -2.4377,-0.83982 -1.6388,-3.4375 0.8695,-2.82758 0.4463,-3.43751 -2.3952,-3.4375 -4.8933,0 -6.0796,-3.7626 -2.0799,-6.59375 3.657,-2.5888 2.3789,-4.62478 -3.8134,-6.0625 -1.8353,-0.42613 -4.7765,-1.25957 -6.5237,-1.84375 -2.8286,-0.94574 -3.1004,-0.54648 -2.3322,3.625 -14.7471,-1.38548 -19.0357,-2.74013 -36.5896,7.8125 0.7094,-1.8727 -4.693,10.39871 -9.2971,10.84375 -5.7513,0.55592 -8.3831,0.33319 -8.383,-0.75 0,-0.86712 -3.009,-2.57172 -6.7129,-3.78125 -3.7037,-1.20952 -6.74429,6.92611 -6.74429,6.3125 0,-0.61364 -2.10904,-1.47379 -4.69579,-1.9375 -3.1792,-0.56992 -5.31281,-2.18276 -6.58673,-4.9375 -2.1585,-4.66714 -6.49185,-5.36542 -8.06798,-1.3125 -0.58773,1.51146 -1.78365,2.75002 -2.64732,2.75 -0.86348,0 -1.5758,1.13191 -1.57577,2.53125 0,1.39937 -2.41919,4.6198 -5.38916,7.15625 -4.98735,4.25933 -6.56191,-11.45465 -15.47413,-11.65625 -11.26548,-0.25484 -19.44229,11.96834 -22.84877,5.6875 -1.82143,-3.35858 -1.81308,-4.23009 0.12606,-5.25 3.18663,-1.67603 -0.98335,-3.93984 -7.34311,-3.96875 -2.54638,-0.0116 -4.63281,-0.61928 -4.63279,-1.375 0,-1.99117 -6.31452,-1.6904 -7.21705,0.34375 -0.60189,1.35649 -1.54857,1.32057 -4.53824,-0.125 -2.71523,-1.31284 -4.303,-1.41024 -5.60978,-0.34375 -1.00188,0.81777 -3.00848,1.48029 -4.44369,1.46875 -2.29939,-0.0186 -2.28817,-0.17009 -0.063,-1.34375 3.91593,-2.06544 0.93375,-1.63264 -4.44369,0.65625 -2.65211,1.12894 -6.00242,2.05785 -7.43768,2.0625 -1.43522,0.005 -3.39608,0.65967 -4.34914,1.4375 -1.18807,0.96967 -3.27847,0.74739 -6.64977,-0.6875 -2.70447,-1.15106 -5.83902,-2.0891 -6.99646,-2.09375 -1.15744,-0.005 -2.11151,-0.61928 -2.11153,-1.375 0,-0.75573 -1.52024,-1.37499 -3.37217,-1.375 -4.68599,0 -4.68596,6.24984 0,7.25 3.89709,0.83174 4.61062,5.12499 0.85091,5.125 -1.38892,0 -2.55277,0.58805 -2.55275,1.34375 0,0.75573 -1.06097,1.37499 -2.39518,1.375 -3.5523,0 -4.92477,2.57331 -2.58428,4.875 1.46435,1.44009 1.50576,1.99997 0.12606,2 -1.05424,0 -3.18179,2.16746 -4.72732,4.8125 -1.54533,2.64506 -3.43699,4.8125 -4.19157,4.8125 -0.75441,0 -1.35518,1.54819 -1.35517,3.4375 0,1.88932 -0.7759,3.43748 -1.70184,3.4375 -0.92595,0 -1.75199,1.703 -1.85941,3.78125 -0.14596,2.82674 -0.41875,3.0871 -1.0085,1.03125 -0.43369,-1.51146 -2.05046,-3.59365 -3.59278,-4.625 -2.04804,-1.36957 -2.23027,-2.06098 -0.69334,-2.53125 2.98206,-0.91236 2.60751,-4.08955 -0.59879,-5.09375 -1.54163,-0.4828 -2.28354,-1.70483 -1.73335,-2.875 0.6458,-1.37375 -1.27578,-2.50174 -3.24611,-3.34375 -4.64152,-1.98358 -7.10573,1.1264 -3.2461,-5.5625 0.47758,-0.82765 -0.52027,-1.40626 -2.4267,-1.40625 -1.90663,0 -3.46667,-0.61924 -3.4667,-1.375 0,-0.75573 5.01323,-2.78125 3.62429,-2.78125 -11.19716,-3.02492 -4.9556,-6.21465 -1.70184,-7.4375 -3.06324,0.68148 -26.77935,0.65625 -27.9858,0.65625 -1.28978,0 -9.48553,2.42605 -9.99043,3.5 -0.69144,1.47046 -1.23042,2.25165 -11.75531,2.25 -7.68646,-10e-4 -11.25765,0.15297 -13.01591,4.4375 -0.68889,1.67872 -7.81182,-6.58745 -23.66817,-7.40625 -21.84036,-1.12783 -29.18053,4.17068 -30.94826,-0.375 -0.90912,-2.33792 -2.1456,-2.50943 -12.22804,-1.6875 -24.73696,1.82736 -41.26151,3.1612 -55.40432,4.25 l 3.4352,2.28125 c -9.59454,1.61561 -10.23372,2.46211 -12.85835,10.125 7.71653,-3.31642 6.56529,1.22257 13.48866,2.625 -11.23672,2.70441 -10.77842,-3.3383 -18.78326,9.78125 l 9.23405,5.5625 c -10.22131,-1.65414 -12.27627,4.0649 -20.76874,10.125 l 7.9104,4.90625 c -17.35983,-0.064 -7.97721,6.35409 -9.86437,12.75 -5.60994,-9.71128 -6.05441,-14.36704 -12.54318,-12.75 l 4.94795,-4.90625 c -0.0907,-6.46881 -5.62884,-6.98749 -15.15899,-7.5 l 7.59525,-2.625 c -8.80162,-5.45616 -5.07742,-8.03285 -15.50564,-7.84375 l 11.21952,-6.53125 c -8.26552,-7.83283 -6.08811,-6.87747 -10.87285,-5.21875 2.47423,-4.16847 3.37247,-4.21495 11.84984,-3.28125 l -1.8279,-4.53125 c -13.91471,0.57969 -30.74133,1.10868 -54.64795,1.65625 -6.0187,0.68514 -27.4591,17.06741 -41.34839,17.9375 -52.433,3.28462 -49.92063,7.30827 -49.92062,10.34375 0,4.402 -2.41847,6.39082 -6.46069,5.34375 -2.00192,-0.51858 -4.43918,-1.84212 -5.42066,-2.9375 -2.0632,-2.30288 -7.92243,2.78864 -7.34313,5.1875 0.21266,0.88068 -1.09792,1.96265 -2.93095,2.4375 -1.83305,0.47484 -3.34064,1.45142 -3.34064,2.15625 0,0.7048 -1.52024,1.28125 -3.37217,1.28125 -3.29587,0 -4.14374,-1.37001 -3.40368,-5.5 0.27779,-1.54985 -0.54087,-1.38043 -3.34064,0.6875 -2.04197,1.50823 -3.98933,2.44037 -4.31763,2.0625 -0.62006,-0.7139 -6.2338,2.17265 -10.05345,5.15625 -2.73258,2.13463 -9.20255,2.26901 -9.20254,0.1875 0,-1.61769 0.74326,2.75076 -34.13133,5.6875 -24.66789,2.07725 -26.09489,2.38118 -26.09488,5.625 0,1.49706 0.66321,2.71873 1.48123,2.71875 0.81789,0 1.85804,1.54818 2.30065,3.4375 0.74581,3.18444 0.32196,3.43752 -5.70433,3.4375 -5.81177,0 -6.4922,0.36644 -6.4922,3.4375 0,2.07489 -0.9615,3.43749 -2.42669,3.4375 -1.33437,0 -2.87422,0.58215 -3.40368,1.28125 -1.1071,1.46209 2.37709,8.34376 4.22308,8.34375 0.67696,0 1.71966,1.54817 2.30064,3.4375 0.581,1.88933 2.08288,3.40626 3.34065,3.40625 3.86223,0 5.62607,3.21416 4.79036,8.65625 -0.70086,4.56426 -1.25197,5.08232 -4.41218,4.28125 -1.97884,-0.50156 -3.85145,-1.46918 -4.16004,-2.125 -0.78218,-1.66212 -6.99646,-1.49486 -6.99646,0.1875 0,0.75573 -1.13231,1.37501 -2.52124,1.375 -1.38893,0 -2.52125,0.60241 -2.52124,1.34375 0,0.74133 -1.91461,1.74587 -4.22308,2.21875 -2.30849,0.47289 -3.75742,1.41865 -3.24611,2.09375 0.51111,0.67512 0.23304,1.21874 -0.59879,1.21875 -2.07984,0 -5.42068,6.29604 -5.42068,10.21875 0,4.38506 -3.95149,5.29201 -8.98193,2.0625 -6.05168,-3.8852 -12.57928,-3.50787 -13.89835,0.78125 -1.50931,4.90823 0.26961,7.5625 5.04248,7.5625 5.6623,0 9.62377,3.58792 8.88739,8.03125 -0.50993,3.07729 -1.30312,3.5693 -5.16855,3.1875 -3.30985,-0.3269 -5.81852,0.62042 -8.98193,3.40625 -3.62873,3.19568 -4.50317,5.51328 -5.13703,13.5 -0.7305,9.20624 -1.02135,9.75175 -6.05098,11.71875 -3.20296,1.25261 -5.46821,3.28596 -5.79886,5.1875 -0.35405,2.03671 -1.5344,2.9978 -3.37217,2.75 -4.44472,-0.59936 -4.86407,5.80601 -0.44122,6.75 4.66344,0.99531 4.74356,7.36521 0.12606,9.71875 -1.85191,0.94392 -3.34063,2.59785 -3.34064,3.6875 0,1.08964 -1.31946,2.60771 -2.93095,3.34375 -2.71995,1.24228 -2.67901,1.51017 0.66183,3.875 3.33983,2.36408 3.43486,2.93795 1.35517,7.875 -1.23253,2.92604 -3.05538,5.74052 -4.06551,6.25 -1.05341,0.53142 -1.57419,3.51133 -1.19758,7 0.44109,4.08656 -0.15852,6.83894 -1.85943,8.4375 -2.01857,1.89716 -2.11622,2.78994 -0.47273,4.40625 1.16249,1.14312 1.45433,2.80978 0.69334,3.8125 -1.51486,1.99631 -2.07793,10.48696 -2.33214,35.09375 -0.0956,9.2577 -0.75899,16.84375 -1.48123,16.84375 z M 1256.4813,699.41621 c 0.3609,0.24359 0.7269,0.43261 1.1345,0.59375 0.044,0.92363 0.1445,1.79436 0.2836,2.40625 -0.1538,-0.0104 -0.2607,-0.0252 -0.4411,-0.0312 -0.8135,-0.0273 -1.0223,-1.46229 -0.977,-2.96875 z m 1.4181,3 c 1.5181,0.10214 1.8184,0.41426 0.5988,0.8125 -0.287,0.0938 -0.471,-0.25137 -0.5988,-0.8125 z m -1000.46079,156.375 c 0.66823,0.0277 1.25167,-0.0958 1.67033,-0.4375 1.761,-1.43727 1.07094,-4.62472 -1.41819,-6.65625 -3.74876,-3.05956 -7.68981,-2.41921 -7.6898,1.25 0,2.55739 4.54205,5.72359 7.43766,5.84375 z m -54.58491,-73.46875 4.63278,-0.40625 c 4.34778,-0.4083 4.66517,-0.90302 5.16856,-8 0.29495,-4.15652 0.0788,-10.19436 -0.50426,-13.40625 -1.12444,-6.19433 -1.67809,-6.55732 -6.33461,-4.34375 -2.46118,1.16999 -2.96246,3.43131 -2.96247,13.78125 l 0,12.375 z m 24.48758,-0.15625 c 3.46743,0 3.52223,-18.58293 0.063,-21.40625 -3.21305,-2.62235 -3.75734,-2.50113 -4.94793,1.125 -2.92232,8.90027 -0.18512,20.28126 4.88491,20.28125 z m -41.56901,-25 c 1.90622,0.15474 3.38629,-1.37873 2.52125,-3.21875 -0.52173,-1.10938 -1.54134,-2.03123 -2.26911,-2.03125 -2.08609,0 -3.39404,3.94246 -1.60731,4.84375 0.4623,0.23319 0.91528,0.37054 1.35517,0.40625 z m -48.56545,-2.5 c 0.92596,0 1.70184,-0.61929 1.70184,-1.375 0,-0.75573 -0.77588,-1.37498 -1.70184,-1.375 -0.92595,0 -1.67032,0.61925 -1.67031,1.375 0,0.75573 0.74436,1.37502 1.67031,1.375 z M 1373.6875,717.75996 c 0.4648,0 1.0984,-0.43216 1.765,-1.3125 0.5725,-0.75573 0.2556,-1.37498 -0.725,-1.375 -0.9806,0 -1.7963,0.61927 -1.7963,1.375 0,0.88034 0.2917,1.3125 0.7563,1.3125 z m -108.634,-18.40625 c 0.5848,0.0197 1.2518,-0.0516 1.8594,-0.25 1.3432,-0.43863 0.9213,-0.77779 -1.04,-0.84375 -1.7749,-0.0597 -2.7655,0.29345 -2.2062,0.75 0.2797,0.2283 0.8019,0.32409 1.3868,0.34375 z m -424.54586,-8.3125 c 3.77873,0 2.04082,-0.89061 1.63882,-1.875 -0.68824,-1.6851 3.70523,-6.2269 -2.52125,-1.25 -2.42184,1.93581 -4.70782,3.12499 0.88243,3.125 z m -17.33354,-0.71875 c 0.26281,-0.095 0.59097,-0.21816 0.78789,-0.28125 -0.21225,0.0661 -0.26646,0.0911 -0.72487,0.21875 0,0.0261 -0.0119,0.038 -0.063,0.0625 z"
         inkscape:connector-curvature="0"
         transform="matrix(0.11717176,0,0,0.11717176,12.908801,36.11851)" />
      <ellipse
         style="opacity:0.856;fill:#ffffff;fill-opacity:1;stroke:none;stroke-width:0;stroke-linecap:round;stroke-linejoin:round;stroke-miterlimit:4;stroke-dasharray:none;stroke-opacity:1"
         id="path3952"
         stroke-miterlimit="4"
         cx="19.117268"
         cy="41.480831"
         rx="0.12719323"
         ry="0.13017724" />
      <path
         d="m 5.386024,30.915174 213.366236,0 -8.74743,8.877779 -195.91739,0 z"
         id="rect4267"
         inkscape:connector-curvature="0"
         sodipodi:nodetypes="ccccc"
         stroke-miterlimit="4"
         style="opacity:1;fill:url(#linearGradient4275);fill-opacity:1;stroke:none;stroke-width:1.23000002;stroke-linecap:round;stroke-linejoin:round;stroke-miterlimit:4;stroke-dasharray:none;stroke-opacity:1" />
      <path
         sodipodi:nodetypes="ccccc"
         inkscape:connector-curvature="0"
         id="path4282"
         d="m 5.2828124,167.38338 0,-136.580462 8.8777806,8.968758 0,119.127704 z"
         stroke-miterlimit="4"
         style="opacity:1;fill:url(#linearGradient4284);fill-opacity:1;stroke:none;stroke-width:1.23000002;stroke-linecap:round;stroke-linejoin:round;stroke-miterlimit:4;stroke-dasharray:none;stroke-opacity:1" />
      <path
         d="m 218.79669,167.35617 0,-136.465203 -8.87778,8.66205 0,120.929753 z"
         id="path4286"
         inkscape:connector-curvature="0"
         sodipodi:nodetypes="ccccc"
         stroke-miterlimit="4"
         style="opacity:1;fill:url(#linearGradient4288);fill-opacity:1;stroke:none;stroke-width:1.23000002;stroke-linecap:round;stroke-linejoin:round;stroke-miterlimit:4;stroke-dasharray:none;stroke-opacity:1" />
      <path
         sodipodi:nodetypes="ccccc"
         inkscape:connector-curvature="0"
         id="path4290"
         d="m 5.3313511,167.39136 213.4102989,0 -7.35036,-8.87777 -197.364817,0 z"
         stroke-miterlimit="4"
         style="opacity:1;fill:url(#linearGradient4292);fill-opacity:1;stroke:none;stroke-width:1.23000002;stroke-linecap:round;stroke-linejoin:round;stroke-miterlimit:4;stroke-dasharray:none;stroke-opacity:1" />
    </g>
  </g>
  <g
     id="text4321"
     transform="matrix(0.3770925,0,0,0.3770925,2.0055176,-3.3590046)"
     stroke-opacity="1"
     font-family="sans-serif"
     fill="#000000"
     stroke="none"
     font-style="normal"
     word-spacing="0"
     stroke-linejoin="miter"
     line-height="125%"
     fill-opacity="1"
     font-weight="normal"
     stroke-linecap="butt"
     stroke-width="1"
     letter-spacing="0"
     font-size="12.5">
    <path
       d="m 7.394412,-13.290411 -1.6723632,4.5349126 3.35083,0 -1.6784668,-4.5349126 z m -0.6958007,-1.214599 1.397705,0 3.4729007,9.1125487 -1.281739,0 -0.8300777,-2.3376465 -4.107666,0 -0.8300781,2.3376465 -1.3000488,0 3.4790039,-9.1125487 z"
       id="path4326"
       inkscape:connector-curvature="0" />
    <path
       d="m 14.12659,-13.491827 0,3.424073 1.550293,0 q 0.860595,0 1.330566,-0.445557 0.469971,-0.445557 0.469971,-1.269531 0,-0.817871 -0.469971,-1.263428 -0.469971,-0.445557 -1.330566,-0.445557 l -1.550293,0 z m -1.23291,-1.013183 2.783203,0 q 1.531982,0 2.313232,0.695801 0.787354,0.689697 0.787354,2.026367 0,1.348877 -0.787354,2.0385741 -0.78125,0.6896972 -2.313232,0.6896972 l -1.550293,0 0,3.6621094 -1.23291,0 0,-9.1125487 z"
       id="path4328"
       inkscape:connector-curvature="0" />
  </g>
  <g
     transform="matrix(0.77253643,0,0,0.77253643,63.111152,63.130233)"
     id="g3882">
    <path
       style="fill:url(#linearGradient3616);fill-opacity:1;stroke:none"
       d="M 135.79505,55.683152 C 168.41198,121.91221 108.52205,169.03213 71.130739,172.07893 125.2561,184.50494 177.37072,98.222388 135.79505,55.683152 Z"
       id="path3870"
       inkscape:connector-curvature="0"
       sodipodi:nodetypes="ccc" />
    <path
       style="fill:#000000;fill-opacity:1;stroke:none"
       d="M 99.348129,31.901833 C 39.292809,31.298415 -11.155351,112.6855 33.410629,164.90184 l 27.3125,17.96875 c 7.68997,27.24052 24.77281,75.50464 97.000001,57.8125 57.73445,-14.14212 118.1915,-125.19048 58.1875,-184.281257 -19.78091,-19.479851 -52.22467,-20.828039 -80.125,-11.5 l -17.59375,-10.0625 c -6.32387,-1.940083 -12.63113,-2.875077 -18.843751,-2.9375 z m 37.531251,24.5 C 178.45505,98.941058 126.34848,185.2341 72.223129,172.80809 64.892089,113.95647 97.404739,73.353533 136.87938,56.401833 Z"
       id="path2987"
       inkscape:connector-curvature="0" />
    <path
       style="fill:url(#radialGradient3618);fill-opacity:1;stroke:url(#linearGradient3620);stroke-width:1.70000005;stroke-linecap:butt;stroke-linejoin:miter;stroke-miterlimit:4;stroke-dasharray:none;stroke-opacity:1"
       sodipodi:nodetypes="ccc"
       inkscape:connector-curvature="0"
       id="path3767"
       d="M 136.51354,56.760891 C 97.038899,73.712603 64.518189,114.30505 71.849229,173.15667 125.97459,185.58268 178.08921,99.300128 136.51354,56.760891 Z"
       stroke-miterlimit="4" />
    <path
       style="fill:url(#linearGradient3622);fill-opacity:1;stroke:none"
       inkscape:connector-curvature="0"
       id="path3782"
       d="m 135.78563,44.901833 -17.59375,-10.0625 c -6.32387,-1.940083 -12.63113,-2.875077 -18.843751,-2.9375 -60.05532,-0.603418 -110.50348,80.783667 -65.9375,133.000007 l 27.3125,17.96875 C 45.766799,122.00593 95.023629,54.865209 135.78563,44.901833 Z"
       sodipodi:nodetypes="ccsccc" />
    <path
       style="fill:url(#linearGradient3624);fill-opacity:1;stroke:none"
       d="m 23.350999,95.559488 c 4.36202,-17.902105 19.27647,-42.898414 49.57597,-57.83864 l -14.0106,10.058893 30.17668,17.243816 c 4.24837,2.530995 9.16719,1.039276 14.369851,-2.155477 -24.600161,16.366873 -38.547221,42.86397 -42.750301,63.58658 1.23464,-8.98115 5.60357,-17.96231 0.7185,-26.943462 L 33.769139,82.267373 c -4.90014,1.57585 -7.29145,8.169365 -10.41814,13.292115 z"
       id="path3772"
       inkscape:connector-curvature="0"
       sodipodi:nodetypes="ccccccccc" />
    <path
       style="fill:url(#linearGradient3626);fill-opacity:1;stroke:none;filter:url(#filter3810)"
       d="m 139.02827,149.08717 c 1.79623,1.43698 28.38044,17.60306 28.38044,17.60306 22.22209,-24.5189 22.94447,-54.90136 13.65136,-88.015314 L 154.47585,67.897527 c 4.92491,27.063211 9.57549,54.126433 -15.44758,81.189643 z"
       id="path3800"
       inkscape:connector-curvature="0"
       sodipodi:nodetypes="ccccc" />
    <path
       style="fill:url(#linearGradient3628);fill-opacity:1;stroke:none;filter:url(#filter3810)"
       sodipodi:nodetypes="ccccc"
       inkscape:connector-curvature="0"
       id="path3814"
       d="m -137.23204,241.77268 c 1.70654,5.45351 37.00864,8.06644 37.1718,0.76005 13.375226,-9.19903 28.669216,-37.31641 14.009232,-57.27087 l -30.861652,4.37595 c 4.40276,19.71061 -8.579,37.24866 -20.31938,52.13487 z"
       transform="matrix(0.68088474,0.73239058,-0.73239058,0.68088474,347.95738,118.49433)" />
    <path
       style="fill:none;stroke:url(#linearGradient3630);stroke-width:2;stroke-linecap:round;stroke-linejoin:miter;stroke-miterlimit:4;stroke-dasharray:none;stroke-opacity:1"
       d="M 184.29329,42.031803 C 109.94547,24.695006 22.732769,118.42154 74.363959,215.54771"
       id="path3832"
       inkscape:connector-curvature="0"
       sodipodi:nodetypes="cc"
       stroke-miterlimit="4" />
    <path
       style="fill:url(#radialGradient3632);fill-opacity:1;stroke:none"
       d="M 108.1331,235.66549 C 181.0795,224.83077 239.78223,147.87032 227.04358,76.519435 258.61015,157.6319 185.70197,259.00622 108.1331,235.66549 Z"
       id="path3842"
       inkscape:connector-curvature="0"
       sodipodi:nodetypes="ccc" />
  </g>
</svg>
