<?xml version="1.0" encoding="UTF-8" standalone="no"?>
<!-- Created with Inkscape (http://www.inkscape.org/) -->

<svg
   xmlns:a="http://ns.adobe.com/AdobeSVGViewerExtensions/3.0/"
   xmlns:dc="http://purl.org/dc/elements/1.1/"
   xmlns:cc="http://creativecommons.org/ns#"
   xmlns:rdf="http://www.w3.org/1999/02/22-rdf-syntax-ns#"
   xmlns:svg="http://www.w3.org/2000/svg"
   xmlns="http://www.w3.org/2000/svg"
   xmlns:xlink="http://www.w3.org/1999/xlink"
   xmlns:sodipodi="http://sodipodi.sourceforge.net/DTD/sodipodi-0.dtd"
   xmlns:inkscape="http://www.inkscape.org/namespaces/inkscape"
   id="svg2"
   sodipodi:version="0.32"
   inkscape:version="0.91 r13725"
   width="256"
   height="256"
   sodipodi:docname="Genymotion.svg"
   version="1.1">
  <metadata
     id="metadata7">
    <rdf:RDF>
      <cc:Work>
        <dc:format>image/svg+xml</dc:format>
        <dc:type
           rdf:resource="http://purl.org/dc/dcmitype/StillImage" />
        <dc:title />
      </cc:Work>
    </rdf:RDF>
  </metadata>
  <defs
     id="defs5">
    <linearGradient
       inkscape:collect="always"
       id="linearGradient4244">
      <stop
         stop-opacity="1"
         stop-color="#d4b709"
         id="stop4246" />
      <stop
         stop-opacity="1"
         stop-color="white"
         offset="1"
         id="stop4248"
         style="stop-color:#665f11;stop-opacity:1" />
    </linearGradient>
    <linearGradient
       inkscape:collect="always"
       id="linearGradient4369">
      <stop
         id="stop4371"
         stop-color="#0f7114"
         stop-opacity="1" />
      <stop
         offset="1"
         id="stop4373"
         stop-color="#d9fedb"
         stop-opacity="1" />
    </linearGradient>
    <linearGradient
       inkscape:collect="always"
       id="linearGradient4355">
      <stop
         id="stop4357"
         stop-color="#d9fedb"
         stop-opacity="0.586" />
      <stop
         offset="1"
         id="stop4359"
         stop-color="#bde0bc"
         stop-opacity="0" />
    </linearGradient>
    <linearGradient
       id="linearGradient2768">
      <stop
         id="stop2770"
         stop-color="black"
         stop-opacity="1" />
      <stop
         id="stop3038"
         offset="0.5"
         stop-color="black"
         stop-opacity="1" />
      <stop
         offset="1"
         id="stop2772"
         stop-color="white"
         stop-opacity="1" />
    </linearGradient>
    <radialGradient
       r="27.28"
       fy="151.19"
       fx="56.54"
       cy="151.19"
       cx="56.54"
       gradientTransform="matrix(-0.802063,-0.03353687,0.01592426,-0.683438,87.92479,281.8071)"
       gradientUnits="userSpaceOnUse"
       id="radialGradient2120"
       xlink:href="#linearGradient3469"
       inkscape:collect="always" />
    <radialGradient
       r="27.28"
       fy="155.54"
       fx="57.5"
       cy="155.54"
       cx="57.5"
       gradientTransform="matrix(1.12625,0.03243496,-0.01834626,0.637043,-13.7054,82.04116)"
       gradientUnits="userSpaceOnUse"
       id="radialGradient2118"
       xlink:href="#linearGradient3457"
       inkscape:collect="always" />
    <linearGradient
       y2="40.478"
       x2="76.24"
       y1="31.681"
       x1="76.24"
       gradientTransform="matrix(1.963426,0,0,2.103548,-129.4756,-43.56193)"
       gradientUnits="userSpaceOnUse"
       id="linearGradient3429"
       xlink:href="#XMLID_26_"
       inkscape:collect="always" />
    <radialGradient
       r="14.862"
       fy="49.45"
       fx="76.51"
       cy="49.45"
       cx="76.51"
       gradientTransform="matrix(1.963426,0,0,2.103548,-129.1163,-42.92169)"
       gradientUnits="userSpaceOnUse"
       id="radialGradient3427"
       xlink:href="#radialGradient3407"
       inkscape:collect="always" />
    <linearGradient
       y2="40.478"
       x2="76.24"
       y1="31.681"
       x1="76.24"
       gradientTransform="matrix(2.161916,0,0,2.599807,-140.2925,-51.89728)"
       gradientUnits="userSpaceOnUse"
       id="linearGradient3389"
       xlink:href="#XMLID_26_"
       inkscape:collect="always" />
    <radialGradient
       r="14.862"
       fy="49.45"
       fx="76.51"
       cy="49.45"
       cx="76.51"
       gradientTransform="matrix(2.161916,0,0,2.599807,-139.8969,-51.106)"
       gradientUnits="userSpaceOnUse"
       id="radialGradient3387"
       xlink:href="#XMLID_25_"
       inkscape:collect="always" />
    <linearGradient
       gradientTransform="matrix(2.161916,0,0,2.599807,-140.2925,-51.89728)"
       id="XMLID_26_"
       gradientUnits="userSpaceOnUse"
       x1="76.24"
       y1="31.681"
       x2="76.24"
       y2="40.478">
      <stop
         offset="8.04598%"
         id="stop191"
         stop-color="rgb(255,255,255)" />
      <stop
         offset="100%"
         id="stop193"
         stop-color="rgb(255,255,255)"
         stop-opacity="0" />
    </linearGradient>
    <radialGradient
       gradientTransform="matrix(2.161916,0,0,2.599807,-139.8969,-51.106)"
       id="XMLID_25_"
       cx="76.51"
       cy="49.45"
       r="14.862"
       fx="76.51"
       fy="49.45"
       gradientUnits="userSpaceOnUse">
      <stop
         id="stop184"
         stop-color="rgb(187,235,255)" />
      <stop
         offset="1"
         id="stop186"
         stop-color="#7b7b7d"
         stop-opacity="1" />
      <a:midPointStop
         offset="0"
         stop-color="#BBEBFF" />
      <a:midPointStop
         offset="0.5"
         stop-color="#BBEBFF" />
      <a:midPointStop
         offset="1"
         stop-color="#003DD7" />
    </radialGradient>
    <linearGradient
       gradientUnits="userSpaceOnUse"
       y2="11.419"
       x2="-105.24"
       y1="52.915"
       x1="-105.51"
       id="linearGradient2778"
       xlink:href="#linearGradient2772"
       inkscape:collect="always"
       gradientTransform="matrix(1.382861,0,0,1.382861,285.64765,9.121352)" />
    <linearGradient
       id="linearGradient2772"
       inkscape:collect="always">
      <stop
         id="stop2774"
         stop-color="#99e399"
         stop-opacity="0" />
      <stop
         id="stop2776"
         offset="1"
         stop-color="#c6eac8"
         stop-opacity="1" />
    </linearGradient>
    <linearGradient
       id="linearGradient2780"
       inkscape:collect="always">
      <stop
         id="stop2782"
         stop-color="#67e45d"
         stop-opacity="0" />
      <stop
         id="stop2784"
         offset="1"
         stop-color="#d5edd4"
         stop-opacity="1" />
    </linearGradient>
    <radialGradient
       gradientUnits="userSpaceOnUse"
       fy="49.45"
       fx="76.51"
       r="14.862"
       cy="49.45"
       cx="76.51"
       id="radialGradient3407"
       gradientTransform="matrix(2.161916,0,0,2.599807,-139.8969,-51.106)">
      <stop
         id="stop3409"
         stop-color="#55b6de"
         stop-opacity="1" />
      <stop
         id="stop3411"
         offset="1"
         stop-color="#000007"
         stop-opacity="1" />
      <a:midPointStop
         offset="0"
         stop-color="#BBEBFF" />
      <a:midPointStop
         offset="0.5"
         stop-color="#BBEBFF" />
      <a:midPointStop
         offset="1"
         stop-color="#003DD7" />
    </radialGradient>
    <linearGradient
       id="linearGradient3433"
       inkscape:collect="always">
      <stop
         id="stop3435"
         stop-color="#d4b709"
         stop-opacity="1" />
      <stop
         id="stop3437"
         offset="1"
         stop-color="white"
         stop-opacity="1" />
    </linearGradient>
    <linearGradient
       id="linearGradient3457"
       inkscape:collect="always">
      <stop
         id="stop3459"
         stop-color="#fe0"
         stop-opacity="1" />
      <stop
         id="stop3461"
         offset="1"
         stop-color="#ffe500"
         stop-opacity="0.704" />
    </linearGradient>
    <linearGradient
       inkscape:collect="always"
       id="linearGradient3469">
      <stop
         id="stop3471"
         stop-color="#fbfbfb"
         stop-opacity="1" />
      <stop
         offset="1"
         id="stop3473"
         stop-color="white"
         stop-opacity="0" />
    </linearGradient>
    <radialGradient
       inkscape:collect="always"
       xlink:href="#linearGradient3469"
       id="radialGradient2078"
       gradientUnits="userSpaceOnUse"
       gradientTransform="matrix(-0.927104,-0.04215741,0.01840683,-0.859113,138.90095,351.85322)"
       cx="56.54"
       cy="151.19"
       fx="56.54"
       fy="151.19"
       r="27.28" />
    <radialGradient
       inkscape:collect="always"
       xlink:href="#linearGradient3469"
       id="radialGradient2081"
       gradientUnits="userSpaceOnUse"
       gradientTransform="matrix(0.927104,-0.0409519,-0.01840683,-0.834547,130.97835,349.17912)"
       cx="56.54"
       cy="151.19"
       fx="56.54"
       fy="151.19"
       r="27.28" />
    <radialGradient
       inkscape:collect="always"
       xlink:href="#linearGradient3457"
       id="radialGradient2104"
       gradientUnits="userSpaceOnUse"
       gradientTransform="matrix(-1.301831,0.03960635,0.02120642,0.777894,248.45255,105.24469)"
       cx="57.5"
       cy="155.54"
       fx="57.5"
       fy="155.54"
       r="27.28" />
    <radialGradient
       inkscape:collect="always"
       xlink:href="#linearGradient3457"
       id="radialGradient2112"
       gradientUnits="userSpaceOnUse"
       gradientTransform="matrix(1.301831,0.04077226,-0.02120642,0.800793,21.426774,100.73811)"
       cx="57.5"
       cy="155.54"
       fx="57.5"
       fy="155.54"
       r="27.28" />
    <linearGradient
       inkscape:collect="always"
       xlink:href="#linearGradient4355"
       id="linearGradient2119"
       gradientUnits="userSpaceOnUse"
       gradientTransform="matrix(1.382861,0,0,1.382861,18.405206,2.5593901)"
       x1="25.25"
       y1="90.49"
       x2="33.576"
       y2="96.54" />
    <linearGradient
       inkscape:collect="always"
       xlink:href="#linearGradient4244"
       id="linearGradient2122"
       gradientUnits="userSpaceOnUse"
       gradientTransform="matrix(1.2217944,0,0,1.2666632,111.4425,66.261305)"
       spreadMethod="reflect"
       x1="19.482"
       y1="53.878078"
       x2="19.206789"
       y2="33.214977" />
    <linearGradient
       inkscape:collect="always"
       xlink:href="#linearGradient2780"
       id="linearGradient2144"
       gradientUnits="userSpaceOnUse"
       gradientTransform="matrix(1.382861,0,0,1.382861,9.3532731,10.762705)"
       x1="90.87"
       y1="159.39"
       x2="90.64"
       y2="71.18" />
    <radialGradient
       inkscape:collect="always"
       xlink:href="#linearGradient2768"
       id="radialGradient3036"
       cx="155.18"
       cy="76.854"
       fx="155.18"
       fy="76.854"
       r="21.478"
       gradientTransform="matrix(1.202785,-2.378636e-6,2.009483e-6,1.016118,-32.033756,-3.798525)"
       gradientUnits="userSpaceOnUse" />
    <radialGradient
       inkscape:collect="always"
       xlink:href="#linearGradient2768"
       id="radialGradient3040"
       cx="110.86"
       cy="76.07"
       fx="110.86"
       fy="76.07"
       r="23.666"
       gradientTransform="matrix(1.184033,7.201642e-7,-6.739189e-7,1.108,-20.967966,-9.994505)"
       gradientUnits="userSpaceOnUse" />
    <linearGradient
       inkscape:collect="always"
       xlink:href="#linearGradient4355"
       id="linearGradient4365"
       gradientUnits="userSpaceOnUse"
       gradientTransform="matrix(-1.382861,0,0,1.382861,249.28122,-0.92736288)"
       x1="25.25"
       y1="90.49"
       x2="33.576"
       y2="96.54" />
    <linearGradient
       inkscape:collect="always"
       xlink:href="#linearGradient4369"
       id="linearGradient4379"
       gradientUnits="userSpaceOnUse"
       gradientTransform="matrix(0.91379308,0,0,0.65671644,-18.146381,36.404293)"
       spreadMethod="reflect"
       x1="127.23"
       y1="25.284"
       x2="131.76"
       y2="25.284" />
    <linearGradient
       inkscape:collect="always"
       xlink:href="#linearGradient4369"
       id="linearGradient4383"
       gradientUnits="userSpaceOnUse"
       gradientTransform="matrix(0.91379308,0,0,0.65671644,44.68967,-27.865008)"
       spreadMethod="reflect"
       x1="127.23"
       y1="25.284"
       x2="131.76"
       y2="25.284" />
    <linearGradient
       inkscape:collect="always"
       xlink:href="#linearGradient3433"
       id="linearGradient4387"
       gradientUnits="userSpaceOnUse"
       gradientTransform="matrix(1.2292645,0,0,0.84387125,111.88047,80.548606)"
       spreadMethod="reflect"
       x1="12.985"
       y1="40.449"
       x2="35.681"
       y2="28.739" />
  </defs>
  <sodipodi:namedview
     inkscape:window-height="1056"
     inkscape:window-width="1920"
     inkscape:pageshadow="2"
     inkscape:pageopacity="0"
     guidetolerance="10.0"
     gridtolerance="10.0"
     objecttolerance="10.0"
     borderopacity="1.0"
     bordercolor="#666666"
     pagecolor="#ffffff"
     id="base"
     width="256"
     height="256"
     inkscape:zoom="3.5273438"
     inkscape:cx="128"
     inkscape:cy="124.01573"
     inkscape:window-x="0"
     inkscape:window-y="0"
     inkscape:current-layer="svg2"
     showgrid="false"
     inkscape:window-maximized="1" />
  <path
     inkscape:connector-curvature="0"
     d="m 133.18918,31.625242 c -33.913592,0 -61.582176,22.650718 -61.582176,56.56432 0,7.765207 1.429822,15.197818 4.062153,22.039358 -9.975046,12.41608 -15.946115,28.067 -15.946115,45.07261 0,40.30957 33.429238,73.03235 74.631268,73.03233 41.20204,0 74.67448,-32.72276 74.67449,-73.03233 0,-18.05149 -6.74141,-34.5704 -17.84755,-47.31977 2.11384,-6.21025 3.2843,-12.869777 3.2843,-19.792198 0,-33.913605 -27.36276,-56.564323 -61.27637,-56.56432 z"
     id="path3453"
     sodipodi:nodetypes="sscssscss"
     stroke-dasharray="none"
     stroke-opacity="0"
     fill="#0f260d"
     stroke="none"
     stroke-linejoin="round"
     fill-opacity="1"
     stroke-linecap="round"
     stroke-width="0"
     stroke-dashoffset="0"
     stroke-miterlimit="4" />
  <path
     inkscape:connector-curvature="0"
     d="m 72.605563,116.46357 c -10.491235,9.62122 -29.685817,17.36466 -30.057961,33.14274 -0.161052,6.82822 -0.202788,16.9734 0.05108,26.60729 0.09169,3.47949 8.107704,12.60361 12.407462,6.9256 6.071537,-8.0177 -4.571716,-19.7778 4.931829,-21.36599 0.21709,-20.05111 6.117466,-33.08169 12.66759,-45.30964 z"
     id="path1894"
     sodipodi:nodetypes="cssscc"
     stroke-opacity="1"
     fill="#000000"
     fill-rule="evenodd"
     stroke="#000000"
     stroke-linejoin="miter"
     stroke-linecap="butt"
     stroke-width="1.383" />
  <path
     inkscape:connector-curvature="0"
     d="m 193.9164,173.62402 c 0,36.0322 -25.48075,53.44879 -57.99762,53.44879 -32.51688,0 -59.270031,-22.34065 -59.270031,-58.37286 0,-36.0322 26.390511,-65.27574 58.907381,-65.27574 32.51687,0 58.36027,34.1676 58.36027,70.19981 z"
     id="path1882"
     sodipodi:nodetypes="csssc"
     opacity="0.89"
     stroke-opacity="0"
     fill="url(#linearGradient2144)"
     stroke="none"
     stroke-linejoin="round"
     fill-opacity="1"
     stroke-linecap="round"
     stroke-width="0"
     stroke-dashoffset="0"
     stroke-miterlimit="4" />
  <ellipse
     ry="38.19"
     rx="48.967"
     cy="70.871"
     cx="132.18"
     id="path1885"
     opacity="0.89"
     stroke-dasharray="none"
     stroke-opacity="0"
     fill="url(#linearGradient2778)"
     stroke="none"
     stroke-linejoin="round"
     fill-opacity="1"
     stroke-linecap="round"
     stroke-width="0"
     stroke-dashoffset="0"
     stroke-miterlimit="4" />
  <path
     inkscape:connector-curvature="0"
     d="M 86.630107,73.773337 C 87.057011,46.674567 131.60936,39.82461 133.96287,74.293732 118.35032,47.183936 97.867123,53.474222 86.630107,73.773337 Z"
     id="path1893"
     sodipodi:nodetypes="ccc"
     stroke-dasharray="none"
     stroke-opacity="1"
     fill="url(#radialGradient3040)"
     fill-rule="evenodd"
     stroke="none"
     stroke-linejoin="miter"
     fill-opacity="1"
     stroke-linecap="butt"
     stroke-width="1.938"
     stroke-miterlimit="4" />
  <path
     inkscape:connector-curvature="0"
     sodipodi:nodetypes="ccc"
     id="path2789"
     d="m 133.1351,73.226219 c 1.64806,-20.073672 38.71685,-23.974286 42.95582,1.067513 C 160.47838,57.968751 146.56059,57.892524 133.1351,73.226219 Z"
     stroke-dasharray="none"
     stroke-opacity="1"
     fill="url(#radialGradient3036)"
     fill-rule="evenodd"
     stroke="none"
     stroke-linejoin="miter"
     fill-opacity="1"
     stroke-linecap="butt"
     stroke-width="1.938"
     stroke-miterlimit="4" />
  <g
     id="g3373"
     transform="matrix(1.382861,0,0,1.382861,75.554524,10.762705)">
    <path
       inkscape:connector-curvature="0"
       d="m 42.162393,53.952203 c 0,11.44955 -7.715878,20.725661 -17.236956,20.725661 -9.51243,0 -17.2369556,-9.276111 -17.2369556,-20.725661 0,-11.44695 7.7223636,-20.728261 17.2369556,-20.728261 9.521078,0.0026 17.236956,9.281311 17.236956,20.728261 z"
       id="path188"
       fill="url(#radialGradient3387)" />
    <path
       inkscape:connector-curvature="0"
       a:adobe-blending-mode="screen"
       d="m 37.252671,45.964653 c 0,6.788096 -5.696649,12.291888 -12.722876,12.291888 -7.021903,0 -12.71639,-5.503792 -12.71639,-12.291888 0,-6.793296 5.694487,-12.299687 12.71639,-12.299687 7.026227,0 12.722876,5.506391 12.722876,12.299687 z"
       id="path195"
       fill="url(#linearGradient3389)" />
  </g>
  <g
     transform="matrix(1.255898,0,0,1.118897,123.03575,26.098055)"
     id="g3381">
    <path
       inkscape:connector-curvature="0"
       id="path3383"
       d="m 42.162393,53.952203 c 0,11.44955 -7.715878,20.725661 -17.236956,20.725661 -9.51243,0 -17.2369556,-9.276111 -17.2369556,-20.725661 0,-11.44695 7.7223636,-20.728261 17.2369556,-20.728261 9.521078,0.0026 17.236956,9.281311 17.236956,20.728261 z"
       fill="url(#radialGradient3387)" />
    <path
       inkscape:connector-curvature="0"
       id="path3385"
       d="m 37.252671,45.964653 c 0,6.788096 -5.696649,12.291888 -12.722876,12.291888 -7.021903,0 -12.71639,-5.503792 -12.71639,-12.291888 0,-6.793296 5.694487,-12.299687 12.71639,-12.299687 7.026227,0 12.722876,5.506391 12.722876,12.299687 z"
       a:adobe-blending-mode="screen"
       fill="url(#linearGradient3389)" />
  </g>
  <g
     id="g3413"
     transform="matrix(0.526591,0,0,0.567268,113.14065,62.591985)">
    <path
       inkscape:connector-curvature="0"
       d="m 36.227789,42.082685 c 0,9.264025 -7.007467,16.769484 -15.654396,16.769484 -8.639075,0 -15.6543965,-7.505459 -15.6543965,-16.769484 0,-9.261922 7.0133575,-16.771589 15.6543965,-16.771589 8.646929,0.0021 15.654396,7.509667 15.654396,16.771589 z"
       id="path3393"
       fill="url(#radialGradient3427)" />
    <path
       inkscape:connector-curvature="0"
       a:adobe-blending-mode="screen"
       d="m 31.768839,35.619822 c 0,5.492364 -5.173628,9.945576 -11.554764,9.945576 -6.377208,0 -11.5488723,-4.453212 -11.5488723,-9.945576 0,-5.496571 5.1716643,-9.951886 11.5488723,-9.951886 6.381136,0 11.554764,4.455315 11.554764,9.951886 z"
       id="path3395"
       fill="url(#linearGradient3429)" />
  </g>
  <g
     transform="matrix(0.526591,0,0,0.567268,132.83685,63.139105)"
     id="g3421">
    <path
       inkscape:connector-curvature="0"
       id="path3423"
       d="m 36.227789,42.082685 c 0,9.264025 -7.007467,16.769484 -15.654396,16.769484 -8.639075,0 -15.6543965,-7.505459 -15.6543965,-16.769484 0,-9.261922 7.0133575,-16.771589 15.6543965,-16.771589 8.646929,0.0021 15.654396,7.509667 15.654396,16.771589 z"
       fill="url(#radialGradient3427)" />
    <path
       inkscape:connector-curvature="0"
       id="path3425"
       d="m 31.768839,35.619822 c 0,5.492364 -5.173628,9.945576 -11.554764,9.945576 -6.377208,0 -11.5488723,-4.453212 -11.5488723,-9.945576 0,-5.496571 5.1716643,-9.951886 11.5488723,-9.951886 6.381136,0 11.554764,4.455315 11.554764,9.951886 z"
       a:adobe-blending-mode="screen"
       fill="url(#linearGradient3429)" />
  </g>
  <path
     inkscape:connector-curvature="0"
     d="m 134.16202,134.09783 c 7.31127,-4.84969 12.55782,-12.37506 16.91876,-21.0481 0.48563,-2.16048 2.50255,-5.58649 -2.41697,-8.01832 -8.5886,-5.714566 -23.5448,-5.622602 -31.90396,1.00229 -3.87834,2.67277 -4.15875,5.34555 -2.90037,8.01832 5.74557,7.21168 11.65165,14.34014 20.30254,20.04581 z"
     id="path3431"
     sodipodi:nodetypes="cccccc"
     stroke-opacity="1"
     fill="url(#linearGradient2122)"
     fill-rule="evenodd"
     stroke="#c1b11c"
     stroke-linejoin="miter"
     fill-opacity="1"
     stroke-linecap="butt"
     stroke-width="1.244"
     style="fill:url(#linearGradient2122);stroke:#b0a00f;stroke-opacity:1" />
  <path
     inkscape:connector-curvature="0"
     sodipodi:nodetypes="csccc"
     id="path3441"
     d="m 72.166176,115.6182 c -1.92323,2.98517 -5.505366,3.67409 -7.429938,5.54882 -5.053715,4.92282 -5.450172,4.14299 -12.70791,10.4471 -12.511118,9.53001 -10.6385,23.51465 -9.558452,29.75639 17.539571,-10.89508 22.376178,-33.70723 29.6963,-45.75231 z"
     stroke-opacity="1"
     fill="url(#linearGradient2119)"
     fill-rule="evenodd"
     stroke="none"
     stroke-linejoin="miter"
     fill-opacity="1"
     stroke-linecap="butt"
     stroke-width="1" />
  <path
     inkscape:connector-curvature="0"
     d="m 96.96575,208.8155 c -17.406377,0 -31.53436,9.8686 -31.53436,22.0376 0,4.11408 1.596678,7.97719 4.406863,11.27414 l 54.218867,0 c 2.81018,-3.29695 4.44298,-7.16006 4.44298,-11.27414 0,-12.169 -14.12799,-22.0376 -31.53435,-22.0376 z"
     id="path1878"
     stroke-dasharray="none"
     stroke-opacity="0"
     fill="#000000"
     stroke="none"
     stroke-linejoin="round"
     fill-opacity="1"
     stroke-linecap="round"
     stroke-width="0"
     stroke-dashoffset="0"
     stroke-miterlimit="4" />
  <path
     inkscape:connector-curvature="0"
     id="path3455"
     d="m 96.96575,208.8155 c -17.406377,0 -31.53436,9.8686 -31.53436,22.0376 0,4.11408 1.596678,7.97719 4.406863,11.27414 l 54.218867,0 c 2.81018,-3.29695 4.44298,-7.16006 4.44298,-11.27414 0,-12.169 -14.12799,-22.0376 -31.53435,-22.0376 z"
     stroke-dasharray="none"
     stroke-opacity="0"
     fill="url(#radialGradient2112)"
     stroke="none"
     stroke-linejoin="round"
     fill-opacity="1"
     stroke-linecap="round"
     stroke-width="0"
     stroke-dashoffset="0"
     stroke-miterlimit="4" />
  <g
     transform="matrix(-0.374632,0,0,0.783982,99.592554,88.701785)"
     id="g3484">
    <path
       inkscape:connector-curvature="0"
       d="m 51.645467,168.01839 c -15.05874,0 -27.28125,7.85063 -27.28125,17.53125 0,3.27282 1.38133,6.34598 3.8125,8.96875 l 46.906247,0 c 2.43117,-2.62277 3.84375,-5.69593 3.84375,-8.96875 0,-9.68062 -12.22252,-17.53125 -27.281247,-17.53125 z"
       id="path3486"
       opacity="1"
       stroke-dasharray="none"
       stroke-opacity="0"
       fill="#000000"
       stroke="none"
       stroke-linejoin="round"
       fill-opacity="1"
       stroke-linecap="round"
       stroke-width="0"
       stroke-dashoffset="0"
       stroke-miterlimit="4" />
    <path
       inkscape:connector-curvature="0"
       id="path3488"
       d="m 51.645467,168.01839 c -15.05874,0 -27.28125,7.85063 -27.28125,17.53125 0,3.27282 1.38133,6.34598 3.8125,8.96875 l 46.906247,0 c 2.43117,-2.62277 3.84375,-5.69593 3.84375,-8.96875 0,-9.68062 -12.22252,-17.53125 -27.281247,-17.53125 z"
       opacity="1"
       stroke-dasharray="none"
       stroke-opacity="0"
       fill="url(#radialGradient2118)"
       stroke="none"
       stroke-linejoin="round"
       fill-opacity="1"
       stroke-linecap="round"
       stroke-width="0"
       stroke-dashoffset="0"
       stroke-miterlimit="4" />
    <path
       inkscape:connector-curvature="0"
       d="m 48.201204,169.74052 c -9.545351,0 -17.292888,6.11601 -17.292888,13.65767 0,2.54968 0.87559,4.94382 2.416647,6.98708 l 29.732672,0 c 1.541056,-2.04326 2.436455,-4.4374 2.436455,-6.98708 0,-7.54166 -7.747544,-13.65767 -17.292886,-13.65767 z"
       id="path3490"
       opacity="1"
       stroke-dasharray="none"
       stroke-opacity="0"
       fill="url(#radialGradient2120)"
       stroke="none"
       stroke-linejoin="round"
       fill-opacity="1"
       stroke-linecap="round"
       stroke-width="0"
       stroke-dashoffset="0"
       stroke-miterlimit="4" />
  </g>
  <path
     inkscape:connector-curvature="0"
     d="m 172.91357,210.23155 c 17.40638,0 31.53436,9.58641 31.53436,21.40742 0,3.99644 -1.59667,7.74908 -4.40686,10.95175 l -54.21887,0 c -2.81019,-3.20267 -4.44299,-6.95531 -4.44299,-10.95175 0,-11.82101 14.12799,-21.40742 31.53436,-21.40742 z"
     id="path2052"
     stroke-dasharray="none"
     stroke-opacity="0"
     fill="#000000"
     stroke="none"
     stroke-linejoin="round"
     fill-opacity="1"
     stroke-linecap="round"
     stroke-width="0"
     stroke-dashoffset="0"
     stroke-miterlimit="4" />
  <path
     inkscape:connector-curvature="0"
     id="path2054"
     d="m 172.91357,210.23155 c 17.40638,0 31.53436,9.58641 31.53436,21.40742 0,3.99644 -1.59667,7.74908 -4.40686,10.95175 l -54.21887,0 c -2.81019,-3.20267 -4.44299,-6.95531 -4.44299,-10.95175 0,-11.82101 14.12799,-21.40742 31.53436,-21.40742 z"
     stroke-dasharray="none"
     stroke-opacity="0"
     fill="url(#radialGradient2104)"
     stroke="none"
     stroke-linejoin="round"
     fill-opacity="1"
     stroke-linecap="round"
     stroke-width="0"
     stroke-dashoffset="0"
     stroke-miterlimit="4" />
  <g
     id="g2062"
     transform="matrix(-0.374632,0,0,0.783982,116.73635,89.165145)">
    <path
       inkscape:connector-curvature="0"
       id="path2064"
       d="m 51.645467,168.01839 c -15.05874,0 -27.28125,7.85063 -27.28125,17.53125 0,3.27282 1.38133,6.34598 3.8125,8.96875 l 46.906247,0 c 2.43117,-2.62277 3.84375,-5.69593 3.84375,-8.96875 0,-9.68062 -12.22252,-17.53125 -27.281247,-17.53125 z"
       opacity="1"
       stroke-dasharray="none"
       stroke-opacity="0"
       fill="#000000"
       stroke="none"
       stroke-linejoin="round"
       fill-opacity="1"
       stroke-linecap="round"
       stroke-width="0"
       stroke-dashoffset="0"
       stroke-miterlimit="4" />
    <path
       inkscape:connector-curvature="0"
       d="m 51.645467,168.01839 c -15.05874,0 -27.28125,7.85063 -27.28125,17.53125 0,3.27282 1.38133,6.34598 3.8125,8.96875 l 46.906247,0 c 2.43117,-2.62277 3.84375,-5.69593 3.84375,-8.96875 0,-9.68062 -12.22252,-17.53125 -27.281247,-17.53125 z"
       id="path2066"
       opacity="1"
       stroke-dasharray="none"
       stroke-opacity="0"
       fill="url(#radialGradient2118)"
       stroke="none"
       stroke-linejoin="round"
       fill-opacity="1"
       stroke-linecap="round"
       stroke-width="0"
       stroke-dashoffset="0"
       stroke-miterlimit="4" />
    <path
       inkscape:connector-curvature="0"
       id="path2068"
       d="m 48.201204,169.74052 c -9.545351,0 -17.292888,6.11601 -17.292888,13.65767 0,2.54968 0.87559,4.94382 2.416647,6.98708 l 29.732672,0 c 1.541056,-2.04326 2.436455,-4.4374 2.436455,-6.98708 0,-7.54166 -7.747544,-13.65767 -17.292886,-13.65767 z"
       opacity="1"
       stroke-dasharray="none"
       stroke-opacity="0"
       fill="url(#radialGradient2120)"
       stroke="none"
       stroke-linejoin="round"
       fill-opacity="1"
       stroke-linecap="round"
       stroke-width="0"
       stroke-dashoffset="0"
       stroke-miterlimit="4" />
  </g>
  <g
     transform="matrix(-0.374632,0,0,0.783982,135.73345,89.628485)"
     id="g2074">
    <path
       inkscape:connector-curvature="0"
       d="m 51.645467,168.01839 c -15.05874,0 -27.28125,7.85063 -27.28125,17.53125 0,3.27282 1.38133,6.34598 3.8125,8.96875 l 46.906247,0 c 2.43117,-2.62277 3.84375,-5.69593 3.84375,-8.96875 0,-9.68062 -12.22252,-17.53125 -27.281247,-17.53125 z"
       id="path2076"
       opacity="1"
       stroke-dasharray="none"
       stroke-opacity="0"
       fill="#000000"
       stroke="none"
       stroke-linejoin="round"
       fill-opacity="1"
       stroke-linecap="round"
       stroke-width="0"
       stroke-dashoffset="0"
       stroke-miterlimit="4" />
    <path
       inkscape:connector-curvature="0"
       id="path2078"
       d="m 51.645467,168.01839 c -15.05874,0 -27.28125,7.85063 -27.28125,17.53125 0,3.27282 1.38133,6.34598 3.8125,8.96875 l 46.906247,0 c 2.43117,-2.62277 3.84375,-5.69593 3.84375,-8.96875 0,-9.68062 -12.22252,-17.53125 -27.281247,-17.53125 z"
       opacity="1"
       stroke-dasharray="none"
       stroke-opacity="0"
       fill="url(#radialGradient2118)"
       stroke="none"
       stroke-linejoin="round"
       fill-opacity="1"
       stroke-linecap="round"
       stroke-width="0"
       stroke-dashoffset="0"
       stroke-miterlimit="4" />
    <path
       inkscape:connector-curvature="0"
       d="m 48.201204,169.74052 c -9.545351,0 -17.292888,6.11601 -17.292888,13.65767 0,2.54968 0.87559,4.94382 2.416647,6.98708 l 29.732672,0 c 1.541056,-2.04326 2.436455,-4.4374 2.436455,-6.98708 0,-7.54166 -7.747544,-13.65767 -17.292886,-13.65767 z"
       id="path2080"
       opacity="1"
       stroke-dasharray="none"
       stroke-opacity="0"
       fill="url(#radialGradient2120)"
       stroke="none"
       stroke-linejoin="round"
       fill-opacity="1"
       stroke-linecap="round"
       stroke-width="0"
       stroke-dashoffset="0"
       stroke-miterlimit="4" />
  </g>
  <g
     transform="matrix(-0.374632,0,0,0.783982,193.18845,89.628485)"
     id="g2086">
    <path
       inkscape:connector-curvature="0"
       d="m 51.645467,168.01839 c -15.05874,0 -27.28125,7.85063 -27.28125,17.53125 0,3.27282 1.38133,6.34598 3.8125,8.96875 l 46.906247,0 c 2.43117,-2.62277 3.84375,-5.69593 3.84375,-8.96875 0,-9.68062 -12.22252,-17.53125 -27.281247,-17.53125 z"
       id="path2088"
       opacity="1"
       stroke-dasharray="none"
       stroke-opacity="0"
       fill="#000000"
       stroke="none"
       stroke-linejoin="round"
       fill-opacity="1"
       stroke-linecap="round"
       stroke-width="0"
       stroke-dashoffset="0"
       stroke-miterlimit="4" />
    <path
       inkscape:connector-curvature="0"
       id="path2090"
       d="m 51.645467,168.01839 c -15.05874,0 -27.28125,7.85063 -27.28125,17.53125 0,3.27282 1.38133,6.34598 3.8125,8.96875 l 46.906247,0 c 2.43117,-2.62277 3.84375,-5.69593 3.84375,-8.96875 0,-9.68062 -12.22252,-17.53125 -27.281247,-17.53125 z"
       opacity="1"
       stroke-dasharray="none"
       stroke-opacity="0"
       fill="url(#radialGradient2118)"
       stroke="none"
       stroke-linejoin="round"
       fill-opacity="1"
       stroke-linecap="round"
       stroke-width="0"
       stroke-dashoffset="0"
       stroke-miterlimit="4" />
    <path
       inkscape:connector-curvature="0"
       d="m 48.201204,169.74052 c -9.545351,0 -17.292888,6.11601 -17.292888,13.65767 0,2.54968 0.87559,4.94382 2.416647,6.98708 l 29.732672,0 c 1.541056,-2.04326 2.436455,-4.4374 2.436455,-6.98708 0,-7.54166 -7.747544,-13.65767 -17.292886,-13.65767 z"
       id="path2092"
       opacity="1"
       stroke-dasharray="none"
       stroke-opacity="0"
       fill="url(#radialGradient2120)"
       stroke="none"
       stroke-linejoin="round"
       fill-opacity="1"
       stroke-linecap="round"
       stroke-width="0"
       stroke-dashoffset="0"
       stroke-miterlimit="4" />
  </g>
  <g
     id="g2098"
     transform="matrix(-0.374632,0,0,0.783982,174.19125,90.091825)">
    <path
       inkscape:connector-curvature="0"
       id="path2100"
       d="m 51.645467,168.01839 c -15.05874,0 -27.28125,7.85063 -27.28125,17.53125 0,3.27282 1.38133,6.34598 3.8125,8.96875 l 46.906247,0 c 2.43117,-2.62277 3.84375,-5.69593 3.84375,-8.96875 0,-9.68062 -12.22252,-17.53125 -27.281247,-17.53125 z"
       opacity="1"
       stroke-dasharray="none"
       stroke-opacity="0"
       fill="#000000"
       stroke="none"
       stroke-linejoin="round"
       fill-opacity="1"
       stroke-linecap="round"
       stroke-width="0"
       stroke-dashoffset="0"
       stroke-miterlimit="4" />
    <path
       inkscape:connector-curvature="0"
       d="m 51.645467,168.01839 c -15.05874,0 -27.28125,7.85063 -27.28125,17.53125 0,3.27282 1.38133,6.34598 3.8125,8.96875 l 46.906247,0 c 2.43117,-2.62277 3.84375,-5.69593 3.84375,-8.96875 0,-9.68062 -12.22252,-17.53125 -27.281247,-17.53125 z"
       id="path2102"
       opacity="1"
       stroke-dasharray="none"
       stroke-opacity="0"
       fill="url(#radialGradient2118)"
       stroke="none"
       stroke-linejoin="round"
       fill-opacity="1"
       stroke-linecap="round"
       stroke-width="0"
       stroke-dashoffset="0"
       stroke-miterlimit="4" />
    <path
       inkscape:connector-curvature="0"
       id="path2104"
       d="m 48.201204,169.74052 c -9.545351,0 -17.292888,6.11601 -17.292888,13.65767 0,2.54968 0.87559,4.94382 2.416647,6.98708 l 29.732672,0 c 1.541056,-2.04326 2.436455,-4.4374 2.436455,-6.98708 0,-7.54166 -7.747544,-13.65767 -17.292886,-13.65767 z"
       opacity="1"
       stroke-dasharray="none"
       stroke-opacity="0"
       fill="url(#radialGradient2120)"
       stroke="none"
       stroke-linejoin="round"
       fill-opacity="1"
       stroke-linecap="round"
       stroke-width="0"
       stroke-dashoffset="0"
       stroke-miterlimit="4" />
  </g>
  <g
     transform="matrix(-0.374632,0,0,0.783982,212.18555,89.165145)"
     id="g2110">
    <path
       inkscape:connector-curvature="0"
       d="m 51.645467,168.01839 c -15.05874,0 -27.28125,7.85063 -27.28125,17.53125 0,3.27282 1.38133,6.34598 3.8125,8.96875 l 46.906247,0 c 2.43117,-2.62277 3.84375,-5.69593 3.84375,-8.96875 0,-9.68062 -12.22252,-17.53125 -27.281247,-17.53125 z"
       id="path2112"
       opacity="1"
       stroke-dasharray="none"
       stroke-opacity="0"
       fill="#000000"
       stroke="none"
       stroke-linejoin="round"
       fill-opacity="1"
       stroke-linecap="round"
       stroke-width="0"
       stroke-dashoffset="0"
       stroke-miterlimit="4" />
    <path
       inkscape:connector-curvature="0"
       id="path2114"
       d="m 51.645467,168.01839 c -15.05874,0 -27.28125,7.85063 -27.28125,17.53125 0,3.27282 1.38133,6.34598 3.8125,8.96875 l 46.906247,0 c 2.43117,-2.62277 3.84375,-5.69593 3.84375,-8.96875 0,-9.68062 -12.22252,-17.53125 -27.281247,-17.53125 z"
       opacity="1"
       stroke-dasharray="none"
       stroke-opacity="0"
       fill="url(#radialGradient2118)"
       stroke="none"
       stroke-linejoin="round"
       fill-opacity="1"
       stroke-linecap="round"
       stroke-width="0"
       stroke-dashoffset="0"
       stroke-miterlimit="4" />
    <path
       inkscape:connector-curvature="0"
       d="m 48.201204,169.74052 c -9.545351,0 -17.292888,6.11601 -17.292888,13.65767 0,2.54968 0.87559,4.94382 2.416647,6.98708 l 29.732672,0 c 1.541056,-2.04326 2.436455,-4.4374 2.436455,-6.98708 0,-7.54166 -7.747544,-13.65767 -17.292886,-13.65767 z"
       id="path2116"
       opacity="1"
       stroke-dasharray="none"
       stroke-opacity="0"
       fill="url(#radialGradient2120)"
       stroke="none"
       stroke-linejoin="round"
       fill-opacity="1"
       stroke-linecap="round"
       stroke-width="0"
       stroke-dashoffset="0"
       stroke-miterlimit="4" />
  </g>
  <path
     inkscape:connector-curvature="0"
     d="m 176.89478,212.33444 c 11.03347,0 19.98883,7.46826 19.98883,16.67739 0,3.11342 -1.01209,6.03691 -2.79339,8.53194 l -34.36796,0 c -1.78131,-2.49503 -2.81629,-5.41852 -2.81629,-8.53194 0,-9.20913 8.95537,-16.67739 19.98881,-16.67739 z"
     id="path2056"
     stroke-dasharray="none"
     stroke-opacity="0"
     fill="url(#radialGradient2081)"
     stroke="none"
     stroke-linejoin="round"
     fill-opacity="1"
     stroke-linecap="round"
     stroke-width="0"
     stroke-dashoffset="0"
     stroke-miterlimit="4" />
  <path
     inkscape:connector-curvature="0"
     d="m 92.98453,210.9803 c -11.033458,0 -19.988825,7.6881 -19.988825,17.16832 0,3.20507 1.012094,6.21462 2.793399,8.78309 l 34.367946,0 c 1.78131,-2.56847 2.8163,-5.57802 2.8163,-8.78309 0,-9.48022 -8.95537,-17.16832 -19.98882,-17.16832 z"
     id="path3465"
     stroke-dasharray="none"
     stroke-opacity="0"
     fill="url(#radialGradient2078)"
     stroke="none"
     stroke-linejoin="round"
     fill-opacity="1"
     stroke-linecap="round"
     stroke-width="0"
     stroke-dashoffset="0"
     stroke-miterlimit="4" />
  <path
     sodipodi:nodetypes="cssscc"
     id="path4361"
     d="m 194.73182,113.15134 c 10.49124,9.62122 29.68582,17.36466 30.05796,33.14274 0.16105,6.82822 0.20279,16.9734 -0.0511,26.60729 -0.0917,3.47949 -8.1077,12.60361 -12.40746,6.9256 -6.07154,-8.0177 4.57172,-19.7778 -4.93183,-21.36599 -0.21709,-20.05111 -6.11746,-33.08169 -12.66759,-45.30964 z"
     inkscape:connector-curvature="0"
     stroke-opacity="1"
     fill="#000000"
     fill-rule="evenodd"
     stroke="#000000"
     stroke-linejoin="miter"
     stroke-linecap="butt"
     stroke-width="1.383" />
  <path
     d="m 195.52025,112.13145 c 1.92323,2.98517 5.50536,3.67409 7.42994,5.54882 5.05371,4.92282 5.45017,4.14299 12.70791,10.4471 12.51111,9.53001 10.6385,23.51465 9.55845,29.75639 -17.53957,-10.89508 -22.37618,-33.70723 -29.6963,-45.75231 z"
     id="path4363"
     sodipodi:nodetypes="csccc"
     inkscape:connector-curvature="0"
     stroke-opacity="1"
     fill="url(#linearGradient4365)"
     fill-rule="evenodd"
     stroke="none"
     stroke-linejoin="miter"
     fill-opacity="1"
     stroke-linecap="butt"
     stroke-width="1" />
  <rect
     rx="4.4490709"
     ry="1.605"
     y="38.239536"
     x="93.185638"
     height="22.55846"
     width="11.784361"
     id="rect4377"
     transform="matrix(0.9783718,-0.20685411,0.20685411,0.9783718,0,0)"
     stroke-miterlimit="4"
     style="opacity:1;fill:url(#linearGradient4379);fill-opacity:1;fill-rule:nonzero;stroke:none;stroke-width:1;stroke-linecap:round;stroke-linejoin:round;stroke-miterlimit:4;stroke-dasharray:none;stroke-dashoffset:0;stroke-opacity:1" />
  <rect
     id="rect4381"
     width="9.2932205"
     height="24.781858"
     x="158.50676"
     y="-28.248859"
     ry="1.605"
     rx="4.4713364"
     transform="matrix(0.96139865,0.27515928,-0.27515928,0.96139865,0,0)"
     stroke-miterlimit="4"
     style="opacity:1;fill:url(#linearGradient4383);fill-opacity:1;fill-rule:nonzero;stroke:none;stroke-width:1;stroke-linecap:round;stroke-linejoin:round;stroke-miterlimit:4;stroke-dasharray:none;stroke-dashoffset:0;stroke-opacity:1" />
  <path
     sodipodi:nodetypes="cccccc"
     id="path4385"
     d="m 134.73889,125.74238 c 7.35597,-3.23094 12.6346,-8.24446 17.0222,-14.02258 0.4886,-1.43935 2.23435,-5.13931 -2.71524,-6.75944 -8.2808,-5.608661 -23.2934,-5.722632 -32.09902,0.66775 -3.90206,1.78064 -3.90068,4.97879 -2.63461,6.75943 5.7807,4.80454 11.72289,9.55363 20.42667,13.35484 z"
     inkscape:connector-curvature="0"
     stroke-opacity="1"
     fill="url(#linearGradient4387)"
     fill-rule="evenodd"
     stroke="#c1b11c"
     stroke-linejoin="miter"
     fill-opacity="1"
     stroke-linecap="butt"
     stroke-width="1.018" />
  <g
     font-size="7.5"
     font-variant="normal"
     letter-spacing="0"
     font-stretch="normal"
     font-weight="bold"
     line-height="125%"
     word-spacing="0"
     font-style="normal"
     transform="translate(65.379041,-44.251102)"
     id="text4330"
     style="font-style:normal;font-variant:normal;font-weight:bold;font-stretch:normal;font-size:7.5px;line-height:125%;font-family:STIX;letter-spacing:0;word-spacing:0;fill:#000000;fill-opacity:1;stroke:none;stroke-width:1;stroke-linecap:butt;stroke-linejoin:miter;stroke-opacity:1">
    <path
       inkscape:connector-curvature="0"
       id="path4335"
       d="m -56.13327,39.467617 0,-0.1875 c -0.3075,0 -0.4425,-0.165 -0.825,-1.0725 l -1.665,-3.915 -0.21,0 -1.6575,4.0875 c -0.285,0.705 -0.3975,0.84 -0.7425,0.9 l 0,0.1875 1.515,0 0,-0.1875 c -0.4425,-0.03 -0.6075,-0.1125 -0.6075,-0.3075 0,-0.18 0.1425,-0.495 0.2325,-0.7275 l 0.0975,-0.255 1.6875,0 c 0.255,0.5925 0.345,0.855 0.345,1.02 0,0.165 -0.0975,0.225 -0.345,0.2475 l -0.24,0.0225 0,0.1875 2.415,0 z m -2.2875,-1.77 -1.4625,0 0.705,-1.8225 0.7575,1.8225 z" />
    <path
       inkscape:connector-curvature="0"
       id="path4337"
       d="m -55.760848,34.397617 0,0.1875 c 0.525,0.045 0.63,0.15 0.63,0.735 l 0,3.2025 c 0,0.3825 -0.045,0.5925 -0.2925,0.69 -0.0825,0.0375 -0.195,0.0525 -0.3375,0.0675 l 0,0.1875 2.4975,0 0,-0.1875 c -0.5925,-0.075 -0.6525,-0.1425 -0.6525,-0.645 l 0,-1.44 c 0.99,-0.0075 1.245,-0.03 1.5675,-0.15 0.6225,-0.2325 0.9675,-0.69 0.9675,-1.29 0,-0.915 -0.765,-1.3575 -2.0175,-1.3575 l -2.3625,0 z m 1.845,0.525 c 0,-0.1725 0.1275,-0.2625 0.375,-0.2625 0.6225,0 0.87,0.345 0.87,1.1775 0,0.8325 -0.3075,1.0875 -1.245,1.095 l 0,-2.01 z" />
  </g>
</svg>
