<?xml version="1.0" encoding="UTF-8" standalone="no"?>
<!-- Created with Inkscape (http://www.inkscape.org/) -->

<svg
   xmlns:dc="http://purl.org/dc/elements/1.1/"
   xmlns:cc="http://creativecommons.org/ns#"
   xmlns:rdf="http://www.w3.org/1999/02/22-rdf-syntax-ns#"
   xmlns:svg="http://www.w3.org/2000/svg"
   xmlns="http://www.w3.org/2000/svg"
   xmlns:xlink="http://www.w3.org/1999/xlink"
   xmlns:sodipodi="http://sodipodi.sourceforge.net/DTD/sodipodi-0.dtd"
   xmlns:inkscape="http://www.inkscape.org/namespaces/inkscape"
   version="1.1"
   id="svg2"
   width="255"
   height="255"
   viewBox="0 0 255.00001 255"
   sodipodi:docname="gl-117.svg"
   inkscape:version="0.92.5 (2060ec1f9f, 2020-04-08)">
  <metadata
     id="metadata8">
    <rdf:RDF>
      <cc:Work
         rdf:about="">
        <dc:format>image/svg+xml</dc:format>
        <dc:type
           rdf:resource="http://purl.org/dc/dcmitype/StillImage" />
        <dc:title />
      </cc:Work>
    </rdf:RDF>
  </metadata>
  <defs
     id="defs6">
    <linearGradient
       inkscape:collect="always"
       id="linearGradient901">
      <stop
         style="stop-color:#e3e3e3;stop-opacity:1;"
         offset="0"
         id="stop897" />
      <stop
         style="stop-color:#000000;stop-opacity:1"
         offset="1"
         id="stop899" />
    </linearGradient>
    <linearGradient
       id="linearGradient885"
       inkscape:collect="always">
      <stop
         id="stop881"
         offset="0"
         style="stop-color:#898989;stop-opacity:1" />
      <stop
         id="stop883"
         offset="1"
         style="stop-color:#030303;stop-opacity:1" />
    </linearGradient>
    <linearGradient
       inkscape:collect="always"
       id="linearGradient971">
      <stop
         style="stop-color:#cacbff;stop-opacity:1"
         offset="0"
         id="stop967" />
      <stop
         style="stop-color:#000270;stop-opacity:1"
         offset="1"
         id="stop969" />
    </linearGradient>
    <linearGradient
       inkscape:collect="always"
       id="linearGradient874">
      <stop
         style="stop-color:#a6a6a6;stop-opacity:1;"
         offset="0"
         id="stop870" />
      <stop
         id="stop880"
         offset="0.68917191"
         style="stop-color:#000000;stop-opacity:1" />
      <stop
         id="stop878"
         offset="0.81657708"
         style="stop-color:#4c4b4b;stop-opacity:1" />
      <stop
         style="stop-color:#a9a9a9;stop-opacity:1"
         offset="1"
         id="stop872" />
    </linearGradient>
    <linearGradient
       inkscape:collect="always"
       id="linearGradient866">
      <stop
         style="stop-color:#000000;stop-opacity:1;"
         offset="0"
         id="stop862" />
      <stop
         style="stop-color:#a6a6a6;stop-opacity:0.98387098"
         offset="1"
         id="stop864" />
    </linearGradient>
    <linearGradient
       inkscape:collect="always"
       id="linearGradient858">
      <stop
         style="stop-color:#3f2d2d;stop-opacity:1"
         offset="0"
         id="stop854" />
      <stop
         style="stop-color:#ffffff;stop-opacity:1"
         offset="1"
         id="stop856" />
    </linearGradient>
    <linearGradient
       inkscape:collect="always"
       xlink:href="#linearGradient858"
       id="linearGradient860"
       x1="1111.2646"
       y1="307.68015"
       x2="1110.3062"
       y2="271.1217"
       gradientUnits="userSpaceOnUse"
       spreadMethod="reflect"
       gradientTransform="matrix(0.17924195,0,0,0.17924195,-6.6547509,42.963386)" />
    <linearGradient
       inkscape:collect="always"
       xlink:href="#linearGradient866"
       id="linearGradient868"
       x1="987.9668"
       y1="426.03641"
       x2="987.92401"
       y2="419.04425"
       gradientUnits="userSpaceOnUse"
       spreadMethod="reflect"
       gradientTransform="matrix(0.17924195,0,0,0.17924195,-22.067358,41.544735)" />
    <radialGradient
       inkscape:collect="always"
       xlink:href="#linearGradient874"
       id="radialGradient876"
       cx="813.9281"
       cy="332.69919"
       fx="813.9281"
       fy="332.69919"
       r="122.9716"
       gradientTransform="matrix(-0.03874059,0.9210169,-0.58758286,-0.0247154,362.74699,-639.75028)"
       gradientUnits="userSpaceOnUse"
       spreadMethod="reflect" />
    <linearGradient
       inkscape:collect="always"
       xlink:href="#linearGradient866"
       id="linearGradient890"
       gradientUnits="userSpaceOnUse"
       gradientTransform="translate(-78.652824,371.91589)"
       x1="987.9668"
       y1="426.03641"
       x2="987.92401"
       y2="419.04425"
       spreadMethod="reflect" />
    <linearGradient
       inkscape:collect="always"
       xlink:href="#linearGradient866"
       id="linearGradient898"
       x1="1097.2394"
       y1="819.31567"
       x2="1097.2394"
       y2="799.00543"
       gradientUnits="userSpaceOnUse"
       spreadMethod="reflect" />
    <linearGradient
       inkscape:collect="always"
       xlink:href="#linearGradient866"
       id="linearGradient913"
       gradientUnits="userSpaceOnUse"
       x1="1097.2394"
       y1="819.31567"
       x2="1097.2394"
       y2="799.00543"
       spreadMethod="reflect" />
    <linearGradient
       inkscape:collect="always"
       xlink:href="#linearGradient866"
       id="linearGradient915"
       gradientUnits="userSpaceOnUse"
       gradientTransform="translate(-78.652824,371.91589)"
       x1="987.9668"
       y1="426.03641"
       x2="987.92401"
       y2="419.04425"
       spreadMethod="reflect" />
    <linearGradient
       inkscape:collect="always"
       xlink:href="#linearGradient866"
       id="linearGradient925"
       gradientUnits="userSpaceOnUse"
       x1="1097.2394"
       y1="819.31567"
       x2="1097.2394"
       y2="799.00543"
       spreadMethod="reflect" />
    <linearGradient
       inkscape:collect="always"
       xlink:href="#linearGradient866"
       id="linearGradient927"
       gradientUnits="userSpaceOnUse"
       gradientTransform="translate(-78.652824,371.91589)"
       x1="987.9668"
       y1="426.03641"
       x2="987.92401"
       y2="419.04425"
       spreadMethod="reflect" />
    <linearGradient
       inkscape:collect="always"
       xlink:href="#linearGradient866"
       id="linearGradient937"
       gradientUnits="userSpaceOnUse"
       x1="1097.2394"
       y1="819.31567"
       x2="1097.2394"
       y2="799.00543"
       spreadMethod="reflect" />
    <linearGradient
       inkscape:collect="always"
       xlink:href="#linearGradient866"
       id="linearGradient939"
       gradientUnits="userSpaceOnUse"
       gradientTransform="translate(-78.652824,371.91589)"
       x1="987.9668"
       y1="426.03641"
       x2="987.92401"
       y2="419.04425"
       spreadMethod="reflect" />
    <linearGradient
       inkscape:collect="always"
       xlink:href="#linearGradient885"
       id="linearGradient947"
       x1="1254.4849"
       y1="718.31915"
       x2="1363.9073"
       y2="601.92572"
       gradientUnits="userSpaceOnUse"
       spreadMethod="reflect"
       gradientTransform="matrix(0.17924195,0,0,0.17924195,-6.9412678,63.306083)" />
    <linearGradient
       inkscape:collect="always"
       xlink:href="#linearGradient885"
       id="linearGradient957"
       x1="1088.6526"
       y1="413.76913"
       x2="1265.5063"
       y2="426.88388"
       gradientUnits="userSpaceOnUse"
       spreadMethod="reflect"
       gradientTransform="matrix(0.17924195,0,0,0.17924195,-32.762865,26.921106)" />
    <linearGradient
       inkscape:collect="always"
       xlink:href="#linearGradient885"
       id="linearGradient965"
       x1="792.62299"
       y1="566.79779"
       x2="808.19672"
       y2="660.24048"
       gradientUnits="userSpaceOnUse"
       spreadMethod="reflect"
       gradientTransform="matrix(0.17924195,0,0,0.17924195,-6.9412678,63.306083)" />
    <linearGradient
       inkscape:collect="always"
       xlink:href="#linearGradient971"
       id="linearGradient973"
       x1="449.85202"
       y1="563.13104"
       x2="466.22302"
       y2="631.16382"
       gradientUnits="userSpaceOnUse"
       gradientTransform="matrix(0.17924195,0,0,0.17924195,-6.9412678,63.306083)" />
    <linearGradient
       inkscape:collect="always"
       xlink:href="#linearGradient885"
       id="linearGradient981"
       x1="694.41937"
       y1="679.28619"
       x2="701.32703"
       y2="711.25342"
       gradientUnits="userSpaceOnUse"
       spreadMethod="reflect"
       gradientTransform="matrix(0.17924195,0,0,0.17924195,-6.9412678,63.306083)" />
    <radialGradient
       inkscape:collect="always"
       xlink:href="#linearGradient885"
       id="radialGradient989"
       cx="1348.7863"
       cy="775.38324"
       fx="1348.7863"
       fy="775.38324"
       r="84.612961"
       gradientTransform="matrix(0.29806478,-0.05883099,0.01256202,0.06364493,-176.94826,231.22779)"
       gradientUnits="userSpaceOnUse" />
    <linearGradient
       inkscape:collect="always"
       xlink:href="#linearGradient885"
       id="linearGradient993"
       gradientUnits="userSpaceOnUse"
       x1="791.14105"
       y1="571.24365"
       x2="808.19672"
       y2="660.24048"
       spreadMethod="reflect"
       gradientTransform="matrix(0.09913865,0,0,0.09913865,136.09354,20.616345)" />
    <linearGradient
       inkscape:collect="always"
       xlink:href="#linearGradient971"
       id="linearGradient997"
       gradientUnits="userSpaceOnUse"
       gradientTransform="matrix(0.09913865,0,0,0.09913865,136.09354,20.616345)"
       x1="402.86725"
       y1="557.90601"
       x2="445.11627"
       y2="651.34875"
       spreadMethod="reflect" />
    <linearGradient
       inkscape:collect="always"
       xlink:href="#linearGradient885"
       id="linearGradient1007"
       x1="1287.1313"
       y1="102.45046"
       x2="1328.8158"
       y2="52.450459"
       gradientUnits="userSpaceOnUse"
       gradientTransform="matrix(0.17924195,0,0,0.17924195,-6.6547509,42.963386)" />
    <linearGradient
       inkscape:collect="always"
       xlink:href="#linearGradient866"
       id="linearGradient1021"
       x1="1407.8116"
       y1="504.59503"
       x2="1403.2545"
       y2="483.38293"
       gradientUnits="userSpaceOnUse"
       spreadMethod="reflect"
       gradientTransform="matrix(0.17924195,0,0,0.17924195,-6.9412678,63.306083)" />
    <linearGradient
       inkscape:collect="always"
       xlink:href="#linearGradient866"
       id="linearGradient893"
       x1="168.86974"
       y1="117.94637"
       x2="169.01233"
       y2="115.42942"
       gradientUnits="userSpaceOnUse"
       spreadMethod="reflect" />
    <radialGradient
       inkscape:collect="always"
       xlink:href="#linearGradient901"
       id="radialGradient903"
       cx="177.17055"
       cy="95.891479"
       fx="177.17055"
       fy="95.891479"
       r="1.4341085"
       gradientTransform="matrix(1,0,0,1.918919,0,-88.116507)"
       gradientUnits="userSpaceOnUse" />
    <radialGradient
       inkscape:collect="always"
       xlink:href="#linearGradient901"
       id="radialGradient911"
       cx="1053.8755"
       cy="671.83203"
       fx="1053.8755"
       fy="671.83203"
       r="12.454337"
       gradientTransform="matrix(1,0,0,1.6930804,0,-465.63363)"
       gradientUnits="userSpaceOnUse" />
    <radialGradient
       inkscape:collect="always"
       xlink:href="#linearGradient901"
       id="radialGradient919"
       cx="1053.8755"
       cy="671.83203"
       fx="1053.8755"
       fy="671.83203"
       r="12.454337"
       gradientTransform="matrix(1,0,0,1.6930804,0,-465.63363)"
       gradientUnits="userSpaceOnUse" />
    <radialGradient
       inkscape:collect="always"
       xlink:href="#linearGradient901"
       id="radialGradient928"
       cx="1053.8755"
       cy="671.83203"
       fx="1053.8755"
       fy="671.83203"
       r="12.454337"
       gradientTransform="matrix(1,0,0,1.6930804,0,-465.63363)"
       gradientUnits="userSpaceOnUse" />
    <radialGradient
       inkscape:collect="always"
       xlink:href="#linearGradient901"
       id="radialGradient936"
       cx="1053.8755"
       cy="671.83203"
       fx="1053.8755"
       fy="671.83203"
       r="12.454337"
       gradientTransform="matrix(1,0,0,1.6930804,0,-465.63363)"
       gradientUnits="userSpaceOnUse" />
    <linearGradient
       inkscape:collect="always"
       xlink:href="#linearGradient885"
       id="linearGradient906"
       gradientUnits="userSpaceOnUse"
       gradientTransform="matrix(0.17924195,0,0,0.17924195,-21.750626,24.963756)"
       x1="792.62299"
       y1="566.79779"
       x2="808.19672"
       y2="660.24048"
       spreadMethod="reflect" />
    <linearGradient
       inkscape:collect="always"
       xlink:href="#linearGradient885"
       id="linearGradient908"
       gradientUnits="userSpaceOnUse"
       gradientTransform="matrix(0.17924195,0,0,0.17924195,-17.73939,24.104205)"
       x1="694.41937"
       y1="679.28619"
       x2="701.32703"
       y2="711.25342"
       spreadMethod="reflect" />
    <linearGradient
       inkscape:collect="always"
       xlink:href="#linearGradient885"
       id="linearGradient914"
       gradientUnits="userSpaceOnUse"
       gradientTransform="matrix(0.17924195,0,0,0.17924195,-34.709691,28.902591)"
       x1="1254.4849"
       y1="718.31915"
       x2="1363.9073"
       y2="601.92572"
       spreadMethod="reflect" />
    <linearGradient
       inkscape:collect="always"
       xlink:href="#linearGradient885"
       id="linearGradient924"
       gradientUnits="userSpaceOnUse"
       gradientTransform="matrix(0.09913865,0,0,0.09913865,118.95739,-16.003373)"
       x1="791.14105"
       y1="571.24365"
       x2="808.19672"
       y2="660.24048"
       spreadMethod="reflect" />
    <linearGradient
       inkscape:collect="always"
       xlink:href="#linearGradient971"
       id="linearGradient926"
       gradientUnits="userSpaceOnUse"
       gradientTransform="matrix(0.09913865,0,0,0.09913865,118.95739,-16.003373)"
       x1="402.86725"
       y1="557.90601"
       x2="445.11627"
       y2="651.34875"
       spreadMethod="reflect" />
    <linearGradient
       inkscape:collect="always"
       xlink:href="#linearGradient885"
       id="linearGradient928"
       gradientUnits="userSpaceOnUse"
       gradientTransform="matrix(0.17924195,0,0,0.17924195,-24.729868,34.747423)"
       x1="1287.1313"
       y1="102.45046"
       x2="1328.8158"
       y2="52.450459" />
    <radialGradient
       inkscape:collect="always"
       xlink:href="#linearGradient874"
       id="radialGradient932"
       gradientUnits="userSpaceOnUse"
       gradientTransform="matrix(-0.03874059,0.9210169,-0.58758286,-0.0247154,336.22117,-678.48267)"
       cx="813.9281"
       cy="332.69919"
       fx="813.9281"
       fy="332.69919"
       r="122.9716"
       spreadMethod="reflect" />
    <linearGradient
       inkscape:collect="always"
       xlink:href="#linearGradient885"
       id="linearGradient948"
       gradientUnits="userSpaceOnUse"
       gradientTransform="matrix(0.17924195,0,0,0.17924195,-6.6547509,42.963386)"
       x1="1287.1313"
       y1="102.45046"
       x2="1328.8158"
       y2="52.450459" />
    <linearGradient
       inkscape:collect="always"
       xlink:href="#linearGradient858"
       id="linearGradient969"
       gradientUnits="userSpaceOnUse"
       gradientTransform="matrix(0.17924195,0,0,0.17924195,-6.6547509,42.963386)"
       x1="1111.2646"
       y1="307.68015"
       x2="1110.3062"
       y2="271.1217"
       spreadMethod="reflect" />
    <linearGradient
       inkscape:collect="always"
       xlink:href="#linearGradient866"
       id="linearGradient972"
       gradientUnits="userSpaceOnUse"
       x1="168.86974"
       y1="117.94637"
       x2="169.01233"
       y2="115.42942"
       spreadMethod="reflect" />
    <radialGradient
       inkscape:collect="always"
       xlink:href="#linearGradient901"
       id="radialGradient974"
       gradientUnits="userSpaceOnUse"
       gradientTransform="matrix(1,0,0,1.918919,0,-88.116507)"
       cx="177.17055"
       cy="95.891479"
       fx="177.17055"
       fy="95.891479"
       r="1.4341085" />
    <linearGradient
       inkscape:collect="always"
       xlink:href="#linearGradient866"
       id="linearGradient976"
       gradientUnits="userSpaceOnUse"
       gradientTransform="matrix(0.17924195,0,0,0.17924195,-22.067358,41.544735)"
       x1="987.9668"
       y1="426.03641"
       x2="987.92401"
       y2="419.04425"
       spreadMethod="reflect" />
    <linearGradient
       inkscape:collect="always"
       xlink:href="#linearGradient971"
       id="linearGradient980"
       gradientUnits="userSpaceOnUse"
       gradientTransform="matrix(0.17924195,0,0,0.17924195,-21.750626,24.860205)"
       x1="449.85202"
       y1="563.13104"
       x2="466.22302"
       y2="631.16382" />
    <linearGradient
       inkscape:collect="always"
       xlink:href="#linearGradient866"
       id="linearGradient984"
       gradientUnits="userSpaceOnUse"
       gradientTransform="matrix(0.17924195,0,0,0.17924195,-22.126661,24.339791)"
       x1="1407.8116"
       y1="504.59503"
       x2="1403.2545"
       y2="483.38293"
       spreadMethod="reflect" />
    <filter
       inkscape:collect="always"
       style="color-interpolation-filters:sRGB"
       id="filter1227"
       x="-0.019903595"
       width="1.0398072"
       y="-0.030219557"
       height="1.0604391">
      <feGaussianBlur
         inkscape:collect="always"
         stdDeviation="2.1634637"
         id="feGaussianBlur1229" />
    </filter>
  </defs>
  <sodipodi:namedview
     pagecolor="#ff0000"
     bordercolor="#666666"
     borderopacity="1"
     objecttolerance="10"
     gridtolerance="10"
     guidetolerance="10"
     inkscape:pageopacity="0"
     inkscape:pageshadow="2"
     inkscape:window-width="1920"
     inkscape:window-height="1056"
     id="namedview4"
     showgrid="false"
     inkscape:snap-to-guides="false"
     inkscape:snap-grids="false"
     inkscape:snap-others="false"
     inkscape:object-nodes="false"
     inkscape:snap-nodes="false"
     inkscape:snap-global="false"
     inkscape:zoom="3.4901961"
     inkscape:cx="127.5"
     inkscape:cy="127.5"
     inkscape:window-x="0"
     inkscape:window-y="0"
     inkscape:window-maximized="1"
     inkscape:current-layer="svg2" />
  <path
     style="fill:#000000;fill-opacity:0.73544973;stroke:none;stroke-width:0.17924194px;stroke-linecap:butt;stroke-linejoin:miter;stroke-opacity:1;filter:url(#filter1227)"
     d="m 182.73923,42.194522 c -4.76048,-0.01042 -9.40397,1.251627 -8.33595,3.386719 l 4.76563,1.111328 -2.37305,0.123047 c 0.22745,-0.05519 0.45621,-0.0999 0.6836,-0.132813 l -8.95899,0.560547 c -12.4818,0.645212 -16.72556,9.194585 -24.56445,13.994141 8.60147,0.960669 16.31804,5.729884 25.5664,4.30664 -0.15804,3.514724 -0.48499,7.043152 -0.98242,10.589844 l -10.03711,2.730469 c 0.0103,0.02034 0.019,0.04212 0.0293,0.0625 -0.64444,-0.05842 -1.06506,0.773957 -1.27734,1.990234 l -7.72071,0.935547 c -0.11643,0.01412 -0.22216,0.0702 -0.32226,0.142578 a 1.4341085,2.7519381 0 0 0 -1.20118,1.609375 l -10.29296,1.273438 c -0.48184,0.05958 -0.79276,0.729799 -0.69727,1.501955 0.0955,0.77215 0.56113,1.34474 1.04297,1.28515 l 10.11523,-1.25 a 1.4341085,2.7519381 0 0 0 1.13672,1.07813 1.4341085,2.7519381 0 0 0 0.54688,-0.21094 c 0.11139,0.0435 0.22473,0.0684 0.33789,0.0547 l 7.28125,-0.88281 c 0.29294,1.2435 0.74541,2.2858 1.36523,2.74414 0.22801,0.1686 0.43486,0.21439 0.62305,0.16406 l 6.32617,0.65039 c -0.47055,1.85609 -0.98488,3.71885 -1.53711,5.58984 -1.00686,0.804 -2.04709,1.57078 -3.16601,2.25586 0.15012,0.0168 0.29766,0.0435 0.44726,0.0625 -1.9621,0.78326 -3.35029,1.732678 -3.58594,2.746099 l -1.53515,3.31054 -6.97852,0.93165 c -0.99173,0.13223 -1.81232,1.2622 -2.00976,2.65429 l -8.99805,1.11328 c -0.22774,0.0282 -0.37079,0.36543 -0.32227,0.75781 v 0.004 c 0.0485,0.39238 0.27031,0.68441 0.49805,0.65625 l 8.85938,-1.09375 c 0.24164,1.2406 1.02572,2.06962 1.97265,1.94336 l 3.99805,-0.5332 -0.9375,2.02539 -5.39258,0.71875 c -1.17421,0.15656 -2.14727,1.49426 -2.38086,3.14258 l -10.65039,1.3164 c -0.26961,0.0333 -0.44026,0.43392 -0.38281,0.89844 v 0.004 c 0.0574,0.46452 0.32023,0.81263 0.58984,0.77929 l 10.48633,-1.29687 c 0.28579,1.46937 1.21655,2.45224 2.33789,2.30273 l 1.86524,-0.24804 -1.27344,2.74609 -64.558596,7.59375 c -0.08911,-0.12028 -0.15898,-0.2419 -0.25586,-0.36133 l -15.76562,1.63086 c -10.8413,1.84655 -17.53669,6.43139 -31.43555,19.38477 -2.45517,1.92138 -5.02578,3.6501 -7.91797,4.95898 l -36.7714803,5.80273 33.5585903,-4.57617 c -0.21531,0.0678 -0.4255,0.1419 -0.64453,0.20508 16.61405,1.85556 31.21653,10.72411 49.69336,7.09961 l 16.61524,-3.25977 c 2.34842,1.94846 6.3998,3.01819 12.150386,1.85352 l 14.38086,-2.91211 c 4.76911,-0.9659 6.57835,-3.45795 8.58593,-5.83008 l 23.4375,-4.59765 10.84961,11.68945 -61.740226,7.26367 c -0.06726,-0.0886 -0.11601,-0.17944 -0.1875,-0.26758 l -15.76563,1.63282 c -10.62177,1.80916 -17.30129,6.29 -30.63671,18.65039 -3.34313,2.69814 -6.86335,5.07113 -11.0918,6.54882 l -39.1113303,6.17188 39.6679703,-5.41016 -0.0039,-0.0117 c 15.78212,2.30041 29.94075,10.29585 47.65821,6.82032 l 12.531246,-2.45899 c 2.33688,1.98623 6.41583,3.09052 12.22461,1.91406 l 14.3789,-2.91406 c 4.82793,-0.97781 6.62436,-3.51985 8.66211,-5.91797 l 43.22461,-8.47851 4.44922,2.99414 -2.24024,0.29883 c -1.31637,0.17551 -2.40652,1.67537 -2.66796,3.52343 l -11.9375,1.47461 c -0.30218,0.0374 -0.49212,0.48718 -0.42774,1.00782 v 0.004 c 0.0644,0.52064 0.35993,0.91042 0.66211,0.87305 l 11.75195,-1.45508 c 0.3198,1.64808 1.3618,2.74968 2.61914,2.58203 l 10.92188,-1.45703 c 0.3306,-0.0441 0.64276,-0.18337 0.93555,-0.3789 l 4.88672,3.28906 -1.75781,0.23437 c -1.31638,0.17552 -2.40848,1.67537 -2.66992,3.52344 l -11.93555,1.47461 c -0.30218,0.0374 -0.49408,0.48718 -0.42969,1.00781 l 0.002,0.004 c 0.0644,0.52063 0.35798,0.90846 0.66016,0.87109 l 11.75391,-1.45312 c 0.32014,1.64725 1.36218,2.74962 2.61914,2.58203 l 10.92187,-1.45703 c 0.21632,-0.0289 0.42345,-0.1013 0.625,-0.19727 l 12.93164,8.70313 c 0.0238,-0.0382 0.0584,-0.0752 0.084,-0.11329 3.45522,3.20059 23.79897,-1.40071 30.35547,-6.96484 0.11011,0.053 0.22572,0.10347 0.32226,0.16211 l -0.1914,-0.26953 c 0.002,-0.001 0.004,-0.002 0.006,-0.004 -0.003,-9.1e-4 -0.007,-10e-4 -0.01,-0.002 l -23.52149,-33.27734 c 3.89837,-2.31465 7.36665,-5.26478 9.75586,-8.94141 -0.006,0.0473 -0.009,0.10468 -0.0156,0.15039 l 10.14258,-0.0156 c 3.84033,-0.15056 1.45752,-8.25836 -0.64063,-7.55469 l -10.26367,3.45703 c 0.0327,0.0435 0.0535,0.0889 0.084,0.13281 -3.50957,-2.62088 -8.51979,-3.8862 -13.89453,-4.36133 l -3.41015,-26.24609 c 1.33085,-1.33645 2.52204,-2.7868 3.5,-4.38086 l 9.43945,-0.0137 c 3.84033,-0.15056 1.45753,-8.25641 -0.64062,-7.55274 l -10.26172,3.45704 c 0.17887,0.23824 0.31153,0.48473 0.42773,0.73046 -1.10725,-0.8221 -2.37412,-1.49765 -3.74219,-2.07031 l -3.14257,-24.195309 0.79687,-0.19531 c 2.2601,-0.5529 4.81953,-1.35135 7.23047,-2.50195 l 9.30859,2.16992 c 1.27133,1.32075 6.68453,-3.0166 8.51758,-3.47266 -0.90563,0.0757 -1.81544,0.14829 -2.70117,0.23438 1.08974,-0.17724 2.16359,-0.2844 3.04883,-0.3125 l -11.16602,-2.93946 c -0.26741,-0.0574 -0.54805,-0.10228 -0.82812,-0.14843 0.65965,-0.76017 1.23847,-1.58363 1.6914,-2.492193 -3.52302,-3.905456 -11.71647,-3.436617 -17.82031,-3.121094 l -19.63281,1.015626 c 0.22682,-0.05498 0.45293,-0.101945 0.67969,-0.134766 l -2.14649,0.134766 -2.94922,-22.695313 9.63086,-2.355469 c 2.26695,-0.554577 4.83659,-1.357427 7.25391,-2.513672 l 8.3457,1.947266 c 1.27088,1.321577 6.68636,-3.018518 8.51953,-3.474609 -0.91024,0.07609 -1.82494,0.151578 -2.71484,0.238281 1.09452,-0.178609 2.17153,-0.288181 3.06055,-0.316406 L 212.59862,51.3686 c 0.64295,-0.74776 1.20845,-1.554893 1.65234,-2.445312 -2.99594,-3.321168 -9.36151,-3.475084 -14.95507,-3.253907 0.009,-0.0023 0.0207,-0.0076 0.0293,-0.0098 -0.0543,0.0045 -0.10772,0.0092 -0.16211,0.01367 -0.93812,0.03815 -1.85992,0.0838 -2.73242,0.128906 l -0.49609,0.02539 c 0.91742,-0.131873 1.81108,-0.222236 2.5625,-0.246093 l -11.16602,-2.9375 c -1.40526,-0.301564 -3.00497,-0.445745 -4.59179,-0.449219 z m 13.41796,57.736327 c -0.0113,2.934421 -0.14589,5.877351 -0.40039,8.830081 l -1.09961,-8.46289 z m 49.35157,105.269531 c 1.84069,-0.0451 3.45201,0.0624 4.69336,0.34375 -2.16263,-0.38031 -4.86782,-0.3936 -7.75391,-0.13867 1.0616,-0.1026 2.0981,-0.1815 3.06055,-0.20508 z m -4.45118,0.34766 c -0.0792,0.009 -0.15887,0.0197 -0.23828,0.0293 0.08,-0.0102 0.15863,-0.0195 0.23828,-0.0293 z"
     id="path986"
     inkscape:connector-curvature="0" />
  <g
     id="g936"
     transform="translate(-24.934404,-14.868571)">
    <path
       style="fill:url(#linearGradient928);fill-opacity:1;stroke:none;stroke-width:0.17924194px;stroke-linecap:butt;stroke-linejoin:miter;stroke-opacity:1"
       d="m 199.91026,51.56874 c -1.42403,-2.846789 7.30785,-4.144651 12.92891,-2.938394 l 11.1659,2.938394 c -3.47097,0.110201 -9.8303,1.406571 -8.7553,3.576927 z"
       id="path920"
       inkscape:connector-curvature="0"
       sodipodi:nodetypes="ccccc" />
    <path
       style="fill:#acacac;fill-opacity:1;stroke:none;stroke-width:0.17924194px;stroke-linecap:butt;stroke-linejoin:miter;stroke-opacity:1"
       d="m 216.07655,54.680044 c 0.0895,-2.487077 4.5695,-2.683436 8.75526,-3.033325 -1.98585,0.494078 -8.18626,5.560777 -8.75526,3.033325 z"
       id="path922"
       inkscape:connector-curvature="0"
       sodipodi:nodetypes="ccc" />
  </g>
  <g
     transform="matrix(0.13508847,0,0,0.13508847,7.3423165,8.5037956)"
     id="g923">
    <rect
       transform="matrix(0.99122791,-0.13216368,0,1,0,0)"
       rx="15.367496"
       ry="22.341269"
       y="788.7149"
       x="1050.1124"
       height="44.682537"
       width="92.205017"
       id="rect917"
       style="opacity:1;fill:url(#linearGradient925);fill-opacity:1;stroke:none;stroke-width:1.7075057;stroke-linecap:round;stroke-linejoin:round;stroke-miterlimit:4;stroke-dasharray:none;stroke-dashoffset:0;stroke-opacity:1" />
    <ellipse
       ry="20.310253"
       rx="11.678396"
       cy="671.83203"
       cx="1053.8755"
       id="ellipse919"
       style="opacity:1;fill:url(#radialGradient911);fill-opacity:1;stroke:#000000;stroke-width:1.55188072;stroke-linecap:round;stroke-linejoin:round;stroke-miterlimit:4;stroke-dasharray:none;stroke-dashoffset:0;stroke-opacity:1" />
    <rect
       style="opacity:1;fill:url(#linearGradient927);fill-opacity:1;stroke:none;stroke-width:1.70000005;stroke-linecap:round;stroke-linejoin:round;stroke-miterlimit:4;stroke-dasharray:none;stroke-dashoffset:0;stroke-opacity:1"
       id="rect921"
       width="83.245483"
       height="10.5875"
       x="881.27814"
       y="790.289"
       transform="rotate(-7.0495803)"
       ry="5.2829704"
       rx="3.066242" />
  </g>
  <g
     id="g903"
     transform="matrix(0.1599248,0,0,0.1599248,-21.2211,0.65860963)">
    <rect
       transform="matrix(0.99122791,-0.13216368,0,1,0,0)"
       rx="15.367496"
       ry="22.341269"
       y="788.7149"
       x="1050.1124"
       height="44.682537"
       width="92.205017"
       id="rect884"
       style="opacity:1;fill:url(#linearGradient898);fill-opacity:1;stroke:none;stroke-width:1.7075057;stroke-linecap:round;stroke-linejoin:round;stroke-miterlimit:4;stroke-dasharray:none;stroke-dashoffset:0;stroke-opacity:1" />
    <ellipse
       ry="20.310253"
       rx="11.678396"
       cy="671.83203"
       cx="1053.8755"
       id="path886"
       style="opacity:1;fill:url(#radialGradient919);fill-opacity:1;stroke:#000000;stroke-width:1.55188072;stroke-linecap:round;stroke-linejoin:round;stroke-miterlimit:4;stroke-dasharray:none;stroke-dashoffset:0;stroke-opacity:1" />
    <rect
       style="opacity:1;fill:url(#linearGradient890);fill-opacity:1;stroke:none;stroke-width:1.70000005;stroke-linecap:round;stroke-linejoin:round;stroke-miterlimit:4;stroke-dasharray:none;stroke-dashoffset:0;stroke-opacity:1"
       id="rect888"
       width="83.245483"
       height="10.5875"
       x="881.27814"
       y="790.289"
       transform="rotate(-7.0495803)"
       ry="5.2829704"
       rx="3.066242" />
  </g>
  <path
     style="fill:url(#linearGradient957);fill-opacity:1;stroke:none;stroke-width:0.17924194px;stroke-linecap:butt;stroke-linejoin:miter;stroke-opacity:1"
     d="m 146.47907,117.78991 12.04742,-26.00477 c 0.90118,-3.87567 18.44784,-6.88261 21.89102,-2.79147 l 13.51661,25.4171 c -16.13787,3.46961 -32.44542,8.1835 -47.45505,3.37914 z"
     id="path949"
     inkscape:connector-curvature="0"
     sodipodi:nodetypes="ccccc" />
  <path
     sodipodi:nodetypes="csscssc"
     inkscape:connector-curvature="0"
     id="path900"
     d="m 24.48308,148.55702 c 16.423861,-4.73795 22.227418,-22.691 44.41348,-25.30113 l 123.7753,-14.5618 c 10.97474,-1.29115 25.84836,-1.41834 32.21797,5.64269 -4.95697,9.94344 -17.55277,15.19739 -27.30337,17.11012 l -123.411243,24.209 c -18.476825,3.6245 -33.078086,-5.24332 -49.692137,-7.09888 z"
     style="fill:url(#linearGradient906);fill-opacity:1;stroke:none;stroke-width:0.17924194px;stroke-linecap:butt;stroke-linejoin:miter;stroke-opacity:1" />
  <path
     sodipodi:nodetypes="csscssc"
     inkscape:connector-curvature="0"
     id="path902"
     d="m 90.381961,152.06601 c 2.14878,-4.9169 5.0703,-8.62102 10.557299,-9.46517 l 11.83146,-1.82023 c 7.88529,-1.21312 10.08871,1.92646 13.28765,4.55057 -2.06933,2.42376 -3.84978,5.0169 -8.73709,6.00674 l -14.37977,2.91235 c -6.078909,1.23117 -10.285659,-0.0217 -12.559549,-2.18426 z"
     style="fill:url(#linearGradient908);fill-opacity:1;stroke:none;stroke-width:0.17924194px;stroke-linecap:butt;stroke-linejoin:miter;stroke-opacity:1" />
  <path
     sodipodi:nodetypes="ssssccs"
     inkscape:connector-curvature="0"
     id="path930"
     d="m 154.38011,113.94671 c -0.62894,1.35538 -2.27071,2.04201 3.64045,3.27641 12.31685,2.57206 24.63371,-0.0562 36.95056,-4.73258 1.41712,-0.53805 2.97425,-0.44914 2.54832,-3.45843 l -8.37304,-64.446409 -18.93034,6.38124 c 0.1847,20.280649 -5.58562,40.890452 -15.83595,62.979769 z"
     style="fill:url(#radialGradient932);fill-opacity:1;stroke:none;stroke-width:0.17924194px;stroke-linecap:butt;stroke-linejoin:miter;stroke-opacity:1" />
  <path
     sodipodi:nodetypes="ccccc"
     inkscape:connector-curvature="0"
     id="path904"
     d="m 83.05358,129.81191 -4.952381,4.7619 140.032191,-21.38296 -3.04762,-2.09524 z"
     style="fill:#ffffff;fill-opacity:0.39784947;stroke:none;stroke-width:1px;stroke-linecap:butt;stroke-linejoin:miter;stroke-opacity:1" />
  <path
     sodipodi:nodetypes="sssccss"
     inkscape:connector-curvature="0"
     id="path912"
     d="m 148.22291,131.38124 c 14.20985,-4.08972 28.62634,-6.5263 43.32134,-6.73483 3.70697,-0.0526 6.13161,-0.43416 8.55506,3.45843 l 15.65284,25.14188 c -4.85466,-2.94882 -47.19203,-1.07207 -50.71485,4.56942 l -18.45261,-19.8821 c -1.56774,-1.68919 -4.44316,-4.80253 1.63822,-6.5528 z"
     style="fill:url(#linearGradient914);fill-opacity:1;stroke:none;stroke-width:0.17924194px;stroke-linecap:butt;stroke-linejoin:miter;stroke-opacity:1" />
  <path
     style="fill:url(#linearGradient965);fill-opacity:1;stroke:none;stroke-width:0.17924194px;stroke-linecap:butt;stroke-linejoin:miter;stroke-opacity:1"
     d="m 39.292438,186.89935 c 16.423861,-4.73795 22.227418,-22.691 44.41348,-25.30113 l 123.775302,-14.5618 c 10.97474,-1.29115 25.84836,-1.41834 32.21797,5.64269 -4.95697,9.94344 -17.55277,15.19739 -27.30337,17.11012 l -123.411245,24.209 c -18.476825,3.6245 -33.078086,-5.24332 -49.692137,-7.09888 z"
     id="path817"
     inkscape:connector-curvature="0"
     sodipodi:nodetypes="csscssc" />
  <path
     style="fill:url(#linearGradient973);fill-opacity:1;stroke:none;stroke-width:0.17924194px;stroke-linecap:butt;stroke-linejoin:miter;stroke-opacity:1"
     d="m 50.759856,180.8926 40.226966,-7.09888 c 7.387537,-1.42139 12.025598,-8.34828 7.280904,-14.19775 l -15.765752,1.63169 c -10.925597,1.86091 -17.621287,6.47896 -31.742118,19.66494 z"
     id="path819"
     inkscape:connector-curvature="0"
     sodipodi:nodetypes="ccccc" />
  <path
     style="fill:url(#linearGradient981);fill-opacity:1;stroke:none;stroke-width:0.17924194px;stroke-linecap:butt;stroke-linejoin:miter;stroke-opacity:1"
     d="m 101.18008,191.26789 c 2.14878,-4.9169 5.0703,-8.62102 10.5573,-9.46517 l 11.83146,-1.82023 c 7.88529,-1.21312 10.08871,1.92646 13.28765,4.55057 -2.06933,2.42376 -3.84978,5.0169 -8.73709,6.00674 l -14.37977,2.91235 c -6.07891,1.23117 -10.28566,-0.0217 -12.55955,-2.18426 z"
     id="path821"
     inkscape:connector-curvature="0"
     sodipodi:nodetypes="csscssc" />
  <path
     style="fill:url(#radialGradient989);fill-opacity:1;stroke:none;stroke-width:0.17924194px;stroke-linecap:butt;stroke-linejoin:miter;stroke-opacity:1"
     d="m 221.67896,204.00946 c 3.7723,-5.0546 22.67877,-9.35485 30.57687,-7.00739 -6.46046,5.65568 -27.33059,10.37198 -30.57687,7.00739 z"
     id="path844"
     inkscape:connector-curvature="0"
     sodipodi:nodetypes="ccc" />
  <path
     style="fill:#ffffff;fill-opacity:0.39784947;stroke:none;stroke-width:1px;stroke-linecap:butt;stroke-linejoin:miter;stroke-opacity:1"
     d="m 101.01462,168.15424 -4.952378,4.7619 140.032188,-21.38296 -3.04762,-2.09524 z"
     id="path887"
     inkscape:connector-curvature="0"
     sodipodi:nodetypes="ccccc" />
  <path
     style="fill:url(#radialGradient876);fill-opacity:1;stroke:none;stroke-width:0.17924194px;stroke-linecap:butt;stroke-linejoin:miter;stroke-opacity:1"
     d="m 180.90593,152.67911 c -0.62894,1.35538 -2.27071,2.04201 3.64045,3.27641 12.31685,2.57206 24.63371,-0.0562 36.95056,-4.73258 1.41712,-0.53805 2.97425,-0.44914 2.54832,-3.45843 l -8.37304,-64.446415 -18.93034,6.38124 c 0.1847,20.280645 -5.58562,40.890455 -15.83595,62.979775 z"
     id="path852"
     inkscape:connector-curvature="0"
     sodipodi:nodetypes="ssssccs" />
  <g
     id="g911"
     transform="matrix(0.17924195,0,0,0.17924195,7.8976146,73.002772)">
    <rect
       style="opacity:1;fill:url(#linearGradient913);fill-opacity:1;stroke:none;stroke-width:1.7075057;stroke-linecap:round;stroke-linejoin:round;stroke-miterlimit:4;stroke-dasharray:none;stroke-dashoffset:0;stroke-opacity:1"
       id="rect905"
       width="92.205017"
       height="44.682537"
       x="1050.1124"
       y="788.7149"
       ry="22.341269"
       rx="15.367496"
       transform="matrix(0.99122791,-0.13216368,0,1,0,0)" />
    <ellipse
       style="opacity:1;fill:url(#radialGradient936);fill-opacity:1;stroke:#000000;stroke-width:1.55188072;stroke-linecap:round;stroke-linejoin:round;stroke-miterlimit:4;stroke-dasharray:none;stroke-dashoffset:0;stroke-opacity:1"
       id="ellipse907"
       cx="1053.8755"
       cy="671.83203"
       rx="11.678396"
       ry="20.310253" />
    <rect
       rx="3.066242"
       ry="5.2829704"
       transform="rotate(-7.0495803)"
       y="790.289"
       x="881.27814"
       height="10.5875"
       width="83.245483"
       id="rect909"
       style="opacity:1;fill:url(#linearGradient915);fill-opacity:1;stroke:none;stroke-width:1.70000005;stroke-linecap:round;stroke-linejoin:round;stroke-miterlimit:4;stroke-dasharray:none;stroke-dashoffset:0;stroke-opacity:1" />
  </g>
  <g
     id="g935"
     transform="matrix(0.17924195,0,0,0.17924195,-7.0881879,63.306078)">
    <rect
       style="opacity:1;fill:url(#linearGradient937);fill-opacity:1;stroke:none;stroke-width:1.7075057;stroke-linecap:round;stroke-linejoin:round;stroke-miterlimit:4;stroke-dasharray:none;stroke-dashoffset:0;stroke-opacity:1"
       id="rect929"
       width="92.205017"
       height="44.682537"
       x="1050.1124"
       y="788.7149"
       ry="22.341269"
       rx="15.367496"
       transform="matrix(0.99122791,-0.13216368,0,1,0,0)" />
    <ellipse
       style="opacity:1;fill:url(#radialGradient928);fill-opacity:1;stroke:#000000;stroke-width:1.55188072;stroke-linecap:round;stroke-linejoin:round;stroke-miterlimit:4;stroke-dasharray:none;stroke-dashoffset:0;stroke-opacity:1"
       id="ellipse931"
       cx="1053.8755"
       cy="671.83203"
       rx="11.678396"
       ry="20.310253" />
    <rect
       rx="3.066242"
       ry="5.2829704"
       transform="rotate(-7.0495803)"
       y="790.289"
       x="881.27814"
       height="10.5875"
       width="83.245483"
       id="rect933"
       style="opacity:1;fill:url(#linearGradient939);fill-opacity:1;stroke:none;stroke-width:1.70000005;stroke-linecap:round;stroke-linejoin:round;stroke-miterlimit:4;stroke-dasharray:none;stroke-dashoffset:0;stroke-opacity:1" />
  </g>
  <path
     style="fill:url(#linearGradient947);fill-opacity:1;stroke:none;stroke-width:0.17924194px;stroke-linecap:butt;stroke-linejoin:miter;stroke-opacity:1"
     d="m 175.99133,165.78474 c 14.20985,-4.08972 28.62634,-6.5263 43.32134,-6.73483 3.70697,-0.0526 5.90846,-0.28602 8.55506,3.45843 l 24.57303,34.76629 c -4.85466,-2.94882 -27.23898,1.27535 -30.7618,6.91684 l -47.32585,-31.85393 c -1.91187,-1.28683 -4.44316,-4.80253 1.63822,-6.5528 z"
     id="path842"
     inkscape:connector-curvature="0"
     sodipodi:nodetypes="sssccss" />
  <path
     sodipodi:nodetypes="csscssc"
     inkscape:connector-curvature="0"
     id="path991"
     d="m 161.66539,88.975725 c 7.83889,-4.799556 12.0833,-13.348831 24.5651,-13.994043 l 27.91024,-1.442741 c 6.10384,-0.315524 14.29672,-0.784483 17.81974,3.120973 -2.7417,5.499708 -9.76306,8.157627 -15.10147,9.463596 l -27.70889,6.778599 c -10.116,2.474741 -18.29549,-2.90007 -27.48472,-3.926384 z"
     style="fill:url(#linearGradient993);fill-opacity:1;stroke:#000000;stroke-width:0.09913865px;stroke-linecap:butt;stroke-linejoin:miter;stroke-opacity:1" />
  <path
     style="fill:url(#linearGradient997);fill-opacity:1;stroke:none;stroke-width:0.09913865px;stroke-linecap:butt;stroke-linejoin:miter;stroke-opacity:1"
     d="m 161.66539,88.975725 c 7.83889,-4.799556 12.09109,-13.212503 24.5651,-13.994043 l 8.9576,-0.561224 c -3.44974,0.499329 -7.15353,3.623105 -3.63051,7.528561 -9.78664,3.594043 -25.11816,7.428923 -29.89219,7.026706 z"
     id="path995"
     inkscape:connector-curvature="0"
     sodipodi:nodetypes="csccc" />
  <path
     style="fill:#c3c3c3;fill-opacity:1;stroke:none;stroke-width:0.17924194px;stroke-linecap:butt;stroke-linejoin:miter;stroke-opacity:1"
     d="M 41.006083,186.38977 1.6623454,192.59928 41.330351,187.18991 Z"
     id="path1011"
     inkscape:connector-curvature="0"
     sodipodi:nodetypes="cccc" />
  <path
     style="fill:url(#linearGradient1021);fill-opacity:1;stroke:none;stroke-width:0.17924194px;stroke-linecap:butt;stroke-linejoin:miter;stroke-opacity:1"
     d="m 237.70201,150.81884 10.26439,-3.45681 c 2.09815,-0.70367 4.48048,7.4032 0.64015,7.55376 l -10.14283,0.0155 c 0.16111,-1.10926 0.29642,-2.70503 -0.76171,-4.11248 z"
     id="path1013"
     inkscape:connector-curvature="0"
     sodipodi:nodetypes="ccccc" />
  <g
     id="g955"
     transform="translate(-0.28651685,20.342697)">
    <path
       sodipodi:nodetypes="ccccc"
       inkscape:connector-curvature="0"
       id="path846"
       d="m 186.35746,90.016165 11.03499,-3.003347 c 2.47949,2.167589 1.94351,11.363625 -3.27641,14.197752 l -7.09887,-0.72808 c 2.67492,-3.337085 1.02693,-7.129244 -0.65971,-10.466325 z"
       style="fill:url(#linearGradient860);fill-opacity:1;stroke:none;stroke-width:0.17924194px;stroke-linecap:butt;stroke-linejoin:miter;stroke-opacity:1" />
    <path
       sodipodi:nodetypes="sss"
       inkscape:connector-curvature="0"
       id="path848"
       d="m 186.53044,90.098588 c 2.80614,0.790239 2.54224,12.003982 0.17069,10.250272 -2.24528,-1.660306 -2.37675,-10.871528 -0.17069,-10.250272 z"
       style="fill:#6a6a6a;fill-opacity:1;stroke:#000000;stroke-width:0.17179441px;stroke-linecap:butt;stroke-linejoin:miter;stroke-opacity:1" />
    <rect
       transform="rotate(-6.9149018)"
       rx="1.3168008"
       ry="2.7619047"
       y="113.68465"
       x="163.58551"
       height="5.5238094"
       width="11.238095"
       id="rect885"
       style="opacity:1;fill:url(#linearGradient893);fill-opacity:1;stroke:none;stroke-width:1.70000005;stroke-linecap:round;stroke-linejoin:round;stroke-miterlimit:4;stroke-dasharray:none;stroke-dashoffset:0;stroke-opacity:1" />
    <ellipse
       ry="2.7519381"
       rx="1.4341085"
       cy="95.891479"
       cx="177.17055"
       id="path895"
       style="opacity:1;fill:url(#radialGradient903);fill-opacity:1;stroke:none;stroke-width:1.6116271;stroke-linecap:round;stroke-linejoin:round;stroke-miterlimit:4;stroke-dasharray:none;stroke-dashoffset:0;stroke-opacity:1" />
    <rect
       rx="0.87636739"
       ry="1.4043955"
       transform="rotate(-7.0495803)"
       y="115.62369"
       x="151.66002"
       height="2.8087909"
       width="13.253615"
       id="rect850"
       style="opacity:1;fill:url(#linearGradient868);fill-opacity:1;stroke:none;stroke-width:0.30471131;stroke-linecap:round;stroke-linejoin:round;stroke-miterlimit:4;stroke-dasharray:none;stroke-dashoffset:0;stroke-opacity:1" />
  </g>
  <path
     sodipodi:nodetypes="cccc"
     inkscape:connector-curvature="0"
     id="path910"
     d="m 30.912186,146.71841 -39.3437373,6.20951 39.6680053,-5.40937 z"
     style="fill:#c3c3c3;fill-opacity:1;stroke:none;stroke-width:0.17924194px;stroke-linecap:butt;stroke-linejoin:miter;stroke-opacity:1" />
  <path
     style="fill:url(#linearGradient924);fill-opacity:1;stroke:#000000;stroke-width:0.09913865px;stroke-linecap:butt;stroke-linejoin:miter;stroke-opacity:1"
     d="m 144.52924,52.356006 c 7.83889,-4.799556 12.0833,-13.348831 24.5651,-13.994043 l 27.91024,-1.442741 c 6.10384,-0.315524 14.29672,-0.784483 17.81974,3.120973 -2.7417,5.499708 -9.76306,8.157627 -15.10147,9.463596 l -27.70889,6.778599 c -10.116,2.474741 -18.29549,-2.90007 -27.48472,-3.926384 z"
     id="path916"
     inkscape:connector-curvature="0"
     sodipodi:nodetypes="csscssc" />
  <path
     sodipodi:nodetypes="csccc"
     inkscape:connector-curvature="0"
     id="path918"
     d="m 144.52924,52.356006 c 7.83889,-4.799556 12.09109,-13.212503 24.5651,-13.994043 l 8.9576,-0.561224 c -3.44974,0.499329 -7.15353,3.623105 -3.63051,7.528561 -9.78664,3.594043 -25.11816,7.428923 -29.89219,7.026706 z"
     style="fill:url(#linearGradient926);fill-opacity:1;stroke:none;stroke-width:0.09913865px;stroke-linecap:butt;stroke-linejoin:miter;stroke-opacity:1" />
  <g
     id="g940"
     transform="translate(-17.892151,-14.399088)">
    <path
       sodipodi:nodetypes="ccccc"
       inkscape:connector-curvature="0"
       id="path999"
       d="m 217.98538,59.784703 c -1.42403,-2.846789 7.30785,-4.144651 12.92891,-2.938394 l 11.1659,2.938394 c -3.47097,0.110201 -9.8303,1.406571 -8.7553,3.576927 z"
       style="fill:url(#linearGradient1007);fill-opacity:1;stroke:none;stroke-width:0.17924194px;stroke-linecap:butt;stroke-linejoin:miter;stroke-opacity:1" />
    <path
       sodipodi:nodetypes="ccc"
       inkscape:connector-curvature="0"
       id="path1009"
       d="m 232.97796,62.896007 c 0.0895,-2.487077 4.5695,-2.683436 8.75526,-3.033325 -1.98585,0.494078 -8.18626,5.560777 -8.75526,3.033325 z"
       style="fill:#acacac;fill-opacity:1;stroke:none;stroke-width:0.17924194px;stroke-linecap:butt;stroke-linejoin:miter;stroke-opacity:1" />
  </g>
  <g
     transform="translate(0.18296652,22.455372)"
     id="g946">
    <path
       style="fill:url(#linearGradient948);fill-opacity:1;stroke:none;stroke-width:0.17924194px;stroke-linecap:butt;stroke-linejoin:miter;stroke-opacity:1"
       d="m 217.98538,59.784703 c -1.42403,-2.846789 7.30785,-4.144651 12.92891,-2.938394 l 11.1659,2.938394 c -3.47097,0.110201 -9.8303,1.406571 -8.7553,3.576927 z"
       id="path942"
       inkscape:connector-curvature="0"
       sodipodi:nodetypes="ccccc" />
    <path
       style="fill:#acacac;fill-opacity:1;stroke:none;stroke-width:0.17924194px;stroke-linecap:butt;stroke-linejoin:miter;stroke-opacity:1"
       d="m 232.97796,62.896007 c 0.0895,-2.487077 4.5695,-2.683436 8.75526,-3.033325 -1.98585,0.494078 -8.18626,5.560777 -8.75526,3.033325 z"
       id="path944"
       inkscape:connector-curvature="0"
       sodipodi:nodetypes="ccc" />
  </g>
  <g
     id="g967"
     transform="translate(-27.281822,-20.03289)">
    <path
       style="fill:url(#linearGradient969);fill-opacity:1;stroke:none;stroke-width:0.17924194px;stroke-linecap:butt;stroke-linejoin:miter;stroke-opacity:1"
       d="m 186.35746,90.016165 11.03499,-3.003347 c 2.47949,2.167589 1.94351,11.363625 -3.27641,14.197752 l -7.09887,-0.72808 c 2.67492,-3.337085 1.02693,-7.129244 -0.65971,-10.466325 z"
       id="path957"
       inkscape:connector-curvature="0"
       sodipodi:nodetypes="ccccc" />
    <path
       style="fill:#6a6a6a;fill-opacity:1;stroke:#000000;stroke-width:0.17179441px;stroke-linecap:butt;stroke-linejoin:miter;stroke-opacity:1"
       d="m 186.53044,90.098588 c 2.80614,0.790239 2.54224,12.003982 0.17069,10.250272 -2.24528,-1.660306 -2.37675,-10.871528 -0.17069,-10.250272 z"
       id="path959"
       inkscape:connector-curvature="0"
       sodipodi:nodetypes="sss" />
    <rect
       style="opacity:1;fill:url(#linearGradient972);fill-opacity:1;stroke:none;stroke-width:1.70000005;stroke-linecap:round;stroke-linejoin:round;stroke-miterlimit:4;stroke-dasharray:none;stroke-dashoffset:0;stroke-opacity:1"
       id="rect961"
       width="11.238095"
       height="5.5238094"
       x="163.58551"
       y="113.68465"
       ry="2.7619047"
       rx="1.3168008"
       transform="rotate(-6.9149018)" />
    <ellipse
       style="opacity:1;fill:url(#radialGradient974);fill-opacity:1;stroke:none;stroke-width:1.6116271;stroke-linecap:round;stroke-linejoin:round;stroke-miterlimit:4;stroke-dasharray:none;stroke-dashoffset:0;stroke-opacity:1"
       id="ellipse963"
       cx="177.17055"
       cy="95.891479"
       rx="1.4341085"
       ry="2.7519381" />
    <rect
       style="opacity:1;fill:url(#linearGradient976);fill-opacity:1;stroke:none;stroke-width:0.30471131;stroke-linecap:round;stroke-linejoin:round;stroke-miterlimit:4;stroke-dasharray:none;stroke-dashoffset:0;stroke-opacity:1"
       id="rect965"
       width="13.253615"
       height="2.8087909"
       x="151.66002"
       y="115.62369"
       transform="rotate(-7.0495803)"
       ry="1.4043955"
       rx="0.87636739" />
  </g>
  <path
     sodipodi:nodetypes="ccccc"
     inkscape:connector-curvature="0"
     id="path978"
     d="m 35.950498,142.44673 40.226966,-7.09888 c 7.387537,-1.42139 12.025601,-8.34828 7.280904,-14.19775 l -15.765752,1.63169 c -10.925597,1.86091 -17.621287,6.47896 -31.742118,19.66494 z"
     style="fill:url(#linearGradient980);fill-opacity:1;stroke:none;stroke-width:0.17924194px;stroke-linecap:butt;stroke-linejoin:miter;stroke-opacity:1" />
  <path
     sodipodi:nodetypes="ccccc"
     inkscape:connector-curvature="0"
     id="path982"
     d="m 222.51662,111.85254 10.26439,-3.45681 c 2.09815,-0.70367 4.48048,7.4032 0.64015,7.55376 l -10.14283,0.0155 c 0.16111,-1.10926 0.29642,-2.70503 -0.76171,-4.11248 z"
     style="fill:url(#linearGradient984);fill-opacity:1;stroke:none;stroke-width:0.17924194px;stroke-linecap:butt;stroke-linejoin:miter;stroke-opacity:1" />
</svg>
