<?xml version="1.0" encoding="UTF-8" standalone="no"?>
<!-- Created with Inkscape (http://www.inkscape.org/) -->
<svg xmlns:dc="http://purl.org/dc/elements/1.1/" xmlns:cc="http://creativecommons.org/ns#" xmlns:rdf="http://www.w3.org/1999/02/22-rdf-syntax-ns#" xmlns:svg="http://www.w3.org/2000/svg" xmlns="http://www.w3.org/2000/svg" xmlns:xlink="http://www.w3.org/1999/xlink" xmlns:sodipodi="http://sodipodi.sourceforge.net/DTD/sodipodi-0.dtd" xmlns:inkscape="http://www.inkscape.org/namespaces/inkscape" width="255" height="255" viewBox="0 0 67.468748 67.468752" version="1.1" id="svg8" inkscape:version="0.92.5 (2060ec1f9f, 2020-04-08)" sodipodi:docname="gnome-chess.svg">
 <defs id="defs2">
  <linearGradient inkscape:collect="always" id="linearGradient929">
   <stop id="stop924" stop-color="#ffffff" stop-opacity="1"/>
   <stop offset="1" id="stop926" stop-color="#ffffff" stop-opacity="0"/>
  </linearGradient>
  <linearGradient inkscape:collect="always" id="linearGradient923">
   <stop id="stop917" stop-color="#7d7d7d" stop-opacity="1"/>
   <stop id="stop919" offset="0.765" stop-color="#b4b4b4" stop-opacity="1"/>
   <stop offset="1" id="stop921" stop-color="#ffffff" stop-opacity="1"/>
  </linearGradient>
  <linearGradient id="linearGradient1308" inkscape:collect="always">
   <stop stop-opacity="1" stop-color="#7d7d7d" id="stop930"/>
   <stop stop-opacity="1" stop-color="#b4b4b4" offset="0.562" id="stop932"/>
   <stop stop-opacity="1" stop-color="#ffffff" id="stop934" offset="1"/>
  </linearGradient>
  <linearGradient inkscape:collect="always" id="linearGradient1402-6">
   <stop stop-opacity="1" stop-color="#ffffff" id="stop923"/>
   <stop stop-opacity="1" stop-color="#e0e0e0" id="stop925" offset="0.276"/>
   <stop stop-opacity="0.973" stop-color="#707070" offset="1" id="stop927"/>
  </linearGradient>
  <linearGradient id="linearGradient1330" inkscape:collect="always">
   <stop stop-opacity="1" stop-color="#ffffff" id="stop909"/>
   <stop stop-opacity="1" stop-color="#bababa" offset="0.556" id="stop911"/>
   <stop stop-opacity="0.973" stop-color="#626262" id="stop913" offset="1"/>
  </linearGradient>
  <linearGradient inkscape:collect="always" id="linearGradient1308-5">
   <stop id="stop1304" stop-color="#000000" stop-opacity="1"/>
   <stop id="stop1312" offset="0.562" stop-color="#000000" stop-opacity="1"/>
   <stop offset="1" id="stop1306" stop-color="#767676" stop-opacity="1"/>
  </linearGradient>
  <linearGradient id="linearGradient1302" inkscape:collect="always">
   <stop id="stop1296" stop-color="#4c4c4c" stop-opacity="1"/>
   <stop offset="0.268" id="stop1298" stop-color="#343434" stop-opacity="1"/>
   <stop id="stop1300" offset="1" stop-color="#000000" stop-opacity="0.974"/>
  </linearGradient>
  <linearGradient inkscape:collect="always" id="linearGradient1274">
   <stop id="stop1270" stop-color="#6d6d6d" stop-opacity="1"/>
   <stop id="stop1278" offset="0.552" stop-color="#616161" stop-opacity="1"/>
   <stop offset="1" id="stop1272" stop-color="#000000" stop-opacity="0.974"/>
  </linearGradient>
  <filter id="filter3174" color-interpolation-filters="sRGB">
   <feGaussianBlur id="feGaussianBlur3176"/>
  </filter>
  <clipPath id="clipPath3613">
   <rect id="rect3615" y="6" x="6" ry="6" rx="6" height="84" width="84" fill="#ffffff" fill-rule="nonzero" stroke="none" fill-opacity="1"/>
  </clipPath>
  <clipPath id="clipPath3884">
   <path id="path3886" inkscape:connector-curvature="0" d="m 35.727276,7.6818184 c -4.457182,0 -8.045454,3.5882726 -8.045454,8.0454546 l 0,48.272728 56.318182,0 0,-56.3181826 -48.272728,0 z m 48.272728,56.3181826 0,56.318179 48.272726,0 c 4.45718,0 8.04546,-3.58827 8.04546,-8.04545 l 0,-48.272729 -56.318186,0 z" fill="#ff00ff" fill-rule="nonzero" stroke="none" fill-opacity="1"/>
  </clipPath>
  <clipPath id="clipPath3903">
   <path id="path3905" inkscape:connector-curvature="0" d="m 140.31819,15.727274 c 0,-4.457182 -3.58828,-8.0454551 -8.04546,-8.0454551 l -48.272726,0 0,56.3181831 56.318186,0 0,-48.272728 z m -56.318186,48.272728 -56.318182,0 0,48.272728 c 0,4.45718 3.588272,8.04545 8.045454,8.04545 l 48.272728,0 0,-56.318178 z" fill="#ff00ff" fill-rule="nonzero" stroke="none" fill-opacity="1"/>
  </clipPath>
  <clipPath id="clipPath4029">
   <path id="path4031" inkscape:connector-curvature="0" d="m 55.840913,18.409091 c 3.702819,0 6.704545,3.001727 6.704545,6.704546 0,1.525136 -0.525089,2.896229 -1.382812,4.022727 l 1.131392,0 c 0.891436,0 1.59233,0.598046 1.59233,1.340909 0,0.742864 -0.700894,1.340909 -1.59233,1.340909 l -1.089489,0 c -5.363636,10.727273 5.363637,14.750001 5.363637,14.750001 1.340909,1.340909 4.022727,1.340909 4.022727,3.352272 l 0,2.681819 c 0,1.114295 -0.90514,1.881219 -2.011363,2.011363 -11.397728,1.340909 -14.079546,1.340909 -25.477274,0 -1.106051,-0.130122 -2.011363,-0.897068 -2.011363,-2.011363 l 0,-2.681819 c 0,-2.011363 2.681818,-2.011363 4.022727,-3.352272 0,0 10.727273,-4.022728 5.363636,-14.750001 l -1.089488,0 c -0.891437,0 -1.59233,-0.598045 -1.59233,-1.340909 0,-0.742863 0.700893,-1.340909 1.59233,-1.340909 l 1.131392,0 c -0.857723,-1.126498 -1.382813,-2.497591 -1.382813,-4.022727 0,-3.702819 3.001727,-6.704546 6.704546,-6.704546 z m 13.409091,30.84091 c -14.257778,2.595256 -26.818182,0 -26.818182,0 0,0 3.831605,2.029808 12.696733,2.053267 8.865128,0.02346 14.121449,-2.053267 14.121449,-2.053267 z m 45.590906,21.454546 0,2.681818 2.68182,0 0,4.022727 -2.68182,0 0,2.681818 c 1.48573,0 2.68182,0.710031 2.68182,1.59233 l 0,0.838068 c 0,0.355125 -0.2163,0.657581 -0.54474,0.921875 4.13476,0.794791 9.66097,2.480691 11.27201,6.034091 2.66209,5.871607 -2.97258,8.626998 -5.36363,13.409096 1.34091,1.3409 4.02273,1.3409 4.02273,3.35227 l 0,2.68182 c 0,1.11429 -0.90514,1.88122 -2.01137,2.01136 -11.39773,1.34091 -14.07954,1.34091 -25.477271,0 -1.106051,-0.13012 -2.011364,-0.89707 -2.011364,-2.01136 l 0,-2.68182 c 0,-2.01137 2.681815,-2.01137 4.022725,-3.35227 -2.391045,-4.782098 -8.025716,-7.537489 -5.363634,-13.409096 1.611049,-3.5534 7.137264,-5.2393 11.272014,-6.034091 -0.32844,-0.264294 -0.54474,-0.56675 -0.54474,-0.921875 l 0,-0.838068 c 0,-0.882299 1.19609,-1.59233 2.68182,-1.59233 l 0,-2.681818 -2.68182,0 0,-4.022727 2.68182,0 0,-2.681818 5.36363,0 z m 10.72728,34.863633 c -14.25778,2.59526 -26.818185,0 -26.818185,0 0,0 3.831605,2.02981 12.696735,2.05327 8.86513,0.0235 14.12145,-2.05327 14.12145,-2.05327 z" visibility="visible" fill="#ffffff" display="inline" overflow="visible" fill-rule="nonzero" stroke="none" fill-opacity="1" marker="none" enable-background="accumulate" color="#000000" stroke-width="1"/>
  </clipPath>
  <clipPath id="clipPath4038">
   <path id="path4040" inkscape:connector-curvature="0" d="m 125.56819,18.409092 0,2.681818 0,5.363636 c -10.72728,5.363637 -2.68182,20.113637 -2.68182,20.113637 1.34091,1.340909 4.02273,1.340909 4.02273,3.352273 l 0,2.681818 c 0,1.114296 -0.90514,1.881219 -2.01137,2.011364 -11.39773,1.340909 -14.07954,1.340909 -25.477271,0 -1.106051,-0.130122 -2.011364,-0.897068 -2.011364,-2.011364 l 0,-2.681818 c 0,-2.011364 2.681815,-2.011364 4.022725,-3.352273 0,0 8.04546,-14.75 -2.681815,-20.113637 l 0,-5.363636 0,-2.681818 5.363635,0 0,2.681818 5.36364,0 0,-2.681818 5.36363,0 0,2.681818 5.36364,0 0,-2.681818 5.36364,0 z m 0,30.840909 c -14.25778,2.595256 -26.818185,0 -26.818185,0 0,0 3.831605,2.029808 12.696735,2.053267 8.86513,0.02346 14.12145,-2.053267 14.12145,-2.053267 z M 55.840913,69.363638 c 1.481127,0 2.681818,1.200692 2.681818,2.681818 0,1.295986 -0.915015,2.389845 -2.137074,2.639915 l 2.137074,16.132813 5.740767,-14.917614 c -1.007519,-0.385879 -1.71804,-1.370959 -1.71804,-2.514205 0,-1.481126 1.200692,-2.681818 2.681819,-2.681818 1.481126,0 2.681818,1.200692 2.681818,2.681818 0,1.481127 -1.200692,2.681819 -2.681818,2.681819 -0.07079,0 -0.140109,0.0054 -0.209517,0 l -1.131392,16.090909 c 0,0 3.060397,-5.585993 7.668324,-11.355824 -0.588948,-0.491943 -0.963779,-1.225879 -0.963779,-2.053267 0,-1.481127 1.200692,-2.681818 2.681818,-2.681818 1.481127,0 2.681819,1.200691 2.681819,2.681818 0,1.481126 -1.200692,2.681818 -2.681819,2.681818 -0.390329,0 -0.754956,-0.10148 -1.089488,-0.25142 -3.56432,8.414215 -4.274148,15.00142 -4.274148,15.00142 -4.027026,2.013513 -1.340909,6.70455 -1.340909,6.70455 1.340909,1.3409 4.022727,1.3409 4.022727,3.35227 l 0,2.68182 c 0,1.11429 -0.90514,1.88122 -2.011363,2.01136 -11.397728,1.34091 -14.079546,1.34091 -25.477274,0 -1.106051,-0.13012 -2.011363,-0.89707 -2.011363,-2.01136 l 0,-2.68182 c 0,-2.01137 2.681818,-2.01137 4.022727,-3.35227 0,0 2.686117,-4.691037 -1.340909,-6.70455 0,0 -0.709828,-6.587205 -4.274148,-15.00142 -0.334533,0.149935 -0.699159,0.25142 -1.089489,0.25142 -1.481126,0 -2.681818,-1.200692 -2.681818,-2.681818 0,-1.481127 1.200692,-2.681818 2.681818,-2.681818 1.481127,0 2.681819,1.200691 2.681819,2.681818 0,0.827388 -0.374831,1.561324 -0.963779,2.053267 4.607927,5.769831 7.668324,11.355824 7.668324,11.355824 L 46.664066,76.068184 c -0.0694,0.0054 -0.138728,0 -0.209517,0 -1.481126,0 -2.681818,-1.200692 -2.681818,-2.681819 0,-1.481126 1.200692,-2.681818 2.681818,-2.681818 1.481127,0 2.681818,1.200692 2.681818,2.681818 0,1.143246 -0.710521,2.128326 -1.718039,2.514205 l 5.740767,14.917614 2.137074,-16.132813 c -1.222059,-0.25007 -2.137074,-1.343929 -2.137074,-2.639915 0,-1.481126 1.200691,-2.681818 2.681818,-2.681818 z m 13.409091,36.204542 c -14.257778,2.59526 -26.818182,0 -26.818182,0 0,0 3.831605,2.02981 12.696733,2.05327 8.865128,0.0235 14.121449,-2.05327 14.121449,-2.05327 z" fill="#ff00ff" stroke="none" fill-opacity="1"/>
  </clipPath>
  <clipPath id="clipPath3613-7">
   <rect id="rect3615-9" y="6" x="6" ry="6" rx="6" height="84" width="84" fill="#ffffff" fill-rule="nonzero" stroke="none" fill-opacity="1"/>
  </clipPath>
  <clipPath id="clipPath4194-1-2-5">
   <rect id="rect4196-1-6-2" y="6" x="6" ry="6" rx="6" height="84" width="84" fill="#ff00ff" fill-rule="nonzero" stroke="none" fill-opacity="1"/>
  </clipPath>
  <clipPath id="clipPath4156-4" clipPathUnits="userSpaceOnUse">
   <path inkscape:connector-curvature="0" id="path4158-0" d="m 27.046336,-55.695463 -14.21366,13.321486 0.06127,0 15.653407,21.770763 10.231384,-10.546177 C 38.561832,-32.30156 27.468089,-54.819245 27.046336,-55.695463 z M 9.6468554,-39.382809 -5.2407289,-25.32124 15.987863,-7.8059573 26.372412,-18.382966 9.6468554,-39.382809 z m 31.4906096,12.951445 -9.741259,9.713584 8.944804,12.4580526 7.780753,-7.5550056 -6.984298,-14.616631 z m -49.8397109,4.378822 -13.7541661,12.9822847 26.2830181,13.84571 0.06127,-0.0617 -0.122531,-0.0617 L 13.598503,-5.4007374 -8.7022409,-22.052595 z m 38.0154159,7.400825 -9.802525,9.7752596 11.579232,9.5594001 7.62759,-7.40083 -8.669108,-11.0087257 -0.735189,-0.925104 z m 20.187073,5.6739697 -7.382526,7.2158 6.187844,8.54179 5.820249,-6.13651996 -4.625567,-9.62107004 z m -32.195166,6.32154 -9.5574606,9.49772 13.6622686,7.1849703 7.933918,-7.6783603 -12.038726,-9.00433 z m 23.311629,2.37443004 -7.10683,6.93826996 8.362778,6.9074403 5.360756,-5.6739699 -0.06127,-0.0925 -0.0919,0.12335 -6.463539,-8.20258036 z m -8.730374,8.54178036 -7.505057,7.3391599 10.353916,5.45811 c 1.397496,-1.32103 5.67514,-6.12292 5.850882,-6.32154 L 31.886332,8.2600031 z" opacity="0.6" fill="#ffffff" stroke="none" fill-opacity="1"/>
  </clipPath>
  <clipPath id="clipPath3613-1">
   <rect width="84" height="84" rx="6" ry="6" x="6" y="6" id="rect3615-0" fill="#ffffff" fill-rule="nonzero" stroke="none" fill-opacity="1"/>
  </clipPath>
  <filter color-interpolation-filters="sRGB" id="filter3174-4">
   <feGaussianBlur id="feGaussianBlur3176-32"/>
  </filter>
  <radialGradient inkscape:collect="always" xlink:href="#linearGradient1274" id="radialGradient1276" cx="25.02" cy="247.99" fx="25.02" fy="247.99" r="3.78" gradientTransform="matrix(0.04114091,-3.4435729,2.8892158,0.03451795,-686.70736,326.55253)" gradientUnits="userSpaceOnUse"/>
  <radialGradient inkscape:collect="always" xlink:href="#linearGradient1274" id="radialGradient1286" cx="3.594" cy="247.12" fx="3.594" fy="247.12" r="3.78" gradientTransform="matrix(3.7460045,-0.07189846,0.07233849,3.7689308,-26.772559,-683.02775)" gradientUnits="userSpaceOnUse"/>
  <linearGradient inkscape:collect="always" xlink:href="#linearGradient1308-5" id="linearGradient1310" x1="15.964" y1="240.16" x2="23.84" y2="240.24" gradientUnits="userSpaceOnUse" spreadMethod="reflect" gradientTransform="matrix(1.1433842,0,0,1.1433842,0.45805855,-34.293424)"/>
  <linearGradient inkscape:collect="always" xlink:href="#linearGradient1302" id="linearGradient1314" x1="7.963" y1="255.64" x2="16.748" y2="255.64" gradientUnits="userSpaceOnUse" spreadMethod="reflect" gradientTransform="matrix(1.1433842,0,0,1.1433842,0.45805855,-34.293424)"/>
  <radialGradient inkscape:collect="always" xlink:href="#linearGradient1330" id="radialGradient1322" cx="52.15" cy="248.98" fx="52.15" fy="248.98" r="3.02" gradientTransform="matrix(1.9151893,-0.13520265,0.25907788,3.6699214,-109.79539,-657.26915)" gradientUnits="userSpaceOnUse"/>
  <radialGradient inkscape:collect="always" xlink:href="#linearGradient1330" id="radialGradient1338" cx="42.22" cy="248.82" fx="42.22" fy="248.82" r="3.02" gradientTransform="matrix(2.3533325,-0.11309566,0.17498212,3.6410878,-101.52377,-652.00677)" gradientUnits="userSpaceOnUse"/>
  <linearGradient inkscape:collect="always" xlink:href="#linearGradient1402-6" id="linearGradient1346" x1="43.498" y1="244.02" x2="48.42" y2="243.94" gradientUnits="userSpaceOnUse" spreadMethod="reflect" gradientTransform="matrix(1.2372473,0,0,1.2372473,-10.866027,-58.601206)"/>
  <radialGradient inkscape:collect="always" xlink:href="#linearGradient923" id="radialGradient1354" cx="48.03" cy="240.99" fx="48.03" fy="240.99" r="3.78" gradientTransform="matrix(1.2372473,0,0,1.2372473,-10.866027,-58.601212)" gradientUnits="userSpaceOnUse"/>
  <linearGradient inkscape:collect="always" xlink:href="#linearGradient1330" id="linearGradient1370" x1="39.717" y1="255.64" x2="48.35" y2="255.72" gradientUnits="userSpaceOnUse" spreadMethod="reflect" gradientTransform="matrix(1.2372473,0,0,1.2372473,-10.866027,-58.601206)"/>
  <radialGradient inkscape:collect="always" xlink:href="#linearGradient1330" id="radialGradient1378" cx="22.692" cy="277.91" fx="22.692" fy="277.91" r="4.733" gradientTransform="matrix(2.142099,-0.0444826,0.04920165,2.3693501,-37.165473,-378.99194)" gradientUnits="userSpaceOnUse" spreadMethod="reflect"/>
  <radialGradient inkscape:collect="always" xlink:href="#linearGradient1330" id="radialGradient1386" cx="9.977" cy="278.31" fx="9.977" fy="278.31" r="4.733" gradientTransform="matrix(1.8921693,0.08920085,-0.12245194,2.5975071,26.217301,-446.01546)" gradientUnits="userSpaceOnUse"/>
  <linearGradient inkscape:collect="always" xlink:href="#linearGradient1402-6" id="linearGradient1394" x1="7.963" y1="287.4" x2="16.597" y2="287.7" gradientUnits="userSpaceOnUse" spreadMethod="reflect" gradientTransform="matrix(1.1794434,0,0,1.1794434,-1.0421251,-49.646934)"/>
  <radialGradient inkscape:collect="always" xlink:href="#linearGradient1308" id="radialGradient1410" cx="16.357" cy="274.99" fx="16.357" fy="274.99" r="3.02" gradientTransform="matrix(1.4731676,-0.11136901,0.08684625,1.1487855,-29.583196,-40.338633)" gradientUnits="userSpaceOnUse"/>
  <linearGradient inkscape:collect="always" xlink:href="#linearGradient1302" id="linearGradient920" x1="41.33" y1="276.84" x2="49.585" y2="276.92" gradientUnits="userSpaceOnUse" gradientTransform="matrix(0.96616754,0,0,0.96616754,1.1401199,8.9107918)"/>
  <linearGradient inkscape:collect="always" xlink:href="#linearGradient1308-5" id="linearGradient928" x1="49.585" y1="276.92" x2="58.749" y2="276.92" gradientUnits="userSpaceOnUse" gradientTransform="matrix(0.96616754,0,0,0.96616754,1.1401199,8.9107918)"/>
  <linearGradient inkscape:collect="always" xlink:href="#linearGradient1302" id="linearGradient937" x1="40.745" y1="289.27" x2="49.44" y2="288.67" gradientUnits="userSpaceOnUse" spreadMethod="reflect" gradientTransform="matrix(0.96616754,0,0,0.96616754,1.1401199,8.9107918)"/>
  <radialGradient inkscape:collect="always" xlink:href="#linearGradient1308-5" id="radialGradient945" cx="55.21" cy="268.88" fx="55.21" fy="268.88" r="1.607" gradientTransform="matrix(0.96616754,0,0,0.96675787,1.1401199,8.7520623)" gradientUnits="userSpaceOnUse"/>
  <radialGradient inkscape:collect="always" xlink:href="#linearGradient1308-5" id="radialGradient953" cx="60.03" cy="272.1" fx="60.03" fy="272.1" r="1.607" gradientTransform="matrix(0.96616754,0,0,0.96616754,1.1401199,8.9107807)" gradientUnits="userSpaceOnUse"/>
  <radialGradient inkscape:collect="always" xlink:href="#linearGradient1308-5" id="radialGradient961" cx="49.585" cy="268.08" fx="49.585" fy="268.08" r="1.607" gradientTransform="matrix(0.96616754,0,0,0.96616754,1.1401199,8.9107809)" gradientUnits="userSpaceOnUse"/>
  <radialGradient inkscape:collect="always" xlink:href="#linearGradient1308-5" id="radialGradient969" cx="43.96" cy="268.88" fx="43.96" fy="268.88" r="1.607" gradientTransform="matrix(0.96616754,0,0,0.96616754,1.1401199,8.9107809)" gradientUnits="userSpaceOnUse"/>
  <radialGradient inkscape:collect="always" xlink:href="#linearGradient1308-5" id="radialGradient977" cx="39.14" cy="272.1" fx="39.14" fy="272.1" r="1.607" gradientTransform="matrix(0.96616754,0,0,0.96675787,1.1401199,8.7501648)" gradientUnits="userSpaceOnUse"/>
  <linearGradient inkscape:collect="always" xlink:href="#linearGradient929" id="linearGradient931" x1="6.717" y1="229.86" x2="21.286" y2="263.97" gradientUnits="userSpaceOnUse" gradientTransform="matrix(0.96616754,0,0,0.96616754,1.1401199,8.9107918)"/>
  <filter inkscape:collect="always" id="filter936" x="-0.024" width="1.048" y="-0.024" height="1.048" color-interpolation-filters="sRGB">
   <feGaussianBlur inkscape:collect="always" stdDeviation="0.6468" id="feGaussianBlur938"/>
  </filter>
 </defs>
 <sodipodi:namedview id="base" pagecolor="#000eff" bordercolor="#666666" borderopacity="1.0" inkscape:pageopacity="0" inkscape:pageshadow="2" inkscape:zoom="2.66" inkscape:cx="127.5" inkscape:cy="127.5" inkscape:document-units="mm" inkscape:current-layer="layer1" showgrid="false" units="px" inkscape:snap-to-guides="false" inkscape:snap-grids="false" inkscape:snap-others="false" inkscape:object-nodes="false" inkscape:snap-nodes="false" inkscape:snap-global="false" inkscape:window-width="1920" inkscape:window-height="1056" inkscape:window-x="0" inkscape:window-y="0" inkscape:window-maximized="1"/>
 <metadata id="metadata5">
  <rdf:RDF>
   <cc:Work>
    <dc:format>image/svg+xml</dc:format>
    <dc:type rdf:resource="http://purl.org/dc/dcmitype/StillImage"/>
    <dc:title/>
   </cc:Work>
  </rdf:RDF>
 </metadata>
 <g inkscape:label="Layer 1" inkscape:groupmode="layer" id="layer1" transform="translate(0,-229.53123)">
  <rect rx="4.679" ry="4.679" stroke-miterlimit="4" y="232.01" x="1.229" height="64.68" width="64.68" id="rect933" transform="matrix(0.97747306,0,0,0.97747306,1.2038009,5.4080176)" opacity="1" stroke-dasharray="none" stroke-opacity="0.082" paint-order="normal" fill="#000000" filter="url(#filter936)" fill-rule="evenodd" stroke="none" stroke-linejoin="round" fill-opacity="1" stroke-linecap="round" stroke-width="0.5" stroke-dashoffset="0"/>
  <rect id="rect909" width="62.49" height="62.49" x="2.453" y="232.13" stroke-miterlimit="4" ry="4.521" rx="4.521" opacity="1" stroke-dasharray="none" stroke-opacity="0.082" paint-order="normal" fill="#9f6e1b" fill-rule="evenodd" stroke="none" stroke-linejoin="round" fill-opacity="1" stroke-linecap="round" stroke-width="0.483" stroke-dashoffset="0"/>
  <rect id="rect911" width="29.16" height="29.16" x="4.525" y="233.96" stroke-miterlimit="4" ry="2.698" rx="2.698" opacity="1" stroke-dasharray="none" stroke-opacity="0.082" paint-order="normal" fill="#f2deb6" fill-rule="evenodd" stroke="none" stroke-linejoin="round" fill-opacity="1" stroke-linecap="round" stroke-width="0.51" stroke-dashoffset="0"/>
  <rect y="264.01" x="34.541" height="29.16" width="29.16" id="rect913" stroke-miterlimit="4" ry="3.645" rx="3.645" opacity="1" stroke-dasharray="none" stroke-opacity="0.082" paint-order="normal" fill="#f8f2d8" fill-rule="evenodd" stroke="none" stroke-linejoin="round" fill-opacity="1" stroke-linecap="round" stroke-width="0.51" stroke-dashoffset="0"/>
  <path d="m 11.025186,286.31117 h 14.267542 c 0.89172,0.89173 2.675164,0.89173 2.675164,2.22931 v 1.78344 c 0,0.74102 -0.602046,1.25104 -1.337581,1.33758 -7.579632,0.89172 -9.363075,0.89172 -16.9427068,0 -0.7356523,-0.0866 -1.337582,-0.59656 -1.337582,-1.33758 v -1.78344 c 0,-1.33758 1.7834428,-1.33758 2.6751638,-2.22931 z" inkscape:connector-curvature="0" id="path3827" visibility="visible" display="inline" overflow="visible" marker="none" fill="url(#linearGradient1394)" fill-rule="nonzero" stroke="none" fill-opacity="1" enable-background="accumulate" color="#000000" stroke-width="0.892"/>
  <path d="m 18.158956,286.31117 v -13.37582 c 0,0 -8.9303385,0.55392 -10.7006552,4.45861 -1.7703164,3.90469 1.9768125,5.73706 3.5668852,8.91721 z" inkscape:connector-curvature="0" id="path3829" fill="url(#radialGradient1386)" stroke="none" fill-opacity="1" stroke-width="0.892"/>
  <path d="m 18.158956,286.31117 v -13.37582 c 0,0 8.93034,0.55392 10.700657,4.45861 1.770317,3.90469 -1.976812,5.73706 -3.566885,8.91721 z" inkscape:connector-curvature="0" id="path3831" fill="url(#radialGradient1378)" stroke="none" fill-opacity="1" stroke-width="0.892"/>
  <rect width="3.562" height="8.02" x="16.376" y="264.91" id="rect3835" visibility="visible" display="inline" overflow="visible" marker="none" fill="#b5b5b5" fill-rule="nonzero" stroke="none" fill-opacity="1" enable-background="accumulate" color="#000000" stroke-width="0.892"/>
  <rect width="2.675" height="7.136" x="266.69" y="-21.726" transform="rotate(90)" id="rect3837" visibility="visible" display="inline" overflow="visible" marker="none" fill="#b5b5b5" fill-rule="nonzero" stroke="none" fill-opacity="1" enable-background="accumulate" color="#000000" stroke-width="0.892"/>
  <path d="m 42.836264,285.77708 c 4.560175,-1.99193 8.63902,-1.69753 12.422469,0 0.776405,0.77641 2.329213,0.77641 2.329213,1.94102 v 1.5528 c 0,0.64519 -0.52419,1.08926 -1.164606,1.16461 -6.599437,0.7764 -8.152246,0.7764 -14.751683,0 -0.640518,-0.0754 -1.164607,-0.51942 -1.164607,-1.16461 v -1.5528 c 0,-1.16461 1.552808,-1.16461 2.329214,-1.94102 z" inkscape:connector-curvature="0" id="path3839" visibility="visible" display="inline" overflow="visible" marker="none" sodipodi:nodetypes="ccssccssc" fill="url(#linearGradient937)" fill-rule="nonzero" stroke="none" fill-opacity="1" enable-background="accumulate" color="#000000" stroke-width="0.777"/>
  <path d="m 49.047499,285.77708 v -18.6337 l 1.552808,11.64606 3.882022,-10.09325 -0.776404,10.86966 c 0,0 2.228738,-4.04789 5.43483,-7.76404 -2.623168,5.53778 -3.105617,10.09325 -3.105617,10.09325 -2.331706,1.16585 -0.776405,3.88202 -0.776405,3.88202 z" inkscape:connector-curvature="0" id="path3841" fill="url(#linearGradient928)" stroke="none" fill-opacity="1" stroke-width="0.777"/>
  <path d="m 49.047499,285.77708 v -18.6337 l -1.55281,11.64606 -3.882021,-10.09325 0.776405,10.86966 c 0,0 -2.22874,-4.04789 -5.434831,-7.76404 2.623167,5.53778 3.105616,10.09325 3.105616,10.09325 2.331706,1.16585 0.776406,3.88202 0.776406,3.88202 z" inkscape:connector-curvature="0" id="path3843" fill="url(#linearGradient920)" stroke="none" fill-opacity="1" stroke-width="0.777"/>
  <path d="m 50.600307,267.91978 a 1.552809,1.552809 0 1 1 -3.105618,0 1.552809,1.552809 0 1 1 3.105618,0 z" id="path3845" inkscape:connector-curvature="0" visibility="visible" display="inline" overflow="visible" marker="none" fill="url(#radialGradient961)" fill-rule="nonzero" stroke="none" fill-opacity="1" enable-background="accumulate" color="#000000" stroke-width="0.777"/>
  <path d="m 56.035138,268.69618 a 1.5528088,1.5528088 0 1 1 -3.105617,0 1.5528088,1.5528088 0 1 1 3.105617,0 z" id="path3847" inkscape:connector-curvature="0" visibility="visible" display="inline" overflow="visible" marker="none" fill="url(#radialGradient945)" fill-rule="nonzero" stroke="none" fill-opacity="1" enable-background="accumulate" color="#000000" stroke-width="0.777"/>
  <path d="m 60.693564,271.8018 a 1.552809,1.552809 0 1 1 -3.105618,0 1.552809,1.552809 0 1 1 3.105618,0 z" id="path3849" inkscape:connector-curvature="0" visibility="visible" display="inline" overflow="visible" marker="none" fill="url(#radialGradient953)" fill-rule="nonzero" stroke="none" fill-opacity="1" enable-background="accumulate" color="#000000" stroke-width="0.777"/>
  <path d="m 42.059858,268.69618 a 1.552809,1.552809 0 1 0 3.105618,0 1.552809,1.552809 0 1 0 -3.105618,0 z" id="path3851" inkscape:connector-curvature="0" visibility="visible" display="inline" overflow="visible" marker="none" fill="url(#radialGradient969)" fill-rule="nonzero" stroke="none" fill-opacity="1" enable-background="accumulate" color="#000000" stroke-width="0.777"/>
  <path d="m 37.401433,271.8018 a 1.5528088,1.5528088 0 1 0 3.105617,0 1.5528088,1.5528088 0 1 0 -3.105617,0 z" id="path3853" inkscape:connector-curvature="0" visibility="visible" display="inline" overflow="visible" marker="none" fill="url(#radialGradient977)" fill-rule="nonzero" stroke="none" fill-opacity="1" enable-background="accumulate" color="#000000" stroke-width="0.777"/>
  <path d="M 41.080512,254.53421 H 56.0473 c 0.935424,0.93544 2.806272,0.93544 2.806272,2.33856 v 1.87086 c 0,0.77734 -0.631552,1.31236 -1.403136,1.40314 -7.951106,0.93542 -9.821954,0.93542 -17.77306,0 -0.771706,-0.0908 -1.403136,-0.6258 -1.403136,-1.40314 v -1.87086 c 0,-1.40312 1.870848,-1.40312 2.806272,-2.33856 z" inkscape:connector-curvature="0" id="path3865" visibility="visible" display="inline" overflow="visible" marker="none" fill="url(#linearGradient1370)" fill-rule="nonzero" stroke="none" fill-opacity="1" enable-background="accumulate" color="#000000" stroke-width="0.935"/>
  <path d="m 53.241027,239.56744 a 4.677121,4.677121 0 1 1 -9.354242,0 4.677121,4.677121 0 1 1 9.354242,0 z" id="path3867" inkscape:connector-curvature="0" visibility="visible" display="inline" overflow="visible" marker="none" fill="url(#radialGradient1354)" fill-rule="nonzero" stroke="none" fill-opacity="1" enable-background="accumulate" color="#000000" stroke-width="0.935"/>
  <rect width="11.222" height="1.871" rx="1.122" x="42.956" y="242.38" id="rect3869" visibility="visible" display="inline" overflow="visible" marker="none" ry="0.935" fill="url(#linearGradient1346)" fill-rule="nonzero" stroke="none" fill-opacity="1" enable-background="accumulate" color="#000000" stroke-width="0.935"/>
  <path d="m 44.82221,244.24455 c 3.741697,7.48339 -3.741698,10.28966 -3.741698,10.28966 h 7.483395 v -10.28966 z" inkscape:connector-curvature="0" id="path3871" fill="url(#radialGradient1338)" stroke="none" fill-opacity="1" stroke-width="0.935"/>
  <path d="m 52.305602,244.24455 c -3.741695,7.48339 3.741698,10.28966 3.741698,10.28966 h -7.483393 v -10.28966 z" inkscape:connector-curvature="0" id="path3873" fill="url(#radialGradient1322)" stroke="none" fill-opacity="1" stroke-width="0.935"/>
  <path d="m 10.427518,242.11927 c 6.915669,3.45784 1.728918,12.96689 1.728918,12.96689 h 6.915669 v -12.96689 z" inkscape:connector-curvature="0" id="path3876" fill="url(#radialGradient1286)" stroke="none" fill-opacity="1" stroke-width="0.865"/>
  <path d="m 12.156436,255.08616 h 13.831339 c 0.864458,0.86447 2.593377,0.86447 2.593377,2.16114 v 1.72893 c 0,0.71836 -0.58364,1.21279 -1.296689,1.29668 -7.347899,0.86446 -9.076817,0.86446 -16.424716,0 -0.713161,-0.084 -1.2966876,-0.57832 -1.2966876,-1.29668 v -1.72893 c 0,-1.29667 1.7289176,-1.29667 2.5933766,-2.16114 z" inkscape:connector-curvature="0" id="path3878" visibility="visible" display="inline" overflow="visible" marker="none" fill="url(#linearGradient1314)" fill-rule="nonzero" stroke="none" fill-opacity="1" enable-background="accumulate" color="#000000" stroke-width="0.865"/>
  <rect width="3.453" height="1.728" x="10.427" y="236.93" id="rect3880" visibility="visible" display="inline" overflow="visible" marker="none" fill="#262626" fill-rule="nonzero" stroke="none" fill-opacity="1" enable-background="accumulate" color="#000000" stroke-width="0.865"/>
  <rect width="3.453" height="1.728" x="17.344" y="236.93" id="rect3882" visibility="visible" display="inline" overflow="visible" marker="none" fill="#000000" fill-rule="nonzero" stroke="none" fill-opacity="1" enable-background="accumulate" color="#000000" stroke-width="0.865"/>
  <rect width="3.453" height="1.728" x="24.26" y="236.93" id="rect3884" visibility="visible" display="inline" overflow="visible" marker="none" fill="#000000" fill-rule="nonzero" stroke="none" fill-opacity="1" enable-background="accumulate" color="#000000" stroke-width="0.865"/>
  <rect width="17.288" height="3.453" x="10.427" y="238.67" id="rect3886" visibility="visible" display="inline" overflow="visible" marker="none" fill="url(#linearGradient1310)" fill-rule="nonzero" stroke="none" fill-opacity="1" enable-background="accumulate" color="#000000" stroke-width="0.865"/>
  <path d="m 27.716692,242.11927 c -6.915669,3.45784 -1.728917,12.96689 -1.728917,12.96689 h -6.91567 v -12.96689 z" inkscape:connector-curvature="0" id="path3888" fill="url(#radialGradient1276)" stroke="none" fill-opacity="1" stroke-width="0.865"/>
  <g id="layer2-5" transform="matrix(0.75605267,0,0,0.75605267,-1.862101,226.63303)" display="none">
   <rect width="86" height="85" rx="6" ry="6" x="5" y="7" id="rect3745-0" opacity="0.9" fill="url(#linearGradient1958)" filter="url(#filter3174-4)" fill-rule="nonzero" stroke="none" fill-opacity="1"/>
  </g>
  <g id="layer2" transform="matrix(0.75605267,0,0,0.75605267,-1.862101,226.63303)" display="none">
   <rect width="86" height="85" rx="6" ry="6" x="5" y="7" id="rect3745" opacity="0.9" fill="url(#linearGradient1960)" filter="url(#filter3174)" fill-rule="nonzero" stroke="none" fill-opacity="1"/>
  </g>
  <rect width="7.136" height="2.675" rx="1.784" ry="1.059" x="14.593" y="271.15" id="rect3833" visibility="visible" display="inline" overflow="visible" marker="none" fill="url(#radialGradient1410)" fill-rule="nonzero" stroke="none" fill-opacity="1" enable-background="accumulate" color="#000000" stroke-width="0.892"/>
  <path d="M 6.9738394,232.13413 H 60.42416 c 2.504467,0 4.520698,2.01624 4.520698,4.5207 v 11.59704 C 38.883413,239.38105 20.285123,269.56331 2.4531416,260.50161 v -23.84678 c 0,-2.50446 2.0162312,-4.5207 4.5206978,-4.5207 z" id="rect921" inkscape:connector-curvature="0" sodipodi:nodetypes="sssccss" opacity="1" stroke-dasharray="none" stroke-opacity="0.082" paint-order="normal" fill="url(#linearGradient931)" fill-rule="evenodd" stroke="none" stroke-linejoin="round" fill-opacity="1" stroke-linecap="round" stroke-width="0.483" stroke-dashoffset="0" stroke-miterlimit="4"/>
 </g>
</svg>
