<?xml version="1.0" encoding="UTF-8" standalone="no"?>
<!-- Created with Inkscape (http://www.inkscape.org/) -->

<svg
   xmlns:dc="http://purl.org/dc/elements/1.1/"
   xmlns:cc="http://creativecommons.org/ns#"
   xmlns:rdf="http://www.w3.org/1999/02/22-rdf-syntax-ns#"
   xmlns:svg="http://www.w3.org/2000/svg"
   xmlns="http://www.w3.org/2000/svg"
   xmlns:xlink="http://www.w3.org/1999/xlink"
   xmlns:sodipodi="http://sodipodi.sourceforge.net/DTD/sodipodi-0.dtd"
   xmlns:inkscape="http://www.inkscape.org/namespaces/inkscape"
   width="256"
   height="256"
   id="svg2"
   sodipodi:version="0.32"
   inkscape:version="0.47 r22583"
   sodipodi:docname="applications-development.svg"
   inkscape:output_extension="org.inkscape.output.svg.inkscape"
   version="1.0"
   sodipodi:modified="true">
  <defs
     id="defs4">
    <linearGradient
       id="linearGradient16081">
      <stop
         style="stop-color:#0056ff;stop-opacity:1;"
         offset="0"
         id="stop16083" />
      <stop
         style="stop-color:#99c9f2;stop-opacity:1;"
         offset="1"
         id="stop16085" />
    </linearGradient>
    <linearGradient
       id="linearGradient12087">
      <stop
         style="stop-color:#ffffff;stop-opacity:1;"
         offset="0"
         id="stop12089" />
      <stop
         style="stop-color:#8b8b8b;stop-opacity:1;"
         offset="1"
         id="stop12091" />
    </linearGradient>
    <linearGradient
       id="linearGradient11110">
      <stop
         style="stop-color:#c3c3c3;stop-opacity:1;"
         offset="0"
         id="stop11112" />
      <stop
         style="stop-color:#3a3a3a;stop-opacity:1;"
         offset="1"
         id="stop11114" />
    </linearGradient>
    <linearGradient
       id="linearGradient8179">
      <stop
         style="stop-color:#f0f0f0;stop-opacity:1;"
         offset="0"
         id="stop8181" />
      <stop
         style="stop-color:#7e7e7e;stop-opacity:1;"
         offset="1"
         id="stop8183" />
    </linearGradient>
    <linearGradient
       id="linearGradient7194">
      <stop
         style="stop-color:#c0c0c0;stop-opacity:1;"
         offset="0"
         id="stop7196" />
      <stop
         id="stop7202"
         offset="0.5"
         style="stop-color:#ffffff;stop-opacity:1;" />
      <stop
         style="stop-color:#b6b8ae;stop-opacity:1;"
         offset="0.625"
         id="stop7208" />
      <stop
         style="stop-color:#ffffff;stop-opacity:1;"
         offset="0.75"
         id="stop7204" />
      <stop
         id="stop7206"
         offset="0.875"
         style="stop-color:#d0d0d0;stop-opacity:1;" />
      <stop
         style="stop-color:#c0c0c0;stop-opacity:1;"
         offset="1"
         id="stop7198" />
    </linearGradient>
    <linearGradient
       id="linearGradient7184">
      <stop
         style="stop-color:#000000;stop-opacity:1;"
         offset="0"
         id="stop7186" />
      <stop
         id="stop7192"
         offset="0.5"
         style="stop-color:#eaeaea;stop-opacity:1;" />
      <stop
         style="stop-color:#868686;stop-opacity:1;"
         offset="1"
         id="stop7188" />
    </linearGradient>
    <linearGradient
       id="linearGradient7174">
      <stop
         style="stop-color:#000000;stop-opacity:1;"
         offset="0"
         id="stop7176" />
      <stop
         id="stop7182"
         offset="0.5"
         style="stop-color:#3e3e3e;stop-opacity:1;" />
      <stop
         style="stop-color:#e5e5e5;stop-opacity:1;"
         offset="1"
         id="stop7178" />
    </linearGradient>
    <linearGradient
       id="linearGradient6188">
      <stop
         style="stop-color:#000000;stop-opacity:1;"
         offset="0"
         id="stop6190" />
      <stop
         style="stop-color:#868686;stop-opacity:1;"
         offset="1"
         id="stop6192" />
    </linearGradient>
    <linearGradient
       id="linearGradient6176">
      <stop
         style="stop-color:#b0b0b0;stop-opacity:1;"
         offset="0"
         id="stop6178" />
      <stop
         id="stop6184"
         offset="0.5"
         style="stop-color:#b6b6b6;stop-opacity:1;" />
      <stop
         style="stop-color:#ffffff;stop-opacity:1;"
         offset="0.75"
         id="stop6186" />
      <stop
         style="stop-color:#868686;stop-opacity:1;"
         offset="1"
         id="stop6180" />
    </linearGradient>
    <linearGradient
       id="linearGradient6166">
      <stop
         style="stop-color:#1f1f1f;stop-opacity:1;"
         offset="0"
         id="stop6168" />
      <stop
         id="stop6174"
         offset="0.5"
         style="stop-color:#bebebe;stop-opacity:1;" />
      <stop
         style="stop-color:#4c4c4c;stop-opacity:1;"
         offset="1"
         id="stop6170" />
    </linearGradient>
    <linearGradient
       id="linearGradient6152">
      <stop
         style="stop-color:#000000;stop-opacity:1;"
         offset="0"
         id="stop6154" />
      <stop
         id="stop6164"
         offset="0.25"
         style="stop-color:#414141;stop-opacity:1;" />
      <stop
         id="stop6160"
         offset="0.5"
         style="stop-color:#838383;stop-opacity:1;" />
      <stop
         style="stop-color:#ffffff;stop-opacity:1;"
         offset="0.75"
         id="stop6162" />
      <stop
         style="stop-color:#6c6c6c;stop-opacity:1;"
         offset="1"
         id="stop6156" />
    </linearGradient>
    <linearGradient
       inkscape:collect="always"
       xlink:href="#linearGradient12087"
       id="linearGradient2909"
       gradientUnits="userSpaceOnUse"
       gradientTransform="matrix(0.34691459,0,0,0.34691459,-6.3004977,-156.9776)"
       x1="298.31912"
       y1="403.6033"
       x2="367.79559"
       y2="403.6033" />
    <linearGradient
       inkscape:collect="always"
       xlink:href="#linearGradient11110"
       id="linearGradient2913"
       gradientUnits="userSpaceOnUse"
       gradientTransform="matrix(0.34691459,0,0,0.34691459,-6.3004977,-156.9776)"
       x1="284.3595"
       y1="408.97238"
       x2="367.79559"
       y2="408.97238" />
    <linearGradient
       inkscape:collect="always"
       xlink:href="#linearGradient7194"
       id="linearGradient2916"
       gradientUnits="userSpaceOnUse"
       gradientTransform="matrix(0.34691459,0,0,0.34691459,-6.300511,-156.97761)"
       x1="674.76862"
       y1="314.50623"
       x2="72.927589"
       y2="420.27438" />
    <linearGradient
       inkscape:collect="always"
       xlink:href="#linearGradient6176"
       id="linearGradient2920"
       gradientUnits="userSpaceOnUse"
       gradientTransform="matrix(0.34691459,0,0,0.34691459,131.59667,85.813632)"
       x1="-458.96927"
       y1="-219.29771"
       x2="-545.33282"
       y2="-215.75674" />
    <linearGradient
       inkscape:collect="always"
       xlink:href="#linearGradient8179"
       id="linearGradient2923"
       gradientUnits="userSpaceOnUse"
       gradientTransform="matrix(0.34691459,0,0,0.34691459,-6.3004977,-156.9776)"
       x1="217.78871"
       y1="683.14941"
       x2="142.54718"
       y2="591.87762" />
    <linearGradient
       inkscape:collect="always"
       xlink:href="#linearGradient6152"
       id="linearGradient2926"
       gradientUnits="userSpaceOnUse"
       gradientTransform="matrix(0.34691459,0,0,0.34691459,-6.3004977,-156.9776)"
       x1="680.07568"
       y1="331.61487"
       x2="559.64056"
       y2="153.13515" />
    <linearGradient
       inkscape:collect="always"
       xlink:href="#linearGradient6166"
       id="linearGradient2929"
       gradientUnits="userSpaceOnUse"
       gradientTransform="matrix(0.34691459,0,0,0.34691459,-6.3004977,-156.9776)"
       x1="627.49017"
       y1="122.68339"
       x2="672.87573"
       y2="192.21078" />
    <linearGradient
       inkscape:collect="always"
       xlink:href="#linearGradient6176"
       id="linearGradient2932"
       gradientUnits="userSpaceOnUse"
       gradientTransform="matrix(0.34691459,0,0,0.34691459,-6.3004977,-156.9776)"
       x1="479.53033"
       y1="153.64137"
       x2="553.37982"
       y2="270.88364" />
    <linearGradient
       inkscape:collect="always"
       xlink:href="#linearGradient6188"
       id="linearGradient2935"
       gradientUnits="userSpaceOnUse"
       gradientTransform="matrix(0.34691459,0,0,0.34691459,-6.3004977,-156.9776)"
       x1="531.8689"
       y1="252.28456"
       x2="519.24115"
       y2="262.06454" />
    <linearGradient
       inkscape:collect="always"
       xlink:href="#linearGradient7174"
       id="linearGradient2938"
       gradientUnits="userSpaceOnUse"
       gradientTransform="matrix(0.34691459,0,0,0.34691459,-6.3004977,-156.9776)"
       x1="439.9462"
       y1="469.4801"
       x2="393.85306"
       y2="332.38309" />
    <linearGradient
       inkscape:collect="always"
       xlink:href="#linearGradient6176"
       id="linearGradient2941"
       gradientUnits="userSpaceOnUse"
       gradientTransform="matrix(0.34691459,0,0,0.34691459,-6.3004977,-156.9776)"
       x1="429.04266"
       y1="212.38229"
       x2="504.60455"
       y2="320.77304" />
    <linearGradient
       inkscape:collect="always"
       xlink:href="#linearGradient7184"
       id="linearGradient2945"
       gradientUnits="userSpaceOnUse"
       gradientTransform="matrix(0.34691459,0,0,0.34691459,-6.3004977,-156.9776)"
       x1="417.69458"
       y1="405.5538"
       x2="330.89462"
       y2="295.18326" />
    <linearGradient
       inkscape:collect="always"
       xlink:href="#linearGradient6176"
       id="linearGradient2948"
       gradientUnits="userSpaceOnUse"
       gradientTransform="matrix(0.34691459,0,0,0.34691459,-6.3004977,-156.9776)"
       x1="126.32653"
       y1="468.65414"
       x2="175.88744"
       y2="538.341" />
    <linearGradient
       inkscape:collect="always"
       xlink:href="#linearGradient16081"
       id="linearGradient2956"
       gradientUnits="userSpaceOnUse"
       gradientTransform="matrix(0.31659086,0,0,0.31659086,29.879556,-160.04267)"
       x1="225.59531"
       y1="160.97327"
       x2="433.50439"
       y2="957.91602" />
  </defs>
  <sodipodi:namedview
     id="base"
     pagecolor="#ffffff"
     bordercolor="#666666"
     borderopacity="1.0"
     gridtolerance="10000"
     guidetolerance="10"
     objecttolerance="10"
     inkscape:pageopacity="0.0"
     inkscape:pageshadow="2"
     inkscape:zoom="0.92726222"
     inkscape:cx="-40.752509"
     inkscape:cy="130.16288"
     inkscape:document-units="px"
     inkscape:current-layer="layer1"
     inkscape:window-width="1280"
     inkscape:window-height="978"
     inkscape:window-x="0"
     inkscape:window-y="22"
     width="128px"
     height="128px"
     showgrid="false"
     inkscape:window-maximized="0" />
  <metadata
     id="metadata7">
    <rdf:RDF>
      <cc:Work
         rdf:about="">
        <dc:format>image/svg+xml</dc:format>
        <dc:type
           rdf:resource="http://purl.org/dc/dcmitype/StillImage" />
      </cc:Work>
    </rdf:RDF>
  </metadata>
  <g
     inkscape:label="Layer 1"
     inkscape:groupmode="layer"
     id="layer1"
     transform="translate(0,128)">
    <g
       id="g3734">
      <path
         transform="matrix(1.9358132,-0.29776773,0.29776773,1.9358132,3.7576897,-125.37877)"
         d="m 1.9375,22.8125 c -4.230473,0 -7.6875,3.457027 -7.6875,7.6875 l 0,83.875 c 0,4.23048 3.4570286,7.6875 7.6875,7.6875 l 103.03125,0 c 4.23047,0 7.71875,-3.44433 7.71875,-7.6875 l 0,-83.875 c 0,-4.243164 -3.48827,-7.6875 -7.71875,-7.6875 l -103.03125,0 z"
         id="path3732"
         style="opacity:0.5;fill:#000000;fill-opacity:1;stroke:none"
         inkscape:original="M 1.9375 24.75 C -1.2536957 24.75 -3.8125 27.308804 -3.8125 30.5 L -3.8125 114.375 C -3.8125 117.5662 -1.2536957 120.125 1.9375 120.125 L 104.96875 120.125 C 108.15995 120.125 110.75 117.5662 110.75 114.375 L 110.75 30.5 C 110.75 27.308804 108.15995 24.75 104.96875 24.75 L 1.9375 24.75 z "
         inkscape:radius="1.9441918"
         sodipodi:type="inkscape:offset" />
      <rect
         ry="11.281976"
         transform="matrix(0.98837551,-0.1520324,0.1520324,0.98837551,0,0)"
         y="-74.898682"
         x="15.292532"
         height="186.83287"
         width="224.3663"
         id="rect4195"
         style="fill:url(#linearGradient2956);fill-opacity:1;stroke:none" />
      <path
         sodipodi:nodetypes="ccccc"
         id="path18027"
         d="M 16.764478,-65.402661 214.20993,-99.171756 241.93053,63.403097 43.741111,96.689106 16.764478,-65.402661 z"
         style="opacity:0.60696519;fill:none;stroke:#ffffff;stroke-width:2.25087857px;stroke-linecap:round;stroke-linejoin:round;stroke-opacity:1" />
      <path
         style="opacity:0.65671638;fill:none;stroke:#fafafa;stroke-width:1.95858073px;stroke-linecap:round;stroke-linejoin:round;stroke-opacity:1"
         d="M 180.90648,-57.443698 203.25817,60.17128"
         id="path20950"
         sodipodi:nodetypes="cc" />
      <path
         id="path13065"
         d="m 221.03073,-113.44247 -3.68597,2.62355 c -0.2809,-0.28483 -0.56509,-0.57884 -0.84558,-0.85645 l -48.92582,34.789027 c 0.2263,0.239323 0.44795,0.475831 0.67217,0.71551 -0.21437,1.304486 -1.34721,2.172082 -3.03551,1.940554 -0.17941,-0.197348 -0.36479,-0.402886 -0.54206,-0.596258 l -7.07924,5.03026 c 0.053,0.056 0.099,0.117456 0.15181,0.173452 l -0.27105,2.862046 c -0.0135,-0.01508 -0.0298,-0.02822 -0.0434,-0.04336 l -27.94831,19.860861 -6.00596,8.607817 0.43364,0.607102 -9.72446,6.916608 c -0.25925,-0.336437 -0.49658,-0.646676 -0.75884,-0.986537 -3.3257,2.534932 -6.61324,4.976861 -9.89793,7.404457 -0.19156,-0.22003 -0.39326,-0.456803 -0.57459,-0.661303 l -3.024644,-1.084105 -4.835123,3.924469 c 0.722832,0.833192 1.42308,1.657735 2.124853,2.482608 -0.02905,0.02145 -0.0577,0.04362 -0.08673,0.06504 -0.760194,-0.898548 -1.517683,-1.783846 -2.265769,-2.645224 l 0.726334,3.783537 c -3.307204,2.444017 -6.625165,4.906235 -9.973794,7.458664 1.746923,2.2546981 3.389565,4.4584971 4.997756,6.6455815 L 43.280378,29.215316 c 0.98147,3.780858 5.613451,10.296241 9.063145,12.749111 L 99.870803,8.1836181 c 0.690497,0.914867 1.394077,1.8352309 2.114027,2.7644759 3.25794,4.414182 6.31954,8.367764 9.98462,13.692285 12.63765,18.995732 5.92967,39.983256 -8.44519,50.345972 -2.8039,2.077701 -6.61118,3.956862 -10.960311,5.182052 C 83.159896,81.624686 72.11296,80.897269 62.740119,72.547115 53.799753,64.447263 48.906106,56.829279 43.237015,48.306458 l 3.339053,-2.374195 c 0.753186,-0.535394 -0.593724,-3.711564 -3.00298,-7.100909 -2.409266,-3.389338 -4.970907,-5.706595 -5.724091,-5.171196 -0.02354,0.01665 -0.04558,0.03238 -0.06505,0.05421 l -3.187276,2.265786 c -0.357073,-0.426203 -1.233421,-0.606743 -1.821302,0.216821 -0.0072,-0.02529 -0.01469,-0.05055 -0.02168,-0.0759 -3.991718,2.837249 -6.984626,5.562449 -10.873603,8.206698 0.05558,0.922946 0.702043,2.513875 1.496068,3.631763 1.07829,1.516915 2.098151,2.949603 3.176438,4.466525 1.916488,3.203287 3.762576,4.775976 4.791757,8.250061 3.332937,11.451456 6.489084,21.472926 9.82202,32.924355 0.494818,1.366776 0.898999,2.502322 1.777937,3.7727 l -0.09758,0.14101 c 21.08978,27.446133 61.662484,33.811813 89.829204,13.789863 29.86553,-21.229547 35.9733,-63.969601 13.63805,-95.390671 -2.34535,-3.299453 -8.25424,-8.7523959 -9.78948,-17.6167581 l -2.2658,-2.2983083 c -0.0882,-0.089488 -0.16251,-0.068923 -0.22765,0.032512 0.0123,-0.1053325 0.0186,-0.207498 0.0325,-0.3143914 -0.86946,-1.2013158 -1.73144,-2.3906875 -2.59099,-3.5667075 l 8.97641,-6.3745551 0.6071,0.856446 9.70279,-3.642604 27.91576,-19.850018 2.62354,0.41196 -1.97307,-3.772696 c 0.67048,1.232862 1.32376,2.488807 1.97307,3.772696 0.01,0.019 0.0229,0.03525 0.0325,0.05421 l 7.0792,-5.030262 c -0.14631,-0.334408 -0.29739,-0.67923 -0.45531,-1.019062 0.37775,-1.696162 1.42988,-2.151365 2.80782,-2.103169 0.18156,0.352132 0.37297,0.695394 0.5529,1.051584 l 48.92577,-34.778187 c -0.27402,-0.62598 -0.56009,-1.264826 -0.86728,-1.90803 l 3.40414,-2.428403 c -4.3088,-11.99605 -13.91936,-24.811256 -21.74718,-30.832126 z M 133.87929,-1.6926058 c 0.0721,1.19582129 0.27847,2.7780744 0.70469,4.6725058 0.0896,0.2764066 0.18522,0.5448086 0.29269,0.823922 -0.10639,-0.2761932 -0.20399,-0.5504043 -0.29269,-0.823922 -0.49418,-1.5234997 -0.71718,-3.02498091 -0.70469,-4.6725058 z m 1.39852,6.4612834 c 0.23108,0.5124901 0.48752,1.0334099 0.78055,1.5719565 -0.29498,-0.5409126 -0.54819,-1.0573159 -0.78055,-1.5719565 z m 17.32401,28.8481154 c 0.27274,0.646675 0.5346,1.314586 0.78056,1.99476 -0.24642,-0.684275 -0.50917,-1.347517 -0.78056,-1.99476 z m 0.80227,2.059806 c 0.51167,1.421955 0.96606,2.913609 1.35512,4.466526 -0.39423,-1.55467 -0.84827,-3.052109 -1.35512,-4.466526 z"
         style="opacity:0.6;fill:#000000;fill-opacity:1;stroke:none" />
      <path
         id="path20952"
         d="M 42.408236,60.055067 225.71688,26.756341"
         style="opacity:0.6268657;fill:none;stroke:#ffffff;stroke-width:1.95858073px;stroke-linecap:round;stroke-linejoin:round;stroke-opacity:1"
         sodipodi:nodetypes="cc" />
      <path
         sodipodi:nodetypes="csscsccccccc"
         id="path2172"
         d="m 40.104898,90.120774 c 21.08979,27.446086 61.665192,33.810416 89.831922,13.788476 29.86557,-21.229535 35.97269,-63.964823 13.63743,-95.3858849 -2.34537,-3.2994604 -8.24729,-8.74870211 -9.78255,-17.61307 l -2.26712,-2.2999731 c -0.51608,-0.523572 -0.7165,2.3659714 0.32031,6.9746901 0.71668,2.211267 1.99833,4.47550189 3.96786,7.3313946 4.81003,7.2747703 8.62859,12.1436093 12.22194,19.5633893 10.55869,18.573389 8.17568,57.80383 -22.39005,80.082844 C 109.05137,114.3667 68.4964,122.76072 40.99002,90.99671 40.688103,90.6416 40.438205,90.308778 40.210415,89.979502 l -0.105509,0.141213 z"
         style="fill:#7c7c7c;fill-opacity:1;stroke:none" />
      <path
         sodipodi:nodetypes="ccccc"
         id="rect2202"
         d="M 49.609694,34.577103 C 46.160003,32.124235 41.527415,25.60715 40.545945,21.826284 L 90.982528,-14.025879 100.04628,-1.2750559 49.609694,34.577103 z"
         style="fill:url(#linearGradient2948);fill-opacity:1;stroke:none" />
      <path
         sodipodi:nodetypes="ccccc"
         id="rect2205"
         d="m 126.92819,-13.950738 -16.65486,-23.429955 14.18652,-10.084313 16.65488,23.429967 -14.18654,10.084301 z"
         style="fill:url(#linearGradient2945);fill-opacity:1;stroke:none" />
      <path
         sodipodi:nodetypes="cccccc"
         id="path2216"
         d="m 178.55952,-43.843864 -2.97152,-0.464595 -20.89976,-29.401626 0.34393,-3.594419 13.96155,15.200208 9.5658,18.260432 z"
         style="fill:#524f49;fill-opacity:1;fill-rule:evenodd;stroke:none" />
      <path
         sodipodi:nodetypes="ccccc"
         id="rect2207"
         d="m 148.018,-24.405471 -21.27372,-29.927745 27.9476,-19.86618 c 8.04869,8.959312 15.68052,19.222996 21.27374,29.927729 L 148.018,-24.405471 z"
         style="fill:url(#linearGradient2941);fill-opacity:1;stroke:none" />
      <path
         sodipodi:nodetypes="ccccc"
         id="rect2209"
         d="m 148.018,-24.405471 -21.27372,-29.927745 -6.00434,8.604939 17.58076,24.965023 9.6973,-3.642217 z"
         style="fill:url(#linearGradient2938);fill-opacity:1;stroke:none" />
      <path
         sodipodi:nodetypes="ccccc"
         id="path3195"
         d="m 185.12831,-49.316354 c 0.30862,-2.451983 1.74447,-2.808875 3.60773,-2.564495 -6.18617,-12.437695 -13.16635,-22.681781 -23.20076,-32.384006 0.1333,1.715481 -1.13883,2.98179 -3.19624,2.634052 l 22.78927,32.314449 z"
         style="fill:url(#linearGradient2935);fill-opacity:1;fill-rule:evenodd;stroke:none" />
      <path
         style="fill:url(#linearGradient2932);fill-opacity:1;stroke:none"
         d="m 178.59426,-43.788088 c -6.60392,-13.071992 -14.26479,-23.37656 -23.74103,-33.398733 l 7.08078,-5.033296 c 8.34748,9.105518 19.0563,22.697689 23.74104,33.398747 l -7.08079,5.033282 z"
         id="path2214"
         sodipodi:nodetypes="ccccc" />
      <path
         style="fill:url(#linearGradient2929);fill-opacity:1;stroke:none"
         d="m 236.08308,-87.187557 c -6.6039,-13.071993 -12.38414,-20.730883 -21.8604,-30.753073 l 4.07436,-2.8962 c 7.82782,6.02087 17.43131,18.84259 21.74016,30.838549 l -3.95412,2.810724 z"
         id="path3193"
         sodipodi:nodetypes="ccccc" />
      <path
         sodipodi:nodetypes="ccccc"
         id="path3191"
         d="m 188.57563,-50.883201 c -6.60393,-13.071995 -14.26481,-23.376562 -23.74105,-33.398747 l 48.93034,-34.781472 c 9.37618,9.27938 19.05632,22.697675 23.74107,33.398732 l -48.93036,34.781487 z"
         style="fill:url(#linearGradient2926);fill-opacity:1;stroke:none" />
      <path
         sodipodi:nodetypes="ccccccccc"
         id="path4166"
         d="M 93.002873,72.201641 C 82.989484,74.305215 70.454425,74.46668 60.005157,65.157542 47.750371,54.054838 43.101272,43.87383 33.632198,30.998451 c -0.688351,-0.856963 -1.066218,-1.530654 -1.754567,-2.38761 -0.344702,-0.442232 -1.237151,-0.64317 -1.835341,0.19482 -0.256069,0.419601 -0.494365,0.953498 -0.75045,1.373098 9.75799,14.841526 19.515964,29.683053 29.273951,44.524596 8.816862,1.771184 17.633736,3.542387 26.450597,5.313571 2.662166,-2.605089 5.324331,-5.210197 7.986485,-7.815285 z"
         style="fill:url(#linearGradient2923);fill-opacity:1;fill-rule:evenodd;stroke:none" />
      <rect
         transform="matrix(-0.57937518,-0.81506098,0.81506098,-0.57937518,0,0)"
         y="4.7512889"
         x="-56.818127"
         height="8.6493568"
         width="15.066623"
         id="rect2180"
         style="fill:url(#linearGradient2920);fill-opacity:1;stroke:none" />
      <path
         transform="matrix(-0.17083258,-0.24032589,0.1802445,-0.12812438,97.536888,174.4471)"
         d="m 532.27243,158.1445 a 25.549076,7.570097 0 1 1 -51.09815,0 25.549076,7.570097 0 1 1 51.09815,0 z"
         sodipodi:ry="7.570097"
         sodipodi:rx="25.549076"
         sodipodi:cy="158.1445"
         sodipodi:cx="506.72336"
         id="path2182"
         style="fill:#f2f2f2;fill-opacity:1;stroke:none"
         sodipodi:type="arc" />
      <path
         sodipodi:nodetypes="ccccccccccccccccccc"
         id="path2170"
         d="m 19.146572,36.939719 c 0.05558,0.922944 0.700761,2.506559 1.494781,3.62445 1.078291,1.516923 2.09991,2.954137 3.178201,4.471064 1.916475,3.203296 3.7571,4.780846 4.786281,8.254914 3.332933,11.45145 6.487268,21.470164 9.820203,32.921613 0.622633,1.71983 1.098354,3.06418 2.562178,4.785929 C 68.4946,122.76168 108.6261,115.98721 125.64604,102.56683 156.90118,83.474213 158.59238,41.050547 148.03369,22.47716 144.44031,15.05738 140.6251,10.194816 135.81508,2.9200477 c -4.00228,-5.8034745 -5.19098,-9.1678265 -4.48793,-14.5967637 -6.7198,-9.284297 -13.03243,-17.658247 -20.63761,-27.512953 -9.35356,7.129565 -18.45552,13.600386 -27.809084,20.729955 5.82428,7.517282 10.547122,14.4977634 16.3714,22.0150489 3.257934,4.4141692 6.312294,8.3731711 9.977394,13.6976981 12.63766,18.995727 5.93437,39.982037 -8.44051,50.34476 -7.558411,5.600765 -22.37746,9.763983 -35.581295,3.540848 C 53.770163,64.842089 47.717165,55.318079 36.835927,39.508071 33.829768,35.277889 31.025266,32.344078 30.018399,28.73233 c -3.99173,2.837265 -6.982848,5.563139 -10.871827,8.207389 z"
         style="fill:url(#linearGradient2916);fill-opacity:1;fill-rule:evenodd;stroke:#757575;stroke-width:0.36426035;stroke-linecap:round;stroke-linejoin:round;stroke-miterlimit:4;stroke-opacity:1;stroke-dasharray:none" />
      <path
         sodipodi:nodetypes="ccccc"
         id="path4170"
         d="M 116.18181,3.3328539 C 109.45039,-8.5855114 101.82067,-18.689898 92.347973,-29.60906 l 4.842798,-3.92198 c 8.205529,9.187722 18.927149,22.759561 24.102409,33.13866349 l -5.11137,3.72523041 z"
         style="fill:url(#linearGradient2913);fill-opacity:1;stroke:none" />
      <path
         style="fill:#808080;fill-opacity:1;stroke:none"
         d="M 112.95841,1.2108511 C 105.31191,-9.930598 101.98486,-14.698553 92.85907,-25.880036 l -0.73575,-3.827071 c 8.84092,10.179414 18.76951,23.2091724 24.03427,33.0586849 l -3.19918,-2.1407268 z"
         id="path4172"
         sodipodi:nodetypes="ccccc" />
      <path
         style="fill:url(#linearGradient2909);fill-opacity:1;stroke:none"
         d="M 120.68521,-4.2919401 C 116.87228,-11.666531 105.91222,-26.01225 100.21114,-32.441984 l -3.020369,-1.089056 c 8.205529,9.187722 18.927149,22.759561 24.102409,33.13866349 l -0.60797,-3.89956359 z"
         id="path4174"
         sodipodi:nodetypes="ccccc" />
      <path
         transform="matrix(1.9608566,0,0.04632263,1.8658331,12.797531,-113.73188)"
         d="m 31.400377,40.409477 a 10.576969,10.576969 0 1 1 -21.153938,0 10.576969,10.576969 0 1 1 21.153938,0 z"
         sodipodi:ry="10.576969"
         sodipodi:rx="10.576969"
         sodipodi:cy="40.409477"
         sodipodi:cx="20.823408"
         id="path18998"
         style="opacity:0.58706468;fill:none;stroke:#ffffff;stroke-width:1.04999995;stroke-linecap:round;stroke-linejoin:round;stroke-miterlimit:4;stroke-opacity:1;stroke-dasharray:none"
         sodipodi:type="arc" />
      <path
         sodipodi:nodetypes="cc"
         id="path19969"
         d="m 51.080565,-63.770707 10.039518,53.708868"
         style="opacity:0.65671638;fill:none;stroke:#fafafa;stroke-width:1.95858073px;stroke-linecap:round;stroke-linejoin:round;stroke-opacity:1" />
      <path
         sodipodi:nodetypes="cc"
         style="opacity:0.6268657;fill:none;stroke:#ffffff;stroke-width:1.95858073px;stroke-linecap:round;stroke-linejoin:round;stroke-opacity:1"
         d="M 27.209056,-32.681464 85.337672,-44.356219"
         id="path19971" />
      <path
         sodipodi:type="arc"
         style="opacity:0.58706468;fill:none;stroke:#ffffff;stroke-width:1.04999995;stroke-linecap:round;stroke-linejoin:round;stroke-miterlimit:4;stroke-opacity:1;stroke-dasharray:none"
         id="path20948"
         sodipodi:cx="20.823408"
         sodipodi:cy="40.409477"
         sodipodi:rx="10.576969"
         sodipodi:ry="10.576969"
         d="m 31.400377,40.409477 a 10.576969,10.576969 0 1 1 -21.153938,0 10.576969,10.576969 0 1 1 21.153938,0 z"
         transform="matrix(1.9608566,0,0.04632263,1.8658331,154.64249,-43.205621)" />
    </g>
  </g>
</svg>
