<?xml version="1.0" encoding="UTF-8" standalone="no"?>
<!-- Created with Inkscape (http://www.inkscape.org/) -->

<svg
   xmlns:dc="http://purl.org/dc/elements/1.1/"
   xmlns:cc="http://creativecommons.org/ns#"
   xmlns:rdf="http://www.w3.org/1999/02/22-rdf-syntax-ns#"
   xmlns:svg="http://www.w3.org/2000/svg"
   xmlns="http://www.w3.org/2000/svg"
   xmlns:xlink="http://www.w3.org/1999/xlink"
   xmlns:sodipodi="http://sodipodi.sourceforge.net/DTD/sodipodi-0.dtd"
   xmlns:inkscape="http://www.inkscape.org/namespaces/inkscape"
   id="svg2"
   version="1.1"
   inkscape:version="0.92.5 (2060ec1f9f, 2020-04-08)"
   width="256"
   height="256"
   viewBox="0 0 256 256"
   sodipodi:docname="mate-tweak-tool.svg">
  <sodipodi:namedview
     pagecolor="#ff0000"
     bordercolor="#666666"
     borderopacity="1"
     objecttolerance="10"
     gridtolerance="10"
     guidetolerance="10"
     inkscape:pageopacity="0"
     inkscape:pageshadow="2"
     inkscape:window-width="1920"
     inkscape:window-height="1056"
     id="namedview4"
     showgrid="false"
     inkscape:zoom="3.4960938"
     inkscape:cx="128"
     inkscape:cy="128"
     inkscape:window-x="0"
     inkscape:window-y="0"
     inkscape:window-maximized="1"
     inkscape:current-layer="svg2"
     showguides="true"
     inkscape:guide-bbox="true"
     inkscape:snap-grids="false"
     inkscape:snap-to-guides="false"
     inkscape:snap-others="false"
     inkscape:object-nodes="false"
     inkscape:snap-nodes="false"
     inkscape:snap-global="false" />
  <metadata
     id="metadata8">
    <rdf:RDF>
      <cc:Work>
        <dc:format>image/svg+xml</dc:format>
        <dc:type
           rdf:resource="http://purl.org/dc/dcmitype/StillImage" />
        <dc:title />
      </cc:Work>
    </rdf:RDF>
  </metadata>
  <defs
     id="defs6">
    <linearGradient
       id="linearGradient883"
       inkscape:collect="always">
      <stop
         id="stop879"
         offset="0"
         style="stop-color:#666565;stop-opacity:1" />
      <stop
         id="stop881"
         offset="1"
         style="stop-color:#e9e9e9;stop-opacity:1" />
    </linearGradient>
    <linearGradient
       id="linearGradient877"
       inkscape:collect="always">
      <stop
         id="stop872"
         offset="0"
         style="stop-color:#000000;stop-opacity:1" />
      <stop
         id="stop875"
         offset="1"
         style="stop-color:#eaeaea;stop-opacity:1" />
    </linearGradient>
    <linearGradient
       id="linearGradient870"
       inkscape:collect="always">
      <stop
         id="stop866"
         offset="0"
         style="stop-color:#0f0c0c;stop-opacity:1" />
      <stop
         id="stop868"
         offset="1"
         style="stop-color:#ffffff;stop-opacity:1" />
    </linearGradient>
    <linearGradient
       inkscape:collect="always"
       id="linearGradient4396">
      <stop
         style="stop-color:#ffffff;stop-opacity:1"
         offset="0"
         id="stop4398" />
      <stop
         id="stop4404"
         offset="0.79455721"
         style="stop-color:#747474;stop-opacity:1" />
      <stop
         style="stop-color:#dcdcdc;stop-opacity:1"
         offset="1"
         id="stop4400" />
    </linearGradient>
    <linearGradient
       inkscape:collect="always"
       xlink:href="#linearGradient877"
       id="linearGradient4364"
       x1="77.994141"
       y1="129.69629"
       x2="99.201942"
       y2="117.78931"
       gradientUnits="userSpaceOnUse"
       spreadMethod="reflect"
       gradientTransform="matrix(1.0363044,0,0,1.0363044,-11.538298,-8.9551744)" />
    <linearGradient
       inkscape:collect="always"
       xlink:href="#linearGradient877"
       id="linearGradient4374"
       x1="27.400391"
       y1="129.69727"
       x2="53.970928"
       y2="138.76924"
       gradientUnits="userSpaceOnUse"
       spreadMethod="reflect"
       gradientTransform="matrix(1.0397146,0,0,1.0397146,-11.971744,-9.9753997)" />
    <linearGradient
       inkscape:collect="always"
       xlink:href="#linearGradient883"
       id="linearGradient4383"
       x1="64.53965"
       y1="88.590271"
       x2="116.05804"
       y2="50.884846"
       gradientUnits="userSpaceOnUse"
       spreadMethod="reflect"
       gradientTransform="matrix(1.0397146,0,0,1.0397146,-11.971744,-9.9753997)" />
    <linearGradient
       inkscape:collect="always"
       xlink:href="#linearGradient883"
       id="linearGradient4392"
       x1="78.276505"
       y1="129.13069"
       x2="109.28336"
       y2="126.07209"
       gradientUnits="userSpaceOnUse"
       spreadMethod="reflect"
       gradientTransform="matrix(1.0363044,0,0,1.0363044,-11.832918,-8.5543486)" />
    <radialGradient
       inkscape:collect="always"
       xlink:href="#linearGradient4396"
       id="radialGradient4402"
       cx="130.23767"
       cy="51.426815"
       fx="130.23767"
       fy="51.426815"
       r="17.089991"
       gradientUnits="userSpaceOnUse"
       spreadMethod="reflect"
       gradientTransform="matrix(1.2926617,0.12511606,-0.1288937,1.3316911,-40.953567,-40.558575)" />
    <radialGradient
       inkscape:collect="always"
       xlink:href="#linearGradient4396"
       id="radialGradient4408"
       gradientUnits="userSpaceOnUse"
       gradientTransform="matrix(1.2926617,0.12511606,-0.1288937,1.3316911,-7.2171335,-35.455584)"
       spreadMethod="reflect"
       cx="130.23767"
       cy="51.426815"
       fx="130.23767"
       fy="51.426815"
       r="17.089991" />
    <radialGradient
       inkscape:collect="always"
       xlink:href="#linearGradient4396"
       id="radialGradient4412"
       gradientUnits="userSpaceOnUse"
       gradientTransform="matrix(1.2926617,0.12511606,-0.1288937,1.3316911,20.849312,-13.909627)"
       spreadMethod="reflect"
       cx="130.23767"
       cy="51.426815"
       fx="130.23767"
       fy="51.426815"
       r="17.089991" />
    <radialGradient
       inkscape:collect="always"
       xlink:href="#linearGradient4396"
       id="radialGradient4416"
       gradientUnits="userSpaceOnUse"
       gradientTransform="matrix(1.2926617,0.12511606,-0.1288937,1.3316911,35.591284,15.574316)"
       spreadMethod="reflect"
       cx="130.23767"
       cy="51.426815"
       fx="130.23767"
       fy="51.426815"
       r="17.089991" />
    <radialGradient
       inkscape:collect="always"
       xlink:href="#linearGradient4396"
       id="radialGradient4420"
       gradientUnits="userSpaceOnUse"
       gradientTransform="matrix(1.2926617,0.12511606,-0.1288937,1.3316911,35.874783,49.594249)"
       spreadMethod="reflect"
       cx="130.23767"
       cy="51.426815"
       fx="130.23767"
       fy="51.426815"
       r="17.089991" />
    <radialGradient
       inkscape:collect="always"
       xlink:href="#linearGradient4396"
       id="radialGradient4424"
       gradientUnits="userSpaceOnUse"
       gradientTransform="matrix(1.2926617,0.12511606,-0.1288937,1.3316911,21.132811,80.779189)"
       spreadMethod="reflect"
       cx="130.23767"
       cy="51.426815"
       fx="130.23767"
       fy="51.426815"
       r="17.089991" />
    <radialGradient
       inkscape:collect="always"
       xlink:href="#linearGradient4396"
       id="radialGradient4428"
       gradientUnits="userSpaceOnUse"
       gradientTransform="matrix(1.2926617,0.12511606,-0.1288937,1.3316911,-6.6501347,101.19114)"
       spreadMethod="reflect"
       cx="130.23767"
       cy="51.426815"
       fx="130.23767"
       fy="51.426815"
       r="17.089991" />
    <radialGradient
       inkscape:collect="always"
       xlink:href="#linearGradient4396"
       id="radialGradient4432"
       gradientUnits="userSpaceOnUse"
       gradientTransform="matrix(1.2926617,0.12511606,-0.1288937,1.3316911,-41.237067,106.86113)"
       spreadMethod="reflect"
       cx="130.23767"
       cy="51.426815"
       fx="130.23767"
       fy="51.426815"
       r="17.089991" />
    <radialGradient
       inkscape:collect="always"
       xlink:href="#linearGradient4396"
       id="radialGradient4436"
       gradientUnits="userSpaceOnUse"
       gradientTransform="matrix(1.2926617,0.12511606,-0.1288937,1.3316911,-74.123002,94.103655)"
       spreadMethod="reflect"
       cx="130.23767"
       cy="51.426815"
       fx="130.23767"
       fy="51.426815"
       r="17.089991" />
    <radialGradient
       inkscape:collect="always"
       xlink:href="#linearGradient4396"
       id="radialGradient4440"
       gradientUnits="userSpaceOnUse"
       gradientTransform="matrix(1.2926617,0.12511606,-0.1288937,1.3316911,-95.668961,67.73821)"
       spreadMethod="reflect"
       cx="130.23767"
       cy="51.426815"
       fx="130.23767"
       fy="51.426815"
       r="17.089991" />
    <radialGradient
       inkscape:collect="always"
       xlink:href="#linearGradient4396"
       id="radialGradient4444"
       gradientUnits="userSpaceOnUse"
       gradientTransform="matrix(1.2926617,0.12511606,-0.1288937,1.3316911,-105.30795,34.285275)"
       spreadMethod="reflect"
       cx="130.23767"
       cy="51.426815"
       fx="130.23767"
       fy="51.426815"
       r="17.089991" />
    <radialGradient
       inkscape:collect="always"
       xlink:href="#linearGradient4396"
       id="radialGradient4448"
       gradientUnits="userSpaceOnUse"
       gradientTransform="matrix(1.2926617,0.12511606,-0.1288937,1.3316911,-96.802959,-0.58515706)"
       spreadMethod="reflect"
       cx="130.23767"
       cy="51.426815"
       fx="130.23767"
       fy="51.426815"
       r="17.089991" />
    <radialGradient
       inkscape:collect="always"
       xlink:href="#linearGradient4396"
       id="radialGradient4452"
       gradientUnits="userSpaceOnUse"
       gradientTransform="matrix(1.2926617,0.12511606,-0.1288937,1.3316911,-73.839504,-27.234105)"
       spreadMethod="reflect"
       cx="130.23767"
       cy="51.426815"
       fx="130.23767"
       fy="51.426815"
       r="17.089991" />
    <linearGradient
       inkscape:collect="always"
       xlink:href="#linearGradient870"
       id="linearGradient4186"
       gradientUnits="userSpaceOnUse"
       gradientTransform="matrix(1.0397146,0,0,1.0397146,4.4727953,-9.408715)"
       spreadMethod="reflect"
       x1="211.7695"
       y1="107.51878"
       x2="197.04115"
       y2="66.154388" />
    <linearGradient
       inkscape:collect="always"
       xlink:href="#linearGradient870"
       id="linearGradient893"
       x1="127.7288"
       y1="95.503883"
       x2="128.65491"
       y2="125.87195"
       gradientUnits="userSpaceOnUse"
       spreadMethod="reflect" />
    <linearGradient
       inkscape:collect="always"
       xlink:href="#linearGradient870"
       id="linearGradient887"
       gradientUnits="userSpaceOnUse"
       gradientTransform="matrix(0.57137723,0,0,0.55638831,53.454361,55.279305)"
       x1="211.7695"
       y1="107.51878"
       x2="197.04115"
       y2="66.154388"
       spreadMethod="reflect" />
    <filter
       inkscape:collect="always"
       style="color-interpolation-filters:sRGB"
       id="filter930"
       x="-0.011699498"
       width="1.023399"
       y="-0.012316345"
       height="1.0246327">
      <feGaussianBlur
         inkscape:collect="always"
         stdDeviation="1.1426297"
         id="feGaussianBlur932" />
    </filter>
  </defs>
  <g
     id="g924"
     transform="translate(242.55642,8.5810056)"
     style="filter:url(#filter930)">
    <path
       sodipodi:nodetypes="ssscccscccccccccccccsccccccccccccccccccccccscccccccccscccccccccccccccsccccccccccccccccccccc"
       inkscape:connector-curvature="0"
       id="path4456"
       d="m -127.20649,15.072313 c -59.08981,-1.3e-5 -106.95729,49.903419 -106.95702,111.328117 -2.7e-4,61.4247 47.86722,111.32814 106.95702,111.32813 5.96074,0 11.80332,-0.51596 17.49805,-1.49219 C -37.640665,232.16264 0.20414486,185.91342 0.23211486,125.92204 0.20799486,67.801111 -38.574715,21.808013 -105.07563,17.464891 c -7.14093,-1.564867 -14.54211,-2.392581 -22.13086,-2.392578 z m 0.65625,19.279296 c 40.425195,0.307871 74.407565,28.900056 84.560555,67.798821 -2.55554,-6.391366 -8.74362,-10.584036 -15.62696,-10.587886 -1.45275,0.003 -2.89901,0.19411 -4.30273,0.56836 4.04283,-3.193123 6.40164,-8.061138 6.40234,-13.212888 -8e-5,-9.301115 -7.54067,-16.840838 -16.84179,-16.839844 -9.30036,7.8e-5 -16.83977,7.539486 -16.83985,16.839844 8e-5,9.300355 7.53949,16.839758 16.83985,16.839838 1.45341,-0.003 2.90033,-0.19394 4.30468,-0.56836 -4.04284,3.19313 -6.40165,8.061146 -6.40234,13.212896 8e-5,9.30035 7.53949,16.83976 16.83984,16.83984 9.30036,-8e-5 16.83977,-7.53948 16.83985,-16.83984 -10e-4,-0.41192 -0.0174,-0.82366 -0.0488,-1.23438 1.26318,6.20239 1.93357,12.63408 1.93359,19.23242 -2e-5,6.50405 -0.64869,12.84846 -1.87695,18.96875 0.17813,-0.97243 0.27028,-1.95866 0.27539,-2.94726 -8e-5,-9.30112 -7.54068,-16.84085 -16.8418,-16.83985 -9.30036,8e-5 -16.83976,7.53949 -16.83984,16.83985 8e-5,9.30035 7.53949,16.83976 16.83984,16.83984 7.81769,-0.008 14.60184,-5.39523 16.38086,-13.00781 -8.70647,41.33748 -44.02777,72.21092 -86.253905,72.21094 -0.98577,-1e-5 -1.96536,-0.0232 -2.94336,-0.0566 -2.94214,-0.67205 -5.85009,-1.4973 -8.71289,-2.47266 1.44047,0.39299 2.92681,0.59265 4.41992,0.59375 9.30036,-8e-5 16.83976,-7.53949 16.83984,-16.83985 -8e-5,-9.30035 -7.53949,-16.83976 -16.83984,-16.83984 -9.30035,8e-5 -16.83975,7.53949 -16.83983,16.83984 0.004,6.41694 3.65471,12.27384 9.41405,15.10352 -7.5338,-2.86248 -14.6671,-6.75952 -21.21093,-11.58789 7.40855,-1.9314 12.58184,-8.61727 12.5918,-16.27344 -8e-5,-9.30035 -7.53949,-16.83976 -16.83985,-16.83984 -7.47423,0.005 -14.05076,4.9361 -16.15039,12.10937 -1.16972,-1.60655 -2.28944,-3.25193 -3.35742,-4.93359 8.44355,-1.03003 14.79326,-8.19503 14.80078,-16.70117 -6e-4,-0.97694 -0.0862,-1.95197 -0.25586,-2.91406 9.71145,15.12555 26.2659,25.11082 45.07616,25.11132 29.939885,4.1e-4 54.175225,-25.29026 54.175785,-56.35351 5.5e-4,-31.064056 -24.23512,-56.353929 -54.175785,-56.353513 -20.64673,5.07e-4 -38.57857,12.028477 -47.72267,29.681597 1.16101,-2.32845 1.7667,-4.89425 1.76953,-7.49609 -0.0101,-7.923273 -5.54218,-14.767815 -13.28711,-16.439453 1.07764,-1.718521 2.20911,-3.399763 3.39258,-5.041015 2.2421,6.953215 8.71181,11.667636 16.01758,11.671875 9.30035,-8.1e-5 16.83976,-7.539488 16.83984,-16.839844 -0.009,-7.331839 -4.76109,-13.815161 -11.75,-16.03125 4.93316,-3.539978 10.1929,-6.558816 15.70117,-9.011719 -3.04403,3.141554 -4.74616,7.344334 -4.74609,11.71875 8e-5,9.300352 7.53948,16.839758 16.83983,16.839844 9.30035,-8.3e-5 16.83976,-7.53949 16.83984,-16.839844 -0.009,-8.417654 -6.23309,-15.535398 -14.57421,-16.667969 1.76933,-0.472998 3.55205,-0.889858 5.3457,-1.25 z m 26.125,6.181641 c -9.30036,7.8e-5 -16.83977,7.539486 -16.83985,16.839844 8e-5,9.300357 7.53949,16.839765 16.83985,16.839843 9.300355,-8.3e-5 16.839765,-7.53949 16.839845,-16.839843 -8e-5,-9.300354 -7.53949,-16.839761 -16.839845,-16.839844 z m -26.79102,47.568354 c 20.25417,-9e-5 36.707165,17.091036 36.707035,38.308596 1.2e-4,21.21756 -16.452865,38.31063 -36.707035,38.31055 -20.25337,-0.001 -36.70715,-17.09378 -36.70702,-38.31055 -1.3e-4,-21.21677 16.45364,-38.307566 36.70702,-38.308596 z m -47.83202,11.85743 c -4.04571,7.893556 -6.34391,16.897666 -6.34375,26.451166 1.4e-4,7.89386 1.57216,15.41227 4.39844,22.24023 -3.1534,-3.14891 -7.4264,-4.9195 -11.88281,-4.92383 -3.55943,0.006 -7.02543,1.13967 -9.90039,3.23829 -0.23494,-1.01112 -0.45372,-2.02624 -0.65625,-3.04493 0.30563,0.0194 0.61173,0.0305 0.91797,0.0332 9.30036,-8e-5 16.83976,-7.53949 16.83984,-16.83985 -8e-5,-9.30035 -7.53949,-16.83976 -16.83984,-16.83984 -0.33702,0.007 -0.67376,0.0238 -1.00977,0.0508 0.20865,-1.25416 0.44177,-2.50377 0.69922,-3.74805 2.65003,1.63402 5.70115,2.50142 8.81445,2.50586 6.30174,-0.002 12.07512,-3.52192 14.96289,-9.123046 z m 102.974605,56.808586 c -9.30035,8e-5 -16.83976,7.53949 -16.83984,16.83984 8e-5,9.30036 7.53948,16.83977 16.83984,16.83985 9.30036,-8e-5 16.83977,-7.53949 16.83985,-16.83985 -8e-5,-9.30036 -7.53949,-16.83976 -16.83985,-16.83984 z m -27.7832,20.41211 c -9.300365,8e-5 -16.839775,7.53948 -16.839855,16.83984 8e-5,9.30036 7.53949,16.83977 16.839855,16.83985 9.30036,-8e-5 16.83976,-7.53949 16.83984,-16.83985 -8e-5,-9.30035 -7.53949,-16.83976 -16.83984,-16.83984 z"
       style="opacity:1;fill:#000000;fill-opacity:0.20652173;stroke:none;stroke-width:3.61048102;stroke-linecap:round;stroke-linejoin:round;stroke-miterlimit:4;stroke-dasharray:none;stroke-dashoffset:0;stroke-opacity:1" />
    <path
       inkscape:connector-curvature="0"
       id="path901"
       d="m -128.57031,16.082031 c -40.06279,0.0218 -77.84071,26.127405 -94.14453,62.50586 -19.19457,40.608949 -11.51701,92.133549 19.70312,124.880859 23.22152,25.30982 59.46578,37.95362 93.24219,31.76953 33.395032,-1.46641 68.246154,-14.62845 88.505858,-42.45312 C 0.87544433,162.54625 4.6738102,120.80534 -7.6558985,85.868205 -18.491471,54.842013 -45.988629,31.157064 -77.603516,23.017578 -91.081791,19.224996 -105.1229,18.520196 -118.83984,16.412109 c -3.25261,-0.261691 -6.45084,-0.373186 -9.73047,-0.330078 z m 3.92969,17.304688 c 38.250114,0.569712 72.827201,29.337393 82.870165,65.824566 1.772491,4.372065 -1.976046,3.396905 -2.83892,0.163715 -3.637516,-5.391543 -10.800882,-8.054046 -17.070313,-6.273438 -2.461867,-2.63454 3.887384,-4.783703 3.929688,-8.0625 5.508153,-11.403174 -6.580638,-25.225241 -18.591797,-21.457031 -11.834424,2.491765 -16.038463,19.375591 -6.650391,27.076172 3.87675,3.578128 9.608898,4.965511 14.69336,3.5625 2.463165,2.625224 -3.869833,4.786367 -3.925781,8.058597 -5.313275,11.07657 5.94459,24.68065 17.796875,21.64258 7.59722,-1.40107 13.357446,-8.99413 12.603515,-16.69336 3.747428,-1.02985 2.351813,5.49386 3.304688,8.0996 1.146585,10.05994 0.719353,20.2979 -1.267578,30.22657 -3.553389,0.83196 -0.634722,-5.19274 -2.425782,-7.86719 -3.068148,-11.70682 -20.129925,-15.03062 -27.361328,-5.32227 -8.164549,9.00745 -1.488182,25.1778 10.642578,25.81641 7.673461,0.93771 15.424081,-4.60479 17.007813,-12.17578 3.990562,-0.37751 -0.06778,6.27027 -0.311961,9.12305 -10.648065,36.30849 -45.733362,64.4818 -83.986801,64.32436 -4.48629,0.40699 -8.74366,-1.26584 -12.95319,-2.56655 0.0652,-3.62899 4.84309,-0.14334 7.16797,-1.54297 12.04455,-1.29124 17.882,-17.7175 9.29297,-26.29687 -7.70612,-9.37163 -24.6292,-5.16512 -27.07618,6.70703 -1.94482,7.03888 1.76189,15.06156 8.37696,18.14843 -1.11141,3.76657 -6.03947,-1.07969 -8.73565,-1.63579 -4.56045,-2.73644 -10.81334,-4.9662 -13.53296,-9.25082 3.57919,-2.20584 8.80329,-4.41516 10.58501,-9.14659 5.79776,-10.5753 -4.22056,-24.73476 -16.16211,-22.6582 -6.15743,0.67699 -11.60791,5.33235 -13.26757,11.29297 -2.35215,1.3319 -6.86501,-5.51304 -3.66993,-6.3418 8.39673,-1.21511 14.63022,-10.02917 12.91602,-18.35742 2.84798,-2.21195 4.07523,3.98153 6.3718,5.40686 15.72345,19.47566 46.14492,24.42892 67.01512,10.6864 24.460001,-14.78006 32.9669,-49.05513 19.427533,-73.87256 -10.805451,-21.921507 -37.870973,-34.363419 -61.337893,-26.855468 -17.26074,4.957835 -31.25468,19.791765 -36.06836,36.386718 -3.88728,12.6106 -3.26795,26.48996 1.8086,38.72266 -2.07277,2.77891 -4.64598,-2.63401 -7.50586,-2.63086 -4.83468,-1.77439 -10.50161,-0.93062 -14.63281,2.13476 -4.86691,-2.4292 -0.35511,-5.99436 3.65624,-5.33008 11.85885,-2.46897 16.01921,-19.34745 6.69336,-27.05273 -3.27305,-3.38145 -8.10624,-3.98344 -12.43164,-4.42578 -0.92283,-3.30767 1.42113,-6.65347 4.43164,-4.01953 10.03524,4.41754 22.37633,-4.25248 21.6836,-14.720705 0.12379,-7.255395 -5.40124,-14.067894 -12.51953,-15.458984 -1.42048,-2.070731 2.95655,-8.464755 4.78711,-5.712891 3.37302,10.730359 19.28707,14.120287 26.5957,5.164062 7.84156,-7.969777 3.71347,-22.755244 -6.97266,-25.716796 -0.48398,-3.76472 5.73317,-4.962748 8.34442,-7.220824 2.10138,-0.891664 8.97196,-5.937927 7.89191,-1.49402 -8.37095,8.640273 -2.50148,24.856087 9.46094,26.130859 11.76289,2.399623 22.2561,-11.201944 16.94336,-21.966797 -2.13641,-4.999955 -7.01222,-8.698893 -12.41406,-9.36914 -2.01357,-3.143139 5.75337,-3.017955 7.41211,-3.203125 z m 23.3789,8.167969 c -12.14251,0.05629 -19.62555,15.874784 -11.87109,25.277343 6.76122,10.04932 23.952758,7.536618 27.583982,-4.003906 4.098141,-10.287329 -4.664786,-22.164008 -15.712892,-21.273437 z m -25.94336,45.546874 c 21.90122,-0.517242 39.888538,20.984168 37.583986,42.347658 -0.836177,21.056 -21.203996,39.34109 -42.408206,35.95508 -22.1357,-2.47479 -37.31957,-26.67806 -31.93164,-47.86914 3.50381,-17.02854 19.1183,-30.681305 36.75586,-30.433598 z m -47.26953,12.861329 c 2.05468,0.244349 -2.58169,-2.487581 0,0 z m -1.16406,0.490229 c 2.5192,1.52161 -1.43519,-2.561173 0,0 z m 102.728514,57.33594 c -12.490232,0.0391 -19.842356,16.66925 -11.373047,25.91016 7.250703,9.68344 24.269917,6.32184 27.332031,-5.36328 3.480628,-10.18423 -5.224,-21.39598 -15.958984,-20.54688 z m -27.783204,20.41211 c -12.48968,0.0392 -19.84379,16.66929 -11.37305,25.91016 7.25071,9.68344 24.269921,6.32184 27.332035,-5.36328 3.480628,-10.18423 -5.224,-21.39598 -15.958985,-20.54688 z"
       style="opacity:1;fill:#000000;fill-opacity:0.20652173;stroke:none;stroke-width:3.61048102;stroke-linecap:round;stroke-linejoin:round;stroke-miterlimit:4;stroke-dasharray:none;stroke-dashoffset:0;stroke-opacity:1" />
    <path
       inkscape:connector-curvature="0"
       id="path907"
       d="m -128.56055,17.082031 c -44.84427,-0.07612 -85.98594,33.034971 -98.54101,75.492188 -13.51822,42.141071 0.42858,92.248941 35.24023,120.021481 23.05133,18.91876 54.35676,26.93583 83.60742,21.56641 35.683706,-1.73522 73.134847,-17.88074 91.492104,-50.03615 C 3.2807653,149.54966 3.3562123,104.53077 -16.289062,69.748047 -32.83264,41.518222 -63.741992,23.887984 -95.677734,20.427734 -106.65671,19.292858 -117.54934,16.948592 -128.56055,17.082031 Z m 5.73633,15.351563 c 38.661108,1.439062 73.962683,31.613888 82.496095,69.083986 -1.058883,3.56643 -5.09174,0.31895 -5.429687,-2.037111 -3.696812,-5.377041 -10.807316,-6.55429 -16.689454,-5.738281 -2.945,-4.143147 4.227888,-6.066849 4.220704,-10.119141 4.481567,-11.137427 -8.845679,-23.863338 -19.869141,-18.482422 -10.877997,4.098846 -12.391382,21.447689 -1.605469,26.681641 3.739052,2.668532 8.489547,1.398702 12.373047,2 2.322605,4.278835 -4.689747,6.076126 -4.582031,10.332034 -4.019373,11.30486 9.629275,23.62121 20.486328,17.76562 6.193573,-2.53792 8.698322,-9.51522 9.200606,-15.42181 4.272327,-1.76345 4.465571,4.86285 4.432206,7.55072 2.09171,14.33972 0.457806,28.77916 -3.779267,42.32782 -11.406244,37.77634 -49.870026,66.97483 -89.812527,63.76593 -2.62913,-1.08889 -10.47637,-0.99037 -8.16211,-5.17969 2.93107,-1.93008 6.78239,0.79688 9.95898,-1.14648 10.78769,-3.31061 13.6594,-19.88148 3.89844,-26.23829 -9.11652,-6.93803 -24.41416,0.39516 -23.61914,12.17969 -0.28289,6.14494 4.44785,10.88145 8.71291,14.17428 -0.59602,4.38665 -6.19294,1.47587 -8.31643,-0.10397 -5.35445,-3.11528 -13.08534,-5.06343 -15.71679,-11.14453 5.38348,-3.15292 11.74096,-7.04152 12.14843,-14.08007 1.35248,-10.70793 -10.88906,-20.38541 -20.83007,-15.25782 -4.6405,1.71262 -6.98968,6.47211 -9.21485,10.23242 -4.59061,0.89019 -8.82253,-8.58505 -2.35351,-8.70507 7.80725,-1.92583 11.85206,-10.51287 11.02148,-17.88672 4.45923,-2.54504 5.56239,4.59407 8.46289,6.48828 16.97525,20.18613 50.1694,23.1308 70.318361,5.82812 22.795219,-18.16793 26.743554,-54.64964 8.345703,-77.324214 -14.434844,-18.819541 -42.853594,-26.073683 -63.919924,-14.154297 -23.94689,12.177759 -34.88751,43.010741 -25.37304,67.812501 2.59373,2.8345 -1.16399,6.03112 -3.64063,3.51953 -4.70574,-4.58904 -12.81263,-4.38009 -17.95898,-0.56055 -4.66989,0.41333 -4.59417,-6.4997 -0.19336,-6.8789 8.78305,0.47118 15.31454,-8.81022 13.93554,-17.00977 -0.83189,-7.96682 -8.93721,-12.99327 -16.51367,-12.73828 -3.48006,-2.83205 1.42821,-9.70622 5.06446,-5.87695 10.69992,4.74395 23.85886,-7.017255 19.50976,-18.224612 -1.49086,-5.743204 -7.02771,-8.974782 -11.92773,-10.953126 -1.26943,-3.438006 3.64098,-10.135612 6.79101,-6.171874 3.41323,11.237646 21.12159,13.137548 26.70313,2.535156 4.8233,-7.616983 0.61119,-19.400577 -8.31055,-21.808594 -2.70586,-4.532398 4.71568,-6.735213 7.52539,-8.587891 2.84257,-1.162837 7.46469,-6.103597 10.0293,-2.537109 -0.52695,3.729898 -4.55842,6.774416 -3.95899,11.121094 -0.63672,9.604216 9.09652,18.105617 18.5293,15.277344 10.00422,-2.464691 14.96391,-16.184047 7.62109,-24.019532 -2.43007,-3.688949 -7.41245,-4.112168 -10.43164,-6.3125 -0.59989,-4.918025 7.63666,-3.609898 10.42383,-3.976562 z m 22.14258,10.085937 c -12.20168,-0.565342 -19.55175,16.535455 -10.66602,25.001953 7.63363,8.920518 24.439105,3.996979 25.638676,-7.800781 1.563756,-8.786511 -6.256897,-17.739389 -14.972656,-17.201172 z M -126.1582,86.09375 c 23.48706,0.08168 41.790566,24.86175 37.142575,47.43359 -3.091146,21.79019 -26.845255,38.58562 -48.345705,31.8711 -22.32683,-6.00814 -34.86695,-33.40462 -25.66406,-54.44922 5.77947,-14.728368 20.83358,-25.553152 36.86719,-24.85547 z m -49.42578,13.003906 c 1.37098,0.102185 -1.72422,-0.840095 0,0 z m 1.21875,-0.08789 c -1.32186,0.729585 0.0635,1.218294 0,0 z m 116.378902,28.667964 c -10.667215,-0.31522 -17.868079,12.74625 -12.308594,21.73047 4.544975,10.28235 20.390937,10.26524 25.671875,0.68555 5.120869,-7.51263 0.866942,-19.65784 -8.4375,-21.76367 -1.597408,-0.45899 -3.26315,-0.6901 -4.925781,-0.65235 z m -14.359375,31.07813 c -12.314236,-0.60575 -19.544229,16.8532 -10.466797,25.16602 7.664705,8.84081 24.455613,3.61695 25.474609,-8.16211 1.448606,-8.66296 -6.185159,-17.47553 -15.007812,-17.00391 z m -27.783207,20.41211 c -12.55599,-0.56738 -19.63127,17.27213 -10.14453,25.51562 7.98516,8.53782 24.530439,2.85803 25.214846,-8.95703 1.129331,-8.5352 -6.409095,-17.01764 -15.070316,-16.55859 z"
       style="opacity:1;fill:#000000;fill-opacity:0.20652173;stroke:none;stroke-width:3.61048102;stroke-linecap:round;stroke-linejoin:round;stroke-miterlimit:4;stroke-dasharray:none;stroke-dashoffset:0;stroke-opacity:1" />
    <path
       inkscape:connector-curvature="0"
       id="path911"
       d="m -130.62695,18.103516 c -47.12194,0.923108 -89.28119,38.843509 -98.16602,84.697264 -9.73145,44.38294 10.05819,94.64058 50.00977,117.71289 21.53454,12.86154 47.68333,16.97551 72.14843,12.5586 35.075443,-2.02743 71.865495,-18.54904 89.50305,-50.32105 C 4.3336554,144.72096 2.1780059,93.800731 -24.867188,59.097656 -43.655361,35.622907 -73.229285,22.555891 -102.89582,20.550767 c -9.21411,-1.262784 -18.39595,-2.751203 -27.73113,-2.447251 z m 9.66211,13.419922 c 38.505883,2.384894 73.580514,32.63281 81.583981,70.318362 -1.449279,4.55278 -7.062162,1.08156 -7.542969,-2.267581 -3.816018,-5.239909 -10.806436,-4.978175 -16.365234,-5.291016 -3.382658,-5.083905 4.787716,-7.574525 4.607421,-12.474609 2.820083,-11.183431 -11.711439,-21.769165 -21.269531,-14.623047 -9.171938,5.769003 -7.80071,21.914432 3.105469,24.921875 3.391701,1.630194 11.432867,-1.778058 10.921875,4.115234 -1.401607,3.888684 -6.024586,6.017984 -5.625,10.734374 -1.389209,11.12527 13.247787,20.23598 22.183594,12.6543 4.696386,-3.36152 5.202046,-9.11599 6.802734,-14.05274 5.665532,-1.91352 5.947239,6.08222 5.949219,9.71289 4.609739,35.6695 -12.409415,73.36498 -43.234375,92.33594 -16.883893,10.48622 -38.056354,17.02954 -57.789064,12.05469 -1.998,0.15553 -2.89001,-2.88988 -3.82031,-2.75195 -5.84242,1.31621 -10.32543,-4.69979 -15.69141,-6.06446 -3.34638,-1.91893 -8.58328,-4.69121 -7.99023,-9.02148 6.69345,-3.16713 13.77657,-9.6998 11.38476,-17.88672 -2.01791,-9.38919 -14.61181,-14.53466 -21.99218,-8.03711 -3.87515,1.98349 -4.20244,10.1752 -9.31055,8.30469 -4.57722,-1.49188 -6.07015,-10.33475 0.0195,-10.32422 8.03104,-1.92376 10.43829,-10.75168 10.72266,-17.7832 5.55105,-2.81734 6.99683,5.12557 10.46679,7.63476 18.02582,20.50803 53.35759,21.34414 72.130863,1.23828 21.443806,-21.06747 20.816391,-60.09097 -2.53125,-79.474606 -16.929583,-14.853069 -43.947683,-16.976845 -62.037673,-3.080393 -19.8213,14.039024 -27.82277,42.772909 -17.86467,65.060859 0.099,4.24183 -5.63164,4.48519 -7.49609,1.33399 -5.0015,-3.62614 -11.62209,-1.93831 -16.45704,0.80078 -6.0402,0.0446 -4.63071,-9.98196 1.10547,-8.87891 12.29511,-0.23134 16.91672,-18.99912 6.26953,-25.03711 -3.14476,-3.03294 -8.32983,-1.5974 -11.26367,-4.0664 -2.67704,-4.35315 3.70519,-10.43314 7.51953,-6.26368 10.7063,4.32076 22.94751,-8.856776 17.00196,-19.128902 -2.01365,-4.967071 -7.92367,-6.457565 -11.35938,-9.466797 -1.29729,-4.578308 5.17995,-11.501263 8.82617,-6.33789 3.41084,11.465288 22.36434,11.905049 25.9375,0.25 3.13265,-7.868244 -2.39356,-16.50958 -9.64453,-19.248047 -2.04153,-6.035284 6.21176,-7.807206 9.89063,-10.363282 2.356,-2.253354 8.91781,-5.204798 9.72851,-0.152343 -1.92525,4.961384 -5.84989,9.787072 -3.25976,15.451172 2.62786,9.911532 16.78488,13.353082 23.26758,5.318359 6.88044,-6.795367 3.913,-19.872066 -5.56446,-22.363281 -3.40258,-0.371538 -6.60938,-4.365172 -2.82031,-6.63086 3.497,-1.7845 7.73134,-1.040871 11.50391,-1.169921 z m 20.3125,11.996093 c -12.15757,-0.692918 -18.76768,17.592026 -8.53907,24.730469 8.541,7.256073 24.265344,-0.11932 22.646488,-11.769531 -0.54778,-6.9804 -6.917434,-13.389432 -14.107418,-12.960938 z m -26.9961,41.542969 c 25.41242,-0.996461 45.598743,26.61694 39.259768,50.70508 -4.347848,22.52985 -30.674938,38.64331 -52.410158,29.58008 -23.43317,-8.58216 -33.90333,-40.2955 -19.97306,-61.09961 6.95895,-11.310633 19.70047,-19.202085 33.12345,-19.18555 z m -48.15039,13.197266 c -1.35481,3.215294 1.70281,-0.339971 0,0 z m 0.70703,0.570312 c 1.78975,2.229702 0.77981,-0.08411 0,0 z m 116.183597,29.855472 c -10.466761,0.43385 -16.000925,14.49057 -9.322266,22.34765 6.43558,9.15115 22.786967,5.36066 24.546875,-5.75586 1.952918,-9.24645 -5.996428,-17.61222 -15.224609,-16.59179 z m -13.416016,31.07031 c -12.115808,-0.6974 -18.573428,17.45347 -8.671875,24.58398 8.510369,7.57426 24.412228,0.0687 22.794922,-11.71875 -0.553592,-6.98442 -6.966239,-13.27584 -14.123047,-12.86523 z m -27.783201,20.41211 c -12.29531,-0.70969 -18.66693,17.93234 -8.33594,24.86523 8.762442,7.24649 24.421972,-0.68844 22.421876,-12.37695 -0.740809,-6.83472 -7.059058,-12.88752 -14.085936,-12.48828 z m -34.23242,5.72461 c -9.07023,-0.15134 -16.92319,9.52006 -13.21289,18.33008 1.59929,3.9341 5.51864,7.82827 8.54296,9.36328 4.21718,-0.67163 8.90728,0.88008 12.49024,-2.38672 8.49213,-5.85385 7.5383,-21.06592 -2.72852,-24.47266 -1.61761,-0.61986 -3.36236,-0.8872 -5.09179,-0.83398 z"
       style="opacity:1;fill:#000000;fill-opacity:0.20652173;stroke:none;stroke-width:3.61048102;stroke-linecap:round;stroke-linejoin:round;stroke-miterlimit:4;stroke-dasharray:none;stroke-dashoffset:0;stroke-opacity:1" />
    <path
       inkscape:connector-curvature="0"
       id="path915"
       d="m -130.5957,19.103516 c -49.22164,0.913557 -92.65433,42.718447 -98.52998,91.128354 -6.8311,45.11612 16.88363,94.55901 59.06123,113.79743 20.57243,9.94767 44.23735,11.63248 66.63281,7.81445 35.775503,-2.82207 72.569128,-21.35778 88.269531,-54.97266 C 4.373301,137.31645 -0.62335598,84.8424 -32.119141,52.46875 -51.773797,32.497369 -79.490926,22.743122 -106.99534,20.991964 c -7.78313,-1.087807 -15.67508,-2.14603 -23.60036,-1.888448 z m 4.51953,11.373046 c 40.981704,-0.333582 79.739431,31.612386 87.634764,71.708988 -1.122082,1.96165 -1.752622,2.26142 0.521484,3.38672 3.728505,5.73016 2.057279,13.27779 3.039063,19.75976 0.948009,38.36475 -22.85116,76.4633 -58.879532,90.59108 -14.321429,5.89576 -31.154629,9.00367 -46.075549,3.93041 -1.90507,-3.2968 -6.43559,-0.89792 -9.19922,-3.55664 -5.47624,-4.50073 -15.252,-5.34976 -17.12109,-13.22852 0.54622,-3.87547 6.39054,-4.32289 8.4668,-7.86914 7.76839,-7.40658 0.88607,-21.07984 -9.28125,-21.17188 -6.42206,-0.81726 -10.89387,4.71846 -13.45508,9.89649 -5.7594,5.75274 -13.67839,-6.28296 -7.40039,-10.3418 6.94877,-0.65295 11.45597,-6.94589 12.12109,-13.56836 -0.86683,-3.91509 2.62894,-7.17665 6.15625,-4.71289 4.22382,4.54073 7.43593,10.15186 12.80664,13.66406 20.59065,15.75241 53.4145,11.8408 68.634046,-9.57253 18.031942,-23.04436 13.517701,-60.877322 -11.716075,-76.911841 -18.300861,-12.547398 -45.261311,-10.99749 -61.023441,4.972656 -16.11168,15.201985 -20.9502,40.301075 -12.3164,60.517575 -0.47543,5.29824 -7.68316,4.72633 -9.95899,1.07422 -5.35977,-3.32091 -11.17598,0.49874 -16.30468,1.42383 -6.38542,-1.5792 -3.41464,-12.504 2.95898,-10.75977 13.43838,-0.99735 14.38086,-23.5807 0.63672,-25.14257 -4.45781,0.42716 -10.01294,-3.23743 -7.04688,-8.05274 1.74516,-3.8131 6.81041,-4.53945 9.72266,-1.74609 10.49422,3.17152 20.99548,-10.721737 13.93945,-19.666018 -2.50063,-4.769122 -12.0646,-4.842264 -10.55468,-11.33789 0.59093,-5.255247 9.07505,-9.113262 11.05273,-2.683594 4.269,10.634091 22.94585,9.063411 24.32813,-2.8125 1.48833,-7.299191 -4.19824,-13.646791 -10.2793,-16.552734 -2.16837,-7.280236 7.22132,-8.94678 11.36133,-12.341797 2.84721,-2.748919 10.26075,-3.638659 10.14062,1.925781 -2.72536,5.247951 -5.96381,11.588673 -2.26562,17.230469 4.36859,8.5087 18.02454,8.809512 22.4082,0.197265 4.62012,-7.378207 -0.41292,-17.939432 -8.9375,-19.074218 -4.16754,-1.410863 -4.18956,-7.845018 0.55664,-8.47461 1.71518,-0.562299 3.53597,-0.695423 5.33008,-0.701172 z m 24.34179,14.033204 c -11.57751,0.496064 -16.09383,18.845001 -5.25585,24.078125 8.743409,5.290463 22.314696,-3.263026 19.169918,-13.81836 -1.424195,-6.177541 -7.453588,-11.03221 -13.914068,-10.259765 z m 28.080083,21.373046 c -10.559246,0.584887 -15.044125,15.084699 -7.910156,22.289063 3.733139,4.692465 9.999371,2.56504 14.869141,4.121094 4.916954,3.825445 -1.896871,8.663151 -3.533204,12.216801 -3.630747,11.04273 11.24779,22.07834 20.261719,14.30273 4.454257,-3.09682 5.475596,-10.1145 6.398438,-14.08789 -4.261384,-1.44922 -4.281406,-7.343211 -9.097657,-8.109376 -3.789015,-1.981461 -9.376853,0.312065 -12.066406,-2.914062 -2.036665,-5.879981 6.700731,-8.447054 5.404297,-14.496094 0.129561,-7.353475 -7.143467,-13.716942 -14.326172,-13.322266 z m -52.792973,18.154297 c 26.30939,-0.134186 46.447698,29.420951 38.552739,54.089841 -5.781959,23.29397 -34.759589,38.40804 -56.560549,26.75977 -23.49367,-11.13282 -31.51761,-45.51391 -14.2168,-65.347658 7.70007,-9.64887 19.77871,-15.841867 32.22461,-15.501953 z m -49.79882,14.613282 c 0.29675,1.309484 1.87751,-0.112997 0,0 z m 1.48437,0.394531 c -0.67886,1.071198 0.23026,-0.159043 0,0 z m 116.750001,30.572268 c -11.287218,-0.33187 -16.393826,16.29722 -7.509765,22.90039 8.130722,6.88452 22.956296,-0.30943 21.0625,-11.40235 -0.640218,-6.60445 -6.923284,-11.94042 -13.552735,-11.49804 z m -15.392578,31.12695 c -11.459345,0.51142 -15.987709,18.65186 -5.404297,23.98242 8.650925,5.54459 22.642726,-3.23775 19.322266,-13.84179 -1.447416,-6.15387 -7.507063,-10.89248 -13.917969,-10.14063 z m -27.794923,20.41211 c -11.72381,0.64122 -15.97682,19.06324 -5.01367,24.20117 9.17529,5.28866 22.816776,-4.28621 18.71289,-14.89844 -1.766079,-5.76653 -7.597087,-10.00674 -13.69922,-9.30273 z m -33.125,5.73633 c -10.05418,-0.56335 -17.32054,12.66776 -10.33203,20.35742 2.55586,3.97378 6.58797,6.20165 11.3125,5.14062 12.11963,0.35153 15.82215,-18.77228 5.42773,-24.01757 -1.97485,-0.99704 -4.18705,-1.57122 -6.4082,-1.48047 z"
       style="opacity:1;fill:#000000;fill-opacity:0.20652173;stroke:none;stroke-width:3.61048102;stroke-linecap:round;stroke-linejoin:round;stroke-miterlimit:4;stroke-dasharray:none;stroke-dashoffset:0;stroke-opacity:1" />
  </g>
  <path
     style="opacity:1;fill:url(#linearGradient893);fill-opacity:1.0;stroke:none;stroke-width:2.9064858;stroke-linecap:square;stroke-linejoin:round;stroke-miterlimit:4;stroke-dasharray:none;stroke-dashoffset:0;stroke-opacity:1"
     d="M 123.74219 83.107422 A 39.722214 41.913445 0 0 0 84.021484 125.01953 A 39.722214 41.913445 0 0 0 123.74219 166.93359 A 39.722214 41.913445 0 0 0 136.70898 164.58594 A 39.722214 41.913445 0 0 1 110.69922 125.30469 A 39.722214 41.913445 0 0 1 137.45312 85.738281 A 39.722214 41.913445 0 0 0 123.74219 83.107422 z "
     id="path880" />
  <path
     inkscape:connector-curvature="0"
     id="path4184"
     d="M 139.62403,15.917512 C 81.552919,15.463159 34.473529,64.951636 34.472727,125.43887 c -2.65e-4,60.48802 47.078141,109.7598 105.151303,109.52337 69.71,-0.2838 113.09834,-49.03536 113.09807,-109.52337 C 252.7213,64.951642 212.17142,16.485128 139.62403,15.917512 Z m 0,15.652578 c 49.77302,3.7e-5 90.12203,42.026476 90.12214,93.86878 -1.2e-4,51.8423 -40.34913,93.86872 -90.12214,93.86876 -49.773009,-3e-5 -85.581002,-41.17502 -85.581124,-93.01732 1.11e-4,-51.842304 35.808107,-94.720185 85.581124,-94.72022 z"
     style="opacity:1;fill:url(#linearGradient4186);fill-opacity:1;stroke:none;stroke-width:3.61048102;stroke-linecap:round;stroke-linejoin:round;stroke-miterlimit:4;stroke-dasharray:none;stroke-dashoffset:0;stroke-opacity:1"
     sodipodi:nodetypes="ssssssssss" />
  <path
     style="opacity:1;fill:url(#linearGradient4383);fill-opacity:1;stroke:#2e2e2e;stroke-width:3.61048102;stroke-linecap:round;stroke-linejoin:round;stroke-miterlimit:4;stroke-dasharray:none;stroke-dashoffset:0;stroke-opacity:1"
     d="M 123.17948,15.350827 A 105.15127,109.52287 0 0 0 18.028187,124.87218 105.15127,109.52287 0 0 0 123.17948,234.39555 105.15127,109.52287 0 0 0 228.33077,124.87218 105.15127,109.52287 0 0 0 123.17948,15.350827 Z m 0,15.652578 a 90.122204,93.86899 0 0 1 90.12214,93.868775 90.122204,93.86899 0 0 1 -90.12214,93.86876 90.122204,93.86899 0 0 1 -90.122134,-93.86876 90.122204,93.86899 0 0 1 90.122134,-93.868775 z"
     id="ellipse4346"
     inkscape:connector-curvature="0" />
  <path
     style="color:#000000;font-style:normal;font-variant:normal;font-weight:normal;font-stretch:normal;font-size:medium;line-height:normal;font-family:sans-serif;text-indent:0;text-align:start;text-decoration:none;text-decoration-line:none;text-decoration-style:solid;text-decoration-color:#000000;letter-spacing:normal;word-spacing:normal;text-transform:none;direction:ltr;block-progression:tb;writing-mode:lr-tb;baseline-shift:baseline;text-anchor:start;white-space:normal;clip-rule:nonzero;display:inline;overflow:visible;visibility:visible;opacity:1;isolation:auto;mix-blend-mode:normal;color-interpolation:sRGB;color-interpolation-filters:linearRGB;solid-color:#000000;solid-opacity:1;fill:url(#linearGradient4374);fill-opacity:1;fill-rule:nonzero;stroke:none;stroke-width:3.47256923;stroke-linecap:round;stroke-linejoin:round;stroke-miterlimit:4;stroke-dasharray:none;stroke-dashoffset:0;stroke-opacity:1;color-rendering:auto;image-rendering:auto;shape-rendering:auto;text-rendering:auto;enable-background:accumulate"
     d="M 123.47341,13.544083 C 64.383595,13.54407 16.51657,63.44804 16.516844,124.87275 c -2.7e-4,61.4247 47.866754,111.32867 106.956566,111.32866 59.08983,2e-5 106.95686,-49.90396 106.95659,-111.32866 C 230.43027,63.448037 182.56326,13.544065 123.47341,13.544083 Z m 0,3.610572 c 57.05746,-1.8e-5 103.34629,48.166753 103.34602,107.718095 2.6e-4,59.55133 -46.28856,107.71811 -103.34602,107.71809 C 66.415975,232.59085 20.127154,184.42408 20.127415,124.87275 20.12715,65.321412 66.415972,17.154642 123.47341,17.154655 Z m 0,12.044037 c -50.789179,4.1e-5 -91.927293,42.895075 -91.92741,95.674058 1.21e-4,52.77897 41.138234,95.67401 91.92741,95.67405 50.7892,-4e-5 91.92731,-42.89508 91.92743,-95.67405 -1.1e-4,-52.778986 -41.13823,-95.674021 -91.92743,-95.674058 z m 0,3.610573 c 48.75684,3.4e-5 88.31674,41.15786 88.31686,92.063485 -1.2e-4,50.90561 -39.56002,92.06345 -88.31686,92.06348 -48.756808,-4e-5 -88.316721,-41.15787 -88.316839,-92.06348 1.13e-4,-50.905622 39.560028,-92.063447 88.316839,-92.063485 z"
     id="path4338"
     inkscape:connector-curvature="0" />
  <path
     sodipodi:nodetypes="ssssssssss"
     style="opacity:1;fill:url(#linearGradient887);fill-opacity:1;stroke:none;stroke-width:1.95794916;stroke-linecap:round;stroke-linejoin:round;stroke-miterlimit:4;stroke-dasharray:none;stroke-dashoffset:0;stroke-opacity:1"
     d="m 127.72699,68.832271 c -31.913093,-0.24314 -57.785666,26.239905 -57.786106,58.608779 -1.46e-4,32.36929 25.871886,58.73637 57.786106,58.60985 38.30927,-0.15186 62.15342,-26.24057 62.15327,-58.60985 -4.4e-4,-32.36887 -22.28472,-58.305028 -62.15327,-58.608779 z m 0,8.376251 c 27.35286,2e-5 49.52674,22.489863 49.5268,50.232528 -7e-5,27.74267 -22.17395,50.2325 -49.5268,50.23252 -27.35285,-1e-5 -47.031208,-22.03423 -47.031276,-49.77688 6.1e-5,-27.74267 19.678416,-50.688149 47.031276,-50.688168 z"
     id="path885"
     inkscape:connector-curvature="0" />
  <path
     style="opacity:1;fill:url(#linearGradient4392);fill-opacity:1;stroke:#2e2e2e;stroke-width:3.59863877;stroke-linecap:round;stroke-linejoin:round;stroke-miterlimit:4;stroke-dasharray:none;stroke-dashoffset:0;stroke-opacity:1"
     d="m 123.4626,70.70961 a 52.377203,54.554756 0 0 0 -52.377907,54.55374 52.377203,54.554756 0 0 0 52.377907,54.55576 52.377203,54.554756 0 0 0 52.3779,-54.55576 52.377203,54.554756 0 0 0 -52.3779,-54.55374 z m 0,14.445514 a 38.507052,40.107963 0 0 1 38.5072,40.108226 38.507052,40.107963 0 0 1 -38.5072,40.10821 38.507052,40.107963 0 0 1 -38.50721,-40.10821 38.507052,40.107963 0 0 1 38.50721,-40.108226 z"
     id="ellipse4350"
     inkscape:connector-curvature="0" />
  <path
     style="color:#000000;font-style:normal;font-variant:normal;font-weight:normal;font-stretch:normal;font-size:medium;line-height:normal;font-family:sans-serif;text-indent:0;text-align:start;text-decoration:none;text-decoration-line:none;text-decoration-style:solid;text-decoration-color:#000000;letter-spacing:normal;word-spacing:normal;text-transform:none;writing-mode:lr-tb;direction:ltr;baseline-shift:baseline;text-anchor:start;white-space:normal;clip-rule:nonzero;display:inline;overflow:visible;visibility:visible;opacity:1;isolation:auto;mix-blend-mode:normal;color-interpolation:sRGB;color-interpolation-filters:linearRGB;solid-color:#000000;solid-opacity:1;fill:url(#linearGradient4364);fill-opacity:1.0;fill-rule:nonzero;stroke:none;stroke-width:3.47256923;stroke-linecap:round;stroke-linejoin:round;stroke-miterlimit:4;stroke-dasharray:none;stroke-dashoffset:0;stroke-opacity:1;color-rendering:auto;image-rendering:auto;shape-rendering:auto;text-rendering:auto;enable-background:accumulate"
     d="m 123.4626,69.09555 c -29.939812,7.92e-4 -54.175777,25.291906 -54.175225,56.35513 5.62e-4,31.0624 24.236193,56.35231 54.175225,56.3531 29.93988,4.1e-4 54.17671,-25.28985 54.17727,-56.3531 5.5e-4,-31.064073 -24.23661,-56.355547 -54.17727,-56.35513 z m 0,3.598729 c 27.91492,-3.89e-4 50.57907,23.559588 50.57854,52.756401 -5.2e-4,29.19603 -22.66436,52.75476 -50.57854,52.75437 C 95.549218,178.20431 72.886633,154.64592 72.886104,125.45068 72.885585,96.254667 95.548478,72.695018 123.4626,72.694279 Z m 0,10.848812 c -22.27904,0.0011 -40.304678,18.823639 -40.304534,41.907589 -1.38e-4,23.08393 18.025494,41.90645 40.304534,41.90758 22.27989,1e-4 40.30672,-18.82279 40.30659,-41.90758 1.3e-4,-23.08481 -18.0267,-41.907688 -40.30659,-41.907589 z m 0,3.598729 c 20.25417,-9e-5 36.70799,17.09129 36.70786,38.30886 1.2e-4,21.21756 -16.45369,38.30894 -36.70786,38.30885 -20.25338,-0.001 -36.705932,-17.09208 -36.705805,-38.30885 C 86.756663,104.2339 103.20921,87.142845 123.4626,87.14182 Z"
     id="ellipse4342"
     inkscape:connector-curvature="0" />
  <circle
     style="opacity:1;fill:url(#radialGradient4402);fill-opacity:1;stroke:#dedede;stroke-width:0.5;stroke-linecap:round;stroke-linejoin:round;stroke-miterlimit:4;stroke-dasharray:none;stroke-dashoffset:0;stroke-opacity:1"
     id="path4394"
     cx="116.5186"
     cy="50.741371"
     r="16.839991"
     inkscape:transform-center-x="5.6699889"
     inkscape:transform-center-y="-71.44186" />
  <circle
     inkscape:transform-center-y="-71.44186"
     inkscape:transform-center-x="5.6699889"
     r="16.839991"
     cy="55.844364"
     cx="150.25502"
     id="circle4406"
     style="opacity:1;fill:url(#radialGradient4408);fill-opacity:1;stroke:#dedede;stroke-width:0.5;stroke-linecap:round;stroke-linejoin:round;stroke-miterlimit:4;stroke-dasharray:none;stroke-dashoffset:0;stroke-opacity:1" />
  <circle
     style="opacity:1;fill:url(#radialGradient4412);fill-opacity:1;stroke:#dedede;stroke-width:0.5;stroke-linecap:round;stroke-linejoin:round;stroke-miterlimit:4;stroke-dasharray:none;stroke-dashoffset:0;stroke-opacity:1"
     id="circle4410"
     cx="178.32147"
     cy="77.390312"
     r="16.839991"
     inkscape:transform-center-x="5.6699889"
     inkscape:transform-center-y="-71.44186" />
  <circle
     inkscape:transform-center-y="-71.44186"
     inkscape:transform-center-x="5.6699889"
     r="16.839991"
     cy="106.87427"
     cx="193.06346"
     id="circle4414"
     style="opacity:1;fill:url(#radialGradient4416);fill-opacity:1;stroke:#dedede;stroke-width:0.5;stroke-linecap:round;stroke-linejoin:round;stroke-miterlimit:4;stroke-dasharray:none;stroke-dashoffset:0;stroke-opacity:1" />
  <circle
     style="opacity:1;fill:url(#radialGradient4420);fill-opacity:1;stroke:#dedede;stroke-width:0.5;stroke-linecap:round;stroke-linejoin:round;stroke-miterlimit:4;stroke-dasharray:none;stroke-dashoffset:0;stroke-opacity:1"
     id="circle4418"
     cx="193.34695"
     cy="140.89421"
     r="16.839991"
     inkscape:transform-center-x="5.6699889"
     inkscape:transform-center-y="-71.44186" />
  <circle
     inkscape:transform-center-y="-71.44186"
     inkscape:transform-center-x="5.6699889"
     r="16.839991"
     cy="172.07915"
     cx="178.60498"
     id="circle4422"
     style="opacity:1;fill:url(#radialGradient4424);fill-opacity:1;stroke:#dedede;stroke-width:0.5;stroke-linecap:round;stroke-linejoin:round;stroke-miterlimit:4;stroke-dasharray:none;stroke-dashoffset:0;stroke-opacity:1" />
  <circle
     style="opacity:1;fill:url(#radialGradient4428);fill-opacity:1;stroke:#dedede;stroke-width:0.5;stroke-linecap:round;stroke-linejoin:round;stroke-miterlimit:4;stroke-dasharray:none;stroke-dashoffset:0;stroke-opacity:1"
     id="circle4426"
     cx="150.82204"
     cy="192.4911"
     r="16.839991"
     inkscape:transform-center-x="5.6699889"
     inkscape:transform-center-y="-71.44186" />
  <circle
     inkscape:transform-center-y="-71.44186"
     inkscape:transform-center-x="5.6699889"
     r="16.839991"
     cy="198.16109"
     cx="116.2351"
     id="circle4430"
     style="opacity:1;fill:url(#radialGradient4432);fill-opacity:1;stroke:#dedede;stroke-width:0.5;stroke-linecap:round;stroke-linejoin:round;stroke-miterlimit:4;stroke-dasharray:none;stroke-dashoffset:0;stroke-opacity:1" />
  <circle
     style="opacity:1;fill:url(#radialGradient4436);fill-opacity:1;stroke:#dedede;stroke-width:0.5;stroke-linecap:round;stroke-linejoin:round;stroke-miterlimit:4;stroke-dasharray:none;stroke-dashoffset:0;stroke-opacity:1"
     id="circle4434"
     cx="83.349167"
     cy="185.40361"
     r="16.839991"
     inkscape:transform-center-x="5.6699889"
     inkscape:transform-center-y="-71.44186" />
  <circle
     inkscape:transform-center-y="-71.44186"
     inkscape:transform-center-x="5.6699889"
     r="16.839991"
     cy="159.03816"
     cx="61.803215"
     id="circle4438"
     style="opacity:1;fill:url(#radialGradient4440);fill-opacity:1;stroke:#dedede;stroke-width:0.5;stroke-linecap:round;stroke-linejoin:round;stroke-miterlimit:4;stroke-dasharray:none;stroke-dashoffset:0;stroke-opacity:1" />
  <circle
     style="opacity:1;fill:url(#radialGradient4444);fill-opacity:1;stroke:#dedede;stroke-width:0.5;stroke-linecap:round;stroke-linejoin:round;stroke-miterlimit:4;stroke-dasharray:none;stroke-dashoffset:0;stroke-opacity:1"
     id="circle4442"
     cx="52.164234"
     cy="125.58523"
     r="16.839991"
     inkscape:transform-center-x="5.6699889"
     inkscape:transform-center-y="-71.44186" />
  <circle
     inkscape:transform-center-y="-71.44186"
     inkscape:transform-center-x="5.6699889"
     r="16.839991"
     cy="90.714783"
     cx="60.669212"
     id="circle4446"
     style="opacity:1;fill:url(#radialGradient4448);fill-opacity:1;stroke:#dedede;stroke-width:0.5;stroke-linecap:round;stroke-linejoin:round;stroke-miterlimit:4;stroke-dasharray:none;stroke-dashoffset:0;stroke-opacity:1" />
  <circle
     style="opacity:1;fill:url(#radialGradient4452);fill-opacity:1;stroke:#dedede;stroke-width:0.5;stroke-linecap:round;stroke-linejoin:round;stroke-miterlimit:4;stroke-dasharray:none;stroke-dashoffset:0;stroke-opacity:1"
     id="circle4450"
     cx="83.632675"
     cy="64.065834"
     r="16.839991"
     inkscape:transform-center-x="5.6699889"
     inkscape:transform-center-y="-71.44186" />
  <path
     style="fill:#aeaeae;fill-opacity:0.33027523;fill-rule:evenodd;stroke:none;stroke-width:1px;stroke-linecap:butt;stroke-linejoin:miter;stroke-opacity:1"
     d="m 20.128775,137.7757 11.623478,-0.8505 C 57.949931,270.04564 224.32029,234.40652 214.04239,116.51324 l 12.47397,-0.8505 C 233.92116,245.93715 51.151992,284.97293 20.128775,137.7757 Z"
     id="path4454"
     inkscape:connector-curvature="0"
     sodipodi:nodetypes="ccccc" />
</svg>
