<?xml version="1.0" encoding="UTF-8" standalone="no"?>
<!-- Created with Inkscape (http://www.inkscape.org/) -->

<svg
   xmlns:dc="http://purl.org/dc/elements/1.1/"
   xmlns:cc="http://creativecommons.org/ns#"
   xmlns:rdf="http://www.w3.org/1999/02/22-rdf-syntax-ns#"
   xmlns:svg="http://www.w3.org/2000/svg"
   xmlns="http://www.w3.org/2000/svg"
   xmlns:xlink="http://www.w3.org/1999/xlink"
   xmlns:sodipodi="http://sodipodi.sourceforge.net/DTD/sodipodi-0.dtd"
   xmlns:inkscape="http://www.inkscape.org/namespaces/inkscape"
   id="svg1923"
   sodipodi:version="0.32"
   inkscape:version="0.91 r13725"
   width="266"
   height="266"
   sodipodi:docname="gear7_cleaned.svg"
   version="1.1">
  <metadata
     id="metadata1928">
    <rdf:RDF>
      <cc:Work>
        <dc:format>image/svg+xml</dc:format>
        <dc:type
           rdf:resource="http://purl.org/dc/dcmitype/StillImage" />
        <dc:title></dc:title>
      </cc:Work>
    </rdf:RDF>
  </metadata>
  <defs
     id="defs1926">
    <linearGradient
       inkscape:collect="always"
       id="linearGradient4286">
      <stop
         id="stop4288"
         stop-color="#595959"
         stop-opacity="1" />
      <stop
         offset="1"
         id="stop4290"
         stop-color="#b4b4b4"
         stop-opacity="0" />
    </linearGradient>
    <linearGradient
       inkscape:collect="always"
       id="linearGradient4276">
      <stop
         id="stop4278"
         stop-color="#9e9e9e"
         stop-opacity="0" />
      <stop
         offset="1"
         id="stop4280"
         stop-color="#efefef"
         stop-opacity="1" />
    </linearGradient>
    <linearGradient
       id="linearGradient4270"
       inkscape:collect="always">
      <stop
         id="stop4272"
         stop-color="#000000"
         stop-opacity="0" />
      <stop
         id="stop4274"
         offset="1"
         stop-color="#000000"
         stop-opacity="0.129" />
    </linearGradient>
    <linearGradient
       inkscape:collect="always"
       id="linearGradient4239">
      <stop
         id="stop4241"
         stop-color="#656565"
         stop-opacity="1" />
      <stop
         offset="1"
         id="stop4243"
         stop-color="#c5c5c5"
         stop-opacity="1" />
    </linearGradient>
    <linearGradient
       id="linearGradient4221"
       inkscape:collect="always">
      <stop
         id="stop4223"
         stop-color="#545454"
         stop-opacity="1" />
      <stop
         id="stop4225"
         offset="1"
         stop-color="#959595"
         stop-opacity="1" />
    </linearGradient>
    <linearGradient
       id="linearGradient4209"
       inkscape:collect="always">
      <stop
         id="stop4211"
         stop-color="#616161"
         stop-opacity="1" />
      <stop
         id="stop4213"
         offset="1"
         stop-color="#bababa"
         stop-opacity="1" />
    </linearGradient>
    <linearGradient
       id="linearGradient4230"
       inkscape:collect="always">
      <stop
         id="stop4232"
         stop-color="#d0d0d0"
         stop-opacity="1" />
      <stop
         id="stop4234"
         offset="1"
         stop-color="#ffffff"
         stop-opacity="1" />
    </linearGradient>
    <linearGradient
       inkscape:collect="always"
       id="linearGradient4180">
      <stop
         id="stop4182"
         stop-color="#9e9e9e"
         stop-opacity="1" />
      <stop
         offset="1"
         id="stop4184"
         stop-color="#dddddd"
         stop-opacity="1" />
    </linearGradient>
    <linearGradient
       inkscape:collect="always"
       id="linearGradient4172">
      <stop
         id="stop4174"
         stop-color="#b2b2b2"
         stop-opacity="0.506" />
      <stop
         id="stop4296"
         offset="0.513"
         stop-color="#818181"
         stop-opacity="0.663" />
      <stop
         offset="0.741"
         id="stop4298"
         stop-color="#c0c0c0"
         stop-opacity="0.416" />
      <stop
         offset="1"
         id="stop4176"
         stop-color="#9a9a9a"
         stop-opacity="0.318" />
    </linearGradient>
    <linearGradient
       inkscape:collect="always"
       id="linearGradient4156">
      <stop
         id="stop4158"
         stop-color="#9e9e9e"
         stop-opacity="1" />
      <stop
         id="stop4168"
         offset="0.305"
         stop-color="#757575"
         stop-opacity="1" />
      <stop
         id="stop4166"
         offset="0.632"
         stop-color="#cecece"
         stop-opacity="1" />
      <stop
         id="stop4164"
         offset="0.839"
         stop-color="#959595"
         stop-opacity="1" />
      <stop
         offset="1"
         id="stop4160"
         stop-color="#d0d0d0"
         stop-opacity="1" />
    </linearGradient>
    <linearGradient
       id="linearGradient2861">
      <stop
         id="stop2863"
         stop-color="#656565"
         stop-opacity="1" />
      <stop
         id="stop2869"
         offset="0.326"
         stop-color="#818181"
         stop-opacity="1" />
      <stop
         offset="0.51"
         id="stop2871"
         stop-color="#bdbdbd"
         stop-opacity="1" />
      <stop
         id="stop2873"
         offset="0.703"
         stop-color="#e1e1c3"
         stop-opacity="1" />
      <stop
         offset="0.875"
         id="stop2875"
         stop-color="#a7a7a7"
         stop-opacity="1" />
      <stop
         offset="1"
         id="stop2865"
         stop-color="#6d6d4f"
         stop-opacity="1" />
    </linearGradient>
    <linearGradient
       inkscape:collect="always"
       xlink:href="#linearGradient2861"
       id="linearGradient2867"
       x1="369.15"
       y1="127.55"
       x2="387.07"
       y2="73.3"
       gradientUnits="userSpaceOnUse"
       spreadMethod="reflect"
       gradientTransform="translate(-254.0717,7.255717)" />
    <linearGradient
       inkscape:collect="always"
       xlink:href="#linearGradient4156"
       id="linearGradient4162"
       x1="125.45"
       y1="248.01"
       x2="108.01"
       y2="79.37"
       gradientUnits="userSpaceOnUse"
       spreadMethod="reflect" />
    <linearGradient
       inkscape:collect="always"
       xlink:href="#linearGradient4180"
       id="linearGradient4186"
       x1="86.49"
       y1="33.06"
       x2="126.25"
       y2="29.26"
       gradientUnits="userSpaceOnUse" />
    <linearGradient
       inkscape:collect="always"
       xlink:href="#linearGradient4180"
       id="linearGradient4194"
       x1="138.58"
       y1="29.931"
       x2="167.98"
       y2="29.931"
       gradientUnits="userSpaceOnUse" />
    <linearGradient
       inkscape:collect="always"
       xlink:href="#linearGradient4180"
       id="linearGradient4202"
       x1="121.83"
       y1="49.828"
       x2="163.59"
       y2="45.44"
       gradientUnits="userSpaceOnUse" />
    <linearGradient
       inkscape:collect="always"
       xlink:href="#linearGradient4180"
       id="linearGradient4210"
       x1="159.25"
       y1="38.71"
       x2="211.14"
       y2="35.786"
       gradientUnits="userSpaceOnUse" />
    <linearGradient
       inkscape:collect="always"
       xlink:href="#linearGradient4180"
       id="linearGradient4218"
       x1="140.13"
       y1="58.2"
       x2="213.13"
       y2="54.11"
       gradientUnits="userSpaceOnUse" />
    <linearGradient
       inkscape:collect="always"
       xlink:href="#linearGradient4230"
       id="linearGradient4228"
       x1="174.79"
       y1="74.09"
       x2="210.24"
       y2="71.56"
       gradientUnits="userSpaceOnUse" />
    <linearGradient
       inkscape:collect="always"
       xlink:href="#linearGradient4230"
       id="linearGradient4244"
       x1="215.8"
       y1="82.67"
       x2="247.24"
       y2="82.67"
       gradientUnits="userSpaceOnUse" />
    <linearGradient
       inkscape:collect="always"
       xlink:href="#linearGradient4180"
       id="linearGradient4254"
       x1="191.12"
       y1="101.38"
       x2="246.88"
       y2="101.38"
       gradientUnits="userSpaceOnUse" />
    <linearGradient
       inkscape:collect="always"
       xlink:href="#linearGradient4180"
       id="linearGradient4264"
       x1="192.76"
       y1="118.16"
       x2="222.8"
       y2="118.16"
       gradientUnits="userSpaceOnUse" />
    <linearGradient
       inkscape:collect="always"
       xlink:href="#linearGradient4180"
       id="linearGradient4274"
       x1="192.77"
       y1="132.37"
       x2="250.52"
       y2="132.37"
       gradientUnits="userSpaceOnUse" />
    <linearGradient
       inkscape:collect="always"
       xlink:href="#linearGradient4180"
       id="linearGradient4284"
       x1="224.34"
       y1="147.47"
       x2="252.02"
       y2="147.47"
       gradientUnits="userSpaceOnUse" />
    <linearGradient
       inkscape:collect="always"
       xlink:href="#linearGradient4180"
       id="linearGradient4294"
       x1="189.39"
       y1="156.79"
       x2="250.62"
       y2="156.79"
       gradientUnits="userSpaceOnUse" />
    <linearGradient
       inkscape:collect="always"
       xlink:href="#linearGradient4209"
       id="linearGradient4304"
       x1="175.97"
       y1="164.27"
       x2="219.15"
       y2="164.96"
       gradientUnits="userSpaceOnUse" />
    <linearGradient
       inkscape:collect="always"
       xlink:href="#linearGradient4180"
       id="linearGradient4314"
       x1="183.12"
       y1="186.89"
       x2="229.91"
       y2="186.89"
       gradientUnits="userSpaceOnUse" />
    <linearGradient
       inkscape:collect="always"
       xlink:href="#linearGradient4180"
       id="linearGradient4324"
       x1="195.62"
       y1="207.96"
       x2="230.04"
       y2="207.96"
       gradientUnits="userSpaceOnUse" />
    <linearGradient
       inkscape:collect="always"
       xlink:href="#linearGradient4221"
       id="linearGradient4334"
       x1="152.78"
       y1="203.84"
       x2="189.87"
       y2="203.84"
       gradientUnits="userSpaceOnUse" />
    <linearGradient
       inkscape:collect="always"
       xlink:href="#linearGradient4209"
       id="linearGradient4344"
       x1="136.68"
       y1="225.23"
       x2="185.94"
       y2="224.28"
       gradientUnits="userSpaceOnUse" />
    <linearGradient
       inkscape:collect="always"
       xlink:href="#linearGradient4180"
       id="linearGradient4354"
       x1="143.42"
       y1="247.29"
       x2="187.54"
       y2="247.29"
       gradientUnits="userSpaceOnUse" />
    <linearGradient
       inkscape:collect="always"
       xlink:href="#linearGradient4221"
       id="linearGradient4364"
       x1="111.67"
       y1="218.69"
       x2="139.32"
       y2="228.66"
       gradientUnits="userSpaceOnUse" />
    <linearGradient
       inkscape:collect="always"
       xlink:href="#linearGradient4209"
       id="linearGradient4374"
       x1="100.76"
       y1="236.76"
       x2="139.22"
       y2="236.76"
       gradientUnits="userSpaceOnUse" />
    <linearGradient
       inkscape:collect="always"
       xlink:href="#linearGradient4180"
       id="linearGradient4384"
       x1="49.15"
       y1="221.96"
       x2="114.92"
       y2="224.9"
       gradientUnits="userSpaceOnUse" />
    <linearGradient
       inkscape:collect="always"
       xlink:href="#linearGradient4239"
       id="linearGradient4245"
       x1="97.66"
       y1="111.44"
       x2="107.34"
       y2="66.57"
       gradientUnits="userSpaceOnUse"
       spreadMethod="reflect" />
    <linearGradient
       inkscape:collect="always"
       xlink:href="#linearGradient4156"
       id="linearGradient4258"
       x1="165.41"
       y1="134.76"
       x2="175.96"
       y2="81.969"
       gradientUnits="userSpaceOnUse"
       spreadMethod="reflect" />
    <linearGradient
       inkscape:collect="always"
       xlink:href="#linearGradient4270"
       id="linearGradient4268"
       gradientUnits="userSpaceOnUse"
       spreadMethod="pad"
       x1="96.42"
       y1="248.59"
       x2="109.18"
       y2="130.99" />
    <linearGradient
       inkscape:collect="always"
       xlink:href="#linearGradient4276"
       id="linearGradient4282"
       x1="145.15"
       y1="126.93"
       x2="152.21"
       y2="8.151"
       gradientUnits="userSpaceOnUse" />
    <linearGradient
       inkscape:collect="always"
       xlink:href="#linearGradient4286"
       id="linearGradient4292"
       x1="117.71"
       y1="254.16"
       x2="126.3"
       y2="93.74"
       gradientUnits="userSpaceOnUse" />
    <radialGradient
       inkscape:collect="always"
       xlink:href="#linearGradient4172"
       id="radialGradient4294"
       cx="120.38"
       cy="132.21"
       fx="120.38"
       fy="132.21"
       r="105.45"
       gradientTransform="matrix(1,0,0,1.1508968,0,-19.949494)"
       gradientUnits="userSpaceOnUse"
       spreadMethod="reflect" />
    <filter
       inkscape:collect="always"
       style="color-interpolation-filters:sRGB"
       id="filter4398"
       x="-0.036642661"
       width="1.0732853"
       y="-0.035379493"
       height="1.070759">
      <feGaussianBlur
         inkscape:collect="always"
         stdDeviation="3.6075149"
         id="feGaussianBlur4400" />
    </filter>
  </defs>
  <sodipodi:namedview
     inkscape:window-height="1056"
     inkscape:window-width="1920"
     inkscape:pageshadow="2"
     inkscape:pageopacity="0"
     guidetolerance="10.0"
     gridtolerance="10.0"
     objecttolerance="10.0"
     borderopacity="1.0"
     bordercolor="#666666"
     pagecolor="#ffffff"
     id="base"
     inkscape:zoom="3.4097744"
     inkscape:cx="133"
     inkscape:cy="133"
     inkscape:window-x="0"
     inkscape:window-y="0"
     inkscape:current-layer="svg1923"
     showgrid="false"
     inkscape:window-maximized="1" />
  <path
     style="fill:#000000;fill-opacity:0.50537636;fill-rule:evenodd;stroke:none;stroke-width:1;stroke-linecap:butt;stroke-linejoin:miter;stroke-opacity:1;filter:url(#filter4398)"
     d="m 132.24805,16.634767 -1.19336,0.08398 -0.0273,-0.01367 0,0.01563 -12.21679,0.851563 -5.5,13.4375 -0.008,-0.002 0.12891,-0.412109 -24.064452,-2.746094 -10.54883,-1.390625 -0.0273,-0.04297 -0.0645,0.0293 -0.22851,-0.0293 -10.6875,4.90625 0.90625,31.75 -9.06836,7.861331 -23.91992,-8.767581 -0.0645,0.08398 -0.22851,-0.08398 -8.875,11.593751 14.375,24.15625 -5.21875,12.531257 -26.2500002,5.46875 -1.84375,15.28125 23.8125002,11.3125 0,12.84375 -21.9687502,20.15625 2.4375002,13.125 34.21875,7.03125 -12.21875,31.46875 8.53125,9.78125 0.47461,0.0625 -0.17383,0.15625 30.41015,3.80078 6.00977,-5.00782 0.87305,20.20704 12.4375,3.03906 -0.0625,0.16406 10.593752,0.61133 19.5,1.4043 0.12304,-0.27344 0.52539,0.0312 7.7129,-16.85742 6.29492,9.16211 0.375,0.0664 -0.0547,0.0254 28.06836,5.26367 12.86719,-7.60156 -0.95899,-0.0937 -0.004,-0.0332 0.92383,0.0879 -3.47071,-32.125 -0.41211,-0.12109 -0.043,-0.45899 6.33399,-4.30664 8,3.85938 0.22851,0.0449 -0.0723,0.10547 24.0918,5.04882 1.02734,-1.51953 7.72461,-11.02343 -0.12891,-0.21485 0.0332,-0.0488 -0.0684,-0.01 -4.6543,-7.70703 -11.94336,-21.36719 -0.25977,-0.0586 6.10743,-10.75977 -0.28516,-0.10352 30.69531,-5.16015 -0.71679,-0.30078 0.4707,-0.082 0.0195,-0.10743 0.51758,0.19727 2.33984,-15.78906 -0.76562,-0.19727 -15.58985,-7.40039 -14.59179,-7.58203 0.25,-2.85547 1.45703,-7.69531 -0.21094,-0.0606 24.41797,-22.07227 -0.16016,-0.45899 0.22266,0.0762 -4.38672,-14.328127 -20.04883,-7.51758 -4.95117,-2.08203 -0.008,-0.12695 -0.19141,0.043 -0.10156,-0.043 -0.38477,0.0957 -0.0449,-0.0176 0.002,0.0273 -2.60546,0.64648 -4.23633,0.95899 -2.04297,0.46094 -1.37305,0.31054 -0.36914,-1.08203 6.35742,-23.51953 1.02344,-3.501953 -0.0703,-0.02344 0.0879,-0.324218 -3.27735,-2.875 -4.14843,-4.416016 -24.54102,-12.501953 0.38672,0.689453 -0.38867,-0.201172 -0.14453,-0.226562 -0.10547,0.09766 -0.1875,-0.09766 -12.77735,12.041015 -1.36718,-12.998047 -10.625,-5.18164 -16.16797,-8.548828 z m 3.1289,77.054686 a 47.950386,55.135612 0 0 1 15.43555,40.400397 47.950386,55.135612 0 0 1 -17.87695,42.91797 47.950386,55.135612 0 0 1 -23.90039,11.4375 c -30.126052,-38.35761 -8.04854,-86.13432 25.42578,-94.623057 0.30507,-0.0454 0.60916,-0.0941 0.91601,-0.13281 z m 48.32618,66.732437 2.83398,1.19335 c -0.004,0.0184 -0.01,0.0363 -0.0137,0.0547 l -3.06641,-1.10742 0.0527,-0.11523 0.19336,-0.0254 z"
     id="path4235"
     inkscape:connector-curvature="0" />
  <g
     id="g4358"
     transform="translate(3.1111111,-5.3333333)">
    <path
       id="path1932"
       d="m 139.8033,10.411967 -13.4375,0.9375 -5.5,13.4375 -34.8125,-4.59375 -10.6875,4.90625 0.90625,31.75 -9.15625,7.9375 -24.125,-8.84375 -8.875,11.59375 14.375,24.15625 -5.21875,12.531253 -26.25,5.46875 -1.84375,15.28125 23.8125,11.3125 0,12.84375 -21.96875,20.15625 2.4375,13.125 34.21875,7.03125 -12.21875,31.46875 8.53125,9.78125 30.5625,3.96875 6.09375,-6.4375 0.9375,21.6875 12.53125,3.0625 29.9375,2.15625 7.9375,-17.71875 6.71875,9.78125 27.78125,4.875 12.53125,-7.03125 -3.0625,-33.28125 5.5,-4.28125 8.875,4.28125 24.4375,4.875 8.5625,-12.21875 -17.71875,-29.34375 5.5,-10.96875 31.46875,-5.5 2.75,-15.59375 -30.875,-14.65625 0.9375,-10.6875 25.03125,-22.625003 -4.875,-14.03125 -24.75,-10.40625 -11.44321,2.839373 7.78696,-28.808123 -7.65625,-6.71875 -24.75,-12.8125 -12.97446,12.22714 -1.36929,-12.85214 -26.59375,-14.0625 z m 8.34375,76.71875 c 26.18086,-10e-7 47.4375,24.472033 47.4375,54.625003 0,30.15298 -21.25665,54.625 -47.4375,54.625 -26.18083,0 -47.4375,-24.47202 -47.4375,-54.625 0,-30.15297 21.25666,-54.625003 47.4375,-54.625003 z"
       sodipodi:nodetypes="cccccccccccccccccccccccccccccccccccccccccccccccccccsssc"
       inkscape:connector-curvature="0"
       style="fill:#f3f2f3;fill-opacity:1;fill-rule:evenodd;stroke:none;stroke-width:1;stroke-linecap:butt;stroke-linejoin:miter;stroke-opacity:1" />
    <path
       inkscape:connector-curvature="0"
       sodipodi:nodetypes="ccc"
       id="path2859"
       d="M 143.93575,87.154971 C 66.742001,29.905706 27.916454,186.12692 120.11486,186.40871 84.204486,146.71401 108.15517,94.522103 143.93575,87.154971 Z"
       style="fill:url(#linearGradient2867);fill-opacity:1;fill-rule:evenodd;stroke:none;stroke-width:1;stroke-linecap:butt;stroke-linejoin:miter;stroke-opacity:1" />
    <path
       id="path2895"
       d="M 86.490545,20.438591 102.46525,45.674 115.19873,42.89579 120.98666,24.374389 86.490545,20.438591 Z"
       style="fill:url(#linearGradient4186);fill-opacity:1;fill-rule:evenodd;stroke:none;stroke-width:1;stroke-linecap:butt;stroke-linejoin:miter;stroke-opacity:1"
       inkscape:connector-curvature="0" />
    <path
       id="path2897"
       d="m 138.58199,10.483338 2.08366,32.643969 13.65954,6.250973 13.65953,-12.03891 -1.38911,-13.196499 -28.01362,-13.659533 z"
       style="fill:url(#linearGradient4194);fill-opacity:1;fill-rule:evenodd;stroke:none;stroke-width:1;stroke-linecap:butt;stroke-linejoin:miter;stroke-opacity:1"
       inkscape:connector-curvature="0" />
    <path
       id="path2899"
       d="m 141.12869,43.127307 22.4572,-1.85214 -9.02919,8.334631 -13.42801,-6.482491 z"
       style="fill:url(#linearGradient4202);fill-opacity:1;fill-rule:evenodd;stroke:none;stroke-width:1;stroke-linecap:butt;stroke-linejoin:miter;stroke-opacity:1"
       inkscape:connector-curvature="0" />
    <path
       id="path2901"
       d="m 181.18122,24.837424 6.48249,11.575875 25.23541,8.566149 -7.17705,-7.640078 -24.54085,-12.501946 z"
       style="fill:url(#linearGradient4210);fill-opacity:1;fill-rule:evenodd;stroke:none;stroke-width:1;stroke-linecap:butt;stroke-linejoin:miter;stroke-opacity:1"
       inkscape:connector-curvature="0" />
    <path
       sodipodi:nodetypes="ccccc"
       id="path2903"
       d="m 187.43219,36.181782 25.69844,8.797666 -7.90483,27.055433 -30.29556,-5.98734 12.50195,-29.865759 z"
       style="fill:url(#linearGradient4218);fill-opacity:1;fill-rule:evenodd;stroke:none;stroke-width:1;stroke-linecap:butt;stroke-linejoin:miter;stroke-opacity:1"
       inkscape:connector-curvature="0" />
    <path
       id="path1951"
       d="m 126.65908,11.349467 -11.4375,31.3125 -12.9375,2.90625 -15.937505,-25.375 -10.687498,4.90625 0.90625,31.75 -9.15625,7.9375 -24.125,-8.84375 -8.875,11.59375 14.375,24.15625 -5.21875,12.531253 -26.25,5.46875 -1.84375,15.28125 23.8125,11.3125 0,12.84375 -21.96875,20.15625 2.4375,13.125 34.21875,7.03125 -12.21875,31.46875 8.53125,9.78125 25.09375,-21.34375 11.562498,5 0.9375,35.5625 12.531255,3.0625 13.0625,-34.09375 13.40625,-0.34375 18.125,28.65625 11.40625,-5.0625 -2.34375,-37.78125 10.34375,-9.46875 23.34375,12.59375 8.875,4.28125 8.0625,-11.5 -20.21875,-31.5625 6.59375,-14.46875 33.78125,-4.53125 0.46875,-14.125 -31.34375,-14.65625 -1.09375,-12.6875 25.0625,-23.093753 -0.84375,-14.53125 -31.78125,7.1875 -10.09375,-12.8125 12.71875,-29.03125 -6.90625,-10.84375 -26.34375,24.28125 -13.8125,-6.03125 -2.25,-31.9375 -11.96875,-0.0625 z m -10.46875,65.84375 c 26.18085,3e-6 47.4375,24.472033 47.4375,54.625003 -10e-6,30.15298 -21.25665,54.625 -47.4375,54.625 -26.180845,0 -47.437503,-24.47202 -47.437503,-54.625 0,-30.15297 21.256658,-54.625003 47.437503,-54.625003 z"
       inkscape:connector-curvature="0"
       style="fill:url(#linearGradient4162);fill-opacity:1;fill-rule:evenodd;stroke:none;stroke-width:1;stroke-linecap:butt;stroke-linejoin:miter;stroke-opacity:1" />
    <path
       inkscape:connector-curvature="0"
       d="m 126.65908,11.349467 -11.4375,31.3125 -12.9375,2.90625 -15.937505,-25.375 -10.687498,4.90625 0.90625,31.75 -9.15625,7.9375 -24.125,-8.84375 -8.875,11.59375 14.375,24.15625 -5.21875,12.531253 -26.25,5.46875 -1.84375,15.28125 23.8125,11.3125 0,12.84375 -21.96875,20.15625 2.4375,13.125 34.21875,7.03125 -12.21875,31.46875 8.53125,9.78125 25.09375,-21.34375 11.562498,5 0.9375,35.5625 12.531255,3.0625 13.0625,-34.09375 13.40625,-0.34375 18.125,28.65625 11.40625,-5.0625 -2.34375,-37.78125 10.34375,-9.46875 23.34375,12.59375 8.875,4.28125 8.0625,-11.5 -20.21875,-31.5625 6.59375,-14.46875 33.78125,-4.53125 0.46875,-14.125 -31.34375,-14.65625 -1.09375,-12.6875 25.0625,-23.093753 -0.84375,-14.53125 -31.78125,7.1875 -10.09375,-12.8125 12.71875,-29.03125 -6.90625,-10.84375 -26.34375,24.28125 -13.8125,-6.03125 -2.25,-31.9375 -11.96875,-0.0625 z m -10.46875,65.84375 c 26.18085,3e-6 47.4375,24.472033 47.4375,54.625003 -10e-6,30.15298 -21.25665,54.625 -47.4375,54.625 -26.180845,0 -47.437503,-24.47202 -47.437503,-54.625 0,-30.15297 21.256658,-54.625003 47.437503,-54.625003 z"
       id="path4170"
       style="fill:url(#radialGradient4294);fill-opacity:1;fill-rule:evenodd;stroke:url(#linearGradient4282);stroke-width:1;stroke-linecap:butt;stroke-linejoin:miter;stroke-opacity:1" />
    <path
       sodipodi:nodetypes="ccccc"
       inkscape:connector-curvature="0"
       id="path4220"
       d="m 175.73099,66 29.83362,5.461106 0.66566,1.952335 -21.14255,4.282465 z"
       style="fill:url(#linearGradient4228);fill-opacity:1;fill-rule:evenodd;stroke:none;stroke-width:1;stroke-linecap:butt;stroke-linejoin:miter;stroke-opacity:1" />
    <path
       sodipodi:nodetypes="ccccc"
       inkscape:connector-curvature="0"
       id="path4236"
       d="m 216.37427,70.678363 25.73099,9.649122 4.38597,14.327486 -28.79158,-9.864794 z"
       style="fill:url(#linearGradient4244);fill-opacity:1;fill-rule:evenodd;stroke:none;stroke-width:1;stroke-linecap:butt;stroke-linejoin:miter;stroke-opacity:1" />
    <path
       sodipodi:nodetypes="ccccc"
       inkscape:connector-curvature="0"
       id="path4246"
       d="m 218.16936,84.634387 27.73707,10.312981 -24.269,22.222222 -29.53217,-8.47953 z"
       style="fill:url(#linearGradient4254);fill-opacity:1;fill-rule:evenodd;stroke:none;stroke-width:1;stroke-linecap:butt;stroke-linejoin:miter;stroke-opacity:1" />
    <path
       sodipodi:nodetypes="ccccc"
       inkscape:connector-curvature="0"
       id="path4256"
       d="m 192.4552,108.53427 29.76702,8.63532 -2.04678,10.81871 -27.42784,-6.3345 z"
       style="fill:url(#linearGradient4264);fill-opacity:1;fill-rule:evenodd;stroke:none;stroke-width:1;stroke-linecap:butt;stroke-linejoin:miter;stroke-opacity:1" />
    <path
       inkscape:connector-curvature="0"
       id="path4266"
       d="m 192.98246,121.55556 30.40935,14.03508 26.90059,7.60234 -29.82456,-15.49707 z"
       style="fill:url(#linearGradient4274);fill-opacity:1;fill-rule:evenodd;stroke:none;stroke-width:1;stroke-linecap:butt;stroke-linejoin:miter;stroke-opacity:1" />
    <path
       sodipodi:nodetypes="ccccc"
       inkscape:connector-curvature="0"
       id="path4276"
       d="m 225.4386,136.17544 26.02339,6.72514 -2.33918,15.78948 -24.95205,-9.5317 z"
       style="fill:url(#linearGradient4284);fill-opacity:1;fill-rule:evenodd;stroke:none;stroke-width:1;stroke-linecap:butt;stroke-linejoin:miter;stroke-opacity:1" />
    <path
       sodipodi:nodetypes="ccccc"
       inkscape:connector-curvature="0"
       id="path4286"
       d="m 191.22807,154.18667 24.5614,10.35134 33.04094,-5.55555 -23.68421,-9.94152 z"
       style="fill:url(#linearGradient4294);fill-opacity:1;fill-rule:evenodd;stroke:none;stroke-width:1;stroke-linecap:butt;stroke-linejoin:miter;stroke-opacity:1" />
    <path
       sodipodi:nodetypes="ccccc"
       inkscape:connector-curvature="0"
       id="path4296"
       d="m 190.64094,154.20585 27.78011,10.03976 -6.14035,10.81872 -28.03181,-6.15953 z"
       style="fill:url(#linearGradient4304);fill-opacity:1;fill-rule:evenodd;stroke:none;stroke-width:1;stroke-linecap:butt;stroke-linejoin:miter;stroke-opacity:1" />
    <path
       sodipodi:nodetypes="ccccc"
       inkscape:connector-curvature="0"
       id="path4306"
       d="m 184.21053,168.63158 28.36257,6.43275 16.37427,29.29731 -24.54223,-3.62386 z"
       style="fill:url(#linearGradient4314);fill-opacity:1;fill-rule:evenodd;stroke:none;stroke-width:1;stroke-linecap:butt;stroke-linejoin:miter;stroke-opacity:1" />
    <path
       sodipodi:nodetypes="ccccc"
       inkscape:connector-curvature="0"
       id="path4316"
       d="m 204.28772,200.73778 24.95205,3.41053 -8.65685,12.80795 -24.09169,-5.04983 z"
       style="fill:url(#linearGradient4324);fill-opacity:1;fill-rule:evenodd;stroke:none;stroke-width:1;stroke-linecap:butt;stroke-linejoin:miter;stroke-opacity:1" />
    <path
       sodipodi:nodetypes="ccccc"
       inkscape:connector-curvature="0"
       id="path4326"
       d="m 164.22924,194.42012 24.65965,13.10035 -7.30994,4.97076 -28.46082,-7.30994 z"
       style="fill:url(#linearGradient4334);fill-opacity:1;fill-rule:evenodd;stroke:none;stroke-width:1;stroke-linecap:butt;stroke-linejoin:miter;stroke-opacity:1" />
    <path
       sodipodi:nodetypes="ccccc"
       inkscape:connector-curvature="0"
       id="path4336"
       d="m 153.50877,204.30409 28.94737,8.47954 3.47041,32.12537 -29.70947,-2.82573 z"
       style="fill:url(#linearGradient4344);fill-opacity:1;fill-rule:evenodd;stroke:none;stroke-width:1;stroke-linecap:butt;stroke-linejoin:miter;stroke-opacity:1" />
    <path
       inkscape:connector-curvature="0"
       id="path4346"
       d="m 156.14035,242.02339 29.82456,2.92398 -12.86549,7.60234 -28.07018,-5.26316 z"
       style="fill:url(#linearGradient4354);fill-opacity:1;fill-rule:evenodd;stroke:none;stroke-width:1;stroke-linecap:butt;stroke-linejoin:miter;stroke-opacity:1" />
    <path
       sodipodi:nodetypes="cccc"
       inkscape:connector-curvature="0"
       id="path4356"
       d="m 114.03509,218.63158 13.66596,-0.68304 11.87088,20.85848 z"
       style="fill:url(#linearGradient4364);fill-opacity:1;fill-rule:evenodd;stroke:none;stroke-width:1;stroke-linecap:butt;stroke-linejoin:miter;stroke-opacity:1" />
    <path
       sodipodi:nodetypes="ccccc"
       inkscape:connector-curvature="0"
       id="path4366"
       d="m 113.37123,217.96772 25.22526,19.66971 -7.89474,17.25146 -30.742449,-1.77356 z"
       style="fill:url(#linearGradient4374);fill-opacity:1;fill-rule:evenodd;stroke:none;stroke-width:1;stroke-linecap:butt;stroke-linejoin:miter;stroke-opacity:1" />
    <path
       inkscape:connector-curvature="0"
       id="path4376"
       d="m 74.269006,209.27485 12.865497,5.26316 0.584795,14.32749 -7.017544,5.84795 -30.409356,-3.80117 z"
       style="fill:url(#linearGradient4384);fill-opacity:1;fill-rule:evenodd;stroke:none;stroke-width:1;stroke-linecap:butt;stroke-linejoin:miter;stroke-opacity:1" />
    <path
       stroke-miterlimit="4"
       id="ellipse4229"
       d="m 116.2832,63.861328 a 58.214996,66.938339 0 0 0 -58.214841,66.939452 58.214996,66.938339 0 0 0 58.214841,66.9375 58.214996,66.938339 0 0 0 58.21485,-66.9375 58.214996,66.938339 0 0 0 -58.21485,-66.939452 z m 0,11.802734 A 47.950386,55.135612 0 0 1 164.23438,130.80078 47.950386,55.135612 0 0 1 116.2832,185.93555 47.950386,55.135612 0 0 1 68.332031,130.80078 47.950386,55.135612 0 0 1 116.2832,75.664062 Z"
       inkscape:connector-curvature="0"
       style="opacity:1;fill:#959595;fill-opacity:1;stroke:none;stroke-width:0.30000001;stroke-linecap:round;stroke-miterlimit:4;stroke-dasharray:none;stroke-opacity:1" />
    <path
       stroke-miterlimit="4"
       inkscape:connector-curvature="0"
       id="path4247"
       d="m 110.41767,60.928041 a 58.214996,66.938339 0 0 0 -58.214851,66.939449 58.214996,66.938339 0 0 0 34.90039,61.24609 58.214996,66.938339 0 0 1 -29.328125,-58.01953 58.214996,66.938339 0 0 1 58.214846,-66.939447 58.214996,66.938339 0 0 1 23.30469,5.685547 58.214996,66.938339 0 0 0 -28.87695,-8.912109 z m 28.87695,8.912109 a 58.214996,66.938339 0 0 1 29.33789,58.02734 58.214996,66.938339 0 0 1 -58.21484,66.9375 58.214996,66.938339 0 0 1 -23.314461,-5.69141 58.214996,66.938339 0 0 0 28.886721,8.91797 58.214996,66.938339 0 0 0 58.21485,-66.9375 58.214996,66.938339 0 0 0 -34.91016,-61.2539 z m -28.87695,2.890625 a 47.950386,55.135612 0 0 0 -47.951179,55.136715 47.950386,55.135612 0 0 0 29.478515,50.86719 47.950386,55.135612 0 0 1 -23.90625,-47.64063 47.950386,55.135612 0 0 1 47.951174,-55.136713 47.950386,55.135612 0 0 1 18.47071,4.267579 47.950386,55.135612 0 0 0 -24.04297,-7.494141 z m 24.04297,7.494141 a 47.950386,55.135612 0 0 1 23.9082,47.642574 47.950386,55.135612 0 0 1 -47.95117,55.13476 47.950386,55.135612 0 0 1 -18.472664,-4.26757 47.950386,55.135612 0 0 0 24.044924,7.49414 47.950386,55.135612 0 0 0 47.95118,-55.13477 47.950386,55.135612 0 0 0 -29.48047,-50.869134 z"
       style="opacity:1;fill:url(#linearGradient4258);fill-opacity:1;stroke:none;stroke-width:0.30000001;stroke-linecap:round;stroke-miterlimit:4;stroke-dasharray:none;stroke-opacity:1" />
    <path
       stroke-miterlimit="4"
       id="path4284"
       d="m 126.65908,11.349467 -11.4375,31.3125 -12.9375,2.90625 -15.937505,-25.375 -10.687498,4.90625 0.90625,31.75 -9.15625,7.9375 -24.125,-8.84375 -8.875,11.59375 14.375,24.15625 -5.21875,12.531253 -26.25,5.46875 -1.84375,15.28125 23.8125,11.3125 0,12.84375 -21.96875,20.15625 2.4375,13.125 34.21875,7.03125 -12.21875,31.46875 8.53125,9.78125 25.09375,-21.34375 11.562498,5 0.9375,35.5625 12.531255,3.0625 13.0625,-34.09375 13.40625,-0.34375 18.125,28.65625 11.40625,-5.0625 -2.34375,-37.78125 10.34375,-9.46875 23.34375,12.59375 8.875,4.28125 8.0625,-11.5 -20.21875,-31.5625 6.59375,-14.46875 33.78125,-4.53125 0.46875,-14.125 -31.34375,-14.65625 -1.09375,-12.6875 25.0625,-23.093753 -0.84375,-14.53125 -31.78125,7.1875 -10.09375,-12.8125 12.71875,-29.03125 -6.90625,-10.84375 -26.34375,24.28125 -13.8125,-6.03125 -2.25,-31.9375 -11.96875,-0.0625 z m -10.46875,65.84375 c 26.18085,3e-6 47.4375,24.472033 47.4375,54.625003 -10e-6,30.15298 -21.25665,54.625 -47.4375,54.625 -26.180845,0 -47.437503,-24.47202 -47.437503,-54.625 0,-30.15297 21.256658,-54.625003 47.437503,-54.625003 z"
       inkscape:connector-curvature="0"
       style="fill:none;fill-opacity:1;fill-rule:evenodd;stroke:url(#linearGradient4292);stroke-width:1.39999998;stroke-linecap:butt;stroke-linejoin:round;stroke-miterlimit:4;stroke-dasharray:none;stroke-opacity:1" />
    <path
       stroke-miterlimit="4"
       inkscape:connector-curvature="0"
       d="m 110.71098,60.635308 a 58.214996,66.938339 0 0 0 -58.214837,66.939452 58.214996,66.938339 0 0 0 58.214837,66.9375 58.214996,66.938339 0 0 0 58.21485,-66.9375 58.214996,66.938339 0 0 0 -58.21485,-66.939452 z m 0,11.802734 a 47.950386,55.135612 0 0 1 47.95118,55.136718 47.950386,55.135612 0 0 1 -47.95118,55.13477 47.950386,55.135612 0 0 1 -47.951165,-55.13477 47.950386,55.135612 0 0 1 47.951165,-55.136718 z"
       id="path4237"
       style="opacity:1;fill:url(#linearGradient4245);fill-opacity:1;stroke:#9e9e9e;stroke-width:1;stroke-linecap:round;stroke-miterlimit:4;stroke-dasharray:none;stroke-opacity:1" />
    <path
       sodipodi:nodetypes="ccccccccccccccccccccccccccc"
       id="path4260"
       d="m 39.284077,136.28697 0,12.84375 -21.96875,20.15625 2.4375,13.125 34.21875,7.03125 -12.21875,31.46875 8.53125,9.78125 25.09375,-21.34375 11.562498,5 0.9375,35.5625 12.531255,3.0625 13.0625,-34.09375 13.40625,-0.34375 18.125,28.65625 11.40625,-5.0625 -2.34375,-37.78125 10.34375,-9.46875 23.34375,12.59375 8.875,4.28125 8.0625,-11.5 -20.21875,-31.5625 6.59375,-14.46875 33.78125,-4.53125 1.0553,-7.37969 c -20.23262,-1.47958 -31.9072,-0.93698 -50.64524,-0.63068 -15.87359,81.74491 -113.617081,70.53922 -123.267572,-6.38086 -3.251226,0.16216 -9.224649,0.7377 -12.704991,0.98498 z"
       inkscape:connector-curvature="0"
       style="fill:url(#linearGradient4268);fill-opacity:1;fill-rule:evenodd;stroke:none;stroke-width:1;stroke-linecap:butt;stroke-linejoin:miter;stroke-opacity:1" />
  </g>
</svg>
