<?xml version="1.0" encoding="UTF-8" standalone="no"?>
<!-- Created with Inkscape (http://www.inkscape.org/) -->

<svg
   xmlns:dc="http://purl.org/dc/elements/1.1/"
   xmlns:cc="http://creativecommons.org/ns#"
   xmlns:rdf="http://www.w3.org/1999/02/22-rdf-syntax-ns#"
   xmlns:svg="http://www.w3.org/2000/svg"
   xmlns="http://www.w3.org/2000/svg"
   xmlns:xlink="http://www.w3.org/1999/xlink"
   xmlns:sodipodi="http://sodipodi.sourceforge.net/DTD/sodipodi-0.dtd"
   xmlns:inkscape="http://www.inkscape.org/namespaces/inkscape"
   width="255"
   height="255"
   viewBox="0 0 67.468749 67.468749"
   version="1.1"
   id="svg8"
   inkscape:version="0.92.5 (2060ec1f9f, 2020-04-08)"
   sodipodi:docname="Amusements.svg">
  <defs
     id="defs2">
    <linearGradient
       inkscape:collect="always"
       id="linearGradient867">
      <stop
         style="stop-color:#ffffff;stop-opacity:1"
         offset="0"
         id="stop863" />
      <stop
         style="stop-color:#ff0202;stop-opacity:1"
         offset="1"
         id="stop865" />
    </linearGradient>
    <linearGradient
       inkscape:collect="always"
       id="linearGradient849">
      <stop
         style="stop-color:#ffffff;stop-opacity:1;"
         offset="0"
         id="stop845" />
      <stop
         style="stop-color:#565656;stop-opacity:1"
         offset="1"
         id="stop847" />
    </linearGradient>
    <linearGradient
       inkscape:collect="always"
       id="linearGradient839">
      <stop
         style="stop-color:#ff9e48;stop-opacity:1"
         offset="0"
         id="stop835" />
      <stop
         style="stop-color:#502600;stop-opacity:0.98924732"
         offset="1"
         id="stop837" />
    </linearGradient>
    <linearGradient
       inkscape:collect="always"
       id="linearGradient933">
      <stop
         style="stop-color:#ffffff;stop-opacity:0.50537634"
         offset="0"
         id="stop929" />
      <stop
         style="stop-color:#000000;stop-opacity:0.467"
         offset="1"
         id="stop931" />
    </linearGradient>
    <linearGradient
       inkscape:collect="always"
       id="linearGradient918">
      <stop
         style="stop-color:#25ff00;stop-opacity:1;"
         offset="0"
         id="stop914" />
      <stop
         style="stop-color:#1cc000;stop-opacity:1"
         offset="1"
         id="stop916" />
    </linearGradient>
    <linearGradient
       inkscape:collect="always"
       xlink:href="#linearGradient918"
       id="linearGradient920"
       x1="110.56462"
       y1="187.75952"
       x2="255.28944"
       y2="226.25554"
       gradientUnits="userSpaceOnUse"
       gradientTransform="matrix(0.27300187,0,0,0.27300187,-24.509242,222.72454)" />
    <radialGradient
       inkscape:collect="always"
       xlink:href="#linearGradient933"
       id="radialGradient935"
       cx="701.69055"
       cy="320.62122"
       fx="701.69055"
       fy="320.62122"
       r="333.42285"
       gradientTransform="matrix(0.10351474,-0.00260691,0.00117814,0.04678113,-46.29495,246.06983)"
       gradientUnits="userSpaceOnUse" />
    <linearGradient
       inkscape:collect="always"
       xlink:href="#linearGradient839"
       id="linearGradient841"
       x1="98.410896"
       y1="123.04418"
       x2="217.84164"
       y2="214.21898"
       gradientUnits="userSpaceOnUse"
       gradientTransform="matrix(0.27300187,0,0,0.27300187,-5.7818092,220.433)" />
    <linearGradient
       inkscape:collect="always"
       xlink:href="#linearGradient849"
       id="linearGradient851"
       x1="160.35188"
       y1="96.560165"
       x2="165.85132"
       y2="96.560165"
       gradientUnits="userSpaceOnUse"
       spreadMethod="reflect"
       gradientTransform="matrix(0.27300187,0,0,0.27300187,-5.7818092,220.433)" />
    <linearGradient
       inkscape:collect="always"
       xlink:href="#linearGradient849"
       id="linearGradient855"
       gradientUnits="userSpaceOnUse"
       x1="160.42857"
       y1="87.02494"
       x2="163.26939"
       y2="87.02494"
       spreadMethod="reflect"
       gradientTransform="matrix(0.27300187,0,0,0.27300187,-5.6492099,220.80221)" />
    <linearGradient
       inkscape:collect="always"
       xlink:href="#linearGradient849"
       id="linearGradient859"
       gradientUnits="userSpaceOnUse"
       x1="160.35188"
       y1="96.560165"
       x2="165.85132"
       y2="96.560165"
       spreadMethod="reflect"
       gradientTransform="matrix(0.27300187,0,0,0.27300187,-5.7818092,216.56109)" />
    <linearGradient
       inkscape:collect="always"
       xlink:href="#linearGradient867"
       id="linearGradient869"
       x1="187.23918"
       y1="76.9375"
       x2="230.9258"
       y2="85.910255"
       gradientUnits="userSpaceOnUse"
       spreadMethod="reflect"
       gradientTransform="matrix(0.27300187,0,0,0.27300187,-5.1496595,221.38124)" />
    <linearGradient
       inkscape:collect="always"
       xlink:href="#linearGradient867"
       id="linearGradient873"
       gradientUnits="userSpaceOnUse"
       x1="187.23918"
       y1="76.9375"
       x2="230.9258"
       y2="85.910255"
       spreadMethod="reflect"
       gradientTransform="matrix(-0.27300187,0,0,-0.27300187,82.459871,265.04878)" />
    <filter
       inkscape:collect="always"
       style="color-interpolation-filters:sRGB"
       id="filter893"
       x="-0.03176105"
       width="1.0635221"
       y="-0.09821675"
       height="1.1964335">
      <feGaussianBlur
         inkscape:collect="always"
         stdDeviation="2.8116848"
         id="feGaussianBlur895" />
    </filter>
  </defs>
  <sodipodi:namedview
     id="base"
     pagecolor="#ff0000"
     bordercolor="#666666"
     borderopacity="1.0"
     inkscape:pageopacity="0"
     inkscape:pageshadow="2"
     inkscape:zoom="3.454902"
     inkscape:cx="127.5"
     inkscape:cy="127.5"
     inkscape:document-units="mm"
     inkscape:current-layer="layer1"
     showgrid="false"
     inkscape:snap-to-guides="false"
     inkscape:snap-grids="false"
     inkscape:snap-others="false"
     inkscape:object-nodes="false"
     inkscape:snap-nodes="false"
     inkscape:snap-global="false"
     inkscape:window-width="1920"
     inkscape:window-height="1056"
     inkscape:window-x="0"
     inkscape:window-y="0"
     inkscape:window-maximized="1"
     units="px" />
  <metadata
     id="metadata5">
    <rdf:RDF>
      <cc:Work
         rdf:about="">
        <dc:format>image/svg+xml</dc:format>
        <dc:type
           rdf:resource="http://purl.org/dc/dcmitype/StillImage" />
        <dc:title></dc:title>
      </cc:Work>
    </rdf:RDF>
  </metadata>
  <g
     inkscape:label="Layer 1"
     inkscape:groupmode="layer"
     id="layer1"
     transform="translate(0,-229.53126)">
    <path
       style="fill:#000000;fill-opacity:1;stroke:none;stroke-width:0.26458332px;stroke-linecap:butt;stroke-linejoin:miter;stroke-opacity:1;filter:url(#filter893)"
       d="m 21.129398,243.45289 c 8.4875,8.07768 20.995458,13.61625 35.022702,19.68218 19.047325,8.23682 42.504068,13.05709 67.15096,12.15664 20.18755,-0.73753 29.60796,-9.51362 42.54824,-19.10329 l 32.41771,-24.02384 c 16.45471,0.24586 25.42674,-6.99097 32.70715,-15.91941 3.58816,-3.18388 2.98769,-6.36776 1.15777,-9.55164 0,0 -135.749142,4.05221 -140.380242,4.05221 -4.6311,0 -70.62429,32.70715 -70.62429,32.70715 z"
       id="path875"
       inkscape:connector-curvature="0"
       sodipodi:nodetypes="cssscccsc"
       transform="matrix(0.27300187,0,0,0.27300187,-1.3567619,217.4303)" />
    <path
       sodipodi:nodetypes="ccccc"
       inkscape:connector-curvature="0"
       id="path871"
       d="m 38.367442,243.94242 c -8.264199,-1.351 -16.120325,0.15449 -24.179723,0.23706 -7.5887061,-0.9531 -3.365605,-6.09785 0.474112,-5.61034 7.519177,1.33942 14.313554,5.21565 22.599347,3.87193 1.563866,-0.0971 1.615636,1.194 1.106264,1.50135 z"
       style="fill:url(#linearGradient873);fill-opacity:1;stroke:none;stroke-width:0.07223175px;stroke-linecap:butt;stroke-linejoin:miter;stroke-opacity:1" />
    <path
       style="fill:#ff0000;fill-opacity:1;stroke:none;stroke-width:0.07223175px;stroke-linecap:butt;stroke-linejoin:miter;stroke-opacity:1"
       d="m 21.716699,272.19861 c 1.217608,-5.71467 5.056875,-20.9462 16.910001,-24.89089 10.647052,5.48741 11.615753,31.13337 11.615753,31.13337 -9.630499,-0.97008 -19.105606,-2.53786 -28.525754,-6.24248 z"
       id="path896"
       inkscape:connector-curvature="0"
       sodipodi:nodetypes="cccc" />
    <path
       sodipodi:nodetypes="cccc"
       inkscape:connector-curvature="0"
       id="path898"
       d="m 21.795716,272.43568 c 1.217609,-5.71469 4.977858,-21.18327 16.830984,-25.12796 -15.842321,0.40306 -22.624201,12.36867 -24.100705,22.20426 1.353104,1.08441 4.046877,1.9662 7.269721,2.9237 z"
       style="fill:#fbff00;fill-opacity:1;stroke:none;stroke-width:0.07223175px;stroke-linecap:butt;stroke-linejoin:miter;stroke-opacity:1" />
    <path
       sodipodi:nodetypes="cccc"
       inkscape:connector-curvature="0"
       id="path900"
       d="m 62.332314,273.46292 c 0.743495,-10.69286 -6.95397,-25.92439 -23.705614,-26.1552 10.647052,5.48741 11.615753,31.13337 11.615753,31.13337 6.805393,-0.57498 11.07954,-2.22179 12.089861,-4.97817 z"
       style="fill:#000dff;fill-opacity:1;stroke:none;stroke-width:0.07223175px;stroke-linecap:butt;stroke-linejoin:miter;stroke-opacity:1" />
    <path
       style="fill:url(#radialGradient935);fill-opacity:1;stroke:url(#linearGradient841);stroke-width:0.27300188;stroke-linecap:butt;stroke-linejoin:miter;stroke-miterlimit:4;stroke-dasharray:none;stroke-opacity:1"
       d="m 38.626663,247.30774 c -15.842321,0.40305 -22.861221,12.3687 -24.337726,22.20429 1.353106,1.08441 4.204894,1.88709 7.427738,2.84461 0.562986,-2.17974 0.0214,-0.0984 0.03161,-0.14588 9.409748,3.69571 18.874414,5.26128 28.494153,6.23027 6.805393,-0.57498 11.079611,-2.22168 12.089931,-4.97807 0.743496,-10.69285 -6.954052,-25.92442 -23.705698,-26.15522 z"
       id="path922"
       inkscape:connector-curvature="0"
       sodipodi:nodetypes="ccccccc" />
    <path
       style="fill:url(#linearGradient920);fill-opacity:1;stroke:none;stroke-width:0.07223175px;stroke-linecap:butt;stroke-linejoin:miter;stroke-opacity:1"
       d="m 14.288939,269.27492 c 10.662473,4.75126 27.044409,8.76684 35.953514,9.00815 -2.800899,2.86209 -5.483451,5.91804 -8.692058,8.37596 -4.244784,3.2517 -8.790308,4.92301 -14.381405,4.188 -8.394624,-1.10356 -15.84877,-3.35599 -24.1007048,-8.05991 -2.4444242,-1.39341 -1.765302,-4.85304 0.079013,-6.40051 2.5339268,-2.12608 7.6655928,-5.41085 11.1416378,-7.11169 z"
       id="path902"
       inkscape:connector-curvature="0"
       sodipodi:nodetypes="ccssssc" />
    <path
       sodipodi:nodetypes="csscssc"
       inkscape:connector-curvature="0"
       id="path904"
       d="m 41.550395,286.65903 c -3.26243,2.29155 -7.834928,4.87536 -14.381405,4.188 -8.494231,-0.89187 -16.285783,-3.93097 -24.1007048,-8.05991 -2.68926317,-1.42084 -1.1619227,-5.50932 0.079013,-6.40051 -2.19527361,2.06457 -2.0176511,4.2408 0.5614009,5.75858 5.535574,3.25771 17.8317009,7.74281 27.6442639,7.94679 3.997943,0.0832 7.601008,-2.18394 10.197427,-3.43295 z"
       style="fill:#74ff5c;fill-opacity:1;stroke:none;stroke-width:0.07223175px;stroke-linecap:butt;stroke-linejoin:miter;stroke-opacity:1" />
    <path
       style="fill:#ffffff;fill-opacity:0.32258067;stroke:none;stroke-width:0.07223175px;stroke-linecap:butt;stroke-linejoin:miter;stroke-opacity:1"
       d="m 8.9156687,284.52554 c 3.8804243,-4.76787 8.2360933,-8.82288 12.9590663,-12.32693 l 4.108973,1.26431 c -4.394024,3.87895 -8.830266,7.69456 -12.405936,12.80103 z"
       id="path827"
       inkscape:connector-curvature="0"
       sodipodi:nodetypes="ccccc" />
    <path
       style="fill:none;stroke:#753700;stroke-width:0.27300188;stroke-linecap:butt;stroke-linejoin:miter;stroke-miterlimit:4;stroke-dasharray:none;stroke-opacity:1"
       d="m 14.525995,269.27492 c 4.180155,2.14403 9.819787,3.96372 15.882763,5.68935 6.637571,1.43646 13.275141,3.27282 19.912712,3.3188"
       id="path829"
       inkscape:connector-curvature="0"
       sodipodi:nodetypes="ccc" />
    <path
       style="fill:none;stroke:#502600;stroke-width:0.1911013;stroke-linecap:butt;stroke-linejoin:miter;stroke-miterlimit:4;stroke-dasharray:none;stroke-opacity:1"
       d="M 22.032774,272.35665 C 24.818473,260.08329 29.74293,250.59136 38.6267,247.14968"
       id="path831"
       inkscape:connector-curvature="0"
       sodipodi:nodetypes="cc" />
    <path
       sodipodi:nodetypes="cc"
       inkscape:connector-curvature="0"
       id="path833"
       d="M 50.163433,278.20404 C 50.341514,262.6909 42.939056,248.14178 38.6267,247.14968"
       style="fill:none;stroke:#502600;stroke-width:0.1911013;stroke-linecap:butt;stroke-linejoin:miter;stroke-miterlimit:4;stroke-dasharray:none;stroke-opacity:1" />
    <ellipse
       style="opacity:1;fill:#000000;fill-opacity:0.22043014;fill-rule:nonzero;stroke:none;stroke-width:0.11373659;stroke-linecap:round;stroke-linejoin:round;stroke-miterlimit:4;stroke-dasharray:none;stroke-dashoffset:0;stroke-opacity:0.98924734"
       id="path897"
       cx="40.049038"
       cy="248.69055"
       rx="2.6866357"
       ry="1.0667524" />
    <rect
       style="opacity:1;fill:url(#linearGradient851);fill-opacity:1;fill-rule:nonzero;stroke:none;stroke-width:0.27300188;stroke-linecap:round;stroke-linejoin:round;stroke-miterlimit:4;stroke-dasharray:none;stroke-dashoffset:0;stroke-opacity:0.98924734"
       id="rect843"
       width="3.1607497"
       height="2.3705628"
       x="37.046326"
       y="246.04343"
       ry="0.86920571"
       rx="1.5803747" />
    <rect
       rx="0.60677153"
       ry="0.3457877"
       y="244.27911"
       x="37.811073"
       height="2.5285966"
       width="1.5803748"
       id="rect853"
       style="opacity:1;fill:url(#linearGradient855);fill-opacity:1;fill-rule:nonzero;stroke:none;stroke-width:0.27300188;stroke-linecap:round;stroke-linejoin:round;stroke-miterlimit:4;stroke-dasharray:none;stroke-dashoffset:0;stroke-opacity:0.98924734" />
    <rect
       rx="1.5408653"
       ry="0.79018754"
       y="241.85542"
       x="37.125347"
       height="2.6866376"
       width="3.0817306"
       id="rect857"
       style="opacity:1;fill:url(#linearGradient859);fill-opacity:1;fill-rule:nonzero;stroke:none;stroke-width:0.27300188;stroke-linecap:round;stroke-linejoin:round;stroke-miterlimit:4;stroke-dasharray:none;stroke-dashoffset:0;stroke-opacity:0.98924734" />
    <path
       style="fill:url(#linearGradient869);fill-opacity:1;stroke:none;stroke-width:0.07223175px;stroke-linecap:butt;stroke-linejoin:miter;stroke-opacity:1"
       d="m 38.942774,242.48759 c 8.264197,1.35101 16.120323,-0.15448 24.179724,-0.23705 7.588706,0.95309 3.365604,6.09782 -0.474112,5.61032 -7.519179,-1.3394 -14.313556,-5.21564 -22.599348,-3.87192 -1.563868,0.0971 -1.615636,-1.19399 -1.106264,-1.50135 z"
       id="path861"
       inkscape:connector-curvature="0"
       sodipodi:nodetypes="ccccc" />
    <path
       style="fill:#000000;fill-opacity:0.13978493;stroke:none;stroke-width:0.07223175px;stroke-linecap:butt;stroke-linejoin:miter;stroke-opacity:1"
       d="m 42.34058,249.12515 c 10.830652,2.45174 11.514483,10.84309 14.144346,18.09529 0.847162,1.81533 -1.592154,3.22581 -2.765653,1.34333 -0.868038,-13.89646 -9.043733,-18.87502 -12.959068,-19.20156 z"
       id="path899"
       inkscape:connector-curvature="0"
       sodipodi:nodetypes="ccccc" />
  </g>
</svg>
