<?xml version="1.0" encoding="UTF-8" standalone="no"?>
<!-- Created with Inkscape (http://www.inkscape.org/) -->
<svg xmlns:dc="http://purl.org/dc/elements/1.1/" xmlns:cc="http://creativecommons.org/ns#" xmlns:rdf="http://www.w3.org/1999/02/22-rdf-syntax-ns#" xmlns:svg="http://www.w3.org/2000/svg" xmlns="http://www.w3.org/2000/svg" xmlns:xlink="http://www.w3.org/1999/xlink" xmlns:sodipodi="http://sodipodi.sourceforge.net/DTD/sodipodi-0.dtd" xmlns:inkscape="http://www.inkscape.org/namespaces/inkscape" width="255" height="255" viewBox="0 0 67.468748 67.468752" version="1.1" id="svg8" inkscape:version="0.92.5 (2060ec1f9f, 2020-04-08)" sodipodi:docname="gnome-control-centre.svg">
 <defs id="defs2">
  <linearGradient inkscape:collect="always" id="linearGradient1032">
   <stop id="stop1028" stop-color="#f8f8f8" stop-opacity="1"/>
   <stop offset="1" id="stop1030" stop-color="#5a5a5a" stop-opacity="1"/>
  </linearGradient>
  <linearGradient id="linearGradient3202">
   <stop id="stop3204" stop-color="#ffffff" stop-opacity="1"/>
   <stop id="stop3206" offset="1" stop-color="#ffffff" stop-opacity="0"/>
  </linearGradient>
  <linearGradient id="linearGradient3165">
   <stop id="stop3167" stop-color="#000000" stop-opacity="1"/>
   <stop id="stop3169" offset="1" stop-color="#ffffff" stop-opacity="1"/>
  </linearGradient>
  <linearGradient y2="62.11" x2="279.44" y1="37.97" x1="277.04" gradientTransform="matrix(1.8802511,0.6966291,-0.6966291,1.8802511,-433.72244,-224.46863)" gradientUnits="userSpaceOnUse" id="linearGradient3270" xlink:href="#linearGradient3202" inkscape:collect="always"/>
  <linearGradient y2="13.03" x2="303.05" y1="13.03" x1="301.63" spreadMethod="reflect" gradientTransform="matrix(2.0051524,0,0,2.0051524,-495.53124,-97.861617)" gradientUnits="userSpaceOnUse" id="linearGradient3283" xlink:href="#linearGradient3165" inkscape:collect="always"/>
  <linearGradient y2="57.53" x2="181.56" y1="57.53" x1="166.71" gradientUnits="userSpaceOnUse" id="linearGradient3287" xlink:href="#linearGradient3165" inkscape:collect="always"/>
  <linearGradient inkscape:collect="always" id="linearGradient5002">
   <stop id="stop5004" stop-color="#000000" stop-opacity="1"/>
   <stop offset="1" id="stop5006" stop-color="#000000" stop-opacity="0"/>
  </linearGradient>
  <linearGradient inkscape:collect="always" xlink:href="#linearGradient5002" id="linearGradient3494" gradientUnits="userSpaceOnUse" gradientTransform="rotate(180,158.74943,125.1626)" x1="160.66" y1="94.16" x2="160.07" y2="109.08"/>
  <linearGradient inkscape:collect="always" xlink:href="#linearGradient3165" id="linearGradient3490" gradientUnits="userSpaceOnUse" gradientTransform="translate(1.1770115,-4.708046)" x1="119.76" y1="169.05" x2="201.18" y2="96.96"/>
  <linearGradient inkscape:collect="always" xlink:href="#linearGradient3386" id="linearGradient3488" gradientUnits="userSpaceOnUse" gradientTransform="translate(1.1770115,-4.708046)" spreadMethod="reflect" x1="143.39" y1="147.86" x2="177.64" y2="121.97"/>
  <linearGradient inkscape:collect="always" xlink:href="#linearGradient3400" id="linearGradient3486" gradientUnits="userSpaceOnUse" gradientTransform="matrix(0.9989289,0,0,1.0511453,1.3462715,-9.8695187)" x1="158.01" y1="166.81" x2="158.01" y2="97.8"/>
  <linearGradient inkscape:collect="always" xlink:href="#linearGradient3386" id="linearGradient3484" gradientUnits="userSpaceOnUse" gradientTransform="matrix(0.9989289,0,0,1.0511453,1.3462715,-9.8695187)" spreadMethod="reflect" x1="143.39" y1="147.86" x2="177.64" y2="121.97"/>
  <linearGradient id="linearGradient3386">
   <stop id="stop3388" stop-color="#000000" stop-opacity="1"/>
   <stop offset="1" id="stop3390" stop-color="#bababa" stop-opacity="1"/>
  </linearGradient>
  <linearGradient id="linearGradient3400" inkscape:collect="always">
   <stop id="stop3402" stop-color="#6b6b6b" stop-opacity="1"/>
   <stop id="stop3404" offset="1" stop-color="#ffffff" stop-opacity="1"/>
  </linearGradient>
  <linearGradient y2="118.19" x2="155.95" y1="94.16" x1="160.66" gradientUnits="userSpaceOnUse" id="linearGradient4144" xlink:href="#linearGradient3202" inkscape:collect="always"/>
  <linearGradient inkscape:collect="always" xlink:href="#linearGradient1032" id="linearGradient1034" x1="124.74" y1="143.89" x2="143.38" y2="102.63" gradientUnits="userSpaceOnUse"/>
  <linearGradient inkscape:collect="always" xlink:href="#linearGradient3400" id="linearGradient1042" x1="20.397" y1="139.86" x2="36.454" y2="88.86" gradientUnits="userSpaceOnUse"/>
  <filter inkscape:collect="always" id="filter1044" x="-0.001" width="1.02" y="-0.015" height="1.031" color-interpolation-filters="sRGB">
   <feGaussianBlur inkscape:collect="always" stdDeviation="0.96749" id="feGaussianBlur1046"/>
  </filter>
  <filter inkscape:collect="always" id="filter1052" x="-0.011" width="1.021" y="-0.014" height="1.027" color-interpolation-filters="sRGB">
   <feGaussianBlur inkscape:collect="always" stdDeviation="1.02009" id="feGaussianBlur1054"/>
  </filter>
 </defs>
 <sodipodi:namedview id="base" pagecolor="#ff0000" bordercolor="#666666" borderopacity="1.0" inkscape:pageopacity="0" inkscape:pageshadow="2" inkscape:zoom="3.4901961" inkscape:cx="127.5" inkscape:cy="127.5" inkscape:document-units="mm" inkscape:current-layer="layer1" showgrid="false" units="px" inkscape:snap-to-guides="false" inkscape:snap-grids="false" inkscape:snap-others="false" inkscape:object-nodes="false" inkscape:snap-nodes="false" inkscape:snap-global="false" inkscape:window-width="1920" inkscape:window-height="1056" inkscape:window-x="0" inkscape:window-y="0" inkscape:window-maximized="1"/>
 <metadata id="metadata5">
  <rdf:RDF>
   <cc:Work>
    <dc:format>image/svg+xml</dc:format>
    <dc:type rdf:resource="http://purl.org/dc/dcmitype/StillImage"/>
    <dc:title/>
   </cc:Work>
  </rdf:RDF>
 </metadata>
 <g inkscape:label="Layer 1" inkscape:groupmode="layer" id="layer1" transform="translate(0,-229.53123)">
  <g id="g5205" transform="matrix(0.2688022,0,0,0.2688022,3.624006,227.6152)">
   <rect transform="matrix(0.8870379,0,0,0.8870379,3.6365342,19.877054)" ry="9.375" y="53.768" x="19.643" height="178.13" width="229.91" id="rect5176" opacity="1" stroke-dasharray="none" stroke-opacity="0.425" fill="#000000" filter="url(#filter1052)" stroke="none" stroke-linejoin="round" fill-opacity="0.705" stroke-linecap="round" stroke-width="0.7" stroke-miterlimit="4" rx="9.375"/>
   <g transform="matrix(2.3085149,0,0,2.3085149,-249.38312,-157.00843)" id="g3453">
    <g id="g3406" transform="translate(-0.2942529,-2.6482759)">
     <rect id="rect3394" width="85.24" height="64.64" x="116.57" y="97.15" opacity="1" stroke-dasharray="none" stroke-opacity="1" fill="url(#linearGradient3484)" stroke="url(#linearGradient3486)" stroke-linejoin="round" fill-opacity="1" stroke-linecap="round" stroke-width="3.791" stroke-miterlimit="4"/>
     <rect y="97.1" x="116.52" height="61.5" width="85.33" id="rect3376" opacity="1" stroke-dasharray="none" stroke-opacity="1" fill="url(#linearGradient3488)" stroke="url(#linearGradient3490)" stroke-linejoin="round" fill-opacity="1" stroke-linecap="round" stroke-width="3.7" stroke-miterlimit="4"/>
    </g>
    <path inkscape:connector-curvature="0" d="m 117.99541,96.220688 h 81.8023 v 24.128742 c -34.15205,13.83304 -53.20008,-23.775787 -81.8023,0 z" id="rect3432" sodipodi:nodetypes="ccccc" stroke-opacity="1" fill="url(#linearGradient4144)" stroke="none" stroke-linejoin="round" fill-opacity="1" stroke-linecap="round" stroke-width="3.7" stroke-miterlimit="4"/>
    <path inkscape:connector-curvature="0" sodipodi:nodetypes="ccccc" id="path3443" d="m 199.50346,154.10452 h -81.8023 l 0.58851,-15.00691 c 29.14975,0.2911 52.31732,0.52981 81.8023,0 z" stroke-opacity="1" fill="url(#linearGradient3494)" stroke="none" stroke-linejoin="round" fill-opacity="1" stroke-linecap="round" stroke-width="3.7" stroke-miterlimit="4"/>
   </g>
  </g>
  <g id="g5182" transform="matrix(0.27522797,0,0,0.27522797,-1.2475059,230.37903)">
   <path inkscape:connector-curvature="0" id="path3212" d="M 62.143809,57.19512 C 60.952701,56.749797 59.667122,56.424289 58.348435,56.256706 48.763272,55.038578 28.871644,53.465498 15.647088,75.919203 l -0.161055,0.07398 0.03699,0.08053 c -0.128091,0.219216 -0.251935,0.437761 -0.378751,0.661555 l 0.755184,-0.05432 4.199521,6.70132 21.17349,-1.777845 c 3.535169,-0.76509 5.854544,0.01126 7.662608,1.502511 0.707254,3.38544 0.606898,7.595108 0.377336,11.967554 l -0.867363,10.637692 c -1.650983,1.26087 -4.077126,2.1155 -7.78708,2.26031 l -28.507234,-1.87482 -0.849017,2.29156 c 0.190616,0.5529 0.393542,1.08101 0.600478,1.62576 l -0.711645,-0.0632 -0.849017,2.29156 c 4.536826,13.16038 13.530642,24.13281 35.353068,28.6681 l 2.650452,2.58575 45.361572,-7.18325 126.037585,67.6124 c 22.32114,10.17835 39.03924,-25.20283 17.50582,-35.34562 L 116.72328,116.57525 C 84.824263,100.13971 80.010443,63.874865 62.143809,57.19512 Z m 25.886594,43.93819 -0.37069,6.41136 0.03336,-6.4027 z m -26.96532,7.85127 -0.21972,18.62916 14.78581,0.13223 -16.809983,1.72393 z M 232.00012,174.454 c 6.97565,2.58446 10.71561,9.85547 8.36608,16.19701 -2.34956,6.34153 -9.90232,9.36178 -16.87802,6.77731 -6.97573,-2.5845 -10.73738,-9.79672 -8.38785,-16.13826 2.34949,-6.34156 9.92409,-9.42054 16.89979,-6.83606 z" stroke-opacity="1" fill="#000000" filter="url(#filter1044)" fill-rule="evenodd" stroke="none" stroke-linejoin="round" fill-opacity="0.723" stroke-linecap="butt" stroke-width="1"/>
   <path inkscape:connector-curvature="0" d="m 6.6862511,97.404163 0.851278,-2.297658 28.4947839,1.847071 c 7.838305,-0.305979 9.956684,-3.712408 11.106663,-7.643754 l 0.818431,37.757028 C 21.788243,123.37261 11.613649,111.6975 6.6862511,97.404163 Z" id="path3194" sodipodi:nodetypes="cccccc" stroke-opacity="1" fill="#272727" fill-rule="evenodd" stroke="none" stroke-linejoin="round" fill-opacity="1" stroke-linecap="butt" stroke-width="1"/>
   <rect transform="rotate(90.6368)" y="-85.01" x="84.78" height="26.545" width="27.362" id="rect3180" opacity="0.99" stroke-dasharray="none" stroke-opacity="1" fill="url(#linearGradient3283)" stroke="none" stroke-linejoin="round" fill-opacity="1" stroke-width="1" stroke-miterlimit="4"/>
   <path inkscape:connector-curvature="0" sodipodi:nodetypes="cccccc" id="path3156" d="m 7.6467311,93.548825 0.851278,-2.29766 28.4947859,1.847072 c 7.838305,-0.305978 9.956682,-3.712409 11.106663,-7.643755 l 0.818431,37.757028 C 22.748723,119.51727 12.574129,107.84216 7.6467311,93.548825 Z" stroke-opacity="1" fill="url(#linearGradient1042)" fill-rule="evenodd" stroke="#656565" stroke-linejoin="round" fill-opacity="1" stroke-linecap="butt" stroke-width="2.01"/>
   <path inkscape:connector-curvature="0" sodipodi:nodetypes="ccccccc" id="path3175" d="m 11.820362,61.125422 4.665596,7.390214 21.119679,-1.75641 c 7.553109,-1.634634 9.736431,3.745898 12.650926,8.171217 L 49.464406,55.91005 21.692816,55.637448 Z" stroke-opacity="1" fill="#4a4a4a" fill-rule="evenodd" stroke="#000000" stroke-linejoin="round" fill-opacity="1" stroke-linecap="butt" stroke-width="2.01"/>
   <path inkscape:connector-curvature="0" sodipodi:nodetypes="cccc" id="path3158" d="m 34.794319,93.154724 10.124665,22.042566 4.768741,-26.976811 c -4.435573,2.465421 -7.729118,6.70288 -14.893406,4.934245 z" stroke-dasharray="none" stroke-opacity="1" fill="#999999" fill-rule="evenodd" stroke="#777777" stroke-linejoin="round" fill-opacity="1" stroke-linecap="butt" stroke-width="0.495" stroke-miterlimit="4"/>
   <path inkscape:connector-curvature="0" sodipodi:nodetypes="ccccccccccsccccccsssc" id="path2384" d="M 54.720564,41.386076 C 45.018365,40.153069 24.734528,38.538817 11.516399,61.864633 L 35.112062,60.583257 C 45.786088,59.597823 46.254227,69.35254 45.684539,80.20385 l -3.809302,45.63238 2.841944,2.79034 45.361572,-7.18326 126.029877,67.64861 c 22.32115,10.17835 39.03925,-25.20283 17.50582,-35.34561 L 113.09541,101.70462 C 79.069763,84.17338 75.819433,44.067428 54.720564,41.386076 Z m 29.684769,44.875325 -1.62274,25.556689 -27.608678,2.80856 3.119472,-28.41478 z M 228.36454,159.61957 c 6.97568,2.58448 10.71561,9.85548 8.36608,16.19702 -2.34954,6.34153 -9.90233,9.36178 -16.87801,6.7773 -6.97571,-2.58449 -10.73739,-9.79672 -8.38786,-16.13826 2.34952,-6.34154 9.9241,-9.42054 16.89979,-6.83606 z" stroke-opacity="1" fill="#b0b0b0" fill-rule="evenodd" stroke="#6c6c6c" stroke-linejoin="round" fill-opacity="1" stroke-linecap="butt" stroke-width="2.01"/>
   <circle r="6.925" cy="57.53" cx="174.13" transform="matrix(1.8802511,0.6966291,-0.6966291,1.8802511,-64.011964,-58.627585)" id="path3163" opacity="0.99" stroke-dasharray="none" stroke-opacity="1" fill="none" stroke="url(#linearGradient3287)" stroke-linejoin="round" fill-opacity="0.515" stroke-width="1" stroke-miterlimit="4"/>
   <path inkscape:connector-curvature="0" sodipodi:nodetypes="cccccccc" id="path3173" d="m 83.856383,86.508085 c 4.18493,7.029146 15.33423,16.313685 25.755057,22.171965 l 107.13023,43.98182 c -9.87519,-0.4184 -18.56743,10.66156 -13.37577,23.71597 L 82.094703,112.42145 55.386531,115.1559 58.283265,86.178995 Z" stroke-dasharray="none" stroke-opacity="1" fill="none" fill-rule="evenodd" stroke="url(#linearGradient1034)" stroke-linejoin="round" stroke-linecap="butt" stroke-width="3.409" stroke-miterlimit="4"/>
   <path inkscape:connector-curvature="0" id="path3190" d="m 84.375043,85.884978 -1.10023,26.965132 -26.462653,2.59526" stroke-opacity="1" fill="none" fill-rule="evenodd" stroke="#cacaca" stroke-linejoin="round" stroke-linecap="round" stroke-width="2.01"/>
   <path inkscape:connector-curvature="0" sodipodi:nodetypes="ccc" d="m 55.654087,114.78236 3.020491,-28.359275 24.984175,0.132332" id="path3192" stroke-opacity="1" fill="none" fill-rule="evenodd" stroke="#000000" stroke-linejoin="round" stroke-linecap="round" stroke-width="2.01"/>
   <path inkscape:connector-curvature="0" sodipodi:nodetypes="ccc" id="path3196" d="m 79.855459,71.211721 c 3.916172,10.424318 18.228814,27.580856 30.095251,32.602839 l 110.23766,46.79186" stroke-opacity="0.45" fill="none" fill-rule="evenodd" stroke="#ffffff" stroke-linejoin="miter" stroke-linecap="butt" stroke-width="2.01"/>
   <path inkscape:connector-curvature="0" d="m 46.850812,126.04551 c 14.478502,-2.56357 28.718623,-3.23831 42.297333,-5.514 l 113.458575,57.8072" id="path3198" sodipodi:nodetypes="ccc" stroke-dasharray="none" stroke-opacity="0.425" fill="none" fill-rule="evenodd" stroke="#dcdcdc" stroke-linejoin="miter" stroke-linecap="butt" stroke-width="1.404" stroke-miterlimit="4"/>
   <path inkscape:connector-curvature="0" d="M 54.289881,42.548519 C 44.587682,41.315512 27.640643,39.615527 13.906093,60.766993 L 35.435074,59.711424 C 46.1091,58.72599 46.577239,68.480706 46.007551,79.332017 60.467433,69.934554 84.212733,88.537373 79.383453,65.104803 71.680313,52.551746 64.839327,43.889199 54.289881,42.548519 Z" id="path3200" sodipodi:nodetypes="cccccc" stroke-opacity="1" fill="url(#linearGradient3270)" fill-rule="evenodd" stroke="none" stroke-linejoin="round" fill-opacity="1" stroke-linecap="butt" stroke-width="1"/>
   <path inkscape:connector-curvature="0" sodipodi:nodetypes="cccccc" id="path3210" d="m 87.250703,96.395762 0.01993,14.218988 111.484827,59.48253 c -2.25955,-8.401 4.19588,-19.10076 9.58168,-16.94116 L 111.76866,114.07268 C 100.32667,109.2611 94.552963,104.72349 87.250703,96.395762 Z" stroke-opacity="1" fill="#ffffff" fill-rule="evenodd" stroke="none" stroke-linejoin="miter" fill-opacity="0.64" stroke-linecap="butt" stroke-width="1"/>
  </g>
 </g>
</svg>
