<?xml version="1.0" encoding="UTF-8" standalone="no"?>
<!-- Created with Inkscape (http://www.inkscape.org/) -->

<svg
   xmlns:dc="http://purl.org/dc/elements/1.1/"
   xmlns:cc="http://creativecommons.org/ns#"
   xmlns:rdf="http://www.w3.org/1999/02/22-rdf-syntax-ns#"
   xmlns:svg="http://www.w3.org/2000/svg"
   xmlns="http://www.w3.org/2000/svg"
   xmlns:xlink="http://www.w3.org/1999/xlink"
   xmlns:sodipodi="http://sodipodi.sourceforge.net/DTD/sodipodi-0.dtd"
   xmlns:inkscape="http://www.inkscape.org/namespaces/inkscape"
   width="256"
   height="256"
   id="svg2"
   sodipodi:version="0.32"
   inkscape:version="0.92.5 (2060ec1f9f, 2020-04-08)"
   version="1.0"
   sodipodi:docname="gnome-dictionary.svg">
  <defs
     id="defs4">
    <linearGradient
       inkscape:collect="always"
       id="linearGradient877">
      <stop
         stop-opacity="1"
         stop-color="#ccc"
         id="stop873" />
      <stop
         stop-opacity="1"
         stop-color="#423a3a"
         offset="1"
         id="stop875" />
    </linearGradient>
    <linearGradient
       inkscape:collect="always"
       id="linearGradient4197">
      <stop
         id="stop4199"
         stop-color="#f29736"
         stop-opacity="1" />
      <stop
         offset="1"
         id="stop4201"
         stop-color="#9d5100"
         stop-opacity="1" />
    </linearGradient>
    <linearGradient
       id="linearGradient4175"
       inkscape:collect="always">
      <stop
         id="stop4177"
         stop-color="#6a780d"
         stop-opacity="1" />
      <stop
         id="stop4179"
         offset="1"
         stop-color="#e6d200"
         stop-opacity="1" />
    </linearGradient>
    <linearGradient
       inkscape:collect="always"
       id="linearGradient4162">
      <stop
         id="stop4164"
         stop-color="#ededed"
         stop-opacity="1" />
      <stop
         offset="1"
         id="stop4166"
         stop-color="#1a1a1a"
         stop-opacity="1" />
    </linearGradient>
    <linearGradient
       id="linearGradient2851"
       inkscape:collect="always">
      <stop
         id="stop2853"
         stop-color="#ccc"
         stop-opacity="1" />
      <stop
         id="stop2855"
         offset="1"
         stop-color="#8c7979"
         stop-opacity="1" />
    </linearGradient>
    <linearGradient
       inkscape:collect="always"
       id="linearGradient2839">
      <stop
         id="stop2841"
         stop-color="#ccc"
         stop-opacity="1" />
      <stop
         offset="1"
         id="stop2843"
         stop-color="#2e1717"
         stop-opacity="1" />
    </linearGradient>
    <linearGradient
       inkscape:collect="always"
       xlink:href="#linearGradient2839"
       id="linearGradient2845"
       x1="85.41"
       y1="141.07"
       x2="64.38"
       y2="98"
       gradientUnits="userSpaceOnUse"
       gradientTransform="translate(-1.1623156,-52.304201)" />
    <linearGradient
       inkscape:collect="always"
       xlink:href="#linearGradient877"
       id="linearGradient2849"
       gradientUnits="userSpaceOnUse"
       x1="53.56"
       y1="209.4"
       x2="66.892"
       y2="188.4"
       gradientTransform="translate(6.0966604,-53.755997)" />
    <linearGradient
       inkscape:collect="always"
       xlink:href="#linearGradient2851"
       id="linearGradient2865"
       x1="15.47"
       y1="162.84"
       x2="236.66"
       y2="162.84"
       gradientUnits="userSpaceOnUse"
       gradientTransform="translate(-1.1623156,-52.304201)" />
    <linearGradient
       inkscape:collect="always"
       xlink:href="#linearGradient2851"
       id="linearGradient2869"
       gradientUnits="userSpaceOnUse"
       gradientTransform="translate(139.66188,-122.47433)"
       x1="55.887"
       y1="210.27"
       x2="72.12"
       y2="183.17" />
    <linearGradient
       inkscape:collect="always"
       xlink:href="#linearGradient4162"
       id="linearGradient2879"
       x1="185.16"
       y1="189.7"
       x2="174.66"
       y2="168.87"
       gradientUnits="userSpaceOnUse"
       gradientTransform="translate(-1.1623156,-52.304201)" />
    <linearGradient
       inkscape:collect="always"
       xlink:href="#linearGradient4197"
       id="linearGradient4203"
       x1="149.65"
       y1="-37.714"
       x2="263.01"
       y2="44.797"
       gradientUnits="userSpaceOnUse"
       gradientTransform="translate(-52.91215,-47.232888)" />
    <linearGradient
       id="linearGradient4311">
      <stop
         stop-opacity="1"
         stop-color="#bcbfeb"
         id="stop4313" />
      <stop
         stop-opacity="1"
         stop-color="#5975ff"
         offset="0.293"
         id="stop4315" />
      <stop
         stop-opacity="1"
         stop-color="#000984"
         id="stop4317"
         offset="1" />
    </linearGradient>
    <linearGradient
       id="linearGradient3381">
      <stop
         stop-opacity="1"
         stop-color="#ffffff"
         id="stop3383" />
      <stop
         stop-opacity="0"
         stop-color="#ffffff"
         offset="1"
         id="stop3385" />
    </linearGradient>
    <filter
       inkscape:collect="always"
       id="filter1465"
       x="-0.018"
       width="1.036"
       y="-0.031"
       height="1.061"
       color-interpolation-filters="sRGB">
      <feGaussianBlur
         inkscape:collect="always"
         stdDeviation="1.99483"
         id="feGaussianBlur1467" />
    </filter>
    <linearGradient
       inkscape:collect="always"
       xlink:href="#linearGradient2839"
       id="linearGradient919"
       gradientUnits="userSpaceOnUse"
       gradientTransform="translate(-0.92173175,-25.303092)"
       x1="85.41"
       y1="141.07"
       x2="64.38"
       y2="98" />
    <linearGradient
       inkscape:collect="always"
       xlink:href="#linearGradient2851"
       id="linearGradient921"
       gradientUnits="userSpaceOnUse"
       gradientTransform="translate(-0.92173175,-25.303092)"
       x1="15.47"
       y1="162.84"
       x2="236.66"
       y2="162.84" />
    <linearGradient
       inkscape:collect="always"
       xlink:href="#linearGradient877"
       id="linearGradient923"
       gradientUnits="userSpaceOnUse"
       gradientTransform="translate(6.3372443,-26.754888)"
       x1="53.56"
       y1="209.4"
       x2="66.892"
       y2="188.4" />
    <linearGradient
       inkscape:collect="always"
       xlink:href="#linearGradient2851"
       id="linearGradient925"
       gradientUnits="userSpaceOnUse"
       gradientTransform="translate(139.90246,-95.473221)"
       x1="55.887"
       y1="210.27"
       x2="72.12"
       y2="183.17" />
    <linearGradient
       inkscape:collect="always"
       xlink:href="#linearGradient4162"
       id="linearGradient927"
       gradientUnits="userSpaceOnUse"
       gradientTransform="translate(-0.92173175,-25.303092)"
       x1="185.16"
       y1="189.7"
       x2="174.66"
       y2="168.87" />
    <linearGradient
       inkscape:collect="always"
       xlink:href="#linearGradient4197"
       id="linearGradient929"
       gradientUnits="userSpaceOnUse"
       gradientTransform="translate(-25.78272,-22.615467)"
       x1="149.65"
       y1="-37.714"
       x2="263.01"
       y2="44.797" />
    <linearGradient
       inkscape:collect="always"
       xlink:href="#linearGradient2839"
       id="linearGradient961"
       gradientUnits="userSpaceOnUse"
       gradientTransform="translate(-1.1623156,-52.304201)"
       x1="85.41"
       y1="141.07"
       x2="64.38"
       y2="98" />
    <linearGradient
       inkscape:collect="always"
       xlink:href="#linearGradient2851"
       id="linearGradient963"
       gradientUnits="userSpaceOnUse"
       gradientTransform="translate(-1.1623156,-52.304201)"
       x1="15.47"
       y1="162.84"
       x2="236.66"
       y2="162.84" />
    <linearGradient
       inkscape:collect="always"
       xlink:href="#linearGradient877"
       id="linearGradient965"
       gradientUnits="userSpaceOnUse"
       gradientTransform="translate(6.0966604,-53.755997)"
       x1="53.56"
       y1="209.4"
       x2="66.892"
       y2="188.4" />
    <linearGradient
       inkscape:collect="always"
       xlink:href="#linearGradient2851"
       id="linearGradient967"
       gradientUnits="userSpaceOnUse"
       gradientTransform="translate(139.66188,-122.47433)"
       x1="55.887"
       y1="210.27"
       x2="72.12"
       y2="183.17" />
    <linearGradient
       inkscape:collect="always"
       xlink:href="#linearGradient4162"
       id="linearGradient969"
       gradientUnits="userSpaceOnUse"
       gradientTransform="translate(-1.1623156,-52.304201)"
       x1="185.16"
       y1="189.7"
       x2="174.66"
       y2="168.87" />
    <linearGradient
       inkscape:collect="always"
       xlink:href="#linearGradient4197"
       id="linearGradient971"
       gradientUnits="userSpaceOnUse"
       gradientTransform="translate(-52.91215,-47.232888)"
       x1="149.65"
       y1="-37.714"
       x2="263.01"
       y2="44.797" />
    <linearGradient
       inkscape:collect="always"
       xlink:href="#linearGradient4175"
       id="linearGradient973"
       gradientUnits="userSpaceOnUse"
       gradientTransform="matrix(0.40206209,0.29245057,-0.16054106,0.31123274,61.775605,46.019894)"
       x1="121.69"
       y1="172.45"
       x2="92.2"
       y2="162.64"
       spreadMethod="reflect" />
  </defs>
  <sodipodi:namedview
     id="base"
     pagecolor="#ff0000"
     bordercolor="#666666"
     borderopacity="1.0"
     inkscape:pageopacity="0"
     inkscape:pageshadow="2"
     inkscape:zoom="3.4960938"
     inkscape:cx="128"
     inkscape:cy="128"
     inkscape:document-units="px"
     inkscape:current-layer="layer1"
     width="256"
     height="256"
     inkscape:window-width="1920"
     inkscape:window-height="1056"
     inkscape:window-x="0"
     inkscape:window-y="0"
     showgrid="false"
     inkscape:window-maximized="1"
     inkscape:snap-to-guides="false"
     inkscape:snap-grids="false"
     inkscape:snap-others="false"
     inkscape:object-nodes="false"
     inkscape:snap-nodes="false"
     inkscape:snap-global="false" />
  <metadata
     id="metadata7">
    <rdf:RDF>
      <cc:Work>
        <dc:format>image/svg+xml</dc:format>
        <dc:type
           rdf:resource="http://purl.org/dc/dcmitype/StillImage" />
        <dc:title />
      </cc:Work>
    </rdf:RDF>
  </metadata>
  <g
     inkscape:label="1. réteg"
     inkscape:groupmode="layer"
     id="layer1">
    <rect
       id="rect1459"
       width="111.38"
       height="173.67"
       x="187.78999"
       y="-12.793"
       transform="matrix(0.81523016,0.57913711,-0.8886449,0.45859595,2.2428144,6.1067017)"
       ry="8.3129997"
       stroke-miterlimit="4"
       rx="8.3129997"
       style="fill:#000000;fill-opacity:0.79199997;stroke:none;stroke-width:0;stroke-miterlimit:4;stroke-dasharray:none;stroke-opacity:1;filter:url(#filter1465)" />
    <g
       id="g889"
       transform="translate(3.40513,58.410902)">
      <rect
         style="fill:#cccccc;fill-opacity:1;stroke:none;stroke-width:0;stroke-miterlimit:4;stroke-dasharray:none;stroke-opacity:1"
         stroke-miterlimit="4"
         transform="matrix(0.81523016,0.57913711,-0.8886449,0.45859595,0,0)"
         y="-58.032887"
         x="126.23785"
         height="163.85001"
         width="113.14"
         id="rect2833" />
      <path
         style="fill:url(#linearGradient2845);fill-opacity:1;fill-rule:evenodd;stroke:none;stroke-width:0;stroke-linecap:butt;stroke-linejoin:miter;stroke-miterlimit:4;stroke-dasharray:none;stroke-opacity:1"
         stroke-miterlimit="4"
         sodipodi:nodetypes="ccccc"
         id="path2837"
         d="m 8.7237924,92.529439 c -9.55200505,3.46529 -9.19055466,23.808421 0.569289,29.044341 L 156.11556,45.450052 C 147.6062,36.880446 149.45122,29.64667 153.69591,19.801659 Z"
         inkscape:connector-curvature="0" />
      <path
         style="fill:url(#linearGradient2865);fill-opacity:1;fill-rule:evenodd;stroke:none;stroke-width:1;stroke-linecap:butt;stroke-linejoin:miter;stroke-opacity:1"
         sodipodi:nodetypes="ccccc"
         id="path2857"
         d="M 99.495524,178.53134 234.99647,109.32907 146.92086,43.030393 14.807438,117.55591 Z"
         inkscape:connector-curvature="0" />
      <path
         style="fill:url(#linearGradient2849);fill-opacity:1;fill-rule:evenodd;stroke:none;stroke-width:0;stroke-linecap:butt;stroke-linejoin:miter;stroke-miterlimit:4;stroke-dasharray:none;stroke-opacity:1"
         stroke-miterlimit="4"
         d="m 15.775302,91.907529 c -9.5520042,3.46529 -9.2759112,22.832131 0.483932,28.068051 l 83.72023,59.0397 c -8.509366,-8.56961 -6.664346,-15.80339 -2.419654,-25.6484 z"
         id="path2847"
         sodipodi:nodetypes="ccccc"
         inkscape:connector-curvature="0" />
      <path
         style="fill:url(#linearGradient2869);fill-opacity:1;fill-rule:evenodd;stroke:none;stroke-width:0;stroke-linecap:butt;stroke-linejoin:miter;stroke-miterlimit:4;stroke-dasharray:none;stroke-opacity:1"
         stroke-miterlimit="4"
         sodipodi:nodetypes="ccccc"
         id="path2867"
         d="m 149.34052,23.189193 c -9.55201,3.46529 -9.27592,22.83213 0.48393,28.068046 l 83.72023,59.039701 c -8.50937,-8.56961 -6.66435,-15.803391 -2.41966,-25.648401 z"
         inkscape:connector-curvature="0" />
      <path
         style="fill:url(#linearGradient2879);fill-opacity:1;fill-rule:evenodd;stroke:none;stroke-width:0;stroke-linecap:butt;stroke-linejoin:miter;stroke-miterlimit:4;stroke-dasharray:none;stroke-opacity:1"
         stroke-miterlimit="4"
         sodipodi:nodetypes="ccccc"
         id="path2871"
         d="M 99.674304,178.58837 C 89.240918,169.23235 92.180586,159.81931 97.559801,150.46329 L 232.96366,82.802199 c -7.77948,9.15001 -7.64702,17.860791 2.04514,26.571561 z"
         inkscape:connector-curvature="0" />
      <rect
         style="fill:url(#linearGradient4203);fill-opacity:1;stroke:none;stroke-width:0;stroke-miterlimit:4;stroke-dasharray:none;stroke-opacity:1"
         stroke-miterlimit="4"
         id="rect2835"
         width="113.14"
         height="163.85001"
         x="96.947853"
         y="-84.362892"
         transform="matrix(0.81523016,0.57913711,-0.8886449,0.45859595,0,0)" />
      <path
         style="fill:none;stroke:#714211;stroke-width:1.89999998;stroke-linecap:butt;stroke-linejoin:miter;stroke-miterlimit:4;stroke-dasharray:none;stroke-opacity:1"
         stroke-miterlimit="4"
         inkscape:connector-curvature="0"
         id="path874"
         d="M 8.7237924,92.529439 100.64056,158.12667 246.24129,82.987649" />
      <path
         style="fill:none;stroke:#6a6a6a;stroke-width:1.60000002;stroke-linecap:butt;stroke-linejoin:miter;stroke-miterlimit:4;stroke-dasharray:none;stroke-opacity:1"
         stroke-miterlimit="4"
         inkscape:connector-curvature="0"
         id="path876"
         d="M 9.2930814,121.57378 101.12453,187.1626 246.72525,112.02359" />
      <path
         style="fill:none;stroke:#f0983a;stroke-width:1.29999995;stroke-linecap:butt;stroke-linejoin:miter;stroke-miterlimit:4;stroke-dasharray:none;stroke-opacity:1"
         stroke-miterlimit="4"
         inkscape:connector-curvature="0"
         id="path878"
         d="M 8.7237924,92.529439 154.00247,17.461458 246.24129,82.987649" />
    </g>
    <rect
       style="fill:#cccccc;fill-opacity:1;stroke:none;stroke-width:0;stroke-miterlimit:4;stroke-dasharray:none;stroke-opacity:1"
       stroke-miterlimit="4"
       transform="matrix(0.81523016,0.57913711,-0.8886449,0.45859595,0,0)"
       y="-33.415466"
       x="153.36726"
       height="163.85001"
       width="113.14"
       id="rect891" />
    <path
       style="fill:url(#linearGradient919);fill-opacity:1;fill-rule:evenodd;stroke:none;stroke-width:0;stroke-linecap:butt;stroke-linejoin:miter;stroke-miterlimit:4;stroke-dasharray:none;stroke-opacity:1"
       stroke-miterlimit="4"
       sodipodi:nodetypes="ccccc"
       id="path893"
       d="m 8.9643763,119.53055 c -9.55200505,3.46529 -9.19055475,23.80842 0.569289,29.04434 L 156.35614,72.451161 c -8.50936,-8.569606 -6.66434,-15.803382 -2.41965,-25.648393 z"
       inkscape:connector-curvature="0" />
    <path
       style="fill:url(#linearGradient921);fill-opacity:1;fill-rule:evenodd;stroke:none;stroke-width:1;stroke-linecap:butt;stroke-linejoin:miter;stroke-opacity:1"
       sodipodi:nodetypes="ccccc"
       id="path895"
       d="M 99.736108,205.53245 235.23705,136.33018 147.16144,70.031502 15.048022,144.55702 Z"
       inkscape:connector-curvature="0" />
    <path
       style="fill:url(#linearGradient923);fill-opacity:1;fill-rule:evenodd;stroke:none;stroke-width:0;stroke-linecap:butt;stroke-linejoin:miter;stroke-miterlimit:4;stroke-dasharray:none;stroke-opacity:1"
       stroke-miterlimit="4"
       d="m 16.015886,118.90864 c -9.5520043,3.46529 -9.2759113,22.83213 0.483931,28.06805 l 83.720233,59.0397 c -8.509368,-8.56961 -6.664348,-15.80339 -2.419656,-25.6484 z"
       id="path897"
       sodipodi:nodetypes="ccccc"
       inkscape:connector-curvature="0" />
    <path
       style="fill:url(#linearGradient925);fill-opacity:1;fill-rule:evenodd;stroke:none;stroke-width:0;stroke-linecap:butt;stroke-linejoin:miter;stroke-miterlimit:4;stroke-dasharray:none;stroke-opacity:1"
       stroke-miterlimit="4"
       sodipodi:nodetypes="ccccc"
       id="path899"
       d="m 149.5811,50.190302 c -9.55201,3.46529 -9.27592,22.83213 0.48393,28.068046 l 83.72023,59.039702 c -8.50937,-8.56961 -6.66435,-15.80339 -2.41966,-25.6484 z"
       inkscape:connector-curvature="0" />
    <path
       style="fill:url(#linearGradient927);fill-opacity:1;fill-rule:evenodd;stroke:none;stroke-width:0;stroke-linecap:butt;stroke-linejoin:miter;stroke-miterlimit:4;stroke-dasharray:none;stroke-opacity:1"
       stroke-miterlimit="4"
       sodipodi:nodetypes="ccccc"
       id="path901"
       d="M 99.914888,205.58948 C 89.481501,196.23346 92.42117,186.82042 97.800384,177.4644 L 233.20424,109.80331 c -7.77948,9.15001 -7.64702,17.86079 2.04514,26.57156 z"
       inkscape:connector-curvature="0" />
    <rect
       style="fill:url(#linearGradient929);fill-opacity:1;stroke:none;stroke-width:0;stroke-miterlimit:4;stroke-dasharray:none;stroke-opacity:1"
       stroke-miterlimit="4"
       id="rect903"
       width="113.14"
       height="163.85001"
       x="124.07729"
       y="-59.745472"
       transform="matrix(0.81523016,0.57913711,-0.8886449,0.45859595,0,0)" />
    <path
       style="fill:none;stroke:#714211;stroke-width:1.89999998;stroke-linecap:butt;stroke-linejoin:miter;stroke-miterlimit:4;stroke-dasharray:none;stroke-opacity:1"
       stroke-miterlimit="4"
       inkscape:connector-curvature="0"
       id="path907"
       d="M 8.9643763,119.53055 100.88114,185.12778 246.48187,109.98876" />
    <path
       style="fill:none;stroke:#6a6a6a;stroke-width:1.60000002;stroke-linecap:butt;stroke-linejoin:miter;stroke-miterlimit:4;stroke-dasharray:none;stroke-opacity:1"
       stroke-miterlimit="4"
       inkscape:connector-curvature="0"
       id="path909"
       d="M 9.5336653,148.57489 101.36511,214.16371 246.96583,139.0247" />
    <path
       style="fill:none;stroke:#f0983a;stroke-width:1.29999995;stroke-linecap:butt;stroke-linejoin:miter;stroke-miterlimit:4;stroke-dasharray:none;stroke-opacity:1"
       stroke-miterlimit="4"
       inkscape:connector-curvature="0"
       id="path911"
       d="M 8.9643763,119.53055 154.24305,44.462567 246.48187,109.98876" />
    <g
       transform="translate(-0.03636255,-5.8115778)"
       id="g959">
      <rect
         style="fill:#cccccc;fill-opacity:1;stroke:none;stroke-width:0;stroke-miterlimit:4;stroke-dasharray:none;stroke-opacity:1"
         stroke-miterlimit="4"
         transform="matrix(0.81523016,0.57913711,-0.8886449,0.45859595,0,0)"
         y="-58.032887"
         x="126.23785"
         height="163.85001"
         width="113.14"
         id="rect933" />
      <path
         style="fill:url(#linearGradient961);fill-opacity:1;fill-rule:evenodd;stroke:none;stroke-width:0;stroke-linecap:butt;stroke-linejoin:miter;stroke-miterlimit:4;stroke-dasharray:none;stroke-opacity:1"
         stroke-miterlimit="4"
         sodipodi:nodetypes="ccccc"
         id="path935"
         d="m 8.7237924,92.529439 c -9.55200505,3.46529 -9.19055466,23.808421 0.569289,29.044341 L 156.11556,45.450052 C 147.6062,36.880446 149.45122,29.64667 153.69591,19.801659 Z"
         inkscape:connector-curvature="0" />
      <path
         style="fill:url(#linearGradient963);fill-opacity:1;fill-rule:evenodd;stroke:none;stroke-width:1;stroke-linecap:butt;stroke-linejoin:miter;stroke-opacity:1"
         sodipodi:nodetypes="ccccc"
         id="path937"
         d="M 99.495524,178.53134 234.99647,109.32907 146.92086,43.030393 14.807438,117.55591 Z"
         inkscape:connector-curvature="0" />
      <path
         style="fill:url(#linearGradient965);fill-opacity:1;fill-rule:evenodd;stroke:none;stroke-width:0;stroke-linecap:butt;stroke-linejoin:miter;stroke-miterlimit:4;stroke-dasharray:none;stroke-opacity:1"
         stroke-miterlimit="4"
         d="m 15.775302,91.907529 c -9.5520042,3.46529 -9.2759112,22.832131 0.483932,28.068051 l 83.72023,59.0397 c -8.509366,-8.56961 -6.664346,-15.80339 -2.419654,-25.6484 z"
         id="path939"
         sodipodi:nodetypes="ccccc"
         inkscape:connector-curvature="0" />
      <path
         style="fill:url(#linearGradient967);fill-opacity:1;fill-rule:evenodd;stroke:none;stroke-width:0;stroke-linecap:butt;stroke-linejoin:miter;stroke-miterlimit:4;stroke-dasharray:none;stroke-opacity:1"
         stroke-miterlimit="4"
         sodipodi:nodetypes="ccccc"
         id="path941"
         d="m 149.34052,23.189193 c -9.55201,3.46529 -9.27592,22.83213 0.48393,28.068046 l 83.72023,59.039701 c -8.50937,-8.56961 -6.66435,-15.803391 -2.41966,-25.648401 z"
         inkscape:connector-curvature="0" />
      <path
         style="fill:url(#linearGradient969);fill-opacity:1;fill-rule:evenodd;stroke:none;stroke-width:0;stroke-linecap:butt;stroke-linejoin:miter;stroke-miterlimit:4;stroke-dasharray:none;stroke-opacity:1"
         stroke-miterlimit="4"
         sodipodi:nodetypes="ccccc"
         id="path943"
         d="M 99.674304,178.58837 C 89.240918,169.23235 92.180586,159.81931 97.559801,150.46329 L 232.96366,82.802199 c -7.77948,9.15001 -7.64702,17.860791 2.04514,26.571561 z"
         inkscape:connector-curvature="0" />
      <rect
         style="fill:url(#linearGradient971);fill-opacity:1;stroke:none;stroke-width:0;stroke-miterlimit:4;stroke-dasharray:none;stroke-opacity:1"
         stroke-miterlimit="4"
         id="rect945"
         width="113.14"
         height="163.85001"
         x="96.947853"
         y="-84.362892"
         transform="matrix(0.81523016,0.57913711,-0.8886449,0.45859595,0,0)" />
      <path
         style="fill:url(#linearGradient973);fill-opacity:1;stroke:none;stroke-width:0;stroke-miterlimit:4;stroke-dasharray:none;stroke-opacity:1"
         stroke-miterlimit="4"
         inkscape:connector-curvature="0"
         id="path947"
         d="m 32.845045,80.966119 -3.90234,1.61524 c 3.1147,2.26556 5.45286,2.81241 4.31641,5.01563 -1.13647,2.20321 -5.46735,-0.62117 -8.58204,-2.88673 l -2.349605,1.91602 c 3.049805,2.21837 7.775195,6.6426 10.351565,6.24805 l 5.84375,4.25 c -1.65323,0.23958 -3.48826,0.14281 -5.48438,-0.25781 3.77324,2.29677 7.56363,4.283201 11.46485,4.607421 l 6.9414,6.25586 0.0801,-0.0547 14.68164,11.98828 c 2.02389,3.82229 5.1661,6.83905 8.50781,9.70508 -1.1503,-1.83825 -2.03862,-3.64478 -2.61328,-5.41797 l 4.89844,3.56445 c 0.87413,2.90535 3.03928,5.94126 6.08984,8.16016 3.0498,2.21836 6.31231,3.12697 8.88868,2.73242 l 5.84179,4.25 c -1.65323,0.23958 -3.4863,0.14476 -5.48242,-0.25586 3.77324,2.29677 7.561669,4.28125 11.462885,4.60547 l 6.94141,6.25781 9.54492,-5.43164 -12.83789,-8.9375 c -2.12846,-3.4913 -5.2279,-6.66807 -8.199216,-9.89649 1.109776,2.08511 2.293476,4.19548 3.035156,6.14063 l -5.703125,-4.15039 c -0.6324,-3.19626 -2.93573,-6.69492 -6.34375,-9.17383 -3.40802,-2.47891 -7.07856,-3.32616 -9.76367,-2.54297 l -5.11523,-3.71875 c 1.84914,-0.14693 4.09695,0.17427 6.26757,0.41211 -3.90019,-1.73345 -7.83858,-3.63849 -11.53125,-4.24219 l -11.84765,-8.41601 -1.61328,0.96484 1.86523,-1.24219 -10.34766,-9.669921 c -2.12846,-3.4913 -5.22789,-6.66807 -8.19921,-9.89649 1.10978,2.08511 2.29347,4.19548 3.03515,6.14063 l -5.70312,-4.14844 c -0.6324,-3.19626 -1.03144,-2.01133 -4.43946,-4.49024 z m 3.83008,6.53712 c 0.37481,2.95716 5.95972,6.90738 8.59766,7.25391 0.33421,-1.47044 -0.65968,-3.58751 -1.24024,-5.50196 1.81687,2.71221 4.25836,5.22358 5.0586,8.2793 2.04845,3.705651 3.12227,0.72474 7.1289,5.601561 l -2.6914,1.07227 c -5.6997,-1.97086 -2.78454,-2.96151 -5.80664,-3.34961 -2.64954,0.40056 -5.56352,-0.82068 -8.42774,-1.714841 1.77516,-0.0311 3.43763,-0.31443 3.87305,-1.41016 -1.3435,-1.5494 -6.13513,-5.17734 -8.76172,-5.38086 1.6769,-0.24756 2.16443,-2.26417 2.26953,-4.84961 z m 22.72266,19.570311 c 5.47885,2.02269 4.93392,5.80377 8.64453,6.28711 2.65592,-0.54178 5.63793,0.89037 8.49805,1.58008 -1.69995,0.25567 -3.74016,0.16785 -4.69141,1.18945 1.45847,2.63312 5.92574,5.81228 8.31445,4.86524 -2.03873,1.0071 -3.74293,2.21429 -2.26953,5.30273 -1.34603,-2.68609 -5.53586,-5.86282 -7.30859,-6.58008 -0.62418,0.95844 -0.082,2.84435 0.70117,4.73633 -1.97209,-2.62367 -4.22563,-5.15971 -5.12891,-8.14453 -1.66421,-3.0206 -4.47683,-1.08085 -8.54492,-6.21484 z m 24.98242,16.23243 c 1.3932,0.0211 3.03446,0.60159 4.5918,1.73437 3.1147,2.26556 4.72043,5.88859 3.58398,8.0918 -1.13647,2.20321 -4.58843,2.15814 -7.70312,-0.10743 -3.11467,-2.26553 -4.71656,-5.8964 -3.58008,-8.0996 0.56822,-1.10161 1.71422,-1.6403 3.10742,-1.61914 z m 11.5918,9.73046 c 0.37481,2.95716 5.959705,6.90933 8.597645,7.25586 0.33421,-1.47044 -0.65967,-3.58945 -1.24023,-5.5039 1.81687,2.71221 4.25835,5.22553 5.05859,8.28125 2.04845,3.70565 3.12228,0.72474 7.12891,5.60156 l -2.69141,1.07031 c -5.6997,-1.97086 -2.78454,-2.95955 -5.80664,-3.34765 -2.64954,0.40056 -5.56351,-0.82264 -8.427725,-1.7168 1.775155,-0.0311 3.437615,-0.31443 3.873035,-1.41016 -1.3435,-1.5494 -6.133165,-5.17538 -8.759755,-5.3789 1.6769,-0.24756 2.16248,-2.26613 2.26758,-4.85157 z" />
      <path
         style="fill:none;stroke:#714211;stroke-width:1.89999998;stroke-linecap:butt;stroke-linejoin:miter;stroke-miterlimit:4;stroke-dasharray:none;stroke-opacity:1"
         stroke-miterlimit="4"
         inkscape:connector-curvature="0"
         id="path949"
         d="M 8.7237924,92.529439 100.64056,158.12667 246.24129,82.987649" />
      <path
         style="fill:none;stroke:#6a6a6a;stroke-width:1.60000002;stroke-linecap:butt;stroke-linejoin:miter;stroke-miterlimit:4;stroke-dasharray:none;stroke-opacity:1"
         stroke-miterlimit="4"
         inkscape:connector-curvature="0"
         id="path951"
         d="M 9.2930814,121.57378 101.12453,187.1626 246.72525,112.02359" />
      <path
         style="fill:none;stroke:#f0983a;stroke-width:1.29999995;stroke-linecap:butt;stroke-linejoin:miter;stroke-miterlimit:4;stroke-dasharray:none;stroke-opacity:1"
         stroke-miterlimit="4"
         inkscape:connector-curvature="0"
         id="path953"
         d="M 8.7237924,92.529439 154.00247,17.461458 246.24129,82.987649" />
      <path
         style="fill:#000000;fill-opacity:1;stroke:#ffffff;stroke-width:0.30000001;stroke-linecap:round;stroke-linejoin:round;stroke-miterlimit:4;stroke-dasharray:none;stroke-dashoffset:0;stroke-opacity:1"
         stroke-miterlimit="4"
         inkscape:connector-curvature="0"
         d="m 204.05479,68.338659 -20.11122,1.92534 a 29.667998,53.794689 68.623635 0 1 -0.45056,1.69815 z m -20.56178,3.62349 -1.88027,0.33171 c -0.82204,2.63588 -2.13124,5.32954 -3.89786,8.01578 0.47053,0.13118 0.96469,0.25549 1.48323,0.37264 a 29.667998,53.794689 68.623635 0 0 4.2949,-8.72012 z m -4.2949,8.72012 a 29.667998,53.794689 68.623635 0 1 -4.6506,5.88669 c 3.36016,-1.37127 6.75775,-3.02599 10.19746,-4.88908 0.28494,-0.51622 -0.52893,-0.38193 -1.0642,-0.42308 -0.0952,0.0502 -0.18561,0.0948 -0.28023,0.1446 -1.56072,-0.19253 -2.94938,-0.43604 -4.20243,-0.71912 z m -4.6506,5.88669 c -0.95394,0.3893 -1.90511,0.75513 -2.85298,1.09618 -4.44694,4.51106 -10.15642,8.81901 -16.96478,12.585411 -10.65617,5.89499 -22.24566,9.49371 -32.91651,10.71058 l -0.68907,1.27689 a 29.667998,53.794689 68.623635 0 0 34.44092,-11.13571 29.667998,53.794689 68.623635 0 0 18.98245,-14.533351 z m -53.42337,25.669071 a 29.667998,53.794689 68.623635 0 1 -5.63621,0.40289 l -1.6347,4.40812 -3.16328,0.69246 -0.17,1.28592 1.15234,0.131 c -0.003,0.004 -0.003,0.006 -0.004,0.008 a 0.64613717,1.4026004 77.043243 0 0 -0.49273,0.44219 0.64613717,1.4026004 77.043243 0 0 0.97805,0.63056 0.64613717,1.4026004 77.043243 0 0 0.5946,-0.0954 c 0.18191,-0.007 0.36893,-0.0188 0.56047,-0.0345 0.17783,0.11983 0.36511,0.20836 0.55663,0.27397 a 0.86926305,1.9043853 77.312334 0 0 0.14262,0.0425 c 0.73701,0.20275 1.52769,0.052 2.15165,-0.26595 a 0.86926305,1.9043853 77.312334 0 0 0.89156,-0.69545 0.64613717,1.4026004 77.043243 0 0 0.67859,0.0793 0.64613717,1.4026004 77.043243 0 0 1.67997,-0.77019 0.64613717,1.4026004 77.043243 0 0 0.0371,-0.24297 l 1.69286,-0.31475 0.89836,-1.52901 -3.1967,-0.22192 z m -5.63621,0.40289 0.46268,-1.24625 C 104.50397,111.75694 94.630399,109.13372 88.900917,103.40276 84.454695,98.955379 83.13807,93.269489 84.529441,87.184509 l -1.864065,0.26532 a 29.667998,53.794689 68.623635 0 0 4.480636,16.929601 29.667998,53.794689 68.623635 0 0 28.341918,8.26148 z M 82.665378,87.449809 a 29.667998,53.794689 68.623635 0 1 1.577805,-4.71133 l -9.441981,1.34441 c -0.962553,0.13711 -1.888366,0.75774 -2.075042,1.39125 l -0.705596,2.39568 c -0.186638,0.63348 0.438264,1.03348 1.40079,0.89643 z m 1.577805,-4.71133 1.8701,-0.26602 c 3.854272,-8.75826 12.841421,-17.88348 25.798267,-25.05123 10.81342,-5.98199 22.586,-9.60085 33.38466,-10.766026 l 0.59463,-1.245506 A 29.667998,53.794689 68.623635 0 0 111.05492,56.580619 29.667998,53.794689 68.623635 0 0 84.243184,82.738489 Z M 145.89085,45.409687 a 29.667998,53.794689 68.623635 0 1 5.96634,-0.383917 l 3.17223,-7.12184 c 1.26814,-2.755303 2.27073,-5.394458 1.07782,-7.076115 0.0243,-0.05246 0.0507,-0.109182 0.0751,-0.161624 -0.0488,0.01846 -0.0962,0.04251 -0.1446,0.06239 -0.0126,-0.01621 -0.0218,-0.0338 -0.0348,-0.04983 -2.53878,0.959107 -4.52947,3.862046 -6.44161,7.045132 z m 5.96634,-0.383917 -0.5492,1.232787 c 11.17973,-0.25101 20.79909,2.375662 26.42443,8.002472 0.67023,0.67038 1.26515,1.37034 1.79464,2.09416 0.82791,0.0287 1.63941,0.0787 2.43321,0.15373 a 29.667998,53.794689 68.623635 0 0 -2.48716,-3.20497 29.667998,53.794689 68.623635 0 0 -27.61591,-8.27818 z m 30.10307,11.483149 a 29.667998,53.794689 68.623635 0 1 2.2592,5.79698 c 2.31008,-0.9981 4.62357,-1.85826 6.82682,-2.54888 0.12083,0.0396 0.24575,0.0631 0.36636,0.10395 0.60745,-0.20387 1.40998,-0.29898 1.41746,-0.77565 -3.33506,-1.26975 -6.8987,-2.20131 -10.86984,-2.57639 z m 2.2592,5.79698 c -0.60778,0.2626 -1.21511,0.53352 -1.82031,0.81519 0.39365,2.32986 0.2898,4.78906 -0.28271,7.31799 l 1.82713,-0.17506 a 29.667998,53.794689 68.623635 0 0 0.27588,-7.95808 z m -2.10302,8.13318 -4.33363,0.41485 c -0.15257,0.7332 -0.34825,1.47305 -0.58707,2.21791 l 4.417,-0.77801 c 0.19384,-0.62161 0.36465,-1.24048 0.5037,-1.85475 z m -4.9207,2.63276 -0.90042,0.15883 c -0.12612,0.11268 -0.2002,0.25965 -0.34425,0.36202 -0.0119,0.008 -0.0708,0.004 -0.0828,0.0117 -0.38501,0.26568 -0.75968,0.47963 -1.22005,0.64296 -0.4315,0.16748 -0.82844,0.27477 -1.28982,0.3404 l -0.74486,0.10593 c -0.38635,0.52356 -1.16824,1.00126 -1.99427,1.11886 l -0.57921,0.0827 c 0.99292,1.19832 2.36764,2.29296 4.34732,3.21315 1.22969,-2.02491 2.1708,-4.04805 2.80835,-6.03658 z m -2.80834,6.03659 c -2.1485,3.53792 -5.17406,7.07917 -8.98781,10.44274 2.08405,-0.48991 4.18191,-1.12578 6.29494,-1.88605 2.37677,-2.41104 4.39216,-4.87976 6.02035,-7.35551 -1.26942,-0.35394 -2.37081,-0.75652 -3.32748,-1.20118 z m -8.98781,10.44274 c -7.78842,1.83088 -15.38094,1.63017 -22.819,-1.71142 -0.0891,-0.4063 -0.95519,-0.45068 0.0914,-0.84773 0.13869,0.0437 0.30871,0.0502 0.4483,0.0925 4.00555,-1.32323 13.05862,-6.08107 17.40452,-9.83433 l -0.74487,0.10593 c -0.83273,0.11869 -1.47235,-0.15064 -1.5631,-0.61222 -0.0856,0.003 -0.15175,-0.0154 -0.23254,-0.0188 -0.5982,-0.003 -1.15415,-0.0995 -1.47785,-0.36322 l -5.55168,0.79062 a 10.678569,19.362624 68.623636 0 1 -9.81983,9.79858 10.678569,19.362624 68.623636 0 1 -9.53079,3.54239 l -6.23967,14.008901 1.88492,-0.40278 c 0.0676,-0.0209 0.13302,-0.0402 0.20094,-0.0615 0.0613,-0.009 0.11721,-0.0136 0.17278,-0.0167 l 0.0564,-0.0122 c 1.08846,-0.16617 1.20588,0.39186 0.5237,0.92302 -0.097,0.0992 -0.21838,0.19767 -0.37135,0.29025 -0.1613,0.0727 -0.32201,0.13646 -0.48286,0.20444 -0.3697,0.17827 -0.76724,0.33598 -1.19657,0.46885 -0.64393,0.22895 -1.28402,0.42445 -1.9189,0.58531 0,0 -8.7e-4,4.9e-4 -8.7e-4,4.9e-4 l -0.82126,1.5209 c 9.55442,-1.1678 19.88127,-4.41866 29.39018,-9.678991 4.83139,-2.67273 9.05368,-5.64517 12.59778,-8.77092 z m -41.98796,18.449921 c -2.17215,0.2655 -4.30412,0.42267 -6.37764,0.47182 l -1.08338,2.92171 c 1.91411,-0.0606 3.87259,-0.20657 5.86263,-0.43351 z m -6.37764,0.47182 0.50723,-1.36678 c 0,0 -4.1e-4,-4.2e-4 -4.1e-4,-4.2e-4 -1.11373,-0.0586 -2.20207,-0.18803 -3.25942,-0.3699 l -0.0905,-0.008 c -0.0123,-0.003 -0.0222,-0.009 -0.0341,-0.0125 -0.0113,-0.002 -0.0228,-0.004 -0.0342,-0.006 -0.64638,-0.14856 -0.35356,-1.48692 1.44422,-1.50936 0.037,0.007 0.0731,0.0125 0.10999,0.0195 l 1.64377,0.0177 6.77563,-14.188611 a 10.678569,19.362624 68.623636 0 1 -7.5885,-2.91797 10.678569,19.362624 68.623636 0 1 -1.66766,-5.83587 l -17.081571,2.43214 c -0.398834,0.39696 -1.088629,0.72925 -1.748709,0.82321 l -7.11511,1.01281 c -1.218244,5.48814 -0.0084,10.61267 4.00538,14.627451 5.132549,5.13388 13.92237,7.5245 24.13399,7.2825 z M 88.894614,86.562989 c 0.343712,-1.5484 0.88297,-3.12568 1.60498,-4.71526 l -4.38631,0.62472 c -0.698593,1.58743 -1.229544,3.16258 -1.583841,4.71205 z m 1.60498,-4.71526 6.889985,-0.98091 c 0.75155,-0.10681 1.315807,0.12342 1.430147,0.5266 l 17.380024,-2.47459 a 10.678569,19.362624 68.623636 0 1 8.91409,-7.9928 10.678569,19.362624 68.623636 0 1 10.36258,-3.70768 l 8.41797,-17.62701 c -9.73629,1.09474 -20.32215,4.37418 -30.0549,9.75835 -11.64243,6.44061 -19.761345,14.61937 -23.339897,22.49807 z m 53.394796,-32.25644 c 2.08025,-0.2339 4.12126,-0.36764 6.10731,-0.40117 l 1.30627,-2.931502 c -1.96034,0.044 -3.96851,0.17611 -6.01176,0.396586 z m 6.10731,-0.40117 -7.85645,17.63929 a 10.678569,19.362624 68.623636 0 1 7.59452,2.91723 10.678569,19.362624 68.623636 0 1 1.80743,4.13942 l 6.68255,-0.9517 c 0.37192,-0.18787 0.76383,-0.38228 1.1719,-0.48 0.19948,-0.67685 1.22727,-1.32256 2.2557,-1.469 l 0.57921,-0.0827 c -2.16839,-2.96075 -7.96681,-5.70447 -11.31523,-6.52793 -0.17577,0.0621 -0.3521,0.11747 -0.52777,0.17976 -0.89401,-0.12072 -1.69459,-0.0705 -1.34777,-0.53891 8.91752,-4.19555 16.42633,-6.43295 22.91423,-7.27987 l 4.3e-4,-8.4e-4 c 0.61314,-0.0803 1.21429,-0.14387 1.80923,-0.1997 -0.0175,-0.0177 -0.0335,-0.0362 -0.0513,-0.0538 -5.06431,-5.06563 -13.68404,-7.46105 -23.71684,-7.29145 z m 23.76799,7.34534 c 2.52686,2.54931 3.92984,5.5423 4.30562,8.78977 1.40853,-0.78499 2.85831,-1.52192 4.32384,-2.20408 -0.40851,-2.41778 -1.35697,-4.69474 -2.8721,-6.7659 -1.82717,-0.0633 -3.7414,-0.009 -5.75736,0.1802 z m 4.30562,8.78977 c -2.32381,1.2948 -4.53262,2.71829 -6.4886,4.24577 l 0.91046,-0.13007 c 0.99818,-0.14193 1.71085,0.23023 1.56643,0.87263 l 0.57883,-0.0827 c 0.0849,-0.0118 0.16536,-0.0262 0.24799,-0.0343 1.12767,-0.16023 2.0036,0.12603 2.32674,0.71167 l 0.56567,-0.054 c 0.39473,-1.8984 0.49812,-3.75164 0.2925,-5.52875 z m -26.52811,8.56083 -13.39483,1.90739 -1.5137,3.3979 14.31608,-2.03867 a 10.678569,19.362624 68.623636 0 0 0.59246,-3.26661 z m -14.90853,5.30529 -7.38167,1.05076 -5.16084,10.80658 a 10.678569,19.362624 68.623636 0 0 7.50793,-0.555 z m -7.38167,1.05076 1.63101,-3.41451 -14.68827,2.09125 a 10.678569,19.362624 68.623636 0 0 -1.35975,3.37601 z m 1.63101,-3.41451 7.26436,-1.03403 3.99289,-8.96404 a 10.678569,19.362624 68.623636 0 0 -6.66883,0.3889 z"
         id="path955" />
      <path
         style="fill:#646464;fill-opacity:1;stroke:none;stroke-width:0.75800002;stroke-linecap:round;stroke-linejoin:round;stroke-miterlimit:4;stroke-dasharray:none;stroke-dashoffset:0;stroke-opacity:1"
         stroke-miterlimit="4"
         id="path957"
         d="m 204.34537,69.500979 -20.11122,1.92534 a 29.667998,53.794689 68.623635 0 1 -0.45056,1.69815 z m -20.56178,3.62349 -1.88027,0.33171 c -0.82204,2.63588 -2.13124,5.32954 -3.89786,8.01578 0.47053,0.13118 0.96469,0.25549 1.48323,0.37264 a 29.667998,53.794689 68.623635 0 0 4.2949,-8.72012 z m -4.2949,8.72012 a 29.667998,53.794689 68.623635 0 1 -4.6506,5.88669 c 3.36016,-1.37127 6.75775,-3.02599 10.19746,-4.88908 0.28494,-0.51622 -0.52893,-0.38193 -1.0642,-0.42308 -0.0952,0.0502 -0.18561,0.0948 -0.28023,0.1446 -1.56072,-0.19253 -2.94938,-0.43604 -4.20243,-0.71912 z m -4.6506,5.88669 c -0.95394,0.3893 -1.90511,0.75513 -2.85298,1.09618 -4.44694,4.51106 -10.15642,8.81901 -16.96478,12.585411 -10.65617,5.89499 -22.24566,9.49371 -32.91651,10.71058 l -0.68907,1.27689 a 29.667998,53.794689 68.623635 0 0 34.44092,-11.13571 29.667998,53.794689 68.623635 0 0 18.98245,-14.533351 z m -53.42337,25.669071 a 29.667998,53.794689 68.623635 0 1 -5.63621,0.40289 l -1.6347,4.40812 -3.16328,0.69246 -0.17,1.28592 1.15234,0.131 c -0.003,0.004 -0.003,0.006 -0.004,0.008 a 0.64613717,1.4026004 77.043243 0 0 -0.49273,0.44219 0.64613717,1.4026004 77.043243 0 0 0.97805,0.63056 0.64613717,1.4026004 77.043243 0 0 0.5946,-0.0954 c 0.18191,-0.007 0.36893,-0.0188 0.56047,-0.0345 0.17783,0.11983 0.36511,0.20836 0.55663,0.27397 a 0.86926305,1.9043853 77.312334 0 0 0.14262,0.0425 c 0.73701,0.20275 1.52769,0.052 2.15165,-0.26595 a 0.86926305,1.9043853 77.312334 0 0 0.89156,-0.69545 0.64613717,1.4026004 77.043243 0 0 0.67859,0.0793 0.64613717,1.4026004 77.043243 0 0 1.67997,-0.77019 0.64613717,1.4026004 77.043243 0 0 0.0371,-0.24297 l 1.69286,-0.31475 0.89836,-1.52901 -3.1967,-0.22192 z m -5.63621,0.40289 0.46268,-1.24625 C 104.79455,112.91926 94.920978,110.29604 89.191496,104.56508 84.745274,100.1177 83.428649,94.431809 84.82002,88.346829 l -1.864065,0.26532 a 29.667998,53.794689 68.623635 0 0 4.480636,16.929601 29.667998,53.794689 68.623635 0 0 28.341919,8.26148 z M 82.955957,88.612129 a 29.667998,53.794689 68.623635 0 1 1.577805,-4.71133 l -9.441981,1.34441 c -0.962553,0.13711 -1.888366,0.75774 -2.075042,1.39125 l -0.705596,2.39568 c -0.186638,0.63348 0.438264,1.03348 1.40079,0.89643 z m 1.577805,-4.71133 1.8701,-0.26602 c 3.854272,-8.75826 12.841422,-17.88348 25.798268,-25.05123 10.81342,-5.98199 22.586,-9.60085 33.38466,-10.76603 l 0.59463,-1.245506 A 29.667998,53.794689 68.623635 0 0 111.3455,57.742939 29.667998,53.794689 68.623635 0 0 84.533763,83.900809 Z M 146.18143,46.572003 a 29.667998,53.794689 68.623635 0 1 5.96634,-0.383917 l 3.17223,-7.12184 c 1.26814,-2.755303 2.27073,-5.394458 1.07782,-7.076115 0.0243,-0.05246 0.0507,-0.109182 0.0751,-0.161624 -0.0488,0.01846 -0.0962,0.04251 -0.1446,0.06239 -0.0126,-0.01621 -0.0218,-0.0338 -0.0348,-0.04983 -2.53878,0.959107 -4.52947,3.862046 -6.44161,7.045132 z m 5.96634,-0.383917 -0.5492,1.232787 c 11.17973,-0.25101 20.79909,2.375666 26.42443,8.002476 0.67023,0.67038 1.26515,1.37034 1.79464,2.09416 0.82791,0.0287 1.63941,0.0787 2.43321,0.15373 a 29.667998,53.794689 68.623635 0 0 -2.48716,-3.20497 29.667998,53.794689 68.623635 0 0 -27.61591,-8.278184 z m 30.10307,11.483153 a 29.667998,53.794689 68.623635 0 1 2.2592,5.79698 c 2.31008,-0.9981 4.62357,-1.85826 6.82682,-2.54888 0.12083,0.0396 0.24575,0.0631 0.36636,0.10395 0.60745,-0.20387 1.40998,-0.29898 1.41746,-0.77565 -3.33506,-1.26975 -6.8987,-2.20131 -10.86984,-2.57639 z m 2.2592,5.79698 c -0.60778,0.2626 -1.21511,0.53352 -1.82031,0.81519 0.39365,2.32986 0.2898,4.78906 -0.28271,7.31799 l 1.82713,-0.17506 a 29.667998,53.794689 68.623635 0 0 0.27588,-7.95808 z m -2.10302,8.13318 -4.33363,0.41485 c -0.15257,0.7332 -0.34825,1.47305 -0.58707,2.21791 l 4.417,-0.77801 c 0.19384,-0.62161 0.36465,-1.24048 0.5037,-1.85475 z m -4.9207,2.63276 -0.90042,0.15883 c -0.12612,0.11268 -0.2002,0.25965 -0.34425,0.36202 -0.0119,0.008 -0.0708,0.004 -0.0828,0.0117 -0.38501,0.26568 -0.75968,0.47963 -1.22005,0.64296 -0.4315,0.16748 -0.82844,0.27477 -1.28982,0.3404 l -0.74486,0.10593 c -0.38635,0.52356 -1.16824,1.00126 -1.99427,1.11886 l -0.57921,0.0827 c 0.99292,1.19832 2.36764,2.29296 4.34732,3.21315 1.22969,-2.02491 2.1708,-4.04805 2.80835,-6.03658 z m -2.80834,6.03659 c -2.1485,3.53792 -5.17406,7.07917 -8.98781,10.44274 2.08405,-0.48991 4.18191,-1.12578 6.29494,-1.88605 2.37677,-2.41104 4.39216,-4.87976 6.02035,-7.35551 -1.26942,-0.35394 -2.37081,-0.75652 -3.32748,-1.20118 z m -8.98781,10.44274 c -7.78842,1.83088 -15.38094,1.63017 -22.819,-1.71142 -0.0891,-0.4063 -0.95519,-0.45068 0.0914,-0.84773 0.13869,0.0437 0.30871,0.0502 0.4483,0.0925 4.00555,-1.32323 13.05862,-6.08107 17.40452,-9.83433 l -0.74487,0.10593 c -0.83273,0.11869 -1.47235,-0.15064 -1.5631,-0.61222 -0.0856,0.003 -0.15175,-0.0154 -0.23254,-0.0188 -0.5982,-0.003 -1.15415,-0.0995 -1.47785,-0.36322 l -5.55168,0.79062 a 10.678569,19.362624 68.623636 0 1 -9.81983,9.79858 10.678569,19.362624 68.623636 0 1 -9.53079,3.54239 l -6.23967,14.008901 1.88492,-0.40278 c 0.0676,-0.0209 0.13302,-0.0402 0.20094,-0.0615 0.0613,-0.009 0.11721,-0.0136 0.17278,-0.0167 l 0.0564,-0.0122 c 1.08846,-0.16617 1.20588,0.39186 0.5237,0.92302 -0.097,0.0992 -0.21838,0.19767 -0.37135,0.29025 -0.1613,0.0727 -0.32201,0.13646 -0.48286,0.20444 -0.3697,0.17827 -0.76724,0.33598 -1.19657,0.46885 -0.64393,0.22895 -1.28402,0.42445 -1.9189,0.58531 0,0 -8.7e-4,4.9e-4 -8.7e-4,4.9e-4 l -0.82126,1.5209 c 9.55442,-1.1678 19.88127,-4.41866 29.39018,-9.678991 4.83139,-2.67273 9.05368,-5.64517 12.59778,-8.77092 z m -41.98796,18.449921 c -2.17215,0.2655 -4.30412,0.42267 -6.37764,0.47182 l -1.08338,2.92171 c 1.91411,-0.0606 3.87259,-0.20657 5.86263,-0.43351 z m -6.37764,0.47182 0.50723,-1.36678 c 0,0 -4.1e-4,-4.2e-4 -4.1e-4,-4.2e-4 -1.11373,-0.0586 -2.20207,-0.18803 -3.25942,-0.3699 l -0.0905,-0.008 c -0.0123,-0.003 -0.0222,-0.009 -0.0341,-0.0125 -0.0113,-0.002 -0.0228,-0.004 -0.0342,-0.006 -0.64638,-0.14856 -0.35356,-1.48692 1.44422,-1.50936 0.037,0.007 0.0731,0.0125 0.10999,0.0195 l 1.64377,0.0177 6.77563,-14.188611 a 10.678569,19.362624 68.623636 0 1 -7.5885,-2.91797 10.678569,19.362624 68.623636 0 1 -1.66766,-5.83587 l -17.081572,2.43214 c -0.398834,0.39696 -1.088629,0.72925 -1.748709,0.82321 l -7.11511,1.01281 c -1.218244,5.48814 -0.0084,10.61267 4.00538,14.627451 5.132549,5.13388 13.922371,7.5245 24.133991,7.2825 z M 89.185193,87.725309 c 0.343712,-1.5484 0.88297,-3.12568 1.60498,-4.71526 l -4.38631,0.62472 c -0.698593,1.58743 -1.229544,3.16258 -1.583841,4.71205 z m 1.60498,-4.71526 6.889985,-0.98091 c 0.75155,-0.10681 1.315806,0.12342 1.430146,0.5266 l 17.380026,-2.47459 a 10.678569,19.362624 68.623636 0 1 8.91409,-7.9928 10.678569,19.362624 68.623636 0 1 10.36258,-3.70768 l 8.41797,-17.62701 c -9.73629,1.09474 -20.32215,4.37418 -30.0549,9.75835 -11.64243,6.44061 -19.761346,14.61937 -23.339898,22.49807 z m 53.394797,-32.25644 c 2.08025,-0.2339 4.12126,-0.36764 6.10731,-0.40117 l 1.30627,-2.931506 c -1.96034,0.044 -3.96851,0.17611 -6.01176,0.396586 z m 6.10731,-0.40117 -7.85645,17.63929 a 10.678569,19.362624 68.623636 0 1 7.59452,2.91723 10.678569,19.362624 68.623636 0 1 1.80743,4.13942 l 6.68255,-0.9517 c 0.37192,-0.18787 0.76383,-0.38228 1.1719,-0.48 0.19948,-0.67685 1.22727,-1.32256 2.2557,-1.469 l 0.57921,-0.0827 c -2.16839,-2.96075 -7.96681,-5.70447 -11.31523,-6.52793 -0.17577,0.0621 -0.3521,0.11747 -0.52777,0.17976 -0.89401,-0.12072 -1.69459,-0.0705 -1.34777,-0.53891 8.91752,-4.19555 16.42633,-6.43295 22.91423,-7.27987 l 4.3e-4,-8.4e-4 c 0.61314,-0.0803 1.21429,-0.14387 1.80923,-0.1997 -0.0175,-0.0177 -0.0335,-0.0362 -0.0513,-0.0538 -5.06431,-5.06563 -13.68404,-7.46105 -23.71684,-7.29145 z m 23.76799,7.34534 c 2.52686,2.54931 3.92984,5.5423 4.30562,8.78977 1.40853,-0.78499 2.85831,-1.52192 4.32384,-2.20408 -0.40851,-2.41778 -1.35697,-4.69474 -2.8721,-6.7659 -1.82717,-0.0633 -3.7414,-0.009 -5.75736,0.1802 z m 4.30562,8.78977 c -2.32381,1.2948 -4.53262,2.71829 -6.4886,4.24577 l 0.91046,-0.13007 c 0.99818,-0.14193 1.71085,0.23023 1.56643,0.87263 l 0.57883,-0.0827 c 0.0849,-0.0118 0.16536,-0.0262 0.24799,-0.0343 1.12767,-0.16023 2.0036,0.12603 2.32674,0.71167 l 0.56567,-0.054 c 0.39473,-1.8984 0.49812,-3.75164 0.2925,-5.52875 z m -26.52811,8.56083 -13.39483,1.90739 -1.5137,3.3979 14.31608,-2.03867 a 10.678569,19.362624 68.623636 0 0 0.59246,-3.26661 z m -14.90853,5.30529 -7.38167,1.05076 -5.16084,10.80658 a 10.678569,19.362624 68.623636 0 0 7.50793,-0.555 z m -7.38167,1.05076 1.63101,-3.41451 -14.68827,2.09125 a 10.678569,19.362624 68.623636 0 0 -1.35975,3.37601 z m 1.63101,-3.41451 7.26436,-1.03403 3.99289,-8.96404 a 10.678569,19.362624 68.623636 0 0 -6.66883,0.3889 z"
         inkscape:connector-curvature="0" />
    </g>
  </g>
</svg>
