<?xml version="1.0" encoding="UTF-8" standalone="no"?>
<!-- Created with Inkscape (http://www.inkscape.org/) -->

<svg
   xmlns:dc="http://purl.org/dc/elements/1.1/"
   xmlns:cc="http://creativecommons.org/ns#"
   xmlns:rdf="http://www.w3.org/1999/02/22-rdf-syntax-ns#"
   xmlns:svg="http://www.w3.org/2000/svg"
   xmlns="http://www.w3.org/2000/svg"
   xmlns:xlink="http://www.w3.org/1999/xlink"
   xmlns:sodipodi="http://sodipodi.sourceforge.net/DTD/sodipodi-0.dtd"
   xmlns:inkscape="http://www.inkscape.org/namespaces/inkscape"
   width="255"
   height="255"
   viewBox="0 0 67.468749 67.468749"
   version="1.1"
   id="svg8"
   inkscape:version="0.92.5 (2060ec1f9f, 2020-04-08)"
   sodipodi:docname="gnome-calculator.svg">
  <defs
     id="defs2">
    <linearGradient
       inkscape:collect="always"
       id="linearGradient1621">
      <stop
         id="stop1617"
         stop-color="#0b0b0b"
         stop-opacity="1" />
      <stop
         offset="1"
         id="stop1619"
         stop-color="#a9a9a9"
         stop-opacity="1" />
    </linearGradient>
    <pattern
       inkscape:collect="always"
       xlink:href="#pattern914"
       id="pattern1637"
       patternTransform="matrix(0.25707964,0,0,0.26645925,-16.483888,243.73147)" />
    <linearGradient
       id="linearGradient898">
      <stop
         id="stop894"
         stop-color="#41e43d"
         stop-opacity="1" />
      <stop
         offset="1"
         id="stop896"
         stop-color="#105f0e"
         stop-opacity="1" />
    </linearGradient>
    <clipPath
       clipPathUnits="userSpaceOnUse"
       id="clipPath2059">
      <path
         d="m -10.099732,231.68531 c 3.5587363,2.50616 4.8319716,-0.58528 2.9651647,-3.064 -3.1818907,-4.22486 -6.4443207,-9.83985 -12.3548527,-15.91305 -2.594516,-2.66865 -11.860659,-7.80827 -11.860659,-7.80827 0,0 -0.115438,-2.18844 -0.09884,-3.064 0.01106,-0.582 -0.565687,-0.56369 -0.889553,-0.29652 -0.782426,0.64546 -2.47097,2.56981 -2.47097,2.56981 l -1.68026,-0.0988 -1.087226,-1.58142 c -0.296516,-0.41055 -0.636056,-0.34641 -0.88955,0 -0.545383,1.84962 -0.878698,3.8848 -3.459359,3.95355 l 4.447747,3.95356 c 7.76561,1.55335 15.578734,5.58545 20.261957,14.33163 0,0 4.526451,5.19364 7.116396,7.01755 z"
         id="path2061"
         sodipodi:nodetypes="csscsscccccccs"
         inkscape:connector-curvature="0"
         stroke-dasharray="none"
         stroke-opacity="1"
         fill="#ffffff"
         fill-rule="evenodd"
         stroke="none"
         stroke-linejoin="miter"
         fill-opacity="1"
         stroke-linecap="butt"
         stroke-width="0.048"
         stroke-miterlimit="4" />
    </clipPath>
    <clipPath
       id="clipPath2059-5"
       clipPathUnits="userSpaceOnUse">
      <path
         stroke-miterlimit="4"
         stroke-width="0.048"
         stroke-linecap="butt"
         fill-opacity="1"
         stroke-linejoin="miter"
         stroke="none"
         fill-rule="evenodd"
         fill="#ffffff"
         stroke-opacity="1"
         stroke-dasharray="none"
         inkscape:connector-curvature="0"
         sodipodi:nodetypes="csscsscccccccs"
         id="path2061-3"
         d="m -10.099732,231.68531 c 3.5587363,2.50616 4.8319716,-0.58528 2.9651647,-3.064 -3.1818907,-4.22486 -6.4443207,-9.83985 -12.3548527,-15.91305 -2.594516,-2.66865 -11.860659,-7.80827 -11.860659,-7.80827 0,0 -0.115438,-2.18844 -0.09884,-3.064 0.01106,-0.582 -0.565687,-0.56369 -0.889553,-0.29652 -0.782426,0.64546 -2.47097,2.56981 -2.47097,2.56981 l -1.68026,-0.0988 -1.087226,-1.58142 c -0.296516,-0.41055 -0.636056,-0.34641 -0.88955,0 -0.545383,1.84962 -0.878698,3.8848 -3.459359,3.95355 l 4.447747,3.95356 c 7.76561,1.55335 15.578734,5.58545 20.261957,14.33163 0,0 4.526451,5.19364 7.116396,7.01755 z" />
    </clipPath>
    <clipPath
       id="clipPath">
      <path
         fill-opacity="0.95"
         stroke="none"
         fill="#1b1b1b"
         sodipodi:nodetypes="csssscc"
         inkscape:connector-curvature="0"
         id="rect5264"
         d="m -515.73002,435.56445 v 5.83767 c 0,9.74315 -7.84377,17.58692 -17.58692,17.58692 h -135.05122 c -9.74315,0 -17.58692,-7.84377 -17.58692,-17.58692 v -5.83767 z" />
    </clipPath>
    <clipPath
       clipPathUnits="userSpaceOnUse"
       id="clipPath2059-7">
      <path
         d="m -10.099732,231.68531 c 3.5587363,2.50616 4.8319716,-0.58528 2.9651647,-3.064 -3.1818907,-4.22486 -6.4443207,-9.83985 -12.3548527,-15.91305 -2.594516,-2.66865 -11.860659,-7.80827 -11.860659,-7.80827 0,0 -0.115438,-2.18844 -0.09884,-3.064 0.01106,-0.582 -0.565687,-0.56369 -0.889553,-0.29652 -0.782426,0.64546 -2.47097,2.56981 -2.47097,2.56981 l -1.68026,-0.0988 -1.087226,-1.58142 c -0.296516,-0.41055 -0.636056,-0.34641 -0.88955,0 -0.545383,1.84962 -0.878698,3.8848 -3.459359,3.95355 l 4.447747,3.95356 c 7.76561,1.55335 15.578734,5.58545 20.261957,14.33163 0,0 4.526451,5.19364 7.116396,7.01755 z"
         id="path2061-5"
         sodipodi:nodetypes="csscsscccccccs"
         inkscape:connector-curvature="0"
         stroke-dasharray="none"
         stroke-opacity="1"
         fill="#ffffff"
         fill-rule="evenodd"
         stroke="none"
         stroke-linejoin="miter"
         fill-opacity="1"
         stroke-linecap="butt"
         stroke-width="0.048"
         stroke-miterlimit="4" />
    </clipPath>
    <clipPath
       clipPathUnits="userSpaceOnUse"
       id="clipPath1162">
      <path
         stroke-miterlimit="4"
         stroke-width="0.071"
         stroke-linecap="round"
         fill-opacity="0.347"
         stroke-linejoin="round"
         stroke="none"
         fill="#000000"
         stroke-opacity="1"
         stroke-dasharray="none"
         inkscape:connector-curvature="0"
         d="m -65.649736,239.84563 c -9.358079,0 -16.951888,7.59381 -16.951888,16.95188 0,9.35808 7.593811,16.94076 16.951888,16.94077 0.292439,0 0.578792,-0.008 0.867614,-0.0222 2.122786,-0.10753 4.148336,-0.60587 5.995453,-1.42378 l 2.669587,3.97101 c -0.225515,0.4951 -0.245107,0.96445 -0.01111,1.31255 l 15.67271,23.32553 c 0.495366,0.73695 1.94415,0.6317 3.247998,-0.24471 1.303846,-0.87642 1.96364,-2.17735 1.468276,-2.9143 L -51.42304,274.4168 c -0.233058,-0.34672 -0.682887,-0.49868 -1.22356,-0.47831 l -2.558357,-3.80416 c 3.95991,-3.10036 6.507123,-7.91951 6.507123,-13.33682 0,-9.35807 -7.593809,-16.95188 -16.951889,-16.95188 z m 0,2.5806 c 7.92884,0 14.371283,6.44244 14.371283,14.37128 0,7.92885 -6.442435,14.36016 -14.371283,14.36016 -7.928851,0 -14.349039,-6.43131 -14.349039,-14.36016 0,-0.24777 -0.0013,-0.48941 0.01111,-0.73413 0.384376,-7.58638 6.656848,-13.63715 14.337916,-13.63715 z"
         id="path1164" />
    </clipPath>
    <linearGradient
       inkscape:collect="always"
       id="linearGradient4775">
      <stop
         stop-opacity="1"
         stop-color="#43434e"
         id="stop4777" />
      <stop
         stop-opacity="1"
         stop-color="#e7eaff"
         offset="1"
         id="stop4779" />
    </linearGradient>
    <linearGradient
       inkscape:collect="always"
       id="linearGradient4769">
      <stop
         stop-opacity="1"
         stop-color="#474854"
         id="stop4771" />
      <stop
         stop-opacity="1"
         stop-color="#e7eaff"
         offset="1"
         id="stop4773" />
    </linearGradient>
    <linearGradient
       inkscape:collect="always"
       id="linearGradient4721">
      <stop
         stop-opacity="1"
         stop-color="#3d3d47"
         id="stop4723" />
      <stop
         stop-opacity="1"
         stop-color="#e7eaff"
         offset="1"
         id="stop4725" />
    </linearGradient>
    <linearGradient
       id="linearGradient2768">
      <stop
         stop-opacity="1"
         stop-color="white"
         id="stop2770" />
      <stop
         stop-opacity="1"
         stop-color="#000000"
         id="stop2772"
         offset="1" />
    </linearGradient>
    <linearGradient
       gradientTransform="matrix(0.53036334,0,0,0.56312291,-1.1896656,228.43897)"
       y2="117.15"
       x2="69.25"
       y1="12.78"
       x1="80.61"
       gradientUnits="userSpaceOnUse"
       id="linearGradient2545"
       xlink:href="#linearGradient2768"
       inkscape:collect="always" />
    <linearGradient
       y2="99.98"
       x2="-56.953"
       y1="80.983"
       x1="-69.66"
       gradientTransform="matrix(0.53036334,0,0,0.56312291,22.723843,190.49952)"
       gradientUnits="userSpaceOnUse"
       id="linearGradient3449"
       xlink:href="#linearGradient2768"
       inkscape:collect="always" />
    <linearGradient
       y2="82.56"
       x2="-76.08"
       y1="101.55"
       x1="-77.11"
       gradientTransform="matrix(0.53036334,0,0,0.56312291,22.723843,190.49952)"
       gradientUnits="userSpaceOnUse"
       id="linearGradient3451"
       xlink:href="#linearGradient4721"
       inkscape:collect="always" />
    <linearGradient
       y2="99.98"
       x2="-56.953"
       y1="80.983"
       x1="-69.66"
       gradientTransform="matrix(0.53036334,0,0,0.56312291,28.897763,202.71243)"
       gradientUnits="userSpaceOnUse"
       id="linearGradient4797"
       xlink:href="#linearGradient2768"
       inkscape:collect="always" />
    <linearGradient
       y2="82.56"
       x2="-76.08"
       y1="101.29"
       x1="-76.27"
       gradientTransform="matrix(0.53036334,0,0,0.56312291,28.897763,202.71243)"
       gradientUnits="userSpaceOnUse"
       id="linearGradient4799"
       xlink:href="#linearGradient4769"
       inkscape:collect="always" />
    <linearGradient
       y2="78.48"
       x2="-37.968"
       y1="100.22"
       x1="-38.25"
       gradientTransform="matrix(0.53036334,0,0,0.56312291,47.545769,195.03038)"
       gradientUnits="userSpaceOnUse"
       id="linearGradient4815"
       xlink:href="#linearGradient898"
       inkscape:collect="always" />
    <linearGradient
       y2="72.2"
       x2="-61.729"
       y1="103"
       x1="-64.16"
       gradientTransform="matrix(0.53036334,0,0,0.56312291,47.545769,195.03038)"
       gradientUnits="userSpaceOnUse"
       id="linearGradient4817"
       xlink:href="#linearGradient4775"
       inkscape:collect="always" />
    <filter
       height="1.0269511"
       y="-0.013475564"
       width="1.0216314"
       x="-0.01081569"
       id="filter4211"
       inkscape:collect="always"
       color-interpolation-filters="sRGB">
      <feGaussianBlur
         id="feGaussianBlur4213"
         inkscape:collect="always"
         stdDeviation="1.0837824" />
    </filter>
    <pattern
       patternUnits="userSpaceOnUse"
       width="40.23"
       height="40.23"
       patternTransform="matrix(0.26458333,0,0,0.26458333,-19.804497,237.09026)"
       id="pattern914">
      <g
         id="g910"
         transform="matrix(3.7795276,0,0,3.7795276,74.851642,-896.08917)">
        <rect
           stroke-miterlimit="4"
           y="238.49"
           x="-18.308"
           height="7.969"
           width="8.173"
           id="rect2818"
           transform="rotate(0.061067)"
           stroke-dasharray="none"
           stroke-opacity="1"
           fill="url(#linearGradient3449)"
           stroke="url(#linearGradient3451)"
           stroke-linejoin="round"
           fill-opacity="1"
           stroke-linecap="round"
           stroke-width="1.366"
           stroke-dashoffset="0" />
        <rect
           id="rect906"
           width="10.618"
           height="10.618"
           x="-19.791"
           y="237.1"
           opacity="1"
           stroke-dasharray="none"
           stroke-opacity="1"
           paint-order="normal"
           fill="none"
           fill-rule="evenodd"
           stroke="#0b0b0b"
           stroke-linejoin="round"
           fill-opacity="1"
           stroke-linecap="round"
           stroke-width="0.026"
           stroke-dashoffset="0"
           stroke-miterlimit="4" />
      </g>
    </pattern>
    <linearGradient
       inkscape:collect="always"
       xlink:href="#linearGradient1621"
       id="linearGradient1623"
       x1="59.94"
       y1="270.51"
       x2="64.21"
       y2="270.51"
       gradientUnits="userSpaceOnUse" />
    <linearGradient
       id="linearGradient4502">
      <stop
         id="stop4504"
         stop-color="#383838"
         stop-opacity="1" />
      <stop
         id="stop4506"
         offset="1"
         stop-color="#9a9a9a"
         stop-opacity="1" />
    </linearGradient>
    <linearGradient
       id="linearGradient3193">
      <stop
         id="stop3195"
         stop-color="#ffffff"
         stop-opacity="0.425" />
      <stop
         offset="1"
         id="stop3197"
         stop-color="#ffffff"
         stop-opacity="0" />
    </linearGradient>
    <linearGradient
       id="linearGradient3203">
      <stop
         id="stop3205"
         stop-color="#000000"
         stop-opacity="1" />
      <stop
         offset="1"
         id="stop3207"
         stop-color="#5a5a5a"
         stop-opacity="1" />
    </linearGradient>
    <linearGradient
       id="linearGradient3213">
      <stop
         id="stop3215"
         stop-color="#ffffff"
         stop-opacity="0.46" />
      <stop
         offset="1"
         id="stop3217"
         stop-color="#ffffff"
         stop-opacity="0" />
    </linearGradient>
    <linearGradient
       id="linearGradient3223">
      <stop
         id="stop3225"
         stop-color="#585858"
         stop-opacity="1" />
      <stop
         offset="1"
         id="stop3227"
         stop-color="#ffffff"
         stop-opacity="0.655" />
    </linearGradient>
    <linearGradient
       id="linearGradient3243">
      <stop
         id="stop3245"
         stop-color="#ffffff"
         stop-opacity="1" />
      <stop
         offset="1"
         id="stop3247"
         stop-color="#ffffff"
         stop-opacity="0" />
    </linearGradient>
    <linearGradient
       y2="103.39"
       x2="3.141"
       y1="99.81"
       x1="3.141"
       spreadMethod="reflect"
       gradientTransform="matrix(0.29900347,0,0,0.22312829,-244.3624,-222.54957)"
       gradientUnits="userSpaceOnUse"
       id="linearGradient3523"
       xlink:href="#linearGradient3243"
       inkscape:collect="always" />
    <linearGradient
       gradientTransform="matrix(0.2260842,0,0,0.2260842,-244.93414,-222.85049)"
       y2="105.16"
       x2="267.48"
       y1="98.35"
       x1="267.48"
       spreadMethod="reflect"
       gradientUnits="userSpaceOnUse"
       id="linearGradient3525"
       xlink:href="#linearGradient4502"
       inkscape:collect="always" />
    <linearGradient
       y2="80.895"
       x2="124.63"
       y1="84.17"
       x1="124.63"
       spreadMethod="reflect"
       gradientTransform="matrix(0.22839919,0,0,0.22600833,-244.82355,-218.41281)"
       gradientUnits="userSpaceOnUse"
       id="linearGradient3527"
       xlink:href="#linearGradient3203"
       inkscape:collect="always" />
    <linearGradient
       gradientTransform="matrix(0.2260842,0,0,0.2260842,-244.93414,-222.85049)"
       y2="105.34"
       x2="131.09"
       y1="97.4"
       x1="131.09"
       spreadMethod="reflect"
       gradientUnits="userSpaceOnUse"
       id="linearGradient3529"
       xlink:href="#linearGradient3193"
       inkscape:collect="always" />
    <linearGradient
       y2="101.45"
       x2="124.98"
       y1="98.47"
       x1="124.98"
       spreadMethod="reflect"
       gradientTransform="matrix(0.2260842,0,0,0.2260842,-244.93414,-223.22044)"
       gradientUnits="userSpaceOnUse"
       id="linearGradient3531"
       xlink:href="#linearGradient3213"
       inkscape:collect="always" />
    <linearGradient
       y2="96.73"
       x2="244.8"
       y1="109.09"
       x1="244.66"
       spreadMethod="reflect"
       gradientTransform="matrix(0.29860025,0,0,0.22536815,-261.72317,-222.77745)"
       gradientUnits="userSpaceOnUse"
       id="linearGradient3533"
       xlink:href="#linearGradient3223"
       inkscape:collect="always" />
    <linearGradient
       gradientTransform="matrix(-0.12527069,-0.18820553,0.18820553,-0.12527069,-49.798353,327.37624)"
       y2="109.3"
       x2="248.4"
       y1="99.28"
       x1="249.07"
       gradientUnits="userSpaceOnUse"
       id="linearGradient3535"
       xlink:href="#linearGradient3243"
       inkscape:collect="always" />
    <linearGradient
       gradientTransform="matrix(-0.12527069,-0.18820553,0.18820553,-0.12527069,-49.798353,327.37624)"
       y2="105.75"
       x2="14.11"
       y1="98.55"
       x1="12.738"
       spreadMethod="reflect"
       gradientUnits="userSpaceOnUse"
       id="linearGradient3537"
       xlink:href="#linearGradient3243"
       inkscape:collect="always" />
  </defs>
  <sodipodi:namedview
     id="base"
     pagecolor="#ff0000"
     bordercolor="#666666"
     borderopacity="1.0"
     inkscape:pageopacity="0"
     inkscape:pageshadow="2"
     inkscape:zoom="3.5058824"
     inkscape:cx="127.5"
     inkscape:cy="127.5"
     inkscape:document-units="px"
     inkscape:current-layer="layer1"
     showgrid="false"
     inkscape:snap-to-guides="false"
     inkscape:snap-grids="false"
     inkscape:snap-others="false"
     inkscape:object-nodes="false"
     inkscape:snap-nodes="false"
     inkscape:snap-global="false"
     inkscape:window-width="1920"
     inkscape:window-height="1056"
     inkscape:window-x="0"
     inkscape:window-y="0"
     inkscape:window-maximized="1"
     units="px"
     showguides="false" />
  <metadata
     id="metadata5">
    <rdf:RDF>
      <cc:Work>
        <dc:format>image/svg+xml</dc:format>
        <dc:type
           rdf:resource="http://purl.org/dc/dcmitype/StillImage" />
        <dc:title />
      </cc:Work>
    </rdf:RDF>
  </metadata>
  <g
     inkscape:label="Layer 1"
     inkscape:groupmode="layer"
     id="layer1"
     transform="translate(0,-229.53126)">
    <rect
       transform="matrix(0.26458318,2.8199821e-4,-2.8199821e-4,0.26458318,-0.38431347,229.43452)"
       ry="16.06"
       y="43.508"
       x="4.758"
       height="192.8"
       width="240.32"
       id="rect4825"
       stroke-miterlimit="4"
       rx="16.06"
       stroke-dasharray="none"
       stroke-opacity="1"
       fill="#000000"
       filter="url(#filter4211)"
       stroke="none"
       stroke-linejoin="round"
       fill-opacity="0.6"
       stroke-linecap="round"
       stroke-width="4.131"
       stroke-dashoffset="0"
       style="filter:url(#filter4211)" />
    <rect
       id="rect3062"
       width="63.58"
       height="51.01"
       x="2.611"
       y="238.7"
       ry="4.249"
       transform="rotate(0.061067)"
       stroke-miterlimit="4"
       rx="4.249"
       stroke-dasharray="none"
       stroke-opacity="1"
       fill="#2c2c2c"
       stroke="url(#linearGradient2545)"
       stroke-linejoin="round"
       fill-opacity="1"
       stroke-linecap="round"
       stroke-width="1.093"
       stroke-dashoffset="0" />
    <rect
       stroke-miterlimit="4"
       transform="rotate(0.061067)"
       y="250.71"
       x="-12.134"
       height="7.969"
       width="8.173"
       id="rect4795"
       stroke-dasharray="none"
       stroke-opacity="1"
       fill="url(#linearGradient4797)"
       stroke="url(#linearGradient4799)"
       stroke-linejoin="round"
       fill-opacity="1"
       stroke-linecap="round"
       stroke-width="1.366"
       stroke-dashoffset="0" />
    <rect
       transform="rotate(0.061067)"
       id="rect4812"
       width="54.848"
       height="8.443"
       x="6.514"
       y="243.02"
       stroke-miterlimit="4"
       stroke-dasharray="none"
       stroke-opacity="1"
       fill="url(#linearGradient4815)"
       stroke="url(#linearGradient4817)"
       stroke-linejoin="round"
       fill-opacity="1"
       stroke-linecap="round"
       stroke-width="1.366"
       stroke-dashoffset="0" />
    <rect
       width="10.644"
       height="10.644"
       x="-19.804"
       y="237.09"
       id="rect919"
       fill="url(#pattern914)"
       stroke="none" />
    <path
       d="M 4.0001004,254.50906 H 36.4511 l 19.591068,0.25029 0.106184,31.82601 -19.697252,-0.006 H 4.0001004 Z"
       id="rect912"
       inkscape:connector-curvature="0"
       sodipodi:nodetypes="ccccccc"
       opacity="1"
       stroke-dasharray="none"
       stroke-opacity="1"
       paint-order="normal"
       fill="url(#pattern1637)"
       fill-rule="evenodd"
       stroke="#0b0b0b"
       stroke-linejoin="round"
       fill-opacity="1"
       stroke-linecap="round"
       stroke-width="0.026"
       stroke-dashoffset="0"
       stroke-miterlimit="4" />
    <g
       aria-label="00000000051/931"
       id="text868"
       transform="translate(-0.1509368,0.0754684)"
       font-family="led16sgmnt"
       fill="#057000"
       stroke="none"
       font-style="normal"
       word-spacing="0"
       line-height="1.25"
       fill-opacity="1"
       font-weight="bold"
       stroke-width="0.265"
       font-stretch="normal"
       letter-spacing="0"
       font-variant="normal"
       font-size="7.06">
      <path
         d="m 10.800721,247.24844 h 0.509874 l 0.172255,-0.17226 -0.172255,-0.17225 h -0.509874 l -0.268717,0.17225 z m -0.392741,2.28065 0.172255,-0.17225 v -1.05076 l -0.172255,-0.87161 -0.172255,0.87161 v 1.05076 z m 0.306614,-1.25746 0.272162,0.66491 0.282498,0.28249 v -0.50298 l -0.558105,-1.35392 -0.206706,-0.13781 z m -0.430637,-1.19545 -0.268718,-0.17225 H 9.5053652 l -0.1722547,0.17225 0.1722547,0.17226 h 0.5098738 z m 0.124023,-2.4529 -0.172255,0.17225 v 1.05075 l 0.172255,0.87161 0.172255,-0.87161 v -1.05075 z m -0.306613,1.25746 -0.2721628,-0.66491 -0.2824978,-0.2825 v 0.50299 l 0.5581056,1.35392 0.206706,0.1378 z m 0.56155,3.53811 h 0.661459 l 0.206705,0.2067 -0.206705,0.20671 h -0.661459 l -0.206705,-0.20671 z m 0.70969,-0.0482 v -2.0395 l 0.206706,-0.2067 0.206705,0.2067 v 2.0395 l -0.206705,0.2067 z m -0.582221,-2.08773 -0.320394,-0.20671 0.320394,-0.2067 h 0.53399 l 0.206705,0.2067 -0.206705,0.20671 z m -0.382406,2.29443 -0.206705,-0.2067 v -1.06798 l 0.206705,-1.04731 0.206706,1.04731 v 1.06798 z m 0.272163,-1.29535 -0.223931,-1.12999 0.282497,0.18603 0.564996,1.37115 v 0.59256 l -0.34451,-0.34451 z m -0.5271,1.13688 0.206706,0.2067 -0.206706,0.20671 H 9.4915849 l -0.2067058,-0.20671 0.2067058,-0.2067 z m -0.7096895,-0.0482 -0.2067057,0.2067 -0.2067057,-0.2067 v -2.0395 l 0.2067057,-0.2067 0.2067057,0.2067 z m 0.9026155,-2.29444 -0.320394,0.20671 H 9.4915849 l -0.2067058,-0.20671 0.2067058,-0.2067 h 0.5339901 z m -0.210151,1.20579 -0.279053,0.67524 -0.3445096,0.34451 v -0.59256 l 0.5649956,-1.37115 0.282498,-0.18603 z m 0.527099,-3.54845 -0.206705,-0.20671 0.206705,-0.2067 h 0.661459 l 0.206705,0.2067 -0.206705,0.20671 z m 0.70969,0.0482 0.206706,-0.20671 0.206705,0.20671 v 2.0395 l -0.206705,0.2067 -0.206706,-0.2067 z m -0.964627,-0.20671 0.206706,0.20671 v 1.06798 l -0.206706,1.04731 -0.206705,-1.04731 v -1.06798 z m 0.272163,1.29536 0.279052,-0.67524 0.34451,-0.34451 v 0.59256 l -0.564996,1.37115 -0.282497,0.18603 z m -0.5271,-1.13688 H 9.4915849 l -0.2067058,-0.20671 0.2067058,-0.2067 h 0.6614581 l 0.206706,0.2067 z m -0.7096895,0.0482 v 2.0395 l -0.2067057,0.2067 -0.2067057,-0.2067 v -2.0395 l 0.2067057,-0.20671 z m 0.6924645,1.08865 0.223931,1.12999 -0.282498,-0.18603 -0.5649956,-1.37115 v -0.59256 l 0.3445096,0.34451 z"
         id="path870"
         inkscape:connector-curvature="0"
         font-family="led16sgmnt"
         fill="#057000"
         font-style="normal"
         fill-opacity="1"
         font-weight="bold"
         stroke-width="0.265"
         font-stretch="normal"
         font-variant="normal"
         font-size="7.06" />
      <path
         d="m 14.108013,247.24844 h 0.509874 l 0.172255,-0.17226 -0.172255,-0.17225 h -0.509874 l -0.268718,0.17225 z m -0.392741,2.28065 0.172255,-0.17225 v -1.05076 l -0.172255,-0.87161 -0.172255,0.87161 v 1.05076 z m 0.306613,-1.25746 0.272163,0.66491 0.282498,0.28249 v -0.50298 l -0.558106,-1.35392 -0.206706,-0.13781 z m -0.430637,-1.19545 -0.268717,-0.17225 h -0.509874 l -0.172255,0.17225 0.172255,0.17226 h 0.509874 z m 0.124024,-2.4529 -0.172255,0.17225 v 1.05075 l 0.172255,0.87161 0.172255,-0.87161 v -1.05075 z m -0.306614,1.25746 -0.272162,-0.66491 -0.282498,-0.2825 v 0.50299 l 0.558105,1.35392 0.206706,0.1378 z m 0.561551,3.53811 h 0.661458 l 0.206706,0.2067 -0.206706,0.20671 h -0.661458 l -0.206706,-0.20671 z m 0.709689,-0.0482 v -2.0395 l 0.206706,-0.2067 0.206706,0.2067 v 2.0395 l -0.206706,0.2067 z m -0.582221,-2.08773 -0.320394,-0.20671 0.320394,-0.2067 h 0.53399 l 0.206706,0.2067 -0.206706,0.20671 z m -0.382405,2.29443 -0.206706,-0.2067 v -1.06798 l 0.206706,-1.04731 0.206705,1.04731 v 1.06798 z m 0.272162,-1.29535 -0.223931,-1.12999 0.282498,0.18603 0.564996,1.37115 v 0.59256 l -0.34451,-0.34451 z m -0.527099,1.13688 0.206705,0.2067 -0.206705,0.20671 h -0.661459 l -0.206705,-0.20671 0.206705,-0.2067 z m -0.70969,-0.0482 -0.206706,0.2067 -0.206705,-0.2067 v -2.0395 l 0.206705,-0.2067 0.206706,0.2067 z m 0.902615,-2.29444 -0.320394,0.20671 h -0.53399 l -0.206705,-0.20671 0.206705,-0.2067 h 0.53399 z m -0.210151,1.20579 -0.279053,0.67524 -0.344509,0.34451 v -0.59256 l 0.564996,-1.37115 0.282497,-0.18603 z m 0.5271,-3.54845 -0.206706,-0.20671 0.206706,-0.2067 h 0.661458 l 0.206706,0.2067 -0.206706,0.20671 z m 0.709689,0.0482 0.206706,-0.20671 0.206706,0.20671 v 2.0395 l -0.206706,0.2067 -0.206706,-0.2067 z m -0.964626,-0.20671 0.206705,0.20671 v 1.06798 l -0.206705,1.04731 -0.206706,-1.04731 v -1.06798 z m 0.272162,1.29536 0.279053,-0.67524 0.34451,-0.34451 v 0.59256 l -0.564996,1.37115 -0.282498,0.18603 z m -0.527099,-1.13688 h -0.661459 l -0.206705,-0.20671 0.206705,-0.2067 h 0.661459 l 0.206705,0.2067 z m -0.70969,0.0482 v 2.0395 l -0.206706,0.2067 -0.206705,-0.2067 v -2.0395 l 0.206705,-0.20671 z m 0.692464,1.08865 0.223931,1.12999 -0.282497,-0.18603 -0.564996,-1.37115 v -0.59256 l 0.344509,0.34451 z"
         id="path872"
         inkscape:connector-curvature="0"
         font-family="led16sgmnt"
         fill="#057000"
         font-style="normal"
         fill-opacity="1"
         font-weight="bold"
         stroke-width="0.265"
         font-stretch="normal"
         font-variant="normal"
         font-size="7.06" />
      <path
         d="m 17.415304,247.24844 h 0.509874 l 0.172255,-0.17226 -0.172255,-0.17225 h -0.509874 l -0.268717,0.17225 z m -0.392741,2.28065 0.172255,-0.17225 v -1.05076 l -0.172255,-0.87161 -0.172255,0.87161 v 1.05076 z m 0.306614,-1.25746 0.272162,0.66491 0.282498,0.28249 v -0.50298 l -0.558105,-1.35392 -0.206706,-0.13781 z m -0.430637,-1.19545 -0.268718,-0.17225 h -0.509874 l -0.172255,0.17225 0.172255,0.17226 h 0.509874 z m 0.124023,-2.4529 -0.172255,0.17225 v 1.05075 l 0.172255,0.87161 0.172255,-0.87161 v -1.05075 z m -0.306613,1.25746 -0.272163,-0.66491 -0.282498,-0.2825 v 0.50299 l 0.558106,1.35392 0.206706,0.1378 z m 0.56155,3.53811 h 0.661459 l 0.206705,0.2067 -0.206705,0.20671 H 17.2775 l -0.206705,-0.20671 z m 0.70969,-0.0482 v -2.0395 l 0.206706,-0.2067 0.206705,0.2067 v 2.0395 l -0.206705,0.2067 z m -0.582221,-2.08773 -0.320394,-0.20671 0.320394,-0.2067 h 0.53399 l 0.206705,0.2067 -0.206705,0.20671 z m -0.382406,2.29443 -0.206705,-0.2067 v -1.06798 l 0.206705,-1.04731 0.206706,1.04731 v 1.06798 z m 0.272163,-1.29535 -0.223931,-1.12999 0.282497,0.18603 0.564996,1.37115 v 0.59256 l -0.344509,-0.34451 z m -0.5271,1.13688 0.206706,0.2067 -0.206706,0.20671 h -0.661458 l -0.206706,-0.20671 0.206706,-0.2067 z m -0.709689,-0.0482 -0.206706,0.2067 -0.206706,-0.2067 v -2.0395 l 0.206706,-0.2067 0.206706,0.2067 z m 0.902615,-2.29444 -0.320394,0.20671 h -0.53399 l -0.206706,-0.20671 0.206706,-0.2067 h 0.53399 z m -0.210151,1.20579 -0.279053,0.67524 -0.34451,0.34451 v -0.59256 l 0.564996,-1.37115 0.282498,-0.18603 z m 0.527099,-3.54845 -0.206705,-0.20671 0.206705,-0.2067 h 0.661459 l 0.206705,0.2067 -0.206705,0.20671 z m 0.70969,0.0482 0.206706,-0.20671 0.206705,0.20671 v 2.0395 l -0.206705,0.2067 -0.206706,-0.2067 z m -0.964627,-0.20671 0.206706,0.20671 v 1.06798 l -0.206706,1.04731 -0.206705,-1.04731 v -1.06798 z m 0.272163,1.29536 0.279053,-0.67524 0.344509,-0.34451 v 0.59256 l -0.564996,1.37115 -0.282497,0.18603 z m -0.5271,-1.13688 h -0.661458 l -0.206706,-0.20671 0.206706,-0.2067 h 0.661458 l 0.206706,0.2067 z m -0.709689,0.0482 v 2.0395 l -0.206706,0.2067 -0.206706,-0.2067 v -2.0395 l 0.206706,-0.20671 z m 0.692464,1.08865 0.223931,1.12999 -0.282498,-0.18603 -0.564996,-1.37115 v -0.59256 l 0.34451,0.34451 z"
         id="path874"
         inkscape:connector-curvature="0"
         font-family="led16sgmnt"
         fill="#057000"
         font-style="normal"
         fill-opacity="1"
         font-weight="bold"
         stroke-width="0.265"
         font-stretch="normal"
         font-variant="normal"
         font-size="7.06" />
      <path
         d="m 20.722596,247.24844 h 0.509874 l 0.172255,-0.17226 -0.172255,-0.17225 h -0.509874 l -0.268717,0.17225 z m -0.392741,2.28065 0.172255,-0.17225 v -1.05076 l -0.172255,-0.87161 -0.172255,0.87161 v 1.05076 z m 0.306614,-1.25746 0.272162,0.66491 0.282498,0.28249 v -0.50298 l -0.558105,-1.35392 -0.206706,-0.13781 z m -0.430637,-1.19545 -0.268718,-0.17225 H 19.42724 l -0.172255,0.17225 0.172255,0.17226 h 0.509874 z m 0.124023,-2.4529 -0.172255,0.17225 v 1.05075 l 0.172255,0.87161 0.172255,-0.87161 v -1.05075 z m -0.306613,1.25746 -0.272163,-0.66491 -0.282498,-0.2825 v 0.50299 l 0.558106,1.35392 0.206706,0.1378 z m 0.56155,3.53811 h 0.661459 l 0.206705,0.2067 -0.206705,0.20671 h -0.661459 l -0.206705,-0.20671 z m 0.70969,-0.0482 v -2.0395 l 0.206706,-0.2067 0.206705,0.2067 v 2.0395 l -0.206705,0.2067 z m -0.582221,-2.08773 -0.320394,-0.20671 0.320394,-0.2067 h 0.53399 l 0.206705,0.2067 -0.206705,0.20671 z m -0.382406,2.29443 -0.206705,-0.2067 v -1.06798 l 0.206705,-1.04731 0.206706,1.04731 v 1.06798 z m 0.272163,-1.29535 -0.223931,-1.12999 0.282497,0.18603 0.564996,1.37115 v 0.59256 l -0.34451,-0.34451 z m -0.5271,1.13688 0.206706,0.2067 -0.206706,0.20671 H 19.41346 l -0.206706,-0.20671 0.206706,-0.2067 z m -0.709689,-0.0482 -0.206706,0.2067 -0.206706,-0.2067 v -2.0395 l 0.206706,-0.2067 0.206706,0.2067 z m 0.902615,-2.29444 -0.320394,0.20671 h -0.53399 l -0.206706,-0.20671 0.206706,-0.2067 h 0.53399 z m -0.210151,1.20579 -0.279053,0.67524 -0.34451,0.34451 v -0.59256 l 0.564996,-1.37115 0.282498,-0.18603 z m 0.527099,-3.54845 -0.206705,-0.20671 0.206705,-0.2067 h 0.661459 l 0.206705,0.2067 -0.206705,0.20671 z m 0.70969,0.0482 0.206706,-0.20671 0.206705,0.20671 v 2.0395 l -0.206705,0.2067 -0.206706,-0.2067 z m -0.964627,-0.20671 0.206706,0.20671 v 1.06798 l -0.206706,1.04731 -0.206705,-1.04731 v -1.06798 z m 0.272163,1.29536 0.279052,-0.67524 0.34451,-0.34451 v 0.59256 l -0.564996,1.37115 -0.282497,0.18603 z m -0.5271,-1.13688 H 19.41346 l -0.206706,-0.20671 0.206706,-0.2067 h 0.661458 l 0.206706,0.2067 z m -0.709689,0.0482 v 2.0395 l -0.206706,0.2067 -0.206706,-0.2067 v -2.0395 l 0.206706,-0.20671 z m 0.692464,1.08865 0.223931,1.12999 -0.282498,-0.18603 -0.564996,-1.37115 v -0.59256 l 0.34451,0.34451 z"
         id="path876"
         inkscape:connector-curvature="0"
         font-family="led16sgmnt"
         fill="#057000"
         font-style="normal"
         fill-opacity="1"
         font-weight="bold"
         stroke-width="0.265"
         font-stretch="normal"
         font-variant="normal"
         font-size="7.06" />
      <path
         d="m 24.029887,247.24844 h 0.509874 l 0.172255,-0.17226 -0.172255,-0.17225 h -0.509874 l -0.268717,0.17225 z m -0.392741,2.28065 0.172255,-0.17225 v -1.05076 l -0.172255,-0.87161 -0.172255,0.87161 v 1.05076 z m 0.306614,-1.25746 0.272162,0.66491 0.282498,0.28249 v -0.50298 l -0.558105,-1.35392 -0.206706,-0.13781 z m -0.430637,-1.19545 -0.268718,-0.17225 h -0.509874 l -0.172254,0.17225 0.172254,0.17226 h 0.509874 z m 0.124023,-2.4529 -0.172255,0.17225 v 1.05075 l 0.172255,0.87161 0.172255,-0.87161 v -1.05075 z m -0.306613,1.25746 -0.272163,-0.66491 -0.282498,-0.2825 v 0.50299 l 0.558106,1.35392 0.206706,0.1378 z m 0.56155,3.53811 h 0.661459 l 0.206705,0.2067 -0.206705,0.20671 h -0.661459 l -0.206705,-0.20671 z m 0.70969,-0.0482 v -2.0395 l 0.206706,-0.2067 0.206705,0.2067 v 2.0395 l -0.206705,0.2067 z m -0.582221,-2.08773 -0.320394,-0.20671 0.320394,-0.2067 h 0.53399 l 0.206705,0.2067 -0.206705,0.20671 z m -0.382406,2.29443 -0.206705,-0.2067 v -1.06798 l 0.206705,-1.04731 0.206706,1.04731 v 1.06798 z m 0.272163,-1.29535 -0.223931,-1.12999 0.282497,0.18603 0.564996,1.37115 v 0.59256 l -0.344509,-0.34451 z m -0.5271,1.13688 0.206706,0.2067 -0.206706,0.20671 h -0.661458 l -0.206706,-0.20671 0.206706,-0.2067 z m -0.709689,-0.0482 -0.206706,0.2067 -0.206706,-0.2067 v -2.0395 l 0.206706,-0.2067 0.206706,0.2067 z m 0.902615,-2.29444 -0.320394,0.20671 h -0.53399 l -0.206706,-0.20671 0.206706,-0.2067 h 0.53399 z m -0.210151,1.20579 -0.279053,0.67524 -0.34451,0.34451 v -0.59256 l 0.564996,-1.37115 0.282498,-0.18603 z m 0.527099,-3.54845 -0.206705,-0.20671 0.206705,-0.2067 h 0.661459 l 0.206705,0.2067 -0.206705,0.20671 z m 0.70969,0.0482 0.206706,-0.20671 0.206705,0.20671 v 2.0395 l -0.206705,0.2067 -0.206706,-0.2067 z m -0.964627,-0.20671 0.206706,0.20671 v 1.06798 l -0.206706,1.04731 -0.206705,-1.04731 v -1.06798 z m 0.272163,1.29536 0.279053,-0.67524 0.344509,-0.34451 v 0.59256 l -0.564996,1.37115 -0.282497,0.18603 z m -0.5271,-1.13688 h -0.661458 l -0.206706,-0.20671 0.206706,-0.2067 h 0.661458 l 0.206706,0.2067 z m -0.709689,0.0482 v 2.0395 l -0.206706,0.2067 -0.206706,-0.2067 v -2.0395 l 0.206706,-0.20671 z m 0.692464,1.08865 0.223931,1.12999 -0.282498,-0.18603 -0.564996,-1.37115 v -0.59256 l 0.34451,0.34451 z"
         id="path878"
         inkscape:connector-curvature="0"
         font-family="led16sgmnt"
         fill="#057000"
         font-style="normal"
         fill-opacity="1"
         font-weight="bold"
         stroke-width="0.265"
         font-stretch="normal"
         font-variant="normal"
         font-size="7.06" />
      <path
         d="m 27.337178,247.24844 h 0.509874 l 0.172255,-0.17226 -0.172255,-0.17225 h -0.509874 l -0.268717,0.17225 z m -0.392741,2.28065 0.172255,-0.17225 v -1.05076 l -0.172255,-0.87161 -0.172254,0.87161 v 1.05076 z m 0.306614,-1.25746 0.272162,0.66491 0.282498,0.28249 v -0.50298 l -0.558105,-1.35392 -0.206706,-0.13781 z m -0.430637,-1.19545 -0.268718,-0.17225 h -0.509874 l -0.172254,0.17225 0.172254,0.17226 h 0.509874 z m 0.124023,-2.4529 -0.172254,0.17225 v 1.05075 l 0.172254,0.87161 0.172255,-0.87161 v -1.05075 z m -0.306613,1.25746 -0.272163,-0.66491 -0.282498,-0.2825 v 0.50299 l 0.558106,1.35392 0.206706,0.1378 z m 0.56155,3.53811 h 0.661459 l 0.206705,0.2067 -0.206705,0.20671 h -0.661459 l -0.206705,-0.20671 z m 0.70969,-0.0482 v -2.0395 l 0.206706,-0.2067 0.206705,0.2067 v 2.0395 l -0.206705,0.2067 z m -0.582221,-2.08773 -0.320394,-0.20671 0.320394,-0.2067 h 0.53399 l 0.206705,0.2067 -0.206705,0.20671 z m -0.382406,2.29443 -0.206705,-0.2067 v -1.06798 l 0.206705,-1.04731 0.206706,1.04731 v 1.06798 z m 0.272163,-1.29535 -0.223931,-1.12999 0.282497,0.18603 0.564996,1.37115 v 0.59256 l -0.344509,-0.34451 z m -0.5271,1.13688 0.206706,0.2067 -0.206706,0.20671 h -0.661458 l -0.206706,-0.20671 0.206706,-0.2067 z m -0.709689,-0.0482 -0.206706,0.2067 -0.206706,-0.2067 v -2.0395 l 0.206706,-0.2067 0.206706,0.2067 z m 0.902615,-2.29444 -0.320394,0.20671 h -0.53399 l -0.206706,-0.20671 0.206706,-0.2067 h 0.53399 z m -0.210151,1.20579 -0.279053,0.67524 -0.34451,0.34451 v -0.59256 l 0.564996,-1.37115 0.282498,-0.18603 z m 0.527099,-3.54845 -0.206705,-0.20671 0.206705,-0.2067 h 0.661459 l 0.206705,0.2067 -0.206705,0.20671 z m 0.70969,0.0482 0.206706,-0.20671 0.206705,0.20671 v 2.0395 l -0.206705,0.2067 -0.206706,-0.2067 z m -0.964627,-0.20671 0.206706,0.20671 v 1.06798 l -0.206706,1.04731 -0.206705,-1.04731 v -1.06798 z m 0.272163,1.29536 0.279053,-0.67524 0.344509,-0.34451 v 0.59256 l -0.564996,1.37115 -0.282497,0.18603 z m -0.5271,-1.13688 h -0.661458 l -0.206706,-0.20671 0.206706,-0.2067 H 26.6895 l 0.206706,0.2067 z m -0.709689,0.0482 v 2.0395 l -0.206706,0.2067 -0.206706,-0.2067 v -2.0395 l 0.206706,-0.20671 z m 0.692464,1.08865 0.223931,1.12999 -0.282498,-0.18603 -0.564996,-1.37115 v -0.59256 l 0.34451,0.34451 z"
         id="path880"
         inkscape:connector-curvature="0"
         font-family="led16sgmnt"
         fill="#057000"
         font-style="normal"
         fill-opacity="1"
         font-weight="bold"
         stroke-width="0.265"
         font-stretch="normal"
         font-variant="normal"
         font-size="7.06" />
      <path
         d="m 30.644471,247.24844 h 0.509874 l 0.172255,-0.17226 -0.172255,-0.17225 h -0.509874 l -0.268717,0.17225 z m -0.392741,2.28065 0.172255,-0.17225 v -1.05076 l -0.172255,-0.87161 -0.172255,0.87161 v 1.05076 z m 0.306614,-1.25746 0.272162,0.66491 0.282498,0.28249 v -0.50298 l -0.558105,-1.35392 -0.206706,-0.13781 z m -0.430637,-1.19545 -0.268718,-0.17225 h -0.509874 l -0.172255,0.17225 0.172255,0.17226 h 0.509874 z m 0.124023,-2.4529 -0.172255,0.17225 v 1.05075 l 0.172255,0.87161 0.172255,-0.87161 v -1.05075 z m -0.306613,1.25746 -0.272163,-0.66491 -0.282498,-0.2825 v 0.50299 l 0.558106,1.35392 0.206706,0.1378 z m 0.56155,3.53811 h 0.661459 l 0.206705,0.2067 -0.206705,0.20671 h -0.661459 l -0.206705,-0.20671 z m 0.70969,-0.0482 v -2.0395 l 0.206706,-0.2067 0.206705,0.2067 v 2.0395 l -0.206705,0.2067 z m -0.582221,-2.08773 -0.320394,-0.20671 0.320394,-0.2067 h 0.53399 l 0.206705,0.2067 -0.206705,0.20671 z m -0.382406,2.29443 -0.206705,-0.2067 v -1.06798 l 0.206705,-1.04731 0.206706,1.04731 v 1.06798 z m 0.272163,-1.29535 -0.223931,-1.12999 0.282497,0.18603 0.564996,1.37115 v 0.59256 l -0.34451,-0.34451 z m -0.5271,1.13688 0.206706,0.2067 -0.206706,0.20671 h -0.661458 l -0.206706,-0.20671 0.206706,-0.2067 z m -0.709689,-0.0482 -0.206706,0.2067 -0.206706,-0.2067 v -2.0395 l 0.206706,-0.2067 0.206706,0.2067 z m 0.902615,-2.29444 -0.320394,0.20671 h -0.53399 l -0.206706,-0.20671 0.206706,-0.2067 h 0.53399 z m -0.210151,1.20579 -0.279053,0.67524 -0.34451,0.34451 v -0.59256 l 0.564996,-1.37115 0.282498,-0.18603 z m 0.527099,-3.54845 -0.206705,-0.20671 0.206705,-0.2067 h 0.661459 l 0.206705,0.2067 -0.206705,0.20671 z m 0.70969,0.0482 0.206706,-0.20671 0.206705,0.20671 v 2.0395 l -0.206705,0.2067 -0.206706,-0.2067 z m -0.964627,-0.20671 0.206706,0.20671 v 1.06798 l -0.206706,1.04731 -0.206705,-1.04731 v -1.06798 z m 0.272163,1.29536 0.279052,-0.67524 0.34451,-0.34451 v 0.59256 l -0.564996,1.37115 -0.282497,0.18603 z m -0.5271,-1.13688 h -0.661458 l -0.206706,-0.20671 0.206706,-0.2067 h 0.661458 l 0.206706,0.2067 z m -0.709689,0.0482 v 2.0395 l -0.206706,0.2067 -0.206706,-0.2067 v -2.0395 l 0.206706,-0.20671 z m 0.692464,1.08865 0.223931,1.12999 -0.282498,-0.18603 -0.564996,-1.37115 v -0.59256 l 0.34451,0.34451 z"
         id="path882"
         inkscape:connector-curvature="0"
         font-family="led16sgmnt"
         fill="#057000"
         font-style="normal"
         fill-opacity="1"
         font-weight="bold"
         stroke-width="0.265"
         font-stretch="normal"
         font-variant="normal"
         font-size="7.06" />
      <path
         d="m 33.951762,247.24844 h 0.509874 l 0.172255,-0.17226 -0.172255,-0.17225 h -0.509874 l -0.268717,0.17225 z m -0.392741,2.28065 0.172255,-0.17225 v -1.05076 l -0.172255,-0.87161 -0.172255,0.87161 v 1.05076 z m 0.306614,-1.25746 0.272162,0.66491 0.282498,0.28249 v -0.50298 l -0.558105,-1.35392 -0.206706,-0.13781 z m -0.430637,-1.19545 -0.268718,-0.17225 h -0.509874 l -0.172254,0.17225 0.172254,0.17226 h 0.509874 z m 0.124023,-2.4529 -0.172255,0.17225 v 1.05075 l 0.172255,0.87161 0.172255,-0.87161 v -1.05075 z m -0.306613,1.25746 -0.272163,-0.66491 -0.282498,-0.2825 v 0.50299 l 0.558106,1.35392 0.206706,0.1378 z m 0.56155,3.53811 h 0.661459 l 0.206705,0.2067 -0.206705,0.20671 h -0.661459 l -0.206705,-0.20671 z m 0.70969,-0.0482 v -2.0395 l 0.206706,-0.2067 0.206705,0.2067 v 2.0395 l -0.206705,0.2067 z m -0.582221,-2.08773 -0.320394,-0.20671 0.320394,-0.2067 h 0.53399 l 0.206705,0.2067 -0.206705,0.20671 z m -0.382406,2.29443 -0.206705,-0.2067 v -1.06798 l 0.206705,-1.04731 0.206706,1.04731 v 1.06798 z m 0.272163,-1.29535 -0.223931,-1.12999 0.282497,0.18603 0.564996,1.37115 v 0.59256 l -0.344509,-0.34451 z m -0.5271,1.13688 0.206706,0.2067 -0.206706,0.20671 h -0.661458 l -0.206706,-0.20671 0.206706,-0.2067 z m -0.709689,-0.0482 -0.206706,0.2067 -0.206706,-0.2067 v -2.0395 l 0.206706,-0.2067 0.206706,0.2067 z m 0.902615,-2.29444 -0.320394,0.20671 h -0.53399 l -0.206706,-0.20671 0.206706,-0.2067 h 0.53399 z m -0.210151,1.20579 -0.279053,0.67524 -0.34451,0.34451 v -0.59256 l 0.564996,-1.37115 0.282498,-0.18603 z m 0.527099,-3.54845 -0.206705,-0.20671 0.206705,-0.2067 h 0.661459 l 0.206705,0.2067 -0.206705,0.20671 z m 0.70969,0.0482 0.206706,-0.20671 0.206705,0.20671 v 2.0395 l -0.206705,0.2067 -0.206706,-0.2067 z m -0.964627,-0.20671 0.206706,0.20671 v 1.06798 l -0.206706,1.04731 -0.206705,-1.04731 v -1.06798 z m 0.272163,1.29536 0.279053,-0.67524 0.344509,-0.34451 v 0.59256 l -0.564996,1.37115 -0.282497,0.18603 z m -0.5271,-1.13688 h -0.661458 l -0.206706,-0.20671 0.206706,-0.2067 h 0.661458 l 0.206706,0.2067 z m -0.709689,0.0482 v 2.0395 l -0.206706,0.2067 -0.206706,-0.2067 v -2.0395 l 0.206706,-0.20671 z m 0.692464,1.08865 0.223931,1.12999 -0.282498,-0.18603 -0.564996,-1.37115 v -0.59256 l 0.34451,0.34451 z"
         id="path884"
         inkscape:connector-curvature="0"
         font-family="led16sgmnt"
         fill="#057000"
         font-style="normal"
         fill-opacity="1"
         font-weight="bold"
         stroke-width="0.265"
         font-stretch="normal"
         font-variant="normal"
         font-size="7.06" />
      <path
         d="m 37.259053,247.24844 h 0.509874 l 0.172255,-0.17226 -0.172255,-0.17225 h -0.509874 l -0.268717,0.17225 z m -0.392741,2.28065 0.172255,-0.17225 v -1.05076 l -0.172255,-0.87161 -0.172254,0.87161 v 1.05076 z m 0.306614,-1.25746 0.272162,0.66491 0.282498,0.28249 v -0.50298 l -0.558105,-1.35392 -0.206706,-0.13781 z m -0.430637,-1.19545 -0.268718,-0.17225 h -0.509874 l -0.172254,0.17225 0.172254,0.17226 h 0.509874 z m 0.124023,-2.4529 -0.172254,0.17225 v 1.05075 l 0.172254,0.87161 0.172255,-0.87161 v -1.05075 z m -0.306613,1.25746 -0.272163,-0.66491 -0.282498,-0.2825 v 0.50299 l 0.558106,1.35392 0.206706,0.1378 z m 0.56155,3.53811 h 0.661459 l 0.206705,0.2067 -0.206705,0.20671 h -0.661459 l -0.206705,-0.20671 z m 0.70969,-0.0482 v -2.0395 l 0.206706,-0.2067 0.206705,0.2067 v 2.0395 l -0.206705,0.2067 z m -0.582221,-2.08773 -0.320394,-0.20671 0.320394,-0.2067 h 0.53399 l 0.206705,0.2067 -0.206705,0.20671 z m -0.382406,2.29443 -0.206705,-0.2067 v -1.06798 l 0.206705,-1.04731 0.206706,1.04731 v 1.06798 z m 0.272163,-1.29535 -0.223931,-1.12999 0.282497,0.18603 0.564996,1.37115 v 0.59256 l -0.344509,-0.34451 z m -0.5271,1.13688 0.206706,0.2067 -0.206706,0.20671 h -0.661458 l -0.206706,-0.20671 0.206706,-0.2067 z m -0.709689,-0.0482 -0.206706,0.2067 -0.206706,-0.2067 v -2.0395 l 0.206706,-0.2067 0.206706,0.2067 z m 0.902615,-2.29444 -0.320394,0.20671 h -0.53399 l -0.206706,-0.20671 0.206706,-0.2067 h 0.53399 z m -0.210151,1.20579 -0.279053,0.67524 -0.34451,0.34451 v -0.59256 l 0.564996,-1.37115 0.282498,-0.18603 z m 0.527099,-3.54845 -0.206705,-0.20671 0.206705,-0.2067 h 0.661459 l 0.206705,0.2067 -0.206705,0.20671 z m 0.70969,0.0482 0.206706,-0.20671 0.206705,0.20671 v 2.0395 l -0.206705,0.2067 -0.206706,-0.2067 z m -0.964627,-0.20671 0.206706,0.20671 v 1.06798 l -0.206706,1.04731 -0.206705,-1.04731 v -1.06798 z m 0.272163,1.29536 0.279053,-0.67524 0.344509,-0.34451 v 0.59256 l -0.564996,1.37115 -0.282497,0.18603 z m -0.5271,-1.13688 h -0.661458 l -0.206706,-0.20671 0.206706,-0.2067 h 0.661458 l 0.206706,0.2067 z m -0.709689,0.0482 v 2.0395 l -0.206706,0.2067 -0.206706,-0.2067 v -2.0395 l 0.206706,-0.20671 z m 0.692464,1.08865 0.223931,1.12999 -0.282498,-0.18603 -0.564996,-1.37115 v -0.59256 l 0.34451,0.34451 z"
         id="path886"
         inkscape:connector-curvature="0"
         font-family="led16sgmnt"
         fill="#057000"
         font-style="normal"
         fill-opacity="1"
         font-weight="bold"
         stroke-width="0.265"
         font-stretch="normal"
         font-variant="normal"
         font-size="7.06" />
      <path
         d="m 40.173603,249.52909 0.172255,-0.17225 v -1.05076 l -0.172255,-0.87161 -0.172254,0.87161 v 1.05076 z m 0.306614,-1.25746 0.272162,0.66491 0.282498,0.28249 v -0.50298 l -0.558105,-1.35392 -0.206706,-0.13781 z m -1.305691,1.08521 v -2.01194 l -0.172255,-0.17225 -0.172255,0.17225 v 2.01194 l 0.172255,0.17225 z m 0.692464,-1.08521 0.210151,-1.04731 -0.206706,0.13781 -0.558106,1.35392 v 0.50298 l 0.282498,-0.28249 z m 1.305691,-3.4761 v 2.01194 l 0.172255,0.17225 0.172255,-0.17225 v -2.01194 l -0.172255,-0.17225 z m -0.999078,-0.17225 -0.172254,0.17225 v 1.05075 l 0.172254,0.87161 0.172255,-0.87161 v -1.05075 z m 0.306614,1.25746 -0.210151,1.0473 0.206706,-0.1378 0.558105,-1.35392 v -0.50299 l -0.282498,0.2825 z m -0.613227,0 -0.272163,-0.66491 -0.282498,-0.2825 v 0.50299 l 0.558106,1.35392 0.206706,0.1378 z m 0.56155,3.53811 h 0.661459 l 0.206705,0.2067 -0.206705,0.20671 H 40.42854 l -0.206705,-0.20671 z m 0.70969,-0.0482 v -2.0395 l 0.206706,-0.2067 0.206705,0.2067 v 2.0395 l -0.206705,0.2067 z m -0.582221,-2.08773 -0.320394,-0.20671 0.320394,-0.2067 h 0.53399 l 0.206705,0.2067 -0.206705,0.20671 z m -0.382406,2.29443 -0.206705,-0.2067 v -1.06798 l 0.206705,-1.04731 0.206706,1.04731 v 1.06798 z m 0.272163,-1.29535 -0.223931,-1.12999 0.282497,0.18603 0.564996,1.37115 v 0.59256 l -0.344509,-0.34451 z m -0.5271,1.13688 0.206706,0.2067 -0.206706,0.20671 h -0.661458 l -0.206706,-0.20671 0.206706,-0.2067 z m -0.709689,-0.0482 -0.206706,0.2067 -0.206706,-0.2067 v -2.0395 l 0.206706,-0.2067 0.206706,0.2067 z m 0.902615,-2.29444 -0.320394,0.20671 h -0.53399 l -0.206706,-0.20671 0.206706,-0.2067 h 0.53399 z m -0.210151,1.20579 -0.279053,0.67524 -0.344509,0.34451 v -0.59256 l 0.564995,-1.37115 0.282498,-0.18603 z m 0.527099,-3.54845 -0.206705,-0.20671 0.206705,-0.2067 h 0.661459 l 0.206705,0.2067 -0.206705,0.20671 z m 0.70969,0.0482 0.206706,-0.20671 0.206705,0.20671 v 2.0395 l -0.206705,0.2067 -0.206706,-0.2067 z m -0.964627,-0.20671 0.206706,0.20671 v 1.06798 l -0.206706,1.04731 -0.206705,-1.04731 v -1.06798 z m 0.272163,1.29536 0.279053,-0.67524 0.344509,-0.34451 v 0.59256 l -0.564996,1.37115 -0.282497,0.18603 z m -0.5271,-1.13688 h -0.661458 l -0.206706,-0.20671 0.206706,-0.2067 h 0.661458 l 0.206706,0.2067 z m -0.709689,0.0482 v 2.0395 l -0.206706,0.2067 -0.206706,-0.2067 v -2.0395 l 0.206706,-0.20671 z m 0.692464,1.08865 0.223931,1.12999 -0.282498,-0.18603 -0.564995,-1.37115 v -0.59256 l 0.344509,0.34451 z"
         id="path888"
         inkscape:connector-curvature="0"
         font-family="led16sgmnt"
         fill="#057000"
         font-style="normal"
         fill-opacity="1"
         font-weight="bold"
         stroke-width="0.265"
         font-stretch="normal"
         font-variant="normal"
         font-size="7.06" />
      <path
         d="m 43.787508,245.88074 -0.210151,1.0473 0.206706,-0.1378 0.558105,-1.35392 v -0.50299 l -0.282498,0.2825 z m -0.03445,-0.0103 0.279053,-0.67524 0.344509,-0.34451 v 0.59256 l -0.564995,1.37115 -0.282498,0.18603 z m -0.0034,3.5829 -0.172255,0.17225 0.172255,0.17226 h 0.633897 l 0.172255,-0.17226 -0.172255,-0.17225 z m 0.124023,-2.20486 h 0.509874 l 0.172255,-0.17226 -0.172255,-0.17225 h -0.509874 l -0.268717,0.17225 z m -0.392741,2.28065 0.172255,-0.17225 v -1.05076 l -0.172255,-0.87161 -0.172254,0.87161 v 1.05076 z m 0.306614,-1.25746 0.272162,0.66491 0.282498,0.28249 v -0.50298 l -0.558105,-1.35392 -0.206706,-0.13781 z m -0.575331,1.18167 h -0.633898 l -0.172254,0.17225 0.172254,0.17226 h 0.633898 l 0.172255,-0.17226 z m -0.73036,-0.0965 v -2.01194 l -0.172255,-0.17225 -0.172255,0.17225 v 2.01194 l 0.172255,0.17225 z m 0.875054,-2.28066 -0.268718,-0.17225 h -0.509874 l -0.172254,0.17225 0.172254,0.17226 h 0.509874 z m -0.18259,1.19545 0.210151,-1.04731 -0.206706,0.13781 -0.558105,1.35392 v 0.50298 l 0.282497,-0.28249 z m 0.575331,-3.57256 h 0.633897 l 0.172255,-0.17226 -0.172255,-0.17225 h -0.633897 l -0.172255,0.17225 z m -0.268718,-0.0758 -0.172254,0.17225 v 1.05075 l 0.172254,0.87161 0.172255,-0.87161 v -1.05075 z m -0.268717,0.0758 0.172255,-0.17226 -0.172255,-0.17225 h -0.633898 l -0.172254,0.17225 0.172254,0.17226 z m -0.73036,0.0965 -0.172255,-0.17225 -0.172255,0.17225 v 2.01194 l 0.172255,0.17225 0.172255,-0.17225 z m 0.692464,1.08521 -0.272163,-0.66491 -0.282497,-0.2825 v 0.50299 l 0.558105,1.35392 0.206706,0.1378 z m 0.56155,3.53811 h 0.661459 l 0.206705,0.2067 -0.206705,0.20671 h -0.661459 l -0.206705,-0.20671 z m 0.70969,-0.0482 v -2.0395 l 0.206706,-0.2067 0.206706,0.2067 v 2.0395 l -0.206706,0.2067 z m -0.582221,-2.08773 -0.320394,-0.20671 0.320394,-0.2067 h 0.53399 l 0.206705,0.2067 -0.206705,0.20671 z m -0.382406,2.29443 -0.206705,-0.2067 v -1.06798 l 0.206705,-1.04731 0.206706,1.04731 v 1.06798 z m 0.272163,-1.29535 -0.223931,-1.12999 0.282498,0.18603 0.564995,1.37115 v 0.59256 l -0.344509,-0.34451 z m -0.5271,1.13688 0.206706,0.2067 -0.206706,0.20671 h -0.661458 l -0.206706,-0.20671 0.206706,-0.2067 z m -0.709689,-0.0482 -0.206706,0.2067 -0.206706,-0.2067 v -2.0395 l 0.206706,-0.2067 0.206706,0.2067 z m 0.902615,-2.29444 -0.320394,0.20671 h -0.53399 l -0.206706,-0.20671 0.206706,-0.2067 h 0.53399 z m -0.210151,1.20579 -0.279053,0.67524 -0.344509,0.34451 v -0.59256 l 0.564995,-1.37115 0.282498,-0.18603 z m 0.527099,-3.54845 -0.206705,-0.20671 0.206705,-0.2067 h 0.661459 l 0.206705,0.2067 -0.206705,0.20671 z m 0.70969,0.0482 0.206706,-0.20671 0.206706,0.20671 v 2.0395 l -0.206706,0.2067 -0.206706,-0.2067 z m -0.964627,-0.20671 0.206706,0.20671 v 1.06798 l -0.206706,1.04731 -0.206705,-1.04731 v -1.06798 z m -0.254937,0.15848 h -0.661458 l -0.206706,-0.20671 0.206706,-0.2067 h 0.661458 l 0.206706,0.2067 z m -0.709689,0.0482 v 2.0395 l -0.206706,0.2067 -0.206706,-0.2067 v -2.0395 l 0.206706,-0.20671 z m 0.692464,1.08865 0.223931,1.12999 -0.282498,-0.18603 -0.564995,-1.37115 v -0.59256 l 0.344509,0.34451 z"
         id="path890"
         inkscape:connector-curvature="0"
         font-family="led16sgmnt"
         fill="#057000"
         font-style="normal"
         fill-opacity="1"
         font-weight="bold"
         stroke-width="0.265"
         font-stretch="normal"
         font-variant="normal"
         font-size="7.06" />
      <path
         d="m 47.056905,249.4533 -0.172255,0.17225 0.172255,0.17226 h 0.633897 l 0.172255,-0.17226 -0.172255,-0.17225 z m 0.73036,-0.0965 0.172255,0.17225 0.172254,-0.17225 v -2.01194 l -0.172254,-0.17225 -0.172255,0.17225 z m -0.606337,-2.1084 h 0.509874 l 0.172255,-0.17226 -0.172255,-0.17225 h -0.509874 l -0.268717,0.17225 z m -0.392741,2.28065 0.172255,-0.17225 v -1.05076 l -0.172255,-0.87161 -0.172254,0.87161 v 1.05076 z m 0.306614,-1.25746 0.272162,0.66491 0.282498,0.28249 v -0.50298 l -0.558105,-1.35392 -0.206706,-0.13781 z m -0.575331,1.18167 h -0.633898 l -0.172254,0.17225 0.172254,0.17226 h 0.633898 l 0.172255,-0.17226 z m -0.73036,-0.0965 v -2.01194 l -0.172255,-0.17225 -0.172255,0.17225 v 2.01194 l 0.172255,0.17225 z m 0.875054,-2.28066 -0.268718,-0.17225 h -0.509874 l -0.172254,0.17225 0.172254,0.17226 h 0.509874 z m 0.392741,-2.37711 h 0.633897 l 0.172255,-0.17226 -0.172255,-0.17225 h -0.633897 l -0.172255,0.17225 z m 0.73036,0.0965 v 2.01194 l 0.172255,0.17225 0.172254,-0.17225 v -2.01194 l -0.172254,-0.17225 z m -0.999078,-0.17225 -0.172254,0.17225 v 1.05075 l 0.172254,0.87161 0.172255,-0.87161 v -1.05075 z m -0.268717,0.0758 0.172255,-0.17226 -0.172255,-0.17225 h -0.633898 l -0.172254,0.17225 0.172254,0.17226 z m -0.73036,0.0965 -0.172255,-0.17225 -0.172255,0.17225 v 2.01194 l 0.172255,0.17225 0.172255,-0.17225 z m 0.692464,1.08521 -0.272163,-0.66491 -0.282498,-0.2825 v 0.50299 l 0.558106,1.35392 0.206706,0.1378 z m 0.56155,3.53811 h 0.661459 l 0.206705,0.2067 -0.206705,0.20671 h -0.661459 l -0.206705,-0.20671 z m 0.70969,-0.0482 v -2.0395 l 0.206706,-0.2067 0.206705,0.2067 v 2.0395 l -0.206705,0.2067 z m -0.582221,-2.08773 -0.320394,-0.20671 0.320394,-0.2067 h 0.53399 l 0.206705,0.2067 -0.206705,0.20671 z m -0.382406,2.29443 -0.206705,-0.2067 v -1.06798 l 0.206705,-1.04731 0.206706,1.04731 v 1.06798 z m 0.272163,-1.29535 -0.223931,-1.12999 0.282497,0.18603 0.564996,1.37115 v 0.59256 l -0.344509,-0.34451 z m -0.5271,1.13688 0.206706,0.2067 -0.206706,0.20671 h -0.661458 l -0.206706,-0.20671 0.206706,-0.2067 z m -0.709689,-0.0482 -0.206706,0.2067 -0.206706,-0.2067 v -2.0395 l 0.206706,-0.2067 0.206706,0.2067 z m 0.902615,-2.29444 -0.320394,0.20671 h -0.53399 l -0.206706,-0.20671 0.206706,-0.2067 h 0.53399 z m -0.210151,1.20579 -0.279053,0.67524 -0.34451,0.34451 v -0.59256 l 0.564996,-1.37115 0.282498,-0.18603 z m 0.527099,-3.54845 -0.206705,-0.20671 0.206705,-0.2067 h 0.661459 l 0.206705,0.2067 -0.206705,0.20671 z m 0.70969,0.0482 0.206706,-0.20671 0.206705,0.20671 v 2.0395 l -0.206705,0.2067 -0.206706,-0.2067 z m -0.964627,-0.20671 0.206706,0.20671 v 1.06798 l -0.206706,1.04731 -0.206705,-1.04731 v -1.06798 z m 0.272163,1.29536 0.279053,-0.67524 0.344509,-0.34451 v 0.59256 l -0.564996,1.37115 -0.282497,0.18603 z m -0.5271,-1.13688 h -0.661458 l -0.206706,-0.20671 0.206706,-0.2067 h 0.661458 l 0.206706,0.2067 z m -0.709689,0.0482 v 2.0395 l -0.206706,0.2067 -0.206706,-0.2067 v -2.0395 l 0.206706,-0.20671 z m 0.692464,1.08865 0.223931,1.12999 -0.282498,-0.18603 -0.564996,-1.37115 v -0.59256 l 0.34451,0.34451 z"
         id="path892"
         inkscape:connector-curvature="0"
         font-family="led16sgmnt"
         fill="#057000"
         font-style="normal"
         fill-opacity="1"
         font-weight="bold"
         stroke-width="0.265"
         font-stretch="normal"
         font-variant="normal"
         font-size="7.06" />
      <path
         d="m 50.09548,249.52909 0.172255,-0.17225 v -1.05076 l -0.172255,-0.87161 -0.172255,0.87161 v 1.05076 z m 0.306614,-1.25746 0.272162,0.66491 0.282498,0.28249 v -0.50298 l -0.558105,-1.35392 -0.206706,-0.13781 z m -1.305691,1.08521 v -2.01194 l -0.172255,-0.17225 -0.172255,0.17225 v 2.01194 l 0.172255,0.17225 z m 0.692464,-1.08521 0.210151,-1.04731 -0.206706,0.13781 -0.558106,1.35392 v 0.50298 l 0.282498,-0.28249 z m 0.306613,-3.64835 -0.172255,0.17225 v 1.05075 l 0.172255,0.87161 0.172255,-0.87161 v -1.05075 z m 0.306614,1.25746 -0.210151,1.0473 0.206706,-0.1378 0.558105,-1.35392 v -0.50299 l -0.282498,0.2825 z m -0.613227,0 -0.272163,-0.66491 -0.282498,-0.2825 v 0.50299 l 0.558106,1.35392 0.206706,0.1378 z m 0.56155,3.53811 h 0.661459 l 0.206705,0.2067 -0.206705,0.20671 h -0.661459 l -0.206705,-0.20671 z m 0.70969,-0.0482 v -2.0395 l 0.206706,-0.2067 0.206705,0.2067 v 2.0395 l -0.206705,0.2067 z m -0.582221,-2.08773 -0.320394,-0.20671 0.320394,-0.2067 h 0.53399 l 0.206705,0.2067 -0.206705,0.20671 z m -0.382406,2.29443 -0.206705,-0.2067 v -1.06798 l 0.206705,-1.04731 0.206706,1.04731 v 1.06798 z m 0.272163,-1.29535 -0.223931,-1.12999 0.282497,0.18603 0.564996,1.37115 v 0.59256 l -0.34451,-0.34451 z m -0.5271,1.13688 0.206706,0.2067 -0.206706,0.20671 h -0.661458 l -0.206706,-0.20671 0.206706,-0.2067 z m -0.709689,-0.0482 -0.206706,0.2067 -0.206706,-0.2067 v -2.0395 l 0.206706,-0.2067 0.206706,0.2067 z m 0.902615,-2.29444 -0.320394,0.20671 h -0.53399 l -0.206706,-0.20671 0.206706,-0.2067 h 0.53399 z m -0.210151,1.20579 -0.279053,0.67524 -0.34451,0.34451 v -0.59256 l 0.564996,-1.37115 0.282498,-0.18603 z m 0.527099,-3.54845 -0.206705,-0.20671 0.206705,-0.2067 h 0.661459 l 0.206705,0.2067 -0.206705,0.20671 z m 0.70969,0.0482 0.206706,-0.20671 0.206705,0.20671 v 2.0395 l -0.206705,0.2067 -0.206706,-0.2067 z m -0.964627,-0.20671 0.206706,0.20671 v 1.06798 l -0.206706,1.04731 -0.206705,-1.04731 v -1.06798 z m 0.272163,1.29536 0.279052,-0.67524 0.34451,-0.34451 v 0.59256 l -0.564996,1.37115 -0.282497,0.18603 z m -0.5271,-1.13688 h -0.661458 l -0.206706,-0.20671 0.206706,-0.2067 h 0.661458 l 0.206706,0.2067 z m -0.709689,0.0482 v 2.0395 l -0.206706,0.2067 -0.206706,-0.2067 v -2.0395 l 0.206706,-0.20671 z m 0.692464,1.08865 0.223931,1.12999 -0.282498,-0.18603 -0.564996,-1.37115 v -0.59256 l 0.34451,0.34451 z"
         id="path894"
         inkscape:connector-curvature="0"
         font-family="led16sgmnt"
         fill="#057000"
         font-style="normal"
         fill-opacity="1"
         font-weight="bold"
         stroke-width="0.265"
         font-stretch="normal"
         font-variant="normal"
         font-size="7.06" />
      <path
         d="m 53.402769,249.52909 0.172255,-0.17225 v -1.05076 l -0.172255,-0.87161 -0.172254,0.87161 v 1.05076 z m 0.306614,-1.25746 0.272162,0.66491 0.282498,0.28249 v -0.50298 l -0.558105,-1.35392 -0.206706,-0.13781 z m -1.305691,1.08521 v -2.01194 l -0.172255,-0.17225 -0.172255,0.17225 v 2.01194 l 0.172255,0.17225 z m 0.692464,-1.08521 0.210151,-1.04731 -0.206706,0.13781 -0.558105,1.35392 v 0.50298 l 0.282497,-0.28249 z m 0.306613,-3.64835 -0.172254,0.17225 v 1.05075 l 0.172254,0.87161 0.172255,-0.87161 v -1.05075 z m 0.306614,1.25746 -0.210151,1.0473 0.206706,-0.1378 0.558105,-1.35392 v -0.50299 l -0.282498,0.2825 z m -1.305691,-1.08521 -0.172255,-0.17225 -0.172255,0.17225 v 2.01194 l 0.172255,0.17225 0.172255,-0.17225 z m 0.692464,1.08521 -0.272163,-0.66491 -0.282497,-0.2825 v 0.50299 l 0.558105,1.35392 0.206706,0.1378 z m 0.56155,3.53811 h 0.661459 l 0.206705,0.2067 -0.206705,0.20671 h -0.661459 l -0.206705,-0.20671 z m 0.70969,-0.0482 v -2.0395 l 0.206706,-0.2067 0.206706,0.2067 v 2.0395 l -0.206706,0.2067 z m -0.582221,-2.08773 -0.320394,-0.20671 0.320394,-0.2067 h 0.53399 l 0.206705,0.2067 -0.206705,0.20671 z m -0.382406,2.29443 -0.206705,-0.2067 v -1.06798 l 0.206705,-1.04731 0.206706,1.04731 v 1.06798 z m 0.272163,-1.29535 -0.223931,-1.12999 0.282498,0.18603 0.564995,1.37115 v 0.59256 l -0.344509,-0.34451 z m -0.5271,1.13688 0.206706,0.2067 -0.206706,0.20671 h -0.661458 l -0.206706,-0.20671 0.206706,-0.2067 z m -0.709689,-0.0482 -0.206706,0.2067 -0.206706,-0.2067 v -2.0395 l 0.206706,-0.2067 0.206706,0.2067 z m 0.902615,-2.29444 -0.320394,0.20671 h -0.53399 l -0.206706,-0.20671 0.206706,-0.2067 h 0.53399 z m -0.210151,1.20579 -0.279053,0.67524 -0.344509,0.34451 v -0.59256 l 0.564995,-1.37115 0.282498,-0.18603 z m 0.527099,-3.54845 -0.206705,-0.20671 0.206705,-0.2067 h 0.661459 l 0.206705,0.2067 -0.206705,0.20671 z m 0.70969,0.0482 0.206706,-0.20671 0.206706,0.20671 v 2.0395 l -0.206706,0.2067 -0.206706,-0.2067 z m -0.964627,-0.20671 0.206706,0.20671 v 1.06798 l -0.206706,1.04731 -0.206705,-1.04731 v -1.06798 z m 0.272163,1.29536 0.279053,-0.67524 0.344509,-0.34451 v 0.59256 l -0.564995,1.37115 -0.282498,0.18603 z m -0.5271,-1.13688 h -0.661458 l -0.206706,-0.20671 0.206706,-0.2067 h 0.661458 l 0.206706,0.2067 z m -0.709689,0.0482 v 2.0395 l -0.206706,0.2067 -0.206706,-0.2067 v -2.0395 l 0.206706,-0.20671 z m 0.692464,1.08865 0.223931,1.12999 -0.282498,-0.18603 -0.564995,-1.37115 v -0.59256 l 0.344509,0.34451 z"
         id="path896"
         inkscape:connector-curvature="0"
         font-family="led16sgmnt"
         fill="#057000"
         font-style="normal"
         fill-opacity="1"
         font-weight="bold"
         stroke-width="0.265"
         font-stretch="normal"
         font-variant="normal"
         font-size="7.06" />
      <path
         d="m 57.016676,245.88074 -0.210151,1.0473 0.206706,-0.1378 0.558105,-1.35392 v -0.50299 l -0.282498,0.2825 z m -0.03445,-0.0103 0.279053,-0.67524 0.344509,-0.34451 v 0.59256 l -0.564996,1.37115 -0.282497,0.18603 z m -0.0034,3.5829 -0.172255,0.17225 0.172255,0.17226 h 0.633897 l 0.172255,-0.17226 -0.172255,-0.17225 z m 0.124023,-2.20486 h 0.509874 l 0.172255,-0.17226 -0.172255,-0.17225 h -0.509874 l -0.268717,0.17225 z m -0.392741,2.28065 0.172255,-0.17225 v -1.05076 l -0.172255,-0.87161 -0.172254,0.87161 v 1.05076 z m 0.306614,-1.25746 0.272162,0.66491 0.282498,0.28249 v -0.50298 l -0.558105,-1.35392 -0.206706,-0.13781 z m -0.575331,1.18167 h -0.633898 l -0.172254,0.17225 0.172254,0.17226 h 0.633898 l 0.172255,-0.17226 z m -0.73036,-0.0965 v -2.01194 l -0.172255,-0.17225 -0.172255,0.17225 v 2.01194 l 0.172255,0.17225 z m 0.875054,-2.28066 -0.268718,-0.17225 h -0.509874 l -0.172254,0.17225 0.172254,0.17226 h 0.509874 z m -0.18259,1.19545 0.210151,-1.04731 -0.206706,0.13781 -0.558106,1.35392 v 0.50298 l 0.282498,-0.28249 z m 0.575331,-3.57256 h 0.633897 l 0.172255,-0.17226 -0.172255,-0.17225 H 56.97878 l -0.172255,0.17225 z m -0.268718,-0.0758 -0.172254,0.17225 v 1.05075 l 0.172254,0.87161 0.172255,-0.87161 v -1.05075 z m -0.268717,0.0758 0.172255,-0.17226 -0.172255,-0.17225 h -0.633898 l -0.172254,0.17225 0.172254,0.17226 z m -0.73036,0.0965 -0.172255,-0.17225 -0.172255,0.17225 v 2.01194 l 0.172255,0.17225 0.172255,-0.17225 z m 0.692464,1.08521 -0.272163,-0.66491 -0.282498,-0.2825 v 0.50299 l 0.558106,1.35392 0.206706,0.1378 z m 0.56155,3.53811 h 0.661459 l 0.206705,0.2067 -0.206705,0.20671 h -0.661459 l -0.206705,-0.20671 z m 0.70969,-0.0482 v -2.0395 l 0.206706,-0.2067 0.206705,0.2067 v 2.0395 l -0.206705,0.2067 z m -0.582221,-2.08773 -0.320394,-0.20671 0.320394,-0.2067 h 0.53399 l 0.206705,0.2067 -0.206705,0.20671 z m -0.382406,2.29443 -0.206705,-0.2067 v -1.06798 l 0.206705,-1.04731 0.206706,1.04731 v 1.06798 z m 0.272163,-1.29535 -0.223931,-1.12999 0.282497,0.18603 0.564996,1.37115 v 0.59256 l -0.344509,-0.34451 z m -0.5271,1.13688 0.206706,0.2067 -0.206706,0.20671 h -0.661458 l -0.206706,-0.20671 0.206706,-0.2067 z m -0.709689,-0.0482 -0.206706,0.2067 -0.206706,-0.2067 v -2.0395 l 0.206706,-0.2067 0.206706,0.2067 z m 0.902615,-2.29444 -0.320394,0.20671 h -0.53399 l -0.206706,-0.20671 0.206706,-0.2067 h 0.53399 z m -0.210151,1.20579 -0.279053,0.67524 -0.34451,0.34451 v -0.59256 l 0.564996,-1.37115 0.282498,-0.18603 z m 0.527099,-3.54845 -0.206705,-0.20671 0.206705,-0.2067 h 0.661459 l 0.206705,0.2067 -0.206705,0.20671 z m 0.70969,0.0482 0.206706,-0.20671 0.206705,0.20671 v 2.0395 l -0.206705,0.2067 -0.206706,-0.2067 z m -0.964627,-0.20671 0.206706,0.20671 v 1.06798 l -0.206706,1.04731 -0.206705,-1.04731 v -1.06798 z m -0.254937,0.15848 h -0.661458 l -0.206706,-0.20671 0.206706,-0.2067 h 0.661458 l 0.206706,0.2067 z m -0.709689,0.0482 v 2.0395 l -0.206706,0.2067 -0.206706,-0.2067 v -2.0395 l 0.206706,-0.20671 z m 0.692464,1.08865 0.223931,1.12999 -0.282498,-0.18603 -0.564996,-1.37115 v -0.59256 l 0.34451,0.34451 z"
         id="path898"
         inkscape:connector-curvature="0"
         font-family="led16sgmnt"
         fill="#057000"
         font-style="normal"
         fill-opacity="1"
         font-weight="bold"
         stroke-width="0.265"
         font-stretch="normal"
         font-variant="normal"
         font-size="7.06" />
    </g>
    <path
       inkscape:connector-curvature="0"
       id="path905"
       d="m 9.1882406,257.35249 h 0.9592014 l 0.02821,0.0312 v 5.17161 l -0.02821,0.0312 H 9.3434056 l -0.02821,-0.0312 v -4.23699 h -0.04232 q -0.275064,0 -0.536024,0.12463 -0.112847,-0.24534 -0.3385422,-0.88791 0.4549162,-0.20249 0.7899312,-0.20249 z"
       font-family="CorelDraw"
       fill="#000000"
       stroke="none"
       font-style="normal"
       word-spacing="0"
       line-height="1.25"
       fill-opacity="1"
       font-weight="bold"
       stroke-width="0.285"
       font-stretch="normal"
       letter-spacing="0"
       font-variant="normal"
       font-size="7.06" />
    <path
       inkscape:connector-curvature="0"
       id="path907"
       d="m 18.538502,257.20156 h 2.454425 q 0.655924,0 1.02973,0.74771 0.112847,0.23755 0.112847,0.51404 v 0.37385 q 0,0.80611 -0.818142,1.21502 -0.257432,0.0623 -0.578341,0.0623 h -2.186414 q -0.282117,0.0623 -0.282117,0.31155 v 0.98135 h 3.836802 l 0.02821,0.0312 v 0.96579 l -0.02821,0.0312 h -4.683155 l -0.02821,-0.0312 v -1.99387 q 0,-0.80223 0.818141,-1.21502 0.246854,-0.0623 0.62066,-0.0623 h 2.144095 q 0.282118,-0.0623 0.282118,-0.31154 v -0.3427 q -0.05642,-0.31155 -0.282118,-0.31155 h -2.426214 q -0.236273,0 -0.282117,0.32713 l -0.01411,0.0156 h -0.832247 l -0.02821,-0.0312 v -0.0156 q 0,-0.72434 0.677082,-1.13714 0.218642,-0.12461 0.465495,-0.12461 z"
       font-family="CorelDraw"
       fill="#000000"
       stroke="none"
       font-style="normal"
       word-spacing="0"
       line-height="1.25"
       fill-opacity="1"
       font-weight="bold"
       stroke-width="0.285"
       font-stretch="normal"
       letter-spacing="0"
       font-variant="normal"
       font-size="7.06" />
    <path
       inkscape:connector-curvature="0"
       id="path909"
       d="m 28.762579,257.20155 h 2.454425 q 0.655924,0 1.02973,0.74771 0.112847,0.23755 0.112847,0.51404 v 0.37385 q 0,0.41279 -0.268012,0.79444 0.268012,0.34658 0.268012,0.77885 v 0.76328 q 0,0.72433 -0.677083,1.13713 -0.215114,0.12462 -0.465494,0.12462 h -3.568791 l -0.02821,-0.0312 v -0.90347 l 0.02821,-0.0312 h 3.554685 q 0.282118,-0.0623 0.282118,-0.31153 v -0.73213 q -0.05642,-0.31154 -0.282118,-0.31154 h -2.36979 l -0.02821,-0.0312 v -0.91905 l 0.02821,-0.0312 h 2.36979 q 0.282118,-0.0623 0.282118,-0.31155 v -0.34269 q -0.05642,-0.31155 -0.282118,-0.31155 h -2.426213 q -0.236274,0 -0.282119,0.32712 l -0.01411,0.0156 h -0.832248 l -0.02821,-0.0312 v -0.0156 q 0,-0.72434 0.677082,-1.13713 0.218642,-0.12461 0.465495,-0.12461 z"
       font-family="CorelDraw"
       fill="#000000"
       stroke="none"
       font-style="normal"
       word-spacing="0"
       line-height="1.25"
       fill-opacity="1"
       font-weight="bold"
       stroke-width="0.285"
       font-stretch="normal"
       letter-spacing="0"
       font-variant="normal"
       font-size="7.06" />
    <path
       inkscape:connector-curvature="0"
       id="path911"
       d="m 7.0811863,268.069 h 0.818141 l 0.02821,0.0312 v 1.58887 q 0.05642,0.31154 0.282118,0.31154 H 10.63587 q 0.282118,-0.0623 0.282118,-0.31154 v -1.58887 l 0.02821,-0.0312 h 0.818141 l 0.02821,0.0312 v 5.17161 l -0.02821,0.0312 h -0.818142 l -0.02821,-0.0312 v -1.97829 q -0.05642,-0.31155 -0.282118,-0.31155 H 8.4776673 q -0.761718,0 -1.057942,-0.37385 -0.366753,-0.40111 -0.366753,-0.90347 v -1.60445 z"
       font-family="CorelDraw"
       fill="#000000"
       stroke="none"
       font-style="normal"
       word-spacing="0"
       line-height="1.25"
       fill-opacity="1"
       font-weight="bold"
       stroke-width="0.285"
       font-stretch="normal"
       letter-spacing="0"
       font-variant="normal"
       font-size="7.06" />
    <path
       inkscape:connector-curvature="0"
       id="path913"
       d="m 17.305263,268.14447 h 4.683156 l 0.02821,0.0312 v 0.96578 l -0.02821,0.0312 h -3.836802 v 0.59192 q 0.05642,0.31155 0.282117,0.31155 h 2.144096 q 0.775824,0 1.072048,0.37385 0.366753,0.40501 0.366753,0.90347 v 0.76328 q 0,0.72433 -0.677083,1.13713 -0.215115,0.12462 -0.465494,0.12462 h -2.454425 q -0.655924,0 -1.029731,-0.7477 -0.112847,-0.24145 -0.112847,-0.51405 v -0.0312 l 0.02821,-0.0312 h 0.818142 q 0.02821,0 0.02821,0.10908 0.09874,0.24923 0.282118,0.24923 h 2.426213 q 0.282118,-0.0623 0.282118,-0.31154 v -0.73213 q -0.05642,-0.31158 -0.282118,-0.31158 h -2.158202 q -0.761718,0 -1.057941,-0.37385 -0.366754,-0.4011 -0.366754,-0.90347 v -1.60445 z"
       font-family="CorelDraw"
       fill="#000000"
       stroke="none"
       font-style="normal"
       word-spacing="0"
       line-height="1.25"
       fill-opacity="1"
       font-weight="bold"
       stroke-width="0.285"
       font-stretch="normal"
       letter-spacing="0"
       font-variant="normal"
       font-size="7.06" />
    <path
       inkscape:connector-curvature="0"
       id="path915"
       d="m 28.870111,267.99354 h 2.454425 q 0.655924,0 1.02973,0.74771 0.112847,0.23755 0.112847,0.51404 v 0.0312 l -0.02821,0.0312 h -0.818141 q -0.02821,0 -0.02821,-0.10909 -0.09874,-0.24924 -0.282118,-0.24924 h -2.426213 q -0.282118,0.0623 -0.282118,0.31155 v 0.71655 q 0.112847,-0.0467 0.2398,-0.0467 h 2.468531 q 0.712348,0 1.086154,0.84116 0.07053,0.21419 0.07053,0.42058 v 0.76329 q 0,0.72432 -0.677083,1.13712 -0.215115,0.12462 -0.465495,0.12462 h -2.454425 q -0.655924,0 -1.02973,-0.7477 -0.112847,-0.24145 -0.112847,-0.51404 v -2.71043 q 0,-0.72434 0.677083,-1.13714 0.218641,-0.12461 0.465494,-0.12461 z m -0.268012,3.22447 v 0.73213 q 0.05642,0.31153 0.282118,0.31153 h 2.426213 q 0.282118,-0.0623 0.282118,-0.31153 v -0.73213 q -0.05642,-0.31155 -0.282118,-0.31155 h -2.426213 q -0.282118,0.0623 -0.282118,0.31155 z"
       font-family="CorelDraw"
       fill="#000000"
       stroke="none"
       font-style="normal"
       word-spacing="0"
       line-height="1.25"
       fill-opacity="1"
       font-weight="bold"
       stroke-width="0.285"
       font-stretch="normal"
       letter-spacing="0"
       font-variant="normal"
       font-size="7.06" />
    <path
       inkscape:connector-curvature="0"
       id="path917"
       d="m 7.1887182,278.78552 h 4.6831568 l 0.02821,0.0312 v 1.60445 q 0,0.77495 -0.761718,1.16828 -0.137533,0.074 -1.02973,0.17135 -0.945096,0.3466 -1.311849,1.05925 l -0.6488698,1.19944 h -0.959201 l -0.02821,-0.0312 q 0.860459,-1.64339 1.086154,-1.99388 0.7335058,-0.84116 1.2131058,-0.99694 0.490181,-0.24923 1.072048,-0.24923 0.493707,-0.0428 0.493707,-0.3427 v -0.59192 H 7.1887192 l -0.02821,-0.0312 v -0.96578 z"
       font-family="CorelDraw"
       fill="#000000"
       stroke="none"
       font-style="normal"
       word-spacing="0"
       line-height="1.25"
       fill-opacity="1"
       font-weight="bold"
       stroke-width="0.285"
       font-stretch="normal"
       letter-spacing="0"
       font-variant="normal"
       font-size="7.06" />
    <path
       inkscape:connector-curvature="0"
       id="path919"
       d="m 18.451694,278.55911 h 2.454425 q 0.655924,0 1.02973,0.74771 0.112847,0.23755 0.112847,0.51404 v 0.37385 q 0,0.41279 -0.268012,0.79444 0.268012,0.34658 0.268012,0.77885 v 0.76328 q 0,0.72433 -0.677082,1.13713 -0.215115,0.12462 -0.465495,0.12462 h -2.454425 q -0.655925,0 -1.029731,-0.7477 -0.112847,-0.24145 -0.112847,-0.51405 V 281.768 q 0,-0.41279 0.268012,-0.79443 -0.268012,-0.34659 -0.268012,-0.77886 v -0.37385 q 0,-0.72434 0.677084,-1.13714 0.21864,-0.12461 0.465494,-0.12461 z m -0.268012,1.27732 v 0.3427 q 0.05642,0.31155 0.282117,0.31155 h 2.426214 q 0.282118,-0.0623 0.282118,-0.31155 v -0.3427 q -0.05642,-0.31154 -0.282118,-0.31154 h -2.426214 q -0.282117,0.0623 -0.282117,0.31154 z m 0,1.94715 v 0.73213 q 0.05642,0.31153 0.282117,0.31153 h 2.426214 q 0.282118,-0.0623 0.282118,-0.31153 v -0.73213 q -0.05642,-0.31155 -0.282118,-0.31155 h -2.426214 q -0.282117,0.0623 -0.282117,0.31155 z"
       font-family="CorelDraw"
       fill="#000000"
       stroke="none"
       font-style="normal"
       word-spacing="0"
       line-height="1.25"
       fill-opacity="1"
       font-weight="bold"
       stroke-width="0.285"
       font-stretch="normal"
       letter-spacing="0"
       font-variant="normal"
       font-size="7.06" />
    <path
       inkscape:connector-curvature="0"
       id="path921"
       d="m 28.675772,278.48364 h 2.454426 q 0.655923,0 1.029729,0.74771 0.112847,0.23755 0.112847,0.51404 v 2.71042 q 0,0.72433 -0.677083,1.13713 -0.215115,0.12462 -0.465493,0.12462 h -2.454426 q -0.655925,0 -1.029731,-0.7477 -0.112847,-0.24145 -0.112847,-0.51405 v -0.0312 l 0.02821,-0.0312 h 0.818142 q 0.02821,0 0.02821,0.10908 0.09874,0.24923 0.282118,0.24923 h 2.426213 q 0.282118,-0.0623 0.282118,-0.31154 v -0.71655 q -0.112847,0.0467 -0.2398,0.0467 h -2.468531 q -0.712348,0 -1.086154,-0.84117 -0.07053,-0.21418 -0.07053,-0.42058 v -0.76328 q 0,-0.72434 0.677083,-1.13714 0.218642,-0.12461 0.465494,-0.12461 z m -0.268012,1.27732 v 0.73213 q 0.05642,0.31155 0.282118,0.31155 h 2.426213 q 0.282118,-0.0623 0.282118,-0.31155 v -0.73213 q -0.05642,-0.31154 -0.282118,-0.31154 h -2.426213 q -0.282118,0.0623 -0.282118,0.31154 z"
       font-family="CorelDraw"
       fill="#000000"
       stroke="none"
       font-style="normal"
       word-spacing="0"
       line-height="1.25"
       fill-opacity="1"
       font-weight="bold"
       stroke-width="0.285"
       font-stretch="normal"
       letter-spacing="0"
       font-variant="normal"
       font-size="7.06" />
    <g
       id="g1635"
       transform="translate(-2.1885836,21.055683)">
      <rect
         y="257.61"
         x="42.34"
         height="4.83"
         width="1.057"
         id="rect1608"
         opacity="1"
         stroke-dasharray="none"
         stroke-opacity="1"
         paint-order="normal"
         fill="#000000"
         fill-rule="evenodd"
         stroke="none"
         stroke-linejoin="round"
         fill-opacity="1"
         stroke-linecap="round"
         stroke-width="0.265"
         stroke-dashoffset="0"
         stroke-miterlimit="4" />
      <rect
         transform="rotate(-90)"
         id="rect1610"
         width="1.057"
         height="4.83"
         x="-260.55"
         y="40.451"
         opacity="1"
         stroke-dasharray="none"
         stroke-opacity="1"
         paint-order="normal"
         fill="#000000"
         fill-rule="evenodd"
         stroke="none"
         stroke-linejoin="round"
         fill-opacity="1"
         stroke-linecap="round"
         stroke-width="0.265"
         stroke-dashoffset="0"
         stroke-miterlimit="4" />
    </g>
    <rect
       transform="rotate(-90)"
       id="rect1612"
       width="1.057"
       height="4.83"
       x="-271.34"
       y="37.885"
       opacity="1"
       stroke-dasharray="none"
       stroke-opacity="1"
       paint-order="normal"
       fill="#000000"
       fill-rule="evenodd"
       stroke="none"
       stroke-linejoin="round"
       fill-opacity="1"
       stroke-linecap="round"
       stroke-width="0.265"
       stroke-dashoffset="0"
       stroke-miterlimit="4" />
    <g
       id="g907"
       transform="translate(3.018736,-0.37734205)">
      <rect
         transform="rotate(-90)"
         id="rect1614"
         width="1.057"
         height="4.83"
         x="-281.23"
         y="45.36"
         opacity="1"
         stroke-dasharray="none"
         stroke-opacity="1"
         paint-order="normal"
         fill="#000000"
         fill-rule="evenodd"
         stroke="none"
         stroke-linejoin="round"
         fill-opacity="1"
         stroke-linecap="round"
         stroke-width="0.265"
         stroke-dashoffset="0"
         stroke-miterlimit="4" />
      <rect
         y="45.43"
         x="-283.11"
         height="4.83"
         width="1.057"
         id="rect1616"
         transform="rotate(-90)"
         opacity="1"
         stroke-dasharray="none"
         stroke-opacity="1"
         paint-order="normal"
         fill="#000000"
         fill-rule="evenodd"
         stroke="none"
         stroke-linejoin="round"
         fill-opacity="1"
         stroke-linecap="round"
         stroke-width="0.265"
         stroke-dashoffset="0"
         stroke-miterlimit="4" />
    </g>
    <g
       id="g903"
       transform="translate(-3.2451411,-4.9054456)">
      <rect
         transform="matrix(-0.71016923,-0.70403101,0.71016923,-0.70403101,0,0)"
         id="rect1618"
         width="1.01"
         height="4.604"
         x="-226.63"
         y="-152.4"
         opacity="1"
         stroke-dasharray="none"
         stroke-opacity="1"
         paint-order="normal"
         fill="#000000"
         fill-rule="evenodd"
         stroke="none"
         stroke-linejoin="round"
         fill-opacity="1"
         stroke-linecap="round"
         stroke-width="0.252"
         stroke-dashoffset="0"
         stroke-miterlimit="4" />
      <rect
         y="-227.83"
         x="-149.57"
         height="4.62"
         width="1.01"
         id="rect1620"
         transform="matrix(0.70710678,-0.70710678,-0.70710678,-0.70710678,0,0)"
         opacity="1"
         stroke-dasharray="none"
         stroke-opacity="1"
         paint-order="normal"
         fill="#000000"
         fill-rule="evenodd"
         stroke="none"
         stroke-linejoin="round"
         fill-opacity="1"
         stroke-linecap="round"
         stroke-width="0.253"
         stroke-dashoffset="0"
         stroke-miterlimit="4" />
    </g>
    <rect
       transform="rotate(-135)"
       id="rect909"
       width="1.057"
       height="4.83"
       x="-227.62"
       y="-157.89"
       opacity="1"
       stroke-dasharray="none"
       stroke-opacity="1"
       paint-order="normal"
       fill="#000000"
       fill-rule="evenodd"
       stroke="none"
       stroke-linejoin="round"
       fill-opacity="1"
       stroke-linecap="round"
       stroke-width="0.265"
       stroke-dashoffset="0"
       stroke-miterlimit="4" />
    <g
       aria-label="M"
       id="text1639"
       transform="translate(-2.7168623)"
       font-family="FreeSans"
       fill="#000000"
       stroke="none"
       font-style="normal"
       word-spacing="0"
       line-height="1.25"
       fill-opacity="1"
       font-weight="bold"
       stroke-width="0.265"
       font-stretch="normal"
       letter-spacing="0"
       font-variant="normal"
       font-size="5.644">
      <path
         d="m 41.900223,258.62568 0.739423,3.20605 h 0.846666 l 0.728134,-3.20605 v 3.20605 h 0.846666 v -4.1148 h -1.275644 l -0.722489,3.27377 -0.745067,-3.27377 h -1.264355 v 4.1148 h 0.846666 z"
         id="path1641"
         inkscape:connector-curvature="0"
         stroke-width="0.265"
         font-size="5.644" />
    </g>
    <rect
       id="rect1615"
       width="6.188"
       height="30.64"
       x="57.36"
       y="255.19"
       ry="3.094"
       opacity="0.761"
       stroke-dasharray="none"
       stroke-opacity="1"
       paint-order="normal"
       fill="#03003f"
       fill-rule="evenodd"
       stroke="url(#linearGradient1623)"
       stroke-linejoin="round"
       fill-opacity="0"
       stroke-linecap="round"
       stroke-width="1.058"
       stroke-dashoffset="0"
       stroke-miterlimit="4"
       rx="3.094" />
    <g
       id="g1875"
       transform="matrix(0.35270547,0.22891421,-0.22891421,0.35270547,142.93171,179.17007)">
      <path
         inkscape:connector-curvature="0"
         id="path4394"
         d="m -33.518428,310.41261 4.909523,7.21551"
         stroke-dasharray="none"
         stroke-opacity="1"
         fill="none"
         fill-rule="evenodd"
         stroke="#000000"
         stroke-linejoin="miter"
         stroke-linecap="round"
         stroke-width="0.661"
         stroke-miterlimit="4" />
      <rect
         transform="rotate(-123.64797)"
         rx="0.391"
         ry="0.729"
         y="-200.56"
         x="-246.67"
         height="1.459"
         width="6.811"
         id="rect3271"
         stroke-dasharray="none"
         stroke-opacity="0.563"
         fill="url(#linearGradient3523)"
         stroke="#1c1c1c"
         stroke-linejoin="round"
         fill-opacity="1"
         stroke-linecap="round"
         stroke-width="0.155"
         stroke-miterlimit="4" />
      <rect
         transform="rotate(-123.64797)"
         ry="1.642"
         rx="0.737"
         y="-201.41"
         x="-190.83"
         height="3.284"
         width="9.27"
         id="rect3251"
         fill="url(#linearGradient3525)"
         stroke="none"
         fill-opacity="1"
         stroke-width="0.265" />
      <rect
         transform="rotate(-123.64797)"
         id="rect3231"
         width="7.221"
         height="5.245"
         x="-192.56"
         y="-202.41"
         ry="2.622"
         rx="1.086"
         stroke-dasharray="none"
         stroke-opacity="1"
         fill="#5a5a5a"
         stroke="#000000"
         stroke-linejoin="round"
         fill-opacity="0.539"
         stroke-linecap="round"
         stroke-width="0.13"
         stroke-miterlimit="4" />
      <rect
         transform="rotate(-123.64797)"
         y="-200.59"
         x="-239.51"
         height="1.663"
         width="48.52"
         id="rect3201"
         stroke-dasharray="none"
         stroke-opacity="1"
         fill="url(#linearGradient3527)"
         stroke="#000000"
         stroke-linejoin="round"
         fill-opacity="1"
         stroke-linecap="round"
         stroke-width="0.114"
         stroke-miterlimit="4" />
      <rect
         transform="rotate(-123.64797)"
         rx="0.798"
         ry="2.129"
         y="-201.96"
         x="-239.75"
         height="4.258"
         width="48.897"
         id="rect2421"
         stroke-dasharray="none"
         stroke-opacity="1"
         fill="url(#linearGradient3529)"
         stroke="#000000"
         stroke-linejoin="round"
         fill-opacity="1"
         stroke-linecap="round"
         stroke-width="0.226"
         stroke-miterlimit="4" />
      <rect
         transform="rotate(-123.64797)"
         y="-201.57"
         x="-239.44"
         height="1.231"
         width="48.29"
         id="rect3211"
         fill="url(#linearGradient3531)"
         stroke="none"
         fill-opacity="1"
         stroke-width="0.265" />
      <rect
         transform="rotate(-123.64797)"
         rx="1.086"
         ry="2.622"
         y="-202.41"
         x="-192.56"
         height="5.245"
         width="7.221"
         id="rect3221"
         stroke-dasharray="none"
         stroke-opacity="0.587"
         fill="url(#linearGradient3533)"
         stroke="#777777"
         stroke-linejoin="round"
         fill-opacity="1"
         stroke-linecap="round"
         stroke-width="0.13"
         stroke-miterlimit="4" />
      <path
         inkscape:connector-curvature="0"
         sodipodi:nodetypes="cccccccccccc"
         id="path3233"
         d="m -63.099884,270.4393 -1.323065,-1.92749 c 0.934702,-1.65774 2.450731,-2.58235 4.383093,-2.87729 l 3.693744,0.38514 14.55433,22.55123 c 0.23178,0.2804 -0.298419,0.46492 -0.631865,0.42058 -0.817653,-0.0161 -1.372158,-0.39717 -1.803749,-0.94866 l -1.445088,-2.18517 c -0.333367,-0.64008 0.01921,-0.99375 0.161168,-1.43537 l -11.663009,-16.80929 -1.458637,0.0591 c -2.006654,-0.0855 -3.332945,1.12294 -4.466926,2.76724 z"
         stroke-dasharray="none"
         stroke-opacity="0.544"
         fill="#d5d5d5"
         fill-rule="evenodd"
         stroke="#8d8d8d"
         stroke-linejoin="miter"
         fill-opacity="0.767"
         stroke-linecap="butt"
         stroke-width="0.113"
         stroke-miterlimit="4" />
      <path
         inkscape:connector-curvature="0"
         sodipodi:nodetypes="ccccc"
         id="path3235"
         d="m -42.483575,288.61153 c -0.486048,-0.0801 -0.982964,-0.1373 -1.281041,-0.61347 l -1.570025,-2.20146 c -0.273782,-0.79255 0.100833,-0.99478 0.258935,-1.39413 l -11.795023,-16.93405"
         stroke-dasharray="none"
         stroke-opacity="0.515"
         fill="none"
         stroke="#ffffff"
         stroke-linejoin="round"
         stroke-linecap="round"
         stroke-width="0.407"
         stroke-miterlimit="4" />
      <path
         inkscape:connector-curvature="0"
         d="m -42.483575,288.61153 c -0.486048,-0.0801 -0.982964,-0.1373 -1.281041,-0.61347 l -1.570025,-2.20146 c -0.273782,-0.79255 0.100833,-0.99478 0.258935,-1.39413 l -11.795023,-16.93405"
         id="path3237"
         sodipodi:nodetypes="ccccc"
         stroke-dasharray="none"
         stroke-opacity="0.515"
         fill="none"
         stroke="#ffffff"
         stroke-linejoin="round"
         stroke-linecap="round"
         stroke-width="0.158"
         stroke-miterlimit="4" />
      <path
         inkscape:connector-curvature="0"
         sodipodi:nodetypes="cc"
         id="path3239"
         d="M -41.903225,288.53942 -56.458712,266.14693"
         stroke-dasharray="none"
         stroke-opacity="0.461"
         fill="none"
         stroke="#000000"
         stroke-linejoin="miter"
         stroke-linecap="butt"
         stroke-width="0.158"
         stroke-miterlimit="4" />
      <path
         inkscape:connector-curvature="0"
         d="m -63.099884,270.4393 -1.323065,-1.92749 c 0.934702,-1.65774 2.450731,-2.58235 4.383093,-2.87729 l 1.406898,2.03754 c -2.006654,-0.0855 -3.332945,1.12293 -4.466926,2.76724 z"
         id="path3241"
         sodipodi:nodetypes="ccccc"
         fill="url(#linearGradient3535)"
         fill-rule="evenodd"
         stroke="none"
         fill-opacity="1"
         stroke-width="0.265" />
      <path
         inkscape:connector-curvature="0"
         sodipodi:nodetypes="ccccc"
         id="path3261"
         d="m -35.624967,310.82106 c 0.144915,0.21772 4.035269,3.59759 4.035269,3.59759 l 1.128885,-0.71648 -1.737128,-5.12725 c -0.966729,1.01255 -2.116833,1.7496 -3.427026,2.24614 z"
         stroke-dasharray="none"
         stroke-opacity="0.563"
         fill="url(#linearGradient3537)"
         fill-rule="evenodd"
         stroke="#5a5a5a"
         stroke-linejoin="miter"
         fill-opacity="1"
         stroke-linecap="butt"
         stroke-width="0.136"
         stroke-miterlimit="4" />
      <g
         id="text4409"
         transform="matrix(0.14508189,0.22125909,-0.22125909,0.14508189,-76.216402,255.14328)"
         stroke-opacity="1"
         font-family="'Arial Black'"
         fill="#000000"
         stroke="none"
         font-style="normal"
         word-spacing="0"
         stroke-linejoin="miter"
         line-height="125%"
         fill-opacity="1"
         font-weight="normal"
         stroke-linecap="butt"
         stroke-width="1"
         font-stretch="normal"
         letter-spacing="0"
         font-variant="normal"
         font-size="5">
        <path
           id="path4414"
           d="m 119.65718,-19.282238 v -0.744629 h 1.70899 v 1.525879 q -0.49073,0.334473 -0.86915,0.456543 -0.37597,0.119629 -0.89355,0.119629 -0.63721,0 -1.04004,-0.217285 -0.40039,-0.217285 -0.62256,-0.646973 -0.21972,-0.429687 -0.21972,-0.986328 0,-0.585938 0.24169,-1.018066 0.2417,-0.434571 0.70801,-0.65918 0.36377,-0.17334 0.97901,-0.17334 0.59326,0 0.88623,0.107422 0.29541,0.107422 0.48828,0.334473 0.19531,0.224609 0.29297,0.571289 l -1.0669,0.190429 q -0.0659,-0.202636 -0.22461,-0.310058 -0.15625,-0.107422 -0.40039,-0.107422 -0.36377,0 -0.58105,0.253906 -0.21485,0.251465 -0.21485,0.79834 0,0.581055 0.21729,0.830078 0.21973,0.249023 0.61035,0.249023 0.18555,0 0.354,-0.05371 0.16846,-0.05371 0.38575,-0.183106 v -0.336914 z"
           inkscape:connector-curvature="0" />
        <path
           id="path4416"
           d="m 124.84029,-19.035656 h -1.99219 q 0.0268,0.239258 0.12939,0.356445 0.14405,0.168457 0.37598,0.168457 0.14648,0 0.27832,-0.07324 0.0806,-0.04639 0.17334,-0.163574 l 0.979,0.09033 q -0.22461,0.390625 -0.54199,0.561523 -0.31738,0.168457 -0.91064,0.168457 -0.51514,0 -0.81055,-0.144043 -0.29541,-0.146484 -0.49072,-0.461425 -0.19287,-0.317383 -0.19287,-0.744629 0,-0.60791 0.38818,-0.983887 0.39063,-0.375976 1.07666,-0.375976 0.55664,0 0.87891,0.168457 0.32226,0.168457 0.49072,0.488281 0.16846,0.319824 0.16846,0.832519 z m -1.01075,-0.476074 q -0.0293,-0.288086 -0.15625,-0.412598 -0.12451,-0.124512 -0.32959,-0.124512 -0.23681,0 -0.37841,0.187989 -0.0903,0.117187 -0.11475,0.349121 z"
           inkscape:connector-curvature="0" />
        <path
           id="path4418"
           d="m 125.30171,-20.578625 h 0.9253 v 0.422364 q 0.20751,-0.25879 0.41992,-0.368653 0.2124,-0.112304 0.51758,-0.112304 0.41259,0 0.64453,0.246582 0.23437,0.24414 0.23437,0.756835 v 1.64795 h -0.99853 v -1.425782 q 0,-0.24414 -0.0903,-0.344238 -0.0903,-0.102539 -0.2539,-0.102539 -0.18067,0 -0.29297,0.136719 -0.11231,0.136719 -0.11231,0.490723 v 1.245117 h -0.99365 v -2.592774 z"
           inkscape:connector-curvature="0" />
        <path
           id="path4420"
           d="m 131.51997,-19.035656 h -1.99218 q 0.0268,0.239258 0.12939,0.356445 0.14404,0.168457 0.37598,0.168457 0.14648,0 0.27832,-0.07324 0.0806,-0.04639 0.17334,-0.163574 l 0.979,0.09033 q -0.22461,0.390625 -0.54199,0.561523 -0.31738,0.168457 -0.91065,0.168457 -0.51513,0 -0.81054,-0.144043 -0.29541,-0.146484 -0.49072,-0.461425 -0.19288,-0.317383 -0.19288,-0.744629 0,-0.60791 0.38819,-0.983887 0.39062,-0.375976 1.07666,-0.375976 0.55664,0 0.8789,0.168457 0.32227,0.168457 0.49073,0.488281 0.16845,0.319824 0.16845,0.832519 z m -1.01074,-0.476074 q -0.0293,-0.288086 -0.15625,-0.412598 -0.12451,-0.124512 -0.32959,-0.124512 -0.23681,0 -0.37842,0.187989 -0.0903,0.117187 -0.11474,0.349121 z"
           inkscape:connector-curvature="0" />
        <path
           id="path4422"
           d="m 131.99117,-20.578625 h 0.93017 v 0.424805 q 0.13428,-0.275879 0.27588,-0.378418 0.14404,-0.10498 0.354,-0.10498 0.21973,0 0.48096,0.136718 l -0.30762,0.708008 q -0.17578,-0.07324 -0.27832,-0.07324 -0.19531,0 -0.30273,0.161133 -0.15381,0.22705 -0.15381,0.849609 v 0.869141 h -0.99853 v -2.592774 z"
           inkscape:connector-curvature="0" />
        <path
           id="path4424"
           d="m 135.19673,-19.738781 -0.94971,-0.100098 q 0.0537,-0.249023 0.15381,-0.390625 0.10254,-0.144043 0.29297,-0.249023 0.13672,-0.07568 0.37598,-0.117188 0.23926,-0.0415 0.51758,-0.0415 0.44677,0 0.71777,0.05127 0.271,0.04883 0.45166,0.20752 0.12695,0.109863 0.2002,0.3125 0.0732,0.200195 0.0732,0.3833 v 1.14502 q 0,0.183105 0.022,0.288086 0.0244,0.102539 0.10254,0.263672 h -0.93262 q -0.0562,-0.100098 -0.0732,-0.151367 -0.0171,-0.05371 -0.0342,-0.166016 -0.19531,0.187988 -0.38818,0.268555 -0.26368,0.107421 -0.6128,0.107421 -0.46386,0 -0.70556,-0.214843 -0.23926,-0.214844 -0.23926,-0.529785 0,-0.295411 0.17334,-0.48584 0.17334,-0.19043 0.63965,-0.283203 0.55908,-0.112305 0.7251,-0.15625 0.16601,-0.04639 0.35156,-0.119629 0,-0.183106 -0.0757,-0.256348 -0.0757,-0.07324 -0.26611,-0.07324 -0.24414,0 -0.36621,0.07813 -0.0952,0.06104 -0.15381,0.229492 z m 0.86182,0.522461 q -0.20508,0.07324 -0.42725,0.129394 -0.30273,0.08057 -0.3833,0.158692 -0.083,0.08057 -0.083,0.183105 0,0.117188 0.0806,0.192871 0.083,0.07324 0.2417,0.07324 0.16601,0 0.30762,-0.08057 0.14404,-0.08057 0.20263,-0.195312 0.061,-0.117188 0.061,-0.302735 v -0.158691 z"
           inkscape:connector-curvature="0" />
        <path
           id="path4426"
           d="m 137.66988,-21.564953 h 0.99609 v 3.579102 h -0.99609 z"
           inkscape:connector-curvature="0" />
        <path
           id="path4428"
           d="m 141.03658,-21.564953 h 1.83837 q 0.60059,0 0.89844,0.285645 0.30029,0.285644 0.30029,0.812988 0,0.541992 -0.32714,0.847168 -0.32471,0.305176 -0.99366,0.305176 h -0.60546 v 1.328125 h -1.11084 z m 1.11084,1.525879 h 0.27099 q 0.31983,0 0.44922,-0.109863 0.12939,-0.112305 0.12939,-0.285645 0,-0.168457 -0.1123,-0.285644 -0.1123,-0.117188 -0.42236,-0.117188 h -0.31494 z"
           inkscape:connector-curvature="0" />
        <path
           id="path4430"
           d="m 147.32076,-17.985851 h -0.92774 v -0.419922 q -0.20752,0.258789 -0.41992,0.368652 -0.20996,0.109863 -0.51758,0.109863 -0.41016,0 -0.64453,-0.24414 -0.23193,-0.246582 -0.23193,-0.756836 v -1.650391 h 0.99853 v 1.425782 q 0,0.24414 0.0903,0.346679 0.0903,0.102539 0.25391,0.102539 0.17822,0 0.29053,-0.136718 0.11474,-0.136719 0.11474,-0.490723 v -1.247559 h 0.99366 v 2.592774 z"
           inkscape:connector-curvature="0" />
        <path
           id="path4432"
           d="m 147.93355,-21.564953 h 1.00342 v 1.240235 q 0.14892,-0.15625 0.33691,-0.234375 0.19043,-0.07813 0.41992,-0.07813 0.47363,0 0.78369,0.341796 0.31006,0.339356 0.31006,0.976563 0,0.424805 -0.1416,0.749512 -0.1416,0.322265 -0.39307,0.483398 -0.24902,0.158691 -0.5542,0.158691 -0.26123,0 -0.47851,-0.112304 -0.16358,-0.08789 -0.35645,-0.32959 v 0.383301 h -0.93017 v -3.579102 z m 0.99609,2.275391 q 0,0.334472 0.12451,0.48584 0.12696,0.148925 0.31983,0.148925 0.17822,0 0.29785,-0.146484 0.12207,-0.148926 0.12207,-0.498047 0,-0.307617 -0.11963,-0.45166 -0.11719,-0.144043 -0.28564,-0.144043 -0.20264,0 -0.33204,0.151367 -0.12695,0.148926 -0.12695,0.454102 z"
           inkscape:connector-curvature="0" />
        <path
           id="path4434"
           d="m 151.30269,-21.564953 h 0.99609 v 3.579102 h -0.99609 z"
           inkscape:connector-curvature="0" />
        <path
           id="path4436"
           d="m 152.97505,-21.564953 h 0.99365 v 0.67627 h -0.99365 z m 0,0.986328 h 0.99365 v 2.592774 h -0.99365 z"
           inkscape:connector-curvature="0" />
        <path
           id="path4438"
           d="m 156.54195,-18.999035 0.94482,0.107422 q -0.0781,0.29541 -0.25635,0.512695 -0.17822,0.214844 -0.45654,0.334473 -0.27588,0.119629 -0.70312,0.119629 -0.4126,0 -0.68848,-0.07568 -0.27344,-0.07813 -0.47119,-0.249023 -0.19776,-0.17334 -0.31006,-0.405274 -0.11231,-0.231933 -0.11231,-0.615234 0,-0.400391 0.13672,-0.666504 0.1001,-0.195312 0.27344,-0.349121 0.17334,-0.15625 0.35645,-0.231934 0.29052,-0.119628 0.74462,-0.119628 0.63477,0 0.9668,0.22705 0.33447,0.227051 0.46875,0.664063 l -0.93506,0.124512 q -0.0439,-0.166016 -0.16113,-0.249024 -0.11475,-0.08545 -0.31006,-0.08545 -0.24658,0 -0.40039,0.178223 -0.15137,0.175781 -0.15137,0.534667 0,0.319825 0.15137,0.48584 0.15137,0.166016 0.38574,0.166016 0.19532,0 0.32715,-0.100098 0.13428,-0.100097 0.2002,-0.307617 z"
           inkscape:connector-curvature="0" />
        <path
           id="path4440"
           d="m 159.68404,-21.564953 h 1.10595 v 2.697754 h 1.72608 v 0.881348 h -2.83203 z"
           inkscape:connector-curvature="0" />
        <path
           id="path4442"
           d="m 162.99458,-21.564953 h 0.99366 v 0.67627 h -0.99366 z m 0,0.986328 h 0.99366 v 2.592774 h -0.99366 z"
           inkscape:connector-curvature="0" />
        <path
           id="path4444"
           d="m 166.56148,-18.999035 0.94482,0.107422 q -0.0781,0.29541 -0.25635,0.512695 -0.17822,0.214844 -0.45654,0.334473 -0.27588,0.119629 -0.70312,0.119629 -0.4126,0 -0.68848,-0.07568 -0.27344,-0.07813 -0.47119,-0.249023 -0.19776,-0.17334 -0.31006,-0.405274 -0.1123,-0.231933 -0.1123,-0.615234 0,-0.400391 0.13671,-0.666504 0.1001,-0.195312 0.27344,-0.349121 0.17334,-0.15625 0.35645,-0.231934 0.29052,-0.119628 0.74463,-0.119628 0.63476,0 0.96679,0.22705 0.33448,0.227051 0.46875,0.664063 l -0.93506,0.124512 q -0.0439,-0.166016 -0.16113,-0.249024 -0.11475,-0.08545 -0.31006,-0.08545 -0.24658,0 -0.40039,0.178223 -0.15137,0.175781 -0.15137,0.534667 0,0.319825 0.15137,0.48584 0.15137,0.166016 0.38574,0.166016 0.19532,0 0.32715,-0.100098 0.13428,-0.100097 0.2002,-0.307617 z"
           inkscape:connector-curvature="0" />
        <path
           id="path4446"
           d="m 170.84615,-19.035656 h -1.99219 q 0.0268,0.239258 0.12939,0.356445 0.14405,0.168457 0.37598,0.168457 0.14648,0 0.27832,-0.07324 0.0806,-0.04639 0.17334,-0.163574 l 0.979,0.09033 q -0.22461,0.390625 -0.54199,0.561523 -0.31738,0.168457 -0.91064,0.168457 -0.51514,0 -0.81055,-0.144043 -0.29541,-0.146484 -0.49072,-0.461425 -0.19287,-0.317383 -0.19287,-0.744629 0,-0.60791 0.38818,-0.983887 0.39062,-0.375976 1.07666,-0.375976 0.55664,0 0.87891,0.168457 0.32226,0.168457 0.49072,0.488281 0.16846,0.319824 0.16846,0.832519 z m -1.01075,-0.476074 q -0.0293,-0.288086 -0.15625,-0.412598 -0.12451,-0.124512 -0.32959,-0.124512 -0.23681,0 -0.37841,0.187989 -0.0903,0.117187 -0.11475,0.349121 z"
           inkscape:connector-curvature="0" />
        <path
           id="path4448"
           d="m 171.30757,-20.578625 h 0.92529 v 0.422364 q 0.20752,-0.25879 0.41993,-0.368653 0.2124,-0.112304 0.51757,-0.112304 0.4126,0 0.64454,0.246582 0.23437,0.24414 0.23437,0.756835 v 1.64795 h -0.99853 v -1.425782 q 0,-0.24414 -0.0903,-0.344238 -0.0903,-0.102539 -0.2539,-0.102539 -0.18067,0 -0.29297,0.136719 -0.11231,0.136719 -0.11231,0.490723 v 1.245117 h -0.99365 v -2.592774 z"
           inkscape:connector-curvature="0" />
        <path
           id="path4450"
           d="m 174.47163,-18.703625 0.98633,-0.09277 q 0.061,0.175781 0.1709,0.251465 0.10986,0.07568 0.29297,0.07568 0.20019,0 0.31006,-0.08545 0.0855,-0.06348 0.0855,-0.158691 0,-0.107422 -0.11231,-0.166016 -0.0806,-0.0415 -0.42724,-0.102539 -0.51758,-0.09033 -0.72022,-0.166016 -0.20019,-0.07813 -0.33935,-0.26123 -0.13672,-0.183106 -0.13672,-0.417481 0,-0.256347 0.14892,-0.441894 0.14893,-0.185547 0.41016,-0.275879 0.26123,-0.09277 0.70068,-0.09277 0.46387,0 0.6836,0.0708 0.22216,0.0708 0.36865,0.219727 0.14892,0.148926 0.24658,0.402832 l -0.94238,0.09277 q -0.0366,-0.124511 -0.12207,-0.183105 -0.11719,-0.07813 -0.28321,-0.07813 -0.16845,0 -0.24658,0.06104 -0.0757,0.05859 -0.0757,0.144043 0,0.09521 0.0977,0.144043 0.0977,0.04883 0.4248,0.08789 0.49561,0.05615 0.7373,0.15625 0.2417,0.100097 0.36866,0.285644 0.12939,0.185547 0.12939,0.407715 0,0.224609 -0.13672,0.437012 -0.13427,0.212402 -0.42724,0.339355 -0.29053,0.124512 -0.79346,0.124512 -0.71045,0 -1.01318,-0.202637 -0.3003,-0.202637 -0.38575,-0.576172 z"
           inkscape:connector-curvature="0" />
        <path
           id="path4452"
           d="m 180.58247,-19.035656 h -1.99218 q 0.0268,0.239258 0.12939,0.356445 0.14404,0.168457 0.37598,0.168457 0.14648,0 0.27832,-0.07324 0.0806,-0.04639 0.17334,-0.163574 l 0.979,0.09033 q -0.22461,0.390625 -0.54199,0.561523 -0.31738,0.168457 -0.91065,0.168457 -0.51513,0 -0.81054,-0.144043 -0.29541,-0.146484 -0.49072,-0.461425 -0.19288,-0.317383 -0.19288,-0.744629 0,-0.60791 0.38819,-0.983887 0.39062,-0.375976 1.07666,-0.375976 0.55664,0 0.8789,0.168457 0.32227,0.168457 0.49073,0.488281 0.16845,0.319824 0.16845,0.832519 z m -1.01074,-0.476074 q -0.0293,-0.288086 -0.15625,-0.412598 -0.12451,-0.124512 -0.32959,-0.124512 -0.23681,0 -0.37842,0.187989 -0.0903,0.117187 -0.11474,0.349121 z"
           inkscape:connector-curvature="0" />
        <path
           id="path4454"
           d="m 182.61861,-19.790051 q 0,-1.020507 0.36621,-1.428222 0.36865,-0.407715 1.1206,-0.407715 0.36133,0 0.59326,0.09033 0.23194,0.08789 0.37842,0.231934 0.14649,0.141601 0.22949,0.300293 0.0855,0.15625 0.13672,0.366211 0.1001,0.40039 0.1001,0.83496 0,0.974122 -0.32959,1.425782 -0.32959,0.45166 -1.13525,0.45166 -0.45166,0 -0.72998,-0.144043 -0.27832,-0.144043 -0.45655,-0.422363 -0.12939,-0.197754 -0.20263,-0.539551 -0.0708,-0.344238 -0.0708,-0.759278 z m 0.98632,0.0024 q 0,0.683594 0.11963,0.935058 0.12207,0.249024 0.35157,0.249024 0.15136,0 0.26123,-0.104981 0.1123,-0.107421 0.16357,-0.336914 0.0537,-0.229492 0.0537,-0.715332 0,-0.71289 -0.12207,-0.957031 -0.11963,-0.246582 -0.36133,-0.246582 -0.24658,0 -0.35644,0.251465 -0.10987,0.249023 -0.10987,0.925293 z"
           inkscape:connector-curvature="0" />
        <path
           id="path4456"
           d="m 186.05611,-18.981945 h 1.06201 v 0.996094 h -1.06201 z"
           inkscape:connector-curvature="0" />
        <path
           id="path4458"
           d="m 189.88179,-21.625988 v 3.640137 h -1.00586 v -2.385254 q -0.24414,0.185547 -0.47363,0.300293 -0.22705,0.114746 -0.57129,0.219726 v -0.815429 q 0.50781,-0.163575 0.78857,-0.393067 0.28076,-0.229492 0.43946,-0.566406 z"
           inkscape:connector-curvature="0" />
      </g>
    </g>
  </g>
</svg>
