<?xml version="1.0" encoding="UTF-8" standalone="no"?>
<svg
   xmlns:dc="http://purl.org/dc/elements/1.1/"
   xmlns:cc="http://creativecommons.org/ns#"
   xmlns:rdf="http://www.w3.org/1999/02/22-rdf-syntax-ns#"
   xmlns:svg="http://www.w3.org/2000/svg"
   xmlns="http://www.w3.org/2000/svg"
   xmlns:xlink="http://www.w3.org/1999/xlink"
   xmlns:sodipodi="http://sodipodi.sourceforge.net/DTD/sodipodi-0.dtd"
   xmlns:inkscape="http://www.inkscape.org/namespaces/inkscape"
   id="svg2"
   sodipodi:version="0.32"
   inkscape:version="1.0 (4035a4f, 2020-05-01)"
   width="256"
   height="256"
   version="1.0"
   sodipodi:docname="gnucash.svg"
   inkscape:output_extension="org.inkscape.output.svg.inkscape">
  <metadata
     id="metadata7">
    <rdf:RDF>
      <cc:Work>
        <dc:format>image/svg+xml</dc:format>
        <dc:type
           rdf:resource="http://purl.org/dc/dcmitype/StillImage" />
      </cc:Work>
    </rdf:RDF>
  </metadata>
  <defs
     id="defs5">
    <linearGradient
       id="linearGradient929"
       inkscape:collect="always">
      <stop
         id="stop925"
         offset="0"
         style="stop-color:#000000;stop-opacity:1;" />
      <stop
         style="stop-color:#000000;stop-opacity:1"
         offset="0.82133889"
         id="stop933" />
      <stop
         id="stop927"
         offset="1"
         style="stop-color:#000000;stop-opacity:0;" />
    </linearGradient>
    <linearGradient
       id="linearGradient3391">
      <stop
         stop-opacity="1"
         stop-color="#142cec"
         id="stop3393" />
      <stop
         stop-opacity="1"
         stop-color="#d20000"
         offset="1"
         id="stop3395" />
    </linearGradient>
    <linearGradient
       inkscape:collect="always"
       xlink:href="#linearGradient3391"
       id="linearGradient3397"
       x1="185.09"
       y1="77.39"
       x2="189.2"
       y2="72.975"
       gradientUnits="userSpaceOnUse"
       spreadMethod="reflect" />
    <linearGradient
       id="linearGradient3586">
      <stop
         stop-opacity="1"
         stop-color="#434716"
         id="stop3588" />
      <stop
         stop-opacity="1"
         stop-color="#9ac01e"
         id="stop3590"
         offset="1" />
    </linearGradient>
    <linearGradient
       id="linearGradient3573">
      <stop
         stop-opacity="1"
         stop-color="#ffffff"
         id="stop3575" />
      <stop
         stop-opacity="1"
         stop-color="#bcd743"
         id="stop3577"
         offset="1" />
    </linearGradient>
    <linearGradient
       id="linearGradient3561">
      <stop
         stop-opacity="1"
         stop-color="#f0e6b4"
         id="stop3563" />
      <stop
         stop-opacity="1"
         stop-color="#8e9d00"
         offset="1"
         id="stop3565" />
    </linearGradient>
    <linearGradient
       id="linearGradient3545">
      <stop
         stop-opacity="1"
         stop-color="#ffffff"
         id="stop3547" />
      <stop
         stop-opacity="1"
         stop-color="#e9ecb1"
         id="stop3553"
         offset="0.698" />
      <stop
         stop-opacity="1"
         stop-color="#a2b212"
         offset="0.882"
         id="stop3555" />
      <stop
         stop-opacity="1"
         stop-color="#ffffff"
         offset="1"
         id="stop3549" />
    </linearGradient>
    <linearGradient
       inkscape:collect="always"
       id="linearGradient3529">
      <stop
         stop-opacity="1"
         stop-color="#858585"
         id="stop3531" />
      <stop
         stop-opacity="1"
         stop-color="#ffffff"
         offset="1"
         id="stop3533" />
    </linearGradient>
    <linearGradient
       inkscape:collect="always"
       xlink:href="#linearGradient3561"
       id="linearGradient3927"
       gradientUnits="userSpaceOnUse"
       gradientTransform="matrix(1.8805388,-0.01714893,0.01714893,1.8805388,-160.86204,70.527123)"
       spreadMethod="reflect"
       x1="55.922"
       y1="88.38"
       x2="81.77"
       y2="88.38" />
    <linearGradient
       inkscape:collect="always"
       xlink:href="#linearGradient3529"
       id="linearGradient3948"
       gradientUnits="userSpaceOnUse"
       gradientTransform="matrix(1.8805388,-0.01714893,0.01714893,1.8805388,-161.15575,67.35303)"
       spreadMethod="reflect"
       x1="55.922"
       y1="88.38"
       x2="81.77"
       y2="88.38" />
    <linearGradient
       inkscape:collect="always"
       xlink:href="#linearGradient3545"
       id="linearGradient3956"
       gradientUnits="userSpaceOnUse"
       gradientTransform="matrix(1.880617,0,0,1.880617,-161.2278,57.617176)"
       spreadMethod="reflect"
       x1="57.31"
       y1="74.18"
       x2="83.27"
       y2="74.18" />
    <linearGradient
       inkscape:collect="always"
       xlink:href="#linearGradient3529"
       id="linearGradient3958"
       gradientUnits="userSpaceOnUse"
       gradientTransform="matrix(1.880617,0,0,1.880617,-161.2278,57.617176)"
       spreadMethod="reflect"
       x1="55.922"
       y1="88.38"
       x2="81.77"
       y2="88.38" />
    <radialGradient
       inkscape:collect="always"
       xlink:href="#linearGradient3561"
       id="radialGradient3960"
       gradientUnits="userSpaceOnUse"
       gradientTransform="matrix(2.3016324,0.22986199,-0.10285516,1.0299004,-177.01903,83.761286)"
       spreadMethod="reflect"
       cx="43.48"
       cy="24.446"
       fx="43.48"
       fy="24.446"
       r="30.12" />
    <linearGradient
       inkscape:collect="always"
       xlink:href="#linearGradient3573"
       id="linearGradient3962"
       gradientUnits="userSpaceOnUse"
       gradientTransform="matrix(1.880617,0,0,1.880617,-161.2278,57.617176)"
       spreadMethod="reflect"
       x1="27.18"
       y1="33.27"
       x2="94.08"
       y2="55.805" />
    <linearGradient
       inkscape:collect="always"
       xlink:href="#linearGradient3586"
       id="linearGradient1262"
       gradientUnits="userSpaceOnUse"
       gradientTransform="matrix(1.8805388,-0.01714893,0.01714893,1.8805388,-160.98661,67.521344)"
       x1="55.922"
       y1="88.38"
       x2="81.77"
       y2="88.38"
       spreadMethod="reflect" />
    <linearGradient
       inkscape:collect="always"
       xlink:href="#linearGradient3561"
       id="linearGradient1293"
       gradientUnits="userSpaceOnUse"
       gradientTransform="matrix(1.8805388,-0.01714893,0.01714893,1.8805388,-160.86204,70.527123)"
       x1="55.922"
       y1="88.38"
       x2="81.77"
       y2="88.38"
       spreadMethod="reflect" />
    <linearGradient
       inkscape:collect="always"
       xlink:href="#linearGradient3529"
       id="linearGradient1295"
       gradientUnits="userSpaceOnUse"
       gradientTransform="matrix(1.8805388,-0.01714893,0.01714893,1.8805388,-161.15575,67.35303)"
       x1="55.922"
       y1="88.38"
       x2="81.77"
       y2="88.38"
       spreadMethod="reflect" />
    <linearGradient
       inkscape:collect="always"
       xlink:href="#linearGradient3586"
       id="linearGradient1297"
       gradientUnits="userSpaceOnUse"
       gradientTransform="matrix(1.8805388,-0.01714893,0.01714893,1.8805388,-160.98661,67.521344)"
       x1="55.922"
       y1="88.38"
       x2="81.77"
       y2="88.38"
       spreadMethod="reflect" />
    <linearGradient
       inkscape:collect="always"
       xlink:href="#linearGradient3561"
       id="linearGradient1307"
       gradientUnits="userSpaceOnUse"
       gradientTransform="matrix(1.8805388,-0.01714893,0.01714893,1.8805388,-160.86204,70.527123)"
       x1="55.922"
       y1="88.38"
       x2="81.77"
       y2="88.38"
       spreadMethod="reflect" />
    <linearGradient
       inkscape:collect="always"
       xlink:href="#linearGradient3529"
       id="linearGradient1309"
       gradientUnits="userSpaceOnUse"
       gradientTransform="matrix(1.8805388,-0.01714893,0.01714893,1.8805388,-161.15575,67.35303)"
       x1="55.922"
       y1="88.38"
       x2="81.77"
       y2="88.38"
       spreadMethod="reflect" />
    <linearGradient
       inkscape:collect="always"
       xlink:href="#linearGradient3586"
       id="linearGradient1311"
       gradientUnits="userSpaceOnUse"
       gradientTransform="matrix(1.8805388,-0.01714893,0.01714893,1.8805388,-160.98661,67.521344)"
       x1="55.922"
       y1="88.38"
       x2="81.77"
       y2="88.38"
       spreadMethod="reflect" />
    <linearGradient
       inkscape:collect="always"
       xlink:href="#linearGradient3561"
       id="linearGradient1559"
       gradientUnits="userSpaceOnUse"
       gradientTransform="matrix(1.8805388,-0.01714893,0.01714893,1.8805388,-160.86204,70.527123)"
       x1="55.922"
       y1="88.38"
       x2="81.77"
       y2="88.38"
       spreadMethod="reflect" />
    <linearGradient
       inkscape:collect="always"
       xlink:href="#linearGradient3529"
       id="linearGradient1561"
       gradientUnits="userSpaceOnUse"
       gradientTransform="matrix(1.8805388,-0.01714893,0.01714893,1.8805388,-161.15575,67.35303)"
       x1="55.922"
       y1="88.38"
       x2="81.77"
       y2="88.38"
       spreadMethod="reflect" />
    <linearGradient
       inkscape:collect="always"
       xlink:href="#linearGradient3586"
       id="linearGradient1563"
       gradientUnits="userSpaceOnUse"
       gradientTransform="matrix(1.8805388,-0.01714893,0.01714893,1.8805388,-160.98661,67.521344)"
       x1="55.922"
       y1="88.38"
       x2="81.77"
       y2="88.38"
       spreadMethod="reflect" />
    <linearGradient
       inkscape:collect="always"
       xlink:href="#linearGradient3561"
       id="linearGradient1573"
       gradientUnits="userSpaceOnUse"
       gradientTransform="matrix(1.8805388,-0.01714893,0.01714893,1.8805388,-160.86204,70.527123)"
       x1="55.922"
       y1="88.38"
       x2="81.77"
       y2="88.38"
       spreadMethod="reflect" />
    <linearGradient
       inkscape:collect="always"
       xlink:href="#linearGradient3529"
       id="linearGradient1575"
       gradientUnits="userSpaceOnUse"
       gradientTransform="matrix(1.8805388,-0.01714893,0.01714893,1.8805388,-161.15575,67.35303)"
       x1="55.922"
       y1="88.38"
       x2="81.77"
       y2="88.38"
       spreadMethod="reflect" />
    <linearGradient
       inkscape:collect="always"
       xlink:href="#linearGradient3586"
       id="linearGradient1577"
       gradientUnits="userSpaceOnUse"
       gradientTransform="matrix(1.8805388,-0.01714893,0.01714893,1.8805388,-160.98661,67.521344)"
       x1="55.922"
       y1="88.38"
       x2="81.77"
       y2="88.38"
       spreadMethod="reflect" />
    <linearGradient
       inkscape:collect="always"
       xlink:href="#linearGradient3561"
       id="linearGradient1587"
       gradientUnits="userSpaceOnUse"
       gradientTransform="matrix(1.8805388,-0.01714893,0.01714893,1.8805388,-160.86204,70.527123)"
       x1="55.922"
       y1="88.38"
       x2="81.77"
       y2="88.38"
       spreadMethod="reflect" />
    <linearGradient
       inkscape:collect="always"
       xlink:href="#linearGradient3529"
       id="linearGradient1589"
       gradientUnits="userSpaceOnUse"
       gradientTransform="matrix(1.8805388,-0.01714893,0.01714893,1.8805388,-161.15575,67.35303)"
       x1="55.922"
       y1="88.38"
       x2="81.77"
       y2="88.38"
       spreadMethod="reflect" />
    <linearGradient
       inkscape:collect="always"
       xlink:href="#linearGradient3586"
       id="linearGradient1591"
       gradientUnits="userSpaceOnUse"
       gradientTransform="matrix(1.8805388,-0.01714893,0.01714893,1.8805388,-160.98661,67.521344)"
       x1="55.922"
       y1="88.38"
       x2="81.77"
       y2="88.38"
       spreadMethod="reflect" />
    <linearGradient
       inkscape:collect="always"
       xlink:href="#linearGradient3561"
       id="linearGradient1593"
       gradientUnits="userSpaceOnUse"
       gradientTransform="matrix(1.8805388,-0.01714893,0.01714893,1.8805388,-160.86204,70.527123)"
       x1="55.922"
       y1="88.38"
       x2="81.77"
       y2="88.38"
       spreadMethod="reflect" />
    <linearGradient
       inkscape:collect="always"
       xlink:href="#linearGradient3529"
       id="linearGradient1595"
       gradientUnits="userSpaceOnUse"
       gradientTransform="matrix(1.8805388,-0.01714893,0.01714893,1.8805388,-161.15575,67.35303)"
       x1="55.922"
       y1="88.38"
       x2="81.77"
       y2="88.38"
       spreadMethod="reflect" />
    <linearGradient
       inkscape:collect="always"
       xlink:href="#linearGradient3586"
       id="linearGradient1597"
       gradientUnits="userSpaceOnUse"
       gradientTransform="matrix(1.8805388,-0.01714893,0.01714893,1.8805388,-160.98661,67.521344)"
       x1="55.922"
       y1="88.38"
       x2="81.77"
       y2="88.38"
       spreadMethod="reflect" />
    <radialGradient
       gradientUnits="userSpaceOnUse"
       gradientTransform="matrix(1,0,0,0.28816436,0,168.98395)"
       r="65.308388"
       fy="231.26169"
       fx="180.11246"
       cy="231.26169"
       cx="180.11246"
       id="radialGradient931"
       xlink:href="#linearGradient929"
       inkscape:collect="always" />
    <filter
       height="1.0282321"
       y="-0.014116029"
       width="1.0193981"
       x="-0.0096990461"
       id="filter941"
       style="color-interpolation-filters:sRGB"
       inkscape:collect="always">
      <feGaussianBlur
         id="feGaussianBlur943"
         stdDeviation="0.96895306"
         inkscape:collect="always" />
    </filter>
  </defs>
  <sodipodi:namedview
     inkscape:window-height="1056"
     inkscape:window-width="1920"
     inkscape:pageshadow="2"
     inkscape:pageopacity="0.0"
     guidetolerance="10.0"
     gridtolerance="10.0"
     objecttolerance="10.0"
     borderopacity="1.0"
     bordercolor="#666666"
     pagecolor="#ffffff"
     id="base"
     showgrid="false"
     inkscape:zoom="3.4375"
     inkscape:cx="126.16616"
     inkscape:cy="131.48406"
     inkscape:window-x="0"
     inkscape:window-y="0"
     inkscape:current-layer="svg2"
     inkscape:window-maximized="1"
     inkscape:document-rotation="0" />
  <rect
     style="fill:#000000;fill-opacity:0.78249061;stroke:none;filter:url(#filter941)"
     ry="12.359"
     y="44.091816"
     x="4.1899085"
     height="164.74091"
     width="239.76454"
     id="rect935"
     stroke-dasharray="none"
     stroke-opacity="0.633"
     fill="#a2a2a2"
     stroke="#5c5c5c"
     stroke-linejoin="round"
     fill-opacity="1"
     stroke-linecap="round"
     stroke-width="4"
     stroke-miterlimit="4"
     rx="12.359" />
  <ellipse
     ry="18.81955"
     rx="65.308388"
     cy="235.62532"
     cx="180.11246"
     id="path923"
     style="fill:url(#radialGradient931);fill-opacity:1;stroke-width:1.505;stroke-linecap:round;stroke-linejoin:round;stroke-opacity:0.665011" />
  <rect
     rx="12.359"
     stroke-miterlimit="4"
     stroke-width="4"
     stroke-linecap="round"
     fill-opacity="1"
     stroke-linejoin="round"
     stroke="#5c5c5c"
     fill="#a2a2a2"
     stroke-opacity="0.633"
     stroke-dasharray="none"
     id="rect2603"
     width="235.11"
     height="161.25"
     x="10.299"
     y="40.31"
     ry="12.359" />
  <rect
     stroke-miterlimit="4"
     stroke-width="4"
     stroke-linecap="round"
     fill-opacity="1"
     stroke-linejoin="round"
     stroke="none"
     fill="#000000"
     stroke-opacity="0.633"
     stroke-dasharray="none"
     id="rect3375"
     width="233.05"
     height="36.487"
     x="11.476"
     y="152.13" />
  <rect
     rx="8.879"
     fill-opacity="1"
     stroke="none"
     fill="#8be192"
     id="rect3377"
     width="144.48"
     height="42.37"
     x="22.363"
     y="77.09"
     ry="8.879" />
  <path
     font-size="28px"
     font-variant="normal"
     font-stretch="normal"
     stroke-width="1"
     stroke-linecap="butt"
     font-weight="bold"
     fill-opacity="1"
     stroke-linejoin="miter"
     font-style="normal"
     stroke="none"
     fill="#000000"
     font-family="Arial"
     stroke-opacity="1"
     d="m 27.74997,139.92139 2.336456,-0.3737 c 0.06675,0.81613 0.264238,1.46473 0.592458,1.94582 0.328213,0.47249 0.706495,0.70873 1.13485,0.70873 0.489538,0 0.90398,-0.30496 1.243328,-0.91491 0.339336,-0.61854 0.509007,-1.54634 0.509014,-2.78342 -7e-6,-1.15974 -0.169678,-2.02741 -0.509014,-2.603 -0.333785,-0.58416 -0.770479,-0.87624 -1.310084,-0.87625 -0.673126,10e-6 -1.276709,0.45961 -1.810753,1.37882 l -1.902542,-0.42525 1.201605,-9.83214 h 6.199952 v 3.38907 h -4.422577 l -0.367157,3.20864 c 0.522917,-0.40375 1.056964,-0.60563 1.602141,-0.60564 1.040273,1e-5 1.922006,0.58418 2.645202,1.75251 0.72318,1.16835 1.084774,2.68463 1.084783,4.54881 -9e-6,1.55494 -0.292066,2.94235 -0.876171,4.16223 -0.795515,1.66661 -1.899768,2.49991 -3.312761,2.49991 -1.12929,0 -2.049964,-0.46819 -2.762024,-1.40458 -0.712064,-0.9364 -1.137632,-2.19494 -1.276706,-3.77565 m 14.077146,4.85809 v -3.80142 h -5.006691 v -3.17 l 5.307092,-11.997 h 1.969298 v 11.98412 h 1.518697 v 3.18288 h -1.518697 v 3.80142 h -2.269699 m 0,-6.9843 v -6.45596 l -2.812092,6.45596 h 2.812092 m 9.512712,6.9843 v -3.80142 h -5.00669 v -3.17 l 5.307092,-11.997 h 1.969298 v 11.98412 h 1.518696 v 3.18288 h -1.518696 v 3.80142 h -2.2697 m 0,-6.9843 v -6.45596 l -2.812091,6.45596 h 2.812091 m 4.948279,2.12621 2.336456,-0.3737 c 0.06675,0.81613 0.264239,1.46473 0.592459,1.94582 0.328212,0.47249 0.706495,0.70873 1.13485,0.70873 0.489537,0 0.90398,-0.30496 1.243328,-0.91491 0.339336,-0.61854 0.509007,-1.54634 0.509013,-2.78342 -6e-6,-1.15974 -0.169677,-2.02741 -0.509013,-2.603 -0.333785,-0.58416 -0.77048,-0.87624 -1.310084,-0.87625 -0.673126,10e-6 -1.27671,0.45961 -1.810753,1.37882 l -1.902543,-0.42525 1.201606,-9.83214 h 6.199952 v 3.38907 h -4.422577 l -0.367157,3.20864 c 0.522917,-0.40375 1.056963,-0.60563 1.602141,-0.60564 1.040273,1e-5 1.922006,0.58418 2.645201,1.75251 0.723181,1.16835 1.084774,2.68463 1.084783,4.54881 -9e-6,1.55494 -0.292065,2.94235 -0.87617,4.16223 -0.795515,1.66661 -1.899767,2.49991 -3.312761,2.49991 -1.12929,0 -2.049965,-0.46819 -2.762024,-1.40458 -0.712064,-0.9364 -1.137632,-2.19494 -1.276707,-3.77565 m 9.529402,0.48968 2.2697,-0.38659 c 0.05563,0.71304 0.200264,1.24137 0.433913,1.58499 0.233642,0.34364 0.542387,0.51546 0.926238,0.51546 0.483975,0 0.895636,-0.34363 1.234984,-1.0309 0.339336,-0.68725 0.556293,-2.11332 0.65087,-4.2782 -0.589683,1.05667 -1.326778,1.585 -2.211289,1.585 -0.9624,0 -1.794067,-0.57129 -2.495001,-1.71386 -0.695375,-1.15116 -1.043061,-2.64595 -1.04306,-4.48438 -1e-6,-1.91573 0.367156,-3.45777 1.101472,-4.62613 0.739875,-1.17692 1.680019,-1.76538 2.820435,-1.7654 1.240541,2e-5 2.258567,0.74312 3.054082,2.2293 0.795499,1.47762 1.193253,3.91311 1.193261,7.30645 -8e-6,3.45349 -0.414451,5.94482 -1.243328,7.47397 -0.828892,1.52916 -1.908111,2.29373 -3.23766,2.29373 -0.956838,0 -1.730093,-0.39088 -2.319767,-1.17264 -0.589678,-0.79035 -0.967961,-1.96728 -1.13485,-3.5308 m 5.307092,-7.9121 c -6e-6,-1.16833 -0.17524,-2.07466 -0.525702,-2.71898 -0.344911,-0.64429 -0.745446,-0.96644 -1.201606,-0.96646 -0.433917,2e-5 -0.795511,0.26633 -1.084783,0.79894 -0.283715,0.52405 -0.425571,1.38742 -0.425568,2.59012 -3e-6,1.2199 0.15576,2.11763 0.467291,2.69321 0.311523,0.56699 0.700932,0.85049 1.168227,0.85048 0.450597,10e-6 0.82888,-0.2749 1.13485,-0.82472 0.311522,-0.54979 0.467285,-1.35732 0.467291,-2.42259 m 6.166576,2.08755 c -0.606372,-0.39516 -1.048624,-0.93638 -1.326774,-1.62365 -0.272588,-0.69584 -0.408881,-1.45612 -0.40888,-2.28085 -10e-7,-1.40887 0.317091,-2.57292 0.95127,-3.49214 0.63974,-0.9192 1.546509,-1.3788 2.720301,-1.37882 1.16266,2e-5 2.063863,0.45962 2.703615,1.37882 0.6453,0.91922 0.96795,2.08327 0.967962,3.49214 -1.2e-5,0.87628 -0.147428,1.65803 -0.442258,2.34529 -0.294849,0.67867 -0.709288,1.19841 -1.243329,1.55921 0.678679,0.42097 1.19325,1.0352 1.543732,1.84272 0.356023,0.80755 0.534034,1.73964 0.534047,2.7963 -1.3e-5,1.74393 -0.361608,3.16141 -1.084787,4.25243 -0.717631,1.09103 -1.674466,1.63654 -2.8705,1.63654 -1.112606,0 -2.038839,-0.45101 -2.778717,-1.35304 -0.873389,-1.06526 -1.310083,-2.52569 -1.310082,-4.3813 -10e-7,-1.02229 0.164107,-1.95869 0.492324,-2.80918 0.328217,-0.85907 0.845571,-1.52055 1.552076,-1.98447 m 0.483981,-3.64678 c -6e-6,0.72164 0.130722,1.28433 0.392186,1.68809 0.267023,0.40377 0.620269,0.60566 1.05975,0.60565 0.445036,1e-5 0.801065,-0.20188 1.068094,-0.60565 0.267018,-0.41234 0.40053,-0.97933 0.400536,-1.70097 -6e-6,-0.67866 -0.133518,-1.21988 -0.400536,-1.62366 -0.261463,-0.41234 -0.609149,-0.61852 -1.043057,-0.61854 -0.450608,2e-5 -0.80942,0.2062 -1.076438,0.61854 -0.267029,0.41238 -0.400541,0.95788 -0.400535,1.63654 m -0.216957,8.09251 c -7e-6,0.99654 0.164102,1.77399 0.492324,2.33239 0.333776,0.55841 0.748215,0.8376 1.243328,0.8376 0.483975,0 0.88451,-0.26631 1.201606,-0.79894 0.317084,-0.54121 0.475625,-1.31868 0.475632,-2.3324 -7e-6,-0.88484 -0.161331,-1.59357 -0.483975,-2.1262 -0.322662,-0.54121 -0.731541,-0.81182 -1.226642,-0.81183 -0.572993,1e-5 -1.001341,0.30497 -1.285052,0.91491 -0.27815,0.60995 -0.417228,1.27145 -0.417221,1.98447 m 7.234664,-9.52287 v -3.36329 h 8.019055 v 2.62878 c -0.662005,1.00514 -1.33513,2.44839 -2.019369,4.32975 -0.684252,1.88139 -1.207172,3.88304 -1.568762,6.00494 -0.356035,2.11334 -0.53127,4.00331 -0.525703,5.66992 h -2.261357 c 0.03894,-2.6116 0.386626,-5.27473 1.043064,-7.98943 0.661993,-2.71466 1.543726,-5.14155 2.645199,-7.28067 h -5.332127 m 9.429269,10.25738 2.2697,-0.42525 c 0.07232,0.89345 0.267023,1.57641 0.584113,2.0489 0.31709,0.4725 0.700932,0.70875 1.151539,0.70875 0.483975,0 0.890077,-0.2835 1.218299,-0.8505 0.33377,-0.56698 0.500662,-1.33155 0.500668,-2.29373 -6e-6,-0.91061 -0.158554,-1.63224 -0.475638,-2.16488 -0.317096,-0.53261 -0.703721,-0.79892 -1.159883,-0.79893 -0.300403,1e-5 -0.659215,0.0902 -1.076437,0.27061 l 0.25868,-2.95093 c 0.634173,0.0258 1.118154,-0.18469 1.451936,-0.63143 0.333777,-0.4553 0.500668,-1.05665 0.500674,-1.80406 -6e-6,-0.6357 -0.122391,-1.14255 -0.367162,-1.52056 -0.244776,-0.37798 -0.570209,-0.56697 -0.976305,-0.56699 -0.400535,2e-5 -0.742661,0.21478 -1.026371,0.6443 -0.283716,0.42956 -0.456168,1.05668 -0.517354,1.88139 l -2.161225,-0.567 c 0.150199,-1.14256 0.3755,-2.05318 0.675903,-2.73186 0.305963,-0.68724 0.728751,-1.22417 1.268364,-1.61077 0.545168,-0.39516 1.154317,-0.59274 1.827442,-0.59276 1.151534,2e-5 2.074993,0.56701 2.770373,1.70096 0.57298,0.92782 0.85947,1.9759 0.85948,3.14423 -1e-5,1.65803 -0.5869,2.981 -1.76069,3.96894 0.70093,0.23195 1.26001,0.75169 1.67725,1.55921 0.42277,0.80754 0.63417,1.7826 0.63418,2.92516 -1e-5,1.65803 -0.3922,3.07121 -1.17658,4.23955 -0.78439,1.16834 -1.76069,1.75251 -2.928911,1.75251 -1.10704,0 -2.024935,-0.48967 -2.75368,-1.46901 -0.728758,-0.98794 -1.15154,-2.27655 -1.268365,-3.86585 m 17.515086,1.64943 v 3.36329 h -8.21933 c 0.089,-1.27144 0.35603,-2.47414 0.80107,-3.60813 0.44504,-1.14256 1.324,-2.65454 2.63686,-4.53593 1.05697,-1.52055 1.70505,-2.55144 1.94427,-3.09267 0.32265,-0.74739 0.48397,-1.48619 0.48398,-2.21642 -10e-6,-0.80752 -0.14186,-1.42606 -0.42557,-1.85561 -0.27815,-0.43811 -0.66478,-0.65717 -1.15988,-0.65719 -0.48955,2e-5 -0.87896,0.22767 -1.16823,0.68296 -0.28928,0.45533 -0.45617,1.21131 -0.50067,2.26797 l -2.33646,-0.36081 c 0.13908,-1.99305 0.57577,-3.4234 1.31009,-4.2911 0.73431,-0.86764 1.6522,-1.30147 2.75368,-1.30149 1.20716,2e-5 2.15565,0.50258 2.84547,1.50767 0.6898,1.00514 1.0347,2.2551 1.03472,3.74988 -2e-5,0.8505 -0.10015,1.66232 -0.30041,2.43547 -0.19471,0.76459 -0.50624,1.56784 -0.93458,2.40972 -0.28372,0.55841 -0.79552,1.36164 -1.53538,2.40971 -0.73989,1.04808 -1.20996,1.74393 -1.41022,2.08756 -0.19471,0.34363 -0.35325,0.67868 -0.47564,1.00512 h 4.65623 m 7.59347,3.36329 h -2.34479 v -13.64644 c -0.85671,1.23708 -1.86639,2.15199 -3.02905,2.74475 v -3.28597 c 0.61193,-0.30926 1.2767,-0.89343 1.99433,-1.75251 0.71762,-0.86766 1.20995,-1.87707 1.47698,-3.02825 h 1.90253 v 18.96842 m 5.52406,-10.19296 c -0.60637,-0.39516 -1.04863,-0.93638 -1.32678,-1.62365 -0.27259,-0.69584 -0.40888,-1.45612 -0.40888,-2.28085 0,-1.40887 0.31709,-2.57292 0.95127,-3.49214 0.63974,-0.9192 1.54651,-1.3788 2.7203,-1.37882 1.16266,2e-5 2.06387,0.45962 2.70362,1.37882 0.6453,0.91922 0.96795,2.08327 0.96796,3.49214 -1e-5,0.87628 -0.14743,1.65803 -0.44226,2.34529 -0.29485,0.67867 -0.70929,1.19841 -1.24333,1.55921 0.67868,0.42097 1.19325,1.0352 1.54373,1.84272 0.35602,0.80755 0.53404,1.73964 0.53405,2.7963 -1e-5,1.74393 -0.3616,3.16141 -1.08478,4.25243 -0.71763,1.09103 -1.67447,1.63654 -2.87051,1.63654 -1.1126,0 -2.03883,-0.45101 -2.77871,-1.35304 -0.87339,-1.06526 -1.31009,-2.52569 -1.31008,-4.3813 -1e-5,-1.02229 0.1641,-1.95869 0.49232,-2.80918 0.32821,-0.85907 0.84557,-1.52055 1.55208,-1.98447 m 0.48397,-3.64678 c 0,0.72164 0.13073,1.28433 0.39219,1.68809 0.26703,0.40377 0.62027,0.60566 1.05975,0.60565 0.44504,1e-5 0.80107,-0.20188 1.0681,-0.60565 0.26702,-0.41234 0.40053,-0.97933 0.40053,-1.70097 0,-0.67866 -0.13351,-1.21988 -0.40053,-1.62366 -0.26146,-0.41234 -0.60915,-0.61852 -1.04306,-0.61854 -0.45061,2e-5 -0.80942,0.2062 -1.07644,0.61854 -0.26703,0.41238 -0.40054,0.95788 -0.40054,1.63654 m -0.21695,8.09251 c -1e-5,0.99654 0.1641,1.77399 0.49233,2.33239 0.33377,0.55841 0.74821,0.8376 1.24332,0.8376 0.48398,0 0.88451,-0.26631 1.20161,-0.79894 0.31708,-0.54121 0.47562,-1.31868 0.47563,-2.3324 -1e-5,-0.88484 -0.16133,-1.59357 -0.48398,-2.1262 -0.32266,-0.54121 -0.73153,-0.81182 -1.22664,-0.81183 -0.57299,1e-5 -1.00134,0.30497 -1.28505,0.91491 -0.27815,0.60995 -0.41723,1.27145 -0.41722,1.98447 m 11.83247,5.74723 v -3.80142 h -5.00668 v -3.17 l 5.30709,-11.997 h 1.96929 v 11.98412 h 1.51871 v 3.18288 h -1.51871 v 3.80142 h -2.2697 m 0,-6.9843 v -6.45596 l -2.81209,6.45596 h 2.81209 m 4.91491,-8.2858 v -3.36329 h 8.01905 v 2.62878 c -0.66201,1.00514 -1.33513,2.44839 -2.01936,4.32975 -0.68426,1.88139 -1.20718,3.88304 -1.56877,6.00494 -0.35604,2.11334 -0.53127,4.00331 -0.5257,5.66992 h -2.26136 c 0.0389,-2.6116 0.38663,-5.27473 1.04306,-7.98943 0.66199,-2.71466 1.54373,-5.14155 2.64521,-7.28067 h -5.33213"
     id="text3384"
     inkscape:connector-curvature="0" />
  <rect
     stroke-miterlimit="4"
     stroke-width="4"
     stroke-linecap="round"
     fill-opacity="1"
     stroke-linejoin="round"
     stroke="none"
     fill="url(#linearGradient3397)"
     stroke-opacity="0.633"
     stroke-dasharray="none"
     id="rect3389"
     width="47.669"
     height="45.31"
     x="185.09"
     y="54.731" />
  <g
     font-size="31.33"
     font-variant="normal"
     letter-spacing="0"
     font-stretch="normal"
     stroke-width="1"
     stroke-linecap="butt"
     font-weight="normal"
     fill-opacity="1"
     line-height="125%"
     stroke-linejoin="miter"
     word-spacing="0"
     font-style="normal"
     stroke="none"
     fill="#000000"
     font-family="Blackletter"
     stroke-opacity="1"
     transform="scale(0.8710929,1.1479832)"
     id="text4528">
    <path
       d="m 48.510631,75.545873 q -2.913895,0.156661 -2.913895,4.292513 l 0,10.151636 q 0,3.321214 2.099258,5.420472 l -0.626645,0.501316 q -2.788566,-2.600574 -6.047116,-2.600574 -3.759865,0 -5.514469,3.477876 -1.347285,-2.099258 -3.321215,-2.099258 -0.908634,0 -1.691939,0.501315 -0.908634,0.56398 -0.908634,1.409949 0,0.971299 0.751973,1.378618 0.250658,0.125329 0.250658,0.250657 0,0.187994 -0.28199,0.187994 -0.783305,0 -1.221956,-0.84597 -0.375987,-0.689309 -0.375987,-1.535278 0,-3.321215 4.229849,-3.979191 l 0,-7.551063 q -1.159292,0.03133 -1.40995,0.56398 -0.094,0.187993 -0.094,1.56661 l -0.908634,0 0,-5.859123 0.908634,0 0,0.407319 q 0,0.657976 0.187994,0.971298 0.219325,0.28199 1.033963,0.28199 l 0.28199,0 0,-1.942597 q 0,-1.378617 -0.375987,-2.036593 -0.438651,-0.814638 -1.660607,-1.190624 l 0,-0.626645 q 3.039224,-0.626644 4.386509,-4.292513 0.971299,3.415211 4.731164,4.261181 l 0,0.657977 q -1.347285,0.43865 -1.879933,1.159291 -0.532647,0.689309 -0.532647,2.067926 l 0,4.167184 q 0,1.033963 0,2.41258 -0.03133,1.378618 -0.03133,1.723272 0,2.036594 0.469983,2.851231 0.626644,1.065295 2.506577,1.065295 l 0.532647,0 0,-14.287488 q 0,-2.788566 -1.597942,-4.668499 -1.597943,-1.911265 -4.355178,-1.911265 -2.224587,0 -3.853862,1.159292 -1.817268,1.284621 -1.817268,3.415211 0,1.629275 1.284621,2.255919 0.814637,0.375987 0.814637,0.595312 0,0.125329 -0.219325,0.125329 -1.221956,0 -2.036594,-0.939966 -0.783305,-0.971299 -0.783305,-2.287252 0,-2.443912 2.506577,-4.010523 2.193254,-1.347285 4.762496,-1.347285 2.537909,0 4.511838,1.065295 1.12796,0.689309 3.446543,1.97393 2.036594,1.096627 4.762496,1.033963 l 0,0.657976 z"
       id="path4533" />
    <path
       d="m 60.364977,93.123243 q -1.597943,0.156661 -3.164554,1.221956 -1.535278,1.065295 -2.349915,2.506577 -0.783306,-1.378617 -2.600574,-2.443912 -1.629275,-0.971299 -3.383879,-1.284621 1.785936,-0.814637 1.785936,-2.69457 l 0,-4.010523 q 0,-2.443912 -1.911265,-3.509208 2.443913,0 4.543171,-0.877301 2.318584,-0.971299 3.603204,-2.819899 0.751973,1.441281 1.378617,2.193254 0.783306,0.908634 2.099259,1.503946 -0.783306,0.689309 -1.190624,2.287252 -0.438651,1.754604 -1.002631,2.381248 -1.096628,1.253288 -3.916526,1.973929 l -0.03133,0.532648 q -0.125329,2.099258 2.161923,2.757234 1.159292,0.313322 3.979191,0.28199 z m -3.383879,-6.955751 q 0,-0.908634 -0.939966,-2.193254 -0.939967,-1.315953 -1.785936,-1.315953 l 0,6.172445 q 1.065295,-0.219325 1.879932,-0.908634 0.84597,-0.689309 0.84597,-1.754604 z"
       id="path4535" />
    <path
       d="m 72.171343,75.420544 q -2.506577,1.096627 -2.631905,4.449174 l -0.219326,5.38914 -0.56398,0 -0.094,-2.443912 -2.005262,0 0,6.924418 q 0,3.195886 3.853862,3.195886 0.407319,0 0.971299,-0.06266 l 0,0.250658 q -1.817269,0 -3.415211,1.033963 -1.597943,1.033963 -2.381248,2.69457 -0.626645,-1.315953 -1.911265,-2.381248 -1.284621,-1.065295 -2.725902,-1.441282 0.939966,-0.187993 1.472613,-1.221956 0.438651,-0.845969 0.438651,-1.942597 l 0,-7.049747 -2.161922,0 0,-1.12796 2.161922,0 0,-0.814637 q 0.03133,-0.344655 0.03133,-0.814638 0,-3.383878 -2.25592,-4.386509 2.036594,0 3.697201,-0.971299 1.879933,-1.065295 2.349916,-2.913895 1.472614,2.725902 5.38914,3.634536 z m -3.571872,6.266442 q 0,-0.814637 -0.06266,-1.817268 -0.125329,-1.754604 -1.503946,-3.164553 -1.378618,-1.441282 -3.101889,-1.40995 1.879933,1.253289 2.381248,2.725903 0.344654,1.00263 0.344654,3.665868 l 1.942597,0 z"
       id="path4537" />
    <path
       d="m 85.924716,93.248572 q -1.315953,0.720641 -2.005261,1.503946 -0.56398,0.626644 -1.315953,2.099258 -1.754604,-3.164553 -3.446543,-3.164553 -1.723272,0 -3.477876,3.164553 -0.908634,-1.691939 -1.221956,-2.099258 -0.689309,-0.84597 -1.911265,-1.503946 1.629275,-0.501315 1.629275,-2.945228 0,-1.723271 -0.939966,-2.600573 1.002631,0.469983 1.785936,0.469983 0.939966,0 2.099258,-0.84597 1.159292,-0.84597 1.754604,-0.84597 0.814637,0 1.785936,0.877302 l 0,-2.193254 q 0,-0.689309 -0.469983,-1.253289 -0.438651,-0.595312 -1.065296,-0.595312 -1.691939,0 -3.446543,3.164553 -0.877302,-1.629275 -1.221956,-2.067925 -0.626644,-0.814638 -1.911265,-1.472614 1.378617,-0.657977 1.973929,-1.503946 0.375987,-0.532648 1.159292,-2.224587 1.629275,3.509207 3.477876,3.509207 1.817268,0 3.446543,-3.509207 0.689308,1.535278 1.253288,2.224587 0.689309,0.783305 2.067926,1.503946 -0.751973,0.344654 -1.221956,1.127959 -0.469983,0.783305 -0.469983,1.629275 l 0,4.229849 q 0,1.347285 0.250657,1.973929 0.313323,0.814637 1.441282,1.347285 z m -5.263811,-2.663238 0,-1.973929 q -0.501316,-1.315953 -1.597943,-1.315953 -1.409949,0 -1.409949,2.851231 0,1.347285 0.156661,1.879933 0.313322,1.033963 1.315952,1.033963 1.535279,0 1.535279,-2.475245 z"
       id="path4539" />
    <path
       d="m 100.12506,93.311236 q -1.441281,0.689309 -2.036593,1.378618 -0.595312,0.657976 -1.315953,2.161922 -1.691939,-3.446543 -3.415211,-3.446543 -1.723271,0 -3.41521,3.446543 -0.814638,-1.691939 -1.253289,-2.161922 -0.626644,-0.689309 -2.067926,-1.378618 0.720641,-0.375986 1.190624,-1.190624 0.469983,-0.845969 0.469983,-1.691939 l 0,-4.198516 q 0,-1.347285 -0.250657,-1.879933 -0.313322,-0.689309 -1.40995,-1.221956 2.255919,-1.253289 3.352547,-3.885194 1.065295,2.663238 3.321214,3.885194 -1.096627,0.532647 -1.409949,1.221956 -0.250658,0.532648 -0.250658,1.879933 l 0,4.198516 q 0,0.814637 0.469983,1.441282 0.469983,0.626644 1.253288,0.626644 0.783306,0 1.253289,-0.595312 0.469983,-0.595312 0.469983,-1.472614 l 0,-4.198516 q 0,-1.40995 -0.219325,-1.879933 -0.313323,-0.689309 -1.40995,-1.221956 2.255919,-1.253289 3.321214,-3.885194 1.065296,2.663238 3.352546,3.885194 -1.096626,0.532647 -1.409949,1.221956 -0.250657,0.532648 -0.250657,1.879933 l 0,4.198516 q 0,0.84597 0.469983,1.691939 0.469983,0.814638 1.190623,1.190624 z"
       id="path4541" />
    <path
       d="m 109.08852,72.287323 q -1.34729,0.375987 -2.09926,2.349916 -0.59531,1.535278 -0.59531,3.25855 l 0,11.780911 q 0,1.378617 0.28199,2.005261 0.37599,0.783306 1.47261,1.315953 -1.25329,0.689309 -2.09925,1.629275 -0.56398,0.626644 -1.47262,2.224587 -0.7833,-1.441282 -1.47261,-2.224587 -0.81464,-0.939966 -2.13059,-1.629275 1.12796,-0.501315 1.44128,-1.315953 0.25066,-0.626644 0.25066,-2.005261 l 0,-3.54054 q 0,-2.663238 -1.72328,-3.634536 1.1593,-0.689309 1.50395,-1.566611 0.25066,-0.657976 0.25066,-2.161922 0,-2.882564 -1.81727,-3.477876 0.21933,0.03133 0.59531,0.03133 1.59795,0 3.85386,-1.597942 2.38125,-1.69194 3.75987,-1.942597 l 0,0.501315 z"
       id="path4543" />
    <path
       d="m 117.29609,85.57218 -0.68931,0 0,-0.563979 q 0.0313,-0.250658 0.0313,-0.56398 0,-1.12796 -0.43865,-1.503946 -0.40732,-0.375987 -1.59794,-0.375987 l 0,7.112412 q 0,2.913895 1.78594,3.759865 -1.47262,0.814638 -2.09926,1.378617 -0.72064,0.689309 -1.47262,2.036594 -0.84597,-1.472614 -1.47261,-2.067926 -0.43865,-0.438651 -2.13059,-1.347285 1.0653,-0.501315 1.44128,-1.56661 0.25066,-0.720641 0.25066,-2.193255 l 0,-7.112412 -2.13059,0 0,-1.409949 2.13059,0 0,-3.25855 q 0,-0.84597 -0.8773,-1.597943 -0.094,-0.094 -0.9713,-0.783305 l 0.0313,-0.03133 q 0.75197,-0.094 2.13059,-0.469984 0.72064,-0.250657 2.85123,-1.817268 1.62928,-1.190624 3.16456,-1.409949 l -0.0313,0.407318 q -2.60057,0.814638 -2.60057,5.671131 l 0,3.289882 q 1.47261,0 1.78594,-0.407319 0.21932,-0.28199 0.21932,-1.817268 l 0.68931,0 0,6.642428 z"
       id="path4545" />
    <path
       d="m 141.60695,95.723817 -0.25066,0 q -0.18799,0 -0.43865,-0.094 l 0,-19.958618 0.68931,0 0,20.052615 z m 7.86439,-20.804588 q -1.47262,0.250657 -2.22459,1.723271 -0.62665,1.190624 -0.62665,2.851231 l 0,4.229849 q 0,5.702462 2.60058,7.551063 -0.59531,2.945227 -2.94523,4.637167 -2.22459,1.629275 -5.29514,1.629275 -2.28726,0 -3.6972,-1.159292 -0.9713,-0.783305 -2.38125,-2.099258 -1.53528,-1.096628 -4.04186,-1.033963 l 0,-0.689309 q 2.0366,-0.06266 2.66324,-1.409949 0.43865,-0.971299 0.43865,-3.164553 l 0,-3.477876 q -0.15666,-0.03133 -0.46998,-0.03133 -1.59795,0 -1.59795,1.535278 0,0.407319 0.0313,0.751973 l -0.81464,0 0,-6.391771 0.81464,0 q -0.0313,0.532648 -0.0313,0.939967 0,1.127959 2.06793,1.096627 l 0,-7.206408 q 0,-1.347285 -0.72064,-2.130591 -0.72064,-0.814637 -2.00526,-0.814637 -0.93997,0 -1.69194,0.657976 -0.72064,0.626644 -0.72064,1.472614 0,0.657977 0.53265,1.253289 0.56398,0.595312 0.56398,0.595312 0,0.187993 -0.25066,0.187993 -0.68931,0 -1.19063,-0.626644 -0.46998,-0.626645 -0.46998,-1.315953 0,-1.754604 1.69194,-2.725903 1.44128,-0.814637 3.25855,-0.814637 1.53528,0 2.56924,0.877302 0.62665,0.532647 1.91127,1.629275 1.34728,0.84597 3.72853,0.783305 l 0,0.689309 q -2.38125,-0.125329 -2.38125,4.167184 l 0,10.402294 q 0,5.326475 1.25329,6.329106 0.62664,0.501316 1.78594,0.501316 l 0.21932,0 q 1.7546,0 2.50658,-1.347286 0.53265,-0.908634 0.72064,-2.913895 0.15666,-1.660607 0.15666,-3.571872 l 0,-8.92968 q 0,-4.198516 -2.94523,-4.637167 l 0,-0.689309 q 3.10189,-0.313322 3.50921,-3.133221 0.40732,1.597943 1.09663,2.193255 0.68931,0.56398 2.38125,0.939966 l 0,0.689309 z"
       id="path4547" />
    <path
       d="m 163.64916,93.49923 q -5.20115,0 -8.02105,3.352546 -1.56661,-1.8486 -3.16455,-1.8486 -1.53528,0 -2.25592,1.8486 l -0.18799,0 q 0.15666,-2.255919 1.03396,-3.227218 0.46998,-0.501315 1.8486,-1.159291 1.37862,-0.657977 1.9426,-1.40995 0.43865,0.751973 1.44128,1.660607 1.09663,1.002631 1.8486,1.002631 0.50132,0 0.50132,-0.595312 l 0,-2.819899 q 0,-2.099258 -2.69457,-2.099258 -2.69457,0 -3.9792,1.879933 l 0,-3.54054 q 0,-2.41258 -1.72327,-3.383879 2.34992,0 4.69983,-1.002631 2.53791,-1.096627 3.72854,-2.913895 1.50394,2.851231 4.44917,3.916526 l -0.21932,0 q -1.34729,0 -2.31859,0.877302 -0.9713,0.84597 -1.22195,2.224587 -0.43865,-1.190624 -1.31596,-2.287251 -1.09662,-1.378618 -2.09925,-1.378618 -0.50132,0 -0.50132,0.56398 0,2.193255 0.34465,3.039225 0.59532,1.472613 2.44392,1.472613 2.22458,0 3.91652,-1.942597 l 0,4.605835 q 0,2.255919 1.50395,3.164554 z"
       id="path4549" />
    <path
       d="m 175.78011,93.123243 q -1.59794,0.156661 -3.16455,1.221956 -1.53528,1.065295 -2.34992,2.506577 -0.7833,-1.378617 -2.60057,-2.443912 -1.62927,-0.971299 -3.38388,-1.284621 1.78594,-0.814637 1.78594,-2.69457 l 0,-4.010523 q 0,-2.443912 -1.91127,-3.509208 2.44392,0 4.54317,-0.877301 2.31859,-0.971299 3.60321,-2.819899 0.75197,1.441281 1.37861,2.193254 0.78331,0.908634 2.09926,1.503946 -0.7833,0.689309 -1.19062,2.287252 -0.43865,1.754604 -1.00263,2.381248 -1.09663,1.253288 -3.91653,1.973929 l -0.0313,0.532648 q -0.12533,2.099258 2.16192,2.757234 1.15929,0.313322 3.97919,0.28199 z m -3.38388,-6.955751 q 0,-0.908634 -0.93996,-2.193254 -0.93997,-1.315953 -1.78594,-1.315953 l 0,6.172445 q 1.0653,-0.219325 1.87993,-0.908634 0.84597,-0.689309 0.84597,-1.754604 z"
       id="path4551" />
    <path
       d="m 188.33845,83.1596 q -1.12796,0.501315 -1.91127,2.600574 -0.56398,1.503946 -0.81464,3.289882 l -0.0313,0 q -0.094,-1.441282 -0.84597,-3.25855 -0.93996,-2.255919 -2.03659,-2.255919 -0.93997,0 -0.93997,1.535278 l 0,6.360439 q 1.40995,1.597942 2.69457,1.911265 0.65798,0.156661 3.32122,0.156661 -1.75461,0.563979 -2.94523,1.315952 -0.93997,0.595312 -2.47525,2.036594 -0.6893,-1.253288 -2.69457,-2.287251 -1.97392,-1.065295 -3.47787,-1.065295 0.72064,-0.06266 1.34728,-1.40995 0.56398,-1.221956 0.56398,-2.067926 l 0,-3.54054 q 0,-2.224587 -1.94259,-3.321214 2.03659,0 3.6032,-3.916526 1.22196,3.227217 2.8199,3.227217 1.59794,0 2.94523,-3.227217 l 1.00263,2.287251 q 0.62664,1.096628 1.81727,1.629275 z"
       id="path4553" />
  </g>
  <g
     id="g1643"
     transform="translate(232.73948,-3.9483842)">
    <rect
       stroke-miterlimit="4"
       stroke-width="2.257"
       stroke-linecap="round"
       fill-opacity="1"
       stroke-linejoin="round"
       stroke="url(#linearGradient3958)"
       fill="url(#linearGradient3956)"
       stroke-opacity="1"
       stroke-dasharray="none"
       transform="rotate(-0.52247462)"
       id="rect3919"
       width="110.37"
       height="143"
       x="-109.36"
       y="107.47"
       ry="21.655"
       rx="55.18" />
    <g
       transform="translate(1.1636364,51.391531)"
       id="g1275">
      <path
         stroke-miterlimit="4"
         stroke-width="2.257"
         stroke-linecap="round"
         fill-opacity="1"
         stroke-linejoin="round"
         stroke="url(#linearGradient3927)"
         fill="none"
         stroke-opacity="1"
         stroke-dasharray="none"
         id="rect3895"
         d="m 3.4519822,140.54235 0.05765,6.32211 c 0.109397,11.99617 -24.7325272,21.88107 -55.6993802,22.16347 -30.966855,0.28239 -55.984922,-9.14784 -56.094312,-21.14401 l -0.0577,-6.3221"
         sodipodi:nodetypes="csssc" />
      <path
         stroke-miterlimit="4"
         stroke-width="2.5"
         stroke-linecap="round"
         fill-opacity="1"
         stroke-linejoin="round"
         stroke="url(#linearGradient3948)"
         fill="none"
         stroke-opacity="1"
         stroke-dasharray="none"
         id="rect3911"
         d="m 3.1583026,137.36826 0.057652,6.32211 c 0.1093949,11.99617 -24.7325316,21.88108 -55.6993856,22.16347 -30.966855,0.28239 -55.984919,-9.14784 -56.094309,-21.14401 l -0.0577,-6.32211"
         sodipodi:nodetypes="csssc" />
      <path
         stroke-miterlimit="4"
         stroke-width="0.752"
         stroke-linecap="round"
         fill-opacity="1"
         stroke-linejoin="round"
         stroke="url(#linearGradient1262)"
         fill="none"
         stroke-opacity="1"
         stroke-dasharray="none"
         sodipodi:nodetypes="ccscc"
         id="path1260"
         d="m 3.3274416,137.53657 0.057652,6.32211 c 0.1093949,11.99616 -24.7325266,21.88107 -55.6993886,22.16346 -30.966855,0.28239 -55.984925,-9.14783 -56.094315,-21.144 l -0.0576,-6.32211"
         inkscape:connector-curvature="0" />
    </g>
    <g
       transform="translate(0,-5.5272727)"
       id="g1291">
      <path
         stroke-miterlimit="4"
         stroke-width="2.257"
         stroke-linecap="round"
         fill-opacity="1"
         stroke-linejoin="round"
         stroke="url(#linearGradient1293)"
         fill="none"
         stroke-opacity="1"
         stroke-dasharray="none"
         id="path1285"
         d="m 3.4519822,140.54235 0.05765,6.32211 c 0.109397,11.99617 -24.7325272,21.88107 -55.6993802,22.16347 -30.966855,0.28239 -55.984922,-9.14784 -56.094312,-21.14401 l -0.0577,-6.3221"
         sodipodi:nodetypes="csssc" />
      <path
         stroke-miterlimit="4"
         stroke-width="2.5"
         stroke-linecap="round"
         fill-opacity="1"
         stroke-linejoin="round"
         stroke="url(#linearGradient1295)"
         fill="none"
         stroke-opacity="1"
         stroke-dasharray="none"
         id="path1287"
         d="m 3.1583026,137.36826 0.057652,6.32211 c 0.1093949,11.99617 -24.7325316,21.88108 -55.6993856,22.16347 -30.966855,0.28239 -55.984919,-9.14784 -56.094309,-21.14401 l -0.0577,-6.32211"
         sodipodi:nodetypes="csssc" />
      <path
         stroke-miterlimit="4"
         stroke-width="0.752"
         stroke-linecap="round"
         fill-opacity="1"
         stroke-linejoin="round"
         stroke="url(#linearGradient1297)"
         fill="none"
         stroke-opacity="1"
         stroke-dasharray="none"
         sodipodi:nodetypes="ccscc"
         id="path1289"
         d="m 3.3274416,137.53657 0.057652,6.32211 c 0.1093949,11.99616 -24.7325266,21.88107 -55.6993886,22.16346 -30.966855,0.28239 -55.984925,-9.14783 -56.094315,-21.144 l -0.0576,-6.32211"
         inkscape:connector-curvature="0" />
    </g>
    <g
       transform="translate(0.29090909,22.4)"
       id="g1305">
      <path
         stroke-miterlimit="4"
         stroke-width="2.257"
         stroke-linecap="round"
         fill-opacity="1"
         stroke-linejoin="round"
         stroke="url(#linearGradient1307)"
         fill="none"
         stroke-opacity="1"
         stroke-dasharray="none"
         id="path1299"
         d="m 3.4519822,140.54235 0.05765,6.32211 c 0.109397,11.99617 -24.7325272,21.88107 -55.6993802,22.16347 -30.966855,0.28239 -55.984922,-9.14784 -56.094312,-21.14401 l -0.0577,-6.3221"
         sodipodi:nodetypes="csssc" />
      <path
         stroke-miterlimit="4"
         stroke-width="2.5"
         stroke-linecap="round"
         fill-opacity="1"
         stroke-linejoin="round"
         stroke="url(#linearGradient1309)"
         fill="none"
         stroke-opacity="1"
         stroke-dasharray="none"
         id="path1301"
         d="m 3.1583026,137.36826 0.057652,6.32211 c 0.1093949,11.99617 -24.7325316,21.88108 -55.6993856,22.16347 -30.966855,0.28239 -55.984919,-9.14784 -56.094309,-21.14401 l -0.0577,-6.32211"
         sodipodi:nodetypes="csssc" />
      <path
         stroke-miterlimit="4"
         stroke-width="0.752"
         stroke-linecap="round"
         fill-opacity="1"
         stroke-linejoin="round"
         stroke="url(#linearGradient1311)"
         fill="none"
         stroke-opacity="1"
         stroke-dasharray="none"
         sodipodi:nodetypes="ccscc"
         id="path1303"
         d="m 3.3274416,137.53657 0.057652,6.32211 c 0.1093949,11.99616 -24.7325266,21.88107 -55.6993886,22.16346 -30.966855,0.28239 -55.984925,-9.14783 -56.094315,-21.144 l -0.0576,-6.32211"
         inkscape:connector-curvature="0" />
    </g>
    <g
       transform="translate(0.58181818,64.872727)"
       id="g1557">
      <path
         stroke-miterlimit="4"
         stroke-width="2.257"
         stroke-linecap="round"
         fill-opacity="1"
         stroke-linejoin="round"
         stroke="url(#linearGradient1559)"
         fill="none"
         stroke-opacity="1"
         stroke-dasharray="none"
         id="path1551"
         d="m 3.4519822,140.54235 0.05765,6.32211 c 0.109397,11.99617 -24.7325272,21.88107 -55.6993802,22.16347 -30.966855,0.28239 -55.984922,-9.14784 -56.094312,-21.14401 l -0.0577,-6.3221"
         sodipodi:nodetypes="csssc" />
      <path
         stroke-miterlimit="4"
         stroke-width="2.5"
         stroke-linecap="round"
         fill-opacity="1"
         stroke-linejoin="round"
         stroke="url(#linearGradient1561)"
         fill="none"
         stroke-opacity="1"
         stroke-dasharray="none"
         id="path1553"
         d="m 3.1583026,137.36826 0.057652,6.32211 c 0.1093949,11.99617 -24.7325316,21.88108 -55.6993856,22.16347 -30.966855,0.28239 -55.984919,-9.14784 -56.094309,-21.14401 l -0.0577,-6.32211"
         sodipodi:nodetypes="csssc" />
      <path
         stroke-miterlimit="4"
         stroke-width="0.752"
         stroke-linecap="round"
         fill-opacity="1"
         stroke-linejoin="round"
         stroke="url(#linearGradient1563)"
         fill="none"
         stroke-opacity="1"
         stroke-dasharray="none"
         sodipodi:nodetypes="ccscc"
         id="path1555"
         d="m 3.3274416,137.53657 0.057652,6.32211 c 0.1093949,11.99616 -24.7325266,21.88107 -55.6993886,22.16346 -30.966855,0.28239 -55.984925,-9.14783 -56.094315,-21.144 l -0.0576,-6.32211"
         inkscape:connector-curvature="0" />
    </g>
    <g
       transform="translate(0.29090909,36.945454)"
       id="g1571">
      <path
         stroke-miterlimit="4"
         stroke-width="2.257"
         stroke-linecap="round"
         fill-opacity="1"
         stroke-linejoin="round"
         stroke="url(#linearGradient1573)"
         fill="none"
         stroke-opacity="1"
         stroke-dasharray="none"
         id="path1565"
         d="m 3.4519822,140.54235 0.05765,6.32211 c 0.109397,11.99617 -24.7325272,21.88107 -55.6993802,22.16347 -30.966855,0.28239 -55.984922,-9.14784 -56.094312,-21.14401 l -0.0577,-6.3221"
         sodipodi:nodetypes="csssc" />
      <path
         stroke-miterlimit="4"
         stroke-width="2.5"
         stroke-linecap="round"
         fill-opacity="1"
         stroke-linejoin="round"
         stroke="url(#linearGradient1575)"
         fill="none"
         stroke-opacity="1"
         stroke-dasharray="none"
         id="path1567"
         d="m 3.1583026,137.36826 0.057652,6.32211 c 0.1093949,11.99617 -24.7325316,21.88108 -55.6993856,22.16347 -30.966855,0.28239 -55.984919,-9.14784 -56.094309,-21.14401 l -0.0577,-6.32211"
         sodipodi:nodetypes="csssc" />
      <path
         stroke-miterlimit="4"
         stroke-width="0.752"
         stroke-linecap="round"
         fill-opacity="1"
         stroke-linejoin="round"
         stroke="url(#linearGradient1577)"
         fill="none"
         stroke-opacity="1"
         stroke-dasharray="none"
         sodipodi:nodetypes="ccscc"
         id="path1569"
         d="m 3.3274416,137.53657 0.057652,6.32211 c 0.1093949,11.99616 -24.7325266,21.88107 -55.6993886,22.16346 -30.966855,0.28239 -55.984925,-9.14783 -56.094315,-21.144 l -0.0576,-6.32211"
         inkscape:connector-curvature="0" />
    </g>
    <g
       transform="translate(0.39291548,81.057217)"
       id="g1585">
      <path
         stroke-miterlimit="4"
         stroke-width="2.257"
         stroke-linecap="round"
         fill-opacity="1"
         stroke-linejoin="round"
         stroke="url(#linearGradient1587)"
         fill="none"
         stroke-opacity="1"
         stroke-dasharray="none"
         id="path1579"
         d="m 3.4519822,140.54235 0.05765,6.32211 c 0.109397,11.99617 -24.7325272,21.88107 -55.6993802,22.16347 -30.966855,0.28239 -55.984922,-9.14784 -56.094312,-21.14401 l -0.0577,-6.3221"
         sodipodi:nodetypes="csssc" />
      <path
         stroke-miterlimit="4"
         stroke-width="2.5"
         stroke-linecap="round"
         fill-opacity="1"
         stroke-linejoin="round"
         stroke="url(#linearGradient1589)"
         fill="none"
         stroke-opacity="1"
         stroke-dasharray="none"
         id="path1581"
         d="m 3.1583026,137.36826 0.057652,6.32211 c 0.1093949,11.99617 -24.7325316,21.88108 -55.6993856,22.16347 -30.966855,0.28239 -55.984919,-9.14784 -56.094309,-21.14401 l -0.0577,-6.32211"
         sodipodi:nodetypes="csssc" />
      <path
         stroke-miterlimit="4"
         stroke-width="0.752"
         stroke-linecap="round"
         fill-opacity="1"
         stroke-linejoin="round"
         stroke="url(#linearGradient1591)"
         fill="none"
         stroke-opacity="1"
         stroke-dasharray="none"
         sodipodi:nodetypes="ccscc"
         id="path1583"
         d="m 3.3274416,137.53657 0.057652,6.32211 c 0.1093949,11.99616 -24.7325266,21.88107 -55.6993886,22.16346 -30.966855,0.28239 -55.984925,-9.14783 -56.094315,-21.144 l -0.0576,-6.32211"
         inkscape:connector-curvature="0" />
    </g>
    <g
       transform="translate(1.1636364,7.8545454)"
       id="g1283">
      <path
         stroke-miterlimit="4"
         stroke-width="2.257"
         stroke-linecap="round"
         fill-opacity="1"
         stroke-linejoin="round"
         stroke="url(#linearGradient1593)"
         fill="none"
         stroke-opacity="1"
         stroke-dasharray="none"
         sodipodi:nodetypes="csssc"
         d="m 3.4519822,140.54235 0.05765,6.32211 c 0.109397,11.99617 -24.7325272,21.88107 -55.6993802,22.16347 -30.966855,0.28239 -55.984922,-9.14784 -56.094312,-21.14401 l -0.0577,-6.3221"
         id="path1277" />
      <path
         stroke-miterlimit="4"
         stroke-width="2.5"
         stroke-linecap="round"
         fill-opacity="1"
         stroke-linejoin="round"
         stroke="url(#linearGradient1595)"
         fill="none"
         stroke-opacity="1"
         stroke-dasharray="none"
         sodipodi:nodetypes="csssc"
         d="m 3.1583026,137.36826 0.057652,6.32211 c 0.1093949,11.99617 -24.7325316,21.88108 -55.6993856,22.16347 -30.966855,0.28239 -55.984919,-9.14784 -56.094309,-21.14401 l -0.0577,-6.32211"
         id="path1279" />
      <path
         stroke-miterlimit="4"
         stroke-width="0.752"
         stroke-linecap="round"
         fill-opacity="1"
         stroke-linejoin="round"
         stroke="url(#linearGradient1597)"
         fill="none"
         stroke-opacity="1"
         stroke-dasharray="none"
         inkscape:connector-curvature="0"
         d="m 3.3274416,137.53657 0.057652,6.32211 c 0.1093949,11.99616 -24.7325266,21.88107 -55.6993886,22.16346 -30.966855,0.28239 -55.984925,-9.14783 -56.094315,-21.144 l -0.0576,-6.32211"
         id="path1281"
         sodipodi:nodetypes="ccscc" />
    </g>
    <rect
       stroke-miterlimit="4"
       stroke-width="1.504"
       stroke-linecap="round"
       fill-opacity="1"
       stroke-linejoin="round"
       stroke="url(#linearGradient3962)"
       fill="url(#radialGradient3960)"
       stroke-opacity="1"
       stroke-dasharray="none"
       transform="rotate(-0.52247462)"
       rx="55.899"
       ry="21.08"
       y="107.47"
       x="-109.36"
       height="42.15"
       width="111.8"
       id="rect3921" />
  </g>
</svg>
