<?xml version="1.0" encoding="UTF-8" standalone="no"?>
<!-- Created with Inkscape (http://www.inkscape.org/) -->

<svg
   xmlns:dc="http://purl.org/dc/elements/1.1/"
   xmlns:cc="http://creativecommons.org/ns#"
   xmlns:rdf="http://www.w3.org/1999/02/22-rdf-syntax-ns#"
   xmlns:svg="http://www.w3.org/2000/svg"
   xmlns="http://www.w3.org/2000/svg"
   xmlns:xlink="http://www.w3.org/1999/xlink"
   xmlns:sodipodi="http://sodipodi.sourceforge.net/DTD/sodipodi-0.dtd"
   xmlns:inkscape="http://www.inkscape.org/namespaces/inkscape"
   id="svg1971"
   sodipodi:version="0.32"
   inkscape:version="0.92.5 (2060ec1f9f, 2020-04-08)"
   width="256"
   height="256"
   version="1.0"
   sodipodi:docname="music_clean.svg"
   inkscape:output_extension="org.inkscape.output.svg.inkscape">
  <metadata
     id="metadata1976">
    <rdf:RDF>
      <cc:Work>
        <dc:format>image/svg+xml</dc:format>
        <dc:type
           rdf:resource="http://purl.org/dc/dcmitype/StillImage" />
        <dc:title />
      </cc:Work>
    </rdf:RDF>
  </metadata>
  <defs
     id="defs1974">
    <linearGradient
       inkscape:collect="always"
       id="linearGradient858">
      <stop
         style="stop-color:#000000;stop-opacity:0.44642857"
         offset="0"
         id="stop854" />
      <stop
         style="stop-color:#000000;stop-opacity:0.04910714"
         offset="1"
         id="stop856" />
    </linearGradient>
    <linearGradient
       inkscape:collect="always"
       id="linearGradient933">
      <stop
         style="stop-color:#ffffff;stop-opacity:1"
         offset="0"
         id="stop929" />
      <stop
         style="stop-color:#ffffff;stop-opacity:0"
         offset="1"
         id="stop931" />
    </linearGradient>
    <linearGradient
       id="linearGradient4409">
      <stop
         id="stop4411"
         stop-color="#ffffff"
         stop-opacity="1" />
      <stop
         offset="1"
         id="stop4413"
         stop-color="#1b1bb4"
         stop-opacity="0" />
    </linearGradient>
    <linearGradient
       id="linearGradient4403">
      <stop
         id="stop4405"
         stop-color="#000345"
         stop-opacity="1" />
      <stop
         offset="1"
         id="stop4407"
         stop-color="#9b9be1"
         stop-opacity="1" />
    </linearGradient>
    <linearGradient
       id="linearGradient4397">
      <stop
         id="stop4399"
         stop-color="#0c0e86"
         stop-opacity="1" />
      <stop
         offset="1"
         id="stop4401"
         stop-color="#9eacff"
         stop-opacity="1" />
    </linearGradient>
    <linearGradient
       id="linearGradient4390">
      <stop
         id="stop4392"
         stop-color="#c0c5e1"
         stop-opacity="1" />
      <stop
         id="stop4394"
         offset="1"
         stop-color="#0a0d7b"
         stop-opacity="1" />
    </linearGradient>
    <linearGradient
       id="linearGradient3578">
      <stop
         id="stop3580"
         stop-color="#000000"
         stop-opacity="1" />
      <stop
         offset="1"
         id="stop3582"
         stop-color="#fffcfc"
         stop-opacity="1" />
    </linearGradient>
    <linearGradient
       inkscape:collect="always"
       xlink:href="#linearGradient4403"
       id="linearGradient3441"
       gradientUnits="userSpaceOnUse"
       gradientTransform="matrix(1.4109988,0,0,1.4109988,-335.58516,-26.261558)"
       spreadMethod="reflect"
       x1="335.21"
       y1="93.35"
       x2="332.08"
       y2="93.35" />
    <linearGradient
       inkscape:collect="always"
       xlink:href="#linearGradient4409"
       id="linearGradient3445"
       gradientUnits="userSpaceOnUse"
       gradientTransform="matrix(1.1758176,0,0,1.1013053,-263.6844,18.295037)"
       x1="295.03"
       y1="149.21"
       x2="307.75"
       y2="168.66" />
    <linearGradient
       inkscape:collect="always"
       xlink:href="#linearGradient4397"
       id="linearGradient3449"
       gradientUnits="userSpaceOnUse"
       gradientTransform="matrix(1.4109988,0,0,1.4109988,-328.21269,-20.826044)"
       spreadMethod="reflect"
       x1="369.94"
       y1="77.15"
       x2="343.16"
       y2="68.44" />
    <radialGradient
       inkscape:collect="always"
       xlink:href="#linearGradient4390"
       id="radialGradient14782"
       cx="-102.29"
       cy="238.11"
       fx="-102.29"
       fy="238.11"
       r="38.421"
       gradientTransform="matrix(0.7599696,-0.66528997,0.5953886,0.68012036,48.86917,-7.6360368)"
       gradientUnits="userSpaceOnUse" />
    <linearGradient
       inkscape:collect="always"
       xlink:href="#linearGradient4397"
       id="linearGradient892"
       gradientUnits="userSpaceOnUse"
       gradientTransform="matrix(1.4109988,0,0,1.4109988,-327.54376,17.520583)"
       x1="369.94"
       y1="77.15"
       x2="343.16"
       y2="68.44"
       spreadMethod="reflect" />
    <radialGradient
       inkscape:collect="always"
       xlink:href="#linearGradient933"
       id="radialGradient935"
       cx="109.42632"
       cy="196.67941"
       fx="109.42632"
       fy="196.67941"
       r="45.058777"
       gradientUnits="userSpaceOnUse" />
    <filter
       inkscape:collect="always"
       style="color-interpolation-filters:sRGB"
       id="filter938"
       x="-0.012"
       width="1.024"
       y="-0.012"
       height="1.024">
      <feGaussianBlur
         inkscape:collect="always"
         stdDeviation="0.45058776"
         id="feGaussianBlur940" />
    </filter>
    <linearGradient
       inkscape:collect="always"
       xlink:href="#linearGradient858"
       id="linearGradient860"
       x1="-98.035751"
       y1="227.12152"
       x2="7.7020192"
       y2="35.049526"
       gradientUnits="userSpaceOnUse" />
    <linearGradient
       inkscape:collect="always"
       xlink:href="#linearGradient858"
       id="linearGradient864"
       gradientUnits="userSpaceOnUse"
       x1="-98.035751"
       y1="227.12152"
       x2="7.7020192"
       y2="35.049526" />
    <linearGradient
       inkscape:collect="always"
       xlink:href="#linearGradient858"
       id="linearGradient870"
       gradientUnits="userSpaceOnUse"
       x1="-98.035751"
       y1="227.12152"
       x2="7.7020192"
       y2="35.049526" />
    <linearGradient
       inkscape:collect="always"
       xlink:href="#linearGradient858"
       id="linearGradient876"
       gradientUnits="userSpaceOnUse"
       x1="-98.035751"
       y1="227.12152"
       x2="7.7020192"
       y2="35.049526" />
    <linearGradient
       inkscape:collect="always"
       xlink:href="#linearGradient858"
       id="linearGradient882"
       gradientUnits="userSpaceOnUse"
       x1="-98.035751"
       y1="227.12152"
       x2="7.7020192"
       y2="35.049526" />
    <filter
       inkscape:collect="always"
       style="color-interpolation-filters:sRGB"
       id="filter864"
       x="-0.027343152"
       width="1.0546863"
       y="-0.021385294"
       height="1.0427706">
      <feGaussianBlur
         inkscape:collect="always"
         stdDeviation="1.7263105"
         id="feGaussianBlur866" />
    </filter>
  </defs>
  <sodipodi:namedview
     inkscape:window-height="1056"
     inkscape:window-width="1920"
     inkscape:pageshadow="2"
     inkscape:pageopacity="0"
     guidetolerance="10.0"
     gridtolerance="10.0"
     objecttolerance="10.0"
     borderopacity="1.0"
     bordercolor="#666666"
     pagecolor="#ff0000"
     id="base"
     inkscape:zoom="3.4726562"
     inkscape:cx="128"
     inkscape:cy="128"
     inkscape:window-x="0"
     inkscape:window-y="0"
     inkscape:current-layer="svg1971"
     showgrid="false"
     inkscape:window-maximized="1"
     inkscape:snap-to-guides="false"
     inkscape:snap-grids="false"
     inkscape:snap-others="false"
     inkscape:object-nodes="false"
     inkscape:snap-nodes="false"
     inkscape:snap-global="false" />
  <g
     id="g891"
     transform="translate(174.50619,13.534308)"
     style="filter:url(#filter864)">
    <path
       sodipodi:nodetypes="ccccccccssccccccccccccccccccccc"
       inkscape:connector-curvature="0"
       id="path894"
       d="M -1.1055755,40.992883 -22.735935,142.42096 c -10.87823,5.06321 -23.41193,10.32973 -37.78881,15.81558 -2.8196,1.80164 -1.09438,3.3477 1.2995,2.39635 13.50596,-4.86786 25.23086,-9.41456 35.52451,-13.68785 l -5.92488,27.78268 c -0.88046,0.40767 -1.73109,0.81219 -2.63378,1.22259 -1.5411,-0.37548 -3.16572,-0.67578 -4.83323,-0.9377 -10.22062,-1.25854 -24.00036,1.39259 -37.57776,7.90209 -22.772478,10.91795 -36.338785,28.65096 -30.267365,39.58209 6.071428,10.93114 29.479485,10.91796 52.251945,0 18.65341,-8.94311 31.12892,-22.43488 31.69239,-33.03934 0.10957,-1.1876 0.1015,-2.26933 -0.005,-3.26242 l 2.59791,-12.18199 C 1.166424,163.16607 52.187803,145.13705 34.135755,115.73228 49.050485,102.98489 44.997105,95.218343 43.452505,90.425723 38.273335,74.356902 14.864715,60.450431 8.8914945,46.034658 l 1.0752,-5.041775 c 0.7678635,-6.050094 -8.4730666,-4.681912 -11.07227,0 z m 3.92464,33.516328 C 27.516095,83.145423 36.809355,94.252963 28.119125,107.82204 18.777885,97.152433 5.9023245,87.150453 2.3180845,76.85835 Z m -6.7699,31.745109 c 10.1804,3.50614 17.8073305,7.42249 22.6933105,11.75058 -6.81791,5.75817 -16.4796605,11.89202 -29.12299,18.39914 z m 27.3352205,17.33121 c 6.80156,12.238 -5.70441,27.29732 -40.66291,45.16434 l 5.76483,-27.03218 c 15.2908695,-6.80213 26.62304,-12.82153 34.89808,-18.13216 z"
       style="fill:url(#linearGradient860);fill-opacity:1;stroke:none;stroke-width:0.91296917" />
    <path
       inkscape:connector-curvature="0"
       id="path862"
       d="m 5.7519531,37.566406 c -4.1391412,0.14799 -7.3080373,3.614055 -7.1689676,7.759974 -6.9318324,32.505166 -13.8646745,65.01012 -20.7958765,97.51542 -12.573954,5.92871 -25.552478,11.00474 -38.416015,16.19922 -1.705984,0.91505 0.0453,1.88018 1.210937,1.02343 12.287878,-4.43169 24.475966,-9.09009 36.541016,-14.10742 -2.241529,9.71259 -3.90596,19.88179 -6.496094,29.31641 -3.560906,2.62165 -7.727545,-0.48642 -11.732422,0.0508 -18.741838,0.0609 -37.139067,7.96402 -51.511719,19.86523 -6.46753,5.84265 -13.544132,13.44385 -13.101562,22.83789 0.86585,8.31429 10.11238,11.59278 17.240234,11.93555 18.360539,0.83236 36.397894,-6.59263 50.931641,-17.43359 7.667835,-6.17651 15.8535,-14.2748 16.033203,-24.78907 0.118595,-4.77785 1.678395,-9.76953 2.828125,-14.2539 17.0558947,-9.26 36.327988,-16.02054 49.738281,-30.66406 6.049406,-6.33968 8.303084,-16.30774 4.03125,-24.11329 -2.021105,-2.39806 -1.418318,-4.12604 1.208985,-5.73437 5.559548,-4.98085 10.409328,-12.85337 7.242187,-20.427735 C 39.295855,78.464413 26.584745,69.587511 17.258456,59.004992 13.787518,55.06231 10.051889,50.899585 8.3046875,45.910156 8.8246806,43.225651 11.089021,37.857447 6.5839844,37.568359 L 6.1640625,37.552734 Z M 3.0214844,73.945312 c 9.8769996,3.749903 20.9770676,7.85682 26.9179686,17.19336 3.472842,5.533712 1.898574,12.658628 -1.736328,17.683598 C 19.653685,98.519822 7.8572839,90.474647 2.1210938,78.033203 1.4673364,77.098362 1.7860615,73.339635 3.0214844,73.945312 Z M -3.7519531,105.6875 c 8.3219471,2.948 16.7463961,6.39425 23.4277341,12.32617 -9.350287,7.88854 -20.08352261,13.91024 -30.908203,19.51172 2.2778419,-10.68832 4.560834,-21.37555 6.8359376,-32.06445 l 0.5660471,0.19897 z m 27.6679691,17.61719 c 4.184709,6.96581 0.551239,15.50257 -4.534816,20.89544 -10.3244578,11.31109 -24.1213335,18.62495 -37.512059,25.66706 2.201285,-9.50381 3.813409,-19.48236 6.371093,-28.69727 12.13087286,-5.43324 24.146416,-11.24728 35.371094,-18.4375 l 0.281978,0.52961 z"
       style="fill:url(#linearGradient864);fill-opacity:1;stroke:none;stroke-width:0.91296917" />
    <path
       inkscape:connector-curvature="0"
       id="path868"
       d="m 5.7890625,38.166016 c -4.0936151,-0.0043 -6.9723518,4.008743 -6.74622842,7.871962 C -7.8666602,78.44537 -14.781082,110.85173 -21.6875,143.25977 c -12.627486,6.05823 -26.373634,11.15926 -38.814453,16.53125 12.918041,-4.58072 25.767774,-9.5588 38.460937,-14.82813 -2.488313,10.20783 -3.8852,20.84741 -6.99414,30.80664 -4.230806,2.9422 -9.201087,-0.83298 -13.816406,0.18359 -20.656057,0.82862 -40.883885,10.29087 -54.973675,25.2563 -4.916413,5.42824 -9.859493,13.94266 -5.764703,21.18683 5.590443,7.6819 16.367058,7.48292 24.812935,6.65085 18.350586,-2.24078 36.15919,-11.09075 48.942637,-24.44391 5.107975,-5.23239 8.111652,-12.30913 7.933977,-19.64811 0.594165,-4.06069 1.557252,-8.25838 2.931641,-11.99805 17.8944341,-9.76354 38.451934,-16.67718 51.623047,-33.02539 4.754397,-6.51292 5.591332,-16.02836 0.820312,-22.73828 -1.083335,-3.77034 3.839052,-4.97889 5.369141,-7.69727 4.313041,-4.77232 6.743481,-11.949202 3.699219,-18.068356 C 36.088327,73.48244 17.1716,64.504992 8.4980469,47.982422 6.1401756,45.105593 10.887022,40.641144 7.4746094,38.341797 6.9356919,38.158938 6.3526826,38.134723 5.7890625,38.166016 Z m -2.8808594,35.125 c 10.6528209,3.98007 22.8571109,8.471974 28.4316409,19.21289 2.508705,5.75624 0.585566,12.503304 -3.091797,17.300784 C 19.443866,98.911802 6.7391663,90.674254 1.2597656,77.332031 1.1423756,76.033846 1.0555149,73.31567 2.9082031,73.291016 Z m -7.1054687,31.603514 c 8.8363385,3.09196 17.7932006,6.73513 24.8007816,13.13086 -9.849899,8.40151 -21.23300396,14.71586 -32.689454,20.625 2.4162326,-11.32715 4.8324894,-22.6543 7.2441411,-33.98242 l 0.5660471,0.19897 z m 28.3378906,17.55664 c 4.96595,7.68091 0.699346,17.49264 -5.306641,23.21485 C 8.2408392,156.77526 -5.5783975,163.93613 -19,171.00586 c 2.515999,-10.03874 3.744619,-20.70907 6.992188,-30.38281 12.31149326,-5.5093 24.490037,-11.42762 35.845703,-18.74219 l 0.281316,0.52996 z"
       style="fill:url(#linearGradient870);fill-opacity:1;stroke:none;stroke-width:0.91296917" />
    <path
       inkscape:connector-curvature="0"
       id="path874"
       d="m 5.8066406,38.765625 c -4.1188009,-0.0424 -6.49411741,4.307826 -6.3028576,7.983293 -6.8881496,32.309056 -13.780144,64.617302 -20.665892,96.926862 -1.999993,0.98432 -7.765274,3.53472 -2.286314,1.21761 3.94155,-2.5573 0.904437,3.00508 0.854134,5.2192 -1.969237,8.70877 -3.122678,17.80279 -6.116649,26.16085 -4.721313,3.16655 -10.223759,-0.97935 -15.307662,0.34338 -21.29944,1.28993 -42.521613,11.52444 -56.03023,28.29724 -3.96111,5.19292 -6.94112,13.79444 -1.4082,19.02149 7.686972,6.76697 19.043988,5.10646 28.30488,3.59976 17.66505,-3.63882 34.526841,-12.8421 45.859181,-26.94937 3.70903,-5.02978 4.83511,-11.21226 5.042969,-17.26367 0.710848,-3.67197 1.385487,-7.58297 2.996094,-10.89258 18.0063604,-9.85054 38.845376,-16.75959 51.849609,-33.46094 4.49411,-6.47835 4.604722,-15.59811 0.201172,-22.03125 -0.617506,-4.26236 4.697332,-5.51112 6.369141,-8.74609 4.251607,-4.99752 5.509522,-12.34102 2.179687,-18.197269 C 34.168749,72.619377 14.949745,63.703616 7.2597656,46.599609 6.6281864,44.019549 10.490781,38.805019 5.8066406,38.765625 Z M -26.222656,146.03516 c -0.02937,-10e-4 -0.07992,0.0479 0,0 z M 3.1191406,72.730469 c 10.9875764,4.078928 23.6156014,8.800143 29.0078124,20.113281 2.322641,6.105438 0.111802,13.03438 -3.855469,17.93164 C 19.317245,99.477753 6.1807607,91.167064 0.66210938,77.375 0.44257117,75.636232 0.65796268,72.456572 3.1191406,72.730469 Z m -7.7617187,31.371091 c 9.346111,3.2378 18.8462441,7.07294 26.1640621,13.93946 -10.339259,8.91248 -22.37772724,15.52004 -34.460937,21.73046 2.553964,-11.96481 5.1043055,-23.93041 7.6523436,-35.89648 l 0.5660471,0.19897 z m 29.0097661,17.49805 c 5.431072,7.92793 1.335418,18.51769 -5.113282,24.49414 -10.9520376,11.47434 -25.2938355,18.7561 -39.15039,26.0625 2.86851,-10.56648 3.716346,-21.93893 7.640625,-32.08008 12.49333598,-5.58582 24.842611,-11.61307 36.320312,-19.04883 l 0.280566,0.53036 z"
       style="fill:url(#linearGradient876);fill-opacity:1;stroke:none;stroke-width:0.91296917" />
    <path
       inkscape:connector-curvature="0"
       id="path880"
       d="m 5.46875,39.373047 c -4.2732313,0.293777 -5.52758508,5.156484 -5.6291346,8.673621 -6.8249643,32.015144 -13.6537644,64.029482 -20.4763344,96.045132 -0.401292,1.29007 -0.55945,3.59436 -1.228515,5.16992 -2.045523,9.16347 -3.077905,18.80227 -6.529297,27.52148 -5.263522,3.37495 -11.237738,-1.13435 -16.778813,0.51947 -21.510021,1.7222 -42.980693,12.32128 -55.789546,30.02155 -3.41054,5.12755 -4.73331,13.55174 1.347656,17.30273 8.967184,5.86913 20.369598,3.47549 30.207957,1.4264 16.656836,-4.31747 32.722596,-13.48501 42.874074,-27.71351 4.693165,-7.72738 2.633059,-17.29519 6.371094,-25.36523 -1.226483,-0.23031 1.087417,-4.93299 1.111328,-6.95508 1.81094,-8.53782 2.942286,-17.28451 5.988281,-25.50781 -1.404628,-0.61645 1.180959,-6.47674 1.288453,-9.08064 2.0132823,-9.44981 4.031177,-18.89864 6.0416251,-28.34905 10.0657077,3.45052 20.3710229,7.46385 28.1601559,14.97656 -7.609898,6.62286 -16.1799888,12.04422 -25.0019528,16.89649 9.2409592,-4.39153 18.3029908,-9.21196 26.8652348,-14.7832 4.741072,6.34217 3.777613,15.24603 -0.571402,21.51713 -6.678228,9.03747 -16.1487071,15.5959 -25.6707859,21.3481 C 11.098617,156.49634 24.917183,149.2708 33.208984,136.81055 36.520059,130.66726 36.074403,122.75977 32.199219,117 c -0.575488,-4.88542 5.452369,-6.32959 7.25,-10.13477 4.254132,-5.42325 3.968324,-13.100132 0.38095,-18.768466 C 31.889171,71.872103 13.683573,63.220212 6.6152344,46.398438 6.0976195,44.133323 8.8811992,41.094004 6.7382812,39.482422 6.3263208,39.368964 5.8935108,39.352465 5.46875,39.373047 Z M 2.9101562,72.115234 C 14.251187,76.052767 27.144979,81.075396 32.691406,92.642578 35.169643,99.192676 32.661419,106.61085 28.277344,111.73633 19.202722,99.959537 5.2616733,91.517713 0.02734375,77.070312 -0.1742057,75.097652 0.35266523,72.032524 2.9101562,72.115234 Z"
       style="fill:url(#linearGradient882);fill-opacity:1;stroke:none;stroke-width:0.91296917" />
  </g>
  <path
     d="m 135.31468,8.9977498 c 3.0672,0 5.53646,1.0949492 5.53646,2.4550442 V 187.42639 c 0.28126,-4.07336 -8.19159,-11.8066 -11.07292,-11.69491 V 11.452794 c 0,-1.360095 2.46926,-2.4550442 5.53646,-2.4550442 z"
     id="rect1999"
     inkscape:connector-curvature="0"
     sodipodi:nodetypes="ssccss"
     style="fill:url(#linearGradient3441);fill-opacity:1;stroke:none" />
  <path
     d="m 122.37213,172.24291 c -10.48902,-1.50992 -23.703089,1.67043 -35.892283,9.48015 -20.444143,13.09872 -30.228957,34.37439 -21.826389,47.48892 8.402588,13.11455 31.806923,13.09874 52.251042,0 16.74622,-10.72942 26.34641,-26.91764 24.6484,-39.64025 -1.27138,-12.60587 -9.74534,-15.60834 -19.18077,-17.32882 z"
     id="path1980"
     sodipodi:nodetypes="cssscc"
     inkscape:connector-curvature="0"
     style="fill:url(#radialGradient14782);fill-opacity:1;stroke:none" />
  <path
     sodipodi:nodetypes="cssscc"
     id="path2895"
     d="m 117.94199,174.12971 c -8.74072,-1.17851 -19.752329,1.3038 -29.909849,7.39937 -17.036579,10.22377 -25.190481,26.82974 -18.188432,37.06582 7.002063,10.23609 26.505412,10.22377 43.541961,0 13.95501,-8.37448 21.95508,-21.00962 20.54008,-30.93978 -1.05948,-9.83909 -8.121,-12.18254 -15.98376,-13.52541 z"
     inkscape:connector-curvature="0"
     style="fill:url(#linearGradient3445);fill-opacity:1;stroke:none" />
  <path
     d="m 138.58436,11.942682 c 0.32747,12.846257 0.63578,21.900035 0.95689,39.210519 55.63117,21.126277 48.42075,54.816729 -44.178869,100.963049 -2.43538,2.1615 -0.37937,4.01633 1.81162,2.87495 C 205.2601,104.36171 189.63986,81.427263 184.87801,70.759628 175.35432,49.42436 144.06206,31.268164 138.58436,11.942682 Z"
     id="path2950"
     sodipodi:nodetypes="cccccc"
     inkscape:connector-curvature="0"
     style="fill:url(#linearGradient3449);fill-opacity:1;fill-rule:evenodd;stroke:none" />
  <path
     inkscape:connector-curvature="0"
     sodipodi:nodetypes="cccccc"
     id="path890"
     d="m 139.25329,50.289309 c 0.32747,12.846257 0.63578,21.900035 0.95689,39.210519 55.63117,21.126282 48.42075,54.816732 -44.178869,100.963052 -2.43538,2.1615 -0.37937,4.01633 1.81162,2.87495 C 205.92903,142.70834 190.30879,119.77389 185.54694,109.10626 176.02325,87.770987 144.73099,69.614791 139.25329,50.289309 Z"
     style="fill:url(#linearGradient892);fill-opacity:1;fill-rule:evenodd;stroke:none" />
  <path
     style="opacity:1;fill:url(#radialGradient935);fill-opacity:1;stroke:none;stroke-width:0.69999999;stroke-linecap:round;stroke-linejoin:round;stroke-miterlimit:4;stroke-dasharray:none;stroke-opacity:0.2283105;filter:url(#filter938)"
     d="m 86.896935,157.65737 20.249015,30.51158 2.28037,-36.54831 2.28038,36.54831 20.24901,-30.51158 -16.29929,32.79195 32.79195,-16.2993 -30.51158,20.24902 36.54831,2.28037 -36.54831,2.28038 30.51158,20.24901 -32.79195,-16.29929 16.29929,32.79195 -20.24901,-30.51158 -2.28038,36.54831 -2.28037,-36.54831 -20.249016,30.51158 16.299296,-32.79195 -32.791953,16.29929 30.511583,-20.24901 -36.548314,-2.28038 36.548314,-2.28037 -30.511582,-20.24902 32.791952,16.2993 z"
     id="path927"
     inkscape:connector-curvature="0"
     transform="matrix(0.59745119,0,0,0.59745119,38.722101,107.53752)" />
</svg>
