<?xml version="1.0" encoding="UTF-8" standalone="no"?>
<!-- Created with Inkscape (http://www.inkscape.org/) -->

<svg
   xmlns:dc="http://purl.org/dc/elements/1.1/"
   xmlns:cc="http://creativecommons.org/ns#"
   xmlns:rdf="http://www.w3.org/1999/02/22-rdf-syntax-ns#"
   xmlns:svg="http://www.w3.org/2000/svg"
   xmlns="http://www.w3.org/2000/svg"
   xmlns:xlink="http://www.w3.org/1999/xlink"
   xmlns:sodipodi="http://sodipodi.sourceforge.net/DTD/sodipodi-0.dtd"
   xmlns:inkscape="http://www.inkscape.org/namespaces/inkscape"
   id="svg2"
   sodipodi:version="0.32"
   inkscape:version="0.91 r13725"
   width="256"
   height="256"
   sodipodi:docname="gpaint.svg"
   inkscape:output_extension="org.inkscape.output.svg.inkscape"
   version="1.1">
  <metadata
     id="metadata7">
    <rdf:RDF>
      <cc:Work>
        <dc:format>image/svg+xml</dc:format>
        <dc:type
           rdf:resource="http://purl.org/dc/dcmitype/StillImage" />
      </cc:Work>
    </rdf:RDF>
  </metadata>
  <defs
     id="defs5">
    <linearGradient
       id="linearGradient3578">
      <stop
         id="stop3580"
         stop-color="#000000"
         stop-opacity="1" />
      <stop
         id="stop3582"
         offset="1"
         stop-color="#fffcfc"
         stop-opacity="1" />
    </linearGradient>
    <radialGradient
       r="213.76"
       fy="472.27"
       fx="426.12"
       cy="472.27"
       cx="426.12"
       spreadMethod="reflect"
       gradientTransform="matrix(1.3783526,-0.02048433,0.02455931,1.6525494,-325.48399,-340.11396)"
       gradientUnits="userSpaceOnUse"
       id="radialGradient3846"
       xlink:href="#linearGradient3773-5"
       inkscape:collect="always" />
    <linearGradient
       y2="121.57"
       x2="452.19"
       y1="254.28"
       x1="448.1"
       spreadMethod="reflect"
       gradientTransform="translate(-190.16179,-18.138881)"
       gradientUnits="userSpaceOnUse"
       id="linearGradient3844"
       xlink:href="#linearGradient3757"
       inkscape:collect="always" />
    <linearGradient
       y2="274.18"
       x2="465.91"
       y1="59.55"
       x1="353.36"
       spreadMethod="pad"
       gradientTransform="translate(-190.16179,-18.138881)"
       gradientUnits="userSpaceOnUse"
       id="linearGradient3842"
       xlink:href="#linearGradient3803"
       inkscape:collect="always" />
    <filter
       id="filter3828"
       inkscape:collect="always">
      <feGaussianBlur
         id="feGaussianBlur3830"
         stdDeviation="6.56699"
         inkscape:collect="always" />
    </filter>
    <linearGradient
       id="linearGradient3757">
      <stop
         id="stop3759-6"
         stop-color="#ffffff"
         stop-opacity="1" />
      <stop
         id="stop3761"
         offset="1"
         stop-color="#7b7b7b"
         stop-opacity="1" />
    </linearGradient>
    <linearGradient
       id="linearGradient3773-5">
      <stop
         id="stop3775"
         stop-color="#ffffff"
         stop-opacity="1" />
      <stop
         offset="0.5"
         id="stop3793"
         stop-color="#000000"
         stop-opacity="1" />
      <stop
         id="stop3777"
         offset="1"
         stop-color="#ffffff"
         stop-opacity="1" />
    </linearGradient>
    <linearGradient
       id="linearGradient3803">
      <stop
         id="stop3805"
         stop-color="#ffffff"
         stop-opacity="1" />
      <stop
         offset="1"
         id="stop3807"
         stop-color="#ffffff"
         stop-opacity="0" />
    </linearGradient>
    <linearGradient
       y2="273.54"
       x2="175.42"
       y1="103.17"
       x1="151.95"
       spreadMethod="pad"
       gradientTransform="matrix(1.038583,0,0,1.038583,-28.994017,-37.443424)"
       gradientUnits="userSpaceOnUse"
       id="linearGradient3798"
       xlink:href="#linearGradient3803"
       inkscape:collect="always" />
    <filter
       id="filter3817"
       inkscape:collect="always">
      <feGaussianBlur
         id="feGaussianBlur3819"
         stdDeviation="7.83773"
         inkscape:collect="always" />
    </filter>
    <linearGradient
       gradientTransform="matrix(1.038583,0,0,1.038583,-28.994017,-37.443424)"
       y2="367.44"
       x2="224.08"
       y1="266.35"
       x1="221.8"
       spreadMethod="reflect"
       gradientUnits="userSpaceOnUse"
       id="linearGradient3815-8"
       xlink:href="#linearGradient3757"
       inkscape:collect="always" />
    <radialGradient
       r="220.63"
       fy="499.49"
       fx="252.14"
       cy="499.49"
       cx="252.14"
       gradientTransform="matrix(1.3600288,-0.02070404,0.02342386,1.5386911,-121.74213,-347.77574)"
       gradientUnits="userSpaceOnUse"
       id="radialGradient3813"
       xlink:href="#linearGradient3773-5"
       inkscape:collect="always" />
  </defs>
  <sodipodi:namedview
     inkscape:window-height="1056"
     inkscape:window-width="1920"
     inkscape:pageshadow="2"
     inkscape:pageopacity="0.0"
     guidetolerance="10.0"
     gridtolerance="10.0"
     objecttolerance="10.0"
     borderopacity="1.0"
     bordercolor="#666666"
     pagecolor="#ffffff"
     id="base"
     showgrid="false"
     inkscape:zoom="3.5585938"
     inkscape:cx="128"
     inkscape:cy="128"
     inkscape:window-x="0"
     inkscape:window-y="0"
     inkscape:current-layer="svg2"
     inkscape:window-maximized="1" />
  <g
     id="g5363"
     transform="matrix(0.49701723,0,0,0.49701723,-0.0392339,-17.50444)">
    <path
       inkscape:connector-curvature="0"
       id="rect3015"
       d="m 69.831346,113.23728 c -18.134002,0 -32.74782,14.61381 -32.74782,32.74782 l 0,82.76208 c 0,2.14203 0.227498,4.2388 0.616659,6.26395 l 0,170.97673 c 0,18.134 14.613818,32.74782 32.747819,32.74782 l 392.162436,0 c 18.134,0 32.74782,-14.61382 32.74782,-32.74782 l 0,-229.13738 c 0,-18.134 -14.61382,-32.71536 -32.74782,-32.71536 l -165.55662,0 c -0.95442,-17.26537 -15.17081,-30.89784 -32.68291,-30.89784 l -194.539564,0 z"
       fill="#000000"
       filter="url(#filter3817)"
       stroke="none"
       fill-opacity="1" />
    <path
       sodipodi:nodetypes="ssscsssssscsssscsssssscsss"
       inkscape:connector-curvature="0"
       id="path3788"
       d="m 49.451454,91.632968 c -18.134001,0 -32.74782,14.613812 -32.74782,32.747812 l 0,82.76209 c 0,2.14203 0.227498,4.2388 0.616659,6.26395 l 0,170.97672 c 0,18.134 14.613818,32.74782 32.74782,32.74782 l 392.162447,0 c 18.134,0 32.74782,-14.61382 32.74782,-32.74782 l 0,-229.13737 c 0,-18.134 -14.61382,-32.71536 -32.74782,-32.71536 l -165.55662,0 C 275.71951,105.26544 261.50313,91.632968 243.99103,91.632968 z m 37.384619,37.648632 135.539447,0 c 17.5121,0 31.72848,13.63247 32.68291,30.89784 l 146.40774,0 c 18.13401,0 32.74782,14.58136 32.74782,32.71537 l 0,153.80764 c 0,18.13401 -14.61381,32.74782 -32.74782,32.74782 l -314.013439,0 c -18.133997,0 -32.747819,-14.61381 -32.747819,-32.74782 l 0,-133.29563 c -0.389162,-2.02515 -0.616659,-4.12192 -0.616659,-6.26395 l 0,-45.11345 c 0,-18.134 14.613822,-32.74782 32.74782,-32.74782 z"
       stroke-dasharray="none"
       fill="url(#linearGradient3815-8)"
       stroke="url(#radialGradient3813)"
       fill-opacity="1"
       stroke-width="3.116"
       stroke-miterlimit="4" />
    <path
       sodipodi:nodetypes="cccccccccc"
       inkscape:connector-curvature="0"
       id="path3790"
       d="m 48.65625,93.65625 c -17.789093,-0.132524 -32.758854,17.5743 -29.59375,35.125 1.648314,56.37473 -3.497288,112.80096 -0.600116,169.15242 C 84.138663,125.98815 314.53732,184.2166 468.5,205.81744 c 6.93906,1.32552 3.87453,11.09005 4.46875,6.74506 -0.34752,-20.92554 0.67445,-41.93481 -0.46875,-62.8125 -2.48533,-15.84709 -18.49858,-27.12243 -34.28125,-25.21875 -54.45833,0 -108.91667,0 -163.375,0 C 275.15236,107.54816 259.7864,92.613606 242.9375,93.625 178.1773,93.6459 113.41541,93.58325 48.65625,93.65625 z"
       fill="url(#linearGradient3798)"
       stroke="none"
       fill-opacity="1" />
  </g>
  <g
     id="g4604"
     transform="matrix(0.41363212,0,0,0.41363212,13.725357,51.624423)">
    <path
       inkscape:connector-curvature="0"
       d="m 108.39009,37.85491 c -6.77718,19.179754 3.03514,47.638329 13.15625,69.28125 3.10401,6.6376 6.68566,12.55487 10.40625,17.46875 8.42257,-6.32771 17.33519,-12.28915 26.65625,-17.78125 -1.35671,-4.64868 -3.16292,-9.537981 -5.46875,-14.468751 -10.12112,-21.642922 -27.98677,-33.68886 -44.75,-54.499999 z m 50.21875,68.96875 c 3.10201,10.62886 3.72424,20.03277 1.71875,26 12.3357,18.96967 41.12379,75.04541 74.28125,144.90625 0.35218,-0.008 0.70814,-0.0313 1.0625,-0.0313 22.34573,0 40.46875,16.49642 40.46875,36.84375 0,10.30223 -4.63726,19.62607 -12.125,26.3125 16.59194,36.37422 30.7035,68.71247 40.9375,93.53125 49.99635,-13.85254 82.16737,-67.16523 18.03125,-98.5 -34.71764,-16.96188 -29.34412,-58.96698 27.125,-64.5 81.46778,-7.98246 183.02799,-41.06761 98.125,-140.1875 -39.55125,-46.174051 -92.7914,-65.025043 -147.3125,-64.96875 -49.47937,0.05109 -100.00987,15.668462 -142.3125,40.59375 z m 146.34375,327.5625 c -6.29772,1.74491 -12.88742,2.88077 -19.59375,3.25 16.66669,31.98187 28.03402,51.25705 30.1875,50.25 l 6.5625,-3.09375 c 2.04176,-0.95481 -4.64509,-20.06508 -17.15625,-50.40625 z m -19.59375,3.25 c -12.07686,-23.1744 -26.9449,-53.05629 -43.09375,-86.75 -2.14779,0.32085 -4.3464,0.5 -6.59375,0.5 -22.34573,0 -40.46875,-16.49642 -40.46875,-36.84375 0,-12.04317 6.34068,-22.74572 16.15625,-29.46875 -31.19127,-67.83967 -54.85152,-123.84985 -61.84375,-145.9375 -5.33146,-1.42014 -11.62872,-6.69436 -17.5625,-14.53125 -46.016209,34.57106 -77.151769,80.60327 -77.187499,127.15625 -0.1032,134.44799 112.233249,184.20505 224.312499,186 2.10405,0.0337 4.19681,-0.0102 6.28125,-0.125 z m -74,-152.5625 c 4.05395,8.81716 8.24329,17.79941 12.53125,26.96875 6.26144,13.38942 12.39204,26.36062 18.375,38.84375 8.39515,-1.25412 15.93647,-4.83986 21.75,-10.03125 -5.7632,-12.63457 -11.81064,-25.68923 -18.09375,-39.125 -3.82045,-8.16963 -7.58536,-16.14713 -11.3125,-24 -8.71148,0.20398 -16.74483,2.88813 -23.25,7.34375 z"
       id="path3822"
       fill="#000000"
       filter="url(#filter3828)"
       stroke="none"
       fill-opacity="1" />
    <path
       inkscape:connector-curvature="0"
       id="path2987"
       d="m 95.232191,26.670699 c -6.77718,19.179754 3.03514,47.638334 13.156249,69.28125 3.10401,6.637601 6.68566,12.554871 10.40625,17.468751 8.42257,-6.32771 17.33519,-12.28915 26.65625,-17.781251 -1.35671,-4.64868 -3.16292,-9.53798 -5.46875,-14.46875 -10.12112,-21.642923 -27.98677,-33.688861 -44.749999,-54.5 z m 50.218749,68.96875 c 3.10201,10.628861 3.72424,20.032771 1.71875,26.000001 12.3357,18.96967 41.12379,75.04541 74.28125,144.90625 0.35218,-0.008 0.70814,-0.0313 1.0625,-0.0313 22.34573,0 40.46875,16.49642 40.46875,36.84375 0,10.30223 -4.63726,19.62607 -12.125,26.3125 16.59194,36.37422 30.7035,68.71247 40.9375,93.53125 49.99635,-13.85254 82.16737,-67.16523 18.03125,-98.5 -34.71764,-16.96188 -29.34412,-58.96698 27.125,-64.5 81.46778,-7.98246 183.02799,-41.06761 98.125,-140.1875 -39.55125,-46.174056 -92.7914,-65.025044 -147.3125,-64.968751 -49.47937,0.05109 -100.00987,15.668462 -142.3125,40.59375 z M 291.79469,423.20195 c -6.29772,1.74491 -12.88742,2.88077 -19.59375,3.25 16.66669,31.98187 28.03402,51.25705 30.1875,50.25 l 6.5625,-3.09375 c 2.04176,-0.95481 -4.64509,-20.06508 -17.15625,-50.40625 z m -19.59375,3.25 c -12.07686,-23.1744 -26.9449,-53.05629 -43.09375,-86.75 -2.14779,0.32085 -4.3464,0.5 -6.59375,0.5 -22.34573,0 -40.46875,-16.49642 -40.46875,-36.84375 0,-12.04317 6.34068,-22.74572 16.15625,-29.46875 -31.19127,-67.83967 -54.85152,-123.84985 -61.84375,-145.9375 -5.33146,-1.42014 -11.62872,-6.69436 -17.5625,-14.53125 -46.016209,34.57106 -77.151769,80.60327 -77.187499,127.15625 -0.1032,134.44799 112.233249,184.20505 224.312499,186 2.10405,0.0337 4.19681,-0.0102 6.28125,-0.125 z m -74,-152.5625 c 4.05395,8.81716 8.24329,17.79941 12.53125,26.96875 6.26144,13.38942 12.39204,26.36062 18.375,38.84375 8.39515,-1.25412 15.93647,-4.83986 21.75,-10.03125 -5.7632,-12.63457 -11.81064,-25.68923 -18.09375,-39.125 -3.82045,-8.16963 -7.58536,-16.14713 -11.3125,-24 -8.71148,0.20398 -16.74483,2.88813 -23.25,7.34375 z"
       stroke-opacity="1"
       stroke-dasharray="none"
       fill="url(#linearGradient3844)"
       stroke="url(#radialGradient3846)"
       stroke-linejoin="miter"
       fill-opacity="1"
       stroke-linecap="butt"
       stroke-width="2"
       stroke-miterlimit="4" />
    <path
       sodipodi:nodetypes="ccccscccccc"
       inkscape:connector-curvature="0"
       d="m 146.26764,94.890809 c 3.10201,10.628861 3.49738,21.620791 1.49189,27.588021 12.3357,18.96967 28.03395,46.18879 45.24313,79.4117 48.45643,-19.62432 105.1629,2.997 242.07328,-81.87613 -39.55125,-46.174006 -92.7914,-65.024994 -147.3125,-64.968701 -49.47937,0.05109 -99.19317,14.919823 -141.4958,39.84511 z m 21.76088,117.791741 c -13.26802,-31.17434 -24.09983,-62.61801 -31.33104,-84.52642 -5.33146,-1.42014 -12.75724,-7.23349 -18.67411,-12.10385 -71.506789,40.50837 -98.010429,160.68163 -43.952469,231.943 3.78269,-54.99247 37.402819,-115.09811 93.957619,-135.31273 z"
       id="path3840"
       fill="url(#linearGradient3842)"
       stroke="none"
       fill-opacity="1" />
  </g>
</svg>
