<?xml version="1.0" encoding="UTF-8" standalone="no"?>
<!-- Created with Inkscape (http://www.inkscape.org/) -->
<svg
   xmlns:dc="http://purl.org/dc/elements/1.1/"
   xmlns:cc="http://web.resource.org/cc/"
   xmlns:rdf="http://www.w3.org/1999/02/22-rdf-syntax-ns#"
   xmlns:svg="http://www.w3.org/2000/svg"
   xmlns="http://www.w3.org/2000/svg"
   xmlns:xlink="http://www.w3.org/1999/xlink"
   xmlns:sodipodi="http://sodipodi.sourceforge.net/DTD/sodipodi-0.dtd"
   xmlns:inkscape="http://www.inkscape.org/namespaces/inkscape"
   id="svg2"
   sodipodi:version="0.32"
   inkscape:version="0.44"
   width="256"
   height="256"
   version="1.0"
   sodipodi:docbase="/media/disk-hda2/svg1/apps"
   sodipodi:docname="graphic.svg">
  <metadata
     id="metadata7">
    <rdf:RDF>
      <cc:Work
         rdf:about="">
        <dc:format>image/svg+xml</dc:format>
        <dc:type
           rdf:resource="http://purl.org/dc/dcmitype/StillImage" />
      </cc:Work>
    </rdf:RDF>
  </metadata>
  <defs
     id="defs5">
    <linearGradient
       id="linearGradient2870"
       inkscape:collect="always">
      <stop
         id="stop2872"
         offset="0"
         style="stop-color:#7f7a75;stop-opacity:1;" />
      <stop
         id="stop2874"
         offset="1"
         style="stop-color:#8f6b1e;stop-opacity:0" />
    </linearGradient>
    <linearGradient
       inkscape:collect="always"
       id="linearGradient2858">
      <stop
         style="stop-color:#967245;stop-opacity:1"
         offset="0"
         id="stop2860" />
      <stop
         style="stop-color:#e0c39d;stop-opacity:0;"
         offset="1"
         id="stop2862" />
    </linearGradient>
    <linearGradient
       inkscape:collect="always"
       id="linearGradient2848">
      <stop
         style="stop-color:#7f7a75;stop-opacity:1;"
         offset="0"
         id="stop2850" />
      <stop
         style="stop-color:#8f6b1e;stop-opacity:1"
         offset="1"
         id="stop2852" />
    </linearGradient>
    <linearGradient
       inkscape:collect="always"
       id="linearGradient2840">
      <stop
         style="stop-color:#c5b6a1;stop-opacity:1"
         offset="0"
         id="stop2842" />
      <stop
         style="stop-color:#705f48;stop-opacity:1"
         offset="1"
         id="stop2844" />
    </linearGradient>
    <linearGradient
       inkscape:collect="always"
       id="linearGradient2826">
      <stop
         style="stop-color:#f0e3d1;stop-opacity:1;"
         offset="0"
         id="stop2828" />
      <stop
         style="stop-color:#f0e3d1;stop-opacity:0;"
         offset="1"
         id="stop2830" />
    </linearGradient>
    <linearGradient
       id="linearGradient2818"
       inkscape:collect="always">
      <stop
         id="stop2820"
         offset="0"
         style="stop-color:#a08a16;stop-opacity:1" />
      <stop
         id="stop2822"
         offset="1"
         style="stop-color:white;stop-opacity:1" />
    </linearGradient>
    <linearGradient
       inkscape:collect="always"
       id="linearGradient2808">
      <stop
         style="stop-color:black;stop-opacity:1"
         offset="0"
         id="stop2810" />
      <stop
         style="stop-color:#907554;stop-opacity:0;"
         offset="1"
         id="stop2812" />
    </linearGradient>
    <linearGradient
       inkscape:collect="always"
       id="linearGradient2782">
      <stop
         style="stop-color:#6974d6;stop-opacity:1;"
         offset="0"
         id="stop2784" />
      <stop
         style="stop-color:white;stop-opacity:1"
         offset="1"
         id="stop2786" />
    </linearGradient>
    <linearGradient
       inkscape:collect="always"
       xlink:href="#linearGradient2848"
       id="linearGradient3035"
       gradientUnits="userSpaceOnUse"
       x1="32.755512"
       y1="88.034676"
       x2="43.972527"
       y2="40.662247" />
    <linearGradient
       inkscape:collect="always"
       xlink:href="#linearGradient2840"
       id="linearGradient3037"
       gradientUnits="userSpaceOnUse"
       x1="22.117043"
       y1="85.312111"
       x2="22.505323"
       y2="53.605068" />
    <linearGradient
       inkscape:collect="always"
       xlink:href="#linearGradient2782"
       id="linearGradient3039"
       gradientUnits="userSpaceOnUse"
       gradientTransform="translate(-22.51879,20.58701)"
       spreadMethod="reflect"
       x1="-0.76328701"
       y1="39.629028"
       x2="-0.77657384"
       y2="36.036018" />
    <linearGradient
       inkscape:collect="always"
       xlink:href="#linearGradient2808"
       id="linearGradient3041"
       gradientUnits="userSpaceOnUse"
       x1="6.1594486"
       y1="72.222771"
       x2="2.9086282"
       y2="68.458672" />
    <linearGradient
       inkscape:collect="always"
       xlink:href="#linearGradient2826"
       id="linearGradient3043"
       gradientUnits="userSpaceOnUse"
       spreadMethod="reflect"
       x1="57.02256"
       y1="53.329582"
       x2="60.617435"
       y2="40.059032" />
    <linearGradient
       inkscape:collect="always"
       xlink:href="#linearGradient2818"
       id="linearGradient3045"
       gradientUnits="userSpaceOnUse"
       gradientTransform="translate(9.546554e-2,21.04831)"
       spreadMethod="reflect"
       x1="-0.76328701"
       y1="39.629028"
       x2="-0.77657384"
       y2="36.036018" />
    <linearGradient
       inkscape:collect="always"
       xlink:href="#linearGradient2858"
       id="linearGradient3047"
       gradientUnits="userSpaceOnUse"
       x1="44.152279"
       y1="77.707016"
       x2="47.858273"
       y2="65.41008" />
    <linearGradient
       inkscape:collect="always"
       xlink:href="#linearGradient2870"
       id="linearGradient3049"
       gradientUnits="userSpaceOnUse"
       x1="25.667891"
       y1="50.789925"
       x2="22.848637"
       y2="46.499111" />
    <linearGradient
       inkscape:collect="always"
       xlink:href="#linearGradient2848"
       id="linearGradient3051"
       gradientUnits="userSpaceOnUse"
       gradientTransform="translate(66.70702,2.501513)"
       x1="32.755512"
       y1="88.034676"
       x2="43.972527"
       y2="40.662247" />
    <linearGradient
       inkscape:collect="always"
       xlink:href="#linearGradient2840"
       id="linearGradient3053"
       gradientUnits="userSpaceOnUse"
       gradientTransform="translate(66.70702,2.501513)"
       x1="22.117043"
       y1="85.312111"
       x2="22.505323"
       y2="53.605068" />
    <linearGradient
       inkscape:collect="always"
       xlink:href="#linearGradient2782"
       id="linearGradient3055"
       gradientUnits="userSpaceOnUse"
       gradientTransform="translate(28.60814,63.50695)"
       spreadMethod="reflect"
       x1="-0.76328701"
       y1="39.629028"
       x2="-0.77657384"
       y2="36.036018" />
    <linearGradient
       inkscape:collect="always"
       xlink:href="#linearGradient2808"
       id="linearGradient3057"
       gradientUnits="userSpaceOnUse"
       gradientTransform="translate(66.70702,2.501513)"
       x1="6.1594486"
       y1="72.222771"
       x2="2.9086282"
       y2="68.458672" />
    <linearGradient
       inkscape:collect="always"
       xlink:href="#linearGradient2826"
       id="linearGradient3059"
       gradientUnits="userSpaceOnUse"
       gradientTransform="translate(66.70702,2.501513)"
       spreadMethod="reflect"
       x1="57.02256"
       y1="53.329582"
       x2="60.617435"
       y2="40.059032" />
    <linearGradient
       inkscape:collect="always"
       xlink:href="#linearGradient2818"
       id="linearGradient3061"
       gradientUnits="userSpaceOnUse"
       gradientTransform="translate(51.2224,63.96825)"
       spreadMethod="reflect"
       x1="-0.76328701"
       y1="39.629028"
       x2="-0.77657384"
       y2="36.036018" />
    <linearGradient
       inkscape:collect="always"
       xlink:href="#linearGradient2858"
       id="linearGradient3063"
       gradientUnits="userSpaceOnUse"
       gradientTransform="translate(66.70702,2.501513)"
       x1="44.152279"
       y1="77.707016"
       x2="47.858273"
       y2="65.41008" />
    <linearGradient
       inkscape:collect="always"
       xlink:href="#linearGradient2870"
       id="linearGradient3065"
       gradientUnits="userSpaceOnUse"
       gradientTransform="translate(66.70702,2.501513)"
       x1="25.667891"
       y1="50.789925"
       x2="22.848637"
       y2="46.499111" />
  </defs>
  <sodipodi:namedview
     inkscape:window-height="743"
     inkscape:window-width="1016"
     inkscape:pageshadow="2"
     inkscape:pageopacity="0.0"
     guidetolerance="10.0"
     gridtolerance="10.0"
     objecttolerance="10.0"
     borderopacity="1.0"
     bordercolor="#666666"
     pagecolor="#ffffff"
     id="base"
     width="256px"
     height="256px"
     inkscape:zoom="2.0664062"
     inkscape:cx="128"
     inkscape:cy="136.83891"
     inkscape:window-x="0"
     inkscape:window-y="0"
     inkscape:current-layer="svg2" />
  <g
     id="g3008"
     transform="matrix(2.225928,0,0,2.225928,-29.64171,1.519193)">
    <g
       id="g2905"
       transform="matrix(0.361303,-0.259921,0.259921,0.361303,1.507275,67.66605)">
      <path
         sodipodi:nodetypes="cccccccccccccccccc"
         id="path2907"
         d="M 8.2125975,67.432094 L 14.20095,58.192922 L 18.478345,53.231144 L 23.611218,48.269366 L 39.523126,40.912248 L 47.735723,41.25444 L 48.077915,55.284293 L 42.260658,58.877305 L 32.337103,71.367297 L 34.048061,80.94866 C 33.480203,84.206864 31.819691,84.187104 29.428475,81.975235 C 27.375326,86.412909 25.322176,86.260816 23.269027,82.488522 L 18.649441,74.275925 L 19.847111,70.340722 L 18.478345,69.827435 L 13.516567,76.842362 C 11.463418,79.854106 9.410268,79.696706 7.3571185,77.697841 L 8.2125975,67.432094 z "
         style="fill:url(#linearGradient3035);fill-opacity:1;fill-rule:evenodd;stroke:black;stroke-width:0.5;stroke-linecap:butt;stroke-linejoin:miter;stroke-miterlimit:4;stroke-dasharray:none;stroke-opacity:1" />
      <path
         style="fill:url(#linearGradient3037);fill-opacity:1;fill-rule:evenodd;stroke:none;stroke-width:0;stroke-linecap:butt;stroke-linejoin:miter;stroke-miterlimit:4;stroke-dasharray:none;stroke-opacity:1"
         d="M 8.2125975,67.432094 L 14.20095,58.192922 L 26.547116,67.1566 C 25.979258,70.414804 31.819691,84.187104 29.428475,81.975235 C 27.375326,86.412909 25.322176,86.260816 23.269027,82.488522 L 18.649441,74.275925 L 19.847111,70.340722 L 18.478345,69.827435 L 13.516567,76.842362 C 11.463418,79.854106 9.410268,79.696706 7.3571185,77.697841 L 8.2125975,67.432094 z "
         id="path2909"
         sodipodi:nodetypes="ccccccccccc" />
      <rect
         transform="matrix(0.789458,-0.613805,0.613805,0.789458,0,0)"
         y="55.339809"
         x="-36.206455"
         height="5.9883537"
         width="23.097937"
         id="rect2911"
         style="opacity:1;fill:url(#linearGradient3039);fill-opacity:1;stroke:none;stroke-width:0;stroke-linecap:round;stroke-linejoin:round;stroke-miterlimit:4;stroke-dasharray:none;stroke-dashoffset:0;stroke-opacity:1" />
      <path
         id="path2913"
         d="M 9.5813637,70.511818 C 2.5664367,73.933733 -0.51328734,75.473595 -0.51328734,75.473595 L 5.475065,66.063327 L 9.5813637,70.511818 z "
         style="fill:url(#linearGradient3041);fill-opacity:1;fill-rule:evenodd;stroke:black;stroke-width:0.5;stroke-linecap:round;stroke-linejoin:round;stroke-miterlimit:4;stroke-dasharray:none;stroke-opacity:1" />
      <path
         sodipodi:nodetypes="cccccccccccccccccccccccccc"
         id="path2915"
         d="M 18.307249,56.995251 C 12.649294,57.226085 13.362322,65.663294 14.885333,66.234423 C 20.018207,69.972952 25.15108,68.749173 30.283954,69.143051 C 34.276189,68.909229 38.268423,67.113672 42.260658,70.682913 C 44.922908,73.600097 48.381996,75.521233 52.868597,76.157978 C 58.119014,77.976039 62.303642,81.92568 69.635983,79.579894 C 74.939952,78.546321 80.243921,78.543177 85.54789,78.382223 L 85.54789,58.364017 C 80.190681,56.895315 75.913449,54.809484 73.742282,51.520186 C 69.170145,45.173105 61.802231,42.320744 55.606129,38.003619 L 52.013118,34.239512 C 48.187915,31.233211 44.782485,32.424649 41.405179,33.89732 C 38.211391,35.111376 35.017604,36.216335 31.823816,36.977044 C 27.106595,36.941918 24.710172,40.001189 21.215877,41.59663 C 18.05096,44.277604 13.928177,45.681423 11.976705,49.980324 C 9.5813636,52.603792 8.0985346,55.455389 7.5282146,58.535113 L 4.9617776,62.128124 C 4.0196896,63.734877 3.7175786,68.379124 7.8704056,66.405519 C 11.614891,62.666351 12.627023,57.105615 20.018207,55.79758 L 34.390252,44.676355 L 47.05134,41.938822 L 47.05134,51.862377 C 47.850806,55.855631 45.207316,56.405929 42.431754,56.824155 L 33.021486,56.653059 C 30.593552,56.400492 28.033392,56.280151 25.15108,56.481963 L 18.307249,56.995251 z "
         style="fill:#e0c39d;fill-opacity:1;fill-rule:evenodd;stroke:black;stroke-width:0.1;stroke-linecap:butt;stroke-linejoin:miter;stroke-miterlimit:4;stroke-dasharray:none;stroke-opacity:1" />
      <path
         sodipodi:nodetypes="ccccccc"
         id="path2917"
         d="M 48.026744,37.212602 C 55.762433,31.719366 66.043633,52.348261 82.993584,59.962112 C 86.664498,59.319195 83.019198,70.173184 82.993584,75.339096 C 77.959181,81.425502 58.278067,70.424079 45.920308,67.96657 C 41.225083,65.634694 40.327836,61.197366 44.656447,58.908894 C 48.287492,56.090257 49.307979,51.966341 48.448032,46.902208 L 48.026744,37.212602 z "
         style="fill:url(#linearGradient3043);fill-opacity:1;fill-rule:evenodd;stroke:none;stroke-width:1px;stroke-linecap:butt;stroke-linejoin:miter;stroke-opacity:1" />
      <rect
         style="opacity:1;fill:url(#linearGradient3045);fill-opacity:1;stroke:#7f670c;stroke-width:0.30000001;stroke-linecap:round;stroke-linejoin:round;stroke-miterlimit:4;stroke-dasharray:none;stroke-dashoffset:0;stroke-opacity:1"
         id="rect2919"
         width="72.332726"
         height="4.7790318"
         x="-12.705439"
         y="55.690125"
         transform="matrix(0.789458,-0.613805,0.613805,0.789458,0,0)" />
      <path
         style="fill:#e8e2be;fill-opacity:1;fill-rule:evenodd;stroke:#7f670c;stroke-width:0.30000001;stroke-linecap:butt;stroke-linejoin:miter;stroke-miterlimit:4;stroke-dasharray:none;stroke-opacity:1"
         d="M 4.8389575,64.600251 C 4.9046422,62.23142 6.2908624,60.612959 8.6606567,59.117085 C 11.189294,59.08666 10.315811,59.849773 9.8435324,61.039145 C 7.6822547,64.165537 7.81992,63.348663 6.0325319,65.414292 C 5.6955284,65.803756 4.7995166,65.973504 4.8389575,64.600251 z "
         id="path2921"
         sodipodi:nodetypes="cccss" />
      <path
         style="fill:url(#linearGradient3047);fill-opacity:1;fill-rule:evenodd;stroke:none;stroke-width:0;stroke-linecap:butt;stroke-linejoin:miter;stroke-miterlimit:4;stroke-dasharray:none;stroke-opacity:1"
         d="M 20.947735,65.750547 C 15.28978,65.981381 13.362322,65.663294 14.885333,66.234423 C 20.018207,69.972952 25.15108,68.749173 30.283954,69.143051 C 34.276189,68.909229 38.268423,67.113672 42.260658,70.682913 C 44.922908,73.600097 48.381996,75.521233 52.868597,76.157978 C 58.119014,77.976039 62.303642,81.92568 69.635983,79.579894 C 74.939952,78.546321 80.243921,78.543177 85.54789,78.382223 L 85.408917,76.152556 C 80.051708,74.683854 66.185342,80.797427 64.014175,77.508129 C 49.73376,77.505341 38.647674,60.726436 30.202134,67.108154 L 20.947735,65.750547 z "
         id="path2923"
         sodipodi:nodetypes="ccccccccccc" />
      <path
         sodipodi:nodetypes="cccss"
         id="path2925"
         d="M 16.430202,58.487607 C 18.325995,57.065763 20.703262,57.297566 23.19901,58.572244 C 24.515533,60.731341 22.960153,66.92322 21.696292,67.123995 C 17.904707,66.86069 17.325437,67.597943 16.008915,65.438846 C 14.692392,63.279749 14.53441,59.909451 16.430202,58.487607 z "
         style="fill:#e8e2be;fill-opacity:1;fill-rule:evenodd;stroke:#7f670c;stroke-width:0.30000001;stroke-linecap:butt;stroke-linejoin:miter;stroke-miterlimit:4;stroke-dasharray:none;stroke-opacity:1" />
      <path
         style="fill:url(#linearGradient3049);fill-opacity:1;fill-rule:evenodd;stroke:none;stroke-width:0;stroke-linecap:butt;stroke-linejoin:miter;stroke-miterlimit:4;stroke-dasharray:none;stroke-opacity:1"
         d="M 14.20095,58.192922 L 18.478345,53.231144 L 23.611218,48.269366 L 33.547289,44.386572 L 32.373971,45.000294 L 23.638282,51.094819 L 14.20095,58.192922 z "
         id="path2927"
         sodipodi:nodetypes="ccccccc" />
    </g>
    <path
       id="path2972"
       d="M 85.071213,38.151726 C 83.319541,38.257876 81.634868,38.915386 79.946213,39.651726 C 76.752421,40.865786 73.546247,41.984766 70.352463,42.745476 C 65.635243,42.710346 63.221758,45.775036 59.727463,47.370476 C 56.562549,50.051456 52.460185,51.446566 50.508713,55.745476 C 48.113373,58.368936 46.610283,61.228256 46.039963,64.307976 L 43.477463,67.901726 C 42.535376,69.508476 42.230886,74.156586 46.383713,72.182976 C 46.503385,72.063476 46.613075,71.930996 46.727463,71.807976 L 46.196213,72.651726 L 45.321213,82.901726 C 47.374363,84.900596 49.424314,85.069726 51.477463,82.057976 L 56.446213,75.026726 L 57.821213,75.557976 L 56.633713,79.495476 L 61.227463,87.714226 C 63.280612,91.486526 65.330565,91.620656 67.383713,87.182976 C 69.774929,89.394846 71.440856,89.409936 72.008713,86.151726 L 70.321213,76.589226 L 71.946213,74.526726 C 74.887927,74.102206 77.848245,73.834196 80.789963,76.464226 C 83.452214,79.381416 86.897113,81.296226 91.383713,81.932976 C 96.634123,83.751036 100.83262,87.685006 108.16496,85.339226 C 113.46893,84.305646 118.76724,84.312686 124.07121,84.151726 L 124.07121,64.120476 C 118.714,62.651776 114.42988,60.566026 112.25871,57.276726 C 107.68657,50.929646 100.32981,48.093856 94.133713,43.776726 L 90.539963,39.995476 C 88.627362,38.492326 86.822885,38.045566 85.071213,38.151726 z M 84.883713,61.214226 C 84.544194,61.550136 84.118375,61.773456 83.633713,61.964226 L 84.883713,61.214226 z "
       style="fill:black;fill-opacity:0.25396824;fill-rule:evenodd;stroke:none;stroke-width:0;stroke-linecap:butt;stroke-linejoin:miter;stroke-miterlimit:4;stroke-dasharray:none;stroke-opacity:1" />
    <g
       transform="translate(-33.37442,-2.567263)"
       id="g2979">
      <path
         style="fill:url(#linearGradient3051);fill-opacity:1;fill-rule:evenodd;stroke:black;stroke-width:0.5;stroke-linecap:butt;stroke-linejoin:miter;stroke-miterlimit:4;stroke-dasharray:none;stroke-opacity:1"
         d="M 74.919618,69.933607 L 80.90797,60.694435 L 85.185365,55.732657 L 90.318238,50.770879 L 106.23015,43.413761 L 114.44274,43.755953 L 114.78493,57.785806 L 108.96768,61.378818 L 99.044123,73.86881 L 100.75508,83.450173 C 100.18722,86.708377 98.526711,86.688617 96.135495,84.476748 C 94.082346,88.914422 92.029196,88.762329 89.976047,84.990035 L 85.356461,76.777438 L 86.554131,72.842235 L 85.185365,72.328948 L 80.223587,79.343875 C 78.170438,82.355619 76.117288,82.198219 74.064138,80.199354 L 74.919618,69.933607 z "
         id="path2778"
         sodipodi:nodetypes="cccccccccccccccccc" />
      <path
         sodipodi:nodetypes="ccccccccccc"
         id="path2838"
         d="M 74.919618,69.933607 L 80.90797,60.694435 L 93.254136,69.658113 C 92.686278,72.916317 98.526711,86.688617 96.135495,84.476748 C 94.082346,88.914422 92.029196,88.762329 89.976047,84.990035 L 85.356461,76.777438 L 86.554131,72.842235 L 85.185365,72.328948 L 80.223587,79.343875 C 78.170438,82.355619 76.117288,82.198219 74.064138,80.199354 L 74.919618,69.933607 z "
         style="fill:url(#linearGradient3053);fill-opacity:1;fill-rule:evenodd;stroke:none;stroke-width:0;stroke-linecap:butt;stroke-linejoin:miter;stroke-miterlimit:4;stroke-dasharray:none;stroke-opacity:1" />
      <rect
         style="fill:url(#linearGradient3055);fill-opacity:1;stroke:none;stroke-width:0;stroke-linecap:round;stroke-linejoin:round;stroke-miterlimit:4;stroke-dasharray:none;stroke-dashoffset:0;stroke-opacity:1"
         id="rect2780"
         width="23.097942"
         height="5.9883552"
         x="14.920472"
         y="98.259758"
         transform="matrix(0.789458,-0.613805,0.613805,0.789458,0,0)" />
      <path
         style="fill:url(#linearGradient3057);fill-opacity:1;fill-rule:evenodd;stroke:black;stroke-width:0.5;stroke-linecap:round;stroke-linejoin:round;stroke-miterlimit:4;stroke-dasharray:none;stroke-opacity:1"
         d="M 76.288384,73.013331 C 69.273457,76.435246 66.193733,77.975108 66.193733,77.975108 L 72.182085,68.56484 L 76.288384,73.013331 z "
         id="path2790" />
      <path
         style="fill:#e0c39d;fill-opacity:1;fill-rule:evenodd;stroke:black;stroke-width:0.1;stroke-linecap:butt;stroke-linejoin:miter;stroke-miterlimit:4;stroke-dasharray:none;stroke-opacity:1"
         d="M 85.014269,59.496764 C 79.356314,59.727598 80.069342,68.164807 81.592353,68.735936 C 86.725227,72.474465 91.8581,71.250686 96.990974,71.644564 C 100.98321,71.410742 104.97544,69.615185 108.96768,73.184426 C 111.62993,76.10161 115.08902,78.022746 119.57562,78.659491 C 124.82603,80.477552 129.01066,84.427193 136.343,82.081407 C 141.64697,81.047834 146.95094,81.04469 152.25491,80.883736 L 152.25491,60.86553 C 146.8977,59.396828 142.62047,57.310997 140.4493,54.021699 C 135.87716,47.674618 128.50925,44.822257 122.31315,40.505132 L 118.72014,36.741025 C 114.89494,33.734724 111.48951,34.926162 108.1122,36.398833 C 104.91841,37.612889 101.72462,38.717848 98.530836,39.478557 C 93.813615,39.443431 91.417192,42.502702 87.922897,44.098143 C 84.75798,46.779117 80.635197,48.182936 78.683725,52.481837 C 76.288384,55.105305 74.805555,57.956902 74.235235,61.036626 L 71.668798,64.629637 C 70.72671,66.23639 70.424599,70.880637 74.577426,68.907032 C 78.321911,65.167864 79.334043,59.607128 86.725227,58.299093 L 101.09727,47.177868 L 113.75836,44.440335 L 113.75836,54.36389 C 114.55783,58.357144 111.91434,58.907442 109.13877,59.325668 L 99.728506,59.154572 C 97.300572,58.902005 94.740412,58.781664 91.8581,58.983476 L 85.014269,59.496764 z "
         id="path1890"
         sodipodi:nodetypes="cccccccccccccccccccccccccc" />
      <path
         style="fill:url(#linearGradient3059);fill-opacity:1;fill-rule:evenodd;stroke:none;stroke-width:1px;stroke-linecap:butt;stroke-linejoin:miter;stroke-opacity:1"
         d="M 114.73376,39.714115 C 122.46945,34.220879 132.75065,54.849774 149.7006,62.463625 C 153.37152,61.820708 149.72622,72.674697 149.7006,77.840609 C 144.6662,83.927015 124.98509,72.925592 112.62733,70.468083 C 107.9321,68.136207 107.03486,63.698879 111.36347,61.410407 C 114.99451,58.59177 116.015,54.467854 115.15505,49.403721 L 114.73376,39.714115 z "
         id="path2824"
         sodipodi:nodetypes="ccccccc" />
      <rect
         transform="matrix(0.789458,-0.613805,0.613805,0.789458,0,0)"
         y="98.610069"
         x="38.421494"
         height="4.7790332"
         width="72.332741"
         id="rect2814"
         style="fill:url(#linearGradient3061);fill-opacity:1;stroke:#7f670c;stroke-width:0.3000001;stroke-linecap:round;stroke-linejoin:round;stroke-miterlimit:4;stroke-dasharray:none;stroke-dashoffset:0;stroke-opacity:1" />
      <path
         sodipodi:nodetypes="cccss"
         id="path2836"
         d="M 71.545978,67.101764 C 71.611662,64.732933 72.997882,63.114472 75.367677,61.618598 C 77.896314,61.588173 77.022831,62.351286 76.550552,63.540658 C 74.389275,66.66705 74.52694,65.850176 72.739552,67.915805 C 72.402548,68.305269 71.506537,68.475017 71.545978,67.101764 z "
         style="fill:#e8e2be;fill-opacity:1;fill-rule:evenodd;stroke:#7f670c;stroke-width:0.30000001;stroke-linecap:butt;stroke-linejoin:miter;stroke-miterlimit:4;stroke-dasharray:none;stroke-opacity:1" />
      <path
         sodipodi:nodetypes="ccccccccccc"
         id="path2856"
         d="M 87.654755,68.25206 C 81.9968,68.482894 80.069342,68.164807 81.592353,68.735936 C 86.725227,72.474465 91.8581,71.250686 96.990974,71.644564 C 100.98321,71.410742 104.97544,69.615185 108.96768,73.184426 C 111.62993,76.10161 115.08902,78.022746 119.57562,78.659491 C 124.82603,80.477552 129.01066,84.427193 136.343,82.081407 C 141.64697,81.047834 146.95094,81.04469 152.25491,80.883736 L 152.11594,78.654069 C 146.75873,77.185367 132.89236,83.29894 130.72119,80.009642 C 116.44078,80.006854 105.35469,63.227949 96.909154,69.609667 L 87.654755,68.25206 z "
         style="fill:url(#linearGradient3063);fill-opacity:1;fill-rule:evenodd;stroke:none;stroke-width:0;stroke-linecap:butt;stroke-linejoin:miter;stroke-miterlimit:4;stroke-dasharray:none;stroke-opacity:1" />
      <path
         style="fill:#e8e2be;fill-opacity:1;fill-rule:evenodd;stroke:#7f670c;stroke-width:0.30000001;stroke-linecap:butt;stroke-linejoin:miter;stroke-miterlimit:4;stroke-dasharray:none;stroke-opacity:1"
         d="M 83.137222,60.98912 C 85.033015,59.567276 87.410282,59.799079 89.90603,61.073757 C 91.222553,63.232854 89.667173,69.424733 88.403312,69.625508 C 84.611727,69.362203 84.032457,70.099456 82.715935,67.940359 C 81.399412,65.781262 81.24143,62.410964 83.137222,60.98912 z "
         id="path2834"
         sodipodi:nodetypes="cccss" />
      <path
         sodipodi:nodetypes="ccccccc"
         id="path2866"
         d="M 80.90797,60.694435 L 85.185365,55.732657 L 90.318238,50.770879 L 100.25431,46.888085 L 99.080991,47.501807 L 90.345302,53.596332 L 80.90797,60.694435 z "
         style="fill:url(#linearGradient3065);fill-opacity:1;fill-rule:evenodd;stroke:none;stroke-width:0;stroke-linecap:butt;stroke-linejoin:miter;stroke-miterlimit:4;stroke-dasharray:none;stroke-opacity:1" />
    </g>
  </g>
  <g
     id="layer1"
     inkscape:label="1. réteg"
     transform="translate(10.26237,0.983874)">
    <path
       id="text3905"
       d="M 14.672896,-7.9438771 L 9.3818802,-7.9438771 L 8.5469192,-5.5532521 L 5.1455522,-5.5532521 L 10.005903,-18.675323 L 14.040083,-18.675323 L 18.900435,-5.5532521 L 15.499067,-5.5532521 L 14.672896,-7.9438771 M 10.22563,-10.378448 L 13.820357,-10.378448 L 12.027388,-15.599151 L 10.22563,-10.378448 M 20.63188,-18.675323 L 26.248091,-18.675323 C 27.918004,-18.67531 29.198276,-18.30324 30.088911,-17.559112 C 30.985384,-16.820819 31.433625,-15.766133 31.433638,-14.395049 C 31.433625,-13.018089 30.985384,-11.957543 30.088911,-11.213409 C 29.198276,-10.475122 27.918004,-10.105982 26.248091,-10.105987 L 24.015669,-10.105987 L 24.015669,-5.5532521 L 20.63188,-5.5532521 L 20.63188,-18.675323 M 24.015669,-16.223174 L 24.015669,-12.558135 L 25.887739,-12.558135 C 26.543982,-12.558128 27.050817,-12.716331 27.408247,-13.032745 C 27.76566,-13.355002 27.944371,-13.809103 27.94438,-14.395049 C 27.944371,-14.980977 27.76566,-15.432149 27.408247,-15.748565 C 27.050817,-16.064961 26.543982,-16.223164 25.887739,-16.223174 L 24.015669,-16.223174"
       style="font-size:18px;font-style:normal;font-weight:bold;fill:black;fill-opacity:1;stroke:none;stroke-width:1px;stroke-linecap:butt;stroke-linejoin:miter;stroke-opacity:1;font-family:Bitstream Vera Sans" />
  </g>
</svg>
