<?xml version="1.0" encoding="UTF-8" standalone="no"?>
<svg
   xmlns:dc="http://purl.org/dc/elements/1.1/"
   xmlns:cc="http://creativecommons.org/ns#"
   xmlns:rdf="http://www.w3.org/1999/02/22-rdf-syntax-ns#"
   xmlns:svg="http://www.w3.org/2000/svg"
   xmlns="http://www.w3.org/2000/svg"
   xmlns:xlink="http://www.w3.org/1999/xlink"
   xmlns:sodipodi="http://sodipodi.sourceforge.net/DTD/sodipodi-0.dtd"
   xmlns:inkscape="http://www.inkscape.org/namespaces/inkscape"
   sodipodi:docname="Korpskommandant.svg"
   inkscape:version="1.0 (4035a4f, 2020-05-01)"
   id="svg8"
   version="1.1"
   viewBox="0 0 255 255"
   height="255mm"
   width="255mm">
  <defs
     id="defs2">
    <linearGradient
       id="linearGradient4678"
       inkscape:collect="always">
      <stop
         id="stop4674"
         offset="0"
         style="stop-color:#898989;stop-opacity:1" />
      <stop
         id="stop4676"
         offset="1"
         style="stop-color:#000000;stop-opacity:1" />
    </linearGradient>
    <linearGradient
       id="linearGradient4668"
       inkscape:collect="always">
      <stop
         id="stop4664"
         offset="0"
         style="stop-color:#ffffff;stop-opacity:1;" />
      <stop
         id="stop4666"
         offset="1"
         style="stop-color:#000000;stop-opacity:1" />
    </linearGradient>
    <linearGradient
       inkscape:collect="always"
       id="linearGradient1074">
      <stop
         style="stop-color:#d3d3d6;stop-opacity:1"
         offset="0"
         id="stop4653" />
      <stop
         style="stop-color:#585858;stop-opacity:1"
         offset="1"
         id="stop4655" />
    </linearGradient>
    <linearGradient
       id="linearGradient1106"
       inkscape:collect="always">
      <stop
         id="stop1102"
         offset="0"
         style="stop-color:#a0a0a0;stop-opacity:1" />
      <stop
         id="stop1104"
         offset="1"
         style="stop-color:#000000;stop-opacity:1" />
    </linearGradient>
    <linearGradient
       id="linearGradient1074-3"
       inkscape:collect="always">
      <stop
         id="stop1070"
         offset="0"
         style="stop-color:#7d7d82;stop-opacity:1;" />
      <stop
         id="stop1072"
         offset="1"
         style="stop-color:#000000;stop-opacity:1" />
    </linearGradient>
    <clipPath
       id="clipPath1131"
       clipPathUnits="userSpaceOnUse">
      <g
         id="g1205"
         style="fill:#eed588;fill-opacity:1">
        <g
           transform="translate(0.43612637,0.29075092)"
           id="g1155"
           style="fill:#eed588;fill-opacity:1">
          <path
             style="fill:#eed588;fill-opacity:1;stroke:none;stroke-width:0.26458332px;stroke-linecap:butt;stroke-linejoin:miter;stroke-opacity:1"
             d="m 100.89057,145.00936 c -1.626253,0.51392 -0.58442,2.43263 0.50781,1.81779 21.38848,-7.05087 29.61483,3.9337 36.1268,16.71818 4.88919,8.06231 8.92163,5.44912 12.64767,0.43612 l 3.34363,-5.37889 -1.23509,-0.50822 -2.69004,4.72411 c -3.3295,4.27548 -6.8054,6.42825 -10.90317,-0.43613 -6.36134,-13.80579 -15.14895,-24.14379 -37.79761,-17.37296 z"
             id="path1133"
             inkscape:connector-curvature="0"
             sodipodi:nodetypes="ccccccccc" />
          <path
             style="fill:#eed588;fill-opacity:1;stroke:none;stroke-width:0.26458332px;stroke-linecap:butt;stroke-linejoin:miter;stroke-opacity:1"
             d="m 115.30877,144.80992 c -0.11848,2.385 -1.06058,3.67186 -4.08173,2.18664 -6.92119,-1.18249 -12.412159,0.71001 -15.452248,7.87189 -0.389466,1.70023 -2.061858,2.54519 -3.57151,3.49863 4.299075,-1.0463 7.641758,-3.24028 12.901168,-3.13418 4.15239,0.44539 7.36195,-0.83773 9.18389,-4.66483 0.75317,-2.71612 1.50635,-4.16433 2.25952,-5.75815 z"
             id="path1135"
             inkscape:connector-curvature="0"
             sodipodi:nodetypes="cccccccc" />
          <path
             style="fill:#eed588;fill-opacity:1;stroke:none;stroke-width:0.26458332px;stroke-linecap:butt;stroke-linejoin:miter;stroke-opacity:1"
             d="m 116.3292,144.59125 1.02043,0.36444 c 3.34698,5.72921 3.29572,10.93562 1.60354,15.88958 -2.99226,5.97107 -7.90943,7.20389 -13.41139,6.99724 1.65101,-1.74093 3.37197,-3.39793 4.08173,-6.26836 1.90897,-4.02965 3.01475,-9.95726 6.19547,-11.44342 2.31747,-0.70399 1.88007,-3.08886 0.51022,-5.53948 z"
             id="path1137"
             inkscape:connector-curvature="0"
             sodipodi:nodetypes="ccccccc" />
          <path
             style="fill:#eed588;fill-opacity:1;stroke:none;stroke-width:0.26458332px;stroke-linecap:butt;stroke-linejoin:miter;stroke-opacity:1"
             d="m 118.22429,145.02858 c 5.09149,3.95597 11.08646,6.86581 12.6825,14.86915 0.93005,3.24753 2.62126,6.07989 5.68526,8.16345 -6.87801,1.21925 -9.60653,-1.8914 -12.0994,-5.24794 -5.8657,-9.07952 -4.29752,-14.53912 -6.92435,-17.20156 z"
             id="path1139"
             inkscape:connector-curvature="0"
             sodipodi:nodetypes="cccccc" />
          <path
             style="fill:#eed588;fill-opacity:1;stroke:none;stroke-width:0.26458332px;stroke-linecap:butt;stroke-linejoin:miter;stroke-opacity:1"
             d="m 126.67929,147.06944 c 3.43106,0.91859 5.64243,-0.80548 7.94479,-2.33241 1.99935,-1.48021 6.9803,-0.47575 11.15186,-0.14578 -1.9493,0.74039 -2.50696,2.64049 -3.35285,4.30039 -2.16946,4.17347 -6.04676,3.71137 -10.93319,0.51022 l -4.37328,-1.53065 z"
             id="path1141"
             inkscape:connector-curvature="0"
             sodipodi:nodetypes="ccccccc" />
          <path
             style="fill:#eed588;fill-opacity:1;stroke:none;stroke-width:0.26458332px;stroke-linecap:butt;stroke-linejoin:miter;stroke-opacity:1"
             d="m 133.74942,153.48359 c 1.2148,0.58598 2.4296,1.37521 3.6444,0.65599 0.0134,-2.08898 3.59476,-2.56832 3.35285,0.51021 -0.039,2.61777 -3.15292,2.51884 -3.0613,0.87466 -1.54225,0.41719 -2.7793,-0.23382 -3.93595,-1.16621 z"
             id="path1143"
             inkscape:connector-curvature="0"
             sodipodi:nodetypes="cccccc" />
          <path
             sodipodi:nodetypes="cccccc"
             inkscape:connector-curvature="0"
             id="path1145"
             d="m 123.92985,145.82222 c 1.32841,-0.23332 2.77547,-0.3016 3.34201,-1.59468 -1.2085,-1.70398 1.4196,-4.18369 3.02018,-1.54286 1.49638,2.14828 -1.08973,3.88561 -1.97508,2.49713 -1.00872,1.23898 -2.39315,1.43248 -3.87656,1.35058 z"
             style="fill:#eed588;fill-opacity:1;stroke:none;stroke-width:0.26458332px;stroke-linecap:butt;stroke-linejoin:miter;stroke-opacity:1" />
          <path
             style="fill:#eed588;fill-opacity:1;stroke:none;stroke-width:0.1982469px;stroke-linecap:butt;stroke-linejoin:miter;stroke-opacity:1"
             d="m 138.22425,162.27176 c -0.57223,0.83859 -1.29284,1.65238 -0.91224,2.65024 1.5234,0.26496 1.44746,3.0065 -0.77115,2.4496 -1.90639,-0.34866 -1.46389,-2.66945 -0.2745,-2.40017 -0.12117,-1.20633 0.50118,-2.05365 1.31938,-2.8064 z"
             id="path1147"
             inkscape:connector-curvature="0"
             sodipodi:nodetypes="cccccc" />
          <path
             style="fill:#eed588;fill-opacity:1;stroke:none;stroke-width:0.26458332px;stroke-linecap:butt;stroke-linejoin:miter;stroke-opacity:1"
             d="m 136.81072,157.78398 c 9.79031,-6.06883 14.20149,6.09888 22.66816,8.09056 -9.85229,10.3562 -14.69038,-8.01573 -22.30372,-6.77858 z"
             id="path1149"
             inkscape:connector-curvature="0"
             sodipodi:nodetypes="cccc" />
          <path
             style="fill:#eed588;fill-opacity:1;stroke:none;stroke-width:0.20920862px;stroke-linecap:butt;stroke-linejoin:miter;stroke-opacity:1"
             d="m 151.45374,160.08272 c 0.60089,-0.88106 1.36071,-1.73825 0.94103,-2.77264 -1.63188,-0.25585 -1.58601,-3.11255 0.79279,-2.56178 2.04234,0.33799 1.59922,2.76126 0.32437,2.49648 0.14496,1.25496 -0.50929,2.14577 -1.37424,2.94068 z"
             id="path1151"
             inkscape:connector-curvature="0"
             sodipodi:nodetypes="cccccc" />
          <path
             style="fill:#eed588;fill-opacity:1;stroke:none;stroke-width:0.26458332px;stroke-linecap:butt;stroke-linejoin:miter;stroke-opacity:1"
             d="m 141.54844,156.69066 c 14.53346,3.56841 10.69975,-7.71536 15.7438,-9.40255 -7.52679,-7.37351 -9.27866,5.61457 -16.10824,8.74655 z"
             id="path1153"
             inkscape:connector-curvature="0"
             sodipodi:nodetypes="cccc" />
        </g>
        <g
           id="g1179"
           transform="translate(-59.022436,-3.3436355)"
           style="fill:#eed588;fill-opacity:1">
          <path
             sodipodi:nodetypes="ccccccccc"
             inkscape:connector-curvature="0"
             id="path1157"
             d="m 100.89057,145.00936 c -1.626253,0.51392 -0.58442,2.43263 0.50781,1.81779 21.38848,-7.05087 29.61483,3.9337 36.1268,16.71818 4.88919,8.06231 8.92163,5.44912 12.64767,0.43612 l 3.34363,-5.37889 -1.23509,-0.50822 -2.69004,4.72411 c -3.3295,4.27548 -6.8054,6.42825 -10.90317,-0.43613 -6.36134,-13.80579 -15.14895,-24.14379 -37.79761,-17.37296 z"
             style="fill:#eed588;fill-opacity:1;stroke:none;stroke-width:0.26458332px;stroke-linecap:butt;stroke-linejoin:miter;stroke-opacity:1" />
          <path
             sodipodi:nodetypes="cccccccc"
             inkscape:connector-curvature="0"
             id="path1159"
             d="m 115.30877,144.80992 c -0.11848,2.385 -1.06058,3.67186 -4.08173,2.18664 -6.92119,-1.18249 -12.412159,0.71001 -15.452248,7.87189 -0.389466,1.70023 -2.061858,2.54519 -3.57151,3.49863 4.299075,-1.0463 7.641758,-3.24028 12.901168,-3.13418 4.15239,0.44539 7.36195,-0.83773 9.18389,-4.66483 0.75317,-2.71612 1.50635,-4.16433 2.25952,-5.75815 z"
             style="fill:#eed588;fill-opacity:1;stroke:none;stroke-width:0.26458332px;stroke-linecap:butt;stroke-linejoin:miter;stroke-opacity:1" />
          <path
             sodipodi:nodetypes="ccccccc"
             inkscape:connector-curvature="0"
             id="path1161"
             d="m 116.3292,144.59125 1.02043,0.36444 c 3.34698,5.72921 3.29572,10.93562 1.60354,15.88958 -2.99226,5.97107 -7.90943,7.20389 -13.41139,6.99724 1.65101,-1.74093 3.37197,-3.39793 4.08173,-6.26836 1.90897,-4.02965 3.01475,-9.95726 6.19547,-11.44342 2.31747,-0.70399 1.88007,-3.08886 0.51022,-5.53948 z"
             style="fill:#eed588;fill-opacity:1;stroke:none;stroke-width:0.26458332px;stroke-linecap:butt;stroke-linejoin:miter;stroke-opacity:1" />
          <path
             sodipodi:nodetypes="cccccc"
             inkscape:connector-curvature="0"
             id="path1163"
             d="m 118.22429,145.02858 c 5.09149,3.95597 11.08646,6.86581 12.6825,14.86915 0.93005,3.24753 2.62126,6.07989 5.68526,8.16345 -6.87801,1.21925 -9.60653,-1.8914 -12.0994,-5.24794 -5.8657,-9.07952 -4.29752,-14.53912 -6.92435,-17.20156 z"
             style="fill:#eed588;fill-opacity:1;stroke:none;stroke-width:0.26458332px;stroke-linecap:butt;stroke-linejoin:miter;stroke-opacity:1" />
          <path
             sodipodi:nodetypes="ccccccc"
             inkscape:connector-curvature="0"
             id="path1165"
             d="m 126.67929,147.06944 c 3.43106,0.91859 5.64243,-0.80548 7.94479,-2.33241 1.99935,-1.48021 6.9803,-0.47575 11.15186,-0.14578 -1.9493,0.74039 -2.50696,2.64049 -3.35285,4.30039 -2.16946,4.17347 -6.04676,3.71137 -10.93319,0.51022 l -4.37328,-1.53065 z"
             style="fill:#eed588;fill-opacity:1;stroke:none;stroke-width:0.26458332px;stroke-linecap:butt;stroke-linejoin:miter;stroke-opacity:1" />
          <path
             sodipodi:nodetypes="cccccc"
             inkscape:connector-curvature="0"
             id="path1167"
             d="m 133.74942,153.48359 c 1.2148,0.58598 2.4296,1.37521 3.6444,0.65599 0.0134,-2.08898 3.59476,-2.56832 3.35285,0.51021 -0.039,2.61777 -3.15292,2.51884 -3.0613,0.87466 -1.54225,0.41719 -2.7793,-0.23382 -3.93595,-1.16621 z"
             style="fill:#eed588;fill-opacity:1;stroke:none;stroke-width:0.26458332px;stroke-linecap:butt;stroke-linejoin:miter;stroke-opacity:1" />
          <path
             style="fill:#eed588;fill-opacity:1;stroke:none;stroke-width:0.26458332px;stroke-linecap:butt;stroke-linejoin:miter;stroke-opacity:1"
             d="m 123.92985,145.82222 c 1.32841,-0.23332 2.77547,-0.3016 3.34201,-1.59468 -1.2085,-1.70398 1.4196,-4.18369 3.02018,-1.54286 1.49638,2.14828 -1.08973,3.88561 -1.97508,2.49713 -1.00872,1.23898 -2.39315,1.43248 -3.87656,1.35058 z"
             id="path1169"
             inkscape:connector-curvature="0"
             sodipodi:nodetypes="cccccc" />
          <path
             sodipodi:nodetypes="cccccc"
             inkscape:connector-curvature="0"
             id="path1171"
             d="m 138.22425,162.27176 c -0.57223,0.83859 -1.29284,1.65238 -0.91224,2.65024 1.5234,0.26496 1.44746,3.0065 -0.77115,2.4496 -1.90639,-0.34866 -1.46389,-2.66945 -0.2745,-2.40017 -0.12117,-1.20633 0.50118,-2.05365 1.31938,-2.8064 z"
             style="fill:#eed588;fill-opacity:1;stroke:none;stroke-width:0.1982469px;stroke-linecap:butt;stroke-linejoin:miter;stroke-opacity:1" />
          <path
             sodipodi:nodetypes="cccc"
             inkscape:connector-curvature="0"
             id="path1173"
             d="m 136.81072,157.78398 c 9.79031,-6.06883 14.20149,6.09888 22.66816,8.09056 -9.85229,10.3562 -14.69038,-8.01573 -22.30372,-6.77858 z"
             style="fill:#eed588;fill-opacity:1;stroke:none;stroke-width:0.26458332px;stroke-linecap:butt;stroke-linejoin:miter;stroke-opacity:1" />
          <path
             sodipodi:nodetypes="cccccc"
             inkscape:connector-curvature="0"
             id="path1175"
             d="m 151.45374,160.08272 c 0.60089,-0.88106 1.36071,-1.73825 0.94103,-2.77264 -1.63188,-0.25585 -1.58601,-3.11255 0.79279,-2.56178 2.04234,0.33799 1.59922,2.76126 0.32437,2.49648 0.14496,1.25496 -0.50929,2.14577 -1.37424,2.94068 z"
             style="fill:#eed588;fill-opacity:1;stroke:none;stroke-width:0.20920862px;stroke-linecap:butt;stroke-linejoin:miter;stroke-opacity:1" />
          <path
             sodipodi:nodetypes="cccc"
             inkscape:connector-curvature="0"
             id="path1177"
             d="m 141.54844,156.69066 c 14.53346,3.56841 10.69975,-7.71536 15.7438,-9.40255 -7.52679,-7.37351 -9.27866,5.61457 -16.10824,8.74655 z"
             style="fill:#eed588;fill-opacity:1;stroke:none;stroke-width:0.26458332px;stroke-linecap:butt;stroke-linejoin:miter;stroke-opacity:1" />
        </g>
        <path
           sodipodi:nodetypes="cccccccc"
           inkscape:connector-curvature="0"
           id="path1181"
           d="m 149.99342,155.42233 c 0.11848,2.385 7.31172,3.09036 10.33287,1.60514 6.92119,-1.18249 8.77778,3.47214 11.81787,10.63402 0.38947,1.70023 -0.5549,0.36456 0.95475,1.318 -4.29907,-1.0463 -4.00737,-6.00241 -9.26678,-5.89631 -4.15239,0.44539 -10.99634,1.9244 -12.81828,-1.9027 -0.75317,-2.71612 -1.50635,-4.16433 -2.25952,-5.75815 z"
           style="fill:#eed588;fill-opacity:1;stroke:none;stroke-width:0.26458332px;stroke-linecap:butt;stroke-linejoin:miter;stroke-opacity:1" />
        <path
           sodipodi:nodetypes="ccccccc"
           inkscape:connector-curvature="0"
           id="path1183"
           d="m 152.68278,170.10542 -0.74541,-0.78642 c -0.39507,-6.62345 2.00457,-11.24417 5.75371,-14.89782 5.36861,-3.97308 10.3119,-2.84955 15.12598,-0.17768 -2.25974,0.80638 -4.54393,1.50627 -6.47478,3.74568 -3.52461,2.73119 -7.19091,7.51842 -10.6999,7.40594 -2.38537,-0.41985 -3.07347,1.90511 -2.9596,4.7103 z"
           style="fill:#eed588;fill-opacity:1;stroke:none;stroke-width:0.26458332px;stroke-linecap:butt;stroke-linejoin:miter;stroke-opacity:1" />
        <g
           id="g1203"
           style="fill:#eed588;fill-opacity:1">
          <path
             style="fill:#eed588;fill-opacity:1;stroke:none;stroke-width:0.26458332px;stroke-linecap:butt;stroke-linejoin:miter;stroke-opacity:1"
             d="m 8.7225287,140.35734 c -1.626253,0.51392 -0.58442,2.43263 0.50781,1.81779 10.6306963,-1.96273 6.2093813,4.36983 12.7213513,17.15431 4.88919,8.06231 8.92163,5.44912 12.64767,0.43612 l 3.34363,-5.37889 -1.23509,-0.50822 -2.69004,4.72411 c -3.3295,4.27548 -6.8054,6.42825 -10.90317,-0.43613 -6.36134,-13.80579 -2.937412,-18.91027 -14.3921613,-17.80909 z"
             id="path1185"
             inkscape:connector-curvature="0"
             sodipodi:nodetypes="ccccccccc" />
          <path
             style="fill:#eed588;fill-opacity:1;stroke:none;stroke-width:0.22407784px;stroke-linecap:butt;stroke-linejoin:miter;stroke-opacity:1"
             d="m 7.8442133,140.81269 c 3.6518907,3.95597 7.9518057,6.86581 9.0965717,14.86915 0.667082,3.24753 1.880109,6.07989 4.077775,8.16345 -4.933279,1.21925 -6.890321,-1.8914 -8.678341,-5.24794 -4.2071963,-9.07952 -3.0824131,-14.53912 -4.9665171,-17.20156 z"
             id="path1187"
             inkscape:connector-curvature="0"
             sodipodi:nodetypes="cccccc" />
          <path
             style="fill:#eed588;fill-opacity:1;stroke:none;stroke-width:0.26458332px;stroke-linecap:butt;stroke-linejoin:miter;stroke-opacity:1"
             d="m 11.1058,142.85355 c 3.43106,0.91859 5.64243,-0.80548 7.94479,-2.33241 1.99935,-1.48021 6.9803,-0.47575 11.15186,-0.14578 -1.9493,0.74039 -2.50696,2.64049 -3.35285,4.30039 -2.16946,4.17347 -6.04676,3.71137 -10.93319,0.51022 l -4.37328,-1.53065 z"
             id="path1189"
             inkscape:connector-curvature="0"
             sodipodi:nodetypes="ccccccc" />
          <path
             style="fill:#eed588;fill-opacity:1;stroke:none;stroke-width:0.26458332px;stroke-linecap:butt;stroke-linejoin:miter;stroke-opacity:1"
             d="m 18.17593,149.2677 c 1.2148,0.58598 2.4296,1.37521 3.6444,0.65599 0.0134,-2.08898 3.59476,-2.56832 3.35285,0.51021 -0.039,2.61777 -3.15292,2.51884 -3.0613,0.87466 -1.54225,0.41719 -2.7793,-0.23382 -3.93595,-1.16621 z"
             id="path1191"
             inkscape:connector-curvature="0"
             sodipodi:nodetypes="cccccc" />
          <path
             sodipodi:nodetypes="cccccc"
             inkscape:connector-curvature="0"
             id="path1193"
             d="m 8.35636,141.60633 c 1.32841,-0.23332 2.77547,-0.3016 3.34201,-1.59468 -1.2085,-1.70398 1.4196,-4.18369 3.02018,-1.54286 1.49638,2.14828 -1.08973,3.88561 -1.97508,2.49713 -1.00872,1.23898 -2.39315,1.43248 -3.87656,1.35058 z"
             style="fill:#eed588;fill-opacity:1;stroke:none;stroke-width:0.26458332px;stroke-linecap:butt;stroke-linejoin:miter;stroke-opacity:1" />
          <path
             style="fill:#eed588;fill-opacity:1;stroke:none;stroke-width:0.1982469px;stroke-linecap:butt;stroke-linejoin:miter;stroke-opacity:1"
             d="m 22.65076,158.05587 c -0.57223,0.83859 -1.29284,1.65238 -0.91224,2.65024 1.5234,0.26496 1.44746,3.0065 -0.77115,2.4496 -1.90639,-0.34866 -1.46389,-2.66945 -0.2745,-2.40017 -0.12117,-1.20633 0.50118,-2.05365 1.31938,-2.8064 z"
             id="path1195"
             inkscape:connector-curvature="0"
             sodipodi:nodetypes="cccccc" />
          <path
             style="fill:#eed588;fill-opacity:1;stroke:none;stroke-width:0.26458332px;stroke-linecap:butt;stroke-linejoin:miter;stroke-opacity:1"
             d="m 21.23723,153.56809 c 9.79031,-6.06883 14.20149,6.09888 22.66816,8.09056 -9.85229,10.3562 -14.69038,-8.01573 -22.30372,-6.77858 z"
             id="path1197"
             inkscape:connector-curvature="0"
             sodipodi:nodetypes="cccc" />
          <path
             style="fill:#eed588;fill-opacity:1;stroke:none;stroke-width:0.20920862px;stroke-linecap:butt;stroke-linejoin:miter;stroke-opacity:1"
             d="m 35.88025,155.86683 c 0.60089,-0.88106 1.36071,-1.73825 0.94103,-2.77264 -1.63188,-0.25585 -1.58601,-3.11255 0.79279,-2.56178 2.04234,0.33799 1.59922,2.76126 0.32437,2.49648 0.14496,1.25496 -0.50929,2.14577 -1.37424,2.94068 z"
             id="path1199"
             inkscape:connector-curvature="0"
             sodipodi:nodetypes="cccccc" />
          <path
             style="fill:#eed588;fill-opacity:1;stroke:none;stroke-width:0.26458332px;stroke-linecap:butt;stroke-linejoin:miter;stroke-opacity:1"
             d="m 25.97495,152.47477 c 14.53346,3.56841 10.69975,-7.71536 15.7438,-9.40255 -7.52679,-7.37351 -9.27866,5.61457 -16.10824,8.74655 z"
             id="path1201"
             inkscape:connector-curvature="0"
             sodipodi:nodetypes="cccc" />
        </g>
      </g>
    </clipPath>
    <filter
       height="1.2179365"
       y="-0.10896825"
       width="1.0431234"
       x="-0.021561682"
       id="filter1223"
       style="color-interpolation-filters:sRGB"
       inkscape:collect="always">
      <feGaussianBlur
         id="feGaussianBlur1225"
         stdDeviation="1.4888809"
         inkscape:collect="always" />
    </filter>
    <linearGradient
       gradientTransform="matrix(1.0934734,0,0,1.0934734,53.236522,-19.62806)"
       spreadMethod="reflect"
       gradientUnits="userSpaceOnUse"
       y2="156.52798"
       x2="175.19144"
       y1="152.20146"
       x1="62.435295"
       id="linearGradient1076"
       xlink:href="#linearGradient1074-3"
       inkscape:collect="always" />
    <linearGradient
       gradientTransform="matrix(1.0934734,0,0,1.0934734,53.236522,-19.62806)"
       spreadMethod="reflect"
       gradientUnits="userSpaceOnUse"
       y2="233.26253"
       x2="79.964264"
       y1="187.83406"
       x1="18.796984"
       id="linearGradient1108"
       xlink:href="#linearGradient1106"
       inkscape:collect="always" />
    <linearGradient
       gradientTransform="matrix(1.0934734,0,0,1.0934734,52.368191,-15.575847)"
       spreadMethod="reflect"
       gradientUnits="userSpaceOnUse"
       y2="115.90715"
       x2="137.81467"
       y1="110.10806"
       x1="62.538502"
       id="linearGradient1116"
       xlink:href="#linearGradient1074"
       inkscape:collect="always" />
    <filter
       height="1.0865195"
       y="-0.043259739"
       width="1.0616535"
       x="-0.030826736"
       id="filter1135"
       style="color-interpolation-filters:sRGB"
       inkscape:collect="always">
      <feGaussianBlur
         id="feGaussianBlur1137"
         stdDeviation="3.0272377"
         inkscape:collect="always" />
    </filter>
    <radialGradient
       spreadMethod="reflect"
       gradientUnits="userSpaceOnUse"
       gradientTransform="matrix(1,0,0,1.1851852,0,-33.72053)"
       r="3.9074914"
       fy="181.35817"
       fx="229.9631"
       cy="181.35817"
       cx="229.9631"
       id="radialGradient4670"
       xlink:href="#linearGradient4668"
       inkscape:collect="always" />
    <linearGradient
       spreadMethod="reflect"
       gradientUnits="userSpaceOnUse"
       y2="212.02893"
       x2="163.97459"
       y1="205.08228"
       x1="61.444614"
       id="linearGradient4680"
       xlink:href="#linearGradient4678"
       inkscape:collect="always" />
  </defs>
  <sodipodi:namedview
     inkscape:document-rotation="0"
     inkscape:window-maximized="1"
     inkscape:window-y="0"
     inkscape:window-x="0"
     inkscape:window-height="1056"
     inkscape:window-width="1920"
     inkscape:snap-global="false"
     inkscape:snap-nodes="false"
     inkscape:object-nodes="false"
     inkscape:snap-others="false"
     inkscape:snap-grids="false"
     inkscape:snap-to-guides="false"
     showgrid="false"
     inkscape:current-layer="layer1"
     inkscape:document-units="mm"
     inkscape:cy="481.88976"
     inkscape:cx="481.88976"
     inkscape:zoom="0.91410948"
     inkscape:pageshadow="2"
     inkscape:pageopacity="0"
     borderopacity="1.0"
     bordercolor="#666666"
     pagecolor="#ff0000"
     id="base" />
  <metadata
     id="metadata5">
    <rdf:RDF>
      <cc:Work
         rdf:about="">
        <dc:format>image/svg+xml</dc:format>
        <dc:type
           rdf:resource="http://purl.org/dc/dcmitype/StillImage" />
        <dc:title />
      </cc:Work>
    </rdf:RDF>
  </metadata>
  <g
     transform="translate(0,-42)"
     id="layer1"
     inkscape:groupmode="layer"
     inkscape:label="Layer 1">
    <path
       inkscape:connector-curvature="0"
       id="path1118"
       d="m 135.4649,94.904804 c -16.60207,0.053 -34.38531,1.08419 -53.446861,3.17397 -5.904997,0.94987 -10.364142,2.716226 -10.007658,7.642416 l -0.907439,25.05687 c -0.508595,0.19344 -0.996431,0.39241 -1.457793,0.59893 l -4.003373,63.50413 c 2.460238,18.6982 122.715354,15.81405 167.079204,11.19002 -53.29798,6.44835 -156.612351,8.19611 -167.079204,-10.09861 0.849164,7.1611 -12.614595,11.76719 -20.015314,15.46675 -33.055502,16.5218 -35.296643,26.88067 -22.381064,34.20825 25.939292,15.59738 65.253014,18.5243 109.539572,16.74006 41.17686,-2.08063 79.44204,-12.70108 106.21005,-57.04768 5.31573,-0.70223 8.76303,-1.41953 9.6976,-2.08876 l 2.91145,-58.04503 c -3.2111,-6.76896 -58.64265,-15.73036 -108.49312,-18.43453 33.89879,1.09802 66.51964,5.63779 98.30356,12.42973 l 8.91573,3.82147 0.91002,-22.01726 c 0.4782,-3.82752 -1.81705,-4.18849 -3.09334,-5.8229 C 218.23805,102.08668 181.36477,94.758204 135.4649,94.904804 Z"
       style="fill:#000000;fill-opacity:0.7096774;stroke:none;stroke-width:0.28931484px;stroke-linecap:butt;stroke-linejoin:miter;stroke-opacity:1;filter:url(#filter1135)" />
    <path
       sodipodi:nodetypes="ccccc"
       inkscape:connector-curvature="0"
       id="path1068"
       d="m 62.698391,115.16834 c 31.696638,-14.18815 176.705949,2.75547 181.959019,13.82888 l -2.91134,58.04493 c -7.58574,5.43201 -180.099265,14.06186 -183.050778,-8.37012 z"
       style="fill:url(#linearGradient1076);fill-opacity:1;stroke:none;stroke-width:0.28931484px;stroke-linecap:butt;stroke-linejoin:miter;stroke-opacity:1" />
    <g
       transform="matrix(1.0934734,0,0,1.0934734,53.236522,-19.628061)"
       id="g1301">
      <g
         id="g1031"
         transform="translate(0.43612634,1.0176283)"
         style="fill:#281f00;fill-opacity:1">
        <g
           id="g981"
           transform="translate(0.43612637,0.29075092)"
           style="fill:#281f00;fill-opacity:1">
          <path
             sodipodi:nodetypes="ccccccccc"
             inkscape:connector-curvature="0"
             id="path959"
             d="m 100.89057,145.00936 c -1.626253,0.51392 -0.58442,2.43263 0.50781,1.81779 21.38848,-7.05087 29.61483,3.9337 36.1268,16.71818 4.88919,8.06231 8.92163,5.44912 12.64767,0.43612 l 3.34363,-5.37889 -1.23509,-0.50822 -2.69004,4.72411 c -3.3295,4.27548 -6.8054,6.42825 -10.90317,-0.43613 -6.36134,-13.80579 -15.14895,-24.14379 -37.79761,-17.37296 z"
             style="fill:#281f00;fill-opacity:1;stroke:none;stroke-width:0.26458332px;stroke-linecap:butt;stroke-linejoin:miter;stroke-opacity:1" />
          <path
             sodipodi:nodetypes="cccccccc"
             inkscape:connector-curvature="0"
             id="path961"
             d="m 115.30877,144.80992 c -0.11848,2.385 -1.06058,3.67186 -4.08173,2.18664 -6.92119,-1.18249 -12.412159,0.71001 -15.452248,7.87189 -0.389466,1.70023 -2.061858,2.54519 -3.57151,3.49863 4.299075,-1.0463 7.641758,-3.24028 12.901168,-3.13418 4.15239,0.44539 7.36195,-0.83773 9.18389,-4.66483 0.75317,-2.71612 1.50635,-4.16433 2.25952,-5.75815 z"
             style="fill:#281f00;fill-opacity:1;stroke:none;stroke-width:0.26458332px;stroke-linecap:butt;stroke-linejoin:miter;stroke-opacity:1" />
          <path
             sodipodi:nodetypes="ccccccc"
             inkscape:connector-curvature="0"
             id="path963"
             d="m 116.3292,144.59125 1.02043,0.36444 c 3.34698,5.72921 3.29572,10.93562 1.60354,15.88958 -2.99226,5.97107 -7.90943,7.20389 -13.41139,6.99724 1.65101,-1.74093 3.37197,-3.39793 4.08173,-6.26836 1.90897,-4.02965 3.01475,-9.95726 6.19547,-11.44342 2.31747,-0.70399 1.88007,-3.08886 0.51022,-5.53948 z"
             style="fill:#281f00;fill-opacity:1;stroke:none;stroke-width:0.26458332px;stroke-linecap:butt;stroke-linejoin:miter;stroke-opacity:1" />
          <path
             sodipodi:nodetypes="cccccc"
             inkscape:connector-curvature="0"
             id="path965"
             d="m 118.22429,145.02858 c 5.09149,3.95597 11.08646,6.86581 12.6825,14.86915 0.93005,3.24753 2.62126,6.07989 5.68526,8.16345 -6.87801,1.21925 -9.60653,-1.8914 -12.0994,-5.24794 -5.8657,-9.07952 -4.29752,-14.53912 -6.92435,-17.20156 z"
             style="fill:#281f00;fill-opacity:1;stroke:none;stroke-width:0.26458332px;stroke-linecap:butt;stroke-linejoin:miter;stroke-opacity:1" />
          <path
             sodipodi:nodetypes="ccccccc"
             inkscape:connector-curvature="0"
             id="path967"
             d="m 126.67929,147.06944 c 3.43106,0.91859 5.64243,-0.80548 7.94479,-2.33241 1.99935,-1.48021 6.9803,-0.47575 11.15186,-0.14578 -1.9493,0.74039 -2.50696,2.64049 -3.35285,4.30039 -2.16946,4.17347 -6.04676,3.71137 -10.93319,0.51022 l -4.37328,-1.53065 z"
             style="fill:#281f00;fill-opacity:1;stroke:none;stroke-width:0.26458332px;stroke-linecap:butt;stroke-linejoin:miter;stroke-opacity:1" />
          <path
             sodipodi:nodetypes="cccccc"
             inkscape:connector-curvature="0"
             id="path969"
             d="m 133.74942,153.48359 c 1.2148,0.58598 2.4296,1.37521 3.6444,0.65599 0.0134,-2.08898 3.59476,-2.56832 3.35285,0.51021 -0.039,2.61777 -3.15292,2.51884 -3.0613,0.87466 -1.54225,0.41719 -2.7793,-0.23382 -3.93595,-1.16621 z"
             style="fill:#281f00;fill-opacity:1;stroke:none;stroke-width:0.26458332px;stroke-linecap:butt;stroke-linejoin:miter;stroke-opacity:1" />
          <path
             style="fill:#281f00;fill-opacity:1;stroke:none;stroke-width:0.26458332px;stroke-linecap:butt;stroke-linejoin:miter;stroke-opacity:1"
             d="m 123.92985,145.82222 c 1.32841,-0.23332 2.77547,-0.3016 3.34201,-1.59468 -1.2085,-1.70398 1.4196,-4.18369 3.02018,-1.54286 1.49638,2.14828 -1.08973,3.88561 -1.97508,2.49713 -1.00872,1.23898 -2.39315,1.43248 -3.87656,1.35058 z"
             id="path971"
             inkscape:connector-curvature="0"
             sodipodi:nodetypes="cccccc" />
          <path
             sodipodi:nodetypes="cccccc"
             inkscape:connector-curvature="0"
             id="path973"
             d="m 138.22425,162.27176 c -0.57223,0.83859 -1.29284,1.65238 -0.91224,2.65024 1.5234,0.26496 1.44746,3.0065 -0.77115,2.4496 -1.90639,-0.34866 -1.46389,-2.66945 -0.2745,-2.40017 -0.12117,-1.20633 0.50118,-2.05365 1.31938,-2.8064 z"
             style="fill:#281f00;fill-opacity:1;stroke:none;stroke-width:0.1982469px;stroke-linecap:butt;stroke-linejoin:miter;stroke-opacity:1" />
          <path
             sodipodi:nodetypes="cccc"
             inkscape:connector-curvature="0"
             id="path975"
             d="m 136.81072,157.78398 c 9.79031,-6.06883 14.20149,6.09888 22.66816,8.09056 -9.85229,10.3562 -14.69038,-8.01573 -22.30372,-6.77858 z"
             style="fill:#281f00;fill-opacity:1;stroke:none;stroke-width:0.26458332px;stroke-linecap:butt;stroke-linejoin:miter;stroke-opacity:1" />
          <path
             sodipodi:nodetypes="cccccc"
             inkscape:connector-curvature="0"
             id="path977"
             d="m 151.45374,160.08272 c 0.60089,-0.88106 1.36071,-1.73825 0.94103,-2.77264 -1.63188,-0.25585 -1.58601,-3.11255 0.79279,-2.56178 2.04234,0.33799 1.59922,2.76126 0.32437,2.49648 0.14496,1.25496 -0.50929,2.14577 -1.37424,2.94068 z"
             style="fill:#281f00;fill-opacity:1;stroke:none;stroke-width:0.20920862px;stroke-linecap:butt;stroke-linejoin:miter;stroke-opacity:1" />
          <path
             sodipodi:nodetypes="cccc"
             inkscape:connector-curvature="0"
             id="path979"
             d="m 141.54844,156.69066 c 14.53346,3.56841 10.69975,-7.71536 15.7438,-9.40255 -7.52679,-7.37351 -9.27866,5.61457 -16.10824,8.74655 z"
             style="fill:#281f00;fill-opacity:1;stroke:none;stroke-width:0.26458332px;stroke-linecap:butt;stroke-linejoin:miter;stroke-opacity:1" />
        </g>
        <g
           transform="translate(-59.022436,-3.3436355)"
           id="g1005"
           style="fill:#281f00;fill-opacity:1">
          <path
             style="fill:#281f00;fill-opacity:1;stroke:none;stroke-width:0.26458332px;stroke-linecap:butt;stroke-linejoin:miter;stroke-opacity:1"
             d="m 100.89057,145.00936 c -1.626253,0.51392 -0.58442,2.43263 0.50781,1.81779 21.38848,-7.05087 29.61483,3.9337 36.1268,16.71818 4.88919,8.06231 8.92163,5.44912 12.64767,0.43612 l 3.34363,-5.37889 -1.23509,-0.50822 -2.69004,4.72411 c -3.3295,4.27548 -6.8054,6.42825 -10.90317,-0.43613 -6.36134,-13.80579 -15.14895,-24.14379 -37.79761,-17.37296 z"
             id="path983"
             inkscape:connector-curvature="0"
             sodipodi:nodetypes="ccccccccc" />
          <path
             style="fill:#281f00;fill-opacity:1;stroke:none;stroke-width:0.26458332px;stroke-linecap:butt;stroke-linejoin:miter;stroke-opacity:1"
             d="m 115.30877,144.80992 c -0.11848,2.385 -1.06058,3.67186 -4.08173,2.18664 -6.92119,-1.18249 -12.412159,0.71001 -15.452248,7.87189 -0.389466,1.70023 -2.061858,2.54519 -3.57151,3.49863 4.299075,-1.0463 7.641758,-3.24028 12.901168,-3.13418 4.15239,0.44539 7.36195,-0.83773 9.18389,-4.66483 0.75317,-2.71612 1.50635,-4.16433 2.25952,-5.75815 z"
             id="path985"
             inkscape:connector-curvature="0"
             sodipodi:nodetypes="cccccccc" />
          <path
             style="fill:#281f00;fill-opacity:1;stroke:none;stroke-width:0.26458332px;stroke-linecap:butt;stroke-linejoin:miter;stroke-opacity:1"
             d="m 116.3292,144.59125 1.02043,0.36444 c 3.34698,5.72921 3.29572,10.93562 1.60354,15.88958 -2.99226,5.97107 -7.90943,7.20389 -13.41139,6.99724 1.65101,-1.74093 3.37197,-3.39793 4.08173,-6.26836 1.90897,-4.02965 3.01475,-9.95726 6.19547,-11.44342 2.31747,-0.70399 1.88007,-3.08886 0.51022,-5.53948 z"
             id="path987"
             inkscape:connector-curvature="0"
             sodipodi:nodetypes="ccccccc" />
          <path
             style="fill:#281f00;fill-opacity:1;stroke:none;stroke-width:0.26458332px;stroke-linecap:butt;stroke-linejoin:miter;stroke-opacity:1"
             d="m 118.22429,145.02858 c 5.09149,3.95597 11.08646,6.86581 12.6825,14.86915 0.93005,3.24753 2.62126,6.07989 5.68526,8.16345 -6.87801,1.21925 -9.60653,-1.8914 -12.0994,-5.24794 -5.8657,-9.07952 -4.29752,-14.53912 -6.92435,-17.20156 z"
             id="path989"
             inkscape:connector-curvature="0"
             sodipodi:nodetypes="cccccc" />
          <path
             style="fill:#281f00;fill-opacity:1;stroke:none;stroke-width:0.26458332px;stroke-linecap:butt;stroke-linejoin:miter;stroke-opacity:1"
             d="m 126.67929,147.06944 c 3.43106,0.91859 5.64243,-0.80548 7.94479,-2.33241 1.99935,-1.48021 6.9803,-0.47575 11.15186,-0.14578 -1.9493,0.74039 -2.50696,2.64049 -3.35285,4.30039 -2.16946,4.17347 -6.04676,3.71137 -10.93319,0.51022 l -4.37328,-1.53065 z"
             id="path991"
             inkscape:connector-curvature="0"
             sodipodi:nodetypes="ccccccc" />
          <path
             style="fill:#281f00;fill-opacity:1;stroke:none;stroke-width:0.26458332px;stroke-linecap:butt;stroke-linejoin:miter;stroke-opacity:1"
             d="m 133.74942,153.48359 c 1.2148,0.58598 2.4296,1.37521 3.6444,0.65599 0.0134,-2.08898 3.59476,-2.56832 3.35285,0.51021 -0.039,2.61777 -3.15292,2.51884 -3.0613,0.87466 -1.54225,0.41719 -2.7793,-0.23382 -3.93595,-1.16621 z"
             id="path993"
             inkscape:connector-curvature="0"
             sodipodi:nodetypes="cccccc" />
          <path
             sodipodi:nodetypes="cccccc"
             inkscape:connector-curvature="0"
             id="path995"
             d="m 123.92985,145.82222 c 1.32841,-0.23332 2.77547,-0.3016 3.34201,-1.59468 -1.2085,-1.70398 1.4196,-4.18369 3.02018,-1.54286 1.49638,2.14828 -1.08973,3.88561 -1.97508,2.49713 -1.00872,1.23898 -2.39315,1.43248 -3.87656,1.35058 z"
             style="fill:#281f00;fill-opacity:1;stroke:none;stroke-width:0.26458332px;stroke-linecap:butt;stroke-linejoin:miter;stroke-opacity:1" />
          <path
             style="fill:#281f00;fill-opacity:1;stroke:none;stroke-width:0.1982469px;stroke-linecap:butt;stroke-linejoin:miter;stroke-opacity:1"
             d="m 138.22425,162.27176 c -0.57223,0.83859 -1.29284,1.65238 -0.91224,2.65024 1.5234,0.26496 1.44746,3.0065 -0.77115,2.4496 -1.90639,-0.34866 -1.46389,-2.66945 -0.2745,-2.40017 -0.12117,-1.20633 0.50118,-2.05365 1.31938,-2.8064 z"
             id="path997"
             inkscape:connector-curvature="0"
             sodipodi:nodetypes="cccccc" />
          <path
             style="fill:#281f00;fill-opacity:1;stroke:none;stroke-width:0.26458332px;stroke-linecap:butt;stroke-linejoin:miter;stroke-opacity:1"
             d="m 136.81072,157.78398 c 9.79031,-6.06883 14.20149,6.09888 22.66816,8.09056 -9.85229,10.3562 -14.69038,-8.01573 -22.30372,-6.77858 z"
             id="path999"
             inkscape:connector-curvature="0"
             sodipodi:nodetypes="cccc" />
          <path
             style="fill:#281f00;fill-opacity:1;stroke:none;stroke-width:0.20920862px;stroke-linecap:butt;stroke-linejoin:miter;stroke-opacity:1"
             d="m 151.45374,160.08272 c 0.60089,-0.88106 1.36071,-1.73825 0.94103,-2.77264 -1.63188,-0.25585 -1.58601,-3.11255 0.79279,-2.56178 2.04234,0.33799 1.59922,2.76126 0.32437,2.49648 0.14496,1.25496 -0.50929,2.14577 -1.37424,2.94068 z"
             id="path1001"
             inkscape:connector-curvature="0"
             sodipodi:nodetypes="cccccc" />
          <path
             style="fill:#281f00;fill-opacity:1;stroke:none;stroke-width:0.26458332px;stroke-linecap:butt;stroke-linejoin:miter;stroke-opacity:1"
             d="m 141.54844,156.69066 c 14.53346,3.56841 10.69975,-7.71536 15.7438,-9.40255 -7.52679,-7.37351 -9.27866,5.61457 -16.10824,8.74655 z"
             id="path1003"
             inkscape:connector-curvature="0"
             sodipodi:nodetypes="cccc" />
        </g>
        <path
           style="fill:#281f00;fill-opacity:1;stroke:none;stroke-width:0.26458332px;stroke-linecap:butt;stroke-linejoin:miter;stroke-opacity:1"
           d="m 149.99342,155.42233 c 0.11848,2.385 7.31172,3.09036 10.33287,1.60514 6.92119,-1.18249 8.77778,3.47214 11.81787,10.63402 0.38947,1.70023 -0.5549,0.36456 0.95475,1.318 -4.29907,-1.0463 -4.00737,-6.00241 -9.26678,-5.89631 -4.15239,0.44539 -10.99634,1.9244 -12.81828,-1.9027 -0.75317,-2.71612 -1.50635,-4.16433 -2.25952,-5.75815 z"
           id="path1007"
           inkscape:connector-curvature="0"
           sodipodi:nodetypes="cccccccc" />
        <path
           style="fill:#281f00;fill-opacity:1;stroke:none;stroke-width:0.26458332px;stroke-linecap:butt;stroke-linejoin:miter;stroke-opacity:1"
           d="m 152.68278,170.10542 -0.74541,-0.78642 c -0.39507,-6.62345 2.00457,-11.24417 5.75371,-14.89782 5.36861,-3.97308 10.3119,-2.84955 15.12598,-0.17768 -2.25974,0.80638 -4.54393,1.50627 -6.47478,3.74568 -3.52461,2.73119 -7.19091,7.51842 -10.6999,7.40594 -2.38537,-0.41985 -3.07347,1.90511 -2.9596,4.7103 z"
           id="path1009"
           inkscape:connector-curvature="0"
           sodipodi:nodetypes="ccccccc" />
        <g
           id="g1029"
           style="fill:#281f00;fill-opacity:1">
          <path
             sodipodi:nodetypes="ccccccccc"
             inkscape:connector-curvature="0"
             id="path1011"
             d="m 8.7225287,140.35734 c -1.626253,0.51392 -0.58442,2.43263 0.50781,1.81779 10.6306963,-1.96273 6.2093813,4.36983 12.7213513,17.15431 4.88919,8.06231 8.92163,5.44912 12.64767,0.43612 l 3.34363,-5.37889 -1.23509,-0.50822 -2.69004,4.72411 c -3.3295,4.27548 -6.8054,6.42825 -10.90317,-0.43613 -6.36134,-13.80579 -2.937412,-18.91027 -14.3921613,-17.80909 z"
             style="fill:#281f00;fill-opacity:1;stroke:none;stroke-width:0.26458332px;stroke-linecap:butt;stroke-linejoin:miter;stroke-opacity:1" />
          <path
             sodipodi:nodetypes="cccccc"
             inkscape:connector-curvature="0"
             id="path1013"
             d="m 7.8442133,140.81269 c 3.6518907,3.95597 7.9518057,6.86581 9.0965717,14.86915 0.667082,3.24753 1.880109,6.07989 4.077775,8.16345 -4.933279,1.21925 -6.890321,-1.8914 -8.678341,-5.24794 -4.2071963,-9.07952 -3.0824131,-14.53912 -4.9665171,-17.20156 z"
             style="fill:#281f00;fill-opacity:1;stroke:none;stroke-width:0.22407784px;stroke-linecap:butt;stroke-linejoin:miter;stroke-opacity:1" />
          <path
             sodipodi:nodetypes="ccccccc"
             inkscape:connector-curvature="0"
             id="path1015"
             d="m 11.1058,142.85355 c 3.43106,0.91859 5.64243,-0.80548 7.94479,-2.33241 1.99935,-1.48021 6.9803,-0.47575 11.15186,-0.14578 -1.9493,0.74039 -2.50696,2.64049 -3.35285,4.30039 -2.16946,4.17347 -6.04676,3.71137 -10.93319,0.51022 l -4.37328,-1.53065 z"
             style="fill:#281f00;fill-opacity:1;stroke:none;stroke-width:0.26458332px;stroke-linecap:butt;stroke-linejoin:miter;stroke-opacity:1" />
          <path
             sodipodi:nodetypes="cccccc"
             inkscape:connector-curvature="0"
             id="path1017"
             d="m 18.17593,149.2677 c 1.2148,0.58598 2.4296,1.37521 3.6444,0.65599 0.0134,-2.08898 3.59476,-2.56832 3.35285,0.51021 -0.039,2.61777 -3.15292,2.51884 -3.0613,0.87466 -1.54225,0.41719 -2.7793,-0.23382 -3.93595,-1.16621 z"
             style="fill:#281f00;fill-opacity:1;stroke:none;stroke-width:0.26458332px;stroke-linecap:butt;stroke-linejoin:miter;stroke-opacity:1" />
          <path
             style="fill:#281f00;fill-opacity:1;stroke:none;stroke-width:0.26458332px;stroke-linecap:butt;stroke-linejoin:miter;stroke-opacity:1"
             d="m 8.35636,141.60633 c 1.32841,-0.23332 2.77547,-0.3016 3.34201,-1.59468 -1.2085,-1.70398 1.4196,-4.18369 3.02018,-1.54286 1.49638,2.14828 -1.08973,3.88561 -1.97508,2.49713 -1.00872,1.23898 -2.39315,1.43248 -3.87656,1.35058 z"
             id="path1019"
             inkscape:connector-curvature="0"
             sodipodi:nodetypes="cccccc" />
          <path
             sodipodi:nodetypes="cccccc"
             inkscape:connector-curvature="0"
             id="path1021"
             d="m 22.65076,158.05587 c -0.57223,0.83859 -1.29284,1.65238 -0.91224,2.65024 1.5234,0.26496 1.44746,3.0065 -0.77115,2.4496 -1.90639,-0.34866 -1.46389,-2.66945 -0.2745,-2.40017 -0.12117,-1.20633 0.50118,-2.05365 1.31938,-2.8064 z"
             style="fill:#281f00;fill-opacity:1;stroke:none;stroke-width:0.1982469px;stroke-linecap:butt;stroke-linejoin:miter;stroke-opacity:1" />
          <path
             sodipodi:nodetypes="cccc"
             inkscape:connector-curvature="0"
             id="path1023"
             d="m 21.23723,153.56809 c 9.79031,-6.06883 14.20149,6.09888 22.66816,8.09056 -9.85229,10.3562 -14.69038,-8.01573 -22.30372,-6.77858 z"
             style="fill:#281f00;fill-opacity:1;stroke:none;stroke-width:0.26458332px;stroke-linecap:butt;stroke-linejoin:miter;stroke-opacity:1" />
          <path
             sodipodi:nodetypes="cccccc"
             inkscape:connector-curvature="0"
             id="path1025"
             d="m 35.88025,155.86683 c 0.60089,-0.88106 1.36071,-1.73825 0.94103,-2.77264 -1.63188,-0.25585 -1.58601,-3.11255 0.79279,-2.56178 2.04234,0.33799 1.59922,2.76126 0.32437,2.49648 0.14496,1.25496 -0.50929,2.14577 -1.37424,2.94068 z"
             style="fill:#281f00;fill-opacity:1;stroke:none;stroke-width:0.20920862px;stroke-linecap:butt;stroke-linejoin:miter;stroke-opacity:1" />
          <path
             sodipodi:nodetypes="cccc"
             inkscape:connector-curvature="0"
             id="path1027"
             d="m 25.97495,152.47477 c 14.53346,3.56841 10.69975,-7.71536 15.7438,-9.40255 -7.52679,-7.37351 -9.27866,5.61457 -16.10824,8.74655 z"
             style="fill:#281f00;fill-opacity:1;stroke:none;stroke-width:0.26458332px;stroke-linecap:butt;stroke-linejoin:miter;stroke-opacity:1" />
        </g>
      </g>
      <g
         id="g957"
         style="fill:#fff0c2;fill-opacity:1;filter:url(#filter1223)"
         clip-path="url(#clipPath1131)"
         transform="translate(0.4361264,1.0176283)">
        <g
           transform="translate(0.43612637,0.29075092)"
           id="g849"
           style="fill:#fff0c2;fill-opacity:1">
          <path
             style="fill:#fff0c2;fill-opacity:1;stroke:none;stroke-width:0.26458332px;stroke-linecap:butt;stroke-linejoin:miter;stroke-opacity:1"
             d="m 100.89057,145.00936 c -1.626253,0.51392 -0.58442,2.43263 0.50781,1.81779 21.38848,-7.05087 29.61483,3.9337 36.1268,16.71818 4.88919,8.06231 8.92163,5.44912 12.64767,0.43612 l 3.34363,-5.37889 -1.23509,-0.50822 -2.69004,4.72411 c -3.3295,4.27548 -6.8054,6.42825 -10.90317,-0.43613 -6.36134,-13.80579 -15.14895,-24.14379 -37.79761,-17.37296 z"
             id="path816"
             inkscape:connector-curvature="0"
             sodipodi:nodetypes="ccccccccc" />
          <path
             style="fill:#fff0c2;fill-opacity:1;stroke:none;stroke-width:0.26458332px;stroke-linecap:butt;stroke-linejoin:miter;stroke-opacity:1"
             d="m 115.30877,144.80992 c -0.11848,2.385 -1.06058,3.67186 -4.08173,2.18664 -6.92119,-1.18249 -12.412159,0.71001 -15.452248,7.87189 -0.389466,1.70023 -2.061858,2.54519 -3.57151,3.49863 4.299075,-1.0463 7.641758,-3.24028 12.901168,-3.13418 4.15239,0.44539 7.36195,-0.83773 9.18389,-4.66483 0.75317,-2.71612 1.50635,-4.16433 2.25952,-5.75815 z"
             id="path818"
             inkscape:connector-curvature="0"
             sodipodi:nodetypes="cccccccc" />
          <path
             style="fill:#fff0c2;fill-opacity:1;stroke:none;stroke-width:0.26458332px;stroke-linecap:butt;stroke-linejoin:miter;stroke-opacity:1"
             d="m 116.3292,144.59125 1.02043,0.36444 c 3.34698,5.72921 3.29572,10.93562 1.60354,15.88958 -2.99226,5.97107 -7.90943,7.20389 -13.41139,6.99724 1.65101,-1.74093 3.37197,-3.39793 4.08173,-6.26836 1.90897,-4.02965 3.01475,-9.95726 6.19547,-11.44342 2.31747,-0.70399 1.88007,-3.08886 0.51022,-5.53948 z"
             id="path820"
             inkscape:connector-curvature="0"
             sodipodi:nodetypes="ccccccc" />
          <path
             style="fill:#fff0c2;fill-opacity:1;stroke:none;stroke-width:0.26458332px;stroke-linecap:butt;stroke-linejoin:miter;stroke-opacity:1"
             d="m 118.22429,145.02858 c 5.09149,3.95597 11.08646,6.86581 12.6825,14.86915 0.93005,3.24753 2.62126,6.07989 5.68526,8.16345 -6.87801,1.21925 -9.60653,-1.8914 -12.0994,-5.24794 -5.8657,-9.07952 -4.29752,-14.53912 -6.92435,-17.20156 z"
             id="path822"
             inkscape:connector-curvature="0"
             sodipodi:nodetypes="cccccc" />
          <path
             style="fill:#fff0c2;fill-opacity:1;stroke:none;stroke-width:0.26458332px;stroke-linecap:butt;stroke-linejoin:miter;stroke-opacity:1"
             d="m 126.67929,147.06944 c 3.43106,0.91859 5.64243,-0.80548 7.94479,-2.33241 1.99935,-1.48021 6.9803,-0.47575 11.15186,-0.14578 -1.9493,0.74039 -2.50696,2.64049 -3.35285,4.30039 -2.16946,4.17347 -6.04676,3.71137 -10.93319,0.51022 l -4.37328,-1.53065 z"
             id="path824"
             inkscape:connector-curvature="0"
             sodipodi:nodetypes="ccccccc" />
          <path
             style="fill:#fff0c2;fill-opacity:1;stroke:none;stroke-width:0.26458332px;stroke-linecap:butt;stroke-linejoin:miter;stroke-opacity:1"
             d="m 133.74942,153.48359 c 1.2148,0.58598 2.4296,1.37521 3.6444,0.65599 0.0134,-2.08898 3.59476,-2.56832 3.35285,0.51021 -0.039,2.61777 -3.15292,2.51884 -3.0613,0.87466 -1.54225,0.41719 -2.7793,-0.23382 -3.93595,-1.16621 z"
             id="path826"
             inkscape:connector-curvature="0"
             sodipodi:nodetypes="cccccc" />
          <path
             sodipodi:nodetypes="cccccc"
             inkscape:connector-curvature="0"
             id="path828"
             d="m 123.92985,145.82222 c 1.32841,-0.23332 2.77547,-0.3016 3.34201,-1.59468 -1.2085,-1.70398 1.4196,-4.18369 3.02018,-1.54286 1.49638,2.14828 -1.08973,3.88561 -1.97508,2.49713 -1.00872,1.23898 -2.39315,1.43248 -3.87656,1.35058 z"
             style="fill:#fff0c2;fill-opacity:1;stroke:none;stroke-width:0.26458332px;stroke-linecap:butt;stroke-linejoin:miter;stroke-opacity:1" />
          <path
             style="fill:#fff0c2;fill-opacity:1;stroke:none;stroke-width:0.1982469px;stroke-linecap:butt;stroke-linejoin:miter;stroke-opacity:1"
             d="m 138.22425,162.27176 c -0.57223,0.83859 -1.29284,1.65238 -0.91224,2.65024 1.5234,0.26496 1.44746,3.0065 -0.77115,2.4496 -1.90639,-0.34866 -1.46389,-2.66945 -0.2745,-2.40017 -0.12117,-1.20633 0.50118,-2.05365 1.31938,-2.8064 z"
             id="path830"
             inkscape:connector-curvature="0"
             sodipodi:nodetypes="cccccc" />
          <path
             style="fill:#fff0c2;fill-opacity:1;stroke:none;stroke-width:0.26458332px;stroke-linecap:butt;stroke-linejoin:miter;stroke-opacity:1"
             d="m 136.81072,157.78398 c 9.79031,-6.06883 14.20149,6.09888 22.66816,8.09056 -9.85229,10.3562 -14.69038,-8.01573 -22.30372,-6.77858 z"
             id="path832"
             inkscape:connector-curvature="0"
             sodipodi:nodetypes="cccc" />
          <path
             style="fill:#fff0c2;fill-opacity:1;stroke:none;stroke-width:0.20920862px;stroke-linecap:butt;stroke-linejoin:miter;stroke-opacity:1"
             d="m 151.45374,160.08272 c 0.60089,-0.88106 1.36071,-1.73825 0.94103,-2.77264 -1.63188,-0.25585 -1.58601,-3.11255 0.79279,-2.56178 2.04234,0.33799 1.59922,2.76126 0.32437,2.49648 0.14496,1.25496 -0.50929,2.14577 -1.37424,2.94068 z"
             id="path834"
             inkscape:connector-curvature="0"
             sodipodi:nodetypes="cccccc" />
          <path
             style="fill:#fff0c2;fill-opacity:1;stroke:none;stroke-width:0.26458332px;stroke-linecap:butt;stroke-linejoin:miter;stroke-opacity:1"
             d="m 141.54844,156.69066 c 14.53346,3.56841 10.69975,-7.71536 15.7438,-9.40255 -7.52679,-7.37351 -9.27866,5.61457 -16.10824,8.74655 z"
             id="path836"
             inkscape:connector-curvature="0"
             sodipodi:nodetypes="cccc" />
        </g>
        <g
           id="g873"
           transform="translate(-59.022436,-3.3436355)"
           style="fill:#fff0c2;fill-opacity:1">
          <path
             sodipodi:nodetypes="ccccccccc"
             inkscape:connector-curvature="0"
             id="path851"
             d="m 100.89057,145.00936 c -1.626253,0.51392 -0.58442,2.43263 0.50781,1.81779 21.38848,-7.05087 29.61483,3.9337 36.1268,16.71818 4.88919,8.06231 8.92163,5.44912 12.64767,0.43612 l 3.34363,-5.37889 -1.23509,-0.50822 -2.69004,4.72411 c -3.3295,4.27548 -6.8054,6.42825 -10.90317,-0.43613 -6.36134,-13.80579 -15.14895,-24.14379 -37.79761,-17.37296 z"
             style="fill:#fff0c2;fill-opacity:1;stroke:none;stroke-width:0.26458332px;stroke-linecap:butt;stroke-linejoin:miter;stroke-opacity:1" />
          <path
             sodipodi:nodetypes="cccccccc"
             inkscape:connector-curvature="0"
             id="path853"
             d="m 115.30877,144.80992 c -0.11848,2.385 -1.06058,3.67186 -4.08173,2.18664 -6.92119,-1.18249 -12.412159,0.71001 -15.452248,7.87189 -0.389466,1.70023 -2.061858,2.54519 -3.57151,3.49863 4.299075,-1.0463 7.641758,-3.24028 12.901168,-3.13418 4.15239,0.44539 7.36195,-0.83773 9.18389,-4.66483 0.75317,-2.71612 1.50635,-4.16433 2.25952,-5.75815 z"
             style="fill:#fff0c2;fill-opacity:1;stroke:none;stroke-width:0.26458332px;stroke-linecap:butt;stroke-linejoin:miter;stroke-opacity:1" />
          <path
             sodipodi:nodetypes="ccccccc"
             inkscape:connector-curvature="0"
             id="path855"
             d="m 116.3292,144.59125 1.02043,0.36444 c 3.34698,5.72921 3.29572,10.93562 1.60354,15.88958 -2.99226,5.97107 -7.90943,7.20389 -13.41139,6.99724 1.65101,-1.74093 3.37197,-3.39793 4.08173,-6.26836 1.90897,-4.02965 3.01475,-9.95726 6.19547,-11.44342 2.31747,-0.70399 1.88007,-3.08886 0.51022,-5.53948 z"
             style="fill:#fff0c2;fill-opacity:1;stroke:none;stroke-width:0.26458332px;stroke-linecap:butt;stroke-linejoin:miter;stroke-opacity:1" />
          <path
             sodipodi:nodetypes="cccccc"
             inkscape:connector-curvature="0"
             id="path857"
             d="m 118.22429,145.02858 c 5.09149,3.95597 11.08646,6.86581 12.6825,14.86915 0.93005,3.24753 2.62126,6.07989 5.68526,8.16345 -6.87801,1.21925 -9.60653,-1.8914 -12.0994,-5.24794 -5.8657,-9.07952 -4.29752,-14.53912 -6.92435,-17.20156 z"
             style="fill:#fff0c2;fill-opacity:1;stroke:none;stroke-width:0.26458332px;stroke-linecap:butt;stroke-linejoin:miter;stroke-opacity:1" />
          <path
             sodipodi:nodetypes="ccccccc"
             inkscape:connector-curvature="0"
             id="path859"
             d="m 126.67929,147.06944 c 3.43106,0.91859 5.64243,-0.80548 7.94479,-2.33241 1.99935,-1.48021 6.9803,-0.47575 11.15186,-0.14578 -1.9493,0.74039 -2.50696,2.64049 -3.35285,4.30039 -2.16946,4.17347 -6.04676,3.71137 -10.93319,0.51022 l -4.37328,-1.53065 z"
             style="fill:#fff0c2;fill-opacity:1;stroke:none;stroke-width:0.26458332px;stroke-linecap:butt;stroke-linejoin:miter;stroke-opacity:1" />
          <path
             sodipodi:nodetypes="cccccc"
             inkscape:connector-curvature="0"
             id="path861"
             d="m 133.74942,153.48359 c 1.2148,0.58598 2.4296,1.37521 3.6444,0.65599 0.0134,-2.08898 3.59476,-2.56832 3.35285,0.51021 -0.039,2.61777 -3.15292,2.51884 -3.0613,0.87466 -1.54225,0.41719 -2.7793,-0.23382 -3.93595,-1.16621 z"
             style="fill:#fff0c2;fill-opacity:1;stroke:none;stroke-width:0.26458332px;stroke-linecap:butt;stroke-linejoin:miter;stroke-opacity:1" />
          <path
             style="fill:#fff0c2;fill-opacity:1;stroke:none;stroke-width:0.26458332px;stroke-linecap:butt;stroke-linejoin:miter;stroke-opacity:1"
             d="m 123.92985,145.82222 c 1.32841,-0.23332 2.77547,-0.3016 3.34201,-1.59468 -1.2085,-1.70398 1.4196,-4.18369 3.02018,-1.54286 1.49638,2.14828 -1.08973,3.88561 -1.97508,2.49713 -1.00872,1.23898 -2.39315,1.43248 -3.87656,1.35058 z"
             id="path863"
             inkscape:connector-curvature="0"
             sodipodi:nodetypes="cccccc" />
          <path
             sodipodi:nodetypes="cccccc"
             inkscape:connector-curvature="0"
             id="path865"
             d="m 138.22425,162.27176 c -0.57223,0.83859 -1.29284,1.65238 -0.91224,2.65024 1.5234,0.26496 1.44746,3.0065 -0.77115,2.4496 -1.90639,-0.34866 -1.46389,-2.66945 -0.2745,-2.40017 -0.12117,-1.20633 0.50118,-2.05365 1.31938,-2.8064 z"
             style="fill:#fff0c2;fill-opacity:1;stroke:none;stroke-width:0.1982469px;stroke-linecap:butt;stroke-linejoin:miter;stroke-opacity:1" />
          <path
             sodipodi:nodetypes="cccc"
             inkscape:connector-curvature="0"
             id="path867"
             d="m 136.81072,157.78398 c 9.79031,-6.06883 14.20149,6.09888 22.66816,8.09056 -9.85229,10.3562 -14.69038,-8.01573 -22.30372,-6.77858 z"
             style="fill:#fff0c2;fill-opacity:1;stroke:none;stroke-width:0.26458332px;stroke-linecap:butt;stroke-linejoin:miter;stroke-opacity:1" />
          <path
             sodipodi:nodetypes="cccccc"
             inkscape:connector-curvature="0"
             id="path869"
             d="m 151.45374,160.08272 c 0.60089,-0.88106 1.36071,-1.73825 0.94103,-2.77264 -1.63188,-0.25585 -1.58601,-3.11255 0.79279,-2.56178 2.04234,0.33799 1.59922,2.76126 0.32437,2.49648 0.14496,1.25496 -0.50929,2.14577 -1.37424,2.94068 z"
             style="fill:#fff0c2;fill-opacity:1;stroke:none;stroke-width:0.20920862px;stroke-linecap:butt;stroke-linejoin:miter;stroke-opacity:1" />
          <path
             sodipodi:nodetypes="cccc"
             inkscape:connector-curvature="0"
             id="path871"
             d="m 141.54844,156.69066 c 14.53346,3.56841 10.69975,-7.71536 15.7438,-9.40255 -7.52679,-7.37351 -9.27866,5.61457 -16.10824,8.74655 z"
             style="fill:#fff0c2;fill-opacity:1;stroke:none;stroke-width:0.26458332px;stroke-linecap:butt;stroke-linejoin:miter;stroke-opacity:1" />
        </g>
        <path
           sodipodi:nodetypes="cccccccc"
           inkscape:connector-curvature="0"
           id="path877"
           d="m 149.99342,155.42233 c 0.11848,2.385 7.31172,3.09036 10.33287,1.60514 6.92119,-1.18249 8.77778,3.47214 11.81787,10.63402 0.38947,1.70023 -0.5549,0.36456 0.95475,1.318 -4.29907,-1.0463 -4.00737,-6.00241 -9.26678,-5.89631 -4.15239,0.44539 -10.99634,1.9244 -12.81828,-1.9027 -0.75317,-2.71612 -1.50635,-4.16433 -2.25952,-5.75815 z"
           style="fill:#fff0c2;fill-opacity:1;stroke:none;stroke-width:0.26458332px;stroke-linecap:butt;stroke-linejoin:miter;stroke-opacity:1" />
        <path
           sodipodi:nodetypes="ccccccc"
           inkscape:connector-curvature="0"
           id="path879"
           d="m 152.68278,170.10542 -0.74541,-0.78642 c -0.39507,-6.62345 2.00457,-11.24417 5.75371,-14.89782 5.36861,-3.97308 10.3119,-2.84955 15.12598,-0.17768 -2.25974,0.80638 -4.54393,1.50627 -6.47478,3.74568 -3.52461,2.73119 -7.19091,7.51842 -10.6999,7.40594 -2.38537,-0.41985 -3.07347,1.90511 -2.9596,4.7103 z"
           style="fill:#fff0c2;fill-opacity:1;stroke:none;stroke-width:0.26458332px;stroke-linecap:butt;stroke-linejoin:miter;stroke-opacity:1" />
        <g
           id="g919"
           style="fill:#fff0c2;fill-opacity:1">
          <path
             style="fill:#fff0c2;fill-opacity:1;stroke:none;stroke-width:0.26458332px;stroke-linecap:butt;stroke-linejoin:miter;stroke-opacity:1"
             d="m 8.7225287,140.35734 c -1.626253,0.51392 -0.58442,2.43263 0.50781,1.81779 10.6306963,-1.96273 6.2093813,4.36983 12.7213513,17.15431 4.88919,8.06231 8.92163,5.44912 12.64767,0.43612 l 3.34363,-5.37889 -1.23509,-0.50822 -2.69004,4.72411 c -3.3295,4.27548 -6.8054,6.42825 -10.90317,-0.43613 -6.36134,-13.80579 -2.937412,-18.91027 -14.3921613,-17.80909 z"
             id="path875"
             inkscape:connector-curvature="0"
             sodipodi:nodetypes="ccccccccc" />
          <path
             style="fill:#fff0c2;fill-opacity:1;stroke:none;stroke-width:0.22407784px;stroke-linecap:butt;stroke-linejoin:miter;stroke-opacity:1"
             d="m 7.8442133,140.81269 c 3.6518907,3.95597 7.9518057,6.86581 9.0965717,14.86915 0.667082,3.24753 1.880109,6.07989 4.077775,8.16345 -4.933279,1.21925 -6.890321,-1.8914 -8.678341,-5.24794 -4.2071963,-9.07952 -3.0824131,-14.53912 -4.9665171,-17.20156 z"
             id="path881"
             inkscape:connector-curvature="0"
             sodipodi:nodetypes="cccccc" />
          <path
             style="fill:#fff0c2;fill-opacity:1;stroke:none;stroke-width:0.26458332px;stroke-linecap:butt;stroke-linejoin:miter;stroke-opacity:1"
             d="m 11.1058,142.85355 c 3.43106,0.91859 5.64243,-0.80548 7.94479,-2.33241 1.99935,-1.48021 6.9803,-0.47575 11.15186,-0.14578 -1.9493,0.74039 -2.50696,2.64049 -3.35285,4.30039 -2.16946,4.17347 -6.04676,3.71137 -10.93319,0.51022 l -4.37328,-1.53065 z"
             id="path883"
             inkscape:connector-curvature="0"
             sodipodi:nodetypes="ccccccc" />
          <path
             style="fill:#fff0c2;fill-opacity:1;stroke:none;stroke-width:0.26458332px;stroke-linecap:butt;stroke-linejoin:miter;stroke-opacity:1"
             d="m 18.17593,149.2677 c 1.2148,0.58598 2.4296,1.37521 3.6444,0.65599 0.0134,-2.08898 3.59476,-2.56832 3.35285,0.51021 -0.039,2.61777 -3.15292,2.51884 -3.0613,0.87466 -1.54225,0.41719 -2.7793,-0.23382 -3.93595,-1.16621 z"
             id="path885"
             inkscape:connector-curvature="0"
             sodipodi:nodetypes="cccccc" />
          <path
             sodipodi:nodetypes="cccccc"
             inkscape:connector-curvature="0"
             id="path887"
             d="m 8.35636,141.60633 c 1.32841,-0.23332 2.77547,-0.3016 3.34201,-1.59468 -1.2085,-1.70398 1.4196,-4.18369 3.02018,-1.54286 1.49638,2.14828 -1.08973,3.88561 -1.97508,2.49713 -1.00872,1.23898 -2.39315,1.43248 -3.87656,1.35058 z"
             style="fill:#fff0c2;fill-opacity:1;stroke:none;stroke-width:0.26458332px;stroke-linecap:butt;stroke-linejoin:miter;stroke-opacity:1" />
          <path
             style="fill:#fff0c2;fill-opacity:1;stroke:none;stroke-width:0.1982469px;stroke-linecap:butt;stroke-linejoin:miter;stroke-opacity:1"
             d="m 22.65076,158.05587 c -0.57223,0.83859 -1.29284,1.65238 -0.91224,2.65024 1.5234,0.26496 1.44746,3.0065 -0.77115,2.4496 -1.90639,-0.34866 -1.46389,-2.66945 -0.2745,-2.40017 -0.12117,-1.20633 0.50118,-2.05365 1.31938,-2.8064 z"
             id="path889"
             inkscape:connector-curvature="0"
             sodipodi:nodetypes="cccccc" />
          <path
             style="fill:#fff0c2;fill-opacity:1;stroke:none;stroke-width:0.26458332px;stroke-linecap:butt;stroke-linejoin:miter;stroke-opacity:1"
             d="m 21.23723,153.56809 c 9.79031,-6.06883 14.20149,6.09888 22.66816,8.09056 -9.85229,10.3562 -14.69038,-8.01573 -22.30372,-6.77858 z"
             id="path891"
             inkscape:connector-curvature="0"
             sodipodi:nodetypes="cccc" />
          <path
             style="fill:#fff0c2;fill-opacity:1;stroke:none;stroke-width:0.20920862px;stroke-linecap:butt;stroke-linejoin:miter;stroke-opacity:1"
             d="m 35.88025,155.86683 c 0.60089,-0.88106 1.36071,-1.73825 0.94103,-2.77264 -1.63188,-0.25585 -1.58601,-3.11255 0.79279,-2.56178 2.04234,0.33799 1.59922,2.76126 0.32437,2.49648 0.14496,1.25496 -0.50929,2.14577 -1.37424,2.94068 z"
             id="path893"
             inkscape:connector-curvature="0"
             sodipodi:nodetypes="cccccc" />
          <path
             style="fill:#fff0c2;fill-opacity:1;stroke:none;stroke-width:0.26458332px;stroke-linecap:butt;stroke-linejoin:miter;stroke-opacity:1"
             d="m 25.97495,152.47477 c 14.53346,3.56841 10.69975,-7.71536 15.7438,-9.40255 -7.52679,-7.37351 -9.27866,5.61457 -16.10824,8.74655 z"
             id="path895"
             inkscape:connector-curvature="0"
             sodipodi:nodetypes="cccc" />
        </g>
      </g>
    </g>
    <path
       inkscape:connector-curvature="0"
       style="fill:#fced89;fill-opacity:1;stroke:none;stroke-width:1.09347332px;stroke-linecap:butt;stroke-linejoin:miter;stroke-opacity:1"
       d="m 63.812545,160.63439 c 0,0 -3.537033,3.59131 -3.537033,3.59131 0,0 6.271718,1.12621 6.271718,1.12621 0,0 3.174403,-3.23122 3.174403,-3.23122 0,0 -5.909088,-1.4863 -5.909088,-1.4863 0,0 0,0 0,0 m 8.460617,0.96461 c 0,0 -3.461294,3.61758 -3.461294,3.61758 0,0 6.280027,1.05023 6.280027,1.05023 0,0 3.116043,-3.28756 3.116043,-3.28756 0,0 -5.934776,-1.38025 -5.934776,-1.38025 0,0 0,0 0,0 m 8.552761,0.83786 c 0,0 -3.47217,3.6541 -3.47217,3.6541 0,0 6.293845,0.98269 6.293845,0.98269 0,0 3.064311,-3.33585 3.064311,-3.33585 0,0 -5.885986,-1.30094 -5.885986,-1.30094 0,0 0,0 0,0 m 8.495186,0.71773 c 0,0 -3.41467,3.70789 -3.41467,3.70789 0,0 6.30599,0.91532 6.30599,0.91532 0,0 3.01863,-3.37095 3.01863,-3.37095 0,0 -5.90995,-1.25226 -5.90995,-1.25226 0,0 0,0 0,0 m 8.51104,0.63385 c 0,0 -3.36427,3.7537 -3.36427,3.7537 0,0 6.317801,0.83004 6.317801,0.83004 0,0 3.01897,-3.37695 3.01897,-3.37695 0,0 -5.972501,-1.20679 -5.972501,-1.20679 0,0 0,0 0,0 m 8.504361,0.54645 c 0,0 -3.29504,3.79562 -3.29504,3.79562 0,0 6.32339,0.73898 6.32339,0.73898 0,0 2.9631,-3.42602 2.9631,-3.42602 0,0 -5.99145,-1.10858 -5.99145,-1.10858 0,0 0,0 0,0 m 8.58201,0.44755 c 0,0 -3.30216,3.80838 -3.30216,3.80838 0,0 6.33051,0.72622 6.33051,0.72622 0,0 2.96309,-3.42603 2.96309,-3.42603 0,0 -5.99144,-1.10857 -5.99144,-1.10857 0,0 0,0 0,0 m 8.582,0.44755 c 0,0 -3.30216,3.80838 -3.30216,3.80838 0,0 6.33051,0.72621 6.33051,0.72621 0,0 2.90828,-3.47274 2.90828,-3.47274 0,0 -5.93663,-1.06185 -5.93663,-1.06185 0,0 0,0 0,0 m 8.51636,0.35962 c 0,0 -3.24108,3.86056 -3.24108,3.86056 0,0 6.34134,0.62523 6.34134,0.62523 0,0 2.90814,-3.47285 2.90814,-3.47285 0,0 -6.0084,-1.01294 -6.0084,-1.01294 0,0 0,0 0,0 m 8.58812,0.3107 c 0,0 -3.24107,3.86057 -3.24107,3.86057 0,0 6.34133,0.62523 6.34133,0.62523 0,0 2.90815,-3.47285 2.90815,-3.47285 0,0 -6.00841,-1.01295 -6.00841,-1.01295 0,0 0,0 0,0 m 8.58812,0.31071 c 0,0 -3.24106,3.86057 -3.24106,3.86057 0,0 6.34233,0.59613 6.34233,0.59613 0,0 2.86958,-3.5048 2.86958,-3.5048 0,0 -5.97085,-0.9519 -5.97085,-0.9519 0,0 0,0 0,0 m 8.54265,0.22119 c 0,0 -3.1982,3.89617 -3.1982,3.89617 0,0 6.34788,0.55508 6.34788,0.55508 0,0 2.86958,-3.5048 2.86958,-3.5048 0,0 -6.01926,-0.94645 -6.01926,-0.94645 0,0 0,0 0,0 m 8.59106,0.21574 c 0,0 -3.1982,3.89618 -3.1982,3.89618 0,0 6.34788,0.55508 6.34788,0.55508 0,0 2.86958,-3.5048 2.86958,-3.5048 0,0 -6.01926,-0.94646 -6.01926,-0.94646 0,0 0,0 0,0 m 8.59106,0.21574 c 0,0 -3.1982,3.89618 -3.1982,3.89618 0,0 6.34788,0.55508 6.34788,0.55508 0,0 2.86958,-3.5048 2.86958,-3.5048 0,0 -6.01926,-0.94646 -6.01926,-0.94646 0,0 0,0 0,0 m 8.59106,0.21573 c 0,0 -3.1982,3.89618 -3.1982,3.89618 0,0 6.34789,0.55508 6.34789,0.55508 0,0 2.86958,-3.5048 2.86958,-3.5048 0,0 -6.01927,-0.94646 -6.01927,-0.94646 0,0 0,0 0,0 m 8.59107,0.21575 c 0,0 -3.19821,3.89617 -3.19821,3.89617 0,0 6.34789,0.55508 6.34789,0.55508 0,0 2.87345,-3.50303 2.87345,-3.50303 0,0 -6.02313,-0.94822 -6.02313,-0.94822 0,0 0,0 0,0 m 8.59574,0.22033 c 0,0 -3.20248,3.89268 -3.20248,3.89268 0,0 6.34728,0.56204 6.34728,0.56204 0,0 2.87343,-3.50166 2.87343,-3.50166 0,0 -6.01823,-0.95306 -6.01823,-0.95306 0,0 0,0 0,0 m 8.59085,0.22517 c 0,0 -3.20249,3.89267 -3.20249,3.89267 0,0 6.34728,0.56204 6.34728,0.56204 0,0 2.87343,-3.50165 2.87343,-3.50165 0,0 -6.01822,-0.95306 -6.01822,-0.95306 0,0 0,0 0,0 m 8.59084,0.22516 c 0,0 -3.20249,3.89267 -3.20249,3.89267 0,0 6.34689,0.57212 6.34689,0.57212 0,0 2.90429,-3.47609 2.90429,-3.47609 0,0 -6.04869,-0.9887 -6.04869,-0.9887 0,0 0,0 0,0 m 8.62763,0.28361 c 0,0 -3.23679,3.86416 -3.23679,3.86416 0,0 6.34203,0.61819 6.34203,0.61819 0,0 2.9043,-3.47607 2.9043,-3.47607 0,0 -6.00954,-1.00628 -6.00954,-1.00628 0,0 0,0 0,0 m 8.58847,0.30117 c 0,0 -3.23679,3.86418 -3.23679,3.86418 0,0 6.34204,0.61818 6.34204,0.61818 0,0 2.90428,-3.47608 2.90428,-3.47608 0,0 -6.00953,-1.00628 -6.00953,-1.00628 0,0 0,0 0,0 M 60.242221,164.53698 c 0,0 1.152814,3.81487 1.152814,3.81487 0,0 7.281606,1.40897 7.281606,1.40897 0,0 -2.07502,-4.16197 -2.07502,-4.16197 0,0 -6.3594,-1.06187 -6.3594,-1.06187 0,0 0,0 0,0 m 8.536357,0.99088 c 0,0 1.152812,3.81487 1.152812,3.81487 0,0 7.368532,1.29417 7.368532,1.29417 0,0 -2.149224,-4.12417 -2.149224,-4.12417 0,0 -6.37212,-0.98487 -6.37212,-0.98487 0,0 0,0 0,0 m 8.547465,0.87492 c 0,0 1.220946,3.79363 1.220946,3.79363 0,0 7.37665,1.21231 7.37665,1.21231 0,0 -2.213403,-4.09009 -2.213403,-4.09009 0,0 -6.384193,-0.91585 -6.384193,-0.91585 0,0 0,0 0,0 m 8.557556,0.77193 c 0,0 1.28007,3.7741 1.28007,3.7741 0,0 7.38282,1.13893 7.38282,1.13893 0,0 -2.27142,-4.06497 -2.27142,-4.06497 0,0 -6.39147,-0.84806 -6.39147,-0.84806 0,0 0,0 0,0 m 8.56567,0.67994 c 0,0 1.33094,3.75647 1.33094,3.75647 0,0 7.339871,1.065 7.339871,1.065 0,0 -2.26845,-4.05983 -2.26845,-4.05983 0,0 -6.402361,-0.76164 -6.402361,-0.76164 0,0 0,0 0,0 m 8.573581,0.58837 c 0,0 1.39043,3.74711 1.39043,3.74711 0,0 7.3563,0.94436 7.3563,0.94436 0,0 -2.33478,-4.022 -2.33478,-4.022 0,0 -6.41195,-0.66947 -6.41195,-0.66947 0,0 0,0 0,0 m 8.58003,0.46057 c 0,0 1.3924,3.73408 1.3924,3.73408 0,0 7.3563,0.94436 7.3563,0.94436 0,0 -2.33477,-4.022 -2.33477,-4.022 0,0 -6.41393,-0.65644 -6.41393,-0.65644 0,0 0,0 0,0 m 8.582,0.44755 c 0,0 1.39241,3.73408 1.39241,3.73408 0,0 7.42414,0.90563 7.42414,0.90563 0,0 -2.39861,-3.98431 -2.39861,-3.98431 0,0 -6.41794,-0.6554 -6.41794,-0.6554 0,0 0,0 0,0 m 8.58242,0.41198 c 0,0 1.45177,3.71145 1.45177,3.71145 0,0 7.37047,0.82699 7.37047,0.82699 0,0 -2.3986,-3.98431 -2.3986,-3.98431 0,0 -6.42364,-0.55413 -6.42364,-0.55413 0,0 0,0 0,0 m 8.58813,0.3107 c 0,0 1.45176,3.71145 1.45176,3.71145 0,0 7.37048,0.827 7.37048,0.827 0,0 -2.39861,-3.98432 -2.39861,-3.98432 0,0 -6.42363,-0.55413 -6.42363,-0.55413 0,0 0,0 0,0 m 8.58813,0.31071 c 0,0 1.45176,3.71145 1.45176,3.71145 0,0 7.41806,0.77033 7.41806,0.77033 0,0 -2.44251,-3.95756 -2.44251,-3.95756 0,0 -6.42731,-0.52422 -6.42731,-0.52422 0,0 0,0 0,0 m 8.58897,0.25687 c 0,0 1.49272,3.69519 1.49272,3.69519 0,0 7.3792,0.74546 7.3792,0.74546 0,0 -2.44252,-3.95756 -2.44252,-3.95756 0,0 -6.4294,-0.48309 -6.4294,-0.48309 0,0 0,0 0,0 m 8.59107,0.21574 c 0,0 1.49271,3.69519 1.49271,3.69519 0,0 7.37919,0.74545 7.37919,0.74545 0,0 -2.44251,-3.95756 -2.44251,-3.95756 0,0 -6.42939,-0.48308 -6.42939,-0.48308 0,0 0,0 0,0 m 8.59105,0.21575 c 0,0 1.49272,3.69517 1.49272,3.69517 0,0 7.3792,0.74547 7.3792,0.74547 0,0 -2.44252,-3.95757 -2.44252,-3.95757 0,0 -6.4294,-0.48307 -6.4294,-0.48307 0,0 0,0 0,0 m 8.59107,0.21574 c 0,0 1.49271,3.69517 1.49271,3.69517 0,0 7.3792,0.74547 7.3792,0.74547 0,0 -2.44253,-3.95757 -2.44253,-3.95757 0,0 -6.42938,-0.48307 -6.42938,-0.48307 0,0 0,0 0,0 m 8.59106,0.21573 c 0,0 1.49271,3.69519 1.49271,3.69519 0,0 7.37462,0.74686 7.37462,0.74686 0,0 -2.43793,-3.95896 -2.43793,-3.95896 0,0 -6.4294,-0.48309 -6.4294,-0.48309 0,0 0,0 0,0 m 8.59112,0.21684 c 0,0 1.48866,3.69681 1.48866,3.69681 0,0 7.37839,0.75356 7.37839,0.75356 0,0 -2.43817,-3.96025 -2.43817,-3.96025 0,0 -6.42888,-0.49012 -6.42888,-0.49012 0,0 0,0 0,0 m 8.59084,0.22515 c 0,0 1.48866,3.69683 1.48866,3.69683 0,0 7.37839,0.75355 7.37839,0.75355 0,0 -2.43817,-3.96025 -2.43817,-3.96025 0,0 -6.42888,-0.49013 -6.42888,-0.49013 0,0 0,0 0,0 m 8.59084,0.22517 c 0,0 1.48866,3.69683 1.48866,3.69683 0,0 7.34071,0.78569 7.34071,0.78569 0,0 -2.40303,-3.98165 -2.40303,-3.98165 0,0 -6.42634,-0.50087 -6.42634,-0.50087 0,0 0,0 0,0 m 8.59055,0.25504 c 0,0 1.4559,3.70983 1.4559,3.70983 0,0 7.3714,0.81883 7.3714,0.81883 0,0 -2.40304,-3.98166 -2.40304,-3.98166 0,0 -6.42426,-0.547 -6.42426,-0.547 0,0 0,0 0,0 m 8.58848,0.30118 c 0,0 1.45589,3.70983 1.45589,3.70983 0,0 7.3714,0.81882 7.3714,0.81882 0,0 -2.40303,-3.98165 -2.40303,-3.98165 0,0 -6.42426,-0.547 -6.42426,-0.547 0,0 0,0 0,0"
       id="path4120" />
    <path
       inkscape:connector-curvature="0"
       style="fill:none;stroke:#e9c920;stroke-width:1.09347343;stroke-linecap:butt;stroke-linejoin:miter;stroke-miterlimit:4;stroke-dasharray:none;stroke-opacity:1"
       d="m 60.230946,164.45023 c 56.036134,7.06149 121.512014,6.03174 182.808834,8.58406"
       id="path1303" />
    <path
       inkscape:connector-curvature="0"
       style="fill:#fced89;fill-opacity:1;stroke:none;stroke-width:0.28931484px;stroke-linecap:butt;stroke-linejoin:miter;stroke-opacity:1"
       d="m 64.500059,121.4578 c 0,0 -2.42338,4.41975 -2.42338,4.41975 0,0 6.346452,-0.5883 6.346452,-0.5883 0,0 2.282446,-3.91248 2.282446,-3.91248 0,0 -6.205518,0.081 -6.205518,0.081 m 8.741146,-1.18197 c 0,0 -2.65626,4.32544 -2.65626,4.32544 0,0 6.370061,-0.33285 6.370061,-0.33285 0,0 2.459955,-3.81457 2.459955,-3.81457 0,0 -6.173756,-0.17802 -6.173756,-0.17802 m 8.648138,-0.83458 c 0,0 -2.744314,4.22809 -2.744314,4.22809 0,0 6.373658,-0.10716 6.373658,-0.10716 0,0 2.535292,-3.75366 2.535292,-3.75366 0,0 -6.164636,-0.36724 -6.164636,-0.36724 m 8.737516,-0.56489 c 0,0 -2.9057,4.14172 -2.9057,4.14172 0,0 6.37728,0.0633 6.37728,0.0633 0,0 2.68719,-3.65955 2.68719,-3.65955 0,0 -6.15877,-0.54542 -6.15877,-0.54542 m 8.6901,-0.31486 c 0,0 -2.99624,4.05334 -2.99624,4.05334 0,0 6.367671,0.23218 6.367671,0.23218 0,0 2.68791,-3.6458 2.68791,-3.6458 0,0 -6.059341,-0.63972 -6.059341,-0.63972 m 8.710281,-0.19107 c 0,0 -3.11586,4.02385 -3.11586,4.02385 0,0 6.3689,0.35227 6.3689,0.35227 0,0 2.7866,-3.571 2.7866,-3.571 0,0 -6.03964,-0.80512 -6.03964,-0.80512 m 8.59355,0.0143 c 0,0 -3.10594,3.96996 -3.10594,3.96996 0,0 6.35866,0.41452 6.35866,0.41452 0,0 2.87076,-3.50374 2.87076,-3.50374 0,0 -6.12348,-0.88074 -6.12348,-0.88074 m 8.6955,0.15094 c 0,0 -3.19951,3.89498 -3.19951,3.89498 0,0 6.34758,0.55729 6.34758,0.55729 0,0 2.87075,-3.50373 2.87075,-3.50373 0,0 -6.01882,-0.94854 -6.01882,-0.94854 m 8.68245,0.25097 c 0,0 -3.29112,3.86275 -3.29112,3.86275 0,0 6.34386,0.65545 6.34386,0.65545 0,0 2.94458,-3.44195 2.94458,-3.44195 0,0 -5.99732,-1.07625 -5.99732,-1.07625 m 8.58428,0.40127 c 0,0 -3.28159,3.82612 -3.28159,3.82612 0,0 6.33398,0.69519 6.33398,0.69519 0,0 3.01124,-3.3838 3.01124,-3.3838 0,0 -6.06363,-1.13751 -6.06363,-1.13751 m 8.66327,0.51317 c 0,0 -3.35567,3.76132 -3.35567,3.76132 0,0 6.31961,0.81564 6.31961,0.81564 0,0 3.01125,-3.3838 3.01125,-3.3838 0,0 -5.97519,-1.19316 -5.97519,-1.19316 m 8.65372,0.59404 c 0,0 -3.43457,3.73611 -3.43457,3.73611 0,0 6.31348,0.89481 6.31348,0.89481 0,0 3.07323,-3.3276 3.07323,-3.3276 0,0 -5.95214,-1.30332 -5.95214,-1.30332 m 8.56287,0.7271 c 0,0 -3.42457,3.69871 -3.42457,3.69871 0,0 6.30331,0.93222 6.30331,0.93222 0,0 3.13272,-3.27166 3.13272,-3.27166 0,0 -6.01146,-1.35927 -6.01146,-1.35927 m 8.63216,0.83021 c 0,0 -3.4907,3.63637 -3.4907,3.63637 0,0 6.28565,1.04571 6.28565,1.04571 0,0 3.13272,-3.27166 3.13272,-3.27166 0,0 -5.92767,-1.41042 -5.92767,-1.41042 m 8.62463,0.91447 c 0,0 -3.56695,3.60325 -3.56695,3.60325 0,0 6.27612,1.12897 6.27612,1.12897 0,0 3.19181,-3.21404 3.19181,-3.21404 0,0 -5.90098,-1.51818 -5.90098,-1.51818 m 8.53089,1.03697 c 0,0 -3.55638,3.57216 -3.55638,3.57216 0,0 6.26275,1.18005 6.26275,1.18005 0,0 3.25274,-3.15234 3.25274,-3.15234 0,0 -5.95911,-1.59987 -5.95911,-1.59987 m 8.59774,1.16908 c 0,0 -3.6241,3.50343 -3.6241,3.50343 0,0 6.24218,1.27979 6.24218,1.27979 0,0 3.32405,-3.12258 3.32405,-3.12258 0,0 -5.94213,-1.66064 -5.94213,-1.66064 m 8.58922,1.2854 c 0,0 -3.69691,3.42647 -3.69691,3.42647 0,0 6.21387,1.41069 6.21387,1.41069 0,0 3.31826,-3.08327 3.31826,-3.08327 0,0 -5.83522,-1.75389 -5.83522,-1.75389 m 8.58135,1.42671 c 0,0 -3.79595,3.3784 -3.79595,3.3784 0,0 6.19477,1.51836 6.19477,1.51836 0,0 3.39207,-3.00181 3.39207,-3.00181 0,0 -5.79089,-1.89495 -5.79089,-1.89495 m 8.44629,1.58406 c 0,0 -3.77894,3.33572 -3.77894,3.33572 0,0 6.15851,1.6543 6.15851,1.6543 0,0 3.47973,-2.89963 3.47973,-2.89963 0,0 -5.8593,-2.09039 -5.8593,-2.09039 m 8.52271,1.85856 c 0,0 -3.87634,3.22187 -3.87634,3.22187 0,0 6.10961,1.82433 6.10961,1.82433 0,0 3.62918,-2.74171 3.62918,-2.74171 0,0 -5.86245,-2.30449 -5.86245,-2.30449 M 62.12955,126.18616 c 0,0 2.149538,3.35575 2.149538,3.35575 0,0 7.292081,-0.50266 7.292081,-0.50266 0,0 -3.034604,-3.52396 -3.034604,-3.52396 0,0 -6.407015,0.67087 -6.407015,0.67087 m 8.499662,-1.27492 c 0,0 1.968277,3.42618 1.968277,3.42618 0,0 7.327055,-0.18912 7.327055,-0.18912 0,0 -2.861681,-3.65114 -2.861681,-3.65114 0,0 -6.433651,0.41408 -6.433651,0.41408 m 8.545675,-0.93022 c 0,0 1.894969,3.50589 1.894969,3.50589 0,0 7.343013,0.0246 7.343013,0.0246 0,0 -2.79588,-3.71629 -2.79588,-3.71629 0,0 -6.442102,0.18585 -6.442102,0.18585 m 8.570032,-0.65073 c 0,0 1.76327,3.55566 1.76327,3.55566 0,0 7.31828,0.24688 7.31828,0.24688 0,0 -2.63387,-3.81678 -2.63387,-3.81678 0,0 -6.44768,0.0142 -6.44768,0.0142 m 8.58666,-0.40253 c 0,0 1.67828,3.61454 1.67828,3.61454 0,0 7.407281,0.36997 7.407281,0.36997 0,0 -2.64015,-3.82837 -2.64015,-3.82837 0,0 -6.445411,-0.15614 -6.445411,-0.15614 m 8.590651,-0.22057 c 0,0 1.67829,3.61455 1.67829,3.61455 0,0 7.29639,0.56317 7.29639,0.56317 0,0 -2.53453,-3.89915 -2.53453,-3.89915 0,0 -6.44015,-0.27857 -6.44015,-0.27857 m 8.59491,-0.0394 c 0,0 1.57887,3.65911 1.57887,3.65911 0,0 7.29499,0.64176 7.29499,0.64176 0,0 -2.4411,-3.95835 -2.4411,-3.95835 0,0 -6.43276,-0.34252 -6.43276,-0.34252 m 8.5945,0.0759 c 0,0 1.4914,3.69564 1.4914,3.69564 0,0 7.3788,0.74802 7.3788,0.74802 0,0 -2.44109,-3.95835 -2.44109,-3.95835 0,0 -6.42911,-0.48531 -6.42911,-0.48531 m 8.59083,0.21873 c 0,0 1.49141,3.69565 1.49141,3.69565 0,0 7.28526,0.89875 7.28526,0.89875 0,0 -2.35641,-4.00935 -2.35641,-4.00935 0,0 -6.42026,-0.58505 -6.42026,-0.58505 m 8.58716,0.36447 c 0,0 1.41253,3.72652 1.41253,3.72652 0,0 7.27743,0.95439 7.27743,0.95439 0,0 -2.27769,-4.05461 -2.27769,-4.05461 0,0 -6.41227,-0.6263 -6.41227,-0.6263 m 8.58308,0.44807 c 0,0 1.33949,3.7534 1.33949,3.7534 0,0 7.34222,1.04827 7.34222,1.04827 0,0 -2.27768,-4.05462 -2.27768,-4.05462 0,0 -6.40403,-0.74705 -6.40403,-0.74705 m 8.57483,0.56884 c 0,0 1.3395,3.7534 1.3395,3.7534 0,0 7.25626,1.16999 7.25626,1.16999 0,0 -2.2024,-4.09598 -2.2024,-4.09598 0,0 -6.39336,-0.82741 -6.39336,-0.82741 m 8.56709,0.6893 c 0,0 1.26994,3.77752 1.26994,3.77752 0,0 7.24282,1.2238 7.24282,1.2238 0,0 -2.12822,-4.13504 -2.12822,-4.13504 0,0 -6.38454,-0.86628 -6.38454,-0.86628 m 8.56041,0.7674 c 0,0 1.20163,3.79979 1.20163,3.79979 0,0 7.29909,1.31549 7.29909,1.31549 0,0 -2.12822,-4.13503 -2.12822,-4.13503 0,0 -6.3725,-0.98025 -6.3725,-0.98025 m 8.54837,0.88136 c 0,0 1.20163,3.79979 1.20163,3.79979 0,0 7.20938,1.43784 7.20938,1.43784 0,0 -2.05252,-4.17312 -2.05252,-4.17312 0,0 -6.35849,-1.06451 -6.35849,-1.06451 m 8.5358,1.00529 c 0,0 1.13219,3.82104 1.13219,3.82104 0,0 7.18609,1.50775 7.18609,1.50775 0,0 -1.97224,-4.21165 -1.97224,-4.21165 0,0 -6.34604,-1.11714 -6.34604,-1.11714 m 8.52407,1.09962 c 0,0 1.05885,3.842 1.05885,3.842 0,0 7.15642,1.5894 7.15642,1.5894 0,0 -1.88385,-4.21379 -1.88385,-4.21379 0,0 -6.33142,-1.21761 -6.33142,-1.21761 m 8.50989,1.20751 c 0,0 0.97785,3.8634 0.97785,3.8634 0,0 7.20984,1.73914 7.20984,1.73914 0,0 -1.88329,-4.25213 -1.88329,-4.25213 0,0 -6.3044,-1.35041 -6.3044,-1.35041 m 8.48232,1.37864 c 0,0 0.97786,3.8634 0.97786,3.8634 0,0 7.08092,1.89219 7.08092,1.89219 0,0 -1.77954,-4.29655 -1.77954,-4.29655 0,0 -6.27924,-1.45904 -6.27924,-1.45904 m 8.45581,1.54013 c 0,0 0.88381,3.88596 0.88381,3.88596 0,0 7.01022,2.05871 7.01022,2.05871 0,0 -1.65102,-4.34746 -1.65102,-4.34746 0,0 -6.24301,-1.59721 -6.24301,-1.59721 m 8.41617,1.74295 c 0,0 0.76792,3.91043 0.76792,3.91043 0,0 6.85533,2.2625 6.85533,2.2625 0,0 -1.42707,-4.40318 -1.42707,-4.40318 0,0 -6.19618,-1.76975 -6.19618,-1.76975"
       id="path4924" />
    <path
       inkscape:connector-curvature="0"
       style="fill:none;stroke:#be9f0f;stroke-width:1.09347343;stroke-linecap:butt;stroke-linejoin:miter;stroke-miterlimit:4;stroke-dasharray:none;stroke-opacity:1"
       d="m 62.138516,126.25909 c 50.815554,-9.03649 145.584714,0.77864 181.656334,11.12749"
       id="path931" />
    <path
       inkscape:connector-curvature="0"
       id="path1305"
       d="m 122.83485,118.57374 -3.0994,3.97525 6.35984,0.39555 2.7807,-3.57575 z m -3.09658,4.2883 1.58502,3.65656 7.3956,0.55998 -2.5411,-3.89502 z"
       style="fill:#fced89;fill-opacity:1;stroke:none;stroke-width:0.28931484px;stroke-linecap:butt;stroke-linejoin:miter;stroke-opacity:1" />
    <path
       sodipodi:nodetypes="ccccccccc"
       inkscape:connector-curvature="0"
       id="path1062"
       d="m 63.285733,118.67467 0.909793,-25.110342 c -0.356483,-4.9262 4.102745,-6.69242 10.007742,-7.64229 71.761142,-7.867398 125.401632,-0.72862 166.128592,17.104162 1.2763,1.63442 3.57151,1.99517 3.09331,5.82269 l -0.90979,22.01704 -8.916,-3.82113 C 182.02551,116.02393 128.25061,110.92893 70.382136,116.85509 Z"
       style="fill:url(#linearGradient1116);fill-opacity:1.0;stroke:none;stroke-width:0.28931484px;stroke-linecap:butt;stroke-linejoin:miter;stroke-opacity:1" />
    <path
       sodipodi:nodetypes="ccc"
       inkscape:connector-curvature="0"
       id="path1064"
       d="M 64.410496,95.061459 C 64.112033,91.529764 68.084403,87.720314 76.858183,87.179651 134.00067,79.858895 221.13357,87.149486 243.56565,107.989"
       style="fill:none;stroke:#000000;stroke-width:2.187;stroke-linecap:round;stroke-linejoin:miter;stroke-miterlimit:4;stroke-dasharray:2.187, 2.187;stroke-dashoffset:0;stroke-opacity:1" />
    <path
       sodipodi:nodetypes="cc"
       inkscape:connector-curvature="0"
       id="path1066"
       d="m 63.790144,114.4405 c 17.658635,-12.21277 173.224666,3.02189 180.139426,14.37476"
       style="fill:none;stroke:#000000;stroke-width:2.18694687;stroke-linecap:butt;stroke-linejoin:miter;stroke-miterlimit:4;stroke-dasharray:none;stroke-opacity:1" />
    <path
       sodipodi:nodetypes="cccccc"
       inkscape:connector-curvature="0"
       id="path1078"
       d="m 58.695292,179.76378 c 10.897743,19.04787 122.455378,16.36967 173.406938,9.27992 -26.7705,44.42088 -65.05985,55.05311 -106.26406,57.13513 C 81.551617,247.96306 42.238132,245.03597 16.29884,229.43859 3.3832603,222.11101 5.6242983,211.75211 38.6798,195.23031 c 7.40072,-3.69956 20.864656,-8.30543 20.015492,-15.46653 z"
       style="fill:url(#linearGradient1108);fill-opacity:1;stroke:none;stroke-width:0.28931484px;stroke-linecap:butt;stroke-linejoin:miter;stroke-opacity:1" />
    <path
       sodipodi:nodetypes="ccccc"
       inkscape:connector-curvature="0"
       id="path4658"
       d="m 59.046537,169.93417 c 56.252573,16.99104 111.807863,9.6761 174.534613,8.6833 l -0.28944,7.81499 c -64.22532,3.52567 -144.491665,10.28417 -175.402948,-7.81498 z"
       style="fill:#000000;fill-opacity:1;stroke:#000000;stroke-width:0.26458332px;stroke-linecap:butt;stroke-linejoin:miter;stroke-opacity:1" />
    <path
       sodipodi:nodetypes="ccccc"
       inkscape:connector-curvature="0"
       id="path4660"
       d="m 78.728717,175.4336 c 15.98369,2.89087 36.717653,4.72613 59.625423,6.07832 l -1.15777,8.39387 c -20.71131,0.1608 -41.355122,0.20346 -59.046543,-4.92055 z"
       style="fill:#ffffff;fill-opacity:0.17741935;stroke:none;stroke-width:0.26458332px;stroke-linecap:butt;stroke-linejoin:miter;stroke-opacity:1" />
    <ellipse
       ry="4.6311011"
       rx="3.9074914"
       cy="182.09082"
       cx="228.80533"
       id="path4662"
       style="fill:url(#radialGradient4670);fill-opacity:1;stroke:none;stroke-width:2.40401006;stroke-miterlimit:4;stroke-dasharray:none;stroke-dashoffset:0;stroke-opacity:1" />
    <path
       sodipodi:nodetypes="cccc"
       inkscape:connector-curvature="0"
       id="path4672"
       d="m 37.91714,196.27356 c -15.514924,8.60475 -41.5272452,24.02839 -14.182747,33.57547 22.603456,9.3312 99.641327,23.07476 155.720777,3.76277 25.80458,-10.85306 36.8012,-26.29208 51.23155,-43.99546"
       style="fill:none;stroke:url(#linearGradient4680);stroke-width:2;stroke-linecap:round;stroke-linejoin:miter;stroke-miterlimit:4;stroke-dasharray:2.00000006, 2.00000006;stroke-dashoffset:0;stroke-opacity:1" />
  </g>
</svg>
