<?xml version="1.0" encoding="UTF-8" standalone="no"?>
<!-- Created with Inkscape (http://www.inkscape.org/) -->

<svg
   xmlns:dc="http://purl.org/dc/elements/1.1/"
   xmlns:cc="http://creativecommons.org/ns#"
   xmlns:rdf="http://www.w3.org/1999/02/22-rdf-syntax-ns#"
   xmlns:svg="http://www.w3.org/2000/svg"
   xmlns="http://www.w3.org/2000/svg"
   xmlns:sodipodi="http://sodipodi.sourceforge.net/DTD/sodipodi-0.dtd"
   xmlns:inkscape="http://www.inkscape.org/namespaces/inkscape"
   width="255"
   height="255"
   viewBox="0 0 67.468748 67.468752"
   version="1.1"
   id="svg8"
   inkscape:version="0.92.5 (2060ec1f9f, 2020-04-08)"
   sodipodi:docname="gv.svg">
  <defs
     id="defs2">
    <inkscape:perspective
       id="perspective14"
       inkscape:persp3d-origin="128 : 85.333333 : 1"
       inkscape:vp_z="256 : 128 : 1"
       inkscape:vp_y="0 : 1000 : 0"
       inkscape:vp_x="0 : 128 : 1"
       sodipodi:type="inkscape:persp3d" />
    <inkscape:perspective
       sodipodi:type="inkscape:persp3d"
       inkscape:vp_x="0 : 526.18109 : 1"
       inkscape:vp_y="0 : 1000 : 0"
       inkscape:vp_z="744.09448 : 526.18109 : 1"
       inkscape:persp3d-origin="372.04724 : 350.78739 : 1"
       id="perspective10" />
    <filter
       inkscape:collect="always"
       style="color-interpolation-filters:sRGB"
       id="filter831"
       x="-0.011190942"
       width="1.0223819"
       y="-0.012935158"
       height="1.0258703">
      <feGaussianBlur
         inkscape:collect="always"
         stdDeviation="0.31400809"
         id="feGaussianBlur833" />
    </filter>
  </defs>
  <sodipodi:namedview
     id="base"
     pagecolor="#ff0000"
     bordercolor="#666666"
     borderopacity="1.0"
     inkscape:pageopacity="0"
     inkscape:pageshadow="2"
     inkscape:zoom="3.5254902"
     inkscape:cx="127.5"
     inkscape:cy="127.5"
     inkscape:document-units="mm"
     inkscape:current-layer="layer1"
     showgrid="false"
     units="px"
     inkscape:snap-to-guides="false"
     inkscape:snap-grids="false"
     inkscape:snap-others="false"
     inkscape:object-nodes="false"
     inkscape:snap-nodes="false"
     inkscape:snap-global="false"
     inkscape:window-width="1920"
     inkscape:window-height="1056"
     inkscape:window-x="0"
     inkscape:window-y="0"
     inkscape:window-maximized="1" />
  <metadata
     id="metadata5">
    <rdf:RDF>
      <cc:Work
         rdf:about="">
        <dc:format>image/svg+xml</dc:format>
        <dc:type
           rdf:resource="http://purl.org/dc/dcmitype/StillImage" />
        <dc:title />
        <cc:license
           rdf:resource="http://creativecommons.org/licenses/by-nc/4.0/" />
      </cc:Work>
      <cc:License
         rdf:about="http://creativecommons.org/licenses/by-nc/4.0/">
        <cc:permits
           rdf:resource="http://creativecommons.org/ns#Reproduction" />
        <cc:permits
           rdf:resource="http://creativecommons.org/ns#Distribution" />
        <cc:requires
           rdf:resource="http://creativecommons.org/ns#Notice" />
        <cc:requires
           rdf:resource="http://creativecommons.org/ns#Attribution" />
        <cc:prohibits
           rdf:resource="http://creativecommons.org/ns#CommercialUse" />
        <cc:permits
           rdf:resource="http://creativecommons.org/ns#DerivativeWorks" />
      </cc:License>
    </rdf:RDF>
  </metadata>
  <g
     inkscape:label="Layer 1"
     inkscape:groupmode="layer"
     id="layer1"
     transform="translate(0,-229.53123)">
    <g
       id="g945"
       transform="matrix(0.43045205,0,0,0.43045205,55.369457,172.1086)">
      <rect
         style="opacity:1;fill:#bfae21;fill-opacity:1;fill-rule:nonzero;stroke:none;stroke-width:0.57999998;stroke-linecap:butt;stroke-linejoin:round;stroke-miterlimit:4;stroke-dasharray:none;stroke-dashoffset:0;stroke-opacity:1;paint-order:normal"
         id="rect921"
         width="3.9773676"
         height="3.2270927"
         x="285.91565"
         y="32.279354"
         ry="0.81889474"
         rx="0.90058398"
         transform="rotate(89.715233)" />
      <rect
         transform="rotate(89.715233)"
         rx="0.90058398"
         ry="0.81889474"
         y="9.114296"
         x="275.89908"
         height="3.2270927"
         width="3.9773676"
         id="rect923"
         style="opacity:1;fill:#bfae21;fill-opacity:1;fill-rule:nonzero;stroke:none;stroke-width:0.57999998;stroke-linecap:butt;stroke-linejoin:round;stroke-miterlimit:4;stroke-dasharray:none;stroke-dashoffset:0;stroke-opacity:1;paint-order:normal" />
      <path
         inkscape:connector-curvature="0"
         id="rect889"
         d="M -38.72511,272.23391 -2.6267041,257.52437 V 275.3109 L -38.72511,290.02044 Z"
         style="opacity:1;fill:#949494;fill-opacity:1;fill-rule:nonzero;stroke:none;stroke-width:0.55998409;stroke-linecap:butt;stroke-linejoin:round;stroke-miterlimit:4;stroke-dasharray:none;stroke-dashoffset:0;stroke-opacity:1;paint-order:normal" />
      <path
         sodipodi:nodetypes="ccccc"
         style="opacity:1;fill:#4755fe;fill-opacity:1;fill-rule:nonzero;stroke:none;stroke-width:0.55998409;stroke-linecap:butt;stroke-linejoin:round;stroke-miterlimit:4;stroke-dasharray:none;stroke-dashoffset:0;stroke-opacity:1;paint-order:normal"
         d="m -47.777574,265.40449 33.593375,-12.00779 11.4540213,4.20272 -36.3701763,14.70954 z"
         id="path892"
         inkscape:connector-curvature="0" />
      <path
         inkscape:connector-curvature="0"
         id="path894"
         d="m -47.777574,265.40449 0.12167,14.18419 9.127513,10.28167 -0.271768,-17.86158 z"
         style="opacity:1;fill:#5f5f5f;fill-opacity:1;fill-rule:nonzero;stroke:none;stroke-width:0.55998409;stroke-linecap:butt;stroke-linejoin:round;stroke-miterlimit:4;stroke-dasharray:none;stroke-dashoffset:0;stroke-opacity:1;paint-order:normal"
         sodipodi:nodetypes="ccccc" />
      <path
         sodipodi:nodetypes="ccccc"
         style="opacity:1;fill:#4a4a4a;fill-opacity:1;fill-rule:nonzero;stroke:none;stroke-width:0.55998409;stroke-linecap:butt;stroke-linejoin:round;stroke-miterlimit:4;stroke-dasharray:none;stroke-dashoffset:0;stroke-opacity:1;paint-order:normal"
         d="M -36.248504,273.58479 -6.3791374,261.2768 -5.8537967,273.50973 -35.873261,286.4181 Z"
         id="path896"
         inkscape:connector-curvature="0" />
      <path
         sodipodi:nodetypes="ccccc"
         style="opacity:1;fill:#21aebf;fill-opacity:1;fill-rule:nonzero;stroke:none;stroke-width:0.55998409;stroke-linecap:butt;stroke-linejoin:round;stroke-miterlimit:4;stroke-dasharray:none;stroke-dashoffset:0;stroke-opacity:1;paint-order:normal"
         d="m -45.704636,266.23002 27.392761,-9.75633 -3.152044,-5.55361 -26.792372,8.25535 z"
         id="path900"
         inkscape:connector-curvature="0" />
      <path
         inkscape:connector-curvature="0"
         id="path908"
         d="m -44.353759,265.55458 4.803112,-1.50098 -3.452239,-6.60429 -4.352821,1.72612 z"
         style="opacity:1;fill:#bfae21;fill-opacity:1;fill-rule:nonzero;stroke:none;stroke-width:0.55998409;stroke-linecap:butt;stroke-linejoin:round;stroke-miterlimit:4;stroke-dasharray:none;stroke-dashoffset:0;stroke-opacity:1;paint-order:normal"
         sodipodi:nodetypes="ccccc" />
      <path
         sodipodi:nodetypes="ccccc"
         style="opacity:1;fill:#bfae21;fill-opacity:1;fill-rule:nonzero;stroke:none;stroke-width:0.55998409;stroke-linecap:butt;stroke-linejoin:round;stroke-miterlimit:4;stroke-dasharray:none;stroke-dashoffset:0;stroke-opacity:1;paint-order:normal"
         d="m -35.573065,262.77778 4.803112,-1.50098 -3.452239,-6.60429 -4.352821,1.72612 z"
         id="path910"
         inkscape:connector-curvature="0" />
      <path
         inkscape:connector-curvature="0"
         id="path912"
         d="m -27.242663,260.07603 4.803112,-1.50098 -3.452239,-6.60429 -4.352821,1.72612 z"
         style="opacity:1;fill:#bfae21;fill-opacity:1;fill-rule:nonzero;stroke:none;stroke-width:0.55998409;stroke-linecap:butt;stroke-linejoin:round;stroke-miterlimit:4;stroke-dasharray:none;stroke-dashoffset:0;stroke-opacity:1;paint-order:normal"
         sodipodi:nodetypes="ccccc" />
      <path
         sodipodi:nodetypes="ccccc"
         inkscape:connector-curvature="0"
         id="rect914"
         d="m -12.608175,250.69496 2.176411,-0.67544 0.300195,6.60428 h -2.551655 z"
         style="opacity:1;fill:#bfae21;fill-opacity:1;fill-rule:nonzero;stroke:none;stroke-width:0.57999998;stroke-linecap:butt;stroke-linejoin:round;stroke-miterlimit:4;stroke-dasharray:none;stroke-dashoffset:0;stroke-opacity:1;paint-order:normal" />
      <path
         style="opacity:1;fill:#bfae21;fill-opacity:0.97297297;fill-rule:nonzero;stroke:none;stroke-width:0.57999998;stroke-linecap:butt;stroke-linejoin:round;stroke-miterlimit:4;stroke-dasharray:none;stroke-dashoffset:0;stroke-opacity:1;paint-order:normal"
         d="m -12.608175,250.69496 -2.551655,-0.60039 -0.300194,5.4035 2.7768,1.12573 z"
         id="path917"
         inkscape:connector-curvature="0"
         sodipodi:nodetypes="ccccc" />
      <rect
         transform="rotate(-17.905503)"
         rx="0.90058398"
         ry="1.6135463"
         y="233.05998"
         x="-91.299263"
         height="3.2270925"
         width="17.861582"
         id="rect919"
         style="opacity:1;fill:#bfae21;fill-opacity:1;fill-rule:nonzero;stroke:none;stroke-width:0.57999998;stroke-linecap:butt;stroke-linejoin:round;stroke-miterlimit:4;stroke-dasharray:none;stroke-dashoffset:0;stroke-opacity:1;paint-order:normal" />
      <path
         inkscape:connector-curvature="0"
         id="path925"
         d="m -44.250287,265.77973 25.938411,-8.78069 4.699642,2.3265 -25.938412,10.28167 z"
         style="opacity:1;fill:#000000;fill-opacity:0.67117118;fill-rule:nonzero;stroke:none;stroke-width:0.55998409;stroke-linecap:butt;stroke-linejoin:round;stroke-miterlimit:4;stroke-dasharray:none;stroke-dashoffset:0;stroke-opacity:1;paint-order:normal"
         sodipodi:nodetypes="ccccc" />
      <path
         inkscape:connector-curvature="0"
         id="path898"
         d="m -38.875207,271.48343 28.218296,-11.18226 1.5760217,-5.17836 -29.3440267,11.03215 z"
         style="opacity:1;fill:#21aebf;fill-opacity:1;fill-rule:nonzero;stroke:none;stroke-width:0.55998409;stroke-linecap:butt;stroke-linejoin:round;stroke-miterlimit:4;stroke-dasharray:none;stroke-dashoffset:0;stroke-opacity:1;paint-order:normal"
         sodipodi:nodetypes="ccccc" />
      <path
         sodipodi:nodetypes="ccccc"
         style="opacity:1;fill:#bfae21;fill-opacity:1;fill-rule:nonzero;stroke:none;stroke-width:0.55998409;stroke-linecap:butt;stroke-linejoin:round;stroke-miterlimit:4;stroke-dasharray:none;stroke-dashoffset:0;stroke-opacity:1;paint-order:normal"
         d="m -17.111094,263.00293 3.977577,-1.65108 -4.577969,-3.30215 -4.352821,1.72612 z"
         id="path906"
         inkscape:connector-curvature="0" />
      <path
         inkscape:connector-curvature="0"
         id="path904"
         d="m -24.615961,265.92983 3.977577,-1.65108 -4.577969,-3.30215 -4.352821,1.72612 z"
         style="opacity:1;fill:#bfae21;fill-opacity:1;fill-rule:nonzero;stroke:none;stroke-width:0.55998409;stroke-linecap:butt;stroke-linejoin:round;stroke-miterlimit:4;stroke-dasharray:none;stroke-dashoffset:0;stroke-opacity:1;paint-order:normal"
         sodipodi:nodetypes="ccccc" />
      <path
         sodipodi:nodetypes="ccccc"
         style="opacity:1;fill:#bfae21;fill-opacity:1;fill-rule:nonzero;stroke:none;stroke-width:0.55998409;stroke-linecap:butt;stroke-linejoin:round;stroke-miterlimit:4;stroke-dasharray:none;stroke-dashoffset:0;stroke-opacity:1;paint-order:normal"
         d="m -33.471703,269.38207 3.977577,-1.65108 -4.577969,-3.30215 -4.352821,1.72612 z"
         id="path902"
         inkscape:connector-curvature="0" />
    </g>
    <g
       id="g955"
       transform="translate(0.225146,-5.3284552)">
      <path
         inkscape:connector-curvature="0"
         style="fill:#ffffff;fill-opacity:0.67117118;stroke:none;stroke-width:0.47726214;stroke-linecap:round;stroke-linejoin:round;filter:url(#filter831)"
         d="m 27.275149,236.56436 c -2.904112,2.353 -4.840188,6.5884 -4.356169,10.3532 0.484019,1.4118 4.356169,4.58835 0,6.94134 -1.936076,0.9412 -3.388132,0.11765 -4.356169,-1.29414 0,-0.4706 0.484019,-6.1178 -0.968038,-8.0002 -2.420094,-2.8236 -8.7123392,1.8824 -10.6484147,3.2942 1.3794537,3.33655 -6.17123979,9.4167 -7.26028213,11.29439 0,2.8236 0.96803764,2.8236 1.45205643,4.706 0.9680376,2.353 -0.48401879,6.5884 2.9041131,5.6472 1.9360754,-0.4706 2.6621034,-5.8825 4.11416,-5.8825 1.4520561,-0.4706 1.6940661,4.4707 3.6301413,4.9413 1.936075,0 3.146122,-4.11775 4.598179,-3.64715 1.452056,0.4706 3.267127,3.2942 5.687221,5.1766 4.35617,2.82359 7.260282,1.76475 11.616452,2.00005 -4.719184,2.94124 -4.477174,5.88249 -4.477174,6.82369 0,3.2942 1.452056,3.2942 2.420094,5.1766 0.968038,1.4118 0,2.35299 3.87215,8.00019 0.968038,1.4118 2.420095,2.8236 4.35617,1.8824 1.452056,-1.4118 0.484018,-4.23539 0.968037,-6.11779 0,0 1.452057,-3.7648 1.452057,-3.7648 0,0 0,-4.706 0,-4.706 0.484019,-1.8824 1.936075,-2.8236 2.420094,-4.2354 0.484019,-1.4118 -1.694066,-3.29419 -1.210047,-4.70599 0.968037,-1.4118 3.146123,-2.47065 4.114162,-4.82365 0.968038,-1.8824 0,-5.29425 1.936077,-7.17665 2.904113,-2.353 7.260281,1.1765 9.196356,-0.7059 1.452054,-1.8824 0.484016,-2.8236 2.420092,-5.17659 2.904113,-2.8236 5.32421,-2.8236 5.808226,-4.2354 0.484022,-1.4118 -1.936075,-3.7648 -2.904113,-4.706 -3.388129,-3.2942 -10.164393,-7.059 -15.004584,-5.6472 -3.388131,0.4706 -4.840188,3.2942 -5.324207,6.5884 0,1.4118 0.605024,2.23535 0.605024,3.17655 0.484019,1.8824 -1.936076,3.41185 -3.872151,3.88245 -1.936075,0.4706 -3.993155,-0.9412 -3.509136,-2.8236 0,-1.8824 1.936075,-2.353 1.936075,-6.1178 0,-1.8824 -0.484019,-5.1766 -2.420094,-6.1178 -0.968038,-0.9412 -7.744301,-0.4706 -9.196358,0 z"
         id="selection_to_path#1" />
      <path
         inkscape:connector-curvature="0"
         id="path1886"
         d="m 31.533684,237.27584 c -2.165536,-0.0406 -4.455831,0.19757 -5.459562,2.47393 -1.826551,2.73572 -3.263523,6.84881 -0.489151,9.49674 2.604063,4.13188 -4.046802,8.453 -7.005912,4.93192 -1.934581,-2.4677 0.290229,-6.54835 -1.846152,-9.00195 -3.051997,-0.97832 -6.227854,1.78912 -8.4575858,3.43159 -0.171541,4.81213 -5.017733,7.62538 -7.40038916,11.20455 0.42779226,2.62987 2.34282226,4.89817 1.92504776,7.757 -0.3764005,1.63728 1.5869212,1.51771 1.925048,0.27134 1.0427824,-1.76524 1.8862534,-6.23593 4.7810614,-4.70847 1.4604798,1.04966 1.2215678,3.80874 2.7297798,4.5329 1.586583,-1.26148 2.908758,-4.87976 5.443783,-3.11238 3.121218,2.7642 5.845485,6.76473 10.46153,6.68762 2.102864,0.44625 4.960084,-0.92551 6.422085,0.87785 -0.534822,2.16857 -3.65654,2.88039 -4.023665,5.41074 -0.675486,2.21081 0.334067,4.38438 1.956606,5.9215 1.511439,3.46939 2.505516,7.66193 5.759364,9.91171 2.091937,0.70869 1.610708,-2.59652 1.577908,-3.78273 0.05761,-3.14468 2.426358,-5.78626 1.609466,-9.06579 -0.56635,-2.45127 2.264351,-3.82764 2.429978,-5.93745 -0.956722,-1.74592 -2.249506,-4.29777 0.01578,-5.71401 2.738148,-1.73719 3.733699,-4.71415 3.61341,-7.80488 0.216267,-3.68881 4.329398,-5.09062 7.384611,-3.94234 1.421536,0.4026 3.825738,0.96719 3.928991,-1.29283 0.452024,-3.99831 4.409044,-5.73401 7.321493,-7.56547 -0.686069,-2.8078 -3.774381,-4.67741 -5.99605,-6.33647 -3.825122,-2.46596 -9.749896,-4.7384 -13.554232,-1.27688 -1.834625,2.09855 -1.88992,4.96695 -1.02564,7.46971 0.08556,4.46811 -7.783722,6.94626 -9.404332,2.25048 -0.758537,-3.13068 2.831964,-5.34929 1.830374,-8.58696 0.07933,-2.43928 -1.58012,-5.15914 -4.355027,-4.5329 -0.699758,0.005 -1.399894,-0.0199 -2.098617,0.0319 z"
         style="fill:#000000;fill-opacity:0.47826089;stroke:none;stroke-width:0.47726214;stroke-linecap:round;stroke-linejoin:round;stroke-opacity:1" />
      <path
         inkscape:connector-curvature="0"
         sodipodi:nodetypes="cccccccccccccccccccccccccccccc"
         id="path1890"
         d="m 34.170691,238.47172 c -2.868551,0.0303 -7.631043,-1.74988 -7.668633,2.63355 -1.723803,2.49982 -2.307144,6.18742 0.142011,8.41139 1.954823,6.09885 -5.490382,10.00123 -8.978296,5.55439 -2.129181,-2.48688 -0.02337,-6.21603 -1.704141,-8.73061 -2.622786,-0.24337 -5.428609,1.63396 -6.8481203,3.54332 -0.6719465,4.51341 -4.8914088,7.10052 -7.2425979,10.51823 0.7181173,2.18162 2.0797384,5.27577 1.972385,7.05472 0.9460784,-2.34737 2.4542808,-6.46262 5.7278062,-5.09153 1.739228,0.55377 1.812711,3.24566 2.682443,4.00619 1.207931,-2.39144 4.57555,-4.37705 6.627214,-1.73974 2.912667,3.18616 6.533488,6.73427 11.218926,5.90553 1.927143,-0.50338 6.25157,0.021 5.033526,2.93681 -1.376334,2.18056 -4.667229,3.50369 -3.802758,6.62377 0.957419,2.50558 2.993718,4.37384 3.562366,7.11471 0.790691,1.90595 1.979646,4.56449 3.790685,5.39863 -0.183335,-3.14718 0.609007,-6.19117 1.688362,-9.11367 0.341005,-2.16563 -0.745192,-4.62903 1.104536,-6.40032 1.202946,-1.09821 1.509247,-2.43078 0.457593,-3.73485 -1.274516,-2.45633 0.394462,-4.86124 2.508874,-6.03322 3.157522,-2.69691 0.539801,-7.95706 4.291909,-10.19901 2.608336,-2.08765 5.812504,-0.57191 8.631158,-0.44691 0.86785,-1.14144 0.556711,-3.31934 1.909269,-4.40521 1.408822,-1.90223 3.867834,-2.99172 5.49112,-4.30944 -2.9964,-4.18588 -7.89364,-7.1615 -12.986183,-7.77296 -3.351528,-0.58673 -6.40352,2.36864 -5.822482,5.74593 1.26057,2.87955 -0.02642,6.30575 -2.950688,7.50162 -3.211434,2.09123 -8.723705,-0.0526 -8.015772,-4.37329 0.536529,-2.69569 2.909152,-5.09009 1.814594,-7.94852 0.367796,-2.0609 -0.659212,-3.48072 -2.635106,-2.64951 z"
         style="fill:#000000;fill-opacity:0.48148151;stroke:none;stroke-width:0.47726214;stroke-linecap:round;stroke-linejoin:round" />
      <g
         style="fill:#ffffff;fill-opacity:0.48148151"
         transform="matrix(0.4494729,0,0,0.3771941,2.7225106,235.95894)"
         id="g2827">
        <g
           style="fill:#ffffff;fill-opacity:0.48148151"
           transform="translate(0.274471,-1.985004)"
           id="g1881">
          <path
             inkscape:connector-curvature="0"
             style="fill:#ffffff;fill-opacity:0.48148151;stroke:#000000;stroke-width:1;stroke-linecap:round;stroke-linejoin:round"
             d="m 54.284291,28.595484 c 0,0 0,12.75 0,12.75 4.88,-5.37 11.75,-3.87 14.12,-0.13 -0.24,-4.12 1.88,-8.62 1.88,-11.62 -2.88,-5.62 -11.25,-6 -16,-1 z"
             id="selection_to_path#3" />
          <path
             inkscape:connector-curvature="0"
             style="fill:#ffffff;fill-opacity:0.48148151;stroke:#000000;stroke-width:1;stroke-linecap:round;stroke-linejoin:round"
             d="m 73.73535,21.26465 c 1.88,-2.88 0.88,-8.75 -1,-11 -2,1 -4,3.12 -7.38,3.12 0.93,2.61 -0.04,5.47 -1.12,7.5 3.12,0.63 6.5,1.38 9.5,0.38 z"
             id="selection_to_path#2" />
          <path
             inkscape:connector-curvature="0"
             style="fill:#ffffff;fill-opacity:0.48148151;stroke:#000000;stroke-width:1;stroke-linecap:round;stroke-linejoin:round"
             d="m 63.23535,14.38465 c -3.25,-0.87 -3.88,-1.5 -6.5,-4.12 -2.75,2 -3.75,9.88 -2.88,12.88 -0.25,-1.9 7.75,-2.84 7.88,-1.88 -0.34,-3.47 0.59,-5.7 1.5,-6.88 z"
             id="selection_to_path" />
        </g>
      </g>
    </g>
  </g>
</svg>
