<?xml version="1.0" encoding="UTF-8" standalone="no"?>
<!-- Created with Inkscape (http://www.inkscape.org/) -->

<svg
   xmlns:dc="http://purl.org/dc/elements/1.1/"
   xmlns:cc="http://creativecommons.org/ns#"
   xmlns:rdf="http://www.w3.org/1999/02/22-rdf-syntax-ns#"
   xmlns:svg="http://www.w3.org/2000/svg"
   xmlns="http://www.w3.org/2000/svg"
   xmlns:xlink="http://www.w3.org/1999/xlink"
   xmlns:sodipodi="http://sodipodi.sourceforge.net/DTD/sodipodi-0.dtd"
   xmlns:inkscape="http://www.inkscape.org/namespaces/inkscape"
   id="svg2"
   version="1.1"
   inkscape:version="0.48.0 r9654"
   width="256"
   height="256"
   sodipodi:docname="oakley-3D.jpg">
  <metadata
     id="metadata8">
    <rdf:RDF>
      <cc:Work
         rdf:about="">
        <dc:format>image/svg+xml</dc:format>
        <dc:type
           rdf:resource="http://purl.org/dc/dcmitype/StillImage" />
        <dc:title></dc:title>
      </cc:Work>
    </rdf:RDF>
  </metadata>
  <defs
     id="defs6">
    <linearGradient
       id="linearGradient3873">
      <stop
         style="stop-color:#ffffff;stop-opacity:0.54263568;"
         offset="0"
         id="stop3875" />
      <stop
         style="stop-color:#000000;stop-opacity:0;"
         offset="1"
         id="stop3877" />
    </linearGradient>
    <linearGradient
       id="linearGradient3865">
      <stop
         id="stop3867"
         offset="0"
         style="stop-color:#ffffff;stop-opacity:0.3255814;" />
      <stop
         id="stop3869"
         offset="1"
         style="stop-color:#858585;stop-opacity:0;" />
    </linearGradient>
    <linearGradient
       id="linearGradient3837">
      <stop
         style="stop-color:#fff2f2;stop-opacity:0;"
         offset="0"
         id="stop3839" />
      <stop
         id="stop3847"
         offset="0.88518196"
         style="stop-color:#fff5f5;stop-opacity:0;" />
      <stop
         id="stop3845"
         offset="0.93800586"
         style="stop-color:#fff8f8;stop-opacity:0.37984496;" />
      <stop
         style="stop-color:#ffffff;stop-opacity:0;"
         offset="1"
         id="stop3841" />
    </linearGradient>
    <linearGradient
       id="linearGradient3819">
      <stop
         style="stop-color:#ffffff;stop-opacity:1;"
         offset="0"
         id="stop3821" />
      <stop
         style="stop-color:#858585;stop-opacity:0;"
         offset="1"
         id="stop3823" />
    </linearGradient>
    <linearGradient
       id="linearGradient3801">
      <stop
         style="stop-color:#000000;stop-opacity:1;"
         offset="0"
         id="stop3803" />
      <stop
         style="stop-color:#ffffff;stop-opacity:1;"
         offset="1"
         id="stop3805" />
    </linearGradient>
    <linearGradient
       id="linearGradient3793">
      <stop
         style="stop-color:#d9d9d9;stop-opacity:1;"
         offset="0"
         id="stop3795" />
      <stop
         style="stop-color:#000000;stop-opacity:0;"
         offset="1"
         id="stop3797" />
    </linearGradient>
    <linearGradient
       id="linearGradient3785">
      <stop
         style="stop-color:#ffffff;stop-opacity:1;"
         offset="0"
         id="stop3787" />
      <stop
         style="stop-color:#000000;stop-opacity:0;"
         offset="1"
         id="stop3789" />
    </linearGradient>
    <linearGradient
       id="linearGradient3757">
      <stop
         style="stop-color:#ffffff;stop-opacity:1;"
         offset="0"
         id="stop3759" />
      <stop
         id="stop3765"
         offset="0.5"
         style="stop-color:#000000;stop-opacity:1;" />
      <stop
         style="stop-color:#000000;stop-opacity:1;"
         offset="1"
         id="stop3761" />
    </linearGradient>
    <linearGradient
       inkscape:collect="always"
       xlink:href="#linearGradient3757"
       id="linearGradient3763"
       x1="104.17359"
       y1="149.82526"
       x2="131.86282"
       y2="121.73394"
       gradientUnits="userSpaceOnUse"
       spreadMethod="reflect" />
    <linearGradient
       inkscape:collect="always"
       xlink:href="#linearGradient3757"
       id="linearGradient3783"
       x1="372.68008"
       y1="176.4617"
       x2="394.38052"
       y2="155.24959"
       gradientUnits="userSpaceOnUse"
       spreadMethod="reflect" />
    <linearGradient
       inkscape:collect="always"
       xlink:href="#linearGradient3785"
       id="linearGradient3791"
       x1="100.23299"
       y1="54.367119"
       x2="58.704048"
       y2="42.492119"
       gradientUnits="userSpaceOnUse" />
    <linearGradient
       inkscape:collect="always"
       xlink:href="#linearGradient3793"
       id="linearGradient3799"
       x1="100.23299"
       y1="54.367119"
       x2="58.704048"
       y2="42.492119"
       gradientUnits="userSpaceOnUse"
       spreadMethod="pad" />
    <radialGradient
       inkscape:collect="always"
       xlink:href="#linearGradient3801"
       id="radialGradient3815"
       cx="225.69319"
       cy="64.831512"
       fx="225.69319"
       fy="64.831512"
       r="78.13826"
       gradientTransform="matrix(0.43096323,0.11796712,-0.09450013,0.34523249,134.55431,15.825192)"
       gradientUnits="userSpaceOnUse"
       spreadMethod="reflect" />
    <linearGradient
       inkscape:collect="always"
       xlink:href="#linearGradient3819"
       id="linearGradient3825"
       x1="149.61743"
       y1="59.202396"
       x2="231.12558"
       y2="73.264893"
       gradientUnits="userSpaceOnUse" />
    <linearGradient
       inkscape:collect="always"
       xlink:href="#linearGradient3785"
       id="linearGradient3833"
       x1="59.590546"
       y1="76.252777"
       x2="142.44666"
       y2="76.252777"
       gradientUnits="userSpaceOnUse" />
    <radialGradient
       inkscape:collect="always"
       xlink:href="#linearGradient3837"
       id="radialGradient3843"
       cx="78.84594"
       cy="57.413002"
       fx="78.84594"
       fy="57.413002"
       r="15.587988"
       gradientTransform="matrix(3.2522444,1.6252321,-2.2556382,4.5137472,-45.496328,-338.22573)"
       gradientUnits="userSpaceOnUse" />
    <linearGradient
       inkscape:collect="always"
       xlink:href="#linearGradient3819"
       id="linearGradient3855"
       x1="136.84286"
       y1="84.112022"
       x2="120.67371"
       y2="75.704948"
       gradientUnits="userSpaceOnUse" />
    <linearGradient
       inkscape:collect="always"
       xlink:href="#linearGradient3865"
       id="linearGradient3863"
       x1="164.25204"
       y1="136.57693"
       x2="163.62904"
       y2="109.26225"
       gradientUnits="userSpaceOnUse" />
    <linearGradient
       inkscape:collect="always"
       xlink:href="#linearGradient3873"
       id="linearGradient3879"
       x1="102.32215"
       y1="100.28423"
       x2="112.82706"
       y2="71.531937"
       gradientUnits="userSpaceOnUse" />
    <linearGradient
       y2="0.60966706"
       x2="14.567238"
       y1="-2.0476494"
       x1="14.185499"
       spreadMethod="reflect"
       gradientUnits="userSpaceOnUse"
       id="linearGradient3399"
       xlink:href="#linearGradient3370"
       inkscape:collect="always" />
    <linearGradient
       y2="3.0506296"
       x2="8.7053642"
       y1="-3.0097806"
       x1="8.6621532"
       spreadMethod="reflect"
       gradientUnits="userSpaceOnUse"
       id="linearGradient3397"
       xlink:href="#linearGradient3370"
       inkscape:collect="always" />
    <linearGradient
       y2="1.6074327"
       x2="8.9013538"
       y1="-6.2525191"
       x1="9.4104776"
       spreadMethod="reflect"
       gradientUnits="userSpaceOnUse"
       id="linearGradient3395"
       xlink:href="#linearGradient3370"
       inkscape:collect="always" />
    <linearGradient
       y2="-0.69099176"
       x2="12.019372"
       y1="-6.2525191"
       x1="9.4104776"
       spreadMethod="reflect"
       gradientUnits="userSpaceOnUse"
       id="linearGradient3393"
       xlink:href="#linearGradient3370"
       inkscape:collect="always" />
    <linearGradient
       y2="-4.2722578"
       x2="9.5962267"
       y1="-8.3905888"
       x1="11.441644"
       spreadMethod="reflect"
       gradientUnits="userSpaceOnUse"
       id="linearGradient3391"
       xlink:href="#linearGradient3370"
       inkscape:collect="always" />
    <linearGradient
       y2="-7.0339308"
       x2="11.609575"
       y1="-6.2525191"
       x1="9.4104776"
       spreadMethod="reflect"
       gradientUnits="userSpaceOnUse"
       id="linearGradient3388"
       xlink:href="#linearGradient3370"
       inkscape:collect="always" />
    <linearGradient
       y2="-7.1586514"
       x2="12.446986"
       y1="-7.4997263"
       x1="14.042961"
       spreadMethod="reflect"
       gradientUnits="userSpaceOnUse"
       id="linearGradient3386"
       xlink:href="#linearGradient3370"
       inkscape:collect="always" />
    <linearGradient
       y2="-5.8401756"
       x2="16.758759"
       y1="-4.132267"
       x1="15.272351"
       spreadMethod="reflect"
       gradientUnits="userSpaceOnUse"
       id="linearGradient3384"
       xlink:href="#linearGradient3370"
       inkscape:collect="always" />
    <linearGradient
       y2="-7.0339308"
       x2="11.609575"
       y1="-6.2525191"
       x1="9.4104776"
       spreadMethod="reflect"
       gradientUnits="userSpaceOnUse"
       id="linearGradient3381"
       xlink:href="#linearGradient3370"
       inkscape:collect="always" />
    <linearGradient
       y2="-7.0339308"
       x2="11.609575"
       y1="-6.2525191"
       x1="9.4104776"
       spreadMethod="reflect"
       gradientUnits="userSpaceOnUse"
       id="linearGradient3378"
       xlink:href="#linearGradient3370"
       inkscape:collect="always" />
    <linearGradient
       spreadMethod="reflect"
       gradientUnits="userSpaceOnUse"
       y2="-7.0339308"
       x2="11.609575"
       y1="-6.2525191"
       x1="9.4104776"
       id="linearGradient3376"
       xlink:href="#linearGradient3370"
       inkscape:collect="always" />
    <inkscape:perspective
       sodipodi:type="inkscape:persp3d"
       inkscape:vp_x="0 : 526.18109 : 1"
       inkscape:vp_y="0 : 1000 : 0"
       inkscape:vp_z="744.09448 : 526.18109 : 1"
       inkscape:persp3d-origin="372.04724 : 350.78739 : 1"
       id="perspective10" />
    <linearGradient
       id="linearGradient3370">
      <stop
         id="stop3372"
         offset="0"
         style="stop-color:#000000;stop-opacity:1;" />
      <stop
         id="stop3374"
         offset="1"
         style="stop-color:#ffffff;stop-opacity:1;" />
    </linearGradient>
    <linearGradient
       inkscape:collect="always"
       xlink:href="#linearGradient3370"
       id="linearGradient4521"
       gradientUnits="userSpaceOnUse"
       spreadMethod="reflect"
       x1="9.4104776"
       y1="-6.2525191"
       x2="11.609575"
       y2="-7.0339308" />
    <linearGradient
       inkscape:collect="always"
       xlink:href="#linearGradient3370"
       id="linearGradient4523"
       gradientUnits="userSpaceOnUse"
       spreadMethod="reflect"
       x1="9.4104776"
       y1="-6.2525191"
       x2="11.609575"
       y2="-7.0339308" />
    <linearGradient
       inkscape:collect="always"
       xlink:href="#linearGradient3370"
       id="linearGradient4525"
       gradientUnits="userSpaceOnUse"
       spreadMethod="reflect"
       x1="9.4104776"
       y1="-6.2525191"
       x2="11.609575"
       y2="-7.0339308" />
    <linearGradient
       inkscape:collect="always"
       xlink:href="#linearGradient3370"
       id="linearGradient4527"
       gradientUnits="userSpaceOnUse"
       spreadMethod="reflect"
       x1="9.4104776"
       y1="-6.2525191"
       x2="11.609575"
       y2="-7.0339308" />
    <linearGradient
       inkscape:collect="always"
       xlink:href="#linearGradient3370"
       id="linearGradient4529"
       gradientUnits="userSpaceOnUse"
       spreadMethod="reflect"
       x1="9.4104776"
       y1="-6.2525191"
       x2="11.609575"
       y2="-7.0339308" />
    <linearGradient
       inkscape:collect="always"
       xlink:href="#linearGradient3370"
       id="linearGradient4531"
       gradientUnits="userSpaceOnUse"
       spreadMethod="reflect"
       x1="9.4104776"
       y1="-6.2525191"
       x2="11.609575"
       y2="-7.0339308" />
    <linearGradient
       inkscape:collect="always"
       xlink:href="#linearGradient3370"
       id="linearGradient4533"
       gradientUnits="userSpaceOnUse"
       spreadMethod="reflect"
       x1="9.4104776"
       y1="-6.2525191"
       x2="11.609575"
       y2="-7.0339308" />
    <linearGradient
       inkscape:collect="always"
       xlink:href="#linearGradient3370"
       id="linearGradient4535"
       gradientUnits="userSpaceOnUse"
       spreadMethod="reflect"
       x1="9.4104776"
       y1="-6.2525191"
       x2="11.609575"
       y2="-7.0339308" />
    <linearGradient
       inkscape:collect="always"
       xlink:href="#linearGradient3370"
       id="linearGradient4537"
       gradientUnits="userSpaceOnUse"
       spreadMethod="reflect"
       x1="9.4104776"
       y1="-6.2525191"
       x2="11.609575"
       y2="-7.0339308" />
    <linearGradient
       inkscape:collect="always"
       xlink:href="#linearGradient3370"
       id="linearGradient4539"
       gradientUnits="userSpaceOnUse"
       spreadMethod="reflect"
       x1="9.4104776"
       y1="-6.2525191"
       x2="11.609575"
       y2="-7.0339308" />
    <linearGradient
       inkscape:collect="always"
       xlink:href="#linearGradient3370"
       id="linearGradient4541"
       gradientUnits="userSpaceOnUse"
       spreadMethod="reflect"
       x1="9.4104776"
       y1="-6.2525191"
       x2="11.609575"
       y2="-7.0339308" />
    <linearGradient
       inkscape:collect="always"
       xlink:href="#linearGradient3370"
       id="linearGradient4543"
       gradientUnits="userSpaceOnUse"
       spreadMethod="reflect"
       x1="9.4104776"
       y1="-6.2525191"
       x2="11.609575"
       y2="-7.0339308" />
    <linearGradient
       inkscape:collect="always"
       xlink:href="#linearGradient3370"
       id="linearGradient4545"
       gradientUnits="userSpaceOnUse"
       spreadMethod="reflect"
       x1="9.4104776"
       y1="-6.2525191"
       x2="11.609575"
       y2="-7.0339308" />
    <linearGradient
       inkscape:collect="always"
       xlink:href="#linearGradient3370"
       id="linearGradient4547"
       gradientUnits="userSpaceOnUse"
       spreadMethod="reflect"
       x1="9.4104776"
       y1="-6.2525191"
       x2="11.609575"
       y2="-7.0339308" />
    <linearGradient
       inkscape:collect="always"
       xlink:href="#linearGradient3370"
       id="linearGradient4549"
       gradientUnits="userSpaceOnUse"
       spreadMethod="reflect"
       x1="9.4104776"
       y1="-6.2525191"
       x2="11.609575"
       y2="-7.0339308" />
  </defs>
  <sodipodi:namedview
     pagecolor="#ffffff"
     bordercolor="#666666"
     borderopacity="1"
     objecttolerance="10"
     gridtolerance="10"
     guidetolerance="10"
     inkscape:pageopacity="0"
     inkscape:pageshadow="2"
     inkscape:window-width="1680"
     inkscape:window-height="1022"
     id="namedview4"
     showgrid="false"
     inkscape:zoom="3.3789062"
     inkscape:cx="128"
     inkscape:cy="128"
     inkscape:window-x="-2"
     inkscape:window-y="0"
     inkscape:window-maximized="1"
     inkscape:current-layer="svg2" />
  <g
     id="g3885"
     transform="matrix(0.62136258,0,0,0.62136258,-31.141701,59.40501)">
    <path
       style="fill:#000000;fill-opacity:1;stroke:none"
       d="m 337.09579,58.442321 c 9.07464,14.594239 17.89307,21.100181 24.7457,27.657711 4.46205,19.275688 0.6661,30.662818 -5.34931,53.940878 -0.46266,1.60682 -12.37356,10.70145 -12.37356,10.70145 l -40.13045,-13.71124 z"
       id="path3883"
       inkscape:connector-curvature="0"
       sodipodi:nodetypes="cccccc" />
    <path
       style="fill:#000000;fill-opacity:1;stroke:none"
       d="M 71.900392,119.64125 62.068824,110.98394 64.645716,99.536225 95.941044,87.103662 111.362,62.789786 c 0,0 11.42254,14.835203 18.05306,23.147083 -5.51282,13.63609 -11.81977,23.492591 -24.07263,34.038811 l -11.70471,7.02283 z"
       id="path3881"
       inkscape:connector-curvature="0"
       sodipodi:nodetypes="ccccccccc" />
    <path
       sodipodi:nodetypes="cccsccc"
       inkscape:connector-curvature="0"
       id="path3771"
       d="m 337.09579,58.442321 c 39.62396,42.627729 81.86693,76.088949 111.362,154.167819 6.59272,12.9895 -4.92131,19.70546 -9.69819,14.38008 -6.39799,-23.50623 -81.03884,-91.21619 -82.26742,-86.94931 -0.46266,1.60682 -12.37356,10.70145 -12.37356,10.70145 l -40.13045,-13.71124 z"
       style="opacity:0.9007937;fill:#000000;fill-opacity:1;stroke:url(#linearGradient3783);stroke-width:1px;stroke-linecap:butt;stroke-linejoin:miter;stroke-opacity:1" />
    <path
       sodipodi:nodetypes="cccccccccc"
       inkscape:connector-curvature="0"
       id="path2987"
       d="M 71.900392,119.64125 62.068824,110.98394 64.645716,99.536225 95.941044,87.103662 111.362,62.789786 c 0,0 70.12959,83.780264 118.05041,120.725774 8.13718,7.43123 -0.79325,12.93457 -6.01956,11.70471 -44.25334,-20.75848 -82.00024,-45.62788 -118.05042,-75.24459 l -11.70471,7.02283 z"
       style="opacity:0.89285715;fill:#000000;fill-opacity:1;stroke:url(#linearGradient3763);stroke-width:1px;stroke-linecap:butt;stroke-linejoin:miter;stroke-opacity:1" />
    <path
       sodipodi:nodetypes="cscccccc"
       inkscape:connector-curvature="0"
       id="path3767"
       d="m 71.275392,119.24108 c -3.551275,-4.81326 -14.143989,-12.35015 13.332976,-17.3241 17.680642,-3.200596 34.351692,-4.646154 43.474652,-23.075013 7.02528,-7.912165 10.11,-19.764895 13.71124,-31.1011 1.86216,-19.814864 -14.78694,-15.575613 -20.33388,-9.56667 -9.2523,12.214905 -17.5671,30.403085 -26.819399,46.018497 L 82.267425,96.56625 c -18.137206,2.366922 -33.003884,17.26373 -10.992033,22.67483 z"
       style="fill:#000000;fill-opacity:1;stroke:url(#linearGradient3833);stroke-width:1px;stroke-linecap:butt;stroke-linejoin:miter;stroke-opacity:1" />
    <path
       sodipodi:nodetypes="ccccccccccccccccc"
       inkscape:connector-curvature="0"
       id="path3769"
       d="M 60.524973,110.07674 80.595323,27.341221 C 87.0083,17.115587 94.742237,9.3431636 107.34896,10.6202 191.32221,-1.0657802 254.20499,13.781244 303.65375,34.36405 l 32.7732,20.065226 5.68515,57.520314 -5.01631,3.00979 -10.70145,-4.68189 -20.73407,27.08805 -6.35399,1.33768 c -45.57097,-9.54029 -91.44446,-18.173 -134.43701,-35.44856 -17.15726,0.55093 -14.18078,-12.320628 -19.39638,-19.730807 L 142.12868,43.058981 C 138.37203,31.657467 132.17317,32.154334 123.06672,38.377095 L 94.975401,86.533637 C 91.310037,94.363302 84.843028,96.589676 78.5888,99.241613 71.962413,102.53245 64.71511,98.665074 60.524973,110.07674 z"
       style="fill:#000000;fill-opacity:1;stroke:url(#linearGradient3863);stroke-width:1px;stroke-linecap:round;stroke-linejoin:round;stroke-opacity:1" />
    <path
       sodipodi:nodetypes="cccccccc"
       inkscape:connector-curvature="0"
       id="path3773"
       d="M 64.170495,98.304113 C 68.787225,75.331067 73.052351,54.30945 78.5888,32.357528 83.905334,21.9563 90.288262,12.621467 107.01454,13.629984 l 7.35725,1.003261 c 9.43519,0.900952 12.0362,3.852099 8.02609,12.373556 L 97.316344,76.501024 c -1.268758,6.523747 -5.575959,9.249441 -10.367033,11.370294 z"
       style="fill:url(#linearGradient3799);fill-opacity:1;stroke:url(#linearGradient3791);stroke-width:1px;stroke-linecap:butt;stroke-linejoin:miter;stroke-opacity:1" />
    <path
       sodipodi:nodetypes="ccccccccc"
       inkscape:connector-curvature="0"
       id="path3775"
       d="m 152.16129,30.351005 c 2.37995,-8.308326 6.31177,-15.346946 18.39313,-15.71776 46.0305,-5.172315 86.80686,6.074568 125.74208,23.075009 3.06685,2.659767 7.2905,3.873533 7.02283,10.701454 -4.7601,20.176701 -9.91475,40.353401 -19.06197,60.530102 0.51052,2.97124 -3.6706,5.27224 -9.36377,7.35724 -39.28201,-5.75327 -75.60831,-14.46225 -111.362,-23.743846 -9.23778,-0.986284 -11.04822,-7.543069 -13.37682,-13.711237 -3.42369,-16.163654 -2.59523,-32.327308 2.00652,-48.490962 z"
       style="fill:none;stroke:url(#radialGradient3815);stroke-width:2;stroke-linecap:butt;stroke-linejoin:miter;stroke-miterlimit:4;stroke-opacity:1;stroke-dasharray:none" />
    <path
       style="fill:url(#linearGradient3825);fill-opacity:1;stroke:none"
       d="m 153.64115,31.044939 c 2.33205,-8.141118 6.18474,-15.038083 18.02296,-15.401434 25.72912,0.244279 35.99734,0.327315 53.52397,1.673115 -7.18814,25.641866 -15.31653,56.316305 -15.03467,85.44467 -10.99144,-2.82499 -29.71166,-6.6712 -45.37079,-10.765996 -9.05187,-0.966434 -10.82587,-7.391262 -13.10761,-13.435293 -3.35479,-15.838354 -2.543,-31.676708 1.96614,-47.515062 z"
       id="path3817"
       inkscape:connector-curvature="0"
       sodipodi:nodetypes="ccccccc" />
    <path
       style="fill:url(#radialGradient3843);fill-opacity:1;stroke:url(#linearGradient3855);stroke-width:1px;stroke-linecap:butt;stroke-linejoin:miter;stroke-opacity:1"
       d="m 112.78535,94.227253 c 6.74216,-3.301728 11.40763,-8.738132 15.29767,-15.385286 7.02528,-7.912165 10.11,-19.764895 13.71124,-31.1011 1.86216,-19.814864 -6.03694,-4.013113 -7.83388,3.87083 -3.3148,12.839905 -6.6296,18.528085 -10.8819,27.268497 -2.44726,4.478708 -7.4346,9.389942 -10.29313,15.347059 z"
       id="path3835"
       inkscape:connector-curvature="0"
       sodipodi:nodetypes="cccccc" />
    <path
       style="fill:url(#linearGradient3879);fill-opacity:1;stroke:none"
       d="m 128.08302,78.841967 c 7.02528,-7.912165 10.11,-19.764895 13.71124,-31.1011 1.86216,-19.814864 -14.78694,-15.575613 -20.33388,-9.56667 -9.2523,12.214905 -17.5671,30.403085 -26.819399,46.018497 11.856379,21.741926 26.464359,5.900103 33.442039,-5.350727 z"
       id="path3871"
       inkscape:connector-curvature="0"
       sodipodi:nodetypes="ccccc" />
  </g>
  <g
     inkscape:label="Layer 1"
     id="layer1"
     transform="translate(-0.24233321,-5.5389661)">
    <g
       id="g3456">
      <g
         id="g3428">
        <g
           id="g3401">
          <g
             style="font-size:14px;font-style:normal;font-weight:normal;fill:url(#linearGradient3376);fill-opacity:1;stroke:none;font-family:Bitstream Vera Sans"
             id="g3254">
            <path
               d="m 13.807087,-5.6925853 -1.4375,-3.8125 1.131371,1.1313709 1.4375,3.8125 -1.131371,-1.1313709 z"
               id="path3300"
               style="fill:url(#linearGradient3386);fill-opacity:1;stroke:none"
               inkscape:connector-curvature="0" />
            <path
               style="fill:url(#linearGradient3388);fill-opacity:1;stroke:none"
               d="m 12.375,-9.5 1.125,1.125 1.09375,0 c 0.642573,9e-6 1.149085,0.167327 1.5,0.5 L 14.96875,-9 c -0.350916,-0.332673 -0.857427,-0.4999913 -1.5,-0.5 l -1.09375,0 z"
               id="path3288"
               inkscape:connector-curvature="0" />
            <path
               d="m 14.991868,-8.9773043 c 0.332146,0.3321454 0.502713,0.8158247 0.502719,1.409719 l 1.131371,1.1313709 c -6e-6,-0.5938943 -0.170574,-1.0775736 -0.502719,-1.409719 l -1.131371,-1.1313709 z"
               id="path3294"
               style="fill:url(#linearGradient4521);fill-opacity:1;stroke:none"
               inkscape:connector-curvature="0" />
            <path
               d="m 15.494587,-7.5675853 c -6e-6,0.615241 -0.180344,1.073574 -0.53125,1.40625 l 1.131371,1.1313709 c 0.350906,-0.332676 0.531244,-0.791009 0.53125,-1.40625 l -1.131371,-1.1313709 z"
               id="path3296"
               style="fill:url(#linearGradient4523);fill-opacity:1;stroke:none"
               inkscape:connector-curvature="0" />
            <path
               d="m 14.963337,-6.1613353 c -0.286479,0.271597 -0.675393,0.418881 -1.15625,0.46875 l 1.131371,1.1313709 c 0.480857,-0.049869 0.869771,-0.197153 1.15625,-0.46875 l -1.131371,-1.1313709 z"
               id="path3298"
               style="fill:url(#linearGradient4525);fill-opacity:1;stroke:none"
               inkscape:connector-curvature="0" />
            <path
               d="m 9.9475186,-5.6345243 1.1929404,-3.047568 1.131371,1.1313709 -1.192941,3.047568 -1.1313704,-1.1313709 z"
               id="path3306"
               style="fill:url(#linearGradient3391);fill-opacity:1;stroke:none"
               inkscape:connector-curvature="0" />
            <path
               d="m 16.057087,-9.8488353 c -0.58334,-0.5195207 -1.449875,-0.7812397 -2.59375,-0.7812497 l 1.131371,1.1313709 c 1.143875,1e-5 2.01041,0.261729 2.59375,0.7812497 l -1.131371,-1.1313709 z"
               id="path3280"
               style="fill:url(#linearGradient4527);fill-opacity:1;stroke:none"
               inkscape:connector-curvature="0" />
            <path
               d="m 13.463337,-10.630085 -1.53125,0 1.131371,1.1313709 1.53125,0 -1.131371,-1.1313709 z"
               id="path3282"
               style="fill:url(#linearGradient4529);fill-opacity:1;stroke:none"
               inkscape:connector-curvature="0" />
            <path
               d="m 11.932087,-10.630085 -1.5625,0 1.131371,1.1313709 1.5625,0 -1.131371,-1.1313709 z"
               id="path3284"
               style="fill:url(#linearGradient4531);fill-opacity:1;stroke:none"
               inkscape:connector-curvature="0" />
            <path
               d="M 10.369587,-10.598835 6.9504776,-1.4142743 8.0818485,-0.28290343 11.500958,-9.4674641 10.369587,-10.598835 z"
               id="path3258"
               style="fill:url(#linearGradient4533);fill-opacity:1;stroke:none"
               inkscape:connector-curvature="0" />
            <path
               d="m 10.338337,-10.630085 0.03125,0.03125 1.131371,1.1313709 -0.03125,-0.03125 -1.131371,-1.1313709 z"
               id="path3256"
               style="fill:url(#linearGradient4535);fill-opacity:1;stroke:none"
               inkscape:connector-curvature="0" />
            <path
               d="m 6.9504776,-1.4142743 1.4375,0.028655 1.1313709,1.13137087 -1.4375,-0.028655 -1.1313709,-1.13137087 z"
               id="path3260"
               style="fill:url(#linearGradient3397);fill-opacity:1;stroke:none"
               inkscape:connector-curvature="0" />
            <path
               d="m 8.3879776,-1.3856193 1.236663,-3.149966 1.1313704,1.1313709 -1.2366625,3.14996597 -1.1313709,-1.13137087 z"
               id="path3262"
               style="fill:url(#linearGradient3395);fill-opacity:1;stroke:none"
               inkscape:connector-curvature="0" />
            <path
               d="m 9.6246406,-4.5355853 3.2327334,0 1.131371,1.1313709 -3.232734,0 -1.1313704,-1.1313709 z"
               id="path3264"
               style="fill:url(#linearGradient3393);fill-opacity:1;stroke:none"
               inkscape:connector-curvature="0" />
            <path
               d="m 12.857374,-4.5355853 1.225659,3.149967 1.131371,1.13137087 -1.225659,-3.14996697 -1.131371,-1.1313709 z"
               id="path3266"
               style="fill:url(#linearGradient4537);fill-opacity:1;stroke:none"
               inkscape:connector-curvature="0" />
            <path
               d="m 14.083033,-1.3856183 1.4375,0 1.131371,1.13137087 -1.4375,0 -1.131371,-1.13137087 z"
               id="path3268"
               style="fill:url(#linearGradient3399);fill-opacity:1;stroke:none"
               inkscape:connector-curvature="0" />
            <path
               d="m 15.520533,-1.3856183 -1.275946,-3.181967 1.131371,1.1313709 1.275946,3.18196697 -1.131371,-1.13137087 z"
               id="path3270"
               style="fill:url(#linearGradient4539);fill-opacity:1;stroke:none"
               inkscape:connector-curvature="0" />
            <path
               style="fill:url(#linearGradient3384);fill-opacity:1;stroke:none"
               d="m 16.15625,-9.75 c 0.512125,0.5121258 0.781243,1.255271 0.78125,2.1875 -7e-6,1.007168 -0.287117,1.7662812 -0.875,2.28125 -0.443081,0.391156 -1.04603,0.6247032 -1.8125,0.71875 l 1.125,1.125 c 0.76647,-0.094047 1.36942,-0.327594 1.8125,-0.71875 0.587883,-0.514969 0.874994,-1.274082 0.875,-2.28125 -8e-6,-0.9322293 -0.237875,-1.675374 -0.75,-2.1875 L 16.15625,-9.75 z"
               id="path3272"
               inkscape:connector-curvature="0" />
            <path
               d="m 16.16946,-9.7436677 c -0.03615,-0.036153 -0.07361,-0.071211 -0.112373,-0.1051676 l 1.131371,1.1313709 c 0.03876,0.033957 0.07622,0.069015 0.112373,0.1051675 L 16.16946,-9.7436677 z"
               id="path3278"
               style="fill:url(#linearGradient4541);fill-opacity:1;stroke:none"
               inkscape:connector-curvature="0" />
            <path
               d="m 10.369587,-10.630085 -0.03125,0 1.131371,1.1313709 0.03125,0 -1.131371,-1.1313709 z"
               id="path3286"
               style="fill:url(#linearGradient4543);fill-opacity:1;stroke:none"
               inkscape:connector-curvature="0" />
            <path
               d="m 14.963337,-9.0050853 c 0.0096,0.00914 0.01915,0.018399 0.02853,0.027781 l 1.131371,1.1313709 c -0.0094,-0.00938 -0.01889,-0.018642 -0.02853,-0.027781 l -1.131371,-1.1313709 z"
               id="path3292"
               style="fill:url(#linearGradient4545);fill-opacity:1;stroke:none"
               inkscape:connector-curvature="0" />
            <path
               d="m 11.140459,-8.6820923 1.185665,2.990257 1.131371,1.1313709 -1.185665,-2.990257 -1.131371,-1.1313709 z"
               id="path3302"
               style="fill:url(#linearGradient4547);fill-opacity:1;stroke:none"
               inkscape:connector-curvature="0" />
            <path
               d="m 12.326124,-5.6918353 -2.3786054,0.057311 1.1313704,1.1313709 2.378606,-0.057311 -1.131371,-1.1313709 z"
               id="path3304"
               style="fill:url(#linearGradient4549);fill-opacity:1;stroke:none"
               inkscape:connector-curvature="0" />
          </g>
          <path
             style="font-size:14px;font-style:normal;font-weight:normal;fill:#454545;fill-opacity:1;stroke:none;font-family:Bitstream Vera Sans"
             d="m 10.400579,-10.618865 0.03125,0.03125 -3.4191096,9.1845594 1.4375,0.028655 1.2366631,-3.149966 3.1850285,0.035779 1.273364,3.1141882 1.4375,0 -1.275946,-3.181967 c 0.76647,-0.094047 1.369419,-0.327594 1.8125,-0.71875 0.587883,-0.514969 0.874993,-1.274082 0.875,-2.28125 -8e-6,-0.998038 -0.287116,-1.766267 -0.875,-2.2812505 -0.58334,-0.5195191 -1.449875,-0.7812381 -2.59375,-0.7812481 l -1.53125,0 -1.5625,0 -0.03125,0 z m 2.03125,1.1249984 1.09375,0 c 0.642573,9e-6 1.095632,0.2207787 1.446548,0.5534517 0.350905,0.332691 0.584696,0.7733793 0.584702,1.3840483 -6e-6,0.615241 -0.180344,1.073574 -0.53125,1.40625 -0.286479,0.271597 -0.675393,0.418881 -1.15625,0.46875 l -1.4375,-3.8125 z m -1.246945,0.9833482 1.096579,2.847719 -2.271702,0.039494 1.175123,-2.8872128 z"
             id="text2383"
             sodipodi:nodetypes="cccccccccsssccccccssscccccc"
             inkscape:connector-curvature="0" />
        </g>
      </g>
    </g>
  </g>
</svg>
