<?xml version="1.0" encoding="UTF-8" standalone="no"?>
<!-- Created with Inkscape (http://www.inkscape.org/) -->

<svg
   xmlns:dc="http://purl.org/dc/elements/1.1/"
   xmlns:cc="http://creativecommons.org/ns#"
   xmlns:rdf="http://www.w3.org/1999/02/22-rdf-syntax-ns#"
   xmlns:svg="http://www.w3.org/2000/svg"
   xmlns="http://www.w3.org/2000/svg"
   xmlns:xlink="http://www.w3.org/1999/xlink"
   xmlns:sodipodi="http://sodipodi.sourceforge.net/DTD/sodipodi-0.dtd"
   xmlns:inkscape="http://www.inkscape.org/namespaces/inkscape"
   width="255"
   height="255"
   viewBox="0 0 67.468749 67.468749"
   version="1.1"
   id="svg8"
   inkscape:version="0.92.5 (2060ec1f9f, 2020-04-08)"
   sodipodi:docname="usr.svg">
  <defs
     id="defs2">
    <linearGradient
       id="linearGradient917"
       inkscape:collect="always">
      <stop
         id="stop912"
         offset="0"
         style="stop-color:#fefffe;stop-opacity:1" />
      <stop
         id="stop914"
         offset="1"
         style="stop-color:#ffafae;stop-opacity:0" />
    </linearGradient>
    <linearGradient
       id="linearGradient848"
       inkscape:collect="always">
      <stop
         id="stop903"
         offset="0"
         style="stop-color:#ff8d93;stop-opacity:1" />
      <stop
         style="stop-color:#a80200;stop-opacity:1"
         offset="0.5422883"
         id="stop905" />
      <stop
         style="stop-color:#890100;stop-opacity:1"
         offset="0.77114403"
         id="stop907" />
      <stop
         id="stop909"
         offset="1"
         style="stop-color:#340100;stop-opacity:0.99215686" />
    </linearGradient>
    <linearGradient
       id="linearGradient998"
       inkscape:collect="always">
      <stop
         id="stop898"
         offset="0"
         style="stop-color:#580800;stop-opacity:1" />
      <stop
         id="stop900"
         offset="1"
         style="stop-color:#580800;stop-opacity:0" />
    </linearGradient>
    <linearGradient
       inkscape:collect="always"
       id="linearGradient894">
      <stop
         style="stop-color:#ffffff;stop-opacity:0.21621622"
         offset="0"
         id="stop890" />
      <stop
         style="stop-color:#ffffff;stop-opacity:0.04954955"
         offset="1"
         id="stop892" />
    </linearGradient>
    <linearGradient
       inkscape:collect="always"
       id="linearGradient862">
      <stop
         style="stop-color:#fefffe;stop-opacity:1"
         offset="0"
         id="stop858" />
      <stop
         style="stop-color:#aeffb2;stop-opacity:0"
         offset="1"
         id="stop860" />
    </linearGradient>
    <linearGradient
       inkscape:collect="always"
       id="linearGradient848-6">
      <stop
         style="stop-color:#8dff93;stop-opacity:1"
         offset="0"
         id="stop844" />
      <stop
         id="stop854"
         offset="0.5422883"
         style="stop-color:#00a806;stop-opacity:1" />
      <stop
         id="stop852"
         offset="0.77114403"
         style="stop-color:#008905;stop-opacity:1" />
      <stop
         style="stop-color:#003402;stop-opacity:0.99215686"
         offset="1"
         id="stop846" />
    </linearGradient>
    <linearGradient
       inkscape:collect="always"
       id="linearGradient1028">
      <stop
         style="stop-color:#ffffff;stop-opacity:0.27477476"
         offset="0"
         id="stop1024" />
      <stop
         style="stop-color:#ffffff;stop-opacity:0;"
         offset="1"
         id="stop1026" />
    </linearGradient>
    <linearGradient
       id="linearGradient1020"
       inkscape:collect="always">
      <stop
         id="stop1016"
         offset="0"
         style="stop-color:#002404;stop-opacity:1" />
      <stop
         id="stop1018"
         offset="1"
         style="stop-color:#005809;stop-opacity:0;" />
    </linearGradient>
    <linearGradient
       id="linearGradient1014"
       inkscape:collect="always">
      <stop
         id="stop1010"
         offset="0"
         style="stop-color:#002804;stop-opacity:1" />
      <stop
         id="stop1012"
         offset="1"
         style="stop-color:#005809;stop-opacity:0;" />
    </linearGradient>
    <linearGradient
       inkscape:collect="always"
       id="linearGradient998-3">
      <stop
         style="stop-color:#005809;stop-opacity:1;"
         offset="0"
         id="stop994" />
      <stop
         style="stop-color:#005809;stop-opacity:0;"
         offset="1"
         id="stop996" />
    </linearGradient>
    <clipPath
       clipPathUnits="userSpaceOnUse"
       id="clipPath884">
      <path
         style="opacity:1;fill:#a8ffb2;fill-opacity:1;fill-rule:evenodd;stroke:none;stroke-width:2.9104166;stroke-linecap:round;stroke-linejoin:round;stroke-miterlimit:4;stroke-dasharray:none;stroke-dashoffset:0;stroke-opacity:1;paint-order:normal"
         d="m 60.27004,245.53688 c 0.312031,2.1962 1.110684,6.43683 0.113279,8.20519 -1.91225,3.39033 -10.128467,5.96248 -14.089494,5.96248 -2.993025,0 -6.240701,-0.68103 -8.212278,-2.77602 -1.998585,-2.12369 -0.676206,-6.0359 0.209458,-9.17077 1.639427,-5.8029 4.862539,-10.89333 10.530025,-11.18098 6.019302,-0.30551 10.453444,1.95288 11.44901,8.9601 z"
         id="path886"
         inkscape:connector-curvature="0"
         sodipodi:nodetypes="sssssss" />
    </clipPath>
    <linearGradient
       inkscape:collect="always"
       xlink:href="#linearGradient1014"
       id="linearGradient1000"
       x1="47.910137"
       y1="288.7923"
       x2="48.156097"
       y2="278.83664"
       gradientUnits="userSpaceOnUse"
       gradientTransform="matrix(1.6201566,0,0,1.6201566,-52.289211,-179.00681)" />
    <linearGradient
       inkscape:collect="always"
       xlink:href="#linearGradient1020"
       id="linearGradient1004"
       gradientUnits="userSpaceOnUse"
       x1="36.346252"
       y1="275.62018"
       x2="48.002934"
       y2="280.06195"
       gradientTransform="matrix(1.6201566,0,0,1.6201566,-52.165135,-179.13088)" />
    <linearGradient
       inkscape:collect="always"
       xlink:href="#linearGradient998-3"
       id="linearGradient1008"
       gradientUnits="userSpaceOnUse"
       x1="58.784782"
       y1="277.22839"
       x2="50.530144"
       y2="277.91766"
       gradientTransform="matrix(1.6201566,0,0,1.6201566,-52.289211,-179.00681)" />
    <linearGradient
       inkscape:collect="always"
       xlink:href="#linearGradient1028"
       id="linearGradient1030"
       x1="37.142273"
       y1="277.2933"
       x2="44.111238"
       y2="278.13571"
       gradientUnits="userSpaceOnUse"
       gradientTransform="matrix(1.6201566,0,0,1.6201566,-39.65318,-173.87582)" />
    <radialGradient
       inkscape:collect="always"
       xlink:href="#linearGradient848-6"
       id="radialGradient850"
       cx="48.74445"
       cy="261.85352"
       fx="52.114059"
       fy="265.6629"
       r="7.6964917"
       gradientTransform="matrix(1.6201566,0,0,1.5959752,-51.906301,-173.75449)"
       gradientUnits="userSpaceOnUse" />
    <linearGradient
       inkscape:collect="always"
       xlink:href="#linearGradient862"
       id="linearGradient864"
       x1="44.956787"
       y1="253.21069"
       x2="46.751099"
       y2="257.42273"
       gradientUnits="userSpaceOnUse"
       gradientTransform="matrix(1.6201566,0,0,1.6201566,-51.906301,-180.07896)" />
    <linearGradient
       inkscape:collect="always"
       xlink:href="#linearGradient1028"
       id="linearGradient866"
       gradientUnits="userSpaceOnUse"
       x1="37.142273"
       y1="277.2933"
       x2="44.111238"
       y2="278.13571"
       gradientTransform="matrix(1.6201566,0,0,1.6201566,-39.65318,-173.87582)" />
    <filter
       inkscape:collect="always"
       style="color-interpolation-filters:sRGB"
       id="filter856"
       x="-0.011867507"
       width="1.023735"
       y="-0.012135485"
       height="1.024271">
      <feGaussianBlur
         inkscape:collect="always"
         stdDeviation="0.18348323"
         id="feGaussianBlur858" />
    </filter>
    <filter
       inkscape:collect="always"
       style="color-interpolation-filters:sRGB"
       id="filter873"
       x="-0.042223466"
       width="1.0844469"
       y="-0.01676451"
       height="1.033529">
      <feGaussianBlur
         inkscape:collect="always"
         stdDeviation="0.21610339"
         id="feGaussianBlur875" />
    </filter>
    <linearGradient
       inkscape:collect="always"
       xlink:href="#linearGradient1028"
       id="linearGradient877"
       gradientUnits="userSpaceOnUse"
       gradientTransform="matrix(1.6201566,0,0,1.6201566,-39.65318,-173.87582)"
       x1="37.142273"
       y1="277.2933"
       x2="44.111238"
       y2="278.13571" />
    <linearGradient
       inkscape:collect="always"
       xlink:href="#linearGradient998"
       id="linearGradient916"
       gradientUnits="userSpaceOnUse"
       gradientTransform="matrix(1.225995,0,0,1.225995,-13.127428,-62.791908)"
       x1="47.910137"
       y1="288.7923"
       x2="48.156097"
       y2="278.83664" />
    <linearGradient
       inkscape:collect="always"
       xlink:href="#linearGradient998"
       id="linearGradient918"
       gradientUnits="userSpaceOnUse"
       gradientTransform="matrix(1.225995,0,0,1.225995,-13.263284,-62.579466)"
       x1="36.346252"
       y1="275.62018"
       x2="48.002934"
       y2="280.06195" />
    <linearGradient
       inkscape:collect="always"
       xlink:href="#linearGradient998"
       id="linearGradient920"
       gradientUnits="userSpaceOnUse"
       gradientTransform="matrix(1.225995,0,0,1.225995,-13.663502,-62.332416)"
       x1="58.784782"
       y1="277.22839"
       x2="50.530144"
       y2="277.91766" />
    <radialGradient
       inkscape:collect="always"
       xlink:href="#linearGradient848"
       id="radialGradient922"
       gradientUnits="userSpaceOnUse"
       gradientTransform="matrix(1.225995,0,0,1.2076966,-12.990839,-58.511077)"
       cx="48.74445"
       cy="261.85352"
       fx="52.114059"
       fy="265.6629"
       r="7.6964917" />
    <linearGradient
       inkscape:collect="always"
       xlink:href="#linearGradient917"
       id="linearGradient924"
       gradientUnits="userSpaceOnUse"
       gradientTransform="matrix(1.225995,0,0,1.225995,-12.990839,-63.296891)"
       x1="45.081718"
       y1="253.77287"
       x2="46.751099"
       y2="257.42273" />
    <linearGradient
       inkscape:collect="always"
       xlink:href="#linearGradient894"
       id="linearGradient896"
       x1="19.011875"
       y1="276.74757"
       x2="30.409716"
       y2="277.96201"
       gradientUnits="userSpaceOnUse" />
  </defs>
  <sodipodi:namedview
     id="base"
     pagecolor="#ff0000"
     bordercolor="#666666"
     borderopacity="1.0"
     inkscape:pageopacity="0"
     inkscape:pageshadow="2"
     inkscape:zoom="3.454902"
     inkscape:cx="127.5"
     inkscape:cy="132.89611"
     inkscape:document-units="px"
     inkscape:current-layer="layer1"
     showgrid="false"
     inkscape:snap-to-guides="false"
     inkscape:snap-grids="false"
     inkscape:snap-others="false"
     inkscape:object-nodes="false"
     inkscape:snap-nodes="false"
     inkscape:snap-global="false"
     inkscape:window-width="1920"
     inkscape:window-height="1056"
     inkscape:window-x="0"
     inkscape:window-y="0"
     inkscape:window-maximized="1"
     units="px" />
  <metadata
     id="metadata5">
    <rdf:RDF>
      <cc:Work>
        <dc:format>image/svg+xml</dc:format>
        <dc:type
           rdf:resource="http://purl.org/dc/dcmitype/StillImage" />
        <dc:title />
      </cc:Work>
    </rdf:RDF>
  </metadata>
  <g
     inkscape:label="Layer 1"
     inkscape:groupmode="layer"
     id="layer1"
     transform="translate(0,-229.53126)">
    <path
       sodipodi:nodetypes="sssssss"
       inkscape:connector-curvature="0"
       id="path880"
       d="m 60.270041,245.53688 c 0.31203,2.1962 1.110683,6.43683 0.113277,8.20519 -1.912249,3.39033 -10.128467,5.96248 -14.089494,5.96248 -2.993024,0 -6.240699,-0.68103 -8.212276,-2.77602 -1.998587,-2.12369 -0.676207,-6.0359 0.209456,-9.17077 1.639428,-5.8029 4.862539,-10.89333 10.530026,-11.18098 6.019301,-0.30551 10.453444,1.95288 11.449011,8.9601 z"
       style="opacity:1;fill:#000000;fill-opacity:1;fill-rule:evenodd;stroke:none;stroke-width:2.9104166;stroke-linecap:round;stroke-linejoin:round;stroke-miterlimit:4;stroke-dasharray:none;stroke-dashoffset:0;stroke-opacity:1;paint-order:normal"
       clip-path="url(#clipPath884)"
       transform="translate(33.160009,-5.7436505)" />
    <g
       id="g890">
      <path
         sodipodi:nodetypes="sssssss"
         inkscape:connector-curvature="0"
         id="path877"
         d="m 42.131748,266.69427 c 0.505537,3.55818 1.79948,10.42867 0.183526,13.29369 -3.098143,5.49286 -16.409702,9.66015 -22.827186,9.66015 -4.849168,0 -10.1109102,-1.10338 -13.3051742,-4.49759 -3.238024,-3.44071 -1.095561,-9.7791 0.339352,-14.85808 2.65613,-9.40161 7.8780752,-17.6489 17.0602912,-18.11494 9.75221,-0.49497 16.936216,3.16397 18.549191,14.51677 z"
         style="opacity:1;fill:#00ff1a;fill-opacity:1;fill-rule:evenodd;stroke:none;stroke-width:4.7153306;stroke-linecap:round;stroke-linejoin:round;stroke-miterlimit:4;stroke-dasharray:none;stroke-dashoffset:0;stroke-opacity:1;paint-order:normal" />
      <path
         style="opacity:1;fill:url(#linearGradient1000);fill-opacity:1;fill-rule:evenodd;stroke:none;stroke-width:4.7153306;stroke-linecap:round;stroke-linejoin:round;stroke-miterlimit:4;stroke-dasharray:none;stroke-dashoffset:0;stroke-opacity:1;paint-order:normal"
         d="m 42.131748,266.69427 c 0.505537,3.55818 1.79948,10.42867 0.183526,13.29369 -3.098143,5.49286 -16.409702,9.66015 -22.827186,9.66015 -4.849168,0 -10.1109102,-1.10338 -13.3051742,-4.49759 -3.238024,-3.44071 -1.095561,-9.7791 0.339352,-14.85808 2.65613,-9.40161 7.8780752,-17.6489 17.0602912,-18.11494 9.75221,-0.49497 16.936216,3.16397 18.549191,14.51677 z"
         id="path992"
         inkscape:connector-curvature="0"
         sodipodi:nodetypes="sssssss" />
      <path
         sodipodi:nodetypes="scsssss"
         inkscape:connector-curvature="0"
         id="path1002"
         d="m 36.176156,266.94241 c 0.505537,3.55819 -1.798692,8.31939 6.263193,12.92146 -3.098143,5.49287 -16.409703,9.66015 -22.827187,9.66015 -4.849167,0 -10.1109092,-1.10337 -13.3051732,-4.49758 -3.238024,-3.44072 -1.095561,-9.77911 0.339352,-14.85809 2.65613,-9.40161 7.8780742,-17.6489 17.0602912,-18.11494 9.75221,-0.49497 10.856549,3.53621 12.469524,14.889 z"
         style="opacity:1;fill:url(#linearGradient1004);fill-opacity:1;fill-rule:evenodd;stroke:none;stroke-width:4.7153306;stroke-linecap:round;stroke-linejoin:round;stroke-miterlimit:4;stroke-dasharray:none;stroke-dashoffset:0;stroke-opacity:1;paint-order:normal" />
      <path
         style="opacity:1;fill:url(#linearGradient1008);fill-opacity:1;fill-rule:evenodd;stroke:none;stroke-width:4.7153306;stroke-linecap:round;stroke-linejoin:round;stroke-miterlimit:4;stroke-dasharray:none;stroke-dashoffset:0;stroke-opacity:1;paint-order:normal"
         d="m 42.131748,266.69427 c 0.505537,3.55818 1.79948,10.42867 0.183526,13.29369 -3.098143,5.49286 -16.409702,9.66015 -22.827186,9.66015 -4.849168,0 -10.1109102,-1.10338 -13.3051742,-4.49759 3.710167,-5.54997 4.4878072,-7.54575 5.9227192,-12.62473 2.65613,-9.4016 2.294708,-19.88225 11.476924,-20.34829 9.75221,-0.49497 16.936216,3.16397 18.549191,14.51677 z"
         id="path1006"
         inkscape:connector-curvature="0"
         sodipodi:nodetypes="sssccss" />
      <path
         inkscape:connector-curvature="0"
         id="path852"
         d="m 33.11289,253.45504 a 0.46645333,0.46645333 0 0 0 -0.179799,0.899 c 4.397504,1.84468 7.403035,5.65963 8.375963,12.50752 0.24946,1.7558 0.686021,4.29615 0.864567,6.73291 0.178545,2.43675 0.05744,4.7732 -0.629298,5.99075 -1.401426,2.48467 -5.34406,4.86706 -9.720631,6.54163 -4.376572,1.67456 -9.18679,2.68168 -12.228256,2.68168 -4.678193,0 -9.7035152,-1.08315 -12.6911432,-4.25779 a 0.46645333,0.46645333 0 1 0 -0.67903,0.63886 c 3.26886,3.47347 8.5504782,4.55236 13.3701732,4.55236 3.243379,0 8.091606,-1.03396 12.562988,-2.74481 4.471383,-1.71085 8.564225,-4.0582 10.196908,-6.95286 0.895821,-1.58827 0.932989,-4.01858 0.749801,-6.51868 -0.183187,-2.50011 -0.626587,-5.06719 -0.872217,-6.79603 -1.004431,-7.06961 -4.25139,-11.26829 -8.938314,-13.23437 a 0.46645333,0.46645333 0 0 0 -0.181712,-0.0401 z"
         style="color:#000000;font-style:normal;font-variant:normal;font-weight:normal;font-stretch:normal;font-size:medium;line-height:normal;font-family:sans-serif;font-variant-ligatures:normal;font-variant-position:normal;font-variant-caps:normal;font-variant-numeric:normal;font-variant-alternates:normal;font-feature-settings:normal;text-indent:0;text-align:start;text-decoration:none;text-decoration-line:none;text-decoration-style:solid;text-decoration-color:#000000;letter-spacing:normal;word-spacing:normal;text-transform:none;writing-mode:lr-tb;direction:ltr;text-orientation:mixed;dominant-baseline:auto;baseline-shift:baseline;text-anchor:start;white-space:normal;shape-padding:0;clip-rule:nonzero;display:inline;overflow:visible;visibility:visible;opacity:1;isolation:auto;mix-blend-mode:normal;color-interpolation:sRGB;color-interpolation-filters:linearRGB;solid-color:#000000;solid-opacity:1;vector-effect:none;fill:#005002;fill-opacity:1;fill-rule:evenodd;stroke:none;stroke-width:0.93281335;stroke-linecap:round;stroke-linejoin:round;stroke-miterlimit:4;stroke-dasharray:none;stroke-dashoffset:0;stroke-opacity:1;paint-order:normal;filter:url(#filter856);color-rendering:auto;image-rendering:auto;shape-rendering:auto;text-rendering:auto;enable-background:accumulate" />
      <ellipse
         ry="12.28341"
         rx="12.469522"
         cy="243.66092"
         cx="26.571041"
         id="path842"
         style="opacity:1;fill:url(#radialGradient850);fill-opacity:1;fill-rule:evenodd;stroke:none;stroke-width:4.7153306;stroke-linecap:round;stroke-linejoin:round;stroke-miterlimit:4;stroke-dasharray:none;stroke-dashoffset:0;stroke-opacity:1;paint-order:normal" />
      <path
         sodipodi:nodetypes="ccc"
         inkscape:connector-curvature="0"
         id="path856"
         d="m 14.845965,242.91646 c 0.828412,-9.78372 12.160351,-13.86669 19.851975,-8.06486 -9.132133,-0.6003 -14.992279,3.07814 -19.851975,8.06486 z"
         style="fill:url(#linearGradient864);fill-opacity:1;stroke:none;stroke-width:0.42866641px;stroke-linecap:butt;stroke-linejoin:miter;stroke-opacity:1" />
      <g
         transform="translate(-12.636031,-5.1309945)"
         style="filter:url(#filter873)"
         id="g863">
        <path
           style="fill:url(#linearGradient1030);fill-opacity:1;stroke:none;stroke-width:0.42866641px;stroke-linecap:butt;stroke-linejoin:miter;stroke-opacity:1"
           d="m 29.20836,261.27894 c -0.362353,1.85784 -0.890519,3.77093 2.605573,4.34261 -4.576879,9.37821 -1.719127,17.76513 -1.861124,26.55201 -4.312867,0.31273 -7.763685,-1.09866 -10.422286,-4.09446 0.507383,-13.5004 4.538349,-23.22569 9.677837,-26.80016 z"
           id="path1022"
           inkscape:connector-curvature="0"
           sodipodi:nodetypes="ccccc" />
        <path
           sodipodi:nodetypes="ccccc"
           inkscape:connector-curvature="0"
           id="path840"
           d="m 28.27394,262.604 c 0.02056,1.39833 1.05312,3.03716 2.787826,3.37908 -4.576879,9.37821 -1.339185,16.53508 -1.481182,25.32197 -4.312866,0.31272 -6.657697,-0.57329 -9.316298,-3.56909 0.911426,-13.09636 3.589351,-20.83831 8.009654,-25.13196 z"
           style="fill:url(#linearGradient877);fill-opacity:1;stroke:none;stroke-width:0.42866641px;stroke-linecap:butt;stroke-linejoin:miter;stroke-opacity:1" />
        <path
           style="fill:url(#linearGradient866);fill-opacity:1;stroke:none;stroke-width:0.42866641px;stroke-linecap:butt;stroke-linejoin:miter;stroke-opacity:1"
           d="m 27.89103,263.75273 c 0.480052,1.16858 1.129702,2.19476 2.328334,2.53668 -4.576879,9.64744 -1.262603,15.43787 -1.4046,24.09666 -4.312866,0.31272 -5.279221,0.26911 -7.937822,-2.72669 1.416588,-12.66164 2.909101,-19.46675 7.014088,-23.90665 z"
           id="path868"
           inkscape:connector-curvature="0"
           sodipodi:nodetypes="ccccc" />
      </g>
    </g>
    <path
       sodipodi:nodetypes="sssssss"
       inkscape:connector-curvature="0"
       id="path892"
       d="m 58.169061,274.78263 c 0.382547,2.69252 1.361691,7.89152 0.138876,10.05952 -2.344407,4.15652 -12.417449,7.30997 -17.273649,7.30997 -3.669433,0 -7.651066,-0.83495 -10.06821,-3.40339 -2.450258,-2.60364 -0.829026,-7.39998 0.256792,-11.24332 2.009931,-7.11433 5.961449,-13.35517 12.90976,-13.70782 7.379633,-0.37456 12.81587,2.39422 14.036431,10.98504 z"
       style="opacity:1;fill:#ff0001;fill-opacity:1;fill-rule:evenodd;stroke:none;stroke-width:3.56815624;stroke-linecap:round;stroke-linejoin:round;stroke-miterlimit:4;stroke-dasharray:none;stroke-dashoffset:0;stroke-opacity:1;paint-order:normal" />
    <path
       style="opacity:1;fill:url(#linearGradient916);fill-opacity:1;fill-rule:evenodd;stroke:none;stroke-width:3.56815624;stroke-linecap:round;stroke-linejoin:round;stroke-miterlimit:4;stroke-dasharray:none;stroke-dashoffset:0;stroke-opacity:1;paint-order:normal"
       d="m 58.322225,274.47631 c 0.382547,2.69252 1.361691,7.89152 0.138876,10.05952 -2.344407,4.15652 -12.417449,7.30997 -17.273649,7.30997 -3.669433,0 -7.651066,-0.83495 -10.06821,-3.40339 -2.450258,-2.60364 -0.829026,-7.39998 0.256792,-11.24332 2.009931,-7.11433 5.961449,-13.35517 12.90976,-13.70782 7.379633,-0.37456 12.81587,2.39422 14.036431,10.98504 z"
       id="path894"
       inkscape:connector-curvature="0"
       sodipodi:nodetypes="sssssss" />
    <path
       sodipodi:nodetypes="scsssss"
       inkscape:connector-curvature="0"
       id="path896"
       d="m 53.585799,274.9704 c 0.382547,2.69253 -1.361095,6.2954 4.739446,9.77785 -2.344408,4.15653 -12.417451,7.30997 -17.27365,7.30997 -3.669432,0 -7.651066,-0.83494 -10.06821,-3.40339 -2.450258,-2.60364 -0.829026,-7.39998 0.256793,-11.24332 2.00993,-7.11433 5.961448,-13.35517 12.909759,-13.70783 7.379633,-0.37455 8.215302,2.6759 9.435862,11.26672 z"
       style="opacity:1;fill:url(#linearGradient918);fill-opacity:1;fill-rule:evenodd;stroke:none;stroke-width:3.56815624;stroke-linecap:round;stroke-linejoin:round;stroke-miterlimit:4;stroke-dasharray:none;stroke-dashoffset:0;stroke-opacity:1;paint-order:normal" />
    <path
       style="opacity:1;fill:url(#linearGradient920);fill-opacity:1;fill-rule:evenodd;stroke:none;stroke-width:3.56815624;stroke-linecap:round;stroke-linejoin:round;stroke-miterlimit:4;stroke-dasharray:none;stroke-dashoffset:0;stroke-opacity:1;paint-order:normal"
       d="m 57.786151,274.9358 c 0.382547,2.69252 1.361691,7.89152 0.138876,10.05952 -2.344407,4.15652 -12.417449,7.30997 -17.273649,7.30997 -3.669433,0 -7.651066,-0.83495 -10.06821,-3.40339 2.807535,-4.19974 3.395986,-5.70998 4.481804,-9.55331 2.00993,-7.11432 1.736437,-15.04518 8.684748,-15.39783 7.379633,-0.37456 12.81587,2.39422 14.036431,10.98504 z"
       id="path898"
       inkscape:connector-curvature="0"
       sodipodi:nodetypes="sssccss" />
    <path
       inkscape:connector-curvature="0"
       id="path900"
       d="m 33.11289,253.45504 a 0.46645333,0.46645333 0 0 0 -0.179799,0.899 c 4.397504,1.84468 7.403035,5.65963 8.375963,12.50752 0.24946,1.7558 0.686021,4.29615 0.864567,6.73291 0.178545,2.43675 0.05744,4.7732 -0.629298,5.99075 -1.401426,2.48467 -5.34406,4.86706 -9.720631,6.54163 -4.376572,1.67456 -9.18679,2.68168 -12.228256,2.68168 -4.678193,0 -9.7035152,-1.08315 -12.6911432,-4.25779 a 0.46645333,0.46645333 0 1 0 -0.67903,0.63886 c 3.26886,3.47347 8.5504782,4.55236 13.3701732,4.55236 3.243379,0 8.091606,-1.03396 12.562988,-2.74481 4.471383,-1.71085 8.564225,-4.0582 10.196908,-6.95286 0.895821,-1.58827 0.932989,-4.01858 0.749801,-6.51868 -0.183187,-2.50011 -0.626587,-5.06719 -0.872217,-6.79603 -1.004431,-7.06961 -4.25139,-11.26829 -8.938314,-13.23437 a 0.46645333,0.46645333 0 0 0 -0.181712,-0.0401 z"
       style="color:#000000;font-style:normal;font-variant:normal;font-weight:normal;font-stretch:normal;font-size:medium;line-height:normal;font-family:sans-serif;font-variant-ligatures:normal;font-variant-position:normal;font-variant-caps:normal;font-variant-numeric:normal;font-variant-alternates:normal;font-feature-settings:normal;text-indent:0;text-align:start;text-decoration:none;text-decoration-line:none;text-decoration-style:solid;text-decoration-color:#000000;letter-spacing:normal;word-spacing:normal;text-transform:none;writing-mode:lr-tb;direction:ltr;text-orientation:mixed;dominant-baseline:auto;baseline-shift:baseline;text-anchor:start;white-space:normal;shape-padding:0;clip-rule:nonzero;display:inline;overflow:visible;visibility:visible;opacity:1;isolation:auto;mix-blend-mode:normal;color-interpolation:sRGB;color-interpolation-filters:linearRGB;solid-color:#000000;solid-opacity:1;vector-effect:none;fill:#005002;fill-opacity:1;fill-rule:evenodd;stroke:none;stroke-width:0.93281335;stroke-linecap:round;stroke-linejoin:round;stroke-miterlimit:4;stroke-dasharray:none;stroke-dashoffset:0;stroke-opacity:1;paint-order:normal;filter:url(#filter856);color-rendering:auto;image-rendering:auto;shape-rendering:auto;text-rendering:auto;enable-background:accumulate"
       transform="matrix(0.75671391,0,0,0.75671391,26.287381,72.971363)" />
    <ellipse
       ry="9.2950277"
       rx="9.4358606"
       cy="257.35297"
       cx="46.394058"
       id="ellipse902"
       style="opacity:1;fill:url(#radialGradient922);fill-opacity:1.0;fill-rule:evenodd;stroke:none;stroke-width:3.56815624;stroke-linecap:round;stroke-linejoin:round;stroke-miterlimit:4;stroke-dasharray:none;stroke-dashoffset:0;stroke-opacity:1;paint-order:normal" />
    <path
       sodipodi:nodetypes="ccc"
       inkscape:connector-curvature="0"
       id="path904"
       d="m 37.521529,256.78963 c 0.626871,-7.40348 9.201907,-10.49312 15.022266,-6.10279 -6.910412,-0.45426 -11.344866,2.32927 -15.022266,6.10279 z"
       style="fill:url(#linearGradient924);fill-opacity:1;stroke:none;stroke-width:0.32437783px;stroke-linecap:butt;stroke-linejoin:miter;stroke-opacity:1" />
    <g
       transform="matrix(0.75671391,0,0,0.75671391,16.725521,69.088668)"
       style="filter:url(#filter873);fill-opacity:1;fill:url(#linearGradient896)"
       id="g912">
      <path
         style="fill:url(#linearGradient896);fill-opacity:1;stroke:none;stroke-width:0.42866641px;stroke-linecap:butt;stroke-linejoin:miter;stroke-opacity:1"
         d="m 29.20836,261.27894 c -0.362353,1.85784 -0.890519,3.77093 2.605573,4.34261 -4.576879,9.37821 -1.719127,17.76513 -1.861124,26.55201 -4.312867,0.31273 -7.763685,-1.09866 -10.422286,-4.09446 0.507383,-13.5004 4.538349,-23.22569 9.677837,-26.80016 z"
         id="path906"
         inkscape:connector-curvature="0"
         sodipodi:nodetypes="ccccc" />
      <path
         sodipodi:nodetypes="ccccc"
         inkscape:connector-curvature="0"
         id="path908"
         d="m 28.27394,262.604 c 0.02056,1.39833 1.05312,3.03716 2.787826,3.37908 -4.576879,9.37821 -1.339185,16.53508 -1.481182,25.32197 -4.312866,0.31272 -6.657697,-0.57329 -9.316298,-3.56909 0.911426,-13.09636 3.589351,-20.83831 8.009654,-25.13196 z"
         style="fill:url(#linearGradient896);fill-opacity:1;stroke:none;stroke-width:0.42866641px;stroke-linecap:butt;stroke-linejoin:miter;stroke-opacity:1" />
      <path
         style="fill:url(#linearGradient896);fill-opacity:1;stroke:none;stroke-width:0.42866641px;stroke-linecap:butt;stroke-linejoin:miter;stroke-opacity:1"
         d="m 27.89103,263.75273 c 0.480052,1.16858 1.129702,2.19476 2.328334,2.53668 -4.576879,9.64744 -1.262603,15.43787 -1.4046,24.09666 -4.312866,0.31272 -5.279221,0.26911 -7.937822,-2.72669 1.416588,-12.66164 2.909101,-19.46675 7.014088,-23.90665 z"
         id="path910"
         inkscape:connector-curvature="0"
         sodipodi:nodetypes="ccccc" />
    </g>
  </g>
</svg>
