<?xml version="1.0" encoding="UTF-8" standalone="no"?>
<!-- Created with Inkscape (http://www.inkscape.org/) -->
<svg xmlns:dc="http://purl.org/dc/elements/1.1/" xmlns:cc="http://creativecommons.org/ns#" xmlns:rdf="http://www.w3.org/1999/02/22-rdf-syntax-ns#" xmlns:svg="http://www.w3.org/2000/svg" xmlns="http://www.w3.org/2000/svg" xmlns:xlink="http://www.w3.org/1999/xlink" xmlns:sodipodi="http://sodipodi.sourceforge.net/DTD/sodipodi-0.dtd" xmlns:inkscape="http://www.inkscape.org/namespaces/inkscape" width="255" height="255" id="svg2" version="1.1" inkscape:version="0.48.0 r9654" sodipodi:docname="hypnos.svg">
 <defs id="defs4">
  <linearGradient id="linearGradient3879" inkscape:collect="always">
   <stop id="stop3881" stop-color="#ffffff" stop-opacity="1"/>
   <stop id="stop3883" offset="1" stop-color="#9c9c9c" stop-opacity="1"/>
  </linearGradient>
  <linearGradient id="linearGradient3873" inkscape:collect="always">
   <stop id="stop3875" stop-color="#494949" stop-opacity="1"/>
   <stop id="stop3877" offset="1" stop-color="#dfdfdf" stop-opacity="1"/>
  </linearGradient>
  <linearGradient inkscape:collect="always" id="linearGradient4024">
   <stop id="stop4026" stop-color="#4d4d4d" stop-opacity="1"/>
   <stop offset="1" id="stop4028" stop-color="#727272" stop-opacity="1"/>
  </linearGradient>
  <linearGradient inkscape:collect="always" id="linearGradient4010">
   <stop id="stop4012" stop-color="#373232" stop-opacity="1"/>
   <stop id="stop4020" offset="0.717" stop-color="#4d4d4d" stop-opacity="1"/>
   <stop id="stop4018" offset="0.837" stop-color="#303030" stop-opacity="1"/>
   <stop offset="1" id="stop4014" stop-color="#565656" stop-opacity="1"/>
  </linearGradient>
  <linearGradient inkscape:collect="always" id="linearGradient3998">
   <stop id="stop4000" stop-color="#373232" stop-opacity="1"/>
   <stop id="stop4006" offset="0.617" stop-color="#7d7d7d" stop-opacity="1"/>
   <stop offset="1" id="stop4002" stop-color="#4a4a4a" stop-opacity="1"/>
  </linearGradient>
  <linearGradient id="linearGradient3963" inkscape:collect="always">
   <stop id="stop3965" stop-color="#000000" stop-opacity="1"/>
   <stop offset="0.718" id="stop3967" stop-color="#000000" stop-opacity="1"/>
   <stop offset="0.886" id="stop3969" stop-color="#545454" stop-opacity="1"/>
   <stop id="stop3973" offset="0.936" stop-color="#6c6a6a" stop-opacity="1"/>
   <stop id="stop3971" offset="1" stop-color="#414141" stop-opacity="1"/>
  </linearGradient>
  <linearGradient inkscape:collect="always" id="linearGradient3888">
   <stop id="stop3890" stop-color="#d2d2d2" stop-opacity="1"/>
   <stop offset="1" id="stop3892" stop-color="#000000" stop-opacity="1"/>
  </linearGradient>
  <linearGradient inkscape:collect="always" id="linearGradient3872">
   <stop id="stop3874" stop-color="#000000" stop-opacity="1"/>
   <stop id="stop3886" offset="0.718" stop-color="#000000" stop-opacity="1"/>
   <stop id="stop3882" offset="0.886" stop-color="#787878" stop-opacity="1"/>
   <stop offset="1" id="stop3876" stop-color="#000000" stop-opacity="1"/>
  </linearGradient>
  <linearGradient inkscape:collect="always" id="linearGradient3843">
   <stop id="stop3845" stop-color="#3a3a3a" stop-opacity="1"/>
   <stop offset="1" id="stop3847" stop-color="#c0c0c0" stop-opacity="1"/>
  </linearGradient>
  <linearGradient inkscape:collect="always" id="linearGradient3831">
   <stop id="stop3833" stop-color="#000000" stop-opacity="1"/>
   <stop id="stop3839" offset="0.799" stop-color="#7e7e7e" stop-opacity="1"/>
   <stop offset="1" id="stop3835" stop-color="#4b4b4b" stop-opacity="1"/>
  </linearGradient>
  <linearGradient id="linearGradient3821" inkscape:collect="always">
   <stop id="stop3823" stop-color="#a9a9a9" stop-opacity="1"/>
   <stop id="stop3825" offset="1" stop-color="#0c0707" stop-opacity="1"/>
  </linearGradient>
  <linearGradient inkscape:collect="always" id="linearGradient3781">
   <stop id="stop3783" stop-color="#494949" stop-opacity="1"/>
   <stop offset="1" id="stop3785" stop-color="#949494" stop-opacity="1"/>
  </linearGradient>
  <linearGradient inkscape:collect="always" id="linearGradient3788">
   <stop id="stop3790" stop-color="#bdbdbd" stop-opacity="1"/>
   <stop offset="1" id="stop3792" stop-color="#000000" stop-opacity="1"/>
  </linearGradient>
  <linearGradient inkscape:collect="always" id="linearGradient3780">
   <stop id="stop3782" stop-color="#898989" stop-opacity="1"/>
   <stop offset="1" id="stop3784" stop-color="#000000" stop-opacity="1"/>
  </linearGradient>
  <linearGradient inkscape:collect="always" id="linearGradient3768">
   <stop id="stop3770" stop-color="#000000" stop-opacity="1"/>
   <stop id="stop3776" offset="0.627" stop-color="#737373" stop-opacity="1"/>
   <stop offset="0.846" id="stop3778" stop-color="#000000" stop-opacity="1"/>
   <stop offset="1" id="stop3772" stop-color="#606060" stop-opacity="1"/>
  </linearGradient>
  <radialGradient inkscape:collect="always" xlink:href="#linearGradient4010" id="radialGradient3948" gradientUnits="userSpaceOnUse" gradientTransform="matrix(0.29148222,0.05726881,-0.08530155,0.43416105,344.1684,667.28758)" cx="-396.28" cy="581.35" fx="-396.28" fy="581.35" r="177"/>
  <linearGradient inkscape:collect="always" xlink:href="#linearGradient3998" id="linearGradient3951" gradientUnits="userSpaceOnUse" gradientTransform="matrix(0.21840134,0.07413848,-0.07413848,0.21840134,298.18165,827.00987)" x1="-337.5" y1="377.36" x2="-214.13" y2="380.36"/>
  <linearGradient inkscape:collect="always" xlink:href="#linearGradient4024" id="linearGradient3968" gradientUnits="userSpaceOnUse" gradientTransform="matrix(0.21840134,0.07413848,-0.07413848,0.21840134,298.18165,827.00987)" spreadMethod="reflect" x1="-624.5" y1="471.36" x2="-586.57" y2="484.28"/>
  <linearGradient inkscape:collect="always" xlink:href="#linearGradient3780" id="linearGradient3970" gradientUnits="userSpaceOnUse" spreadMethod="reflect" x1="-303.11" y1="818.56" x2="-212.82" y2="968.16"/>
  <linearGradient inkscape:collect="always" xlink:href="#linearGradient3788" id="linearGradient3972" gradientUnits="userSpaceOnUse" spreadMethod="reflect" x1="-285.4" y1="709.73" x2="-140.93" y2="773.64"/>
  <radialGradient inkscape:collect="always" xlink:href="#linearGradient3768" id="radialGradient3974" gradientUnits="userSpaceOnUse" gradientTransform="matrix(0.80387973,0.02810816,-0.04508851,1.1063638,29.057691,-84.510009)" spreadMethod="reflect" cx="-87.09" cy="815.14" fx="-87.09" fy="815.14" r="211.21"/>
  <linearGradient inkscape:collect="always" xlink:href="#linearGradient3788" id="linearGradient3978" gradientUnits="userSpaceOnUse" spreadMethod="reflect" x1="-285.4" y1="709.73" x2="-140.93" y2="773.64"/>
  <radialGradient inkscape:collect="always" xlink:href="#linearGradient3963" id="radialGradient3983" gradientUnits="userSpaceOnUse" gradientTransform="matrix(-1.0002972,0.00891032,-0.00907101,-1.3256979,231.9052,1851.1298)" spreadMethod="reflect" cx="112.32" cy="796.38" fx="112.32" fy="796.38" r="184.95"/>
  <linearGradient inkscape:collect="always" xlink:href="#linearGradient3781" id="linearGradient3993" gradientUnits="userSpaceOnUse" spreadMethod="reflect" x1="249.79" y1="1010.81" x2="279.03" y2="670.3"/>
  <linearGradient inkscape:collect="always" xlink:href="#linearGradient3843" id="linearGradient4008" gradientUnits="userSpaceOnUse" gradientTransform="matrix(0.21840134,0.07413848,-0.07413848,0.21840134,172.93523,796.70022)" spreadMethod="reflect" x1="148.59" y1="723.49" x2="338.03" y2="822.08"/>
  <linearGradient inkscape:collect="always" xlink:href="#linearGradient3843" id="linearGradient4011" gradientUnits="userSpaceOnUse" gradientTransform="matrix(0.21840134,0.07413848,-0.07413848,0.21840134,168.56721,794.11355)" spreadMethod="reflect" x1="-2.612" y1="888.54" x2="187.13" y2="768.42"/>
  <radialGradient inkscape:collect="always" xlink:href="#linearGradient3872" id="radialGradient4015" gradientUnits="userSpaceOnUse" gradientTransform="matrix(-1.0002972,0.00891032,-0.00907101,-1.3256979,231.9052,1851.1298)" spreadMethod="reflect" cx="112.32" cy="796.38" fx="112.32" fy="796.38" r="184.95"/>
  <linearGradient inkscape:collect="always" xlink:href="#linearGradient3888" id="linearGradient4017" gradientUnits="userSpaceOnUse" x1="-42.883" y1="664.78" x2="151.98" y2="766.37"/>
  <linearGradient inkscape:collect="always" xlink:href="#linearGradient3831" id="linearGradient4019" gradientUnits="userSpaceOnUse" x1="142.57" y1="836.52" x2="380.67" y2="836.52"/>
  <linearGradient inkscape:collect="always" xlink:href="#linearGradient3821" id="linearGradient4021" gradientUnits="userSpaceOnUse" spreadMethod="reflect" x1="249.79" y1="1010.81" x2="279.03" y2="670.3"/>
  <linearGradient inkscape:collect="always" xlink:href="#linearGradient3879" id="linearGradient4023" gradientUnits="userSpaceOnUse" spreadMethod="reflect" x1="317.69" y1="801.57" x2="388.99" y2="836.52"/>
  <linearGradient inkscape:collect="always" xlink:href="#linearGradient3873" id="linearGradient4025" gradientUnits="userSpaceOnUse" spreadMethod="reflect" x1="249.79" y1="1010.81" x2="228.41" y2="663.07"/>
  <linearGradient inkscape:collect="always" xlink:href="#linearGradient3788" id="linearGradient3889" gradientUnits="userSpaceOnUse" spreadMethod="reflect" x1="-285.4" y1="709.73" x2="-140.93" y2="773.64"/>
 </defs>
 <sodipodi:namedview id="base" pagecolor="#ffffff" bordercolor="#666666" borderopacity="1.0" inkscape:pageopacity="0.0" inkscape:pageshadow="2" inkscape:zoom="3.6235294" inkscape:cx="100.48443" inkscape:cy="127.5" inkscape:document-units="px" inkscape:current-layer="layer1" showgrid="false" inkscape:window-width="1920" inkscape:window-height="1056" inkscape:window-x="-4" inkscape:window-y="1" inkscape:window-maximized="1"/>
 <metadata id="metadata7">
  <rdf:RDF>
   <cc:Work>
    <dc:format>image/svg+xml</dc:format>
    <dc:type rdf:resource="http://purl.org/dc/dcmitype/StillImage"/>
    <dc:title/>
   </cc:Work>
  </rdf:RDF>
 </metadata>
 <g inkscape:label="Layer 1" inkscape:groupmode="layer" id="layer1" transform="translate(0,-797.36218)">
  <path d="m 149.81184,845.83449 c 0,0 20.28801,15.88341 15.17951,17.64624 -7.31518,2.5243 -45.40121,56.62897 -43.78111,56.50361 1.37972,-0.10677 -28.568554,-4.0958 -28.568554,-4.0958 17.806684,-26.23694 36.474834,-48.69212 57.170154,-70.05405 z" id="path4022" inkscape:connector-curvature="0" sodipodi:nodetypes="csscc" stroke-opacity="1" fill="url(#linearGradient3968)" stroke="#000000" stroke-linejoin="miter" fill-opacity="1" stroke-linecap="butt" stroke-width="0.231"/>
  <path sodipodi:type="arc" id="path2996" sodipodi:cx="-91.901405" sodipodi:cy="818.55939" sodipodi:rx="210.21127" sodipodi:ry="251.40845" d="m 118.30987,818.55939 c 0,138.84905 -94.114795,251.40841 -210.211275,251.40841 -116.096485,0 -210.211275,-112.55936 -210.211275,-251.40841 0,-138.84905 94.11479,-251.40845 210.211275,-251.40845 116.09648,0 210.211275,112.5594 210.211275,251.40845 z" transform="matrix(0.20365042,0.07711471,-0.06507509,0.19514299,152.955,803.17367)" stroke-opacity="1" stroke-dasharray="none" fill="url(#linearGradient3970)" stroke="url(#linearGradient3972)" fill-opacity="1" stroke-width="5.163" stroke-miterlimit="4"/>
  <path transform="matrix(0.20365042,0.07711471,-0.06507509,0.19514299,160.69325,797.05262)" d="m 118.30987,818.55939 c 0,138.84905 -94.114795,251.40841 -210.211275,251.40841 -116.096485,0 -210.211275,-112.55936 -210.211275,-251.40841 0,-138.84905 94.11479,-251.40845 210.211275,-251.40845 116.09648,0 210.211275,112.5594 210.211275,251.40845 z" sodipodi:ry="251.40845" sodipodi:rx="210.21127" sodipodi:cy="818.55939" sodipodi:cx="-91.901405" id="path3766" sodipodi:type="arc" stroke-opacity="1" stroke-dasharray="none" fill="url(#radialGradient3974)" stroke="#000000" fill-opacity="1" stroke-width="2" stroke-miterlimit="4"/>
  <path transform="matrix(0.12967114,0.04910156,-0.04143552,0.12425417,138.54296,853.86234)" d="m 118.30987,818.55939 c 0,138.84905 -94.114795,251.40841 -210.211275,251.40841 -116.096485,0 -210.211275,-112.55936 -210.211275,-251.40841 0,-138.84905 94.11479,-251.40845 210.211275,-251.40845 116.09648,0 210.211275,112.5594 210.211275,251.40845 z" sodipodi:ry="251.40845" sodipodi:rx="210.21127" sodipodi:cy="818.55939" sodipodi:cx="-91.901405" id="path3796" sodipodi:type="arc" stroke-opacity="1" stroke-dasharray="none" fill="#000000" stroke="url(#linearGradient3978)" fill-opacity="1" stroke-width="5.163" stroke-miterlimit="4"/>
  <path sodipodi:type="arc" id="path3887" sodipodi:cx="-91.901405" sodipodi:cy="818.55939" sodipodi:rx="210.21127" sodipodi:ry="251.40845" d="m 118.30987,818.55939 a 210.21127,251.40845 0 1 1 -420.42255,0 210.21127,251.40845 0 1 1 420.42255,0 z" transform="matrix(0.10492168,0.03972988,-0.033527,0.10053861,128.69096,875.72535)" stroke-opacity="1" stroke-dasharray="none" fill="#000000" stroke="url(#linearGradient3889)" fill-opacity="1" stroke-width="5.163" stroke-miterlimit="4"/>
  <path transform="matrix(0.1189306,0.2557726,-0.22700299,0.11788095,297.82064,856.22652)" d="m 296.47886,796.37628 c 0,136.70993 -82.44897,247.53522 -184.15492,247.53522 -101.705959,0 -184.154926,-110.82529 -184.154926,-247.53522 0,-136.70992 82.448967,-247.53522 184.154926,-247.53522 101.70595,0 184.15492,110.8253 184.15492,247.53522 z" sodipodi:ry="247.53522" sodipodi:rx="184.15492" sodipodi:cy="796.37628" sodipodi:cx="112.32394" id="path3896" sodipodi:type="arc" fill="url(#radialGradient3983)" stroke="none" fill-opacity="1"/>
  <path sodipodi:type="arc" id="path3870" sodipodi:cx="112.32394" sodipodi:cy="796.37628" sodipodi:rx="184.15492" sodipodi:ry="247.53522" d="m 296.47886,796.37628 c 0,136.70993 -82.44897,247.53522 -184.15492,247.53522 -101.705959,0 -184.154926,-110.82529 -184.154926,-247.53522 0,-136.70992 82.448967,-247.53522 184.154926,-247.53522 101.70595,0 184.15492,110.8253 184.15492,247.53522 z" transform="matrix(0.1189306,0.2557726,-0.22700299,0.11788095,303.4899,859.37898)" stroke-opacity="1" stroke-dasharray="none" fill="url(#radialGradient4015)" stroke="url(#linearGradient4017)" fill-opacity="1" stroke-width="2.287" stroke-miterlimit="4"/>
  <path sodipodi:nodetypes="csssssccc" inkscape:connector-curvature="0" id="path3979" d="m 179.74143,916.32117 c -6.11448,12.33733 -20.31603,13.28186 -34.86009,15.78225 -27.18089,4.67288 -48.813171,18.26377 -58.001499,39.48765 -11.394978,26.32095 -10.450921,53.05183 28.626769,62.20493 30.93814,7.2466 60.22937,-5.1846 81.53497,-41.10452 6.72891,-11.34451 6.105,-27.47043 3.67751,-33.57162 -4.53952,-11.40948 3.5335,-26.07331 3.5335,-26.07331 l -25.28018,-16.98643 z" stroke-opacity="1" stroke-dasharray="none" fill="url(#linearGradient4011)" stroke="#5e5e5e" stroke-linejoin="miter" fill-opacity="1" stroke-linecap="butt" stroke-width="0.369" stroke-miterlimit="4"/>
  <path d="m 184.10945,918.90784 c -6.11448,12.33733 -20.31602,13.28186 -34.86009,15.78225 -27.18088,4.67288 -48.81316,18.26377 -58.001492,39.48765 -11.394978,26.32096 -10.450921,53.05186 28.626762,62.20496 30.93815,7.2465 60.22937,-5.1846 81.53498,-41.10455 6.7289,-11.34451 6.10499,-27.47043 3.6775,-33.57162 -4.53951,-11.40948 -0.88208,-28.00513 -0.88208,-28.00513 l -20.8646,-15.05461 z" id="path3841" inkscape:connector-curvature="0" sodipodi:nodetypes="csssssccc" stroke-opacity="1" stroke-dasharray="none" fill="url(#linearGradient4008)" stroke="#5e5e5e" stroke-linejoin="miter" fill-opacity="1" stroke-linecap="butt" stroke-width="0.369" stroke-miterlimit="4"/>
  <path transform="matrix(0.2664815,0.21626017,-0.22316717,0.19904157,265.12408,768.60169)" d="m 380.66782,836.51709 c 0,93.9273 -53.29965,170.07041 -119.0481,170.07041 -65.74845,0 -119.0481,-76.14311 -119.0481,-170.07041 0,-93.9273 53.29965,-170.07042 119.0481,-170.07042 65.74845,0 119.0481,76.14312 119.0481,170.07042 z" sodipodi:ry="170.07042" sodipodi:rx="119.0481" sodipodi:cy="836.51709" sodipodi:cx="261.61972" id="path3789" sodipodi:type="arc" stroke-opacity="1" stroke-dasharray="none" fill="#898989" stroke="url(#linearGradient3993)" fill-opacity="0.437" stroke-width="4.736" stroke-miterlimit="4"/>
  <path transform="matrix(0.32176224,0.26186933,-0.27006301,0.24175931,288.66421,715.4944)" d="m 380.66782,836.51709 c 0,93.9273 -53.29965,170.07041 -119.0481,170.07041 -65.74845,0 -119.0481,-76.14311 -119.0481,-170.07041 0,-93.9273 53.29965,-170.07042 119.0481,-170.07042 65.74845,0 119.0481,76.14312 119.0481,170.07042 z" sodipodi:ry="170.07042" sodipodi:rx="119.0481" sodipodi:cy="836.51709" sodipodi:cx="261.61972" id="path3827" sodipodi:type="arc" fill="url(#linearGradient4019)" stroke="none" fill-opacity="1"/>
  <path sodipodi:type="arc" id="path3817" sodipodi:cx="261.61972" sodipodi:cy="836.51709" sodipodi:rx="119.0481" sodipodi:ry="170.07042" d="m 380.66782,836.51709 c 0,93.9273 -53.29965,170.07041 -119.0481,170.07041 -65.74845,0 -119.0481,-76.14311 -119.0481,-170.07041 0,-93.9273 53.29965,-170.07042 119.0481,-170.07042 65.74845,0 119.0481,76.14312 119.0481,170.07042 z" transform="matrix(0.27472804,0.22295256,-0.2300733,0.20520111,269.06456,760.37261)" stroke-opacity="1" stroke-dasharray="none" fill="#898989" stroke="url(#linearGradient4021)" fill-opacity="0.437" stroke-width="4.736" stroke-miterlimit="4"/>
  <path sodipodi:type="arc" id="path3010" sodipodi:cx="261.61972" sodipodi:cy="836.51709" sodipodi:rx="125" sodipodi:ry="170.07042" d="m 386.61972,836.51709 c 0,93.9273 -55.96441,170.07041 -125,170.07041 -69.03559,0 -125,-76.14311 -125,-170.07041 0,-93.9273 55.96441,-170.07042 125,-170.07042 69.03559,0 125,76.14312 125,170.07042 z" transform="matrix(0.21599009,0.16940742,-0.17615618,0.15009508,240.3915,823.51361)" stroke-opacity="1" stroke-dasharray="none" fill="url(#linearGradient4023)" stroke="url(#linearGradient4025)" fill-opacity="1" stroke-width="4.736" stroke-miterlimit="4"/>
  <path sodipodi:nodetypes="csccccc" inkscape:connector-curvature="0" id="path3985" d="m 178.84435,917.38408 c 1.30639,1.17418 0.72533,0.73336 1.45066,1.46672 0.72533,0.73335 24.2645,17.49242 24.2645,17.49242 5.69347,-11.9507 31.69166,-61.90571 25.82829,-81.10907 l -20.86028,-13.17043 -3.07769,2.60877 c -3.99459,24.41954 -11.15209,53.21943 -27.60548,72.71159 z" stroke-opacity="1" fill="#373232" stroke="none" stroke-linejoin="miter" fill-opacity="1" stroke-linecap="butt" stroke-width="0.231"/>
  <path d="m 180.00648,918.26572 24.2645,17.49242 c 5.69347,-11.95069 31.69166,-61.90571 25.82829,-81.10907 L 209.239,841.47864 c 0.61038,21.78696 -19.06633,69.59653 -29.23252,76.78708 z" id="path3983" inkscape:connector-curvature="0" sodipodi:nodetypes="ccccc" stroke-opacity="1" fill="url(#linearGradient3951)" stroke="none" stroke-linejoin="miter" fill-opacity="1" stroke-linecap="butt" stroke-width="0.231"/>
  <path d="m 209.8942,841.70105 c 2.18,1.47073 21.09525,15.03213 21.09525,15.03213 -2.60984,-14.82152 -10.4617,-28.65493 -26.52104,-36.35943 -13.36136,-4.99984 -21.61169,1.72852 -31.90478,5.73225 -9.09211,4.30184 -20.61108,13.84804 -24.76979,21.307 l 1.28632,4.82088 14.38238,10.72788 c 2.27631,-0.009 4.0784,1.37927 7.44973,-1.85534 l 20.76631,-9.51332 c 5.5896,-2.59417 10.21556,-2.34957 13.63108,1.46081 l 1.43271,-8.52568 z" id="path4008" inkscape:connector-curvature="0" sodipodi:nodetypes="cccccccccccc" stroke-opacity="1" fill="url(#radialGradient3948)" stroke="#000000" stroke-linejoin="miter" fill-opacity="1" stroke-linecap="butt" stroke-width="0.231"/>
  <path d="m 208.08442,86.103896 c 2.87579,-1.136807 7.51791,0.674493 8.55519,3.587662 4.79014,13.452942 -15.33219,25.477842 -18.21428,39.464282 -0.89425,4.33971 0.63976,7.41016 -0.82793,11.59091 -0.79751,2.27172 -1.50829,2.81259 -3.86363,3.31169 -5.84955,1.23954 -13.4278,-2.63288 -16.55844,-7.72727 -1.30398,-2.12193 -1.98914,-2.65749 -0.55195,-4.69156 2.89975,-4.10405 7.1985,-6.11702 10.76299,-9.65909 10.22302,-10.15872 7.29511,-30.578413 20.69805,-35.876624 z" id="path4119" inkscape:connector-curvature="0" transform="translate(0,797.36218)" sodipodi:nodetypes="sssssssss" fill="#ffffff" stroke="none" fill-opacity="0.167"/>
  <path d="m 166.68831,34.220779 c 23.51626,-16.465132 46.18648,-18.675339 61.81818,19.870129 l -5.51948,-3.587662 C 207.563,15.305285 186.1575,21.247818 166.68831,34.220779 z" id="path3885" inkscape:connector-curvature="0" transform="translate(0,797.36218)" sodipodi:nodetypes="cccc" fill="#ffffff" stroke="none" fill-opacity="0.302"/>
 </g>
</svg>
