<?xml version="1.0" encoding="UTF-8" standalone="no"?>
<!-- Created with Inkscape (http://www.inkscape.org/) -->
<svg xmlns:dc="http://purl.org/dc/elements/1.1/" xmlns:cc="http://creativecommons.org/ns#" xmlns:rdf="http://www.w3.org/1999/02/22-rdf-syntax-ns#" xmlns:svg="http://www.w3.org/2000/svg" xmlns="http://www.w3.org/2000/svg" xmlns:xlink="http://www.w3.org/1999/xlink" xmlns:sodipodi="http://sodipodi.sourceforge.net/DTD/sodipodi-0.dtd" xmlns:inkscape="http://www.inkscape.org/namespaces/inkscape" id="svg2" version="1.1" inkscape:version="0.92.5 (2060ec1f9f, 2020-04-08)" width="256" height="256" sodipodi:docname="iDevice-Mounter.svg">
 <sodipodi:namedview pagecolor="#ff0000" bordercolor="#666666" borderopacity="1" objecttolerance="10" gridtolerance="10" guidetolerance="10" inkscape:pageopacity="0" inkscape:pageshadow="2" inkscape:window-width="1920" inkscape:window-height="1056" id="namedview100" showgrid="false" inkscape:zoom="3.4414062" inkscape:cx="128" inkscape:cy="128" inkscape:current-layer="svg2" inkscape:window-x="0" inkscape:window-y="0" inkscape:window-maximized="1" inkscape:snap-to-guides="false" inkscape:snap-grids="false" inkscape:snap-others="false" inkscape:object-nodes="false" inkscape:snap-nodes="false" inkscape:snap-global="false"/>
 <metadata id="metadata8">
  <rdf:RDF>
   <cc:Work>
    <dc:format>image/svg+xml</dc:format>
    <dc:type rdf:resource="http://purl.org/dc/dcmitype/StillImage"/>
    <dc:title/>
   </cc:Work>
  </rdf:RDF>
 </metadata>
 <defs id="defs6">
  <linearGradient id="linearGradient3780">
   <stop id="stop3782" stop-color="#707070" stop-opacity="1"/>
   <stop offset="1" id="stop3784" stop-color="#000000" stop-opacity="1"/>
  </linearGradient>
  <linearGradient id="linearGradient3770">
   <stop id="stop3772" stop-color="#ffffff" stop-opacity="0.509"/>
   <stop offset="1" id="stop3774" stop-color="#ffffff" stop-opacity="0"/>
  </linearGradient>
  <radialGradient inkscape:collect="always" xlink:href="#linearGradient3780" id="radialGradient3819" gradientUnits="userSpaceOnUse" gradientTransform="matrix(1.1879323,0.01629861,-0.01482213,1.0803221,69.992296,-57.630064)" spreadMethod="reflect" cx="-253.79" cy="767.01" fx="-253.79" fy="767.01" r="9.243"/>
  <linearGradient inkscape:collect="always" xlink:href="#linearGradient3770" id="linearGradient20291" gradientUnits="userSpaceOnUse" gradientTransform="matrix(0.41535239,0,0,0.41535239,-301.31442,-76.326433)" x1="562.04" y1="196.6" x2="538.9" y2="477.85"/>
  <linearGradient id="linearGradient3266-5">
   <stop id="stop3268" stop-color="#0233fb" stop-opacity="1"/>
   <stop id="stop3270" offset="1" stop-color="#002aff" stop-opacity="0"/>
  </linearGradient>
  <linearGradient id="linearGradient3375-3">
   <stop id="stop3377-6" stop-color="#000000" stop-opacity="0"/>
   <stop offset="0.345" id="stop3383" stop-color="#0026ff" stop-opacity="1"/>
   <stop id="stop3385" offset="0.55" stop-color="#000000" stop-opacity="0"/>
   <stop offset="0.775" id="stop3387-1" stop-color="#0026ff" stop-opacity="1"/>
   <stop id="stop3379" offset="1" stop-color="#000000" stop-opacity="0"/>
  </linearGradient>
  <radialGradient r="656.09" fy="-7.08" fx="973.1" cy="495.26" cx="726.77" spreadMethod="reflect" gradientTransform="matrix(0.9823703,-0.02622708,0.00344477,0.4720402,11.10677,261.29754)" gradientUnits="userSpaceOnUse" id="radialGradient3285" xlink:href="#linearGradient3375-3" inkscape:collect="always"/>
  <radialGradient r="194.71" fy="462.12" fx="814.35" cy="457.53" cx="922.12" gradientTransform="matrix(0.10028091,-0.00224972,6.7467578e-4,0.03007351,-265.72828,-34.973054)" gradientUnits="userSpaceOnUse" id="radialGradient2505" xlink:href="#linearGradient3266-5" inkscape:collect="always"/>
  <radialGradient r="194.71" fy="462.12" fx="814.35" cy="457.53" cx="922.12" gradientTransform="matrix(0.10028091,-0.00224972,6.7467578e-4,0.03007351,14.919474,-46.509092)" gradientUnits="userSpaceOnUse" id="radialGradient2509" xlink:href="#linearGradient3266-5" inkscape:collect="always"/>
  <filter inkscape:collect="always" id="filter8234" x="-0.009" width="1.018" y="-0.016" height="1.031" color-interpolation-filters="sRGB">
   <feGaussianBlur inkscape:collect="always" stdDeviation="0.55429" id="feGaussianBlur8236"/>
  </filter>
  <linearGradient id="linearGradient3050" inkscape:collect="always">
   <stop id="stop3046" stop-color="#000000" stop-opacity="0.082"/>
   <stop id="stop3048" offset="1" stop-color="#000000" stop-opacity="0.451"/>
  </linearGradient>
  <linearGradient id="linearGradient946" inkscape:collect="always">
   <stop id="stop940" stop-color="#b8ffbd" stop-opacity="1"/>
   <stop id="stop944" offset="1" stop-color="#3cc545" stop-opacity="0.404"/>
  </linearGradient>
  <linearGradient inkscape:collect="always" id="linearGradient932">
   <stop id="stop926" stop-color="#00910a" stop-opacity="1"/>
   <stop id="stop928" offset="0.691" stop-color="#b0ddb3" stop-opacity="1"/>
   <stop offset="1" id="stop930" stop-color="#3cc545" stop-opacity="0.404"/>
  </linearGradient>
  <linearGradient id="linearGradient916" inkscape:collect="always">
   <stop id="stop912" stop-color="#8de093" stop-opacity="0"/>
   <stop offset="0.363" id="stop920" stop-color="#b0ddb3" stop-opacity="1"/>
   <stop id="stop914" offset="1" stop-color="#6bec73" stop-opacity="0.404"/>
  </linearGradient>
  <linearGradient id="linearGradient895" inkscape:collect="always">
   <stop id="stop891" stop-color="#ffffff" stop-opacity="1"/>
   <stop id="stop893" offset="1" stop-color="#ffffff" stop-opacity="0"/>
  </linearGradient>
  <linearGradient id="linearGradient883" inkscape:collect="always">
   <stop id="stop879" stop-color="#fef7f7" stop-opacity="1"/>
   <stop offset="0.473" id="stop887" stop-color="#4ad74e" stop-opacity="1"/>
   <stop id="stop881" offset="1" stop-color="#005b08" stop-opacity="1"/>
  </linearGradient>
  <radialGradient gradientUnits="userSpaceOnUse" gradientTransform="matrix(1,0,0,0.67729978,11.017174,85.503874)" r="6.572" fy="256.08" fx="-113.84" cy="252.59" cx="-111.81" id="radialGradient885" xlink:href="#linearGradient883" inkscape:collect="always"/>
  <linearGradient gradientTransform="matrix(0.93323181,0,0,0.8226632,-23.197996,59.946812)" gradientUnits="userSpaceOnUse" y2="254.85" x2="-107.91" y1="250.18" x1="-103.01" id="linearGradient897" xlink:href="#linearGradient895" inkscape:collect="always"/>
  <linearGradient gradientTransform="translate(-14.618303,0.80434597)" gradientUnits="userSpaceOnUse" y2="247.94" x2="67.28" y1="252.58" x1="67.3" id="linearGradient918" xlink:href="#linearGradient916" inkscape:collect="always"/>
  <linearGradient y2="247.94" x2="67.28" y1="250.4" x1="67.3" gradientTransform="translate(-14.618303,-0.81335461)" gradientUnits="userSpaceOnUse" id="linearGradient924" xlink:href="#linearGradient932" inkscape:collect="always"/>
  <radialGradient gradientUnits="userSpaceOnUse" gradientTransform="matrix(1,0,0,0.04389436,-14.522448,243.0963)" r="10.632" fy="254.2" fx="67.57" cy="254.2" cx="67.57" id="radialGradient938" xlink:href="#linearGradient946" inkscape:collect="always"/>
  <radialGradient gradientUnits="userSpaceOnUse" gradientTransform="matrix(0.99998407,-0.00564428,0.1562215,27.677393,-55.047721,-6918.0565)" r="0.52" fy="259.4" fx="56.678" cy="259.4" cx="56.678" id="radialGradient954" xlink:href="#linearGradient946" inkscape:collect="always"/>
  <radialGradient r="0.52" fy="259.4" fx="56.678" cy="259.4" cx="56.678" gradientTransform="matrix(0.99998407,-0.00564428,0.1562215,27.677393,-34.34559,-6920.6821)" gradientUnits="userSpaceOnUse" id="radialGradient958" xlink:href="#linearGradient946" inkscape:collect="always"/>
  <radialGradient r="6.572" fy="256.08" fx="-113.84" cy="252.59" cx="-111.81" gradientTransform="matrix(1,0,0,0.67729978,30.326221,93.492085)" gradientUnits="userSpaceOnUse" id="radialGradient964" xlink:href="#linearGradient883" inkscape:collect="always"/>
  <linearGradient y2="254.85" x2="-107.91" y1="250.18" x1="-103.01" gradientTransform="matrix(0.93323181,0,0,0.8226632,-4.2822311,66.052195)" gradientUnits="userSpaceOnUse" id="linearGradient966" xlink:href="#linearGradient895" inkscape:collect="always"/>
  <filter color-interpolation-filters="sRGB" inkscape:collect="always" id="filter3495">
   <feGaussianBlur inkscape:collect="always" stdDeviation="3.21164" id="feGaussianBlur3497"/>
  </filter>
  <linearGradient inkscape:collect="always" xlink:href="#linearGradient3453" id="linearGradient3388" x1="56.18" y1="38.573" x2="200.26" y2="210.36" gradientUnits="userSpaceOnUse"/>
  <linearGradient id="linearGradient3453" inkscape:collect="always">
   <stop id="stop3455" stop-color="#ffffff" stop-opacity="1"/>
   <stop id="stop3457" offset="1" stop-color="#6a6a6a" stop-opacity="1"/>
  </linearGradient>
  <linearGradient inkscape:collect="always" xlink:href="#linearGradient3424-4" id="linearGradient3430-8" x1="83.42" y1="151.03" x2="19.932" y2="43.14" gradientUnits="userSpaceOnUse" spreadMethod="reflect"/>
  <linearGradient inkscape:collect="always" id="linearGradient3424-4">
   <stop id="stop3426" stop-color="#ffffff" stop-opacity="1"/>
   <stop offset="1" id="stop3428" stop-color="#929292" stop-opacity="0"/>
  </linearGradient>
  <linearGradient inkscape:collect="always" xlink:href="#linearGradient3434-1" id="linearGradient3440-8" x1="121.72" y1="53.4" x2="156.52" y2="53.4" gradientUnits="userSpaceOnUse" spreadMethod="reflect" gradientTransform="rotate(-32.460608,125.31008,127.34042)"/>
  <linearGradient inkscape:collect="always" id="linearGradient3434-1">
   <stop id="stop3436" stop-color="#abb2f2" stop-opacity="0.449"/>
   <stop offset="1" id="stop3438" stop-color="#abb2f2" stop-opacity="0"/>
  </linearGradient>
  <linearGradient inkscape:collect="always" xlink:href="#linearGradient3434-1" id="linearGradient3444-0" gradientUnits="userSpaceOnUse" gradientTransform="rotate(147.53939,126.34622,127.17476)" spreadMethod="reflect" x1="121.72" y1="53.4" x2="156.52" y2="53.4"/>
  <linearGradient inkscape:collect="always" xlink:href="#linearGradient3413" id="linearGradient3419" gradientUnits="userSpaceOnUse" gradientTransform="matrix(0.4037037,0,0,0.4037037,74.555113,75.53489)" x1="56.18" y1="38.573" x2="200.26" y2="210.36"/>
  <linearGradient id="linearGradient3413">
   <stop id="stop3415" stop-color="#cfcfcf" stop-opacity="0.544"/>
   <stop offset="1" id="stop3417" stop-color="#787878" stop-opacity="0.386"/>
  </linearGradient>
  <linearGradient inkscape:collect="always" xlink:href="#linearGradient3448-0" id="linearGradient3454-3" gradientUnits="userSpaceOnUse" spreadMethod="reflect" x1="83.42" y1="151.03" x2="19.932" y2="43.14"/>
  <linearGradient id="linearGradient3448-0" inkscape:collect="always">
   <stop id="stop3450" stop-color="#ffffff" stop-opacity="0.72"/>
   <stop id="stop3452" offset="1" stop-color="#8688ac" stop-opacity="0.159"/>
  </linearGradient>
  <linearGradient gradientUnits="userSpaceOnUse" y2="291.42" x2="42.26" y1="239.68" x1="46.11" id="linearGradient3052" xlink:href="#linearGradient3050" inkscape:collect="always"/>
  <filter height="1.044" y="-0.022" width="1.053" x="-0.026" id="filter3070" inkscape:collect="always" color-interpolation-filters="sRGB">
   <feGaussianBlur id="feGaussianBlur3072" stdDeviation="0.48256" inkscape:collect="always"/>
  </filter>
  <linearGradient id="linearGradient1195">
   <stop stop-opacity="0.252" stop-color="#ffffff" id="stop1191"/>
   <stop stop-opacity="0.712" stop-color="#ffffff" offset="1" id="stop1193"/>
  </linearGradient>
  <linearGradient inkscape:collect="always" id="linearGradient1183">
   <stop stop-opacity="0" stop-color="#ffffff" id="stop1179"/>
   <stop stop-opacity="0" stop-color="#ffffff" id="stop1187" offset="0.8"/>
   <stop stop-opacity="0.446" stop-color="#ffffff" offset="1" id="stop1181"/>
  </linearGradient>
  <linearGradient id="linearGradient1173">
   <stop stop-opacity="0.5" stop-color="#ffffff" id="stop1169"/>
   <stop stop-opacity="0" stop-color="#ffffff" offset="1" id="stop1171"/>
  </linearGradient>
  <linearGradient id="linearGradient1159" inkscape:collect="always">
   <stop stop-opacity="1" stop-color="#ffffff" id="stop1155"/>
   <stop stop-opacity="0.27" stop-color="#ffffff" id="stop1157" offset="1"/>
  </linearGradient>
  <linearGradient id="linearGradient1153" inkscape:collect="always">
   <stop stop-opacity="0.617" stop-color="#ffffff" id="stop1149"/>
   <stop stop-opacity="0" stop-color="white" id="stop1151" offset="1"/>
  </linearGradient>
  <linearGradient id="linearGradient858" inkscape:collect="always">
   <stop stop-opacity="1" stop-color="#f6ae85" id="stop854"/>
   <stop stop-opacity="0.275" stop-color="#ffffff" offset="0.724" id="stop865"/>
   <stop stop-opacity="1" stop-color="#ffffff" offset="0.872" id="stop863"/>
   <stop stop-opacity="0.225" stop-color="#ffffff" id="stop856" offset="1"/>
  </linearGradient>
  <linearGradient id="linearGradient831" inkscape:collect="always">
   <stop stop-opacity="1" stop-color="#82771d" id="stop827"/>
   <stop stop-opacity="0" stop-color="#82771d" id="stop829" offset="1"/>
  </linearGradient>
  <radialGradient gradientUnits="userSpaceOnUse" gradientTransform="matrix(1.1800595,-0.10523086,0.16680362,1.6845952,-57.722843,-139.69572)" r="74.885" fy="146.07" fx="113.62" cy="166.98" cx="122.05" id="radialGradient853" xlink:href="#linearGradient1153" inkscape:collect="always"/>
  <radialGradient gradientUnits="userSpaceOnUse" gradientTransform="matrix(1.0407113,0,0,0.56915401,-31.543378,14.385655)" r="10.02" fy="93.77" fx="140.56" cy="93.77" cx="140.56" id="radialGradient833" xlink:href="#linearGradient831" inkscape:collect="always"/>
  <linearGradient gradientTransform="matrix(0.49162844,-0.98171704,-0.98171704,-0.49162844,175.27928,99.899947)" spreadMethod="reflect" gradientUnits="userSpaceOnUse" y2="114.46" x2="4.535" y1="78.3" x1="-16.803" id="linearGradient852" xlink:href="#linearGradient1195" inkscape:collect="always"/>
  <radialGradient gradientUnits="userSpaceOnUse" gradientTransform="matrix(0.88057423,-2.0360362,1.9315803,0.83539768,-125.05053,328.29218)" r="17.228" fy="67.58" fx="165.48" cy="67.58" cx="165.48" id="radialGradient860" xlink:href="#linearGradient858" inkscape:collect="always"/>
  <linearGradient gradientTransform="matrix(1.0687512,0,0,1.0687512,-17.94174,-20.972158)" spreadMethod="reflect" gradientUnits="userSpaceOnUse" y2="97.1" x2="124.93" y1="78.37" x1="97.19" id="linearGradient1161" xlink:href="#linearGradient1159" inkscape:collect="always"/>
  <linearGradient gradientTransform="matrix(1.0687512,0,0,1.0687512,-17.94174,-20.972158)" gradientUnits="userSpaceOnUse" y2="141.3" x2="133.5" y1="71.57" x1="106.61" id="linearGradient1167" xlink:href="#linearGradient1173" inkscape:collect="always"/>
  <radialGradient r="74.885" fy="141.53" fx="113.65" cy="162.43" cx="122.08" gradientTransform="matrix(-0.2299059,1.4058711,-1.6967054,-0.2567902,425.224,-2.6190035)" gradientUnits="userSpaceOnUse" id="radialGradient1177" xlink:href="#linearGradient1183" inkscape:collect="always"/>
  <filter color-interpolation-filters="sRGB" height="1.041" y="-0.021" width="1.057" x="-0.028" id="filter1242" inkscape:collect="always">
   <feGaussianBlur id="feGaussianBlur1244" stdDeviation="1.86294" inkscape:collect="always"/>
  </filter>
 </defs>
 <rect id="rect2601" width="160.33" height="215.9" x="19.452" y="22.08" opacity="1" stroke-dasharray="none" stroke-opacity="1" fill="#000000" stroke="none" stroke-linejoin="round" fill-opacity="1" stroke-linecap="round" stroke-width="2" stroke-miterlimit="4"/>
 <g id="g8206" transform="matrix(0.97529607,-0.14177235,0.25907329,1.8442595,193.22606,-47.219677)" filter="url(#filter8234)">
  <g transform="matrix(0.10309164,-0.04155911,0.04155911,0.10309164,-224.07232,69.787371)" id="g3393">
   <ellipse id="path3373" transform="matrix(1,0,0,0.5228216,-7.7111382,312.75441)" cx="809.03" cy="458.81" rx="656.09" ry="309.73" opacity="1" stroke-dasharray="none" stroke-opacity="1" fill="url(#radialGradient3285)" stroke="none" stroke-linejoin="round" fill-opacity="1" stroke-linecap="round" stroke-width="2" stroke-miterlimit="4"/>
   <ellipse transform="matrix(-1,0,0,-0.5228216,1751.7136,645.99721)" id="path3389" cx="809.03" cy="458.81" rx="656.09" ry="309.73" opacity="1" stroke-dasharray="none" stroke-opacity="1" fill="url(#radialGradient3285)" stroke="none" stroke-linejoin="round" fill-opacity="1" stroke-linecap="round" stroke-width="2" stroke-miterlimit="4"/>
  </g>
  <ellipse transform="matrix(0.83301333,-0.55325291,0.55325291,0.83301333,0,0)" id="path2484" cx="-172.95" cy="-23.288" rx="21.642" ry="5.857" stroke-dasharray="none" stroke-opacity="1" fill="url(#radialGradient2505)" stroke="none" stroke-linejoin="round" fill-opacity="1" stroke-linecap="round" stroke-width="2" stroke-miterlimit="4"/>
  <ellipse id="path2507" transform="matrix(-0.83301333,0.55325291,-0.55325291,-0.83301333,0,0)" cx="107.7" cy="-34.824" rx="21.642" ry="5.857" stroke-dasharray="none" stroke-opacity="1" fill="url(#radialGradient2509)" stroke="none" stroke-linejoin="round" fill-opacity="1" stroke-linecap="round" stroke-width="2" stroke-miterlimit="4"/>
 </g>
 <g id="g8223" transform="translate(276.68319,-4.1081908)">
  <path inkscape:connector-curvature="0" id="rect3763" d="m -253.89519,7.5071049 c -7.21378,0 -13.03169,5.8049211 -13.03169,13.0187001 l 0,221.356865 c 0,7.21378 5.81791,13.03168 13.03169,13.03168 l 164.933834,0 c 7.213779,0 13.018699,-5.8179 13.018699,-13.03168 l 0,-221.356865 c 0,-7.213779 -5.80492,-13.0187001 -13.018699,-13.0187001 l -164.933834,0 z m 6.81437,22.3251881 150.669081,0 0,201.822317 -150.669081,0 0,-201.822317 z" stroke-dasharray="none" stroke-opacity="1" fill="#000000" stroke="#666666" fill-opacity="1" stroke-width="0.831" stroke-miterlimit="4"/>
  <g transform="matrix(0.41535239,0,0,0.41535239,-61.429871,-75.60408)" id="g3792">
   <circle r="10.3" cy="221.19" cx="-263.86" id="path3788" stroke-dasharray="none" stroke-opacity="1" fill="#000000" stroke="#a2a2a2" fill-opacity="1" stroke-width="2" stroke-miterlimit="4"/>
   <circle r="10.3" cy="221.19" cx="-263.86" id="path3790" transform="matrix(0.66854491,0,0,0.66854491,-87.456966,73.314886)" stroke-dasharray="none" stroke-opacity="1" fill="#2d2d2d" stroke="#5b5b5b" fill-opacity="1" stroke-width="2" stroke-miterlimit="4"/>
  </g>
  <path sodipodi:nodetypes="ccccc" inkscape:connector-curvature="0" id="path3768" d="m -201.49719,9.4521922 111.271671,0 C -80.861197,9.415063 -77.8564,14.47362 -77.952905,23.36115 l -0.40909,211.49799 C -130.06394,163.61735 -177.69052,90.886489 -201.49719,9.4521922 Z" fill="url(#linearGradient20291)" stroke="none" fill-opacity="1"/>
  <g transform="matrix(0.41535239,0,0,0.41535239,-70.823562,-77.039443)" id="g3796">
   <circle r="19.03" cy="772.08" cx="-257.89" id="path3761" transform="translate(11.927635,-1.4928528)" stroke-opacity="1" fill="#000000" stroke="#666666" fill-opacity="1"/>
   <rect id="rect3778" width="17.486" height="17.486" x="-254.71" y="761.83" ry="3.906" stroke-opacity="1" fill="url(#radialGradient3819)" stroke="#666666" fill-opacity="1" rx="3.906"/>
  </g>
  <path sodipodi:nodetypes="sssssssss" d="m -252.54718,8.9956212 c -7.09279,0 -12.81312,5.7330328 -12.81312,12.8574808 l 0,218.615468 c 0,7.12444 5.72033,12.87029 12.81312,12.87029 l 162.167591,0 c 7.09279,0 12.800357,-5.74585 12.800357,-12.87029 l 0,-218.615468 c 0,-7.124448 -5.707567,-12.8574808 -12.800357,-12.8574808 z" id="path3800" inkscape:connector-curvature="0" stroke-dasharray="none" stroke-opacity="1" fill="none" stroke="#666666" stroke-width="0.819" stroke-miterlimit="4"/>
 </g>
 <text x="142.09" y="919.84" id="text3433" font-style="normal" font-weight="normal" font-size="40" font-family="&apos;Bitstream Vera Sans&apos;" fill="#000000" stroke="none" line-height="0%" fill-opacity="1"><tspan sodipodi:role="line" id="tspan3435" x="142.09" y="919.84" line-height="1.25" font-size="40"> </tspan>
 </text>
 <g id="g3499" transform="matrix(0.34240984,0,0,0.34240984,28.687869,29.338279)">
  <g transform="translate(224.7619,3.8095238)" id="g3491" filter="url(#filter3495)">
   <path id="path3478" d="m -103.40213,26.081731 c -59.09377,0 -107.03125,47.968725 -107.03125,107.062499 0,59.09377 47.93748,107.0625 107.03125,107.0625 59.093771,0 107.0624909,-47.96873 107.0625009,-107.0625 0,-59.093774 -47.9687299,-107.062499 -107.0625009,-107.062499 z m 0,63.4375 c 24.082271,-2e-6 43.625001,19.542729 43.625001,43.624999 0,24.08226 -19.54273,43.625 -43.625001,43.625 -24.08227,0 -43.625,-19.54273 -43.625,-43.625 0,-24.08227 19.54273,-43.624999 43.625,-43.624999 z" inkscape:connector-curvature="0" fill="#000000" stroke="none" fill-opacity="0.643"/>
   <path id="path3482" d="m -103.25893,89.912325 c -23.85638,0 -43.2158,19.390375 -43.21579,43.246745 0,23.85638 19.35941,43.2158 43.21579,43.2158 23.856382,0 43.215802,-19.35942 43.215802,-43.2158 0,-23.85637 -19.35943,-43.246745 -43.215802,-43.246745 z m 0,26.375255 c 9.311852,0 16.871502,7.55965 16.871502,16.87149 -1e-5,9.31185 -7.55965,16.84054 -16.871502,16.84054 -9.31186,0 -16.8715,-7.52869 -16.8715,-16.84054 0,-9.31184 7.55965,-16.87149 16.8715,-16.87149 z" inkscape:connector-curvature="0" fill="#000000" stroke="none" fill-opacity="0.353"/>
  </g>
  <path id="path2610" d="m 125.71875,20.3125 c -59.093775,0 -107.03125,47.968725 -107.03125,107.0625 0,59.09377 47.937475,107.0625 107.03125,107.0625 59.09377,0 107.06249,-47.96873 107.0625,-107.0625 0,-59.093775 -47.96873,-107.0625 -107.0625,-107.0625 z m 0,63.4375 c 24.08227,-2e-6 43.625,19.54273 43.625,43.625 0,24.08226 -19.54273,43.625 -43.625,43.625 -24.08227,0 -43.625,-19.54273 -43.625,-43.625 -2e-6,-24.08227 19.54273,-43.625 43.625,-43.625 z" inkscape:connector-curvature="0" stroke-dasharray="none" stroke-opacity="1" fill="#929292" stroke="url(#linearGradient3388)" stroke-linejoin="round" fill-opacity="1" stroke-linecap="round" stroke-width="3" stroke-dashoffset="0" stroke-miterlimit="4"/>
  <path d="m 125.71893,21.557313 c -58.406691,0 -105.786798,47.410994 -105.786798,105.817687 0,58.40669 47.380107,105.81769 105.786798,105.81769 58.40669,0 105.81768,-47.411 105.81769,-105.81769 0,-58.406693 -47.411,-105.817687 -105.81769,-105.817687 z m 0,62.699914 c 23.80227,-2e-6 43.11777,19.315503 43.11777,43.117773 0,23.80226 -19.3155,43.11777 -43.11777,43.11777 -23.80226,0 -43.117771,-19.3155 -43.117771,-43.11777 -2e-6,-23.80227 19.315511,-43.117773 43.117771,-43.117773 z" id="path3422" inkscape:connector-curvature="0" fill="url(#linearGradient3430-8)" stroke="none" fill-opacity="1"/>
  <path sodipodi:nodetypes="ccccc" id="path3432" d="M 43.068032,61.650392 C 55.975769,44.572234 73.227125,33.810675 92.899826,26.85564 L 110.4725,84.685077 c -7.21319,1.747821 -14.605374,6.279983 -21.388712,15.080764 z" inkscape:connector-curvature="0" fill="url(#linearGradient3440-8)" fill-rule="evenodd" stroke="none" fill-opacity="1"/>
  <path d="m 209.3736,192.16889 c -12.90774,17.07816 -30.15909,27.83972 -49.83179,34.79475 L 141.96913,169.1342 c 7.21319,-1.74782 14.60538,-6.27998 21.38871,-15.08076 z" id="path3442" sodipodi:nodetypes="ccccc" inkscape:connector-curvature="0" fill="url(#linearGradient3444-0)" fill-rule="evenodd" stroke="none" fill-opacity="1"/>
  <path id="path3403" d="m 125.3125,83.72185 c -23.85638,0 -43.215799,19.39038 -43.215796,43.24675 0,23.85638 19.359416,43.2158 43.215796,43.2158 23.85638,0 43.2158,-19.35942 43.2158,-43.2158 0,-23.85637 -19.35943,-43.24675 -43.2158,-43.24675 z m 0,26.37526 c 9.31185,0 16.8715,7.55965 16.8715,16.87149 -1e-5,9.31185 -7.55965,16.84054 -16.8715,16.84054 -9.31186,0 -16.8715,-7.52869 -16.8715,-16.84054 0,-9.31184 7.55965,-16.87149 16.8715,-16.87149 z" inkscape:connector-curvature="0" stroke-dasharray="none" stroke-opacity="1" fill="#abb2f2" stroke="url(#linearGradient3419)" stroke-linejoin="round" fill-opacity="0.374" stroke-linecap="round" stroke-width="2" stroke-dashoffset="0" stroke-miterlimit="4"/>
  <path sodipodi:nodetypes="csssc" d="m 125.72059,32.892946 c -52.149928,0 -94.45448,42.33213 -94.45448,94.482054 0,52.14992 42.304552,94.48205 94.45448,94.48205 52.14992,0 94.48204,-42.33213 94.48205,-94.48205 0,-52.149924 -42.33213,-94.482054 -94.48205,-94.482054 z" id="path3456" inkscape:connector-curvature="0" stroke-dasharray="none" stroke-opacity="1" fill="none" stroke="#787878" stroke-linejoin="round" stroke-linecap="round" stroke-width="0.882" stroke-dashoffset="0" stroke-miterlimit="4"/>
  <path id="path3458" d="m 125.72095,35.35398 c -50.791547,0 -91.994165,41.229478 -91.994165,92.02102 0,50.79154 41.202618,92.02102 91.994165,92.02102 50.79154,0 92.02101,-41.22948 92.02102,-92.02102 0,-50.791542 -41.22948,-92.02102 -92.02102,-92.02102 z" sodipodi:nodetypes="csssc" inkscape:connector-curvature="0" stroke-dasharray="none" stroke-opacity="1" fill="none" stroke="#787878" stroke-linejoin="round" stroke-linecap="round" stroke-width="0.86" stroke-dashoffset="0" stroke-miterlimit="4"/>
  <path sodipodi:nodetypes="csssc" d="m 125.72131,37.815014 c -49.433166,0 -89.53385,40.126826 -89.53385,89.559986 0,49.43316 40.100684,89.55999 89.53385,89.55999 49.43316,0 89.55998,-40.12683 89.55999,-89.55999 0,-49.43316 -40.12683,-89.559986 -89.55999,-89.559986 z" id="path3460" inkscape:connector-curvature="0" stroke-dasharray="none" stroke-opacity="1" fill="none" stroke="#787878" stroke-linejoin="round" stroke-linecap="round" stroke-width="0.837" stroke-dashoffset="0" stroke-miterlimit="4"/>
  <path id="path3462" d="m 125.72167,40.276048 c -48.074785,0 -87.073535,39.024174 -87.073535,87.098952 0,48.07478 38.99875,87.09896 87.073535,87.09896 48.07478,0 87.09895,-39.02418 87.09896,-87.09896 0,-48.074778 -39.02418,-87.098952 -87.09896,-87.098952 z" sodipodi:nodetypes="csssc" inkscape:connector-curvature="0" stroke-dasharray="none" stroke-opacity="1" fill="none" stroke="#787878" stroke-linejoin="round" stroke-linecap="round" stroke-width="0.814" stroke-dashoffset="0" stroke-miterlimit="4"/>
  <path sodipodi:nodetypes="csssc" d="m 125.72199,42.463952 c -46.867159,0 -84.886271,38.043896 -84.886271,84.911048 0,46.86715 38.019112,84.91106 84.886271,84.91106 46.86715,0 84.91105,-38.04391 84.91106,-84.91106 0,-46.867152 -38.04391,-84.911048 -84.91106,-84.911048 z" id="path3464" inkscape:connector-curvature="0" stroke-dasharray="none" stroke-opacity="1" fill="none" stroke="#787878" stroke-linejoin="round" stroke-linecap="round" stroke-width="0.793" stroke-dashoffset="0" stroke-miterlimit="4"/>
  <path id="path3466" d="m 125.72235,44.925343 c -45.50858,0 -82.425599,36.941085 -82.425599,82.449657 0,45.50857 36.917019,82.44967 82.425599,82.44967 45.50857,0 82.44966,-36.9411 82.44967,-82.44967 0,-45.508572 -36.9411,-82.449657 -82.44967,-82.449657 z" sodipodi:nodetypes="csssc" inkscape:connector-curvature="0" stroke-dasharray="none" stroke-opacity="1" fill="none" stroke="#787878" stroke-linejoin="round" stroke-linecap="round" stroke-width="0.77" stroke-dashoffset="0" stroke-miterlimit="4"/>
  <path sodipodi:nodetypes="csssc" d="m 125.72267,47.113247 c -44.300954,0 -80.238335,35.960807 -80.238335,80.261753 0,44.30094 35.937381,80.26177 80.238335,80.26177 44.30094,0 80.26176,-35.96083 80.26177,-80.26177 0,-44.300946 -35.96083,-80.261753 -80.26177,-80.261753 z" id="path3468" inkscape:connector-curvature="0" stroke-dasharray="none" stroke-opacity="1" fill="none" stroke="#787878" stroke-linejoin="round" stroke-linecap="round" stroke-width="0.75" stroke-dashoffset="0" stroke-miterlimit="4"/>
  <path id="path3470" d="m 125.72303,49.574638 c -42.942375,0 -77.777663,34.857996 -77.777663,77.800362 0,42.94236 34.835288,77.80038 77.777663,77.80038 42.94236,0 77.80037,-34.85802 77.80038,-77.80038 0,-42.942366 -34.85802,-77.800362 -77.80038,-77.800362 z" sodipodi:nodetypes="csssc" inkscape:connector-curvature="0" stroke-dasharray="none" stroke-opacity="1" fill="none" stroke="#787878" stroke-linejoin="round" stroke-linecap="round" stroke-width="0.727" stroke-dashoffset="0" stroke-miterlimit="4"/>
  <path sodipodi:nodetypes="csssc" d="m 125.72339,52.036029 c -41.583796,0 -75.316991,33.755185 -75.316991,75.338971 0,41.58378 33.733195,75.33899 75.316991,75.33899 41.58378,0 75.33898,-33.75521 75.33899,-75.33899 0,-41.583786 -33.75521,-75.338971 -75.33899,-75.338971 z" id="path3472" inkscape:connector-curvature="0" stroke-dasharray="none" stroke-opacity="1" fill="none" stroke="#787878" stroke-linejoin="round" stroke-linecap="round" stroke-width="0.704" stroke-dashoffset="0" stroke-miterlimit="4"/>
  <path id="path3474" d="m 125.72375,54.497063 c -40.225414,0 -72.856676,32.652533 -72.856676,72.877937 0,40.2254 32.631262,72.87796 72.856676,72.87796 40.2254,0 72.87795,-32.65256 72.87795,-72.87796 0,-40.225404 -32.65255,-72.877937 -72.87795,-72.877937 z" sodipodi:nodetypes="csssc" inkscape:connector-curvature="0" stroke-dasharray="none" stroke-opacity="1" fill="none" stroke="#787878" stroke-linejoin="round" stroke-linecap="round" stroke-width="0.681" stroke-dashoffset="0" stroke-miterlimit="4"/>
  <path sodipodi:nodetypes="csssc" d="m 125.72407,56.684649 c -39.017964,0 -70.669729,31.672398 -70.669729,70.690351 0,39.01795 31.651765,70.69037 70.669729,70.69037 39.01795,0 70.69036,-31.67242 70.69036,-70.69037 0,-39.017953 -31.67241,-70.690351 -70.69036,-70.690351 z" id="path3476" inkscape:connector-curvature="0" stroke-dasharray="none" stroke-opacity="1" fill="none" stroke="#787878" stroke-linejoin="round" stroke-linecap="round" stroke-width="0.66" stroke-dashoffset="0" stroke-miterlimit="4"/>
  <path id="path3446" d="m 125.71893,21.557313 c -58.406691,0 -105.786798,47.410994 -105.786798,105.817687 0,58.40669 47.380107,105.81769 105.786798,105.81769 58.40669,0 105.81768,-47.411 105.81769,-105.81769 0,-58.406693 -47.411,-105.817687 -105.81769,-105.817687 z m 0,62.699914 c 23.80227,-2e-6 43.11777,19.315503 43.11777,43.117773 0,23.80226 -19.3155,43.11777 -43.11777,43.11777 -23.80226,0 -43.117771,-19.3155 -43.117771,-43.11777 -2e-6,-23.80227 19.315511,-43.117773 43.117771,-43.117773 z" inkscape:connector-curvature="0" fill="url(#linearGradient3454-3)" stroke="none" fill-opacity="1"/>
 </g>
 <path d="m 56.176319,239.92741 -27.541987,3.3383 c -0.853681,0.15304 -1.51571,0.88215 -1.529106,1.72599 v 7.50807 c 0.194606,8.91918 0.134839,17.96205 0.112138,26.95495 a 5.8999437,8.7439128 60.262403 0 0 -8.331793,1.02732 5.8999437,8.7439128 60.262403 0 0 -4.737695,9.45472 5.8999437,8.7439128 60.262403 0 0 10.487216,0.85008 5.8999437,8.7439128 60.262403 0 0 5.052922,-5.89008 c 0.117753,-0.22976 0.189653,-0.49502 0.189653,-0.78238 v -0.31523 a 5.8999437,8.7439128 60.262403 0 0 0,-0.7798 v -28.20293 c -0.06256,-0.71987 0.278435,-1.07937 0.903304,-1.22163 l 22.970691,-2.84582 c 0.750064,-0.14262 1.294698,0.28213 1.181322,1.02991 v 24.27501 a 5.8999437,8.7439128 60.262403 0 0 -8.288899,1.04283 5.8999437,8.7439128 60.262403 0 0 -4.737695,9.45472 5.8999437,8.7439128 60.262403 0 0 10.486697,0.85008 5.8999437,8.7439128 60.262403 0 0 4.953188,-5.56711 c 0.159745,-0.25387 0.256315,-0.56425 0.256315,-0.9033 3.92e-4,-0.0725 6.38e-4,-0.15477 10e-4,-0.22738 a 5.8999437,8.7439128 60.262403 0 0 0.0067,-1.2423 c 0.0555,-9.99034 0.130347,-21.16969 0.09509,-30.67048 v -7.50858 c -0.01341,-0.93511 -0.715492,-1.37883 -1.529107,-1.35496 z" id="path2975" inkscape:connector-curvature="0" transform="matrix(1.2941474,0,0,1.2941474,26.491643,-275.69796)" opacity="1" stroke-dasharray="none" stroke-opacity="1" fill="url(#linearGradient3052)" filter="url(#filter3070)" fill-rule="nonzero" stroke="none" stroke-linejoin="round" fill-opacity="1" stroke-linecap="round" stroke-width="0.137" stroke-dashoffset="0" stroke-miterlimit="4"/>
 <g id="g2973" transform="matrix(1.7352563,0,0,1.7352563,-7.1810884,-385.39368)">
  <path sodipodi:nodetypes="cccccssccccsscccc" inkscape:connector-curvature="0" id="rect899" d="m 62.935273,239.57266 -20.540348,2.48977 c -0.636672,0.11413 -1.130509,0.65793 -1.1405,1.28726 v 5.59966 c 0.170215,7.8013 0.07648,15.73293 0.07648,23.57789 0,0.6364 0.444259,1.14877 0.995804,1.14877 0.551542,0 0.995288,-0.51237 0.995288,-1.14877 V 250.6769 c -0.04666,-0.53688 0.207545,-0.80498 0.673569,-0.91108 l 17.131564,-2.12226 c 0.559395,-0.10636 0.965621,0.21016 0.881065,0.76785 v 21.74181 c 0,0.6364 0.443743,1.14877 0.995288,1.14877 0.551543,0 0.995805,-0.51237 0.995805,-1.14877 0.04172,-7.70691 0.104026,-16.54808 0.07648,-23.97011 v -5.59966 c -0.01,-0.6974 -0.533707,-1.02859 -1.140499,-1.01079 z" opacity="1" stroke-dasharray="none" stroke-opacity="1" fill="#006a08" fill-rule="nonzero" stroke="none" stroke-linejoin="round" fill-opacity="1" stroke-linecap="round" stroke-width="0.102" stroke-dashoffset="0" stroke-miterlimit="4"/>
  <rect ry="0.52" y="248.95" x="41.633" height="24.22" width="1.04" id="rect907" opacity="1" stroke-dasharray="none" stroke-opacity="1" fill="url(#radialGradient954)" fill-rule="nonzero" stroke="none" stroke-linejoin="round" fill-opacity="1" stroke-linecap="round" stroke-width="0.065" stroke-dashoffset="0" stroke-miterlimit="4" rx="0.52"/>
  <rect id="rect909" width="21.17" height="4.157" x="42.517" y="249.23" ry="1.225" transform="matrix(0.99273378,-0.12033137,0,1,0,0)" opacity="1" stroke-dasharray="none" stroke-opacity="1" fill="url(#linearGradient918)" fill-rule="nonzero" stroke="none" stroke-linejoin="round" fill-opacity="1" stroke-linecap="round" stroke-width="0.102" stroke-dashoffset="0" stroke-miterlimit="4" rx="1.225"/>
  <rect transform="matrix(0.99273378,-0.12033137,0,1,0,0)" ry="0.467" y="247.61" x="42.517" height="0.933" width="21.263" id="rect922" opacity="1" stroke-dasharray="none" stroke-opacity="1" fill="url(#linearGradient924)" fill-rule="nonzero" stroke="none" stroke-linejoin="round" fill-opacity="1" stroke-linecap="round" stroke-width="0.102" stroke-dashoffset="0" stroke-miterlimit="4" rx="0.467"/>
  <rect id="rect934" width="21.975" height="1.019" x="41.963" y="253.73" ry="0.467" transform="matrix(0.99273378,-0.12033137,0,1,0,0)" opacity="1" stroke-dasharray="none" stroke-opacity="1" fill="url(#radialGradient938)" fill-rule="nonzero" stroke="none" stroke-linejoin="round" fill-opacity="1" stroke-linecap="round" stroke-width="0.102" stroke-dashoffset="0" stroke-miterlimit="4" rx="0.467"/>
  <rect id="rect956" width="1.04" height="24.22" x="62.34" y="246.33" ry="0.52" opacity="1" stroke-dasharray="none" stroke-opacity="1" fill="url(#radialGradient958)" fill-rule="nonzero" stroke="none" stroke-linejoin="round" fill-opacity="1" stroke-linecap="round" stroke-width="0.065" stroke-dashoffset="0" stroke-miterlimit="4" rx="0.52"/>
  <ellipse transform="matrix(0.87058013,-0.49202666,0.48722526,0.87327633,0,0)" ry="4.4" rx="6.521" cy="256.58" cx="-100.79" id="path877" opacity="1" stroke-dasharray="none" stroke-opacity="1" fill="url(#radialGradient885)" fill-rule="nonzero" stroke="#008c07" stroke-linejoin="round" fill-opacity="1" stroke-linecap="round" stroke-width="0.102" stroke-dashoffset="0" stroke-miterlimit="4"/>
  <ellipse transform="matrix(0.91557625,-0.40214442,0.55415116,0.83241605,0,0)" ry="1.946" rx="3.329" cy="267.7" cx="-121.42" id="path889" opacity="1" stroke-dasharray="none" stroke-opacity="1" fill="url(#linearGradient897)" fill-rule="nonzero" stroke="none" stroke-linejoin="round" fill-opacity="1" stroke-linecap="round" stroke-width="0.078" stroke-dashoffset="0" stroke-miterlimit="4"/>
  <ellipse id="ellipse960" cx="-81.48" cy="264.57" rx="6.521" ry="4.4" transform="matrix(0.87058013,-0.49202666,0.48722526,0.87327633,0,0)" opacity="1" stroke-dasharray="none" stroke-opacity="1" fill="url(#radialGradient964)" fill-rule="nonzero" stroke="#008c07" stroke-linejoin="round" fill-opacity="1" stroke-linecap="round" stroke-width="0.102" stroke-dashoffset="0" stroke-miterlimit="4"/>
  <ellipse id="ellipse962" cx="-102.51" cy="273.81" rx="3.329" ry="1.946" transform="matrix(0.91557625,-0.40214442,0.55415116,0.83241605,0,0)" opacity="1" stroke-dasharray="none" stroke-opacity="1" fill="url(#linearGradient966)" fill-rule="nonzero" stroke="none" stroke-linejoin="round" fill-opacity="1" stroke-linecap="round" stroke-width="0.078" stroke-dashoffset="0" stroke-miterlimit="4"/>
 </g>
 <g id="g1476" transform="matrix(0.65629157,0,0,0.65629157,109.43027,86.537397)">
  <path transform="matrix(1.0687512,0,0,1.0687512,-2.0933382,-0.65369425)" inkscape:connector-curvature="0" id="path1197" d="m 146.46822,16.207343 c -0.46916,-0.01171 -0.94737,0.03103 -1.43555,0.126953 -6.96644,3.928847 -13.87705,7.924634 -18.58203,14.585938 -79.820044,-11.829512 -53.719944,55.600139 -85.363274,54.095699 21.40721,7.30238 35.39861,7.63415 45.195307,3.93555 -2.543087,6.54992 -5.928357,13.097167 -12.468747,19.871087 -10.71015,11.09258 -21.9842,26.69773 -22.29883,42.88086 -0.13539,6.96394 2.46218,21.169 7.52735,34.74219 0.21837,0.58517 0.44825,1.16586 0.67578,1.74805 -0.14802,-0.0799 -0.29529,-0.1519 -0.44336,-0.23242 4.43299,10.49491 8.27083,21.42338 18.74609,27.51367 2.31599,1.59241 4.77297,2.71306 7.367187,3.22265 0.44316,0.0871 0.88008,0.19412 1.3164,0.30664 6.2e-4,1.6e-4 0.001,-1.5e-4 0.002,0 8.2e-4,2.2e-4 0.001,0.002 0.002,0.002 2.08494,0.71325 4.04118,1.43848 5.82227,2.18164 0.004,0.002 0.008,0.002 0.0117,0.004 1.88963,0.88079 3.77854,1.86526 5.70507,2.87696 1.21764,0.77765 2.226817,1.57482 2.917967,2.4043 26.73959,13.16291 46.46363,-0.82622 66.72071,-12.75586 14.07981,-12.01892 27.49184,-24.60188 30.08593,-46.28711 -0.0423,0.0406 -0.0846,0.0786 -0.12695,0.11914 0.0412,-0.42343 0.10111,-0.84583 0.13086,-1.26953 0.85294,-12.14794 -2.98858,-24.40409 -10.26172,-36.34961 -8.22606,-13.51058 -16.71847,-24.80713 -18.08398,-39.478517 -1.19432,-12.831933 -7.99516,-26.960004 -24.89453,-38.812499 -2.83873,-1.990964 -5.34066,-2.579448 -7.46875,-2.392579 -2.12807,0.18687 -3.8808,1.149783 -5.22461,2.267579 -0.21889,0.182074 -0.42637,0.333499 -0.63672,0.49414 -5.62631,-18.333676 9.7468,-22.444438 23.51562,-27.642578 -2.35188,-5.356199 -5.16905,-8.076203 -8.45312,-8.158203 z M 122.4897,38.79914 c -1.38264,4.129392 -2.11518,9.043817 -1.97461,15.013672 -0.1522,-0.0085 -0.30319,-0.02066 -0.45898,-0.02344 -0.26319,-0.0047 -0.5314,-5e-5 -0.80664,0.01563 -2.10804,0.120053 -4.20309,0.349714 -6.25782,0.75 2.685,-5.617119 5.61177,-11.087673 9.49805,-15.755859 z" stroke-opacity="1" fill="#000000" filter="url(#filter1242)" stroke="none" stroke-linejoin="miter" fill-opacity="0.275" stroke-linecap="butt" stroke-width="0.949"/>
  <path sodipodi:nodetypes="scsssssssssss" inkscape:connector-curvature="0" id="path817" d="m 133.63979,45.88329 c -2.27438,0.199718 -4.14851,1.229477 -5.58471,2.424122 -6.06361,5.043764 -8.96603,2.17999 -13.67269,2.448034 -11.55289,0.65794 -22.767891,4.2222 -29.42817,21.269987 -4.945305,12.65812 -6.757287,24.713743 -19.131006,37.529287 -11.446479,11.85521 -23.495955,28.53338 -23.832215,45.82912 -0.30869,15.87779 12.674461,66.978 36.201439,71.59952 9.062895,1.78026 16.670766,8.79902 27.260352,11.3297 13.8661,3.31366 27.84455,1.24567 40.44989,-5.45262 57.02905,-30.30434 62.37997,-66.70194 41.65149,-100.7467 -8.79161,-14.43945 -17.86773,-26.51368 -19.32712,-42.193741 -1.27643,-13.714152 -8.54438,-28.81183 -26.6056,-41.479198 -3.0339,-2.127845 -5.70726,-2.757227 -7.98166,-2.557511 z" stroke-opacity="1" fill="url(#radialGradient853)" stroke="none" stroke-linejoin="miter" fill-opacity="1" stroke-linecap="butt" stroke-width="1.014"/>
  <ellipse stroke-miterlimit="4" transform="matrix(0.99518987,-0.09796492,0.10865667,0.99407934,0,0)" ry="5.705" rx="10.432" cy="67.755" cx="114.74" id="path825" opacity="1" stroke-dasharray="none" stroke-opacity="1" fill="url(#radialGradient833)" stroke="none" stroke-linejoin="round" fill-opacity="1" stroke-linecap="square" stroke-width="0.635" stroke-dashoffset="0"/>
  <path stroke-miterlimit="4" sodipodi:nodetypes="ccccc" inkscape:connector-curvature="0" id="path838" d="m 129.41459,54.209451 c -3.98802,5.100835 -8.51283,5.026594 -13.12895,4.072119 -3.67842,-30.634232 10.87476,-39.239746 25.65251,-47.573915 4.17392,-0.8201377 7.6972,2.040906 10.56985,8.583128 -15.97756,6.032007 -33.99914,10.679693 -23.09341,34.918668 z" stroke-dasharray="none" stroke-opacity="0.559" fill="url(#radialGradient860)" stroke="#ffffff" stroke-linejoin="miter" fill-opacity="1" stroke-linecap="butt" stroke-width="2.138"/>
  <path stroke-miterlimit="4" sodipodi:nodetypes="ccc" inkscape:connector-curvature="0" id="path840" d="M 30.847089,84.111845 C 65.217324,85.745927 35.842557,11.283115 126.34003,26.982099 94.230535,48.351491 110.44032,111.2625 30.847089,84.111845 Z" stroke-dasharray="none" stroke-opacity="0.653" fill="url(#linearGradient852)" stroke="#ffffff" stroke-linejoin="miter" fill-opacity="1" stroke-linecap="butt" stroke-width="2.472"/>
  <path stroke-miterlimit="4" d="m 133.63979,45.88329 c -2.27438,0.199718 -4.14851,1.229477 -5.58471,2.424122 -6.06361,5.043764 -8.96603,2.17999 -13.67269,2.448034 -11.55289,0.65794 -22.767891,4.2222 -29.42817,21.269987 -4.945305,12.65812 -6.757287,24.713743 -19.131006,37.529287 -11.446479,11.85521 -23.495955,28.53338 -23.832215,45.82912 -0.30869,15.87779 12.674461,66.978 36.201439,71.59952 9.062895,1.78026 16.670766,8.79902 27.260352,11.3297 13.8661,3.31366 27.84455,1.24567 40.44989,-5.45262 57.02905,-30.30434 62.37997,-66.70194 41.65149,-100.7467 -8.79161,-14.43945 -17.86773,-26.51368 -19.32712,-42.193741 -1.27643,-13.714152 -8.54438,-28.81183 -26.6056,-41.479198 -3.0339,-2.127845 -5.70726,-2.757227 -7.98166,-2.557511 z" id="path1147" inkscape:connector-curvature="0" sodipodi:nodetypes="scsssssssssss" stroke-dasharray="none" stroke-opacity="0.631" fill="none" stroke="url(#linearGradient1161)" stroke-linejoin="miter" fill-opacity="1" stroke-linecap="butt" stroke-width="4.489"/>
  <path d="m 133.63979,45.88329 c -2.27438,0.199718 -4.14851,1.229477 -5.58471,2.424122 -6.06361,5.043764 -8.96603,2.17999 -13.67269,2.448034 -11.55289,0.65794 -22.767891,4.2222 -29.42817,21.269987 -4.945305,12.65812 -6.757287,24.713743 -19.131006,37.529287 27.041243,64.23283 72.347506,-19.609371 121.730956,22.55902 -8.79161,-14.43945 -17.86773,-26.51368 -19.32712,-42.193741 -1.27643,-13.714152 -8.54438,-28.81183 -26.6056,-41.479198 -3.0339,-2.127845 -5.70726,-2.757227 -7.98166,-2.557511 z" id="path1163" inkscape:connector-curvature="0" sodipodi:nodetypes="scssccsss" stroke-opacity="1" fill="url(#linearGradient1167)" stroke="none" stroke-linejoin="miter" fill-opacity="1" stroke-linecap="butt" stroke-width="1.014"/>
  <path d="m 41.701551,153.93662 c -0.30869,15.87779 12.67446,66.978 36.20144,71.59952 9.0629,1.78026 16.67077,8.79902 27.260349,11.3297 13.8661,3.31366 27.84455,1.24566 40.44989,-5.45262 22.68358,-12.0537 37.19123,-25.07141 45.13381,-38.52163 -46.26559,19.10826 -103.889089,29.67103 -149.045489,-38.95497 z" id="path1175" inkscape:connector-curvature="0" sodipodi:nodetypes="cssscc" stroke-opacity="1" fill="url(#radialGradient1177)" stroke="none" stroke-linejoin="miter" fill-opacity="1" stroke-linecap="butt" stroke-width="1.014"/>
 </g>
</svg>
