<?xml version="1.0" encoding="UTF-8" standalone="no"?>
<!-- Created with Inkscape (http://www.inkscape.org/) -->

<svg
   xmlns:dc="http://purl.org/dc/elements/1.1/"
   xmlns:cc="http://creativecommons.org/ns#"
   xmlns:rdf="http://www.w3.org/1999/02/22-rdf-syntax-ns#"
   xmlns:svg="http://www.w3.org/2000/svg"
   xmlns="http://www.w3.org/2000/svg"
   xmlns:xlink="http://www.w3.org/1999/xlink"
   xmlns:sodipodi="http://sodipodi.sourceforge.net/DTD/sodipodi-0.dtd"
   xmlns:inkscape="http://www.inkscape.org/namespaces/inkscape"
   version="1.1"
   id="svg2"
   width="255"
   height="255"
   viewBox="0 0 255 255"
   sodipodi:docname="imagemagick.svg"
   inkscape:version="0.92.5 (2060ec1f9f, 2020-04-08)">
  <metadata
     id="metadata8">
    <rdf:RDF>
      <cc:Work
         rdf:about="">
        <dc:format>image/svg+xml</dc:format>
        <dc:type
           rdf:resource="http://purl.org/dc/dcmitype/StillImage" />
        <dc:title />
      </cc:Work>
    </rdf:RDF>
  </metadata>
  <defs
     id="defs6">
    <linearGradient
       inkscape:collect="always"
       id="linearGradient964">
      <stop
         style="stop-color:#272500;stop-opacity:1"
         offset="0"
         id="stop960" />
      <stop
         style="stop-color:#fff552;stop-opacity:1"
         offset="1"
         id="stop962" />
    </linearGradient>
    <linearGradient
       id="linearGradient912"
       inkscape:collect="always">
      <stop
         id="stop908"
         offset="0"
         style="stop-color:#010000;stop-opacity:1;" />
      <stop
         id="stop910"
         offset="1"
         style="stop-color:#8d0303;stop-opacity:1" />
    </linearGradient>
    <linearGradient
       id="linearGradient901"
       inkscape:collect="always">
      <stop
         id="stop897"
         offset="0"
         style="stop-color:#ffffff;stop-opacity:0.34156379" />
      <stop
         id="stop899"
         offset="1"
         style="stop-color:#ffffff;stop-opacity:0;" />
    </linearGradient>
    <linearGradient
       inkscape:collect="always"
       id="linearGradient889">
      <stop
         style="stop-color:#ffffff;stop-opacity:0.58847737"
         offset="0"
         id="stop885" />
      <stop
         style="stop-color:#ffffff;stop-opacity:0;"
         offset="1"
         id="stop887" />
    </linearGradient>
    <linearGradient
       id="linearGradient1022"
       inkscape:collect="always">
      <stop
         id="stop1018"
         offset="0"
         style="stop-color:#272500;stop-opacity:1" />
      <stop
         id="stop1020"
         offset="1"
         style="stop-color:#ff586b;stop-opacity:1" />
    </linearGradient>
    <linearGradient
       inkscape:collect="always"
       id="linearGradient1010">
      <stop
         style="stop-color:#000000;stop-opacity:1;"
         offset="0"
         id="stop1006" />
      <stop
         style="stop-color:#ffffff;stop-opacity:1"
         offset="1"
         id="stop1008" />
    </linearGradient>
    <linearGradient
       inkscape:collect="always"
       id="linearGradient971">
      <stop
         style="stop-color:#f4f4f4;stop-opacity:0.48148149"
         offset="0"
         id="stop967" />
      <stop
         id="stop975"
         offset="0.36752388"
         style="stop-color:#ffffff;stop-opacity:0.25102881" />
      <stop
         style="stop-color:#000000;stop-opacity:0"
         offset="1"
         id="stop969" />
    </linearGradient>
    <linearGradient
       inkscape:collect="always"
       id="linearGradient961">
      <stop
         style="stop-color:#535353;stop-opacity:1"
         offset="0"
         id="stop957" />
      <stop
         style="stop-color:#010000;stop-opacity:1"
         offset="1"
         id="stop959" />
    </linearGradient>
    <linearGradient
       inkscape:collect="always"
       id="linearGradient953">
      <stop
         style="stop-color:#ffffff;stop-opacity:0.62551439"
         offset="0"
         id="stop949" />
      <stop
         style="stop-color:#000000;stop-opacity:0"
         offset="1"
         id="stop951" />
    </linearGradient>
    <linearGradient
       inkscape:collect="always"
       id="linearGradient943">
      <stop
         style="stop-color:#ffffff;stop-opacity:0.64197528"
         offset="0"
         id="stop939" />
      <stop
         style="stop-color:#010000;stop-opacity:0"
         offset="1"
         id="stop941" />
    </linearGradient>
    <linearGradient
       inkscape:collect="always"
       id="linearGradient918">
      <stop
         style="stop-color:#ffffff;stop-opacity:0.76543212"
         offset="0"
         id="stop914" />
      <stop
         id="stop922"
         offset="0.32986286"
         style="stop-color:#ffffff;stop-opacity:0.33333334" />
      <stop
         style="stop-color:#000000;stop-opacity:0"
         offset="1"
         id="stop916" />
    </linearGradient>
    <linearGradient
       inkscape:collect="always"
       id="linearGradient896">
      <stop
         style="stop-color:#484848;stop-opacity:1"
         offset="0"
         id="stop892" />
      <stop
         style="stop-color:#010000;stop-opacity:1"
         offset="1"
         id="stop894" />
    </linearGradient>
    <linearGradient
       inkscape:collect="always"
       id="linearGradient886">
      <stop
         style="stop-color:#010000;stop-opacity:1;"
         offset="0"
         id="stop882" />
      <stop
         style="stop-color:#b20000;stop-opacity:1"
         offset="1"
         id="stop884" />
    </linearGradient>
    <linearGradient
       inkscape:collect="always"
       id="linearGradient830">
      <stop
         style="stop-color:#b9b9b9;stop-opacity:1"
         offset="0"
         id="stop826" />
      <stop
         id="stop834"
         offset="0.56047398"
         style="stop-color:#000000;stop-opacity:1" />
      <stop
         style="stop-color:#000000;stop-opacity:1"
         offset="1"
         id="stop828" />
    </linearGradient>
    <linearGradient
       inkscape:collect="always"
       xlink:href="#linearGradient830"
       id="linearGradient840"
       gradientUnits="userSpaceOnUse"
       gradientTransform="translate(-268.97435,33.322134)"
       x1="30.363245"
       y1="104.23956"
       x2="117.90285"
       y2="44.067928"
       spreadMethod="reflect" />
    <clipPath
       clipPathUnits="userSpaceOnUse"
       id="clipPath852">
      <path
         sodipodi:nodetypes="ssssss"
         inkscape:connector-curvature="0"
         id="path854"
         d="m -216.71373,60.651077 c -50.737,22.734828 -35.89824,71.632523 17.50011,81.747113 14.48209,2.74316 33.40334,5.49794 52.02088,-2.87673 23.09376,-10.3882 54.295462,-29.96244 69.281282,-31.16459 26.90134,-2.158 40.89847,-14.341365 12.94528,-33.322135 C -115.38363,40.800282 -176.75163,42.744395 -216.71373,60.651077 Z"
         style="fill:none;stroke:#000000;stroke-width:1px;stroke-linecap:butt;stroke-linejoin:miter;stroke-opacity:1" />
    </clipPath>
    <filter
       inkscape:collect="always"
       style="color-interpolation-filters:sRGB"
       id="filter861"
       x="-0.026817335"
       width="1.0536346"
       y="-0.054745793"
       height="1.1094916">
      <feGaussianBlur
         inkscape:collect="always"
         stdDeviation="2.2154169"
         id="feGaussianBlur863" />
    </filter>
    <linearGradient
       inkscape:collect="always"
       xlink:href="#linearGradient886"
       id="linearGradient888"
       x1="-16.261753"
       y1="121.90148"
       x2="34.001595"
       y2="143.95642"
       gradientUnits="userSpaceOnUse"
       spreadMethod="reflect"
       gradientTransform="matrix(1.2138358,0,0,1.2810729,91.094467,-67.121812)" />
    <linearGradient
       inkscape:collect="always"
       xlink:href="#linearGradient896"
       id="linearGradient898"
       x1="109.44881"
       y1="139.79619"
       x2="156.60327"
       y2="143.15237"
       gradientUnits="userSpaceOnUse"
       spreadMethod="reflect"
       gradientTransform="matrix(1.1903488,0,0,1.307667,-18.887994,-29.262186)" />
    <linearGradient
       inkscape:collect="always"
       xlink:href="#linearGradient918"
       id="linearGradient920"
       x1="134.29256"
       y1="137.3391"
       x2="111.7506"
       y2="137.09927"
       gradientUnits="userSpaceOnUse"
       spreadMethod="reflect"
       gradientTransform="translate(0,43.800003)" />
    <filter
       inkscape:collect="always"
       style="color-interpolation-filters:sRGB"
       id="filter932"
       x="-0.046593744"
       width="1.0931875"
       y="-0.016162602"
       height="1.0323251">
      <feGaussianBlur
         inkscape:collect="always"
         stdDeviation="0.5959233"
         id="feGaussianBlur934" />
    </filter>
    <linearGradient
       inkscape:collect="always"
       xlink:href="#linearGradient943"
       id="linearGradient945"
       x1="160.814"
       y1="118.99377"
       x2="153.81427"
       y2="120.1928"
       gradientUnits="userSpaceOnUse"
       spreadMethod="reflect"
       gradientTransform="matrix(1.1903488,0,0,1.1903488,5.9382769,-3.876842)" />
    <linearGradient
       inkscape:collect="always"
       xlink:href="#linearGradient953"
       id="linearGradient955"
       x1="90.962608"
       y1="177.81773"
       x2="117.44055"
       y2="176.57935"
       gradientUnits="userSpaceOnUse"
       spreadMethod="reflect"
       gradientTransform="matrix(1.1903488,0,0,1.1903488,5.9382769,-3.876842)" />
    <linearGradient
       inkscape:collect="always"
       xlink:href="#linearGradient961"
       id="linearGradient963"
       x1="85.582649"
       y1="54.185791"
       x2="133.88834"
       y2="58.267426"
       gradientUnits="userSpaceOnUse"
       spreadMethod="reflect"
       gradientTransform="matrix(1.1903488,0,0,1.1903488,-11.345614,-5.3251334)" />
    <linearGradient
       inkscape:collect="always"
       xlink:href="#linearGradient971"
       id="linearGradient973"
       x1="54.045609"
       y1="143.35992"
       x2="65.313393"
       y2="144.35742"
       gradientUnits="userSpaceOnUse"
       spreadMethod="reflect"
       gradientTransform="matrix(1.1903488,0,0,1.1903488,5.9382769,-3.876842)" />
    <linearGradient
       inkscape:collect="always"
       xlink:href="#linearGradient1010"
       id="linearGradient1012"
       x1="59.837555"
       y1="294.76544"
       x2="59.837555"
       y2="287.94849"
       gradientUnits="userSpaceOnUse"
       spreadMethod="reflect" />
    <linearGradient
       inkscape:collect="always"
       xlink:href="#linearGradient964"
       id="linearGradient1016"
       gradientUnits="userSpaceOnUse"
       x1="59.837555"
       y1="294.76544"
       x2="59.837555"
       y2="287.94849"
       spreadMethod="reflect"
       gradientTransform="matrix(0.24705888,0,0,1,196.14947,0)" />
    <linearGradient
       inkscape:collect="always"
       xlink:href="#linearGradient1022"
       id="linearGradient1026"
       gradientUnits="userSpaceOnUse"
       gradientTransform="matrix(0.24705888,0,0,1,-67.059914,0)"
       x1="59.837555"
       y1="294.76544"
       x2="59.837555"
       y2="287.94849"
       spreadMethod="reflect" />
    <radialGradient
       inkscape:collect="always"
       xlink:href="#linearGradient889"
       id="radialGradient891"
       cx="158.56252"
       cy="110.16546"
       fx="158.56252"
       fy="110.16546"
       r="35.669064"
       gradientTransform="matrix(0.99188541,-0.39762039,0.20479276,0.51086654,-21.274419,113.62303)"
       gradientUnits="userSpaceOnUse" />
    <radialGradient
       inkscape:collect="always"
       xlink:href="#linearGradient901"
       id="radialGradient895"
       gradientUnits="userSpaceOnUse"
       gradientTransform="matrix(-0.99188541,0.39762039,-0.20479276,-0.51086654,270.38015,17.595867)"
       cx="153.53212"
       cy="111.91591"
       fx="153.53212"
       fy="111.91591"
       r="35.669064" />
    <linearGradient
       inkscape:collect="always"
       xlink:href="#linearGradient912"
       id="linearGradient906"
       gradientUnits="userSpaceOnUse"
       gradientTransform="matrix(1.137928,0,0,0.77749089,93.440963,-18.595696)"
       x1="6.596952"
       y1="142.34666"
       x2="34.001595"
       y2="143.95642"
       spreadMethod="reflect" />
    <filter
       inkscape:collect="always"
       style="color-interpolation-filters:sRGB"
       id="filter941"
       x="-0.050866874"
       width="1.1017337"
       y="-0.13049303"
       height="1.2609861">
      <feGaussianBlur
         inkscape:collect="always"
         stdDeviation="3.0811703"
         id="feGaussianBlur943" />
    </filter>
  </defs>
  <sodipodi:namedview
     pagecolor="#ff0000"
     bordercolor="#666666"
     borderopacity="1"
     objecttolerance="10"
     gridtolerance="10"
     guidetolerance="10"
     inkscape:pageopacity="0"
     inkscape:pageshadow="2"
     inkscape:window-width="640"
     inkscape:window-height="480"
     id="namedview4"
     showgrid="false"
     inkscape:snap-to-guides="false"
     inkscape:snap-grids="false"
     inkscape:snap-others="false"
     inkscape:object-nodes="false"
     inkscape:snap-nodes="false"
     inkscape:snap-global="false"
     inkscape:zoom="3.46"
     inkscape:cx="127.5"
     inkscape:cy="127.5"
     inkscape:current-layer="svg2" />
  <path
     style="opacity:1;fill:#000000;fill-opacity:0.82716048;stroke:none;stroke-width:0.40000001;stroke-linecap:round;stroke-linejoin:round;stroke-miterlimit:4;stroke-dasharray:none;stroke-dashoffset:0;stroke-opacity:1;filter:url(#filter941)"
     d="m 62.427743,197.34104 c 0,15.56293 27.176839,35.69365 72.109837,35.69365 44.93299,0 73.26589,-31.98042 73.26589,-47.54336 0,-15.56294 -30.64505,-6.50289 -75.57804,-6.50289 -44.932991,0 -69.797687,2.78966 -69.797687,18.3526 z"
     id="path894"
     inkscape:connector-curvature="0"
     sodipodi:nodetypes="sssss" />
  <path
     style="opacity:1;fill:url(#linearGradient888);fill-opacity:1;stroke:#3d3d3d;stroke-width:0.5215286;stroke-linecap:round;stroke-linejoin:round;stroke-miterlimit:4;stroke-dasharray:none;stroke-dashoffset:0;stroke-opacity:1"
     d="m 137.36183,38.842305 h 2e-5 c 36.42698,0 69.36641,16.650053 63.49821,36.244125 l -2.8231,9.426408 c -5.86821,19.594072 -24.24813,54.730592 -60.67511,54.730592 h -2e-5 c -36.42697,0 -68.765922,-0.93452 -67.78166,-21.36476 L 71.609173,75.762762 C 72.593433,55.332525 100.93486,38.842305 137.36183,38.842305 Z"
     id="rect878"
     inkscape:connector-curvature="0"
     sodipodi:nodetypes="sssssssss" />
  <path
     style="fill:url(#linearGradient963);fill-opacity:1;stroke:#3d3d3d;stroke-width:0.47613952;stroke-linecap:butt;stroke-linejoin:miter;stroke-miterlimit:4;stroke-dasharray:none;stroke-opacity:1"
     d="M 74.262216,78.855896 C 40.19535,39.629491 203.79515,19.126302 196.11069,59.451459 186.99921,42.467796 66.465202,46.472096 74.262216,78.855896 Z"
     id="path876"
     inkscape:connector-curvature="0"
     sodipodi:nodetypes="ccc" />
  <path
     sodipodi:nodetypes="sccssss"
     inkscape:connector-curvature="0"
     id="path904"
     d="m 129.30052,51.494916 c 21.43053,-1.035864 74.65362,-4.323962 67.61981,15.638398 -14.02973,25.858605 -41.15088,39.077056 -60.10534,39.515306 h -2e-5 c -34.14899,0 -62.804185,-0.55484 -63.542899,-12.9664 L 72.284017,77.081357 C 71.545302,64.669801 98.220163,52.997213 129.30052,51.494916 Z"
     style="opacity:1;fill:url(#linearGradient906);fill-opacity:1;stroke:#3d3d3d;stroke-width:0.39338362;stroke-linecap:round;stroke-linejoin:round;stroke-miterlimit:4;stroke-dasharray:none;stroke-dashoffset:0;stroke-opacity:1" />
  <path
     style="fill:url(#linearGradient898);fill-opacity:1;stroke:none;stroke-width:1.24762964px;stroke-linecap:butt;stroke-linejoin:miter;stroke-opacity:1"
     d="m 68.146635,114.31341 c 2.004046,22.34182 -3.78213,40.96127 -7.990065,60.18889 -3.161827,14.44759 1.914904,20.93317 6.563268,27.27311 30.362878,41.41216 104.816992,19.91166 131.836062,-5.32923 7.64054,-7.13771 13.56429,-15.03158 9.70221,-27.90006 -7.75795,-25.8496 -11.00194,-53.03359 -14.26797,-80.251865 C 200.6902,123.93937 78.584554,155.24797 68.146635,114.31341 Z"
     id="path890"
     inkscape:connector-curvature="0"
     sodipodi:nodetypes="csssscc" />
  <g
     id="g874"
     transform="matrix(1.1903488,0,0,1.1903488,-83.848405,-77.235711)">
    <g
       transform="translate(49.383882,20.616572)"
       id="g859">
      <path
         style="fill:#e5e5e5;fill-opacity:1;stroke:#3e3e3e;stroke-width:0.40000001;stroke-linecap:butt;stroke-linejoin:miter;stroke-miterlimit:4;stroke-dasharray:none;stroke-opacity:1"
         d="m 124.12273,55.438803 c -22.96832,0.03061 -44.549777,4.810358 -62.033195,12.644531 -50.737,22.734825 -35.898347,71.631506 17.5,81.746096 14.482092,2.74316 33.403935,5.49772 52.021475,-2.87695 23.09376,-10.3882 54.29543,-29.96192 69.28125,-31.16407 26.90134,-2.158 40.89851,-14.34149 12.94532,-33.322263 -28.35982,-19.256878 -60.18414,-27.0667 -89.71485,-27.027344 z m 34.81641,21.513672 c 15.76652,-0.296015 39.04389,13.206215 19.6582,23.972655 -13.42159,7.45409 -51.2828,17.97702 -64.96679,18.69922 C 84.487109,121.16246 63.476906,97.528999 95.890316,85.583334 115.13352,78.491429 138.53023,77.33565 158.93914,76.952475 Z"
         id="path821"
         inkscape:connector-curvature="0" />
      <path
         inkscape:connector-curvature="0"
         id="path838"
         d="m -155.39963,48.726431 c -22.96832,0.03061 -44.54978,4.810358 -62.0332,12.644531 -50.737,22.734825 -35.89834,71.631518 17.5,81.746108 14.48209,2.74316 33.40394,5.49772 52.02148,-2.87695 23.09377,-10.3882 54.295433,-29.96192 69.281253,-31.16407 26.90134,-2.158 40.89851,-14.341501 12.94532,-33.322275 -28.35982,-19.256878 -60.184133,-27.0667 -89.714853,-27.027344 z m 34.81642,21.513672 c 15.76651,-0.296015 39.043883,13.206215 19.65819,23.972656 -13.42159,7.454091 -51.2828,17.977031 -64.96679,18.699231 -29.14344,1.53811 -50.15365,-22.095361 -17.74024,-34.041028 19.24321,-7.091905 42.63992,-8.247684 63.04884,-8.630859 z"
         style="fill:url(#linearGradient840);fill-opacity:1;stroke:#3e3e3e;stroke-width:0.40000001;stroke-linecap:butt;stroke-linejoin:miter;stroke-miterlimit:4;stroke-dasharray:none;stroke-opacity:1;filter:url(#filter861)"
         clip-path="url(#clipPath852)"
         transform="translate(279.52235,6.712372)" />
      <path
         style="fill:none;stroke:#646464;stroke-width:1px;stroke-linecap:butt;stroke-linejoin:miter;stroke-opacity:1"
         d="m 62.80862,68.322359 c -50.737001,22.734828 -35.898234,71.632521 17.500113,81.747111 14.482092,2.74316 33.403337,5.49794 52.020877,-2.87673 23.09376,-10.3882 54.29546,-29.96244 69.28128,-31.16459 26.90134,-2.158 40.89847,-14.34136 12.94528,-33.322133 C 164.13872,48.471564 102.77072,50.415677 62.80862,68.322359 Z"
         id="path817"
         inkscape:connector-curvature="0"
         sodipodi:nodetypes="ssssss" />
    </g>
    <g
       style="stroke:#000000;stroke-opacity:1"
       transform="translate(0.23972758,1.4383655)"
       id="g866">
      <path
         style="fill:none;stroke:#000000;stroke-width:0.30000001;stroke-linecap:butt;stroke-linejoin:miter;stroke-miterlimit:4;stroke-dasharray:none;stroke-opacity:1"
         d="m 144.316,105.00068 c -32.41341,11.94566 -11.4036,35.57943 17.73985,34.04132 13.68399,-0.72221 51.54458,-11.24466 64.96617,-18.69876 19.38569,-10.76644 -3.89114,-24.268768 -19.65766,-23.972753 -20.40891,0.383175 -43.80515,1.538287 -63.04836,8.630193 z"
         id="path819"
         inkscape:connector-curvature="0"
         sodipodi:nodetypes="sssss" />
    </g>
  </g>
  <path
     style="fill:url(#linearGradient920);fill-opacity:1;stroke:none;stroke-width:1px;stroke-linecap:butt;stroke-linejoin:miter;stroke-opacity:1;filter:url(#filter932)"
     d="m 112.48199,156.42987 c 8.78526,-0.99768 27.90308,-8.35829 36.67568,-16.79255 l 7.67687,75.55453 c -9.91207,6.18026 -34.45245,18.11452 -44.36452,19.18465 z"
     id="path912"
     inkscape:connector-curvature="0"
     sodipodi:nodetypes="ccccc"
     transform="matrix(1.1903488,0,0,1.1903488,5.9382769,-56.014123)" />
  <path
     style="opacity:1;fill:url(#linearGradient945);fill-opacity:1;stroke:none;stroke-width:0.38712394;stroke-linecap:round;stroke-linejoin:round;stroke-miterlimit:4;stroke-dasharray:none;stroke-dashoffset:0;stroke-opacity:1"
     d="m 185.6558,108.97862 c 2.44099,-3.53786 5.28285,-6.27399 7.02661,-11.206305 5.05594,26.558015 9.16187,54.382725 16.34817,78.100265 -2.21559,7.34186 -7.0256,15.29556 -9.92032,19.2418 z"
     id="rect936"
     inkscape:connector-curvature="0"
     sodipodi:nodetypes="ccccc" />
  <path
     style="fill:url(#linearGradient955);fill-opacity:1;stroke:none;stroke-width:1.19034874px;stroke-linecap:butt;stroke-linejoin:miter;stroke-opacity:1"
     d="m 59.304682,181.83557 c 1.986433,5.40137 3.901391,10.84178 7.721039,15.4491 12.431981,14.99568 27.718211,24.37751 55.378339,25.08738 16.08614,0.41284 31.95146,-5.03541 47.10013,-11.22291 13.51161,-5.51882 24.98963,-12.75782 33.97272,-22.46437 4.85098,-5.24165 4.88245,-12.34806 5.42012,-18.51835 1.18872,6.93518 0.27622,13.70514 -4.56728,19.69642 -9.42218,11.65498 -21.00248,18.89734 -33.39829,23.97824 -15.45183,6.33353 -31.26623,11.60056 -47.38558,11.41822 -24.296669,-0.27484 -44.515055,-7.03977 -57.875193,-25.96269 -5.76903,-8.1711 -4.619865,-10.66071 -6.366005,-17.46104 z"
     id="path947"
     inkscape:connector-curvature="0"
     sodipodi:nodetypes="csssscssssc" />
  <path
     style="fill:url(#linearGradient973);fill-opacity:1;stroke:none;stroke-width:1.19034874px;stroke-linecap:butt;stroke-linejoin:miter;stroke-opacity:1"
     d="m 68.978046,126.01005 c -1.092943,20.94107 -7.881314,38.04607 -9.393064,56.14274 1.972759,7.76171 3.617727,11.94237 11.322737,20.89648 2.106441,2.44793 3.950911,3.76228 7.690432,5.86267 l 9.241676,-77.29864 z"
     id="path965"
     inkscape:connector-curvature="0"
     sodipodi:nodetypes="ccsccc" />
  <path
     style="fill:url(#radialGradient891);stroke:none;stroke-width:1px;stroke-linecap:butt;stroke-linejoin:miter;stroke-opacity:1;fill-opacity:1"
     d="M 129.38138,122.43473 191.32236,91.464246 C 212.85714,68.600687 93.493769,97.665314 129.38138,122.43473 Z"
     id="path883"
     inkscape:connector-curvature="0"
     sodipodi:nodetypes="ccc" />
  <g
     id="g1031"
     transform="matrix(0.50690298,-0.64619134,0.64619134,0.50690298,-119.49077,39.76591)">
    <rect
       rx="4.9233408"
       ry="7.9530897"
       y="283.40387"
       x="-73.471397"
       height="15.906179"
       width="257.52863"
       id="rect1004"
       style="opacity:1;fill:url(#linearGradient1012);fill-opacity:1;stroke:none;stroke-width:0.40000001;stroke-linecap:round;stroke-linejoin:round;stroke-miterlimit:4;stroke-dasharray:none;stroke-dashoffset:0;stroke-opacity:1" />
    <rect
       style="opacity:1;fill:url(#linearGradient1016);fill-opacity:1;stroke:none;stroke-width:0.19882007;stroke-linecap:round;stroke-linejoin:round;stroke-miterlimit:4;stroke-dasharray:none;stroke-dashoffset:0;stroke-opacity:1"
       id="rect1014"
       width="63.624733"
       height="15.906179"
       x="177.99771"
       y="283.40387"
       ry="7.9530897"
       rx="4.2461028" />
    <rect
       rx="4.2461028"
       ry="7.9530897"
       y="283.40387"
       x="-85.21167"
       height="15.906179"
       width="63.624733"
       id="rect1024"
       style="opacity:1;fill:url(#linearGradient1026);fill-opacity:1;stroke:none;stroke-width:0.19882007;stroke-linecap:round;stroke-linejoin:round;stroke-miterlimit:4;stroke-dasharray:none;stroke-dashoffset:0;stroke-opacity:1" />
  </g>
  <path
     sodipodi:nodetypes="ccc"
     inkscape:connector-curvature="0"
     id="path893"
     d="M 122.61879,14.283599 C 96.372153,14.278271 74.950164,19.428632 54.020601,27.019122 32.485821,49.882682 158.5064,39.053012 122.61879,14.283599 Z"
     style="fill:url(#radialGradient895);fill-opacity:1;stroke:none;stroke-width:1px;stroke-linecap:butt;stroke-linejoin:miter;stroke-opacity:1" />
</svg>
