<?xml version="1.0" encoding="UTF-8" standalone="no"?>
<!-- Created with Inkscape (http://www.inkscape.org/) -->

<svg
   xmlns:dc="http://purl.org/dc/elements/1.1/"
   xmlns:cc="http://creativecommons.org/ns#"
   xmlns:rdf="http://www.w3.org/1999/02/22-rdf-syntax-ns#"
   xmlns:svg="http://www.w3.org/2000/svg"
   xmlns="http://www.w3.org/2000/svg"
   xmlns:xlink="http://www.w3.org/1999/xlink"
   xmlns:sodipodi="http://sodipodi.sourceforge.net/DTD/sodipodi-0.dtd"
   xmlns:inkscape="http://www.inkscape.org/namespaces/inkscape"
   version="1.1"
   id="svg2"
   width="255"
   height="255"
   viewBox="0 0 255 255"
   sodipodi:docname="Javert.svg"
   inkscape:version="0.92.5 (2060ec1f9f, 2020-04-08)">
  <metadata
     id="metadata8">
    <rdf:RDF>
      <cc:Work
         rdf:about="">
        <dc:format>image/svg+xml</dc:format>
        <dc:type
           rdf:resource="http://purl.org/dc/dcmitype/StillImage" />
        <dc:title />
      </cc:Work>
    </rdf:RDF>
  </metadata>
  <defs
     id="defs6">
    <linearGradient
       inkscape:collect="always"
       id="linearGradient1085">
      <stop
         style="stop-color:#000000;stop-opacity:1"
         offset="0"
         id="stop1081" />
      <stop
         id="stop1089"
         offset="0.35478732"
         style="stop-color:#020202;stop-opacity:1" />
      <stop
         style="stop-color:#900000;stop-opacity:1"
         offset="1"
         id="stop1083" />
    </linearGradient>
    <linearGradient
       inkscape:collect="always"
       id="linearGradient1075">
      <stop
         style="stop-color:#ffffff;stop-opacity:0.64864862"
         offset="0"
         id="stop1071" />
      <stop
         style="stop-color:#ffffff;stop-opacity:0.31981981"
         offset="1"
         id="stop1073" />
    </linearGradient>
    <linearGradient
       inkscape:collect="always"
       id="linearGradient1047">
      <stop
         style="stop-color:#430000;stop-opacity:1"
         offset="0"
         id="stop1043" />
      <stop
         id="stop1051"
         offset="0.45429578"
         style="stop-color:#581414;stop-opacity:1" />
      <stop
         style="stop-color:#f66161;stop-opacity:1"
         offset="1"
         id="stop1045" />
    </linearGradient>
    <linearGradient
       inkscape:collect="always"
       id="linearGradient1037">
      <stop
         style="stop-color:#522906;stop-opacity:1"
         offset="0"
         id="stop1033" />
      <stop
         style="stop-color:#000000;stop-opacity:1"
         offset="1"
         id="stop1035" />
    </linearGradient>
    <linearGradient
       inkscape:collect="always"
       id="linearGradient1025">
      <stop
         style="stop-color:#302216;stop-opacity:1"
         offset="0"
         id="stop1021" />
      <stop
         id="stop1029"
         offset="0.64923155"
         style="stop-color:#362618;stop-opacity:0.98198199" />
      <stop
         style="stop-color:#674d39;stop-opacity:1"
         offset="1"
         id="stop1023" />
    </linearGradient>
    <linearGradient
       inkscape:collect="always"
       id="linearGradient977">
      <stop
         style="stop-color:#250000;stop-opacity:1"
         offset="0"
         id="stop973" />
      <stop
         id="stop1061"
         offset="0.46423343"
         style="stop-color:#390808;stop-opacity:1" />
      <stop
         style="stop-color:#c20000;stop-opacity:1"
         offset="1"
         id="stop975" />
    </linearGradient>
    <linearGradient
       inkscape:collect="always"
       id="linearGradient867">
      <stop
         style="stop-color:#000000;stop-opacity:1;"
         offset="0"
         id="stop863" />
      <stop
         id="stop873"
         offset="0.46741998"
         style="stop-color:#000000;stop-opacity:1" />
      <stop
         id="stop871"
         offset="0.83006555"
         style="stop-color:#2e1b08;stop-opacity:1" />
      <stop
         style="stop-color:#000000;stop-opacity:1"
         offset="1"
         id="stop865" />
    </linearGradient>
    <linearGradient
       inkscape:collect="always"
       id="linearGradient855">
      <stop
         style="stop-color:#100900;stop-opacity:1"
         offset="0"
         id="stop851" />
      <stop
         id="stop861"
         offset="0.43364602"
         style="stop-color:#000000;stop-opacity:1" />
      <stop
         id="stop859"
         offset="0.76550293"
         style="stop-color:#301508;stop-opacity:1" />
      <stop
         style="stop-color:#000000;stop-opacity:1"
         offset="1"
         id="stop853" />
    </linearGradient>
    <radialGradient
       inkscape:collect="always"
       xlink:href="#linearGradient855"
       id="radialGradient857"
       cx="1615.6251"
       cy="2372.3501"
       fx="1615.6251"
       fy="2372.3501"
       r="1152.9918"
       gradientTransform="matrix(0.06686107,-0.00450454,0.00147037,0.02182474,65.828017,112.54011)"
       gradientUnits="userSpaceOnUse" />
    <radialGradient
       inkscape:collect="always"
       xlink:href="#linearGradient867"
       id="radialGradient869"
       cx="540.60291"
       cy="3059.5405"
       fx="540.60291"
       fy="3059.5405"
       r="1882.9521"
       gradientTransform="matrix(-0.05363296,-0.00716245,0.00284583,-0.02130978,140.71134,257.22247)"
       gradientUnits="userSpaceOnUse" />
    <filter
       inkscape:collect="always"
       style="color-interpolation-filters:sRGB"
       id="filter949"
       x="-0.12307426"
       width="1.2461485"
       y="-0.11707558"
       height="1.2341512">
      <feGaussianBlur
         inkscape:collect="always"
         stdDeviation="74.278767"
         id="feGaussianBlur951" />
    </filter>
    <filter
       inkscape:collect="always"
       style="color-interpolation-filters:sRGB"
       id="filter969"
       x="-0.24510302"
       width="1.490206"
       y="-0.079448625"
       height="1.1588973">
      <feGaussianBlur
         inkscape:collect="always"
         stdDeviation="62.572333"
         id="feGaussianBlur971" />
    </filter>
    <linearGradient
       inkscape:collect="always"
       xlink:href="#linearGradient977"
       id="linearGradient979"
       x1="1666.5167"
       y1="2459.4951"
       x2="3124.6101"
       y2="2240.7451"
       gradientUnits="userSpaceOnUse"
       spreadMethod="reflect"
       gradientTransform="matrix(0.05375695,0,0,0.05375695,16.7752,25.024652)" />
    <linearGradient
       inkscape:collect="always"
       xlink:href="#linearGradient1025"
       id="linearGradient1027"
       x1="2481.2056"
       y1="2696.9424"
       x2="3569.2319"
       y2="2628.1924"
       gradientUnits="userSpaceOnUse"
       spreadMethod="reflect"
       gradientTransform="matrix(0.05375695,0,0,0.05375695,16.7752,25.024652)" />
    <radialGradient
       inkscape:collect="always"
       xlink:href="#linearGradient1037"
       id="radialGradient1039"
       cx="1231.2977"
       cy="3932.8467"
       fx="1231.2977"
       fy="3932.8467"
       r="1315.6925"
       gradientTransform="matrix(0.07572245,-0.00854797,0.0024168,0.02140928,-19.775766,130.60515)"
       gradientUnits="userSpaceOnUse" />
    <linearGradient
       inkscape:collect="always"
       xlink:href="#linearGradient1047"
       id="linearGradient1049"
       x1="1503.6608"
       y1="2232.9106"
       x2="2771.3496"
       y2="2032.9106"
       gradientUnits="userSpaceOnUse"
       spreadMethod="reflect" />
    <filter
       inkscape:collect="always"
       style="color-interpolation-filters:sRGB"
       id="filter1057"
       x="-0.0138"
       width="1.0276"
       y="-0.092"
       height="1.184">
      <feGaussianBlur
         inkscape:collect="always"
         stdDeviation="16.53125"
         id="feGaussianBlur1059" />
    </filter>
    <linearGradient
       inkscape:collect="always"
       xlink:href="#linearGradient1085"
       id="linearGradient1087"
       x1="2424.4929"
       y1="2568.0544"
       x2="3211.2747"
       y2="2493.0544"
       gradientUnits="userSpaceOnUse"
       spreadMethod="reflect"
       gradientTransform="matrix(0.05375695,0,0,0.05375695,16.7752,25.024652)" />
    <filter
       inkscape:collect="always"
       style="color-interpolation-filters:sRGB"
       id="filter999"
       x="-0.020764646"
       width="1.0415293"
       y="-0.028429642"
       height="1.0568593">
      <feGaussianBlur
         inkscape:collect="always"
         stdDeviation="2.1260435"
         id="feGaussianBlur1001" />
    </filter>
    <filter
       inkscape:collect="always"
       style="color-interpolation-filters:sRGB"
       id="filter941"
       x="-0.041291578"
       width="1.0825832"
       y="-0.057311014"
       height="1.114622">
      <feGaussianBlur
         inkscape:collect="always"
         stdDeviation="2.9629841"
         id="feGaussianBlur943" />
    </filter>
    <clipPath
       clipPathUnits="userSpaceOnUse"
       id="clipPath947">
      <path
         style="color:#000000;font-style:normal;font-variant:normal;font-weight:normal;font-stretch:normal;font-size:medium;line-height:normal;font-family:sans-serif;font-variant-ligatures:normal;font-variant-position:normal;font-variant-caps:normal;font-variant-numeric:normal;font-variant-alternates:normal;font-feature-settings:normal;text-indent:0;text-align:start;text-decoration:none;text-decoration-line:none;text-decoration-style:solid;text-decoration-color:#000000;letter-spacing:normal;word-spacing:normal;text-transform:none;writing-mode:lr-tb;direction:ltr;text-orientation:mixed;dominant-baseline:auto;baseline-shift:baseline;text-anchor:start;white-space:normal;shape-padding:0;clip-rule:nonzero;display:inline;overflow:visible;visibility:visible;opacity:1;isolation:auto;mix-blend-mode:normal;color-interpolation:sRGB;color-interpolation-filters:linearRGB;solid-color:#000000;solid-opacity:1;vector-effect:none;fill:url(#linearGradient951);fill-opacity:1;fill-rule:nonzero;stroke:none;stroke-width:1.9997586;stroke-linecap:butt;stroke-linejoin:miter;stroke-miterlimit:4;stroke-dasharray:none;stroke-dashoffset:0;stroke-opacity:1;filter:url(#filter941);color-rendering:auto;image-rendering:auto;shape-rendering:auto;text-rendering:auto;enable-background:accumulate"
         d="m -48.138023,56.682506 c -45.58513,-0.02959 -90.224877,5.426706 -134.177817,24.59465 -3.67876,1.604314 -7.22937,4.224276 -8.33894,7.262858 -1.10958,3.038583 -0.66572,6.69025 2.115,12.878356 11.28091,25.1041 13.64639,52.62051 17.05513,79.34421 l 1.98375,-0.25303 c -3.39333,-26.60297 -5.73192,-54.35692 -17.21493,-79.91076 -2.70278,-6.014662 -2.8608,-9.181237 -2.0605,-11.372849 0.80029,-2.191612 3.68717,-4.55772 7.25991,-6.115798 48.1321,-20.990481 97.718665,-24.189716 148.034547,-23.042772 3.254306,0.07418 4.75591,1.609228 5.274611,2.664014 0.518695,1.054787 1.737499,2.281762 1.530707,3.878734 -4.170184,32.204647 -1.30824,62.488621 5.729314,92.749641 l 1.947851,-0.45295 c -7.013116,-30.15594 -9.819745,-60.178742 -5.694039,-92.039876 0.209056,-1.614465 -1.413678,-3.508633 -2.298271,-5.307468 -0.884586,-1.798835 -2.800893,-3.408333 -6.444609,-3.491391 -4.730487,-0.107831 -9.986009,-1.382507 -14.701714,-1.385569 z"
         id="path949"
         inkscape:connector-curvature="0"
         sodipodi:nodetypes="ssssccsssscsccccss" />
    </clipPath>
    <linearGradient
       inkscape:collect="always"
       xlink:href="#linearGradient1075"
       id="linearGradient951"
       gradientUnits="userSpaceOnUse"
       gradientTransform="matrix(0.05375695,0,0,0.05375695,-208.12264,51.364039)"
       x1="1819.5291"
       y1="30.956055"
       x2="2088.0596"
       y2="2312.2061" />
    <linearGradient
       inkscape:collect="always"
       xlink:href="#linearGradient1075"
       id="linearGradient975"
       gradientUnits="userSpaceOnUse"
       gradientTransform="matrix(0.05375695,0,0,0.05375695,-208.12264,51.364039)"
       x1="1819.5291"
       y1="30.956055"
       x2="2088.0596"
       y2="2312.2061" />
    <filter
       inkscape:collect="always"
       style="color-interpolation-filters:sRGB"
       id="filter985"
       x="-0.082583156"
       width="1.1651663"
       y="-0.11462203"
       height="1.2292441">
      <feGaussianBlur
         inkscape:collect="always"
         stdDeviation="5.9259681"
         id="feGaussianBlur987" />
    </filter>
    <linearGradient
       inkscape:collect="always"
       xlink:href="#linearGradient1075"
       id="linearGradient1020"
       gradientUnits="userSpaceOnUse"
       gradientTransform="matrix(0.05375695,0,0,0.05375695,16.485765,25.024652)"
       x1="1819.5291"
       y1="30.956055"
       x2="2088.0596"
       y2="2312.2061" />
    <filter
       inkscape:collect="always"
       style="color-interpolation-filters:sRGB"
       id="filter1028"
       x="-0.010260121"
       width="1.0205202"
       y="-0.014450464"
       height="1.0289009">
      <feGaussianBlur
         inkscape:collect="always"
         stdDeviation="0.71055553"
         id="feGaussianBlur1030" />
    </filter>
  </defs>
  <sodipodi:namedview
     pagecolor="#ff0000"
     bordercolor="#666666"
     borderopacity="1"
     objecttolerance="10"
     gridtolerance="10"
     guidetolerance="10"
     inkscape:pageopacity="0"
     inkscape:pageshadow="2"
     inkscape:window-width="640"
     inkscape:window-height="480"
     id="namedview4"
     showgrid="false"
     inkscape:snap-to-guides="false"
     inkscape:snap-grids="false"
     inkscape:snap-others="false"
     inkscape:object-nodes="false"
     inkscape:snap-nodes="false"
     inkscape:snap-global="false"
     inkscape:zoom="3.454902"
     inkscape:cx="127.5"
     inkscape:cy="127.5"
     inkscape:current-layer="svg2" />
  <g
     id="g985"
     style="fill:#000000;fill-opacity:0.24324323;filter:url(#filter999)"
     transform="matrix(0.95268058,0,0,0.95268058,260.20796,19.89173)">
    <path
       inkscape:connector-curvature="0"
       id="path872"
       d="m -124.45849,39.731043 c -45.79388,0.01306 -90.22774,7.330961 -132.10854,24.447202 -7.89932,3.228369 -8.36121,8.895605 -4.21414,17.100699 13.68372,27.073596 18.62589,55.448936 23.9872,83.886446 -3.14392,-7.5e-4 -6.26946,0.0164 -9.36796,0.0608 -29.12498,0.41733 -30.80097,28.35589 -12.35852,38.19931 51.06272,27.25407 130.21246,18.35171 198.518711,-20.05396 8.064579,-2.02647 16.085466,-5.19087 24.03973,-9.92771 25.031974,-14.90677 3.168559,-35.37051 -19.948225,-23.09667 -4.186759,2.22295 -8.28896,4.18798 -12.326835,5.95125 -9.628308,-33.68223 -21.07541,-66.986887 -16.559978,-106.777415 0.493476,-4.348587 -2.166759,-8.272504 -7.754992,-8.661254 -10.698001,-0.744215 -21.338631,-1.131732 -31.906451,-1.128717 z"
       style="fill:#000000;fill-opacity:0.24324323;stroke:none;stroke-width:0.26507452;stroke-linecap:butt;stroke-linejoin:miter;stroke-miterlimit:4;stroke-dasharray:none;stroke-opacity:1" />
    <path
       inkscape:connector-curvature="0"
       id="path964"
       d="m -128.73242,40.753906 c -44.30582,0.51989 -89.12688,7.886117 -129.91016,25.589844 -7.2918,4.447902 -1.89578,13.389136 0.8789,18.856642 12.05662,25.481988 17.03343,53.465318 22.17384,80.961718 -11.12435,-0.33187 -25.9258,-0.7531 -32.09571,10.62695 -5.79231,10.87436 2.45079,23.98307 13.2461,27.59766 38.77136,18.40894 84.06601,16.37324 124.83007,6.05469 24.58473,-6.14517 48.007215,-16.41237 70.323369,-28.29042 11.330038,-3.51195 23.880348,-7.57712 31.469605,-17.23888 5.516658,-7.05375 -1.464585,-16.16011 -9.253906,-16.86719 -11.785198,-2.67997 -21.514007,5.63607 -31.808594,9.63281 -10.501235,-35.22644 -21.615492,-71.819341 -16.863282,-109.009761 0.325367,-6.72389 -7.963136,-7.543529 -12.879537,-7.186672 -10.000635,-0.576358 -20.064795,-0.826175 -30.110695,-0.727391 z"
       style="fill:#000000;fill-opacity:0.24324323;stroke:none;stroke-width:0.26507452;stroke-linecap:butt;stroke-linejoin:miter;stroke-miterlimit:4;stroke-dasharray:none;stroke-opacity:1" />
    <path
       inkscape:connector-curvature="0"
       id="path968"
       d="m -128.7168,41.753906 c -44.45204,0.658413 -89.49586,7.700406 -130.23632,26.019532 -5.21189,4.777092 -0.27505,12.140165 2.09765,17.007812 12.26411,25.93415 17.24109,54.43791 22.47656,82.41602 -11.15754,-0.38127 -26.19964,-1.12934 -32.41797,10.05078 -5.86186,10.98569 3.59318,24.04699 14.60157,27.08007 43.01823,19.38251 92.82033,14.65918 136.95048,0.97846 20.118015,-6.13548 38.96471,-15.76928 57.799518,-24.77728 11.101273,-3.67708 24.160968,-7.80843 30.197265,-18.6875 2.364565,-9.19021 -8.444014,-14.44674 -16.193359,-13.24805 -9.553733,0.93805 -17.276973,7.2187 -26.082032,10.41992 -10.868929,-35.96412 -21.975501,-73.451456 -17.25,-111.421873 -2.285753,-7.337054 -11.98098,-4.408751 -17.652242,-5.403032 -8.0619,-0.363922 -16.19528,-0.51215 -24.29112,-0.434859 z"
       style="fill:#000000;fill-opacity:0.24324323;stroke:none;stroke-width:0.26507452;stroke-linecap:butt;stroke-linejoin:miter;stroke-miterlimit:4;stroke-dasharray:none;stroke-opacity:1" />
    <path
       inkscape:connector-curvature="0"
       id="path972"
       d="m -128.69727,42.753906 c -44.33047,0.752826 -89.47372,7.512556 -129.98046,26.154297 -4.51372,6.642451 2.77024,13.446732 4.67602,19.734533 11.08382,25.268094 15.77673,52.651194 20.83569,79.595544 -10.89279,-0.25344 -25.08349,-1.71378 -32.1914,8.55274 -6.63201,10.47495 2.80844,23.92313 13.56445,26.62109 42.97364,19.26594 92.34042,14.5651 136.25586,0.9375 21.654045,-6.2702 41.262905,-17.75734 62.011719,-26.18164 9.697414,-3.43116 21.195144,-7.59186 25.533203,-17.71875 0.784252,-8.86586 -10.769936,-12.64814 -17.90625,-10.47461 -8.667097,1.80556 -15.910739,7.51604 -24.273437,10.35156 -11.184128,-36.45636 -22.134254,-74.539449 -17.761719,-113.009764 -3.59673,-6.220854 -11.694452,-2.963663 -17.573336,-4.170836 -7.72487,-0.334624 -15.45858,-0.461411 -23.19034,-0.391664 z"
       style="fill:#000000;fill-opacity:0.24324323;stroke:none;stroke-width:0.26507452;stroke-linecap:butt;stroke-linejoin:miter;stroke-miterlimit:4;stroke-dasharray:none;stroke-opacity:1" />
    <path
       inkscape:connector-curvature="0"
       id="path976"
       d="m -128.67578,43.753906 c -44.13291,0.882542 -89.3853,7.23229 -129.52149,26.271485 -3.14859,7.502467 4.44501,13.635164 6.14063,20.611328 10.54773,25.072181 15.09955,52.059831 20.10156,78.638671 -10.80778,-0.15571 -24.69275,-2.12407 -32.25,7.625 -6.75985,9.90964 2.39597,23.16613 12.8125,25.5957 45.07123,20.1364 96.93161,13.92255 142.52748,-1.31602 22.642579,-8.00657 43.55418,-20.14382 66.111194,-28.35976 5.651733,-2.96238 13.033973,-7.26546 13.738281,-14.20898 -1.980376,-8.72784 -13.615132,-9.70054 -20.535156,-6.58008 -7.358742,2.58908 -13.815683,7.22828 -21.273438,9.58203 -11.468474,-36.84756 -22.245456,-75.413175 -18.292969,-114.298827 -4.938344,-5.38977 -12.916352,-1.760193 -19.328122,-3.285156 -6.74028,-0.244109 -13.48604,-0.33514 -20.23047,-0.275391 z"
       style="fill:#000000;fill-opacity:0.24324323;stroke:none;stroke-width:0.26507452;stroke-linecap:butt;stroke-linejoin:miter;stroke-miterlimit:4;stroke-dasharray:none;stroke-opacity:1" />
  </g>
  <path
     style="fill:url(#radialGradient857);fill-opacity:1;stroke:#6d2f0d;stroke-width:0.26340905;stroke-linecap:butt;stroke-linejoin:miter;stroke-miterlimit:4;stroke-dasharray:none;stroke-opacity:1"
     d="m 242.67749,168.29583 c 24.50416,-15.50619 4.76702,-36.79288 -17.78811,-24.02551 -34.88127,19.7446 -63.20616,20.51557 -94.71597,28.6458 37.14852,5.10527 74.6485,19.33467 112.50408,-4.62029 z"
     id="path821"
     inkscape:connector-curvature="0"
     sodipodi:nodetypes="sscs" />
  <path
     style="fill:#000000;fill-opacity:1;stroke:none;stroke-width:0.34404448;stroke-linecap:butt;stroke-linejoin:miter;stroke-miterlimit:4;stroke-dasharray:none;stroke-opacity:1"
     d="m 38.691652,54.636677 c -7.659372,3.358185 -8.380108,9.253093 -4.851303,17.78812 13.41007,32.434603 15.725871,66.665333 20.329278,100.722343 53.155683,10.10045 106.970363,2.40823 161.017133,-11.55073 -7.63199,-38.92177 -19.63348,-76.4394 -12.70579,-122.206693 0.6847,-4.523446 -1.64485,-8.605185 -6.93044,-9.009567 C 141.58452,26.251402 88.671508,32.723448 38.691652,54.636677 Z"
     id="path817"
     inkscape:connector-curvature="0"
     sodipodi:nodetypes="ssccsss" />
  <path
     style="fill:url(#linearGradient979);fill-opacity:1;stroke:none;stroke-width:0.74184591;stroke-linecap:butt;stroke-linejoin:miter;stroke-miterlimit:4;stroke-dasharray:none;stroke-opacity:1"
     d="m 52.32151,158.59322 c 33.497106,-13.12041 129.36814,-25.22456 157.3209,-24.71856 l 5.54435,25.87363 C 182.8848,156.83473 91.790906,167.33006 53.707598,179.15351 Z"
     id="path823"
     inkscape:connector-curvature="0"
     sodipodi:nodetypes="ccccc" />
  <path
     style="fill:url(#radialGradient869);fill-opacity:1;stroke:#6b2403;stroke-width:0.37092295;stroke-linecap:butt;stroke-linejoin:miter;stroke-miterlimit:4;stroke-dasharray:none;stroke-opacity:1"
     d="m 43.542958,159.74829 c -27.669149,0.43411 -30.647816,29.49526 -13.62986,39.7345 48.662962,29.27917 127.681702,18.44312 195.983772,-24.88632 -20.89567,7.52286 -52.90927,8.07744 -76.62242,0.21649 C 107.24449,160.87997 74.442307,159.26351 43.542958,159.74829 Z"
     id="path819"
     inkscape:connector-curvature="0"
     sodipodi:nodetypes="sscss" />
  <path
     style="fill:url(#radialGradient1039);fill-opacity:1;stroke:#000000;stroke-width:0.05375695px;stroke-linecap:butt;stroke-linejoin:miter;stroke-opacity:1"
     d="m 193.24327,185.22181 c -40.29216,9.2001 -82.53228,37.34311 -120.591123,20.81891 -32.945818,-14.30425 -20.634741,-35.63821 -4.212635,-27.75208 35.354818,16.97789 83.192178,-7.85514 124.803758,6.93317 z"
     id="path1031"
     inkscape:connector-curvature="0"
     sodipodi:nodetypes="cssc" />
  <path
     style="fill:#ffffff;fill-opacity:0.15765764;stroke:none;stroke-width:1px;stroke-linecap:butt;stroke-linejoin:miter;stroke-opacity:1;filter:url(#filter969)"
     d="M 2543.75,142.25 C 2667.943,95.27192 2809.6925,118.51985 2950,136 c -91.848,639.29071 165.7429,1454.1485 275,2062.5 48.4515,202.251 -159.0584,201.7164 -212.5,25 C 2830.1611,1610.8343 2535.9725,786.60181 2543.75,142.25 Z"
     id="path894"
     inkscape:connector-curvature="0"
     sodipodi:nodetypes="ccccc"
     transform="matrix(0.05375695,0,0,0.05375695,16.7752,25.024652)" />
  <path
     style="fill:#efddc9;fill-opacity:0.10360359;stroke:none;stroke-width:1px;stroke-linecap:butt;stroke-linejoin:miter;stroke-opacity:1;filter:url(#filter949)"
     d="m 1768.75,211 c 85.5348,817.4142 283.5207,1482.0103 1012.5,1425 579.1937,-50.3647 457.5095,-1399.7284 325,-1493.75 C 3006.2394,71.287924 1730.2987,166.14017 1768.75,211 Z"
     id="path834"
     inkscape:connector-curvature="0"
     sodipodi:nodetypes="ccsc"
     transform="matrix(0.05375695,0,0,0.05375695,16.7752,25.024652)" />
  <path
     sodipodi:nodetypes="ccccc"
     inkscape:connector-curvature="0"
     id="path981"
     d="m 1298.0029,302.50114 c 124.193,-46.97808 305.3664,-93.38647 445.6739,-75.90632 -91.848,639.29071 71.6384,1269.66278 180.8955,1878.01428 -93.2205,50.2868 -127.7955,61.268 -212.5,25 C 1529.7334,1516.9434 1290.2254,946.85295 1298.0029,302.50114 Z"
     style="fill:#ffffff;fill-opacity:0.12162164;stroke:none;stroke-width:1px;stroke-linecap:butt;stroke-linejoin:miter;stroke-opacity:1;filter:url(#filter969)"
     transform="matrix(-0.04990166,0.01999086,0.01999086,0.04990166,137.06441,4.0753068)" />
  <path
     style="fill:none;stroke:url(#linearGradient1049);stroke-width:42.09999847;stroke-linecap:round;stroke-linejoin:miter;stroke-miterlimit:4;stroke-dasharray:none;stroke-opacity:1;filter:url(#filter1057)"
     d="m 693.75,2461 c 942.042,-257.7896 1899.6281,-406.7697 2875,-431.25"
     id="path1041"
     inkscape:connector-curvature="0"
     sodipodi:nodetypes="cc"
     transform="matrix(0.05375695,0,0,0.05375695,16.7752,25.024652)" />
  <path
     style="fill:none;stroke:url(#linearGradient1087);stroke-width:2.41906285;stroke-linecap:butt;stroke-linejoin:miter;stroke-miterlimit:4;stroke-dasharray:none;stroke-opacity:1"
     d="m 122.27321,166.72797 c 26.94575,-5.722 55.70534,-7.24059 91.94679,-8.62351"
     id="path1079"
     inkscape:connector-curvature="0"
     sodipodi:nodetypes="cc" />
  <path
     style="fill:url(#linearGradient1027);fill-opacity:1;stroke:#000000;stroke-width:0.05375695px;stroke-linecap:butt;stroke-linejoin:miter;stroke-opacity:1"
     d="m 78.931673,161.35228 c 52.790807,0.43324 101.565887,30.67073 155.559177,8.39952 8.40195,-3.46565 16.90864,-12.65528 19.48689,-18.47895 -1.6509,5.96056 -6.31388,15.58197 -18.47895,20.83082 -60.10791,25.9347 -108.18688,-9.5127 -156.567117,-10.75139 z"
     id="path1019"
     inkscape:connector-curvature="0"
     sodipodi:nodetypes="cscsc" />
  <path
     transform="translate(225.76618,-26.339387)"
     clip-path="url(#clipPath947)"
     style="color:#000000;font-style:normal;font-variant:normal;font-weight:normal;font-stretch:normal;font-size:medium;line-height:normal;font-family:sans-serif;font-variant-ligatures:normal;font-variant-position:normal;font-variant-caps:normal;font-variant-numeric:normal;font-variant-alternates:normal;font-feature-settings:normal;text-indent:0;text-align:start;text-decoration:none;text-decoration-line:none;text-decoration-style:solid;text-decoration-color:#000000;letter-spacing:normal;word-spacing:normal;text-transform:none;writing-mode:lr-tb;direction:ltr;text-orientation:mixed;dominant-baseline:auto;baseline-shift:baseline;text-anchor:start;white-space:normal;shape-padding:0;clip-rule:nonzero;display:inline;overflow:visible;visibility:visible;opacity:1;isolation:auto;mix-blend-mode:normal;color-interpolation:sRGB;color-interpolation-filters:linearRGB;solid-color:#000000;solid-opacity:1;vector-effect:none;fill:url(#linearGradient975);fill-opacity:1;fill-rule:nonzero;stroke:none;stroke-width:1.9997586;stroke-linecap:butt;stroke-linejoin:miter;stroke-miterlimit:4;stroke-dasharray:none;stroke-dashoffset:0;stroke-opacity:1;color-rendering:auto;image-rendering:auto;shape-rendering:auto;text-rendering:auto;enable-background:accumulate;filter:url(#filter985)"
     d="m -48.138023,56.682506 c -45.58513,-0.02959 -90.224877,5.426706 -134.177817,24.59465 -3.67876,1.604314 -7.22937,4.224276 -8.33894,7.262858 -1.10958,3.038583 -0.66572,6.69025 2.115,12.878356 11.28091,25.1041 13.64639,52.62051 17.05513,79.34421 l 1.98375,-0.25303 c -3.39333,-26.60297 -5.73192,-54.35692 -17.21493,-79.91076 -2.70278,-6.014662 -2.8608,-9.181237 -2.0605,-11.372849 0.80029,-2.191612 3.68717,-4.55772 7.25991,-6.115798 48.1321,-20.990481 97.718665,-24.189716 148.034547,-23.042772 3.254306,0.07418 4.75591,1.609228 5.274611,2.664014 0.518695,1.054787 1.737499,2.281762 1.530707,3.878734 -4.170184,32.204647 -1.30824,62.488621 5.729314,92.749641 l 1.947851,-0.45295 c -7.013116,-30.15594 -9.819745,-60.178742 -5.694039,-92.039876 0.209056,-1.614465 -1.413678,-3.508633 -2.298271,-5.307468 -0.884586,-1.798835 -2.800893,-3.408333 -6.444609,-3.491391 -4.730487,-0.107831 -9.986009,-1.382507 -14.701714,-1.385569 z"
     id="path953"
     inkscape:connector-curvature="0"
     sodipodi:nodetypes="ssssccsssscsccccss" />
  <path
     style="color:#000000;font-style:normal;font-variant:normal;font-weight:normal;font-stretch:normal;font-size:medium;line-height:normal;font-family:sans-serif;font-variant-ligatures:normal;font-variant-position:normal;font-variant-caps:normal;font-variant-numeric:normal;font-variant-alternates:normal;font-feature-settings:normal;text-indent:0;text-align:start;text-decoration:none;text-decoration-line:none;text-decoration-style:solid;text-decoration-color:#000000;letter-spacing:normal;word-spacing:normal;text-transform:none;writing-mode:lr-tb;direction:ltr;text-orientation:mixed;dominant-baseline:auto;baseline-shift:baseline;text-anchor:start;white-space:normal;shape-padding:0;clip-rule:nonzero;display:inline;overflow:visible;visibility:visible;opacity:1;isolation:auto;mix-blend-mode:normal;color-interpolation:sRGB;color-interpolation-filters:linearRGB;solid-color:#000000;solid-opacity:1;vector-effect:none;fill:url(#linearGradient1020);fill-opacity:1;fill-rule:nonzero;stroke:none;stroke-width:1.9997586;stroke-linecap:butt;stroke-linejoin:miter;stroke-miterlimit:4;stroke-dasharray:none;stroke-dashoffset:0;stroke-opacity:1;color-rendering:auto;image-rendering:auto;shape-rendering:auto;text-rendering:auto;enable-background:accumulate;filter:url(#filter1028)"
     d="M 172.21192,31.355925 C 129.69617,31.522245 86.625325,37.42299 47.231455,53.928191 92.537845,35.017309 142.44123,31.446392 191.01074,32.725066 184.68239,32.419441 178.54909,30.886938 172.21192,31.355925 Z M 47.231455,53.928191 c -0.02171,0.0073 -0.0043,0.0031 0,0 z m -0.0098,0.0039 c -1.89938,0.783239 -2.47915,1.043966 0,0 z m -2.47266,1.035157 c -4.29143,1.849645 -0.63975,0.277714 0,0 z m -4.6289,2.205078 c -0.37664,0.235038 1.05173,-0.612687 0,0 z m -0.61133,0.378906 c -0.47019,0.316148 1.59372,-1.005652 0,0 z m -0.08789,0.06055 c -1.42498,0.674362 -4.78298,4.383031 -2.11719,1.628906 0.65686,-0.603149 1.37427,-1.13703 2.11719,-1.628906 z m -3.4043,2.992187 c -0.51697,0.64358 -0.34867,0.53115 0,0 z M 197.30762,58.240691 c -10e-4,0.05102 0.005,-0.06036 0,0 z m 0,0.01367 c -0.14785,3.214314 -0.15138,3.36144 0,0 z M 35.647465,61.102019 c -0.60404,0.939848 0.0993,-0.123161 0,0 z m 161.525385,0.0918 c 0.007,-0.0171 -0.001,-0.07119 0,0 z m -162.585925,2.4082 c -0.67531,3.28042 0.58568,6.670448 1.76171,9.59375 -1.21876,-2.960436 -2.3924,-6.552199 -1.76171,-9.59375 z M 197.36817,83.687953 c -0.13675,-2.64272 -0.16696,-3.14916 0,0 z M 39.952155,81.853973 c 0.01497,0.04549 -9.3e-4,-0.01541 0,0 z m 0.0059,0.01367 c 0.94331,2.55806 1.41651,3.83256 0,0 z m 0.88477,2.39453 c 7.49571,20.900397 9.9366,43.112637 12.64453,65.017577 -2.7014,-21.9063 -5.11937,-44.07959 -12.64453,-65.017577 z M 198.6475,98.748503 c 0.42246,3.536267 0.40895,3.348707 0,0 z m 1.54492,11.349607 c -0.50391,-3.33235 -0.52226,-3.44614 0,0 z m 0,0 c 0.56035,3.46402 0.54681,3.35281 0,0 z"
     id="path989"
     inkscape:connector-curvature="0" />
</svg>
