<?xml version="1.0" encoding="UTF-8" standalone="no"?>
<svg
   xmlns:dc="http://purl.org/dc/elements/1.1/"
   xmlns:cc="http://creativecommons.org/ns#"
   xmlns:rdf="http://www.w3.org/1999/02/22-rdf-syntax-ns#"
   xmlns:svg="http://www.w3.org/2000/svg"
   xmlns="http://www.w3.org/2000/svg"
   xmlns:xlink="http://www.w3.org/1999/xlink"
   xmlns:sodipodi="http://sodipodi.sourceforge.net/DTD/sodipodi-0.dtd"
   xmlns:inkscape="http://www.inkscape.org/namespaces/inkscape"
   width="255"
   height="255"
   viewBox="0 0 67.468748 67.468752"
   version="1.1"
   id="svg8"
   inkscape:version="1.0 (4035a4f, 2020-05-01)"
   sodipodi:docname="k-paint.svg">
  <defs
     id="defs2">
    <linearGradient
       id="linearGradient957"
       inkscape:collect="always">
      <stop
         id="stop953"
         offset="0"
         style="stop-color:#3e2000;stop-opacity:1" />
      <stop
         id="stop955"
         offset="1"
         style="stop-color:#e7aa05;stop-opacity:1" />
    </linearGradient>
    <linearGradient
       inkscape:collect="always"
       id="linearGradient1188">
      <stop
         style="stop-color:#770014;stop-opacity:1"
         offset="0"
         id="stop1283" />
      <stop
         style="stop-color:#ff0038;stop-opacity:1"
         offset="1"
         id="stop1285" />
    </linearGradient>
    <linearGradient
       id="linearGradient1259"
       inkscape:collect="always">
      <stop
         id="stop1276"
         offset="0"
         style="stop-color:#3e0006;stop-opacity:1" />
      <stop
         style="stop-color:#940015;stop-opacity:1"
         offset="0.55621785"
         id="stop1278" />
      <stop
         id="stop1280"
         offset="1"
         style="stop-color:#ff567c;stop-opacity:1" />
    </linearGradient>
    <linearGradient
       id="linearGradient1188-5"
       inkscape:collect="always">
      <stop
         id="stop1261"
         offset="0"
         style="stop-color:#485100;stop-opacity:1" />
      <stop
         id="stop1263"
         offset="1"
         style="stop-color:#fff200;stop-opacity:1" />
    </linearGradient>
    <linearGradient
       inkscape:collect="always"
       id="linearGradient1259-3">
      <stop
         style="stop-color:#3e3c00;stop-opacity:1"
         offset="0"
         id="stop1253" />
      <stop
         id="stop1255"
         offset="0.55621785"
         style="stop-color:#5b5c00;stop-opacity:1" />
      <stop
         style="stop-color:#faff56;stop-opacity:1"
         offset="1"
         id="stop1257" />
    </linearGradient>
    <linearGradient
       id="linearGradient1236"
       inkscape:collect="always">
      <stop
         id="stop1228"
         offset="0"
         style="stop-color:#ffffff;stop-opacity:1;" />
      <stop
         style="stop-color:#ffffff;stop-opacity:0.0001605"
         offset="0.71335691"
         id="stop1230" />
      <stop
         style="stop-color:#b5beff;stop-opacity:0.56470591"
         offset="0.84571868"
         id="stop1232" />
      <stop
         id="stop1234"
         offset="1"
         style="stop-color:#ffffff;stop-opacity:0;" />
    </linearGradient>
    <linearGradient
       id="linearGradient1188-7"
       inkscape:collect="always">
      <stop
         id="stop1223"
         offset="0"
         style="stop-color:#1d0db8;stop-opacity:1" />
      <stop
         id="stop1225"
         offset="1"
         style="stop-color:#0019ff;stop-opacity:1" />
    </linearGradient>
    <linearGradient
       id="linearGradient1176"
       inkscape:collect="always">
      <stop
         id="stop1216"
         offset="0"
         style="stop-color:#00033e;stop-opacity:1" />
      <stop
         style="stop-color:#00025c;stop-opacity:1"
         offset="0.55621785"
         id="stop1218" />
      <stop
         id="stop1220"
         offset="1"
         style="stop-color:#5677ff;stop-opacity:1" />
    </linearGradient>
    <linearGradient
       inkscape:collect="always"
       id="linearGradient1198">
      <stop
         style="stop-color:#ffffff;stop-opacity:1;"
         offset="0"
         id="stop1194" />
      <stop
         id="stop1204"
         offset="0.71335691"
         style="stop-color:#ffffff;stop-opacity:0.0001605" />
      <stop
         id="stop1202"
         offset="0.84571868"
         style="stop-color:#b5ffb9;stop-opacity:0.5657742" />
      <stop
         style="stop-color:#ffffff;stop-opacity:0;"
         offset="1"
         id="stop1196" />
    </linearGradient>
    <linearGradient
       inkscape:collect="always"
       id="linearGradient1188-6">
      <stop
         style="stop-color:#007708;stop-opacity:1"
         offset="0"
         id="stop1184" />
      <stop
         style="stop-color:#00ff11;stop-opacity:1"
         offset="1"
         id="stop1186" />
    </linearGradient>
    <linearGradient
       inkscape:collect="always"
       id="linearGradient1176-3">
      <stop
         style="stop-color:#003e00;stop-opacity:1"
         offset="0"
         id="stop1172" />
      <stop
         id="stop1182"
         offset="0.55621785"
         style="stop-color:#005c03;stop-opacity:1" />
      <stop
         style="stop-color:#00c90c;stop-opacity:1"
         offset="1"
         id="stop1174" />
    </linearGradient>
    <linearGradient
       inkscape:collect="always"
       id="linearGradient922">
      <stop
         style="stop-color:#ffffff;stop-opacity:0.16633572"
         offset="0"
         id="stop918" />
      <stop
         style="stop-color:#ffd62b;stop-opacity:0.10008997"
         offset="1"
         id="stop920" />
    </linearGradient>
    <linearGradient
       inkscape:collect="always"
       id="linearGradient897">
      <stop
         style="stop-color:#643700;stop-opacity:1"
         offset="0"
         id="stop893" />
      <stop
         style="stop-color:#ff991c;stop-opacity:1"
         offset="1"
         id="stop895" />
    </linearGradient>
    <linearGradient
       inkscape:collect="always"
       id="linearGradient889">
      <stop
         style="stop-color:#ffd48e;stop-opacity:1"
         offset="0"
         id="stop885" />
      <stop
         style="stop-color:#6a4200;stop-opacity:1"
         offset="1"
         id="stop887" />
    </linearGradient>
    <linearGradient
       inkscape:collect="always"
       id="linearGradient3803">
      <stop
         style="stop-color:#ffc997;stop-opacity:1"
         offset="0"
         id="stop3805" />
      <stop
         style="stop-color:#643100;stop-opacity:1"
         offset="1"
         id="stop3807" />
    </linearGradient>
    <linearGradient
       inkscape:collect="always"
       id="linearGradient3795">
      <stop
         style="stop-color:#ffffff;stop-opacity:1"
         offset="0"
         id="stop3797" />
      <stop
         style="stop-color:#757575;stop-opacity:1"
         offset="1"
         id="stop3799" />
    </linearGradient>
    <linearGradient
       id="linearGradient942"
       inkscape:collect="always">
      <stop
         id="stop938"
         offset="0"
         style="stop-color:#ffffff;stop-opacity:1" />
      <stop
         id="stop940"
         offset="1"
         style="stop-color:#494949;stop-opacity:1" />
    </linearGradient>
    <linearGradient
       id="linearGradient934"
       inkscape:collect="always">
      <stop
         id="stop930"
         offset="0"
         style="stop-color:#ff9d52;stop-opacity:1" />
      <stop
         id="stop932"
         offset="1"
         style="stop-color:#6a2e00;stop-opacity:0.9702388" />
    </linearGradient>
    <linearGradient
       id="linearGradient921"
       inkscape:collect="always">
      <stop
         id="stop917"
         offset="0"
         style="stop-color:#ffa55f;stop-opacity:1" />
      <stop
         id="stop919"
         offset="1"
         style="stop-color:#6a2e00;stop-opacity:1" />
    </linearGradient>
    <linearGradient
       spreadMethod="reflect"
       gradientUnits="userSpaceOnUse"
       y2="269.59592"
       x2="-2.7468736"
       y1="269.59592"
       x1="-4.2540369"
       id="linearGradient923"
       xlink:href="#linearGradient921"
       inkscape:collect="always" />
    <radialGradient
       spreadMethod="reflect"
       gradientUnits="userSpaceOnUse"
       gradientTransform="matrix(1,0,0,2.7702113,0,-419.03433)"
       r="2.2594836"
       fy="237.34422"
       fx="-5.8764529"
       cy="237.34422"
       cx="-5.8764529"
       id="radialGradient936"
       xlink:href="#linearGradient934"
       inkscape:collect="always" />
    <linearGradient
       spreadMethod="reflect"
       gradientUnits="userSpaceOnUse"
       y2="247.3131"
       x2="-2.6355686"
       y1="247.3131"
       x1="-4.1138659"
       id="linearGradient944"
       xlink:href="#linearGradient942"
       inkscape:collect="always" />
    <linearGradient
       inkscape:collect="always"
       xlink:href="#linearGradient3795"
       id="linearGradient3801"
       x1="-5.6344595"
       y1="248.77286"
       x2="-3.7912199"
       y2="248.83369"
       gradientUnits="userSpaceOnUse"
       spreadMethod="reflect" />
    <linearGradient
       inkscape:collect="always"
       xlink:href="#linearGradient3803"
       id="linearGradient3809"
       x1="-5.4735312"
       y1="273.15781"
       x2="-3.6646104"
       y2="273.15781"
       gradientUnits="userSpaceOnUse"
       spreadMethod="reflect" />
    <linearGradient
       inkscape:collect="always"
       xlink:href="#linearGradient921"
       id="linearGradient867"
       gradientUnits="userSpaceOnUse"
       x1="-4.2540369"
       y1="269.59592"
       x2="-2.7468736"
       y2="269.59592"
       spreadMethod="reflect" />
    <linearGradient
       inkscape:collect="always"
       xlink:href="#linearGradient3803"
       id="linearGradient869"
       gradientUnits="userSpaceOnUse"
       x1="-5.4735312"
       y1="273.15781"
       x2="-3.6646104"
       y2="273.15781"
       spreadMethod="reflect" />
    <linearGradient
       inkscape:collect="always"
       xlink:href="#linearGradient942"
       id="linearGradient871"
       gradientUnits="userSpaceOnUse"
       x1="-4.1138659"
       y1="247.3131"
       x2="-2.6355686"
       y2="247.3131"
       spreadMethod="reflect" />
    <linearGradient
       inkscape:collect="always"
       xlink:href="#linearGradient3795"
       id="linearGradient873"
       gradientUnits="userSpaceOnUse"
       x1="-5.6344595"
       y1="248.77286"
       x2="-3.7912199"
       y2="248.83369"
       spreadMethod="reflect" />
    <radialGradient
       inkscape:collect="always"
       xlink:href="#linearGradient934"
       id="radialGradient875"
       gradientUnits="userSpaceOnUse"
       gradientTransform="matrix(1,0,0,2.7702113,0,-419.03433)"
       cx="-5.8764529"
       cy="237.34422"
       fx="-5.8764529"
       fy="237.34422"
       r="2.2594836"
       spreadMethod="reflect" />
    <linearGradient
       gradientTransform="matrix(1.0337722,0,0,1.0337722,-10.346215,-8.6368163)"
       inkscape:collect="always"
       xlink:href="#linearGradient889"
       id="linearGradient891"
       x1="37.090626"
       y1="266.36484"
       x2="57.335522"
       y2="287.06311"
       gradientUnits="userSpaceOnUse"
       spreadMethod="reflect" />
    <linearGradient
       gradientTransform="matrix(1.0337722,0,0,1.0337722,-10.346215,-8.6368163)"
       spreadMethod="reflect"
       inkscape:collect="always"
       xlink:href="#linearGradient897"
       id="linearGradient899"
       x1="38.709679"
       y1="263.99414"
       x2="63.707645"
       y2="279.22714"
       gradientUnits="userSpaceOnUse" />
    <linearGradient
       inkscape:collect="always"
       xlink:href="#linearGradient922"
       id="linearGradient1022"
       gradientUnits="userSpaceOnUse"
       x1="34.41423"
       y1="289.12085"
       x2="35.802689"
       y2="250.75246"
       gradientTransform="translate(0.61436399,0.36922569)" />
    <linearGradient
       inkscape:collect="always"
       xlink:href="#linearGradient922"
       id="linearGradient1051"
       gradientUnits="userSpaceOnUse"
       gradientTransform="translate(0.61436399,0.36922569)"
       x1="34.41423"
       y1="289.12085"
       x2="35.802689"
       y2="250.75246" />
    <linearGradient
       inkscape:collect="always"
       xlink:href="#linearGradient922"
       id="linearGradient1056"
       gradientUnits="userSpaceOnUse"
       gradientTransform="translate(0.61436399,0.36922569)"
       x1="34.41423"
       y1="289.12085"
       x2="35.802689"
       y2="250.75246" />
    <linearGradient
       inkscape:collect="always"
       xlink:href="#linearGradient922"
       id="linearGradient1061"
       gradientUnits="userSpaceOnUse"
       gradientTransform="translate(0.61436399,0.36922569)"
       x1="34.41423"
       y1="289.12085"
       x2="35.802689"
       y2="250.75246" />
    <linearGradient
       inkscape:collect="always"
       xlink:href="#linearGradient922"
       id="linearGradient1066"
       gradientUnits="userSpaceOnUse"
       gradientTransform="translate(0.61436399,0.36922569)"
       x1="34.41423"
       y1="289.12085"
       x2="35.802689"
       y2="250.75246" />
    <linearGradient
       inkscape:collect="always"
       xlink:href="#linearGradient922"
       id="linearGradient1071"
       gradientUnits="userSpaceOnUse"
       gradientTransform="translate(0.61436399,0.36922569)"
       x1="34.41423"
       y1="289.12085"
       x2="35.802689"
       y2="250.75246" />
    <filter
       inkscape:collect="always"
       style="color-interpolation-filters:sRGB"
       id="filter1166"
       x="-0.021123778"
       width="1.0422476"
       y="-0.024924107"
       height="1.0498482">
      <feGaussianBlur
         inkscape:collect="always"
         stdDeviation="0.39720601"
         id="feGaussianBlur1168" />
    </filter>
    <radialGradient
       inkscape:collect="always"
       xlink:href="#linearGradient1176-3"
       id="radialGradient1178"
       cx="11.00266"
       cy="277.87463"
       fx="11.366541"
       fy="273.84131"
       r="8.4970865"
       gradientTransform="matrix(1.1353148,-0.01344286,0.00823847,0.69577854,18.929278,87.055805)"
       gradientUnits="userSpaceOnUse"
       spreadMethod="pad" />
    <linearGradient
       inkscape:collect="always"
       xlink:href="#linearGradient1188-6"
       id="linearGradient1190"
       x1="13.0966"
       y1="284.47833"
       x2="13.711998"
       y2="272.90738"
       gradientUnits="userSpaceOnUse"
       gradientTransform="matrix(1.0337722,0,0,1.0337722,22.341046,-7.3525813)" />
    <radialGradient
       inkscape:collect="always"
       xlink:href="#linearGradient1198"
       id="radialGradient1200"
       cx="33.585678"
       cy="291.34131"
       fx="33.585678"
       fy="291.34131"
       r="7.4816355"
       gradientTransform="matrix(1.2634421,-0.01310193,0.00739124,0.71275185,-10.94498,73.313488)"
       gradientUnits="userSpaceOnUse" />
    <radialGradient
       inkscape:collect="always"
       xlink:href="#linearGradient1236"
       id="radialGradient1210"
       gradientUnits="userSpaceOnUse"
       gradientTransform="matrix(1.046756,-0.01085489,0.00612361,0.59051166,10.823213,101.05454)"
       cx="33.585678"
       cy="291.34131"
       fx="33.585678"
       fy="291.34131"
       r="7.4816355" />
    <radialGradient
       inkscape:collect="always"
       xlink:href="#linearGradient1176"
       id="radialGradient1212"
       gradientUnits="userSpaceOnUse"
       gradientTransform="matrix(0.94060312,-0.01113736,0.00682553,0.57644935,35.5739,112.43998)"
       cx="11.00266"
       cy="277.87463"
       fx="11.106376"
       fy="274.71335"
       r="8.4970865"
       spreadMethod="pad" />
    <linearGradient
       inkscape:collect="always"
       xlink:href="#linearGradient1188-7"
       id="linearGradient1214"
       gradientUnits="userSpaceOnUse"
       gradientTransform="matrix(0.85647555,0,0,0.85647555,38.400534,34.22306)"
       x1="13.0966"
       y1="284.47833"
       x2="13.711998"
       y2="272.90738" />
    <radialGradient
       inkscape:collect="always"
       xlink:href="#linearGradient1236"
       id="radialGradient1242"
       gradientUnits="userSpaceOnUse"
       gradientTransform="matrix(0.89258962,-0.00925618,0.00522173,0.50354103,13.463508,116.19383)"
       cx="33.585678"
       cy="291.34131"
       fx="33.585678"
       fy="291.34131"
       r="7.4816355" />
    <radialGradient
       inkscape:collect="always"
       xlink:href="#linearGradient1259-3"
       id="radialGradient1244"
       gradientUnits="userSpaceOnUse"
       gradientTransform="matrix(0.80207098,-0.00949705,0.00582027,0.49154982,34.568911,125.90242)"
       cx="11.00266"
       cy="277.87463"
       fx="10.748796"
       fy="273.69638"
       r="8.4970865"
       spreadMethod="pad" />
    <linearGradient
       inkscape:collect="always"
       xlink:href="#linearGradient1188-5"
       id="linearGradient1246"
       gradientUnits="userSpaceOnUse"
       gradientTransform="matrix(0.73033373,0,0,0.73033373,36.979238,59.205302)"
       x1="13.0966"
       y1="284.47833"
       x2="13.711998"
       y2="272.90738" />
    <radialGradient
       inkscape:collect="always"
       xlink:href="#linearGradient1236"
       id="radialGradient1270"
       gradientUnits="userSpaceOnUse"
       gradientTransform="matrix(0.77845074,-0.00807255,0.004554,0.4391513,7.3270967,128.32214)"
       cx="33.585678"
       cy="291.34131"
       fx="33.585678"
       fy="291.34131"
       r="7.4816355" />
    <radialGradient
       inkscape:collect="always"
       xlink:href="#linearGradient1259"
       id="radialGradient1272"
       gradientUnits="userSpaceOnUse"
       gradientTransform="matrix(0.69950707,-0.00828262,0.00507601,0.42869345,25.73367,136.78925)"
       cx="10.802173"
       cy="275.56674"
       fx="10.802173"
       fy="275.56674"
       r="8.4970865"
       spreadMethod="pad" />
    <linearGradient
       inkscape:collect="always"
       xlink:href="#linearGradient1188"
       id="linearGradient1274"
       gradientUnits="userSpaceOnUse"
       gradientTransform="matrix(0.63694313,0,0,0.63694313,27.835779,78.620952)"
       x1="13.0966"
       y1="284.47833"
       x2="13.711998"
       y2="272.90738" />
    <filter
       inkscape:collect="always"
       style="color-interpolation-filters:sRGB"
       id="filter1306"
       x="-0.017716187"
       width="1.0354324"
       y="-0.022310001"
       height="1.04462">
      <feGaussianBlur
         inkscape:collect="always"
         stdDeviation="0.36722296"
         id="feGaussianBlur1308" />
    </filter>
    <linearGradient
       gradientUnits="userSpaceOnUse"
       y2="260.4595"
       x2="23.766293"
       y1="253.54547"
       x1="19.009657"
       id="linearGradient959"
       xlink:href="#linearGradient957"
       inkscape:collect="always" />
  </defs>
  <sodipodi:namedview
     id="base"
     pagecolor="#ff0000"
     bordercolor="#666666"
     borderopacity="1.0"
     inkscape:pageopacity="0"
     inkscape:pageshadow="2"
     inkscape:zoom="3.4823529"
     inkscape:cx="127.5"
     inkscape:cy="127.5"
     inkscape:document-units="mm"
     inkscape:current-layer="layer1"
     showgrid="false"
     units="px"
     inkscape:snap-to-guides="false"
     inkscape:snap-grids="false"
     inkscape:snap-others="false"
     inkscape:object-nodes="false"
     inkscape:snap-nodes="false"
     inkscape:snap-global="false"
     inkscape:window-width="1920"
     inkscape:window-height="1056"
     inkscape:window-x="0"
     inkscape:window-y="0"
     inkscape:window-maximized="1"
     inkscape:document-rotation="0" />
  <metadata
     id="metadata5">
    <rdf:RDF>
      <cc:Work
         rdf:about="">
        <dc:format>image/svg+xml</dc:format>
        <dc:type
           rdf:resource="http://purl.org/dc/dcmitype/StillImage" />
        <dc:title />
      </cc:Work>
    </rdf:RDF>
  </metadata>
  <g
     inkscape:label="Layer 1"
     inkscape:groupmode="layer"
     id="layer1"
     transform="translate(0,-229.53123)">
    <path
       sodipodi:nodetypes="ccccccscscsscc"
       d="m 21.11897,255.25099 c 3.16257,2e-5 5.726306,1.34031 5.726266,2.99362 4e-5,1.65331 -2.563696,2.9936 -5.726266,2.99362 -3.16257,-2e-5 -5.726305,-1.34031 -5.726265,-2.99362 -1.3e-5,-0.55145 0.285193,-1.06807 0.782707,-1.51175 l -0.0249,-3.70379 c -1.573336,0.69482 -3.190258,1.58042 -4.857814,2.69218 -3.7308772,2.48738 -4.9141722,6.55348 1.262972,6.66212 8.173546,0.14376 9.564354,3.57384 7.492566,9.73119 -4.863973,14.4557 4.645798,18.1744 13.45551,18.22111 11.903871,0.0631 23.224302,-5.90122 24.401092,-19.5926 0.743394,-8.64901 -6.654985,-14.70546 -18.902204,-17.83302 -3.934132,-1.00466 -7.917378,-2.01768 -12.141377,-2.07533 -1.513728,-0.0207 -3.058376,0.0814 -4.642771,0.3504"
       style="fill:#000000;fill-opacity:0.716186;stroke:none;stroke-width:0.555625;stroke-linecap:butt;stroke-linejoin:miter;stroke-miterlimit:4;stroke-dasharray:none;stroke-opacity:1;filter:url(#filter1306)"
       id="path1288"
       transform="matrix(1.0337722,0,0,1.0337722,-0.24745846,-7.762249)" />
    <g
       transform="matrix(1.0031199,0.24987082,-0.24987082,1.0031199,88.583605,-0.1728718)"
       id="g865">
      <path
         sodipodi:nodetypes="ccssc"
         d="m -5.3876739,251.80031 h 2.6712101 l -0.6792156,40.82728 c -0.037961,2.28183 -1.4296393,2.71388 -1.4637157,0.0755 z"
         style="fill:url(#linearGradient867);fill-opacity:1;stroke:url(#linearGradient869);stroke-width:0.171715;stroke-linecap:round;stroke-linejoin:round;stroke-opacity:1"
         id="path859" />
      <path
         sodipodi:nodetypes="ccccc"
         d="m -5.0391337,242.80795 h 1.9480578 l 0.3696498,8.95338 -2.6447047,0.0569 z"
         style="fill:url(#linearGradient871);fill-opacity:1;stroke:url(#linearGradient873);stroke-width:0.171715;stroke-linecap:round;stroke-linejoin:round;stroke-opacity:1"
         id="path861" />
      <path
         sodipodi:nodetypes="ccccc"
         id="path863"
         d="m -4.3505119,230.64828 c 2.4690022,4.12229 2.3793805,9.17994 1.2089047,12.16437 l -1.8882291,0.0284 c -3.601817,-3.88969 1.1575718,-5.71669 0.3143819,-12.13198 z"
         style="fill:url(#radialGradient875);fill-opacity:1;stroke:#845300;stroke-width:0.265;stroke-linecap:butt;stroke-linejoin:round;stroke-miterlimit:4;stroke-dasharray:none;stroke-opacity:1" />
    </g>
    <g
       id="g857"
       transform="matrix(1.0337722,0,0,1.0337722,22.664676,-8.4594919)">
      <path
         id="rect914"
         style="fill:url(#linearGradient923);fill-opacity:1;stroke:url(#linearGradient3809);stroke-width:0.171715;stroke-linecap:round;stroke-linejoin:round;stroke-opacity:1"
         d="m -5.3876739,251.80031 h 2.6712101 l -0.6792156,40.82728 c -0.037961,2.28183 -1.4296393,2.71388 -1.4637157,0.0755 z"
         sodipodi:nodetypes="ccssc" />
      <path
         id="rect925"
         style="fill:url(#linearGradient944);fill-opacity:1;stroke:url(#linearGradient3801);stroke-width:0.171715;stroke-linecap:round;stroke-linejoin:round;stroke-opacity:1"
         d="m -5.0391337,242.80795 h 1.9480578 l 0.3696498,8.95338 -2.6447047,0.0569 z"
         sodipodi:nodetypes="ccccc" />
      <path
         style="fill:url(#radialGradient936);fill-opacity:1;stroke:#845300;stroke-width:0.265;stroke-linecap:butt;stroke-linejoin:round;stroke-miterlimit:4;stroke-dasharray:none;stroke-opacity:1"
         d="m -4.3505119,230.64828 c 2.4690022,4.12229 2.3793805,9.17994 1.2089047,12.16437 l -1.8882291,0.0284 c -3.601817,-3.88969 1.1575718,-5.71669 0.3143819,-12.13198 z"
         id="path928"
         sodipodi:nodetypes="ccccc" />
    </g>
    <path
       id="path877"
       style="fill:url(#linearGradient899);fill-opacity:1;stroke:url(#linearGradient891);stroke-width:0.57439;stroke-linecap:butt;stroke-linejoin:miter;stroke-miterlimit:4;stroke-dasharray:none;stroke-opacity:1"
       d="m 22.171851,254.5085 c 3.269377,2e-5 5.919696,1.38558 5.919655,3.09472 4.1e-5,1.70915 -2.650278,3.0947 -5.919655,3.09472 -3.269377,-2e-5 -5.919695,-1.38557 -5.919654,-3.09472 -1.3e-5,-0.57007 0.294825,-1.10414 0.809141,-1.5628 l -0.02574,-3.82888 c -1.626471,0.71829 -3.298,1.6338 -5.021873,2.7831 -3.8568774,2.57139 -5.0801349,6.77481 1.305625,6.88712 8.449585,0.14861 9.887364,3.69453 7.745607,10.05983 -5.02824,14.9439 4.802697,18.78819 13.909932,18.83648 12.305891,0.0652 24.008638,-6.10052 25.225171,-20.25429 0.7685,-8.9411 -6.879739,-15.20209 -19.540573,-18.43528 -4.066997,-1.03859 -8.184766,-2.08582 -12.551418,-2.14542 -1.56485,-0.0214 -3.161665,0.0841 -4.799568,0.36224"
       sodipodi:nodetypes="ccccccscscsscc" />
    <g
       id="g1080"
       transform="matrix(1.0337722,0,0,1.0459842,-1.4706471,-11.367038)"
       style="filter:url(#filter1166)">
      <path
         style="color:#000000;font-style:normal;font-variant:normal;font-weight:normal;font-stretch:normal;font-size:medium;line-height:normal;font-family:Sans;-inkscape-font-specification:Sans;text-indent:0;text-align:start;text-decoration:none;text-decoration-line:none;letter-spacing:normal;word-spacing:normal;text-transform:none;writing-mode:lr-tb;direction:ltr;baseline-shift:baseline;text-anchor:start;display:inline;overflow:visible;visibility:visible;fill:url(#linearGradient1022);fill-opacity:1;stroke:none;stroke-width:1.45574;marker:none;enable-background:accumulate"
         d="m 24.415234,251.0108 c 4.163412,-0.12981 9.136331,0.35708 13.5,1.4375 6.066782,1.54927 10.599751,3.78712 14.147908,6.52673 3.548157,2.73961 5.070584,6.12469 4.542535,10.15723 -0.839279,6.4093 -2.89066,8.7697 -6.372226,12.19167 -4.877627,4.79413 -13.611635,5.5257 -16.989796,4.96433 -3.732838,-0.91467 -5.668307,-1.13591 -8.108947,-3.48524 -2.452904,-2.36114 -4.051846,-5.44732 -1.813224,-12.16722 1.069244,-3.20966 1.03231,-6.05926 -0.53125,-8.125 -3.383046,-2.98021 -6.714038,-2.35703 -8.71875,-1.78125 3.966168,0.0698 6.757887,1.09131 7.942392,2.65625 1.184505,1.56494 0.916645,3.85861 -0.06739,6.8125 -2.336412,7.01345 -1.30415,11.64802 1.59375,14.4375 2.8979,2.78948 7.402393,3.66832 11.84375,3.8125 h 0.03125 0.03125 c 5.82131,-0.20562 11.282071,-1.64153 15.53125,-4.75 4.249179,-3.10847 7.242764,-7.88765 8.125,-14.625 0.599066,-4.57488 -1.599526,-8.4045 -5.40625,-11.34375 -3.806724,-2.93925 -9.605705,-5.03323 -15.786142,-6.61152 -6.301125,-1.01515 -9.777635,-1.37275 -13.495108,-0.10718 z"
         id="path883"
         inkscape:connector-curvature="0"
         sodipodi:nodetypes="ccssscssccssscccsssccc" />
      <path
         d="m 28.666016,250.35352 c -1.118233,0.056 -2.248608,0.21157 -3.310547,0.51367 8.034704,-0.0295 16.196357,1.65671 23.228688,5.62897 3.041056,1.79331 6.210572,3.97589 7.552087,7.39422 1.225771,2.93528 0.608202,6.20543 -0.195031,9.16235 -0.816731,3.07708 -2.809526,5.66568 -5.080243,7.82987 -3.32242,3.54208 -8.209989,5.08744 -12.923548,5.57514 -2.163316,0.22302 -4.381979,0.19523 -6.47458,-0.46088 -2.274455,-0.48131 -4.583853,-1.2613 -6.259446,-2.95097 -1.868711,-1.63364 -3.103493,-4.01736 -3.080346,-6.52542 -0.08449,-2.52122 0.786902,-4.91464 1.464156,-7.30145 0.542411,-2.2129 0.555272,-4.82829 -0.971969,-6.68225 -1.888413,-1.72762 -4.635494,-2.53551 -7.189616,-1.99526 -0.91497,0.12889 0.24439,0.10612 0.587451,0.17692 2.197534,0.26465 4.636844,0.7983 6.109975,2.59407 1.28605,1.7645 0.784667,4.10352 0.225974,6.0387 -1.235396,3.71303 -2.231264,7.75583 -0.983354,11.59052 0.941326,3.01383 3.644342,5.16965 6.539372,6.13456 2.564081,0.88466 5.327815,1.24646 8.041582,1.21475 5.603644,-0.25525 11.397594,-1.75018 15.808992,-5.36587 4.078458,-3.28404 6.452277,-8.30127 7.149519,-13.42675 0.609678,-3.25035 -0.463013,-6.67042 -2.635309,-9.14196 -3.279122,-3.84804 -8.099158,-5.86738 -12.769823,-7.47168 -2.725387,-0.88067 -5.473648,-1.75257 -8.341047,-2.05245 -2.153464,-0.30861 -4.313239,-0.56765 -6.492937,-0.4788 z"
         style="color:#000000;font-style:normal;font-variant:normal;font-weight:normal;font-stretch:normal;font-size:medium;line-height:normal;font-family:Sans;-inkscape-font-specification:Sans;text-indent:0;text-align:start;text-decoration:none;text-decoration-line:none;letter-spacing:normal;word-spacing:normal;text-transform:none;writing-mode:lr-tb;direction:ltr;baseline-shift:baseline;text-anchor:start;display:inline;overflow:visible;visibility:visible;fill:url(#linearGradient1051);fill-opacity:1;stroke:none;stroke-width:1.45574;marker:none;enable-background:accumulate"
         id="path1049" />
      <path
         d="m 28.675781,250.48633 c -0.743032,0.0435 -1.460448,0.11181 -2.197265,0.25976 8.221128,0.13915 16.569816,2.07433 23.571647,6.49584 2.884369,1.78749 5.656161,4.24872 6.566014,7.64523 0.812763,3.10798 0.03368,6.36182 -0.911099,9.34526 -1.23159,3.28257 -3.696986,5.92341 -6.31479,8.1746 -3.774096,2.96926 -8.661577,4.12395 -13.381673,4.30165 -2.347986,0.10732 -4.632918,-0.53234 -6.858307,-1.1995 -2.848258,-0.88807 -5.318128,-3.02877 -6.509683,-5.77284 -1.271344,-2.97225 -0.470602,-6.2874 0.434137,-9.24138 0.826741,-2.44963 1.198417,-5.37674 -0.361984,-7.61156 -1.668023,-1.81889 -4.323105,-2.61596 -6.747934,-2.30136 2.314149,0.27204 4.918334,0.83531 6.378903,2.82565 1.255196,1.95512 0.614397,4.40688 -0.01972,6.46106 -1.2518,3.79676 -2.140479,8.04181 -0.515361,11.85687 1.371527,3.11561 4.58556,4.98913 7.776189,5.70952 4.98999,1.28282 10.284694,0.72664 15.150264,-0.85384 4.84246,-1.58491 9.212381,-4.85719 11.571976,-9.42039 1.555091,-2.89604 2.473878,-6.23232 2.634308,-9.50465 0.02382,-3.17781 -1.552832,-6.266 -3.895613,-8.39901 -3.679686,-3.50459 -8.552745,-5.28167 -13.306369,-6.79202 -2.820499,-0.9494 -5.756567,-1.46858 -8.710674,-1.77699 -1.44099,-0.16534 -2.896213,-0.25557 -4.352969,-0.2019 z"
         style="color:#000000;font-style:normal;font-variant:normal;font-weight:normal;font-stretch:normal;font-size:medium;line-height:normal;font-family:Sans;-inkscape-font-specification:Sans;text-indent:0;text-align:start;text-decoration:none;text-decoration-line:none;letter-spacing:normal;word-spacing:normal;text-transform:none;writing-mode:lr-tb;direction:ltr;baseline-shift:baseline;text-anchor:start;display:inline;overflow:visible;visibility:visible;fill:url(#linearGradient1056);fill-opacity:1;stroke:none;stroke-width:1.45574;marker:none;enable-background:accumulate"
         id="path1054" />
      <path
         d="m 28.685547,250.61914 c -1.070001,0.0401 -0.157875,0.0701 0.381033,0.1026 8.108968,0.51436 16.288426,2.84967 22.900627,7.67483 2.656358,1.95132 4.87159,4.85293 5.079668,8.24405 0.202555,2.81968 -0.503058,5.62704 -1.466797,8.25391 -1.443849,3.26224 -3.972044,5.92286 -6.752785,8.09524 -3.99363,2.81485 -8.985456,3.85156 -13.80405,3.85162 -2.393517,-0.13075 -4.740292,-0.77195 -6.978321,-1.60311 -3.470048,-1.49984 -6.262129,-4.97204 -6.194969,-8.8631 -0.05115,-2.69981 0.994034,-5.22922 1.605125,-7.81268 0.378052,-1.95182 0.314594,-4.22061 -1.054552,-5.8072 -1.32727,-1.32247 -3.216155,-2.02323 -5.050917,-2.101 2.090315,0.35919 4.427358,1.22021 5.410043,3.25276 0.991793,2.26291 0.06529,4.74269 -0.606386,6.95574 -1.094294,3.53116 -1.71609,7.49435 -0.137325,10.98467 1.441812,3.07329 4.741365,4.89487 7.988926,5.54965 5.506508,1.28448 11.348264,0.45931 16.562845,-1.65309 4.524258,-1.92165 8.368552,-5.46545 10.294718,-10.01997 1.202166,-2.72891 1.97233,-5.78406 1.925782,-8.74947 -0.214144,-3.50565 -2.339019,-6.61965 -5.077373,-8.70186 -4.052292,-3.21401 -9.062765,-4.79515 -13.941035,-6.25865 -3.563135,-0.90175 -7.235212,-1.42603 -10.90606,-1.3972 l -0.09999,0.001 z"
         style="color:#000000;font-style:normal;font-variant:normal;font-weight:normal;font-stretch:normal;font-size:medium;line-height:normal;font-family:Sans;-inkscape-font-specification:Sans;text-indent:0;text-align:start;text-decoration:none;text-decoration-line:none;letter-spacing:normal;word-spacing:normal;text-transform:none;writing-mode:lr-tb;direction:ltr;baseline-shift:baseline;text-anchor:start;display:inline;overflow:visible;visibility:visible;fill:url(#linearGradient1061);fill-opacity:1;stroke:none;stroke-width:1.45574;marker:none;enable-background:accumulate"
         id="path1059" />
      <path
         d="m 33.642578,251.07617 c 6.917997,1.06682 13.776506,3.52019 19.28527,7.91487 2.495287,2.07865 4.365296,5.14862 4.283627,8.4769 0.0027,2.78333 -0.699063,5.54969 -1.797413,8.09261 -1.603965,3.17474 -4.136462,5.81636 -7.013492,7.87099 -4.022812,2.62851 -8.934058,3.60594 -13.685924,3.51891 -2.538472,-0.21365 -5.053356,-0.8602 -7.376755,-1.90162 -3.322838,-1.6932 -5.845061,-5.25565 -5.617993,-9.07577 0.02046,-2.95964 1.422779,-5.67366 1.759583,-8.57455 0.195009,-1.83336 -0.23279,-4.0469 -1.883778,-5.15828 1.603508,1.21577 1.982726,3.41068 1.597384,5.2859 -0.554039,2.70461 -1.70721,5.28019 -1.917984,8.06016 -0.34628,3.16234 0.340918,6.7231 2.88995,8.87929 2.770258,2.46677 6.549874,3.15139 10.126314,3.38293 4.645878,0.18134 9.313194,-0.81436 13.508501,-2.82969 4.361442,-2.1809 7.882107,-6.03646 9.472282,-10.6661 0.9444,-2.6231 1.602541,-5.41117 1.291363,-8.20636 -0.545543,-3.68688 -3.160471,-6.7098 -6.197453,-8.69296 -3.900639,-2.66016 -8.51278,-4.10198 -13.024572,-5.40602 -2.368842,-0.57838 -4.794848,-0.99372 -7.214535,-1.17629 0.505208,0.0684 1.010417,0.13672 1.515625,0.20508 z"
         style="color:#000000;font-style:normal;font-variant:normal;font-weight:normal;font-stretch:normal;font-size:medium;line-height:normal;font-family:Sans;-inkscape-font-specification:Sans;text-indent:0;text-align:start;text-decoration:none;text-decoration-line:none;letter-spacing:normal;word-spacing:normal;text-transform:none;writing-mode:lr-tb;direction:ltr;baseline-shift:baseline;text-anchor:start;display:inline;overflow:visible;visibility:visible;fill:url(#linearGradient1066);fill-opacity:1;stroke:none;stroke-width:1.45574;marker:none;enable-background:accumulate"
         id="path1064" />
      <path
         d="m 42.623047,253.19336 c 3.999903,1.46819 7.864976,3.4809 11.074277,6.31082 2.363987,2.20613 3.92187,5.41203 3.6296,8.69171 -0.155222,2.83868 -0.877519,5.6779 -2.208474,8.19394 -1.811339,3.12803 -4.433015,5.78487 -7.504632,7.67838 -3.976863,2.28532 -8.660105,3.16381 -13.21095,2.98197 -2.711875,-0.29165 -5.435712,-0.96092 -7.834741,-2.28379 -3.127966,-1.88038 -5.326278,-5.48959 -4.966011,-9.19934 0.125661,-2.75068 1.372944,-5.3185 1.72015,-8.01236 -0.702277,3.20124 -2.08728,6.32158 -1.994141,9.63828 -0.0217,2.81973 1.015323,5.8285 3.38767,7.55952 2.989191,2.32104 6.877659,2.88452 10.550217,2.98293 4.685164,0.003 9.430818,-1.13443 13.533102,-3.41178 4.19373,-2.4132 7.372437,-6.44385 8.716173,-11.101 0.983358,-3.13307 1.583697,-6.65912 0.111209,-9.75217 -1.772994,-3.87774 -5.519112,-6.34617 -9.250728,-8.10952 -2.045361,-0.95483 -4.180597,-1.69891 -6.334752,-2.36681 0.19401,0.0664 0.38802,0.13281 0.582031,0.19922 z"
         style="color:#000000;font-style:normal;font-variant:normal;font-weight:normal;font-stretch:normal;font-size:medium;line-height:normal;font-family:Sans;-inkscape-font-specification:Sans;text-indent:0;text-align:start;text-decoration:none;text-decoration-line:none;letter-spacing:normal;word-spacing:normal;text-transform:none;writing-mode:lr-tb;direction:ltr;baseline-shift:baseline;text-anchor:start;display:inline;overflow:visible;visibility:visible;fill:url(#linearGradient1071);fill-opacity:1;stroke:none;stroke-width:1.45574;marker:none;enable-background:accumulate"
         id="path1069" />
    </g>
    <ellipse
       style="fill:url(#radialGradient1178);fill-opacity:1;stroke:url(#linearGradient1190);stroke-width:0.545044;stroke-linecap:round;stroke-linejoin:round;stroke-opacity:1"
       id="path1170"
       cx="33.71962"
       cy="280.79684"
       rx="8.5115299"
       ry="5.2474623" />
    <path
       style="fill:url(#radialGradient1200);fill-opacity:1;stroke:none;stroke-width:0.273519px;stroke-linecap:butt;stroke-linejoin:miter;stroke-opacity:1"
       d="m 26.165572,278.3005 c 7.273649,-2.65463 11.283345,-1.88778 15.468614,0.55818 -3.584823,-4.19228 -11.130915,-3.92011 -15.468614,-0.55818 z"
       id="path1192"
       sodipodi:nodetypes="ccc" />
    <ellipse
       ry="4.3474984"
       rx="7.0517635"
       cy="272.95352"
       cx="47.827633"
       id="ellipse1206"
       style="fill:url(#radialGradient1212);fill-opacity:1;stroke:url(#linearGradient1214);stroke-width:0.451566;stroke-linecap:round;stroke-linejoin:round;stroke-opacity:1" />
    <path
       sodipodi:nodetypes="ccc"
       id="path1208"
       d="m 41.569137,270.88533 c 6.026185,-2.19934 9.3482,-1.56401 12.815676,0.46246 -2.97001,-3.4733 -9.221913,-3.2478 -12.815676,-0.46246 z"
       style="fill:url(#radialGradient1210);fill-opacity:1;stroke:none;stroke-width:0.226609px;stroke-linecap:butt;stroke-linejoin:miter;stroke-opacity:1" />
    <ellipse
       style="fill:url(#radialGradient1244);fill-opacity:1;stroke:url(#linearGradient1246);stroke-width:0.385059;stroke-linecap:round;stroke-linejoin:round;stroke-opacity:1"
       id="ellipse1238"
       cx="45.017914"
       cy="262.77554"
       rx="6.0131788"
       ry="3.7071986" />
    <path
       style="fill:url(#radialGradient1242);fill-opacity:1;stroke:none;stroke-width:0.193234px;stroke-linecap:butt;stroke-linejoin:miter;stroke-opacity:1"
       d="m 39.681168,261.01193 c 5.138648,-1.87543 7.971396,-1.33367 10.928183,0.39434 -2.532587,-2.96174 -7.863709,-2.76946 -10.928183,-0.39434 z"
       id="path1240"
       sodipodi:nodetypes="ccc" />
    <ellipse
       ry="3.2331448"
       rx="5.2442503"
       cy="256.15985"
       cx="34.846523"
       id="ellipse1266"
       style="fill:url(#radialGradient1272);fill-opacity:1;stroke:url(#linearGradient1274);stroke-width:0.335821;stroke-linecap:round;stroke-linejoin:round;stroke-opacity:1" />
    <path
       sodipodi:nodetypes="ccc"
       id="path1268"
       d="m 30.192204,254.62178 c 4.481549,-1.6356 6.952062,-1.16313 9.530753,0.34393 -2.208735,-2.58303 -6.858146,-2.41533 -9.530753,-0.34393 z"
       style="fill:url(#radialGradient1270);fill-opacity:1;stroke:none;stroke-width:0.168525px;stroke-linecap:butt;stroke-linejoin:miter;stroke-opacity:1" />
    <path
       d="m 22.474355,254.19062 a 6.0535927,3.3057654 0 0 1 5.586215,2.58898 6.0535927,3.3057654 0 0 1 -3.073577,3.632 6.0535927,3.3057654 0 0 1 -7.230876,-0.6455 6.0535927,3.3057654 0 0 1 -0.795639,-3.97741"
       sodipodi:arc-type="arc"
       sodipodi:open="true"
       sodipodi:end="3.6827602"
       sodipodi:start="4.7661508"
       sodipodi:ry="3.3057654"
       sodipodi:rx="6.0535927"
       sodipodi:cy="257.49161"
       sodipodi:cx="22.149059"
       sodipodi:type="arc"
       id="path951"
       style="fill:none;fill-opacity:0.716186;stroke:url(#linearGradient959);stroke-width:0.555625;stroke-linecap:round;stroke-linejoin:round;stroke-opacity:1" />
  </g>
</svg>
