<?xml version="1.0" encoding="UTF-8" standalone="no"?>
<svg
   xmlns:dc="http://purl.org/dc/elements/1.1/"
   xmlns:cc="http://creativecommons.org/ns#"
   xmlns:rdf="http://www.w3.org/1999/02/22-rdf-syntax-ns#"
   xmlns:svg="http://www.w3.org/2000/svg"
   xmlns="http://www.w3.org/2000/svg"
   xmlns:xlink="http://www.w3.org/1999/xlink"
   xmlns:sodipodi="http://sodipodi.sourceforge.net/DTD/sodipodi-0.dtd"
   xmlns:inkscape="http://www.inkscape.org/namespaces/inkscape"
   height="255"
   width="255"
   inkscape:version="1.0 (4035a4f, 2020-05-01)"
   version="1.1"
   viewBox="0 0 255 255.00001"
   sodipodi:docname="key-mon.svg"
   id="svg15282">
  <defs
     id="defs15284">
    <linearGradient
       id="linearGradient1528"
       inkscape:collect="always">
      <stop
         id="stop1524"
         offset="0"
         style="stop-color:#4f4f4f;stop-opacity:1" />
      <stop
         style="stop-color:#000000;stop-opacity:1"
         offset="0.06884921"
         id="stop1534" />
      <stop
         style="stop-color:#030303;stop-opacity:1"
         offset="0.73317218"
         id="stop1532" />
      <stop
         id="stop1526"
         offset="1"
         style="stop-color:#646464;stop-opacity:1" />
    </linearGradient>
    <filter
       style="color-interpolation-filters:sRGB"
       inkscape:collect="always"
       x="-0.075259"
       y="-0.20135"
       width="1.1505001"
       height="1.4026999"
       id="filter7531">
      <feGaussianBlur
         inkscape:collect="always"
         stdDeviation="1.8952813"
         id="feGaussianBlur7533" />
    </filter>
    <linearGradient
       inkscape:collect="always"
       x1="166.59"
       y1="-378.84"
       gradientTransform="matrix(0.37873879,-0.18211982,0.10040396,0.80708988,-537.08797,949.51471)"
       x2="163.32001"
       gradientUnits="userSpaceOnUse"
       y2="-362.54999"
       id="linearGradient12076">
      <stop
         offset="0"
         style="stop-color:#4b4944"
         id="stop7507" />
      <stop
         offset=".71651"
         style="stop-color:#b3b3b3"
         id="stop7513" />
      <stop
         offset="1"
         style="stop-color:#b3b3b3"
         id="stop7509" />
    </linearGradient>
    <linearGradient
       inkscape:collect="always"
       x1="480.31"
       y1="-393.23999"
       gradientTransform="matrix(0.37873879,-0.18211982,0.10040396,0.80708988,-524.86766,980.99842)"
       x2="352.23999"
       gradientUnits="userSpaceOnUse"
       y2="-381.23999"
       id="linearGradient12078">
      <stop
         offset="0"
         style="stop-color:#550000"
         id="stop7484" />
      <stop
         offset=".65262"
         style="stop-color:#800000"
         id="stop7490" />
      <stop
         offset="1"
         style="stop-color:#ff0000"
         id="stop7486" />
    </linearGradient>
    <filter
       style="color-interpolation-filters:sRGB"
       inkscape:collect="always"
       x="-0.12797999"
       y="-0.38508999"
       width="1.256"
       height="1.7702"
       id="filter8454">
      <feGaussianBlur
         inkscape:collect="always"
         stdDeviation="6.610393"
         id="feGaussianBlur8456" />
    </filter>
    <radialGradient
       inkscape:collect="always"
       r="61.965"
       gradientTransform="matrix(0.98054,0.22175,-0.13293,0.38076,-150.68,-474.09)"
       cx="751.65997"
       cy="-530.21997"
       gradientUnits="userSpaceOnUse"
       id="radialGradient12080">
      <stop
         offset="0"
         style="stop-color:#4d4d4d"
         id="stop7634-1" />
      <stop
         offset="1"
         style="stop-color:#4d4d4d;stop-opacity:0"
         id="stop7636-2" />
    </radialGradient>
    <linearGradient
       inkscape:collect="always"
       x1="790.10999"
       y1="-511.64999"
       gradientTransform="matrix(1,0,0,0.81759,-93.498,-78.616)"
       x2="744.34003"
       gradientUnits="userSpaceOnUse"
       y2="-498.98001"
       id="linearGradient12082">
      <stop
         offset="0"
         style="stop-color:#ff0000"
         id="stop7616-9" />
      <stop
         offset="1"
         style="stop-color:#800000"
         id="stop7618-0" />
    </linearGradient>
    <linearGradient
       inkscape:collect="always"
       x1="731.98999"
       y1="-509.45001"
       gradientTransform="matrix(1,0,0,0.81759,-92.889,-78.782)"
       x2="795.57001"
       gradientUnits="userSpaceOnUse"
       y2="-488.10999"
       id="linearGradient12084">
      <stop
         offset="0"
         style="stop-color:#ffffff;stop-opacity:0"
         id="stop7626-4" />
      <stop
         offset=".37144"
         style="stop-color:#ffffff;stop-opacity:.625"
         id="stop7739-1" />
      <stop
         offset="1"
         style="stop-color:#000000;stop-opacity:0"
         id="stop7628-0" />
    </linearGradient>
    <filter
       style="color-interpolation-filters:sRGB"
       inkscape:collect="always"
       height="1.5836999"
       x="-0.13287"
       y="-0.29187"
       width="1.2657"
       id="filter8275">
      <feGaussianBlur
         inkscape:collect="always"
         stdDeviation="0.4937335"
         id="feGaussianBlur8277" />
    </filter>
    <filter
       height="1.0574477"
       y="-0.028723853"
       width="1.0412209"
       x="-0.020610456"
       id="filter2974"
       style="color-interpolation-filters:sRGB"
       inkscape:collect="always">
      <feGaussianBlur
         id="feGaussianBlur2976"
         stdDeviation="1.8529061"
         inkscape:collect="always" />
    </filter>
    <linearGradient
       gradientUnits="userSpaceOnUse"
       y2="539.07373"
       x2="-341.65048"
       y1="475.18109"
       x1="-418.35403"
       id="linearGradient1530"
       xlink:href="#linearGradient1528"
       inkscape:collect="always" />
  </defs>
  <sodipodi:namedview
     inkscape:document-rotation="0"
     inkscape:snap-global="false"
     inkscape:snap-bbox="true"
     inkscape:snap-nodes="false"
     inkscape:object-nodes="false"
     inkscape:snap-others="false"
     inkscape:snap-grids="false"
     inkscape:snap-to-guides="false"
     inkscape:document-units="px"
     inkscape:pageopacity="0"
     inkscape:window-width="1920"
     fit-margin-bottom="0"
     fit-margin-right="0"
     inkscape:cy="127.5"
     inkscape:cx="169.92555"
     inkscape:current-layer="layer1"
     borderopacity="1.0"
     showgrid="false"
     inkscape:window-height="1056"
     inkscape:window-x="0"
     inkscape:zoom="3.5058824"
     inkscape:window-maximized="1"
     fit-margin-top="0"
     pagecolor="#ff0000"
     fit-margin-left="0"
     inkscape:window-y="0"
     inkscape:pageshadow="2"
     bordercolor="#666666"
     id="base" />
  <g
     transform="translate(531.84,-404.32597)"
     inkscape:groupmode="layer"
     inkscape:label="Layer 1"
     id="layer1">
    <path
       transform="matrix(1.1357441,0,0,1.1357441,66.219129,-67.333526)"
       inkscape:connector-curvature="0"
       sodipodi:nodetypes="ccccc"
       d="m -521.19921,611.00357 135.55605,-154.44513 80.20699,11.1566 -113.86144,143.66158 z"
       style="fill:#000000;fill-opacity:1;stroke-width:0.50848562;filter:url(#filter2974)"
       id="path7464" />
    <path
       transform="matrix(0.37873875,-0.1821198,0.10040395,0.80708979,-508.58549,933.84288)"
       inkscape:connector-curvature="0"
       sodipodi:nodetypes="csssscc"
       d="m 156.82,-369.65 -28.221,7.9965 c -1.6065,0.45521 -3.284,1.8946 -4.8958,1.4584 l -34.666,-9.3807 c -1.6118,-0.43617 -1.9107,-2.2141 -0.45268,-3.028 l 33.921,-7.0401 z"
       style="fill:#4d4d4d;filter:url(#filter7531)"
       id="path7521" />
    <path
       inkscape:connector-curvature="0"
       style="fill:#333333;stroke-width:0.46832141"
       sodipodi:nodetypes="csssscc"
       d="m -496.23156,601.70726 -0.45244,16.58023 c -0.0375,1.37539 -0.56053,2.38173 -1.21475,2.32322 L -511.97,619.35293 c -0.65427,-0.0584 -1.16183,-1.27447 -1.1462,-2.65341 l 0.19649,-17.32639 z"
       id="path7515" />
    <path
       d="m -496.61763,602.23322 -0.45245,16.58023 c -0.0375,1.37539 -0.56055,2.38168 -1.21473,2.32323 l -14.07127,-1.25781 c -0.65425,-0.0584 -1.16181,-1.27446 -1.14619,-2.65337 l 0.19648,-17.32641 z"
       inkscape:connector-curvature="0"
       style="fill:url(#linearGradient12076);stroke-width:0.46832141"
       sodipodi:nodetypes="csssscc"
       id="rect7502" />
    <path
       inkscape:connector-curvature="0"
       style="fill:url(#linearGradient12078);stroke-width:0.46832141"
       sodipodi:nodetypes="sssssssscs"
       d="m -519.21036,599.24883 138.58804,-159.78304 c 2.33619,-2.69341 5.60129,-2.18381 6.84542,-2.02361 l 91.71962,11.80979 c 1.24394,0.16014 5.5078,5.05754 3.13887,8.07211 l -130.45437,166.00846 c -2.67929,3.4094 -7.40589,-2.09419 -13.00974,-2.96785 l -96.54881,-15.05144 c -2.03423,-0.31712 -2.40946,-1.68437 -2.63436,-5.05696 0.27208,-0.96132 1.43861,0.0494 2.35607,-1.00846 z"
       id="path11143" />
    <path
       d="m -519.60985,596.04194 138.58807,-159.78306 c 2.33618,-2.6934 5.60125,-2.18378 6.84539,-2.02361 l 91.71963,11.8098 c 1.24395,0.16017 5.50779,5.05752 3.13888,8.0721 l -130.45774,166.01838 c -2.67929,3.4094 -7.40587,-2.0942 -13.00973,-2.96786 l -96.54883,-15.05143 c -3.36582,-0.52469 -2.59725,-3.39186 -0.27826,-6.06531 z"
       inkscape:connector-curvature="0"
       style="fill:url(#linearGradient1530);stroke-width:0.46832141;fill-opacity:1"
       sodipodi:nodetypes="sssssssss"
       id="rect11140" />
    <rect
       x="-786.27478"
       y="-5.9650669"
       width="213.83054"
       height="78.031578"
       ry="2.2665315"
       transform="matrix(0.64636828,-0.76302559,0.99053305,0.13727445,0,0)"
       style="fill:#000000;fill-rule:evenodd;stroke-width:0.46832064"
       id="rect6907" />
    <g
       transform="matrix(0.20088021,-0.23713994,0.42376892,0.05872746,-540.98085,606.5516)"
       style="fill:#070707;fill-rule:evenodd"
       id="g10928">
      <path
         inkscape:connector-curvature="0"
         style="fill:#070707;stroke-width:0"
         d="m 605.25,89.992 h 20 c 2,0 3,1 3,2 v 18 c 0,1 -1,2 -3,2 h -20 c -1,0 -3,-1 -3,-2 v -18 c 0,-1 2,-2 3,-2 z"
         id="path10930" />
      <path
         inkscape:connector-curvature="0"
         style="fill:#070707;stroke-width:0"
         d="m 635.25,89.992 h 19 c 2,0 3,1 3,2 v 18 c 0,1 -1,2 -3,2 h -19 c -1,0 -3,-1 -3,-2 v -18 c 0,-1 2,-2 3,-2 z"
         id="path10932" />
      <path
         inkscape:connector-curvature="0"
         style="fill:#070707;stroke-width:0"
         d="m 664.25,89.992 h 20 c 2,0 3,1 3,2 v 18 c 0,1 -1,2 -3,2 h -20 c -1,0 -3,-1 -3,-2 v -18 c 0,-1 2,-2 3,-2 z"
         id="path10934" />
      <path
         inkscape:connector-curvature="0"
         style="fill:#070707;stroke-width:0"
         d="m 605.25,115.35 h 20 c 2,0 3,2 3,3 v 18 c 0,2 -1,3 -3,3 h -20 c -1,0 -3,-1 -3,-3 v -18 c 0,-1 2,-3 3,-3 z"
         id="path10936" />
      <path
         inkscape:connector-curvature="0"
         style="fill:#070707;stroke-width:0"
         d="m 635.25,115.35 h 19 c 2,0 3,2 3,3 v 18 c 0,2 -1,3 -3,3 h -19 c -1,0 -3,-1 -3,-3 v -18 c 0,-1 2,-3 3,-3 z"
         id="path10938" />
      <path
         inkscape:connector-curvature="0"
         style="fill:#070707;stroke-width:0"
         d="m 664.25,115.35 h 20 c 2,0 3,2 3,3 v 18 c 0,2 -1,3 -3,3 h -20 c -1,0 -3,-1 -3,-3 v -18 c 0,-1 2,-3 3,-3 z"
         id="path10940" />
      <path
         inkscape:connector-curvature="0"
         style="fill:#070707;stroke-width:0"
         d="m 605.25,143.36 h 20 c 2,0 3,1 3,3 v 18 c 0,2 -1,3 -3,3 h -20 c -1,0 -3,-1 -3,-3 v -18 c 0,-2 2,-3 3,-3 z"
         id="path10942" />
      <path
         inkscape:connector-curvature="0"
         style="fill:#070707;stroke-width:0"
         d="m 635.25,143.36 h 19 c 2,0 3,1 3,3 v 18 c 0,2 -1,3 -3,3 h -19 c -1,0 -3,-1 -3,-3 v -18 c 0,-2 2,-3 3,-3 z"
         id="path10944" />
      <path
         inkscape:connector-curvature="0"
         style="fill:#070707;stroke-width:0"
         d="m 664.25,143.36 h 20 c 2,0 3,1 3,3 v 18 c 0,2 -1,3 -3,3 h -20 c -1,0 -3,-1 -3,-3 v -18 c 0,-2 2,-3 3,-3 z"
         id="path10946" />
      <path
         inkscape:connector-curvature="0"
         style="fill:#070707;stroke-width:0"
         d="m 605.25,171.36 h 20 c 2,0 3,1 3,3 v 17 c 0,1 -1,3 -3,3 h -20 c -1,0 -3,-2 -3,-3 v -17 c 0,-2 2,-3 3,-3 z"
         id="path10948" />
      <path
         inkscape:connector-curvature="0"
         style="fill:#070707;stroke-width:0"
         d="m 635.25,171.36 h 19 c 2,0 3,1 3,3 v 17 c 0,1 -1,3 -3,3 h -19 c -1,0 -3,-2 -3,-3 v -17 c 0,-2 2,-3 3,-3 z"
         id="path10950" />
      <path
         inkscape:connector-curvature="0"
         style="fill:#070707;stroke-width:0"
         d="m 664.25,171.36 h 20 c 2,0 3,1 3,3 v 17 c 0,1 -1,3 -3,3 h -20 c -1,0 -3,-2 -3,-3 v -17 c 0,-2 2,-3 3,-3 z"
         id="path10952" />
      <path
         inkscape:connector-curvature="0"
         style="fill:#070707;stroke-width:0"
         d="m 664.25,198.36 h 20 c 2,0 3,1 3,2 v 19 c 0,1 -1,2 -3,2 h -20 c -1,0 -3,-1 -3,-2 v -19 c 0,-1 2,-2 3,-2 z"
         id="path10954" />
      <path
         inkscape:connector-curvature="0"
         style="fill:#070707;stroke-width:0"
         d="m 694.25,89.992 h 20 c 2,0 3,1 3,2 v 18 c 0,1 -1,2 -3,2 h -20 c -1,0 -3,-1 -3,-2 v -18 c 0,-1 2,-2 3,-2 z"
         id="path10956" />
      <path
         inkscape:connector-curvature="0"
         style="fill:#070707;stroke-width:0"
         d="m 717.25,118.35 c 0,-1 -1,-3 -3,-3 h -20 c -1,0 -3,2 -3,3 v 46.002 c 0,2 2,3 3,3 h 20 c 2,0 3,-1 3,-3 z"
         sodipodi:nodetypes="sssssssss"
         id="path10958" />
      <path
         inkscape:connector-curvature="0"
         style="fill:#070707;stroke-width:0"
         d="m 717.25,174.36 c 0,-2 -1,-3 -3,-3 h -20 c -1,0 -3,1 -3,3 v 45.002 c 0,1 2,2 3,2 h 20 c 2,0 3,-1 3,-2 z"
         sodipodi:nodetypes="sssssssss"
         id="path10960" />
      <path
         inkscape:connector-curvature="0"
         style="fill:#070707;stroke-width:0"
         d="m 605.25,221.36 c -1,0 -3,-1 -3,-2 v -19 c 0,-1 2,-2 3,-2 h 49 c 2,0 3,1 3,2 v 19 c 0,1 -1,2 -3,2 z"
         id="path10962" />
      <path
         inkscape:connector-curvature="0"
         style="fill:#070707;stroke-width:0"
         d="m 47,89.992 h 20 c 1,0 3,1 3,3 v 17 c 0,2 -2,3 -3,3 H 47 c -2,0 -3,-1 -3,-3 v -17 c 0,-2 1,-3 3,-3 z"
         id="path10964" />
      <path
         inkscape:connector-curvature="0"
         style="fill:#070707;stroke-width:0"
         d="m 77,89.992 h 20 c 2,0 3,1 3,3 v 17 c 0,2 -1,3 -3,3 H 77 c -2,0 -3,-1 -3,-3 v -17 c 0,-2 1,-3 3,-3 z"
         id="path10966" />
      <path
         inkscape:connector-curvature="0"
         style="fill:#070707;stroke-width:0"
         d="m 106,89.992 h 20 c 2,0 3,1 3,3 v 17 c 0,2 -1,3 -3,3 h -20 c -1,0 -2,-1 -2,-3 v -17 c 0,-2 1,-3 2,-3 z"
         id="path10968" />
      <path
         inkscape:connector-curvature="0"
         style="fill:#070707;stroke-width:0"
         d="m 136,89.992 h 20 c 2,0 3,1 3,3 v 17 c 0,2 -1,3 -3,3 h -20 c -2,0 -3,-1 -3,-3 v -17 c 0,-2 1,-3 3,-3 z"
         id="path10970" />
      <path
         inkscape:connector-curvature="0"
         style="fill:#070707;stroke-width:0"
         d="m 166,89.992 h 20 c 2,0 3,1 3,3 v 17 c 0,2 -1,3 -3,3 h -20 c -1,0 -3,-1 -3,-3 v -17 c 0,-2 2,-3 3,-3 z"
         id="path10972" />
      <path
         inkscape:connector-curvature="0"
         style="fill:#070707;stroke-width:0"
         d="m 196,89.992 h 19 c 2,0 3,1 3,3 v 17 c 0,2 -1,3 -3,3 h -19 c -1,0 -3,-1 -3,-3 v -17 c 0,-2 2,-3 3,-3 z"
         id="path10974" />
      <path
         inkscape:connector-curvature="0"
         style="fill:#070707;stroke-width:0"
         d="m 225,89.992 h 20 c 2,0 3,1 3,3 v 17 c 0,2 -1,3 -3,3 h -20 c -1,0 -3,-1 -3,-3 v -17 c 0,-2 2,-3 3,-3 z"
         id="path10976" />
      <path
         inkscape:connector-curvature="0"
         style="fill:#070707;stroke-width:0"
         d="m 255,89.992 h 20 c 2,0 3,1 3,3 v 17 c 0,2 -1,3 -3,3 h -20 c -1,0 -3,-1 -3,-3 v -17 c 0,-2 2,-3 3,-3 z"
         id="path10978" />
      <path
         inkscape:connector-curvature="0"
         style="fill:#070707;stroke-width:0"
         d="m 285,89.992 h 19 c 2,0 3,1 3,3 v 17 c 0,2 -1,3 -3,3 h -19 c -1,0 -3,-1 -3,-3 v -17 c 0,-2 2,-3 3,-3 z"
         id="path10980" />
      <path
         inkscape:connector-curvature="0"
         style="fill:#070707;stroke-width:0"
         d="m 314,89.992 h 20 c 2,0 3,1 3,3 v 17 c 0,2 -1,3 -3,3 h -20 c -1,0 -3,-1 -3,-3 v -17 c 0,-2 2,-3 3,-3 z"
         id="path10982" />
      <path
         inkscape:connector-curvature="0"
         style="fill:#070707;stroke-width:0"
         d="m 344,89.992 h 20 c 2,0 3,1 3,3 v 17 c 0,2 -1,3 -3,3 h -20 c -1,0 -3,-1 -3,-3 v -17 c 0,-2 2,-3 3,-3 z"
         id="path10984" />
      <path
         inkscape:connector-curvature="0"
         style="fill:#070707;stroke-width:0"
         d="m 374,89.992 h 20 c 1,0 2,1 2,3 v 17 c 0,2 -1,3 -2,3 h -20 c -1,0 -3,-1 -3,-3 v -17 c 0,-2 2,-3 3,-3 z"
         id="path10986" />
      <path
         inkscape:connector-curvature="0"
         style="fill:#070707;stroke-width:0"
         d="m 403,89.992 h 20 c 2,0 3,1 3,3 v 17 c 0,2 -1,3 -3,3 h -20 c -1,0 -2,-1 -2,-3 v -17 c 0,-2 1,-3 2,-3 z"
         id="path10988" />
      <path
         inkscape:connector-curvature="0"
         style="fill:#070707;stroke-width:0"
         d="m 433,89.992 h 20 c 2,0 3,1 3,3 v 17 c 0,2 -1,3 -3,3 h -20 c -1,0 -2,-1 -2,-3 v -17 c 0,-2 1,-3 2,-3 z"
         id="path10990" />
      <path
         inkscape:connector-curvature="0"
         style="fill:#070707;stroke-width:0"
         d="m 463,89.992 h 20 c 2,0 3,1 3,3 v 17 c 0,2 -1,3 -3,3 h -20 c -1,0 -2,-1 -2,-3 v -17 c 0,-2 1,-3 2,-3 z"
         id="path10992" />
      <path
         inkscape:connector-curvature="0"
         style="fill:#070707;stroke-width:0"
         d="m 95,116.35 h 19 c 2,0 3,1 3,3 v 18 c 0,1 -1,3 -3,3 H 95 c -1,0 -3,-2 -3,-3 v -18 c 0,-2 2,-3 3,-3 z"
         id="path10994" />
      <path
         inkscape:connector-curvature="0"
         style="fill:#070707;stroke-width:0"
         d="m 124,116.35 h 20 c 2,0 3,1 3,3 v 18 c 0,1 -1,3 -3,3 h -20 c -1,0 -3,-2 -3,-3 v -18 c 0,-2 2,-3 3,-3 z"
         id="path10996" />
      <path
         inkscape:connector-curvature="0"
         style="fill:#070707;stroke-width:0"
         d="m 154,116.35 h 20 c 2,0 3,1 3,3 v 18 c 0,1 -1,3 -3,3 h -20 c -1,0 -3,-2 -3,-3 v -18 c 0,-2 2,-3 3,-3 z"
         id="path10998" />
      <path
         inkscape:connector-curvature="0"
         style="fill:#070707;stroke-width:0"
         d="m 184,116.35 h 19 c 2,0 3,1 3,3 v 18 c 0,1 -1,3 -3,3 h -19 c -1,0 -3,-2 -3,-3 v -18 c 0,-2 2,-3 3,-3 z"
         id="path11000" />
      <path
         inkscape:connector-curvature="0"
         style="fill:#070707;stroke-width:0"
         d="m 213,116.35 h 20 c 2,0 3,1 3,3 v 18 c 0,1 -1,3 -3,3 h -20 c -1,0 -2,-2 -2,-3 v -18 c 0,-2 1,-3 2,-3 z"
         id="path11002" />
      <path
         inkscape:connector-curvature="0"
         style="fill:#070707;stroke-width:0"
         d="m 243,116.35 h 20 c 2,0 3,1 3,3 v 18 c 0,1 -1,3 -3,3 h -20 c -1,0 -2,-2 -2,-3 v -18 c 0,-2 1,-3 2,-3 z"
         id="path11004" />
      <path
         inkscape:connector-curvature="0"
         style="fill:#070707;stroke-width:0"
         d="m 273,116.35 h 20 c 2,0 3,1 3,3 v 18 c 0,1 -1,3 -3,3 h -20 c -1,0 -2,-2 -2,-3 v -18 c 0,-2 1,-3 2,-3 z"
         id="path11006" />
      <path
         inkscape:connector-curvature="0"
         style="fill:#070707;stroke-width:0"
         d="m 302,116.35 h 20 c 2,0 3,1 3,3 v 18 c 0,1 -1,3 -3,3 h -20 c -1,0 -2,-2 -2,-3 v -18 c 0,-2 1,-3 2,-3 z"
         id="path11008" />
      <path
         inkscape:connector-curvature="0"
         style="fill:#070707;stroke-width:0"
         d="m 332,116.35 h 20 c 2,0 3,1 3,3 v 18 c 0,1 -1,3 -3,3 h -20 c -1,0 -2,-2 -2,-3 v -18 c 0,-2 1,-3 2,-3 z"
         id="path11010" />
      <path
         inkscape:connector-curvature="0"
         style="fill:#070707;stroke-width:0"
         d="m 362,116.35 h 20 c 2,0 3,1 3,3 v 18 c 0,1 -1,3 -3,3 h -20 c -1,0 -2,-2 -2,-3 v -18 c 0,-2 1,-3 2,-3 z"
         id="path11012" />
      <path
         inkscape:connector-curvature="0"
         style="fill:#070707;stroke-width:0"
         d="m 392,116.35 h 19 c 2,0 3,1 3,3 v 18 c 0,1 -1,3 -3,3 h -19 c -1,0 -2,-2 -2,-3 v -18 c 0,-2 1,-3 2,-3 z"
         id="path11014" />
      <path
         inkscape:connector-curvature="0"
         style="fill:#070707;stroke-width:0"
         d="m 421,116.35 h 20 c 2,0 3,1 3,3 v 18 c 0,1 -1,3 -3,3 h -20 c -1,0 -2,-2 -2,-3 v -18 c 0,-2 1,-3 2,-3 z"
         id="path11016" />
      <path
         inkscape:connector-curvature="0"
         style="fill:#070707;stroke-width:0"
         d="m 103,144.36 h 19 c 1,0 3,1 3,2 v 19 c 0,1 -2,2 -3,2 h -19 c -2,0 -3,-1 -3,-2 v -19 c 0,-1 1,-2 3,-2 z"
         id="path11018" />
      <path
         inkscape:connector-curvature="0"
         style="fill:#070707;stroke-width:0"
         d="m 132,144.36 h 20 c 1,0 3,1 3,2 v 19 c 0,1 -2,2 -3,2 h -20 c -2,0 -3,-1 -3,-2 v -19 c 0,-1 1,-2 3,-2 z"
         id="path11020" />
      <path
         inkscape:connector-curvature="0"
         style="fill:#070707;stroke-width:0"
         d="m 162,144.36 h 20 c 2,0 3,1 3,2 v 19 c 0,1 -1,2 -3,2 h -20 c -2,0 -3,-1 -3,-2 v -19 c 0,-1 1,-2 3,-2 z"
         id="path11022" />
      <path
         inkscape:connector-curvature="0"
         style="fill:#070707;stroke-width:0"
         d="m 192,144.36 h 19 c 2,0 3,1 3,2 v 19 c 0,1 -1,2 -3,2 h -19 c -2,0 -3,-1 -3,-2 v -19 c 0,-1 1,-2 3,-2 z"
         id="path11024" />
      <path
         inkscape:connector-curvature="0"
         style="fill:#070707;stroke-width:0"
         d="m 221,144.36 h 20 c 2,0 3,1 3,2 v 19 c 0,1 -1,2 -3,2 h -20 c -2,0 -3,-1 -3,-2 v -19 c 0,-1 1,-2 3,-2 z"
         id="path11026" />
      <path
         inkscape:connector-curvature="0"
         style="fill:#070707;stroke-width:0"
         d="m 251,144.36 h 20 c 2,0 3,1 3,2 v 19 c 0,1 -1,2 -3,2 h -20 c -1,0 -3,-1 -3,-2 v -19 c 0,-1 2,-2 3,-2 z"
         id="path11028" />
      <path
         inkscape:connector-curvature="0"
         style="fill:#070707;stroke-width:0"
         d="m 281,144.36 h 19 c 2,0 3,1 3,2 v 19 c 0,1 -1,2 -3,2 h -19 c -1,0 -3,-1 -3,-2 v -19 c 0,-1 2,-2 3,-2 z"
         id="path11030" />
      <path
         inkscape:connector-curvature="0"
         style="fill:#070707;stroke-width:0"
         d="m 310,144.36 h 20 c 2,0 3,1 3,2 v 19 c 0,1 -1,2 -3,2 h -20 c -1,0 -3,-1 -3,-2 v -19 c 0,-1 2,-2 3,-2 z"
         id="path11032" />
      <path
         inkscape:connector-curvature="0"
         style="fill:#070707;stroke-width:0"
         d="m 340,144.36 h 20 c 2,0 3,1 3,2 v 19 c 0,1 -1,2 -3,2 h -20 c -1,0 -3,-1 -3,-2 v -19 c 0,-1 2,-2 3,-2 z"
         id="path11034" />
      <path
         inkscape:connector-curvature="0"
         style="fill:#070707;stroke-width:0"
         d="m 370,144.36 h 20 c 2,0 3,1 3,2 v 19 c 0,1 -1,2 -3,2 h -20 c -1,0 -3,-1 -3,-2 v -19 c 0,-1 2,-2 3,-2 z"
         id="path11036" />
      <path
         inkscape:connector-curvature="0"
         style="fill:#070707;stroke-width:0"
         d="m 399,144.36 h 20 c 2,0 3,1 3,2 v 19 c 0,1 -1,2 -3,2 h -20 c -1,0 -3,-1 -3,-2 v -19 c 0,-1 2,-2 3,-2 z"
         id="path11038" />
      <path
         inkscape:connector-curvature="0"
         style="fill:#070707;stroke-width:0"
         d="m 113,171.36 h 21 c 1,0 2,2 2,3 v 17 c 0,2 -1,3 -2,3 h -21 c -1,0 -2,-1 -2,-3 v -17 c 0,-1 1,-3 2,-3 z"
         id="path11040" />
      <path
         inkscape:connector-curvature="0"
         style="fill:#070707;stroke-width:0"
         d="m 143,171.36 h 21 c 1,0 2,2 2,3 v 17 c 0,2 -1,3 -2,3 h -21 c -1,0 -2,-1 -2,-3 v -17 c 0,-1 1,-3 2,-3 z"
         id="path11042" />
      <path
         inkscape:connector-curvature="0"
         style="fill:#070707;stroke-width:0"
         d="m 173,171.36 h 21 c 1,0 2,2 2,3 v 17 c 0,2 -1,3 -2,3 h -21 c -1,0 -2,-1 -2,-3 v -17 c 0,-1 1,-3 2,-3 z"
         id="path11044" />
      <path
         inkscape:connector-curvature="0"
         style="fill:#070707;stroke-width:0"
         d="m 233,171.36 h 20 c 1,0 2,2 2,3 v 17 c 0,2 -1,3 -2,3 h -20 c -2,0 -3,-1 -3,-3 v -17 c 0,-1 1,-3 3,-3 z"
         id="path11046" />
      <path
         inkscape:connector-curvature="0"
         style="fill:#070707;stroke-width:0"
         d="m 263,171.36 h 20 c 1,0 2,2 2,3 v 17 c 0,2 -1,3 -2,3 h -20 c -2,0 -3,-1 -3,-3 v -17 c 0,-1 1,-3 3,-3 z"
         id="path11048" />
      <path
         inkscape:connector-curvature="0"
         style="fill:#070707;stroke-width:0"
         d="m 293,171.36 h 19 c 1,0 2,2 2,3 v 17 c 0,2 -1,3 -2,3 h -19 c -2,0 -3,-1 -3,-3 v -17 c 0,-1 1,-3 3,-3 z"
         id="path11050" />
      <path
         inkscape:connector-curvature="0"
         style="fill:#070707;stroke-width:0"
         d="m 322,171.36 h 20 c 1,0 2,2 2,3 v 17 c 0,2 -1,3 -2,3 h -20 c -2,0 -3,-1 -3,-3 v -17 c 0,-1 1,-3 3,-3 z"
         id="path11052" />
      <path
         inkscape:connector-curvature="0"
         style="fill:#070707;stroke-width:0"
         d="m 352,171.36 h 20 c 1,0 2,2 2,3 v 17 c 0,2 -1,3 -2,3 h -20 c -2,0 -3,-1 -3,-3 v -17 c 0,-1 1,-3 3,-3 z"
         id="path11054" />
      <path
         inkscape:connector-curvature="0"
         style="fill:#070707;stroke-width:0"
         d="m 382,171.36 h 19 c 1,0 2,2 2,3 v 17 c 0,2 -1,3 -2,3 h -19 c -2,0 -3,-1 -3,-3 v -17 c 0,-1 1,-3 3,-3 z"
         id="path11056" />
      <path
         inkscape:connector-curvature="0"
         style="fill:#070707;stroke-width:0"
         d="m 47,55 h 20 c 1,0 3,1 3,3 v 18 c 0,1 -2,3 -3,3 H 47 c -2,0 -3,-2 -3,-3 V 58 c 0,-2 1,-3 3,-3 z"
         id="path11058" />
      <g
         style="fill:#070707"
         id="g11060">
        <path
           d="m 106,55 h 20 c 2,0 3,1 3,3 v 18 c 0,1 -1,3 -3,3 h -20 c -1,0 -2,-2 -2,-3 V 58 c 0,-2 1,-3 2,-3 z"
           inkscape:connector-curvature="0"
           style="fill:#070707;stroke-width:0"
           id="path11062" />
        <path
           d="m 136,55 h 20 c 2,0 3,1 3,3 v 18 c 0,1 -1,3 -3,3 h -20 c -2,0 -3,-2 -3,-3 V 58 c 0,-2 1,-3 3,-3 z"
           inkscape:connector-curvature="0"
           style="fill:#070707;stroke-width:0"
           id="path11064" />
        <path
           d="m 166,55 h 20 c 2,0 3,1 3,3 v 18 c 0,1 -1,3 -3,3 h -20 c -1,0 -3,-2 -3,-3 V 58 c 0,-2 2,-3 3,-3 z"
           inkscape:connector-curvature="0"
           style="fill:#070707;stroke-width:0"
           id="path11066" />
        <path
           d="m 196,55 h 19 c 2,0 3,1 3,3 v 18 c 0,1 -1,3 -3,3 h -19 c -1,0 -3,-2 -3,-3 V 58 c 0,-2 2,-3 3,-3 z"
           inkscape:connector-curvature="0"
           style="fill:#070707;stroke-width:0"
           id="path11068" />
      </g>
      <path
         inkscape:connector-curvature="0"
         style="fill:#070707;stroke-width:0"
         d="m 240,55 h 20 c 1,0 2,2 2,3 v 18 c 0,2 -1,3 -2,3 h -20 c -2,0 -3,-1 -3,-3 V 58 c 0,-1 1,-3 3,-3 z"
         id="path11070" />
      <path
         inkscape:connector-curvature="0"
         style="fill:#070707;stroke-width:0"
         d="m 270,55 h 20 c 1,0 2,2 2,3 v 18 c 0,2 -1,3 -2,3 h -20 c -2,0 -3,-1 -3,-3 V 58 c 0,-1 1,-3 3,-3 z"
         id="path11072" />
      <path
         inkscape:connector-curvature="0"
         style="fill:#070707;stroke-width:0"
         d="m 299,55 h 20 c 1,0 2,2 2,3 v 18 c 0,2 -1,3 -2,3 h -20 c -1,0 -2,-1 -2,-3 V 58 c 0,-1 1,-3 2,-3 z"
         id="path11074" />
      <path
         inkscape:connector-curvature="0"
         style="fill:#070707;stroke-width:0"
         d="m 329,55 h 20 c 1,0 2,2 2,3 v 18 c 0,2 -1,3 -2,3 h -20 c -2,0 -3,-1 -3,-3 V 58 c 0,-1 1,-3 3,-3 z"
         id="path11076" />
      <path
         inkscape:connector-curvature="0"
         style="fill:#070707;stroke-width:0"
         d="m 373,55 h 20 c 1,0 2,2 2,3 v 18 c 0,2 -1,3 -2,3 h -20 c -2,0 -3,-1 -3,-3 V 58 c 0,-1 1,-3 3,-3 z"
         id="path11078" />
      <path
         inkscape:connector-curvature="0"
         style="fill:#070707;stroke-width:0"
         d="m 402,55 h 20 c 1,0 2,2 2,3 v 18 c 0,2 -1,3 -2,3 h -20 c -2,0 -3,-1 -3,-3 V 58 c 0,-1 1,-3 3,-3 z"
         id="path11080" />
      <path
         inkscape:connector-curvature="0"
         style="fill:#070707;stroke-width:0"
         d="m 432,55 h 20 c 1,0 2,2 2,3 v 18 c 0,2 -1,3 -2,3 h -20 c -2,0 -3,-1 -3,-3 V 58 c 0,-1 1,-3 3,-3 z"
         id="path11082" />
      <path
         inkscape:connector-curvature="0"
         style="fill:#070707;stroke-width:0"
         d="m 462,55 h 20 c 1,0 2,2 2,3 v 18 c 0,2 -1,3 -2,3 h -20 c -2,0 -3,-1 -3,-3 V 58 c 0,-1 1,-3 3,-3 z"
         id="path11084" />
      <path
         inkscape:connector-curvature="0"
         style="fill:#070707;stroke-width:0"
         d="m 504.62,89.992 h 20 c 1,0 2,1 2,2 v 18 c 0,1 -1,2 -2,2 h -20 c -2,0 -3,-1 -3,-2 v -18 c 0,-1 1,-2 3,-2 z"
         id="path11086" />
      <path
         inkscape:connector-curvature="0"
         style="fill:#070707;stroke-width:0"
         d="m 534.62,89.992 h 20 c 1,0 2,1 2,2 v 18 c 0,1 -1,2 -2,2 h -20 c -2,0 -3,-1 -3,-2 v -18 c 0,-1 1,-2 3,-2 z"
         id="path11088" />
      <path
         inkscape:connector-curvature="0"
         style="fill:#070707;stroke-width:0"
         d="m 564.62,89.992 h 19 c 1,0 2,1 2,2 v 18 c 0,1 -1,2 -2,2 h -19 c -2,0 -3,-1 -3,-2 v -18 c 0,-1 1,-2 3,-2 z"
         id="path11090" />
      <path
         inkscape:connector-curvature="0"
         style="fill:#070707;stroke-width:0"
         d="m 502.62,55.022 h 20 c 2,0 3,2 3,3 v 18 c 0,2 -1,3 -3,3 h -20 c -1,0 -3,-1 -3,-3 v -18 c 0,-1 2,-3 3,-3 z"
         id="path11092" />
      <path
         inkscape:connector-curvature="0"
         style="fill:#070707;stroke-width:0"
         d="m 532.62,55.022 h 20 c 2,0 3,2 3,3 v 18 c 0,2 -1,3 -3,3 h -20 c -1,0 -3,-1 -3,-3 v -18 c 0,-1 2,-3 3,-3 z"
         id="path11094" />
      <path
         inkscape:connector-curvature="0"
         style="fill:#070707;stroke-width:0"
         d="m 562.62,55.022 h 19 c 2,0 3,2 3,3 v 18 c 0,2 -1,3 -3,3 h -19 c -1,0 -3,-1 -3,-3 v -18 c 0,-1 2,-3 3,-3 z"
         id="path11096" />
      <path
         inkscape:connector-curvature="0"
         style="fill:#070707;stroke-width:0"
         d="m 504.62,115.35 h 20 c 1,0 2,2 2,3 v 18 c 0,2 -1,3 -2,3 h -20 c -2,0 -3,-1 -3,-3 v -18 c 0,-1 1,-3 3,-3 z"
         id="path11098" />
      <path
         inkscape:connector-curvature="0"
         style="fill:#070707;stroke-width:0"
         d="m 534.62,115.35 h 20 c 1,0 2,2 2,3 v 18 c 0,2 -1,3 -2,3 h -20 c -2,0 -3,-1 -3,-3 v -18 c 0,-1 1,-3 3,-3 z"
         id="path11100" />
      <path
         inkscape:connector-curvature="0"
         style="fill:#070707;stroke-width:0"
         d="m 564.62,115.35 h 19 c 1,0 2,2 2,3 v 18 c 0,2 -1,3 -2,3 h -19 c -2,0 -3,-1 -3,-3 v -18 c 0,-1 1,-3 3,-3 z"
         id="path11102" />
      <path
         inkscape:connector-curvature="0"
         style="fill:#070707;stroke-width:0"
         d="m 504.62,198.36 h 20 c 1,0 2,1 2,2 v 19 c 0,1 -1,2 -2,2 h -20 c -2,0 -3,-1 -3,-2 v -19 c 0,-1 1,-2 3,-2 z"
         id="path11104" />
      <path
         inkscape:connector-curvature="0"
         style="fill:#070707;stroke-width:0"
         d="m 534.62,198.36 h 20 c 1,0 2,1 2,2 v 19 c 0,1 -1,2 -2,2 h -20 c -2,0 -3,-1 -3,-2 v -19 c 0,-1 1,-2 3,-2 z"
         id="path11106" />
      <path
         inkscape:connector-curvature="0"
         style="fill:#070707;stroke-width:0"
         d="m 564.62,198.36 h 19 c 1,0 2,1 2,2 v 19 c 0,1 -1,2 -2,2 h -19 c -2,0 -3,-1 -3,-2 v -19 c 0,-1 1,-2 3,-2 z"
         id="path11108" />
      <path
         inkscape:connector-curvature="0"
         style="fill:#070707;stroke-width:0"
         d="m 534.62,171.36 h 20 c 1,0 2,1 2,3 v 17 c 0,1 -1,3 -2,3 h -20 c -2,0 -3,-2 -3,-3 v -17 c 0,-2 1,-3 3,-3 z"
         id="path11110" />
      <path
         inkscape:connector-curvature="0"
         style="fill:#070707;stroke-width:0"
         d="m 162,198.36 h -11 c -2,0 -3,1 -3,3 v 18 c 0,2 1,3 3,3 h 11 168 18 c 0,0 1,-1 1,-3 v -18 c 0,-2 -1,-3 -1,-3 h -18 z"
         id="path11112" />
      <path
         inkscape:connector-curvature="0"
         style="fill:#070707;stroke-width:0"
         d="m 391,198.36 h 19 c 1,0 2,1 2,3 v 18 c 0,2 -1,3 -2,3 h -19 c -2,0 -3,-1 -3,-3 v -18 c 0,-2 1,-3 3,-3 z"
         id="path11114" />
      <path
         inkscape:connector-curvature="0"
         style="fill:#070707;stroke-width:0"
         d="m 420,198.36 h 20 c 1,0 2,1 2,3 v 18 c 0,2 -1,3 -2,3 h -20 c -2,0 -3,-1 -3,-3 v -18 c 0,-2 1,-3 3,-3 z"
         id="path11116" />
      <path
         inkscape:connector-curvature="0"
         style="fill:#070707;stroke-width:0"
         d="m 202,171.36 h 21 c 1,0 2,2 2,3 v 17 c 0,2 -1,3 -2,3 h -21 c 0,0 -1,-1 -1,-3 v -17 c 0,-1 1,-3 1,-3 z"
         id="path11118" />
      <path
         inkscape:connector-curvature="0"
         style="fill:#070707;stroke-width:0"
         d="m 47,140.35 c -2,0 -3,-2 -3,-3 v -18 c 0,-2 1,-3 3,-3 h 38 c 2,0 3,1 3,3 v 18 c 0,1 -1,3 -3,3 z"
         id="path11120" />
      <path
         inkscape:connector-curvature="0"
         style="fill:#070707;stroke-width:0"
         d="m 47,167.36 c -1,0 -3,-1 -3,-2 v -19 c 0,-1 2,-2 3,-2 h 45 c 2,0 4,1 4,2 v 19 c 0,1 -2,2 -4,2 z"
         id="path11122" />
      <path
         inkscape:connector-curvature="0"
         style="fill:#070707;stroke-width:0"
         d="m 410,194.36 c -1,0 -2,-1 -2,-3 v -17 c 0,-1 1,-3 2,-3 h 73 c 2,0 3,2 3,3 v 17 c 0,2 -1,3 -3,3 z"
         id="path11124" />
      <path
         inkscape:connector-curvature="0"
         style="fill:#070707;stroke-width:0"
         d="m 446,144.36 h -17 c -2,0 -3,1 -3,2 v 19 c 0,1 1,2 3,2 h 54 c 2,0 3,-1 3,-2 v -46.002 c 0,-2 -1,-3 -3,-3 h -31 c -2,0 -3,1 -3,3 v 22.002 c 0,2 0,3 -3,3 z"
         sodipodi:nodetypes="cssssssssssscc"
         id="path11126" />
      <path
         inkscape:connector-curvature="0"
         style="fill:#070707;stroke-width:0"
         d="m 450,198.36 h 33 c 2,0 3,1 3,3 v 18 c 0,2 -1,3 -3,3 h -33 c -2,0 -3,-1 -3,-3 v -18 c 0,-2 1,-3 3,-3 z"
         id="path11128" />
      <path
         inkscape:connector-curvature="0"
         style="fill:#070707;stroke-width:0"
         d="m 47,194.36 c -1,0 -3,-1 -3,-3 v -17 c 0,-1 2,-3 3,-3 h 57 c 1,0 2,2 2,3 v 17 c 0,2 -1,3 -2,3 z"
         id="path11130" />
      <path
         inkscape:connector-curvature="0"
         style="fill:#070707;stroke-width:0"
         d="m 47,198.36 h 30 c 1,0 2,1 2,3 v 18 c 0,2 -1,3 -2,3 H 47 c -2,0 -3,-1 -3,-3 v -18 c 0,-2 1,-3 3,-3 z"
         id="path11132" />
      <path
         inkscape:connector-curvature="0"
         style="fill:#070707;stroke-width:0"
         d="m 87,198.36 h 19 c 2,0 3,1 3,3 v 18 c 0,1 -1,3 -3,3 H 87 c -1,0 -3,-2 -3,-3 v -18 c 0,-2 2,-3 3,-3 z"
         id="path11134" />
      <path
         inkscape:connector-curvature="0"
         style="fill:#070707;stroke-width:0"
         d="m 116,198.36 h 25 c 1,0 2,1 2,3 v 18 c 0,1 -1,3 -2,3 h -25 c -1,0 -2,-2 -2,-3 v -18 c 0,-2 1,-3 2,-3 z"
         id="path11136" />
      <path
         inkscape:connector-curvature="0"
         style="fill:#070707;stroke-width:0"
         d="m 356,198.36 h 24 c 1,0 2,1 2,3 v 18 c 0,1 -1,3 -2,3 h -24 c -1,0 -2,-2 -2,-3 v -18 c 0,-2 1,-3 2,-3 z"
         id="path11138" />
    </g>
    <path
       id="path157"
       style="fill:#3f3f3f;fill-rule:evenodd;stroke-width:0;fill-opacity:1"
       inkscape:connector-curvature="0"
       d="m -381.46289,466.68068 4.0176,-4.7428 c 0.40176,-0.47428 1.02641,-0.65269 1.45018,-0.59396 l 7.62784,1.05709 c 0.42377,0.0587 0.64666,0.3546 0.2449,0.82888 l -4.0176,4.7428 c -0.20088,0.23714 -1.02641,0.65269 -1.45018,0.59396 l -7.62784,-1.05709 c -0.42377,-0.0587 -0.44578,-0.59174 -0.2449,-0.82888 z" />
    <path
       id="path159"
       style="fill:#3f3f3f;fill-rule:evenodd;stroke-width:0;fill-opacity:1"
       inkscape:connector-curvature="0"
       d="m -375.43648,459.56648 3.81672,-4.50565 c 0.40176,-0.47428 1.02641,-0.6527 1.45018,-0.59397 l 7.62784,1.0571 c 0.42377,0.0587 0.64666,0.35459 0.2449,0.82887 l -3.81673,4.50566 c -0.20088,0.23714 -1.02641,0.65269 -1.45018,0.59396 l -7.62784,-1.05709 c -0.42377,-0.0587 -0.44577,-0.59174 -0.24489,-0.82888 z" />
    <path
       id="path161"
       style="fill:#3f3f3f;fill-rule:evenodd;stroke-width:0;fill-opacity:1"
       inkscape:connector-curvature="0"
       d="m -369.61096,452.68943 4.01761,-4.7428 c 0.40176,-0.47428 1.02641,-0.65269 1.45017,-0.59397 l 7.62785,1.0571 c 0.42376,0.0587 0.64665,0.35459 0.24489,0.82887 l -4.0176,4.7428 c -0.20088,0.23714 -1.02641,0.65269 -1.45018,0.59397 l -7.62784,-1.0571 c -0.42377,-0.0587 -0.44578,-0.59173 -0.2449,-0.82887 z" />
    <path
       id="path163"
       style="fill:#3f3f3f;fill-rule:evenodd;stroke-width:0;fill-opacity:1"
       inkscape:connector-curvature="0"
       d="m -370.71696,468.16989 4.01761,-4.74279 c 0.40176,-0.47428 1.45017,-0.59397 1.87394,-0.53524 l 7.62784,1.05709 c 0.84754,0.11746 1.07043,0.41332 0.66867,0.8876 l -4.0176,4.7428 c -0.20088,0.23714 -1.02641,0.6527 -1.87395,0.53524 l -7.62784,-1.05709 c -0.42377,-0.0587 -0.86955,-0.65047 -0.66867,-0.88761 z" />
    <path
       id="path165"
       style="fill:#3f3f3f;fill-rule:evenodd;stroke-width:0;fill-opacity:1"
       inkscape:connector-curvature="0"
       d="m -364.69055,461.0557 3.81672,-4.50566 c 0.40176,-0.47428 1.45018,-0.59397 1.87395,-0.53524 l 7.62784,1.05709 c 0.84754,0.11746 1.07043,0.41333 0.66867,0.88761 l -3.81673,4.50565 c -0.20088,0.23714 -1.02641,0.6527 -1.87394,0.53524 l -7.62785,-1.05709 c -0.42376,-0.0587 -0.86954,-0.65046 -0.66866,-0.8876 z" />
    <path
       id="path167"
       style="fill:#3f3f3f;fill-rule:evenodd;stroke-width:0;fill-opacity:1"
       inkscape:connector-curvature="0"
       d="m -358.86503,454.17864 4.01761,-4.7428 c 0.40176,-0.47428 1.45018,-0.59397 1.87395,-0.53524 l 7.62784,1.0571 c 0.84753,0.11745 1.07042,0.41332 0.66866,0.8876 l -4.0176,4.7428 c -0.20088,0.23714 -1.02641,0.65269 -1.87395,0.53523 l -7.62784,-1.05709 c -0.42377,-0.0587 -0.86955,-0.65046 -0.66867,-0.8876 z" />
    <path
       id="path169"
       style="fill:#3f3f3f;fill-rule:evenodd;stroke-width:0;fill-opacity:1"
       inkscape:connector-curvature="0"
       d="m -358.84719,469.81485 4.0176,-4.7428 c 0.40176,-0.47428 1.02641,-0.65269 1.87395,-0.53524 l 7.62784,1.0571 c 0.84754,0.11745 1.07043,0.41332 0.66867,0.8876 l -4.01761,4.7428 c -0.20088,0.23714 -1.02641,0.65269 -1.87394,0.53524 l -7.62784,-1.0571 c -0.84754,-0.11745 -0.86955,-0.65046 -0.66867,-0.8876 z" />
    <path
       id="path171"
       style="fill:#3f3f3f;fill-rule:evenodd;stroke-width:0;fill-opacity:1"
       inkscape:connector-curvature="0"
       d="m -352.82078,462.70065 3.81672,-4.50566 c 0.40176,-0.47428 1.02641,-0.65269 1.87395,-0.53523 l 7.62784,1.05709 c 0.84754,0.11745 1.07042,0.41332 0.66866,0.8876 l -3.81672,4.50566 c -0.20088,0.23714 -1.02641,0.65269 -1.87395,0.53524 l -7.62784,-1.0571 c -0.84754,-0.11745 -0.86954,-0.65046 -0.66866,-0.8876 z" />
    <path
       id="path173"
       style="fill:#3f3f3f;fill-rule:evenodd;stroke-width:0;fill-opacity:1"
       inkscape:connector-curvature="0"
       d="m -346.99526,455.82359 4.01761,-4.7428 c 0.40176,-0.47428 1.02641,-0.65269 1.87394,-0.53523 l 7.62784,1.05709 c 0.84754,0.11746 1.07043,0.41332 0.66867,0.8876 l -4.0176,4.7428 c -0.20088,0.23714 -1.02641,0.65269 -1.87395,0.53524 l -7.62784,-1.05709 c -0.84754,-0.11746 -0.86955,-0.65047 -0.66867,-0.88761 z" />
    <path
       id="path175"
       style="fill:#3f3f3f;fill-rule:evenodd;stroke-width:0;fill-opacity:1"
       inkscape:connector-curvature="0"
       d="m -346.98166,471.45922 4.0176,-4.7428 c 0.40176,-0.47428 1.02641,-0.65269 1.87395,-0.53524 l 7.20407,0.99837 c 0.42377,0.0587 1.07043,0.41332 0.66867,0.8876 l -4.01761,4.7428 c -0.20088,0.23714 -1.45017,0.59397 -1.87394,0.53524 l -7.20407,-0.99837 c -0.84754,-0.11745 -0.86955,-0.65046 -0.66867,-0.8876 z" />
    <path
       id="path177"
       style="fill:#3f3f3f;fill-rule:evenodd;stroke-width:0;fill-opacity:1"
       inkscape:connector-curvature="0"
       d="m -340.95525,464.34502 3.81672,-4.50566 c 0.40176,-0.47428 1.02641,-0.65269 1.87395,-0.53524 l 7.20407,0.99837 c 0.42377,0.0587 1.07043,0.41332 0.66866,0.8876 l -3.81672,4.50566 c -0.20088,0.23714 -1.45018,0.59397 -1.87395,0.53524 l -7.20407,-0.99837 c -0.84754,-0.11745 -0.86954,-0.65046 -0.66866,-0.8876 z" />
    <path
       id="path179"
       style="fill:#3f3f3f;fill-rule:evenodd;stroke-width:0;fill-opacity:1"
       inkscape:connector-curvature="0"
       d="m -335.12973,457.46796 4.01761,-4.7428 c 0.40176,-0.47428 1.02641,-0.65269 1.87394,-0.53523 l 7.20407,0.99836 c 0.42377,0.0587 1.07043,0.41333 0.66867,0.88761 l -4.0176,4.74279 c -0.20088,0.23714 -1.45018,0.59397 -1.87395,0.53524 l -7.20407,-0.99837 c -0.84754,-0.11745 -0.86955,-0.65046 -0.66867,-0.8876 z" />
    <path
       id="path181"
       style="fill:#3f3f3f;fill-rule:evenodd;stroke-width:0;fill-opacity:1"
       inkscape:connector-curvature="0"
       d="m -323.68797,459.0536 4.01761,-4.74279 c 0.40176,-0.47428 1.02641,-0.6527 1.45018,-0.59397 l 8.0516,1.11582 c 0.42377,0.0587 0.64666,0.3546 0.2449,0.82888 l -4.0176,4.7428 c -0.20088,0.23714 -1.02641,0.65269 -1.45018,0.59396 l -8.05161,-1.11582 c -0.42377,-0.0587 -0.44578,-0.59174 -0.2449,-0.82888 z" />
    <path
       id="path183"
       style="fill:#3f3f3f;fill-rule:evenodd;stroke-width:0;fill-opacity:1"
       inkscape:connector-curvature="0"
       d="m -363.58455,445.57523 4.0176,-4.7428 c 0.40176,-0.47428 1.02641,-0.65269 1.45018,-0.59397 l 7.62784,1.0571 c 0.42377,0.0587 0.64666,0.35459 0.2449,0.82887 l -4.01761,4.7428 c -0.20088,0.23714 -1.0264,0.65269 -1.45017,0.59397 l -7.62784,-1.0571 c -0.42377,-0.0587 -0.44578,-0.59173 -0.2449,-0.82887 z" />
    <path
       id="path191"
       inkscape:connector-curvature="0"
       sodipodi:nodetypes="sssssssss"
       style="fill:#3f3f3f;fill-rule:evenodd;stroke-width:0;fill-opacity:1"
       d="m -346.94707,441.7864 c -0.42377,-0.0587 -1.47218,0.061 -1.87395,0.53524 l -4.0176,4.7428 c -0.20088,0.23714 0.2449,0.82887 0.66867,0.8876 l 19.49421,2.70158 c 0.84754,0.11746 1.67307,-0.2981 1.87395,-0.53524 l 4.01761,-4.74279 c 0.40176,-0.47428 0.17887,-0.77015 -0.66867,-0.88761 z" />
    <path
       id="path193"
       inkscape:connector-curvature="0"
       sodipodi:nodetypes="sssssssss"
       style="fill:#3f3f3f;fill-rule:evenodd;stroke-width:0;fill-opacity:1"
       d="m -323.21177,445.07573 c -0.84754,-0.11746 -1.47219,0.061 -1.87395,0.53524 l -4.0176,4.74279 c -0.20088,0.23714 -0.17887,0.77015 0.66866,0.88761 l 19.07045,2.64285 c 0.42377,0.0587 1.2493,-0.35683 1.45018,-0.59397 l 4.01761,-4.74279 c 0.40176,-0.47428 0.17887,-0.77015 -0.2449,-0.82888 z" />
    <path
       id="path373"
       style="fill:#3f3f3f;fill-rule:evenodd;stroke-width:0;fill-opacity:1"
       inkscape:connector-curvature="0"
       d="m -325.79321,474.39559 c -0.20088,0.23714 -1.02641,0.65269 -1.45018,0.59397 l -8.05161,-1.11582 c -0.42377,-0.0587 -0.44578,-0.59174 -0.2449,-0.82888 l 9.84313,-11.61986 c 0.40176,-0.47428 1.02641,-0.65269 1.45018,-0.59396 l 8.05161,1.11582 c 0.42377,0.0587 0.64666,0.35459 0.2449,0.82887 z" />
    <path
       id="path11"
       style="fill:#3f3f3f;fill-rule:evenodd;stroke-width:0;fill-opacity:1"
       inkscape:connector-curvature="0"
       d="m -493.60427,599.06405 4.01761,-4.74279 c 0.20088,-0.23714 1.02641,-0.6527 1.87394,-0.53524 l 7.20408,0.99836 c 0.84753,0.11746 0.86954,0.65047 0.66866,0.88761 l -4.0176,4.7428 c -0.40176,0.47428 -1.02641,0.65269 -1.87395,0.53523 l -7.20407,-0.99836 c -0.84754,-0.11746 -1.07043,-0.41333 -0.66867,-0.88761 z" />
    <path
       id="path13"
       style="fill:#3f3f3f;fill-rule:evenodd;stroke-width:0;fill-opacity:1"
       inkscape:connector-curvature="0"
       d="m -487.57786,591.94986 4.0176,-4.7428 c 0.40176,-0.47428 1.02641,-0.65269 1.87395,-0.53524 l 7.20407,0.99837 c 0.84754,0.11745 1.07043,0.41332 0.66867,0.8876 l -4.01761,4.7428 c -0.40176,0.47428 -1.02641,0.65269 -1.87394,0.53524 l -7.20408,-0.99837 c -0.84753,-0.11746 -1.07042,-0.41332 -0.66866,-0.8876 z" />
    <path
       id="path15"
       style="fill:#3f3f3f;fill-rule:evenodd;stroke-width:0;fill-opacity:1"
       inkscape:connector-curvature="0"
       d="m -481.75234,585.0728 4.01761,-4.7428 c 0.40176,-0.47428 1.02641,-0.65269 1.87395,-0.53524 l 7.20407,0.99837 c 0.84754,0.11745 1.07042,0.41332 0.66866,0.8876 l -4.0176,4.7428 c -0.20088,0.23714 -0.82553,0.41555 -1.67307,0.2981 l -7.20407,-0.99837 c -0.84754,-0.11745 -1.07043,-0.41332 -0.86955,-0.65046 z" />
    <path
       id="path17"
       style="fill:#3f3f3f;fill-rule:evenodd;stroke-width:0;fill-opacity:1"
       inkscape:connector-curvature="0"
       d="m -475.72593,577.9586 4.01761,-4.7428 c 0.40176,-0.47428 1.0264,-0.65269 1.87394,-0.53524 l 7.20407,0.99837 c 0.84754,0.11746 1.07043,0.41332 0.66867,0.8876 l -4.0176,4.7428 c -0.40176,0.47428 -1.02641,0.65269 -1.87395,0.53524 l -7.20407,-0.99837 c -0.84754,-0.11745 -1.07043,-0.41332 -0.66867,-0.8876 z" />
    <path
       id="path19"
       style="fill:#3f3f3f;fill-rule:evenodd;stroke-width:0;fill-opacity:1"
       inkscape:connector-curvature="0"
       d="m -469.69952,570.8444 4.0176,-4.7428 c 0.40176,-0.47428 1.02641,-0.65269 1.87395,-0.53523 l 7.20407,0.99836 c 0.84754,0.11746 1.07043,0.41332 0.66867,0.8876 l -4.01761,4.7428 c -0.20088,0.23714 -1.02641,0.6527 -1.87394,0.53524 l -7.20408,-0.99837 c -0.84753,-0.11745 -0.86954,-0.65046 -0.66866,-0.8876 z" />
    <path
       id="path21"
       style="fill:#3f3f3f;fill-rule:evenodd;stroke-width:0;fill-opacity:1"
       inkscape:connector-curvature="0"
       d="m -463.67312,563.7302 3.81673,-4.50566 c 0.40176,-0.47428 1.02641,-0.65269 1.87395,-0.53523 l 7.20407,0.99836 c 0.84753,0.11746 1.07042,0.41333 0.66866,0.88761 l -3.81672,4.50565 c -0.20088,0.23714 -1.02641,0.6527 -1.87395,0.53524 l -7.20407,-0.99836 c -0.84754,-0.11746 -0.86955,-0.65047 -0.66867,-0.88761 z" />
    <path
       id="path23"
       style="fill:#3f3f3f;fill-rule:evenodd;stroke-width:0;fill-opacity:1"
       inkscape:connector-curvature="0"
       d="m -457.84759,556.85315 4.0176,-4.7428 c 0.40176,-0.47428 1.02641,-0.6527 1.87395,-0.53524 l 7.20407,0.99837 c 0.84754,0.11745 1.07043,0.41332 0.66867,0.8876 l -4.0176,4.7428 c -0.20089,0.23714 -1.02641,0.65269 -1.87395,0.53523 l -7.20407,-0.99836 c -0.84754,-0.11746 -0.86955,-0.65046 -0.66867,-0.8876 z" />
    <path
       id="path25"
       style="fill:#3f3f3f;fill-rule:evenodd;stroke-width:0;fill-opacity:1"
       inkscape:connector-curvature="0"
       d="m -451.82118,549.73895 4.0176,-4.7428 c 0.40176,-0.47428 1.02641,-0.65269 1.87395,-0.53524 l 7.20407,0.99837 c 0.84754,0.11745 1.07043,0.41332 0.66867,0.8876 l -4.01761,4.7428 c -0.20088,0.23714 -1.02641,0.65269 -1.87395,0.53524 l -7.20407,-0.99837 c -0.84754,-0.11746 -0.86954,-0.65046 -0.66866,-0.8876 z" />
    <path
       id="path27"
       style="fill:#3f3f3f;fill-rule:evenodd;stroke-width:0;fill-opacity:1"
       inkscape:connector-curvature="0"
       d="m -445.79478,542.62475 3.81673,-4.50566 c 0.40176,-0.47428 1.02641,-0.65269 1.87394,-0.53524 l 7.20408,0.99837 c 0.84753,0.11745 1.07042,0.41332 0.66866,0.8876 l -3.81672,4.50566 c -0.20088,0.23714 -1.02641,0.65269 -1.87395,0.53524 l -7.20407,-0.99837 c -0.84754,-0.11745 -0.86955,-0.65046 -0.66867,-0.8876 z" />
    <path
       id="path29"
       style="fill:#3f3f3f;fill-rule:evenodd;stroke-width:0;fill-opacity:1"
       inkscape:connector-curvature="0"
       d="m -439.96925,535.74769 4.0176,-4.7428 c 0.40176,-0.47428 1.02641,-0.65269 1.87395,-0.53524 l 7.20407,0.99837 c 0.84754,0.11746 1.07043,0.41332 0.66867,0.8876 l -4.01761,4.7428 c -0.20088,0.23714 -1.02641,0.65269 -1.87394,0.53524 l -7.20408,-0.99837 c -0.84753,-0.11745 -0.86954,-0.65046 -0.66866,-0.8876 z" />
    <path
       id="path31"
       style="fill:#3f3f3f;fill-rule:evenodd;stroke-width:0;fill-opacity:1"
       inkscape:connector-curvature="0"
       d="m -433.94285,528.63349 4.01761,-4.7428 c 0.40176,-0.47428 1.02641,-0.65269 1.87395,-0.53523 l 7.20407,0.99836 c 0.84754,0.11746 1.07042,0.41333 0.66866,0.88761 l -4.0176,4.74279 c -0.20088,0.23714 -1.02641,0.6527 -1.87395,0.53524 l -7.20407,-0.99837 c -0.84754,-0.11745 -0.86955,-0.65046 -0.66867,-0.8876 z" />
    <path
       id="path33"
       style="fill:#3f3f3f;fill-rule:evenodd;stroke-width:0;fill-opacity:1"
       inkscape:connector-curvature="0"
       d="m -427.91644,521.51929 4.01761,-4.74279 c 0.20088,-0.23714 0.82552,-0.41556 1.67306,-0.2981 l 7.20407,0.99836 c 0.84754,0.11746 1.07043,0.41333 0.86955,0.65047 l -4.0176,4.7428 c -0.20088,0.23714 -1.02641,0.65269 -1.87395,0.53523 l -7.20407,-0.99836 c -0.84754,-0.11746 -0.86955,-0.65047 -0.66867,-0.88761 z" />
    <path
       id="path35"
       style="fill:#3f3f3f;fill-rule:evenodd;stroke-width:0;fill-opacity:1"
       inkscape:connector-curvature="0"
       d="m -422.09091,514.64224 4.0176,-4.7428 c 0.40176,-0.47428 1.02641,-0.6527 1.87395,-0.53524 l 7.20407,0.99837 c 0.84754,0.11745 1.07043,0.41332 0.66867,0.8876 l -4.01761,4.7428 c -0.20088,0.23714 -0.82553,0.41555 -1.67306,0.29809 l -7.20408,-0.99836 c -0.84753,-0.11746 -1.07042,-0.41332 -0.86954,-0.65046 z" />
    <path
       id="path37"
       style="fill:#3f3f3f;fill-rule:evenodd;stroke-width:0;fill-opacity:1"
       inkscape:connector-curvature="0"
       d="m -416.06451,507.52804 4.01761,-4.7428 c 0.40176,-0.47428 1.02641,-0.65269 1.87395,-0.53524 l 7.20407,0.99837 c 0.84753,0.11745 1.07042,0.41332 0.66866,0.8876 l -4.0176,4.7428 c -0.20088,0.23714 -0.82553,0.41555 -1.67307,0.2981 l -7.20407,-0.99837 c -0.84754,-0.11746 -1.07043,-0.41332 -0.86955,-0.65046 z" />
    <path
       id="path39"
       style="fill:#3f3f3f;fill-rule:evenodd;stroke-width:0;fill-opacity:1"
       inkscape:connector-curvature="0"
       d="m -410.0381,500.41384 4.0176,-4.7428 c 0.40176,-0.47428 1.02641,-0.65269 1.87395,-0.53524 l 7.20407,0.99837 c 0.84754,0.11745 1.07043,0.41332 0.66867,0.8876 l -4.0176,4.7428 c -0.20089,0.23714 -0.82553,0.41555 -1.67307,0.2981 l -7.20407,-0.99837 c -0.84754,-0.11745 -1.07043,-0.41332 -0.86955,-0.65046 z" />
    <path
       id="path41"
       style="fill:#3f3f3f;fill-rule:evenodd;stroke-width:0;fill-opacity:1"
       inkscape:connector-curvature="0"
       d="m -472.79232,589.22928 3.81673,-4.50566 c 0.40176,-0.47428 1.02641,-0.6527 1.87395,-0.53524 l 7.62784,1.05709 c 0.42376,0.0587 1.07042,0.41333 0.66866,0.88761 l -3.81672,4.50565 c -0.20088,0.23714 -1.45018,0.59397 -1.87395,0.53524 l -7.62784,-1.05709 c -0.84754,-0.11746 -0.86955,-0.65046 -0.66867,-0.8876 z" />
    <path
       id="path43"
       style="fill:#ff0000;fill-rule:evenodd;stroke-width:0"
       inkscape:connector-curvature="0"
       d="m -466.96679,582.35222 4.0176,-4.7428 c 0.40176,-0.47428 1.02641,-0.65269 1.87395,-0.53524 l 7.62784,1.0571 c 0.42377,0.0587 1.07043,0.41332 0.66867,0.8876 l -4.01761,4.7428 c -0.20088,0.23714 -1.45017,0.59396 -1.87394,0.53523 l -7.62784,-1.05709 c -0.84754,-0.11746 -0.86955,-0.65046 -0.66867,-0.8876 z" />
    <path
       id="path45"
       style="fill:#3f3f3f;fill-rule:evenodd;stroke-width:0;fill-opacity:1"
       inkscape:connector-curvature="0"
       d="m -460.94038,575.23802 4.0176,-4.7428 c 0.40176,-0.47428 1.02641,-0.65269 1.87395,-0.53524 l 7.62784,1.0571 c 0.42377,0.0587 1.07042,0.41332 0.66866,0.8876 l -4.0176,4.7428 c -0.20088,0.23714 -1.45018,0.59396 -1.87395,0.53524 l -7.62784,-1.0571 c -0.84754,-0.11745 -0.86954,-0.65046 -0.66866,-0.8876 z" />
    <path
       id="path47"
       style="fill:#3f3f3f;fill-rule:evenodd;stroke-width:0;fill-opacity:1"
       inkscape:connector-curvature="0"
       d="m -454.91398,568.12382 3.81673,-4.50566 c 0.40176,-0.47428 1.02641,-0.65269 1.87394,-0.53524 l 7.62784,1.0571 c 0.42377,0.0587 1.07043,0.41332 0.66867,0.8876 l -3.81672,4.50566 c -0.20088,0.23714 -1.45018,0.59396 -1.87395,0.53524 l -7.62784,-1.0571 c -0.84754,-0.11745 -0.86955,-0.65046 -0.66867,-0.8876 z" />
    <path
       id="path49"
       style="fill:#3f3f3f;fill-rule:evenodd;stroke-width:0;fill-opacity:1"
       inkscape:connector-curvature="0"
       d="m -449.08845,561.24676 4.0176,-4.7428 c 0.40176,-0.47428 1.02641,-0.65269 1.87395,-0.53523 l 7.62784,1.05709 c 0.42377,0.0587 1.07043,0.41332 0.66867,0.8876 l -4.01761,4.7428 c -0.20088,0.23714 -1.2493,0.35683 -1.67306,0.2981 l -7.62785,-1.05709 c -0.84753,-0.11746 -1.07042,-0.41333 -0.86954,-0.65047 z" />
    <path
       id="path51"
       style="fill:#3f3f3f;fill-rule:evenodd;stroke-width:0;fill-opacity:1"
       inkscape:connector-curvature="0"
       d="m -443.06205,554.13256 4.01761,-4.74279 c 0.40176,-0.47428 1.02641,-0.6527 1.87395,-0.53524 l 7.62784,1.05709 c 0.42377,0.0587 1.07042,0.41332 0.66866,0.8876 l -4.0176,4.7428 c -0.20088,0.23714 -1.2493,0.35683 -1.67307,0.2981 l -7.62784,-1.05709 c -0.84754,-0.11746 -1.07043,-0.41333 -0.86955,-0.65047 z" />
    <path
       id="path53"
       style="fill:#3f3f3f;fill-rule:evenodd;stroke-width:0;fill-opacity:1"
       inkscape:connector-curvature="0"
       d="m -437.03564,547.01837 4.01761,-4.7428 c 0.40176,-0.47428 1.0264,-0.65269 1.87394,-0.53524 l 7.62784,1.05709 c 0.42377,0.0587 1.07043,0.41333 0.66867,0.88761 l -4.0176,4.7428 c -0.20088,0.23714 -1.2493,0.35682 -1.67307,0.29809 l -7.62784,-1.05709 c -0.84754,-0.11746 -1.07043,-0.41332 -0.86955,-0.65046 z" />
    <path
       id="path55"
       style="fill:#3f3f3f;fill-rule:evenodd;stroke-width:0;fill-opacity:1"
       inkscape:connector-curvature="0"
       d="m -431.21011,540.14131 4.0176,-4.7428 c 0.40176,-0.47428 1.02641,-0.65269 1.87395,-0.53524 l 7.62784,1.0571 c 0.42377,0.0587 1.07043,0.41332 0.66867,0.8876 l -4.01761,4.7428 c -0.20088,0.23714 -1.2493,0.35682 -1.67307,0.29809 l -7.62784,-1.05709 c -0.84753,-0.11745 -1.07042,-0.41332 -0.86954,-0.65046 z" />
    <path
       id="path57"
       style="fill:#3f3f3f;fill-rule:evenodd;stroke-width:0;fill-opacity:1"
       inkscape:connector-curvature="0"
       d="m -425.18371,533.02711 4.01761,-4.7428 c 0.40176,-0.47428 1.02641,-0.65269 1.87395,-0.53524 l 7.62784,1.0571 c 0.42376,0.0587 1.07042,0.41332 0.66866,0.8876 l -4.0176,4.7428 c -0.20088,0.23714 -1.2493,0.35682 -1.67307,0.2981 l -7.62784,-1.0571 c -0.84754,-0.11745 -1.07043,-0.41332 -0.86955,-0.65046 z" />
    <path
       id="path59"
       style="fill:#3f3f3f;fill-rule:evenodd;stroke-width:0;fill-opacity:1"
       inkscape:connector-curvature="0"
       d="m -419.1573,525.91291 4.0176,-4.7428 c 0.40176,-0.47428 1.02641,-0.65269 1.87395,-0.53523 l 7.62784,1.05709 c 0.42377,0.0587 1.07043,0.41332 0.66867,0.8876 l -4.01761,4.7428 c -0.20088,0.23714 -1.24929,0.35683 -1.67306,0.2981 l -7.62784,-1.0571 c -0.84754,-0.11745 -1.07043,-0.41332 -0.86955,-0.65046 z" />
    <path
       id="path61"
       style="fill:#3f3f3f;fill-rule:evenodd;stroke-width:0;fill-opacity:1"
       inkscape:connector-curvature="0"
       d="m -413.13089,518.79871 3.81672,-4.50566 c 0.40176,-0.47428 1.02641,-0.65269 1.87395,-0.53523 l 7.62784,1.05709 c 0.42377,0.0587 1.07042,0.41332 0.66866,0.8876 l -3.81672,4.50566 c -0.20088,0.23714 -1.2493,0.35683 -1.67307,0.2981 l -7.62784,-1.05709 c -0.84754,-0.11746 -1.07042,-0.41333 -0.86954,-0.65047 z" />
    <path
       id="path63"
       style="fill:#3f3f3f;fill-rule:evenodd;stroke-width:0;fill-opacity:1"
       inkscape:connector-curvature="0"
       d="m -407.30537,511.92166 4.01761,-4.7428 c 0.40176,-0.47428 1.02641,-0.6527 1.87394,-0.53524 l 7.62784,1.05709 c 0.42377,0.0587 1.07043,0.41333 0.66867,0.88761 l -4.0176,4.74279 c -0.20088,0.23714 -1.2493,0.35683 -1.67307,0.2981 l -7.62784,-1.05709 c -0.84754,-0.11746 -1.07043,-0.41332 -0.86955,-0.65046 z" />
    <path
       id="path65"
       style="fill:#ff0000;fill-rule:evenodd;stroke-width:0"
       inkscape:connector-curvature="0"
       d="m -459.31551,588.97711 3.81673,-4.50566 c 0.20088,-0.23714 1.02641,-0.65269 1.45018,-0.59396 l 8.0516,1.11582 c 0.42377,0.0587 0.44578,0.59174 0.2449,0.82888 l -3.81672,4.50565 c -0.40176,0.47428 -1.02641,0.6527 -1.45018,0.59397 l -8.05161,-1.11582 c -0.42377,-0.0587 -0.64666,-0.3546 -0.2449,-0.82888 z" />
    <path
       id="path67"
       style="fill:#ff0000;fill-rule:evenodd;stroke-width:0"
       inkscape:connector-curvature="0"
       d="m -453.48998,582.10005 4.0176,-4.74279 c 0.20088,-0.23714 1.02641,-0.6527 1.45018,-0.59397 l 8.05161,1.11582 c 0.42377,0.0587 0.44578,0.59174 0.2449,0.82888 l -4.01761,4.7428 c -0.40176,0.47428 -1.02641,0.65269 -1.45017,0.59396 l -8.05161,-1.11582 c -0.42377,-0.0587 -0.64666,-0.3546 -0.2449,-0.82888 z" />
    <path
       id="path69"
       style="fill:#ff0000;fill-rule:evenodd;stroke-width:0"
       inkscape:connector-curvature="0"
       d="m -447.46357,574.98586 4.0176,-4.7428 c 0.40176,-0.47428 1.02641,-0.6527 1.45018,-0.59397 l 8.05161,1.11582 c 0.42377,0.0587 0.64666,0.3546 0.24489,0.82888 l -4.0176,4.7428 c -0.40176,0.47428 -1.02641,0.65269 -1.45018,0.59396 l -8.05161,-1.11582 c -0.42377,-0.0587 -0.64666,-0.35459 -0.24489,-0.82887 z" />
    <path
       id="path71"
       style="fill:#3f3f3f;fill-rule:evenodd;stroke-width:0;fill-opacity:1"
       inkscape:connector-curvature="0"
       d="m -441.43717,567.87166 3.81673,-4.50566 c 0.40176,-0.47428 1.02641,-0.65269 1.45017,-0.59397 l 8.05161,1.11583 c 0.42377,0.0587 0.64666,0.35459 0.2449,0.82887 l -3.81672,4.50566 c -0.40176,0.47428 -1.02641,0.65269 -1.45018,0.59396 l -8.05161,-1.11582 c -0.42377,-0.0587 -0.64666,-0.35459 -0.2449,-0.82887 z" />
    <path
       id="path73"
       style="fill:#3f3f3f;fill-rule:evenodd;stroke-width:0;fill-opacity:1"
       inkscape:connector-curvature="0"
       d="m -435.61164,560.9946 4.0176,-4.7428 c 0.40176,-0.47428 1.02641,-0.65269 1.45018,-0.59396 l 8.05161,1.11582 c 0.42377,0.0587 0.64666,0.35459 0.2449,0.82887 l -4.01761,4.7428 c -0.40176,0.47428 -1.02641,0.65269 -1.45018,0.59397 l -8.05161,-1.11583 c -0.42376,-0.0587 -0.64665,-0.35459 -0.24489,-0.82887 z" />
    <path
       id="path75"
       style="fill:#3f3f3f;fill-rule:evenodd;stroke-width:0;fill-opacity:1"
       inkscape:connector-curvature="0"
       d="m -429.58524,553.8804 4.01761,-4.7428 c 0.40176,-0.47428 1.02641,-0.65269 1.45018,-0.59396 l 8.05161,1.11582 c 0.42377,0.0587 0.64665,0.35459 0.24489,0.82887 l -4.0176,4.7428 c -0.20088,0.23714 -1.02641,0.6527 -1.45018,0.59397 l -8.05161,-1.11582 c -0.42377,-0.0587 -0.44578,-0.59174 -0.2449,-0.82888 z" />
    <path
       id="path77"
       style="fill:#3f3f3f;fill-rule:evenodd;stroke-width:0;fill-opacity:1"
       inkscape:connector-curvature="0"
       d="m -423.55883,546.7662 3.81672,-4.50566 c 0.40176,-0.47428 1.02641,-0.65269 1.45018,-0.59396 l 8.05161,1.11582 c 0.42377,0.0587 0.64666,0.3546 0.2449,0.82888 l -3.81672,4.50565 c -0.20088,0.23714 -1.02641,0.6527 -1.45018,0.59397 l -8.05161,-1.11582 c -0.42377,-0.0587 -0.44578,-0.59174 -0.2449,-0.82888 z" />
    <path
       id="path79"
       style="fill:#3f3f3f;fill-rule:evenodd;stroke-width:0;fill-opacity:1"
       inkscape:connector-curvature="0"
       d="m -417.7333,539.88914 4.0176,-4.74279 c 0.40176,-0.47428 1.02641,-0.6527 1.45018,-0.59397 l 8.05161,1.11582 c 0.42377,0.0587 0.64666,0.3546 0.2449,0.82888 l -4.01761,4.7428 c -0.20088,0.23714 -1.02641,0.65269 -1.45018,0.59396 l -8.05161,-1.11582 c -0.42377,-0.0587 -0.44577,-0.59174 -0.24489,-0.82888 z" />
    <path
       id="path81"
       style="fill:#3f3f3f;fill-rule:evenodd;stroke-width:0;fill-opacity:1"
       inkscape:connector-curvature="0"
       d="m -411.7069,532.77495 4.01761,-4.7428 c 0.40176,-0.47428 1.02641,-0.65269 1.45018,-0.59397 l 8.0516,1.11582 c 0.42377,0.0587 0.64666,0.3546 0.2449,0.82888 l -4.0176,4.7428 c -0.20088,0.23714 -1.02641,0.65269 -1.45018,0.59396 l -8.05161,-1.11582 c -0.42377,-0.0587 -0.44578,-0.59173 -0.2449,-0.82887 z" />
    <path
       id="path83"
       style="fill:#3f3f3f;fill-rule:evenodd;stroke-width:0;fill-opacity:1"
       inkscape:connector-curvature="0"
       d="m -405.68049,525.66075 4.0176,-4.7428 c 0.40176,-0.47428 1.02641,-0.65269 1.45018,-0.59397 l 8.05161,1.11583 c 0.42377,0.0587 0.64666,0.35459 0.2449,0.82887 l -4.01761,4.7428 c -0.20088,0.23714 -1.02641,0.65269 -1.45017,0.59396 l -8.05161,-1.11582 c -0.42377,-0.0587 -0.44578,-0.59173 -0.2449,-0.82887 z" />
    <path
       id="path85"
       style="fill:#3f3f3f;fill-rule:evenodd;stroke-width:0;fill-opacity:1"
       inkscape:connector-curvature="0"
       d="m -399.85496,518.78369 4.0176,-4.7428 c 0.40176,-0.47428 1.02641,-0.65269 1.45018,-0.59396 l 8.05161,1.11582 c 0.42377,0.0587 0.64665,0.35459 0.24489,0.82887 l -4.0176,4.7428 c -0.20088,0.23714 -1.02641,0.65269 -1.45018,0.59397 l -8.05161,-1.11583 c -0.42377,-0.0587 -0.44578,-0.59173 -0.24489,-0.82887 z" />
    <path
       id="path87"
       style="fill:#3f3f3f;fill-rule:evenodd;stroke-width:0;fill-opacity:1"
       inkscape:connector-curvature="0"
       d="m -445.86494,588.19135 4.21848,-4.97993 c 0.20088,-0.23714 1.2493,-0.35683 1.67307,-0.2981 l 7.20407,0.99836 c 0.84754,0.11746 1.07043,0.41333 0.86955,0.65047 l -4.21849,4.97994 c -0.20088,0.23714 -0.82553,0.41555 -1.67307,0.29809 l -7.20407,-0.99836 c -0.42377,-0.0587 -1.07042,-0.41333 -0.86954,-0.65047 z" />
    <path
       id="path89"
       style="fill:#3f3f3f;fill-rule:evenodd;stroke-width:0;fill-opacity:1"
       inkscape:connector-curvature="0"
       d="m -439.83854,581.07716 4.21849,-4.97994 c 0.20088,-0.23714 1.24929,-0.35683 1.67306,-0.2981 l 7.20408,0.99837 c 0.84753,0.11745 1.07042,0.41332 0.86954,0.65046 l -4.21848,4.97994 c -0.20088,0.23714 -0.82553,0.41555 -1.67307,0.2981 l -7.20407,-0.99837 c -0.42377,-0.0587 -1.07043,-0.41332 -0.86955,-0.65046 z" />
    <path
       id="path91"
       style="fill:#3f3f3f;fill-rule:evenodd;stroke-width:0;fill-opacity:1"
       inkscape:connector-curvature="0"
       d="m -433.81213,573.96296 4.21848,-4.97994 c 0.20088,-0.23714 1.2493,-0.35683 1.67307,-0.2981 l 7.20407,0.99837 c 0.84754,0.11745 1.07043,0.41332 0.86955,0.65046 l -4.21849,4.97994 c -0.20088,0.23714 -0.82553,0.41555 -1.67306,0.2981 l -7.20408,-0.99837 c -0.42376,-0.0587 -1.07042,-0.41332 -0.86954,-0.65046 z" />
    <path
       id="path93"
       style="fill:#3f3f3f;fill-rule:evenodd;stroke-width:0;fill-opacity:1"
       inkscape:connector-curvature="0"
       d="m -421.75932,559.73456 4.01761,-4.7428 c 0.20088,-0.23714 1.24929,-0.35682 1.67306,-0.29809 l 7.20407,0.99836 c 0.84754,0.11746 1.07043,0.41332 0.86955,0.65046 l -4.0176,4.7428 c -0.40176,0.47428 -1.02641,0.6527 -1.87395,0.53524 l -7.20407,-0.99837 c -0.42377,-0.0587 -1.07043,-0.41332 -0.66867,-0.8876 z" />
    <path
       id="path95"
       style="fill:#3f3f3f;fill-rule:evenodd;stroke-width:0;fill-opacity:1"
       inkscape:connector-curvature="0"
       d="m -415.73291,552.62036 4.0176,-4.7428 c 0.20088,-0.23714 1.2493,-0.35682 1.67307,-0.29809 l 7.20407,0.99836 c 0.84754,0.11746 1.07043,0.41333 0.86955,0.65047 l -4.01761,4.74279 c -0.40176,0.47428 -1.02641,0.6527 -1.87394,0.53524 l -7.20408,-0.99836 c -0.42377,-0.0587 -1.07042,-0.41333 -0.66866,-0.88761 z" />
    <path
       id="path97"
       style="fill:#3f3f3f;fill-rule:evenodd;stroke-width:0;fill-opacity:1"
       inkscape:connector-curvature="0"
       d="m -409.70651,545.50617 3.81673,-4.50566 c 0.20088,-0.23714 1.2493,-0.35683 1.67306,-0.2981 l 7.20408,0.99837 c 0.84753,0.11745 1.07042,0.41332 0.86954,0.65046 l -3.81672,4.50566 c -0.40176,0.47428 -1.02641,0.65269 -1.87395,0.53523 l -7.20407,-0.99836 c -0.42377,-0.0587 -1.07043,-0.41332 -0.66867,-0.8876 z" />
    <path
       id="path99"
       style="fill:#3f3f3f;fill-rule:evenodd;stroke-width:0;fill-opacity:1"
       inkscape:connector-curvature="0"
       d="m -403.88098,538.62911 4.0176,-4.7428 c 0.20088,-0.23714 1.2493,-0.35683 1.67307,-0.2981 l 7.20407,0.99837 c 0.84754,0.11745 1.07043,0.41332 0.86955,0.65046 l -4.01761,4.7428 c -0.40176,0.47428 -1.0264,0.65269 -1.87394,0.53524 l -7.20407,-0.99837 c -0.42377,-0.0587 -1.07043,-0.41332 -0.66867,-0.8876 z" />
    <path
       id="path101"
       style="fill:#3f3f3f;fill-rule:evenodd;stroke-width:0;fill-opacity:1"
       inkscape:connector-curvature="0"
       d="m -397.85457,531.51491 4.0176,-4.7428 c 0.20088,-0.23714 1.2493,-0.35683 1.67307,-0.2981 l 7.20407,0.99837 c 0.84754,0.11745 1.07043,0.41332 0.86955,0.65046 l -4.01761,4.7428 c -0.40176,0.47428 -1.02641,0.65269 -1.87395,0.53524 l -7.20407,-0.99837 c -0.42377,-0.0587 -1.07042,-0.41332 -0.66866,-0.8876 z" />
    <path
       id="path103"
       style="fill:#3f3f3f;fill-rule:evenodd;stroke-width:0;fill-opacity:1"
       inkscape:connector-curvature="0"
       d="m -391.82817,524.40071 3.81673,-4.50566 c 0.20088,-0.23714 1.24929,-0.35682 1.67306,-0.2981 l 7.20408,0.99837 c 0.84753,0.11746 1.07042,0.41332 0.86954,0.65046 l -3.81672,4.50566 c -0.40176,0.47428 -1.02641,0.65269 -1.87395,0.53524 l -7.20407,-0.99837 c -0.42377,-0.0587 -1.07043,-0.41332 -0.66867,-0.8876 z" />
    <path
       id="path105"
       style="fill:#3f3f3f;fill-rule:evenodd;stroke-width:0;fill-opacity:1"
       inkscape:connector-curvature="0"
       d="m -508.43279,597.00906 4.0176,-4.7428 c 0.20088,-0.23714 1.02641,-0.65269 1.87395,-0.53523 l 7.62784,1.05709 c 0.42377,0.0587 0.86955,0.65046 0.66867,0.8876 l -4.01761,4.7428 c -0.40176,0.47428 -1.45017,0.59397 -1.87394,0.53524 l -7.62784,-1.05709 c -0.84754,-0.11746 -1.07043,-0.41333 -0.66867,-0.88761 z" />
    <g
       transform="matrix(0.20088021,-0.23713994,0.42376892,0.05872746,-541.18145,604.92463)"
       id="g3895"
       style="fill:#3f3f3f;fill-rule:evenodd;fill-opacity:1">
      <path
         id="path107"
         d="m 106,55 h 20 c 2,0 3,1 3,3 v 18 c 0,1 -1,3 -3,3 h -20 c -1,0 -2,-2 -2,-3 V 58 c 0,-2 1,-3 2,-3 z"
         style="fill:#3f3f3f;stroke-width:0;fill-opacity:1"
         inkscape:connector-curvature="0" />
      <path
         id="path109"
         d="m 136,55 h 20 c 2,0 3,1 3,3 v 18 c 0,1 -1,3 -3,3 h -20 c -2,0 -3,-2 -3,-3 V 58 c 0,-2 1,-3 3,-3 z"
         style="fill:#3f3f3f;stroke-width:0;fill-opacity:1"
         inkscape:connector-curvature="0" />
      <path
         id="path111"
         d="m 166,55 h 20 c 2,0 3,1 3,3 v 18 c 0,1 -1,3 -3,3 h -20 c -1,0 -3,-2 -3,-3 V 58 c 0,-2 2,-3 3,-3 z"
         style="fill:#3f3f3f;stroke-width:0;fill-opacity:1"
         inkscape:connector-curvature="0" />
      <path
         id="path113"
         d="m 196,55 h 19 c 2,0 3,1 3,3 v 18 c 0,1 -1,3 -3,3 h -19 c -1,0 -3,-2 -3,-3 V 58 c 0,-2 2,-3 3,-3 z"
         style="fill:#3f3f3f;stroke-width:0;fill-opacity:1"
         inkscape:connector-curvature="0" />
    </g>
    <path
       id="path115"
       style="fill:#3f3f3f;fill-rule:evenodd;stroke-width:0;fill-opacity:1"
       inkscape:connector-curvature="0"
       d="m -469.66291,551.24105 4.01761,-4.74279 c 0.20088,-0.23714 1.24929,-0.35683 1.67306,-0.2981 l 7.62784,1.05709 c 0.84754,0.11746 1.07043,0.41332 0.86955,0.65046 l -4.0176,4.7428 c -0.40177,0.47428 -1.02641,0.6527 -1.87395,0.53524 l -7.62784,-1.05709 c -0.42377,-0.0587 -1.07043,-0.41333 -0.66867,-0.88761 z" />
    <path
       id="path117"
       style="fill:#3f3f3f;fill-rule:evenodd;stroke-width:0;fill-opacity:1"
       inkscape:connector-curvature="0"
       d="m -463.6365,544.12686 4.0176,-4.7428 c 0.20088,-0.23714 1.2493,-0.35683 1.67307,-0.2981 l 7.62784,1.05709 c 0.84754,0.11746 1.07043,0.41333 0.86955,0.65047 l -4.01761,4.7428 c -0.40176,0.47428 -1.02641,0.65269 -1.87395,0.53523 l -7.62784,-1.05709 c -0.42377,-0.0587 -1.07042,-0.41332 -0.66866,-0.8876 z" />
    <path
       id="path119"
       style="fill:#3f3f3f;fill-rule:evenodd;stroke-width:0;fill-opacity:1"
       inkscape:connector-curvature="0"
       d="m -457.81098,537.2498 4.01761,-4.7428 c 0.20088,-0.23714 1.2493,-0.35683 1.67306,-0.2981 l 7.62785,1.0571 c 0.84753,0.11745 1.07042,0.41332 0.86954,0.65046 l -4.0176,4.7428 c -0.20088,0.23714 -0.82553,0.41555 -1.67307,0.29809 l -7.62784,-1.05709 c -0.42377,-0.0587 -1.07043,-0.41332 -0.86955,-0.65046 z" />
    <path
       id="path121"
       style="fill:#3f3f3f;fill-rule:evenodd;stroke-width:0;fill-opacity:1"
       inkscape:connector-curvature="0"
       d="m -451.78457,530.1356 4.0176,-4.7428 c 0.20088,-0.23714 1.2493,-0.35682 1.67307,-0.2981 l 7.62784,1.0571 c 0.84754,0.11745 1.07043,0.41332 0.86955,0.65046 l -4.01761,4.7428 c -0.40176,0.47428 -1.02641,0.65269 -1.87394,0.53524 l -7.62784,-1.0571 c -0.42377,-0.0587 -1.07043,-0.41332 -0.66867,-0.8876 z" />
    <path
       id="path123"
       style="fill:#3f3f3f;fill-rule:evenodd;stroke-width:0;fill-opacity:1"
       inkscape:connector-curvature="0"
       d="m -442.94584,519.70144 4.0176,-4.7428 c 0.20088,-0.23714 1.2493,-0.35682 1.67307,-0.29809 l 7.62784,1.05709 c 0.84754,0.11746 1.07043,0.41332 0.86955,0.65046 l -4.01761,4.7428 c -0.40176,0.47428 -1.02641,0.65269 -1.87394,0.53524 l -7.62784,-1.0571 c -0.42377,-0.0587 -1.07043,-0.41332 -0.66867,-0.8876 z" />
    <path
       id="path125"
       style="fill:#3f3f3f;fill-rule:evenodd;stroke-width:0;fill-opacity:1"
       inkscape:connector-curvature="0"
       d="m -437.12031,512.82438 4.0176,-4.74279 c 0.20088,-0.23714 1.2493,-0.35683 1.67307,-0.2981 l 7.62784,1.05709 c 0.84753,0.11746 1.07042,0.41332 0.86954,0.65046 l -4.0176,4.7428 c -0.40176,0.47428 -1.02641,0.6527 -1.87395,0.53524 l -7.62784,-1.05709 c -0.42377,-0.0587 -1.07043,-0.41333 -0.66866,-0.88761 z" />
    <path
       id="path127"
       style="fill:#3f3f3f;fill-rule:evenodd;stroke-width:0;fill-opacity:1"
       inkscape:connector-curvature="0"
       d="m -431.09391,505.71019 4.01761,-4.7428 c 0.20088,-0.23714 1.24929,-0.35683 1.67306,-0.2981 l 7.62784,1.05709 c 0.84754,0.11746 1.07043,0.41333 0.86955,0.65047 l -4.0176,4.7428 c -0.40177,0.47428 -1.02641,0.65269 -1.87395,0.53523 l -7.62784,-1.05709 c -0.42377,-0.0587 -1.07043,-0.41332 -0.66867,-0.8876 z" />
    <path
       id="path129"
       style="fill:#3f3f3f;fill-rule:evenodd;stroke-width:0;fill-opacity:1"
       inkscape:connector-curvature="0"
       d="m -425.0675,498.59599 4.0176,-4.7428 c 0.20088,-0.23714 1.2493,-0.35683 1.67307,-0.2981 l 7.62784,1.0571 c 0.84754,0.11745 1.07043,0.41332 0.86955,0.65046 l -4.01761,4.7428 c -0.40176,0.47428 -1.02641,0.65269 -1.87395,0.53523 l -7.62784,-1.05709 c -0.42377,-0.0587 -1.07042,-0.41332 -0.66866,-0.8876 z" />
    <path
       id="path131"
       style="fill:#3f3f3f;fill-rule:evenodd;stroke-width:0;fill-opacity:1"
       inkscape:connector-curvature="0"
       d="m -401.67747,490.54408 4.01761,-4.7428 c 0.20088,-0.23714 0.82553,-0.41556 1.2493,-0.35683 l 7.62784,1.0571 c 0.42377,0.0587 0.64665,0.35459 0.44577,0.59173 l -4.0176,4.7428 c -0.40176,0.47428 -1.02641,0.65269 -1.45018,0.59396 l -7.62784,-1.05709 c -0.42377,-0.0587 -0.64666,-0.3546 -0.2449,-0.82887 z" />
    <path
       id="path133"
       style="fill:#3f3f3f;fill-rule:evenodd;stroke-width:0;fill-opacity:1"
       inkscape:connector-curvature="0"
       d="m -395.65106,483.42988 4.0176,-4.7428 c 0.20088,-0.23714 0.82553,-0.41555 1.2493,-0.35683 l 7.62784,1.0571 c 0.42377,0.0587 0.64666,0.35459 0.44578,0.59173 l -4.0176,4.7428 c -0.40176,0.47428 -1.02641,0.65269 -1.45018,0.59397 l -7.62784,-1.0571 c -0.42377,-0.0587 -0.64666,-0.35459 -0.2449,-0.82887 z" />
    <path
       id="path135"
       style="fill:#3f3f3f;fill-rule:evenodd;stroke-width:0;fill-opacity:1"
       inkscape:connector-curvature="0"
       d="m -389.62465,476.31568 3.81672,-4.50566 c 0.20088,-0.23714 0.82553,-0.41555 1.2493,-0.35683 l 7.62784,1.0571 c 0.42377,0.0587 0.64666,0.35459 0.44578,0.59173 l -3.81673,4.50566 c -0.40176,0.47428 -1.02641,0.6527 -1.45018,0.59397 l -7.62784,-1.0571 c -0.42376,-0.0587 -0.64665,-0.35459 -0.24489,-0.82887 z" />
    <path
       id="path137"
       style="fill:#3f3f3f;fill-rule:evenodd;stroke-width:0;fill-opacity:1"
       inkscape:connector-curvature="0"
       d="m -416.89843,488.96466 4.01761,-4.7428 c 0.40176,-0.47428 1.45018,-0.59397 1.87395,-0.53524 l 7.62784,1.05709 c 0.84753,0.11746 1.07042,0.41333 0.66866,0.88761 l -4.0176,4.74279 c -0.20088,0.23714 -1.02641,0.6527 -1.87395,0.53524 l -7.62784,-1.05709 c -0.42377,-0.0587 -0.86955,-0.65046 -0.66867,-0.8876 z" />
    <path
       id="path139"
       style="fill:#3f3f3f;fill-rule:evenodd;stroke-width:0;fill-opacity:1"
       inkscape:connector-curvature="0"
       d="m -410.87202,481.85046 4.01761,-4.7428 c 0.40176,-0.47428 1.45017,-0.59397 1.87394,-0.53524 l 7.62784,1.0571 c 0.84754,0.11745 1.07043,0.41332 0.66867,0.8876 l -4.0176,4.7428 c -0.20089,0.23714 -1.02641,0.65269 -1.87395,0.53523 l -7.62784,-1.05709 c -0.42377,-0.0587 -0.86955,-0.65046 -0.66867,-0.8876 z" />
    <path
       id="path141"
       style="fill:#3f3f3f;fill-rule:evenodd;stroke-width:0;fill-opacity:1"
       inkscape:connector-curvature="0"
       d="m -404.84561,474.73626 3.81672,-4.50566 c 0.40176,-0.47428 1.45018,-0.59396 1.87395,-0.53524 l 7.62784,1.0571 c 0.84754,0.11745 1.07043,0.41332 0.66867,0.8876 l -3.81673,4.50566 c -0.20088,0.23714 -1.02641,0.65269 -1.87395,0.53524 l -7.62784,-1.0571 c -0.42377,-0.0587 -0.86954,-0.65046 -0.66866,-0.8876 z" />
    <path
       id="path143"
       style="fill:#3f3f3f;fill-rule:evenodd;stroke-width:0;fill-opacity:1"
       inkscape:connector-curvature="0"
       d="m -390.93153,492.03329 4.0176,-4.7428 c 0.20088,-0.23714 1.2493,-0.35683 1.67307,-0.2981 l 7.62784,1.05709 c 0.84754,0.11746 1.07042,0.41333 0.86954,0.65047 l -4.0176,4.7428 c -0.40176,0.47427 -1.02641,0.65269 -1.87395,0.53523 l -7.62784,-1.05709 c -0.42377,-0.0587 -1.07042,-0.41332 -0.66866,-0.8876 z" />
    <path
       id="path145"
       style="fill:#3f3f3f;fill-rule:evenodd;stroke-width:0;fill-opacity:1"
       inkscape:connector-curvature="0"
       d="m -384.90513,484.91909 4.01761,-4.7428 c 0.20088,-0.23714 1.2493,-0.35683 1.67306,-0.2981 l 7.62784,1.0571 c 0.84754,0.11745 1.07043,0.41332 0.86955,0.65046 l -4.0176,4.7428 c -0.40176,0.47428 -1.02641,0.65269 -1.87395,0.53523 l -7.62784,-1.05709 c -0.42377,-0.0587 -1.07043,-0.41332 -0.66867,-0.8876 z" />
    <path
       id="path147"
       style="fill:#3f3f3f;fill-rule:evenodd;stroke-width:0;fill-opacity:1"
       inkscape:connector-curvature="0"
       d="m -378.87872,477.80489 3.81672,-4.50566 c 0.20088,-0.23714 1.2493,-0.35682 1.67307,-0.2981 l 7.62784,1.0571 c 0.84754,0.11745 1.07043,0.41332 0.86955,0.65046 l -3.81673,4.50566 c -0.40176,0.47428 -1.02641,0.65269 -1.87394,0.53524 l -7.62784,-1.0571 c -0.42377,-0.0587 -1.07043,-0.41332 -0.66867,-0.8876 z" />
    <path
       id="path149"
       style="fill:#ff0000;fill-rule:evenodd;stroke-width:0"
       inkscape:connector-curvature="0"
       d="m -355.75448,496.90825 4.01761,-4.7428 c 0.20088,-0.23714 0.82553,-0.41555 1.2493,-0.35682 l 8.05161,1.11582 c 0.42377,0.0587 0.64665,0.3546 0.44577,0.59174 l -4.0176,4.74279 c -0.40176,0.47428 -1.02641,0.6527 -1.45018,0.59397 l -8.05161,-1.11582 c -0.42377,-0.0587 -0.64666,-0.3546 -0.2449,-0.82888 z" />
    <path
       id="path151"
       style="fill:#ff0000;fill-rule:evenodd;stroke-width:0"
       inkscape:connector-curvature="0"
       d="m -349.72807,489.79405 4.01761,-4.74279 c 0.20088,-0.23714 0.82552,-0.41556 1.24929,-0.35683 l 8.05161,1.11582 c 0.42377,0.0587 0.64666,0.3546 0.44578,0.59174 l -4.0176,4.7428 c -0.40176,0.47428 -1.02641,0.65269 -1.45018,0.59396 l -8.05161,-1.11582 c -0.42377,-0.0587 -0.64666,-0.3546 -0.2449,-0.82888 z" />
    <path
       id="path153"
       style="fill:#ff0000;fill-rule:evenodd;stroke-width:0"
       inkscape:connector-curvature="0"
       d="m -343.70166,482.67986 3.81672,-4.50566 c 0.20088,-0.23714 0.82553,-0.41556 1.2493,-0.35683 l 8.05161,1.11582 c 0.42377,0.0587 0.64666,0.3546 0.44578,0.59174 l -3.81673,4.50566 c -0.40176,0.47428 -1.02641,0.65269 -1.45018,0.59396 l -8.05161,-1.11582 c -0.42376,-0.0587 -0.64665,-0.35459 -0.24489,-0.82887 z" />
    <path
       id="path155"
       style="fill:#ff0000;fill-rule:evenodd;stroke-width:0"
       inkscape:connector-curvature="0"
       d="m -361.16983,488.20841 4.0176,-4.7428 c 0.20088,-0.23714 0.82553,-0.41555 1.67307,-0.29809 l 7.20407,0.99836 c 0.42377,0.0587 1.07043,0.41333 0.86955,0.65047 l -4.0176,4.74279 c -0.40177,0.47428 -1.45018,0.59397 -1.87395,0.53524 l -7.20407,-0.99836 c -0.84754,-0.11746 -1.07043,-0.41333 -0.66867,-0.88761 z" />
    <path
       id="path185"
       style="fill:#3f3f3f;fill-rule:evenodd;stroke-width:0;fill-opacity:1"
       inkscape:connector-curvature="0"
       d="m -424.58005,578.15714 -2.20969,2.60854 c -0.40176,0.47428 -0.17887,0.77015 0.66867,0.8876 l 7.62784,1.05709 c 0.84754,0.11746 1.47219,-0.061 1.87395,-0.53523 l 2.20968,-2.60854 33.74788,-39.83951 3.61584,-4.26852 c 0,0 -0.22289,-0.29587 -1.07043,-0.41332 l -7.62784,-1.0571 c -0.84753,-0.11745 -1.47218,0.061 -1.47218,0.061 l -3.61585,4.26852 z" />
    <path
       id="path187"
       style="fill:#3f3f3f;fill-rule:evenodd;stroke-width:0;fill-opacity:1"
       inkscape:connector-curvature="0"
       d="m -378.57848,523.85209 3.81672,-4.50566 c 0.20088,-0.23714 0.82553,-0.41555 1.67307,-0.29809 l 7.62784,1.05709 c 0.84753,0.11746 1.07042,0.41332 0.86954,0.65046 l -3.81672,4.50566 c -0.40176,0.47428 -1.02641,0.65269 -1.87395,0.53524 l -7.62784,-1.0571 c -0.84754,-0.11745 -1.07043,-0.41332 -0.66866,-0.8876 z" />
    <path
       id="path189"
       style="fill:#3f3f3f;fill-rule:evenodd;stroke-width:0;fill-opacity:1"
       inkscape:connector-curvature="0"
       d="m -372.75296,516.97503 4.01761,-4.74279 c 0.20088,-0.23714 0.82552,-0.41556 1.67306,-0.2981 l 7.62784,1.05709 c 0.84754,0.11746 1.07043,0.41332 0.86955,0.65046 l -4.0176,4.7428 c -0.40177,0.47428 -1.02641,0.6527 -1.87395,0.53524 l -7.62784,-1.05709 c -0.84754,-0.11746 -1.07043,-0.41333 -0.66867,-0.88761 z" />
    <path
       id="path195"
       style="fill:#3f3f3f;fill-rule:evenodd;stroke-width:0;fill-opacity:1"
       inkscape:connector-curvature="0"
       d="m -427.98661,567.0859 4.21849,-4.97994 c 0.20088,-0.23714 1.2493,-0.35682 1.67307,-0.2981 l 7.20407,0.99837 c 0.84754,0.11746 1.07042,0.41332 0.86954,0.65046 l -4.21848,4.97994 c 0,0 -0.62465,0.17841 -1.47219,0.061 l -7.20407,-0.99837 c -0.42377,-0.0587 -1.07043,-0.41332 -1.07043,-0.41332 z" />
    <path
       id="path197"
       style="fill:#3f3f3f;fill-rule:evenodd;stroke-width:0;fill-opacity:1"
       inkscape:connector-curvature="0"
       d="m -472.26411,602.02145 c -0.40176,0.47428 -1.45018,0.59397 -1.87395,0.53524 l -7.62784,-1.0571 c -0.84754,-0.11745 -1.07043,-0.41332 -0.66867,-0.8876 l 7.63345,-9.01131 c 0.40176,-0.47428 1.02641,-0.6527 1.87395,-0.53524 l 7.62784,1.05709 c 0.42377,0.0587 1.07043,0.41332 0.66867,0.8876 z" />
    <path
       id="path199"
       style="fill:#3f3f3f;fill-rule:evenodd;stroke-width:0;fill-opacity:1"
       inkscape:connector-curvature="0"
       d="m -460.81811,603.60768 c -0.20088,0.23714 -1.02641,0.65269 -1.45018,0.59397 l -8.05161,-1.11583 c -0.42377,-0.0587 -0.44578,-0.59173 -0.2449,-0.82887 l 9.03961,-10.6713 c 0.40176,-0.47428 1.22729,-0.88983 1.65106,-0.8311 l 8.05161,1.11582 c 0.42377,0.0587 0.44578,0.59173 0.044,1.06601 z" />
    <path
       id="path551"
       style="fill:#3f3f3f;fill-rule:evenodd;stroke-width:0;fill-opacity:1"
       inkscape:connector-curvature="0"
       d="m -376.45684,519.11152 c -0.20088,0.23714 -0.82553,0.41556 -1.67306,0.2981 l -7.20408,-0.99837 c -0.42376,-0.0587 -1.07042,-0.41332 -0.86954,-0.65046 l 14.66425,-17.31121 c 0.40176,-0.47428 1.45018,-0.59397 1.87395,-0.53524 l 7.20407,0.99837 c 0.84754,0.11745 1.07043,0.41332 0.66867,0.8876 z" />
    <path
       id="path553"
       inkscape:connector-curvature="0"
       sodipodi:nodetypes="cssssssssssscc"
       style="fill:#ffcc00;fill-rule:evenodd;stroke-width:0"
       d="m -390.4136,507.63811 -3.41496,4.03138 c -0.40176,0.47428 -0.17887,0.77015 0.2449,0.82888 l 8.05161,1.11582 c 0.42377,0.0587 1.04842,-0.11969 1.45018,-0.59397 l 10.84753,-12.80555 c 0.40176,-0.47428 0.17887,-0.77015 -0.2449,-0.82888 l -19.49422,-2.70158 c -0.84754,-0.11745 -1.47218,0.061 -1.87394,0.53524 l -6.22729,7.35134 c -0.40176,0.47428 -0.17887,0.77014 0.66867,0.8876 l 9.32376,1.29212 c 0.84754,0.11746 1.27131,0.17618 0.66866,0.8876 z" />
    <path
       id="path559"
       style="fill:#3f3f3f;fill-rule:evenodd;stroke-width:0;fill-opacity:1"
       inkscape:connector-curvature="0"
       d="m -366.72655,509.86084 6.62904,-7.82562 c 0.40176,-0.47428 1.02641,-0.65269 1.87395,-0.53524 l 7.62784,1.05709 c 0.84754,0.11746 1.07043,0.41333 0.66867,0.88761 l -6.62905,7.82562 c -0.40176,0.47427 -1.02641,0.65269 -1.87395,0.53523 l -7.62784,-1.05709 c -0.84753,-0.11746 -1.07042,-0.41332 -0.66866,-0.8876 z" />
    <path
       id="path561"
       style="fill:#3f3f3f;fill-rule:evenodd;stroke-width:0;fill-opacity:1"
       inkscape:connector-curvature="0"
       d="m -449.37635,605.19332 c -0.20088,0.23714 -1.02641,0.65269 -1.87395,0.53524 l -7.20407,-0.99837 c -0.42377,-0.0587 -0.86955,-0.65046 -0.66867,-0.8876 l 11.45017,-13.51698 c 0.20088,-0.23714 1.2493,-0.35682 1.67307,-0.29809 l 7.20407,0.99836 c 0.84754,0.11746 1.07043,0.41333 0.86955,0.65047 z" />
    <path
       id="path563"
       style="fill:#3f3f3f;fill-rule:evenodd;stroke-width:0;fill-opacity:1"
       inkscape:connector-curvature="0"
       d="m -447.68128,605.42823 6.02641,-7.1142 c 0.20088,-0.23714 0.82553,-0.41555 1.67307,-0.29809 l 7.62784,1.05709 c 0.84753,0.11746 1.07042,0.41332 0.86954,0.65046 l -6.0264,7.1142 c -0.40176,0.47428 -1.02641,0.65269 -1.87395,0.53524 l -7.62784,-1.0571 c -0.84754,-0.11745 -1.07043,-0.41332 -0.66867,-0.8876 z" />
    <path
       id="path565"
       style="fill:#3f3f3f;fill-rule:evenodd;stroke-width:0;fill-opacity:1"
       inkscape:connector-curvature="0"
       d="m -439.64607,595.94263 3.81673,-4.50565 c 0.40176,-0.47428 1.0264,-0.6527 1.87394,-0.53524 l 7.62784,1.05709 c 0.42377,0.0587 1.07043,0.41332 0.66867,0.8876 l -3.81672,4.50566 c -0.20088,0.23714 -1.45018,0.59397 -1.87395,0.53524 l -7.62784,-1.05709 c -0.84754,-0.11746 -0.86955,-0.65047 -0.66867,-0.88761 z" />
    <path
       id="path567"
       style="fill:#3f3f3f;fill-rule:evenodd;stroke-width:0;fill-opacity:1"
       inkscape:connector-curvature="0"
       d="m -433.82054,589.06558 5.022,-5.9285 c 0.20088,-0.23714 0.82553,-0.41555 1.67307,-0.2981 l 7.62784,1.05709 c 0.42377,0.0587 1.07043,0.41333 0.86955,0.65047 l -5.02201,5.92849 c -0.20088,0.23714 -1.2493,0.35683 -1.67307,0.2981 l -7.62784,-1.05709 c -0.84753,-0.11746 -1.07042,-0.41332 -0.86954,-0.65046 z" />
    <path
       id="path865"
       style="fill:#3f3f3f;fill-rule:evenodd;stroke-width:0;fill-opacity:1"
       inkscape:connector-curvature="0"
       d="m -385.60929,532.15199 4.82112,-5.69136 c 0.20088,-0.23714 0.82553,-0.41555 1.67307,-0.2981 l 7.62784,1.0571 c 0.42377,0.0587 1.07043,0.41332 0.86955,0.65046 l -4.82113,5.69136 c -0.20088,0.23714 -1.2493,0.35682 -1.67307,0.2981 l -7.62784,-1.0571 c -0.84753,-0.11745 -1.07042,-0.41332 -0.86954,-0.65046 z" />
    <g
       id="g12824"
       transform="matrix(0.6521056,-0.0898832,0.0898832,0.6521056,-729.03548,968.55951)">
      <path
         id="path8378"
         style="fill:#333333;filter:url(#filter8454)"
         d="m 849.61,-508.47 c -6.6451,5.2552 -19.253,9.4825 -35.119,10.21 -25.534,-1.1571 -67.689,-12.27 -82.85,-22.745 -1.7203,-5.0325 1.6447,-13.541 6.0288,-18.109 33.506,-2.0264 89.886,5.08 117.31,16.799 0.45493,6.7419 0.37203,9.3075 -5.3654,13.845 z"
         sodipodi:nodetypes="sccccs"
         inkscape:connector-curvature="0"
         transform="matrix(1.0224,0,0,0.84582,-128.59,-50.858)" />
      <path
         id="path7612"
         d="m 736.96,-484.33 c -6.6451,5.2552 -19.253,9.4825 -35.119,10.21 -25.534,-1.1571 -67.689,-12.27 -82.85,-22.745 -1.7203,-5.0325 1.6447,-13.541 6.0288,-18.109 11.744,-12.237 54.052,-16.392 80.994,-10.283 19.458,4.4116 32.329,17.968 36.312,27.082 0.45493,6.7419 0.37203,9.3075 -5.3654,13.845 z"
         sodipodi:nodetypes="sccsscs"
         style="fill:#333333"
         inkscape:connector-curvature="0" />
      <path
         id="path8472"
         sodipodi:nodetypes="scccscs"
         style="fill:#1a1a1a"
         inkscape:connector-curvature="0"
         d="m 736.96,-484.33 c -6.6451,5.2552 -19.253,9.4825 -35.119,10.21 -25.534,-1.1571 -67.689,-12.27 -82.85,-22.745 -1.7203,-5.0325 1.6447,-13.541 6.0288,-18.109 26.288,-13.428 61.279,4.1796 78.74,21.255 16.511,16.147 37.977,2.2714 38.566,-4.4562 0.45493,6.7419 0.37203,9.3075 -5.3654,13.845 z" />
      <path
         id="path7604"
         sodipodi:nodetypes="sccsscs"
         style="fill:url(#radialGradient12080)"
         inkscape:connector-curvature="0"
         d="m 736.56,-486.66 c -6.6451,5.2552 -19.253,9.4825 -35.119,10.21 -25.534,-1.1571 -67.689,-12.27 -82.85,-22.745 -0.90754,-4.8664 2.051,-11.215 6.4352,-15.784 11.744,-12.237 54.052,-16.392 80.994,-10.283 19.458,4.4116 32.353,17.992 36.336,27.105 -0.40713,6.507 -0.059,6.9581 -5.7965,11.496 z" />
      <path
         id="path7610"
         d="m 702.86,-477.94 c -25.534,-1.1571 -65.861,-11.44 -81.022,-21.914 47.179,-13.541 78.181,6.7815 81.022,21.914 z"
         sodipodi:nodetypes="ccc"
         style="fill:url(#linearGradient12082)"
         inkscape:connector-curvature="0" />
      <path
         id="path7622"
         sodipodi:nodetypes="csc"
         style="fill:none;stroke:url(#linearGradient12084);stroke-width:0.45210001"
         inkscape:connector-curvature="0"
         d="m 622.45,-500.03 c 23.589,-6.7707 43.135,-5.0753 57.138,0.20428 14.003,5.27958 22.464,14.143 23.884,21.71" />
      <path
         id="path7640"
         d="m 626.22,-513.41 c -2.6274,0.4407 -1.7628,-0.96397 1.8307,-3.4161 16.026,-7.0585 34.329,-10.596 28.995,-5.0342 -2.3526,2.4529 -13.535,3.0168 -30.825,8.4504 z"
         sodipodi:nodetypes="ccsc"
         style="fill:#000000"
         inkscape:connector-curvature="0" />
      <path
         id="path7652"
         d="m 639.1,-519.34 c 0.38979,-2.5362 4.0919,-4.6812 6.9087,-5.2226 3.3724,-0.64819 5.8691,0.77407 7.2463,1.9398 0.47819,1.1112 -0.92918,1.474 -6.575,2.9373 -5.64582,1.4633 -8.0587,1.7284 -7.58,0.34546 z"
         sodipodi:nodetypes="csczc"
         style="fill:#ff0000"
         inkscape:connector-curvature="0" />
      <path
         id="path8249"
         style="fill:#ffaaaa;filter:url(#filter8275)"
         d="m 367.81,-482.63 c 0.24308,-1.6364 2.5518,-3.0205 4.3084,-3.3698 2.1031,-0.41824 3.66,0.49945 4.5189,1.2517 0.29821,0.71701 -0.57946,0.95107 -4.1002,1.8953 -3.5208,0.9442 -5.0255,1.1152 -4.727,0.2229 z"
         sodipodi:nodetypes="csczc"
         inkscape:connector-curvature="0"
         transform="matrix(1.1599,0,0,1.1488,213,35.107)" />
      <path
         id="path7650"
         sodipodi:nodetypes="cccc"
         style="fill:#666666"
         inkscape:connector-curvature="0"
         d="m 627.03,-514.17 c -2.6274,0.4407 -2.5756,0.30599 1.0179,-2.1462 10.264,-4.1786 4.2886,0.37743 16.801,-2.3369 -5.0063,1.0007 -15.4,3.3879 -17.819,4.483 z" />
    </g>
  </g>
  <metadata
     id="metadata722">
    <rdf:RDF>
      <cc:Work>
        <dc:format>image/svg+xml</dc:format>
        <dc:type
           rdf:resource="http://purl.org/dc/dcmitype/StillImage" />
        <cc:license
           rdf:resource="http://creativecommons.org/publicdomain/zero/1.0/" />
        <dc:publisher>
          <cc:Agent
             rdf:about="http://openclipart.org/">
            <dc:title>Openclipart</dc:title>
          </cc:Agent>
        </dc:publisher>
        <dc:title>Generic Gaming Keyboard/Mouse</dc:title>
        <dc:date>2011-03-21T08:43:37</dc:date>
        <dc:description>Generic Game Keyboard/Mouse model. All of my cliparts are created using Inkscape. Please rate and/or let me know if you like my work, to encourage me to be more productive.</dc:description>
        <dc:source>https://openclipart.org/detail/128623/generic-gaming-keyboardmouse-by-averpix</dc:source>
        <dc:creator>
          <cc:Agent>
            <dc:title>averpix</dc:title>
          </cc:Agent>
        </dc:creator>
        <dc:subject>
          <rdf:Bag>
            <rdf:li>Game</rdf:li>
            <rdf:li>computer</rdf:li>
            <rdf:li>console</rdf:li>
            <rdf:li>cpu</rdf:li>
            <rdf:li>desktop</rdf:li>
            <rdf:li>keyboard</rdf:li>
            <rdf:li>lcd</rdf:li>
            <rdf:li>mouse</rdf:li>
            <rdf:li>pc</rdf:li>
            <rdf:li>photorealistic</rdf:li>
            <rdf:li>station</rdf:li>
          </rdf:Bag>
        </dc:subject>
      </cc:Work>
      <cc:License
         rdf:about="http://creativecommons.org/publicdomain/zero/1.0/">
        <cc:permits
           rdf:resource="http://creativecommons.org/ns#Reproduction" />
        <cc:permits
           rdf:resource="http://creativecommons.org/ns#Distribution" />
        <cc:permits
           rdf:resource="http://creativecommons.org/ns#DerivativeWorks" />
      </cc:License>
    </rdf:RDF>
  </metadata>
</svg>
