<?xml version="1.0" encoding="UTF-8" standalone="no"?>
<!-- Created with Inkscape (http://www.inkscape.org/) -->
<svg
   xmlns:dc="http://purl.org/dc/elements/1.1/"
   xmlns:cc="http://creativecommons.org/ns#"
   xmlns:rdf="http://www.w3.org/1999/02/22-rdf-syntax-ns#"
   xmlns:svg="http://www.w3.org/2000/svg"
   xmlns="http://www.w3.org/2000/svg"
   xmlns:xlink="http://www.w3.org/1999/xlink"
   xmlns:sodipodi="http://sodipodi.sourceforge.net/DTD/sodipodi-0.dtd"
   xmlns:inkscape="http://www.inkscape.org/namespaces/inkscape"
   id="svg2"
   sodipodi:version="0.32"
   inkscape:version="0.46"
   width="256"
   height="256"
   version="1.0"
   sodipodi:docname="kformula.svg"
   inkscape:output_extension="org.inkscape.output.svg.inkscape">
  <metadata
     id="metadata7">
    <rdf:RDF>
      <cc:Work
         rdf:about="">
        <dc:format>image/svg+xml</dc:format>
        <dc:type
           rdf:resource="http://purl.org/dc/dcmitype/StillImage" />
      </cc:Work>
    </rdf:RDF>
  </metadata>
  <defs
     id="defs5">
    <linearGradient
       id="linearGradient3209">
      <stop
         style="stop-color:#001482;stop-opacity:1;"
         offset="0"
         id="stop3211" />
      <stop
         style="stop-color:#ffffff;stop-opacity:1;"
         offset="1"
         id="stop3213" />
    </linearGradient>
    <inkscape:perspective
       sodipodi:type="inkscape:persp3d"
       inkscape:vp_x="0 : 526.18109 : 1"
       inkscape:vp_y="0 : 1000 : 0"
       inkscape:vp_z="744.09448 : 526.18109 : 1"
       inkscape:persp3d-origin="372.04724 : 350.78739 : 1"
       id="perspective9" />
    <linearGradient
       inkscape:collect="always"
       xlink:href="#linearGradient3209"
       id="linearGradient3276"
       gradientUnits="userSpaceOnUse"
       x1="-0.66736406"
       y1="95.473854"
       x2="87.859833"
       y2="-9.042882" />
    <inkscape:perspective
       id="perspective10"
       inkscape:persp3d-origin="372.04724 : 350.78739 : 1"
       inkscape:vp_z="744.09448 : 526.18109 : 1"
       inkscape:vp_y="0 : 1000 : 0"
       inkscape:vp_x="0 : 526.18109 : 1"
       sodipodi:type="inkscape:persp3d" />
  </defs>
  <sodipodi:namedview
     inkscape:window-height="1025"
     inkscape:window-width="1680"
     inkscape:pageshadow="2"
     inkscape:pageopacity="0.0"
     guidetolerance="10.0"
     gridtolerance="10.0"
     objecttolerance="10.0"
     borderopacity="1.0"
     bordercolor="#666666"
     pagecolor="#ffffff"
     id="base"
     showgrid="false"
     inkscape:zoom="3.3984375"
     inkscape:cx="128"
     inkscape:cy="128"
     inkscape:window-x="-5"
     inkscape:window-y="0"
     inkscape:current-layer="svg2" />
  <g
     id="g3259"
     transform="matrix(2.0273347,0,0,2.0273347,30.369859,37.262814)">
    <rect
       ry="14.087866"
       y="-1.3326362"
       x="-10.089958"
       height="91.951897"
       width="116.12971"
       id="rect3207"
       style="fill:#bbbbbb;fill-opacity:1;stroke:url(#linearGradient3276);stroke-width:4;stroke-linecap:round;stroke-linejoin:round;stroke-miterlimit:4;stroke-dasharray:none;stroke-opacity:1" />
    <g
       transform="translate(-1.9037657,0)"
       id="g3199">
      <path
         style="font-size:21.15016174px;font-style:normal;font-variant:normal;font-weight:normal;font-stretch:normal;fill:#000000;fill-opacity:1;stroke:none;stroke-width:1px;stroke-linecap:butt;stroke-linejoin:miter;stroke-opacity:1;font-family:Arial Black;-inkscape-font-specification:Arial Black"
         d="M 90.982551,40.740586 L 79.109089,40.740586 C 79.245117,39.416097 79.656446,38.172102 80.343073,37.008598 C 81.036175,35.837784 82.331697,34.458413 84.22964,32.870482 C 85.389127,31.897248 86.130813,31.158169 86.4547,30.653243 C 86.778573,30.148338 86.940513,29.669034 86.940522,29.215329 C 86.940513,28.725061 86.778573,28.307958 86.4547,27.964016 C 86.13729,27.612784 85.735678,27.437161 85.249864,27.437148 C 84.744605,27.437161 84.330038,27.616443 84.006163,27.974993 C 83.688755,28.333568 83.474994,28.966543 83.364879,29.873916 L 79.40058,29.511694 C 79.556043,28.253075 79.841058,27.272515 80.255625,26.57001 C 80.670191,25.860215 81.253176,25.318711 82.004581,24.945497 C 82.762458,24.564997 83.808591,24.374738 85.142984,24.374722 C 86.535663,24.374738 87.617423,24.55402 88.388268,24.912567 C 89.165571,25.271147 89.774466,25.823627 90.214954,26.57001 C 90.661898,27.309103 90.885375,28.139652 90.885387,29.06166 C 90.885375,30.042232 90.62951,30.978887 90.11779,31.871626 C 89.612526,32.764385 88.689467,33.744945 87.348611,34.813311 C 86.551857,35.435315 86.017454,35.870712 85.745402,36.119506 C 85.479813,36.36831 85.16565,36.693944 84.80291,37.09641 L 90.982551,37.09641 L 90.982551,40.740586"
         id="text2396" />
      <path
         style="font-size:40px;font-style:normal;font-variant:normal;font-weight:normal;font-stretch:normal;fill:#000000;fill-opacity:1;stroke:none;stroke-width:1px;stroke-linecap:butt;stroke-linejoin:miter;stroke-opacity:1;font-family:Arial Black;-inkscape-font-specification:Arial Black"
         d="M 56.068366,42.653211 L 64.466803,42.653211 L 68.744147,56.461805 L 72.708991,42.653211 L 80.541022,42.653211 L 72.318366,64.82118 C 71.38085,67.347217 70.42382,69.052944 69.447272,69.938367 C 68.067052,71.188359 65.964189,71.813358 63.138678,71.813367 C 61.992839,71.813358 60.222007,71.657109 57.826178,71.344617 L 57.201178,65.797742 C 58.347009,66.162322 59.62305,66.344614 61.029303,66.344617 C 61.966797,66.344614 62.722005,66.12977 63.294928,65.700086 C 63.880858,65.270396 64.375649,64.502168 64.779303,63.395398 L 56.068366,42.653211"
         id="text2404" />
      <path
         style="font-size:40px;font-style:normal;font-variant:normal;font-weight:normal;font-stretch:normal;fill:#000000;fill-opacity:1;stroke:none;stroke-width:1px;stroke-linecap:butt;stroke-linejoin:miter;stroke-opacity:1;font-family:Arial Black;-inkscape-font-specification:Arial Black"
         d="M 1.5573574,40.939821 L 10.990947,40.939821 L 14.291727,46.721071 L 18.119857,40.939821 L 26.889387,40.939821 L 19.819077,50.822634 L 27.397197,61.682009 L 18.119857,61.682009 L 14.291727,55.002322 L 9.7800174,61.682009 L 1.1667274,61.682009 L 8.7057974,50.822634 L 1.5573574,40.939821"
         id="text2408" />
      <path
         style="font-size:40px;font-style:normal;font-variant:normal;font-weight:normal;font-stretch:normal;fill:#000000;fill-opacity:1;stroke:none;stroke-width:1px;stroke-linecap:butt;stroke-linejoin:miter;stroke-opacity:1;font-family:Arial Black;-inkscape-font-specification:Arial Black"
         d="M 25.656829,46.223294 L 39.613877,46.223294 L 39.613877,50.022148 L 25.656829,50.022148 L 25.656829,46.223294"
         id="text2412" />
      <path
         style="font-size:40px;font-style:normal;font-variant:normal;font-weight:normal;font-stretch:normal;fill:#000000;fill-opacity:1;stroke:none;stroke-width:1px;stroke-linecap:butt;stroke-linejoin:miter;stroke-opacity:1;font-family:Arial Black;-inkscape-font-specification:Arial Black"
         d="M 25.656829,52.031689 L 40.033529,52.031689 L 40.033529,55.830546 L 25.656829,55.830546 L 25.656829,52.031689"
         id="text2416" />
      <path
         style="fill:none;fill-rule:evenodd;stroke:#000000;stroke-width:4;stroke-linecap:round;stroke-linejoin:miter;stroke-miterlimit:4;stroke-dasharray:none;stroke-opacity:1"
         d="M 40.169456,40.740586 L 44.548117,40.550209 L 48.355648,71.200837 L 53.305439,17.895398 L 94.426778,17.895398"
         id="path2427" />
    </g>
    <g
       transform="translate(135.92887,-0.9518828)"
       id="g3251">
      <path
         id="path3233"
         d="M -43.423309,39.40795 L -55.296771,39.40795 C -55.160743,38.083461 -54.749414,36.839466 -54.062787,35.675962 C -53.369685,34.505148 -52.074163,33.125777 -50.17622,31.537846 C -49.016733,30.564612 -48.275047,29.825533 -47.95116,29.320607 C -47.627287,28.815702 -47.465347,28.336398 -47.465338,27.882693 C -47.465347,27.392425 -47.627287,26.975322 -47.95116,26.63138 C -48.26857,26.280148 -48.670182,26.104525 -49.155996,26.104512 C -49.661255,26.104525 -50.075822,26.283807 -50.399697,26.642357 C -50.717105,27.000932 -50.930866,27.633907 -51.040981,28.54128 L -55.00528,28.179058 C -54.849817,26.920439 -54.564802,25.939879 -54.150235,25.237374 C -53.735669,24.527579 -53.152684,23.986075 -52.401279,23.612861 C -51.643402,23.232361 -50.597269,23.042102 -49.262876,23.042086 C -47.870197,23.042102 -46.788437,23.221384 -46.017592,23.579931 C -45.240289,23.938511 -44.631394,24.490991 -44.190906,25.237374 C -43.743962,25.976467 -43.520485,26.807016 -43.520473,27.729024 C -43.520485,28.709596 -43.77635,29.646251 -44.28807,30.53899 C -44.793334,31.431749 -45.716393,32.412309 -47.057249,33.480675 C -47.854003,34.102679 -48.388406,34.538076 -48.660458,34.78687 C -48.926047,35.035674 -49.24021,35.361308 -49.60295,35.763774 L -43.423309,35.763774 L -43.423309,39.40795"
         style="font-size:21.15016174px;font-style:normal;font-variant:normal;font-weight:normal;font-stretch:normal;fill:#ffffff;fill-opacity:1;stroke:none;stroke-width:1px;stroke-linecap:butt;stroke-linejoin:miter;stroke-opacity:1;font-family:Arial Black;-inkscape-font-specification:Arial Black" />
      <path
         id="path3235"
         d="M -78.337494,41.320575 L -69.939057,41.320575 L -65.661713,55.129169 L -61.696869,41.320575 L -53.864838,41.320575 L -62.087494,63.488544 C -63.02501,66.014581 -63.98204,67.720308 -64.958588,68.605731 C -66.338808,69.855723 -68.441671,70.480722 -71.267182,70.480731 C -72.413021,70.480722 -74.183853,70.324473 -76.579682,70.011981 L -77.204682,64.465106 C -76.058851,64.829686 -74.78281,65.011978 -73.376557,65.011981 C -72.439063,65.011978 -71.683855,64.797134 -71.110932,64.36745 C -70.525002,63.93776 -70.030211,63.169532 -69.626557,62.062762 L -78.337494,41.320575"
         style="font-size:40px;font-style:normal;font-variant:normal;font-weight:normal;font-stretch:normal;fill:#ffffff;fill-opacity:1;stroke:none;stroke-width:1px;stroke-linecap:butt;stroke-linejoin:miter;stroke-opacity:1;font-family:Arial Black;-inkscape-font-specification:Arial Black" />
      <path
         id="path3237"
         d="M -132.8485,39.607185 L -123.41491,39.607185 L -120.11413,45.388435 L -116.286,39.607185 L -107.51647,39.607185 L -114.58678,49.489998 L -107.00866,60.349373 L -116.286,60.349373 L -120.11413,53.669686 L -124.62584,60.349373 L -133.23913,60.349373 L -125.70006,49.489998 L -132.8485,39.607185"
         style="font-size:40px;font-style:normal;font-variant:normal;font-weight:normal;font-stretch:normal;fill:#ffffff;fill-opacity:1;stroke:none;stroke-width:1px;stroke-linecap:butt;stroke-linejoin:miter;stroke-opacity:1;font-family:Arial Black;-inkscape-font-specification:Arial Black" />
      <path
         id="path3239"
         d="M -108.74903,44.890658 L -94.791983,44.890658 L -94.791983,48.689512 L -108.74903,48.689512 L -108.74903,44.890658"
         style="font-size:40px;font-style:normal;font-variant:normal;font-weight:normal;font-stretch:normal;fill:#ffffff;fill-opacity:1;stroke:none;stroke-width:1px;stroke-linecap:butt;stroke-linejoin:miter;stroke-opacity:1;font-family:Arial Black;-inkscape-font-specification:Arial Black" />
      <path
         id="path3241"
         d="M -108.74903,50.699053 L -94.372331,50.699053 L -94.372331,54.49791 L -108.74903,54.49791 L -108.74903,50.699053"
         style="font-size:40px;font-style:normal;font-variant:normal;font-weight:normal;font-stretch:normal;fill:#ffffff;fill-opacity:1;stroke:none;stroke-width:1px;stroke-linecap:butt;stroke-linejoin:miter;stroke-opacity:1;font-family:Arial Black;-inkscape-font-specification:Arial Black" />
      <path
         id="path3243"
         d="M -94.236404,39.40795 L -89.857743,39.217573 L -86.050212,69.868201 L -81.100421,16.562762 L -39.979082,16.562762"
         style="fill:none;fill-rule:evenodd;stroke:#ffffff;stroke-width:4;stroke-linecap:round;stroke-linejoin:miter;stroke-miterlimit:4;stroke-dasharray:none;stroke-opacity:1" />
    </g>
  </g>
  <g
     id="layer1"
     inkscape:label="Layer 1"
     transform="translate(-2.8194423,-0.4657099)">
    <path
       sodipodi:nodetypes="cccccccccsssccccccssscccccc"
       id="text2383"
       d="M 10.338337,-10.630085 L 10.369587,-10.598835 L 6.9504776,-1.4142743 L 8.3879776,-1.3856193 L 9.6246406,-4.5355853 L 12.857374,-4.5355853 L 14.083033,-1.3856183 L 15.520533,-1.3856183 L 14.244587,-4.5675853 C 15.011057,-4.6616323 15.614006,-4.8951793 16.057087,-5.2863353 C 16.64497,-5.8013043 16.93208,-6.5604173 16.932087,-7.5675853 C 16.932079,-8.5656233 16.644971,-9.3338523 16.057087,-9.8488353 C 15.473747,-10.368356 14.607212,-10.630075 13.463337,-10.630085 L 11.932087,-10.630085 L 10.369587,-10.630085 L 10.338337,-10.630085 z M 12.369587,-9.5050853 L 13.463337,-9.5050853 C 14.10591,-9.5050763 14.612421,-9.3377583 14.963337,-9.0050853 C 15.314242,-8.6723943 15.494581,-8.1782543 15.494587,-7.5675853 C 15.494581,-6.9523443 15.314243,-6.4940113 14.963337,-6.1613353 C 14.676858,-5.8897383 14.287944,-5.7424543 13.807087,-5.6925853 L 12.369587,-9.5050853 z M 11.140459,-8.6820923 L 12.326124,-5.6918353 L 9.9475186,-5.6345243 L 11.140459,-8.6820923 z"
       style="font-size:14px;font-style:normal;font-weight:normal;fill:#000000;fill-opacity:1;stroke:none;stroke-width:1px;stroke-linecap:butt;stroke-linejoin:miter;stroke-opacity:1;font-family:Bitstream Vera Sans" />
  </g>
</svg>
