<?xml version="1.0" encoding="UTF-8" standalone="no"?>
<!-- Created with Inkscape (http://www.inkscape.org/) -->

<svg
   xmlns:dc="http://purl.org/dc/elements/1.1/"
   xmlns:cc="http://creativecommons.org/ns#"
   xmlns:rdf="http://www.w3.org/1999/02/22-rdf-syntax-ns#"
   xmlns:svg="http://www.w3.org/2000/svg"
   xmlns="http://www.w3.org/2000/svg"
   xmlns:xlink="http://www.w3.org/1999/xlink"
   xmlns:sodipodi="http://sodipodi.sourceforge.net/DTD/sodipodi-0.dtd"
   xmlns:inkscape="http://www.inkscape.org/namespaces/inkscape"
   version="1.0"
   width="255"
   height="255"
   id="svg2408"
   inkscape:version="0.92.5 (2060ec1f9f, 2020-04-08)"
   sodipodi:docname="kmahjongg.svg">
  <sodipodi:namedview
     pagecolor="#ff0000"
     bordercolor="#666666"
     borderopacity="1"
     objecttolerance="10"
     gridtolerance="10"
     guidetolerance="10"
     inkscape:pageopacity="0"
     inkscape:pageshadow="2"
     inkscape:window-width="1280"
     inkscape:window-height="963"
     id="namedview3718"
     showgrid="false"
     inkscape:zoom="3.454902"
     inkscape:cx="127.5"
     inkscape:cy="127.5"
     inkscape:window-x="0"
     inkscape:window-y="0"
     inkscape:window-maximized="1"
     inkscape:current-layer="g7390"
     inkscape:snap-to-guides="false"
     inkscape:snap-grids="false"
     inkscape:snap-others="false"
     inkscape:object-nodes="false"
     inkscape:snap-nodes="false"
     inkscape:snap-global="false" />
  <defs
     id="defs2410">
    <linearGradient
       inkscape:collect="always"
       id="linearGradient956">
      <stop
         style="stop-color:#fffaf6;stop-opacity:1"
         offset="0"
         id="stop952" />
      <stop
         style="stop-color:#ecc69e;stop-opacity:0"
         offset="1"
         id="stop954" />
    </linearGradient>
    <linearGradient
       inkscape:collect="always"
       id="linearGradient932">
      <stop
         style="stop-color:#b07639;stop-opacity:1"
         offset="0"
         id="stop928" />
      <stop
         style="stop-color:#653a0c;stop-opacity:0;"
         offset="1"
         id="stop930" />
    </linearGradient>
    <linearGradient
       inkscape:collect="always"
       id="linearGradient920">
      <stop
         style="stop-color:#613609;stop-opacity:1;"
         offset="0"
         id="stop916" />
      <stop
         style="stop-color:#d49e65;stop-opacity:1"
         offset="1"
         id="stop918" />
    </linearGradient>
    <linearGradient
       inkscape:collect="always"
       id="linearGradient910">
      <stop
         style="stop-color:#efa659;stop-opacity:1"
         offset="0"
         id="stop906" />
      <stop
         style="stop-color:#613609;stop-opacity:1"
         offset="1"
         id="stop908" />
    </linearGradient>
    <linearGradient
       gradientTransform="scale(1.0058652,0.994169)"
       gradientUnits="userSpaceOnUse"
       id="linearGradient871"
       y2="7.02"
       x2="45.45"
       y1="92.54"
       x1="45.45">
      <stop
         stop-opacity="0"
         stop-color="#eab07d"
         id="stop867" />
      <stop
         stop-opacity="0.678"
         stop-color="#ffffff"
         offset="1"
         id="stop869" />
    </linearGradient>
    <linearGradient
       inkscape:collect="always"
       id="linearGradient892">
      <stop
         id="stop888"
         stop-color="#cd8b3f"
         stop-opacity="1" />
      <stop
         offset="1"
         id="stop890"
         stop-color="#f2cfa6"
         stop-opacity="1" />
    </linearGradient>
    <linearGradient
       x1="45.45"
       y1="92.54"
       x2="45.45"
       y2="7.02"
       id="light"
       gradientUnits="userSpaceOnUse"
       gradientTransform="scale(1.0058652,0.994169)">
      <stop
         id="stop3750"
         stop-color="#000000"
         stop-opacity="1" />
      <stop
         id="stop3752"
         offset="1"
         stop-color="#000000"
         stop-opacity="0.588" />
    </linearGradient>
    <linearGradient
       id="linearGradient3737">
      <stop
         id="stop3739"
         stop-color="#ffffff"
         stop-opacity="1" />
      <stop
         id="stop3741"
         offset="1"
         stop-color="#ffffff"
         stop-opacity="0" />
    </linearGradient>
    <filter
       id="filter3174"
       color-interpolation-filters="sRGB">
      <feGaussianBlur
         id="feGaussianBlur3176"
         stdDeviation="1.71" />
    </filter>
    <filter
       x="-0.192"
       y="-0.192"
       width="1.384"
       height="1.384"
       id="filter3794"
       color-interpolation-filters="sRGB">
      <feGaussianBlur
         id="feGaussianBlur3796"
         stdDeviation="5.28" />
    </filter>
    <linearGradient
       x1="48"
       y1="20.221"
       x2="48"
       y2="138.66"
       id="linearGradient3613"
       xlink:href="#linearGradient3737"
       gradientUnits="userSpaceOnUse" />
    <clipPath
       id="clipPath3613">
      <rect
         width="84"
         height="84"
         rx="6"
         ry="6"
         x="6"
         y="6"
         id="rect3615"
         fill="#ffffff"
         fill-rule="nonzero"
         stroke="none"
         fill-opacity="1" />
    </clipPath>
    <clipPath
       id="clipPath4156-4"
       clipPathUnits="userSpaceOnUse">
      <path
         inkscape:connector-curvature="0"
         id="path4158-0"
         d="m 27.046336,-55.695463 -14.21366,13.321486 h 0.06127 l 15.653407,21.770763 10.231384,-10.546177 C 38.561832,-32.30156 27.468089,-54.819245 27.046336,-55.695463 Z M 9.6468554,-39.382809 -5.2407289,-25.32124 15.987863,-7.8059573 26.372412,-18.382966 Z m 31.4906096,12.951445 -9.741259,9.713584 8.944804,12.4580526 7.780753,-7.5550056 z m -49.8397109,4.378822 -13.7541661,12.9822847 26.2830181,13.84571 0.06127,-0.0617 -0.122531,-0.0617 L 13.598503,-5.4007374 -8.7022409,-22.052595 Z m 38.0154159,7.400825 -9.802525,9.7752596 11.579232,9.5594001 7.62759,-7.40083 -8.669108,-11.0087257 z m 20.187073,5.6739697 -7.382526,7.2158 6.187844,8.54179 5.820249,-6.13651996 z m -32.195166,6.32154 -9.5574606,9.49772 13.6622686,7.1849703 7.933918,-7.6783603 z m 23.311629,2.37443004 -7.10683,6.93826996 8.362778,6.9074403 5.360756,-5.6739699 -0.06127,-0.0925 -0.0919,0.12335 -6.463539,-8.20258036 z m -8.730374,8.54178036 -7.505057,7.3391599 10.353916,5.45811 c 1.397496,-1.32103 5.67514,-6.12292 5.850882,-6.32154 z"
         opacity="0.6"
         fill="#ffffff"
         stroke="none"
         fill-opacity="1" />
    </clipPath>
    <clipPath
       id="clipPath4194-1-2-5">
      <rect
         id="rect4196-1-6-2"
         y="6"
         x="6"
         ry="6"
         rx="6"
         height="84"
         width="84"
         fill="#ff00ff"
         fill-rule="nonzero"
         stroke="none"
         fill-opacity="1" />
    </clipPath>
    <clipPath
       id="clipPath3613-9">
      <rect
         id="rect3615-2"
         y="6"
         x="6"
         ry="6"
         rx="6"
         height="84"
         width="84"
         fill="#ffffff"
         fill-rule="nonzero"
         stroke="none"
         fill-opacity="1" />
    </clipPath>
    <linearGradient
       inkscape:collect="always"
       xlink:href="#linearGradient892"
       id="linearGradient894"
       x1="163.47"
       y1="-165.13"
       x2="169.55"
       y2="59.48"
       gradientUnits="userSpaceOnUse"
       gradientTransform="translate(-2.3155505,-3.4733258)" />
    <linearGradient
       inkscape:collect="always"
       xlink:href="#linearGradient871"
       id="linearGradient865"
       gradientUnits="userSpaceOnUse"
       x1="139.74"
       y1="-21.562"
       x2="51.17"
       y2="-169.47"
       gradientTransform="translate(-2.3155505,-3.4733258)" />
    <linearGradient
       inkscape:collect="always"
       xlink:href="#linearGradient910"
       id="linearGradient912"
       x1="38.987843"
       y1="239.15335"
       x2="61.747086"
       y2="241.04523"
       gradientUnits="userSpaceOnUse"
       gradientTransform="translate(5.7284089,-177.13889)" />
    <linearGradient
       inkscape:collect="always"
       xlink:href="#linearGradient920"
       id="linearGradient922"
       x1="218.60989"
       y1="-145.16798"
       x2="221.74655"
       y2="-149.32533"
       gradientUnits="userSpaceOnUse"
       gradientTransform="translate(-2.3155505,-3.4733258)" />
    <linearGradient
       inkscape:collect="always"
       xlink:href="#linearGradient932"
       id="linearGradient934"
       x1="213.39958"
       y1="64.005272"
       x2="220.84035"
       y2="55.68335"
       gradientUnits="userSpaceOnUse"
       spreadMethod="reflect"
       gradientTransform="translate(-2.3155505,-3.4733258)" />
    <filter
       inkscape:collect="always"
       style="color-interpolation-filters:sRGB"
       id="filter946"
       x="-0.028255589"
       width="1.0565112"
       y="-0.020858492"
       height="1.041717">
      <feGaussianBlur
         inkscape:collect="always"
         stdDeviation="1.9696501"
         id="feGaussianBlur948" />
    </filter>
    <linearGradient
       inkscape:collect="always"
       xlink:href="#linearGradient956"
       id="linearGradient958"
       x1="51.816017"
       y1="-173.10294"
       x2="206.24399"
       y2="19.956083"
       gradientUnits="userSpaceOnUse" />
  </defs>
  <metadata
     id="metadata2413">
    <rdf:RDF>
      <cc:Work>
        <dc:format>image/svg+xml</dc:format>
        <dc:type
           rdf:resource="http://purl.org/dc/dcmitype/StillImage" />
        <dc:title />
      </cc:Work>
    </rdf:RDF>
  </metadata>
  <g
     id="layer2"
     transform="translate(0,159)"
     display="none">
    <rect
       width="86"
       height="85"
       rx="6"
       ry="6"
       x="5"
       y="7"
       id="rect3745"
       opacity="0.9"
       fill="url(#light)"
       filter="url(#filter3174)"
       fill-rule="nonzero"
       stroke="none"
       fill-opacity="1" />
  </g>
  <g
     id="layer5"
     transform="translate(0,159)"
     display="none">
    <rect
       width="66"
       height="66"
       rx="12"
       ry="12"
       x="15"
       y="15"
       clip-path="url(#clipPath3613)"
       id="rect3171"
       opacity="0.1"
       stroke-dasharray="none"
       stroke-opacity="1"
       fill="url(#linearGradient3613)"
       filter="url(#filter3794)"
       fill-rule="nonzero"
       stroke="#ffffff"
       stroke-linejoin="miter"
       fill-opacity="1"
       stroke-linecap="round"
       stroke-width="0.5"
       stroke-dashoffset="0"
       stroke-miterlimit="4" />
  </g>
  <g
     id="g12121"
     transform="translate(0,159)">
    <g
       id="layer1-6"
       inkscape:label="Layer 1"
       transform="translate(-1e-6,32)">
      <g
         id="g7390"
         transform="translate(-8.0439584,-17.334439)">
        <path
           inkscape:connector-curvature="0"
           style="opacity:1;fill:#000000;fill-opacity:0.80000001;stroke:none;stroke-width:6.37799978;stroke-linecap:round;stroke-linejoin:round;stroke-miterlimit:4;stroke-dasharray:none;stroke-dashoffset:0;stroke-opacity:0.28999999;paint-order:fill markers stroke;filter:url(#filter946)"
           stroke-miterlimit="4"
           id="path936"
           d="M 73.211635,-149.92837 H 214.37164 c 7.24078,0 13.07,5.82922 13.07,13.07 V 63.631637 c 0,7.24078 -5.82922,13.069999 -13.07,13.069999 H 73.211635 c -7.24078,0 -13.07,-5.829219 -13.07,-13.069999 V -136.85837 c 0,-7.24078 5.82922,-13.07 13.07,-13.07 z" />
        <path
           id="path873"
           d="M 67.133316,-156.29615 H 208.29332 c 7.24078,0 13.07,5.82922 13.07,13.07 V 57.263873 c 0,7.24078 -5.82922,13.069999 -13.07,13.069999 H 67.133316 c -7.24078,0 -13.07,-5.829219 -13.07,-13.069999 V -143.22615 c 0,-7.24078 5.82922,-13.07 13.07,-13.07 z"
           inkscape:connector-curvature="0"
           stroke-miterlimit="4"
           style="opacity:1;fill:#000000;fill-opacity:0.72699998;stroke:none;stroke-width:6.37799978;stroke-linecap:round;stroke-linejoin:round;stroke-miterlimit:4;stroke-dasharray:none;stroke-dashoffset:0;stroke-opacity:0.28999999;paint-order:fill markers stroke" />
        <path
           d="m 56.13445,-168.16333 h 141.16 c 7.24078,0 12.41337,8.67967 12.43657,15.92041 l 0.63343,197.639597 c 0.0232,7.240743 -5.82922,13.069999 -13.07,13.069999 h -141.16 c -7.24078,0 -13.07,-5.829219 -13.07,-13.069999 V -155.09333 c 0,-7.24078 5.82922,-13.07 13.07,-13.07 z"
           id="rect1179"
           stroke-miterlimit="4"
           style="opacity:1;fill:url(#linearGradient894);fill-opacity:1;stroke:#865e32;stroke-width:2;stroke-linecap:round;stroke-linejoin:round;stroke-miterlimit:4;stroke-dasharray:none;stroke-dashoffset:0;stroke-opacity:1;paint-order:fill markers stroke"
           inkscape:connector-curvature="0"
           sodipodi:nodetypes="sssssssss" />
        <path
           id="path3574"
           inkscape:connector-curvature="0"
           d="m 125.97784,-66.763309 c 0,0 -15.31852,10.820346 -16.67936,11.795152 -1.11662,-1.072287 -11.16614,-10.625386 -11.16614,-10.625386 l 7.74651,28.984234 2.09363,-0.09747 c 2.61706,-15.466922 15.17894,-21.543213 18.59856,-22.907942 0.48852,0.64987 0.90726,1.364729 0.90726,2.339534 0,0.292442 -0.0351,0.584883 -0.0698,0.909819 -0.73276,5.426421 -8.33968,15.077 -23.30927,23.427838 l -1.08171,0.584882 2.82641,3.281849 0.6979,-0.194962 c 0.20937,-0.06498 22.99522,-6.693667 36.15031,-6.108783 l 3.97792,0.162464 -3.34983,-2.047092 c -0.27916,-0.162466 -6.80436,-4.06169 -13.7134,-3.346834 0.97703,-2.047092 7.88609,-8.318344 14.48106,-13.517309 l 1.08172,-0.844833 -18.56368,-12.250062 z"
           stroke-miterlimit="4"
           style="fill:#5b2b10;fill-opacity:1;stroke:#8f5915;stroke-width:1;stroke-miterlimit:4;stroke-dasharray:none;stroke-opacity:1" />
        <path
           id="path3576"
           inkscape:connector-curvature="0"
           d="m 185.05808,11.688075 c -0.5932,-0.55239 -14.69041,-13.9072335 -19.64538,-16.2792608 -1.84938,-0.8773253 -5.96688,-0.5848824 -20.06411,0.519896 0,0 -0.59321,0.032486 -1.50045,0.1299796 4.1524,-9.0656978 9.49119,-19.0412138 12.45718,-20.3084608 l 1.91918,-0.812337 -7.43244,-6.79115 -0.73276,0.09747 c -17.83091,2.826938 -45.64151,6.791149 -49.23559,6.173771 l -1.221322,-0.227454 -0.41872,1.072286 c -0.6979,1.819638 1.116612,16.0193146 3.000892,23.94773592 C 86.203055,0.51029212 67.185763,2.0049948 67.185763,2.0049948 l 1.046823,1.8196368 2.372799,4.1266798 1.116612,-0.292443 C 77.723775,6.0016993 80.515315,5.8067363 87.773285,5.9042183 88.43627,7.4964024 96.845778,27.902341 96.845778,27.902341 l 2.75661,-0.649872 c 0,0 -2.40768,-18.4888196 -2.791511,-21.1857827 2.721741,0.06499 27.880383,0.7148571 33.742593,0.8448311 -3.80345,2.9894048 -12.42231,9.8130476 -12.42231,9.8130476 l 1.39578,2.30704 c 0,0 17.97046,-5.718862 18.8777,-6.011303 0.87238,0.324935 15.00448,5.361433 15.00448,5.361433 0,0 -7.43244,-8.350838 -9.80523,-10.9828146 13.18996,0.649871 16.57469,1.364729 17.48194,2.4045218 1.1515,1.2672468 1.7447,3.1193788 1.7447,5.1989658 0,3.769249 -2.02385,8.350837 -6.28094,12.120087 -6.35073,-1.494703 -18.04025,-7.603487 -18.17982,-7.668473 l -1.81451,2.014599 17.7262,20.633393 0.83747,-0.162467 c 13.32956,-2.534488 29.45065,-27.554509 30.11363,-28.626796 l 0.59319,-0.877325 z M 140.53319,-14.27426 c -4.25708,0.519897 -9.66567,1.202262 -11.20099,1.397221 0,-1.072283 0,-3.801743 0,-6.498704 5.65284,-0.422417 10.85206,-0.81234 12.17804,-0.942314 -0.1744,0.877325 -0.52342,3.184368 -0.97705,6.043797 z m -17.20278,-4.646575 c 0.0698,2.729458 0.1396,5.686368 0.17439,6.693669 -4.92007,0.519897 -9.07245,0.84483 -12.38739,0.974805 0.34892,-2.014598 0.66297,-4.256653 1.04681,-6.823642 0.83746,-0.06498 5.65285,-0.422415 11.16614,-0.844832 z m -14.16702,17.6439894 c 0.27915,-1.1372727 0.5932,-2.4695087 0.90725,-4.0291989 4.53623,-0.779844 9.10736,-1.4947016 13.57381,-2.0470914 0.0347,1.5596903 0.10461,3.574289 0.13959,4.9390176 -0.87236,0.032486 -6.83923,0.5198954 -14.62064,1.1372727 z m 20.13391,-1.5596895 c 0,-1.5596891 0,-3.834237 0,-5.1989657 3.41962,-0.3249345 4.74559,-0.259948 6.83925,-0.064983 l 3.34983,0.1949604 c -0.24427,1.494705 -0.48851,2.9894066 -0.69789,4.3866291 -3.80345,0.259948 -8.13033,0.5848836 -9.49119,0.6823626 z"
           stroke-miterlimit="4"
           style="fill:#5b2b10;fill-opacity:1;stroke:#8f5915;stroke-width:1;stroke-miterlimit:4;stroke-dasharray:none;stroke-opacity:1" />
        <path
           id="path863"
           d="m 56.13445,-168.16333 h 141.16 c 7.24078,0 13.07,5.82922 13.07,13.07 v 26.24483 c -82.05817,41.51896 -139.711688,67.731373 -167.3,103.331443 V -155.09333 c 0,-7.24078 5.82922,-13.07 13.07,-13.07 z"
           inkscape:connector-curvature="0"
           sodipodi:nodetypes="sssccss"
           stroke-miterlimit="4"
           style="opacity:1;fill:url(#linearGradient865);fill-opacity:1;stroke:none;stroke-width:6.37799978;stroke-linecap:round;stroke-linejoin:round;stroke-miterlimit:4;stroke-dasharray:none;stroke-dashoffset:0;stroke-opacity:0.28999999;paint-order:fill markers stroke" />
        <path
           d="m 176.99489,-99.420439 c 0,0 -10.11929,10.397929 -10.81718,11.047799 -11.16611,2.274548 -29.31105,3.899225 -30.70682,-1.299742 -1.7447,-6.173768 11.86401,-33.793288 17.09812,-44.191208 l 0.69789,-0.9748 -19.54071,-9.09819 -0.34894,1.29975 c -0.34895,0.64985 -1.39577,4.22414 -3.14047,9.74806 -6.97883,0 -14.65551,0 -15.70235,0 0,-1.29975 -0.34893,-4.22417 -0.34893,-4.22417 v 0 c -4.8852,-7.47352 -25.821661,-2.27456 -28.264241,-1.94961 l -1.395767,0.32493 0.697884,1.29974 c 0.697883,1.29975 1.395743,2.92442 1.744702,4.54911 -2.791521,0 -13.259761,0 -13.259761,0 l 6.629882,11.69766 c 0,0 6.28092,-0.97482 8.374576,-1.29974 0,0.64987 0,1.62466 0,2.27453 0,20.14601 -9.4214,45.8159 -9.4214,46.140835 l 2.093649,0.974807 c 1.046819,-1.299742 27.566346,-30.868862 32.451536,-53.289392 0.69787,0 8.37458,-1.29975 15.3534,-2.27455 -4.18729,15.27194 -9.07248,39.317173 -1.04683,48.090427 11.86399,12.997414 57.92424,12.02261 59.66894,11.372737 l 1.04682,-0.324934 z"
           inkscape:connector-curvature="0"
           id="path4268"
           stroke-miterlimit="4"
           style="fill:#5b2b10;fill-opacity:1;stroke:#8f5915;stroke-width:1;stroke-miterlimit:4;stroke-dasharray:none;stroke-opacity:1" />
        <path
           style="opacity:1;fill:#613609;fill-opacity:1;stroke:none;stroke-width:6.37799978;stroke-linecap:round;stroke-linejoin:round;stroke-miterlimit:4;stroke-dasharray:none;stroke-dashoffset:0;stroke-opacity:0.28999999;paint-order:fill markers stroke"
           d="m 210.31239,-156.12521 c 0.0265,0.34129 0.0527,0.68293 0.0527,1.03125 V 45.396274 c 0,7.24078 -5.82953,13.07031 -13.07031,13.07031 H 66.58242 c -0.689038,0 -11.807626,-0.0682 -12.467292,-0.16992 0.525043,6.75253 6.125775,12.03711 13.017578,12.03711 H 208.29286 c 7.24078,0 13.07032,-5.82954 13.07032,-13.07032 V -143.22678 c 0,-6.55174 -4.77833,-11.93078 -11.05079,-12.89843 z"
           id="path882"
           inkscape:connector-curvature="0"
           sodipodi:nodetypes="csssscssssc" />
        <path
           sodipodi:nodetypes="ccccc"
           inkscape:connector-curvature="0"
           id="path895"
           d="m 67.218802,58.515534 c -8.37243,0.0578 -20.209032,0.479382 -25.077317,-12.222741 0.617362,9.401226 13.938458,24.040981 24.991221,24.040981 -0.0193,-3.17638 -0.634483,-7.58663 0.0861,-11.81824 z"
           style="opacity:1;fill:url(#linearGradient912);fill-opacity:1;stroke:none;stroke-width:6.37799978;stroke-linecap:round;stroke-linejoin:round;stroke-miterlimit:4;stroke-dasharray:none;stroke-dashoffset:0;stroke-opacity:0.28999999;paint-order:fill markers stroke" />
        <path
           style="fill:url(#linearGradient922);fill-opacity:1;stroke:none;stroke-width:1px;stroke-linecap:butt;stroke-linejoin:miter;stroke-opacity:1"
           d="m 205.64571,-165.1613 12.69084,13.34726 c 1.91013,2.25411 2.94503,4.87291 2.91744,8.09589 l -10.79451,-9.84635 c 0.0752,-4.21923 -1.78319,-8.51893 -4.81377,-11.5968 z"
           id="path914"
           inkscape:connector-curvature="0"
           sodipodi:nodetypes="ccccc" />
        <path
           style="fill:#653a0c;fill-opacity:1;stroke:none;stroke-width:1px;stroke-linecap:butt;stroke-linejoin:miter;stroke-opacity:1"
           d="m 210.38654,-153.63743 10.94039,9.84634 -0.0729,199.990244 -10.89045,-9.50467 z"
           id="path924"
           inkscape:connector-curvature="0"
           sodipodi:nodetypes="ccccc" />
        <path
           style="fill:url(#linearGradient934);fill-opacity:1;stroke:none;stroke-width:1px;stroke-linecap:butt;stroke-linejoin:miter;stroke-opacity:1"
           d="m 210.30079,46.678394 11.06326,9.59468 c 0.0728,11.397464 -8.23671,13.850889 -14.53888,14.098315 l -8.66459,-11.895455 c 6.81575,-0.555663 10.67524,-4.71653 12.14021,-11.79754 z"
           id="path926"
           inkscape:connector-curvature="0"
           sodipodi:nodetypes="ccccc" />
        <path
           inkscape:connector-curvature="0"
           style="opacity:1;fill:none;fill-opacity:1;stroke:url(#linearGradient958);stroke-width:1.60000002;stroke-linecap:round;stroke-linejoin:round;stroke-miterlimit:4;stroke-dasharray:none;stroke-dashoffset:0;stroke-opacity:1;paint-order:fill markers stroke"
           stroke-miterlimit="4"
           id="path950"
           d="M 43.06445,45.396677 V -155.09333 c 0,-7.24078 5.82922,-13.07 13.07,-13.07 h 141.16"
           sodipodi:nodetypes="cssc" />
      </g>
    </g>
    <g
       id="layer2-9"
       display="none">
      <rect
         id="rect3745-4"
         y="7"
         x="5"
         ry="6"
         rx="6"
         height="85"
         width="86"
         opacity="0.9"
         fill="url(#light)"
         filter="url(#filter3174)"
         fill-rule="nonzero"
         stroke="none"
         fill-opacity="1" />
    </g>
  </g>
</svg>
