<?xml version="1.0" encoding="UTF-8" standalone="no"?>
<!-- Created with Inkscape (http://www.inkscape.org/) -->

<svg
   xmlns:dc="http://purl.org/dc/elements/1.1/"
   xmlns:cc="http://creativecommons.org/ns#"
   xmlns:rdf="http://www.w3.org/1999/02/22-rdf-syntax-ns#"
   xmlns:svg="http://www.w3.org/2000/svg"
   xmlns="http://www.w3.org/2000/svg"
   xmlns:xlink="http://www.w3.org/1999/xlink"
   xmlns:sodipodi="http://sodipodi.sourceforge.net/DTD/sodipodi-0.dtd"
   xmlns:inkscape="http://www.inkscape.org/namespaces/inkscape"
   width="256"
   height="256"
   id="svg3897"
   sodipodi:version="0.32"
   inkscape:version="0.91 r13725"
   sodipodi:docname="korganizer.svg"
   inkscape:output_extension="org.inkscape.output.svg.inkscape"
   inkscape:export-filename="/media/disk/melo/map-blue.png"
   inkscape:export-xdpi="90"
   inkscape:export-ydpi="90"
   version="1.1">
  <sodipodi:namedview
     id="base"
     pagecolor="#ffffff"
     bordercolor="#666666"
     borderopacity="1.0"
     inkscape:pageopacity="0.0"
     inkscape:pageshadow="2"
     inkscape:zoom="3.2734375"
     inkscape:cx="128"
     inkscape:cy="135.987"
     inkscape:document-units="px"
     inkscape:current-layer="layer1"
     width="256"
     height="256"
     inkscape:window-width="1920"
     inkscape:window-height="1056"
     inkscape:window-x="0"
     inkscape:window-y="0"
     showgrid="false"
     showguides="true"
     inkscape:guide-bbox="true"
     inkscape:window-maximized="1" />
  <defs
     id="defs3899">
    <linearGradient
       id="linearGradient2706">
      <stop
         id="stop2708"
         stop-color="#000448"
         stop-opacity="1" />
      <stop
         offset="0.235"
         id="stop2710"
         stop-color="#818cef"
         stop-opacity="1" />
      <stop
         id="stop2712"
         offset="1"
         stop-color="#020a57"
         stop-opacity="1" />
    </linearGradient>
    <linearGradient
       id="linearGradient3474">
      <stop
         id="stop3476"
         stop-color="#000000"
         stop-opacity="1" />
      <stop
         id="stop3478"
         offset="1"
         stop-color="#b2b2b2"
         stop-opacity="1" />
    </linearGradient>
    <linearGradient
       id="linearGradient3566">
      <stop
         id="stop3568"
         stop-color="#d4d4d4"
         stop-opacity="0" />
      <stop
         offset="1"
         id="stop3570"
         stop-color="#ffffff"
         stop-opacity="1" />
    </linearGradient>
    <linearGradient
       id="linearGradient3558">
      <stop
         id="stop3560"
         stop-color="#6474d6"
         stop-opacity="1" />
      <stop
         id="stop3564"
         offset="0.167"
         stop-color="#949cd9"
         stop-opacity="1" />
      <stop
         offset="1"
         id="stop3562"
         stop-color="#20267b"
         stop-opacity="1" />
    </linearGradient>
    <linearGradient
       id="linearGradient3896">
      <stop
         id="stop3898"
         stop-color="#cdcdcd"
         stop-opacity="1" />
      <stop
         id="stop3900"
         offset="1"
         stop-color="#000000"
         stop-opacity="1" />
    </linearGradient>
    <linearGradient
       id="linearGradient2785">
      <stop
         id="stop2787"
         stop-color="#9c9c9c"
         stop-opacity="1" />
      <stop
         id="stop2789"
         offset="1"
         stop-color="#eeeeee"
         stop-opacity="1" />
    </linearGradient>
    <linearGradient
       id="linearGradient2811">
      <stop
         id="stop2813"
         stop-color="#2e46c9"
         stop-opacity="1" />
      <stop
         id="stop4535"
         offset="1"
         stop-color="#202a7b"
         stop-opacity="1" />
    </linearGradient>
    <linearGradient
       id="linearGradient2841">
      <stop
         id="stop2843"
         stop-color="#000000"
         stop-opacity="1" />
      <stop
         id="stop2845"
         offset="1"
         stop-color="#aaacf1"
         stop-opacity="1" />
    </linearGradient>
    <linearGradient
       id="linearGradient3578">
      <stop
         id="stop3580"
         stop-color="#000000"
         stop-opacity="1" />
      <stop
         offset="1"
         id="stop3582"
         stop-color="#d2cfcf"
         stop-opacity="1" />
    </linearGradient>
    <radialGradient
       inkscape:collect="always"
       xlink:href="#linearGradient3896"
       id="radialGradient3510"
       gradientUnits="userSpaceOnUse"
       gradientTransform="matrix(-0.01613731,1.1157058,-1.2501317,-0.01808161,83.297428,5.1736852)"
       spreadMethod="reflect"
       cx="32.25"
       cy="40.42"
       fx="32.25"
       fy="40.42"
       r="14.268" />
    <linearGradient
       inkscape:collect="always"
       xlink:href="#linearGradient3578"
       id="linearGradient3496"
       x1="28.914"
       y1="30.14"
       x2="46.563"
       y2="58.674"
       gradientUnits="userSpaceOnUse" />
    <linearGradient
       inkscape:collect="always"
       xlink:href="#linearGradient3474"
       id="linearGradient3329"
       gradientUnits="userSpaceOnUse"
       gradientTransform="matrix(1.1357171,0,0,0.2918574,-13.280408,7.5831029)"
       x1="126.95"
       y1="211.31"
       x2="126.95"
       y2="50.614" />
    <linearGradient
       inkscape:collect="always"
       xlink:href="#linearGradient3566"
       id="linearGradient3332"
       gradientUnits="userSpaceOnUse"
       gradientTransform="matrix(2.7796118,0,0,0.79463523,-175.3302,6.7145631)"
       x1="114.88"
       y1="49.611"
       x2="102.29"
       y2="13.375" />
    <linearGradient
       inkscape:collect="always"
       xlink:href="#linearGradient2706"
       id="linearGradient3335"
       gradientUnits="userSpaceOnUse"
       gradientTransform="matrix(2.7796118,0,0,0.79463523,-175.3302,6.7145631)"
       spreadMethod="reflect"
       x1="106.11"
       y1="75.53"
       x2="105.36"
       y2="15.222" />
    <linearGradient
       inkscape:collect="always"
       xlink:href="#linearGradient2785"
       id="linearGradient3338"
       gradientUnits="userSpaceOnUse"
       gradientTransform="matrix(1.1173197,0,0,1.3511232,-7.9433112,-7.5615507)"
       spreadMethod="reflect"
       x1="117.33"
       y1="155.81"
       x2="117.19"
       y2="53.701" />
    <linearGradient
       inkscape:collect="always"
       xlink:href="#linearGradient3474"
       id="linearGradient3340"
       gradientUnits="userSpaceOnUse"
       gradientTransform="matrix(1.1173197,0,0,1.3511232,-7.9433112,-7.5615507)"
       x1="121.97"
       y1="184.06"
       x2="126.31"
       y2="21.922" />
  </defs>
  <metadata
     id="metadata3902">
    <rdf:RDF>
      <cc:Work>
        <dc:format>image/svg+xml</dc:format>
        <dc:type
           rdf:resource="http://purl.org/dc/dcmitype/StillImage" />
        <dc:creator>
          <cc:Agent>
            <dc:title>Albert Pal</dc:title>
          </cc:Agent>
        </dc:creator>
        <dc:rights>
          <cc:Agent>
            <dc:title>Albert Pal</dc:title>
          </cc:Agent>
        </dc:rights>
        <dc:publisher>
          <cc:Agent>
            <dc:title>Albert Pal</dc:title>
          </cc:Agent>
        </dc:publisher>
        <cc:license
           rdf:resource="http://artlibre.org/licence.php/lalgb.html" />
      </cc:Work>
      <cc:License
         rdf:about="http://artlibre.org/licence.php/lalgb.html">
        <cc:permits
           rdf:resource="http://web.resource.org/cc/Reproduction" />
        <cc:permits
           rdf:resource="http://web.resource.org/cc/Distribution" />
        <cc:permits
           rdf:resource="http://web.resource.org/cc/DerivativeWorks" />
        <cc:requires
           rdf:resource="http://web.resource.org/cc/ShareAlike" />
        <cc:requires
           rdf:resource="http://web.resource.org/cc/Notice" />
        <cc:requires
           rdf:resource="http://web.resource.org/cc/Attribution" />
      </cc:License>
    </rdf:RDF>
  </metadata>
  <g
     id="layer1"
     inkscape:groupmode="layer"
     inkscape:label="1. réteg">
    <g
       id="g4122">
      <rect
         y="26.63"
         x="11.454"
         height="209.52"
         width="233.76"
         id="rect3491"
         stroke-opacity="1"
         stroke-dasharray="none"
         fill="url(#linearGradient3338)"
         stroke="url(#linearGradient3340)"
         stroke-linejoin="round"
         fill-opacity="1"
         stroke-linecap="round"
         stroke-width="3.072"
         stroke-miterlimit="4" />
      <rect
         id="rect2772"
         width="237.02"
         height="40.882"
         x="10.05"
         y="25.14"
         rx="2.01"
         ry="4.666"
         stroke-opacity="0.98"
         stroke-dasharray="none"
         fill="url(#linearGradient3335)"
         stroke="#1f2095"
         stroke-linejoin="round"
         fill-opacity="1"
         stroke-linecap="round"
         stroke-width="0"
         stroke-miterlimit="4" />
      <path
         inkscape:connector-curvature="0"
         d="m 11.78578,25.136887 232.05576,-0.184355 c 1.23223,-0.09218 3.22429,2.265252 3.22429,4.850033 l -0.44138,11.740769 C 174.04084,23.932511 102.49628,60.376673 9.843333,48.183294 l 0.204022,-18.380741 c 0,-2.584781 0.747505,-4.665666 1.738425,-4.665666 z"
         id="rect2782"
         nodetypes="ccccccc"
         stroke-opacity="0.98"
         fill="url(#linearGradient3332)"
         stroke="#95301f"
         stroke-linejoin="round"
         fill-opacity="1"
         stroke-linecap="round"
         stroke-width="0"
         stroke-miterlimit="4" />
      <rect
         ry="4.666"
         rx="1.98"
         y="25.14"
         x="10.05"
         height="40.882"
         width="237.02"
         id="rect3792"
         stroke-opacity="0.98"
         stroke-dasharray="none"
         fill="none"
         stroke="url(#linearGradient3329)"
         stroke-linejoin="round"
         stroke-linecap="round"
         stroke-width="1.151"
         stroke-miterlimit="4" />
      <path
         sodipodi:type="arc"
         id="path3508"
         sodipodi:cx="38.768116"
         sodipodi:cy="44.405796"
         sodipodi:rx="13.768116"
         sodipodi:ry="13.768116"
         d="m 52.536232,44.405796 a 13.768116,13.768116 0 1 1 -27.536232,0 13.768116,13.768116 0 1 1 27.536232,0 z"
         transform="translate(177.69231,0.7692308)"
         stroke-opacity="1"
         stroke-dasharray="none"
         fill="url(#radialGradient3510)"
         stroke="url(#linearGradient3496)"
         stroke-linejoin="round"
         fill-opacity="1"
         stroke-linecap="round"
         stroke-width="2"
         stroke-dashoffset="0"
         stroke-miterlimit="4" />
      <path
         id="text2720"
         d="m 49.414168,71.914222 19.91797,0 0,7.205142 -12.537394,0 0,6.883261 11.789751,0 0,7.205141 -11.789751,0 0,15.673044 -7.380576,0 0,-36.966588 m 46.353851,23.02674 0,2.525513 -16.045563,0 c 0.166134,2.079844 0.747633,3.639715 1.7445,4.679625 0.996846,1.03993 2.389888,1.55988 4.179132,1.55988 1.444148,0 2.92026,-0.27235 4.428344,-0.81708 1.520825,-0.56122 3.080015,-1.40305 4.677559,-2.52551 l 0,6.83374 c -1.623106,0.79232 -3.246194,1.38656 -4.869266,1.78272 -1.623097,0.41266 -3.246186,0.61899 -4.869258,0.61899 -3.885197,0 -6.907715,-1.27101 -9.067565,-3.81303 -2.147079,-2.55852 -3.220617,-6.140451 -3.220615,-10.745808 -2e-6,-4.522797 1.054365,-8.07997 3.163103,-10.671533 2.12151,-2.591512 5.035397,-3.887281 8.74167,-3.887309 3.373962,2.8e-5 6.07058,1.312304 8.089876,3.93683 2.032029,2.624575 3.048056,6.132229 3.048083,10.522972 M 88.713338,91.99453 c -1.8e-5,-1.683658 -0.383422,-3.037199 -1.150218,-4.06063 -0.754049,-1.039895 -1.744515,-1.559853 -2.9714,-1.559876 -1.329156,2.3e-5 -2.409083,0.486967 -3.239786,1.460837 -0.830724,0.957404 -1.348322,2.343959 -1.552797,4.159669 l 8.914201,0 m 23.656182,11.16673 c 1.46972,1e-5 2.58798,-0.69327 3.35481,-2.07983 0.77957,-1.386552 1.16937,-3.400357 1.16939,-6.041428 -2e-5,-2.641044 -0.38982,-4.65485 -1.16939,-6.041425 -0.76683,-1.386535 -1.88509,-2.079812 -3.35481,-2.079835 -1.46973,2.3e-5 -2.60078,0.701553 -3.39314,2.104596 -0.77961,1.386575 -1.1694,3.392127 -1.16939,6.016664 -1e-5,2.624564 0.38978,4.63837 1.16939,6.041428 0.79236,1.38656 1.92341,2.07984 3.39314,2.07983 m -4.56253,-17.950952 c 0.94572,-1.617624 1.9937,-2.8061 3.14393,-3.565431 1.1502,-0.775784 2.47295,-1.163689 3.96826,-1.163717 2.64549,2.8e-5 4.81812,1.361823 6.51791,4.085389 1.69974,2.707108 2.54963,6.198255 2.54965,10.473453 -2e-5,4.275224 -0.84991,7.774628 -2.54965,10.498208 -1.69979,2.70709 -3.87242,4.06063 -6.51791,4.06063 -1.49531,0 -2.81806,-0.37965 -3.96826,-1.13895 -1.15023,-0.77581 -2.19821,-1.97254 -3.14393,-3.59019 l 0,4.01111 -6.86299,0 0,-38.526463 6.86299,0 0,14.855961 m 37.22877,3.49115 c -0.60069,-0.363125 -1.20135,-0.62723 -1.80201,-0.792317 -0.5879,-0.181552 -1.18218,-0.272338 -1.78283,-0.27236 -1.76369,2.2e-5 -3.12478,0.734566 -4.08329,2.203634 -0.94575,1.4526 -1.41861,3.540686 -1.4186,6.264264 l 0,12.776131 -6.86298,0 0,-27.731132 6.86298,0 0,4.555828 c 0.88182,-1.815703 1.89146,-3.136232 3.02891,-3.961589 1.15021,-0.84181 2.52408,-1.262729 4.12162,-1.262757 0.23002,2.8e-5 0.47924,0.01653 0.74764,0.04952 0.26837,0.01653 0.65817,0.06605 1.16939,0.14856 l 0.0192,8.022218 m 3.22062,9.384016 0,-16.935796 6.90132,0 0,2.773113 c -10e-6,1.502126 -0.006,3.392132 -0.0192,5.670024 -0.0128,2.261425 -0.0192,3.77178 -0.0192,4.531069 -2e-5,2.228407 0.0447,3.837801 0.13419,4.828187 0.0894,0.973901 0.24281,1.683679 0.46009,2.129359 0.28115,0.57773 0.64539,1.02341 1.09271,1.33703 0.46007,0.31363 0.98406,0.47045 1.57197,0.47044 1.43136,10e-6 2.55602,-0.70978 3.37397,-2.12935 0.81792,-1.419563 1.22688,-3.392103 1.2269,-5.917628 l 0,-13.692244 6.86298,0 0,27.731132 -6.86298,0 0,-4.01111 c -1.03521,1.61765 -2.13431,2.81438 -3.29729,3.59019 -1.15023,0.7593 -2.42187,1.13895 -3.8149,1.13895 -2.47937,0 -4.37084,-0.98214 -5.67442,-2.94643 -1.2908,-1.96428 -1.9362,-4.81993 -1.9362,-8.566936 m 37.84222,-1.683676 c -1.4314,1.3e-5 -2.51132,0.313638 -3.23979,0.940878 -0.71569,0.627262 -1.07354,1.551632 -1.07353,2.773114 -1e-5,1.12246 0.28754,2.00556 0.86266,2.64931 0.58788,0.62726 1.39943,0.94088 2.43464,0.94088 1.29078,0 2.3771,-0.59423 3.25895,-1.78272 0.88182,-1.20497 1.32274,-2.707073 1.32276,-4.506304 l 0,-1.015158 -3.56569,0 m 10.48617,-3.342591 0,15.821603 -6.92048,0 0,-4.11015 c -0.9202,1.68367 -1.95539,2.91342 -3.1056,3.68923 -1.15023,0.7593 -2.54966,1.13895 -4.1983,1.13895 -2.22377,0 -4.03216,-0.83358 -5.42521,-2.50075 -1.38027,-1.68367 -2.07039,-3.86254 -2.07039,-6.53662 0,-3.251796 0.86266,-5.637001 2.58799,-7.155624 1.7381,-1.518593 4.46029,-2.277897 8.16656,-2.277914 l 4.04495,0 0,-0.693278 c -2e-5,-1.403044 -0.42816,-2.426453 -1.28442,-3.070233 -0.85629,-0.660242 -2.19182,-0.990374 -4.0066,-0.990397 -1.46973,2.3e-5 -2.83721,0.189848 -4.10245,0.569479 -1.26524,0.379673 -2.44102,0.949152 -3.52734,1.708436 l 0,-6.759463 c 1.46972,-0.462158 2.94583,-0.808797 4.42835,-1.039917 1.48249,-0.247571 2.965,-0.371371 4.44751,-0.371399 3.87239,2.8e-5 6.66487,0.990424 8.37744,2.971192 1.72531,1.964312 2.58796,5.166594 2.58799,9.606855 m 22.37178,-4.357749 c -0.60069,-0.363125 -1.20136,-0.62723 -1.80201,-0.792317 -0.58791,-0.181552 -1.18218,-0.272338 -1.78284,-0.27236 -1.76369,2.2e-5 -3.12478,0.734566 -4.08328,2.203634 -0.94575,1.4526 -1.41862,3.540686 -1.41861,6.264264 l 0,12.776131 -6.86297,0 0,-27.731132 6.86297,0 0,4.555828 c 0.88182,-1.815703 1.89146,-3.136232 3.02892,-3.961589 1.15021,-0.84181 2.52408,-1.262729 4.12161,-1.262757 0.23003,2.8e-5 0.47925,0.01653 0.74765,0.04952 0.26836,0.01653 0.65816,0.06605 1.16938,0.14856 l 0.0192,8.022218"
         inkscape:connector-curvature="0"
         stroke-opacity="1"
         fill="#871616"
         font-family="Bitstream Vera Sans"
         stroke="#000000"
         font-style="normal"
         stroke-linejoin="miter"
         fill-opacity="1"
         font-weight="bold"
         stroke-linecap="butt"
         stroke-width="1"
         font-size="44.619" />
      <path
         id="text2721"
         d="m 52.981892,121.67906 c 6.187481,-1.64052 12.187475,-2.85927 18,-3.65625 5.812463,-0.84364 11.484333,-1.26552 17.015625,-1.26562 12.656193,1e-4 22.359303,2.27354 29.109373,6.82031 6.79679,4.50009 10.19523,10.96884 10.19531,19.40625 -8e-5,6.3282 -1.94539,11.46101 -5.83593,15.39844 -3.89071,3.93756 -9.58601,6.58599 -17.08594,7.94531 9.14055,1.45318 15.96086,4.57036 20.46094,9.35156 4.49991,4.7813 6.74991,11.32035 6.75,19.61719 -9e-5,9.79689 -3.89072,17.32032 -11.67188,22.57031 -7.73444,5.20313 -18.961,7.80469 -33.679686,7.80469 -5.53129,0 -11.250034,-0.46875 -17.15625,-1.40625 -5.859397,-0.9375 -12.000016,-2.34375 -18.421875,-4.21875 l 0,-23.0625 8.507813,0 c 0.515606,6.65627 2.601541,11.7422 6.257812,15.25781 3.656222,3.46876 8.718717,5.20313 15.1875,5.20313 7.124953,0 12.63276,-1.96874 16.523438,-5.90625 3.890568,-3.98436 5.835878,-9.60936 5.835938,-16.875 -6e-5,-7.59372 -2.03912,-13.45309 -6.117188,-17.57813 -4.031303,-4.12495 -9.773484,-6.18745 -17.226563,-6.1875 l -4.640625,0 0,-8.4375 3.65625,0 c 6.89058,6e-5 12.070263,-1.59369 15.539063,-4.78125 3.468693,-3.18743 5.203066,-7.94524 5.203125,-14.27344 -5.9e-5,-5.95303 -1.640683,-10.4999 -4.921875,-13.64062 -3.234426,-3.1874 -7.898484,-4.78115 -13.992188,-4.78125 -5.531284,1e-4 -9.914092,1.52353 -13.148437,4.57031 -3.234399,3.00009 -5.179709,7.3829 -5.835938,13.14844 l -8.507812,0 0,-21.02344 m 107.507808,101.95313 0,-8.50782 19.6875,0 0,-84.9375 -21.86718,12.9375 0,-10.47656 26.36718,-15.89062 22.14844,0 0,98.36718 19.75781,0 0,8.50782 -66.09375,0"
         inkscape:connector-curvature="0"
         stroke-opacity="1"
         fill="#c80000"
         font-family="Bitstream Vera Serif"
         stroke="#000000"
         font-style="normal"
         stroke-linejoin="miter"
         fill-opacity="1"
         font-weight="bold"
         stroke-linecap="butt"
         stroke-width="1"
         font-stretch="normal"
         font-size="144"
         font-variant="normal" />
      <path
         transform="translate(3.200356,-0.1135278)"
         d="m 52.536232,44.405796 a 13.768116,13.768116 0 1 1 -27.536232,0 13.768116,13.768116 0 1 1 27.536232,0 z"
         sodipodi:ry="13.768116"
         sodipodi:rx="13.768116"
         sodipodi:cy="44.405796"
         sodipodi:cx="38.768116"
         id="path3512"
         sodipodi:type="arc"
         stroke-opacity="1"
         stroke-dasharray="none"
         fill="url(#radialGradient3510)"
         stroke="url(#linearGradient3496)"
         stroke-linejoin="round"
         fill-opacity="1"
         stroke-linecap="round"
         stroke-width="2"
         stroke-dashoffset="0"
         stroke-miterlimit="4" />
    </g>
    <g
       font-size="7.5"
       font-variant="normal"
       letter-spacing="0"
       font-stretch="normal"
       font-weight="bold"
       line-height="125%"
       word-spacing="0"
       font-style="normal"
       transform="translate(66.999181,-41.767943)"
       id="text4330"
       style="font-style:normal;font-variant:normal;font-weight:bold;font-stretch:normal;font-size:7.5px;line-height:125%;font-family:STIX;letter-spacing:0;word-spacing:0;fill:#000000;fill-opacity:1;stroke:none;stroke-width:1;stroke-linecap:butt;stroke-linejoin:miter;stroke-opacity:1">
      <path
         inkscape:connector-curvature="0"
         id="path4335"
         d="m -56.13327,39.467617 0,-0.1875 c -0.3075,0 -0.4425,-0.165 -0.825,-1.0725 l -1.665,-3.915 -0.21,0 -1.6575,4.0875 c -0.285,0.705 -0.3975,0.84 -0.7425,0.9 l 0,0.1875 1.515,0 0,-0.1875 c -0.4425,-0.03 -0.6075,-0.1125 -0.6075,-0.3075 0,-0.18 0.1425,-0.495 0.2325,-0.7275 l 0.0975,-0.255 1.6875,0 c 0.255,0.5925 0.345,0.855 0.345,1.02 0,0.165 -0.0975,0.225 -0.345,0.2475 l -0.24,0.0225 0,0.1875 2.415,0 z m -2.2875,-1.77 -1.4625,0 0.705,-1.8225 0.7575,1.8225 z" />
      <path
         inkscape:connector-curvature="0"
         id="path4337"
         d="m -55.760848,34.397617 0,0.1875 c 0.525,0.045 0.63,0.15 0.63,0.735 l 0,3.2025 c 0,0.3825 -0.045,0.5925 -0.2925,0.69 -0.0825,0.0375 -0.195,0.0525 -0.3375,0.0675 l 0,0.1875 2.4975,0 0,-0.1875 c -0.5925,-0.075 -0.6525,-0.1425 -0.6525,-0.645 l 0,-1.44 c 0.99,-0.0075 1.245,-0.03 1.5675,-0.15 0.6225,-0.2325 0.9675,-0.69 0.9675,-1.29 0,-0.915 -0.765,-1.3575 -2.0175,-1.3575 l -2.3625,0 z m 1.845,0.525 c 0,-0.1725 0.1275,-0.2625 0.375,-0.2625 0.6225,0 0.87,0.345 0.87,1.1775 0,0.8325 -0.3075,1.0875 -1.245,1.095 l 0,-2.01 z" />
    </g>
  </g>
</svg>
