<?xml version="1.0" encoding="UTF-8" standalone="no"?>
<!-- Created with Inkscape (http://www.inkscape.org/) -->
<svg xmlns:dc="http://purl.org/dc/elements/1.1/" xmlns:cc="http://creativecommons.org/ns#" xmlns:rdf="http://www.w3.org/1999/02/22-rdf-syntax-ns#" xmlns:svg="http://www.w3.org/2000/svg" xmlns="http://www.w3.org/2000/svg" xmlns:xlink="http://www.w3.org/1999/xlink" xmlns:sodipodi="http://sodipodi.sourceforge.net/DTD/sodipodi-0.dtd" xmlns:inkscape="http://www.inkscape.org/namespaces/inkscape" id="svg2440" sodipodi:version="0.32" inkscape:version="0.92.5 (2060ec1f9f, 2020-04-08)" width="390" height="390" version="1.0" sodipodi:docname="kradio2.svg" inkscape:output_extension="org.inkscape.output.svg.inkscape">
 <sodipodi:namedview inkscape:window-height="1056" inkscape:window-width="1920" inkscape:pageshadow="2" inkscape:pageopacity="0" guidetolerance="10.0" gridtolerance="10.0" objecttolerance="10.0" borderopacity="1.0" bordercolor="#666666" pagecolor="#0300ff" id="base" showgrid="false" inkscape:zoom="2.3051282" inkscape:cx="195" inkscape:cy="195" inkscape:window-x="0" inkscape:window-y="0" inkscape:current-layer="svg2440" inkscape:window-maximized="1" inkscape:snap-to-guides="false" inkscape:snap-grids="false" inkscape:snap-others="false" inkscape:object-nodes="false" inkscape:snap-nodes="false" inkscape:snap-global="false"/>
 <metadata id="metadata2445">
  <rdf:RDF>
   <cc:Work>
    <dc:format>image/svg+xml</dc:format>
    <dc:type rdf:resource="http://purl.org/dc/dcmitype/StillImage"/>
    <dc:title/>
   </cc:Work>
  </rdf:RDF>
 </metadata>
 <defs id="defs2443">
  <linearGradient id="linearGradient1034" inkscape:collect="always">
   <stop stop-opacity="1" stop-color="#000000" id="stop1030"/>
   <stop stop-opacity="1" stop-color="#ff4444" id="stop1032" offset="1"/>
  </linearGradient>
  <linearGradient inkscape:collect="always" id="linearGradient1022">
   <stop id="stop1018" stop-color="#a90b00" stop-opacity="1"/>
   <stop id="stop1026" offset="0.151" stop-color="#bb0c00" stop-opacity="1"/>
   <stop offset="0.19" id="stop1028" stop-color="#630802" stop-opacity="1"/>
   <stop offset="1" id="stop1020" stop-color="#940a00" stop-opacity="1"/>
  </linearGradient>
  <linearGradient inkscape:collect="always" id="linearGradient982">
   <stop id="stop978" stop-color="#c10000" stop-opacity="1"/>
   <stop offset="1" id="stop980" stop-color="#ff3e3e" stop-opacity="1"/>
  </linearGradient>
  <linearGradient id="linearGradient976" inkscape:collect="always">
   <stop stop-opacity="1" stop-color="#4b0005" id="stop972"/>
   <stop stop-opacity="1" stop-color="#c1000c" id="stop974" offset="1"/>
  </linearGradient>
  <linearGradient inkscape:collect="always" id="linearGradient4403">
   <stop id="stop4405" stop-color="#ffffff" stop-opacity="0.175"/>
   <stop offset="1" id="stop4407" stop-color="#323232" stop-opacity="0"/>
  </linearGradient>
  <linearGradient inkscape:collect="always" id="linearGradient5367">
   <stop id="stop5369" stop-color="#a37f2f" stop-opacity="1"/>
   <stop offset="1" id="stop5371" stop-color="#48350d" stop-opacity="1"/>
  </linearGradient>
  <linearGradient id="linearGradient3399" inkscape:collect="always">
   <stop id="stop3401" stop-color="#382804" stop-opacity="1"/>
   <stop id="stop3403" offset="1" stop-color="#6a4b07" stop-opacity="1"/>
  </linearGradient>
  <linearGradient inkscape:collect="always" id="linearGradient3386">
   <stop id="stop3388" stop-color="#000000" stop-opacity="1"/>
   <stop offset="1" id="stop3390" stop-color="#876009" stop-opacity="1"/>
  </linearGradient>
  <linearGradient inkscape:collect="always" id="linearGradient4139">
   <stop id="stop4141" stop-color="#ffffff" stop-opacity="1"/>
   <stop offset="1" id="stop4143" stop-color="#ffffff" stop-opacity="0"/>
  </linearGradient>
  <linearGradient inkscape:collect="always" id="linearGradient3944">
   <stop id="stop3946" stop-color="#49380c" stop-opacity="1"/>
   <stop offset="1" id="stop3948" stop-color="#896919" stop-opacity="1"/>
  </linearGradient>
  <linearGradient inkscape:collect="always" id="linearGradient3460">
   <stop id="stop3462" stop-color="#abd5da" stop-opacity="1"/>
   <stop offset="1" id="stop3464" stop-color="#986b12" stop-opacity="1"/>
  </linearGradient>
  <linearGradient id="linearGradient3412" inkscape:collect="always">
   <stop id="stop3414" stop-color="#b50008" stop-opacity="1"/>
   <stop id="stop3416" offset="1" stop-color="#560004" stop-opacity="1"/>
  </linearGradient>
  <linearGradient id="linearGradient3404">
   <stop id="stop3406" stop-color="#960100" stop-opacity="1"/>
   <stop offset="0.5" id="stop3192" stop-color="#e30012" stop-opacity="1"/>
   <stop id="stop3408" offset="1" stop-color="#bf000a" stop-opacity="1"/>
  </linearGradient>
  <linearGradient inkscape:collect="always" id="linearGradient3392">
   <stop id="stop3394" stop-color="#5d4000" stop-opacity="1"/>
   <stop offset="1" id="stop3396" stop-color="#a27d19" stop-opacity="1"/>
  </linearGradient>
  <linearGradient inkscape:collect="always" xlink:href="#linearGradient3404" id="linearGradient3400" gradientUnits="userSpaceOnUse" spreadMethod="reflect" x1="100.27" y1="247.29" x2="126.73" y2="220.91" gradientTransform="matrix(0.9871137,-0.1600204,0,1,-47.670098,-78.616352)"/>
  <linearGradient inkscape:collect="always" xlink:href="#linearGradient976" id="linearGradient3402" gradientUnits="userSpaceOnUse" spreadMethod="reflect" x1="362.69" y1="176.11" x2="348.72" y2="189.17" gradientTransform="matrix(0.9871137,-0.1600204,0,1,-47.670098,-78.616352)"/>
  <linearGradient inkscape:collect="always" xlink:href="#linearGradient3412" id="linearGradient3410" gradientUnits="userSpaceOnUse" spreadMethod="reflect" x1="96.95" y1="389.71" x2="84.29" y2="401.74" gradientTransform="matrix(0.9871137,-0.1600204,0,1,-47.670098,-78.616352)"/>
  <filter inkscape:collect="always" id="filter3454">
   <feGaussianBlur inkscape:collect="always" id="feGaussianBlur3456"/>
  </filter>
  <radialGradient inkscape:collect="always" xlink:href="#linearGradient3460" id="radialGradient3466" cx="302.85" cy="240.73" fx="302.85" fy="240.73" r="52.877" gradientTransform="matrix(1,0,0,1.2801705,-4.8834498,-100.39516)" gradientUnits="userSpaceOnUse" spreadMethod="reflect"/>
  <linearGradient inkscape:collect="always" xlink:href="#linearGradient3944" id="linearGradient3950" x1="241.08" y1="214.32" x2="254.05" y2="214.32" gradientUnits="userSpaceOnUse" spreadMethod="reflect" gradientTransform="matrix(0.79444959,0,0,1.0198464,51.475803,27.161243)"/>
  <linearGradient inkscape:collect="always" xlink:href="#linearGradient982" id="linearGradient3960" x1="240.23" y1="140.94" x2="237.98" y2="126.31" gradientUnits="userSpaceOnUse" spreadMethod="reflect"/>
  <radialGradient inkscape:collect="always" xlink:href="#linearGradient4139" id="radialGradient4145" cx="306.25" cy="203.49" fx="306.25" fy="203.49" r="7.113" gradientTransform="matrix(1.0146915,0,0,1.6597903,-1.0101067,-81.174106)" gradientUnits="userSpaceOnUse"/>
  <linearGradient inkscape:collect="always" xlink:href="#linearGradient3386" id="linearGradient3419" gradientUnits="userSpaceOnUse" spreadMethod="reflect" x1="-131.12" y1="334.87" x2="-114.17" y2="332.48" gradientTransform="translate(209.03524,178.83036)"/>
  <linearGradient inkscape:collect="always" xlink:href="#linearGradient3399" id="linearGradient3421" gradientUnits="userSpaceOnUse" gradientTransform="translate(210.3226,178.23688)" spreadMethod="reflect" x1="-125.96" y1="369.99" x2="-131.3" y2="324.71"/>
  <linearGradient inkscape:collect="always" xlink:href="#linearGradient5367" id="linearGradient5359" gradientUnits="userSpaceOnUse" gradientTransform="matrix(0.72904563,0,0,0.72904563,176.45979,271.98742)" spreadMethod="reflect" x1="-125.96" y1="369.99" x2="-115.85" y2="331.29"/>
  <linearGradient inkscape:collect="always" xlink:href="#linearGradient4403" id="linearGradient4409" x1="175.24" y1="216.75" x2="111.69" y2="359.74" gradientUnits="userSpaceOnUse" gradientTransform="translate(1.9521684,-1.7352635)"/>
  <linearGradient inkscape:collect="always" xlink:href="#linearGradient3392" id="linearGradient952" gradientUnits="userSpaceOnUse" x1="177.76" y1="239.91" x2="247.52" y2="221.79" spreadMethod="reflect" gradientTransform="matrix(0.9871137,-0.1600204,0,1,-47.670098,-78.616352)"/>
  <linearGradient inkscape:collect="always" xlink:href="#linearGradient1034" id="linearGradient1060" gradientUnits="userSpaceOnUse" x1="374.6" y1="169.64" x2="373.94" y2="159.51" gradientTransform="matrix(0.73718283,0,0,1.0140597,94.306258,62.440661)"/>
  <filter inkscape:collect="always" id="filter1176" x="-0.008" width="1.015" y="-0.029" height="1.058" color-interpolation-filters="sRGB">
   <feGaussianBlur inkscape:collect="always" id="feGaussianBlur1178" stdDeviation="0.07065"/>
  </filter>
  <linearGradient inkscape:collect="always" xlink:href="#linearGradient1022" id="linearGradient1024" x1="48.2" y1="299.77" x2="131.89" y2="211.27" gradientUnits="userSpaceOnUse"/>
  <linearGradient inkscape:collect="always" xlink:href="#linearGradient1034" id="linearGradient1048" gradientUnits="userSpaceOnUse" gradientTransform="matrix(0.73718283,0,0,1.0140597,94.306258,62.440661)" x1="374.6" y1="169.64" x2="373.94" y2="159.51"/>
  <linearGradient inkscape:collect="always" xlink:href="#linearGradient1034" id="linearGradient1056" gradientUnits="userSpaceOnUse" gradientTransform="matrix(0.73718283,0,0,1.0140597,94.306258,62.440661)" x1="374.6" y1="169.64" x2="373.94" y2="159.51"/>
  <linearGradient inkscape:collect="always" xlink:href="#linearGradient1034" id="linearGradient1064" gradientUnits="userSpaceOnUse" gradientTransform="matrix(0.73718283,0,0,1.0140597,94.306258,62.440661)" x1="374.6" y1="169.64" x2="373.94" y2="159.51"/>
  <linearGradient inkscape:collect="always" xlink:href="#linearGradient1034" id="linearGradient1072" gradientUnits="userSpaceOnUse" gradientTransform="matrix(0.73718283,0,0,1.0140597,94.306258,62.440661)" x1="374.6" y1="169.64" x2="373.94" y2="159.51"/>
 </defs>
 <path inkscape:connector-curvature="0" id="path3346" d="m 303.22616,52.23192 c 5.24375,3.870008 8.53771,10.225856 8.53771,17.923746 l 69.79948,59.395524 c 0,-7.69789 -3.29397,-14.05374 -8.53771,-17.92374 z" stroke-opacity="1" fill="url(#linearGradient952)" fill-rule="nonzero" stroke="none" stroke-linejoin="round" fill-opacity="1" stroke-linecap="round" stroke-width="0" stroke-miterlimit="4"/>
 <path inkscape:connector-curvature="0" id="path3350" d="m 311.76387,220.01656 c 0,14.29608 -11.36081,27.64689 -25.47266,29.93455 l 69.79948,59.39553 c 14.11185,-2.28766 25.47266,-15.63848 25.47266,-29.93456 z" stroke-opacity="1" fill="url(#linearGradient952)" fill-rule="nonzero" stroke="none" stroke-linejoin="round" fill-opacity="1" stroke-linecap="round" stroke-width="0" stroke-miterlimit="4"/>
 <path inkscape:connector-curvature="0" id="path3352" d="M 286.29121,249.95111 37.236522,290.32522 107.036,349.72075 356.09069,309.34664 Z" stroke-opacity="1" fill="url(#linearGradient952)" fill-rule="nonzero" stroke="none" stroke-linejoin="round" fill-opacity="1" stroke-linecap="round" stroke-width="0" stroke-miterlimit="4"/>
 <path inkscape:connector-curvature="0" id="path3354" d="m 37.236522,290.32522 c -7.055931,1.14383 -13.424099,-0.70111 -18.028284,-4.61902 l 69.79948,59.39553 c 4.604185,3.91791 10.972351,5.76285 18.028282,4.61902 z" stroke-opacity="1" fill="url(#linearGradient952)" fill-rule="nonzero" stroke="none" stroke-linejoin="round" fill-opacity="1" stroke-linecap="round" stroke-width="0" stroke-miterlimit="4"/>
 <path inkscape:connector-curvature="0" id="path3358" d="m 11.763851,268.64938 0.80225,-19.40741 5.672998,-3.96675 -1.095938,-106.75798 -5.37931,-5.82759 v -13.90116 l 69.79948,59.39553 v 149.86089 z" stroke-miterlimit="4" sodipodi:nodetypes="ccccccccc" stroke-opacity="1" fill="url(#linearGradient1024)" fill-rule="nonzero" stroke="none" stroke-linejoin="round" fill-opacity="1" stroke-linecap="round" stroke-width="0"/>
 <path inkscape:connector-curvature="0" id="path3360" d="m 11.763851,118.78849 c 0,-14.29608 11.360811,-27.646897 25.472671,-29.934562 L 107.036,148.24946 c -14.111859,2.28766 -25.472669,15.63848 -25.472669,29.93456 z" stroke-opacity="1" fill="url(#linearGradient3400)" fill-rule="nonzero" stroke="none" stroke-linejoin="round" fill-opacity="1" stroke-linecap="round" stroke-width="0" stroke-miterlimit="4"/>
 <path inkscape:connector-curvature="0" id="path3342" d="M 37.236522,88.853928 286.29121,48.479825 356.09069,107.87535 107.036,148.24946 Z" stroke-miterlimit="4" stroke-opacity="1" stroke-linejoin="round" stroke-linecap="round" stroke-width="0" stroke="none" fill-rule="nonzero" fill-opacity="1" fill="#c50406"/>
 <path inkscape:connector-curvature="0" id="path3344" d="m 286.29121,48.479825 c 6.51316,-1.055845 12.4403,0.434959 16.93495,3.752095 l 69.79948,59.39553 c -4.49465,-3.31715 -10.42179,-4.80794 -16.93495,-3.7521 z" stroke-opacity="1" fill="url(#linearGradient3402)" fill-rule="nonzero" stroke="none" stroke-linejoin="round" fill-opacity="1" stroke-linecap="round" stroke-width="0" stroke-miterlimit="4"/>
 <path inkscape:connector-curvature="0" id="path3356" d="m 19.208238,285.7062 c -4.604184,-3.91791 -7.444387,-9.90878 -7.444387,-17.05682 l 69.79948,59.39553 c 0,7.14804 2.840203,13.13891 7.444387,17.05682 z" stroke-opacity="1" fill="url(#linearGradient3410)" fill-rule="nonzero" stroke="none" stroke-linejoin="round" fill-opacity="1" stroke-linecap="round" stroke-width="0" stroke-miterlimit="4"/>
 <path id="rect2451" d="m 105.67959,148.26448 249.05468,-40.37411 c 14.11186,-2.28766 25.47267,7.37977 25.47267,21.67585 l -5.6396,7.08562 -0.43645,130.58712 6.07605,12.18815 c -0.12897,13.66199 -11.36081,27.64689 -25.47267,29.93456 l -249.05468,40.3741 C 91.56773,352.02344 80.206922,342.35601 80.206922,328.05993 V 178.19904 c 0,-14.29608 11.360808,-27.64689 25.472668,-29.93456 z" inkscape:connector-curvature="0" stroke-miterlimit="4" sodipodi:nodetypes="ssscccsssss" stroke-opacity="1" fill="#b8000c" fill-rule="nonzero" stroke="none" stroke-linejoin="round" fill-opacity="1" stroke-linecap="round" stroke-width="0"/>
 <path inkscape:connector-curvature="0" d="m 382.15911,277.69185 c -0.0486,14.296 -11.36081,27.64689 -25.47267,29.93456 l -249.05468,40.3741 C 93.519898,350.28818 82.159088,340.62075 82.159088,326.32467 V 189.01551 c 86.257252,69.70462 166.587622,113.2183 300.000022,88.67634 z" id="path4401" sodipodi:nodetypes="cssscc" stroke-miterlimit="4" stroke-opacity="1" fill="url(#linearGradient4409)" fill-rule="nonzero" stroke="none" stroke-linejoin="round" fill-opacity="1" stroke-linecap="round" stroke-width="0"/>
 <path id="path3436" d="m 140.16038,162.05794 194.5163,-30.18059 c 11.02162,-1.71007 20.03821,4.45874 20.21655,13.83143 l 1.8695,98.25064 c 0.17835,9.37269 -8.55109,18.29492 -19.57271,20.005 L 142.67372,294.145 c -11.02163,1.71008 -20.0382,-4.45873 -20.21654,-13.83142 l -1.8695,-98.25064 c -0.17835,-9.37268 8.55107,-18.29491 19.5727,-20.005 z" inkscape:connector-curvature="0" stroke-miterlimit="4" stroke-dasharray="none" stroke-opacity="1" fill="none" filter="url(#filter3454)" fill-rule="nonzero" stroke="#d3c768" stroke-linejoin="round" fill-opacity="1" stroke-linecap="round" stroke-width="1.8"/>
 <path id="path3940" d="m 142.28464,167.6012 190.48182,-29.73231 c 11.02162,-1.71007 16.28738,1.77366 16.63034,11.14177 l 3.66261,100.04375 c 0.34296,9.36811 -6.75654,10.2353 -17.77961,11.93603 l -186.89561,28.83575 c -11.02308,1.70073 -19.7542,0.4929 -20.21654,-13.83142 l -2.76605,-85.69891 c -0.30242,-9.3695 5.86297,-20.97453 16.88304,-22.69466 z" inkscape:connector-curvature="0" stroke-miterlimit="4" sodipodi:nodetypes="scsssssss" stroke-dasharray="none" stroke-opacity="1" fill="#7c7c7c" fill-rule="nonzero" stroke="none" stroke-linejoin="round" fill-opacity="0.585" stroke-linecap="round" stroke-width="0"/>
 <path d="m 245.58825,155.1645 88.67924,-14.15095 c 7.76145,-0.99513 15.09955,-1.18203 16.03774,10.84906 l 0,92.92453 c 0.41625,9.62357 -2.75598,13.17158 -10.37513,16.27917 l -93.39846,13.90951 -0.94339,-119.81132 z" id="path3458" sodipodi:nodetypes="ccccccc" inkscape:connector-curvature="0" stroke-opacity="1" fill="url(#radialGradient3466)" fill-rule="evenodd" stroke="#836d12" stroke-linejoin="miter" fill-opacity="1" stroke-linecap="butt" stroke-width="1"/>
 <rect id="rect3942" width="14.601" height="121.28" x="243" y="185.1" transform="matrix(0.99209271,-0.1255072,0,1,0,0)" opacity="1" stroke-dasharray="none" stroke-opacity="1" fill="url(#linearGradient3950)" fill-rule="nonzero" stroke="none" stroke-linejoin="round" fill-opacity="1" stroke-linecap="round" stroke-width="0" stroke-miterlimit="4"/>
 <path d="m 82.447124,170.57108 c -0.377868,-10.02147 8.717989,-22.56843 26.261166,-23.44278 l 251.25692,-40.4287 c 11.19921,-0.18055 14.84373,6.50679 19.1662,12.57782 z" id="path3952" sodipodi:nodetypes="ccccc" inkscape:connector-curvature="0" stroke-miterlimit="4" stroke-dasharray="none" stroke-opacity="1" fill="url(#linearGradient3960)" fill-rule="evenodd" stroke="none" stroke-linejoin="miter" fill-opacity="1" stroke-linecap="butt" stroke-width="0"/>
 <g id="g1040">
  <path sodipodi:nodetypes="ccccc" id="path4066" d="m 359.3362,226.99806 v 9.09158 l 15.53168,-3.63663 c 4.64567,-1.19206 4.38324,-11.69405 0.33046,-10.4553 z" inkscape:connector-curvature="0" stroke-dasharray="none" stroke-opacity="1" fill="#990f00" fill-rule="evenodd" stroke="url(#linearGradient1060)" stroke-linejoin="miter" fill-opacity="1" stroke-linecap="butt" stroke-width="1.21" stroke-miterlimit="4"/>
  <path transform="matrix(0.69230891,0,0,1.0094582,111.15211,-2.1485828)" sodipodi:nodetypes="ccc" id="path4068" d="m 361.33619,230.10636 19.09913,-4.05922 c 1.26825,-0.43176 2.90949,-0.49053 3.27859,-1.82144" inkscape:connector-curvature="0" stroke-miterlimit="4" stroke-dasharray="none" stroke-opacity="1" fill="none" filter="url(#filter1176)" fill-rule="evenodd" stroke="#ff314b" stroke-linejoin="miter" stroke-linecap="round" stroke-width="2.8"/>
 </g>
 <rect id="rect4074" width="40.786" height="66.34" x="287.76" y="217.76" ry="12.552" transform="matrix(0.9891948,-0.1466071,0,1,0,0)" opacity="1" stroke-dasharray="none" stroke-opacity="1" fill="none" fill-rule="nonzero" stroke="#fde0a5" stroke-linejoin="round" fill-opacity="1" stroke-linecap="round" stroke-width="1.01" stroke-miterlimit="4" rx="12.552"/>
 <g id="g5333" transform="translate(386.4138,-33.62069)">
  <path id="path4076" d="m -63.45114,236.99572 25.88252,-4.26635" inkscape:connector-curvature="0" stroke-dasharray="none" stroke-opacity="1" fill="none" fill-rule="evenodd" stroke="#d4e482" stroke-linejoin="round" stroke-linecap="round" stroke-width="2" stroke-miterlimit="4"/>
  <path id="path4078" d="m -63.16671,230.5962 15.9277,-2.70202 10.09703,-9.10155" inkscape:connector-curvature="0" stroke-dasharray="none" stroke-opacity="1" fill="none" fill-rule="evenodd" stroke="#d4e482" stroke-linejoin="round" stroke-linecap="round" stroke-width="2" stroke-miterlimit="4"/>
  <path id="path4080" d="m -63.16671,223.3434 12.51462,-2.13317 12.94126,-17.49204" inkscape:connector-curvature="0" stroke-dasharray="none" stroke-opacity="1" fill="none" fill-rule="evenodd" stroke="#d4e482" stroke-linejoin="round" stroke-linecap="round" stroke-width="2" stroke-miterlimit="4"/>
  <path sodipodi:nodetypes="ccc" id="path4082" d="m -62.88229,216.23282 7.395,-1.13769 14.79002,-30.00666" inkscape:connector-curvature="0" stroke-dasharray="none" stroke-opacity="1" fill="none" fill-rule="evenodd" stroke="#d4e482" stroke-linejoin="round" stroke-linecap="round" stroke-width="2" stroke-miterlimit="4"/>
  <path id="path4084" d="m -66.29537,209.54887 12.51463,-30.00666" inkscape:connector-curvature="0" stroke-dasharray="none" stroke-opacity="1" fill="none" fill-rule="evenodd" stroke="#d4e482" stroke-linejoin="round" stroke-linecap="round" stroke-width="2" stroke-miterlimit="4"/>
  <path d="m -98.86183,241.81278 -25.88252,5.49918" id="path4095" inkscape:connector-curvature="0" stroke-dasharray="none" stroke-opacity="1" fill="none" fill-rule="evenodd" stroke="#d4e482" stroke-linejoin="round" stroke-linecap="round" stroke-width="2" stroke-miterlimit="4"/>
  <path d="m -99.14626,235.52058 -15.9277,3.30753 -10.09703,-5.29192" id="path4097" inkscape:connector-curvature="0" stroke-dasharray="none" stroke-opacity="1" fill="none" fill-rule="evenodd" stroke="#d4e482" stroke-linejoin="round" stroke-linecap="round" stroke-width="2" stroke-miterlimit="4"/>
  <path d="m -99.14626,228.26778 -12.51462,2.58862 -12.94126,-12.60928" id="path4099" inkscape:connector-curvature="0" stroke-dasharray="none" stroke-opacity="1" fill="none" fill-rule="evenodd" stroke="#d4e482" stroke-linejoin="round" stroke-linecap="round" stroke-width="2" stroke-miterlimit="4"/>
  <path d="m -99.43068,221.26451 -7.395,1.65246 -14.79002,-24.42636" id="path4101" sodipodi:nodetypes="ccc" inkscape:connector-curvature="0" stroke-dasharray="none" stroke-opacity="1" fill="none" fill-rule="evenodd" stroke="#d4e482" stroke-linejoin="round" stroke-linecap="round" stroke-width="2" stroke-miterlimit="4"/>
  <path d="m -96.0176,213.2928 -12.51463,-25.28487" id="path4103" inkscape:connector-curvature="0" stroke-dasharray="none" stroke-opacity="1" fill="none" fill-rule="evenodd" stroke="#d4e482" stroke-linejoin="round" stroke-linecap="round" stroke-width="2" stroke-miterlimit="4"/>
  <path id="path4107" d="m -100.14173,244.84289 -25.88252,5.48704" inkscape:connector-curvature="0" stroke-dasharray="none" stroke-opacity="1" fill="none" fill-rule="evenodd" stroke="#d4e482" stroke-linejoin="round" stroke-linecap="round" stroke-width="2" stroke-miterlimit="4"/>
  <path id="path4109" d="m -100.42616,251.25583 -15.9277,3.45321 -10.09703,9.57776" inkscape:connector-curvature="0" stroke-dasharray="none" stroke-opacity="1" fill="none" fill-rule="evenodd" stroke="#d4e482" stroke-linejoin="round" stroke-linecap="round" stroke-width="2" stroke-miterlimit="4"/>
  <path id="path4111" d="m -100.42616,258.50863 -12.51462,2.72339 -12.94126,18.10239" inkscape:connector-curvature="0" stroke-dasharray="none" stroke-opacity="1" fill="none" fill-rule="evenodd" stroke="#d4e482" stroke-linejoin="round" stroke-linecap="round" stroke-width="2" stroke-miterlimit="4"/>
  <path sodipodi:nodetypes="ccc" id="path4113" d="m -98.43519,265.20599 -9.67039,1.91309 -14.07896,28.2866" inkscape:connector-curvature="0" stroke-dasharray="none" stroke-opacity="1" fill="none" fill-rule="evenodd" stroke="#d4e482" stroke-linejoin="round" stroke-linecap="round" stroke-width="2" stroke-miterlimit="4"/>
  <path id="path4115" d="m -96.30202,269.59579 -12.94126,30.59689" sodipodi:nodetypes="cc" inkscape:connector-curvature="0" stroke-dasharray="none" stroke-opacity="1" fill="none" fill-rule="evenodd" stroke="#d4e482" stroke-linejoin="round" stroke-linecap="round" stroke-width="2" stroke-miterlimit="4"/>
  <path d="m -63.59334,239.48852 25.88252,-4.03434" id="path4119" inkscape:connector-curvature="0" stroke-dasharray="none" stroke-opacity="1" fill="none" fill-rule="evenodd" stroke="#d4e482" stroke-linejoin="round" stroke-linecap="round" stroke-width="2" stroke-miterlimit="4"/>
  <path d="m -63.30891,245.79682 15.9277,-2.40609 10.09703,5.86336" id="path4121" inkscape:connector-curvature="0" stroke-dasharray="none" stroke-opacity="1" fill="none" fill-rule="evenodd" stroke="#d4e482" stroke-linejoin="round" stroke-linecap="round" stroke-width="2" stroke-miterlimit="4"/>
  <path d="m -63.30891,253.04962 12.51462,-1.88035 12.94126,13.3417" id="path4123" inkscape:connector-curvature="0" stroke-dasharray="none" stroke-opacity="1" fill="none" fill-rule="evenodd" stroke="#d4e482" stroke-linejoin="round" stroke-linecap="round" stroke-width="2" stroke-miterlimit="4"/>
  <path d="m -65.29988,260.63784 9.67039,-1.80279 14.79002,25.26341" id="path4125" sodipodi:nodetypes="ccc" inkscape:connector-curvature="0" stroke-dasharray="none" stroke-opacity="1" fill="none" fill-rule="evenodd" stroke="#d4e482" stroke-linejoin="round" stroke-linecap="round" stroke-width="2" stroke-miterlimit="4"/>
  <path d="m -67.43305,265.71436 12.65684,25.28208" id="path4127" sodipodi:nodetypes="cc" inkscape:connector-curvature="0" stroke-dasharray="none" stroke-opacity="1" fill="none" fill-rule="evenodd" stroke="#d4e482" stroke-linejoin="round" stroke-linecap="round" stroke-width="2" stroke-miterlimit="4"/>
 </g>
 <ellipse id="path4129" transform="matrix(0.98552124,-0.16955203,0,1,0,0)" cx="309.74" cy="256.58" rx="6.71" ry="11.306" opacity="1" stroke-dasharray="none" stroke-opacity="1" fill="url(#radialGradient4145)" fill-rule="nonzero" stroke="none" stroke-linejoin="round" fill-opacity="1" stroke-linecap="round" stroke-width="0" stroke-miterlimit="4"/>
 <g id="g5373" transform="translate(-283.31035,27.793103)">
  <rect id="rect3415" width="43.531" height="39.38" x="62.894" y="501.2" ry="16.408" rx="20.948" transform="matrix(0.68435473,-0.72914923,0.72914923,0.68435473,0,0)" opacity="1" stroke-dasharray="none" stroke-opacity="1" fill="url(#linearGradient3419)" stroke="#84611b" fill-opacity="1" stroke-width="1" stroke-miterlimit="4"/>
  <rect transform="matrix(0.68435473,-0.72914923,0.72914923,0.68435473,0,0)" rx="20.948" ry="15.746" y="508.49" x="62.98" height="31.492" width="44.732" id="rect3417" opacity="1" stroke-dasharray="none" stroke-opacity="1" fill="url(#linearGradient3421)" stroke="#b2a98e" fill-opacity="1" stroke-width="1.6" stroke-miterlimit="4"/>
  <rect id="rect5357" width="32.612" height="22.959" x="69.04" y="512.76" ry="11.479" rx="15.272" transform="matrix(0.68435473,-0.72914923,0.72914923,0.68435473,0,0)" opacity="1" stroke-dasharray="none" stroke-opacity="1" fill="url(#linearGradient5359)" stroke="#ada896" fill-opacity="1" stroke-width="1" stroke-miterlimit="4"/>
 </g>
 <g transform="translate(-112.96552,-4.3638528e-7)" id="g5378">
  <rect transform="matrix(0.68435473,-0.72914923,0.72914923,0.68435473,0,0)" rx="20.948" ry="16.408" y="501.2" x="62.894" height="39.38" width="43.531" id="rect5380" opacity="1" stroke-dasharray="none" stroke-opacity="1" fill="url(#linearGradient3419)" stroke="#84611b" fill-opacity="1" stroke-width="1" stroke-miterlimit="4"/>
  <rect id="rect5382" width="44.732" height="31.492" x="62.98" y="508.49" ry="15.746" rx="20.948" transform="matrix(0.68435473,-0.72914923,0.72914923,0.68435473,0,0)" opacity="1" stroke-dasharray="none" stroke-opacity="1" fill="url(#linearGradient3421)" stroke="#b2a98e" fill-opacity="1" stroke-width="1.6" stroke-miterlimit="4"/>
  <rect transform="matrix(0.68435473,-0.72914923,0.72914923,0.68435473,0,0)" rx="15.272" ry="11.479" y="512.76" x="69.04" height="22.959" width="32.612" id="rect5384" opacity="1" stroke-dasharray="none" stroke-opacity="1" fill="url(#linearGradient5359)" stroke="#ada896" fill-opacity="1" stroke-width="1" stroke-miterlimit="4"/>
 </g>
 <path inkscape:connector-curvature="0" d="m 381.10349,129.11794 0,149.86089 c 0,14.29608 -11.36081,27.64689 -25.47267,29.93456 l -249.05468,40.3741 c -14.111858,2.28767 -25.472666,-7.37976 -25.472666,-21.67584 l 0,-149.86089 C 237.78623,226.97098 289.39444,196.99985 381.10349,129.11794 Z" id="path4391" sodipodi:nodetypes="csssscc" stroke-opacity="1" fill="#513e15" fill-rule="nonzero" stroke="none" stroke-linejoin="round" fill-opacity="0" stroke-linecap="round" stroke-width="0" stroke-miterlimit="4"/>
 <g transform="translate(0,-86.329255)" id="g1055">
  <path sodipodi:nodetypes="ccccccccc" id="path1045" d="m 17.497557,231.52487 63.192099,55.81996 c 3.460842,3.16622 6.235588,4.0041 11.206895,3.13793 l 26.000009,-5.37931 v 12.55172 l -24.655181,4.03449 c -8.063782,1.3531 -10.303015,0.11509 -13,-2.24138 L 16.137931,243.86207 c -7.8115641,-6.4527 -4.529251,-15.91683 1.359626,-12.3372 z" inkscape:connector-curvature="0" stroke-opacity="1" fill="#7e0300" fill-rule="evenodd" stroke="none" stroke-linejoin="miter" fill-opacity="1" stroke-linecap="butt" stroke-width="1"/>
  <path inkscape:connector-curvature="0" d="m 19.256636,234.74565 61.01877,53.59338 c 3.460842,3.16622 6.566988,3.92125 11.538295,3.05508 l 25.834309,-4.46796 0.1657,8.82347 -24.738031,4.53159 c -8.063782,1.3531 -9.971615,0.28079 -12.6686,-2.07568 L 16.493487,242.31626 c -7.8115644,-6.4527 -3.125728,-11.15024 2.763149,-7.57061 z" id="path1047" sodipodi:nodetypes="ccccccccc" stroke-opacity="1" fill="#bf0800" fill-rule="evenodd" stroke="none" stroke-linejoin="miter" fill-opacity="1" stroke-linecap="butt" stroke-width="1"/>
  <path sodipodi:nodetypes="ccccccccc" id="path1049" d="m 19.256636,236.56835 60.60452,53.01343 c 3.460842,3.16622 7.064088,4.08695 12.035395,3.22078 l 25.502909,-3.97086 0.3314,5.59232 -24.489481,4.36589 c -8.063782,1.3531 -9.805915,0.19794 -12.5029,-2.15853 L 18.399038,242.23341 c -7.811564,-6.4527 -5.031279,-9.24469 0.857598,-5.66506 z" inkscape:connector-curvature="0" stroke-opacity="1" fill="#ff1700" fill-rule="evenodd" stroke="none" stroke-linejoin="miter" fill-opacity="1" stroke-linecap="butt" stroke-width="1"/>
  <path inkscape:connector-curvature="0" d="m 19.753736,238.3082 60.02457,53.01343 c 3.460842,3.16622 7.146938,3.42415 12.118245,2.55798 l 25.337209,-3.80516 0.1657,2.94112 -24.158081,4.61444 c -8.063782,1.3531 -9.723065,-0.38201 -12.42005,-2.73848 L 18.813288,241.32206 c -5.574613,-4.4643 -1.717277,-5.76499 0.940448,-3.01386 z" id="path1051" sodipodi:nodetypes="ccccccccc" stroke-opacity="1" fill="#ff8f8a" fill-rule="evenodd" stroke="none" stroke-linejoin="miter" fill-opacity="1" stroke-linecap="butt" stroke-width="1"/>
  <path sodipodi:nodetypes="cccc" id="path1053" d="m 18.201056,238.84208 60.899138,52.99508 c 3.904659,3.42962 7.968406,5.28223 16.572964,3.63882 l 20.452362,-3.69955" inkscape:connector-curvature="0" stroke-miterlimit="4" stroke-dasharray="none" stroke-opacity="1" fill="none" fill-rule="evenodd" stroke="#ffc6c7" stroke-linejoin="miter" stroke-linecap="round" stroke-width="1"/>
 </g>
 <g id="g979" transform="translate(0,-66.807564)">
  <path inkscape:connector-curvature="0" d="m 17.497557,231.52487 63.192099,55.81996 c 3.460842,3.16622 6.235588,4.0041 11.206895,3.13793 l 26.000009,-5.37931 v 12.55172 l -24.655181,4.03449 c -8.063782,1.3531 -10.303015,0.11509 -13,-2.24138 L 16.137931,243.86207 c -7.8115641,-6.4527 -4.529251,-15.91683 1.359626,-12.3372 z" id="path969" sodipodi:nodetypes="ccccccccc" stroke-opacity="1" fill="#7e0300" fill-rule="evenodd" stroke="none" stroke-linejoin="miter" fill-opacity="1" stroke-linecap="butt" stroke-width="1"/>
  <path sodipodi:nodetypes="ccccccccc" id="path971" d="m 19.256636,234.74565 61.01877,53.59338 c 3.460842,3.16622 6.566988,3.92125 11.538295,3.05508 l 25.834309,-4.46796 0.1657,8.82347 -24.738031,4.53159 c -8.063782,1.3531 -9.971615,0.28079 -12.6686,-2.07568 L 16.493487,242.31626 c -7.8115644,-6.4527 -3.125728,-11.15024 2.763149,-7.57061 z" inkscape:connector-curvature="0" stroke-opacity="1" fill="#bf0800" fill-rule="evenodd" stroke="none" stroke-linejoin="miter" fill-opacity="1" stroke-linecap="butt" stroke-width="1"/>
  <path inkscape:connector-curvature="0" d="m 19.256636,236.56835 60.60452,53.01343 c 3.460842,3.16622 7.064088,4.08695 12.035395,3.22078 l 25.502909,-3.97086 0.3314,5.59232 -24.489481,4.36589 c -8.063782,1.3531 -9.805915,0.19794 -12.5029,-2.15853 L 18.399038,242.23341 c -7.811564,-6.4527 -5.031279,-9.24469 0.857598,-5.66506 z" id="path973" sodipodi:nodetypes="ccccccccc" stroke-opacity="1" fill="#ff1700" fill-rule="evenodd" stroke="none" stroke-linejoin="miter" fill-opacity="1" stroke-linecap="butt" stroke-width="1"/>
  <path sodipodi:nodetypes="ccccccccc" id="path975" d="m 19.753736,238.3082 60.02457,53.01343 c 3.460842,3.16622 7.146938,3.42415 12.118245,2.55798 l 25.337209,-3.80516 0.1657,2.94112 -24.158081,4.61444 c -8.063782,1.3531 -9.723065,-0.38201 -12.42005,-2.73848 L 18.813288,241.32206 c -5.574613,-4.4643 -1.717277,-5.76499 0.940448,-3.01386 z" inkscape:connector-curvature="0" stroke-opacity="1" fill="#ff8f8a" fill-rule="evenodd" stroke="none" stroke-linejoin="miter" fill-opacity="1" stroke-linecap="butt" stroke-width="1"/>
  <path stroke-miterlimit="4" inkscape:connector-curvature="0" d="m 18.201056,238.84208 60.899138,52.99508 c 3.904659,3.42962 7.968406,5.28223 16.572964,3.63882 l 20.452362,-3.69955" id="path977" sodipodi:nodetypes="cccc" stroke-dasharray="none" stroke-opacity="1" fill="none" fill-rule="evenodd" stroke="#ffc6c7" stroke-linejoin="miter" stroke-linecap="round" stroke-width="1"/>
 </g>
 <g transform="translate(0,-47.285873)" id="g991">
  <path sodipodi:nodetypes="ccccccccc" id="path981" d="m 17.497557,231.52487 63.192099,55.81996 c 3.460842,3.16622 6.235588,4.0041 11.206895,3.13793 l 26.000009,-5.37931 v 12.55172 l -24.655181,4.03449 c -8.063782,1.3531 -10.303015,0.11509 -13,-2.24138 L 16.137931,243.86207 c -7.8115641,-6.4527 -4.529251,-15.91683 1.359626,-12.3372 z" inkscape:connector-curvature="0" stroke-opacity="1" fill="#7e0300" fill-rule="evenodd" stroke="none" stroke-linejoin="miter" fill-opacity="1" stroke-linecap="butt" stroke-width="1"/>
  <path inkscape:connector-curvature="0" d="m 19.256636,234.74565 61.01877,53.59338 c 3.460842,3.16622 6.566988,3.92125 11.538295,3.05508 l 25.834309,-4.46796 0.1657,8.82347 -24.738031,4.53159 c -8.063782,1.3531 -9.971615,0.28079 -12.6686,-2.07568 L 16.493487,242.31626 c -7.8115644,-6.4527 -3.125728,-11.15024 2.763149,-7.57061 z" id="path983" sodipodi:nodetypes="ccccccccc" stroke-opacity="1" fill="#bf0800" fill-rule="evenodd" stroke="none" stroke-linejoin="miter" fill-opacity="1" stroke-linecap="butt" stroke-width="1"/>
  <path sodipodi:nodetypes="ccccccccc" id="path985" d="m 19.256636,236.56835 60.60452,53.01343 c 3.460842,3.16622 7.064088,4.08695 12.035395,3.22078 l 25.502909,-3.97086 0.3314,5.59232 -24.489481,4.36589 c -8.063782,1.3531 -9.805915,0.19794 -12.5029,-2.15853 L 18.399038,242.23341 c -7.811564,-6.4527 -5.031279,-9.24469 0.857598,-5.66506 z" inkscape:connector-curvature="0" stroke-opacity="1" fill="#ff1700" fill-rule="evenodd" stroke="none" stroke-linejoin="miter" fill-opacity="1" stroke-linecap="butt" stroke-width="1"/>
  <path inkscape:connector-curvature="0" d="m 19.753736,238.3082 60.02457,53.01343 c 3.460842,3.16622 7.146938,3.42415 12.118245,2.55798 l 25.337209,-3.80516 0.1657,2.94112 -24.158081,4.61444 c -8.063782,1.3531 -9.723065,-0.38201 -12.42005,-2.73848 L 18.813288,241.32206 c -5.574613,-4.4643 -1.717277,-5.76499 0.940448,-3.01386 z" id="path987" sodipodi:nodetypes="ccccccccc" stroke-opacity="1" fill="#ff8f8a" fill-rule="evenodd" stroke="none" stroke-linejoin="miter" fill-opacity="1" stroke-linecap="butt" stroke-width="1"/>
  <path sodipodi:nodetypes="cccc" id="path989" d="m 18.201056,238.84208 60.899138,52.99508 c 3.904659,3.42962 7.968406,5.28223 16.572964,3.63882 l 20.452362,-3.69955" inkscape:connector-curvature="0" stroke-miterlimit="4" stroke-dasharray="none" stroke-opacity="1" fill="none" fill-rule="evenodd" stroke="#ffc6c7" stroke-linejoin="miter" stroke-linecap="round" stroke-width="1"/>
 </g>
 <g id="g1003" transform="translate(0,-26.028921)">
  <path inkscape:connector-curvature="0" d="m 17.497557,231.52487 63.192099,55.81996 c 3.460842,3.16622 6.235588,4.0041 11.206895,3.13793 l 26.000009,-5.37931 v 12.55172 l -24.655181,4.03449 c -8.063782,1.3531 -10.303015,0.11509 -13,-2.24138 L 16.137931,243.86207 c -7.8115641,-6.4527 -4.529251,-15.91683 1.359626,-12.3372 z" id="path993" sodipodi:nodetypes="ccccccccc" stroke-opacity="1" fill="#7e0300" fill-rule="evenodd" stroke="none" stroke-linejoin="miter" fill-opacity="1" stroke-linecap="butt" stroke-width="1"/>
  <path sodipodi:nodetypes="ccccccccc" id="path995" d="m 19.256636,234.74565 61.01877,53.59338 c 3.460842,3.16622 6.566988,3.92125 11.538295,3.05508 l 25.834309,-4.46796 0.1657,8.82347 -24.738031,4.53159 c -8.063782,1.3531 -9.971615,0.28079 -12.6686,-2.07568 L 16.493487,242.31626 c -7.8115644,-6.4527 -3.125728,-11.15024 2.763149,-7.57061 z" inkscape:connector-curvature="0" stroke-opacity="1" fill="#bf0800" fill-rule="evenodd" stroke="none" stroke-linejoin="miter" fill-opacity="1" stroke-linecap="butt" stroke-width="1"/>
  <path inkscape:connector-curvature="0" d="m 19.256636,236.56835 60.60452,53.01343 c 3.460842,3.16622 7.064088,4.08695 12.035395,3.22078 l 25.502909,-3.97086 0.3314,5.59232 -24.489481,4.36589 c -8.063782,1.3531 -9.805915,0.19794 -12.5029,-2.15853 L 18.399038,242.23341 c -7.811564,-6.4527 -5.031279,-9.24469 0.857598,-5.66506 z" id="path997" sodipodi:nodetypes="ccccccccc" stroke-opacity="1" fill="#ff1700" fill-rule="evenodd" stroke="none" stroke-linejoin="miter" fill-opacity="1" stroke-linecap="butt" stroke-width="1"/>
  <path sodipodi:nodetypes="ccccccccc" id="path999" d="m 19.753736,238.3082 60.02457,53.01343 c 3.460842,3.16622 7.146938,3.42415 12.118245,2.55798 l 25.337209,-3.80516 0.1657,2.94112 -24.158081,4.61444 c -8.063782,1.3531 -9.723065,-0.38201 -12.42005,-2.73848 L 18.813288,241.32206 c -5.574613,-4.4643 -1.717277,-5.76499 0.940448,-3.01386 z" inkscape:connector-curvature="0" stroke-opacity="1" fill="#ff8f8a" fill-rule="evenodd" stroke="none" stroke-linejoin="miter" fill-opacity="1" stroke-linecap="butt" stroke-width="1"/>
  <path stroke-miterlimit="4" inkscape:connector-curvature="0" d="m 18.201056,238.84208 60.899138,52.99508 c 3.904659,3.42962 7.968406,5.28223 16.572964,3.63882 l 20.452362,-3.69955" id="path1001" sodipodi:nodetypes="cccc" stroke-dasharray="none" stroke-opacity="1" fill="none" fill-rule="evenodd" stroke="#ffc6c7" stroke-linejoin="miter" stroke-linecap="round" stroke-width="1"/>
 </g>
 <g transform="translate(0,-5.6395995)" id="g1016">
  <path sodipodi:nodetypes="ccccccccc" id="path1005" d="m 17.497557,231.52487 63.192099,55.81996 c 3.460842,3.16622 6.235588,4.0041 11.206895,3.13793 l 26.000009,-5.37931 v 12.55172 l -24.655181,4.03449 c -8.063782,1.3531 -10.303015,0.11509 -13,-2.24138 L 16.137931,243.86207 c -7.8115641,-6.4527 -4.529251,-15.91683 1.359626,-12.3372 z" inkscape:connector-curvature="0" stroke-opacity="1" fill="#7e0300" fill-rule="evenodd" stroke="none" stroke-linejoin="miter" fill-opacity="1" stroke-linecap="butt" stroke-width="1"/>
  <path inkscape:connector-curvature="0" d="m 19.256636,234.74565 61.01877,53.59338 c 3.460842,3.16622 6.566988,3.92125 11.538295,3.05508 l 25.834309,-4.46796 0.1657,8.82347 -24.738031,4.53159 c -8.063782,1.3531 -9.971615,0.28079 -12.6686,-2.07568 L 16.493487,242.31626 c -7.8115644,-6.4527 -3.125728,-11.15024 2.763149,-7.57061 z" id="path1007" sodipodi:nodetypes="ccccccccc" stroke-opacity="1" fill="#bf0800" fill-rule="evenodd" stroke="none" stroke-linejoin="miter" fill-opacity="1" stroke-linecap="butt" stroke-width="1"/>
  <path sodipodi:nodetypes="ccccccccc" id="path1010" d="m 19.256636,236.56835 60.60452,53.01343 c 3.460842,3.16622 7.064088,4.08695 12.035395,3.22078 l 25.502909,-3.97086 0.3314,5.59232 -24.489481,4.36589 c -8.063782,1.3531 -9.805915,0.19794 -12.5029,-2.15853 L 18.399038,242.23341 c -7.811564,-6.4527 -5.031279,-9.24469 0.857598,-5.66506 z" inkscape:connector-curvature="0" stroke-opacity="1" fill="#ff1700" fill-rule="evenodd" stroke="none" stroke-linejoin="miter" fill-opacity="1" stroke-linecap="butt" stroke-width="1"/>
  <path inkscape:connector-curvature="0" d="m 19.753736,238.3082 60.02457,53.01343 c 3.460842,3.16622 7.146938,3.42415 12.118245,2.55798 l 25.337209,-3.80516 0.1657,2.94112 -24.158081,4.61444 c -8.063782,1.3531 -9.723065,-0.38201 -12.42005,-2.73848 L 18.813288,241.32206 c -5.574613,-4.4643 -1.717277,-5.76499 0.940448,-3.01386 z" id="path1012" sodipodi:nodetypes="ccccccccc" stroke-opacity="1" fill="#ff8f8a" fill-rule="evenodd" stroke="none" stroke-linejoin="miter" fill-opacity="1" stroke-linecap="butt" stroke-width="1"/>
  <path sodipodi:nodetypes="cccc" id="path1014" d="m 18.201056,238.84208 60.899138,52.99508 c 3.904659,3.42962 7.968406,5.28223 16.572964,3.63882 l 20.452362,-3.69955" inkscape:connector-curvature="0" stroke-miterlimit="4" stroke-dasharray="none" stroke-opacity="1" fill="none" fill-rule="evenodd" stroke="#ffc6c7" stroke-linejoin="miter" stroke-linecap="round" stroke-width="1"/>
 </g>
 <g id="g1046" transform="translate(0,-20.389321)">
  <path inkscape:connector-curvature="0" d="m 359.3362,226.99806 v 9.09158 l 15.53168,-3.63663 c 4.64567,-1.19206 4.38324,-11.69405 0.33046,-10.4553 z" id="path1042" sodipodi:nodetypes="ccccc" stroke-dasharray="none" stroke-opacity="1" fill="#990f00" fill-rule="evenodd" stroke="url(#linearGradient1048)" stroke-linejoin="miter" fill-opacity="1" stroke-linecap="butt" stroke-width="1.21" stroke-miterlimit="4"/>
  <path stroke-miterlimit="4" inkscape:connector-curvature="0" d="m 361.33619,230.10636 19.09913,-4.05922 c 1.26825,-0.43176 2.90949,-0.49053 3.27859,-1.82144" id="path1044" sodipodi:nodetypes="ccc" transform="matrix(0.69230891,0,0,1.0094582,111.15211,-2.1485828)" stroke-dasharray="none" stroke-opacity="1" fill="none" filter="url(#filter1176)" fill-rule="evenodd" stroke="#ff314b" stroke-linejoin="miter" stroke-linecap="round" stroke-width="2.8"/>
 </g>
 <g transform="translate(0,-36.440489)" id="g1054">
  <path sodipodi:nodetypes="ccccc" id="path1050" d="m 359.3362,226.99806 v 9.09158 l 15.53168,-3.63663 c 4.64567,-1.19206 4.38324,-11.69405 0.33046,-10.4553 z" inkscape:connector-curvature="0" stroke-dasharray="none" stroke-opacity="1" fill="#990f00" fill-rule="evenodd" stroke="url(#linearGradient1056)" stroke-linejoin="miter" fill-opacity="1" stroke-linecap="butt" stroke-width="1.21" stroke-miterlimit="4"/>
  <path transform="matrix(0.69230891,0,0,1.0094582,111.15211,-2.1485828)" sodipodi:nodetypes="ccc" id="path1052" d="m 361.33619,230.10636 19.09913,-4.05922 c 1.26825,-0.43176 2.90949,-0.49053 3.27859,-1.82144" inkscape:connector-curvature="0" stroke-miterlimit="4" stroke-dasharray="none" stroke-opacity="1" fill="none" filter="url(#filter1176)" fill-rule="evenodd" stroke="#ff314b" stroke-linejoin="miter" stroke-linecap="round" stroke-width="2.8"/>
 </g>
 <g id="g1062" transform="translate(0,-56.395995)">
  <path inkscape:connector-curvature="0" d="m 359.3362,226.99806 v 9.09158 l 15.53168,-3.63663 c 4.64567,-1.19206 4.38324,-11.69405 0.33046,-10.4553 z" id="path1058" sodipodi:nodetypes="ccccc" stroke-dasharray="none" stroke-opacity="1" fill="#990f00" fill-rule="evenodd" stroke="url(#linearGradient1064)" stroke-linejoin="miter" fill-opacity="1" stroke-linecap="butt" stroke-width="1.21" stroke-miterlimit="4"/>
  <path stroke-miterlimit="4" inkscape:connector-curvature="0" d="m 361.33619,230.10636 19.09913,-4.05922 c 1.26825,-0.43176 2.90949,-0.49053 3.27859,-1.82144" id="path1060" sodipodi:nodetypes="ccc" transform="matrix(0.69230891,0,0,1.0094582,111.15211,-2.1485828)" stroke-dasharray="none" stroke-opacity="1" fill="none" filter="url(#filter1176)" fill-rule="evenodd" stroke="#ff314b" stroke-linejoin="miter" stroke-linecap="round" stroke-width="2.8"/>
 </g>
 <g transform="translate(0,-76.785316)" id="g1070">
  <path sodipodi:nodetypes="ccccc" id="path1066" d="m 359.3362,226.99806 v 9.09158 l 15.53168,-3.63663 c 4.64567,-1.19206 4.38324,-11.69405 0.33046,-10.4553 z" inkscape:connector-curvature="0" stroke-dasharray="none" stroke-opacity="1" fill="#990f00" fill-rule="evenodd" stroke="url(#linearGradient1072)" stroke-linejoin="miter" fill-opacity="1" stroke-linecap="butt" stroke-width="1.21" stroke-miterlimit="4"/>
  <path transform="matrix(0.69230891,0,0,1.0094582,111.15211,-2.1485828)" sodipodi:nodetypes="ccc" id="path1068" d="m 361.33619,230.10636 19.09913,-4.05922 c 1.26825,-0.43176 2.90949,-0.49053 3.27859,-1.82144" inkscape:connector-curvature="0" stroke-miterlimit="4" stroke-dasharray="none" stroke-opacity="1" fill="none" filter="url(#filter1176)" fill-rule="evenodd" stroke="#ff314b" stroke-linejoin="miter" stroke-linecap="round" stroke-width="2.8"/>
 </g>
</svg>
