<?xml version="1.0" encoding="UTF-8" standalone="no"?>
<!-- Created with Inkscape (http://www.inkscape.org/) -->
<svg xmlns:dc="http://purl.org/dc/elements/1.1/" xmlns:cc="http://creativecommons.org/ns#" xmlns:rdf="http://www.w3.org/1999/02/22-rdf-syntax-ns#" xmlns:svg="http://www.w3.org/2000/svg" xmlns="http://www.w3.org/2000/svg" xmlns:xlink="http://www.w3.org/1999/xlink" xmlns:sodipodi="http://sodipodi.sourceforge.net/DTD/sodipodi-0.dtd" xmlns:inkscape="http://www.inkscape.org/namespaces/inkscape" width="255" height="255" viewBox="0 0 67.468749 67.468749" version="1.1" id="svg8" inkscape:version="0.92.5 (2060ec1f9f, 2020-04-08)" sodipodi:docname="latte_cleaned.svg">
 <defs id="defs2">
  <linearGradient id="linearGradient1011" inkscape:collect="always">
   <stop stop-opacity="1" stop-color="#7b0000" id="stop1007"/>
   <stop stop-opacity="1" stop-color="#ff0000" id="stop1009" offset="1"/>
  </linearGradient>
  <linearGradient inkscape:collect="always" id="linearGradient948">
   <stop id="stop943" stop-color="#000000" stop-opacity="1"/>
   <stop id="stop957" offset="0.692" stop-color="#000000" stop-opacity="1"/>
   <stop id="stop955" offset="0.856" stop-color="#000000" stop-opacity="0.537"/>
   <stop offset="1" id="stop946" stop-color="#000000" stop-opacity="0"/>
  </linearGradient>
  <linearGradient inkscape:collect="always" id="linearGradient949">
   <stop id="stop945" stop-color="#c01515" stop-opacity="1"/>
   <stop offset="1" id="stop947" stop-color="#720000" stop-opacity="1"/>
  </linearGradient>
  <linearGradient inkscape:collect="always" id="linearGradient946">
   <stop id="stop937" stop-color="#683c03" stop-opacity="1"/>
   <stop id="stop950" offset="0.356" stop-color="#b0670a" stop-opacity="0.375"/>
   <stop offset="0.665" id="stop952" stop-color="#73450c" stop-opacity="0.914"/>
   <stop offset="1" id="stop942" stop-color="#b0670a" stop-opacity="0.157"/>
  </linearGradient>
  <linearGradient id="linearGradient980" inkscape:collect="always">
   <stop id="stop976" stop-color="#c80000" stop-opacity="0.588"/>
   <stop id="stop978" offset="1" stop-color="#6f0000" stop-opacity="0.439"/>
  </linearGradient>
  <linearGradient inkscape:collect="always" id="linearGradient968">
   <stop id="stop964" stop-color="#630000" stop-opacity="0.435"/>
   <stop offset="1" id="stop966" stop-color="#ff0000" stop-opacity="0.294"/>
  </linearGradient>
  <linearGradient id="linearGradient931" inkscape:collect="always">
   <stop id="stop938" stop-color="#d01717" stop-opacity="1"/>
   <stop id="stop940" offset="1" stop-color="#450000" stop-opacity="1"/>
  </linearGradient>
  <linearGradient inkscape:collect="always" id="linearGradient931-3">
   <stop id="stop927" stop-color="#9e0000" stop-opacity="1"/>
   <stop offset="1" id="stop929" stop-color="#ff0000" stop-opacity="1"/>
  </linearGradient>
  <linearGradient inkscape:collect="always" id="linearGradient919">
   <stop id="stop915" stop-color="#ff391f" stop-opacity="1"/>
   <stop id="stop923" offset="0.965" stop-color="#8e1100" stop-opacity="1"/>
   <stop offset="1" id="stop917" stop-color="#eb7b6e" stop-opacity="1"/>
  </linearGradient>
  <linearGradient inkscape:collect="always" id="linearGradient1079">
   <stop id="stop1075" stop-color="#ff0000" stop-opacity="0"/>
   <stop offset="1" id="stop1077" stop-color="#8b0000" stop-opacity="1"/>
  </linearGradient>
  <linearGradient inkscape:collect="always" id="linearGradient1020">
   <stop id="stop1016" stop-color="#ff7676" stop-opacity="1"/>
   <stop offset="1" id="stop1018" stop-color="#cb0000" stop-opacity="0"/>
  </linearGradient>
  <linearGradient inkscape:collect="always" id="linearGradient1010">
   <stop id="stop1006" stop-color="#a5a5a5" stop-opacity="1"/>
   <stop offset="1" id="stop1008" stop-color="#a5a5a5" stop-opacity="0"/>
  </linearGradient>
  <linearGradient id="linearGradient920" inkscape:collect="always">
   <stop id="stop973" stop-color="#580000" stop-opacity="1"/>
   <stop id="stop975" offset="1" stop-color="#ff0c0c" stop-opacity="0"/>
  </linearGradient>
  <linearGradient inkscape:collect="always" id="linearGradient955">
   <stop id="stop951" stop-color="#6b0000" stop-opacity="1"/>
   <stop id="stop961" offset="0.904" stop-color="#890000" stop-opacity="1"/>
   <stop id="stop959" offset="0.958" stop-color="#ff4646" stop-opacity="1"/>
   <stop offset="1" id="stop953" stop-color="#770000" stop-opacity="0.984"/>
  </linearGradient>
  <linearGradient inkscape:collect="always" id="linearGradient943">
   <stop id="stop939" stop-color="#b50000" stop-opacity="1"/>
   <stop offset="1" id="stop941" stop-color="#ff6565" stop-opacity="1"/>
  </linearGradient>
  <linearGradient inkscape:collect="always" id="linearGradient920-3">
   <stop id="stop916" stop-color="#bcbcbc" stop-opacity="1"/>
   <stop offset="1" id="stop918" stop-color="#ffffff" stop-opacity="1"/>
  </linearGradient>
  <linearGradient inkscape:collect="always" id="linearGradient908">
   <stop id="stop904" stop-color="#8c0000" stop-opacity="1"/>
   <stop id="stop912" offset="0.893" stop-color="#9f9f9f" stop-opacity="1"/>
   <stop offset="1" id="stop906" stop-color="#e2e2e2" stop-opacity="1"/>
  </linearGradient>
  <clipPath clipPathUnits="userSpaceOnUse" id="clipPath2059">
   <path d="m -10.099732,231.68531 c 3.5587363,2.50616 4.8319716,-0.58528 2.9651647,-3.064 -3.1818907,-4.22486 -6.4443207,-9.83985 -12.3548527,-15.91305 -2.594516,-2.66865 -11.860659,-7.80827 -11.860659,-7.80827 0,0 -0.115438,-2.18844 -0.09884,-3.064 0.01106,-0.582 -0.565687,-0.56369 -0.889553,-0.29652 -0.782426,0.64546 -2.47097,2.56981 -2.47097,2.56981 l -1.68026,-0.0988 -1.087226,-1.58142 c -0.296516,-0.41055 -0.636056,-0.34641 -0.88955,0 -0.545383,1.84962 -0.878698,3.8848 -3.459359,3.95355 l 4.447747,3.95356 c 7.76561,1.55335 15.578734,5.58545 20.261957,14.33163 0,0 4.526451,5.19364 7.116396,7.01755 z" id="path2061" sodipodi:nodetypes="csscsscccccccs" inkscape:connector-curvature="0" stroke-dasharray="none" stroke-opacity="1" fill="#ffffff" fill-rule="evenodd" stroke="none" stroke-linejoin="miter" fill-opacity="1" stroke-linecap="butt" stroke-width="0.048" stroke-miterlimit="4"/>
  </clipPath>
  <clipPath id="clipPath2059-5" clipPathUnits="userSpaceOnUse">
   <path stroke-miterlimit="4" stroke-width="0.048" stroke-linecap="butt" fill-opacity="1" stroke-linejoin="miter" stroke="none" fill-rule="evenodd" fill="#ffffff" stroke-opacity="1" stroke-dasharray="none" inkscape:connector-curvature="0" sodipodi:nodetypes="csscsscccccccs" id="path2061-3" d="m -10.099732,231.68531 c 3.5587363,2.50616 4.8319716,-0.58528 2.9651647,-3.064 -3.1818907,-4.22486 -6.4443207,-9.83985 -12.3548527,-15.91305 -2.594516,-2.66865 -11.860659,-7.80827 -11.860659,-7.80827 0,0 -0.115438,-2.18844 -0.09884,-3.064 0.01106,-0.582 -0.565687,-0.56369 -0.889553,-0.29652 -0.782426,0.64546 -2.47097,2.56981 -2.47097,2.56981 l -1.68026,-0.0988 -1.087226,-1.58142 c -0.296516,-0.41055 -0.636056,-0.34641 -0.88955,0 -0.545383,1.84962 -0.878698,3.8848 -3.459359,3.95355 l 4.447747,3.95356 c 7.76561,1.55335 15.578734,5.58545 20.261957,14.33163 0,0 4.526451,5.19364 7.116396,7.01755 z"/>
  </clipPath>
  <clipPath id="clipPath">
   <path fill-opacity="0.95" stroke="none" fill="#1b1b1b" sodipodi:nodetypes="csssscc" inkscape:connector-curvature="0" id="rect5264" d="m -515.73002,435.56445 v 5.83767 c 0,9.74315 -7.84377,17.58692 -17.58692,17.58692 h -135.05122 c -9.74315,0 -17.58692,-7.84377 -17.58692,-17.58692 v -5.83767 z"/>
  </clipPath>
  <clipPath clipPathUnits="userSpaceOnUse" id="clipPath2059-7">
   <path d="m -10.099732,231.68531 c 3.5587363,2.50616 4.8319716,-0.58528 2.9651647,-3.064 -3.1818907,-4.22486 -6.4443207,-9.83985 -12.3548527,-15.91305 -2.594516,-2.66865 -11.860659,-7.80827 -11.860659,-7.80827 0,0 -0.115438,-2.18844 -0.09884,-3.064 0.01106,-0.582 -0.565687,-0.56369 -0.889553,-0.29652 -0.782426,0.64546 -2.47097,2.56981 -2.47097,2.56981 l -1.68026,-0.0988 -1.087226,-1.58142 c -0.296516,-0.41055 -0.636056,-0.34641 -0.88955,0 -0.545383,1.84962 -0.878698,3.8848 -3.459359,3.95355 l 4.447747,3.95356 c 7.76561,1.55335 15.578734,5.58545 20.261957,14.33163 0,0 4.526451,5.19364 7.116396,7.01755 z" id="path2061-5" sodipodi:nodetypes="csscsscccccccs" inkscape:connector-curvature="0" stroke-dasharray="none" stroke-opacity="1" fill="#ffffff" fill-rule="evenodd" stroke="none" stroke-linejoin="miter" fill-opacity="1" stroke-linecap="butt" stroke-width="0.048" stroke-miterlimit="4"/>
  </clipPath>
  <clipPath clipPathUnits="userSpaceOnUse" id="clipPath1162">
   <path stroke-miterlimit="4" stroke-width="0.071" stroke-linecap="round" fill-opacity="0.347" stroke-linejoin="round" stroke="none" fill="#000000" stroke-opacity="1" stroke-dasharray="none" inkscape:connector-curvature="0" d="m -65.649736,239.84563 c -9.358079,0 -16.951888,7.59381 -16.951888,16.95188 0,9.35808 7.593811,16.94076 16.951888,16.94077 0.292439,0 0.578792,-0.008 0.867614,-0.0222 2.122786,-0.10753 4.148336,-0.60587 5.995453,-1.42378 l 2.669587,3.97101 c -0.225515,0.4951 -0.245107,0.96445 -0.01111,1.31255 l 15.67271,23.32553 c 0.495366,0.73695 1.94415,0.6317 3.247998,-0.24471 1.303846,-0.87642 1.96364,-2.17735 1.468276,-2.9143 L -51.42304,274.4168 c -0.233058,-0.34672 -0.682887,-0.49868 -1.22356,-0.47831 l -2.558357,-3.80416 c 3.95991,-3.10036 6.507123,-7.91951 6.507123,-13.33682 0,-9.35807 -7.593809,-16.95188 -16.951889,-16.95188 z m 0,2.5806 c 7.92884,0 14.371283,6.44244 14.371283,14.37128 0,7.92885 -6.442435,14.36016 -14.371283,14.36016 -7.928851,0 -14.349039,-6.43131 -14.349039,-14.36016 0,-0.24777 -0.0013,-0.48941 0.01111,-0.73413 0.384376,-7.58638 6.656848,-13.63715 14.337916,-13.63715 z" id="path1164"/>
  </clipPath>
  <radialGradient inkscape:collect="always" xlink:href="#linearGradient908" id="radialGradient910" cx="14.226" cy="246.71" fx="14.226" fy="246.71" r="21.379" gradientTransform="matrix(1,0,0,0.3240016,10.716513,173.89913)" gradientUnits="userSpaceOnUse" spreadMethod="reflect"/>
  <radialGradient inkscape:collect="always" xlink:href="#linearGradient920-3" id="radialGradient922" cx="20.605" cy="268.95" fx="20.605" fy="268.95" r="20.565" gradientTransform="matrix(1.2185776,0.02038208,-0.01348928,0.79942783,10.945519,43.982162)" gradientUnits="userSpaceOnUse" spreadMethod="reflect"/>
  <filter inkscape:collect="always" id="filter926" x="-0.007" width="1.014" y="-0.045" height="1.09" color-interpolation-filters="sRGB">
   <feGaussianBlur inkscape:collect="always" id="feGaussianBlur928"/>
  </filter>
  <linearGradient inkscape:collect="always" xlink:href="#linearGradient943" id="linearGradient945" x1="-46.999" y1="258.86" x2="-27.476" y2="259.77" gradientUnits="userSpaceOnUse" spreadMethod="reflect" gradientTransform="matrix(1.0211575,0,0,1,61.825808,6.4148139)"/>
  <radialGradient inkscape:collect="always" xlink:href="#linearGradient955" id="radialGradient957" cx="24.551" cy="269.67" fx="24.551" fy="269.67" r="15.237" gradientTransform="matrix(0.99986457,0.02098947,-0.004953,0.38380183,1.3538279,170.74056)" gradientUnits="userSpaceOnUse"/>
  <radialGradient inkscape:collect="always" xlink:href="#linearGradient920" id="radialGradient1000" cx="23.81" cy="292.79" fx="23.81" fy="292.79" r="19.886" gradientTransform="matrix(1.6030409,0.03667499,-0.00995114,0.43495835,-11.44486,151.53783)" gradientUnits="userSpaceOnUse" spreadMethod="reflect"/>
  <linearGradient inkscape:collect="always" xlink:href="#linearGradient1010" id="linearGradient1012" x1="14.414" y1="272.77" x2="15.609" y2="270.13" gradientUnits="userSpaceOnUse"/>
  <linearGradient inkscape:collect="always" xlink:href="#linearGradient1020" id="linearGradient1022" x1="8.928" y1="259.34" x2="10.323" y2="261.23" gradientUnits="userSpaceOnUse" spreadMethod="reflect"/>
  <filter inkscape:collect="always" id="filter1069" x="-0.041" width="1.083" y="-0.057" height="1.114" color-interpolation-filters="sRGB">
   <feGaussianBlur inkscape:collect="always" stdDeviation="0.22807" id="feGaussianBlur1071"/>
  </filter>
  <linearGradient inkscape:collect="always" xlink:href="#linearGradient1079" id="linearGradient1081" x1="40.21" y1="275.31" x2="39.931" y2="280.7" gradientUnits="userSpaceOnUse"/>
  <clipPath id="clipPath2059-75" clipPathUnits="userSpaceOnUse">
   <path stroke-miterlimit="4" stroke-width="0.048" stroke-linecap="butt" fill-opacity="1" stroke-linejoin="miter" stroke="none" fill-rule="evenodd" fill="#ffffff" stroke-opacity="1" stroke-dasharray="none" inkscape:connector-curvature="0" sodipodi:nodetypes="csscsscccccccs" id="path2061-35" d="m -10.099732,231.68531 c 3.5587363,2.50616 4.8319716,-0.58528 2.9651647,-3.064 -3.1818907,-4.22486 -6.4443207,-9.83985 -12.3548527,-15.91305 -2.594516,-2.66865 -11.860659,-7.80827 -11.860659,-7.80827 0,0 -0.115438,-2.18844 -0.09884,-3.064 0.01106,-0.582 -0.565687,-0.56369 -0.889553,-0.29652 -0.782426,0.64546 -2.47097,2.56981 -2.47097,2.56981 l -1.68026,-0.0988 -1.087226,-1.58142 c -0.296516,-0.41055 -0.636056,-0.34641 -0.88955,0 -0.545383,1.84962 -0.878698,3.8848 -3.459359,3.95355 l 4.447747,3.95356 c 7.76561,1.55335 15.578734,5.58545 20.261957,14.33163 0,0 4.526451,5.19364 7.116396,7.01755 z"/>
  </clipPath>
  <clipPath clipPathUnits="userSpaceOnUse" id="clipPath2059-5-6">
   <path d="m -10.099732,231.68531 c 3.5587363,2.50616 4.8319716,-0.58528 2.9651647,-3.064 -3.1818907,-4.22486 -6.4443207,-9.83985 -12.3548527,-15.91305 -2.594516,-2.66865 -11.860659,-7.80827 -11.860659,-7.80827 0,0 -0.115438,-2.18844 -0.09884,-3.064 0.01106,-0.582 -0.565687,-0.56369 -0.889553,-0.29652 -0.782426,0.64546 -2.47097,2.56981 -2.47097,2.56981 l -1.68026,-0.0988 -1.087226,-1.58142 c -0.296516,-0.41055 -0.636056,-0.34641 -0.88955,0 -0.545383,1.84962 -0.878698,3.8848 -3.459359,3.95355 l 4.447747,3.95356 c 7.76561,1.55335 15.578734,5.58545 20.261957,14.33163 0,0 4.526451,5.19364 7.116396,7.01755 z" id="path2061-3-2" sodipodi:nodetypes="csscsscccccccs" inkscape:connector-curvature="0" stroke-dasharray="none" stroke-opacity="1" fill="#ffffff" fill-rule="evenodd" stroke="none" stroke-linejoin="miter" fill-opacity="1" stroke-linecap="butt" stroke-width="0.048" stroke-miterlimit="4"/>
  </clipPath>
  <clipPath id="clipPath-9">
   <path d="m -515.73002,435.56445 v 5.83767 c 0,9.74315 -7.84377,17.58692 -17.58692,17.58692 h -135.05122 c -9.74315,0 -17.58692,-7.84377 -17.58692,-17.58692 v -5.83767 z" id="rect5264-1" inkscape:connector-curvature="0" sodipodi:nodetypes="csssscc" fill="#1b1b1b" stroke="none" fill-opacity="0.95"/>
  </clipPath>
  <clipPath id="clipPath2059-7-2" clipPathUnits="userSpaceOnUse">
   <path stroke-miterlimit="4" stroke-width="0.048" stroke-linecap="butt" fill-opacity="1" stroke-linejoin="miter" stroke="none" fill-rule="evenodd" fill="#ffffff" stroke-opacity="1" stroke-dasharray="none" inkscape:connector-curvature="0" sodipodi:nodetypes="csscsscccccccs" id="path2061-5-7" d="m -10.099732,231.68531 c 3.5587363,2.50616 4.8319716,-0.58528 2.9651647,-3.064 -3.1818907,-4.22486 -6.4443207,-9.83985 -12.3548527,-15.91305 -2.594516,-2.66865 -11.860659,-7.80827 -11.860659,-7.80827 0,0 -0.115438,-2.18844 -0.09884,-3.064 0.01106,-0.582 -0.565687,-0.56369 -0.889553,-0.29652 -0.782426,0.64546 -2.47097,2.56981 -2.47097,2.56981 l -1.68026,-0.0988 -1.087226,-1.58142 c -0.296516,-0.41055 -0.636056,-0.34641 -0.88955,0 -0.545383,1.84962 -0.878698,3.8848 -3.459359,3.95355 l 4.447747,3.95356 c 7.76561,1.55335 15.578734,5.58545 20.261957,14.33163 0,0 4.526451,5.19364 7.116396,7.01755 z"/>
  </clipPath>
  <clipPath id="clipPath1162-0" clipPathUnits="userSpaceOnUse">
   <path id="path1164-9" d="m -65.649736,239.84563 c -9.358079,0 -16.951888,7.59381 -16.951888,16.95188 0,9.35808 7.593811,16.94076 16.951888,16.94077 0.292439,0 0.578792,-0.008 0.867614,-0.0222 2.122786,-0.10753 4.148336,-0.60587 5.995453,-1.42378 l 2.669587,3.97101 c -0.225515,0.4951 -0.245107,0.96445 -0.01111,1.31255 l 15.67271,23.32553 c 0.495366,0.73695 1.94415,0.6317 3.247998,-0.24471 1.303846,-0.87642 1.96364,-2.17735 1.468276,-2.9143 L -51.42304,274.4168 c -0.233058,-0.34672 -0.682887,-0.49868 -1.22356,-0.47831 l -2.558357,-3.80416 c 3.95991,-3.10036 6.507123,-7.91951 6.507123,-13.33682 0,-9.35807 -7.593809,-16.95188 -16.951889,-16.95188 z m 0,2.5806 c 7.92884,0 14.371283,6.44244 14.371283,14.37128 0,7.92885 -6.442435,14.36016 -14.371283,14.36016 -7.928851,0 -14.349039,-6.43131 -14.349039,-14.36016 0,-0.24777 -0.0013,-0.48941 0.01111,-0.73413 0.384376,-7.58638 6.656848,-13.63715 14.337916,-13.63715 z" inkscape:connector-curvature="0" stroke-dasharray="none" stroke-opacity="1" fill="#000000" stroke="none" stroke-linejoin="round" fill-opacity="0.347" stroke-linecap="round" stroke-width="0.071" stroke-miterlimit="4"/>
  </clipPath>
  <radialGradient inkscape:collect="always" xlink:href="#linearGradient919" id="radialGradient921" cx="30.14" cy="299.47" fx="30.14" fy="299.47" r="31.11" gradientTransform="matrix(0.97670238,0.00776587,-0.00348976,0.43890169,1.7473416,168.10682)" gradientUnits="userSpaceOnUse" spreadMethod="reflect"/>
  <linearGradient inkscape:collect="always" xlink:href="#linearGradient931-3" id="linearGradient933" x1="31.374" y1="285.46" x2="31.449" y2="298.75" gradientUnits="userSpaceOnUse" spreadMethod="reflect" gradientTransform="matrix(1.0166784,0,0,1,-0.34237357,0)"/>
  <linearGradient inkscape:collect="always" xlink:href="#linearGradient931" id="linearGradient944" gradientUnits="userSpaceOnUse" x1="30.993" y1="312.85" x2="30.483" y2="317.12" spreadMethod="pad"/>
  <linearGradient inkscape:collect="always" xlink:href="#linearGradient1011" id="linearGradient960" x1="41.459" y1="286.54" x2="41.641" y2="274.26" gradientUnits="userSpaceOnUse" gradientTransform="translate(-5.4366438,0.12081431)"/>
  <linearGradient inkscape:collect="always" xlink:href="#linearGradient968" id="linearGradient970" x1="19.872" y1="280.73" x2="38.892" y2="281.22" gradientUnits="userSpaceOnUse" spreadMethod="reflect" gradientTransform="translate(-5.4366438,0.12081431)"/>
  <linearGradient inkscape:collect="always" xlink:href="#linearGradient980" id="linearGradient974" gradientUnits="userSpaceOnUse" x1="41.22" y1="280.27" x2="20.647" y2="281.59" gradientTransform="matrix(0.94203682,0,0,-0.81032481,-3.0222761,493.69077)" spreadMethod="reflect"/>
  <filter inkscape:collect="always" id="filter990" x="-0.007" width="1.014" y="-0.036" height="1.071" color-interpolation-filters="sRGB">
   <feGaussianBlur inkscape:collect="always" stdDeviation="0.15344" id="feGaussianBlur992"/>
  </filter>
  <radialGradient inkscape:collect="always" xlink:href="#linearGradient946" id="radialGradient948" cx="33.822" cy="255.42" fx="33.822" fy="255.42" r="18.348" gradientTransform="matrix(1,0,0,0.29452344,0,180.19435)" gradientUnits="userSpaceOnUse"/>
  <linearGradient inkscape:collect="always" xlink:href="#linearGradient949" id="linearGradient951" x1="32.2" y1="293.77" x2="32.35" y2="290.56" gradientUnits="userSpaceOnUse" gradientTransform="matrix(1,0,0,0.91082737,-0.45281038,24.554038)"/>
  <radialGradient inkscape:collect="always" xlink:href="#linearGradient948" id="radialGradient950" cx="32.678" cy="279.94" fx="32.678" fy="279.94" r="32.07" gradientTransform="matrix(1,0,0,0.37058826,-0.52827879,180.08678)" gradientUnits="userSpaceOnUse"/>
  <filter inkscape:collect="always" id="filter1025" x="-0.025" width="1.051" y="-0.023" height="1.045" color-interpolation-filters="sRGB">
   <feGaussianBlur inkscape:collect="always" stdDeviation="0.09589" id="feGaussianBlur1027"/>
  </filter>
  <filter inkscape:collect="always" id="filter948" x="-0.015" width="1.03" y="-0.062" height="1.125" color-interpolation-filters="sRGB">
   <feGaussianBlur inkscape:collect="always" stdDeviation="0.23512" id="feGaussianBlur950"/>
  </filter>
 </defs>
 <sodipodi:namedview id="base" pagecolor="#ff0000" bordercolor="#666666" borderopacity="1.0" inkscape:pageopacity="0" inkscape:pageshadow="2" inkscape:zoom="3.5058824" inkscape:cx="127.5" inkscape:cy="127.5" inkscape:document-units="px" inkscape:current-layer="layer1" showgrid="false" inkscape:snap-to-guides="false" inkscape:snap-grids="false" inkscape:snap-others="false" inkscape:object-nodes="false" inkscape:snap-nodes="false" inkscape:snap-global="false" inkscape:window-width="1920" inkscape:window-height="1056" inkscape:window-x="0" inkscape:window-y="0" inkscape:window-maximized="1" units="px" showguides="false"/>
 <metadata id="metadata5">
  <rdf:RDF>
   <cc:Work>
    <dc:format>image/svg+xml</dc:format>
    <dc:type rdf:resource="http://purl.org/dc/dcmitype/StillImage"/>
    <dc:title/>
   </cc:Work>
  </rdf:RDF>
 </metadata>
 <g inkscape:label="Layer 1" inkscape:groupmode="layer" id="layer1" transform="translate(0,-229.53126)">
  <ellipse id="path939" cx="32.15" cy="283.83" rx="32.07" ry="11.886" opacity="1" stroke-dasharray="none" stroke-opacity="1" fill="url(#radialGradient950)" fill-rule="evenodd" stroke="none" stroke-linejoin="round" fill-opacity="1" stroke-linecap="round" stroke-width="2.267" stroke-dashoffset="0" stroke-miterlimit="4"/>
  <path d="m 14.912077,286.81205 c 0.02627,0.13309 -0.603694,-0.93778 0.340268,-0.59993 8.79627,3.14829 18.315934,5.98376 33.229465,1.12348 0.848967,-0.27667 1.345511,0.45893 0.595497,0.6869 -15.231984,5.96719 -24.756772,3.51756 -34.16523,-1.21045 z" id="path943" inkscape:connector-curvature="0" sodipodi:nodetypes="csscc" stroke-opacity="1" fill="url(#linearGradient951)" stroke="none" stroke-linejoin="miter" fill-opacity="1" stroke-linecap="butt" stroke-width="0.253"/>
  <g id="g949" transform="matrix(1.0221955,0,0,1.0221955,3.9262273,-32.89952)">
   <path sodipodi:nodetypes="sssss" inkscape:connector-curvature="0" id="ellipse935" d="m 60.927888,300.56403 c -3e-6,6.77247 -15.858343,15.377 -31.99286,15.377 -16.134517,0 -30.4222707,-9.32942 -30.4222733,-16.10189 2.6e-6,-6.77247 14.7710133,-12.26265 30.9055303,-12.26265 16.134517,0 31.5096,6.21506 31.509603,12.98754 z" stroke-miterlimit="4" opacity="1" stroke-dasharray="none" stroke-opacity="1" paint-order="normal" fill="url(#linearGradient944)" fill-rule="evenodd" stroke="none" stroke-linejoin="round" fill-opacity="1" stroke-linecap="round" stroke-width="1.506" stroke-dashoffset="0"/>
   <ellipse ry="13.05" rx="30.506" cy="300.02" cx="29.539" id="path913" opacity="1" stroke-dasharray="none" stroke-opacity="1" fill="#b0670a" fill-rule="evenodd" stroke="url(#radialGradient921)" stroke-linejoin="round" fill-opacity="1" stroke-linecap="round" stroke-width="1.587" stroke-dashoffset="0" stroke-miterlimit="4"/>
   <ellipse id="ellipse925" stroke-miterlimit="4" ry="12.263" rx="29.697" cy="299.84" cx="29.566" opacity="1" stroke-dasharray="none" stroke-opacity="1" fill="url(#linearGradient933)" fill-rule="evenodd" stroke="none" stroke-linejoin="round" fill-opacity="1" stroke-linecap="round" stroke-width="1.519" stroke-dashoffset="0"/>
  </g>
  <path sodipodi:nodetypes="ccsccscc" inkscape:connector-curvature="0" id="path972" d="m 16.098061,264.18477 c -3.571461,1.2068 -8.0500308,2.30956 -7.2839378,4.01385 3.2993938,2.47248 6.4054368,-0.16146 10.4570838,-3.50365 4.341231,-3.58107 19.297252,-2.21313 29.718384,-0.4123 4.213628,1.31266 4.623186,8.51 10.129226,7.92979 1.907029,-1.41532 -0.737838,-4.68098 -2.617664,-5.77602 -4.707771,-2.74238 -15.140004,-3.71189 -21.738001,-4.30755 -7.721599,-0.78921 -12.962437,0.86033 -18.665091,2.05588 z" transform="matrix(1.0221955,0,0,1.0221955,-0.02563976,-6.4714088)" stroke-opacity="1" fill="url(#linearGradient974)" filter="url(#filter990)" stroke="none" stroke-linejoin="miter" fill-opacity="1" stroke-linecap="butt" stroke-width="0.231"/>
  <g id="g1097" transform="matrix(1.0221955,0,0,1.0221955,-5.5829529,-6.347913)">
   <g transform="translate(14.112591,0.98108919)" id="g985">
    <path d="m 10.117188,273.04694 a 0.63506349,0.80996589 0 0 0 -0.6035161,0.67756 c -0.1098712,0.77307 0.052483,1.56109 0.3984375,2.22449 0.3459536,0.66342 0.8601336,1.23361 1.5097656,1.7512 1.299264,1.03517 3.162713,1.8668 5.496094,2.46363 4.666761,1.19366 10.463952,1.22841 15.210937,0.0946 2.373493,-0.56688 4.291817,-1.37401 5.654297,-2.38392 0.68124,-0.50496 1.228091,-1.06246 1.613281,-1.70636 0.385191,-0.64391 0.602877,-1.40822 0.548828,-2.18962 a 0.63534179,0.81032084 0 1 0 -1.265624,0.14448 c 0.02283,0.33007 -0.05025,0.65793 -0.292969,1.06368 -0.242715,0.40573 -0.660156,0.85643 -1.242188,1.28785 -1.164063,0.86284 -2.971971,1.64804 -5.25,2.19211 -4.556056,1.08816 -10.256261,1.05125 -14.726562,-0.0922 -2.235151,-0.5717 -3.982467,-1.37863 -5.072266,-2.24691 -0.544899,-0.43414 -0.919747,-0.88182 -1.125,-1.27541 -0.205253,-0.39361 -0.254916,-0.70183 -0.207031,-1.03876 a 0.63506349,0.80996589 0 0 0 -0.646484,-0.96653 z" id="path947" inkscape:connector-curvature="0" visibility="visible" font-variant-ligatures="normal" letter-spacing="0" text-align="start" font-variant-caps="normal" shape-rendering="auto" mix-blend-mode="normal" isolation="auto" color-interpolation-filters="linearRGB" stroke-dasharray="none" stroke-opacity="1" word-spacing="0" white-space="normal" font-feature-settings="normal" overflow="visible" font-size="0" font-family="sans-serif" text-decoration-line="none" paint-order="normal" opacity="1" fill="url(#radialGradient957)" solid-opacity="1" stroke-miterlimit="4" dominant-baseline="auto" image-rendering="auto" text-decoration-style="solid" fill-opacity="1" text-rendering="auto" font-variant-alternates="normal" solid-color="#000000" font-weight="normal" text-decoration="none" stroke="none" clip-rule="nonzero" font-style="normal" display="inline" line-height="normal" text-decoration-color="#000000" color="#000000" enable-background="accumulate" fill-rule="evenodd" font-variant="normal" stroke-linecap="round" stroke-linejoin="round" text-transform="none" font-variant-numeric="normal" stroke-width="1.434" color-rendering="auto" text-orientation="mixed" vector-effect="none" stroke-dashoffset="0" text-anchor="start" font-variant-position="normal" font-stretch="normal" shape-padding="0" writing-mode="lr-tb" baseline-shift="0" text-indent="0" direction="ltr" color-interpolation="sRGB"/>
    <path d="m 2.7168617,255.11506 c 1.8934466,-12.20561 44.5794983,-9.09032 43.6959233,0.2264 -0.11569,8.14637 -1.817363,16.21315 -9.405137,21.81037 -7.084488,3.47784 -16.678737,3.98867 -25.574443,-0.52827 -5.367106,-5.70167 -8.1825016,-9.98251 -8.7163433,-21.5085 z" id="path937" inkscape:connector-curvature="0" sodipodi:nodetypes="ccccc" stroke-opacity="1" fill="url(#linearGradient945)" stroke="none" stroke-linejoin="miter" fill-opacity="1" stroke-linecap="butt" stroke-width="0.267"/>
    <g id="g935">
     <ellipse ry="6.5" rx="20.952" cy="254.21" cx="24.489" id="path902" opacity="1" stroke-dasharray="none" stroke-opacity="0.981" fill="none" fill-rule="evenodd" stroke="url(#radialGradient910)" stroke-linejoin="round" fill-opacity="1" stroke-linecap="round" stroke-width="1.587" stroke-dashoffset="0" stroke-miterlimit="4"/>
     <ellipse ry="6.075" rx="20.754" cy="254.25" cx="24.527" id="path914" opacity="1" stroke-dasharray="none" stroke-opacity="1" fill="url(#radialGradient922)" fill-rule="evenodd" stroke="none" stroke-linejoin="round" fill-opacity="1" stroke-linecap="round" stroke-width="0.78" stroke-dashoffset="0" stroke-miterlimit="4"/>
     <path sodipodi:nodetypes="ccssccssc" inkscape:connector-curvature="0" id="path924" d="m 14.414464,252.32272 -4.9054467,0.0755 c -0.21336,-0.60747 -1.285628,-1.66258 1.4339017,-2.41499 8.277366,-2.2901 17.027756,-3.0637 25.961128,-0.22641 1.674712,0.5319 1.174722,1.66031 1.4339,2.49046 l -2.943268,0.15094 c -0.160359,-0.79347 0.647758,-1.60303 -1.056558,-2.18858 -6.021863,-2.06894 -12.70748,-3.19733 -20.150061,-0.0755 -1.620057,0.67954 -0.212858,1.53181 0.226404,2.18858 z" stroke-opacity="1" fill="#ffffff" filter="url(#filter926)" stroke="none" stroke-linejoin="miter" fill-opacity="1" stroke-linecap="butt" stroke-width="0.265"/>
    </g>
    <path sodipodi:nodetypes="ccccc" inkscape:connector-curvature="0" id="path963" d="m 4.9054453,267.11454 c 9.9445697,7.42091 31.4484137,7.23772 39.7715667,-0.45282 -1.54959,3.84467 -3.704073,7.30788 -7.669364,10.49011 -7.084488,3.47784 -16.678737,3.98867 -25.574443,-0.52827 -2.2729016,-2.532 -3.9562712,-3.64316 -6.5277597,-9.50902 z" stroke-opacity="1" fill="url(#radialGradient1000)" stroke="none" stroke-linejoin="miter" fill-opacity="1" stroke-linecap="butt" stroke-width="0.267"/>
   </g>
   <path inkscape:connector-curvature="0" id="path987" d="m 13.810064,256.76041 c -0.09909,0.002 -0.199379,0.007 -0.301273,0.015 -3.968509,0.30839 -8.0227353,2.97543 -6.6409382,7.32048 1.6169878,5.0846 6.9793592,8.78464 15.6972342,10.79211 0.986726,0.22721 1.625772,-0.25813 1.43402,-1.05679 -4.125505,-4.17095 -5.396468,-10.05501 -6.566008,-15.99954 -0.962041,-0.50638 -2.136651,-1.10301 -3.623035,-1.07125 z m -0.834572,3.49178 c 1.006311,0.0347 1.958715,0.47688 2.420006,1.5043 l 3.320727,7.39593 c 0.287515,0.64037 -0.267473,1.15994 -1.132231,0.90537 -4.152183,-1.22232 -6.596738,-3.74486 -7.9240622,-6.79235 -0.7237015,-1.66159 1.3944172,-3.07945 3.3155602,-3.01325 z" stroke-opacity="1" fill="#dd0000" stroke="none" stroke-linejoin="miter" fill-opacity="1" stroke-linecap="butt" stroke-width="0.265"/>
   <path sodipodi:nodetypes="cccc" inkscape:connector-curvature="0" id="path1002" d="m 18.338821,270.20873 c 0.04748,0.69038 -0.340088,1.69151 -1.735773,1.13202 -7.3410135,-4.18674 -7.8467893,-6.7484 -7.0185612,-9.96183 0.3895075,5.62705 4.3072372,7.58541 8.7543342,8.82981 z" stroke-opacity="1" fill="#ff5d5d" stroke="none" stroke-linejoin="miter" fill-opacity="1" stroke-linecap="butt" stroke-width="0.265" filter="url(#filter1025)"/>
   <path sodipodi:nodetypes="cccc" inkscape:connector-curvature="0" id="path1004" d="m 23.319735,273.30293 c 0.970152,1.90271 -0.249783,1.34157 -0.754684,1.58484 -9.009025,-2.04688 -11.457935,-4.44828 -14.4144639,-8.15059 4.5628789,2.93015 8.5014249,6.50584 15.1691479,6.56575 z" stroke-opacity="1" fill="url(#linearGradient1012)" stroke="none" stroke-linejoin="miter" fill-opacity="1" stroke-linecap="butt" stroke-width="0.265"/>
   <path sodipodi:nodetypes="cc" inkscape:connector-curvature="0" id="path1014" d="M 7.3204347,263.56751 C 7.2133678,259.439 11.88958,256.018 16.904921,258.813" stroke-dasharray="none" stroke-opacity="1" fill="none" stroke="url(#linearGradient1022)" stroke-linejoin="miter" stroke-linecap="butt" stroke-width="0.556" stroke-miterlimit="4"/>
   <path sodipodi:nodetypes="cccccccccc" inkscape:connector-curvature="0" id="path1024" d="m 18.942568,265.90703 c -0.0571,2.09638 2.794698,5.65667 2.716863,6.18841 -0.145826,1.56552 -1.683509,1.68077 -4.646814,0.0263 -3.179559,-1.05552 -5.543528,-3.0987 -7.6553519,-5.35234 -0.8312493,-1.00625 -0.8151802,-2.04472 -0.9048044,-3.05096 0.3708739,1.55796 0.7161492,2.35767 1.41432,2.9398 2.1515273,2.26432 5.0709743,4.26611 7.5613213,5.09044 1.418528,0.53806 3.005876,0.36544 2.721961,-0.10606 -0.684142,-1.07062 -0.968923,-1.71092 -1.567907,-3.94639 -0.194997,-0.82309 -0.193021,-1.53765 0.360412,-1.78921 z" stroke-opacity="1" fill="#ff4e4e" filter="url(#filter1069)" stroke="none" stroke-linejoin="miter" fill-opacity="1" stroke-linecap="butt" stroke-width="0.265"/>
   <path sodipodi:nodetypes="ccccccc" inkscape:connector-curvature="0" id="path1073" d="m 21.844006,272.71322 c 0.987845,1.3532 2.606627,5.70688 6.918763,6.5341 5.954962,1.85227 12.084021,2.87621 19.164356,0.36915 4.362383,-1.50375 6.926153,-5.16862 8.565255,-7.07395 -1.92823,0.91758 -5.973675,1.20496 -8.355285,1.8921 -6.830873,1.45298 -12.112661,0.66107 -18.457695,-0.12081 -2.458359,-0.28121 -6.523658,-0.72698 -7.835394,-1.60059 z" stroke-opacity="1" fill="url(#linearGradient1081)" stroke="none" stroke-linejoin="miter" fill-opacity="1" stroke-linecap="butt" stroke-width="0.265"/>
  </g>
  <path inkscape:connector-curvature="0" d="m 33.803628,250.01816 c -0.766992,3.3e-4 -0.951784,0.23901 -1.714996,0.26142 -0.763211,0.0223 -1.108928,-0.1983 -1.861009,-0.15399 -0.752079,0.0444 -0.786607,0.2887 -1.52031,0.35451 -0.733705,0.0658 -1.213805,-0.13321 -1.922071,-0.0465 -0.708263,0.0867 -0.576763,0.32669 -1.252766,0.43338 -0.676003,0.10668 -1.284543,-0.0577 -1.921776,0.068 -0.637231,0.12568 -0.344228,0.35435 -0.93655,0.4978 -0.592322,0.14347 -1.294816,0.0156 -1.836527,0.17544 -0.541709,0.15987 -0.11027,0.36607 -0.596147,0.5408 -0.485879,0.17473 -1.265142,0.0914 -1.690513,0.27931 -0.42537,0.18789 0.141892,0.36296 -0.218872,0.56224 -0.360766,0.19927 -1.17925,0.16367 -1.471935,0.3724 -0.292685,0.20874 0.379894,0.34965 0.158108,0.56581 -0.221787,0.21618 -1.043252,0.22609 -1.192001,0.44763 -0.148752,0.22151 0.597277,0.31959 0.522992,0.54436 -0.07429,0.22474 -0.876685,0.28267 -0.875786,0.50848 8.99e-4,0.22582 0.799714,0.28388 0.875786,0.50859 0.07608,0.22469 -0.673508,0.32284 -0.522992,0.54427 0.150513,0.22142 0.980589,0.23168 1.204094,0.4477 0.223507,0.21601 -0.440065,0.35727 -0.145718,0.56581 0.294346,0.20852 1.097195,0.16981 1.459546,0.36883 0.362352,0.19904 -0.1959,0.37821 0.230966,0.56582 0.426866,0.18761 1.203539,0.10136 1.690808,0.27575 0.487269,0.17439 0.05287,0.38487 0.595854,0.54435 0.542981,0.15949 1.243356,0.0288 1.83682,0.17188 0.593464,0.14305 0.310415,0.37248 0.948645,0.49771 0.638231,0.12524 1.244925,-0.0416 1.921776,0.0646 0.67685,0.10622 0.543814,0.34712 1.252766,0.43329 0.708953,0.0862 1.187548,-0.11185 1.921775,-0.0465 0.734226,0.0653 0.768174,0.30715 1.520607,0.35095 0.752427,0.0438 1.097326,-0.17586 1.860713,-0.15399 0.763387,0.0219 0.960393,0.25812 1.727384,0.25786 0.766993,-3.3e-4 0.951785,-0.23546 1.714996,-0.25786 0.763211,-0.0223 1.108931,0.19831 1.861009,0.15399 0.752079,-0.0443 0.774513,-0.28871 1.508217,-0.35451 0.733703,-0.0658 1.225603,0.13322 1.933869,0.0465 0.708264,-0.0867 0.576764,-0.32668 1.252767,-0.43337 0.676004,-0.10668 1.272448,0.0577 1.909679,-0.068 0.637232,-0.12567 0.356324,-0.35434 0.948646,-0.4978 0.592324,-0.14346 1.295111,-0.0156 1.836821,-0.17543 0.541709,-0.15987 0.109972,-0.36607 0.595851,-0.54081 0.485884,-0.17473 1.253053,-0.0914 1.678419,-0.2793 0.425372,-0.18791 -0.129501,-0.36653 0.231266,-0.56581 0.36076,-0.19927 1.16686,-0.1601 1.459546,-0.36884 0.292679,-0.20873 -0.367799,-0.34964 -0.146015,-0.5658 0.221784,-0.21619 1.04325,-0.22609 1.191999,-0.44763 0.148754,-0.22153 -0.597278,-0.32316 -0.522993,-0.54793 0.07428,-0.22474 0.864592,-0.2791 0.863696,-0.50493 -0.0011,-0.22581 -0.799718,-0.28386 -0.875791,-0.50857 -0.07608,-0.22471 0.673511,-0.3264 0.522997,-0.54783 -0.150517,-0.22143 -0.968495,-0.22811 -1.192003,-0.44414 -0.223504,-0.21601 0.440361,-0.36084 0.146014,-0.56937 -0.294347,-0.20853 -1.109584,-0.16981 -1.471938,-0.36885 -0.362348,-0.19903 0.195904,-0.37463 -0.230964,-0.56225 -0.426867,-0.18761 -1.191148,-0.10492 -1.678418,-0.27929 -0.487271,-0.1744 -0.06527,-0.38124 -0.608243,-0.54073 -0.542983,-0.15949 -1.243356,-0.0325 -1.836821,-0.17552 -0.593464,-0.14305 -0.298319,-0.36891 -0.936553,-0.49415 -0.638228,-0.12524 -1.244922,0.0418 -1.921772,-0.0645 -0.676851,-0.10621 -0.543816,-0.34719 -1.252768,-0.43337 -0.708954,-0.0862 -1.19964,0.11185 -1.933869,0.0465 -0.734226,-0.0653 -0.76788,-0.31071 -1.52031,-0.35451 -0.752431,-0.0439 -1.085528,0.17941 -1.848915,0.15755 -0.763388,-0.0219 -0.960098,-0.26168 -1.72709,-0.26142 z m -2.262473,0.66256 -0.0121,0.0859 c -0.898541,-0.0649 -1.441015,0.075 -1.617654,0.20052 -0.238984,0.16979 -0.397453,0.3375 0.316215,0.47627 l -0.328605,0.0359 c -0.596838,-0.25684 -1.518617,-0.37543 -2.456856,-0.48348 1.265513,-0.14632 2.586105,-0.26639 4.098998,-0.31508 z m 5.132893,0.025 c 0.689416,0.0193 1.371902,0.0577 2.019117,0.13964 -0.173991,0.17871 -0.639574,0.40455 0.425651,0.38683 l 0.243357,0.11099 -0.364888,0.0108 c -0.671244,-0.18091 -0.796442,-0.0182 -1.082563,0.0429 l -0.425653,-0.34018 c -0.149634,-0.14271 -0.581438,-0.0876 -0.924457,-0.10023 z m -2.560989,0.0742 0.779033,0.30581 c 0.781583,-0.18217 3.189246,-0.0578 1.644202,0.49685 1.058151,0.20865 0.760398,0.87247 -1.08168,0.59872 0.312387,0.45853 -1.636741,0.66503 -1.990503,0.1657 -0.737741,0.34586 -2.649524,0.17149 -1.341557,-0.28034 -1.415626,0.13932 -2.578268,-0.28312 -0.562521,-0.59882 -0.956724,-0.0361 -1.810259,-0.75633 1.038616,-0.47132 z m 5.370644,0.14782 0.474323,0.0609 c -0.16949,0.0676 -0.280239,0.13796 -0.206779,0.21843 l -0.158108,0.0609 -0.206777,-0.0752 c 0.236726,-0.0849 0.159566,-0.17527 0.09734,-0.26497 z m -5.455008,0.11185 -1.089349,0.15581 c -2.0494,-0.20503 -1.435417,0.31322 -0.747176,0.33915 -1.450074,0.22709 -0.613654,0.5309 0.404708,0.43067 -0.940916,0.32504 0.434161,0.45046 0.964869,0.20167 0.254487,0.3592 1.656836,0.21069 1.432113,-0.11916 1.325139,0.19692 1.539352,-0.28067 0.778149,-0.43077 1.111463,-0.39899 -0.620609,-0.48841 -1.182858,-0.35738 z m 6.853789,0.0744 3.247695,0.6088 -0.401463,0.32942 c -1.23149,-0.22197 -2.46756,-0.30587 -3.709629,-0.30076 0.06938,-0.16559 -0.206548,-0.18234 -0.425948,-0.22207 l -0.03629,-0.086 0.364888,0.0324 c 0.15231,0.1022 0.257688,0.21428 0.753962,0.22555 0.276241,0.0152 0.508189,0.0221 0.729771,0 0.115306,-0.022 0.243775,-0.0416 0.158107,-0.111 -0.347524,-0.14217 -0.646742,-0.32467 -1.374296,-0.17543 l -0.401464,-0.0609 0.08525,-0.0395 c 0.622613,0.0275 0.940692,-0.0463 1.009413,-0.20052 z m -14.291631,0.004 0.170202,0.0824 -0.535089,-0.025 z m 0.437746,0.0179 c 0.344526,0.0118 0.553685,0.006 0.997317,0.068 l 0.194684,0.19698 c -0.295621,-0.0584 -0.590027,-0.1192 -0.936551,-0.12897 z m 1.374592,0.11465 c 0.419328,0.0609 0.828507,0.12757 1.106753,0.26141 l 0.06077,0.11098 c -0.311433,-0.073 -0.568052,-0.16982 -1.009411,-0.18619 z m -2.809949,0.0107 1.033893,0.0681 c -0.421319,0.038 -0.441032,0.0822 -0.535088,0.12531 z m -0.389075,0.0824 1.09466,0.4154 c -0.791605,0.0344 -0.793833,0.13945 -0.936553,0.23275 -0.634592,0.0881 -1.272045,0.17112 -1.982539,0.20775 l 0.316215,-0.15399 c 1.075951,-0.1202 0.751033,-0.28683 0.583759,-0.45126 -0.440423,0.11175 -1.310204,0.17006 -0.81502,0.39039 l -0.826822,0.25783 -1.228578,0.0715 c 0.966125,-0.30062 1.736398,-0.58948 3.794878,-0.97044 z m 1.90968,0.0501 0.912069,0.10031 c -0.478606,0.0268 -0.737132,0.11795 -0.972835,0.21122 l -0.69349,-0.17543 c 0.192467,-0.0781 0.4847,-0.12319 0.754256,-0.1361 z m 12.26042,0.043 v 0.0788 c -0.623723,0.10829 -0.475749,0.2099 -0.413557,0.31152 l -1.192002,0.23285 c 0.119461,-0.16122 0.03279,-0.29335 -0.5109,-0.36529 0.198475,-0.0138 0.392024,-0.0309 0.571664,-0.10744 0.743142,0.14688 1.035019,0.0441 1.192002,-0.12531 z m -10.557518,0.15755 0.669007,0.14328 c -0.799227,0.0929 -1.528762,0.13915 -2.031505,0.0215 l 0.790833,-0.14686 c 0.154634,0.0164 0.3204,0.0271 0.571665,-0.0178 z m 0.887881,0.30439 c 0.04469,0.18152 0.05346,0.36942 1.14333,0.36885 -0.08973,0.13166 0.03302,0.22786 0.389074,0.29006 -0.183449,-0.006 -0.33587,-0.0292 -0.607947,0.0108 -0.04924,0.24245 0.10904,0.43663 1.179613,0.41896 l 0.778444,0.16119 -2.785171,0.068 c -0.537918,-0.25426 -1.428225,-0.18795 -2.323239,-0.111 -0.0408,-0.26707 0.149869,-0.53851 -0.498806,-0.79144 -0.290429,-0.10608 -0.617323,-0.10442 -0.997318,0.043 -0.591895,-0.13508 -1.083203,-0.0954 -1.508216,0.0394 l -0.596148,-0.1003 c 0.629218,-0.0625 1.216511,-0.13516 1.678714,-0.22564 0.794694,0.0976 1.118996,-0.0259 1.447451,-0.14677 1.074598,0.20691 1.904683,0.11213 2.700219,-0.0251 z m 15.082169,0.007 0.316507,0.0788 -0.304118,0.0144 z m -4.557395,0.0677 c 0.07567,-6.7e-4 0.151452,-6.7e-4 0.227429,3.5e-4 0.688839,0.008 1.401402,0.086 2.128554,0.21841 -1.013026,0.14879 -1.710883,0.34281 -1.970448,0.59448 -1.23767,0.011 -2.012853,0.18207 -2.797561,0.35094 -0.57977,-0.5193 -0.03447,-0.79963 0.863692,-1.00629 0.497762,-0.10371 1.018695,-0.15228 1.548334,-0.1578 z m 4.485423,0.25777 c 0.08771,-6.8e-4 0.17649,-6.8e-4 0.266655,3.4e-4 0.332912,0.004 0.676137,0.02 1.04599,0.0501 0.303086,0.0879 0.600721,0.1775 0.778445,0.29008 -0.877367,0.26276 -1.457389,0.54487 -1.362205,0.87742 -1.009433,-0.41876 -2.321878,-0.65869 -3.989563,-0.68757 0.901121,-0.30808 1.945038,-0.51857 3.260678,-0.53039 z m -21.310903,0.097 c 0.33932,0.0848 0.706178,0.16993 1.107048,0.15397 0.104712,0.0731 0.172426,0.15095 0.535087,0.17909 -0.356531,0.0576 -0.457657,0.17189 -0.571665,0.28294 -0.168274,-0.30744 -0.791668,-0.31106 -1.496123,-0.2614 l -1.09466,-0.25475 c 0.479339,-0.0206 0.949519,-0.0324 1.520313,-0.10031 z m 12.455103,0.0216 0.997612,0.0859 c -0.166244,0.12674 -0.271603,0.25788 -0.194686,0.3975 l -0.389369,0.0324 -0.96074,-0.12539 c 0.833802,-0.0765 0.449668,-0.25316 0.547183,-0.39031 z m -9.462858,0.0859 0.06077,0.0465 c -0.53389,0.0882 -0.868976,0.19962 -1.228579,0.30805 l -0.121531,-0.0395 c 0.33984,-0.1235 0.801727,-0.22106 1.289345,-0.31517 z m -5.072127,0.007 c 0.104177,1.2e-4 0.19645,0.01 0.292026,0.0214 l 1.325625,0.2794 c -0.04461,0.0841 -0.04812,0.16078 0.170498,0.2112 -0.317388,-0.0296 -0.293931,0.0167 -0.243356,0.068 0.03982,0.03 0.08734,0.0597 0.218873,0.0537 0.09516,0.0905 0.146968,0.17432 0.158108,0.25073 -0.0098,0.0371 -0.0472,0.0659 -0.218873,0.0501 l -0.729773,-0.16833 c -0.06685,-0.10795 -0.28641,-0.12779 -0.401464,-0.086 -0.09135,0.0332 -0.18637,0.0921 0.267545,0.1182 l 0.790832,0.22564 0.413558,0.11098 -2.250378,-0.068 c -0.776869,-0.0305 -1.574917,-0.0187 -2.420287,0.0896 0.533058,-0.39599 1.285532,-0.77061 2.286662,-1.12094 0.123723,-0.0257 0.236226,-0.036 0.340404,-0.0358 z m 5.59512,0.10387 0.06077,0.0428 c -0.608913,0.0513 -0.376713,0.0299 -0.83921,0.11107 l -0.121531,-0.0359 c 0.520753,-0.10711 0.541547,-0.0833 0.899975,-0.11812 z m 6.349082,0.0358 c 0.266278,0.0827 0.161465,0.32662 0.936552,0.18264 0.282232,0.0656 0.575394,0.12153 0.912364,0.0537 l 0.644526,0.0896 -2.286662,0.1863 c -0.162066,0.004 -0.3215,0.0145 -0.449838,-0.007 l -1.033895,-0.18619 c 0.132585,-0.0464 0.129865,-0.0986 0.04867,-0.15755 0.512837,0.0603 0.920553,0.009 1.228283,-0.16119 z m -6.215163,0.10386 0.03629,0.0574 c -0.501457,0.0183 -0.955238,0.0726 -1.374298,0.14676 l -0.121825,-0.0322 c 0.470718,-0.0979 0.969479,-0.12562 1.459839,-0.17187 z m 0.01209,0.13965 c 0.217402,0.0541 0.221652,0.0953 0.07287,0.12533 -0.377317,-0.004 -0.757815,-0.004 -1.082565,0.0394 -0.20055,0.0147 -0.116521,-0.0143 -0.07287,-0.0394 0.582078,-0.10583 0.814515,-0.11083 1.082565,-0.12533 z m -1.678418,0.12889 c -0.132921,0.15393 -0.480356,0.2311 -0.961034,0.26142 0.175494,-0.12746 0.407503,-0.2389 0.961034,-0.26142 z m 11.372539,0.0251 0.437745,0.40106 c -0.344311,-0.0213 -0.664128,-0.0357 -0.924457,-0.0107 l 0.328604,-0.37606 z m 4.232624,0.0109 c 2.653166,0.17203 5.006301,0.40647 3.649154,1.41813 -3.405982,-0.11017 -3.979696,-0.689 -3.649154,-1.41813 z m -17.734011,0.0107 c 0.413537,0.0744 0.75886,0.0393 1.107048,0.0144 -0.295706,0.16908 -0.521714,0.33668 -0.64482,0.50849 l -0.267544,-0.1611 c -0.0106,-0.12276 -0.09435,-0.22326 -0.194684,-0.32229 z m 3.527332,0.0179 c 0.130895,3.9e-4 0.261895,0.007 0.401464,0.0251 l -0.121531,0.20774 c -0.362584,-0.0461 -0.718701,-0.0764 -1.070471,-0.0143 l -0.863396,0.086 c 0.167405,-0.0918 0.382436,0.007 0.510604,-0.24717 0.387355,-0.002 0.750649,-0.0585 1.14333,-0.0572 z m 13.379562,0.007 c -0.283399,0.4676 0.07785,0.87032 1.179908,1.19607 -1.414567,-0.0979 -2.851977,-0.0623 -4.293682,0.15763 -0.139799,-0.64929 0.795584,-1.11622 3.113774,-1.3537 z m -4.037937,0.0144 -0.194686,0.34738 c -2.677476,0.15315 -2.813868,0.70094 -2.809655,1.27128 -1.048283,0.10111 -1.693645,0.28937 -1.702901,0.61592 l -1.240674,0.22564 -0.206779,-0.31517 0.474325,-0.3474 c 0.480971,-0.0389 0.425547,-0.12031 0.243356,-0.21486 -0.439701,0.0148 -0.713385,0.0596 -0.498807,0.19341 l -0.462228,0.22207 -0.790539,-0.38317 0.279638,-0.25429 c 0.515634,-0.0933 0.261387,-0.16037 0.121826,-0.2292 -0.426607,0.0198 -0.594635,0.0738 -0.328605,0.18621 l -0.206778,0.21841 -0.863398,-0.27573 -0.02448,-0.21842 c 0.411465,-0.0793 0.14839,-0.13209 -0.07287,-0.1862 -0.462191,0.042 -0.391065,0.11799 -0.218873,0.19697 0,0 0.01521,0.0904 0.01209,0.10744 -0.0031,0.017 -1.240672,-0.25075 -1.240671,-0.25075 0.587737,-0.12119 1.114979,-0.26695 1.131235,-0.59447 0.732862,0.0336 1.413903,0.15042 2.274567,-0.0428 l 1.678419,0.0142 -0.46223,0.15042 c -1.218415,-0.11653 -1.908544,0.0852 -2.493438,0.3474 0.921565,0.01 1.965423,0.1629 2.530016,-0.25066 l 1.070176,-0.26141 1.824727,-0.0896 -0.875787,0.31872 c -1.138384,-0.0114 -1.648124,0.17063 -1.556887,0.53359 1.04156,0.004 1.95392,-0.0391 1.763667,-0.45847 l 1.240672,-0.44761 z m -11.251009,0.2614 c -0.160427,0.1034 -0.414658,0.19195 -0.875787,0.2543 0.127611,-0.15681 0.376618,-0.25768 0.875787,-0.2543 z m 1.276954,0.004 0.83921,0.0109 -0.06077,0.0323 -0.814727,0.004 z m -0.535089,0.0788 0.170203,0.15042 -1.386391,0.0287 z m 0.535089,0.0143 0.863693,0.0251 -0.13392,0.14677 c -0.269794,-0.0523 -0.527314,-0.0384 -0.778444,-0.0286 z m -6.008678,0.17909 0.07315,0.0393 c -0.564034,0.0194 -1.003553,0.0765 -1.423264,0.1433 l -0.04837,-0.0323 c 0.43851,-0.0737 0.906626,-0.12303 1.398485,-0.15041 z m 1.033893,0.0143 0.729773,0.0214 -0.32831,0.13608 -0.741867,-0.0144 z m 14.814919,0.004 0.753961,0.007 c -0.635252,0.36204 -0.384726,0.62248 -0.19439,0.89176 -0.597691,0.11767 -0.755606,0.20703 -1.033894,0.3044 -0.388945,-0.14792 -1.035525,-0.1608 -1.65423,-0.18986 -0.307441,-0.35427 0.06244,-0.55767 0.547181,-0.73767 -0.225076,0.13617 -0.319327,0.29182 -0.24306,0.46914 1.039552,-0.1079 1.832304,-0.27741 1.666324,-0.66611 z m -10.022429,0.007 0.669008,0.0538 -0.255451,0.0967 c -0.03974,-0.0885 -0.249653,-0.1108 -0.413557,-0.15042 z m -3.51524,0.018 0.790539,0.0214 -0.09734,0.043 -0.693196,0.0896 -0.389075,-0.0216 z m 2.609956,0.0276 c 0.04673,4e-5 0.09309,3.5e-4 0.138934,9e-4 0.305618,0.004 0.593291,0.0324 0.827114,0.14687 -0.595163,0.0469 -1.00141,-0.0375 -1.386686,-0.13965 0.09336,-9e-4 0.185876,-0.006 0.279934,-0.007 0.04704,-6.8e-4 0.09398,-9e-4 0.140704,-9e-4 z m -5.62639,0.1084 0.09734,0.0395 -0.693489,0.18265 -0.133626,-0.0501 z m 0.912069,0.004 0.08525,0.0393 c -0.564033,0.0194 -0.784384,0.20189 -1.204095,0.26861 l -0.09734,-0.0394 c 0.43851,-0.0738 0.72433,-0.24115 1.216188,-0.26853 z m 2.761279,0.025 c -0.163661,0.10214 -0.389293,0.21131 -0.802927,0.33662 -0.356149,0.0384 -0.41099,-0.0184 -0.376981,-0.10022 0.320873,-0.0969 0.742138,-0.16836 1.179908,-0.2364 z m 1.167518,0.018 c 0.428539,0.0982 0.822998,0.22382 1.423264,0.17899 0.05521,0.10065 0.120053,0.19776 0.802632,0.13254 l 0.899974,0.17542 -0.705291,0.0109 c -0.346092,-0.0756 -0.527018,-0.0252 -0.632429,0.0823 0.184079,0.0807 0.390054,0.0858 0.632429,0.0144 l 1.058084,0.004 0.778444,0.2542 -0.705291,-0.007 c -0.306877,-0.0783 -0.57922,-0.0864 -0.778443,0.0788 0.191234,0.0627 0.36823,0.14204 0.766055,0.043 l 1.070471,0.025 0.535087,0.30804 -0.790537,-0.018 c -0.268508,-0.0712 -0.501587,-0.074 -0.681102,0.0359 0.183468,0.0666 0.367611,0.13249 0.669008,0.043 l 0.851303,0.0215 0.206779,0.44049 -0.790538,-0.11099 c -0.20645,-0.14522 -0.446308,-0.0978 -0.693196,-0.0216 0.06468,0.0909 0.192398,0.15991 0.644524,0.11463 l 0.766351,0.13965 -0.279933,0.37597 -0.693196,-0.16831 c -0.199121,-0.0728 -0.380712,-0.16734 -0.827115,-0.0178 0.102848,0.0733 0.139116,0.1705 0.583759,0.12896 l 0.839504,0.179 -0.194685,0.12176 c -0.743369,0.015 -1.211234,0.10264 -1.544793,0.20418 -0.433938,-0.31 -1.079112,-0.31325 -1.714997,-0.3295 0.126702,-0.15543 -0.175995,-0.21331 -0.450135,-0.2793 l 0.02448,-0.13609 0.474322,0.0143 c 0.374764,0.39964 1.137105,0.19817 1.836526,0.0967 -0.510117,-0.19403 -1.003307,-0.42923 -1.775762,-0.15755 l -0.462229,-0.0359 0.243357,-0.12177 c 1.501692,0.0452 0.96462,-0.30136 1.118847,-0.51562 -0.722956,0.10807 -1.790268,0.14982 -1.228283,0.49061 l -0.304122,0.0859 -0.279637,-0.12888 c 0.574037,-0.26459 -0.168707,-0.34253 -0.875787,-0.42616 l 0.158108,-0.0393 c -1.28441,-0.25302 -2.568955,-0.0634 -2.568955,-0.0634 0,0 0.630339,-0.26891 0.160469,-0.49173 2.071068,0.0733 2.067295,-0.27015 2.067787,-0.61593 l 0.681101,0.22199 c 0.05983,0.005 0.128666,0.0232 0.170498,-0.0322 l -0.462226,-0.28927 z m -3.454179,0.0286 1.192001,0.0287 c -0.578483,0.12608 -1.140808,0.25242 -1.301733,0.41183 l -0.522993,-0.0178 c 0.411724,-0.13793 0.590201,-0.27883 0.632725,-0.4226 z m 2.48105,0.0395 c 0.242334,0.16799 0.04433,0.31406 -0.291732,0.45482 -0.27147,-0.16658 -0.203627,-0.31856 0.291732,-0.45482 z m -2.906997,0.0214 c -0.05664,0.0993 -0.156804,0.19695 -0.486417,0.28294 l -0.304121,-0.0144 c 0.257109,-0.17434 0.524628,-0.20655 0.790538,-0.26862 z m -2.189318,0.061 c 0.618987,0.21058 1.418194,0.31797 2.165129,0.45473 l -0.620336,0.27931 c -0.607023,-0.21522 -1.294804,-0.23009 -2.007022,-0.20401 -0.03043,-0.19542 0.159666,-0.3671 0.462229,-0.53003 z m 3.308461,0.16823 0.08525,0.0287 c -0.320574,0.0242 -0.428427,0.1052 -0.547477,0.1862 l -0.08525,-0.0465 c 0.137356,-0.12729 0.339122,-0.14896 0.547478,-0.16832 z m 1.009411,0.0465 0.121825,0.17909 -0.340698,0.0788 z m -0.644526,0.004 c 0.275059,0.0765 0.228474,0.1681 -0.18259,0.2793 -0.11355,-0.11002 -0.154225,-0.21237 0.18259,-0.2793 z m 17.612186,0.22919 c 0.09833,-9e-4 0.195493,-6.6e-4 0.292027,0 1.287117,0.0119 2.414942,0.20528 3.454474,0.50129 -2.068237,0.42594 -4.06782,0.39961 -5.960008,-0.30796 0.788653,-0.1234 1.525182,-0.18502 2.213507,-0.19333 z m -18.541952,0.12202 c 0.809666,-3.3e-4 0.467351,0.65386 0.04779,0.71563 1.060627,-0.15472 1.864863,-0.18368 2.466596,-0.10196 -0.291792,0.10274 -1.334651,0.15971 -2.077227,0.22928 0.94273,0.10716 1.545825,0.25414 1.687858,0.39498 -0.825416,0.10643 -1.384985,-0.13564 -1.990504,-0.19106 0.434068,0.2864 0.516716,0.63892 0.259579,0.68792 -0.684512,-0.0344 -0.945351,-0.29266 -1.168403,-0.59874 -0.233141,0.26686 -0.801855,0.56232 -1.601135,0.66248 -0.24994,-0.27218 0.480831,-0.54742 1.038614,-0.75166 -0.461569,-0.0203 -1.485573,0.0183 -1.947142,-0.16562 0.350309,-0.12194 1.354882,-0.0512 2.163654,-0.0381 -0.651803,-0.20809 -1.662565,-0.50537 -1.644495,-0.71346 0.915453,-0.0672 1.617571,0.4122 2.120293,0.49685 -0.232486,-0.31628 -0.102291,-0.5842 0.562522,-0.62426 0.02855,-9e-4 0.05588,-0.002 0.082,-0.002 z m -3.315245,0.1573 c 0.08333,0.21484 0.480422,0.3439 0.875786,0.47625 -0.417144,-0.0223 -0.697743,0.0286 -1.009411,0.0681 -0.0074,-0.17336 -0.01269,-0.34706 0.133625,-0.54435 z m 19.096215,0.0465 c 0.752983,0.39453 1.816619,0.6046 3.053009,0.71623 -1.302502,0.0848 -2.587088,0.19949 -3.576004,0.72691 -0.282336,-0.0717 -0.407307,-0.16918 -0.535088,-0.26497 0.92596,-0.31431 0.961427,-0.63775 0.376981,-0.96687 0.160119,-0.0875 0.37393,-0.16244 0.681102,-0.2113 z m -12.966007,0.49059 c -0.04004,0.19168 -0.162005,0.40041 1.021801,0.37606 l 0.292027,0.15042 -0.09734,0.0286 h -0.38937 c -0.243082,-0.15889 -0.650054,-0.13992 -1.118847,-0.0609 -0.01418,-0.1659 -0.412799,-0.23176 -0.76635,-0.30795 0.456634,-0.0285 0.738495,-0.11274 1.058081,-0.18621 z m 7.61424,0.20054 c 0.03458,0.11163 0.07412,0.21804 0.364886,0.29362 -0.241731,-6.6e-4 -0.371762,0.0326 -0.437745,0.0824 l -1.22858,0.15043 c 0.02895,-0.0951 0.05508,-0.18827 0.08525,-0.29008 z m -13.951228,0.21843 c 0.269297,0.0298 0.460368,0.0787 0.997318,0.0538 -0.423269,0.26669 -0.396369,0.52918 0.03657,0.79144 0.129099,-0.0168 0.255413,-0.0389 0.389371,-0.0824 0.06529,0.19075 0.03163,0.41325 0.875492,0.36529 l 0.328604,0.0716 -0.02448,0.0287 -0.486417,0.0251 c -0.44807,-0.18017 -0.895129,-0.0927 -1.338016,0.0286 -0.442564,-0.42012 -0.640868,-0.84894 -0.778444,-1.28205 z m 23.037106,0.007 c 0.09392,1.4e-4 0.187096,0.002 0.279932,0.004 0.778048,0.0128 1.58858,0.0856 2.420287,0.20418 -1.633346,0.59886 -3.493343,1.01657 -6.483003,0.50494 1.051022,-0.46896 2.229271,-0.68006 3.503146,-0.70912 0.09099,-0.002 0.185716,-0.004 0.279638,-0.004 z m -15.422867,0.1862 0.04867,0.0143 -0.03657,0.13609 c -0.61389,0.0528 -0.849115,0.16305 -0.547183,0.36172 -0.600971,0.13646 -0.883445,0.31069 -0.851598,0.51561 -0.631216,-0.0494 -1.224144,-0.0341 -1.763666,0.0931 -0.255923,-0.1063 -0.558948,-0.17406 -1.106755,-0.025 l -0.279932,-0.0502 -0.02419,-0.025 0.182589,-0.0788 c 0.958265,0.0106 0.847589,-0.18486 0.753962,-0.37605 l 0.316215,0.0287 c 0.138697,-0.17594 0.205307,-0.35261 0.02448,-0.5336 0.55383,0.0801 1.062743,0.0558 1.5445,-0.0109 0.503662,0.27272 1.317063,0.13658 1.41117,-0.0393 z m 6.957324,0.0287 c 0.160618,0.0469 0.275045,0.102 0.547478,0.12532 -0.27531,0.7821 0.788594,1.29575 3.660959,1.43959 -0.656898,0.31185 -0.752484,0.66904 0.364885,1.12451 l -1.422967,0.16474 -0.02448,0.007 c -0.0083,-0.002 -0.01604,-0.002 -0.02419,-0.004 -0.48019,0.021 0.08191,-0.22478 -0.900271,-0.67324 -0.567711,0.18112 -1.25634,0.34941 -1.082268,0.59447 l -1.131238,-0.18264 -0.498804,-0.23996 c 0.638526,-0.13193 1.101757,-0.30163 1.009705,-0.58726 -0.02178,-0.38236 -0.818801,-0.55621 -2.128554,-0.59804 0.572929,-0.30272 0.02148,-0.46229 -0.766349,-0.59091 l 0.37698,-0.32951 1.362202,-0.19695 c 0.305853,0.0589 0.488527,0.0107 0.656915,-0.0537 z m 3.138261,0.16476 c 0.08745,0.14165 0.366677,0.24446 0.705289,0.33661 -0.231283,0.27407 -0.324723,0.55072 0.04868,0.83436 -1.376678,-0.21603 -3.192149,-0.4041 -2.481345,-1.11009 0.559072,0.0545 1.143819,0.0187 1.727385,-0.0609 z m -15.216383,0.007 c 0.201735,0.18847 0.635071,0.28103 1.155719,0.34383 -0.371097,0.0908 -1.205426,0.0948 -0.608242,0.36163 l -0.182592,0.0609 -0.158107,0.004 -0.158107,-0.068 c 0.443958,-0.32455 -0.469306,-0.28986 -0.899975,-0.38318 0.356879,-0.0984 0.640254,-0.2034 0.851304,-0.31872 z m 5.862665,0.37961 c 0.392032,0.002 0.800382,0.0661 1.179907,0.20775 l -0.498805,0.1432 c -0.722086,-0.152 -1.13764,-0.0693 -1.471639,0.0823 l -0.693197,-0.025 c 0.234083,-0.24551 0.830347,-0.41208 1.483734,-0.40827 z m 3.369226,0.12533 c 0.115303,9e-4 0.21735,0.007 0.316215,0.0179 0.473028,0.14725 0.639572,0.30133 0.340699,0.46558 -0.365842,-0.0288 -0.625338,0.0424 -0.887881,0.10744 -0.10966,-0.0875 -0.175033,-0.18557 -0.790834,-0.13253 0.06253,-0.0952 0.10479,-0.19152 -0.267544,-0.30076 0.187853,-0.0845 0.789698,-0.1619 1.289345,-0.15762 z m 7.249352,0.007 c 1.508542,0.46512 3.074254,0.31033 4.634087,0.16467 -1.691158,0.32493 -2.005949,0.7245 -2.031212,1.13883 -2.365518,-0.2945 -2.730269,-0.77786 -2.602875,-1.3035 z m 8.149326,0.11456 c -0.869109,0.84587 -2.61409,1.16268 -4.816678,1.20683 0.260506,-0.89959 2.254296,-1.15751 4.816678,-1.20683 z m -17.247298,0.13965 c 0.280427,0.0622 0.394756,0.16236 0.425652,0.27938 -0.203918,0.0259 -0.465766,0.0344 -0.608242,0.13966 -0.06866,-0.0657 -0.10383,-0.12057 -0.486417,-0.16832 0.05414,-0.11131 0.345443,-0.19057 0.669007,-0.25072 z m -1.423264,0.018 c 0.209534,9e-4 0.299543,0.0595 0.376981,0.12176 -0.287372,-0.076 -0.587647,-0.0425 -0.70529,0.0608 -0.08038,-0.072 -0.09801,-0.14833 0.170201,-0.17543 0.0631,-0.006 0.109755,-0.007 0.158108,-0.007 z m 20.701774,0.0645 c 2.058455,0.61116 1.178737,1.16914 -0.522999,1.71176 -1.773527,-0.68405 -1.113597,-1.22662 0.522999,-1.71176 z m -26.576533,0.025 0.08525,0.0287 -0.09734,0.10387 c -1.036446,0.15013 -0.140064,0.2956 -0.04867,0.44405 0.35168,-0.12163 1.210006,-0.16971 0.401168,-0.45118 l -0.02419,-0.086 0.06077,-0.0214 0.328309,0.0645 c -0.02517,0.13448 0.126149,0.22413 0.669008,0.22919 -0.09521,0.19152 0.06237,0.35643 0.498806,0.4906 -0.797199,0.14155 -1.178962,0.34604 -1.033895,0.62669 -0.875315,-0.38578 -1.739425,-0.77502 -2.359519,-1.22828 0.413254,-0.005 0.936464,0.0829 1.070175,-0.15764 z m 3.004339,0.0825 c 0.213419,0.002 0.430607,0.0205 0.63243,0.0574 -0.120388,0.1057 0.100046,0.18378 0.304122,0.26497 -0.303414,0.0267 -0.640284,0.0414 -0.498806,0.22563 -0.318826,-0.0243 -0.640428,-0.0417 -1.033894,0.0609 -0.338123,-0.0744 -0.721879,-0.33944 -0.376981,-0.46915 0.265236,-0.0997 0.617431,-0.14324 0.973129,-0.13964 z m 1.544794,0.025 c 0.0318,-1.4e-4 0.0652,-6.8e-4 0.09705,0 0.222903,0.005 0.447329,0.0308 0.669008,0.0716 -0.05039,0.0637 -0.189918,0.13642 0.01238,0.23274 -0.220025,-0.0229 -0.384143,-0.0479 -0.742162,0.0143 -0.271636,-0.0791 -0.320098,-0.1956 -0.291731,-0.30796 0.08416,-0.007 0.17065,-0.0105 0.25545,-0.0109 z m 1.386392,0.086 c 0.393169,0.0579 0.72299,0.14224 0.887879,0.29007 -0.253068,-0.0939 -0.513116,-0.16796 -0.802632,-0.20774 -0.175126,0.0774 -0.31362,0.17462 -0.364886,0.30084 -0.01954,-0.12534 -0.109601,-0.2493 0.279639,-0.38317 z m 2.286661,0.10387 c 0.129937,0.12364 0.139173,0.25298 -0.109438,0.39029 0.0554,-0.11878 0.05399,-0.226 -0.04867,-0.31507 -0.310856,0.0163 -0.640142,0.056 -0.985222,0.13244 0.293982,-0.0908 0.545722,-0.19784 1.14333,-0.20766 z m 16.493335,0.0214 c -0.813835,0.51707 -0.809997,1.0155 0.729776,1.47902 -3.183356,0.43179 -4.625484,0.0454 -5.595124,-0.56225 1.828408,-0.0436 3.488339,-0.30259 4.865348,-0.91677 z m -15.398971,0.006 c 0.02393,1.3e-4 0.04804,3.9e-4 0.07345,6.7e-4 0.02903,1.9e-4 0.06811,-6.7e-4 0.09734,0 0.14029,0.004 0.275772,0.0132 0.413558,0.025 0.0275,0.10306 -0.14838,0.19505 -0.425652,0.27939 -0.201259,-0.0277 -0.404333,-0.0813 -0.766349,-0.043 0.121526,-0.0586 0.241418,-0.10241 0.109436,-0.21841 0.130886,-0.0254 0.276356,-0.0385 0.425651,-0.043 0.02488,-6.8e-4 0.04863,-6.8e-4 0.07256,-6.8e-4 z m 1.314123,0.007 c 1.353584,0.0763 1.74144,0.57166 0.510898,0.79857 l -0.425946,-0.19332 c 0.614157,-0.10308 0.576642,-0.3602 -0.206778,-0.37605 z m -5.923433,0.23641 c 0.21933,9e-4 0.445507,0.0185 0.681102,0.0537 -0.404457,-0.0139 -0.770024,-0.0104 -1.07047,0.0216 0.06133,0.0912 0.208086,0.18636 0.474322,0.28643 -0.314325,-0.0847 -0.684622,-0.15369 -0.729772,-0.32941 0.208645,-0.0203 0.425488,-0.0339 0.644818,-0.0323 z m 5.643498,0.11098 c 0.141738,0.002 0.260748,0.0211 0.304123,0.0716 0.08707,0.10157 -0.158098,0.12876 -0.425653,0.15033 0.281428,-0.078 0.193571,-0.16809 -0.146014,-0.21121 0.09389,-0.006 0.182502,-0.0121 0.267544,-0.0109 z m -6.555861,0.0645 c 0.08294,0.0607 0.108827,0.14151 0.462229,0.1862 -0.224683,0.0186 -0.3995,0.0247 -0.571665,0.13609 -0.37657,-0.0188 -0.65554,-0.10371 -0.851305,-0.20053 0.218583,-0.0809 0.562598,-0.11574 0.960741,-0.12176 z m 5.108409,0.007 c 0.03043,8e-5 0.0545,0.003 0.08525,0.004 0.191353,0.004 0.395014,0.0233 0.608243,0.068 -0.160996,0.12042 -0.42683,0.2215 -0.912364,0.28295 0.295372,-0.0826 0.523519,-0.16586 0.63243,-0.2543 -0.277177,-0.0445 -0.614437,-0.0749 -1.045988,-0.0788 0.207874,-0.008 0.419485,-0.0221 0.63243,-0.0214 z m 8.027797,0.0322 c 0.577944,0.20196 1.201141,0.38406 2.201708,0.4154 -0.253687,-0.0159 0.666722,0.56359 1.337719,0.68756 -2.314265,0.14129 -4.189937,-0.56195 -3.539427,-1.10296 z m -14.705187,0.18976 0.474322,0.1862 c -0.591578,0.11396 -0.505611,0.36714 0.279638,0.36885 l -0.07286,0.22918 c -1.366913,-0.0517 -1.862166,-0.53558 -0.6811,-0.78423 z m 2.66364,0.004 c -0.301329,0.0806 -0.541571,0.16656 -0.656914,0.25429 0.273864,0.0462 0.615118,0.0757 1.046284,0.0823 -0.423476,0.0141 -0.834031,0.0482 -1.313827,-0.0572 0.169754,-0.11938 0.43455,-0.22102 0.924457,-0.27938 z m 4.889538,0.0574 c 0.376691,0.0187 0.643103,0.10739 0.839504,0.2041 -0.218048,0.081 -0.562932,0.11194 -0.961035,0.11819 -0.08333,-0.0607 -0.108533,-0.13814 -0.462229,-0.18264 0.224559,-0.0185 0.412326,-0.0282 0.58376,-0.13965 z m -1.276955,0.13253 c 0.328775,0.0799 0.702523,0.14394 0.778443,0.31873 -0.409592,0.0469 -0.842995,0.0595 -1.32592,-0.004 0.406364,0.008 0.776037,-0.003 1.07047,-0.0393 -0.07725,-0.0901 -0.239549,-0.17985 -0.522993,-0.27573 z m -5.315484,0.0143 c -0.237457,0.0898 -0.0905,0.17325 0.267544,0.20052 -0.23824,0.0287 -0.497184,0.041 -0.607947,-0.0359 -0.138976,-0.0964 0.08727,-0.13125 0.340403,-0.16465 z m 2.16513,0.22198 c -0.06684,0.11827 -0.06955,0.22527 0.02448,0.31517 0.312298,-0.0137 0.644999,-0.0519 0.997316,-0.12533 -0.302638,0.0883 -0.557407,0.19208 -1.155719,0.19689 -0.117942,-0.12468 -0.127848,-0.25156 0.133919,-0.38673 z m 5.667981,0.0109 c 0.339789,0.0738 0.71925,0.33513 0.377275,0.46549 -0.420776,0.16042 -1.053076,0.18297 -1.593464,0.086 0.118008,-0.10594 -0.110316,-0.18417 -0.316216,-0.26496 0.302805,-0.0274 0.644129,-0.0416 0.49851,-0.22564 0.319367,0.0237 0.642745,0.0426 1.033895,-0.0609 z m -6.361176,0.0394 c -0.07878,0.0647 -0.172604,0.11275 0.03629,0.21851 -0.270101,0.0795 -0.66452,0.0949 -1.045987,0.0859 -0.09768,-0.0993 0.0051,-0.20166 0.218872,-0.30075 0.21615,0.0152 0.46255,0.0553 0.790833,-0.004 z m 3.150058,0.0538 c 0.01914,0.12534 0.110024,0.2494 -0.279639,0.38317 -0.392985,-0.058 -0.723456,-0.14219 -0.887879,-0.29007 0.252771,0.094 0.52563,0.16788 0.815021,0.20773 0.17537,-0.0774 0.300835,-0.17464 0.352497,-0.30083 z m 0.535383,0.12888 c 0.2088,0.0306 0.360591,0.0594 0.741867,0.0109 0.236485,0.0883 0.245361,0.20469 0.170202,0.31517 -0.346392,0.0169 -0.676083,-0.0262 -0.985223,-0.10031 0.07666,-0.0614 0.233618,-0.1227 0.07315,-0.22564 z m -1.934162,0.13965 c 0.0594,0.11188 0.319656,0.13679 0.498804,0.17552 -0.118567,0.11206 -0.312021,0.20481 -0.632429,0.24708 -0.269981,-0.0799 -0.493591,-0.17799 -0.46223,-0.29007 0.409079,-0.0214 0.479306,-0.073 0.595855,-0.13253 z m -1.824434,0.0896 c 0.08563,0.0899 0.126058,0.18883 0.754257,0.15042 -0.08811,0.0934 -0.159285,0.19034 0.182295,0.30797 -0.258618,0.0982 -1.158741,0.20411 -1.59317,0.1003 -0.534535,-0.12771 -0.597831,-0.316 -0.255451,-0.47271 0.356884,0.0372 0.632761,-0.0273 0.912069,-0.086 z m 12.674273,0.004 c 0.563247,0.21214 1.206522,0.28017 1.873103,0.30432 -0.108782,0.11333 -0.197567,0.22728 0.291731,0.29007 l -0.01209,0.11108 -0.109437,0.0323 -0.231262,-0.0287 c 0.03437,-0.31561 -0.699848,-0.26843 -1.264861,-0.29719 l 0.109437,0.2292 c -0.456819,-0.15381 -0.96496,-0.26461 -1.556888,-0.31163 0.865411,-0.10349 0.918106,-0.23463 0.900271,-0.32941 z m -9.244282,0.15399 c 0.03826,0.0749 0.02439,0.15117 -0.25545,0.16466 -0.351134,0.017 -0.423999,-0.0556 -0.474323,-0.13601 0.240032,0.0892 0.55506,0.0673 0.729773,-0.0287 z m 13.099924,0.0322 c 0.286443,0.0822 0.78505,0.12619 1.228579,0.17899 -0.08594,0.13855 0.169009,0.22454 0.352496,0.32237 l -2.116162,0.3473 c -0.201132,-0.11775 -0.512859,-0.13361 -0.8516,-0.12532 l -0.194684,-0.086 0.08525,-0.0214 0.316215,0.004 c 0.812541,0.22463 1.237264,0.0191 1.739479,-0.0966 -0.809029,-0.15332 -1.441499,-0.18755 -1.714996,0.0143 h -0.377273 l 0.04867,-0.1182 c 0.70118,-0.0234 0.655762,-0.14899 0.5109,-0.28651 0.374594,-0.0231 0.725513,-0.0535 0.973129,-0.13245 z m -12.661882,0.0896 0.778443,0.0358 c -0.241094,0.39951 -1.913169,0.52042 -2.700217,0.16119 l 0.656617,-0.12897 c 0.358256,0.17942 1.221765,0.16285 1.265157,-0.068 z m 1.228284,0.0286 1.021799,0.0574 -0.815022,0.29007 c 0.598144,0.10497 1.253393,0.18214 2.153037,0.1433 -0.49956,0.22246 -0.448786,0.42205 -0.18259,0.61592 -2.571587,-0.0824 -4.752002,-0.30243 -6.555862,-0.65891 l 0.693196,-0.17908 c 0.507023,0.24214 1.170578,0.40904 2.311144,0.32951 1.044599,-0.12487 1.292729,-0.35006 1.374298,-0.59812 z m 14.279239,0.0845 c 0.08903,1.7e-4 0.188129,0.005 0.268135,9e-4 l -0.535088,0.0931 c 0.0014,-0.0682 0.07691,-0.0881 0.182296,-0.0931 0.02635,-9e-4 0.05499,-9e-4 0.08466,-9e-4 z m -6.032571,0.3131 c 0.225939,0.13332 0.582361,0.15454 1.082564,0.0537 l 0.09734,0.0609 -0.267544,0.0788 c -0.99102,-0.13836 -0.997497,0.12707 -1.264861,0.28651 0.60817,-0.0168 1.487501,0.0996 1.447452,-0.23641 l 0.255156,-0.0823 0.23126,0.0752 c -0.225758,0.0731 -0.262777,0.15388 -0.09734,0.23997 -1.281554,0.12437 -2.555146,0.21413 -3.81936,0.24351 0.332082,-0.19031 0.273644,-0.39787 -0.06077,-0.61236 0.8632,0.17621 1.662486,0.14782 2.396096,-0.10742 z m -4.269201,0.31151 c 0.05206,0.15134 0.09323,0.30578 0.5109,0.42972 -0.545187,0.0192 -1.06655,0.0133 -1.556887,-0.0143 0.539518,-0.09 0.860305,-0.23811 1.045987,-0.41538 z" id="path3769" stroke-dasharray="none" stroke-opacity="1" fill="url(#radialGradient948)" stroke="none" fill-opacity="1" stroke-width="0.033" stroke-miterlimit="4"/>
  <g id="text3839" transform="matrix(0.68187153,0,0,0.68187153,46.997791,-31.958266)" font-family="&apos;Luxi Serif&apos;" fill="#000000" text-anchor="start" text-align="start" stroke="none" font-style="normal" word-spacing="0" line-height="125%" fill-opacity="1" font-weight="normal" font-stretch="normal" letter-spacing="0" font-variant="normal" font-size="28" writing-mode="lr-tb"/>
  <g id="text3847" transform="matrix(0.68187153,0,0,0.68187153,46.997791,-31.958266)" font-family="&apos;Luxi Serif&apos;" fill="#000000" text-anchor="start" text-align="start" stroke="none" font-style="normal" word-spacing="0" line-height="125%" fill-opacity="1" font-weight="bold" font-stretch="normal" letter-spacing="0" font-variant="normal" font-size="28" writing-mode="lr-tb"/>
  <g id="text3855" transform="matrix(0.68187153,0,0,0.68187153,46.997791,-31.958266)" font-family="&apos;Luxi Serif&apos;" fill="#000000" text-anchor="start" text-align="start" stroke="none" font-style="normal" word-spacing="0" line-height="125%" fill-opacity="1" font-weight="bold" font-stretch="normal" letter-spacing="0" font-variant="normal" font-size="28" writing-mode="lr-tb"/>
  <path d="m 14.86016,283.34798 c -3.791212,-1.48928 -8.5453458,-2.85017 -7.7321158,-4.95338 3.5024038,-3.05123 6.7995608,0.19925 11.1005048,4.32376 4.608345,4.4193 21.592049,3.76477 32.65439,-0.37715 5.949485,-1.76759 3.800204,-9.61601 9.645028,-8.89999 2.024368,1.74661 -0.883536,5.63928 -2.778728,7.12804 -5.045717,3.96364 -16.210446,5.58289 -23.075532,5.7588 -10.337768,0.6048 -14.202989,-0.84022 -19.813547,-2.98008 z" id="path951" inkscape:connector-curvature="0" sodipodi:nodetypes="ccsccscc" transform="matrix(1.0221955,0,0,1.0221955,-0.02563976,-6.4714088)" stroke-opacity="1" fill="url(#linearGradient960)" stroke="none" stroke-linejoin="miter" fill-opacity="1" stroke-linecap="butt" stroke-width="0.265"/>
  <path d="m 18.847032,277.79053 c 10.093628,7.93024 26.249396,2.87681 29.116246,0.24163 2.799728,-0.006 5.234385,0.20188 4.228502,2.41628 -0.606442,1.16313 -1.779594,1.04518 -2.684759,1.61087 -8.727542,3.46831 -17.076069,5.59147 -25.102531,2.49682 -4.978517,-1.2449 -7.902556,-3.10615 -9.665145,-5.31583 -0.529891,-0.96863 -0.46175,-1.53657 0.966515,-2.05384 0.870821,-0.15111 1.651468,-0.48258 3.141172,0.60407 z" id="path962" inkscape:connector-curvature="0" sodipodi:nodetypes="cccccccc" transform="matrix(1.0221955,0,0,1.0221955,-0.02563976,-6.4714088)" stroke-opacity="1" fill="url(#linearGradient970)" stroke="none" stroke-linejoin="miter" fill-opacity="1" stroke-linecap="butt" stroke-width="0.265" filter="url(#filter948)"/>
 </g>
</svg>
