<?xml version="1.0" encoding="UTF-8" standalone="no"?>
<!-- Created with Inkscape (http://www.inkscape.org/) -->

<svg
   xmlns:dc="http://purl.org/dc/elements/1.1/"
   xmlns:cc="http://creativecommons.org/ns#"
   xmlns:rdf="http://www.w3.org/1999/02/22-rdf-syntax-ns#"
   xmlns:svg="http://www.w3.org/2000/svg"
   xmlns="http://www.w3.org/2000/svg"
   xmlns:xlink="http://www.w3.org/1999/xlink"
   xmlns:sodipodi="http://sodipodi.sourceforge.net/DTD/sodipodi-0.dtd"
   xmlns:inkscape="http://www.inkscape.org/namespaces/inkscape"
   width="255"
   height="255"
   viewBox="0 0 67.468749 67.468752"
   version="1.1"
   id="svg8"
   inkscape:version="0.92.5 (2060ec1f9f, 2020-04-08)"
   sodipodi:docname="c809e.svg">
  <defs
     id="defs2">
    <linearGradient
       inkscape:collect="always"
       id="linearGradient843">
      <stop
         style="stop-color:#000000;stop-opacity:1;"
         offset="0"
         id="stop839" />
      <stop
         style="stop-color:#dcd2d2;stop-opacity:1"
         offset="1"
         id="stop841" />
    </linearGradient>
    <linearGradient
       inkscape:collect="always"
       id="linearGradient937">
      <stop
         style="stop-color:#000000;stop-opacity:1;"
         offset="0"
         id="stop933" />
      <stop
         id="stop941"
         offset="0.92853206"
         style="stop-color:#000000;stop-opacity:1" />
      <stop
         style="stop-color:#000000;stop-opacity:0;"
         offset="1"
         id="stop935" />
    </linearGradient>
    <linearGradient
       inkscape:collect="always"
       id="linearGradient927">
      <stop
         style="stop-color:#f7e2e2;stop-opacity:1"
         offset="0"
         id="stop923" />
      <stop
         style="stop-color:#000000;stop-opacity:0.99553573"
         offset="1"
         id="stop925" />
    </linearGradient>
    <linearGradient
       inkscape:collect="always"
       id="linearGradient917">
      <stop
         style="stop-color:#ffffff;stop-opacity:1"
         offset="0"
         id="stop913" />
      <stop
         style="stop-color:#000000;stop-opacity:1"
         offset="1"
         id="stop915" />
    </linearGradient>
    <radialGradient
       inkscape:collect="always"
       xlink:href="#linearGradient917"
       id="radialGradient919"
       cx="27.1889"
       cy="254.70616"
       fx="27.1889"
       fy="254.70616"
       r="32.611183"
       gradientUnits="userSpaceOnUse"
       spreadMethod="reflect"
       gradientTransform="matrix(0.61148807,0,0,0.61148807,8.604288,108.29983)" />
    <linearGradient
       inkscape:collect="always"
       xlink:href="#linearGradient927"
       id="linearGradient929"
       x1="14.217641"
       y1="239.60123"
       x2="58.363548"
       y2="290.57074"
       gradientUnits="userSpaceOnUse"
       gradientTransform="matrix(0.61148807,0,0,0.61148807,8.604288,108.29983)" />
    <radialGradient
       inkscape:collect="always"
       xlink:href="#linearGradient937"
       id="radialGradient939"
       cx="34.716286"
       cy="263.80655"
       fx="34.716286"
       fy="263.80655"
       r="31.186672"
       gradientUnits="userSpaceOnUse"
       gradientTransform="matrix(0.66306534,0,0,0.66306534,7.86124,97.26844)" />
    <linearGradient
       inkscape:collect="always"
       xlink:href="#linearGradient843"
       id="linearGradient845"
       x1="49.608898"
       y1="272.48401"
       x2="17.939447"
       y2="242.6581"
       gradientUnits="userSpaceOnUse"
       gradientTransform="matrix(0.66306534,0,0,0.66306534,7.86124,97.26844)" />
    <linearGradient
       id="linearGradient924"
       inkscape:collect="always">
      <stop
         id="stop920"
         offset="0"
         style="stop-color:#000000;stop-opacity:1" />
      <stop
         id="stop922"
         offset="1"
         style="stop-color:#76540e;stop-opacity:1" />
    </linearGradient>
    <linearGradient
       id="linearGradient914"
       inkscape:collect="always">
      <stop
         id="stop910"
         offset="0"
         style="stop-color:#443413;stop-opacity:0.53125" />
      <stop
         id="stop912"
         offset="1"
         style="stop-color:#ba9241;stop-opacity:0;" />
    </linearGradient>
    <linearGradient
       id="linearGradient904"
       inkscape:collect="always">
      <stop
         id="stop900"
         offset="0"
         style="stop-color:#ba9241;stop-opacity:1" />
      <stop
         id="stop902"
         offset="1"
         style="stop-color:#73561c;stop-opacity:1" />
    </linearGradient>
    <linearGradient
       id="linearGradient877"
       inkscape:collect="always">
      <stop
         id="stop873"
         offset="0"
         style="stop-color:#ffffff;stop-opacity:0.51339287" />
      <stop
         id="stop875"
         offset="1"
         style="stop-color:#ffffff;stop-opacity:0;" />
    </linearGradient>
    <linearGradient
       id="linearGradient867"
       inkscape:collect="always">
      <stop
         id="stop863"
         offset="0"
         style="stop-color:#ffffff;stop-opacity:0.55803573" />
      <stop
         id="stop865"
         offset="1"
         style="stop-color:#ffffff;stop-opacity:0;" />
    </linearGradient>
    <linearGradient
       id="linearGradient837"
       inkscape:collect="always">
      <stop
         id="stop833"
         offset="0"
         style="stop-color:#73561c;stop-opacity:0.02678571" />
      <stop
         style="stop-color:#c98e16;stop-opacity:0.03571429"
         offset="0.83630097"
         id="stop841-3" />
      <stop
         id="stop835"
         offset="1"
         style="stop-color:#db9915;stop-opacity:0.5535714" />
    </linearGradient>
    <linearGradient
       id="linearGradient827"
       inkscape:collect="always">
      <stop
         id="stop823"
         offset="0"
         style="stop-color:#251d0d;stop-opacity:1" />
      <stop
         id="stop825"
         offset="1"
         style="stop-color:#73561c;stop-opacity:0.41517857" />
    </linearGradient>
    <linearGradient
       gradientTransform="translate(194.24242,-2.7272727)"
       gradientUnits="userSpaceOnUse"
       y2="217.04782"
       x2="-12.249181"
       y1="202.50237"
       x1="-20.154861"
       id="linearGradient829"
       xlink:href="#linearGradient827"
       inkscape:collect="always" />
    <radialGradient
       gradientUnits="userSpaceOnUse"
       gradientTransform="matrix(0.91922495,-1.3509876,1.4095066,0.95904171,-304.05829,279.37885)"
       r="57.311014"
       fy="225.71103"
       fx="192.88332"
       cy="225.71103"
       cx="192.88332"
       id="radialGradient839"
       xlink:href="#linearGradient837"
       inkscape:collect="always" />
    <filter
       height="1.0779668"
       y="-0.038983425"
       width="1.124885"
       x="-0.062442479"
       id="filter857"
       style="color-interpolation-filters:sRGB"
       inkscape:collect="always">
      <feGaussianBlur
         id="feGaussianBlur859"
         stdDeviation="0.890909"
         inkscape:collect="always" />
    </filter>
    <linearGradient
       gradientUnits="userSpaceOnUse"
       y2="310.06003"
       x2="217.27274"
       y1="304.6055"
       x1="238.48483"
       id="linearGradient869"
       xlink:href="#linearGradient867"
       inkscape:collect="always" />
    <linearGradient
       gradientUnits="userSpaceOnUse"
       y2="272.63031"
       x2="114.54545"
       y1="268.99393"
       x1="145.75758"
       id="linearGradient879"
       xlink:href="#linearGradient877"
       inkscape:collect="always" />
    <radialGradient
       gradientUnits="userSpaceOnUse"
       gradientTransform="matrix(-0.99894631,0.04589412,-0.104979,-2.285007,405.7788,871.43168)"
       r="86.597416"
       fy="307.98242"
       fx="183.30103"
       cy="307.98242"
       cx="183.30103"
       id="radialGradient906"
       xlink:href="#linearGradient904"
       inkscape:collect="always" />
    <linearGradient
       gradientUnits="userSpaceOnUse"
       y2="220.57031"
       x2="259.32858"
       y1="226.93394"
       x1="244.36455"
       id="linearGradient916"
       xlink:href="#linearGradient914"
       inkscape:collect="always" />
    <linearGradient
       gradientUnits="userSpaceOnUse"
       y2="128.12006"
       x2="208.86168"
       y1="177.81702"
       x1="93.585007"
       id="linearGradient926"
       xlink:href="#linearGradient924"
       inkscape:collect="always" />
    <linearGradient
       id="linearGradient3238">
      <stop
         id="stop3240"
         offset="0"
         style="stop-color:#7b7b7b;stop-opacity:1;" />
      <stop
         id="stop3242"
         offset="1"
         style="stop-color:#ffffff;stop-opacity:1;" />
    </linearGradient>
    <linearGradient
       id="linearGradient3220">
      <stop
         id="stop3222"
         offset="0"
         style="stop-color:#b6b6b6;stop-opacity:1;" />
      <stop
         id="stop3224"
         offset="1"
         style="stop-color:#000000;stop-opacity:1;" />
    </linearGradient>
    <linearGradient
       id="linearGradient3182">
      <stop
         id="stop3184"
         offset="0"
         style="stop-color:#696969;stop-opacity:1;" />
      <stop
         style="stop-color:#909090;stop-opacity:1;"
         offset="0.87440282"
         id="stop3190" />
      <stop
         id="stop3186"
         offset="1"
         style="stop-color:#5b5b5b;stop-opacity:1;" />
    </linearGradient>
    <linearGradient
       id="linearGradient3168">
      <stop
         id="stop3170"
         offset="0"
         style="stop-color:#000000;stop-opacity:1;" />
      <stop
         id="stop3172"
         offset="1"
         style="stop-color:#ffffff;stop-opacity:1;" />
    </linearGradient>
    <linearGradient
       id="linearGradient3158">
      <stop
         id="stop3160"
         offset="0"
         style="stop-color:#909090;stop-opacity:1;" />
      <stop
         style="stop-color:#c7c7c7;stop-opacity:1;"
         offset="0.33192095"
         id="stop3176" />
      <stop
         id="stop3178"
         offset="0.75"
         style="stop-color:#8e8e8e;stop-opacity:1;" />
      <stop
         id="stop3162"
         offset="1"
         style="stop-color:#ffffff;stop-opacity:1;" />
    </linearGradient>
    <inkscape:perspective
       id="perspective9"
       inkscape:persp3d-origin="372.04724 : 350.78739 : 1"
       inkscape:vp_z="744.09448 : 526.18109 : 1"
       inkscape:vp_y="0 : 1000 : 0"
       inkscape:vp_x="0 : 526.18109 : 1"
       sodipodi:type="inkscape:persp3d" />
    <linearGradient
       spreadMethod="reflect"
       gradientUnits="userSpaceOnUse"
       y2="242.9752"
       x2="176.30974"
       y1="267.76859"
       x1="177.09331"
       id="linearGradient3164"
       xlink:href="#linearGradient3158"
       inkscape:collect="always" />
    <linearGradient
       gradientUnits="userSpaceOnUse"
       y2="254.13223"
       x2="175.7066"
       y1="245.04132"
       x1="175.53305"
       id="linearGradient3174"
       xlink:href="#linearGradient3168"
       inkscape:collect="always" />
    <radialGradient
       gradientUnits="userSpaceOnUse"
       gradientTransform="matrix(5.1592758,-0.3684928,0.545625,7.6393098,-1902.0486,-1476.377)"
       r="9.2665953"
       fy="245.95932"
       fx="425.03723"
       cy="245.95932"
       cx="425.03723"
       id="radialGradient3188"
       xlink:href="#linearGradient3182"
       inkscape:collect="always" />
    <radialGradient
       spreadMethod="reflect"
       gradientUnits="userSpaceOnUse"
       gradientTransform="matrix(1,0,0,1.1228135,0,-29.601019)"
       r="7.2818127"
       fy="239.29846"
       fx="562.4433"
       cy="239.29846"
       cx="562.4433"
       id="radialGradient3226"
       xlink:href="#linearGradient3220"
       inkscape:collect="always" />
    <radialGradient
       r="7.2818127"
       fy="239.29846"
       fx="562.4433"
       cy="239.29846"
       cx="562.4433"
       spreadMethod="reflect"
       gradientTransform="matrix(1,0,0,1.1228135,0,-29.601019)"
       gradientUnits="userSpaceOnUse"
       id="radialGradient3230"
       xlink:href="#linearGradient3220"
       inkscape:collect="always" />
    <radialGradient
       r="7.2818127"
       fy="239.29846"
       fx="562.4433"
       cy="239.29846"
       cx="562.4433"
       spreadMethod="reflect"
       gradientTransform="matrix(1,0,0,1.1228135,0,-29.601019)"
       gradientUnits="userSpaceOnUse"
       id="radialGradient3234"
       xlink:href="#linearGradient3220"
       inkscape:collect="always" />
    <linearGradient
       spreadMethod="reflect"
       gradientUnits="userSpaceOnUse"
       y2="241.85419"
       x2="564.22131"
       y1="242.77142"
       x1="557.362"
       id="linearGradient3244"
       xlink:href="#linearGradient3238"
       inkscape:collect="always" />
    <radialGradient
       r="9.2665953"
       fy="245.95932"
       fx="425.03723"
       cy="245.95932"
       cx="425.03723"
       gradientTransform="matrix(5.1592758,-0.3684928,0.545625,7.6393098,-1902.0486,-1476.377)"
       gradientUnits="userSpaceOnUse"
       id="radialGradient3263"
       xlink:href="#linearGradient3182"
       inkscape:collect="always" />
    <radialGradient
       r="7.2818127"
       fy="239.29846"
       fx="562.4433"
       cy="239.29846"
       cx="562.4433"
       spreadMethod="reflect"
       gradientTransform="matrix(1,0,0,1.1228135,0,-29.601019)"
       gradientUnits="userSpaceOnUse"
       id="radialGradient3265"
       xlink:href="#linearGradient3220"
       inkscape:collect="always" />
    <radialGradient
       r="7.2818127"
       fy="239.29846"
       fx="562.4433"
       cy="239.29846"
       cx="562.4433"
       spreadMethod="reflect"
       gradientTransform="matrix(1,0,0,1.1228135,0,-29.601019)"
       gradientUnits="userSpaceOnUse"
       id="radialGradient3267"
       xlink:href="#linearGradient3220"
       inkscape:collect="always" />
    <radialGradient
       r="7.2818127"
       fy="239.29846"
       fx="562.4433"
       cy="239.29846"
       cx="562.4433"
       spreadMethod="reflect"
       gradientTransform="matrix(1,0,0,1.1228135,0,-29.601019)"
       gradientUnits="userSpaceOnUse"
       id="radialGradient3269"
       xlink:href="#linearGradient3220"
       inkscape:collect="always" />
    <filter
       inkscape:collect="always"
       style="color-interpolation-filters:sRGB"
       id="filter973"
       x="-0.02380157"
       width="1.0476031"
       y="-0.024201767"
       height="1.0484035">
      <feGaussianBlur
         inkscape:collect="always"
         stdDeviation="0.45280665"
         id="feGaussianBlur975" />
    </filter>
    <filter
       inkscape:collect="always"
       style="color-interpolation-filters:sRGB"
       id="filter1044"
       x="-0.040957908"
       width="1.0819158"
       y="-0.032112784"
       height="1.0642256">
      <feGaussianBlur
         inkscape:collect="always"
         stdDeviation="0.53310816"
         id="feGaussianBlur1046" />
    </filter>
  </defs>
  <sodipodi:namedview
     id="base"
     pagecolor="#ff0000"
     bordercolor="#666666"
     borderopacity="1.0"
     inkscape:pageopacity="0"
     inkscape:pageshadow="2"
     inkscape:zoom="3.4862745"
     inkscape:cx="127.5"
     inkscape:cy="127.5"
     inkscape:document-units="mm"
     inkscape:current-layer="layer1"
     showgrid="false"
     units="px"
     inkscape:snap-to-guides="false"
     inkscape:snap-grids="false"
     inkscape:snap-others="false"
     inkscape:object-nodes="false"
     inkscape:snap-nodes="false"
     inkscape:snap-global="false"
     inkscape:window-width="1920"
     inkscape:window-height="1056"
     inkscape:window-x="0"
     inkscape:window-y="0"
     inkscape:window-maximized="1" />
  <metadata
     id="metadata5">
    <rdf:RDF>
      <cc:Work
         rdf:about="">
        <dc:format>image/svg+xml</dc:format>
        <dc:type
           rdf:resource="http://purl.org/dc/dcmitype/StillImage" />
        <dc:title />
      </cc:Work>
    </rdf:RDF>
  </metadata>
  <g
     inkscape:label="Layer 1"
     inkscape:groupmode="layer"
     id="layer1"
     transform="translate(0,-229.53123)">
    <path
       d="m -22.681126,250.02794 c -1.175001,0.74422 -1.582899,-1.21671 -1.236944,-1.95293 0.937517,-1.99512 3.702819,-1.72899 5.142804,-0.52096 2.575797,2.16088 2.038905,6.15038 -0.195026,8.33268 -3.278382,3.20261 -8.634103,2.36617 -11.522554,-0.91101 -3.84985,-4.36797 -2.701324,-11.13105 1.626997,-14.71243 5.44675,-4.50681 13.634381,-3.04066 17.902303,2.34298 5.1690269,6.52031 3.3824219,16.14134 -3.058967,21.09218 -1.368687,1.05197 -2.905646,1.88112 -4.533615,2.45449"
       sodipodi:t0="0"
       sodipodi:argument="-9.9893799"
       sodipodi:radius="16.644257"
       sodipodi:revolution="1.8"
       sodipodi:expansion="1"
       sodipodi:cy="250.02794"
       sodipodi:cx="-22.681126"
       id="path872"
       style="fill:none;fill-rule:evenodd;stroke:#000000;stroke-width:3.83599997;stroke-linecap:round;stroke-miterlimit:4;stroke-dasharray:none"
       sodipodi:type="spiral" />
    <g
       id="g841"
       transform="matrix(1.2395549,0,0,1.2395549,-1.9524365,-71.67588)">
      <circle
         style="opacity:1;fill:url(#radialGradient939);fill-opacity:1;stroke:none;stroke-width:0.30684686;stroke-linecap:round;stroke-linejoin:round;stroke-miterlimit:4;stroke-dasharray:none;stroke-opacity:0.97767861"
         id="circle931"
         cx="30.880405"
         cy="272.18942"
         r="20.678801" />
      <circle
         r="19.941349"
         cy="271.29669"
         cx="30.298206"
         id="path911"
         style="opacity:1;fill:url(#radialGradient919);fill-opacity:1;stroke:none;stroke-width:0.29590401;stroke-linecap:round;stroke-linejoin:round;stroke-miterlimit:4;stroke-dasharray:none;stroke-opacity:0.97767861" />
      <path
         inkscape:connector-curvature="0"
         id="path897"
         d="m 29.875191,252.59495 c -3.848968,-0.038 -7.433783,3.1575 -7.718183,7.01889 -0.380229,3.23568 2.032749,6.59961 5.315671,7.05775 2.793244,0.57033 5.888135,-1.59506 6.015916,-4.51557 0.269534,-2.17697 -1.833012,-4.48825 -4.089926,-3.98154 -1.460576,0.22577 -2.476101,1.97343 -1.631167,3.2854 0.588013,1.17592 2.923267,0.65018 2.381024,-0.79409 -0.498158,-0.56512 -0.328839,-0.66856 0.260379,-0.43481 1.402117,0.51084 1.296362,2.4699 0.38836,3.39853 -1.515188,1.80429 -4.526493,1.15578 -5.758066,-0.65538 -1.879682,-2.52205 -0.527636,-6.35965 2.182896,-7.67332 3.376252,-1.80308 7.86011,0.18467 9.23022,3.65007 1.790497,4.08168 -0.650321,9.18688 -4.748461,10.72172 -0.465433,0.32532 -0.933831,-0.0585 -1.412814,-0.0487 -3.823059,-3.63162 -10.448087,-3.72771 -14.205434,0.0523 -3.336566,3.12162 -3.731308,8.85284 -0.701956,12.275 2.497191,3.06156 7.537629,3.70411 10.610803,1.09271 2.765283,-2.16261 3.241093,-6.76925 0.587436,-9.22737 -1.976865,-1.99091 -5.772888,-1.86984 -7.246719,0.67591 -1.108175,1.67016 -0.308493,4.46628 1.816656,4.78006 1.374644,0.34151 3.030803,-1.39776 1.94811,-2.64772 -0.56704,-0.87691 -1.902497,-0.4009 -2.004989,0.58522 -0.591906,-1.05169 0.08432,-2.42551 1.255133,-2.64741 1.897157,-0.5721 3.79984,1.08396 3.935406,2.96182 0.397681,2.52319 -1.762948,4.85583 -4.219486,5.0809 -2.987891,0.4721 -5.934499,-1.78914 -6.525301,-4.70391 -0.867398,-3.32356 1.061043,-7.00694 4.217272,-8.30436 2.968757,-1.33554 6.677661,-0.74818 9.085494,1.44474 -0.03708,0.5892 0.438896,1.00362 0.145359,1.59577 -0.928543,5.15255 2.605077,10.74865 7.815825,11.78979 4.539947,1.08646 9.710736,-1.92478 10.67495,-6.55817 0.973961,-3.87752 -1.617098,-8.4034 -5.649993,-9.12499 -3.327657,-0.75788 -7.206194,1.71309 -7.36585,5.27838 -0.271242,2.67061 2.156504,5.48049 4.938691,4.99872 1.911914,-0.19443 3.516633,-2.46006 2.461602,-4.24349 -0.605912,-1.18193 -2.733197,-1.42627 -3.137202,0.0575 -0.396981,0.93053 0.686137,1.72469 1.540478,1.3553 -0.619159,1.03632 -2.147266,1.13439 -2.922641,0.22783 -1.439605,-1.36155 -0.948879,-3.83625 0.613663,-4.88686 1.991677,-1.59939 5.089657,-0.88432 6.506342,1.13537 1.855785,2.31259 1.422874,5.91018 -0.722681,7.88913 -2.388614,2.44881 -6.519354,2.71191 -9.256763,0.69488 -2.748047,-1.89162 -4.156543,-5.50059 -3.414645,-8.75402 0.51548,-0.26595 0.638435,-0.87234 1.293369,-0.91039 5.013065,-1.83968 8.04987,-7.88634 6.138524,-12.94948 -1.251144,-3.57268 -4.843644,-6.12732 -8.627302,-6.04214 z"
         style="color:#000000;font-style:normal;font-variant:normal;font-weight:normal;font-stretch:normal;font-size:medium;line-height:normal;font-family:sans-serif;font-variant-ligatures:normal;font-variant-position:normal;font-variant-caps:normal;font-variant-numeric:normal;font-variant-alternates:normal;font-feature-settings:normal;text-indent:0;text-align:start;text-decoration:none;text-decoration-line:none;text-decoration-style:solid;text-decoration-color:#000000;letter-spacing:normal;word-spacing:normal;text-transform:none;writing-mode:lr-tb;direction:ltr;text-orientation:mixed;dominant-baseline:auto;baseline-shift:baseline;text-anchor:start;white-space:normal;shape-padding:0;clip-rule:nonzero;display:inline;overflow:visible;visibility:visible;opacity:1;isolation:auto;mix-blend-mode:normal;color-interpolation:sRGB;color-interpolation-filters:linearRGB;solid-color:#000000;solid-opacity:1;vector-effect:none;fill:url(#linearGradient845);fill-opacity:1;fill-rule:evenodd;stroke:none;stroke-width:0.30574405;stroke-linecap:round;stroke-linejoin:miter;stroke-miterlimit:4;stroke-dasharray:none;stroke-dashoffset:0;stroke-opacity:1;color-rendering:auto;image-rendering:auto;shape-rendering:auto;text-rendering:auto;enable-background:accumulate" />
      <circle
         style="opacity:1;fill:none;fill-opacity:1;stroke:url(#linearGradient929);stroke-width:0.6114881;stroke-linecap:round;stroke-linejoin:round;stroke-miterlimit:4;stroke-dasharray:none;stroke-opacity:1"
         id="circle921"
         cx="30.298206"
         cy="271.29669"
         r="19.941349" />
    </g>
    <path
       style="fill:#000000;fill-opacity:0.66964285;stroke:#000000;stroke-width:0.1536326px;stroke-linecap:butt;stroke-linejoin:miter;stroke-opacity:1;filter:url(#filter1044)"
       d="m 29.872633,236.20484 c -11.643626,0.0556 -15.507921,5.56794 -17.271813,12.6628 l 2.048454,0.8847 c 0.295307,-1.18977 1.100806,-2.50657 2.206583,-3.71192 -3.811291,4.60227 -3.280487,10.13075 -1.74098,12.88345 0.642057,1.14803 2.576809,1.89329 2.514059,4.09691 l -0.558622,3.35173 c -0.472667,0.22529 -0.673129,0.56721 -0.279569,1.16375 0.145125,-0.25458 0.293415,-0.4801 0.443383,-0.68626 l -0.443383,0.68626 c 1.379547,1.34154 4.559916,0.61899 8.448063,-0.91519 1.478726,1.9253 3.585908,3.25418 5.378999,4.40697 2.611058,1.67866 5.923406,2.61866 8.65942,4.32997 1.006572,0.62958 1.435957,1.28655 0.884184,-0.27957 -0.687825,-1.95228 -1.441184,-4.90734 -2.088245,-7.67188 l 4.229716,4.36665 1.070736,3.49126 0.465604,0.047 -4.981091,-16.38763 -0.552421,-0.31161 c -0.01664,-0.0654 -0.037,-0.13646 -0.05271,-0.2005 -0.02971,-0.0505 -0.05682,-0.10098 -0.08527,-0.15142 -0.578399,-1.6679 -1.035338,-3.37609 -0.706417,-4.92321 -0.548825,-0.50756 -0.996472,-1.09612 -0.931209,-2.09496 0.210338,-0.70434 0.156657,-1.38505 -0.05788,-2.05672 0.0031,-0.0279 0.0086,-0.057 0.01137,-0.0848 l -0.08268,-0.12403 c -0.425662,-1.15185 -1.304308,-2.28113 -2.151807,-3.46077 -0.119074,-0.16573 -0.29515,-0.34813 -0.51418,-0.53898 l -0.112655,-0.16898 0.487309,-0.13023 z m -5.493204,5.81929 c 0.04431,0.006 0.08991,0.0109 0.134358,0.017 -0.416285,0.0178 -0.833396,0.0575 -1.249019,0.12247 0.373158,-0.0749 0.745875,-0.12361 1.114661,-0.13952 z m 9.228377,2.78742 0.01912,0.0729 c -0.01678,-0.0139 -0.03547,-0.0279 -0.05271,-0.0419 0.0026,-0.008 0.0052,-0.0161 0.0078,-0.0243 z m -0.04651,0.0124 c -0.0012,0.002 -0.0025,0.003 -0.0036,0.005 -0.0013,-0.001 -0.0028,-0.002 -0.0041,-0.003 z"
       id="path977"
       inkscape:connector-curvature="0" />
    <g
       id="g1012"
       transform="matrix(0.15363259,0,0,0.15363259,0.776416,217.65362)">
      <path
         sodipodi:nodetypes="cccccccccc"
         inkscape:connector-curvature="0"
         id="path819"
         d="m 293.63636,358.99395 -32.42424,-106.66667 -11.81818,-6.66667 -17.87878,-50 -52.80505,18.06917 -61.13435,94.6581 c 14.96834,14.55588 62.40498,-8.108 109.69696,-30.60605 l 56.36364,58.18181 6.9697,22.72728 z"
         style="fill:#000000;fill-opacity:1;stroke:#000000;stroke-width:1px;stroke-linecap:butt;stroke-linejoin:miter;stroke-opacity:1" />
      <path
         sodipodi:nodetypes="cczzczcssscccccszzcc"
         inkscape:connector-curvature="0"
         id="path817"
         d="m 252.12121,215.96364 c -5.22213,24.56277 19.90542,55.38891 13.03031,73.33334 -37.10578,-50.86464 -11.76929,-56.8906 -31.51516,-71.21213 -19.74587,-14.32153 -25.25253,1.28528 -30.30303,6.06061 -5.05051,4.77533 -18.48485,19.69697 -18.48485,19.69697 0.71086,6.04234 43.88737,16.40559 51.81819,8.48485 7.93082,-7.92074 7.43754,-0.35267 9.39393,9.09091 0,0 13.13257,66.24727 23.63637,96.0606 3.59151,10.19393 0.79423,5.91618 -5.75758,1.81819 -17.80881,-11.13896 -39.36816,-17.25538 -56.36363,-28.18182 -18.35315,-11.7993 -41.80442,-26.38977 -46.36364,-54.54546 -6.72053,7.74413 -13.73494,14.75356 -23.63636,14.54546 -6.95689,2.85532 -13.83848,6.46373 -20,17.27272 -2.56169,-3.88286 -1.25843,-6.10931 1.81818,-7.57575 l 3.63636,-21.81818 c 0.40844,-14.34344 -12.18446,-19.19412 -16.36363,-26.66667 -11.319051,-20.23899 -14.289311,-63.53708 22.42424,-95.15152 36.71355,-31.61444 93.06355,-4.72856 102.12121,7.87879 9.05766,12.60735 18.71358,24.32998 14.84849,37.27273 -0.4248,6.50146 2.48828,10.3326 6.0606,13.63636 z"
         style="fill:url(#radialGradient906);fill-opacity:1;stroke:#000000;stroke-width:1px;stroke-linecap:butt;stroke-linejoin:miter;stroke-opacity:1" />
      <path
         sodipodi:nodetypes="ccc"
         inkscape:connector-curvature="0"
         id="path821"
         d="m 107.27273,252.02425 c 19.42518,-44.28916 85.58209,-38.34517 119.69697,-91.81818 -16.99637,55.50895 -81.21153,44.63868 -119.69697,91.81818 z"
         style="fill:url(#linearGradient829);fill-opacity:1;stroke:none;stroke-width:1px;stroke-linecap:butt;stroke-linejoin:miter;stroke-opacity:1" />
      <path
         sodipodi:nodetypes="cccc"
         inkscape:connector-curvature="0"
         id="path831"
         d="m 105.75758,248.99395 12.72727,-14.54546 c 0.56954,-51.45281 19.17262,-89.05528 96.66666,-81.21212 -58.33071,-27.34407 -133.160654,12.2094 -109.39393,95.75758 z"
         style="fill:url(#radialGradient839);fill-opacity:1;stroke:none;stroke-width:1px;stroke-linecap:butt;stroke-linejoin:miter;stroke-opacity:1" />
      <path
         inkscape:connector-curvature="0"
         id="path843"
         d="m 198.18182,158.69092 20.60606,12.72727 -1.81818,8.48485 15.45454,33.63636 -16.96969,-1.51515 -9.39394,-19.69697 4.84848,-11.51515 -9.09091,-7.27273 z"
         style="fill:#ffffff;fill-opacity:0.45535715;stroke:none;stroke-width:1px;stroke-linecap:butt;stroke-linejoin:miter;stroke-opacity:1;filter:url(#filter857)" />
      <path
         sodipodi:nodetypes="ccccc"
         inkscape:connector-curvature="0"
         id="path861"
         d="m 202.72727,253.5394 c 1.47547,6.34047 33.12579,6.49223 38.78788,-2.42424 0,0 24.12833,109.45099 26.66667,108.18182 l -41.21213,-20.30304 z"
         style="fill:url(#linearGradient869);fill-opacity:1;stroke:none;stroke-width:1px;stroke-linecap:butt;stroke-linejoin:miter;stroke-opacity:1" />
      <path
         sodipodi:nodetypes="ccccccccc"
         inkscape:connector-curvature="0"
         id="path871"
         d="m 111.51515,248.08485 9.09091,7.27273 c 5.68842,8.59368 13.80516,17.33019 6.36364,25.15152 -2.40649,5.12376 -5.57344,9.99404 -3.33334,16.66666 l 18.18182,-12.12121 0.90909,-11.51515 c -0.34627,-9.131 -2.71733,-18.03702 -10.30303,-26.36364 -4.44444,-4.30023 -8.88889,-7.88242 -13.33333,-8.18181 z"
         style="fill:url(#linearGradient879);fill-opacity:1;stroke:none;stroke-width:1px;stroke-linecap:butt;stroke-linejoin:miter;stroke-opacity:1" />
      <path
         sodipodi:nodetypes="cccccccc"
         inkscape:connector-curvature="0"
         id="path908"
         d="m 239.09091,206.87273 14.84848,43.33334 11.21213,39.09091 c 3.63401,-4.04393 -4.19355,-25.28022 -7.87879,-40.30303 -6.48525,-11.0101 -8.3627,-22.02021 -5.15152,-33.03031 -12.63369,-4.51971 -7.40672,-16.97748 -6.36363,-27.57576 L 226.9697,160.20607 Z"
         style="fill:url(#linearGradient916);fill-opacity:1;stroke:none;stroke-width:1px;stroke-linecap:butt;stroke-linejoin:miter;stroke-opacity:1" />
      <path
         sodipodi:nodetypes="ccccccc"
         inkscape:connector-curvature="0"
         id="path918"
         d="m 221.21212,162.02425 9.09091,-2.42424 -27.57575,-55.15152 C 126.9385,104.8101 101.78427,140.69201 90.30303,186.87273 l 13.33334,5.75758 c 5.30889,-21.38893 35.87187,-49.11814 63.33333,-50.30303 20.86677,2.98371 44.13475,2.88013 54.24242,19.69697 z"
         style="fill:url(#linearGradient926);fill-opacity:1;stroke:none;stroke-width:1px;stroke-linecap:butt;stroke-linejoin:miter;stroke-opacity:1" />
      <path
         inkscape:connector-curvature="0"
         id="path928"
         d="m 221.21212,162.02425 9.09091,-2.42424 -27.57575,-55.15152 -8.18183,2.42424 z"
         style="fill:#ac8b63;fill-opacity:1;stroke:none;stroke-width:1px;stroke-linecap:butt;stroke-linejoin:miter;stroke-opacity:1" />
    </g>
    <path
       style="fill:#000000;fill-opacity:1;fill-rule:evenodd;stroke:#000000;stroke-width:0.0194043;stroke-linecap:round;stroke-linejoin:round;stroke-miterlimit:4;stroke-dasharray:none;stroke-opacity:1;filter:url(#filter973)"
       d="m 57.043164,250.01361 -0.814937,0.68678 0.752925,1.21336 -5.293733,4.73098 c -0.02958,-0.0177 -0.05969,-0.0322 -0.0894,-0.0491 -0.395583,-0.30757 -0.797986,-0.4156 -1.204061,-0.39998 -0.03462,-0.002 -0.0693,-0.005 -0.103869,-0.006 l 0.01188,0.0103 c -0.0062,5.2e-4 -0.0124,4.7e-4 -0.0186,10e-4 -0.464387,0.0532 -0.724314,0.51649 -0.338998,0.80098 l 0.486276,0.27905 0.256315,0.22738 -32.965947,33.03881 c -1.417235,1.3953 -2.717244,2.80495 -2.994133,4.34134 1.028422,0.23011 2.650408,-0.97857 4.357875,-2.39469 l 34.038232,-32.81918 0.513147,0.68006 c 0.401006,0.39141 0.984208,-0.28304 0.871265,-0.59531 l -0.257866,-0.43874 c -0.08241,-0.15997 -0.17252,-0.31279 -0.269751,-0.45888 -6.9e-4,-10e-4 -0.0014,-0.002 -0.0021,-0.003 l -0.24598,-0.4191 5.030184,-5.31544 1.090889,0.61082 0.532268,-0.7736 -0.252181,-0.47026 c 0.0075,-0.007 0.01257,-0.0133 0.01964,-0.0202 a 0.54767924,0.48983471 46.859228 0 0 0.02842,-0.0233 0.54767924,0.48983471 46.859228 0 0 0.0646,-0.0775 c 0.215428,-0.26684 0.115524,-0.46038 -0.06356,-0.63562 a 0.54767924,0.48983471 46.859228 0 0 -0.0186,-0.0217 0.54767924,0.48983471 46.859228 0 0 -0.09302,-0.0806 c -0.08691,-0.0738 -0.179714,-0.14613 -0.258899,-0.22169 -0.0011,-0.13122 -0.01488,-0.24767 -0.03824,-0.35088 a 0.74474834,0.65798157 46.85923 0 0 -10e-4,-0.004 0.74474834,0.65798157 46.85923 0 0 -0.02325,-0.0811 c -0.11597,-0.38011 -0.380942,-0.54803 -0.666109,-0.55087 a 0.74474834,0.65798157 46.85923 0 0 -0.495577,0.1509 0.54767924,0.48983471 46.859228 0 0 -0.147795,-0.27802 0.54767924,0.48983471 46.859228 0 0 -0.731738,-0.0646 0.54767924,0.48983471 46.859228 0 0 -0.101803,0.14418 z"
       id="path919"
       inkscape:connector-curvature="0" />
    <g
       transform="matrix(0.07079424,-0.06634263,0.06634263,0.07079424,2.0521012,270.69224)"
       id="g3246">
      <path
         style="fill:#000000;fill-opacity:1;fill-rule:evenodd;stroke:#000000;stroke-width:0.2;stroke-linecap:round;stroke-linejoin:round;stroke-miterlimit:4;stroke-dasharray:none;stroke-opacity:1"
         d="m -76.212471,257.50577 c 12.910684,-9.60341 32.625261,-11.04214 53.117783,-11.54734 l 481.524248,-16.16628 -2.7615,-9.01787 c -0.89281,-4.85527 4.33175,-6.50512 8.19915,-3.63221 3.83951,2.99112 6.55529,7.10596 7.26443,13.22745 l 73.32563,1.7321 2.88684,-14.43418 10.96998,0.57736 1.7321,6.92841 c 6.72991,-0.78475 6.04967,3.66119 5.34298,8.12581 6.38509,0.72175 11.09745,7.154 3.89489,14.96888 0.25824,4.6165 2.60218,10.44052 -5.1963,10.39261 l -1.41742,5.31231 -9.45788,2.06812 -3.8949,-12.28339 -75.29908,4.52427 -3.46421,15.39024 c -1.35146,3.14457 -10.4927,4.11118 -10.74996,-1.65877 l 0.93472,-8.73384 -487.297921,6.9284 c -22.822112,-1.38361 -43.540855,-3.72329 -49.65358,-12.70208 z"
         id="path3154"
         sodipodi:nodetypes="cccccccccccccccccccccc"
         inkscape:connector-curvature="0" />
      <path
         sodipodi:nodetypes="cccccc"
         id="path3156"
         d="m -76.212471,257.50577 c 12.910684,-9.60341 32.625261,-11.04214 53.117783,-11.54734 L 458.42956,229.79215 c 4.73544,10.28119 7.41172,21.01996 2.30947,33.4873 l -487.297921,6.9284 c -22.822112,-1.38361 -43.540855,-3.72329 -49.65358,-12.70208 z"
         style="opacity:1;fill:url(#linearGradient3164);fill-opacity:1;fill-rule:evenodd;stroke:none;stroke-width:0.2;stroke-linecap:round;stroke-linejoin:round;stroke-miterlimit:4;stroke-dasharray:none;stroke-opacity:1"
         inkscape:connector-curvature="0" />
      <path
         style="fill:url(#linearGradient3174);fill-opacity:1;fill-rule:evenodd;stroke:#acacac;stroke-width:1px;stroke-linecap:butt;stroke-linejoin:miter;stroke-opacity:1"
         d="m -14.876033,252.47934 427.272723,-10.7438 12.80992,4.13223 -13.63636,4.95868 -428.925622,9.91735 -23.553719,-2.47934 z"
         id="path3166"
         sodipodi:nodetypes="ccccccc"
         inkscape:connector-curvature="0" />
      <path
         sodipodi:nodetypes="ccccccccc"
         id="path3180"
         d="m 459.02576,229.345 -3.0596,-7.97452 c -0.89281,-4.85527 4.03365,-7.10132 7.90105,-4.22841 3.43997,2.85794 5.78797,6.85019 7.26443,13.22745 1.92456,9.3041 3.32929,18.6082 2.88684,27.9123 l -3.46421,15.39024 c -1.35146,3.14457 -10.4927,4.11118 -10.74996,-1.65877 l 1.67997,-8.58479 c 4.69478,-12.68886 2.12658,-23.66113 -2.45852,-34.0835 z"
         style="opacity:0.42677822;fill:url(#radialGradient3263);fill-opacity:1;fill-rule:evenodd;stroke:none;stroke-width:0.2;stroke-linecap:round;stroke-linejoin:round;stroke-miterlimit:4;stroke-dasharray:none;stroke-opacity:1"
         inkscape:connector-curvature="0" />
      <path
         style="fill:none;fill-rule:evenodd;stroke:#ffffff;stroke-width:2;stroke-linecap:round;stroke-linejoin:round;stroke-miterlimit:4;stroke-dasharray:none;stroke-opacity:0.22746779"
         d="m 456.69172,219.0392 c 8.90198,17.75591 14.14163,35.75686 4.91868,53.50924"
         id="path3192"
         sodipodi:nodetypes="cc"
         inkscape:connector-curvature="0" />
      <path
         sodipodi:nodetypes="cc"
         id="path3194"
         d="m 456.69172,219.0392 c 8.90198,17.75591 14.14163,35.75686 4.91868,53.50924"
         style="fill:none;fill-rule:evenodd;stroke:#ffffff;stroke-width:1;stroke-linecap:round;stroke-linejoin:round;stroke-miterlimit:4;stroke-dasharray:none;stroke-opacity:0.22746779"
         inkscape:connector-curvature="0" />
      <path
         style="fill:none;fill-rule:evenodd;stroke:#e7e7e7;stroke-width:1px;stroke-linecap:butt;stroke-linejoin:miter;stroke-opacity:0.22317595"
         d="m 463.99522,217.10153 c 6.85963,6.61906 9.25271,18.29252 9.6883,29.95922 0.33852,9.06687 -0.029,18.1842 -4.02437,27.2763"
         id="path3196"
         sodipodi:nodetypes="csc"
         inkscape:connector-curvature="0" />
      <ellipse
         id="path3228"
         style="opacity:1;fill:url(#radialGradient3265);fill-opacity:1;stroke:none;stroke-width:1;stroke-linecap:round;stroke-linejoin:round;stroke-miterlimit:4;stroke-dasharray:none;stroke-opacity:1"
         transform="matrix(0.7444506,0,0,0.7353884,140.50921,52.971612)"
         cx="565.87146"
         cy="241.02419"
         rx="6.7818127"
         ry="7.6761174" />
      <ellipse
         transform="matrix(0.7444506,0,0,0.7353884,143.49023,75.776388)"
         style="opacity:1;fill:url(#radialGradient3267);fill-opacity:1;stroke:none;stroke-width:1;stroke-linecap:round;stroke-linejoin:round;stroke-miterlimit:4;stroke-dasharray:none;stroke-opacity:1"
         id="path3232"
         cx="565.87146"
         cy="241.02419"
         rx="6.7818127"
         ry="7.6761174" />
      <ellipse
         style="opacity:1;fill:url(#radialGradient3269);fill-opacity:1;stroke:none;stroke-width:1;stroke-linecap:round;stroke-linejoin:round;stroke-miterlimit:4;stroke-dasharray:none;stroke-opacity:1"
         id="path3218"
         cx="565.87146"
         cy="241.02419"
         rx="6.7818127"
         ry="7.6761174" />
      <path
         sodipodi:nodetypes="ccccccccc"
         id="path3236"
         d="m 546.20003,232.28507 1.51098,-13.51694 9.68584,0.11874 2.64934,6.28634 c 1.78453,6.03881 3.66774,17.48352 3.30778,33.30385 l -1.41742,4.76197 -8.26547,1.97639 -3.61973,-12.00821 c 0.23287,-6.75739 0.88506,-13.45487 -3.85132,-20.92214 z"
         style="fill:url(#linearGradient3244);fill-opacity:1;fill-rule:evenodd;stroke:none;stroke-width:0.2;stroke-linecap:round;stroke-linejoin:round;stroke-miterlimit:4;stroke-dasharray:none;stroke-opacity:1"
         inkscape:connector-curvature="0" />
    </g>
  </g>
</svg>
