<?xml version="1.0" encoding="UTF-8" standalone="no"?>
<!-- Created with Inkscape (http://www.inkscape.org/) -->

<svg
   xmlns:dc="http://purl.org/dc/elements/1.1/"
   xmlns:cc="http://creativecommons.org/ns#"
   xmlns:rdf="http://www.w3.org/1999/02/22-rdf-syntax-ns#"
   xmlns:svg="http://www.w3.org/2000/svg"
   xmlns="http://www.w3.org/2000/svg"
   xmlns:xlink="http://www.w3.org/1999/xlink"
   xmlns:sodipodi="http://sodipodi.sourceforge.net/DTD/sodipodi-0.dtd"
   xmlns:inkscape="http://www.inkscape.org/namespaces/inkscape"
   width="256"
   height="256"
   id="svg2"
   sodipodi:version="0.32"
   inkscape:version="0.92.5 (2060ec1f9f, 2020-04-08)"
   version="1.0"
   sodipodi:docname="lives.svg"
   inkscape:output_extension="org.inkscape.output.svg.inkscape">
  <defs
     id="defs4">
    <linearGradient
       id="linearGradient955">
      <stop
         style="stop-color:#f6f6f6;stop-opacity:1"
         offset="0"
         id="stop951" />
      <stop
         style="stop-color:#2f2f2f;stop-opacity:1"
         offset="1"
         id="stop953" />
    </linearGradient>
    <linearGradient
       id="linearGradient944">
      <stop
         id="stop940"
         offset="0"
         style="stop-color:#f0f0f0;stop-opacity:1" />
      <stop
         id="stop942"
         offset="1"
         style="stop-color:#646464;stop-opacity:1" />
    </linearGradient>
    <linearGradient
       inkscape:collect="always"
       id="linearGradient934">
      <stop
         style="stop-color:#aaaaaa;stop-opacity:1"
         offset="0"
         id="stop930" />
      <stop
         style="stop-color:#464646;stop-opacity:1"
         offset="1"
         id="stop932" />
    </linearGradient>
    <linearGradient
       id="linearGradient3175">
      <stop
         style="stop-color:#bcc4f0;stop-opacity:0.73949581;"
         offset="0"
         id="stop3177" />
      <stop
         style="stop-color:#1a1c71;stop-opacity:0.78151262;"
         offset="1"
         id="stop3179" />
    </linearGradient>
    <inkscape:perspective
       sodipodi:type="inkscape:persp3d"
       inkscape:vp_x="0 : 526.18109 : 1"
       inkscape:vp_y="0 : 1000 : 0"
       inkscape:vp_z="744.09448 : 526.18109 : 1"
       inkscape:persp3d-origin="372.04724 : 350.78739 : 1"
       id="perspective10" />
    <inkscape:perspective
       id="perspective2390"
       inkscape:persp3d-origin="372.04724 : 350.78739 : 1"
       inkscape:vp_z="744.09448 : 526.18109 : 1"
       inkscape:vp_y="0 : 1000 : 0"
       inkscape:vp_x="0 : 526.18109 : 1"
       sodipodi:type="inkscape:persp3d" />
    <linearGradient
       gradientTransform="matrix(0.4584837,0,0,0.4584837,12.357625,81.058821)"
       y2="50.573639"
       x2="215.89148"
       y1="113.36433"
       x1="155.81395"
       spreadMethod="reflect"
       gradientUnits="userSpaceOnUse"
       id="linearGradient3403"
       xlink:href="#linearGradient3369"
       inkscape:collect="always" />
    <linearGradient
       y2="78.617943"
       x2="-79.282944"
       y1="145.67221"
       x1="-81.182167"
       gradientUnits="userSpaceOnUse"
       id="linearGradient3397"
       xlink:href="#linearGradient3387"
       inkscape:collect="always" />
    <linearGradient
       gradientUnits="userSpaceOnUse"
       y2="78.617943"
       x2="-79.282944"
       y1="145.67221"
       x1="-81.182167"
       id="linearGradient3393"
       xlink:href="#linearGradient3387"
       inkscape:collect="always" />
    <linearGradient
       spreadMethod="reflect"
       gradientUnits="userSpaceOnUse"
       y2="50.573639"
       x2="215.89148"
       y1="113.36433"
       x1="155.81395"
       id="linearGradient3375"
       xlink:href="#linearGradient3369"
       inkscape:collect="always" />
    <inkscape:perspective
       sodipodi:type="inkscape:persp3d"
       inkscape:vp_x="0 : 128 : 1"
       inkscape:vp_y="0 : 1000 : 0"
       inkscape:vp_z="256 : 128 : 1"
       inkscape:persp3d-origin="128 : 85.333333 : 1"
       id="perspective2503" />
    <linearGradient
       id="linearGradient3578">
      <stop
         id="stop3580"
         offset="0"
         style="stop-color:#d2d6f6;stop-opacity:1" />
      <stop
         id="stop3582"
         offset="1"
         style="stop-color:#2f45bc;stop-opacity:1" />
    </linearGradient>
    <linearGradient
       id="linearGradient3369"
       inkscape:collect="always">
      <stop
         id="stop3371"
         offset="0"
         style="stop-color:#6465df;stop-opacity:1" />
      <stop
         id="stop3373"
         offset="1"
         style="stop-color:#ffffff;stop-opacity:1" />
    </linearGradient>
    <linearGradient
       id="linearGradient3387"
       inkscape:collect="always">
      <stop
         id="stop3389"
         offset="0"
         style="stop-color:#000000;stop-opacity:1;" />
      <stop
         id="stop3391"
         offset="1"
         style="stop-color:#ffffff;stop-opacity:1" />
    </linearGradient>
    <linearGradient
       inkscape:collect="always"
       xlink:href="#linearGradient955"
       id="linearGradient986"
       x1="98.390625"
       y1="111.52625"
       x2="126.97791"
       y2="110.60649"
       gradientUnits="userSpaceOnUse"
       spreadMethod="reflect"
       gradientTransform="translate(1.162316,-2.3246311)" />
    <linearGradient
       inkscape:collect="always"
       xlink:href="#linearGradient955"
       id="linearGradient994"
       x1="103.35316"
       y1="131.55667"
       x2="135.85626"
       y2="131.55667"
       gradientUnits="userSpaceOnUse"
       spreadMethod="reflect"
       gradientTransform="translate(1.162316,-2.3246311)" />
    <filter
       inkscape:collect="always"
       style="color-interpolation-filters:sRGB"
       id="filter1024"
       x="-0.029806863"
       width="1.0596137"
       y="-0.02008677"
       height="1.0401735">
      <feGaussianBlur
         inkscape:collect="always"
         stdDeviation="1.9287528"
         id="feGaussianBlur1026" />
    </filter>
    <linearGradient
       id="linearGradient15182">
      <stop
         id="stop15184"
         stop-color="#ffffff"
         stop-opacity="1" />
      <stop
         offset="1"
         id="stop15186"
         stop-color="#100de7"
         stop-opacity="0" />
    </linearGradient>
    <linearGradient
       id="linearGradient3558">
      <stop
         id="stop3560"
         stop-color="#6474d6"
         stop-opacity="1" />
      <stop
         offset="0.167"
         id="stop3564"
         stop-color="#949cd9"
         stop-opacity="1" />
      <stop
         id="stop3562"
         offset="1"
         stop-color="#20267b"
         stop-opacity="1" />
    </linearGradient>
    <linearGradient
       id="linearGradient2811">
      <stop
         id="stop2813"
         stop-color="#2e46c9"
         stop-opacity="1" />
      <stop
         offset="1"
         id="stop4535"
         stop-color="#202a7b"
         stop-opacity="1" />
    </linearGradient>
    <linearGradient
       id="linearGradient3578-3">
      <stop
         id="stop3580-6"
         stop-color="#000000"
         stop-opacity="1" />
      <stop
         offset="1"
         id="stop3582-7"
         stop-color="#fffcfc"
         stop-opacity="1" />
    </linearGradient>
    <linearGradient
       id="linearGradient3299">
      <stop
         id="stop3301"
         stop-color="#0d0d9d"
         stop-opacity="0.675" />
      <stop
         offset="1"
         id="stop3303"
         stop-color="#7c86f5"
         stop-opacity="0.525" />
    </linearGradient>
    <linearGradient
       id="linearGradient3335">
      <stop
         id="stop3337"
         stop-color="#000000"
         stop-opacity="0.632" />
      <stop
         offset="0.5"
         id="stop3343"
         stop-color="#7075f7"
         stop-opacity="0.588" />
      <stop
         id="stop3339"
         offset="1"
         stop-color="#ffffff"
         stop-opacity="0.439" />
    </linearGradient>
    <linearGradient
       id="linearGradient3345">
      <stop
         id="stop3347"
         stop-color="#b9c1ee"
         stop-opacity="1" />
      <stop
         id="stop6154"
         offset="1"
         stop-color="#101b59"
         stop-opacity="1" />
    </linearGradient>
    <linearGradient
       id="linearGradient3351">
      <stop
         id="stop3353"
         stop-color="#697ef7"
         stop-opacity="1" />
      <stop
         id="stop3355"
         offset="1"
         stop-color="#000000"
         stop-opacity="1" />
    </linearGradient>
    <linearGradient
       id="linearGradient3449">
      <stop
         id="stop3451"
         stop-color="#000e7c"
         stop-opacity="1" />
      <stop
         offset="1"
         id="stop3453"
         stop-color="#cacbf7"
         stop-opacity="1" />
    </linearGradient>
    <linearGradient
       inkscape:collect="always"
       xlink:href="#linearGradient944"
       id="linearGradient1137"
       gradientUnits="userSpaceOnUse"
       x1="116.1771"
       y1="119.64412"
       x2="148.83492"
       y2="119.36954"
       spreadMethod="reflect"
       gradientTransform="translate(0.58116089,-2.6152099)" />
    <linearGradient
       inkscape:collect="always"
       xlink:href="#linearGradient934"
       id="linearGradient936"
       x1="125.56918"
       y1="125.65841"
       x2="177.95969"
       y2="125.07726"
       gradientUnits="userSpaceOnUse"
       spreadMethod="reflect" />
    <linearGradient
       inkscape:collect="always"
       xlink:href="#linearGradient934"
       id="linearGradient938"
       gradientUnits="userSpaceOnUse"
       x1="125.56918"
       y1="125.65841"
       x2="177.95969"
       y2="125.07726"
       spreadMethod="reflect" />
    <linearGradient
       id="linearGradient930"
       inkscape:collect="always">
      <stop
         id="stop926"
         offset="0"
         style="stop-color:#dedede;stop-opacity:1" />
      <stop
         id="stop928"
         offset="1"
         style="stop-color:#737373;stop-opacity:0;" />
    </linearGradient>
    <linearGradient
       id="linearGradient920"
       inkscape:collect="always">
      <stop
         id="stop916"
         offset="0"
         style="stop-color:#fefefe;stop-opacity:1" />
      <stop
         id="stop918"
         offset="1"
         style="stop-color:#737373;stop-opacity:1" />
    </linearGradient>
    <linearGradient
       id="linearGradient912"
       inkscape:collect="always">
      <stop
         id="stop908"
         offset="0"
         style="stop-color:#dadada;stop-opacity:1" />
      <stop
         id="stop910"
         offset="1"
         style="stop-color:#424242;stop-opacity:1" />
    </linearGradient>
    <linearGradient
       id="linearGradient854"
       inkscape:collect="always">
      <stop
         id="stop850"
         offset="0"
         style="stop-color:#848484;stop-opacity:1;" />
      <stop
         style="stop-color:#737373;stop-opacity:0.05"
         offset="0.74350494"
         id="stop860" />
      <stop
         style="stop-color:#dcdcdc;stop-opacity:1"
         offset="0.88395357"
         id="stop858" />
      <stop
         id="stop852"
         offset="1"
         style="stop-color:#848484;stop-opacity:0" />
    </linearGradient>
    <linearGradient
       id="linearGradient830"
       inkscape:collect="always">
      <stop
         id="stop826"
         offset="0"
         style="stop-color:#ffffff;stop-opacity:1" />
      <stop
         id="stop828"
         offset="1"
         style="stop-color:#c1c1c1;stop-opacity:0;" />
    </linearGradient>
    <linearGradient
       gradientUnits="userSpaceOnUse"
       y2="149.94618"
       x2="58.342129"
       y1="164.99437"
       x1="58.867298"
       id="linearGradient822"
       xlink:href="#linearGradient830"
       inkscape:collect="always" />
    <linearGradient
       gradientTransform="matrix(1,0,0,1.8022399,0,-126.39494)"
       spreadMethod="reflect"
       gradientUnits="userSpaceOnUse"
       y2="155.94402"
       x2="149.32422"
       y1="157.76302"
       x1="149.32422"
       id="linearGradient832"
       xlink:href="#linearGradient830"
       inkscape:collect="always" />
    <radialGradient
       gradientUnits="userSpaceOnUse"
       gradientTransform="matrix(0.99996975,-0.00777827,0.00617108,0.79335053,-3.1202741,111.77849)"
       r="101.27904"
       fy="510.51837"
       fx="833.04443"
       cy="510.51837"
       cx="833.04443"
       id="radialGradient856"
       xlink:href="#linearGradient854"
       inkscape:collect="always" />
    <radialGradient
       r="101.27904"
       fy="510.51837"
       fx="833.04443"
       cy="510.51837"
       cx="833.04443"
       gradientTransform="matrix(0.99996975,-0.00777827,0.00617108,0.79335053,-3.1202741,111.77849)"
       gradientUnits="userSpaceOnUse"
       id="radialGradient885"
       xlink:href="#linearGradient854"
       inkscape:collect="always" />
    <linearGradient
       gradientTransform="matrix(0.36757303,0,0,0.36757303,135.18367,114.83322)"
       gradientUnits="userSpaceOnUse"
       y2="107.84846"
       x2="-52.86544"
       y1="132.45119"
       x1="-41.782688"
       id="linearGradient914"
       xlink:href="#linearGradient912"
       inkscape:collect="always" />
    <radialGradient
       gradientTransform="matrix(0.36757303,0,0,0.36757303,135.18367,114.83322)"
       gradientUnits="userSpaceOnUse"
       r="13.272474"
       fy="116.24233"
       fx="-49.639614"
       cy="116.24233"
       cx="-49.639614"
       id="radialGradient922"
       xlink:href="#linearGradient920"
       inkscape:collect="always" />
    <linearGradient
       gradientUnits="userSpaceOnUse"
       y2="167.27014"
       x2="118.01692"
       y1="159.27448"
       x1="116.07081"
       id="linearGradient932"
       xlink:href="#linearGradient930"
       inkscape:collect="always" />
    <linearGradient
       gradientTransform="matrix(0.9428832,-0.33312349,-0.33312349,-0.9428832,60.912887,344.98876)"
       y2="167.27014"
       x2="118.01692"
       y1="159.27448"
       x1="116.07081"
       gradientUnits="userSpaceOnUse"
       id="linearGradient936-3"
       xlink:href="#linearGradient930"
       inkscape:collect="always" />
    <linearGradient
       inkscape:collect="always"
       xlink:href="#linearGradient830"
       id="linearGradient1082"
       gradientUnits="userSpaceOnUse"
       x1="58.867298"
       y1="164.99437"
       x2="58.342129"
       y2="149.94618" />
    <linearGradient
       inkscape:collect="always"
       xlink:href="#linearGradient830"
       id="linearGradient1084"
       gradientUnits="userSpaceOnUse"
       gradientTransform="matrix(1,0,0,1.8022399,0,-126.39494)"
       x1="149.32422"
       y1="157.76302"
       x2="149.32422"
       y2="155.94402"
       spreadMethod="reflect" />
    <filter
       inkscape:collect="always"
       style="color-interpolation-filters:sRGB"
       id="filter1168"
       x="-0.017478096"
       width="1.0349562"
       y="-0.038286503"
       height="1.076573">
      <feGaussianBlur
         inkscape:collect="always"
         stdDeviation="1.7606832"
         id="feGaussianBlur1170" />
    </filter>
  </defs>
  <sodipodi:namedview
     id="base"
     pagecolor="#ff0000"
     bordercolor="#666666"
     borderopacity="1.0"
     gridtolerance="10000"
     guidetolerance="10"
     objecttolerance="10"
     inkscape:pageopacity="0"
     inkscape:pageshadow="2"
     inkscape:zoom="3.4414062"
     inkscape:cx="128"
     inkscape:cy="128"
     inkscape:document-units="px"
     inkscape:current-layer="layer1"
     showgrid="false"
     inkscape:window-width="1678"
     inkscape:window-height="978"
     inkscape:window-x="0"
     inkscape:window-y="38"
     inkscape:window-maximized="0"
     inkscape:snap-to-guides="false"
     inkscape:snap-grids="false"
     inkscape:snap-others="false"
     inkscape:object-nodes="false"
     inkscape:snap-nodes="false"
     inkscape:snap-global="false" />
  <metadata
     id="metadata7">
    <rdf:RDF>
      <cc:Work
         rdf:about="">
        <dc:format>image/svg+xml</dc:format>
        <dc:type
           rdf:resource="http://purl.org/dc/dcmitype/StillImage" />
        <dc:title></dc:title>
      </cc:Work>
    </rdf:RDF>
  </metadata>
  <g
     inkscape:label="Layer 1"
     inkscape:groupmode="layer"
     id="layer1">
    <g
       id="g956"
       style="fill:#191919;fill-opacity:0.8130252;filter:url(#filter1024)"
       transform="translate(5.147944,0.74123712)">
      <path
         style="opacity:1;fill:#191919;fill-opacity:0.8130252;stroke:none;stroke-opacity:1"
         d="M 57.879112,15.371924 V 132.06767 l 9.743826,-7.59558 v -9.05332 h 22.748381 v 12.31405 l 5.984397,4.33485 18.145004,-23.47725 13.81014,14.42393 25.74058,9.05332 19.60272,-6.86671 7.05852,1.61118 v -11.73863 h 22.74838 v 15.88167 l 8.28609,1.11249 V 15.371924 h -8.28609 V 26.918742 H 180.71268 V 15.371924 H 90.371319 V 27.302357 H 67.622938 V 15.371924 Z M 180.71268,31.829016 h 22.74838 V 47.749047 H 180.71268 Z M 67.622938,32.212631 H 90.371319 V 48.0943 H 67.622938 Z m 113.089742,20.44669 h 22.74838 V 68.54099 H 180.71268 Z M 67.622938,53.004575 h 22.748381 v 15.92003 H 67.622938 Z m 113.089742,20.44669 h 22.74838 V 89.332933 H 180.71268 Z M 67.622938,73.83488 H 90.371319 V 89.716549 H 67.622938 Z M 180.71268,94.243208 h 22.74838 V 110.16324 H 180.71268 Z M 67.622938,94.626823 H 90.371319 V 110.50849 H 67.622938 Z"
         id="path3336"
         inkscape:connector-curvature="0" />
      <path
         style="opacity:1;fill:#191919;fill-opacity:0.8130252;stroke:none;stroke-opacity:1"
         d="m 113.41398,127.70733 -18.490251,22.40313 -7.442135,-5.33225 v 6.78999 H 64.733213 v -7.63395 l -8.286088,6.17621 v 95.71199 h 8.286088 v -6.13784 h 22.748381 v 6.13784 h 90.341366 v -6.13784 h 22.74838 v 6.13784 h 9.74383 v -95.71199 l -9.74383,-1.15085 v 2.60859 h -22.74838 v -7.21197 l -4.52666,-1.11248 -20.67686,6.86671 -25.0117,-8.32445 z m -48.680767,28.77114 h 22.748381 v 15.88167 H 64.733213 Z m 113.089747,0 h 22.74838 v 15.88167 H 177.82296 Z M 64.733213,177.27041 h 22.748381 v 15.88167 H 64.733213 Z m 113.089747,0 h 22.74838 v 15.88167 H 177.82296 Z M 64.733213,198.06236 h 22.748381 v 15.92003 H 64.733213 Z m 113.089747,0 h 22.74838 v 15.92003 h -22.74838 z m -113.089747,20.8303 h 22.748381 v 15.88167 H 64.733213 Z m 113.089747,0 h 22.74838 v 15.88167 h -22.74838 z"
         id="path3340"
         inkscape:connector-curvature="0" />
    </g>
    <g
       id="g952"
       style="opacity:1;fill:url(#linearGradient936);fill-opacity:1"
       transform="translate(0.87174076,-2.9057889)">
      <path
         style="opacity:1;fill:url(#linearGradient938);fill-opacity:1;stroke:none;stroke-opacity:1"
         d="m -135.08008,9.8125 v 116.69531 l 9.74414,-7.5957 v -9.05273 h 22.74805 v 12.31445 l 5.984374,4.33398 18.144532,-23.47656 13.810546,14.42383 25.740235,9.05273 19.603515,-6.86719 7.058594,1.61133 v -11.73828 h 22.748047 v 15.88281 l 8.287109,1.11133 V 9.8125 H 10.501953 V 21.359375 H -12.246094 V 9.8125 h -90.341796 v 11.929688 h -22.74805 V 9.8125 Z m 122.833986,16.457031 h 22.748047 v 15.919922 h -22.748047 z m -113.089846,0.382813 h 22.74805 v 15.882812 h -22.74805 z m 113.089846,20.447265 h 22.748047 v 15.882813 h -22.748047 z m -113.089846,0.345703 h 22.74805 v 15.919922 h -22.74805 z m 113.089846,20.447266 h 22.748047 v 15.88086 h -22.748047 z m -113.089846,0.382813 h 22.74805 V 84.15625 h -22.74805 z m 113.089846,20.408203 h 22.748047 v 15.919926 h -22.748047 z m -113.089846,0.382812 h 22.74805 v 15.882814 h -22.74805 z m 48.320315,31.998044 -18.490234,22.40235 -7.443361,-5.33203 v 6.79101 h -22.74805 v -7.63476 l -8.28515,6.17578 v 95.71289 h 8.28515 v -6.13867 h 22.74805 v 6.13867 h 90.341798 v -6.13867 h 22.748047 v 6.13867 h 9.744141 V 143.4668 l -9.744141,-1.15039 v 2.60937 h -22.748047 v -7.21289 l -4.527344,-1.11133 -20.675781,6.86524 -25.011719,-8.32422 z m -48.681645,28.77149 h 22.74805 v 15.88086 h -22.74805 z m 113.089848,0 h 22.748047 v 15.88086 h -22.748047 z m -113.089848,20.79101 h 22.74805 v 15.88282 h -22.74805 z m 113.089848,0 h 22.748047 v 15.88282 h -22.748047 z m -113.089848,20.79297 h 22.74805 v 15.91992 h -22.74805 z m 113.089848,0 h 22.748047 v 15.91992 H -12.607422 Z M -125.69727,212.25 h 22.74805 v 15.88086 h -22.74805 z m 113.089848,0 h 22.748047 v 15.88086 h -22.748047 z"
         transform="translate(182.48354,-0.5811578)"
         id="path3243"
         inkscape:connector-curvature="0" />
    </g>
    <path
       style="opacity:1;fill:url(#linearGradient1137);fill-opacity:1;stroke:none;stroke-width:2;stroke-linejoin:round;stroke-miterlimit:4;stroke-dasharray:none;stroke-opacity:0.9"
       d="M 89.888361,6.6235321 V 52.496579 H 162.49188 V 6.6235321 Z m -0.72265,52.7207029 1.0664,57.636715 14.455079,-19.212889 14.43945,14.738279 25.48828,8.86524 16.72266,-4.91406 0.44531,-57.113285 z m 16.335929,60.712885 -15.589839,19.5625 -0.14453,22.47266 h 72.617189 v -26.58594 l -16.96094,5.72071 -24.29492,-7.8086 z m -15.613279,47.66797 v 60.32227 h 72.603519 v -60.32227 z"
       id="rect3319"
       inkscape:connector-curvature="0" />
    <path
       inkscape:connector-curvature="0"
       style="opacity:1;fill:none;fill-opacity:1;stroke:url(#linearGradient994);stroke-width:2.45499992;stroke-linecap:round;stroke-linejoin:round;stroke-miterlimit:4;stroke-dasharray:none;stroke-opacity:0.67632847"
       d="m 203.52942,140.92449 -9.07553,-1.08365 -0.37482,1.93355 -23.11935,-0.0324 0.26349,-6.50665 -4.71838,-1.17395 -20.6796,6.8631 -25.01417,-8.30796 -14.1777,-14.08739 -18.512307,22.39535 -7.622792,-5.42986 0.0956,6.21789 -22.821507,-0.19701 -0.227679,-6.51205 -7.893078,5.92103"
       id="path3171"
       sodipodi:nodetypes="ccccccccccccccc" />
    <path
       inkscape:connector-curvature="0"
       sodipodi:nodetypes="ccccccccccccccc"
       id="path3173"
       d="m 202.31583,122.5519 -8.17376,-1.33442 -0.0343,-14.10484 -22.80879,-0.34295 -0.10748,10.21327 -4.80868,-1.08364 -21.27997,5.88075 -25.7366,-9.03039 -13.8165,-14.448631 -18.642247,23.970191 -5.199795,-3.96299 -1.059932,-11.33053 -22.325049,0.24703 -0.137376,7.33102 -9.817487,7.71547"
       style="opacity:1;fill:none;fill-opacity:1;stroke:url(#linearGradient986);stroke-width:2.45499992;stroke-linecap:round;stroke-linejoin:round;stroke-miterlimit:4;stroke-dasharray:none;stroke-opacity:0.66666667" />
    <path
       style="fill:#000000;fill-opacity:0.67083335;stroke:none;stroke-width:0.30812544px;stroke-linecap:butt;stroke-linejoin:miter;stroke-opacity:1;filter:url(#filter1168)"
       d="m 217.05432,92.595399 c -14.22999,-0.120873 -26.5401,9.474021 -22.1582,26.365231 1.11572,4.30086 9.01602,14.20799 0.66796,16.51172 l -61.52734,16.97851 -0.54101,-0.20117 -1.56641,-0.80273 -6.54883,0.78515 -24.79687,1.8086 -71.472659,5.0332 c -8.94998,0.40429 -14.64854,2.83931 -16.44141,7.7168 l 71.09961,-0.77735 -69.04687,17.98243 c 0,0 0,0.002 0,0.002 3.01087,4.23544 9.14862,5.08728 17.89062,3.12695 l 70.287109,-13.91211 29.02539,-6.70703 0.69532,-0.62305 67.2871,0.23829 c 8.66005,0.0305 3.63848,11.66256 3.69141,16.10546 0.33259,27.91856 36.99142,26.59157 48.99023,2.34961 5.94599,-12.01305 -2.4162,-21.83635 -25.69335,-25.7207 l 0.51953,-0.31641 c -1.63667,-0.12403 -3.26714,-0.22481 -4.89844,-0.33007 -6.17841,-0.77569 -13.26362,-1.17776 -21.26758,-1.14844 l -50.21875,0.0273 48.20899,-13.22656 c 7.81006,-2.09499 14.59389,-4.36967 20.39062,-6.76758 0.56185,-0.19078 1.1237,-0.37132 1.68555,-0.56445 l -0.19922,-0.0684 c 23.42238,-10.07771 29.64856,-22.23686 20.43359,-32.63086 -6.72902,-7.589974 -15.9581,-11.161847 -24.49609,-11.234371 z m 0.68164,3.587891 c 0.34496,0.0011 0.69113,0.01289 1.03711,0.02734 6.00694,0.369212 12.08109,2.719922 16.73828,6.70313 4.39287,3.75713 9.78942,8.1697 2.36719,17.08007 -4.27485,5.13196 -10.55345,10.01747 -17.55274,11.94922 -0.57956,0.15991 -1.16714,0.28638 -1.75586,0.4043 -1.97097,0.13822 -3.95349,-0.14495 -6.03125,-0.36914 -4.27885,-0.4617 -7.85013,-2.54973 -10.2207,-6.02344 -0.2205,-0.33656 -0.44568,-0.67057 -0.64648,-1.02148 -3.43368,-6.00039 -5.13802,-15.75322 -0.84961,-21.17578 4.1335,-5.226694 10.40739,-7.594746 16.91406,-7.574223 z m 6.99023,66.83984 c 7.26093,0.0258 14.60167,3.09074 20.07422,6.91992 9.50174,6.64839 5.45315,12.32265 2.20117,17.10156 -3.44627,5.06442 -8.68635,8.92676 -14.38281,10.86133 -6.55707,2.08391 -13.66352,1.60241 -19.31054,-2.5664 -5.56196,-4.10601 -6.47758,-13.96473 -4.74024,-20.65625 0.099,-0.38145 0.22504,-0.75177 0.3457,-1.125 1.37109,-3.98864 4.27215,-6.95249 8.28907,-8.52539 1.9447,-0.76149 3.78201,-1.55503 5.71875,-1.93946 0.60047,-0.041 1.20199,-0.0725 1.80468,-0.0703 z"
       id="path1086"
       inkscape:connector-curvature="0" />
    <g
       transform="matrix(1.0238847,0,0,1.0238847,-2.596525,-8.043425)"
       id="layer1-7"
       inkscape:label="Layer 1">
      <g
         id="g867">
        <path
           sodipodi:nodetypes="cccccssccccscsssss"
           inkscape:connector-curvature="0"
           style="fill:#848484;fill-opacity:1;stroke:none;stroke-width:1.13740206px;stroke-linecap:butt;stroke-linejoin:miter;stroke-opacity:1"
           d="M 362.64258,413.82617 98.808594,432.40625 c -33.03758,1.49238 -54.075233,10.48371 -60.69336,28.48828 l 339.390626,-3.71484 351.77539,1.23828 c 31.96736,0.11263 13.42964,43.05472 13.625,59.45508 1.2277,103.05747 136.55177,98.15575 180.84375,8.66992 28.68382,-57.95176 -32.71903,-102.1427 -189.51367,-101.56836 l -201.87273,0.11741 -53.31063,-19.75825 z m 460.1289,32.53321 c 26.8027,0.0952 53.90236,11.41005 74.10352,25.54492 35.07436,24.5416 20.12923,45.48432 8.125,63.125 -27.67684,40.6721 -86.6709,60.46854 -126.25,31.25 -20.53119,-15.15678 -23.91314,-51.54917 -17.5,-76.25 4.37087,-16.83485 14.42931,-31.78322 30.625,-38.125 9.96599,-3.9024 20.40847,-5.58217 30.89648,-5.54492 z"
           transform="matrix(0.26458333,0,0,0.26458333,0,42)"
           id="path812" />
        <path
           sodipodi:nodetypes="cccccc"
           inkscape:connector-curvature="0"
           id="path814"
           d="m 10.084746,163.94512 89.796932,-0.98319 c 3.824772,-3.03411 3.999912,-4.06198 3.923702,-7.53169 l -7.691047,-2.94652 -69.640282,5.08125 c -8.741193,0.39486 -14.638259,1.61644 -16.389305,6.38015 z"
           style="fill:url(#linearGradient1082);fill-opacity:1;stroke:none;stroke-width:0.30093762px;stroke-linecap:butt;stroke-linejoin:miter;stroke-opacity:1" />
        <path
           style="fill:#848484;fill-opacity:1;stroke:none;stroke-width:1.13740206px;stroke-linecap:butt;stroke-linejoin:miter;stroke-opacity:1"
           d="m 734.23633,424.97461 c -3.75406,11.56222 -8.52753,21.92154 -4.95508,33.44336 31.96736,0.11263 13.42964,43.05472 13.625,59.45508 1.2277,103.05747 136.55177,98.15575 180.84375,8.66992 28.68382,-57.95176 -32.71903,-102.1427 -189.51367,-101.56836 z m 86.66015,22.00977 c 26.8027,0.0952 53.90236,11.41005 74.10352,25.54492 35.07436,24.5416 20.12923,45.48432 8.125,63.125 -27.67684,40.6721 -86.6709,60.46854 -126.25,31.25 -20.53119,-15.15678 -23.91314,-51.54917 -17.5,-76.25 4.37087,-16.83485 14.42931,-31.78322 30.625,-38.125 9.96599,-3.9024 20.40847,-5.58217 30.89648,-5.54492 z"
           transform="matrix(0.26458333,0,0,0.26458333,0,42)"
           id="path834"
           inkscape:connector-curvature="0" />
        <path
           style="fill:url(#linearGradient1084);fill-opacity:1;stroke:none;stroke-width:0.35519657px;stroke-linecap:butt;stroke-linejoin:miter;stroke-opacity:1"
           d="m 104.01432,155.54764 -1.15755,6.55659 106.63341,0.0571 10.33105,-6.27666 C 180.3974,152.89698 142.61662,155.66 104.01432,155.54766 Z"
           id="path824"
           inkscape:connector-curvature="0"
           sodipodi:nodetypes="ccccc" />
        <path
           style="fill:url(#radialGradient856);fill-opacity:1;stroke:none;stroke-width:1.13740206px;stroke-linecap:butt;stroke-linejoin:miter;stroke-opacity:1"
           d="m 734.23633,424.97461 c -3.75406,11.56222 -8.52753,21.92154 -4.95508,33.44336 31.96736,0.11263 13.42964,43.05472 13.625,59.45508 1.2277,103.05747 136.55177,98.15575 180.84375,8.66992 28.68382,-57.95176 -32.71903,-102.1427 -189.51367,-101.56836 z m 88.53515,21.38477 c 26.8027,0.0952 53.90236,11.41005 74.10352,25.54492 35.07436,24.5416 20.12923,45.48432 8.125,63.125 -27.67684,40.6721 -86.6709,60.46854 -126.25,31.25 -20.53119,-15.15678 -23.91314,-51.54917 -17.5,-76.25 4.37087,-16.83485 15.67931,-29.28322 31.875,-35.625 9.96599,-3.9024 19.15847,-8.08217 29.64648,-8.04492 z"
           transform="matrix(0.26458333,0,0,0.26458333,0,42)"
           id="path841"
           inkscape:connector-curvature="0"
           sodipodi:nodetypes="ccsscscsssss" />
      </g>
      <path
         style="fill:url(#linearGradient936-3);fill-opacity:1;stroke:none;stroke-width:0.26458332px;stroke-linecap:butt;stroke-linejoin:miter;stroke-opacity:1"
         d="m 105.24465,154.94876 27.90859,-2.61364 -6.58936,-3.3767 -28.400245,3.40408 z"
         id="path934"
         inkscape:connector-curvature="0" />
      <g
         transform="matrix(0.96489956,-0.26261919,-0.26261919,-0.96489956,45.414046,341.58806)"
         id="g879">
        <path
           sodipodi:nodetypes="cccccssccccscsssss"
           inkscape:connector-curvature="0"
           id="path869"
           transform="matrix(0.26458333,0,0,0.26458333,0,42)"
           d="M 362.64258,413.82617 98.808594,432.40625 c -33.03758,1.49238 -54.075233,10.48371 -60.69336,28.48828 l 339.390626,-3.71484 351.77539,1.23828 c 31.96736,0.11263 13.42964,43.05472 13.625,59.45508 1.2277,103.05747 136.55177,98.15575 180.84375,8.66992 28.68382,-57.95176 -32.71903,-102.1427 -189.51367,-101.56836 l -231.88703,-0.4753 -29.82411,-14.927 z m 460.1289,32.53321 c 26.8027,0.0952 53.90236,11.41005 74.10352,25.54492 35.07436,24.5416 20.12923,45.48432 8.125,63.125 -27.67684,40.6721 -86.6709,60.46854 -126.25,31.25 -20.53119,-15.15678 -23.91314,-51.54917 -17.5,-76.25 4.37087,-16.83485 14.42931,-31.78322 30.625,-38.125 9.96599,-3.9024 20.40847,-5.58217 30.89648,-5.54492 z"
           style="fill:#848484;fill-opacity:1;stroke:none;stroke-width:1.13740206px;stroke-linecap:butt;stroke-linejoin:miter;stroke-opacity:1" />
        <path
           style="fill:url(#linearGradient822);fill-opacity:1;stroke:none;stroke-width:0.30093762px;stroke-linecap:butt;stroke-linejoin:miter;stroke-opacity:1"
           d="m 10.084746,163.94512 89.796932,-0.98319 c 3.824772,-3.03411 3.999912,-4.06198 3.923702,-7.53169 l -7.691047,-2.94652 -69.640282,5.08125 c -8.741193,0.39486 -14.638259,1.61644 -16.389305,6.38015 z"
           id="path871"
           inkscape:connector-curvature="0"
           sodipodi:nodetypes="cccccc" />
        <path
           inkscape:connector-curvature="0"
           id="path873"
           transform="matrix(0.26458333,0,0,0.26458333,0,42)"
           d="m 734.23633,424.97461 c -3.75406,11.56222 -8.52753,21.92154 -4.95508,33.44336 31.96736,0.11263 13.42964,43.05472 13.625,59.45508 1.2277,103.05747 136.55177,98.15575 180.84375,8.66992 28.68382,-57.95176 -32.71903,-102.1427 -189.51367,-101.56836 z m 86.66015,22.00977 c 26.8027,0.0952 53.90236,11.41005 74.10352,25.54492 35.07436,24.5416 20.12923,45.48432 8.125,63.125 -27.67684,40.6721 -86.6709,60.46854 -126.25,31.25 -20.53119,-15.15678 -23.91314,-51.54917 -17.5,-76.25 4.37087,-16.83485 14.42931,-31.78322 30.625,-38.125 9.96599,-3.9024 20.40847,-5.58217 30.89648,-5.54492 z"
           style="fill:#848484;fill-opacity:1;stroke:none;stroke-width:1.13740206px;stroke-linecap:butt;stroke-linejoin:miter;stroke-opacity:1" />
        <path
           sodipodi:nodetypes="ccccc"
           inkscape:connector-curvature="0"
           id="path875"
           d="m 104.01432,155.54764 -1.15755,6.55659 106.12545,-1.04097 7.97065,-5.3749 c -38.31601,-2.50792 -75.29237,-0.0938 -112.93855,-0.14072 z"
           style="fill:url(#linearGradient832);fill-opacity:1;stroke:none;stroke-width:0.35519657px;stroke-linecap:butt;stroke-linejoin:miter;stroke-opacity:1" />
        <path
           sodipodi:nodetypes="ccsscscsssss"
           inkscape:connector-curvature="0"
           id="path877"
           transform="matrix(0.26458333,0,0,0.26458333,0,42)"
           d="m 734.23633,424.97461 c -3.75406,11.56222 -8.52753,21.92154 -4.95508,33.44336 31.96736,0.11263 13.42964,43.05472 13.625,59.45508 1.2277,103.05747 136.55177,98.15575 180.84375,8.66992 28.68382,-57.95176 -32.71903,-102.1427 -189.51367,-101.56836 z m 88.53515,21.38477 c 26.8027,0.0952 53.90236,11.41005 74.10352,25.54492 35.07436,24.5416 20.12923,45.48432 8.125,63.125 -27.67684,40.6721 -86.6709,60.46854 -126.25,31.25 -20.53119,-15.15678 -23.91314,-51.54917 -17.5,-76.25 4.37087,-16.83485 15.67931,-29.28322 31.875,-35.625 9.96599,-3.9024 19.15847,-8.08217 29.64648,-8.04492 z"
           style="fill:url(#radialGradient885);fill-opacity:1;stroke:none;stroke-width:1.13740206px;stroke-linecap:butt;stroke-linejoin:miter;stroke-opacity:1" />
      </g>
      <path
         inkscape:connector-curvature="0"
         id="path924"
         d="m 105.10646,164.41758 27.1852,-6.83265 -5.08814,5.3789 -27.912082,6.25114 z"
         style="fill:url(#linearGradient932);fill-opacity:1;stroke:none;stroke-width:0.26458332px;stroke-linecap:butt;stroke-linejoin:miter;stroke-opacity:1" />
      <circle
         r="4.3088651"
         cy="159.15666"
         cx="117.04388"
         id="path906"
         style="opacity:1;fill:url(#radialGradient922);fill-opacity:1;stroke:url(#linearGradient914);stroke-width:1.1394763;stroke-linecap:round;stroke-linejoin:round;stroke-miterlimit:4;stroke-dasharray:none;stroke-dashoffset:0;stroke-opacity:1;paint-order:fill markers stroke" />
    </g>
  </g>
</svg>
