<?xml version="1.0" encoding="UTF-8" standalone="no"?>
<!-- Created with Inkscape (http://www.inkscape.org/) -->
<svg xmlns:dc="http://purl.org/dc/elements/1.1/" xmlns:cc="http://creativecommons.org/ns#" xmlns:rdf="http://www.w3.org/1999/02/22-rdf-syntax-ns#" xmlns:svg="http://www.w3.org/2000/svg" xmlns="http://www.w3.org/2000/svg" xmlns:xlink="http://www.w3.org/1999/xlink" xmlns:sodipodi="http://sodipodi.sourceforge.net/DTD/sodipodi-0.dtd" xmlns:inkscape="http://www.inkscape.org/namespaces/inkscape" id="svg2973" sodipodi:version="0.32" inkscape:version="0.92.5 (2060ec1f9f, 2020-04-08)" width="256" height="256" version="1.0" sodipodi:docname="MasterPDFEditor.svg" inkscape:output_extension="org.inkscape.output.svg.inkscape">
 <defs id="defs2976">
  <linearGradient id="linearGradient1031">
   <stop stop-opacity="1" stop-color="#000000" id="stop1027"/>
   <stop id="stop1033" stop-color="#fcfcfc" stop-opacity="1" offset="0.489"/>
   <stop stop-opacity="1" stop-color="#b5aeae" id="stop1029" offset="1"/>
  </linearGradient>
  <linearGradient inkscape:collect="always" id="linearGradient1018">
   <stop id="stop1014" stop-color="#d0d0d0" stop-opacity="1"/>
   <stop offset="1" id="stop1016" stop-color="#9c9c9c" stop-opacity="1"/>
  </linearGradient>
  <linearGradient inkscape:collect="always" id="linearGradient988">
   <stop id="stop984" stop-color="#980000" stop-opacity="1"/>
   <stop offset="1" id="stop986" stop-color="#350000" stop-opacity="1"/>
  </linearGradient>
  <linearGradient inkscape:collect="always" id="linearGradient1422">
   <stop id="stop1418" stop-color="#ffdeaf" stop-opacity="1"/>
   <stop id="stop1426" offset="0.904" stop-color="#eabb76" stop-opacity="1"/>
   <stop offset="1" id="stop1420" stop-color="#fff2df" stop-opacity="1"/>
  </linearGradient>
  <linearGradient id="linearGradient1414">
   <stop id="stop1410" stop-color="#2b2b2b" stop-opacity="1"/>
   <stop stop-opacity="1" stop-color="#d6d6d6" id="stop1025" offset="0.624"/>
   <stop offset="1" id="stop1412" stop-color="#7d7d7d" stop-opacity="1"/>
  </linearGradient>
  <linearGradient inkscape:collect="always" id="linearGradient1408">
   <stop id="stop1404" stop-color="#7f7f7f" stop-opacity="1"/>
   <stop offset="1" id="stop1406" stop-color="#020000" stop-opacity="1"/>
  </linearGradient>
  <linearGradient id="linearGradient1402">
   <stop id="stop1398" stop-color="#878787" stop-opacity="1"/>
   <stop offset="1" id="stop1400" stop-color="#3b3b3b" stop-opacity="1"/>
  </linearGradient>
  <linearGradient inkscape:collect="always" id="linearGradient3223">
   <stop id="stop3225" stop-color="#000000" stop-opacity="1"/>
   <stop offset="1" id="stop3227" stop-color="#414141" stop-opacity="1"/>
  </linearGradient>
  <linearGradient inkscape:collect="always" id="linearGradient3233">
   <stop id="stop3235" stop-color="#716f0e" stop-opacity="1"/>
   <stop offset="1" id="stop3237" stop-color="#f2ea55" stop-opacity="1"/>
  </linearGradient>
  <linearGradient id="linearGradient3567" inkscape:collect="always">
   <stop id="stop3569" stop-color="#7f7f7f" stop-opacity="1"/>
   <stop id="stop3571" offset="1" stop-color="#414141" stop-opacity="1"/>
  </linearGradient>
  <linearGradient id="linearGradient3575" inkscape:collect="always">
   <stop id="stop3577" stop-color="#7f7f7f" stop-opacity="1"/>
   <stop id="stop3579" offset="1" stop-color="#000000" stop-opacity="1"/>
  </linearGradient>
  <linearGradient id="linearGradient3595" inkscape:collect="always">
   <stop id="stop3597" stop-color="#626262" stop-opacity="1"/>
   <stop id="stop3599" offset="1" stop-color="#000000" stop-opacity="1"/>
  </linearGradient>
  <linearGradient id="linearGradient3603" inkscape:collect="always">
   <stop id="stop3605" stop-color="#fffff4" stop-opacity="1"/>
   <stop id="stop3607" offset="1" stop-color="#bdb505" stop-opacity="1"/>
  </linearGradient>
  <linearGradient id="linearGradient3946">
   <stop id="stop3948" stop-color="#000000" stop-opacity="1"/>
   <stop offset="1" id="stop3950" stop-color="#b5aeae" stop-opacity="1"/>
  </linearGradient>
  <linearGradient inkscape:collect="always" xlink:href="#linearGradient3223" id="linearGradient3494" gradientUnits="userSpaceOnUse" x1="43.04" y1="25.786" x2="70.814" y2="72.929"/>
  <linearGradient inkscape:collect="always" xlink:href="#linearGradient3567" id="linearGradient3504" gradientUnits="userSpaceOnUse" x1="31.614" y1="70.36" x2="36.1" y2="66.5"/>
  <radialGradient inkscape:collect="always" xlink:href="#linearGradient3595" id="radialGradient3508" gradientUnits="userSpaceOnUse" gradientTransform="matrix(1,0,0,0.7310558,0,12.717219)" cx="47.36" cy="90.86" fx="47.36" fy="90.86" r="49.13"/>
  <linearGradient inkscape:collect="always" xlink:href="#linearGradient3233" id="linearGradient3510" gradientUnits="userSpaceOnUse" x1="82.36" y1="57.5" x2="88.15" y2="65.07"/>
  <radialGradient inkscape:collect="always" xlink:href="#linearGradient3603" id="radialGradient3524" gradientUnits="userSpaceOnUse" gradientTransform="matrix(1.784869,-1.506088,0.51285745,0.60778874,-98.805816,122.4763)" cx="58.29" cy="103.46" fx="58.29" fy="103.46" r="33.491"/>
  <radialGradient inkscape:collect="always" xlink:href="#linearGradient3575" id="radialGradient3526" gradientUnits="userSpaceOnUse" gradientTransform="matrix(1.9568262,-1.3851625,1.1708396,1.1956407,-77.309733,124.39105)" cx="49.43" cy="69.813" fx="49.43" fy="69.813" r="52.871"/>
  <linearGradient inkscape:collect="always" xlink:href="#linearGradient3946" id="linearGradient3528" gradientUnits="userSpaceOnUse" x1="201.84" y1="57.21" x2="45.25" y2="189.04"/>
  <linearGradient inkscape:collect="always" xlink:href="#linearGradient1402" id="linearGradient3556" gradientUnits="userSpaceOnUse" x1="61.933" y1="170.06" x2="59.679" y2="171.86"/>
  <radialGradient inkscape:collect="always" xlink:href="#linearGradient1408" id="radialGradient3562" gradientUnits="userSpaceOnUse" gradientTransform="matrix(1.9568262,-1.3851625,1.1708396,1.1956407,-77.309733,124.39105)" cx="50.38" cy="68.905" fx="50.38" fy="68.905" r="52.871"/>
  <linearGradient inkscape:collect="always" xlink:href="#linearGradient1414" id="linearGradient3564" gradientUnits="userSpaceOnUse" x1="201.84" y1="57.21" x2="56.51" y2="177.59"/>
  <linearGradient inkscape:collect="always" xlink:href="#linearGradient1422" id="linearGradient1424" x1="27.896" y1="143.55" x2="189.33" y2="215.03" gradientUnits="userSpaceOnUse" gradientTransform="matrix(1.0428169,0,0,1.0428169,-2.8612339,-3.1766026)"/>
  <linearGradient id="linearGradient3266">
   <stop id="stop3268" stop-color="#0233fb" stop-opacity="1"/>
   <stop id="stop3270" offset="1" stop-color="#002aff" stop-opacity="0"/>
  </linearGradient>
  <linearGradient id="linearGradient3375">
   <stop id="stop3377" stop-color="#000000" stop-opacity="0"/>
   <stop offset="0.345" id="stop3383" stop-color="#0026ff" stop-opacity="1"/>
   <stop id="stop3385" offset="0.55" stop-color="#000000" stop-opacity="0"/>
   <stop offset="0.775" id="stop3387" stop-color="#0026ff" stop-opacity="1"/>
   <stop id="stop3379" offset="1" stop-color="#000000" stop-opacity="0"/>
  </linearGradient>
  <radialGradient r="656.09" fy="-7.08" fx="973.1" cy="495.26" cx="726.77" spreadMethod="reflect" gradientTransform="matrix(0.9823703,-0.02622708,0.00344477,0.4720402,11.10677,261.29754)" gradientUnits="userSpaceOnUse" id="radialGradient3285" xlink:href="#linearGradient3375" inkscape:collect="always"/>
  <radialGradient r="194.71" fy="462.12" fx="814.35" cy="457.53" cx="922.12" gradientTransform="matrix(0.14502319,-0.00325348,9.7569555e-4,0.0434914,-590.98424,788.98549)" gradientUnits="userSpaceOnUse" id="radialGradient2505" xlink:href="#linearGradient3266" inkscape:collect="always"/>
  <radialGradient r="194.71" fy="462.12" fx="814.35" cy="457.53" cx="922.12" gradientTransform="matrix(0.14502319,-0.00325348,9.7569555e-4,0.0434914,228.27221,-906.82249)" gradientUnits="userSpaceOnUse" id="radialGradient2509" xlink:href="#linearGradient3266" inkscape:collect="always"/>
  <linearGradient id="linearGradient4502">
   <stop id="stop4504" stop-color="#383838" stop-opacity="1"/>
   <stop id="stop4506" offset="1" stop-color="#9a9a9a" stop-opacity="1"/>
  </linearGradient>
  <linearGradient id="linearGradient3193">
   <stop id="stop3195" stop-color="#ffffff" stop-opacity="0.425"/>
   <stop offset="1" id="stop3197" stop-color="#ffffff" stop-opacity="0"/>
  </linearGradient>
  <linearGradient id="linearGradient3203">
   <stop id="stop3205" stop-color="#000000" stop-opacity="1"/>
   <stop offset="1" id="stop3207" stop-color="#5a5a5a" stop-opacity="1"/>
  </linearGradient>
  <linearGradient id="linearGradient3213">
   <stop id="stop3215" stop-color="#ffffff" stop-opacity="0.46"/>
   <stop offset="1" id="stop3217" stop-color="#ffffff" stop-opacity="0"/>
  </linearGradient>
  <linearGradient id="linearGradient3223-1">
   <stop id="stop3225-8" stop-color="#585858" stop-opacity="1"/>
   <stop offset="1" id="stop3227-7" stop-color="#ffffff" stop-opacity="0.655"/>
  </linearGradient>
  <linearGradient id="linearGradient3243">
   <stop id="stop3245" stop-color="#ffffff" stop-opacity="1"/>
   <stop offset="1" id="stop3247" stop-color="#ffffff" stop-opacity="0"/>
  </linearGradient>
  <linearGradient y2="103.39" x2="3.141" y1="99.81" x1="3.141" spreadMethod="reflect" gradientTransform="matrix(1.1300919,0,0,0.84331954,-154.75447,-295.53778)" gradientUnits="userSpaceOnUse" id="linearGradient3523" xlink:href="#linearGradient3243" inkscape:collect="always"/>
  <linearGradient gradientTransform="matrix(0.8544915,0,0,0.8544915,-156.91537,-296.67511)" y2="105.16" x2="267.48" y1="98.35" x1="267.48" spreadMethod="reflect" gradientUnits="userSpaceOnUse" id="linearGradient3525" xlink:href="#linearGradient4502" inkscape:collect="always"/>
  <linearGradient y2="80.895" x2="124.63" y1="84.17" x1="124.63" spreadMethod="reflect" gradientTransform="matrix(0.86324107,0,0,0.85420474,-156.49739,-279.90278)" gradientUnits="userSpaceOnUse" id="linearGradient3527" xlink:href="#linearGradient3203" inkscape:collect="always"/>
  <linearGradient gradientTransform="matrix(0.8544915,0,0,0.8544915,-156.91537,-296.67511)" y2="105.34" x2="131.09" y1="97.4" x1="131.09" spreadMethod="reflect" gradientUnits="userSpaceOnUse" id="linearGradient3529" xlink:href="#linearGradient3193" inkscape:collect="always"/>
  <linearGradient y2="101.45" x2="124.98" y1="98.47" x1="124.98" spreadMethod="reflect" gradientTransform="matrix(0.8544915,0,0,0.8544915,-156.91537,-298.07337)" gradientUnits="userSpaceOnUse" id="linearGradient3531" xlink:href="#linearGradient3213" inkscape:collect="always"/>
  <linearGradient y2="96.73" x2="244.8" y1="109.09" x1="244.66" spreadMethod="reflect" gradientTransform="matrix(1.1285679,0,0,0.85178516,-220.36995,-296.39906)" gradientUnits="userSpaceOnUse" id="linearGradient3533" xlink:href="#linearGradient3223-1" inkscape:collect="always"/>
  <linearGradient gradientTransform="matrix(-0.47346405,-0.711328,0.711328,-0.47346405,-160.02443,295.00973)" y2="109.3" x2="248.4" y1="99.28" x1="249.07" gradientUnits="userSpaceOnUse" id="linearGradient3535" xlink:href="#linearGradient3243" inkscape:collect="always"/>
  <linearGradient gradientTransform="matrix(-0.47346405,-0.711328,0.711328,-0.47346405,-160.02443,295.00973)" y2="105.75" x2="14.11" y1="98.55" x1="12.738" spreadMethod="reflect" gradientUnits="userSpaceOnUse" id="linearGradient3537" xlink:href="#linearGradient3243" inkscape:collect="always"/>
  <filter inkscape:collect="always" id="filter2785" x="-0.023" width="1.047" y="-0.025" height="1.05" color-interpolation-filters="sRGB">
   <feGaussianBlur inkscape:collect="always" id="feGaussianBlur2787" stdDeviation="1.7793"/>
  </filter>
  <filter inkscape:collect="always" id="filter2791" x="-0.011" width="1.023" y="-0.013" height="1.025" color-interpolation-filters="sRGB">
   <feGaussianBlur inkscape:collect="always" stdDeviation="1.07442" id="feGaussianBlur2793"/>
  </filter>
  <linearGradient inkscape:collect="always" xlink:href="#linearGradient988" id="linearGradient990" x1="81.69" y1="130.98" x2="92.05" y2="103.37" gradientUnits="userSpaceOnUse"/>
  <linearGradient inkscape:collect="always" xlink:href="#linearGradient1018" id="linearGradient1022" x1="62.52" y1="142.24" x2="105.02" y2="88.45" gradientUnits="userSpaceOnUse"/>
  <linearGradient inkscape:collect="always" xlink:href="#linearGradient1031" id="linearGradient1026" gradientUnits="userSpaceOnUse" x1="201.84" y1="57.21" x2="45.25" y2="189.04"/>
 </defs>
 <sodipodi:namedview inkscape:window-height="1025" inkscape:window-width="1680" inkscape:pageshadow="2" inkscape:pageopacity="0" guidetolerance="10.0" gridtolerance="10.0" objecttolerance="10.0" borderopacity="1.0" bordercolor="#666666" pagecolor="#ff0000" id="base" inkscape:zoom="3.4414062" inkscape:cx="128" inkscape:cy="128" inkscape:window-x="-5" inkscape:window-y="0" inkscape:current-layer="svg2973" showgrid="false" inkscape:snap-to-guides="false" inkscape:snap-grids="false" inkscape:snap-others="false" inkscape:object-nodes="false" inkscape:snap-nodes="false" inkscape:snap-global="false"/>
 <metadata id="metadata2978">
  <rdf:RDF>
   <cc:Work>
    <dc:format>image/svg+xml</dc:format>
    <dc:type rdf:resource="http://purl.org/dc/dcmitype/StillImage"/>
    <dc:title/>
   </cc:Work>
  </rdf:RDF>
 </metadata>
 <path d="M 123.49603,37.775255 12.785471,166.79228 l 0.871737,8.13621 125.530082,55.50057 9.29852,-3.48695 2.61521,-3.48695 13.65721,6.9739 c 7.76327,5.04032 9.6563,8.61309 8.13621,11.33257 l 65.67083,-146.742334 -7.84563,-11.041997 -20.6311,-5.23042 8.71736,-16.562997 z" id="path2789" inkscape:connector-curvature="0" sodipodi:nodetypes="ccccccccccccc" transform="matrix(1.0428169,0,0,1.0428169,-2.8612338,-3.1766026)" stroke-opacity="1" fill="#000000" filter="url(#filter2791)" stroke="none" stroke-linejoin="miter" fill-opacity="0.7" stroke-linecap="butt" stroke-width="1"/>
 <g transform="matrix(2.1902164,-1.016737,1.016737,2.1902164,-66.749927,86.317157)" id="g3807">
  <g id="g3427" stroke-miterlimit="4" stroke-dasharray="none" stroke-opacity="1" fill="url(#linearGradient3494)" fill-rule="evenodd" stroke="#000000" stroke-linejoin="miter" fill-opacity="1" stroke-linecap="butt" stroke-width="0.2">
   <path id="path3431" d="M 47.571428,83 110.85714,36.857143 v 2 L 47.571428,85 Z" inkscape:connector-curvature="0" fill="url(#linearGradient3494)"/>
   <path id="path3433" d="M 110.85714,36.857143 81.428571,11.285714 v 2 l 29.428569,25.571429 z" inkscape:connector-curvature="0" fill="url(#linearGradient3494)"/>
   <path id="path3435" d="m 81.428571,11.285714 h -2.285714 v 2 h 2.285714 z" inkscape:connector-curvature="0" fill="url(#linearGradient3494)"/>
   <path id="path3437" d="M 79.142857,11.285714 13,40 v 2 L 79.142857,13.285714 Z" inkscape:connector-curvature="0" fill="url(#linearGradient3494)"/>
   <path id="path3439" d="m 13,40 -0.285713,3.142857 v 2 L 13,42 Z" inkscape:connector-curvature="0" fill="url(#linearGradient3494)"/>
   <path id="path3429" d="M 12.714287,43.142857 47.571428,83 v 2 L 12.714287,45.142857 Z" inkscape:connector-curvature="0" fill="url(#linearGradient3504)" fill-opacity="1"/>
  </g>
  <path sodipodi:nodetypes="ccccccc" id="path2451" d="M 12.857144,43.285714 47.714285,83.142857 111,37 81.571428,11.428571 H 79.285714 L 13.142857,40.142857 Z" inkscape:connector-curvature="0" stroke-miterlimit="4" stroke-dasharray="none" stroke-opacity="1" fill="url(#radialGradient3508)" fill-rule="evenodd" stroke="#000000" stroke-linejoin="miter" fill-opacity="1" stroke-linecap="butt" stroke-width="0.1"/>
  <g transform="translate(-2.8571429,-11.285714)" id="g3533" stroke-miterlimit="4" stroke-dasharray="none" stroke-opacity="1" stroke="#717171" stroke-width="0.1">
   <g id="g3347" transform="translate(2.8571427,11.285714)" stroke-miterlimit="4" stroke-dasharray="none" stroke-opacity="1" fill="url(#linearGradient3510)" fill-rule="evenodd" stroke="#717171" stroke-linejoin="miter" fill-opacity="1" stroke-linecap="butt" stroke-width="0.1">
    <path id="path3351" d="m 54,90 4.000001,-0.03571 v 2 L 54,92 Z" inkscape:connector-curvature="0" stroke-miterlimit="4" stroke-dasharray="none" stroke-opacity="1" fill="url(#linearGradient3510)" stroke="#717171" stroke-width="0.1"/>
    <path id="path3353" d="m 58.000001,89.964285 56.571429,-47.321428 -1.1724,2.794812 -55.399029,46.526616 z" inkscape:connector-curvature="0" sodipodi:nodetypes="ccccc" stroke-miterlimit="4" stroke-dasharray="none" stroke-opacity="1" fill="url(#linearGradient3510)" stroke="#717171" stroke-width="0.1"/>
    <path id="path3355" d="m 114.57143,42.642857 v -2.214286 2 2.214286 z" inkscape:connector-curvature="0" stroke-miterlimit="4" stroke-dasharray="none" stroke-opacity="1" fill="url(#linearGradient3510)" stroke="#717171" stroke-width="0.1"/>
    <path id="path3357" d="m 114.57143,40.428571 -3.85714,-3.571428 v 2 l 3.85714,3.571428 z" inkscape:connector-curvature="0" stroke-miterlimit="4" stroke-dasharray="none" stroke-opacity="1" fill="url(#linearGradient3510)" stroke="#717171" stroke-width="0.1"/>
    <path id="path3359" d="M 110.71429,36.857143 47.714286,82.857142 v 2 L 110.71429,38.857143 Z" inkscape:connector-curvature="0" stroke-miterlimit="4" stroke-dasharray="none" stroke-opacity="1" fill="url(#linearGradient3510)" stroke="#717171" stroke-width="0.1"/>
    <path id="path3349" d="M 47.714286,82.857142 54,90 v 2 l -6.380055,-6.907005 z" sodipodi:nodetypes="ccccc" inkscape:connector-curvature="0" stroke-miterlimit="4" stroke-dasharray="none" stroke-opacity="1" fill="url(#linearGradient3510)" stroke="#717171" stroke-width="0.1"/>
   </g>
   <path sodipodi:nodetypes="ccccccc" id="path3231" d="m 50.382747,94.190027 6.474396,7.095683 4.000001,-0.0357 56.571426,-47.321429 v -2.214286 l -3.85714,-3.571428 z" inkscape:connector-curvature="0" stroke-miterlimit="4" stroke-dasharray="none" stroke-opacity="1" fill="url(#radialGradient3524)" fill-rule="evenodd" stroke="#717171" stroke-linejoin="miter" fill-opacity="1" stroke-linecap="butt" stroke-width="0.1"/>
  </g>
 </g>
 <path d="m 128.34668,47.730855 113.93574,36.362469 c 5.46851,3.268824 9.8623,7.075004 4.19442,15.912026 l -66.01062,147.11304 c 3.81774,-10.05073 -1.29179,-15.94086 -9.67827,-20.04101 L 25.622701,165.90887 Z" id="path1416" inkscape:connector-curvature="0" sodipodi:nodetypes="ccccccc" stroke-opacity="1" fill="url(#linearGradient1424)" stroke="none" stroke-linejoin="miter" fill-opacity="1" stroke-linecap="butt" stroke-width="1.043"/>
 <g id="g1775" transform="matrix(0.35441004,0.11350097,-0.15799274,0.36281094,265.30116,62.990307)">
  <g transform="translate(-277.5305,-773.50076)" id="g4246">
   <rect id="rect2601" width="228.17" height="143.13" x="13.43" y="863.3" stroke-miterlimit="4" opacity="1" stroke-dasharray="none" stroke-opacity="1" fill="#000000" stroke="none" stroke-linejoin="round" fill-opacity="1" stroke-linecap="round" stroke-width="2"/>
   <g id="g3393" transform="matrix(0.14908799,-0.06010151,0.06010151,0.14908799,-31.736786,914.64631)">
    <ellipse transform="matrix(1,0,0,0.5228216,-7.7111382,312.75441)" id="path3373" cx="809.03" cy="458.81" rx="656.09" ry="309.73" stroke-miterlimit="4" opacity="1" stroke-dasharray="none" stroke-opacity="1" fill="url(#radialGradient3285)" stroke="none" stroke-linejoin="round" fill-opacity="1" stroke-linecap="round" stroke-width="2"/>
    <ellipse id="path3389" transform="matrix(-1,0,0,-0.5228216,1751.7136,645.99721)" cx="809.03" cy="458.81" rx="656.09" ry="309.73" stroke-miterlimit="4" opacity="1" stroke-dasharray="none" stroke-opacity="1" fill="url(#radialGradient3285)" stroke="none" stroke-linejoin="round" fill-opacity="1" stroke-linecap="round" stroke-width="2"/>
   </g>
   <ellipse id="path2484" transform="rotate(-33.590465)" cx="-456.81" cy="805.88" rx="31.3" ry="8.47" stroke-miterlimit="4" stroke-dasharray="none" stroke-opacity="1" fill="url(#radialGradient2505)" stroke="none" stroke-linejoin="round" fill-opacity="1" stroke-linecap="round" stroke-width="2"/>
   <ellipse transform="rotate(146.40953)" id="path2507" cx="362.45" cy="-889.92" rx="31.3" ry="8.47" stroke-miterlimit="4" stroke-dasharray="none" stroke-opacity="1" fill="url(#radialGradient2509)" stroke="none" stroke-linejoin="round" fill-opacity="1" stroke-linecap="round" stroke-width="2"/>
  </g>
 </g>
 <path d="m 116.52888,134.39474 71.20984,24.24165 -22.12052,43.93797 -73.330971,-26.36279 z" id="path1777" inkscape:connector-curvature="0" sodipodi:nodetypes="ccccc" stroke-opacity="1" fill="#f8ebda" stroke="#c67e12" stroke-linejoin="miter" fill-opacity="1" stroke-linecap="butt" stroke-width="1.043"/>
 <g id="g1032" stroke-opacity="1" stroke="#393939">
  <path inkscape:connector-curvature="0" id="path1020" d="m 164.52949,158.52498 -44.60612,-15.5518" sodipodi:nodetypes="cc" stroke-opacity="1" fill="none" stroke="#393939" stroke-linejoin="miter" stroke-linecap="butt" stroke-width="1"/>
  <path inkscape:connector-curvature="0" id="path1022" d="m 161.95295,167.99806 -45.861,-16.9789" sodipodi:nodetypes="cc" stroke-opacity="1" fill="none" stroke="#393939" stroke-linejoin="miter" stroke-linecap="butt" stroke-width="1"/>
  <path inkscape:connector-curvature="0" id="path1024" d="M 165.51724,180.52107 111.57393,160.43836" sodipodi:nodetypes="cc" stroke-opacity="1" fill="none" stroke="#393939" stroke-linejoin="miter" stroke-linecap="butt" stroke-width="1"/>
  <path inkscape:connector-curvature="0" id="path1026" d="M 161.30268,189.33333 105.8268,169.0526" sodipodi:nodetypes="cc" stroke-opacity="1" fill="none" stroke="#393939" stroke-linejoin="miter" stroke-linecap="butt" stroke-width="1"/>
 </g>
 <g id="g2909" transform="matrix(0.91827666,-0.52908536,0.42628018,0.91127694,-45.540463,70.320578)" stroke-miterlimit="4" stroke-dasharray="none" stroke="url(#linearGradient3528)" stroke-width="0.5">
  <g id="g2911" stroke-miterlimit="4" stroke-dasharray="none" stroke-opacity="1" fill="url(#radialGradient3526)" fill-rule="evenodd" stroke="url(#linearGradient3528)" stroke-linejoin="miter" fill-opacity="1" stroke-linecap="butt" stroke-width="0.5">
   <path id="path2915" d="m 72.023685,183.66803 70.456825,-45.08066 v 2 l -70.456825,45.08066 z" inkscape:connector-curvature="0" stroke-miterlimit="4" stroke-dasharray="none" fill="url(#radialGradient3526)" stroke="url(#linearGradient1026)" stroke-width="0.5"/>
   <path id="path2917" d="m 142.48051,138.58737 23.17557,8.97653 v 2 l -23.17557,-8.97653 z" inkscape:connector-curvature="0" stroke-miterlimit="4" stroke-dasharray="none" fill="url(#radialGradient3526)" stroke="url(#linearGradient3528)" stroke-width="0.5"/>
   <path id="path2919" d="m 165.65608,147.5639 66.63256,-51.432485 v 2 L 165.65608,149.5639 Z" inkscape:connector-curvature="0" stroke-miterlimit="4" stroke-dasharray="none" fill="url(#radialGradient3526)" stroke="url(#linearGradient3528)" stroke-width="0.5"/>
   <path id="path2921" d="m 232.28864,96.131415 -69.66216,-60.26579 v 2 l 69.66216,60.26579 z" inkscape:connector-curvature="0" stroke-miterlimit="4" stroke-dasharray="none" fill="url(#radialGradient3526)" stroke="url(#linearGradient3528)" stroke-width="0.5"/>
   <path id="path2923" d="m 162.62648,35.865625 -6.69203,0.05605 v 2 l 6.69203,-0.05605 z" inkscape:connector-curvature="0" stroke-miterlimit="4" stroke-dasharray="none" fill="url(#radialGradient3526)" stroke="url(#linearGradient3528)" stroke-width="0.5"/>
   <path id="path2925" d="M 155.93445,35.921678 5.0853409,101.49367 v 2 L 155.93445,37.921678 Z" inkscape:connector-curvature="0" stroke-miterlimit="4" stroke-dasharray="none" fill="url(#radialGradient3526)" stroke="url(#linearGradient3528)" stroke-width="0.5"/>
   <path id="path2927" d="m 5.0853409,101.49367 0.1026194,7.30992 v 2 l -0.1026194,-7.30992 z" inkscape:connector-curvature="0" stroke-miterlimit="4" stroke-dasharray="none" fill="url(#radialGradient3526)" stroke="url(#linearGradient3528)" stroke-width="0.5"/>
   <path id="path2913" d="m 5.1879603,108.80359 66.8357247,74.86444 v 2 L 5.1879603,110.80359 Z" inkscape:connector-curvature="0" stroke-miterlimit="4" stroke-dasharray="none" fill="#575757" stroke="url(#linearGradient3556)" fill-opacity="1" stroke-width="0.5"/>
  </g>
  <path sodipodi:nodetypes="ccccccccc" id="path3573" d="m 5.1879603,108.80359 66.8357247,74.86444 70.456825,-45.08066 23.17557,8.97653 66.63256,-51.432485 -69.66216,-60.26579 -6.69203,0.05605 L 5.0853409,101.49367 Z" inkscape:connector-curvature="0" stroke-miterlimit="4" stroke-dasharray="none" stroke-opacity="1" fill="url(#radialGradient3562)" fill-rule="evenodd" stroke="url(#linearGradient3564)" stroke-linejoin="miter" fill-opacity="1" stroke-linecap="butt" stroke-width="0.679"/>
 </g>
 <g id="g1004" transform="matrix(1.0414244,-0.05387352,0.05387352,1.0414244,-15.875706,-0.64957411)">
  <path d="m 50.851307,135.99092 33.125994,-40.390469 6.683314,-3.777525 20.921685,5.811578 2.90579,6.683316 -34.288315,45.03973 -6.683315,2.90578 -23.827469,-8.71736 z" id="path980" inkscape:connector-curvature="0" sodipodi:nodetypes="ccccccccc" stroke-dasharray="none" stroke-opacity="1" fill="#aeaeae" stroke="#000000" stroke-linejoin="miter" fill-opacity="1" stroke-linecap="butt" stroke-width="0.8" stroke-miterlimit="4"/>
  <path sodipodi:nodetypes="ccccccccc" inkscape:connector-curvature="0" id="path978" d="m 49.688991,131.05108 33.125994,-40.39047 6.683314,-3.777525 20.921681,5.811578 2.90579,6.683314 -34.288311,45.039733 -6.683315,2.90578 -23.827469,-8.71736 z" stroke-dasharray="none" stroke-opacity="1" fill="url(#linearGradient1022)" stroke="#e8e8e8" stroke-linejoin="miter" fill-opacity="1" stroke-linecap="butt" stroke-width="0.6" stroke-miterlimit="4"/>
  <path sodipodi:nodetypes="ccccc" inkscape:connector-curvature="0" id="path996" d="m 113.514,99.04829 c 0,0.550661 0.69305,5.63012 0.69305,5.63012 l -34.374619,44.90167 -0.82204,-4.86468 z" stroke-opacity="1" fill="#ddd8d8" stroke="none" stroke-linejoin="miter" fill-opacity="1" stroke-linecap="butt" stroke-width="1"/>
  <path sodipodi:nodetypes="ccccccc" inkscape:connector-curvature="0" id="path982" d="m 57.164406,120.80118 30.590419,10.83105 0.871737,7.55506 18.306468,-24.11805 -0.58116,-6.39274 -31.492648,-9.48829 z" stroke-opacity="1" fill="#b00000" stroke="url(#linearGradient990)" stroke-linejoin="round" fill-opacity="1" stroke-linecap="butt" stroke-width="1"/>
  <path sodipodi:nodetypes="ccccc" inkscape:connector-curvature="0" id="path992" d="m 48.45815,138.48899 1.211454,4.73568 24.105559,8.79719 -0.634026,-4.11811 z" stroke-opacity="1" fill="#cecece" stroke="none" stroke-linejoin="miter" fill-opacity="1" stroke-linecap="butt" stroke-width="1"/>
  <path sodipodi:nodetypes="ccccc" inkscape:connector-curvature="0" id="path994" d="m 72.920873,147.48209 0.82204,4.36514 5.882638,-2.34503 -0.491645,-4.7868 z" stroke-opacity="1" fill="#ddd8d8" stroke="none" stroke-linejoin="miter" fill-opacity="1" stroke-linecap="butt" stroke-width="1"/>
 </g>
 <path d="m 15.552083,70.809028 c -1.3791,-0.03079 -3.42534,1.393079 -5.0625,3.65625 -2.0149697,2.785441 -2.6254997,5.7829 -1.3749997,6.6875 l 10.0312497,7.25 c -0.73273,2.29335 -0.65332,4.17101 0.40625,4.9375 l 15.4375,11.187502 c 0.46052,0.33314 1.08998,0.42984 1.78125,0.3125 0.17282,-0.0293 0.34778,-0.0698 0.53125,-0.125 0.18347,-0.0552 0.36989,-0.13868 0.5625,-0.21875 0.0086,-0.004 0.02262,0.004 0.03125,0 l 143.499997,103.8125 c 0.2894,0.20935 0.66001,0.27669 1.09375,0.21875 3.128,1.37317 16.321,6.31634 17.5625,6.78125 l 6.875,4.96875 c 0.66332,0.47984 1.91732,-0.13752 2.8125,-1.375 0.89519,-1.23748 1.06957,-2.61391 0.40625,-3.09375 l -6.9375,-5.03125 -11.84375,-14.53125 c -0.0818,-0.42434 -0.24453,-0.76134 -0.53125,-0.96875 L 47.458333,91.559028 c 0.18042,-1.42344 -0.08725,-2.5465 -0.84375,-3.09375 l -3.5625,-2.59375 c 0.06409,-0.02167 0.12275,-0.04142 0.1875,-0.0625 l 5.09375,-2.125 63.531247,44.093752 c 0.0811,1.75135 -0.71396,3.4867 1.3125,5.3125 l 8,5.8125 c 2.25717,1.38228 4.73974,2.02367 7.65625,1 1.23929,-0.28375 2.87883,-1.65729 1.6875,-2.34375 l -81.343747,-60.593752 -13.59375,3.5 -4.40625,-3.1875 c -1.03809,-0.75095 -2.81563,-0.254948 -4.71875,1.09375 l -10.0625,-7.28125 c -0.23447,-0.169613 -0.5255,-0.274143 -0.84375,-0.28125 z" id="rect3541" inkscape:connector-curvature="0" transform="matrix(1.0346632,0.13015019,-0.13015019,1.0346632,40.974182,-19.57561)" fill="#000000" filter="url(#filter2785)" stroke="none" fill-opacity="0.624"/>
 <g id="g2751" transform="matrix(1.0428169,0,0,1.0428169,313.27394,-38.507527)">
  <path inkscape:connector-curvature="0" id="path4394" d="m -98.49401,230.89524 18.55568,27.27123" stroke-miterlimit="4" stroke-dasharray="none" stroke-opacity="1" fill="none" fill-rule="evenodd" stroke="#000000" stroke-linejoin="miter" stroke-linecap="round" stroke-width="2.5"/>
  <rect transform="rotate(-123.64797)" rx="1.478" ry="2.757" y="-212.44" x="-163.47" height="5.514" width="25.744" id="rect3271" stroke-miterlimit="4" stroke-dasharray="none" stroke-opacity="0.563" fill="url(#linearGradient3523)" stroke="#1c1c1c" stroke-linejoin="round" fill-opacity="1" stroke-linecap="round" stroke-width="0.586"/>
  <rect transform="rotate(-123.64797)" ry="6.205" rx="2.786" y="-215.65" x="47.591" height="12.411" width="35.04" id="rect3251" fill="url(#linearGradient3525)" stroke="none" fill-opacity="1"/>
  <rect transform="rotate(-123.64797)" id="rect3231" width="27.29" height="19.823" x="41.05" y="-219.43" ry="9.912" rx="4.104" stroke-miterlimit="4" stroke-dasharray="none" stroke-opacity="1" fill="#5a5a5a" stroke="#000000" stroke-linejoin="round" fill-opacity="0.539" stroke-linecap="round" stroke-width="0.49"/>
  <rect transform="rotate(-123.64797)" y="-212.54" x="-136.43" height="6.284" width="183.4" id="rect3201" stroke-miterlimit="4" stroke-dasharray="none" stroke-opacity="1" fill="url(#linearGradient3527)" stroke="#000000" stroke-linejoin="round" fill-opacity="1" stroke-linecap="round" stroke-width="0.429"/>
  <rect transform="rotate(-123.64797)" rx="3.02" ry="8.04" y="-217.72" x="-137.3" height="16.09" width="184.81" id="rect2421" stroke-miterlimit="4" stroke-dasharray="none" stroke-opacity="1" fill="url(#linearGradient3529)" stroke="#000000" stroke-linejoin="round" fill-opacity="1" stroke-linecap="round" stroke-width="0.854"/>
  <rect transform="rotate(-123.64797)" y="-216.26" x="-136.13" height="4.652" width="182.53" id="rect3211" fill="url(#linearGradient3531)" stroke="none" fill-opacity="1"/>
  <rect transform="rotate(-123.64797)" rx="4.104" ry="9.912" y="-219.43" x="41.05" height="19.823" width="27.29" id="rect3221" stroke-miterlimit="4" stroke-dasharray="none" stroke-opacity="0.587" fill="url(#linearGradient3533)" stroke="#777777" stroke-linejoin="round" fill-opacity="1" stroke-linecap="round" stroke-width="0.49"/>
  <path inkscape:connector-curvature="0" sodipodi:nodetypes="cccccccccccc" id="path3233" d="m -210.29794,79.815023 -5.00056,-7.285004 c 3.53273,-6.265464 9.26261,-9.760058 16.56602,-10.87482 l 13.96061,1.455674 55.00849,85.232997 c 0.87602,1.05975 -1.12788,1.75715 -2.38815,1.58957 -3.09034,-0.0609 -5.18611,-1.50111 -6.81732,-3.58549 l -5.46175,-8.25888 c -1.25997,-2.4192 0.0726,-3.75592 0.60914,-5.42505 l -44.08066,-63.531145 -5.51296,0.223285 c -7.58421,-0.323091 -12.59696,4.244162 -16.88287,10.458872 z" stroke-miterlimit="4" stroke-dasharray="none" stroke-opacity="0.544" fill="#d5d5d5" fill-rule="evenodd" stroke="#8d8d8d" stroke-linejoin="miter" fill-opacity="0.767" stroke-linecap="butt" stroke-width="0.427"/>
  <path inkscape:connector-curvature="0" sodipodi:nodetypes="ccccc" id="path3235" d="m -132.37803,148.49747 c -1.83703,-0.30273 -3.71514,-0.51893 -4.84173,-2.31865 l -5.93395,-8.32045 c -1.03477,-2.99548 0.3811,-3.75983 0.97865,-5.26918 l -44.57962,-64.002699" stroke-miterlimit="4" stroke-dasharray="none" stroke-opacity="0.515" fill="none" stroke="#ffffff" stroke-linejoin="round" stroke-linecap="round" stroke-width="1.538"/>
  <path inkscape:connector-curvature="0" d="m -132.37803,148.49747 c -1.83703,-0.30273 -3.71514,-0.51893 -4.84173,-2.31865 l -5.93395,-8.32045 c -1.03477,-2.99548 0.3811,-3.75983 0.97865,-5.26918 l -44.57962,-64.002699" id="path3237" sodipodi:nodetypes="ccccc" stroke-miterlimit="4" stroke-dasharray="none" stroke-opacity="0.515" fill="none" stroke="#ffffff" stroke-linejoin="round" stroke-linecap="round" stroke-width="0.598"/>
  <path inkscape:connector-curvature="0" sodipodi:nodetypes="cc" id="path3239" d="M -130.18458,148.22493 -185.19745,63.591887" stroke-miterlimit="4" stroke-dasharray="none" stroke-opacity="0.461" fill="none" stroke="#000000" stroke-linejoin="miter" stroke-linecap="butt" stroke-width="0.598"/>
  <path inkscape:connector-curvature="0" d="m -210.29794,79.815023 -5.00056,-7.285004 c 3.53273,-6.265464 9.26261,-9.760058 16.56602,-10.87482 l 5.31741,7.700952 c -7.5842,-0.323092 -12.59695,4.244161 -16.88287,10.458872 z" id="path3241" sodipodi:nodetypes="ccccc" fill="url(#linearGradient3535)" fill-rule="evenodd" stroke="none" fill-opacity="1"/>
  <path inkscape:connector-curvature="0" sodipodi:nodetypes="ccccc" id="path3261" d="m -106.45573,232.43898 c 0.54771,0.82287 15.25141,13.5972 15.25141,13.5972 l 4.26665,-2.70797 -6.56552,-19.37858 c -3.65378,3.82698 -8.00063,6.61268 -12.95254,8.48935 z" stroke-miterlimit="4" stroke-dasharray="none" stroke-opacity="0.563" fill="url(#linearGradient3537)" fill-rule="evenodd" stroke="#5a5a5a" stroke-linejoin="miter" fill-opacity="1" stroke-linecap="butt" stroke-width="0.513"/>
  <g id="text4409" transform="rotate(56.746726,-150.30583,-229.57739)" font-style="normal" word-spacing="0" line-height="125%" font-weight="normal" font-stretch="normal" letter-spacing="0" font-variant="normal" font-size="5" stroke-opacity="1" font-family="&apos;Arial Black&apos;" fill="#000000" stroke="none" stroke-linejoin="miter" fill-opacity="1" stroke-linecap="butt" stroke-width="1">
   <path id="path4414" d="m 119.65718,-19.282238 v -0.744629 h 1.70899 v 1.525879 q -0.49073,0.334473 -0.86915,0.456543 -0.37597,0.119629 -0.89355,0.119629 -0.63721,0 -1.04004,-0.217285 -0.40039,-0.217285 -0.62256,-0.646973 -0.21972,-0.429687 -0.21972,-0.986328 0,-0.585938 0.24169,-1.018066 0.2417,-0.434571 0.70801,-0.65918 0.36377,-0.17334 0.97901,-0.17334 0.59326,0 0.88623,0.107422 0.29541,0.107422 0.48828,0.334473 0.19531,0.224609 0.29297,0.571289 l -1.0669,0.190429 q -0.0659,-0.202636 -0.22461,-0.310058 -0.15625,-0.107422 -0.40039,-0.107422 -0.36377,0 -0.58105,0.253906 -0.21485,0.251465 -0.21485,0.79834 0,0.581055 0.21729,0.830078 0.21973,0.249023 0.61035,0.249023 0.18555,0 0.354,-0.05371 0.16846,-0.05371 0.38575,-0.183106 v -0.336914 z" inkscape:connector-curvature="0"/>
   <path id="path4416" d="m 124.84029,-19.035656 h -1.99219 q 0.0268,0.239258 0.12939,0.356445 0.14405,0.168457 0.37598,0.168457 0.14648,0 0.27832,-0.07324 0.0806,-0.04639 0.17334,-0.163574 l 0.979,0.09033 q -0.22461,0.390625 -0.54199,0.561523 -0.31738,0.168457 -0.91064,0.168457 -0.51514,0 -0.81055,-0.144043 -0.29541,-0.146484 -0.49072,-0.461425 -0.19287,-0.317383 -0.19287,-0.744629 0,-0.60791 0.38818,-0.983887 0.39063,-0.375976 1.07666,-0.375976 0.55664,0 0.87891,0.168457 0.32226,0.168457 0.49072,0.488281 0.16846,0.319824 0.16846,0.832519 z m -1.01075,-0.476074 q -0.0293,-0.288086 -0.15625,-0.412598 -0.12451,-0.124512 -0.32959,-0.124512 -0.23681,0 -0.37841,0.187989 -0.0903,0.117187 -0.11475,0.349121 z" inkscape:connector-curvature="0"/>
   <path id="path4418" d="m 125.30171,-20.578625 h 0.9253 v 0.422364 q 0.20751,-0.25879 0.41992,-0.368653 0.2124,-0.112304 0.51758,-0.112304 0.41259,0 0.64453,0.246582 0.23437,0.24414 0.23437,0.756835 v 1.64795 h -0.99853 v -1.425782 q 0,-0.24414 -0.0903,-0.344238 -0.0903,-0.102539 -0.2539,-0.102539 -0.18067,0 -0.29297,0.136719 -0.11231,0.136719 -0.11231,0.490723 v 1.245117 h -0.99365 v -2.592774 z" inkscape:connector-curvature="0"/>
   <path id="path4420" d="m 131.51997,-19.035656 h -1.99218 q 0.0268,0.239258 0.12939,0.356445 0.14404,0.168457 0.37598,0.168457 0.14648,0 0.27832,-0.07324 0.0806,-0.04639 0.17334,-0.163574 l 0.979,0.09033 q -0.22461,0.390625 -0.54199,0.561523 -0.31738,0.168457 -0.91065,0.168457 -0.51513,0 -0.81054,-0.144043 -0.29541,-0.146484 -0.49072,-0.461425 -0.19288,-0.317383 -0.19288,-0.744629 0,-0.60791 0.38819,-0.983887 0.39062,-0.375976 1.07666,-0.375976 0.55664,0 0.8789,0.168457 0.32227,0.168457 0.49073,0.488281 0.16845,0.319824 0.16845,0.832519 z m -1.01074,-0.476074 q -0.0293,-0.288086 -0.15625,-0.412598 -0.12451,-0.124512 -0.32959,-0.124512 -0.23681,0 -0.37842,0.187989 -0.0903,0.117187 -0.11474,0.349121 z" inkscape:connector-curvature="0"/>
   <path id="path4422" d="m 131.99117,-20.578625 h 0.93017 v 0.424805 q 0.13428,-0.275879 0.27588,-0.378418 0.14404,-0.10498 0.354,-0.10498 0.21973,0 0.48096,0.136718 l -0.30762,0.708008 q -0.17578,-0.07324 -0.27832,-0.07324 -0.19531,0 -0.30273,0.161133 -0.15381,0.22705 -0.15381,0.849609 v 0.869141 h -0.99853 v -2.592774 z" inkscape:connector-curvature="0"/>
   <path id="path4424" d="m 135.19673,-19.738781 -0.94971,-0.100098 q 0.0537,-0.249023 0.15381,-0.390625 0.10254,-0.144043 0.29297,-0.249023 0.13672,-0.07568 0.37598,-0.117188 0.23926,-0.0415 0.51758,-0.0415 0.44677,0 0.71777,0.05127 0.271,0.04883 0.45166,0.20752 0.12695,0.109863 0.2002,0.3125 0.0732,0.200195 0.0732,0.3833 v 1.14502 q 0,0.183105 0.022,0.288086 0.0244,0.102539 0.10254,0.263672 h -0.93262 q -0.0562,-0.100098 -0.0732,-0.151367 -0.0171,-0.05371 -0.0342,-0.166016 -0.19531,0.187988 -0.38818,0.268555 -0.26368,0.107421 -0.6128,0.107421 -0.46386,0 -0.70556,-0.214843 -0.23926,-0.214844 -0.23926,-0.529785 0,-0.295411 0.17334,-0.48584 0.17334,-0.19043 0.63965,-0.283203 0.55908,-0.112305 0.7251,-0.15625 0.16601,-0.04639 0.35156,-0.119629 0,-0.183106 -0.0757,-0.256348 -0.0757,-0.07324 -0.26611,-0.07324 -0.24414,0 -0.36621,0.07813 -0.0952,0.06104 -0.15381,0.229492 z m 0.86182,0.522461 q -0.20508,0.07324 -0.42725,0.129394 -0.30273,0.08057 -0.3833,0.158692 -0.083,0.08057 -0.083,0.183105 0,0.117188 0.0806,0.192871 0.083,0.07324 0.2417,0.07324 0.16601,0 0.30762,-0.08057 0.14404,-0.08057 0.20263,-0.195312 0.061,-0.117188 0.061,-0.302735 v -0.158691 z" inkscape:connector-curvature="0"/>
   <path id="path4426" d="m 137.66988,-21.564953 h 0.99609 v 3.579102 h -0.99609 z" inkscape:connector-curvature="0"/>
   <path id="path4428" d="m 141.03658,-21.564953 h 1.83837 q 0.60059,0 0.89844,0.285645 0.30029,0.285644 0.30029,0.812988 0,0.541992 -0.32714,0.847168 -0.32471,0.305176 -0.99366,0.305176 h -0.60546 v 1.328125 h -1.11084 z m 1.11084,1.525879 h 0.27099 q 0.31983,0 0.44922,-0.109863 0.12939,-0.112305 0.12939,-0.285645 0,-0.168457 -0.1123,-0.285644 -0.1123,-0.117188 -0.42236,-0.117188 h -0.31494 z" inkscape:connector-curvature="0"/>
   <path id="path4430" d="m 147.32076,-17.985851 h -0.92774 v -0.419922 q -0.20752,0.258789 -0.41992,0.368652 -0.20996,0.109863 -0.51758,0.109863 -0.41016,0 -0.64453,-0.24414 -0.23193,-0.246582 -0.23193,-0.756836 v -1.650391 h 0.99853 v 1.425782 q 0,0.24414 0.0903,0.346679 0.0903,0.102539 0.25391,0.102539 0.17822,0 0.29053,-0.136718 0.11474,-0.136719 0.11474,-0.490723 v -1.247559 h 0.99366 v 2.592774 z" inkscape:connector-curvature="0"/>
   <path id="path4432" d="m 147.93355,-21.564953 h 1.00342 v 1.240235 q 0.14892,-0.15625 0.33691,-0.234375 0.19043,-0.07813 0.41992,-0.07813 0.47363,0 0.78369,0.341796 0.31006,0.339356 0.31006,0.976563 0,0.424805 -0.1416,0.749512 -0.1416,0.322265 -0.39307,0.483398 -0.24902,0.158691 -0.5542,0.158691 -0.26123,0 -0.47851,-0.112304 -0.16358,-0.08789 -0.35645,-0.32959 v 0.383301 h -0.93017 v -3.579102 z m 0.99609,2.275391 q 0,0.334472 0.12451,0.48584 0.12696,0.148925 0.31983,0.148925 0.17822,0 0.29785,-0.146484 0.12207,-0.148926 0.12207,-0.498047 0,-0.307617 -0.11963,-0.45166 -0.11719,-0.144043 -0.28564,-0.144043 -0.20264,0 -0.33204,0.151367 -0.12695,0.148926 -0.12695,0.454102 z" inkscape:connector-curvature="0"/>
   <path id="path4434" d="m 151.30269,-21.564953 h 0.99609 v 3.579102 h -0.99609 z" inkscape:connector-curvature="0"/>
   <path id="path4436" d="m 152.97505,-21.564953 h 0.99365 v 0.67627 h -0.99365 z m 0,0.986328 h 0.99365 v 2.592774 h -0.99365 z" inkscape:connector-curvature="0"/>
   <path id="path4438" d="m 156.54195,-18.999035 0.94482,0.107422 q -0.0781,0.29541 -0.25635,0.512695 -0.17822,0.214844 -0.45654,0.334473 -0.27588,0.119629 -0.70312,0.119629 -0.4126,0 -0.68848,-0.07568 -0.27344,-0.07813 -0.47119,-0.249023 -0.19776,-0.17334 -0.31006,-0.405274 -0.11231,-0.231933 -0.11231,-0.615234 0,-0.400391 0.13672,-0.666504 0.1001,-0.195312 0.27344,-0.349121 0.17334,-0.15625 0.35645,-0.231934 0.29052,-0.119628 0.74462,-0.119628 0.63477,0 0.9668,0.22705 0.33447,0.227051 0.46875,0.664063 l -0.93506,0.124512 q -0.0439,-0.166016 -0.16113,-0.249024 -0.11475,-0.08545 -0.31006,-0.08545 -0.24658,0 -0.40039,0.178223 -0.15137,0.175781 -0.15137,0.534667 0,0.319825 0.15137,0.48584 0.15137,0.166016 0.38574,0.166016 0.19532,0 0.32715,-0.100098 0.13428,-0.100097 0.2002,-0.307617 z" inkscape:connector-curvature="0"/>
   <path id="path4440" d="m 159.68404,-21.564953 h 1.10595 v 2.697754 h 1.72608 v 0.881348 h -2.83203 z" inkscape:connector-curvature="0"/>
   <path id="path4442" d="m 162.99458,-21.564953 h 0.99366 v 0.67627 h -0.99366 z m 0,0.986328 h 0.99366 v 2.592774 h -0.99366 z" inkscape:connector-curvature="0"/>
   <path id="path4444" d="m 166.56148,-18.999035 0.94482,0.107422 q -0.0781,0.29541 -0.25635,0.512695 -0.17822,0.214844 -0.45654,0.334473 -0.27588,0.119629 -0.70312,0.119629 -0.4126,0 -0.68848,-0.07568 -0.27344,-0.07813 -0.47119,-0.249023 -0.19776,-0.17334 -0.31006,-0.405274 -0.1123,-0.231933 -0.1123,-0.615234 0,-0.400391 0.13671,-0.666504 0.1001,-0.195312 0.27344,-0.349121 0.17334,-0.15625 0.35645,-0.231934 0.29052,-0.119628 0.74463,-0.119628 0.63476,0 0.96679,0.22705 0.33448,0.227051 0.46875,0.664063 l -0.93506,0.124512 q -0.0439,-0.166016 -0.16113,-0.249024 -0.11475,-0.08545 -0.31006,-0.08545 -0.24658,0 -0.40039,0.178223 -0.15137,0.175781 -0.15137,0.534667 0,0.319825 0.15137,0.48584 0.15137,0.166016 0.38574,0.166016 0.19532,0 0.32715,-0.100098 0.13428,-0.100097 0.2002,-0.307617 z" inkscape:connector-curvature="0"/>
   <path id="path4446" d="m 170.84615,-19.035656 h -1.99219 q 0.0268,0.239258 0.12939,0.356445 0.14405,0.168457 0.37598,0.168457 0.14648,0 0.27832,-0.07324 0.0806,-0.04639 0.17334,-0.163574 l 0.979,0.09033 q -0.22461,0.390625 -0.54199,0.561523 -0.31738,0.168457 -0.91064,0.168457 -0.51514,0 -0.81055,-0.144043 -0.29541,-0.146484 -0.49072,-0.461425 -0.19287,-0.317383 -0.19287,-0.744629 0,-0.60791 0.38818,-0.983887 0.39062,-0.375976 1.07666,-0.375976 0.55664,0 0.87891,0.168457 0.32226,0.168457 0.49072,0.488281 0.16846,0.319824 0.16846,0.832519 z m -1.01075,-0.476074 q -0.0293,-0.288086 -0.15625,-0.412598 -0.12451,-0.124512 -0.32959,-0.124512 -0.23681,0 -0.37841,0.187989 -0.0903,0.117187 -0.11475,0.349121 z" inkscape:connector-curvature="0"/>
   <path id="path4448" d="m 171.30757,-20.578625 h 0.92529 v 0.422364 q 0.20752,-0.25879 0.41993,-0.368653 0.2124,-0.112304 0.51757,-0.112304 0.4126,0 0.64454,0.246582 0.23437,0.24414 0.23437,0.756835 v 1.64795 h -0.99853 v -1.425782 q 0,-0.24414 -0.0903,-0.344238 -0.0903,-0.102539 -0.2539,-0.102539 -0.18067,0 -0.29297,0.136719 -0.11231,0.136719 -0.11231,0.490723 v 1.245117 h -0.99365 v -2.592774 z" inkscape:connector-curvature="0"/>
   <path id="path4450" d="m 174.47163,-18.703625 0.98633,-0.09277 q 0.061,0.175781 0.1709,0.251465 0.10986,0.07568 0.29297,0.07568 0.20019,0 0.31006,-0.08545 0.0855,-0.06348 0.0855,-0.158691 0,-0.107422 -0.11231,-0.166016 -0.0806,-0.0415 -0.42724,-0.102539 -0.51758,-0.09033 -0.72022,-0.166016 -0.20019,-0.07813 -0.33935,-0.26123 -0.13672,-0.183106 -0.13672,-0.417481 0,-0.256347 0.14892,-0.441894 0.14893,-0.185547 0.41016,-0.275879 0.26123,-0.09277 0.70068,-0.09277 0.46387,0 0.6836,0.0708 0.22216,0.0708 0.36865,0.219727 0.14892,0.148926 0.24658,0.402832 l -0.94238,0.09277 q -0.0366,-0.124511 -0.12207,-0.183105 -0.11719,-0.07813 -0.28321,-0.07813 -0.16845,0 -0.24658,0.06104 -0.0757,0.05859 -0.0757,0.144043 0,0.09521 0.0977,0.144043 0.0977,0.04883 0.4248,0.08789 0.49561,0.05615 0.7373,0.15625 0.2417,0.100097 0.36866,0.285644 0.12939,0.185547 0.12939,0.407715 0,0.224609 -0.13672,0.437012 -0.13427,0.212402 -0.42724,0.339355 -0.29053,0.124512 -0.79346,0.124512 -0.71045,0 -1.01318,-0.202637 -0.3003,-0.202637 -0.38575,-0.576172 z" inkscape:connector-curvature="0"/>
   <path id="path4452" d="m 180.58247,-19.035656 h -1.99218 q 0.0268,0.239258 0.12939,0.356445 0.14404,0.168457 0.37598,0.168457 0.14648,0 0.27832,-0.07324 0.0806,-0.04639 0.17334,-0.163574 l 0.979,0.09033 q -0.22461,0.390625 -0.54199,0.561523 -0.31738,0.168457 -0.91065,0.168457 -0.51513,0 -0.81054,-0.144043 -0.29541,-0.146484 -0.49072,-0.461425 -0.19288,-0.317383 -0.19288,-0.744629 0,-0.60791 0.38819,-0.983887 0.39062,-0.375976 1.07666,-0.375976 0.55664,0 0.8789,0.168457 0.32227,0.168457 0.49073,0.488281 0.16845,0.319824 0.16845,0.832519 z m -1.01074,-0.476074 q -0.0293,-0.288086 -0.15625,-0.412598 -0.12451,-0.124512 -0.32959,-0.124512 -0.23681,0 -0.37842,0.187989 -0.0903,0.117187 -0.11474,0.349121 z" inkscape:connector-curvature="0"/>
   <path id="path4454" d="m 182.61861,-19.790051 q 0,-1.020507 0.36621,-1.428222 0.36865,-0.407715 1.1206,-0.407715 0.36133,0 0.59326,0.09033 0.23194,0.08789 0.37842,0.231934 0.14649,0.141601 0.22949,0.300293 0.0855,0.15625 0.13672,0.366211 0.1001,0.40039 0.1001,0.83496 0,0.974122 -0.32959,1.425782 -0.32959,0.45166 -1.13525,0.45166 -0.45166,0 -0.72998,-0.144043 -0.27832,-0.144043 -0.45655,-0.422363 -0.12939,-0.197754 -0.20263,-0.539551 -0.0708,-0.344238 -0.0708,-0.759278 z m 0.98632,0.0024 q 0,0.683594 0.11963,0.935058 0.12207,0.249024 0.35157,0.249024 0.15136,0 0.26123,-0.104981 0.1123,-0.107421 0.16357,-0.336914 0.0537,-0.229492 0.0537,-0.715332 0,-0.71289 -0.12207,-0.957031 -0.11963,-0.246582 -0.36133,-0.246582 -0.24658,0 -0.35644,0.251465 -0.10987,0.249023 -0.10987,0.925293 z" inkscape:connector-curvature="0"/>
   <path id="path4456" d="m 186.05611,-18.981945 h 1.06201 v 0.996094 h -1.06201 z" inkscape:connector-curvature="0"/>
   <path id="path4458" d="m 189.88179,-21.625988 v 3.640137 h -1.00586 v -2.385254 q -0.24414,0.185547 -0.47363,0.300293 -0.22705,0.114746 -0.57129,0.219726 v -0.815429 q 0.50781,-0.163575 0.78857,-0.393067 0.28076,-0.229492 0.43946,-0.566406 z" inkscape:connector-curvature="0"/>
  </g>
 </g>
</svg>
