<?xml version="1.0" encoding="UTF-8" standalone="no"?>
<!-- Created with Inkscape (http://www.inkscape.org/) -->

<svg
   xmlns:dc="http://purl.org/dc/elements/1.1/"
   xmlns:cc="http://creativecommons.org/ns#"
   xmlns:rdf="http://www.w3.org/1999/02/22-rdf-syntax-ns#"
   xmlns:svg="http://www.w3.org/2000/svg"
   xmlns="http://www.w3.org/2000/svg"
   xmlns:xlink="http://www.w3.org/1999/xlink"
   xmlns:sodipodi="http://sodipodi.sourceforge.net/DTD/sodipodi-0.dtd"
   xmlns:inkscape="http://www.inkscape.org/namespaces/inkscape"
   width="255"
   height="255"
   viewBox="0 0 67.468749 67.468749"
   version="1.1"
   id="svg8"
   inkscape:version="0.92.5 (2060ec1f9f, 2020-04-08)"
   sodipodi:docname="xfce4-session-settings.svg">
  <defs
     id="defs2">
    <linearGradient
       id="linearGradient3166">
      <stop
         id="stop3168"
         offset="0"
         style="stop-color:#000000;stop-opacity:1;" />
      <stop
         id="stop3170"
         offset="1"
         style="stop-color:#7c7c7c;stop-opacity:0;" />
    </linearGradient>
    <linearGradient
       id="linearGradient3156">
      <stop
         style="stop-color:#000000;stop-opacity:1;"
         offset="0"
         id="stop3158" />
      <stop
         style="stop-color:#7c7c7c;stop-opacity:1;"
         offset="1"
         id="stop3160" />
    </linearGradient>
    <inkscape:perspective
       sodipodi:type="inkscape:persp3d"
       inkscape:vp_x="0 : 526.18109 : 1"
       inkscape:vp_y="0 : 1000 : 0"
       inkscape:vp_z="744.09448 : 526.18109 : 1"
       inkscape:persp3d-origin="372.04724 : 350.78739 : 1"
       id="perspective9" />
    <inkscape:perspective
       id="perspective10"
       inkscape:persp3d-origin="372.04724 : 350.78739 : 1"
       inkscape:vp_z="744.09448 : 526.18109 : 1"
       inkscape:vp_y="0 : 1000 : 0"
       inkscape:vp_x="0 : 526.18109 : 1"
       sodipodi:type="inkscape:persp3d" />
    <linearGradient
       inkscape:collect="always"
       xlink:href="#linearGradient3166"
       id="linearGradient2409"
       gradientUnits="userSpaceOnUse"
       spreadMethod="reflect"
       x1="12.420502"
       y1="18.075314"
       x2="17.035564"
       y2="24.234308"
       gradientTransform="matrix(2.0785029,0,0,2.0785029,1.406698,222.7546)" />
    <linearGradient
       inkscape:collect="always"
       xlink:href="#linearGradient3156"
       id="linearGradient2412"
       gradientUnits="userSpaceOnUse"
       spreadMethod="reflect"
       x1="8.2029285"
       y1="20.150627"
       x2="18.441422"
       y2="10.309623"
       gradientTransform="matrix(2.0785029,0,0,2.0785029,1.406698,222.7546)" />
    <inkscape:perspective
       sodipodi:type="inkscape:persp3d"
       inkscape:vp_x="0 : 24 : 1"
       inkscape:vp_y="0 : 1000 : 0"
       inkscape:vp_z="48 : 24 : 1"
       inkscape:persp3d-origin="24 : 16 : 1"
       id="perspective33" />
    <linearGradient
       id="linearGradient2790">
      <stop
         id="stop2792"
         style="stop-color:black;stop-opacity:1"
         offset="0" />
      <stop
         id="stop2794"
         style="stop-color:black;stop-opacity:0"
         offset="1" />
    </linearGradient>
    <linearGradient
       id="linearGradient2780">
      <stop
         id="stop2782"
         style="stop-color:white;stop-opacity:1"
         offset="0" />
      <stop
         id="stop2784"
         style="stop-color:white;stop-opacity:0"
         offset="1" />
    </linearGradient>
    <linearGradient
       id="linearGradient6621">
      <stop
         id="stop6622"
         style="stop-color:#f5a108;stop-opacity:0"
         offset="0" />
      <stop
         id="stop6623"
         style="stop-color:#fefdc3;stop-opacity:0.74251497"
         offset="1" />
    </linearGradient>
    <linearGradient
       x1="22.819513"
       y1="28.829224"
       x2="12.849945"
       y2="12.239423"
       id="linearGradient7881"
       xlink:href="#linearGradient6621"
       gradientUnits="userSpaceOnUse"
       gradientTransform="matrix(1.059395,0,0,0.544945,1.249822,4.6593951)" />
    <linearGradient
       x1="24"
       y1="5.0793009"
       x2="24"
       y2="41.0793"
       id="linearGradient2786"
       xlink:href="#linearGradient2780"
       gradientUnits="userSpaceOnUse"
       gradientTransform="translate(0,1.9206991)" />
    <radialGradient
       cx="24.375"
       cy="37.75"
       r="17.375"
       fx="24.375"
       fy="37.75"
       id="radialGradient2796"
       xlink:href="#linearGradient2790"
       gradientUnits="userSpaceOnUse"
       gradientTransform="matrix(1,0,0,0.442446,0,21.610168)" />
    <linearGradient
       id="linearGradient3242">
      <stop
         id="stop3248"
         style="stop-color:#f9c1c1;stop-opacity:1;"
         offset="0" />
      <stop
         id="stop3250"
         style="stop-color:#470000;stop-opacity:1;"
         offset="1" />
    </linearGradient>
    <linearGradient
       id="linearGradient2490">
      <stop
         id="stop2492"
         style="stop-color:#000000;stop-opacity:1;"
         offset="0" />
      <stop
         id="stop2494"
         style="stop-color:#9e9e9e;stop-opacity:1;"
         offset="1" />
    </linearGradient>
    <linearGradient
       x1="24"
       y1="6"
       x2="24"
       y2="51"
       id="linearGradient3853"
       xlink:href="#linearGradient3242"
       gradientUnits="userSpaceOnUse"
       gradientTransform="matrix(5.0911864,0,0,5.0911864,5.9354153,-2.3506224)" />
    <linearGradient
       x1="40.07785"
       y1="11.258508"
       x2="36.822536"
       y2="19.862783"
       id="linearGradient3861"
       xlink:href="#linearGradient3242"
       gradientUnits="userSpaceOnUse"
       gradientTransform="matrix(5.0911864,0,0,5.6574312,4.7516003,-22.746889)"
       spreadMethod="reflect" />
    <linearGradient
       y2="-7.0339308"
       x2="11.609575"
       y1="-6.2525191"
       x1="9.4104776"
       spreadMethod="reflect"
       gradientUnits="userSpaceOnUse"
       id="linearGradient3381"
       xlink:href="#linearGradient3370"
       inkscape:collect="always" />
    <inkscape:perspective
       sodipodi:type="inkscape:persp3d"
       inkscape:vp_x="0 : 526.18109 : 1"
       inkscape:vp_y="0 : 1000 : 0"
       inkscape:vp_z="744.09448 : 526.18109 : 1"
       inkscape:persp3d-origin="372.04724 : 350.78739 : 1"
       id="perspective10-5" />
    <linearGradient
       id="linearGradient3370">
      <stop
         id="stop3372"
         offset="0"
         style="stop-color:#000000;stop-opacity:1;" />
      <stop
         id="stop3374"
         offset="1"
         style="stop-color:#ffffff;stop-opacity:1;" />
    </linearGradient>
    <linearGradient
       id="linearGradient974"
       inkscape:collect="always">
      <stop
         id="stop970"
         offset="0"
         style="stop-color:#ffffff;stop-opacity:1" />
      <stop
         id="stop972"
         offset="1"
         style="stop-color:#000dff;stop-opacity:1" />
    </linearGradient>
    <linearGradient
       inkscape:collect="always"
       id="linearGradient956">
      <stop
         style="stop-color:#ffc300;stop-opacity:1"
         offset="0"
         id="stop952" />
      <stop
         id="stop958"
         offset="0.53228909"
         style="stop-color:#fcff00;stop-opacity:1" />
      <stop
         style="stop-color:#ffc300;stop-opacity:0"
         offset="1"
         id="stop954" />
    </linearGradient>
    <linearGradient
       id="linearGradient948"
       inkscape:collect="always">
      <stop
         id="stop944"
         offset="0"
         style="stop-color:#515500;stop-opacity:1" />
      <stop
         id="stop946"
         offset="1"
         style="stop-color:#fdffd4;stop-opacity:0.9254902" />
    </linearGradient>
    <linearGradient
       id="linearGradient938"
       inkscape:collect="always">
      <stop
         id="stop934"
         offset="0"
         style="stop-color:#edf711;stop-opacity:1;" />
      <stop
         id="stop936"
         offset="1"
         style="stop-color:#a0a70f;stop-opacity:1" />
    </linearGradient>
    <linearGradient
       id="linearGradient930"
       inkscape:collect="always">
      <stop
         id="stop926"
         offset="0"
         style="stop-color:#ffffff;stop-opacity:1" />
      <stop
         id="stop928"
         offset="1"
         style="stop-color:#696969;stop-opacity:1" />
    </linearGradient>
    <linearGradient
       id="linearGradient922"
       inkscape:collect="always">
      <stop
         id="stop918"
         offset="0"
         style="stop-color:#f9e719;stop-opacity:1;" />
      <stop
         id="stop920"
         offset="1"
         style="stop-color:#494300;stop-opacity:0.96428573" />
    </linearGradient>
    <linearGradient
       id="linearGradient912"
       inkscape:collect="always">
      <stop
         id="stop908"
         offset="0"
         style="stop-color:#575757;stop-opacity:1" />
      <stop
         id="stop910"
         offset="1"
         style="stop-color:#ffffff;stop-opacity:1" />
    </linearGradient>
    <linearGradient
       inkscape:collect="always"
       id="linearGradient861">
      <stop
         style="stop-color:#6e7300;stop-opacity:1"
         offset="0"
         id="stop857" />
      <stop
         style="stop-color:#faff8c;stop-opacity:1"
         offset="1"
         id="stop859" />
    </linearGradient>
    <linearGradient
       id="linearGradient833"
       inkscape:collect="always">
      <stop
         id="stop829"
         offset="0"
         style="stop-color:#ffffff;stop-opacity:1" />
      <stop
         id="stop831"
         offset="1"
         style="stop-color:#480000;stop-opacity:1" />
    </linearGradient>
    <linearGradient
       id="linearGradient823"
       inkscape:collect="always">
      <stop
         id="stop819"
         offset="0"
         style="stop-color:#480000;stop-opacity:1;" />
      <stop
         id="stop821"
         offset="1"
         style="stop-color:#ffffff;stop-opacity:1" />
    </linearGradient>
    <linearGradient
       gradientTransform="translate(141.19968,117.29543)"
       spreadMethod="reflect"
       gradientUnits="userSpaceOnUse"
       y2="119.99754"
       x2="-44.81139"
       y1="119.55219"
       x1="-52.195007"
       id="linearGradient825"
       xlink:href="#linearGradient823"
       inkscape:collect="always" />
    <linearGradient
       gradientTransform="translate(142.36792,112.13985)"
       spreadMethod="reflect"
       y2="119.99754"
       x2="-44.81139"
       y1="119.55219"
       x1="-52.195007"
       gradientUnits="userSpaceOnUse"
       id="linearGradient839"
       xlink:href="#linearGradient823"
       inkscape:collect="always" />
    <radialGradient
       gradientUnits="userSpaceOnUse"
       gradientTransform="matrix(0.82684964,-0.2171751,1.5101458,5.7495704,10.43054,-385.05099)"
       r="9.9009895"
       fy="100.77995"
       fx="-17.821783"
       cy="100.77995"
       cx="-17.821783"
       id="radialGradient849"
       xlink:href="#linearGradient956"
       inkscape:collect="always" />
    <radialGradient
       r="9.9009895"
       fy="100.77995"
       fx="-17.821783"
       cy="100.77995"
       cx="-17.821783"
       gradientTransform="matrix(-0.65604628,-0.16535643,-1.4949634,5.9312187,159.06628,-400.13515)"
       gradientUnits="userSpaceOnUse"
       id="radialGradient896"
       xlink:href="#linearGradient956"
       inkscape:collect="always" />
    <linearGradient
       spreadMethod="reflect"
       y2="118.45103"
       x2="-47.113716"
       y1="118.09722"
       x1="-41.239563"
       gradientTransform="translate(-21.021547,73.05761)"
       gradientUnits="userSpaceOnUse"
       id="linearGradient898"
       xlink:href="#linearGradient823"
       inkscape:collect="always" />
    <linearGradient
       gradientTransform="translate(-22.189787,78.213197)"
       spreadMethod="reflect"
       y2="120.2594"
       x2="-47.572521"
       y1="120.04346"
       x1="-54.051949"
       gradientUnits="userSpaceOnUse"
       id="linearGradient900"
       xlink:href="#linearGradient823"
       inkscape:collect="always" />
    <radialGradient
       spreadMethod="reflect"
       r="9.4117908"
       fy="147.37697"
       fx="-10.581901"
       cy="147.37697"
       cx="-10.581901"
       gradientTransform="matrix(-0.64554522,-0.17714231,-0.91964145,3.351374,143.97612,-271.11716)"
       gradientUnits="userSpaceOnUse"
       id="radialGradient902"
       xlink:href="#linearGradient833"
       inkscape:collect="always" />
    <linearGradient
       gradientTransform="matrix(-1,0,0,1,2.2740823,81.268194)"
       spreadMethod="reflect"
       y2="136.91321"
       x2="-9.2995558"
       y1="138.12332"
       x1="-16.917469"
       gradientUnits="userSpaceOnUse"
       id="linearGradient904"
       xlink:href="#linearGradient861"
       inkscape:collect="always" />
    <linearGradient
       gradientTransform="translate(164.75096,81.268194)"
       spreadMethod="reflect"
       gradientUnits="userSpaceOnUse"
       y2="139.64903"
       x2="-81.226059"
       y1="140.41533"
       x1="-94.252869"
       id="linearGradient914"
       xlink:href="#linearGradient912"
       inkscape:collect="always" />
    <linearGradient
       gradientTransform="translate(0,84.333328)"
       spreadMethod="reflect"
       gradientUnits="userSpaceOnUse"
       y2="96.911888"
       x2="82.567055"
       y1="97.295029"
       x1="59.770111"
       id="linearGradient924"
       xlink:href="#linearGradient922"
       inkscape:collect="always" />
    <linearGradient
       gradientTransform="translate(0,84.333328)"
       gradientUnits="userSpaceOnUse"
       y2="150.00832"
       x2="83.691826"
       y1="111.11942"
       x1="83.564728"
       id="linearGradient932"
       xlink:href="#linearGradient930"
       inkscape:collect="always" />
    <linearGradient
       gradientTransform="translate(0,84.333328)"
       spreadMethod="reflect"
       gradientUnits="userSpaceOnUse"
       y2="120.79186"
       x2="52.657341"
       y1="118.49301"
       x1="23.354572"
       id="linearGradient940"
       xlink:href="#linearGradient938"
       inkscape:collect="always" />
    <linearGradient
       gradientTransform="translate(0,84.333328)"
       spreadMethod="reflect"
       gradientUnits="userSpaceOnUse"
       y2="64.632187"
       x2="81.99234"
       y1="64.632187"
       x1="69.348663"
       id="linearGradient950"
       xlink:href="#linearGradient948"
       inkscape:collect="always" />
    <radialGradient
       spreadMethod="reflect"
       gradientUnits="userSpaceOnUse"
       gradientTransform="matrix(1,0,0,1.8158508,0,7.6902362)"
       r="7.3965516"
       fy="90.988556"
       fx="84.291183"
       cy="90.988556"
       cx="84.291183"
       id="radialGradient976"
       xlink:href="#linearGradient974"
       inkscape:collect="always" />
    <radialGradient
       spreadMethod="reflect"
       r="9.4117908"
       fy="147.65604"
       fx="-6.3553491"
       cy="147.65604"
       cx="-6.3553491"
       gradientTransform="matrix(0.64554522,-0.17714231,0.91964145,3.351374,23.898959,-272.98283)"
       gradientUnits="userSpaceOnUse"
       id="radialGradient984"
       xlink:href="#linearGradient833"
       inkscape:collect="always" />
    <linearGradient
       spreadMethod="reflect"
       y2="136.91321"
       x2="-9.2995558"
       y1="138.12332"
       x1="-16.917469"
       gradientTransform="translate(165.60099,79.402523)"
       gradientUnits="userSpaceOnUse"
       id="linearGradient986"
       xlink:href="#linearGradient861"
       inkscape:collect="always" />
    <filter
       height="1.0481386"
       y="-0.024069277"
       width="1.0478622"
       x="-0.023931121"
       id="filter1113"
       style="color-interpolation-filters:sRGB"
       inkscape:collect="always">
      <feGaussianBlur
         id="feGaussianBlur1115"
         stdDeviation="2.2097095"
         inkscape:collect="always" />
    </filter>
  </defs>
  <sodipodi:namedview
     id="base"
     pagecolor="#ff0000"
     bordercolor="#666666"
     borderopacity="1.0"
     inkscape:pageopacity="0"
     inkscape:pageshadow="2"
     inkscape:zoom="3.5490196"
     inkscape:cx="127.5"
     inkscape:cy="127.5"
     inkscape:document-units="mm"
     inkscape:current-layer="layer1"
     showgrid="false"
     inkscape:snap-to-guides="false"
     inkscape:snap-grids="false"
     inkscape:snap-others="false"
     inkscape:object-nodes="false"
     inkscape:snap-nodes="false"
     inkscape:snap-global="false"
     inkscape:window-width="1920"
     inkscape:window-height="1056"
     inkscape:window-x="0"
     inkscape:window-y="0"
     inkscape:window-maximized="1"
     units="px" />
  <metadata
     id="metadata5">
    <rdf:RDF>
      <cc:Work
         rdf:about="">
        <dc:format>image/svg+xml</dc:format>
        <dc:type
           rdf:resource="http://purl.org/dc/dcmitype/StillImage" />
        <dc:title />
      </cc:Work>
    </rdf:RDF>
  </metadata>
  <g
     inkscape:label="Layer 1"
     inkscape:groupmode="layer"
     id="layer1"
     transform="translate(0,-229.53126)">
    <g
       id="g1568"
       transform="translate(-0.59640884,-0.37275552)">
      <rect
         ry="3.8722978"
         y="233.1906"
         x="3.0764575"
         height="46.753269"
         width="62.615986"
         id="rect2384"
         style="fill:url(#linearGradient2412);fill-opacity:1;stroke:#000000;stroke-width:2.07850289;stroke-linecap:round;stroke-linejoin:round;stroke-miterlimit:4;stroke-dasharray:none;stroke-opacity:0.69082121" />
      <rect
         style="fill:url(#linearGradient2409);fill-opacity:1;stroke:none;stroke-width:0.26550055;stroke-linecap:round;stroke-linejoin:round;stroke-miterlimit:4;stroke-dasharray:none;stroke-opacity:1"
         id="rect3164"
         width="60.890034"
         height="45.214245"
         x="4.1896305"
         y="233.88632"
         ry="3.0500228" />
      <g
         transform="matrix(0.27443199,0,0,0.27443199,0.875144,213.70743)"
         id="text1541"
         style="font-style:normal;font-variant:normal;font-weight:bold;font-stretch:normal;font-size:22.57777786px;line-height:1.25;font-family:'Arial Black';-inkscape-font-specification:'Arial Black, Bold';letter-spacing:0px;word-spacing:0px;fill:#ffffff;fill-opacity:1;stroke:none;stroke-width:0.26458332"
         aria-label="User #&gt;_">
        <path
           id="path1543"
           style="font-style:normal;font-variant:normal;font-weight:bold;font-stretch:normal;font-family:'Arial Black';-inkscape-font-specification:'Arial Black, Bold';fill:#ffffff;fill-opacity:1;stroke-width:0.26458332"
           d="m 34.458008,81.122136 h 4.982986 v 9.635243 q 0,1.43316 -0.451997,2.711979 -0.440972,1.267795 -1.400087,2.22691 -0.94809,0.94809 -1.995399,1.333941 -1.455208,0.540191 -3.494705,0.540191 -1.1796,0 -2.579687,-0.165365 -1.389063,-0.165365 -2.326129,-0.650434 -0.937066,-0.496094 -1.719791,-1.400087 -0.771702,-0.903993 -1.058334,-1.863107 -0.463021,-1.543403 -0.463021,-2.734028 v -9.635243 h 4.982986 v 9.866753 q 0,1.322917 0.727605,2.07257 0.738628,0.738628 2.039496,0.738628 1.289844,0 2.017448,-0.727604 0.738629,-0.738629 0.738629,-2.083594 z"
           inkscape:connector-curvature="0" />
        <path
           id="path1545"
           style="font-style:normal;font-variant:normal;font-weight:bold;font-stretch:normal;font-family:'Arial Black';-inkscape-font-specification:'Arial Black, Bold';fill:#ffffff;fill-opacity:1;stroke-width:0.26458332"
           d="m 41.678927,94.042622 4.45382,-0.418924 q 0.275607,0.79375 0.771701,1.135504 0.496094,0.341753 1.322917,0.341753 0.903993,0 1.400087,-0.385851 0.38585,-0.286631 0.38585,-0.716579 0,-0.48507 -0.507118,-0.749653 -0.363802,-0.187413 -1.929253,-0.463021 -2.337153,-0.407899 -3.25217,-0.749653 -0.903993,-0.352778 -1.532379,-1.1796 -0.617361,-0.826823 -0.617361,-1.885157 0,-1.157552 0.672483,-1.995399 0.672482,-0.837847 1.852083,-1.245747 1.179601,-0.418923 3.163976,-0.418923 2.094618,0 3.086805,0.319705 1.003212,0.319705 1.664671,0.992187 0.672482,0.672483 1.113454,1.819011 l -4.255382,0.418923 q -0.165364,-0.562239 -0.551215,-0.826823 -0.529167,-0.352777 -1.278819,-0.352777 -0.760677,0 -1.113455,0.275607 -0.341754,0.264583 -0.341754,0.650434 0,0.429948 0.440973,0.650434 0.440972,0.220486 1.918229,0.396875 2.237934,0.253559 3.32934,0.705556 1.091406,0.451996 1.66467,1.289844 0.584288,0.837847 0.584288,1.841059 0,1.014236 -0.617361,1.97335 -0.606337,0.959115 -1.929253,1.532379 -1.311893,0.562239 -3.5829,0.562239 -3.208072,0 -4.575086,-0.915017 -1.35599,-0.915017 -1.741841,-2.601736 z"
           inkscape:connector-curvature="0" />
        <path
           id="path1547"
           style="font-style:normal;font-variant:normal;font-weight:bold;font-stretch:normal;font-family:'Arial Black';-inkscape-font-specification:'Arial Black, Bold';fill:#ffffff;fill-opacity:1;stroke-width:0.26458332"
           d="m 69.272763,92.543316 h -8.995834 q 0.121268,1.080382 0.584289,1.609549 0.650434,0.760677 1.697743,0.760677 0.661458,0 1.256771,-0.330729 0.363802,-0.209462 0.782725,-0.738629 l 4.420747,0.4079 q -1.014236,1.763889 -2.447396,2.53559 -1.43316,0.760677 -4.112066,0.760677 -2.326128,0 -3.660069,-0.650434 -1.333941,-0.661458 -2.215886,-2.083594 -0.87092,-1.433159 -0.87092,-3.362413 0,-2.745052 1.752865,-4.442795 1.763888,-1.697743 4.861718,-1.697743 2.513542,0 3.96875,0.760677 1.455209,0.760677 2.215886,2.204861 0.760677,1.444184 0.760677,3.759288 z M 64.7087,90.393577 q -0.132291,-1.300868 -0.705555,-1.863108 -0.56224,-0.56224 -1.488281,-0.56224 -1.069358,0 -1.708768,0.848872 -0.407899,0.529167 -0.518142,1.576476 z"
           inkscape:connector-curvature="0" />
        <path
           id="path1549"
           style="font-style:normal;font-variant:normal;font-weight:bold;font-stretch:normal;font-family:'Arial Black';-inkscape-font-specification:'Arial Black, Bold';fill:#ffffff;fill-opacity:1;stroke-width:0.26458332"
           d="m 71.400457,85.575955 h 4.20026 v 1.918229 q 0.606337,-1.245746 1.245747,-1.708767 0.650434,-0.474045 1.598524,-0.474045 0.992188,0 2.171788,0.617361 l -1.389062,3.197049 q -0.79375,-0.33073 -1.256771,-0.33073 -0.881944,0 -1.367014,0.727605 -0.694531,1.02526 -0.694531,3.836458 v 3.924653 h -4.508941 z"
           inkscape:connector-curvature="0" />
        <path
           id="path1551"
           style="font-style:normal;font-variant:normal;font-weight:bold;font-stretch:normal;font-family:'Arial Black';-inkscape-font-specification:'Arial Black, Bold';fill:#ffffff;fill-opacity:1;stroke-width:0.26458332"
           d="m 90.340209,90.625087 0.573264,-2.789149 h -2.700955 v -3.042709 h 3.307292 l 0.782725,-3.946701 h 3.141928 l -0.804775,3.946701 h 2.414323 l 0.79375,-3.946701 h 3.130899 l -0.7717,3.946701 h 1.51033 v 3.042709 h -2.127689 l -0.562239,2.789149 h 2.689928 v 3.042708 h -3.296265 l -0.782726,3.880556 h -3.141927 l 0.771702,-3.880556 h -2.403299 l -0.79375,3.880556 h -3.119878 l 0.804774,-3.880556 h -1.543403 v -3.042708 z m 3.130903,0 h 2.414323 l 0.573264,-2.789149 H 94.0554 Z"
           inkscape:connector-curvature="0" />
        <path
           id="path1553"
           style="font-style:normal;font-variant:normal;font-weight:bold;font-stretch:normal;font-family:'Arial Black';-inkscape-font-specification:'Arial Black, Bold';fill:#ffffff;fill-opacity:1;stroke-width:0.26458332"
           d="m 103.64655,96.049045 12.53463,-5.214496 v -3.263195 l -12.53463,-5.203472 v 3.913629 l 7.61779,2.932465 -7.61779,2.94349 z"
           inkscape:connector-curvature="0" />
        <path
           id="path1555"
           style="font-style:normal;font-variant:normal;font-weight:bold;font-stretch:normal;font-family:'Arial Black';-inkscape-font-specification:'Arial Black, Bold';fill:#ffffff;fill-opacity:1;stroke-width:0.26458332"
           d="m 117.22849,98.981511 h 11.55347 v 1.124479 h -11.55347 z"
           inkscape:connector-curvature="0" />
      </g>
    </g>
    <g
       id="g1556"
       transform="matrix(0.26458333,0,0,0.26458333,0.11576648,231.76141)">
      <path
         inkscape:connector-curvature="0"
         id="path1011"
         d="m 130.93901,19.483615 c -2.51971,38.362204 -4.56838,76.761284 -9.48047,114.939455 l -12.26172,10.62695 -8.1543,30.43945 1.38282,-0.0117 c -0.40179,0.15978 -0.80226,0.32077 -1.22852,0.46679 l -42.822265,-1.20508 0.13672,-0.54101 c 0.39009,-1.5375 0.08149,-3.13422 -0.75586,-4.63086 l 7.13477,-68.86719 -27.89258,64.46485 c -0.98504,0.83347 -1.69214,1.86263 -1.99805,3.06836 l -0.93554,3.68554 c -1.10095,0.81595 -1.87715,1.84512 -2.1875,3.06836 l -7.125,28.08203 c -0.39099,1.54107 0.0033,3.16326 0.98828,4.69922 0.14689,0.44103 0.28651,0.85597 0.26172,1.56055 0.04467,-0.0378 0.09906,-0.0695 0.14648,-0.10547 0.4746,14.58439 -4.68519,28.35351 2.21289,30.40625 6.8229,2.03037 8.91324,-12.7457 18.71485,-25.08008 0.02386,0.11826 0.04476,0.23653 0.04882,0.35547 0.54295,-0.78132 0.98298,-1.2457 1.48047,-1.76953 1.32226,-0.85406 2.24024,-1.98716 2.58789,-3.35742 l 1.39844,-5.51563 67.917965,21.47656 c 2.38763,5.25004 6.20609,8.69319 13.14844,8.18555 6.38868,-0.46715 10.08339,-3.66653 12.41601,-8.24805 l 71.92383,-25.55273 1.6211,6.39258 c 0.21562,0.84986 0.65719,1.6054 1.27148,2.26367 0.0233,0.29813 0.14312,0.58896 0.38672,0.86719 0.97311,1.11146 1.45197,1.45169 2.25781,2.61133 0.004,-0.11833 0.0271,-0.23587 0.0508,-0.35352 9.79978,12.33383 11.89049,27.10835 18.71289,25.07813 6.89839,-2.05284 1.73778,-15.82309 2.21289,-30.40821 0.0474,0.036 0.10182,0.0677 0.14649,0.10547 -0.036,-1.0217 0.27166,-1.4395 0.44336,-2.21875 0.96354,-1.52256 1.34613,-3.12836 0.95898,-4.6543 l -7.125,-28.08203 c -0.31046,-1.22366 -1.08593,-2.25228 -2.1875,-3.06836 l -0.93554,-3.68554 c -0.3057,-1.20487 -1.01021,-2.23324 -1.99415,-3.06641 l -27.89453,-64.466801 7.13477,68.865241 c -0.83834,1.49731 -1.14614,3.09452 -0.75586,4.63281 l 0.84766,3.3418 c -0.21338,0.39429 -0.37346,0.79314 -0.50391,1.19336 l -49.64453,-0.15039 c -0.17528,-0.10461 -0.33371,-0.21418 -0.50391,-0.32032 l 6.76367,-0.0547 -12.50195,-32.07032 -13.51758,-11.58789 C 137.55906,94.020439 134.54682,56.751479 130.93901,19.483615 Z"
         style="fill:#000000;fill-opacity:1;stroke:none;stroke-width:1.418733px;stroke-linecap:butt;stroke-linejoin:miter;stroke-opacity:1;filter:url(#filter1113)" />
      <g
         transform="matrix(1.418733,0,0,1.418733,9.1902797,-117.11552)"
         id="g1009">
        <path
           style="fill:url(#linearGradient924);fill-opacity:1;stroke:none;stroke-width:1px;stroke-linecap:butt;stroke-linejoin:miter;stroke-opacity:1"
           d="m 77.011494,166.30268 -11.494253,9.96169 -5.747131,21.45594 48.0843,-0.38314 -8.812265,-22.60537 -10.727969,-9.1954 z"
           id="path916"
           inkscape:connector-curvature="0"
           sodipodi:nodetypes="ccccccc" />
        <path
           style="fill:url(#linearGradient940);fill-opacity:1;stroke:none;stroke-width:1px;stroke-linecap:butt;stroke-linejoin:miter;stroke-opacity:1"
           d="m 92.551496,170.09806 c 3.46519,9.21713 -0.545502,20.67704 10.891094,27.50276 l 36.52365,0.11001 4.07041,16.72167 -60.176023,21.12211 -60.506055,-19.25192 5.28053,-19.14192 31.24313,0.88009 c 13.006017,-4.45529 9.56952,-18.15951 14.081405,-27.39274 z"
           id="path882"
           inkscape:connector-curvature="0"
           sodipodi:nodetypes="cccccccccc" />
        <path
           sodipodi:nodetypes="cccccccccc"
           inkscape:connector-curvature="0"
           id="path884"
           d="m 89.486362,170.67277 c -1.02639,13.18239 4.089004,25.18487 8.015629,36.82904 l 42.574259,-4.62046 3.9604,11.55115 -61.076975,21.70062 -59.165063,-18.70945 3.08031,-14.10228 40.594069,4.29043 c 6.625379,-11.93604 8.433372,-25.39179 8.214784,-37.15527 z"
           style="fill:url(#linearGradient932);fill-opacity:1;stroke:none;stroke-width:1px;stroke-linecap:butt;stroke-linejoin:miter;stroke-opacity:1" />
        <path
           sodipodi:nodetypes="cccc"
           inkscape:connector-curvature="0"
           id="path886"
           d="m 29.226782,193.84906 c -3.75261,-4.65559 -8.64203,-5.75862 -14.74148,-3.0803 l 19.80198,-45.76459 z"
           style="fill:url(#radialGradient896);fill-opacity:1;stroke:none;stroke-width:1px;stroke-linecap:butt;stroke-linejoin:miter;stroke-opacity:1" />
        <rect
           style="opacity:1;fill:url(#linearGradient898);fill-opacity:1;stroke:none;stroke-width:1.60000002;stroke-linecap:round;stroke-linejoin:miter;stroke-miterlimit:4;stroke-dasharray:none;stroke-dashoffset:0;stroke-opacity:0.64313725"
           id="rect888"
           width="17.097012"
           height="16.223886"
           x="-77.275986"
           y="177.75389"
           ry="5.6856189"
           rx="8.5485058"
           transform="matrix(-0.96928992,-0.24592081,-0.24592081,0.96928992,0,0)" />
        <rect
           transform="matrix(-0.96928992,-0.24592081,-0.24592081,0.96928992,0,0)"
           rx="9.6140623"
           ry="5.6856189"
           y="182.9095"
           x="-78.444221"
           height="31.792475"
           width="19.228125"
           id="rect890"
           style="opacity:1;fill:url(#linearGradient900);fill-opacity:1;stroke:none;stroke-width:1.60000002;stroke-linecap:round;stroke-linejoin:miter;stroke-miterlimit:4;stroke-dasharray:none;stroke-dashoffset:0;stroke-opacity:0.64313725" />
        <path
           sodipodi:nodetypes="sszs"
           inkscape:connector-curvature="0"
           id="path892"
           d="m 22.744226,224.03028 c 2.86312,-3.27022 -16.0952239,-8.37424 -15.8030039,-3.6384 0.65907,10.68105 -3.4374588,21.03862 1.5990002,22.53738 5.0364587,1.49876 6.4096737,-9.99638 14.2040037,-18.89898 z"
           style="fill:url(#radialGradient902);fill-opacity:1;stroke:none;stroke-width:1px;stroke-linecap:butt;stroke-linejoin:miter;stroke-opacity:1" />
        <path
           style="fill:url(#linearGradient904);fill-opacity:1;stroke:none;stroke-width:1px;stroke-linecap:butt;stroke-linejoin:miter;stroke-opacity:1"
           d="m 23.357539,223.66242 c 2.86311,-3.27022 -17.1575082,-8.86998 -16.8652882,-4.13414 0.0572,0.92616 0.4171915,1.13639 0.3852915,2.04296 2.98335,-2.52174 14.7721797,0.54046 14.8879997,3.93167 0.568,-0.81738 0.906097,-1.05707 1.591997,-1.84049 z"
           id="path894"
           inkscape:connector-curvature="0"
           sodipodi:nodetypes="ssccs" />
        <path
           style="fill:url(#linearGradient950);fill-opacity:1;stroke:none;stroke-width:1px;stroke-linecap:butt;stroke-linejoin:miter;stroke-opacity:1"
           d="M 67.241379,208.63985 H 97.89272 C 87.624625,168.34611 84.743653,128.05236 80.842912,87.758621 78.186846,128.19681 76.2962,168.69387 67.241379,208.63985 Z"
           id="path942"
           inkscape:connector-curvature="0"
           sodipodi:nodetypes="cccc" />
        <path
           style="fill:url(#linearGradient914);fill-opacity:1;stroke:none;stroke-width:1px;stroke-linecap:butt;stroke-linejoin:miter;stroke-opacity:1"
           d="m 67.43295,209.59771 c 0.38138,-14.35607 27.204827,-15.08198 29.885058,-0.38314 -4.638062,10.12484 -0.933828,28.69715 -14.559387,29.69348 -13.625559,0.99633 -10.217114,-19.54023 -15.325671,-29.31034 z"
           id="path906"
           inkscape:connector-curvature="0"
           sodipodi:nodetypes="cczc" />
        <path
           style="fill:url(#radialGradient849);fill-opacity:1;stroke:none;stroke-width:1px;stroke-linecap:butt;stroke-linejoin:miter;stroke-opacity:1"
           d="m 138.75612,191.55021 c 3.7526,-4.65559 8.64202,-5.75862 14.74147,-3.0803 l -19.80198,-45.76459 z"
           id="path841"
           inkscape:connector-curvature="0"
           sodipodi:nodetypes="cccc" />
        <rect
           transform="rotate(-14.236257)"
           rx="8.5485058"
           ry="5.6856189"
           y="216.83614"
           x="86.113472"
           height="16.223886"
           width="17.097012"
           id="rect837"
           style="opacity:1;fill:url(#linearGradient839);fill-opacity:1;stroke:none;stroke-width:1.60000002;stroke-linecap:round;stroke-linejoin:miter;stroke-miterlimit:4;stroke-dasharray:none;stroke-dashoffset:0;stroke-opacity:0.64313725" />
        <rect
           style="opacity:1;fill:url(#linearGradient825);fill-opacity:1;stroke:none;stroke-width:1.60000002;stroke-linecap:round;stroke-linejoin:miter;stroke-miterlimit:4;stroke-dasharray:none;stroke-dashoffset:0;stroke-opacity:0.64313725"
           id="rect817"
           width="19.228125"
           height="31.792475"
           x="84.945244"
           y="221.99173"
           ry="5.6856189"
           rx="9.6140623"
           transform="rotate(-14.236257)" />
        <path
           style="fill:none;stroke:#757575;stroke-width:1px;stroke-linecap:butt;stroke-linejoin:miter;stroke-opacity:1"
           d="m 27.394636,214.77012 43.48659,11.68582"
           id="path960"
           inkscape:connector-curvature="0" />
        <path
           style="fill:none;stroke:#7a7a7a;stroke-width:1px;stroke-linecap:butt;stroke-linejoin:miter;stroke-opacity:1"
           d="m 28.544061,210.36399 30.651341,7.47126 6.704981,-5.9387"
           id="path962"
           inkscape:connector-curvature="0" />
        <path
           inkscape:connector-curvature="0"
           id="path964"
           d="M 138.50575,213.62069 95.019157,225.30651"
           style="fill:none;stroke:#757575;stroke-width:1px;stroke-linecap:butt;stroke-linejoin:miter;stroke-opacity:1" />
        <path
           inkscape:connector-curvature="0"
           id="path966"
           d="M 137.35632,209.21456 106.70498,216.68582 100,210.74712"
           style="fill:none;stroke:#7a7a7a;stroke-width:1px;stroke-linecap:butt;stroke-linejoin:miter;stroke-opacity:1" />
        <ellipse
           style="opacity:1;fill:url(#radialGradient976);fill-opacity:1;stroke:#b4a700;stroke-width:1;stroke-linecap:round;stroke-linejoin:miter;stroke-miterlimit:4;stroke-dasharray:none;stroke-dashoffset:0;stroke-opacity:1"
           id="path968"
           cx="81.800758"
           cy="178.27586"
           rx="6.8965516"
           ry="12.931034" />
        <path
           style="fill:#ffffff;fill-opacity:0.47767861;stroke:none;stroke-width:1px;stroke-linecap:butt;stroke-linejoin:miter;stroke-opacity:1"
           d="m 86.590038,199.0613 c 2.362708,0.63123 4.725415,1.49371 7.088123,3.63985 -1.710558,19.90882 -4.830905,28.06941 -8.045977,35.44061 2.225817,-12.20973 2.304653,-25.3396 0.957854,-39.08046 z"
           id="path978"
           inkscape:connector-curvature="0"
           sodipodi:nodetypes="cccc" />
        <path
           style="fill:url(#radialGradient984);fill-opacity:1;stroke:none;stroke-width:1px;stroke-linecap:butt;stroke-linejoin:miter;stroke-opacity:1"
           d="m 145.13085,222.16461 c -2.86312,-3.27022 16.09522,-8.37424 15.803,-3.6384 -0.65907,10.68105 3.43746,21.03862 -1.599,22.53738 -5.03646,1.49876 -6.40967,-9.99638 -14.204,-18.89898 z"
           id="path980"
           inkscape:connector-curvature="0"
           sodipodi:nodetypes="sszs" />
        <path
           sodipodi:nodetypes="ssccs"
           inkscape:connector-curvature="0"
           id="path982"
           d="m 144.51754,221.79675 c -2.86311,-3.27022 17.1575,-8.86998 16.86528,-4.13414 -0.0572,0.92616 -0.41719,1.13639 -0.38529,2.04296 -2.98335,-2.52174 -14.77218,0.54046 -14.888,3.93167 -0.568,-0.81738 -0.90609,-1.05707 -1.59199,-1.84049 z"
           style="fill:url(#linearGradient986);fill-opacity:1;stroke:none;stroke-width:1px;stroke-linecap:butt;stroke-linejoin:miter;stroke-opacity:1" />
      </g>
    </g>
  </g>
</svg>
