<?xml version="1.0" encoding="UTF-8" standalone="no"?>
<!-- Created with Inkscape (http://www.inkscape.org/) -->

<svg
   xmlns:dc="http://purl.org/dc/elements/1.1/"
   xmlns:cc="http://creativecommons.org/ns#"
   xmlns:rdf="http://www.w3.org/1999/02/22-rdf-syntax-ns#"
   xmlns:svg="http://www.w3.org/2000/svg"
   xmlns="http://www.w3.org/2000/svg"
   xmlns:xlink="http://www.w3.org/1999/xlink"
   xmlns:sodipodi="http://sodipodi.sourceforge.net/DTD/sodipodi-0.dtd"
   xmlns:inkscape="http://www.inkscape.org/namespaces/inkscape"
   id="svg2"
   version="1.1"
   inkscape:version="0.48.4 r9939"
   width="256"
   height="256"
   sodipodi:docname="Midnight Commander.svg">
  <metadata
     id="metadata8">
    <rdf:RDF>
      <cc:Work
         rdf:about="">
        <dc:format>image/svg+xml</dc:format>
        <dc:type
           rdf:resource="http://purl.org/dc/dcmitype/StillImage" />
        <dc:title />
      </cc:Work>
    </rdf:RDF>
  </metadata>
  <defs
     id="defs6">
    <linearGradient
       id="linearGradient3900"
       gradientUnits="userSpaceOnUse"
       x1="59.462898"
       y1="54.699699"
       x2="110.0638"
       y2="63.781898"
       gradientTransform="matrix(1.036978,0.195638,-0.28716,0.768893,-81.62287,-25.91844)">
      <stop
         offset="0.26900318"
         style="stop-color:#cdcdcd;stop-opacity:0;"
         id="stop3902" />
      <stop
         offset="0.46502978"
         style="stop-color:#9a9a9a;stop-opacity:1;"
         id="stop3904" />
      <stop
         offset="1"
         style="stop-color:#101010"
         id="stop3906" />
    </linearGradient>
    <linearGradient
       id="linearGradient3829">
      <stop
         style="stop-color:#ffffff;stop-opacity:1;"
         offset="0"
         id="stop3831" />
      <stop
         style="stop-color:#000000;stop-opacity:1;"
         offset="1"
         id="stop3833" />
    </linearGradient>
    <linearGradient
       id="linearGradient3819">
      <stop
         style="stop-color:#ffffff;stop-opacity:1;"
         offset="0"
         id="stop3821" />
      <stop
         style="stop-color:#000000;stop-opacity:0;"
         offset="1"
         id="stop3823" />
    </linearGradient>
    <linearGradient
       id="linearGradient3805">
      <stop
         style="stop-color:#d8cf24;stop-opacity:1;"
         offset="0"
         id="stop3807" />
      <stop
         style="stop-color:#404102;stop-opacity:1;"
         offset="1"
         id="stop3809" />
    </linearGradient>
    <linearGradient
       id="linearGradient3795">
      <stop
         style="stop-color:#d6d6d6;stop-opacity:1;"
         offset="0"
         id="stop3797" />
      <stop
         style="stop-color:#000000;stop-opacity:1;"
         offset="1"
         id="stop3799" />
    </linearGradient>
    <linearGradient
       id="linearGradient3783">
      <stop
         style="stop-color:#a4a4a4;stop-opacity:1;"
         offset="0"
         id="stop3785" />
      <stop
         style="stop-color:#ffffff;stop-opacity:1;"
         offset="1"
         id="stop3787" />
    </linearGradient>
    <linearGradient
       id="linearGradient3775">
      <stop
         style="stop-color:#b9b9b9;stop-opacity:1;"
         offset="0"
         id="stop3777" />
      <stop
         style="stop-color:#f5f5f5;stop-opacity:1;"
         offset="1"
         id="stop3779" />
    </linearGradient>
    <linearGradient
       id="linearGradient3765">
      <stop
         style="stop-color:#f5f5f5;stop-opacity:1;"
         offset="0"
         id="stop3767" />
      <stop
         id="stop3815"
         offset="0.5"
         style="stop-color:#f5f5f5;stop-opacity:1;" />
      <stop
         style="stop-color:#f5f5f5;stop-opacity:0;"
         offset="1"
         id="stop3769" />
    </linearGradient>
    <filter
       inkscape:collect="always"
       id="filter3859"
       color-interpolation-filters="sRGB">
      <feGaussianBlur
         inkscape:collect="always"
         stdDeviation="14.032379"
         id="feGaussianBlur3861" />
    </filter>
    <linearGradient
       id="linearGradient2793">
      <stop
         style="stop-color:#3e0007;stop-opacity:1;"
         offset="0"
         id="stop2795" />
      <stop
         style="stop-color:#ee7162;stop-opacity:0;"
         offset="1"
         id="stop2797" />
    </linearGradient>
    <linearGradient
       id="linearGradient2785">
      <stop
         style="stop-color:#7d0014;stop-opacity:1;"
         offset="0"
         id="stop2787" />
      <stop
         style="stop-color:#1b0c0e;stop-opacity:1;"
         offset="1"
         id="stop2789" />
    </linearGradient>
    <linearGradient
       id="linearGradient2779">
      <stop
         id="stop2781"
         offset="0"
         style="stop-color:#fc8a92;stop-opacity:1;" />
      <stop
         id="stop2783"
         offset="1"
         style="stop-color:#54080a;stop-opacity:1;" />
    </linearGradient>
    <linearGradient
       id="linearGradient4042">
      <stop
         style="stop-color:#831907;stop-opacity:1;"
         offset="0"
         id="stop4044" />
      <stop
         style="stop-color:#fc7e81;stop-opacity:1;"
         offset="1"
         id="stop4046" />
    </linearGradient>
    <radialGradient
       r="61.800961"
       fy="94.952156"
       fx="154.17641"
       cy="94.952156"
       cx="154.17641"
       gradientTransform="matrix(4.779595,-0.0369431,0.02224268,2.052663,-696.6357,-27.05907)"
       gradientUnits="userSpaceOnUse"
       id="radialGradient2156"
       xlink:href="#linearGradient3045"
       inkscape:collect="always" />
    <linearGradient
       y2="23.240662"
       x2="161.8576"
       y1="40.875286"
       x1="197.05048"
       gradientTransform="matrix(1.962877,0,0,2.353886,-194.894,14.74933)"
       gradientUnits="userSpaceOnUse"
       id="linearGradient2153"
       xlink:href="#linearGradient3850"
       inkscape:collect="always" />
    <linearGradient
       y2="65.623009"
       x2="74.29882"
       y1="71.587662"
       x1="22.58061"
       spreadMethod="reflect"
       gradientTransform="matrix(1.962877,0,0,2.353886,1.028509,-10.80074)"
       gradientUnits="userSpaceOnUse"
       id="linearGradient2150"
       xlink:href="#linearGradient3896"
       inkscape:collect="always" />
    <linearGradient
       y2="69.087486"
       x2="87.376457"
       y1="79.732788"
       x1="20.246616"
       gradientTransform="matrix(1.962634,0,0,2.408692,9.221421,-18.28566)"
       gradientUnits="userSpaceOnUse"
       id="linearGradient2147"
       xlink:href="#linearGradient3860"
       inkscape:collect="always" />
    <linearGradient
       y2="69.087486"
       x2="87.376457"
       y1="79.732788"
       x1="20.246616"
       spreadMethod="reflect"
       gradientTransform="matrix(1.962634,0,0,2.408692,9.221421,-18.28566)"
       gradientUnits="userSpaceOnUse"
       id="linearGradient2145"
       xlink:href="#linearGradient3896"
       inkscape:collect="always" />
    <linearGradient
       y2="63.781898"
       x2="110.0638"
       y1="54.699699"
       x1="59.462898"
       gradientTransform="matrix(1.036978,0.195638,-0.28716,0.768893,-81.62287,-25.91844)"
       gradientUnits="userSpaceOnUse"
       id="linearGradient18007"
       xlink:href="#aigrd9"
       inkscape:collect="always" />
    <linearGradient
       y2="53.9687"
       x2="37.9594"
       y1="79.913597"
       x1="105.0869"
       gradientTransform="matrix(0.940706,0.297998,-0.339223,0.826385,-66.99998,-35.54486)"
       gradientUnits="userSpaceOnUse"
       id="linearGradient18005"
       xlink:href="#aigrd8"
       inkscape:collect="always" />
    <linearGradient
       y2="94.277802"
       x2="120.5259"
       y1="114.1714"
       x1="86.361298"
       gradientTransform="matrix(0.944557,0.328348,-0.328348,0.944557,-70.25923,-53.55679)"
       gradientUnits="userSpaceOnUse"
       id="linearGradient18003"
       xlink:href="#aigrd7"
       inkscape:collect="always" />
    <linearGradient
       y2="82.5327"
       x2="127.7881"
       y1="108.4819"
       x1="73.943398"
       gradientTransform="matrix(0.956392,0.292087,-0.292087,0.956392,-73.82744,-51.22974)"
       gradientUnits="userSpaceOnUse"
       id="linearGradient18001"
       xlink:href="#aigrd6"
       inkscape:collect="always" />
    <linearGradient
       y2="72.563499"
       x2="93.690201"
       y1="64.346199"
       x1="35.3008"
       gradientTransform="matrix(0.940101,0.293186,-0.340897,0.808527,-68.03792,-33.98443)"
       gradientUnits="userSpaceOnUse"
       id="linearGradient17999"
       xlink:href="#aigrd5"
       inkscape:collect="always" />
    <linearGradient
       y2="77.178802"
       x2="42.867298"
       y1="97.709503"
       x1="92.551804"
       gradientTransform="matrix(0.9338,0.327527,-0.318471,0.945707,-68.30442,-53.7583)"
       gradientUnits="userSpaceOnUse"
       id="linearGradient17997"
       xlink:href="#aigrd2"
       inkscape:collect="always" />
    <linearGradient
       gradientTransform="matrix(1.036978,0.195638,-0.28716,0.768893,-81.62287,-25.91844)"
       y2="63.781898"
       x2="110.0638"
       y1="54.699699"
       x1="59.462898"
       gradientUnits="userSpaceOnUse"
       id="aigrd9">
      <stop
         id="stop16993"
         style="stop-color:#cdcdcd;stop-opacity:1;"
         offset="0.62849998" />
      <stop
         id="stop16995"
         style="stop-color:#9a9a9a;stop-opacity:1;"
         offset="0.77530003" />
      <stop
         id="stop16997"
         style="stop-color:#101010"
         offset="1" />
    </linearGradient>
    <linearGradient
       gradientTransform="matrix(0.940706,0.297998,-0.339223,0.826385,-66.99998,-35.54486)"
       y2="53.9687"
       x2="37.9594"
       y1="79.913597"
       x1="105.0869"
       gradientUnits="userSpaceOnUse"
       id="aigrd8">
      <stop
         id="stop16978"
         style="stop-color:#303030"
         offset="0" />
      <stop
         id="stop16980"
         style="stop-color:#828282"
         offset="1" />
    </linearGradient>
    <linearGradient
       gradientTransform="matrix(0.944557,0.328348,-0.328348,0.944557,-70.25923,-53.55679)"
       y2="94.277802"
       x2="120.5259"
       y1="114.1714"
       x1="86.361298"
       gradientUnits="userSpaceOnUse"
       id="aigrd7">
      <stop
         id="stop16972"
         style="stop-color:#FFFFFF"
         offset="0" />
      <stop
         id="stop16974"
         style="stop-color:#797E81"
         offset="1" />
    </linearGradient>
    <linearGradient
       gradientTransform="matrix(0.956392,0.292087,-0.292087,0.956392,-73.82744,-51.22974)"
       y2="82.5327"
       x2="127.7881"
       y1="108.4819"
       x1="73.943398"
       gradientUnits="userSpaceOnUse"
       id="aigrd6">
      <stop
         id="stop16965"
         style="stop-color:#FFFFFF"
         offset="0" />
      <stop
         id="stop16967"
         style="stop-color:#B1B1C5"
         offset="1" />
    </linearGradient>
    <linearGradient
       gradientTransform="matrix(0.940101,0.293186,-0.340897,0.808527,-68.03792,-33.98443)"
       y2="72.563499"
       x2="93.690201"
       y1="64.346199"
       x1="35.3008"
       gradientUnits="userSpaceOnUse"
       id="aigrd5">
      <stop
         id="stop16956"
         style="stop-color:#FFFFFF"
         offset="0" />
      <stop
         id="stop16958"
         style="stop-color:#ECECEC"
         offset="0.2022" />
      <stop
         id="stop16960"
         style="stop-color:#606060"
         offset="1" />
    </linearGradient>
    <linearGradient
       gradientTransform="translate(-8.846885,-7.637049)"
       y2="58.936001"
       x2="77.696404"
       y1="58.936001"
       x1="20.695299"
       gradientUnits="userSpaceOnUse"
       id="aigrd4">
      <stop
         id="stop16950"
         style="stop-color:#FFFFFF"
         offset="0" />
      <stop
         id="stop16952"
         style="stop-color:#DFDFEC"
         offset="1" />
    </linearGradient>
    <linearGradient
       gradientTransform="translate(-8.846885,-7.637049)"
       y2="59.724098"
       x2="110.4219"
       y1="59.724098"
       x1="1"
       gradientUnits="userSpaceOnUse"
       id="aigrd3">
      <stop
         id="stop16941"
         style="stop-color:#BFBFBF"
         offset="0" />
      <stop
         id="stop16943"
         style="stop-color:#121212;stop-opacity:1;"
         offset="1" />
    </linearGradient>
    <linearGradient
       gradientTransform="matrix(0.9338,0.327527,-0.318471,0.945707,-68.30442,-53.7583)"
       y2="77.178802"
       x2="42.867298"
       y1="97.709503"
       x1="92.551804"
       gradientUnits="userSpaceOnUse"
       id="aigrd2">
      <stop
         id="stop16932"
         style="stop-color:#303030"
         offset="0" />
      <stop
         id="stop16934"
         style="stop-color:#828282"
         offset="1" />
    </linearGradient>
    <linearGradient
       gradientTransform="translate(-8.846885,-7.637049)"
       y2="91.074699"
       x2="135.0332"
       y1="91.074699"
       x1="19.9268"
       gradientUnits="userSpaceOnUse"
       id="aigrd1">
      <stop
         id="stop16926"
         style="stop-color:#E8E8E8"
         offset="0" />
      <stop
         id="stop16928"
         style="stop-color:#A9A9A9"
         offset="1" />
    </linearGradient>
    <linearGradient
       id="linearGradient3850"
       inkscape:collect="always">
      <stop
         id="stop3852"
         offset="0"
         style="stop-color:#987532;stop-opacity:1" />
      <stop
         id="stop3854"
         offset="1"
         style="stop-color:#e6dbc6;stop-opacity:1" />
    </linearGradient>
    <linearGradient
       id="linearGradient3860"
       inkscape:collect="always">
      <stop
         id="stop3862"
         offset="0"
         style="stop-color:#482b19;stop-opacity:1" />
      <stop
         id="stop3864"
         offset="1"
         style="stop-color:#b27e5e;stop-opacity:1" />
    </linearGradient>
    <linearGradient
       id="linearGradient3896">
      <stop
         style="stop-color:#252200;stop-opacity:1;"
         offset="0"
         id="stop3898" />
      <stop
         style="stop-color:#eee38d;stop-opacity:1;"
         offset="1"
         id="stop3900" />
    </linearGradient>
    <linearGradient
       id="linearGradient3045">
      <stop
         id="stop3047"
         offset="0"
         style="stop-color:#6a5905;stop-opacity:1;" />
      <stop
         style="stop-color:#d7ba06;stop-opacity:1;"
         offset="0.25"
         id="stop3905" />
      <stop
         style="stop-color:#b0a00d;stop-opacity:1;"
         offset="0.5"
         id="stop2837" />
      <stop
         id="stop3049"
         offset="1"
         style="stop-color:#534c0a;stop-opacity:1;" />
    </linearGradient>
    <linearGradient
       id="linearGradient2855">
      <stop
         style="stop-color:#482b19;stop-opacity:1;"
         offset="0"
         id="stop2857" />
      <stop
         style="stop-color:#b2955e;stop-opacity:1;"
         offset="1"
         id="stop2859" />
    </linearGradient>
    <linearGradient
       id="linearGradient2863">
      <stop
         id="stop2865"
         offset="0"
         style="stop-color:black;stop-opacity:0.42268041;" />
      <stop
         style="stop-color:black;stop-opacity:0.22680412;"
         offset="0.5"
         id="stop2871" />
      <stop
         id="stop2867"
         offset="1"
         style="stop-color:black;stop-opacity:0;" />
    </linearGradient>
    <linearGradient
       id="linearGradient2875">
      <stop
         style="stop-color:black;stop-opacity:0.556701;"
         offset="0"
         id="stop2877" />
      <stop
         id="stop2879"
         offset="0.5"
         style="stop-color:black;stop-opacity:0.29896906;" />
      <stop
         style="stop-color:black;stop-opacity:0;"
         offset="1"
         id="stop2881" />
    </linearGradient>
    <linearGradient
       id="linearGradient3907">
      <stop
         id="stop3911"
         offset="0"
         style="stop-color:#222222;stop-opacity:1;" />
      <stop
         style="stop-color:#e8e8e8;stop-opacity:1;"
         offset="1"
         id="stop3915" />
    </linearGradient>
    <linearGradient
       inkscape:collect="always"
       xlink:href="#linearGradient3819"
       id="linearGradient4495"
       gradientUnits="userSpaceOnUse"
       gradientTransform="translate(0,-899)"
       spreadMethod="reflect"
       x1="849.36414"
       y1="850.4292"
       x2="1001.5276"
       y2="770.16418" />
    <linearGradient
       inkscape:collect="always"
       xlink:href="#linearGradient3795"
       id="linearGradient4497"
       gradientUnits="userSpaceOnUse"
       gradientTransform="translate(1122.6494,-905.01957)"
       spreadMethod="reflect"
       x1="-776.30646"
       y1="608.04718"
       x2="-422.89835"
       y2="587.88586" />
    <linearGradient
       inkscape:collect="always"
       xlink:href="#linearGradient3783"
       id="linearGradient4499"
       gradientUnits="userSpaceOnUse"
       gradientTransform="translate(1122.6494,-905.01957)"
       spreadMethod="reflect"
       x1="-599.35242"
       y1="393.72003"
       x2="-1059.1218"
       y2="496.84155" />
    <linearGradient
       inkscape:collect="always"
       xlink:href="#linearGradient3775"
       id="linearGradient4501"
       gradientUnits="userSpaceOnUse"
       gradientTransform="translate(1122.6494,-905.01957)"
       x1="-754.34613"
       y1="384.61618"
       x2="-32.310135"
       y2="384.61618" />
    <linearGradient
       inkscape:collect="always"
       xlink:href="#linearGradient3765"
       id="linearGradient4503"
       gradientUnits="userSpaceOnUse"
       gradientTransform="translate(1122.6494,-905.01957)"
       x1="-979.13251"
       y1="432.70236"
       x2="-330.26923"
       y2="432.70236" />
    <linearGradient
       inkscape:collect="always"
       xlink:href="#linearGradient3805"
       id="linearGradient4505"
       gradientUnits="userSpaceOnUse"
       gradientTransform="translate(1122.6494,-905.01957)"
       spreadMethod="reflect"
       x1="-279.53226"
       y1="661.09497"
       x2="-633.37097"
       y2="663.51434" />
    <radialGradient
       inkscape:collect="always"
       xlink:href="#linearGradient3829"
       id="radialGradient4507"
       gradientUnits="userSpaceOnUse"
       gradientTransform="matrix(1,0,0,1.326923,0,-183.461)"
       spreadMethod="reflect"
       cx="950.9364"
       cy="557.07391"
       fx="950.9364"
       fy="557.07391"
       r="35.371025" />
    <linearGradient
       inkscape:collect="always"
       xlink:href="#linearGradient2779"
       id="linearGradient4509"
       gradientUnits="userSpaceOnUse"
       gradientTransform="matrix(1.941529,0,0,1.719973,3.891961,18.10922)"
       x1="65.68087"
       y1="122.67795"
       x2="64.249565"
       y2="4.4450192" />
    <linearGradient
       inkscape:collect="always"
       xlink:href="#linearGradient2785"
       id="linearGradient4511"
       gradientUnits="userSpaceOnUse"
       x1="108.96737"
       y1="236.19475"
       x2="98.024757"
       y2="21.749863" />
    <linearGradient
       inkscape:collect="always"
       xlink:href="#linearGradient4042"
       id="linearGradient4513"
       gradientUnits="userSpaceOnUse"
       gradientTransform="matrix(1.941529,0,0,1.719973,3.891961,18.10922)"
       x1="65.68087"
       y1="122.67795"
       x2="64.249565"
       y2="4.4450192" />
    <linearGradient
       inkscape:collect="always"
       xlink:href="#linearGradient2793"
       id="linearGradient4515"
       gradientUnits="userSpaceOnUse"
       x1="119.92903"
       y1="241.3231"
       x2="106.98985"
       y2="26.365191" />
    <linearGradient
       inkscape:collect="always"
       xlink:href="#linearGradient3805"
       id="linearGradient4692"
       gradientUnits="userSpaceOnUse"
       gradientTransform="matrix(0.2276132,0,0,0.2276132,248.9784,8.9121696)"
       spreadMethod="reflect"
       x1="-279.53226"
       y1="661.09497"
       x2="-633.37097"
       y2="663.51434" />
    <linearGradient
       inkscape:collect="always"
       xlink:href="#linearGradient3900"
       id="linearGradient4696"
       gradientUnits="userSpaceOnUse"
       gradientTransform="matrix(0.2276132,0,0,0.2276132,248.9784,8.9121696)"
       x1="-393.5918"
       y1="400.90829"
       x2="-993.97034"
       y2="582.39941" />
    <linearGradient
       inkscape:collect="always"
       xlink:href="#aigrd3"
       id="linearGradient4699"
       gradientUnits="userSpaceOnUse"
       gradientTransform="matrix(0.2276132,0,0,0.2276132,248.9784,8.9121696)"
       x1="-211.19749"
       y1="380.64194"
       x2="-597.97955"
       y2="376.66766"
       spreadMethod="reflect" />
    <linearGradient
       inkscape:collect="always"
       xlink:href="#linearGradient3907"
       id="linearGradient4703"
       gradientUnits="userSpaceOnUse"
       gradientTransform="matrix(0.2276132,0,0,0.2276132,248.9784,8.9121696)"
       spreadMethod="reflect"
       x1="-599.35242"
       y1="393.72003"
       x2="-1059.1218"
       y2="496.84155" />
    <linearGradient
       inkscape:collect="always"
       xlink:href="#linearGradient3795"
       id="linearGradient4707"
       gradientUnits="userSpaceOnUse"
       gradientTransform="matrix(0.2276132,0,0,0.2276132,248.9784,8.9121696)"
       spreadMethod="reflect"
       x1="-776.30646"
       y1="608.04718"
       x2="-422.89835"
       y2="587.88586" />
    <linearGradient
       inkscape:collect="always"
       xlink:href="#linearGradient3819"
       id="linearGradient4710"
       gradientUnits="userSpaceOnUse"
       gradientTransform="matrix(0.2276132,0,0,0.2276132,-6.551419,10.282303)"
       spreadMethod="reflect"
       x1="849.36414"
       y1="850.4292"
       x2="1001.5276"
       y2="770.16418" />
    <radialGradient
       inkscape:collect="always"
       xlink:href="#linearGradient3829"
       id="radialGradient4716"
       gradientUnits="userSpaceOnUse"
       gradientTransform="matrix(1,0,0,1.326923,0,-183.461)"
       spreadMethod="reflect"
       cx="950.9364"
       cy="557.07391"
       fx="950.9364"
       fy="557.07391"
       r="35.371025" />
  </defs>
  <sodipodi:namedview
     pagecolor="#ffffff"
     bordercolor="#666666"
     borderopacity="1"
     objecttolerance="10"
     gridtolerance="10"
     guidetolerance="10"
     inkscape:pageopacity="0"
     inkscape:pageshadow="2"
     inkscape:window-width="1680"
     inkscape:window-height="1027"
     id="namedview4"
     showgrid="false"
     inkscape:snap-global="false"
     inkscape:zoom="3.3164062"
     inkscape:cx="128"
     inkscape:cy="128"
     inkscape:window-x="-2"
     inkscape:window-y="-5"
     inkscape:window-maximized="1"
     inkscape:current-layer="svg2" />
  <path
     style="font-size:12px;font-style:normal;font-weight:bold;fill:#000000;fill-opacity:1;stroke:none;font-family:Bitstream Vera Sans"
     d="m 15.951932,-6.6740514 -3.5274,0 -0.5566,1.59375 -2.2675998,0 3.2401998,-8.7480496 2.6895,0 3.2402,8.7480496 -2.2676,0 -0.5507,-1.59375 m -2.9649,-1.62305 2.3965,0 -1.1953,-3.4804696 -1.2012,3.4804696 m 3.6946,-5.4329796 3.7442,0 c 1.1133,10e-6 1.9668,0.24806 2.5605,0.74414 0.5977,0.4922 0.8965,1.19532 0.8965,2.10938 0,0.9179696 -0.2988,1.6249996 -0.8965,2.1210896 -0.5937,0.49219 -1.4472,0.73828 -2.5605,0.73828 l -1.4883,0 0,3.03516 -2.2559,0 0,-8.7480496 m 2.2559,1.63477 0,2.4433596 1.2481,0 c 0.4374,0 0.7753,-0.10547 1.0136,-0.31641 0.2383,-0.2148396 0.3574,-0.5175696 0.3574,-0.9081996 0,-0.39062 -0.1191,-0.6914 -0.3574,-0.90235 -0.2383,-0.21093 -0.5762,-0.3164 -1.0136,-0.3164 l -1.2481,0"
     id="text2893"
     sodipodi:nodetypes="cccccccccccccccsssccccccccssscc"
     inkscape:connector-curvature="0" />
  <path
     transform="matrix(0.23346407,0.04358582,-0.03235433,0.15868569,11.228618,27.611461)"
     style="fill:#000000;fill-opacity:1;stroke:none;filter:url(#filter3859)"
     d="m 1101.9435,749.59363 c 0,94.66902 -218.64944,292.93817 -455.2146,187.73043 C 428.53026,840.28447 221.94982,805.66334 210.86572,749.59363 192.81107,658.26285 410.34027,578.18021 656.4046,578.18021 c 246.06433,0 445.5389,76.7444 445.5389,171.41342 z"
     id="path3845"
     inkscape:connector-curvature="0"
     sodipodi:nodetypes="sssss" />
  <path
     style="fill:#000000;fill-opacity:1;stroke:#000000;stroke-width:0.2276132px;stroke-linecap:butt;stroke-linejoin:miter;stroke-opacity:1"
     d="m 83.775268,165.7083 c 36.625182,43.99648 81.782962,47.55585 129.592672,38.54739 15.6219,-3.93953 34.46318,-13.02488 26.98317,-25.88182 l -13.39979,-21.65997 -79.11395,9.36151 z"
     id="path3813"
     inkscape:connector-curvature="0"
     sodipodi:nodetypes="cccccc" />
  <path
     sodipodi:nodetypes="cccccc"
     inkscape:connector-curvature="0"
     id="path3817"
     d="m 83.775268,165.7083 c 36.625182,43.99648 81.782962,47.55585 129.592672,38.54739 15.6219,-3.93953 34.46318,-13.02488 26.98317,-25.88182 l -13.39979,-21.65997 -79.11395,9.36151 z"
     style="fill:url(#linearGradient4710);fill-opacity:1;stroke:#000000;stroke-width:0.2276132px;stroke-linecap:butt;stroke-linejoin:miter;stroke-opacity:1" />
  <path
     style="fill:url(#linearGradient4707);fill-opacity:1;stroke:none"
     d="m 35.499241,141.4785 -0.183559,14.13405 c 1.326669,1.59268 0.983219,3.6421 4.405418,4.58897 38.341998,3.58282 44.641203,19.85362 175.48243,2.56983 2.15602,-0.57121 4.17304,-1.38564 4.40542,-5.32321 3.6317,-14.03688 0.49292,-27.55295 -2.01915,-41.11723 l -110.68609,7.34237 z"
     id="path3793"
     inkscape:connector-curvature="0"
     sodipodi:nodetypes="cccccccc" />
  <path
     style="fill:#545454;fill-opacity:1;stroke:#7b7b7b;stroke-width:0.2276132;stroke-linecap:round;stroke-linejoin:miter;stroke-miterlimit:4;stroke-opacity:1;stroke-dasharray:none"
     d="M 242.18929,85.905196 C 248.53133,72.110775 230.53802,63.294064 214.90697,59.994617 186.20442,53.936004 123.33159,99.402586 106.37942,111.09024 72.369118,134.53858 3.7757046,149.54144 4.6662868,127.423 c -0.7973746,0.46975 -1.1591885,1.37507 -1.1206991,2.68069 -1.2699451,19.58939 69.0795693,6.80926 103.0898723,-16.63909 16.95217,-11.68765 79.3192,-57.154228 108.02174,-51.095615 15.63106,3.299446 31.61682,11.99911 25.27476,25.79353 0.71446,-0.144664 1.44091,-0.48142 2.25733,-2.257319 z"
     id="path2987"
     inkscape:connector-curvature="0"
     sodipodi:nodetypes="cssccsscc" />
  <path
     sodipodi:nodetypes="csssssscc"
     inkscape:connector-curvature="0"
     id="path3759"
     d="M 242.18929,85.905196 C 248.53133,72.110775 230.53802,63.294064 214.90697,59.994617 186.20442,53.936004 123.33159,99.402586 106.37942,111.09024 72.369118,134.53858 3.5736296,149.53238 4.6662868,127.423 c 0.236786,-4.79127 4.5606629,-8.14497 11.1354072,-12.88261 15.524651,-11.18678 54.294428,-10.69944 85.581146,-19.168117 19.87547,-5.379882 71.7321,-36.727407 97.32198,-41.757643 15.67551,-3.081354 42.12205,7.330122 45.70159,22.875414 0.32537,5.107947 -3.03354,11.191051 -2.21712,9.415152 z"
     style="fill:url(#linearGradient4703);fill-opacity:1.0;stroke:none" />
  <path
     style="fill:#5d5d5d;fill-opacity:1;stroke:#7b7b7b;stroke-width:0.22761319999999999;stroke-linecap:round;stroke-linejoin:miter;stroke-miterlimit:4;stroke-opacity:1;stroke-dasharray:none"
     d="M 242.18929,85.905196 C 248.53133,72.110775 230.53802,63.294064 214.90697,59.994617 186.20442,53.936004 123.33159,99.402586 106.37942,111.09024 72.369118,134.53858 3.5736296,149.53238 4.6662868,127.423 c 4.9057701,1.04497 3.8659874,4.25638 11.9135702,5.20972 21.478717,2.54444 56.66851,-10.87514 86.942943,-28.11701 17.89244,-10.190092 69.59214,-45.870844 95.18202,-50.90108 15.67551,-3.081354 42.12205,7.330122 45.70159,22.875414 0.32537,5.107947 -3.03354,11.191051 -2.21712,9.415152 z"
     id="path3761"
     inkscape:connector-curvature="0"
     sodipodi:nodetypes="csscssscc" />
  <path
     style="fill:url(#linearGradient4699);fill-opacity:1;stroke:none"
     d="m 77.393062,128.62309 c 0,0 44.347388,2.53224 66.533088,2.13996 18.26078,-0.32289 54.66608,-3.69629 54.66608,-3.69629 17.38781,-3.7852 27.48319,-10.15804 28.7921,-19.64865 l 12.64516,-19.843208 c 3.85907,-7.572918 -0.0449,-14.21428 -9.14342,-20.232284 C 201.24668,53.222285 177.6879,70.874956 154.04229,82.516832 124.9103,97.956516 105.60566,119.16656 77.393062,128.62309 z"
     id="path3773"
     inkscape:connector-curvature="0"
     sodipodi:nodetypes="cscccccc" />
  <path
     style="fill:url(#linearGradient4696);fill-opacity:1;stroke:none"
     d="M 173.69095,72.595229 C 149.16104,84.100542 125.86483,99.718203 102.87796,116.367 66.44131,138.00119 14.093115,146.6332 4.4401076,134.07025 13.312106,145.69657 56.729683,145.72076 96.263557,131.9303 l 39.491863,-11.28339 c 11.80955,-3.97768 19.11805,-10.35591 23.1504,-18.48142"
     id="path3763"
     inkscape:connector-curvature="0"
     sodipodi:nodetypes="cccccc" />
  <path
     sodipodi:nodetypes="cssccsscc"
     inkscape:connector-curvature="0"
     id="path3791"
     d="M 241.99621,85.261603 C 247.66692,72.004254 230.43605,64.083593 214.90697,60.702569 186.24346,54.461891 123.39595,100.04618 106.44378,111.73383 72.433477,135.18218 3.2608208,150.05631 4.151403,127.93788 c -0.7973746,0.46974 -0.1294209,0.2166 -0.090931,1.52221 -1.6409091,19.77488 68.3788415,6.77347 102.7036985,-16.83216 16.96593,-11.66767 79.08017,-56.739175 107.82867,-50.902538 15.2069,3.087366 29.97146,9.63181 26.30452,24.763784 0.71446,-0.144664 0.28245,0.548327 1.09885,-1.227573 z"
     style="fill:#afafaf;fill-opacity:1;stroke:none" />
  <path
     style="fill:url(#linearGradient4692);fill-opacity:1;stroke:#000000;stroke-width:0.2276132px;stroke-linecap:butt;stroke-linejoin:miter;stroke-opacity:1"
     d="m 71.660371,146.61816 c 32.885989,5.93842 66.909699,9.58642 102.242379,10.64642 14.41837,0.43255 45.37977,-4.13701 46.624,-9.72863 l 0,-15.60252 c 2.95176,3.91372 6.83998,6.14182 7.52592,14.13405 l 0,10.46286 c -0.30751,9.66271 -38.23266,15.66068 -54.33348,15.2354 -23.67795,-0.62542 -69.4498,-4.35665 -103.160173,-12.11489 -8.951671,-2.31537 -5.02996,-13.10135 1.101354,-13.03269 z"
     id="path3803"
     inkscape:connector-curvature="0"
     sodipodi:nodetypes="csccccscc" />
  <path
     sodipodi:type="arc"
     style="fill:url(#radialGradient4507);fill-opacity:1;stroke:none"
     id="path3827"
     sodipodi:cx="931.89044"
     sodipodi:cy="561.17493"
     sodipodi:rx="35.371025"
     sodipodi:ry="46.934628"
     d="m 967.26147,561.17493 a 35.371025,46.934628 0 1 1 -70.74205,0 35.371025,46.934628 0 1 1 70.74205,0 z"
     transform="matrix(0.2276132,0,0,0.2276132,-6.8610695,11.830555)" />
  <path
     style="fill:none;stroke:#000000;stroke-width:1.59329236;stroke-linecap:butt;stroke-linejoin:miter;stroke-miterlimit:4;stroke-opacity:0.05652173;stroke-dasharray:none"
     d="M 7.6925024,137.8583 C 44.818786,148.70398 72.2085,138.64928 97.858002,131.61142 L 136.54408,120.5448"
     id="path3837"
     inkscape:connector-curvature="0"
     sodipodi:nodetypes="ccc" />
  <path
     sodipodi:nodetypes="ccc"
     inkscape:connector-curvature="0"
     id="path3839"
     d="M 7.6925024,137.8583 C 44.818786,148.70398 72.2085,138.64928 97.858002,131.61142 L 136.54408,120.5448"
     style="fill:none;stroke:#000000;stroke-width:0.77388489;stroke-linecap:butt;stroke-linejoin:miter;stroke-miterlimit:4;stroke-opacity:0.05652173;stroke-dasharray:none" />
  <path
     style="fill:none;stroke:#000000;stroke-width:0.34141979;stroke-linecap:butt;stroke-linejoin:miter;stroke-miterlimit:4;stroke-opacity:0.05652173;stroke-dasharray:none"
     d="M 7.6925024,137.8583 C 44.818786,148.70398 72.2085,138.64928 97.858002,131.61142 L 136.54408,120.5448"
     id="path3841"
     inkscape:connector-curvature="0"
     sodipodi:nodetypes="ccc" />
  <path
     style="fill:none;stroke:#ffffff;stroke-width:0.38694245;stroke-linecap:butt;stroke-linejoin:miter;stroke-miterlimit:4;stroke-opacity:1;stroke-dasharray:none"
     d="m 4.2863473,131.04598 c 4.6443964,15.04027 58.9756727,7.09654 98.1592027,-16.34728 29.53181,-19.690567 57.69005,-40.724114 89.70611,-51.184846 12.81902,-3.882981 23.75581,-4.667543 40.65674,3.744135 6.32464,4.330125 11.7341,7.999092 8.64188,18.36566"
     id="path3843"
     inkscape:connector-curvature="0"
     sodipodi:nodetypes="ccccc" />
  <g
     id="g2777"
     transform="matrix(0.11061923,0.02188393,0,0.14057872,200.00086,61.966357)">
    <path
       inkscape:connector-curvature="0"
       style="fill:url(#linearGradient4509);fill-opacity:1;fill-rule:evenodd;stroke:url(#linearGradient4511);stroke-width:3;stroke-linecap:round;stroke-linejoin:round;stroke-miterlimit:4;stroke-opacity:1;stroke-dasharray:none"
       d="M 23.307735,31.897276 C 13.767092,31.377364 4.831962,40.797559 11.355199,47.26953 l 29.486959,23.434626 c -4.006306,2.648326 -10.383956,-6.369276 -10.375044,-2.203714 0.0089,4.165565 -3.586877,17.111191 1.880856,21.230911 l 25.42189,19.027197 c -3.712455,1.73818 3.159838,4.92244 -14.622137,-6.18115 -2.81114,3.043 0.154895,11.67712 1.638165,14.56602 l 10.011007,10.15858 -10.49639,1.34373 c -14.441439,2.47263 -13.452716,9.81006 -9.464952,18.11346 1.993659,3.61142 5.562402,6.50584 15.471557,6.61115 14.93152,4.57687 9.108274,13.74861 44.89785,13.70603 3.391093,4.81767 -9.373914,2.50274 -15.471557,3.11745 l 10.49639,5.32116 10.981767,8.81486 7.94814,-0.42999 0,10.15858 10.98177,0 -0.97076,20.31718 c 2.58868,11.61227 15.93909,10.90623 18.9299,1.34373 l -0.97076,-20.31718 10.98177,0 0,-10.21233 7.94813,0.48374 10.98177,-8.86861 10.49639,-5.26741 c -6.09764,-0.61471 -18.86265,1.70021 -15.47155,-3.11746 35.78957,0.0426 29.96633,-9.12915 44.89785,-13.70603 9.90916,-0.10529 13.4779,-2.99972 15.47156,-6.61114 3.98774,-8.30341 4.97649,-15.69458 -9.46495,-18.16721 l -10.49639,-1.28998 10.011,-10.15859 c 1.48327,-2.88889 4.44931,-11.57676 1.63817,-14.61976 -17.78198,11.10359 -10.90968,7.91933 -14.62214,6.18115 l 25.42189,-18.973449 c 5.46775,-4.119719 1.87195,-17.065346 1.88086,-21.230911 0.009,-4.16556 -6.30805,4.852041 -10.31437,2.203715 l 29.42629,-23.434626 c 8.02863,-7.965503 -7.38575,-20.404197 -18.50519,-13.276038 L 188.0343,61.459304 c -2.16752,3.289552 -1.26224,7.432887 -6.97737,9.674845 l -18.01981,13.276039 c -13.01603,9.133018 -6.40106,19.881602 -5.94593,30.099522 -1.55755,12.23094 -9.99553,7.78279 -16.50299,7.95487 l -0.97077,-5.32116 9.46495,0 0.48539,-3.97744 -7.94814,-0.42999 0.97077,-14.189778 C 136.6235,84.121468 120.55783,80.678131 114.68092,97.256233 l 0.97077,14.136027 -7.94814,0.42999 0.48539,3.97744 9.46495,0 -0.97077,5.32116 c -6.50744,-0.17208 -14.94544,4.27608 -16.50299,-7.95487 0.45515,-10.21792 7.07012,-20.912754 -5.945935,-30.045772 L 76.275055,69.84417 C 70.559933,67.602212 71.404537,63.405128 69.237014,60.115575 L 29.860386,34.047241 c -2.084891,-1.33653 -4.350964,-2.029985 -6.552651,-2.149965 z"
       id="path2238"
       sodipodi:nodetypes="cccsccccccccccccccccccccccccccccccccsccccccccccccccccccccccccc" />
    <text
       xml:space="preserve"
       style="font-size:38.76819229px;font-style:normal;font-variant:normal;font-weight:bold;font-stretch:normal;text-align:start;line-height:100%;writing-mode:lr-tb;text-anchor:start;fill:#4e4d18;fill-opacity:0.35449733;stroke:none;font-family:Sans"
       x="75.696442"
       y="155.16818"
       id="text2261"
       sodipodi:linespacing="100%"
       transform="scale(0.980533,1.019854)"><tspan
         sodipodi:role="line"
         id="tspan2263"
         x="75.696442"
         y="155.16818">ELITE</tspan></text>
    <path
       inkscape:connector-curvature="0"
       style="fill:url(#linearGradient4513);fill-opacity:1;fill-rule:evenodd;stroke:url(#linearGradient4515);stroke-width:3.47205234;stroke-linecap:butt;stroke-linejoin:miter;stroke-miterlimit:4;stroke-opacity:1;stroke-dasharray:none"
       d="m 22.03125,37.90625 c -2.634131,0.03605 -7.146285,1.742718 -6.5,5 11.665136,9.343247 23.411228,18.584793 35.09375,27.90625 -3.352648,4.661655 -9.443138,7.481694 -15.09375,5.75 -0.877156,4.176699 -0.427514,9.81636 4.36335,11.380115 10.911687,8.401107 22.317805,16.168575 32.9179,24.963635 -4.436844,-0.83163 -9.49071,-2.34619 -12.6875,1.84375 -2.615164,2.34941 -6.723956,2.27419 -9.3125,-0.0937 3.142244,5.00558 10.836623,7.55835 11.1875,13.84375 -1.741996,6.60693 -10.34523,4.73165 -15.40625,5.9375 -4.397921,-0.42963 -10.987217,2.63007 -7.375,7.90625 1.914852,4.54153 6.999894,5.19023 11.25,4.96875 10.993096,2.10603 18.297232,13.26983 30.03125,13.09375 6.447306,1.41458 14.43944,-1.30807 19.78125,3.03125 2.67959,3.44786 1.21868,8.8517 -1.875,11.1875 3.087,3.35903 7.85628,4.70903 12.03125,3.25 4.91443,0.26124 5.08961,6.51235 5,9.65625 6.01874,-1.30021 12.45943,3.98566 10.96875,10.34375 0.0351,6.02965 -3.62086,13.68886 0.78125,18.78125 3.71138,1.56466 6.5964,-3.36015 4.5625,-6.1875 0.4847,-7.10164 -2.84942,-15.17961 2.15625,-21.375 2.45535,-0.1501 7.19744,2.03903 8.78125,-0.25 -2.97901,-5.4449 3.26361,-12.13475 8.90625,-9.5 2.73653,1.22849 4.43584,-0.78207 5.6875,-2.78125 2.81528,-1.24874 -2.31301,-3.147 -1.6875,-5.75 -0.79985,-5.97316 5.47735,-10.03099 10.93713,-8.41048 11.81418,0.47368 23.87092,-2.90417 32.53162,-11.15202 6.01448,-3.72044 16.68524,-0.39474 19.4375,-8.53125 1.63501,-3.39908 -1.1889,-6.60715 -4.6875,-6.53125 -7.51844,-1.61775 -15.48255,-0.87513 -22.8125,-3.65625 3.71822,-6.22824 11.82908,-11.36521 15.03125,-16.21875 -4.74453,3.23377 -11.04052,-0.01 -13,-4.78125 -1.03573,-7.18787 7.81844,-8.8417 11.79766,-12.790608 5.04952,-4.387138 10.88932,-7.802526 15.95234,-12.053142 1.56537,-2.393376 1.74483,-6.785227 0.5,-8.625 -5.45709,1.42956 -11.28166,-1.277959 -14.3125,-5.90625 10.97918,-10.284223 25.05035,-17.989891 34.75,-29.1875 -3.57944,-6.383626 -12.47549,-3.255788 -16.5,1.03125 -10.63805,7.501013 -22.28306,13.875037 -32.3125,22.0625 -2.97936,9.234921 -12.64529,12.811738 -19.79568,18.18731 -5.89551,4.073552 -14.04347,9.40971 -11.92307,17.68769 1.75757,8.1775 4.01079,18.93119 -3.875,24.75 -6.29448,4.33452 -14.17875,1.22058 -21.1875,1.9375 -2.38526,-5.09486 -3.0722,-11.00954 -1.3125,-16.25 1.13503,-5.62238 3.94655,-12.658074 -1.28125,-17.28125 -4.08459,-5.229205 -12.89102,-2.344642 -12.6875,4.34375 -0.48145,5.897 1.32767,11.42785 2.90625,16.90625 1.02846,6.61442 -4.81179,12.60788 -11.53125,11.40625 -7.3343,1.00803 -15.986763,-2.36961 -17.40625,-10.375 -2.774553,-9.13997 5.94565,-20.255588 -2.09375,-27.6875 C 84.700445,81.961568 73.621432,77.682479 66.65625,69.03125 65.511333,65.311429 63.351162,61.805396 59.375,60.84375 46.881758,53.511533 35.768847,42.716632 22.03125,37.90625 z"
       id="path1877" />
  </g>
  <path
     transform="matrix(-0.14236512,0,0,0.09912333,206.45058,97.806281)"
     d="m 967.26147,561.17493 a 35.371025,46.934628 0 1 1 -70.74205,0 35.371025,46.934628 0 1 1 70.74205,0 z"
     sodipodi:ry="46.934628"
     sodipodi:rx="35.371025"
     sodipodi:cy="561.17493"
     sodipodi:cx="931.89044"
     id="path4714"
     style="fill:url(#radialGradient4716);fill-opacity:1;stroke:none"
     sodipodi:type="arc" />
</svg>
