<?xml version="1.0" encoding="UTF-8" standalone="no"?>
<!-- Created with Inkscape (http://www.inkscape.org/) -->

<svg
   xmlns:dc="http://purl.org/dc/elements/1.1/"
   xmlns:cc="http://creativecommons.org/ns#"
   xmlns:rdf="http://www.w3.org/1999/02/22-rdf-syntax-ns#"
   xmlns:svg="http://www.w3.org/2000/svg"
   xmlns="http://www.w3.org/2000/svg"
   xmlns:xlink="http://www.w3.org/1999/xlink"
   xmlns:sodipodi="http://sodipodi.sourceforge.net/DTD/sodipodi-0.dtd"
   xmlns:inkscape="http://www.inkscape.org/namespaces/inkscape"
   id="svg2"
   sodipodi:version="0.32"
   inkscape:version="0.92.5 (2060ec1f9f, 2020-04-08)"
   width="256"
   height="256"
   version="1.0"
   sodipodi:docname="mintstick.svg">
  <metadata
     id="metadata7">
    <rdf:RDF>
      <cc:Work
         rdf:about="">
        <dc:format>image/svg+xml</dc:format>
        <dc:type
           rdf:resource="http://purl.org/dc/dcmitype/StillImage" />
        <dc:title></dc:title>
      </cc:Work>
    </rdf:RDF>
  </metadata>
  <defs
     id="defs5">
    <linearGradient
       inkscape:collect="always"
       id="linearGradient4666">
      <stop
         style="stop-color:#000000;stop-opacity:1;"
         offset="0"
         id="stop4662" />
      <stop
         style="stop-color:#ffffff;stop-opacity:1"
         offset="1"
         id="stop4664" />
    </linearGradient>
    <linearGradient
       inkscape:collect="always"
       id="linearGradient2836">
      <stop
         style="stop-color:#ccc;stop-opacity:1;"
         offset="0"
         id="stop2838" />
      <stop
         style="stop-color:#ccc;stop-opacity:0;"
         offset="1"
         id="stop2840" />
    </linearGradient>
    <linearGradient
       inkscape:collect="always"
       id="linearGradient2824">
      <stop
         style="stop-color:#ececec;stop-opacity:1;"
         offset="0"
         id="stop2826" />
      <stop
         style="stop-color:#ececec;stop-opacity:0;"
         offset="1"
         id="stop2828" />
    </linearGradient>
    <linearGradient
       id="linearGradient2790"
       inkscape:collect="always">
      <stop
         id="stop2792"
         offset="0"
         style="stop-color:white;stop-opacity:1" />
      <stop
         id="stop2794"
         offset="1"
         style="stop-color:white;stop-opacity:0" />
    </linearGradient>
    <linearGradient
       inkscape:collect="always"
       id="linearGradient2776">
      <stop
         style="stop-color:#e2e3e8;stop-opacity:1;"
         offset="0"
         id="stop2778" />
      <stop
         style="stop-color:#93a1ea;stop-opacity:1"
         offset="1"
         id="stop2780" />
    </linearGradient>
    <linearGradient
       inkscape:collect="always"
       id="linearGradient2762">
      <stop
         style="stop-color:white;stop-opacity:1"
         offset="0"
         id="stop2764" />
      <stop
         style="stop-color:black;stop-opacity:0;"
         offset="1"
         id="stop2766" />
    </linearGradient>
    <linearGradient
       inkscape:collect="always"
       xlink:href="#linearGradient2762"
       id="linearGradient2813"
       gradientUnits="userSpaceOnUse"
       x1="74.22113"
       y1="146.55529"
       x2="140.89435"
       y2="146.55528" />
    <linearGradient
       inkscape:collect="always"
       xlink:href="#linearGradient2776"
       id="linearGradient2815"
       gradientUnits="userSpaceOnUse"
       x1="88.187958"
       y1="39.941032"
       x2="153.9742"
       y2="39.941032" />
    <linearGradient
       inkscape:collect="always"
       xlink:href="#linearGradient2790"
       id="linearGradient2817"
       gradientUnits="userSpaceOnUse"
       x1="88.187958"
       y1="39.941032"
       x2="108.05774"
       y2="44.343983" />
    <linearGradient
       inkscape:collect="always"
       xlink:href="#linearGradient2824"
       id="linearGradient2830"
       x1="52.967934"
       y1="92.001534"
       x2="62.596405"
       y2="124.08015"
       gradientUnits="userSpaceOnUse" />
    <linearGradient
       inkscape:collect="always"
       xlink:href="#linearGradient2836"
       id="linearGradient2842"
       x1="83.60498"
       y1="110.92418"
       x2="81.481514"
       y2="148.66374"
       gradientUnits="userSpaceOnUse" />
    <linearGradient
       inkscape:collect="always"
       xlink:href="#linearGradient2762"
       id="linearGradient2857"
       gradientUnits="userSpaceOnUse"
       x1="74.22113"
       y1="146.55529"
       x2="140.89435"
       y2="146.55528"
       gradientTransform="matrix(1.0986544,0,0,1.0986544,44.086848,-156.75539)" />
    <linearGradient
       inkscape:collect="always"
       xlink:href="#linearGradient2776"
       id="linearGradient2859"
       gradientUnits="userSpaceOnUse"
       x1="88.187958"
       y1="39.941032"
       x2="153.9742"
       y2="39.941032"
       gradientTransform="matrix(1.0986544,0,0,1.0986544,44.086848,-156.75539)" />
    <linearGradient
       inkscape:collect="always"
       xlink:href="#linearGradient2790"
       id="linearGradient2861"
       gradientUnits="userSpaceOnUse"
       x1="88.187958"
       y1="39.941032"
       x2="117.92467"
       y2="39.033192"
       spreadMethod="reflect"
       gradientTransform="matrix(1.0986544,0,0,1.0986544,44.086848,-156.75539)" />
    <filter
       inkscape:collect="always"
       style="color-interpolation-filters:sRGB"
       id="filter4658"
       x="-0.034111898"
       width="1.0682238"
       y="-0.038109362"
       height="1.0762187">
      <feGaussianBlur
         inkscape:collect="always"
         stdDeviation="3.0651652"
         id="feGaussianBlur4660" />
    </filter>
    <linearGradient
       inkscape:collect="always"
       xlink:href="#linearGradient4666"
       id="linearGradient4668"
       x1="156.98428"
       y1="-122.81498"
       x2="176.38663"
       y2="-123.20912"
       gradientUnits="userSpaceOnUse" />
    <linearGradient
       inkscape:collect="always"
       xlink:href="#linearGradient4666"
       id="linearGradient4672"
       gradientUnits="userSpaceOnUse"
       x1="156.98428"
       y1="-122.81498"
       x2="176.38663"
       y2="-123.20912"
       gradientTransform="translate(28.041501,-0.89360112)" />
    <linearGradient
       inkscape:collect="always"
       xlink:href="#linearGradient4666"
       id="linearGradient4682"
       x1="213.94966"
       y1="-102.45515"
       x2="173.09981"
       y2="-102.18106"
       gradientUnits="userSpaceOnUse" />
  </defs>
  <sodipodi:namedview
     inkscape:window-height="1056"
     inkscape:window-width="1920"
     inkscape:pageshadow="2"
     inkscape:pageopacity="0"
     guidetolerance="10.0"
     gridtolerance="10.0"
     objecttolerance="10.0"
     borderopacity="1.0"
     bordercolor="#666666"
     pagecolor="#ff0000"
     id="base"
     inkscape:zoom="3.4804688"
     inkscape:cx="128"
     inkscape:cy="128"
     inkscape:window-x="0"
     inkscape:window-y="0"
     inkscape:current-layer="svg2"
     showgrid="false"
     inkscape:snap-to-guides="false"
     inkscape:snap-grids="false"
     inkscape:snap-others="false"
     inkscape:object-nodes="false"
     inkscape:snap-nodes="false"
     inkscape:snap-global="false"
     inkscape:window-maximized="1" />
  <path
     style="opacity:1;fill:#000000;fill-opacity:1;stroke:none;stroke-width:1;stroke-linecap:round;stroke-linejoin:round;stroke-miterlimit:4;stroke-dasharray:none;stroke-dashoffset:0;stroke-opacity:1;filter:url(#filter4658)"
     d="m 197.69544,36.790391 c -0.13831,-0.01445 -0.24782,0.0086 -0.32617,0.07227 L 161.5099,65.995469 c -7.16872,-5.795136 -12.87109,-8.471973 -15.24805,-6.541016 L 23.855596,158.8939 c -4.49914,3.65494 4.6141,22.27462 20.4336,41.74805 15.8195,19.47342 32.17663,32.20767 36.67578,28.55273 L 203.37122,129.75523 c 2.04392,-1.6604 1.25541,-6.4272 -1.67187,-12.94141 l 36.51953,-29.666007 c 1.25357,-1.018358 -5.87356,-11.853568 -15.98047,-24.294922 l -4.36328,-5.371094 C 208.39991,45.818027 199.77016,37.007169 197.69544,36.790391 Z"
     id="rect4602"
     inkscape:connector-curvature="0"
     transform="matrix(1.0986544,0,0,1.0986544,-14.700556,-4.282755)" />
  <rect
     style="opacity:1;fill:#000000;fill-opacity:1;stroke:none;stroke-width:1.09865439;stroke-linecap:round;stroke-linejoin:round;stroke-miterlimit:4;stroke-dasharray:none;stroke-dashoffset:0;stroke-opacity:1"
     id="rect1873"
     width="99.510551"
     height="196.25694"
     x="125.63022"
     y="-93.870247"
     rx="49.755276"
     ry="11.495471"
     transform="rotate(50.910849)" />
  <rect
     ry="11.495471"
     rx="49.755276"
     y="-93.870247"
     x="125.63022"
     height="196.25694"
     width="99.510551"
     id="rect1875"
     style="opacity:1;fill:url(#linearGradient2857);fill-opacity:1;stroke:#3f3f3f;stroke-width:1.09865439;stroke-linecap:round;stroke-linejoin:round;stroke-miterlimit:4;stroke-dasharray:none;stroke-dashoffset:0;stroke-opacity:1"
     transform="rotate(50.910849)" />
  <rect
     style="opacity:1;fill:url(#linearGradient2859);fill-opacity:1;stroke:#000000;stroke-width:1.09865439;stroke-linecap:round;stroke-linejoin:round;stroke-miterlimit:4;stroke-dasharray:none;stroke-dashoffset:0;stroke-opacity:1"
     id="rect2774"
     width="71.177689"
     height="64.267235"
     x="141.52426"
     y="-145.00761"
     rx="31.788094"
     ry="3.2029247"
     transform="rotate(50.910849)" />
  <rect
     ry="3.2029247"
     rx="31.788094"
     y="-145.00761"
     x="141.52426"
     height="64.267235"
     width="71.177689"
     id="rect2788"
     style="opacity:1;fill:url(#linearGradient2861);fill-opacity:1;stroke:#a4a4a4;stroke-width:1.09865439;stroke-linecap:round;stroke-linejoin:round;stroke-miterlimit:4;stroke-dasharray:none;stroke-dashoffset:0;stroke-opacity:1"
     transform="rotate(50.910849)" />
  <rect
     style="opacity:1;fill:#000000;fill-opacity:1;stroke:url(#linearGradient4668);stroke-width:1.7;stroke-linecap:round;stroke-linejoin:round;stroke-miterlimit:4;stroke-dasharray:none;stroke-dashoffset:0;stroke-opacity:1"
     id="rect2784"
     width="19.430494"
     height="12.520041"
     x="154.61354"
     y="-127.7721"
     transform="rotate(50.910849)" />
  <g
     aria-label="USB"
     style="font-style:normal;font-variant:normal;font-weight:normal;font-stretch:normal;font-size:32px;line-height:1.25;font-family:'Arial Black';-inkscape-font-specification:'Arial Black, ';letter-spacing:0px;word-spacing:0px;fill:#000000;fill-opacity:1;stroke:none"
     id="text4552"
     transform="matrix(0.83629652,-0.71249538,0.71249538,0.83629652,66.386084,62.236983)">
    <path
       d="m -40.500843,45.475342 h 7.0625 v 13.65625 q 0,2.03125 -0.640625,3.84375 -0.625,1.796875 -1.984375,3.15625 -1.34375,1.34375 -2.828125,1.890625 -2.0625,0.765625 -4.953125,0.765625 -1.671875,0 -3.65625,-0.234375 -1.96875,-0.234375 -3.296875,-0.921875 -1.328125,-0.703125 -2.4375,-1.984375 -1.09375,-1.28125 -1.5,-2.640625 -0.65625,-2.1875 -0.65625,-3.875 v -13.65625 h 7.0625 v 13.984375 q 0,1.875 1.03125,2.9375 1.046875,1.046875 2.890625,1.046875 1.828125,0 2.859375,-1.03125 1.046875,-1.046875 1.046875,-2.953125 z"
       id="path4585"
       inkscape:connector-curvature="0" />
    <path
       d="m -29.985218,60.803467 6.734375,-0.421875 q 0.21875,1.640625 0.890625,2.5 1.09375,1.390625 3.125,1.390625 1.515625,0 2.328125,-0.703125 0.828125,-0.71875 0.828125,-1.65625 0,-0.890625 -0.78125,-1.59375 -0.78125,-0.703125 -3.625,-1.328125 -4.65625,-1.046875 -6.640625,-2.78125 -2,-1.734375 -2,-4.421875 0,-1.765625 1.015625,-3.328125 1.03125,-1.578125 3.078125,-2.46875 2.0625,-0.90625 5.640625,-0.90625 4.390625,0 6.6875,1.640625 2.3125,1.625 2.75,5.1875 l -6.671875,0.390625 q -0.265625,-1.546875 -1.125,-2.25 -0.84375,-0.703125 -2.34375,-0.703125 -1.234375,0 -1.859375,0.53125 -0.625,0.515625 -0.625,1.265625 0,0.546875 0.515625,0.984375 0.5,0.453125 2.375,0.84375 4.640625,1 6.640625,2.03125 2.015625,1.015625 2.921875,2.53125 0.921875,1.515625 0.921875,3.390625 0,2.203125 -1.21875,4.0625 -1.21875,1.859375 -3.40625,2.828125 -2.1875,0.953125 -5.515625,0.953125 -5.84375,0 -8.09375,-2.25 -2.25,-2.25 -2.546875,-5.71875 z"
       id="path4587"
       inkscape:connector-curvature="0" />
    <path
       d="m -5.625843,45.475342 h 13.25 q 3.3125,0 5.078125,1.640625 1.78125,1.640625 1.78125,4.0625 0,2.03125 -1.265625,3.484375 -0.84375,0.96875 -2.46875,1.53125 2.46875,0.59375 3.625,2.046875 1.171875,1.4375 1.171875,3.625 0,1.78125 -0.828125,3.203125 -0.828125,1.421875 -2.265625,2.25 -0.890625,0.515625 -2.6875,0.75 -2.390625,0.3125 -3.171875,0.3125 h -12.21875 z m 7.140625,8.984375 h 3.078125 q 1.65625,0 2.296875,-0.5625 0.65625,-0.578125 0.65625,-1.65625 0,-1 -0.65625,-1.5625 -0.640625,-0.5625 -2.25,-0.5625 h -3.125 z m 0,9 h 3.609375 q 1.828125,0 2.578125,-0.640625 0.75,-0.65625 0.75,-1.75 0,-1.015625 -0.75,-1.625 -0.734375,-0.625 -2.59375,-0.625 h -3.59375 z"
       id="path4589"
       inkscape:connector-curvature="0" />
  </g>
  <g
     aria-label="memory stick"
     style="font-style:normal;font-variant:normal;font-weight:normal;font-stretch:normal;font-size:18.66666603px;line-height:1.25;font-family:'Arial Black';-inkscape-font-specification:'Arial Black, ';letter-spacing:0px;word-spacing:0px;fill:#444444;fill-opacity:1;stroke:none"
     id="text4560"
     transform="matrix(0.83936886,-0.70887336,0.70887336,0.83936886,33.639493,40.382829)">
    <path
       d="m -81.311722,121.04984 h 3.463542 v 1.41276 q 0.747396,-0.88412 1.503906,-1.25782 0.765625,-0.37369 1.841146,-0.37369 1.157552,0 1.832031,0.41015 0.674479,0.41016 1.102864,1.22136 0.875,-0.94792 1.595052,-1.28516 0.720052,-0.34635 1.777344,-0.34635 1.558594,0 2.433594,0.92968 0.875,0.92058 0.875,2.88933 v 6.07942 h -3.71875 v -5.51432 q 0,-0.65625 -0.255208,-0.97526 -0.373698,-0.5013 -0.929688,-0.5013 -0.65625,0 -1.057292,0.47396 -0.401041,0.47395 -0.401041,1.52213 v 4.99479 h -3.71875 v -5.33203 q 0,-0.63802 -0.07292,-0.86588 -0.118489,-0.36459 -0.410156,-0.58334 -0.291667,-0.22786 -0.683594,-0.22786 -0.63802,0 -1.048177,0.48307 -0.410156,0.48307 -0.410156,1.58594 v 4.9401 h -3.71875 z"
       id="path4562"
       inkscape:connector-curvature="0"
       style="fill:#444444;fill-opacity:1" />
    <path
       d="m -51.926306,126.81025 h -7.4375 q 0.10026,0.89323 0.483073,1.33073 0.53776,0.62891 1.403646,0.62891 0.546875,0 1.039062,-0.27344 0.300781,-0.17318 0.647136,-0.61068 l 3.654947,0.33724 q -0.838541,1.45834 -2.023437,2.09636 -1.184896,0.6289 -3.399739,0.6289 -1.923178,0 -3.026042,-0.53776 -1.102865,-0.54687 -1.832031,-1.72265 -0.720052,-1.1849 -0.720052,-2.77995 0,-2.26953 1.449218,-3.67318 1.458334,-1.40364 4.019532,-1.40364 2.078124,0 3.281249,0.6289 1.203125,0.62891 1.832032,1.82292 0.628906,1.19401 0.628906,3.10807 z m -3.773438,-1.77734 q -0.109375,-1.07552 -0.583333,-1.54037 -0.464844,-0.46484 -1.230469,-0.46484 -0.884114,0 -1.41276,0.70182 -0.33724,0.4375 -0.428385,1.30339 z"
       id="path4564"
       inkscape:connector-curvature="0"
       style="fill:#444444;fill-opacity:1" />
    <path
       d="m -50.194534,121.04984 h 3.463541 v 1.41276 q 0.747396,-0.88412 1.503906,-1.25782 0.765625,-0.37369 1.841146,-0.37369 1.157552,0 1.832031,0.41015 0.67448,0.41016 1.102865,1.22136 0.875,-0.94792 1.595052,-1.28516 0.720052,-0.34635 1.777344,-0.34635 1.558593,0 2.433593,0.92968 0.875,0.92058 0.875,2.88933 v 6.07942 h -3.71875 v -5.51432 q 0,-0.65625 -0.255208,-0.97526 -0.373698,-0.5013 -0.929687,-0.5013 -0.65625,0 -1.057292,0.47396 -0.401042,0.47395 -0.401042,1.52213 v 4.99479 h -3.71875 v -5.33203 q 0,-0.63802 -0.07292,-0.86588 -0.11849,-0.36459 -0.410156,-0.58334 -0.291667,-0.22786 -0.683594,-0.22786 -0.638021,0 -1.048177,0.48307 -0.410156,0.48307 -0.410156,1.58594 v 4.9401 h -3.71875 z"
       id="path4566"
       inkscape:connector-curvature="0"
       style="fill:#444444;fill-opacity:1" />
    <path
       d="m -32.010943,125.91702 q 0,-2.21484 1.494791,-3.64583 1.494792,-1.4401 4.037761,-1.4401 2.907552,0 4.393229,1.68619 1.19401,1.35808 1.19401,3.34506 0,2.23307 -1.485677,3.66406 -1.476562,1.42187 -4.092448,1.42187 -2.333333,0 -3.773437,-1.18489 -1.768229,-1.46745 -1.768229,-3.84636 z m 3.71875,-0.009 q 0,1.29427 0.519531,1.91406 0.528646,0.61979 1.321615,0.61979 0.802083,0 1.312499,-0.61067 0.519532,-0.61068 0.519532,-1.95964 0,-1.25781 -0.519532,-1.86849 -0.519531,-0.61979 -1.285156,-0.61979 -0.811198,0 -1.339843,0.62891 -0.528646,0.61979 -0.528646,1.89583 z"
       id="path4568"
       inkscape:connector-curvature="0"
       style="fill:#444444;fill-opacity:1" />
    <path
       d="m -19.068232,121.04984 h 3.472656 v 1.58593 q 0.501302,-1.02994 1.029948,-1.41276 0.53776,-0.39192 1.321614,-0.39192 0.820313,0 1.795573,0.51041 l -1.148437,2.64323 q -0.65625,-0.27344 -1.039063,-0.27344 -0.729166,0 -1.130208,0.60157 -0.574219,0.84765 -0.574219,3.17187 v 3.24479 h -3.727864 z"
       id="path4570"
       inkscape:connector-curvature="0"
       style="fill:#444444;fill-opacity:1" />
    <path
       d="m -10.810422,121.04984 h 3.9192704 l 1.9960937,6.44401 1.8502604,-6.44401 h 3.65494776 l -3.83723946,10.34505 q -0.65625,1.76823 -1.3398437,2.38802 -0.9661458,0.875 -2.9440103,0.875 -0.8020833,0 -2.4791666,-0.21875 l -0.2916662,-2.58854 q 0.8020829,0.2552 1.7864578,0.2552 0.65625,0 1.0572917,-0.30078 0.4101562,-0.30078 0.6927083,-1.07552 z"
       id="path4572"
       inkscape:connector-curvature="0"
       style="fill:#444444;fill-opacity:1" />
    <path
       d="m 7.2364502,128.04984 3.6822918,-0.34636 q 0.227864,0.65625 0.638021,0.9388 0.410156,0.28256 1.093749,0.28256 0.747396,0 1.157553,-0.31902 0.31901,-0.23697 0.31901,-0.59244 0,-0.40104 -0.419271,-0.61979 -0.300781,-0.15495 -1.595052,-0.38282 -1.932292,-0.33724 -2.6888019,-0.61979 -0.7473958,-0.29167 -1.266927,-0.97526 -0.5104167,-0.68359 -0.5104167,-1.55859 0,-0.95703 0.5559896,-1.64974 0.5559895,-0.69271 1.5312499,-1.02995 0.9752601,-0.34635 2.6158851,-0.34635 1.731771,0 2.552084,0.26432 0.829427,0.26432 1.376302,0.82031 0.555989,0.55599 0.920572,1.50391 l -3.518229,0.34635 q -0.136718,-0.46484 -0.455729,-0.68359 -0.4375,-0.29167 -1.057291,-0.29167 -0.628907,0 -0.920573,0.22787 -0.282552,0.21875 -0.282552,0.53776 0,0.35546 0.364583,0.53776 0.364583,0.18229 1.585937,0.32812 1.850261,0.20964 2.752604,0.58333 0.902344,0.3737 1.376303,1.06641 0.483072,0.69271 0.483072,1.52214 0,0.83854 -0.510416,1.63151 -0.501302,0.79297 -1.595052,1.26692 -1.084636,0.46485 -2.96224,0.46485 -2.6523434,0 -3.7825517,-0.75651 -1.1210937,-0.75651 -1.4401041,-2.15104 z"
       id="path4574"
       inkscape:connector-curvature="0"
       style="fill:#444444;fill-opacity:1" />
    <path
       d="m 23.770304,117.36754 v 3.6823 h 2.041667 v 2.70703 h -2.041667 v 3.43619 q 0,0.6198 0.11849,0.82032 0.182291,0.30989 0.638021,0.30989 0.410156,0 1.148437,-0.23698 l 0.273438,2.5612 q -1.376303,0.30078 -2.570313,0.30078 -1.385417,0 -2.041666,-0.35547 -0.65625,-0.35546 -0.975261,-1.07552 -0.309896,-0.72916 -0.309896,-2.35156 v -3.40885 h -1.367187 v -2.70703 h 1.367187 v -1.77735 z"
       id="path4576"
       inkscape:connector-curvature="0"
       style="fill:#444444;fill-opacity:1" />
    <path
       d="m 27.716919,117.36754 h 3.709635 v 2.52474 h -3.709635 z m 0,3.6823 h 3.709635 v 9.67968 h -3.709635 z"
       id="path4578"
       inkscape:connector-curvature="0"
       style="fill:#444444;fill-opacity:1" />
    <path
       d="m 41.015098,126.94697 3.527344,0.40104 q -0.291667,1.10287 -0.957031,1.91406 -0.665365,0.80209 -1.704427,1.2487 -1.029948,0.44662 -2.625,0.44662 -1.540365,0 -2.570313,-0.28255 -1.020833,-0.29167 -1.759114,-0.92969 -0.738281,-0.64714 -1.157552,-1.51302 -0.419271,-0.86589 -0.419271,-2.29688 0,-1.49479 0.510417,-2.48828 0.373698,-0.72917 1.020833,-1.30338 0.647135,-0.58334 1.330729,-0.86589 1.084635,-0.44661 2.779948,-0.44661 2.369791,0 3.609375,0.84765 1.248698,0.84766 1.75,2.47917 l -3.490886,0.46484 q -0.164062,-0.61979 -0.601562,-0.92969 -0.428386,-0.31901 -1.157552,-0.31901 -0.920573,0 -1.494792,0.66537 -0.565104,0.65625 -0.565104,1.99609 0,1.19401 0.565104,1.8138 0.565104,0.6198 1.440104,0.6198 0.729167,0 1.221354,-0.3737 0.501303,-0.3737 0.747396,-1.14844 z"
       id="path4580"
       inkscape:connector-curvature="0"
       style="fill:#444444;fill-opacity:1" />
    <path
       d="m 45.927856,117.36754 h 3.791667 v 6.89063 l 2.770833,-3.20833 h 4.566406 l -3.472656,3.39062 3.673177,6.28906 h -4.183594 l -1.959635,-3.88281 -1.394531,1.36719 v 2.51562 h -3.791667 z"
       id="path4582"
       inkscape:connector-curvature="0"
       style="fill:#444444;fill-opacity:1" />
  </g>
  <rect
     transform="rotate(50.910849)"
     y="-128.66571"
     x="182.65504"
     height="12.520041"
     width="19.430494"
     id="rect4670"
     style="opacity:1;fill:#000000;fill-opacity:1;stroke:url(#linearGradient4672);stroke-width:1.70000005;stroke-linecap:round;stroke-linejoin:round;stroke-miterlimit:4;stroke-dasharray:none;stroke-dashoffset:0;stroke-opacity:1" />
  <rect
     transform="rotate(50.910849)"
     style="opacity:1;fill:none;fill-opacity:1;stroke:url(#linearGradient4682);stroke-width:1.09865439;stroke-linecap:round;stroke-linejoin:round;stroke-miterlimit:4;stroke-dasharray:none;stroke-dashoffset:0;stroke-opacity:1"
     id="rect4674"
     width="71.177689"
     height="64.267235"
     x="141.52426"
     y="-145.00761"
     rx="31.788094"
     ry="3.2029247" />
</svg>
