<?xml version="1.0" encoding="UTF-8" standalone="no"?>
<!-- Created with Sodipodi ("http://www.sodipodi.com/") -->
<svg
   xmlns:dc="http://purl.org/dc/elements/1.1/"
   xmlns:cc="http://creativecommons.org/ns#"
   xmlns:rdf="http://www.w3.org/1999/02/22-rdf-syntax-ns#"
   xmlns:svg="http://www.w3.org/2000/svg"
   xmlns="http://www.w3.org/2000/svg"
   xmlns:xlink="http://www.w3.org/1999/xlink"
   xmlns:sodipodi="http://sodipodi.sourceforge.net/DTD/sodipodi-0.dtd"
   xmlns:inkscape="http://www.inkscape.org/namespaces/inkscape"
   id="svg581"
   sodipodi:version="0.32"
   width="256"
   height="256"
   sodipodi:docbase="/home/unimauro/"
   sodipodi:docname="amsn.svg"
   inkscape:version="0.46"
   inkscape:output_extension="org.inkscape.output.svg.inkscape"
   version="1.0">
  <defs
     id="defs583">
    <inkscape:perspective
       sodipodi:type="inkscape:persp3d"
       inkscape:vp_x="0 : 372.05002 : 1"
       inkscape:vp_y="0 : 1000 : 0"
       inkscape:vp_z="1052.3625 : 372.05002 : 1"
       inkscape:persp3d-origin="526.18127 : 248.03335 : 1"
       id="perspective1644" />
    <linearGradient
       id="linearGradient891">
      <stop
         style="stop-color:#000;stop-opacity:1;"
         offset="0"
         id="stop892" />
      <stop
         style="stop-color:#fff;stop-opacity:1;"
         offset="1"
         id="stop893" />
    </linearGradient>
    <defs
       id="defs77" />
    <linearGradient
       xlink:href="#linearGradient891"
       id="linearGradient894" />
    <inkscape:perspective
       id="perspective5873"
       inkscape:persp3d-origin="128 : 85.333333 : 1"
       inkscape:vp_z="256 : 128 : 1"
       inkscape:vp_y="0 : 1000 : 0"
       inkscape:vp_x="0 : 128 : 1"
       sodipodi:type="inkscape:persp3d" />
    <inkscape:perspective
       sodipodi:type="inkscape:persp3d"
       inkscape:vp_x="0 : 128 : 1"
       inkscape:vp_y="0 : 1000 : 0"
       inkscape:vp_z="256 : 128 : 1"
       inkscape:persp3d-origin="128 : 85.333333 : 1"
       id="perspective3406" />
    <linearGradient
       gradientUnits="userSpaceOnUse"
       y2="168.73178"
       x2="69.606522"
       y1="179.17134"
       x1="34.664833"
       id="linearGradient3348"
       xlink:href="#linearGradient3182"
       inkscape:collect="always" />
    <radialGradient
       gradientUnits="userSpaceOnUse"
       gradientTransform="matrix(1.0344938,-0.6490943,1.2321817,1.9637889,-227.55974,-111.06422)"
       r="39.998318"
       fy="181.97496"
       fx="96.641174"
       cy="181.97496"
       cx="96.641174"
       id="radialGradient3324"
       xlink:href="#linearGradient3318"
       inkscape:collect="always" />
    <radialGradient
       r="57.492764"
       fy="131.18924"
       fx="-111.1391"
       cy="131.18924"
       cx="-111.1391"
       gradientTransform="matrix(1,0,0,1.1045441,259.89011,15.405813)"
       gradientUnits="userSpaceOnUse"
       id="radialGradient3293"
       xlink:href="#linearGradient3273"
       inkscape:collect="always" />
    <radialGradient
       gradientUnits="userSpaceOnUse"
       gradientTransform="matrix(1.0513985,-0.2748094,0.3124519,1.1954155,224.61218,-27.057611)"
       r="57.492764"
       fy="125.78189"
       fx="-112.6677"
       cy="125.78189"
       cx="-112.6677"
       id="radialGradient3271"
       xlink:href="#linearGradient3295"
       inkscape:collect="always" />
    <linearGradient
       spreadMethod="pad"
       gradientUnits="userSpaceOnUse"
       y2="74.433449"
       x2="-0.59889859"
       y1="49.708172"
       x1="17.252829"
       id="linearGradient3261"
       xlink:href="#linearGradient3182"
       inkscape:collect="always" />
    <inkscape:perspective
       sodipodi:type="inkscape:persp3d"
       inkscape:vp_x="0 : 526.18109 : 1"
       inkscape:vp_y="0 : 1000 : 0"
       inkscape:vp_z="744.09448 : 526.18109 : 1"
       inkscape:persp3d-origin="372.04724 : 350.78739 : 1"
       id="perspective2481" />
    <linearGradient
       spreadMethod="reflect"
       gradientUnits="userSpaceOnUse"
       y2="119.48839"
       x2="42.258244"
       y1="50.257622"
       x1="-43.736183"
       id="linearGradient3228"
       xlink:href="#linearGradient3218"
       inkscape:collect="always" />
    <radialGradient
       spreadMethod="reflect"
       gradientUnits="userSpaceOnUse"
       gradientTransform="matrix(0.4691647,-0.6074871,1.1812243,0.9122641,-95.789114,39.523159)"
       r="68.271942"
       fy="103.72454"
       fx="50.359936"
       cy="103.72454"
       cx="50.359936"
       id="radialGradient3204"
       xlink:href="#linearGradient3198"
       inkscape:collect="always" />
    <linearGradient
       gradientUnits="userSpaceOnUse"
       y2="55.068703"
       x2="159.36919"
       y1="13.859914"
       x1="136.86264"
       id="linearGradient3194"
       xlink:href="#linearGradient3182"
       inkscape:collect="always" />
    <radialGradient
       gradientUnits="userSpaceOnUse"
       gradientTransform="matrix(-0.9999471,-1.028466e-2,1.7469939e-2,-1.6985637,273.90238,177.96921)"
       r="62.901622"
       fy="40.626148"
       fx="164.96648"
       cy="62.1432"
       cx="137.31894"
       id="radialGradient3174"
       xlink:href="#linearGradient3168"
       inkscape:collect="always" />
    <inkscape:perspective
       id="perspective9"
       inkscape:persp3d-origin="372.04724 : 350.78739 : 1"
       inkscape:vp_z="744.09448 : 526.18109 : 1"
       inkscape:vp_y="0 : 1000 : 0"
       inkscape:vp_x="0 : 526.18109 : 1"
       sodipodi:type="inkscape:persp3d" />
    <linearGradient
       id="linearGradient3156"
       inkscape:collect="always">
      <stop
         id="stop3158"
         offset="0"
         style="stop-color:#000000;stop-opacity:1;" />
      <stop
         id="stop3160"
         offset="1"
         style="stop-color:#ffffff;stop-opacity:1" />
    </linearGradient>
    <linearGradient
       id="linearGradient3168">
      <stop
         id="stop3170"
         offset="0"
         style="stop-color:#b3b3b3;stop-opacity:1;" />
      <stop
         style="stop-color:#8c8c8c;stop-opacity:0.99607843;"
         offset="0.37659004"
         id="stop3176" />
      <stop
         id="stop3178"
         offset="0.65219468"
         style="stop-color:#5d5d5d;stop-opacity:0.99607843;" />
      <stop
         id="stop3172"
         offset="1"
         style="stop-color:#000000;stop-opacity:0.99607843;" />
    </linearGradient>
    <linearGradient
       id="linearGradient3182">
      <stop
         style="stop-color:#ffffff;stop-opacity:1"
         offset="0"
         id="stop3188" />
      <stop
         style="stop-color:#ffffff;stop-opacity:0"
         offset="1"
         id="stop3190" />
    </linearGradient>
    <linearGradient
       id="linearGradient3198">
      <stop
         id="stop3200"
         offset="0"
         style="stop-color:#000000;stop-opacity:1;" />
      <stop
         style="stop-color:#6b6b6b;stop-opacity:1;"
         offset="0.5"
         id="stop3206" />
      <stop
         id="stop3202"
         offset="1"
         style="stop-color:#f4fdff;stop-opacity:1" />
    </linearGradient>
    <linearGradient
       id="linearGradient3218">
      <stop
         id="stop3222"
         offset="0"
         style="stop-color:#f1fbff;stop-opacity:1;" />
      <stop
         style="stop-color:#f4fdff;stop-opacity:0"
         offset="1"
         id="stop3224" />
    </linearGradient>
    <linearGradient
       id="linearGradient3273">
      <stop
         style="stop-color:#ffffff;stop-opacity:1;"
         offset="0"
         id="stop3275" />
      <stop
         style="stop-color:#292929;stop-opacity:0.99607843;"
         offset="0.84333199"
         id="stop3279" />
      <stop
         style="stop-color:#000000;stop-opacity:0.99607843;"
         offset="1"
         id="stop3281" />
    </linearGradient>
    <linearGradient
       id="linearGradient3285">
      <stop
         id="stop3287"
         offset="0"
         style="stop-color:#ffffff;stop-opacity:1;" />
      <stop
         id="stop3289"
         offset="0.84333199"
         style="stop-color:#d3a500;stop-opacity:0;" />
      <stop
         id="stop3291"
         offset="1"
         style="stop-color:#ffffff;stop-opacity:0;" />
    </linearGradient>
    <linearGradient
       id="linearGradient3295">
      <stop
         id="stop3297"
         offset="0"
         style="stop-color:#ffffff;stop-opacity:0;" />
      <stop
         id="stop3299"
         offset="0.70635813"
         style="stop-color:#000000;stop-opacity:0;" />
      <stop
         id="stop3301"
         offset="1"
         style="stop-color:#868686;stop-opacity:0.99607843;" />
    </linearGradient>
    <linearGradient
       id="linearGradient3318">
      <stop
         id="stop3320"
         offset="0"
         style="stop-color:#000000;stop-opacity:1;" />
      <stop
         style="stop-color:#575757;stop-opacity:1;"
         offset="0.5"
         id="stop3326" />
      <stop
         id="stop3322"
         offset="1"
         style="stop-color:#9d9d9d;stop-opacity:1;" />
    </linearGradient>
    <linearGradient
       id="linearGradient3338">
      <stop
         style="stop-color:#3c8f3c;stop-opacity:1;"
         offset="0"
         id="stop3340" />
      <stop
         id="stop3342"
         offset="0.5"
         style="stop-color:#3c8f3c;stop-opacity:1;" />
      <stop
         style="stop-color:#a4e9a4;stop-opacity:1;"
         offset="1"
         id="stop3344" />
    </linearGradient>
    <radialGradient
       inkscape:collect="always"
       xlink:href="#linearGradient3156"
       id="radialGradient2552"
       gradientUnits="userSpaceOnUse"
       gradientTransform="matrix(-0.6445357,0.2658441,-1.4272113,-3.4602569,361.30192,506.97554)"
       spreadMethod="reflect"
       cx="103.05972"
       cy="121.47471"
       fx="103.05972"
       fy="121.47471"
       r="26.006521" />
    <linearGradient
       inkscape:collect="always"
       xlink:href="#linearGradient3182"
       id="linearGradient3331"
       gradientUnits="userSpaceOnUse"
       spreadMethod="pad"
       x1="17.252829"
       y1="49.708172"
       x2="-0.59889859"
       y2="74.433449"
       gradientTransform="matrix(0.9599086,0,0,0.9599086,43.67017,5.4460863)" />
    <linearGradient
       inkscape:collect="always"
       xlink:href="#linearGradient3218"
       id="linearGradient3334"
       gradientUnits="userSpaceOnUse"
       spreadMethod="reflect"
       x1="-43.736183"
       y1="50.257622"
       x2="42.258244"
       y2="119.48839"
       gradientTransform="matrix(0.9599086,0,0,0.9599086,43.67017,5.4460863)" />
    <radialGradient
       inkscape:collect="always"
       xlink:href="#linearGradient3198"
       id="radialGradient3337"
       gradientUnits="userSpaceOnUse"
       gradientTransform="matrix(0.4503552,-0.5831321,1.1338674,0.8756902,-48.278624,43.384707)"
       spreadMethod="reflect"
       cx="50.359936"
       cy="103.72454"
       fx="50.359936"
       fy="103.72454"
       r="68.271942" />
    <linearGradient
       inkscape:collect="always"
       xlink:href="#linearGradient3182"
       id="linearGradient3340"
       gradientUnits="userSpaceOnUse"
       x1="34.664833"
       y1="179.17134"
       x2="69.606522"
       y2="168.73178"
       gradientTransform="matrix(0.9599086,0,0,0.9599086,43.67017,5.4460863)" />
    <radialGradient
       inkscape:collect="always"
       xlink:href="#linearGradient3318"
       id="radialGradient3343"
       gradientUnits="userSpaceOnUse"
       gradientTransform="matrix(0.9930195,-0.6230712,1.1827818,1.8850579,-174.76638,-101.16541)"
       cx="96.641174"
       cy="181.97496"
       fx="96.641174"
       fy="181.97496"
       r="39.998318" />
    <linearGradient
       inkscape:collect="always"
       xlink:href="#linearGradient3182"
       id="linearGradient3346"
       gradientUnits="userSpaceOnUse"
       x1="136.86264"
       y1="13.859914"
       x2="159.36919"
       y2="55.068703"
       gradientTransform="matrix(0.9599086,0,0,0.9599086,43.67017,5.4460863)" />
    <radialGradient
       inkscape:collect="always"
       xlink:href="#linearGradient3168"
       id="radialGradient3349"
       gradientUnits="userSpaceOnUse"
       gradientTransform="matrix(-0.9598578,-9.8723336e-3,1.6769545e-2,-1.6304659,306.59142,176.28026)"
       cx="137.31894"
       cy="62.1432"
       fx="164.96648"
       fy="40.626148"
       r="62.901622" />
    <radialGradient
       inkscape:collect="always"
       xlink:href="#linearGradient3295"
       id="radialGradient3352"
       gradientUnits="userSpaceOnUse"
       gradientTransform="matrix(1.0092465,-0.2637919,0.2999253,1.1474896,259.27733,-20.526747)"
       cx="-112.6677"
       cy="125.78189"
       fx="-112.6677"
       fy="125.78189"
       r="57.492764" />
    <radialGradient
       inkscape:collect="always"
       xlink:href="#linearGradient3273"
       id="radialGradient3355"
       gradientUnits="userSpaceOnUse"
       gradientTransform="matrix(0.9599086,0,0,1.0602614,293.14092,20.234259)"
       cx="-111.1391"
       cy="131.18924"
       fx="-111.1391"
       fy="131.18924"
       r="57.492764" />
  </defs>
  <sodipodi:namedview
     id="base"
     showgrid="false"
     inkscape:zoom="2.03125"
     inkscape:cx="128"
     inkscape:cy="128"
     inkscape:window-width="1680"
     inkscape:window-height="1025"
     inkscape:window-x="-5"
     inkscape:window-y="0"
     inkscape:current-layer="svg581" />
  <g
     style="font-size:12px;fill:#b77200"
     id="g770"
     transform="matrix(-0.3261285,4.7635733e-2,4.3557076e-2,0.3028912,126.1513,-33.144769)" />
  <metadata
     id="metadata1642">
    <rdf:RDF>
      <cc:Work
         rdf:about="">
        <dc:title>TuxMarchaUNI</dc:title>
        <dc:description />
        <dc:subject>
          <rdf:Bag>
            <rdf:li>unsorted</rdf:li>
          </rdf:Bag>
        </dc:subject>
        <dc:publisher>
          <cc:Agent
             rdf:about="">
            <dc:title />
          </cc:Agent>
        </dc:publisher>
        <dc:creator>
          <cc:Agent
             rdf:about="">
            <dc:title>Carlos Mauro Cárdenas Fernández</dc:title>
          </cc:Agent>
        </dc:creator>
        <dc:rights>
          <cc:Agent
             rdf:about="">
            <dc:title />
          </cc:Agent>
        </dc:rights>
        <dc:date />
        <dc:format>image/svg+xml</dc:format>
        <dc:type
           rdf:resource="http://purl.org/dc/dcmitype/StillImage" />
        <cc:license
           rdf:resource="Public Domain">
          <dc:date>25</dc:date>
        </cc:license>
        <dc:language>en</dc:language>
      </cc:Work>
      <cc:License
         rdf:about="Public Domain">
        <cc:permits
           rdf:resource="http://web.resource.org/cc/Reproduction" />
        <cc:permits
           rdf:resource="http://web.resource.org/cc/Distribution" />
        <cc:permits
           rdf:resource="http://web.resource.org/cc/DerivativeWorks" />
      </cc:License>
    </rdf:RDF>
  </metadata>
  <g
     id="layer1"
     inkscape:label="1. réteg"
     transform="translate(0.1741558,0.1657915)">
    <path
       sodipodi:nodetypes="ccccccccccccccccccc"
       id="text2159"
       d="M 24.21875,-12.46875 L 20.875,-3.71875 L 22.125,-3.71875 L 22.9375,-5.96875 L 26.875,-5.96875 L 27.65625,-3.75 L 27.65625,-3.71875 L 28.90625,-3.71875 L 28.112945,-5.9820422 C 32.228496,-5.9032637 31.758745,-12.572757 28.323088,-12.5 L 24.21875,-12.46875 z M 26.123534,-11.409449 L 27.714084,-11.409449 C 30.668411,-11.482325 30.846223,-6.8936801 27.747543,-6.9913924 L 26.123534,-11.409449 z M 24.875,-11.3125 L 26.5,-6.9375 L 23.28125,-6.9375 L 24.875,-11.3125 z"
       style="font-size:12px;font-style:normal;font-weight:normal;fill:#000000;fill-opacity:1;stroke:none;stroke-width:1px;stroke-linecap:butt;stroke-linejoin:miter;stroke-opacity:1;font-family:Bitstream Vera Sans" />
    <path
       id="text2170"
       d="M 20.997385,-5.2602428 C 20.986863,-5.2713888 20.975323,-5.2794398 20.962765,-5.2843948 C 20.950546,-5.2899668 20.936969,-5.2927538 20.922035,-5.2927548 C 20.869087,-5.2927538 20.828357,-5.2611708 20.799847,-5.1980068 C 20.771675,-5.1354598 20.75759,-5.0453568 20.75759,-4.9276968 L 20.75759,-4.3796448 L 20.663403,-4.3796448 L 20.663403,-5.4200138 L 20.75759,-5.4200138 L 20.75759,-5.2583858 C 20.777276,-5.3215498 20.802901,-5.3683038 20.834467,-5.3986498 C 20.866032,-5.4296108 20.904385,-5.4450938 20.949528,-5.4450948 C 20.955976,-5.4450938 20.963104,-5.4441638 20.970911,-5.4423078 C 20.978717,-5.4410678 20.987372,-5.4389008 20.996876,-5.4358058 L 20.997385,-5.2602428 M 21.29522,-5.3001858 C 21.244987,-5.3001848 21.205276,-5.2642678 21.176086,-5.1924338 C 21.146897,-5.1212168 21.132302,-5.0233728 21.132302,-4.8989008 C 21.132302,-4.7744278 21.146727,-4.6762738 21.175577,-4.6044388 C 21.204766,-4.5332228 21.244647,-4.4976148 21.29522,-4.4976148 C 21.345114,-4.4976148 21.384655,-4.5335328 21.413845,-4.6053678 C 21.443034,-4.6772028 21.457629,-4.7750468 21.457629,-4.8989008 C 21.457629,-5.0221338 21.443034,-5.1196688 21.413845,-5.1915048 C 21.384655,-5.2639578 21.345114,-5.3001848 21.29522,-5.3001858 M 21.29522,-5.4450948 C 21.376679,-5.4450938 21.440658,-5.3967908 21.487158,-5.3001858 C 21.533657,-5.2035798 21.556907,-5.0698178 21.556908,-4.8989008 C 21.556907,-4.7286018 21.533657,-4.5948398 21.487158,-4.4976148 C 21.440658,-4.4010098 21.376679,-4.3527068 21.29522,-4.3527068 C 21.213421,-4.3527068 21.149272,-4.4010098 21.102773,-4.4976148 C 21.056613,-4.5948398 21.033533,-4.7286018 21.033533,-4.8989008 C 21.033533,-5.0698178 21.056613,-5.2035798 21.102773,-5.3001858 C 21.149272,-5.3967908 21.213421,-5.4450938 21.29522,-5.4450948 M 21.932638,-5.3001858 C 21.882405,-5.3001848 21.842693,-5.2642678 21.813504,-5.1924338 C 21.784314,-5.1212168 21.76972,-5.0233728 21.76972,-4.8989008 C 21.76972,-4.7744278 21.784145,-4.6762738 21.812995,-4.6044388 C 21.842184,-4.5332228 21.882065,-4.4976148 21.932638,-4.4976148 C 21.982531,-4.4976148 22.022073,-4.5335328 22.051263,-4.6053678 C 22.080452,-4.6772028 22.095047,-4.7750468 22.095047,-4.8989008 C 22.095047,-5.0221338 22.080452,-5.1196688 22.051263,-5.1915048 C 22.022073,-5.2639578 21.982531,-5.3001848 21.932638,-5.3001858 M 21.932638,-5.4450948 C 22.014097,-5.4450938 22.078076,-5.3967908 22.124576,-5.3001858 C 22.171075,-5.2035798 22.194325,-5.0698178 22.194325,-4.8989008 C 22.194325,-4.7286018 22.171075,-4.5948398 22.124576,-4.4976148 C 22.078076,-4.4010098 22.014097,-4.3527068 21.932638,-4.3527068 C 21.850839,-4.3527068 21.78669,-4.4010098 21.740191,-4.4976148 C 21.69403,-4.5948398 21.670951,-4.7286018 21.670951,-4.8989008 C 21.670951,-5.0698178 21.69403,-5.2035798 21.740191,-5.3001858 C 21.78669,-5.3967908 21.850839,-5.4450938 21.932638,-5.4450948 M 22.441758,-5.7154048 L 22.441758,-5.4200138 L 22.634714,-5.4200138 L 22.634714,-5.2871818 L 22.441758,-5.2871818 L 22.441758,-4.7224098 C 22.441757,-4.6375698 22.448037,-4.5830738 22.460595,-4.5589228 C 22.473493,-4.5347708 22.499458,-4.5226948 22.538491,-4.5226958 L 22.634714,-4.5226958 L 22.634714,-4.3796448 L 22.538491,-4.3796448 C 22.466195,-4.3796448 22.416302,-4.4041058 22.388809,-4.4530278 C 22.361317,-4.5025698 22.347571,-4.5923628 22.347571,-4.7224098 L 22.347571,-5.2871818 L 22.278839,-5.2871818 L 22.278839,-5.4200138 L 22.347571,-5.4200138 L 22.347571,-5.7154048 L 22.441758,-5.7154048 M 22.865345,-5.6122968 L 22.865345,-5.0911828 L 22.994662,-5.0911828 C 23.042519,-5.0911828 23.079515,-5.1137858 23.10565,-5.1589928 C 23.131784,-5.2041988 23.144852,-5.2686018 23.144852,-5.3522038 C 23.144852,-5.4351848 23.131784,-5.4992788 23.10565,-5.5444868 C 23.079515,-5.5896918 23.042519,-5.6122958 22.994662,-5.6122968 L 22.865345,-5.6122968 M 22.762503,-5.7664938 L 22.994662,-5.7664938 C 23.079854,-5.7664928 23.144173,-5.7311938 23.187618,-5.6605998 C 23.231402,-5.5906208 23.253294,-5.4878228 23.253294,-5.3522038 C 23.253294,-5.2153448 23.231402,-5.1119278 23.187618,-5.0419518 C 23.144173,-4.9719738 23.079854,-4.9369848 22.994662,-4.9369848 L 22.865345,-4.9369848 L 22.865345,-4.3796448 L 22.762503,-4.3796448 L 22.762503,-5.7664938 M 23.600005,-4.9026158 C 23.524316,-4.9026158 23.471876,-4.8868248 23.442687,-4.8552418 C 23.413497,-4.8236588 23.398903,-4.7697828 23.398903,-4.6936138 C 23.398903,-4.6329248 23.409764,-4.5846228 23.431486,-4.5487048 C 23.453548,-4.5134068 23.483416,-4.4957578 23.521092,-4.4957578 C 23.573022,-4.4957578 23.6146,-4.5291978 23.645826,-4.5960788 C 23.677391,-4.6635788 23.693174,-4.7530628 23.693174,-4.8645318 L 23.693174,-4.9026158 L 23.600005,-4.9026158 M 23.786852,-4.9732128 L 23.786852,-4.3796448 L 23.693174,-4.3796448 L 23.693174,-4.5375578 C 23.671791,-4.4743928 23.645147,-4.4276378 23.613242,-4.3972938 C 23.581337,-4.3675688 23.542305,-4.3527068 23.496145,-4.3527068 C 23.437765,-4.3527068 23.391266,-4.3824318 23.356646,-4.4418818 C 23.322365,-4.5019498 23.305225,-4.5821448 23.305225,-4.6824668 C 23.305225,-4.7995078 23.326608,-4.8877538 23.369374,-4.9472038 C 23.412479,-5.0066518 23.476628,-5.0363768 23.561821,-5.0363778 L 23.693174,-5.0363778 L 23.693174,-5.0530978 C 23.693174,-5.1317438 23.678918,-5.1924328 23.650408,-5.2351628 C 23.622236,-5.2785098 23.582525,-5.3001848 23.531274,-5.3001858 C 23.49869,-5.3001848 23.466955,-5.2930628 23.436068,-5.2788208 C 23.405182,-5.2645768 23.375483,-5.2432128 23.346972,-5.2147268 L 23.346972,-5.3726398 C 23.381253,-5.3967908 23.414516,-5.4147498 23.44676,-5.4265158 C 23.479004,-5.4389008 23.5104,-5.4450938 23.540947,-5.4450948 C 23.623424,-5.4450938 23.685028,-5.4060788 23.725758,-5.3280528 C 23.766487,-5.2500248 23.786851,-5.1317438 23.786852,-4.9732128 M 23.980318,-5.8250148 L 24.073996,-5.8250148 L 24.073996,-4.3796448 L 23.980318,-4.3796448 L 23.980318,-5.8250148 M 24.269498,-5.4200138 L 24.363176,-5.4200138 L 24.363176,-4.3796448 L 24.269498,-4.3796448 L 24.269498,-5.4200138 M 24.269498,-5.8250148 L 24.363176,-5.8250148 L 24.363176,-5.6085808 L 24.269498,-5.6085808 L 24.269498,-5.8250148 M 24.848367,-4.8784648 C 24.848366,-4.7899088 24.860416,-4.7202418 24.884514,-4.6694618 C 24.908612,-4.6193008 24.941705,-4.5942208 24.983792,-4.5942208 C 25.02554,-4.5942208 25.058293,-4.6196108 25.082052,-4.6703908 C 25.10615,-4.7211708 25.1182,-4.7905288 25.1182,-4.8784648 C 25.1182,-4.9651618 25.105981,-5.0338998 25.081543,-5.0846808 C 25.057105,-5.1360798 25.024182,-5.1617788 24.982774,-5.1617798 C 24.941705,-5.1617788 24.908951,-5.1363888 24.884514,-5.0856098 C 24.860416,-5.0348288 24.848366,-4.9657808 24.848367,-4.8784648 M 25.125837,-4.6007228 C 25.105472,-4.5530398 25.082052,-4.5177418 25.055578,-4.4948288 C 25.029443,-4.4725348 24.998896,-4.4613878 24.963937,-4.4613878 C 24.905557,-4.4613878 24.85804,-4.4997828 24.821383,-4.5765718 C 24.785066,-4.6539798 24.766907,-4.7546108 24.766907,-4.8784648 C 24.766907,-5.0023178 24.785235,-5.1029478 24.821893,-5.1803578 C 24.858549,-5.2577648 24.905897,-5.2964688 24.963937,-5.2964698 C 24.998896,-5.2964688 25.029613,-5.2847028 25.056087,-5.2611718 C 25.082561,-5.2382578 25.105811,-5.2032698 25.125837,-5.1562058 L 25.125837,-5.2778918 L 25.198641,-5.2778918 L 25.198641,-4.5942208 C 25.248195,-4.6078448 25.286888,-4.6490258 25.31472,-4.7177648 C 25.342891,-4.7871218 25.356976,-4.8766058 25.356977,-4.9862168 C 25.356976,-5.0524788 25.351546,-5.1147148 25.340685,-5.1729258 C 25.330163,-5.2311368 25.314041,-5.2850128 25.292319,-5.3345548 C 25.257019,-5.4156778 25.213914,-5.4776048 25.163003,-5.5203348 C 25.112429,-5.5636828 25.057275,-5.5853568 24.997539,-5.5853588 C 24.955791,-5.5853568 24.91574,-5.5751398 24.877386,-5.5547048 C 24.839032,-5.5348868 24.803564,-5.5051618 24.77098,-5.4655308 C 24.717692,-5.4023638 24.675945,-5.3193818 24.645737,-5.2165848 C 24.615868,-5.1144048 24.600934,-5.0035558 24.600934,-4.8840378 C 24.600934,-4.7855738 24.610608,-4.6933038 24.629954,-4.6072258 C 24.64964,-4.5211468 24.677981,-4.4452868 24.714977,-4.3796448 C 24.750615,-4.3152408 24.791854,-4.2663188 24.838693,-4.2328788 C 24.885532,-4.1988188 24.935595,-4.1817888 24.988884,-4.1817888 C 25.032667,-4.1817888 25.075603,-4.1954128 25.117691,-4.2226608 C 25.160117,-4.2492888 25.19898,-4.2876838 25.234279,-4.3378448 L 25.2801,-4.2347368 C 25.237673,-4.1746678 25.191343,-4.1288418 25.141111,-4.0972588 C 25.091216,-4.0650578 25.040474,-4.0489568 24.988884,-4.0489558 C 24.926092,-4.0489568 24.866864,-4.0693918 24.811201,-4.1102638 C 24.755537,-4.1505158 24.705983,-4.2093468 24.662538,-4.2867548 C 24.619093,-4.3641628 24.586,-4.4536468 24.56326,-4.5552068 C 24.540519,-4.6573858 24.529148,-4.7669968 24.529149,-4.8840378 C 24.529148,-4.9967438 24.540689,-5.1041868 24.563769,-5.2063668 C 24.586849,-5.3085448 24.619772,-5.3983388 24.662538,-5.4757478 C 24.706322,-5.5543938 24.756894,-5.6144628 24.814256,-5.6559548 C 24.871616,-5.6980638 24.932371,-5.7191188 24.99652,-5.7191198 C 25.068476,-5.7191188 25.13517,-5.6921808 25.196605,-5.6383058 C 25.258377,-5.5844278 25.310137,-5.5079488 25.351886,-5.4088668 C 25.377341,-5.3481778 25.396688,-5.2822258 25.409926,-5.2110108 C 25.423501,-5.1397948 25.430289,-5.0661018 25.430291,-4.9899328 C 25.430289,-4.8270648 25.403306,-4.6985678 25.34934,-4.6044388 C 25.295373,-4.5103098 25.220872,-4.4613878 25.125837,-4.4576728 L 25.125837,-4.6007228 M 25.976576,-4.9119048 C 25.976575,-5.0357578 25.96249,-5.1317438 25.934319,-5.1998648 C 25.906487,-5.2679828 25.867285,-5.3020428 25.816712,-5.3020438 C 25.766479,-5.3020428 25.727277,-5.2679828 25.699106,-5.1998648 C 25.671274,-5.1317438 25.657358,-5.0357578 25.657358,-4.9119048 C 25.657358,-4.7886708 25.671274,-4.6929938 25.699106,-4.6248748 C 25.727277,-4.5567548 25.766479,-4.5226948 25.816712,-4.5226958 C 25.867285,-4.5226948 25.906487,-4.5567548 25.934319,-4.6248748 C 25.96249,-4.6929938 25.976575,-4.7886708 25.976576,-4.9119048 M 26.070254,-4.5087618 C 26.070253,-4.3316518 26.048701,-4.2000578 26.005596,-4.1139798 C 25.96249,-4.0272818 25.896474,-3.9839338 25.807548,-3.9839328 C 25.774625,-3.9839338 25.743569,-3.9885778 25.714379,-3.9978668 C 25.68519,-4.0065368 25.656849,-4.0201608 25.629356,-4.0387388 L 25.629356,-4.2050118 C 25.656849,-4.1777638 25.684002,-4.1576378 25.710816,-4.1446328 C 25.737629,-4.1316288 25.764952,-4.1251268 25.792784,-4.1251258 C 25.854217,-4.1251268 25.900208,-4.1545418 25.930755,-4.2133718 C 25.961302,-4.2715828 25.976575,-4.3598288 25.976576,-4.4781088 L 25.976576,-4.5626388 C 25.957229,-4.5013308 25.932452,-4.4555048 25.902245,-4.4251608 C 25.872036,-4.3948168 25.835889,-4.3796448 25.793802,-4.3796448 C 25.723883,-4.3796448 25.66754,-4.4282578 25.624774,-4.5254818 C 25.582008,-4.6227068 25.560625,-4.7515148 25.560625,-4.9119048 C 25.560625,-5.0729138 25.582008,-5.2020308 25.624774,-5.2992568 C 25.66754,-5.3964808 25.723883,-5.4450938 25.793802,-5.4450948 C 25.835889,-5.4450938 25.872036,-5.4299218 25.902245,-5.3995778 C 25.932452,-5.3692328 25.957229,-5.3234068 25.976576,-5.2621008 L 25.976576,-5.4200138 L 26.070254,-5.4200138 L 26.070254,-4.5087618 M 26.707163,-5.2203008 C 26.730582,-5.2970888 26.758583,-5.3537508 26.791167,-5.3902888 C 26.823751,-5.4268248 26.862104,-5.4450938 26.906228,-5.4450948 C 26.965625,-5.4450938 27.011446,-5.4070078 27.043691,-5.3308388 C 27.075934,-5.2552878 27.092056,-5.1475358 27.092057,-5.0075818 L 27.092057,-4.3796448 L 26.99787,-4.3796448 L 26.99787,-5.0020088 C 26.997869,-5.1017098 26.988196,-5.1757118 26.96885,-5.2240158 C 26.949503,-5.2723178 26.919974,-5.2964688 26.880263,-5.2964698 C 26.831727,-5.2964688 26.793373,-5.2670538 26.765202,-5.2082248 C 26.737031,-5.1493928 26.722945,-5.0691988 26.722945,-4.9676398 L 26.722945,-4.3796448 L 26.628758,-4.3796448 L 26.628758,-5.0020088 C 26.628758,-5.1023288 26.619085,-5.1763318 26.599738,-5.2240158 C 26.580392,-5.2723178 26.550523,-5.2964688 26.510133,-5.2964698 C 26.462276,-5.2964688 26.424262,-5.2667448 26.396091,-5.2072958 C 26.367919,-5.1484648 26.353833,-5.0685788 26.353834,-4.9676398 L 26.353834,-4.3796448 L 26.259647,-4.3796448 L 26.259647,-5.4200138 L 26.353834,-5.4200138 L 26.353834,-5.2583858 C 26.375216,-5.3221688 26.400842,-5.3692328 26.430711,-5.3995778 C 26.460579,-5.4299218 26.496047,-5.4450938 26.537117,-5.4450948 C 26.578525,-5.4450938 26.613654,-5.4258958 26.642505,-5.3875028 C 26.671694,-5.3491068 26.693246,-5.2933728 26.707163,-5.2203008 M 27.538555,-4.9026158 C 27.462866,-4.9026158 27.410426,-4.8868248 27.381237,-4.8552418 C 27.352048,-4.8236588 27.337453,-4.7697828 27.337453,-4.6936138 C 27.337453,-4.6329248 27.348314,-4.5846228 27.370037,-4.5487048 C 27.392098,-4.5134068 27.421967,-4.4957578 27.459642,-4.4957578 C 27.511572,-4.4957578 27.55315,-4.5291978 27.584376,-4.5960788 C 27.615941,-4.6635788 27.631724,-4.7530628 27.631724,-4.8645318 L 27.631724,-4.9026158 L 27.538555,-4.9026158 M 27.725402,-4.9732128 L 27.725402,-4.3796448 L 27.631724,-4.3796448 L 27.631724,-4.5375578 C 27.610341,-4.4743928 27.583697,-4.4276378 27.551792,-4.3972938 C 27.519887,-4.3675688 27.480855,-4.3527068 27.434695,-4.3527068 C 27.376316,-4.3527068 27.329816,-4.3824318 27.295196,-4.4418818 C 27.260915,-4.5019498 27.243775,-4.5821448 27.243775,-4.6824668 C 27.243775,-4.7995078 27.265158,-4.8877538 27.307924,-4.9472038 C 27.351029,-5.0066518 27.415178,-5.0363768 27.500371,-5.0363778 L 27.631724,-5.0363778 L 27.631724,-5.0530978 C 27.631724,-5.1317438 27.617468,-5.1924328 27.588958,-5.2351628 C 27.560787,-5.2785098 27.521075,-5.3001848 27.469824,-5.3001858 C 27.43724,-5.3001848 27.405505,-5.2930628 27.374619,-5.2788208 C 27.343732,-5.2645768 27.314033,-5.2432128 27.285523,-5.2147268 L 27.285523,-5.3726398 C 27.319803,-5.3967908 27.353066,-5.4147498 27.38531,-5.4265158 C 27.417554,-5.4389008 27.44895,-5.4450938 27.479497,-5.4450948 C 27.561974,-5.4450938 27.623578,-5.4060788 27.664308,-5.3280528 C 27.705037,-5.2500248 27.725402,-5.1317438 27.725402,-4.9732128 M 27.918868,-5.4200138 L 28.012546,-5.4200138 L 28.012546,-4.3796448 L 27.918868,-4.3796448 L 27.918868,-5.4200138 M 27.918868,-5.8250148 L 28.012546,-5.8250148 L 28.012546,-5.6085808 L 27.918868,-5.6085808 L 27.918868,-5.8250148 M 28.208048,-5.8250148 L 28.301726,-5.8250148 L 28.301726,-4.3796448 L 28.208048,-4.3796448 L 28.208048,-5.8250148 M 28.510465,-4.6155858 L 28.617889,-4.6155858 L 28.617889,-4.3796448 L 28.510465,-4.3796448 L 28.510465,-4.6155858 M 29.239524,-5.3800708 L 29.239524,-5.2203008 C 29.21305,-5.2469278 29.186406,-5.2667448 29.159593,-5.2797498 C 29.133118,-5.2933728 29.106304,-5.3001848 29.079152,-5.3001858 C 29.018396,-5.3001848 28.971218,-5.2648868 28.937616,-5.1942908 C 28.904014,-5.1243128 28.887213,-5.0258498 28.887213,-4.8989008 C 28.887213,-4.7719498 28.904014,-4.6731768 28.937616,-4.6025808 C 28.971218,-4.5326038 29.018396,-4.4976148 29.079152,-4.4976148 C 29.106304,-4.4976148 29.133118,-4.5041178 29.159593,-4.5171218 C 29.186406,-4.5307458 29.21305,-4.5508718 29.239524,-4.5775008 L 29.239524,-4.4195878 C 29.213389,-4.3972938 29.186236,-4.3805738 29.158065,-4.3694268 C 29.130233,-4.3582808 29.100534,-4.3527068 29.068969,-4.3527068 C 28.983097,-4.3527068 28.914875,-4.4019378 28.864303,-4.5004018 C 28.81373,-4.5988648 28.788444,-4.7316978 28.788444,-4.8989008 C 28.788444,-5.0685788 28.8139,-5.2020308 28.864812,-5.2992568 C 28.916063,-5.3964808 28.986152,-5.4450938 29.075079,-5.4450948 C 29.103928,-5.4450938 29.132099,-5.4395198 29.159593,-5.4283738 C 29.187085,-5.4178458 29.213728,-5.4017448 29.239524,-5.3800708 M 29.624419,-5.3001858 C 29.574185,-5.3001848 29.534474,-5.2642678 29.505285,-5.1924338 C 29.476095,-5.1212168 29.4615,-5.0233728 29.461501,-4.8989008 C 29.4615,-4.7744278 29.475925,-4.6762738 29.504776,-4.6044388 C 29.533965,-4.5332228 29.573846,-4.4976148 29.624419,-4.4976148 C 29.674312,-4.4976148 29.713854,-4.5335328 29.743044,-4.6053678 C 29.772233,-4.6772028 29.786828,-4.7750468 29.786828,-4.8989008 C 29.786828,-5.0221338 29.772233,-5.1196688 29.743044,-5.1915048 C 29.713854,-5.2639578 29.674312,-5.3001848 29.624419,-5.3001858 M 29.624419,-5.4450948 C 29.705877,-5.4450938 29.769857,-5.3967908 29.816357,-5.3001858 C 29.862856,-5.2035798 29.886106,-5.0698178 29.886106,-4.8989008 C 29.886106,-4.7286018 29.862856,-4.5948398 29.816357,-4.4976148 C 29.769857,-4.4010098 29.705877,-4.3527068 29.624419,-4.3527068 C 29.54262,-4.3527068 29.478471,-4.4010098 29.431971,-4.4976148 C 29.385811,-4.5948398 29.362731,-4.7286018 29.362731,-4.8989008 C 29.362731,-5.0698178 29.385811,-5.2035798 29.431971,-5.3001858 C 29.478471,-5.3967908 29.54262,-5.4450938 29.624419,-5.4450948 M 30.484831,-5.2203008 C 30.50825,-5.2970888 30.536251,-5.3537508 30.568836,-5.3902888 C 30.601419,-5.4268248 30.639772,-5.4450938 30.683897,-5.4450948 C 30.743293,-5.4450938 30.789114,-5.4070078 30.821359,-5.3308388 C 30.853603,-5.2552878 30.869725,-5.1475358 30.869725,-5.0075818 L 30.869725,-4.3796448 L 30.775538,-4.3796448 L 30.775538,-5.0020088 C 30.775538,-5.1017098 30.765864,-5.1757118 30.746519,-5.2240158 C 30.727171,-5.2723178 30.697642,-5.2964688 30.657932,-5.2964698 C 30.609395,-5.2964688 30.571041,-5.2670538 30.542871,-5.2082248 C 30.514699,-5.1493928 30.500613,-5.0691988 30.500614,-4.9676398 L 30.500614,-4.3796448 L 30.406427,-4.3796448 L 30.406427,-5.0020088 C 30.406426,-5.1023288 30.396753,-5.1763318 30.377407,-5.2240158 C 30.35806,-5.2723178 30.328192,-5.2964688 30.287802,-5.2964698 C 30.239944,-5.2964688 30.20193,-5.2667448 30.173759,-5.2072958 C 30.145587,-5.1484648 30.131502,-5.0685788 30.131502,-4.9676398 L 30.131502,-4.3796448 L 30.037315,-4.3796448 L 30.037315,-5.4200138 L 30.131502,-5.4200138 L 30.131502,-5.2583858 C 30.152885,-5.3221688 30.178511,-5.3692328 30.208379,-5.3995778 C 30.238247,-5.4299218 30.273716,-5.4450938 30.314785,-5.4450948 C 30.356193,-5.4450938 30.391322,-5.4258958 30.420173,-5.3875028 C 30.449362,-5.3491068 30.470915,-5.2933728 30.484831,-5.2203008"
       style="font-size:4px;font-style:normal;font-weight:normal;fill:#d40000;fill-opacity:1;stroke:none;stroke-width:1px;stroke-linecap:butt;stroke-linejoin:miter;stroke-opacity:1;font-family:Bitstream Vera Sans" />
  </g>
  <g
     id="g3357">
    <path
       sodipodi:nodetypes="cccc"
       id="path3263"
       d="M 131.74969,107.72382 L 156.53855,191.05655 C 189.24219,229.92937 214.90315,229.36319 233.5422,189.47428 C 267.03485,93.440601 182.31225,88.789843 131.74969,107.72382 z"
       style="opacity:0.88288286999999999;fill:url(#radialGradient3355);fill-opacity:1;fill-rule:evenodd;stroke:#000000;stroke-width:0.95990860000000000px;stroke-linecap:butt;stroke-linejoin:miter;stroke-opacity:1" />
    <path
       style="opacity:0.88288287;fill:url(#radialGradient3352);fill-opacity:1;fill-rule:evenodd;stroke:none;stroke-width:0;stroke-linecap:butt;stroke-linejoin:miter;stroke-miterlimit:4;stroke-dasharray:none;stroke-opacity:1"
       d="M 131.74969,107.72382 C 174.41179,94.821317 262.64155,118.33661 233.5422,189.47428 C 267.03485,93.440601 182.31225,88.789843 131.74969,107.72382 z"
       id="path3283"
       sodipodi:nodetypes="ccc" />
    <path
       sodipodi:nodetypes="ccccc"
       id="path3166"
       d="M 143.35298,143.06112 C 182.56165,179.29381 216.41717,159.16518 231.95994,119.85453 C 239.16807,102.80118 261.073,-21.027265 191.87583,14.897494 C 164.69067,31.536164 125.48655,51.76793 121.20125,94.01084 L 143.35298,143.06112 z"
       style="opacity:0.78378380000000003;fill:url(#radialGradient3349);fill-opacity:1;fill-rule:evenodd;stroke:#000000;stroke-width:0.95990860000000000px;stroke-linecap:butt;stroke-linejoin:miter;stroke-opacity:1" />
    <path
       style="opacity:0.7837838;fill:url(#linearGradient3346);fill-opacity:1;fill-rule:evenodd;stroke:none;stroke-width:0;stroke-linecap:butt;stroke-linejoin:miter;stroke-miterlimit:4;stroke-dasharray:none;stroke-opacity:1"
       d="M 143.35298,143.06112 C 131.60612,158.53053 164.54681,3.9023864 228.34517,13.743146 C 220.78053,6.9196898 209.17512,5.9163044 191.87583,14.897494 C 164.69067,31.536164 125.48655,51.76793 121.20125,94.01084 L 143.35298,143.06112 z"
       id="path3180"
       sodipodi:nodetypes="ccccc" />
    <path
       sodipodi:nodetypes="csc"
       id="path2384"
       d="M 154.95628,188.41943 C 131.50741,161.02671 90.259867,91.870495 112.23507,84.517238 C 135.32361,76.791445 149.37193,151.82795 154.95628,188.41943 z"
       style="fill:url(#radialGradient2552);fill-opacity:1;fill-rule:evenodd;stroke:#000000;stroke-width:0.9599086px;stroke-linecap:butt;stroke-linejoin:miter;stroke-opacity:1" />
    <path
       sodipodi:nodetypes="cccccc"
       id="path3316"
       d="M 131.7497,140.95142 C 104.47605,101.13988 77.749722,117.71267 77.425196,151.49987 C 77.53762,192.39608 100.51115,214.04085 127.00289,232.72291 C 137.39836,239.19988 146.26611,240.48268 149.68205,223.2293 C 152.89726,209.1647 155.00357,195.10011 151.26432,181.03551 L 131.7497,140.95142 z"
       style="opacity:0.82882882000000002;fill:url(#radialGradient3343);fill-opacity:1;fill-rule:evenodd;stroke:#000000;stroke-width:0.95990860000000000px;stroke-linecap:butt;stroke-linejoin:miter;stroke-opacity:1" />
    <path
       style="opacity:0.82882882;fill:url(#linearGradient3340);fill-opacity:1;fill-rule:evenodd;stroke:none;stroke-width:0;stroke-linecap:butt;stroke-linejoin:miter;stroke-miterlimit:4;stroke-dasharray:none;stroke-opacity:1"
       d="M 94.481527,118.62612 C 84.350173,122.01627 77.587459,134.60626 77.425196,151.49987 C 77.53762,192.39608 100.51115,214.04085 127.00289,232.72291 C 118.67405,194.19068 67.519129,170.05602 94.481527,118.62612 z"
       id="path3336"
       sodipodi:nodetypes="cccc" />
    <path
       sodipodi:nodetypes="ccccc"
       id="path3196"
       d="M 137.55135,163.63059 C 131.17191,139.11812 122.77985,116.28284 108.01569,98.75764 C 79.772399,79.119614 57.022128,55.87945 24.682971,44.433143 C 3.3656285,39.41414 4.7943171,60.910775 13.079682,82.407549 C 33.707263,128.17548 108.06736,210.50871 137.55135,163.63059 z"
       style="opacity:0.83783779000000003;fill:url(#radialGradient3337);fill-opacity:1;fill-rule:evenodd;stroke:#000000;stroke-width:0.95990860000000000px;stroke-linecap:butt;stroke-linejoin:miter;stroke-opacity:1" />
    <path
       style="opacity:0.83783779;fill:url(#linearGradient3334);fill-opacity:1;fill-rule:evenodd;stroke:none;stroke-width:0;stroke-linecap:butt;stroke-linejoin:miter;stroke-miterlimit:4;stroke-dasharray:none;stroke-opacity:1"
       d="M 137.55135,163.63059 C 75.267575,195.41625 33.322908,83.8326 24.682971,44.433143 C 3.3656285,39.41414 4.7943171,60.910775 13.079682,82.407549 C 33.707263,128.17548 108.06736,210.50871 137.55135,163.63059 z"
       id="path3216"
       sodipodi:nodetypes="cccc" />
    <path
       style="opacity:0.83783779;fill:url(#linearGradient3331);fill-opacity:1;fill-rule:evenodd;stroke:none;stroke-width:0;stroke-linecap:butt;stroke-linejoin:miter;stroke-miterlimit:4;stroke-dasharray:none;stroke-opacity:1"
       d="M 108.01569,98.75764 C 79.772399,79.119614 57.022128,55.87945 24.682971,44.433143 C 33.757643,52.870436 71.629352,76.824157 108.01569,98.75764 z"
       id="path2487"
       sodipodi:nodetypes="ccc" />
  </g>
</svg>
