<?xml version="1.0" encoding="UTF-8" standalone="no"?>
<!-- Created with Inkscape (http://www.inkscape.org/) -->

<svg
   xmlns:dc="http://purl.org/dc/elements/1.1/"
   xmlns:cc="http://creativecommons.org/ns#"
   xmlns:rdf="http://www.w3.org/1999/02/22-rdf-syntax-ns#"
   xmlns:svg="http://www.w3.org/2000/svg"
   xmlns="http://www.w3.org/2000/svg"
   xmlns:xlink="http://www.w3.org/1999/xlink"
   xmlns:sodipodi="http://sodipodi.sourceforge.net/DTD/sodipodi-0.dtd"
   xmlns:inkscape="http://www.inkscape.org/namespaces/inkscape"
   width="256"
   height="256"
   id="svg2"
   sodipodi:version="0.32"
   inkscape:version="0.91 r13725"
   sodipodi:docname="multimedia.svg"
   inkscape:output_extension="org.inkscape.output.svg.inkscape"
   version="1.1">
  <defs
     id="defs4">
    <linearGradient
       id="linearGradient4240">
      <stop
         id="stop4242"
         stop-color="#000332"
         stop-opacity="0.627" />
      <stop
         offset="0.656"
         id="stop4244"
         stop-color="#6f6f6f"
         stop-opacity="0.988" />
      <stop
         id="stop4246"
         offset="1"
         stop-color="#bababa"
         stop-opacity="1" />
    </linearGradient>
    <linearGradient
       id="linearGradient4226">
      <stop
         id="stop4228"
         stop-color="#000000"
         stop-opacity="0" />
      <stop
         id="stop4234"
         offset="0.56"
         stop-color="#7e7e7e"
         stop-opacity="1" />
      <stop
         offset="1"
         id="stop4230"
         stop-color="#dedede"
         stop-opacity="1" />
    </linearGradient>
    <linearGradient
       id="linearGradient4185">
      <stop
         id="stop4187"
         stop-color="#bcc7ee"
         stop-opacity="1" />
      <stop
         offset="1"
         id="stop4189"
         stop-color="#000000"
         stop-opacity="1" />
    </linearGradient>
    <linearGradient
       id="linearGradient8600">
      <stop
         id="stop8602"
         stop-color="#000000"
         stop-opacity="0" />
      <stop
         offset="1"
         id="stop8604"
         stop-color="#ffffff"
         stop-opacity="1" />
    </linearGradient>
    <linearGradient
       id="linearGradient3367">
      <stop
         id="stop3369"
         stop-color="#000000"
         stop-opacity="1" />
      <stop
         id="stop3371"
         offset="1"
         stop-color="white"
         stop-opacity="1" />
    </linearGradient>
    <linearGradient
       inkscape:collect="always"
       id="linearGradient2921">
      <stop
         id="stop2923"
         stop-color="white"
         stop-opacity="1" />
      <stop
         offset="1"
         id="stop2925"
         stop-color="#94a2fb"
         stop-opacity="0" />
    </linearGradient>
    <linearGradient
       id="linearGradient3578">
      <stop
         id="stop3580"
         stop-color="#000000"
         stop-opacity="1" />
      <stop
         id="stop3582"
         offset="1"
         stop-color="#fffcfc"
         stop-opacity="1" />
    </linearGradient>
    <linearGradient
       id="linearGradient7039">
      <stop
         id="stop7041"
         stop-color="#000000"
         stop-opacity="1" />
      <stop
         id="stop7043"
         offset="1"
         stop-color="#d6d6d6"
         stop-opacity="1" />
    </linearGradient>
    <linearGradient
       id="linearGradient7049">
      <stop
         id="stop7051"
         stop-color="#ffffff"
         stop-opacity="1" />
      <stop
         id="stop7053"
         offset="1"
         stop-color="#ffffff"
         stop-opacity="0" />
    </linearGradient>
    <linearGradient
       id="linearGradient7063">
      <stop
         id="stop7065"
         stop-color="#ffffff"
         stop-opacity="1" />
      <stop
         offset="1"
         id="stop7067"
         stop-color="#848486"
         stop-opacity="0" />
    </linearGradient>
    <linearGradient
       inkscape:collect="always"
       xlink:href="#linearGradient8600"
       id="linearGradient3337"
       gradientUnits="userSpaceOnUse"
       gradientTransform="matrix(1.7817558,0,0,2.0302932,-248.89841,-31.696284)"
       x1="216.1"
       y1="76.62"
       x2="203.8"
       y2="76.49" />
    <linearGradient
       inkscape:collect="always"
       xlink:href="#linearGradient3367"
       id="linearGradient3351"
       gradientUnits="userSpaceOnUse"
       gradientTransform="matrix(0.8641234,0,0,0.8641234,-186.85953,11.716658)"
       x1="361.17"
       y1="119.49"
       x2="348.57"
       y2="119.21" />
    <linearGradient
       inkscape:collect="always"
       xlink:href="#linearGradient7039"
       id="linearGradient3376"
       gradientUnits="userSpaceOnUse"
       spreadMethod="reflect"
       x1="409.89"
       y1="62.04"
       x2="409.89"
       y2="108.2" />
    <radialGradient
       inkscape:collect="always"
       xlink:href="#linearGradient7063"
       id="radialGradient3378"
       gradientUnits="userSpaceOnUse"
       gradientTransform="matrix(-1,-0.02649007,0.01683546,-0.6355387,816.12486,106.59681)"
       cx="403.77"
       cy="33.388"
       fx="408.68"
       fy="63.44"
       r="41.484" />
    <linearGradient
       inkscape:collect="always"
       xlink:href="#linearGradient7049"
       id="linearGradient3380"
       gradientUnits="userSpaceOnUse"
       x1="413.74"
       y1="48.31"
       x2="411.54"
       y2="88.97" />
    <linearGradient
       inkscape:collect="always"
       xlink:href="#linearGradient3367"
       id="linearGradient3401"
       gradientUnits="userSpaceOnUse"
       gradientTransform="matrix(0.8641234,0,0,0.8641234,-84.752171,-7.1702523)"
       x1="361.17"
       y1="119.49"
       x2="348.57"
       y2="119.21" />
    <linearGradient
       inkscape:collect="always"
       xlink:href="#linearGradient8600"
       id="linearGradient3411"
       gradientUnits="userSpaceOnUse"
       gradientTransform="matrix(1.7817558,0,0,2.0302932,-146.79105,-50.583194)"
       x1="216.1"
       y1="76.62"
       x2="203.8"
       y2="76.49" />
    <radialGradient
       inkscape:collect="always"
       xlink:href="#linearGradient4185"
       id="radialGradient4212"
       gradientUnits="userSpaceOnUse"
       gradientTransform="matrix(1.222248,1.6349684e-7,-3.4909936e-8,0.2292264,-37.309057,13.619917)"
       cx="167.87"
       cy="76.65"
       fx="167.87"
       fy="76.65"
       r="51.35" />
    <linearGradient
       inkscape:collect="always"
       xlink:href="#linearGradient2921"
       id="linearGradient4214"
       gradientUnits="userSpaceOnUse"
       x1="172.73"
       y1="19.421"
       x2="172.73"
       y2="25.02" />
    <linearGradient
       inkscape:collect="always"
       xlink:href="#linearGradient4226"
       id="linearGradient4232"
       x1="123.82"
       y1="36.782"
       x2="118.35"
       y2="41.43"
       gradientUnits="userSpaceOnUse" />
    <linearGradient
       inkscape:collect="always"
       xlink:href="#linearGradient4240"
       id="linearGradient4238"
       gradientUnits="userSpaceOnUse"
       x1="123.94"
       y1="38.606"
       x2="118.35"
       y2="41.843"
       gradientTransform="matrix(-1,0,0,1,339.62667,-12.005516)" />
    <linearGradient
       inkscape:collect="always"
       xlink:href="#linearGradient3578"
       id="linearGradient4694"
       gradientUnits="userSpaceOnUse"
       spreadMethod="reflect"
       x1="13.515"
       y1="-7.475"
       x2="16.09"
       y2="-7.475" />
    <linearGradient
       inkscape:collect="always"
       xlink:href="#linearGradient3578"
       id="linearGradient4704"
       gradientUnits="userSpaceOnUse"
       spreadMethod="reflect"
       x1="16.691"
       y1="-10.978"
       x2="16.09"
       y2="-7.475" />
    <linearGradient
       inkscape:collect="always"
       xlink:href="#linearGradient3578"
       id="linearGradient4716"
       gradientUnits="userSpaceOnUse"
       spreadMethod="reflect"
       x1="12.04"
       y1="-11.587"
       x2="8.696"
       y2="-2.688" />
    <linearGradient
       inkscape:collect="always"
       xlink:href="#linearGradient3578"
       id="linearGradient4718"
       gradientUnits="userSpaceOnUse"
       spreadMethod="reflect"
       x1="10.621"
       y1="-6.409"
       x2="16.09"
       y2="-7.475" />
    <linearGradient
       inkscape:collect="always"
       xlink:href="#linearGradient3578"
       id="linearGradient4720"
       gradientUnits="userSpaceOnUse"
       spreadMethod="reflect"
       x1="15.65"
       y1="-2.21"
       x2="16.09"
       y2="-7.475" />
    <linearGradient
       inkscape:collect="always"
       xlink:href="#linearGradient3578"
       id="linearGradient4724"
       gradientUnits="userSpaceOnUse"
       spreadMethod="reflect"
       x1="16.387"
       y1="-11.391"
       x2="11.132"
       y2="-11.199" />
    <linearGradient
       inkscape:collect="always"
       xlink:href="#linearGradient3578"
       id="linearGradient4744"
       gradientUnits="userSpaceOnUse"
       spreadMethod="reflect"
       x1="13.515"
       y1="-7.475"
       x2="17.07"
       y2="-8.02" />
    <linearGradient
       inkscape:collect="always"
       xlink:href="#linearGradient3578"
       id="linearGradient4748"
       gradientUnits="userSpaceOnUse"
       spreadMethod="reflect"
       x1="16.387"
       y1="-5.908"
       x2="17.747"
       y2="-6.953" />
    <linearGradient
       inkscape:collect="always"
       xlink:href="#linearGradient3578"
       id="linearGradient4750"
       gradientUnits="userSpaceOnUse"
       spreadMethod="reflect"
       x1="12.906"
       y1="-10.151"
       x2="11.372"
       y2="-5.778" />
    <linearGradient
       inkscape:collect="always"
       xlink:href="#linearGradient3578"
       id="linearGradient4756"
       gradientUnits="userSpaceOnUse"
       spreadMethod="reflect"
       x1="16.909"
       y1="-5.212"
       x2="18.617"
       y2="-6.583" />
    <linearGradient
       inkscape:collect="always"
       xlink:href="#linearGradient3578"
       id="linearGradient4758"
       gradientUnits="userSpaceOnUse"
       spreadMethod="reflect"
       x1="15.582"
       y1="-6.256"
       x2="17.377"
       y2="-1.992" />
    <linearGradient
       inkscape:collect="always"
       xlink:href="#linearGradient3578"
       id="linearGradient4760"
       gradientUnits="userSpaceOnUse"
       spreadMethod="reflect"
       x1="17.08"
       y1="-2.275"
       x2="14.94"
       y2="-3.733" />
    <linearGradient
       inkscape:collect="always"
       xlink:href="#linearGradient3578"
       id="linearGradient4762"
       gradientUnits="userSpaceOnUse"
       spreadMethod="reflect"
       x1="7.771"
       y1="-3.754"
       x2="12.916"
       y2="-4.516" />
    <linearGradient
       inkscape:collect="always"
       xlink:href="#linearGradient3578"
       id="linearGradient4764"
       gradientUnits="userSpaceOnUse"
       spreadMethod="reflect"
       x1="11.187"
       y1="-5.887"
       x2="9.718"
       y2="-1.513" />
    <filter
       inkscape:collect="always"
       id="filter4763"
       x="-0.02117128"
       width="1.0423426"
       y="-0.02770119"
       height="1.0554024">
      <feGaussianBlur
         inkscape:collect="always"
         id="feGaussianBlur4765"
         stdDeviation="1.6799022" />
    </filter>
  </defs>
  <sodipodi:namedview
     id="base"
     pagecolor="#ffffff"
     bordercolor="#666666"
     borderopacity="1.0"
     inkscape:pageopacity="0.0"
     inkscape:pageshadow="2"
     inkscape:zoom="3.5429688"
     inkscape:cx="128"
     inkscape:cy="128"
     inkscape:document-units="px"
     inkscape:current-layer="layer1"
     width="256"
     height="256"
     inkscape:window-width="1920"
     inkscape:window-height="1056"
     inkscape:window-x="0"
     inkscape:window-y="0"
     showguides="true"
     inkscape:guide-bbox="true"
     showgrid="false"
     inkscape:window-maximized="1" />
  <metadata
     id="metadata7">
    <rdf:RDF>
      <cc:Work>
        <dc:format>image/svg+xml</dc:format>
        <dc:type
           rdf:resource="http://purl.org/dc/dcmitype/StillImage" />
      </cc:Work>
    </rdf:RDF>
  </metadata>
  <g
     inkscape:label="1. réteg"
     id="layer1"
     inkscape:groupmode="layer">
    <g
       id="g3984"
       transform="translate(10.952381,4.7619048)"
       fill="#000000"
       filter="url(#filter4763)"
       fill-opacity="0.851"
       style="filter:url(#filter4763)">
      <path
         id="path4376"
         d="m 37.536223,122.30216 c 5.46297,1.68833 12.632165,-1.83745 18.728998,-2.09188 21.789316,-3.69124 43.575718,-7.39957 65.359719,-11.12207 -28.02957,4.40466 -56.059146,8.80929 -84.088717,13.21395 z m 133.169067,20.38722 c 11.10976,12.32275 23.1338,24.15249 33.08634,37.27361 -0.52155,5.69334 -7.43145,1.8642 -10.4401,0.54464 -15.49662,-8.66188 -36.06456,-1.39277 -45.60761,12.56633 -3.66739,7.06551 1.42601,15.23657 8.64913,17.33258 16.95045,7.47079 38.09995,3.65231 52.34093,-7.92837 5.77067,-4.55713 8.9347,-15.07587 1.04571,-19.51953 -14.30098,-14.65134 -28.40903,-29.47479 -42.71252,-44.11332 1.21271,1.28136 2.42541,2.5627 3.63812,3.84406 z m -92.428942,21.7601 c 10.624255,10.91012 21.66178,22.68116 31.610492,33.39523 -2.33012,-7.95925 -11.046717,-11.56948 -15.826493,-17.95656 -6.073618,-5.99283 -12.147238,-11.98567 -18.220856,-17.97849 0.812285,0.8466 1.624571,1.69322 2.436857,2.53982 z m 2.196603,35.42023 c -14.637932,0.71383 -31.481418,6.88138 -37.994371,21.00501 -3.488524,7.82904 0.694908,17.75732 9.163954,19.90672 17.423723,6.28263 37.124944,0.42852 51.860426,-9.43853 6.94731,-4.48819 12.93204,-13.32339 8.75209,-21.51985 -0.64423,-2.49595 -0.10346,-5.15624 -3.2949,-4.59913 -9.053038,-3.89255 -18.56243,-5.95116 -28.487199,-5.35422 z"
         inkscape:connector-curvature="0"
         opacity="0.293"
         stroke-opacity="1"
         stroke-dasharray="none"
         fill="#000000"
         fill-rule="evenodd"
         stroke="#000000"
         stroke-linejoin="miter"
         fill-opacity="0.851"
         stroke-linecap="butt"
         stroke-width="0"
         stroke-miterlimit="4" />
      <path
         id="path4368"
         d="m 33.074372,120.79199 c 25.565871,27.01348 52.148041,53.15509 77.073048,80.71834 3.64291,4.49394 -6.60764,-1.08287 -9.6519,-1.68457 -18.598781,-4.99782 -41.458379,-1.94967 -55.236864,12.60577 -7.644514,7.46703 -8.991197,22.05185 1.063979,28.1783 15.596981,9.03036 35.289669,4.50799 50.590518,-2.64279 9.066687,-4.74693 20.524227,-13.03081 18.774097,-24.54017 -3.57319,-8.37712 -1.24535,-19.6274 -9.93608,-25.09894 -21.421303,-21.12901 -42.853385,-42.24712 -64.267926,-63.38299 31.540409,-5.37406 63.086406,-10.71565 94.625546,-16.09698 21.7005,23.80439 44.42695,46.75373 65.40395,71.16808 1.09818,2.83902 -8.41836,-2.3226 -11.75878,-3.34796 -14.27821,-5.92642 -31.12935,0.89329 -41.3236,11.66946 -6.13279,6.09062 -5.20418,17.10099 2.43686,21.55417 15.70789,10.06338 37.03447,7.60701 52.85576,-1.06398 7.95059,-4.29235 16.44484,-13.90379 11.70378,-23.23594 -26.32042,-26.97503 -52.31324,-54.32927 -78.83746,-81.06839 -34.50498,5.42286 -69.009952,10.84573 -103.514928,16.26859 z"
         inkscape:connector-curvature="0"
         opacity="0.293"
         stroke-opacity="1"
         stroke-dasharray="none"
         fill="#000000"
         fill-rule="evenodd"
         stroke="#000000"
         stroke-linejoin="miter"
         fill-opacity="0.851"
         stroke-linecap="butt"
         stroke-width="0"
         stroke-miterlimit="4" />
      <path
         sodipodi:nodetypes="ccssscccccsssccccc"
         id="path4193"
         d="m 28.585694,119.2866 77.325196,80.22868 c -12.314861,-5.53521 -30.566956,-5.68788 -46.291371,0.51006 -20.66053,8.14356 -28.54008,27.41346 -18.357873,39.01138 10.182217,11.5979 34.77544,11.08125 54.911878,1.71649 18.231586,-8.47887 25.075566,-21.78608 20.857496,-29.8798 l -3.78736,-18.25846 -67.146997,-66.23634 89.238437,-15.15245 61.23247,65.9083 c -11.35091,-5.10498 -18.53181,-7.31903 -33.02824,-1.60512 -19.04318,7.50607 -26.88409,22.24928 -17.49896,32.93929 9.38513,10.69001 32.48622,13.28433 51.5294,5.77826 16.80417,-6.62353 24.87046,-18.89803 20.08932,-29.03898 l 0.48918,-0.002 -79.22459,-81.73352 -1.8132,-1.25482 -108.524786,17.06888 z"
         inkscape:connector-curvature="0"
         opacity="0.293"
         stroke-opacity="1"
         stroke-dasharray="none"
         fill="#000000"
         fill-rule="evenodd"
         stroke="#000000"
         stroke-linejoin="miter"
         fill-opacity="0.851"
         stroke-linecap="butt"
         stroke-width="0"
         stroke-miterlimit="4" />
    </g>
    <g
       id="g4768"
       transform="matrix(1.0983016,0,0,1.0983016,-17.97704,-11.69134)">
      <g
         id="g3382">
        <path
           inkscape:connector-curvature="0"
           d="m 118.23272,29.909716 -1.40091,160.268464 8.40535,0.63853 0,-161.545514 -7.00444,0.63852 z"
           id="path3270"
           stroke-opacity="1"
           stroke-dasharray="none"
           fill="url(#linearGradient3351)"
           fill-rule="evenodd"
           stroke="#000000"
           stroke-linejoin="miter"
           fill-opacity="1"
           stroke-linecap="butt"
           stroke-width="0"
           stroke-miterlimit="4" />
        <g
           transform="matrix(0.6681067,-0.2625133,0.2625133,0.6681067,-209.63362,253.37075)"
           id="g3278">
          <path
             sodipodi:type="arc"
             id="path3280"
             sodipodi:cx="409.89011"
             sodipodi:cy="81.824173"
             sodipodi:rx="56.593407"
             sodipodi:ry="39.01099"
             d="m 466.48351,81.824173 a 56.593407,39.01099 0 0 1 -56.5934,39.010987 56.593407,39.01099 0 0 1 -56.59341,-39.010987 56.593407,39.01099 0 0 1 56.59341,-39.01099 56.593407,39.01099 0 0 1 56.5934,39.01099 z"
             stroke-opacity="1"
             stroke-dasharray="none"
             fill="url(#linearGradient3376)"
             stroke="#000000"
             fill-opacity="1"
             stroke-width="0.6"
             stroke-miterlimit="4" />
          <path
             transform="matrix(1.1523179,0,0,-1,-64.147441,166.94505)"
             d="M 450,74.68132 A 41.483517,26.373627 0 0 1 408.51648,101.05495 41.483517,26.373627 0 0 1 367.03296,74.68132 41.483517,26.373627 0 0 1 408.51648,48.307693 41.483517,26.373627 0 0 1 450,74.68132 Z"
             sodipodi:ry="26.373627"
             sodipodi:rx="41.483517"
             sodipodi:cy="74.68132"
             sodipodi:cx="408.51648"
             id="path3282"
             sodipodi:type="arc"
             fill="url(#radialGradient3378)"
             stroke="none"
             fill-opacity="1" />
          <path
             sodipodi:type="arc"
             id="path3284"
             sodipodi:cx="408.51648"
             sodipodi:cy="74.68132"
             sodipodi:rx="41.483517"
             sodipodi:ry="26.373627"
             d="M 450,74.68132 A 41.483517,26.373627 0 0 1 408.51648,101.05495 41.483517,26.373627 0 0 1 367.03296,74.68132 41.483517,26.373627 0 0 1 408.51648,48.307693 41.483517,26.373627 0 0 1 450,74.68132 Z"
             transform="translate(0.5494505,-5.4945055)"
             fill="url(#linearGradient3380)"
             stroke="none"
             fill-opacity="1" />
        </g>
        <path
           inkscape:connector-curvature="0"
           d="m 117.46351,176.51798 c 0.57692,1.52211 0.66692,0.66136 2.30687,3.02209 l 0.15526,-140.352339 -1.61895,-7.296377 -0.84318,144.626626 z"
           id="path3286"
           sodipodi:nodetypes="ccccc"
           fill="url(#linearGradient3337)"
           fill-rule="evenodd"
           stroke="none"
           fill-opacity="1" />
      </g>
      <g
         transform="matrix(0.9217181,0,0,0.9217181,11.911893,9.2211872)"
         id="g3390">
        <path
           inkscape:connector-curvature="0"
           id="path3353"
           d="m 220.34008,11.022806 -1.40091,160.268464 8.40534,0.63853 0,-161.545514 -7.00443,0.63852 z"
           stroke-opacity="1"
           stroke-dasharray="none"
           fill="url(#linearGradient3401)"
           fill-rule="evenodd"
           stroke="#000000"
           stroke-linejoin="miter"
           fill-opacity="1"
           stroke-linecap="butt"
           stroke-width="0"
           stroke-miterlimit="4" />
        <g
           id="g3355"
           transform="matrix(0.6681067,-0.2625133,0.2625133,0.6681067,-107.52627,234.48384)">
          <path
             d="m 466.48351,81.824173 a 56.593407,39.01099 0 0 1 -56.5934,39.010987 56.593407,39.01099 0 0 1 -56.59341,-39.010987 56.593407,39.01099 0 0 1 56.59341,-39.01099 56.593407,39.01099 0 0 1 56.5934,39.01099 z"
             sodipodi:ry="39.01099"
             sodipodi:rx="56.593407"
             sodipodi:cy="81.824173"
             sodipodi:cx="409.89011"
             id="path3357"
             sodipodi:type="arc"
             stroke-opacity="1"
             stroke-dasharray="none"
             fill="url(#linearGradient3376)"
             stroke="#000000"
             fill-opacity="1"
             stroke-width="0.6"
             stroke-miterlimit="4" />
          <path
             sodipodi:type="arc"
             id="path3359"
             sodipodi:cx="408.51648"
             sodipodi:cy="74.68132"
             sodipodi:rx="41.483517"
             sodipodi:ry="26.373627"
             d="M 450,74.68132 A 41.483517,26.373627 0 0 1 408.51648,101.05495 41.483517,26.373627 0 0 1 367.03296,74.68132 41.483517,26.373627 0 0 1 408.51648,48.307693 41.483517,26.373627 0 0 1 450,74.68132 Z"
             transform="matrix(1.1523179,0,0,-1,-64.147441,166.94505)"
             fill="url(#radialGradient3378)"
             stroke="none"
             fill-opacity="1" />
          <path
             transform="translate(0.5494505,-5.4945055)"
             d="M 450,74.68132 A 41.483517,26.373627 0 0 1 408.51648,101.05495 41.483517,26.373627 0 0 1 367.03296,74.68132 41.483517,26.373627 0 0 1 408.51648,48.307693 41.483517,26.373627 0 0 1 450,74.68132 Z"
             sodipodi:ry="26.373627"
             sodipodi:rx="41.483517"
             sodipodi:cy="74.68132"
             sodipodi:cx="408.51648"
             id="path3361"
             sodipodi:type="arc"
             fill="url(#linearGradient3380)"
             stroke="none"
             fill-opacity="1" />
        </g>
        <path
           inkscape:connector-curvature="0"
           sodipodi:nodetypes="ccccc"
           id="path3363"
           d="m 219.57086,157.63107 c 0.57693,1.52211 0.66693,0.66136 2.30688,3.02209 L 222.033,20.300821 220.41405,13.004444 219.57086,157.63107 z"
           fill="url(#linearGradient3411)"
           fill-rule="evenodd"
           stroke="none"
           fill-opacity="1" />
      </g>
      <g
         transform="matrix(1,-0.1146132,0,1,2.643679e-8,24.184383)"
         id="g4208">
        <path
           inkscape:connector-curvature="0"
           d="m 118.58391,19.420691 102.69425,0 0,11.770115 -102.69425,0 0,-11.770115 z"
           id="rect3413"
           fill="url(#radialGradient4212)"
           stroke="none"
           fill-opacity="1" />
        <path
           inkscape:connector-curvature="0"
           id="path4196"
           d="m 118.58391,19.420691 102.69425,0 0,5.590805 c -34.20614,-5.480301 -67.78793,4.082247 -102.69425,0 l 0,-5.590805 z"
           sodipodi:nodetypes="ccccc"
           fill="url(#linearGradient4214)"
           stroke="none"
           fill-opacity="1" />
      </g>
      <path
         inkscape:connector-curvature="0"
         id="path4216"
         d="m 118.34851,41.842759 6.59126,-0.765058 -6.41471,-11.122758 -0.17655,11.887816 z"
         fill="url(#linearGradient4232)"
         fill-rule="evenodd"
         stroke="none"
         fill-opacity="1" />
      <path
         inkscape:connector-curvature="0"
         sodipodi:nodetypes="cccc"
         d="m 221.27816,29.837243 -6.65011,0.941609 6.65011,-12.182069 0,11.24046 z"
         id="path4236"
         fill="url(#linearGradient4238)"
         fill-rule="evenodd"
         stroke="none"
         fill-opacity="1" />
    </g>
    <g
       inkscape:label="1. réteg"
       id="g4610"
       transform="translate(0.60071,0.3637589)">
      <g
         id="g4612">
        <g
           id="g4614"
           transform="translate(-2.5722563,0)">
          <g
             id="g4616"
             stroke-opacity="1"
             fill="url(#linearGradient4694)"
             font-family="Bitstream Vera Sans"
             stroke="none"
             font-style="normal"
             stroke-linejoin="miter"
             fill-opacity="1"
             font-weight="normal"
             stroke-linecap="butt"
             stroke-width="1"
             font-size="12">
            <path
               id="path4618"
               d="M 16.1875,-12.21875 L 12.09375,-12.1875 L 12.800857,-11.480393 L 16.894607,-11.511643 L 16.1875,-12.21875 z"
               fill="url(#linearGradient4694)"
               fill-opacity="1" />
            <path
               id="path4620"
               d="M 12.09375,-12.1875 L 8.75,-3.4375 L 9.4571068,-2.7303932 L 12.800857,-11.480393 L 12.09375,-12.1875 z"
               fill="url(#linearGradient4694)"
               fill-opacity="1" />
            <path
               id="path4622"
               d="M 14.75,-5.6875 L 15.53125,-3.46875 L 16.238357,-2.7616432 L 15.457107,-4.9803932 L 14.75,-5.6875 z"
               fill="url(#linearGradient4694)"
               fill-opacity="1" />
            <path
               id="path4624"
               d="M 15.53125,-3.46875 L 15.53125,-3.4375 L 16.238357,-2.7303932 L 16.238357,-2.7616432 L 15.53125,-3.46875 z"
               fill="url(#linearGradient4694)"
               fill-opacity="1" />
            <path
               id="path4626"
               d="M 17.92037,-11.519527 C 17.478803,-11.961094 16.896486,-12.233764 16.1875,-12.21875 L 16.894607,-11.511643 C 17.603593,-11.526657 18.185909,-11.253988 18.627477,-10.81242 L 17.92037,-11.519527 z"
               fill="url(#linearGradient4694)"
               fill-opacity="1" />
            <path
               id="path4628"
               d="M 16.21875,-11.96875 C 16.818366,-11.965939 17.317195,-11.725944 17.700221,-11.342918 L 18.407328,-10.635811 C 18.024302,-11.018837 17.525473,-11.258832 16.925857,-11.261643 L 16.21875,-11.96875 z"
               fill="url(#linearGradient4704)"
               fill-opacity="1" />
            <path
               id="path4630"
               d="M 17.700221,-11.342918 C 19.261676,-9.7814631 18.898615,-5.8429893 15.59375,-5.90625 L 16.300857,-5.1991432 C 19.605722,-5.1358825 19.968783,-9.0743563 18.407328,-10.635811 L 17.700221,-11.342918 z"
               fill="url(#linearGradient4694)"
               fill-opacity="1" />
            <path
               id="path4632"
               d="M 15.59375,-5.90625 L 16.375,-3.71875 L 17.082107,-3.0116432 L 16.300857,-5.1991432 L 15.59375,-5.90625 z"
               fill="url(#linearGradient4694)"
               fill-opacity="1" />
            <path
               id="path4634"
               d="M 16.375,-3.71875 L 15.71875,-3.71875 L 16.425857,-3.0116432 L 17.082107,-3.0116432 L 16.375,-3.71875 z"
               fill="url(#linearGradient4694)"
               fill-opacity="1" />
            <path
               id="path4636"
               d="M 14.875,-5.96875 L 10.5625,-5.96875 L 11.269607,-5.2616432 L 15.582107,-5.2616432 L 14.875,-5.96875 z"
               fill="url(#linearGradient4694)"
               fill-opacity="1" />
            <path
               id="path4638"
               d="M 10.5625,-5.96875 L 9.75,-3.75 L 10.457107,-3.0428932 L 11.269607,-5.2616432 L 10.5625,-5.96875 z"
               fill="url(#linearGradient4694)"
               fill-opacity="1" />
            <path
               id="path4640"
               d="M 9.1875,-3.75 L 12.28125,-11.90625 L 12.988357,-11.199143 L 9.8946068,-3.0428932 L 9.1875,-3.75 z"
               fill="url(#linearGradient4716)"
               fill-opacity="1" />
            <path
               id="path4642"
               d="M 10.8125,-5.6875 L 14.75,-5.6875 L 15.457107,-4.9803932 L 11.519607,-4.9803932 L 10.8125,-5.6875 z"
               fill="url(#linearGradient4718)"
               fill-opacity="1" />
            <path
               id="path4644"
               d="M 15.71875,-3.71875 L 14.875,-5.96875 L 15.582107,-5.2616432 L 16.425857,-3.0116432 L 15.71875,-3.71875 z"
               fill="url(#linearGradient4720)"
               fill-opacity="1" />
            <path
               id="path4646"
               d="M 9.75,-3.75 L 9.1875,-3.75 L 9.8946068,-3.0428932 L 10.457107,-3.0428932 L 9.75,-3.75 z"
               fill="url(#linearGradient4694)"
               fill-opacity="1" />
            <path
               id="path4648"
               d="M 12.28125,-11.90625 L 16.21875,-11.96875 L 16.925857,-11.261643 L 12.988357,-11.199143 L 12.28125,-11.90625 z"
               fill="url(#linearGradient4724)"
               fill-opacity="1" />
            <path
               id="path4650"
               d="M 13.59375,-11.375 L 15.4375,-6.4375 L 16.144607,-5.7303932 L 14.300857,-10.667893 L 13.59375,-11.375 z"
               fill="url(#linearGradient4694)"
               fill-opacity="1" />
            <path
               id="path4652"
               d="M 17.29651,-10.694689 C 16.87154,-11.11966 16.292483,-11.392236 15.59375,-11.375 L 16.300857,-10.667893 C 16.99959,-10.685129 17.578646,-10.412554 18.003617,-9.9875826 L 17.29651,-10.694689 z"
               fill="url(#linearGradient4694)"
               fill-opacity="1" />
            <path
               id="path4654"
               d="M 15.59375,-11.375 L 13.59375,-11.375 L 14.300857,-10.667893 L 16.300857,-10.667893 L 15.59375,-11.375 z"
               fill="url(#linearGradient4694)"
               fill-opacity="1" />
            <path
               id="path4656"
               d="M 12.5,-11.25 L 10.71875,-6.375 L 11.425857,-5.6678932 L 13.207107,-10.542893 L 12.5,-11.25 z"
               fill="url(#linearGradient4694)"
               fill-opacity="1" />
            <path
               id="path4658"
               d="M 10.71875,-6.375 L 14.71875,-6.3125 L 15.425857,-5.6053932 L 11.425857,-5.6678932 L 10.71875,-6.375 z"
               fill="url(#linearGradient4694)"
               fill-opacity="1" />
            <path
               id="path4660"
               d="M 14.71875,-6.3125 L 12.96875,-11.25 L 13.675857,-10.542893 L 15.425857,-5.6053932 L 14.71875,-6.3125 z"
               fill="url(#linearGradient4694)"
               fill-opacity="1" />
            <path
               id="path4662"
               d="M 12.96875,-11.25 L 12.5,-11.25 L 13.207107,-10.542893 L 13.675857,-10.542893 L 12.96875,-11.25 z"
               fill="url(#linearGradient4694)"
               fill-opacity="1" />
            <path
               id="path4664"
               d="M 13.96875,-11.125 L 15.5625,-11.125 L 16.269607,-10.417893 L 14.675857,-10.417893 L 13.96875,-11.125 z"
               fill="url(#linearGradient4694)"
               fill-opacity="1" />
            <path
               id="path4666"
               d="M 15.5625,-11.125 C 16.263236,-11.142285 16.807643,-10.897983 17.18911,-10.516516 L 17.896217,-9.8094094 C 17.51475,-10.190876 16.970342,-10.435179 16.269607,-10.417893 L 15.5625,-11.125 z"
               fill="url(#linearGradient4694)"
               fill-opacity="1" />
            <path
               id="path4668"
               d="M 17.18911,-10.516516 C 18.415922,-9.2897044 17.957455,-6.644214 15.59375,-6.71875 L 16.300857,-6.0116432 C 18.664562,-5.9371073 19.123029,-8.5825976 17.896217,-9.8094094 L 17.18911,-10.516516 z"
               fill="url(#linearGradient4744)"
               fill-opacity="1" />
            <path
               id="path4670"
               d="M 15.59375,-6.71875 L 13.96875,-11.125 L 14.675857,-10.417893 L 16.300857,-6.0116432 L 15.59375,-6.71875 z"
               fill="url(#linearGradient4694)"
               fill-opacity="1" />
            <path
               id="path4672"
               d="M 15.4375,-6.4375 C 18.434536,-6.3628978 18.668368,-9.3228317 17.29651,-10.694689 L 18.003617,-9.9875826 C 19.375475,-8.6157249 19.141643,-5.655791 16.144607,-5.7303932 L 15.4375,-6.4375 z"
               fill="url(#linearGradient4748)"
               fill-opacity="1" />
            <path
               id="path4674"
               d="M 11.15625,-6.65625 L 12.75,-11.03125 L 13.457107,-10.324143 L 11.863357,-5.9491432 L 11.15625,-6.65625 z"
               fill="url(#linearGradient4750)"
               fill-opacity="1" />
            <path
               id="path4676"
               d="M 12.75,-11.03125 L 14.375,-6.65625 L 15.082107,-5.9491432 L 13.457107,-10.324143 L 12.75,-11.03125 z"
               fill="url(#linearGradient4694)"
               fill-opacity="1" />
            <path
               id="path4678"
               d="M 14.375,-6.65625 L 11.15625,-6.65625 L 11.863357,-5.9491432 L 15.082107,-5.9491432 L 14.375,-6.65625 z"
               fill="url(#linearGradient4694)"
               fill-opacity="1" />
            <path
               id="path4680"
               d="M 15.96875,-5.6875 C 19.235011,-5.6249782 19.618583,-9.8213136 17.92037,-11.519527 L 18.627477,-10.81242 C 20.32569,-9.1142068 19.942118,-4.9178714 16.675857,-4.9803932 L 15.96875,-5.6875 z"
               fill="url(#linearGradient4756)"
               fill-opacity="1" />
            <path
               id="path4682"
               d="M 16.78125,-3.4375 L 15.96875,-5.6875 L 16.675857,-4.9803932 L 17.488357,-2.7303932 L 16.78125,-3.4375 z"
               fill="url(#linearGradient4758)"
               fill-opacity="1" />
            <path
               id="path4684"
               d="M 15.53125,-3.4375 L 16.78125,-3.4375 L 17.488357,-2.7303932 L 16.238357,-2.7303932 L 15.53125,-3.4375 z"
               fill="url(#linearGradient4760)"
               fill-opacity="1" />
            <path
               id="path4686"
               d="M 8.75,-3.4375 L 10,-3.4375 L 10.707107,-2.7303932 L 9.4571068,-2.7303932 L 8.75,-3.4375 z"
               fill="url(#linearGradient4762)"
               fill-opacity="1" />
            <path
               id="path4688"
               d="M 10,-3.4375 L 10.8125,-5.6875 L 11.519607,-4.9803932 L 10.707107,-2.7303932 L 10,-3.4375 z"
               fill="url(#linearGradient4764)"
               fill-opacity="1" />
          </g>
          <path
             id="path4690"
             d="M 16.1875,-12.175236 L 12.09375,-12.143986 L 8.7499996,-3.3939857 L 9.9999996,-3.3939857 L 10.8125,-5.6439857 L 14.75,-5.6439857 L 15.53125,-3.4252357 L 15.53125,-3.3939857 L 16.78125,-3.3939857 L 15.96875,-5.6439857 C 20.084301,-5.565207 19.623157,-12.247993 16.1875,-12.175236 z M 16.21875,-11.925236 C 19.262779,-11.910965 19.709301,-5.7839571 15.59375,-5.8627357 L 16.375,-3.6752357 L 15.71875,-3.6752357 L 14.875,-5.9252357 L 10.5625,-5.9252357 L 9.7499996,-3.7064857 L 9.1874996,-3.7064857 L 12.28125,-11.862736 L 16.21875,-11.925236 z M 13.59375,-11.331486 L 15.4375,-6.3939857 C 19.362951,-6.2962734 18.548077,-11.404362 15.59375,-11.331486 L 13.59375,-11.331486 z M 12.5,-11.206486 L 10.71875,-6.3314857 L 14.71875,-6.2689857 L 12.96875,-11.206486 L 12.5,-11.206486 z M 13.96875,-11.081486 L 15.5625,-11.081486 C 18.516827,-11.154362 18.69243,-6.5775234 15.59375,-6.6752357 L 13.96875,-11.081486 z M 12.75,-10.987736 L 14.375,-6.6127357 L 11.15625,-6.6127357 L 12.75,-10.987736 z"
             stroke-opacity="1"
             fill="#333333"
             font-family="Bitstream Vera Sans"
             stroke="none"
             font-style="normal"
             stroke-linejoin="miter"
             fill-opacity="1"
             font-weight="normal"
             stroke-linecap="butt"
             stroke-width="1"
             font-size="12" />
        </g>
        <path
           id="path4692"
           d="M 6.0871491,-4.0239012 C 6.0766271,-4.0350472 6.0650871,-4.0430982 6.0525291,-4.0480532 C 6.0403101,-4.0536252 6.0267331,-4.0564122 6.0117991,-4.0564132 C 5.9588511,-4.0564122 5.9181211,-4.0248292 5.8896111,-3.9616652 C 5.8614391,-3.8991182 5.8473541,-3.8090152 5.8473541,-3.6913552 L 5.8473541,-3.1433032 L 5.7531671,-3.1433032 L 5.7531671,-4.1836722 L 5.8473541,-4.1836722 L 5.8473541,-4.0220442 C 5.8670401,-4.0852082 5.8926651,-4.1319622 5.9242311,-4.1623082 C 5.9557961,-4.1932692 5.9941491,-4.2087522 6.0392921,-4.2087532 C 6.0457401,-4.2087522 6.0528681,-4.2078222 6.0606751,-4.2059662 C 6.0684811,-4.2047262 6.0771361,-4.2025592 6.0866401,-4.1994642 L 6.0871491,-4.0239012 M 6.3849841,-4.0638442 C 6.3347511,-4.0638432 6.2950401,-4.0279262 6.2658501,-3.9560922 C 6.2366611,-3.8848752 6.2220661,-3.7870312 6.2220661,-3.6625592 C 6.2220661,-3.5380862 6.2364911,-3.4399322 6.2653411,-3.3680972 C 6.2945301,-3.2968812 6.3344111,-3.2612732 6.3849841,-3.2612732 C 6.4348791,-3.2612732 6.4744201,-3.2971912 6.5036101,-3.3690262 C 6.5327991,-3.4408612 6.5473941,-3.5387052 6.5473941,-3.6625592 C 6.5473941,-3.7857922 6.5327991,-3.8833272 6.5036101,-3.9551632 C 6.4744201,-4.0276162 6.4348791,-4.0638432 6.3849841,-4.0638442 M 6.3849841,-4.2087532 C 6.4664441,-4.2087522 6.5304231,-4.1604492 6.5769231,-4.0638442 C 6.6234221,-3.9672382 6.6466721,-3.8334762 6.6466731,-3.6625592 C 6.6466721,-3.4922602 6.6234221,-3.3584982 6.5769231,-3.2612732 C 6.5304231,-3.1646682 6.4664441,-3.1163652 6.3849841,-3.1163652 C 6.3031851,-3.1163652 6.2390361,-3.1646682 6.1925371,-3.2612732 C 6.1463771,-3.3584982 6.1232971,-3.4922602 6.1232971,-3.6625592 C 6.1232971,-3.8334762 6.1463771,-3.9672382 6.1925371,-4.0638442 C 6.2390361,-4.1604492 6.3031851,-4.2087522 6.3849841,-4.2087532 M 7.0224031,-4.0638442 C 6.9721701,-4.0638432 6.9324581,-4.0279262 6.9032691,-3.9560922 C 6.8740791,-3.8848752 6.8594851,-3.7870312 6.8594851,-3.6625592 C 6.8594851,-3.5380862 6.8739101,-3.4399322 6.9027601,-3.3680972 C 6.9319491,-3.2968812 6.9718301,-3.2612732 7.0224031,-3.2612732 C 7.0722961,-3.2612732 7.1118381,-3.2971912 7.1410281,-3.3690262 C 7.1702171,-3.4408612 7.1848121,-3.5387052 7.1848121,-3.6625592 C 7.1848121,-3.7857922 7.1702171,-3.8833272 7.1410281,-3.9551632 C 7.1118381,-4.0276162 7.0722961,-4.0638432 7.0224031,-4.0638442 M 7.0224031,-4.2087532 C 7.1038621,-4.2087522 7.1678411,-4.1604492 7.2143411,-4.0638442 C 7.2608401,-3.9672382 7.2840901,-3.8334762 7.2840901,-3.6625592 C 7.2840901,-3.4922602 7.2608401,-3.3584982 7.2143411,-3.2612732 C 7.1678411,-3.1646682 7.1038621,-3.1163652 7.0224031,-3.1163652 C 6.9406041,-3.1163652 6.8764551,-3.1646682 6.8299561,-3.2612732 C 6.7837951,-3.3584982 6.7607161,-3.4922602 6.7607161,-3.6625592 C 6.7607161,-3.8334762 6.7837951,-3.9672382 6.8299561,-4.0638442 C 6.8764551,-4.1604492 6.9406041,-4.2087522 7.0224031,-4.2087532 M 7.5315231,-4.4790632 L 7.5315231,-4.1836722 L 7.7244781,-4.1836722 L 7.7244781,-4.0508402 L 7.5315231,-4.0508402 L 7.5315231,-3.4860682 C 7.5315221,-3.4012282 7.5378011,-3.3467322 7.5503591,-3.3225812 C 7.5632571,-3.2984292 7.5892221,-3.2863532 7.6282551,-3.2863542 L 7.7244781,-3.2863542 L 7.7244781,-3.1433032 L 7.6282551,-3.1433032 C 7.5559591,-3.1433032 7.5060671,-3.1677642 7.4785741,-3.2166862 C 7.4510821,-3.2662282 7.4373361,-3.3560212 7.4373361,-3.4860682 L 7.4373361,-4.0508402 L 7.3686041,-4.0508402 L 7.3686041,-4.1836722 L 7.4373361,-4.1836722 L 7.4373361,-4.4790632 L 7.5315231,-4.4790632 M 7.9551091,-4.3759552 L 7.9551091,-3.8548412 L 8.0844261,-3.8548412 C 8.1322831,-3.8548412 8.1692791,-3.8774442 8.1954141,-3.9226512 C 8.2215481,-3.9678572 8.2346161,-4.0322602 8.2346161,-4.1158622 C 8.2346161,-4.1988432 8.2215481,-4.2629372 8.1954141,-4.3081452 C 8.1692791,-4.3533502 8.1322831,-4.3759542 8.0844261,-4.3759552 L 7.9551091,-4.3759552 M 7.8522671,-4.5301522 L 8.0844261,-4.5301522 C 8.1696181,-4.5301512 8.2339371,-4.4948522 8.2773821,-4.4242582 C 8.3211661,-4.3542792 8.3430581,-4.2514812 8.3430581,-4.1158622 C 8.3430581,-3.9790032 8.3211661,-3.8755862 8.2773821,-3.8056102 C 8.2339371,-3.7356322 8.1696181,-3.7006432 8.0844261,-3.7006432 L 7.9551091,-3.7006432 L 7.9551091,-3.1433032 L 7.8522671,-3.1433032 L 7.8522671,-4.5301522 M 8.6897691,-3.6662742 C 8.6140801,-3.6662742 8.5616401,-3.6504832 8.5324511,-3.6189002 C 8.5032611,-3.5873172 8.4886671,-3.5334412 8.4886671,-3.4572722 C 8.4886671,-3.3965832 8.4995281,-3.3482812 8.5212501,-3.3123632 C 8.5433121,-3.2770652 8.5731801,-3.2594162 8.6108561,-3.2594162 C 8.6627861,-3.2594162 8.7043641,-3.2928562 8.7355901,-3.3597372 C 8.7671551,-3.4272372 8.7829381,-3.5167212 8.7829381,-3.6281902 L 8.7829381,-3.6662742 L 8.6897691,-3.6662742 M 8.8766161,-3.7368712 L 8.8766161,-3.1433032 L 8.7829381,-3.1433032 L 8.7829381,-3.3012162 C 8.7615551,-3.2380512 8.7349111,-3.1912962 8.7030061,-3.1609522 C 8.6711011,-3.1312272 8.6320691,-3.1163652 8.5859091,-3.1163652 C 8.5275291,-3.1163652 8.4810301,-3.1460902 8.4464101,-3.2055402 C 8.4121291,-3.2656082 8.3949891,-3.3458032 8.3949891,-3.4461252 C 8.3949891,-3.5631662 8.4163721,-3.6514122 8.4591381,-3.7108622 C 8.5022431,-3.7703102 8.5663921,-3.8000352 8.6515851,-3.8000362 L 8.7829381,-3.8000362 L 8.7829381,-3.8167562 C 8.7829381,-3.8954022 8.7686821,-3.9560912 8.7401721,-3.9988212 C 8.7120001,-4.0421682 8.6722891,-4.0638432 8.6210381,-4.0638442 C 8.5884541,-4.0638432 8.5567191,-4.0567212 8.5258321,-4.0424792 C 8.4949461,-4.0282352 8.4652471,-4.0068712 8.4367361,-3.9783852 L 8.4367361,-4.1362982 C 8.4710171,-4.1604492 8.5042801,-4.1784082 8.5365241,-4.1901742 C 8.5687681,-4.2025592 8.6001641,-4.2087522 8.6307111,-4.2087532 C 8.7131881,-4.2087522 8.7747921,-4.1697372 8.8155221,-4.0917112 C 8.8562511,-4.0136832 8.8766151,-3.8954022 8.8766161,-3.7368712 M 9.0700821,-4.5886732 L 9.1637601,-4.5886732 L 9.1637601,-3.1433032 L 9.0700821,-3.1433032 L 9.0700821,-4.5886732 M 9.7173101,-3.6686217 C 9.7173091,-3.5800657 9.7293591,-3.5103987 9.7534571,-3.4596187 C 9.7775551,-3.4094577 9.8106481,-3.3843777 9.8527351,-3.3843777 C 9.8944841,-3.3843777 9.9272371,-3.4097677 9.9509961,-3.4605477 C 9.9750941,-3.5113277 9.9871441,-3.5806857 9.9871441,-3.6686217 C 9.9871441,-3.7553187 9.9749251,-3.8240567 9.9504871,-3.8748377 C 9.9260491,-3.9262367 9.8931261,-3.9519357 9.8517171,-3.9519367 C 9.8106481,-3.9519357 9.7778941,-3.9265457 9.7534571,-3.8757667 C 9.7293591,-3.8249857 9.7173091,-3.7559377 9.7173101,-3.6686217 M 9.9947811,-3.3908797 C 9.9744161,-3.3431967 9.9509961,-3.3078987 9.9245221,-3.2849857 C 9.8983871,-3.2626917 9.8678391,-3.2515447 9.8328801,-3.2515447 C 9.7745001,-3.2515447 9.7269831,-3.2899397 9.6903261,-3.3667287 C 9.6540091,-3.4441367 9.6358501,-3.5447677 9.6358501,-3.6686217 C 9.6358501,-3.7924747 9.6541781,-3.8931047 9.6908361,-3.9705147 C 9.7274921,-4.0479217 9.7748401,-4.0866257 9.8328801,-4.0866267 C 9.8678391,-4.0866257 9.8985571,-4.0748597 9.9250311,-4.0513287 C 9.9515051,-4.0284147 9.9747551,-3.9934267 9.9947811,-3.9463627 L 9.9947811,-4.0680487 L 10.067585,-4.0680487 L 10.067585,-3.3843777 C 10.117139,-3.3980017 10.155832,-3.4391827 10.183664,-3.5079217 C 10.211835,-3.5772787 10.22592,-3.6667627 10.225921,-3.7763737 C 10.22592,-3.8426357 10.22049,-3.9048717 10.209629,-3.9630827 C 10.199107,-4.0212937 10.182985,-4.0751697 10.161263,-4.1247117 C 10.125963,-4.2058347 10.082858,-4.2677617 10.031947,-4.3104917 C 9.9813731,-4.3538397 9.9262191,-4.3755137 9.8664821,-4.3755157 C 9.8247341,-4.3755137 9.7846831,-4.3652967 9.7463291,-4.3448617 C 9.7079751,-4.3250437 9.6725071,-4.2953187 9.6399231,-4.2556877 C 9.5866351,-4.1925207 9.5448881,-4.1095387 9.5146801,-4.0067417 C 9.4848111,-3.9045617 9.4698771,-3.7937127 9.4698771,-3.6741947 C 9.4698771,-3.5757307 9.4795511,-3.4834607 9.4988971,-3.3973827 C 9.5185831,-3.3113037 9.5469241,-3.2354437 9.5839201,-3.1698017 C 9.6195581,-3.1053977 9.6607971,-3.0564757 9.7076361,-3.0230357 C 9.7544751,-2.9889757 9.8045381,-2.9719457 9.8578271,-2.9719457 C 9.9016111,-2.9719457 9.9445471,-2.9855697 9.9866351,-3.0128177 C 10.029061,-3.0394457 10.067924,-3.0778407 10.103223,-3.1280017 L 10.149044,-3.0248937 C 10.106617,-2.9648247 10.060287,-2.9189987 10.010055,-2.8874157 C 9.9601601,-2.8552147 9.9094181,-2.8391137 9.8578271,-2.8391127 C 9.7950351,-2.8391137 9.7358071,-2.8595487 9.6801441,-2.9004207 C 9.6244801,-2.9406727 9.5749261,-2.9995037 9.5314811,-3.0769117 C 9.4880361,-3.1543197 9.4549431,-3.2438037 9.4322031,-3.3453637 C 9.4094621,-3.4475427 9.3980911,-3.5571537 9.3980921,-3.6741947 C 9.3980911,-3.7869007 9.4096321,-3.8943437 9.4327121,-3.9965237 C 9.4557921,-4.0987017 9.4887151,-4.1884957 9.5314811,-4.2659047 C 9.5752651,-4.3445507 9.6258371,-4.4046197 9.6831991,-4.4461117 C 9.7405591,-4.4882207 9.8013141,-4.5092757 9.8654631,-4.5092767 C 9.9374201,-4.5092757 10.004114,-4.4823377 10.065549,-4.4284627 C 10.127321,-4.3745847 10.179081,-4.2981057 10.22083,-4.1990237 C 10.246285,-4.1383347 10.265632,-4.0723827 10.27887,-4.0011677 C 10.292445,-3.9299517 10.299233,-3.8562587 10.299235,-3.7800897 C 10.299233,-3.6172217 10.27225,-3.4887247 10.218284,-3.3945957 C 10.164317,-3.3004667 10.089816,-3.2515447 9.9947811,-3.2478297 L 9.9947811,-3.3908797 M 10.84552,-3.7020617 C 10.845519,-3.8259147 10.831434,-3.9219007 10.803263,-3.9900217 C 10.775431,-4.0581397 10.736229,-4.0921997 10.685656,-4.0922007 C 10.635423,-4.0921997 10.596221,-4.0581397 10.56805,-3.9900217 C 10.540218,-3.9219007 10.526302,-3.8259147 10.526302,-3.7020617 C 10.526302,-3.5788277 10.540218,-3.4831507 10.56805,-3.4150317 C 10.596221,-3.3469117 10.635423,-3.3128517 10.685656,-3.3128527 C 10.736229,-3.3128517 10.775431,-3.3469117 10.803263,-3.4150317 C 10.831434,-3.4831507 10.845519,-3.5788277 10.84552,-3.7020617 M 10.939198,-3.2989187 C 10.939197,-3.1218087 10.917645,-2.9902147 10.87454,-2.9041367 C 10.831434,-2.8174387 10.765418,-2.7740907 10.676492,-2.7740897 C 10.643569,-2.7740907 10.612513,-2.7787347 10.583323,-2.7880237 C 10.554134,-2.7966937 10.525793,-2.8103177 10.4983,-2.8288957 L 10.4983,-2.9951687 C 10.525793,-2.9679207 10.552946,-2.9477947 10.57976,-2.9347897 C 10.606573,-2.9217857 10.633896,-2.9152837 10.661728,-2.9152827 C 10.723161,-2.9152837 10.769152,-2.9446987 10.799699,-3.0035287 C 10.830246,-3.0617397 10.845519,-3.1499857 10.84552,-3.2682657 L 10.84552,-3.3527957 C 10.826173,-3.2914877 10.801396,-3.2456617 10.771189,-3.2153177 C 10.74098,-3.1849737 10.704833,-3.1698017 10.662746,-3.1698017 C 10.592827,-3.1698017 10.536484,-3.2184147 10.493718,-3.3156387 C 10.450952,-3.4128637 10.429569,-3.5416717 10.429569,-3.7020617 C 10.429569,-3.8630707 10.450952,-3.9921877 10.493718,-4.0894137 C 10.536484,-4.1866377 10.592827,-4.2352507 10.662746,-4.2352517 C 10.704833,-4.2352507 10.74098,-4.2200787 10.771189,-4.1897347 C 10.801396,-4.1593897 10.826173,-4.1135637 10.84552,-4.0522577 L 10.84552,-4.2101707 L 10.939198,-4.2101707 L 10.939198,-3.2989187 M 11.576107,-4.0104577 C 11.599526,-4.0872457 11.627527,-4.1439077 11.660111,-4.1804457 C 11.692695,-4.2169817 11.731048,-4.2352507 11.775172,-4.2352517 C 11.834569,-4.2352507 11.88039,-4.1971647 11.912635,-4.1209957 C 11.944878,-4.0454447 11.961,-3.9376927 11.961001,-3.7977387 L 11.961001,-3.1698017 L 11.866814,-3.1698017 L 11.866814,-3.7921657 C 11.866813,-3.8918667 11.85714,-3.9658687 11.837794,-4.0141727 C 11.818447,-4.0624747 11.788918,-4.0866257 11.749207,-4.0866267 C 11.700671,-4.0866257 11.662317,-4.0572107 11.634146,-3.9983817 C 11.605975,-3.9395497 11.591889,-3.8593557 11.591889,-3.7577967 L 11.591889,-3.1698017 L 11.497702,-3.1698017 L 11.497702,-3.7921657 C 11.497702,-3.8924857 11.488029,-3.9664887 11.468682,-4.0141727 C 11.449336,-4.0624747 11.419467,-4.0866257 11.379077,-4.0866267 C 11.33122,-4.0866257 11.293206,-4.0569017 11.265035,-3.9974527 C 11.236863,-3.9386217 11.222777,-3.8587357 11.222778,-3.7577967 L 11.222778,-3.1698017 L 11.128591,-3.1698017 L 11.128591,-4.2101707 L 11.222778,-4.2101707 L 11.222778,-4.0485427 C 11.24416,-4.1123257 11.269786,-4.1593897 11.299655,-4.1897347 C 11.329523,-4.2200787 11.364991,-4.2352507 11.406061,-4.2352517 C 11.447469,-4.2352507 11.482598,-4.2160527 11.511449,-4.1776597 C 11.540638,-4.1392637 11.56219,-4.0835297 11.576107,-4.0104577 M 12.407499,-3.6927727 C 12.33181,-3.6927727 12.27937,-3.6769817 12.250181,-3.6453987 C 12.220992,-3.6138157 12.206397,-3.5599397 12.206397,-3.4837707 C 12.206397,-3.4230817 12.217258,-3.3747797 12.238981,-3.3388617 C 12.261042,-3.3035637 12.290911,-3.2859147 12.328586,-3.2859147 C 12.380516,-3.2859147 12.422094,-3.3193547 12.45332,-3.3862357 C 12.484885,-3.4537357 12.500668,-3.5432197 12.500668,-3.6546887 L 12.500668,-3.6927727 L 12.407499,-3.6927727 M 12.594346,-3.7633697 L 12.594346,-3.1698017 L 12.500668,-3.1698017 L 12.500668,-3.3277147 C 12.479285,-3.2645497 12.452641,-3.2177947 12.420736,-3.1874507 C 12.388831,-3.1577257 12.349799,-3.1428637 12.303639,-3.1428637 C 12.24526,-3.1428637 12.19876,-3.1725887 12.16414,-3.2320387 C 12.129859,-3.2921067 12.112719,-3.3723017 12.112719,-3.4726237 C 12.112719,-3.5896647 12.134102,-3.6779107 12.176868,-3.7373607 C 12.219973,-3.7968087 12.284122,-3.8265337 12.369315,-3.8265347 L 12.500668,-3.8265347 L 12.500668,-3.8432547 C 12.500668,-3.9219007 12.486412,-3.9825897 12.457902,-4.0253197 C 12.429731,-4.0686667 12.390019,-4.0903417 12.338768,-4.0903427 C 12.306184,-4.0903417 12.274449,-4.0832197 12.243563,-4.0689777 C 12.212676,-4.0547337 12.182977,-4.0333697 12.154467,-4.0048837 L 12.154467,-4.1627967 C 12.188747,-4.1869477 12.22201,-4.2049067 12.254254,-4.2166727 C 12.286498,-4.2290577 12.317894,-4.2352507 12.348441,-4.2352517 C 12.430918,-4.2352507 12.492522,-4.1962357 12.533252,-4.1182097 C 12.573981,-4.0401817 12.594346,-3.9219007 12.594346,-3.7633697 M 12.787812,-4.2101707 L 12.88149,-4.2101707 L 12.88149,-3.1698017 L 12.787812,-3.1698017 L 12.787812,-4.2101707 M 12.787812,-4.6151717 L 12.88149,-4.6151717 L 12.88149,-4.3987377 L 12.787812,-4.3987377 L 12.787812,-4.6151717 M 13.076992,-4.6151717 L 13.17067,-4.6151717 L 13.17067,-3.1698017 L 13.076992,-3.1698017 L 13.076992,-4.6151717 M 13.379409,-3.4057427 L 13.486833,-3.4057427 L 13.486833,-3.1698017 L 13.379409,-3.1698017 L 13.379409,-3.4057427 M 14.108468,-4.1702277 L 14.108468,-4.0104577 C 14.081994,-4.0370847 14.05535,-4.0569017 14.028537,-4.0699067 C 14.002062,-4.0835297 13.975248,-4.0903417 13.948096,-4.0903427 C 13.88734,-4.0903417 13.840162,-4.0550437 13.80656,-3.9844477 C 13.772958,-3.9144697 13.756157,-3.8160067 13.756157,-3.6890577 C 13.756157,-3.5621067 13.772958,-3.4633337 13.80656,-3.3927377 C 13.840162,-3.3227607 13.88734,-3.2877717 13.948096,-3.2877717 C 13.975248,-3.2877717 14.002062,-3.2942747 14.028537,-3.3072787 C 14.05535,-3.3209027 14.081994,-3.3410287 14.108468,-3.3676577 L 14.108468,-3.2097447 C 14.082333,-3.1874507 14.05518,-3.1707307 14.027009,-3.1595837 C 13.999177,-3.1484377 13.969478,-3.1428637 13.937913,-3.1428637 C 13.852041,-3.1428637 13.783819,-3.1920947 13.733247,-3.2905587 C 13.682674,-3.3890217 13.657388,-3.5218547 13.657388,-3.6890577 C 13.657388,-3.8587357 13.682844,-3.9921877 13.733756,-4.0894137 C 13.785007,-4.1866377 13.855096,-4.2352507 13.944023,-4.2352517 C 13.972872,-4.2352507 14.001043,-4.2296767 14.028537,-4.2185307 C 14.056029,-4.2080027 14.082672,-4.1919017 14.108468,-4.1702277 M 14.493363,-4.0903427 C 14.443129,-4.0903417 14.403418,-4.0544247 14.374229,-3.9825907 C 14.345039,-3.9113737 14.330444,-3.8135297 14.330445,-3.6890577 C 14.330444,-3.5645847 14.344869,-3.4664307 14.37372,-3.3945957 C 14.402909,-3.3233797 14.44279,-3.2877717 14.493363,-3.2877717 C 14.543256,-3.2877717 14.582798,-3.3236897 14.611988,-3.3955247 C 14.641177,-3.4673597 14.655772,-3.5652037 14.655772,-3.6890577 C 14.655772,-3.8122907 14.641177,-3.9098257 14.611988,-3.9816617 C 14.582798,-4.0541147 14.543256,-4.0903417 14.493363,-4.0903427 M 14.493363,-4.2352517 C 14.574821,-4.2352507 14.638801,-4.1869477 14.685301,-4.0903427 C 14.7318,-3.9937367 14.75505,-3.8599747 14.75505,-3.6890577 C 14.75505,-3.5187587 14.7318,-3.3849967 14.685301,-3.2877717 C 14.638801,-3.1911667 14.574821,-3.1428637 14.493363,-3.1428637 C 14.411564,-3.1428637 14.347415,-3.1911667 14.300915,-3.2877717 C 14.254755,-3.3849967 14.231675,-3.5187587 14.231675,-3.6890577 C 14.231675,-3.8599747 14.254755,-3.9937367 14.300915,-4.0903427 C 14.347415,-4.1869477 14.411564,-4.2352507 14.493363,-4.2352517 M 15.353775,-4.0104577 C 15.377194,-4.0872457 15.405195,-4.1439077 15.43778,-4.1804457 C 15.470363,-4.2169817 15.508716,-4.2352507 15.552841,-4.2352517 C 15.612237,-4.2352507 15.658058,-4.1971647 15.690303,-4.1209957 C 15.722547,-4.0454447 15.738669,-3.9376927 15.738669,-3.7977387 L 15.738669,-3.1698017 L 15.644482,-3.1698017 L 15.644482,-3.7921657 C 15.644482,-3.8918667 15.634808,-3.9658687 15.615463,-4.0141727 C 15.596115,-4.0624747 15.566586,-4.0866257 15.526876,-4.0866267 C 15.478339,-4.0866257 15.439985,-4.0572107 15.411815,-3.9983817 C 15.383643,-3.9395497 15.369557,-3.8593557 15.369558,-3.7577967 L 15.369558,-3.1698017 L 15.275371,-3.1698017 L 15.275371,-3.7921657 C 15.27537,-3.8924857 15.265697,-3.9664887 15.246351,-4.0141727 C 15.227004,-4.0624747 15.197136,-4.0866257 15.156746,-4.0866267 C 15.108888,-4.0866257 15.070874,-4.0569017 15.042703,-3.9974527 C 15.014531,-3.9386217 15.000446,-3.8587357 15.000446,-3.7577967 L 15.000446,-3.1698017 L 14.906259,-3.1698017 L 14.906259,-4.2101707 L 15.000446,-4.2101707 L 15.000446,-4.0485427 C 15.021829,-4.1123257 15.047455,-4.1593897 15.077323,-4.1897347 C 15.107191,-4.2200787 15.14266,-4.2352507 15.183729,-4.2352517 C 15.225137,-4.2352507 15.260266,-4.2160527 15.289117,-4.1776597 C 15.318306,-4.1392637 15.339859,-4.0835297 15.353775,-4.0104577"
           sodipodi:nodetypes="csssccccccssscccsssssssccsssssssccsssssssccssssssscccccccsccccsccccccccccsssccccsssccccccssssscccccccssssscccsssccssscccccccsssssssccsssssssccccsssssssssssssssccssssssssssssssscccsssssssccsssccsssccssssssscccccsssccccsssccccsssccccccsssccssssscccccccssssscccsssccssscccccccccccccccccccccccsssssssccsssssssccsssssssccsssssssccsssccccsssccccsssccccccsssc"
           stroke-opacity="1"
           fill="#d40000"
           font-family="Bitstream Vera Sans"
           stroke="none"
           font-style="normal"
           stroke-linejoin="miter"
           fill-opacity="1"
           font-weight="normal"
           stroke-linecap="butt"
           stroke-width="1"
           font-size="4" />
      </g>
    </g>
  </g>
</svg>
