<?xml version="1.0" encoding="UTF-8" standalone="no"?>
<!-- Created with Inkscape (http://www.inkscape.org/) -->

<svg
   xmlns:dc="http://purl.org/dc/elements/1.1/"
   xmlns:cc="http://creativecommons.org/ns#"
   xmlns:rdf="http://www.w3.org/1999/02/22-rdf-syntax-ns#"
   xmlns:svg="http://www.w3.org/2000/svg"
   xmlns="http://www.w3.org/2000/svg"
   xmlns:xlink="http://www.w3.org/1999/xlink"
   xmlns:sodipodi="http://sodipodi.sourceforge.net/DTD/sodipodi-0.dtd"
   xmlns:inkscape="http://www.inkscape.org/namespaces/inkscape"
   width="256"
   height="256"
   id="svg2"
   sodipodi:version="0.32"
   inkscape:version="0.92.5 (2060ec1f9f, 2020-04-08)"
   sodipodi:docname="mx-boot-options.svg"
   inkscape:output_extension="org.inkscape.output.svg.inkscape"
   version="1.1">
  <defs
     id="defs4">
    <linearGradient
       inkscape:collect="always"
       id="linearGradient970">
      <stop
         style="stop-color:#ffffff;stop-opacity:0"
         offset="0"
         id="stop966" />
      <stop
         style="stop-color:#ffffff;stop-opacity:0.18264841"
         offset="1"
         id="stop968" />
    </linearGradient>
    <linearGradient
       id="linearGradient964"
       inkscape:collect="always">
      <stop
         id="stop960"
         offset="0"
         style="stop-color:#ffffff;stop-opacity:0" />
      <stop
         id="stop962"
         offset="1"
         style="stop-color:#ffffff;stop-opacity:0.15068494" />
    </linearGradient>
    <linearGradient
       id="linearGradient971">
      <stop
         style="stop-color:#ffffff;stop-opacity:1"
         id="stop965"
         stop-color="#bdbdbd"
         stop-opacity="1" />
      <stop
         offset="0.5368889"
         stop-opacity="1"
         stop-color="#bdbdbd"
         id="stop967"
         style="stop-color:#ffffff;stop-opacity:1" />
      <stop
         style="stop-color:#ffffff;stop-opacity:0"
         offset="1"
         id="stop969"
         stop-color="#ffffff"
         stop-opacity="1" />
    </linearGradient>
    <linearGradient
       id="linearGradient963">
      <stop
         stop-opacity="1"
         stop-color="#8d8d8d"
         id="stop959"
         style="stop-color:#7f7f7f;stop-opacity:1" />
      <stop
         stop-opacity="1"
         stop-color="#ffffff"
         id="stop961"
         offset="1"
         style="stop-color:#e4e4e4;stop-opacity:1" />
    </linearGradient>
    <linearGradient
       id="linearGradient957">
      <stop
         stop-opacity="1"
         stop-color="#727272"
         id="stop953"
         style="stop-color:#474747;stop-opacity:1" />
      <stop
         stop-opacity="1"
         stop-color="#bbbbbb"
         id="stop955"
         offset="1" />
    </linearGradient>
    <linearGradient
       id="linearGradient1021">
      <stop
         stop-opacity="1"
         stop-color="#bdbdbd"
         id="stop1017"
         style="stop-color:#ffffff;stop-opacity:1" />
      <stop
         style="stop-color:#ffffff;stop-opacity:1"
         id="stop1023"
         stop-color="#bdbdbd"
         stop-opacity="1"
         offset="0.5368889" />
      <stop
         stop-opacity="1"
         stop-color="#ffffff"
         id="stop1019"
         offset="1"
         style="stop-color:#ffffff;stop-opacity:0" />
    </linearGradient>
    <linearGradient
       id="linearGradient4360">
      <stop
         stop-opacity="1"
         stop-color="#ffffff"
         id="stop4362" />
      <stop
         stop-opacity="1"
         stop-color="#666666"
         offset="1"
         id="stop4364"
         style="stop-color:#7c7c7c;stop-opacity:1" />
    </linearGradient>
    <linearGradient
       id="linearGradient4486">
      <stop
         stop-opacity="1"
         stop-color="#606060"
         id="stop4488" />
      <stop
         stop-opacity="1"
         stop-color="#ffffff"
         offset="1"
         id="stop4490" />
    </linearGradient>
    <linearGradient
       id="linearGradient4480">
      <stop
         stop-opacity="1"
         stop-color="#ffffff"
         id="stop4482" />
      <stop
         stop-opacity="1"
         stop-color="#727272"
         offset="1"
         id="stop4484" />
    </linearGradient>
    <linearGradient
       id="linearGradient2897">
      <stop
         id="stop2899"
         stop-color="#727272"
         stop-opacity="1" />
      <stop
         offset="1"
         id="stop2901"
         stop-color="#bbbbbb"
         stop-opacity="1" />
    </linearGradient>
    <linearGradient
       id="linearGradient2889">
      <stop
         id="stop2891"
         stop-color="#bdbdbd"
         stop-opacity="1" />
      <stop
         offset="1"
         id="stop2893"
         stop-color="#ffffff"
         stop-opacity="1" />
    </linearGradient>
    <linearGradient
       id="linearGradient2881">
      <stop
         id="stop2883"
         stop-color="#8d8d8d"
         stop-opacity="1" />
      <stop
         offset="1"
         id="stop2885"
         stop-color="#ffffff"
         stop-opacity="1" />
    </linearGradient>
    <linearGradient
       id="linearGradient2875">
      <stop
         id="stop2877"
         stop-color="#ffffff"
         stop-opacity="1" />
      <stop
         id="stop2879"
         offset="1"
         stop-color="#666666"
         stop-opacity="1" />
    </linearGradient>
    <radialGradient
       inkscape:collect="always"
       xlink:href="#linearGradient4480"
       id="radialGradient5059"
       gradientUnits="userSpaceOnUse"
       gradientTransform="matrix(-1.946549,0.04951798,-0.01568226,-0.616469,288.3056,127.9361)"
       cx="36.17"
       cy="104.85"
       fx="36.17"
       fy="104.85"
       r="21.17" />
    <radialGradient
       inkscape:collect="always"
       xlink:href="#linearGradient4480"
       id="radialGradient5168"
       gradientUnits="userSpaceOnUse"
       gradientTransform="matrix(-0.545008,0.199005,-0.03727705,-0.10209,299.1191,18.71091)"
       cx="176.85"
       cy="33.17"
       fx="176.85"
       fy="33.17"
       r="86.71" />
    <radialGradient
       inkscape:collect="always"
       xlink:href="#linearGradient4486"
       id="radialGradient5170"
       gradientUnits="userSpaceOnUse"
       gradientTransform="matrix(0.516087,-0.141291,0.03948666,0.144231,112.2412,58.38216)"
       cx="91.7"
       cy="214.07"
       fx="91.7"
       fy="214.07"
       r="86.71" />
    <radialGradient
       inkscape:collect="always"
       xlink:href="#linearGradient4480"
       id="radialGradient4234"
       gradientUnits="userSpaceOnUse"
       gradientTransform="matrix(-0.545008,0.199005,-0.03727705,-0.10209,299.1191,18.71091)"
       cx="176.85"
       cy="33.17"
       fx="176.85"
       fy="33.17"
       r="86.71" />
    <radialGradient
       inkscape:collect="always"
       xlink:href="#linearGradient4486"
       id="radialGradient4236"
       gradientUnits="userSpaceOnUse"
       gradientTransform="matrix(0.516087,-0.141291,0.03948666,0.144231,112.2412,58.38216)"
       cx="91.7"
       cy="214.07"
       fx="91.7"
       fy="214.07"
       r="86.71" />
    <radialGradient
       inkscape:collect="always"
       xlink:href="#linearGradient4480"
       id="radialGradient4238"
       gradientUnits="userSpaceOnUse"
       gradientTransform="matrix(-0.545008,0.199005,-0.03727705,-0.10209,299.1191,18.71091)"
       cx="176.85"
       cy="33.17"
       fx="176.85"
       fy="33.17"
       r="86.71" />
    <radialGradient
       inkscape:collect="always"
       xlink:href="#linearGradient4486"
       id="radialGradient4240"
       gradientUnits="userSpaceOnUse"
       gradientTransform="matrix(0.516087,-0.141291,0.03948666,0.144231,112.2412,58.38216)"
       cx="91.7"
       cy="214.07"
       fx="91.7"
       fy="214.07"
       r="86.71" />
    <radialGradient
       inkscape:collect="always"
       xlink:href="#linearGradient4480"
       id="radialGradient4242"
       gradientUnits="userSpaceOnUse"
       gradientTransform="matrix(-0.545008,0.199005,-0.03727705,-0.10209,299.1191,18.71091)"
       cx="176.85"
       cy="33.17"
       fx="176.85"
       fy="33.17"
       r="86.71" />
    <radialGradient
       inkscape:collect="always"
       xlink:href="#linearGradient4486"
       id="radialGradient4244"
       gradientUnits="userSpaceOnUse"
       gradientTransform="matrix(0.516087,-0.141291,0.03948666,0.144231,112.2412,58.38216)"
       cx="91.7"
       cy="214.07"
       fx="91.7"
       fy="214.07"
       r="86.71" />
    <radialGradient
       inkscape:collect="always"
       xlink:href="#linearGradient4480"
       id="radialGradient4246"
       gradientUnits="userSpaceOnUse"
       gradientTransform="matrix(-0.545008,0.199005,-0.03727705,-0.10209,299.1191,18.71091)"
       cx="176.85"
       cy="33.17"
       fx="176.85"
       fy="33.17"
       r="86.71" />
    <radialGradient
       inkscape:collect="always"
       xlink:href="#linearGradient4486"
       id="radialGradient4248"
       gradientUnits="userSpaceOnUse"
       gradientTransform="matrix(0.516087,-0.141291,0.03948666,0.144231,112.2412,58.38216)"
       cx="91.7"
       cy="214.07"
       fx="91.7"
       fy="214.07"
       r="86.71" />
    <radialGradient
       inkscape:collect="always"
       xlink:href="#linearGradient4480"
       id="radialGradient4250"
       gradientUnits="userSpaceOnUse"
       gradientTransform="matrix(-0.545008,0.199005,-0.03727705,-0.10209,299.1191,18.71091)"
       cx="176.85"
       cy="33.17"
       fx="176.85"
       fy="33.17"
       r="86.71" />
    <radialGradient
       inkscape:collect="always"
       xlink:href="#linearGradient4486"
       id="radialGradient4252"
       gradientUnits="userSpaceOnUse"
       gradientTransform="matrix(0.516087,-0.141291,0.03948666,0.144231,112.2412,58.38216)"
       cx="91.7"
       cy="214.07"
       fx="91.7"
       fy="214.07"
       r="86.71" />
    <radialGradient
       inkscape:collect="always"
       xlink:href="#linearGradient4480"
       id="radialGradient4254"
       gradientUnits="userSpaceOnUse"
       gradientTransform="matrix(-0.545008,0.199005,-0.03727705,-0.10209,299.1191,18.71091)"
       cx="176.85"
       cy="33.17"
       fx="176.85"
       fy="33.17"
       r="86.71" />
    <radialGradient
       inkscape:collect="always"
       xlink:href="#linearGradient4486"
       id="radialGradient4256"
       gradientUnits="userSpaceOnUse"
       gradientTransform="matrix(0.516087,-0.141291,0.03948666,0.144231,112.2412,58.38216)"
       cx="91.7"
       cy="214.07"
       fx="91.7"
       fy="214.07"
       r="86.71" />
    <radialGradient
       inkscape:collect="always"
       xlink:href="#linearGradient4480"
       id="radialGradient4258"
       gradientUnits="userSpaceOnUse"
       gradientTransform="matrix(-0.545008,0.199005,-0.03727705,-0.10209,299.1191,18.71091)"
       cx="176.85"
       cy="33.17"
       fx="176.85"
       fy="33.17"
       r="86.71" />
    <radialGradient
       inkscape:collect="always"
       xlink:href="#linearGradient4486"
       id="radialGradient4260"
       gradientUnits="userSpaceOnUse"
       gradientTransform="matrix(0.516087,-0.141291,0.03948666,0.144231,112.2412,58.38216)"
       cx="91.7"
       cy="214.07"
       fx="91.7"
       fy="214.07"
       r="86.71" />
    <linearGradient
       inkscape:collect="always"
       xlink:href="#linearGradient970"
       id="linearGradient994"
       x1="321.09171"
       y1="133.67928"
       x2="339.74503"
       y2="158.67928"
       gradientUnits="userSpaceOnUse"
       gradientTransform="translate(-446.8413,120.22373)" />
    <linearGradient
       inkscape:collect="always"
       xlink:href="#linearGradient2889"
       id="linearGradient1012"
       gradientUnits="userSpaceOnUse"
       gradientTransform="matrix(1.3480308,0,0,1.3480308,4.3348544,-18.817898)"
       x1="132.66"
       y1="206.46"
       x2="162.18"
       y2="206.46" />
    <linearGradient
       inkscape:collect="always"
       xlink:href="#linearGradient957"
       id="linearGradient1014"
       gradientUnits="userSpaceOnUse"
       gradientTransform="matrix(1.3480308,0,0,1.3480308,4.3348544,-18.817898)"
       x1="61.65"
       y1="206.27"
       x2="91.17"
       y2="206.27" />
    <linearGradient
       inkscape:collect="always"
       xlink:href="#linearGradient963"
       id="linearGradient1016"
       gradientUnits="userSpaceOnUse"
       gradientTransform="matrix(1.3480308,0,0,1.3480308,4.6177263,-18.817181)"
       x1="90.98"
       y1="206.4"
       x2="131.63"
       y2="206.4" />
    <linearGradient
       inkscape:collect="always"
       xlink:href="#linearGradient4360"
       id="linearGradient1018"
       gradientUnits="userSpaceOnUse"
       gradientTransform="matrix(1.3480265,-0.00341636,0.00341636,1.3480265,-189.65144,-17.769408)"
       x1="248.43559"
       y1="205.03197"
       x2="262.74124"
       y2="205.4165"
       spreadMethod="reflect" />
    <linearGradient
       inkscape:collect="always"
       xlink:href="#linearGradient2889"
       id="linearGradient990"
       gradientUnits="userSpaceOnUse"
       gradientTransform="matrix(1.3480308,0,0,1.3480308,4.3348544,-18.817898)"
       x1="132.66"
       y1="206.46"
       x2="162.18"
       y2="206.46" />
    <linearGradient
       inkscape:collect="always"
       xlink:href="#linearGradient957"
       id="linearGradient993"
       gradientUnits="userSpaceOnUse"
       gradientTransform="matrix(1.3480308,0,0,1.3480308,4.3348544,-18.817898)"
       x1="61.65"
       y1="206.27"
       x2="91.17"
       y2="206.27" />
    <linearGradient
       inkscape:collect="always"
       xlink:href="#linearGradient963"
       id="linearGradient995"
       gradientUnits="userSpaceOnUse"
       gradientTransform="matrix(1.3480308,0,0,1.3480308,4.6177263,-18.817181)"
       x1="90.98"
       y1="206.4"
       x2="131.63"
       y2="206.4" />
    <linearGradient
       inkscape:collect="always"
       xlink:href="#linearGradient4360"
       id="linearGradient997"
       gradientUnits="userSpaceOnUse"
       gradientTransform="matrix(1.3480265,-0.00341636,0.00341636,1.3480265,-189.65144,-17.769408)"
       x1="248.43559"
       y1="205.03197"
       x2="262.74124"
       y2="205.4165"
       spreadMethod="reflect" />
    <linearGradient
       inkscape:collect="always"
       xlink:href="#linearGradient964"
       id="linearGradient999"
       gradientUnits="userSpaceOnUse"
       gradientTransform="translate(-446.8413,120.22373)"
       x1="321.09171"
       y1="133.67928"
       x2="339.74503"
       y2="158.67928" />
    <filter
       inkscape:collect="always"
       style="color-interpolation-filters:sRGB"
       id="filter1384"
       x="-0.037077714"
       width="1.0741554"
       y="-0.034983167"
       height="1.0699663">
      <feGaussianBlur
         inkscape:collect="always"
         stdDeviation="3.3299345"
         id="feGaussianBlur1386" />
    </filter>
  </defs>
  <sodipodi:namedview
     id="base"
     pagecolor="#ff0000"
     bordercolor="#666666"
     borderopacity="1.0"
     inkscape:pageopacity="0"
     inkscape:pageshadow="2"
     inkscape:zoom="3.4921875"
     inkscape:cx="128"
     inkscape:cy="128"
     inkscape:document-units="px"
     inkscape:current-layer="layer1"
     width="256"
     height="256"
     inkscape:window-width="1920"
     inkscape:window-height="1056"
     inkscape:window-x="0"
     inkscape:window-y="0"
     showgrid="false"
     inkscape:window-maximized="1"
     inkscape:snap-to-guides="false"
     inkscape:snap-grids="false"
     inkscape:snap-others="false"
     inkscape:snap-nodes="false"
     inkscape:snap-global="false" />
  <metadata
     id="metadata7">
    <rdf:RDF>
      <cc:Work>
        <dc:format>image/svg+xml</dc:format>
        <dc:type
           rdf:resource="http://purl.org/dc/dcmitype/StillImage" />
        <dc:title />
      </cc:Work>
    </rdf:RDF>
  </metadata>
  <g
     inkscape:label="1. réteg"
     id="layer1"
     inkscape:groupmode="layer">
    <path
       style="fill:#000000;fill-opacity:0.70204079;stroke:none;stroke-width:1.13915086;filter:url(#filter1384)"
       d="m 63.708845,19.831209 -6.48828,11.650391 -0.07031,-0.07422 5.70117,-10.238281 -13.85156,1.949219 -0.35938,0.644531 -28.24219,30.988281 -0.79492,21.0625 -0.16992,0.304688 3.41992,16.865234 0.75196,-1.351562 h 0.11328 l -0.0078,0.01367 h 0.18165 l -0.51368,0.923829 12.72852,-0.01367 0.16601,-0.296875 3.38477,16.689446 0.85938,-1.54296 0.03711,0.13476 -0.04102,0.0723 h 0.06055 l 0.04101,0.14843 -0.43164,0.77344 12.72852,-0.0137 0.08984,-0.16211 0.10547,0.004 3.35351,16.55273 0.7754,-1.39258 0.11132,0.002 -0.02929,0.0527 h 0.18359 l -0.51367,0.92383 12.72851,-0.0137 0.26563,-0.47657 h 0.0039 l 3.31445,16.3418 1.54101,-2.76758 0.03711,0.13672 -0.7207,1.29297 h 0.18164 l -0.51367,0.92383 12.72852,-0.0137 0.16601,-0.29883 0.75195,3.70508 -2.9414,3.14453 c -0.42903,0.29323 -0.83471,0.63323 -1.20508,1.02929 l -18.05274,19.30469 c -1.64641,1.76061 -2.23177,4.11566 -1.79296,6.30274 0.16329,2.08047 1.07158,4.10861 2.72656,5.65625 l 19.53906,18.27343 c 3.51511,3.28712 8.97263,3.10496 12.25977,-0.41015 l 21.242185,-22.71485 1.8711,2.23829 2.29687,11.32617 0.69141,-1.24024 0.0605,0.28125 0.0762,0.004 -0.30078,0.54101 6.28125,-0.006 5.98632,7.16797 -1.0625,1.13477 c -0.42763,0.29267 -0.83187,0.63244 -1.20117,1.02734 l -18.05273,19.30274 c -1.64982,1.76424 -2.23499,4.12748 -1.79102,6.31836 0.16665,2.07501 1.07377,4.09881 2.72461,5.64258 l 19.54102,18.27343 c 3.51511,3.28712 8.97067,3.10496 12.25781,-0.41015 l 84,-89.82618 c 3.28712,-3.51511 3.10299,-8.97068 -0.41211,-12.25781 l -19.54102,-18.27344 c -1.25577,-1.17432 -2.76026,-1.89849 -4.32422,-2.19335 -2.42743,-0.71211 -5.13546,-0.10401 -7.04492,1.7871 -0.30882,0.25091 -0.60877,0.5171 -0.88867,0.81641 l -17.41211,18.61914 -1.92773,-13.89648 -21.97657,39.45898 -0.27734,0.29688 21.39648,-38.41797 -13.7539,1.9375 0.0137,-0.0254 -0.0371,-0.26172 0.36914,-0.66211 -1.15625,-8.32813 16.34961,-17.48437 c 3.28713,-3.51511 3.10495,-8.972637 -0.41016,-12.259767 L 162.0526,76.274569 c -1.25842,-1.176797 -2.76648,-1.901667 -4.33399,-2.195313 -2.42199,-0.706711 -5.12084,-0.09803 -7.02734,1.785156 -0.31135,0.252433 -0.61447,0.518739 -0.89648,0.820313 l -17.18359,18.376948 -1.6504,-11.896479 -18.8164,33.781246 -0.27344,0.29297 18.23242,-32.736326 -13.7539,1.9375 0.0137,-0.02539 -0.0371,-0.261719 0.36914,-0.66211 -2.53906,-18.291015 -33.279305,59.75 -0.06641,-0.0801 32.488295,-58.332029 -13.669935,1.923828 0.22657,-0.408204 -2.53907,-18.291015 -31.61328,56.76172 -0.06836,-0.082 30.82422,-55.341789 -13.75195,1.935546 0.01367,-0.02539 -0.03711,-0.263672 0.36719,-0.658203 -2.53906,-18.292969 -30.13868,54.113281 -0.0664,-0.08008 29.34961,-52.695312 -13.75391,1.9375 0.01367,-0.02539 -0.03711,-0.261719 0.36914,-0.662109 z m -19.36914,34.775391 -9.29492,16.689453 -0.06641,-0.08203 9.14063,-16.41211 z m 104.173835,88.01757 -22.08203,39.64454 -0.0664,-0.082 21.86719,-39.26171 z"
       id="path975"
       inkscape:connector-curvature="0"
       transform="matrix(0.98269425,0,0,0.98241839,4.2058519,4.5045594)" />
    <g
       id="g1210"
       transform="translate(199.87472,-25.485458)">
      <g
         transform="matrix(0.8230263,-0.78758644,0.78758644,0.8230263,-377.80886,183.21444)"
         id="g3372">
        <path
           style="fill:url(#radialGradient5059);fill-opacity:1;stroke:none"
           d="m 193.87615,62.81466 37.47602,-2.565114 v 17.891456 l -51.18166,-2.045513 z"
           sodipodi:nodetypes="ccccc"
           id="path3136"
           inkscape:connector-curvature="0" />
      </g>
      <g
         transform="matrix(0.8230263,-0.78758644,0.78758644,0.8230263,-347.3938,178.3066)"
         id="g3080">
        <g
           id="g3041">
          <path
             style="fill:#b2b2d5;fill-opacity:1;stroke:none"
             inkscape:connector-curvature="0"
             d="m 156.61232,60.820984 50.9187,-15.670341 9.96861,7.169797 -68.95477,21.271932 z"
             sodipodi:nodetypes="ccccc"
             id="path2909" />
          <path
             style="fill:#b2b2d5;fill-opacity:1;stroke:none"
             inkscape:connector-curvature="0"
             id="path2812"
             sodipodi:nodetypes="ccccc"
             d="M 157.21122,81.365276 208.59376,65.519612 218.08547,52.377163 149.1307,73.649095 Z" />
          <path
             style="fill:none;stroke:#c5c6e5;stroke-width:1.19299996;stroke-linecap:butt;stroke-linejoin:miter;stroke-miterlimit:4;stroke-dasharray:none;stroke-opacity:1"
             stroke-miterlimit="4"
             inkscape:connector-curvature="0"
             id="path2841"
             d="M 149.49846,73.535645 217.34995,52.604063" />
          <path
             style="fill:url(#radialGradient4234);fill-opacity:1;stroke:none"
             inkscape:connector-curvature="0"
             id="path2927"
             sodipodi:nodetypes="ccccc"
             d="m 156.61232,60.820984 50.9187,-15.670341 9.96861,7.169797 -68.95477,21.271932 z" />
          <path
             style="fill:url(#radialGradient4236);fill-opacity:1;stroke:none"
             inkscape:connector-curvature="0"
             d="m 157.98094,80.980417 51.38254,-15.845664 9.49171,-13.142451 -68.95477,21.271934 z"
             sodipodi:nodetypes="ccccc"
             id="path2923" />
        </g>
        <g
           id="g3048"
           transform="translate(0.967864,20.32514)">
          <path
             style="fill:#b2b2d5;fill-opacity:1;stroke:none"
             inkscape:connector-curvature="0"
             id="path3050"
             sodipodi:nodetypes="ccccc"
             d="m 156.61232,60.820984 50.9187,-15.670341 9.96861,7.169797 -68.95477,21.271932 z" />
          <path
             style="fill:#b2b2d5;fill-opacity:1;stroke:none"
             inkscape:connector-curvature="0"
             d="M 157.21122,81.365276 208.59376,65.519612 218.08547,52.377163 149.1307,73.649095 Z"
             sodipodi:nodetypes="ccccc"
             id="path3052" />
          <path
             style="fill:none;stroke:#c5c6e5;stroke-width:1.19299996;stroke-linecap:butt;stroke-linejoin:miter;stroke-miterlimit:4;stroke-dasharray:none;stroke-opacity:1"
             stroke-miterlimit="4"
             inkscape:connector-curvature="0"
             d="M 149.49846,73.535645 217.34995,52.604063"
             id="path3054" />
          <path
             style="fill:url(#radialGradient4238);fill-opacity:1;stroke:none"
             inkscape:connector-curvature="0"
             d="m 156.61232,60.820984 50.9187,-15.670341 9.96861,7.169797 -68.95477,21.271932 z"
             sodipodi:nodetypes="ccccc"
             id="path3056" />
          <path
             style="fill:url(#radialGradient4240);fill-opacity:1;stroke:none"
             inkscape:connector-curvature="0"
             id="path3058"
             sodipodi:nodetypes="ccccc"
             d="m 157.98094,80.980417 51.38254,-15.845664 9.49171,-13.142451 -68.95477,21.271934 z" />
        </g>
        <g
           transform="translate(1.935728,40.65028)"
           id="g3064">
          <path
             style="fill:#b2b2d5;fill-opacity:1;stroke:none"
             inkscape:connector-curvature="0"
             d="m 156.61232,60.820984 50.9187,-15.670341 9.96861,7.169797 -68.95477,21.271932 z"
             sodipodi:nodetypes="ccccc"
             id="path3066" />
          <path
             style="fill:#b2b2d5;fill-opacity:1;stroke:none"
             inkscape:connector-curvature="0"
             id="path3068"
             sodipodi:nodetypes="ccccc"
             d="M 157.21122,81.365276 208.59376,65.519612 218.08547,52.377163 149.1307,73.649095 Z" />
          <path
             style="fill:none;stroke:#c5c6e5;stroke-width:1.19299996;stroke-linecap:butt;stroke-linejoin:miter;stroke-miterlimit:4;stroke-dasharray:none;stroke-opacity:1"
             stroke-miterlimit="4"
             inkscape:connector-curvature="0"
             id="path3070"
             d="M 149.49846,73.535645 217.34995,52.604063" />
          <path
             style="fill:url(#radialGradient4242);fill-opacity:1;stroke:none"
             inkscape:connector-curvature="0"
             id="path3072"
             sodipodi:nodetypes="ccccc"
             d="m 156.61232,60.820984 50.9187,-15.670341 9.96861,7.169797 -68.95477,21.271932 z" />
          <path
             style="fill:url(#radialGradient4244);fill-opacity:1;stroke:none"
             inkscape:connector-curvature="0"
             d="m 157.98094,80.980417 51.38254,-15.845664 9.49171,-13.142451 -68.95477,21.271934 z"
             sodipodi:nodetypes="ccccc"
             id="path3074" />
        </g>
      </g>
      <g
         id="g4492"
         transform="matrix(0.8230263,-0.78758644,0.78758644,0.8230263,-296.94644,225.67585)">
        <g
           id="g4494">
          <path
             style="fill:#b2b2d5;fill-opacity:1;stroke:none"
             id="path4496"
             sodipodi:nodetypes="ccccc"
             d="m 156.61232,60.820984 50.9187,-15.670341 9.96861,7.169797 -68.95477,21.271932 z"
             inkscape:connector-curvature="0" />
          <path
             style="fill:#b2b2d5;fill-opacity:1;stroke:none"
             d="M 157.21122,81.365276 208.59376,65.519612 218.08547,52.377163 149.1307,73.649095 Z"
             sodipodi:nodetypes="ccccc"
             id="path4498"
             inkscape:connector-curvature="0" />
          <path
             style="fill:none;stroke:#c5c6e5;stroke-width:1.19299996;stroke-linecap:butt;stroke-linejoin:miter;stroke-miterlimit:4;stroke-dasharray:none;stroke-opacity:1"
             d="M 149.49846,73.535645 217.34995,52.604063"
             id="path4500"
             inkscape:connector-curvature="0"
             stroke-miterlimit="4" />
          <path
             style="fill:url(#radialGradient4246);fill-opacity:1;stroke:none"
             d="m 156.61232,60.820984 50.9187,-15.670341 9.96861,7.169797 -68.95477,21.271932 z"
             sodipodi:nodetypes="ccccc"
             id="path4502"
             inkscape:connector-curvature="0" />
          <path
             style="fill:url(#radialGradient4248);fill-opacity:1;stroke:none"
             id="path4504"
             sodipodi:nodetypes="ccccc"
             d="m 157.98094,80.980417 51.38254,-15.845664 9.49171,-13.142451 -68.95477,21.271934 z"
             inkscape:connector-curvature="0" />
        </g>
        <g
           transform="translate(0.967864,20.32514)"
           id="g4506">
          <path
             style="fill:#b2b2d5;fill-opacity:1;stroke:none"
             d="m 156.61232,60.820984 50.9187,-15.670341 9.96861,7.169797 -68.95477,21.271932 z"
             sodipodi:nodetypes="ccccc"
             id="path4508"
             inkscape:connector-curvature="0" />
          <path
             style="fill:#b2b2d5;fill-opacity:1;stroke:none"
             id="path4510"
             sodipodi:nodetypes="ccccc"
             d="M 157.21122,81.365276 208.59376,65.519612 218.08547,52.377163 149.1307,73.649095 Z"
             inkscape:connector-curvature="0" />
          <path
             style="fill:none;stroke:#c5c6e5;stroke-width:1.19299996;stroke-linecap:butt;stroke-linejoin:miter;stroke-miterlimit:4;stroke-dasharray:none;stroke-opacity:1"
             id="path4512"
             d="M 149.49846,73.535645 217.34995,52.604063"
             inkscape:connector-curvature="0"
             stroke-miterlimit="4" />
          <path
             style="fill:url(#radialGradient4250);fill-opacity:1;stroke:none"
             id="path4514"
             sodipodi:nodetypes="ccccc"
             d="m 156.61232,60.820984 50.9187,-15.670341 9.96861,7.169797 -68.95477,21.271932 z"
             inkscape:connector-curvature="0" />
          <path
             style="fill:url(#radialGradient4252);fill-opacity:1;stroke:none"
             d="m 157.98094,80.980417 51.38254,-15.845664 9.49171,-13.142451 -68.95477,21.271934 z"
             sodipodi:nodetypes="ccccc"
             id="path4516"
             inkscape:connector-curvature="0" />
        </g>
        <g
           id="g4518"
           transform="translate(1.935728,40.65028)">
          <path
             style="fill:#b2b2d5;fill-opacity:1;stroke:none"
             id="path4520"
             sodipodi:nodetypes="ccccc"
             d="m 156.61232,60.820984 50.9187,-15.670341 9.96861,7.169797 -68.95477,21.271932 z"
             inkscape:connector-curvature="0" />
          <path
             style="fill:#b2b2d5;fill-opacity:1;stroke:none"
             d="M 157.21122,81.365276 208.59376,65.519612 218.08547,52.377163 149.1307,73.649095 Z"
             sodipodi:nodetypes="ccccc"
             id="path4522"
             inkscape:connector-curvature="0" />
          <path
             style="fill:none;stroke:#c5c6e5;stroke-width:1.19299996;stroke-linecap:butt;stroke-linejoin:miter;stroke-miterlimit:4;stroke-dasharray:none;stroke-opacity:1"
             d="M 149.49846,73.535645 217.34995,52.604063"
             id="path4524"
             inkscape:connector-curvature="0"
             stroke-miterlimit="4" />
          <path
             style="fill:url(#radialGradient4254);fill-opacity:1;stroke:none"
             d="m 156.61232,60.820984 50.9187,-15.670341 9.96861,7.169797 -68.95477,21.271932 z"
             sodipodi:nodetypes="ccccc"
             id="path4526"
             inkscape:connector-curvature="0" />
          <path
             style="fill:url(#radialGradient4256);fill-opacity:1;stroke:none"
             id="path4528"
             sodipodi:nodetypes="ccccc"
             d="m 157.98094,80.980417 51.38254,-15.845664 9.49171,-13.142451 -68.95477,21.271934 z"
             inkscape:connector-curvature="0" />
        </g>
      </g>
      <g
         transform="matrix(0.8230263,-0.78758644,0.78758644,0.8230263,-245.97203,272.80492)"
         id="g4544">
        <path
           id="path4546"
           sodipodi:nodetypes="ccccc"
           d="m 156.61232,60.820984 50.9187,-15.670341 9.96861,7.169797 -68.95477,21.271932 z"
           inkscape:connector-curvature="0"
           style="fill:#b2b2d5;fill-opacity:1;stroke:none" />
        <path
           d="M 157.21122,81.365276 208.59376,65.519612 218.08547,52.377163 149.1307,73.649095 Z"
           sodipodi:nodetypes="ccccc"
           id="path4548"
           inkscape:connector-curvature="0"
           style="fill:#b2b2d5;fill-opacity:1;stroke:none" />
        <path
           d="M 149.49846,73.535645 217.34995,52.604063"
           id="path4550"
           inkscape:connector-curvature="0"
           stroke-miterlimit="4"
           style="fill:none;stroke:#c5c6e5;stroke-width:1.19299996;stroke-linecap:butt;stroke-linejoin:miter;stroke-miterlimit:4;stroke-dasharray:none;stroke-opacity:1" />
        <path
           d="m 156.61232,60.820984 50.9187,-15.670341 9.96861,7.169797 -68.95477,21.271932 z"
           sodipodi:nodetypes="ccccc"
           id="path4552"
           inkscape:connector-curvature="0"
           style="fill:url(#radialGradient5168);fill-opacity:1;stroke:none" />
        <path
           id="path4554"
           sodipodi:nodetypes="ccccc"
           d="m 157.98094,80.980417 51.38254,-15.845664 9.49171,-13.142451 -68.95477,21.271934 z"
           inkscape:connector-curvature="0"
           style="fill:url(#radialGradient5170);fill-opacity:1;stroke:none" />
      </g>
      <g
         transform="matrix(0.8230263,-0.78758644,0.78758644,0.8230263,-228.88129,287.91171)"
         id="g4556">
        <path
           d="m 156.61232,60.820984 50.9187,-15.670341 9.96861,7.169797 -68.95477,21.271932 z"
           sodipodi:nodetypes="ccccc"
           id="path4558"
           inkscape:connector-curvature="0"
           style="fill:#b2b2d5;fill-opacity:1;stroke:none" />
        <path
           id="path4560"
           sodipodi:nodetypes="ccccc"
           d="M 157.21122,81.365276 208.59376,65.519612 218.08547,52.377163 149.1307,73.649095 Z"
           inkscape:connector-curvature="0"
           style="fill:#b2b2d5;fill-opacity:1;stroke:none" />
        <path
           id="path4562"
           d="M 149.49846,73.535645 217.34995,52.604063"
           inkscape:connector-curvature="0"
           stroke-miterlimit="4"
           style="fill:none;stroke:#c5c6e5;stroke-width:1.19299996;stroke-linecap:butt;stroke-linejoin:miter;stroke-miterlimit:4;stroke-dasharray:none;stroke-opacity:1" />
        <path
           id="path4564"
           sodipodi:nodetypes="ccccc"
           d="m 156.61232,60.820984 50.9187,-15.670341 9.96861,7.169797 -68.95477,21.271932 z"
           inkscape:connector-curvature="0"
           style="fill:url(#radialGradient4258);fill-opacity:1;stroke:none" />
        <path
           d="m 157.98094,80.980417 51.38254,-15.845664 9.49171,-13.142451 -68.95477,21.271934 z"
           sodipodi:nodetypes="ccccc"
           id="path4566"
           inkscape:connector-curvature="0"
           style="fill:url(#radialGradient4260);fill-opacity:1;stroke:none" />
      </g>
      <g
         transform="translate(-194.434,43.81208)"
         id="g4260">
        <path
           style="fill:none;fill-rule:evenodd;stroke:#000000;stroke-width:4.0999999;stroke-linecap:round;stroke-linejoin:round;stroke-miterlimit:4;stroke-dasharray:none;stroke-opacity:0.14285715"
           d="m 27.529933,40.86918 1e-6,20.150775 2.270509,15.325942 12.590183,-0.573456 3.871015,16.739181 13.62306,0.01166 3.689579,15.325948 h 13.906873 l 2.838138,15.60975 13.061261,-0.0965 3.967563,16.27392 11.920185,-0.85144 3.40576,17.02883 14.75831,-0.85145 3.12195,16.4612 12.20399,1e-5 3.97339,14.19068"
           id="path4254"
           inkscape:connector-curvature="0"
           sodipodi:nodetypes="ccccccccccccccccc" />
        <path
           sodipodi:nodetypes="ccccccccccccccccc"
           inkscape:connector-curvature="0"
           id="path4256"
           d="m 26.110864,41.152994 -0.453589,20.990557 4.143168,14.202346 12.028386,0.175607 4.432812,15.990118 13.435794,0.573458 3.502313,15.51321 13.532341,0.5618 3.587202,14.29889 12.499463,0.65252 3.780297,15.52486 12.294719,-0.28964 5.09115,16.27976 13.26018,0.64668 3.30922,15.15034 12.01672,0.93634 4.16066,13.25435"
           style="fill:none;fill-rule:evenodd;stroke:#000000;stroke-width:2.70000005;stroke-linecap:round;stroke-linejoin:round;stroke-miterlimit:4;stroke-dasharray:none;stroke-opacity:0.14285715" />
        <path
           style="fill:none;fill-rule:evenodd;stroke:#000000;stroke-width:0.89999998;stroke-linecap:round;stroke-linejoin:round;stroke-miterlimit:4;stroke-dasharray:none;stroke-opacity:0.14285715"
           d="m 26.110864,41.152994 -0.640855,20.241493 3.206838,15.325942 12.77745,-0.01166 4.432812,16.177384 12.68673,0.573458 3.502313,15.138679 14.281405,0.37453 3.961734,14.48616 12.499463,0.65252 4.154829,16.64846 11.920187,-0.28964 3.59302,15.90522 13.63471,-0.10238 3.30922,15.33761 13.14032,0.74907 4.16066,13.25435"
           id="path4258"
           inkscape:connector-curvature="0"
           sodipodi:nodetypes="ccccccccccccccccc" />
      </g>
    </g>
    <g
       id="g974"
       transform="translate(224.83505,-151.58679)">
      <g
         id="g1004"
         transform="matrix(0.7015393,-0.74639715,0.74639715,0.7015393,-405.91069,208.74006)">
        <rect
           transform="rotate(-0.14520657)"
           height="42.400002"
           width="39.793999"
           id="rect996"
           rx="6.9959998"
           ry="6.9959998"
           y="238.28999"
           x="183.16"
           style="fill:url(#linearGradient1012);fill-opacity:1;stroke:none" />
        <rect
           transform="rotate(-0.14520657)"
           height="42.400002"
           width="39.793999"
           id="rect998"
           rx="6.9959998"
           ry="6.9959998"
           y="238.03999"
           x="87.440002"
           style="fill:url(#linearGradient1014);fill-opacity:1;stroke:none" />
        <rect
           transform="rotate(-0.14520657)"
           height="41.099998"
           width="54.797001"
           id="rect1000"
           rx="6.9959998"
           ry="6.9959998"
           y="238.86"
           x="127.26"
           style="fill:url(#linearGradient1016);fill-opacity:1;stroke:none" />
        <path
           sodipodi:nodetypes="ssssssssssssssssssssssssssssssssssss"
           inkscape:connector-curvature="0"
           d="m 95.600624,237.97136 c -4.69825,0.0119 -8.45774,3.79049 -8.445833,8.48875 l 0.06619,26.11801 c 0.01191,4.69825 3.790487,8.45773 8.488751,8.44584 l 120.058618,-0.30427 c 4.69825,-0.0119 8.45772,-3.7905 8.44583,-8.48875 l -0.0662,-26.11802 c -0.0119,-4.69825 -3.79049,-8.45774 -8.48875,-8.44583 z m 41.750716,1.95972 34.57895,0.0464 c 4.69826,0.006 9.954,2.63827 9.86809,7.33575 l -0.4186,22.88986 c -0.0859,4.69748 -3.84049,8.41397 -8.53873,8.43192 l -34.9688,0.13363 c -4.69824,0.018 -7.71417,-3.38204 -7.73293,-8.08027 l -0.088,-22.04094 c -0.0188,-4.69824 2.60181,-8.72269 7.30006,-8.71638 z m 54.37373,0.0413 21.49887,-0.1472 c 4.69817,-0.0322 8.15718,2.39201 8.1886,7.09017 l 0.15965,23.87659 c 0.0314,4.69816 -2.70127,7.4525 -7.39952,7.46582 l -21.20797,0.0602 c -4.69823,0.0133 -8.80342,-2.50881 -8.81533,-7.20706 l -0.0607,-23.9696 c -0.0119,-4.69826 2.93825,-7.1367 7.6364,-7.16887 z m -94.386419,-0.16306 21.880799,0.14289 c 4.69817,0.0307 7.41928,3.61915 7.47812,8.31705 l 0.28903,23.07658 c 0.0588,4.6979 -3.84708,7.24024 -8.54517,7.28032 l -20.833992,0.17774 c -4.698107,0.0401 -7.632065,-2.89918 -7.651833,-7.59741 l -0.09707,-23.07064 c -0.01977,-4.69824 2.78196,-8.35722 7.480117,-8.32653 z"
           id="path1002"
           style="fill:url(#linearGradient1018);fill-opacity:1;stroke:none;stroke-width:0.39049652;stroke-miterlimit:4;stroke-dasharray:none;stroke-opacity:1" />
      </g>
      <path
         sodipodi:nodetypes="cccccccccsccccccsccccccc"
         style="fill:url(#linearGradient994);fill-opacity:1;stroke:none;stroke-width:1.02433693"
         d="m -71.026654,214.53582 c -2.15308,0.0415 -4.29821,1.19056 -6.13867,3.17578 l -14.97265,16.14843 c -3.27192,3.52925 -3.52098,7.44334 -0.006,10.73047 l 11.3799,10.75084 c 13.441697,-8.1752 23.043727,-15.79039 32.569317,-22.13756 l -17.9336,-16.63085 c -1.54382,-1.43172 -3.22381,-2.06938 -4.898437,-2.03711 z m -27.16406,30.18554 c -2.787176,0.0959 -5.767266,1.72887 -7.830076,3.91797 l -24.29296,25.77734 c -3.30072,3.50234 -2.13518,8.28053 1.38476,11.5625 l 4.47433,4.83034 c 18.75897,-16.65921 28.539566,-22.78855 41.738376,-33.90474 l -10.90607,-10.48419 c -1.29222,-1.25985 -2.89605,-1.75676 -4.56836,-1.69922 z m -39.187496,40.84375 c -2.00517,-0.0924 -3.98119,0.65586 -5.64062,2.39844 l -15.45703,16.23242 c -3.31885,3.48516 -2.55383,8.14258 0.96679,11.42383 12.9443,-10.16803 21.62831,-15.97401 30.66497,-23.06583 l -4.71965,-4.33651 c -1.77389,-1.62592 -3.80928,-2.55991 -5.81446,-2.65235 z"
         id="path967"
         inkscape:connector-curvature="0" />
    </g>
    <g
       transform="translate(276.02922,-102.70091)"
       id="g988">
      <g
         transform="matrix(0.7015393,-0.74639715,0.74639715,0.7015393,-405.91069,208.74006)"
         id="g984">
        <rect
           style="fill:url(#linearGradient990);fill-opacity:1;stroke:none"
           x="183.16"
           y="238.28999"
           ry="6.9959998"
           rx="6.9959998"
           id="rect976"
           width="39.793999"
           height="42.400002"
           transform="rotate(-0.14520657)" />
        <rect
           style="fill:url(#linearGradient993);fill-opacity:1;stroke:none"
           x="87.440002"
           y="238.03999"
           ry="6.9959998"
           rx="6.9959998"
           id="rect978"
           width="39.793999"
           height="42.400002"
           transform="rotate(-0.14520657)" />
        <rect
           style="fill:url(#linearGradient995);fill-opacity:1;stroke:none"
           x="127.26"
           y="238.86"
           ry="6.9959998"
           rx="6.9959998"
           id="rect980"
           width="54.797001"
           height="41.099998"
           transform="rotate(-0.14520657)" />
        <path
           style="fill:url(#linearGradient997);fill-opacity:1;stroke:none;stroke-width:0.39049652;stroke-miterlimit:4;stroke-dasharray:none;stroke-opacity:1"
           id="path982"
           d="m 95.600624,237.97136 c -4.69825,0.0119 -8.45774,3.79049 -8.445833,8.48875 l 0.06619,26.11801 c 0.01191,4.69825 3.790487,8.45773 8.488751,8.44584 l 120.058618,-0.30427 c 4.69825,-0.0119 8.45772,-3.7905 8.44583,-8.48875 l -0.0662,-26.11802 c -0.0119,-4.69825 -3.79049,-8.45774 -8.48875,-8.44583 z m 41.750716,1.95972 34.57895,0.0464 c 4.69826,0.006 9.954,2.63827 9.86809,7.33575 l -0.4186,22.88986 c -0.0859,4.69748 -3.84049,8.41397 -8.53873,8.43192 l -34.9688,0.13363 c -4.69824,0.018 -7.71417,-3.38204 -7.73293,-8.08027 l -0.088,-22.04094 c -0.0188,-4.69824 2.60181,-8.72269 7.30006,-8.71638 z m 54.37373,0.0413 21.49887,-0.1472 c 4.69817,-0.0322 8.15718,2.39201 8.1886,7.09017 l 0.15965,23.87659 c 0.0314,4.69816 -2.70127,7.4525 -7.39952,7.46582 l -21.20797,0.0602 c -4.69823,0.0133 -8.80342,-2.50881 -8.81533,-7.20706 l -0.0607,-23.9696 c -0.0119,-4.69826 2.93825,-7.1367 7.6364,-7.16887 z m -94.386419,-0.16306 21.880799,0.14289 c 4.69817,0.0307 7.41928,3.61915 7.47812,8.31705 l 0.28903,23.07658 c 0.0588,4.6979 -3.84708,7.24024 -8.54517,7.28032 l -20.833992,0.17774 c -4.698107,0.0401 -7.632065,-2.89918 -7.651833,-7.59741 l -0.09707,-23.07064 c -0.01977,-4.69824 2.78196,-8.35722 7.480117,-8.32653 z"
           inkscape:connector-curvature="0"
           sodipodi:nodetypes="ssssssssssssssssssssssssssssssssssss" />
      </g>
      <path
         inkscape:connector-curvature="0"
         id="path986"
         d="m -71.026654,214.53582 c -2.15308,0.0415 -4.29821,1.19056 -6.13867,3.17578 l -14.97265,16.14843 c -3.27192,3.52925 -3.52098,7.44334 -0.006,10.73047 l 11.3799,10.75084 c 13.441697,-8.1752 23.043727,-15.79039 32.569317,-22.13756 l -17.9336,-16.63085 c -1.54382,-1.43172 -3.22381,-2.06938 -4.898437,-2.03711 z m -27.16406,30.18554 c -2.787176,0.0959 -5.767266,1.72887 -7.830076,3.91797 l -24.29296,25.77734 c -3.30072,3.50234 -2.13518,8.28053 1.38476,11.5625 l 4.47433,4.83034 c 18.75897,-16.65921 28.539566,-22.78855 41.738376,-33.90474 l -10.90607,-10.48419 c -1.29222,-1.25985 -2.89605,-1.75676 -4.56836,-1.69922 z m -39.187496,40.84375 c -2.00517,-0.0924 -3.98119,0.65586 -5.64062,2.39844 l -15.45703,16.23242 c -3.31885,3.48516 -2.55383,8.14258 0.96679,11.42383 12.9443,-10.16803 21.62831,-15.97401 30.66497,-23.06583 l -4.71965,-4.33651 c -1.77389,-1.62592 -3.80928,-2.55991 -5.81446,-2.65235 z"
         style="fill:url(#linearGradient999);fill-opacity:1;stroke:none;stroke-width:1.02433693"
         sodipodi:nodetypes="cccccccccsccccccsccccccc" />
    </g>
  </g>
</svg>
