<?xml version="1.0" encoding="UTF-8" standalone="no"?>
<!-- Created with Inkscape (http://www.inkscape.org/) -->

<svg
   xmlns:dc="http://purl.org/dc/elements/1.1/"
   xmlns:cc="http://creativecommons.org/ns#"
   xmlns:rdf="http://www.w3.org/1999/02/22-rdf-syntax-ns#"
   xmlns:svg="http://www.w3.org/2000/svg"
   xmlns="http://www.w3.org/2000/svg"
   xmlns:xlink="http://www.w3.org/1999/xlink"
   xmlns:sodipodi="http://sodipodi.sourceforge.net/DTD/sodipodi-0.dtd"
   xmlns:inkscape="http://www.inkscape.org/namespaces/inkscape"
   width="255"
   height="255"
   viewBox="0 0 67.468749 67.468749"
   version="1.1"
   id="svg8"
   inkscape:version="0.92.5 (2060ec1f9f, 2020-04-08)"
   sodipodi:docname="MyTune.svg">
  <defs
     id="defs2">
    <linearGradient
       id="linearGradient902"
       inkscape:collect="always">
      <stop
         id="stop897"
         offset="0"
         style="stop-color:#d6d6d6;stop-opacity:1" />
      <stop
         id="stop900"
         offset="1"
         style="stop-color:#7f7f7f;stop-opacity:0" />
    </linearGradient>
    <linearGradient
       id="linearGradient1065"
       inkscape:collect="always">
      <stop
         id="stop1061"
         offset="0"
         style="stop-color:#ffffff;stop-opacity:0.6201117" />
      <stop
         id="stop1063"
         offset="1"
         style="stop-color:#ffffff;stop-opacity:0;" />
    </linearGradient>
    <linearGradient
       inkscape:collect="always"
       id="linearGradient1051">
      <stop
         style="stop-color:#ffffff;stop-opacity:0.36871511"
         offset="0"
         id="stop1047" />
      <stop
         style="stop-color:#ffffff;stop-opacity:0;"
         offset="1"
         id="stop1049" />
    </linearGradient>
    <linearGradient
       inkscape:collect="always"
       id="linearGradient1040">
      <stop
         style="stop-color:#ffffff;stop-opacity:0.41899446"
         offset="0"
         id="stop1036" />
      <stop
         style="stop-color:#f1f1f1;stop-opacity:0"
         offset="1"
         id="stop1038" />
    </linearGradient>
    <linearGradient
       inkscape:collect="always"
       id="linearGradient1029">
      <stop
         style="stop-color:#a7a7a7;stop-opacity:0.7206704"
         offset="0"
         id="stop1025" />
      <stop
         style="stop-color:#a7a7a7;stop-opacity:0.21787709"
         offset="1"
         id="stop1027" />
    </linearGradient>
    <linearGradient
       inkscape:collect="always"
       id="linearGradient1019">
      <stop
         style="stop-color:#a7a7a7;stop-opacity:0.60893857"
         offset="0"
         id="stop1015" />
      <stop
         style="stop-color:#a7a7a7;stop-opacity:0.21787709"
         offset="1"
         id="stop1017" />
    </linearGradient>
    <linearGradient
       inkscape:collect="always"
       id="linearGradient1003">
      <stop
         style="stop-color:#939393;stop-opacity:1"
         offset="0"
         id="stop999" />
      <stop
         style="stop-color:#000000;stop-opacity:0.97206706"
         offset="1"
         id="stop1001" />
    </linearGradient>
    <linearGradient
       inkscape:collect="always"
       id="linearGradient962">
      <stop
         style="stop-color:#000000;stop-opacity:1;"
         offset="0"
         id="stop958" />
      <stop
         id="stop966"
         offset="0.87657845"
         style="stop-color:#000000;stop-opacity:1" />
      <stop
         style="stop-color:#000000;stop-opacity:0;"
         offset="1"
         id="stop960" />
    </linearGradient>
    <linearGradient
       inkscape:collect="always"
       id="linearGradient948">
      <stop
         style="stop-color:#ffffff;stop-opacity:0.83798891"
         offset="0"
         id="stop944" />
      <stop
         style="stop-color:#a4a4a4;stop-opacity:0"
         offset="1"
         id="stop946" />
    </linearGradient>
    <linearGradient
       inkscape:collect="always"
       id="linearGradient937">
      <stop
         style="stop-color:#000000;stop-opacity:1"
         offset="0"
         id="stop933" />
      <stop
         id="stop941"
         offset="0.71192527"
         style="stop-color:#030303;stop-opacity:1" />
      <stop
         style="stop-color:#555555;stop-opacity:1"
         offset="1"
         id="stop935" />
    </linearGradient>
    <linearGradient
       inkscape:collect="always"
       id="linearGradient921">
      <stop
         style="stop-color:#c6c6c6;stop-opacity:1"
         offset="0"
         id="stop917" />
      <stop
         style="stop-color:#000000;stop-opacity:1"
         offset="1"
         id="stop919" />
    </linearGradient>
    <linearGradient
       inkscape:collect="always"
       id="linearGradient911">
      <stop
         style="stop-color:#1b1b1b;stop-opacity:1"
         offset="0"
         id="stop907" />
      <stop
         id="stop952"
         offset="0.24726239"
         style="stop-color:#1b1b1b;stop-opacity:1" />
      <stop
         style="stop-color:#575757;stop-opacity:1"
         offset="1"
         id="stop909" />
    </linearGradient>
    <linearGradient
       inkscape:collect="always"
       id="linearGradient903">
      <stop
         style="stop-color:#9d9d9d;stop-opacity:1"
         offset="0"
         id="stop899" />
      <stop
         style="stop-color:#353535;stop-opacity:1"
         offset="1"
         id="stop901" />
    </linearGradient>
    <linearGradient
       inkscape:collect="always"
       id="linearGradient891">
      <stop
         style="stop-color:#616161;stop-opacity:1"
         offset="0"
         id="stop887" />
      <stop
         style="stop-color:#171717;stop-opacity:1"
         offset="1"
         id="stop889" />
    </linearGradient>
    <linearGradient
       inkscape:collect="always"
       xlink:href="#linearGradient891"
       id="linearGradient893"
       x1="75.082535"
       y1="226.20078"
       x2="110.29689"
       y2="241.0699"
       gradientUnits="userSpaceOnUse"
       spreadMethod="reflect" />
    <linearGradient
       inkscape:collect="always"
       xlink:href="#linearGradient903"
       id="linearGradient905"
       x1="75.287598"
       y1="227.04764"
       x2="133.22105"
       y2="243.77121"
       gradientUnits="userSpaceOnUse" />
    <linearGradient
       inkscape:collect="always"
       xlink:href="#linearGradient911"
       id="linearGradient913"
       x1="80.100105"
       y1="228.17053"
       x2="103.46336"
       y2="241.66542"
       gradientUnits="userSpaceOnUse"
       spreadMethod="reflect" />
    <linearGradient
       inkscape:collect="always"
       xlink:href="#linearGradient921"
       id="linearGradient923"
       x1="92.645844"
       y1="235.73373"
       x2="104.67398"
       y2="243.80037"
       gradientUnits="userSpaceOnUse" />
    <radialGradient
       inkscape:collect="always"
       xlink:href="#linearGradient937"
       id="radialGradient939"
       cx="101.61974"
       cy="240.88913"
       fx="94.385475"
       fy="237.88962"
       r="10.30725"
       gradientTransform="matrix(0.85515638,0,0,0.77070706,14.718971,55.234179)"
       gradientUnits="userSpaceOnUse" />
    <linearGradient
       inkscape:collect="always"
       xlink:href="#linearGradient948"
       id="linearGradient950"
       x1="95.640366"
       y1="234.07787"
       x2="104.18152"
       y2="243.4776"
       gradientUnits="userSpaceOnUse" />
    <radialGradient
       inkscape:collect="always"
       xlink:href="#linearGradient962"
       id="radialGradient964"
       cx="107.84161"
       cy="248.01198"
       fx="107.84161"
       fy="248.01198"
       r="31.200399"
       gradientTransform="matrix(0.99505827,0,0,0.78378931,5.1643971,58.055367)"
       gradientUnits="userSpaceOnUse" />
    <radialGradient
       inkscape:collect="always"
       xlink:href="#linearGradient1003"
       id="radialGradient1005"
       cx="-141.40591"
       cy="241.37222"
       fx="-141.40591"
       fy="241.37222"
       r="8.7079086"
       gradientTransform="matrix(1.0093549,0,0,0.67479003,69.56841,100.16351)"
       gradientUnits="userSpaceOnUse" />
    <radialGradient
       inkscape:collect="always"
       xlink:href="#linearGradient1003"
       id="radialGradient1009"
       gradientUnits="userSpaceOnUse"
       gradientTransform="matrix(1.0093549,0,0,0.67479003,95.263887,106.91303)"
       cx="-141.40591"
       cy="241.37222"
       fx="-141.40591"
       fy="241.37222"
       r="8.7079086" />
    <linearGradient
       inkscape:collect="always"
       xlink:href="#linearGradient1019"
       id="linearGradient1021"
       x1="28.042873"
       y1="258.89337"
       x2="26.535191"
       y2="248.56575"
       gradientUnits="userSpaceOnUse"
       spreadMethod="reflect" />
    <linearGradient
       inkscape:collect="always"
       xlink:href="#linearGradient1029"
       id="linearGradient1031"
       x1="54.201149"
       y1="254.63417"
       x2="54.201149"
       y2="242.42194"
       gradientUnits="userSpaceOnUse"
       spreadMethod="reflect" />
    <radialGradient
       inkscape:collect="always"
       xlink:href="#linearGradient1040"
       id="radialGradient1042"
       cx="42.8326"
       cy="255.53255"
       fx="42.8326"
       fy="255.53255"
       r="14.786989"
       gradientTransform="matrix(1.1424177,-0.05207183,-0.07669426,0.66130638,13.497757,82.426978)"
       gradientUnits="userSpaceOnUse" />
    <radialGradient
       inkscape:collect="always"
       xlink:href="#linearGradient1051"
       id="radialGradient1053"
       cx="44.014416"
       cy="252.23514"
       fx="44.014416"
       fy="252.23514"
       r="13.828724"
       gradientTransform="matrix(1,0,0,0.03669066,0,242.98046)"
       gradientUnits="userSpaceOnUse" />
    <linearGradient
       inkscape:collect="always"
       xlink:href="#linearGradient1065"
       id="linearGradient1059"
       x1="41.536625"
       y1="233.82816"
       x2="41.159702"
       y2="231.79279"
       gradientUnits="userSpaceOnUse" />
    <linearGradient
       inkscape:collect="always"
       xlink:href="#linearGradient902"
       id="linearGradient895"
       x1="-73.601006"
       y1="259.03983"
       x2="-72.937302"
       y2="264.86926"
       gradientUnits="userSpaceOnUse"
       gradientTransform="matrix(0.72962622,0,0,0.72962623,-20.067655,70.198523)" />
    <linearGradient
       inkscape:collect="always"
       xlink:href="#linearGradient902"
       id="linearGradient906"
       gradientUnits="userSpaceOnUse"
       gradientTransform="matrix(0.72962622,0,0,0.72962623,5.6635579,77.20149)"
       x1="-73.601006"
       y1="259.03983"
       x2="-72.937302"
       y2="264.86926" />
  </defs>
  <sodipodi:namedview
     id="base"
     pagecolor="#ff0000"
     bordercolor="#666666"
     borderopacity="1.0"
     inkscape:pageopacity="0"
     inkscape:pageshadow="2"
     inkscape:zoom="3.5098039"
     inkscape:cx="127.5"
     inkscape:cy="127.5"
     inkscape:document-units="mm"
     inkscape:current-layer="layer1"
     showgrid="false"
     inkscape:snap-to-guides="false"
     inkscape:snap-grids="false"
     inkscape:snap-others="false"
     inkscape:object-nodes="false"
     inkscape:snap-nodes="false"
     inkscape:snap-global="false"
     inkscape:window-width="1920"
     inkscape:window-height="1056"
     inkscape:window-x="0"
     inkscape:window-y="0"
     inkscape:window-maximized="1"
     units="px" />
  <metadata
     id="metadata5">
    <rdf:RDF>
      <cc:Work
         rdf:about="">
        <dc:format>image/svg+xml</dc:format>
        <dc:type
           rdf:resource="http://purl.org/dc/dcmitype/StillImage" />
        <dc:title />
      </cc:Work>
    </rdf:RDF>
  </metadata>
  <g
     inkscape:label="Layer 1"
     inkscape:groupmode="layer"
     id="layer1"
     transform="translate(0,-229.53126)">
    <g
       id="g995"
       transform="matrix(0.98756058,0,0,0.98756058,0.27810779,4.1479313)">
      <ellipse
         style="opacity:1;fill:url(#radialGradient964);fill-opacity:1;fill-rule:nonzero;stroke:none;stroke-width:0.29672956;stroke-linecap:round;stroke-linejoin:round;stroke-miterlimit:4;stroke-dasharray:none;stroke-dashoffset:0;stroke-opacity:1"
         id="ellipse954"
         cx="112.47308"
         cy="252.4445"
         rx="31.046215"
         ry="24.45454"
         transform="matrix(0.9609485,0.27672726,-0.30611145,0.95199568,0,0)" />
      <ellipse
         transform="matrix(0.95002907,0.31216145,-0.27124368,0.96251071,0,0)"
         ry="28.925592"
         rx="32.913548"
         cy="240.39078"
         cx="104.12933"
         id="path877"
         style="opacity:1;fill:url(#linearGradient893);fill-opacity:1;fill-rule:nonzero;stroke:none;stroke-width:0.33228078;stroke-linecap:round;stroke-linejoin:round;stroke-miterlimit:4;stroke-dasharray:none;stroke-dashoffset:0;stroke-opacity:1" />
      <ellipse
         style="opacity:1;fill:#000000;fill-opacity:1;fill-rule:nonzero;stroke:none;stroke-width:0.2974281;stroke-linecap:round;stroke-linejoin:round;stroke-miterlimit:4;stroke-dasharray:none;stroke-dashoffset:0;stroke-opacity:1"
         id="ellipse883"
         cx="104.12933"
         cy="240.39078"
         rx="29.461269"
         ry="25.891609"
         transform="matrix(0.95002907,0.31216145,-0.27124368,0.96251071,0,0)" />
      <ellipse
         transform="matrix(0.95002907,0.31216145,-0.27124368,0.96251071,0,0)"
         ry="24.29034"
         rx="27.639235"
         cy="240.39078"
         cx="104.12933"
         id="ellipse885"
         style="opacity:1;fill:url(#linearGradient913);fill-opacity:1;fill-rule:nonzero;stroke:none;stroke-width:0.27903363;stroke-linecap:round;stroke-linejoin:round;stroke-miterlimit:4;stroke-dasharray:none;stroke-dashoffset:0;stroke-opacity:1" />
      <ellipse
         transform="matrix(0.94714053,0.32081898,-0.26369439,0.96460628,0,0)"
         ry="9.2893782"
         rx="10.30725"
         cy="240.88913"
         cx="101.61974"
         id="ellipse915"
         style="opacity:1;fill:#2e2e2e;fill-opacity:0.99441343;fill-rule:nonzero;stroke:url(#linearGradient923);stroke-width:0.30527246;stroke-linecap:round;stroke-linejoin:round;stroke-miterlimit:4;stroke-dasharray:none;stroke-dashoffset:0;stroke-opacity:1" />
      <ellipse
         style="opacity:1;fill:url(#radialGradient939);fill-opacity:1;fill-rule:nonzero;stroke:#000000;stroke-width:0.29025906;stroke-linecap:round;stroke-linejoin:round;stroke-miterlimit:4;stroke-dasharray:none;stroke-dashoffset:0;stroke-opacity:1"
         id="ellipse879"
         cx="101.61974"
         cy="240.88913"
         rx="8.8143101"
         ry="7.9438701"
         transform="matrix(0.94714053,0.32081898,-0.26369439,0.96460628,0,0)" />
      <path
         sodipodi:nodetypes="ccssc"
         inkscape:connector-curvature="0"
         id="ellipse881"
         d="m 107.09853,234.73244 c 0.86481,5.34455 -5.98318,13.36322 -13.342374,9.79494 -0.424668,-0.89828 -0.954374,-2.18273 -0.985524,-3.53999 -0.09884,-4.30648 3.428984,-8.27499 8.909818,-8.08935 1.60095,0.0542 4.70299,0.86936 5.41808,1.8344 z"
         style="opacity:1;fill:url(#linearGradient950);fill-opacity:1;fill-rule:nonzero;stroke:none;stroke-width:0.08940243;stroke-linecap:round;stroke-linejoin:round;stroke-miterlimit:4;stroke-dasharray:none;stroke-dashoffset:0;stroke-opacity:1"
         transform="matrix(0.94714053,0.32081898,-0.26369439,0.96460628,0,0)" />
      <ellipse
         style="opacity:1;fill:none;fill-opacity:1;fill-rule:nonzero;stroke:url(#linearGradient905);stroke-width:0.3245813;stroke-linecap:round;stroke-linejoin:round;stroke-miterlimit:4;stroke-dasharray:none;stroke-dashoffset:0;stroke-opacity:1"
         id="ellipse895"
         cx="104.12933"
         cy="240.39078"
         rx="32.150887"
         ry="28.255341"
         transform="matrix(0.95002907,0.31216145,-0.27124368,0.96251071,0,0)" />
    </g>
    <g
       id="g944"
       transform="matrix(0.98756058,0,0,0.98756058,59.505938,3.7718741)"
       style="fill:#000000;fill-opacity:0.08999999">
      <path
         sodipodi:nodetypes="cccccccccccccccsc"
         inkscape:connector-curvature="0"
         id="path888"
         d="m -42.775248,244.26157 c -0.870878,0.11897 -1.38998,0.6746 -1.15366,1.41225 l 9.347537,29.17716 c -2.000312,-0.3361 -4.195246,-0.10955 -6.105225,0.63015 -3.990222,1.54859 -5.669418,4.87084 -3.75053,7.42033 1.918665,2.54952 6.708744,3.36094 10.69887,1.81234 3.015656,-1.17364 4.809398,-3.42102 4.498386,-5.63602 -2.723507,-7.8643 -5.072093,-15.85698 -7.55423,-23.80053 l 21.441676,-3.5306 6.515757,20.33811 c -2.149922,-0.50381 -4.614079,-0.32039 -6.738126,0.50154 -3.989883,1.54853 -5.669077,4.87045 -3.75067,7.41988 1.918659,2.54953 6.708741,3.36095 10.698872,1.81235 3.667822,-1.42545 5.4290744,-4.15483 4.095504,-6.8726 -3.6570927,-10.9128 -6.898781,-22.08969 -10.439687,-33.09103 -0.241883,-0.55062 -0.77695,-0.89588 -1.293636,-0.82779 -6.851042,0.90287 -19.690576,2.31175 -26.510838,3.23446 z"
         style="fill:#000000;fill-opacity:0.08999999;stroke:none;stroke-width:0.24180447px;stroke-linecap:butt;stroke-linejoin:miter;stroke-opacity:1" />
      <path
         inkscape:connector-curvature="0"
         id="path923"
         d="m -16.242188,241.29102 c -8.988433,1.20839 -18.044929,2.01081 -26.998046,3.375 -1.217956,0.82092 0.35255,2.3809 0.373673,3.46108 2.88779,9.01363 5.77576,18.0272 8.663436,27.04087 -3.81623,-0.68287 -8.808422,0.38979 -10.542969,4.23633 -1.104685,2.97337 2.109642,5.35384 4.739041,5.63971 3.794545,0.66833 8.753497,-0.52293 10.368381,-4.39557 0.548363,-2.32424 -1.177566,-4.46573 -1.602389,-6.70508 -2.041049,-6.26821 -3.931014,-12.58441 -5.895658,-18.87695 7.321746,-1.20949 14.644657,-2.41201 21.966797,-3.61914 2.241885,6.99663 4.483435,13.99337 6.7246095,20.99023 -3.8417345,-0.9682 -8.8166085,-0.0477 -10.9882815,3.61133 -1.427189,2.5279 0.935508,5.23633 3.376953,5.81055 3.932132,1.16432 9.1513585,0.20629 11.353516,-3.55274 1.061082,-2.31701 -0.8279034,-4.5417 -1.2403821,-6.79704 -3.2894157,-9.90366 -6.0719179,-20.00435 -9.4627429,-29.85335 -0.198501,-0.24553 -0.515966,-0.40747 -0.835938,-0.36523 z"
         style="fill:#000000;fill-opacity:0.08999999;stroke:none;stroke-width:0.24180447px;stroke-linecap:butt;stroke-linejoin:miter;stroke-opacity:1" />
      <path
         inkscape:connector-curvature="0"
         id="path927"
         d="m -16.208984,241.55273 c -8.996462,1.25618 -18.121724,1.9213 -27.039063,3.46289 -0.497708,1.2634 0.835504,2.50025 0.884762,3.81645 2.846814,8.88677 5.695153,17.77305 8.541019,26.66012 -3.908132,-0.79284 -9.113752,0.17483 -10.763672,4.27343 -0.733336,3.13103 2.920775,5.13901 5.603632,5.13965 3.521902,0.33455 8.047993,-1.01027 9.156134,-4.71582 0.09705,-2.63748 -1.606469,-4.89984 -2.075068,-7.44747 -1.914471,-5.94466 -3.723333,-11.92272 -5.577276,-17.88651 7.496234,-1.23873 14.993609,-2.47064 22.490235,-3.70703 2.312411,7.21531 4.622784,14.43128 6.9355466,21.64648 -4.0523236,-1.15853 -9.6040486,-0.19697 -11.4355466,4.05078 -0.689399,2.98787 2.633293,5.03027 5.251174,5.1158 3.553413,0.47606 8.1228787,-0.77201 9.5050848,-4.41428 0.3408599,-2.46666 -1.3795761,-4.59496 -1.791302,-6.9636 -3.1905894,-9.58544 -5.7952588,-19.40818 -9.2208168,-28.88635 -0.13095,-0.10364 -0.297286,-0.16459 -0.464843,-0.14454 z"
         style="fill:#000000;fill-opacity:0.08999999;stroke:none;stroke-width:0.24180447px;stroke-linecap:butt;stroke-linejoin:miter;stroke-opacity:1" />
      <path
         inkscape:connector-curvature="0"
         id="path931"
         d="m -19.552734,242.25977 c -7.823942,1.02395 -15.812603,1.58665 -23.509766,3.05664 -0.01165,1.56815 1.128528,2.90432 1.283814,4.47272 2.780446,8.679 5.560488,17.35812 8.341186,26.03704 -3.897932,-0.89283 -9.160089,-0.0871 -10.894531,4.01563 -0.61559,3.07879 3.004548,4.89228 5.631205,4.81611 3.306887,0.24761 7.489264,-1.00223 8.610982,-4.51729 -0.08977,-3.02627 -1.904307,-5.64414 -2.465201,-8.58302 -1.797333,-5.62436 -3.515516,-11.2737 -5.265267,-16.91307 7.67072,-1.26798 15.34256,-2.52927 23.013671,-3.79492 2.383864,7.43867 4.766904,14.87761 7.150391,22.31641 -4.038957,-1.28544 -9.645041,-0.50614 -11.578125,3.76367 -0.598002,3.04939 2.95393,4.87371 5.551716,4.82234 3.339248,0.27792 7.3378728,-0.9036 8.6904715,-4.26765 0.1892324,-2.79754 -1.6311175,-5.15115 -2.1184298,-7.85212 -3.0730137,-9.22788 -5.5108417,-18.73215 -8.9323517,-27.80023 -1.166698,0.0693 -2.342435,0.29932 -3.509765,0.42774 z"
         style="fill:#000000;fill-opacity:0.08999999;stroke:none;stroke-width:0.24180447px;stroke-linecap:butt;stroke-linejoin:miter;stroke-opacity:1" />
      <path
         inkscape:connector-curvature="0"
         id="path935"
         d="m -16.896484,242.17383 c -8.607842,1.25414 -17.421714,1.72371 -25.890625,3.40234 0.37874,1.83514 1.304823,3.52682 1.66927,5.41218 2.689762,8.39448 5.378795,16.78919 8.069011,25.18353 -3.934061,-0.9858 -9.193235,-0.35916 -11.027344,3.74414 -0.511653,3.01164 3.131876,4.64832 5.651001,4.49114 3.13609,0.17581 6.979114,-1.04961 8.067749,-4.3056 -0.245289,-3.32824 -2.125048,-6.23772 -2.770653,-9.48161 -1.713296,-5.38433 -3.359485,-10.7898 -5.034034,-16.18636 7.845207,-1.29723 15.691512,-2.5879 23.537109,-3.88281 2.457686,7.66711 4.9124984,15.33514 7.3710938,23.00195 -4.0197718,-1.39541 -9.5558368,-0.85053 -11.6670128,3.34121 -0.696551,2.88655 2.787957,4.68142 5.250997,4.59434 3.180314,0.28659 7.0745788,-0.84483 8.4160158,-4.0625 0.018614,-3.1727 -1.9432561,-5.90329 -2.5170856,-8.96946 -2.8675772,-8.76921 -5.2098432,-17.69647 -8.4497112,-26.34304 -0.225261,0.0202 -0.450521,0.0404 -0.675781,0.0606 z"
         style="fill:#000000;fill-opacity:0.08999999;stroke:none;stroke-width:0.24180447px;stroke-linecap:butt;stroke-linejoin:miter;stroke-opacity:1" />
    </g>
    <g
       id="g920"
       transform="matrix(0.98756058,0,0,0.98756058,2.1392665,3.4779142)">
      <path
         sodipodi:nodetypes="ccccccssscc"
         inkscape:connector-curvature="0"
         id="path1011"
         d="m 31.008891,275.93054 v -28.57547 l 22.572927,-4.22714 v 25.19375 l 3.550798,2.70537 v -39.74216 c 0.198689,-0.8713 -0.564405,-1.41071 -1.572113,-1.24301 -7.043722,1.17219 -23.156984,3.52183 -27.003353,4.12451 -0.908991,0.14243 -1.606314,0.80769 -1.606314,1.69086 v 35.50798 z"
         style="fill:#000000;fill-opacity:1;stroke:none;stroke-width:0.26458332px;stroke-linecap:butt;stroke-linejoin:miter;stroke-opacity:1" />
      <ellipse
         style="opacity:1;fill:url(#radialGradient1009);fill-opacity:1;fill-rule:nonzero;stroke:none;stroke-width:0.30012503;stroke-linecap:round;stroke-linejoin:round;stroke-miterlimit:4;stroke-dasharray:none;stroke-dashoffset:0;stroke-opacity:1"
         id="ellipse1007"
         cx="-47.17347"
         cy="271.73416"
         rx="8.7893705"
         ry="5.8760099"
         transform="matrix(0.92417796,-0.38196217,0.33957831,0.94057779,0,0)" />
      <ellipse
         transform="matrix(0.92417796,-0.38196217,0.33957831,0.94057779,0,0)"
         ry="5.8760099"
         rx="8.7893705"
         cy="264.98465"
         cx="-72.86895"
         id="path997"
         style="opacity:1;fill:url(#radialGradient1005);fill-opacity:1;fill-rule:nonzero;stroke:none;stroke-width:0.30012503;stroke-linecap:round;stroke-linejoin:round;stroke-miterlimit:4;stroke-dasharray:none;stroke-dashoffset:0;stroke-opacity:1" />
      <path
         sodipodi:nodetypes="ccssssccc"
         inkscape:connector-curvature="0"
         id="path1013"
         d="m 27.665957,270.9925 1.356912,1.05538 0.150764,-29.62594 c 0.0022,-0.42539 0.174975,-0.79867 1.145608,-0.97247 l 25.068524,-4.48886 c 0.598435,-0.10716 1.203086,-0.18967 1.225672,-0.94632 l 0.150769,-5.05073 -29.173638,5.35227 z"
         style="fill:url(#linearGradient1021);fill-opacity:1;stroke:none;stroke-width:0.26458332px;stroke-linecap:butt;stroke-linejoin:miter;stroke-opacity:1" />
      <path
         inkscape:connector-curvature="0"
         id="path1023"
         d="m 54.201152,243.10039 1.356913,-0.15076 v 25.17828 l -1.13076,-0.75384 z"
         style="fill:url(#linearGradient1031);fill-opacity:1;stroke:none;stroke-width:0.26458332px;stroke-linecap:butt;stroke-linejoin:miter;stroke-opacity:1" />
      <path
         id="rect1033"
         d="m 29.298555,239.80933 h 26.456739 c 0.863475,0 1.558619,0.69514 1.558619,1.55862 v 7.98928 c 0,0.86347 -0.695144,1.55861 -1.558619,1.55861 H 29.298555 c -0.863476,0 -1.55862,-0.69514 -1.55862,-1.55861 v -7.98928 c 0,-0.86348 0.695144,-1.55862 1.55862,-1.55862 z"
         style="opacity:1;fill:url(#radialGradient1042);fill-opacity:1;fill-rule:nonzero;stroke:none;stroke-width:0.29198301;stroke-linecap:round;stroke-linejoin:round;stroke-miterlimit:4;stroke-dasharray:none;stroke-dashoffset:0;stroke-opacity:1"
         transform="matrix(0.98646309,-0.16398348,0,1,0,0)"
         inkscape:connector-curvature="0" />
      <path
         id="rect1044"
         d="m 30.610857,251.72775 h 26.807118 c 0.235541,0 0.425165,0.18963 0.425165,0.42517 v 0.16444 c 0,0.23554 -0.189624,0.42516 -0.425165,0.42516 H 30.610857 c -0.235542,0 -0.425165,-0.18962 -0.425165,-0.42516 v -0.16444 c 0,-0.23554 0.189623,-0.42517 0.425165,-0.42517 z"
         style="opacity:1;fill:url(#radialGradient1053);fill-opacity:1;fill-rule:nonzero;stroke:none;stroke-width:0.29235509;stroke-linecap:round;stroke-linejoin:round;stroke-miterlimit:4;stroke-dasharray:none;stroke-dashoffset:0;stroke-opacity:1"
         transform="matrix(0.98395376,-0.17842364,0,1,0,0)"
         inkscape:connector-curvature="0" />
      <path
         sodipodi:nodetypes="ccssccssc"
         inkscape:connector-curvature="0"
         style="opacity:1;fill:url(#linearGradient1059);fill-opacity:1;fill-rule:nonzero;stroke:none;stroke-width:0.28999999;stroke-linecap:round;stroke-linejoin:round;stroke-miterlimit:4;stroke-dasharray:none;stroke-dashoffset:0;stroke-opacity:1"
         d="m 28.084298,235.10921 28.261566,-5.00918 c 0.231761,-0.042 0.418342,0.11377 0.418342,0.34931 v 0.16444 c 0,0.23554 -0.186581,0.459 -0.418342,0.50102 l -28.261566,5.00918 c -0.231762,0.042 -0.418343,-0.11376 -0.418343,-0.3493 v -0.16444 c 0,-0.23554 0.186581,-0.45901 0.418343,-0.50103 z"
         id="path1055" />
      <path
         inkscape:connector-curvature="0"
         id="path1067"
         d="m 30.530551,247.62344 v 25.63059"
         style="fill:none;stroke:#ffffff;stroke-width:0.26458332px;stroke-linecap:butt;stroke-linejoin:miter;stroke-opacity:0.26256983" />
      <path
         inkscape:connector-curvature="0"
         id="path1069"
         d="m 56.688825,236.39121 v 33.01823"
         style="fill:none;stroke:#ffffff;stroke-width:0.26458332px;stroke-linecap:butt;stroke-linejoin:miter;stroke-opacity:0.21229051" />
      <ellipse
         style="opacity:1;fill:url(#linearGradient895);fill-opacity:1;fill-rule:nonzero;stroke:none;stroke-width:0.21897909;stroke-linecap:round;stroke-linejoin:round;stroke-miterlimit:4;stroke-dasharray:none;stroke-dashoffset:0;stroke-opacity:1"
         id="ellipse893"
         cx="-73.234749"
         cy="263.53827"
         rx="6.4129553"
         ry="4.287291"
         transform="matrix(0.92417796,-0.38196217,0.33957831,0.94057779,0,0)" />
      <ellipse
         transform="matrix(0.92417796,-0.38196217,0.33957831,0.94057779,0,0)"
         ry="4.287291"
         rx="6.4129553"
         cy="270.54123"
         cx="-47.503536"
         id="ellipse904"
         style="opacity:1;fill:url(#linearGradient906);fill-opacity:1;fill-rule:nonzero;stroke:none;stroke-width:0.21897909;stroke-linecap:round;stroke-linejoin:round;stroke-miterlimit:4;stroke-dasharray:none;stroke-dashoffset:0;stroke-opacity:1" />
    </g>
  </g>
</svg>
