<?xml version="1.0" encoding="UTF-8" standalone="no"?>
<!-- Created with Inkscape (http://www.inkscape.org/) -->

<svg
   xmlns:dc="http://purl.org/dc/elements/1.1/"
   xmlns:cc="http://creativecommons.org/ns#"
   xmlns:rdf="http://www.w3.org/1999/02/22-rdf-syntax-ns#"
   xmlns:svg="http://www.w3.org/2000/svg"
   xmlns="http://www.w3.org/2000/svg"
   xmlns:xlink="http://www.w3.org/1999/xlink"
   xmlns:sodipodi="http://sodipodi.sourceforge.net/DTD/sodipodi-0.dtd"
   xmlns:inkscape="http://www.inkscape.org/namespaces/inkscape"
   width="255"
   height="255"
   viewBox="0 0 67.468749 67.468749"
   version="1.1"
   id="svg8"
   inkscape:version="0.92.5 (2060ec1f9f, 2020-04-08)"
   sodipodi:docname="nemo-autorun-software.svg">
  <defs
     id="defs2">
    <linearGradient
       inkscape:collect="always"
       id="linearGradient907">
      <stop
         style="stop-color:#000000;stop-opacity:1;"
         offset="0"
         id="stop903" />
      <stop
         style="stop-color:#ffffff;stop-opacity:1"
         offset="1"
         id="stop905" />
    </linearGradient>
    <clipPath
       clipPathUnits="userSpaceOnUse"
       id="clipPath2059">
      <path
         d="m -10.099732,231.68531 c 3.5587363,2.50616 4.8319716,-0.58528 2.9651647,-3.064 -3.1818907,-4.22486 -6.4443207,-9.83985 -12.3548527,-15.91305 -2.594516,-2.66865 -11.860659,-7.80827 -11.860659,-7.80827 0,0 -0.115438,-2.18844 -0.09884,-3.064 0.01106,-0.582 -0.565687,-0.56369 -0.889553,-0.29652 -0.782426,0.64546 -2.47097,2.56981 -2.47097,2.56981 l -1.68026,-0.0988 -1.087226,-1.58142 c -0.296516,-0.41055 -0.636056,-0.34641 -0.88955,0 -0.545383,1.84962 -0.878698,3.8848 -3.459359,3.95355 l 4.447747,3.95356 c 7.76561,1.55335 15.578734,5.58545 20.261957,14.33163 0,0 4.526451,5.19364 7.116396,7.01755 z"
         id="path2061"
         sodipodi:nodetypes="csscsscccccccs"
         inkscape:connector-curvature="0"
         stroke-dasharray="none"
         stroke-opacity="1"
         fill="#ffffff"
         fill-rule="evenodd"
         stroke="none"
         stroke-linejoin="miter"
         fill-opacity="1"
         stroke-linecap="butt"
         stroke-width="0.048"
         stroke-miterlimit="4" />
    </clipPath>
    <clipPath
       id="clipPath2059-5"
       clipPathUnits="userSpaceOnUse">
      <path
         stroke-miterlimit="4"
         stroke-width="0.048"
         stroke-linecap="butt"
         fill-opacity="1"
         stroke-linejoin="miter"
         stroke="none"
         fill-rule="evenodd"
         fill="#ffffff"
         stroke-opacity="1"
         stroke-dasharray="none"
         inkscape:connector-curvature="0"
         sodipodi:nodetypes="csscsscccccccs"
         id="path2061-3"
         d="m -10.099732,231.68531 c 3.5587363,2.50616 4.8319716,-0.58528 2.9651647,-3.064 -3.1818907,-4.22486 -6.4443207,-9.83985 -12.3548527,-15.91305 -2.594516,-2.66865 -11.860659,-7.80827 -11.860659,-7.80827 0,0 -0.115438,-2.18844 -0.09884,-3.064 0.01106,-0.582 -0.565687,-0.56369 -0.889553,-0.29652 -0.782426,0.64546 -2.47097,2.56981 -2.47097,2.56981 l -1.68026,-0.0988 -1.087226,-1.58142 c -0.296516,-0.41055 -0.636056,-0.34641 -0.88955,0 -0.545383,1.84962 -0.878698,3.8848 -3.459359,3.95355 l 4.447747,3.95356 c 7.76561,1.55335 15.578734,5.58545 20.261957,14.33163 0,0 4.526451,5.19364 7.116396,7.01755 z" />
    </clipPath>
    <clipPath
       id="clipPath">
      <path
         fill-opacity="0.95"
         stroke="none"
         fill="#1b1b1b"
         sodipodi:nodetypes="csssscc"
         inkscape:connector-curvature="0"
         id="rect5264"
         d="m -515.73002,435.56445 v 5.83767 c 0,9.74315 -7.84377,17.58692 -17.58692,17.58692 h -135.05122 c -9.74315,0 -17.58692,-7.84377 -17.58692,-17.58692 v -5.83767 z" />
    </clipPath>
    <clipPath
       clipPathUnits="userSpaceOnUse"
       id="clipPath2059-7">
      <path
         d="m -10.099732,231.68531 c 3.5587363,2.50616 4.8319716,-0.58528 2.9651647,-3.064 -3.1818907,-4.22486 -6.4443207,-9.83985 -12.3548527,-15.91305 -2.594516,-2.66865 -11.860659,-7.80827 -11.860659,-7.80827 0,0 -0.115438,-2.18844 -0.09884,-3.064 0.01106,-0.582 -0.565687,-0.56369 -0.889553,-0.29652 -0.782426,0.64546 -2.47097,2.56981 -2.47097,2.56981 l -1.68026,-0.0988 -1.087226,-1.58142 c -0.296516,-0.41055 -0.636056,-0.34641 -0.88955,0 -0.545383,1.84962 -0.878698,3.8848 -3.459359,3.95355 l 4.447747,3.95356 c 7.76561,1.55335 15.578734,5.58545 20.261957,14.33163 0,0 4.526451,5.19364 7.116396,7.01755 z"
         id="path2061-5"
         sodipodi:nodetypes="csscsscccccccs"
         inkscape:connector-curvature="0"
         stroke-dasharray="none"
         stroke-opacity="1"
         fill="#ffffff"
         fill-rule="evenodd"
         stroke="none"
         stroke-linejoin="miter"
         fill-opacity="1"
         stroke-linecap="butt"
         stroke-width="0.048"
         stroke-miterlimit="4" />
    </clipPath>
    <clipPath
       clipPathUnits="userSpaceOnUse"
       id="clipPath1162">
      <path
         stroke-miterlimit="4"
         stroke-width="0.071"
         stroke-linecap="round"
         fill-opacity="0.347"
         stroke-linejoin="round"
         stroke="none"
         fill="#000000"
         stroke-opacity="1"
         stroke-dasharray="none"
         inkscape:connector-curvature="0"
         d="m -65.649736,239.84563 c -9.358079,0 -16.951888,7.59381 -16.951888,16.95188 0,9.35808 7.593811,16.94076 16.951888,16.94077 0.292439,0 0.578792,-0.008 0.867614,-0.0222 2.122786,-0.10753 4.148336,-0.60587 5.995453,-1.42378 l 2.669587,3.97101 c -0.225515,0.4951 -0.245107,0.96445 -0.01111,1.31255 l 15.67271,23.32553 c 0.495366,0.73695 1.94415,0.6317 3.247998,-0.24471 1.303846,-0.87642 1.96364,-2.17735 1.468276,-2.9143 L -51.42304,274.4168 c -0.233058,-0.34672 -0.682887,-0.49868 -1.22356,-0.47831 l -2.558357,-3.80416 c 3.95991,-3.10036 6.507123,-7.91951 6.507123,-13.33682 0,-9.35807 -7.593809,-16.95188 -16.951889,-16.95188 z m 0,2.5806 c 7.92884,0 14.371283,6.44244 14.371283,14.37128 0,7.92885 -6.442435,14.36016 -14.371283,14.36016 -7.928851,0 -14.349039,-6.43131 -14.349039,-14.36016 0,-0.24777 -0.0013,-0.48941 0.01111,-0.73413 0.384376,-7.58638 6.656848,-13.63715 14.337916,-13.63715 z"
         id="path1164" />
    </clipPath>
    <linearGradient
       id="linearGradient3166">
      <stop
         stop-opacity="1"
         stop-color="#000000"
         id="stop3168" />
      <stop
         stop-opacity="0"
         stop-color="#7c7c7c"
         id="stop3170"
         offset="1" />
    </linearGradient>
    <linearGradient
       id="linearGradient3156">
      <stop
         stop-opacity="1"
         stop-color="#000000"
         id="stop3158" />
      <stop
         stop-opacity="1"
         stop-color="#7c7c7c"
         offset="1"
         id="stop3160" />
    </linearGradient>
    <linearGradient
       inkscape:collect="always"
       xlink:href="#linearGradient3166"
       id="linearGradient2409"
       gradientUnits="userSpaceOnUse"
       spreadMethod="reflect"
       x1="12.421"
       y1="18.08"
       x2="17.04"
       y2="24.23"
       gradientTransform="matrix(7.1004449,0,0,7.1004449,-33.113462,157.46733)" />
    <linearGradient
       inkscape:collect="always"
       xlink:href="#linearGradient3156"
       id="linearGradient2412"
       gradientUnits="userSpaceOnUse"
       spreadMethod="reflect"
       x1="8.203"
       y1="20.15"
       x2="18.441"
       y2="10.31"
       gradientTransform="matrix(7.1004449,0,0,7.1004449,-33.113462,157.46733)" />
    <linearGradient
       id="linearGradient4255"
       inkscape:collect="always">
      <stop
         id="stop4257"
         offset="0"
         style="stop-color:#ef6b6b;stop-opacity:1" />
      <stop
         id="stop4259"
         offset="1"
         style="stop-color:#920909;stop-opacity:1" />
    </linearGradient>
    <linearGradient
       id="linearGradient4239"
       inkscape:collect="always">
      <stop
         id="stop4241"
         offset="0"
         style="stop-color:#d5d5d5;stop-opacity:0" />
      <stop
         id="stop4243"
         offset="1"
         style="stop-color:#505050;stop-opacity:0.68484849" />
    </linearGradient>
    <linearGradient
       id="linearGradient4207"
       inkscape:collect="always">
      <stop
         id="stop4209"
         offset="0"
         style="stop-color:#505050;stop-opacity:1" />
      <stop
         id="stop4211"
         offset="1"
         style="stop-color:#b3b3b3;stop-opacity:1" />
    </linearGradient>
    <linearGradient
       id="linearGradient4199"
       inkscape:collect="always">
      <stop
         id="stop4201"
         offset="0"
         style="stop-color:#575757;stop-opacity:1" />
      <stop
         id="stop4203"
         offset="1"
         style="stop-color:#909090;stop-opacity:1" />
    </linearGradient>
    <linearGradient
       inkscape:collect="always"
       id="linearGradient4240">
      <stop
         style="stop-color:#eedfac;stop-opacity:1"
         offset="0"
         id="stop4242" />
      <stop
         id="stop4246"
         offset="0.25701317"
         style="stop-color:#f4dc64;stop-opacity:1" />
      <stop
         style="stop-color:#a08d0a;stop-opacity:1"
         offset="1"
         id="stop4248" />
    </linearGradient>
    <linearGradient
       id="linearGradient4198"
       inkscape:collect="always">
      <stop
         id="stop4200"
         offset="0"
         style="stop-color:#008bb3;stop-opacity:1" />
      <stop
         id="stop4202"
         offset="1"
         style="stop-color:#0030b3;stop-opacity:1" />
    </linearGradient>
    <linearGradient
       id="linearGradient4174"
       inkscape:collect="always">
      <stop
         id="stop4176"
         offset="0"
         style="stop-color:#ece2b1;stop-opacity:1" />
      <stop
         style="stop-color:#d1b444;stop-opacity:1"
         offset="0.70992684"
         id="stop4182" />
      <stop
         id="stop4178"
         offset="1"
         style="stop-color:#cdc46f;stop-opacity:1" />
    </linearGradient>
    <radialGradient
       gradientUnits="userSpaceOnUse"
       gradientTransform="matrix(0.58247278,0.47983416,-0.3952597,0.47980747,-94.674386,-155.72828)"
       r="40.989464"
       fy="178.90813"
       fx="531.60272"
       cy="178.90813"
       cx="531.60272"
       id="radialGradient4180"
       xlink:href="#linearGradient4174"
       inkscape:collect="always" />
    <radialGradient
       spreadMethod="reflect"
       gradientUnits="userSpaceOnUse"
       gradientTransform="matrix(0.75620626,0,0,1.2783486,-261.689,35.05445)"
       r="9.4170408"
       fy="14.142693"
       fx="428.25113"
       cy="14.142693"
       cx="428.25113"
       id="radialGradient4204"
       xlink:href="#linearGradient4198"
       inkscape:collect="always" />
    <radialGradient
       spreadMethod="reflect"
       gradientUnits="userSpaceOnUse"
       gradientTransform="matrix(0.75617136,-0.00726527,0.00485327,0.50512939,-262.07087,83.099086)"
       r="139.74326"
       fy="82.228989"
       fx="493.07504"
       cy="82.228989"
       cx="493.07504"
       id="radialGradient4238"
       xlink:href="#linearGradient4240"
       inkscape:collect="always" />
    <radialGradient
       gradientUnits="userSpaceOnUse"
       gradientTransform="matrix(1.2542441,0.01059351,-0.00568676,0.67329782,-55.507406,45.519239)"
       r="26.761616"
       fy="140.19518"
       fx="221.45908"
       cy="140.19518"
       cx="221.45908"
       id="radialGradient4173"
       xlink:href="#linearGradient4174"
       inkscape:collect="always" />
    <radialGradient
       gradientUnits="userSpaceOnUse"
       gradientTransform="matrix(1,0,0,1.1939604,0,-23.99633)"
       r="16.744467"
       fy="123.71766"
       fx="163.69748"
       cy="123.71766"
       cx="163.69748"
       id="radialGradient4181"
       xlink:href="#linearGradient4174"
       inkscape:collect="always" />
    <radialGradient
       gradientUnits="userSpaceOnUse"
       gradientTransform="matrix(1,0,0,0.6145063,0,77.349735)"
       r="22.135887"
       fy="200.65109"
       fx="39.003971"
       cy="200.65109"
       cx="39.003971"
       id="radialGradient4197"
       xlink:href="#linearGradient4174"
       inkscape:collect="always" />
    <linearGradient
       gradientTransform="matrix(0.75620626,0,0,0.75620626,-261.689,43.269998)"
       spreadMethod="reflect"
       gradientUnits="userSpaceOnUse"
       y2="4.2158337"
       x2="434.68219"
       y1="12.713122"
       x1="434.96701"
       id="linearGradient4205"
       xlink:href="#linearGradient4199"
       inkscape:collect="always" />
    <linearGradient
       gradientTransform="matrix(0.75620626,0,0,0.75620626,-261.689,43.269998)"
       spreadMethod="reflect"
       gradientUnits="userSpaceOnUse"
       y2="39.48278"
       x2="451.71622"
       y1="39.48278"
       x1="458.75699"
       id="linearGradient4213"
       xlink:href="#linearGradient4207"
       inkscape:collect="always" />
    <radialGradient
       spreadMethod="reflect"
       gradientUnits="userSpaceOnUse"
       gradientTransform="matrix(1.6647228,-0.19294281,0.18144992,1.5655614,-59.66264,-12.755573)"
       r="7.0519018"
       fy="55.57975"
       fx="73.157623"
       cy="55.57975"
       cx="73.157623"
       id="radialGradient4245"
       xlink:href="#linearGradient4239"
       inkscape:collect="always" />
    <radialGradient
       spreadMethod="reflect"
       gradientUnits="userSpaceOnUse"
       gradientTransform="matrix(1,0,0,0.43656416,0,55.920595)"
       r="26.453493"
       fy="90.509979"
       fx="99.988289"
       cy="90.509979"
       cx="99.988289"
       id="radialGradient4261"
       xlink:href="#linearGradient4255"
       inkscape:collect="always" />
    <radialGradient
       r="7.0519018"
       fy="55.57975"
       fx="73.157623"
       cy="55.57975"
       cx="73.157623"
       spreadMethod="reflect"
       gradientTransform="matrix(1.6647228,-0.19294281,0.18144992,1.5655614,-59.66264,-12.755573)"
       gradientUnits="userSpaceOnUse"
       id="radialGradient4284"
       xlink:href="#linearGradient4239"
       inkscape:collect="always" />
    <radialGradient
       r="9.4170408"
       fy="14.142693"
       fx="428.25113"
       cy="14.142693"
       cx="428.25113"
       spreadMethod="reflect"
       gradientTransform="matrix(0.75620626,0,0,1.2783486,-261.689,35.05445)"
       gradientUnits="userSpaceOnUse"
       id="radialGradient4288"
       xlink:href="#linearGradient4198"
       inkscape:collect="always" />
    <linearGradient
       inkscape:collect="always"
       xlink:href="#linearGradient4207"
       id="linearGradient1464"
       gradientUnits="userSpaceOnUse"
       gradientTransform="matrix(0.75620626,0,0,0.75620626,-261.689,43.269998)"
       x1="458.75699"
       y1="39.48278"
       x2="451.71622"
       y2="39.48278"
       spreadMethod="reflect" />
    <linearGradient
       inkscape:collect="always"
       xlink:href="#linearGradient4199"
       id="linearGradient1466"
       gradientUnits="userSpaceOnUse"
       gradientTransform="matrix(0.75620626,0,0,0.75620626,-261.689,43.269998)"
       x1="434.96701"
       y1="12.713122"
       x2="434.68219"
       y2="4.2158337"
       spreadMethod="reflect" />
    <linearGradient
       inkscape:collect="always"
       xlink:href="#linearGradient907"
       id="linearGradient909"
       x1="125.87809"
       y1="358.33264"
       x2="120.40026"
       y2="188.92558"
       gradientUnits="userSpaceOnUse" />
    <filter
       inkscape:collect="always"
       style="color-interpolation-filters:sRGB"
       id="filter917"
       x="-0.021131984"
       width="1.042264"
       y="-0.027768752"
       height="1.0555375">
      <feGaussianBlur
         inkscape:collect="always"
         stdDeviation="0.55884344"
         id="feGaussianBlur919" />
    </filter>
    <filter
       inkscape:collect="always"
       style="color-interpolation-filters:sRGB"
       id="filter1050"
       x="-0.020720527"
       width="1.0414411"
       y="-0.028512763"
       height="1.0570255">
      <feGaussianBlur
         inkscape:collect="always"
         stdDeviation="0.44833537"
         id="feGaussianBlur1052" />
    </filter>
  </defs>
  <sodipodi:namedview
     id="base"
     pagecolor="#ff0000"
     bordercolor="#666666"
     borderopacity="1.0"
     inkscape:pageopacity="0"
     inkscape:pageshadow="2"
     inkscape:zoom="3.5254902"
     inkscape:cx="127.5"
     inkscape:cy="127.5"
     inkscape:document-units="px"
     inkscape:current-layer="layer1"
     showgrid="false"
     inkscape:snap-to-guides="false"
     inkscape:snap-grids="false"
     inkscape:snap-others="false"
     inkscape:object-nodes="false"
     inkscape:snap-nodes="false"
     inkscape:snap-global="false"
     inkscape:window-width="1920"
     inkscape:window-height="1056"
     inkscape:window-x="0"
     inkscape:window-y="0"
     inkscape:window-maximized="1"
     units="px"
     showguides="false" />
  <metadata
     id="metadata5">
    <rdf:RDF>
      <cc:Work>
        <dc:format>image/svg+xml</dc:format>
        <dc:type
           rdf:resource="http://purl.org/dc/dcmitype/StillImage" />
        <dc:title />
      </cc:Work>
    </rdf:RDF>
  </metadata>
  <g
     inkscape:label="Layer 1"
     inkscape:groupmode="layer"
     id="layer1"
     transform="translate(0,-229.53126)">
    <rect
       style="opacity:1;fill:#000000;fill-opacity:1;stroke:none;stroke-width:0.55615413;stroke-miterlimit:4;stroke-dasharray:none;stroke-opacity:1;filter:url(#filter917)"
       id="rect911"
       width="63.468922"
       height="48.299767"
       x="1.2829628"
       y="237.60638"
       ry="4.9054461" />
    <g
       id="g1233"
       transform="matrix(0.28822916,0,0,0.28822916,10.668276,181.96344)">
      <rect
         rx="13.228076"
         stroke-miterlimit="4"
         ry="13.228076"
         y="193.11856"
         x="-27.410599"
         height="159.71191"
         width="213.90858"
         id="rect2384"
         style="fill:url(#linearGradient2412);fill-opacity:1;stroke:url(#linearGradient909);stroke-width:7.10059881;stroke-linecap:round;stroke-linejoin:round;stroke-miterlimit:4;stroke-dasharray:none;stroke-opacity:0.69100001" />
      <rect
         rx="10.415586"
         stroke-miterlimit="4"
         id="rect3164"
         width="208.01173"
         height="154.46193"
         x="-23.604364"
         y="195.4951"
         ry="10.415586"
         style="fill:url(#linearGradient2409);fill-opacity:1;stroke:none;stroke-width:0.90655917;stroke-linecap:round;stroke-linejoin:round;stroke-miterlimit:4;stroke-dasharray:none;stroke-opacity:1" />
      <g
         transform="matrix(0.93749653,0,0,0.93749653,-34.929322,126.56099)"
         font-size="22.578"
         font-variant="normal"
         letter-spacing="0"
         font-stretch="normal"
         font-weight="bold"
         line-height="1.25"
         word-spacing="0"
         font-style="normal"
         id="text1541"
         aria-label="User #&gt;_"
         style="font-style:normal;font-variant:normal;font-weight:bold;font-stretch:normal;font-size:22.57799911px;line-height:1.25;font-family:'Arial Black';letter-spacing:0;word-spacing:0;fill:#ffffff;fill-opacity:1;stroke:none;stroke-width:0.26499999">
        <path
           font-variant="normal"
           font-stretch="normal"
           font-weight="bold"
           font-style="normal"
           id="path1543"
           d="m 34.458008,81.122136 h 4.982986 v 9.635243 q 0,1.43316 -0.451997,2.711979 -0.440972,1.267795 -1.400087,2.22691 -0.94809,0.94809 -1.995399,1.333941 -1.455208,0.540191 -3.494705,0.540191 -1.1796,0 -2.579687,-0.165365 -1.389063,-0.165365 -2.326129,-0.650434 -0.937066,-0.496094 -1.719791,-1.400087 -0.771702,-0.903993 -1.058334,-1.863107 -0.463021,-1.543403 -0.463021,-2.734028 v -9.635243 h 4.982986 v 9.866753 q 0,1.322917 0.727605,2.07257 0.738628,0.738628 2.039496,0.738628 1.289844,0 2.017448,-0.727604 0.738629,-0.738629 0.738629,-2.083594 z"
           inkscape:connector-curvature="0"
           style="font-style:normal;font-variant:normal;font-weight:bold;font-stretch:normal;font-family:'Arial Black';fill:#ffffff;fill-opacity:1;stroke-width:0.26499999" />
        <path
           font-variant="normal"
           font-stretch="normal"
           font-weight="bold"
           font-style="normal"
           id="path1545"
           d="m 41.678927,94.042622 4.45382,-0.418924 q 0.275607,0.79375 0.771701,1.135504 0.496094,0.341753 1.322917,0.341753 0.903993,0 1.400087,-0.385851 0.38585,-0.286631 0.38585,-0.716579 0,-0.48507 -0.507118,-0.749653 -0.363802,-0.187413 -1.929253,-0.463021 -2.337153,-0.407899 -3.25217,-0.749653 -0.903993,-0.352778 -1.532379,-1.1796 -0.617361,-0.826823 -0.617361,-1.885157 0,-1.157552 0.672483,-1.995399 0.672482,-0.837847 1.852083,-1.245747 1.179601,-0.418923 3.163976,-0.418923 2.094618,0 3.086805,0.319705 1.003212,0.319705 1.664671,0.992187 0.672482,0.672483 1.113454,1.819011 l -4.255382,0.418923 q -0.165364,-0.562239 -0.551215,-0.826823 -0.529167,-0.352777 -1.278819,-0.352777 -0.760677,0 -1.113455,0.275607 -0.341754,0.264583 -0.341754,0.650434 0,0.429948 0.440973,0.650434 0.440972,0.220486 1.918229,0.396875 2.237934,0.253559 3.32934,0.705556 1.091406,0.451996 1.66467,1.289844 0.584288,0.837847 0.584288,1.841059 0,1.014236 -0.617361,1.97335 -0.606337,0.959115 -1.929253,1.532379 -1.311893,0.562239 -3.5829,0.562239 -3.208072,0 -4.575086,-0.915017 -1.35599,-0.915017 -1.741841,-2.601736 z"
           inkscape:connector-curvature="0"
           style="font-style:normal;font-variant:normal;font-weight:bold;font-stretch:normal;font-family:'Arial Black';fill:#ffffff;fill-opacity:1;stroke-width:0.26499999" />
        <path
           font-variant="normal"
           font-stretch="normal"
           font-weight="bold"
           font-style="normal"
           id="path1547"
           d="m 69.272763,92.543316 h -8.995834 q 0.121268,1.080382 0.584289,1.609549 0.650434,0.760677 1.697743,0.760677 0.661458,0 1.256771,-0.330729 0.363802,-0.209462 0.782725,-0.738629 l 4.420747,0.4079 q -1.014236,1.763889 -2.447396,2.53559 -1.43316,0.760677 -4.112066,0.760677 -2.326128,0 -3.660069,-0.650434 -1.333941,-0.661458 -2.215886,-2.083594 -0.87092,-1.433159 -0.87092,-3.362413 0,-2.745052 1.752865,-4.442795 1.763888,-1.697743 4.861718,-1.697743 2.513542,0 3.96875,0.760677 1.455209,0.760677 2.215886,2.204861 0.760677,1.444184 0.760677,3.759288 z M 64.7087,90.393577 q -0.132291,-1.300868 -0.705555,-1.863108 -0.56224,-0.56224 -1.488281,-0.56224 -1.069358,0 -1.708768,0.848872 -0.407899,0.529167 -0.518142,1.576476 z"
           inkscape:connector-curvature="0"
           style="font-style:normal;font-variant:normal;font-weight:bold;font-stretch:normal;font-family:'Arial Black';fill:#ffffff;fill-opacity:1;stroke-width:0.26499999" />
        <path
           font-variant="normal"
           font-stretch="normal"
           font-weight="bold"
           font-style="normal"
           id="path1549"
           d="m 71.400457,85.575955 h 4.20026 v 1.918229 q 0.606337,-1.245746 1.245747,-1.708767 0.650434,-0.474045 1.598524,-0.474045 0.992188,0 2.171788,0.617361 l -1.389062,3.197049 q -0.79375,-0.33073 -1.256771,-0.33073 -0.881944,0 -1.367014,0.727605 -0.694531,1.02526 -0.694531,3.836458 v 3.924653 h -4.508941 z"
           inkscape:connector-curvature="0"
           style="font-style:normal;font-variant:normal;font-weight:bold;font-stretch:normal;font-family:'Arial Black';fill:#ffffff;fill-opacity:1;stroke-width:0.26499999" />
        <path
           font-variant="normal"
           font-stretch="normal"
           font-weight="bold"
           font-style="normal"
           id="path1551"
           d="m 90.340209,90.625087 0.573264,-2.789149 h -2.700955 v -3.042709 h 3.307292 l 0.782725,-3.946701 h 3.141928 l -0.804775,3.946701 h 2.414323 l 0.79375,-3.946701 h 3.130899 l -0.7717,3.946701 h 1.51033 v 3.042709 h -2.127689 l -0.562239,2.789149 h 2.689928 v 3.042708 h -3.296265 l -0.782726,3.880556 h -3.141927 l 0.771702,-3.880556 h -2.403299 l -0.79375,3.880556 h -3.119878 l 0.804774,-3.880556 h -1.543403 v -3.042708 z m 3.130903,0 h 2.414323 l 0.573264,-2.789149 H 94.0554 Z"
           inkscape:connector-curvature="0"
           style="font-style:normal;font-variant:normal;font-weight:bold;font-stretch:normal;font-family:'Arial Black';fill:#ffffff;fill-opacity:1;stroke-width:0.26499999" />
        <path
           font-variant="normal"
           font-stretch="normal"
           font-weight="bold"
           font-style="normal"
           id="path1553"
           d="m 103.64655,96.049045 12.53463,-5.214496 v -3.263195 l -12.53463,-5.203472 v 3.913629 l 7.61779,2.932465 -7.61779,2.94349 z"
           inkscape:connector-curvature="0"
           style="font-style:normal;font-variant:normal;font-weight:bold;font-stretch:normal;font-family:'Arial Black';fill:#ffffff;fill-opacity:1;stroke-width:0.26499999" />
        <path
           font-variant="normal"
           font-stretch="normal"
           font-weight="bold"
           font-style="normal"
           id="path1555"
           d="m 117.22849,98.981511 h 11.55347 v 1.124479 h -11.55347 z"
           inkscape:connector-curvature="0"
           style="font-style:normal;font-variant:normal;font-weight:bold;font-stretch:normal;font-family:'Arial Black';fill:#ffffff;fill-opacity:1;stroke-width:0.26499999" />
      </g>
    </g>
    <path
       style="fill:#000000;fill-opacity:0.73255813;fill-rule:evenodd;stroke:none;stroke-width:0.16498391px;stroke-linecap:butt;stroke-linejoin:miter;stroke-opacity:1;filter:url(#filter1050)"
       d="m 22.550441,251.95949 a 1.5536603,2.6264257 0 0 0 -0.529683,0.15968 1.5536603,2.6264257 0 0 0 -0.136427,-0.0119 1.5536603,2.6264257 0 0 0 -1.553392,2.62671 1.5536603,2.6264257 0 0 0 1.553392,2.6262 1.5536603,2.6264257 0 0 0 0.530201,-0.15968 1.5536603,2.6264257 0 0 0 0.135909,0.0119 1.5536603,2.6264257 0 0 0 0.801502,-0.37983 c 0.341157,0.0727 0.495181,0.30109 0.424781,0.71676 l -0.214974,4.88755 c -1.023647,0.28517 -1.920642,0.73298 -2.530597,1.28623 -2.454251,0.85394 -4.609571,2.2761 -6.281269,3.73775 a 2.7878204,5.5252214 24.881666 0 0 -2.979663,3.27887 c -0.252656,0.37886 -0.450305,0.72541 -0.571024,1.01441 l -2.4411966,5.84461 c -0.8651079,2.07102 -0.217823,4.98657 1.7869716,7.14116 -0.07663,0.21481 -0.132453,0.46764 -0.159162,0.77515 -0.6729356,4.54747 1.580451,5.44723 7.767999,2.3983 4.990632,1.09499 9.959398,1.95767 14.649236,-0.1049 l 1.319816,-0.26768 c 0.71819,0.79215 1.528667,1.48805 2.675289,1.74769 4.255184,0.96355 6.026799,-1.42118 6.018237,-3.51193 l 0.19637,-0.0398 -0.0072,-0.0574 0.08113,-0.0165 -0.0057,-0.0439 c 3.902239,-2.04015 7.019144,-4.68049 9.003585,-8.54367 2.152366,-0.17334 4.579635,0.57807 6.686413,0.0796 2.44457,-0.5784 1.522242,-1.56898 0.370004,-4.2168 -0.566974,-1.3029 -2.899309,-1.96154 -5.088062,-1.94045 0.338094,-1.95677 0.488776,-4.13174 0.426848,-6.56756 -0.06023,-2.36898 -1.437763,-3.75735 -3.180168,-3.79977 -1.537421,-0.0374 -3.358357,0.97263 -4.809526,3.28146 -0.569153,0.90553 -0.905395,2.00111 -1.18339,3.13934 l -1.036629,-0.99374 c -0.958831,-1.13861 -8.156383,0.16436 -4.1429,5.1046 0.794576,0.97805 1.512018,1.79326 2.406572,2.46807 -0.497322,0.3745 -1.105139,0.65266 -1.859835,0.8046 -0.575892,-1.21415 -1.232946,-2.428 -1.952336,-3.64215 -2.596885,-3.56085 -5.294315,-5.70528 -7.941116,-6.843 -0.666832,-0.77179 -1.559536,-1.27472 -2.547133,-1.55908 l -0.196369,-4.29793 c -0.05806,-0.32966 0.06891,-0.51086 0.350367,-0.56844 a 1.2807577,2.0822127 0 0 0 0.660423,0.30128 1.2807577,2.0822127 0 0 0 0.112655,-0.009 1.2807577,2.0822127 0 0 0 0.436149,0.1266 1.2807577,2.0822127 0 0 0 1.28106,-2.08256 1.2807577,2.0822127 0 0 0 -1.28106,-2.08204 1.2807577,2.0822127 0 0 0 -0.112654,0.009 1.2807577,2.0822127 0 0 0 -0.43615,-0.12661 1.2807577,2.0822127 0 0 0 -0.968933,0.72451 l -0.06666,0.003 c -0.64503,-0.0423 -1.116041,0.35 -1.380794,0.84026 -0.27369,0.45942 -0.3898,1.12796 -0.209291,2.06034 5.61e-4,7e-5 0.0015,-8e-5 0.0021,0 l 0.163298,4.82244 c -0.344739,-0.0209 -0.691547,-0.02 -1.036111,-0.001 l 0.181383,-5.57382 c 7.03e-4,-1e-4 0.0019,10e-5 0.0026,0 0.218953,-1.17596 0.07873,-2.01984 -0.253215,-2.59933 -0.321151,-0.61846 -0.892818,-1.11322 -1.675349,-1.05988 l -0.08062,-0.004 a 1.5536603,2.6264257 0 0 0 -1.175639,-0.91415 z"
       id="path921"
       inkscape:connector-curvature="0" />
    <g
       id="g1462"
       transform="matrix(0.21817317,0,0,0.21817317,8.9182925,240.30101)">
      <path
         sodipodi:nodetypes="ccscc"
         inkscape:connector-curvature="0"
         id="path4148"
         d="m 180.84426,113.66416 -8.13854,-7.79944 c -4.39482,-5.21885 -37.3858,0.75466 -18.98994,23.39831 4.72318,5.8138 8.83484,10.38118 14.92067,13.90334 z"
         style="fill:url(#radialGradient4181);fill-opacity:1;fill-rule:evenodd;stroke:none;stroke-width:0.75620627px;stroke-linecap:butt;stroke-linejoin:miter;stroke-opacity:1" />
      <path
         sodipodi:nodetypes="cccc"
         inkscape:connector-curvature="0"
         id="path4152"
         d="m 31.97675,188.26747 29.163109,13.56423 c -34.575837,18.86501 -47.109752,15.95805 -43.744664,-6.78211 0.844206,-9.71957 7.524464,-8.60076 14.581555,-6.78212 z"
         style="fill:url(#radialGradient4197);fill-opacity:1;fill-rule:evenodd;stroke:none;stroke-width:0.75620627px;stroke-linecap:butt;stroke-linejoin:miter;stroke-opacity:1" />
      <path
         inkscape:connector-curvature="0"
         id="path4225"
         d="m 204.92572,80.98874 c -7.04679,-0.171575 -15.39522,4.458862 -22.04667,15.041417 -9.86553,15.696193 -4.55865,43.782763 -26.65775,48.231783 -2.63961,-5.5651 -5.6516,-11.12904 -8.94893,-16.69414 C 92.731145,52.780903 28.539747,114.2255 21.124751,131.97655 L 9.9352652,158.76574 c -5.697643,13.63982 2.9009508,35.2782 23.7363088,43.06536 29.272813,5.95589 58.921781,15.84787 86.473366,3.73081 l 44.69002,-9.06857 0.0709,0.25108 c 0.28585,-0.14321 0.56368,-0.29265 0.84778,-0.43717 l 1.18748,-0.24075 -0.0414,-0.35004 c 33.06929,-17.17572 53.9676,-43.60374 52.60212,-97.311343 -0.27607,-10.858226 -6.58983,-17.221926 -14.57617,-17.416377 z"
         style="fill:url(#radialGradient4238);fill-opacity:1;fill-rule:evenodd;stroke:#64570b;stroke-width:2;stroke-linecap:butt;stroke-linejoin:miter;stroke-miterlimit:4;stroke-dasharray:none;stroke-opacity:1" />
      <path
         sodipodi:nodetypes="cccsscc"
         inkscape:connector-curvature="0"
         id="path4140"
         d="m 167.28002,195.7278 -46.79661,9.49496 C 92.931825,217.33982 63.284196,207.44849 34.011383,201.4926 13.176025,193.70544 4.5763192,172.06595 10.273963,158.42614 l 11.190499,-26.78937 c 7.414995,-17.75104 71.003783,-78.592863 125.545008,-3.80597 6.44293,10.87411 12.01882,21.74822 15.59228,32.62233"
         style="fill:none;fill-opacity:1;fill-rule:evenodd;stroke:#786400;stroke-width:2;stroke-linecap:round;stroke-linejoin:round;stroke-miterlimit:4;stroke-dasharray:none;stroke-opacity:1" />
      <path
         sodipodi:nodetypes="ccc"
         inkscape:connector-curvature="0"
         id="path4142"
         d="m 62.496282,101.11724 c -0.639581,10.50722 53.138498,13.51325 52.900538,3.73016 -7.06094,-26.236413 -50.209639,-18.128455 -52.900538,-3.73016 z"
         style="fill:url(#radialGradient4261);fill-opacity:1;fill-rule:evenodd;stroke:none;stroke-width:1px;stroke-linecap:butt;stroke-linejoin:miter;stroke-opacity:1" />
      <path
         sodipodi:nodetypes="csscc"
         inkscape:connector-curvature="0"
         id="path4146"
         d="m 199.83419,134.01051 c 7.28086,-8.50158 36.49495,-7.03461 41.03182,3.39107 5.2813,12.13633 9.5092,16.67791 -1.69552,19.32903 -15.45154,3.65595 -34.6642,-7.35493 -46.45752,7.79944 3.22093,-9.64368 7.89498,-18.37917 7.12122,-30.51954 z"
         style="fill:url(#radialGradient4173);fill-opacity:1;fill-rule:evenodd;stroke:none;stroke-width:0.75620627px;stroke-linecap:butt;stroke-linejoin:miter;stroke-opacity:1" />
      <path
         sodipodi:nodetypes="csscc"
         inkscape:connector-curvature="0"
         id="path4150"
         d="m 140.49066,163.51273 c 0.0289,11.08373 15.30977,13.61236 23.0592,24.41563 6.60968,9.21437 0.72602,30.26232 -25.09384,24.41562 -14.91657,-3.37773 -17.48789,-22.77618 -32.89328,-23.0592 12.096,-4.73706 24.55478,-6.39063 34.92792,-25.77205 z"
         style="fill:url(#radialGradient4180);fill-opacity:1;fill-rule:evenodd;stroke:none;stroke-width:3.29999995;stroke-linecap:butt;stroke-linejoin:miter;stroke-miterlimit:4;stroke-dasharray:none;stroke-opacity:1" />
      <ellipse
         ry="25.09384"
         rx="20.007252"
         cy="151.98314"
         cx="82.842644"
         id="path4184"
         style="opacity:1;fill:#6a77d7;fill-opacity:1;fill-rule:nonzero;stroke:#6b6b6b;stroke-width:2.34423923;stroke-linecap:round;stroke-linejoin:round;stroke-miterlimit:4;stroke-dasharray:none;stroke-opacity:1" />
      <ellipse
         transform="rotate(24.881667)"
         style="opacity:1;fill:#6a77d7;fill-opacity:1;fill-rule:nonzero;stroke:#6b6b6b;stroke-width:1.88204741;stroke-linecap:round;stroke-linejoin:round;stroke-miterlimit:4;stroke-dasharray:none;stroke-opacity:1"
         id="ellipse4186"
         cx="87.831718"
         cy="107.73392"
         rx="12.778016"
         ry="25.324936" />
      <path
         sodipodi:nodetypes="ccccc"
         inkscape:connector-curvature="0"
         id="path4188"
         d="m 28.246581,166.22558 c 12.517414,12.80087 25.977711,24.10885 49.170359,20.00725 l -0.678211,4.40838 C 53.753282,201.92007 33.752292,204.57716 26.890158,169.27754 Z"
         style="fill:#494949;fill-opacity:1;fill-rule:evenodd;stroke:#970000;stroke-width:0.75620627px;stroke-linecap:butt;stroke-linejoin:miter;stroke-opacity:1" />
      <ellipse
         ry="14.072897"
         rx="8.9863081"
         cy="151.81358"
         cx="89.455185"
         id="path4190"
         style="opacity:1;fill:#000000;fill-opacity:1;fill-rule:nonzero;stroke:none;stroke-width:3.0999999;stroke-linecap:round;stroke-linejoin:round;stroke-miterlimit:4;stroke-dasharray:none;stroke-opacity:1" />
      <ellipse
         transform="rotate(18.150155)"
         style="opacity:1;fill:#000000;fill-opacity:1;fill-rule:nonzero;stroke:none;stroke-width:3.0999999;stroke-linecap:round;stroke-linejoin:round;stroke-miterlimit:4;stroke-dasharray:none;stroke-opacity:1"
         id="ellipse4192"
         cx="76.21183"
         cy="116.22228"
         rx="8.9863081"
         ry="14.072897" />
      <g
         id="g4263">
        <path
           style="fill:url(#linearGradient1464);fill-opacity:1;fill-rule:evenodd;stroke:#686868;stroke-width:0.75620627px;stroke-linecap:butt;stroke-linejoin:miter;stroke-opacity:1"
           d="m 77.416944,97.726174 c -0.125515,4.424566 8.827755,3.701116 9.155865,0.339106 l 1.356423,-41.710031 c 0.36772,-4.567968 -2.956684,-11.3137 -9.017556,-10.900589 l -7.820757,-0.352406 -0.339105,18.650827 4.291391,-0.276605 c 2.784525,-0.153925 4.157418,0.868507 3.730169,3.391059 z"
           id="path4194"
           inkscape:connector-curvature="0"
           sodipodi:nodetypes="ccccccccc" />
        <path
           style="fill:url(#radialGradient4245);fill-opacity:1;fill-rule:evenodd;stroke:none;stroke-width:1px;stroke-linecap:butt;stroke-linejoin:miter;stroke-opacity:1"
           d="M 70.682731,63.028112 75.502008,45.759037 C 81.818405,44.389526 90.370927,48.153749 87.751004,62.2249 84.531657,62.690878 74.965959,60.969921 70.682731,63.028112 Z"
           id="path4227"
           inkscape:connector-curvature="0"
           sodipodi:nodetypes="cccc" />
        <g
           id="g4223"
           transform="translate(9.6385536,-1.2048193)">
          <ellipse
             style="opacity:1;fill:url(#linearGradient1466);fill-opacity:1;fill-rule:nonzero;stroke:none;stroke-width:2.29999995;stroke-linecap:round;stroke-linejoin:round;stroke-miterlimit:4;stroke-dasharray:none;stroke-opacity:1"
             id="ellipse4206"
             cx="63.513615"
             cy="54.490166"
             rx="7.1212254"
             ry="12.038261" />
          <ellipse
             ry="12.038261"
             rx="7.1212254"
             cy="55.168377"
             cx="60.461651"
             id="path4196"
             style="opacity:1;fill:url(#radialGradient4204);fill-opacity:1;fill-rule:nonzero;stroke:#5b5b5b;stroke-width:1.73927438;stroke-linecap:round;stroke-linejoin:round;stroke-miterlimit:4;stroke-dasharray:none;stroke-opacity:1" />
        </g>
      </g>
      <g
         transform="matrix(-0.82434861,0,0,0.79279325,163.23581,16.344138)"
         id="g4270">
        <path
           sodipodi:nodetypes="ccccccccc"
           inkscape:connector-curvature="0"
           id="path4272"
           d="m 77.416944,97.726174 c -0.125515,4.424566 8.827755,3.701116 9.155865,0.339106 l 1.356423,-41.710031 c 0.36772,-4.567968 -2.956684,-11.3137 -9.017556,-10.900589 l -7.820757,-0.352406 -0.339105,18.650827 4.291391,-0.276605 c 2.784525,-0.153925 4.157418,0.868507 3.730169,3.391059 z"
           style="fill:url(#linearGradient4213);fill-opacity:1;fill-rule:evenodd;stroke:#686868;stroke-width:0.75620627px;stroke-linecap:butt;stroke-linejoin:miter;stroke-opacity:1" />
        <path
           sodipodi:nodetypes="cccc"
           inkscape:connector-curvature="0"
           id="path4274"
           d="M 70.682731,63.028112 75.502008,45.759037 C 81.818405,44.389526 90.370927,48.153749 87.751004,62.2249 84.531657,62.690878 74.965959,60.969921 70.682731,63.028112 Z"
           style="fill:url(#radialGradient4284);fill-opacity:1;fill-rule:evenodd;stroke:none;stroke-width:1px;stroke-linecap:butt;stroke-linejoin:miter;stroke-opacity:1" />
        <g
           transform="translate(9.6385536,-1.2048193)"
           id="g4276">
          <ellipse
             ry="12.038261"
             rx="7.1212254"
             cy="54.490166"
             cx="63.513615"
             id="ellipse4278"
             style="opacity:1;fill:url(#linearGradient4205);fill-opacity:1;fill-rule:nonzero;stroke:none;stroke-width:2.29999995;stroke-linecap:round;stroke-linejoin:round;stroke-miterlimit:4;stroke-dasharray:none;stroke-opacity:1" />
          <ellipse
             style="opacity:1;fill:url(#radialGradient4288);fill-opacity:1;fill-rule:nonzero;stroke:#5b5b5b;stroke-width:1.73927438;stroke-linecap:round;stroke-linejoin:round;stroke-miterlimit:4;stroke-dasharray:none;stroke-opacity:1"
             id="ellipse4280"
             cx="60.461651"
             cy="55.168377"
             rx="7.1212254"
             ry="12.038261" />
        </g>
      </g>
    </g>
  </g>
</svg>
