<?xml version="1.0" encoding="UTF-8" standalone="no"?>
<!-- Created with Inkscape (http://www.inkscape.org/) -->

<svg
   xmlns:dc="http://purl.org/dc/elements/1.1/"
   xmlns:cc="http://creativecommons.org/ns#"
   xmlns:rdf="http://www.w3.org/1999/02/22-rdf-syntax-ns#"
   xmlns:svg="http://www.w3.org/2000/svg"
   xmlns="http://www.w3.org/2000/svg"
   xmlns:xlink="http://www.w3.org/1999/xlink"
   xmlns:sodipodi="http://sodipodi.sourceforge.net/DTD/sodipodi-0.dtd"
   xmlns:inkscape="http://www.inkscape.org/namespaces/inkscape"
   version="1.1"
   id="svg2"
   width="255"
   height="255"
   viewBox="0 0 255 255"
   sodipodi:docname="NVIDIA.svg"
   inkscape:version="0.92.5 (2060ec1f9f, 2020-04-08)">
  <metadata
     id="metadata8">
    <rdf:RDF>
      <cc:Work
         rdf:about="">
        <dc:format>image/svg+xml</dc:format>
        <dc:type
           rdf:resource="http://purl.org/dc/dcmitype/StillImage" />
        <dc:title></dc:title>
      </cc:Work>
    </rdf:RDF>
  </metadata>
  <defs
     id="defs6">
    <linearGradient
       inkscape:collect="always"
       id="linearGradient4549">
      <stop
         style="stop-color:#000000;stop-opacity:1;"
         offset="0"
         id="stop4545" />
      <stop
         style="stop-color:#d9d9d9;stop-opacity:1"
         offset="1"
         id="stop4547" />
    </linearGradient>
    <linearGradient
       inkscape:collect="always"
       xlink:href="#linearGradient4549"
       id="linearGradient4551"
       x1="-22.194798"
       y1="184.51237"
       x2="-14.638583"
       y2="68.675629"
       gradientUnits="userSpaceOnUse"
       gradientTransform="translate(346.68084,1.3823)" />
    <linearGradient
       inkscape:collect="always"
       xlink:href="#linearGradient4549"
       id="linearGradient4561"
       x1="2.2363939"
       y1="160.98198"
       x2="1.0529206"
       y2="95.184494"
       gradientUnits="userSpaceOnUse"
       gradientTransform="translate(346.68084,1.3823)" />
    <linearGradient
       inkscape:collect="always"
       xlink:href="#linearGradient4549"
       id="linearGradient4581"
       x1="134.36656"
       y1="213.68036"
       x2="136.80099"
       y2="26.516922"
       gradientUnits="userSpaceOnUse"
       gradientTransform="translate(340.0458,5.8056601)" />
    <linearGradient
       inkscape:collect="always"
       xlink:href="#linearGradient4549"
       id="linearGradient4595"
       x1="50.039261"
       y1="175.73662"
       x2="52.80386"
       y2="56.029434"
       gradientUnits="userSpaceOnUse"
       gradientTransform="translate(344.1927)" />
    <linearGradient
       inkscape:collect="always"
       xlink:href="#linearGradient4549"
       id="linearGradient4633"
       x1="130.58441"
       y1="210.99933"
       x2="130.58441"
       y2="155.61472"
       gradientUnits="userSpaceOnUse"
       gradientTransform="translate(-2.0192308,-1.1538462)" />
    <filter
       inkscape:collect="always"
       style="color-interpolation-filters:sRGB"
       id="filter4656"
       x="-0.014265203"
       width="1.0285304"
       y="-0.075570459"
       height="1.1511409">
      <feGaussianBlur
         inkscape:collect="always"
         stdDeviation="1.3407528"
         id="feGaussianBlur4658" />
    </filter>
    <filter
       inkscape:collect="always"
       style="color-interpolation-filters:sRGB"
       id="filter4723"
       x="-0.02033017"
       width="1.0406603"
       y="-0.029286562"
       height="1.0585731">
      <feGaussianBlur
         inkscape:collect="always"
         stdDeviation="1.6999218"
         id="feGaussianBlur4725" />
    </filter>
  </defs>
  <sodipodi:namedview
     pagecolor="#ff0000"
     bordercolor="#666666"
     borderopacity="1"
     objecttolerance="10"
     gridtolerance="10"
     guidetolerance="10"
     inkscape:pageopacity="0"
     inkscape:pageshadow="2"
     inkscape:window-width="1920"
     inkscape:window-height="1051"
     id="namedview4"
     showgrid="false"
     inkscape:snap-global="false"
     inkscape:zoom="3.4666667"
     inkscape:cx="127.5"
     inkscape:cy="127.5"
     inkscape:window-x="0"
     inkscape:window-y="0"
     inkscape:window-maximized="1"
     inkscape:current-layer="svg2"
     showguides="true"
     inkscape:guide-bbox="true" />
  <path
     style="fill:#000000;fill-opacity:0.77927935;stroke:none;stroke-width:0.62132567px;stroke-linecap:butt;stroke-linejoin:miter;stroke-opacity:1;filter:url(#filter4723)"
     d="m 225.72071,30.147988 -125.05079,0.859375 v 13.214843 c -0.0576,0.0052 -0.11419,0.0064 -0.17187,0.01172 l 0.15625,7.765625 c -0.0315,0.0074 -0.0623,0.01598 -0.0937,0.02344 L 100.1543,44.325725 C 70.53209,48.967031 47.89791,65.25236 26.75977,83.00541 c 11.85648,32.87268 27.05882,60.51037 73.56054,67.97655 l 0.52344,-10.92187 c 0.1075,0.0356 0.21467,0.0721 0.32227,0.10742 l -0.19336,4.25195 c 31.6143,-2.50725 62.01793,-9.14834 87.07813,-34.04882 l 19.16211,8.35742 c -23.06008,15.85561 -47.26893,29.59872 -107.0586,32.6914 v 18.03516 l 127.2832,-1.03125 z M 103.48633,52.884316 c 41.69493,1.285632 63.95032,29.115376 74.13867,36.009761 l 1.19727,-0.91211 c -22.7325,23.416463 -44.97194,45.230103 -77.1211,41.107423 v -2.01953 l 1.16016,-4.78516 c 25.02155,2.79476 42.51731,-10.39925 55.00976,-32.703128 l -0.45703,-8.072256 c 0.19555,-0.267412 0.43977,-0.602256 0.62891,-0.859375 C 143.52252,62.234063 124.79064,54.767649 103.52539,53.888222 l 0.0644,-0.722656 z m -0.90625,4.451172 c 0.083,0.247028 0.19149,0.580924 0.24023,0.724609 l -0.006,0.339844 z m 0.22461,1.466797 -0.0723,3.638671 c 0.42759,0.02607 0.85028,0.06432 1.27735,0.0918 -0.54065,0.02546 -1.08248,0.04008 -1.6211,0.08008 l 0.34375,7.902344 c 11.58191,-0.97138 25.40511,2.460554 40.19336,13.398442 l 2.03906,-1.18165 -18.52929,14.921875 c -4.93539,-9.02813 -10.35979,-17.693924 -23.23047,-20.875 l -0.12891,-5.578125 -3.09179,-4.636719 v 5.667969 c 0,0.384625 0.67365,1.718064 1.39648,3.052734 l -1.38281,-1.992187 c -0.05533,-0.0039 -0.12807,0.0045 -0.18555,0.002 v -6.214844 c -14.57897,1.904878 -26.28797,9.231645 -36.75977,18.894529 6.14051,20.334856 20.64444,33.271326 38.64649,43.113276 -0.45836,-0.0588 -0.91062,-0.10051 -1.37305,-0.16992 l 0.084,5.40625 C 77.85513,124.71099 55.98655,108.82041 49.6543,85.630454 l -0.43946,-0.13867 0.62305,0.16797 C 65.20071,73.418343 79.4291,64.386863 102.80469,58.802332 Z m 26.08008,8.492187 c 5.1244,2.21781 9.8467,5.515648 13.93554,10.521484 -4.14245,-4.622534 -8.8757,-8.074604 -13.93554,-10.521484 z m -78.23829,9.734375 c -0.10921,0.08156 -0.21901,0.162372 -0.32812,0.244141 0.10928,-0.08171 0.21908,-0.162893 0.32812,-0.244141 z m 35.79688,0.359375 c -1.73077,0.882747 -3.41756,1.880706 -4.96094,2.960937 1.5225,-1.128638 3.17975,-2.110883 4.96094,-2.960937 z m 15.76172,1.527344 -0.14063,33.216794 c -0.004,-0.002 -0.008,-0.004 -0.0117,-0.006 l -0.008,-0.043 -0.008,0.0371 c -9.95222,-4.74254 -16.45261,-11.58149 -19.33399,-23.673823 0.22944,0.01706 0.43309,0.03412 0.56641,0.05273 -0.74479,-0.81847 11.78296,-8.204601 18.93555,-9.583981 z m -18.93555,9.583981 c 0.04105,0.04512 0.10944,0.07706 0.23438,0.08008 0.01914,-0.03136 -0.06935,-0.05703 -0.23438,-0.08008 z M 46.95117,79.839394 c -0.27732,0.215055 -0.55531,0.428262 -0.83203,0.644531 0.27922,-0.217859 0.55436,-0.42962 0.83203,-0.644531 z m 28.15235,7.554683 c 0.21747,0.08475 0.47151,0.15615 0.72656,0.22657 0.15088,0.65112 0.31572,1.2847 0.48828,1.906245 -0.40412,-0.711675 -0.81727,-1.412955 -1.21484,-2.132815 z m 113.49414,11.251955 -0.0176,0.21484 c -0.29638,0.29352 -0.59285,0.58706 -0.88867,0.88086 0.3022,-0.36468 0.60449,-0.72416 0.90625,-1.0957 z m 25.78906,14.878898 0.16797,0.10352 c -1.06676,0.74522 -2.12406,1.4834 -3.18359,2.22266 z m -111.55078,3.11329 c 0.24458,0.031 0.48745,0.0576 0.73047,0.084 -0.23937,-0.002 -0.4735,0.003 -0.71485,-0.002 z m -23.3418,14.08398 c 0.55516,0.31571 1.1101,0.63212 1.67188,0.9375 2.91688,1.58561 5.92447,3.02868 8.99414,4.35156 -3.16886,-1.33891 -6.16165,-2.79067 -8.99414,-4.35156 -0.56194,-0.30966 -1.12267,-0.61909 -1.67188,-0.9375 z"
     id="path4660"
     inkscape:connector-curvature="0" />
  <g
     aria-label="NVIDIA"
     style="font-style:normal;font-variant:normal;font-weight:bold;font-stretch:normal;font-size:59.64726257px;line-height:1.25;font-family:'Noto Serif';-inkscape-font-specification:'Noto Serif Bold';letter-spacing:0px;word-spacing:0px;fill:#000000;fill-opacity:1;stroke:none;stroke-width:1.70000005;stroke-miterlimit:4;stroke-dasharray:none;stroke-opacity:1;filter:url(#filter4656)"
     id="text4637"
     transform="translate(4.3269231,2.8846154)">
    <path
       d="M 53.12661,218.15483 29.856023,185.30224 v 25.80443 q 0,1.28148 0.232997,2.03872 0.262121,0.75724 0.669866,1.16499 0.407745,0.40774 0.961114,0.55337 0.582492,0.1165 1.19411,0.1165 h 2.504719 v 3.17458 H 19.837146 v -3.17458 h 2.50472 q 0.640742,0 1.19411,-0.1165 0.553368,-0.14563 0.961113,-0.55337 0.436869,-0.40775 0.669867,-1.16499 0.232997,-0.75724 0.232997,-2.03872 v -28.74602 q 0,-1.19411 -0.262122,-1.8931 -0.232997,-0.72812 -0.669867,-1.10674 -0.407745,-0.37862 -0.961113,-0.49512 -0.553368,-0.14562 -1.164985,-0.14562 h -2.50472 v -3.14546 h 13.251712 l 21.057114,29.76538 v -22.97934 q 0,-1.19411 -0.262121,-1.8931 -0.232998,-0.72812 -0.669867,-1.10674 -0.407745,-0.37862 -0.961113,-0.49512 -0.553368,-0.14562 -1.164986,-0.14562 h -2.504719 v -3.14546 h 15.581682 v 3.14546 h -2.504719 q -0.611617,0 -1.164985,0.14562 -0.553368,0.1165 -0.990238,0.52425 -0.407745,0.40774 -0.640742,1.16498 -0.232997,0.75724 -0.232997,2.03873 v 35.56118 z"
       style="fill:#000000;fill-opacity:1;stroke:none;stroke-width:1.70000005;stroke-miterlimit:4;stroke-dasharray:none;stroke-opacity:1"
       id="path4639"
       inkscape:connector-curvature="0" />
    <path
       d="m 106.8907,178.72007 h -2.88334 q -0.40775,0 -0.72812,0.17475 -0.32037,0.17474 -0.64074,0.66986 -0.32037,0.466 -0.66987,1.31061 -0.34949,0.84462 -0.81549,2.21347 L 88.979042,218.15483 H 83.008491 L 70.310148,181.60341 q -0.291247,-0.84462 -0.757241,-1.39798 -0.43687,-0.5825 -0.961113,-0.90287 -0.495119,-0.32037 -1.019363,-0.43687 -0.524243,-0.14562 -0.961113,-0.14562 H 65.24246 v -3.14546 h 19.688257 v 3.14546 h -2.737716 q -0.43687,0 -0.844615,0.1165 -0.407745,0.0874 -0.757241,0.32037 -0.320371,0.233 -0.524243,0.61162 -0.203873,0.37862 -0.203873,0.93198 0,0.5825 0.174748,1.33974 0.174748,0.72811 0.349496,1.22323 l 6.08705,18.37765 q 0.232997,0.66987 0.465994,1.57273 0.262122,0.90286 0.495119,1.8931 0.232997,0.99024 0.407745,1.98048 0.203872,0.96111 0.291246,1.7766 0.08737,-0.49512 0.291247,-1.33973 0.232997,-0.87374 0.524243,-1.86398 0.291247,-1.01936 0.582493,-2.0096 0.320371,-1.01936 0.582493,-1.83485 l 6.145299,-18.14465 q 0.116498,-0.32037 0.232997,-0.69899 0.145623,-0.40775 0.232997,-0.81549 0.116499,-0.40775 0.174748,-0.78637 0.08737,-0.37862 0.08737,-0.61162 0,-0.99023 -0.669867,-1.51448 -0.640742,-0.52424 -1.718354,-0.52424 h -3.116336 v -3.14546 H 106.8907 Z"
       style="fill:#000000;fill-opacity:1;stroke:none;stroke-width:1.70000005;stroke-miterlimit:4;stroke-dasharray:none;stroke-opacity:1"
       id="path4641"
       inkscape:connector-curvature="0" />
    <path
       d="m 108.60905,218.15483 v -3.17458 h 2.50472 q 0.66987,0 1.22323,-0.1165 0.55337,-0.14563 0.96112,-0.55337 0.40774,-0.40775 0.64074,-1.16499 0.233,-0.75724 0.233,-2.03872 v -28.4839 q 0,-1.28148 -0.233,-2.03872 -0.233,-0.75725 -0.64074,-1.16499 -0.40775,-0.40775 -0.96112,-0.52424 -0.55336,-0.14563 -1.22323,-0.14563 h -2.50472 v -3.17458 h 20.59112 v 3.17458 h -2.50472 q -0.64074,0 -1.22323,0.14563 -0.55337,0.11649 -0.96112,0.52424 -0.40774,0.40774 -0.64074,1.16499 -0.233,0.75724 -0.233,2.03872 v 28.4839 q 0,1.28148 0.233,2.03872 0.233,0.75724 0.64074,1.16499 0.40775,0.40774 0.96112,0.55337 0.58249,0.1165 1.22323,0.1165 h 2.50472 v 3.17458 z"
       style="fill:#000000;fill-opacity:1;stroke:none;stroke-width:1.70000005;stroke-miterlimit:4;stroke-dasharray:none;stroke-opacity:1"
       id="path4643"
       inkscape:connector-curvature="0" />
    <path
       d="m 173.29487,196.07835 q 0,4.89294 -1.33973,8.97039 -1.33973,4.04833 -4.0192,6.96079 -2.65034,2.91247 -6.61129,4.54345 -3.93183,1.60185 -9.14514,1.60185 h -19.68826 v -3.17458 h 2.50472 q 0.66987,0 1.22324,-0.1165 0.55336,-0.14563 0.96111,-0.55337 0.40774,-0.40775 0.64074,-1.16499 0.233,-0.75724 0.233,-2.03872 v -28.74602 q 0,-1.19411 -0.233,-1.8931 -0.233,-0.72812 -0.66986,-1.10674 -0.40775,-0.37862 -0.96112,-0.49512 -0.55337,-0.14562 -1.19411,-0.14562 h -2.50472 v -3.14546 h 19.68826 q 4.95119,0 8.85389,1.31061 3.93183,1.28148 6.64042,3.87357 2.73771,2.56297 4.16482,6.40742 1.45623,3.84446 1.45623,8.91214 z m -10.07712,0 q 0,-8.53352 -3.14546,-12.69834 -3.11634,-4.16482 -9.20339,-4.16482 h -3.40758 V 214.456 h 3.34933 q 3.05809,0 5.38806,-1.25236 2.32997,-1.28148 3.87358,-3.6697 1.57273,-2.38822 2.35909,-5.76668 0.78637,-3.40758 0.78637,-7.68891 z"
       style="fill:#000000;fill-opacity:1;stroke:none;stroke-width:1.70000005;stroke-miterlimit:4;stroke-dasharray:none;stroke-opacity:1"
       id="path4645"
       inkscape:connector-curvature="0" />
    <path
       d="m 178.2752,218.15483 v -3.17458 h 2.50471 q 0.66987,0 1.22324,-0.1165 0.55337,-0.14563 0.96111,-0.55337 0.40775,-0.40775 0.64074,-1.16499 0.233,-0.75724 0.233,-2.03872 v -28.4839 q 0,-1.28148 -0.233,-2.03872 -0.23299,-0.75725 -0.64074,-1.16499 -0.40774,-0.40775 -0.96111,-0.52424 -0.55337,-0.14563 -1.22324,-0.14563 h -2.50471 v -3.17458 h 20.59112 v 3.17458 h -2.50472 q -0.64074,0 -1.22324,0.14563 -0.55337,0.11649 -0.96111,0.52424 -0.40775,0.40774 -0.64074,1.16499 -0.233,0.75724 -0.233,2.03872 v 28.4839 q 0,1.28148 0.233,2.03872 0.23299,0.75724 0.64074,1.16499 0.40774,0.40774 0.96111,0.55337 0.5825,0.1165 1.22324,0.1165 h 2.50472 v 3.17458 z"
       style="fill:#000000;fill-opacity:1;stroke:none;stroke-width:1.70000005;stroke-miterlimit:4;stroke-dasharray:none;stroke-opacity:1"
       id="path4647"
       inkscape:connector-curvature="0" />
    <path
       d="m 213.48688,204.14588 -1.71835,5.12594 q -0.233,0.72811 -0.49512,1.71835 -0.233,0.96111 -0.233,1.68923 0,0.58249 0.233,1.01936 0.233,0.43687 0.61162,0.72812 0.37862,0.26212 0.84461,0.40774 0.49512,0.14563 1.01936,0.14563 h 2.50472 v 3.17458 h -15.52343 v -3.17458 h 0.72812 q 0.78636,0 1.4271,-0.17475 0.66987,-0.17475 1.22324,-0.64074 0.58249,-0.49512 1.07761,-1.33974 0.52424,-0.84461 1.04849,-2.18435 l 12.93134,-35.06606 h 8.18402 l 12.46535,35.12431 q 0.43687,1.25236 0.90286,2.09698 0.49512,0.81549 1.04849,1.31061 0.58249,0.46599 1.22323,0.66986 0.64075,0.20388 1.33974,0.20388 h 1.07761 v 3.17458 h -19.68826 v -3.17458 h 2.32997 q 0.43687,0 0.90287,-0.1165 0.46599,-0.14563 0.81549,-0.40775 0.37862,-0.29124 0.61161,-0.72811 0.233,-0.43687 0.233,-1.04849 0,-0.72812 -0.17475,-1.39798 -0.17474,-0.66987 -0.34949,-1.16499 l -2.09698,-5.97055 z m 10.1645,-13.42646 q -0.32037,-1.01936 -0.66986,-2.1261 -0.32038,-1.13586 -0.66987,-2.30085 -0.32037,-1.16498 -0.64074,-2.30084 -0.29125,-1.16499 -0.52425,-2.21347 -0.26212,0.90286 -0.61161,1.98047 -0.3495,1.07761 -0.75724,2.21347 -0.37863,1.13586 -0.78637,2.27173 -0.37862,1.13586 -0.72812,2.18434 l -3.52408,10.07713 h 12.0576 z"
       style="fill:#000000;fill-opacity:1;stroke:none;stroke-width:1.70000005;stroke-miterlimit:4;stroke-dasharray:none;stroke-opacity:1"
       id="path4649"
       inkscape:connector-curvature="0" />
  </g>
  <g
     id="g4621"
     transform="matrix(0.62132566,0,0,0.62132566,-131.73372,-1.1455249)">
    <path
       sodipodi:nodetypes="ccccccc"
       inkscape:connector-curvature="0"
       id="path3734"
       d="M 243.48326,125.68848 C 277.5043,97.115619 313.93174,70.904575 361.60756,63.43457 l 0.6617,12.531439 c -29.24569,6.996208 -57.3819,21.118377 -93.92476,50.660631 16.06429,44.65194 43.29761,74.75809 94.38482,90.64121 L 361.875,235.09288 C 287.03224,223.07635 262.56581,178.59583 243.48326,125.68848 Z"
       style="fill:url(#linearGradient4551);fill-opacity:1;stroke:none;stroke-width:1px;stroke-linecap:butt;stroke-linejoin:miter;stroke-opacity:1" />
    <path
       sodipodi:nodetypes="ccccc"
       inkscape:connector-curvature="0"
       id="path4541"
       d="m 363.56772,75.496929 2.45418,11.199018 c -37.71207,8.98524 -60.63847,23.535643 -85.39749,43.264133 l -12.27991,-3.33344 c 28.67466,-23.17606 59.09364,-42.863478 95.22322,-51.129711 z"
       style="fill:#1c1c1c;fill-opacity:1;stroke:none;stroke-width:1px;stroke-linecap:butt;stroke-linejoin:miter;stroke-opacity:1" />
    <path
       sodipodi:nodetypes="ccccc"
       inkscape:connector-curvature="0"
       id="path4543"
       d="m 268.1662,126.04241 12.16424,3.87044 c 10.72202,39.26613 49.11713,65.554 87.36136,80.72632 l -0.55292,8.2938 C 322.6023,205.14528 282.26739,178.7058 268.1662,126.04241 Z"
       style="fill:#444444;fill-opacity:1;stroke:none;stroke-width:1px;stroke-linecap:butt;stroke-linejoin:miter;stroke-opacity:1" />
    <path
       sodipodi:nodetypes="ccccccc"
       inkscape:connector-curvature="0"
       id="path4553"
       d="m 361.05676,100.05517 v 10.22902 c -17.48483,2.92546 -31.88127,9.17688 -39.81024,22.39326 10.9186,19.78038 23.18692,37.87359 42.8513,46.72174 v 20.45804 c -28.97535,-15.8405 -52.32016,-36.66187 -62.2035,-69.39146 16.85396,-15.55205 35.69814,-27.34477 59.16244,-30.4106 z"
       style="fill:url(#linearGradient4561);fill-opacity:1;stroke:none;stroke-width:1px;stroke-linecap:butt;stroke-linejoin:miter;stroke-opacity:1" />
    <path
       sodipodi:nodetypes="cccsc"
       inkscape:connector-curvature="0"
       id="path4563"
       d="m 362.71552,65.774133 4.42336,11.88778 -0.82938,9.12318 c 0,0 -3.59398,-10.50548 -3.59398,-11.88778 z"
       style="fill:#000000;fill-opacity:1;stroke:none;stroke-width:1px;stroke-linecap:butt;stroke-linejoin:miter;stroke-opacity:1" />
    <path
       style="fill:#1c1c1c;fill-opacity:1;stroke:none;stroke-width:1px;stroke-linecap:butt;stroke-linejoin:miter;stroke-opacity:1"
       d="m 361.35604,110.05443 6.04816,8.71088 c -11.3196,0.69144 -36.72318,15.79476 -32.59363,15.89459 0.23892,-0.39138 -9.42303,-0.22192 -13.66221,-1.95114 5.11238,-12.42571 31.34486,-23.28621 40.20768,-22.65433 z"
       id="path4565"
       inkscape:connector-curvature="0"
       sodipodi:nodetypes="ccccc" />
    <path
       sodipodi:nodetypes="cccsc"
       style="fill:#000000;fill-opacity:1;stroke:none;stroke-width:1px;stroke-linecap:butt;stroke-linejoin:miter;stroke-opacity:1"
       d="m 361.33322,99.225793 4.97628,7.464417 0.27646,11.88778 c 0,0 -5.25274,-8.84672 -5.25274,-10.22902 z"
       id="path4567"
       inkscape:connector-curvature="0" />
    <path
       style="fill:#444444;fill-opacity:1;stroke:none;stroke-width:0.46659225px;stroke-linecap:butt;stroke-linejoin:miter;stroke-opacity:1"
       d="m 322.35236,132.67745 11.00925,1.14039 c 4.58664,19.98367 15.20556,31.15063 31.56559,38.87226 l -0.23653,7.26201 c -18.76379,-9.41512 -36.30279,-20.50064 -42.33831,-47.27466 z"
       id="path4569"
       inkscape:connector-curvature="0"
       sodipodi:nodetypes="ccccc" />
    <path
       sodipodi:nodetypes="cccsc"
       inkscape:connector-curvature="0"
       id="path4571"
       d="m 364.65074,172.48769 2.21168,12.71716 -3.41705,14.09946 c 0,0 -0.50731,-17.76391 -0.17693,-19.51018 z"
       style="fill:#000000;fill-opacity:1;stroke:none;stroke-width:0.84852815px;stroke-linecap:butt;stroke-linejoin:miter;stroke-opacity:1" />
    <path
       sodipodi:nodetypes="ccccc"
       inkscape:connector-curvature="0"
       id="path4585"
       d="m 362.1626,63.285993 c 56.80448,-5.218979 99.90744,25.762892 134.63602,63.862257 l -10.50548,8.01734 C 469.52846,123.82105 432.48549,77.229522 362.43906,77.108993 Z"
       style="fill:#000000;fill-opacity:1;stroke:none;stroke-width:1px;stroke-linecap:butt;stroke-linejoin:miter;stroke-opacity:1" />
    <path
       sodipodi:nodetypes="cccccccc"
       inkscape:connector-curvature="0"
       id="path4587"
       d="m 366.03304,78.767753 c 34.6412,1.219969 65.14473,13.197905 88.74366,43.127757 -15.52501,21.10461 -44.41146,64.4608 -90.12596,57.78014 l 0.27646,-64.41518 c 21.89276,4.7776 30.83267,19.0994 38.98086,34.00458 l 31.23998,-25.15786 C 418.11553,97.1841 392.19042,94.202592 365.75658,92.590753 Z"
       style="fill:url(#linearGradient4595);fill-opacity:1;stroke:none;stroke-width:1px;stroke-linecap:butt;stroke-linejoin:miter;stroke-opacity:1" />
    <path
       sodipodi:nodetypes="ccccc"
       inkscape:connector-curvature="0"
       id="path4597"
       d="m 365.20366,92.867213 0.55292,12.717157 c 18.64065,-1.5634 40.89051,3.95977 64.69164,21.56388 l 5.25274,-3.04106 C 417.83204,99.093268 390.72129,90.972418 365.20366,92.867213 Z"
       style="fill:#000000;fill-opacity:1;stroke:none;stroke-width:1px;stroke-linecap:butt;stroke-linejoin:miter;stroke-opacity:1" />
    <path
       sodipodi:nodetypes="ccccc"
       inkscape:connector-curvature="0"
       id="path4599"
       d="m 453.67086,121.61905 0.82938,14.65238 c -20.27955,36.20686 -48.7433,57.51308 -89.57304,52.5274 l 0.82938,-8.84672 c 42.78337,1.00594 66.14123,-27.46128 87.91428,-58.33306 z"
       style="fill:#000000;fill-opacity:1;stroke:none;stroke-width:1px;stroke-linecap:butt;stroke-linejoin:miter;stroke-opacity:1" />
    <path
       sodipodi:nodetypes="ccccc"
       inkscape:connector-curvature="0"
       id="path4601"
       d="m 505.10204,150.04081 -1.02041,18.70748 c -40.52328,40.9011 -89.85299,51.71355 -141.15646,55.78231 l 0.34014,-7.48299 c 82.9233,-4.21133 110.82533,-36.39958 141.83673,-67.0068 z"
       style="fill:#000000;fill-opacity:1;stroke:none;stroke-width:1px;stroke-linecap:butt;stroke-linejoin:miter;stroke-opacity:1" />
    <path
       sodipodi:nodetypes="ccccc"
       inkscape:connector-curvature="0"
       id="path4603"
       d="m 504.08163,149.36053 42.17687,24.82994 -11.90476,9.18367 -31.97279,-13.94558 z"
       style="fill:#000000;fill-opacity:1;stroke:none;stroke-width:1px;stroke-linecap:butt;stroke-linejoin:miter;stroke-opacity:1" />
    <path
       sodipodi:nodetypes="cccccccccccc"
       inkscape:connector-curvature="0"
       id="path4573"
       d="m 362.43906,41.998573 201.26288,-1.382301 2.7646,222.550298 -204.85686,1.65876 v -29.0283 c 106.43503,-5.50546 142.81697,-31.96574 184.12236,-60.8212 l -40.91608,-25.15786 c -47.21934,58.83147 -97.92018,64.81304 -142.65336,67.45624 l -0.27646,-17.69344 c 56.10624,8.42131 93.48151,-32.02104 132.97726,-72.70898 C 461.04361,86.882298 419.06959,61.886075 362.43906,63.838913 Z"
       style="fill:url(#linearGradient4581);fill-opacity:1;stroke:none;stroke-width:1px;stroke-linecap:butt;stroke-linejoin:miter;stroke-opacity:1" />
  </g>
  <text
     xml:space="preserve"
     style="font-style:normal;font-variant:normal;font-weight:bold;font-stretch:normal;font-size:59.64726257px;line-height:1.25;font-family:'Noto Serif';-inkscape-font-specification:'Noto Serif Bold';letter-spacing:0px;word-spacing:0px;fill:url(#linearGradient4633);fill-opacity:1;stroke:#000000;stroke-width:1.70000005;stroke-miterlimit:4;stroke-dasharray:none;stroke-opacity:1"
     x="18.177042"
     y="218.15483"
     id="text4625"><tspan
       sodipodi:role="line"
       id="tspan4623"
       x="18.177042"
       y="218.15483"
       style="fill:url(#linearGradient4633);fill-opacity:1;stroke:#000000;stroke-width:1.70000005;stroke-miterlimit:4;stroke-dasharray:none;stroke-opacity:1">NVIDIA</tspan></text>
</svg>
