<?xml version="1.0" encoding="UTF-8" standalone="no"?>
<!-- Created with Inkscape (http://www.inkscape.org/) -->

<svg
   xmlns:dc="http://purl.org/dc/elements/1.1/"
   xmlns:cc="http://creativecommons.org/ns#"
   xmlns:rdf="http://www.w3.org/1999/02/22-rdf-syntax-ns#"
   xmlns:svg="http://www.w3.org/2000/svg"
   xmlns="http://www.w3.org/2000/svg"
   xmlns:xlink="http://www.w3.org/1999/xlink"
   xmlns:sodipodi="http://sodipodi.sourceforge.net/DTD/sodipodi-0.dtd"
   xmlns:inkscape="http://www.inkscape.org/namespaces/inkscape"
   id="svg2"
   version="1.1"
   inkscape:version="0.91 r13725"
   width="256"
   height="256"
   viewBox="0 0 256 256"
   sodipodi:docname="octopuss.svg">
  <metadata
     id="metadata8">
    <rdf:RDF>
      <cc:Work
         rdf:about="">
        <dc:format>image/svg+xml</dc:format>
        <dc:type
           rdf:resource="http://purl.org/dc/dcmitype/StillImage" />
        <dc:title></dc:title>
      </cc:Work>
    </rdf:RDF>
  </metadata>
  <defs
     id="defs6">
    <linearGradient
       inkscape:collect="always"
       id="linearGradient4329">
      <stop
         style="stop-color:#f553ec;stop-opacity:0"
         offset="0"
         id="stop4331" />
      <stop
         style="stop-color:#7d1077;stop-opacity:0.24590164"
         offset="1"
         id="stop4333" />
    </linearGradient>
    <linearGradient
       inkscape:collect="always"
       id="linearGradient4272">
      <stop
         style="stop-color:#ffffff;stop-opacity:0.38251367"
         offset="0"
         id="stop4274" />
      <stop
         style="stop-color:#e288e6;stop-opacity:0"
         offset="1"
         id="stop4276" />
    </linearGradient>
    <linearGradient
       inkscape:collect="always"
       id="linearGradient4239">
      <stop
         style="stop-color:#cf6ac0;stop-opacity:1"
         offset="0"
         id="stop4241" />
      <stop
         style="stop-color:#bc2ab1;stop-opacity:1"
         offset="1"
         id="stop4243" />
    </linearGradient>
    <linearGradient
       inkscape:collect="always"
       id="linearGradient4231">
      <stop
         style="stop-color:#ffffff;stop-opacity:1"
         offset="0"
         id="stop4233" />
      <stop
         style="stop-color:#d7b4d5;stop-opacity:0"
         offset="1"
         id="stop4235" />
    </linearGradient>
    <linearGradient
       inkscape:collect="always"
       id="linearGradient4221">
      <stop
         style="stop-color:#e8c6e3;stop-opacity:1"
         offset="0"
         id="stop4223" />
      <stop
         style="stop-color:#80007b;stop-opacity:0"
         offset="1"
         id="stop4225" />
    </linearGradient>
    <linearGradient
       inkscape:collect="always"
       xlink:href="#linearGradient4221"
       id="linearGradient4227"
       x1="-89.682091"
       y1="10.26589"
       x2="-90.2948"
       y2="89.063576"
       gradientUnits="userSpaceOnUse" />
    <linearGradient
       inkscape:collect="always"
       xlink:href="#linearGradient4231"
       id="linearGradient4237"
       x1="-88.601158"
       y1="8.5086718"
       x2="-88.416183"
       y2="32.924858"
       gradientUnits="userSpaceOnUse"
       gradientTransform="matrix(1,0,0,1.1166667,0.55491329,-2.6420041)" />
    <linearGradient
       inkscape:collect="always"
       xlink:href="#linearGradient4239"
       id="linearGradient4245"
       x1="-89.501549"
       y1="22.93272"
       x2="-91.140228"
       y2="144.82867"
       gradientUnits="userSpaceOnUse" />
    <linearGradient
       inkscape:collect="always"
       xlink:href="#linearGradient4272"
       id="linearGradient4278"
       x1="-121.5758"
       y1="59.37719"
       x2="-144.54477"
       y2="91.899597"
       gradientUnits="userSpaceOnUse" />
    <linearGradient
       inkscape:collect="always"
       xlink:href="#linearGradient4272"
       id="linearGradient4288"
       gradientUnits="userSpaceOnUse"
       x1="-121.5758"
       y1="59.37719"
       x2="-144.54477"
       y2="91.899597" />
    <linearGradient
       inkscape:collect="always"
       xlink:href="#linearGradient4272"
       id="linearGradient4298"
       gradientUnits="userSpaceOnUse"
       x1="-121.5758"
       y1="59.37719"
       x2="-144.54477"
       y2="91.899597"
       gradientTransform="matrix(-1,0,0,1,-181.08826,0.89628681)" />
    <linearGradient
       inkscape:collect="always"
       xlink:href="#linearGradient4272"
       id="linearGradient4300"
       gradientUnits="userSpaceOnUse"
       x1="-121.5758"
       y1="59.37719"
       x2="-144.54477"
       y2="91.899597"
       gradientTransform="matrix(-1,0,0,1,-181.08826,0.89628681)" />
    <linearGradient
       inkscape:collect="always"
       xlink:href="#linearGradient4329"
       id="linearGradient4335"
       x1="-91.187698"
       y1="32.232197"
       x2="-89.611237"
       y2="110.70132"
       gradientUnits="userSpaceOnUse"
       spreadMethod="reflect" />
  </defs>
  <sodipodi:namedview
     pagecolor="#ffffff"
     bordercolor="#666666"
     borderopacity="1"
     objecttolerance="10"
     gridtolerance="10"
     guidetolerance="10"
     inkscape:pageopacity="0"
     inkscape:pageshadow="2"
     inkscape:window-width="1920"
     inkscape:window-height="1057"
     id="namedview4"
     showgrid="false"
     inkscape:snap-global="false"
     inkscape:zoom="3.3789062"
     inkscape:cx="128"
     inkscape:cy="128"
     inkscape:window-x="-2"
     inkscape:window-y="-5"
     inkscape:window-maximized="1"
     inkscape:current-layer="svg2" />
  <g
     id="g4387"
     transform="matrix(1.5865011,0,0,1.5865011,273.64133,7.3932662)">
    <path
       id="ellipse4180"
       d="m -89.896484,9.8320312 a 30.861269,40.757225 0 0 0 -30.861326,40.7578128 30.861269,40.757225 0 0 0 13.62109,33.789062 37.178417,20.161074 0 0 0 -1.84961,0.486328 c -7.87537,-0.274826 -15.65331,0.462455 -23.45312,-2.923828 -20.83304,-9.044644 -4.69402,-27.816585 -17.38672,-45.6875 -5.10719,-7.190765 -9.45758,-7.90761 -14.61328,-4.623047 -3.79336,2.416647 -0.13973,9.674157 3.33007,4.623047 0.8682,-1.263868 3.30829,-4.575455 4.99415,-0.36914 6.01117,14.998253 -4.28058,13.880409 -2.95899,41.617187 0.46177,9.691338 4.35222,17.637329 10.26172,23.675777 -4.32947,1.75161 -8.25445,4.39472 -11.11328,8.1836 -5.7919,7.67614 -2.82635,17.5916 6.63281,20.59375 3.22911,1.02485 4.19373,-3.67569 2.08008,-5.64258 -5.90421,-5.49425 -3.41886,-9.53275 1.98047,-10.69336 4.54251,-0.97643 10.59914,1.19762 16.7832,3.76758 -4.66377,6.37046 -7.24935,15.60374 -2.32031,23.27344 4.1925,6.52362 17.19591,7.00504 17.38281,-2.73047 0.0602,-3.13396 -3.24541,-4.3041 -3.9707,-1.58399 -1.42985,5.36245 -7.87131,3.05013 -6.44141,-0.9707 1.8184,-5.11323 11.59899,-10.07427 18.75,-14.93555 a 37.178417,20.161074 0 0 0 1.89844,0.49805 c 2.59836,6.51942 5.20701,13.12544 4.0332,17.08398 -1.21321,4.09143 -7.78095,2.16575 -5.77734,-3.00976 1.01633,-2.62529 -2.34304,-3.62843 -4.14063,-1.06055 -5.58414,7.977 5.20665,15.24896 12.4375,12.44727 4.72573,-1.83105 7.852165,-5.42662 9.705082,-9.61133 1.863171,4.10421 4.962283,7.62413 9.617187,9.42773 7.23085,2.80169 18.02163,-4.47222 12.4375,-12.44922 -1.79759,-2.56788 -5.156955,-1.56474 -4.140625,1.06055 2.00361,5.17551 -4.564133,7.10315 -5.777343,3.01172 -1.181824,-3.98558 1.470141,-10.65615 4.085937,-17.21875 a 37.178417,20.161074 0 0 0 3.070313,-0.95703 c 6.821847,4.39956 14.929548,8.88589 16.568359,13.49414 1.4299,4.02083 -5.011556,6.3312 -6.441406,0.96875 -0.72529,-2.72011 -4.030903,-1.54998 -3.970703,1.58398 0.1869,9.73551 13.192265,9.25605 17.384765,2.73243 4.429742,-6.89278 2.794563,-15.05599 -0.966797,-21.26368 7.199885,-3.057 14.530163,-6.17494 19.814453,-5.03906 5.39933,1.16061 7.884679,5.19911 1.980469,10.69336 -2.11365,1.96689 -1.149032,6.66938 2.080078,5.64453 9.45916,-3.00215 12.424713,-12.91956 6.632813,-20.5957 -2.951468,-3.91164 -7.038921,-6.603 -11.535156,-8.351563 4.693268,-5.69356 7.713956,-12.824255 8.117187,-21.287109 1.32159,-27.736779 -8.972107,-26.618935 -2.960937,-41.617188 1.68586,-4.206315 4.12594,-0.894727 4.99414,0.369141 3.46981,5.05111 7.123438,-2.208353 3.330078,-4.625 -5.1557,-3.284563 -9.506091,-2.565765 -14.613281,4.625 -12.6927,17.870915 3.446321,36.642856 -17.386719,45.6875 -7.73596,3.358563 -15.45046,2.661682 -23.259765,2.917968 A 37.178417,20.161074 0 0 0 -73.453125,85.060547 30.861269,40.757225 0 0 0 -59.035156,50.589844 30.861269,40.757225 0 0 0 -89.896484,9.8320312 Z"
       style="opacity:1;fill:#f553ec;fill-opacity:1;fill-rule:nonzero;stroke:url(#linearGradient4245);stroke-width:0.80000001;stroke-linecap:round;stroke-linejoin:round;stroke-miterlimit:4;stroke-dasharray:none;stroke-opacity:1"
       inkscape:connector-curvature="0" />
    <ellipse
       ry="40.757225"
       rx="30.861269"
       cy="49.849705"
       cx="-89.895958"
       id="path4146"
       style="opacity:1;fill:url(#linearGradient4227);fill-opacity:1;fill-rule:nonzero;stroke:none;stroke-width:1.05799997;stroke-linecap:round;stroke-linejoin:round;stroke-miterlimit:4;stroke-dasharray:none;stroke-opacity:1" />
    <path
       inkscape:connector-curvature="0"
       id="path4247"
       d="m -90.496094,11.841797 c -13.393516,0.660755 -23.160926,12.722634 -26.349606,24.947265 -4.56398,15.898269 -1.02805,34.748764 11.24023,46.429688 0.61478,3.564159 -4.07389,4.204319 -6.61328,3.556641 -10.65885,0.346758 -23.12048,-0.913717 -30.21484,-9.917969 -7.26468,-10.730341 -0.66683,-24.774596 -6.92636,-35.863324 -1.3453,-2.883376 -3.41524,-6.070719 -5.91739,-7.675739 4.84256,7.096101 2.84157,16.208149 0.0964,23.695281 -3.22728,12.554743 -3.49091,27.148794 4.13796,38.324251 1.31261,1.99197 3.57398,3.775725 3.82813,6.222659 -2.75646,3.50461 -7.81118,4.09436 -10.35743,7.88281 -4.04587,4.48789 -4.72199,12.4076 0.53125,16.30078 1.14662,0.96961 3.80264,2.99279 4.85352,1.52539 -0.42051,-3.10525 -4.61816,-4.38368 -4.33008,-7.88281 -0.5702,-4.47401 3.71677,-7.8689 7.91602,-7.82031 6.14431,-0.66703 12.29475,1.7659 17.49804,4.67578 0.75251,4.16263 -3.62767,6.87522 -3.87109,10.9082 -1.78844,6.25503 0.92697,15.29528 8.35742,16.33008 3.51769,0.62384 8.25783,-2.43463 7.11914,-6.20313 -0.85976,4.88178 -9.05555,5.79404 -10.24023,0.64454 -0.97307,-6.16545 5.45316,-9.61873 9.60813,-12.73712 3.96529,-2.27456 7.71234,-5.89651 12.28445,-6.52656 4.44481,1.68489 4.09052,7.28592 5.95024,10.8841 1.54717,4.12473 2.104728,10.78547 -2.98345,12.6159 -4.03205,1.01895 -7.42871,-3.8682 -6.37109,-7.27539 -3.35219,3.6442 0.48613,9.28542 4.81641,9.83399 5.91137,1.55442 10.931341,-3.2796 13.582028,-8.02344 1.085992,-2.76504 4.343545,-0.99413 4.810546,1.16406 2.775819,6.20016 12.238782,9.60998 17.263672,4.07031 1.605931,-1.95358 2.207364,-5.55443 -0.05664,-7.25195 1.825318,4.29721 -3.260959,9.03376 -7.369141,6.79688 -3.724639,-2.39889 -3.096477,-7.80982 -1.980469,-11.5 1.448458,-3.3153 1.834903,-7.06333 3.839844,-10.04883 2.08987,-2.70481 6.230267,-2.67673 8.474609,-0.17383 5.543577,3.68344 12.792584,6.92688 14.978516,13.74609 0.803459,4.45658 -5.151768,7.69359 -8.453125,4.54102 -1.077959,-0.29514 -2.144351,-4.27537 -2.15625,-1.77149 0.471495,5.18769 7.423733,6.28024 11.052734,3.55079 5.835344,-3.68348 6.006334,-11.89237 3.66211,-17.67579 -0.682815,-2.14957 -3.275599,-5.02367 -0.572266,-6.81445 5.314671,-2.71274 11.161262,-4.91101 17.197266,-5.42187 4.601695,-0.31957 10.763379,2.38214 10.265625,7.8125 -0.03164,3.35532 -3.491047,5.14764 -4.470703,7.98242 0.876094,2.03283 3.675098,-0.41198 4.738147,-1.22095 5.45541,-4.04952 5.163435,-13.00977 0.0021,-17.19702 -2.637616,-3.0283 -6.573175,-4.44618 -9.777344,-6.59766 -0.830702,-4.253273 4.06583,-6.553107 4.697266,-10.49609 5.360059,-13.105349 2.681855,-27.679818 -1.458339,-40.772506 -1.375653,-5.201532 -0.294752,-11.998091 2.788417,-15.727494 -7.644885,5.837088 -9.759283,16.293568 -9.368708,25.41208 0.122507,7.951282 -0.46271,17.613424 -7.843553,22.437066 -8.672275,6.360384 -20.145994,6.433421 -30.383442,5.697729 -2.625102,-0.790961 -2.36817,-4.307566 -0.08087,-5.352293 C -61.625092,70.394384 -58.635565,52.412727 -62.848291,37.175488 -66.328536,24.622923 -76.26568,11.572029 -90.496087,11.841797 Z m -69.749996,19.984375 c -1.70998,-0.06013 -4.91517,2.438403 -3.1875,3.914062 1.51987,-1.357039 2.4354,-3.880117 4.86523,-3.802734 -0.55146,-0.09622 -1.11794,-0.144061 -1.67773,-0.111328 z m 138.355465,0.757812 c -1.330643,0.03108 1.847749,0.522882 2.087891,1.328125 1.102684,0.391239 1.31714,2.838084 2.476562,2.476563 1.447046,-2.393115 -2.761005,-4.069772 -4.564453,-3.804688 z"
       style="opacity:1;fill:#ee86e9;fill-opacity:0.55191255;fill-rule:nonzero;stroke:none;stroke-width:0.80000001;stroke-linecap:round;stroke-linejoin:round;stroke-miterlimit:4;stroke-dasharray:none;stroke-opacity:1" />
    <path
       inkscape:connector-curvature="0"
       id="path4325"
       d="m -92.90625,10.53125 c -14.15535,2.08927 -23.3864,15.647348 -26.12801,28.821804 -3.36632,15.597107 0.24334,33.548342 12.2452,44.666477 -1.29248,2.447661 -5.23411,0.827132 -7.65418,1.254381 -9.62764,0.13026 -20.9539,-1.343676 -27.08606,-9.687974 -5.46474,-8.646725 -1.7183,-19.411583 -4.17765,-28.812561 -1.5692,-6.280155 -4.96707,-13.208417 -11.14461,-16.152283 -3.122,-0.999352 -7.9699,0.337259 -8.69141,3.847656 -0.44032,2.140659 2.33197,4.371637 3.71875,1.908203 0.96429,-1.826391 3.71521,-4.504433 5.46094,-2.015625 3.32605,5.678186 3.28344,12.705009 0.69558,18.660267 -3.36153,10.268496 -4.02744,21.542207 -1.75222,32.107311 1.56202,5.976062 4.65592,11.304361 8.96875,15.703124 -1.01656,1.93934 -4.19096,2.22149 -5.89492,3.88305 -5.72209,3.67313 -10.16775,11.15596 -6.98203,17.90015 1.71616,3.58124 5.40995,6.7174 9.42968,6.90039 2.31893,-1.28037 1.23417,-4.72596 -0.69922,-5.88671 -2.74786,-2.34794 -3.74766,-7.40202 0.0508,-9.28516 6.55436,-3.51814 14.00741,0.19473 20.28516,2.58008 -0.0728,2.24123 -2.45018,4.21744 -3.04101,6.59765 -2.85845,6.58108 -2.27665,16.20806 4.56835,20.07227 4.25449,2.55227 11.6986,1.59532 12.67969,-4.06641 0.72124,-1.5474 -0.26225,-5.17051 -2.42187,-3.84765 -0.6583,2.43434 -2.79111,5.21582 -5.66016,4.07226 -3.50302,-1.18217 -2.48312,-5.64841 -0.23828,-7.57617 4.9864,-5.10162 11.4966,-8.50704 17.45312,-12.2207 3.42124,0.20135 3.21684,4.48525 4.56641,6.875 1.17243,4.05349 3.61726,9.28982 0.64063,13.07031 -2.87343,2.57532 -7.41949,-1.16085 -5.81641,-4.57422 1.21675,-1.63932 -0.91454,-3.18413 -2.2793,-1.91797 -3.69155,3.03121 -2.50713,9.18572 1.63282,11.25782 5.25808,3.74596 12.414934,1.24365 16.047477,-3.54553 1.601208,-1.20796 1.763497,-4.33958 3.688847,-4.54822 2.646862,6.44059 10.338118,12.18237 17.329456,8.67863 4.230827,-1.50729 7.016741,-6.95822 4.096325,-10.85246 -0.499126,-1.8939 -4.428397,-2.3448 -3.490234,0.26758 1.935891,3.30594 -2.197202,7.58009 -5.404297,5.24804 -3.205897,-3.25865 -1.019118,-8.3978 0.01367,-12.17773 1.184911,-2.51706 1.490974,-5.9777 3.555473,-7.74254 3.297297,-2.13511 5.862464,1.51209 8.667994,2.83496 4.21198,3.00443 9.772717,5.68948 11.319501,11.02281 0.612972,3.95066 -5.535627,5.40557 -7.041015,1.81055 -0.138007,-1.50177 -1.740735,-3.677 -3.039063,-1.7793 -2.059291,4.28713 2.363703,9.35319 6.917969,8.81836 5.906562,0.26016 10.680308,-4.75413 11.353516,-10.40429 0.925928,-5.15047 -0.647333,-10.4949 -3.294922,-14.86524 1.608356,-2.04021 5.04522,-2.41731 7.449877,-3.64682 5.480881,-2.02978 13.005779,-4.36127 17.731763,0.47495 2.642281,3.46044 -0.832201,7.22834 -3.175781,9.67773 -1.321282,1.97374 0.48598,5.49647 3.003906,3.76562 6.916938,-2.11974 10.579941,-10.73855 7.025885,-17.09438 -2.5896,-5.04139 -7.571441,-8.58006 -12.818853,-10.616552 0.09294,-2.293967 2.816696,-4.124715 3.632812,-6.464844 5.472218,-10.090584 4.901331,-22.180421 3.055246,-33.240823 -1.375405,-6.876045 -5.545591,-13.82522 -2.834505,-20.930041 0.632552,-1.963302 1.58701,-6.294042 4.546837,-5.028355 2.021636,0.774285 3.067441,5.34051 5.585938,3.328125 2.213749,-2.610988 -0.546183,-5.708988 -3.31836,-6.226562 -5.685653,-2.016385 -10.015196,3.712695 -12.543152,7.926719 -5.773136,9.132695 -3.313415,20.219021 -4.77716,30.397499 -1.164649,8.588156 -9.4971,13.732039 -17.378906,15.253906 -5.971202,1.140154 -12.179936,1.15458 -18.193206,0.908636 -3.389213,-1.3965 2.775983,-4.079614 3.480315,-6.168401 12.723429,-16.765321 12.667751,-42.317671 -0.45223,-58.839042 C -75.0077,13.945315 -83.843433,9.2987517 -92.90625,10.53125 Z"
       style="opacity:1;fill:url(#linearGradient4335);fill-opacity:1;fill-rule:nonzero;stroke:none;stroke-width:0.80000001;stroke-linecap:round;stroke-linejoin:round;stroke-miterlimit:4;stroke-dasharray:none;stroke-opacity:1" />
    <path
       inkscape:connector-curvature="0"
       id="path4257"
       d="m -90.458984,12.841797 c -12.610236,0.683173 -22.113666,12.010525 -25.259766,23.564453 -4.91869,15.999925 -0.98365,34.782411 11.10547,46.6875 0.65822,4.06936 -4.54639,5.691148 -7.69922,4.685547 -10.97333,0.430043 -23.69292,-1.154956 -30.95703,-10.375 -7.61346,-11.233861 -0.47225,-26.156488 -7.76172,-37.492188 -1.32129,-2.710365 -0.49004,-0.0028 -0.38672,1.548829 0.74495,9.890195 -5.00004,18.898608 -4.83415,28.70452 -0.68305,10.374138 2.2322,21.212935 9.37907,28.990792 1.76632,3.0129 -1.46101,5.31712 -3.89921,6.35048 -5.46283,2.48666 -10.36686,8.28078 -8.72188,14.6378 0.70293,3.04168 3.13096,5.85126 6.19141,6.57617 -2.37835,-2.7524 -5.53947,-6.18019 -3.97852,-10.13867 1.97356,-6.18768 9.73979,-6.9953 15.16733,-5.6643 4.26573,0.8757 8.66557,2.39305 12.00064,5.1936 0.67957,5.08401 -4.63162,8.5727 -4.34375,13.5625 -0.81451,5.7647 2.95712,13.3962 9.5957,12.81836 1.72769,-0.27668 -2.34238,0.007 -2.92969,-0.76367 -4.74665,-2.15241 -3.23681,-8.69774 -0.14257,-11.65235 4.6393,-4.43134 10.32133,-7.64639 15.69531,-11.08789 2.66531,-1.58379 6.47833,-1.66265 8.04101,1.46875 2.06855,3.66902 2.64763,7.96666 4.1543,11.86133 1.18814,4.53225 -0.94851,11.25572 -6.53711,10.98242 -1.55493,-0.10059 -3.04437,-1.23105 -3.92187,-2.25195 3.47728,4.67674 10.819783,3.35356 13.985897,-1.0207 2.176193,-1.70996 2.860425,-6.31907 6.279725,-5.65704 3.62027,1.26219 3.652226,6.16629 7.210937,7.64063 3.376379,2.12857 8.478839,2.56683 11.341797,-0.65234 -3.086184,2.97088 -8.902108,1.71344 -9.808594,-2.70508 -1.912803,-6.17886 1.877049,-12.14457 3.345704,-17.97852 2.13898,-4.42237 8.778426,-4.96286 11.7707,-1.15228 5.763422,3.67667 13.31801,7.41203 14.569143,14.87494 0.04767,3.25178 -3.085233,5.73689 -6.167968,5.83984 5.985351,0.53367 10.191162,-5.74482 9.611839,-11.25769 0.123952,-4.19659 -2.378638,-7.85609 -3.174339,-11.78137 0.700389,-3.81717 5.472573,-4.16222 8.35459,-5.67047 6.388307,-2.47448 14.914939,-4.64136 20.465722,0.77789 3.279499,3.50467 1.740936,9.16762 -1.71875,11.94336 -1.726621,1.96454 1.040179,0.68016 1.908203,-0.19922 5.214079,-3.92629 5.087036,-12.42584 -0.03906,-16.40234 -2.795759,-2.69272 -6.509837,-4.16476 -9.585938,-6.40235 -1.607239,-5.131164 4.557009,-8.026678 5.044483,-12.819138 4.857699,-13.278783 1.417006,-27.538105 -2.407764,-40.604686 -0.448503,-2.937712 -0.250568,-5.963829 0.498047,-8.835938 -5.672591,8.113806 -4.570494,18.467349 -4.947266,27.851563 -0.56329,7.308663 -4.444035,14.728713 -11.482422,17.634765 -8.803825,4.439515 -19.214187,4.835324 -28.75,3.298828 -3.01811,-1.885953 -1.291865,-6.219353 1.344531,-7.555169 15.070793,-16.659832 14.50777,-45.455471 -1.858072,-61.123821 -4.314547,-3.883809 -9.901133,-6.447499 -15.748177,-6.250697 z"
       style="opacity:1;fill:#e295df;fill-opacity:0.55191255;fill-rule:nonzero;stroke:none;stroke-width:0.80000001;stroke-linecap:round;stroke-linejoin:round;stroke-miterlimit:4;stroke-dasharray:none;stroke-opacity:1" />
    <path
       sodipodi:nodetypes="sssss"
       inkscape:connector-curvature="0"
       id="path4229"
       d="m -65.664743,30.612719 c -10e-7,10.266749 -10.848685,18.589593 -24.231215,18.589593 -13.382532,-10e-7 -24.231212,-8.322845 -24.231212,-18.589593 0,-10.266748 13.06834,-20.254332 24.231212,-20.254334 11.347848,-1e-6 24.231215,9.987585 24.231215,20.254334 z"
       style="opacity:1;fill:url(#linearGradient4237);fill-opacity:1;fill-rule:nonzero;stroke:none;stroke-width:0.1;stroke-linecap:round;stroke-linejoin:round;stroke-miterlimit:4;stroke-dasharray:none;stroke-opacity:1" />
    <path
       sodipodi:nodetypes="cccccccc"
       inkscape:connector-curvature="0"
       id="path4150"
       d="m -152.33631,37.754204 c 3.88078,6.36733 0.40362,14.443502 -2.06925,21.145659 -3.83327,12.416456 -1.09572,21.220733 5.32018,32.944704 11.65477,12.593683 18.09017,15.283303 31.54293,13.556693 14.36497,0.0355 12.59756,-6.010611 5.9042,-16.504305 -10.63643,0.07439 -23.19401,-0.395735 -31.01595,-8.681871 -6.48717,-7.512508 -3.81268,-18.345263 -4.68999,-27.376945 -0.81415,-6.428978 0.17047,-11.178218 -4.99212,-15.083935 z"
       style="fill:url(#linearGradient4278);fill-opacity:1;fill-rule:evenodd;stroke:none;stroke-width:0.1;stroke-linecap:butt;stroke-linejoin:miter;stroke-miterlimit:4;stroke-dasharray:none;stroke-opacity:1" />
    <path
       inkscape:connector-curvature="0"
       id="path4286"
       d="m -149.64062,43.496094 c 0.33747,9.555767 -6.54177,17.838001 -5.47546,27.505348 0.56651,8.163387 3.77176,16.294738 9.00432,22.555593 6.18144,6.755405 14.87594,12.684865 24.48577,11.148515 4.3056,-0.40707 9.16182,0.18627 13.01466,-2.10399 2.56959,-3.316841 -0.698,-7.307246 -2.10156,-10.386716 -0.83789,-2.321504 -3.04565,-2.573119 -5.21863,-2.33313 -10.10086,-0.114963 -21.71018,-1.742186 -28.39052,-10.183538 -5.99776,-8.553904 -2.83787,-19.502267 -4.26016,-29.113518 -0.20948,-2.628901 -0.19549,-5.34066 -1.12288,-7.846377 l 0.0424,0.498202 0.0221,0.259611 z"
       style="fill:url(#linearGradient4288);fill-opacity:1;fill-rule:evenodd;stroke:none;stroke-width:0.1;stroke-linecap:butt;stroke-linejoin:miter;stroke-miterlimit:4;stroke-dasharray:none;stroke-opacity:1" />
    <path
       style="fill:url(#linearGradient4298);fill-opacity:1;fill-rule:evenodd;stroke:none;stroke-width:0.1;stroke-linecap:butt;stroke-linejoin:miter;stroke-miterlimit:4;stroke-dasharray:none;stroke-opacity:1"
       d="m -28.751949,38.650491 c -3.88078,6.36733 -0.40362,14.443502 2.06925,21.145659 3.83327,12.416456 1.09572,21.220733 -5.32018,32.944704 -11.65477,12.593686 -18.09017,15.283306 -31.54293,13.556696 -14.36497,0.0355 -12.59756,-6.01061 -5.9042,-16.504308 10.63643,0.07439 23.19401,-0.395735 31.01595,-8.681871 6.48717,-7.512508 3.81268,-18.345263 4.68999,-27.376945 0.81415,-6.428978 -0.17047,-11.178218 4.99212,-15.083935 z"
       id="path4294"
       inkscape:connector-curvature="0"
       sodipodi:nodetypes="cccccccc" />
    <path
       style="fill:url(#linearGradient4300);fill-opacity:1;fill-rule:evenodd;stroke:none;stroke-width:0.1;stroke-linecap:butt;stroke-linejoin:miter;stroke-miterlimit:4;stroke-dasharray:none;stroke-opacity:1"
       d="m -31.447639,44.392381 c -0.33747,9.555767 6.54177,17.838001 5.47546,27.505348 -0.56651,8.163387 -3.77176,16.294738 -9.00432,22.555593 -6.18144,6.755408 -14.87594,12.684868 -24.48577,11.148518 -4.3056,-0.40707 -9.16182,0.18627 -13.01466,-2.10399 -2.56959,-3.31684 0.698,-7.307249 2.10156,-10.386719 0.83789,-2.321504 3.04565,-2.573119 5.21863,-2.33313 10.10086,-0.114963 21.71018,-1.742186 28.39052,-10.183538 5.99776,-8.553904 2.83787,-19.502267 4.26016,-29.113518 0.20948,-2.628901 0.19549,-5.34066 1.12288,-7.846377 l -0.0424,0.498202 -0.0221,0.259611 z"
       id="path4296"
       inkscape:connector-curvature="0" />
    <g
       id="g4312">
      <path
         style="fill:#f0d4ef;fill-opacity:0.1530055;fill-rule:evenodd;stroke:none;stroke-width:1px;stroke-linecap:butt;stroke-linejoin:miter;stroke-opacity:1"
         d="m -107.86136,116.46661 c -4.80783,-3.48876 -29.16965,8.53625 -24.26036,18.00507 1.71158,-7.81488 21.05811,-17.46347 24.26036,-18.00507 z"
         id="path4302"
         inkscape:connector-curvature="0"
         sodipodi:nodetypes="ccc" />
      <path
         style="fill:#f0d4ef;fill-opacity:0.1530055;fill-rule:evenodd;stroke:none;stroke-width:1px;stroke-linecap:butt;stroke-linejoin:miter;stroke-opacity:1"
         d="m -110.89648,116.36523 c -7.56293,1.11522 -15.01314,5.04601 -19.7754,11.10157 -1.12964,1.38602 -2.03048,4.25333 -1.37695,5.29882 4.00984,-6.82198 11.41879,-10.69168 18.15849,-14.35073 1.45801,-0.73297 2.93809,-1.42919 4.46846,-1.99887 -0.48734,-0.0722 -0.98334,-0.0802 -1.4746,-0.0508 z"
         id="path4304"
         inkscape:connector-curvature="0" />
      <path
         style="fill:#f0d4ef;fill-opacity:0.1530055;fill-rule:evenodd;stroke:none;stroke-width:1px;stroke-linecap:butt;stroke-linejoin:miter;stroke-opacity:1"
         d="m -112.91797,117.24219 c -7.24262,1.71005 -14.67162,5.6861 -18.39453,12.42187 -0.63659,1.59295 -0.40528,1.94076 0.5293,0.36133 4.75674,-5.94717 11.75445,-9.45938 18.38476,-12.88867 l -0.49,0.0995 -0.0295,0.006 z"
         id="path4308"
         inkscape:connector-curvature="0" />
    </g>
    <g
       transform="matrix(-1,0,0,1,-181.96852,-1.0989011)"
       id="g4317">
      <path
         sodipodi:nodetypes="ccc"
         inkscape:connector-curvature="0"
         id="path4319"
         d="m -107.86136,116.46661 c -4.80783,-3.48876 -29.16965,8.53625 -24.26036,18.00507 1.71158,-7.81488 21.05811,-17.46347 24.26036,-18.00507 z"
         style="fill:#f0d4ef;fill-opacity:0.1530055;fill-rule:evenodd;stroke:none;stroke-width:1px;stroke-linecap:butt;stroke-linejoin:miter;stroke-opacity:1" />
      <path
         inkscape:connector-curvature="0"
         id="path4321"
         d="m -110.89648,116.36523 c -7.56293,1.11522 -15.01314,5.04601 -19.7754,11.10157 -1.12964,1.38602 -2.03048,4.25333 -1.37695,5.29882 4.00984,-6.82198 11.41879,-10.69168 18.15849,-14.35073 1.45801,-0.73297 2.93809,-1.42919 4.46846,-1.99887 -0.48734,-0.0722 -0.98334,-0.0802 -1.4746,-0.0508 z"
         style="fill:#f0d4ef;fill-opacity:0.1530055;fill-rule:evenodd;stroke:none;stroke-width:1px;stroke-linecap:butt;stroke-linejoin:miter;stroke-opacity:1" />
      <path
         inkscape:connector-curvature="0"
         id="path4323"
         d="m -112.91797,117.24219 c -7.24262,1.71005 -14.67162,5.6861 -18.39453,12.42187 -0.63659,1.59295 -0.40528,1.94076 0.5293,0.36133 4.75674,-5.94717 11.75445,-9.45938 18.38476,-12.88867 l -0.49,0.0995 -0.0295,0.006 z"
         style="fill:#f0d4ef;fill-opacity:0.1530055;fill-rule:evenodd;stroke:none;stroke-width:1px;stroke-linecap:butt;stroke-linejoin:miter;stroke-opacity:1" />
    </g>
    <g
       transform="matrix(0.72850314,-0.58178041,0.67916907,0.54439658,-76.931175,-10.646427)"
       id="g4337">
      <path
         sodipodi:nodetypes="ccc"
         inkscape:connector-curvature="0"
         id="path4339"
         d="m -107.86136,116.46661 c -4.80783,-3.48876 -29.16965,8.53625 -24.26036,18.00507 1.71158,-7.81488 21.05811,-17.46347 24.26036,-18.00507 z"
         style="fill:#f0d4ef;fill-opacity:0.1530055;fill-rule:evenodd;stroke:none;stroke-width:1px;stroke-linecap:butt;stroke-linejoin:miter;stroke-opacity:1" />
      <path
         inkscape:connector-curvature="0"
         id="path4341"
         d="m -110.89648,116.36523 c -7.56293,1.11522 -15.01314,5.04601 -19.7754,11.10157 -1.12964,1.38602 -2.03048,4.25333 -1.37695,5.29882 4.00984,-6.82198 11.41879,-10.69168 18.15849,-14.35073 1.45801,-0.73297 2.93809,-1.42919 4.46846,-1.99887 -0.48734,-0.0722 -0.98334,-0.0802 -1.4746,-0.0508 z"
         style="fill:#f0d4ef;fill-opacity:0.1530055;fill-rule:evenodd;stroke:none;stroke-width:1px;stroke-linecap:butt;stroke-linejoin:miter;stroke-opacity:1" />
      <path
         inkscape:connector-curvature="0"
         id="path4343"
         d="m -112.91797,117.24219 c -7.24262,1.71005 -14.67162,5.6861 -18.39453,12.42187 -0.63659,1.59295 -0.40528,1.94076 0.5293,0.36133 4.75674,-5.94717 11.75445,-9.45938 18.38476,-12.88867 l -0.49,0.0995 -0.0295,0.006 z"
         style="fill:#f0d4ef;fill-opacity:0.1530055;fill-rule:evenodd;stroke:none;stroke-width:1px;stroke-linecap:butt;stroke-linejoin:miter;stroke-opacity:1" />
    </g>
    <g
       id="g4345"
       transform="matrix(-0.72850314,-0.58178041,-0.67916907,0.54439658,-104.89508,-11.147576)">
      <path
         style="fill:#f0d4ef;fill-opacity:0.1530055;fill-rule:evenodd;stroke:none;stroke-width:1px;stroke-linecap:butt;stroke-linejoin:miter;stroke-opacity:1"
         d="m -107.86136,116.46661 c -4.80783,-3.48876 -29.16965,8.53625 -24.26036,18.00507 1.71158,-7.81488 21.05811,-17.46347 24.26036,-18.00507 z"
         id="path4347"
         inkscape:connector-curvature="0"
         sodipodi:nodetypes="ccc" />
      <path
         style="fill:#f0d4ef;fill-opacity:0.1530055;fill-rule:evenodd;stroke:none;stroke-width:1px;stroke-linecap:butt;stroke-linejoin:miter;stroke-opacity:1"
         d="m -110.89648,116.36523 c -7.56293,1.11522 -15.01314,5.04601 -19.7754,11.10157 -1.12964,1.38602 -2.03048,4.25333 -1.37695,5.29882 4.00984,-6.82198 11.41879,-10.69168 18.15849,-14.35073 1.45801,-0.73297 2.93809,-1.42919 4.46846,-1.99887 -0.48734,-0.0722 -0.98334,-0.0802 -1.4746,-0.0508 z"
         id="path4349"
         inkscape:connector-curvature="0" />
      <path
         style="fill:#f0d4ef;fill-opacity:0.1530055;fill-rule:evenodd;stroke:none;stroke-width:1px;stroke-linecap:butt;stroke-linejoin:miter;stroke-opacity:1"
         d="m -112.91797,117.24219 c -7.24262,1.71005 -14.67162,5.6861 -18.39453,12.42187 -0.63659,1.59295 -0.40528,1.94076 0.5293,0.36133 4.75674,-5.94717 11.75445,-9.45938 18.38476,-12.88867 l -0.49,0.0995 -0.0295,0.006 z"
         id="path4351"
         inkscape:connector-curvature="0" />
    </g>
    <g
       transform="translate(-152.28137,-11.026616)"
       id="g4358">
      <path
         style="fill:#c7bbc6;fill-opacity:1;fill-rule:evenodd;stroke:#ac10a2;stroke-width:1px;stroke-linecap:butt;stroke-linejoin:miter;stroke-opacity:1"
         d="M 45.938679,69.459039 C 43.321439,80.53325 51.105261,98.824718 59.970858,83.992367 53.721645,81.348473 50.070814,75.066843 45.938679,69.459039 Z"
         id="path4353"
         inkscape:connector-curvature="0"
         sodipodi:nodetypes="ccc" />
      <path
         style="opacity:1;fill:#461343;fill-opacity:1;fill-rule:nonzero;stroke:none;stroke-width:0.80000001;stroke-linecap:round;stroke-linejoin:round;stroke-miterlimit:4;stroke-dasharray:none;stroke-opacity:1"
         d="m 57.878386,83.562137 c 0,2.955573 -2.267232,5.000042 -5.244669,5.000042 -0.539985,0 -1.061427,-0.07881 -1.553292,-0.225463 -1.84705,-1.419137 -3.144802,-3.451444 -3.792595,-5.822556 0.299777,-2.289642 2.057469,-4.124872 4.318344,-4.55797 1.570824,2.17272 4.353008,4.102369 6.272212,5.605947 z"
         id="path4355"
         inkscape:connector-curvature="0"
         sodipodi:nodetypes="cscccc" />
    </g>
    <g
       id="g4362"
       transform="matrix(-1,0,0,1,-28.800408,-11.026616)">
      <path
         sodipodi:nodetypes="ccc"
         inkscape:connector-curvature="0"
         id="path4364"
         d="M 45.938679,69.459039 C 43.321439,80.53325 51.105261,98.824718 59.970858,83.992367 53.721645,81.348473 50.070814,75.066843 45.938679,69.459039 Z"
         style="fill:#cfbdce;fill-opacity:1;fill-rule:evenodd;stroke:#ac10a2;stroke-width:1px;stroke-linecap:butt;stroke-linejoin:miter;stroke-opacity:1" />
      <path
         sodipodi:nodetypes="cscccc"
         inkscape:connector-curvature="0"
         id="path4366"
         d="m 57.878386,83.562137 c 0,2.955573 -2.267232,5.000042 -5.244669,5.000042 -0.539985,0 -1.061427,-0.07881 -1.553292,-0.225463 -1.84705,-1.419137 -3.144802,-3.451444 -3.792595,-5.822556 0.299777,-2.289642 2.057469,-4.124872 4.318344,-4.55797 1.570824,2.17272 4.353008,4.102369 6.272212,5.605947 z"
         style="opacity:1;fill:#461343;fill-opacity:1;fill-rule:nonzero;stroke:none;stroke-width:0.80000001;stroke-linecap:round;stroke-linejoin:round;stroke-miterlimit:4;stroke-dasharray:none;stroke-opacity:1" />
    </g>
    <g
       style="fill:#553453;fill-opacity:0.06010928"
       id="g4374">
      <path
         style="fill:#553453;fill-opacity:0.06010928;fill-rule:evenodd;stroke:none;stroke-width:1px;stroke-linecap:butt;stroke-linejoin:miter;stroke-opacity:1"
         d="m -104.64824,54.221106 c -1.7028,3.880657 8.908905,17.693074 12.939697,17.336683 -5.468689,-5.085621 -11.569977,-13.006145 -12.939697,-17.336683 z"
         id="path4368"
         inkscape:connector-curvature="0"
         sodipodi:nodetypes="ccc" />
      <path
         sodipodi:nodetypes="ccc"
         inkscape:connector-curvature="0"
         id="path4370"
         d="m -104.59051,55.362739 c -0.40169,4.114852 9.623575,16.245226 11.995139,15.720165 -3.726056,-3.646054 -9.805949,-10.712675 -11.995139,-15.720165 z"
         style="fill:#553453;fill-opacity:0.06010928;fill-rule:evenodd;stroke:none;stroke-width:1px;stroke-linecap:butt;stroke-linejoin:miter;stroke-opacity:1" />
      <path
         style="fill:#553453;fill-opacity:0.06010928;fill-rule:evenodd;stroke:none;stroke-width:1px;stroke-linecap:butt;stroke-linejoin:miter;stroke-opacity:1"
         d="m -103.86125,57.307437 c 0.85317,3.621873 8.626398,13.144766 9.989671,13.015819 -3.018808,-3.385489 -6.970231,-7.702449 -9.989671,-13.015819 z"
         id="path4372"
         inkscape:connector-curvature="0"
         sodipodi:nodetypes="ccc" />
    </g>
    <g
       transform="matrix(-1,0,0,1,-181.38717,0.24679171)"
       id="g4379"
       style="fill:#553453;fill-opacity:0.06010928">
      <path
         sodipodi:nodetypes="ccc"
         inkscape:connector-curvature="0"
         id="path4381"
         d="m -104.64824,54.221106 c -1.7028,3.880657 8.908905,17.693074 12.939697,17.336683 -5.468689,-5.085621 -11.569977,-13.006145 -12.939697,-17.336683 z"
         style="fill:#553453;fill-opacity:0.06010928;fill-rule:evenodd;stroke:none;stroke-width:1px;stroke-linecap:butt;stroke-linejoin:miter;stroke-opacity:1" />
      <path
         style="fill:#553453;fill-opacity:0.06010928;fill-rule:evenodd;stroke:none;stroke-width:1px;stroke-linecap:butt;stroke-linejoin:miter;stroke-opacity:1"
         d="m -104.59051,55.362739 c -0.40169,4.114852 9.623575,16.245226 11.995139,15.720165 -3.726056,-3.646054 -9.805949,-10.712675 -11.995139,-15.720165 z"
         id="path4383"
         inkscape:connector-curvature="0"
         sodipodi:nodetypes="ccc" />
      <path
         sodipodi:nodetypes="ccc"
         inkscape:connector-curvature="0"
         id="path4385"
         d="m -103.86125,57.307437 c 0.85317,3.621873 8.626398,13.144766 9.989671,13.015819 -3.018808,-3.385489 -6.970231,-7.702449 -9.989671,-13.015819 z"
         style="fill:#553453;fill-opacity:0.06010928;fill-rule:evenodd;stroke:none;stroke-width:1px;stroke-linecap:butt;stroke-linejoin:miter;stroke-opacity:1" />
    </g>
  </g>
</svg>
