<?xml version="1.0" encoding="UTF-8" standalone="no"?>
<!-- Created with Inkscape (http://www.inkscape.org/) -->

<svg
   xmlns:dc="http://purl.org/dc/elements/1.1/"
   xmlns:cc="http://creativecommons.org/ns#"
   xmlns:rdf="http://www.w3.org/1999/02/22-rdf-syntax-ns#"
   xmlns:svg="http://www.w3.org/2000/svg"
   xmlns="http://www.w3.org/2000/svg"
   xmlns:xlink="http://www.w3.org/1999/xlink"
   xmlns:sodipodi="http://sodipodi.sourceforge.net/DTD/sodipodi-0.dtd"
   xmlns:inkscape="http://www.inkscape.org/namespaces/inkscape"
   width="256"
   height="256"
   id="svg2"
   sodipodi:version="0.32"
   inkscape:version="0.48.0 r9654"
   version="1.0"
   sodipodi:docname="ooo-web.svg"
   inkscape:output_extension="org.inkscape.output.svg.inkscape">
  <defs
     id="defs4">
    <linearGradient
       inkscape:collect="always"
       id="linearGradient3798">
      <stop
         style="stop-color:#ffffff;stop-opacity:1;"
         offset="0"
         id="stop3800" />
      <stop
         style="stop-color:#ffffff;stop-opacity:0;"
         offset="1"
         id="stop3802" />
    </linearGradient>
    <linearGradient
       id="linearGradient3151">
      <stop
         style="stop-color:#d5d5d5;stop-opacity:1;"
         offset="0"
         id="stop3153" />
      <stop
         style="stop-color:#000000;stop-opacity:1;"
         offset="1"
         id="stop3155" />
    </linearGradient>
    <inkscape:perspective
       sodipodi:type="inkscape:persp3d"
       inkscape:vp_x="0 : 526.18109 : 1"
       inkscape:vp_y="0 : 1000 : 0"
       inkscape:vp_z="744.09448 : 526.18109 : 1"
       inkscape:persp3d-origin="372.04724 : 350.78739 : 1"
       id="perspective10" />
    <linearGradient
       inkscape:collect="always"
       xlink:href="#linearGradient3151"
       id="linearGradient3160"
       gradientUnits="userSpaceOnUse"
       gradientTransform="matrix(0.9808099,0,0,0.9808099,1.8257,1.9264852)"
       x1="139.86549"
       y1="242.78192"
       x2="139.85689"
       y2="8.7239504" />
    <radialGradient
       r="82.246078"
       fy="96.563515"
       fx="97.376251"
       cy="96.563515"
       cx="97.376251"
       gradientUnits="userSpaceOnUse"
       id="radialGradient1915"
       xlink:href="#linearGradient2842"
       inkscape:collect="always" />
    <linearGradient
       y2="8.6443748"
       x2="94.581017"
       y1="161.49792"
       x1="95.92054"
       gradientUnits="userSpaceOnUse"
       id="linearGradient1912"
       xlink:href="#linearGradient2832"
       inkscape:collect="always" />
    <radialGradient
       r="82.246078"
       fy="36.818726"
       fx="97.376251"
       cy="36.818726"
       cx="97.376251"
       gradientUnits="userSpaceOnUse"
       id="radialGradient1905"
       xlink:href="#linearGradient2864"
       inkscape:collect="always" />
    <linearGradient
       gradientTransform="translate(43.91683,-4.355388)"
       spreadMethod="reflect"
       gradientUnits="userSpaceOnUse"
       y2="71.669281"
       x2="179.91666"
       y1="142.08138"
       x1="115.50922"
       id="linearGradient2809"
       xlink:href="#linearGradient2795"
       inkscape:collect="always" />
    <linearGradient
       spreadMethod="reflect"
       gradientUnits="userSpaceOnUse"
       y2="18.051565"
       x2="64.800018"
       y1="91.631477"
       x1="133.71849"
       id="linearGradient2801"
       xlink:href="#linearGradient2795"
       inkscape:collect="always" />
    <radialGradient
       gradientTransform="matrix(1,0,0,0.523585,0,76.50073)"
       r="82.246078"
       fy="173.91299"
       fx="102.41965"
       cy="173.91299"
       cx="102.41965"
       gradientUnits="userSpaceOnUse"
       id="radialGradient2874"
       xlink:href="#linearGradient2876"
       inkscape:collect="always" />
    <radialGradient
       gradientUnits="userSpaceOnUse"
       r="82.246078"
       fy="36.818726"
       fx="97.376251"
       cy="36.818726"
       cx="97.376251"
       id="radialGradient2862"
       xlink:href="#linearGradient2864"
       inkscape:collect="always" />
    <linearGradient
       gradientUnits="userSpaceOnUse"
       y2="182.30116"
       x2="88.841286"
       y1="11.601768"
       x1="99.703964"
       id="linearGradient2822"
       xlink:href="#linearGradient2816"
       inkscape:collect="always" />
    <linearGradient
       id="linearGradient2816"
       inkscape:collect="always">
      <stop
         id="stop2818"
         offset="0"
         style="stop-color:#100fa4;stop-opacity:1" />
      <stop
         id="stop2820"
         offset="1"
         style="stop-color:#4545e4;stop-opacity:1" />
    </linearGradient>
    <linearGradient
       inkscape:collect="always"
       id="linearGradient2832">
      <stop
         style="stop-color:white;stop-opacity:1"
         offset="0"
         id="stop2834" />
      <stop
         style="stop-color:#2020e4;stop-opacity:1"
         offset="1"
         id="stop2836" />
    </linearGradient>
    <linearGradient
       id="linearGradient2842">
      <stop
         style="stop-color:#100fa4;stop-opacity:0;"
         offset="0"
         id="stop2844" />
      <stop
         id="stop2848"
         offset="0.5"
         style="stop-color:#1818d9;stop-opacity:0;" />
      <stop
         style="stop-color:#0000e6;stop-opacity:0;"
         offset="0.75"
         id="stop2850" />
      <stop
         id="stop2852"
         offset="0.875"
         style="stop-color:#0207b7;stop-opacity:0.17525773;" />
      <stop
         style="stop-color:#030a9f;stop-opacity:0.6082474;"
         offset="1"
         id="stop2854" />
    </linearGradient>
    <linearGradient
       inkscape:collect="always"
       id="linearGradient2864">
      <stop
         style="stop-color:white;stop-opacity:1"
         offset="0"
         id="stop2866" />
      <stop
         style="stop-color:#4545e4;stop-opacity:0"
         offset="1"
         id="stop2868" />
    </linearGradient>
    <linearGradient
       id="linearGradient2876"
       inkscape:collect="always">
      <stop
         id="stop2878"
         offset="0"
         style="stop-color:#161b39;stop-opacity:1" />
      <stop
         id="stop2880"
         offset="1"
         style="stop-color:#4545e4;stop-opacity:0" />
    </linearGradient>
    <linearGradient
       id="linearGradient2795"
       inkscape:collect="always">
      <stop
         id="stop2797"
         offset="0"
         style="stop-color:white;stop-opacity:1" />
      <stop
         id="stop2799"
         offset="1"
         style="stop-color:#8983e9;stop-opacity:0.27843139" />
    </linearGradient>
    <inkscape:perspective
       id="perspective3283"
       inkscape:persp3d-origin="128 : 85.333333 : 1"
       inkscape:vp_z="256 : 128 : 1"
       inkscape:vp_y="0 : 1000 : 0"
       inkscape:vp_x="0 : 128 : 1"
       sodipodi:type="inkscape:persp3d" />
    <linearGradient
       inkscape:collect="always"
       xlink:href="#linearGradient2832"
       id="linearGradient3328"
       gradientUnits="userSpaceOnUse"
       x1="95.92054"
       y1="161.49792"
       x2="94.581017"
       y2="8.6443748"
       gradientTransform="matrix(0.9792572,0,0,0.9792572,81.645165,53.387535)" />
    <radialGradient
       inkscape:collect="always"
       xlink:href="#linearGradient2876"
       id="radialGradient3336"
       gradientUnits="userSpaceOnUse"
       gradientTransform="matrix(1,0,0,0.523585,0,76.50073)"
       cx="102.41965"
       cy="173.91299"
       fx="102.41965"
       fy="173.91299"
       r="82.246078" />
    <radialGradient
       inkscape:collect="always"
       xlink:href="#linearGradient2864"
       id="radialGradient3338"
       gradientUnits="userSpaceOnUse"
       cx="97.376251"
       cy="36.818726"
       fx="97.376251"
       fy="36.818726"
       r="82.246078" />
    <linearGradient
       inkscape:collect="always"
       xlink:href="#linearGradient3151"
       id="linearGradient3341"
       gradientUnits="userSpaceOnUse"
       gradientTransform="matrix(0.9808099,0,0,0.9808099,1.8257,1.9264852)"
       x1="139.86549"
       y1="242.78192"
       x2="139.85689"
       y2="8.7239504" />
    <linearGradient
       inkscape:collect="always"
       xlink:href="#linearGradient3151"
       id="linearGradient3344"
       gradientUnits="userSpaceOnUse"
       gradientTransform="matrix(0.9808099,0,0,0.9808099,-7.590392,-0.1332849)"
       x1="139.86549"
       y1="242.78192"
       x2="139.85689"
       y2="8.7239504" />
    <filter
       inkscape:collect="always"
       id="filter3352">
      <feGaussianBlur
         inkscape:collect="always"
         stdDeviation="2.2963505"
         id="feGaussianBlur3354" />
    </filter>
    <linearGradient
       inkscape:collect="always"
       xlink:href="#linearGradient3798"
       id="linearGradient3804"
       x1="86.81884"
       y1="-8.673913"
       x2="109.19565"
       y2="65.239128"
       gradientUnits="userSpaceOnUse" />
  </defs>
  <sodipodi:namedview
     id="base"
     pagecolor="#ffffff"
     bordercolor="#666666"
     borderopacity="1.0"
     gridtolerance="10000"
     guidetolerance="10"
     objecttolerance="10"
     inkscape:pageopacity="0.0"
     inkscape:pageshadow="2"
     inkscape:zoom="2.76"
     inkscape:cx="128"
     inkscape:cy="128"
     inkscape:document-units="px"
     inkscape:current-layer="layer1"
     showgrid="false"
     inkscape:window-width="1680"
     inkscape:window-height="1022"
     inkscape:window-x="-2"
     inkscape:window-y="0"
     inkscape:window-maximized="1" />
  <metadata
     id="metadata7">
    <rdf:RDF>
      <cc:Work
         rdf:about="">
        <dc:format>image/svg+xml</dc:format>
        <dc:type
           rdf:resource="http://purl.org/dc/dcmitype/StillImage" />
      </cc:Work>
    </rdf:RDF>
  </metadata>
  <g
     inkscape:label="Layer 1"
     inkscape:groupmode="layer"
     id="layer1">
    <g
       id="g3356">
      <path
         style="fill:#000000;fill-opacity:1;stroke:none;stroke-width:1;stroke-linecap:round;stroke-linejoin:round;stroke-miterlimit:4;stroke-dasharray:none;stroke-opacity:1;filter:url(#filter3352)"
         d="M 20.830138,13.450503 L 20.830138,244.33807 L 187.11729,244.33807 L 187.11729,225.71342 C 179.44559,227.91607 171.31245,229.10266 162.92172,229.10266 C 115.29137,229.10266 76.630749,191.03978 76.630753,144.14584 C 76.630742,97.251913 115.29137,59.189031 162.92172,59.189031 C 171.31245,59.189031 179.44559,60.375617 187.11729,62.578265 L 187.11729,13.450503 L 20.830138,13.450503 z M 187.11729,62.578265 L 187.11729,65.321931 C 221.50807,75.540729 246.55707,106.96605 246.55707,144.14584 C 246.55707,181.32563 221.50807,212.77537 187.11729,223.00203 L 187.11729,225.71342 C 222.99424,215.41265 249.21269,182.77876 249.21268,144.14584 C 249.21268,105.51293 222.99424,72.879042 187.11729,62.578265 z M 187.11729,223.00203 L 187.11729,157.15405 C 185.67018,156.69914 183.91286,156.71182 181.77327,157.38 C 172.1755,161.23844 164.77198,149.13057 166.75761,140.98256 C 167.01207,130.33573 176.08217,119.18282 187.11729,119.42057 L 187.11729,112.09337 C 185.35846,112.41313 183.72978,113.46184 182.62569,115.74083 C 175.56578,125.72843 169.81805,108.08675 181.11758,109.64021 C 178.2463,106.72021 179.4867,104.97958 182.00277,103.60414 C 177.78176,103.27251 177.89418,87.398183 182.39619,95.211753 C 182.58739,98.663861 185.14436,99.685477 187.11729,99.117442 L 187.11729,94.2434 C 185.76171,93.078056 184.91608,91.427046 185.24852,89.401636 C 185.86124,88.846992 186.47908,88.243069 187.11729,87.658601 L 187.11729,65.321931 C 179.46135,63.047066 171.32851,61.803583 162.92172,61.803583 C 116.75128,61.803583 79.286361,98.689262 79.286364,144.14584 C 79.286364,189.60243 116.75127,226.5204 162.92172,226.52038 C 171.32851,226.52038 179.46135,225.27865 187.11729,223.00203 z M 187.11729,87.658601 L 187.11729,94.2434 C 187.76836,94.803118 188.52525,95.21692 189.34669,95.534537 C 189.73732,97.381662 188.59232,98.692754 187.11729,99.117442 L 187.11729,112.09337 C 190.91827,111.40231 195.32685,114.17985 196.52667,115.90222 C 194.6072,104.1169 204.23861,126.28558 203.57552,114.44969 C 205.10344,114.96734 221.4696,124.53672 209.83752,123.74588 C 202.23763,126.68841 196.34658,125.40134 190.78924,119.90474 C 189.54832,119.59232 188.32091,119.44649 187.11729,119.42057 L 187.11729,157.15405 C 194.08967,159.34583 193.86603,172.71229 194.46119,179.32932 C 192.99453,188.0597 198.09214,199.53435 199.90356,205.34573 C 209.70315,204.49919 215.09509,195.24889 215.83723,187.85083 C 225.8567,182.80371 217.91304,170.73841 224.65647,163.44834 C 227.53179,159.97194 234.6678,147.06286 226.32852,150.08507 C 230.32447,146.11379 240.83971,136.58786 233.83636,133.4294 C 228.32558,134.56302 226.46546,123.71133 232.98394,130.2984 C 238.24709,134.72263 241.83814,133.55437 239.93444,126.42499 C 237.07047,111.86517 228.36975,98.952191 218.42726,88.078221 C 213.67825,84.849499 208.44656,87.913187 205.77213,82.429497 C 198.48076,77.668158 192.36743,82.850515 187.11729,87.658601 z M 157.18429,69.324456 C 162.15416,69.130156 167.24669,70.13248 170.85577,72.197236 C 169.75901,76.644441 168.31518,76.993245 170.1017,77.84596 C 170.0994,87.005971 157.74076,87.689038 152.75827,93.662388 C 147.13853,96.441342 151.97256,90.34109 147.38148,88.530119 C 146.77432,83.755703 148.58315,78.097988 142.10304,76.232039 C 144.62514,71.787054 150.79445,69.574272 157.18429,69.324456 z M 135.67712,74.553561 C 136.90055,74.612153 135.85868,76.591334 135.51319,79.621274 C 143.77269,81.2239 147.1693,88.545744 141.80797,95.921878 C 142.18976,102.61034 118.04511,105.28431 130.85767,105.57312 C 131.00822,110.50935 119.60665,112.50407 116.59606,118.29082 C 112.102,120.85379 110.2798,130.39482 107.38339,129.81422 C 101.00718,122.80659 85.534853,137.27159 96.105233,140.20787 C 101.27818,137.83232 103.0511,137.84869 101.15418,143.91989 C 103.66461,144.59243 105.23821,147.82821 105.08841,152.11861 C 113.78352,148.5611 126.74814,147.31279 131.4806,156.66987 C 136.29297,163.16547 145.67676,164.63061 149.80759,171.48567 C 146.82268,178.54706 148.81202,188.66687 141.57847,193.37044 C 138.23935,200.21284 133.88356,206.62514 128.72663,212.80205 C 117.55503,212.03466 119.73333,202.40298 118.85825,194.59702 C 119.02506,184.25388 105.31027,179.56874 106.33426,169.06479 C 110.12387,161.59087 109.54143,154.06375 100.99025,150.60153 C 95.033504,145.94598 81.97537,144.75693 84.794297,134.01042 C 88.011481,118.98936 94.202761,103.94867 104.8917,92.532644 C 112.73855,85.264655 121.95228,78.870547 132.33301,75.747863 C 134.09932,74.901828 135.12101,74.526928 135.67712,74.553561 z M 129.12005,83.688355 C 127.86322,83.680752 126.67407,83.979987 125.74317,84.979492 C 119.79129,88.355483 105.03838,93.362229 117.48126,99.730732 C 121.41209,97.080745 125.87087,87.272904 132.8248,84.333924 C 131.66973,84.016764 130.37689,83.695958 129.12005,83.688355 z M 200.23142,86.076959 C 200.60314,86.022654 200.64806,86.819182 200.13305,89.143409 C 205.77445,92.400481 193.68283,100.63332 189.44505,95.566815 C 193.18591,96.961104 197.8748,95.747209 196.9201,90.531381 C 198.10287,88.643121 199.61187,86.167465 200.23142,86.076959 z M 130.7921,86.367464 C 134.98206,89.707193 128.10722,93.209983 134.3657,95.46998 C 139.30897,100.68376 136.79625,96.228882 137.48031,92.048467 C 140.79896,87.253527 140.22816,84.905105 134.89027,89.401636 C 133.52045,88.390152 132.16192,87.378945 130.7921,86.367464 z M 177.11776,96.438333 C 180.76677,95.982963 175.31069,107.89912 174.95393,97.503521 C 175.88821,96.832964 176.59647,96.503386 177.11776,96.438333 z M 195.77261,110.41489 C 195.93588,110.42302 196.17383,110.49694 196.52667,110.64084 C 197.54975,113.07253 194.6297,110.35798 195.77261,110.41489 z M 215.0176,128.84587 C 219.95469,133.30646 226.20184,146.9655 222.72215,149.08444 C 219.20581,143.98659 213.39457,135.17323 215.0176,128.84587 z"
         id="path3346" />
      <path
         id="rect3196"
         d="M 26.177658,11.09648 L 26.177658,234.62773 L 184.67766,234.62773 L 184.67766,216.59648 C 177.36523,218.72895 169.61296,219.87773 161.61516,219.87773 C 116.21532,219.87773 79.365155,183.02758 79.365158,137.62773 C 79.365148,92.227889 116.21532,55.37773 161.61516,55.37773 C 169.61296,55.37773 177.36523,56.52651 184.67766,58.65898 L 184.67766,11.09648 L 26.177658,11.09648 z M 184.67766,58.65898 L 184.67766,61.31523 C 217.45795,71.208446 241.33391,101.63253 241.33391,137.62773 C 241.33391,173.62293 217.45795,204.07065 184.67766,213.97148 L 184.67766,216.59648 C 218.87452,206.6239 243.86517,175.02976 243.86516,137.62773 C 243.86516,100.2257 218.87452,68.631563 184.67766,58.65898 z M 184.67766,213.97148 L 184.67766,150.22148 C 183.29833,149.78107 181.6233,149.79334 179.58391,150.44023 C 170.43559,154.17574 163.37877,142.45364 165.27141,134.56523 C 165.51396,124.25762 174.15932,113.46006 184.67766,113.69023 L 184.67766,106.59648 C 183.0012,106.90606 181.44879,107.92135 180.39641,110.12773 C 173.66711,119.79712 168.18854,102.71752 178.95891,104.22148 C 176.2221,101.39452 177.40441,99.70935 179.80266,98.37773 C 175.77931,98.05667 175.88647,82.688109 180.17766,90.25273 C 180.3599,93.59485 182.79713,94.583917 184.67766,94.03398 L 184.67766,89.31523 C 183.38557,88.187015 182.57954,86.588608 182.89641,84.62773 C 183.48043,84.090757 184.06934,83.506076 184.67766,82.94023 L 184.67766,61.31523 C 177.38025,59.112844 169.62826,57.90898 161.61516,57.90898 C 117.60687,57.90898 81.896405,93.619442 81.896408,137.62773 C 81.896408,181.63602 117.60686,217.37775 161.61516,217.37773 C 169.62826,217.37773 177.38025,216.17556 184.67766,213.97148 z M 184.67766,82.94023 L 184.67766,89.31523 C 185.29825,89.857115 186.01969,90.257733 186.80266,90.56523 C 187.175,92.353504 186.08362,93.622823 184.67766,94.03398 L 184.67766,106.59648 C 188.30065,105.92744 192.50277,108.61649 193.64641,110.28398 C 191.81683,98.87415 200.9972,120.33652 200.36516,108.87773 C 201.82154,109.37889 217.42127,118.64338 206.33391,117.87773 C 199.08993,120.72651 193.47475,119.48045 188.17766,114.15898 C 186.99486,113.85651 185.82492,113.71533 184.67766,113.69023 L 184.67766,150.22148 C 191.32353,152.34343 191.11037,165.28402 191.67766,171.69023 C 190.27967,180.14245 195.13857,191.2515 196.86516,196.87773 C 206.20584,196.05816 211.34528,187.10258 212.05266,179.94023 C 221.60293,175.05392 214.03127,163.37303 220.45891,156.31523 C 223.19957,152.94959 230.00141,140.45181 222.05266,143.37773 C 225.86147,139.53298 235.88429,130.31055 229.20891,127.25273 C 223.95619,128.35023 222.18318,117.84428 228.39641,124.22148 C 233.41308,128.50475 236.83596,127.37371 235.02141,120.47148 C 232.29156,106.37555 223.9983,93.873994 214.52141,83.34648 C 209.99479,80.220629 205.0081,83.186704 202.45891,77.87773 C 195.50899,73.268093 189.68194,78.285334 184.67766,82.94023 z M 156.14641,65.19023 C 160.88355,65.00212 165.73759,65.972509 169.17766,67.97148 C 168.13227,72.276992 166.75605,72.614683 168.45891,73.44023 C 168.45672,82.308393 156.67682,82.969697 151.92766,88.75273 C 146.57109,91.443143 151.17875,85.537252 146.80266,83.78398 C 146.22394,79.161682 147.94806,73.684228 141.77141,71.87773 C 144.17541,67.574367 150.0558,65.432086 156.14641,65.19023 z M 135.64641,70.25273 C 136.81255,70.309455 135.81947,72.225577 135.49016,75.15898 C 143.36288,76.710545 146.60042,83.799107 141.49016,90.94023 C 141.85407,97.41559 118.8401,100.00437 131.05266,100.28398 C 131.19616,105.06293 120.32852,106.9941 117.45891,112.59648 C 113.17531,115.07779 111.43844,124.31483 108.67766,123.75273 C 102.60005,116.96837 87.852284,130.9725 97.927658,133.81523 C 102.85836,131.51536 104.54825,131.53121 102.74016,137.40898 C 105.13303,138.06009 106.63294,141.19277 106.49016,145.34648 C 114.77808,141.90231 127.13557,140.69378 131.64641,149.75273 C 136.23342,156.04137 145.17778,157.45983 149.11516,164.09648 C 146.27003,170.93289 148.16621,180.73027 141.27141,185.28398 C 138.08866,191.90837 133.93684,198.11637 129.02141,204.09648 C 118.37297,203.35354 120.44926,194.02873 119.61516,186.47148 C 119.77416,176.45788 106.70163,171.92202 107.67766,161.75273 C 111.28981,154.51694 110.73465,147.22964 102.58391,143.87773 C 96.906118,139.37051 84.45949,138.21935 87.146408,127.81523 C 90.212933,113.27276 96.114278,98.71128 106.30266,87.65898 C 113.78205,80.622557 122.5643,74.432172 132.45891,71.40898 C 134.1425,70.589901 135.11635,70.226946 135.64641,70.25273 z M 129.39641,79.09648 C 128.19843,79.089119 127.06497,79.37882 126.17766,80.34648 C 120.50451,83.614908 106.44247,88.462134 118.30266,94.62773 C 122.0494,92.062174 126.29939,82.566821 132.92766,79.72148 C 131.82669,79.414425 130.59439,79.103841 129.39641,79.09648 z M 197.17766,81.40898 C 197.53198,81.356406 197.57479,82.127555 197.08391,84.37773 C 202.46112,87.531028 190.93574,95.501561 186.89641,90.59648 C 190.4621,91.946345 194.93141,90.771126 194.02141,85.72148 C 195.14879,83.893382 196.58713,81.496603 197.17766,81.40898 z M 130.99016,81.69023 C 134.9839,84.923551 128.43101,88.314739 134.39641,90.50273 C 139.10819,95.55039 136.71314,91.237452 137.36516,87.19023 C 140.5284,82.548062 139.98433,80.274463 134.89641,84.62773 C 133.59074,83.648473 132.29583,82.669484 130.99016,81.69023 z M 175.14641,91.44023 C 178.62454,90.999369 173.42397,102.53587 173.08391,92.47148 C 173.97444,91.822288 174.64953,91.50321 175.14641,91.44023 z M 192.92766,104.97148 C 193.08329,104.97935 193.31009,105.05092 193.64641,105.19023 C 194.62158,107.54445 191.83827,104.91639 192.92766,104.97148 z M 211.27141,122.81523 C 215.9773,127.1337 221.9319,140.35755 218.61516,142.40898 C 215.2635,137.47355 209.7244,128.941 211.27141,122.81523 z"
         style="fill:url(#linearGradient3344);fill-opacity:1;stroke:none;stroke-width:1;stroke-linecap:round;stroke-linejoin:round;stroke-miterlimit:4;stroke-dasharray:none;stroke-opacity:1" />
    </g>
    <path
       style="font-size:14px;font-style:normal;font-weight:normal;fill:#000000;fill-opacity:1;stroke:none;stroke-width:1px;stroke-linecap:butt;stroke-linejoin:miter;stroke-opacity:1;font-family:Bitstream Vera Sans"
       d="M 10.338337,-10.630085 L 10.369587,-10.598835 L 6.9504776,-1.4142743 L 8.3879776,-1.3856193 L 9.6246406,-4.5355853 L 12.857374,-4.5355853 L 14.083033,-1.3856183 L 15.520533,-1.3856183 L 14.244587,-4.5675853 C 15.011057,-4.6616323 15.614006,-4.8951793 16.057087,-5.2863353 C 16.64497,-5.8013043 16.93208,-6.5604173 16.932087,-7.5675853 C 16.932079,-8.5656233 16.644971,-9.3338523 16.057087,-9.8488353 C 15.473747,-10.368356 14.607212,-10.630075 13.463337,-10.630085 L 11.932087,-10.630085 L 10.369587,-10.630085 L 10.338337,-10.630085 z M 12.369587,-9.5050853 L 13.463337,-9.5050853 C 14.10591,-9.5050763 14.612421,-9.3377583 14.963337,-9.0050853 C 15.314242,-8.6723943 15.494581,-8.1782543 15.494587,-7.5675853 C 15.494581,-6.9523443 15.314243,-6.4940113 14.963337,-6.1613353 C 14.676858,-5.8897383 14.287944,-5.7424543 13.807087,-5.6925853 L 12.369587,-9.5050853 z M 11.140459,-8.6820923 L 12.326124,-5.6918353 L 9.9475186,-5.6345243 L 11.140459,-8.6820923 z"
       id="text2383"
       sodipodi:nodetypes="cccccccccsssccccccssscccccc" />
    <path
       style="fill:url(#linearGradient3804);stroke:none;stroke-width:1px;stroke-linecap:butt;stroke-linejoin:miter;stroke-opacity:1;fill-opacity:1"
       d="M 184.78261,56.724638 C 119.00569,41.050536 70.154003,69.529239 26.449275,111.43478 l 0,-101.086954 158.333335,0.724638 z"
       id="path3796"
       inkscape:connector-curvature="0"
       sodipodi:nodetypes="ccccc" />
  </g>
</svg>
