<?xml version="1.0" encoding="UTF-8" standalone="no"?>
<!-- Created with Inkscape (http://www.inkscape.org/) -->

<svg
   xmlns:dc="http://purl.org/dc/elements/1.1/"
   xmlns:cc="http://creativecommons.org/ns#"
   xmlns:rdf="http://www.w3.org/1999/02/22-rdf-syntax-ns#"
   xmlns:svg="http://www.w3.org/2000/svg"
   xmlns="http://www.w3.org/2000/svg"
   xmlns:xlink="http://www.w3.org/1999/xlink"
   xmlns:sodipodi="http://sodipodi.sourceforge.net/DTD/sodipodi-0.dtd"
   xmlns:inkscape="http://www.inkscape.org/namespaces/inkscape"
   width="255"
   height="255"
   viewBox="0 0 67.468748 67.468752"
   version="1.1"
   id="svg8"
   inkscape:version="0.92.5 (2060ec1f9f, 2020-04-08)"
   sodipodi:docname="orage-panel-clock.svg">
  <defs
     id="defs2">
    <linearGradient
       inkscape:collect="always"
       id="linearGradient1478">
      <stop
         id="stop1474"
         stop-color="#000000"
         stop-opacity="1" />
      <stop
         id="stop1482"
         offset="0.915"
         stop-color="#000000"
         stop-opacity="0.993" />
      <stop
         offset="1"
         id="stop1476"
         stop-color="#000000"
         stop-opacity="0" />
    </linearGradient>
    <linearGradient
       id="linearGradient3868">
      <stop
         id="stop3870"
         stop-color="#ffffff"
         stop-opacity="1" />
      <stop
         id="stop3872"
         offset="1"
         stop-color="#ffffff"
         stop-opacity="0" />
    </linearGradient>
    <linearGradient
       id="linearGradient4268">
      <stop
         id="stop4270"
         stop-color="#eeeaeb"
         stop-opacity="1" />
      <stop
         offset="0.895"
         id="stop4278"
         stop-color="#eeeaeb"
         stop-opacity="1" />
      <stop
         offset="0.958"
         id="stop4276"
         stop-color="#a3a1a2"
         stop-opacity="1" />
      <stop
         id="stop4272"
         offset="1"
         stop-color="#eeeaeb"
         stop-opacity="1" />
    </linearGradient>
    <radialGradient
       gradientUnits="userSpaceOnUse"
       r="665.85"
       fy="816.01"
       fx="571.79"
       cy="816.01"
       cx="571.79"
       id="radialGradient4274"
       xlink:href="#linearGradient4268"
       inkscape:collect="always"
       gradientTransform="matrix(0.04699043,0,0,0.04699043,5.5510106,224.09309)" />
    <linearGradient
       gradientTransform="matrix(0.67443804,0,0,0.67443804,-1.3058133,228.71836)"
       spreadMethod="reflect"
       gradientUnits="userSpaceOnUse"
       y2="6.52"
       x2="60.979"
       y1="20.875"
       x1="32.02"
       id="linearGradient3874"
       xlink:href="#linearGradient3868"
       inkscape:collect="always" />
    <radialGradient
       inkscape:collect="always"
       xlink:href="#linearGradient1478"
       id="radialGradient1480"
       cx="52.955"
       cy="49.94"
       fx="52.955"
       fy="49.94"
       r="43.06"
       gradientUnits="userSpaceOnUse"
       gradientTransform="matrix(0.7580354,0,0,0.7580354,-7.1623545,225.56049)" />
    <filter
       inkscape:collect="always"
       style="color-interpolation-filters:sRGB"
       id="filter949"
       x="-0.010471388"
       width="1.0209428"
       y="-0.01405119"
       height="1.0281024">
      <feGaussianBlur
         inkscape:collect="always"
         stdDeviation="0.11634973"
         id="feGaussianBlur951" />
    </filter>
    <filter
       inkscape:collect="always"
       style="color-interpolation-filters:sRGB"
       id="filter957"
       x="-0.01149367"
       width="1.0229873"
       y="-0.012552996"
       height="1.025106">
      <feGaussianBlur
         inkscape:collect="always"
         stdDeviation="0.15185437"
         id="feGaussianBlur959" />
    </filter>
    <filter
       inkscape:collect="always"
       style="color-interpolation-filters:sRGB"
       id="filter961"
       x="-0.031005048"
       width="1.0620101"
       y="-0.0074397093"
       height="1.0148794">
      <feGaussianBlur
         inkscape:collect="always"
         stdDeviation="0.15638016"
         id="feGaussianBlur963" />
    </filter>
  </defs>
  <sodipodi:namedview
     id="base"
     pagecolor="#ff0000"
     bordercolor="#666666"
     borderopacity="1.0"
     inkscape:pageopacity="0"
     inkscape:pageshadow="2"
     inkscape:zoom="3.5058824"
     inkscape:cx="127.5"
     inkscape:cy="127.5"
     inkscape:document-units="mm"
     inkscape:current-layer="layer1"
     showgrid="false"
     units="px"
     inkscape:snap-to-guides="false"
     inkscape:snap-grids="false"
     inkscape:snap-others="false"
     inkscape:object-nodes="false"
     inkscape:snap-nodes="false"
     inkscape:snap-global="false"
     inkscape:window-width="1920"
     inkscape:window-height="1056"
     inkscape:window-x="0"
     inkscape:window-y="0"
     inkscape:window-maximized="1" />
  <metadata
     id="metadata5">
    <rdf:RDF>
      <cc:Work>
        <dc:format>image/svg+xml</dc:format>
        <dc:type
           rdf:resource="http://purl.org/dc/dcmitype/StillImage" />
        <dc:title />
      </cc:Work>
    </rdf:RDF>
  </metadata>
  <g
     inkscape:label="Layer 1"
     inkscape:groupmode="layer"
     id="layer1"
     transform="translate(0,-229.53123)">
    <circle
       r="32.644"
       cy="263.42"
       cx="32.98"
       id="path4448"
       fill="url(#radialGradient1480)"
       stroke="none"
       fill-opacity="1"
       stroke-width="0.758" />
    <circle
       r="31.29"
       cy="262.44"
       cx="32.419"
       id="path3473"
       fill="url(#radialGradient4274)"
       stroke="none"
       fill-opacity="1"
       stroke-width="0.047" />
    <circle
       r="28.03"
       cy="262.44"
       cx="32.419"
       id="path4266"
       stroke-dasharray="none"
       stroke-opacity="1"
       fill="#e6dedc"
       stroke="#b4b4b4"
       fill-opacity="1"
       stroke-width="0.337"
       stroke-miterlimit="4" />
    <circle
       r="27.13"
       cy="262.37"
       cx="32.498"
       id="path3836"
       stroke-dasharray="none"
       stroke-opacity="1"
       fill="none"
       stroke="#000000"
       stroke-linecap="round"
       stroke-width="0.057"
       stroke-miterlimit="4" />
    <circle
       r="24.716"
       cy="262.37"
       cx="32.498"
       id="path3838"
       stroke-dasharray="none"
       stroke-opacity="1"
       fill="none"
       stroke="#000000"
       stroke-linecap="round"
       stroke-width="0.054"
       stroke-miterlimit="4" />
    <g
       id="g4356"
       transform="matrix(0.67443804,0,0,0.67443804,-1.3058133,228.71836)"
       stroke-dasharray="none"
       stroke-width="2"
       stroke-miterlimit="4">
      <path
         inkscape:connector-curvature="0"
         id="path3859"
         d="m 50.042038,9.77805 v 3.629291"
         sodipodi:nodetypes="cc"
         stroke-dasharray="none"
         stroke-opacity="1"
         fill="none"
         stroke="#000000"
         stroke-linejoin="miter"
         stroke-linecap="butt"
         stroke-width="2"
         stroke-miterlimit="4" />
      <path
         inkscape:connector-curvature="0"
         id="path3869"
         d="m 70.145888,15.271656 -1.814502,3.137073"
         sodipodi:nodetypes="cc"
         stroke-dasharray="none"
         stroke-opacity="1"
         fill="none"
         stroke="#000000"
         stroke-linejoin="miter"
         stroke-linecap="butt"
         stroke-width="2"
         stroke-miterlimit="4" />
      <path
         inkscape:connector-curvature="0"
         id="path3879"
         d="m 84.868735,30.021216 -3.09813,1.779905"
         sodipodi:nodetypes="cc"
         stroke-dasharray="none"
         stroke-opacity="1"
         fill="none"
         stroke="#000000"
         stroke-linejoin="miter"
         stroke-linecap="butt"
         stroke-width="2"
         stroke-miterlimit="4" />
      <path
         inkscape:connector-curvature="0"
         id="path3889"
         d="M 90.182681,50.022659 H 86.662724"
         sodipodi:nodetypes="cc"
         stroke-dasharray="none"
         stroke-opacity="1"
         fill="none"
         stroke="#000000"
         stroke-linejoin="miter"
         stroke-linecap="butt"
         stroke-width="2"
         stroke-miterlimit="4" />
      <path
         inkscape:connector-curvature="0"
         id="path3899"
         d="M 84.689363,70.357145 81.643304,68.569009"
         sodipodi:nodetypes="cc"
         stroke-dasharray="none"
         stroke-opacity="1"
         fill="none"
         stroke="#000000"
         stroke-linejoin="miter"
         stroke-linecap="butt"
         stroke-width="2"
         stroke-miterlimit="4" />
      <path
         inkscape:connector-curvature="0"
         id="path3909"
         d="M 70.149896,84.834946 68.372078,81.757354"
         sodipodi:nodetypes="cc"
         stroke-dasharray="none"
         stroke-opacity="1"
         fill="none"
         stroke="#000000"
         stroke-linejoin="miter"
         stroke-linecap="butt"
         stroke-width="2"
         stroke-miterlimit="4" />
      <path
         inkscape:connector-curvature="0"
         id="path3919"
         d="m 50.042038,86.673295 v 3.578968"
         sodipodi:nodetypes="cc"
         stroke-dasharray="none"
         stroke-opacity="1"
         fill="none"
         stroke="#000000"
         stroke-linejoin="miter"
         stroke-linecap="butt"
         stroke-width="2"
         stroke-miterlimit="4" />
      <path
         inkscape:connector-curvature="0"
         id="path3929"
         d="m 31.66136,81.807146 -1.77761,3.073295"
         sodipodi:nodetypes="cc"
         stroke-dasharray="none"
         stroke-opacity="1"
         fill="none"
         stroke="#000000"
         stroke-linejoin="miter"
         stroke-linecap="butt"
         stroke-width="2"
         stroke-miterlimit="4" />
      <path
         inkscape:connector-curvature="0"
         id="path3939"
         d="m 18.233581,68.303788 -3.107999,1.785524"
         sodipodi:nodetypes="cc"
         stroke-dasharray="none"
         stroke-opacity="1"
         fill="none"
         stroke="#000000"
         stroke-linejoin="miter"
         stroke-linecap="butt"
         stroke-width="2"
         stroke-miterlimit="4" />
      <path
         inkscape:connector-curvature="0"
         id="path3949"
         d="M 13.371283,50.022659 H 9.7923258"
         sodipodi:nodetypes="cc"
         stroke-dasharray="none"
         stroke-opacity="1"
         fill="none"
         stroke="#000000"
         stroke-linejoin="miter"
         stroke-linecap="butt"
         stroke-width="2"
         stroke-miterlimit="4" />
      <path
         inkscape:connector-curvature="0"
         id="path3959"
         d="M 18.382282,31.433771 15.281331,29.61346"
         sodipodi:nodetypes="cc"
         stroke-dasharray="none"
         stroke-opacity="1"
         fill="none"
         stroke="#000000"
         stroke-linejoin="miter"
         stroke-linecap="butt"
         stroke-width="2"
         stroke-miterlimit="4" />
      <path
         sodipodi:nodetypes="cc"
         inkscape:connector-curvature="0"
         id="path3969"
         d="m 31.694766,18.264624 -1.767799,-3.06027"
         stroke-dasharray="none"
         stroke-opacity="1"
         fill="none"
         stroke="#000000"
         stroke-linejoin="miter"
         stroke-linecap="butt"
         stroke-width="2"
         stroke-miterlimit="4" />
    </g>
    <g
       id="g3101"
       transform="matrix(0.56821847,0,0,0.56821847,4.1216325,-307.1955)">
      <path
         transform="translate(0,952.36218)"
         inkscape:connector-curvature="0"
         id="path3861"
         d="M 54.861666,2.5094771 54.65359,4.5436537"
         stroke-dasharray="none"
         stroke-opacity="1"
         fill="none"
         stroke="#000000"
         stroke-linejoin="miter"
         stroke-linecap="butt"
         stroke-width="0.5"
         stroke-miterlimit="4" />
      <path
         transform="translate(0,952.36218)"
         inkscape:connector-curvature="0"
         id="path3863"
         d="M 59.568264,3.2660362 59.154838,5.2857951"
         stroke-dasharray="none"
         stroke-opacity="1"
         fill="none"
         stroke="#000000"
         stroke-linejoin="miter"
         stroke-linecap="butt"
         stroke-width="0.5"
         stroke-miterlimit="4" />
      <path
         transform="translate(0,952.36218)"
         inkscape:connector-curvature="0"
         id="path3865"
         d="m 64.449315,4.5611399 -0.648238,2.04016"
         stroke-dasharray="none"
         stroke-opacity="1"
         fill="none"
         stroke="#000000"
         stroke-linejoin="miter"
         stroke-linecap="butt"
         stroke-width="0.5"
         stroke-miterlimit="4" />
      <path
         transform="translate(0,952.36218)"
         inkscape:connector-curvature="0"
         id="path3867"
         d="M 69.093877,6.2940901 68.287866,8.139222"
         stroke-dasharray="none"
         stroke-opacity="1"
         fill="none"
         stroke="#000000"
         stroke-linejoin="miter"
         stroke-linecap="butt"
         stroke-width="0.5"
         stroke-miterlimit="4" />
      <path
         transform="translate(0,952.36218)"
         inkscape:connector-curvature="0"
         id="path3871"
         d="m 77.994501,11.331629 -1.233733,1.704093"
         stroke-dasharray="none"
         stroke-opacity="1"
         fill="none"
         stroke="#000000"
         stroke-linejoin="miter"
         stroke-linecap="butt"
         stroke-width="0.5"
         stroke-miterlimit="4" />
      <path
         transform="translate(0,952.36218)"
         inkscape:connector-curvature="0"
         id="path3873"
         d="m 82.067306,14.691991 -1.364167,1.502258"
         stroke-dasharray="none"
         stroke-opacity="1"
         fill="none"
         stroke="#000000"
         stroke-linejoin="miter"
         stroke-linecap="butt"
         stroke-width="0.5"
         stroke-miterlimit="4" />
      <path
         transform="translate(0,952.36218)"
         inkscape:connector-curvature="0"
         id="path3875"
         d="M 85.618941,18.318412 84.1215,19.650438"
         stroke-dasharray="none"
         stroke-opacity="1"
         fill="none"
         stroke="#000000"
         stroke-linejoin="miter"
         stroke-linecap="butt"
         stroke-width="0.5"
         stroke-miterlimit="4" />
      <path
         transform="translate(0,952.36218)"
         inkscape:connector-curvature="0"
         id="path3877"
         d="M 88.783986,22.239062 87.12954,23.423425"
         stroke-dasharray="none"
         stroke-opacity="1"
         fill="none"
         stroke="#000000"
         stroke-linejoin="miter"
         stroke-linecap="butt"
         stroke-width="0.5"
         stroke-miterlimit="4" />
      <path
         transform="translate(0,952.36218)"
         inkscape:connector-curvature="0"
         id="path3881"
         d="M 93.683301,30.760612 91.773844,31.60166"
         stroke-dasharray="none"
         stroke-opacity="1"
         fill="none"
         stroke="#000000"
         stroke-linejoin="miter"
         stroke-linecap="butt"
         stroke-width="0.5"
         stroke-miterlimit="4" />
      <path
         transform="translate(0,952.36218)"
         inkscape:connector-curvature="0"
         id="path3883"
         d="m 95.365355,35.367638 -1.88733,0.608706"
         stroke-dasharray="none"
         stroke-opacity="1"
         fill="none"
         stroke="#000000"
         stroke-linejoin="miter"
         stroke-linecap="butt"
         stroke-width="0.5"
         stroke-miterlimit="4" />
      <path
         transform="translate(0,952.36218)"
         inkscape:connector-curvature="0"
         id="path3885"
         d="m 96.588302,39.904497 -2.018273,0.437171"
         stroke-dasharray="none"
         stroke-opacity="1"
         fill="none"
         stroke="#000000"
         stroke-linejoin="miter"
         stroke-linecap="butt"
         stroke-width="0.5"
         stroke-miterlimit="4" />
      <path
         transform="translate(0,952.36218)"
         inkscape:connector-curvature="0"
         id="path3887"
         d="m 97.434618,45.176153 -1.998884,0.20308"
         stroke-dasharray="none"
         stroke-opacity="1"
         fill="none"
         stroke="#000000"
         stroke-linejoin="miter"
         stroke-linecap="butt"
         stroke-width="0.5"
         stroke-miterlimit="4" />
      <path
         transform="translate(0,952.36218)"
         inkscape:connector-curvature="0"
         id="path3891"
         d="M 97.429519,54.676998 95.418348,54.478527"
         stroke-dasharray="none"
         stroke-opacity="1"
         fill="none"
         stroke="#000000"
         stroke-linejoin="miter"
         stroke-linecap="butt"
         stroke-width="0.5"
         stroke-miterlimit="4" />
      <path
         transform="translate(0,952.36218)"
         inkscape:connector-curvature="0"
         id="path3893"
         d="M 96.594162,60.070613 94.589072,59.63708"
         stroke-dasharray="none"
         stroke-opacity="1"
         fill="none"
         stroke="#000000"
         stroke-linejoin="miter"
         stroke-linecap="butt"
         stroke-width="0.5"
         stroke-miterlimit="4" />
      <path
         transform="translate(0,952.36218)"
         inkscape:connector-curvature="0"
         id="path3895"
         d="M 95.222649,64.923863 93.351231,64.306268"
         stroke-dasharray="none"
         stroke-opacity="1"
         fill="none"
         stroke="#000000"
         stroke-linejoin="miter"
         stroke-linecap="butt"
         stroke-width="0.5"
         stroke-miterlimit="4" />
      <path
         transform="translate(0,952.36218)"
         inkscape:connector-curvature="0"
         id="path3897"
         d="M 93.513518,69.519135 91.611632,68.665856"
         stroke-dasharray="none"
         stroke-opacity="1"
         fill="none"
         stroke="#000000"
         stroke-linejoin="miter"
         stroke-linecap="butt"
         stroke-width="0.5"
         stroke-miterlimit="4" />
      <path
         transform="translate(0,952.36218)"
         inkscape:connector-curvature="0"
         id="path3901"
         d="M 88.471563,78.093075 86.889638,76.937784"
         stroke-dasharray="none"
         stroke-opacity="1"
         fill="none"
         stroke="#000000"
         stroke-linejoin="miter"
         stroke-linecap="butt"
         stroke-width="0.5"
         stroke-miterlimit="4" />
      <path
         transform="translate(0,952.36218)"
         inkscape:connector-curvature="0"
         id="path3903"
         d="M 85.38564,81.87877 83.939832,80.575876"
         stroke-dasharray="none"
         stroke-opacity="1"
         fill="none"
         stroke="#000000"
         stroke-linejoin="miter"
         stroke-linecap="butt"
         stroke-width="0.5"
         stroke-miterlimit="4" />
      <path
         transform="translate(0,952.36218)"
         inkscape:connector-curvature="0"
         id="path3905"
         d="M 82.200485,85.243368 80.784199,83.692553"
         stroke-dasharray="none"
         stroke-opacity="1"
         fill="none"
         stroke="#000000"
         stroke-linejoin="miter"
         stroke-linecap="butt"
         stroke-width="0.5"
         stroke-miterlimit="4" />
      <path
         sodipodi:nodetypes="cc"
         transform="translate(0,952.36218)"
         inkscape:connector-curvature="0"
         id="path3907"
         d="m 78.293724,88.398738 -1.23154,-1.672534"
         stroke-dasharray="none"
         stroke-opacity="1"
         fill="none"
         stroke="#000000"
         stroke-linejoin="miter"
         stroke-linecap="butt"
         stroke-width="0.5"
         stroke-miterlimit="4" />
      <path
         transform="translate(0,952.36218)"
         inkscape:connector-curvature="0"
         id="path3911"
         d="M 69.125649,93.714096 68.32088,91.874624"
         stroke-dasharray="none"
         stroke-opacity="1"
         fill="none"
         stroke="#000000"
         stroke-linejoin="miter"
         stroke-linecap="butt"
         stroke-width="0.5"
         stroke-miterlimit="4" />
      <path
         transform="translate(0,952.36218)"
         inkscape:connector-curvature="0"
         id="path3913"
         d="m 64.278929,93.414657 0.635351,1.932062"
         stroke-dasharray="none"
         stroke-opacity="1"
         fill="none"
         stroke="#000000"
         stroke-linejoin="miter"
         stroke-linecap="butt"
         stroke-width="0.5"
         stroke-miterlimit="4" />
      <path
         transform="translate(0,952.36218)"
         inkscape:connector-curvature="0"
         id="path3915"
         d="m 59.199012,94.723173 0.415454,2.019853"
         stroke-dasharray="none"
         stroke-opacity="1"
         fill="none"
         stroke="#000000"
         stroke-linejoin="miter"
         stroke-linecap="butt"
         stroke-width="0.5"
         stroke-miterlimit="4" />
      <path
         transform="translate(0,952.36218)"
         inkscape:connector-curvature="0"
         id="path3917"
         d="m 54.718547,95.380375 0.21336,2.053589"
         stroke-dasharray="none"
         stroke-opacity="1"
         fill="none"
         stroke="#000000"
         stroke-linejoin="miter"
         stroke-linecap="butt"
         stroke-width="0.5"
         stroke-miterlimit="4" />
      <path
         transform="translate(0,952.36218)"
         inkscape:connector-curvature="0"
         id="path3921"
         d="M 45.354007,95.457484 45.14009,97.548762"
         stroke-dasharray="none"
         stroke-opacity="1"
         fill="none"
         stroke="#000000"
         stroke-linejoin="miter"
         stroke-linecap="butt"
         stroke-width="0.5"
         stroke-miterlimit="4" />
      <path
         transform="translate(0,952.36218)"
         inkscape:connector-curvature="0"
         id="path3923"
         d="m 40.834919,94.786224 -0.410315,2.00456"
         stroke-dasharray="none"
         stroke-opacity="1"
         fill="none"
         stroke="#000000"
         stroke-linejoin="miter"
         stroke-linecap="butt"
         stroke-width="0.5"
         stroke-miterlimit="4" />
      <path
         transform="translate(0,952.36218)"
         inkscape:connector-curvature="0"
         id="path3925"
         d="m 36.157829,93.601213 -0.625252,1.967816"
         stroke-dasharray="none"
         stroke-opacity="1"
         fill="none"
         stroke="#000000"
         stroke-linejoin="miter"
         stroke-linecap="butt"
         stroke-width="0.5"
         stroke-miterlimit="4" />
      <path
         transform="translate(0,952.36218)"
         inkscape:connector-curvature="0"
         id="path3927"
         d="m 31.703495,91.888739 -0.835228,1.912017"
         stroke-dasharray="none"
         stroke-opacity="1"
         fill="none"
         stroke="#000000"
         stroke-linejoin="miter"
         stroke-linecap="butt"
         stroke-width="0.5"
         stroke-miterlimit="4" />
      <path
         transform="translate(0,952.36218)"
         inkscape:connector-curvature="0"
         id="path3931"
         d="m 23.189231,87.031387 -1.216442,1.680211"
         stroke-dasharray="none"
         stroke-opacity="1"
         fill="none"
         stroke="#000000"
         stroke-linejoin="miter"
         stroke-linecap="butt"
         stroke-width="0.5"
         stroke-miterlimit="4" />
      <path
         transform="translate(0,952.36218)"
         inkscape:connector-curvature="0"
         id="path3933"
         d="M 19.275765,83.839719 17.895422,85.35979"
         stroke-dasharray="none"
         stroke-opacity="1"
         fill="none"
         stroke="#000000"
         stroke-linejoin="miter"
         stroke-linecap="butt"
         stroke-width="0.5"
         stroke-miterlimit="4" />
      <path
         transform="translate(0,952.36218)"
         inkscape:connector-curvature="0"
         id="path3935"
         d="m 15.826994,80.400784 -1.517218,1.349618"
         stroke-dasharray="none"
         stroke-opacity="1"
         fill="none"
         stroke="#000000"
         stroke-linejoin="miter"
         stroke-linecap="butt"
         stroke-width="0.5"
         stroke-miterlimit="4" />
      <path
         transform="translate(0,952.36218)"
         inkscape:connector-curvature="0"
         id="path3937"
         d="m 12.801351,76.632535 -1.665668,1.192397"
         stroke-dasharray="none"
         stroke-opacity="1"
         fill="none"
         stroke="#000000"
         stroke-linejoin="miter"
         stroke-linecap="butt"
         stroke-width="0.5"
         stroke-miterlimit="4" />
      <path
         transform="translate(0,952.36218)"
         inkscape:connector-curvature="0"
         id="path3941"
         d="M 8.1452737,68.43709 6.2691699,69.263448"
         stroke-dasharray="none"
         stroke-opacity="1"
         fill="none"
         stroke="#000000"
         stroke-linejoin="miter"
         stroke-linecap="butt"
         stroke-width="0.5"
         stroke-miterlimit="4" />
      <path
         transform="translate(0,952.36218)"
         inkscape:connector-curvature="0"
         id="path3943"
         d="m 6.4768894,64.03617 -1.983326,0.639667"
         stroke-dasharray="none"
         stroke-opacity="1"
         fill="none"
         stroke="#000000"
         stroke-linejoin="miter"
         stroke-linecap="butt"
         stroke-width="0.5"
         stroke-miterlimit="4" />
      <path
         transform="translate(0,952.36218)"
         inkscape:connector-curvature="0"
         id="path3945"
         d="M 5.2694404,59.684756 3.297446,60.111902"
         stroke-dasharray="none"
         stroke-opacity="1"
         fill="none"
         stroke="#000000"
         stroke-linejoin="miter"
         stroke-linecap="butt"
         stroke-width="0.5"
         stroke-miterlimit="4" />
      <path
         transform="translate(0,952.36218)"
         inkscape:connector-curvature="0"
         id="path3947"
         d="M 4.4958267,54.618411 2.4518325,54.826073"
         stroke-dasharray="none"
         stroke-opacity="1"
         fill="none"
         stroke="#000000"
         stroke-linejoin="miter"
         stroke-linecap="butt"
         stroke-width="0.5"
         stroke-miterlimit="4" />
      <path
         transform="translate(0,952.36218)"
         inkscape:connector-curvature="0"
         id="path3951"
         d="M 4.4798589,45.504334 2.4036898,45.299449"
         stroke-dasharray="none"
         stroke-opacity="1"
         fill="none"
         stroke="#000000"
         stroke-linejoin="miter"
         stroke-linecap="butt"
         stroke-width="0.5"
         stroke-miterlimit="4" />
      <path
         transform="translate(0,952.36218)"
         inkscape:connector-curvature="0"
         id="path3953"
         d="M 5.2802823,40.327071 3.2875308,39.896206"
         stroke-dasharray="none"
         stroke-opacity="1"
         fill="none"
         stroke="#000000"
         stroke-linejoin="miter"
         stroke-linecap="butt"
         stroke-width="0.5"
         stroke-miterlimit="4" />
      <path
         transform="translate(0,952.36218)"
         inkscape:connector-curvature="0"
         id="path3955"
         d="M 6.5161653,35.649462 4.5431136,34.998326"
         stroke-dasharray="none"
         stroke-opacity="1"
         fill="none"
         stroke="#000000"
         stroke-linejoin="miter"
         stroke-linecap="butt"
         stroke-width="0.5"
         stroke-miterlimit="4" />
      <path
         transform="translate(0,952.36218)"
         inkscape:connector-curvature="0"
         id="path3957"
         d="M 8.2513813,31.266393 6.390083,30.431324"
         stroke-dasharray="none"
         stroke-opacity="1"
         fill="none"
         stroke="#000000"
         stroke-linejoin="miter"
         stroke-linecap="butt"
         stroke-width="0.5"
         stroke-miterlimit="4" />
      <path
         transform="translate(0,952.36218)"
         inkscape:connector-curvature="0"
         id="path3961"
         d="M 13.084366,23.037273 11.424525,21.825079"
         stroke-dasharray="none"
         stroke-opacity="1"
         fill="none"
         stroke="#000000"
         stroke-linejoin="miter"
         stroke-linecap="butt"
         stroke-width="0.5"
         stroke-miterlimit="4" />
      <path
         transform="translate(0,952.36218)"
         inkscape:connector-curvature="0"
         id="path3963"
         d="M 16.027331,19.376308 14.468254,17.97134"
         stroke-dasharray="none"
         stroke-opacity="1"
         fill="none"
         stroke="#000000"
         stroke-linejoin="miter"
         stroke-linecap="butt"
         stroke-width="0.5"
         stroke-miterlimit="4" />
      <path
         transform="translate(0,952.36218)"
         inkscape:connector-curvature="0"
         id="path3965"
         d="m 19.165603,16.221005 -1.35032,-1.478584"
         stroke-dasharray="none"
         stroke-opacity="1"
         fill="none"
         stroke="#000000"
         stroke-linejoin="miter"
         stroke-linecap="butt"
         stroke-width="0.5"
         stroke-miterlimit="4" />
      <path
         sodipodi:nodetypes="cc"
         inkscape:connector-curvature="0"
         id="path3967"
         d="m 22.910368,965.54566 -1.230683,-1.67137"
         stroke-dasharray="none"
         stroke-opacity="1"
         fill="none"
         stroke="#000000"
         stroke-linejoin="miter"
         stroke-linecap="butt"
         stroke-width="0.5"
         stroke-miterlimit="4" />
      <path
         transform="translate(0,952.36218)"
         inkscape:connector-curvature="0"
         id="path3971"
         d="M 31.677599,8.1185534 30.827588,6.1756691"
         stroke-dasharray="none"
         stroke-opacity="1"
         fill="none"
         stroke="#000000"
         stroke-linejoin="miter"
         stroke-linecap="butt"
         stroke-width="0.5"
         stroke-miterlimit="4" />
      <path
         sodipodi:nodetypes="cc"
         transform="translate(0,952.36218)"
         inkscape:connector-curvature="0"
         id="path3973"
         d="M 35.982919,6.5401499 35.344542,4.5600309"
         stroke-dasharray="none"
         stroke-opacity="1"
         fill="none"
         stroke="#000000"
         stroke-linejoin="miter"
         stroke-linecap="butt"
         stroke-width="0.5"
         stroke-miterlimit="4" />
      <path
         transform="translate(0,952.36218)"
         inkscape:connector-curvature="0"
         id="path3975"
         d="M 40.78973,5.2211343 40.383862,3.2478906"
         stroke-dasharray="none"
         stroke-opacity="1"
         fill="none"
         stroke="#000000"
         stroke-linejoin="miter"
         stroke-linecap="butt"
         stroke-width="0.5"
         stroke-miterlimit="4" />
      <path
         transform="translate(0,952.36218)"
         inkscape:connector-curvature="0"
         id="path3977"
         d="M 45.289192,4.6228384 45.071952,2.5318973"
         stroke-dasharray="none"
         stroke-opacity="1"
         fill="none"
         stroke="#000000"
         stroke-linejoin="miter"
         stroke-linecap="butt"
         stroke-width="0.5"
         stroke-miterlimit="4" />
    </g>
    <g
       id="g4438"
       transform="matrix(0.67443804,0,0,0.67443804,-0.65496837,228.39294)">
      <path
         d="m 45.145792,17.077513 c -3e-6,-0.230461 -0.04395,-0.407219 -0.131836,-0.530273 -0.08594,-0.124993 -0.277347,-0.187493 -0.574219,-0.1875 h -1.189453 c -0.263673,7e-6 -0.411134,-0.04784 -0.442383,-0.143555 0.02734,-0.113273 0.151366,-0.169914 0.37207,-0.169922 0.511718,-0.03515 1.049803,-0.134757 1.614258,-0.298828 0.566403,-0.164054 0.971676,-0.343741 1.215821,-0.539062 0.220699,-0.177726 0.369136,-0.266593 0.445312,-0.266602 0.06445,9e-6 0.09667,0.07227 0.09668,0.216797 v 6.791016 c -5e-6,0.888673 0.439448,1.333008 1.318359,1.333008 0.119135,0.04492 0.209955,0.06348 0.272461,0.05566 0.394525,0.128906 0.593743,0.230468 0.597656,0.304687 -0.251959,-0.01172 -2.229496,-0.0088 -5.932617,0.0088 0.03711,-0.01367 0.128906,-0.08105 0.275391,-0.202148 0.0664,0 0.150389,-0.02344 0.251953,-0.07031 0.101561,-0.04883 0.189452,-0.06934 0.263672,-0.06152 0.20117,-0.02734 0.397459,-0.05078 0.588867,-0.07031 0.638669,-0.115234 0.958005,-0.531249 0.958008,-1.248047 v -4.921875"
         id="path4379"
         inkscape:connector-curvature="0"
         font-family="'Typography times'"
         fill="#000000"
         stroke="none"
         font-style="normal"
         word-spacing="0"
         line-height="125%"
         fill-opacity="1"
         font-weight="bold"
         font-stretch="normal"
         letter-spacing="0"
         font-variant="normal"
         font-size="12" />
      <path
         d="m 48.813368,16.635131 c 0.291014,0.103522 0.511717,0.258795 0.662109,0.46582 0.150389,0.207038 0.225584,0.435553 0.225586,0.685547 -2e-6,0.250005 -0.08106,0.458013 -0.243164,0.624023 -0.160158,0.164068 -0.390627,0.251958 -0.691406,0.263672 -0.04883,-0.01562 -0.128908,-0.02343 -0.240234,-0.02344 -0.277345,-0.04882 -0.499025,-0.19726 -0.665039,-0.445312 -0.166017,-0.248042 -0.256837,-0.551752 -0.272461,-0.911133 0.0098,-0.41015 0.129882,-0.801751 0.360351,-1.174805 0.230468,-0.374992 0.594725,-0.682609 1.092774,-0.922851 0.499997,-0.240226 1.127926,-0.360343 1.883789,-0.360352 0.498042,0.01368 0.961909,0.125009 1.391601,0.333985 0.431635,0.208992 0.781244,0.485359 1.048828,0.829101 0.267572,0.341804 0.421869,0.709968 0.462891,1.104492 -7e-6,0.640631 -0.172858,1.154302 -0.518555,1.541016 -0.343756,0.386723 -0.915044,0.724613 -1.713867,1.013672 -0.03516,0.01368 -0.354496,0.125004 -0.958008,0.333984 -0.603518,0.208988 -1.070315,0.4043 -1.40039,0.585938 -0.328127,0.17969 -0.603517,0.422854 -0.826172,0.729492 -0.220704,0.304689 -0.331056,0.682619 -0.331055,1.133789 0.234374,-0.527342 0.614256,-0.601561 1.139649,-0.222656 0.271482,1e-6 0.53613,0.04102 0.793945,0.123046 0.259762,0.08203 0.569332,0.201173 0.928711,0.357422 0.359371,0.156251 0.658198,0.275392 0.896484,0.357422 0.238277,0.08008 0.489253,0.128907 0.75293,0.146485 0.271478,-0.04492 0.495111,-0.139648 0.670898,-0.28418 0.175775,-0.14453 0.284174,-0.535155 0.325196,-1.171875 -7e-6,-0.236326 -0.06641,-0.447263 -0.199219,-0.632813 -0.130866,-0.185544 -0.312506,-0.278317 -0.544922,-0.27832 0.0098,-0.0078 -0.137701,-0.0029 -0.442383,0.01465 -0.07813,-0.05078 -0.219731,-0.136716 -0.424805,-0.257812 -0.205082,-0.121091 0.0205,-0.152341 0.676758,-0.09375 0.402338,3e-6 0.720697,0.153323 0.955078,0.459961 0.234369,0.304689 0.351556,0.666994 0.351563,1.086914 -7e-6,0.341798 -0.08008,0.650391 -0.240235,0.925781 -0.160162,0.273438 -0.381842,0.486328 -0.665039,0.638672 -0.281255,0.15039 -0.594731,0.225585 -0.940429,0.225586 -0.539067,-1e-6 -1.147465,-0.15625 -1.825196,-0.46875 -0.904299,-0.408203 -1.50879,-0.612304 -1.813476,-0.612305 -0.134767,1e-6 -0.251954,0.0459 -0.351563,0.137695 -0.09766,0.0918 -0.164063,0.202149 -0.199218,0.331055 0.0039,0.05859 0.06836,0.124024 0.193359,0.196289 0.124999,0.07227 0.200194,0.146484 0.225586,0.222656 -10e-7,0.144531 -0.06348,0.216797 -0.19043,0.216797 -0.160157,0 -0.277344,-0.06738 -0.351562,-0.202148 -0.07422,-0.134766 -0.121094,-0.301758 -0.140625,-0.500977 -0.01953,-0.201171 -0.03516,-0.367186 -0.04687,-0.498047 0.0059,-0.447264 0.106445,-0.845701 0.301758,-1.195312 0.195311,-0.35156 0.443358,-0.651365 0.74414,-0.899414 0.302733,-0.248044 0.60742,-0.456051 0.914063,-0.624024 0.306638,-0.167965 0.732418,-0.385738 1.277343,-0.65332 0.404293,-0.191402 0.715816,-0.480464 0.934571,-0.867188 0.218745,-0.386713 0.32812,-0.801751 0.328125,-1.245117 -5e-6,-0.535149 -0.156255,-0.98925 -0.46875,-1.362304 -0.310551,-0.374992 -0.738285,-0.568351 -1.283203,-0.580078 -0.400394,8e-6 -0.754886,0.08399 -1.063477,0.251953 -0.306642,0.167976 -0.543947,0.37989 -0.711914,0.635742 -0.16797,0.253913 -0.256837,0.505866 -0.266602,0.755859 0.02344,0.04297 0.04101,0.09669 0.05274,0.161133 0.01367,0.06446 0.03613,0.114264 0.06738,0.149414 0.0332,0.03516 0.09375,0.06348 0.18164,0.08496 0.17578,7e-6 0.26367,-0.103509 0.263672,-0.310547 -2e-6,-0.0996 -0.02442,-0.208001 -0.07324,-0.325195 m 3.339844,4.051758 h -0.0088 0.0088"
         id="path4381"
         inkscape:connector-curvature="0"
         font-family="'Typography times'"
         fill="#000000"
         stroke="none"
         font-style="normal"
         word-spacing="0"
         line-height="125%"
         fill-opacity="1"
         font-weight="bold"
         font-stretch="normal"
         letter-spacing="0"
         font-variant="normal"
         font-size="12" />
    </g>
    <path
       inkscape:connector-curvature="0"
       id="path4383"
       d="m 42.906905,242.35133 c -3e-6,-0.15543 -0.02964,-0.27464 -0.08892,-0.35763 -0.05796,-0.0843 -0.187052,-0.12645 -0.387276,-0.12646 h -0.802211 c -0.177832,1e-5 -0.277283,-0.0322 -0.29836,-0.0968 0.01844,-0.0764 0.102087,-0.11459 0.250939,-0.1146 0.345122,-0.0237 0.708025,-0.0909 1.088718,-0.20154 0.382002,-0.11064 0.655333,-0.23183 0.819994,-0.36357 0.148846,-0.11986 0.248959,-0.17979 0.300336,-0.1798 0.04347,1e-5 0.0652,0.0488 0.0652,0.14622 v 4.58011 c -3e-6,0.59936 0.296381,0.89904 0.889151,0.89904 0.08035,0.0303 0.141602,0.0428 0.183758,0.0376 0.266084,0.0869 0.400444,0.15544 0.403082,0.2055 -0.169931,-0.008 -1.503656,-0.006 -4.001182,0.006 0.02503,-0.009 0.08694,-0.0547 0.185735,-0.13634 0.04478,0 0.101428,-0.0158 0.169926,-0.0474 0.06849,-0.0329 0.127772,-0.0467 0.177829,-0.0415 0.135678,-0.0184 0.268062,-0.0343 0.397155,-0.0474 0.430742,-0.0777 0.646115,-0.35829 0.646118,-0.84173 v -3.31949"
       font-family="'Typography times'"
       fill="#000000"
       stroke="none"
       font-style="normal"
       word-spacing="0"
       line-height="125%"
       fill-opacity="1"
       font-weight="bold"
       stroke-width="0.265"
       font-stretch="normal"
       letter-spacing="0"
       font-variant="normal"
       font-size="12" />
    <path
       inkscape:connector-curvature="0"
       id="path4385"
       d="m 49.864454,250.18854 c 0.196271,0.0698 0.345123,0.17454 0.446554,0.31417 0.101425,0.13962 0.15214,0.29375 0.152143,0.46235 -3e-6,0.16862 -0.05467,0.30891 -0.163999,0.42087 -0.108019,0.11065 -0.263454,0.16992 -0.466313,0.17783 -0.03293,-0.0105 -0.08694,-0.0158 -0.162023,-0.0158 -0.187052,-0.0329 -0.33656,-0.13304 -0.448527,-0.30034 -0.111966,-0.16729 -0.17322,-0.37213 -0.183758,-0.6145 0.0066,-0.27663 0.0876,-0.54074 0.243036,-0.79233 0.155435,-0.25291 0.401105,-0.46038 0.737007,-0.62241 0.337217,-0.16202 0.760717,-0.24303 1.2705,-0.24304 0.335897,0.009 0.648748,0.0843 0.938549,0.22526 0.29111,0.14095 0.526899,0.32734 0.707369,0.55917 0.180459,0.23053 0.284525,0.47883 0.312189,0.74491 -2e-6,0.43207 -0.11658,0.77851 -0.349731,1.03932 -0.231841,0.26082 -0.617141,0.48871 -1.155899,0.68366 -0.02371,0.009 -0.239085,0.0843 -0.646115,0.22525 -0.407037,0.14095 -0.721862,0.27268 -0.944478,0.39518 -0.2213,0.12119 -0.407035,0.28519 -0.557201,0.492 -0.148852,0.20549 -0.223277,0.46038 -0.223277,0.76467 0.158073,-0.35566 0.414279,-0.40572 0.768622,-0.15017 0.1831,0 0.361588,0.0277 0.53547,0.083 0.175193,0.0553 0.383979,0.13568 0.626356,0.24106 0.242374,0.10538 0.443915,0.18574 0.604623,0.24106 0.160702,0.054 0.329972,0.0869 0.507804,0.0988 0.183097,-0.0303 0.333923,-0.0942 0.45248,-0.19166 0.118549,-0.0975 0.191659,-0.36093 0.219323,-0.79035 -2e-6,-0.15939 -0.04479,-0.30166 -0.13436,-0.4268 -0.08826,-0.12514 -0.210765,-0.18771 -0.367514,-0.18771 0.0066,-0.005 -0.09287,-0.002 -0.29836,0.01 -0.05269,-0.0343 -0.148196,-0.0922 -0.286507,-0.17388 -0.138314,-0.0817 0.01384,-0.10274 0.456433,-0.0632 0.271351,1e-5 0.486066,0.10341 0.644141,0.31021 0.158067,0.2055 0.237101,0.44985 0.237106,0.73306 -5e-6,0.23053 -0.05401,0.43865 -0.162023,0.62439 -0.108018,0.18441 -0.257529,0.328 -0.448527,0.43074 -0.18969,0.10143 -0.401111,0.15215 -0.634261,0.15215 -0.363567,0 -0.773893,-0.10539 -1.230982,-0.31615 -0.609894,-0.27531 -1.017585,-0.41296 -1.223076,-0.41296 -0.09089,0 -0.169929,0.0309 -0.237109,0.0929 -0.06587,0.0619 -0.110649,0.13634 -0.134361,0.22327 0.0026,0.0395 0.04611,0.0837 0.13041,0.13239 0.08431,0.0488 0.13502,0.0988 0.152144,0.15017 0,0.0975 -0.04282,0.14621 -0.128434,0.14621 -0.108016,0 -0.18705,-0.0455 -0.237107,-0.13633 -0.05006,-0.0909 -0.08167,-0.20352 -0.09484,-0.33788 -0.01318,-0.13568 -0.02371,-0.24765 -0.03161,-0.33591 0.004,-0.30165 0.07179,-0.57037 0.203518,-0.80616 0.131725,-0.2371 0.299019,-0.4393 0.501877,-0.6066 0.204174,-0.16729 0.409668,-0.30758 0.61648,-0.42087 0.206808,-0.11327 0.493971,-0.26015 0.861488,-0.44062 0.272669,-0.12909 0.482772,-0.32404 0.630309,-0.58487 0.147532,-0.26081 0.221298,-0.54073 0.2213,-0.83974 -2e-6,-0.36093 -0.105383,-0.66719 -0.316142,-0.9188 -0.209447,-0.25291 -0.497928,-0.38332 -0.865442,-0.39123 -0.270039,1e-5 -0.509122,0.0567 -0.717248,0.16993 -0.206812,0.11329 -0.366858,0.25622 -0.480142,0.42877 -0.113284,0.17125 -0.17322,0.34118 -0.179806,0.50978 0.01582,0.029 0.02766,0.0652 0.03556,0.10868 0.0092,0.0435 0.02437,0.0771 0.04544,0.10077 0.02238,0.0237 0.06323,0.0428 0.122504,0.0573 0.118552,0 0.177829,-0.0698 0.177829,-0.20945 0,-0.0672 -0.01648,-0.14028 -0.04939,-0.21933 m 2.252517,2.73266 h -0.0059 0.0059"
       font-family="'Typography times'"
       fill="#000000"
       stroke="none"
       font-style="normal"
       word-spacing="0"
       line-height="125%"
       fill-opacity="1"
       font-weight="bold"
       stroke-width="0.265"
       font-stretch="normal"
       letter-spacing="0"
       font-variant="normal"
       font-size="12" />
    <path
       inkscape:connector-curvature="0"
       id="path4387"
       d="m 54.797809,261.73355 c 0.374097,1e-5 0.688925,0.0771 0.944475,0.23118 0.256863,0.15281 0.44523,0.35106 0.565105,0.59475 0.121185,0.24369 0.18178,0.4999 0.181782,0.76861 -2e-6,0.32142 -0.07509,0.60661 -0.22525,0.85557 -0.150172,0.24765 -0.349078,0.45314 -0.59672,0.61648 -0.247648,0.16202 -0.519663,0.28519 -0.816044,0.36949 -0.296386,0.0843 -0.597379,0.13172 -0.902983,0.14227 -0.338537,0 -0.65995,-0.0678 -0.964235,-0.20352 -0.304289,-0.137 -0.549298,-0.31812 -0.735033,-0.54337 -0.184415,-0.22526 -0.27926,-0.46236 -0.284528,-0.71132 0.01976,-0.22921 0.100113,-0.40111 0.241059,-0.51571 0.142264,-0.11592 0.318776,-0.17388 0.52954,-0.17388 0.140946,0.0935 0.257522,0.18047 0.349732,0.26082 0.09221,0.0804 0.162681,0.18046 0.21142,0.30033 0.09221,0.18574 0.147532,0.33722 0.165976,0.45446 -0.07113,-0.2437 -0.227888,-0.38464 -0.470262,-0.42285 -0.08299,10e-6 -0.156755,0.0481 -0.221301,0.14425 -0.06323,0.0962 -0.100113,0.20747 -0.110648,0.33392 0.07113,0.27399 0.218662,0.48475 0.442597,0.63229 0.223936,0.14753 0.489363,0.22525 0.796285,0.23315 0.19232,-0.0224 0.324705,-0.0441 0.397155,-0.0652 0.350388,-0.10406 0.623721,-0.2865 0.819997,-0.54732 0.197586,-0.26082 0.296378,-0.59342 0.296384,-0.99782 -0.0092,-0.30297 -0.09024,-0.54798 -0.243036,-0.73504 -0.152805,-0.18705 -0.343807,-0.31877 -0.573008,-0.39517 -0.227888,-0.0777 -0.470924,-0.11658 -0.729104,-0.11658 -0.272677,0 -0.407694,0.0435 -0.405059,0.13041 -0.06191,0 -0.104725,-0.0296 -0.128434,-0.0889 0.01712,-0.0724 0.0764,-0.11591 0.177832,-0.1304 0.414935,-0.0751 0.70539,-0.19759 0.871368,-0.36752 0.165973,-0.16992 0.312846,-0.35829 0.440624,-0.5651 0.127772,-0.20813 0.191659,-0.42021 0.191661,-0.63624 -2e-6,-0.19232 -0.04281,-0.37015 -0.128431,-0.5335 -0.08431,-0.16333 -0.204838,-0.29572 -0.36159,-0.39715 -0.15544,-0.10274 -0.334587,-0.16202 -0.537443,-0.17783 -0.18837,0 -0.372129,0.0428 -0.551273,0.12843 -0.179149,0.0843 -0.325366,0.19035 -0.43865,0.31812 -0.111966,0.12646 -0.170585,0.24436 -0.175852,0.35368 -0.126458,0.3504 -0.115263,0.54865 0.03359,0.59475 0.118552,0.0764 0.250277,0.13239 0.395179,0.16795 -3e-6,0.14095 -0.02832,0.25292 -0.08496,0.3359 -0.05665,0.083 -0.176517,0.12449 -0.359614,0.12448 -0.191003,-0.0171 -0.339196,-0.0876 -0.444577,-0.21142 -0.105381,-0.12514 -0.162023,-0.28189 -0.169926,-0.47026 0.004,-0.18046 0.05006,-0.36356 0.138314,-0.54929 0.08957,-0.18705 0.221956,-0.36028 0.397153,-0.51967 0.176511,-0.15938 0.392544,-0.2865 0.648094,-0.38134 0.256863,-0.0948 0.54732,-0.14226 0.871368,-0.14227 0.326679,10e-6 0.623721,0.0514 0.891127,0.15412 0.267402,0.10144 0.48014,0.23975 0.638215,0.41494 0.159382,0.1752 0.248957,0.36818 0.268721,0.57894 -5e-6,0.28584 -0.09946,0.54864 -0.29836,0.78837 -0.198911,0.23975 -0.515053,0.4301 -0.948428,0.57104"
       font-family="'Typography times'"
       fill="#000000"
       stroke="none"
       font-style="normal"
       word-spacing="0"
       line-height="125%"
       fill-opacity="1"
       font-weight="bold"
       stroke-width="0.265"
       font-stretch="normal"
       letter-spacing="0"
       font-variant="normal"
       font-size="12" />
    <path
       inkscape:connector-curvature="0"
       id="path4389"
       d="m 50.63163,273.85355 c -0.65468,-0.15016 -1.2514,-0.22525 -1.790158,-0.22525 -0.187052,-0.005 -0.401764,0.002 -0.644141,0.0217 -0.04215,0 -0.07508,0.003 -0.0988,0.01 0,-0.0303 0.03754,-0.0922 0.112625,-0.18574 0.158073,-0.20681 0.322072,-0.41098 0.491998,-0.61252 0.169926,-0.20154 0.326023,-0.44985 0.468289,-0.74492 0.142261,-0.29506 0.290454,-0.66126 0.444574,-1.09859 0.154117,-0.43733 0.268063,-0.82922 0.341831,-1.17566 -2e-6,-0.0922 0.02832,-0.48342 0.08496,-1.17368 0.06718,0.25028 0.148188,0.52889 0.243033,0.83581 0,0.32404 -0.03359,0.65007 -0.100769,0.97806 -0.06718,0.32668 -0.17454,0.64151 -0.322072,0.94447 -0.146217,0.30298 -0.318778,0.5987 -0.517684,0.88718 -0.197588,0.28717 -0.40835,0.55787 -0.632285,0.81209 0.173879,-0.0329 0.36554,-0.0494 0.574985,-0.0494 0.41757,1e-5 0.865438,0.0567 1.343607,0.16993 v -1.41671 c -0.01712,-0.0738 -0.02569,-0.25818 -0.02569,-0.55325 -3e-6,-0.29506 -3e-6,-0.46828 0,-0.51966 0.01185,-0.0356 0.05532,-0.0678 0.130407,-0.0968 0.152803,-0.13568 0.289796,-0.30691 0.410988,-0.51373 0.122502,-0.2068 0.255545,-0.5539 0.39913,-1.0413 -3e-6,1.2435 0.01053,2.66219 0.03161,4.25608 0.167291,0 0.288478,0.005 0.363564,0.0158 0.358294,-0.0119 0.641504,-0.0553 0.849636,-0.13041 0.154114,-0.0158 0.24303,-0.029 0.266745,-0.0395 -6e-6,0.13305 -0.05072,0.27597 -0.152144,0.42877 -0.100116,0.15149 -0.210767,0.23777 -0.331949,0.25884 -0.155442,0.025 -0.336566,0.0467 -0.543372,0.0652 -0.241062,-0.0224 -0.391887,-0.0336 -0.45248,-0.0336 v 0.39715 c -2e-6,0.32141 0.07508,0.55325 0.225253,0.69552 0.151482,0.14094 0.379368,0.21142 0.68366,0.21142 0.146211,0.0843 0.221295,0.14423 0.22525,0.1798 -1.545151,-0.003 -2.655602,-5.2e-4 -3.331355,0.006 0.04479,-0.0593 0.150825,-0.12119 0.318119,-0.18573 0.267404,0 0.48936,-0.0494 0.665877,-0.14819 0.177826,-0.0988 0.266742,-0.30297 0.266745,-0.61253 v -0.61648"
       font-family="'Typography times'"
       fill="#000000"
       stroke="none"
       font-style="normal"
       word-spacing="0"
       line-height="125%"
       fill-opacity="1"
       font-weight="bold"
       stroke-width="0.265"
       font-stretch="normal"
       letter-spacing="0"
       font-variant="normal"
       font-size="12" />
    <path
       inkscape:connector-curvature="0"
       id="path4391"
       d="m 41.572781,279.96812 c 0.409667,-0.16729 0.877953,-0.21141 1.404858,-0.13238 0.271354,0 0.53349,0.0283 0.786408,0.085 0.252909,0.0553 0.486722,0.14095 0.701439,0.25687 0.21603,0.11461 0.397153,0.24303 0.543372,0.3853 0.147529,0.14095 0.250934,0.33063 0.310216,0.56906 0.04347,0.20944 0.0652,0.37937 0.0652,0.50978 -5e-6,0.36356 -0.09287,0.70802 -0.278601,1.03338 -0.184422,0.32405 -0.466315,0.58816 -0.845682,0.79234 -0.379376,0.20286 -0.838441,0.30692 -1.377199,0.31219 -0.38464,0 -0.73569,-0.0685 -1.05315,-0.20549 -0.31746,-0.13832 -0.566423,-0.31878 -0.746887,-0.5414 -0.179147,-0.22393 -0.272015,-0.45511 -0.278601,-0.69353 0.01185,-0.22526 0.08299,-0.41362 0.213397,-0.56511 0.130408,-0.1528 0.304287,-0.22921 0.521634,-0.22921 0.130411,0.0856 0.253574,0.19364 0.369493,0.32405 0.117235,0.13041 0.214054,0.26543 0.290457,0.40506 0.208124,0.24765 0.341826,0.41626 0.401106,0.50583 l -0.349734,-0.17585 c -0.0303,-0.0488 -0.145558,-0.15346 -0.345782,-0.31418 -0.0764,1e-5 -0.148851,0.0474 -0.217347,0.14227 -0.0685,0.0935 -0.106698,0.20023 -0.114601,0.32009 0.09352,0.27136 0.256865,0.47554 0.490021,0.61253 0.233154,0.13568 0.506484,0.20352 0.819994,0.20352 0.272672,-0.007 0.52822,-0.0764 0.766646,-0.20944 0.238422,-0.13436 0.429427,-0.31878 0.573011,-0.55326 0.143579,-0.23447 0.215368,-0.49528 0.215371,-0.78245 -3e-6,-0.10802 -0.0053,-0.19166 -0.01582,-0.25094 -0.04611,-0.36488 -0.231183,-0.64085 -0.555226,-0.8279 -0.324048,-0.18704 -0.702762,-0.28057 -1.136139,-0.28057 -0.425477,0 -0.800894,0.0837 -1.126257,0.25093 -0.111969,0.0698 -0.200882,0.11264 -0.266745,0.12844 -0.02898,1e-5 -0.05072,-0.0428 -0.06521,-0.12844 0.01053,-0.0329 0.0158,-0.0764 0.0158,-0.1304 0.0764,-0.71923 0.114602,-1.34492 0.114602,-1.8771 -0.0013,-0.50187 -0.02832,-0.87664 -0.08101,-1.12428 0.02766,0.0264 0.111308,0.0474 0.250939,0.0632 h 2.734636 c 0.242371,1e-5 0.453792,-0.009 0.634261,-0.0257 l -0.237109,0.62438 c -0.03162,0.0962 -0.05467,0.15742 -0.06916,0.18376 -0.01318,0.0264 -0.04742,0.0488 -0.102746,0.0672 -0.05401,0.0172 -0.139634,0.0257 -0.256866,0.0257 h -2.637816 c 0,0.52296 -0.02175,0.93856 -0.0652,1.24679"
       font-family="'Typography times'"
       fill="#000000"
       stroke="none"
       font-style="normal"
       word-spacing="0"
       line-height="125%"
       fill-opacity="1"
       font-weight="bold"
       stroke-width="0.265"
       font-stretch="normal"
       letter-spacing="0"
       font-variant="normal"
       font-size="12" />
    <path
       inkscape:connector-curvature="0"
       id="path4393"
       d="m 32.44914,282.55338 c -0.374105,0.0421 -0.665876,0.22986 -0.875321,0.56313 -0.209444,0.33326 -0.314166,0.73371 -0.314166,1.20134 0.0092,0.4887 0.123164,0.90364 0.341829,1.24481 0.219982,0.34117 0.534807,0.51176 0.944477,0.51176 0.256863,-0.005 0.47421,-0.0942 0.652045,-0.26675 0.177826,-0.17256 0.310211,-0.4011 0.397155,-0.68563 0.08825,-0.28453 0.132379,-0.59804 0.132385,-0.94053 -6e-6,-0.21603 -0.02898,-0.42152 -0.08694,-0.61648 -0.05796,-0.19495 -0.142928,-0.36883 -0.254889,-0.52163 -0.111972,-0.15412 -0.246991,-0.27399 -0.405058,-0.35961 -0.156758,-0.087 -0.333928,-0.13041 -0.531517,-0.13041 m -1.278403,0.75281 c 0.108016,-0.20154 0.223933,-0.37278 0.347758,-0.51373 0.12514,-0.14094 0.293748,-0.25621 0.505828,-0.34579 0.212077,-0.0909 0.474871,-0.13633 0.788381,-0.13633 0.297699,0.004 0.565103,0.0567 0.802214,0.15807 0.237101,0.10144 0.439301,0.23843 0.606597,0.41099 0.168606,0.17256 0.298358,0.36356 0.389253,0.573 0.09089,0.20946 0.144235,0.42549 0.160046,0.6481 -5e-6,0.28848 -0.05599,0.56576 -0.167949,0.83185 -0.111972,0.26609 -0.271362,0.50254 -0.478166,0.70935 -0.205497,0.20549 -0.449191,0.36685 -0.731081,0.48409 -0.281897,0.11723 -0.586184,0.17585 -0.912863,0.17585 h -0.0158 c -0.482119,-0.0145 -0.899033,-0.15478 -1.250738,-0.42086 -0.350393,-0.2674 -0.615162,-0.61055 -0.794309,-1.02944 -0.179149,-0.41889 -0.268724,-0.86083 -0.268724,-1.32583 0,-0.10274 0.0026,-0.18112 0.0079,-0.23513 0.02371,-0.519 0.150167,-1.0156 0.37937,-1.48982 0.230521,-0.47421 0.547982,-0.85687 0.952381,-1.14799 0.404397,-0.29111 0.866757,-0.43667 1.387078,-0.43667 0.304285,0 0.576956,0.0527 0.818018,0.15807 0.241057,0.10538 0.428106,0.23711 0.561155,0.39517 0.133038,0.15677 0.199562,0.30956 0.199564,0.45841 -2e-6,0.11329 -0.04347,0.19957 -0.130407,0.25885 -0.08563,0.0593 -0.141611,0.0744 -0.167953,0.0455 -0.04874,-0.23183 -0.196934,-0.46565 -0.444574,-0.70144 -0.24765,-0.2371 -0.522298,-0.33063 -0.823949,-0.28058 -0.391229,1e-5 -0.723178,0.14161 -0.99585,0.42482 -0.271356,0.2819 -0.459724,0.6448 -0.565105,1.08871 -0.10538,0.44393 -0.158072,0.85821 -0.15807,1.24284"
       font-family="'Typography times'"
       fill="#000000"
       stroke="none"
       font-style="normal"
       word-spacing="0"
       line-height="125%"
       fill-opacity="1"
       font-weight="bold"
       stroke-width="0.265"
       font-stretch="normal"
       letter-spacing="0"
       font-variant="normal"
       font-size="12" />
    <path
       inkscape:connector-curvature="0"
       id="path4395"
       d="m 23.154886,277.98913 h -2.355265 c -0.296385,1e-5 -0.530857,0.0276 -0.703418,0.083 -0.172562,0.054 -0.304946,0.17191 -0.397154,0.35368 -0.0843,0.15545 -0.181783,0.24173 -0.292432,0.25885 -0.01844,0 -0.03689,-0.0376 -0.05532,-0.11263 0.01054,-0.0224 0.01581,-0.0494 0.01581,-0.081 l 0.648093,-1.47401 c 0.03556,-0.12119 0.121187,-0.13173 0.256866,-0.0316 0.136994,0.0988 0.30231,0.13633 0.495949,0.11262 h 2.912465 c -0.02635,0.0131 0.06322,0.0138 0.268722,0.002 -0.0606,0.1146 -0.236453,0.40374 -0.527563,0.86741 -0.289802,0.46368 -0.547326,0.92209 -0.772574,1.37522 -0.225255,0.45314 -0.418893,0.95239 -0.580913,1.49773 -0.160708,0.54534 -0.24633,1.09992 -0.256866,1.6637 0.129089,0.24896 0.18178,0.37937 0.158072,0.39123 -0.02371,0.0119 -0.176516,0.0138 -0.458407,0.006 h -1.112428 c 0.08167,-0.41626 0.230519,-0.86413 0.446552,-1.34361 0.217346,-0.4808 0.444574,-0.91747 0.681683,-1.31002 0.237105,-0.39254 0.486067,-0.76598 0.746887,-1.12033 0.262132,-0.35566 0.555881,-0.73503 0.881249,-1.13811"
       font-family="'Typography times'"
       fill="#000000"
       stroke="none"
       font-style="normal"
       word-spacing="0"
       line-height="125%"
       fill-opacity="1"
       font-weight="bold"
       stroke-width="0.265"
       font-stretch="normal"
       letter-spacing="0"
       font-variant="normal"
       font-size="12" />
    <path
       inkscape:connector-curvature="0"
       id="path4397"
       d="m 14.669988,272.5054 c 0.578274,0.10011 0.993871,0.28913 1.246789,0.56708 0.252909,0.27663 0.379366,0.59738 0.379371,0.96226 -5e-6,0.25028 -0.05467,0.48804 -0.163999,0.71329 -0.109337,0.22394 -0.268726,0.42285 -0.478166,0.59673 -0.209448,0.17256 -0.462363,0.30757 -0.758742,0.40505 -0.29507,0.0975 -0.623727,0.14622 -0.985972,0.14622 -0.01845,0 -0.04743,-10e-4 -0.08694,-0.004 -0.03952,-0.003 -0.06982,-0.004 -0.09089,-0.004 -0.49661,-0.0303 -0.906278,-0.12514 -1.229006,-0.28453 -0.32273,-0.1607 -0.556543,-0.36158 -0.701442,-0.60264 -0.143581,-0.24106 -0.215372,-0.50122 -0.215372,-0.78048 0.004,-0.16597 0.04413,-0.32931 0.120529,-0.49002 0.0764,-0.16071 0.181124,-0.30495 0.314167,-0.43273 0.133043,-0.12777 0.291115,-0.23381 0.474215,-0.31812 0.183098,-0.0856 0.379369,-0.13897 0.588816,-0.16004 -0.430746,-0.13831 -0.733057,-0.33129 -0.906935,-0.57894 -0.172562,-0.24895 -0.258842,-0.55193 -0.258842,-0.90891 0.01317,-0.1989 0.07442,-0.3899 0.183758,-0.573 0.109332,-0.1831 0.260158,-0.34513 0.452479,-0.48608 0.193636,-0.14226 0.420864,-0.25357 0.681683,-0.33393 0.262134,-0.0803 0.543369,-0.12052 0.843707,-0.12052 0.212076,0 0.430082,0.0296 0.65402,0.0889 0.223931,0.0593 0.429423,0.14688 0.616479,0.2628 0.187046,0.11592 0.338532,0.26279 0.454455,0.44062 0.117232,0.17652 0.17585,0.37872 0.175855,0.6066 -5e-6,0.26609 -0.109996,0.51242 -0.329975,0.73899 -0.219987,0.22525 -0.546667,0.40835 -0.980043,0.54929 m -0.195613,-0.1146 c 0.550612,-0.20417 0.891124,-0.58486 1.021537,-1.14206 -4e-6,-0.22657 -0.05269,-0.43206 -0.158071,-0.61648 -0.104068,-0.18441 -0.281898,-0.33261 -0.533492,-0.44458 -0.2516,-0.11196 -0.493317,-0.16795 -0.725152,-0.16795 -0.214716,0 -0.422844,0.0455 -0.624383,0.13634 -0.201542,0.0909 -0.405717,0.23711 -0.612526,0.43864 -0.205494,0.20023 -0.312851,0.41034 -0.322071,0.63031 0.01581,0.0909 0.03227,0.17455 0.0494,0.25094 0.08035,0.21999 0.288479,0.39124 0.624383,0.51373 0.337216,0.12251 0.764008,0.25622 1.280378,0.40111 m -1.213198,0.51769 c -0.267406,0.0777 -0.513075,0.23776 -0.737008,0.48014 -0.222618,0.24238 -0.337879,0.51504 -0.345782,0.81802 0.0066,0.25555 0.06521,0.49792 0.175855,0.72712 0.110648,0.22921 0.31219,0.41033 0.604623,0.54338 0.29243,0.13303 0.587496,0.19956 0.8852,0.19956 0.270036,0 0.524267,-0.052 0.762694,-0.1561 0.239739,-0.10406 0.459063,-0.2562 0.657973,-0.45642 0.20022,-0.20155 0.300332,-0.43931 0.300336,-0.7133 -4e-6,-0.47553 -0.341834,-0.80749 -1.025489,-0.99585 l -1.278402,-0.44655"
       font-family="'Typography times'"
       fill="#000000"
       stroke="none"
       font-style="normal"
       word-spacing="0"
       line-height="125%"
       fill-opacity="1"
       font-weight="bold"
       stroke-width="0.265"
       font-stretch="normal"
       letter-spacing="0"
       font-variant="normal"
       font-size="12" />
    <path
       inkscape:connector-curvature="0"
       id="path4399"
       d="m 12.156089,262.13139 c -0.139634,0.44129 -0.343809,0.74756 -0.612527,0.9188 -0.267407,0.16992 -0.548642,0.25489 -0.843706,0.25489 -0.468947,-0.005 -0.8641255,-0.0889 -1.1855358,-0.25094 -0.3214129,-0.16334 -0.5604957,-0.37871 -0.7172491,-0.64612 -0.1554372,-0.2674 -0.2331554,-0.56181 -0.2331554,-0.88322 0,-0.0698 0.00262,-0.12382 0.00791,-0.16203 0.019762,-0.24895 0.084963,-0.49133 0.1956133,-0.72713 0.1106496,-0.23709 0.26411,-0.44918 0.460383,-0.63623 0.1962708,-0.18837 0.428767,-0.33722 0.69749,-0.44655 0.268719,-0.10933 0.565103,-0.164 0.889151,-0.164 0.339851,0 0.646773,0.0645 0.920766,0.19364 0.273987,0.12777 0.509118,0.30231 0.705394,0.5236 0.197585,0.22131 0.356315,0.47686 0.47619,0.76665 0.119867,0.28848 0.198243,0.59212 0.235131,0.91089 0.01712,0.15808 0.02568,0.30363 0.02569,0.43667 -5e-6,0.40309 -0.05796,0.79563 -0.173879,1.17763 -0.114606,0.38201 -0.284533,0.72845 -0.50978,1.03932 -0.223939,0.30956 -0.499246,0.5572 -0.825923,0.74294 -0.325367,0.18442 -0.693541,0.28255 -1.104524,0.2944 -0.425477,0 -0.7969449,-0.0711 -1.1144036,-0.21339 -0.3161435,-0.14226 -0.5091223,-0.38991 -0.5789369,-0.74293 0,-0.11197 -0.0033,-0.21998 -0.00988,-0.32405 -0.00526,-0.10538 0.054009,-0.15808 0.1778304,-0.15808 0.1093319,0.137 0.2766243,0.32801 0.501877,0.57301 0.2252501,0.2437 0.38398,0.40177 0.4761901,0.47422 0.09352,0.0725 0.232495,0.12185 0.416913,0.14819 0.08694,0.0105 0.146214,0.0158 0.177831,0.0158 0.334582,0 0.617793,-0.14028 0.849634,-0.42086 0.233152,-0.2819 0.40703,-0.64875 0.521635,-1.10058 0.115916,-0.45313 0.173875,-0.93591 0.173879,-1.44833 v -0.14621 m -1.406836,0.93855 c 0.428108,-0.008 0.756105,-0.18771 0.983995,-0.53943 0.227883,-0.3517 0.393858,-0.80286 0.497925,-1.35348 -0.01713,-0.26477 -0.07179,-0.51636 -0.163999,-0.75479 -0.09089,-0.23973 -0.248307,-0.42284 -0.472238,-0.5493 -0.223938,-0.12777 -0.457093,-0.20219 -0.699467,-0.22327 -0.272675,0 -0.50583,0.0738 -0.699466,0.22129 -0.193639,0.14623 -0.3694933,0.34975 -0.5275634,0.61056 -0.1580721,0.2595 -0.2423768,0.53745 -0.2529144,0.83382 -5e-7,0.30956 0.042807,0.59607 0.1284333,0.85952 0.086938,0.26345 0.2489607,0.48014 0.4860695,0.65007 0.237106,0.16861 0.487385,0.25555 0.750839,0.26081 0.01186,-0.005 0.02042,-0.009 0.02569,-0.0119 0.0053,-0.003 0.0079,-0.004 0.0079,-0.004 h -0.06521"
       font-family="'Typography times'"
       fill="#000000"
       stroke="none"
       font-style="normal"
       word-spacing="0"
       line-height="125%"
       fill-opacity="1"
       font-weight="bold"
       stroke-width="0.265"
       font-stretch="normal"
       letter-spacing="0"
       font-variant="normal"
       font-size="12" />
    <g
       id="g4428"
       transform="matrix(0.67443804,0,0,0.67443804,-51.990359,254.10132)">
      <path
         d="m 96.361139,-4.9972755 c -3e-6,-0.2304619 -0.04395,-0.4072196 -0.131836,-0.5302734 -0.08594,-0.1249928 -0.277346,-0.1874927 -0.574218,-0.1875 h -1.189454 c -0.263672,7.3e-6 -0.411133,-0.047844 -0.442382,-0.1435547 0.02734,-0.1132737 0.151366,-0.1699143 0.37207,-0.1699219 0.511717,-0.035149 1.049803,-0.1347579 1.614258,-0.2988281 0.566403,-0.1640544 0.971676,-0.3437418 1.21582,-0.5390625 0.220699,-0.1777258 0.369136,-0.2665929 0.445313,-0.2666016 0.06445,8.7e-6 0.09668,0.072274 0.09668,0.2167969 v 6.79101564 c -4e-6,0.88867268 0.439449,1.33300816 1.31836,1.33300786 0.119134,0.044922 0.209955,0.063477 0.272461,0.055664 0.394524,0.1289064 0.593743,0.2304688 0.597656,0.3046875 -0.25196,-0.011719 -2.229497,-0.00879 -5.932617,0.00879 0.03711,-0.013672 0.128905,-0.081055 0.27539,-0.2021485 0.06641,2e-7 0.15039,-0.023437 0.251953,-0.070313 0.101562,-0.048828 0.189452,-0.069336 0.263672,-0.061523 0.20117,-0.027343 0.397459,-0.050781 0.588867,-0.070313 0.63867,-0.1152339 0.958005,-0.53124907 0.958008,-1.24804687 V -4.9972752"
         id="path4401"
         inkscape:connector-curvature="0"
         font-family="'Typography times'"
         fill="#000000"
         stroke="none"
         font-style="normal"
         word-spacing="0"
         line-height="125%"
         fill-opacity="1"
         font-weight="bold"
         font-stretch="normal"
         letter-spacing="0"
         font-variant="normal"
         font-size="12" />
      <path
         d="m 102.11363,-7.1154395 c 0.53906,0.01368 1.01659,0.1386804 1.43262,0.375 0.41601,0.234383 0.76268,0.5517655 1.04003,0.9521484 0.27929,0.4003976 0.49219,0.8584049 0.63868,1.3740234 0.14647,0.5136774 0.22558,1.0566456 0.2373,1.6289063 -1e-5,0.7988317 -0.13184,1.5605497 -0.39551,2.28515624 -0.26368,0.72461072 -0.64356,1.30761795 -1.13965,1.74902346 -0.49414,0.439453 -1.06641,0.6591793 -1.71679,0.6591797 -0.72852,-4e-7 -1.41602,-0.2285158 -2.0625,-0.6855469 -0.646485,-0.45703046 -1.101565,-1.03613144 -1.365235,-1.7373047 -0.26172,-0.7031222 -0.39746,-1.4521449 -0.40722,-2.2470703 0.0156,-0.048824 0.0234,-0.096675 0.0234,-0.1435547 0.0176,-0.7128854 0.16895,-1.3994082 0.45411,-2.0595703 0.28515,-0.6601491 0.67968,-1.1953048 1.183585,-1.6054688 0.50586,-0.4121008 1.19824,-0.5937412 2.07715,-0.5449218 m 0,0.3222656 c -1.22461,0.046883 -1.96289,1.3505929 -2.214845,3.9111328 0,0.8125036 0.0527,1.5459013 0.158205,2.20019532 0.10546,0.65429847 0.29589,1.18554794 0.57129,1.59375 0.27734,0.40625028 0.78027,0.63378908 1.50879,0.68261718 1.23241,0 1.84862,-1.47558448 1.84863,-4.4267578 -0.0606,-2.640618 -0.68458,-3.9609291 -1.87207,-3.9609375"
         id="path4403"
         inkscape:connector-curvature="0"
         font-family="'Typography times'"
         fill="#000000"
         stroke="none"
         font-style="normal"
         word-spacing="0"
         line-height="125%"
         fill-opacity="1"
         font-weight="bold"
         font-stretch="normal"
         letter-spacing="0"
         font-variant="normal"
         font-size="12" />
    </g>
    <g
       id="g4444"
       transform="matrix(0.67443804,0,0,0.67443804,-1.4685245,228.23023)">
      <path
         d="m 32.223656,21.540722 c -10e-6,-0.230461 -0.0439,-0.407219 -0.13184,-0.530273 -0.0859,-0.124993 -0.27735,-0.187493 -0.57422,-0.1875 h -1.18945 c -0.26367,7e-6 -0.41113,-0.04784 -0.44238,-0.143555 0.0273,-0.113273 0.15136,-0.169914 0.37207,-0.169922 0.51171,-0.03515 1.0498,-0.134757 1.61425,-0.298828 0.56641,-0.164054 0.97168,-0.343741 1.21582,-0.539062 0.2207,-0.177726 0.36914,-0.266593 0.44532,-0.266602 0.0645,9e-6 0.0967,0.07227 0.0967,0.216797 v 6.791016 c -10e-6,0.888673 0.43945,1.333008 1.31836,1.333008 0.11913,0.04492 0.20995,0.06348 0.27246,0.05566 0.39452,0.128906 0.59374,0.230468 0.59765,0.304687 -0.25196,-0.01172 -2.22949,-0.0088 -5.93261,0.0088 0.0371,-0.01367 0.1289,-0.08105 0.27539,-0.202148 0.0664,0 0.15039,-0.02344 0.25195,-0.07031 0.10156,-0.04883 0.18945,-0.06934 0.26367,-0.06152 0.20117,-0.02734 0.39746,-0.05078 0.58887,-0.07031 0.63867,-0.115234 0.958,-0.531249 0.95801,-1.248047 v -4.921875"
         id="path4405"
         inkscape:connector-curvature="0"
         font-family="'Typography times'"
         fill="#000000"
         stroke="none"
         font-style="normal"
         word-spacing="0"
         line-height="125%"
         fill-opacity="1"
         font-weight="bold"
         font-stretch="normal"
         letter-spacing="0"
         font-variant="normal"
         font-size="12" />
      <path
         d="m 36.812038,21.540722 c 0,-0.230461 -0.0439,-0.407219 -0.13183,-0.530273 -0.0859,-0.124993 -0.27735,-0.187493 -0.57422,-0.1875 h -1.18945 c -0.26368,7e-6 -0.41114,-0.04784 -0.44239,-0.143555 0.0273,-0.113273 0.15137,-0.169914 0.37207,-0.169922 0.51172,-0.03515 1.04981,-0.134757 1.61426,-0.298828 0.5664,-0.164054 0.97168,-0.343741 1.21582,-0.539062 0.2207,-0.177726 0.36914,-0.266593 0.44531,-0.266602 0.0645,9e-6 0.0967,0.07227 0.0967,0.216797 v 6.791016 c 0,0.888673 0.43945,1.333008 1.31836,1.333008 0.11914,0.04492 0.20996,0.06348 0.27246,0.05566 0.39453,0.128906 0.59375,0.230468 0.59766,0.304687 -0.25196,-0.01172 -2.2295,-0.0088 -5.93262,0.0088 0.0371,-0.01367 0.12891,-0.08105 0.27539,-0.202148 0.0664,0 0.15039,-0.02344 0.25196,-0.07031 0.10156,-0.04883 0.18945,-0.06934 0.26367,-0.06152 0.20117,-0.02734 0.39746,-0.05078 0.58887,-0.07031 0.63867,-0.115234 0.958,-0.531249 0.958,-1.248047 v -4.921875"
         id="path4407"
         inkscape:connector-curvature="0"
         font-family="'Typography times'"
         fill="#000000"
         stroke="none"
         font-style="normal"
         word-spacing="0"
         line-height="125%"
         fill-opacity="1"
         font-weight="bold"
         font-stretch="normal"
         letter-spacing="0"
         font-variant="normal"
         font-size="12" />
    </g>
    <g
       transform="matrix(0.67443804,0,0,0.67443804,34.984733,185.25832)"
       id="g4480">
      <circle
         r="3.197"
         cy="62.060001"
         cx="-35.645"
         id="path4482"
         transform="translate(32.328106,32.086852)"
         stroke-miterlimit="4"
         style="fill:#e9e5e6;fill-opacity:1;stroke:#b4b4b4;stroke-width:0.30000001;stroke-miterlimit:4;stroke-dasharray:none;stroke-opacity:1" />
      <circle
         r="3.197"
         cy="62.060001"
         cx="-35.645"
         transform="matrix(0.82243057,0,0,0.82243057,25.99858,43.107295)"
         id="path4484"
         stroke-miterlimit="4"
         style="fill:#000000;fill-opacity:1;stroke:#b4b4b4;stroke-width:0.36500001;stroke-miterlimit:4;stroke-dasharray:none;stroke-opacity:1" />
      <path
         d="m -3.9497061,91.77712 c 1.4883001,-0.367114 3.5718119,0.7328 2.97930416,3.234674 z"
         id="path4486"
         inkscape:connector-curvature="0"
         sodipodi:nodetypes="ccc"
         style="fill:#414141;fill-opacity:1;stroke:none" />
      <rect
         id="rect4488"
         width="2.322"
         height="2.322"
         x="-4.5430002"
         y="92.970001"
         style="fill:#d6d6d6;fill-opacity:1;stroke:none" />
      <path
         d="m -4.542511,92.97393 h 2.3216021 c -2.1246387,1.094427 -1.8385597,1.295868 -2.3216021,2.321602 z"
         id="path4490"
         inkscape:connector-curvature="0"
         sodipodi:nodetypes="cccc"
         style="fill:#ffffff;fill-opacity:1;stroke:none" />
    </g>
    <circle
       r="27.792"
       cy="262.44"
       cx="32.419"
       id="path3876"
       stroke-dasharray="none"
       stroke-opacity="1"
       fill="none"
       stroke="#808080"
       stroke-width="0.334"
       stroke-miterlimit="4" />
    <path
       d="m 1.6229888,255.56572 3.4169358,0.81355 C 6.5475624,246.15009 19.058494,230.52177 39.046573,235.14546 l 0.813554,-3.09151 C 26.074079,229.28071 8.0928458,233.93773 1.6229888,255.56572 Z"
       id="path3098"
       inkscape:connector-curvature="0"
       sodipodi:nodetypes="ccccc"
       fill="url(#linearGradient3874)"
       stroke="none"
       fill-opacity="1"
       stroke-width="0.265" />
    <g
       id="layer1-3"
       inkscape:label="Ebene 1"
       transform="matrix(0.54724776,-0.39419104,0.39419104,0.54724776,33.405437,262.14324)">
      <path
         sodipodi:nodetypes="sccccsccccscsccscc"
         inkscape:connector-curvature="0"
         id="rect2996"
         d="m 11.950032,-2.53125 c -1.050069,0 -1.9599816,0.4296459 -2.3437496,1.3384479 H -4.3041452 V 1.2865521 H 9.6687824 C 10.07584,2.1384595 10.941275,2.53125 11.950032,2.53125 c 1.008757,0 1.874192,-0.3927905 2.28125,-1.2446979 h 11.277073 c 2.837715,-1.05806526 2.7971,-1.54299036 0,-2.5114878 H 14.293782 C 13.910014,-2.1337377 13.000101,-2.53125 11.950032,-2.53125 Z M 10.637532,-1 c 0.301818,-0.3992844 0.771019,-0.65625 1.3125,-0.65625 0.541481,0 1.010682,0.2569656 1.3125,0.65625 0.319186,0.58457699 0.571503,1.19144332 -0.0625,2.09375 -0.303157,0.3481738 -0.749819,0.5625 -1.25,0.5625 -0.500181,0 -0.946843,-0.2143262 -1.25,-0.5625 C 10.199169,0.58990729 10.111393,-0.39912031 10.637532,-1 Z"
         fill="#000000"
         stroke="none"
         fill-opacity="0.64"
         style="filter:url(#filter949)" />
    </g>
    <g
       id="layer1-5"
       inkscape:label="Ebene 1"
       transform="matrix(0.54724776,-0.39419104,0.39419104,0.54724776,32.903642,262.00337)">
      <path
         sodipodi:nodetypes="sccccsccccscsccscc"
         inkscape:connector-curvature="0"
         id="rect2996-6"
         d="m 11.950032,-2.53125 c -1.050069,0 -1.9599816,0.4296459 -2.3437496,1.3384479 H -4.3041452 V 1.2865521 H 9.6687824 C 10.07584,2.1384595 10.941275,2.53125 11.950032,2.53125 c 1.008757,0 1.874192,-0.3927905 2.28125,-1.2446979 h 11.277073 c 2.837715,-1.05806526 2.7971,-1.54299036 0,-2.5114878 H 14.293782 C 13.910014,-2.1337377 13.000101,-2.53125 11.950032,-2.53125 Z M 10.637532,-1 c 0.301818,-0.3992844 0.771019,-0.65625 1.3125,-0.65625 0.541481,0 1.010682,0.2569656 1.3125,0.65625 0.319186,0.58457699 0.571503,1.19144332 -0.0625,2.09375 -0.303157,0.3481738 -0.749819,0.5625 -1.25,0.5625 -0.500181,0 -0.946843,-0.2143262 -1.25,-0.5625 C 10.199169,0.58990729 10.111393,-0.39912031 10.637532,-1 Z"
         fill="#000000"
         stroke="none"
         fill-opacity="1" />
      <path
         d="m 15.131026,0.54747755 h 9.885672 c 2.07392,-0.43533549 2.044237,-0.63485543 0,-1.0333387 h -9.839996 c -0.029,0.40971129 -0.02809,0.73588439 -0.04568,1.0333387 z"
         id="path2996"
         inkscape:connector-curvature="0"
         sodipodi:nodetypes="ccccc"
         fill="#cacaca"
         stroke="none"
         fill-opacity="1" />
    </g>
    <g
       id="layer1-9"
       inkscape:label="Ebene 1"
       transform="matrix(-0.49830923,-0.45448275,0.45448275,-0.49830923,32.290906,262.24494)">
      <path
         sodipodi:nodetypes="sccccsccccssssss"
         inkscape:connector-curvature="0"
         id="rect2996-20"
         d="m 21.25,-2.46875 c -1.121218,0 -2.033459,0.7614748 -2.34375,1.78125 H -5.8125 v 1.46875 h 24.71875 c 0.319329,1.004772 1.233217,1.75 2.34375,1.75 1.110533,0 2.055671,-0.745228 2.375,-1.75 h 10.843317 c 2.576366,-0.61647265 2.564723,-0.83700947 0,-1.46875 H 23.625 C 23.314709,-1.7072752 22.371218,-2.46875 21.25,-2.46875 Z m 0,0.78125 c 0.944621,0 1.71875,0.77412878 1.71875,1.71875 0,0.94462122 -0.774129,1.71875 -1.71875,1.71875 -0.944621,0 -1.6875,-0.77412878 -1.6875,-1.71875 0,-0.94462122 0.742879,-1.71875 1.6875,-1.71875 z"
         fill="#000000"
         stroke="none"
         fill-opacity="0.64"
         style="filter:url(#filter957)" />
    </g>
    <g
       id="layer1-6"
       inkscape:label="Ebene 1"
       transform="matrix(-0.49830923,-0.45448275,0.45448275,-0.49830923,32.356134,261.8015)">
      <path
         sodipodi:nodetypes="sccccsccccssssss"
         inkscape:connector-curvature="0"
         id="rect2996-2"
         d="m 21.25,-2.46875 c -1.121218,0 -2.033459,0.7614748 -2.34375,1.78125 H -5.8125 v 1.46875 h 24.71875 c 0.319329,1.004772 1.233217,1.75 2.34375,1.75 1.110533,0 2.055671,-0.745228 2.375,-1.75 h 10.843317 c 2.576366,-0.61647265 2.564723,-0.83700947 0,-1.46875 H 23.625 C 23.314709,-1.7072752 22.371218,-2.46875 21.25,-2.46875 Z m 0,0.78125 c 0.944621,0 1.71875,0.77412878 1.71875,1.71875 0,0.94462122 -0.774129,1.71875 -1.71875,1.71875 -0.944621,0 -1.6875,-0.77412878 -1.6875,-1.71875 0,-0.94462122 0.742879,-1.71875 1.6875,-1.71875 z"
         fill="#000000"
         stroke="none"
         fill-opacity="1" />
    </g>
    <g
       aria-label="95:12:23"
       style="font-style:normal;font-variant:normal;font-weight:bold;font-stretch:normal;font-size:9.87777805px;line-height:1.25;font-family:DS-Digital;-inkscape-font-specification:'DS-Digital Bold';letter-spacing:0px;word-spacing:0px;fill:#000000;fill-opacity:1;stroke:none;stroke-width:0.26458332"
       id="text967">
      <path
         d="m 21.384121,265.58316 -0.933899,0.94288 h -1.76004 l -0.933899,-0.94288 z m 0,6.28586 h -3.627838 l 0.933899,-0.9339 h 1.76004 z m -3.807434,-3.67274 v -2.43352 l 0.933899,0.93389 v 1.26616 l -0.583687,0.59266 z m 3.978051,1.05962 v 2.43352 l -0.933899,-0.9339 v -1.26615 l 0.583686,-0.58368 z m -0.933899,-1.29309 v -1.26616 l 0.933899,-0.93389 v 2.43352 l -0.350213,0.35919 z m -0.05388,0.29633 0.466949,0.46695 -0.466949,0.46695 h -1.993515 l -0.46695,-0.46695 0.46695,-0.46695 z"
         style="font-style:normal;font-variant:normal;font-weight:bold;font-stretch:normal;font-size:9.87777805px;font-family:DS-Digital;-inkscape-font-specification:'DS-Digital Bold';stroke-width:0.26458332"
         id="path969" />
      <path
         d="m 26.419473,265.58316 -0.933899,0.94288 h -1.76004 l -0.933899,-0.94288 z m 0,6.28586 h -3.627838 l 0.933899,-0.9339 h 1.76004 z m -3.807434,-3.67274 v -2.43352 l 0.933899,0.93389 v 1.26616 l -0.583687,0.59266 z m 3.97805,1.05962 v 2.43352 l -0.933899,-0.9339 v -1.26615 l 0.583687,-0.58368 z m -0.987778,-0.99676 0.46695,0.46695 -0.46695,0.46695 h -1.993515 l -0.466949,-0.46695 0.466949,-0.46695 z"
         style="font-style:normal;font-variant:normal;font-weight:bold;font-stretch:normal;font-size:9.87777805px;font-family:DS-Digital;-inkscape-font-specification:'DS-Digital Bold';stroke-width:0.26458332"
         id="path971" />
      <path
         d="m 27.755148,271.86902 v -0.9339 h 0.942879 v 0.9339 z m 0,-4.30132 v -0.9339 h 0.942879 v 0.9339 z"
         style="font-style:normal;font-variant:normal;font-weight:bold;font-stretch:normal;font-size:9.87777805px;font-family:DS-Digital;-inkscape-font-specification:'DS-Digital Bold';stroke-width:0.26458332"
         id="path973" />
      <path
         d="m 31.202688,269.2559 v 2.43352 l -0.933899,-0.9339 v -1.26615 l 0.583687,-0.58368 z m -0.933899,-1.29309 v -1.26616 l 0.933899,-0.93389 v 2.43352 l -0.350212,0.35919 z"
         style="font-style:normal;font-variant:normal;font-weight:bold;font-stretch:normal;font-size:9.87777805px;font-family:DS-Digital;-inkscape-font-specification:'DS-Digital Bold';stroke-width:0.26458332"
         id="path975" />
      <path
         d="m 36.470884,265.58316 -0.933899,0.94288 h -1.760041 l -0.933899,-0.94288 z m 0,6.28586 h -3.627839 l 0.933899,-0.9339 h 1.760041 z m -2.873536,-2.37965 v 1.26615 l -0.933899,0.9339 v -2.43352 l 0.350212,-0.35021 z m 2.110253,-1.52656 v -1.26616 l 0.933899,-0.93389 v 2.43352 l -0.350212,0.35919 z m -0.05388,0.29633 0.46695,0.46695 -0.46695,0.46695 h -1.993515 l -0.46695,-0.46695 0.46695,-0.46695 z"
         style="font-style:normal;font-variant:normal;font-weight:bold;font-stretch:normal;font-size:9.87777805px;font-family:DS-Digital;-inkscape-font-specification:'DS-Digital Bold';stroke-width:0.26458332"
         id="path977" />
      <path
         d="m 37.806559,271.86902 v -0.9339 h 0.942878 v 0.9339 z m 0,-4.30132 v -0.9339 h 0.942878 v 0.9339 z"
         style="font-style:normal;font-variant:normal;font-weight:bold;font-stretch:normal;font-size:9.87777805px;font-family:DS-Digital;-inkscape-font-specification:'DS-Digital Bold';stroke-width:0.26458332"
         id="path979" />
      <path
         d="m 43.705584,265.58316 -0.933899,0.94288 h -1.76004 l -0.933899,-0.94288 z m 0,6.28586 h -3.627838 l 0.933899,-0.9339 h 1.76004 z m -2.873535,-2.37965 v 1.26615 l -0.933899,0.9339 v -2.43352 l 0.350212,-0.35021 z m 2.110252,-1.52656 v -1.26616 l 0.933899,-0.93389 v 2.43352 l -0.350212,0.35919 z m -0.05388,0.29633 0.46695,0.46695 -0.46695,0.46695 h -1.993515 l -0.466949,-0.46695 0.466949,-0.46695 z"
         style="font-style:normal;font-variant:normal;font-weight:bold;font-stretch:normal;font-size:9.87777805px;font-family:DS-Digital;-inkscape-font-specification:'DS-Digital Bold';stroke-width:0.26458332"
         id="path981" />
      <path
         d="m 48.740937,265.58316 -0.933899,0.94288 h -1.760041 l -0.933899,-0.94288 z m 0,6.28586 h -3.627839 l 0.933899,-0.9339 h 1.760041 z m 0.170616,-2.61312 v 2.43352 l -0.933899,-0.9339 v -1.26615 l 0.583687,-0.58368 z m -0.933899,-1.29309 v -1.26616 l 0.933899,-0.93389 v 2.43352 l -0.350212,0.35919 z m -0.05388,0.29633 0.46695,0.46695 -0.46695,0.46695 H 45.93026 l -0.46695,-0.46695 0.46695,-0.46695 z"
         style="font-style:normal;font-variant:normal;font-weight:bold;font-stretch:normal;font-size:9.87777805px;font-family:DS-Digital;-inkscape-font-specification:'DS-Digital Bold';stroke-width:0.26458332"
         id="path983" />
    </g>
    <g
       id="layer1-8"
       inkscape:label="Ebene 1"
       transform="matrix(-0.14170585,0.65938315,-0.65938315,-0.14170585,33.05737,261.66712)">
      <path
         sodipodi:nodetypes="ccccccccccccccccccc"
         inkscape:connector-curvature="0"
         id="rect3005"
         d="m -8.5293746,-1.8176246 v 0.71875 L -10.332282,-0.625 c -1.313215,0.1253371 -1.123521,1.4119056 0,1.375 l 1.8029074,0.4146403 v 0.6875 l 3.7369349,-0.25 L -2.3667101,0.75 H 35.146428 L 40.334304,0.0625 35.19301,-0.625 H -2.3667101 l -2.2290488,-1.0363746 z m 0.8850635,0.87499999 h 3.2780131 v 1.7947649 h -3.2780131 z"
         fill="#000000"
         stroke="none"
         fill-opacity="0.64"
         style="filter:url(#filter961)" />
    </g>
    <g
       id="layer1-4"
       inkscape:label="Ebene 1"
       transform="matrix(-0.14170585,0.65938315,-0.65938315,-0.14170585,32.583763,261.61173)">
      <path
         sodipodi:nodetypes="ccccccccccccccccccc"
         inkscape:connector-curvature="0"
         id="rect3005-7"
         d="m -8.5293746,-1.8176246 v 0.71875 L -10.332282,-0.625 c -1.313215,0.1253371 -1.123521,1.4119056 0,1.375 l 1.8029074,0.4146403 v 0.6875 l 3.7369349,-0.25 L -2.3667101,0.75 H 35.146428 L 40.334304,0.0625 35.19301,-0.625 H -2.3667101 l -2.2290488,-1.0363746 z m 0.8850635,0.87499999 h 3.2780131 v 1.7947649 h -3.2780131 z"
         fill="#b40000"
         stroke="none"
         fill-opacity="1" />
    </g>
    <g
       transform="matrix(0.67443804,0,0,0.67443804,-1.2705705,-413.72403)"
       id="layer1-45"
       inkscape:label="Layer 1">
      <circle
         r="3.438"
         cy="50.24"
         cx="49.52"
         transform="matrix(0.6186372,0,0,0.6186372,19.374697,971.29748)"
         id="path2986"
         stroke-dasharray="none"
         stroke-opacity="1"
         fill="#000000"
         stroke="#a4a4a4"
         fill-opacity="1"
         stroke-width="0.5"
         stroke-miterlimit="4" />
    </g>
  </g>
</svg>
