<?xml version="1.0" encoding="UTF-8" standalone="no"?>
<!-- Created with Inkscape (http://www.inkscape.org/) -->
<svg
   xmlns:dc="http://purl.org/dc/elements/1.1/"
   xmlns:cc="http://web.resource.org/cc/"
   xmlns:rdf="http://www.w3.org/1999/02/22-rdf-syntax-ns#"
   xmlns:svg="http://www.w3.org/2000/svg"
   xmlns="http://www.w3.org/2000/svg"
   xmlns:xlink="http://www.w3.org/1999/xlink"
   xmlns:sodipodi="http://sodipodi.sourceforge.net/DTD/sodipodi-0.dtd"
   xmlns:inkscape="http://www.inkscape.org/namespaces/inkscape"
   id="svg2"
   sodipodi:version="0.32"
   inkscape:version="0.44"
   width="256"
   height="256"
   version="1.0"
   sodipodi:docbase="/media/disk-hda2/svg1/devices"
   sodipodi:docname="com.svg">
  <defs
     id="defs5">
    <linearGradient
       id="linearGradient3120"
       inkscape:collect="always">
      <stop
         id="stop3122"
         offset="0"
         style="stop-color:#545668;stop-opacity:1;" />
      <stop
         id="stop3124"
         offset="1"
         style="stop-color:white;stop-opacity:1" />
    </linearGradient>
    <linearGradient
       inkscape:collect="always"
       id="linearGradient2828">
      <stop
         style="stop-color:black;stop-opacity:1"
         offset="0"
         id="stop2830" />
      <stop
         style="stop-color:#f2f2f2;stop-opacity:1"
         offset="1"
         id="stop2832" />
    </linearGradient>
    <linearGradient
       inkscape:collect="always"
       id="linearGradient2820">
      <stop
         style="stop-color:#ababab;stop-opacity:1"
         offset="0"
         id="stop2822" />
      <stop
         style="stop-color:black;stop-opacity:1"
         offset="1"
         id="stop2824" />
    </linearGradient>
    <linearGradient
       inkscape:collect="always"
       id="linearGradient2812">
      <stop
         style="stop-color:#a9a9a9;stop-opacity:1"
         offset="0"
         id="stop2814" />
      <stop
         style="stop-color:black;stop-opacity:1"
         offset="1"
         id="stop2816" />
    </linearGradient>
    <linearGradient
       id="linearGradient2798"
       inkscape:collect="always">
      <stop
         id="stop2800"
         offset="0"
         style="stop-color:white;stop-opacity:1" />
      <stop
         id="stop2802"
         offset="1"
         style="stop-color:#bec0cf;stop-opacity:0" />
    </linearGradient>
    <linearGradient
       inkscape:collect="always"
       id="linearGradient2788">
      <stop
         style="stop-color:#545668;stop-opacity:1;"
         offset="0"
         id="stop2790" />
      <stop
         style="stop-color:#bec0cf;stop-opacity:1"
         offset="1"
         id="stop2792" />
    </linearGradient>
    <linearGradient
       inkscape:collect="always"
       xlink:href="#linearGradient2828"
       id="linearGradient2834"
       x1="74.969818"
       y1="94.982872"
       x2="76.072464"
       y2="30.511133"
       gradientUnits="userSpaceOnUse" />
    <linearGradient
       inkscape:collect="always"
       xlink:href="#linearGradient2788"
       id="linearGradient3016"
       gradientUnits="userSpaceOnUse"
       gradientTransform="translate(-14.46683,72.96315)"
       x1="67.421906"
       y1="32.398109"
       x2="71.984009"
       y2="94.98288" />
    <linearGradient
       inkscape:collect="always"
       xlink:href="#linearGradient3120"
       id="linearGradient3149"
       gradientUnits="userSpaceOnUse"
       gradientTransform="translate(-14.46683,72.96315)"
       spreadMethod="reflect"
       x1="31.254829"
       y1="39.317028"
       x2="22.922585"
       y2="45.921455" />
    <linearGradient
       inkscape:collect="always"
       xlink:href="#linearGradient2788"
       id="linearGradient3151"
       gradientUnits="userSpaceOnUse"
       gradientTransform="translate(-14.46683,72.96315)"
       x1="67.421906"
       y1="32.398109"
       x2="71.984009"
       y2="94.98288" />
    <linearGradient
       inkscape:collect="always"
       xlink:href="#linearGradient2788"
       id="linearGradient3153"
       gradientUnits="userSpaceOnUse"
       gradientTransform="translate(-14.46683,72.96315)"
       x1="67.421906"
       y1="32.398109"
       x2="71.984009"
       y2="94.98288" />
    <linearGradient
       inkscape:collect="always"
       xlink:href="#linearGradient2788"
       id="linearGradient3155"
       gradientUnits="userSpaceOnUse"
       gradientTransform="translate(-14.46683,72.96315)"
       x1="67.421906"
       y1="32.398109"
       x2="71.984009"
       y2="94.98288" />
    <linearGradient
       inkscape:collect="always"
       xlink:href="#linearGradient2788"
       id="linearGradient3157"
       gradientUnits="userSpaceOnUse"
       gradientTransform="translate(-14.46683,72.96315)"
       x1="67.421906"
       y1="32.398109"
       x2="71.984009"
       y2="94.98288" />
    <linearGradient
       inkscape:collect="always"
       xlink:href="#linearGradient2788"
       id="linearGradient3159"
       gradientUnits="userSpaceOnUse"
       gradientTransform="translate(-14.46683,72.96315)"
       x1="67.421906"
       y1="32.398109"
       x2="71.984009"
       y2="94.98288" />
    <linearGradient
       inkscape:collect="always"
       xlink:href="#linearGradient2788"
       id="linearGradient3161"
       gradientUnits="userSpaceOnUse"
       gradientTransform="translate(-14.46683,72.96315)"
       x1="67.421906"
       y1="32.398109"
       x2="71.984009"
       y2="94.98288" />
    <linearGradient
       inkscape:collect="always"
       xlink:href="#linearGradient2788"
       id="linearGradient3163"
       gradientUnits="userSpaceOnUse"
       gradientTransform="translate(-14.46683,72.96315)"
       x1="67.421906"
       y1="32.398109"
       x2="71.984009"
       y2="94.98288" />
    <linearGradient
       inkscape:collect="always"
       xlink:href="#linearGradient2788"
       id="linearGradient3165"
       gradientUnits="userSpaceOnUse"
       gradientTransform="translate(-14.46683,72.96315)"
       x1="107.76797"
       y1="39.946022"
       x2="112.86853"
       y2="34.84375" />
    <linearGradient
       inkscape:collect="always"
       xlink:href="#linearGradient2788"
       id="linearGradient3167"
       gradientUnits="userSpaceOnUse"
       gradientTransform="translate(-14.46683,72.96315)"
       x1="67.421906"
       y1="32.398109"
       x2="71.984009"
       y2="94.98288" />
    <linearGradient
       inkscape:collect="always"
       xlink:href="#linearGradient2788"
       id="linearGradient3169"
       gradientUnits="userSpaceOnUse"
       x1="67.421906"
       y1="32.398109"
       x2="71.984009"
       y2="94.98288" />
    <linearGradient
       inkscape:collect="always"
       xlink:href="#linearGradient2828"
       id="linearGradient3171"
       gradientUnits="userSpaceOnUse"
       x1="74.969818"
       y1="94.982872"
       x2="76.072464"
       y2="30.511133" />
    <linearGradient
       inkscape:collect="always"
       xlink:href="#linearGradient2798"
       id="linearGradient3173"
       gradientUnits="userSpaceOnUse"
       x1="67.421906"
       y1="32.398109"
       x2="67.895554"
       y2="66.992706" />
    <linearGradient
       inkscape:collect="always"
       xlink:href="#linearGradient2828"
       id="linearGradient3175"
       gradientUnits="userSpaceOnUse"
       x1="74.969818"
       y1="94.982872"
       x2="76.072464"
       y2="30.511133" />
    <linearGradient
       inkscape:collect="always"
       xlink:href="#linearGradient2820"
       id="linearGradient3177"
       gradientUnits="userSpaceOnUse"
       x1="19.242905"
       y1="19.993422"
       x2="30.759924"
       y2="8.074852" />
    <linearGradient
       inkscape:collect="always"
       xlink:href="#linearGradient2812"
       id="linearGradient3179"
       gradientUnits="userSpaceOnUse"
       x1="17.531605"
       y1="23.969702"
       x2="29.746981"
       y2="3.0769799" />
    <linearGradient
       inkscape:collect="always"
       xlink:href="#linearGradient2820"
       id="linearGradient3181"
       gradientUnits="userSpaceOnUse"
       x1="19.242905"
       y1="19.993422"
       x2="30.759924"
       y2="8.074852" />
    <linearGradient
       inkscape:collect="always"
       xlink:href="#linearGradient2812"
       id="linearGradient3183"
       gradientUnits="userSpaceOnUse"
       x1="17.531605"
       y1="23.969702"
       x2="29.746981"
       y2="3.0769799" />
    <linearGradient
       inkscape:collect="always"
       xlink:href="#linearGradient2820"
       id="linearGradient3185"
       gradientUnits="userSpaceOnUse"
       x1="19.242905"
       y1="19.993422"
       x2="30.759924"
       y2="8.074852" />
    <linearGradient
       inkscape:collect="always"
       xlink:href="#linearGradient2812"
       id="linearGradient3187"
       gradientUnits="userSpaceOnUse"
       x1="17.531605"
       y1="23.969702"
       x2="29.746981"
       y2="3.0769799" />
    <linearGradient
       inkscape:collect="always"
       xlink:href="#linearGradient2820"
       id="linearGradient3189"
       gradientUnits="userSpaceOnUse"
       x1="19.242905"
       y1="19.993422"
       x2="30.759924"
       y2="8.074852" />
    <linearGradient
       inkscape:collect="always"
       xlink:href="#linearGradient2812"
       id="linearGradient3191"
       gradientUnits="userSpaceOnUse"
       x1="17.531605"
       y1="23.969702"
       x2="29.746981"
       y2="3.0769799" />
    <linearGradient
       inkscape:collect="always"
       xlink:href="#linearGradient2820"
       id="linearGradient3193"
       gradientUnits="userSpaceOnUse"
       x1="19.242905"
       y1="19.993422"
       x2="30.759924"
       y2="8.074852" />
    <linearGradient
       inkscape:collect="always"
       xlink:href="#linearGradient2812"
       id="linearGradient3195"
       gradientUnits="userSpaceOnUse"
       x1="17.531605"
       y1="23.969702"
       x2="29.746981"
       y2="3.0769799" />
    <linearGradient
       inkscape:collect="always"
       xlink:href="#linearGradient2820"
       id="linearGradient3197"
       gradientUnits="userSpaceOnUse"
       x1="19.242905"
       y1="19.993422"
       x2="30.759924"
       y2="8.074852" />
    <linearGradient
       inkscape:collect="always"
       xlink:href="#linearGradient2812"
       id="linearGradient3199"
       gradientUnits="userSpaceOnUse"
       x1="17.531605"
       y1="23.969702"
       x2="29.746981"
       y2="3.0769799" />
    <linearGradient
       inkscape:collect="always"
       xlink:href="#linearGradient2820"
       id="linearGradient3201"
       gradientUnits="userSpaceOnUse"
       x1="19.242905"
       y1="19.993422"
       x2="30.759924"
       y2="8.074852" />
    <linearGradient
       inkscape:collect="always"
       xlink:href="#linearGradient2812"
       id="linearGradient3203"
       gradientUnits="userSpaceOnUse"
       x1="17.531605"
       y1="23.969702"
       x2="29.746981"
       y2="3.0769799" />
  </defs>
  <sodipodi:namedview
     inkscape:window-height="743"
     inkscape:window-width="1016"
     inkscape:pageshadow="2"
     inkscape:pageopacity="0.0"
     guidetolerance="10.0"
     gridtolerance="10.0"
     objecttolerance="10.0"
     borderopacity="1.0"
     bordercolor="#666666"
     pagecolor="#ffffff"
     id="base"
     showguides="true"
     inkscape:guide-bbox="true"
     inkscape:zoom="2.0664062"
     inkscape:cx="128"
     inkscape:cy="128"
     inkscape:window-x="0"
     inkscape:window-y="0"
     inkscape:current-layer="svg2"
     width="256px"
     height="256px" />
  <metadata
     id="metadata7">
    <rdf:RDF>
      <cc:Work
         rdf:about="">
        <dc:format>image/svg+xml</dc:format>
        <dc:type
           rdf:resource="http://purl.org/dc/dcmitype/StillImage" />
        <dc:creator>
          <cc:Agent>
            <dc:title></dc:title>
          </cc:Agent>
        </dc:creator>
        <dc:rights>
          <cc:Agent>
            <dc:title></dc:title>
          </cc:Agent>
        </dc:rights>
        <dc:publisher>
          <cc:Agent>
            <dc:title></dc:title>
          </cc:Agent>
        </dc:publisher>
        <cc:license
           rdf:resource="http://artlibre.org/licence.php/lalgb.html" />
      </cc:Work>
      <cc:License
         rdf:about="http://artlibre.org/licence.php/lalgb.html">
        <cc:permits
           rdf:resource="http://web.resource.org/cc/Reproduction" />
        <cc:permits
           rdf:resource="http://web.resource.org/cc/Distribution" />
        <cc:permits
           rdf:resource="http://web.resource.org/cc/DerivativeWorks" />
        <cc:requires
           rdf:resource="http://web.resource.org/cc/ShareAlike" />
        <cc:requires
           rdf:resource="http://web.resource.org/cc/Notice" />
        <cc:requires
           rdf:resource="http://web.resource.org/cc/Attribution" />
      </cc:License>
    </rdf:RDF>
  </metadata>
  <g
     id="g3126"
     transform="matrix(2.03041,0,0,2.03041,4.947791,5.819824)">
    <g
       transform="translate(0.943489,-87.42997)"
       id="g2968"
       style="fill:url(#linearGradient3016);fill-opacity:1;stroke:none;stroke-width:0;stroke-linecap:round;stroke-linejoin:round;stroke-miterlimit:4;stroke-dasharray:none;stroke-opacity:1">
      <path
         id="path2970"
         d="M 12.626922,107.8694 C 4.9327682,107.8694 -3.1450378,116.894 0.31442216,124.58815 L 14.456558,138.73029 C 10.997098,131.03614 19.074904,122.01154 26.769058,122.01154 L 12.626922,107.8694 z "
         style="fill:url(#linearGradient3149);fill-opacity:1;stroke:none;stroke-width:0;stroke-miterlimit:4;stroke-dasharray:none" />
      <path
         id="path2972"
         d="M 0.31442216,124.58815 L 11.939422,150.58815 L 26.081558,164.73029 L 14.456558,138.73029 L 0.31442216,124.58815 z "
         style="fill:url(#linearGradient3151);stroke:none;stroke-width:0;stroke-miterlimit:4;stroke-dasharray:none" />
      <path
         id="path2974"
         d="M 11.939422,150.58815 C 14.763952,155.96623 16.37486,159.68825 18.605449,161.91884 L 32.747585,176.06097 C 30.516996,173.83038 28.906088,170.10837 26.081558,164.73029 L 11.939422,150.58815 z "
         style="fill:url(#linearGradient3153);stroke:none;stroke-width:0;stroke-miterlimit:4;stroke-dasharray:none" />
      <path
         id="path2976"
         d="M 18.605449,161.91884 C 20.348686,163.66207 22.470403,164.4944 25.845672,164.4944 L 39.987808,178.63654 C 36.612538,178.63654 34.490822,177.80421 32.747585,176.06097 L 18.605449,161.91884 z "
         style="fill:url(#linearGradient3155);stroke:none;stroke-width:0;stroke-miterlimit:4;stroke-dasharray:none" />
      <path
         id="path2978"
         d="M 25.845672,164.4944 L 77.314422,164.4944 L 91.456558,178.63654 L 39.987808,178.63654 L 25.845672,164.4944 z "
         style="fill:url(#linearGradient3157);stroke:none;stroke-width:0;stroke-miterlimit:4;stroke-dasharray:none" />
      <path
         id="path2980"
         d="M 77.314422,164.4944 C 85.008582,164.4944 86.157482,160.79827 91.189422,150.58815 L 105.33156,164.73029 C 100.29962,174.94041 99.150718,178.63654 91.456558,178.63654 L 77.314422,164.4944 z "
         style="fill:url(#linearGradient3159);stroke:none;stroke-width:0;stroke-miterlimit:4;stroke-dasharray:none" />
      <path
         id="path2982"
         d="M 91.189422,150.58815 C 95.673692,139.7193 98.458732,134.51551 101.90817,124.27565 L 116.05031,138.41779 C 112.60087,148.65765 109.81583,153.86144 105.33156,164.73029 L 91.189422,150.58815 z "
         style="fill:url(#linearGradient3161);stroke:none;stroke-width:0;stroke-miterlimit:4;stroke-dasharray:none" />
      <path
         id="path2984"
         d="M 101.90817,124.27565 C 103.94134,119.7537 102.31328,114.88014 99.063318,111.63017 L 113.20545,125.77231 C 116.45542,129.02228 118.08348,133.89583 116.05031,138.41779 L 101.90817,124.27565 z "
         style="fill:url(#linearGradient3163);stroke:none;stroke-width:0;stroke-miterlimit:4;stroke-dasharray:none" />
      <path
         id="path2986"
         d="M 99.063318,111.63017 C 96.783431,109.35029 93.705375,107.8694 90.533172,107.8694 L 104.67531,122.01154 C 107.84751,122.01154 110.92557,123.49242 113.20545,125.77231 L 99.063318,111.63017 z "
         style="fill:url(#linearGradient3165);stroke:none;stroke-width:0;stroke-miterlimit:4;stroke-dasharray:none" />
      <path
         id="path2988"
         d="M 90.533172,107.8694 L 12.626922,107.8694 L 26.769058,122.01154 L 104.67531,122.01154 L 90.533172,107.8694 z "
         style="fill:url(#linearGradient3167);stroke:none;stroke-width:0;stroke-miterlimit:4;stroke-dasharray:none" />
    </g>
    <g
       transform="translate(0.314499,-0.628991)"
       id="g2806"
       style="stroke:url(#linearGradient2834);stroke-width:2.4000001;stroke-miterlimit:4;stroke-dasharray:none">
      <path
         d="M 27.09375,34.90625 C 19.399596,34.90625 11.32179,43.930847 14.78125,51.625 L 26.40625,77.625 C 31.438191,87.206132 32.618347,91.531246 40.3125,91.53125 L 91.78125,91.53125 C 99.47541,91.53125 100.62431,87.835124 105.65625,77.625 C 110.14052,66.756145 112.92556,61.552362 116.375,51.3125 C 119.83446,43.618346 112.69416,34.90625 105,34.90625 L 27.09375,34.90625 z M 78.3125,42.46875 C 82.999754,42.46875 86.8125,46.250247 86.8125,50.9375 C 86.8125,55.624752 82.999753,59.4375 78.3125,59.4375 C 73.625247,59.437502 69.8125,55.624753 69.8125,50.9375 C 69.812502,46.250246 73.625247,42.46875 78.3125,42.46875 z M 99.0625,42.46875 C 103.74975,42.46875 107.5625,46.250247 107.5625,50.9375 C 107.5625,55.624752 103.74975,59.4375 99.0625,59.4375 C 94.375245,59.437502 90.5625,55.624753 90.5625,50.9375 C 90.5625,46.250246 94.375247,42.46875 99.0625,42.46875 z M 56.9375,43.09375 C 61.624754,43.09375 65.40625,46.875247 65.40625,51.5625 C 65.40625,56.249752 61.624753,60.0625 56.9375,60.0625 C 52.250247,60.062501 48.4375,56.249753 48.4375,51.5625 C 48.437501,46.875245 52.250247,43.09375 56.9375,43.09375 z M 36.15625,43.71875 C 40.843502,43.718752 44.65625,47.531497 44.65625,52.21875 C 44.656252,56.906004 40.843503,60.6875 36.15625,60.6875 C 31.468995,60.6875 27.6875,56.906003 27.6875,52.21875 C 27.6875,47.531498 31.468997,43.71875 36.15625,43.71875 z M 68.875,63.53125 C 73.562255,63.531249 77.375,67.343997 77.375,72.03125 C 77.375,76.718501 73.562253,80.5 68.875,80.5 C 64.187748,80.499997 60.375,76.718503 60.375,72.03125 C 60.374999,67.343995 64.187747,63.53125 68.875,63.53125 z M 89,63.53125 C 93.687253,63.531249 97.5,67.343997 97.5,72.03125 C 97.499999,76.718501 93.687253,80.5 89,80.5 C 84.312746,80.499997 80.5,76.718503 80.5,72.03125 C 80.500001,67.343995 84.312747,63.53125 89,63.53125 z M 46.21875,63.84375 C 50.906005,63.84375 54.71875,67.656497 54.71875,72.34375 C 54.718751,77.031002 50.906003,80.8125 46.21875,80.8125 C 41.531498,80.812498 37.75,77.031003 37.75,72.34375 C 37.749999,67.656496 41.531497,63.84375 46.21875,63.84375 z "
         id="rect1873"
         style="fill:url(#linearGradient3169);fill-opacity:1;stroke:url(#linearGradient3171);stroke-width:2.4000001;stroke-linecap:round;stroke-linejoin:round;stroke-miterlimit:4;stroke-dasharray:none;stroke-opacity:1" />
      <path
         id="path2796"
         d="M 27.09375,34.90625 C 19.399596,34.90625 11.32179,43.930847 14.78125,51.625 L 26.40625,77.625 C 31.438191,87.206132 32.618347,91.531246 40.3125,91.53125 L 91.78125,91.53125 C 99.47541,91.53125 100.62431,87.835124 105.65625,77.625 C 110.14052,66.756145 112.92556,61.552362 116.375,51.3125 C 119.83446,43.618346 112.69416,34.90625 105,34.90625 L 27.09375,34.90625 z M 78.3125,42.46875 C 82.999754,42.46875 86.8125,46.250247 86.8125,50.9375 C 86.8125,55.624752 82.999753,59.4375 78.3125,59.4375 C 73.625247,59.437502 69.8125,55.624753 69.8125,50.9375 C 69.812502,46.250246 73.625247,42.46875 78.3125,42.46875 z M 99.0625,42.46875 C 103.74975,42.46875 107.5625,46.250247 107.5625,50.9375 C 107.5625,55.624752 103.74975,59.4375 99.0625,59.4375 C 94.375245,59.437502 90.5625,55.624753 90.5625,50.9375 C 90.5625,46.250246 94.375247,42.46875 99.0625,42.46875 z M 56.9375,43.09375 C 61.624754,43.09375 65.40625,46.875247 65.40625,51.5625 C 65.40625,56.249752 61.624753,60.0625 56.9375,60.0625 C 52.250247,60.062501 48.4375,56.249753 48.4375,51.5625 C 48.437501,46.875245 52.250247,43.09375 56.9375,43.09375 z M 36.15625,43.71875 C 40.843502,43.718752 44.65625,47.531497 44.65625,52.21875 C 44.656252,56.906004 40.843503,60.6875 36.15625,60.6875 C 31.468995,60.6875 27.6875,56.906003 27.6875,52.21875 C 27.6875,47.531498 31.468997,43.71875 36.15625,43.71875 z M 68.875,63.53125 C 73.562255,63.531249 77.375,67.343997 77.375,72.03125 C 77.375,76.718501 73.562253,80.5 68.875,80.5 C 64.187748,80.499997 60.375,76.718503 60.375,72.03125 C 60.374999,67.343995 64.187747,63.53125 68.875,63.53125 z M 89,63.53125 C 93.687253,63.531249 97.5,67.343997 97.5,72.03125 C 97.499999,76.718501 93.687253,80.5 89,80.5 C 84.312746,80.499997 80.5,76.718503 80.5,72.03125 C 80.500001,67.343995 84.312747,63.53125 89,63.53125 z M 46.21875,63.84375 C 50.906005,63.84375 54.71875,67.656497 54.71875,72.34375 C 54.718751,77.031002 50.906003,80.8125 46.21875,80.8125 C 41.531498,80.812498 37.75,77.031003 37.75,72.34375 C 37.749999,67.656496 41.531497,63.84375 46.21875,63.84375 z "
         style="fill:url(#linearGradient3173);fill-opacity:1;stroke:url(#linearGradient3175);stroke-width:2.4000001;stroke-linecap:round;stroke-linejoin:round;stroke-miterlimit:4;stroke-dasharray:none;stroke-opacity:1" />
    </g>
    <path
       sodipodi:ry="8.4914007"
       transform="matrix(0.955493,0,0,0.955493,14.85963,39.59942)"
       sodipodi:rx="8.4914007"
       sodipodi:cx="22.958231"
       sodipodi:type="arc"
       sodipodi:cy="13.523341"
       id="path2810"
       d="M 31.449632 13.523341 A 8.4914007 8.4914007 0 1 1  14.46683,13.523341 A 8.4914007 8.4914007 0 1 1  31.449632 13.523341 z"
       style="fill:url(#linearGradient3177);fill-opacity:1;stroke:url(#linearGradient3179);stroke-width:2.70695186;stroke-linecap:round;stroke-linejoin:round;stroke-miterlimit:4;stroke-dasharray:none;stroke-opacity:1" />
    <path
       sodipodi:ry="8.4914007"
       transform="matrix(0.955493,0,0,0.955493,36.55988,39.59942)"
       sodipodi:rx="8.4914007"
       sodipodi:cx="22.958231"
       sodipodi:type="arc"
       sodipodi:cy="13.523341"
       id="path2843"
       d="M 31.449632 13.523341 A 8.4914007 8.4914007 0 1 1  14.46683,13.523341 A 8.4914007 8.4914007 0 1 1  31.449632 13.523341 z"
       style="fill:url(#linearGradient3181);fill-opacity:1;stroke:url(#linearGradient3183);stroke-width:2.70695186;stroke-linecap:round;stroke-linejoin:round;stroke-miterlimit:4;stroke-dasharray:none;stroke-opacity:1" />
    <path
       sodipodi:ry="8.4914007"
       transform="matrix(0.955493,0,0,0.955493,57.00214,39.28492)"
       sodipodi:rx="8.4914007"
       sodipodi:cx="22.958231"
       sodipodi:type="arc"
       sodipodi:cy="13.523341"
       id="path2849"
       d="M 31.449632 13.523341 A 8.4914007 8.4914007 0 1 1  14.46683,13.523341 A 8.4914007 8.4914007 0 1 1  31.449632 13.523341 z"
       style="fill:url(#linearGradient3185);fill-opacity:1;stroke:url(#linearGradient3187);stroke-width:2.70695186;stroke-linecap:round;stroke-linejoin:round;stroke-miterlimit:4;stroke-dasharray:none;stroke-opacity:1" />
    <path
       sodipodi:ry="8.4914007"
       transform="matrix(0.955493,0,0,0.955493,77.1299,38.97042)"
       sodipodi:rx="8.4914007"
       sodipodi:cx="22.958231"
       sodipodi:type="arc"
       sodipodi:cy="13.523341"
       id="path2855"
       d="M 31.449632 13.523341 A 8.4914007 8.4914007 0 1 1  14.46683,13.523341 A 8.4914007 8.4914007 0 1 1  31.449632 13.523341 z"
       style="fill:url(#linearGradient3189);fill-opacity:1;stroke:url(#linearGradient3191);stroke-width:2.70695186;stroke-linecap:round;stroke-linejoin:round;stroke-miterlimit:4;stroke-dasharray:none;stroke-opacity:1" />
    <path
       sodipodi:ry="8.4914007"
       transform="matrix(0.955493,0,0,0.955493,67.38052,59.41268)"
       sodipodi:rx="8.4914007"
       sodipodi:cx="22.958231"
       sodipodi:type="arc"
       sodipodi:cy="13.523341"
       id="path2861"
       d="M 31.449632 13.523341 A 8.4914007 8.4914007 0 1 1  14.46683,13.523341 A 8.4914007 8.4914007 0 1 1  31.449632 13.523341 z"
       style="fill:url(#linearGradient3193);fill-opacity:1;stroke:url(#linearGradient3195);stroke-width:2.70695186;stroke-linecap:round;stroke-linejoin:round;stroke-miterlimit:4;stroke-dasharray:none;stroke-opacity:1" />
    <path
       sodipodi:ry="8.4914007"
       transform="matrix(0.955493,0,0,0.955493,46.30927,59.41268)"
       sodipodi:rx="8.4914007"
       sodipodi:cx="22.958231"
       sodipodi:type="arc"
       sodipodi:cy="13.523341"
       id="path2867"
       d="M 31.449632 13.523341 A 8.4914007 8.4914007 0 1 1  14.46683,13.523341 A 8.4914007 8.4914007 0 1 1  31.449632 13.523341 z"
       style="fill:url(#linearGradient3197);fill-opacity:1;stroke:url(#linearGradient3199);stroke-width:2.70695186;stroke-linecap:round;stroke-linejoin:round;stroke-miterlimit:4;stroke-dasharray:none;stroke-opacity:1" />
    <path
       sodipodi:ry="8.4914007"
       transform="matrix(0.955493,0,0,0.955493,24.60902,59.41268)"
       sodipodi:rx="8.4914007"
       sodipodi:cx="22.958231"
       sodipodi:type="arc"
       sodipodi:cy="13.523341"
       id="path2873"
       d="M 31.449632 13.523341 A 8.4914007 8.4914007 0 1 1  14.46683,13.523341 A 8.4914007 8.4914007 0 1 1  31.449632 13.523341 z"
       style="fill:url(#linearGradient3201);fill-opacity:1;stroke:url(#linearGradient3203);stroke-width:2.70695186;stroke-linecap:round;stroke-linejoin:round;stroke-miterlimit:4;stroke-dasharray:none;stroke-opacity:1" />
  </g>
  <g
     id="layer1"
     inkscape:label="1. réteg"
     transform="translate(6.874851,0.983838)">
    <path
       id="text3905"
       d="M 14.672896,-7.9438771 L 9.3818802,-7.9438771 L 8.5469192,-5.5532521 L 5.1455522,-5.5532521 L 10.005903,-18.675323 L 14.040083,-18.675323 L 18.900435,-5.5532521 L 15.499067,-5.5532521 L 14.672896,-7.9438771 M 10.22563,-10.378448 L 13.820357,-10.378448 L 12.027388,-15.599151 L 10.22563,-10.378448 M 20.63188,-18.675323 L 26.248091,-18.675323 C 27.918004,-18.67531 29.198276,-18.30324 30.088911,-17.559112 C 30.985384,-16.820819 31.433625,-15.766133 31.433638,-14.395049 C 31.433625,-13.018089 30.985384,-11.957543 30.088911,-11.213409 C 29.198276,-10.475122 27.918004,-10.105982 26.248091,-10.105987 L 24.015669,-10.105987 L 24.015669,-5.5532521 L 20.63188,-5.5532521 L 20.63188,-18.675323 M 24.015669,-16.223174 L 24.015669,-12.558135 L 25.887739,-12.558135 C 26.543982,-12.558128 27.050817,-12.716331 27.408247,-13.032745 C 27.76566,-13.355002 27.944371,-13.809103 27.94438,-14.395049 C 27.944371,-14.980977 27.76566,-15.432149 27.408247,-15.748565 C 27.050817,-16.064961 26.543982,-16.223164 25.887739,-16.223174 L 24.015669,-16.223174"
       style="font-size:18px;font-style:normal;font-weight:bold;fill:black;fill-opacity:1;stroke:none;stroke-width:1px;stroke-linecap:butt;stroke-linejoin:miter;stroke-opacity:1;font-family:Bitstream Vera Sans" />
  </g>
</svg>
