<?xml version="1.0" encoding="UTF-8" standalone="no"?>
<svg
   xmlns:dc="http://purl.org/dc/elements/1.1/"
   xmlns:cc="http://creativecommons.org/ns#"
   xmlns:rdf="http://www.w3.org/1999/02/22-rdf-syntax-ns#"
   xmlns:svg="http://www.w3.org/2000/svg"
   xmlns="http://www.w3.org/2000/svg"
   xmlns:xlink="http://www.w3.org/1999/xlink"
   xmlns:sodipodi="http://sodipodi.sourceforge.net/DTD/sodipodi-0.dtd"
   xmlns:inkscape="http://www.inkscape.org/namespaces/inkscape"
   sodipodi:docname="package_games_platformgame.svg"
   inkscape:version="1.0 (4035a4f, 2020-05-01)"
   id="svg8"
   version="1.1"
   viewBox="0 0 67.468749 67.468749"
   height="255"
   width="255">
  <defs
     id="defs2">
    <pattern
       patternTransform="matrix(0.26304205,-0.03287309,0.03769517,0.3016271,-16.749045,231.96348)"
       id="pattern2606"
       xlink:href="#pattern2602"
       inkscape:collect="always" />
    <pattern
       patternTransform="matrix(0.26304205,-0.03287309,0.03769517,0.3016271,-15.239676,234.22753)"
       id="pattern2602"
       xlink:href="#pattern2598"
       inkscape:collect="always" />
    <pattern
       patternTransform="matrix(0.26304205,-0.03287309,0.03769517,0.3016271,-13.730308,236.26518)"
       id="pattern2598"
       xlink:href="#pattern2594"
       inkscape:collect="always" />
    <pattern
       patternTransform="matrix(0.26304205,-0.03287309,0.03769517,0.3016271,-12.371877,238.22736)"
       id="pattern2594"
       xlink:href="#pattern2590"
       inkscape:collect="always" />
    <pattern
       patternTransform="matrix(0.26304205,-0.03287309,0.03769517,0.3016271,-8.9757986,241.84984)"
       id="pattern2590"
       xlink:href="#pattern2584"
       inkscape:collect="always" />
    <pattern
       patternTransform="matrix(0.26254108,-0.03281049,0.03281049,0.26254108,-10.560635,244.64218)"
       id="pattern2588"
       xlink:href="#pattern2584"
       inkscape:collect="always" />
    <pattern
       patternTransform="matrix(0.26254108,-0.03281049,0.03281049,0.26254108,-8.3720514,242.98187)"
       id="pattern2584"
       xlink:href="#pattern1857"
       inkscape:collect="always" />
    <clipPath
       id="clipPath2059"
       clipPathUnits="userSpaceOnUse">
      <path
         stroke-miterlimit="4"
         stroke-width="0.048"
         stroke-linecap="butt"
         fill-opacity="1"
         stroke-linejoin="miter"
         stroke="none"
         fill-rule="evenodd"
         fill="#ffffff"
         stroke-opacity="1"
         stroke-dasharray="none"
         inkscape:connector-curvature="0"
         sodipodi:nodetypes="csscsscccccccs"
         id="path2061"
         d="m -10.099732,231.68531 c 3.5587363,2.50616 4.8319716,-0.58528 2.9651647,-3.064 -3.1818907,-4.22486 -6.4443207,-9.83985 -12.3548527,-15.91305 -2.594516,-2.66865 -11.860659,-7.80827 -11.860659,-7.80827 0,0 -0.115438,-2.18844 -0.09884,-3.064 0.01106,-0.582 -0.565687,-0.56369 -0.889553,-0.29652 -0.782426,0.64546 -2.47097,2.56981 -2.47097,2.56981 l -1.68026,-0.0988 -1.087226,-1.58142 c -0.296516,-0.41055 -0.636056,-0.34641 -0.88955,0 -0.545383,1.84962 -0.878698,3.8848 -3.459359,3.95355 l 4.447747,3.95356 c 7.76561,1.55335 15.578734,5.58545 20.261957,14.33163 0,0 4.526451,5.19364 7.116396,7.01755 z" />
    </clipPath>
    <clipPath
       clipPathUnits="userSpaceOnUse"
       id="clipPath2059-5">
      <path
         d="m -10.099732,231.68531 c 3.5587363,2.50616 4.8319716,-0.58528 2.9651647,-3.064 -3.1818907,-4.22486 -6.4443207,-9.83985 -12.3548527,-15.91305 -2.594516,-2.66865 -11.860659,-7.80827 -11.860659,-7.80827 0,0 -0.115438,-2.18844 -0.09884,-3.064 0.01106,-0.582 -0.565687,-0.56369 -0.889553,-0.29652 -0.782426,0.64546 -2.47097,2.56981 -2.47097,2.56981 l -1.68026,-0.0988 -1.087226,-1.58142 c -0.296516,-0.41055 -0.636056,-0.34641 -0.88955,0 -0.545383,1.84962 -0.878698,3.8848 -3.459359,3.95355 l 4.447747,3.95356 c 7.76561,1.55335 15.578734,5.58545 20.261957,14.33163 0,0 4.526451,5.19364 7.116396,7.01755 z"
         id="path2061-3"
         sodipodi:nodetypes="csscsscccccccs"
         inkscape:connector-curvature="0"
         stroke-dasharray="none"
         stroke-opacity="1"
         fill="#ffffff"
         fill-rule="evenodd"
         stroke="none"
         stroke-linejoin="miter"
         fill-opacity="1"
         stroke-linecap="butt"
         stroke-width="0.048"
         stroke-miterlimit="4" />
    </clipPath>
    <clipPath
       id="clipPath">
      <path
         d="m -515.73002,435.56445 v 5.83767 c 0,9.74315 -7.84377,17.58692 -17.58692,17.58692 h -135.05122 c -9.74315,0 -17.58692,-7.84377 -17.58692,-17.58692 v -5.83767 z"
         id="rect5264"
         inkscape:connector-curvature="0"
         sodipodi:nodetypes="csssscc"
         fill="#1b1b1b"
         stroke="none"
         fill-opacity="0.95" />
    </clipPath>
    <clipPath
       id="clipPath2059-7"
       clipPathUnits="userSpaceOnUse">
      <path
         stroke-miterlimit="4"
         stroke-width="0.048"
         stroke-linecap="butt"
         fill-opacity="1"
         stroke-linejoin="miter"
         stroke="none"
         fill-rule="evenodd"
         fill="#ffffff"
         stroke-opacity="1"
         stroke-dasharray="none"
         inkscape:connector-curvature="0"
         sodipodi:nodetypes="csscsscccccccs"
         id="path2061-5"
         d="m -10.099732,231.68531 c 3.5587363,2.50616 4.8319716,-0.58528 2.9651647,-3.064 -3.1818907,-4.22486 -6.4443207,-9.83985 -12.3548527,-15.91305 -2.594516,-2.66865 -11.860659,-7.80827 -11.860659,-7.80827 0,0 -0.115438,-2.18844 -0.09884,-3.064 0.01106,-0.582 -0.565687,-0.56369 -0.889553,-0.29652 -0.782426,0.64546 -2.47097,2.56981 -2.47097,2.56981 l -1.68026,-0.0988 -1.087226,-1.58142 c -0.296516,-0.41055 -0.636056,-0.34641 -0.88955,0 -0.545383,1.84962 -0.878698,3.8848 -3.459359,3.95355 l 4.447747,3.95356 c 7.76561,1.55335 15.578734,5.58545 20.261957,14.33163 0,0 4.526451,5.19364 7.116396,7.01755 z" />
    </clipPath>
    <clipPath
       id="clipPath1162"
       clipPathUnits="userSpaceOnUse">
      <path
         id="path1164"
         d="m -65.649736,239.84563 c -9.358079,0 -16.951888,7.59381 -16.951888,16.95188 0,9.35808 7.593811,16.94076 16.951888,16.94077 0.292439,0 0.578792,-0.008 0.867614,-0.0222 2.122786,-0.10753 4.148336,-0.60587 5.995453,-1.42378 l 2.669587,3.97101 c -0.225515,0.4951 -0.245107,0.96445 -0.01111,1.31255 l 15.67271,23.32553 c 0.495366,0.73695 1.94415,0.6317 3.247998,-0.24471 1.303846,-0.87642 1.96364,-2.17735 1.468276,-2.9143 L -51.42304,274.4168 c -0.233058,-0.34672 -0.682887,-0.49868 -1.22356,-0.47831 l -2.558357,-3.80416 c 3.95991,-3.10036 6.507123,-7.91951 6.507123,-13.33682 0,-9.35807 -7.593809,-16.95188 -16.951889,-16.95188 z m 0,2.5806 c 7.92884,0 14.371283,6.44244 14.371283,14.37128 0,7.92885 -6.442435,14.36016 -14.371283,14.36016 -7.928851,0 -14.349039,-6.43131 -14.349039,-14.36016 0,-0.24777 -0.0013,-0.48941 0.01111,-0.73413 0.384376,-7.58638 6.656848,-13.63715 14.337916,-13.63715 z"
         inkscape:connector-curvature="0"
         stroke-dasharray="none"
         stroke-opacity="1"
         fill="#000000"
         stroke="none"
         stroke-linejoin="round"
         fill-opacity="0.347"
         stroke-linecap="round"
         stroke-width="0.071"
         stroke-miterlimit="4" />
    </clipPath>
    <linearGradient
       inkscape:collect="always"
       id="linearGradient5030">
      <stop
         style="stop-color:#8b641d;stop-opacity:1"
         id="stop5032"
         stop-color="#f2c574"
         stop-opacity="1" />
      <stop
         style="stop-color:#634103;stop-opacity:1"
         offset="1"
         id="stop5034"
         stop-color="#96660f"
         stop-opacity="1" />
    </linearGradient>
    <linearGradient
       inkscape:collect="always"
       id="linearGradient3704">
      <stop
         id="stop3706"
         stop-color="#9d8166"
         stop-opacity="0.304" />
      <stop
         offset="1"
         id="stop3708"
         stop-color="#634224"
         stop-opacity="0.676" />
    </linearGradient>
    <linearGradient
       inkscape:collect="always"
       id="linearGradient3694">
      <stop
         id="stop3696"
         stop-color="#f2f2f2"
         stop-opacity="1" />
      <stop
         offset="1"
         id="stop3698"
         stop-color="#f2f2f2"
         stop-opacity="0" />
    </linearGradient>
    <linearGradient
       inkscape:collect="always"
       id="linearGradient3682">
      <stop
         id="stop3684"
         stop-color="#ffebcc"
         stop-opacity="1" />
      <stop
         offset="1"
         id="stop3686"
         stop-color="#8c7448"
         stop-opacity="1" />
    </linearGradient>
    <linearGradient
       id="linearGradient3656">
      <stop
         style="stop-color:#6a490d;stop-opacity:1"
         id="stop3658"
         stop-color="#e7c078"
         stop-opacity="1" />
      <stop
         style="stop-color:#e6a55d;stop-opacity:1"
         id="stop3664"
         offset="0.626"
         stop-color="#ffffff"
         stop-opacity="1" />
      <stop
         style="stop-color:#836429;stop-opacity:1"
         offset="1"
         id="stop3660"
         stop-color="#f1c169"
         stop-opacity="1" />
    </linearGradient>
    <linearGradient
       id="linearGradient3578">
      <stop
         id="stop3580"
         stop-color="#000000"
         stop-opacity="1" />
      <stop
         id="stop3582"
         offset="1"
         stop-color="#fffcfc"
         stop-opacity="1" />
    </linearGradient>
    <linearGradient
       inkscape:collect="always"
       xlink:href="#linearGradient3656"
       id="linearGradient5284"
       gradientUnits="userSpaceOnUse"
       spreadMethod="reflect"
       x1="432.1"
       y1="535.83"
       x2="422.02"
       y2="482.13"
       gradientTransform="matrix(0.09847815,0,0,0.0701158,0.06479493,241.48137)" />
    <linearGradient
       inkscape:collect="always"
       xlink:href="#linearGradient5030"
       id="linearGradient5293"
       gradientUnits="userSpaceOnUse"
       x1="-193.55"
       y1="359.03"
       x2="-194.37"
       y2="352.83"
       gradientTransform="matrix(0.09847815,0,0,0.09847815,43.920022,222.54151)" />
    <path
       id="SVGCleanerId_0"
       d="m -23.905725,218.35017 c -2.22152,0.2399 -2.73981,1.61528 -3.7037,2.6936 -6.55852,6.84624 -8.98556,13.69248 -12.12121,20.53872 l 19.19191,16.32997 50.3367,-10.10101 c -1.66043,-10.01942 -2.494499,-20.15469 -7.239049,-29.29293 -3.175292,-1.64401 -6.462052,-2.82694 -10.774411,-4.54546 l -5.7239095,0.3367 -29.9663305,4.04041 z" />
    <path
       id="SVGCleanerId_1"
       d="m -13.636363,226.26263 -2.3569,25.42087 1.851849,0.84175 3.367001,-24.41077 13.8047204,-4.54546 -0.1683502,-1.17845 -13.1313152,1.85186 c -2.211937,0.6734 -2.930904,1.3468 -3.367005,2.0202 z" />
    <path
       id="SVGCleanerId_2"
       d="m -9.5706142,223.85112 31.2741402,-4.6332 c 2.17754,-0.68315 0.91259,-1.3663 0.06955,-2.04945 l -10.10816,-2.96986 c -1.14879,-0.87586 -4.0480502,-0.43887 -6.9498102,0 l -28.9575298,4.24711 c -2.65978,0.48416 -2.34794,1.39284 -1.9305,2.3166 l 11.34511,3.28641 c 1.7524,0.17941 3.5048,0.48527 5.2571998,-0.19761 z" />
    <path
       id="SVGCleanerId_3"
       d="m -12.962963,224.91582 -7.407407,32.82829 49.831649,-10.10101 c -0.349808,-9.72471 -3.429857,-18.99439 -6.397306,-28.28283 l -36.026936,5.55555 z" />
    <radialGradient
       r="25.18"
       fy="223.06"
       fx="-169.11"
       cy="223.06"
       cx="-169.11"
       gradientTransform="matrix(-1.2339967,0.1738263,-0.03207843,-0.2277255,-194.87544,297.82877)"
       gradientUnits="userSpaceOnUse"
       id="radialGradient6424"
       xlink:href="#linearGradient3682"
       inkscape:collect="always" />
    <radialGradient
       r="9.512"
       fy="232.41"
       fx="-12.374"
       cy="232.41"
       cx="-12.374"
       gradientTransform="matrix(-0.04424768,2.4247802,-1.592655,-0.02906296,357.22208,266.21927)"
       gradientUnits="userSpaceOnUse"
       id="radialGradient6426"
       xlink:href="#linearGradient3694"
       inkscape:collect="always" />
    <linearGradient
       y2="233"
       x2="28.11"
       y1="242.42"
       x1="-19.02"
       gradientUnits="userSpaceOnUse"
       id="linearGradient6428"
       xlink:href="#linearGradient3704"
       inkscape:collect="always" />
    <pattern
       id="pattern1857"
       patternTransform="matrix(0.26458333,0,0,0.26458333,-8.9757986,241.84984)"
       height="13.545539"
       width="18.569595"
       patternUnits="userSpaceOnUse">
      <g
         id="g4918"
         transform="matrix(0.2682759,0.02203155,-0.01336592,0.32102404,13.887744,-68.798062)">
        <use
           xlink:href="#SVGCleanerId_0"
           stroke-miterlimit="4"
           inkscape:connector-curvature="0"
           sodipodi:nodetypes="ccccccccc"
           id="path4920"
           style="fill:#8a6d53;fill-opacity:1;fill-rule:evenodd;stroke:#000000;stroke-width:0;stroke-linecap:butt;stroke-linejoin:miter;stroke-miterlimit:4;stroke-dasharray:none;stroke-opacity:1"
           x="0"
           y="0"
           width="100%"
           height="100%" />
        <use
           xlink:href="#SVGCleanerId_2"
           inkscape:connector-curvature="0"
           sodipodi:nodetypes="ccccccccc"
           id="path4922"
           style="fill:url(#radialGradient6424);fill-opacity:1;fill-rule:evenodd;stroke:none"
           x="0"
           y="0"
           width="100%"
           height="100%" />
        <use
           xlink:href="#SVGCleanerId_1"
           stroke-miterlimit="4"
           inkscape:connector-curvature="0"
           sodipodi:nodetypes="cccccccc"
           id="path4924"
           style="fill:url(#radialGradient6426);fill-opacity:1;fill-rule:evenodd;stroke:#000000;stroke-width:0;stroke-linecap:butt;stroke-linejoin:miter;stroke-miterlimit:4;stroke-dasharray:none;stroke-opacity:1"
           x="0"
           y="0"
           width="100%"
           height="100%" />
        <use
           xlink:href="#SVGCleanerId_3"
           inkscape:connector-curvature="0"
           sodipodi:nodetypes="ccccc"
           id="path4926"
           style="fill:url(#linearGradient6428);fill-opacity:1;fill-rule:evenodd;stroke:none"
           x="0"
           y="0"
           width="100%"
           height="100%" />
      </g>
    </pattern>
    <filter
       height="1.0392564"
       y="-0.0196282"
       width="1.0172832"
       x="-0.0086415815"
       id="filter926"
       style="color-interpolation-filters:sRGB"
       inkscape:collect="always">
      <feGaussianBlur
         id="feGaussianBlur928"
         stdDeviation="0.22753168"
         inkscape:collect="always" />
    </filter>
  </defs>
  <sodipodi:namedview
     inkscape:document-rotation="0"
     showguides="false"
     units="px"
     inkscape:window-maximized="1"
     inkscape:window-y="0"
     inkscape:window-x="0"
     inkscape:window-height="1056"
     inkscape:window-width="1920"
     inkscape:snap-global="false"
     inkscape:snap-nodes="false"
     inkscape:object-nodes="false"
     inkscape:snap-others="false"
     inkscape:snap-grids="false"
     inkscape:snap-to-guides="false"
     showgrid="false"
     inkscape:current-layer="layer1"
     inkscape:document-units="px"
     inkscape:cy="127.5"
     inkscape:cx="127.5"
     inkscape:zoom="3.5058824"
     inkscape:pageshadow="2"
     inkscape:pageopacity="0"
     borderopacity="1.0"
     bordercolor="#666666"
     pagecolor="#ff0000"
     id="base" />
  <metadata
     id="metadata5">
    <rdf:RDF>
      <cc:Work>
        <dc:format>image/svg+xml</dc:format>
        <dc:type
           rdf:resource="http://purl.org/dc/dcmitype/StillImage" />
        <dc:title />
      </cc:Work>
    </rdf:RDF>
  </metadata>
  <g
     transform="translate(0,-229.53126)"
     id="layer1"
     inkscape:groupmode="layer"
     inkscape:label="Layer 1">
    <g
       style="filter:url(#filter926)"
       transform="translate(66.336723,-2.7168623)"
       id="g920">
      <path
         style="fill:#000000;fill-opacity:0.21296297;fill-rule:evenodd;stroke:none;stroke-width:0.26458332px;stroke-linecap:butt;stroke-linejoin:miter;stroke-opacity:1"
         d="m -64.023962,266.10531 14.016493,19.96763 c 0.374181,0.98595 1.453936,0.79595 2.427437,0.78304 L -0.83228578,280.0435 -17.197913,259.05791 Z"
         id="path4610"
         inkscape:connector-curvature="0"
         sodipodi:nodetypes="cccccc" />
      <path
         style="fill:#000000;fill-opacity:0.21296297;fill-rule:evenodd;stroke:none;stroke-width:0.26458332px;stroke-linecap:butt;stroke-linejoin:miter;stroke-opacity:1"
         d="m -63.560547,266.30273 c 4.75512,6.70226 9.408453,13.54439 14.222656,20.16407 2.741266,0.43226 5.525818,-0.64582 8.273992,-0.82865 13.247862,-1.93017 26.495724,-3.86033 39.7435865,-5.79049 -5.3300781,-6.83464 -10.6601565,-13.66927 -15.9902345,-20.50391 -15.416667,2.31966 -30.833333,4.63932 -46.25,6.95898 z"
         id="path899"
         inkscape:connector-curvature="0" />
      <path
         style="fill:#000000;fill-opacity:0.21296297;fill-rule:evenodd;stroke:none;stroke-width:0.26458332px;stroke-linecap:butt;stroke-linejoin:miter;stroke-opacity:1"
         d="m -63.097656,266.5 c 4.647096,6.56516 9.184774,13.20785 13.908203,19.71875 3.524721,0.29859 6.958342,-0.94071 10.459886,-1.18707 12.306991,-1.79311 24.613982,-3.58622 36.9209732,-5.37934 -5.2050781,-6.67448 -10.4101562,-13.34895 -15.6152342,-20.02343 -15.224609,2.29036 -30.449219,4.58073 -45.673828,6.87109 z"
         id="path903"
         inkscape:connector-curvature="0" />
      <path
         style="fill:#000000;fill-opacity:0.21296297;fill-rule:evenodd;stroke:none;stroke-width:0.26458332px;stroke-linecap:butt;stroke-linejoin:miter;stroke-opacity:1"
         d="m -62.634766,266.69727 c 4.532488,6.41918 8.981797,12.89731 13.585938,19.26562 4.182231,0.1576 8.239853,-1.16533 12.389483,-1.50042 11.454157,-1.66848 22.908313,-3.33696 34.36247,-5.00544 -5.0800781,-6.51432 -10.160156,-13.02864 -15.240234,-19.54297 -15.032552,2.26107 -30.065105,4.52214 -45.097657,6.78321 z"
         id="path907"
         inkscape:connector-curvature="0" />
      <path
         style="fill:#000000;fill-opacity:0.21296297;fill-rule:evenodd;stroke:none;stroke-width:0.26458332px;stroke-linecap:butt;stroke-linejoin:miter;stroke-opacity:1"
         d="m -62.171875,266.89453 c 4.420863,6.27108 8.772706,12.58887 13.261719,18.80664 4.919985,0.004 9.68526,-1.41069 14.580997,-1.84515 10.514668,-1.53144 21.029335,-3.06287 31.5440028,-4.5943 -4.9550782,-6.35417 -9.9101568,-12.70833 -14.8652348,-19.0625 -14.840494,2.23177 -29.680989,4.46354 -44.521484,6.69531 z"
         id="path911"
         inkscape:connector-curvature="0" />
    </g>
    <path
       sodipodi:nodetypes="scccs"
       inkscape:connector-curvature="0"
       d="m 50.633591,253.98483 c 0.277887,-0.0375 0.615384,0.15521 0.880872,0.50522 l -47.4227326,6.40149 c -0.2654893,-0.35002 -0.6029278,-0.54231 -0.8808715,-0.50522 z"
       id="path2837"
       style="fill:url(#linearGradient5293);fill-opacity:1;fill-rule:evenodd;stroke:none;stroke-width:0.26458332" />
    <path
       sodipodi:nodetypes="ccccc"
       inkscape:connector-curvature="0"
       d="M 51.534051,254.51317 65.316557,272.13978 16.510019,278.65197 3.8345577,260.8593 Z"
       id="path2839"
       style="fill:#876424;fill-opacity:1;fill-rule:evenodd;stroke:none;stroke-width:0.264583" />
    <path
       sodipodi:nodetypes="ccccc"
       inkscape:connector-curvature="0"
       id="path3676"
       d="M 50.401462,257.16921 60.726279,270.37374 17.975682,275.9314 7.6508656,262.72687 Z"
       style="fill:#66480e;fill-opacity:1;fill-rule:evenodd;stroke:none;stroke-width:0.26458332" />
    <path
       sodipodi:nodetypes="ccccc"
       inkscape:connector-curvature="0"
       id="path2604"
       d="m 10.498129,265.87151 41.587759,-5.20482 -2.228069,-3.34211 -42.2376142,4.83348 z"
       style="fill:url(#pattern2606);fill-opacity:1;stroke:none;stroke-width:0.26458332px;stroke-linecap:butt;stroke-linejoin:miter;stroke-opacity:1" />
    <path
       d="m 4.3135703,260.8903 12.2326427,17.73731 c 0.376024,0.48537 1.08852,0.9083 1.078078,1.5222 -0.04136,1.28407 0.581501,2.94255 -0.450516,2.13025 L 3.5973908,263.09881 C 3.2544316,262.7423 3.0660204,262.5348 3.1285944,261.97371 3.0408072,261.2228 2.724917,259.58339 4.3135703,260.8903 Z"
       id="path2451"
       sodipodi:nodetypes="ccccccc"
       inkscape:connector-curvature="0"
       style="fill:#5a451e;fill-opacity:1;fill-rule:evenodd;stroke:none;stroke-width:0.26458332" />
    <path
       sodipodi:nodetypes="ccccccc"
       inkscape:connector-curvature="0"
       d="m 64.909833,271.78491 -48.531477,6.57369 c 0.509076,0.4723 1.327762,1.72927 1.206361,2.31151 l 0.196741,1.78489 47.476712,-6.85046 c 0.89498,-0.17736 1.008986,-0.58318 0.96873,-1.51031 0.176752,-0.80365 -0.641935,-1.61562 -1.317067,-2.30932 z"
       id="path2843"
       style="fill:url(#linearGradient5284);fill-opacity:1;fill-rule:evenodd;stroke:none;stroke-width:0.26458332" />
    <path
       inkscape:connector-curvature="0"
       id="path5296"
       d="m 3.6511658,260.39879 12.7863492,18.0448"
       style="fill:none;stroke:#512c0d;stroke-width:0.26458332;stroke-linecap:round;stroke-linejoin:round;stroke-opacity:1" />
    <path
       style="fill:url(#pattern2602);fill-opacity:1;stroke:none;stroke-width:0.26458332px;stroke-linecap:butt;stroke-linejoin:miter;stroke-opacity:1"
       d="m 12.007497,268.13556 41.58776,-5.65763 -2.228069,-3.34211 -42.237615,5.28629 z"
       id="path2600"
       inkscape:connector-curvature="0"
       sodipodi:nodetypes="ccccc" />
    <path
       sodipodi:nodetypes="ccccc"
       inkscape:connector-curvature="0"
       id="path2596"
       d="m 13.516865,270.17321 41.889634,-5.43123 -2.228069,-3.34211 -42.539489,5.05989 z"
       style="fill:url(#pattern2598);fill-opacity:1;stroke:none;stroke-width:0.26458332px;stroke-linecap:butt;stroke-linejoin:miter;stroke-opacity:1" />
    <path
       style="fill:url(#pattern2594);fill-opacity:1;stroke:none;stroke-width:0.26458332px;stroke-linecap:butt;stroke-linejoin:miter;stroke-opacity:1"
       d="m 14.875296,272.13539 42.568849,-5.5067 -2.228069,-3.34211 -43.218704,5.13536 z"
       id="path2592"
       inkscape:connector-curvature="0"
       sodipodi:nodetypes="ccccc" />
    <path
       style="fill:url(#pattern2588);fill-opacity:1;stroke:none;stroke-width:0.26458332px;stroke-linecap:butt;stroke-linejoin:miter;stroke-opacity:1"
       d="m 16.61107,274.32398 41.361355,-6.18591 -2.228069,-3.34211 -42.01121,5.81457 z"
       id="path2586"
       inkscape:connector-curvature="0"
       sodipodi:nodetypes="ccccc" />
    <path
       sodipodi:nodetypes="ccccc"
       inkscape:connector-curvature="0"
       id="path2582"
       d="M 18.271374,275.75787 60.161007,270.40211 57.932938,267.06 15.39345,272.04442 Z"
       style="fill:url(#pattern2590);fill-opacity:1;stroke:none;stroke-width:0.26458332px;stroke-linecap:butt;stroke-linejoin:miter;stroke-opacity:1" />
  </g>
</svg>
