<?xml version="1.0" encoding="UTF-8" standalone="no"?>
<svg xmlns:dc="http://purl.org/dc/elements/1.1/" xmlns:cc="http://creativecommons.org/ns#" xmlns:rdf="http://www.w3.org/1999/02/22-rdf-syntax-ns#" xmlns:svg="http://www.w3.org/2000/svg" xmlns="http://www.w3.org/2000/svg" xmlns:xlink="http://www.w3.org/1999/xlink" xmlns:sodipodi="http://sodipodi.sourceforge.net/DTD/sodipodi-0.dtd" xmlns:inkscape="http://www.inkscape.org/namespaces/inkscape" inkscape:output_extension="org.inkscape.output.svg.inkscape" sodipodi:docname="package_yast_hardware.svg" version="1.0" height="256" width="256" inkscape:version="1.0 (4035a4f, 2020-05-01)" sodipodi:version="0.32" id="svg2">
 <metadata id="metadata7">
  <rdf:RDF>
   <cc:Work>
    <dc:format>image/svg+xml</dc:format>
    <dc:type rdf:resource="http://purl.org/dc/dcmitype/StillImage"/>
   </cc:Work>
  </rdf:RDF>
 </metadata>
 <defs id="defs5">
  <linearGradient id="linearGradient4337" inkscape:collect="always">
   <stop id="stop4339" stop-color="#317d2c" stop-opacity="1"/>
   <stop id="stop4341" offset="1" stop-color="#bad6b8" stop-opacity="1"/>
  </linearGradient>
  <linearGradient id="linearGradient2915" inkscape:collect="always">
   <stop id="stop2917" stop-color="#027ee8" stop-opacity="1"/>
   <stop id="stop2919" offset="1" stop-color="#b0c8dd" stop-opacity="1"/>
  </linearGradient>
  <linearGradient id="linearGradient2899">
   <stop id="stop2901" stop-color="#000000" stop-opacity="1"/>
   <stop id="stop2903" offset="1" stop-color="#ffffff" stop-opacity="1"/>
  </linearGradient>
  <linearGradient id="linearGradient2891" inkscape:collect="always">
   <stop id="stop2893" stop-color="#868a8e" stop-opacity="1"/>
   <stop id="stop2895" offset="1" stop-color="#eaebec" stop-opacity="1"/>
  </linearGradient>
  <linearGradient id="linearGradient2856" inkscape:collect="always">
   <stop id="stop2858" stop-color="#9ca3a9" stop-opacity="1"/>
   <stop id="stop2860" offset="1" stop-color="#eaebec" stop-opacity="1"/>
  </linearGradient>
  <linearGradient id="linearGradient2932">
   <stop id="stop2934" stop-color="#c3e1c9" stop-opacity="0.382"/>
   <stop id="stop2936" offset="1" stop-color="#ffffff" stop-opacity="1"/>
  </linearGradient>
  <linearGradient id="linearGradient2762">
   <stop id="stop2764" stop-color="#006c28" stop-opacity="1"/>
   <stop id="stop2766" offset="1" stop-color="#73f36c" stop-opacity="1"/>
  </linearGradient>
  <linearGradient gradientTransform="matrix(0.965736,0,0,1.000129,-259.95889,18.497881)" gradientUnits="userSpaceOnUse" y2="44.764" x2="274.41" y1="173.97" x1="328.57" id="linearGradient2768" xlink:href="#linearGradient2762" inkscape:collect="always"/>
  <linearGradient gradientTransform="matrix(0.965736,0,0,1.000129,-259.49159,18.013886)" y2="44.764" x2="274.41" y1="173.97" x1="328.57" gradientUnits="userSpaceOnUse" id="linearGradient2782" xlink:href="#linearGradient2932" inkscape:collect="always"/>
  <linearGradient gradientTransform="matrix(0.965736,0,0,1.000129,-259.95889,18.497881)" gradientUnits="userSpaceOnUse" y2="56.14" x2="278.93" y1="92.43" x1="284.31" id="linearGradient2862" xlink:href="#linearGradient2856" inkscape:collect="always"/>
  <linearGradient gradientTransform="matrix(0.965736,0,0,1.000129,-259.95889,18.497881)" gradientUnits="userSpaceOnUse" y2="69.69" x2="390.37" y1="143.73" x1="438.13" id="linearGradient2881" xlink:href="#linearGradient2899" inkscape:collect="always"/>
  <linearGradient gradientTransform="matrix(0.965736,0,0,1.000129,-259.95889,18.497881)" gradientUnits="userSpaceOnUse" y2="57.59" x2="303.24" y1="101.14" x1="305.85" id="linearGradient2897" xlink:href="#linearGradient2891" inkscape:collect="always"/>
  <linearGradient spreadMethod="reflect" gradientTransform="matrix(0.965736,0,0,1.000129,-259.95889,18.497881)" gradientUnits="userSpaceOnUse" y2="112.51" x2="306.33" y1="133.32" x1="306.33" id="linearGradient2905" xlink:href="#linearGradient2899" inkscape:collect="always"/>
  <linearGradient spreadMethod="reflect" gradientTransform="matrix(0.965736,0,0,1.000129,-259.95889,18.497881)" gradientUnits="userSpaceOnUse" y2="143.73" x2="304.39" y1="164.54" x1="304.39" id="linearGradient2913" xlink:href="#linearGradient2899" inkscape:collect="always"/>
  <linearGradient gradientTransform="matrix(0.965736,0,0,1.000129,-259.95889,18.497881)" gradientUnits="userSpaceOnUse" y2="130.18" x2="282.62" y1="165.99" x1="282.62" id="linearGradient2921" xlink:href="#linearGradient2915" inkscape:collect="always"/>
  <linearGradient gradientTransform="translate(-0.28828829,23.351351)" gradientUnits="userSpaceOnUse" y2="46.44" x2="159.01" y1="164.42" x1="158.62" id="linearGradient4343" xlink:href="#linearGradient4337" inkscape:collect="always"/>
  <filter height="1.038" y="-0.019" width="1.024" x="-0.012" id="filter1185" inkscape:collect="always" color-interpolation-filters="sRGB">
   <feGaussianBlur id="feGaussianBlur1187" stdDeviation="1.20339" inkscape:collect="always"/>
  </filter>
 </defs>
 <sodipodi:namedview inkscape:document-rotation="0" inkscape:window-maximized="1" showgrid="false" inkscape:current-layer="svg2" inkscape:window-y="0" inkscape:window-x="0" inkscape:cy="128" inkscape:cx="128" inkscape:zoom="3.46875" inkscape:guide-bbox="true" showguides="true" id="base" pagecolor="#ffffff" bordercolor="#666666" borderopacity="1.0" objecttolerance="10.0" gridtolerance="10.0" guidetolerance="10.0" inkscape:pageopacity="0.0" inkscape:pageshadow="2" inkscape:window-width="1920" inkscape:window-height="1056"/>
 <path d="m 28.575076,57.371481 -17.29101,0.46875 0.33203,2.78125 13.2168,0.609375 0.45312,149.066404 3.61914,0.4668 0.12305,-3.37305 z M 9.7899264,77.199606 c -0.2106,0 -0.37891,0.434909 -0.37891,0.974609 v 2.408203 c 0,0.5397 0.16831,0.97461 0.37891,0.97461 H 23.051646 c 0.2106,0 0.3789,-0.43491 0.3789,-0.97461 v -2.408203 c 0,-0.5397 -0.1683,-0.974609 -0.3789,-0.974609 z m 23.9218696,0 c -2.07129,0 -3.73828,1.603118 -3.73828,3.59375 V 189.28163 c 0,1.99064 1.66699,3.59376 3.73828,3.59376 H 250.09657 c 2.07129,0 3.73828,-1.60311 3.73828,-3.59376 V 80.793356 c 0,-1.990632 -1.66699,-3.59375 -3.73828,-3.59375 z M 13.887576,87.25234 c -0.2106,0 -0.3789,0.434911 -0.3789,0.97461 v 21.50781 c 0,0.5397 0.1683,0.97266 0.3789,0.97266 h 9.27149 c 0.21059,0 0.38086,-0.43296 0.38086,-0.97266 V 88.22695 c 0,-0.5397 -0.17027,-0.97461 -0.38086,-0.97461 z m -3.6289,65.93555 c -0.2106,0 -0.3808596,0.4349 -0.3808596,0.9746 v 2.40625 c 0,0.5397 0.1702596,0.97461 0.3808596,0.97461 h 13.25976 c 0.2106,0 0.37891,-0.43491 0.37891,-0.97461 v -2.40625 c 0,-0.5397 -0.16831,-0.9746 -0.37891,-0.9746 z m 0.23828,7.6875 c -0.37283,-1e-5 -0.6738296,0.62673 -0.6738296,1.40624 v 21.49805 c 0,0.77952 0.3009996,1.40821 0.6738296,1.40821 h 12.7832 c 0.37283,-1e-5 0.67188,-0.62869 0.67188,-1.40821 v -21.49805 c 0,-0.77951 -0.29905,-1.40624 -0.67188,-1.40624 z m -0.7070296,27.16015 c -0.2106,0 -0.37891,0.43296 -0.37891,0.97266 v 2.4082 c 0,0.5397 0.16831,0.97461 0.37891,0.97461 H 23.051646 c 0.2106,0 0.3789,-0.43491 0.3789,-0.97461 v -2.4082 c 0,-0.5397 -0.1683,-0.97266 -0.3789,-0.97266 z" id="path1119" stroke-dasharray="none" stroke-opacity="1" fill="#000000" filter="url(#filter1185)" fill-rule="evenodd" stroke="none" stroke-linejoin="round" fill-opacity="0.67" stroke-linecap="round" stroke-width="1.474" stroke-miterlimit="4"/>
 <path id="rect1873" d="M 29.798357,71.737239 H 246.18162 c 2.07129,0 3.73879,1.602567 3.73879,3.593199 V 183.81864 c 0,1.99064 -1.6675,3.59321 -3.73879,3.59321 H 29.798357 c -2.07129,0 -3.738798,-1.60257 -3.738798,-3.59321 V 75.330438 c 0,-1.990632 1.667508,-3.593199 3.738798,-3.593199 z" stroke-dasharray="none" stroke-opacity="1" fill="url(#linearGradient2768)" fill-rule="evenodd" stroke="#12a107" stroke-linejoin="round" fill-opacity="1" stroke-linecap="round" stroke-width="1.474" stroke-miterlimit="4"/>
 <path sodipodi:nodetypes="ccccccccc" id="path2770" d="m 31.870054,73.529192 c -3.887222,0.321281 -3.822556,-0.836792 -3.888777,2.171314 0.166155,33.336324 -0.597307,71.002534 -0.02699,104.186784 -0.281029,4.82188 0.753708,6.17837 4.880008,6.09425 68.193965,-0.14716 144.613015,-0.14961 212.752295,-0.66184 3.33059,-0.0634 2.35591,-1.28409 2.5104,-5.2259 -0.16707,-32.68022 0.65714,-70.15682 0.0856,-102.735076 0.0659,-2.584143 0.88764,-4.045275 -3.60686,-4.086577 -68.28485,0.02085 -144.42441,0.184096 -212.705674,0.257045 z" stroke-dasharray="none" stroke-opacity="1" fill="none" fill-rule="evenodd" stroke="url(#linearGradient4343)" stroke-linejoin="round" fill-opacity="1" stroke-linecap="round" stroke-width="1.867" stroke-miterlimit="4"/>
 <path sodipodi:nodetypes="ccccccc" d="M 30.265706,71.253245 H 246.64896 c 2.0713,0 3.7388,1.602567 3.7388,3.593199 C 172.43031,100.77176 82.994227,98.059225 30.265706,186.92785 c -2.071291,0 -3.738798,-1.60256 -3.738798,-3.5932 V 74.846444 c 0,-1.990632 1.667507,-3.593199 3.738798,-3.593199 z" id="path2774" opacity="0.316" stroke-dasharray="none" stroke-opacity="1" fill="url(#linearGradient2782)" fill-rule="evenodd" stroke="#12a107" stroke-linejoin="round" fill-opacity="1" stroke-linecap="round" stroke-width="0" stroke-miterlimit="4"/>
 <rect ry="3.593" rx="3.739" y="82.39" x="55.04" height="27.588" width="23.835" id="rect2784" stroke-dasharray="none" stroke-opacity="1" fill="#172e1f" fill-rule="evenodd" stroke="#b4ceb4" stroke-linejoin="round" fill-opacity="1" stroke-linecap="round" stroke-width="1.572" stroke-miterlimit="4"/>
 <rect ry="3.593" rx="3.739" y="81.42" x="210.2" height="27.588" width="23.835" id="rect2788" stroke-dasharray="none" stroke-opacity="1" fill="#172e1f" fill-rule="evenodd" stroke="#b4ceb4" stroke-linejoin="round" fill-opacity="1" stroke-linecap="round" stroke-width="1.572" stroke-miterlimit="4"/>
 <rect ry="3.593" rx="3.739" y="92.55" x="121.87" height="64.855" width="56.08" id="rect2790" stroke-dasharray="none" stroke-opacity="1" fill="url(#linearGradient2881)" fill-rule="evenodd" stroke="#060606" stroke-linejoin="round" fill-opacity="1" stroke-linecap="round" stroke-width="1.972" stroke-miterlimit="4"/>
 <rect id="rect2792" width="61.45" height="14.272" x="43.47" y="159.95" rx="2.629" ry="1.859" stroke-dasharray="none" stroke-opacity="1" fill="#172e1f" fill-rule="evenodd" stroke="#b4ceb4" stroke-linejoin="round" fill-opacity="1" stroke-linecap="round" stroke-width="1.816" stroke-miterlimit="4"/>
 <g transform="matrix(0.647009,0,0,1.011354,-141.03959,18.529484)" id="g2818">
  <rect id="rect2794" width="11.13" height="2.42" x="392.47" y="83.72" opacity="1" stroke-dasharray="none" stroke-opacity="1" fill="#d7d24c" fill-rule="evenodd" stroke="#ccceb4" stroke-linejoin="round" fill-opacity="1" stroke-linecap="round" stroke-width="0.6" stroke-miterlimit="4"/>
  <rect y="91.74" x="392.47" height="2.42" width="11.13" id="rect2796" opacity="1" stroke-dasharray="none" stroke-opacity="1" fill="#d7d24c" fill-rule="evenodd" stroke="#ccceb4" stroke-linejoin="round" fill-opacity="1" stroke-linecap="round" stroke-width="0.6" stroke-miterlimit="4"/>
  <rect id="rect2798" width="11.13" height="2.42" x="392.47" y="99.76" opacity="1" stroke-dasharray="none" stroke-opacity="1" fill="#d7d24c" fill-rule="evenodd" stroke="#ccceb4" stroke-linejoin="round" fill-opacity="1" stroke-linecap="round" stroke-width="0.6" stroke-miterlimit="4"/>
  <rect y="107.78" x="392.47" height="2.42" width="11.13" id="rect2800" opacity="1" stroke-dasharray="none" stroke-opacity="1" fill="#d7d24c" fill-rule="evenodd" stroke="#ccceb4" stroke-linejoin="round" fill-opacity="1" stroke-linecap="round" stroke-width="0.6" stroke-miterlimit="4"/>
  <rect id="rect2802" width="11.13" height="2.42" x="392.47" y="115.8" opacity="1" stroke-dasharray="none" stroke-opacity="1" fill="#d7d24c" fill-rule="evenodd" stroke="#ccceb4" stroke-linejoin="round" fill-opacity="1" stroke-linecap="round" stroke-width="0.6" stroke-miterlimit="4"/>
  <rect y="123.82" x="392.47" height="2.42" width="11.13" id="rect2804" opacity="1" stroke-dasharray="none" stroke-opacity="1" fill="#d7d24c" fill-rule="evenodd" stroke="#ccceb4" stroke-linejoin="round" fill-opacity="1" stroke-linecap="round" stroke-width="0.6" stroke-miterlimit="4"/>
 </g>
 <g id="g2826" transform="matrix(0.647009,0,0,1.011354,-74.208488,17.561494)">
  <rect y="83.72" x="392.47" height="2.42" width="11.13" id="rect2828" opacity="1" stroke-dasharray="none" stroke-opacity="1" fill="#d7d24c" fill-rule="evenodd" stroke="#ccceb4" stroke-linejoin="round" fill-opacity="1" stroke-linecap="round" stroke-width="0.6" stroke-miterlimit="4"/>
  <rect id="rect2830" width="11.13" height="2.42" x="392.47" y="91.74" opacity="1" stroke-dasharray="none" stroke-opacity="1" fill="#d7d24c" fill-rule="evenodd" stroke="#ccceb4" stroke-linejoin="round" fill-opacity="1" stroke-linecap="round" stroke-width="0.6" stroke-miterlimit="4"/>
  <rect y="99.76" x="392.47" height="2.42" width="11.13" id="rect2832" opacity="1" stroke-dasharray="none" stroke-opacity="1" fill="#d7d24c" fill-rule="evenodd" stroke="#ccceb4" stroke-linejoin="round" fill-opacity="1" stroke-linecap="round" stroke-width="0.6" stroke-miterlimit="4"/>
  <rect id="rect2834" width="11.13" height="2.42" x="392.47" y="107.78" opacity="1" stroke-dasharray="none" stroke-opacity="1" fill="#d7d24c" fill-rule="evenodd" stroke="#ccceb4" stroke-linejoin="round" fill-opacity="1" stroke-linecap="round" stroke-width="0.6" stroke-miterlimit="4"/>
  <rect y="115.8" x="392.47" height="2.42" width="11.13" id="rect2836" opacity="1" stroke-dasharray="none" stroke-opacity="1" fill="#d7d24c" fill-rule="evenodd" stroke="#ccceb4" stroke-linejoin="round" fill-opacity="1" stroke-linecap="round" stroke-width="0.6" stroke-miterlimit="4"/>
  <rect id="rect2838" width="11.13" height="2.42" x="392.47" y="123.82" opacity="1" stroke-dasharray="none" stroke-opacity="1" fill="#d7d24c" fill-rule="evenodd" stroke="#ccceb4" stroke-linejoin="round" fill-opacity="1" stroke-linecap="round" stroke-width="0.6" stroke-miterlimit="4"/>
 </g>
 <g transform="matrix(0.965736,0,0,0.538666,-273.51209,-21.512149)" id="g2860">
  <rect y="203.02" x="364.79" height="2.447" width="7.457" id="rect2846" stroke-dasharray="none" stroke-opacity="1" fill="#d7d24c" fill-rule="evenodd" stroke="#ccceb4" stroke-linejoin="round" fill-opacity="1" stroke-linecap="round" stroke-width="0.494" stroke-miterlimit="4"/>
  <rect id="rect2848" width="7.457" height="2.447" x="364.79" y="211.13" stroke-dasharray="none" stroke-opacity="1" fill="#d7d24c" fill-rule="evenodd" stroke="#ccceb4" stroke-linejoin="round" fill-opacity="1" stroke-linecap="round" stroke-width="0.494" stroke-miterlimit="4"/>
  <rect y="219.24" x="364.79" height="2.447" width="7.457" id="rect2850" stroke-dasharray="none" stroke-opacity="1" fill="#d7d24c" fill-rule="evenodd" stroke="#ccceb4" stroke-linejoin="round" fill-opacity="1" stroke-linecap="round" stroke-width="0.494" stroke-miterlimit="4"/>
  <rect id="rect2852" width="7.457" height="2.447" x="364.79" y="227.35" stroke-dasharray="none" stroke-opacity="1" fill="#d7d24c" fill-rule="evenodd" stroke="#ccceb4" stroke-linejoin="round" fill-opacity="1" stroke-linecap="round" stroke-width="0.494" stroke-miterlimit="4"/>
 </g>
 <g id="g2866" transform="matrix(0.965736,0,0,0.538666,-304.35719,-22.964129)">
  <rect id="rect2868" width="7.457" height="2.447" x="364.79" y="203.02" stroke-dasharray="none" stroke-opacity="1" fill="#d7d24c" fill-rule="evenodd" stroke="#ccceb4" stroke-linejoin="round" fill-opacity="1" stroke-linecap="round" stroke-width="0.494" stroke-miterlimit="4"/>
  <rect y="211.13" x="364.79" height="2.447" width="7.457" id="rect2870" stroke-dasharray="none" stroke-opacity="1" fill="#d7d24c" fill-rule="evenodd" stroke="#ccceb4" stroke-linejoin="round" fill-opacity="1" stroke-linecap="round" stroke-width="0.494" stroke-miterlimit="4"/>
  <rect id="rect2872" width="7.457" height="2.447" x="364.79" y="219.24" stroke-dasharray="none" stroke-opacity="1" fill="#d7d24c" fill-rule="evenodd" stroke="#ccceb4" stroke-linejoin="round" fill-opacity="1" stroke-linecap="round" stroke-width="0.494" stroke-miterlimit="4"/>
  <rect y="227.35" x="364.79" height="2.447" width="7.457" id="rect2874" stroke-dasharray="none" stroke-opacity="1" fill="#d7d24c" fill-rule="evenodd" stroke="#ccceb4" stroke-linejoin="round" fill-opacity="1" stroke-linecap="round" stroke-width="0.494" stroke-miterlimit="4"/>
 </g>
 <g transform="matrix(0.965736,0,0,0.538666,-151.53359,-21.028159)" id="g2876">
  <rect y="203.02" x="364.79" height="2.447" width="7.457" id="rect2878" stroke-dasharray="none" stroke-opacity="1" fill="#d7d24c" fill-rule="evenodd" stroke="#ccceb4" stroke-linejoin="round" fill-opacity="1" stroke-linecap="round" stroke-width="0.494" stroke-miterlimit="4"/>
  <rect id="rect2880" width="7.457" height="2.447" x="364.79" y="211.13" stroke-dasharray="none" stroke-opacity="1" fill="#d7d24c" fill-rule="evenodd" stroke="#ccceb4" stroke-linejoin="round" fill-opacity="1" stroke-linecap="round" stroke-width="0.494" stroke-miterlimit="4"/>
  <rect y="219.24" x="364.79" height="2.447" width="7.457" id="rect2882" stroke-dasharray="none" stroke-opacity="1" fill="#d7d24c" fill-rule="evenodd" stroke="#ccceb4" stroke-linejoin="round" fill-opacity="1" stroke-linecap="round" stroke-width="0.494" stroke-miterlimit="4"/>
  <rect id="rect2884" width="7.457" height="2.447" x="364.79" y="227.35" stroke-dasharray="none" stroke-opacity="1" fill="#d7d24c" fill-rule="evenodd" stroke="#ccceb4" stroke-linejoin="round" fill-opacity="1" stroke-linecap="round" stroke-width="0.494" stroke-miterlimit="4"/>
 </g>
 <g id="g2886" transform="matrix(0.965736,0,0,0.538666,-116.01499,-21.028159)">
  <rect id="rect2888" width="7.457" height="2.447" x="364.79" y="203.02" stroke-dasharray="none" stroke-opacity="1" fill="#d7d24c" fill-rule="evenodd" stroke="#ccceb4" stroke-linejoin="round" fill-opacity="1" stroke-linecap="round" stroke-width="0.494" stroke-miterlimit="4"/>
  <rect y="211.13" x="364.79" height="2.447" width="7.457" id="rect2890" stroke-dasharray="none" stroke-opacity="1" fill="#d7d24c" fill-rule="evenodd" stroke="#ccceb4" stroke-linejoin="round" fill-opacity="1" stroke-linecap="round" stroke-width="0.494" stroke-miterlimit="4"/>
  <rect id="rect2892" width="7.457" height="2.447" x="364.79" y="219.24" stroke-dasharray="none" stroke-opacity="1" fill="#d7d24c" fill-rule="evenodd" stroke="#ccceb4" stroke-linejoin="round" fill-opacity="1" stroke-linecap="round" stroke-width="0.494" stroke-miterlimit="4"/>
  <rect y="227.35" x="364.79" height="2.447" width="7.457" id="rect2894" stroke-dasharray="none" stroke-opacity="1" fill="#d7d24c" fill-rule="evenodd" stroke="#ccceb4" stroke-linejoin="round" fill-opacity="1" stroke-linecap="round" stroke-width="0.494" stroke-miterlimit="4"/>
 </g>
 <g id="g2914" transform="matrix(-0.00241114,0.670046,-0.976569,-0.00376891,176.50741,-111.11355)">
  <rect y="83.72" x="392.47" height="2.42" width="11.13" id="rect2916" opacity="1" stroke-dasharray="none" stroke-opacity="1" fill="#d7d24c" fill-rule="evenodd" stroke="#ccceb4" stroke-linejoin="round" fill-opacity="1" stroke-linecap="round" stroke-width="0.6" stroke-miterlimit="4"/>
  <rect id="rect2918" width="11.13" height="2.42" x="392.47" y="91.74" opacity="1" stroke-dasharray="none" stroke-opacity="1" fill="#d7d24c" fill-rule="evenodd" stroke="#ccceb4" stroke-linejoin="round" fill-opacity="1" stroke-linecap="round" stroke-width="0.6" stroke-miterlimit="4"/>
  <rect y="99.76" x="392.47" height="2.42" width="11.13" id="rect2920" opacity="1" stroke-dasharray="none" stroke-opacity="1" fill="#d7d24c" fill-rule="evenodd" stroke="#ccceb4" stroke-linejoin="round" fill-opacity="1" stroke-linecap="round" stroke-width="0.6" stroke-miterlimit="4"/>
  <rect id="rect2922" width="11.13" height="2.42" x="392.47" y="107.78" opacity="1" stroke-dasharray="none" stroke-opacity="1" fill="#d7d24c" fill-rule="evenodd" stroke="#ccceb4" stroke-linejoin="round" fill-opacity="1" stroke-linecap="round" stroke-width="0.6" stroke-miterlimit="4"/>
  <rect y="115.8" x="392.47" height="2.42" width="11.13" id="rect2924" opacity="1" stroke-dasharray="none" stroke-opacity="1" fill="#d7d24c" fill-rule="evenodd" stroke="#ccceb4" stroke-linejoin="round" fill-opacity="1" stroke-linecap="round" stroke-width="0.6" stroke-miterlimit="4"/>
  <rect id="rect2926" width="11.13" height="2.42" x="392.47" y="123.82" opacity="1" stroke-dasharray="none" stroke-opacity="1" fill="#d7d24c" fill-rule="evenodd" stroke="#ccceb4" stroke-linejoin="round" fill-opacity="1" stroke-linecap="round" stroke-width="0.6" stroke-miterlimit="4"/>
 </g>
 <path sodipodi:nodetypes="ccc" id="path2928" d="m 92.423324,151.11227 v -6.29192 h 20.096066" stroke-opacity="1" fill="none" fill-rule="evenodd" stroke="#dac4c4" stroke-linejoin="miter" stroke-linecap="butt" stroke-width="0.983"/>
 <path sodipodi:nodetypes="ccc" id="path2930" d="m 84.945718,151.59627 0.934697,-14.03583 28.041035,-0.48399" stroke-opacity="1" fill="none" fill-rule="evenodd" stroke="#e4caca" stroke-linejoin="miter" stroke-linecap="butt" stroke-width="0.983"/>
 <path id="path2940" d="m 77.468112,151.11227 0.934697,-22.74772 33.649231,0.48399" stroke-opacity="1" fill="none" fill-rule="evenodd" stroke="#000000" stroke-linejoin="miter" stroke-linecap="butt" stroke-width="0.983"/>
 <path id="path2942" d="m 53.63324,150.62828 0.934697,-28.07166 H 44.753579 V 99.324904 h 3.738807" stroke-opacity="1" fill="none" fill-rule="evenodd" stroke="#000000" stroke-linejoin="miter" stroke-linecap="butt" stroke-width="0.983"/>
 <path sodipodi:nodetypes="cccc" id="path2944" d="m 86.347764,100.77689 7.944964,-0.29883 v 20.14258 h 16.824612" stroke-opacity="1" fill="none" fill-rule="evenodd" stroke="#000000" stroke-linejoin="miter" stroke-linecap="butt" stroke-width="0.983"/>
 <path sodipodi:nodetypes="cccc" id="path1931" d="M 85.413076,96.904929 H 99.900942 L 99.503425,112.39274 112.5194,111.90875" stroke-opacity="1" fill="none" fill-rule="evenodd" stroke="#000000" stroke-linejoin="miter" stroke-linecap="butt" stroke-width="0.983"/>
 <path id="path1933" d="m 86.815122,93.032975 17.759318,-0.483994 0.46735,12.099849 h 7.47761" stroke-opacity="1" fill="none" fill-rule="evenodd" stroke="#000000" stroke-linejoin="miter" stroke-linecap="butt" stroke-width="0.983"/>
 <path id="path1935" d="M 48.492386,86.741052 H 37.275983 l 0.467348,-7.743906 H 191.50162 l 0.46735,24.683704 h -5.14085" stroke-opacity="1" fill="none" fill-rule="evenodd" stroke="#000000" stroke-linejoin="miter" stroke-linecap="butt" stroke-width="0.983"/>
 <path id="path1937" d="m 199.91394,88.193035 h -4.67351 l 0.9347,23.715715 -7.47761,0.48399" stroke-opacity="1" fill="none" fill-rule="evenodd" stroke="#000000" stroke-linejoin="miter" stroke-linecap="butt" stroke-width="0.983"/>
 <path id="path1939" d="m 214.4018,109.97277 -0.46735,9.19589 -25.23693,0.96799" stroke-opacity="1" fill="none" fill-rule="evenodd" stroke="#000000" stroke-linejoin="miter" stroke-linecap="butt" stroke-width="0.983"/>
 <path id="path1941" d="m 69.990507,150.62828 0.467348,-40.65551" stroke-opacity="1" fill="none" fill-rule="evenodd" stroke="#000000" stroke-linejoin="miter" stroke-linecap="butt" stroke-width="0.983"/>
 <path id="path1943" d="m 48.025038,91.580994 -9.34701,0.483994" stroke-opacity="1" fill="none" fill-rule="evenodd" stroke="#000000" stroke-linejoin="miter" stroke-linecap="butt" stroke-width="0.983"/>
 <path id="path1945" d="m 220.01,111.90875 -0.46735,16.93979 -32.24718,-0.48399" stroke-opacity="1" fill="none" fill-rule="evenodd" stroke="#000000" stroke-linejoin="miter" stroke-linecap="butt" stroke-width="0.983"/>
 <path id="path1947" d="m 227.48761,109.97277 v 25.65169 l -40.19214,0.96799" stroke-opacity="1" fill="none" fill-rule="evenodd" stroke="#000000" stroke-linejoin="miter" stroke-linecap="butt" stroke-width="0.983"/>
 <path id="path1949" d="m 86.815122,87.70904 64.027018,-0.483994 v 5.323935" stroke-opacity="1" fill="none" fill-rule="evenodd" stroke="#000000" stroke-linejoin="miter" stroke-linecap="butt" stroke-width="0.983"/>
 <path id="path1951" d="m 153.17889,158.85618 v 7.7439 l 45.80034,-0.96798 v -21.29575 l -11.68376,-0.48399" stroke-opacity="1" fill="none" fill-rule="evenodd" stroke="#000000" stroke-linejoin="miter" stroke-linecap="butt" stroke-width="0.983"/>
 <rect id="rect1953" width="24.404" height="10.753" x="207.11" y="145.01" rx="1.024" ry="1.401" stroke-dasharray="none" stroke-opacity="1" fill="#172e1f" fill-rule="evenodd" stroke="#b4ceb4" stroke-linejoin="round" fill-opacity="1" stroke-linecap="round" stroke-width="0.993" stroke-miterlimit="4"/>
 <rect ry="1.407" rx="0.673" y="154.44" x="26.94" height="24.312" width="14.13" id="rect1955" stroke-dasharray="none" stroke-opacity="1" fill="url(#linearGradient2913)" fill-rule="evenodd" stroke="#e4caca" stroke-linejoin="round" fill-opacity="1" stroke-linecap="round" stroke-width="0.479" stroke-miterlimit="4"/>
 <rect ry="1.407" rx="0.673" y="125.46" x="26.994" height="20.812" width="17.759" id="rect1957" stroke-dasharray="none" stroke-opacity="1" fill="url(#linearGradient2905)" fill-rule="evenodd" stroke="#e4caca" stroke-linejoin="round" fill-opacity="1" stroke-linecap="round" stroke-width="0.59" stroke-miterlimit="4"/>
 <rect ry="1.407" rx="0.673" y="79.48" x="26.527" height="33.88" width="17.759" id="rect1959" stroke-dasharray="none" stroke-opacity="1" fill="url(#linearGradient2897)" fill-rule="evenodd" stroke="#e4caca" stroke-linejoin="round" fill-opacity="1" stroke-linecap="round" stroke-width="0.59" stroke-miterlimit="4"/>
 <path sodipodi:nodetypes="cccccccc" id="path1961" d="m 24.66156,51.908426 -17.292708,0.468811 0.3319717,2.781607 13.2177663,0.60901 0.453432,149.066466 3.618091,0.46727 0.124136,-3.37389 z" stroke-dasharray="none" stroke-opacity="1" fill="#110000" fill-rule="evenodd" stroke="#8f8c8c" stroke-linejoin="miter" fill-opacity="1" stroke-linecap="butt" stroke-width="1.867" stroke-miterlimit="4"/>
 <rect id="rect2854" width="10.03" height="23.457" x="9.594" y="81.79" rx="0.38" ry="0.974" stroke-dasharray="none" stroke-opacity="1" fill="url(#linearGradient2862)" fill-rule="evenodd" stroke="#e4caca" stroke-linejoin="round" fill-opacity="1" stroke-linecap="round" stroke-width="0.369" stroke-miterlimit="4"/>
 <rect ry="0.974" rx="0.38" y="71.74" x="5.496" height="4.356" width="14.02" id="rect2864" stroke-dasharray="none" stroke-opacity="1" fill="#9ca3a9" fill-rule="evenodd" stroke="#8f8c8c" stroke-linejoin="round" fill-opacity="1" stroke-linecap="round" stroke-width="1.867" stroke-miterlimit="4"/>
 <rect id="rect2866" width="14.02" height="4.356" x="5.496" y="109" rx="0.38" ry="0.974" stroke-dasharray="none" stroke-opacity="1" fill="#9ca3a9" fill-rule="evenodd" stroke="#8f8c8c" stroke-linejoin="round" fill-opacity="1" stroke-linecap="round" stroke-width="1.867" stroke-miterlimit="4"/>
 <rect ry="0.974" rx="0.38" y="147.72" x="5.963" height="4.356" width="14.02" id="rect2869" stroke-dasharray="none" stroke-opacity="1" fill="#9ca3a9" fill-rule="evenodd" stroke="#8f8c8c" stroke-linejoin="round" fill-opacity="1" stroke-linecap="round" stroke-width="1.867" stroke-miterlimit="4"/>
 <rect id="rect2871" width="14.02" height="4.356" x="5.496" y="182.57" rx="0.38" ry="0.974" stroke-dasharray="none" stroke-opacity="1" fill="#9ca3a9" fill-rule="evenodd" stroke="#8f8c8c" stroke-linejoin="round" fill-opacity="1" stroke-linecap="round" stroke-width="1.867" stroke-miterlimit="4"/>
 <rect id="rect2873" width="14.13" height="24.312" x="5.909" y="155.41" rx="0.673" ry="1.407" stroke-dasharray="none" stroke-opacity="1" fill="url(#linearGradient2921)" fill-rule="evenodd" stroke="#e4caca" stroke-linejoin="round" fill-opacity="1" stroke-linecap="round" stroke-width="0.479" stroke-miterlimit="4"/>
 <g transform="matrix(0,0.965736,-0.538666,0,336.26412,-196.34404)" id="g1197">
  <rect y="203.02" x="364.79" height="2.447" width="7.457" id="rect1189" stroke-dasharray="none" stroke-opacity="1" fill="#d7d24c" fill-rule="evenodd" stroke="#ccceb4" stroke-linejoin="round" fill-opacity="1" stroke-linecap="round" stroke-width="0.494" stroke-miterlimit="4"/>
  <rect id="rect1191" width="7.457" height="2.447" x="364.79" y="211.13" stroke-dasharray="none" stroke-opacity="1" fill="#d7d24c" fill-rule="evenodd" stroke="#ccceb4" stroke-linejoin="round" fill-opacity="1" stroke-linecap="round" stroke-width="0.494" stroke-miterlimit="4"/>
  <rect y="219.24" x="364.79" height="2.447" width="7.457" id="rect1193" stroke-dasharray="none" stroke-opacity="1" fill="#d7d24c" fill-rule="evenodd" stroke="#ccceb4" stroke-linejoin="round" fill-opacity="1" stroke-linecap="round" stroke-width="0.494" stroke-miterlimit="4"/>
  <rect id="rect1195" width="7.457" height="2.447" x="364.79" y="227.35" stroke-dasharray="none" stroke-opacity="1" fill="#d7d24c" fill-rule="evenodd" stroke="#ccceb4" stroke-linejoin="round" fill-opacity="1" stroke-linecap="round" stroke-width="0.494" stroke-miterlimit="4"/>
 </g>
</svg>
