<?xml version="1.0" encoding="UTF-8" standalone="no"?>
<svg xmlns:dc="http://purl.org/dc/elements/1.1/" xmlns:cc="http://creativecommons.org/ns#" xmlns:rdf="http://www.w3.org/1999/02/22-rdf-syntax-ns#" xmlns:svg="http://www.w3.org/2000/svg" xmlns="http://www.w3.org/2000/svg" xmlns:xlink="http://www.w3.org/1999/xlink" xmlns:sodipodi="http://sodipodi.sourceforge.net/DTD/sodipodi-0.dtd" xmlns:inkscape="http://www.inkscape.org/namespaces/inkscape" sodipodi:docname="palemoon.svg" inkscape:version="1.0 (4035a4f, 2020-05-01)" sodipodi:version="0.32" id="svg1771" height="256" width="256" y="0.0000000" x="0.0000000" version="1.0">
 <metadata id="metadata1423">
  <rdf:RDF>
   <cc:Work>
    <dc:format>image/svg+xml</dc:format>
    <dc:type rdf:resource="http://purl.org/dc/dcmitype/StillImage"/>
    <dc:title/>
   </cc:Work>
  </rdf:RDF>
 </metadata>
 <sodipodi:namedview inkscape:document-rotation="0" inkscape:window-maximized="1" showgrid="false" height="256" width="256" inkscape:current-layer="svg1771" inkscape:window-y="0" inkscape:window-x="0" inkscape:window-height="1056" inkscape:window-width="1920" inkscape:cy="139.83815" inkscape:cx="128" inkscape:zoom="3.3789062" inkscape:pageshadow="2" inkscape:pageopacity="0" borderopacity="1.0" bordercolor="#666666" pagecolor="#ffffff" id="base"/>
 <defs id="defs3">
  <linearGradient id="linearGradient4273">
   <stop id="stop4275" stop-color="#ffffff" stop-opacity="0"/>
   <stop offset="0.888" id="stop4279" stop-color="#989898" stop-opacity="0"/>
   <stop id="stop4277" offset="1" stop-color="#373737" stop-opacity="1"/>
  </linearGradient>
  <linearGradient id="linearGradient2253">
   <stop id="stop4265" stop-color="#b2b2b2" stop-opacity="1"/>
   <stop offset="1" id="stop4267" stop-color="#808080" stop-opacity="1"/>
  </linearGradient>
  <linearGradient id="linearGradient4313" inkscape:collect="always">
   <stop id="stop4315" stop-color="#000000" stop-opacity="0"/>
   <stop offset="0.736" id="stop4325" stop-color="#000000" stop-opacity="0"/>
   <stop id="stop4317" offset="1" stop-color="#000000" stop-opacity="0.706"/>
  </linearGradient>
  <linearGradient id="linearGradient2936">
   <stop id="stop2938" stop-color="#c9c7ed" stop-opacity="0.589"/>
   <stop offset="1" id="stop2940" stop-color="#ffffff" stop-opacity="0"/>
  </linearGradient>
  <linearGradient id="linearGradient2246">
   <stop id="stop2247" stop-color="#ffffff" stop-opacity="1"/>
   <stop id="stop2248" offset="1" stop-color="#ffffff" stop-opacity="0"/>
  </linearGradient>
  <radialGradient gradientTransform="matrix(1.7314658,-0.06828382,0.07886811,1.9998506,-713.89428,-598.56519)" gradientUnits="userSpaceOnUse" xlink:href="#linearGradient2253" id="radialGradient5375" fy="414.54" fx="474.26" r="79.38" cy="414.54" cx="474.26"/>
  <linearGradient gradientTransform="matrix(1.699536,0,0,1.179727,-153.38314,-259.07057)" gradientUnits="userSpaceOnUse" xlink:href="#linearGradient2246" id="linearGradient5377" y2="295.94" x2="163.89" y1="233.81" x1="164.89"/>
  <linearGradient y2="302.07" x2="165.44" y1="228.62" x1="178.52" gradientTransform="matrix(1.699536,0,0,-1.179727,-151.13451,520.19011)" gradientUnits="userSpaceOnUse" id="linearGradient2049" xlink:href="#linearGradient2936" inkscape:collect="always"/>
  <radialGradient gradientUnits="userSpaceOnUse" gradientTransform="matrix(-0.02913709,-2.3092994,2.0180151,-0.02546187,-133.82143,428.50339)" r="55.9" fy="131.4" fx="127.43" cy="131.4" cx="127.43" id="radialGradient4321" xlink:href="#linearGradient4313" inkscape:collect="always"/>
  <radialGradient r="79.38" fy="381.47" fx="467.9" cy="381.47" cx="467.9" gradientTransform="matrix(1.4181506,-0.02640371,0.02643246,1.419695,-546.96365,-397.43391)" gradientUnits="userSpaceOnUse" id="radialGradient4271" xlink:href="#linearGradient4273" inkscape:collect="always"/>
 </defs>
 <path id="path1708" d="M 239.18922,131.25146 C 239.19893,192.90737 189.14171,242.89454 127.38962,242.89454 C 65.637539,242.89454 15.580318,192.90737 15.590036,131.25146 C 15.580318,69.595551 65.637539,19.608397 127.38962,19.608397 C 189.14171,19.608397 239.19893,69.595551 239.18922,131.25146 z " stroke-opacity="1" fill="url(#radialGradient5375)" fill-rule="evenodd" stroke="none" stroke-linejoin="miter" fill-opacity="1" stroke-linecap="butt" stroke-width="0.446" stroke-miterlimit="4"/>
 <path d="m 117.77183,242.45413 c -14.5089,-2.94973 -28.843201,-7.46853 -41.929217,-14.41992 -6.275588,-5.34049 7.562691,-0.96456 8.187521,-7.9682 4.088451,-0.80934 14.801035,10.07655 16.391736,1.06338 C 88.571324,218.76974 76.97206,213.29475 64.463705,214.10031 50.571458,218.51854 46.320508,199.29897 36.057377,193.89267 29.425,184.66726 30.31041,172.45706 21.755108,165.6551 17.208997,148.74374 14.331394,130.92674 17.89716,113.5059 22.369694,88.880529 35.157628,65.584368 54.06414,49.179003 c 9.244841,-4.139174 17.861288,2.780828 26.873,-3.763358 10.810917,-2.778924 4.44155,-16.996818 -4.315137,-8.299458 -3.306321,3.975372 -19.352122,9.618096 -8.722433,2.204609 12.708838,-8.884712 27.636626,-14.755064 42.94588,-16.940351 6.63089,-0.536222 9.2256,11.157098 9.56244,0.776486 11.88478,-5.410088 26.75176,-0.115312 39.26284,2.017779 26.24796,8.575125 50.37951,26.070372 64.05732,50.38461 12.9864,21.565089 18.5721,47.58169 14.25108,72.4891 -2.50242,20.49459 -11.42902,40.99674 -26.80149,54.96991 -4.30192,2.59224 -14.0371,14.44216 -14.27395,10.80784 2.8121,-3.43734 4.3641,-14.91572 -0.67759,-5.66776 -4.76652,7.89941 -10.64679,1.10596 -5.94321,-5.12116 -5.70077,0.93338 -5.71449,-10.3934 -5.80419,-12.34688 6.65886,-10.17012 -8.82821,-0.56836 -9.76572,-10.18748 -4.40642,1.3198 -13.02487,-7.44101 -13.06895,1.93285 -9.51561,4.79721 -9.52848,22.10734 -20.77939,21.88451 -8.62587,-1.12007 -6.62494,5.10571 0.4518,5.086 7.93046,2.09665 -4.01911,10.33472 4.56731,9.94164 -0.21431,4.45653 9.89859,1.18882 6.97959,8.93616 2.35691,13.40104 -15.73786,8.45994 -23.19626,13.45117 -3.91679,0.69923 -7.92035,1.06896 -11.89525,0.71891 z M 97.632276,231.70974 c -3.84354,-5.24389 -2.368988,4.57633 0,0 z M 63.618792,203.9619 c -3.843539,-5.2439 -2.368989,4.57632 0,0 z M 212.204,197.15976 c 3.73539,-6.7863 14.42133,-20.48308 9.12475,-24.84657 -3.2262,5.94407 -11.5588,14.38636 -12.8543,17.74097 12.57608,-2.16132 -3.54219,6.20404 1.51113,10.41215 1.21091,-0.72406 1.66214,-2.1143 2.21842,-3.30655 z m -18.06888,-5.97533 c -2.10169,-7.99127 -9.4325,9.16551 -0.42043,1.8751 0.37309,-0.54127 0.2529,-1.26164 0.42043,-1.8751 z m 7.31409,-3.11041 c -1.31939,-9.00033 -3.03504,4.31941 0,0 z m -6.25943,-1.54284 c 1.27492,-7.11908 -6.04628,3.122 0,0 z m -2.00327,-8.37606 c 3.3901,-3.65737 1.9657,-18.24028 -1.26248,-6.60542 0.39241,4.97768 -10.85924,15.37698 -0.002,8.32662 z m 11.67775,3.69802 c 3.31157,-4.0659 -3.52453,-0.0619 -1.67141,0.7344 z m -26.50789,-4.52022 c 5.24789,-5.99061 0.35424,-10.48817 -3.8053,-3.32841 -2.86936,3.21456 1.01203,4.63886 3.8053,3.32841 z m -16.2775,-11.41241 c -2.10744,-3.87331 -1.47035,3.57762 0,0 z m 69.81717,-8.14026 c 9.26768,-6.58642 -2.63181,-25.55201 -6.95118,-10.36456 -0.77504,5.37569 -0.12081,24.10716 6.20024,12.4332 z m -31.81199,3.00263 c 6.6919,-6.81435 -2.21332,-13.02477 -3.22041,-2.49862 -0.90729,2.81282 0.50838,7.50841 3.22041,2.49862 z m 16.59541,-0.7333 c -2.49382,-3.04336 -0.83974,4.17918 0,0 z m -43.85949,-2.1849 c -3.19659,-3.95294 -3.42908,3.96595 0,0 z m 24.91042,-11.93077 c 3.20123,-10.52716 -20.20038,-9.27542 -8.35324,-0.31614 2.23768,1.50067 6.75457,3.95146 8.35324,0.31614 z m -35.83053,0.11556 c 6.24584,-13.43173 -9.78849,2.48695 0,0 z m 16.13381,-2.0719 c 5.98388,-0.92032 6.26994,-13.93488 2.46118,-6.7322 -3.18811,1.51458 -9.42678,9.3803 -3.03327,7.74365 l 0.30984,-0.54779 z m -80.401394,-4.90981 c -2.543764,-4.89404 -3.471685,6.75052 0,0 z m 81.118864,-8.69099 c -2.2756,-13.3792 -7.72786,11.01088 0.40696,2.96904 -0.13566,-0.98968 -0.27131,-1.97936 -0.40696,-2.96904 z m -21.14773,-4.17825 c -2.91643,-8.04925 -5.78259,3.42805 0,0 z m 34.90857,-55.048133 c -5.25354,-7.10852 -8.57857,3.701384 0,0 z M 52.432742,59.769169 C 58.613724,48.50549 40.60422,64.494563 50.902756,61.517792 Z M 155.81323,235.73766 c 2.11335,-3.71512 2.33521,3.76291 0,0 z m 1.05662,-6.4193 c 2.64516,-7.03589 2.44927,6.35624 0,0 z m -90.565783,-7.52921 c 2.8051,-3.58993 2.171951,4.60512 0,0 z" id="path2390" fill="#8b8b8b" fill-opacity="1" stroke-width="0.895"/>
 <path d="m 110.16356,224.83161 c -5.39032,-3.85008 11.08263,0.80505 0.66018,0.26059 l -0.55514,-0.21913 z m -6.11579,-7.94611 c -9.257578,2.48241 -19.563865,-11.76247 -9.664212,-17.49122 -2.731687,-5.06307 -11.202794,-11.78462 -9.966858,-1.18705 -2.313005,8.08016 -10.777613,9.38337 -14.915215,3.51612 C 57.995026,198.71025 47.398288,189.8723 41.310912,179.97092 36.20502,169.98896 24.778202,164.93497 21.8533,153.74119 12.166925,128.77557 19.875189,100.91761 32.092866,78.28037 c 3.667313,3.345628 5.970971,8.644265 10.292735,1.6789 3.46278,-3.544847 14.830332,-15.547095 16.412513,-8.257885 -8.062543,5.081524 -13.030174,13.398148 -13.5585,21.658222 5.617127,3.022023 12.884447,4.078267 10.936331,-4.868404 C 55.704522,78.956339 73.737981,79.384872 68.934553,68.268725 67.89555,66.748022 60.810541,70.417662 61.86389,63.501371 67.891299,54.689946 81.345922,51.186198 91.696042,48.13228 102.23313,45.901919 110.13521,36.903092 120.80378,34.416908 c 12.59183,-3.855171 9.38014,27.378721 22.64463,11.938693 1.34789,-3.129961 -11.56264,3.66113 -6.06532,-2.629806 6.50301,-4.696161 10.65004,-1.039358 12.77781,4.568032 10.53971,1.452289 7.76221,14.38433 -1.59371,11.585233 5.6604,4.685263 15.12905,8.748473 20.72692,15.901914 2.03327,-14.914599 15.60456,1.991168 22.55573,3.056838 7.69749,1.612018 21.24943,11.426234 25.96503,1.904325 -3.28854,-2.963108 -9.31142,-12.829717 -1.02956,-11.14491 5.9509,6.873649 9.64869,14.836102 8.52334,23.363119 7.47678,0.05294 -4.88596,12.410324 2.08267,18.017984 -0.19392,6.15853 13.34779,4.10301 5.07952,9.55903 -5.77842,-0.59271 -1.92255,20.31866 -9.80055,9.05077 2.8018,-7.57616 0.7472,-12.97828 -7.73367,-9.589 -5.15956,-4.35371 -9.59932,-6.41792 -11.16716,-11.37829 -2.52444,-5.17953 -6.79893,-4.08063 -12.79676,-2.8093 -0.93111,9.72556 2.58766,23.21767 14.46625,19.5391 6.33954,1.88155 10.29745,12.95853 10.7,16.38288 -4.40417,-5.2238 -9.76169,9.44422 -13.92774,0.15442 -4.31808,-4.96448 -1.70069,-18.08384 -12.01157,-11.31024 -9.4549,0.12679 -3.76619,-14.93665 -14.56908,-10.06616 -11.22059,2.55117 -14.23359,-5.87745 -22.27016,-11.64846 -4.06459,3.98532 -1.89023,14.06268 -11.29346,13.93712 -5.42982,-0.1658 -13.48303,0.11061 -7.12061,6.62187 11.01256,1.55647 9.92058,16.63079 -1.74043,14.73363 -8.09018,-0.26667 0.14339,5.47594 -6.24612,7.15021 -6.70239,8.6544 9.27627,8.64145 11.90085,15.38938 9.60442,-2.08226 0.87712,17.54212 12.07375,19.32513 -0.18365,13.04894 -13.64483,14.66333 -23.0406,17.73192 -3.94991,3.70977 -3.29698,7.33653 2.28565,4.84799 5.28631,4.87855 -15.49506,12.07813 -10.48204,-0.10806 0.41314,-11.22078 -6.02303,5.2559 -8.41909,8.38795 -2.04043,1.86021 -5.02232,0.92704 -7.23053,0.005 z m 6.11579,-17.30329 c -3.69673,-8.28689 -4.595,5.99556 -0.0394,0.31195 z m 5.02826,-10.16555 c 0.63796,-10.22497 -5.84284,-0.8529 -1.84619,4.0307 2.00297,5.57309 1.84594,-3.06611 1.84619,-4.0307 z m 8.39811,3.40942 c -2.69232,-5.67549 -5.20725,3.79135 0,0 z m -23.01728,-15.54055 c -9.420889,-8.13685 0.96831,10.40741 0,0 z m 27.49273,-4.02528 c -2.47476,-8.10759 -7.9822,0.89708 -0.4928,1.40086 l 0.53255,-0.56414 z m -5.86449,-3.68426 c 0.67817,-12.84547 -10.28944,3.33014 0,0 z m -7.56188,-6.51978 c -2.02026,-4.66122 -0.74038,5.86794 0,0 z m -39.044652,-4.57425 c 0.31751,-11.77405 -17.28862,-2.04329 -4.706587,2.57445 3.005759,2.5303 6.364988,1.84731 4.706587,-2.57445 z m 42.625022,2.068 c -3.5048,-3.81212 -2.16872,3.42758 0,0 z m -15.78072,-4.69924 c 2.28694,-6.53438 -16.311819,-6.13402 -5.880951,-11.89259 12.359531,-4.64732 -2.43419,-21.37623 -9.794849,-11.45977 2.969295,4.56356 5.048352,7.44445 -1.955278,5.09343 -4.54515,-5.90212 -10.698709,-1.58581 -5.439279,4.17368 5.464337,2.83133 13.40467,7.66198 14.931171,11.09085 4.396645,-3.75576 5.231866,7.74313 8.139186,2.9944 z m 5.93472,-1.56641 c -5.32476,-5.7608 -1.89657,5.53346 0,0 z m -60.807395,-18.8284 c 4.868129,-10.84377 -9.692719,-4.23649 -1.290457,0.93993 l 0.667352,-0.29926 z m 85.068775,-5.56284 c -9.40061,-8.7532 -1.70155,8.91568 0,0 z m -28.51369,-2.93042 c -0.41479,-7.91321 -1.80151,6.55684 0,0 z m 11.41303,-13.48651 c -3.60994,-0.16902 -2.10022,3.77673 0,0 z m 6.6162,-4.7471 c 3.17317,-4.63915 6.00327,-21.315888 -3.34531,-12.483708 -6.64963,5.059648 -0.43533,13.217348 2.08629,16.515978 1.44839,-0.70898 1.32836,-2.74247 1.25902,-4.03227 z m 20.6841,-3.68703 c -3.46222,-4.34156 -2.76593,5.5342 0,0 z m 11.63619,0.0123 c -2.72371,-3.07248 -0.33009,3.17172 0,0 z M 48.849779,99.832902 c -2.334596,-3.941391 -2.084569,4.784298 0,0 z M 152.6804,97.445992 c -4.85694,-5.312184 -5.60468,5.236358 0,0 z m -29.98557,-7.608279 c -5.96675,-8.280622 -0.35538,6.756496 0,0 z m -5.37055,-0.895092 c -2.28926,-3.293007 -3.00217,3.659222 0,0 z m -6.71318,-8.055825 c -3.0272,-3.244619 -1.77467,3.260806 0,0 z m 10.54676,-4.699232 c -7.40993,-10.246545 17.8332,-12.410569 7.09268,-17.784184 -5.70093,-3.812133 0.72664,-16.92058 -7.50417,-10.095968 -7.35336,-2.377653 -11.16471,1.548027 -11.96717,8.971625 -7.87574,0.867873 -19.456493,-5.715392 -27.817961,1.167912 -4.322478,1.442034 -14.042858,12.653076 -3.779329,9.180653 4.510785,-3.807607 8.346567,-8.201942 12.939579,-2.938218 7.783419,1.200793 15.422081,7.283504 22.947251,5.896406 -2.77617,4.491193 6.3427,7.002091 8.08912,5.601774 z M 112.84883,55.0249 c 3.86683,-5.917104 4.02616,2.063243 0,0 z m -7.16073,-1.885949 c -3.50477,-3.812114 -2.16875,3.427587 0,0 z M 45.352915,196.20121 c -6.059597,-13.29581 8.573659,3.74832 0,0 z M 219.03792,133.63225 c -8.12854,-11.58841 9.68593,6.94105 0,0 z m -81.79069,-5.00092 c -2.55328,-7.77998 6.67446,0.62124 0,0 z m 63.6696,-54.396892 c -9.86414,-3.935029 -21.4443,-20.872786 -5.31945,-24.214167 9.367,1.488671 21.54639,21.983478 8.11649,24.854186 -1.03608,0.284693 -1.88358,-0.338168 -2.79704,-0.640019 z M 177.85213,64.03637 c -0.39054,-8.20769 2.24551,5.554111 0,0 z m -4.6373,-28.291448 c -4.01378,-7.668406 10.7862,3.87342 0,0 z m -22.77215,-1.390951 c -10.75656,-3.780458 11.75988,-4.811217 10.89597,-2.767098 -2.88302,2.001389 -7.43271,4.927475 -10.89597,2.767098 z m -1.79019,-8.962861 c 2.94159,-2.438431 4.97918,3.134754 0,0 z m -12.766,-1.514212 c -2.36475,-5.358061 13.14119,0.96087 3.59505,0.485147 l -1.81038,-0.149396 z" id="path2388" fill="#6d6d6d" fill-opacity="1" stroke-width="0.895"/>
 <path d="m 101.68484,213.01287 c -7.628116,-0.0563 -12.970269,-8.72591 -5.571092,-13.18923 -2.900386,-6.85346 1.195846,-1.26185 4.548812,-2.89959 -4.0558,-6.52718 -15.498237,-9.92912 -21.505226,-3.55213 -4.435036,4.92434 -11.098657,-0.96829 -13.779273,5.64751 -6.80764,-6.54862 -16.357473,-10.81857 -21.640711,-18.97821 -4.362823,-9.23561 -12.817858,-15.4806 -18.363413,-23.71494 -3.777643,-5.00672 1.450681,-16.4452 -2.919708,-18.0638 -5.67136,5.88779 -3.598113,-10.02631 -3.782952,-13.39589 1.683724,-9.03676 4.870426,-16.91254 5.95103,-25.991842 1.341006,-8.767919 10.171793,-6.638442 11.341428,1.169552 5.836533,-10.108737 9.817304,2.78248 10.125853,8.1578 8.977642,4.82013 11.825877,-7.38934 11.907753,-13.80381 -1.509177,-5.189475 0.883855,-11.441052 5.673413,-8.63272 -1.125558,-6.634175 14.516204,-7.496234 11.759809,-15.572487 5.140113,5.090993 13.222848,5.686457 17.22248,2.23094 3.467933,5.257335 2.725452,15.075201 10.730697,15.025169 0.30111,6.718565 -9.667566,17.325448 3.02283,16.829868 9.85467,-2.39828 8.67155,10.38294 1.20771,11.09925 -1.77534,-5.31448 -5.83415,3.04634 -7.712893,2.13318 -6.416936,0.17713 -9.135159,5.42604 -12.057501,10.32167 -3.597938,-5.87984 -7.485195,-3.55694 -10.063902,0.57157 2.632287,-8.93873 -12.804979,-7.49584 -6.478525,1.40595 3.453506,6.38961 -1.681224,12.96497 5.917568,15.52876 0.543279,9.49599 -9.109325,-3.23206 -12.94754,-5.07613 -5.299237,-3.59416 -10.42367,-6.1358 -8.195761,-13.03035 -1.213257,-7.72457 -14.38422,-13.62773 -13.910521,-1.76451 -4.263582,9.41042 3.538097,17.39519 12.303478,14.06733 9.215861,5.86397 6.299078,18.03531 11.858073,25.63495 2.971611,6.06138 19.473965,4.25507 11.806415,-1.65465 0.748311,-5.03191 5.118839,2.50439 9.286684,1.26597 9.484445,-2.82947 -4.089695,9.13797 4.439426,6.3072 4.269205,-4.56901 -0.419551,12.96053 -3.075434,5.84197 3.265919,8.66544 18.330143,5.56056 20.018003,14.94097 -2.16418,4.75195 -9.045687,-2.77744 -5.16656,4.06891 -0.33569,8.10826 12.73382,7.83263 5.97926,14.8618 -1.40519,3.09274 -5.42932,5.91987 -7.92971,2.20997 z M 44.821866,168.60578 c -2.11335,-3.71511 -2.335202,3.76291 0,0 z M 29.605308,144.83302 c -2.52448,-2.98537 -0.964883,4.21143 0,0 z m -4.475458,-11.4876 c -4.955852,-9.24774 -6.423452,8.10246 0,0 z m 64.484033,-13.14453 c 1.670917,-11.64817 -9.277875,7.23269 0,0 z m -25.640402,-2.24856 c 0.825435,-9.27933 -6.222691,2.62264 -1.037324,0.99632 z m -6.620331,-2.99922 c -3.219825,-4.66755 -6.262977,4.65687 0,0 z m 39.442877,-9.03524 c 7.441983,-7.621377 -10.245426,-2.75706 -2.013956,0.85592 0.72049,-0.16247 1.350191,-0.55058 2.013956,-0.85592 z M 89.371322,84.299333 c -2.68639,-4.541297 -1.467831,3.067456 0,0 z m -1.613519,-7.216677 c -5.165395,-1.788713 -1.969031,7.683167 0,0 z M 117.77183,199.93399 c 1.16657,-3.02509 2.54251,3.3281 0,0 z m 12.95622,-3.61214 c -6.55645,-6.17986 10.12891,-3.02727 2.22862,-8.20217 -5.12713,0.28242 -10.50708,-13.9271 -3.3225,-7.87797 0.1392,3.63894 9.81527,-2.87639 2.80222,-4.02002 -1.12773,-4.76195 -1.78033,-9.6384 -6.97964,-9.9335 -3.36577,-10.41128 12.74889,0.50428 9.28695,6.83606 3.8332,1.68116 8.63829,1.10702 7.9258,6.75358 7.0882,7.83083 1.05679,17.80086 -8.07997,19.01959 -1.61701,-0.12786 -3.1033,-1.15081 -3.86148,-2.57557 z m 8.97353,-15.35515 c -3.13411,-4.62314 -2.55439,7.32398 0,0 z m -93.462828,14.61196 c -1.296199,-4.48071 2.984165,1.22259 0,0 z m 71.393868,-9.87519 c -1.81167,-8.24966 12.38791,2.39732 2.09914,2.44242 -1.1247,-0.29824 -1.8388,-1.37389 -2.09914,-2.44242 z m -12.95148,-1.25513 c -3.18158,-6.22834 -2.05894,-15.81967 -2.53516,-21.12947 6.31505,-1.51541 5.16599,13.49692 13.83207,8.51995 9.34734,4.9048 -5.22272,11.19245 -9.44497,13.57766 l -0.91425,-0.21528 z m -6.153773,-15.84256 c 3.196593,-3.95294 3.429093,3.96595 0,0 z m -26.405204,-2.68527 c 0.440555,-3.57351 2.46457,3.53411 0,0 z m 14.918197,-7.16074 c 2.591701,-4.35975 3.232689,4.13146 0,0 z m 24.91337,-8.3171 c -6.89549,-1.82459 -4.559,-13.91402 2.70432,-9.5525 -5.59468,5.73838 1.06981,5.72073 4.15784,8.87785 -0.45819,2.78841 -5.25238,1.73082 -6.86216,0.67465 z m 7.32062,-5.33305 c -4.45371,-7.4532 -2.89737,-18.34834 -6.43692,-25.21481 7.75522,-0.96946 14.21998,-3.66309 15.29072,-12.26307 2.64775,-0.94517 10.64828,-4.79404 3.83638,-5.44734 -2.40005,0.45634 -1.4805,-10.526183 -5.57532,-13.66703 -5.80003,-5.515738 -6.1831,-20.49446 2.80477,-22.765105 7.17304,3.699307 10.07455,-3.491206 14.4689,-6.607679 5.40261,6.918543 16.43467,7.929186 20.07996,16.749398 1.72562,7.913012 14.69942,7.191989 14.43695,-1.350176 4.61677,3.466378 13.47041,6.478265 15.84357,8.187227 -0.0728,7.12297 12.34603,15.553866 1.38019,21.113025 -12.30802,-3.97345 -0.85963,17.94505 -11.126,14.53406 -9.39959,0.76094 -20.12906,-3.0584 -25.83043,-11.97511 -5.28934,-4.01005 4.41859,-17.961061 -6.61194,-12.016675 -5.55986,0.575834 -6.58013,3.89638 -2.9587,7.638935 -3.26141,5.50158 -8.10873,-5.705743 -10.74554,2.21992 1.3832,7.19264 14.96965,0.90033 8.1233,10.08515 -7.2431,7.07019 -20.21566,1.96545 -23.47751,13.71567 -1.43698,5.66802 14.87555,10.58811 3.86302,12.61155 -2.56083,1.41393 -4.75969,11.83211 -7.3654,4.45206 z m 24.41692,-47.154239 c -2.22981,-4.066335 -4.85814,3.946279 0,4e-6 z M 135.535,139.4767 c -0.0887,-6.00376 4.78504,4.79824 0,0 z m 74.87882,-2.6995 c 2.52449,-2.98538 0.9649,4.21142 0,0 z M 73.4648,131.01193 c 4.182631,-4.13092 4.58999,4.11842 0,0 z m 139.96377,-18.60542 c -9.7212,-4.51367 -11.00349,-16.210255 -7.78358,-25.058149 6.69567,-4.263578 17.28694,1.153845 14.82907,9.976939 -1.93778,5.69305 5.69929,22.02495 -5.77126,15.8325 z M 116.04434,94.414589 c 1.36169,-6.796545 5.34296,2.323704 0,0 z M 39.845479,87.879317 c -0.349678,-7.917079 10.141823,-2.627805 2.45606,1.466623 -1.006929,0.981316 -2.668148,-0.193545 -2.45606,-1.466623 z M 201.26262,72.499283 c -3.23991,-3.710123 -15.15388,-9.298057 -7.85553,-14.325437 -5.43755,-6.010338 14.16686,-4.539274 12.56031,3.346149 2.18029,4.535431 4.53005,15.678614 -4.70478,10.979288 z M 82.910515,64.851594 c -0.173075,-4.756177 4.414798,2.197217 0,0 z" id="path2386" fill="#4e4e4e" fill-opacity="1" stroke-width="0.895"/>
 <path inkscape:connector-curvature="0" id="path1906" d="m 211.90678,79.828556 c 0.0124,33.038764 -38.56845,59.826564 -86.1647,59.826564 -47.596237,0 -86.177127,-26.7878 -86.164707,-59.826564 -0.0124,-33.038774 38.56847,-59.826573 86.164707,-59.826573 47.59625,0 86.17712,26.787799 86.1647,59.826573 z" stroke-opacity="1" fill="url(#linearGradient5377)" fill-rule="evenodd" stroke="none" stroke-linejoin="miter" fill-opacity="0.75" stroke-linecap="butt" stroke-width="1.25"/>
 <path id="text2684" d="M 991.46888,678.41227 L 993.7593,678.41227 L 993.7593,683.33002 L 997.06108,678.41227 L 999.72035,678.41227 L 995.44291,684.79182 L 1000.1606,691.8842 L 997.2931,691.8842 L 993.7593,686.57844 L 993.7593,691.8842 L 991.46888,691.8842 L 991.46888,678.41227" stroke-opacity="1" fill="white" font-family="Bitstream Vera Sans" text-anchor="start" stroke="none" font-style="normal" stroke-linejoin="miter" fill-opacity="1" font-weight="bold" stroke-linecap="butt" stroke-width="1.25" font-stretch="normal" font-size="16" font-variant="normal" writing-mode="lr-tb"/>
 <path id="path3534" d="M 1007.4423,681.03808 L 1007.4423,689.2584 L 1008.2633,689.2584 C 1009.1993,689.2584 1009.9132,688.90649 1010.405,688.20265 C 1010.9008,687.49884 1011.1487,686.47619 1011.1487,685.1347 C 1011.1487,683.79925 1010.9028,682.78261 1010.411,682.0848 C 1009.9192,681.38699 1009.2033,681.03809 1008.2633,681.03808 L 1007.4423,681.03808 M 1005.1519,678.41227 L 1007.5673,678.41227 C 1008.9157,678.41228 1009.9192,678.55967 1010.5775,678.85441 C 1011.2399,679.14319 1011.807,679.63646 1012.279,680.33425 C 1012.6954,680.94185 1013.0048,681.64266 1013.2071,682.43671 C 1013.4093,683.23077 1013.5105,684.13011 1013.5105,685.1347 C 1013.5105,686.15135 1013.4093,687.05971 1013.2071,687.85977 C 1013.0048,688.65383 1012.6954,689.35465 1012.279,689.96222 C 1011.8031,690.66003 1011.2319,691.15632 1010.5657,691.45108 C 1009.8993,691.73983 1008.8999,691.8842 1007.5673,691.8842 L 1005.1519,691.8842 L 1005.1519,678.41227" stroke-opacity="1" fill="white" font-family="Bitstream Vera Sans" text-anchor="start" stroke="none" font-style="normal" stroke-linejoin="miter" fill-opacity="1" font-weight="bold" stroke-linecap="butt" stroke-width="1.25" font-stretch="normal" font-size="16" font-variant="normal" writing-mode="lr-tb"/>
 <path id="path3532" d="M 1021.8214,686.80404 L 1021.8214,687.72442 L 1016.842,687.72442 C 1016.8936,688.48238 1017.074,689.05086 1017.3834,689.42984 C 1017.6927,689.80883 1018.125,689.99831 1018.6803,689.99831 C 1019.1284,689.99831 1019.5865,689.89906 1020.0545,689.70054 C 1020.5265,689.49602 1021.0104,689.18922 1021.5061,688.78015 L 1021.5061,691.27061 C 1021.0024,691.55936 1020.4987,691.77592 1019.995,691.92029 C 1019.4913,692.07069 1018.9877,692.14589 1018.484,692.14589 C 1017.2783,692.14589 1016.3403,691.68269 1015.67,690.75628 C 1015.0037,689.82386 1014.6706,688.51848 1014.6706,686.84013 C 1014.6706,685.19186 1014.9978,683.89549 1015.6522,682.95104 C 1016.3105,682.0066 1017.2148,681.53438 1018.365,681.53437 C 1019.412,681.53438 1020.2489,682.01262 1020.8755,682.96908 C 1021.5061,683.92558 1021.8214,685.20389 1021.8214,686.80404 M 1019.6322,685.73025 C 1019.6321,685.11667 1019.5132,684.62338 1019.2752,684.25041 C 1019.0412,683.87143 1018.7338,683.68195 1018.3531,683.68193 C 1017.9406,683.68195 1017.6055,683.8594 1017.3477,684.21432 C 1017.0899,684.56323 1016.9292,685.06854 1016.8658,685.73025 L 1019.6322,685.73025" stroke-opacity="1" fill="white" font-family="Bitstream Vera Sans" text-anchor="start" stroke="none" font-style="normal" stroke-linejoin="miter" fill-opacity="1" font-weight="bold" stroke-linecap="butt" stroke-width="1.25" font-stretch="normal" font-size="16" font-variant="normal" writing-mode="lr-tb"/>
 <path id="path3530" d="M 1028.6332,682.09382 L 1028.6332,684.54818 C 1028.1771,684.25944 1027.7369,684.04288 1027.3125,683.8985 C 1026.8881,683.75413 1026.4876,683.68195 1026.1108,683.68193 C 1025.7062,683.68195 1025.4048,683.76015 1025.2065,683.91655 C 1025.0122,684.06694 1024.915,684.30155 1024.915,684.62037 C 1024.915,684.87905 1024.9884,685.07756 1025.1351,685.21592 C 1025.2858,685.35428 1025.5535,685.45655 1025.9383,685.52271 L 1026.313,685.60392 C 1027.4037,685.81447 1028.1374,686.16037 1028.5142,686.64161 C 1028.891,687.12286 1029.0794,687.87782 1029.0794,688.90649 C 1029.0794,689.98328 1028.8176,690.79237 1028.2941,691.33378 C 1027.7706,691.87518 1026.9893,692.14589 1025.9501,692.14589 C 1025.5099,692.14589 1025.0538,692.09174 1024.5818,691.98346 C 1024.1138,691.8812 1023.632,691.72479 1023.1362,691.51424 L 1023.1362,689.05988 C 1023.5606,689.3727 1023.9949,689.6073 1024.4391,689.76371 C 1024.8872,689.92012 1025.3413,689.99831 1025.8014,689.99831 C 1026.2179,689.99831 1026.5312,689.91109 1026.7414,689.73664 C 1026.9516,689.56219 1027.0567,689.30351 1027.0567,688.96062 C 1027.0567,688.67188 1026.9833,688.45832 1026.8366,688.31997 C 1026.6938,688.17559 1026.4062,688.06431 1025.9739,687.98609 L 1025.5991,687.91391 C 1024.6512,687.73345 1023.9869,687.39959 1023.6062,686.91232 C 1023.2254,686.42506 1023.0351,685.68514 1023.0351,684.69256 C 1023.0351,683.62179 1023.277,682.82774 1023.7609,682.31038 C 1024.2447,681.79304 1024.9864,681.53438 1025.9858,681.53437 C 1026.3785,681.53438 1026.791,681.5795 1027.2233,681.66971 C 1027.6556,681.75997 1028.1255,681.90133 1028.6332,682.09382" stroke-opacity="1" fill="white" font-family="Bitstream Vera Sans" text-anchor="start" stroke="none" font-style="normal" stroke-linejoin="miter" fill-opacity="1" font-weight="bold" stroke-linecap="butt" stroke-width="1.25" font-stretch="normal" font-size="16" font-variant="normal" writing-mode="lr-tb"/>
 <path id="path3529" d="M 1030.6857,677.84379 L 1032.8155,677.84379 L 1032.8155,685.48661 L 1035.2665,681.77799 L 1037.7414,681.77799 L 1034.4872,686.41603 L 1037.9972,691.8842 L 1035.4152,691.8842 L 1032.8155,687.67028 L 1032.8155,691.8842 L 1030.6857,691.8842 L 1030.6857,677.84379" stroke-opacity="1" fill="white" font-family="Bitstream Vera Sans" text-anchor="start" stroke="none" font-style="normal" stroke-linejoin="miter" fill-opacity="1" font-weight="bold" stroke-linecap="butt" stroke-width="1.25" font-stretch="normal" font-size="16" font-variant="normal" writing-mode="lr-tb"/>
 <path id="path3528" d="M 1041.1264,678.90856 L 1041.1264,681.77799 L 1043.3217,681.77799 L 1043.3217,684.08798 L 1041.1264,684.08798 L 1041.1264,688.3741 C 1041.1264,688.84332 1041.1879,689.16216 1041.3109,689.33059 C 1041.4338,689.493 1041.6777,689.57422 1042.0426,689.57421 L 1043.1372,689.57421 L 1043.1372,691.8842 L 1041.3109,691.8842 C 1040.47,691.8842 1039.8731,691.61952 1039.5202,691.09014 C 1039.1711,690.55476 1038.9966,689.64941 1038.9966,688.3741 L 1038.9966,684.08798 L 1037.9377,684.08798 L 1037.9377,681.77799 L 1038.9966,681.77799 L 1038.9966,678.90856 L 1041.1264,678.90856" stroke-opacity="1" fill="white" font-family="Bitstream Vera Sans" text-anchor="start" stroke="none" font-style="normal" stroke-linejoin="miter" fill-opacity="1" font-weight="bold" stroke-linecap="butt" stroke-width="1.25" font-stretch="normal" font-size="16" font-variant="normal" writing-mode="lr-tb"/>
 <path id="path3527" d="M 1047.8014,683.84436 C 1047.3294,683.84436 1046.9685,684.10303 1046.7186,684.62037 C 1046.4727,685.13171 1046.3498,685.87162 1046.3498,686.84013 C 1046.3498,687.80864 1046.4727,688.55157 1046.7186,689.0689 C 1046.9685,689.58023 1047.3294,689.8359 1047.8014,689.8359 C 1048.2654,689.8359 1048.6204,689.58023 1048.8663,689.0689 C 1049.1122,688.55157 1049.2351,687.80864 1049.2351,686.84013 C 1049.2351,685.87162 1049.1122,685.13171 1048.8663,684.62037 C 1048.6204,684.10303 1048.2654,683.84436 1047.8014,683.84436 M 1047.8014,681.53437 C 1048.9476,681.53438 1049.8419,682.0036 1050.4844,682.94202 C 1051.1309,683.88046 1051.4541,685.17982 1051.4541,686.84013 C 1051.4541,688.50044 1051.1309,689.7998 1050.4844,690.73824 C 1049.8419,691.67667 1048.9476,692.14589 1047.8014,692.14589 C 1046.6512,692.14589 1045.7509,691.67667 1045.1005,690.73824 C 1044.454,689.7998 1044.1307,688.50044 1044.1307,686.84013 C 1044.1307,685.17982 1044.454,683.88046 1045.1005,682.94202 C 1045.7509,682.0036 1046.6512,681.53438 1047.8014,681.53437" stroke-opacity="1" fill="white" font-family="Bitstream Vera Sans" text-anchor="start" stroke="none" font-style="normal" stroke-linejoin="miter" fill-opacity="1" font-weight="bold" stroke-linecap="butt" stroke-width="1.25" font-stretch="normal" font-size="16" font-variant="normal" writing-mode="lr-tb"/>
 <path id="path3525" d="M 1055.1367,690.42242 L 1055.1367,695.72817 L 1053.0069,695.72817 L 1053.0069,681.77799 L 1055.1367,681.77799 L 1055.1367,683.25783 C 1055.4302,682.66832 1055.7554,682.2352 1056.1123,681.95846 C 1056.4693,681.67574 1056.8798,681.53438 1057.3438,681.53437 C 1058.1648,681.53438 1058.839,682.03066 1059.3665,683.02323 C 1059.894,684.00979 1060.1577,685.28209 1060.1578,686.84013 C 1060.1577,688.39817 1059.894,689.67347 1059.3665,690.66605 C 1058.839,691.6526 1058.1648,692.14589 1057.3438,692.14589 C 1056.8798,692.14589 1056.4693,692.00753 1056.1123,691.73081 C 1055.7554,691.44807 1055.4302,691.01195 1055.1367,690.42242 M 1056.5526,683.88046 C 1056.0965,683.88046 1055.7455,684.13613 1055.4996,684.64744 C 1055.2576,685.15276 1055.1367,685.88366 1055.1367,686.84013 C 1055.1367,687.79662 1055.2576,688.53051 1055.4996,689.04184 C 1055.7455,689.54715 1056.0965,689.7998 1056.5526,689.7998 C 1057.0087,689.7998 1057.3557,689.54715 1057.5937,689.04184 C 1057.8356,688.53653 1057.9566,687.80262 1057.9566,686.84013 C 1057.9566,685.87764 1057.8356,685.14373 1057.5937,684.63842 C 1057.3557,684.13311 1057.0087,683.88046 1056.5526,683.88046" stroke-opacity="1" fill="white" font-family="Bitstream Vera Sans" text-anchor="start" stroke="none" font-style="normal" stroke-linejoin="miter" fill-opacity="1" font-weight="bold" stroke-linecap="butt" stroke-width="1.25" font-stretch="normal" font-size="16" font-variant="normal" writing-mode="lr-tb"/>
 <path id="path3523" d="M 1066.0712,678.41227 L 1072.2524,678.41227 L 1072.2524,681.03808 L 1068.3616,681.03808 L 1068.3616,683.54658 L 1072.0204,683.54658 L 1072.0204,686.17239 L 1068.3616,686.17239 L 1068.3616,689.2584 L 1072.3832,689.2584 L 1072.3832,691.8842 L 1066.0712,691.8842 L 1066.0712,678.41227" stroke-opacity="1" fill="white" font-family="Bitstream Vera Sans" text-anchor="start" stroke="none" font-style="normal" stroke-linejoin="miter" fill-opacity="1" font-weight="bold" stroke-linecap="butt" stroke-width="1.25" font-stretch="normal" font-size="16" font-variant="normal" writing-mode="lr-tb"/>
 <path id="path3522" d="M 1081.0036,685.73025 L 1081.0036,691.8842 L 1078.8619,691.8842 L 1078.8619,690.88261 L 1078.8619,687.17399 C 1078.8619,686.30174 1078.848,685.70017 1078.8202,685.36931 C 1078.7964,685.03846 1078.7528,684.79483 1078.6893,684.63842 C 1078.6061,684.42788 1078.493,684.26546 1078.3502,684.15115 C 1078.2075,684.03085 1078.0448,683.9707 1077.8624,683.97068 C 1077.4182,683.9707 1077.0692,684.23237 1076.8154,684.75572 C 1076.5615,685.27307 1076.4346,685.99194 1076.4346,686.91232 L 1076.4346,691.8842 L 1074.3048,691.8842 L 1074.3048,681.77799 L 1076.4346,681.77799 L 1076.4346,683.25783 C 1076.7559,682.66832 1077.097,682.2352 1077.4579,681.95846 C 1077.8188,681.67574 1078.2174,681.53438 1078.6537,681.53437 C 1079.4231,681.53438 1080.0061,681.8923 1080.4027,682.60815 C 1080.8033,683.32401 1081.0036,684.36471 1081.0036,685.73025" stroke-opacity="1" fill="white" font-family="Bitstream Vera Sans" text-anchor="start" stroke="none" font-style="normal" stroke-linejoin="miter" fill-opacity="1" font-weight="bold" stroke-linecap="butt" stroke-width="1.25" font-stretch="normal" font-size="16" font-variant="normal" writing-mode="lr-tb"/>
 <path id="path3521" d="M 1082.1518,681.77799 L 1084.2815,681.77799 L 1085.9414,688.76211 L 1087.5952,681.77799 L 1089.731,681.77799 L 1087.1074,691.8842 L 1084.7694,691.8842 L 1082.1518,681.77799" stroke-opacity="1" fill="white" font-family="Bitstream Vera Sans" text-anchor="start" stroke="none" font-style="normal" stroke-linejoin="miter" fill-opacity="1" font-weight="bold" stroke-linecap="butt" stroke-width="1.25" font-stretch="normal" font-size="16" font-variant="normal" writing-mode="lr-tb"/>
 <path id="path3520" d="M 1090.9386,681.77799 L 1093.0684,681.77799 L 1093.0684,691.8842 L 1090.9386,691.8842 L 1090.9386,681.77799" stroke-opacity="1" fill="white" font-family="Bitstream Vera Sans" text-anchor="start" stroke="none" font-style="normal" stroke-linejoin="miter" fill-opacity="1" font-weight="bold" stroke-linecap="butt" stroke-width="1.25" font-stretch="normal" font-size="16" font-variant="normal" writing-mode="lr-tb"/>
 <path id="path3519" d="M 1090.9386,677.84379 L 1093.0684,677.84379 L 1093.0684,680.47863 L 1090.9386,680.47863 L 1090.9386,677.84379" stroke-opacity="1" fill="white" font-family="Bitstream Vera Sans" text-anchor="start" stroke="none" font-style="normal" stroke-linejoin="miter" fill-opacity="1" font-weight="bold" stroke-linecap="butt" stroke-width="1.25" font-stretch="normal" font-size="16" font-variant="normal" writing-mode="lr-tb"/>
 <path id="path3518" d="M 1100.0765,684.53014 C 1099.8901,684.3978 1099.7037,684.30155 1099.5173,684.24139 C 1099.3349,684.17522 1099.1504,684.14214 1098.964,684.14213 C 1098.4167,684.14214 1097.9943,684.40984 1097.6969,684.94521 C 1097.4034,685.47459 1097.2566,686.23556 1097.2566,687.22813 L 1097.2566,691.8842 L 1095.1268,691.8842 L 1095.1268,681.77799 L 1097.2566,681.77799 L 1097.2566,683.4383 C 1097.5303,682.7766 1097.8436,682.29535 1098.1966,681.99456 C 1098.5536,681.68778 1098.9799,681.53438 1099.4757,681.53437 C 1099.5471,681.53438 1099.6244,681.54039 1099.7077,681.55241 C 1099.791,681.55844 1099.9119,681.57648 1100.0706,681.60656 L 1100.0765,684.53014" stroke-opacity="1" fill="white" font-family="Bitstream Vera Sans" text-anchor="start" stroke="none" font-style="normal" stroke-linejoin="miter" fill-opacity="1" font-weight="bold" stroke-linecap="butt" stroke-width="1.25" font-stretch="normal" font-size="16" font-variant="normal" writing-mode="lr-tb"/>
 <path id="path3517" d="M 1104.3183,683.84436 C 1103.8463,683.84436 1103.4854,684.10303 1103.2355,684.62037 C 1102.9896,685.13171 1102.8667,685.87162 1102.8667,686.84013 C 1102.8667,687.80864 1102.9896,688.55157 1103.2355,689.0689 C 1103.4854,689.58023 1103.8463,689.8359 1104.3183,689.8359 C 1104.7823,689.8359 1105.1373,689.58023 1105.3832,689.0689 C 1105.6291,688.55157 1105.752,687.80864 1105.752,686.84013 C 1105.752,685.87162 1105.6291,685.13171 1105.3832,684.62037 C 1105.1373,684.10303 1104.7823,683.84436 1104.3183,683.84436 M 1104.3183,681.53437 C 1105.4645,681.53438 1106.3588,682.0036 1107.0013,682.94202 C 1107.6478,683.88046 1107.971,685.17982 1107.9711,686.84013 C 1107.971,688.50044 1107.6478,689.7998 1107.0013,690.73824 C 1106.3588,691.67667 1105.4645,692.14589 1104.3183,692.14589 C 1103.1681,692.14589 1102.2678,691.67667 1101.6174,690.73824 C 1100.9709,689.7998 1100.6477,688.50044 1100.6477,686.84013 C 1100.6477,685.17982 1100.9709,683.88046 1101.6174,682.94202 C 1102.2678,682.0036 1103.1681,681.53438 1104.3183,681.53437" stroke-opacity="1" fill="white" font-family="Bitstream Vera Sans" text-anchor="start" stroke="none" font-style="normal" stroke-linejoin="miter" fill-opacity="1" font-weight="bold" stroke-linecap="butt" stroke-width="1.25" font-stretch="normal" font-size="16" font-variant="normal" writing-mode="lr-tb"/>
 <path id="path3515" d="M 1116.2225,685.73025 L 1116.2225,691.8842 L 1114.0808,691.8842 L 1114.0808,690.88261 L 1114.0808,687.17399 C 1114.0808,686.30174 1114.0669,685.70017 1114.0392,685.36931 C 1114.0154,685.03846 1113.9718,684.79483 1113.9083,684.63842 C 1113.825,684.42788 1113.712,684.26546 1113.5692,684.15115 C 1113.4264,684.03085 1113.2638,683.9707 1113.0814,683.97068 C 1112.6372,683.9707 1112.2882,684.23237 1112.0343,684.75572 C 1111.7805,685.27307 1111.6536,685.99194 1111.6536,686.91232 L 1111.6536,691.8842 L 1109.5238,691.8842 L 1109.5238,681.77799 L 1111.6536,681.77799 L 1111.6536,683.25783 C 1111.9748,682.66832 1112.3159,682.2352 1112.6768,681.95846 C 1113.0377,681.67574 1113.4363,681.53438 1113.8726,681.53437 C 1114.642,681.53438 1115.225,681.8923 1115.6217,682.60815 C 1116.0222,683.32401 1116.2225,684.36471 1116.2225,685.73025" stroke-opacity="1" fill="white" font-family="Bitstream Vera Sans" text-anchor="start" stroke="none" font-style="normal" stroke-linejoin="miter" fill-opacity="1" font-weight="bold" stroke-linecap="butt" stroke-width="1.25" font-stretch="normal" font-size="16" font-variant="normal" writing-mode="lr-tb"/>
 <path id="path3514" d="M 1124.3848,683.45635 C 1124.6544,682.83074 1124.9737,682.3555 1125.3426,682.03065 C 1125.7154,681.6998 1126.1239,681.53438 1126.5681,681.53437 C 1127.3335,681.53438 1127.9166,681.8923 1128.3171,682.60815 C 1128.7177,683.32401 1128.918,684.36471 1128.918,685.73025 L 1128.918,691.8842 L 1126.7763,691.8842 L 1126.7763,686.61454 C 1126.7803,686.53634 1126.7823,686.45514 1126.7823,686.37091 C 1126.7862,686.2867 1126.7882,686.16639 1126.7882,686.00998 C 1126.7882,685.29412 1126.7188,684.77678 1126.58,684.45795 C 1126.4412,684.13311 1126.2171,683.9707 1125.9077,683.97068 C 1125.5032,683.9707 1125.1899,684.22335 1124.9678,684.72865 C 1124.7496,685.23397 1124.6366,685.96486 1124.6287,686.92134 L 1124.6287,691.8842 L 1122.487,691.8842 L 1122.487,686.61454 C 1122.487,685.49565 1122.4235,684.77678 1122.2966,684.45795 C 1122.1697,684.13311 1121.9436,683.9707 1121.6184,683.97068 C 1121.2099,683.9707 1120.8946,684.22635 1120.6725,684.73767 C 1120.4504,685.24299 1120.3393,685.96787 1120.3393,686.91232 L 1120.3393,691.8842 L 1118.1976,691.8842 L 1118.1976,681.77799 L 1120.3393,681.77799 L 1120.3393,683.25783 C 1120.6011,682.68636 1120.9005,682.25626 1121.2377,681.96749 C 1121.5787,681.67876 1121.9535,681.53438 1122.362,681.53437 C 1122.8221,681.53438 1123.2286,681.70282 1123.5816,682.03968 C 1123.9346,682.37656 1124.2023,682.84879 1124.3848,683.45635" stroke-opacity="1" fill="white" font-family="Bitstream Vera Sans" text-anchor="start" stroke="none" font-style="normal" stroke-linejoin="miter" fill-opacity="1" font-weight="bold" stroke-linecap="butt" stroke-width="1.25" font-stretch="normal" font-size="16" font-variant="normal" writing-mode="lr-tb"/>
 <path id="path3513" d="M 1137.5681,686.80404 L 1137.5681,687.72442 L 1132.5886,687.72442 C 1132.6402,688.48238 1132.8206,689.05086 1133.13,689.42984 C 1133.4394,689.80883 1133.8717,689.99831 1134.4269,689.99831 C 1134.8751,689.99831 1135.3332,689.89906 1135.8012,689.70054 C 1136.2731,689.49602 1136.757,689.18922 1137.2528,688.78015 L 1137.2528,691.27061 C 1136.7491,691.55936 1136.2454,691.77592 1135.7417,691.92029 C 1135.238,692.07069 1134.7343,692.14589 1134.2306,692.14589 C 1133.0249,692.14589 1132.0869,691.68269 1131.4166,690.75628 C 1130.7503,689.82386 1130.4172,688.51848 1130.4172,686.84013 C 1130.4172,685.19186 1130.7444,683.89549 1131.3988,682.95104 C 1132.0572,682.0066 1132.9614,681.53438 1134.1116,681.53437 C 1135.1587,681.53438 1135.9955,682.01262 1136.6222,682.96908 C 1137.2528,683.92558 1137.5681,685.20389 1137.5681,686.80404 M 1135.3788,685.73025 C 1135.3788,685.11667 1135.2598,684.62338 1135.0218,684.25041 C 1134.7878,683.87143 1134.4805,683.68195 1134.0997,683.68193 C 1133.6872,683.68195 1133.3521,683.8594 1133.0943,684.21432 C 1132.8365,684.56323 1132.6759,685.06854 1132.6124,685.73025 L 1135.3788,685.73025" stroke-opacity="1" fill="white" font-family="Bitstream Vera Sans" text-anchor="start" stroke="none" font-style="normal" stroke-linejoin="miter" fill-opacity="1" font-weight="bold" stroke-linecap="butt" stroke-width="1.25" font-stretch="normal" font-size="16" font-variant="normal" writing-mode="lr-tb"/>
 <path id="path3511" d="M 1145.8731,685.73025 L 1145.8731,691.8842 L 1143.7314,691.8842 L 1143.7314,690.88261 L 1143.7314,687.17399 C 1143.7314,686.30174 1143.7175,685.70017 1143.6897,685.36931 C 1143.6659,685.03846 1143.6223,684.79483 1143.5589,684.63842 C 1143.4756,684.42788 1143.3625,684.26546 1143.2198,684.15115 C 1143.077,684.03085 1142.9144,683.9707 1142.7319,683.97068 C 1142.2877,683.9707 1141.9387,684.23237 1141.6849,684.75572 C 1141.431,685.27307 1141.3041,685.99194 1141.3041,686.91232 L 1141.3041,691.8842 L 1139.1743,691.8842 L 1139.1743,681.77799 L 1141.3041,681.77799 L 1141.3041,683.25783 C 1141.6254,682.66832 1141.9665,682.2352 1142.3274,681.95846 C 1142.6883,681.67574 1143.0869,681.53438 1143.5232,681.53437 C 1144.2926,681.53438 1144.8756,681.8923 1145.2722,682.60815 C 1145.6728,683.32401 1145.8731,684.36471 1145.8731,685.73025" stroke-opacity="1" fill="white" font-family="Bitstream Vera Sans" text-anchor="start" stroke="none" font-style="normal" stroke-linejoin="miter" fill-opacity="1" font-weight="bold" stroke-linecap="butt" stroke-width="1.25" font-stretch="normal" font-size="16" font-variant="normal" writing-mode="lr-tb"/>
 <path id="path3510" d="M 1150.1862,678.90856 L 1150.1862,681.77799 L 1152.3814,681.77799 L 1152.3814,684.08798 L 1150.1862,684.08798 L 1150.1862,688.3741 C 1150.1862,688.84332 1150.2477,689.16216 1150.3706,689.33059 C 1150.4936,689.493 1150.7375,689.57422 1151.1024,689.57421 L 1152.197,689.57421 L 1152.197,691.8842 L 1150.3706,691.8842 C 1149.5298,691.8842 1148.9329,691.61952 1148.5799,691.09014 C 1148.2309,690.55476 1148.0564,689.64941 1148.0564,688.3741 L 1148.0564,684.08798 L 1146.9975,684.08798 L 1146.9975,681.77799 L 1148.0564,681.77799 L 1148.0564,678.90856 L 1150.1862,678.90856" stroke-opacity="1" fill="white" font-family="Bitstream Vera Sans" text-anchor="start" stroke="none" font-style="normal" stroke-linejoin="miter" fill-opacity="1" font-weight="bold" stroke-linecap="butt" stroke-width="1.25" font-stretch="normal" font-size="16" font-variant="normal" writing-mode="lr-tb"/>
 <path sodipodi:nodetypes="cscscc" inkscape:connector-curvature="0" d="m 214.15539,181.29101 c 0.0124,-33.03877 -40.64013,-41.47744 -88.23638,-41.47744 -47.596223,0 -84.105433,8.43867 -84.093013,41.47744 -0.0124,33.03877 38.56847,59.82657 86.164693,59.82657 47.59625,0 86.17712,-26.7878 86.1647,-59.82657 z" id="path2047" stroke-opacity="1" fill="url(#linearGradient2049)" fill-rule="evenodd" stroke="none" stroke-linejoin="miter" fill-opacity="1" stroke-linecap="butt" stroke-width="1.25"/>
 <path sodipodi:nodetypes="cccc" inkscape:connector-curvature="0" d="M 127.59676,242.24217 C 65.844674,242.24217 15.787453,192.255 15.797171,130.59909 15.787471,68.94318 65.844674,18.956026 127.59676,18.956026 c -110.829344,1.328589 -110.532882,221.195294 0,223.286144 z" id="path4303" stroke-opacity="1" fill="url(#radialGradient4321)" fill-rule="evenodd" stroke="none" stroke-linejoin="miter" fill-opacity="1" stroke-linecap="butt" stroke-width="0.446" stroke-miterlimit="4"/>
 <path inkscape:connector-curvature="0" d="m 239.51697,130.66775 c 0.01,61.65591 -50.04751,111.64308 -111.7996,111.64308 -61.752077,0 -111.809298,-49.98717 -111.799578,-111.64308 -0.01,-61.655908 50.047501,-111.643061 111.799578,-111.643061 61.75209,0 111.80931,49.987153 111.7996,111.643061 z" id="path4261" stroke-opacity="1" fill="url(#radialGradient4271)" fill-rule="evenodd" stroke="none" stroke-linejoin="miter" fill-opacity="1" stroke-linecap="butt" stroke-width="0.446" stroke-miterlimit="4"/>
</svg>
