<?xml version="1.0" encoding="UTF-8" standalone="no"?>
<!-- Created with Inkscape (http://www.inkscape.org/) -->

<svg
   xmlns:dc="http://purl.org/dc/elements/1.1/"
   xmlns:cc="http://creativecommons.org/ns#"
   xmlns:rdf="http://www.w3.org/1999/02/22-rdf-syntax-ns#"
   xmlns:svg="http://www.w3.org/2000/svg"
   xmlns="http://www.w3.org/2000/svg"
   xmlns:xlink="http://www.w3.org/1999/xlink"
   xmlns:sodipodi="http://sodipodi.sourceforge.net/DTD/sodipodi-0.dtd"
   xmlns:inkscape="http://www.inkscape.org/namespaces/inkscape"
   id="svg2"
   sodipodi:version="0.32"
   inkscape:version="0.91 r13725"
   width="256"
   height="256"
   sodipodi:docname="pet.svg"
   inkscape:output_extension="org.inkscape.output.svg.inkscape"
   version="1.1">
  <sodipodi:namedview
     inkscape:window-height="1056"
     inkscape:window-width="1920"
     inkscape:pageshadow="2"
     inkscape:pageopacity="0.0"
     guidetolerance="10.0"
     gridtolerance="10.0"
     objecttolerance="10.0"
     borderopacity="1.0"
     bordercolor="#666666"
     pagecolor="#ffffff"
     id="base"
     showgrid="false"
     inkscape:zoom="3.2382812"
     inkscape:cx="128"
     inkscape:cy="128"
     inkscape:window-x="0"
     inkscape:window-y="0"
     inkscape:current-layer="svg2"
     inkscape:window-maximized="1" />
  <metadata
     id="metadata7">
    <rdf:RDF>
      <cc:Work>
        <dc:format>image/svg+xml</dc:format>
        <dc:type
           rdf:resource="http://purl.org/dc/dcmitype/StillImage" />
      </cc:Work>
    </rdf:RDF>
  </metadata>
  <defs
     id="defs5">
    <linearGradient
       id="linearGradient3208">
      <stop
         id="stop3210"
         stop-color="#6b5c12"
         stop-opacity="1" />
      <stop
         id="stop3212"
         offset="1"
         stop-color="#ffffff"
         stop-opacity="1" />
    </linearGradient>
    <linearGradient
       id="linearGradient3200">
      <stop
         id="stop3202"
         stop-color="#b1a55d"
         stop-opacity="1" />
      <stop
         id="stop3204"
         offset="1"
         stop-color="#f2e7be"
         stop-opacity="1" />
    </linearGradient>
    <linearGradient
       id="linearGradient3192">
      <stop
         id="stop3194"
         stop-color="#000000"
         stop-opacity="1" />
      <stop
         id="stop3196"
         offset="1"
         stop-color="#796210"
         stop-opacity="1" />
    </linearGradient>
    <linearGradient
       id="linearGradient3578">
      <stop
         id="stop3580"
         stop-color="#000000"
         stop-opacity="1" />
      <stop
         id="stop3582"
         offset="1"
         stop-color="#fffcfc"
         stop-opacity="1" />
    </linearGradient>
    <linearGradient
       id="linearGradient9923">
      <stop
         id="stop9925"
         stop-color="#000007"
         stop-opacity="1" />
      <stop
         offset="1"
         id="stop9927"
         stop-color="#8b8b93"
         stop-opacity="1" />
    </linearGradient>
    <linearGradient
       id="linearGradient9915">
      <stop
         id="stop9917"
         stop-color="#a9a9a9"
         stop-opacity="1" />
      <stop
         offset="1"
         id="stop9919"
         stop-color="#000000"
         stop-opacity="1" />
    </linearGradient>
    <linearGradient
       inkscape:collect="always"
       xlink:href="#linearGradient9915"
       id="linearGradient5968"
       gradientUnits="userSpaceOnUse"
       spreadMethod="reflect"
       x1="40.29"
       y1="67.61"
       x2="44.71"
       y2="76.02" />
    <linearGradient
       inkscape:collect="always"
       xlink:href="#linearGradient9923"
       id="linearGradient6366"
       gradientUnits="userSpaceOnUse"
       spreadMethod="reflect"
       x1="138.64"
       y1="112.74"
       x2="114.78"
       y2="68.52" />
    <linearGradient
       inkscape:collect="always"
       xlink:href="#linearGradient9915"
       id="linearGradient6368"
       gradientUnits="userSpaceOnUse"
       spreadMethod="reflect"
       x1="37.12"
       y1="174.5"
       x2="30.426"
       y2="158.62" />
    <linearGradient
       inkscape:collect="always"
       xlink:href="#linearGradient9923"
       id="linearGradient6512"
       gradientUnits="userSpaceOnUse"
       gradientTransform="matrix(1.5367444,0,0,1.5367444,3.1644277,-61.318238)"
       spreadMethod="reflect"
       x1="61.974"
       y1="175.09"
       x2="76.68"
       y2="160.48" />
    <linearGradient
       inkscape:collect="always"
       xlink:href="#linearGradient3200"
       id="linearGradient6803"
       gradientUnits="userSpaceOnUse"
       gradientTransform="matrix(1.1527289,0,0,1.1527289,-17.627899,-35.434888)"
       x1="121.08"
       y1="197.15"
       x2="214.14"
       y2="93.57" />
    <linearGradient
       inkscape:collect="always"
       xlink:href="#linearGradient3192"
       id="linearGradient6806"
       gradientUnits="userSpaceOnUse"
       gradientTransform="matrix(1.1527289,0,0,1.1527289,-17.627899,-35.434888)"
       x1="18.19"
       y1="135.52"
       x2="111.6"
       y2="116.39" />
    <linearGradient
       inkscape:collect="always"
       xlink:href="#linearGradient3192"
       id="linearGradient6809"
       gradientUnits="userSpaceOnUse"
       gradientTransform="matrix(1.1527289,0,0,1.1527289,-17.627899,-35.434888)"
       x1="39.475"
       y1="176.6"
       x2="111.78"
       y2="128.64" />
    <linearGradient
       inkscape:collect="always"
       xlink:href="#linearGradient3208"
       id="linearGradient6812"
       gradientUnits="userSpaceOnUse"
       gradientTransform="matrix(1.1527289,0,0,1.1527289,-17.627899,-35.434888)"
       x1="110.78"
       y1="247.32"
       x2="213.25"
       y2="99.9" />
    <linearGradient
       inkscape:collect="always"
       xlink:href="#linearGradient3192"
       id="linearGradient6816"
       gradientUnits="userSpaceOnUse"
       gradientTransform="matrix(1.1527289,0,0,1.1527289,-17.627899,-35.434888)"
       x1="43.01"
       y1="181.32"
       x2="131.44"
       y2="71.855" />
  </defs>
  <g
     id="g6820"
     transform="translate(0.5102041,4.5918367)">
    <path
       sodipodi:nodetypes="ccccc"
       d="M 160.62055,86.349303 L 249.08968,129.27549 L 229.83622,69.277788 L 133.03775,42.75773 L 160.62055,86.349303 z"
       id="path2418"
       stroke-dasharray="none"
       stroke-opacity="1"
       fill="#8f6b1a"
       fill-rule="evenodd"
       stroke="none"
       stroke-linejoin="round"
       fill-opacity="1"
       stroke-linecap="round"
       stroke-width="0.931"
       stroke-dashoffset="0"
       stroke-miterlimit="4" />
    <path
       id="path2400"
       d="M 32.523286,163.94508 L 110.65294,245.35158 L 229.99478,185.42502 L 133.30958,130.14774 L 32.523286,163.94508 z"
       stroke-dasharray="none"
       stroke-opacity="1"
       fill="#afafde"
       fill-rule="evenodd"
       stroke="none"
       stroke-linejoin="round"
       fill-opacity="1"
       stroke-linecap="round"
       stroke-width="0.931"
       stroke-dashoffset="0"
       stroke-miterlimit="4" />
    <path
       id="path2402"
       d="M 32.523286,62.427183 L 32.523286,163.94508 L 133.30958,130.14774 L 133.30958,42.776944 L 32.523286,62.427183 z"
       stroke-dasharray="none"
       stroke-opacity="1"
       fill="url(#linearGradient6816)"
       fill-rule="evenodd"
       stroke="#a6a6a6"
       stroke-linejoin="round"
       fill-opacity="1"
       stroke-linecap="round"
       stroke-width="1.153"
       stroke-dashoffset="0"
       stroke-miterlimit="4" />
    <path
       id="path2404"
       d="M 133.30958,42.776944 L 229.99478,69.438709 L 229.99478,185.42502 L 133.30958,130.14774 L 133.30958,42.776944 z"
       stroke-dasharray="none"
       stroke-opacity="1"
       fill="#5c4915"
       fill-rule="evenodd"
       stroke="#b9b9b9"
       stroke-linejoin="round"
       fill-opacity="1"
       stroke-linecap="round"
       stroke-width="1.153"
       stroke-dashoffset="0"
       stroke-miterlimit="4" />
    <g
       transform="matrix(-1.2314984,0,7.827664e-2,1.2314984,227.24293,-16.670249)"
       id="g9939">
      <g
         id="g8268"
         stroke-dasharray="none"
         fill="url(#linearGradient5968)"
         stroke="#000000"
         stroke-linejoin="round"
         fill-opacity="1"
         stroke-linecap="round"
         stroke-width="0.4"
         stroke-miterlimit="4">
        <path
           id="path8270"
           d="M 73.8125,16.65625 L 70.625,16.96875 L 68.195497,20.146408 L 71.382997,19.833908 L 73.8125,16.65625 z"
           fill="url(#linearGradient5968)"
           fill-opacity="1" />
        <path
           id="path8272"
           d="M 70.625,16.96875 L 69.9375,21.9375 L 67.507997,25.115158 L 68.195497,20.146408 L 70.625,16.96875 z"
           fill="url(#linearGradient5968)"
           fill-opacity="1" />
        <path
           id="path8274"
           d="M 69.9375,21.9375 L 70.28125,25.40625 L 67.851747,28.583908 L 67.507997,25.115158 L 69.9375,21.9375 z"
           fill="url(#linearGradient5968)"
           fill-opacity="1" />
        <path
           id="path8276"
           d="M 70.28125,25.40625 L 70.6875,26.6875 L 68.257997,29.865158 L 67.851747,28.583908 L 70.28125,25.40625 z"
           fill="url(#linearGradient5968)"
           fill-opacity="1" />
        <path
           id="path8278"
           d="M 70.6875,26.6875 L 65.9375,27.84375 L 63.507997,31.021408 L 68.257997,29.865158 L 70.6875,26.6875 z"
           fill="url(#linearGradient5968)"
           fill-opacity="1" />
        <path
           id="path8280"
           d="M 65.9375,27.84375 L 65.40625,26.59375 L 62.976747,29.771408 L 63.507997,31.021408 L 65.9375,27.84375 z"
           fill="url(#linearGradient5968)"
           fill-opacity="1" />
        <path
           id="path8282"
           d="M 65.40625,26.59375 L 63.21875,23.5625 L 60.789247,26.740158 L 62.976747,29.771408 L 65.40625,26.59375 z"
           fill="url(#linearGradient5968)"
           fill-opacity="1" />
        <path
           id="path8284"
           d="M 63.21875,23.5625 L 59.15625,19.78125 L 56.726747,22.958908 L 60.789247,26.740158 L 63.21875,23.5625 z"
           fill="url(#linearGradient5968)"
           fill-opacity="1" />
        <path
           id="path8286"
           d="M 59.15625,19.78125 L 56.28125,20.9375 L 53.851747,24.115158 L 56.726747,22.958908 L 59.15625,19.78125 z"
           fill="url(#linearGradient5968)"
           fill-opacity="1" />
        <path
           id="path8288"
           d="M 56.28125,20.9375 L 56.9375,26.125 L 54.507997,29.302658 L 53.851747,24.115158 L 56.28125,20.9375 z"
           fill="url(#linearGradient5968)"
           fill-opacity="1" />
        <path
           id="path8290"
           d="M 56.9375,26.125 L 58.15625,29.5625 L 55.726747,32.740158 L 54.507997,29.302658 L 56.9375,26.125 z"
           fill="url(#linearGradient5968)"
           fill-opacity="1" />
        <path
           id="path8292"
           d="M 58.15625,29.5625 L 58.875,30.71875 L 56.445497,33.896408 L 55.726747,32.740158 L 58.15625,29.5625 z"
           fill="url(#linearGradient5968)"
           fill-opacity="1" />
        <path
           id="path8294"
           d="M 58.875,30.71875 L 54.78125,33.15625 L 52.351747,36.333908 L 56.445497,33.896408 L 58.875,30.71875 z"
           fill="url(#linearGradient5968)"
           fill-opacity="1" />
        <path
           id="path8296"
           d="M 54.78125,33.15625 L 53.96875,32.0625 L 51.539247,35.240158 L 52.351747,36.333908 L 54.78125,33.15625 z"
           fill="url(#linearGradient5968)"
           fill-opacity="1" />
        <path
           id="path8298"
           d="M 53.96875,32.0625 L 51.15625,29.5625 L 48.726747,32.740158 L 51.539247,35.240158 L 53.96875,32.0625 z"
           fill="url(#linearGradient5968)"
           fill-opacity="1" />
        <path
           id="path8300"
           d="M 51.15625,29.5625 L 46.4375,26.8125 L 44.007997,29.990158 L 48.726747,32.740158 L 51.15625,29.5625 z"
           fill="url(#linearGradient5968)"
           fill-opacity="1" />
        <path
           id="path8302"
           d="M 46.4375,26.8125 L 44.09375,28.75 L 41.664247,31.927658 L 44.007997,29.990158 L 46.4375,26.8125 z"
           fill="url(#linearGradient5968)"
           fill-opacity="1" />
        <path
           id="path8304"
           d="M 44.09375,28.75 L 46.03125,33.8125 L 43.601747,36.990158 L 41.664247,31.927658 L 44.09375,28.75 z"
           fill="url(#linearGradient5968)"
           fill-opacity="1" />
        <path
           id="path8306"
           d="M 46.03125,33.8125 L 48.03125,36.96875 L 45.601747,40.146408 L 43.601747,36.990158 L 46.03125,33.8125 z"
           fill="url(#linearGradient5968)"
           fill-opacity="1" />
        <path
           id="path8308"
           d="M 48.03125,36.96875 L 49,37.96875 L 46.570497,41.146408 L 45.601747,40.146408 L 48.03125,36.96875 z"
           fill="url(#linearGradient5968)"
           fill-opacity="1" />
        <path
           id="path8310"
           d="M 49,37.96875 L 45.875,41.5 L 43.445497,44.677658 L 46.570497,41.146408 L 49,37.96875 z"
           fill="url(#linearGradient5968)"
           fill-opacity="1" />
        <path
           id="path8312"
           d="M 45.875,41.5 L 44.84375,40.59375 L 42.414247,43.771408 L 43.445497,44.677658 L 45.875,41.5 z"
           fill="url(#linearGradient5968)"
           fill-opacity="1" />
        <path
           id="path8314"
           d="M 44.84375,40.59375 L 41.59375,38.84375 L 39.164247,42.021408 L 42.414247,43.771408 L 44.84375,40.59375 z"
           fill="url(#linearGradient5968)"
           fill-opacity="1" />
        <path
           id="path8316"
           d="M 41.59375,38.84375 L 36.53125,37.3125 L 34.101747,40.490158 L 39.164247,42.021408 L 41.59375,38.84375 z"
           fill="url(#linearGradient5968)"
           fill-opacity="1" />
        <path
           id="path8318"
           d="M 36.53125,37.3125 L 34.875,39.90625 L 32.445497,43.083908 L 34.101747,40.490158 L 36.53125,37.3125 z"
           fill="url(#linearGradient5968)"
           fill-opacity="1" />
        <path
           id="path8320"
           d="M 34.875,39.90625 L 37.96875,44.5 L 35.539247,47.677658 L 32.445497,43.083908 L 34.875,39.90625 z"
           fill="url(#linearGradient5968)"
           fill-opacity="1" />
        <path
           id="path8322"
           d="M 37.96875,44.5 L 40.65625,47.125 L 38.226747,50.302658 L 35.539247,47.677658 L 37.96875,44.5 z"
           fill="url(#linearGradient5968)"
           fill-opacity="1" />
        <path
           id="path8324"
           d="M 40.65625,47.125 L 41.8125,47.875 L 39.382997,51.052658 L 38.226747,50.302658 L 40.65625,47.125 z"
           fill="url(#linearGradient5968)"
           fill-opacity="1" />
        <path
           id="path8326"
           d="M 41.8125,47.875 L 39.84375,52.3125 L 37.414247,55.490158 L 39.382997,51.052658 L 41.8125,47.875 z"
           fill="url(#linearGradient5968)"
           fill-opacity="1" />
        <path
           id="path8328"
           d="M 39.84375,52.3125 L 38.625,51.65625 L 36.195497,54.833908 L 37.414247,55.490158 L 39.84375,52.3125 z"
           fill="url(#linearGradient5968)"
           fill-opacity="1" />
        <path
           id="path8330"
           d="M 38.625,51.65625 L 35.1875,50.75 L 32.757997,53.927658 L 36.195497,54.833908 L 38.625,51.65625 z"
           fill="url(#linearGradient5968)"
           fill-opacity="1" />
        <path
           id="path8332"
           d="M 35.1875,50.75 L 30.125,50.5625 L 27.695497,53.740158 L 32.757997,53.927658 L 35.1875,50.75 z"
           fill="url(#linearGradient5968)"
           fill-opacity="1" />
        <path
           id="path8334"
           d="M 30.125,50.5625 L 29.28125,53.625 L 26.851747,56.802658 L 27.695497,53.740158 L 30.125,50.5625 z"
           fill="url(#linearGradient5968)"
           fill-opacity="1" />
        <path
           id="path8336"
           d="M 29.28125,53.625 L 33.3125,57.4375 L 30.882997,60.615158 L 26.851747,56.802658 L 29.28125,53.625 z"
           fill="url(#linearGradient5968)"
           fill-opacity="1" />
        <path
           id="path8338"
           d="M 33.3125,57.4375 L 36.46875,59.375 L 34.039247,62.552658 L 30.882997,60.615158 L 33.3125,57.4375 z"
           fill="url(#linearGradient5968)"
           fill-opacity="1" />
        <path
           id="path8340"
           d="M 36.46875,59.375 L 37.71875,59.84375 L 35.289247,63.021408 L 34.039247,62.552658 L 36.46875,59.375 z"
           fill="url(#linearGradient5968)"
           fill-opacity="1" />
        <path
           id="path8342"
           d="M 37.71875,59.84375 L 37.03125,64.8125 L 34.601747,67.990158 L 35.289247,63.021408 L 37.71875,59.84375 z"
           fill="url(#linearGradient5968)"
           fill-opacity="1" />
        <path
           id="path8344"
           d="M 37.03125,64.8125 L 35.78125,64.5 L 33.351747,67.677658 L 34.601747,67.990158 L 37.03125,64.8125 z"
           fill="url(#linearGradient5968)"
           fill-opacity="1" />
        <path
           id="path8346"
           d="M 35.78125,64.5 L 32.375,64.46875 L 29.945497,67.646408 L 33.351747,67.677658 L 35.78125,64.5 z"
           fill="url(#linearGradient5968)"
           fill-opacity="1" />
        <path
           id="path8348"
           d="M 32.375,64.46875 L 27.65625,65.65625 L 25.226747,68.833908 L 29.945497,67.646408 L 32.375,64.46875 z"
           fill="url(#linearGradient5968)"
           fill-opacity="1" />
        <path
           id="path8350"
           d="M 27.65625,65.65625 L 27.65625,68.96875 L 25.226747,72.146408 L 25.226747,68.833908 L 27.65625,65.65625 z"
           fill="url(#linearGradient5968)"
           fill-opacity="1" />
        <path
           id="path8352"
           d="M 27.65625,68.96875 L 32.375,71.75 L 29.945497,74.927658 L 25.226747,72.146408 L 27.65625,68.96875 z"
           fill="url(#linearGradient5968)"
           fill-opacity="1" />
        <path
           id="path8354"
           d="M 32.375,71.75 L 35.78125,72.875 L 33.351747,76.052658 L 29.945497,74.927658 L 32.375,71.75 z"
           fill="url(#linearGradient5968)"
           fill-opacity="1" />
        <path
           id="path8356"
           d="M 35.78125,72.875 L 37.03125,73 L 34.601747,76.177658 L 33.351747,76.052658 L 35.78125,72.875 z"
           fill="url(#linearGradient5968)"
           fill-opacity="1" />
        <path
           id="path8358"
           d="M 37.03125,73 L 37.71875,78.21875 L 35.289247,81.396408 L 34.601747,76.177658 L 37.03125,73 z"
           fill="url(#linearGradient5968)"
           fill-opacity="1" />
        <path
           id="path8360"
           d="M 37.71875,78.21875 L 36.46875,78.21875 L 34.039247,81.396408 L 35.289247,81.396408 L 37.71875,78.21875 z"
           fill="url(#linearGradient5968)"
           fill-opacity="1" />
        <path
           id="path8362"
           d="M 36.46875,78.21875 L 33.3125,79.09375 L 30.882997,82.271408 L 34.039247,81.396408 L 36.46875,78.21875 z"
           fill="url(#linearGradient5968)"
           fill-opacity="1" />
        <path
           id="path8364"
           d="M 33.3125,79.09375 L 29.28125,81.53125 L 26.851747,84.708908 L 30.882997,82.271408 L 33.3125,79.09375 z"
           fill="url(#linearGradient5968)"
           fill-opacity="1" />
        <path
           id="path8366"
           d="M 29.28125,81.53125 L 30.125,84.875 L 27.695497,88.052658 L 26.851747,84.708908 L 29.28125,81.53125 z"
           fill="url(#linearGradient5968)"
           fill-opacity="1" />
        <path
           id="path8368"
           d="M 30.125,84.875 L 35.1875,86.4375 L 32.757997,89.615158 L 27.695497,88.052658 L 30.125,84.875 z"
           fill="url(#linearGradient5968)"
           fill-opacity="1" />
        <path
           id="path8370"
           d="M 35.1875,86.4375 L 38.625,86.6875 L 36.195497,89.865158 L 32.757997,89.615158 L 35.1875,86.4375 z"
           fill="url(#linearGradient5968)"
           fill-opacity="1" />
        <path
           id="path8372"
           d="M 38.625,86.6875 L 39.84375,86.46875 L 37.414247,89.646408 L 36.195497,89.865158 L 38.625,86.6875 z"
           fill="url(#linearGradient5968)"
           fill-opacity="1" />
        <path
           id="path8374"
           d="M 39.84375,86.46875 L 41.8125,91.53125 L 39.382997,94.708908 L 37.414247,89.646408 L 39.84375,86.46875 z"
           fill="url(#linearGradient5968)"
           fill-opacity="1" />
        <path
           id="path8376"
           d="M 41.8125,91.53125 L 40.65625,91.90625 L 38.226747,95.083908 L 39.382997,94.708908 L 41.8125,91.53125 z"
           fill="url(#linearGradient5968)"
           fill-opacity="1" />
        <path
           id="path8378"
           d="M 40.65625,91.90625 L 37.96875,93.625 L 35.539247,96.802658 L 38.226747,95.083908 L 40.65625,91.90625 z"
           fill="url(#linearGradient5968)"
           fill-opacity="1" />
        <path
           id="path8380"
           d="M 37.96875,93.625 L 34.875,97.15625 L 32.445497,100.33391 L 35.539247,96.802658 L 37.96875,93.625 z"
           fill="url(#linearGradient5968)"
           fill-opacity="1" />
        <path
           id="path8382"
           d="M 34.875,97.15625 L 36.53125,100.3125 L 34.101747,103.49016 L 32.445497,100.33391 L 34.875,97.15625 z"
           fill="url(#linearGradient5968)"
           fill-opacity="1" />
        <path
           id="path8384"
           d="M 36.53125,100.3125 L 41.59375,100.53125 L 39.164247,103.70891 L 34.101747,103.49016 L 36.53125,100.3125 z"
           fill="url(#linearGradient5968)"
           fill-opacity="1" />
        <path
           id="path8386"
           d="M 41.59375,100.53125 L 44.84375,99.875 L 42.414247,103.05266 L 39.164247,103.70891 L 41.59375,100.53125 z"
           fill="url(#linearGradient5968)"
           fill-opacity="1" />
        <path
           id="path8388"
           d="M 44.84375,99.875 L 45.875,99.3125 L 43.445497,102.49016 L 42.414247,103.05266 L 44.84375,99.875 z"
           fill="url(#linearGradient5968)"
           fill-opacity="1" />
        <path
           id="path8390"
           d="M 45.875,99.3125 L 49,103.9375 L 46.570497,107.11516 L 43.445497,102.49016 L 45.875,99.3125 z"
           fill="url(#linearGradient5968)"
           fill-opacity="1" />
        <path
           id="path8392"
           d="M 49,103.9375 L 48.03125,104.59375 L 45.601747,107.77141 L 46.570497,107.11516 L 49,103.9375 z"
           fill="url(#linearGradient5968)"
           fill-opacity="1" />
        <path
           id="path8394"
           d="M 48.03125,104.59375 L 46.03125,107.03125 L 43.601747,110.20891 L 45.601747,107.77141 L 48.03125,104.59375 z"
           fill="url(#linearGradient5968)"
           fill-opacity="1" />
        <path
           id="path8396"
           d="M 46.03125,107.03125 L 44.09375,111.46875 L 41.664247,114.64641 L 43.601747,110.20891 L 46.03125,107.03125 z"
           fill="url(#linearGradient5968)"
           fill-opacity="1" />
        <path
           id="path8398"
           d="M 44.09375,111.46875 L 46.4375,114.1875 L 44.007997,117.36516 L 41.664247,114.64641 L 44.09375,111.46875 z"
           fill="url(#linearGradient5968)"
           fill-opacity="1" />
        <path
           id="path8400"
           d="M 46.4375,114.1875 L 51.15625,113.0625 L 48.726747,116.24016 L 44.007997,117.36516 L 46.4375,114.1875 z"
           fill="url(#linearGradient5968)"
           fill-opacity="1" />
        <path
           id="path8402"
           d="M 51.15625,113.0625 L 53.96875,111.53125 L 51.539247,114.70891 L 48.726747,116.24016 L 51.15625,113.0625 z"
           fill="url(#linearGradient5968)"
           fill-opacity="1" />
        <path
           id="path8404"
           d="M 53.96875,111.53125 L 54.78125,110.6875 L 52.351747,113.86516 L 51.539247,114.70891 L 53.96875,111.53125 z"
           fill="url(#linearGradient5968)"
           fill-opacity="1" />
        <path
           id="path8406"
           d="M 54.78125,110.6875 L 58.875,114.53125 L 56.445497,117.70891 L 52.351747,113.86516 L 54.78125,110.6875 z"
           fill="url(#linearGradient5968)"
           fill-opacity="1" />
        <path
           id="path8408"
           d="M 58.875,114.53125 L 58.15625,115.4375 L 55.726747,118.61516 L 56.445497,117.70891 L 58.875,114.53125 z"
           fill="url(#linearGradient5968)"
           fill-opacity="1" />
        <path
           id="path8410"
           d="M 58.15625,115.4375 L 56.9375,118.46875 L 54.507997,121.64641 L 55.726747,118.61516 L 58.15625,115.4375 z"
           fill="url(#linearGradient5968)"
           fill-opacity="1" />
        <path
           id="path8412"
           d="M 56.9375,118.46875 L 56.28125,123.4375 L 53.851747,126.61516 L 54.507997,121.64641 L 56.9375,118.46875 z"
           fill="url(#linearGradient5968)"
           fill-opacity="1" />
        <path
           id="path8414"
           d="M 56.28125,123.4375 L 59.15625,125.5625 L 56.726747,128.74016 L 53.851747,126.61516 L 56.28125,123.4375 z"
           fill="url(#linearGradient5968)"
           fill-opacity="1" />
        <path
           id="path8416"
           d="M 59.15625,125.5625 L 63.21875,123.15625 L 60.789247,126.33391 L 56.726747,128.74016 L 59.15625,125.5625 z"
           fill="url(#linearGradient5968)"
           fill-opacity="1" />
        <path
           id="path8418"
           d="M 63.21875,123.15625 L 65.40625,120.875 L 62.976747,124.05266 L 60.789247,126.33391 L 63.21875,123.15625 z"
           fill="url(#linearGradient5968)"
           fill-opacity="1" />
        <path
           id="path8420"
           d="M 65.40625,120.875 L 65.9375,119.8125 L 63.507997,122.99016 L 62.976747,124.05266 L 65.40625,120.875 z"
           fill="url(#linearGradient5968)"
           fill-opacity="1" />
        <path
           id="path8422"
           d="M 65.9375,119.8125 L 70.6875,122.59375 L 68.257997,125.77141 L 63.507997,122.99016 L 65.9375,119.8125 z"
           fill="url(#linearGradient5968)"
           fill-opacity="1" />
        <path
           id="path8424"
           d="M 70.6875,122.59375 L 70.28125,123.71875 L 67.851747,126.89641 L 68.257997,125.77141 L 70.6875,122.59375 z"
           fill="url(#linearGradient5968)"
           fill-opacity="1" />
        <path
           id="path8426"
           d="M 70.28125,123.71875 L 69.9375,127.09375 L 67.507997,130.27141 L 67.851747,126.89641 L 70.28125,123.71875 z"
           fill="url(#linearGradient5968)"
           fill-opacity="1" />
        <path
           id="path8428"
           d="M 69.9375,127.09375 L 70.625,132.28125 L 68.195497,135.45891 L 67.507997,130.27141 L 69.9375,127.09375 z"
           fill="url(#linearGradient5968)"
           fill-opacity="1" />
        <path
           id="path8430"
           d="M 70.625,132.28125 L 73.8125,133.6875 L 71.382997,136.86516 L 68.195497,135.45891 L 70.625,132.28125 z"
           fill="url(#linearGradient5968)"
           fill-opacity="1" />
        <path
           id="path8432"
           d="M 73.8125,133.6875 L 76.9375,130.15625 L 74.507997,133.33391 L 71.382997,136.86516 L 73.8125,133.6875 z"
           fill="url(#linearGradient5968)"
           fill-opacity="1" />
        <path
           id="path8434"
           d="M 76.9375,130.15625 L 78.375,127.25 L 75.945497,130.42766 L 74.507997,133.33391 L 76.9375,130.15625 z"
           fill="url(#linearGradient5968)"
           fill-opacity="1" />
        <path
           id="path8436"
           d="M 78.375,127.25 L 78.59375,126.03125 L 76.164247,129.20891 L 75.945497,130.42766 L 78.375,127.25 z"
           fill="url(#linearGradient5968)"
           fill-opacity="1" />
        <path
           id="path8438"
           d="M 78.59375,126.03125 L 83.6875,127.59375 L 81.257997,130.77141 L 76.164247,129.20891 L 78.59375,126.03125 z"
           fill="url(#linearGradient5968)"
           fill-opacity="1" />
        <path
           id="path8440"
           d="M 83.6875,127.59375 L 83.59375,128.84375 L 81.164247,132.02141 L 81.257997,130.77141 L 83.6875,127.59375 z"
           fill="url(#linearGradient5968)"
           fill-opacity="1" />
        <path
           id="path8442"
           d="M 83.59375,128.84375 L 84.15625,132.34375 L 81.726747,135.52141 L 81.164247,132.02141 L 83.59375,128.84375 z"
           fill="url(#linearGradient5968)"
           fill-opacity="1" />
        <path
           id="path8444"
           d="M 84.15625,132.34375 L 86.125,137.40625 L 83.695497,140.58391 L 81.726747,135.52141 L 84.15625,132.34375 z"
           fill="url(#linearGradient5968)"
           fill-opacity="1" />
        <path
           id="path8446"
           d="M 86.125,137.40625 L 89.4375,137.96875 L 87.007997,141.14641 L 83.695497,140.58391 L 86.125,137.40625 z"
           fill="url(#linearGradient5968)"
           fill-opacity="1" />
        <path
           id="path8448"
           d="M 89.4375,137.96875 L 91.40625,133.5625 L 88.976747,136.74016 L 87.007997,141.14641 L 89.4375,137.96875 z"
           fill="url(#linearGradient5968)"
           fill-opacity="1" />
        <path
           id="path8450"
           d="M 91.40625,133.5625 L 91.96875,130.28125 L 89.539247,133.45891 L 88.976747,136.74016 L 91.40625,133.5625 z"
           fill="url(#linearGradient5968)"
           fill-opacity="1" />
        <path
           id="path8452"
           d="M 91.96875,130.28125 L 91.875,128.96875 L 89.445497,132.14641 L 89.539247,133.45891 L 91.96875,130.28125 z"
           fill="url(#linearGradient5968)"
           fill-opacity="1" />
        <path
           id="path8454"
           d="M 91.875,128.96875 L 96.96875,129.1875 L 94.539247,132.36516 L 89.445497,132.14641 L 91.875,128.96875 z"
           fill="url(#linearGradient5968)"
           fill-opacity="1" />
        <path
           id="path8456"
           d="M 96.96875,129.1875 L 97.1875,130.46875 L 94.757997,133.64641 L 94.539247,132.36516 L 96.96875,129.1875 z"
           fill="url(#linearGradient5968)"
           fill-opacity="1" />
        <path
           id="path8458"
           d="M 97.1875,130.46875 L 98.625,133.84375 L 96.195497,137.02141 L 94.757997,133.64641 L 97.1875,130.46875 z"
           fill="url(#linearGradient5968)"
           fill-opacity="1" />
        <path
           id="path8460"
           d="M 98.625,133.84375 L 101.75,138.4375 L 99.320497,141.61516 L 96.195497,137.02141 L 98.625,133.84375 z"
           fill="url(#linearGradient5968)"
           fill-opacity="1" />
        <path
           id="path8462"
           d="M 101.75,138.4375 L 104.9375,138.125 L 102.508,141.30266 L 99.320497,141.61516 L 101.75,138.4375 z"
           fill="url(#linearGradient5968)"
           fill-opacity="1" />
        <path
           id="path8464"
           d="M 104.9375,138.125 L 105.625,133.15625 L 103.1955,136.33391 L 102.508,141.30266 L 104.9375,138.125 z"
           fill="url(#linearGradient5968)"
           fill-opacity="1" />
        <path
           id="path8466"
           d="M 105.625,133.15625 L 105.28125,129.6875 L 102.85175,132.86516 L 103.1955,136.33391 L 105.625,133.15625 z"
           fill="url(#linearGradient5968)"
           fill-opacity="1" />
        <path
           id="path8468"
           d="M 105.28125,129.6875 L 104.84375,128.40625 L 102.41425,131.58391 L 102.85175,132.86516 L 105.28125,129.6875 z"
           fill="url(#linearGradient5968)"
           fill-opacity="1" />
        <path
           id="path8470"
           d="M 104.84375,128.40625 L 109.59375,127.25 L 107.16425,130.42766 L 102.41425,131.58391 L 104.84375,128.40625 z"
           fill="url(#linearGradient5968)"
           fill-opacity="1" />
        <path
           id="path8472"
           d="M 109.59375,127.25 L 110.15625,128.5 L 107.72675,131.67766 L 107.16425,130.42766 L 109.59375,127.25 z"
           fill="url(#linearGradient5968)"
           fill-opacity="1" />
        <path
           id="path8474"
           d="M 110.15625,128.5 L 112.34375,131.53125 L 109.91425,134.70891 L 107.72675,131.67766 L 110.15625,128.5 z"
           fill="url(#linearGradient5968)"
           fill-opacity="1" />
        <path
           id="path8476"
           d="M 112.34375,131.53125 L 116.40625,135.3125 L 113.97675,138.49016 L 109.91425,134.70891 L 112.34375,131.53125 z"
           fill="url(#linearGradient5968)"
           fill-opacity="1" />
        <path
           id="path8478"
           d="M 116.40625,135.3125 L 119.28125,134.15625 L 116.85175,137.33391 L 113.97675,138.49016 L 116.40625,135.3125 z"
           fill="url(#linearGradient5968)"
           fill-opacity="1" />
        <path
           id="path8480"
           d="M 119.28125,134.15625 L 118.625,128.96875 L 116.1955,132.14641 L 116.85175,137.33391 L 119.28125,134.15625 z"
           fill="url(#linearGradient5968)"
           fill-opacity="1" />
        <path
           id="path8482"
           d="M 118.625,128.96875 L 117.40625,125.53125 L 114.97675,128.70891 L 116.1955,132.14641 L 118.625,128.96875 z"
           fill="url(#linearGradient5968)"
           fill-opacity="1" />
        <path
           id="path8484"
           d="M 117.40625,125.53125 L 116.6875,124.375 L 114.258,127.55266 L 114.97675,128.70891 L 117.40625,125.53125 z"
           fill="url(#linearGradient5968)"
           fill-opacity="1" />
        <path
           id="path8486"
           d="M 116.6875,124.375 L 120.75,121.9375 L 118.3205,125.11516 L 114.258,127.55266 L 116.6875,124.375 z"
           fill="url(#linearGradient5968)"
           fill-opacity="1" />
        <path
           id="path8488"
           d="M 120.75,121.9375 L 121.59375,123.03125 L 119.16425,126.20891 L 118.3205,125.11516 L 120.75,121.9375 z"
           fill="url(#linearGradient5968)"
           fill-opacity="1" />
        <path
           id="path8490"
           d="M 121.59375,123.03125 L 124.375,125.53125 L 121.9455,128.70891 L 119.16425,126.20891 L 121.59375,123.03125 z"
           fill="url(#linearGradient5968)"
           fill-opacity="1" />
        <path
           id="path8492"
           d="M 124.375,125.53125 L 129.125,128.28125 L 126.6955,131.45891 L 121.9455,128.70891 L 124.375,125.53125 z"
           fill="url(#linearGradient5968)"
           fill-opacity="1" />
        <path
           id="path8494"
           d="M 129.125,128.28125 L 131.46875,126.34375 L 129.03925,129.52141 L 126.6955,131.45891 L 129.125,128.28125 z"
           fill="url(#linearGradient5968)"
           fill-opacity="1" />
        <path
           id="path8496"
           d="M 131.46875,126.34375 L 129.53125,121.28125 L 127.10175,124.45891 L 129.03925,129.52141 L 131.46875,126.34375 z"
           fill="url(#linearGradient5968)"
           fill-opacity="1" />
        <path
           id="path8498"
           d="M 129.53125,121.28125 L 127.53125,118.125 L 125.10175,121.30266 L 127.10175,124.45891 L 129.53125,121.28125 z"
           fill="url(#linearGradient5968)"
           fill-opacity="1" />
        <path
           id="path8500"
           d="M 127.53125,118.125 L 126.53125,117.125 L 124.10175,120.30266 L 125.10175,121.30266 L 127.53125,118.125 z"
           fill="url(#linearGradient5968)"
           fill-opacity="1" />
        <path
           id="path8502"
           d="M 126.53125,117.125 L 129.6875,113.59375 L 127.258,116.77141 L 124.10175,120.30266 L 126.53125,117.125 z"
           fill="url(#linearGradient5968)"
           fill-opacity="1" />
        <path
           id="path8504"
           d="M 129.6875,113.59375 L 130.71875,114.5 L 128.28925,117.67766 L 127.258,116.77141 L 129.6875,113.59375 z"
           fill="url(#linearGradient5968)"
           fill-opacity="1" />
        <path
           id="path8506"
           d="M 130.71875,114.5 L 133.9375,116.25 L 131.508,119.42766 L 128.28925,117.67766 L 130.71875,114.5 z"
           fill="url(#linearGradient5968)"
           fill-opacity="1" />
        <path
           id="path8508"
           d="M 133.9375,116.25 L 139.03125,117.78125 L 136.60175,120.95891 L 131.508,119.42766 L 133.9375,116.25 z"
           fill="url(#linearGradient5968)"
           fill-opacity="1" />
        <path
           id="path8510"
           d="M 139.03125,117.78125 L 140.6875,115.1875 L 138.258,118.36516 L 136.60175,120.95891 L 139.03125,117.78125 z"
           fill="url(#linearGradient5968)"
           fill-opacity="1" />
        <path
           id="path8512"
           d="M 140.6875,115.1875 L 137.59375,110.59375 L 135.16425,113.77141 L 138.258,118.36516 L 140.6875,115.1875 z"
           fill="url(#linearGradient5968)"
           fill-opacity="1" />
        <path
           id="path8514"
           d="M 137.59375,110.59375 L 134.90625,107.96875 L 132.47675,111.14641 L 135.16425,113.77141 L 137.59375,110.59375 z"
           fill="url(#linearGradient5968)"
           fill-opacity="1" />
        <path
           id="path8516"
           d="M 134.90625,107.96875 L 133.75,107.21875 L 131.3205,110.39641 L 132.47675,111.14641 L 134.90625,107.96875 z"
           fill="url(#linearGradient5968)"
           fill-opacity="1" />
        <path
           id="path8518"
           d="M 133.75,107.21875 L 135.71875,102.78125 L 133.28925,105.95891 L 131.3205,110.39641 L 133.75,107.21875 z"
           fill="url(#linearGradient5968)"
           fill-opacity="1" />
        <path
           id="path8520"
           d="M 135.71875,102.78125 L 136.9375,103.4375 L 134.508,106.61516 L 133.28925,105.95891 L 135.71875,102.78125 z"
           fill="url(#linearGradient5968)"
           fill-opacity="1" />
        <path
           id="path8522"
           d="M 136.9375,103.4375 L 140.34375,104.34375 L 137.91425,107.52141 L 134.508,106.61516 L 136.9375,103.4375 z"
           fill="url(#linearGradient5968)"
           fill-opacity="1" />
        <path
           id="path8524"
           d="M 140.34375,104.34375 L 145.4375,104.53125 L 143.008,107.70891 L 137.91425,107.52141 L 140.34375,104.34375 z"
           fill="url(#linearGradient5968)"
           fill-opacity="1" />
        <path
           id="path8526"
           d="M 145.4375,104.53125 L 146.28125,101.46875 L 143.85175,104.64641 L 143.008,107.70891 L 145.4375,104.53125 z"
           fill="url(#linearGradient5968)"
           fill-opacity="1" />
        <path
           id="path8528"
           d="M 146.28125,101.46875 L 142.25,97.65625 L 139.8205,100.83391 L 143.85175,104.64641 L 146.28125,101.46875 z"
           fill="url(#linearGradient5968)"
           fill-opacity="1" />
        <path
           id="path8530"
           d="M 142.25,97.65625 L 139.09375,95.71875 L 136.66425,98.896408 L 139.8205,100.83391 L 142.25,97.65625 z"
           fill="url(#linearGradient5968)"
           fill-opacity="1" />
        <path
           id="path8532"
           d="M 139.09375,95.71875 L 137.84375,95.25 L 135.41425,98.427658 L 136.66425,98.896408 L 139.09375,95.71875 z"
           fill="url(#linearGradient5968)"
           fill-opacity="1" />
        <path
           id="path8534"
           d="M 137.84375,95.25 L 138.5,90.28125 L 136.0705,93.458908 L 135.41425,98.427658 L 137.84375,95.25 z"
           fill="url(#linearGradient5968)"
           fill-opacity="1" />
        <path
           id="path8536"
           d="M 138.5,90.28125 L 139.78125,90.59375 L 137.35175,93.771408 L 136.0705,93.458908 L 138.5,90.28125 z"
           fill="url(#linearGradient5968)"
           fill-opacity="1" />
        <path
           id="path8538"
           d="M 139.78125,90.59375 L 143.1875,90.625 L 140.758,93.802658 L 137.35175,93.771408 L 139.78125,90.59375 z"
           fill="url(#linearGradient5968)"
           fill-opacity="1" />
        <path
           id="path8540"
           d="M 143.1875,90.625 L 147.90625,89.4375 L 145.47675,92.615158 L 140.758,93.802658 L 143.1875,90.625 z"
           fill="url(#linearGradient5968)"
           fill-opacity="1" />
        <path
           id="path8542"
           d="M 147.90625,89.4375 L 147.90625,86.125 L 145.47675,89.302658 L 145.47675,92.615158 L 147.90625,89.4375 z"
           fill="url(#linearGradient5968)"
           fill-opacity="1" />
        <path
           id="path8544"
           d="M 147.90625,86.125 L 143.1875,83.34375 L 140.758,86.521408 L 145.47675,89.302658 L 147.90625,86.125 z"
           fill="url(#linearGradient5968)"
           fill-opacity="1" />
        <path
           id="path8546"
           d="M 143.1875,83.34375 L 139.78125,82.21875 L 137.35175,85.396408 L 140.758,86.521408 L 143.1875,83.34375 z"
           fill="url(#linearGradient5968)"
           fill-opacity="1" />
        <path
           id="path8548"
           d="M 139.78125,82.21875 L 138.5,82.09375 L 136.0705,85.271408 L 137.35175,85.396408 L 139.78125,82.21875 z"
           fill="url(#linearGradient5968)"
           fill-opacity="1" />
        <path
           id="path8550"
           d="M 138.5,82.09375 L 137.84375,76.90625 L 135.41425,80.083908 L 136.0705,85.271408 L 138.5,82.09375 z"
           fill="url(#linearGradient5968)"
           fill-opacity="1" />
        <path
           id="path8552"
           d="M 137.84375,76.90625 L 139.09375,76.875 L 136.66425,80.052658 L 135.41425,80.083908 L 137.84375,76.90625 z"
           fill="url(#linearGradient5968)"
           fill-opacity="1" />
        <path
           id="path8554"
           d="M 139.09375,76.875 L 142.25,76 L 139.8205,79.177658 L 136.66425,80.052658 L 139.09375,76.875 z"
           fill="url(#linearGradient5968)"
           fill-opacity="1" />
        <path
           id="path8556"
           d="M 142.25,76 L 146.28125,73.5625 L 143.85175,76.740158 L 139.8205,79.177658 L 142.25,76 z"
           fill="url(#linearGradient5968)"
           fill-opacity="1" />
        <path
           id="path8558"
           d="M 146.28125,73.5625 L 145.4375,70.21875 L 143.008,73.396408 L 143.85175,76.740158 L 146.28125,73.5625 z"
           fill="url(#linearGradient5968)"
           fill-opacity="1" />
        <path
           id="path8560"
           d="M 145.4375,70.21875 L 140.34375,68.65625 L 137.91425,71.833908 L 143.008,73.396408 L 145.4375,70.21875 z"
           fill="url(#linearGradient5968)"
           fill-opacity="1" />
        <path
           id="path8562"
           d="M 140.34375,68.65625 L 136.9375,68.40625 L 134.508,71.583908 L 137.91425,71.833908 L 140.34375,68.65625 z"
           fill="url(#linearGradient5968)"
           fill-opacity="1" />
        <path
           id="path8564"
           d="M 136.9375,68.40625 L 135.71875,68.625 L 133.28925,71.802658 L 134.508,71.583908 L 136.9375,68.40625 z"
           fill="url(#linearGradient5968)"
           fill-opacity="1" />
        <path
           id="path8566"
           d="M 135.71875,68.625 L 133.75,63.5625 L 131.3205,66.740158 L 133.28925,71.802658 L 135.71875,68.625 z"
           fill="url(#linearGradient5968)"
           fill-opacity="1" />
        <path
           id="path8568"
           d="M 133.75,63.5625 L 134.90625,63.1875 L 132.47675,66.365158 L 131.3205,66.740158 L 133.75,63.5625 z"
           fill="url(#linearGradient5968)"
           fill-opacity="1" />
        <path
           id="path8570"
           d="M 134.90625,63.1875 L 137.59375,61.46875 L 135.16425,64.646408 L 132.47675,66.365158 L 134.90625,63.1875 z"
           fill="url(#linearGradient5968)"
           fill-opacity="1" />
        <path
           id="path8572"
           d="M 137.59375,61.46875 L 140.6875,57.9375 L 138.258,61.115158 L 135.16425,64.646408 L 137.59375,61.46875 z"
           fill="url(#linearGradient5968)"
           fill-opacity="1" />
        <path
           id="path8574"
           d="M 140.6875,57.9375 L 139.03125,54.78125 L 136.60175,57.958908 L 138.258,61.115158 L 140.6875,57.9375 z"
           fill="url(#linearGradient5968)"
           fill-opacity="1" />
        <path
           id="path8576"
           d="M 139.03125,54.78125 L 133.9375,54.5625 L 131.508,57.740158 L 136.60175,57.958908 L 139.03125,54.78125 z"
           fill="url(#linearGradient5968)"
           fill-opacity="1" />
        <path
           id="path8578"
           d="M 133.9375,54.5625 L 130.71875,55.21875 L 128.28925,58.396408 L 131.508,57.740158 L 133.9375,54.5625 z"
           fill="url(#linearGradient5968)"
           fill-opacity="1" />
        <path
           id="path8580"
           d="M 130.71875,55.21875 L 129.6875,55.78125 L 127.258,58.958908 L 128.28925,58.396408 L 130.71875,55.21875 z"
           fill="url(#linearGradient5968)"
           fill-opacity="1" />
        <path
           id="path8582"
           d="M 129.6875,55.78125 L 126.53125,51.15625 L 124.10175,54.333908 L 127.258,58.958908 L 129.6875,55.78125 z"
           fill="url(#linearGradient5968)"
           fill-opacity="1" />
        <path
           id="path8584"
           d="M 126.53125,51.15625 L 127.53125,50.5 L 125.10175,53.677658 L 124.10175,54.333908 L 126.53125,51.15625 z"
           fill="url(#linearGradient5968)"
           fill-opacity="1" />
        <path
           id="path8586"
           d="M 127.53125,50.5 L 129.53125,48.0625 L 127.10175,51.240158 L 125.10175,53.677658 L 127.53125,50.5 z"
           fill="url(#linearGradient5968)"
           fill-opacity="1" />
        <path
           id="path8588"
           d="M 129.53125,48.0625 L 131.46875,43.65625 L 129.03925,46.833908 L 127.10175,51.240158 L 129.53125,48.0625 z"
           fill="url(#linearGradient5968)"
           fill-opacity="1" />
        <path
           id="path8590"
           d="M 131.46875,43.65625 L 129.125,40.90625 L 126.6955,44.083908 L 129.03925,46.833908 L 131.46875,43.65625 z"
           fill="url(#linearGradient5968)"
           fill-opacity="1" />
        <path
           id="path8592"
           d="M 129.125,40.90625 L 124.375,42.03125 L 121.9455,45.208908 L 126.6955,44.083908 L 129.125,40.90625 z"
           fill="url(#linearGradient5968)"
           fill-opacity="1" />
        <path
           id="path8594"
           d="M 124.375,42.03125 L 121.59375,43.5625 L 119.16425,46.740158 L 121.9455,45.208908 L 124.375,42.03125 z"
           fill="url(#linearGradient5968)"
           fill-opacity="1" />
        <path
           id="path8596"
           d="M 121.59375,43.5625 L 120.75,44.40625 L 118.3205,47.583908 L 119.16425,46.740158 L 121.59375,43.5625 z"
           fill="url(#linearGradient5968)"
           fill-opacity="1" />
        <path
           id="path8598"
           d="M 120.75,44.40625 L 116.6875,40.5625 L 114.258,43.740158 L 118.3205,47.583908 L 120.75,44.40625 z"
           fill="url(#linearGradient5968)"
           fill-opacity="1" />
        <path
           id="path8600"
           d="M 116.6875,40.5625 L 117.40625,39.65625 L 114.97675,42.833908 L 114.258,43.740158 L 116.6875,40.5625 z"
           fill="url(#linearGradient5968)"
           fill-opacity="1" />
        <path
           id="path8602"
           d="M 117.40625,39.65625 L 118.625,36.625 L 116.1955,39.802658 L 114.97675,42.833908 L 117.40625,39.65625 z"
           fill="url(#linearGradient5968)"
           fill-opacity="1" />
        <path
           id="path8604"
           d="M 118.625,36.625 L 119.28125,31.65625 L 116.85175,34.833908 L 116.1955,39.802658 L 118.625,36.625 z"
           fill="url(#linearGradient5968)"
           fill-opacity="1" />
        <path
           id="path8606"
           d="M 119.28125,31.65625 L 116.40625,29.53125 L 113.97675,32.708908 L 116.85175,34.833908 L 119.28125,31.65625 z"
           fill="url(#linearGradient5968)"
           fill-opacity="1" />
        <path
           id="path8608"
           d="M 116.40625,29.53125 L 112.34375,31.9375 L 109.91425,35.115158 L 113.97675,32.708908 L 116.40625,29.53125 z"
           fill="url(#linearGradient5968)"
           fill-opacity="1" />
        <path
           id="path8610"
           d="M 112.34375,31.9375 L 110.15625,34.21875 L 107.72675,37.396408 L 109.91425,35.115158 L 112.34375,31.9375 z"
           fill="url(#linearGradient5968)"
           fill-opacity="1" />
        <path
           id="path8612"
           d="M 110.15625,34.21875 L 109.59375,35.28125 L 107.16425,38.458908 L 107.72675,37.396408 L 110.15625,34.21875 z"
           fill="url(#linearGradient5968)"
           fill-opacity="1" />
        <path
           id="path8614"
           d="M 109.59375,35.28125 L 104.84375,32.5 L 102.41425,35.677658 L 107.16425,38.458908 L 109.59375,35.28125 z"
           fill="url(#linearGradient5968)"
           fill-opacity="1" />
        <path
           id="path8616"
           d="M 104.84375,32.5 L 105.28125,31.375 L 102.85175,34.552658 L 102.41425,35.677658 L 104.84375,32.5 z"
           fill="url(#linearGradient5968)"
           fill-opacity="1" />
        <path
           id="path8618"
           d="M 105.28125,31.375 L 105.625,28 L 103.1955,31.177658 L 102.85175,34.552658 L 105.28125,31.375 z"
           fill="url(#linearGradient5968)"
           fill-opacity="1" />
        <path
           id="path8620"
           d="M 105.625,28 L 104.9375,22.8125 L 102.508,25.990158 L 103.1955,31.177658 L 105.625,28 z"
           fill="url(#linearGradient5968)"
           fill-opacity="1" />
        <path
           id="path8622"
           d="M 104.9375,22.8125 L 101.75,21.40625 L 99.320497,24.583908 L 102.508,25.990158 L 104.9375,22.8125 z"
           fill="url(#linearGradient5968)"
           fill-opacity="1" />
        <path
           id="path8624"
           d="M 101.75,21.40625 L 98.625,24.9375 L 96.195497,28.115158 L 99.320497,24.583908 L 101.75,21.40625 z"
           fill="url(#linearGradient5968)"
           fill-opacity="1" />
        <path
           id="path8626"
           d="M 98.625,24.9375 L 97.1875,27.84375 L 94.757997,31.021408 L 96.195497,28.115158 L 98.625,24.9375 z"
           fill="url(#linearGradient5968)"
           fill-opacity="1" />
        <path
           id="path8628"
           d="M 97.1875,27.84375 L 96.96875,29.0625 L 94.539247,32.240158 L 94.757997,31.021408 L 97.1875,27.84375 z"
           fill="url(#linearGradient5968)"
           fill-opacity="1" />
        <path
           id="path8630"
           d="M 96.96875,29.0625 L 91.875,27.5 L 89.445497,30.677658 L 94.539247,32.240158 L 96.96875,29.0625 z"
           fill="url(#linearGradient5968)"
           fill-opacity="1" />
        <path
           id="path8632"
           d="M 91.875,27.5 L 91.96875,26.25 L 89.539247,29.427658 L 89.445497,30.677658 L 91.875,27.5 z"
           fill="url(#linearGradient5968)"
           fill-opacity="1" />
        <path
           id="path8634"
           d="M 91.96875,26.25 L 91.40625,22.75 L 88.976747,25.927658 L 89.539247,29.427658 L 91.96875,26.25 z"
           fill="url(#linearGradient5968)"
           fill-opacity="1" />
        <path
           id="path8636"
           d="M 91.40625,22.75 L 89.4375,17.6875 L 87.007997,20.865158 L 88.976747,25.927658 L 91.40625,22.75 z"
           fill="url(#linearGradient5968)"
           fill-opacity="1" />
        <path
           id="path8638"
           d="M 89.4375,17.6875 L 86.125,17.125 L 83.695497,20.302658 L 87.007997,20.865158 L 89.4375,17.6875 z"
           fill="url(#linearGradient5968)"
           fill-opacity="1" />
        <path
           id="path8640"
           d="M 86.125,17.125 L 84.15625,21.53125 L 81.726747,24.708908 L 83.695497,20.302658 L 86.125,17.125 z"
           fill="url(#linearGradient5968)"
           fill-opacity="1" />
        <path
           id="path8642"
           d="M 84.15625,21.53125 L 83.59375,24.8125 L 81.164247,27.990158 L 81.726747,24.708908 L 84.15625,21.53125 z"
           fill="url(#linearGradient5968)"
           fill-opacity="1" />
        <path
           id="path8644"
           d="M 83.59375,24.8125 L 83.6875,26.125 L 81.257997,29.302658 L 81.164247,27.990158 L 83.59375,24.8125 z"
           fill="url(#linearGradient5968)"
           fill-opacity="1" />
        <path
           id="path8646"
           d="M 83.6875,26.125 L 78.59375,25.90625 L 76.164247,29.083908 L 81.257997,29.302658 L 83.6875,26.125 z"
           fill="url(#linearGradient5968)"
           fill-opacity="1" />
        <path
           id="path8648"
           d="M 78.59375,25.90625 L 78.375,24.625 L 75.945497,27.802658 L 76.164247,29.083908 L 78.59375,25.90625 z"
           fill="url(#linearGradient5968)"
           fill-opacity="1" />
        <path
           id="path8650"
           d="M 78.375,24.625 L 76.9375,21.25 L 74.507997,24.427658 L 75.945497,27.802658 L 78.375,24.625 z"
           fill="url(#linearGradient5968)"
           fill-opacity="1" />
        <path
           id="path8652"
           d="M 76.9375,21.25 L 73.8125,16.65625 L 71.382997,19.833908 L 74.507997,24.427658 L 76.9375,21.25 z"
           fill="url(#linearGradient5968)"
           fill-opacity="1" />
        <path
           id="path8654"
           d="M 84.875,64.25 C 91.358493,64.149665 98.922368,70.45409 101.75,78.3125 L 99.320497,81.490158 C 96.492865,73.631748 88.92899,67.327323 82.445497,67.427658 L 84.875,64.25 z"
           fill="url(#linearGradient5968)"
           fill-opacity="1" />
        <path
           id="path8656"
           d="M 101.75,78.3125 C 103.45536,83.051942 103.05223,87.278187 101.0413,89.908368 L 98.6118,93.086027 C 100.62273,90.455845 101.02586,86.2296 99.320497,81.490158 L 101.75,78.3125 z"
           fill="url(#linearGradient5968)"
           fill-opacity="1" />
        <path
           id="path8658"
           d="M 101.0413,89.908368 C 99.717938,91.639259 97.698269,92.678927 95.125,92.71875 L 92.695497,95.896408 C 95.268766,95.856585 97.288434,94.816918 98.6118,93.086027 L 101.0413,89.908368 z"
           fill="url(#linearGradient5968)"
           fill-opacity="1" />
        <path
           id="path8660"
           d="M 95.125,92.71875 C 88.641508,92.819084 81.077632,86.51466 78.25,78.65625 L 75.820497,81.833908 C 78.648129,89.692318 86.212005,95.996742 92.695497,95.896408 L 95.125,92.71875 z"
           fill="url(#linearGradient5968)"
           fill-opacity="1" />
        <path
           id="path8662"
           d="M 78.25,78.65625 C 76.544641,73.916807 76.947774,69.690561 78.958699,67.06038 L 76.529196,70.238038 C 74.51827,72.868219 74.115138,77.094465 75.820497,81.833908 L 78.25,78.65625 z"
           fill="url(#linearGradient5968)"
           fill-opacity="1" />
        <path
           id="path8664"
           d="M 78.958699,67.06038 C 80.282064,65.32949 82.301732,64.289823 84.875,64.25 L 82.445497,67.427658 C 79.872228,67.467481 77.852561,68.507148 76.529196,70.238038 L 78.958699,67.06038 z"
           fill="url(#linearGradient5968)"
           fill-opacity="1" />
      </g>
      <path
         id="path5533"
         d="M 73.8125,16.65625 L 70.625,16.96875 L 69.9375,21.9375 L 70.28125,25.40625 L 70.6875,26.6875 L 65.9375,27.84375 L 65.40625,26.59375 L 63.21875,23.5625 L 59.15625,19.78125 L 56.28125,20.9375 L 56.9375,26.125 L 58.15625,29.5625 L 58.875,30.71875 L 54.78125,33.15625 L 53.96875,32.0625 L 51.15625,29.5625 L 46.4375,26.8125 L 44.09375,28.75 L 46.03125,33.8125 L 48.03125,36.96875 L 49,37.96875 L 45.875,41.5 L 44.84375,40.59375 L 41.59375,38.84375 L 36.53125,37.3125 L 34.875,39.90625 L 37.96875,44.5 L 40.65625,47.125 L 41.8125,47.875 L 39.84375,52.3125 L 38.625,51.65625 L 35.1875,50.75 L 30.125,50.5625 L 29.28125,53.625 L 33.3125,57.4375 L 36.46875,59.375 L 37.71875,59.84375 L 37.03125,64.8125 L 35.78125,64.5 L 32.375,64.46875 L 27.65625,65.65625 L 27.65625,68.96875 L 32.375,71.75 L 35.78125,72.875 L 37.03125,73 L 37.71875,78.21875 L 36.46875,78.21875 L 33.3125,79.09375 L 29.28125,81.53125 L 30.125,84.875 L 35.1875,86.4375 L 38.625,86.6875 L 39.84375,86.46875 L 41.8125,91.53125 L 40.65625,91.90625 L 37.96875,93.625 L 34.875,97.15625 L 36.53125,100.3125 L 41.59375,100.53125 L 44.84375,99.875 L 45.875,99.3125 L 49,103.9375 L 48.03125,104.59375 L 46.03125,107.03125 L 44.09375,111.46875 L 46.4375,114.1875 L 51.15625,113.0625 L 53.96875,111.53125 L 54.78125,110.6875 L 58.875,114.53125 L 58.15625,115.4375 L 56.9375,118.46875 L 56.28125,123.4375 L 59.15625,125.5625 L 63.21875,123.15625 L 65.40625,120.875 L 65.9375,119.8125 L 70.6875,122.59375 L 70.28125,123.71875 L 69.9375,127.09375 L 70.625,132.28125 L 73.8125,133.6875 L 76.9375,130.15625 L 78.375,127.25 L 78.59375,126.03125 L 83.6875,127.59375 L 83.59375,128.84375 L 84.15625,132.34375 L 86.125,137.40625 L 89.4375,137.96875 L 91.40625,133.5625 L 91.96875,130.28125 L 91.875,128.96875 L 96.96875,129.1875 L 97.1875,130.46875 L 98.625,133.84375 L 101.75,138.4375 L 104.9375,138.125 L 105.625,133.15625 L 105.28125,129.6875 L 104.84375,128.40625 L 109.59375,127.25 L 110.15625,128.5 L 112.34375,131.53125 L 116.40625,135.3125 L 119.28125,134.15625 L 118.625,128.96875 L 117.40625,125.53125 L 116.6875,124.375 L 120.75,121.9375 L 121.59375,123.03125 L 124.375,125.53125 L 129.125,128.28125 L 131.46875,126.34375 L 129.53125,121.28125 L 127.53125,118.125 L 126.53125,117.125 L 129.6875,113.59375 L 130.71875,114.5 L 133.9375,116.25 L 139.03125,117.78125 L 140.6875,115.1875 L 137.59375,110.59375 L 134.90625,107.96875 L 133.75,107.21875 L 135.71875,102.78125 L 136.9375,103.4375 L 140.34375,104.34375 L 145.4375,104.53125 L 146.28125,101.46875 L 142.25,97.65625 L 139.09375,95.71875 L 137.84375,95.25 L 138.5,90.28125 L 139.78125,90.59375 L 143.1875,90.625 L 147.90625,89.4375 L 147.90625,86.125 L 143.1875,83.34375 L 139.78125,82.21875 L 138.5,82.09375 L 137.84375,76.90625 L 139.09375,76.875 L 142.25,76 L 146.28125,73.5625 L 145.4375,70.21875 L 140.34375,68.65625 L 136.9375,68.40625 L 135.71875,68.625 L 133.75,63.5625 L 134.90625,63.1875 L 137.59375,61.46875 L 140.6875,57.9375 L 139.03125,54.78125 L 133.9375,54.5625 L 130.71875,55.21875 L 129.6875,55.78125 L 126.53125,51.15625 L 127.53125,50.5 L 129.53125,48.0625 L 131.46875,43.65625 L 129.125,40.90625 L 124.375,42.03125 L 121.59375,43.5625 L 120.75,44.40625 L 116.6875,40.5625 L 117.40625,39.65625 L 118.625,36.625 L 119.28125,31.65625 L 116.40625,29.53125 L 112.34375,31.9375 L 110.15625,34.21875 L 109.59375,35.28125 L 104.84375,32.5 L 105.28125,31.375 L 105.625,28 L 104.9375,22.8125 L 101.75,21.40625 L 98.625,24.9375 L 97.1875,27.84375 L 96.96875,29.0625 L 91.875,27.5 L 91.96875,26.25 L 91.40625,22.75 L 89.4375,17.6875 L 86.125,17.125 L 84.15625,21.53125 L 83.59375,24.8125 L 83.6875,26.125 L 78.59375,25.90625 L 78.375,24.625 L 76.9375,21.25 L 73.8125,16.65625 z M 84.875,64.25 C 91.358493,64.149665 98.922368,70.45409 101.75,78.3125 C 104.57764,86.170911 101.60849,92.618414 95.125,92.71875 C 88.641508,92.819084 81.077632,86.51466 78.25,78.65625 C 75.422366,70.797838 78.39151,64.350336 84.875,64.25 z"
         stroke-dasharray="none"
         fill="url(#linearGradient6366)"
         stroke="#000000"
         stroke-linejoin="round"
         fill-opacity="1"
         stroke-linecap="round"
         stroke-width="0.4"
         stroke-miterlimit="4" />
    </g>
    <g
       transform="matrix(-1,0,0,1,187.0818,-112.98073)"
       id="g10764">
      <g
         id="g9289"
         transform="matrix(1.5367444,0,0,1.5367444,3.1644278,-61.318239)"
         stroke-dasharray="none"
         stroke-opacity="1"
         fill="url(#linearGradient6368)"
         stroke="#000000"
         fill-opacity="1"
         stroke-width="0.5"
         stroke-miterlimit="4">
        <path
           d="M 39.03125,132.9375 L 35.78125,139.5625 L 33.351747,142.74016 L 36.601747,136.11516 L 39.03125,132.9375 z"
           id="path9291"
           fill="url(#linearGradient6368)"
           fill-opacity="1" />
        <path
           d="M 35.78125,139.5625 L 35.71875,141.125 L 33.289247,144.30266 L 33.351747,142.74016 L 35.78125,139.5625 z"
           id="path9293"
           fill="url(#linearGradient6368)"
           fill-opacity="1" />
        <path
           d="M 35.71875,141.125 L 36.75,145.90625 L 34.320497,149.08391 L 33.289247,144.30266 L 35.71875,141.125 z"
           id="path9295"
           fill="url(#linearGradient6368)"
           fill-opacity="1" />
        <path
           d="M 36.75,145.90625 L 30.375,148.1875 L 27.945497,151.36516 L 34.320497,149.08391 L 36.75,145.90625 z"
           id="path9297"
           fill="url(#linearGradient6368)"
           fill-opacity="1" />
        <path
           d="M 30.375,148.1875 L 27.75,144 L 25.320497,147.17766 L 27.945497,151.36516 L 30.375,148.1875 z"
           id="path9299"
           fill="url(#linearGradient6368)"
           fill-opacity="1" />
        <path
           d="M 27.75,144 L 26.59375,142.84375 L 24.164247,146.02141 L 25.320497,147.17766 L 27.75,144 z"
           id="path9301"
           fill="url(#linearGradient6368)"
           fill-opacity="1" />
        <path
           d="M 26.59375,142.84375 L 19.5,139.9375 L 17.070497,143.11516 L 24.164247,146.02141 L 26.59375,142.84375 z"
           id="path9303"
           fill="url(#linearGradient6368)"
           fill-opacity="1" />
        <path
           d="M 19.5,139.9375 L 17.0625,142.21875 L 14.632997,145.39641 L 17.070497,143.11516 L 19.5,139.9375 z"
           id="path9305"
           fill="url(#linearGradient6368)"
           fill-opacity="1" />
        <path
           d="M 17.0625,142.21875 L 19.59375,149.46875 L 17.164247,152.64641 L 14.632997,145.39641 L 17.0625,142.21875 z"
           id="path9307"
           fill="url(#linearGradient6368)"
           fill-opacity="1" />
        <path
           d="M 19.59375,149.46875 L 20.65625,150.6875 L 18.226747,153.86516 L 17.164247,152.64641 L 19.59375,149.46875 z"
           id="path9309"
           fill="url(#linearGradient6368)"
           fill-opacity="1" />
        <path
           d="M 20.65625,150.6875 L 24.71875,153.53125 L 22.289247,156.70891 L 18.226747,153.86516 L 20.65625,150.6875 z"
           id="path9311"
           fill="url(#linearGradient6368)"
           fill-opacity="1" />
        <path
           d="M 24.71875,153.53125 L 22.0625,159.75 L 19.632997,162.92766 L 22.289247,156.70891 L 24.71875,153.53125 z"
           id="path9313"
           fill="url(#linearGradient6368)"
           fill-opacity="1" />
        <path
           d="M 22.0625,159.75 L 17.34375,158.5 L 14.914247,161.67766 L 19.632997,162.92766 L 22.0625,159.75 z"
           id="path9315"
           fill="url(#linearGradient6368)"
           fill-opacity="1" />
        <path
           d="M 17.34375,158.5 L 15.78125,158.4375 L 13.351747,161.61516 L 14.914247,161.67766 L 17.34375,158.5 z"
           id="path9317"
           fill="url(#linearGradient6368)"
           fill-opacity="1" />
        <path
           d="M 15.78125,158.4375 L 8.96875,161.3125 L 6.5392466,164.49016 L 13.351747,161.61516 L 15.78125,158.4375 z"
           id="path9319"
           fill="url(#linearGradient6368)"
           fill-opacity="1" />
        <path
           d="M 8.96875,161.3125 L 8.96875,164.75 L 6.5392466,167.92766 L 6.5392466,164.49016 L 8.96875,161.3125 z"
           id="path9321"
           fill="url(#linearGradient6368)"
           fill-opacity="1" />
        <path
           d="M 8.96875,164.75 L 15.78125,168.375 L 13.351747,171.55266 L 6.5392466,167.92766 L 8.96875,164.75 z"
           id="path9323"
           fill="url(#linearGradient6368)"
           fill-opacity="1" />
        <path
           d="M 15.78125,168.375 L 17.34375,168.53125 L 14.914247,171.70891 L 13.351747,171.55266 L 15.78125,168.375 z"
           id="path9325"
           fill="url(#linearGradient6368)"
           fill-opacity="1" />
        <path
           d="M 17.34375,168.53125 L 22.0625,167.78125 L 19.632997,170.95891 L 14.914247,171.70891 L 17.34375,168.53125 z"
           id="path9327"
           fill="url(#linearGradient6368)"
           fill-opacity="1" />
        <path
           d="M 22.0625,167.78125 L 24.71875,174.28125 L 22.289247,177.45891 L 19.632997,170.95891 L 22.0625,167.78125 z"
           id="path9329"
           fill="url(#linearGradient6368)"
           fill-opacity="1" />
        <path
           d="M 24.71875,174.28125 L 20.65625,176.6875 L 18.226747,179.86516 L 22.289247,177.45891 L 24.71875,174.28125 z"
           id="path9331"
           fill="url(#linearGradient6368)"
           fill-opacity="1" />
        <path
           d="M 20.65625,176.6875 L 19.59375,177.78125 L 17.164247,180.95891 L 18.226747,179.86516 L 20.65625,176.6875 z"
           id="path9333"
           fill="url(#linearGradient6368)"
           fill-opacity="1" />
        <path
           d="M 19.59375,177.78125 L 17.0625,184.75 L 14.632997,187.92766 L 17.164247,180.95891 L 19.59375,177.78125 z"
           id="path9335"
           fill="url(#linearGradient6368)"
           fill-opacity="1" />
        <path
           d="M 17.0625,184.75 L 19.5,187.3125 L 17.070497,190.49016 L 14.632997,187.92766 L 17.0625,184.75 z"
           id="path9337"
           fill="url(#linearGradient6368)"
           fill-opacity="1" />
        <path
           d="M 19.5,187.3125 L 26.59375,185.1875 L 24.164247,188.36516 L 17.070497,190.49016 L 19.5,187.3125 z"
           id="path9339"
           fill="url(#linearGradient6368)"
           fill-opacity="1" />
        <path
           d="M 26.59375,185.1875 L 27.75,184.1875 L 25.320497,187.36516 L 24.164247,188.36516 L 26.59375,185.1875 z"
           id="path9341"
           fill="url(#linearGradient6368)"
           fill-opacity="1" />
        <path
           d="M 27.75,184.1875 L 30.375,180.28125 L 27.945497,183.45891 L 25.320497,187.36516 L 27.75,184.1875 z"
           id="path9343"
           fill="url(#linearGradient6368)"
           fill-opacity="1" />
        <path
           d="M 30.375,180.28125 L 36.75,183.28125 L 34.320497,186.45891 L 27.945497,183.45891 L 30.375,180.28125 z"
           id="path9345"
           fill="url(#linearGradient6368)"
           fill-opacity="1" />
        <path
           d="M 36.75,183.28125 L 35.71875,187.9375 L 33.289247,191.11516 L 34.320497,186.45891 L 36.75,183.28125 z"
           id="path9347"
           fill="url(#linearGradient6368)"
           fill-opacity="1" />
        <path
           d="M 35.71875,187.9375 L 35.78125,189.5 L 33.351747,192.67766 L 33.289247,191.11516 L 35.71875,187.9375 z"
           id="path9349"
           fill="url(#linearGradient6368)"
           fill-opacity="1" />
        <path
           d="M 35.78125,189.5 L 39.03125,196.5 L 36.601747,199.67766 L 33.351747,192.67766 L 35.78125,189.5 z"
           id="path9351"
           fill="url(#linearGradient6368)"
           fill-opacity="1" />
        <path
           d="M 39.03125,196.5 L 42.46875,196.6875 L 40.039247,199.86516 L 36.601747,199.67766 L 39.03125,196.5 z"
           id="path9353"
           fill="url(#linearGradient6368)"
           fill-opacity="1" />
        <path
           d="M 42.46875,196.6875 L 45.71875,190.0625 L 43.289247,193.24016 L 40.039247,199.86516 L 42.46875,196.6875 z"
           id="path9355"
           fill="url(#linearGradient6368)"
           fill-opacity="1" />
        <path
           d="M 45.71875,190.0625 L 45.78125,188.5 L 43.351747,191.67766 L 43.289247,193.24016 L 45.71875,190.0625 z"
           id="path9357"
           fill="url(#linearGradient6368)"
           fill-opacity="1" />
        <path
           d="M 45.78125,188.5 L 44.75,183.71875 L 42.320497,186.89641 L 43.351747,191.67766 L 45.78125,188.5 z"
           id="path9359"
           fill="url(#linearGradient6368)"
           fill-opacity="1" />
        <path
           d="M 44.75,183.71875 L 51.125,181.4375 L 48.695497,184.61516 L 42.320497,186.89641 L 44.75,183.71875 z"
           id="path9361"
           fill="url(#linearGradient6368)"
           fill-opacity="1" />
        <path
           d="M 51.125,181.4375 L 53.75,185.625 L 51.320497,188.80266 L 48.695497,184.61516 L 51.125,181.4375 z"
           id="path9363"
           fill="url(#linearGradient6368)"
           fill-opacity="1" />
        <path
           d="M 53.75,185.625 L 54.90625,186.78125 L 52.476747,189.95891 L 51.320497,188.80266 L 53.75,185.625 z"
           id="path9365"
           fill="url(#linearGradient6368)"
           fill-opacity="1" />
        <path
           d="M 54.90625,186.78125 L 62,189.71875 L 59.570497,192.89641 L 52.476747,189.95891 L 54.90625,186.78125 z"
           id="path9367"
           fill="url(#linearGradient6368)"
           fill-opacity="1" />
        <path
           d="M 62,189.71875 L 64.4375,187.40625 L 62.007997,190.58391 L 59.570497,192.89641 L 62,189.71875 z"
           id="path9369"
           fill="url(#linearGradient6368)"
           fill-opacity="1" />
        <path
           d="M 64.4375,187.40625 L 61.9375,180.15625 L 59.507997,183.33391 L 62.007997,190.58391 L 64.4375,187.40625 z"
           id="path9371"
           fill="url(#linearGradient6368)"
           fill-opacity="1" />
        <path
           d="M 61.9375,180.15625 L 60.84375,178.9375 L 58.414247,182.11516 L 59.507997,183.33391 L 61.9375,180.15625 z"
           id="path9373"
           fill="url(#linearGradient6368)"
           fill-opacity="1" />
        <path
           d="M 60.84375,178.9375 L 56.78125,176.09375 L 54.351747,179.27141 L 58.414247,182.11516 L 60.84375,178.9375 z"
           id="path9375"
           fill="url(#linearGradient6368)"
           fill-opacity="1" />
        <path
           d="M 56.78125,176.09375 L 59.4375,169.875 L 57.007997,173.05266 L 54.351747,179.27141 L 56.78125,176.09375 z"
           id="path9377"
           fill="url(#linearGradient6368)"
           fill-opacity="1" />
        <path
           d="M 59.4375,169.875 L 64.15625,171.15625 L 61.726747,174.33391 L 57.007997,173.05266 L 59.4375,169.875 z"
           id="path9379"
           fill="url(#linearGradient6368)"
           fill-opacity="1" />
        <path
           d="M 64.15625,171.15625 L 65.71875,171.1875 L 63.289247,174.36516 L 61.726747,174.33391 L 64.15625,171.15625 z"
           id="path9381"
           fill="url(#linearGradient6368)"
           fill-opacity="1" />
        <path
           d="M 65.71875,171.1875 L 72.53125,168.3125 L 70.101747,171.49016 L 63.289247,174.36516 L 65.71875,171.1875 z"
           id="path9383"
           fill="url(#linearGradient6368)"
           fill-opacity="1" />
        <path
           d="M 72.53125,168.3125 L 72.53125,164.875 L 70.101747,168.05266 L 70.101747,171.49016 L 72.53125,168.3125 z"
           id="path9385"
           fill="url(#linearGradient6368)"
           fill-opacity="1" />
        <path
           d="M 72.53125,164.875 L 65.71875,161.25 L 63.289247,164.42766 L 70.101747,168.05266 L 72.53125,164.875 z"
           id="path9387"
           fill="url(#linearGradient6368)"
           fill-opacity="1" />
        <path
           d="M 65.71875,161.25 L 64.15625,161.125 L 61.726747,164.30266 L 63.289247,164.42766 L 65.71875,161.25 z"
           id="path9389"
           fill="url(#linearGradient6368)"
           fill-opacity="1" />
        <path
           d="M 64.15625,161.125 L 59.4375,161.875 L 57.007997,165.05266 L 61.726747,164.30266 L 64.15625,161.125 z"
           id="path9391"
           fill="url(#linearGradient6368)"
           fill-opacity="1" />
        <path
           d="M 59.4375,161.875 L 56.78125,155.34375 L 54.351747,158.52141 L 57.007997,165.05266 L 59.4375,161.875 z"
           id="path9393"
           fill="url(#linearGradient6368)"
           fill-opacity="1" />
        <path
           d="M 56.78125,155.34375 L 60.84375,152.9375 L 58.414247,156.11516 L 54.351747,158.52141 L 56.78125,155.34375 z"
           id="path9395"
           fill="url(#linearGradient6368)"
           fill-opacity="1" />
        <path
           d="M 60.84375,152.9375 L 61.9375,151.875 L 59.507997,155.05266 L 58.414247,156.11516 L 60.84375,152.9375 z"
           id="path9397"
           fill="url(#linearGradient6368)"
           fill-opacity="1" />
        <path
           d="M 61.9375,151.875 L 64.4375,144.90625 L 62.007997,148.08391 L 59.507997,155.05266 L 61.9375,151.875 z"
           id="path9399"
           fill="url(#linearGradient6368)"
           fill-opacity="1" />
        <path
           d="M 64.4375,144.90625 L 62,142.3125 L 59.570497,145.49016 L 62.007997,148.08391 L 64.4375,144.90625 z"
           id="path9401"
           fill="url(#linearGradient6368)"
           fill-opacity="1" />
        <path
           d="M 62,142.3125 L 54.90625,144.4375 L 52.476747,147.61516 L 59.570497,145.49016 L 62,142.3125 z"
           id="path9403"
           fill="url(#linearGradient6368)"
           fill-opacity="1" />
        <path
           d="M 54.90625,144.4375 L 53.75,145.46875 L 51.320497,148.64641 L 52.476747,147.61516 L 54.90625,144.4375 z"
           id="path9405"
           fill="url(#linearGradient6368)"
           fill-opacity="1" />
        <path
           d="M 53.75,145.46875 L 51.125,149.375 L 48.695497,152.55266 L 51.320497,148.64641 L 53.75,145.46875 z"
           id="path9407"
           fill="url(#linearGradient6368)"
           fill-opacity="1" />
        <path
           d="M 51.125,149.375 L 44.75,146.375 L 42.320497,149.55266 L 48.695497,152.55266 L 51.125,149.375 z"
           id="path9409"
           fill="url(#linearGradient6368)"
           fill-opacity="1" />
        <path
           d="M 44.75,146.375 L 45.78125,141.6875 L 43.351747,144.86516 L 42.320497,149.55266 L 44.75,146.375 z"
           id="path9411"
           fill="url(#linearGradient6368)"
           fill-opacity="1" />
        <path
           d="M 45.78125,141.6875 L 45.71875,140.125 L 43.289247,143.30266 L 43.351747,144.86516 L 45.78125,141.6875 z"
           id="path9413"
           fill="url(#linearGradient6368)"
           fill-opacity="1" />
        <path
           d="M 45.71875,140.125 L 42.46875,133.125 L 40.039247,136.30266 L 43.289247,143.30266 L 45.71875,140.125 z"
           id="path9415"
           fill="url(#linearGradient6368)"
           fill-opacity="1" />
        <path
           d="M 42.46875,133.125 L 39.03125,132.9375 L 36.601747,136.11516 L 40.039247,136.30266 L 42.46875,133.125 z"
           id="path9417"
           fill="url(#linearGradient6368)"
           fill-opacity="1" />
        <path
           d="M 39.5,155.28125 C 42.722732,155.11492 46.254575,157.11692 48.375,160.65625 L 45.945497,163.83391 C 43.825072,160.29458 40.293229,158.29258 37.070497,158.45891 L 39.5,155.28125 z"
           id="path9419"
           fill="url(#linearGradient6368)"
           fill-opacity="1" />
        <path
           d="M 48.375,160.65625 C 50.665249,164.47904 50.60533,168.93514 48.500946,171.68756 L 46.071442,174.86522 C 48.175826,172.1128 48.235746,167.6567 45.945497,163.83391 L 48.375,160.65625 z"
           id="path9421"
           fill="url(#linearGradient6368)"
           fill-opacity="1" />
        <path
           d="M 48.500946,171.68756 C 48.007542,172.3329 47.401747,172.88459 46.6875,173.3125 L 44.257997,176.49016 C 44.972243,176.06225 45.578039,175.51056 46.071442,174.86522 L 48.500946,171.68756 z"
           id="path9423"
           fill="url(#linearGradient6368)"
           fill-opacity="1" />
        <path
           d="M 46.6875,173.3125 C 42.926967,175.56545 37.577233,173.56285 34.75,168.84375 L 32.320497,172.02141 C 35.14773,176.74051 40.497464,178.74311 44.257997,176.49016 L 46.6875,173.3125 z"
           id="path9425"
           fill="url(#linearGradient6368)"
           fill-opacity="1" />
        <path
           d="M 34.75,168.84375 C 32.462426,165.02543 32.539992,160.57527 34.644955,157.8221 L 32.215452,160.99975 C 30.110488,163.75293 30.032922,168.20308 32.320497,172.02141 L 34.75,168.84375 z"
           id="path9427"
           fill="url(#linearGradient6368)"
           fill-opacity="1" />
        <path
           d="M 34.644955,157.8221 C 35.141534,157.1726 35.750944,156.61754 36.46875,156.1875 L 34.039247,159.36516 C 33.32144,159.7952 32.712031,160.35026 32.215452,160.99975 L 34.644955,157.8221 z"
           id="path9429"
           fill="url(#linearGradient6368)"
           fill-opacity="1" />
        <path
           d="M 36.46875,156.1875 C 37.408884,155.62426 38.425756,155.33669 39.5,155.28125 L 37.070497,158.45891 C 35.996253,158.51435 34.979381,158.80192 34.039247,159.36516 L 36.46875,156.1875 z"
           id="path9431"
           fill="url(#linearGradient6368)"
           fill-opacity="1" />
      </g>
      <path
         d="M 63.145482,142.97273 L 58.151063,153.15366 L 58.055016,155.55483 L 59.639784,162.90238 L 49.843038,166.40808 L 45.809084,159.97297 L 44.032224,158.1961 L 33.130944,153.72994 L 29.38513,157.23564 L 33.275014,168.37704 L 34.907805,170.24994 L 41.150828,174.62006 L 37.068852,184.17669 L 29.817339,182.25576 L 27.416176,182.15971 L 16.947105,186.57785 L 16.947105,191.86041 L 27.416176,197.43111 L 29.817339,197.67123 L 37.068852,196.51867 L 41.150828,206.50751 L 34.907805,210.2053 L 33.275014,211.88611 L 29.38513,222.5953 L 33.130944,226.53321 L 44.032224,223.26763 L 45.809084,221.73088 L 49.843038,215.72797 L 59.639784,220.33821 L 58.055016,227.49367 L 58.151063,229.89484 L 63.145482,240.65205 L 68.428041,240.94019 L 73.422461,230.75926 L 73.518507,228.35809 L 71.93374,221.01053 L 81.730485,217.50483 L 85.764439,223.93995 L 87.5413,225.71681 L 98.442581,230.231 L 102.18839,226.67728 L 98.346534,215.53588 L 96.66572,213.66297 L 90.422696,209.29286 L 94.504673,199.73623 L 101.75619,201.70518 L 104.15735,201.7532 L 114.62642,197.33506 L 114.62642,192.05251 L 104.15735,186.48181 L 101.75619,186.28971 L 94.504673,187.44227 L 90.422696,177.40541 L 96.66572,173.70762 L 98.346534,172.07483 L 102.18839,161.36564 L 98.442581,157.37971 L 87.5413,160.64529 L 85.764439,162.23006 L 81.730485,168.23297 L 71.93374,163.62273 L 73.518507,156.41924 L 73.422461,154.01808 L 68.428041,143.26087 L 63.145482,142.97273 z M 63.865831,177.30936 C 68.818347,177.05376 74.245888,180.13032 77.504438,185.56936 C 81.849173,192.82142 80.690162,201.55658 74.911182,205.01879 C 69.132204,208.48099 60.91103,205.40351 56.566295,198.15146 C 52.221561,190.89941 53.428595,182.16425 59.207575,178.70204 C 60.65232,177.83648 62.214993,177.39456 63.865831,177.30936 z"
         id="path6774"
         stroke-dasharray="none"
         stroke-opacity="1"
         fill="url(#linearGradient6512)"
         stroke="#000000"
         fill-opacity="1"
         stroke-width="0.768"
         stroke-miterlimit="4" />
    </g>
    <path
       id="path2408"
       d="M 110.65294,103.03757 L 110.65294,245.35158 L 229.99478,185.42502 L 229.99478,69.438709 L 110.65294,103.03757 z"
       stroke-dasharray="none"
       stroke-opacity="1"
       fill="url(#linearGradient6812)"
       fill-rule="evenodd"
       stroke="#aa892f"
       stroke-linejoin="round"
       fill-opacity="1"
       stroke-linecap="round"
       stroke-width="1.153"
       stroke-dashoffset="0"
       stroke-miterlimit="4" />
    <path
       id="path2410"
       d="M 32.523286,62.427183 L 110.65294,103.03757 L 110.65294,245.35158 L 32.523286,163.94508 L 32.523286,62.427183 z"
       stroke-dasharray="none"
       stroke-opacity="1"
       fill="url(#linearGradient6809)"
       fill-rule="evenodd"
       stroke="#533d0b"
       stroke-linejoin="round"
       fill-opacity="1"
       stroke-linecap="round"
       stroke-width="1.153"
       stroke-dashoffset="0"
       stroke-miterlimit="4" />
    <path
       id="path2406"
       d="M 3.9130205,110.09286 L 62.193892,179.13698 L 110.44001,103.53636 L 33.314769,62.430974 L 3.9130205,110.09286 z"
       sodipodi:nodetypes="ccccc"
       stroke-dasharray="none"
       stroke-opacity="1"
       fill="url(#linearGradient6806)"
       fill-rule="evenodd"
       stroke="#62480e"
       stroke-linejoin="round"
       fill-opacity="1"
       stroke-linecap="round"
       stroke-width="1.153"
       stroke-dashoffset="0"
       stroke-miterlimit="4" />
    <path
       d="M 110.65294,103.03757 L 121.16796,185.99268 L 241.86656,148.7921 L 229.99478,69.438709 L 110.65294,103.03757 z"
       id="path2420"
       sodipodi:nodetypes="ccccc"
       stroke-dasharray="none"
       stroke-opacity="1"
       fill="url(#linearGradient6803)"
       fill-rule="evenodd"
       stroke="#bda967"
       stroke-linejoin="round"
       fill-opacity="1"
       stroke-linecap="round"
       stroke-width="1.153"
       stroke-dashoffset="0"
       stroke-miterlimit="4" />
  </g>
  <g
     font-size="7.5"
     font-variant="normal"
     letter-spacing="0"
     font-stretch="normal"
     font-weight="bold"
     line-height="125%"
     word-spacing="0"
     font-style="normal"
     transform="translate(66.188841,-42.438624)"
     id="text4330"
     style="font-style:normal;font-variant:normal;font-weight:bold;font-stretch:normal;font-size:7.5px;line-height:125%;font-family:STIX;letter-spacing:0;word-spacing:0;fill:#000000;fill-opacity:1;stroke:none;stroke-width:1;stroke-linecap:butt;stroke-linejoin:miter;stroke-opacity:1">
    <path
       inkscape:connector-curvature="0"
       id="path4335"
       d="m -56.13327,39.467617 0,-0.1875 c -0.3075,0 -0.4425,-0.165 -0.825,-1.0725 l -1.665,-3.915 -0.21,0 -1.6575,4.0875 c -0.285,0.705 -0.3975,0.84 -0.7425,0.9 l 0,0.1875 1.515,0 0,-0.1875 c -0.4425,-0.03 -0.6075,-0.1125 -0.6075,-0.3075 0,-0.18 0.1425,-0.495 0.2325,-0.7275 l 0.0975,-0.255 1.6875,0 c 0.255,0.5925 0.345,0.855 0.345,1.02 0,0.165 -0.0975,0.225 -0.345,0.2475 l -0.24,0.0225 0,0.1875 2.415,0 z m -2.2875,-1.77 -1.4625,0 0.705,-1.8225 0.7575,1.8225 z" />
    <path
       inkscape:connector-curvature="0"
       id="path4337"
       d="m -55.760848,34.397617 0,0.1875 c 0.525,0.045 0.63,0.15 0.63,0.735 l 0,3.2025 c 0,0.3825 -0.045,0.5925 -0.2925,0.69 -0.0825,0.0375 -0.195,0.0525 -0.3375,0.0675 l 0,0.1875 2.4975,0 0,-0.1875 c -0.5925,-0.075 -0.6525,-0.1425 -0.6525,-0.645 l 0,-1.44 c 0.99,-0.0075 1.245,-0.03 1.5675,-0.15 0.6225,-0.2325 0.9675,-0.69 0.9675,-1.29 0,-0.915 -0.765,-1.3575 -2.0175,-1.3575 l -2.3625,0 z m 1.845,0.525 c 0,-0.1725 0.1275,-0.2625 0.375,-0.2625 0.6225,0 0.87,0.345 0.87,1.1775 0,0.8325 -0.3075,1.0875 -1.245,1.095 l 0,-2.01 z" />
  </g>
</svg>
