<?xml version="1.0" encoding="UTF-8" standalone="no"?>
<!-- Created with Inkscape (http://www.inkscape.org/) -->

<svg
   xmlns:a="http://ns.adobe.com/AdobeSVGViewerExtensions/3.0/"
   xmlns:dc="http://purl.org/dc/elements/1.1/"
   xmlns:cc="http://creativecommons.org/ns#"
   xmlns:rdf="http://www.w3.org/1999/02/22-rdf-syntax-ns#"
   xmlns:svg="http://www.w3.org/2000/svg"
   xmlns="http://www.w3.org/2000/svg"
   xmlns:xlink="http://www.w3.org/1999/xlink"
   xmlns:sodipodi="http://sodipodi.sourceforge.net/DTD/sodipodi-0.dtd"
   xmlns:inkscape="http://www.inkscape.org/namespaces/inkscape"
   width="255"
   height="255"
   viewBox="0 0 67.468748 67.468752"
   version="1.1"
   id="svg8"
   inkscape:version="0.92.5 (2060ec1f9f, 2020-04-08)"
   sodipodi:docname="phatch.svg">
  <defs
     id="defs2">
    <linearGradient
       inkscape:collect="always"
       id="linearGradient908">
      <stop
         style="stop-color:#ffffff;stop-opacity:0"
         offset="0"
         id="stop904" />
      <stop
         id="stop915"
         offset="0.77028114"
         style="stop-color:#5263ff;stop-opacity:0" />
      <stop
         style="stop-color:#001aff;stop-opacity:0.96268654"
         offset="1"
         id="stop906" />
    </linearGradient>
    <linearGradient
       inkscape:collect="always"
       id="linearGradient904">
      <stop
         style="stop-color:#ffffff;stop-opacity:1;"
         offset="0"
         id="stop900" />
      <stop
         style="stop-color:#ffffff;stop-opacity:0;"
         offset="1"
         id="stop902" />
    </linearGradient>
    <linearGradient
       inkscape:collect="always"
       id="linearGradient1109">
      <stop
         style="stop-color:#fcfcfc;stop-opacity:1;"
         offset="0"
         id="stop1105" />
      <stop
         style="stop-color:#fcfcfc;stop-opacity:0;"
         offset="1"
         id="stop1107" />
    </linearGradient>
    <linearGradient
       id="linearGradient3242"
       inkscape:collect="always">
      <stop
         id="stop3244"
         offset="0"
         style="stop-color:#e6e614;stop-opacity:0" />
      <stop
         id="stop3246"
         offset="1"
         style="stop-color:#e6e614;stop-opacity:0.65608466" />
    </linearGradient>
    <linearGradient
       id="linearGradient3222"
       inkscape:collect="always">
      <stop
         id="stop3224"
         offset="0"
         style="stop-color:#939393;stop-opacity:1" />
      <stop
         id="stop3226"
         offset="1"
         style="stop-color:black;stop-opacity:1" />
    </linearGradient>
    <linearGradient
       inkscape:collect="always"
       id="linearGradient3203">
      <stop
         style="stop-color:#ced0fa;stop-opacity:0"
         offset="0"
         id="stop3205" />
      <stop
         style="stop-color:white;stop-opacity:1"
         offset="1"
         id="stop3207" />
    </linearGradient>
    <linearGradient
       id="linearGradient3191"
       inkscape:collect="always">
      <stop
         id="stop3193"
         offset="0"
         style="stop-color:#ced0fa;stop-opacity:1" />
      <stop
         id="stop3195"
         offset="1"
         style="stop-color:#0c17fc;stop-opacity:1" />
    </linearGradient>
    <linearGradient
       inkscape:collect="always"
       id="linearGradient2792">
      <stop
         style="stop-color:#605a44;stop-opacity:1"
         offset="0"
         id="stop2794" />
      <stop
         style="stop-color:#efe7cf;stop-opacity:1"
         offset="1"
         id="stop2796" />
    </linearGradient>
    <linearGradient
       id="linearGradient2768"
       inkscape:collect="always">
      <stop
         id="stop2770"
         offset="0"
         style="stop-color:#9f987e;stop-opacity:1" />
      <stop
         id="stop2772"
         offset="1"
         style="stop-color:#efe7cf;stop-opacity:1" />
    </linearGradient>
    <linearGradient
       id="linearGradient2760"
       inkscape:collect="always">
      <stop
         id="stop2762"
         offset="0"
         style="stop-color:white;stop-opacity:1" />
      <stop
         id="stop2764"
         offset="1"
         style="stop-color:#bdb198;stop-opacity:1" />
    </linearGradient>
    <radialGradient
       gradientUnits="userSpaceOnUse"
       gradientTransform="matrix(0.54318798,-0.2553782,0.12097068,0.2573038,-8.6926431,265.25518)"
       r="58.816193"
       fy="61.994522"
       fx="64.339455"
       cy="61.994522"
       cx="64.339455"
       id="radialGradient2766"
       xlink:href="#linearGradient2760"
       inkscape:collect="always" />
    <linearGradient
       gradientUnits="userSpaceOnUse"
       y2="28.866545"
       x2="69.220016"
       y1="94.574928"
       x1="72.600578"
       id="linearGradient2774"
       xlink:href="#linearGradient2768"
       inkscape:collect="always"
       gradientTransform="matrix(0.54318798,0,0,0.54318798,-1.1931128,231.10102)" />
    <linearGradient
       y2="63.911018"
       x2="59.089973"
       y1="94.574928"
       x1="72.600578"
       gradientUnits="userSpaceOnUse"
       id="linearGradient2790"
       xlink:href="#linearGradient2792"
       inkscape:collect="always"
       gradientTransform="matrix(0.54318798,0,0,0.54318798,-1.1931128,231.10102)" />
    <radialGradient
       r="58.816193"
       fy="113.8336"
       fx="61.829536"
       cy="113.8336"
       cx="61.829536"
       gradientTransform="matrix(0.43521525,-0.38620122,0.05158515,0.05813198,5.8816662,296.01633)"
       gradientUnits="userSpaceOnUse"
       id="radialGradient2798"
       xlink:href="#linearGradient3222"
       inkscape:collect="always" />
    <linearGradient
       id="XMLID_13_"
       gradientUnits="userSpaceOnUse"
       x1="55.445801"
       y1="27.8354"
       x2="55.445801"
       y2="68.642197"
       gradientTransform="matrix(2.557637,0,0,2.557637,-11.3395,-36.4584)">
      <stop
         offset="10.9195%"
         style="stop-color:rgb(255,255,255)"
         id="stop136" />
      <stop
         offset="100%"
         style="stop-opacity:0;stop-color:rgb(255,255,255)"
         id="stop138" />
    </linearGradient>
    <linearGradient
       id="XMLID_12_"
       gradientUnits="userSpaceOnUse"
       x1="54.7808"
       y1="10.5996"
       x2="54.7808"
       y2="100.666"
       gradientTransform="matrix(2.557637,0,0,2.557637,-11.3395,-36.4584)">
      <stop
         offset="0.0899"
         style="stop-color:rgb(43,159,215)"
         id="stop117" />
      <stop
         offset="0.3508"
         style="stop-color:rgb(17,117,212)"
         id="stop119" />
      <stop
         offset="0.5562"
         style="stop-color:rgb(0,88,210)"
         id="stop121" />
      <stop
         offset="1"
         style="stop-color:rgb(0,50,187)"
         id="stop123" />
    </linearGradient>
    <radialGradient
       id="XMLID_11_"
       cx="57.557598"
       cy="97.225601"
       r="47.5662"
       fx="57.557598"
       fy="97.225601"
       gradientUnits="userSpaceOnUse"
       gradientTransform="matrix(2.557637,0,0,2.557637,-11.3395,-36.4584)">
      <stop
         offset="0.1742"
         style="stop-color:rgb(83,164,255)"
         id="stop106" />
      <stop
         offset="0.2463"
         style="stop-color:rgb(75,153,246)"
         id="stop108" />
      <stop
         offset="0.7613"
         style="stop-color:rgb(21,80,187)"
         id="stop110" />
      <stop
         offset="1"
         style="stop-color:rgb(0,51,164)"
         id="stop112" />
      <a:midPointStop
         offset="0.1742"
         style="stop-color:#53A4FF" />
      <a:midPointStop
         offset="0.4677"
         style="stop-color:#53A4FF" />
      <a:midPointStop
         offset="1"
         style="stop-color:#0033A4" />
    </radialGradient>
    <radialGradient
       gradientUnits="userSpaceOnUse"
       gradientTransform="matrix(2.557637,0,0,2.424385,-11.3395,-25.65979)"
       fy="107.437"
       fx="54.2939"
       r="80.205002"
       cy="107.437"
       cx="54.2939"
       id="XMLID_10_">
      <stop
         id="stop91"
         style="stop-color:rgb(255,255,255)"
         offset="0" />
      <stop
         id="stop93"
         style="stop-color:rgb(230,249,255)"
         offset="0.1176" />
      <stop
         id="stop95"
         style="stop-color:rgb(206,242,255)"
         offset="0.2604" />
      <stop
         id="stop97"
         style="stop-color:rgb(197,240,255)"
         offset="0.3483" />
      <stop
         id="stop99"
         style="stop-color:rgb(187,233,253)"
         offset="0.427" />
      <stop
         id="stop101"
         style="stop-color:rgb(29,116,217)"
         offset="1" />
      <a:midPointStop
         style="stop-color:#FFFFFF"
         offset="0" />
      <a:midPointStop
         style="stop-color:#FFFFFF"
         offset="0.4" />
      <a:midPointStop
         style="stop-color:#C5F0FF"
         offset="0.3483" />
      <a:midPointStop
         style="stop-color:#C5F0FF"
         offset="0.5" />
      <a:midPointStop
         style="stop-color:#BBE9FD"
         offset="0.427" />
      <a:midPointStop
         style="stop-color:#BBE9FD"
         offset="0.5" />
      <a:midPointStop
         style="stop-color:#1D74D9"
         offset="1" />
    </radialGradient>
    <radialGradient
       id="XMLID_9_"
       cx="54.263199"
       cy="107.916"
       r="83.695702"
       fx="54.263199"
       fy="107.916"
       gradientUnits="userSpaceOnUse"
       gradientTransform="matrix(2.557637,0,0,2.557637,-11.3395,-36.4584)">
      <stop
         offset="0"
         style="stop-color:rgb(212,232,255)"
         id="stop76" />
      <stop
         offset="0.0861"
         style="stop-color:rgb(202,228,255)"
         id="stop78" />
      <stop
         offset="0.3389"
         style="stop-color:rgb(178,219,255)"
         id="stop80" />
      <stop
         offset="0.4944"
         style="stop-color:rgb(169,215,255)"
         id="stop82" />
      <stop
         offset="1"
         style="stop-color:rgb(18,96,217)"
         id="stop84" />
      <a:midPointStop
         offset="0"
         style="stop-color:#D4E8FF" />
      <a:midPointStop
         offset="0.4"
         style="stop-color:#D4E8FF" />
      <a:midPointStop
         offset="0.4944"
         style="stop-color:#A9D7FF" />
      <a:midPointStop
         offset="0.5"
         style="stop-color:#A9D7FF" />
      <a:midPointStop
         offset="1"
         style="stop-color:#1260D9" />
    </radialGradient>
    <radialGradient
       gradientUnits="userSpaceOnUse"
       fy="128.34991"
       fx="55.926399"
       r="57.591801"
       cy="128.34991"
       cx="55.926399"
       id="XMLID_5_"
       gradientTransform="matrix(1.643856,1.255921e-2,-7.759248e-4,0.186452,37.91213,201.2012)">
      <stop
         id="stop42"
         style="stop-color:rgb(0,0,0)"
         offset="0" />
      <stop
         id="stop44"
         style="stop-color:black;stop-opacity:0"
         offset="1" />
    </radialGradient>
    <radialGradient
       r="20.325142"
       fy="56.913212"
       fx="155.10019"
       cy="56.913212"
       cx="155.10019"
       gradientTransform="matrix(-1.143201,0.02213729,-0.03030514,-1.565003,334.1356,142.8608)"
       gradientUnits="userSpaceOnUse"
       id="radialGradient3214"
       xlink:href="#linearGradient3191"
       inkscape:collect="always" />
    <linearGradient
       y2="100.666"
       x2="54.7808"
       y1="10.5996"
       x1="54.7808"
       gradientTransform="matrix(0.535686,0,0,0.496932,122.9821,34.89504)"
       gradientUnits="userSpaceOnUse"
       id="linearGradient3216"
       xlink:href="#XMLID_12_"
       inkscape:collect="always" />
    <linearGradient
       y2="45.852547"
       x2="152.19659"
       y1="61.822304"
       x1="152.19659"
       gradientUnits="userSpaceOnUse"
       id="linearGradient3218"
       xlink:href="#linearGradient3203"
       inkscape:collect="always" />
    <radialGradient
       gradientUnits="userSpaceOnUse"
       gradientTransform="matrix(-1.3816416,-0.04104179,0.04448175,-1.7971844,81.545424,293.19499)"
       r="7.7429113"
       fy="17.457632"
       fx="33.875237"
       cy="17.457632"
       cx="33.875237"
       id="radialGradient3228"
       xlink:href="#linearGradient3222"
       inkscape:collect="always" />
    <radialGradient
       gradientUnits="userSpaceOnUse"
       r="58.036667"
       fy="62.427219"
       fx="62.427219"
       cy="62.427219"
       cx="62.427219"
       id="radialGradient3248"
       xlink:href="#linearGradient3242"
       inkscape:collect="always"
       gradientTransform="matrix(0.52252769,-0.14838463,0.07412036,0.26101046,-3.6248554,258.05529)" />
    <radialGradient
       inkscape:collect="always"
       xlink:href="#linearGradient1109"
       id="radialGradient1111"
       cx="33.583439"
       cy="262.77505"
       fx="33.583439"
       fy="262.77505"
       r="2.4149888"
       gradientTransform="matrix(1.3151945,0,0,0.76034681,-10.298393,67.455771)"
       gradientUnits="userSpaceOnUse" />
    <radialGradient
       inkscape:collect="always"
       xlink:href="#linearGradient1109"
       id="radialGradient1115"
       gradientUnits="userSpaceOnUse"
       gradientTransform="matrix(1.3151944,0,0,0.76034674,218.91273,-157.729)"
       cx="33.583439"
       cy="262.77505"
       fx="33.583439"
       fy="262.77505"
       r="2.4149888" />
    <radialGradient
       inkscape:collect="always"
       xlink:href="#linearGradient1109"
       id="radialGradient1119"
       gradientUnits="userSpaceOnUse"
       gradientTransform="matrix(1.8700421,0,0,1.3973941,-26.004047,-107.43817)"
       cx="33.583439"
       cy="262.77505"
       fx="33.583439"
       fy="262.77505"
       r="2.4149888" />
    <linearGradient
       inkscape:collect="always"
       xlink:href="#linearGradient904"
       id="linearGradient906"
       x1="3.6979516"
       y1="268.35973"
       x2="20.678341"
       y2="268.35973"
       gradientUnits="userSpaceOnUse" />
    <linearGradient
       inkscape:collect="always"
       xlink:href="#linearGradient904"
       id="linearGradient910"
       gradientUnits="userSpaceOnUse"
       x1="3.6979516"
       y1="268.35973"
       x2="20.678341"
       y2="268.35973"
       gradientTransform="rotate(-180,30.338296,268.43519)" />
    <radialGradient
       inkscape:collect="always"
       xlink:href="#linearGradient908"
       id="radialGradient913"
       cx="29.346174"
       cy="280.07156"
       fx="29.346174"
       fy="280.07156"
       r="28.602808"
       gradientTransform="matrix(1.2371314,-0.47311993,0.28464498,0.74430008,-84.379353,77.202702)"
       gradientUnits="userSpaceOnUse" />
  </defs>
  <sodipodi:namedview
     id="base"
     pagecolor="#ff0000"
     bordercolor="#666666"
     borderopacity="1.0"
     inkscape:pageopacity="0"
     inkscape:pageshadow="2"
     inkscape:zoom="3.5058824"
     inkscape:cx="127.5"
     inkscape:cy="127.5"
     inkscape:document-units="mm"
     inkscape:current-layer="layer1"
     showgrid="false"
     units="px"
     inkscape:snap-to-guides="false"
     inkscape:snap-grids="false"
     inkscape:snap-others="false"
     inkscape:object-nodes="false"
     inkscape:snap-nodes="false"
     inkscape:snap-global="false"
     inkscape:window-width="1920"
     inkscape:window-height="1056"
     inkscape:window-x="0"
     inkscape:window-y="0"
     inkscape:window-maximized="1" />
  <metadata
     id="metadata5">
    <rdf:RDF>
      <cc:Work
         rdf:about="">
        <dc:format>image/svg+xml</dc:format>
        <dc:type
           rdf:resource="http://purl.org/dc/dcmitype/StillImage" />
        <dc:title />
      </cc:Work>
    </rdf:RDF>
  </metadata>
  <g
     inkscape:label="Layer 1"
     inkscape:groupmode="layer"
     id="layer1"
     transform="translate(0,-229.53123)">
    <path
       sodipodi:nodetypes="cscsc"
       id="path1873"
       d="m 2.0786518,276.98313 c 9.2979062,-28.30675 35.2017292,-33.00311 53.3892922,-25.43056 3.648529,1.5191 6.642679,0.90992 9.964018,-2.82561 -6.35103,24.50426 -25.856078,39.39994 -46.845755,29.29718 -5.290941,-2.54663 -10.1663787,-3.54544 -16.5075552,-1.04101 z"
       style="fill:url(#radialGradient2766);fill-opacity:1;fill-rule:evenodd;stroke:url(#linearGradient2774);stroke-width:1.08637595;stroke-linecap:round;stroke-linejoin:round;stroke-miterlimit:4;stroke-dasharray:none;stroke-opacity:1"
       inkscape:connector-curvature="0" />
    <path
       style="fill:url(#radialGradient2798);fill-opacity:1.0;fill-rule:evenodd;stroke:url(#linearGradient2790);stroke-width:1.08637595;stroke-linecap:round;stroke-linejoin:round;stroke-miterlimit:4;stroke-dasharray:none;stroke-opacity:1"
       d="m 2.0786518,276.98313 c 13.8693872,-6.86626 18.5272682,5.7787 38.3814102,0.15284 10.037049,-2.8441 17.299522,-17.30359 24.9719,-28.40901 -6.35103,24.50426 -25.856078,39.39994 -46.845755,29.29718 -5.290941,-2.54663 -10.1663787,-3.54544 -16.5075552,-1.04101 z"
       id="path2788"
       sodipodi:nodetypes="cscsc"
       inkscape:connector-curvature="0" />
    <g
       transform="matrix(0.5910249,0,0,0.5910249,-56.842116,224.35372)"
       id="g3209">
      <ellipse
         style="opacity:1;fill:url(#radialGradient3214);fill-opacity:1;stroke:none;stroke-width:2;stroke-linecap:round;stroke-linejoin:round;stroke-miterlimit:4;stroke-dasharray:none;stroke-opacity:1"
         id="path3189"
         cx="152.19659"
         cy="67.38752"
         rx="20.325142"
         ry="19.720228" />
      <path
         d="m 145.482,49.417911 c -0.10339,0 -0.21642,0.03876 -0.33213,0.09988 0.27321,-0.07454 0.4007,-0.09988 0.33213,-0.09988 z m 6.73945,1.219473 0.068,-0.915354 -1.04084,0.06063 0.13874,0.854726 z M 140.4803,66.444319 c -0.20945,-0.182376 -0.0686,-0.976971 -0.0686,-0.976971 0,0 -3.12626,-1.524096 -6.53107,-2.440439 -0.42052,-0.113797 -0.20785,-0.91485 0.20784,-1.219474 l -0.13821,-0.856707 c -0.0691,-0.425875 0.69479,-2.501068 1.45921,-2.682941 0.76442,-0.184367 -0.0697,1.219473 -0.0697,1.219473 l -0.76495,0.426862 c 0,0 0.9037,0.976474 1.11316,0.976474 0.20784,0 0.5555,-0.487988 0.5555,-0.487988 l -0.97281,-0.608244 0.90317,-0.36823 0.0562,-0.321515 0.1516,-0.04423 1.49563,-2.101528 c 1.03227,-0.393074 2.30345,-0.879072 2.46415,-0.950133 0.27803,-0.121748 2.2231,-1.158353 2.57076,-1.402348 0.34819,-0.245977 1.11047,-0.183365 1.38849,-0.183365 0.27856,0 0.69532,-0.122743 0.76496,-0.795589 0.0696,-0.670365 0.34766,-0.793109 0.55604,-0.609737 0.20838,0.181873 -0.20892,0.487491 0.27856,0.609737 0.48694,0.124228 0.90209,0.428354 1.25029,0.124228 0.25445,-0.224609 -0.0862,-0.479041 -0.31553,-0.672348 h 3.85748 l 0.41783,-1.09921 -0.90317,-0.121748 -3.33571,-0.304126 v -0.367235 l -0.26623,0.04174 c 0.36159,-1.841134 2.50647,-1.536518 0.89191,-2.603431 -0.0986,-0.0646 -1.51062,2.06575 -1.8706,2.02401 -0.65087,-0.08001 -1.4935,-0.08597 -1.67242,0.110321 -0.23624,0.25989 0.53301,-0.891997 1.19619,-1.241836 -1.05798,0.290205 -4.40065,1.350161 -7.93511,4.842611 -3.3791,3.339883 -4.72474,7.837623 -4.72474,7.995648 0,0.303621 0.69479,0.426862 0.76496,0.793599 0.068,0.364748 -1.31993,1.585216 -1.31993,2.195948 0,0.281258 -0.32784,4.04354 0.83299,7.140922 1.35582,3.616679 4.24906,6.636539 4.58546,6.83531 l 0.69372,-0.306108 c 0,0 -1.59688,-2.623306 -1.66652,-2.867798 -0.0696,-0.242999 1.80687,-3.78365 2.7095,-3.661404 0.90263,0.12076 0.69371,0.366737 1.25029,0.06063 0.55658,-0.304623 0.90262,-2.808171 1.52777,-3.050672 0.62515,-0.245479 1.321,-0.550102 1.25189,-1.159839 -0.0702,-0.610732 -2.43093,-1.707959 -2.64039,-1.89232 z m 15.07633,-17.942261 -1.79026,-0.330958 0.26195,0.697199 z m -7.01801,2.257074 c 0.20892,0 4.37762,-2.561192 3.95978,-2.624308 -0.41569,-0.06012 -0.52068,0.194301 -1.63277,0.07305 -1.11154,-0.122743 -2.25791,1.270658 -2.5354,1.514156 -0.27695,0.244989 -0.18373,1.037102 0.20839,1.037102 z m 19.12717,18.402913 0.53944,-0.646511 -0.53944,-0.177901 -0.4023,0.471588 -0.47033,0.645516 0.4023,0.177403 z m 2.35434,2.118924 -0.13553,-0.942187 h -0.87317 l -0.0675,0.704148 -0.80835,-0.115779 -0.19928,-0.764784 -0.4039,-0.23455 -0.4714,0.528734 -0.47033,-0.117769 -0.135,0.410468 0.5389,0.118267 v 3.823401 l 1.90436,0.424382 c -0.0445,0.07156 -0.0777,0.13019 -0.0889,0.161499 -0.13553,0.413454 0.53836,0.589862 1.00815,0.413454 0.17465,-0.06609 0.72854,-0.584397 1.07566,-1.352656 0.4848,-1.068405 0.90799,-2.479693 0.99316,-2.978617 l 0.21695,-0.432824 -1.34403,0.47109 z m 2.56647,-7.23286 -0.0927,-0.516314 c -0.41676,-2.175573 -1.37724,-4.957403 -3.41392,-7.839114 -3.54785,-5.018033 -11.30939,-7.082788 -11.30939,-7.082788 l -0.79495,0.787645 -0.26838,-0.409971 -0.67335,-0.23654 v 0.528734 l 0.60425,0.472583 -0.40231,0.176408 -1.54705,0.116781 -3.49642,1.765106 0.33534,1.410791 -0.40284,0.119268 -0.20141,0.292195 1.14315,1.588691 0.067,0.529736 -0.9412,0.175911 v 1.058464 l -0.53729,0.116284 0.0675,0.823913 -4.57261,2.942838 0.13392,1.645845 c 0.33641,0.411456 2.95966,2.88221 2.95966,2.88221 0,0 3.02448,0.116284 3.69784,-0.235545 0.67121,-0.352824 0.20141,0.351829 0.40337,0.529232 0.20088,0.176408 0.26784,1.410292 0.46979,1.530051 0.20195,0.116781 0,0.821931 0.26891,1.058471 0.26892,0.236042 0.26892,3.059115 0.26892,3.059115 0,0 1.61348,2.526905 1.61348,3.176891 0,0.646013 -0.0664,0.586884 1.21172,0.528244 1.27868,-0.05914 1.54599,-0.528244 1.8149,-0.705647 0.27052,-0.176906 0.27052,-0.588369 0.5389,-0.94169 0.26945,-0.353314 0.73872,-1.706466 1.34457,-2.175567 0.60586,-0.472085 2.21881,-0.825903 2.35327,-1.648325 0.13553,-0.822926 0.74085,-1.470424 0.74085,-1.470424 l 2.90717,-2.853891 -0.0825,0.384132 -0.0664,1.46943 0.87317,-0.293189 -0.0675,-1.588699 -0.31391,-0.3076 0.045,-0.04522 c 0,0 -0.20249,-0.352325 -0.47033,-0.352325 -0.26891,0 -1.884,0.352325 -2.15185,0.294184 -0.26998,-0.05914 -1.41367,-2.882216 -1.61562,-2.999488 -0.20142,-0.117776 -1.4785,-2.058793 -1.4785,-2.058793 0,0 2.95752,3.294163 3.42839,4.587184 0.2732,0.75335 1.29957,0.05168 2.13524,-0.734462 l 0.21909,0.498916 0.53783,-0.118763 -0.067,-0.586876 h 0.60533 v 0.882553 l -0.20196,0.469598 -0.0696,0.764286 0.53889,0.471587 0.26946,-0.410467 0.87423,-0.766269 1.00977,-0.4706 0.26838,0.4706 0.13446,0.647995 -0.26946,0.70515 -0.53783,0.41196 -0.26944,1.060454 v 0.528237 l -0.60479,-0.352326 -0.0675,-1.117104 -0.87317,0.05914 -0.4039,0.998339 0.60479,0.825406 1.411,0.175414 1.14476,-1.00082 0.13338,-1.938536 0.50836,-0.62365 c 0.33106,0.789129 0.56729,1.618507 0.56729,2.387264 0,0.844287 0.41784,-0.584396 0.0627,-3.159994 z m -16.68767,-5.88518 -3.6298,-0.118763 1.54491,-1.175743 h 0.80622 l 1.27867,0.822422 z m 4.43815,-0.411455 v 0.529232 h -1.54759 l 0.13607,0.352326 -0.94174,0.119759 -0.0675,0.293189 -0.67335,-0.117769 -1.20904,-0.236042 0.20194,-0.293687 0.20089,-0.354316 0.67228,-0.646013 0.26946,0.470592 1.00923,-0.05863 0.53836,-0.530234 2.08275,0.352824 z m 0.13393,-0.765282 -0.80621,0.116284 -0.13446,-0.529232 1.00655,-0.116781 0.13607,-0.529232 0.74085,0.706642 z m 3.90085,18.291603 -0.4714,0.353818 0.0686,0.882553 h 0.60425 v -0.763291 l 0.5389,-0.648494 v -1.352158 l -0.33641,-0.06062 z m -4.50511,-1.762122 c 0,0 -0.46979,0.114792 0.0664,0.292692 0.53783,0.177403 2.68967,-2.881214 2.68967,-2.881214 l -1.8149,1.058464 z m -3.6598,11.272919 -0.40337,-0.356299 -0.80674,-0.118272 -0.13339,0.356802 -1.07458,-0.119268 -0.0675,-0.47308 h -0.80674 l -0.87424,0.47308 h -1.54545 l -0.13392,-0.354309 -2.48719,-0.238032 -0.40337,0.355304 -1.00708,-0.236043 -0.13446,-0.830373 -0.47034,-0.06013 -0.53728,0.890504 -1.81384,-0.05963 c 0.32355,0.142626 3.03359,1.642867 7.1889,1.95643 5.51113,0.41245 8.1317,-0.830373 8.1317,-0.830373 L 158.62664,84.9665 Z"
         style="fill:url(#linearGradient3216)"
         id="path125"
         inkscape:connector-curvature="0" />
      <ellipse
         id="path3199"
         style="opacity:1;fill:url(#linearGradient3218);fill-opacity:1;stroke:none;stroke-width:2;stroke-linecap:round;stroke-linejoin:round;stroke-miterlimit:4;stroke-dasharray:none;stroke-opacity:1"
         cx="152.19659"
         cy="67.38752"
         rx="20.325142"
         ry="19.720228" />
    </g>
    <path
       d="m 10.490013,243.5312 19.383963,18.18609 -14.007549,-22.79306 14.851181,22.04347 -8.584417,-25.33857 9.573697,24.79549 -2.730825,-26.61349 3.816149,26.30416 3.259701,-26.5539 -2.132757,26.49384 9.086772,-25.16279 -7.974718,25.355 14.458195,-22.50991 -13.416793,22.94476 19.104623,-18.72829 -18.186094,19.38397 22.793066,-14.00755 -22.043469,14.85118 25.33857,-8.58442 -24.795492,9.5737 26.613491,-2.73083 -26.304164,3.81615 26.5539,3.2597 -26.493837,-2.13276 25.162787,9.08678 -25.354998,-7.97472 22.509907,14.45819 -22.944754,-13.41679 18.728285,19.10462 -19.383964,-18.18609 14.00755,22.79307 -14.851181,-22.04347 8.584417,25.33857 -9.573697,-24.79549 2.730825,26.61349 -3.816149,-26.30417 -3.259701,26.5539 2.132757,-26.49383 -9.086772,25.16278 7.974718,-25.355 L 17.755041,292.43489 31.171834,269.49014 12.06721,288.21842 30.253305,268.83446 7.4602386,282.84201 29.503707,267.99083 4.1651379,276.57524 28.960629,267.00155 2.3471385,269.73237 28.651303,265.91622 2.0974023,262.65652 28.59124,264.78928 3.4284523,255.70251 28.783451,263.67723 6.2735441,249.21903 29.218298,262.63582 Z"
       inkscape:randomized="0"
       inkscape:rounded="0"
       inkscape:flatsided="false"
       sodipodi:arg2="-2.4094418"
       sodipodi:arg1="-2.391474"
       sodipodi:r2="5.0397382"
       sodipodi:r1="31.618313"
       sodipodi:cy="265.0862"
       sodipodi:cx="33.622222"
       sodipodi:sides="28"
       id="path3240"
       style="fill:url(#radialGradient3248);fill-opacity:1;stroke:none;stroke-width:1.08637595;stroke-linecap:round;stroke-linejoin:round;stroke-miterlimit:4;stroke-dasharray:none;stroke-opacity:1"
       sodipodi:type="star" />
    <ellipse
       id="path3220"
       style="opacity:1;fill:url(#radialGradient3228);fill-opacity:1;stroke:none;stroke-width:2.31392813;stroke-linecap:round;stroke-linejoin:round;stroke-miterlimit:4;stroke-dasharray:none;stroke-opacity:1"
       cx="33.378815"
       cy="263.6532"
       rx="8.558815"
       ry="8.3508272" />
    <ellipse
       style="opacity:0.57700004;fill:#000000;fill-opacity:1;fill-rule:evenodd;stroke:#0ca051;stroke-width:0.61156535;stroke-linecap:round;stroke-linejoin:round;stroke-miterlimit:4;stroke-dasharray:none;stroke-dashoffset:0;stroke-opacity:1;paint-order:normal"
       id="path1101"
       cx="33.919987"
       cy="263.33533"
       rx="4.9131532"
       ry="5.0620365" />
    <ellipse
       style="opacity:0.57700004;fill:url(#radialGradient1111);fill-opacity:1;fill-rule:evenodd;stroke:none;stroke-width:0.5209052;stroke-linecap:round;stroke-linejoin:round;stroke-miterlimit:4;stroke-dasharray:none;stroke-dashoffset:0;stroke-opacity:1;paint-order:normal"
       id="path1103"
       cx="33.870358"
       cy="267.25592"
       rx="3.1761796"
       ry="1.8362288" />
    <ellipse
       ry="1.8362288"
       rx="3.1761796"
       cy="42.071156"
       cx="263.08151"
       id="ellipse1113"
       style="opacity:0.57700004;fill:url(#radialGradient1115);fill-opacity:1;fill-rule:evenodd;stroke:none;stroke-width:0.5209052;stroke-linecap:round;stroke-linejoin:round;stroke-miterlimit:4;stroke-dasharray:none;stroke-dashoffset:0;stroke-opacity:1;paint-order:normal"
       transform="rotate(74.535069)" />
    <ellipse
       ry="3.374691"
       rx="4.5161309"
       cy="259.76212"
       cx="36.798401"
       id="ellipse1117"
       style="opacity:0.57700004;fill:url(#radialGradient1119);fill-opacity:1;fill-rule:evenodd;stroke:none;stroke-width:0.84205991;stroke-linecap:round;stroke-linejoin:round;stroke-miterlimit:4;stroke-dasharray:none;stroke-dashoffset:0;stroke-opacity:1;paint-order:normal" />
    <path
       style="fill:url(#linearGradient906);stroke:none;stroke-width:0.26458332px;stroke-linecap:butt;stroke-linejoin:miter;stroke-opacity:1;fill-opacity:1"
       d="m 3.6979516,275.41602 c 4.338585,-8.20154 11.5984924,-11.68686 16.3766424,-14.11259 -4.501301,5.78405 -1.970639,9.61478 0.603747,13.43337 -5.66013,-1.3873 -11.3202596,-3.19307 -16.9803894,0.67922 z"
       id="path898"
       inkscape:connector-curvature="0"
       sodipodi:nodetypes="cccc" />
    <path
       sodipodi:nodetypes="cccc"
       inkscape:connector-curvature="0"
       id="path908"
       d="m 55.016463,261.52984 c -4.400352,6.05785 -7.121559,10.18968 -12.829629,11.6976 4.501301,-5.78405 2.197045,-11.65243 -0.377341,-15.47102 5.879189,-0.14611 8.100597,3.76941 13.20697,3.77342 z"
       style="fill:url(#linearGradient910);fill-opacity:1;stroke:none;stroke-width:0.26458332px;stroke-linecap:butt;stroke-linejoin:miter;stroke-opacity:1" />
    <path
       style="fill:url(#radialGradient913);stroke:none;stroke-width:0.26458332px;stroke-linecap:butt;stroke-linejoin:miter;stroke-opacity:1;fill-opacity:1"
       d="m 4.150762,274.96321 c 8.149207,-25.04905 36.104515,-31.16573 53.884438,-20.82928 1.384225,0.80472 3.094204,-0.75469 3.094204,-0.75469 -4.032814,4.7867 -11.460117,3.4175 -16.376645,1.88672 -8.814694,-2.74449 -15.436361,-0.82712 -21.659429,2.56592 -5.836302,3.18217 -10.624703,6.10236 -14.1125904,9.96183 -2.4700061,2.73315 -4.8299776,7.1695 -4.8299776,7.1695 z"
       id="path902"
       inkscape:connector-curvature="0"
       sodipodi:nodetypes="cscsssc" />
  </g>
</svg>
