<?xml version="1.0" encoding="UTF-8" standalone="no"?>
<!-- Created with Inkscape (http://www.inkscape.org/) -->
<svg xmlns:dc="http://purl.org/dc/elements/1.1/" xmlns:cc="http://creativecommons.org/ns#" xmlns:rdf="http://www.w3.org/1999/02/22-rdf-syntax-ns#" xmlns:svg="http://www.w3.org/2000/svg" xmlns="http://www.w3.org/2000/svg" xmlns:xlink="http://www.w3.org/1999/xlink" xmlns:sodipodi="http://sodipodi.sourceforge.net/DTD/sodipodi-0.dtd" xmlns:inkscape="http://www.inkscape.org/namespaces/inkscape" width="255" height="255" viewBox="0 0 67.468748 67.468752" version="1.1" id="svg8" inkscape:version="0.92.5 (2060ec1f9f, 2020-04-08)" sodipodi:docname="preferences-desktop-cryptography.svg">
 <defs id="defs2">
  <linearGradient id="linearGradient882">
   <stop id="stop878" stop-color="#616161" stop-opacity="1"/>
   <stop id="stop880" offset="1" stop-color="#ffffff" stop-opacity="1"/>
  </linearGradient>
  <linearGradient id="linearGradient4195">
   <stop id="stop4197" stop-color="#a1a1a1" stop-opacity="1"/>
   <stop offset="1" id="stop4199" stop-color="#ffffff" stop-opacity="1"/>
  </linearGradient>
  <linearGradient inkscape:collect="always" id="linearGradient4194">
   <stop stop-opacity="1" stop-color="#070d91" id="stop4196"/>
   <stop stop-opacity="1" stop-color="#7783f6" offset="1" id="stop4198"/>
  </linearGradient>
  <linearGradient id="linearGradient4184" inkscape:collect="always">
   <stop stop-opacity="1" stop-color="#910707" id="stop4186"/>
   <stop stop-opacity="1" stop-color="#f82c2c" id="stop4188" offset="1"/>
  </linearGradient>
  <linearGradient id="linearGradient4177" inkscape:collect="always">
   <stop stop-opacity="1" stop-color="#203cd9" id="stop4179"/>
   <stop stop-opacity="1" stop-color="#525221" offset="0.735" id="stop4187"/>
   <stop stop-opacity="1" stop-color="#d9d520" offset="0.863" id="stop4185"/>
   <stop stop-opacity="1" stop-color="#8a801b" id="stop4181" offset="1"/>
  </linearGradient>
  <linearGradient id="linearGradient4600" inkscape:collect="always">
   <stop stop-opacity="0" stop-color="#9e9e56" id="stop4602"/>
   <stop stop-opacity="1" stop-color="#d9d987" id="stop4604" offset="1"/>
  </linearGradient>
  <linearGradient id="linearGradient4594">
   <stop stop-opacity="1" stop-color="#444444" id="stop4596"/>
   <stop id="stop906" stop-color="#dcdcdc" stop-opacity="1" offset="0.209"/>
   <stop stop-opacity="1" stop-color="#d7d7d7" offset="1" id="stop4598"/>
  </linearGradient>
  <linearGradient id="linearGradient2824" inkscape:collect="always">
   <stop stop-opacity="1" stop-color="black" id="stop2826"/>
   <stop stop-opacity="1" stop-color="#a6a6a6" id="stop2829" offset="1"/>
  </linearGradient>
  <linearGradient y2="62.775" x2="149.34" y1="62.775" x1="103.61" gradientTransform="matrix(0.21429478,0,0,0.17570209,85.520839,-229.03935)" gradientUnits="userSpaceOnUse" id="linearGradient3628" xlink:href="#linearGradient2824" inkscape:collect="always"/>
  <linearGradient spreadMethod="reflect" y2="62.698" x2="131.91" y1="62.958" x1="114.01" gradientTransform="matrix(-0.23251733,-0.02155871,-0.06203903,0.66910616,51.649983,238.10272)" gradientUnits="userSpaceOnUse" id="linearGradient4203" xlink:href="#linearGradient882" inkscape:collect="always"/>
  <linearGradient y2="75.28" x2="65.02" y1="75.74" x1="42.15" spreadMethod="reflect" gradientTransform="matrix(-1.5414397,1.0204499,0.82580399,1.2474183,-22.568057,-16.067107)" gradientUnits="userSpaceOnUse" id="linearGradient4212" xlink:href="#linearGradient4195" inkscape:collect="always"/>
  <linearGradient y2="62.698" x2="131.91" y1="62.68" x1="97.49" gradientTransform="matrix(-0.73592408,0.48719031,1.4019677,2.1177414,-31.558753,-10.612617)" gradientUnits="userSpaceOnUse" id="linearGradient4217" xlink:href="#linearGradient4594" inkscape:collect="always"/>
  <linearGradient gradientTransform="matrix(0.19043397,0,0,0.17485105,7.141686,239.99122)" gradientUnits="userSpaceOnUse" y2="94.18" x2="95.29" y1="-26.9" x1="117.44" id="linearGradient4606" xlink:href="#linearGradient4600" inkscape:collect="always"/>
  <linearGradient gradientTransform="matrix(0.82286905,0,0,0.82286905,-179.60574,38.074363)" gradientUnits="userSpaceOnUse" y2="96.36" x2="150.61" y1="23.04" x1="116.45" id="linearGradient4620" xlink:href="#linearGradient4600" inkscape:collect="always"/>
  <radialGradient spreadMethod="reflect" gradientUnits="userSpaceOnUse" gradientTransform="matrix(0.26458333,0,0,0.18872094,43.723183,223.95635)" r="59.686" fy="96.88" fx="-11.03" cy="96.88" cx="-11.03" id="radialGradient4183" xlink:href="#linearGradient4177" inkscape:collect="always"/>
  <filter color-interpolation-filters="sRGB" height="1.058" y="-0.029" width="1.041" x="-0.021" id="filter4197" inkscape:collect="always">
   <feGaussianBlur id="feGaussianBlur4199" stdDeviation="1.02258" inkscape:collect="always"/>
  </filter>
  <filter color-interpolation-filters="sRGB" height="1.043" y="-0.022" width="1.054" x="-0.027" id="filter4221" inkscape:collect="always">
   <feGaussianBlur id="feGaussianBlur4223" stdDeviation="2.05447" inkscape:collect="always"/>
  </filter>
  <linearGradient gradientTransform="translate(-192.77962,7.3709855)" spreadMethod="reflect" gradientUnits="userSpaceOnUse" y2="85.93" x2="138.96" y1="104.32" x1="109.52" id="linearGradient4190" xlink:href="#linearGradient4184" inkscape:collect="always"/>
  <linearGradient y2="75.28" x2="65.02" y1="75.28" x1="32.09" spreadMethod="reflect" gradientTransform="matrix(-0.48702208,-0.04515632,-0.03654309,0.39412513,54.505191,238.90823)" gradientUnits="userSpaceOnUse" id="linearGradient4189" xlink:href="#linearGradient4194" inkscape:collect="always"/>
  <filter color-interpolation-filters="sRGB" height="1.089" y="-0.044" width="1.061" x="-0.03" id="filter4219" inkscape:collect="always">
   <feGaussianBlur id="feGaussianBlur4221" stdDeviation="0.91864" inkscape:collect="always"/>
  </filter>
 </defs>
 <sodipodi:namedview id="base" pagecolor="#ff0000" bordercolor="#666666" borderopacity="1.0" inkscape:pageopacity="0" inkscape:pageshadow="2" inkscape:zoom="3.5058824" inkscape:cx="127.5" inkscape:cy="127.5" inkscape:document-units="mm" inkscape:current-layer="layer1" showgrid="false" units="px" inkscape:snap-to-guides="false" inkscape:snap-grids="false" inkscape:snap-others="false" inkscape:object-nodes="false" inkscape:snap-nodes="false" inkscape:snap-global="false" inkscape:window-width="1920" inkscape:window-height="1056" inkscape:window-x="0" inkscape:window-y="0" inkscape:window-maximized="1"/>
 <metadata id="metadata5">
  <rdf:RDF>
   <cc:Work>
    <dc:format>image/svg+xml</dc:format>
    <dc:type rdf:resource="http://purl.org/dc/dcmitype/StillImage"/>
    <dc:title/>
   </cc:Work>
  </rdf:RDF>
 </metadata>
 <g inkscape:label="Layer 1" inkscape:groupmode="layer" id="layer1" transform="translate(0,-229.53123)">
  <path sodipodi:nodetypes="ccscccccccc" inkscape:connector-curvature="0" id="path4189" d="m 83.448261,60.675795 c -8.5e-5,23.511853 26.722079,42.572015 59.685539,42.572265 32.96346,-2.5e-4 59.68547,-19.06041 59.68555,-42.572265 -9e-5,-23.511853 -26.72209,-42.572016 -59.68555,-42.572267 -23.903,1.84e-4 -44.524097,10.022498 -54.054236,24.496929 3.564018,1.009131 7.796939,2.352714 14.356336,4.859536 6.97947,-10.647525 22.1309,-18.024285 39.6979,-18.024432 24.18922,1.99e-4 43.79842,13.986785 43.79883,31.240234 -4.1e-4,17.253448 -19.60961,31.240031 -43.79883,31.24023 -24.18921,-2.03e-4 -43.798407,-13.986785 -43.798817,-31.24023 -1.50536,-10.133453 -15.411255,-9.028212 -15.886722,0 z" stroke-miterlimit="4" transform="matrix(0.26458333,0,0,0.26458333,1.3331151,229.20785)" opacity="1" stroke-dasharray="none" stroke-opacity="0.772" fill="#000000" filter="url(#filter4197)" fill-rule="evenodd" stroke="none" stroke-linejoin="miter" fill-opacity="0.425" stroke-linecap="round" stroke-width="2" stroke-dashoffset="0"/>
  <path d="m 87.624401,24.367393 c -12.59329,-0.192706 -23.32634,6.925156 -25.53125,16.90625 -14.1764,5.859699 -24.23214,17.363747 -25.53125,31.375 -1.18414,12.771328 5.18561,24.814479 16.0625,33.187497 l -1.71875,18.625 8.75,0.78125 7.1875,14.65625 -11.78125,14.09375 6.125,16.25 -9.09375,15.78125 9,16.03125 -11.96875,16 -0.875,14.625 10.25,18.0625 13.6875,1.5 20.468752,-20.25 9.499997,-102.78125 5.9375,0.53125 0.40625,-4.34375 c 0.25021,-0.002 0.49896,0.005 0.75,0 l 10.3125,15.59375 7.3125,-4.84375 14.78125,6.90625 -0.34375,18.375 14.9375,8.8125 2.8125,18 17.0625,6.84375 0.6875,19.96875 8.5,11.9375 19.28125,7.6875 11.59375,-7.40625 3.25,-28.625 -56.96875,-86.0625 4.96875,-3.28125 -9.21875,-13.937497 c 7.3106,-13.41851 7.90474,-28.639264 0.15625,-40.34375 -7.9945,-12.07607 -22.8651,-17.403888 -38.625,-15.40625 -2.65943,-2.882672 -6.23672,-4.819647 -10.21875,-5.71875 -0.0443,-0.05068 -0.0802,-0.105874 -0.125,-0.15625 -4.41828,-4.970893 -11.290321,-8.480729 -19.249997,-9.21875 -0.854132,-0.07919 -1.691692,-0.143403 -2.531252,-0.15625 z m 2.093752,8.15625 c 0.433437,0.0044 0.871053,0.02157 1.3125,0.0625 2.128179,0.197322 4.08461,0.807157 5.781246,1.71875 -3.160614,0.847733 -6.335762,2.248122 -9.312498,4.21875 -3.69015,2.442924 -6.64132,5.487381 -8.84375,8.8125 -1.04928,-1.682876 -1.58973,-3.583658 -1.40625,-5.5625 0.49685,-5.35865 5.9672,-9.315809 12.468752,-9.25 z m 11.374997,9.21875 c 0.57274,-0.0098 1.13558,0.05921 1.6875,0.125 0.13319,0.74545 0.16563,1.505917 0.0937,2.28125 -0.52999,5.715887 -6.686847,9.811131 -13.749999,9.15625 -0.70537,-0.0654 -1.39589,-0.161038 -2.0625,-0.3125 0.67815,-3.257319 2.83916,-6.502105 6.187502,-8.71875 2.495297,-1.651917 5.252476,-2.486784 7.843747,-2.53125 z" id="path1892" inkscape:connector-curvature="0" transform="matrix(0.24488745,0,0,0.24488745,1.9533472,233.22297)" fill="#000000" filter="url(#filter4221)" stroke="none" fill-opacity="0.556"/>
  <g id="g4202" transform="matrix(0.26458333,0,0,0.26458333,52.119335,225.31417)">
   <path sodipodi:nodetypes="scsccccccccccccccccscssssssss" id="path2144" d="m -89.278492,46.168856 c 4.15312,0.699916 7.88724,2.565212 10.60468,5.510761 14.5867,-1.848928 28.35687,3.094221 35.75625,14.271335 7.17169,10.83319 6.62392,24.912025 -0.14246,37.331638 l 8.5318,12.89001 -4.60007,3.04595 52.74621,79.65678 -3.01651,26.48196 -10.74153034,6.8571 -17.84922966,-7.09621 -7.85792,-11.05941 -0.645,-18.48479 -15.79681,-6.33595 -2.58321,-16.66095 -13.83582,-8.15626 0.31658,-17.0064 -13.68959,-6.38381 -6.75893,4.48573 -9.55472,-14.42453 c -12.701758,0.269 -24.297878,-4.71162 -30.850958,-14.61037 -7.18929,-10.85978 -6.59846,-24.986288 0.22842,-37.435021 -4.47839,-9.0434 -0.0732,-21.367541 10.51902,-28.379724 6.16936,-4.084178 13.14984,-5.520795 19.219798,-4.497839 z m -3.857561,6.774646 c -3.002818,-0.579635 -9.096497,-1.423367 -12.175887,0.615224 -5.47447,3.624166 -5.41896,12.617591 -2.48609,17.047842 2.93287,4.430248 9.771176,5.068713 15.245666,1.444547 5.474472,-3.624165 7.543092,-10.163191 4.610222,-14.593443 -1.28312,-1.938237 -2.85838,-4.063341 -5.193911,-4.51417 z" inkscape:connector-curvature="0" fill="#ffffff" stroke="none" fill-opacity="1"/>
   <path d="m -39.098923,114.08989 -34.43448,22.79599 16.7592,7.80665 -0.32911,17.01183 13.83373,8.16273 2.59638,16.65573 15.78914,6.34135 0.64094,18.47712 7.85383,11.06774 17.85818,7.07911 10.74467,-6.84963 3.0099,-26.492 z" id="rect2793" sodipodi:nodetypes="ccccccccccccc" inkscape:connector-curvature="0" fill="url(#linearGradient4217)" stroke="none" fill-opacity="1"/>
   <path stroke-miterlimit="4" d="m -107.4451,48.700529 c 10.390499,-6.878618 23.138863,-6.252607 29.827933,0.997974 14.58669,-1.848929 28.37614,3.095723 35.77551,14.272837 7.17169,10.833191 6.60878,24.912466 -0.1576,37.33208 l 8.54191,12.90298 -4.62431,3.06135 52.44743,79.22443 -2.9662,15.71726 -58.77804,-88.78711 c -2.09521,-2.72379 -7.82972,1.45938 -5.92491,3.92236 l 63.74174,96.28504 -8.4297399,5.58058 -63.7417501,-96.28504 -16.04061,10.61905 -9.54835,-14.42326 c -12.701763,0.269 -24.315923,-4.70682 -30.869003,-14.60557 -7.18929,-10.85978 -6.59875,-24.986114 0.22813,-37.434846 -4.47841,-9.043401 -0.0744,-21.367932 10.51786,-28.380115 z m 5.32983,5.330007 c -5.47448,3.624167 -7.53978,10.169146 -4.60691,14.599396 2.93288,4.43025 9.764661,5.085271 15.239142,1.461107 5.474491,-3.624165 7.539781,-10.169144 4.606901,-14.599396 -2.932871,-4.430254 -9.764653,-5.085272 -15.239133,-1.461107 z" id="path1873" sodipodi:nodetypes="ccsccccccccccccscccsssc" inkscape:connector-curvature="0" stroke-dasharray="none" stroke-opacity="1" fill="url(#linearGradient4212)" stroke="#8c8c8c" stroke-linejoin="round" fill-opacity="1" stroke-linecap="round" stroke-width="1.663" stroke-dashoffset="0"/>
   <path stroke-miterlimit="4" sodipodi:nodetypes="ccssc" id="path2806" d="m -110.69685,87.003251 c -2.25856,7.21803 -1.64776,14.718159 2.36894,20.785589 8.03341,12.13488 26.663413,13.96643 41.584819,4.08831 14.921396,-9.87813 20.511633,-27.74375 12.478222,-39.878621 -4.016715,-6.067437 -10.682562,-9.559049 -18.20941,-10.299031" inkscape:connector-curvature="0" stroke-opacity="1" fill="none" stroke="url(#linearGradient4620)" stroke-linejoin="round" stroke-linecap="round" stroke-width="2.396" stroke-dashoffset="0"/>
   <path sodipodi:nodetypes="sccccccccccccsccccscccc" inkscape:connector-curvature="0" id="path4182" d="m -93.232422,43.730469 c -18.008368,-0.573428 -29.351438,19.792129 -26.470698,33.990234 -5.7845,16.836883 -8.51052,32.308567 6.69335,43.931637 7.27328,6.84462 16.026909,10.66108 26.306645,8.48633 l 7.634766,14.14649 16.126953,-11.31836 2.263672,3.39453 24.892578,-16.125 -1.978516,-2.82617 5.66211,-3.39844 -9.341797,-13.00977 c 6.50447,-10.466023 4.952665,-19.589322 2.546875,-28.570309 -4.65672,-15.858503 -18.834593,-28.399044 -37.808594,-22.699219 -5.921539,-4.038794 -11.485001,-5.841394 -16.527344,-6.001953 z m -3.865706,7.865827 c 5.660753,0.0045 11.891016,3.000145 12.755388,8.594517 5.580629,-2.433388 8.517092,-3.161954 14.000943,-3.212297 11.384059,-0.08277 20.446732,5.198424 24.21875,14.113281 6.31129,14.91459 -3.779974,35.412803 -22.539062,45.783203 -18.758387,10.37003 -39.080441,6.686 -45.390621,-8.22852 -4.53374,-10.7665 -0.60234,-24.936858 10.00781,-36.072261 -3.6714,-2.017057 -4.25194,-5.023002 -4.25213,-9.212002 -3.9e-4,-6.341726 4.8572,-11.766306 11.198922,-11.765921 z" stroke-opacity="1" fill="url(#linearGradient4190)" fill-rule="evenodd" stroke="#a20404" stroke-linejoin="miter" fill-opacity="1" stroke-linecap="butt" stroke-width="1"/>
   <path sodipodi:nodetypes="cc" inkscape:connector-curvature="0" id="path4202" d="m -49.898404,135.00063 58.3013705,87.7393" stroke-opacity="0.817" fill="none" fill-rule="evenodd" stroke="#d5d0d0" stroke-linejoin="miter" stroke-linecap="butt" stroke-width="1"/>
  </g>
  <ellipse id="path2816" transform="rotate(146.495)" stroke-miterlimit="4" cx="112.62" cy="-218.01" rx="4.726" ry="3.843" stroke-dasharray="none" stroke-opacity="1" fill="none" stroke="url(#linearGradient3628)" stroke-linejoin="round" stroke-linecap="round" stroke-width="0.349" stroke-dashoffset="0"/>
  <path inkscape:connector-curvature="0" id="path3644" d="m 30.867904,240.19271 c 0.740302,0.8329 1.200991,1.83661 1.272947,2.89451 3.314227,2.0372 5.333984,5.33949 5.006552,8.87094 -0.31736,3.42277 -2.764533,6.23491 -6.218854,7.67391 l -0.377923,4.07238 -1.453512,-0.13463 -2.33095,25.16986 -5.012617,4.96027 -3.351718,-0.36702 -2.50386,-4.42254 0.213368,-3.5832 2.931729,-3.91837 -2.206716,-3.9255 2.229699,-3.86367 -1.50057,-3.9757 2.884888,-3.45411 -1.764283,-3.586 -2.137368,-0.19568 0.421429,-4.55839 c -2.663616,-2.05044 -4.228886,-5.00002 -3.938904,-8.12755 0.318137,-3.43118 2.782097,-6.24602 6.253717,-7.68098 0.575954,-2.6072 3.527576,-4.41799 6.874224,-4.10769 1.949226,0.18073 3.626743,1.04186 4.708722,2.25916 z m -2.16381,0.86974 c -0.52306,-0.61737 -1.358899,-1.05994 -2.331842,-1.15015 -1.729675,-0.16037 -3.244867,0.84907 -3.374652,2.24882 -0.129785,1.39975 1.174373,2.66517 2.904049,2.82554 1.729678,0.16038 3.240367,-0.84496 3.370148,-2.24471 0.05678,-0.61239 -0.160877,-1.19931 -0.567703,-1.6795 z" fill="#fdfbfb" stroke="none" fill-opacity="1" stroke-width="0.265"/>
  <path inkscape:connector-curvature="0" d="m 29.419937,262.5654 -10.879666,-1.00876 2.161316,4.38831 -2.888371,3.45316 1.499064,3.97669 -2.226117,3.86477 2.20424,3.92534 -2.931295,3.91612 -0.215592,3.58424 2.508537,4.4205 3.351129,0.36908 5.012917,-4.96344 z" id="path3646" sodipodi:nodetypes="ccccccccccccc" fill="url(#linearGradient4203)" stroke="none" fill-opacity="1" stroke-width="0.265"/>
  <path inkscape:connector-curvature="0" d="m 25.965206,237.9641 c 3.282903,0.30439 5.80774,2.54711 5.984857,5.15116 3.314224,2.0372 5.337704,5.343 5.010272,8.87444 -0.317358,3.42278 -2.767727,6.2325 -6.222043,7.67149 l -0.377991,4.07673 -1.461066,-0.13546 -2.320874,25.03117 -3.21749,2.74901 2.60101,-28.05253 c 0.01957,-0.90901 -1.856397,-0.99723 -1.871991,-0.17357 l -2.820661,30.42152 -2.663401,-0.24695 2.820661,-30.42152 -5.068074,-0.46991 0.422529,-4.55707 c -2.663616,-2.05045 -4.233402,-5.00202 -3.943419,-8.12956 0.318136,-3.43118 2.782007,-6.24602 6.253627,-7.68099 0.575953,-2.60719 3.527404,-4.41825 6.874054,-4.10796 z m 0.215274,1.98268 c -1.729677,-0.16037 -3.240666,0.84674 -3.37045,2.24649 -0.129785,1.39975 1.170282,2.6675 2.89996,2.82788 1.729677,0.16037 3.240664,-0.84674 3.37045,-2.24649 0.129786,-1.39975 -1.170281,-2.6675 -2.89996,-2.82788 z" id="path3648" sodipodi:nodetypes="ccsccccccccccccscccsssc" stroke-miterlimit="4" stroke-dasharray="none" stroke-opacity="1" fill="#d8d8d8" stroke-linejoin="round" fill-opacity="1" stroke-linecap="round" stroke-width="0.44" stroke-dashoffset="0"/>
  <path inkscape:connector-curvature="0" sodipodi:nodetypes="ccssc" id="path3650" d="m 20.663879,246.64903 c -1.454099,0.89454 -2.43161,2.21786 -2.58708,3.75744 -0.310942,3.07916 2.783437,5.8631 6.907097,6.21416 4.123661,0.35105 7.722756,-1.86306 8.033697,-4.94222 0.155472,-1.53958 -0.540385,-3.00536 -1.79057,-4.13012" stroke-miterlimit="4" stroke-opacity="1" fill="none" stroke="url(#linearGradient4606)" stroke-linejoin="round" stroke-linecap="round" stroke-width="0.532" stroke-dashoffset="0"/>
  <path d="m 25.643249,238.1569 c -3.08392,-0.0472 -5.711342,1.6971 -6.251298,4.14135 -3.47162,1.43496 -5.935745,4.25001 -6.253882,7.68118 -0.289982,3.12754 1.279812,6.07929 3.943429,8.12974 l -0.422713,4.55682 c 5.23349,0.25915 7.240357,0.66546 12.540836,1.16272 l 1.461411,0.1354 0.377753,-4.07676 c 3.454315,-1.43899 5.905003,-4.24859 6.22236,-7.67136 0.327432,-3.53144 -1.696323,-6.8372 -5.010547,-8.8744 -0.177117,-2.60405 -2.701745,-4.84671 -5.984648,-5.1511 -0.209166,-0.0194 -0.417106,-0.0305 -0.622701,-0.0336 z m 0.516248,1.99988 c 0.106112,0.001 0.213322,0.007 0.321427,0.0165 1.72968,0.16038 3.029869,1.42799 2.900083,2.82774 -0.8097,3.6512 5.882044,4.75657 5.6472,9.08006 -0.35742,4.02374 -5.027332,6.89639 -10.430372,6.41615 -5.402834,-0.48037 -9.492631,-4.1315 -9.134843,-8.15506 -0.995291,-6.07611 7.215913,-6.0256 7.647595,-7.92251 0.121673,-1.31227 1.457223,-2.27929 3.04891,-2.26291 z" id="path4187" inkscape:connector-curvature="0" sodipodi:nodetypes="scscccccscsscscccccc" stroke-miterlimit="4" stroke-dasharray="none" stroke-opacity="1" fill="url(#linearGradient4189)" stroke="#6467b5" stroke-linejoin="round" fill-opacity="1" stroke-linecap="round" stroke-width="0.44" stroke-dashoffset="0"/>
  <path d="m 83.448261,60.675795 c -8.5e-5,23.511853 26.722079,42.572015 59.685539,42.572265 4.34692,-3e-5 8.5853,-0.33152 12.66817,-0.96095 0.40358,-3.810165 1.23092,-11.921308 -2.53425,-11.211586 -3.25268,0.54959 -6.64568,0.840472 -10.13392,0.840501 -24.18921,-2.03e-4 -43.798407,-13.986785 -43.798817,-31.24023 -1.50536,-10.133453 -15.411255,-9.028212 -15.886722,0 z" id="path4201" inkscape:connector-curvature="0" sodipodi:nodetypes="ccccccc" stroke-miterlimit="4" transform="matrix(0.26458333,0,0,0.26458333,1.3331151,229.20785)" opacity="1" stroke-dasharray="none" stroke-opacity="0.772" fill="#000000" filter="url(#filter4219)" fill-rule="evenodd" stroke="none" stroke-linejoin="miter" fill-opacity="0.425" stroke-linecap="round" stroke-width="2" stroke-dashoffset="0"/>
  <path d="m 24.413767,241.82158 c -0.147841,6.32643 6.518349,12.82414 15.791799,12.43001 8.721582,-6e-5 15.79178,-5.04306 15.791801,-11.26391 -2.4e-5,-6.22084 -7.070219,-11.26384 -15.791801,-11.26391 -6.324336,5e-5 -10.316951,1.95434 -12.389406,4.88591 0.94298,0.267 1.17598,0.35179 2.911488,1.01505 1.472433,-1.69451 4.829982,-2.90265 9.477918,-2.90269 6.400064,5e-5 11.588331,3.70067 11.58844,8.26564 -1.09e-4,4.56498 -5.188376,8.26559 -11.58844,8.26565 -6.400062,-6e-5 -11.708961,-4.50488 -11.709069,-9.06985 -0.398294,-2.34151 -3.956929,-2.34103 -4.08273,-0.3619 z" id="path4172" inkscape:connector-curvature="0" sodipodi:nodetypes="ccscccccccc" stroke-miterlimit="4" opacity="1" stroke-dasharray="none" stroke-opacity="0.772" fill="url(#radialGradient4183)" fill-rule="evenodd" stroke="none" stroke-linejoin="miter" fill-opacity="1" stroke-linecap="round" stroke-width="0.529" stroke-dashoffset="0"/>
  <path d="m 22.481311,238.71438 c 3.287933,-1.4197 9.177898,-0.73175 9.696773,4.57133 1.823286,1.19524 3.677629,1.89356 5.263959,6.88009" id="path4196" inkscape:connector-curvature="0" sodipodi:nodetypes="ccc" stroke-miterlimit="4" stroke-dasharray="none" stroke-opacity="0.571" fill="none" fill-rule="evenodd" stroke="#d6d6d6" stroke-linejoin="miter" stroke-linecap="butt" stroke-width="0.318"/>
  <path d="m 16.062972,247.99558 c -2.660708,7.45637 6.7548,12.16036 14.221931,9.83529" id="path4198" inkscape:connector-curvature="0" sodipodi:nodetypes="cc" stroke-miterlimit="4" stroke-dasharray="none" stroke-opacity="0.635" fill="none" fill-rule="evenodd" stroke="#d5c9c9" stroke-linejoin="miter" stroke-linecap="butt" stroke-width="0.423"/>
  <path d="m 24.18979,263.46423 -2.862856,30.2447" id="path4200" inkscape:connector-curvature="0" stroke-opacity="0.708" fill="none" fill-rule="evenodd" stroke="#404040" stroke-linejoin="miter" stroke-linecap="butt" stroke-width="0.265"/>
  <path d="m 39.428437,232.50096 c 7.771172,-0.0625 17.979625,4.23434 14.220258,13.09761" id="path4204" inkscape:connector-curvature="0" sodipodi:nodetypes="cc" stroke-miterlimit="4" stroke-dasharray="none" stroke-opacity="0.37" fill="none" fill-rule="evenodd" stroke="#ffffff" stroke-linejoin="miter" stroke-linecap="round" stroke-width="0.503"/>
  <path d="m 27.004422,236.61735 c 1.397457,0.27557 3.079281,0.43127 4.864824,1.87109 4.00458,-1.65739 10.765139,1.98597 10.627773,9.57996" id="path4210" inkscape:connector-curvature="0" sodipodi:nodetypes="ccc" stroke-opacity="0.676" fill="none" fill-rule="evenodd" stroke="#ffffff" stroke-linejoin="miter" stroke-linecap="butt" stroke-width="0.265"/>
 </g>
</svg>
