<?xml version="1.0" encoding="UTF-8" standalone="no"?>
<!-- Created with Inkscape (http://www.inkscape.org/) -->

<svg
   xmlns:dc="http://purl.org/dc/elements/1.1/"
   xmlns:cc="http://creativecommons.org/ns#"
   xmlns:rdf="http://www.w3.org/1999/02/22-rdf-syntax-ns#"
   xmlns:svg="http://www.w3.org/2000/svg"
   xmlns="http://www.w3.org/2000/svg"
   xmlns:xlink="http://www.w3.org/1999/xlink"
   xmlns:sodipodi="http://sodipodi.sourceforge.net/DTD/sodipodi-0.dtd"
   xmlns:inkscape="http://www.inkscape.org/namespaces/inkscape"
   id="svg2324"
   sodipodi:version="0.32"
   inkscape:version="0.91 r13725"
   width="256"
   height="256"
   version="1.0"
   sodipodi:docname="preferences-desktop-peripherals.svg"
   inkscape:output_extension="org.inkscape.output.svg.inkscape">
  <metadata
     id="metadata2329">
    <rdf:RDF>
      <cc:Work
         rdf:about="">
        <dc:format>image/svg+xml</dc:format>
        <dc:type
           rdf:resource="http://purl.org/dc/dcmitype/StillImage" />
      </cc:Work>
    </rdf:RDF>
  </metadata>
  <defs
     id="defs2327">
    <linearGradient
       inkscape:collect="always"
       id="linearGradient4355">
      <stop
         style="stop-color:#696969;stop-opacity:1;"
         offset="0"
         id="stop4357" />
      <stop
         style="stop-color:#8b8b8b;stop-opacity:1"
         offset="1"
         id="stop4359" />
    </linearGradient>
    <inkscape:perspective
       sodipodi:type="inkscape:persp3d"
       inkscape:vp_x="0 : 128 : 1"
       inkscape:vp_y="0 : 1000 : 0"
       inkscape:vp_z="256 : 128 : 1"
       inkscape:persp3d-origin="128 : 85.333333 : 1"
       id="perspective63" />
    <linearGradient
       id="linearGradient2853"
       inkscape:collect="always">
      <stop
         id="stop2855"
         offset="0"
         style="stop-color:#3a9932;stop-opacity:1" />
      <stop
         id="stop2857"
         offset="1"
         style="stop-color:#22b521;stop-opacity:1" />
    </linearGradient>
    <linearGradient
       inkscape:collect="always"
       id="linearGradient2847">
      <stop
         style="stop-color:#30a12c;stop-opacity:1"
         offset="0"
         id="stop2849" />
      <stop
         style="stop-color:#31d42e;stop-opacity:1"
         offset="1"
         id="stop2851" />
    </linearGradient>
    <linearGradient
       inkscape:collect="always"
       id="linearGradient2821">
      <stop
         style="stop-color:#993b32;stop-opacity:1"
         offset="0"
         id="stop2823" />
      <stop
         style="stop-color:#b52521;stop-opacity:1"
         offset="1"
         id="stop2825" />
    </linearGradient>
    <linearGradient
       id="linearGradient2811"
       inkscape:collect="always">
      <stop
         id="stop2813"
         offset="0"
         style="stop-color:#c33c2f;stop-opacity:1" />
      <stop
         id="stop2815"
         offset="1"
         style="stop-color:#d4332e;stop-opacity:1" />
    </linearGradient>
    <linearGradient
       inkscape:collect="always"
       id="linearGradient2793">
      <stop
         style="stop-color:#2b2a36;stop-opacity:1;"
         offset="0"
         id="stop2795" />
      <stop
         style="stop-color:#b8b7c8;stop-opacity:1"
         offset="1"
         id="stop2797" />
    </linearGradient>
    <linearGradient
       inkscape:collect="always"
       id="linearGradient3680">
      <stop
         style="stop-color:#0b0b14;stop-opacity:1;"
         offset="0"
         id="stop3682" />
      <stop
         style="stop-color:#0b0b14;stop-opacity:0;"
         offset="1"
         id="stop3684" />
    </linearGradient>
    <linearGradient
       inkscape:collect="always"
       id="linearGradient3670">
      <stop
         style="stop-color:#0b0b14;stop-opacity:1"
         offset="0"
         id="stop3672" />
      <stop
         style="stop-color:#151524;stop-opacity:0"
         offset="1"
         id="stop3674" />
    </linearGradient>
    <linearGradient
       id="linearGradient3658">
      <stop
         style="stop-color:#cccccd;stop-opacity:1;"
         offset="0"
         id="stop3660" />
      <stop
         style="stop-color:#535353;stop-opacity:1;"
         offset="1"
         id="stop3662" />
    </linearGradient>
    <linearGradient
       id="linearGradient2757">
      <stop
         style="stop-color:#16161a;stop-opacity:1;"
         offset="0"
         id="stop2759" />
      <stop
         style="stop-color:#ffffff;stop-opacity:1;"
         offset="1"
         id="stop2761" />
    </linearGradient>
    <linearGradient
       inkscape:collect="always"
       xlink:href="#linearGradient3658"
       id="linearGradient3664"
       x1="359.19336"
       y1="222.24423"
       x2="390.9173"
       y2="146.95195"
       gradientUnits="userSpaceOnUse"
       gradientTransform="translate(-254.11914,-45.963358)"
       spreadMethod="reflect" />
    <linearGradient
       inkscape:collect="always"
       xlink:href="#linearGradient2811"
       id="linearGradient2809"
       x1="69.289787"
       y1="132.27808"
       x2="74.761002"
       y2="125.83485"
       gradientUnits="userSpaceOnUse"
       gradientTransform="translate(-0.155344,0.168364)" />
    <linearGradient
       inkscape:collect="always"
       xlink:href="#linearGradient2821"
       id="linearGradient2819"
       gradientUnits="userSpaceOnUse"
       x1="69.289787"
       y1="132.27808"
       x2="75.733002"
       y2="124.77965"
       gradientTransform="translate(0,1.166403)" />
    <linearGradient
       inkscape:collect="always"
       xlink:href="#linearGradient2821"
       id="linearGradient2837"
       gradientUnits="userSpaceOnUse"
       gradientTransform="translate(0,1.166403)"
       x1="69.289787"
       y1="132.27808"
       x2="75.733002"
       y2="124.77965" />
    <linearGradient
       inkscape:collect="always"
       xlink:href="#linearGradient2811"
       id="linearGradient2839"
       gradientUnits="userSpaceOnUse"
       gradientTransform="translate(-0.155344,0.168364)"
       x1="69.289787"
       y1="132.27808"
       x2="74.761002"
       y2="125.83485" />
    <linearGradient
       inkscape:collect="always"
       xlink:href="#linearGradient2847"
       id="linearGradient2842"
       gradientUnits="userSpaceOnUse"
       gradientTransform="translate(83.404018,34.295742)"
       x1="69.289787"
       y1="132.27808"
       x2="74.761002"
       y2="125.83485" />
    <linearGradient
       inkscape:collect="always"
       xlink:href="#linearGradient2853"
       id="linearGradient2845"
       gradientUnits="userSpaceOnUse"
       gradientTransform="translate(83.559358,35.293782)"
       x1="69.289787"
       y1="132.27808"
       x2="75.733002"
       y2="124.77965" />
    <linearGradient
       gradientTransform="matrix(0.4584837,0,0,0.4584837,12.357625,81.058821)"
       y2="50.573639"
       x2="215.89148"
       y1="113.36433"
       x1="155.81395"
       spreadMethod="reflect"
       gradientUnits="userSpaceOnUse"
       id="linearGradient3403"
       xlink:href="#linearGradient3369"
       inkscape:collect="always" />
    <linearGradient
       y2="78.617943"
       x2="-79.282944"
       y1="145.67221"
       x1="-81.182167"
       gradientUnits="userSpaceOnUse"
       id="linearGradient3397"
       xlink:href="#linearGradient3387"
       inkscape:collect="always" />
    <linearGradient
       gradientUnits="userSpaceOnUse"
       y2="78.617943"
       x2="-79.282944"
       y1="145.67221"
       x1="-81.182167"
       id="linearGradient3393"
       xlink:href="#linearGradient3387"
       inkscape:collect="always" />
    <linearGradient
       spreadMethod="reflect"
       gradientUnits="userSpaceOnUse"
       y2="50.573639"
       x2="215.89148"
       y1="113.36433"
       x1="155.81395"
       id="linearGradient3375"
       xlink:href="#linearGradient3369"
       inkscape:collect="always" />
    <linearGradient
       spreadMethod="reflect"
       gradientUnits="userSpaceOnUse"
       y2="-7.4748664"
       x2="16.093008"
       y1="-7.4748664"
       x1="13.514812"
       id="linearGradient3584"
       xlink:href="#linearGradient3578"
       inkscape:collect="always" />
    <inkscape:perspective
       sodipodi:type="inkscape:persp3d"
       inkscape:vp_x="0 : 128 : 1"
       inkscape:vp_y="0 : 1000 : 0"
       inkscape:vp_z="256 : 128 : 1"
       inkscape:persp3d-origin="128 : 85.333333 : 1"
       id="perspective2503" />
    <linearGradient
       id="linearGradient3578">
      <stop
         id="stop3580"
         offset="0"
         style="stop-color:#000000;stop-opacity:1;" />
      <stop
         id="stop3582"
         offset="1"
         style="stop-color:#fffcfc;stop-opacity:1;" />
    </linearGradient>
    <linearGradient
       id="linearGradient3369"
       inkscape:collect="always">
      <stop
         id="stop3371"
         offset="0"
         style="stop-color:#6465df;stop-opacity:1" />
      <stop
         id="stop3373"
         offset="1"
         style="stop-color:#ffffff;stop-opacity:1" />
    </linearGradient>
    <linearGradient
       id="linearGradient3387"
       inkscape:collect="always">
      <stop
         id="stop3389"
         offset="0"
         style="stop-color:#000000;stop-opacity:1;" />
      <stop
         id="stop3391"
         offset="1"
         style="stop-color:#ffffff;stop-opacity:1" />
    </linearGradient>
    <filter
       inkscape:collect="always"
       style="color-interpolation-filters:sRGB"
       id="filter4296"
       x="-0.021780071"
       width="1.0435601"
       y="-0.026723819"
       height="1.0534476">
      <feGaussianBlur
         inkscape:collect="always"
         stdDeviation="2.0624861"
         id="feGaussianBlur4298" />
    </filter>
    <linearGradient
       inkscape:collect="always"
       xlink:href="#linearGradient2757"
       id="linearGradient4330"
       gradientUnits="userSpaceOnUse"
       gradientTransform="translate(-543.05734,66.927638)"
       spreadMethod="reflect"
       x1="359.98441"
       y1="85.880356"
       x2="362.65164"
       y2="100.3311" />
    <linearGradient
       inkscape:collect="always"
       xlink:href="#linearGradient3670"
       id="linearGradient4332"
       gradientUnits="userSpaceOnUse"
       gradientTransform="translate(-530.91284,18.709101)"
       x1="313.20419"
       y1="156.63824"
       x2="309.20389"
       y2="143.48068" />
    <linearGradient
       inkscape:collect="always"
       xlink:href="#linearGradient3680"
       id="linearGradient4334"
       gradientUnits="userSpaceOnUse"
       gradientTransform="translate(-530.39974,19.735161)"
       spreadMethod="reflect"
       x1="465.70172"
       y1="130.69629"
       x2="462.86472"
       y2="119.76431" />
    <linearGradient
       inkscape:collect="always"
       xlink:href="#linearGradient2793"
       id="linearGradient4336"
       gradientUnits="userSpaceOnUse"
       gradientTransform="translate(-275.42584,63.342371)"
       x1="96.758972"
       y1="96.072098"
       x2="98.188019"
       y2="103.76997" />
    <filter
       inkscape:collect="always"
       style="color-interpolation-filters:sRGB"
       id="filter4351"
       x="-0.015219593"
       width="1.0304392"
       y="-0.05672615"
       height="1.1134523">
      <feGaussianBlur
         inkscape:collect="always"
         stdDeviation="1.4795642"
         id="feGaussianBlur4353" />
    </filter>
    <linearGradient
       inkscape:collect="always"
       xlink:href="#linearGradient4355"
       id="linearGradient4361"
       x1="120.30869"
       y1="136.93637"
       x2="147.95509"
       y2="51.22588"
       gradientUnits="userSpaceOnUse" />
  </defs>
  <sodipodi:namedview
     inkscape:window-height="1056"
     inkscape:window-width="1920"
     inkscape:pageshadow="2"
     inkscape:pageopacity="0.0"
     guidetolerance="10.0"
     gridtolerance="10.0"
     objecttolerance="10.0"
     borderopacity="1.0"
     bordercolor="#666666"
     pagecolor="#ffffff"
     id="base"
     inkscape:zoom="3.5351562"
     inkscape:cx="128"
     inkscape:cy="128"
     inkscape:window-x="0"
     inkscape:window-y="0"
     inkscape:current-layer="svg2324"
     showgrid="false"
     inkscape:window-maximized="1" />
  <path
     inkscape:connector-curvature="0"
     sodipodi:nodetypes="ccccccccc"
     id="path2789"
     d="m 23.046977,141.22861 c -1.06188,5.48494 -5.67262,10.96987 -0.63288,16.45481 36.8569,34.01318 81.509243,61.79002 151.890593,68.98364 5.24415,-0.87367 10.10783,-2.1278 12.02467,-6.32877 l 59.49048,-113.91794 c 3.26523,-5.48494 0.87617,-10.969882 -2.53151,-16.454822 L 112.91558,41.866835 c -9.47333,-1.878804 -12.29704,2.892014 -17.087693,5.695897 l -72.78091,93.665878 z"
     style="fill:#000000;fill-opacity:0.72222218;fill-rule:evenodd;stroke:#000000;stroke-width:0;stroke-linecap:butt;stroke-linejoin:miter;stroke-miterlimit:4;stroke-dasharray:none;stroke-opacity:1;filter:url(#filter4296)" />
  <path
     inkscape:connector-curvature="0"
     sodipodi:nodetypes="ccccccccc"
     id="path2787"
     d="m 163.4841,53.050671 8.20842,-8.208417 2.05211,0.513026 c 11.65939,-20.677447 28.75955,-23.67239 46.17234,-25.651303 l 3.59118,2.565131 c -19.23771,1.381709 -37.54773,4.48627 -46.68537,24.62525 l 2.05211,2.052104 -4.89216,7.805856 -10.49863,-3.701647 z"
     style="opacity:0.53061224;fill:#0b0b14;fill-opacity:0.62962964;fill-rule:evenodd;stroke:#000000;stroke-width:1px;stroke-linecap:butt;stroke-linejoin:miter;stroke-opacity:1" />
  <path
     inkscape:connector-curvature="0"
     style="fill:#9998a5;fill-opacity:1;fill-rule:evenodd;stroke:#000000;stroke-width:0;stroke-linecap:butt;stroke-linejoin:miter;stroke-miterlimit:4;stroke-dasharray:none;stroke-opacity:1"
     d="m 17.025768,133.2524 c -1.06188,5.48494 -5.67262,10.96987 -0.63288,16.45481 36.8569,34.01318 81.50924,61.79002 151.890592,68.98364 5.24415,-0.87367 10.10783,-2.1278 12.02467,-6.32877 L 239.79863,98.444138 c 3.26523,-5.48494 0.87617,-10.96988 -2.53151,-16.45482 L 106.89437,33.890625 C 97.421038,32.011821 94.597328,36.782639 89.806678,39.586522 L 17.025768,133.2524 Z"
     id="path1893"
     sodipodi:nodetypes="ccccccccc" />
  <path
     inkscape:connector-curvature="0"
     style="fill:#0b0b14;fill-opacity:1;fill-rule:evenodd;stroke:#000000;stroke-width:1px;stroke-linecap:butt;stroke-linejoin:miter;stroke-opacity:1"
     d="m 160.91897,51.511593 8.20842,-8.208417 2.05211,0.513026 c 11.65939,-20.677447 28.75955,-23.67239 46.17234,-25.651303 l 3.59118,2.565131 c -19.23771,1.381709 -37.54773,4.48627 -46.68537,24.62525 l 2.05211,2.052104 -4.89216,7.805856 -10.49863,-3.701647 z"
     id="path3690"
     sodipodi:nodetypes="ccccccccc" />
  <path
     inkscape:connector-curvature="0"
     style="fill:#bababb;fill-opacity:1;fill-rule:evenodd;stroke:#000000;stroke-width:1px;stroke-linecap:butt;stroke-linejoin:miter;stroke-opacity:1"
     d="m 14.973666,130.17424 c -1.06188,5.48494 -5.67262,10.96987 -0.63288,16.45481 36.8569,34.01318 81.50924,61.79002 151.890594,68.98364 5.24415,-0.87367 10.10783,-2.1278 12.02467,-6.32877 L 237.74653,95.365979 c 3.26523,-5.48494 0.87617,-10.96988 -2.53151,-16.45482 L 104.84227,30.812469 c -9.473334,-1.878804 -12.297044,2.892014 -17.087694,5.695897 l -72.78091,93.665874 z"
     id="path2769"
     sodipodi:nodetypes="ccccccccc" />
  <path
     inkscape:connector-curvature="0"
     sodipodi:nodetypes="ccccccccc"
     id="path2771"
     d="m 15.486692,129.66121 c -1.06188,5.48494 -5.67262,10.96987 -0.63288,16.45481 36.8569,34.01318 81.50924,61.79002 151.890588,68.98364 5.24415,-0.30792 10.10783,-2.1278 12.02467,-6.32877 L 238.25955,94.852953 c 3.26523,-5.48494 0.87617,-10.96988 -2.53151,-16.45482 L 105.35529,30.299443 C 95.881962,28.420639 91.078142,31.777092 88.267602,35.99534 Z"
     style="fill:url(#linearGradient3664);fill-opacity:1;fill-rule:evenodd;stroke:#d3d3d3;stroke-width:1px;stroke-linecap:butt;stroke-linejoin:miter;stroke-opacity:1" />
  <path
     inkscape:connector-curvature="0"
     style="fill:url(#linearGradient4361);fill-opacity:1;fill-rule:evenodd;stroke:#595959;stroke-width:1px;stroke-linecap:butt;stroke-linejoin:miter;stroke-opacity:1"
     d="M 105.74847,44.582302 219.66642,88.250845 179.79514,164.19614 50.688125,112.93306 105.74847,44.582302 Z"
     id="path3666" />
  <g
     id="g2827"
     transform="translate(-2.736342,-0.304038)">
    <path
       inkscape:connector-curvature="0"
       style="fill:url(#linearGradient2819);fill-opacity:1;fill-rule:evenodd;stroke:#000000;stroke-width:0;stroke-linecap:butt;stroke-linejoin:miter;stroke-miterlimit:4;stroke-dasharray:none;stroke-opacity:1"
       d="m 69.595387,125.94605 8.164822,3.49921 -3.110409,3.49921 -8.553623,-3.69361 3.49921,-3.30481 z"
       id="path2817" />
    <path
       inkscape:connector-curvature="0"
       id="path2801"
       d="m 69.440043,124.94801 8.164822,3.49921 -3.110409,3.49921 -8.553623,-3.69361 3.49921,-3.30481 z"
       style="fill:url(#linearGradient2809);fill-opacity:1;fill-rule:evenodd;stroke:#000000;stroke-width:0;stroke-linecap:butt;stroke-linejoin:miter;stroke-miterlimit:4;stroke-dasharray:none;stroke-opacity:1" />
  </g>
  <path
     style="fill:#000000;fill-opacity:0.65740739;fill-rule:evenodd;stroke:none;stroke-width:1px;stroke-linecap:butt;stroke-linejoin:miter;stroke-opacity:1;filter:url(#filter4351)"
     d="m 236.56707,66.284455 -5.61822,1.385989 -155.923471,33.128326 -1.12252,-1.138859 -26.970386,7.180199 -0.07249,0.15498 -0.226734,0.0609 c 0.04899,0.0418 0.09075,0.0858 0.139392,0.12775 l -0.0019,0.006 -0.213717,0.0566 -0.131961,0.2841 c -9.382796,3.82994 -18.765851,5.76385 -28.148667,13.93399 l -6.181329,3.7678 0.226735,0.0405 -0.600293,0.36558 0.834459,0.14543 -0.377269,0.25787 3.252355,0.24108 3.313684,0.57674 c 7.910659,3.51692 19.981461,1.41643 30.622316,1.24752 l 2.246914,-0.0817 21.913432,-4.92985 1.68751,-0.0614 1.683789,-0.65108 2.248779,-0.37867 18.542131,-4.21739 4.495681,-0.16352 1.68565,-0.0613 3.93256,-1.0278 3.3713,-1.89411 0.37356,-0.40616 0.75083,-0.81638 65.1772,-16.837429 1.12438,2.0255 1.68565,1.12033 0.47019,-0.0796 1.06864,0.945509 3.87866,0.0992 4.33585,-1.116689 43.12994,-12.361708 5.01978,-6.897425 5.01978,-3.540002 1.8269,-6.300824 -0.11709,-0.200819 c 0.0532,-1.254208 -0.43927,-2.405925 -2.17071,-3.327296 l -5.01978,1.354455 -0.15425,-0.203374 -1.0073,-1.812971 z"
     id="path2333"
     inkscape:connector-curvature="0" />
  <path
     inkscape:connector-curvature="0"
     style="fill:url(#linearGradient2845);fill-opacity:1;fill-rule:evenodd;stroke:#000000;stroke-width:0;stroke-linecap:butt;stroke-linejoin:miter;stroke-miterlimit:4;stroke-dasharray:none;stroke-opacity:1"
     d="m 153.15475,160.07343 8.16482,3.49921 -3.11041,3.49921 -8.55362,-3.69361 3.49921,-3.30481 z"
     id="path2833" />
  <path
     inkscape:connector-curvature="0"
     id="path2835"
     d="m 152.9994,159.07539 8.16483,3.49921 -3.11041,3.49921 -8.55363,-3.69361 3.49921,-3.30481 z"
     style="fill:url(#linearGradient2842);fill-opacity:1;fill-rule:evenodd;stroke:#000000;stroke-width:0;stroke-linecap:butt;stroke-linejoin:miter;stroke-miterlimit:4;stroke-dasharray:none;stroke-opacity:1" />
  <g
     id="g4338"
     transform="translate(275.80111,-72.132597)">
    <path
       inkscape:connector-curvature="0"
       style="fill:#dedbdb;fill-opacity:1;fill-rule:evenodd;stroke:#000000;stroke-width:1px;stroke-linecap:butt;stroke-linejoin:miter;stroke-opacity:1"
       d="m -270.30317,184.75915 6.49545,-3.54297 c 9.94001,-7.89191 19.88002,-9.44275 29.82002,-12.9909 l 0.29525,-0.5905 28.34379,-6.20021 1.18099,1.18099 163.862508,-27.45804 5.90496,-1.18099 1.18099,2.06674 5.31446,-1.181 c 4.35872,2.35793 1.29493,5.77621 0.59049,8.85744 l -5.31446,2.65723 -5.31446,7.38119 -45.7634,10.03842 -9.44793,1.18099 -1.77148,-1.18099 -1.181,-2.06673 -68.497478,14.46715 -1.18099,1.18099 -3.54297,1.77149 -4.13347,0.88574 -1.77149,0 -4.72396,0 -19.48636,3.54297 -2.36198,0.29525 -1.77148,0.5905 -1.77149,0 -23.02933,4.13346 -2.36198,0 c -11.1827,-0.21812 -23.86853,1.44267 -32.18201,-2.36198 l -7.38119,-1.47624 z"
       id="path4318"
       sodipodi:nodetypes="ccccccccccccccccccccccccccccccc" />
    <path
       inkscape:connector-curvature="0"
       sodipodi:nodetypes="ccccccccccccccccccccccccccccccc"
       id="path4320"
       d="m -269.91001,184.36597 6.49545,-3.54297 c 9.94001,-7.89191 19.88002,-9.44275 29.82002,-12.9909 l 0.29525,-0.5905 28.71762,-6.01328 0.80716,0.99407 163.862508,-27.45804 5.90496,-1.18099 1.18099,2.06673 5.31446,-1.18099 c 4.35872,2.35792 1.29493,5.7762 0.59049,8.85743 l -5.31446,2.65723 -5.31446,7.3812 -45.7634,10.03842 -9.44793,1.18099 -1.77148,-1.18099 -1.181,-2.06673 -68.497478,14.46714 -1.18099,1.18099 -3.54297,1.77149 -4.13347,0.88574 -1.77149,0 -4.72396,0 -19.48636,3.54297 -2.36198,0.29525 -1.77148,0.5905 -1.77149,0 -23.02933,4.13346 -2.36198,0 c -11.1827,-0.21812 -23.86853,1.44267 -32.18201,-2.36198 z"
       style="fill:url(#linearGradient4330);fill-opacity:1;fill-rule:evenodd;stroke:#414141;stroke-width:1px;stroke-linecap:butt;stroke-linejoin:miter;stroke-opacity:1" />
    <path
       inkscape:connector-curvature="0"
       style="fill:url(#linearGradient4332);fill-opacity:1;fill-rule:evenodd;stroke:#000000;stroke-width:1px;stroke-linecap:butt;stroke-linejoin:miter;stroke-opacity:1"
       d="m -233.61366,167.44631 c 5.37729,4.55846 8.82453,9.31799 5.84915,20.55858 l 24.68222,-4.43014 c 2.84777,-6.96165 5.79184,-14.80144 -1.44303,-21.7631 z"
       id="path4322"
       sodipodi:nodetypes="ccccc" />
    <path
       inkscape:connector-curvature="0"
       style="fill:url(#linearGradient4334);fill-opacity:1;fill-rule:evenodd;stroke:#000000;stroke-width:1px;stroke-linecap:butt;stroke-linejoin:miter;stroke-opacity:1"
       d="m -37.338682,135.68278 -3.1176,15.82784 -54.9178,11.03152 3.83705,3.35742 4.07687,0.23982 4.55649,-0.95926 45.32517,-10.79171 5.27595,-6.71484 5.27595,-3.35742 1.91852,-6.23521 -1.43889,-2.39816 -1.91853,0.47963 -3.35742,0.71945 -1.67871,-2.15834 -3.83705,0.95926 z"
       id="path4324" />
    <path
       inkscape:connector-curvature="0"
       style="fill:#0b0b14;fill-opacity:1;fill-rule:evenodd;stroke:#000000;stroke-width:1px;stroke-linecap:butt;stroke-linejoin:miter;stroke-opacity:1"
       d="m -262.40028,180.59934 1.57902,5.52658 -9.00043,-0.94742 7.42141,-4.57916 z"
       id="path4326" />
    <path
       inkscape:connector-curvature="0"
       style="fill:url(#linearGradient4336);fill-opacity:1;fill-rule:evenodd;stroke:#000000;stroke-width:0;stroke-linecap:butt;stroke-linejoin:miter;stroke-miterlimit:4;stroke-dasharray:none;stroke-opacity:1"
       d="m -192.18799,164.95836 38.69789,-7.53094 -1.37462,3.3899 -36.93788,7.18237 -0.38539,-3.04133 z"
       id="path4328"
       sodipodi:nodetypes="ccccc" />
  </g>
</svg>
