<?xml version="1.0" encoding="UTF-8" standalone="no"?>
<!-- Created with Inkscape (http://www.inkscape.org/) -->
<svg xmlns:dc="http://purl.org/dc/elements/1.1/" xmlns:cc="http://creativecommons.org/ns#" xmlns:rdf="http://www.w3.org/1999/02/22-rdf-syntax-ns#" xmlns:svg="http://www.w3.org/2000/svg" xmlns="http://www.w3.org/2000/svg" xmlns:xlink="http://www.w3.org/1999/xlink" xmlns:sodipodi="http://sodipodi.sourceforge.net/DTD/sodipodi-0.dtd" xmlns:inkscape="http://www.inkscape.org/namespaces/inkscape" width="255" height="255" viewBox="0 0 67.468749 67.468749" version="1.1" id="svg8" inkscape:version="0.92.5 (2060ec1f9f, 2020-04-08)" sodipodi:docname="preferences-desktop-keyboard-shortcuts.svg">
 <defs id="defs2">
  <linearGradient inkscape:collect="always" id="linearGradient988">
   <stop id="stop984" stop-color="#ff8c8c" stop-opacity="1"/>
   <stop offset="1" id="stop986" stop-color="#5e0000" stop-opacity="1"/>
  </linearGradient>
  <pattern inkscape:collect="always" xlink:href="#pattern1632" id="pattern1638" patternTransform="matrix(0.32025221,0,0,0.31993439,-15.979565,270.57423)"/>
  <pattern inkscape:collect="always" xlink:href="#pattern1632" id="pattern1636" patternTransform="matrix(0.32025221,0,0,0.31993439,-7.9780527,250.19704)"/>
  <pattern inkscape:collect="always" xlink:href="#pattern1144" id="pattern1632" patternTransform="matrix(0.32025221,0,0,0.31993439,-15.872878,270.57423)"/>
  <linearGradient id="linearGradient1893" inkscape:collect="always">
   <stop id="stop1889" stop-color="#a1a8e5" stop-opacity="1"/>
   <stop id="stop1891" offset="1" stop-color="#e3e5fa" stop-opacity="1"/>
  </linearGradient>
  <pattern inkscape:collect="always" xlink:href="#pattern1144" id="pattern1875" patternTransform="matrix(0.40958282,0,0,0.31678917,-18.006614,250.34556)"/>
  <linearGradient inkscape:collect="always" id="linearGradient1069">
   <stop id="stop1065" stop-color="#ffffff" stop-opacity="1"/>
   <stop offset="1" id="stop1067" stop-color="#5d5d5d" stop-opacity="1"/>
  </linearGradient>
  <linearGradient inkscape:collect="always" id="linearGradient1061">
   <stop id="stop1057" stop-color="#bababa" stop-opacity="1"/>
   <stop offset="1" id="stop1059" stop-color="#ffffff" stop-opacity="1"/>
  </linearGradient>
  <clipPath clipPathUnits="userSpaceOnUse" id="clipPath2059">
   <path d="m -10.099732,231.68531 c 3.5587363,2.50616 4.8319716,-0.58528 2.9651647,-3.064 -3.1818907,-4.22486 -6.4443207,-9.83985 -12.3548527,-15.91305 -2.594516,-2.66865 -11.860659,-7.80827 -11.860659,-7.80827 0,0 -0.115438,-2.18844 -0.09884,-3.064 0.01106,-0.582 -0.565687,-0.56369 -0.889553,-0.29652 -0.782426,0.64546 -2.47097,2.56981 -2.47097,2.56981 l -1.68026,-0.0988 -1.087226,-1.58142 c -0.296516,-0.41055 -0.636056,-0.34641 -0.88955,0 -0.545383,1.84962 -0.878698,3.8848 -3.459359,3.95355 l 4.447747,3.95356 c 7.76561,1.55335 15.578734,5.58545 20.261957,14.33163 0,0 4.526451,5.19364 7.116396,7.01755 z" id="path2061" sodipodi:nodetypes="csscsscccccccs" inkscape:connector-curvature="0" stroke-dasharray="none" stroke-opacity="1" fill="#ffffff" fill-rule="evenodd" stroke="none" stroke-linejoin="miter" fill-opacity="1" stroke-linecap="butt" stroke-width="0.048" stroke-miterlimit="4"/>
  </clipPath>
  <clipPath id="clipPath2059-5" clipPathUnits="userSpaceOnUse">
   <path stroke-miterlimit="4" stroke-width="0.048" stroke-linecap="butt" fill-opacity="1" stroke-linejoin="miter" stroke="none" fill-rule="evenodd" fill="#ffffff" stroke-opacity="1" stroke-dasharray="none" inkscape:connector-curvature="0" sodipodi:nodetypes="csscsscccccccs" id="path2061-3" d="m -10.099732,231.68531 c 3.5587363,2.50616 4.8319716,-0.58528 2.9651647,-3.064 -3.1818907,-4.22486 -6.4443207,-9.83985 -12.3548527,-15.91305 -2.594516,-2.66865 -11.860659,-7.80827 -11.860659,-7.80827 0,0 -0.115438,-2.18844 -0.09884,-3.064 0.01106,-0.582 -0.565687,-0.56369 -0.889553,-0.29652 -0.782426,0.64546 -2.47097,2.56981 -2.47097,2.56981 l -1.68026,-0.0988 -1.087226,-1.58142 c -0.296516,-0.41055 -0.636056,-0.34641 -0.88955,0 -0.545383,1.84962 -0.878698,3.8848 -3.459359,3.95355 l 4.447747,3.95356 c 7.76561,1.55335 15.578734,5.58545 20.261957,14.33163 0,0 4.526451,5.19364 7.116396,7.01755 z"/>
  </clipPath>
  <clipPath id="clipPath">
   <path fill-opacity="0.95" stroke="none" fill="#1b1b1b" sodipodi:nodetypes="csssscc" inkscape:connector-curvature="0" id="rect5264" d="m -515.73002,435.56445 v 5.83767 c 0,9.74315 -7.84377,17.58692 -17.58692,17.58692 h -135.05122 c -9.74315,0 -17.58692,-7.84377 -17.58692,-17.58692 v -5.83767 z"/>
  </clipPath>
  <clipPath clipPathUnits="userSpaceOnUse" id="clipPath2059-7">
   <path d="m -10.099732,231.68531 c 3.5587363,2.50616 4.8319716,-0.58528 2.9651647,-3.064 -3.1818907,-4.22486 -6.4443207,-9.83985 -12.3548527,-15.91305 -2.594516,-2.66865 -11.860659,-7.80827 -11.860659,-7.80827 0,0 -0.115438,-2.18844 -0.09884,-3.064 0.01106,-0.582 -0.565687,-0.56369 -0.889553,-0.29652 -0.782426,0.64546 -2.47097,2.56981 -2.47097,2.56981 l -1.68026,-0.0988 -1.087226,-1.58142 c -0.296516,-0.41055 -0.636056,-0.34641 -0.88955,0 -0.545383,1.84962 -0.878698,3.8848 -3.459359,3.95355 l 4.447747,3.95356 c 7.76561,1.55335 15.578734,5.58545 20.261957,14.33163 0,0 4.526451,5.19364 7.116396,7.01755 z" id="path2061-5" sodipodi:nodetypes="csscsscccccccs" inkscape:connector-curvature="0" stroke-dasharray="none" stroke-opacity="1" fill="#ffffff" fill-rule="evenodd" stroke="none" stroke-linejoin="miter" fill-opacity="1" stroke-linecap="butt" stroke-width="0.048" stroke-miterlimit="4"/>
  </clipPath>
  <clipPath clipPathUnits="userSpaceOnUse" id="clipPath1162">
   <path stroke-miterlimit="4" stroke-width="0.071" stroke-linecap="round" fill-opacity="0.347" stroke-linejoin="round" stroke="none" fill="#000000" stroke-opacity="1" stroke-dasharray="none" inkscape:connector-curvature="0" d="m -65.649736,239.84563 c -9.358079,0 -16.951888,7.59381 -16.951888,16.95188 0,9.35808 7.593811,16.94076 16.951888,16.94077 0.292439,0 0.578792,-0.008 0.867614,-0.0222 2.122786,-0.10753 4.148336,-0.60587 5.995453,-1.42378 l 2.669587,3.97101 c -0.225515,0.4951 -0.245107,0.96445 -0.01111,1.31255 l 15.67271,23.32553 c 0.495366,0.73695 1.94415,0.6317 3.247998,-0.24471 1.303846,-0.87642 1.96364,-2.17735 1.468276,-2.9143 L -51.42304,274.4168 c -0.233058,-0.34672 -0.682887,-0.49868 -1.22356,-0.47831 l -2.558357,-3.80416 c 3.95991,-3.10036 6.507123,-7.91951 6.507123,-13.33682 0,-9.35807 -7.593809,-16.95188 -16.951889,-16.95188 z m 0,2.5806 c 7.92884,0 14.371283,6.44244 14.371283,14.37128 0,7.92885 -6.442435,14.36016 -14.371283,14.36016 -7.928851,0 -14.349039,-6.43131 -14.349039,-14.36016 0,-0.24777 -0.0013,-0.48941 0.01111,-0.73413 0.384376,-7.58638 6.656848,-13.63715 14.337916,-13.63715 z" id="path1164"/>
  </clipPath>
  <linearGradient id="linearGradient2768">
   <stop id="stop2770" stop-color="white" stop-opacity="1"/>
   <stop id="stop2772" offset="1" stop-color="#000000" stop-opacity="1"/>
  </linearGradient>
  <linearGradient inkscape:collect="always" xlink:href="#linearGradient1061" id="linearGradient1063" x1="16.499" y1="243.96" x2="16.06" y2="267.13" gradientUnits="userSpaceOnUse" gradientTransform="matrix(0.58683721,0,0,0.58683721,-17.401048,93.348474)"/>
  <linearGradient inkscape:collect="always" xlink:href="#linearGradient1069" id="linearGradient1071" x1="24.801" y1="269.32" x2="24.811" y2="242.23" gradientUnits="userSpaceOnUse" gradientTransform="matrix(0.58683721,0,0,0.58683721,-17.401048,93.348474)"/>
  <linearGradient inkscape:collect="always" xlink:href="#linearGradient1061" id="linearGradient1135" gradientUnits="userSpaceOnUse" x1="16.499" y1="243.96" x2="16.06" y2="267.13"/>
  <linearGradient inkscape:collect="always" xlink:href="#linearGradient1069" id="linearGradient1137" gradientUnits="userSpaceOnUse" x1="24.801" y1="269.32" x2="24.811" y2="242.23"/>
  <pattern patternUnits="userSpaceOnUse" width="63.24" height="63.61" patternTransform="matrix(0.26458333,0,0,0.26458333,-17.366493,254.14446)" id="pattern1144">
   <g id="g1133" transform="matrix(2.2179674,0,0,2.2179674,-0.13060149,-540.4174)">
    <rect ry="1.752" y="249.19" x="0.059" height="23.14" width="28.514" id="rect1121" opacity="1" stroke-dasharray="none" stroke-opacity="1" paint-order="normal" fill="#000000" fill-rule="evenodd" stroke="none" stroke-linejoin="round" fill-opacity="1" stroke-linecap="round" stroke-width="0.315" stroke-dashoffset="0" stroke-miterlimit="4" rx="1.752"/>
    <rect id="rect1123" width="26.724" height="23.7" x="0.954" y="247.78" ry="1.794" opacity="1" stroke-dasharray="none" stroke-opacity="1" paint-order="normal" fill="#b4b4b4" fill-rule="evenodd" stroke="#878686" stroke-linejoin="round" fill-opacity="1" stroke-linecap="round" stroke-width="0.309" stroke-dashoffset="0" stroke-miterlimit="4" rx="1.794"/>
    <rect ry="1.795" y="243.8" x="2.457" height="23.718" width="23.718" id="rect1125" opacity="1" stroke-dasharray="none" stroke-opacity="1" paint-order="normal" fill="url(#linearGradient1135)" fill-rule="evenodd" stroke="url(#linearGradient1137)" stroke-linejoin="round" fill-opacity="1" stroke-linecap="round" stroke-width="0.291" stroke-dashoffset="0" stroke-miterlimit="4" rx="1.795"/>
    <path sodipodi:nodetypes="ccccccccccccccccccccccccc" inkscape:connector-curvature="0" id="path1127" d="m 4.9668256,271.28698 -2.6066926,-0.62109 2.6303006,-1.61482 19.4501924,0.11075 1.596405,1.50407 -3.0398,0.73185 3.588629,-0.002 c 1.210885,-0.049 1.316545,-1.63305 1.052538,-3.43253 -0.110669,0.88113 0.224336,1.96033 -0.928321,2.37835 l -1.230371,-2.15704 c 0.881066,-0.23918 1.248901,-1.55461 1.475496,-2.61188 l 0.265205,-16.90231 -0.886291,-3.46937 0.219862,20.18866 c -0.281192,1.3493 -0.705739,2.55525 -2.222458,2.66902 L 3.6693813,267.95319 C 3.0493335,267.72835 2.1024606,267.07841 2.1083884,266.2276 l 0.3138531,-20.83997 -0.7604186,3.01288 -0.046995,18.35253 c 0.1989969,1.46618 1.4175618,2.02827 2.0562083,2.16035 l -1.9940995,1.44196 c -0.77059298,-0.11551 -0.74759973,-1.18332 -0.93328621,-2.00072 -0.053889,0.60663 -0.13493085,3.29462 1.21525781,3.19921 z" stroke-opacity="1" fill="#a4a4a4" stroke="none" stroke-linejoin="miter" fill-opacity="1" stroke-linecap="butt" stroke-width="0.265"/>
    <path sodipodi:nodetypes="ccccc" inkscape:connector-curvature="0" id="path1129" d="m 4.1825784,268.47388 c -0.7331464,0.0423 -1.4061088,-0.006 -1.6448342,-0.70493 l -1.4098579,2.39677 c 0.043144,0.18798 0.1660068,0.37596 0.7049289,0.56394 z" stroke-opacity="1" fill="#ffffff" stroke="none" stroke-linejoin="miter" fill-opacity="1" stroke-linecap="butt" stroke-width="0.265"/>
    <path d="m 25.048475,268.23891 c 0.733146,0.0423 1.077142,-0.47596 1.315868,-1.17489 l 1.315867,2.39677 c -0.04314,0.18798 -0.166007,1.08089 -0.704929,1.26887 z" id="path1131" inkscape:connector-curvature="0" sodipodi:nodetypes="ccccc" stroke-opacity="1" fill="#ffffff" stroke="none" stroke-linejoin="miter" fill-opacity="1" stroke-linecap="butt" stroke-width="0.265"/>
   </g>
  </pattern>
  <linearGradient inkscape:collect="always" xlink:href="#linearGradient1893" id="linearGradient1885" gradientUnits="userSpaceOnUse" gradientTransform="matrix(0.8682181,0,0,0.64780946,8.4964002,113.60716)" x1="16.499" y1="243.96" x2="16.06" y2="267.13"/>
  <linearGradient inkscape:collect="always" xlink:href="#linearGradient1893" id="linearGradient1642" gradientUnits="userSpaceOnUse" gradientTransform="matrix(0.66130382,0,0,0.67929643,25.114467,85.126718)" x1="16.499" y1="243.96" x2="16.06" y2="267.13"/>
  <linearGradient id="linearGradient2888" inkscape:collect="always">
   <stop id="stop2890" stop-color="black" stop-opacity="1"/>
   <stop id="stop2892" offset="1" stop-color="#86867a" stop-opacity="1"/>
  </linearGradient>
  <linearGradient id="linearGradient2864" inkscape:collect="always">
   <stop id="stop2866" stop-color="#afaf09" stop-opacity="1"/>
   <stop id="stop2868" offset="1" stop-color="yellow" stop-opacity="1"/>
  </linearGradient>
  <linearGradient id="linearGradient2854" inkscape:collect="always">
   <stop id="stop2856" stop-color="#a29929" stop-opacity="1"/>
   <stop id="stop2858" offset="1" stop-color="#e8e7b2" stop-opacity="1"/>
  </linearGradient>
  <linearGradient id="linearGradient2836" inkscape:collect="always">
   <stop id="stop2838" stop-color="#efe541" stop-opacity="1"/>
   <stop id="stop2840" offset="1" stop-color="#98961a" stop-opacity="1"/>
  </linearGradient>
  <linearGradient inkscape:collect="always" id="linearGradient2798">
   <stop id="stop2800" stop-color="white" stop-opacity="0"/>
   <stop offset="1" id="stop2802" stop-color="white" stop-opacity="1"/>
  </linearGradient>
  <linearGradient id="linearGradient2788" inkscape:collect="always">
   <stop id="stop2790" stop-color="white" stop-opacity="1"/>
   <stop id="stop2792" offset="1" stop-color="#c4c4c4" stop-opacity="1"/>
  </linearGradient>
  <linearGradient id="linearGradient2762">
   <stop id="stop2764-3" stop-color="white" stop-opacity="1"/>
   <stop offset="0.5" id="stop2770-6" stop-color="white" stop-opacity="1"/>
   <stop id="stop2772-7" offset="0.75" stop-color="black" stop-opacity="1"/>
   <stop id="stop2766" offset="1" stop-color="#aaa" stop-opacity="1"/>
  </linearGradient>
  <radialGradient r="14.989" fy="13.06" fx="24.699" cy="13.06" cx="24.699" gradientTransform="matrix(-0.956103,0.149232,0.248543,1.592377,168.1516,-1.886564)" gradientUnits="userSpaceOnUse" id="radialGradient2934" xlink:href="#linearGradient2888" inkscape:collect="always"/>
  <radialGradient r="14.989" fy="13.06" fx="24.699" cy="13.06" cx="24.699" gradientTransform="matrix(-0.956103,0.149232,0.248543,1.592377,150.7653,-6.101428)" gradientUnits="userSpaceOnUse" id="radialGradient2936" xlink:href="#linearGradient2888" inkscape:collect="always"/>
  <radialGradient r="14.989" fy="13.06" fx="24.699" cy="13.06" cx="24.699" gradientTransform="matrix(-0.956103,0.149232,0.248543,1.592377,130.7447,-3.993996)" gradientUnits="userSpaceOnUse" id="radialGradient2938" xlink:href="#linearGradient2888" inkscape:collect="always"/>
  <radialGradient r="14.989" fy="13.06" fx="24.699" cy="13.06" cx="24.699" gradientTransform="matrix(-0.149232,-0.956103,-1.592377,0.248543,255.5157,114.0957)" gradientUnits="userSpaceOnUse" id="radialGradient2940" xlink:href="#linearGradient2888" inkscape:collect="always"/>
  <radialGradient r="14.989" fy="13.06" fx="24.699" cy="13.06" cx="24.699" gradientTransform="matrix(0.149232,-0.956103,1.592377,0.248543,2.644727,122.5255)" gradientUnits="userSpaceOnUse" id="radialGradient2942" xlink:href="#linearGradient2888" inkscape:collect="always"/>
  <radialGradient r="100.81" fy="68.07" fx="-117.75" cy="120.46" cx="-117.75" spreadMethod="reflect" gradientTransform="matrix(1.049408,-0.01085737,0.01029799,1.201608,4.57742,-23.36082)" gradientUnits="userSpaceOnUse" id="radialGradient2944" xlink:href="#linearGradient2762" inkscape:collect="always"/>
  <radialGradient r="95.6" fy="72.32" fx="130.5" cy="72.32" cx="130.5" gradientTransform="matrix(-1.044693,0.0220452,-0.01996457,-0.946094,268.2745,140.609)" gradientUnits="userSpaceOnUse" id="radialGradient2946" xlink:href="#linearGradient2788" inkscape:collect="always"/>
  <linearGradient y2="33.666" x2="94.83" y1="95.84" x1="94.83" gradientUnits="userSpaceOnUse" id="linearGradient2948" xlink:href="#linearGradient2788" inkscape:collect="always"/>
  <linearGradient y2="38.934" x2="94.83" y1="58.43" x1="94.83" gradientUnits="userSpaceOnUse" id="linearGradient2950" xlink:href="#linearGradient2798" inkscape:collect="always"/>
  <radialGradient r="13.698" fy="15.841" fx="22.13" cy="15.841" cx="22.13" gradientTransform="matrix(-1.076923,0.07692308,-0.06576651,-0.920731,47.00001,29.16233)" gradientUnits="userSpaceOnUse" id="radialGradient2956" xlink:href="#linearGradient2768" inkscape:collect="always"/>
  <radialGradient r="13.698" fy="15.841" fx="22.13" cy="15.841" cx="22.13" gradientTransform="matrix(-1.076923,0.07692308,-0.06576651,-0.920731,47.00001,29.16233)" gradientUnits="userSpaceOnUse" id="radialGradient2958" xlink:href="#linearGradient2768" inkscape:collect="always"/>
  <linearGradient y2="26.29" x2="47.42" y1="26.29" x1="20.284" spreadMethod="reflect" gradientTransform="translate(110.1133,77.97499)" gradientUnits="userSpaceOnUse" id="linearGradient2960" xlink:href="#linearGradient2836" inkscape:collect="always"/>
  <linearGradient y2="82.71" x2="139.62" y1="117.7" x1="130.4" gradientUnits="userSpaceOnUse" id="linearGradient2962" xlink:href="#linearGradient2854" inkscape:collect="always"/>
  <radialGradient r="40.73" fy="201.83" fx="-166.08" cy="201.83" cx="-166.08" gradientTransform="matrix(-1.221558,-0.96786,0.54421,-0.686922,-202.8922,187.386)" gradientUnits="userSpaceOnUse" id="radialGradient2964" xlink:href="#linearGradient2864" inkscape:collect="always"/>
  <radialGradient r="40.73" fy="201.83" fx="-166.08" cy="201.83" cx="-166.08" gradientTransform="matrix(1.221558,-0.96786,-0.54421,-0.686922,478.7287,186.8591)" gradientUnits="userSpaceOnUse" id="radialGradient2966" xlink:href="#linearGradient2864" inkscape:collect="always"/>
  <linearGradient inkscape:collect="always" xlink:href="#linearGradient2788" id="linearGradient1184" gradientUnits="userSpaceOnUse" x1="94.83" y1="95.84" x2="94.83" y2="33.666"/>
  <linearGradient inkscape:collect="always" xlink:href="#linearGradient2798" id="linearGradient1186" gradientUnits="userSpaceOnUse" x1="94.83" y1="58.43" x2="94.83" y2="38.934"/>
  <radialGradient inkscape:collect="always" xlink:href="#linearGradient988" id="radialGradient990" cx="-10.49" cy="281" fx="-10.49" fy="281" r="7.05" gradientUnits="userSpaceOnUse" spreadMethod="reflect" gradientTransform="matrix(0.29852079,0,0,0.29852079,31.100438,199.85834)"/>
 </defs>
 <sodipodi:namedview id="base" pagecolor="#ff0000" bordercolor="#666666" borderopacity="1.0" inkscape:pageopacity="0" inkscape:pageshadow="2" inkscape:zoom="3.5058824" inkscape:cx="127.5" inkscape:cy="127.5" inkscape:document-units="px" inkscape:current-layer="layer1" showgrid="false" inkscape:snap-to-guides="false" inkscape:snap-grids="false" inkscape:snap-others="false" inkscape:object-nodes="false" inkscape:snap-nodes="false" inkscape:snap-global="false" inkscape:window-width="1920" inkscape:window-height="1056" inkscape:window-x="0" inkscape:window-y="0" inkscape:window-maximized="1" units="px" showguides="false"/>
 <metadata id="metadata5">
  <rdf:RDF>
   <cc:Work>
    <dc:format>image/svg+xml</dc:format>
    <dc:type rdf:resource="http://purl.org/dc/dcmitype/StillImage"/>
    <dc:title/>
   </cc:Work>
  </rdf:RDF>
 </metadata>
 <g inkscape:label="Layer 1" inkscape:groupmode="layer" id="layer1" transform="translate(0,-229.53126)">
  <g id="g2948" transform="matrix(0.53036308,5.652717e-4,-6.0018347e-4,0.56312262,-5.0229571,225.95768)" fill="#000000" stroke="none" fill-opacity="0.312"/>
  <rect id="rect983" width="16.733" height="13.58" x="-17.366" y="239.58" ry="1.028" opacity="1" stroke-dasharray="none" stroke-opacity="1" paint-order="normal" fill="#000000" fill-rule="evenodd" stroke="none" stroke-linejoin="round" fill-opacity="1" stroke-linecap="round" stroke-width="0.185" stroke-dashoffset="0" stroke-miterlimit="4" rx="1.028"/>
  <rect ry="1.053" y="238.75" x="-16.841" height="13.908" width="15.683" id="rect981" opacity="1" stroke-dasharray="none" stroke-opacity="1" paint-order="normal" fill="#b4b4b4" fill-rule="evenodd" stroke="#878686" stroke-linejoin="round" fill-opacity="1" stroke-linecap="round" stroke-width="0.181" stroke-dashoffset="0" stroke-miterlimit="4" rx="1.053"/>
  <rect id="rect979" width="13.919" height="13.919" x="-15.959" y="236.42" ry="1.054" opacity="1" stroke-dasharray="none" stroke-opacity="1" paint-order="normal" fill="url(#linearGradient1063)" fill-rule="evenodd" stroke="url(#linearGradient1071)" stroke-linejoin="round" fill-opacity="1" stroke-linecap="round" stroke-width="0.171" stroke-dashoffset="0" stroke-miterlimit="4" rx="1.054"/>
  <path d="m -14.48633,252.54977 -1.529704,-0.36448 1.543558,-0.94764 11.4140968,0.065 0.9368298,0.88264 -1.7838677,0.42948 2.105941,-0.001 c 0.7105924,-0.0287 0.7725976,-0.95833 0.6176685,-2.01433 -0.064945,0.51708 0.1316487,1.15039 -0.5447733,1.3957 l -0.7220275,-1.26583 c 0.5170423,-0.14036 0.7329016,-0.9123 0.8658759,-1.53275 l 0.1556322,-9.9189 -0.5201085,-2.03596 0.1290232,11.84746 c -0.165014,0.79182 -0.4141539,1.49951 -1.3042211,1.56628 l -12.1253123,-0.0619 c -0.363867,-0.13195 -0.919527,-0.51336 -0.916048,-1.01264 l 0.18418,-12.22967 -0.446241,1.76807 -0.02758,10.76994 c 0.116779,0.86041 0.831878,1.19027 1.20666,1.26778 l -1.170212,0.84619 c -0.452213,-0.0678 -0.438719,-0.69441 -0.547687,-1.17409 -0.03162,0.35599 -0.07918,1.9334 0.713158,1.87741 z" id="path987" inkscape:connector-curvature="0" sodipodi:nodetypes="ccccccccccccccccccccccccc" stroke-opacity="1" fill="#a4a4a4" stroke="none" stroke-linejoin="miter" fill-opacity="1" stroke-linecap="butt" stroke-width="0.155"/>
  <path d="m -14.946555,250.89894 c -0.430238,0.0248 -0.825157,-0.004 -0.96525,-0.41368 l -0.827357,1.40651 c 0.02532,0.11032 0.09742,0.22063 0.413678,0.33094 z" id="path997" inkscape:connector-curvature="0" sodipodi:nodetypes="ccccc" stroke-opacity="1" fill="#ffffff" stroke="none" stroke-linejoin="miter" fill-opacity="1" stroke-linecap="butt" stroke-width="0.155"/>
  <path sodipodi:nodetypes="ccccc" inkscape:connector-curvature="0" id="path999" d="m -2.7016708,250.76105 c 0.4302373,0.0248 0.632107,-0.27931 0.7722003,-0.68947 l 0.7721997,1.40651 c -0.025316,0.11032 -0.097419,0.63431 -0.4136786,0.74462 z" stroke-opacity="1" fill="#ffffff" stroke="none" stroke-linejoin="miter" fill-opacity="1" stroke-linecap="butt" stroke-width="0.155"/>
  <rect width="16.733" height="16.829" x="-17.366" y="254.14" id="rect1153" fill="url(#pattern1144)" stroke="none"/>
  <rect id="rect1139" width="66.46" height="58.35" x="0.648" y="233.02" ry="3.849" opacity="1" stroke-dasharray="none" stroke-opacity="1" paint-order="normal" fill="#919191" fill-rule="evenodd" stroke="#5d5d5d" stroke-linejoin="round" fill-opacity="1" stroke-linecap="round" stroke-width="0.291" stroke-dashoffset="0" stroke-miterlimit="4" rx="3.849"/>
  <rect id="rect1873" width="51.26" height="19.856" x="8.171" y="271.02" opacity="1" stroke-dasharray="none" stroke-opacity="1" paint-order="normal" fill="url(#pattern1875)" fill-rule="evenodd" stroke="none" stroke-linejoin="round" fill-opacity="1" stroke-linecap="round" stroke-width="0.291" stroke-dashoffset="0" stroke-miterlimit="4"/>
  <rect ry="1.163" y="271.54" x="10.629" height="15.365" width="20.592" id="rect1883" opacity="1" stroke-dasharray="none" stroke-opacity="1" paint-order="normal" fill="url(#linearGradient1885)" fill-rule="evenodd" stroke="none" stroke-linejoin="round" fill-opacity="1" stroke-linecap="round" stroke-width="0.218" stroke-dashoffset="0" stroke-miterlimit="4" rx="1.163"/>
  <rect y="229.89" x="12.269" height="21.337" width="40.43" id="rect1634" opacity="1" stroke-dasharray="none" stroke-opacity="1" paint-order="normal" fill="url(#pattern1636)" fill-rule="evenodd" stroke="none" stroke-linejoin="round" fill-opacity="1" stroke-linecap="round" stroke-width="0.291" stroke-dashoffset="0" stroke-miterlimit="4"/>
  <rect id="rect1630" width="60.6" height="20.804" x="4.267" y="250.38" opacity="1" stroke-dasharray="none" stroke-opacity="1" paint-order="normal" fill="url(#pattern1638)" fill-rule="evenodd" stroke="none" stroke-linejoin="round" fill-opacity="1" stroke-linecap="round" stroke-width="0.291" stroke-dashoffset="0" stroke-miterlimit="4"/>
  <rect id="rect1640" width="15.685" height="16.11" x="26.739" y="250.74" ry="1.22" opacity="1" stroke-dasharray="none" stroke-opacity="1" paint-order="normal" fill="url(#linearGradient1642)" fill-rule="evenodd" stroke="none" stroke-linejoin="round" fill-opacity="1" stroke-linecap="round" stroke-width="0.195" stroke-dashoffset="0" stroke-miterlimit="4" rx="1.22"/>
  <g id="g1232" transform="matrix(0.23041131,0,0,0.23041131,60.942953,217.91163)">
   <g transform="matrix(0.26458333,0,0,0.26458333,-98.591318,234.83444)" id="g2912">
    <path d="M 143.04196,0.73728129 C 145.36181,17.377331 132.56053,21.506671 125.12879,29.714481 l 34.77262,-8.95659 C 154.42313,13.848451 152.27794,1.3838713 143.04196,0.73728129 Z" id="path2908" sodipodi:nodetypes="cccc" inkscape:connector-curvature="0" stroke-opacity="1" fill="url(#radialGradient2934)" fill-rule="evenodd" stroke="#000000" stroke-linejoin="miter" fill-opacity="1" stroke-linecap="butt" stroke-width="1"/>
    <path sodipodi:nodetypes="cccc" id="path2904" d="M 125.65565,-3.4775829 C 127.9755,13.162467 115.17422,17.291807 107.74248,25.499617 l 34.77262,-8.95659 C 137.03682,9.6335869 134.89163,-2.8309929 125.65565,-3.4775829 Z" inkscape:connector-curvature="0" stroke-opacity="1" fill="url(#radialGradient2936)" fill-rule="evenodd" stroke="#000000" stroke-linejoin="miter" fill-opacity="1" stroke-linecap="butt" stroke-width="1"/>
    <path d="M 105.63505,-1.3701508 C 107.9549,15.269899 95.153614,19.399239 87.721874,27.607049 l 34.772626,-8.95659 c -5.47828,-6.90944 -7.62347,-19.37401978 -16.85945,-20.0206098 z" id="path2900" sodipodi:nodetypes="cccc" inkscape:connector-curvature="0" stroke-opacity="1" fill="url(#radialGradient2938)" fill-rule="evenodd" stroke="#000000" stroke-linejoin="miter" fill-opacity="1" stroke-linecap="butt" stroke-width="1"/>
    <path sodipodi:nodetypes="cccc" id="path2896" d="M 252.89186,88.986006 C 249.78245,77.775219 233.62091,77.006143 223.91466,71.072833 l 8.95659,34.772627 c 6.90944,-5.47828 19.37402,-7.623469 20.02061,-16.859454 z" inkscape:connector-curvature="0" stroke-opacity="1" fill="url(#radialGradient2940)" fill-rule="evenodd" stroke="#000000" stroke-linejoin="miter" fill-opacity="1" stroke-linecap="butt" stroke-width="1"/>
    <path d="M 5.2685802,97.415735 C 8.3779823,86.204948 24.539524,85.435872 34.245772,79.502562 L 25.289185,114.27519 C 18.379748,108.79691 5.9151649,106.65172 5.2685802,97.415735 Z" id="path2886" sodipodi:nodetypes="cccc" inkscape:connector-curvature="0" stroke-opacity="1" fill="url(#radialGradient2942)" fill-rule="evenodd" stroke="#000000" stroke-linejoin="miter" fill-opacity="1" stroke-linecap="butt" stroke-width="1"/>
    <ellipse id="path1873" transform="matrix(1.057743,0,0,0.962687,254.9495,11.72651)" cx="-117.75" cy="109.53" rx="100.37" ry="105.9" opacity="1" stroke-dasharray="none" stroke-opacity="1" fill="#ffffff" stroke="#857f0b" stroke-linejoin="round" fill-opacity="1" stroke-linecap="round" stroke-width="0.892" stroke-dashoffset="28.49" stroke-miterlimit="4"/>
    <ellipse transform="matrix(1.057743,0,0,0.962687,254.9495,11.72651)" id="path1875" cx="-117.75" cy="109.53" rx="100.37" ry="105.9" opacity="1" stroke-dasharray="none" stroke-opacity="1" fill="url(#radialGradient2944)" stroke="#3b3a21" stroke-linejoin="round" fill-opacity="1" stroke-linecap="round" stroke-width="0.892" stroke-dashoffset="28.49" stroke-miterlimit="4"/>
    <ellipse id="path2776" transform="translate(0,-1.580574)" cx="129.61" cy="53.95" rx="40.568" ry="26.08" opacity="1" stroke-dasharray="none" stroke-opacity="1" fill="#000000" stroke="none" stroke-linejoin="round" fill-opacity="1" stroke-linecap="round" stroke-width="0.9" stroke-dashoffset="28.49" stroke-miterlimit="4"/>
    <path d="m 70.59898,43.67622 c 13.969339,-13.294312 31.44656,-13.958633 40.56806,-0.526858 10.11435,14.893789 22.05178,11.281898 30.55777,-1.05372 9.50489,-13.78425 38.66783,-12.47831 45.30979,4e-6 C 271.88451,115.45567 212.31612,218.4162 129.60707,213.32449 4.0669593,205.59603 25.669449,76.918725 70.59898,43.67622 Z" id="path2774" sodipodi:nodetypes="csscsc" inkscape:connector-curvature="0" stroke-opacity="1" fill="url(#radialGradient2946)" fill-rule="evenodd" stroke="#000000" stroke-linejoin="miter" fill-opacity="1" stroke-linecap="butt" stroke-width="1"/>
    <g id="g2806">
     <ellipse transform="translate(-3.688006)" id="path2786" cx="94.83" cy="65.28" rx="23.709" ry="26.343" opacity="1" stroke-dasharray="none" stroke-opacity="1" fill="url(#linearGradient1184)" stroke="none" stroke-linejoin="round" fill-opacity="1" stroke-linecap="round" stroke-width="0.9" stroke-dashoffset="28.49" stroke-miterlimit="4"/>
     <ellipse id="path2796" transform="translate(-3.688006)" cx="94.83" cy="65.28" rx="23.709" ry="26.343" opacity="1" stroke-dasharray="none" stroke-opacity="1" fill="url(#linearGradient1186)" stroke="none" stroke-linejoin="round" fill-opacity="1" stroke-linecap="round" stroke-width="0.9" stroke-dashoffset="28.49" stroke-miterlimit="4"/>
    </g>
    <g id="g2810" transform="translate(74.28698,1.053716)">
     <ellipse id="path2812" transform="translate(-3.688006)" cx="94.83" cy="65.28" rx="23.709" ry="26.343" opacity="1" stroke-dasharray="none" stroke-opacity="1" fill="url(#linearGradient2948)" stroke="none" stroke-linejoin="round" fill-opacity="1" stroke-linecap="round" stroke-width="0.9" stroke-dashoffset="28.49" stroke-miterlimit="4"/>
     <ellipse transform="translate(-3.688006)" id="path2814" cx="94.83" cy="65.28" rx="23.709" ry="26.343" opacity="1" stroke-dasharray="none" stroke-opacity="1" fill="url(#linearGradient2950)" stroke="none" stroke-linejoin="round" fill-opacity="1" stroke-linecap="round" stroke-width="0.9" stroke-dashoffset="28.49" stroke-miterlimit="4"/>
    </g>
    <ellipse id="path2820" transform="matrix(0.708333,0,0,0.708333,79.73119,42.63809)" cx="17.913" cy="21.548" rx="13.698" ry="12.645" opacity="1" stroke-dasharray="none" stroke-opacity="1" fill="url(#radialGradient2956)" stroke="none" stroke-linejoin="round" fill-opacity="1" stroke-linecap="round" stroke-width="0.9" stroke-dashoffset="28.49" stroke-miterlimit="4"/>
    <ellipse transform="matrix(0.729167,0,0,0.729167,153.9303,42.4526)" id="path2830" cx="17.913" cy="21.548" rx="13.698" ry="12.645" opacity="1" stroke-dasharray="none" stroke-opacity="1" fill="url(#radialGradient2958)" stroke="none" stroke-linejoin="round" fill-opacity="1" stroke-linecap="round" stroke-width="0.9" stroke-dashoffset="28.49" stroke-miterlimit="4"/>
    <path d="m 103.26417,96.362019 c 0,0 14.35688,-12.249449 27.92348,-12.644593 13.56659,-0.395143 26.3429,11.064019 26.3429,11.064019 0,0 -13.30317,17.518025 -26.86976,17.913175 -13.56659,0.39514 -27.39662,-16.332601 -27.39662,-16.332601 z" id="path2834" sodipodi:nodetypes="cscsc" inkscape:connector-curvature="0" stroke-dasharray="none" stroke-opacity="1" fill="url(#linearGradient2960)" fill-rule="evenodd" stroke="url(#linearGradient2962)" stroke-linejoin="miter" fill-opacity="1" stroke-linecap="butt" stroke-width="2" stroke-miterlimit="4"/>
    <path d="M 125.47798,198.2578 C 109.32093,188.39627 106.04311,170.80683 96.720147,156.84466 81.956263,136.78204 72.796689,145.8631 65.661676,165.4724 c -19.757109,1.11532 -28.328139,7.52955 -18.980165,22.43211 -1.404044,8.24428 -9.87916,16.48857 5.751567,24.73285 17.446419,4.38708 34.89284,0.26258 52.339262,15.52992 13.09722,8.48126 36.42614,-20.65897 20.70564,-29.90948 z" id="path2862" sodipodi:nodetypes="ccccccc" inkscape:connector-curvature="0" stroke-opacity="1" fill="url(#radialGradient2964)" fill-rule="evenodd" stroke="#e1e112" stroke-linejoin="miter" fill-opacity="1" stroke-linecap="butt" stroke-width="1"/>
    <path sodipodi:nodetypes="ccccccc" id="path2882" d="m 150.35846,197.73094 c 16.15705,-9.86153 19.43487,-27.45097 28.75783,-41.41314 14.76389,-20.06262 23.92346,-10.98156 31.05848,8.62774 19.75711,1.11532 28.32814,7.52955 18.98016,22.43211 1.40405,8.24428 9.87916,16.48857 -5.75157,24.73285 -17.44641,4.38708 -34.89284,0.26258 -52.33926,15.52992 -13.09722,8.48126 -36.42614,-20.65897 -20.70564,-29.90948 z" inkscape:connector-curvature="0" stroke-opacity="1" fill="url(#radialGradient2966)" fill-rule="evenodd" stroke="#e1e112" stroke-linejoin="miter" fill-opacity="1" stroke-linecap="butt" stroke-width="1"/>
   </g>
  </g>
  <text x="-17.13" y="289" id="text1236" font-family="FreeSans" fill="#000000" stroke="none" font-style="normal" word-spacing="0" line-height="1.25" fill-opacity="1" font-weight="bold" stroke-width="0.265" font-stretch="normal" letter-spacing="0" font-variant="normal" font-size="5.644"><tspan sodipodi:role="line" id="tspan1234" x="-17.13" y="294.22" stroke-width="0.265"/>
  </text>
  <path inkscape:connector-curvature="0" id="path1242" d="m 10.541819,257.90739 -2.6154944,-5.64233 h 0.651933 l 2.6465394,5.64233 z" font-family="&apos;Good Times&apos;" fill="#000000" stroke="none" font-style="normal" word-spacing="0" line-height="1.25" fill-opacity="1" font-weight="bold" stroke-width="0.265" font-stretch="normal" letter-spacing="0" font-variant="normal" font-size="7.761"/>
  <path inkscape:connector-curvature="0" id="path1244" d="m 28.55072,257.30364 q -0.225072,0 -0.395817,-0.12418 -0.162983,-0.13194 -0.162983,-0.38029 0,-0.21732 0.201789,-0.4191 l 3.748617,-3.77967 H 28.06177 v -0.93909 h 4.936067 q 0.217311,0 0.388055,0.13194 0.170745,0.12418 0.170745,0.37253 0,0.21731 -0.201789,0.4191 l -3.748617,3.77966 h 3.927122 v 0.9391 z" font-family="&apos;Good Times&apos;" fill="#000000" stroke="none" font-style="normal" word-spacing="0" line-height="1.25" fill-opacity="1" font-weight="bold" stroke-width="0.265" font-stretch="normal" letter-spacing="0" font-variant="normal" font-size="7.761"/>
  <path inkscape:connector-curvature="0" id="path1246" d="m 53.65822,257.37911 -2.367139,-2.30505 -2.343855,2.30505 h -1.280584 l 3.026834,-2.9337 -2.809523,-2.70863 h 1.358195 l 2.149828,2.08774 2.118783,-2.08774 h 1.280583 l -2.809522,2.70863 3.057878,2.9337 z" font-family="&apos;Good Times&apos;" fill="#000000" stroke="none" font-style="normal" word-spacing="0" line-height="1.25" fill-opacity="1" font-weight="bold" stroke-width="0.265" font-stretch="normal" letter-spacing="0" font-variant="normal" font-size="7.761"/>
  <path inkscape:connector-curvature="0" id="path1248" d="m 21.404225,236.70077 -0.845961,-1.42029 h -2.669822 l 0.465667,-0.79939 h 1.730727 l -1.2573,-2.11102 -2.561166,4.3307 h -1.125361 l 3.244144,-5.40174 q 0.08537,-0.14746 0.201789,-0.23283 0.116417,-0.0854 0.2794,-0.0854 0.162983,0 0.271639,0.0854 0.116416,0.0854 0.201789,0.23283 l 3.251905,5.40174 z" font-family="&apos;Good Times&apos;" fill="#000000" stroke="none" font-style="normal" word-spacing="0" line-height="1.25" fill-opacity="1" font-weight="bold" stroke-width="0.265" font-stretch="normal" letter-spacing="0" font-variant="normal" font-size="7.761"/>
  <path inkscape:connector-curvature="0" id="path1250" d="m 35.870153,237.00264 v -0.98566 h 4.229805 q 0.395816,0 0.605366,-0.20179 0.217311,-0.20179 0.217311,-0.53552 0,-0.36477 -0.217311,-0.54328 -0.20955,-0.18626 -0.605366,-0.18626 h -2.592211 q -0.395817,0 -0.721783,-0.11642 -0.318206,-0.12418 -0.543278,-0.33373 -0.217311,-0.21731 -0.341489,-0.51223 -0.116417,-0.29492 -0.116417,-0.64417 0,-0.34149 0.108656,-0.62865 0.116417,-0.29493 0.333728,-0.50448 0.225072,-0.20955 0.551039,-0.32596 0.325966,-0.12418 0.745066,-0.12418 h 4.0513 v 0.98566 h -4.0513 q -0.341489,0 -0.527755,0.18627 -0.186267,0.1785 -0.186267,0.50447 0,0.32597 0.186267,0.50447 0.194028,0.17851 0.519994,0.17851 h 2.58445 q 0.861483,0 1.303866,0.40358 0.450145,0.40357 0.450145,1.22625 0,0.35701 -0.108656,0.6597 -0.108655,0.30268 -0.325966,0.52775 -0.217312,0.21731 -0.551039,0.34149 -0.325967,0.12418 -0.76835,0.12418 z" font-family="&apos;Good Times&apos;" fill="#000000" stroke="none" font-style="normal" word-spacing="0" line-height="1.25" fill-opacity="1" font-weight="bold" stroke-width="0.265" font-stretch="normal" letter-spacing="0" font-variant="normal" font-size="7.761"/>
  <circle id="path982" cx="28.04" cy="284.28" r="1.78" opacity="1" stroke-dasharray="none" stroke-opacity="1" fill="url(#radialGradient990)" fill-rule="evenodd" stroke="#a5a5a5" stroke-linejoin="round" fill-opacity="1" stroke-linecap="round" stroke-width="0.648" stroke-dashoffset="0" stroke-miterlimit="4"/>
 </g>
</svg>
