<?xml version="1.0" encoding="UTF-8" standalone="no"?>
<!-- Created with Inkscape (http://www.inkscape.org/) -->

<svg
   xmlns:dc="http://purl.org/dc/elements/1.1/"
   xmlns:cc="http://creativecommons.org/ns#"
   xmlns:rdf="http://www.w3.org/1999/02/22-rdf-syntax-ns#"
   xmlns:svg="http://www.w3.org/2000/svg"
   xmlns="http://www.w3.org/2000/svg"
   xmlns:xlink="http://www.w3.org/1999/xlink"
   xmlns:sodipodi="http://sodipodi.sourceforge.net/DTD/sodipodi-0.dtd"
   xmlns:inkscape="http://www.inkscape.org/namespaces/inkscape"
   id="svg2"
   version="1.1"
   inkscape:version="0.91 r13725"
   width="256"
   height="256"
   sodipodi:docname="preferences-system.svg">
  <sodipodi:namedview
     pagecolor="#ffffff"
     bordercolor="#666666"
     borderopacity="1"
     objecttolerance="10"
     gridtolerance="10"
     guidetolerance="10"
     inkscape:pageopacity="0"
     inkscape:pageshadow="2"
     inkscape:window-width="1920"
     inkscape:window-height="1056"
     id="namedview4"
     showgrid="false"
     inkscape:zoom="3.5351562"
     inkscape:cx="128"
     inkscape:cy="128"
     inkscape:window-x="0"
     inkscape:window-y="0"
     inkscape:window-maximized="1"
     inkscape:current-layer="svg2" />
  <metadata
     id="metadata8">
    <rdf:RDF>
      <cc:Work
         rdf:about="">
        <dc:format>image/svg+xml</dc:format>
        <dc:type
           rdf:resource="http://purl.org/dc/dcmitype/StillImage" />
        <dc:title />
      </cc:Work>
    </rdf:RDF>
  </metadata>
  <defs
     id="defs6">
    <linearGradient
       id="linearGradient3795">
      <stop
         style="stop-color:#000000;stop-opacity:1;"
         offset="0"
         id="stop3797" />
      <stop
         style="stop-color:#797979;stop-opacity:1;"
         offset="1"
         id="stop3799" />
    </linearGradient>
    <linearGradient
       inkscape:collect="always"
       xlink:href="#linearGradient3795"
       id="linearGradient3801"
       x1="728.50348"
       y1="-187.52502"
       x2="734.56042"
       y2="-115.31478"
       gradientUnits="userSpaceOnUse" />
    <linearGradient
       inkscape:collect="always"
       xlink:href="#linearGradient3795"
       id="linearGradient3805"
       gradientUnits="userSpaceOnUse"
       x1="728.50348"
       y1="-187.52502"
       x2="734.56042"
       y2="-115.31478"
       gradientTransform="translate(96.994041,44.421327)" />
    <clipPath
       id="clipPath">
      <path
         sodipodi:nodetypes="cccccccccccccccccccsccccsccccc"
         inkscape:connector-curvature="0"
         id="path3808"
         d="m -396.35157,-311.68994 22.07175,-38.12393 9.69819,0.33442 4.68189,-5.35072 9.36377,1.6721 3.3442,-10.36704 11.3703,2.00653 -2.34095,-11.70472 12.37356,-1.6721 -6.35399,-9.69819 13.71124,-5.01631 -6.68841,-10.03261 11.03587,-5.68515 -8.02609,-9.02936 10.36704,-7.69167 -6.01957,-11.03587 41.46813,-45.14676 c -27.73093,-66.54558 -17.84855,-115.1266 57.52032,-132.43049 l 437.16751,-61.0832 c 98.83794,-18.31961 185.36138,-62.2958 281.51478,-74.50169 96.1534,-12.20588 190.9541,13.1389 294.2078,-5.26709 18.3324,-6.31339 28.9028,1.60368 35.8381,16.18497 l 2.3121,13.87283 c -6.0284,12.98079 -17.9842,21.21959 -33.526,26.5896 -66.6534,32.19852 -195.2157,7.48777 -289.8844,16.18496 -129.2924,11.87807 -215.91041,65.41943 -276.01152,75.14451 l -276.300567,65.89596 c -70.795433,13.01407 -131.188583,32.26951 -156.069373,72.83237 -16.94855,71.87977 -92.79523,151.56114 -187.28323,157.80348 z"
         style="fill:#535353;fill-opacity:1;stroke:#000000;stroke-width:1px;stroke-linecap:butt;stroke-linejoin:miter;stroke-opacity:1" />
    </clipPath>
    <filter
       id="filter"
       height="2"
       width="2"
       x="-0.5"
       y="-0.5"
       color-interpolation-filters="sRGB">
      <feGaussianBlur
         stdDeviation="5.0"
         id="feGaussianBlur3821" />
    </filter>
    <clipPath
       id="clipPaths">
      <path
         sodipodi:nodetypes="sccccccccccccccccccccccccccccccccccssccccccccccccs"
         inkscape:connector-curvature="0"
         style="fill:#515151;fill-opacity:1;stroke:#a5a5a5;stroke-width:1px;stroke-linecap:butt;stroke-linejoin:miter;stroke-opacity:1"
         d="m 402.47956,-270.78972 c -3.42935,0.11083 -6.85189,0.67795 -10.28125,1.875 l -116.46875,23.46875 -9.875,5.34375 c -32.81686,39.36992 -73.24316,79.40672 -86.4962,127.47167 -7.60107,25.68653 -9.30582,51.37305 0.4962,77.05958 l 4.96875,5.5 27.625,-27.25 -3.96875,-12.1875 10.0625,-5 -8.96875,-10.03125 12.53125,-3.59375 -5.71875,-11.46875 12.90625,-1.78125 -3.25,-11.125 11.46875,0.375 1.09375,-14.34375 11.46875,6.09375 1.0625,-13.28125 14.34375,8.625 2.5,-11.46875 11.84375,3.21875 29.03125,-33.34375 c 13.704,-14.36137 28.52487,-19.4927 46.59375,2.15625 l 133.34375,134.0625 c 21.20028,16.09658 51.25707,23.94302 87.8125,25.78125 l 321.4375,19.71875 c 88.31883,24.99038 183.42664,31.84443 277.15624,42.40625 96.7392,-4.73387 199.728,-18.30541 290.2188,-6.53125 34.7508,-14.33824 16.2595,-26.62369 3.25,-39.125 -95.6522,-34.26419 -191.2853,-14.35713 -286.9375,-14.125 l -302.18754,-42.40625 -175,-19.5625 -65.21875,-27.1875 -214.1875,-175 c -7.54458,-2.59034 -15.11167,-4.58758 -22.65625,-4.34375 z m 2.46875,38.3125 c 9.96007,0.0173 19.30757,5.71683 23.125,23.375 13.09573,4.50261 26.24714,8.94876 27.96875,27.71875 11.54249,2.23594 24.78749,1.29676 25.875,23.0625 14.05166,1.13453 25.26147,6.63403 27.6875,25.5625 20.07314,-0.68184 23.77766,12.91933 28.59375,25.5625 11.71847,-0.45881 37.76806,20.85017 18.53125,44.5 -23.00596,22.01759 -42.2599,1.46278 -48.09375,-15.65625 -11.52927,-2.03471 -20.51811,-8.01968 -23.71875,-23.03125 -18.54531,-4.22819 -29.5382,-12.67214 -30.75,-26.53125 -18.74408,-1.85228 -25.06846,-12.15153 -27.375,-25.21875 -18.36684,-0.134 -24.23279,-11.23646 -26.125,-25.84375 -35.3047,-11.89434 -28.42286,-33.59854 -15.4375,-47.5625 5.80955,-3.31239 12.90396,-5.94932 19.71875,-5.9375 z"
         id="path3757" />
    </clipPath>
    <filter
       y="-0.5"
       x="-0.5"
       width="2"
       height="2"
       id="filterJ"
       color-interpolation-filters="sRGB">
      <feGaussianBlur
         id="feGaussianBlur3890"
         stdDeviation="5.0" />
    </filter>
    <linearGradient
       inkscape:collect="always"
       xlink:href="#linearGradient3795"
       id="linearGradient4013"
       gradientUnits="userSpaceOnUse"
       x1="728.50348"
       y1="-187.52502"
       x2="734.56042"
       y2="-115.31478" />
    <linearGradient
       inkscape:collect="always"
       xlink:href="#linearGradient3795"
       id="linearGradient4015"
       gradientUnits="userSpaceOnUse"
       gradientTransform="translate(96.994041,44.421327)"
       x1="728.50348"
       y1="-187.52502"
       x2="734.56042"
       y2="-115.31478" />
    <linearGradient
       inkscape:collect="always"
       xlink:href="#linearGradient3795"
       id="linearGradient4018"
       gradientUnits="userSpaceOnUse"
       gradientTransform="translate(80.726923,864.34849)"
       x1="728.50348"
       y1="-187.52502"
       x2="734.56042"
       y2="-115.31478" />
    <linearGradient
       inkscape:collect="always"
       xlink:href="#linearGradient3795"
       id="linearGradient4021"
       gradientUnits="userSpaceOnUse"
       x1="728.50348"
       y1="-187.52502"
       x2="734.56042"
       y2="-115.31478"
       gradientTransform="matrix(0.97913802,-0.20319632,0.20319632,0.97913802,-101.96078,813.72549)" />
    <linearGradient
       inkscape:collect="always"
       xlink:href="#linearGradient3795"
       id="linearGradient4098"
       gradientUnits="userSpaceOnUse"
       x1="728.50348"
       y1="-187.52502"
       x2="734.56042"
       y2="-115.31478"
       gradientTransform="matrix(0.12716003,0.11803201,-0.11803201,0.12716003,-215.64974,19.963372)" />
    <linearGradient
       inkscape:collect="always"
       xlink:href="#linearGradient3795"
       id="linearGradient4100"
       gradientUnits="userSpaceOnUse"
       gradientTransform="matrix(0.17349706,0,0,0.17349706,-71.651918,205.37998)"
       x1="728.50348"
       y1="-187.52502"
       x2="734.56042"
       y2="-115.31478" />
    <filter
       inkscape:collect="always"
       style="color-interpolation-filters:sRGB"
       id="filter4229"
       x="-0.022103447"
       width="1.0442069"
       y="-0.026252561"
       height="1.0525051">
      <feGaussianBlur
         inkscape:collect="always"
         stdDeviation="1.9544711"
         id="feGaussianBlur4231" />
    </filter>
    <linearGradient
       id="linearGradient4329">
      <stop
         id="stop4331"
         offset="0"
         style="stop-color:#000000;stop-opacity:1;" />
      <stop
         id="stop4333"
         offset="1"
         style="stop-color:#7d7d7d;stop-opacity:1" />
    </linearGradient>
    <linearGradient
       id="linearGradient4198">
      <stop
         id="stop4200"
         offset="0"
         style="stop-color:#000000;stop-opacity:0;" />
      <stop
         style="stop-color:#000000;stop-opacity:1;"
         offset="0.25410977"
         id="stop4206" />
      <stop
         id="stop4202"
         offset="1"
         style="stop-color:#383838;stop-opacity:0.43902439;" />
    </linearGradient>
    <linearGradient
       id="linearGradient4150">
      <stop
         id="stop4152"
         offset="0"
         style="stop-color:#d0d0d0;stop-opacity:0;" />
      <stop
         style="stop-color:#ffffff;stop-opacity:1;"
         offset="0.16771533"
         id="stop4158" />
      <stop
         id="stop4160"
         offset="0.58385766"
         style="stop-color:#ffffff;stop-opacity:0.49803922;" />
      <stop
         style="stop-color:#444444;stop-opacity:0.24705882;"
         offset="0.79192883"
         id="stop4162" />
      <stop
         id="stop4154"
         offset="1"
         style="stop-color:#000000;stop-opacity:0.73780489;" />
    </linearGradient>
    <linearGradient
       id="linearGradient4104">
      <stop
         id="stop4106"
         offset="0"
         style="stop-color:#dbdbdb;stop-opacity:0.62804878;" />
      <stop
         id="stop4108"
         offset="1"
         style="stop-color:#383838;stop-opacity:0;" />
    </linearGradient>
    <linearGradient
       id="linearGradient3965">
      <stop
         id="stop3967"
         offset="0"
         style="stop-color:#dedede;stop-opacity:1;" />
      <stop
         id="stop3969"
         offset="1"
         style="stop-color:#ffffff;stop-opacity:0;" />
    </linearGradient>
    <linearGradient
       id="linearGradient3945">
      <stop
         id="stop3947"
         offset="0"
         style="stop-color:#000000;stop-opacity:1;" />
      <stop
         id="stop3949"
         offset="1"
         style="stop-color:#727272;stop-opacity:1;" />
    </linearGradient>
    <linearGradient
       id="linearGradient3931">
      <stop
         id="stop3933"
         offset="0"
         style="stop-color:#000000;stop-opacity:1;" />
      <stop
         style="stop-color:#595959;stop-opacity:1;"
         offset="0.41748741"
         id="stop3941" />
      <stop
         style="stop-color:#2c2c2c;stop-opacity:1;"
         offset="0.725106"
         id="stop3939" />
      <stop
         id="stop3935"
         offset="1"
         style="stop-color:#adadad;stop-opacity:1;" />
    </linearGradient>
    <linearGradient
       id="linearGradient3891">
      <stop
         id="stop3893"
         offset="0"
         style="stop-color:#797979;stop-opacity:1;" />
      <stop
         id="stop3895"
         offset="1"
         style="stop-color:#303030;stop-opacity:1;" />
    </linearGradient>
    <linearGradient
       id="linearGradient3881">
      <stop
         id="stop3883"
         offset="0"
         style="stop-color:#b4b4b4;stop-opacity:1;" />
      <stop
         id="stop3885"
         offset="1"
         style="stop-color:#515151;stop-opacity:1;" />
    </linearGradient>
    <linearGradient
       id="linearGradient3775">
      <stop
         id="stop3777"
         offset="0"
         style="stop-color:#8f8f8f;stop-opacity:1;" />
      <stop
         id="stop3779"
         offset="1"
         style="stop-color:#404040;stop-opacity:1" />
    </linearGradient>
    <filter
       color-interpolation-filters="sRGB"
       id="filter3769"
       inkscape:collect="always">
      <feGaussianBlur
         id="feGaussianBlur3771"
         stdDeviation="1.7077455"
         inkscape:collect="always" />
    </filter>
    <filter
       color-interpolation-filters="sRGB"
       height="1.198561"
       y="-0.099280484"
       width="1.3937751"
       x="-0.19688752"
       id="filter3829"
       inkscape:collect="always">
      <feGaussianBlur
         id="feGaussianBlur3831"
         stdDeviation="1.5081696"
         inkscape:collect="always" />
    </filter>
    <filter
       color-interpolation-filters="sRGB"
       id="filter3869"
       inkscape:collect="always">
      <feGaussianBlur
         id="feGaussianBlur3871"
         stdDeviation="1.3102725"
         inkscape:collect="always" />
    </filter>
    <filter
       color-interpolation-filters="sRGB"
       id="filter3873"
       inkscape:collect="always">
      <feGaussianBlur
         id="feGaussianBlur3875"
         stdDeviation="1.1742706"
         inkscape:collect="always" />
    </filter>
    <filter
       color-interpolation-filters="sRGB"
       id="filter3915"
       inkscape:collect="always">
      <feGaussianBlur
         id="feGaussianBlur3917"
         stdDeviation="1.7037"
         inkscape:collect="always" />
    </filter>
    <filter
       color-interpolation-filters="sRGB"
       id="filter3959"
       inkscape:collect="always">
      <feGaussianBlur
         id="feGaussianBlur3961"
         stdDeviation="1.7068273"
         inkscape:collect="always" />
    </filter>
    <linearGradient
       gradientTransform="translate(548.3871,-15.053763)"
       y2="294.48193"
       x2="648.67474"
       y1="474.40161"
       x1="513.97589"
       gradientUnits="userSpaceOnUse"
       id="linearGradient4028"
       xlink:href="#linearGradient3965"
       inkscape:collect="always" />
    <linearGradient
       gradientTransform="translate(548.3871,-15.053763)"
       y2="380.93839"
       x2="577.17053"
       y1="392.98657"
       x1="592.05316"
       spreadMethod="reflect"
       gradientUnits="userSpaceOnUse"
       id="linearGradient4031"
       xlink:href="#linearGradient3945"
       inkscape:collect="always" />
    <linearGradient
       gradientTransform="translate(548.3871,-15.053763)"
       y2="327.12192"
       x2="759.73273"
       y1="301.20435"
       x1="783.12573"
       spreadMethod="reflect"
       gradientUnits="userSpaceOnUse"
       id="linearGradient4042"
       xlink:href="#linearGradient3891"
       inkscape:collect="always" />
    <linearGradient
       gradientTransform="translate(548.3871,-15.053763)"
       y2="363.55899"
       x2="781.38153"
       y1="331.84805"
       x1="801.42047"
       gradientUnits="userSpaceOnUse"
       id="linearGradient4045"
       xlink:href="#linearGradient3881"
       inkscape:collect="always" />
    <linearGradient
       gradientTransform="translate(548.3871,-15.053763)"
       y2="243.80945"
       x2="611.95984"
       y1="180.99742"
       x1="648.24451"
       gradientUnits="userSpaceOnUse"
       id="linearGradient4054"
       xlink:href="#linearGradient3775"
       inkscape:collect="always" />
    <linearGradient
       gradientTransform="translate(548.3871,-15.053763)"
       y2="200.80147"
       x2="729.52301"
       y1="301.33337"
       x1="647.25708"
       spreadMethod="reflect"
       gradientUnits="userSpaceOnUse"
       id="linearGradient4057"
       xlink:href="#linearGradient3931"
       inkscape:collect="always" />
    <filter
       color-interpolation-filters="sRGB"
       id="filter4172"
       inkscape:collect="always">
      <feGaussianBlur
         id="feGaussianBlur4174"
         stdDeviation="0.76352325"
         inkscape:collect="always" />
    </filter>
    <filter
       color-interpolation-filters="sRGB"
       id="filter4192"
       inkscape:collect="always">
      <feGaussianBlur
         id="feGaussianBlur4194"
         stdDeviation="1.5756541"
         inkscape:collect="always" />
    </filter>
    <filter
       color-interpolation-filters="sRGB"
       id="filter4216"
       inkscape:collect="always">
      <feGaussianBlur
         id="feGaussianBlur4218"
         stdDeviation="0.74877705"
         inkscape:collect="always" />
    </filter>
    <linearGradient
       y2="642.67529"
       x2="426.50006"
       y1="615.58606"
       x1="392.94931"
       spreadMethod="reflect"
       gradientTransform="translate(21.190773,-20.972311)"
       gradientUnits="userSpaceOnUse"
       id="linearGradient4225"
       xlink:href="#linearGradient4104"
       inkscape:collect="always" />
    <linearGradient
       y2="619.08148"
       x2="462.32776"
       y1="572.76764"
       x1="406.49393"
       gradientUnits="userSpaceOnUse"
       id="linearGradient4227"
       xlink:href="#linearGradient4150"
       inkscape:collect="always" />
    <linearGradient
       y2="634.70148"
       x2="446.16159"
       y1="591.44611"
       x1="392.29388"
       spreadMethod="reflect"
       gradientUnits="userSpaceOnUse"
       id="linearGradient4229"
       xlink:href="#linearGradient4198"
       inkscape:collect="always" />
    <linearGradient
       spreadMethod="reflect"
       gradientUnits="userSpaceOnUse"
       y2="687.32593"
       x2="342.08762"
       y1="715.77527"
       x1="381.27206"
       id="linearGradient4335"
       xlink:href="#linearGradient4329"
       inkscape:collect="always" />
    <filter
       height="1.3702221"
       y="-0.18511106"
       width="1.1274301"
       x="-0.06371503"
       id="filter3912"
       inkscape:collect="always">
      <feGaussianBlur
         id="feGaussianBlur3914"
         stdDeviation="2.1502207"
         inkscape:collect="always" />
    </filter>
    <linearGradient
       inkscape:collect="always"
       xlink:href="#linearGradient4104"
       id="linearGradient4677"
       gradientUnits="userSpaceOnUse"
       gradientTransform="translate(21.190773,-20.972311)"
       spreadMethod="reflect"
       x1="392.94931"
       y1="615.58606"
       x2="426.50006"
       y2="642.67529" />
    <linearGradient
       inkscape:collect="always"
       xlink:href="#linearGradient4150"
       id="linearGradient4679"
       gradientUnits="userSpaceOnUse"
       x1="406.49393"
       y1="572.76764"
       x2="462.32776"
       y2="619.08148" />
    <linearGradient
       inkscape:collect="always"
       xlink:href="#linearGradient4198"
       id="linearGradient4681"
       gradientUnits="userSpaceOnUse"
       spreadMethod="reflect"
       x1="392.29388"
       y1="591.44611"
       x2="446.16159"
       y2="634.70148" />
    <linearGradient
       inkscape:collect="always"
       xlink:href="#linearGradient4104"
       id="linearGradient4683"
       gradientUnits="userSpaceOnUse"
       gradientTransform="translate(21.190773,-20.972311)"
       spreadMethod="reflect"
       x1="392.94931"
       y1="615.58606"
       x2="426.50006"
       y2="642.67529" />
    <linearGradient
       inkscape:collect="always"
       xlink:href="#linearGradient4150"
       id="linearGradient4685"
       gradientUnits="userSpaceOnUse"
       x1="406.49393"
       y1="572.76764"
       x2="462.32776"
       y2="619.08148" />
    <linearGradient
       inkscape:collect="always"
       xlink:href="#linearGradient4198"
       id="linearGradient4687"
       gradientUnits="userSpaceOnUse"
       spreadMethod="reflect"
       x1="392.29388"
       y1="591.44611"
       x2="446.16159"
       y2="634.70148" />
    <linearGradient
       inkscape:collect="always"
       xlink:href="#linearGradient4104"
       id="linearGradient4689"
       gradientUnits="userSpaceOnUse"
       gradientTransform="translate(21.190773,-20.972311)"
       spreadMethod="reflect"
       x1="392.94931"
       y1="615.58606"
       x2="426.50006"
       y2="642.67529" />
    <linearGradient
       inkscape:collect="always"
       xlink:href="#linearGradient4150"
       id="linearGradient4691"
       gradientUnits="userSpaceOnUse"
       x1="406.49393"
       y1="572.76764"
       x2="462.32776"
       y2="619.08148" />
    <linearGradient
       inkscape:collect="always"
       xlink:href="#linearGradient4198"
       id="linearGradient4693"
       gradientUnits="userSpaceOnUse"
       spreadMethod="reflect"
       x1="392.29388"
       y1="591.44611"
       x2="446.16159"
       y2="634.70148" />
    <linearGradient
       inkscape:collect="always"
       xlink:href="#linearGradient4104"
       id="linearGradient4695"
       gradientUnits="userSpaceOnUse"
       gradientTransform="translate(21.190773,-20.972311)"
       spreadMethod="reflect"
       x1="392.94931"
       y1="615.58606"
       x2="426.50006"
       y2="642.67529" />
    <linearGradient
       inkscape:collect="always"
       xlink:href="#linearGradient4150"
       id="linearGradient4697"
       gradientUnits="userSpaceOnUse"
       x1="406.49393"
       y1="572.76764"
       x2="462.32776"
       y2="619.08148" />
    <linearGradient
       inkscape:collect="always"
       xlink:href="#linearGradient4198"
       id="linearGradient4699"
       gradientUnits="userSpaceOnUse"
       spreadMethod="reflect"
       x1="392.29388"
       y1="591.44611"
       x2="446.16159"
       y2="634.70148" />
    <linearGradient
       inkscape:collect="always"
       xlink:href="#linearGradient4104"
       id="linearGradient4701"
       gradientUnits="userSpaceOnUse"
       gradientTransform="translate(21.190773,-20.972311)"
       spreadMethod="reflect"
       x1="392.94931"
       y1="615.58606"
       x2="426.50006"
       y2="642.67529" />
    <linearGradient
       inkscape:collect="always"
       xlink:href="#linearGradient4150"
       id="linearGradient4703"
       gradientUnits="userSpaceOnUse"
       x1="406.49393"
       y1="572.76764"
       x2="462.32776"
       y2="619.08148" />
    <linearGradient
       inkscape:collect="always"
       xlink:href="#linearGradient4198"
       id="linearGradient4705"
       gradientUnits="userSpaceOnUse"
       spreadMethod="reflect"
       x1="392.29388"
       y1="591.44611"
       x2="446.16159"
       y2="634.70148" />
    <linearGradient
       inkscape:collect="always"
       xlink:href="#linearGradient4104"
       id="linearGradient4707"
       gradientUnits="userSpaceOnUse"
       gradientTransform="translate(21.190773,-20.972311)"
       spreadMethod="reflect"
       x1="392.94931"
       y1="615.58606"
       x2="426.50006"
       y2="642.67529" />
    <linearGradient
       inkscape:collect="always"
       xlink:href="#linearGradient4150"
       id="linearGradient4709"
       gradientUnits="userSpaceOnUse"
       x1="406.49393"
       y1="572.76764"
       x2="462.32776"
       y2="619.08148" />
    <linearGradient
       inkscape:collect="always"
       xlink:href="#linearGradient4198"
       id="linearGradient4711"
       gradientUnits="userSpaceOnUse"
       spreadMethod="reflect"
       x1="392.29388"
       y1="591.44611"
       x2="446.16159"
       y2="634.70148" />
    <linearGradient
       inkscape:collect="always"
       xlink:href="#linearGradient4104"
       id="linearGradient4713"
       gradientUnits="userSpaceOnUse"
       gradientTransform="translate(21.190773,-20.972311)"
       spreadMethod="reflect"
       x1="392.94931"
       y1="615.58606"
       x2="426.50006"
       y2="642.67529" />
    <linearGradient
       inkscape:collect="always"
       xlink:href="#linearGradient4150"
       id="linearGradient4715"
       gradientUnits="userSpaceOnUse"
       x1="406.49393"
       y1="572.76764"
       x2="462.32776"
       y2="619.08148" />
    <linearGradient
       inkscape:collect="always"
       xlink:href="#linearGradient4198"
       id="linearGradient4717"
       gradientUnits="userSpaceOnUse"
       spreadMethod="reflect"
       x1="392.29388"
       y1="591.44611"
       x2="446.16159"
       y2="634.70148" />
    <filter
       inkscape:collect="always"
       style="color-interpolation-filters:sRGB"
       id="filter4731"
       x="-0.023633834"
       width="1.0472677"
       y="-0.024377691"
       height="1.0487554">
      <feGaussianBlur
         inkscape:collect="always"
         stdDeviation="7.261093"
         id="feGaussianBlur4733" />
    </filter>
  </defs>
  <path
     style="fill:#000000;fill-opacity:0.73611103;stroke:none;filter:url(#filter4229)"
     d="m 61.589844,52.460938 c -8.814013,1.177798 -18.678497,1.547693 -26.013672,6.132812 -3.986253,2.389487 -7.219592,5.470045 -8.982422,9.902344 l -0.01172,1.287109 6.728516,-0.240234 0.923828,-2.021485 1.873047,0.541016 0.03125,-2.333984 2.023437,1.011718 0.615235,-2.136718 1.857422,1.287109 0.890625,-1.802734 1.421875,1.394531 1.822265,-1.703125 0.75,2.125 1.695313,-1.572266 0.820312,2.785157 1.666016,-1.171876 1.134766,1.800782 7.623046,-0.851563 c 2.948124,-0.194055 5.198024,0.584513 5.632813,3.892578 l -7.771485,0.660157 -0.527343,2.117187 -2.226563,-0.234375 -0.03516,2.095703 -2.076172,-0.568359 -0.324219,2.066406 -2.339843,-0.96875 -0.326172,1.984375 L 46.6875,76.701172 45.611328,78.470703 44.394531,76.880859 42.75,77.8125 l -1,-1.3125 -1.224609,0.132812 -1.201172,-1.179687 -7.294922,2.279297 0.669922,1.71875 c 9.25235,7.438037 21.749519,8.812427 31.978515,6.300781 l 0.78125,19.667967 c 0.819103,4.54504 3.736852,9.07576 8.191407,13.60156 l 38.751949,40.25 c 8.35021,13.55983 19.6965,25.59962 30.43164,37.95118 12.9151,10.75065 27.66666,21.1042 37.84571,33.23046 6.12282,2.24727 5.20248,-1.49293 5.00781,-4.61718 -8.19854,-15.60546 -22.75221,-24.28618 -35,-35.48438 l -33.63086,-40.89062 -20.062499,-23.04102 -5.140625,-11.1289 -4.78125,-33.289067 c 5.187884,1.631576 10.786926,4.65326 16.566404,8.287109 l 43.03516,24.013668 c 8.82008,5.81232 26.17128,9.13781 44.08398,22.79688 13.11579,10.00125 26.64037,28.25071 38.93555,31.96094 2.61597,1.13825 5.11039,1.48791 7.4043,0.53711 l 1.33203,-2.04297 c 0.82552,-2.67699 0.40549,-4.9301 -2.67774,-6.27539 -15.35225,-9.76858 -24.4897,-24.13407 -38.20703,-33.86133 -13.71733,-9.72726 -29.93298,-14.26606 -44.71094,-23.52735 L 89.810547,60.378906 C 83.226499,56.631742 78.139298,56.612477 74.189453,59.419922 L 63.478516,52.9375 61.589844,52.460938 Z m 18.230468,28.234374 c 0.01156,2.02e-4 0.02359,0.0017 0.03516,0.002 -0.168178,0.511578 -0.441231,1.03909 -0.861328,1.589843 1.212211,1.640546 3.015577,3.075925 0.599609,5.984375 1.66207,1.794361 2.449022,3.812548 0.537109,6.515625 2.644585,2.269115 1.521121,4.440477 0.652344,6.621095 1.551011,1.31692 2.378297,7.09788 -2.855469,7.86133 -5.523717,0.11249 -5.570774,-4.77456 -4.30664,-7.64648 -1.234144,-1.61329 -1.6813,-3.43299 -0.328125,-5.72657 -1.873039,-2.717081 -2.286445,-5.08516 -0.814453,-6.998046 -1.837482,-2.056516 -1.828225,-3.8418 -1.039063,-5.515626 1.320903,-0.630949 2.567852,-1.333796 3.710938,-2.109374 1.488774,-0.424081 3.047484,-0.606434 4.669921,-0.578126 z"
     id="path3977"
     inkscape:connector-curvature="0"
     transform="matrix(0.97808919,0.20818631,-0.20818631,0.97808919,7.553676,-25.998697)" />
  <g
     id="g4333"
     transform="translate(216.8687,-0.80937629)">
    <path
       sodipodi:nodetypes="cccccccccccccccccccsccccsccccc"
       inkscape:connector-curvature="0"
       id="path3755"
       d="m -193.02069,51.818399 7.60976,-0.711229 0.92761,1.40502 1.22727,0.124184 0.70483,1.492198 1.80216,-0.569235 0.85924,1.809556 1.41982,-1.507629 1.48028,1.581636 0.73268,-1.873402 2.08765,1.434622 0.74635,-1.954308 1.91329,0.989069 0.47001,-2.042616 2.1298,0.692789 0.95545,-1.960581 10.55264,1.325616 c 6.62247,-10.610775 14.48563,-14.096863 24.50889,-5.178545 l 52.583287,55.678716 c 12.526082,12.13493 27.442313,19.9494 38.834006,32.31929 11.391691,12.36989 17.337437,28.32322 30.319622,41.0739 2.7356019,1.9577 2.6786384,4.24829 1.3138872,6.69476 l -1.7293102,1.7215 c -2.441584,0.45241 -4.808457,-0.41004 -7.130136,-2.06797 -11.253368,-6.18862 -20.682607,-26.85238 -31.428894,-39.36502 -14.676586,-17.08897 -30.954916,-23.95529 -38.371698,-31.47647 L -125.59513,79.007213 c -8.9569,-8.702825 -17.75071,-15.30728 -25.98773,-14.748102 -11.86811,4.828947 -30.76008,2.113468 -41.14107,-10.620396 z"
       style="fill:#c30000;fill-opacity:1;stroke:#000000;stroke-width:0.17349705px;stroke-linecap:butt;stroke-linejoin:miter;stroke-opacity:1" />
    <path
       id="path3894"
       d="m -136.89921,49.65649 c -0.3604,-0.473797 -0.78465,-0.900763 -1.29865,-1.26537 l -15.02652,-14.110461 -1.74832,-0.859232 c -8.86609,-0.682965 -18.59142,-2.374929 -26.72043,0.582644 -4.39637,1.507248 -8.20002,3.848283 -10.84697,7.816469 l -0.27827,1.255501 6.63034,1.167131 1.32445,-1.786344 1.71856,0.920301 0.51693,-2.27663 1.76787,1.410763 1.04691,-1.961557 1.54926,1.645991 1.24647,-1.577901 1.09985,1.65947 2.13827,-1.287219 0.29117,2.234339 1.98488,-1.184832 0.22224,2.895337 1.87309,-0.799359 0.73542,1.998362 7.6334,0.753421 c 3.40838,0.494201 5.62384,2.074172 4.37885,6.805487 l -5.55333,32.332322 c -0.14506,4.615976 1.76681,9.655001 5.18155,15.009017 l 29.52365,47.43606 c 5.34428,15.00112 13.93563,29.13913 21.86414,43.45496 10.393973,13.20384 22.665899,26.40303 30.097394,40.38274 5.520817,3.47271 5.399267,-0.37708 5.859292,-3.47341 -4.770065,-16.97035 -17.198463,-28.49252 -26.846587,-41.99517 l -24.380379,-46.99459 -14.82532,-26.71291 -2.71149,-11.95544 3.21552,-47.879464 c -0.39211,-1.327255 -0.87035,-2.598072 -1.66324,-3.640426 z m -5.16953,4.20041 c 0.99877,1.410173 1.13246,3.304922 -0.98081,5.619799 0.67973,2.304461 1.37303,4.611119 -1.10813,6.741395 0.84411,1.856966 2.30835,3.635506 -0.66018,5.977258 1.25209,2.101065 1.60127,4.239052 -0.8315,6.48487 2.11424,2.769963 0.56332,4.66105 -0.7404,6.61302 1.24286,1.610965 0.8482,7.436642 -4.42983,7.093767 -5.42611,-1.039943 -4.45497,-5.828848 -2.62064,-8.374667 -0.87123,-1.834868 -0.9285,-3.707593 0.87252,-5.669206 -1.26634,-3.047489 -1.17735,-5.450789 0.66063,-7.015314 -1.62229,-2.836762 -0.80165,-4.766398 0.8143,-6.406124 -1.82735,-2.61069 -0.84704,-4.556241 1.02834,-6.292192 -1.867,-6.188031 1.89394,-7.396666 5.17389,-6.964138 1.0524,0.488544 2.13843,1.226677 2.82181,2.191532 z"
       style="fill:#c00000;fill-opacity:1;stroke:#a5a5a5;stroke-width:0.17349705px;stroke-linecap:butt;stroke-linejoin:miter;stroke-opacity:1"
       inkscape:connector-curvature="0"
       sodipodi:nodetypes="sccccccccccccccccccccccccccccccccccssccccccccccccs" />
    <path
       inkscape:connector-curvature="0"
       id="path3789"
       d="m -139.20797,50.350827 c -3.12961,-4.224517 -10.42467,-4.270431 -13.42699,0.145478 -1.76989,2.460803 -1.51012,5.683719 -2.14993,8.533862 -1.55392,10.161769 -3.22965,20.316888 -4.70908,30.482727 -0.20261,3.052403 2.05684,5.744228 4.78633,6.839769 3.33105,1.411243 7.57309,1.486425 10.53877,-0.839636 1.57759,-1.237985 2.1754,-3.264981 2.2212,-5.20334 1.36924,-11.757271 2.85383,-23.525301 4.15289,-35.275901 0.0546,-1.66438 -0.39907,-3.349359 -1.41319,-4.682959 z m -3.17542,3.674232 c 1.28079,1.630303 0.36402,3.884258 -0.96218,5.187476 -0.17017,0.727617 0.41039,1.589781 0.45302,2.399359 0.41328,1.695884 -0.34221,3.468602 -1.71652,4.479083 0.60658,1.381861 1.80314,3.044437 0.76439,4.518882 -0.38139,0.585947 -0.91487,1.033355 -1.45736,1.468387 1.0734,1.518807 1.57757,3.759105 0.27537,5.31885 -0.28626,0.627689 -1.54246,1.053115 -0.75828,1.703168 1.07446,1.295463 0.97469,3.180262 0.0226,4.514053 -0.25476,0.697127 -1.4229,1.38411 -0.80321,2.06106 1.08846,2.375637 -0.16333,5.930314 -3.00106,6.277646 -2.28186,0.422524 -5.06793,-1.181818 -5.01678,-3.697802 -0.0188,-1.545805 0.59897,-3.02011 1.50649,-4.24399 -1.06003,-1.729934 -0.75782,-4.072424 0.73089,-5.475403 0.24264,-0.563483 -0.4585,-1.300221 -0.49221,-1.965038 -0.57685,-1.796413 -0.31358,-4.061506 1.33344,-5.198611 -1.11913,-1.63157 -1.41974,-3.906744 -0.0412,-5.485342 0.27295,-0.514119 1.22012,-0.888675 0.54213,-1.436423 -1.04412,-1.373451 -0.97792,-3.385703 0.22607,-4.650889 0.35489,-0.600003 1.40553,-0.957299 0.87611,-1.760929 -0.55764,-1.891657 -0.70105,-4.643725 1.42288,-5.654053 1.58487,-0.687818 3.54033,-0.788779 4.89809,0.442814 0.44871,0.339869 0.86384,0.734016 1.19733,1.197702 z"
       style="fill:#000000;fill-opacity:1;stroke:none" />
    <g
       id="g3838"
       clip-path="url(#clipPath)"
       transform="matrix(0.10052355,0.14140808,-0.14140808,0.10052355,-197.2535,139.19789)"
       style="stroke:#292929;stroke-opacity:1">
      <g
         id="g3840"
         style="stroke:#292929;stroke-opacity:1">
        <path
           style="fill:none;stroke:#292929;stroke-width:10;stroke-opacity:1;filter:url(#filter)"
           d="m -374.27982,-349.81387 9.69819,0.33442 m 4.68189,-5.35072 9.36377,1.6721 m 3.3442,-10.36704 11.3703,2.00653 m -2.34095,-11.70472 12.37356,-1.6721 m -6.35399,-9.69819 13.71124,-5.01631 m -6.68841,-10.03261 11.03587,-5.68515 m -8.02609,-9.02936 10.36704,-7.69167 m 92.96888,-188.61312 437.16751,-61.0832 m 0,0 c 98.83794,-18.31961 185.36138,-62.2958 281.51478,-74.50169 m 0,0 c 96.1534,-12.20588 190.9541,13.1389 294.2078,-5.26709 m 0,0 c 18.3324,-6.31339 28.9028,1.60368 35.8381,16.18497 m 0,0 2.3121,13.87283"
           id="path3842"
           inkscape:connector-curvature="0"
           sodipodi:nodetypes="cccccccccccccccccccsccccsccccc" />
        <path
           style="fill:none;stroke:#292929;stroke-width:10;stroke-opacity:1;filter:url(#filter)"
           d="m -396.35157,-311.68994 22.07175,-38.12393 m 9.69819,0.33442 4.68189,-5.35072 m 9.36377,1.6721 3.3442,-10.36704 m 11.3703,2.00653 -2.34095,-11.70472 m 12.37356,-1.6721 -6.35399,-9.69819 m 13.71124,-5.01631 -6.68841,-10.03261 m 11.03587,-5.68515 -8.02609,-9.02936 m 10.36704,-7.69167 -6.01957,-11.03587 m 0,0 41.46813,-45.14676 m 0,0 c -27.73093,-66.54558 -17.84855,-115.1266 57.52032,-132.43049 M 832.26597,-721.45599 c -6.0284,12.98079 -17.9842,21.21959 -33.526,26.5896 m 0,0 c -66.6534,32.19852 -195.2157,7.48777 -289.8844,16.18496 m 0,0 c -129.2924,11.87807 -215.91041,65.41943 -276.01152,75.14451 m 0,0 -276.300567,65.89596 m 0,0 c -70.795433,13.01407 -131.188583,32.26951 -156.069373,72.83237 m 0,0 c -16.94855,71.87977 -92.79523,151.56114 -187.28323,157.80348"
           id="path3844"
           inkscape:connector-curvature="0"
           sodipodi:nodetypes="cccccccccccccccccccsccccsccccc" />
      </g>
    </g>
    <g
       transform="matrix(0.10052355,0.14140808,-0.14140808,0.10052355,-215.64974,19.963372)"
       style="stroke:#292929;stroke-opacity:1"
       clip-path="url(#clipPaths)"
       id="g3909">
      <g
         style="stroke:#292929;stroke-opacity:1"
         id="g3911">
        <path
           id="path3913"
           d="m 265.85456,-240.10222 c -32.81686,39.36992 -73.24316,79.40672 -86.4962,127.47167 m 0,0 c -7.60107,25.68653 -9.30582,51.37305 0.4962,77.05958 m 0,0 4.96875,5.5 m 0,0 27.625,-27.25 m -3.96875,-12.1875 10.0625,-5 m -8.96875,-10.03125 12.53125,-3.59375 m -5.71875,-11.46875 12.90625,-1.78125 m -3.25,-11.125 11.46875,0.375 m 1.09375,-14.34375 11.46875,6.09375 m 1.0625,-13.28125 14.34375,8.625 m 2.5,-11.46875 11.84375,3.21875 m 29.03125,-33.34375 c 13.704,-14.36137 28.52487,-19.4927 46.59375,2.15625 m 0,0 133.34375,134.0625 m 0,0 c 21.20028,16.09658 51.25707,23.94302 87.8125,25.78125 m 0,0 321.4375,19.71875 m 0,0 c 88.31883,24.99038 183.42664,31.84443 277.15624,42.40625 m 0,0 c 96.7392,-4.73387 199.728,-18.30541 290.2188,-6.53125 M 404.94831,-232.47722 c 9.96007,0.0173 19.30757,5.71683 23.125,23.375 m 0,0 c 13.09573,4.50261 26.24714,8.94876 27.96875,27.71875 m 0,0 c 11.54249,2.23594 24.78749,1.29676 25.875,23.0625 m 0,0 c 14.05166,1.13453 25.26147,6.63403 27.6875,25.5625 m 0,0 c 20.07314,-0.68184 23.77766,12.91933 28.59375,25.5625 m 0,0 c 11.71847,-0.45881 37.76806,20.85017 18.53125,44.5 m -171.5,-163.84375 c 5.80955,-3.31239 12.90396,-5.94932 19.71875,-5.9375"
           style="fill:none;stroke:#292929;stroke-width:10;stroke-opacity:1;filter:url(#filterJ)"
           inkscape:connector-curvature="0"
           sodipodi:nodetypes="sccccccccccccccccccccccccccccccccccssccccccccccccs" />
        <path
           id="path3915"
           d="m 402.47956,-270.78972 c -3.42935,0.11083 -6.85189,0.67795 -10.28125,1.875 m 0,0 -116.46875,23.46875 m 0,0 -9.875,5.34375 m -53.40625,182.78125 -3.96875,-12.1875 m 10.0625,-5 -8.96875,-10.03125 m 12.53125,-3.59375 -5.71875,-11.46875 m 12.90625,-1.78125 -3.25,-11.125 m 11.46875,0.375 1.09375,-14.34375 m 11.46875,6.09375 1.0625,-13.28125 m 14.34375,8.625 2.5,-11.46875 m 11.84375,3.21875 29.03125,-33.34375 M 1465.4171,50.96028 c 34.7508,-14.33824 16.2595,-26.62369 3.25,-39.125 m 0,0 c -95.6522,-34.26419 -191.2853,-14.35713 -286.9375,-14.125 m 0,0 -302.18754,-42.40625 m 0,0 -175,-19.5625 m 0,0 -65.21875,-27.1875 m 0,0 -214.1875,-175 m 0,0 c -7.54458,-2.59034 -15.11167,-4.58758 -22.65625,-4.34375 m 154.25,208.09375 c -23.00596,22.01759 -42.2599,1.46278 -48.09375,-15.65625 m 0,0 c -11.52927,-2.03471 -20.51811,-8.01968 -23.71875,-23.03125 m 0,0 c -18.54531,-4.22819 -29.5382,-12.67214 -30.75,-26.53125 m 0,0 c -18.74408,-1.85228 -25.06846,-12.15153 -27.375,-25.21875 m 0,0 c -18.36684,-0.134 -24.23279,-11.23646 -26.125,-25.84375 m 0,0 c -35.3047,-11.89434 -28.42286,-33.59854 -15.4375,-47.5625"
           style="fill:none;stroke:#292929;stroke-width:10;stroke-opacity:1;filter:url(#filterJ)"
           inkscape:connector-curvature="0"
           sodipodi:nodetypes="sccccccccccccccccccccccccccccccccccssccccccccccccs" />
      </g>
    </g>
    <path
       inkscape:connector-curvature="0"
       id="path3761"
       d="m -139.40169,50.67231 c -3.37205,-4.723876 -12.43723,-4.38676 -14.1596,2.755034 l -5.53527,35.492542 c -1.13836,9.344771 16.41366,11.284514 16.71707,2.059089 l 4.18453,-35.184243 c 0.23435,-2.077414 -0.26255,-3.799737 -1.20673,-5.122422 z m -2.70531,3.147128 c 0.99878,1.410173 1.13246,3.304922 -0.9808,5.6198 0.67972,2.30446 1.37303,4.611118 -1.10814,6.741394 0.84411,1.856966 2.30835,3.635506 -0.66018,5.977259 1.25209,2.101065 1.60127,4.239052 -0.8315,6.484869 2.11425,2.769963 0.56332,4.66105 -0.74039,6.613021 1.24286,1.610965 0.84377,7.439783 -4.43426,7.096907 -5.4261,-1.039942 -4.45496,-5.828847 -2.62063,-8.374666 -0.87124,-1.834869 -0.92409,-3.710735 0.87693,-5.672348 -1.26634,-3.047489 -1.18176,-5.447647 0.65622,-7.012172 -1.6223,-2.836762 -0.79723,-4.769539 0.81872,-6.409266 -1.82735,-2.61069 -0.85018,-4.56066 1.02519,-6.296611 -1.86699,-6.188031 1.89266,-7.389106 5.17262,-6.956578 1.05239,0.488544 2.14285,1.223536 2.82622,2.188391 z"
       style="fill:#c5c5c5;fill-opacity:1;stroke:#000000;stroke-width:0.17349705px;stroke-linecap:butt;stroke-linejoin:miter;stroke-opacity:1" />
    <path
       id="path3783"
       d="m -164.00861,42.164559 c -0.62272,-2.129358 -5.6358,-6.720815 -11.66708,-7.138511 -4.63645,-0.321099 -13.44254,2.275435 -16.08949,6.243621 l -0.27826,1.255501 6.63033,1.167131 1.32446,-1.786344 1.71856,0.920301 0.51692,-2.276631 1.76788,1.410764 1.0469,-1.961556 1.54927,1.64599 1.24646,-1.577901 1.09985,1.65947 2.13827,-1.287219 0.29117,2.234339 1.98489,-1.184832 0.22224,2.895338 1.87308,-0.79936 0.73542,1.998363 3.57884,0.257919 c -0.06,-1.734502 -0.0219,-2.208625 0.31029,-3.676383 z"
       style="fill:#000000;fill-opacity:1;stroke:none"
       inkscape:connector-curvature="0"
       sodipodi:nodetypes="csccccccccccccccccccc" />
    <path
       sodipodi:nodetypes="csccccccccccccccccccc"
       inkscape:connector-curvature="0"
       style="fill:#c8c8c8;fill-opacity:1;stroke:#444444;stroke-width:0.17349705px;stroke-linecap:butt;stroke-linejoin:miter;stroke-opacity:1"
       d="m -164.62426,42.79573 c -0.62273,-2.129359 -5.63581,-6.720816 -11.66708,-7.138512 -4.63646,-0.321099 -13.44254,2.275435 -16.08949,6.243621 l -0.27827,1.255501 6.63033,1.167131 1.32446,-1.786344 1.71856,0.920301 0.51693,-2.27663 1.76787,1.410763 1.0469,-1.961556 1.54927,1.64599 1.24646,-1.5779 1.09985,1.65947 2.13827,-1.28722 0.29118,2.23434 1.98488,-1.184833 0.22224,2.895338 1.87308,-0.799359 0.73542,1.998362 3.57884,0.257919 c -0.06,-1.734502 -0.0218,-2.208624 0.3103,-3.676382 z"
       id="path3773" />
    <path
       sodipodi:nodetypes="cccccccccccccccccscc"
       inkscape:connector-curvature="0"
       id="path3785"
       d="m -192.75162,52.299842 7.60976,-0.711229 0.92761,1.405019 1.22728,0.124184 0.70483,1.492198 1.80215,-0.569234 0.85924,1.809555 1.41983,-1.507629 1.48028,1.581636 0.73268,-1.873402 2.08765,1.434623 0.74634,-1.954309 1.9133,0.98907 0.47001,-2.042616 2.12979,0.692789 0.95546,-1.960581 2.76682,0.18502 c -0.19427,6.047604 -2.16733,10.083238 -11.24168,9.49982 -7.73139,-0.497075 -12.68029,-3.95106 -16.29458,-6.774599 z"
       style="fill:#000000;fill-opacity:1;stroke:none" />
    <path
       style="fill:#c3c3c3;fill-opacity:1;stroke:#292929;stroke-width:0.17349705px;stroke-linecap:butt;stroke-linejoin:miter;stroke-opacity:1"
       d="m -193.13574,51.895599 7.60976,-0.711229 0.92761,1.40502 1.22727,0.124184 0.70483,1.492198 1.80216,-0.569235 0.85924,1.809556 1.41982,-1.507629 1.48028,1.581636 0.73268,-1.873403 2.08765,1.434623 0.74635,-1.954308 1.91329,0.989069 0.47001,-2.042615 2.1298,0.692789 0.95545,-1.960581 2.76682,0.18502 c -0.19426,6.047604 -2.16732,10.083238 -11.24167,9.499819 -7.7314,-0.497075 -12.68029,-3.951059 -16.29458,-6.774598 z"
       id="path3779"
       inkscape:connector-curvature="0"
       sodipodi:nodetypes="cccccccccccccccccscc" />
    <ellipse
       ry="4.1238837"
       rx="4.0460744"
       cy="151.51146"
       cx="-39.062359"
       transform="matrix(0.57939628,0.81504598,-0.81504598,0.57939628,0,0)"
       id="path3781"
       style="fill:#bababa;fill-opacity:1;stroke:#292929;stroke-width:0.52049118;stroke-linecap:round;stroke-linejoin:round;stroke-miterlimit:4;stroke-dasharray:none;stroke-opacity:1" />
    <path
       sodipodi:nodetypes="ccccc"
       inkscape:connector-curvature="0"
       id="rect3793"
       d="m -122.36104,62.059656 29.792121,30.338426 -8.050851,5.57895 -30.11376,-26.799569 z"
       style="fill:#343434;fill-opacity:1;stroke:url(#linearGradient4098);stroke-width:0.52049118;stroke-miterlimit:4" />
    <rect
       style="fill:#343434;fill-opacity:1;stroke:url(#linearGradient4100);stroke-width:0.52049118;stroke-miterlimit:4;stroke-dasharray:none"
       id="rect3803"
       width="32.156734"
       height="6.1738391"
       x="32.10778"
       y="175.9711"
       transform="matrix(0.49094429,0.87119097,-0.87119097,0.49094429,0,0)" />
  </g>
  <g
     id="g4625"
     transform="translate(2.1035496,4.123312)">
    <path
       transform="matrix(0.2991432,0.03158076,-0.03158076,0.2991432,-20.987623,189.44313)"
       inkscape:connector-curvature="0"
       id="path4424"
       d="m 527.38577,-609.69935 c -33.7208,0.23347 -69.7314,6.25429 -99.0937,21.03125 l 0.3124,3.9375 c 52.6936,-7.39391 109.3895,-20.53159 158.8438,23.78125 0.8078,0.72383 1.6127,1.47113 2.375,2.1875 0.0105,0.01 0.0208,0.0213 0.0312,0.0313 1.3267,1.26307 2.5801,2.56584 3.8126,3.875 7.0956,8.45351 13.0332,18.58541 17.4687,30.65625 3.6605,15.97258 -0.3093,33.53925 -15.75,51.6875 -2.5571,3.00557 -6.1322,7.38343 -1.1563,11.71875 l -139.0312,181.4375 -9.2188,-7.1875 c -4.4163,-1.6346 -8.8338,-1.06166 -13.25,1.71875 -32.1132,20.1095 -47.702,44.46301 -64.9062,68.40625 l -25.1562,47.1875 -2.4376,1.09375 -8.5312,10.65625 0.5312,3.03125 -6.4687,8.96875 -3,0.59375 -8.6875,10.15625 0.2188,2.6875 -6.9063,8.875 -2.625,1.3438 -6.9375,8.0937 -0.5312,3.9375 -6.1563,8.625 -3.6563,1 -6.1562,7.4062 -0.625,4 -7.3438,8.9688 -2.3124,1.5938 -6.25,7.5312 -0.75,4.6562 -5.5313,5.6563 -1.8437,1.4375 -7.4376,9.9375 -0.8437,4.25 -5.2813,7.0625 -3.6874,1 -8.0938,9.3438 -0.0312,4.5937 -6,7.3125 -3.75,1.5625 -7.2188,8.875 0.0625,3.4063 c -24.3249,16.1262 -49.71499,36.6513 -71.87499,58.4062 -5.7363,7.729 -4.90644,14.0179 -2.78125,20 19.08265,22.3193 39.35995,44.2311 74.06254,61.34375 9.8865,4.3446 18.1851,0.048 25.875,-7.4688 16.4275,-27.11515 25.8008,-55.38315 37.3437,-83.31245 l 4.5937,-2.3437 5.5,-7.3126 1.4063,-4.1562 3.4375,-9.1875 4.125,-0.0313 8.1875,-8.5312 0.3437,-4.0938 6.4063,-8.5312 2.7813,-1.2188 7.625,-10.25 1,-4.125 6,-6.25 3.375,-1.875 5.0624,-6.0937 0.7188,-3.625 5.9688,-8.5937 2.9374,-1.6563 6.7813,-8.125 0.9063,-4.1875 4.875,-6.8125 4.375,-2.5 6.6874,-8.5313 0,-3.8124 6.5938,-7.75 2.5625,-0.9063 8.5313,-10.8437 0.4687,-3.5938 3.2187,-5.8125 3,-1.25 9.6876,-10.9687 0.4374,-3.7188 c 33.7818,-28.25665 66.7172,-59.16186 91.375,-116.09375 0.9359,-5.3095 -0.4112,-10.04044 -3,-14.46875 l -8,-6.25 139.1876,-181.09375 -3.0313,-2.53125 0.125,-0.15625 1.5625,1.21875 c 0.888,0.74783 1.8675,1.44987 3.4062,1.53125 0.0105,6.9e-4 0.0208,-6.4e-4 0.0313,0 0.3335,0.0158 0.7032,0.0181 1.0937,-0.0313 0.3452,-0.0436 0.7284,-0.1467 1.125,-0.25 0.0597,-0.0155 0.1267,-0.0143 0.1876,-0.0313 0.2265,-0.0628 0.4738,-0.1345 0.7187,-0.21875 0.5123,-0.17883 1.0891,-0.40698 1.6875,-0.6875 0.8786,-0.41183 1.7514,-0.81405 2.625,-1.21875 l 71.8438,7.4375 5.4062,4.15625 0,19.09375 -0.5938,12.90625 c 0.1986,-0.22863 0.3953,-0.45888 0.5938,-0.6875 l 0,0.375 46.0312,32.03125 1.8438,0 66.1562,-83.25 -1.2187,-4.875 -43.5937,-32.9375 -1.1876,0.34375 c 0.1839,-0.31517 0.3802,-0.62185 0.5626,-0.9375 l -22.6876,7.375 -5.9687,1.75 -27.75,-21.625 c -6.1065,-2.43112 -7.1428,-9.91349 -9.4375,-16.15625 -0.6592,-11.07036 -7.923,-12.88321 -12.1875,-18.90625 l -74.4063,-54.90625 c -16.7843,-12.38192 -56.3634,-21.61267 -99.7187,-21.3125 z"
       style="fill:#000000;fill-opacity:0.7962963;stroke:#444444;stroke-width:1px;stroke-linecap:butt;stroke-linejoin:miter;stroke-opacity:1;filter:url(#filter4731)" />
    <g
       transform="matrix(0.2991432,0.03158076,-0.03158076,0.2991432,-173.53179,-60.006572)"
       id="g4372">
      <path
         style="fill:url(#linearGradient4057);fill-opacity:1;stroke:#444444;stroke-width:1px;stroke-linecap:butt;stroke-linejoin:miter;stroke-opacity:1"
         d="m 1017.9527,150.00704 0.3049,3.96387 c 52.6935,-7.39391 109.4053,-20.52965 158.8596,23.78319 25.8499,23.16242 36.5324,54.80404 7.9277,88.4247 -2.6498,3.1145 -6.4237,7.7097 -0.6098,12.19651 l 28.052,21.6488 c 1.6339,1.261 3.4453,2.54905 8.2326,0.30492 13.3095,-6.23902 26.0192,-11.75242 39.0288,-13.72108 4.4171,0.17944 9.0393,0.70059 15.8555,4.87861 l 25.0028,19.2095 0,31.71093 46.0419,32.01583 1.8294,0 66.1661,-83.24118 -1.2196,-4.8786 -43.6026,-32.93058 -29.2716,8.53756 -27.747,-21.6488 c -6.1065,-2.43112 -7.1576,-9.91762 -9.4523,-16.16038 -0.6592,-11.07036 -7.9321,-12.88155 -12.1966,-18.90459 l -74.3987,-54.88429 c -29.8389,-22.01231 -131.6891,-34.08082 -198.8031,-0.30492 z"
         id="path2987"
         inkscape:connector-curvature="0"
         sodipodi:nodetypes="ccssssscccccccccccccsc" />
      <path
         sodipodi:nodetypes="cccscsscccccccccc"
         inkscape:connector-curvature="0"
         id="path3757-3"
         d="m 1017.9527,150.00704 0.3049,3.96387 c 52.6935,-7.39391 109.4053,-20.52965 158.8596,23.78319 25.8499,23.16242 27.9936,42.43101 33.8453,62.81203 4.9296,17.16967 -12.7534,43.33633 -15.8555,44.82217 l 17.3801,14.63581 c 1.5787,1.32948 3.4453,2.54905 8.2326,0.30492 13.3095,-6.23902 26.0192,-11.75242 39.0288,-13.72108 4.4171,0.17944 9.0393,0.70059 15.8555,4.87861 l 21.6488,16.46529 c 12.2256,-7.22373 16.4101,-13.46341 21.039,-22.56355 l -22.8685,-19.81933 0.9148,-24.0881 c -6.1065,-2.43112 -65.091,19.65892 -67.3858,13.41616 -0.6592,-11.07036 -1.224,-24.77315 -5.4884,-30.79619 -7.1896,-18.47841 -10.9516,-37.33767 -32.0158,-54.27446 -29.8468,-28.8585 -96.0144,-42.61838 -173.4954,-19.81934 z"
         style="fill:url(#linearGradient4054);fill-opacity:1;stroke:none;filter:url(#filter3873)" />
      <path
         style="fill:#ffffff;fill-opacity:0.95850621;stroke:none;filter:url(#filter3769)"
         d="m 1221.0246,208.8552 c 2.9079,10.89759 16.9016,6.46269 10.672,-4.57369 -35.2205,-54.13272 -89.6195,-65.27915 -148.1876,-67.0808 64.0616,3.94253 116.3418,20.77803 137.5156,71.65449 z"
         id="path3759"
         inkscape:connector-curvature="0"
         sodipodi:nodetypes="cccc" />
      <path
         sodipodi:nodetypes="cccc"
         inkscape:connector-curvature="0"
         id="path3773-5"
         d="m 1278.0433,213.12398 c 2.9079,10.89759 16.9016,6.46269 10.6719,-4.57369 -37.665,-42.97947 -104.6501,-72.49719 -162.5185,-77.44783 61.605,10.49374 116.6643,43.09175 151.8466,82.02152 z"
         style="fill:#ffffff;fill-opacity:0.95850621;stroke:none;filter:url(#filter3769)" />
      <ellipse
         style="fill:#ffffff;fill-opacity:0.95850621;stroke:none;filter:url(#filter3829)"
         id="path3783-6"
         transform="matrix(0.94872103,0.31611455,-0.31611455,0.94872103,665.56555,-215.50834)"
         cx="680.26031"
         cy="248.75935"
         rx="7.3179059"
         ry="19.057047" />
      <path
         style="fill:#363636;fill-opacity:0.95850621;stroke:#000000;stroke-width:0.30000001;stroke-linecap:butt;stroke-linejoin:miter;stroke-miterlimit:4;stroke-dasharray:none;stroke-opacity:1"
         d="m 1018.2576,153.05617 c 58.4804,-13.60264 157.5476,-18.93722 184.4723,67.08081 l 3.354,-11.58669 c -44.7448,-78.08221 -114.9479,-68.65154 -185.082,-59.45798 z"
         id="path3833"
         inkscape:connector-curvature="0"
         sodipodi:nodetypes="ccccc" />
      <path
         style="fill:#fcfcfc;fill-opacity:0.95850621;stroke:none;filter:url(#filter3869)"
         d="m 1307.9247,245.13982 28.6618,21.03898 c -0.048,4.72705 -3.957,8.16717 -8.8424,11.28177 l -25.9176,-19.81933 c -11.6726,-8.87187 -4.8154,-18.11512 6.0982,-12.50142 z"
         id="path3835"
         inkscape:connector-curvature="0"
         sodipodi:nodetypes="ccccc" />
      <path
         sodipodi:nodetypes="ccccc"
         inkscape:connector-curvature="0"
         id="path3877"
         d="m 1372.5662,272.88688 34.4552,23.17337 c 0.7469,2.34192 -10.139,15.7363 -15.8555,21.34389 l -35.3699,-29.27163 c -11.6725,-8.87187 5.8566,-20.85933 16.7702,-15.24563 z"
         style="fill:#fcfcfc;fill-opacity:0.95850621;stroke:none;filter:url(#filter3869)" />
      <path
         style="fill:url(#linearGradient4045);fill-opacity:1;stroke:none;filter:url(#filter3915)"
         d="m 1310.364,332.34486 42.078,34.45514 27.7471,-35.67479 -43.9075,-30.79619 z"
         id="path3879"
         inkscape:connector-curvature="0"
         sodipodi:nodetypes="ccccc" />
      <path
         style="fill:url(#linearGradient4042);fill-opacity:1;stroke:#3e3e3e;stroke-width:1px;stroke-linecap:butt;stroke-linejoin:miter;stroke-opacity:1"
         d="m 1301.5216,310.08623 c 17.2831,-14.02364 28.7569,-30.9519 39.6386,-48.17621 l 28.052,-9.14738 c -18.2493,31.59055 -43.8461,60.73195 -69.2152,89.94926 z"
         id="path3889"
         inkscape:connector-curvature="0"
         sodipodi:nodetypes="ccccc" />
      <path
         style="fill:url(#linearGradient4031);fill-opacity:1;stroke:#000000;stroke-width:1px;stroke-linecap:butt;stroke-linejoin:miter;stroke-opacity:1"
         d="m 1184.5573,277.03135 29.2553,24.46808 -143.0851,186.17021 -30.1888,-22.72067 z"
         id="path3943"
         inkscape:connector-curvature="0"
         sodipodi:nodetypes="ccccc" />
      <path
         style="fill:url(#linearGradient4028);fill-opacity:1;stroke:none;filter:url(#filter3959)"
         d="m 1189.351,282.44022 7.6305,4.41767 -144.1767,187.14859 -5.6225,-4.41767 z"
         id="path3953"
         inkscape:connector-curvature="0" />
      <path
         inkscape:connector-curvature="0"
         id="path3963"
         d="m 1201.8008,290.87396 9.6385,7.22891 -144.1767,187.14859 -8.0321,-9.23695 z"
         style="fill:#eeeeee;fill-opacity:1;stroke:none;filter:url(#filter3959)"
         sodipodi:nodetypes="ccccc" />
      <path
         style="fill:none;stroke:#dddddd;stroke-width:4;stroke-linecap:round;stroke-linejoin:round;stroke-miterlimit:4;stroke-dasharray:none;stroke-opacity:0.32780086;filter:url(#filter3912)"
         d="m 1218.8585,298.64132 c 10.7244,-4.97919 20.748,-9.72418 32.0805,-12.87892 12.6737,-4.22339 18.6728,-2.70676 24.0397,1.31125 l 26.2252,20.10594"
         id="path4059"
         inkscape:connector-curvature="0"
         sodipodi:nodetypes="cccc" />
      <g
         id="g4337"
         transform="translate(551.72414,-20.689655)">
        <path
           sodipodi:nodetypes="cccccccccccccccccccccccccccccccccccccccccccccccccccccccccccccccccccccccccc"
           inkscape:connector-curvature="0"
           id="path4100"
           d="m 483.90805,472.85057 46.99893,36.67314 c 2.58884,4.42831 3.93701,9.16679 3.00107,14.47629 -24.65786,56.93189 -57.59752,87.83526 -91.37931,116.09195 l -0.42819,3.70138 -9.69209,10.98806 -3.01058,1.24647 -3.2142,5.80612 -0.46814,3.58529 -8.53315,10.87007 -2.54244,0.90584 -6.59397,7.72436 0,3.82888 -6.71197,8.52363 -4.37313,2.49297 -4.85081,6.81853 -0.90583,4.17903 -6.80902,8.13351 -2.92304,1.65563 -5.9812,8.61118 -0.6908,3.61383 -5.08488,6.07826 -3.36073,1.89921 -6.00974,6.23431 -0.99338,4.14097 -7.62731,10.22684 -2.767,1.23696 -6.4284,8.53316 -0.34065,4.08198 -8.19251,8.54267 -4.11052,0.019 -3.44828,9.19541 -1.39301,4.16 -5.50354,7.31522 -4.5977,2.31788 c -11.54297,27.9293 -20.92878,56.21812 -37.35632,83.33333 -7.68984,7.51702 -15.97563,11.81592 -25.86207,7.47127 -34.70258,-17.11271 -54.9677,-39.0379 -74.0504,-61.35724 -2.12519,-5.98201 -2.95978,-12.25082 2.77652,-19.97982 22.16002,-21.75493 47.53321,-42.30794 71.85811,-58.4342 l -0.059,-3.4007 7.21817,-8.87379 3.76037,-1.56809 5.9907,-7.29619 0.0286,-4.58818 8.09545,-9.35145 3.69186,-1.01241 5.26947,-7.06211 0.85636,-4.24755 7.44272,-9.94519 1.85164,-1.41204 5.52257,-5.67862 0.75931,-4.64718 6.22478,-7.53977 2.33882,-1.59664 7.32472,-8.96133 0.6223,-3.99445 6.15627,-7.39324 3.67284,-1.00288 6.13724,-8.62069 0.52523,-3.93545 6.96506,-8.11449 2.61095,-1.32451 6.89655,-8.8833 -0.21504,-2.708 8.6892,-10.14121 3.00107,-0.59374 6.4874,-8.96133 -0.55569,-3.02961 8.54267,-10.66644 2.44538,-1.09043 25.14083,-47.18543 c 17.2042,-23.94324 32.7989,-48.30034 64.91208,-68.40984 4.41628,-2.78041 8.83256,-3.33971 13.24884,-1.70511 z"
           style="fill:url(#linearGradient4335);fill-opacity:1;stroke:#272727;stroke-width:0.40000001;stroke-linecap:butt;stroke-linejoin:miter;stroke-miterlimit:4;stroke-dasharray:none;stroke-opacity:1" />
        <g
           transform="translate(-20.734066,22.25863)"
           id="g4220">
          <path
             style="fill:url(#linearGradient4677);fill-opacity:1;stroke:none;filter:url(#filter4192)"
             d="m 393.44929,585.76608 58.11078,46.96924 9.17539,-11.14154 -58.5477,-47.62462 z"
             id="path4102"
             inkscape:connector-curvature="0" />
          <path
             style="fill:none;stroke:url(#linearGradient4679);stroke-width:1px;stroke-linecap:butt;stroke-linejoin:miter;stroke-opacity:1;filter:url(#filter4172)"
             d="M 404.37237,574.843 460.517,620.50147"
             id="path4132"
             inkscape:connector-curvature="0"
             sodipodi:nodetypes="cc" />
          <path
             style="fill:url(#linearGradient4681);fill-opacity:1;stroke:none;filter:url(#filter4216)"
             d="m 448.72007,629.23993 -1.0923,1.96616 c -19.28367,-12.90301 -37.05568,-27.31766 -54.6154,-41.94462 l 2.18462,-2.18462 c 16.72168,13.66013 34.33479,28.34436 53.52308,42.16308 z"
             id="path4196"
             inkscape:connector-curvature="0"
             sodipodi:nodetypes="ccccc" />
        </g>
        <g
           id="g4231"
           transform="translate(-41.773045,44.212347)">
          <path
             inkscape:connector-curvature="0"
             id="path4233"
             d="m 393.44929,585.76608 58.11078,46.96924 9.17539,-11.14154 -58.5477,-47.62462 z"
             style="fill:url(#linearGradient4683);fill-opacity:1;stroke:none;filter:url(#filter4192)" />
          <path
             sodipodi:nodetypes="cc"
             inkscape:connector-curvature="0"
             id="path4235"
             d="M 404.37237,574.843 460.517,620.50147"
             style="fill:none;stroke:url(#linearGradient4685);stroke-width:1px;stroke-linecap:butt;stroke-linejoin:miter;stroke-opacity:1;filter:url(#filter4172)" />
          <path
             sodipodi:nodetypes="ccccc"
             inkscape:connector-curvature="0"
             id="path4237"
             d="m 448.72007,629.23993 -1.0923,1.96616 c -19.28367,-12.90301 -37.05568,-27.31766 -54.6154,-41.94462 l 2.18462,-2.18462 c 16.72168,13.66013 34.33479,28.34436 53.52308,42.16308 z"
             style="fill:url(#linearGradient4687);fill-opacity:1;stroke:none;filter:url(#filter4216)" />
        </g>
        <g
           transform="translate(-57.018682,66.77589)"
           id="g4245">
          <path
             style="fill:url(#linearGradient4689);fill-opacity:1;stroke:none;filter:url(#filter4192)"
             d="m 393.44929,585.76608 58.11078,46.96924 9.17539,-11.14154 -58.5477,-47.62462 z"
             id="path4247"
             inkscape:connector-curvature="0" />
          <path
             style="fill:none;stroke:url(#linearGradient4691);stroke-width:1px;stroke-linecap:butt;stroke-linejoin:miter;stroke-opacity:1;filter:url(#filter4172)"
             d="M 404.37237,574.843 460.517,620.50147"
             id="path4249"
             inkscape:connector-curvature="0"
             sodipodi:nodetypes="cc" />
          <path
             style="fill:url(#linearGradient4693);fill-opacity:1;stroke:none;filter:url(#filter4216)"
             d="m 448.72007,629.23993 -1.0923,1.96616 c -19.28367,-12.90301 -37.05568,-27.31766 -54.6154,-41.94462 l 2.18462,-2.18462 c 16.72168,13.66013 34.33479,28.34436 53.52308,42.16308 z"
             id="path4251"
             inkscape:connector-curvature="0"
             sodipodi:nodetypes="ccccc" />
        </g>
        <g
           id="g4259"
           transform="translate(-74.703621,91.168909)">
          <path
             inkscape:connector-curvature="0"
             id="path4261"
             d="m 393.44929,585.76608 58.11078,46.96924 9.17539,-11.14154 -58.5477,-47.62462 z"
             style="fill:url(#linearGradient4695);fill-opacity:1;stroke:none;filter:url(#filter4192)" />
          <path
             sodipodi:nodetypes="cc"
             inkscape:connector-curvature="0"
             id="path4263"
             d="M 404.37237,574.843 460.517,620.50147"
             style="fill:none;stroke:url(#linearGradient4697);stroke-width:1px;stroke-linecap:butt;stroke-linejoin:miter;stroke-opacity:1;filter:url(#filter4172)" />
          <path
             sodipodi:nodetypes="ccccc"
             inkscape:connector-curvature="0"
             id="path4265"
             d="m 448.72007,629.23993 -1.0923,1.96616 c -19.28367,-12.90301 -37.05568,-27.31766 -54.6154,-41.94462 l 2.18462,-2.18462 c 16.72168,13.66013 34.33479,28.34436 53.52308,42.16308 z"
             style="fill:url(#linearGradient4699);fill-opacity:1;stroke:none;filter:url(#filter4216)" />
        </g>
        <g
           transform="translate(-93.303298,111.29315)"
           id="g4273">
          <path
             style="fill:url(#linearGradient4701);fill-opacity:1;stroke:none;filter:url(#filter4192)"
             d="m 393.44929,585.76608 58.11078,46.96924 9.17539,-11.14154 -58.5477,-47.62462 z"
             id="path4275"
             inkscape:connector-curvature="0" />
          <path
             style="fill:none;stroke:url(#linearGradient4703);stroke-width:1px;stroke-linecap:butt;stroke-linejoin:miter;stroke-opacity:1;filter:url(#filter4172)"
             d="M 404.37237,574.843 460.517,620.50147"
             id="path4277"
             inkscape:connector-curvature="0"
             sodipodi:nodetypes="cc" />
          <path
             style="fill:url(#linearGradient4705);fill-opacity:1;stroke:none;filter:url(#filter4216)"
             d="m 448.72007,629.23993 -1.0923,1.96616 c -19.28367,-12.90301 -37.05568,-27.31766 -54.6154,-41.94462 l 2.18462,-2.18462 c 16.72168,13.66013 34.33479,28.34436 53.52308,42.16308 z"
             id="path4279"
             inkscape:connector-curvature="0"
             sodipodi:nodetypes="ccccc" />
        </g>
        <g
           id="g4287"
           transform="translate(-107.93911,132.02722)">
          <path
             inkscape:connector-curvature="0"
             id="path4289"
             d="m 393.44929,585.76608 58.11078,46.96924 9.17539,-11.14154 -58.5477,-47.62462 z"
             style="fill:url(#linearGradient4707);fill-opacity:1;stroke:none;filter:url(#filter4192)" />
          <path
             sodipodi:nodetypes="cc"
             inkscape:connector-curvature="0"
             id="path4291"
             d="M 404.37237,574.843 460.517,620.50147"
             style="fill:none;stroke:url(#linearGradient4709);stroke-width:1px;stroke-linecap:butt;stroke-linejoin:miter;stroke-opacity:1;filter:url(#filter4172)" />
          <path
             sodipodi:nodetypes="ccccc"
             inkscape:connector-curvature="0"
             id="path4293"
             d="m 448.72007,629.23993 -1.0923,1.96616 c -19.28367,-12.90301 -37.05568,-27.31766 -54.6154,-41.94462 l 2.18462,-2.18462 c 16.72168,13.66013 34.33479,28.34436 53.52308,42.16308 z"
             style="fill:url(#linearGradient4711);fill-opacity:1;stroke:none;filter:url(#filter4216)" />
        </g>
        <g
           transform="translate(-122.87983,153.0662)"
           id="g4301">
          <path
             style="fill:url(#linearGradient4713);fill-opacity:1;stroke:none;filter:url(#filter4192)"
             d="m 393.44929,585.76608 58.11078,46.96924 9.17539,-11.14154 -58.5477,-47.62462 z"
             id="path4303"
             inkscape:connector-curvature="0" />
          <path
             style="fill:none;stroke:url(#linearGradient4715);stroke-width:1px;stroke-linecap:butt;stroke-linejoin:miter;stroke-opacity:1;filter:url(#filter4172)"
             d="M 404.37237,574.843 460.517,620.50147"
             id="path4305"
             inkscape:connector-curvature="0"
             sodipodi:nodetypes="cc" />
          <path
             style="fill:url(#linearGradient4717);fill-opacity:1;stroke:none;filter:url(#filter4216)"
             d="m 448.72007,629.23993 -1.0923,1.96616 c -19.28367,-12.90301 -37.05568,-27.31766 -54.6154,-41.94462 l 2.18462,-2.18462 c 16.72168,13.66013 34.33479,28.34436 53.52308,42.16308 z"
             id="path4307"
             inkscape:connector-curvature="0"
             sodipodi:nodetypes="ccccc" />
        </g>
        <g
           id="g4315"
           transform="translate(-140.86968,174.41009)">
          <path
             inkscape:connector-curvature="0"
             id="path4317"
             d="m 393.44929,585.76608 58.11078,46.96924 9.17539,-11.14154 -58.5477,-47.62462 z"
             style="fill:url(#linearGradient4225);fill-opacity:1;stroke:none;filter:url(#filter4192)" />
          <path
             sodipodi:nodetypes="cc"
             inkscape:connector-curvature="0"
             id="path4319"
             d="M 404.37237,574.843 460.517,620.50147"
             style="fill:none;stroke:url(#linearGradient4227);stroke-width:1px;stroke-linecap:butt;stroke-linejoin:miter;stroke-opacity:1;filter:url(#filter4172)" />
          <path
             sodipodi:nodetypes="ccccc"
             inkscape:connector-curvature="0"
             id="path4321"
             d="m 448.72007,629.23993 -1.0923,1.96616 c -19.28367,-12.90301 -37.05568,-27.31766 -54.6154,-41.94462 l 2.18462,-2.18462 c 16.72168,13.66013 34.33479,28.34436 53.52308,42.16308 z"
             style="fill:url(#linearGradient4229);fill-opacity:1;stroke:none;filter:url(#filter4216)" />
        </g>
      </g>
    </g>
  </g>
  <g
     font-size="7.5"
     font-variant="normal"
     letter-spacing="0"
     font-stretch="normal"
     font-weight="bold"
     line-height="125%"
     word-spacing="0"
     font-style="normal"
     transform="translate(65.358989,-41.123213)"
     id="text4330"
     style="font-style:normal;font-variant:normal;font-weight:bold;font-stretch:normal;font-size:7.5px;line-height:125%;font-family:STIX;letter-spacing:0;word-spacing:0;fill:#000000;fill-opacity:1;stroke:none;stroke-width:1;stroke-linecap:butt;stroke-linejoin:miter;stroke-opacity:1">
    <path
       inkscape:connector-curvature="0"
       id="path4335"
       d="m -56.13327,39.467617 0,-0.1875 c -0.3075,0 -0.4425,-0.165 -0.825,-1.0725 l -1.665,-3.915 -0.21,0 -1.6575,4.0875 c -0.285,0.705 -0.3975,0.84 -0.7425,0.9 l 0,0.1875 1.515,0 0,-0.1875 c -0.4425,-0.03 -0.6075,-0.1125 -0.6075,-0.3075 0,-0.18 0.1425,-0.495 0.2325,-0.7275 l 0.0975,-0.255 1.6875,0 c 0.255,0.5925 0.345,0.855 0.345,1.02 0,0.165 -0.0975,0.225 -0.345,0.2475 l -0.24,0.0225 0,0.1875 2.415,0 z m -2.2875,-1.77 -1.4625,0 0.705,-1.8225 0.7575,1.8225 z" />
    <path
       inkscape:connector-curvature="0"
       id="path4337"
       d="m -55.760848,34.397617 0,0.1875 c 0.525,0.045 0.63,0.15 0.63,0.735 l 0,3.2025 c 0,0.3825 -0.045,0.5925 -0.2925,0.69 -0.0825,0.0375 -0.195,0.0525 -0.3375,0.0675 l 0,0.1875 2.4975,0 0,-0.1875 c -0.5925,-0.075 -0.6525,-0.1425 -0.6525,-0.645 l 0,-1.44 c 0.99,-0.0075 1.245,-0.03 1.5675,-0.15 0.6225,-0.2325 0.9675,-0.69 0.9675,-1.29 0,-0.915 -0.765,-1.3575 -2.0175,-1.3575 l -2.3625,0 z m 1.845,0.525 c 0,-0.1725 0.1275,-0.2625 0.375,-0.2625 0.6225,0 0.87,0.345 0.87,1.1775 0,0.8325 -0.3075,1.0875 -1.245,1.095 l 0,-2.01 z" />
  </g>
</svg>
