<?xml version="1.0" encoding="UTF-8" standalone="no"?>
<!-- Created with Inkscape (http://www.inkscape.org/) -->

<svg
   xmlns:dc="http://purl.org/dc/elements/1.1/"
   xmlns:cc="http://creativecommons.org/ns#"
   xmlns:rdf="http://www.w3.org/1999/02/22-rdf-syntax-ns#"
   xmlns:svg="http://www.w3.org/2000/svg"
   xmlns="http://www.w3.org/2000/svg"
   xmlns:xlink="http://www.w3.org/1999/xlink"
   xmlns:sodipodi="http://sodipodi.sourceforge.net/DTD/sodipodi-0.dtd"
   xmlns:inkscape="http://www.inkscape.org/namespaces/inkscape"
   width="255"
   height="255"
   viewBox="0 0 67.468749 67.468749"
   version="1.1"
   id="svg8"
   inkscape:version="0.92.5 (2060ec1f9f, 2020-04-08)"
   sodipodi:docname="qmmp.svg">
  <defs
     id="defs2">
    <linearGradient
       inkscape:collect="always"
       id="linearGradient886">
      <stop
         style="stop-color:#181818;stop-opacity:1"
         offset="0"
         id="stop882" />
      <stop
         style="stop-color:#a4a4a4;stop-opacity:1"
         offset="1"
         id="stop884" />
    </linearGradient>
    <linearGradient
       inkscape:collect="always"
       id="linearGradient878">
      <stop
         style="stop-color:#000000;stop-opacity:1"
         offset="0"
         id="stop874" />
      <stop
         style="stop-color:#6c6c6c;stop-opacity:1"
         offset="1"
         id="stop876" />
    </linearGradient>
    <linearGradient
       id="linearGradient1406">
      <stop
         style="stop-color:#060000;stop-opacity:1"
         offset="0"
         id="stop1402" />
      <stop
         style="stop-color:#494949;stop-opacity:1"
         offset="1"
         id="stop1404" />
    </linearGradient>
    <linearGradient
       id="linearGradient4281"
       inkscape:collect="always">
      <stop
         id="stop4283"
         offset="0"
         style="stop-color:#c2c2c2;stop-opacity:1" />
      <stop
         id="stop4285"
         offset="1"
         style="stop-color:#2f2f2f;stop-opacity:1" />
    </linearGradient>
    <linearGradient
       id="linearGradient4250"
       inkscape:collect="always">
      <stop
         id="stop4252"
         offset="0"
         style="stop-color:#ffffff;stop-opacity:1" />
      <stop
         id="stop4254"
         offset="1"
         style="stop-color:#ffffff;stop-opacity:0;" />
    </linearGradient>
    <linearGradient
       id="linearGradient3239">
      <stop
         id="stop3241"
         offset="0"
         style="stop-color:#444444;stop-opacity:1" />
      <stop
         id="stop3243"
         offset="1"
         style="stop-color:#d9d9d9;stop-opacity:1;" />
    </linearGradient>
    <linearGradient
       id="linearGradient3212">
      <stop
         id="stop3214"
         offset="0"
         style="stop-color:#dbdbdb;stop-opacity:1;" />
      <stop
         id="stop3216"
         offset="1"
         style="stop-color:#000000;stop-opacity:0;" />
    </linearGradient>
    <linearGradient
       id="linearGradient3204">
      <stop
         style="stop-color:#0a0303;stop-opacity:1"
         offset="0"
         id="stop3206" />
      <stop
         style="stop-color:#a1a1a1;stop-opacity:1"
         offset="1"
         id="stop3208" />
    </linearGradient>
    <linearGradient
       id="linearGradient3178">
      <stop
         id="stop3180"
         offset="0"
         style="stop-color:#757575;stop-opacity:1" />
      <stop
         id="stop3182"
         offset="1"
         style="stop-color:#2f2f2f;stop-opacity:1" />
    </linearGradient>
    <linearGradient
       id="linearGradient3161">
      <stop
         id="stop3163"
         offset="0"
         style="stop-color:#454545;stop-opacity:1;" />
      <stop
         style="stop-color:#2c2c2c;stop-opacity:1;"
         offset="0.80130261"
         id="stop3169" />
      <stop
         id="stop3171"
         offset="0.91023213"
         style="stop-color:#ffffff;stop-opacity:1" />
      <stop
         id="stop3165"
         offset="1"
         style="stop-color:#040404;stop-opacity:1;" />
    </linearGradient>
    <inkscape:perspective
       id="perspective9"
       inkscape:persp3d-origin="372.04724 : 350.78739 : 1"
       inkscape:vp_z="744.09448 : 526.18109 : 1"
       inkscape:vp_y="0 : 1000 : 0"
       inkscape:vp_x="0 : 526.18109 : 1"
       sodipodi:type="inkscape:persp3d" />
    <linearGradient
       y2="336.85959"
       x2="727.76782"
       y1="372.48892"
       x1="334.63431"
       spreadMethod="reflect"
       gradientTransform="matrix(0.02547611,0.05908243,-0.05908243,0.02547611,46.743969,209.64302)"
       gradientUnits="userSpaceOnUse"
       id="linearGradient3268"
       xlink:href="#linearGradient3178"
       inkscape:collect="always" />
    <radialGradient
       r="450.76566"
       fy="359.53125"
       fx="717.45312"
       cy="359.53125"
       cx="717.45312"
       spreadMethod="reflect"
       gradientTransform="matrix(0.02547611,0.05908243,-0.02957706,0.01275351,35.441781,213.83562)"
       gradientUnits="userSpaceOnUse"
       id="radialGradient3270"
       xlink:href="#linearGradient3161"
       inkscape:collect="always" />
    <radialGradient
       r="201.89954"
       fy="161.13707"
       fx="679.90594"
       cy="161.13707"
       cx="679.90594"
       spreadMethod="reflect"
       gradientTransform="matrix(0.503576,-0.01221247,0.00647468,0.3275807,345.40613,360.21397)"
       gradientUnits="userSpaceOnUse"
       id="radialGradient3272"
       xlink:href="#linearGradient1406"
       inkscape:collect="always" />
    <radialGradient
       r="201.89954"
       fy="551.09918"
       fx="690.35968"
       cy="551.09918"
       cx="690.35968"
       spreadMethod="reflect"
       gradientTransform="matrix(1.0957242,0.05525602,-0.03159747,0.76879778,-42.639044,81.115992)"
       gradientUnits="userSpaceOnUse"
       id="radialGradient3274"
       xlink:href="#linearGradient3204"
       inkscape:collect="always" />
    <linearGradient
       y2="773.78442"
       x2="582.96051"
       y1="762.25751"
       x1="737.21259"
       spreadMethod="reflect"
       gradientUnits="userSpaceOnUse"
       id="linearGradient3276"
       xlink:href="#linearGradient3239"
       inkscape:collect="always"
       gradientTransform="matrix(0.02547611,0.05908243,-0.05908243,0.02547611,46.783355,209.16288)" />
    <inkscape:perspective
       id="perspective10"
       inkscape:persp3d-origin="372.04724 : 350.78739 : 1"
       inkscape:vp_z="744.09448 : 526.18109 : 1"
       inkscape:vp_y="0 : 1000 : 0"
       inkscape:vp_x="0 : 526.18109 : 1"
       sodipodi:type="inkscape:persp3d" />
    <linearGradient
       id="linearGradient3370">
      <stop
         style="stop-color:#000000;stop-opacity:1;"
         offset="0"
         id="stop3372" />
      <stop
         style="stop-color:#ffffff;stop-opacity:1;"
         offset="1"
         id="stop3374" />
    </linearGradient>
    <linearGradient
       spreadMethod="reflect"
       gradientUnits="userSpaceOnUse"
       y2="346.06656"
       x2="894.92975"
       y1="374.81891"
       x1="602.64471"
       id="linearGradient3854"
       xlink:href="#linearGradient3370"
       inkscape:collect="always"
       gradientTransform="matrix(0.07221791,0,0,0.06747867,205.29599,42.376342)" />
    <radialGradient
       gradientUnits="userSpaceOnUse"
       gradientTransform="matrix(0.27121518,0,0,0.43463971,-155.34679,184.35029)"
       r="11.068736"
       fy="115.6541"
       fx="156.94901"
       cy="115.6541"
       cx="156.94901"
       id="radialGradient4256"
       xlink:href="#linearGradient4250"
       inkscape:collect="always" />
    <linearGradient
       gradientUnits="userSpaceOnUse"
       y2="349.81525"
       x2="1160.4931"
       y1="361.23203"
       x1="279.73172"
       id="linearGradient4287"
       xlink:href="#linearGradient4281"
       inkscape:collect="always"
       gradientTransform="matrix(0.07221791,0,0,0.06747867,205.22652,40.778589)" />
    <filter
       inkscape:collect="always"
       style="color-interpolation-filters:sRGB"
       id="filter1408"
       x="-0.012951448"
       width="1.0259029"
       y="-0.011178777"
       height="1.0223576">
      <feGaussianBlur
         inkscape:collect="always"
         stdDeviation="1.0498938"
         id="feGaussianBlur1410" />
    </filter>
    <radialGradient
       inkscape:collect="always"
       xlink:href="#linearGradient878"
       id="radialGradient880"
       cx="255.17873"
       cy="50.258739"
       fx="255.17873"
       fy="50.258739"
       r="32.163448"
       gradientTransform="matrix(1,0,0,0.50059889,0,32.153267)"
       gradientUnits="userSpaceOnUse"
       spreadMethod="reflect" />
    <linearGradient
       inkscape:collect="always"
       xlink:href="#linearGradient886"
       id="linearGradient888"
       x1="24.050833"
       y1="265.35416"
       x2="20.66647"
       y2="256.45886"
       gradientUnits="userSpaceOnUse"
       spreadMethod="reflect" />
  </defs>
  <sodipodi:namedview
     id="base"
     pagecolor="#ff0000"
     bordercolor="#666666"
     borderopacity="1.0"
     inkscape:pageopacity="0"
     inkscape:pageshadow="2"
     inkscape:zoom="3.5098039"
     inkscape:cx="127.5"
     inkscape:cy="127.5"
     inkscape:document-units="mm"
     inkscape:current-layer="layer1"
     showgrid="false"
     inkscape:snap-to-guides="false"
     inkscape:snap-grids="false"
     inkscape:snap-others="false"
     inkscape:object-nodes="false"
     inkscape:snap-nodes="false"
     inkscape:snap-global="false"
     inkscape:window-width="1920"
     inkscape:window-height="1056"
     inkscape:window-x="0"
     inkscape:window-y="0"
     inkscape:window-maximized="1"
     units="px" />
  <metadata
     id="metadata5">
    <rdf:RDF>
      <cc:Work>
        <dc:format>image/svg+xml</dc:format>
        <dc:type
           rdf:resource="http://purl.org/dc/dcmitype/StillImage" />
        <dc:title />
      </cc:Work>
    </rdf:RDF>
  </metadata>
  <g
     inkscape:label="Layer 1"
     inkscape:groupmode="layer"
     id="layer1"
     transform="translate(0,-229.53126)">
    <g
       id="g4274"
       style="fill:#000000;fill-opacity:0.23913044;filter:url(#filter1408)"
       transform="matrix(0.27121518,0,0,0.27121518,62.029061,232.05043)">
      <path
         inkscape:connector-curvature="0"
         id="path3280"
         d="m -114.00933,8.8788568 c -4.17352,0.07834 -8.17603,0.878068 -11.9375,2.5000002 -1.29723,0.559359 -2.55224,1.209549 -3.75,1.9375 -0.53015,0.194127 -1.04139,0.400298 -1.5625,0.625 -17.30522,7.461941 -25.75975,30.267383 -24.90625,59.71875 l -9.3125,15.874997 c -0.66779,-0.21321 -1.33969,-0.40253 -2,-0.5625 -4.62219,-1.11978 -9.05229,-0.93446 -13.03125,0.78125 l -6.5625,2.84375 c -17.19776,7.415606 -19.4538,40.249666 -5.0625,73.624996 14.39131,33.37532 39.80224,54.29061 57,46.875 l 6.59375,-2.84375 c 4.99842,-2.1553 8.72367,-6.47302 11.15625,-12.3125 l 15.875,7.125 c 21.837232,23.45537 45.833752,34.58809 64.156252,26.6875 1.34128,-0.57835 2.64007,-1.24154 3.875,-2 0.47755,-0.17784 0.96732,-0.35976 1.4375,-0.5625 30.0917902,-12.97546 33.4823802,-72.29467 7.5625,-132.406246 C -47.157968,44.18747 -84.794718,8.3304748 -114.00933,8.8788568 Z"
         style="fill:#000000;fill-opacity:0.23913044;stroke:none;stroke-width:4;stroke-linecap:round;stroke-linejoin:round;stroke-miterlimit:4;stroke-dasharray:none;stroke-opacity:1" />
      <path
         inkscape:connector-curvature="0"
         id="path4258"
         d="m -114.74805,9.7011719 c -8.24257,0.2804636 -15.97688,4.3586151 -22.80078,8.9101561 -14.37004,11.901414 -17.49119,32.062979 -17.86719,49.625 1.36697,7.376815 -4.8731,12.712497 -7.75145,18.938804 -0.78853,4.217497 -4.18715,2.631464 -7.01222,2.098306 -7.71351,-0.980465 -15.33971,2.761404 -21.41399,7.189282 -9.69133,9.6583 -9.884,24.62617 -8.66392,37.26015 3.43633,25.72127 15.0053,51.08742 34.18143,68.99197 8.40217,7.54897 20.82493,14.63677 32.11182,9.00714 7.08892,-2.07834 13.31586,-7.02861 15.84716,-14.10089 5.02242,0.17998 9.9441,4.17182 14.92788,5.81377 5.870883,3.55067 10.000517,9.73185 15.68931,13.71944 12.978017,10.45837 30.285006,20.02169 47.296875,14.82226 8.972475,-3.34252 18.132257,-8.38525 22.939453,-17.17968 11.1335481,-19.41623 10.5622026,-43.20511 7.5486336,-64.7543 C -16.254906,110.12342 -33.473135,71.773166 -60.013672,41.158203 -74.152676,25.767896 -92.661041,9.5752756 -114.74805,9.7011719 Z"
         style="fill:#000000;fill-opacity:0.23913044;stroke:none;stroke-width:4;stroke-linecap:round;stroke-linejoin:round;stroke-miterlimit:4;stroke-dasharray:none;stroke-opacity:1" />
      <path
         inkscape:connector-curvature="0"
         id="path4262"
         d="m -115.45898,10.535156 c -13.52169,1.433492 -26.55485,9.808705 -32.17038,22.415654 -6.09229,12.440534 -6.85846,26.524217 -7.08939,40.053096 -1.56357,6.209418 -6.46263,10.88209 -8.73828,16.740235 -3.5942,2.841531 -8.33133,-1.270533 -12.36328,0.410156 -9.84747,1.634664 -19.33498,8.068345 -21.97461,18.105473 -5.37641,19.11075 -0.10371,39.37254 7.08194,57.33507 7.58612,17.06991 18.63699,33.84026 34.91025,43.54578 7.08919,4.30849 16.12083,5.08493 23.5332,1.16993 5.98316,-2.22729 11.25359,-6.86233 13.4043,-12.97266 4.88757,-1.42323 9.62315,3.10873 14.13671,4.65234 8.353512,3.63061 13.100431,12.28054 20.840699,16.95916 13.385581,10.33181 32.206608,18.60323 48.39954,10.22249 9.713755,-3.95012 17.599335,-11.90956 21.046854,-21.95294 9.109651,-23.21047 6.1610668,-48.98615 0.811638,-72.65558 C -22.738037,96.762328 -41.106741,60.533587 -68.978516,33.103516 -81.519663,21.068818 -97.462019,10.022939 -115.45898,10.535156 Z"
         style="fill:#000000;fill-opacity:0.23913044;stroke:none;stroke-width:4;stroke-linecap:round;stroke-linejoin:round;stroke-miterlimit:4;stroke-dasharray:none;stroke-opacity:1" />
      <path
         inkscape:connector-curvature="0"
         id="path4266"
         d="m -115.40234,11.335938 c -15.82048,1.449094 -29.98185,13.161685 -34.21604,28.589607 -3.94568,11.033225 -3.6811,22.972254 -4.67459,34.484611 -2.1505,5.848455 -6.25448,10.870444 -9.0918,16.265625 -4.45561,2.596715 -9.49347,-1.765646 -14.10937,0.625 -10.45774,2.071051 -19.45272,10.676769 -20.55818,21.511619 -3.78408,20.87147 2.85769,42.36674 12.24173,61.08087 8.17422,15.21318 19.43334,30.31096 35.88481,37.03837 10.6746,3.44774 23.4805,-1.70573 29.125,-11.21484 0.64835,-3.541 4.21905,-4.15832 7.18945,-2.85352 7.43961,3.452 15.26835,6.71535 20.663912,13.21551 10.471263,10.46191 23.776407,19.28494 38.662262,21.47199 17.145916,2.07041 35.068902,-9.95998 39.784775,-26.44851 9.6421262,-27.39204 4.12105,-57.28329 -3.74376,-84.38547 C -29.413407,84.710118 -48.990726,50.403894 -78.185547,26.082031 -88.71559,17.678053 -101.61225,10.90471 -115.40234,11.335938 Z"
         style="fill:#000000;fill-opacity:0.23913044;stroke:none;stroke-width:4;stroke-linecap:round;stroke-linejoin:round;stroke-miterlimit:4;stroke-dasharray:none;stroke-opacity:1" />
      <path
         inkscape:connector-curvature="0"
         id="path4270"
         d="m -115.375,12.136719 c -17.03534,1.42927 -31.34567,15.290826 -34.69187,31.91165 -3.01712,10.360723 -2.05454,21.289322 -3.91946,31.76999 -2.60219,5.537818 -5.90432,11.023523 -9.49609,15.8125 -5.12294,2.153995 -10.68927,-2.105205 -15.75196,0.908203 -10.3482,2.709455 -18.17238,12.419558 -18.45833,23.150268 -2.90281,23.6505 5.66758,47.03177 17.9322,66.94635 7.94762,12.17903 18.53483,24.24598 33.03785,28.2569 10.39767,1.75258 22.07173,-4.02385 26.32032,-13.84961 4.75367,-4.29211 10.89042,1.40034 15.55078,3.09765 10.358438,4.72674 16.301291,14.90726 25.934017,20.54409 12.537081,8.62002 29.589819,14.22674 43.911684,6.68638 11.426274,-5.18102 19.136213,-16.29798 21.581487,-28.42808 7.5889415,-29.01449 0.622537,-59.2128 -8.56449,-86.96652 C -34.234357,77.610957 -54.176869,44.958478 -83.748047,22.9375 -93.000287,16.541252 -103.9286,11.765966 -115.375,12.136719 Z"
         style="fill:#000000;fill-opacity:0.23913044;stroke:none;stroke-width:4;stroke-linecap:round;stroke-linejoin:round;stroke-miterlimit:4;stroke-dasharray:none;stroke-opacity:1" />
    </g>
    <path
       style="opacity:1;fill:url(#linearGradient888);fill-opacity:1;stroke:none;stroke-width:0.25736406;stroke-linecap:round;stroke-linejoin:round;stroke-miterlimit:4;stroke-dasharray:none;stroke-opacity:1"
       d="m 25.735012,241.54847 -6.661056,11.34842 c -1.448923,-0.46261 -2.839059,-0.46815 -4.072376,0.0636 l -1.784285,0.76937 c -4.6642938,2.01123 -5.2751733,10.91714 -1.372034,19.96903 3.90314,9.0519 10.798731,14.72105 15.463024,12.70983 l 1.784285,-0.76938 c 1.355647,-0.58455 2.368863,-1.75249 3.028615,-3.33624 l 14.251255,6.40445 z"
       id="rect3232"
       sodipodi:nodetypes="ccccsccccc"
       inkscape:connector-curvature="0" />
    <path
       style="fill:#151515;fill-opacity:1;stroke:none;stroke-width:0.25736406;stroke-linecap:round;stroke-linejoin:round;stroke-miterlimit:4;stroke-opacity:1"
       d="m 24.601005,260.27526 6.339611,13.0712 c -2.062541,0.88936 0.338428,-0.95444 -5.735319,2.44193 -4.083406,-4.57902 -5.392463,-8.27079 -5.811921,-13.22198 z"
       id="rect3247"
       sodipodi:nodetypes="ccccc"
       inkscape:connector-curvature="0" />
    <path
       sodipodi:nodetypes="ccccc"
       id="path3250"
       d="m 23.216104,249.29179 0.259501,8.52156 -4.254912,1.71649 c -0.275313,-2.58983 -0.390454,-4.50089 -0.117569,-5.74113 z"
       style="fill:#151515;fill-opacity:1;stroke:none;stroke-width:0.25736406;stroke-linecap:round;stroke-linejoin:round;stroke-miterlimit:4;stroke-opacity:1"
       inkscape:connector-curvature="0" />
    <path
       style="fill:#151515;fill-opacity:1;stroke:none;stroke-width:0.25736406;stroke-linecap:round;stroke-linejoin:round;stroke-miterlimit:4;stroke-opacity:1"
       d="m 37.224245,281.07674 -5.641042,-5.88915 -4.582926,2.35439 c 1.694305,1.97796 3.041355,2.78588 4.130559,3.43879 z"
       id="path3252"
       sodipodi:nodetypes="ccccc"
       inkscape:connector-curvature="0" />
    <path
       sodipodi:open="true"
       sodipodi:end="6.2819628"
       sodipodi:start="0"
       sodipodi:type="arc"
       style="fill:url(#linearGradient3854);fill-opacity:1;stroke:#525252;stroke-width:0.2712152;stroke-miterlimit:4;stroke-dasharray:none;stroke-opacity:1"
       id="path3186"
       sodipodi:cx="256.79648"
       sodipodi:cy="65.981407"
       sodipodi:rx="32.163448"
       sodipodi:ry="16.100986"
       d="M 288.95993,65.981407 A 32.163448,16.100986 0 0 1 256.80631,82.082393 32.163448,16.100986 0 0 1 224.63304,65.991249 32.163448,16.100986 0 0 1 256.76699,49.880427 32.163448,16.100986 0 0 1 288.9599,65.961724"
       transform="rotate(66.674484)" />
    <ellipse
       transform="rotate(66.674484)"
       id="path3156"
       style="opacity:1;fill:url(#radialGradient880);fill-opacity:1;stroke:none;stroke-width:0.33359465;stroke-linecap:round;stroke-linejoin:round;stroke-miterlimit:4;stroke-dasharray:none;stroke-opacity:1"
       cx="256.72702"
       cy="64.383652"
       rx="32.163448"
       ry="16.100986" />
    <path
       style="opacity:1;fill:url(#linearGradient3268);fill-opacity:1;stroke:none;stroke-width:0.25736406;stroke-linecap:round;stroke-linejoin:round;stroke-miterlimit:4;stroke-dasharray:none;stroke-opacity:1"
       d="m 54.714174,256.55055 c -5.398786,-12.52049 -14.864958,-20.4875 -21.132701,-17.78488 -6.267743,2.70263 -7.639455,15.26724 -2.240669,27.78773 5.398786,12.52049 15.533006,20.27729 21.800749,17.57466 6.267744,-2.70262 6.971407,-15.05702 1.572621,-27.57751 z m -2.294984,0.98958 c 4.306897,9.98826 4.674967,21.63844 -0.554022,23.89316 -5.228989,2.25472 -15.170507,-5.26742 -19.477404,-15.25568 -4.306896,-9.98826 -3.655876,-23.13478 1.573112,-25.3895 5.228989,-2.25472 14.151418,6.76377 18.458314,16.75202 z"
       id="path3173"
       sodipodi:nodetypes="csssccsssc"
       inkscape:connector-curvature="0" />
    <path
       style="opacity:1;fill:url(#radialGradient3270);fill-opacity:1;stroke:none;stroke-width:0.25736406;stroke-linecap:round;stroke-linejoin:round;stroke-miterlimit:4;stroke-dasharray:none;stroke-opacity:1"
       d="M 56.417744,255.06003 C 50.07872,240.35899 38.961383,231.00416 31.602067,234.17746 c -7.359317,3.17331 -8.187988,17.67922 -1.848964,32.38025 6.339024,14.70103 17.457155,24.05771 24.816474,20.88441 7.359317,-3.17331 8.18719,-17.68107 1.848167,-32.38209 z m -2.806415,1.21011 c 5.154726,11.95448 4.622668,23.69089 -1.18732,26.19613 -5.809987,2.50525 -14.709763,-5.16419 -19.86449,-17.11868 -5.154728,-11.95448 -4.621873,-23.68904 1.188114,-26.19428 5.809987,-2.50525 14.708969,5.16234 19.863696,17.11683 z"
       id="path2384"
       inkscape:connector-curvature="0" />
    <g
       id="g3224"
       transform="matrix(0.02547611,0.05908243,-0.05908243,0.02547611,45.622086,209.67288)">
      <ellipse
         transform="matrix(1,0,0,0.9027778,11.876439,-14.995505)"
         id="path3190"
         style="opacity:1;fill:url(#radialGradient3272);fill-opacity:1;stroke:none;stroke-width:4;stroke-linecap:round;stroke-linejoin:round;stroke-miterlimit:4;stroke-dasharray:none;stroke-opacity:1"
         cx="696.39148"
         cy="462.10162"
         rx="201.89954"
         ry="116.60508" />
      <ellipse
         ry="129.94029"
         rx="201.89954"
         cy="462.10162"
         cx="696.39148"
         style="opacity:1;fill:url(#radialGradient3274);fill-opacity:1;stroke:none;stroke-width:4;stroke-linecap:round;stroke-linejoin:round;stroke-miterlimit:4;stroke-dasharray:none;stroke-opacity:1"
         id="path3200"
         transform="matrix(0.8564103,0,0,0.7731482,110.79143,48.145585)" />
    </g>
    <path
       sodipodi:nodetypes="ccccscccsc"
       id="path3237"
       d="m 18.259503,253.99197 c 0.22574,-0.62167 0.665277,-1.10082 1.49291,-1.32123 -1.448923,-0.46261 -2.839059,-0.46815 -4.072376,0.0636 l -1.784285,0.76937 c -4.6642941,2.01123 -5.2751736,10.91714 -1.372034,19.96903 3.90314,9.0519 10.798731,14.72105 15.463024,12.70983 l 1.784285,-0.76938 c 1.355647,-0.58455 2.896552,-1.97864 3.028615,-3.33624 -1.00597,0.28878 -2.205649,0.39289 -3.32882,-0.14177 -8.574238,-4.08154 -15.168432,-18.00189 -11.211319,-27.94321 z"
       style="opacity:1;fill:url(#linearGradient3276);fill-opacity:1;stroke:none;stroke-width:0.25736406;stroke-linecap:round;stroke-linejoin:round;stroke-miterlimit:4;stroke-dasharray:none;stroke-opacity:1"
       inkscape:connector-curvature="0" />
    <ellipse
       style="opacity:1;fill:url(#radialGradient4256);fill-opacity:1;stroke:none;stroke-width:0.43394431;stroke-linecap:round;stroke-linejoin:round;stroke-miterlimit:4;stroke-dasharray:none;stroke-opacity:0.33870969"
       id="path4248"
       cx="-112.77984"
       cy="234.61813"
       rx="3.0020094"
       ry="4.8109126"
       transform="rotate(-34.790022)" />
    <ellipse
       ry="16.100986"
       rx="32.163448"
       cy="64.383652"
       cx="256.72702"
       style="opacity:1;fill:none;fill-opacity:1;stroke:url(#linearGradient4287);stroke-width:0.33359465;stroke-linecap:round;stroke-linejoin:round;stroke-miterlimit:4;stroke-dasharray:none;stroke-opacity:1"
       id="ellipse872"
       transform="rotate(66.674484)" />
  </g>
</svg>
