<?xml version="1.0" encoding="UTF-8" standalone="no"?>
<svg
   xmlns:dc="http://purl.org/dc/elements/1.1/"
   xmlns:cc="http://creativecommons.org/ns#"
   xmlns:rdf="http://www.w3.org/1999/02/22-rdf-syntax-ns#"
   xmlns:svg="http://www.w3.org/2000/svg"
   xmlns="http://www.w3.org/2000/svg"
   xmlns:xlink="http://www.w3.org/1999/xlink"
   xmlns:sodipodi="http://sodipodi.sourceforge.net/DTD/sodipodi-0.dtd"
   xmlns:inkscape="http://www.inkscape.org/namespaces/inkscape"
   sodipodi:docname="qt.svg"
   inkscape:version="1.0 (4035a4f, 2020-05-01)"
   id="svg8"
   version="1.1"
   viewBox="0 0 67.468749 67.468749"
   height="255"
   width="255">
  <defs
     id="defs2">
    <linearGradient
       id="linearGradient1339">
      <stop
         id="stop1335"
         offset="0"
         style="stop-color:#464646;stop-opacity:1;" />
      <stop
         id="stop1337"
         offset="1"
         style="stop-color:#9b9b9b;stop-opacity:0" />
    </linearGradient>
    <linearGradient
       id="linearGradient1333">
      <stop
         id="stop1329"
         offset="0"
         style="stop-color:#4c4c4c;stop-opacity:1" />
      <stop
         id="stop1331"
         offset="1"
         style="stop-color:#d5d5d5;stop-opacity:0" />
    </linearGradient>
    <clipPath
       id="clipPath2059"
       clipPathUnits="userSpaceOnUse">
      <path
         stroke-miterlimit="4"
         stroke-width="0.048"
         stroke-linecap="butt"
         fill-opacity="1"
         stroke-linejoin="miter"
         stroke="none"
         fill-rule="evenodd"
         fill="#ffffff"
         stroke-opacity="1"
         stroke-dasharray="none"
         inkscape:connector-curvature="0"
         sodipodi:nodetypes="csscsscccccccs"
         id="path2061"
         d="m -10.099732,231.68531 c 3.5587363,2.50616 4.8319716,-0.58528 2.9651647,-3.064 -3.1818907,-4.22486 -6.4443207,-9.83985 -12.3548527,-15.91305 -2.594516,-2.66865 -11.860659,-7.80827 -11.860659,-7.80827 0,0 -0.115438,-2.18844 -0.09884,-3.064 0.01106,-0.582 -0.565687,-0.56369 -0.889553,-0.29652 -0.782426,0.64546 -2.47097,2.56981 -2.47097,2.56981 l -1.68026,-0.0988 -1.087226,-1.58142 c -0.296516,-0.41055 -0.636056,-0.34641 -0.88955,0 -0.545383,1.84962 -0.878698,3.8848 -3.459359,3.95355 l 4.447747,3.95356 c 7.76561,1.55335 15.578734,5.58545 20.261957,14.33163 0,0 4.526451,5.19364 7.116396,7.01755 z" />
    </clipPath>
    <clipPath
       clipPathUnits="userSpaceOnUse"
       id="clipPath2059-5">
      <path
         d="m -10.099732,231.68531 c 3.5587363,2.50616 4.8319716,-0.58528 2.9651647,-3.064 -3.1818907,-4.22486 -6.4443207,-9.83985 -12.3548527,-15.91305 -2.594516,-2.66865 -11.860659,-7.80827 -11.860659,-7.80827 0,0 -0.115438,-2.18844 -0.09884,-3.064 0.01106,-0.582 -0.565687,-0.56369 -0.889553,-0.29652 -0.782426,0.64546 -2.47097,2.56981 -2.47097,2.56981 l -1.68026,-0.0988 -1.087226,-1.58142 c -0.296516,-0.41055 -0.636056,-0.34641 -0.88955,0 -0.545383,1.84962 -0.878698,3.8848 -3.459359,3.95355 l 4.447747,3.95356 c 7.76561,1.55335 15.578734,5.58545 20.261957,14.33163 0,0 4.526451,5.19364 7.116396,7.01755 z"
         id="path2061-3"
         sodipodi:nodetypes="csscsscccccccs"
         inkscape:connector-curvature="0"
         stroke-dasharray="none"
         stroke-opacity="1"
         fill="#ffffff"
         fill-rule="evenodd"
         stroke="none"
         stroke-linejoin="miter"
         fill-opacity="1"
         stroke-linecap="butt"
         stroke-width="0.048"
         stroke-miterlimit="4" />
    </clipPath>
    <clipPath
       id="clipPath">
      <path
         d="m -515.73002,435.56445 v 5.83767 c 0,9.74315 -7.84377,17.58692 -17.58692,17.58692 h -135.05122 c -9.74315,0 -17.58692,-7.84377 -17.58692,-17.58692 v -5.83767 z"
         id="rect5264"
         inkscape:connector-curvature="0"
         sodipodi:nodetypes="csssscc"
         fill="#1b1b1b"
         stroke="none"
         fill-opacity="0.95" />
    </clipPath>
    <clipPath
       id="clipPath2059-7"
       clipPathUnits="userSpaceOnUse">
      <path
         stroke-miterlimit="4"
         stroke-width="0.048"
         stroke-linecap="butt"
         fill-opacity="1"
         stroke-linejoin="miter"
         stroke="none"
         fill-rule="evenodd"
         fill="#ffffff"
         stroke-opacity="1"
         stroke-dasharray="none"
         inkscape:connector-curvature="0"
         sodipodi:nodetypes="csscsscccccccs"
         id="path2061-5"
         d="m -10.099732,231.68531 c 3.5587363,2.50616 4.8319716,-0.58528 2.9651647,-3.064 -3.1818907,-4.22486 -6.4443207,-9.83985 -12.3548527,-15.91305 -2.594516,-2.66865 -11.860659,-7.80827 -11.860659,-7.80827 0,0 -0.115438,-2.18844 -0.09884,-3.064 0.01106,-0.582 -0.565687,-0.56369 -0.889553,-0.29652 -0.782426,0.64546 -2.47097,2.56981 -2.47097,2.56981 l -1.68026,-0.0988 -1.087226,-1.58142 c -0.296516,-0.41055 -0.636056,-0.34641 -0.88955,0 -0.545383,1.84962 -0.878698,3.8848 -3.459359,3.95355 l 4.447747,3.95356 c 7.76561,1.55335 15.578734,5.58545 20.261957,14.33163 0,0 4.526451,5.19364 7.116396,7.01755 z" />
    </clipPath>
    <clipPath
       id="clipPath1162"
       clipPathUnits="userSpaceOnUse">
      <path
         id="path1164"
         d="m -65.649736,239.84563 c -9.358079,0 -16.951888,7.59381 -16.951888,16.95188 0,9.35808 7.593811,16.94076 16.951888,16.94077 0.292439,0 0.578792,-0.008 0.867614,-0.0222 2.122786,-0.10753 4.148336,-0.60587 5.995453,-1.42378 l 2.669587,3.97101 c -0.225515,0.4951 -0.245107,0.96445 -0.01111,1.31255 l 15.67271,23.32553 c 0.495366,0.73695 1.94415,0.6317 3.247998,-0.24471 1.303846,-0.87642 1.96364,-2.17735 1.468276,-2.9143 L -51.42304,274.4168 c -0.233058,-0.34672 -0.682887,-0.49868 -1.22356,-0.47831 l -2.558357,-3.80416 c 3.95991,-3.10036 6.507123,-7.91951 6.507123,-13.33682 0,-9.35807 -7.593809,-16.95188 -16.951889,-16.95188 z m 0,2.5806 c 7.92884,0 14.371283,6.44244 14.371283,14.37128 0,7.92885 -6.442435,14.36016 -14.371283,14.36016 -7.928851,0 -14.349039,-6.43131 -14.349039,-14.36016 0,-0.24777 -0.0013,-0.48941 0.01111,-0.73413 0.384376,-7.58638 6.656848,-13.63715 14.337916,-13.63715 z"
         inkscape:connector-curvature="0"
         stroke-dasharray="none"
         stroke-opacity="1"
         fill="#000000"
         stroke="none"
         stroke-linejoin="round"
         fill-opacity="0.347"
         stroke-linecap="round"
         stroke-width="0.071"
         stroke-miterlimit="4" />
    </clipPath>
    <linearGradient
       id="linearGradient4012">
      <stop
         style="stop-color:#b7b7b7;stop-opacity:0.21582733;"
         offset="0"
         id="stop4014" />
      <stop
         style="stop-color:#222222;stop-opacity:0;"
         offset="1"
         id="stop4016" />
    </linearGradient>
    <linearGradient
       id="linearGradient3986">
      <stop
         style="stop-color:#a1a1a1;stop-opacity:1"
         offset="0"
         id="stop3988" />
      <stop
         style="stop-color:#ffffff;stop-opacity:1"
         offset="1"
         id="stop3990" />
    </linearGradient>
    <linearGradient
       id="linearGradient3958">
      <stop
         style="stop-color:#989898;stop-opacity:1;"
         offset="0"
         id="stop3960" />
      <stop
         style="stop-color:#222222;stop-opacity:0;"
         offset="1"
         id="stop3962" />
    </linearGradient>
    <linearGradient
       id="linearGradient3940">
      <stop
         style="stop-color:#464646;stop-opacity:1;"
         offset="0"
         id="stop3942" />
      <stop
         style="stop-color:#222222;stop-opacity:0;"
         offset="1"
         id="stop3944" />
    </linearGradient>
    <linearGradient
       id="linearGradient3912">
      <stop
         style="stop-color:#b7b7b7;stop-opacity:1;"
         offset="0"
         id="stop3914" />
      <stop
         style="stop-color:#000000;stop-opacity:0.64028776;"
         offset="1"
         id="stop3916" />
    </linearGradient>
    <linearGradient
       id="linearGradient3902">
      <stop
         style="stop-color:#ffffff;stop-opacity:1;"
         offset="0"
         id="stop3904" />
      <stop
         style="stop-color:#000000;stop-opacity:0;"
         offset="1"
         id="stop3906" />
    </linearGradient>
    <linearGradient
       id="linearGradient3888">
      <stop
         style="stop-color:#ffffff;stop-opacity:0.56834531;"
         offset="0"
         id="stop3890" />
      <stop
         style="stop-color:#000000;stop-opacity:0.79136693;"
         offset="1"
         id="stop3892" />
    </linearGradient>
    <linearGradient
       inkscape:collect="always"
       id="linearGradient3878">
      <stop
         style="stop-color:#ffffff;stop-opacity:1;"
         offset="0"
         id="stop3880" />
      <stop
         style="stop-color:#ffffff;stop-opacity:0;"
         offset="1"
         id="stop3882" />
    </linearGradient>
    <linearGradient
       id="linearGradient3775">
      <stop
         style="stop-color:#ffffff;stop-opacity:0.44604316;"
         offset="0"
         id="stop3777" />
      <stop
         style="stop-color:#ffffff;stop-opacity:0;"
         offset="1"
         id="stop3779" />
    </linearGradient>
    <linearGradient
       id="linearGradient3761">
      <stop
         style="stop-color:#ffffff;stop-opacity:0.56834531;"
         offset="0"
         id="stop3763" />
      <stop
         id="stop3771"
         offset="0.25771511"
         style="stop-color:#ffffff;stop-opacity:0;" />
      <stop
         id="stop3769"
         offset="0.73906398"
         style="stop-color:#ffffff;stop-opacity:0.53956836;" />
      <stop
         style="stop-color:#ffffff;stop-opacity:0;"
         offset="1"
         id="stop3765" />
    </linearGradient>
    <radialGradient
       inkscape:collect="always"
       xlink:href="#linearGradient3761"
       id="radialGradient3767"
       cx="574.8363"
       cy="273.62897"
       fx="574.8363"
       fy="273.62897"
       r="65.421303"
       gradientTransform="matrix(0.62798612,0.87380058,-1.5301902,1.0997225,685.00604,-680.42658)"
       gradientUnits="userSpaceOnUse" />
    <radialGradient
       inkscape:collect="always"
       xlink:href="#linearGradient3775"
       id="radialGradient3781"
       cx="570.88055"
       cy="211.07251"
       fx="570.88055"
       fy="211.07251"
       r="54.387077"
       gradientTransform="matrix(0.28588091,0.25312962,-1.0511932,1.1872024,685.19482,-325.90241)"
       gradientUnits="userSpaceOnUse" />
    <radialGradient
       inkscape:collect="always"
       xlink:href="#linearGradient3775"
       id="radialGradient3791"
       cx="542.32489"
       cy="308.11908"
       fx="542.32489"
       fy="308.11908"
       r="24.851048"
       gradientTransform="matrix(1.1288196,0,0,1.2458137,58.62962,-198.99865)"
       gradientUnits="userSpaceOnUse" />
    <linearGradient
       inkscape:collect="always"
       xlink:href="#linearGradient3878"
       id="linearGradient3801"
       x1="514.8595"
       y1="321.15689"
       x2="529.70764"
       y2="347.30066"
       gradientUnits="userSpaceOnUse"
       spreadMethod="reflect"
       gradientTransform="matrix(0.08098411,0,0,0.08098411,5.4776619,220.95154)" />
    <linearGradient
       inkscape:collect="always"
       xlink:href="#linearGradient3878"
       id="linearGradient3851"
       x1="580.21893"
       y1="423.46347"
       x2="614.01898"
       y2="462.05365"
       gradientUnits="userSpaceOnUse"
       gradientTransform="matrix(0.08098411,0,0,0.08098411,5.4776619,220.95154)" />
    <linearGradient
       inkscape:collect="always"
       xlink:href="#linearGradient3878"
       id="linearGradient3855"
       gradientUnits="userSpaceOnUse"
       x1="692.96399"
       y1="603.20203"
       x2="650.94708"
       y2="524.73663"
       gradientTransform="matrix(0.08098411,0,0,0.08098411,5.4776619,220.95154)" />
    <radialGradient
       inkscape:collect="always"
       xlink:href="#linearGradient3878"
       id="radialGradient3884"
       cx="717.89478"
       cy="441.91949"
       fx="717.89478"
       fy="441.91949"
       r="10.242812"
       gradientTransform="matrix(0.36796838,-0.2937287,1.1057832,1.3852691,116.17355,-66.609176)"
       gradientUnits="userSpaceOnUse" />
    <linearGradient
       inkscape:collect="always"
       xlink:href="#linearGradient3888"
       id="linearGradient3894"
       x1="685.47046"
       y1="440.78299"
       x2="699.74951"
       y2="456.1676"
       gradientUnits="userSpaceOnUse"
       spreadMethod="reflect"
       gradientTransform="matrix(0.08098411,0,0,0.08098411,5.477662,220.95154)" />
    <linearGradient
       inkscape:collect="always"
       xlink:href="#linearGradient3888"
       id="linearGradient3898"
       gradientUnits="userSpaceOnUse"
       spreadMethod="reflect"
       x1="693.30939"
       y1="452.40616"
       x2="701.91199"
       y2="462.38464"
       gradientTransform="matrix(0.08098411,0,0,0.08098411,-15.26883,214.33936)" />
    <radialGradient
       inkscape:collect="always"
       xlink:href="#linearGradient3902"
       id="radialGradient3908"
       cx="460.49261"
       cy="366.14862"
       fx="460.49261"
       fy="366.14862"
       r="20.700745"
       gradientTransform="matrix(0.5501683,-0.44685185,0.73576665,0.90588308,53.747355,121.4773)"
       gradientUnits="userSpaceOnUse"
       spreadMethod="reflect" />
    <radialGradient
       inkscape:collect="always"
       xlink:href="#linearGradient3912"
       id="radialGradient3918"
       cx="450.5994"
       cy="369.50882"
       fx="450.5994"
       fy="369.50882"
       r="19.725601"
       gradientTransform="matrix(0.95535226,-0.60127839,1.0555427,1.6771185,-251.01042,-95.952296)"
       gradientUnits="userSpaceOnUse" />
    <linearGradient
       inkscape:collect="always"
       xlink:href="#linearGradient1333"
       id="linearGradient3946"
       x1="183.48524"
       y1="593.09723"
       x2="206.41022"
       y2="573.00067"
       gradientUnits="userSpaceOnUse"
       gradientTransform="matrix(0.08098411,0,0,0.08098411,5.4776619,220.95154)" />
    <linearGradient
       inkscape:collect="always"
       xlink:href="#linearGradient1339"
       id="linearGradient3950"
       gradientUnits="userSpaceOnUse"
       x1="180.677"
       y1="602.45801"
       x2="217.64317"
       y2="560.83167"
       gradientTransform="matrix(0,-0.08098411,0.08098411,0,-29.448867,283.49354)" />
    <linearGradient
       inkscape:collect="always"
       xlink:href="#linearGradient1333"
       id="linearGradient3954"
       gradientUnits="userSpaceOnUse"
       gradientTransform="matrix(0,0.08098411,-0.08098411,0,69.195016,255.74031)"
       x1="180.677"
       y1="602.45801"
       x2="198.92159"
       y2="587.04187" />
    <linearGradient
       inkscape:collect="always"
       xlink:href="#linearGradient3958"
       id="linearGradient3964"
       x1="149.96904"
       y1="520.15393"
       x2="194.15083"
       y2="530.73108"
       gradientUnits="userSpaceOnUse"
       gradientTransform="matrix(0.08098411,0,0,0.08098411,5.4776619,220.95154)" />
    <linearGradient
       inkscape:collect="always"
       xlink:href="#linearGradient3958"
       id="linearGradient3968"
       gradientUnits="userSpaceOnUse"
       x1="224.69176"
       y1="568.60425"
       x2="194.15083"
       y2="530.73108"
       spreadMethod="reflect"
       gradientTransform="matrix(0.08098411,0,0,0.08098411,5.4776619,220.95154)" />
    <linearGradient
       inkscape:collect="always"
       xlink:href="#linearGradient3888"
       id="linearGradient3978"
       x1="258.1293"
       y1="520.2027"
       x2="295.19626"
       y2="571.04144"
       gradientUnits="userSpaceOnUse"
       spreadMethod="reflect"
       gradientTransform="matrix(0.08098411,0,0,0.08098411,5.4776619,220.95154)" />
    <linearGradient
       inkscape:collect="always"
       xlink:href="#linearGradient3888"
       id="linearGradient3982"
       gradientUnits="userSpaceOnUse"
       spreadMethod="reflect"
       x1="258.1293"
       y1="520.2027"
       x2="295.19626"
       y2="571.04144"
       gradientTransform="matrix(0.08098411,0,0,0.08098411,9.4290018,217.99495)" />
    <linearGradient
       inkscape:collect="always"
       xlink:href="#linearGradient3986"
       id="linearGradient3992"
       x1="-45.866783"
       y1="266.14572"
       x2="-45.866783"
       y2="259.65396"
       gradientUnits="userSpaceOnUse"
       spreadMethod="reflect"
       gradientTransform="matrix(0.08098412,0,0,0.08098412,173.20155,-240.20989)" />
    <linearGradient
       inkscape:collect="always"
       xlink:href="#linearGradient4012"
       id="linearGradient4018"
       x1="606.50757"
       y1="508.90286"
       x2="632.96216"
       y2="544.95679"
       gradientUnits="userSpaceOnUse"
       spreadMethod="reflect"
       gradientTransform="matrix(0.08098411,0,0,0.08098411,5.4776619,220.95154)" />
    <linearGradient
       inkscape:collect="always"
       xlink:href="#linearGradient4012"
       id="linearGradient4028"
       x1="286.61655"
       y1="493.94815"
       x2="315.59897"
       y2="546.0954"
       gradientUnits="userSpaceOnUse"
       spreadMethod="reflect"
       gradientTransform="matrix(0.08098411,0,0,0.08098411,5.4776619,220.95154)" />
    <filter
       inkscape:collect="always"
       id="filter4046"
       color-interpolation-filters="sRGB">
      <feGaussianBlur
         inkscape:collect="always"
         stdDeviation="1.4683153"
         id="feGaussianBlur4048" />
    </filter>
    <filter
       inkscape:collect="always"
       id="filter4050"
       color-interpolation-filters="sRGB">
      <feGaussianBlur
         inkscape:collect="always"
         stdDeviation="3.079407"
         id="feGaussianBlur4052" />
    </filter>
    <radialGradient
       inkscape:collect="always"
       xlink:href="#linearGradient3761"
       id="radialGradient4092"
       gradientUnits="userSpaceOnUse"
       gradientTransform="matrix(0.62798612,0.87380058,-1.5301902,1.0997225,685.00604,-680.42658)"
       cx="574.8363"
       cy="273.62897"
       fx="574.8363"
       fy="273.62897"
       r="65.421303" />
    <radialGradient
       inkscape:collect="always"
       xlink:href="#linearGradient3775"
       id="radialGradient4094"
       gradientUnits="userSpaceOnUse"
       gradientTransform="matrix(0.28588091,0.25312962,-1.0511932,1.1872024,685.19482,-325.90241)"
       cx="570.88055"
       cy="211.07251"
       fx="570.88055"
       fy="211.07251"
       r="54.387077" />
    <radialGradient
       inkscape:collect="always"
       xlink:href="#linearGradient3775"
       id="radialGradient4096"
       gradientUnits="userSpaceOnUse"
       gradientTransform="matrix(0.08098411,0,0,0.08937754,5.4776619,218.36537)"
       cx="542.32489"
       cy="308.11908"
       fx="542.32489"
       fy="308.11908"
       r="24.851048" />
    <radialGradient
       inkscape:collect="always"
       xlink:href="#linearGradient3878"
       id="radialGradient4104"
       gradientUnits="userSpaceOnUse"
       gradientTransform="matrix(0.0263989,-0.02107277,0.07933143,0.09938239,9.6059958,227.86329)"
       cx="717.89478"
       cy="441.91949"
       fx="717.89478"
       fy="441.91949"
       r="10.242812" />
    <radialGradient
       inkscape:collect="always"
       xlink:href="#linearGradient3902"
       id="radialGradient4110"
       gradientUnits="userSpaceOnUse"
       gradientTransform="matrix(0.03947034,-0.03205818,0.05278559,0.06499014,5.127397,241.35705)"
       spreadMethod="reflect"
       cx="460.49261"
       cy="366.14862"
       fx="460.49261"
       fy="366.14862"
       r="20.700745" />
    <radialGradient
       inkscape:collect="always"
       xlink:href="#linearGradient3912"
       id="radialGradient4112"
       gradientUnits="userSpaceOnUse"
       gradientTransform="matrix(0.06853917,-0.04313709,0.07572706,0.12032034,-16.736627,225.75815)"
       cx="450.5994"
       cy="369.50882"
       fx="450.5994"
       fy="369.50882"
       r="19.725601" />
    <filter
       inkscape:collect="always"
       id="filter3890"
       color-interpolation-filters="sRGB">
      <feGaussianBlur
         inkscape:collect="always"
         stdDeviation="2.9489275"
         id="feGaussianBlur3892" />
    </filter>
    <linearGradient
       inkscape:collect="always"
       xlink:href="#linearGradient3902"
       id="linearGradient3883"
       x1="418.92856"
       y1="396.57141"
       x2="438.78571"
       y2="429.14285"
       gradientUnits="userSpaceOnUse"
       spreadMethod="reflect"
       gradientTransform="matrix(0.0717423,0,0,0.0717423,1.5375548,231.24488)" />
    <filter
       height="1.0539873"
       y="-0.026993669"
       width="1.0432081"
       x="-0.021604054"
       id="filter1534"
       style="color-interpolation-filters:sRGB"
       inkscape:collect="always">
      <feGaussianBlur
         id="feGaussianBlur1536"
         stdDeviation="0.50433306"
         inkscape:collect="always" />
    </filter>
    <filter
       height="1.0845935"
       y="-0.042296749"
       width="1.064834"
       x="-0.032416985"
       id="filter963"
       style="color-interpolation-filters:sRGB"
       inkscape:collect="always">
      <feGaussianBlur
         id="feGaussianBlur965"
         stdDeviation="0.16178234"
         inkscape:collect="always" />
    </filter>
  </defs>
  <sodipodi:namedview
     inkscape:document-rotation="0"
     showguides="false"
     units="px"
     inkscape:window-maximized="1"
     inkscape:window-y="0"
     inkscape:window-x="0"
     inkscape:window-height="1056"
     inkscape:window-width="1920"
     inkscape:snap-global="false"
     inkscape:snap-nodes="false"
     inkscape:object-nodes="false"
     inkscape:snap-others="false"
     inkscape:snap-grids="false"
     inkscape:snap-to-guides="false"
     showgrid="false"
     inkscape:current-layer="layer1"
     inkscape:document-units="px"
     inkscape:cy="127.5"
     inkscape:cx="127.5"
     inkscape:zoom="3.4509804"
     inkscape:pageshadow="2"
     inkscape:pageopacity="0"
     borderopacity="1.0"
     bordercolor="#666666"
     pagecolor="#ff0000"
     id="base" />
  <metadata
     id="metadata5">
    <rdf:RDF>
      <cc:Work>
        <dc:format>image/svg+xml</dc:format>
        <dc:type
           rdf:resource="http://purl.org/dc/dcmitype/StillImage" />
        <dc:title />
      </cc:Work>
    </rdf:RDF>
  </metadata>
  <g
     transform="translate(0,-229.53126)"
     id="layer1"
     inkscape:groupmode="layer"
     inkscape:label="Layer 1">
    <g
       style="filter:url(#filter1534)"
       transform="translate(63.526754,1.7435744)"
       id="g1528">
      <path
         style="fill:#000000;fill-opacity:0.23809527;stroke:none;stroke-width:0.08098411"
         d="m -35.247885,270.54404 5.962021,-4.91867 0.198734,-5.4155 4.024363,-3.47784 c 0,0 8.992715,4.37215 8.744297,4.42183 -0.248417,0.0497 -5.14764,1.93326 -6.309805,2.73259 -1.622002,1.11561 -1.901206,2.10567 0.397468,3.0307 2.173583,0.87468 3.948779,2.04816 7.104741,2.18607 l -5.216768,2.43449 -3.676579,4.71993 c 0.20386,1.08028 0.686932,1.95749 2.335125,1.98734 l 6.409172,-2.3848 5.6639192,-3.13007 c 1.2300806,-1.87149 -2.7342572,-5.27028 -1.5898722,-6.80664 -1.632924,1.0698 -5.533344,0.64559 -8.148095,-1.34145 l 6.756957,-3.32879 -5.465185,-2.68291 -3.924997,-2.7326 3.577212,-2.63322 2.037024,0.49683 4.570882,-2.83196 0.645885,-1.54019 c 1.6355925,-0.6187 2.812107,-1.92603 3.9249971,-3.32879 1.3580161,-0.45174 2.7160313,-0.57963 4.0740474,-2.28544 1.5453218,-2.91382 -0.4623302,-3.60703 -1.9907854,-4.59974 l -20.4596911,13.81488 -17.663754,12.4526 -3.958742,4.73522 1.852291,1.23047 -13.244571,11.09358 -0.0053,1.51337 14.559366,-12.34148 1.053942,0.49864 z"
         id="path4032"
         inkscape:connector-curvature="0"
         sodipodi:nodetypes="ccccsssccccccccccccccccccccccccccc" />
      <path
         style="fill:#000000;fill-opacity:0.23809527;stroke:none;stroke-width:0.08098411"
         d="m -25.511719,253.05859 c -5.907488,4.1967 -11.887897,8.31506 -17.748328,12.56319 -1.243396,1.48675 -2.486791,2.9735 -3.730187,4.46025 0.388543,0.53638 2.432079,0.9809 1.47536,1.5906 -4.314703,3.61433 -8.629407,7.22866 -12.94411,10.84299 -0.354663,1.75466 0.70541,0.46939 1.449169,-0.1362 4.306628,-3.65125 8.613485,-7.30222 12.919971,-10.95364 0.812258,0.65729 1.728422,0.47066 2.653701,0.20703 2.068408,-0.47028 4.227308,-0.75063 6.240228,-1.33737 1.918169,-1.58285 3.836339,-3.16571 5.754509,-4.74856 0.101428,-1.81106 0.06534,-3.68756 0.25,-5.45899 1.368628,-1.18148 2.736179,-2.36421 4.105468,-3.54492 2.967424,1.50128 6.020973,2.85646 8.90625,4.50391 -0.16013,0.55138 -1.346357,0.56897 -1.895025,0.94332 -1.873549,0.87349 -4.117923,1.35003 -5.505365,2.98441 -0.589324,1.07761 0.950779,1.60097 1.706628,1.92216 2.330323,1.09558 4.752059,2.11608 7.361731,2.09151 -1.923527,0.96069 -3.979807,1.7498 -5.827994,2.803 -1.169314,1.50186 -2.338629,3.00373 -3.507943,4.5056 0.08966,1.47216 1.846297,2.26565 3.031378,1.45494 2.753619,-1.05902 5.612806,-1.88817 8.114531,-3.49571 0.993782,-0.6101 2.142837,-1.06421 3.0435439,-1.76783 0.4846388,-1.62847 -0.9376729,-3.00085 -1.4973519,-4.44704 -0.245443,-0.54485 -0.509301,-1.15605 -0.373742,-1.7639 -2.752287,0.95268 -5.868553,-0.0361 -8.130859,-1.71875 2.235664,-1.1029 4.472766,-2.2029 6.708984,-3.30468 -2.56415,-1.309 -5.281408,-2.35826 -7.540645,-4.18514 -0.362881,-0.5169 -2.343914,-1.01293 -1.328623,-1.546 1.155275,-0.80205 2.278705,-1.77138 3.453252,-2.47199 0.95189,0.14653 1.991254,0.84202 2.782218,-0.0214 1.213401,-0.82877 2.632773,-1.48174 3.72254,-2.41602 0.323642,-0.65443 0.386254,-1.55028 1.235477,-1.68954 1.3819628,-0.6953 2.3698131,-1.94431 3.3554686,-3.07617 1.9444223,-0.4331 4.29303,-1.47061 4.4985967,-3.73819 0.1969672,-1.45164 -1.346898,-2.16938 -2.3677373,-2.80674 -6.790365,4.58529 -13.580729,9.17058 -20.371094,13.75586 z"
         id="path1512"
         inkscape:connector-curvature="0" />
      <path
         style="fill:#000000;fill-opacity:0.23809527;stroke:none;stroke-width:0.08098411"
         d="m -25.419922,253.1875 c -5.934938,4.23964 -11.981262,8.33075 -17.834245,12.67257 -1.174392,1.40472 -2.348785,2.80943 -3.523177,4.21415 0.462042,0.49462 1.80852,0.59359 1.617188,1.47266 -4.3428,3.71964 -8.775556,7.36218 -13.152344,11.05273 -0.323136,0.96147 0.465818,0.42223 0.844517,-0.0317 4.445771,-3.79029 8.914397,-7.56184 13.370327,-11.3433 1.274651,1.07933 2.942027,0.001 4.353195,-0.10206 1.563826,-0.3808 3.287492,-0.44571 4.715946,-1.17224 1.810937,-1.49386 3.621875,-2.98771 5.432812,-4.48156 0.12744,-1.8251 0.0055,-3.71949 0.300781,-5.50195 1.395321,-1.20427 2.789577,-2.40977 4.185547,-3.61328 3.047074,1.53462 6.164572,2.93332 9.130859,4.62304 -0.388388,0.97315 -1.716843,0.7889 -2.469957,1.35005 -1.751115,0.79427 -3.892418,1.251 -5.067152,2.89214 -0.0781,1.18302 1.501614,1.30287 2.285426,1.79955 2.304252,1.09414 4.731693,1.90466 7.298558,1.84108 -2.081509,1.15384 -4.434573,1.8891 -6.400258,3.17994 -1.116581,1.43416 -2.233161,2.86832 -3.349742,4.30248 0.09451,1.39021 1.905001,2.02075 2.957248,1.20601 3.047218,-1.08808 6.118127,-2.1874 8.857145,-3.93995 0.689879,-0.46508 1.741545,-0.69124 2.1192011,-1.44184 0.1950683,-2.12289 -1.9655001,-3.55214 -1.9726561,-5.66602 -2.859693,0.86503 -5.951789,-0.21296 -8.248047,-1.9668 2.219541,-1.09281 4.438779,-2.18624 6.658203,-3.27929 -2.674735,-1.31656 -5.473696,-2.50485 -7.771484,-4.43555 -0.416208,-0.24255 -1.620452,-0.71037 -0.980469,-1.33008 1.268135,-0.81694 2.39646,-1.92682 3.728516,-2.59375 0.914495,0.18817 2.050292,0.79914 2.795135,-0.0847 1.180505,-0.86771 2.723078,-1.37103 3.642365,-2.51493 0.185262,-0.75903 0.636581,-1.48492 1.447265,-1.64844 1.2717033,-0.71684 2.1593356,-1.92591 3.1386721,-2.95312 1.9909633,-0.38819 4.498031,-1.64265 4.3840984,-4.00397 -0.1706021,-1.13928 -1.3607721,-1.64627 -2.2102703,-2.19916 -6.7610672,4.56576 -13.5221352,9.13151 -20.2832032,13.69727 z"
         id="path1516"
         inkscape:connector-curvature="0" />
      <path
         style="fill:#000000;fill-opacity:0.23809527;stroke:none;stroke-width:0.08098411"
         d="m -25.328125,253.31641 c -5.960502,4.28237 -12.080391,8.35151 -17.922143,12.78585 -1.102124,1.31812 -2.204248,2.63625 -3.306373,3.95438 0.587145,0.37506 1.864006,0.67564 1.5,1.61133 -4.342482,3.70901 -8.74785,7.34353 -13.117187,11.02148 -0.109538,0.69245 0.806287,-0.54771 1.085523,-0.65329 4.323854,-3.67533 8.650941,-7.34687 12.982836,-11.01272 1.380684,1.16614 3.119136,-0.0294 4.653764,-0.12714 1.944593,-0.40781 4.156383,-0.47481 5.561086,-2.09203 1.380206,-1.13853 2.760413,-2.27707 4.140619,-3.4156 0.145153,-1.83979 -0.04382,-3.75008 0.351562,-5.54297 1.422005,-1.22706 2.842987,-2.45531 4.265626,-3.68164 3.127847,1.57236 6.320599,3.01379 9.363281,4.74805 -0.446479,1.22487 -1.989541,1.03825 -2.909454,1.68459 -1.631219,0.71559 -3.563718,1.16679 -4.676484,2.67674 0.136919,1.18726 1.682313,1.16384 2.488148,1.73514 2.339736,1.11742 4.910717,1.81747 7.519665,1.70626 -2.237029,1.35437 -4.858164,2.03408 -6.972539,3.56861 -1.065144,1.36776 -2.130287,2.73551 -3.19543,4.10327 0.152749,1.33963 1.934272,1.73161 2.885565,0.95759 3.26594,-1.1095 6.472264,-2.44506 9.403554,-4.26556 0.761771,-0.28342 1.6696912,-0.88065 1.257198,-1.81785 -0.372217,-1.62241 -1.803547,-2.84653 -1.89788,-4.55778 -2.953238,0.80348 -6.079949,-0.36888 -8.408203,-2.19726 2.20211,-1.08207 4.402189,-2.16829 6.603516,-3.25195 -2.708314,-1.26667 -5.412853,-2.60573 -7.774547,-4.44971 -0.548885,-0.19274 -1.364317,-0.89351 -0.705922,-1.44678 1.310432,-0.82447 2.433403,-2.0211 3.855469,-2.61719 0.911604,0.2326 2.068481,0.75325 2.799275,-0.14976 1.323465,-0.98083 3.297124,-1.45033 3.796428,-3.19789 0.592983,-0.96067 1.8799463,-1.04231 2.5525868,-1.95512 0.8612385,-0.69054 1.3836053,-2.02481 2.5548352,-2.08199 1.7125411,-0.45633 3.7581213,-1.80298 3.4726562,-3.82227 -0.2728468,-0.93958 -1.2599257,-1.36371 -2.0117187,-1.85547 -6.7317705,4.54623 -13.4635415,9.09245 -20.1953125,13.63868 z"
         id="path1520"
         inkscape:connector-curvature="0" />
    </g>
    <path
       transform="matrix(0.0717423,0,0,0.0717423,1.5375548,253.05454)"
       sodipodi:nodetypes="ccccc"
       inkscape:connector-curvature="0"
       id="path3888"
       d="m 255.01731,244.05536 12.9827,4.63668 -251.307968,211.43253 2.782006,-15.76471 z"
       style="fill:#000000;fill-opacity:1;stroke:none;filter:url(#filter3890)" />
    <path
       sodipodi:nodetypes="sscccccccccccccccccccccccccccccccccccccccccccccccccccccccccccccccccccccccccccccsscccsccccsssccccccccccccccccccccccccscccccccccccccccccccc"
       inkscape:connector-curvature="0"
       id="path2989"
       d="m 55.796634,234.36707 c -0.208044,0.002 -0.404826,0.0217 -0.589665,0.0607 -3.160149,0.66704 -5.536079,3.4221 -8.12625,7.14684 -1.302379,0.29096 -2.849715,1.04424 -3.730331,2.4599 -3.71834,-2.9357 -7.385282,-4.96269 -10.824032,-2.93568 l -2.065095,2.06257 -0.582074,0.50362 0.05315,0.1316 -0.106292,0.10629 -0.159437,0.26573 0.159437,0.34418 -0.503619,0.39733 v 0.29104 l 0.184745,0.29103 -0.36949,0.47578 v 0.45048 l 0.397328,0.29103 -0.422636,0.29104 0.05062,0.71367 0.478312,0.29104 -0.37202,0.50362 0.08098,0.66053 0.635219,0.34418 -0.344183,0.47578 0.263199,0.8225 0.716203,0.1569 -0.397328,0.58208 0.237891,0.60991 0.87311,0.39733 -0.422636,0.74151 0.501089,0.58207 0.954094,0.0785 -0.50362,0.92626 v 0.26573 l 0.397328,0.21005 h -2.196694 l -0.159437,0.45047 -1.032547,0.29104 h -0.501089 l -0.05315,0.45048 0.554235,0.71367 -1.3742,0.21258 c -1.560845,0.0582 -2.684001,0.24171 -3.257079,0.58207 l -4.631279,3.46714 -0.475782,0.66052 -2.11824,4.49968 c -0.962367,2.63693 1.648922,6.28783 5.269028,5.34748 l 5.000769,-1.35142 4.155497,-3.67718 c 0.85878,-1.04029 1.142266,-2.20965 1.376731,-3.38868 l 0.738979,0.10629 0.08098,-1.13884 1.057855,0.15944 0.212584,-1.66777 0.397328,-0.0253 0.422636,-1.13883 1.032547,-0.39733 -0.265729,1.27044 0.688365,0.42263 0.766819,-0.2632 0.106291,0.95157 0.528928,0.31887 0.74151,-0.10629 0.106292,0.71367 0.528928,0.31888 0.688364,-0.26573 0.237891,0.68836 0.582073,0.26573 0.528928,-0.13413 0.635219,0.50362 0.900948,-0.0253 0.184745,0.34419 0.766819,0.21005 0.926256,-0.42264 1.032547,2.83192 c 0.497045,1.15553 1.241548,1.9409 2.302986,2.24984 l 1.295746,-0.60991 0.531458,-0.60739 0.792126,-0.10629 c -0.02074,-0.0933 2.35824,-1.72848 3.705023,-1.85251 2.899524,-0.26703 6.046699,-1.53346 7.860521,-3.81131 0.687855,-0.86383 0.74151,-3.22924 0.74151,-3.22924 1.34444,-1.56898 -0.142418,-3.94288 -2.275147,-3.38615 l -0.50362,-0.29104 c -2.284184,-1.20955 -6.292963,0.67822 -8.045266,3.83662 -0.687135,1.23852 -2.938205,3.06981 -2.938205,3.06981 2.266922,-3.72213 1.29688,-7.54341 -1.004708,-11.40611 l 0.845271,-0.42517 c 1.038926,-0.58576 1.852494,-1.29296 2.118241,-2.30045 0.91502,-1.06071 2.568136,-1.42164 3.864461,-2.22453 2.129061,-1.31866 5.292019,-3.36211 5.635987,-5.29181 0.700597,-3.93043 -3.120329,-6.4148 -5.57525,-6.38762 z m -20.147328,10.22424 0.131599,0.36949 h 0.291036 l 0.582073,-0.34165 v 0.47578 l 0.344183,0.1316 0.63522,-0.26573 0.106291,0.081 0.02531,0.55423 0.23789,0.18728 0.663057,-0.18728 0.156907,0.21259 -0.05062,0.55676 0.394798,0.0253 0.13413,0.45047 c -0.957206,1.0101 -1.377854,1.9706 -1.561475,2.91037 -0.9641,-1.75755 -1.946988,-3.50396 -3.25708,-5.05392 l 0.688365,0.0532 z m -2.700314,2.3283 c 2.04602,0.84753 2.066104,3.48766 3.73033,4.95015 -0.09237,0.76663 -0.489566,1.25093 -1.427345,1.2426 -1.820366,-1.21198 -1.887285,-3.84367 -2.302985,-6.19275 z m 10.267266,6.93426 c 0.525767,0.40476 1.032521,0.83257 1.581204,1.21007 0.548684,0.3775 1.139297,0.70468 1.832783,0.90817 l -0.263198,0.45048 0.212583,0.39479 0.447944,0.0531 -0.36949,0.63522 0.07845,0.26573 0.372021,0.1316 -0.372021,0.55676 v 0.31635 l 0.237891,0.23789 -0.582074,0.39733 -1.718381,-0.2632 -0.318875,0.0784 c -0.835036,-1.79321 0.477959,-2.5008 -1.13884,-5.37279 z m -1.905657,1.72091 c 0.722869,0.59423 0.702693,1.51918 0.822495,2.38144 -0.08564,1.02075 0.100781,1.77072 0.291037,2.51557 -1.608825,-0.89526 -3.1615,-1.87308 -4.421227,-3.25708 l 1.283092,-1.16415 c 0.633019,0.34965 1.321589,0.0125 2.024603,-0.47578 z"
       style="fill:#222222;fill-opacity:1;stroke:#000000;stroke-width:0.08098412px;stroke-linecap:butt;stroke-linejoin:miter;stroke-opacity:1" />
    <path
       transform="matrix(0.08098411,0,0,0.08098411,0.97169466,232.44176)"
       sodipodi:nodetypes="cssssccsssc"
       inkscape:connector-curvature="0"
       id="path3759"
       d="m 701.28569,43.298867 c 23.06137,-12.8717 39.04075,15.51691 24.45107,30.11177 -8.30005,8.30298 -13.25225,8.84175 -26.34491,12.69964 -57.81492,17.035773 -30.18148,24.161173 -41.02427,34.681253 -3.93338,3.81631 -16.71628,7.45713 -25.00934,11.97119 -7.04145,3.83278 -5.21739,23.47826 -5.21739,23.47826 -5.34798,-12.83325 -12.94175,-24.54361 -26.95652,-33.04347 0,0 17.3296,7.83234 18.6483,0.3616 1.55461,-8.80715 3.99015,-24.032203 14.74751,-29.111933 12.16166,-5.74285 32.4821,-20.07134 35.91868,-31.04162 6.1094,-19.50244 17.5232,-25.2335 30.78687,-20.10669 z"
       style="fill:url(#radialGradient4092);fill-opacity:1;stroke:none;filter:url(#filter4050)" />
    <path
       transform="matrix(0.08098411,0,0,0.08098411,0.97169466,232.44176)"
       sodipodi:nodetypes="cccc"
       inkscape:connector-curvature="0"
       id="path3773"
       d="m 572.6336,112.44445 c 29.81108,-33.297113 47.1792,-77.207343 104.24837,-87.254903 14.63328,2.31398 -18.99771,35.34158 -50.98039,67.32026 -30.3845,25.286963 -40.43262,20.553563 -53.26798,19.934643 z"
       style="fill:url(#radialGradient4094);fill-opacity:1;stroke:none;filter:url(#filter4046)" />
    <path
       sodipodi:nodetypes="ccccc"
       inkscape:connector-curvature="0"
       id="path3783"
       d="m 47.425316,244.08865 c 1.203625,0.83816 2.245457,1.90033 2.540677,3.99628 0.734567,-0.98361 1.429489,-1.97442 1.402666,-3.09645 -0.01991,-0.60829 -0.381039,-0.93223 -0.820427,-1.19095 -1.049125,0.80073 -2.39137,-0.72966 -3.122916,0.29112 z"
       style="fill:url(#radialGradient4096);fill-opacity:1;stroke:none;stroke-width:0.0717423" />
    <path
       sodipodi:nodetypes="ccc"
       inkscape:connector-curvature="0"
       id="path3793"
       d="m 44.302398,244.88261 c 1.559107,1.47395 3.000848,3.15915 4.207999,5.26662 0.510847,-3.17418 -0.629048,-5.12453 -4.207999,-5.26662 z"
       style="fill:url(#linearGradient3801);fill-opacity:1;stroke:none;stroke-width:0.0717423" />
    <path
       inkscape:connector-curvature="0"
       id="path3803"
       d="m 35.15834,240.36242 c -0.956212,0.002 -1.825058,0.21147 -2.553531,0.65547 -1.978037,1.748 -2.0502,4.95391 -0.688365,8.41729 2.298055,5.84434 6.340984,10.76234 13.23331,13.94698 1.837288,0.66782 3.42977,0.23185 4.843862,-1.00471 3.292754,-6.01943 -1.65879,-12.92488 -3.601262,-15.32371 -3.284888,-4.05665 -7.818977,-6.69832 -11.234014,-6.69132 z m 0.693425,0.76682 c 2.915299,-0.0585 6.886211,2.29049 10.171099,6.34713 1.942472,2.39884 6.124155,8.48269 3.016659,13.78755 -1.414094,1.23656 -2.477647,1.14613 -4.314935,0.47831 -6.892327,-3.18464 -9.530687,-6.62215 -11.828742,-12.46649 -1.361836,-3.46338 -1.183382,-5.76834 0.794656,-7.51634 0.612688,-0.40926 1.34498,-0.61378 2.161263,-0.63016 z"
       style="fill:#ffffff;fill-opacity:0.8739496;stroke:none;stroke-width:0.0717423" />
    <path
       sodipodi:nodetypes="sccccccssccccccsscccccccccssccccccsccccccccccccccccc"
       inkscape:connector-curvature="0"
       id="path3822"
       d="m 35.469622,242.14914 c -1.416626,0.0193 -2.508566,0.72474 -3.368433,1.91325 -0.589526,2.78822 0.512232,5.34323 1.905657,7.83268 0.983969,1.64626 1.765461,3.59887 3.113993,4.80765 2.469078,2.95785 8.232429,6.1997 10.779844,5.33055 1.196564,-0.96042 1.359412,-2.49637 1.298277,-4.1555 -1.298275,-6.95895 -5.788421,-11.42896 -11.221361,-15.16428 -0.934952,-0.39499 -1.765935,-0.57447 -2.507977,-0.56435 z m 0.650404,1.51339 c 1.647778,-0.0356 3.003004,0.51289 3.922668,1.93349 0.139708,0.27348 0.159183,0.54902 -0.05315,0.8225 -0.88959,0.86794 -1.485764,1.83439 -1.113532,3.12295 l -1.083162,0.23789 c -0.894361,-1.81711 -1.973183,-3.55451 -3.360841,-5.16021 -0.09144,-0.26465 -0.02347,-0.53 0.237891,-0.79466 0.504109,-0.0954 0.988744,-0.15199 1.450122,-0.16196 z m -2.510508,2.24731 c 0.327244,0.004 0.701474,0.20033 1.00724,0.61244 0.946894,1.63987 1.618235,3.37306 3.148258,4.81855 l 0.291036,-1.37673 1.298277,-0.36949 c 0.201078,1.28912 0.288473,2.57001 2.406746,3.99606 l -2.328293,0.50109 c -1.151689,-0.79067 -2.555336,-1.5021 -3.732861,-0.95156 -0.717849,0.0934 -1.079843,-0.61028 -1.533637,-1.111 -0.966117,-1.86681 -0.920474,-3.62169 -1.323584,-5.42594 0.08442,-0.45556 0.395942,-0.69841 0.766818,-0.69342 z m 8.283156,0.51374 c 0.09663,0.007 0.216538,0.0661 0.372021,0.20499 2.196629,1.76926 3.783393,3.87721 4.709733,6.35219 -0.02712,0.85784 -0.394708,0.52552 -0.688366,0.45047 l -3.016658,-2.30298 c -0.709553,-1.92556 -1.870827,-2.03649 -2.98882,-2.32829 0.631252,-0.55839 1.25945,-1.11851 1.270439,-2.09041 0.08547,-0.15918 0.180596,-0.29685 0.341651,-0.28597 z m 1.323584,7.43029 c 0.412732,-0.58874 0.328948,-0.70547 0.511797,-1.21636 0.988587,1.00503 2.01525,1.97676 3.604063,2.4566 0.436596,0.16977 0.452737,0.48292 0.666135,0.89551 0.487059,2.02153 -0.182315,2.93598 -0.659603,3.53615 l -0.946296,-0.11436 -1.693074,-0.34419 -0.36949,0.081 c -0.842471,-1.93417 0.157757,-3.14031 -1.113532,-5.29434 z m -1.48049,0.52893 c 1.797286,1.29523 0.897916,3.5137 1.667766,5.24119 0.354678,-0.15651 0.431872,-0.54033 1.508329,-0.10629 l 1.295746,2.46242 c -1.358732,-0.4762 -2.78871,-0.88327 -3.811314,-1.6956 -2.624687,-1.30558 -4.196898,-2.87327 -5.610681,-4.68443 l -0.184745,-0.9794 c 1.736896,0.0188 3.835962,1.43255 5.134899,-0.23789 z"
       style="fill:#ffffff;fill-opacity:0.7563026;stroke:none;stroke-width:0.0717423" />
    <path
       sodipodi:nodetypes="cccscccccc"
       inkscape:connector-curvature="0"
       id="path3841"
       d="m 44.355329,259.22686 3.466967,0.39698 1.081281,3.31811 c -1.363965,0.7442 -1.267015,2.26887 -0.640678,3.51011 0.313168,0.62061 1.546077,1.90152 2.328882,1.53235 0.35697,-0.11206 0.528979,0.038 0.359413,0.14056 l -0.985201,0.68236 c -0.719703,-0.087 -1.060724,-0.50541 -1.217408,-1.08508 l -3.758086,-8.12488 c -0.211724,-0.4147 -0.423447,-0.26862 -0.63517,-0.37051 z"
       style="fill:#cecece;fill-opacity:1;stroke:none;stroke-width:0.0717423" />
    <path
       sodipodi:nodetypes="ccc"
       inkscape:connector-curvature="0"
       id="path3843"
       d="m 48.457465,263.43486 c 3.714265,-0.20966 5.708828,-10.47299 12.756321,-7.86023 -5.796229,-0.82406 -9.652778,8.11157 -12.756321,7.86023 z"
       style="fill:url(#linearGradient3851);fill-opacity:1;stroke:none;stroke-width:0.0717423" />
    <path
       style="fill:url(#linearGradient3855);fill-opacity:1;stroke:none;stroke-width:0.0717423"
       d="m 50.998143,268.1457 c -0.480215,-1.21582 5.86629,-6.2539 12.676926,-8.73358 -1.14882,7.81319 -9.110199,5.25262 -12.676926,8.73358 z"
       id="path3853"
       inkscape:connector-curvature="0"
       sodipodi:nodetypes="ccc" />
    <path
       sodipodi:nodetypes="ccccc"
       inkscape:connector-curvature="0"
       id="path3876"
       d="m 62.616453,256.34213 c -0.350793,-0.0854 0.01503,-0.40188 0.502842,-0.39698 0.481049,0.25791 0.675893,0.65892 0.926289,1.03215 0.09451,0.83236 -0.536555,0.64833 -0.370515,1.08508 -0.225426,-0.74988 -0.333083,-1.66283 -1.058616,-1.72025 z"
       style="fill:url(#radialGradient4104);fill-opacity:1;stroke:none;stroke-width:0.0717423" />
    <path
       sodipodi:nodetypes="cccscc"
       inkscape:connector-curvature="0"
       id="path3886"
       d="m 61.406841,255.81148 c -1.219905,0.77639 -0.546448,1.63693 -10e-7,2.49182 0.634019,0.70635 1.343975,1.42379 2.066386,1.018 -0.01765,0.62204 -0.392096,0.75269 -0.911641,0.47102 -0.968919,-0.52532 -1.784693,-1.22814 -2.279102,-2.70454 -0.121812,-0.74145 -0.469112,-1.62639 1.124358,-1.2763 z"
       style="fill:url(#linearGradient3894);fill-opacity:1;stroke:#000000;stroke-width:0.08098412px;stroke-linecap:butt;stroke-linejoin:miter;stroke-opacity:1" />
    <path
       style="fill:url(#linearGradient3898);fill-opacity:1;stroke:none;stroke-width:0.0717423"
       d="m 40.660348,249.1993 c -1.219904,0.77638 -0.731625,1.85913 -0.185178,2.71403 0.633643,0.70608 0.741382,1.29846 2.399705,1.56118 -0.425043,0.25169 -0.749065,0.23227 -1.269649,-0.0475 -0.985056,-0.52934 -1.665191,-1.42664 -2.05689,-2.87737 -0.121812,-0.74145 -0.308625,-2.14488 1.112012,-1.35036 z"
       id="path3896"
       inkscape:connector-curvature="0"
       sodipodi:nodetypes="cccscc" />
    <path
       sodipodi:nodetypes="ccc"
       inkscape:connector-curvature="0"
       id="path3900"
       d="m 40.278609,248.96563 c 2.834992,0.47289 2.854204,4.05588 2.728276,4.45659 1.770699,-1.62365 -1.222679,-5.08791 -2.728276,-4.45659 z"
       style="fill:url(#radialGradient4110);fill-opacity:1;stroke:none;stroke-width:0.0717423" />
    <path
       sodipodi:nodetypes="cccc"
       inkscape:connector-curvature="0"
       id="path3910"
       d="m 40.661308,249.20019 c 1.648894,0.73849 1.96527,2.502 2.370267,4.19734 -1.079072,0.17184 -1.733791,-0.61112 -2.431992,-1.29624 -0.597675,-0.93505 -1.203457,-1.86969 0.06172,-2.9011 z"
       style="fill:url(#radialGradient4112);fill-opacity:1;stroke:none;stroke-width:0.0717423" />
    <path
       sodipodi:nodetypes="sssss"
       inkscape:connector-curvature="0"
       id="path3936"
       d="m 17.027733,266.58239 c 0.520732,-1.48071 3.412267,-2.63544 5.471086,-0.13816 1.206691,1.46368 1.847556,3.1636 0.525004,5.1395 -0.472868,0.70647 -2.998258,0.88631 -4.0895,0.0276 -1.34643,-1.05947 -2.559717,-3.17181 -1.90659,-5.02898 z"
       style="fill:#000000;fill-opacity:0.04621851;stroke:#000000;stroke-width:0.08098412px;stroke-linecap:butt;stroke-linejoin:miter;stroke-opacity:1" />
    <path
       sodipodi:nodetypes="cccsc"
       inkscape:connector-curvature="0"
       id="path3938"
       d="m 19.98433,268.04687 c 0.918338,0.33426 1.40158,0.90057 1.215797,1.8237 l 1.022375,0.11052 c 1.15598,-0.7539 -1.513651,-3.95771 -1.989486,-3.53686 -0.08279,0.0732 -0.248686,1.60264 -0.248686,1.60264 z"
       style="fill:url(#linearGradient3946);fill-opacity:1;stroke:none;stroke-width:0.0717423" />
    <path
       style="fill:url(#linearGradient3950);fill-opacity:1.0;stroke:none;stroke-width:0.0717423"
       d="m 18.75173,269.15267 c -0.494693,-0.22755 -0.204699,-1.56737 0.718425,-1.38159 l 0.110527,-1.02237 c -0.960756,-1.11461 -2.60901,1.69707 -1.685536,2.07238 0.102393,0.0416 0.856584,0.33158 0.856584,0.33158 z"
       id="path3948"
       inkscape:connector-curvature="0"
       sodipodi:nodetypes="cccsc" />
    <path
       sodipodi:nodetypes="cccsc"
       inkscape:connector-curvature="0"
       id="path3952"
       d="m 20.994419,270.08118 c 0.494693,0.22755 -0.486095,1.26342 -1.298692,0.46974 l 0.16579,0.85659 c 0.960757,1.11461 2.91296,-0.61943 1.989487,-0.99475 -0.102394,-0.0416 -0.856585,-0.33158 -0.856585,-0.33158 z"
       style="fill:url(#linearGradient3954);fill-opacity:1.0;stroke:none;stroke-width:0.0717423" />
    <path
       style="fill:url(#linearGradient3968);fill-opacity:1;stroke:none;stroke-width:0.0717423"
       d="m 27.334375,270.61662 -4.559239,1.2158 c 3.850816,-4.0971 -3.008293,-8.62306 -5.471085,-5.77503 l 2.030933,-4.26911 c 5.431862,-3.48829 11.07801,3.37329 7.999391,8.82834 z"
       id="path3966"
       inkscape:connector-curvature="0"
       sodipodi:nodetypes="ccccc" />
    <path
       sodipodi:nodetypes="ccccc"
       inkscape:connector-curvature="0"
       id="path3956"
       d="m 27.334375,270.61662 -4.559239,1.2158 c 3.850816,-4.0971 -3.008293,-8.62306 -5.471085,-5.77503 l 2.030933,-4.26911 c 5.431862,-3.48829 11.07801,3.37329 7.999391,8.82834 z"
       style="fill:url(#linearGradient3964);fill-opacity:1;stroke:none;stroke-width:0.0717423" />
    <path
       sodipodi:nodetypes="ccccc"
       inkscape:connector-curvature="0"
       id="path3970"
       d="m 19.597486,261.60867 0.718426,-0.55263 c 5.231518,-2.47677 10.508639,4.10777 7.792152,8.89742 l -0.552635,0.6079 c 2.959781,-7.14728 -3.429262,-11.04529 -7.957943,-8.95269 z"
       style="fill:url(#linearGradient3978);fill-opacity:1;stroke:none;stroke-width:0.0717423" />
    <path
       style="fill:url(#linearGradient3982);fill-opacity:1;stroke:none;stroke-width:0.0717423"
       d="m 23.548826,258.65208 0.718425,-0.55264 c 5.231519,-2.47677 10.398113,3.25118 7.681626,8.04084 l -0.303949,0.66316 c 2.957956,-7.14874 -3.915307,-10.52227 -8.096102,-8.15136 z"
       id="path3980"
       inkscape:connector-curvature="0"
       sodipodi:nodetypes="ccccc" />
    <rect
       transform="rotate(139.96409)"
       ry="0.60079569"
       y="-219.33224"
       x="157.43066"
       height="1.2015914"
       width="21.403345"
       id="rect3984"
       style="fill:url(#linearGradient3992);fill-opacity:1;stroke:#d1d1d1;stroke-width:0.08098412;stroke-opacity:1" />
    <path
       sodipodi:nodetypes="cccccccccccc"
       inkscape:connector-curvature="0"
       id="path3994"
       d="m 6.4777252,279.77663 1.541528,-0.36669 1.9997068,-1.64073 -1.3340514,0.127 2.6282494,-2.25684 1.160832,0.17028 2.346536,-2.01537 -1.615862,0.19505 2.331162,-1.82649 1.764407,-0.42722 1.60989,-1.31574 -1.68098,0.18889"
       style="fill:none;stroke:#3b3b3b;stroke-width:0.40492055;stroke-linecap:round;stroke-linejoin:round;stroke-miterlimit:4;stroke-dasharray:none;stroke-opacity:0.48739492" />
    <path
       style="fill:none;stroke:#c0c0c0;stroke-width:0.16196823;stroke-linecap:round;stroke-linejoin:round;stroke-miterlimit:4;stroke-dasharray:none;stroke-opacity:0.48739492"
       d="m 6.4926118,279.66498 1.5266414,-0.25504 1.9997068,-1.64073 -1.3340514,0.127 2.6282494,-2.25684 1.160832,0.17028 2.346536,-2.01537 -1.615862,0.19505 2.331162,-1.82649 1.764407,-0.42722 1.60989,-1.31574 -1.68098,0.18889"
       id="path3996"
       inkscape:connector-curvature="0"
       sodipodi:nodetypes="cccccccccccc" />
    <path
       sodipodi:nodetypes="cc"
       inkscape:connector-curvature="0"
       id="path3998"
       d="m 3.9664735,281.90081 2.7994146,-1.46164"
       style="fill:none;stroke:#2e2e2e;stroke-width:0.40492055;stroke-linecap:round;stroke-linejoin:round;stroke-miterlimit:4;stroke-dasharray:none;stroke-opacity:0.56302526" />
    <path
       style="fill:none;stroke:#b3b3b3;stroke-width:0.16196823;stroke-linecap:round;stroke-linejoin:round;stroke-miterlimit:4;stroke-dasharray:none;stroke-opacity:0.63865548"
       d="m 3.9664735,281.90081 2.7994146,-1.46164"
       id="path4000"
       inkscape:connector-curvature="0"
       sodipodi:nodetypes="cc" />
    <path
       inkscape:connector-curvature="0"
       id="path4002"
       d="m 28.740992,256.1778 1.016018,0.52553 0.245246,-0.87588 z"
       style="fill:#d6d6d6;fill-opacity:0.54201678;stroke:none;stroke-width:0.0717423" />
    <path
       sodipodi:nodetypes="cccc"
       style="fill:#d6d6d6;fill-opacity:0.54201678;stroke:none;stroke-width:0.0717423"
       d="m 30.457713,255.68731 1.016019,0.52553 1.261264,-0.84085 z"
       id="path4004"
       inkscape:connector-curvature="0" />
    <path
       inkscape:connector-curvature="0"
       id="path4006"
       d="m 33.926191,262.51916 0.770772,0.21021 0.14014,-1.57658 z"
       style="fill:#d6d6d6;fill-opacity:0.54201678;stroke:none;stroke-width:0.0717423"
       sodipodi:nodetypes="cccc" />
    <path
       sodipodi:nodetypes="cccc"
       style="fill:#d6d6d6;fill-opacity:0.54201678;stroke:none;stroke-width:0.0717423"
       d="m 34.731999,260.69733 0.595598,0.28029 0.455456,-1.12113 z"
       id="path4008"
       inkscape:connector-curvature="0" />
    <path
       sodipodi:nodetypes="ccccc"
       inkscape:connector-curvature="0"
       id="path4010"
       d="m 48.116482,264.45734 c -0.29226,1.6823 0.32896,2.87932 1.914127,3.56424 4.552943,-2.45221 10.013398,-3.0894 13.266876,-8.14054 -1.64019,0.50311 -3.780403,-2.89312 -3.014199,-4.07027 -4.769885,1.35158 -8.239614,5.48922 -12.166804,8.64657 z"
       style="fill:url(#linearGradient4018);fill-opacity:1;stroke:none;stroke-width:0.0717423" />
    <path
       sodipodi:nodetypes="ccccc"
       inkscape:connector-curvature="0"
       id="path4020"
       d="m 20.034929,261.17134 4.372148,-3.22943 c 5.836947,-1.30595 8.879963,4.5032 7.502209,8.59524 l -3.676579,3.27911 c 3.088854,-6.2261 -3.956502,-11.29386 -8.197778,-8.64492 z"
       style="fill:url(#linearGradient4028);fill-opacity:1;stroke:none;stroke-width:0.0717423" />
    <path
       sodipodi:nodetypes="ccc"
       inkscape:connector-curvature="0"
       id="path4030"
       d="m 40.272677,248.94736 c 2.059831,0.62113 2.837943,2.20795 2.769153,4.43283 -0.413458,-2.80619 -1.550948,-3.72473 -2.769153,-4.43283 z"
       style="fill:#3b3b3b;fill-opacity:1;stroke:none;stroke-width:0.0717423" />
    <path
       sodipodi:nodetypes="ccccc"
       inkscape:connector-curvature="0"
       id="path3107"
       d="m 29.824517,258.21998 c 1.28514,0.70371 2.312328,1.74645 2.746705,3.32064 l 0.696925,-0.45095 c 1.041149,-0.68545 -1.174274,-4.29384 -2.582723,-3.40263 z"
       style="fill:url(#linearGradient3883);fill-opacity:1;stroke:none;stroke-width:0.13237984" />
    <path
       sodipodi:nodetypes="cc"
       inkscape:connector-curvature="0"
       id="path3885"
       d="m 32.824494,240.98224 c 6.250675,-4.39881 22.916287,12.02205 17.146313,21.43625"
       style="fill:none;stroke:#ffffff;stroke-width:0.21522689;stroke-linecap:round;stroke-linejoin:round;stroke-miterlimit:4;stroke-dasharray:none;stroke-opacity:0.61764706" />
    <path
       inkscape:connector-curvature="0"
       id="path3887"
       d="m 44.508197,259.26963 3.361143,0.38996 1.429879,3.0826"
       style="fill:none;stroke:#ffffff;stroke-width:0.21522689;stroke-linecap:round;stroke-linejoin:round;stroke-miterlimit:4;stroke-dasharray:none;stroke-opacity:0.58823529" />
    <path
       sodipodi:nodetypes="ccccccccc"
       inkscape:connector-curvature="0"
       id="path1327"
       d="m 59.812184,256.82199 c -3.326714,-0.14691 -4.812914,2.00683 -6.595261,3.79038 -1.061306,1.15635 -2.122613,1.88797 -3.183919,2.65326 l -1.819381,1.21293 0.379037,1.51615 2.122614,-1.51615 c 1.226597,-0.98625 2.130625,-1.75311 2.956494,-2.72908 1.860025,-1.73562 3.859026,-3.22803 6.519453,-3.56295 z"
       style="fill:#ffffff;fill-opacity:0.15873016;stroke:none;stroke-width:0.26458332px;stroke-linecap:butt;stroke-linejoin:miter;stroke-opacity:1;filter:url(#filter963)" />
  </g>
</svg>
