<?xml version="1.0" encoding="UTF-8" standalone="no"?>
<!-- Created with Inkscape (http://www.inkscape.org/) -->

<svg
   xmlns:dc="http://purl.org/dc/elements/1.1/"
   xmlns:cc="http://creativecommons.org/ns#"
   xmlns:rdf="http://www.w3.org/1999/02/22-rdf-syntax-ns#"
   xmlns:svg="http://www.w3.org/2000/svg"
   xmlns="http://www.w3.org/2000/svg"
   xmlns:xlink="http://www.w3.org/1999/xlink"
   xmlns:sodipodi="http://sodipodi.sourceforge.net/DTD/sodipodi-0.dtd"
   xmlns:inkscape="http://www.inkscape.org/namespaces/inkscape"
   width="255"
   height="255"
   viewBox="0 0 67.468749 67.468749"
   version="1.1"
   id="svg8"
   inkscape:version="0.92.5 (2060ec1f9f, 2020-04-08)"
   sodipodi:docname="quake2.svg">
  <defs
     id="defs2">
    <pattern
       inkscape:collect="always"
       xlink:href="#pattern2311"
       id="pattern1844"
       patternTransform="matrix(0.48391092,0,0,0.53002216,-7.8625127,251.47809)" />
    <pattern
       inkscape:collect="always"
       xlink:href="#pattern1612"
       id="pattern1116"
       patternTransform="matrix(0.26458333,0,0,0.26458333,-12.484927,261.97462)" />
    <linearGradient
       inkscape:collect="always"
       id="linearGradient873">
      <stop
         id="stop869"
         stop-color="#37230b"
         stop-opacity="1" />
      <stop
         offset="1"
         id="stop871"
         stop-color="#edba7b"
         stop-opacity="1" />
    </linearGradient>
    <clipPath
       clipPathUnits="userSpaceOnUse"
       id="clipPath2059">
      <path
         d="m -10.099732,231.68531 c 3.5587363,2.50616 4.8319716,-0.58528 2.9651647,-3.064 -3.1818907,-4.22486 -6.4443207,-9.83985 -12.3548527,-15.91305 -2.594516,-2.66865 -11.860659,-7.80827 -11.860659,-7.80827 0,0 -0.115438,-2.18844 -0.09884,-3.064 0.01106,-0.582 -0.565687,-0.56369 -0.889553,-0.29652 -0.782426,0.64546 -2.47097,2.56981 -2.47097,2.56981 l -1.68026,-0.0988 -1.087226,-1.58142 c -0.296516,-0.41055 -0.636056,-0.34641 -0.88955,0 -0.545383,1.84962 -0.878698,3.8848 -3.459359,3.95355 l 4.447747,3.95356 c 7.76561,1.55335 15.578734,5.58545 20.261957,14.33163 0,0 4.526451,5.19364 7.116396,7.01755 z"
         id="path2061"
         sodipodi:nodetypes="csscsscccccccs"
         inkscape:connector-curvature="0"
         stroke-dasharray="none"
         stroke-opacity="1"
         fill="#ffffff"
         fill-rule="evenodd"
         stroke="none"
         stroke-linejoin="miter"
         fill-opacity="1"
         stroke-linecap="butt"
         stroke-width="0.048"
         stroke-miterlimit="4" />
    </clipPath>
    <clipPath
       id="clipPath2059-5"
       clipPathUnits="userSpaceOnUse">
      <path
         stroke-miterlimit="4"
         stroke-width="0.048"
         stroke-linecap="butt"
         fill-opacity="1"
         stroke-linejoin="miter"
         stroke="none"
         fill-rule="evenodd"
         fill="#ffffff"
         stroke-opacity="1"
         stroke-dasharray="none"
         inkscape:connector-curvature="0"
         sodipodi:nodetypes="csscsscccccccs"
         id="path2061-3"
         d="m -10.099732,231.68531 c 3.5587363,2.50616 4.8319716,-0.58528 2.9651647,-3.064 -3.1818907,-4.22486 -6.4443207,-9.83985 -12.3548527,-15.91305 -2.594516,-2.66865 -11.860659,-7.80827 -11.860659,-7.80827 0,0 -0.115438,-2.18844 -0.09884,-3.064 0.01106,-0.582 -0.565687,-0.56369 -0.889553,-0.29652 -0.782426,0.64546 -2.47097,2.56981 -2.47097,2.56981 l -1.68026,-0.0988 -1.087226,-1.58142 c -0.296516,-0.41055 -0.636056,-0.34641 -0.88955,0 -0.545383,1.84962 -0.878698,3.8848 -3.459359,3.95355 l 4.447747,3.95356 c 7.76561,1.55335 15.578734,5.58545 20.261957,14.33163 0,0 4.526451,5.19364 7.116396,7.01755 z" />
    </clipPath>
    <clipPath
       id="clipPath">
      <path
         fill-opacity="0.95"
         stroke="none"
         fill="#1b1b1b"
         sodipodi:nodetypes="csssscc"
         inkscape:connector-curvature="0"
         id="rect5264"
         d="m -515.73002,435.56445 v 5.83767 c 0,9.74315 -7.84377,17.58692 -17.58692,17.58692 h -135.05122 c -9.74315,0 -17.58692,-7.84377 -17.58692,-17.58692 v -5.83767 z" />
    </clipPath>
    <clipPath
       clipPathUnits="userSpaceOnUse"
       id="clipPath2059-7">
      <path
         d="m -10.099732,231.68531 c 3.5587363,2.50616 4.8319716,-0.58528 2.9651647,-3.064 -3.1818907,-4.22486 -6.4443207,-9.83985 -12.3548527,-15.91305 -2.594516,-2.66865 -11.860659,-7.80827 -11.860659,-7.80827 0,0 -0.115438,-2.18844 -0.09884,-3.064 0.01106,-0.582 -0.565687,-0.56369 -0.889553,-0.29652 -0.782426,0.64546 -2.47097,2.56981 -2.47097,2.56981 l -1.68026,-0.0988 -1.087226,-1.58142 c -0.296516,-0.41055 -0.636056,-0.34641 -0.88955,0 -0.545383,1.84962 -0.878698,3.8848 -3.459359,3.95355 l 4.447747,3.95356 c 7.76561,1.55335 15.578734,5.58545 20.261957,14.33163 0,0 4.526451,5.19364 7.116396,7.01755 z"
         id="path2061-5"
         sodipodi:nodetypes="csscsscccccccs"
         inkscape:connector-curvature="0"
         stroke-dasharray="none"
         stroke-opacity="1"
         fill="#ffffff"
         fill-rule="evenodd"
         stroke="none"
         stroke-linejoin="miter"
         fill-opacity="1"
         stroke-linecap="butt"
         stroke-width="0.048"
         stroke-miterlimit="4" />
    </clipPath>
    <clipPath
       clipPathUnits="userSpaceOnUse"
       id="clipPath1162">
      <path
         stroke-miterlimit="4"
         stroke-width="0.071"
         stroke-linecap="round"
         fill-opacity="0.347"
         stroke-linejoin="round"
         stroke="none"
         fill="#000000"
         stroke-opacity="1"
         stroke-dasharray="none"
         inkscape:connector-curvature="0"
         d="m -65.649736,239.84563 c -9.358079,0 -16.951888,7.59381 -16.951888,16.95188 0,9.35808 7.593811,16.94076 16.951888,16.94077 0.292439,0 0.578792,-0.008 0.867614,-0.0222 2.122786,-0.10753 4.148336,-0.60587 5.995453,-1.42378 l 2.669587,3.97101 c -0.225515,0.4951 -0.245107,0.96445 -0.01111,1.31255 l 15.67271,23.32553 c 0.495366,0.73695 1.94415,0.6317 3.247998,-0.24471 1.303846,-0.87642 1.96364,-2.17735 1.468276,-2.9143 L -51.42304,274.4168 c -0.233058,-0.34672 -0.682887,-0.49868 -1.22356,-0.47831 l -2.558357,-3.80416 c 3.95991,-3.10036 6.507123,-7.91951 6.507123,-13.33682 0,-9.35807 -7.593809,-16.95188 -16.951889,-16.95188 z m 0,2.5806 c 7.92884,0 14.371283,6.44244 14.371283,14.37128 0,7.92885 -6.442435,14.36016 -14.371283,14.36016 -7.928851,0 -14.349039,-6.43131 -14.349039,-14.36016 0,-0.24777 -0.0013,-0.48941 0.01111,-0.73413 0.384376,-7.58638 6.656848,-13.63715 14.337916,-13.63715 z"
         id="path1164" />
    </clipPath>
    <linearGradient
       inkscape:collect="always"
       xlink:href="#linearGradient873"
       id="linearGradient875"
       x1="27.21"
       y1="250.42"
       x2="20.64"
       y2="232.48"
       gradientUnits="userSpaceOnUse" />
    <linearGradient
       inkscape:collect="always"
       xlink:href="#linearGradient873"
       id="linearGradient883"
       x1="27.885"
       y1="272.08"
       x2="22.18"
       y2="253.09"
       gradientUnits="userSpaceOnUse" />
    <linearGradient
       inkscape:collect="always"
       xlink:href="#linearGradient873"
       id="linearGradient891"
       x1="35.19"
       y1="272.16"
       x2="29.25"
       y2="252.1"
       gradientUnits="userSpaceOnUse" />
    <pattern
       patternTransform="matrix(0.51671524,0,0,0.5307414,3.2242711e-7,4.3922244e-5)"
       id="pattern2309"
       xlink:href="#pattern1574"
       inkscape:collect="always" />
    <pattern
       id="pattern1574"
       patternTransform="matrix(0.26458333,0,0,0.26458333,-11.689324,249.52683)"
       height="32.641"
       width="39.91"
       patternUnits="userSpaceOnUse">
      <g
         id="g1572"
         transform="matrix(3.7795276,0,0,3.7795276,47.016607,-899.12803)">
        <path
           sodipodi:nodetypes="cccccccccccccccccccccccccccccccccccccccccccccccccccccccccccccccccccccccccccccccccccccccccccccccccccccccccccccc"
           inkscape:connector-curvature="0"
           id="path1566"
           d="m -9.4619189,237.89429 c -0.5406291,0.44446 0.6954489,0.34418 0,0 z m -0.3604649,0.49066 c -0.1697231,0.35824 0.2688582,0.0545 0,0 z m -1.7191402,0.0743 c -0.19737,0.55856 1.232177,0.75072 0.141671,0.0745 z m -0.277281,0.13385 c -0.369373,0.1978 0.269454,0.24872 0,0 z m 7.3618021,0.0148 c -0.7435656,0.51684 0.6716998,0.3411 0,0 z m -5.2544687,0.14871 c -0.5645144,0.58487 0.4309725,0.89352 0,0 z m 4.9355959,0.17845 c -0.5749795,0.30558 1.0961971,1.34617 0.2218246,0.44612 -0.073064,-0.14862 -0.080909,-0.34351 -0.2218246,-0.44612 z m -4.3394424,0.22304 c -0.070834,0.40565 0.9943189,0.65282 1.1645788,1.29375 0.9107979,0.52438 -0.4394652,-1.19033 -1.1645788,-1.29375 z m 3.7710171,0.13384 c -0.2274295,0.35277 -1.3334223,0.0387 -1.0354152,0.44586 0.2648213,-0.13251 1.1257583,-0.0995 1.0354152,-0.44586 z m 2.3291575,0 c -0.2142706,0.11714 0.2288233,0.0348 0,0 z m -3.8403371,0.43125 c -0.4667894,0.30102 0.7317655,-0.0245 0,0 z m -0.5268334,0.35691 c -0.3955564,0.19175 0.2574155,0.25162 0,0 z m 4.2146662,0.0297 c -0.1323816,0.18587 0.1130985,0.23703 0,0 z m -8.2491002,0.22306 c -0.137905,0.0411 0.112164,0.10817 0,0 z m 0.06932,0.0743 c -0.115395,0.81578 2.0784887,1.59852 0.707065,0.68404 -0.385309,-0.0592 -0.366839,-0.57188 -0.707065,-0.68404 z m 7.9995468,0 c -1.043551,0.24921 1.5627882,1.21458 1.2754906,0.68402 -0.5248973,-0.1873 -1.0192818,-0.0906 -1.2754906,-0.68402 z m -1.1507148,0.11897 c -0.6501425,0.27867 1.0906837,0.25208 0,0 z m -3.2857759,0.10404 c -0.2581858,0.59679 0.7908066,2.40106 -0.4510451,1.95589 -0.9256521,0.21947 1.0743994,0.23527 0.825374,1.01826 0.039735,0.76393 1.6164111,1.26304 0.5129692,0.40151 -0.6241634,-0.79941 -0.4373002,-1.59907 -0.5684253,-2.4537 -0.1500245,-0.26356 -0.1022148,-0.71867 -0.3188728,-0.92196 z m -1.6082279,0.59482 c -0.1764939,0.52299 1.3813672,0.65187 0.2072058,0.19787 l -0.096293,-0.0939 -0.1109123,-0.10405 z m 6.211087,0.28254 c -0.2094361,0.36912 0.2960585,0.39351 0,0 z m -0.1663684,0.41639 c -0.754711,0.49838 1.6576922,2.50178 0.7460596,1.05323 -0.6325892,-0.16286 -0.533192,-0.64821 -0.7460596,-1.05323 z m -6.5854159,0.2528 c -0.3713169,0.91817 0.5224643,0.71059 0,0 z m 6.4606396,0.44613 c -0.1367607,0.06 0.1052334,0.0891 0,0 z m -7.0290645,0.52048 c -0.326048,0.14817 0.313198,0.45569 0,0 z m 6.6131434,0.16356 c -0.1439526,0.20223 0.304428,-0.009 0,0 z m -6.7795124,0.11897 c -0.721755,0.32334 0.298442,1.68375 -0.06643,0.44643 0.09865,-0.12784 0.157077,-0.28828 0.06643,-0.44643 z m 4.3671706,0.0892 c 0.079169,0.54927 0.7621561,0.97604 0.3188729,0.11895 -0.1201297,5.9e-4 -0.1944192,-0.15573 -0.3188729,-0.11895 z m 3.327368,0.25281 c -0.010873,0.32198 0.455197,1.04828 0.7019818,1.10124 0.077222,-0.54811 -0.3384613,-0.83347 -0.7019818,-1.10124 z m -2.4677978,0.16357 c -0.079332,0.52222 0.8248771,-0.0506 0,0 z m 1.5111795,0 c -0.1326589,0.4904 -1.64271,-0.17421 -0.6793376,0.3718 0.2440695,0.14594 1.2830015,0.0353 0.6793376,-0.3718 z m -1.5804997,0.19332 c -0.1635661,0.0201 -0.017586,0.13827 0,0 z m -0.8734342,0.44614 c 0.1767157,0.38383 0.6961919,-0.1522 0,1e-5 z m -4.7137714,0.10404 c -0.108814,0.46562 0.562235,0.49582 0.02773,0.0297 z m 4.7692276,0.22307 c -0.1480919,0.84797 0.7712556,0.61228 0,0 z m -3.4105522,0.23792 c -0.2145504,0.18248 1.122221,1.129 0.4434008,0.16161 -0.1459797,-0.0604 -0.3061426,-0.0768 -0.4434008,-0.16161 z m 2.883719,0.34201 c -0.5680738,0.12465 0.020123,1.356 -0.0054,0.17437 0.095262,-0.0805 0.374298,-0.15177 0.0054,-0.17437 z m 2.4400698,0.11893 c -0.3634153,0.48289 1.1289988,0.32428 0.2079605,0.0594 -0.046848,0.14245 -0.1356914,-0.15873 -0.2079605,-0.0594 z m -6.6963282,0.10405 c -1.076303,0.62592 2.2764759,0.40545 0.569654,0.235 -0.195229,-0.0607 -0.379868,-0.18831 -0.569654,-0.235 z m 2.0241489,0.14871 c -0.069098,0.11367 0.1076223,0.0857 0,0 z m 6.59928,0 c -0.3674262,0.93237 0.6885028,0.61456 0,0 z m -9.7880079,0.16358 c -0.608061,0.26192 0.729856,0.15871 0,0 z m 8.9977579,0.0595 c -0.1450818,0.0913 0.1450817,0.0913 0,0 z m -8.4709249,0.35682 c -0.132444,0.19575 0.395594,-0.028 0,0 z"
           fill="#cbab44"
           fill-opacity="1"
           stroke-width="0.119" />
        <g
           id="g1570"
           transform="matrix(1,0,0,1.0691145,0.1652647,-16.406193)">
          <path
             sodipodi:nodetypes="cccccccccccccccccccccccccccccccccccccccccccccccccccccccccccccccccccccccccccccccccccccccccccccccccccccccccccccccc"
             inkscape:connector-curvature="0"
             id="path1568"
             d="m -9.6452672,237.97553 c -0.5406288,0.41437 0.695448,0.32088 0,0 z m -0.3604648,0.45744 c -0.169723,0.33398 0.2688583,0.0508 0,0 z m -1.71914,0.0693 c -0.197371,0.52074 1.232177,0.69989 0.141671,0.0695 z m -0.277281,0.12478 c -0.369373,0.18441 0.269454,0.23188 0,0 z m 7.3618024,0.0138 c -0.7435658,0.48185 0.6716989,0.31802 0,0 z m -5.2544691,0.13864 c -0.5645153,0.54527 0.430972,0.83303 0,0 z m 4.9355961,0.16637 c -0.5749798,0.2849 1.0961974,1.25503 0.2218249,0.41592 -0.073064,-0.13856 -0.080909,-0.32026 -0.2218249,-0.41592 z m -4.3394428,0.20796 c -0.070834,0.37818 0.994319,0.60863 1.1645788,1.20615 0.9107984,0.48888 -0.439462,-1.10972 -1.1645788,-1.20615 z m 3.7710175,0.12478 c -0.227429,0.32888 -1.333423,0.0361 -1.0354154,0.41567 0.2648208,-0.12354 1.1257604,-0.0928 1.0354154,-0.41567 z m 2.3291575,0 c -0.2142715,0.10921 0.2288267,0.0324 0,0 z m -3.8403373,0.40206 c -0.4667887,0.28063 0.7317667,-0.0228 0,0 z m -0.526833,0.33273 c -0.3955562,0.17878 0.2574143,0.23459 0,0 z m 4.214666,0.0277 c -0.1323808,0.1733 0.1130972,0.22098 0,0 z m -8.2491003,0.20796 c -0.137906,0.0383 0.112164,0.10085 0,0 z m 0.06932,0.0693 c -0.115396,0.76055 2.0784898,1.4903 0.707066,0.63772 -0.385309,-0.0552 -0.36684,-0.53316 -0.707066,-0.63772 z m 7.9995485,0 c -1.0435535,0.23234 1.562792,1.13234 1.2754906,0.6377 -0.5248971,-0.1746 -1.0192837,-0.0845 -1.2754906,-0.6377 z m -1.150715,0.11091 c -0.6501576,0.2598 1.0906883,0.23501 0,0 z m -3.2857763,0.097 c -0.2581849,0.55639 0.7908066,2.23849 -0.4510453,1.82346 -0.9256516,0.20461 1.0744,0.21934 0.8253746,0.94933 0.039734,0.71219 1.6164107,1.17752 0.512969,0.37431 -0.6241618,-0.74527 -0.4373011,-1.49079 -0.5684252,-2.28757 -0.1500243,-0.2457 -0.1022145,-0.67 -0.3188731,-0.85953 z m -1.6082281,0.55454 c -0.1764942,0.48758 1.3813672,0.60775 0.2072057,0.18449 l -0.096293,-0.0876 -0.1109122,-0.097 z m 6.2110869,0.26342 c -0.2094355,0.34412 0.2960592,0.36686 0,0 z m -0.1663675,0.38819 c -0.7547126,0.46464 1.6576917,2.33239 0.7460593,0.98192 -0.6325887,-0.15182 -0.5331925,-0.60431 -0.7460593,-0.98192 z m -6.5854165,0.23569 c -0.371318,0.856 0.5224641,0.66248 0,0 z m 6.4606397,0.41592 c -0.1367593,0.0559 0.1052315,0.0831 0,0 z m -7.0290657,0.48524 c -0.326047,0.13815 0.313199,0.42485 0,0 z m 6.6131447,0.15247 c -0.1439524,0.18853 0.3044285,-0.008 0,0 z m -6.7795127,0.11091 c -0.721755,0.30145 0.298441,1.56975 -0.06643,0.4162 0.09865,-0.11918 0.157076,-0.26876 0.06643,-0.4162 z m 4.3671703,0.0832 c 0.079169,0.51208 0.7621577,0.90995 0.3188729,0.11089 -0.120128,5.5e-4 -0.1944219,-0.14519 -0.3188729,-0.11089 z m 3.3273682,0.23569 c -0.010865,0.30015 0.4551966,0.9773 0.7019824,1.02666 0.077227,-0.51099 -0.3384824,-0.77707 -0.7019824,-1.02666 z m -2.4677975,0.1525 c -0.079331,0.48685 0.824875,-0.0471 0,0 z m 1.5111798,0 c -0.132658,0.45719 -1.6427108,-0.16242 -0.6793377,0.34662 0.2440657,0.13606 1.2830021,0.0329 0.6793377,-0.34662 z m -1.5805003,0.18023 c -0.1635661,0.0187 -0.017584,0.12891 0,0 z m -0.8734339,0.41591 c 0.1767144,0.35785 0.6961928,-0.14189 0,3e-5 z m -4.7137716,0.097 c -0.108814,0.43409 0.562235,0.46225 0.02773,0.0277 z m 4.7692278,0.20796 c -0.1651329,0.80489 0.7772812,0.52159 0,0 z m 4.4642188,0.0416 c -0.6133331,0.74804 0.046093,1.22074 0,0 z m -7.8747714,0.18023 c -0.2145542,0.17016 1.1222219,1.05256 0.4434006,0.15068 -0.1459791,-0.0563 -0.3061197,-0.0716 -0.4434006,-0.15068 z m 2.8837191,0.31886 c -0.5680724,0.11621 0.020121,1.2642 -0.0054,0.16256 0.09526,-0.075 0.3742972,-0.14149 0.0054,-0.16256 z m 2.4400699,0.11091 c -0.3634144,0.45019 1.1289991,0.30232 0.2079606,0.0554 -0.046848,0.13281 -0.1356887,-0.14798 -0.2079606,-0.0554 z m -6.6963282,0.097 c -1.076304,0.58354 2.2764748,0.378 0.569654,0.21909 -0.195229,-0.0566 -0.379867,-0.17556 -0.569654,-0.21909 z m 2.0241488,0.13864 c -0.069098,0.10598 0.1076219,0.0799 0,0 z m 6.5992803,0 c -0.3674258,0.86924 0.6885026,0.57295 0,0 z m -9.7880081,0.15251 c -0.217782,0.37043 0.591097,0.0825 0,0 z m 8.9977579,0.0555 c -0.1450804,0.0851 0.1450804,0.0851 0,0 z"
             fill="#655228"
             fill-opacity="1"
             stroke-width="0.115" />
        </g>
      </g>
    </pattern>
    <pattern
       id="pattern2311"
       patternTransform="matrix(0.26458333,0,0,0.26458333,-7.7117448,251.47809)"
       height="17.324"
       width="20.622"
       patternUnits="userSpaceOnUse">
      <rect
         width="20.622"
         height="17.324"
         x="0"
         y="0"
         id="rect1580"
         fill="url(#pattern2309)"
         stroke="none"
         stroke-width="1.979" />
    </pattern>
    <pattern
       id="pattern1612"
       patternTransform="matrix(0.26458333,0,0,0.26458333,-12.364427,241.36665)"
       height="32.641"
       width="39.91"
       patternUnits="userSpaceOnUse">
      <g
         transform="matrix(3.7795276,0,0,3.7795276,47.016607,-899.12803)"
         id="g1610">
        <path
           sodipodi:nodetypes="cccccccccccccccccccccccccccccccccccccccccccccccccccccccccccccccccccccccccccccccccccccccccccccccccccccccccccccc"
           inkscape:connector-curvature="0"
           id="path1604"
           d="m -9.4619189,237.89429 c -0.5406291,0.44446 0.6954489,0.34418 0,0 z m -0.3604649,0.49066 c -0.1697231,0.35824 0.2688582,0.0545 0,0 z m -1.7191402,0.0743 c -0.19737,0.55856 1.232177,0.75072 0.141671,0.0745 z m -0.277281,0.13385 c -0.369373,0.1978 0.269454,0.24872 0,0 z m 7.3618021,0.0148 c -0.7435656,0.51684 0.6716998,0.3411 0,0 z m -5.2544687,0.14871 c -0.5645144,0.58487 0.4309725,0.89352 0,0 z m 4.9355959,0.17845 c -0.5749795,0.30558 1.0961971,1.34617 0.2218246,0.44612 -0.073064,-0.14862 -0.080909,-0.34351 -0.2218246,-0.44612 z m -4.3394424,0.22304 c -0.070834,0.40565 0.9943189,0.65282 1.1645788,1.29375 0.9107979,0.52438 -0.4394652,-1.19033 -1.1645788,-1.29375 z m 3.7710171,0.13384 c -0.2274295,0.35277 -1.3334223,0.0387 -1.0354152,0.44586 0.2648213,-0.13251 1.1257583,-0.0995 1.0354152,-0.44586 z m 2.3291575,0 c -0.2142706,0.11714 0.2288233,0.0348 0,0 z m -3.8403371,0.43125 c -0.4667894,0.30102 0.7317655,-0.0245 0,0 z m -0.5268334,0.35691 c -0.3955564,0.19175 0.2574155,0.25162 0,0 z m 4.2146662,0.0297 c -0.1323816,0.18587 0.1130985,0.23703 0,0 z m -8.2491002,0.22306 c -0.137905,0.0411 0.112164,0.10817 0,0 z m 0.06932,0.0743 c -0.115395,0.81578 2.0784887,1.59852 0.707065,0.68404 -0.385309,-0.0592 -0.366839,-0.57188 -0.707065,-0.68404 z m 7.9995468,0 c -1.043551,0.24921 1.5627882,1.21458 1.2754906,0.68402 -0.5248973,-0.1873 -1.0192818,-0.0906 -1.2754906,-0.68402 z m -1.1507148,0.11897 c -0.6501425,0.27867 1.0906837,0.25208 0,0 z m -3.2857759,0.10404 c -0.2581858,0.59679 0.7908066,2.40106 -0.4510451,1.95589 -0.9256521,0.21947 1.0743994,0.23527 0.825374,1.01826 0.039735,0.76393 1.6164111,1.26304 0.5129692,0.40151 -0.6241634,-0.79941 -0.4373002,-1.59907 -0.5684253,-2.4537 -0.1500245,-0.26356 -0.1022148,-0.71867 -0.3188728,-0.92196 z m -1.6082279,0.59482 c -0.1764939,0.52299 1.3813672,0.65187 0.2072058,0.19787 l -0.096293,-0.0939 -0.1109123,-0.10405 z m 6.211087,0.28254 c -0.2094361,0.36912 0.2960585,0.39351 0,0 z m -0.1663684,0.41639 c -0.754711,0.49838 1.6576922,2.50178 0.7460596,1.05323 -0.6325892,-0.16286 -0.533192,-0.64821 -0.7460596,-1.05323 z m -6.5854159,0.2528 c -0.3713169,0.91817 0.5224643,0.71059 0,0 z m 6.4606396,0.44613 c -0.1367607,0.06 0.1052334,0.0891 0,0 z m -7.0290645,0.52048 c -0.326048,0.14817 0.313198,0.45569 0,0 z m 6.6131434,0.16356 c -0.1439526,0.20223 0.304428,-0.009 0,0 z m -6.7795124,0.11897 c -0.721755,0.32334 0.298442,1.68375 -0.06643,0.44643 0.09865,-0.12784 0.157077,-0.28828 0.06643,-0.44643 z m 4.3671706,0.0892 c 0.079169,0.54927 0.7621561,0.97604 0.3188729,0.11895 -0.1201297,5.9e-4 -0.1944192,-0.15573 -0.3188729,-0.11895 z m 3.327368,0.25281 c -0.010873,0.32198 0.455197,1.04828 0.7019818,1.10124 0.077222,-0.54811 -0.3384613,-0.83347 -0.7019818,-1.10124 z m -2.4677978,0.16357 c -0.079332,0.52222 0.8248771,-0.0506 0,0 z m 1.5111795,0 c -0.1326589,0.4904 -1.64271,-0.17421 -0.6793376,0.3718 0.2440695,0.14594 1.2830015,0.0353 0.6793376,-0.3718 z m -1.5804997,0.19332 c -0.1635661,0.0201 -0.017586,0.13827 0,0 z m -0.8734342,0.44614 c 0.1767157,0.38383 0.6961919,-0.1522 0,1e-5 z m -4.7137714,0.10404 c -0.108814,0.46562 0.562235,0.49582 0.02773,0.0297 z m 4.7692276,0.22307 c -0.1480919,0.84797 0.7712556,0.61228 0,0 z m -3.4105522,0.23792 c -0.2145504,0.18248 1.122221,1.129 0.4434008,0.16161 -0.1459797,-0.0604 -0.3061426,-0.0768 -0.4434008,-0.16161 z m 2.883719,0.34201 c -0.5680738,0.12465 0.020123,1.356 -0.0054,0.17437 0.095262,-0.0805 0.374298,-0.15177 0.0054,-0.17437 z m 2.4400698,0.11893 c -0.3634153,0.48289 1.1289988,0.32428 0.2079605,0.0594 -0.046848,0.14245 -0.1356914,-0.15873 -0.2079605,-0.0594 z m -6.6963282,0.10405 c -1.076303,0.62592 2.2764759,0.40545 0.569654,0.235 -0.195229,-0.0607 -0.379868,-0.18831 -0.569654,-0.235 z m 2.0241489,0.14871 c -0.069098,0.11367 0.1076223,0.0857 0,0 z m 6.59928,0 c -0.3674262,0.93237 0.6885028,0.61456 0,0 z m -9.7880079,0.16358 c -0.608061,0.26192 0.729856,0.15871 0,0 z m 8.9977579,0.0595 c -0.1450818,0.0913 0.1450817,0.0913 0,0 z m -8.4709249,0.35682 c -0.132444,0.19575 0.395594,-0.028 0,0 z"
           fill="#99510c"
           fill-opacity="1"
           stroke-width="0.119" />
        <g
           id="g1608"
           transform="matrix(1,0,0,1.0691145,0.1652647,-16.406193)">
          <path
             sodipodi:nodetypes="cccccccccccccccccccccccccccccccccccccccccccccccccccccccccccccccccccccccccccccccccccccccccccccccccccccccccccccccc"
             inkscape:connector-curvature="0"
             id="path1606"
             d="m -9.6452672,237.97553 c -0.5406288,0.41437 0.695448,0.32088 0,0 z m -0.3604648,0.45744 c -0.169723,0.33398 0.2688583,0.0508 0,0 z m -1.71914,0.0693 c -0.197371,0.52074 1.232177,0.69989 0.141671,0.0695 z m -0.277281,0.12478 c -0.369373,0.18441 0.269454,0.23188 0,0 z m 7.3618024,0.0138 c -0.7435658,0.48185 0.6716989,0.31802 0,0 z m -5.2544691,0.13864 c -0.5645153,0.54527 0.430972,0.83303 0,0 z m 4.9355961,0.16637 c -0.5749798,0.2849 1.0961974,1.25503 0.2218249,0.41592 -0.073064,-0.13856 -0.080909,-0.32026 -0.2218249,-0.41592 z m -4.3394428,0.20796 c -0.070834,0.37818 0.994319,0.60863 1.1645788,1.20615 0.9107984,0.48888 -0.439462,-1.10972 -1.1645788,-1.20615 z m 3.7710175,0.12478 c -0.227429,0.32888 -1.333423,0.0361 -1.0354154,0.41567 0.2648208,-0.12354 1.1257604,-0.0928 1.0354154,-0.41567 z m 2.3291575,0 c -0.2142715,0.10921 0.2288267,0.0324 0,0 z m -3.8403373,0.40206 c -0.4667887,0.28063 0.7317667,-0.0228 0,0 z m -0.526833,0.33273 c -0.3955562,0.17878 0.2574143,0.23459 0,0 z m 4.214666,0.0277 c -0.1323808,0.1733 0.1130972,0.22098 0,0 z m -8.2491003,0.20796 c -0.137906,0.0383 0.112164,0.10085 0,0 z m 0.06932,0.0693 c -0.115396,0.76055 2.0784898,1.4903 0.707066,0.63772 -0.385309,-0.0552 -0.36684,-0.53316 -0.707066,-0.63772 z m 7.9995485,0 c -1.0435535,0.23234 1.562792,1.13234 1.2754906,0.6377 -0.5248971,-0.1746 -1.0192837,-0.0845 -1.2754906,-0.6377 z m -1.150715,0.11091 c -0.6501576,0.2598 1.0906883,0.23501 0,0 z m -3.2857763,0.097 c -0.2581849,0.55639 0.7908066,2.23849 -0.4510453,1.82346 -0.9256516,0.20461 1.0744,0.21934 0.8253746,0.94933 0.039734,0.71219 1.6164107,1.17752 0.512969,0.37431 -0.6241618,-0.74527 -0.4373011,-1.49079 -0.5684252,-2.28757 -0.1500243,-0.2457 -0.1022145,-0.67 -0.3188731,-0.85953 z m -1.6082281,0.55454 c -0.1764942,0.48758 1.3813672,0.60775 0.2072057,0.18449 l -0.096293,-0.0876 -0.1109122,-0.097 z m 6.2110869,0.26342 c -0.2094355,0.34412 0.2960592,0.36686 0,0 z m -0.1663675,0.38819 c -0.7547126,0.46464 1.6576917,2.33239 0.7460593,0.98192 -0.6325887,-0.15182 -0.5331925,-0.60431 -0.7460593,-0.98192 z m -6.5854165,0.23569 c -0.371318,0.856 0.5224641,0.66248 0,0 z m 6.4606397,0.41592 c -0.1367593,0.0559 0.1052315,0.0831 0,0 z m -7.0290657,0.48524 c -0.326047,0.13815 0.313199,0.42485 0,0 z m 6.6131447,0.15247 c -0.1439524,0.18853 0.3044285,-0.008 0,0 z m -6.7795127,0.11091 c -0.721755,0.30145 0.298441,1.56975 -0.06643,0.4162 0.09865,-0.11918 0.157076,-0.26876 0.06643,-0.4162 z m 4.3671703,0.0832 c 0.079169,0.51208 0.7621577,0.90995 0.3188729,0.11089 -0.120128,5.5e-4 -0.1944219,-0.14519 -0.3188729,-0.11089 z m 3.3273682,0.23569 c -0.010865,0.30015 0.4551966,0.9773 0.7019824,1.02666 0.077227,-0.51099 -0.3384824,-0.77707 -0.7019824,-1.02666 z m -2.4677975,0.1525 c -0.079331,0.48685 0.824875,-0.0471 0,0 z m 1.5111798,0 c -0.132658,0.45719 -1.6427108,-0.16242 -0.6793377,0.34662 0.2440657,0.13606 1.2830021,0.0329 0.6793377,-0.34662 z m -1.5805003,0.18023 c -0.1635661,0.0187 -0.017584,0.12891 0,0 z m -0.8734339,0.41591 c 0.1767144,0.35785 0.6961928,-0.14189 0,3e-5 z m -4.7137716,0.097 c -0.108814,0.43409 0.562235,0.46225 0.02773,0.0277 z m 4.7692278,0.20796 c -0.1651329,0.80489 0.7772812,0.52159 0,0 z m 4.4642188,0.0416 c -0.6133331,0.74804 0.046093,1.22074 0,0 z m -7.8747714,0.18023 c -0.2145542,0.17016 1.1222219,1.05256 0.4434006,0.15068 -0.1459791,-0.0563 -0.3061197,-0.0716 -0.4434006,-0.15068 z m 2.8837191,0.31886 c -0.5680724,0.11621 0.020121,1.2642 -0.0054,0.16256 0.09526,-0.075 0.3742972,-0.14149 0.0054,-0.16256 z m 2.4400699,0.11091 c -0.3634144,0.45019 1.1289991,0.30232 0.2079606,0.0554 -0.046848,0.13281 -0.1356887,-0.14798 -0.2079606,-0.0554 z m -6.6963282,0.097 c -1.076304,0.58354 2.2764748,0.378 0.569654,0.21909 -0.195229,-0.0566 -0.379867,-0.17556 -0.569654,-0.21909 z m 2.0241488,0.13864 c -0.069098,0.10598 0.1076219,0.0799 0,0 z m 6.5992803,0 c -0.3674258,0.86924 0.6885026,0.57295 0,0 z m -9.7880081,0.15251 c -0.217782,0.37043 0.591097,0.0825 0,0 z m 8.9977579,0.0555 c -0.1450804,0.0851 0.1450804,0.0851 0,0 z"
             fill="#4d2f0f"
             fill-opacity="1"
             stroke-width="0.115" />
        </g>
      </g>
    </pattern>
    <filter
       inkscape:collect="always"
       style="color-interpolation-filters:sRGB"
       id="filter883"
       x="-0.014152858"
       width="1.0283057"
       y="-0.010415629"
       height="1.0208313">
      <feGaussianBlur
         inkscape:collect="always"
         stdDeviation="0.27241373"
         id="feGaussianBlur885" />
    </filter>
  </defs>
  <sodipodi:namedview
     id="base"
     pagecolor="#ff0000"
     bordercolor="#666666"
     borderopacity="1.0"
     inkscape:pageopacity="0"
     inkscape:pageshadow="2"
     inkscape:zoom="3.5098039"
     inkscape:cx="127.5"
     inkscape:cy="127.5"
     inkscape:document-units="px"
     inkscape:current-layer="layer1"
     showgrid="false"
     inkscape:snap-to-guides="false"
     inkscape:snap-grids="false"
     inkscape:snap-others="false"
     inkscape:object-nodes="false"
     inkscape:snap-nodes="false"
     inkscape:snap-global="false"
     inkscape:window-width="1920"
     inkscape:window-height="1056"
     inkscape:window-x="0"
     inkscape:window-y="0"
     inkscape:window-maximized="1"
     units="px"
     showguides="false" />
  <metadata
     id="metadata5">
    <rdf:RDF>
      <cc:Work>
        <dc:format>image/svg+xml</dc:format>
        <dc:type
           rdf:resource="http://purl.org/dc/dcmitype/StillImage" />
        <dc:title />
      </cc:Work>
    </rdf:RDF>
  </metadata>
  <g
     inkscape:label="Layer 1"
     inkscape:groupmode="layer"
     id="layer1"
     transform="translate(0,-229.53126)">
    <g
       id="g881"
       transform="translate(-59.553421,0.45230446)"
       style="filter:url(#filter883)">
      <path
         style="opacity:1;fill:#000000;fill-opacity:0.29357796;fill-rule:evenodd;stroke:none;stroke-width:0.26499999;stroke-linecap:round;stroke-linejoin:round;stroke-miterlimit:4;stroke-dasharray:none;stroke-dashoffset:0;stroke-opacity:1;paint-order:normal"
         d="m 103.33456,232.27193 c -0.73627,-0.0421 -1.29945,0.55483 -0.38034,1.10794 5.70326,3.59696 9.51113,10.09341 9.51105,17.51004 10e-5,9.38688 -6.10242,17.29373 -14.424442,19.71973 v -7.16856 c 0.05157,-1.22447 0.960802,-1.80593 1.844849,-2.40605 l -6.283854,0.12867 c 0.06287,-0.0428 0.125683,-0.086 0.188619,-0.12867 l -7.859985,0.16071 c 1.003754,0.52491 1.642611,1.29287 2.005046,2.24534 v 7.34839 C 79.280982,268.5961 72.857772,260.52104 72.85787,250.88991 c -6.9e-5,-6.75204 3.156364,-12.74122 8.02535,-16.47445 1.266652,-0.92408 0.236747,-1.86068 -0.731738,-0.98082 -6.277206,4.27224 -10.420998,11.62632 -10.421069,19.98173 9.8e-5,11.46208 7.798923,21.03732 18.20509,23.35982 v 6.95564 l 2.005045,11.30835 h 0.481108 l 1.523939,-11.30835 v -6.43526 c 0.292807,0.0114 0.586618,0.0191 0.882116,0.0191 0.403539,0 0.804571,-0.0109 1.203026,-0.032 v 6.44818 l 2.005047,11.30835 h 0.481107 l 1.523937,-11.30835 v -7.02748 c 10.245652,-2.4456 17.884602,-11.94365 17.884702,-23.28798 -8e-5,-9.06674 -4.87963,-16.95418 -12.06955,-21.0044 -0.1722,-0.0862 -0.35151,-0.13033 -0.52142,-0.14004 z m -10.502717,29.46538 c 1.01e-4,8e-5 4.18e-4,-8e-5 5.19e-4,0 0.553254,0.46544 0.94515,1.0383 1.198375,1.70377 v 7.89099 c -0.45248,0.032 -0.908582,0.0491 -1.368907,0.0491 -0.239739,10e-6 -0.47856,-0.006 -0.716235,-0.0145 v -7.92562 c 0.03223,-0.76529 0.399582,-1.2793 0.886248,-1.70377 z"
         id="path1570"
         inkscape:connector-curvature="0"
         stroke-miterlimit="4" />
      <path
         inkscape:connector-curvature="0"
         id="path860"
         d="m 103.09375,232.44336 c -0.91027,0.13152 -0.12654,0.92562 0.34751,1.06384 6.68433,4.35487 10.23006,12.79693 8.93285,20.63133 -1.07737,7.65704 -6.80514,14.50301 -14.286219,16.62319 -0.470895,-0.74794 -0.07407,-1.93224 -0.205079,-2.85109 0.08842,-1.71184 -0.173953,-3.46358 0.123047,-5.15282 0.230795,-0.67226 0.787766,-1.16399 1.359375,-1.55273 -1.919922,0.0391 -3.839843,0.0781 -5.759765,0.11719 -0.83821,-0.27603 -2.067658,-1.5e-4 -3.056639,-0.0635 -1.356771,0.0277 -2.713543,0.0553 -4.070314,0.083 1.113095,0.72607 1.883419,2.01342 1.615234,3.36961 0,2.02588 0,4.05177 0,6.07765 -0.786195,0.25079 -1.73191,-0.39786 -2.552343,-0.60734 -7.589798,-2.92123 -12.790373,-10.7754 -12.833008,-18.86489 -0.200305,-6.62221 2.963554,-13.23823 8.283789,-17.19769 0.700737,-0.43013 0.0378,-1.26989 -0.560547,-0.70312 -6.739562,4.46906 -10.83551,12.56511 -10.528888,20.63679 0.108439,8.92788 5.660184,17.60981 13.870617,21.17515 1.358983,0.68612 2.933842,0.98173 4.297296,1.51802 0.153082,3.19851 -0.301707,6.47624 0.494394,9.62809 0.503053,2.83625 1.006106,5.6725 1.509159,8.50874 0.553487,-0.47481 0.314701,-1.85585 0.567536,-2.67456 0.346128,-3.15233 1.008971,-6.28341 1.145354,-9.44981 0,-1.82052 0,-3.64104 0,-5.46156 0.624597,-0.33774 1.511065,-0.0267 2.238282,-0.17188 0.383271,0.86562 0.05449,2.03379 0.164062,3.0157 -0.05943,2.14976 -0.02132,4.29094 0.498557,6.38977 0.49332,2.78411 0.986639,5.56823 1.479959,8.35234 0.557039,-0.47149 0.315791,-1.85609 0.569489,-2.67456 0.346128,-3.15233 1.008971,-6.28341 1.145354,-9.44981 10e-7,-2.01779 0,-4.03558 0,-6.05336 1.058318,-0.53644 2.391718,-0.70494 3.502118,-1.26111 8.27449,-3.36247 13.99065,-11.85367 14.34418,-20.73227 0.56809,-8.88564 -4.19228,-17.96943 -12.08859,-22.21107 -0.17157,-0.078 -0.36383,-0.0755 -0.54677,-0.0573 z m -9.955078,29.35352 c 0.893727,0.77194 1.231242,1.92395 1.050781,3.07328 0,2.15395 0,4.30791 0,6.46187 -0.620488,0.37739 -1.516602,0.13362 -2.248047,0.19336 -0.362035,-0.93176 -0.05008,-2.13778 -0.154297,-3.17445 0.09605,-1.87386 -0.192802,-3.79682 0.14424,-5.6414 0.123397,-0.52855 0.796902,-1.14405 1.006151,-1.0904 l 0.118969,0.10511 z"
         style="opacity:1;fill:#000000;fill-opacity:0.29357796;fill-rule:evenodd;stroke:none;stroke-width:0.26499999;stroke-linecap:round;stroke-linejoin:round;stroke-miterlimit:4;stroke-dasharray:none;stroke-dashoffset:0;stroke-opacity:1;paint-order:normal" />
      <path
         inkscape:connector-curvature="0"
         id="path864"
         d="m 103.12109,232.60156 c -0.72076,0.1349 0.25028,0.75398 0.54141,0.86469 7.38155,4.86327 10.79977,14.70499 8.35617,23.15025 -1.82222,6.68621 -7.17521,12.39274 -13.883904,14.29756 -0.814561,-0.62324 -0.257481,-1.91605 -0.395472,-2.80863 0.09888,-1.88186 -0.290908,-3.83716 0.229456,-5.66988 0.01847,-0.47612 1.475832,-1.23332 0.428146,-1.05279 -2.0906,0.045 -4.182373,0.13427 -6.258224,-0.0136 -1.693989,0.10791 -3.609091,0.0237 -5.152344,0.15234 1.177754,0.90083 1.485738,2.44312 1.265625,3.83618 -0.06721,1.84045 0.132811,3.77207 -0.09702,5.55705 -1.218352,0.29571 -2.381838,-0.61656 -3.527953,-0.94332 -7.89126,-3.47468 -12.848663,-12.30242 -12.019906,-20.84259 0.445499,-6.03184 3.676521,-11.73712 8.498397,-15.34755 0.07013,-0.77234 -0.86305,-0.12665 -1.107731,0.12467 -7.030945,4.93229 -10.892557,13.90789 -9.785875,22.43644 1.013565,9.09588 7.727756,17.46612 16.665594,19.82747 0.713623,0.20533 1.690292,0.37039 1.372956,1.36581 0.0079,3.25904 -0.192758,6.5614 0.636708,9.74987 0.427078,2.38692 0.84791,4.81814 1.278895,7.17738 0.414512,-3.16684 0.895268,-6.33999 1.29064,-9.51348 0.360932,-2.57979 0.0053,-5.24843 0.262094,-7.79511 0.766145,-0.3102 1.695954,-0.16 2.455078,-0.0859 0.425269,1.45919 0.03725,3.01768 0.154694,4.51781 -0.03682,3.67996 1.059293,7.2369 1.568734,10.85753 0.155451,0.36416 0.271305,2.6806 0.469932,1.58364 0.450786,-4.81916 1.626992,-9.5787 1.357421,-14.45429 0.06745,-0.99346 -0.131134,-2.06425 0.0918,-3.0125 2.245909,-0.82393 4.577029,-1.50071 6.601229,-2.83054 7.25998,-4.41592 11.6634,-12.98948 11.17499,-21.48047 -0.35961,-8.01273 -4.95605,-15.8814 -12.11996,-19.63821 -0.11524,-0.0346 -0.23422,-0.009 -0.35157,-0.01 z M 93.042969,261.5 c 1.344072,0.94672 1.467657,2.68911 1.304687,4.18047 -0.06223,1.92283 0.123823,3.91785 -0.0918,5.79609 -0.752576,0.34751 -1.710675,0.27071 -2.464843,0.0996 -0.404727,-1.66616 -0.0082,-3.41502 -0.157664,-5.11479 0.07124,-1.46361 -0.323727,-3.14871 0.497507,-4.44966 0.230283,-0.23578 0.535946,-0.65005 0.91211,-0.51172 z"
         style="opacity:1;fill:#000000;fill-opacity:0.29357796;fill-rule:evenodd;stroke:none;stroke-width:0.26499999;stroke-linecap:round;stroke-linejoin:round;stroke-miterlimit:4;stroke-dasharray:none;stroke-dashoffset:0;stroke-opacity:1;paint-order:normal" />
      <path
         inkscape:connector-curvature="0"
         id="path868"
         d="m 103.14258,232.75977 c -0.11528,0.38795 0.97082,0.66571 1.26253,1.0272 7.67975,5.51788 10.65874,16.49726 6.98126,25.18286 -2.32101,5.71032 -7.23871,10.39925 -13.204729,12.09658 -1.134475,-0.5877 -0.434817,-2.11414 -0.596083,-3.12356 0.125271,-1.9566 -0.423328,-4.08692 0.421977,-5.91979 0.989716,-0.70901 -0.09341,-0.44768 -0.718083,-0.45576 -1.293452,0.0316 -2.587668,0.0571 -3.881249,0.0206 1.774776,1.64503 0.905211,4.22916 1.099562,6.33859 -0.02949,1.22405 0.13959,2.53534 -0.195265,3.69852 -0.831557,0.32415 -1.891647,0.38068 -2.677734,-0.0156 -0.408542,-2.26039 0.01547,-4.57203 -0.1875,-6.85352 -0.0177,-1.11027 0.0041,-2.44041 0.929687,-3.21484 -1.66436,0.0486 -3.33491,0.0382 -5,0.11328 1.571972,1.4544 0.93254,3.70207 1.029443,5.57384 -0.0503,1.26325 0.200217,2.66629 -0.222802,3.84217 -1.565807,0.2641 -2.941846,-0.82182 -4.361328,-1.29883 -8.112948,-3.99095 -12.801816,-13.65584 -11.14649,-22.51184 0.889533,-5.36825 3.993191,-10.29105 8.273443,-13.58776 -0.365865,-0.27314 -0.884971,0.49174 -1.242432,0.6436 -7.659044,5.60428 -11.217948,16.00828 -8.753377,25.14465 2.041535,7.95553 8.468395,14.79615 16.538778,16.72151 0.853058,0.11974 1.127184,0.96503 0.914227,1.69445 -0.06907,3.46292 -0.05569,6.9509 0.802955,10.31957 0.309665,1.7496 0.621263,3.49886 0.935161,5.2477 0.540218,-4.55511 1.55267,-9.08846 1.315723,-13.70031 0.05504,-0.90308 -0.09396,-1.90184 0.209668,-2.73914 0.840618,-0.27676 1.860189,-0.27661 2.658203,0.0254 0.467525,2.16888 -0.07036,4.40917 0.246094,6.60351 0.344185,3.35957 1.223519,6.63662 1.677734,9.97852 0.549882,-4.97338 1.617429,-9.91903 1.32129,-14.9536 0.07792,-0.72735 -0.288365,-1.81367 0.339965,-2.30087 3.370912,-1.07746 6.701232,-2.49364 9.350482,-4.90342 6.76666,-5.78821 9.77767,-15.50249 7.41718,-24.09599 -1.61164,-6.10772 -5.67474,-11.77153 -11.3879,-14.6055 z"
         style="opacity:1;fill:#000000;fill-opacity:0.29357796;fill-rule:evenodd;stroke:none;stroke-width:0.26499999;stroke-linecap:round;stroke-linejoin:round;stroke-miterlimit:4;stroke-dasharray:none;stroke-dashoffset:0;stroke-opacity:1;paint-order:normal" />
      <path
         inkscape:connector-curvature="0"
         id="path872"
         d="m 103.69727,233.14453 c 7.4419,4.71825 10.92278,14.51853 8.79955,22.97791 -1.736,7.02767 -7.25717,13.10107 -14.270258,15.09631 -1.343066,-0.48859 -0.686784,-2.16292 -0.795093,-3.22242 0.126519,-2.0246 -0.459443,-4.1986 0.476734,-6.09789 0.635719,-0.472 -1.091295,-0.026 -1.408839,-0.15865 -0.836226,0.0635 -2.045911,-0.0462 -2.65952,0.0727 1.48607,1.9489 0.58431,4.50832 0.82884,6.74828 -0.03338,1.06307 0.164209,2.24057 -0.305403,3.21461 -0.906055,0.31792 -2.086531,0.46313 -2.884765,-0.14062 -0.383658,-2.56645 -0.02527,-5.17107 -0.181641,-7.75196 0.04533,-0.76207 0.181012,-1.57781 0.693359,-2.17578 -1.372486,0.0582 -2.995998,-0.0112 -4.216796,0.13281 1.435989,1.8704 0.574243,4.3524 0.799007,6.51026 -0.02206,0.9434 0.175442,2.07088 -0.36932,2.87842 -1.89097,0.20986 -3.529641,-1.03375 -5.205078,-1.70704 -8.273508,-4.52772 -12.633075,-14.99786 -10.094278,-24.07172 1.082833,-4.15896 3.461991,-7.95292 6.654825,-10.8189 -8.024573,5.99092 -11.345126,17.48768 -7.810921,26.85952 2.551997,7.10014 8.687246,12.95668 16.105843,14.62681 1.261265,0.58497 0.554281,2.1655 0.690928,3.21929 -0.093,3.34895 0.257155,6.67093 1.01584,9.92549 0.186286,1.04484 0.372571,2.08968 0.558857,3.13451 0.632675,-4.47467 1.418824,-8.96199 1.195312,-13.50445 0.03567,-0.8125 -0.202787,-2.24791 0.996094,-2.20062 0.716177,-0.0697 1.575547,-0.12315 2.173828,0.30859 0.485287,2.64886 -0.160159,5.38814 0.42254,8.02214 0.357953,2.48442 0.920213,4.93356 1.32746,7.4095 0.67609,-5.03039 1.517871,-10.08799 1.151513,-15.18008 -0.07675,-1.36796 1.603652,-1.26196 2.481949,-1.74086 6.036573,-2.01179 10.978503,-6.77672 13.454233,-12.60867 2.87596,-6.48662 2.61628,-14.238 -0.73232,-20.50348 -2.00442,-3.8864 -5.07375,-7.24021 -8.95694,-9.29308 z"
         style="opacity:1;fill:#000000;fill-opacity:0.29357796;fill-rule:evenodd;stroke:none;stroke-width:0.26499999;stroke-linecap:round;stroke-linejoin:round;stroke-miterlimit:4;stroke-dasharray:none;stroke-dashoffset:0;stroke-opacity:1;paint-order:normal" />
    </g>
    <path
       d="m 41.365191,233.07849 c 5.703254,3.59696 9.511202,10.09331 9.511126,17.50994 1.16e-4,11.31702 -8.86627,20.49133 -19.803528,20.49129 -10.937258,4e-5 -19.803644,-9.17427 -19.803528,-20.49129 -6.9e-5,-6.75204 3.156005,-12.74134 8.024991,-16.47457 1.266652,-0.92408 0.236942,-1.86067 -0.731543,-0.98081 -6.277206,4.27224 -10.4210605,11.62619 -10.4211307,19.9816 1.117e-4,13.19916 10.3410147,23.89918 23.0972457,23.89937 12.756445,1.2e-4 23.097682,-10.7 23.097791,-23.89937 -7.5e-5,-9.06674 -4.879511,-16.95421 -12.069434,-21.00443 -0.91839,-0.45946 -2.033212,0.28752 -0.90199,0.96827 z"
       id="path844"
       inkscape:connector-curvature="0"
       sodipodi:nodetypes="ccccccccccc"
       opacity="1"
       stroke-dasharray="none"
       stroke-opacity="1"
       paint-order="normal"
       fill="url(#linearGradient875)"
       fill-rule="evenodd"
       stroke="none"
       stroke-linejoin="round"
       fill-opacity="1"
       stroke-linecap="round"
       stroke-width="0.124"
       stroke-dashoffset="0"
       stroke-miterlimit="4" />
    <path
       d="m 26.346852,263.13974 c -0.362435,-0.95247 -1.001241,-1.72069 -2.004995,-2.2456 l 7.859592,-0.1604 c -0.884047,0.60012 -1.793027,1.18153 -1.844601,2.406 v 20.29057 l -1.523796,11.30818 h -0.481199 l -2.005001,-11.30818 z"
       id="rect848"
       inkscape:connector-curvature="0"
       sodipodi:nodetypes="ccccccccc"
       opacity="1"
       stroke-dasharray="none"
       stroke-opacity="1"
       paint-order="normal"
       fill="url(#linearGradient883)"
       fill-rule="evenodd"
       stroke="none"
       stroke-linejoin="round"
       fill-opacity="1"
       stroke-linecap="round"
       stroke-width="0.098"
       stroke-dashoffset="0"
       stroke-miterlimit="4" />
    <path
       sodipodi:nodetypes="ccccccccc"
       inkscape:connector-curvature="0"
       id="path851"
       d="m 32.442046,263.13974 c -0.362436,-0.95247 -1.001242,-1.72069 -2.004995,-2.2456 l 7.859592,-0.1604 c -0.884047,0.60012 -1.793028,1.18153 -1.844602,2.406 v 20.29057 l -1.523795,11.30818 h -0.481199 l -2.005001,-11.30818 z"
       opacity="1"
       stroke-dasharray="none"
       stroke-opacity="1"
       paint-order="normal"
       fill="url(#linearGradient891)"
       fill-rule="evenodd"
       stroke="none"
       stroke-linejoin="round"
       fill-opacity="1"
       stroke-linecap="round"
       stroke-width="0.098"
       stroke-dashoffset="0"
       stroke-miterlimit="4" />
    <path
       d="m 41.745772,232.04578 c -0.736274,-0.0421 -1.299456,0.55483 -0.380338,1.10794 5.703253,3.59696 9.511123,10.09341 9.511046,17.51004 9.8e-5,9.38688 -6.102424,17.29373 -14.424443,19.71973 v -7.16856 c 0.05157,-1.22447 0.960802,-1.80593 1.844849,-2.40605 l -6.283854,0.12867 c 0.06287,-0.0428 0.125683,-0.086 0.188619,-0.12867 l -7.859985,0.16071 c 1.003754,0.52491 1.642611,1.29287 2.005046,2.24534 v 7.34839 c -8.654521,-2.19337 -15.077731,-10.26843 -15.077633,-19.89956 -6.9e-5,-6.75204 3.156364,-12.74122 8.02535,-16.47445 1.266652,-0.92408 0.236747,-1.86068 -0.731738,-0.98082 -6.277206,4.27224 -10.4209988,11.62632 -10.4210698,19.98173 9.8e-5,11.46208 7.7989238,21.03732 18.2050908,23.35982 v 6.95564 l 2.005045,11.30835 h 0.481108 l 1.523939,-11.30835 v -6.43526 c 0.292807,0.0114 0.586618,0.0191 0.882116,0.0191 0.403539,0 0.804571,-0.0109 1.203026,-0.032 v 6.44818 l 2.005047,11.30835 H 34.9281 l 1.523937,-11.30835 v -7.02748 c 10.245653,-2.4456 17.884603,-11.94365 17.884698,-23.28798 -7.7e-5,-9.06674 -4.879626,-16.95418 -12.069548,-21.0044 -0.172199,-0.0862 -0.351507,-0.13033 -0.521415,-0.14004 z m -10.50272,29.46538 c 1.01e-4,8e-5 4.18e-4,-8e-5 5.19e-4,0 0.553254,0.46544 0.94515,1.0383 1.198375,1.70377 v 7.89099 c -0.45248,0.032 -0.908582,0.0491 -1.368907,0.0491 -0.239739,1e-5 -0.47856,-0.006 -0.716235,-0.0145 v -7.92562 c 0.03223,-0.76529 0.399582,-1.2793 0.886248,-1.70377 z"
       id="path854"
       inkscape:connector-curvature="0"
       opacity="1"
       stroke-dasharray="none"
       stroke-opacity="1"
       paint-order="normal"
       fill="none"
       fill-rule="evenodd"
       stroke="#37230b"
       stroke-linejoin="round"
       fill-opacity="1"
       stroke-linecap="round"
       stroke-width="0.265"
       stroke-dashoffset="0"
       stroke-miterlimit="4" />
    <g
       id="g1564"
       transform="translate(0.40718892,13.149644)">
      <path
         d="m -9.4619189,237.89429 c -0.5406291,0.44446 0.6954489,0.34418 0,0 z m -0.3604649,0.49066 c -0.1697231,0.35824 0.2688582,0.0545 0,0 z m -1.7191402,0.0743 c -0.19737,0.55856 1.232177,0.75072 0.141671,0.0745 z m -0.277281,0.13385 c -0.369373,0.1978 0.269454,0.24872 0,0 z m 7.3618021,0.0148 c -0.7435656,0.51684 0.6716998,0.3411 0,0 z m -5.2544687,0.14871 c -0.5645144,0.58487 0.4309725,0.89352 0,0 z m 4.9355959,0.17845 c -0.5749795,0.30558 1.0961971,1.34617 0.2218246,0.44612 -0.073064,-0.14862 -0.080909,-0.34351 -0.2218246,-0.44612 z m -4.3394424,0.22304 c -0.070834,0.40565 0.9943189,0.65282 1.1645788,1.29375 0.9107979,0.52438 -0.4394652,-1.19033 -1.1645788,-1.29375 z m 3.7710171,0.13384 c -0.2274295,0.35277 -1.3334223,0.0387 -1.0354152,0.44586 0.2648213,-0.13251 1.1257583,-0.0995 1.0354152,-0.44586 z m 2.3291575,0 c -0.2142706,0.11714 0.2288233,0.0348 0,0 z m -3.8403371,0.43125 c -0.4667894,0.30102 0.7317655,-0.0245 0,0 z m -0.5268334,0.35691 c -0.3955564,0.19175 0.2574155,0.25162 0,0 z m 4.2146662,0.0297 c -0.1323816,0.18587 0.1130985,0.23703 0,0 z m -8.2491002,0.22306 c -0.137905,0.0411 0.112164,0.10817 0,0 z m 0.06932,0.0743 c -0.115395,0.81578 2.0784887,1.59852 0.707065,0.68404 -0.385309,-0.0592 -0.366839,-0.57188 -0.707065,-0.68404 z m 7.9995468,0 c -1.043551,0.24921 1.5627882,1.21458 1.2754906,0.68402 -0.5248973,-0.1873 -1.0192818,-0.0906 -1.2754906,-0.68402 z m -1.1507148,0.11897 c -0.6501425,0.27867 1.0906837,0.25208 0,0 z m -3.2857759,0.10404 c -0.2581858,0.59679 0.7908066,2.40106 -0.4510451,1.95589 -0.9256521,0.21947 1.0743994,0.23527 0.825374,1.01826 0.039735,0.76393 1.6164111,1.26304 0.5129692,0.40151 -0.6241634,-0.79941 -0.4373002,-1.59907 -0.5684253,-2.4537 -0.1500245,-0.26356 -0.1022148,-0.71867 -0.3188728,-0.92196 z m -1.6082279,0.59482 c -0.1764939,0.52299 1.3813672,0.65187 0.2072058,0.19787 l -0.096293,-0.0939 -0.1109123,-0.10405 z m 6.211087,0.28254 c -0.2094361,0.36912 0.2960585,0.39351 0,0 z m -0.1663684,0.41639 c -0.754711,0.49838 1.6576922,2.50178 0.7460596,1.05323 -0.6325892,-0.16286 -0.533192,-0.64821 -0.7460596,-1.05323 z m -6.5854159,0.2528 c -0.3713169,0.91817 0.5224643,0.71059 0,0 z m 6.4606396,0.44613 c -0.1367607,0.06 0.1052334,0.0891 0,0 z m -7.0290645,0.52048 c -0.326048,0.14817 0.313198,0.45569 0,0 z m 6.6131434,0.16356 c -0.1439526,0.20223 0.304428,-0.009 0,0 z m -6.7795124,0.11897 c -0.721755,0.32334 0.298442,1.68375 -0.06643,0.44643 0.09865,-0.12784 0.157077,-0.28828 0.06643,-0.44643 z m 4.3671706,0.0892 c 0.079169,0.54927 0.7621561,0.97604 0.3188729,0.11895 -0.1201297,5.9e-4 -0.1944192,-0.15573 -0.3188729,-0.11895 z m 3.327368,0.25281 c -0.010873,0.32198 0.455197,1.04828 0.7019818,1.10124 0.077222,-0.54811 -0.3384613,-0.83347 -0.7019818,-1.10124 z m -2.4677978,0.16357 c -0.079332,0.52222 0.8248771,-0.0506 0,0 z m 1.5111795,0 c -0.1326589,0.4904 -1.64271,-0.17421 -0.6793376,0.3718 0.2440695,0.14594 1.2830015,0.0353 0.6793376,-0.3718 z m -1.5804997,0.19332 c -0.1635661,0.0201 -0.017586,0.13827 0,0 z m -0.8734342,0.44614 c 0.1767157,0.38383 0.6961919,-0.1522 0,1e-5 z m -4.7137714,0.10404 c -0.108814,0.46562 0.562235,0.49582 0.02773,0.0297 z m 4.7692276,0.22307 c -0.1480919,0.84797 0.7712556,0.61228 0,0 z m -3.4105522,0.23792 c -0.2145504,0.18248 1.122221,1.129 0.4434008,0.16161 -0.1459797,-0.0604 -0.3061426,-0.0768 -0.4434008,-0.16161 z m 2.883719,0.34201 c -0.5680738,0.12465 0.020123,1.356 -0.0054,0.17437 0.095262,-0.0805 0.374298,-0.15177 0.0054,-0.17437 z m 2.4400698,0.11893 c -0.3634153,0.48289 1.1289988,0.32428 0.2079605,0.0594 -0.046848,0.14245 -0.1356914,-0.15873 -0.2079605,-0.0594 z m -6.6963282,0.10405 c -1.076303,0.62592 2.2764759,0.40545 0.569654,0.235 -0.195229,-0.0607 -0.379868,-0.18831 -0.569654,-0.235 z m 2.0241489,0.14871 c -0.069098,0.11367 0.1076223,0.0857 0,0 z m 6.59928,0 c -0.3674262,0.93237 0.6885028,0.61456 0,0 z m -9.7880079,0.16358 c -0.608061,0.26192 0.729856,0.15871 0,0 z m 8.9977579,0.0595 c -0.1450818,0.0913 0.1450817,0.0913 0,0 z m -8.4709249,0.35682 c -0.132444,0.19575 0.395594,-0.028 0,0 z"
         id="path3802"
         inkscape:connector-curvature="0"
         sodipodi:nodetypes="cccccccccccccccccccccccccccccccccccccccccccccccccccccccccccccccccccccccccccccccccccccccccccccccccccccccccccccc"
         fill="#99510c"
         fill-opacity="1"
         stroke-width="0.119" />
      <g
         transform="matrix(1,0,0,1.0691145,0.1652647,-16.406193)"
         id="g1559">
        <path
           d="m -9.6452672,237.97553 c -0.5406288,0.41437 0.695448,0.32088 0,0 z m -0.3604648,0.45744 c -0.169723,0.33398 0.2688583,0.0508 0,0 z m -1.71914,0.0693 c -0.197371,0.52074 1.232177,0.69989 0.141671,0.0695 z m -0.277281,0.12478 c -0.369373,0.18441 0.269454,0.23188 0,0 z m 7.3618024,0.0138 c -0.7435658,0.48185 0.6716989,0.31802 0,0 z m -5.2544691,0.13864 c -0.5645153,0.54527 0.430972,0.83303 0,0 z m 4.9355961,0.16637 c -0.5749798,0.2849 1.0961974,1.25503 0.2218249,0.41592 -0.073064,-0.13856 -0.080909,-0.32026 -0.2218249,-0.41592 z m -4.3394428,0.20796 c -0.070834,0.37818 0.994319,0.60863 1.1645788,1.20615 0.9107984,0.48888 -0.439462,-1.10972 -1.1645788,-1.20615 z m 3.7710175,0.12478 c -0.227429,0.32888 -1.333423,0.0361 -1.0354154,0.41567 0.2648208,-0.12354 1.1257604,-0.0928 1.0354154,-0.41567 z m 2.3291575,0 c -0.2142715,0.10921 0.2288267,0.0324 0,0 z m -3.8403373,0.40206 c -0.4667887,0.28063 0.7317667,-0.0228 0,0 z m -0.526833,0.33273 c -0.3955562,0.17878 0.2574143,0.23459 0,0 z m 4.214666,0.0277 c -0.1323808,0.1733 0.1130972,0.22098 0,0 z m -8.2491003,0.20796 c -0.137906,0.0383 0.112164,0.10085 0,0 z m 0.06932,0.0693 c -0.115396,0.76055 2.0784898,1.4903 0.707066,0.63772 -0.385309,-0.0552 -0.36684,-0.53316 -0.707066,-0.63772 z m 7.9995485,0 c -1.0435535,0.23234 1.562792,1.13234 1.2754906,0.6377 -0.5248971,-0.1746 -1.0192837,-0.0845 -1.2754906,-0.6377 z m -1.150715,0.11091 c -0.6501576,0.2598 1.0906883,0.23501 0,0 z m -3.2857763,0.097 c -0.2581849,0.55639 0.7908066,2.23849 -0.4510453,1.82346 -0.9256516,0.20461 1.0744,0.21934 0.8253746,0.94933 0.039734,0.71219 1.6164107,1.17752 0.512969,0.37431 -0.6241618,-0.74527 -0.4373011,-1.49079 -0.5684252,-2.28757 -0.1500243,-0.2457 -0.1022145,-0.67 -0.3188731,-0.85953 z m -1.6082281,0.55454 c -0.1764942,0.48758 1.3813672,0.60775 0.2072057,0.18449 l -0.096293,-0.0876 -0.1109122,-0.097 z m 6.2110869,0.26342 c -0.2094355,0.34412 0.2960592,0.36686 0,0 z m -0.1663675,0.38819 c -0.7547126,0.46464 1.6576917,2.33239 0.7460593,0.98192 -0.6325887,-0.15182 -0.5331925,-0.60431 -0.7460593,-0.98192 z m -6.5854165,0.23569 c -0.371318,0.856 0.5224641,0.66248 0,0 z m 6.4606397,0.41592 c -0.1367593,0.0559 0.1052315,0.0831 0,0 z m -7.0290657,0.48524 c -0.326047,0.13815 0.313199,0.42485 0,0 z m 6.6131447,0.15247 c -0.1439524,0.18853 0.3044285,-0.008 0,0 z m -6.7795127,0.11091 c -0.721755,0.30145 0.298441,1.56975 -0.06643,0.4162 0.09865,-0.11918 0.157076,-0.26876 0.06643,-0.4162 z m 4.3671703,0.0832 c 0.079169,0.51208 0.7621577,0.90995 0.3188729,0.11089 -0.120128,5.5e-4 -0.1944219,-0.14519 -0.3188729,-0.11089 z m 3.3273682,0.23569 c -0.010865,0.30015 0.4551966,0.9773 0.7019824,1.02666 0.077227,-0.51099 -0.3384824,-0.77707 -0.7019824,-1.02666 z m -2.4677975,0.1525 c -0.079331,0.48685 0.824875,-0.0471 0,0 z m 1.5111798,0 c -0.132658,0.45719 -1.6427108,-0.16242 -0.6793377,0.34662 0.2440657,0.13606 1.2830021,0.0329 0.6793377,-0.34662 z m -1.5805003,0.18023 c -0.1635661,0.0187 -0.017584,0.12891 0,0 z m -0.8734339,0.41591 c 0.1767144,0.35785 0.6961928,-0.14189 0,3e-5 z m -4.7137716,0.097 c -0.108814,0.43409 0.562235,0.46225 0.02773,0.0277 z m 4.7692278,0.20796 c -0.1651329,0.80489 0.7772812,0.52159 0,0 z m 4.4642188,0.0416 c -0.6133331,0.74804 0.046093,1.22074 0,0 z m -7.8747714,0.18023 c -0.2145542,0.17016 1.1222219,1.05256 0.4434006,0.15068 -0.1459791,-0.0563 -0.3061197,-0.0716 -0.4434006,-0.15068 z m 2.8837191,0.31886 c -0.5680724,0.11621 0.020121,1.2642 -0.0054,0.16256 0.09526,-0.075 0.3742972,-0.14149 0.0054,-0.16256 z m 2.4400699,0.11091 c -0.3634144,0.45019 1.1289991,0.30232 0.2079606,0.0554 -0.046848,0.13281 -0.1356887,-0.14798 -0.2079606,-0.0554 z m -6.6963282,0.097 c -1.076304,0.58354 2.2764748,0.378 0.569654,0.21909 -0.195229,-0.0566 -0.379867,-0.17556 -0.569654,-0.21909 z m 2.0241488,0.13864 c -0.069098,0.10598 0.1076219,0.0799 0,0 z m 6.5992803,0 c -0.3674258,0.86924 0.6885026,0.57295 0,0 z m -9.7880081,0.15251 c -0.217782,0.37043 0.591097,0.0825 0,0 z m 8.9977579,0.0555 c -0.1450804,0.0851 0.1450804,0.0851 0,0 z"
           id="path1557"
           inkscape:connector-curvature="0"
           sodipodi:nodetypes="cccccccccccccccccccccccccccccccccccccccccccccccccccccccccccccccccccccccccccccccccccccccccccccccccccccccccccccccc"
           fill="#4d2f0f"
           fill-opacity="1"
           stroke-width="0.115" />
      </g>
    </g>
    <rect
       width="10.56"
       height="8.636"
       x="-12.485"
       y="261.97"
       id="rect1618"
       fill="url(#pattern1116)"
       stroke="none" />
    <path
       inkscape:connector-curvature="0"
       id="path1842"
       d="m 41.595004,232.04578 c -0.736274,-0.0421 -1.299456,0.55483 -0.380338,1.10794 5.703253,3.59696 9.511123,10.09341 9.511046,17.51004 9.8e-5,9.38688 -6.102424,17.29373 -14.424443,19.71973 v -7.16856 c 0.05157,-1.22447 0.960802,-1.80593 1.844849,-2.40605 l -6.283854,0.12867 c 0.06287,-0.0428 0.125683,-0.086 0.188619,-0.12867 l -7.859985,0.16071 c 1.003754,0.52491 1.642611,1.29287 2.005046,2.24534 v 7.34839 c -8.654521,-2.19337 -15.077731,-10.26843 -15.077633,-19.89956 -6.9e-5,-6.75204 3.156364,-12.74122 8.02535,-16.47445 1.266652,-0.92408 0.236747,-1.86068 -0.731738,-0.98082 -6.277206,4.27224 -10.4209987,11.62632 -10.4210697,19.98173 9.8e-5,11.46208 7.7989237,21.03732 18.2050907,23.35982 v 6.95564 l 2.005045,11.30835 h 0.481108 l 1.523939,-11.30835 v -6.43526 c 0.292807,0.0114 0.586618,0.0191 0.882116,0.0191 0.403539,0 0.804571,-0.0109 1.203026,-0.032 v 6.44818 l 2.005047,11.30835 h 0.481107 l 1.523937,-11.30835 v -7.02748 c 10.245653,-2.4456 17.884603,-11.94365 17.884698,-23.28798 -7.7e-5,-9.06674 -4.879626,-16.95418 -12.069548,-21.0044 -0.172199,-0.0862 -0.351507,-0.13033 -0.521415,-0.14004 z m -10.50272,29.46538 c 1.01e-4,8e-5 4.18e-4,-8e-5 5.19e-4,0 0.553254,0.46544 0.94515,1.0383 1.198375,1.70377 v 7.89099 c -0.45248,0.032 -0.908582,0.0491 -1.368907,0.0491 -0.239739,1e-5 -0.47856,-0.006 -0.716235,-0.0145 v -7.92562 c 0.03223,-0.76529 0.399582,-1.2793 0.886248,-1.70377 z"
       stroke-miterlimit="4"
       style="opacity:1;fill:url(#pattern1844);fill-opacity:1;fill-rule:evenodd;stroke:none;stroke-width:0.26499999;stroke-linecap:round;stroke-linejoin:round;stroke-miterlimit:4;stroke-dasharray:none;stroke-dashoffset:0;stroke-opacity:1;paint-order:normal" />
    <path
       d="m 41.595003,232.12116 c -0.736274,-0.0421 -1.299456,0.55483 -0.380338,1.10794 5.703253,3.59696 9.511123,10.09341 9.511046,17.51004 9.8e-5,9.38688 -6.102424,17.29373 -14.424443,19.71973 v -7.16856 c 0.05157,-1.22447 0.960802,-1.80593 1.844849,-2.40605 l -6.283854,0.12867 c 0.06287,-0.0428 0.125683,-0.086 0.188619,-0.12867 l -7.859985,0.16071 c 1.003754,0.52491 1.642611,1.29287 2.005046,2.24534 v 7.34839 c -8.654521,-2.19337 -15.077731,-10.26843 -15.077633,-19.89956 -6.9e-5,-6.75204 3.156364,-12.74122 8.02535,-16.47445 1.266652,-0.92408 0.236747,-1.86068 -0.731738,-0.98082 -6.277206,4.27224 -10.4209974,11.62632 -10.4210684,19.98173 9.8e-5,11.46208 7.7989224,21.03732 18.2050894,23.35982 v 6.95564 l 2.005045,11.30835 h 0.481108 l 1.523939,-11.30835 v -6.43526 c 0.292807,0.0114 0.586618,0.0191 0.882116,0.0191 0.403539,0 0.804571,-0.0109 1.203026,-0.032 v 6.44818 l 2.005047,11.30835 h 0.481107 l 1.523937,-11.30835 v -7.02748 c 10.245653,-2.4456 17.884603,-11.94365 17.884698,-23.28798 -7.7e-5,-9.06674 -4.879626,-16.95418 -12.069548,-21.0044 -0.172199,-0.0862 -0.351507,-0.13033 -0.521415,-0.14004 z m -10.50272,29.46538 c 1.01e-4,8e-5 4.18e-4,-8e-5 5.19e-4,0 0.553254,0.46544 0.94515,1.0383 1.198375,1.70377 v 7.89099 c -0.45248,0.032 -0.908582,0.0491 -1.368907,0.0491 -0.239739,1e-5 -0.47856,-0.006 -0.716235,-0.0145 v -7.92562 c 0.03223,-0.76529 0.399582,-1.2793 0.886248,-1.70377 z"
       id="path1846"
       inkscape:connector-curvature="0"
       stroke-miterlimit="4"
       style="opacity:1;fill:#2a0d00;fill-opacity:0.36199999;fill-rule:evenodd;stroke:none;stroke-width:0.26499999;stroke-linecap:round;stroke-linejoin:round;stroke-miterlimit:4;stroke-dasharray:none;stroke-dashoffset:0;stroke-opacity:1;paint-order:normal" />
  </g>
</svg>
