<?xml version="1.0" encoding="UTF-8" standalone="no"?>
<!-- Created with Inkscape (http://www.inkscape.org/) -->
<svg
   xmlns:dc="http://purl.org/dc/elements/1.1/"
   xmlns:cc="http://web.resource.org/cc/"
   xmlns:rdf="http://www.w3.org/1999/02/22-rdf-syntax-ns#"
   xmlns:svg="http://www.w3.org/2000/svg"
   xmlns="http://www.w3.org/2000/svg"
   xmlns:xlink="http://www.w3.org/1999/xlink"
   xmlns:sodipodi="http://sodipodi.sourceforge.net/DTD/sodipodi-0.dtd"
   xmlns:inkscape="http://www.inkscape.org/namespaces/inkscape"
   id="svg2"
   sodipodi:version="0.32"
   inkscape:version="0.44"
   width="256"
   height="256"
   version="1.0"
   sodipodi:docbase="/media/disk-hda3/svg3"
   sodipodi:docname="rad.svg">
  <metadata
     id="metadata7">
    <rdf:RDF>
      <cc:Work
         rdf:about="">
        <dc:format>image/svg+xml</dc:format>
        <dc:type
           rdf:resource="http://purl.org/dc/dcmitype/StillImage" />
      </cc:Work>
    </rdf:RDF>
  </metadata>
  <defs
     id="defs5">
    <linearGradient
       inkscape:collect="always"
       id="linearGradient2821">
      <stop
         style="stop-color:#082780;stop-opacity:1;"
         offset="0"
         id="stop2823" />
      <stop
         style="stop-color:#082780;stop-opacity:0.07936508"
         offset="1"
         id="stop2825" />
    </linearGradient>
    <linearGradient
       inkscape:collect="always"
       id="linearGradient2811">
      <stop
         style="stop-color:#2859e5;stop-opacity:1;"
         offset="0"
         id="stop2813" />
      <stop
         style="stop-color:#2859e5;stop-opacity:0.68783069"
         offset="1"
         id="stop2815" />
    </linearGradient>
    <linearGradient
       inkscape:collect="always"
       id="linearGradient2801">
      <stop
         style="stop-color:#2859e5;stop-opacity:1;"
         offset="0"
         id="stop2803" />
      <stop
         style="stop-color:#2859e5;stop-opacity:0.67195767"
         offset="1"
         id="stop2805" />
    </linearGradient>
    <linearGradient
       inkscape:collect="always"
       id="linearGradient2790">
      <stop
         style="stop-color:#2859e5;stop-opacity:1;"
         offset="0"
         id="stop2792" />
      <stop
         style="stop-color:#2859e5;stop-opacity:0.66666669"
         offset="1"
         id="stop2794" />
    </linearGradient>
    <linearGradient
       inkscape:collect="always"
       id="linearGradient2780">
      <stop
         style="stop-color:#2859e5;stop-opacity:1;"
         offset="0"
         id="stop2782" />
      <stop
         style="stop-color:#2859e5;stop-opacity:0.80952382"
         offset="1"
         id="stop2784" />
    </linearGradient>
    <linearGradient
       inkscape:collect="always"
       xlink:href="#linearGradient2780"
       id="linearGradient2786"
       x1="55.000519"
       y1="56.245399"
       x2="61.690399"
       y2="16.742395"
       gradientUnits="userSpaceOnUse"
       gradientTransform="matrix(1.980764,0,0,2.182125,-2.076522,-11.3937)" />
    <linearGradient
       inkscape:collect="always"
       xlink:href="#linearGradient2790"
       id="linearGradient2796"
       x1="61.30146"
       y1="69.34536"
       x2="60.639874"
       y2="37.794258"
       gradientUnits="userSpaceOnUse"
       gradientTransform="matrix(1.980764,0,0,2.182125,-2.076522,-11.3937)" />
    <linearGradient
       inkscape:collect="always"
       xlink:href="#linearGradient2801"
       id="linearGradient2807"
       x1="62.78997"
       y1="79.025368"
       x2="62.265472"
       y2="53.182526"
       gradientUnits="userSpaceOnUse"
       gradientTransform="matrix(1.980764,0,0,2.182125,-2.076522,-11.3937)" />
    <linearGradient
       inkscape:collect="always"
       xlink:href="#linearGradient2811"
       id="linearGradient2817"
       x1="61.076298"
       y1="87.128761"
       x2="61.770779"
       y2="70.12059"
       gradientUnits="userSpaceOnUse"
       gradientTransform="matrix(1.980764,0,0,2.182125,-2.076522,-11.3937)" />
    <linearGradient
       inkscape:collect="always"
       xlink:href="#linearGradient2821"
       id="linearGradient2827"
       x1="63.722927"
       y1="112.29707"
       x2="64.251114"
       y2="82.511627"
       gradientUnits="userSpaceOnUse"
       gradientTransform="matrix(1.980764,0,0,2.182125,-2.076522,-11.3937)" />
  </defs>
  <sodipodi:namedview
     inkscape:window-height="713"
     inkscape:window-width="1016"
     inkscape:pageshadow="2"
     inkscape:pageopacity="0.0"
     guidetolerance="10.0"
     gridtolerance="10.0"
     objecttolerance="10.0"
     borderopacity="1.0"
     bordercolor="#666666"
     pagecolor="#ffffff"
     id="base"
     inkscape:zoom="1.9492188"
     inkscape:cx="128"
     inkscape:cy="128"
     inkscape:window-x="0"
     inkscape:window-y="0"
     inkscape:current-layer="svg2"
     width="256px"
     height="256px" />
  <path
     sodipodi:nodetypes="ccccc"
     id="path2774"
     d="M 8.2935547,94.381079 C 48.475404,11.546124 209.4289,19.61837 242.5593,94.381079 C 250.27147,112.16169 234.92286,116.98325 227.41483,109.65443 C 180.58238,48.106048 62.861111,47.43736 21.544944,110.67265 C 12.266152,123.007 2.7035097,104.53998 8.2935547,94.381079 z "
     style="fill:#123f77;fill-opacity:1;fill-rule:evenodd;stroke:black;stroke-width:1.91359007px;stroke-linecap:butt;stroke-linejoin:miter;stroke-opacity:1" />
  <path
     style="opacity:0.65816327;fill:#2859e5;fill-opacity:0.6825397;fill-rule:evenodd;stroke:black;stroke-width:1.91359007px;stroke-linecap:butt;stroke-linejoin:miter;stroke-opacity:1"
     d="M 7.8202778,94.890192 C 48.002146,12.055238 208.95566,20.127482 242.08604,94.890192 C 249.79822,112.6708 234.4496,117.49236 226.94157,110.16354 C 180.10911,48.615162 62.387853,47.946471 21.071684,111.18177 C 11.792893,123.5161 2.2302512,105.04909 7.8202778,94.890192 z "
     id="path1873"
     sodipodi:nodetypes="ccccc" />
  <path
     style="opacity:0.82142861;fill:#2859e5;fill-opacity:0.6825397;fill-rule:evenodd;stroke:black;stroke-width:0;stroke-linecap:butt;stroke-linejoin:miter;stroke-miterlimit:4;stroke-dasharray:none;stroke-opacity:1"
     d="M 119.37253,38.786979 C 79.324495,40.071688 34.107835,54.400882 12.881973,93.987563 C 8.6492322,98.19852 11.09069,112.87418 17.667417,109.30728 C 47.960338,64.499148 105.20405,52.485827 153.73548,61.859584 C 183.628,67.277754 212.10368,82.890209 232.03229,107.38456 C 237.82728,111.50039 244.32894,104.48437 240.68067,98.143112 C 225.81824,62.717351 188.56012,47.299567 155.4075,41.329927 C 143.55305,39.200627 131.46189,38.493752 119.37253,38.786979 z "
     id="path2782" />
  <path
     style="opacity:1;fill:#4c76ee;fill-opacity:0.6825397;fill-rule:evenodd;stroke:black;stroke-width:0;stroke-linecap:butt;stroke-linejoin:miter;stroke-miterlimit:4;stroke-dasharray:none;stroke-opacity:1"
     d="M 119.07224,40.210901 C 79.583367,41.238522 35.12673,55.840626 14.484328,95.10137 C 13.240897,97.661419 14.395917,107.14094 17.251815,100.18727 C 51.670781,54.524826 113.23987,44.514173 164.22791,57.710606 C 191.22012,64.440422 216.08649,80.424867 234.61477,102.04796 C 241.5486,101.06116 233.60845,91.400072 232.36621,88.278826 C 208.64709,50.296314 159.21154,39.664204 119.07224,40.210901 z "
     id="path2790" />
  <path
     style="opacity:1;fill:#92aaee;fill-opacity:0.6825397;fill-rule:evenodd;stroke:black;stroke-width:0;stroke-linecap:butt;stroke-linejoin:miter;stroke-miterlimit:4;stroke-dasharray:none;stroke-opacity:1"
     d="M 116.08614,41.758867 C 82.920438,43.474467 47.479109,54.239507 25.62394,82.81818 C 67.404953,41.934631 131.65214,37.224 183.4283,57.202627 C 200.35908,63.738081 217.50283,76.201299 229.66839,87.78003 C 206.01907,51.553536 161.9037,42.05099 123.29314,41.63482 C 120.88922,41.606153 118.48775,41.637772 116.08614,41.758867 z "
     id="path2798" />
  <path
     style="fill:#123f77;fill-opacity:1;fill-rule:evenodd;stroke:black;stroke-width:1.41290295px;stroke-linecap:butt;stroke-linejoin:miter;stroke-opacity:1"
     d="M 31.777149,121.01552 C 63.57752,63.954694 190.958,69.515261 217.17781,121.01552 C 223.28132,133.26368 211.13422,136.58501 205.19228,131.53656 C 168.12855,89.138983 74.962533,88.678356 42.264446,132.23796 C 34.921107,140.73446 27.353102,128.01347 31.777149,121.01552 z "
     id="path2806"
     sodipodi:nodetypes="ccccc" />
  <path
     sodipodi:nodetypes="ccccc"
     id="path2808"
     d="M 31.40258,121.36622 C 63.202987,64.305397 190.58349,69.865956 216.80327,121.36622 C 222.90675,133.61438 210.7597,136.93571 204.81776,131.88726 C 167.75398,89.489685 74.588018,89.029056 41.889893,132.58866 C 34.546572,141.08517 26.978569,128.36417 31.40258,121.36622 z "
     style="opacity:0.65816327;fill:#2859e5;fill-opacity:0.6825397;fill-rule:evenodd;stroke:black;stroke-width:1.4137255;stroke-linecap:butt;stroke-linejoin:miter;stroke-miterlimit:4;stroke-dasharray:none;stroke-opacity:1" />
  <path
     id="path2810"
     d="M 119.68635,82.719545 C 87.991858,83.604517 52.206859,93.475176 35.408462,120.74444 C 32.058621,123.64516 33.990825,133.75449 39.195729,131.29742 C 63.169906,100.43136 108.47325,92.15599 146.88158,98.613096 C 170.53888,102.3454 193.07488,113.10004 208.8466,129.97296 C 213.43284,132.80815 218.57829,127.97517 215.69103,123.60699 C 203.92873,99.203971 174.44222,88.583438 148.20485,84.471255 C 138.82311,83.004487 129.25401,82.517555 119.68635,82.719545 z "
     style="opacity:0.82142861;fill:#2859e5;fill-opacity:0.6825397;fill-rule:evenodd;stroke:black;stroke-width:0;stroke-linecap:butt;stroke-linejoin:miter;stroke-miterlimit:4;stroke-dasharray:none;stroke-opacity:1" />
  <path
     id="path2812"
     d="M 119.44871,83.700413 C 88.196743,84.408289 53.013232,94.466941 36.676597,121.51169 C 35.692535,123.27518 36.606634,129.80515 38.866823,125.01511 C 66.106393,93.560554 114.83289,86.66472 155.1854,95.755078 C 176.54739,100.39091 196.22689,111.40178 210.89041,126.29685 C 216.37792,125.61709 210.094,118.96205 209.11087,116.81198 C 190.33929,90.647745 151.21541,83.323821 119.44871,83.700413 z "
     style="opacity:1;fill:#4c76ee;fill-opacity:0.6825397;fill-rule:evenodd;stroke:black;stroke-width:0;stroke-linecap:butt;stroke-linejoin:miter;stroke-miterlimit:4;stroke-dasharray:none;stroke-opacity:1" />
  <path
     id="path2814"
     d="M 117.08546,84.76673 C 90.837737,85.94852 62.789045,93.364012 45.492626,113.05042 C 78.558585,84.887807 129.40458,81.642887 170.38084,95.405156 C 183.78005,99.907102 197.34782,108.49238 206.97578,116.46839 C 188.25943,91.513782 153.346,84.967956 122.78916,84.681278 C 120.8867,84.661531 118.98612,84.683311 117.08546,84.76673 z "
     style="opacity:1;fill:#92aaee;fill-opacity:0.6825397;fill-rule:evenodd;stroke:black;stroke-width:0;stroke-linecap:butt;stroke-linejoin:miter;stroke-miterlimit:4;stroke-dasharray:none;stroke-opacity:1" />
  <path
     sodipodi:nodetypes="ccccc"
     id="path2816"
     d="M 54.390592,147.29149 C 78.351577,101.01412 174.33043,105.52384 194.08655,147.29149 C 198.68545,157.22498 189.53286,159.91864 185.05569,155.82425 C 157.12886,121.43904 86.929973,121.06546 62.292576,156.3931 C 56.759505,163.28392 51.057156,152.96696 54.390592,147.29149 z "
     style="fill:#123f77;fill-opacity:1;fill-rule:evenodd;stroke:black;stroke-width:1.10449564px;stroke-linecap:butt;stroke-linejoin:miter;stroke-opacity:1" />
  <path
     style="opacity:0.65816327;fill:#2859e5;fill-opacity:0.6825397;fill-rule:evenodd;stroke:black;stroke-width:1.10449564px;stroke-linecap:butt;stroke-linejoin:miter;stroke-opacity:1"
     d="M 54.108363,147.57592 C 78.069368,101.29854 174.04824,105.80826 193.80433,147.57592 C 198.40321,157.5094 189.25063,160.20307 184.77348,156.10868 C 156.84663,121.72347 86.647781,121.34989 62.010367,156.67752 C 56.477296,163.56835 50.774945,153.25139 54.108363,147.57592 z "
     id="path2818"
     sodipodi:nodetypes="ccccc" />
  <path
     style="opacity:0.82142861;fill:#2859e5;fill-opacity:0.6825397;fill-rule:evenodd;stroke:black;stroke-width:0;stroke-linecap:butt;stroke-linejoin:miter;stroke-miterlimit:4;stroke-dasharray:none;stroke-opacity:1"
     d="M 120.62855,116.23276 C 96.747336,116.95049 69.784013,124.95577 57.126713,147.07165 C 54.602675,149.42418 56.058554,157.62303 59.980361,155.63031 C 78.04446,130.59737 112.17969,123.88589 141.11966,129.12272 C 158.945,132.14969 175.92546,140.87189 187.80916,154.55614 C 191.26481,156.85553 195.14181,152.9359 192.96631,149.39323 C 184.10362,129.60193 161.8861,120.98848 142.11673,117.65343 C 135.04776,116.46385 127.8376,116.06894 120.62855,116.23276 z "
     id="path2820" />
  <path
     style="opacity:1;fill:#4c76ee;fill-opacity:0.6825397;fill-rule:evenodd;stroke:black;stroke-width:0;stroke-linecap:butt;stroke-linejoin:miter;stroke-miterlimit:4;stroke-dasharray:none;stroke-opacity:1"
     d="M 120.44949,117.02826 C 96.901722,117.60236 70.391587,125.76011 58.082234,147.6939 C 57.340768,149.12412 58.029522,154.42004 59.732539,150.53523 C 80.257047,125.02501 116.97157,119.43237 147.37644,126.80481 C 163.47229,130.56456 178.30044,139.49458 189.34913,151.57475 C 193.48387,151.02345 188.74905,145.62609 188.00827,143.88235 C 173.86424,122.66268 144.38511,116.72284 120.44949,117.02826 z "
     id="path2822" />
  <path
     style="opacity:1;fill:#92aaee;fill-opacity:0.6825397;fill-rule:evenodd;stroke:black;stroke-width:0;stroke-linecap:butt;stroke-linejoin:miter;stroke-miterlimit:4;stroke-dasharray:none;stroke-opacity:1"
     d="M 118.66883,117.89306 C 98.891656,118.85152 77.757491,124.86562 64.724955,140.83165 C 89.639543,117.99126 127.95107,115.35957 158.82592,126.52102 C 168.92197,130.17218 179.14503,137.135 186.39953,143.60369 C 172.2971,123.36504 145.99049,118.05626 122.96646,117.82376 C 121.533,117.80775 120.10095,117.82541 118.66883,117.89306 z "
     id="path2824" />
  <path
     style="fill:#123f77;fill-opacity:1;fill-rule:evenodd;stroke:black;stroke-width:0.78076261px;stroke-linecap:butt;stroke-linejoin:miter;stroke-opacity:1"
     d="M 73.769489,167.89128 C 91.163175,136.03523 160.83585,139.1396 175.17713,167.89128 C 178.51557,174.72921 171.87155,176.58345 168.62149,173.76499 C 148.34892,150.09517 97.390387,149.83801 79.505676,174.15657 C 75.489111,178.90002 71.34969,171.79811 73.769489,167.89128 z "
     id="path2826"
     sodipodi:nodetypes="ccccc" />
  <path
     sodipodi:nodetypes="ccccc"
     id="path2828"
     d="M 73.564603,168.08707 C 90.958306,136.23102 160.63099,139.33538 174.9723,168.08707 C 178.31068,174.925 171.66667,176.77924 168.41664,173.96078 C 148.14407,150.29096 97.185518,150.0338 79.300807,174.35236 C 75.284263,179.09581 71.144824,171.9939 73.564603,168.08707 z "
     style="opacity:0.65816327;fill:#2859e5;fill-opacity:0.6825397;fill-rule:evenodd;stroke:black;stroke-width:0.78076261px;stroke-linecap:butt;stroke-linejoin:miter;stroke-opacity:1" />
  <path
     id="path2830"
     d="M 121.85273,146.51131 C 104.51696,147.00538 84.94384,152.51599 75.755677,167.73994 C 73.923434,169.35936 74.980301,175.00322 77.827194,173.63148 C 90.940226,156.39951 115.71956,151.77951 136.72758,155.3844 C 149.6673,157.46808 161.99372,163.4722 170.6203,172.89206 C 173.12881,174.47489 175.94317,171.77672 174.36393,169.33805 C 167.93038,155.71428 151.8023,149.78502 137.45137,147.48926 C 132.31988,146.67039 127.08592,146.39855 121.85273,146.51131 z "
     style="opacity:0.82142861;fill:#2859e5;fill-opacity:0.6825397;fill-rule:evenodd;stroke:black;stroke-width:0;stroke-linecap:butt;stroke-linejoin:miter;stroke-miterlimit:4;stroke-dasharray:none;stroke-opacity:1" />
  <path
     id="path2832"
     d="M 121.72275,147.05892 C 104.62903,147.45411 85.384865,153.06968 76.449301,168.16828 C 75.911062,169.15281 76.411034,172.79837 77.647289,170.12418 C 92.546364,152.56366 119.19809,148.71384 141.26949,153.78882 C 152.95374,156.37692 163.71775,162.5241 171.73818,170.83975 C 174.73965,170.46025 171.30256,166.74486 170.76482,165.54452 C 160.49743,150.93749 139.09801,146.84867 121.72275,147.05892 z "
     style="opacity:1;fill:#4c76ee;fill-opacity:0.6825397;fill-rule:evenodd;stroke:black;stroke-width:0;stroke-linecap:butt;stroke-linejoin:miter;stroke-miterlimit:4;stroke-dasharray:none;stroke-opacity:1" />
  <path
     id="path2834"
     d="M 120.43013,147.65422 C 106.07356,148.314 90.731907,152.45393 81.271369,163.4445 C 99.357296,147.72181 127.16826,145.91024 149.58084,153.59347 C 156.90975,156.10682 164.33084,160.89983 169.59701,165.35269 C 159.35983,151.42098 140.2634,147.76656 123.54987,147.60652 C 122.50929,147.59549 121.46975,147.60765 120.43013,147.65422 z "
     style="opacity:1;fill:#92aaee;fill-opacity:0.6825397;fill-rule:evenodd;stroke:black;stroke-width:0;stroke-linecap:butt;stroke-linejoin:miter;stroke-miterlimit:4;stroke-dasharray:none;stroke-opacity:1" />
  <path
     style="fill:#082780;fill-opacity:1;fill-rule:evenodd;stroke:#3433c4;stroke-width:0;stroke-miterlimit:4;stroke-opacity:1"
     d="M 154.05891,200.78542 C 154.05891,217.08515 141.12556,230.31391 125.1898,230.31391 C 109.25405,230.31391 96.320681,217.08515 96.320681,200.78542 C 96.320681,184.48571 109.25405,171.25695 125.1898,171.25695 C 141.12556,171.25695 154.05891,184.48571 154.05891,200.78542 z "
     id="path2836" />
  <path
     style="fill:#1d44b8;fill-opacity:1;fill-rule:evenodd;stroke:#3433c4;stroke-width:0;stroke-miterlimit:4;stroke-opacity:1"
     d="M 122.70204,175.37744 C 104.77716,175.72487 92.735161,200.97197 105.00166,216.0026 C 117.31575,234.58077 148.52672,226.42061 150.20393,203.28783 C 152.11182,186.99593 137.30328,173.33985 122.70204,175.37744 z "
     id="path2839" />
  <path
     style="fill:#4d74ea;fill-opacity:1;fill-rule:evenodd;stroke:#3433c4;stroke-width:0;stroke-miterlimit:4;stroke-opacity:1"
     d="M 124.37406,177.17683 C 107.33731,176.1018 96.223558,198.20525 110.13304,208.19768 C 123.12906,220.06846 150.91071,209.23932 146.28332,191.83276 C 144.38464,182.97787 134.06209,176.49951 124.37406,177.17683 z "
     id="path2843" />
  <path
     style="fill:#90a7ed;fill-opacity:1;fill-rule:evenodd;stroke:#3433c4;stroke-width:0;stroke-miterlimit:4;stroke-opacity:1"
     d="M 122.7717,179.08592 C 111.35112,178.48254 101.7447,193.76606 113.60441,199.17191 C 122.88268,205.33912 143.30828,201.78909 143.52785,189.86625 C 141.93127,181.70092 131.15743,178.31938 122.7717,179.08592 z "
     id="path2847" />
  <path
     sodipodi:nodetypes="ccccc"
     id="path1892"
     d="M 7.8202778,94.890192 C 48.002146,12.055238 208.95566,20.127482 242.08604,94.890192 C 249.79822,112.6708 234.4496,117.49236 226.94157,110.16354 C 180.10911,48.615162 62.387853,47.946471 21.071684,111.18177 C 11.792893,123.5161 2.2302512,105.04909 7.8202778,94.890192 z "
     style="opacity:0.62244897;fill:url(#linearGradient2786);fill-opacity:1;fill-rule:evenodd;stroke:black;stroke-width:0;stroke-linecap:butt;stroke-linejoin:miter;stroke-miterlimit:4;stroke-dasharray:none;stroke-opacity:1" />
  <path
     style="opacity:0.65816327;fill:url(#linearGradient2796);fill-opacity:1;fill-rule:evenodd;stroke:black;stroke-width:1.4137255;stroke-linecap:butt;stroke-linejoin:miter;stroke-miterlimit:4;stroke-dasharray:none;stroke-opacity:1"
     d="M 31.40258,121.36622 C 63.202987,64.305397 190.58349,69.865956 216.80327,121.36622 C 222.90675,133.61438 210.7597,136.93571 204.81776,131.88726 C 167.75398,89.489685 74.588018,89.029056 41.889893,132.58866 C 34.546572,141.08517 26.978569,128.36417 31.40258,121.36622 z "
     id="path2788"
     sodipodi:nodetypes="ccccc" />
  <path
     sodipodi:nodetypes="ccccc"
     id="path2799"
     d="M 54.108363,147.57592 C 78.069368,101.29854 174.04824,105.80826 193.80433,147.57592 C 198.40321,157.5094 189.25063,160.20307 184.77348,156.10868 C 156.84663,121.72347 86.647781,121.34989 62.010367,156.67752 C 56.477296,163.56835 50.774945,153.25139 54.108363,147.57592 z "
     style="opacity:0.65816327;fill:url(#linearGradient2807);fill-opacity:1;fill-rule:evenodd;stroke:black;stroke-width:1.10449564px;stroke-linecap:butt;stroke-linejoin:miter;stroke-opacity:1" />
  <path
     style="opacity:0.65816327;fill:url(#linearGradient2817);fill-opacity:1;fill-rule:evenodd;stroke:black;stroke-width:0.78076261px;stroke-linecap:butt;stroke-linejoin:miter;stroke-opacity:1"
     d="M 73.564603,168.08707 C 90.958306,136.23102 160.63099,139.33538 174.9723,168.08707 C 178.31068,174.925 171.66667,176.77924 168.41664,173.96078 C 148.14407,150.29096 97.185518,150.0338 79.300807,174.35236 C 75.284263,179.09581 71.144824,171.9939 73.564603,168.08707 z "
     id="path2809"
     sodipodi:nodetypes="ccccc" />
  <path
     id="path2819"
     d="M 154.05891,200.78542 C 154.05891,217.08515 141.12556,230.31391 125.1898,230.31391 C 109.25405,230.31391 96.320681,217.08515 96.320681,200.78542 C 96.320681,184.48571 109.25405,171.25695 125.1898,171.25695 C 141.12556,171.25695 154.05891,184.48571 154.05891,200.78542 z "
     style="fill:url(#linearGradient2827);fill-opacity:1;fill-rule:evenodd;stroke:#3433c4;stroke-width:0;stroke-miterlimit:4;stroke-opacity:1" />
</svg>
