<?xml version="1.0" encoding="UTF-8" standalone="no"?>
<svg
   xmlns:dc="http://purl.org/dc/elements/1.1/"
   xmlns:cc="http://creativecommons.org/ns#"
   xmlns:rdf="http://www.w3.org/1999/02/22-rdf-syntax-ns#"
   xmlns:svg="http://www.w3.org/2000/svg"
   xmlns="http://www.w3.org/2000/svg"
   xmlns:xlink="http://www.w3.org/1999/xlink"
   xmlns:sodipodi="http://sodipodi.sourceforge.net/DTD/sodipodi-0.dtd"
   xmlns:inkscape="http://www.inkscape.org/namespaces/inkscape"
   id="svg2"
   width="255"
   height="255"
   viewBox="0 0 255 255"
   inkscape:version="0.92.5 (2060ec1f9f, 2020-04-08)"
   version="1.1"
   sodipodi:docname="run-shell-script.svg">
  <sodipodi:namedview
     pagecolor="#ff0000"
     bordercolor="#666666"
     borderopacity="1"
     objecttolerance="10"
     gridtolerance="10"
     guidetolerance="10"
     inkscape:pageopacity="0"
     inkscape:pageshadow="2"
     inkscape:window-width="1920"
     inkscape:window-height="1056"
     id="namedview91"
     showgrid="false"
     inkscape:zoom="3.4156863"
     inkscape:cx="127.5"
     inkscape:cy="127.5"
     inkscape:current-layer="svg2"
     inkscape:window-x="0"
     inkscape:window-y="0"
     inkscape:window-maximized="1" />
  <metadata
     id="metadata8">
    <rdf:RDF>
      <cc:Work>
        <dc:format>image/svg+xml</dc:format>
        <dc:type
           rdf:resource="http://purl.org/dc/dcmitype/StillImage" />
        <dc:title></dc:title>
      </cc:Work>
    </rdf:RDF>
  </metadata>
  <defs
     id="defs6">
    <linearGradient
       inkscape:collect="always"
       id="linearGradient899">
      <stop
         id="stop895"
         stop-color="#d7cdaf"
         stop-opacity="1" />
      <stop
         id="stop904"
         offset="0.225"
         stop-color="#b8a773"
         stop-opacity="1" />
      <stop
         offset="0.64"
         id="stop906"
         stop-color="#f2e6c1"
         stop-opacity="1" />
      <stop
         offset="1"
         id="stop897"
         stop-color="#cfbf8d"
         stop-opacity="1" />
    </linearGradient>
    <linearGradient
       inkscape:collect="always"
       id="linearGradient893">
      <stop
         id="stop889"
         stop-color="#ffffff"
         stop-opacity="1" />
      <stop
         offset="1"
         id="stop891"
         stop-color="#e8e0aa"
         stop-opacity="0" />
    </linearGradient>
    <linearGradient
       inkscape:collect="always"
       id="linearGradient1078">
      <stop
         id="stop1074"
         stop-color="#e9e2ce"
         stop-opacity="1" />
      <stop
         id="stop1082"
         offset="0.349"
         stop-color="#e1d9c4"
         stop-opacity="0.871" />
      <stop
         offset="1"
         id="stop1076"
         stop-color="#b4a67c"
         stop-opacity="0" />
    </linearGradient>
    <linearGradient
       inkscape:collect="always"
       id="linearGradient1019">
      <stop
         id="stop1011"
         stop-color="#fbecc4"
         stop-opacity="1" />
      <stop
         id="stop1013"
         offset="0.922"
         stop-color="#b4a67c"
         stop-opacity="1" />
      <stop
         offset="0.96"
         id="stop1015"
         stop-color="#ffffff"
         stop-opacity="1" />
      <stop
         offset="1"
         id="stop1017"
         stop-color="#fbecc4"
         stop-opacity="1" />
    </linearGradient>
    <linearGradient
       inkscape:collect="always"
       id="linearGradient993">
      <stop
         id="stop985"
         stop-color="#fbecc4"
         stop-opacity="1" />
      <stop
         id="stop987"
         offset="0.904"
         stop-color="#b4a67c"
         stop-opacity="1" />
      <stop
         offset="0.95"
         id="stop989"
         stop-color="#ffffff"
         stop-opacity="1" />
      <stop
         offset="1"
         id="stop991"
         stop-color="#fbecc4"
         stop-opacity="1" />
    </linearGradient>
    <linearGradient
       id="linearGradient959"
       inkscape:collect="always">
      <stop
         id="stop951"
         stop-color="#fbecc4"
         stop-opacity="1" />
      <stop
         offset="0.815"
         id="stop953"
         stop-color="#b4a67c"
         stop-opacity="1" />
      <stop
         id="stop955"
         offset="0.907"
         stop-color="#ffffff"
         stop-opacity="1" />
      <stop
         id="stop957"
         offset="1"
         stop-color="#fbecc4"
         stop-opacity="1" />
    </linearGradient>
    <linearGradient
       id="linearGradient909"
       inkscape:collect="always">
      <stop
         id="stop901"
         stop-color="#fbecc4"
         stop-opacity="1" />
      <stop
         offset="0.792"
         id="stop903"
         stop-color="#b4a67c"
         stop-opacity="1" />
      <stop
         id="stop905"
         offset="0.904"
         stop-color="#ffffff"
         stop-opacity="1" />
      <stop
         id="stop907"
         offset="1"
         stop-color="#fbecc4"
         stop-opacity="1" />
    </linearGradient>
    <linearGradient
       inkscape:collect="always"
       id="linearGradient861">
      <stop
         id="stop857"
         stop-color="#fbecc4"
         stop-opacity="1" />
      <stop
         id="stop865"
         offset="0.858"
         stop-color="#b4a67c"
         stop-opacity="1" />
      <stop
         offset="0.934"
         id="stop867"
         stop-color="#ffffff"
         stop-opacity="1" />
      <stop
         offset="1"
         id="stop859"
         stop-color="#fbecc4"
         stop-opacity="1" />
    </linearGradient>
    <radialGradient
       inkscape:collect="always"
       xlink:href="#linearGradient861"
       id="radialGradient863"
       cx="202.07"
       cy="163.82"
       fx="202.07"
       fy="163.82"
       r="51.72"
       gradientTransform="matrix(0.78710197,-2.1175018,1.224333,0.45509999,-262.24331,496.45685)"
       gradientUnits="userSpaceOnUse" />
    <radialGradient
       inkscape:collect="always"
       xlink:href="#linearGradient861"
       id="radialGradient875"
       cx="157.75"
       cy="161.21"
       fx="157.75"
       fy="161.21"
       r="48.23"
       gradientTransform="matrix(0.83027775,-2.012235,0.84672255,0.34937023,-199.58526,399.47694)"
       gradientUnits="userSpaceOnUse" />
    <radialGradient
       inkscape:collect="always"
       xlink:href="#linearGradient861"
       id="radialGradient883"
       cx="161.11"
       cy="147.61"
       fx="161.11"
       fy="147.61"
       r="47.27"
       gradientTransform="matrix(1.1587096,-1.8337119,0.80959621,0.51157817,-237.53643,343.78211)"
       gradientUnits="userSpaceOnUse" />
    <radialGradient
       inkscape:collect="always"
       xlink:href="#linearGradient861"
       id="radialGradient891"
       cx="199.49"
       cy="168.94"
       fx="199.49"
       fy="168.94"
       r="48.689"
       gradientTransform="matrix(0.71014417,-2.6184713,1.1290863,0.30621451,-236.84564,622.14451)"
       gradientUnits="userSpaceOnUse" />
    <radialGradient
       inkscape:collect="always"
       xlink:href="#linearGradient909"
       id="radialGradient899"
       cx="224.34"
       cy="164.51"
       fx="224.34"
       fy="164.51"
       r="42.609"
       gradientTransform="matrix(0.7125113,-3.2072677,1.3728536,0.30498657,-272.70932,810.01843)"
       gradientUnits="userSpaceOnUse" />
    <radialGradient
       inkscape:collect="always"
       xlink:href="#linearGradient909"
       id="radialGradient917"
       cx="288.82"
       cy="170.8"
       fx="288.82"
       fy="170.8"
       r="33.528"
       gradientTransform="matrix(0.85990163,-5.2737866,2.7171657,0.44303931,-555.5282,1590.2884)"
       gradientUnits="userSpaceOnUse" />
    <radialGradient
       inkscape:collect="always"
       xlink:href="#linearGradient909"
       id="radialGradient925"
       cx="294.67"
       cy="168.2"
       fx="294.67"
       fy="168.2"
       r="20.892"
       gradientTransform="matrix(0.72128253,-8.5153149,3.7656258,0.31896413,-686.60405,2591.7607)"
       gradientUnits="userSpaceOnUse" />
    <radialGradient
       inkscape:collect="always"
       xlink:href="#linearGradient909"
       id="radialGradient933"
       cx="316.59"
       cy="168.1"
       fx="316.59"
       fy="168.1"
       r="28.27"
       gradientTransform="matrix(0.39245696,-6.2366164,2.68755,0.16912176,-401.4523,2059.2012)"
       gradientUnits="userSpaceOnUse" />
    <radialGradient
       inkscape:collect="always"
       xlink:href="#linearGradient909"
       id="radialGradient941"
       cx="325.14"
       cy="158.62"
       fx="325.14"
       fy="158.62"
       r="33.958"
       gradientTransform="matrix(0.00131469,-4.4523126,2.029863,5.9938854e-4,-141.7933,1547.018)"
       gradientUnits="userSpaceOnUse" />
    <radialGradient
       inkscape:collect="always"
       xlink:href="#linearGradient959"
       id="radialGradient949"
       cx="319.62"
       cy="184.61"
       fx="319.62"
       fy="184.61"
       r="49.08"
       gradientTransform="matrix(-1.0820075,-3.3029058,1.4870374,-0.48714237,279.96742,1274.2202)"
       gradientUnits="userSpaceOnUse" />
    <radialGradient
       inkscape:collect="always"
       xlink:href="#linearGradient959"
       id="radialGradient967"
       cx="368.13"
       cy="131.8"
       fx="368.13"
       fy="131.8"
       r="62.34"
       gradientTransform="matrix(-1.2247634,-3.2682642,1.1572507,-0.43367299,508.24525,1348.1436)"
       gradientUnits="userSpaceOnUse" />
    <radialGradient
       inkscape:collect="always"
       xlink:href="#linearGradient959"
       id="radialGradient975"
       cx="377.9"
       cy="98.61"
       fx="377.9"
       fy="98.61"
       r="71.49"
       gradientTransform="matrix(-1.5709089,-2.6435031,1.0416613,-0.61901012,720.27592,1140.4664)"
       gradientUnits="userSpaceOnUse" />
    <radialGradient
       inkscape:collect="always"
       xlink:href="#linearGradient993"
       id="radialGradient983"
       cx="322.64"
       cy="37.961"
       fx="322.64"
       fy="37.961"
       r="74.65"
       gradientTransform="matrix(-1.6449688,-2.1015245,1.1179738,-0.87509415,749.23183,772.67127)"
       gradientUnits="userSpaceOnUse" />
    <radialGradient
       inkscape:collect="always"
       xlink:href="#linearGradient993"
       id="radialGradient1001"
       cx="372.24"
       cy="46.26"
       fx="372.24"
       fy="46.26"
       r="73.22"
       gradientTransform="matrix(-1.4746974,-1.9971156,0.9988477,-0.7375629,747.05816,829.12591)"
       gradientUnits="userSpaceOnUse" />
    <radialGradient
       inkscape:collect="always"
       xlink:href="#linearGradient1019"
       id="radialGradient1009"
       cx="379.65"
       cy="49.4"
       fx="379.65"
       fy="49.4"
       r="68.21"
       gradientTransform="matrix(-1.2588619,-1.6183817,0.86128455,-0.66995235,668.00677,696.64727)"
       gradientUnits="userSpaceOnUse" />
    <radialGradient
       inkscape:collect="always"
       xlink:href="#linearGradient1019"
       id="radialGradient1027"
       cx="387.29"
       cy="46.03"
       fx="387.29"
       fy="46.03"
       r="50.649"
       gradientTransform="matrix(-2.1751747,-1.9404577,0.95442034,-1.0698669,1043.8052,847.71675)"
       gradientUnits="userSpaceOnUse" />
    <radialGradient
       inkscape:collect="always"
       xlink:href="#linearGradient1019"
       id="radialGradient1035"
       cx="396.87"
       cy="16.399"
       fx="396.87"
       fy="16.399"
       r="59.44"
       gradientTransform="matrix(-2.1194818,-2.0558019,1.1497614,-1.185376,1080.1874,868.8416)"
       gradientUnits="userSpaceOnUse" />
    <radialGradient
       inkscape:collect="always"
       xlink:href="#linearGradient1019"
       id="radialGradient1043"
       cx="358.92"
       cy="-48.18"
       fx="358.92"
       fy="-48.18"
       r="46.38"
       gradientTransform="matrix(-2.4748262,-2.0530201,1.2328415,-1.4861365,1194.6556,688.00115)"
       gradientUnits="userSpaceOnUse" />
    <radialGradient
       inkscape:collect="always"
       xlink:href="#linearGradient1019"
       id="radialGradient1051"
       cx="375.89"
       cy="-41.04"
       fx="375.89"
       fy="-41.04"
       r="37.496"
       gradientTransform="matrix(-2.9699664,-2.2071782,1.3764621,-1.8521593,1425.3723,780.55751)"
       gradientUnits="userSpaceOnUse" />
    <radialGradient
       inkscape:collect="always"
       xlink:href="#linearGradient1078"
       id="radialGradient1085"
       gradientUnits="userSpaceOnUse"
       gradientTransform="matrix(-0.02141397,0.45516053,-0.97996271,-0.04610437,128.57523,-65.037602)"
       cx="226.52"
       cy="8.08"
       fx="226.52"
       fy="8.08"
       r="66.21" />
    <filter
       inkscape:collect="always"
       id="filter1230"
       x="-0.035"
       width="1.07"
       y="-0.037"
       height="1.074"
       color-interpolation-filters="sRGB">
      <feGaussianBlur
         inkscape:collect="always"
         stdDeviation="4.55759"
         id="feGaussianBlur1232" />
    </filter>
    <radialGradient
       inkscape:collect="always"
       xlink:href="#linearGradient893"
       id="radialGradient895"
       cx="117.11"
       cy="37.554"
       fx="117.11"
       fy="37.554"
       r="20.2"
       gradientTransform="matrix(1.0000001,0,0,0.67391307,-1.0504238e-5,14.654258)"
       gradientUnits="userSpaceOnUse" />
    <linearGradient
       inkscape:collect="always"
       xlink:href="#linearGradient899"
       id="linearGradient901"
       x1="145.13"
       y1="49.28"
       x2="335.97"
       y2="55.54"
       gradientUnits="userSpaceOnUse"
       gradientTransform="matrix(0.70120493,0,0,0.70120493,-44.318848,11.795975)" />
  </defs>
  <path
     d="m 76.220323,35.105326 c -14.72227,21.761913 6.92419,54.824204 -4.19141,79.306634 -7.0311,6.83648 -14.47688,14.99295 -28.60937,31.62695 l -4.05274,3.6582 c -1.01326,2.48803 -1.93446,4.94195 -2.81445,7.38086 -8.63626,17.26141 -13.63805,40.46811 -8.8125,38.13086 -0.22621,2.4721 -0.37504,4.90982 -0.45313,7.31641 -0.95379,6.94412 -0.4483,13.87207 0.78516,17.77734 0.48336,3.86944 1.1749,7.63594 2.04883,11.30664 -2.06128,11.40665 3.72342,22.24766 8.72851,23.44336 1.48867,2.85762 3.11661,5.62889 4.85547,8.32617 1.98076,9.8795 8.72448,17.29577 13.64063,17.16602 1.95847,2.0291 4.00035,3.99326 6.10937,5.89844 3.75382,11.1616 14.82455,18.18966 20.39258,15.20507 1.8797,1.15984 3.78631,2.28904 5.72852,3.37696 5.88859,12.23396 23.281477,18.2826 29.580077,13.08789 2.47923,0.84439 4.98424,1.63756 7.50977,2.38672 6.57999,6.6797 19.26933,9.21221 25.11719,5.77539 3.81621,0.63551 7.65395,1.16839 11.5039,1.59961 9.33415,5.3413 23.83699,6.01798 28.91407,1.31054 2.98103,-0.0654 5.95303,-0.19599 8.91211,-0.38672 9.38182,3.89987 23.59545,2.1376 27.52929,-3.70703 4.97754,-1.04055 9.86377,-2.28174 14.63672,-3.71875 8.79243,0.36377 18.35323,-2.84484 20.79297,-7.88867 4.90924,-2.29874 9.62001,-4.85354 14.09766,-7.66406 9.73648,-1.34793 19.10168,-6.96633 17.14062,-13.16016 0.89924,-0.84421 1.78065,-1.70408 2.64649,-2.57812 11.06219,1.52518 26.89777,-14.50529 18.94921,-23.07032 -0.47247,-0.44587 -0.93402,-0.90654 -1.4043,-1.35546 0.16242,-0.32819 0.32562,-0.65554 0.48438,-0.98633 10.16416,5.40617 19.66199,-16.04424 10.18164,-24.22852 -0.71576,-0.54031 -1.41341,-1.09974 -2.12305,-1.64648 0.0353,-0.21687 0.0597,-0.44053 0.0937,-0.65821 0.32018,0.23323 0.63625,0.47986 0.95703,0.71094 10.61945,6.88879 13.55584,-10.82762 3.67383,-18.09961 -1.13871,-0.85059 -2.2542,-1.71874 -3.37695,-2.58203 -0.003,-0.13099 -3.6e-4,-0.25939 -0.004,-0.39062 0.62316,0.41737 1.24157,0.85029 1.86719,1.25976 9.88772,5.82777 12.62101,-9.16055 3.41992,-15.3125 -2.44222,-1.65752 -4.83066,-3.35261 -7.19531,-5.0664 -0.007,-0.0394 -0.0109,-0.0778 -0.0176,-0.11719 0.17789,0.10854 0.35315,0.22416 0.53125,0.33203 8.58658,4.68305 10.96296,-7.36114 2.97266,-12.30469 -2.47217,-1.55258 -4.88845,-3.14206 -7.26953,-4.75586 -0.0367,-0.1327 -0.0762,-0.2675 -0.11328,-0.40039 1.45536,0.84837 2.91868,1.6807 4.39453,2.48047 7.39388,3.60813 9.43706,-5.67163 2.55664,-9.48047 -3.92501,-2.20555 -7.70698,-4.49502 -11.37305,-6.85742 -0.19322,-0.53843 -0.39278,-1.07987 -0.5918,-1.62109 2.06628,1.12907 4.15344,2.21373 6.26563,3.24609 6.77046,2.97993 8.64404,-4.68243 2.34375,-7.82813 -4.22041,-2.13899 -8.25909,-4.37726 -12.15625,-6.69335 0.67949,0.33014 1.35745,0.66242 2.04297,0.98046 5.48223,2.29207 7.02608,-3.54399 1.92578,-5.96093 -21.38043,-10.28372 -37.21394,-23.34693 -52.48047,-37.28906 -6.73077,-17.395867 15.63272,-43.287999 5.78125,-74.841791 -29.62719,2.197975 -59.25366,4.667892 -88.88086,12.757812 -4.42279,-1.146846 -8.98004,-1.800781 -13.2539,-1.800781 -4.67234,0 -9.52561,0.88905 -14.13867,2.388672 C 126.01121,41.922187 101.31798,39.522168 76.220323,35.105326 Z"
     id="path1113"
     inkscape:connector-curvature="0"
     transform="matrix(0.70120493,0,0,0.70120493,9.5542131,9.658155)"
     stroke-opacity="1"
     fill="#000000"
     filter="url(#filter1230)"
     stroke="none"
     stroke-linejoin="miter"
     fill-opacity="0.708"
     stroke-linecap="butt"
     stroke-width="1" />
  <path
     d="m 54.448433,19.737028 c 20.149102,3.545964 39.926959,5.235704 61.141647,14.109611 24.51367,-8.518672 49.02734,-10.580742 73.54101,-12.399356 7.0094,22.450778 -9.25531,40.818856 -3.84808,53.017935 L 47.179841,81.733805 C 63.709576,64.370439 42.777333,36.988817 54.448433,19.737028 Z"
     id="path1087"
     inkscape:connector-curvature="0"
     stroke-opacity="1"
     fill="url(#linearGradient901)"
     stroke="#f8f6d9"
     stroke-linejoin="miter"
     fill-opacity="1"
     stroke-linecap="butt"
     stroke-width="0.701" />
  <g
     id="g941">
    <path
       inkscape:connector-curvature="0"
       id="path817"
       d="M 28.607755,100.08925 95.543957,39.664354 C 105.697,33.293051 116.1493,29.116228 128.36093,37.841189 l 90.37689,66.415301 c 72.16739,171.00689 -254.819384,154.6752 -190.130065,-4.16724 z"
       stroke-opacity="1"
       fill="#fbecc4"
       stroke="#f8f6d9"
       stroke-linejoin="miter"
       fill-opacity="1"
       stroke-linecap="butt"
       stroke-width="0.701" />
    <path
       inkscape:connector-curvature="0"
       id="path819"
       d="M 111.15314,32.368403 C 98.193874,97.741079 88.674049,163.36329 110.38973,219.89724 c 4.60132,10.13477 30.03881,11.39257 26.30566,1.30226 -25.4365,-57.51721 -21.50836,-123.097476 -21.52243,-189.523044 0.0423,-1.64128 -3.5182,-0.970759 -4.01982,0.691947 z"
       stroke-miterlimit="4"
       stroke-dasharray="none"
       stroke-opacity="1"
       fill="url(#radialGradient933)"
       stroke="#f8f6d9"
       stroke-linejoin="miter"
       fill-opacity="1"
       stroke-linecap="butt"
       stroke-width="0.07" />
    <path
       d="M 107.88558,31.934361 C 87.086353,94.632265 74.07396,159.05773 87.250344,215.63115 c 2.942424,10.19247 24.421086,13.23435 22.191256,3.14718 -18.332378,-59.07465 -9.617537,-123.462137 1.71701,-186.989953 0.1732,-1.594356 -2.71899,-1.436401 -3.27303,0.145984 z"
       id="path821"
       inkscape:connector-curvature="0"
       stroke-miterlimit="4"
       stroke-dasharray="none"
       stroke-opacity="1"
       fill="url(#radialGradient925)"
       stroke="#f8f6d9"
       stroke-linejoin="miter"
       fill-opacity="1"
       stroke-linecap="butt"
       stroke-width="0.07" />
    <path
       inkscape:transform-center-y="-100.473"
       inkscape:transform-center-x="-17.863051"
       inkscape:connector-curvature="0"
       id="path823"
       d="M 104.88429,31.821852 C 77.747832,92.04848 55.131448,145.23076 62.420291,202.85924 c -0.18293,15.07967 24.415634,22.51667 23.750323,11.09407 -12.160289,-60.64666 3.981147,-120.064974 21.788426,-182.090411 0.33624,-1.568093 -2.36093,-1.558069 -3.07475,-0.04105 z"
       stroke-miterlimit="4"
       stroke-dasharray="none"
       stroke-opacity="1"
       fill="url(#radialGradient917)"
       stroke="#f8f6d9"
       stroke-linejoin="miter"
       fill-opacity="1"
       stroke-linecap="butt"
       stroke-width="0.07" />
    <path
       d="M 101.07232,34.777433 C 66.406726,91.00848 44.962203,130.09521 44.769883,188.1825 42.646754,203.11308 61.258998,213.7436 62.070054,202.33043 57.820121,140.62282 78.572316,93.002336 104.21802,33.786201 c 0.53535,-1.511743 -2.24249,-0.421246 -3.1457,0.991232 z"
       id="path825"
       inkscape:connector-curvature="0"
       inkscape:transform-center-x="-32.99086"
       inkscape:transform-center-y="-95.743999"
       stroke-miterlimit="4"
       stroke-dasharray="none"
       stroke-opacity="1"
       fill="url(#radialGradient899)"
       stroke="#f8f6d9"
       stroke-linejoin="miter"
       fill-opacity="1"
       stroke-linecap="butt"
       stroke-width="0.07" />
    <path
       inkscape:transform-center-y="-89.909305"
       inkscape:transform-center-x="-45.64255"
       inkscape:connector-curvature="0"
       id="path827"
       d="M 96.428731,37.803798 C 55.897634,88.965576 41.109173,112.88997 31.908607,170.78455 c -3.910774,14.56488 10.676848,28.14677 12.860351,16.91509 1.425458,-61.76425 21.450798,-93.662845 54.523802,-149.709752 0.71402,-1.436022 -1.015485,-4.344119 -2.864029,-0.18609 z"
       stroke-miterlimit="4"
       stroke-dasharray="none"
       stroke-opacity="1"
       fill="url(#radialGradient891)"
       stroke="#f8f6d9"
       stroke-linejoin="miter"
       fill-opacity="1"
       stroke-linecap="butt"
       stroke-width="0.07" />
    <path
       d="M 90.314988,43.178453 C 51.329508,84.229112 36.569432,103.87767 23.004999,154.31276 c -4.742501,12.51488 6.029383,26.16565 8.993033,16.42441 6.893286,-55.18382 28.001721,-84.172569 62.110306,-129.705302 0.741258,-1.198232 -1.035203,-1.148139 -3.79335,2.146585 z"
       id="path829"
       inkscape:connector-curvature="0"
       inkscape:transform-center-x="-48.190484"
       inkscape:transform-center-y="-74.185092"
       stroke-miterlimit="4"
       stroke-dasharray="none"
       stroke-opacity="1"
       fill="url(#radialGradient863)"
       stroke="#f8f6d9"
       stroke-linejoin="miter"
       fill-opacity="1"
       stroke-linecap="butt"
       stroke-width="0.07" />
    <path
       inkscape:transform-center-y="-60.477406"
       inkscape:transform-center-x="-49.753548"
       inkscape:connector-curvature="0"
       id="path831"
       d="M 85.54265,45.985868 C 51.270642,82.396821 38.922732,85.91687 22.513314,128.89929 c -5.276861,10.56118 -1.870835,29.17332 1.592465,20.8906 12.215959,-46.41323 29.083739,-65.756064 62.817768,-103.120173 0.759377,-0.986636 0.658544,-3.577089 -1.380897,-0.683849 z"
       stroke-miterlimit="4"
       stroke-dasharray="none"
       stroke-opacity="1"
       fill="url(#radialGradient875)"
       stroke="#f8f6d9"
       stroke-linejoin="miter"
       fill-opacity="1"
       stroke-linecap="butt"
       stroke-width="0.07" />
    <path
       d="M 85.712608,46.105827 C 53.684343,76.42805 55.518759,69.159527 31.015637,98.03123 21.397213,110.63415 14.782025,140.54315 22.548886,129.85664 37.003282,91.197518 56.336118,78.827593 86.923547,46.669717 c 0.745703,-0.801414 0.806988,-2.925143 -1.210939,-0.56389 z"
       id="path833"
       inkscape:connector-curvature="0"
       inkscape:transform-center-x="-48.944784"
       inkscape:transform-center-y="-48.837325"
       stroke-miterlimit="4"
       sodipodi:nodetypes="ccccc"
       stroke-dasharray="none"
       stroke-opacity="1"
       fill="url(#radialGradient883)"
       stroke="#f8f6d9"
       stroke-linejoin="miter"
       fill-opacity="1"
       stroke-linecap="butt"
       stroke-width="0.07" />
    <path
       d="m 115.04693,31.295232 c -1.37653,67.245844 -1.95345,137.448348 21.77697,190.019388 4.79033,9.30422 28.89557,6.76317 24.76815,-2.64403 C 133.598,164.81869 124.06554,96.85343 117.7114,31.232751 c -0.17972,-1.640306 -2.49926,-1.677036 -2.66447,0.06248 z"
       id="path835"
       inkscape:connector-curvature="0"
       stroke-miterlimit="4"
       stroke-dasharray="none"
       stroke-opacity="1"
       fill="url(#radialGradient941)"
       stroke="#f8f6d9"
       stroke-linejoin="miter"
       fill-opacity="1"
       stroke-linecap="butt"
       stroke-width="0.062" />
    <path
       inkscape:transform-center-y="-110.32525"
       inkscape:transform-center-x="21.360003"
       inkscape:connector-curvature="0"
       id="path837"
       d="m 117.8343,31.849335 c 6.40877,65.87408 14.07996,135.613855 43.73049,184.290235 5.83414,8.54775 29.48401,3.32199 24.29642,-5.40183 C 151.82752,161.2947 134.07285,94.040862 120.17316,30.634542 c -0.3682,-1.582578 -2.3759,-0.503984 -2.33886,1.214793 z"
       stroke-miterlimit="4"
       stroke-dasharray="none"
       stroke-opacity="1"
       fill="url(#radialGradient949)"
       stroke="#f8f6d9"
       stroke-linejoin="miter"
       fill-opacity="1"
       stroke-linecap="butt"
       stroke-width="0.061" />
    <path
       d="m 120.91633,32.934576 c 13.43774,63.022132 29.21954,129.747634 63.33919,173.667084 6.60068,7.64571 28.99015,0.0771 22.99793,-7.8076 -38.45929,-44.19474 -63.064,-107.344627 -83.50444,-167.183696 -0.53082,-1.491281 -3.05691,-0.333995 -2.83268,1.324212 z"
       id="path839"
       inkscape:connector-curvature="0"
       inkscape:transform-center-x="33.235028"
       inkscape:transform-center-y="-103.37861"
       stroke-miterlimit="4"
       stroke-dasharray="none"
       stroke-opacity="1"
       fill="url(#radialGradient967)"
       stroke="#f8f6d9"
       stroke-linejoin="miter"
       fill-opacity="1"
       stroke-linecap="butt"
       stroke-width="0.06" />
    <path
       inkscape:transform-center-y="-95.830152"
       inkscape:transform-center-x="42.900032"
       inkscape:connector-curvature="0"
       id="path841"
       d="m 124.56698,33.733439 c 19.38329,59.85082 44.79203,124.071341 81.804,163.115041 7.07078,6.72574 23.3659,-7.47443 16.8477,-14.49816 -41.16122,-38.84416 -70.37918,-94.230853 -96.07669,-150.231621 -0.66076,-1.393318 -2.96222,0.02605 -2.57501,1.61474 z"
       stroke-miterlimit="4"
       stroke-dasharray="none"
       stroke-opacity="1"
       fill="url(#radialGradient975)"
       stroke="#f8f6d9"
       stroke-linejoin="miter"
       fill-opacity="1"
       stroke-linecap="butt"
       stroke-width="0.057" />
    <path
       d="m 127.9205,33.407518 c 23.67344,53.651426 54.46788,113.534352 93.74666,146.728272 7.44611,5.66654 14.97465,-10.43416 8.04561,-16.41592 C 186.391,131.01706 159.17903,81.421872 129.63238,31.78197 c -0.75606,-1.233472 -2.21575,0.191982 -1.71188,1.625548 z"
       id="path843"
       inkscape:connector-curvature="0"
       inkscape:transform-center-x="50.103224"
       inkscape:transform-center-y="-84.347124"
       stroke-miterlimit="4"
       stroke-dasharray="none"
       stroke-opacity="1"
       fill="url(#radialGradient983)"
       stroke="#f8f6d9"
       stroke-linejoin="miter"
       fill-opacity="1"
       stroke-linecap="butt"
       stroke-width="0.055" />
    <path
       inkscape:transform-center-y="-71.901761"
       inkscape:transform-center-x="50.105233"
       inkscape:connector-curvature="0"
       id="path845"
       d="m 133.21386,37.300844 c 23.6744,45.735196 56.46727,97.005506 95.74763,125.301686 7.44641,4.83045 9.50575,-7.59234 2.57644,-12.6915 -40.45855,-30.2216 -66.36934,-71.978149 -95.91717,-114.293716 -0.7561,-1.051472 -2.91077,0.461487 -2.4069,1.68353 z"
       stroke-miterlimit="4"
       stroke-dasharray="none"
       stroke-opacity="1"
       fill="url(#radialGradient1001)"
       stroke="#f8f6d9"
       stroke-linejoin="miter"
       fill-opacity="1"
       stroke-linecap="butt"
       stroke-width="0.05" />
    <path
       d="m 141.2779,42.752825 c 22.04311,38.690995 52.62427,82.018705 89.19801,105.956675 6.93332,4.08646 8.85076,-6.42296 2.39891,-10.73674 -37.67074,-25.56683 -61.79616,-60.891973 -89.30799,-96.690038 -0.704,-0.889523 -2.75809,0.43628 -2.28893,1.470103 z"
       id="path847"
       inkscape:connector-curvature="0"
       inkscape:transform-center-x="46.652729"
       inkscape:transform-center-y="-60.82735"
       stroke-miterlimit="4"
       stroke-dasharray="none"
       stroke-opacity="1"
       fill="url(#radialGradient1009)"
       stroke="#f8f6d9"
       stroke-linejoin="miter"
       fill-opacity="1"
       stroke-linecap="butt"
       stroke-width="0.045" />
    <path
       inkscape:transform-center-y="-48.879357"
       inkscape:transform-center-x="40.513595"
       inkscape:connector-curvature="0"
       id="path849"
       d="m 150.43925,49.583787 c 19.14241,31.091127 45.98933,65.750443 77.75026,84.986393 6.02095,3.28378 7.68607,-5.16133 2.08323,-8.62778 -32.71357,-20.54487 -53.66427,-48.931287 -77.55577,-77.697729 -0.61135,-0.714799 -2.68513,0.508362 -2.27772,1.339116 z"
       stroke-miterlimit="4"
       stroke-dasharray="none"
       stroke-opacity="1"
       fill="url(#radialGradient1035)"
       stroke="#f8f6d9"
       stroke-linejoin="miter"
       fill-opacity="1"
       stroke-linecap="butt"
       stroke-width="0.038" />
    <path
       d="m 161.99619,58.280751 c 16.48347,23.954681 38.8319,50.964489 66.18114,65.785149 5.18462,2.53004 6.61845,-3.97664 1.79387,-6.64742 -28.16956,-15.82914 -46.21015,-37.699926 -66.78305,-59.863515 -0.52643,-0.550729 -1.54278,0.08572 -1.19196,0.725786 z"
       id="path851"
       inkscape:connector-curvature="0"
       inkscape:transform-center-x="34.886136"
       inkscape:transform-center-y="-37.659916"
       stroke-miterlimit="4"
       stroke-dasharray="none"
       stroke-opacity="1"
       fill="url(#radialGradient1027)"
       stroke="#f8f6d9"
       stroke-linejoin="miter"
       fill-opacity="1"
       stroke-linecap="butt"
       stroke-width="0.031" />
    <path
       inkscape:transform-center-y="-31.103042"
       inkscape:transform-center-x="31.944682"
       inkscape:connector-curvature="0"
       id="path853"
       d="m 165.37401,59.418158 c 15.09365,19.783986 35.55775,42.091192 60.60101,54.331462 4.74748,2.08954 6.06042,-3.28428 1.64262,-5.49005 -25.79441,-13.07317 -42.3139,-31.136092 -61.15217,-49.440834 -0.48204,-0.454843 -1.41269,0.07079 -1.09146,0.599422 z"
       stroke-miterlimit="4"
       stroke-dasharray="none"
       stroke-opacity="1"
       fill="url(#radialGradient1043)"
       stroke="#f8f6d9"
       stroke-linejoin="miter"
       fill-opacity="1"
       stroke-linecap="butt"
       stroke-width="0.027" />
    <path
       d="m 171.54716,62.657169 c 12.17866,15.125188 28.70541,32.190037 48.97965,41.596321 3.84416,1.60721 4.9268,-2.48449 1.35045,-4.17926 -20.88083,-10.043419 -34.22173,-23.861259 -49.44277,-37.870555 -0.38953,-0.348152 -1.14617,0.0496 -0.88733,0.453494 z"
       id="path855"
       inkscape:connector-curvature="0"
       inkscape:transform-center-x="25.806551"
       inkscape:transform-center-y="-23.807744"
       stroke-miterlimit="4"
       stroke-dasharray="none"
       stroke-opacity="1"
       fill="url(#radialGradient1051)"
       stroke="#f8f6d9"
       stroke-linejoin="miter"
       fill-opacity="1"
       stroke-linecap="butt"
       stroke-width="0.021" />
    <path
       inkscape:connector-curvature="0"
       id="path1072"
       d="m 164.7721,55.652403 c 11.01646,7.326741 -20.3477,13.694216 -45.97529,13.694216 -25.627596,0 -55.389741,-1.494287 -45.952126,-10.766547 6.841026,-6.721164 11.429346,-9.688517 21.857911,-20.246799 5.01269,-5.075039 14.343985,-9.202007 22.811525,-9.202007 8.25912,0 18.03235,3.437806 23.16006,8.197458 8.56971,7.954583 16.40177,13.20518 24.09792,18.323679 z"
       stroke-miterlimit="4"
       sodipodi:nodetypes="sssssss"
       opacity="1"
       stroke-dasharray="none"
       stroke-opacity="1"
       fill="url(#radialGradient1085)"
       stroke="#f8f6d9"
       stroke-linejoin="round"
       fill-opacity="1"
       stroke-linecap="round"
       stroke-width="0.046"
       stroke-dashoffset="0" />
    <ellipse
       stroke-miterlimit="4"
       stroke-dashoffset="0"
       stroke-width="0.1"
       stroke-linecap="round"
       fill-opacity="1"
       stroke-linejoin="round"
       stroke="none"
       fill="url(#radialGradient895)"
       stroke-opacity="1"
       stroke-dasharray="none"
       opacity="1"
       ry="13.614"
       rx="20.2"
       cy="44.94"
       cx="117.69"
       id="path887" />
  </g>
</svg>
