<?xml version="1.0" encoding="UTF-8" standalone="no"?>
<!-- Created with Inkscape (http://www.inkscape.org/) -->

<svg
   xmlns:dc="http://purl.org/dc/elements/1.1/"
   xmlns:cc="http://creativecommons.org/ns#"
   xmlns:rdf="http://www.w3.org/1999/02/22-rdf-syntax-ns#"
   xmlns:svg="http://www.w3.org/2000/svg"
   xmlns="http://www.w3.org/2000/svg"
   xmlns:xlink="http://www.w3.org/1999/xlink"
   xmlns:sodipodi="http://sodipodi.sourceforge.net/DTD/sodipodi-0.dtd"
   xmlns:inkscape="http://www.inkscape.org/namespaces/inkscape"
   id="svg2"
   sodipodi:version="0.32"
   inkscape:version="0.91 r13725"
   width="256"
   height="256"
   version="1.0"
   sodipodi:docname="selene.svg"
   inkscape:output_extension="org.inkscape.output.svg.inkscape">
  <metadata
     id="metadata7">
    <rdf:RDF>
      <cc:Work
         rdf:about="">
        <dc:format>image/svg+xml</dc:format>
        <dc:type
           rdf:resource="http://purl.org/dc/dcmitype/StillImage" />
      </cc:Work>
    </rdf:RDF>
  </metadata>
  <defs
     id="defs5">
    <linearGradient
       inkscape:collect="always"
       id="linearGradient4191">
      <stop
         style="stop-color:#d4d4d4;stop-opacity:1"
         offset="0"
         id="stop4193" />
      <stop
         style="stop-color:#000000;stop-opacity:1"
         offset="1"
         id="stop4195" />
    </linearGradient>
    <linearGradient
       inkscape:collect="always"
       id="linearGradient4219">
      <stop
         style="stop-color:#d4d4d4;stop-opacity:1"
         offset="0"
         id="stop4221" />
      <stop
         style="stop-color:#606060;stop-opacity:1"
         offset="1"
         id="stop4223" />
    </linearGradient>
    <linearGradient
       inkscape:collect="always"
       id="linearGradient4209">
      <stop
         style="stop-color:#606060;stop-opacity:0.5"
         offset="0"
         id="stop4211" />
      <stop
         style="stop-color:#dbdbdb;stop-opacity:1"
         offset="1"
         id="stop4213" />
    </linearGradient>
    <linearGradient
       inkscape:collect="always"
       id="linearGradient4195">
      <stop
         style="stop-color:#acacac;stop-opacity:1;"
         offset="0"
         id="stop4197" />
      <stop
         style="stop-color:#000000;stop-opacity:1"
         offset="1"
         id="stop4199" />
    </linearGradient>
    <inkscape:perspective
       sodipodi:type="inkscape:persp3d"
       inkscape:vp_x="0 : 526.18109 : 1"
       inkscape:vp_y="0 : 1000 : 0"
       inkscape:vp_z="744.09448 : 526.18109 : 1"
       inkscape:persp3d-origin="372.04724 : 350.78739 : 1"
       id="perspective9" />
    <inkscape:perspective
       id="perspective3235"
       inkscape:persp3d-origin="128 : 85.333333 : 1"
       inkscape:vp_z="256 : 128 : 1"
       inkscape:vp_y="0 : 1000 : 0"
       inkscape:vp_x="0 : 128 : 1"
       sodipodi:type="inkscape:persp3d" />
    <linearGradient
       inkscape:collect="always"
       xlink:href="#linearGradient4195"
       id="linearGradient4201"
       x1="132.60426"
       y1="223.34586"
       x2="125.95957"
       y2="29.432241"
       gradientUnits="userSpaceOnUse"
       gradientTransform="matrix(1.1828577,0,0,1.1828577,-23.995702,-26.227196)" />
    <linearGradient
       inkscape:collect="always"
       xlink:href="#linearGradient4209"
       id="linearGradient4215"
       x1="130.11037"
       y1="104.92039"
       x2="128.68581"
       y2="25.540541"
       gradientUnits="userSpaceOnUse"
       gradientTransform="matrix(1.1828577,0,0,1.1828577,-23.995702,-23.54448)" />
    <linearGradient
       inkscape:collect="always"
       xlink:href="#linearGradient4219"
       id="linearGradient4225"
       x1="96.354698"
       y1="152.41318"
       x2="100.32436"
       y2="168.29793"
       gradientUnits="userSpaceOnUse"
       gradientTransform="matrix(1.1828577,0,0,1.1828577,-23.995702,-23.54448)" />
    <linearGradient
       inkscape:collect="always"
       xlink:href="#linearGradient4195"
       id="linearGradient4243"
       x1="138.96054"
       y1="222.90666"
       x2="183.98653"
       y2="204.19571"
       gradientUnits="userSpaceOnUse"
       spreadMethod="reflect"
       gradientTransform="matrix(1.1828577,0,0,1.1828577,-23.995702,-23.54448)" />
    <linearGradient
       inkscape:collect="always"
       xlink:href="#linearGradient4191"
       id="linearGradient4197"
       x1="-28.004419"
       y1="62.797787"
       x2="-26.307182"
       y2="28.570164"
       gradientUnits="userSpaceOnUse"
       gradientTransform="matrix(0.98316153,0,0,0.98316153,216.26739,6.2529501)" />
    <linearGradient
       inkscape:collect="always"
       xlink:href="#linearGradient4191"
       id="linearGradient4202"
       gradientUnits="userSpaceOnUse"
       gradientTransform="matrix(0.98316153,0,0,0.98316153,243.52215,114.43765)"
       x1="-28.004419"
       y1="62.797787"
       x2="-26.307182"
       y2="28.570164" />
    <linearGradient
       inkscape:collect="always"
       xlink:href="#linearGradient4191"
       id="linearGradient4206"
       gradientUnits="userSpaceOnUse"
       gradientTransform="matrix(0.98316153,0,0,0.98316153,62.472685,99.141615)"
       x1="-28.004419"
       y1="62.797787"
       x2="-26.307182"
       y2="28.570164" />
    <linearGradient
       inkscape:collect="always"
       xlink:href="#linearGradient4191"
       id="linearGradient4210"
       gradientUnits="userSpaceOnUse"
       gradientTransform="matrix(0.98316153,0,0,0.98316153,106.41403,-3.2027848)"
       x1="-28.004419"
       y1="62.797787"
       x2="-26.307182"
       y2="28.570164" />
    <linearGradient
       inkscape:collect="always"
       xlink:href="#linearGradient4191"
       id="linearGradient4214"
       gradientUnits="userSpaceOnUse"
       gradientTransform="matrix(0.48824588,0,0,0.48824588,227.85178,44.506805)"
       x1="-28.004419"
       y1="62.797787"
       x2="-26.307182"
       y2="28.570164" />
    <linearGradient
       inkscape:collect="always"
       xlink:href="#linearGradient4191"
       id="linearGradient4218"
       gradientUnits="userSpaceOnUse"
       gradientTransform="matrix(0.48824588,0,0,0.48824588,184.46727,7.2388628)"
       x1="-28.004419"
       y1="62.797787"
       x2="-26.307182"
       y2="28.570164" />
    <linearGradient
       inkscape:collect="always"
       xlink:href="#linearGradient4191"
       id="linearGradient4222"
       gradientUnits="userSpaceOnUse"
       gradientTransform="matrix(0.48824588,0,0,0.48824588,113.94965,1.6643478)"
       x1="-28.004419"
       y1="62.797787"
       x2="-26.307182"
       y2="28.570164" />
    <linearGradient
       inkscape:collect="always"
       xlink:href="#linearGradient4191"
       id="linearGradient4226"
       gradientUnits="userSpaceOnUse"
       gradientTransform="matrix(0.48824588,0,0,0.48824588,66.566274,30.3731)"
       x1="-28.004419"
       y1="62.797787"
       x2="-26.307182"
       y2="28.570164" />
    <linearGradient
       inkscape:collect="always"
       xlink:href="#linearGradient4191"
       id="linearGradient4230"
       gradientUnits="userSpaceOnUse"
       gradientTransform="matrix(0.48824588,0,0,0.48824588,36.185167,95.873652)"
       x1="-28.004419"
       y1="62.797787"
       x2="-26.307182"
       y2="28.570164" />
    <linearGradient
       inkscape:collect="always"
       xlink:href="#linearGradient4191"
       id="linearGradient4234"
       gradientUnits="userSpaceOnUse"
       gradientTransform="matrix(0.48824588,0,0,0.48824588,50.121454,149.94645)"
       x1="-28.004419"
       y1="62.797787"
       x2="-26.307182"
       y2="28.570164" />
    <linearGradient
       inkscape:collect="always"
       xlink:href="#linearGradient4191"
       id="linearGradient4238"
       gradientUnits="userSpaceOnUse"
       gradientTransform="matrix(0.48824588,0,0,0.48824588,156.59469,203.18306)"
       x1="-28.004419"
       y1="62.797787"
       x2="-26.307182"
       y2="28.570164" />
    <linearGradient
       inkscape:collect="always"
       xlink:href="#linearGradient4191"
       id="linearGradient4242"
       gradientUnits="userSpaceOnUse"
       gradientTransform="matrix(0.48824588,0,0,0.48824588,224.32505,166.11253)"
       x1="-28.004419"
       y1="62.797787"
       x2="-26.307182"
       y2="28.570164" />
    <linearGradient
       inkscape:collect="always"
       xlink:href="#linearGradient4191"
       id="linearGradient4246"
       gradientUnits="userSpaceOnUse"
       gradientTransform="matrix(0.48824588,0,0,0.48824588,245.78693,113.15465)"
       x1="-28.004419"
       y1="62.797787"
       x2="-26.307182"
       y2="28.570164" />
    <linearGradient
       inkscape:collect="always"
       xlink:href="#linearGradient4191"
       id="linearGradient4250"
       gradientUnits="userSpaceOnUse"
       gradientTransform="matrix(0.48824588,0,0,0.48824588,169.6948,112.59719)"
       x1="-28.004419"
       y1="62.797787"
       x2="-26.307182"
       y2="28.570164" />
    <linearGradient
       inkscape:collect="always"
       xlink:href="#linearGradient4191"
       id="linearGradient4254"
       gradientUnits="userSpaceOnUse"
       gradientTransform="matrix(0.48824588,0,0,0.48824588,162.72665,78.592652)"
       x1="-28.004419"
       y1="62.797787"
       x2="-26.307182"
       y2="28.570164" />
    <linearGradient
       inkscape:collect="always"
       xlink:href="#linearGradient4191"
       id="linearGradient4258"
       gradientUnits="userSpaceOnUse"
       gradientTransform="matrix(0.48824588,0,0,0.48824588,126.49231,75.247943)"
       x1="-28.004419"
       y1="62.797787"
       x2="-26.307182"
       y2="28.570164" />
    <linearGradient
       inkscape:collect="always"
       xlink:href="#linearGradient4191"
       id="linearGradient4262"
       gradientUnits="userSpaceOnUse"
       gradientTransform="matrix(0.48824588,0,0,0.48824588,112.27729,107.02268)"
       x1="-28.004419"
       y1="62.797787"
       x2="-26.307182"
       y2="28.570164" />
    <linearGradient
       inkscape:collect="always"
       xlink:href="#linearGradient4191"
       id="linearGradient4266"
       gradientUnits="userSpaceOnUse"
       gradientTransform="matrix(0.48824588,0,0,0.48824588,140.42859,133.50163)"
       x1="-28.004419"
       y1="62.797787"
       x2="-26.307182"
       y2="28.570164" />
    <filter
       inkscape:collect="always"
       style="color-interpolation-filters:sRGB"
       id="filter4274"
       x="-0.024"
       width="1.048"
       y="-0.024"
       height="1.048">
      <feGaussianBlur
         inkscape:collect="always"
         stdDeviation="2.3552013"
         id="feGaussianBlur4276" />
    </filter>
  </defs>
  <sodipodi:namedview
     inkscape:window-height="1056"
     inkscape:window-width="1920"
     inkscape:pageshadow="2"
     inkscape:pageopacity="0.0"
     guidetolerance="10.0"
     gridtolerance="10.0"
     objecttolerance="10.0"
     borderopacity="1.0"
     bordercolor="#666666"
     pagecolor="#ffffff"
     id="base"
     showgrid="false"
     inkscape:zoom="2.86"
     inkscape:cx="128"
     inkscape:cy="128"
     inkscape:window-x="0"
     inkscape:window-y="0"
     inkscape:current-layer="svg2"
     inkscape:window-maximized="1" />
  <path
     inkscape:connector-curvature="0"
     id="path4268"
     d="M 135.09153,15.996844 A 117.75932,117.75932 0 0 0 17.330458,133.75793 117.75932,117.75932 0 0 0 135.09153,251.51697 117.75932,117.75932 0 0 0 252.85059,133.75793 117.75932,117.75932 0 0 0 135.09153,15.996844 Z m 5.834,12.746957 A 36.124969,36.124969 0 0 1 177.05104,64.869288 36.124969,36.124969 0 0 1 140.92553,100.99477 36.124969,36.124969 0 0 1 104.80006,64.869288 36.124969,36.124969 0 0 1 140.92553,28.743801 Z M 70.018692,69.037303 A 36.124969,36.124969 0 0 1 89.785883,73.836895 36.124969,36.124969 0 0 1 103.00855,123.18504 36.124969,36.124969 0 0 1 53.660395,136.4077 36.124969,36.124969 0 0 1 40.437733,87.059559 36.124969,36.124969 0 0 1 70.018692,69.037303 Z M 204.27773,81.162804 a 36.124969,36.124969 0 0 1 0.002,0 36.124969,36.124969 0 0 1 33.51412,26.748956 36.124969,36.124969 0 0 1 -25.54449,44.24292 36.124969,36.124969 0 0 1 -44.2429,-25.54452 36.124969,36.124969 0 0 1 25.54249,-44.242906 36.124969,36.124969 0 0 1 10.72874,-1.20445 z m -69.1862,32.291486 a 20.303327,20.303327 0 0 1 20.30161,20.30364 20.303327,20.303327 0 0 1 -20.30161,20.30159 20.303327,20.303327 0 0 1 -20.30363,-20.30159 20.303327,20.303327 0 0 1 20.30363,-20.30364 z m -44.40888,34.57488 a 36.124969,36.124969 0 0 1 0.002,0 36.124969,36.124969 0 0 1 25.01617,10.57691 36.124969,36.124969 0 0 1 0,51.08905 36.124969,36.124969 0 0 1 -51.089031,0 36.124969,36.124969 0 0 1 0,-51.08905 36.124969,36.124969 0 0 1 26.07084,-10.57691 z m 80.71454,7.21254 a 36.124969,36.124969 0 0 1 32.13763,18.05264 36.124969,36.124969 0 0 1 -13.22267,49.34814 36.124969,36.124969 0 0 1 -49.34815,-13.22266 36.124969,36.124969 0 0 1 13.22266,-49.34816 36.124969,36.124969 0 0 1 17.21053,-4.82996 z"
     style="opacity:1;fill:#000000;fill-opacity:1;fill-rule:nonzero;stroke:none;stroke-width:2.4062326;stroke-linecap:round;stroke-linejoin:round;stroke-miterlimit:4;stroke-dasharray:none;stroke-dashoffset:0;stroke-opacity:1;filter:url(#filter4274)"
     transform="matrix(0.98316153,0,0,0.98316153,0.17608578,0.13453498)" />
  <path
     style="opacity:1;fill:url(#linearGradient4201);fill-opacity:1;fill-rule:nonzero;stroke:#606060;stroke-width:2.36571527;stroke-linecap:round;stroke-linejoin:round;stroke-miterlimit:4;stroke-dasharray:none;stroke-dashoffset:0;stroke-opacity:1"
     d="M 127.41837,9.1725984 A 115.77643,115.77643 0 0 0 11.64021,124.95077 115.77643,115.77643 0 0 0 127.41837,240.72692 115.77643,115.77643 0 0 0 243.19454,124.95077 115.77643,115.77643 0 0 0 127.41837,9.1725984 Z m 5.73576,12.5323176 A 35.51668,35.51668 0 0 1 168.67134,57.222105 35.51668,35.51668 0 0 1 133.15413,92.739293 35.51668,35.51668 0 0 1 97.63696,57.222105 35.51668,35.51668 0 0 1 133.15413,21.704916 Z M 63.441255,61.319937 A 35.51668,35.51668 0 0 1 82.875597,66.038712 35.51668,35.51668 0 0 1 95.875615,114.55591 35.51668,35.51668 0 0 1 47.358407,127.55592 35.51668,35.51668 0 0 1 34.358394,79.038726 35.51668,35.51668 0 0 1 63.441255,61.319937 Z M 195.43958,73.241264 a 35.51668,35.51668 0 0 1 0.002,0 35.51668,35.51668 0 0 1 32.9498,26.298541 35.51668,35.51668 0 0 1 -25.11436,43.497935 35.51668,35.51668 0 0 1 -43.49792,-25.11439 35.51668,35.51668 0 0 1 25.11239,-43.497918 35.51668,35.51668 0 0 1 10.54809,-1.184168 z m -68.02121,31.747746 a 19.96145,19.96145 0 0 1 19.95976,19.96176 19.96145,19.96145 0 0 1 -19.95976,19.95974 19.96145,19.96145 0 0 1 -19.96175,-19.95974 19.96145,19.96145 0 0 1 19.96175,-19.96176 z M 83.757264,138.9817 a 35.51668,35.51668 0 0 1 0.002,0 35.51668,35.51668 0 0 1 24.594936,10.39881 35.51668,35.51668 0 0 1 0,50.22879 35.51668,35.51668 0 0 1 -50.22877,0 35.51668,35.51668 0 0 1 0,-50.22879 35.51668,35.51668 0 0 1 25.631847,-10.39881 z m 79.355426,7.09109 a 35.51668,35.51668 0 0 1 31.59649,17.74866 35.51668,35.51668 0 0 1 -13.00003,48.5172 35.51668,35.51668 0 0 1 -48.5172,-13.00002 35.51668,35.51668 0 0 1 13.00001,-48.51721 35.51668,35.51668 0 0 1 16.92073,-4.74863 z"
     id="path4163"
     inkscape:connector-curvature="0" />
  <path
     style="fill:url(#linearGradient4215);fill-opacity:1;fill-rule:evenodd;stroke:none;stroke-width:1px;stroke-linecap:butt;stroke-linejoin:miter;stroke-opacity:1"
     d="m 11.550284,123.66957 20.45571,-12.07223 C 16.52933,71.010729 70.690628,40.645214 97.061855,79.740083 l 7.377465,-1.341357 c -19.289426,-32.45792 7.64304,-57.81013 32.79014,-56.440261 19.71992,1.074227 45.53369,29.345275 23.21157,58.116959 l 7.7128,3.018055 c 12.92208,-16.280324 64.37624,-19.771959 59.69043,33.198611 l 13.74892,-1.6767 C 226.48783,-25.851171 26.709094,-31.725424 11.550284,123.66957 Z"
     id="path4207"
     inkscape:connector-curvature="0"
     sodipodi:nodetypes="ccccsccccc" />
  <path
     style="fill:url(#linearGradient4225);fill-opacity:1;fill-rule:evenodd;stroke:none;stroke-width:1px;stroke-linecap:butt;stroke-linejoin:miter;stroke-opacity:1"
     d="m 120.04704,170.90286 c -19.19371,14.66104 -51.880135,22.21142 -66.579319,20.16994 -5.473501,-6.26094 -5.163612,-17.83728 -3.972693,-23.5624 7.373413,7.47745 27.647113,17.58202 65.546252,-7.77832 z"
     id="path4217"
     inkscape:connector-curvature="0"
     sodipodi:nodetypes="ccccc" />
  <circle
     style="opacity:1;fill:#717171;fill-opacity:1;fill-rule:evenodd;stroke:url(#linearGradient4238);stroke-width:1.96632302;stroke-linecap:round;stroke-linejoin:round;stroke-miterlimit:4;stroke-dasharray:none;stroke-dashoffset:0;stroke-opacity:1"
     id="circle4236"
     cx="142.50729"
     cy="225.55713"
     r="7.5961351" />
  <circle
     r="7.5961351"
     cy="155.87569"
     cx="126.34119"
     id="circle4264"
     style="opacity:1;fill:#717171;fill-opacity:1;fill-rule:evenodd;stroke:url(#linearGradient4266);stroke-width:1.96632302;stroke-linecap:round;stroke-linejoin:round;stroke-miterlimit:4;stroke-dasharray:none;stroke-dashoffset:0;stroke-opacity:1" />
  <path
     style="fill:url(#linearGradient4243);fill-opacity:1;fill-rule:evenodd;stroke:none;stroke-width:1px;stroke-linecap:butt;stroke-linejoin:miter;stroke-opacity:1"
     d="M 21.610468,173.29981 C 3.9159936,176.55762 35.180116,230.20135 56.347883,236.64172 99.035229,249.6295 168.96775,212.12436 192.63361,176.98854 175.86663,174.08226 148.17,154.54554 128.58378,148.82002 77.682121,232.27097 35.922078,195.89639 34.688709,195.09687 28.733838,185.68922 25.991814,179.41702 21.610468,173.29981 Z"
     id="path4227"
     inkscape:connector-curvature="0"
     sodipodi:nodetypes="cscccc" />
  <path
     style="fill:#000000;fill-opacity:1;fill-rule:evenodd;stroke:#000000;stroke-width:1.18285763px;stroke-linecap:butt;stroke-linejoin:miter;stroke-opacity:1"
     d="m 129.25037,154.79647 55.20874,25.09489 c -8.61508,12.95976 -21.06996,21.11975 -33.12524,29.77925 l -40.15182,-29.44465 c 7.65585,-7.49665 14.81019,-15.2942 18.06832,-25.42949 z"
     id="path4172"
     inkscape:connector-curvature="0"
     sodipodi:nodetypes="ccccc" />
  <path
     style="fill:#000000;fill-opacity:1;fill-rule:evenodd;stroke:#000000;stroke-width:1.18285763px;stroke-linecap:butt;stroke-linejoin:miter;stroke-opacity:1"
     d="m 107.16687,183.57194 38.81342,30.11385 c -13.37357,6.66087 -26.65348,13.04079 -39.14802,17.06453 L 81.737396,202.64405 c 11.589969,-5.02213 19.175354,-12.27137 25.429474,-19.07211 z"
     id="path4174"
     inkscape:connector-curvature="0"
     sodipodi:nodetypes="ccccc" />
  <path
     style="fill:#000000;fill-opacity:1;fill-rule:evenodd;stroke:#000000;stroke-width:1.18285763px;stroke-linecap:butt;stroke-linejoin:miter;stroke-opacity:1"
     d="m 77.722215,205.65543 21.079691,25.76409 c -10.886888,2.55878 -21.708842,5.44226 -33.459832,3.68057 l -5.018976,-26.43327 c 6.158697,0.79116 12.125861,0.62465 17.399117,-3.01139 z"
     id="path4176"
     inkscape:connector-curvature="0"
     sodipodi:nodetypes="ccccc" />
  <path
     style="fill:#000000;fill-opacity:1;fill-rule:evenodd;stroke:#000000;stroke-width:1.18285763px;stroke-linecap:butt;stroke-linejoin:miter;stroke-opacity:1"
     d="m 52.961932,207.32842 5.196183,26.34254 C 50.575429,229.9576 43.007592,226.16503 36.56661,216.36259 l 5.353576,-13.38395 z"
     id="path4178"
     inkscape:connector-curvature="0"
     sodipodi:nodetypes="ccccc" />
  <path
     style="fill:#000000;fill-opacity:0.66233766;fill-rule:evenodd;stroke:#000000;stroke-width:1.18285763px;stroke-linecap:butt;stroke-linejoin:miter;stroke-opacity:1"
     d="m 39.236072,201.28609 -5.695241,11.68256 -5.549209,-8.46985 4.234923,-7.7397 z"
     id="path4180"
     inkscape:connector-curvature="0" />
  <path
     style="fill:#000000;fill-opacity:0.51948051;fill-rule:evenodd;stroke:none;stroke-width:1px;stroke-linecap:butt;stroke-linejoin:miter;stroke-opacity:1"
     d="m 30.328132,194.4226 -5.257147,7.15557 -4.819048,-9.78413 7.885717,-0.58414 z"
     id="path4182"
     inkscape:connector-curvature="0"
     sodipodi:nodetypes="ccccc" />
  <path
     style="fill:#000000;fill-opacity:0.5519481;fill-rule:evenodd;stroke:none;stroke-width:1px;stroke-linecap:butt;stroke-linejoin:miter;stroke-opacity:1"
     d="m 20.105906,189.3115 6.425398,-0.29208 -1.168254,-3.2127 -6.717463,-7.15555 c -1.331606,3.32615 -0.303061,6.94731 1.460319,10.66033 z"
     id="path4184"
     inkscape:connector-curvature="0"
     sodipodi:nodetypes="ccccc" />
  <path
     style="fill:#000000;fill-opacity:1;fill-rule:evenodd;stroke:#000000;stroke-width:1.18285763px;stroke-linecap:butt;stroke-linejoin:miter;stroke-opacity:1"
     d="m 51.352124,172.12867 1.857892,15.276 8.463729,0.82572 0,-11.35377 c -3.801096,-0.86154 -7.262035,-2.4034 -10.321621,-4.74795 z"
     id="path4179"
     inkscape:connector-curvature="0"
     sodipodi:nodetypes="ccccc" />
  <path
     style="fill:#000000;fill-opacity:1;fill-rule:evenodd;stroke:#000000;stroke-width:1.18285763px;stroke-linecap:butt;stroke-linejoin:miter;stroke-opacity:1"
     d="m 65.802392,177.70235 10.958119,0.34119 0.05448,8.73323 -11.147351,0.61069 z"
     id="path4181"
     inkscape:connector-curvature="0"
     sodipodi:nodetypes="ccccc" />
  <path
     style="fill:#000000;fill-opacity:1;fill-rule:evenodd;stroke:#000000;stroke-width:1.18285763px;stroke-linecap:butt;stroke-linejoin:miter;stroke-opacity:1"
     d="m 79.696441,177.28949 9.639245,-2.68364 2.683622,8.46374 -10.32162,3.30291 z"
     id="path4183"
     inkscape:connector-curvature="0"
     sodipodi:nodetypes="ccccc" />
  <path
     style="fill:#000000;fill-opacity:1;fill-rule:evenodd;stroke:#000000;stroke-width:1.18285763px;stroke-linecap:butt;stroke-linejoin:miter;stroke-opacity:1"
     d="m 92.432172,173.36726 3.985293,8.2659 10.258545,-3.93081 -1.85789,-8.46374 z"
     id="path4185"
     inkscape:connector-curvature="0"
     sodipodi:nodetypes="ccccc" />
  <path
     style="fill:#000000;fill-opacity:1;fill-rule:evenodd;stroke:#000000;stroke-width:1.18285763px;stroke-linecap:butt;stroke-linejoin:miter;stroke-opacity:1"
     d="m 107.70817,167.17429 6.39941,-4.33508 0.6193,5.16081 -5.65395,6.52555 z"
     id="path4187"
     inkscape:connector-curvature="0"
     sodipodi:nodetypes="ccccc" />
  <circle
     style="opacity:1;fill:#717171;fill-opacity:1;fill-rule:evenodd;stroke:url(#linearGradient4197);stroke-width:2.55621982;stroke-linecap:round;stroke-linejoin:round;stroke-miterlimit:4;stroke-dasharray:none;stroke-dashoffset:0;stroke-opacity:1"
     id="path4189"
     cx="187.90019"
     cy="51.306736"
     r="15.296038" />
  <circle
     r="15.296038"
     cy="159.49144"
     cx="215.15494"
     id="circle4199"
     style="opacity:1;fill:#717171;fill-opacity:1;fill-rule:evenodd;stroke:url(#linearGradient4202);stroke-width:2.55621982;stroke-linecap:round;stroke-linejoin:round;stroke-miterlimit:4;stroke-dasharray:none;stroke-dashoffset:0;stroke-opacity:1" />
  <circle
     style="opacity:1;fill:#717171;fill-opacity:1;fill-rule:evenodd;stroke:url(#linearGradient4206);stroke-width:2.55621982;stroke-linecap:round;stroke-linejoin:round;stroke-miterlimit:4;stroke-dasharray:none;stroke-dashoffset:0;stroke-opacity:1"
     id="circle4204"
     cx="34.105473"
     cy="144.19539"
     r="15.296038" />
  <circle
     r="15.296038"
     cy="41.850994"
     cx="78.046822"
     id="circle4208"
     style="opacity:1;fill:#717171;fill-opacity:1;fill-rule:evenodd;stroke:url(#linearGradient4210);stroke-width:2.55621982;stroke-linecap:round;stroke-linejoin:round;stroke-miterlimit:4;stroke-dasharray:none;stroke-dashoffset:0;stroke-opacity:1" />
  <circle
     style="opacity:1;fill:#717171;fill-opacity:1;fill-rule:evenodd;stroke:url(#linearGradient4214);stroke-width:1.96632302;stroke-linecap:round;stroke-linejoin:round;stroke-miterlimit:4;stroke-dasharray:none;stroke-dashoffset:0;stroke-opacity:1"
     id="circle4212"
     cx="213.76439"
     cy="66.880875"
     r="7.5961351" />
  <circle
     r="7.5961351"
     cy="29.612934"
     cx="170.37987"
     id="circle4216"
     style="opacity:1;fill:#717171;fill-opacity:1;fill-rule:evenodd;stroke:url(#linearGradient4218);stroke-width:1.96632302;stroke-linecap:round;stroke-linejoin:round;stroke-miterlimit:4;stroke-dasharray:none;stroke-dashoffset:0;stroke-opacity:1" />
  <circle
     style="opacity:1;fill:#717171;fill-opacity:1;fill-rule:evenodd;stroke:url(#linearGradient4222);stroke-width:1.96632302;stroke-linecap:round;stroke-linejoin:round;stroke-miterlimit:4;stroke-dasharray:none;stroke-dashoffset:0;stroke-opacity:1"
     id="circle4220"
     cx="99.862251"
     cy="24.038418"
     r="7.5961351" />
  <circle
     r="7.5961351"
     cy="52.747169"
     cx="52.478878"
     id="circle4224"
     style="opacity:1;fill:#717171;fill-opacity:1;fill-rule:evenodd;stroke:url(#linearGradient4226);stroke-width:1.96632302;stroke-linecap:round;stroke-linejoin:round;stroke-miterlimit:4;stroke-dasharray:none;stroke-dashoffset:0;stroke-opacity:1" />
  <circle
     style="opacity:1;fill:#717171;fill-opacity:1;fill-rule:evenodd;stroke:url(#linearGradient4230);stroke-width:1.96632302;stroke-linecap:round;stroke-linejoin:round;stroke-miterlimit:4;stroke-dasharray:none;stroke-dashoffset:0;stroke-opacity:1"
     id="circle4228"
     cx="22.097771"
     cy="118.24772"
     r="7.5961351" />
  <circle
     r="7.5961351"
     cy="172.32051"
     cx="36.034058"
     id="circle4232"
     style="opacity:1;fill:#717171;fill-opacity:1;fill-rule:evenodd;stroke:url(#linearGradient4234);stroke-width:1.96632302;stroke-linecap:round;stroke-linejoin:round;stroke-miterlimit:4;stroke-dasharray:none;stroke-dashoffset:0;stroke-opacity:1" />
  <circle
     r="7.5961351"
     cy="188.4866"
     cx="210.23764"
     id="circle4240"
     style="opacity:1;fill:#717171;fill-opacity:1;fill-rule:evenodd;stroke:url(#linearGradient4242);stroke-width:1.96632302;stroke-linecap:round;stroke-linejoin:round;stroke-miterlimit:4;stroke-dasharray:none;stroke-dashoffset:0;stroke-opacity:1" />
  <circle
     style="opacity:1;fill:#717171;fill-opacity:1;fill-rule:evenodd;stroke:url(#linearGradient4246);stroke-width:1.96632302;stroke-linecap:round;stroke-linejoin:round;stroke-miterlimit:4;stroke-dasharray:none;stroke-dashoffset:0;stroke-opacity:1"
     id="circle4244"
     cx="231.69952"
     cy="135.5287"
     r="7.5961351" />
  <circle
     r="7.5961351"
     cy="134.97125"
     cx="155.60739"
     id="circle4248"
     style="opacity:1;fill:#717171;fill-opacity:1;fill-rule:evenodd;stroke:url(#linearGradient4250);stroke-width:1.96632302;stroke-linecap:round;stroke-linejoin:round;stroke-miterlimit:4;stroke-dasharray:none;stroke-dashoffset:0;stroke-opacity:1" />
  <circle
     style="opacity:1;fill:#717171;fill-opacity:1;fill-rule:evenodd;stroke:url(#linearGradient4254);stroke-width:1.96632302;stroke-linecap:round;stroke-linejoin:round;stroke-miterlimit:4;stroke-dasharray:none;stroke-dashoffset:0;stroke-opacity:1"
     id="circle4252"
     cx="148.63925"
     cy="100.96671"
     r="7.5961351" />
  <circle
     r="7.5961351"
     cy="97.622002"
     cx="112.40491"
     id="circle4256"
     style="opacity:1;fill:#717171;fill-opacity:1;fill-rule:evenodd;stroke:url(#linearGradient4258);stroke-width:1.96632302;stroke-linecap:round;stroke-linejoin:round;stroke-miterlimit:4;stroke-dasharray:none;stroke-dashoffset:0;stroke-opacity:1" />
  <circle
     style="opacity:1;fill:#717171;fill-opacity:1;fill-rule:evenodd;stroke:url(#linearGradient4262);stroke-width:1.96632302;stroke-linecap:round;stroke-linejoin:round;stroke-miterlimit:4;stroke-dasharray:none;stroke-dashoffset:0;stroke-opacity:1"
     id="circle4260"
     cx="98.189888"
     cy="129.39674"
     r="7.5961351" />
  <g
     font-size="7.5"
     font-variant="normal"
     letter-spacing="0"
     font-stretch="normal"
     font-weight="bold"
     line-height="125%"
     word-spacing="0"
     font-style="normal"
     transform="translate(66.796571,-43.117874)"
     id="text4330"
     style="font-style:normal;font-variant:normal;font-weight:bold;font-stretch:normal;font-size:7.5px;line-height:125%;font-family:STIX;letter-spacing:0;word-spacing:0;fill:#000000;fill-opacity:1;stroke:none;stroke-width:1;stroke-linecap:butt;stroke-linejoin:miter;stroke-opacity:1">
    <path
       inkscape:connector-curvature="0"
       id="path4335"
       d="m -56.13327,39.467617 0,-0.1875 c -0.3075,0 -0.4425,-0.165 -0.825,-1.0725 l -1.665,-3.915 -0.21,0 -1.6575,4.0875 c -0.285,0.705 -0.3975,0.84 -0.7425,0.9 l 0,0.1875 1.515,0 0,-0.1875 c -0.4425,-0.03 -0.6075,-0.1125 -0.6075,-0.3075 0,-0.18 0.1425,-0.495 0.2325,-0.7275 l 0.0975,-0.255 1.6875,0 c 0.255,0.5925 0.345,0.855 0.345,1.02 0,0.165 -0.0975,0.225 -0.345,0.2475 l -0.24,0.0225 0,0.1875 2.415,0 z m -2.2875,-1.77 -1.4625,0 0.705,-1.8225 0.7575,1.8225 z" />
    <path
       inkscape:connector-curvature="0"
       id="path4337"
       d="m -55.760848,34.397617 0,0.1875 c 0.525,0.045 0.63,0.15 0.63,0.735 l 0,3.2025 c 0,0.3825 -0.045,0.5925 -0.2925,0.69 -0.0825,0.0375 -0.195,0.0525 -0.3375,0.0675 l 0,0.1875 2.4975,0 0,-0.1875 c -0.5925,-0.075 -0.6525,-0.1425 -0.6525,-0.645 l 0,-1.44 c 0.99,-0.0075 1.245,-0.03 1.5675,-0.15 0.6225,-0.2325 0.9675,-0.69 0.9675,-1.29 0,-0.915 -0.765,-1.3575 -2.0175,-1.3575 l -2.3625,0 z m 1.845,0.525 c 0,-0.1725 0.1275,-0.2625 0.375,-0.2625 0.6225,0 0.87,0.345 0.87,1.1775 0,0.8325 -0.3075,1.0875 -1.245,1.095 l 0,-2.01 z" />
  </g>
</svg>
