<?xml version="1.0" encoding="UTF-8" standalone="no"?>
<!-- Created with Inkscape (http://www.inkscape.org/) -->

<svg
   xmlns:dc="http://purl.org/dc/elements/1.1/"
   xmlns:cc="http://creativecommons.org/ns#"
   xmlns:rdf="http://www.w3.org/1999/02/22-rdf-syntax-ns#"
   xmlns:svg="http://www.w3.org/2000/svg"
   xmlns="http://www.w3.org/2000/svg"
   xmlns:xlink="http://www.w3.org/1999/xlink"
   xmlns:sodipodi="http://sodipodi.sourceforge.net/DTD/sodipodi-0.dtd"
   xmlns:inkscape="http://www.inkscape.org/namespaces/inkscape"
   id="svg2"
   version="1.1"
   inkscape:version="0.48.0 r9654"
   width="756"
   height="736"
   sodipodi:docname="ff.svg"
   inkscape:export-filename="/media/disk/melo/harebell.png"
   inkscape:export-xdpi="90"
   inkscape:export-ydpi="90">
  <metadata
     id="metadata8">
    <rdf:RDF>
      <cc:Work
         rdf:about="">
        <dc:format>image/svg+xml</dc:format>
        <dc:type
           rdf:resource="http://purl.org/dc/dcmitype/StillImage" />
        <dc:title />
      </cc:Work>
    </rdf:RDF>
  </metadata>
  <defs
     id="defs6">
    <linearGradient
       id="linearGradient3979">
      <stop
         id="stop3981"
         offset="0"
         style="stop-color:#ffffff;stop-opacity:0.59689921;" />
      <stop
         id="stop3983"
         offset="1"
         style="stop-color:#ffffff;stop-opacity:0;" />
    </linearGradient>
    <linearGradient
       id="linearGradient3966">
      <stop
         id="stop3968"
         offset="0"
         style="stop-color:#ffffff;stop-opacity:0;" />
      <stop
         style="stop-color:#ffffff;stop-opacity:0;"
         offset="0.73952061"
         id="stop3970" />
      <stop
         id="stop3972"
         offset="1"
         style="stop-color:#ffffff;stop-opacity:1;" />
    </linearGradient>
    <linearGradient
       id="linearGradient3956">
      <stop
         id="stop3958"
         offset="0"
         style="stop-color:#ffffff;stop-opacity:0.08527132;" />
      <stop
         id="stop3960"
         offset="1"
         style="stop-color:#ffffff;stop-opacity:0;" />
    </linearGradient>
    <linearGradient
       id="linearGradient3946">
      <stop
         id="stop3948"
         offset="0"
         style="stop-color:#ffffff;stop-opacity:0.50793654;" />
      <stop
         id="stop3950"
         offset="1"
         style="stop-color:#ffffff;stop-opacity:0;" />
    </linearGradient>
    <linearGradient
       id="linearGradient3938">
      <stop
         style="stop-color:#ffffff;stop-opacity:0;"
         offset="0"
         id="stop3940" />
      <stop
         id="stop3944"
         offset="0.70566028"
         style="stop-color:#ffffff;stop-opacity:0;" />
      <stop
         style="stop-color:#ffffff;stop-opacity:0.30232558;"
         offset="1"
         id="stop3942" />
    </linearGradient>
    <linearGradient
       id="linearGradient4026">
      <stop
         id="stop4028"
         offset="0"
         style="stop-color:#ffffff;stop-opacity:1;" />
      <stop
         style="stop-color:#ffffff;stop-opacity:1;"
         offset="0.75142384"
         id="stop4030" />
      <stop
         id="stop4032"
         offset="1"
         style="stop-color:#ffffff;stop-opacity:0.23015873;" />
    </linearGradient>
    <linearGradient
       id="linearGradient4018">
      <stop
         style="stop-color:#ffffff;stop-opacity:1;"
         offset="0"
         id="stop4020" />
      <stop
         id="stop4022"
         offset="0.57682133"
         style="stop-color:#ffffff;stop-opacity:1;" />
      <stop
         style="stop-color:#ffffff;stop-opacity:0.23015873;"
         offset="1"
         id="stop4024" />
    </linearGradient>
    <linearGradient
       id="linearGradient3996">
      <stop
         id="stop3998"
         offset="0"
         style="stop-color:#ffffff;stop-opacity:1;" />
      <stop
         style="stop-color:#ffffff;stop-opacity:1;"
         offset="0.7684347"
         id="stop4000" />
      <stop
         id="stop4002"
         offset="1"
         style="stop-color:#ffffff;stop-opacity:0.23015873;" />
    </linearGradient>
    <linearGradient
       id="linearGradient3976">
      <stop
         style="stop-color:#ffffff;stop-opacity:1;"
         offset="0"
         id="stop3978" />
      <stop
         id="stop3984"
         offset="0.5"
         style="stop-color:#ffffff;stop-opacity:1;" />
      <stop
         style="stop-color:#ffffff;stop-opacity:0.23015873;"
         offset="1"
         id="stop3980" />
    </linearGradient>
    <linearGradient
       id="linearGradient3839">
      <stop
         id="stop3841"
         offset="0"
         style="stop-color:#ffffff;stop-opacity:0.62698412;" />
      <stop
         id="stop3843"
         offset="1"
         style="stop-color:#ffffff;stop-opacity:0;" />
    </linearGradient>
    <linearGradient
       id="linearGradient3759">
      <stop
         style="stop-color:#ffffff;stop-opacity:0.41568628;"
         offset="0"
         id="stop3761" />
      <stop
         style="stop-color:#ffffff;stop-opacity:0;"
         offset="1"
         id="stop3763" />
    </linearGradient>
    <linearGradient
       inkscape:collect="always"
       xlink:href="#linearGradient3759"
       id="linearGradient3765"
       x1="378.31277"
       y1="709.91309"
       x2="401.84393"
       y2="447.92401"
       gradientUnits="userSpaceOnUse" />
    <linearGradient
       inkscape:collect="always"
       xlink:href="#linearGradient3759"
       id="linearGradient3769"
       gradientUnits="userSpaceOnUse"
       x1="256.84512"
       y1="519.37561"
       x2="396.28656"
       y2="558.27698" />
    <linearGradient
       inkscape:collect="always"
       xlink:href="#linearGradient3759"
       id="linearGradient3779"
       x1="98.535042"
       y1="509.91345"
       x2="304.97205"
       y2="351.92609"
       gradientUnits="userSpaceOnUse" />
    <linearGradient
       inkscape:collect="always"
       xlink:href="#linearGradient3759"
       id="linearGradient3783"
       gradientUnits="userSpaceOnUse"
       x1="108.85582"
       y1="312.2308"
       x2="227.96313"
       y2="375.74329" />
    <linearGradient
       inkscape:collect="always"
       xlink:href="#linearGradient3759"
       id="linearGradient3787"
       gradientUnits="userSpaceOnUse"
       x1="193.80379"
       y1="524.20374"
       x2="197.79471"
       y2="399.56046" />
    <linearGradient
       inkscape:collect="always"
       xlink:href="#linearGradient3759"
       id="linearGradient3797"
       x1="624.50903"
       y1="483.53781"
       x2="508.60001"
       y2="439.07904"
       gradientUnits="userSpaceOnUse" />
    <linearGradient
       inkscape:collect="always"
       xlink:href="#linearGradient3759"
       id="linearGradient3807"
       x1="507.59738"
       y1="367.23053"
       x2="553.85266"
       y2="347.38287"
       gradientUnits="userSpaceOnUse" />
    <linearGradient
       inkscape:collect="always"
       xlink:href="#linearGradient3759"
       id="linearGradient3817"
       x1="384.52667"
       y1="124.69217"
       x2="410.15564"
       y2="120.72264"
       gradientUnits="userSpaceOnUse" />
    <linearGradient
       inkscape:collect="always"
       xlink:href="#linearGradient3839"
       id="linearGradient3827"
       x1="290.0697"
       y1="331.90182"
       x2="265.66467"
       y2="59.592007"
       gradientUnits="userSpaceOnUse" />
    <linearGradient
       inkscape:collect="always"
       xlink:href="#linearGradient3759"
       id="linearGradient3837"
       x1="236.87798"
       y1="45.679012"
       x2="234.70236"
       y2="196.52121"
       gradientUnits="userSpaceOnUse" />
    <linearGradient
       inkscape:collect="always"
       xlink:href="#linearGradient3759"
       id="linearGradient3853"
       x1="425.82767"
       y1="96.721542"
       x2="479.22549"
       y2="159.44014"
       gradientUnits="userSpaceOnUse" />
    <linearGradient
       inkscape:collect="always"
       xlink:href="#linearGradient3759"
       id="linearGradient3863"
       x1="439.32407"
       y1="116.22626"
       x2="525.27203"
       y2="209.1133"
       gradientUnits="userSpaceOnUse" />
    <linearGradient
       inkscape:collect="always"
       xlink:href="#linearGradient3759"
       id="linearGradient3873"
       x1="459.17175"
       y1="306.01489"
       x2="516.07257"
       y2="178.19597"
       gradientUnits="userSpaceOnUse" />
    <linearGradient
       inkscape:collect="always"
       xlink:href="#linearGradient3839"
       id="linearGradient3883"
       x1="505.11035"
       y1="297.59888"
       x2="628.41357"
       y2="294.42325"
       gradientUnits="userSpaceOnUse" />
    <linearGradient
       inkscape:collect="always"
       xlink:href="#linearGradient3839"
       id="linearGradient3893"
       x1="353.58218"
       y1="105.41093"
       x2="409.36172"
       y2="99.853592"
       gradientUnits="userSpaceOnUse" />
    <linearGradient
       inkscape:collect="always"
       xlink:href="#linearGradient3839"
       id="linearGradient3903"
       x1="559.99786"
       y1="256.87759"
       x2="271.22202"
       y2="394.22336"
       gradientUnits="userSpaceOnUse" />
    <linearGradient
       inkscape:collect="always"
       xlink:href="#linearGradient3759"
       id="linearGradient3913"
       x1="365.49078"
       y1="531.56915"
       x2="456.99609"
       y2="564.91321"
       gradientUnits="userSpaceOnUse" />
    <linearGradient
       inkscape:collect="always"
       xlink:href="#linearGradient3839"
       id="linearGradient3923"
       x1="549.67706"
       y1="354.52805"
       x2="615.77734"
       y2="354.52805"
       gradientUnits="userSpaceOnUse" />
    <linearGradient
       inkscape:collect="always"
       xlink:href="#linearGradient3759"
       id="linearGradient3933"
       x1="456.04449"
       y1="254.30391"
       x2="496.31155"
       y2="210.32484"
       gradientUnits="userSpaceOnUse" />
    <linearGradient
       inkscape:collect="always"
       xlink:href="#linearGradient3759"
       id="linearGradient3962"
       x1="445.67532"
       y1="281.88559"
       x2="455.30194"
       y2="300.62036"
       gradientUnits="userSpaceOnUse"
       spreadMethod="reflect" />
    <radialGradient
       inkscape:collect="always"
       xlink:href="#linearGradient3759"
       id="radialGradient3972"
       cx="362.07864"
       cy="327.57303"
       fx="362.07864"
       fy="327.57303"
       r="14.325843"
       gradientTransform="matrix(1,0,0,0.98039215,0,6.4230044)"
       gradientUnits="userSpaceOnUse" />
    <radialGradient
       inkscape:collect="always"
       xlink:href="#linearGradient4026"
       id="radialGradient3982"
       cx="377.71054"
       cy="301.71701"
       fx="377.71054"
       fy="301.71701"
       r="24.569941"
       gradientTransform="matrix(0.7809797,-0.63401932,0.41604306,0.51247837,-44.050461,390.42326)"
       gradientUnits="userSpaceOnUse" />
    <radialGradient
       inkscape:collect="always"
       xlink:href="#linearGradient3996"
       id="radialGradient3994"
       cx="334.17242"
       cy="322.11783"
       fx="334.17242"
       fy="322.11783"
       r="28.687136"
       gradientTransform="matrix(0.90208225,0.58750839,-0.38667504,0.59371525,157.27633,-65.457537)"
       gradientUnits="userSpaceOnUse" />
    <radialGradient
       inkscape:collect="always"
       xlink:href="#linearGradient3976"
       id="radialGradient4006"
       gradientUnits="userSpaceOnUse"
       gradientTransform="matrix(-1.0055965,-0.98243772,0.56124003,-0.57447,587.77355,904.2598)"
       cx="374.13596"
       cy="301.56247"
       fx="374.13596"
       fy="301.56247"
       r="24.569941" />
    <radialGradient
       inkscape:collect="always"
       xlink:href="#linearGradient4018"
       id="radialGradient4016"
       cx="360.95505"
       cy="332.91013"
       fx="360.95505"
       fy="332.91013"
       r="16.011236"
       gradientTransform="matrix(1,0,0,1.0701755,0,-23.362128)"
       gradientUnits="userSpaceOnUse" />
    <radialGradient
       inkscape:collect="always"
       xlink:href="#linearGradient3759"
       id="radialGradient4102"
       gradientUnits="userSpaceOnUse"
       gradientTransform="matrix(1,0,0,0.98039215,0,6.4230044)"
       cx="362.07864"
       cy="327.57303"
       fx="362.07864"
       fy="327.57303"
       r="14.325843" />
    <radialGradient
       inkscape:collect="always"
       xlink:href="#linearGradient4018"
       id="radialGradient4110"
       gradientUnits="userSpaceOnUse"
       gradientTransform="matrix(1,0,0,1.0701755,0,-23.362128)"
       cx="360.95505"
       cy="332.91013"
       fx="360.95505"
       fy="332.91013"
       r="16.011236" />
    <radialGradient
       inkscape:collect="always"
       xlink:href="#linearGradient3976"
       id="radialGradient3853"
       gradientUnits="userSpaceOnUse"
       gradientTransform="matrix(-0.96166216,-1.0254824,0.58583026,-0.5493715,545.7745,881.54243)"
       cx="374.13596"
       cy="301.56247"
       fx="374.13596"
       fy="301.56247"
       r="24.569941" />
    <radialGradient
       inkscape:collect="always"
       xlink:href="#linearGradient3996"
       id="radialGradient3856"
       gradientUnits="userSpaceOnUse"
       gradientTransform="matrix(0.87552123,0.62640328,-0.41227413,0.57623382,158.10482,-106.07682)"
       cx="334.17242"
       cy="322.11783"
       fx="334.17242"
       fy="322.11783"
       r="28.687136" />
    <radialGradient
       inkscape:collect="always"
       xlink:href="#linearGradient4026"
       id="radialGradient3859"
       gradientUnits="userSpaceOnUse"
       gradientTransform="matrix(0.9917714,-0.70428502,0.38218961,0.53819792,-129.06465,377.8161)"
       cx="377.71054"
       cy="301.71701"
       fx="377.71054"
       fy="301.71701"
       r="24.569941" />
    <linearGradient
       inkscape:collect="always"
       xlink:href="#linearGradient3759"
       id="linearGradient3864"
       gradientUnits="userSpaceOnUse"
       spreadMethod="reflect"
       x1="445.67532"
       y1="281.88559"
       x2="455.30194"
       y2="300.62036"
       gradientTransform="matrix(0.99904294,0.0437401,-0.0437401,0.99904294,-1.8841049,-47.561216)" />
    <linearGradient
       inkscape:collect="always"
       xlink:href="#linearGradient3759"
       id="linearGradient3867"
       gradientUnits="userSpaceOnUse"
       x1="471.23587"
       y1="262.03394"
       x2="496.31155"
       y2="210.32484"
       gradientTransform="matrix(0.99904294,0.0437401,-0.0437401,0.99904294,-1.8841049,-47.561216)" />
    <linearGradient
       inkscape:collect="always"
       xlink:href="#linearGradient3839"
       id="linearGradient3870"
       gradientUnits="userSpaceOnUse"
       x1="549.67706"
       y1="354.52805"
       x2="615.77734"
       y2="354.52805"
       gradientTransform="matrix(0.99904294,0.0437401,-0.0437401,0.99904294,-1.8841049,-47.561216)" />
    <linearGradient
       inkscape:collect="always"
       xlink:href="#linearGradient3759"
       id="linearGradient3874"
       gradientUnits="userSpaceOnUse"
       x1="365.49078"
       y1="531.56915"
       x2="456.99609"
       y2="564.91321"
       gradientTransform="matrix(0.99904294,0.0437401,-0.0437401,0.99904294,-1.8841049,-47.561216)" />
    <linearGradient
       inkscape:collect="always"
       xlink:href="#linearGradient3839"
       id="linearGradient3877"
       gradientUnits="userSpaceOnUse"
       x1="559.99786"
       y1="256.87759"
       x2="403.24155"
       y2="324.30423"
       gradientTransform="matrix(0.99904294,0.0437401,-0.0437401,0.99904294,-1.8841049,-47.561216)" />
    <linearGradient
       inkscape:collect="always"
       xlink:href="#linearGradient3839"
       id="linearGradient3880"
       gradientUnits="userSpaceOnUse"
       x1="353.58218"
       y1="105.41093"
       x2="409.36172"
       y2="99.853592"
       gradientTransform="matrix(0.99904294,0.0437401,-0.0437401,0.99904294,-1.8841049,-47.561216)" />
    <linearGradient
       inkscape:collect="always"
       xlink:href="#linearGradient3839"
       id="linearGradient3884"
       gradientUnits="userSpaceOnUse"
       x1="505.11035"
       y1="297.59888"
       x2="628.41357"
       y2="294.42325"
       gradientTransform="matrix(0.99904294,0.0437401,-0.0437401,0.99904294,-1.8841049,-47.561216)" />
    <linearGradient
       inkscape:collect="always"
       xlink:href="#linearGradient3759"
       id="linearGradient3887"
       gradientUnits="userSpaceOnUse"
       x1="459.17175"
       y1="306.01489"
       x2="516.07257"
       y2="178.19597"
       gradientTransform="matrix(0.99904294,0.0437401,-0.0437401,0.99904294,-1.8841049,-47.561216)" />
    <linearGradient
       inkscape:collect="always"
       xlink:href="#linearGradient3759"
       id="linearGradient3890"
       gradientUnits="userSpaceOnUse"
       x1="439.32407"
       y1="116.22626"
       x2="525.27203"
       y2="209.1133"
       gradientTransform="matrix(0.99904294,0.0437401,-0.0437401,0.99904294,-1.8841049,-47.561216)" />
    <linearGradient
       inkscape:collect="always"
       xlink:href="#linearGradient3759"
       id="linearGradient3894"
       gradientUnits="userSpaceOnUse"
       x1="425.82767"
       y1="96.721542"
       x2="479.22549"
       y2="159.44014"
       gradientTransform="matrix(0.99904294,0.0437401,-0.0437401,0.99904294,-1.8841049,-47.561216)" />
    <linearGradient
       inkscape:collect="always"
       xlink:href="#linearGradient3759"
       id="linearGradient3897"
       gradientUnits="userSpaceOnUse"
       x1="237.90395"
       y1="91.308876"
       x2="234.70236"
       y2="196.52121"
       gradientTransform="matrix(0.99904294,0.0437401,-0.0437401,0.99904294,-1.8841049,-47.561216)" />
    <linearGradient
       inkscape:collect="always"
       xlink:href="#linearGradient3839"
       id="linearGradient3900"
       gradientUnits="userSpaceOnUse"
       x1="290.0697"
       y1="331.90182"
       x2="273.53625"
       y2="150.59694"
       gradientTransform="matrix(0.99904294,0.0437401,-0.0437401,0.99904294,-1.8841049,-47.561216)" />
    <linearGradient
       inkscape:collect="always"
       xlink:href="#linearGradient3759"
       id="linearGradient3904"
       gradientUnits="userSpaceOnUse"
       x1="384.52667"
       y1="124.69217"
       x2="410.15564"
       y2="120.72264"
       gradientTransform="matrix(0.99904294,0.0437401,-0.0437401,0.99904294,-1.8841049,-47.561216)" />
    <linearGradient
       inkscape:collect="always"
       xlink:href="#linearGradient3759"
       id="linearGradient3907"
       gradientUnits="userSpaceOnUse"
       x1="507.59738"
       y1="367.23053"
       x2="553.85266"
       y2="347.38287"
       gradientTransform="matrix(0.99904294,0.0437401,-0.0437401,0.99904294,-1.8841049,-47.561216)" />
    <linearGradient
       inkscape:collect="always"
       xlink:href="#linearGradient3979"
       id="linearGradient3910"
       gradientUnits="userSpaceOnUse"
       x1="624.50903"
       y1="483.53781"
       x2="508.60001"
       y2="439.07904"
       gradientTransform="matrix(0.99904294,0.0437401,-0.0437401,0.99904294,-1.8841049,-47.561216)" />
    <linearGradient
       inkscape:collect="always"
       xlink:href="#linearGradient3956"
       id="linearGradient3914"
       gradientUnits="userSpaceOnUse"
       x1="193.80379"
       y1="524.20374"
       x2="197.79471"
       y2="399.56046"
       gradientTransform="matrix(0.99904294,0.0437401,-0.0437401,0.99904294,-1.8841049,-47.561216)" />
    <linearGradient
       inkscape:collect="always"
       xlink:href="#linearGradient3946"
       id="linearGradient3917"
       gradientUnits="userSpaceOnUse"
       x1="108.85582"
       y1="312.2308"
       x2="223.25591"
       y2="309.32751"
       gradientTransform="matrix(0.99904294,0.0437401,-0.0437401,0.99904294,-1.8841049,-47.561216)" />
    <linearGradient
       inkscape:collect="always"
       xlink:href="#linearGradient3759"
       id="linearGradient3920"
       gradientUnits="userSpaceOnUse"
       x1="98.535042"
       y1="509.91345"
       x2="304.97205"
       y2="351.92609"
       gradientTransform="matrix(0.99904294,0.0437401,-0.0437401,0.99904294,-1.8841049,-47.561216)" />
    <linearGradient
       inkscape:collect="always"
       xlink:href="#linearGradient3759"
       id="linearGradient3924"
       gradientUnits="userSpaceOnUse"
       x1="253.10629"
       y1="567.15771"
       x2="396.28656"
       y2="558.27698"
       gradientTransform="matrix(0.99904294,0.0437401,-0.0437401,0.99904294,-1.8841049,-47.561216)" />
    <linearGradient
       inkscape:collect="always"
       xlink:href="#linearGradient3759"
       id="linearGradient3927"
       gradientUnits="userSpaceOnUse"
       x1="378.31277"
       y1="709.91309"
       x2="401.84393"
       y2="447.92401"
       gradientTransform="matrix(0.99904294,0.0437401,-0.0437401,0.99904294,-1.8841049,-47.561216)" />
    <linearGradient
       inkscape:collect="always"
       xlink:href="#linearGradient3759"
       id="linearGradient3932"
       gradientUnits="userSpaceOnUse"
       gradientTransform="matrix(0.99904294,0.0437401,-0.0437401,0.99904294,-1.8841049,-47.561216)"
       x1="226.8847"
       y1="82.925957"
       x2="229.85762"
       y2="115.36513" />
    <radialGradient
       inkscape:collect="always"
       xlink:href="#linearGradient3938"
       id="radialGradient3936"
       cx="161.81517"
       cy="148.69865"
       fx="161.81517"
       fy="148.69865"
       r="53.292599"
       gradientTransform="matrix(-1.2359448,-2.7725286,1.6346059,-0.72867872,101.46561,694.02869)"
       gradientUnits="userSpaceOnUse" />
    <linearGradient
       inkscape:collect="always"
       xlink:href="#linearGradient3839"
       id="linearGradient3954"
       gradientUnits="userSpaceOnUse"
       gradientTransform="matrix(0.99904294,0.0437401,-0.0437401,0.99904294,-1.8841049,-47.561216)"
       x1="115.63989"
       y1="319.68314"
       x2="136.95607"
       y2="332.58588" />
    <radialGradient
       inkscape:collect="always"
       xlink:href="#linearGradient3966"
       id="radialGradient3964"
       cx="165.66768"
       cy="489.83786"
       fx="165.66768"
       fy="489.83786"
       r="174.08994"
       gradientTransform="matrix(-0.48107258,0.80534895,-1.0318275,-0.61635885,750.1077,497.34869)"
       gradientUnits="userSpaceOnUse" />
    <radialGradient
       inkscape:collect="always"
       xlink:href="#linearGradient3938"
       id="radialGradient3977"
       cx="345.23816"
       cy="516.56964"
       fx="345.23816"
       fy="516.56964"
       r="99.772301"
       gradientTransform="matrix(1.2198554,0.02586535,-0.03073579,1.4495543,-57.943662,-239.99539)"
       gradientUnits="userSpaceOnUse" />
    <linearGradient
       inkscape:collect="always"
       xlink:href="#linearGradient3979"
       id="linearGradient3987"
       gradientUnits="userSpaceOnUse"
       gradientTransform="matrix(0.99904294,0.0437401,-0.0437401,0.99904294,-1.8841049,-47.561216)"
       x1="558.19098"
       y1="532.29169"
       x2="546.6134"
       y2="481.32773" />
  </defs>
  <sodipodi:namedview
     pagecolor="#ffffff"
     bordercolor="#666666"
     borderopacity="1"
     objecttolerance="10"
     gridtolerance="10"
     guidetolerance="10"
     inkscape:pageopacity="0"
     inkscape:pageshadow="2"
     inkscape:window-width="1680"
     inkscape:window-height="1022"
     id="namedview4"
     showgrid="false"
     inkscape:zoom="1.03"
     inkscape:cx="378"
     inkscape:cy="368"
     inkscape:window-x="-2"
     inkscape:window-y="0"
     inkscape:window-maximized="1"
     inkscape:current-layer="svg2" />
  <path
     style="fill:none;stroke:#404040;stroke-width:20;stroke-linecap:round;stroke-linejoin:round;stroke-miterlimit:4;stroke-opacity:1;stroke-dasharray:none"
     d="m 560.19417,33.087379 c 0,0 20.35332,280.210841 51.45632,426.213591 17.5176,82.23059 -36.89321,249.51456 -36.89321,249.51456"
     id="path4112"
     inkscape:connector-curvature="0"
     sodipodi:nodetypes="csc" />
  <path
     sodipodi:nodetypes="csc"
     inkscape:connector-curvature="0"
     id="path4114"
     d="m 555.3398,31.145631 c 0,0 20.35332,280.210839 51.45632,426.213589 17.5176,82.23059 -36.89321,249.51456 -36.89321,249.51456"
     style="fill:none;stroke:#b6b6b6;stroke-width:5;stroke-linecap:round;stroke-linejoin:round;stroke-miterlimit:4;stroke-opacity:1;stroke-dasharray:none" />
  <path
     style="fill:none;stroke:#000000;stroke-width:5;stroke-linecap:round;stroke-linejoin:round;stroke-miterlimit:4;stroke-opacity:1;stroke-dasharray:none"
     d="m 567.96116,35.029126 c 0,0 20.35332,280.210844 51.45632,426.213594 17.5176,82.23059 -36.89321,249.51456 -36.89321,249.51456"
     id="path4116"
     inkscape:connector-curvature="0"
     sodipodi:nodetypes="csc" />
  <path
     style="fill:#771e81;fill-opacity:1;stroke:#000000;stroke-width:1px;stroke-linecap:butt;stroke-linejoin:miter;stroke-opacity:1"
     d="m 40.030583,64.992577 c 16.427447,4.496681 25.949766,13.339772 61.054937,6.079827 65.76183,-10.862667 128.27827,-12.985925 196.07037,-4.190873 36.06441,6.228852 53.87791,-12.128899 72.00584,-30.063045 9.89492,-11.106014 20.47688,-20.249507 35.63372,-16.32521 -9.37639,24.494099 -10.51645,48.527187 -4.86355,72.180052 l 76.42319,-2.346657 c 21.50385,7.285713 41.6085,0.85825 59.69095,25.339649 26.75471,-2.96526 68.89815,18.04011 64.81544,36.90503 20.64449,6.47361 30.47904,19.34132 15.84139,46.68441 10.39112,36.76287 -4.32967,60.3372 -18.1726,84.37257 -4.98042,39.6456 -32.31201,67.76376 -55.39477,98.07321 17.3137,26.0246 52.64798,51.20331 51.94112,78.07379 -27.19813,-2.71594 -78.06192,12.76426 -78.06192,12.76426 -51.27803,20.27242 -47.57442,7.85305 -36.05522,-9.21342 l -18.1308,21.31965 -139.08398,142.10332 c -12.61535,17.95791 -12.72777,21.61712 -19.08051,32.41293 -25.56569,-37.06727 -44.97615,-77.15766 -56.2527,-120.87939 -4.82669,-30.69415 7.55588,-83.90593 65.06864,-126.4985 -21.88098,17.53742 -70.12864,57.80809 -102.85658,55.85782 -67.3508,7.38803 -117.08017,-15.25387 -170.668581,-31.31932 1.993683,-24.17626 -3.504882,-46.3664 21.237855,-76.57324 l 48.551186,-77.93245 c 17.2472,-31.97298 74.86448,-46.86697 108.75054,-49.75006 -26.14822,1.46659 -80.67903,6.79413 -100.34384,-6.0929 C 86.479359,199.87302 45.89769,171.39861 47.036491,118.95528 51.548555,106.22168 50.017492,88.851199 40.030583,64.992577 z"
     id="path3755"
     inkscape:connector-curvature="0"
     sodipodi:nodetypes="cccccccccccccccccccccccccccc" />
  <path
     sodipodi:nodetypes="cccccccc"
     inkscape:connector-curvature="0"
     id="path3757"
     d="m 595.07662,459.77533 c -27.19813,-2.71594 -54.35491,-5.18712 -78.06192,12.76426 -15.68833,15.67192 -34.87005,14.21815 -54.18602,12.10623 L 323.7447,626.74914 c -12.61535,17.95791 -12.72777,21.61712 -19.08051,32.41293 -25.56569,-37.06727 -44.97615,-77.15766 -56.2527,-120.87939 -3.03924,-30.09833 -11.15963,-58.74658 38.61703,-103.91785 98.72792,-49.27291 163.64913,-75.32885 308.0481,25.4105 z"
     style="fill:url(#linearGradient3927);fill-opacity:1;stroke:none" />
  <path
     style="fill:url(#linearGradient3924);fill-opacity:1;stroke:none"
     d="M 447.09209,408.46349 C 383.02114,468.87757 328.43867,534.3956 323.7447,626.74914 311.12935,644.70705 311.01693,648.36626 304.66419,659.16207 279.0985,622.0948 259.68804,582.00441 248.41149,538.28268 246.50492,508.18435 243.91272,479.5361 287.02852,434.36483 421.35604,334.10698 429.33895,371.44198 447.09209,408.46349 z"
     id="path3767"
     inkscape:connector-curvature="0"
     sodipodi:nodetypes="cccccc" />
  <path
     sodipodi:nodetypes="ccccccc"
     inkscape:connector-curvature="0"
     id="path3771"
     d="m 287.02852,434.36483 c -21.88098,17.53742 -43.67703,35.22744 -76.40497,33.27717 -67.3508,7.38803 -117.08017,-15.25387 -170.668581,-31.31932 1.993683,-24.17626 -3.504882,-46.3664 21.237855,-76.57324 l 48.551186,-77.93245 c 19.11562,-27.61333 49.69225,-35.49465 80.36344,-45.87909 183.33838,-19.42956 159.18734,148.70631 96.92107,198.42693 z"
     style="fill:url(#linearGradient3920);fill-opacity:1;stroke:none" />
  <path
     style="fill:url(#linearGradient3917);fill-opacity:1;stroke:none"
     d="m 375.92823,279.79787 c 0,0 -259.84759,111.59297 -335.973261,156.52481 1.993683,-24.17626 -3.504882,-46.3664 21.237855,-76.57324 l 48.551186,-77.93245 c 16.97867,-34.10608 80.36344,-45.87909 80.36344,-45.87909 0,0 104.8444,-18.18237 131.33136,-19.95858 14.22888,13.0625 54.48942,63.81855 54.48942,63.81855 z"
     id="path3781"
     inkscape:connector-curvature="0"
     sodipodi:nodetypes="ccccccc" />
  <path
     style="fill:url(#linearGradient3914);fill-opacity:1.0;stroke:none"
     d="m 287.02852,434.36483 c 0,0 -43.67703,35.22744 -76.40497,33.27717 C 143.27275,475.03003 93.54338,452.38813 39.954969,436.32268 140.52353,382.48597 365.12205,280.09887 365.12205,280.09887 c 0,0 21.84964,40.32988 23.01277,66.87484 -28.5143,28.48045 -101.1063,87.39112 -101.1063,87.39112 z"
     id="path3785"
     inkscape:connector-curvature="0"
     sodipodi:nodetypes="cccccc" />
  <path
     style="fill:url(#linearGradient3910);fill-opacity:1.0;stroke:none"
     d="m 518.92099,363.08701 c 1.16998,26.32004 1.15378,35.61164 14.85034,41.97285 22.8447,9.34237 43.46698,30.5178 63.574,54.43674 -24.56227,-1.6535 -51.77477,5.37871 -76.7947,10.30724 -15.91319,7.75153 -50.39173,19.18067 -45.59427,0.71845 -0.52872,-45.56225 -3.1573,-72.32593 43.96463,-107.43528 z"
     id="path3789"
     inkscape:connector-curvature="0"
     sodipodi:nodetypes="cccccc" />
  <path
     style="fill:url(#linearGradient3907);fill-opacity:1;stroke:none"
     d="m 517.24012,219.97339 c -23.76319,15.63217 -23.42343,43.69524 -20.6787,72.99866 10.25342,35.19578 26.75695,72.78348 25.65998,103.63546 28.48879,15.66636 54.2988,35.38443 75.98653,61.33753 l -8.6149,-21.03852 c -21.29064,-21.09993 -45.36157,-39.65283 -54.05069,-72.29713 l -15.84631,-55.52578 c -10.3559,-28.46308 -26.1918,-56.15823 -2.45591,-89.11022 z"
     id="path3799"
     inkscape:connector-curvature="0"
     sodipodi:nodetypes="cccccccc" />
  <path
     style="fill:url(#linearGradient3904);fill-opacity:1;stroke:none"
     d="m 403.60332,20.30478 c -23.06754,18.871825 -37.59075,42.315082 -9.44128,88.58933 9.18248,22.54876 10.63714,52.17705 33.8456,61.8765 l -25.67106,-67.08128 c -8.3683,-27.08478 -7.37405,-54.925839 1.26674,-83.38455 z"
     id="path3809"
     inkscape:connector-curvature="0"
     sodipodi:nodetypes="ccccc" />
  <path
     style="fill:url(#linearGradient3900);fill-opacity:1;stroke:none"
     d="m 41.564663,67.232681 c 80.081527,80.115749 221.681777,66.469979 356.418667,63.284739 9.24338,19.99137 15.31201,40.74132 38.81282,57.32597 l -246.06564,48.03209 c -33.23332,6.67727 -53.2432,-3.54354 -75.82953,-10.47196 C 77.457568,199.34531 47.142201,166.24301 44.790077,120.61657 48.148884,103.01607 48.725698,85.293761 41.564663,67.232681 z"
     id="path3819"
     inkscape:connector-curvature="0"
     sodipodi:nodetypes="ccccccc" />
  <path
     style="fill:url(#linearGradient3897);fill-opacity:1;stroke:none"
     d="M 41.634116,65.646381 C 166.20371,171.37445 279.86601,120.31577 397.19018,130.48269 l 1.10568,-7.1036 L 297.11328,65.453307 C 235.65782,61.002837 165.30522,59.071633 94.601297,71.938733 72.986511,75.747135 56.545243,71.977374 41.634116,65.646381 z"
     id="path3829"
     inkscape:connector-curvature="0"
     sodipodi:nodetypes="cccccc" />
  <path
     style="fill:url(#linearGradient3894);fill-opacity:1;stroke:none"
     d="m 400.40857,93.274253 c 3.52852,11.002627 4.3527,22.777047 20.13011,30.284007 39.23958,15.37044 81.64849,-12.15272 119.59703,-9.0678 C 493.29249,77.121206 446.92435,93.55839 400.40857,93.274253 z"
     id="path3845"
     inkscape:connector-curvature="0"
     sodipodi:nodetypes="cccc" />
  <path
     style="fill:url(#linearGradient3890);fill-opacity:1;stroke:none"
     d="m 408.23032,114.27805 c 16.71261,30.06245 85.12506,4.58971 131.83594,1.7987 28.14235,3.38828 50.25163,14.63932 62.68221,38.50435 -43.60282,-11.39084 -85.10056,19.48289 -127.0826,16.68675 -59.89939,6.52066 -53.46864,-32.57256 -67.43555,-56.9898 z"
     id="path3855"
     inkscape:connector-curvature="0"
     sodipodi:nodetypes="ccccc" />
  <path
     style="fill:url(#linearGradient3887);fill-opacity:1;stroke:none"
     d="m 428.42434,161.25285 c 59.85333,37.74742 106.37499,-15.224 176.7383,-7.36071 22.73276,10.8481 18.32065,28.76478 13.84884,46.697 -51.40544,-30.63117 -68.67827,11.10385 -102.49506,17.76324 -39.25472,12.45424 -58.73478,-38.04492 -88.09208,-57.09953 z"
     id="path3865"
     inkscape:connector-curvature="0"
     sodipodi:nodetypes="ccccc" />
  <path
     style="fill:url(#linearGradient3884);fill-opacity:1;stroke:none"
     d="m 518.10271,218.42183 c 32.4571,-3.40527 56.25855,-34.57141 96.35826,-22.79992 7.28849,96.65134 -49.93147,109.92706 -82.29403,155.33037 l -21.25388,-77.21855 c -6.36024,-18.82069 -5.46095,-37.32354 7.18965,-55.3119 z"
     id="path3875"
     inkscape:connector-curvature="0"
     sodipodi:nodetypes="ccccc" />
  <path
     style="fill:url(#linearGradient3880);fill-opacity:1;stroke:none"
     d="m 296.65083,67.275527 c 5.41502,1.683755 108.40773,56.334913 102.50762,54.552003 -23.71155,-36.56367 -35.77976,-72.240717 5.3422,-103.867464 -45.56312,7.81782 -55.5461,55.463505 -107.84982,49.315461 z"
     id="path3885"
     inkscape:connector-curvature="0"
     sodipodi:nodetypes="cccc" />
  <path
     style="fill:url(#linearGradient3877);fill-opacity:1;stroke:none"
     d="m 190.76523,235.08234 246.8588,-47.99737 c 19.59243,16.95536 38.4482,34.48824 72.95839,39.74894 -12.16232,18.55975 -25.30116,36.57661 -13.33202,68.55231 l 18.6369,64.3893 c -79.68545,5.31422 -162.34432,4.97676 -215.61909,60.49044 96.5561,-115.83388 -31.97574,-175.61955 -109.50298,-185.18362 z"
     id="path3895"
     inkscape:connector-curvature="0"
     sodipodi:nodetypes="ccccccc" />
  <path
     style="fill:url(#linearGradient3874);fill-opacity:1;stroke:none"
     d="m 302.43672,661.14495 c 28.50986,-65.46437 34.14564,-129.08106 92.85908,-196.98514 37.83405,-46.32386 77.73039,-79.33072 117.11193,-115.66196 l 13.88357,45.90385 c -36.76335,-53.65537 -46.61306,41.51464 -64.44619,92.53843 L 330.48572,619.46099 z"
     id="path3905"
     inkscape:connector-curvature="0"
     sodipodi:nodetypes="ccccccc" />
  <path
     style="fill:url(#linearGradient3870);fill-opacity:1;stroke:none"
     d="m 532.37186,352.06082 c 3.19341,9.27299 5.35278,15.59231 10.83311,31.3977 19.47064,-29.74341 45.57623,-47.9363 56.26268,-99.49036 -22.62633,22.42299 -52.17225,40.53796 -67.09579,68.09266 z"
     id="path3915"
     inkscape:connector-curvature="0"
     sodipodi:nodetypes="cccc" />
  <path
     style="fill:url(#linearGradient3867);fill-opacity:1;stroke:none"
     d="m 418.46506,166.71583 17.28386,0.23266 c 25.96297,18.68584 34.87011,57.42502 79.37586,54.30923 l -0.70626,4.16158 c -33.26413,-2.82484 -49.38368,-20.37474 -71.92295,-33.02046 -8.1472,-5.43112 -16.188,-13.29257 -24.03051,-25.68301 z"
     id="path3925"
     inkscape:connector-curvature="0"
     sodipodi:nodetypes="cccccc" />
  <path
     style="fill:url(#linearGradient3864);fill-opacity:1;stroke:none"
     d="m 349.31398,280.16793 136.20029,-61.58356 24.37918,5.83538 -5.27977,11.68883 -143.7553,70.78879 z"
     id="path3954"
     inkscape:connector-curvature="0" />
  <path
     sodipodi:type="arc"
     style="fill:url(#radialGradient4102);fill-opacity:1;stroke:none"
     id="path3964"
     sodipodi:cx="362.07864"
     sodipodi:cy="327.57303"
     sodipodi:rx="14.325843"
     sodipodi:ry="14.044944"
     d="m 376.40449,327.57303 a 14.325843,14.044944 0 1 1 -28.65169,0 14.325843,14.044944 0 1 1 28.65169,0 z"
     transform="matrix(0.99904294,0.0437401,-0.0437401,0.99904294,2.118435,-49.072985)" />
  <path
     style="fill:url(#radialGradient3859);fill-opacity:1;stroke:none"
     d="m 340.50742,288.00584 c -0.17849,-10.44782 -1.06829,-21.29109 10.11052,-25.42479 l 16.69428,-8.82881 c 22.38995,-5.63971 25.91559,14.94893 18.29651,18.79581 -11.40798,2.7174 -19.36934,11.12962 -25.19083,23.07755 l -6.24757,1.41347 c -4.99903,-1.84902 -10.28404,-2.95076 -13.66291,-9.03323 z"
     id="path3974"
     inkscape:connector-curvature="0"
     sodipodi:nodetypes="ccccccc" />
  <path
     style="fill:url(#radialGradient3856);fill-opacity:1;stroke:none"
     d="m 346.09545,288.81283 c -7.64164,-21.4206 -20.59184,-16.16071 -31.74218,-19.94682 -20.80086,3.16848 -30.69264,10.02766 -20.45893,30.59508 9.43634,6.60014 29.55406,13.26642 49.73099,7.23834 z"
     id="path3986"
     inkscape:connector-curvature="0"
     sodipodi:nodetypes="ccccc" />
  <path
     sodipodi:nodetypes="ccccccc"
     inkscape:connector-curvature="0"
     id="path4004"
     d="m 383.6329,351.56102 c -10.86101,4.05235 -29.51253,7.52512 -32.5002,-9.00631 l -12.57938,-14.08567 c -10.85135,-20.38048 8.2882,-28.74705 13.85215,-22.2747 5.37736,10.42163 15.13972,10.49276 28.13599,13.27475 l 9.38637,11.07156 c -0.59446,5.29677 -1.20183,16.27973 -6.29493,21.02037 z"
     style="fill:url(#radialGradient3853);fill-opacity:1;stroke:none" />
  <path
     sodipodi:type="arc"
     style="fill:url(#radialGradient4110);fill-opacity:1;stroke:none"
     id="path4008"
     sodipodi:cx="360.95505"
     sodipodi:cy="332.91013"
     sodipodi:rx="16.011236"
     sodipodi:ry="17.134832"
     d="m 376.96628,332.91013 a 16.011236,17.134832 0 1 1 -32.02247,0 16.011236,17.134832 0 1 1 32.02247,0 z"
     transform="matrix(0.99644732,-0.33930225,0.36989509,1.0862909,-139.25898,56.2853)" />
  <path
     sodipodi:nodetypes="cccccc"
     inkscape:connector-curvature="0"
     id="path3930"
     d="M 41.634116,65.646381 C 76.526291,93.955095 139.86601,79.670609 173.31921,74.998819 L 308.61844,74.346832 297.11328,65.453307 C 235.65782,61.002837 165.30522,59.071633 94.601297,71.938733 72.986511,75.747135 56.545243,71.977374 41.634116,65.646381 z"
     style="fill:url(#linearGradient3932);fill-opacity:1;stroke:none" />
  <path
     sodipodi:nodetypes="cccccc"
     inkscape:connector-curvature="0"
     id="path3934"
     d="M 41.564663,67.232681 C 60.355867,83.477462 69.052892,85.315563 80.563975,95.033549 64.943,128.01882 65.774016,173.94832 148.14986,232.64967 143.30364,231.58501 125.22925,232.33194 114.90098,225.40352 77.457568,199.34531 47.142201,166.24301 44.790077,120.61657 48.148884,103.01607 48.725698,85.293761 41.564663,67.232681 z"
     style="fill:url(#radialGradient3936);fill-opacity:1;stroke:none" />
  <path
     sodipodi:nodetypes="cccccc"
     inkscape:connector-curvature="0"
     id="path3952"
     d="m 60.444359,425.60432 c 0,0 -1.783074,1.27039 -20.48939,10.71836 1.993683,-24.17626 -3.504882,-46.3664 21.237855,-76.57324 l 48.551186,-77.93245 c 16.97867,-34.10608 80.36344,-45.87909 80.36344,-45.87909 -80.838,26.98754 -138.633316,160.94306 -129.663091,189.66642 z"
     style="fill:url(#linearGradient3954);fill-opacity:1;stroke:none" />
  <path
     sodipodi:nodetypes="ccccc"
     inkscape:connector-curvature="0"
     id="path3962"
     d="M 210.62355,467.642 C 143.27275,475.03003 90.962735,451.74297 39.954969,436.32268 75.36224,414.74403 152.86399,380.74403 152.86399,380.74403 c 0,0 135.39802,23.55569 136.56115,50.10065 -33.03995,24.3199 -52.34922,36.84122 -78.80159,36.79732 z"
     style="fill:url(#radialGradient3964);fill-opacity:1;stroke:none" />
  <path
     sodipodi:nodetypes="ccccc"
     inkscape:connector-curvature="0"
     id="path3975"
     d="m 317.29309,625.45882 c -12.61535,17.95791 -6.27616,22.90744 -12.6289,33.70325 -25.56569,-37.06727 -44.97615,-77.15766 -56.2527,-120.87939 -1.90657,-30.09833 -4.49877,-58.74658 38.61703,-103.91785 -8.16381,80.20977 32.26821,126.63321 30.26457,191.09399 z"
     style="fill:url(#radialGradient3977);fill-opacity:1;stroke:none" />
  <path
     sodipodi:nodetypes="ccccc"
     inkscape:connector-curvature="0"
     id="path3985"
     d="m 584.73907,443.12438 c 8.65115,4.18108 7.33795,9.87263 12.60626,16.37222 -24.56227,-1.6535 -51.77477,5.37871 -76.7947,10.30724 -15.91319,7.75153 -50.39173,19.18067 -45.59427,0.71845 49.38608,-21.49883 71.26182,-23.40208 109.78271,-27.39791 z"
     style="fill:url(#linearGradient3987);fill-opacity:1;stroke:none" />
</svg>
