<?xml version="1.0" encoding="UTF-8" standalone="no"?>
<!-- Created with Inkscape (http://www.inkscape.org/) -->

<svg
   xmlns:dc="http://purl.org/dc/elements/1.1/"
   xmlns:cc="http://creativecommons.org/ns#"
   xmlns:rdf="http://www.w3.org/1999/02/22-rdf-syntax-ns#"
   xmlns:svg="http://www.w3.org/2000/svg"
   xmlns="http://www.w3.org/2000/svg"
   xmlns:xlink="http://www.w3.org/1999/xlink"
   xmlns:sodipodi="http://sodipodi.sourceforge.net/DTD/sodipodi-0.dtd"
   xmlns:inkscape="http://www.inkscape.org/namespaces/inkscape"
   width="256"
   height="256"
   id="svg2"
   version="1.1"
   inkscape:version="0.91 r13725"
   sodipodi:docname="steam.svg"
   inkscape:export-filename="/home/joseph/Desktop/steam/48/steam_tray_mono.png"
   inkscape:export-xdpi="90"
   inkscape:export-ydpi="90">
  <sodipodi:namedview
     id="base"
     pagecolor="#ffffff"
     bordercolor="#000000"
     borderopacity="1"
     inkscape:pageopacity="0"
     inkscape:pageshadow="2"
     inkscape:zoom="3.5195312"
     inkscape:cx="128"
     inkscape:cy="128"
     inkscape:document-units="px"
     inkscape:current-layer="layer1"
     showgrid="false"
     inkscape:snap-nodes="false"
     inkscape:window-width="1920"
     inkscape:window-height="1056"
     inkscape:window-x="0"
     inkscape:window-y="0"
     inkscape:window-maximized="1"
     inkscape:snap-global="false"
     inkscape:snap-bbox="true">
    <inkscape:grid
       snapvisiblegridlinesonly="true"
       enabled="true"
       visible="true"
       empspacing="5"
       id="grid3775"
       type="xygrid" />
  </sodipodi:namedview>
  <defs
     id="defs4">
    <linearGradient
       inkscape:collect="always"
       id="linearGradient4222">
      <stop
         style="stop-color:#ffffff;stop-opacity:1"
         offset="0"
         id="stop4224" />
      <stop
         style="stop-color:#171717;stop-opacity:1"
         offset="1"
         id="stop4226" />
    </linearGradient>
    <linearGradient
       inkscape:collect="always"
       id="linearGradient4208">
      <stop
         style="stop-color:#ebebeb;stop-opacity:1"
         offset="0"
         id="stop4210" />
      <stop
         style="stop-color:#3d3d3d;stop-opacity:1"
         offset="1"
         id="stop4212" />
    </linearGradient>
    <linearGradient
       id="linearGradient4490">
      <stop
         style="stop-color:#f2f2f2;stop-opacity:1;"
         offset="0"
         id="stop4492" />
      <stop
         style="stop-color:#a9a9a9;stop-opacity:1"
         offset="1"
         id="stop4494" />
    </linearGradient>
    <linearGradient
       id="linearGradient4474">
      <stop
         style="stop-color:#777777;stop-opacity:1"
         offset="0"
         id="stop4476" />
      <stop
         style="stop-color:#d0d0d0;stop-opacity:1"
         offset="1"
         id="stop4478" />
    </linearGradient>
    <linearGradient
       inkscape:collect="always"
       id="linearGradient4418">
      <stop
         style="stop-color:#5e5e5e;stop-opacity:1"
         offset="0"
         id="stop4420" />
      <stop
         style="stop-color:#d9d9d9;stop-opacity:1"
         offset="1"
         id="stop4422" />
    </linearGradient>
    <linearGradient
       id="linearGradient3965">
      <stop
         id="stop3967"
         offset="0"
         style="stop-color:#a4a4a4;stop-opacity:1;" />
      <stop
         id="stop3969"
         offset="1"
         style="stop-color:#3a3a3a;stop-opacity:1;" />
    </linearGradient>
    <linearGradient
       id="linearGradient3957">
      <stop
         id="stop3959"
         offset="0"
         style="stop-color:#ffffff;stop-opacity:1;" />
      <stop
         id="stop3961"
         offset="1"
         style="stop-color:#d0d0d0;stop-opacity:1" />
    </linearGradient>
    <linearGradient
       id="linearGradient3911">
      <stop
         id="stop3913"
         offset="0"
         style="stop-color:#d4d4d4;stop-opacity:1" />
      <stop
         id="stop3915"
         offset="1"
         style="stop-color:#999999;stop-opacity:1" />
    </linearGradient>
    <linearGradient
       id="linearGradient3895">
      <stop
         id="stop3897"
         offset="0"
         style="stop-color:#f2f2f2;stop-opacity:1;" />
      <stop
         id="stop3899"
         offset="1"
         style="stop-color:#b8b8b8;stop-opacity:1;" />
    </linearGradient>
    <linearGradient
       y2="37.958229"
       x2="115.63509"
       y1="8.9166288"
       x1="98.028938"
       gradientUnits="userSpaceOnUse"
       id="linearGradient3212"
       xlink:href="#linearGradient3965"
       inkscape:collect="always" />
    <linearGradient
       y2="1057.2979"
       x2="0.18085061"
       y1="1039.9547"
       x1="-4.3127079"
       gradientTransform="matrix(2.1055339,0,0,2.2235204,-1.0520213,-1285.7721)"
       gradientUnits="userSpaceOnUse"
       id="linearGradient3223"
       xlink:href="#linearGradient3957"
       inkscape:collect="always" />
    <linearGradient
       y2="961.67078"
       x2="451.79736"
       y1="946.05603"
       x1="440.95987"
       gradientTransform="matrix(1.7999458,0.85208749,-0.84767626,1.8205466,-0.36726751,-1065.9134)"
       gradientUnits="userSpaceOnUse"
       id="linearGradient3226"
       xlink:href="#linearGradient3965"
       inkscape:collect="always" />
    <linearGradient
       y2="1045.7522"
       x2="26.791664"
       y1="1029.2209"
       x1="21.394648"
       gradientTransform="matrix(2.0653613,0,0,2.0685373,-1.6597538,-1123.5719)"
       gradientUnits="userSpaceOnUse"
       id="linearGradient3230"
       xlink:href="#linearGradient3957"
       inkscape:collect="always" />
    <linearGradient
       y2="1048.2457"
       x2="30.946257"
       y1="1031.2457"
       x1="24.337561"
       gradientTransform="matrix(1.9867157,0,0,2.0129741,-0.36726751,-1065.9134)"
       gradientUnits="userSpaceOnUse"
       id="linearGradient3234"
       xlink:href="#linearGradient3965"
       inkscape:collect="always" />
    <linearGradient
       y2="49.915619"
       x2="146.46657"
       y1="-27.912132"
       x1="102.77224"
       gradientUnits="userSpaceOnUse"
       id="linearGradient3236"
       xlink:href="#linearGradient3957"
       inkscape:collect="always" />
    <linearGradient
       y2="1048.2457"
       x2="30.946257"
       y1="1031.2457"
       x1="24.337561"
       gradientTransform="matrix(1.9867157,0,0,2.0129741,-0.36726751,-1065.9134)"
       gradientUnits="userSpaceOnUse"
       id="linearGradient3265"
       xlink:href="#linearGradient3965"
       inkscape:collect="always" />
    <linearGradient
       y2="1045.7522"
       x2="26.791664"
       y1="1029.2209"
       x1="21.394648"
       gradientTransform="matrix(2.0653613,0,0,2.0685373,-1.6597538,-1123.5719)"
       gradientUnits="userSpaceOnUse"
       id="linearGradient3269"
       xlink:href="#linearGradient3957"
       inkscape:collect="always" />
    <linearGradient
       y2="49.915619"
       x2="146.46657"
       y1="-27.912132"
       x1="102.77224"
       gradientUnits="userSpaceOnUse"
       id="linearGradient3271"
       xlink:href="#linearGradient3957"
       inkscape:collect="always" />
    <linearGradient
       y2="961.67078"
       x2="451.79736"
       y1="946.05603"
       x1="440.95987"
       gradientTransform="matrix(1.7999458,0.85208749,-0.84767626,1.8205466,-0.36726751,-1065.9134)"
       gradientUnits="userSpaceOnUse"
       id="linearGradient3273"
       xlink:href="#linearGradient3965"
       inkscape:collect="always" />
    <linearGradient
       y2="1057.2979"
       x2="0.18085061"
       y1="1039.9547"
       x1="-4.3127079"
       gradientTransform="matrix(2.1055339,0,0,2.2235204,-1.0520213,-1285.7721)"
       gradientUnits="userSpaceOnUse"
       id="linearGradient3275"
       xlink:href="#linearGradient3957"
       inkscape:collect="always" />
    <linearGradient
       inkscape:collect="always"
       xlink:href="#linearGradient4418"
       id="linearGradient4424"
       x1="136.08484"
       y1="866.27258"
       x2="177.24364"
       y2="849.86597"
       gradientUnits="userSpaceOnUse"
       spreadMethod="reflect"
       gradientTransform="matrix(1.0835016,0,0,1.0835016,-13.571715,-84.202338)" />
    <linearGradient
       inkscape:collect="always"
       xlink:href="#linearGradient3911"
       id="linearGradient4434"
       x1="111.99751"
       y1="908.7052"
       x2="118.59411"
       y2="915.49414"
       gradientUnits="userSpaceOnUse"
       spreadMethod="reflect"
       gradientTransform="matrix(1.0835016,0,0,1.0835016,-13.571715,-84.202338)" />
    <linearGradient
       inkscape:collect="always"
       xlink:href="#linearGradient3965"
       id="linearGradient4442"
       x1="183.037"
       y1="911.83569"
       x2="227.80478"
       y2="893.44897"
       gradientUnits="userSpaceOnUse"
       spreadMethod="reflect"
       gradientTransform="matrix(1.0835016,0,0,1.0835016,-13.571715,-84.202341)" />
    <linearGradient
       inkscape:collect="always"
       xlink:href="#linearGradient4418"
       id="linearGradient4452"
       gradientUnits="userSpaceOnUse"
       spreadMethod="reflect"
       x1="187.11305"
       y1="860.10748"
       x2="160.34375"
       y2="884.15332"
       gradientTransform="matrix(-0.22172259,0.76424525,0.65052643,0.26048201,-468.94745,602.55611)" />
    <linearGradient
       inkscape:collect="always"
       xlink:href="#linearGradient3895"
       id="linearGradient4462"
       x1="105.08536"
       y1="930.03967"
       x2="149.18266"
       y2="900.05511"
       gradientUnits="userSpaceOnUse"
       spreadMethod="reflect"
       gradientTransform="matrix(1.0835016,0,0,1.0835016,-13.571715,-84.202338)" />
    <linearGradient
       inkscape:collect="always"
       xlink:href="#linearGradient4474"
       id="linearGradient4472"
       x1="83.674446"
       y1="979.67615"
       x2="104.94051"
       y2="973.47437"
       gradientUnits="userSpaceOnUse"
       spreadMethod="reflect"
       gradientTransform="matrix(1.4398054,0,0,1.4398054,-53.379923,-442.14383)" />
    <linearGradient
       inkscape:collect="always"
       xlink:href="#linearGradient4490"
       id="linearGradient4486"
       x1="54.38541"
       y1="982.25348"
       x2="96.876297"
       y2="990.28143"
       gradientUnits="userSpaceOnUse"
       spreadMethod="reflect"
       gradientTransform="matrix(1.4398054,0,0,1.4398054,-53.379923,-442.14383)" />
    <filter
       inkscape:collect="always"
       style="color-interpolation-filters:sRGB"
       id="filter4328"
       x="-0.022419554"
       width="1.0448391"
       y="-0.02582017"
       height="1.0516403">
      <feGaussianBlur
         inkscape:collect="always"
         stdDeviation="2.0935965"
         id="feGaussianBlur4330" />
    </filter>
    <linearGradient
       inkscape:collect="always"
       xlink:href="#linearGradient4208"
       id="linearGradient4214"
       x1="90.441071"
       y1="1011.0114"
       x2="91.588722"
       y2="976.67542"
       gradientUnits="userSpaceOnUse"
       gradientTransform="matrix(1.0573189,0,0,0.9969047,-4.7226641,3.918311)" />
    <radialGradient
       inkscape:collect="always"
       xlink:href="#linearGradient4222"
       id="radialGradient4228"
       cx="92.788483"
       cy="987.97296"
       fx="92.788483"
       fy="987.97296"
       r="15.403759"
       gradientTransform="matrix(1,0,0,0.99268302,0,7.2582365)"
       gradientUnits="userSpaceOnUse"
       spreadMethod="reflect" />
  </defs>
  <metadata
     id="metadata7">
    <rdf:RDF>
      <cc:Work
         rdf:about="">
        <dc:format>image/svg+xml</dc:format>
        <dc:type
           rdf:resource="http://purl.org/dc/dcmitype/StillImage" />
        <dc:title />
      </cc:Work>
    </rdf:RDF>
  </metadata>
  <g
     transform="translate(0,-796.3622)"
     id="layer1"
     inkscape:groupmode="layer"
     inkscape:label="Layer 1">
    <path
       style="fill:#000000;fill-opacity:0.48858449;stroke:none;stroke-width:2.26925063;stroke-opacity:1;filter:url(#filter4328)"
       d="m 181.39614,832.52039 c -29.1672,-0.17316 -58.05659,25.70396 -54.1543,58.70703 l 0.17969,0.35156 -12.86914,13.62305 -27.154293,28.62695 0.0332,0.082 -0.33789,0.35743 -0.13672,-0.31055 c -11.34205,-2.08121 -25.28132,4.74249 -33.86328,16.35937 l -39.14453,-18.51562 0.0039,0.28906 -0.0059,-0.008 0.0039,0.17578 -0.38086,-0.17578 0.38476,0.45312 0.07422,4.30664 0.62695,39.72852 0.36524,0.17383 8.94922,11.6875 -0.0039,-0.16016 31.46875,14.91988 c 1.79221,4.2519 4.34983,8.257 7.69141,11.7911 14.86402,15.7224 39.472193,16.2368 54.964833,1.1543 8.14837,-7.9345 12.07671,-18.60149 11.87891,-29.22075 l 48.8145,-34.57985 c 15.14685,2.10494 31.0762,-2.57883 42.96485,-14.15235 18.33333,-17.84986 20.91487,-46.07694 7.41211,-66.85742 -0.20721,-0.71902 -0.42788,-1.43507 -0.66602,-2.14649 0.25633,0.25961 0.5135,0.50652 0.76953,0.77149 -10.36205,-26.50496 -29.17221,-37.32065 -47.86914,-37.43164 z m 5.0586,42.11328 a 25.478953,25.85488 0 0 1 14.48437,4.58984 25.478953,25.85488 0 0 1 -24.9043,20.45508 25.478953,25.85488 0 0 1 -14.48437,-4.58984 25.478953,25.85488 0 0 0 -0.33008,2.02734 25.478953,25.85488 0 0 1 0.33008,-2.02734 25.478953,25.85488 0 0 1 24.9043,-20.45508 z m 16.07617,5.82031 a 25.478953,25.85488 0 0 1 1.08789,0.9668 25.478953,25.85488 0 0 0 -1.08789,-0.9668 z m 1.88867,1.72461 a 25.478953,25.85488 0 0 1 0.83594,0.90039 25.478953,25.85488 0 0 1 0.002,0.0117 25.478953,25.85488 0 0 0 -0.83789,-0.91211 z m -43.28711,15.53906 a 25.478953,25.85488 0 0 0 -0.0977,1.5625 25.478953,25.85488 0 0 1 0.0977,-1.5625 z m -0.15625,2.77149 a 25.478953,25.85488 0 0 0 0.10938,2.21484 25.478953,25.85488 0 0 1 -0.10938,-2.21484 z"
       id="path4274"
       inkscape:connector-curvature="0" />
    <g
       font-size="7.5"
       font-variant="normal"
       letter-spacing="0"
       font-stretch="normal"
       font-weight="bold"
       line-height="125%"
       word-spacing="0"
       font-style="normal"
       transform="translate(64.510376,754.39037)"
       id="text4330"
       style="font-style:normal;font-variant:normal;font-weight:bold;font-stretch:normal;font-size:7.5px;line-height:125%;font-family:STIX;letter-spacing:0;word-spacing:0;fill:#000000;fill-opacity:1;stroke:none;stroke-width:1;stroke-linecap:butt;stroke-linejoin:miter;stroke-opacity:1">
      <path
         inkscape:connector-curvature="0"
         id="path4335"
         d="m -56.13327,39.467617 0,-0.1875 c -0.3075,0 -0.4425,-0.165 -0.825,-1.0725 l -1.665,-3.915 -0.21,0 -1.6575,4.0875 c -0.285,0.705 -0.3975,0.84 -0.7425,0.9 l 0,0.1875 1.515,0 0,-0.1875 c -0.4425,-0.03 -0.6075,-0.1125 -0.6075,-0.3075 0,-0.18 0.1425,-0.495 0.2325,-0.7275 l 0.0975,-0.255 1.6875,0 c 0.255,0.5925 0.345,0.855 0.345,1.02 0,0.165 -0.0975,0.225 -0.345,0.2475 l -0.24,0.0225 0,0.1875 2.415,0 z m -2.2875,-1.77 -1.4625,0 0.705,-1.8225 0.7575,1.8225 z" />
      <path
         inkscape:connector-curvature="0"
         id="path4337"
         d="m -55.760848,34.397617 0,0.1875 c 0.525,0.045 0.63,0.15 0.63,0.735 l 0,3.2025 c 0,0.3825 -0.045,0.5925 -0.2925,0.69 -0.0825,0.0375 -0.195,0.0525 -0.3375,0.0675 l 0,0.1875 2.4975,0 0,-0.1875 c -0.5925,-0.075 -0.6525,-0.1425 -0.6525,-0.645 l 0,-1.44 c 0.99,-0.0075 1.245,-0.03 1.5675,-0.15 0.6225,-0.2325 0.9675,-0.69 0.9675,-1.29 0,-0.915 -0.765,-1.3575 -2.0175,-1.3575 l -2.3625,0 z m 1.845,0.525 c 0,-0.1725 0.1275,-0.2625 0.375,-0.2625 0.6225,0 0.87,0.345 0.87,1.1775 0,0.8325 -0.3075,1.0875 -1.245,1.095 l 0,-2.01 z" />
    </g>
    <path
       inkscape:connector-curvature="0"
       style="fill:#c8c8c8;fill-opacity:1;stroke:none;stroke-width:2.26925063;stroke-opacity:1"
       d="m 176.9942,827.0211 c -13.26242,-0.27886 -26.62914,4.57566 -36.95757,14.63151 -11.88864,11.57484 -17.15794,27.52952 -15.71288,42.97395 l -40.739239,43.12209 c -10.447781,-0.6405 -21.114635,2.90239 -29.263008,10.83502 -15.492626,15.08385 -16.000419,40.05687 -1.136407,55.77706 14.864014,15.72237 39.471782,16.23807 54.964424,1.15545 8.14836,-7.93438 12.07823,-18.60141 11.88043,-29.22069 l 48.8147,-34.58105 c 15.14686,2.10492 31.07472,-2.5776 42.96338,-14.15112 20.65682,-20.11209 21.33603,-53.40762 1.51732,-74.37011 -9.90932,-10.48027 -23.06874,-15.89324 -36.33115,-16.17211 z m -0.48038,26.9902 a 25.478953,25.85488 0 0 1 25.47921,25.8559 25.478953,25.85488 0 0 1 -25.47921,25.85378 25.478953,25.85488 0 0 1 -25.47922,-25.85378 25.478953,25.85488 0 0 1 25.47922,-25.8559 z"
       id="path4176" />
    <path
       inkscape:connector-curvature="0"
       id="path2985"
       d="m 183.43057,841.11979 c -13.26242,-0.27886 -26.62915,4.57566 -36.95757,14.63151 -11.88865,11.57484 -17.15794,27.52952 -15.71289,42.97396 l -40.739235,43.12209 c -10.447783,-0.6405 -21.11464,2.90239 -29.263016,10.835 -15.492621,15.08385 -16.000415,40.05683 -1.136409,55.77705 14.864016,15.7224 39.471791,16.238 54.96443,1.1555 8.14837,-7.9344 12.07824,-18.60141 11.88044,-29.2207 l 48.8147,-34.58106 c 15.14685,2.10494 31.07472,-2.57761 42.96337,-14.15113 20.65683,-20.11208 21.33604,-53.40761 1.51733,-74.37011 -9.90933,-10.48026 -23.06875,-15.89324 -36.33115,-16.17211 z m -0.48038,26.9902 a 25.478953,25.85488 0 0 1 25.47921,25.8559 25.478953,25.85488 0 0 1 -25.47921,25.85379 25.478953,25.85488 0 0 1 -25.47923,-25.85379 25.478953,25.85488 0 0 1 25.47923,-25.8559 z"
       style="fill:url(#linearGradient4462);fill-opacity:1;stroke:none;stroke-width:2.26925063;stroke-opacity:1" />
    <path
       style="fill:url(#linearGradient4424);fill-opacity:1;fill-rule:evenodd;stroke:none;stroke-width:1px;stroke-linecap:butt;stroke-linejoin:miter;stroke-opacity:1"
       d="m 131.39961,899.72223 -7.66234,-15.01818 c -6.40376,-54.15888 75.49699,-89.1285 102.02384,-21.27581 -48.1406,-49.82037 -101.76158,-4.57287 -94.3615,36.29399 z"
       id="path4416"
       inkscape:connector-curvature="0"
       sodipodi:nodetypes="cccc" />
    <path
       style="fill:url(#linearGradient4434);fill-opacity:1;fill-rule:evenodd;stroke:none;stroke-width:1px;stroke-linecap:butt;stroke-linejoin:miter;stroke-opacity:1"
       d="M 89.716518,941.4053 131.7061,898.49625 123.43078,885.62353 83.893146,927.30662 Z"
       id="path4426"
       inkscape:connector-curvature="0" />
    <path
       inkscape:connector-curvature="0"
       style="fill:url(#linearGradient4442);fill-opacity:1;stroke:none;stroke-width:2.26925039;stroke-miterlimit:4;stroke-dasharray:none;stroke-opacity:1"
       d="m 197.43387,872.69982 a 25.478953,25.85488 0 0 1 -24.9036,20.45532 25.478953,25.85488 0 0 1 -14.48549,-4.59007 25.478953,25.85488 0 0 0 -0.57349,5.40059 25.478953,25.85488 0 0 0 25.47921,25.85378 25.478953,25.85488 0 0 0 25.47922,-25.85378 25.478953,25.85488 0 0 0 -10.99585,-21.26584 z"
       id="ellipse4171" />
    <path
       sodipodi:nodetypes="cccc"
       inkscape:connector-curvature="0"
       id="path4450"
       d="M 89.675483,941.6607 83.452638,927.43521 C 60.083246,923.14705 25.614077,956.60027 49.928556,992.088 39.400917,960.93096 73.361601,937.01372 89.675483,941.6607 Z"
       style="fill:url(#linearGradient4452);fill-opacity:1;fill-rule:evenodd;stroke:none;stroke-width:1px;stroke-linecap:butt;stroke-linejoin:miter;stroke-opacity:1" />
    <path
       sodipodi:nodetypes="cssscc"
       inkscape:connector-curvature="0"
       id="rect3985"
       d="m 12.836066,916.59211 72.106493,33.04027 c 15.248141,6.98693 22.331241,23.7812 16.088211,37.20941 -6.242956,13.42911 -23.489428,18.49541 -38.626054,11.26856 L 13.777232,976.08468 Z"
       style="fill:#959595;fill-opacity:1;stroke:none;stroke-width:2.26925087;stroke-miterlimit:4;stroke-opacity:1" />
    <path
       style="fill:url(#linearGradient4486);fill-opacity:1;stroke:none;stroke-width:2.26925087;stroke-miterlimit:4;stroke-opacity:1"
       d="m 17.68354,926.68232 79.477485,38.42677 c 15.100325,7.3009 22.331235,23.7812 16.088205,37.20931 -6.24295,13.4293 -23.489428,18.4956 -38.626055,11.2688 L 18.624706,986.17489 Z"
       id="path4454"
       inkscape:connector-curvature="0"
       sodipodi:nodetypes="cssscc" />
    <path
       style="fill:url(#linearGradient4472);fill-opacity:1;fill-rule:evenodd;stroke:none;stroke-width:1px;stroke-linecap:butt;stroke-linejoin:miter;stroke-opacity:1"
       d="m 111.44577,977.97322 c -3.76479,-3.77562 -9.4742,-10.92805 -14.563284,-12.71723 L 17.776914,927.22372 4.961893,912.14722 87.334044,950.1795 c 10.733398,6.21917 20.272986,13.33469 24.111726,27.79372 z"
       id="path4464"
       inkscape:connector-curvature="0"
       sodipodi:nodetypes="cccccc" />
    <path
       style="fill:#aeaeae;fill-opacity:1;fill-rule:evenodd;stroke:none;stroke-width:1px;stroke-linecap:butt;stroke-linejoin:miter;stroke-opacity:1"
       d="m 5.464442,912.14722 12.061197,15.0765 1.256376,59.80342 -12.312473,-16.08159 z"
       id="path4488"
       inkscape:connector-curvature="0" />
    <ellipse
       style="opacity:1;fill:#000000;fill-opacity:1;fill-rule:evenodd;stroke:url(#linearGradient4214);stroke-width:4.307;stroke-linecap:round;stroke-linejoin:miter;stroke-miterlimit:4;stroke-dasharray:none;stroke-dashoffset:0;stroke-opacity:1"
       id="path4239"
       cx="90.236984"
       cy="991.97119"
       rx="17.319416"
       ry="17.177666" />
    <ellipse
       ry="13.658392"
       rx="13.771101"
       cy="991.97119"
       cx="90.236984"
       id="ellipse4218"
       style="opacity:1;fill:url(#radialGradient4228);fill-opacity:1;fill-rule:evenodd;stroke:#c5c5c5;stroke-width:2.7;stroke-linecap:round;stroke-linejoin:miter;stroke-miterlimit:4;stroke-dasharray:none;stroke-dashoffset:0;stroke-opacity:1" />
    <rect
       style="opacity:1;fill:#000000;fill-opacity:1;fill-rule:nonzero;stroke:none;stroke-width:2.70000005;stroke-linecap:round;stroke-linejoin:round;stroke-miterlimit:4;stroke-dasharray:none;stroke-dashoffset:0;stroke-opacity:1"
       id="rect4230"
       width="24.300701"
       height="4.0209751"
       x="77.797203"
       y="989.77478"
       ry="1.923075"
       rx="0.34965035" />
    <rect
       style="opacity:1;fill:#bfbfbf;fill-opacity:1;fill-rule:nonzero;stroke:none;stroke-width:2.70000005;stroke-linecap:round;stroke-linejoin:round;stroke-miterlimit:4;stroke-dasharray:none;stroke-dashoffset:0;stroke-opacity:1"
       id="rect4232"
       width="23.601398"
       height="1.2237762"
       x="78.671326"
       y="993.0965"
       rx="0.34965"
       ry="1.2237762" />
  </g>
</svg>
