<?xml version="1.0" encoding="UTF-8" standalone="no"?>
<!-- Created with Inkscape (http://www.inkscape.org/) -->
<svg
   xmlns:dc="http://purl.org/dc/elements/1.1/"
   xmlns:cc="http://creativecommons.org/ns#"
   xmlns:rdf="http://www.w3.org/1999/02/22-rdf-syntax-ns#"
   xmlns:svg="http://www.w3.org/2000/svg"
   xmlns="http://www.w3.org/2000/svg"
   xmlns:xlink="http://www.w3.org/1999/xlink"
   xmlns:sodipodi="http://sodipodi.sourceforge.net/DTD/sodipodi-0.dtd"
   xmlns:inkscape="http://www.inkscape.org/namespaces/inkscape"
   inkscape:output_extension="org.inkscape.output.svg.inkscape"
   sodipodi:docname="stock_news.svg"
   version="1.0"
   height="256"
   width="256"
   inkscape:version="0.46"
   sodipodi:version="0.32"
   id="svg2">
  <sodipodi:namedview
     inkscape:window-height="1025"
     inkscape:window-width="1680"
     inkscape:pageshadow="2"
     inkscape:pageopacity="0.0"
     guidetolerance="10.0"
     gridtolerance="10.0"
     objecttolerance="10.0"
     borderopacity="1.0"
     bordercolor="#666666"
     pagecolor="#ffffff"
     id="base"
     showgrid="false"
     inkscape:zoom="3.3828125"
     inkscape:cx="128"
     inkscape:cy="128"
     inkscape:window-x="-5"
     inkscape:window-y="0"
     inkscape:current-layer="svg2"
     inkscape:window-maximized="1" />
  <metadata
     id="metadata7">
    <rdf:RDF>
      <cc:Work
         rdf:about="">
        <dc:format>image/svg+xml</dc:format>
        <dc:type
           rdf:resource="http://purl.org/dc/dcmitype/StillImage" />
      </cc:Work>
    </rdf:RDF>
  </metadata>
  <defs
     id="defs5">
    <linearGradient
       id="linearGradient3391">
      <stop
         style="stop-color:#565656;stop-opacity:1;"
         offset="0"
         id="stop3393" />
      <stop
         style="stop-color:#000000;stop-opacity:1;"
         offset="1"
         id="stop3395" />
    </linearGradient>
    <linearGradient
       id="linearGradient3383">
      <stop
         id="stop3385"
         offset="0"
         style="stop-color:#ffffff;stop-opacity:1;" />
      <stop
         id="stop3387"
         offset="1"
         style="stop-color:#ffffff;stop-opacity:0;" />
    </linearGradient>
    <linearGradient
       id="linearGradient3373">
      <stop
         style="stop-color:#ffffff;stop-opacity:1;"
         offset="0"
         id="stop3375" />
      <stop
         style="stop-color:#020202;stop-opacity:1;"
         offset="1"
         id="stop3377" />
    </linearGradient>
    <inkscape:perspective
       sodipodi:type="inkscape:persp3d"
       inkscape:vp_x="0 : 526.18109 : 1"
       inkscape:vp_y="0 : 1000 : 0"
       inkscape:vp_z="744.09448 : 526.18109 : 1"
       inkscape:persp3d-origin="372.04724 : 350.78739 : 1"
       id="perspective9" />
    <inkscape:perspective
       id="perspective10"
       inkscape:persp3d-origin="372.04724 : 350.78739 : 1"
       inkscape:vp_z="744.09448 : 526.18109 : 1"
       inkscape:vp_y="0 : 1000 : 0"
       inkscape:vp_x="0 : 526.18109 : 1"
       sodipodi:type="inkscape:persp3d" />
    <linearGradient
       inkscape:collect="always"
       xlink:href="#linearGradient3373"
       id="linearGradient3379"
       x1="135.0813"
       y1="210.88744"
       x2="131.09915"
       y2="34.40707"
       gradientUnits="userSpaceOnUse"
       gradientTransform="matrix(1.0828726,0,0,1.0828726,-9.3878785,-20.61061)" />
    <linearGradient
       inkscape:collect="always"
       xlink:href="#linearGradient3383"
       id="linearGradient3389"
       gradientUnits="userSpaceOnUse"
       x1="125.6217"
       y1="11.940557"
       x2="112.47559"
       y2="71.949799"
       gradientTransform="matrix(1.0828726,0,0,1.0828726,-9.3878785,-20.61061)" />
    <linearGradient
       inkscape:collect="always"
       xlink:href="#linearGradient3391"
       id="linearGradient3397"
       x1="68.267486"
       y1="136.13924"
       x2="199.48624"
       y2="136.13924"
       gradientUnits="userSpaceOnUse" />
    <linearGradient
       inkscape:collect="always"
       xlink:href="#linearGradient3391"
       id="linearGradient3405"
       x1="60.892487"
       y1="147.58936"
       x2="163.89255"
       y2="147.58936"
       gradientUnits="userSpaceOnUse" />
    <linearGradient
       inkscape:collect="always"
       xlink:href="#linearGradient3391"
       id="linearGradient3414"
       x1="47.09375"
       y1="149.73438"
       x2="124.21875"
       y2="149.73438"
       gradientUnits="userSpaceOnUse" />
    <linearGradient
       inkscape:collect="always"
       xlink:href="#linearGradient3391"
       id="linearGradient3422"
       x1="35.361237"
       y1="211.77449"
       x2="17.624516"
       y2="211.77449"
       gradientUnits="userSpaceOnUse" />
    <linearGradient
       inkscape:collect="always"
       xlink:href="#linearGradient3391"
       id="linearGradient3430"
       x1="215.64249"
       y1="203.36835"
       x2="231.90285"
       y2="203.36835"
       gradientUnits="userSpaceOnUse" />
    <linearGradient
       inkscape:collect="always"
       xlink:href="#linearGradient3391"
       id="linearGradient3482"
       gradientUnits="userSpaceOnUse"
       x1="35.361237"
       y1="211.77449"
       x2="17.624516"
       y2="211.77449" />
    <linearGradient
       inkscape:collect="always"
       xlink:href="#linearGradient3391"
       id="linearGradient3484"
       gradientUnits="userSpaceOnUse"
       x1="215.64249"
       y1="203.36835"
       x2="231.90285"
       y2="203.36835" />
    <linearGradient
       inkscape:collect="always"
       xlink:href="#linearGradient3391"
       id="linearGradient3486"
       gradientUnits="userSpaceOnUse"
       x1="68.267486"
       y1="136.13924"
       x2="199.48624"
       y2="136.13924" />
    <linearGradient
       inkscape:collect="always"
       xlink:href="#linearGradient3391"
       id="linearGradient3488"
       gradientUnits="userSpaceOnUse"
       x1="60.892487"
       y1="147.58936"
       x2="163.89255"
       y2="147.58936" />
    <linearGradient
       inkscape:collect="always"
       xlink:href="#linearGradient3391"
       id="linearGradient3490"
       gradientUnits="userSpaceOnUse"
       x1="47.09375"
       y1="149.73438"
       x2="124.21875"
       y2="149.73438" />
    <linearGradient
       inkscape:collect="always"
       xlink:href="#linearGradient3391"
       id="linearGradient3496"
       gradientUnits="userSpaceOnUse"
       x1="47.09375"
       y1="149.73438"
       x2="124.21875"
       y2="149.73438"
       gradientTransform="matrix(1.0828726,0,0,1.0828726,-528.37093,-15.525864)" />
    <linearGradient
       inkscape:collect="always"
       xlink:href="#linearGradient3391"
       id="linearGradient3500"
       gradientUnits="userSpaceOnUse"
       x1="60.892487"
       y1="147.58936"
       x2="163.89255"
       y2="147.58936"
       gradientTransform="matrix(1.0828726,0,0,1.0828726,-528.37093,-15.525864)" />
    <linearGradient
       inkscape:collect="always"
       xlink:href="#linearGradient3391"
       id="linearGradient3506"
       gradientUnits="userSpaceOnUse"
       x1="68.267486"
       y1="136.13924"
       x2="199.48624"
       y2="136.13924"
       gradientTransform="matrix(1.0828726,0,0,1.0828726,-528.37093,-15.525864)" />
    <linearGradient
       inkscape:collect="always"
       xlink:href="#linearGradient3391"
       id="linearGradient3517"
       gradientUnits="userSpaceOnUse"
       x1="215.64249"
       y1="203.36835"
       x2="231.90285"
       y2="203.36835"
       gradientTransform="matrix(1.0828726,0,0,1.0828726,-528.37093,-15.525864)" />
    <linearGradient
       inkscape:collect="always"
       xlink:href="#linearGradient3391"
       id="linearGradient3521"
       gradientUnits="userSpaceOnUse"
       x1="35.361237"
       y1="211.77449"
       x2="17.624516"
       y2="211.77449"
       gradientTransform="matrix(1.0828726,0,0,1.0828726,-528.37093,-15.525864)" />
    <filter
       inkscape:collect="always"
       id="filter3549"
       x="-0.028054979"
       width="1.05611"
       y="-0.1660476"
       height="1.3320952">
      <feGaussianBlur
         inkscape:collect="always"
         stdDeviation="2.6924432"
         id="feGaussianBlur3551" />
    </filter>
  </defs>
  <g
     id="g3526"
     transform="translate(519.30842,6.2283636)"
     style="fill:#000000;fill-opacity:1;filter:url(#filter3549)">
    <path
       id="path3438"
       d="M -507.3375,183.86567 C -507.50047,184.67286 -507.57828,185.46902 -507.57828,186.25008 L -507.57828,207.90753 C -507.57828,207.12647 -507.50047,206.33031 -507.3375,205.52312 L -507.3375,183.86567 z"
       style="fill:#000000;fill-opacity:1" />
    <path
       style="fill:#000000;fill-opacity:1"
       id="path3440"
       d="M -507.57828,186.25008 C -507.57828,194.53794 -498.81731,201.12395 -490.07922,201.12395 L -490.07922,222.7814 C -498.81731,222.7814 -507.57828,216.19539 -507.57828,207.90753 L -507.57828,186.25008 z" />
    <path
       id="path3442"
       d="M -490.07922,201.12395 L -294.85759,201.12395 L -294.85759,222.7814 L -490.07922,222.7814 L -490.07922,201.12395 z"
       style="fill:#000000;fill-opacity:1" />
    <path
       style="fill:#000000;fill-opacity:1"
       id="path3444"
       d="M -294.85759,201.12395 C -286.256,201.12395 -277.24969,194.6547 -277.24969,186.61088 L -277.24969,208.26833 C -277.24969,216.31216 -286.256,222.7814 -294.85759,222.7814 L -294.85759,201.12395 z" />
    <path
       id="path3446"
       d="M -277.24969,186.61088 C -277.24969,185.71316 -277.36186,184.79581 -277.5993,183.86567 L -277.5993,205.52312 C -277.36186,206.45326 -277.24969,207.37061 -277.24969,208.26833 L -277.24969,186.61088 z"
       style="fill:#000000;fill-opacity:1" />
  </g>
  <g
     id="layer1"
     inkscape:label="Layer 1"
     transform="translate(-1.0539259,-0.7599639)">
    <path
       sodipodi:nodetypes="cccccccccsssccccccssscccccc"
       id="text2383"
       d="M 10.338337,-10.630085 L 10.369587,-10.598835 L 6.9504776,-1.4142743 L 8.3879776,-1.3856193 L 9.6246406,-4.5355853 L 12.857374,-4.5355853 L 14.083033,-1.3856183 L 15.520533,-1.3856183 L 14.244587,-4.5675853 C 15.011057,-4.6616323 15.614006,-4.8951793 16.057087,-5.2863353 C 16.64497,-5.8013043 16.93208,-6.5604173 16.932087,-7.5675853 C 16.932079,-8.5656233 16.644971,-9.3338523 16.057087,-9.8488353 C 15.473747,-10.368356 14.607212,-10.630075 13.463337,-10.630085 L 11.932087,-10.630085 L 10.369587,-10.630085 L 10.338337,-10.630085 z M 12.369587,-9.5050853 L 13.463337,-9.5050853 C 14.10591,-9.5050763 14.612421,-9.3377583 14.963337,-9.0050853 C 15.314242,-8.6723943 15.494581,-8.1782543 15.494587,-7.5675853 C 15.494581,-6.9523443 15.314243,-6.4940113 14.963337,-6.1613353 C 14.676858,-5.8897383 14.287944,-5.7424543 13.807087,-5.6925853 L 12.369587,-9.5050853 z M 11.140459,-8.6820923 L 12.326124,-5.6918353 L 9.9475186,-5.6345243 L 11.140459,-8.6820923 z"
       style="font-size:14px;font-style:normal;font-weight:normal;fill:#000000;fill-opacity:1;stroke:none;stroke-width:1px;stroke-linecap:butt;stroke-linejoin:miter;stroke-opacity:1;font-family:Bitstream Vera Sans" />
  </g>
  <g
     style="fill:#565656;fill-opacity:1;stroke:none"
     id="g3259"
     transform="matrix(1.0828726,0,0,1.0828726,-9.3878785,-20.61061)">
    <path
       d="M 60.954986,41.382025 C 52.125166,41.382025 47.017386,47.413915 45.017486,57.319525 L 45.017486,77.319525 C 47.017386,67.413915 52.125166,61.382025 60.954986,61.382025 L 60.954986,41.382025 z"
       id="path3261" />
    <path
       d="M 45.017486,57.319525 L 19.423736,184.13203 L 19.423736,204.13203 L 45.017486,77.319525 L 45.017486,57.319525 z"
       id="path3263" />
    <path
       d="M 19.423736,184.13203 C 19.273239,184.87745 19.201386,185.61268 19.201386,186.33396 L 19.201386,206.33396 C 19.201386,205.61268 19.273239,204.87745 19.423736,204.13203 L 19.423736,184.13203 z"
       id="path3265" />
    <path
       d="M 19.201386,186.33396 C 19.201386,193.98755 27.291876,200.06953 35.361236,200.06953 L 35.361236,220.06953 C 27.291876,220.06953 19.201386,213.98755 19.201386,206.33396 L 19.201386,186.33396 z"
       id="path3267"
       style="fill:url(#linearGradient3422);fill-opacity:1" />
    <path
       d="M 35.361236,200.06953 L 215.64249,200.06953 L 215.64249,220.06953 L 35.361236,220.06953 L 35.361236,200.06953 z"
       id="path3269" />
    <path
       d="M 215.64249,200.06953 C 223.58579,200.06953 231.90285,194.09538 231.90285,186.66715 L 231.90285,206.66715 C 231.90285,214.09538 223.58579,220.06953 215.64249,220.06953 L 215.64249,200.06953 z"
       id="path3271"
       style="fill:url(#linearGradient3430);fill-opacity:1" />
    <path
       d="M 231.90285,186.66715 C 231.90285,185.83813 231.79926,184.99099 231.57999,184.13203 L 231.57999,204.13203 C 231.79926,204.99099 231.90285,205.83813 231.90285,206.66715 L 231.90285,186.66715 z"
       id="path3273" />
    <path
       d="M 231.57999,184.13203 L 199.20499,57.319525 L 199.20499,77.319525 L 231.57999,204.13203 L 231.57999,184.13203 z"
       id="path3275" />
    <path
       d="M 199.20499,57.319525 C 197.02103,48.764065 192.0973,41.382025 183.26749,41.382025 L 183.26749,61.382025 C 192.0973,61.382025 197.02103,68.764065 199.20499,77.319525 L 199.20499,57.319525 z"
       id="path3277" />
    <path
       d="M 183.26749,41.382025 L 60.954986,41.382025 L 60.954986,61.382025 L 183.26749,61.382025 L 183.26749,41.382025 z"
       id="path3279" />
    <path
       d="M 199.48624,175.03828 L 177.14249,175.35078 L 177.14249,195.35078 L 199.48624,195.03828 L 199.48624,175.03828 z"
       id="path3281" />
    <path
       d="M 177.14249,175.35078 C 177.38024,172.41111 177.49628,169.55293 177.49628,166.77511 L 177.49628,186.77511 C 177.49628,189.55293 177.38024,192.41111 177.14249,195.35078 L 177.14249,175.35078 z"
       id="path3283" />
    <path
       d="M 177.49628,166.77511 C 177.49628,103.55659 117.39636,81.964589 64.142486,88.819525 L 64.142486,108.81952 C 117.39636,101.96459 177.49628,123.55659 177.49628,186.77511 L 177.49628,166.77511 z"
       id="path3285" />
    <path
       d="M 64.142486,88.819525 L 68.267486,77.663275 L 68.267486,97.663275 L 64.142486,108.81952 L 64.142486,88.819525 z"
       id="path3287" />
    <path
       d="M 68.267486,77.663275 C 167.77443,72.425354 198.5105,116.4476 199.48624,175.03828 L 199.48624,195.03828 C 198.5105,136.4476 167.77443,92.425354 68.267486,97.663275 L 68.267486,77.663275 z"
       id="path3289"
       style="fill:url(#linearGradient3397);fill-opacity:1" />
    <path
       d="M 163.89249,175.94453 L 141.51749,176.22578 L 141.51749,196.22578 L 163.89249,195.94453 L 163.89249,175.94453 z"
       id="path3291" />
    <path
       d="M 141.51749,176.22578 C 140.50614,115.70789 105.24278,112.01099 57.361236,114.72578 L 57.361236,134.72578 C 105.24278,132.01099 140.50614,135.70789 141.51749,196.22578 L 141.51749,176.22578 z"
       id="path3293" />
    <path
       d="M 57.361236,114.72578 L 60.892486,99.725776 L 60.892486,119.72578 L 57.361236,134.72578 L 57.361236,114.72578 z"
       id="path3295" />
    <path
       d="M 60.892486,99.725776 C 136.84276,94.841153 163.89254,136.00386 163.89254,175.84893 L 163.89254,195.84893 C 163.89254,156.00386 136.84276,114.84115 60.892486,119.72578 L 60.892486,99.725776 z"
       id="path3297"
       style="fill:url(#linearGradient3405);fill-opacity:1" />
    <path
       d="M 163.89254,175.84893 C 163.89254,175.8808 163.89252,175.91266 163.89249,175.94453 L 163.89249,195.94453 C 163.89252,195.91266 163.89254,195.8808 163.89254,195.84893 L 163.89254,175.84893 z"
       id="path3299" />
    <path
       d="M 85.65625,125.90625 C 64.35739,125.90625 47.093749,138.28643 47.09375,153.5625 L 47.09375,173.5625 C 47.09375,158.28643 64.357389,145.90625 85.65625,145.90625 C 106.95511,145.90625 124.21875,158.28643 124.21875,173.5625 L 124.21875,153.5625 C 124.21875,138.28643 106.95511,125.90625 85.65625,125.90625 z"
       id="path3301"
       style="fill:url(#linearGradient3414);fill-opacity:1" />
    <path
       d="M 124.20499,153.56953 C 124.20499,168.8456 106.94135,181.22578 85.642486,181.22578 L 85.642486,201.22578 C 106.94135,201.22578 124.20499,188.8456 124.20499,173.56953 L 124.20499,153.56953 z"
       id="path3303" />
    <path
       d="M 85.642486,181.22578 C 64.343626,181.22578 47.079986,168.8456 47.079986,153.56953 L 47.079986,173.56953 C 47.079986,188.8456 64.343626,201.22578 85.642486,201.22578 L 85.642486,181.22578 z"
       id="path3305" />
    <path
       d="M 85.642486,125.91328 L 85.642486,125.91328 L 85.642486,145.91328 L 85.642486,145.91328 L 85.642486,125.91328 z"
       id="path3309" />
  </g>
  <path
     style="fill:url(#linearGradient3379);fill-opacity:1;stroke:none"
     d="M 56.618604,24.20085 C 47.057035,24.20085 41.52596,30.732618 39.360323,41.459132 L 11.645553,178.78092 C 9.7532978,188.15336 19.342264,196.0392 28.903834,196.0392 L 224.12546,196.0392 C 233.68702,196.0392 243.74869,188.04539 241.38374,178.78092 L 206.32574,41.459132 C 203.96079,32.194659 198.62902,24.20085 189.06746,24.20085 L 56.618604,24.20085 z M 206.6303,168.93354 L 182.43487,169.27194 C 188.55155,93.642203 120.27131,67.820429 60.070261,75.569618 L 64.53711,63.488821 C 172.29045,57.81682 205.5737,105.4873 206.6303,168.93354 z M 168.0868,169.9149 L 143.85753,170.21946 C 142.76237,104.68629 104.57664,100.68302 52.727031,103.62279 L 56.550925,87.379698 C 138.86118,82.086043 168.13368,126.73557 168.0868,169.9149 z M 83.352021,115.73743 C 106.41598,115.73743 125.1103,129.14359 125.1103,145.68562 C 125.1103,162.22766 106.41598,175.63382 83.352021,175.63382 C 60.28807,175.63382 41.593747,162.22766 41.593747,145.68562 C 41.593747,129.14359 60.28807,115.73743 83.352021,115.73743 L 83.352021,115.73743 z"
     id="rect3039"
     inkscape:connector-curvature="0"
     sodipodi:nodetypes="sccssccssccccccccccsssss" />
  <path
     sodipodi:nodetypes="ccccss"
     inkscape:connector-curvature="0"
     id="path3381"
     d="M 56.618604,24.20085 C 47.057035,24.20085 41.52596,30.732618 39.360323,41.459132 C 84.106032,34.814304 179.74926,49.755376 220.01343,98.916169 L 206.32574,41.459132 C 203.96079,32.194659 198.62902,24.20085 189.06746,24.20085 L 56.618604,24.20085 z"
     style="fill:url(#linearGradient3389);fill-opacity:1;stroke:none" />
</svg>
