<?xml version="1.0" encoding="UTF-8" standalone="no"?>
<!-- Created with Inkscape (http://www.inkscape.org/) -->
<svg
   xmlns:dc="http://purl.org/dc/elements/1.1/"
   xmlns:cc="http://web.resource.org/cc/"
   xmlns:rdf="http://www.w3.org/1999/02/22-rdf-syntax-ns#"
   xmlns:svg="http://www.w3.org/2000/svg"
   xmlns="http://www.w3.org/2000/svg"
   xmlns:xlink="http://www.w3.org/1999/xlink"
   xmlns:sodipodi="http://sodipodi.sourceforge.net/DTD/sodipodi-0.dtd"
   xmlns:inkscape="http://www.inkscape.org/namespaces/inkscape"
   id="svg2"
   sodipodi:version="0.32"
   inkscape:version="0.44"
   width="128"
   height="128"
   version="1.0"
   sodipodi:docbase="/media/disk-hda3/svg1/apps"
   sodipodi:docname="teke.svg">
  <metadata
     id="metadata7">
    <rdf:RDF>
      <cc:Work
         rdf:about="">
        <dc:format>image/svg+xml</dc:format>
        <dc:type
           rdf:resource="http://purl.org/dc/dcmitype/StillImage" />
      </cc:Work>
    </rdf:RDF>
  </metadata>
  <defs
     id="defs5">
    <linearGradient
       inkscape:collect="always"
       id="linearGradient2831">
      <stop
         style="stop-color:#043600;stop-opacity:1"
         offset="0"
         id="stop2833" />
      <stop
         style="stop-color:#1ed10f;stop-opacity:1"
         offset="1"
         id="stop2835" />
    </linearGradient>
    <linearGradient
       id="linearGradient2817">
      <stop
         id="stop2823"
         offset="0"
         style="stop-color:white;stop-opacity:0" />
      <stop
         id="stop2825"
         offset="1"
         style="stop-color:white;stop-opacity:1;" />
    </linearGradient>
    <linearGradient
       id="linearGradient2798">
      <stop
         style="stop-color:#f6f6f6;stop-opacity:0.02061856;"
         offset="0"
         id="stop2800" />
      <stop
         style="stop-color:white;stop-opacity:1;"
         offset="1"
         id="stop2802" />
    </linearGradient>
    <linearGradient
       id="linearGradient2822">
      <stop
         style="stop-color:white;stop-opacity:1"
         offset="0"
         id="stop2824" />
      <stop
         style="stop-color:white;stop-opacity:0;"
         offset="1"
         id="stop2826" />
    </linearGradient>
    <linearGradient
       id="linearGradient2804">
      <stop
         id="stop2810"
         offset="0"
         style="stop-color:black;stop-opacity:0.01960784;" />
      <stop
         style="stop-color:#0c0000;stop-opacity:0;"
         offset="0.5"
         id="stop2804" />
      <stop
         id="stop2806"
         offset="0.75"
         style="stop-color:black;stop-opacity:0;" />
      <stop
         style="stop-color:white;stop-opacity:0.08247422;"
         offset="0.875"
         id="stop2808" />
      <stop
         id="stop2812"
         offset="1"
         style="stop-color:white;stop-opacity:1;" />
    </linearGradient>
    <linearGradient
       id="linearGradient2794">
      <stop
         style="stop-color:white;stop-opacity:1;"
         offset="0"
         id="stop2796" />
      <stop
         style="stop-color:#ecb373;stop-opacity:1"
         offset="1"
         id="stop2798" />
    </linearGradient>
    <linearGradient
       id="linearGradient2776">
      <stop
         id="stop2782"
         offset="0"
         style="stop-color:white;stop-opacity:1;" />
      <stop
         id="stop2784"
         offset="1"
         style="stop-color:white;stop-opacity:0;" />
    </linearGradient>
    <linearGradient
       id="linearGradient2762">
      <stop
         style="stop-color:black;stop-opacity:0;"
         offset="0"
         id="stop2764" />
      <stop
         id="stop2770"
         offset="0.5"
         style="stop-color:black;stop-opacity:0;" />
      <stop
         style="stop-color:black;stop-opacity:0;"
         offset="0.75"
         id="stop2772" />
      <stop
         style="stop-color:#a3a3a3;stop-opacity:1;"
         offset="1"
         id="stop2766" />
    </linearGradient>
    <linearGradient
       inkscape:collect="always"
       xlink:href="#linearGradient2776"
       id="linearGradient2788"
       x1="64.202568"
       y1="13.284107"
       x2="64.202568"
       y2="56.405235"
       gradientUnits="userSpaceOnUse" />
    <linearGradient
       inkscape:collect="always"
       xlink:href="#linearGradient2822"
       id="linearGradient1903"
       gradientUnits="userSpaceOnUse"
       x1="62.696751"
       y1="14.926819"
       x2="62.024876"
       y2="53.769493" />
    <radialGradient
       inkscape:collect="always"
       xlink:href="#linearGradient2798"
       id="radialGradient1905"
       gradientUnits="userSpaceOnUse"
       gradientTransform="matrix(1,-2.735308e-7,2.870944e-7,1.049587,-1.808008e-5,-3.122763)"
       cx="64.202568"
       cy="62.976074"
       fx="64.202568"
       fy="62.976074"
       r="49.691967" />
    <radialGradient
       inkscape:collect="always"
       xlink:href="#linearGradient2804"
       id="radialGradient1907"
       gradientUnits="userSpaceOnUse"
       gradientTransform="matrix(1,-2.735308e-7,2.870944e-7,1.049587,-1.808008e-5,-3.122763)"
       cx="64.202568"
       cy="62.976074"
       fx="64.750137"
       fy="27.931601"
       r="49.691967" />
    <radialGradient
       inkscape:collect="always"
       xlink:href="#linearGradient2762"
       id="radialGradient1909"
       gradientUnits="userSpaceOnUse"
       cx="64.202568"
       cy="62.976074"
       fx="64.202568"
       fy="29.026741"
       r="49.691967" />
    <linearGradient
       inkscape:collect="always"
       xlink:href="#linearGradient2762"
       id="linearGradient2812"
       x1="14.510601"
       y1="62.976074"
       x2="113.89454"
       y2="62.976074"
       gradientUnits="userSpaceOnUse" />
    <linearGradient
       inkscape:collect="always"
       xlink:href="#linearGradient2817"
       id="linearGradient2815"
       gradientUnits="userSpaceOnUse"
       x1="61.210033"
       y1="45.796486"
       x2="64.202568"
       y2="11.437329" />
    <linearGradient
       inkscape:collect="always"
       xlink:href="#linearGradient2831"
       id="linearGradient2837"
       x1="-9.4366732"
       y1="49.906075"
       x2="-9.4366732"
       y2="5.1963844"
       gradientUnits="userSpaceOnUse" />
  </defs>
  <sodipodi:namedview
     inkscape:window-height="743"
     inkscape:window-width="1016"
     inkscape:pageshadow="2"
     inkscape:pageopacity="0.0"
     guidetolerance="10.0"
     gridtolerance="10.0"
     objecttolerance="10.0"
     borderopacity="1.0"
     bordercolor="#666666"
     pagecolor="#ffffff"
     id="base"
     inkscape:zoom="4.1328125"
     inkscape:cx="64"
     inkscape:cy="64"
     inkscape:window-x="0"
     inkscape:window-y="0"
     inkscape:current-layer="svg2" />
  <g
     id="g2846">
    <path
       transform="matrix(0.796143,0,0,0.787879,14.27872,12.94195)"
       d="M 113.89454 62.976074 A 49.691967 49.691967 0 1 1  14.510601,62.976074 A 49.691967 49.691967 0 1 1  113.89454 62.976074 z"
       sodipodi:ry="49.691967"
       sodipodi:rx="49.691967"
       sodipodi:cy="62.976074"
       sodipodi:cx="64.202568"
       id="path2774"
       style="fill:#f19d11;fill-opacity:1;stroke:none;stroke-width:0;stroke-linecap:round;stroke-linejoin:round;stroke-miterlimit:4;stroke-dasharray:none;stroke-opacity:1"
       sodipodi:type="arc" />
    <path
       d="M 113.89454 62.976074 A 49.691967 49.691967 0 1 1  14.510601,62.976074 A 49.691967 49.691967 0 1 1  113.89454 62.976074 z"
       sodipodi:ry="49.691967"
       sodipodi:rx="49.691967"
       sodipodi:cy="62.976074"
       sodipodi:cx="64.202568"
       id="path1873"
       style="fill:black;fill-opacity:1;stroke:none;stroke-width:0;stroke-linecap:round;stroke-linejoin:round;stroke-miterlimit:4;stroke-dasharray:none;stroke-opacity:1"
       sodipodi:type="arc" />
    <path
       transform="translate(-1.505293e-5,3.026465e-6)"
       sodipodi:type="arc"
       style="fill:url(#radialGradient1909);fill-opacity:1;stroke:none;stroke-width:0;stroke-linecap:round;stroke-linejoin:round;stroke-miterlimit:4;stroke-dasharray:none;stroke-opacity:1"
       id="path2760"
       sodipodi:cx="64.202568"
       sodipodi:cy="62.976074"
       sodipodi:rx="49.691967"
       sodipodi:ry="49.691967"
       d="M 113.89454 62.976074 A 49.691967 49.691967 0 1 1  14.510601,62.976074 A 49.691967 49.691967 0 1 1  113.89454 62.976074 z" />
    <path
       sodipodi:nodetypes="cccc"
       id="path2810"
       d="M 18.417632,43.639687 C 26.493251,24.909859 44.178094,14.094349 64.202568,13.284107 C 84.58573,13.421741 101.46508,25.508361 109.98751,43.639687 C 48.689939,71.114489 71.047249,21.289039 18.417632,43.639687 z "
       style="fill:url(#linearGradient2815);fill-opacity:1.0;stroke:none;stroke-width:0;stroke-linecap:round;stroke-linejoin:round;stroke-miterlimit:4;stroke-opacity:1"
       transform="translate(-1.505293e-5,3.026465e-6)" />
    <path
       sodipodi:type="arc"
       style="opacity:1;fill:black;fill-opacity:1;stroke:none;stroke-width:0.2;stroke-linecap:round;stroke-linejoin:round;stroke-miterlimit:4;stroke-dasharray:none;stroke-opacity:1"
       id="path2829"
       sodipodi:cx="-9.4366732"
       sodipodi:cy="32.423439"
       sodipodi:rx="14.759924"
       sodipodi:ry="14.759924"
       d="M 5.3232508 32.423439 A 14.759924 14.759924 0 1 1  -24.196597,32.423439 A 14.759924 14.759924 0 1 1  5.3232508 32.423439 z"
       transform="matrix(1,0,0,0.844262,72.34782,15.33311)" />
    <path
       transform="matrix(1,0,0,0.844262,73.07372,16.30097)"
       d="M 5.3232508 32.423439 A 14.759924 14.759924 0 1 1  -24.196597,32.423439 A 14.759924 14.759924 0 1 1  5.3232508 32.423439 z"
       sodipodi:ry="14.759924"
       sodipodi:rx="14.759924"
       sodipodi:cy="32.423439"
       sodipodi:cx="-9.4366732"
       id="path2827"
       style="opacity:1;fill:url(#linearGradient2837);fill-opacity:1.0;stroke:none;stroke-width:0.2;stroke-linecap:round;stroke-linejoin:round;stroke-miterlimit:4;stroke-dasharray:none;stroke-opacity:1"
       sodipodi:type="arc" />
    <path
       style="font-size:13px;font-style:normal;font-weight:bold;fill:black;fill-opacity:1;stroke:none;stroke-width:1px;stroke-linecap:butt;stroke-linejoin:miter;stroke-opacity:1;font-family:Bitstream Vera Sans"
       d="M 60.901065,37.948281 L 66.975765,37.948281 L 66.975765,39.744668 L 62.849795,39.744668 L 62.849795,41.210976 C 63.035985,41.160201 63.222185,41.122116 63.408385,41.096719 C 63.598815,41.067103 63.795585,41.052291 63.998715,41.052285 C 65.153985,41.052291 66.053235,41.342167 66.696475,41.921914 C 67.339695,42.49744 67.661305,43.301475 67.661315,44.334023 C 67.661305,45.358114 67.310075,46.160034 66.607605,46.739785 C 65.909355,47.319538 64.938165,47.609414 63.694035,47.609414 C 63.156595,47.609414 62.623395,47.556517 62.094425,47.450723 C 61.569685,47.34916 61.047055,47.192585 60.526555,46.980996 L 60.526555,45.057656 C 61.042825,45.353882 61.531595,45.57605 61.992855,45.72416 C 62.458355,45.872274 62.896335,45.94633 63.306825,45.946328 C 63.899265,45.94633 64.364765,45.802449 64.703305,45.514687 C 65.046075,45.222697 65.217465,44.829143 65.217465,44.334023 C 65.217465,43.834678 65.046075,43.441124 64.703305,43.153359 C 64.364765,42.865603 63.899265,42.721723 63.306825,42.721719 C 62.955585,42.721723 62.581075,42.768273 62.183285,42.861367 C 61.785505,42.950239 61.358095,43.089887 60.901065,43.280312 L 60.901065,37.948281"
       id="path2844" />
    <path
       id="text2839"
       d="M 59.933201,38.916145 L 66.007901,38.916145 L 66.007901,40.712532 L 61.881931,40.712532 L 61.881931,42.17884 C 62.068121,42.128065 62.254321,42.08998 62.440521,42.064583 C 62.630951,42.034967 62.827721,42.020155 63.030851,42.020149 C 64.186121,42.020155 65.085371,42.310031 65.728611,42.889778 C 66.371831,43.465304 66.693441,44.269339 66.693451,45.301887 C 66.693441,46.325978 66.342211,47.127898 65.639741,47.707649 C 64.941491,48.287402 63.970301,48.577278 62.726171,48.577278 C 62.188731,48.577278 61.655531,48.524381 61.126561,48.418587 C 60.601821,48.317024 60.079191,48.160449 59.558691,47.94886 L 59.558691,46.02552 C 60.074961,46.321746 60.563731,46.543914 61.024991,46.692024 C 61.490491,46.840138 61.928471,46.914194 62.338961,46.914192 C 62.931401,46.914194 63.396901,46.770313 63.735441,46.482551 C 64.078211,46.190561 64.249601,45.797007 64.249601,45.301887 C 64.249601,44.802542 64.078211,44.408988 63.735441,44.121223 C 63.396901,43.833467 62.931401,43.689587 62.338961,43.689583 C 61.987721,43.689587 61.613211,43.736137 61.215421,43.829231 C 60.817641,43.918103 60.390231,44.057751 59.933201,44.248176 L 59.933201,38.916145"
       style="font-size:13px;font-style:normal;font-weight:bold;fill:#978484;fill-opacity:1;stroke:none;stroke-width:1px;stroke-linecap:butt;stroke-linejoin:miter;stroke-opacity:1;font-family:Bitstream Vera Sans" />
  </g>
</svg>
