<?xml version="1.0" encoding="UTF-8" standalone="no"?>
<!-- Created with Inkscape (http://www.inkscape.org/) -->

<svg
   xmlns:dc="http://purl.org/dc/elements/1.1/"
   xmlns:cc="http://creativecommons.org/ns#"
   xmlns:rdf="http://www.w3.org/1999/02/22-rdf-syntax-ns#"
   xmlns:svg="http://www.w3.org/2000/svg"
   xmlns="http://www.w3.org/2000/svg"
   xmlns:xlink="http://www.w3.org/1999/xlink"
   xmlns:sodipodi="http://sodipodi.sourceforge.net/DTD/sodipodi-0.dtd"
   xmlns:inkscape="http://www.inkscape.org/namespaces/inkscape"
   id="svg2"
   sodipodi:version="0.32"
   inkscape:version="0.91 r13725"
   width="256"
   height="256"
   version="1.0"
   sodipodi:docname="tenpins.svg">
  <metadata
     id="metadata7">
    <rdf:RDF>
      <cc:Work
         rdf:about="">
        <dc:format>image/svg+xml</dc:format>
        <dc:type
           rdf:resource="http://purl.org/dc/dcmitype/StillImage" />
        <dc:title></dc:title>
      </cc:Work>
    </rdf:RDF>
  </metadata>
  <defs
     id="defs5">
    <linearGradient
       inkscape:collect="always"
       id="linearGradient4322">
      <stop
         style="stop-color:#ffffff;stop-opacity:1"
         offset="0"
         id="stop4324" />
      <stop
         style="stop-color:#808080;stop-opacity:1"
         offset="1"
         id="stop4326" />
    </linearGradient>
    <linearGradient
       inkscape:collect="always"
       id="linearGradient4314">
      <stop
         style="stop-color:#ffffff;stop-opacity:1;"
         offset="0"
         id="stop4316" />
      <stop
         style="stop-color:#ffffff;stop-opacity:0;"
         offset="1"
         id="stop4318" />
    </linearGradient>
    <linearGradient
       inkscape:collect="always"
       id="linearGradient4187">
      <stop
         style="stop-color:#cccccc;stop-opacity:0"
         offset="0"
         id="stop4189" />
      <stop
         style="stop-color:white;stop-opacity:1"
         offset="1"
         id="stop4191" />
    </linearGradient>
    <linearGradient
       id="linearGradient4181"
       inkscape:collect="always">
      <stop
         id="stop4183"
         offset="0"
         style="stop-color:#ffffff;stop-opacity:1" />
      <stop
         id="stop4185"
         offset="1"
         style="stop-color:#686868;stop-opacity:1" />
    </linearGradient>
    <linearGradient
       id="linearGradient2775"
       inkscape:collect="always">
      <stop
         id="stop2777"
         offset="0"
         style="stop-color:white;stop-opacity:0" />
      <stop
         id="stop2779"
         offset="1"
         style="stop-color:white;stop-opacity:1" />
    </linearGradient>
    <linearGradient
       inkscape:collect="always"
       id="linearGradient2761">
      <stop
         style="stop-color:#f2e2e2;stop-opacity:1"
         offset="0"
         id="stop2763" />
      <stop
         style="stop-color:#921a1a;stop-opacity:1"
         offset="1"
         id="stop2765" />
    </linearGradient>
    <linearGradient
       inkscape:collect="always"
       id="linearGradient2760">
      <stop
         style="stop-color:#0e1638;stop-opacity:1"
         offset="0"
         id="stop2762" />
      <stop
         style="stop-color:#c0c2c8;stop-opacity:0"
         offset="1"
         id="stop2764" />
    </linearGradient>
    <radialGradient
       inkscape:collect="always"
       xlink:href="#linearGradient2760"
       id="radialGradient2760"
       cx="105.41064"
       cy="154.63153"
       fx="105.41064"
       fy="154.63153"
       r="68.125755"
       gradientTransform="matrix(0.721457,-0.232444,1.276204,3.961049,-44.61039,-432.0072)"
       gradientUnits="userSpaceOnUse"
       spreadMethod="reflect" />
    <linearGradient
       inkscape:collect="always"
       xlink:href="#linearGradient2761"
       id="linearGradient2767"
       x1="182.77278"
       y1="195.64218"
       x2="129.12135"
       y2="216.34807"
       gradientUnits="userSpaceOnUse"
       spreadMethod="reflect"
       gradientTransform="matrix(0.93147994,0.32358218,-0.3637927,0.9471843,107.27882,-40.206028)" />
    <linearGradient
       inkscape:collect="always"
       xlink:href="#linearGradient4322"
       id="linearGradient2770"
       x1="118.69584"
       y1="106.44585"
       x2="91.171364"
       y2="118.87788"
       gradientUnits="userSpaceOnUse"
       spreadMethod="reflect"
       gradientTransform="matrix(0.93147994,0.32358218,-0.3637927,0.9471843,115.1519,-30.591785)" />
    <linearGradient
       inkscape:collect="always"
       xlink:href="#linearGradient2775"
       id="linearGradient2785"
       x1="78.231209"
       y1="27.502785"
       x2="82.457809"
       y2="5.7258487"
       gradientUnits="userSpaceOnUse"
       gradientTransform="matrix(0.93147994,0.32358218,-0.3637927,0.9471843,115.1519,-30.591785)" />
    <linearGradient
       inkscape:collect="always"
       xlink:href="#linearGradient4187"
       id="linearGradient2789"
       gradientUnits="userSpaceOnUse"
       x1="85.490189"
       y1="48.311859"
       x2="96.428558"
       y2="10.51282"
       gradientTransform="matrix(0.93147994,0.32358218,-0.3637927,0.9471843,115.1519,-30.591785)" />
    <filter
       inkscape:collect="always"
       style="color-interpolation-filters:sRGB"
       id="filter4214"
       x="-0.08226448"
       width="1.164529"
       y="-0.023041665"
       height="1.0460833">
      <feGaussianBlur
         inkscape:collect="always"
         stdDeviation="1.3443094"
         id="feGaussianBlur4216" />
    </filter>
    <filter
       inkscape:collect="always"
       style="color-interpolation-filters:sRGB"
       id="filter4256"
       x="-0.16846172"
       width="1.3369234"
       y="-0.027987216"
       height="1.0559744">
      <feGaussianBlur
         inkscape:collect="always"
         stdDeviation="2.1639707"
         id="feGaussianBlur4258" />
    </filter>
    <linearGradient
       inkscape:collect="always"
       xlink:href="#linearGradient4181"
       id="linearGradient4282"
       gradientUnits="userSpaceOnUse"
       gradientTransform="matrix(0.93147994,0.32358218,-0.3637927,0.9471843,115.1519,-30.591785)"
       spreadMethod="reflect"
       x1="118.69584"
       y1="106.44585"
       x2="91.171364"
       y2="118.87788" />
    <linearGradient
       inkscape:collect="always"
       xlink:href="#linearGradient2761"
       id="linearGradient4284"
       gradientUnits="userSpaceOnUse"
       gradientTransform="matrix(0.93147994,0.32358218,-0.3637927,0.9471843,107.27882,-40.206028)"
       spreadMethod="reflect"
       x1="182.77278"
       y1="195.64218"
       x2="129.12135"
       y2="216.34807" />
    <linearGradient
       inkscape:collect="always"
       xlink:href="#linearGradient2775"
       id="linearGradient4286"
       gradientUnits="userSpaceOnUse"
       gradientTransform="matrix(0.93147994,0.32358218,-0.3637927,0.9471843,115.1519,-30.591785)"
       x1="78.231209"
       y1="27.502785"
       x2="82.457809"
       y2="5.7258487" />
    <linearGradient
       inkscape:collect="always"
       xlink:href="#linearGradient4187"
       id="linearGradient4288"
       gradientUnits="userSpaceOnUse"
       gradientTransform="matrix(0.93147994,0.32358218,-0.3637927,0.9471843,115.1519,-30.591785)"
       x1="85.490189"
       y1="48.311859"
       x2="96.428558"
       y2="10.51282" />
    <linearGradient
       inkscape:collect="always"
       xlink:href="#linearGradient4181"
       id="linearGradient4304"
       gradientUnits="userSpaceOnUse"
       gradientTransform="matrix(0.93147994,0.32358218,-0.3637927,0.9471843,115.1519,-30.591785)"
       spreadMethod="reflect"
       x1="118.69584"
       y1="106.44585"
       x2="91.171364"
       y2="118.87788" />
    <linearGradient
       inkscape:collect="always"
       xlink:href="#linearGradient2761"
       id="linearGradient4306"
       gradientUnits="userSpaceOnUse"
       gradientTransform="matrix(0.93147994,0.32358218,-0.3637927,0.9471843,107.27882,-40.206028)"
       spreadMethod="reflect"
       x1="182.77278"
       y1="195.64218"
       x2="129.12135"
       y2="216.34807" />
    <linearGradient
       inkscape:collect="always"
       xlink:href="#linearGradient2775"
       id="linearGradient4308"
       gradientUnits="userSpaceOnUse"
       gradientTransform="matrix(0.93147994,0.32358218,-0.3637927,0.9471843,115.1519,-30.591785)"
       x1="78.231209"
       y1="27.502785"
       x2="82.457809"
       y2="5.7258487" />
    <linearGradient
       inkscape:collect="always"
       xlink:href="#linearGradient4187"
       id="linearGradient4310"
       gradientUnits="userSpaceOnUse"
       gradientTransform="matrix(0.93147994,0.32358218,-0.3637927,0.9471843,115.1519,-30.591785)"
       x1="85.490189"
       y1="48.311859"
       x2="96.428558"
       y2="10.51282" />
    <radialGradient
       inkscape:collect="always"
       xlink:href="#linearGradient4314"
       id="radialGradient4320"
       cx="-60.959118"
       cy="66.050827"
       fx="-60.959118"
       fy="66.050827"
       r="27.580111"
       gradientTransform="matrix(1,0,0,0.55897432,157.93129,-111.02293)"
       gradientUnits="userSpaceOnUse" />
  </defs>
  <sodipodi:namedview
     inkscape:window-height="1056"
     inkscape:window-width="1920"
     inkscape:pageshadow="2"
     inkscape:pageopacity="0"
     guidetolerance="10.0"
     gridtolerance="10.0"
     objecttolerance="10.0"
     borderopacity="1.0"
     bordercolor="#666666"
     pagecolor="#ffffff"
     id="base"
     inkscape:zoom="2.68"
     inkscape:cx="128"
     inkscape:cy="124.49058"
     inkscape:window-x="0"
     inkscape:window-y="0"
     inkscape:current-layer="svg2"
     width="256px"
     height="256px"
     showgrid="false"
     inkscape:window-maximized="1" />
  <g
     transform="matrix(0.75611088,0,0,0.75611088,-74.301853,34.052398)"
     id="g4268">
    <path
       inkscape:connector-curvature="0"
       sodipodi:nodetypes="sccssssccss"
       id="path4270"
       d="m 189.44809,8.8552731 c 12.58973,16.0103489 22.70185,33.9873199 8.47279,56.9934569 -4.33027,12.809961 -5.84287,25.040993 6.79638,34.36433 43.38176,36.52805 20.76787,87.28501 15.18762,133.53704 -0.79514,6.59053 -3.09494,11.27671 -10.71198,15.00482 -10.45297,5.11615 -35.36719,5.02622 -41.33208,-0.30963 -8.57815,-7.67352 -8.55536,-7.41804 -9.48588,-12.60063 -7.57664,-42.19855 -39.05426,-75.55531 4.69219,-135.16534 5.85881,-11.271709 8.71009,-23.238786 -1.60152,-38.249187 -12.5123,-19.135646 -4.11683,-36.954561 7.03691,-53.0279902 6.07964,-8.76124209 15.15568,-7.9098598 20.94557,-0.5468697 z"
       style="opacity:1;fill:url(#linearGradient4282);fill-opacity:1;fill-rule:evenodd;stroke:#000000;stroke-width:0;stroke-linecap:butt;stroke-linejoin:miter;stroke-miterlimit:4;stroke-dasharray:none;stroke-opacity:1" />
    <path
       inkscape:connector-curvature="0"
       sodipodi:nodetypes="ccccc"
       id="path4272"
       d="m 229.75199,159.62108 c -1.88958,13.82883 -0.50477,1.13695 -2.76081,24.32115 -6.1523,13.86709 -77.53135,15.74823 -82.17966,3.79179 -2.60023,-9.91072 -0.96882,-3.85389 -4.29457,-24.95875 24.6209,14.45257 68.03837,10.11726 89.23504,-3.15419 z"
       style="fill:url(#linearGradient4284);fill-opacity:1;fill-rule:evenodd;stroke:#000000;stroke-width:0;stroke-linecap:butt;stroke-linejoin:miter;stroke-miterlimit:4;stroke-dasharray:none;stroke-opacity:1" />
    <path
       inkscape:connector-curvature="0"
       style="fill:url(#linearGradient4286);fill-opacity:1;fill-rule:evenodd;stroke:#000000;stroke-width:0;stroke-linecap:butt;stroke-linejoin:miter;stroke-miterlimit:4;stroke-dasharray:none;stroke-opacity:1"
       d="m 189.44809,8.8552731 c 11.15827,17.0389389 22.70185,33.9873199 8.47279,56.9934569 -4.33027,12.809961 -5.84287,25.040993 6.79638,34.36433 -30.42762,-1.984928 -34.5804,-30.958971 -43.25165,-37.782927 -12.5123,-19.135646 -2.7405,-36.082094 7.03691,-53.0279902 7.346,-7.7303032 13.87462,-6.6900093 20.94557,-0.5468697 z"
       id="path4274"
       sodipodi:nodetypes="cccccc" />
    <path
       inkscape:connector-curvature="0"
       sodipodi:nodetypes="cccccc"
       id="path4276"
       d="m 189.44809,8.8552731 c 11.15827,17.0389389 22.70185,33.9873199 8.47279,56.9934569 -4.33027,12.809961 -5.84287,25.040993 6.79638,34.36433 -30.42762,-1.984928 -34.5804,-30.958971 -43.25165,-37.782927 -12.5123,-19.135646 -2.7405,-36.082094 7.03691,-53.0279902 7.346,-7.7303032 13.87462,-6.6900093 20.94557,-0.5468697 z"
       style="fill:url(#linearGradient4288);fill-opacity:1;fill-rule:evenodd;stroke:#000000;stroke-width:0;stroke-linecap:butt;stroke-linejoin:miter;stroke-miterlimit:4;stroke-dasharray:none;stroke-opacity:1" />
    <path
       style="fill:#e6e6e6;fill-opacity:0.369697;fill-rule:evenodd;stroke:none;stroke-width:1px;stroke-linecap:butt;stroke-linejoin:miter;stroke-opacity:1;filter:url(#filter4214)"
       d="m 195.18232,98.156906 c 12.29708,16.465014 26.73185,35.749554 23.47845,61.100554 -0.41506,28.90725 -3.25277,55.23932 -13.29502,78.92155 l -11.03205,-1.41437 c 9.08266,-22.2035 19.92773,-42.54092 16.68951,-77.79005 -2.49297,-18.08598 -8.46445,-36.42963 -31.11603,-56.00884 4.76945,-0.851 8.44593,0.84826 15.27514,-4.808844 z"
       id="path4278"
       inkscape:connector-curvature="0"
       sodipodi:nodetypes="ccccccc" />
    <path
       sodipodi:nodetypes="scccccsss"
       inkscape:connector-curvature="0"
       id="path4280"
       d="m 205.08287,110.88619 c 13.41164,23.91991 15.7662,26.736 16.40663,50.06851 -0.41506,28.90725 -6.0815,53.54208 -16.12375,77.22431 l -7.92045,-1.41437 c 9.08266,-22.2035 16.81613,-42.54092 13.57791,-77.79005 -1.58722,-11.13873 -2.37065,-25.42828 -16.68951,-46.67404 -9.08496,-18.572605 0.9875,-48.428182 5.50653,-53.576162 10.09688,-11.502159 15.53628,-4.393632 5.66688,1.981138 -6.27156,4.050883 -11.51945,30.39215 -0.42424,50.180664 z"
       style="fill:#d2d2d2;fill-opacity:0.36363639;fill-rule:evenodd;stroke:none;stroke-width:1px;stroke-linecap:butt;stroke-linejoin:miter;stroke-opacity:1;filter:url(#filter4256)"
       transform="matrix(-1,0,0,1,367.91748,-2.8287293)" />
  </g>
  <g
     id="g4260"
     transform="translate(-66.655661,0.48757319)">
    <path
       style="opacity:1;fill:url(#linearGradient2770);fill-opacity:1;fill-rule:evenodd;stroke:#000000;stroke-width:0;stroke-linecap:butt;stroke-linejoin:miter;stroke-miterlimit:4;stroke-dasharray:none;stroke-opacity:1"
       d="m 189.44809,8.8552731 c 12.58973,16.0103489 22.70185,33.9873199 8.47279,56.9934569 -4.33027,12.809961 -5.84287,25.040993 6.79638,34.36433 43.38176,36.52805 20.76787,87.28501 15.18762,133.53704 -0.79514,6.59053 -3.09494,11.27671 -10.71198,15.00482 -10.45297,5.11615 -35.36719,5.02622 -41.33208,-0.30963 -8.57815,-7.67352 -8.55536,-7.41804 -9.48588,-12.60063 -7.57664,-42.19855 -39.05426,-75.55531 4.69219,-135.16534 5.85881,-11.271709 8.71009,-23.238786 -1.60152,-38.249187 -12.5123,-19.135646 -4.11683,-36.954561 7.03691,-53.0279902 6.07964,-8.76124209 15.15568,-7.9098598 20.94557,-0.5468697 z"
       id="path2768"
       sodipodi:nodetypes="sccssssccss"
       inkscape:connector-curvature="0" />
    <path
       style="fill:url(#linearGradient2767);fill-opacity:1;fill-rule:evenodd;stroke:#000000;stroke-width:0;stroke-linecap:butt;stroke-linejoin:miter;stroke-miterlimit:4;stroke-dasharray:none;stroke-opacity:1"
       d="m 229.75199,159.62108 c -1.88958,13.82883 -0.50477,1.13695 -2.76081,24.32115 -6.1523,13.86709 -77.53135,15.74823 -82.17966,3.79179 -2.60023,-9.91072 -0.96882,-3.85389 -4.29457,-24.95875 24.6209,14.45257 68.03837,10.11726 89.23504,-3.15419 z"
       id="path2772"
       sodipodi:nodetypes="ccccc"
       inkscape:connector-curvature="0" />
    <path
       sodipodi:nodetypes="cccccc"
       id="path2773"
       d="m 189.44809,8.8552731 c 11.15827,17.0389389 22.70185,33.9873199 8.47279,56.9934569 -4.33027,12.809961 -5.84287,25.040993 6.79638,34.36433 -30.42762,-1.984928 -34.5804,-30.958971 -43.25165,-37.782927 -12.5123,-19.135646 -2.7405,-36.082094 7.03691,-53.0279902 7.346,-7.7303032 13.87462,-6.6900093 20.94557,-0.5468697 z"
       style="fill:url(#linearGradient2785);fill-opacity:1;fill-rule:evenodd;stroke:#000000;stroke-width:0;stroke-linecap:butt;stroke-linejoin:miter;stroke-miterlimit:4;stroke-dasharray:none;stroke-opacity:1"
       inkscape:connector-curvature="0" />
    <path
       style="fill:url(#linearGradient2789);fill-opacity:1;fill-rule:evenodd;stroke:#000000;stroke-width:0;stroke-linecap:butt;stroke-linejoin:miter;stroke-miterlimit:4;stroke-dasharray:none;stroke-opacity:1"
       d="m 189.44809,8.8552731 c 11.15827,17.0389389 22.70185,33.9873199 8.47279,56.9934569 -4.33027,12.809961 -5.84287,25.040993 6.79638,34.36433 -30.42762,-1.984928 -34.5804,-30.958971 -43.25165,-37.782927 -12.5123,-19.135646 -2.7405,-36.082094 7.03691,-53.0279902 7.346,-7.7303032 13.87462,-6.6900093 20.94557,-0.5468697 z"
       id="path2787"
       sodipodi:nodetypes="cccccc"
       inkscape:connector-curvature="0" />
    <path
       sodipodi:nodetypes="ccccccc"
       inkscape:connector-curvature="0"
       id="path4204"
       d="m 195.18232,98.156906 c 12.29708,16.465014 26.73185,35.749554 23.47845,61.100554 -0.41506,28.90725 -3.25277,55.23932 -13.29502,78.92155 l -11.03205,-1.41437 c 9.08266,-22.2035 19.92773,-42.54092 16.68951,-77.79005 -2.49297,-18.08598 -8.46445,-36.42963 -31.11603,-56.00884 4.76945,-0.851 8.44593,0.84826 15.27514,-4.808844 z"
       style="fill:#e6e6e6;fill-opacity:0.369697;fill-rule:evenodd;stroke:none;stroke-width:1px;stroke-linecap:butt;stroke-linejoin:miter;stroke-opacity:1;filter:url(#filter4214)" />
    <path
       transform="matrix(-1,0,0,1,367.91748,-2.8287293)"
       style="fill:#d2d2d2;fill-opacity:0.36363639;fill-rule:evenodd;stroke:none;stroke-width:1px;stroke-linecap:butt;stroke-linejoin:miter;stroke-opacity:1;filter:url(#filter4256)"
       d="m 205.08287,110.88619 c 13.41164,23.91991 15.7662,26.736 16.40663,50.06851 -0.41506,28.90725 -6.0815,53.54208 -16.12375,77.22431 l -7.92045,-1.41437 c 9.08266,-22.2035 16.81613,-42.54092 13.57791,-77.79005 -1.58722,-11.13873 -2.37065,-25.42828 -16.68951,-46.67404 -9.08496,-18.572605 0.9875,-48.428182 5.50653,-53.576162 10.09688,-11.502159 15.53628,-4.393632 5.66688,1.981138 -6.27156,4.050883 -11.51945,30.39215 -0.42424,50.180664 z"
       id="path4218"
       inkscape:connector-curvature="0"
       sodipodi:nodetypes="scccccsss" />
  </g>
  <g
     id="g4290"
     transform="matrix(0.61849819,0,0,0.61849819,84.748297,52.395867)">
    <path
       style="opacity:1;fill:url(#linearGradient4304);fill-opacity:1;fill-rule:evenodd;stroke:#000000;stroke-width:0;stroke-linecap:butt;stroke-linejoin:miter;stroke-miterlimit:4;stroke-dasharray:none;stroke-opacity:1"
       d="m 189.44809,8.8552731 c 12.58973,16.0103489 22.70185,33.9873199 8.47279,56.9934569 -4.33027,12.809961 -5.84287,25.040993 6.79638,34.36433 43.38176,36.52805 20.76787,87.28501 15.18762,133.53704 -0.79514,6.59053 -3.09494,11.27671 -10.71198,15.00482 -10.45297,5.11615 -35.36719,5.02622 -41.33208,-0.30963 -8.57815,-7.67352 -8.55536,-7.41804 -9.48588,-12.60063 -7.57664,-42.19855 -39.05426,-75.55531 4.69219,-135.16534 5.85881,-11.271709 8.71009,-23.238786 -1.60152,-38.249187 -12.5123,-19.135646 -4.11683,-36.954561 7.03691,-53.0279902 6.07964,-8.76124209 15.15568,-7.9098598 20.94557,-0.5468697 z"
       id="path4292"
       sodipodi:nodetypes="sccssssccss"
       inkscape:connector-curvature="0" />
    <path
       style="fill:url(#linearGradient4306);fill-opacity:1;fill-rule:evenodd;stroke:#000000;stroke-width:0;stroke-linecap:butt;stroke-linejoin:miter;stroke-miterlimit:4;stroke-dasharray:none;stroke-opacity:1"
       d="m 229.75199,159.62108 c -1.88958,13.82883 -0.50477,1.13695 -2.76081,24.32115 -6.1523,13.86709 -77.53135,15.74823 -82.17966,3.79179 -2.60023,-9.91072 -0.96882,-3.85389 -4.29457,-24.95875 24.6209,14.45257 68.03837,10.11726 89.23504,-3.15419 z"
       id="path4294"
       sodipodi:nodetypes="ccccc"
       inkscape:connector-curvature="0" />
    <path
       sodipodi:nodetypes="cccccc"
       id="path4296"
       d="m 189.44809,8.8552731 c 11.15827,17.0389389 22.70185,33.9873199 8.47279,56.9934569 -4.33027,12.809961 -5.84287,25.040993 6.79638,34.36433 -30.42762,-1.984928 -34.5804,-30.958971 -43.25165,-37.782927 -12.5123,-19.135646 -2.7405,-36.082094 7.03691,-53.0279902 7.346,-7.7303032 13.87462,-6.6900093 20.94557,-0.5468697 z"
       style="fill:url(#linearGradient4308);fill-opacity:1;fill-rule:evenodd;stroke:#000000;stroke-width:0;stroke-linecap:butt;stroke-linejoin:miter;stroke-miterlimit:4;stroke-dasharray:none;stroke-opacity:1"
       inkscape:connector-curvature="0" />
    <path
       style="fill:url(#linearGradient4310);fill-opacity:1;fill-rule:evenodd;stroke:#000000;stroke-width:0;stroke-linecap:butt;stroke-linejoin:miter;stroke-miterlimit:4;stroke-dasharray:none;stroke-opacity:1"
       d="m 189.44809,8.8552731 c 11.15827,17.0389389 22.70185,33.9873199 8.47279,56.9934569 -4.33027,12.809961 -5.84287,25.040993 6.79638,34.36433 -30.42762,-1.984928 -34.5804,-30.958971 -43.25165,-37.782927 -12.5123,-19.135646 -2.7405,-36.082094 7.03691,-53.0279902 7.346,-7.7303032 13.87462,-6.6900093 20.94557,-0.5468697 z"
       id="path4298"
       sodipodi:nodetypes="cccccc"
       inkscape:connector-curvature="0" />
    <path
       sodipodi:nodetypes="ccccccc"
       inkscape:connector-curvature="0"
       id="path4300"
       d="m 195.18232,98.156906 c 12.29708,16.465014 26.73185,35.749554 23.47845,61.100554 -0.41506,28.90725 -3.25277,55.23932 -13.29502,78.92155 l -11.03205,-1.41437 c 9.08266,-22.2035 19.92773,-42.54092 16.68951,-77.79005 -2.49297,-18.08598 -8.46445,-36.42963 -31.11603,-56.00884 4.76945,-0.851 8.44593,0.84826 15.27514,-4.808844 z"
       style="fill:#e6e6e6;fill-opacity:0.369697;fill-rule:evenodd;stroke:none;stroke-width:1px;stroke-linecap:butt;stroke-linejoin:miter;stroke-opacity:1;filter:url(#filter4214)" />
    <path
       transform="matrix(-1,0,0,1,367.91748,-2.8287293)"
       style="fill:#d2d2d2;fill-opacity:0.36363639;fill-rule:evenodd;stroke:none;stroke-width:1px;stroke-linecap:butt;stroke-linejoin:miter;stroke-opacity:1;filter:url(#filter4256)"
       d="m 205.08287,110.88619 c 13.41164,23.91991 15.7662,26.736 16.40663,50.06851 -0.41506,28.90725 -6.0815,53.54208 -16.12375,77.22431 l -7.92045,-1.41437 c 9.08266,-22.2035 16.81613,-42.54092 13.57791,-77.79005 -1.58722,-11.13873 -2.37065,-25.42828 -16.68951,-46.67404 -9.08496,-18.572605 0.9875,-48.428182 5.50653,-53.576162 10.09688,-11.502159 15.53628,-4.393632 5.66688,1.981138 -6.27156,4.050883 -11.51945,30.39215 -0.42424,50.180664 z"
       id="path4302"
       inkscape:connector-curvature="0"
       sodipodi:nodetypes="scccccsss" />
  </g>
  <ellipse
     style="opacity:1;fill:url(#radialGradient4320);fill-opacity:1;fill-rule:nonzero;stroke:none;stroke-width:0.89999998;stroke-linecap:round;stroke-linejoin:round;stroke-miterlimit:4;stroke-dasharray:none;stroke-dashoffset:0;stroke-opacity:0.2848485"
     id="path4312"
     cx="96.972153"
     cy="-74.102226"
     rx="27.580111"
     ry="15.416574"
     transform="matrix(0.6111847,0.791488,-0.791488,0.6111847,0,0)" />
  <g
     font-size="7.5"
     font-variant="normal"
     letter-spacing="0"
     font-stretch="normal"
     font-weight="bold"
     line-height="125%"
     word-spacing="0"
     font-style="normal"
     transform="translate(65.635416,-43.939815)"
     id="text4330"
     style="font-style:normal;font-variant:normal;font-weight:bold;font-stretch:normal;font-size:7.5px;line-height:125%;font-family:STIX;letter-spacing:0;word-spacing:0;fill:#000000;fill-opacity:1;stroke:none;stroke-width:1;stroke-linecap:butt;stroke-linejoin:miter;stroke-opacity:1">
    <path
       inkscape:connector-curvature="0"
       id="path4335"
       d="m -56.13327,39.467617 0,-0.1875 c -0.3075,0 -0.4425,-0.165 -0.825,-1.0725 l -1.665,-3.915 -0.21,0 -1.6575,4.0875 c -0.285,0.705 -0.3975,0.84 -0.7425,0.9 l 0,0.1875 1.515,0 0,-0.1875 c -0.4425,-0.03 -0.6075,-0.1125 -0.6075,-0.3075 0,-0.18 0.1425,-0.495 0.2325,-0.7275 l 0.0975,-0.255 1.6875,0 c 0.255,0.5925 0.345,0.855 0.345,1.02 0,0.165 -0.0975,0.225 -0.345,0.2475 l -0.24,0.0225 0,0.1875 2.415,0 z m -2.2875,-1.77 -1.4625,0 0.705,-1.8225 0.7575,1.8225 z" />
    <path
       inkscape:connector-curvature="0"
       id="path4337"
       d="m -55.760848,34.397617 0,0.1875 c 0.525,0.045 0.63,0.15 0.63,0.735 l 0,3.2025 c 0,0.3825 -0.045,0.5925 -0.2925,0.69 -0.0825,0.0375 -0.195,0.0525 -0.3375,0.0675 l 0,0.1875 2.4975,0 0,-0.1875 c -0.5925,-0.075 -0.6525,-0.1425 -0.6525,-0.645 l 0,-1.44 c 0.99,-0.0075 1.245,-0.03 1.5675,-0.15 0.6225,-0.2325 0.9675,-0.69 0.9675,-1.29 0,-0.915 -0.765,-1.3575 -2.0175,-1.3575 l -2.3625,0 z m 1.845,0.525 c 0,-0.1725 0.1275,-0.2625 0.375,-0.2625 0.6225,0 0.87,0.345 0.87,1.1775 0,0.8325 -0.3075,1.0875 -1.245,1.095 l 0,-2.01 z" />
  </g>
</svg>
