<?xml version="1.0" encoding="UTF-8" standalone="no"?>
<svg
   xmlns:dc="http://purl.org/dc/elements/1.1/"
   xmlns:cc="http://creativecommons.org/ns#"
   xmlns:rdf="http://www.w3.org/1999/02/22-rdf-syntax-ns#"
   xmlns:svg="http://www.w3.org/2000/svg"
   xmlns="http://www.w3.org/2000/svg"
   xmlns:xlink="http://www.w3.org/1999/xlink"
   xmlns:sodipodi="http://sodipodi.sourceforge.net/DTD/sodipodi-0.dtd"
   xmlns:inkscape="http://www.inkscape.org/namespaces/inkscape"
   width="255"
   height="255"
   viewBox="0 0 67.468749 67.468749"
   version="1.1"
   id="svg8"
   inkscape:version="1.0 (4035a4f, 2020-05-01)"
   sodipodi:docname="terminus.svg">
  <defs
     id="defs2">
    <linearGradient
       inkscape:collect="always"
       id="linearGradient906">
      <stop
         style="stop-color:#ffffff;stop-opacity:1"
         offset="0"
         id="stop902" />
      <stop
         style="stop-color:#94936f;stop-opacity:0.99739748"
         offset="1"
         id="stop904" />
    </linearGradient>
    <linearGradient
       inkscape:collect="always"
       id="linearGradient1970">
      <stop
         style="stop-color:#b1ac88;stop-opacity:1;"
         offset="0"
         id="stop1966" />
      <stop
         id="stop1974"
         offset="0.79880929"
         style="stop-color:#a39e7d;stop-opacity:1" />
      <stop
         style="stop-color:#5a563b;stop-opacity:1"
         offset="1"
         id="stop1968" />
    </linearGradient>
    <linearGradient
       inkscape:collect="always"
       id="linearGradient1954">
      <stop
         style="stop-color:#b4ae86;stop-opacity:1"
         offset="0"
         id="stop1950" />
      <stop
         id="stop1958"
         offset="0.03079334"
         style="stop-color:#686448;stop-opacity:1" />
      <stop
         style="stop-color:#4a4525;stop-opacity:1;"
         offset="0.56651962"
         id="stop1960" />
      <stop
         id="stop1964"
         offset="0.58636492"
         style="stop-color:#75725b;stop-opacity:1" />
      <stop
         id="stop1962"
         offset="0.60551172"
         style="stop-color:#282612;stop-opacity:1" />
      <stop
         style="stop-color:#393513;stop-opacity:1"
         offset="1"
         id="stop1952" />
    </linearGradient>
    <pattern
       inkscape:collect="always"
       xlink:href="#pattern1034"
       id="pattern1936"
       patternTransform="matrix(0.26458333,0,0,0.26458333,-11.328908,231.87979)" />
    <pattern
       inkscape:collect="always"
       xlink:href="#pattern1034"
       id="pattern1761"
       patternTransform="matrix(0.16711816,0.04937944,-0.08881756,0.30059128,7.1846194,232.99265)" />
    <linearGradient
       inkscape:collect="always"
       id="linearGradient1009">
      <stop
         id="stop1005"
         stop-color="#9c8667"
         stop-opacity="0.396" />
      <stop
         offset="1"
         id="stop1007"
         stop-color="#9c8667"
         stop-opacity="0" />
    </linearGradient>
    <linearGradient
       inkscape:collect="always"
       id="linearGradient991">
      <stop
         id="stop987"
         stop-color="#dbcead"
         stop-opacity="1" />
      <stop
         offset="1"
         id="stop989"
         stop-color="#dbcead"
         stop-opacity="0" />
    </linearGradient>
    <linearGradient
       inkscape:collect="always"
       id="linearGradient878">
      <stop
         id="stop874"
         stop-color="#fffdfd"
         stop-opacity="1" />
      <stop
         offset="1"
         id="stop876"
         stop-color="#fffdfd"
         stop-opacity="0" />
    </linearGradient>
    <linearGradient
       id="linearGradient867"
       inkscape:collect="always">
      <stop
         id="stop857"
         stop-color="#798057"
         stop-opacity="1"
         style="stop-color:#646b41;stop-opacity:1" />
      <stop
         offset="0.141"
         id="stop859"
         stop-color="#d2d5c2"
         stop-opacity="1" />
      <stop
         offset="0.65401137"
         id="stop861"
         stop-color="#bec19e"
         stop-opacity="1" />
      <stop
         offset="0.781"
         id="stop863"
         stop-color="#f6f6f6"
         stop-opacity="1" />
      <stop
         id="stop869"
         offset="0.932"
         stop-color="#c6c9b5"
         stop-opacity="1" />
      <stop
         id="stop865"
         offset="1"
         stop-color="#d8dbc0"
         stop-opacity="1" />
    </linearGradient>
    <linearGradient
       inkscape:collect="always"
       id="linearGradient948">
      <stop
         id="stop944"
         stop-color="#e8e8e8"
         stop-opacity="1" />
      <stop
         offset="1"
         id="stop946"
         stop-color="#000000"
         stop-opacity="1" />
    </linearGradient>
    <linearGradient
       inkscape:collect="always"
       id="linearGradient938">
      <stop
         id="stop934"
         stop-color="#686868"
         stop-opacity="1" />
      <stop
         offset="1"
         id="stop936"
         stop-color="#000000"
         stop-opacity="1" />
    </linearGradient>
    <linearGradient
       inkscape:collect="always"
       xlink:href="#linearGradient867"
       id="linearGradient904"
       x1="64.5"
       y1="237.32"
       x2="53.615139"
       y2="295.45779"
       gradientUnits="userSpaceOnUse"
       gradientTransform="matrix(0.72997458,0.00432377,-0.00462915,0.78153106,-9.5429978,52.356313)" />
    <radialGradient
       inkscape:collect="always"
       xlink:href="#linearGradient938"
       id="radialGradient940"
       cx="72.45"
       cy="246.64"
       fx="72.45"
       fy="246.64"
       r="19.529"
       gradientTransform="matrix(0.91442289,0,0,0.66154622,-22.459753,82.531559)"
       gradientUnits="userSpaceOnUse"
       spreadMethod="reflect" />
    <linearGradient
       inkscape:collect="always"
       xlink:href="#linearGradient948"
       id="linearGradient950"
       x1="63.06"
       y1="271.07"
       x2="63.22"
       y2="242.36"
       gradientUnits="userSpaceOnUse"
       gradientTransform="matrix(0.9144228,0,0,0.9144228,-22.459747,17.565753)" />
    <filter
       inkscape:collect="always"
       id="filter885"
       x="-0.007"
       width="1.014"
       y="-0.041"
       height="1.082"
       color-interpolation-filters="sRGB">
      <feGaussianBlur
         inkscape:collect="always"
         stdDeviation="0.10783"
         id="feGaussianBlur887" />
    </filter>
    <linearGradient
       inkscape:collect="always"
       xlink:href="#linearGradient878"
       id="linearGradient880"
       x1="33.375"
       y1="239.17"
       x2="33.375"
       y2="243.05"
       gradientUnits="userSpaceOnUse"
       gradientTransform="matrix(0.81362102,0,0,1.1737412,6.5320112,-43.058219)" />
    <linearGradient
       inkscape:collect="always"
       xlink:href="#linearGradient991"
       id="linearGradient1030"
       gradientUnits="userSpaceOnUse"
       x1="-12.1"
       y1="255.26"
       x2="-12.1"
       y2="259.09" />
    <linearGradient
       inkscape:collect="always"
       xlink:href="#linearGradient1009"
       id="linearGradient1032"
       gradientUnits="userSpaceOnUse"
       x1="-18.597"
       y1="261.1"
       x2="-12.445"
       y2="261.2" />
    <pattern
       patternUnits="userSpaceOnUse"
       width="15.862"
       height="10.262"
       patternTransform="matrix(0.26458333,0,0,0.26458333,-5.5961105,241.65209)"
       id="pattern1034">
      <g
         id="g1028"
         transform="matrix(1.0596891,0,0,1.0596891,20.834231,-270.03442)">
        <path
           sodipodi:nodetypes="sssccss"
           inkscape:connector-curvature="0"
           id="path1020"
           d="m -16.158805,254.95648 h 8.1176964 c 1.0606598,0 1.7332639,0.8695 1.9145485,1.91455 l 1.3018941,7.50504 c -5.948349,-0.0129 -7.631217,-0.0168 -14.703746,0 l 1.455058,-7.50504 c 0.201879,-1.04127 0.853889,-1.91455 1.914549,-1.91455 z"
           opacity="1"
           stroke-dasharray="none"
           stroke-opacity="1"
           paint-order="normal"
           fill="#392100"
           fill-rule="evenodd"
           stroke="#000000"
           stroke-linejoin="round"
           fill-opacity="1"
           stroke-linecap="round"
           stroke-width="0.265"
           stroke-dashoffset="0"
           stroke-miterlimit="4" />
        <path
           sodipodi:nodetypes="sssssssss"
           inkscape:connector-curvature="0"
           id="path1022"
           d="m -16.604792,255.26282 h 8.8809817 c 0.4741717,0 0.694102,0.41019 0.8559057,0.8559 l 0.4350166,1.19831 c 0.1618037,0.44571 -0.381734,0.8559 -0.8559057,0.8559 h -9.7665513 c -0.474171,0 -1.022782,-0.41207 -0.855905,-0.8559 l 0.450553,-1.19831 c 0.166877,-0.44383 0.381734,-0.8559 0.855905,-0.8559 z"
           opacity="1"
           stroke-dasharray="none"
           stroke-opacity="1"
           paint-order="normal"
           fill="url(#linearGradient1030)"
           fill-rule="evenodd"
           stroke="none"
           stroke-linejoin="round"
           fill-opacity="1"
           stroke-linecap="round"
           stroke-width="0.228"
           stroke-dashoffset="0"
           stroke-miterlimit="4" />
        <path
           sodipodi:nodetypes="ccccccccccccc"
           inkscape:connector-curvature="0"
           id="path1024"
           d="m -17.066406,255.29688 c -0.269236,0.15398 -0.268141,0.10224 -0.569066,0.46117 -0.367539,0.47297 -0.4582,0.8893 -0.62429,1.56046 -2e-4,6.9e-4 1.99e-4,10e-4 0,0.002 -0.09864,0.34433 0.04149,0.66307 0.244141,0.90625 0.203061,0.24368 0.504319,0.4393 0.871094,0.43164 1.234417,-0.0258 10.1836803,-0.24858 10.1836803,-0.24858 0.4757815,0.0192 0.3846149,-0.30004 -0.091268,-0.28356 0,0 -8.7944053,-0.18276 -10.1080403,-0.15536 -0.08997,0.002 -0.230374,-0.0682 -0.328125,-0.18554 -0.09775,-0.11731 -0.115941,-0.25269 -0.109375,-0.27539 0.03249,-0.68835 -0.128672,-0.84264 0.216915,-1.54286 0.07499,-0.15515 0.284398,-0.40486 0.314334,-0.67023 z"
           visibility="visible"
           font-variant-ligatures="normal"
           letter-spacing="0"
           text-align="start"
           font-variant-caps="normal"
           shape-rendering="auto"
           mix-blend-mode="normal"
           isolation="auto"
           color-interpolation-filters="linearRGB"
           stroke-dasharray="none"
           stroke-opacity="1"
           word-spacing="0"
           white-space="normal"
           font-feature-settings="normal"
           overflow="visible"
           font-size="0"
           font-family="sans-serif"
           text-decoration-line="none"
           opacity="1"
           fill="#e8a94f"
           solid-opacity="1"
           stroke-miterlimit="4"
           dominant-baseline="auto"
           image-rendering="auto"
           text-decoration-style="solid"
           fill-opacity="1"
           text-rendering="auto"
           font-variant-alternates="normal"
           solid-color="#000000"
           font-weight="normal"
           text-decoration="none"
           stroke="none"
           clip-rule="nonzero"
           font-style="normal"
           display="inline"
           line-height="normal"
           text-decoration-color="#000000"
           color="#000000"
           enable-background="accumulate"
           fill-rule="nonzero"
           font-variant="normal"
           stroke-linecap="round"
           stroke-linejoin="round"
           text-transform="none"
           font-variant-numeric="normal"
           stroke-width="0.688"
           color-rendering="auto"
           text-orientation="mixed"
           vector-effect="none"
           stroke-dashoffset="0"
           text-anchor="start"
           font-variant-position="normal"
           font-stretch="normal"
           shape-padding="0"
           writing-mode="lr-tb"
           baseline-shift="0"
           text-indent="0"
           direction="ltr"
           color-interpolation="sRGB" />
        <path
           sodipodi:nodetypes="ccccc"
           inkscape:connector-curvature="0"
           id="path1026"
           d="m -18.177481,258.36121 c 0.270004,0.55649 3.754608,0.32108 5.655216,0.24858 l -1.740066,5.6086 -5.095909,-0.0311 z"
           opacity="1"
           stroke-dasharray="none"
           stroke-opacity="1"
           paint-order="normal"
           fill="url(#linearGradient1032)"
           fill-rule="evenodd"
           stroke="none"
           stroke-linejoin="round"
           fill-opacity="1"
           stroke-linecap="round"
           stroke-width="0.688"
           stroke-dashoffset="0"
           stroke-miterlimit="4" />
      </g>
    </pattern>
    <linearGradient
       inkscape:collect="always"
       xlink:href="#linearGradient1954"
       id="linearGradient1956"
       x1="1.7112354"
       y1="268.58629"
       x2="57.742092"
       y2="268.5863"
       gradientUnits="userSpaceOnUse"
       gradientTransform="matrix(1.1610308,0,0,1.1610308,-0.74900936,-34.809083)" />
    <linearGradient
       inkscape:collect="always"
       xlink:href="#linearGradient1970"
       id="linearGradient1972"
       x1="1.345326"
       y1="263.98533"
       x2="66.158098"
       y2="263.98533"
       gradientUnits="userSpaceOnUse" />
    <filter
       height="1.0787613"
       y="-0.039380637"
       width="1.038968"
       x="-0.019484004"
       id="filter903"
       style="color-interpolation-filters:sRGB"
       inkscape:collect="always">
      <feGaussianBlur
         id="feGaussianBlur905"
         stdDeviation="0.52460846"
         inkscape:collect="always" />
    </filter>
    <linearGradient
       inkscape:collect="always"
       xlink:href="#linearGradient906"
       id="linearGradient908"
       x1="34.167091"
       y1="285.76462"
       x2="45.602921"
       y2="272.48517"
       gradientUnits="userSpaceOnUse" />
  </defs>
  <sodipodi:namedview
     id="base"
     pagecolor="#ff0000"
     bordercolor="#666666"
     borderopacity="1.0"
     inkscape:pageopacity="0"
     inkscape:pageshadow="2"
     inkscape:zoom="3.4509804"
     inkscape:cx="127.5"
     inkscape:cy="127.5"
     inkscape:document-units="px"
     inkscape:current-layer="layer1"
     showgrid="false"
     inkscape:snap-to-guides="false"
     inkscape:snap-grids="false"
     inkscape:snap-others="false"
     inkscape:object-nodes="false"
     inkscape:snap-nodes="false"
     inkscape:snap-global="false"
     inkscape:window-width="1920"
     inkscape:window-height="1056"
     inkscape:window-x="0"
     inkscape:window-y="0"
     inkscape:window-maximized="1"
     units="px"
     inkscape:document-rotation="0" />
  <metadata
     id="metadata5">
    <rdf:RDF>
      <cc:Work>
        <dc:format>image/svg+xml</dc:format>
        <dc:type
           rdf:resource="http://purl.org/dc/dcmitype/StillImage" />
        <dc:title />
      </cc:Work>
    </rdf:RDF>
  </metadata>
  <g
     inkscape:label="Layer 1"
     inkscape:groupmode="layer"
     id="layer1"
     transform="translate(0,-229.53126)">
    <path
       sodipodi:nodetypes="ccccccccccccc"
       id="path899"
       d="m 2.1727838,276.96711 c -0.1227874,0.81643 0.0092,1.84481 0.7410444,2.05774 l 36.2830638,12.6584 c 0.892782,0.28527 1.762294,0.12197 2.247149,-0.26104 l 11.33904,-9.90171 c 5.94235,-5.71178 9.857241,-12.18386 13.969452,-18.58194 l -0.231621,1.67892 c -2.30675,7.01679 -5.562182,13.31234 -12.103686,19.16394 l -12.707725,10.79445 c -0.539081,0.26946 -1.078162,0.39066 -1.617243,0.30926 L 3.1346319,281.88937 c -0.4458987,-0.17318 -1.0397732,-0.7414 -0.9810821,-1.5179 z"
       style="fill:#000000;fill-opacity:1;stroke:none;stroke-width:0.307189px;stroke-linecap:butt;stroke-linejoin:miter;stroke-opacity:1;filter:url(#filter903)" />
    <path
       style="fill:url(#linearGradient1972);fill-opacity:1;stroke:#979684;stroke-width:0.30718125;stroke-linecap:butt;stroke-linejoin:miter;stroke-opacity:1;stroke-miterlimit:4;stroke-dasharray:none"
       d="m 49.861567,238.13386 c 6.298512,3.34931 12.397598,7.60822 16.132508,22.65063 -3.787371,6.54146 -7.887299,12.70785 -12.854008,17.8341 l -11.982028,10.70114 c -0.868444,0.68948 -1.672188,0.79778 -2.453478,0.5499 l -37.1876073,-13.12251 0.3217956,-2.04007 37.3555397,12.5308 1.654279,-0.30553 10.290555,-9.48338 1.600454,-4.09005 c 0.831819,-11.54266 0.535892,-23.21063 -2.878012,-35.22503 z"
       id="path1938"
       sodipodi:nodetypes="ccccccccccccc" />
    <path
       d="m 17.419801,241.14232 c 0.392125,-1.25313 1.136657,-1.65461 2.61361,-2.10343 8.297335,-2.52144 18.170682,-3.4139 28.344633,-1.70131 1.517847,0.2555 2.106433,1.22112 2.538813,2.47489 2.820064,8.17734 2.207934,20.56712 2.562304,28.61445 0.06361,1.44475 -0.766028,6.89314 -1.911813,8.55334 -2.594651,3.44972 -5.609767,6.14186 -10.609733,10.14019 -0.497053,0.27002 -0.95914,0.47021 -2.054961,0.0938 -3.933597,-1.35112 -26.131626,-7.97508 -36.6654166,-11.80257 -1.401897,-0.50938 -0.8729754,-1.23104 -0.2969162,-1.51116 3.5178134,-1.85494 5.6148699,-2.8283 8.5817158,-4.45585 2.473466,-1.48221 3.673404,-19.93262 6.897764,-28.30235 z"
       id="path896"
       inkscape:connector-curvature="0"
       sodipodi:nodetypes="cssssccssccc"
       stroke-miterlimit="4"
       stroke-dasharray="none"
       stroke-opacity="1"
       fill="url(#linearGradient904)"
       stroke="#000000"
       stroke-linejoin="miter"
       fill-opacity="1"
       stroke-linecap="butt"
       stroke-width="0.0198244"
       style="fill:url(#linearGradient904);stroke:url(#linearGradient908);stroke-width:0.264583;stroke-miterlimit:4;stroke-dasharray:none;stroke-opacity:1" />
    <g
       id="g972"
       transform="matrix(0.77307157,0.06066833,-0.08558117,1.0027434,28.837738,-0.06172707)">
      <path
         opacity="1"
         fill="url(#radialGradient940)"
         fill-opacity="1"
         fill-rule="evenodd"
         stroke="none"
         stroke-width="0.023"
         stroke-linecap="round"
         stroke-linejoin="round"
         stroke-opacity="0.32"
         stroke-dasharray="none"
         stroke-dashoffset="0"
         paint-order="normal"
         stroke-miterlimit="4"
         sodipodi:nodetypes="sssssssss"
         inkscape:connector-curvature="0"
         id="rect931"
         d="m 19.173414,241.20258 c 9.128543,-2.49144 18.963408,-3.36907 29.300534,-1.52542 1.312933,0.23417 2.292089,1.08315 2.406993,2.41743 0.52327,6.07627 2.041315,14.49952 0.882981,20.57578 -0.250752,1.31538 -1.083921,2.25104 -2.406993,2.41744 -9.734239,1.2243 -20.262621,0.97018 -30.183515,-0.82157 -1.312316,-0.237 -2.153688,-1.10256 -2.406993,-2.41744 -1.170566,-6.07626 -0.903886,-12.15252 0,-18.22879 0.197037,-1.32456 1.120186,-2.06622 2.406993,-2.41743 z"
         style="fill:url(#radialGradient940)" />
      <path
         opacity="1"
         fill="none"
         fill-opacity="1"
         fill-rule="evenodd"
         stroke="url(#linearGradient950)"
         stroke-width="0.46"
         stroke-linecap="round"
         stroke-linejoin="round"
         stroke-opacity="1"
         stroke-dasharray="none"
         stroke-dashoffset="0"
         paint-order="normal"
         stroke-miterlimit="4"
         d="m 19.173414,241.20258 c 9.128543,-2.49144 18.973962,-3.27373 29.311088,-1.43008 1.312933,0.23417 2.292089,1.08315 2.406993,2.41743 0.52327,6.07627 2.051893,14.59507 0.893559,20.67133 -0.250752,1.31538 -1.083921,2.25104 -2.406993,2.41744 -9.734239,1.2243 -20.283753,0.77929 -30.204647,-1.01246 -1.312316,-0.237 -2.153688,-1.10256 -2.406993,-2.41744 -1.170566,-6.07626 -0.903886,-12.15252 0,-18.22879 0.197037,-1.32456 1.120186,-2.06622 2.406993,-2.41743 z"
         id="path942"
         inkscape:connector-curvature="0"
         sodipodi:nodetypes="sssssssss"
         style="stroke:url(#linearGradient950);stroke-width:0.557277;stroke-miterlimit:4;stroke-dasharray:none" />
    </g>
    <path
       d="m 13.521812,269.06641 33.965376,8.48252 -8.629397,7.71684 -34.8334918,-10.59318 z"
       id="rect864"
       inkscape:connector-curvature="0"
       sodipodi:nodetypes="ccccc"
       stroke-miterlimit="4"
       opacity="1"
       stroke-dasharray="none"
       stroke-opacity="1"
       paint-order="normal"
       fill="#000000"
       fill-rule="evenodd"
       stroke="#c6c9b5"
       stroke-linejoin="round"
       fill-opacity="0.991"
       stroke-linecap="round"
       stroke-width="0.0301868"
       stroke-dashoffset="0" />
    <path
       stroke-miterlimit="4"
       sodipodi:nodetypes="ccccc"
       inkscape:connector-curvature="0"
       id="path1759"
       d="m 13.583026,269.40212 33.234907,8.31271 -8.197005,6.97231 L 4.87538,274.50578 Z"
       opacity="1"
       stroke-dasharray="none"
       stroke-opacity="1"
       paint-order="normal"
       fill="url(#pattern1761)"
       fill-rule="evenodd"
       stroke="#c6c9b5"
       stroke-linejoin="round"
       fill-opacity="1"
       stroke-linecap="round"
       stroke-width="0.0251283"
       stroke-dashoffset="0" />
    <path
       style="fill:#000000;fill-opacity:0.117529;filter:url(#filter885)"
       stroke-width="0.026"
       stroke-linecap="butt"
       fill-opacity="0.043"
       stroke-linejoin="miter"
       stroke="none"
       fill="#000000"
       stroke-opacity="1"
       stroke-dasharray="none"
       d="m 15.073385,241.58961 3.166598,4.53517 c 1.073767,-1.1555 1.492531,-1.67455 1.899884,-1.8037 10.003658,-2.37837 17.322409,-2.06254 28.13093,0.26381 0.321346,0.12773 0.790487,1.45127 1.003042,1.85098 l 4.621216,-5.07991 c -0.564995,-0.58152 -2.450161,-1.49331 -2.96092,-1.64094 -11.160554,-1.87965 -22.798676,0.01 -33.903886,0.95068 -0.570353,0.0285 -1.331648,0.56625 -1.956864,0.92391 z"
       id="path843"
       inkscape:connector-curvature="0"
       sodipodi:nodetypes="ccccccccc"
       stroke-miterlimit="4"
       transform="matrix(0.8415581,0,0,1.1746687,5.3424165,-43.332548)" />
    <path
       stroke-miterlimit="4"
       sodipodi:nodetypes="cssc"
       inkscape:connector-curvature="0"
       id="path872"
       d="m 17.012913,242.53893 c 0.392075,-1.7241 1.128404,-2.90541 2.651013,-3.31758 8.55365,-2.31549 18.543405,-3.81898 28.93324,-1.46679 1.545921,0.34999 2.003327,2.11531 2.451562,3.83356"
       stroke-dasharray="none"
       stroke-opacity="1"
       fill="none"
       stroke="url(#linearGradient880)"
       stroke-linejoin="miter"
       fill-opacity="1"
       stroke-linecap="butt"
       stroke-width="0.361575"
       style="stroke:url(#linearGradient880)" />
    <rect
       width="4.197"
       height="2.7149999"
       x="-11.328797"
       y="231.8777"
       id="rect1041"
       fill="url(#pattern1034)"
       stroke="none"
       style="fill:url(#pattern1936)" />
    <path
       style="fill:url(#linearGradient1956);fill-opacity:1;stroke:#3d3c31;stroke-width:0.307189px;stroke-linecap:butt;stroke-linejoin:miter;stroke-opacity:1"
       d="m 1.5594316,275.12706 c -0.1227874,0.81643 0.0092,1.84481 0.7410444,2.05774 l 36.283064,12.6584 c 0.892782,0.28527 1.762294,0.12197 2.247149,-0.26104 l 11.33904,-9.90171 c 5.94235,-5.71178 9.857241,-12.18386 13.969452,-18.58194 l -0.231621,1.67892 c -2.30675,7.01679 -5.562182,13.31234 -12.103686,19.16394 l -12.707725,10.79445 c -0.539081,0.26946 -1.078162,0.39066 -1.617243,0.30926 L 2.5212797,280.04932 c -0.4458987,-0.17318 -1.0397732,-0.7414 -0.9810821,-1.5179 z"
       id="path1940"
       sodipodi:nodetypes="ccccccccccccc" />
  </g>
</svg>
