<?xml version="1.0" encoding="UTF-8" standalone="no"?>
<!-- Created with Inkscape (http://www.inkscape.org/) -->
<svg xmlns:dc="http://purl.org/dc/elements/1.1/" xmlns:cc="http://creativecommons.org/ns#" xmlns:rdf="http://www.w3.org/1999/02/22-rdf-syntax-ns#" xmlns:svg="http://www.w3.org/2000/svg" xmlns="http://www.w3.org/2000/svg" xmlns:xlink="http://www.w3.org/1999/xlink" xmlns:sodipodi="http://sodipodi.sourceforge.net/DTD/sodipodi-0.dtd" xmlns:inkscape="http://www.inkscape.org/namespaces/inkscape" width="255" height="255" viewBox="0 0 67.468748 67.468752" version="1.1" id="svg8" inkscape:version="0.92.5 (2060ec1f9f, 2020-04-08)" sodipodi:docname="tetris.svg">
 <defs id="defs2">
  <linearGradient id="linearGradient1428" inkscape:collect="always">
   <stop id="stop1424" stop-color="black" stop-opacity="1"/>
   <stop id="stop1426" offset="1" stop-color="#6e6e6e" stop-opacity="1"/>
  </linearGradient>
  <linearGradient id="linearGradient1422">
   <stop id="stop1418" stop-color="#fe0009" stop-opacity="1"/>
   <stop id="stop1420" offset="1" stop-color="#000000" stop-opacity="1"/>
  </linearGradient>
  <linearGradient id="linearGradient1416">
   <stop id="stop1412" stop-color="#ff000b" stop-opacity="1"/>
   <stop id="stop1414" offset="1" stop-color="#000000" stop-opacity="1"/>
  </linearGradient>
  <linearGradient id="linearGradient1410">
   <stop id="stop1406" stop-color="#fa0009" stop-opacity="1"/>
   <stop id="stop1408" offset="1" stop-color="#000000" stop-opacity="1"/>
  </linearGradient>
  <linearGradient id="linearGradient1404">
   <stop id="stop1400" stop-color="#ff001e" stop-opacity="1"/>
   <stop id="stop1402" offset="1" stop-color="#000000" stop-opacity="1"/>
  </linearGradient>
  <linearGradient id="linearGradient1398">
   <stop id="stop1394" stop-color="#ff0300" stop-opacity="1"/>
   <stop id="stop1396" offset="1" stop-color="#000000" stop-opacity="1"/>
  </linearGradient>
  <linearGradient id="linearGradient1392">
   <stop id="stop1388" stop-color="#ff0001" stop-opacity="1"/>
   <stop id="stop1390" offset="1" stop-color="#000000" stop-opacity="1"/>
  </linearGradient>
  <linearGradient id="linearGradient3918">
   <stop id="stop3920" stop-color="#ff001c" stop-opacity="1"/>
   <stop offset="1" id="stop3922" stop-color="#000000" stop-opacity="1"/>
  </linearGradient>
  <linearGradient id="linearGradient2770">
   <stop id="stop2772" stop-color="#000000" stop-opacity="1"/>
   <stop id="stop2774" offset="1" stop-color="#888888" stop-opacity="1"/>
  </linearGradient>
  <linearGradient id="linearGradient2762">
   <stop id="stop2764" stop-color="#7aef74" stop-opacity="1"/>
   <stop id="stop2766" offset="1" stop-color="#000000" stop-opacity="1"/>
  </linearGradient>
  <linearGradient y2="93.27" x2="67.33" y1="47.582" x1="69.851" gradientUnits="userSpaceOnUse" id="linearGradient3239" xlink:href="#linearGradient2762" inkscape:collect="always"/>
  <linearGradient y2="49.33" x2="77.901" y1="95.56" x1="32.964" gradientUnits="userSpaceOnUse" id="linearGradient3241" xlink:href="#linearGradient2770" inkscape:collect="always"/>
  <linearGradient y2="70.783" x2="55.43" y1="94.27" x1="55.43" gradientTransform="matrix(1,0,3.739703e-7,1.249775,35.11508,-56.28744)" gradientUnits="userSpaceOnUse" id="linearGradient3243" xlink:href="#linearGradient2762" inkscape:collect="always"/>
  <linearGradient y2="69.83" x2="80.52" y1="95.56" x1="32.964" gradientTransform="matrix(1,0,3.739703e-7,1.249775,35.11508,-56.28744)" gradientUnits="userSpaceOnUse" id="linearGradient3245" xlink:href="#linearGradient2770" inkscape:collect="always"/>
  <linearGradient y2="49.33" x2="55.43" y1="83" x1="29.26" gradientTransform="matrix(1.330033,4.453154e-7,0,0.985984,81.39932,100.0048)" gradientUnits="userSpaceOnUse" id="linearGradient3247" xlink:href="#linearGradient2762" inkscape:collect="always"/>
  <linearGradient y2="65.796" x2="59.02" y1="95.56" x1="32.964" gradientTransform="matrix(1.330033,4.453154e-7,0,0.985984,81.39932,100.0048)" gradientUnits="userSpaceOnUse" id="linearGradient3249" xlink:href="#linearGradient2770" inkscape:collect="always"/>
  <radialGradient r="29.17" fy="60.59" fx="157.3" cy="60.59" cx="157.3" gradientTransform="matrix(1.016591,0,0,1.170609,-97.37451,-10.91861)" gradientUnits="userSpaceOnUse" id="radialGradient3365" xlink:href="#linearGradient1428" inkscape:collect="always"/>
  <radialGradient r="29.17" fy="60.59" fx="157.3" cy="60.59" cx="157.3" gradientTransform="matrix(1.016591,0,0,1.170609,-97.37451,-10.91861)" gradientUnits="userSpaceOnUse" id="radialGradient3379" xlink:href="#linearGradient1428" inkscape:collect="always"/>
  <radialGradient r="29.17" fy="60.59" fx="157.3" cy="60.59" cx="157.3" gradientTransform="matrix(1.016591,0,0,1.170609,-97.37451,-10.91861)" gradientUnits="userSpaceOnUse" id="radialGradient3393" xlink:href="#linearGradient1428" inkscape:collect="always"/>
  <radialGradient r="29.17" fy="60.59" fx="157.3" cy="60.59" cx="157.3" gradientTransform="matrix(1.016591,0,0,1.170609,-97.37451,-10.91861)" gradientUnits="userSpaceOnUse" id="radialGradient3407" xlink:href="#linearGradient1428" inkscape:collect="always"/>
  <radialGradient r="29.17" fy="60.59" fx="157.3" cy="60.59" cx="157.3" gradientTransform="matrix(1.016591,0,0,1.170609,-97.37451,-10.91861)" gradientUnits="userSpaceOnUse" id="radialGradient3421" xlink:href="#linearGradient1428" inkscape:collect="always"/>
  <linearGradient y2="93.5" x2="67.1" y1="50.33" x1="67.33" gradientUnits="userSpaceOnUse" id="linearGradient3423" xlink:href="#linearGradient1410" inkscape:collect="always"/>
  <linearGradient y2="49.33" x2="77.901" y1="95.56" x1="32.964" gradientUnits="userSpaceOnUse" id="linearGradient3425" xlink:href="#linearGradient1392" inkscape:collect="always"/>
  <linearGradient y2="94.13" x2="66.752" y1="72.53" x1="69.34" gradientTransform="matrix(1,0,3.739703e-7,1.249775,35.11508,-56.28744)" gradientUnits="userSpaceOnUse" id="linearGradient3427" xlink:href="#linearGradient1398" inkscape:collect="always"/>
  <radialGradient r="29.17" fy="60.59" fx="157.3" cy="60.59" cx="157.3" gradientTransform="matrix(1.016591,0,0,1.170609,-97.37451,-10.91861)" gradientUnits="userSpaceOnUse" id="radialGradient3435" xlink:href="#linearGradient1428" inkscape:collect="always"/>
  <linearGradient y2="95.56" x2="32.964" y1="39.42" x1="37.891" gradientTransform="matrix(1.330033,4.453154e-7,0,0.985984,81.39932,100.0048)" gradientUnits="userSpaceOnUse" id="linearGradient3445" xlink:href="#linearGradient1422" inkscape:collect="always"/>
  <radialGradient r="29.17" fy="60.59" fx="157.3" cy="60.59" cx="157.3" gradientTransform="matrix(1.016591,0,0,1.170609,-97.37451,-10.91861)" gradientUnits="userSpaceOnUse" id="radialGradient3449" xlink:href="#linearGradient1428" inkscape:collect="always"/>
  <linearGradient inkscape:collect="always" xlink:href="#linearGradient2762" id="linearGradient1284" gradientUnits="userSpaceOnUse" x1="68.935" y1="49.642" x2="67.1" y2="94.19"/>
  <linearGradient inkscape:collect="always" xlink:href="#linearGradient2770" id="linearGradient1286" gradientUnits="userSpaceOnUse" x1="32.964" y1="95.56" x2="77.901" y2="49.33"/>
  <linearGradient inkscape:collect="always" xlink:href="#linearGradient2762" id="linearGradient1288" gradientUnits="userSpaceOnUse" gradientTransform="matrix(1,0,3.739703e-7,1.249775,35.11508,-56.28744)" x1="55.43" y1="94.27" x2="55.43" y2="70.783"/>
  <linearGradient inkscape:collect="always" xlink:href="#linearGradient2770" id="linearGradient1290" gradientUnits="userSpaceOnUse" gradientTransform="matrix(1,0,3.739703e-7,1.249775,35.11508,-56.28744)" x1="32.964" y1="95.56" x2="80.52" y2="69.83"/>
  <linearGradient inkscape:collect="always" xlink:href="#linearGradient2762" id="linearGradient1292" gradientUnits="userSpaceOnUse" gradientTransform="matrix(1.330033,4.453154e-7,0,0.985984,81.39932,100.0048)" x1="29.26" y1="83" x2="55.43" y2="49.33"/>
  <linearGradient inkscape:collect="always" xlink:href="#linearGradient2770" id="linearGradient1294" gradientUnits="userSpaceOnUse" gradientTransform="matrix(1.330033,4.453154e-7,0,0.985984,81.39932,100.0048)" x1="32.964" y1="95.56" x2="59.02" y2="65.796"/>
  <linearGradient inkscape:collect="always" xlink:href="#linearGradient2762" id="linearGradient1296" gradientUnits="userSpaceOnUse" x1="65.27" y1="49.871" x2="63.21" y2="93.27"/>
  <linearGradient inkscape:collect="always" xlink:href="#linearGradient2770" id="linearGradient1298" gradientUnits="userSpaceOnUse" x1="32.964" y1="95.56" x2="77.901" y2="49.33"/>
  <linearGradient inkscape:collect="always" xlink:href="#linearGradient2762" id="linearGradient1300" gradientUnits="userSpaceOnUse" gradientTransform="matrix(1,0,3.739703e-7,1.249775,35.11508,-56.28744)" x1="71.52" y1="73.901" x2="70.76" y2="94.58"/>
  <linearGradient inkscape:collect="always" xlink:href="#linearGradient2770" id="linearGradient1302" gradientUnits="userSpaceOnUse" gradientTransform="matrix(1,0,3.739703e-7,1.249775,35.11508,-56.28744)" x1="32.964" y1="95.56" x2="80.52" y2="69.83"/>
  <linearGradient inkscape:collect="always" xlink:href="#linearGradient2762" id="linearGradient1304" gradientUnits="userSpaceOnUse" gradientTransform="matrix(1.330033,4.453154e-7,0,0.985984,81.39932,100.0048)" x1="29.26" y1="83" x2="55.43" y2="49.33"/>
  <linearGradient inkscape:collect="always" xlink:href="#linearGradient2770" id="linearGradient1306" gradientUnits="userSpaceOnUse" gradientTransform="matrix(1.330033,4.453154e-7,0,0.985984,81.39932,100.0048)" x1="32.964" y1="95.56" x2="59.02" y2="65.796"/>
  <linearGradient inkscape:collect="always" xlink:href="#linearGradient2762" id="linearGradient1308" gradientUnits="userSpaceOnUse" x1="44.905" y1="51.24" x2="46.28" y2="94.19"/>
  <linearGradient inkscape:collect="always" xlink:href="#linearGradient2770" id="linearGradient1310" gradientUnits="userSpaceOnUse" x1="32.964" y1="95.56" x2="77.901" y2="49.33"/>
  <linearGradient inkscape:collect="always" xlink:href="#linearGradient2762" id="linearGradient1312" gradientUnits="userSpaceOnUse" gradientTransform="matrix(1,0,3.739703e-7,1.249775,35.11508,-56.28744)" x1="54.07" y1="72.3" x2="51.591" y2="94.36"/>
  <linearGradient inkscape:collect="always" xlink:href="#linearGradient2770" id="linearGradient1314" gradientUnits="userSpaceOnUse" gradientTransform="matrix(1,0,3.739703e-7,1.249775,35.11508,-56.28744)" x1="32.964" y1="95.56" x2="80.52" y2="69.83"/>
  <linearGradient inkscape:collect="always" xlink:href="#linearGradient2762" id="linearGradient1316" gradientUnits="userSpaceOnUse" gradientTransform="matrix(1.330033,4.453154e-7,0,0.985984,81.39932,100.0048)" x1="37.517" y1="43.891" x2="19.611" y2="80.39"/>
  <linearGradient inkscape:collect="always" xlink:href="#linearGradient2770" id="linearGradient1318" gradientUnits="userSpaceOnUse" gradientTransform="matrix(1.330033,4.453154e-7,0,0.985984,81.39932,100.0048)" x1="32.964" y1="95.56" x2="59.02" y2="65.796"/>
  <linearGradient inkscape:collect="always" xlink:href="#linearGradient2770" id="linearGradient1320" gradientUnits="userSpaceOnUse" x1="32.964" y1="95.56" x2="77.901" y2="49.33"/>
  <linearGradient inkscape:collect="always" xlink:href="#linearGradient2762" id="linearGradient1322" gradientUnits="userSpaceOnUse" gradientTransform="matrix(1,0,3.739703e-7,1.249775,35.11508,-56.28744)" x1="72.15" y1="73.21" x2="70.59" y2="93.44"/>
  <linearGradient inkscape:collect="always" xlink:href="#linearGradient2770" id="linearGradient1324" gradientUnits="userSpaceOnUse" gradientTransform="matrix(1,0,3.739703e-7,1.249775,35.11508,-56.28744)" x1="32.964" y1="95.56" x2="80.52" y2="69.83"/>
  <linearGradient inkscape:collect="always" xlink:href="#linearGradient2762" id="linearGradient1326" gradientUnits="userSpaceOnUse" gradientTransform="matrix(1.330033,4.453154e-7,0,0.985984,81.39932,100.0048)" x1="47.05" y1="43.544" x2="15.785" y2="84.14"/>
  <linearGradient inkscape:collect="always" xlink:href="#linearGradient2770" id="linearGradient1328" gradientUnits="userSpaceOnUse" gradientTransform="matrix(1.330033,4.453154e-7,0,0.985984,81.39932,100.0048)" x1="32.964" y1="95.56" x2="59.02" y2="65.796"/>
  <linearGradient inkscape:collect="always" xlink:href="#linearGradient1404" id="linearGradient1330" gradientUnits="userSpaceOnUse" x1="60.696" y1="50.786" x2="54.29" y2="94.88"/>
  <linearGradient inkscape:collect="always" xlink:href="#linearGradient1392" id="linearGradient1332" gradientUnits="userSpaceOnUse" gradientTransform="matrix(1,0,3.739703e-7,1.249775,35.11508,-56.28744)" x1="41.94" y1="68.64" x2="44.953" y2="95.27"/>
  <linearGradient inkscape:collect="always" xlink:href="#linearGradient2770" id="linearGradient1334" gradientUnits="userSpaceOnUse" gradientTransform="matrix(1,0,3.739703e-7,1.249775,35.11508,-56.28744)" x1="64.44" y1="70.38" x2="65.12" y2="94.78"/>
  <linearGradient inkscape:collect="always" xlink:href="#linearGradient2770" id="linearGradient1336" gradientUnits="userSpaceOnUse" gradientTransform="matrix(1.330033,4.453154e-7,0,0.985984,81.39932,100.0048)" x1="32.964" y1="95.56" x2="59.02" y2="65.796"/>
  <linearGradient inkscape:collect="always" xlink:href="#linearGradient1416" id="linearGradient1338" gradientUnits="userSpaceOnUse" x1="64.59" y1="48.727" x2="63.21" y2="96.02"/>
  <linearGradient inkscape:collect="always" xlink:href="#linearGradient2770" id="linearGradient1340" gradientUnits="userSpaceOnUse" x1="32.964" y1="95.56" x2="77.901" y2="49.33"/>
  <linearGradient inkscape:collect="always" xlink:href="#linearGradient2770" id="linearGradient1342" gradientUnits="userSpaceOnUse" gradientTransform="matrix(1,0,3.739703e-7,1.249775,35.11508,-56.28744)" x1="32.964" y1="95.56" x2="80.52" y2="69.83"/>
  <linearGradient inkscape:collect="always" xlink:href="#linearGradient3918" id="linearGradient1344" gradientUnits="userSpaceOnUse" gradientTransform="matrix(1.330033,4.453154e-7,0,0.985984,81.39932,100.0048)" x1="44.44" y1="44.2" x2="21.896" y2="81.71"/>
  <linearGradient inkscape:collect="always" xlink:href="#linearGradient2770" id="linearGradient1346" gradientUnits="userSpaceOnUse" gradientTransform="matrix(1.330033,4.453154e-7,0,0.985984,81.39932,100.0048)" x1="32.964" y1="95.56" x2="59.02" y2="65.796"/>
 </defs>
 <sodipodi:namedview id="base" pagecolor="#ff0000" bordercolor="#666666" borderopacity="1.0" inkscape:pageopacity="0" inkscape:pageshadow="2" inkscape:zoom="3.4901961" inkscape:cx="127.5" inkscape:cy="127.5" inkscape:document-units="mm" inkscape:current-layer="layer1" showgrid="false" units="px" inkscape:snap-to-guides="false" inkscape:snap-grids="false" inkscape:snap-others="false" inkscape:object-nodes="false" inkscape:snap-nodes="false" inkscape:snap-global="false" inkscape:window-width="1920" inkscape:window-height="1056" inkscape:window-x="0" inkscape:window-y="0" inkscape:window-maximized="1"/>
 <metadata id="metadata5">
  <rdf:RDF>
   <cc:Work>
    <dc:format>image/svg+xml</dc:format>
    <dc:type rdf:resource="http://purl.org/dc/dcmitype/StillImage"/>
    <dc:title/>
   </cc:Work>
  </rdf:RDF>
 </metadata>
 <g inkscape:label="Layer 1" inkscape:groupmode="layer" id="layer1" transform="translate(0,-229.53123)">
  <g id="g3326" transform="matrix(0.28425883,0,0,0.28425883,0.48748337,227.47947)">
   <g transform="matrix(2.116216,0,0,2.116216,-13.78402,-12.74572)" id="g3061">
    <g id="g2847" transform="matrix(0.550644,0,0,0.550644,3.158723,67.46283)">
     <path inkscape:connector-curvature="0" sodipodi:nodetypes="ccccccccccccc" id="rect2811" d="m 54.478717,25.863584 c -3.162816,0 -7.220467,2.057246 -9.117547,4.604411 L 35.06819,44.281228 c -0.880856,3.329477 -1.887667,5.443474 -2.192024,9.528572 v 35.748135 c 0,2.547164 2.043947,4.604415 4.574658,4.604411 H 72.96796 c 2.562357,-0.165656 5.638835,-2.349909 7.465588,-4.764287 L 89.582863,76.99173 c 1.486805,-2.016932 2.643187,-5.674448 2.605014,-8.185619 L 91.647813,32.546375 c -0.284005,-4.021107 0.693346,-5.517682 -3.90752,-6.682791 z" opacity="1" stroke-dasharray="none" stroke-opacity="1" fill="url(#radialGradient3365)" stroke="none" stroke-linejoin="round" fill-opacity="1" stroke-linecap="round" stroke-width="1" stroke-dashoffset="1.56" stroke-miterlimit="4"/>
     <rect ry="4.494" y="49.832" x="33.464" height="43.937" width="43.937" id="rect1875" opacity="1" stroke-dasharray="none" stroke-opacity="1" fill="url(#linearGradient1284)" stroke="url(#linearGradient1286)" stroke-linejoin="round" fill-opacity="1" stroke-linecap="round" stroke-width="1" stroke-dashoffset="1.56" stroke-miterlimit="4" rx="4.494"/>
     <rect transform="matrix(1,0,-0.599808,0.800144,0,0)" id="rect2778" width="43.937" height="28.1" x="68.58" y="32.8" ry="5.616" opacity="1" stroke-dasharray="none" stroke-opacity="1" fill="url(#linearGradient1288)" stroke="url(#linearGradient1290)" stroke-linejoin="round" fill-opacity="1" stroke-linecap="round" stroke-width="1.118" stroke-dashoffset="1.56" stroke-miterlimit="4" rx="5.616"/>
     <rect transform="matrix(0.595858,-0.80309,0.01529818,0.999883,0,0)" id="rect2786" width="23.974" height="44.3" x="125.91" y="149.14" ry="4.431" opacity="1" stroke-dasharray="none" stroke-opacity="1" fill="url(#linearGradient1292)" stroke="url(#linearGradient1294)" stroke-linejoin="round" fill-opacity="1" stroke-linecap="round" stroke-width="1.145" stroke-dashoffset="1.56" stroke-miterlimit="4" rx="4.431"/>
    </g>
    <g transform="matrix(0.550644,0,0,0.550644,28.08121,67.22086)" id="g2867">
     <path inkscape:connector-curvature="0" d="m 54.478717,25.863584 c -3.162816,0 -7.220467,2.057246 -9.117547,4.604411 L 35.06819,44.281228 c -0.880856,3.329477 -1.887667,5.443474 -2.192024,9.528572 v 35.748135 c 0,2.547164 2.043947,4.604415 4.574658,4.604411 H 72.96796 c 2.562357,-0.165656 5.638835,-2.349909 7.465588,-4.764287 L 89.582863,76.99173 c 1.486805,-2.016932 2.643187,-5.674448 2.605014,-8.185619 L 91.647813,32.546375 c -0.284005,-4.021107 0.693346,-5.517682 -3.90752,-6.682791 z" id="path2869" sodipodi:nodetypes="ccccccccccccc" opacity="1" stroke-dasharray="none" stroke-opacity="1" fill="url(#radialGradient3379)" stroke="none" stroke-linejoin="round" fill-opacity="1" stroke-linecap="round" stroke-width="1" stroke-dashoffset="1.56" stroke-miterlimit="4"/>
     <rect id="rect2871" width="43.937" height="43.937" x="33.464" y="49.832" ry="4.494" opacity="1" stroke-dasharray="none" stroke-opacity="1" fill="url(#linearGradient1296)" stroke="url(#linearGradient1298)" stroke-linejoin="round" fill-opacity="1" stroke-linecap="round" stroke-width="1" stroke-dashoffset="1.56" stroke-miterlimit="4" rx="4.494"/>
     <rect ry="5.616" y="32.8" x="68.58" height="28.1" width="43.937" id="rect2873" transform="matrix(1,0,-0.599808,0.800144,0,0)" opacity="1" stroke-dasharray="none" stroke-opacity="1" fill="url(#linearGradient1300)" stroke="url(#linearGradient1302)" stroke-linejoin="round" fill-opacity="1" stroke-linecap="round" stroke-width="1.118" stroke-dashoffset="1.56" stroke-miterlimit="4" rx="5.616"/>
     <rect ry="4.431" y="149.14" x="125.91" height="44.3" width="23.974" id="rect2875" transform="matrix(0.595858,-0.80309,0.01529818,0.999883,0,0)" opacity="1" stroke-dasharray="none" stroke-opacity="1" fill="url(#linearGradient1304)" stroke="url(#linearGradient1306)" stroke-linejoin="round" fill-opacity="1" stroke-linecap="round" stroke-width="1.145" stroke-dashoffset="1.56" stroke-miterlimit="4" rx="4.431"/>
    </g>
    <g id="g2891" transform="matrix(0.550644,0,0,0.550644,53.48764,66.73693)">
     <path inkscape:connector-curvature="0" sodipodi:nodetypes="ccccccccccccc" id="path2893" d="m 54.478717,25.863584 c -3.162816,0 -7.220467,2.057246 -9.117547,4.604411 L 35.06819,44.281228 c -0.880856,3.329477 -1.887667,5.443474 -2.192024,9.528572 v 35.748135 c 0,2.547164 2.043947,4.604415 4.574658,4.604411 H 72.96796 c 2.562357,-0.165656 5.638835,-2.349909 7.465588,-4.764287 L 89.582863,76.99173 c 1.486805,-2.016932 2.643187,-5.674448 2.605014,-8.185619 L 91.647813,32.546375 c -0.284005,-4.021107 0.693346,-5.517682 -3.90752,-6.682791 z" opacity="1" stroke-dasharray="none" stroke-opacity="1" fill="url(#radialGradient3393)" stroke="none" stroke-linejoin="round" fill-opacity="1" stroke-linecap="round" stroke-width="1" stroke-dashoffset="1.56" stroke-miterlimit="4"/>
     <rect ry="4.494" y="49.832" x="33.464" height="43.937" width="43.937" id="rect2895" opacity="1" stroke-dasharray="none" stroke-opacity="1" fill="url(#linearGradient1308)" stroke="url(#linearGradient1310)" stroke-linejoin="round" fill-opacity="1" stroke-linecap="round" stroke-width="1" stroke-dashoffset="1.56" stroke-miterlimit="4" rx="4.494"/>
     <rect transform="matrix(1,0,-0.599808,0.800144,0,0)" id="rect2897" width="43.937" height="28.1" x="68.58" y="32.8" ry="5.616" opacity="1" stroke-dasharray="none" stroke-opacity="1" fill="url(#linearGradient1312)" stroke="url(#linearGradient1314)" stroke-linejoin="round" fill-opacity="1" stroke-linecap="round" stroke-width="1.118" stroke-dashoffset="1.56" stroke-miterlimit="4" rx="5.616"/>
     <rect transform="matrix(0.595858,-0.80309,0.01529818,0.999883,0,0)" id="rect2899" width="23.974" height="44.3" x="125.91" y="149.14" ry="4.431" opacity="1" stroke-dasharray="none" stroke-opacity="1" fill="url(#linearGradient1316)" stroke="url(#linearGradient1318)" stroke-linejoin="round" fill-opacity="1" stroke-linecap="round" stroke-width="1.145" stroke-dashoffset="1.56" stroke-miterlimit="4" rx="4.431"/>
    </g>
    <g transform="matrix(0.550644,0,0,0.550644,2.916756,42.0564)" id="g2915">
     <path inkscape:connector-curvature="0" d="m 54.478717,25.863584 c -3.162816,0 -7.220467,2.057246 -9.117547,4.604411 L 35.06819,44.281228 c -0.880856,3.329477 -1.887667,5.443474 -2.192024,9.528572 v 35.748135 c 0,2.547164 2.043947,4.604415 4.574658,4.604411 H 72.96796 c 2.562357,-0.165656 5.638835,-2.349909 7.465588,-4.764287 L 89.582863,76.99173 c 1.486805,-2.016932 2.643187,-5.674448 2.605014,-8.185619 L 91.647813,32.546375 c -0.284005,-4.021107 0.693346,-5.517682 -3.90752,-6.682791 z" id="path2917" sodipodi:nodetypes="ccccccccccccc" opacity="1" stroke-dasharray="none" stroke-opacity="1" fill="url(#radialGradient3407)" stroke="none" stroke-linejoin="round" fill-opacity="1" stroke-linecap="round" stroke-width="1" stroke-dashoffset="1.56" stroke-miterlimit="4"/>
     <rect id="rect2919" width="43.937" height="43.937" x="33.464" y="49.832" ry="4.494" opacity="1" stroke-dasharray="none" stroke-opacity="1" fill="url(#linearGradient3239)" stroke="url(#linearGradient1320)" stroke-linejoin="round" fill-opacity="1" stroke-linecap="round" stroke-width="1" stroke-dashoffset="1.56" stroke-miterlimit="4" rx="4.494"/>
     <rect ry="5.616" y="32.8" x="68.58" height="28.1" width="43.937" id="rect2921" transform="matrix(1,0,-0.599808,0.800144,0,0)" opacity="1" stroke-dasharray="none" stroke-opacity="1" fill="url(#linearGradient1322)" stroke="url(#linearGradient1324)" stroke-linejoin="round" fill-opacity="1" stroke-linecap="round" stroke-width="1.118" stroke-dashoffset="1.56" stroke-miterlimit="4" rx="5.616"/>
     <rect ry="4.431" y="149.14" x="125.91" height="44.3" width="23.974" id="rect2923" transform="matrix(0.595858,-0.80309,0.01529818,0.999883,0,0)" opacity="1" stroke-dasharray="none" stroke-opacity="1" fill="url(#linearGradient1326)" stroke="url(#linearGradient1328)" stroke-linejoin="round" fill-opacity="1" stroke-linecap="round" stroke-width="1.145" stroke-dashoffset="1.56" stroke-miterlimit="4" rx="4.431"/>
    </g>
   </g>
   <g transform="matrix(2.116216,0,0,2.116216,-28.790917,-8.9204326)" id="g3131">
    <g id="g3107" transform="matrix(0.550644,0,0,0.550644,30.50087,-2.949263)">
     <path inkscape:connector-curvature="0" sodipodi:nodetypes="ccccccccccccc" id="path3109" d="m 54.478717,25.863584 c -3.162816,0 -7.220467,2.057246 -9.117547,4.604411 L 35.06819,44.281228 c -0.880856,3.329477 -1.887667,5.443474 -2.192024,9.528572 v 35.748135 c 0,2.547164 2.043947,4.604415 4.574658,4.604411 H 72.96796 c 2.562357,-0.165656 5.638835,-2.349909 7.465588,-4.764287 L 89.582863,76.99173 c 1.486805,-2.016932 2.643187,-5.674448 2.605014,-8.185619 L 91.647813,32.546375 c -0.284005,-4.021107 0.693346,-5.517682 -3.90752,-6.682791 z" opacity="1" stroke-dasharray="none" stroke-opacity="1" fill="url(#radialGradient3421)" stroke="none" stroke-linejoin="round" fill-opacity="1" stroke-linecap="round" stroke-width="1" stroke-dashoffset="1.56" stroke-miterlimit="4"/>
     <rect ry="4.494" y="49.832" x="33.464" height="43.937" width="43.937" id="rect3111" opacity="1" stroke-dasharray="none" stroke-opacity="1" fill="url(#linearGradient1330)" stroke="url(#linearGradient3425)" stroke-linejoin="round" fill-opacity="1" stroke-linecap="round" stroke-width="1" stroke-dashoffset="1.56" stroke-miterlimit="4" rx="4.494"/>
     <rect transform="matrix(1,0,-0.599808,0.800144,0,0)" id="rect3113" width="43.937" height="28.1" x="68.58" y="32.8" ry="5.616" opacity="1" stroke-dasharray="none" stroke-opacity="1" fill="url(#linearGradient1332)" stroke="url(#linearGradient1334)" stroke-linejoin="round" fill-opacity="1" stroke-linecap="round" stroke-width="1.118" stroke-dashoffset="1.56" stroke-miterlimit="4" rx="5.616"/>
     <rect transform="matrix(0.595858,-0.80309,0.01529818,0.999883,0,0)" id="rect3115" width="23.974" height="44.3" x="125.91" y="149.14" ry="4.431" opacity="1" stroke-dasharray="none" stroke-opacity="1" fill="url(#linearGradient3247)" stroke="url(#linearGradient1336)" stroke-linejoin="round" fill-opacity="1" stroke-linecap="round" stroke-width="1.145" stroke-dashoffset="1.56" stroke-miterlimit="4" rx="4.431"/>
    </g>
    <g id="g3037" transform="matrix(0.550644,0,0,0.550644,56.14927,21.4893)">
     <path inkscape:connector-curvature="0" sodipodi:nodetypes="ccccccccccccc" id="path3039" d="m 54.478717,25.863584 c -3.162816,0 -7.220467,2.057246 -9.117547,4.604411 L 35.06819,44.281228 c -0.880856,3.329477 -1.887667,5.443474 -2.192024,9.528572 v 35.748135 c 0,2.547164 2.043947,4.604415 4.574658,4.604411 H 72.96796 c 2.562357,-0.165656 5.638835,-2.349909 7.465588,-4.764287 L 89.582863,76.99173 c 1.486805,-2.016932 2.643187,-5.674448 2.605014,-8.185619 L 91.647813,32.546375 c -0.284005,-4.021107 0.693346,-5.517682 -3.90752,-6.682791 z" opacity="1" stroke-dasharray="none" stroke-opacity="1" fill="url(#radialGradient3435)" stroke="none" stroke-linejoin="round" fill-opacity="1" stroke-linecap="round" stroke-width="1" stroke-dashoffset="1.56" stroke-miterlimit="4"/>
     <rect ry="4.494" y="49.832" x="33.464" height="43.937" width="43.937" id="rect3041" opacity="1" stroke-dasharray="none" stroke-opacity="1" fill="url(#linearGradient1338)" stroke="url(#linearGradient1340)" stroke-linejoin="round" fill-opacity="1" stroke-linecap="round" stroke-width="1" stroke-dashoffset="1.56" stroke-miterlimit="4" rx="4.494"/>
     <rect transform="matrix(1,0,-0.599808,0.800144,0,0)" id="rect3043" width="43.937" height="28.1" x="68.58" y="32.8" ry="5.616" opacity="1" stroke-dasharray="none" stroke-opacity="1" fill="url(#linearGradient3243)" stroke="url(#linearGradient1342)" stroke-linejoin="round" fill-opacity="1" stroke-linecap="round" stroke-width="1.118" stroke-dashoffset="1.56" stroke-miterlimit="4" rx="5.616"/>
     <rect transform="matrix(0.595858,-0.80309,0.01529818,0.999883,0,0)" id="rect3045" width="23.974" height="44.3" x="125.91" y="149.14" ry="4.431" opacity="1" stroke-dasharray="none" stroke-opacity="1" fill="url(#linearGradient1344)" stroke="url(#linearGradient1346)" stroke-linejoin="round" fill-opacity="1" stroke-linecap="round" stroke-width="1.145" stroke-dashoffset="1.56" stroke-miterlimit="4" rx="4.431"/>
    </g>
    <g transform="matrix(0.550644,0,0,0.550644,55.42337,-3.191229)" id="g3083">
     <path inkscape:connector-curvature="0" d="m 54.478717,25.863584 c -3.162816,0 -7.220467,2.057246 -9.117547,4.604411 L 35.06819,44.281228 c -0.880856,3.329477 -1.887667,5.443474 -2.192024,9.528572 v 35.748135 c 0,2.547164 2.043947,4.604415 4.574658,4.604411 H 72.96796 c 2.562357,-0.165656 5.638835,-2.349909 7.465588,-4.764287 L 89.582863,76.99173 c 1.486805,-2.016932 2.643187,-5.674448 2.605014,-8.185619 L 91.647813,32.546375 c -0.284005,-4.021107 0.693346,-5.517682 -3.90752,-6.682791 z" id="path3085" sodipodi:nodetypes="ccccccccccccc" opacity="1" stroke-dasharray="none" stroke-opacity="1" fill="url(#radialGradient3449)" stroke="none" stroke-linejoin="round" fill-opacity="1" stroke-linecap="round" stroke-width="1" stroke-dashoffset="1.56" stroke-miterlimit="4"/>
     <rect id="rect3087" width="43.937" height="43.937" x="33.464" y="49.832" ry="4.494" opacity="1" stroke-dasharray="none" stroke-opacity="1" fill="url(#linearGradient3423)" stroke="url(#linearGradient3241)" stroke-linejoin="round" fill-opacity="1" stroke-linecap="round" stroke-width="1" stroke-dashoffset="1.56" stroke-miterlimit="4" rx="4.494"/>
     <rect ry="5.616" y="32.8" x="68.58" height="28.1" width="43.937" id="rect3089" transform="matrix(1,0,-0.599808,0.800144,0,0)" opacity="1" stroke-dasharray="none" stroke-opacity="1" fill="url(#linearGradient3427)" stroke="url(#linearGradient3245)" stroke-linejoin="round" fill-opacity="1" stroke-linecap="round" stroke-width="1.118" stroke-dashoffset="1.56" stroke-miterlimit="4" rx="5.616"/>
     <rect ry="4.431" y="149.14" x="125.91" height="44.3" width="23.974" id="rect3091" transform="matrix(0.595858,-0.80309,0.01529818,0.999883,0,0)" opacity="1" stroke-dasharray="none" stroke-opacity="1" fill="url(#linearGradient3445)" stroke="url(#linearGradient3249)" stroke-linejoin="round" fill-opacity="1" stroke-linecap="round" stroke-width="1.145" stroke-dashoffset="1.56" stroke-miterlimit="4" rx="4.431"/>
    </g>
   </g>
  </g>
 </g>
</svg>
