<?xml version="1.0" encoding="UTF-8" standalone="no"?>
<!-- Created with Inkscape (http://www.inkscape.org/) -->

<svg
   xmlns:dc="http://purl.org/dc/elements/1.1/"
   xmlns:cc="http://creativecommons.org/ns#"
   xmlns:rdf="http://www.w3.org/1999/02/22-rdf-syntax-ns#"
   xmlns:svg="http://www.w3.org/2000/svg"
   xmlns="http://www.w3.org/2000/svg"
   xmlns:xlink="http://www.w3.org/1999/xlink"
   xmlns:sodipodi="http://sodipodi.sourceforge.net/DTD/sodipodi-0.dtd"
   xmlns:inkscape="http://www.inkscape.org/namespaces/inkscape"
   version="1.1"
   id="svg2"
   width="255"
   height="255"
   viewBox="0 0 255 255"
   sodipodi:docname="weather-radar.svg"
   inkscape:version="0.92.5 (2060ec1f9f, 2020-04-08)">
  <metadata
     id="metadata8">
    <rdf:RDF>
      <cc:Work
         rdf:about="">
        <dc:format>image/svg+xml</dc:format>
        <dc:type
           rdf:resource="http://purl.org/dc/dcmitype/StillImage" />
        <dc:title />
      </cc:Work>
    </rdf:RDF>
  </metadata>
  <defs
     id="defs6">
    <linearGradient
       id="linearGradient888"
       inkscape:collect="always">
      <stop
         id="stop884"
         offset="0"
         style="stop-color:#aeadad;stop-opacity:1" />
      <stop
         id="stop886"
         offset="1"
         style="stop-color:#1b1b1b;stop-opacity:1" />
    </linearGradient>
    <linearGradient
       inkscape:collect="always"
       id="linearGradient893">
      <stop
         style="stop-color:#000000;stop-opacity:1;"
         offset="0"
         id="stop889" />
      <stop
         id="stop897"
         offset="0.93476337"
         style="stop-color:#000000;stop-opacity:1" />
      <stop
         style="stop-color:#000000;stop-opacity:0;"
         offset="1"
         id="stop891" />
    </linearGradient>
    <linearGradient
       inkscape:collect="always"
       id="linearGradient897">
      <stop
         style="stop-color:#a1ec37;stop-opacity:1;"
         offset="0"
         id="stop893" />
      <stop
         style="stop-color:#a1ec37;stop-opacity:0;"
         offset="1"
         id="stop895" />
    </linearGradient>
    <linearGradient
       id="linearGradient855"
       inkscape:collect="always">
      <stop
         id="stop851"
         offset="0"
         style="stop-color:#ffffff;stop-opacity:1" />
      <stop
         id="stop853"
         offset="1"
         style="stop-color:#000000;stop-opacity:1" />
    </linearGradient>
    <linearGradient
       inkscape:collect="always"
       id="linearGradient831">
      <stop
         style="stop-color:#929292;stop-opacity:1"
         offset="0"
         id="stop827" />
      <stop
         style="stop-color:#4a4f43;stop-opacity:1"
         offset="1"
         id="stop829" />
    </linearGradient>
    <linearGradient
       inkscape:collect="always"
       id="linearGradient823">
      <stop
         style="stop-color:#aeaeae;stop-opacity:1"
         offset="0"
         id="stop819" />
      <stop
         style="stop-color:#000000;stop-opacity:1"
         offset="1"
         id="stop821" />
    </linearGradient>
    <linearGradient
       inkscape:collect="always"
       xlink:href="#linearGradient823"
       id="linearGradient825"
       x1="241.4716"
       y1="23.134542"
       x2="242.51111"
       y2="330.06094"
       gradientUnits="userSpaceOnUse"
       gradientTransform="matrix(0.79528042,0,0,0.79528042,-70.022014,-18.290631)" />
    <linearGradient
       inkscape:collect="always"
       xlink:href="#linearGradient831"
       id="linearGradient833"
       x1="255.75732"
       y1="30.493851"
       x2="254.63231"
       y2="323.13455"
       gradientUnits="userSpaceOnUse"
       gradientTransform="matrix(0.79528042,0,0,0.79528042,-70.022014,-18.290631)" />
    <linearGradient
       inkscape:collect="always"
       xlink:href="#linearGradient855"
       id="linearGradient843"
       gradientUnits="userSpaceOnUse"
       x1="247.80119"
       y1="338.15353"
       x2="241.05043"
       y2="19.9109"
       gradientTransform="matrix(0.70709196,0,0,0.70709196,-47.784013,-2.5067745)" />
    <linearGradient
       inkscape:collect="always"
       xlink:href="#linearGradient897"
       id="linearGradient899"
       x1="136.36363"
       y1="168.80553"
       x2="242.85715"
       y2="231.5761"
       gradientUnits="userSpaceOnUse"
       gradientTransform="matrix(0.79528042,0,0,0.79528042,-70.022014,-18.290631)" />
    <radialGradient
       inkscape:collect="always"
       xlink:href="#linearGradient893"
       id="radialGradient895"
       cx="133.54979"
       cy="130.54112"
       fx="133.54979"
       fy="130.54112"
       r="119.88959"
       gradientUnits="userSpaceOnUse"
       gradientTransform="matrix(1.0231987,0,0,1.0231987,-4.4156364,-4.0530724)" />
    <linearGradient
       inkscape:collect="always"
       xlink:href="#linearGradient888"
       id="linearGradient890"
       x1="140.61171"
       y1="220.36795"
       x2="138.57881"
       y2="14.55279"
       gradientUnits="userSpaceOnUse" />
  </defs>
  <sodipodi:namedview
     pagecolor="#ff0000"
     bordercolor="#666666"
     borderopacity="1"
     objecttolerance="10"
     gridtolerance="10"
     guidetolerance="10"
     inkscape:pageopacity="0"
     inkscape:pageshadow="2"
     inkscape:window-width="640"
     inkscape:window-height="480"
     id="namedview4"
     showgrid="false"
     inkscape:zoom="3.4156863"
     inkscape:cx="127.5"
     inkscape:cy="127.5"
     inkscape:current-layer="svg2" />
  <circle
     r="122.67088"
     cy="129.51645"
     cx="132.23235"
     id="circle1159"
     style="opacity:1;fill:url(#radialGradient895);fill-opacity:1;stroke:none;stroke-width:2.44118977;stroke-linecap:round;stroke-linejoin:round;stroke-miterlimit:4;stroke-dasharray:none;stroke-dashoffset:0;stroke-opacity:1" />
  <circle
     style="opacity:1;fill:url(#linearGradient833);fill-opacity:1;stroke:url(#linearGradient825);stroke-width:2.38584137;stroke-linecap:round;stroke-linejoin:round;stroke-miterlimit:4;stroke-dasharray:none;stroke-dashoffset:0;stroke-opacity:1"
     id="path817"
     cx="130.51949"
     cy="124.04762"
     r="119.88959" />
  <circle
     r="106.59506"
     cy="124.04762"
     cx="130.51949"
     id="circle835"
     style="opacity:1;fill:url(#linearGradient890);fill-opacity:1;stroke:url(#linearGradient843);stroke-width:3.18112159;stroke-linecap:round;stroke-linejoin:round;stroke-miterlimit:4;stroke-dasharray:none;stroke-dashoffset:0;stroke-opacity:1" />
  <circle
     style="opacity:1;fill:#000000;fill-opacity:1;stroke:none;stroke-width:2.93816423;stroke-linecap:round;stroke-linejoin:round;stroke-miterlimit:4;stroke-dasharray:none;stroke-dashoffset:0;stroke-opacity:1"
     id="circle845"
     cx="130.51949"
     cy="124.04762"
     r="98.453888" />
  <g
     id="g889"
     transform="matrix(0.79528042,0,0,0.79528042,-70.022014,-18.290631)">
    <circle
       style="opacity:1;fill:none;fill-opacity:1;stroke:#8ce147;stroke-width:1.5;stroke-linecap:round;stroke-linejoin:round;stroke-miterlimit:4;stroke-dasharray:none;stroke-dashoffset:0;stroke-opacity:1"
       id="circle859"
       cx="252.16451"
       cy="178.9787"
       r="112.15289" />
    <circle
       style="opacity:1;fill:none;fill-opacity:1;stroke:#8ce147;stroke-width:1.5;stroke-linecap:round;stroke-linejoin:round;stroke-miterlimit:4;stroke-dasharray:none;stroke-dashoffset:0;stroke-opacity:1"
       id="circle863"
       cx="252.16451"
       cy="178.9787"
       r="88.932877" />
    <circle
       style="opacity:1;fill:none;fill-opacity:1;stroke:#8ce147;stroke-width:1.5;stroke-linecap:round;stroke-linejoin:round;stroke-miterlimit:4;stroke-dasharray:none;stroke-dashoffset:0;stroke-opacity:1"
       id="circle867"
       cx="252.16451"
       cy="178.9787"
       r="65.712875" />
    <circle
       style="opacity:1;fill:none;fill-opacity:1;stroke:#8ce147;stroke-width:1.5;stroke-linecap:round;stroke-linejoin:round;stroke-miterlimit:4;stroke-dasharray:none;stroke-dashoffset:0;stroke-opacity:1"
       id="circle871"
       cx="252.16451"
       cy="178.9787"
       r="41.632874" />
    <circle
       style="opacity:1;fill:none;fill-opacity:1;stroke:#8ce147;stroke-width:1.5;stroke-linecap:round;stroke-linejoin:round;stroke-miterlimit:4;stroke-dasharray:none;stroke-dashoffset:0;stroke-opacity:1"
       id="circle875"
       cx="252.16451"
       cy="178.9787"
       r="22.712873" />
    <circle
       r="8.8064079"
       cy="178.9787"
       cx="252.16451"
       id="circle877"
       style="opacity:1;fill:none;fill-opacity:1;stroke:#8ce147;stroke-width:0.8343156;stroke-linecap:round;stroke-linejoin:round;stroke-miterlimit:4;stroke-dasharray:none;stroke-dashoffset:0;stroke-opacity:1" />
  </g>
  <path
     style="fill:url(#linearGradient899);fill-opacity:1;stroke:none;stroke-width:0.7952804px;stroke-linecap:butt;stroke-linejoin:miter;stroke-opacity:1"
     d="m 130.00306,124.21976 -96.741902,8.60693 c 2.500051,30.99283 18.770168,66.01272 64.379842,83.65937 z"
     id="path891"
     inkscape:connector-curvature="0"
     sodipodi:nodetypes="cccc" />
  <path
     style="fill:none;stroke:#718850;stroke-width:1.35197675;stroke-linecap:butt;stroke-linejoin:miter;stroke-miterlimit:4;stroke-dasharray:none;stroke-opacity:0.5473251"
     d="M 31.539773,124.56404 H 228.46636"
     id="path901"
     inkscape:connector-curvature="0" />
  <path
     inkscape:connector-curvature="0"
     id="path903"
     d="m 130.22463,25.067991 0.24542,195.549329"
     style="fill:none;stroke:#718850;stroke-width:1.35197675;stroke-linecap:butt;stroke-linejoin:miter;stroke-miterlimit:4;stroke-dasharray:none;stroke-opacity:0.55967078"
     sodipodi:nodetypes="cc" />
  <g
     aria-label="NGC1765"
     style="font-style:normal;font-variant:normal;font-weight:bold;font-stretch:normal;font-size:8px;line-height:1.25;font-family:Arial;-inkscape-font-specification:'Arial Bold';letter-spacing:0px;word-spacing:0px;fill:#d4d4d4;fill-opacity:1;stroke:none"
     id="text926"
     transform="matrix(0.98212295,0,0,0.98212295,29.719942,125.63285)">
    <path
       d="m 116.61107,31.143196 v -5.726562 h 1.125 l 2.34375,3.824218 v -3.824218 h 1.07422 v 5.726562 h -1.16016 l -2.30859,-3.734375 v 3.734375 z"
       id="path996"
       inkscape:connector-curvature="0" />
    <path
       d="m 125.04466,29.037727 v -0.964843 h 2.49219 v 2.28125 q -0.36328,0.351562 -1.05469,0.621093 -0.6875,0.265625 -1.39453,0.265625 -0.89844,0 -1.56641,-0.375 -0.66796,-0.378906 -1.0039,-1.078125 -0.33594,-0.703125 -0.33594,-1.527343 0,-0.894532 0.375,-1.589844 0.375,-0.695313 1.09766,-1.066406 0.55078,-0.285157 1.37109,-0.285157 1.06641,0 1.66406,0.449219 0.60157,0.445313 0.77344,1.234375 l -1.14844,0.214844 q -0.12109,-0.421875 -0.45703,-0.664063 -0.33203,-0.246093 -0.83203,-0.246093 -0.75781,0 -1.20703,0.480468 -0.44531,0.480469 -0.44531,1.425782 0,1.019531 0.45312,1.53125 0.45313,0.507812 1.1875,0.507812 0.36328,0 0.72656,-0.140625 0.36719,-0.144531 0.62891,-0.347656 v -0.726563 z"
       id="path998"
       inkscape:connector-curvature="0" />
    <path
       d="m 132.26341,29.037727 1.1211,0.355469 q -0.25782,0.9375 -0.85938,1.394531 -0.59766,0.453125 -1.51953,0.453125 -1.14063,0 -1.875,-0.777343 -0.73438,-0.78125 -0.73438,-2.132813 0,-1.429687 0.73829,-2.21875 0.73828,-0.792969 1.9414,-0.792969 1.05078,0 1.70703,0.621094 0.39063,0.367188 0.58594,1.054688 l -1.14453,0.273437 q -0.10156,-0.445312 -0.42578,-0.703125 -0.32031,-0.257812 -0.78125,-0.257812 -0.63672,0 -1.03516,0.457031 -0.39453,0.457031 -0.39453,1.480469 0,1.085937 0.39063,1.546875 0.39062,0.460937 1.01562,0.460937 0.46094,0 0.79297,-0.292969 0.33203,-0.292968 0.47656,-0.921875 z"
       id="path1000"
       inkscape:connector-curvature="0" />
    <path
       d="m 136.94701,31.143196 h -1.09766 v -4.136719 q -0.60156,0.5625 -1.41797,0.832032 v -0.996094 q 0.42969,-0.140625 0.93359,-0.53125 0.50391,-0.394531 0.69141,-0.917969 h 0.89063 z"
       id="path1002"
       inkscape:connector-curvature="0" />
    <path
       d="m 138.59154,26.51429 v -1.019531 h 3.7539 v 0.796875 q -0.46484,0.457031 -0.94531,1.3125 -0.48047,0.855468 -0.73437,1.820312 -0.25,0.960938 -0.2461,1.71875 h -1.05859 q 0.0273,-1.1875 0.48828,-2.421875 0.46484,-1.234375 1.23828,-2.207031 z"
       id="path1004"
       inkscape:connector-curvature="0" />
    <path
       d="m 146.76341,26.818977 -1.0625,0.117188 q -0.0391,-0.328125 -0.20312,-0.484375 -0.16407,-0.15625 -0.42578,-0.15625 -0.34766,0 -0.58985,0.3125 -0.23828,0.3125 -0.30078,1.300781 0.41016,-0.484375 1.01953,-0.484375 0.6875,0 1.17578,0.523438 0.49219,0.523437 0.49219,1.351562 0,0.878906 -0.51562,1.410156 -0.51563,0.53125 -1.32422,0.53125 -0.86719,0 -1.42578,-0.671875 -0.5586,-0.675781 -0.5586,-2.210937 0,-1.574219 0.58203,-2.269531 0.58203,-0.695313 1.51172,-0.695313 0.65235,0 1.07813,0.367188 0.42968,0.363281 0.54687,1.058593 z m -2.48828,2.394532 q 0,0.535156 0.24609,0.828125 0.2461,0.289062 0.5625,0.289062 0.30469,0 0.50782,-0.238281 0.20312,-0.238281 0.20312,-0.78125 0,-0.558594 -0.21875,-0.816406 -0.21875,-0.261719 -0.54687,-0.261719 -0.31641,0 -0.53516,0.25 -0.21875,0.246094 -0.21875,0.730469 z"
       id="path1006"
       inkscape:connector-curvature="0" />
    <path
       d="m 147.51341,29.67054 1.09375,-0.113281 q 0.0469,0.371093 0.27735,0.589843 0.23046,0.214844 0.53125,0.214844 0.34375,0 0.58203,-0.277344 0.23828,-0.28125 0.23828,-0.84375 0,-0.527343 -0.23828,-0.789062 -0.23438,-0.265625 -0.61328,-0.265625 -0.47266,0 -0.84766,0.417969 l -0.89063,-0.128907 0.5625,-2.980468 h 2.90235 v 1.027343 h -2.07031 l -0.17188,0.972657 q 0.36719,-0.183594 0.75,-0.183594 0.73047,0 1.23828,0.53125 0.50781,0.53125 0.50781,1.378906 0,0.707031 -0.41015,1.261719 -0.5586,0.757812 -1.55078,0.757812 -0.79297,0 -1.29297,-0.425781 -0.5,-0.425781 -0.59766,-1.144531 z"
       id="path1008"
       inkscape:connector-curvature="0" />
  </g>
  <g
     aria-label="MAG571"
     style="font-style:normal;font-variant:normal;font-weight:bold;font-stretch:normal;font-size:8px;line-height:1.25;font-family:Arial;-inkscape-font-specification:'Arial Bold';letter-spacing:0px;word-spacing:0px;fill:#d7d7d7;fill-opacity:1;stroke:none"
     id="text930"
     transform="matrix(0.99622783,0,0,0.99622783,30.747885,37.288728)">
    <path
       d="m 117.01662,43.697308 v -5.726563 h 1.73047 l 1.03907,3.90625 1.02734,-3.90625 h 1.73437 v 5.726563 h -1.07421 v -4.507813 l -1.13672,4.507813 h -1.11328 l -1.13282,-4.507813 v 4.507813 z"
       id="path983"
       inkscape:connector-curvature="0" />
    <path
       d="m 128.86819,43.697308 h -1.25782 l -0.5,-1.300782 h -2.28906 l -0.47265,1.300782 h -1.22657 l 2.23047,-5.726563 h 1.22266 z m -2.12891,-2.265625 -0.78906,-2.125 -0.77344,2.125 z"
       id="path985"
       inkscape:connector-curvature="0" />
    <path
       d="m 132.14944,41.591839 v -0.964844 h 2.49218 v 2.28125 q -0.36328,0.351563 -1.05468,0.621094 -0.6875,0.265625 -1.39453,0.265625 -0.89844,0 -1.56641,-0.375 -0.66797,-0.378906 -1.00391,-1.078125 -0.33593,-0.703125 -0.33593,-1.527344 0,-0.894531 0.375,-1.589844 0.375,-0.695312 1.09765,-1.066406 0.55078,-0.285156 1.3711,-0.285156 1.0664,0 1.66406,0.449219 0.60156,0.445312 0.77344,1.234375 l -1.14844,0.214843 q -0.1211,-0.421875 -0.45703,-0.664062 -0.33203,-0.246094 -0.83203,-0.246094 -0.75782,0 -1.20704,0.480469 -0.44531,0.480469 -0.44531,1.425781 0,1.019531 0.45313,1.53125 0.45312,0.507813 1.1875,0.507813 0.36328,0 0.72656,-0.140625 0.36719,-0.144532 0.62891,-0.347657 v -0.726562 z"
       id="path987"
       inkscape:connector-curvature="0" />
    <path
       d="m 135.47756,42.224651 1.09375,-0.113281 q 0.0469,0.371094 0.27735,0.589844 0.23046,0.214844 0.53125,0.214844 0.34375,0 0.58203,-0.277344 0.23828,-0.28125 0.23828,-0.84375 0,-0.527344 -0.23828,-0.789063 -0.23438,-0.265625 -0.61328,-0.265625 -0.47266,0 -0.84766,0.417969 l -0.89063,-0.128906 0.5625,-2.980469 h 2.90235 v 1.027344 h -2.07031 l -0.17188,0.972656 q 0.36719,-0.183594 0.75,-0.183594 0.73047,0 1.23828,0.53125 0.50781,0.53125 0.50781,1.378907 0,0.707031 -0.41015,1.261718 -0.5586,0.757813 -1.55078,0.757813 -0.79297,0 -1.29297,-0.425781 -0.5,-0.425782 -0.59766,-1.144532 z"
       id="path989"
       inkscape:connector-curvature="0" />
    <path
       d="M 139.91506,39.068401 V 38.04887 h 3.75391 v 0.796875 q -0.46485,0.457031 -0.94531,1.3125 -0.48047,0.855469 -0.73438,1.820313 -0.25,0.960937 -0.24609,1.71875 h -1.0586 q 0.0274,-1.1875 0.48828,-2.421875 0.46485,-1.234375 1.23829,-2.207032 z"
       id="path991"
       inkscape:connector-curvature="0" />
    <path
       d="m 147.17678,43.697308 h -1.09766 v -4.136719 q -0.60156,0.5625 -1.41796,0.832031 v -0.996094 q 0.42968,-0.140625 0.93359,-0.53125 0.50391,-0.394531 0.69141,-0.917968 h 0.89062 z"
       id="path993"
       inkscape:connector-curvature="0" />
  </g>
  <g
     aria-label="ARI882"
     style="font-style:normal;font-variant:normal;font-weight:bold;font-stretch:normal;font-size:8px;line-height:1.25;font-family:Arial;-inkscape-font-specification:'Arial Bold';letter-spacing:0px;word-spacing:0px;fill:#dad5d5;fill-opacity:1;stroke:none"
     id="text934"
     transform="matrix(0.90862896,0,0,0.90862896,-46.236271,183.84376)">
    <path
       d="m 236.91492,11.662677 h -1.25782 l -0.5,-1.300781 h -2.28906 l -0.47265,1.300781 h -1.22657 l 2.23047,-5.7265627 h 1.22266 z m -2.12891,-2.2656252 -0.78906,-2.125 -0.77344,2.125 z"
       id="path970"
       inkscape:connector-curvature="0" />
    <path
       d="M 237.53601,11.662677 V 5.9361143 h 2.43359 q 0.91797,0 1.33204,0.15625 0.41796,0.1523438 0.66796,0.546875 0.25,0.3945313 0.25,0.9023438 0,0.6445312 -0.3789,1.0664062 -0.37891,0.4179688 -1.13281,0.5273438 0.375,0.21875 0.61718,0.4804687 0.2461,0.2617188 0.66016,0.9296872 l 0.69922,1.117188 h -1.38281 l -0.83594,-1.246094 q -0.44531,-0.6679687 -0.60938,-0.8398437 -0.16406,-0.1757812 -0.34765,-0.2382812 -0.1836,-0.066406 -0.58203,-0.066406 h -0.23438 v 2.3906249 z m 1.15625,-3.3046877 h 0.85547 q 0.83203,0 1.03906,-0.070312 0.20703,-0.070312 0.32422,-0.2421875 0.11719,-0.171875 0.11719,-0.4296875 0,-0.2890625 -0.15625,-0.4648437 -0.15235,-0.1796875 -0.4336,-0.2265625 -0.14062,-0.019531 -0.84375,-0.019531 h -0.90234 z"
       id="path972"
       inkscape:connector-curvature="0" />
    <path
       d="M 243.2782,11.662677 V 5.9361143 h 1.15625 v 5.7265627 z"
       id="path974"
       inkscape:connector-curvature="0" />
    <path
       d="m 246.23132,8.5728331 q -0.42578,-0.1796875 -0.62109,-0.4921875 -0.19141,-0.3164063 -0.19141,-0.6914063 0,-0.640625 0.44532,-1.0585937 0.44921,-0.4179688 1.27343,-0.4179688 0.81641,0 1.26563,0.4179688 0.45312,0.4179687 0.45312,1.0585937 0,0.3984375 -0.20703,0.7109375 -0.20703,0.3085938 -0.58203,0.4726563 0.47656,0.1914062 0.72266,0.5585937 0.25,0.3671875 0.25,0.8476563 0,0.7929689 -0.50782,1.2890629 -0.5039,0.496093 -1.34375,0.496093 -0.78125,0 -1.30078,-0.410156 -0.61328,-0.484375 -0.61328,-1.328125 0,-0.4648437 0.23047,-0.8515624 0.23047,-0.390625 0.72656,-0.6015625 z m 0.22657,-1.1054688 q 0,0.328125 0.18359,0.5117188 0.1875,0.1835937 0.49609,0.1835937 0.3125,0 0.5,-0.1835937 0.1875,-0.1875 0.1875,-0.515625 0,-0.3085938 -0.1875,-0.4921875 -0.18359,-0.1875 -0.48828,-0.1875 -0.3164,0 -0.5039,0.1875 -0.1875,0.1875 -0.1875,0.4960937 z m -0.10157,2.453125 q 0,0.4531247 0.23047,0.7070317 0.23438,0.253906 0.58203,0.253906 0.33985,0 0.5625,-0.242188 0.22266,-0.246093 0.22266,-0.7070309 0,-0.4023438 -0.22656,-0.6445313 -0.22657,-0.2460937 -0.57422,-0.2460937 -0.40235,0 -0.60156,0.2773437 -0.19532,0.2773438 -0.19532,0.6015625 z"
       id="path976"
       inkscape:connector-curvature="0" />
    <path
       d="m 250.68445,8.5728331 q -0.42578,-0.1796875 -0.6211,-0.4921875 -0.1914,-0.3164063 -0.1914,-0.6914063 0,-0.640625 0.44531,-1.0585937 0.44922,-0.4179688 1.27344,-0.4179688 0.8164,0 1.26562,0.4179688 0.45313,0.4179687 0.45313,1.0585937 0,0.3984375 -0.20703,0.7109375 -0.20703,0.3085938 -0.58203,0.4726563 0.47656,0.1914062 0.72265,0.5585937 0.25,0.3671875 0.25,0.8476563 0,0.7929689 -0.50781,1.2890629 -0.50391,0.496093 -1.34375,0.496093 -0.78125,0 -1.30078,-0.410156 -0.61328,-0.484375 -0.61328,-1.328125 0,-0.4648437 0.23047,-0.8515624 0.23046,-0.390625 0.72656,-0.6015625 z m 0.22656,-1.1054688 q 0,0.328125 0.18359,0.5117188 0.1875,0.1835937 0.4961,0.1835937 0.3125,0 0.5,-0.1835937 0.1875,-0.1875 0.1875,-0.515625 0,-0.3085938 -0.1875,-0.4921875 -0.1836,-0.1875 -0.48828,-0.1875 -0.31641,0 -0.50391,0.1875 -0.1875,0.1875 -0.1875,0.4960937 z m -0.10156,2.453125 q 0,0.4531247 0.23047,0.7070317 0.23437,0.253906 0.58203,0.253906 0.33984,0 0.5625,-0.242188 0.22265,-0.246093 0.22265,-0.7070309 0,-0.4023438 -0.22656,-0.6445313 -0.22656,-0.2460937 -0.57422,-0.2460937 -0.40234,0 -0.60156,0.2773437 -0.19531,0.2773438 -0.19531,0.6015625 z"
       id="path978"
       inkscape:connector-curvature="0" />
    <path
       d="m 257.9032,10.643146 v 1.019531 h -3.84766 q 0.0625,-0.578125 0.375,-1.09375 0.3125,-0.519531 1.23438,-1.3750002 0.74218,-0.6914062 0.91015,-0.9375 0.22657,-0.3398437 0.22657,-0.671875 0,-0.3671875 -0.19922,-0.5625 -0.19532,-0.1992187 -0.54297,-0.1992187 -0.34375,0 -0.54688,0.2070312 -0.20312,0.2070313 -0.23437,0.6875 l -1.09375,-0.109375 q 0.0977,-0.90625 0.61328,-1.3007812 0.51562,-0.3945313 1.28906,-0.3945313 0.84766,0 1.33203,0.4570313 0.48438,0.4570312 0.48438,1.1367187 0,0.3867188 -0.14063,0.7382813 -0.13672,0.3476562 -0.4375,0.7304687 -0.19922,0.2539063 -0.71875,0.7304688 -0.51953,0.4765624 -0.66015,0.6328124 -0.13672,0.15625 -0.22266,0.304688 z"
       id="path980"
       inkscape:connector-curvature="0" />
  </g>
  <g
     aria-label="COR539"
     style="font-style:normal;font-variant:normal;font-weight:bold;font-stretch:normal;font-size:8px;line-height:1.25;font-family:Arial;-inkscape-font-specification:'Arial Bold';letter-spacing:0px;word-spacing:0px;fill:#c4c4c4;fill-opacity:1;stroke:none"
     id="text938"
     transform="matrix(0.93774411,0,0,0.93774411,-100.52121,102.35955)">
    <path
       d="m 305.97769,16.050714 1.1211,0.355469 q -0.25782,0.9375 -0.85938,1.394531 -0.59766,0.453125 -1.51953,0.453125 -1.14063,0 -1.875,-0.777343 -0.73438,-0.78125 -0.73438,-2.132813 0,-1.429687 0.73829,-2.21875 0.73828,-0.792969 1.9414,-0.792969 1.05078,0 1.70703,0.621094 0.39063,0.367188 0.58594,1.054688 l -1.14453,0.273437 q -0.10156,-0.445312 -0.42578,-0.703125 -0.32031,-0.257812 -0.78125,-0.257812 -0.63672,0 -1.03516,0.457031 -0.39453,0.457031 -0.39453,1.480469 0,1.085937 0.39063,1.546875 0.39062,0.460937 1.01562,0.460937 0.46094,0 0.79297,-0.292969 0.33203,-0.292968 0.47656,-0.921875 z"
       id="path957"
       inkscape:connector-curvature="0" />
    <path
       d="m 307.8605,15.328058 q 0,-0.875 0.26172,-1.46875 0.19532,-0.4375 0.53125,-0.785156 0.33985,-0.347656 0.74219,-0.515625 0.53516,-0.226563 1.23438,-0.226563 1.26562,0 2.02343,0.785157 0.76172,0.785156 0.76172,2.183593 0,1.386719 -0.7539,2.171875 -0.75391,0.78125 -2.01563,0.78125 -1.27734,0 -2.03125,-0.777343 -0.75391,-0.78125 -0.75391,-2.148438 z m 1.19141,-0.03906 q 0,0.972656 0.44922,1.476562 0.44922,0.5 1.14062,0.5 0.69141,0 1.13282,-0.496094 0.44531,-0.5 0.44531,-1.496093 0,-0.984375 -0.43359,-1.46875 -0.42969,-0.484375 -1.14454,-0.484375 -0.71484,0 -1.15234,0.492187 -0.4375,0.488281 -0.4375,1.476563 z"
       id="path959"
       inkscape:connector-curvature="0" />
    <path
       d="m 314.31754,18.156183 v -5.726562 h 2.43359 q 0.91797,0 1.33203,0.15625 0.41797,0.152343 0.66797,0.546875 0.25,0.394531 0.25,0.902343 0,0.644532 -0.37891,1.066407 -0.3789,0.417968 -1.13281,0.527343 0.375,0.21875 0.61719,0.480469 0.24609,0.261719 0.66015,0.929688 l 0.69922,1.117187 h -1.38281 l -0.83594,-1.246094 q -0.44531,-0.667968 -0.60937,-0.839843 -0.16406,-0.175782 -0.34766,-0.238282 -0.18359,-0.06641 -0.58203,-0.06641 h -0.23437 v 2.390625 z m 1.15625,-3.304687 h 0.85546 q 0.83204,0 1.03907,-0.07031 0.20703,-0.07031 0.32422,-0.242187 0.11718,-0.171875 0.11718,-0.429688 0,-0.289062 -0.15625,-0.464844 -0.15234,-0.179687 -0.43359,-0.226562 -0.14063,-0.01953 -0.84375,-0.01953 h -0.90234 z"
       id="path961"
       inkscape:connector-curvature="0" />
    <path
       d="m 319.86832,16.683527 1.09375,-0.113281 q 0.0469,0.371093 0.27734,0.589843 0.23047,0.214844 0.53125,0.214844 0.34375,0 0.58203,-0.277344 0.23828,-0.28125 0.23828,-0.84375 0,-0.527343 -0.23828,-0.789062 -0.23437,-0.265625 -0.61328,-0.265625 -0.47266,0 -0.84766,0.417969 l -0.89062,-0.128907 0.5625,-2.980468 h 2.90234 v 1.027343 h -2.07031 l -0.17187,0.972657 q 0.36718,-0.183594 0.75,-0.183594 0.73046,0 1.23828,0.53125 0.50781,0.53125 0.50781,1.378906 0,0.707031 -0.41016,1.261719 -0.55859,0.757812 -1.55078,0.757812 -0.79297,0 -1.29297,-0.425781 -0.5,-0.425781 -0.59765,-1.144531 z"
       id="path963"
       inkscape:connector-curvature="0" />
    <path
       d="m 324.26675,16.636652 1.0625,-0.128906 q 0.0508,0.40625 0.27344,0.621093 0.22266,0.214844 0.53906,0.214844 0.33985,0 0.57032,-0.257812 0.23437,-0.257813 0.23437,-0.695313 0,-0.414062 -0.22265,-0.65625 -0.22266,-0.242187 -0.54297,-0.242187 -0.21094,0 -0.50391,0.08203 L 325.798,14.67962 q 0.44532,0.01172 0.67969,-0.191407 0.23438,-0.207031 0.23438,-0.546875 0,-0.289062 -0.17188,-0.460937 -0.17187,-0.171875 -0.45703,-0.171875 -0.28125,0 -0.48047,0.195312 -0.19922,0.195313 -0.24219,0.570313 l -1.01171,-0.171875 q 0.10546,-0.519531 0.3164,-0.828125 0.21485,-0.3125 0.59375,-0.488281 0.38281,-0.179688 0.85547,-0.179688 0.80859,0 1.29688,0.515625 0.40234,0.421875 0.40234,0.953125 0,0.753906 -0.82422,1.203125 0.49219,0.105469 0.78516,0.472656 0.29687,0.367188 0.29687,0.886719 0,0.753906 -0.55078,1.285156 -0.55078,0.53125 -1.37109,0.53125 -0.77735,0 -1.28907,-0.445312 -0.51171,-0.449219 -0.59375,-1.171875 z"
       id="path965"
       inkscape:connector-curvature="0" />
    <path
       d="m 328.78238,16.831964 1.0625,-0.117187 q 0.0391,0.324219 0.20312,0.480469 0.16407,0.15625 0.4336,0.15625 0.33984,0 0.57812,-0.3125 0.23828,-0.3125 0.30469,-1.296875 -0.41406,0.480468 -1.03516,0.480468 -0.67578,0 -1.16796,-0.519531 -0.48829,-0.523437 -0.48829,-1.359375 0,-0.871094 0.51563,-1.402344 0.51953,-0.535156 1.32031,-0.535156 0.8711,0 1.42969,0.675781 0.55859,0.671875 0.55859,2.214844 0,1.570313 -0.58203,2.265625 -0.58203,0.695313 -1.51562,0.695313 -0.67188,0 -1.08594,-0.355469 -0.41406,-0.359375 -0.53125,-1.070313 z m 2.48437,-2.398437 q 0,-0.53125 -0.24609,-0.824219 -0.24219,-0.292969 -0.5625,-0.292969 -0.30469,0 -0.50781,0.242188 -0.19922,0.238281 -0.19922,0.785156 0,0.554688 0.21875,0.816406 0.21875,0.257813 0.54687,0.257813 0.31641,0 0.53125,-0.25 0.21875,-0.25 0.21875,-0.734375 z"
       id="path967"
       inkscape:connector-curvature="0" />
  </g>
  <g
     aria-label="LEV687"
     style="font-style:normal;font-variant:normal;font-weight:bold;font-stretch:normal;font-size:8px;line-height:1.25;font-family:Arial;-inkscape-font-specification:'Arial Bold';letter-spacing:0px;word-spacing:0px;fill:#cccccc;fill-opacity:1;stroke:none"
     id="text942"
     transform="matrix(1.0894036,0,0,1.0894036,-114.8085,95.850502)">
    <path
       d="M 173.34055,8.6323738 V 2.9526863 h 1.15625 v 4.7148438 h 2.875 v 0.9648437 z"
       id="path944"
       inkscape:connector-curvature="0" />
    <path
       d="M 178.19992,8.6323738 V 2.9058113 h 4.24609 v 0.96875 h -3.08984 v 1.2695313 h 2.875 v 0.9648437 h -2.875 v 1.5585938 h 3.19922 v 0.9648437 z"
       id="path946"
       inkscape:connector-curvature="0" />
    <path
       d="m 185.00461,8.6323738 -2.04688,-5.7265625 h 1.25391 l 1.44922,4.2382813 1.40234,-4.2382813 h 1.22656 l -2.05078,5.7265625 z"
       id="path948"
       inkscape:connector-curvature="0" />
    <path
       d="m 192.36398,4.3081551 -1.0625,0.1171875 q -0.0391,-0.328125 -0.20312,-0.484375 -0.16406,-0.15625 -0.42578,-0.15625 -0.34766,0 -0.58985,0.3125 -0.23828,0.3125 -0.30078,1.3007812 0.41016,-0.484375 1.01953,-0.484375 0.6875,0 1.17578,0.5234375 0.49219,0.5234375 0.49219,1.3515625 0,0.8789063 -0.51562,1.4101563 -0.51563,0.53125 -1.32422,0.53125 -0.86719,0 -1.42578,-0.671875 -0.5586,-0.6757813 -0.5586,-2.2109375 0,-1.5742188 0.58203,-2.2695313 0.58204,-0.6953125 1.51172,-0.6953125 0.65235,0 1.07813,0.3671875 0.42969,0.3632813 0.54687,1.0585938 z m -2.48828,2.3945312 q 0,0.5351563 0.2461,0.828125 0.24609,0.2890625 0.5625,0.2890625 0.30468,0 0.50781,-0.2382812 0.20312,-0.2382813 0.20312,-0.78125 0,-0.5585938 -0.21875,-0.8164063 -0.21875,-0.2617187 -0.54687,-0.2617187 -0.31641,0 -0.53516,0.25 -0.21875,0.2460937 -0.21875,0.7304687 z"
       id="path950"
       inkscape:connector-curvature="0" />
    <path
       d="m 194.03976,5.5425301 q -0.42578,-0.1796875 -0.62109,-0.4921875 -0.19141,-0.3164063 -0.19141,-0.6914063 0,-0.640625 0.44532,-1.0585937 0.44922,-0.4179688 1.27343,-0.4179688 0.81641,0 1.26563,0.4179688 0.45312,0.4179687 0.45312,1.0585937 0,0.3984375 -0.20703,0.7109375 -0.20703,0.3085938 -0.58203,0.4726563 0.47656,0.1914062 0.72266,0.5585937 0.25,0.3671875 0.25,0.8476563 0,0.7929687 -0.50781,1.2890625 -0.50391,0.4960937 -1.34375,0.4960937 -0.78125,0 -1.30079,-0.4101562 -0.61328,-0.484375 -0.61328,-1.328125 0,-0.4648438 0.23047,-0.8515625 0.23047,-0.390625 0.72656,-0.6015625 z m 0.22657,-1.1054688 q 0,0.328125 0.18359,0.5117188 0.1875,0.1835937 0.49609,0.1835937 0.3125,0 0.5,-0.1835937 0.1875,-0.1875 0.1875,-0.515625 0,-0.3085938 -0.1875,-0.4921875 -0.18359,-0.1875 -0.48828,-0.1875 -0.3164,0 -0.5039,0.1875 -0.1875,0.1875 -0.1875,0.4960937 z m -0.10157,2.453125 q 0,0.453125 0.23047,0.7070313 0.23438,0.2539062 0.58203,0.2539062 0.33985,0 0.5625,-0.2421875 0.22266,-0.2460937 0.22266,-0.7070312 0,-0.4023438 -0.22656,-0.6445313 -0.22656,-0.2460937 -0.57422,-0.2460937 -0.40234,0 -0.60156,0.2773437 -0.19532,0.2773438 -0.19532,0.6015625 z"
       id="path952"
       inkscape:connector-curvature="0" />
    <path
       d="M 197.55148,4.0034676 V 2.9839363 h 3.75391 v 0.796875 q -0.46484,0.4570313 -0.94531,1.3125 -0.48047,0.8554688 -0.73438,1.8203125 -0.25,0.9609375 -0.24609,1.71875 h -1.0586 q 0.0274,-1.1875 0.48829,-2.421875 0.46484,-1.234375 1.23828,-2.2070312 z"
       id="path954"
       inkscape:connector-curvature="0" />
  </g>
  <path
     style="opacity:1;fill:#aae65a;fill-opacity:0.41563785;stroke:none;stroke-width:1.70000005;stroke-linecap:round;stroke-linejoin:round;stroke-miterlimit:4;stroke-dasharray:none;stroke-dashoffset:0;stroke-opacity:0.5473251"
     inkscape:transform-center-x="0.060860426"
     inkscape:transform-center-y="-0.71058869"
     d="M 129.13784,51.518762 C 154.05682,62.988546 84.755896,139.19861 116.58215,122.90126 148.40841,106.60392 93.250371,68.521908 110.4593,49.367626 127.66824,30.213344 95.26451,103.05531 133.28718,95.476378 171.30986,87.897447 85.339766,39.640503 122.1357,48.435209 c 36.79593,8.794707 -29.184075,13.764274 -10.00061,43.034661 19.18348,29.27039 7.79953,-30.30063 34.38413,-20.994268 26.5846,9.306362 -28.8989,32.442168 -21.54053,65.433878 7.35836,32.99171 89.42695,-65.414834 78.81095,-43.004775 -10.61599,22.410055 -42.94702,1.097128 -60.10207,17.071835 -17.15506,15.97471 14.55438,26.74172 2.56144,50.64642 -11.99294,23.90471 -28.55562,-55.69851 -46.10853,-41.71546 -17.552914,13.98304 90.39729,26.8916 85.24074,62.01389 -5.15656,35.12228 -23.4431,-120.786567 -32.62082,-88.508282 -9.17772,32.278282 37.36367,62.195882 3.40784,69.584182 -33.95583,7.3883 -7.95189,-36.26201 -35.36271,-38.99062 -27.410817,-2.72861 24.45597,27.33171 0.49597,17.8457 -23.959995,-9.48601 39.67725,-28.17745 8.5304,-31.47678 -31.146841,-3.29932 -3.6971,28.56348 -31.762842,17.24725 C 70.003316,115.30661 146.09352,115.4203 110.65285,107.96153 75.212176,100.50276 80.628606,130.23608 59.854696,121.12405 39.080776,112.01202 164.78301,134.1216 148.06162,104.30189 131.34023,74.482181 72.912846,112.02409 84.010816,84.75073 95.108792,57.477371 146.40932,176.14899 136.65403,137.61053 126.89874,99.072062 66.415006,132.1346 80.649006,100.58474 94.88301,69.034873 62.530716,88.135793 97.623465,85.111519 132.71622,82.087245 104.21887,40.048977 129.13784,51.518762 Z"
     id="path889"
     inkscape:connector-curvature="0" />
  <path
     style="fill:#ffe900;stroke:none;stroke-width:1px;stroke-linecap:butt;stroke-linejoin:miter;stroke-opacity:1;fill-opacity:0.69135803"
     d="m 141.11366,102.17566 5.85534,8.78301 8.19747,-2.92767 1.17107,-15.516647 6.44087,15.516647 15.80942,-1.46383 -14.93111,12.58897 4.68427,20.78646 -9.07578,-16.39495 -12.29621,9.36854 -5.85534,-16.68772 z"
     id="path892"
     inkscape:connector-curvature="0" />
  <path
     style="fill:#ff0000;fill-opacity:0.69135802;stroke:none;stroke-width:1px;stroke-linecap:butt;stroke-linejoin:miter;stroke-opacity:1"
     d="m 157.16016,108.18164 c -1.98591,2.46257 -11.18054,7.69489 -12.96487,2.22262 -2.97921,-1.7623 -0.0572,10.53034 1.89742,13.97694 0.77,9.92393 7.51855,-0.1 11.96002,-2.42612 4.75195,-1.43495 6.09187,9.33205 3.65235,-2.35938 0.11527,-4.05158 10.58454,-8.2614 9.72497,-10.35694 -6.23049,1.26649 -12.10808,1.9429 -12.79899,-5.98135 -1.68418,-6.252878 -0.94027,3.85981 -1.4709,4.92423 z"
     id="path894"
     inkscape:connector-curvature="0" />
</svg>
