<?xml version="1.0" encoding="UTF-8" standalone="no"?>
<!-- Created with Inkscape (http://www.inkscape.org/) -->
<svg xmlns:dc="http://purl.org/dc/elements/1.1/" xmlns:cc="http://creativecommons.org/ns#" xmlns:rdf="http://www.w3.org/1999/02/22-rdf-syntax-ns#" xmlns:svg="http://www.w3.org/2000/svg" xmlns="http://www.w3.org/2000/svg" xmlns:xlink="http://www.w3.org/1999/xlink" xmlns:sodipodi="http://sodipodi.sourceforge.net/DTD/sodipodi-0.dtd" xmlns:inkscape="http://www.inkscape.org/namespaces/inkscape" id="svg2" version="1.1" inkscape:version="0.92.5 (2060ec1f9f, 2020-04-08)" width="255" height="255" sodipodi:docname="Wesnoth.svg">
 <metadata id="metadata8">
  <rdf:RDF>
   <cc:Work>
    <dc:format>image/svg+xml</dc:format>
    <dc:type rdf:resource="http://purl.org/dc/dcmitype/StillImage"/>
    <dc:title/>
   </cc:Work>
  </rdf:RDF>
 </metadata>
 <defs id="defs6">
  <linearGradient id="linearGradient4201">
   <stop id="stop4203" stop-color="#ffffff" stop-opacity="0"/>
   <stop offset="0.919" id="stop4205" stop-color="#ffffff" stop-opacity="0"/>
   <stop id="stop4207" offset="1" stop-color="#ffffff" stop-opacity="0.65"/>
  </linearGradient>
  <linearGradient id="linearGradient3880">
   <stop id="stop3882" stop-color="#000000" stop-opacity="1"/>
   <stop id="stop3884" offset="1" stop-color="#000000" stop-opacity="0"/>
  </linearGradient>
  <linearGradient id="linearGradient3823">
   <stop id="stop3825" stop-color="#a6a6a6" stop-opacity="1"/>
   <stop id="stop3831" offset="0.792" stop-color="#000000" stop-opacity="1"/>
   <stop offset="1" id="stop3827" stop-color="#3f3f3f" stop-opacity="1"/>
  </linearGradient>
  <linearGradient id="linearGradient3815">
   <stop id="stop3817" stop-color="#000000" stop-opacity="1"/>
   <stop id="stop3819" offset="1" stop-color="#ededed" stop-opacity="0"/>
  </linearGradient>
  <linearGradient id="linearGradient3810">
   <stop id="stop3812" stop-color="#ffffff" stop-opacity="0"/>
   <stop id="stop4199" offset="0.843" stop-color="#ffffff" stop-opacity="0"/>
   <stop offset="1" id="stop3814" stop-color="#ffffff" stop-opacity="0.65"/>
  </linearGradient>
  <linearGradient id="linearGradient3765">
   <stop id="stop3767" stop-color="#b4b4b4" stop-opacity="1"/>
   <stop offset="1" id="stop3769" stop-color="#000000" stop-opacity="1"/>
  </linearGradient>
  <linearGradient id="linearGradient3757">
   <stop id="stop3759" stop-color="#ffffff" stop-opacity="1"/>
   <stop offset="1" id="stop3761" stop-color="#181818" stop-opacity="1"/>
  </linearGradient>
  <linearGradient inkscape:collect="always" xlink:href="#linearGradient3757" id="linearGradient3763" x1="6.04" y1="107.98" x2="36.38" y2="122.13" gradientUnits="userSpaceOnUse" spreadMethod="reflect" gradientTransform="matrix(1.0253727,0,0,1.0253727,25.46695,22.522387)"/>
  <linearGradient inkscape:collect="always" xlink:href="#linearGradient3765" id="linearGradient3798" gradientUnits="userSpaceOnUse" gradientTransform="matrix(0.98646969,0,0,0.98646969,29.227777,26.296322)" spreadMethod="reflect" x1="54.01" y1="64.718" x2="23.525" y2="37.02"/>
  <linearGradient inkscape:collect="always" xlink:href="#linearGradient3757" id="linearGradient3806" x1="29.06" y1="56.04" x2="50.643" y2="88.44" gradientUnits="userSpaceOnUse" spreadMethod="reflect" gradientTransform="matrix(1.0253727,0,0,1.0253727,25.46695,22.505485)"/>
  <linearGradient inkscape:collect="always" xlink:href="#linearGradient3815" id="linearGradient3813" gradientUnits="userSpaceOnUse" gradientTransform="matrix(0.98646969,0,0,0.98646969,29.227777,26.296322)" spreadMethod="reflect" x1="168.07" y1="164.42" x2="134.4" y2="133.27"/>
  <radialGradient inkscape:collect="always" xlink:href="#linearGradient3823" id="radialGradient3829" cx="48.915" cy="47.32" fx="40.896" fy="39.908" r="16.221" gradientUnits="userSpaceOnUse" spreadMethod="reflect" gradientTransform="matrix(2.1585574,0,0,2.1585574,14.287251,14.631327)"/>
  <linearGradient inkscape:collect="always" xlink:href="#linearGradient3757" id="linearGradient3839" x1="38.4" y1="38.578" x2="46.05" y2="46.23" gradientUnits="userSpaceOnUse" spreadMethod="reflect" gradientTransform="matrix(2.1585574,0,0,2.1585574,14.287251,14.631327)"/>
  <linearGradient inkscape:collect="always" xlink:href="#linearGradient3880" id="linearGradient3110" gradientUnits="userSpaceOnUse" gradientTransform="matrix(-1.0253727,0,0,-1.0253727,224.03391,222.87032)" x1="39.25" y1="38.49" x2="50.744" y2="48.12"/>
  <radialGradient inkscape:collect="always" xlink:href="#linearGradient3765" id="radialGradient4195" cx="96.96" cy="96.85" fx="70.35" fy="51.52" r="95.77" gradientUnits="userSpaceOnUse" spreadMethod="reflect" gradientTransform="matrix(0.88943498,0.01087501,-0.01080772,0.88393139,39.661441,35.253558)"/>
  <radialGradient inkscape:collect="always" xlink:href="#linearGradient4201" id="radialGradient4197" cx="50.03" cy="50.02" fx="50.03" fy="50.02" r="21.883" gradientTransform="matrix(3.1640581,-2.8745666,2.55433,2.8115715,-161.45486,124.27726)" gradientUnits="userSpaceOnUse"/>
  <radialGradient inkscape:collect="always" xlink:href="#linearGradient3810" id="radialGradient4209" cx="49.749" cy="50.09" fx="49.749" fy="50.09" r="8.03" gradientTransform="matrix(3.9118299,-2.8366982,2.1804219,3.0068199,-179.81188,112.74277)" gradientUnits="userSpaceOnUse"/>
  <filter inkscape:collect="always" id="filter2262" x="-0.036" width="1.072" y="-0.036" height="1.072" color-interpolation-filters="sRGB">
   <feGaussianBlur inkscape:collect="always" stdDeviation="2.89994" id="feGaussianBlur2264"/>
  </filter>
  <linearGradient id="linearGradient3220">
   <stop id="stop3222" stop-color="#b6b6b6" stop-opacity="1"/>
   <stop offset="1" id="stop3224" stop-color="#000000" stop-opacity="1"/>
  </linearGradient>
  <radialGradient inkscape:collect="always" xlink:href="#linearGradient3220" id="radialGradient3269-6" gradientUnits="userSpaceOnUse" gradientTransform="matrix(1,0,0,1.1228135,0,-29.601019)" spreadMethod="reflect" cx="562.44" cy="239.3" fx="562.44" fy="239.3" r="7.282"/>
  <filter height="1.049" y="-0.025" width="1.047" x="-0.023" id="filter5430" inkscape:collect="always" color-interpolation-filters="sRGB">
   <feGaussianBlur id="feGaussianBlur5432" stdDeviation="1.91742" inkscape:collect="always"/>
  </filter>
 </defs>
 <sodipodi:namedview pagecolor="#ff0000" bordercolor="#666666" borderopacity="1" objecttolerance="10" gridtolerance="10" guidetolerance="10" inkscape:pageopacity="0" inkscape:pageshadow="2" inkscape:window-width="1920" inkscape:window-height="1056" id="namedview4" showgrid="false" inkscape:zoom="3.4862745" inkscape:cx="127.5" inkscape:cy="127.5" inkscape:window-x="0" inkscape:window-y="0" inkscape:window-maximized="1" inkscape:current-layer="svg2" showguides="true" inkscape:guide-bbox="true" inkscape:snap-global="false"/>
 <circle id="path2252" cx="129.08" cy="131.66" r="96.66" stroke-dasharray="none" stroke-opacity="1" fill="#000000" filter="url(#filter2262)" stroke="none" fill-opacity="0.987" stroke-width="12.208" stroke-miterlimit="4"/>
 <g id="g2727">
  <circle r="97.28" cy="122.44" cx="124.59" id="path2987" stroke-dasharray="none" stroke-opacity="1" fill="url(#radialGradient4195)" stroke="url(#linearGradient3763)" stroke-linejoin="round" fill-opacity="1" stroke-linecap="round" stroke-width="1.846" stroke-dashoffset="0" stroke-miterlimit="4"/>
  <path inkscape:connector-curvature="0" id="path3789" d="m 124.57563,28.817949 c -51.687469,0 -93.565259,41.909838 -93.565259,93.597291 0,51.68748 41.87779,93.59732 93.565259,93.59732 51.68747,0 93.5973,-41.90984 93.5973,-93.59732 0,-51.687453 -41.90983,-93.597291 -93.5973,-93.597291 z m 0,8.459322 c 47.02832,0 85.17002,38.109654 85.17002,85.137969 0,47.02832 -38.1417,85.17003 -85.17002,85.17003 -47.028316,0 -85.137977,-38.14171 -85.137977,-85.17003 0,-47.028315 38.109661,-85.137969 85.137977,-85.137969 z" fill="url(#linearGradient3798)" stroke="url(#linearGradient3806)" fill-opacity="1" stroke-width="1.025"/>
  <path sodipodi:nodetypes="ccc" inkscape:connector-curvature="0" id="path3808" d="M 134.87316,39.114138 C 85.742966,32.931318 38.034839,71.570294 40.493826,129.27542 54.137841,87.544827 80.674934,51.779906 134.87316,39.114138 Z" fill="url(#radialGradient4197)" stroke="none" fill-opacity="1" stroke-width="2.159"/>
  <path sodipodi:nodetypes="ccccc" d="m 124.57563,216.01256 c 51.68747,0 93.5973,-41.90984 93.5973,-93.59732 -2.66219,-3.24014 -5.54745,-3.65431 -8.42728,0 0,47.02832 -38.1417,85.17003 -85.17002,85.17003 -3.61542,2.0042 -3.3766,4.33581 0,8.42729 z" id="path3043" inkscape:connector-curvature="0" fill="url(#linearGradient3813)" stroke="none" fill-opacity="1" stroke-width="2.159"/>
  <circle r="35.01" cy="122.82" cx="124.58" id="path3821" stroke-dasharray="none" fill="url(#radialGradient3829)" stroke="url(#linearGradient3839)" fill-opacity="1" stroke-width="7.123" stroke-miterlimit="4"/>
  <path d="M 129.3653,92.776437 C 111.33444,90.507339 93.825472,104.6879 94.727926,125.86578 99.735302,110.55058 109.47446,97.424804 129.3653,92.776437 Z" id="path3106" inkscape:connector-curvature="0" sodipodi:nodetypes="ccc" fill="url(#radialGradient4209)" stroke="none" fill-opacity="1" stroke-width="2.159"/>
  <path d="m 114.6277,206.26166 c 49.13019,6.18285 96.83832,-32.45613 94.37933,-90.16126 -13.64401,41.7306 -40.1811,77.49552 -94.37933,90.16126 z" id="path3108" inkscape:connector-curvature="0" sodipodi:nodetypes="ccc" fill="url(#linearGradient3110)" stroke="none" fill-opacity="1" stroke-width="2.159"/>
  <g transform="matrix(1.6812505,0,0,1.6812505,148.41744,-5.2167162)" id="g4062">
   <circle r="4.8" cy="33.35" cx="-14.885" transform="matrix(1.1812448,0,0,1.1934478,3.7086538,-5.8345052)" id="path4060" fill="#7d7d7d" stroke="none" fill-opacity="1"/>
   <circle r="4.8" cy="33.35" cx="-14.885" id="path4058" transform="matrix(1.1400433,0,0,1.1518207,2.8926926,-4.6217146)" fill="#dfdfdf" stroke="none" fill-opacity="1"/>
   <circle r="4.8" cy="33.35" cx="-14.885" transform="matrix(1.0791768,0,0,1.093229,2.0035477,-2.561456)" id="path4056" fill="#555555" stroke="none" fill-opacity="1"/>
   <circle r="4.8" cy="33.35" cx="-14.885" id="path3180" transform="matrix(1.0117204,0,0,1.0117204,0.9663109,0.00327372)" fill="#848484" stroke="none" fill-opacity="1"/>
   <circle r="4.8" cy="33.35" cx="-14.885" transform="matrix(0.94349834,0,0,0.9123737,-0.27956509,3.209086)" id="path3950" fill="#535353" stroke="none" fill-opacity="1"/>
   <circle r="4.8" cy="33.35" cx="-14.885" transform="matrix(0.85271182,0,0,0.85271182,-1.7207288,5.0570854)" id="path3952" fill="#2a2a2a" stroke="none" fill-opacity="1"/>
   <circle r="4.8" cy="33.35" cx="-14.885" id="path3954" transform="matrix(0.78220115,0,0,0.78220115,-2.9933878,7.2316005)" fill="#0d0d0d" stroke="none" fill-opacity="1"/>
   <circle r="4.8" cy="33.35" cx="-14.885" transform="matrix(0.68553138,0,0,0.68553138,-4.6367667,10.258778)" id="path3956" fill="#2d2d2d" stroke="none" fill-opacity="1"/>
   <circle r="4.8" cy="33.35" cx="-14.885" id="path3958" transform="matrix(0.59302761,0,0,0.59302761,-6.1586114,13.129033)" fill="#5a5a5a" stroke="none" fill-opacity="1"/>
   <circle r="4.8" cy="33.35" cx="-14.885" transform="matrix(0.51147442,0,0,0.51147442,-7.542099,15.64312)" id="path3960" fill="#8f8f8f" stroke="none" fill-opacity="1"/>
   <circle r="4.8" cy="33.35" cx="-14.885" id="path3962" transform="matrix(0.43031824,0,0,0.43031824,-8.9444002,18.252384)" fill="#c5c5c5" stroke="none" fill-opacity="1"/>
   <circle r="4.8" cy="33.35" cx="-14.885" transform="matrix(0.33538098,0,0,0.33538098,-10.540773,21.20898)" id="path3964" fill="#e7e7e7" stroke="none" fill-opacity="1"/>
   <circle r="4.8" cy="33.35" cx="-14.885" id="path3966" transform="matrix(0.24690798,0,0,0.24690798,-11.99036,24.087508)" fill="#ffffff" stroke="none" fill-opacity="1"/>
  </g>
  <g id="g4101" transform="matrix(1.6812505,0,0,1.6812505,76.552325,65.60689)">
   <circle r="4.8" cy="33.35" cx="-14.885" id="path4103" transform="matrix(1.1812448,0,0,1.1934478,3.7086538,-5.8345052)" fill="#7d7d7d" stroke="none" fill-opacity="1"/>
   <circle r="4.8" cy="33.35" cx="-14.885" transform="matrix(1.1400433,0,0,1.1518207,2.8926926,-4.6217146)" id="path4105" fill="#dfdfdf" stroke="none" fill-opacity="1"/>
   <circle r="4.8" cy="33.35" cx="-14.885" id="path4107" transform="matrix(1.0791768,0,0,1.093229,2.0035477,-2.561456)" fill="#555555" stroke="none" fill-opacity="1"/>
   <circle r="4.8" cy="33.35" cx="-14.885" transform="matrix(1.0117204,0,0,1.0117204,0.9663109,0.00327372)" id="path4109" fill="#848484" stroke="none" fill-opacity="1"/>
   <circle r="4.8" cy="33.35" cx="-14.885" id="path4111" transform="matrix(0.94349834,0,0,0.9123737,-0.27956509,3.209086)" fill="#535353" stroke="none" fill-opacity="1"/>
   <circle r="4.8" cy="33.35" cx="-14.885" id="path4113" transform="matrix(0.85271182,0,0,0.85271182,-1.7207288,5.0570854)" fill="#2a2a2a" stroke="none" fill-opacity="1"/>
   <circle r="4.8" cy="33.35" cx="-14.885" transform="matrix(0.78220115,0,0,0.78220115,-2.9933878,7.2316005)" id="path4115" fill="#0d0d0d" stroke="none" fill-opacity="1"/>
   <circle r="4.8" cy="33.35" cx="-14.885" id="path4117" transform="matrix(0.68553138,0,0,0.68553138,-4.6367667,10.258778)" fill="#2d2d2d" stroke="none" fill-opacity="1"/>
   <circle r="4.8" cy="33.35" cx="-14.885" transform="matrix(0.59302761,0,0,0.59302761,-6.1586114,13.129033)" id="path4119" fill="#5a5a5a" stroke="none" fill-opacity="1"/>
   <circle r="4.8" cy="33.35" cx="-14.885" id="path4121" transform="matrix(0.51147442,0,0,0.51147442,-7.542099,15.64312)" fill="#8f8f8f" stroke="none" fill-opacity="1"/>
   <circle r="4.8" cy="33.35" cx="-14.885" transform="matrix(0.43031824,0,0,0.43031824,-8.9444002,18.252384)" id="path4123" fill="#c5c5c5" stroke="none" fill-opacity="1"/>
   <circle r="4.8" cy="33.35" cx="-14.885" id="path4125" transform="matrix(0.33538098,0,0,0.33538098,-10.540773,21.20898)" fill="#e7e7e7" stroke="none" fill-opacity="1"/>
   <circle r="4.8" cy="33.35" cx="-14.885" transform="matrix(0.24690798,0,0,0.24690798,-11.99036,24.087508)" id="path4127" fill="#ffffff" stroke="none" fill-opacity="1"/>
  </g>
  <g transform="matrix(1.6812505,0,0,1.6812505,146.3344,135.90972)" id="g4129">
   <circle r="4.8" cy="33.35" cx="-14.885" transform="matrix(1.1812448,0,0,1.1934478,3.7086538,-5.8345052)" id="path4131" fill="#7d7d7d" stroke="none" fill-opacity="1"/>
   <circle r="4.8" cy="33.35" cx="-14.885" id="path4133" transform="matrix(1.1400433,0,0,1.1518207,2.8926926,-4.6217146)" fill="#dfdfdf" stroke="none" fill-opacity="1"/>
   <circle r="4.8" cy="33.35" cx="-14.885" transform="matrix(1.0791768,0,0,1.093229,2.0035477,-2.561456)" id="path4135" fill="#555555" stroke="none" fill-opacity="1"/>
   <circle r="4.8" cy="33.35" cx="-14.885" id="path4137" transform="matrix(1.0117204,0,0,1.0117204,0.9663109,0.00327372)" fill="#848484" stroke="none" fill-opacity="1"/>
   <circle r="4.8" cy="33.35" cx="-14.885" transform="matrix(0.94349834,0,0,0.9123737,-0.27956509,3.209086)" id="path4139" fill="#535353" stroke="none" fill-opacity="1"/>
   <circle r="4.8" cy="33.35" cx="-14.885" transform="matrix(0.85271182,0,0,0.85271182,-1.7207288,5.0570854)" id="path4141" fill="#2a2a2a" stroke="none" fill-opacity="1"/>
   <circle r="4.8" cy="33.35" cx="-14.885" id="path4143" transform="matrix(0.78220115,0,0,0.78220115,-2.9933878,7.2316005)" fill="#0d0d0d" stroke="none" fill-opacity="1"/>
   <circle r="4.8" cy="33.35" cx="-14.885" transform="matrix(0.68553138,0,0,0.68553138,-4.6367667,10.258778)" id="path4145" fill="#2d2d2d" stroke="none" fill-opacity="1"/>
   <circle r="4.8" cy="33.35" cx="-14.885" id="path4147" transform="matrix(0.59302761,0,0,0.59302761,-6.1586114,13.129033)" fill="#5a5a5a" stroke="none" fill-opacity="1"/>
   <circle r="4.8" cy="33.35" cx="-14.885" transform="matrix(0.51147442,0,0,0.51147442,-7.542099,15.64312)" id="path4149" fill="#8f8f8f" stroke="none" fill-opacity="1"/>
   <circle r="4.8" cy="33.35" cx="-14.885" id="path4151" transform="matrix(0.43031824,0,0,0.43031824,-8.9444002,18.252384)" fill="#c5c5c5" stroke="none" fill-opacity="1"/>
   <circle r="4.8" cy="33.35" cx="-14.885" transform="matrix(0.33538098,0,0,0.33538098,-10.540773,21.20898)" id="path4153" fill="#e7e7e7" stroke="none" fill-opacity="1"/>
   <circle r="4.8" cy="33.35" cx="-14.885" id="path4155" transform="matrix(0.24690798,0,0,0.24690798,-11.99036,24.087508)" fill="#ffffff" stroke="none" fill-opacity="1"/>
  </g>
  <g id="g4157" transform="matrix(1.6812505,0,0,1.6812505,218.19952,65.60689)">
   <circle r="4.8" cy="33.35" cx="-14.885" id="path4159" transform="matrix(1.1812448,0,0,1.1934478,3.7086538,-5.8345052)" fill="#7d7d7d" stroke="none" fill-opacity="1"/>
   <circle r="4.8" cy="33.35" cx="-14.885" transform="matrix(1.1400433,0,0,1.1518207,2.8926926,-4.6217146)" id="path4161" fill="#dfdfdf" stroke="none" fill-opacity="1"/>
   <circle r="4.8" cy="33.35" cx="-14.885" id="path4163" transform="matrix(1.0791768,0,0,1.093229,2.0035477,-2.561456)" fill="#555555" stroke="none" fill-opacity="1"/>
   <circle r="4.8" cy="33.35" cx="-14.885" transform="matrix(1.0117204,0,0,1.0117204,0.9663109,0.00327372)" id="path4165" fill="#848484" stroke="none" fill-opacity="1"/>
   <circle r="4.8" cy="33.35" cx="-14.885" id="path4167" transform="matrix(0.94349834,0,0,0.9123737,-0.27956509,3.209086)" fill="#535353" stroke="none" fill-opacity="1"/>
   <circle r="4.8" cy="33.35" cx="-14.885" id="path4169" transform="matrix(0.85271182,0,0,0.85271182,-1.7207288,5.0570854)" fill="#2a2a2a" stroke="none" fill-opacity="1"/>
   <circle r="4.8" cy="33.35" cx="-14.885" transform="matrix(0.78220115,0,0,0.78220115,-2.9933878,7.2316005)" id="path4171" fill="#0d0d0d" stroke="none" fill-opacity="1"/>
   <circle r="4.8" cy="33.35" cx="-14.885" id="path4173" transform="matrix(0.68553138,0,0,0.68553138,-4.6367667,10.258778)" fill="#2d2d2d" stroke="none" fill-opacity="1"/>
   <circle r="4.8" cy="33.35" cx="-14.885" transform="matrix(0.59302761,0,0,0.59302761,-6.1586114,13.129033)" id="path4175" fill="#5a5a5a" stroke="none" fill-opacity="1"/>
   <circle r="4.8" cy="33.35" cx="-14.885" id="path4177" transform="matrix(0.51147442,0,0,0.51147442,-7.542099,15.64312)" fill="#8f8f8f" stroke="none" fill-opacity="1"/>
   <circle r="4.8" cy="33.35" cx="-14.885" transform="matrix(0.43031824,0,0,0.43031824,-8.9444002,18.252384)" id="path4179" fill="#c5c5c5" stroke="none" fill-opacity="1"/>
   <circle r="4.8" cy="33.35" cx="-14.885" id="path4181" transform="matrix(0.33538098,0,0,0.33538098,-10.540773,21.20898)" fill="#e7e7e7" stroke="none" fill-opacity="1"/>
   <circle r="4.8" cy="33.35" cx="-14.885" transform="matrix(0.24690798,0,0,0.24690798,-11.99036,24.087508)" id="path4183" fill="#ffffff" stroke="none" fill-opacity="1"/>
  </g>
  <g id="g4185" transform="matrix(0.6253809,0,0,0.6253809,133.50567,12.106247)">
   <circle r="4.8" cy="33.35" cx="-14.885" id="path4187" transform="matrix(1.1812448,0,0,1.1934478,3.7086538,-5.8345052)" fill="#7d7d7d" stroke="none" fill-opacity="1"/>
   <circle r="4.8" cy="33.35" cx="-14.885" transform="matrix(1.1400433,0,0,1.1518207,2.8926926,-4.6217146)" id="path4189" fill="#dfdfdf" stroke="none" fill-opacity="1"/>
   <circle r="4.8" cy="33.35" cx="-14.885" id="path4191" transform="matrix(1.0791768,0,0,1.093229,2.0035477,-2.561456)" fill="#555555" stroke="none" fill-opacity="1"/>
   <circle r="4.8" cy="33.35" cx="-14.885" transform="matrix(1.0117204,0,0,1.0117204,0.9663109,0.00327372)" id="path4193" fill="#848484" stroke="none" fill-opacity="1"/>
   <circle r="4.8" cy="33.35" cx="-14.885" id="path4195" transform="matrix(0.94349834,0,0,0.9123737,-0.27956509,3.209086)" fill="#535353" stroke="none" fill-opacity="1"/>
   <circle r="4.8" cy="33.35" cx="-14.885" id="path4197" transform="matrix(0.85271182,0,0,0.85271182,-1.7207288,5.0570854)" fill="#2a2a2a" stroke="none" fill-opacity="1"/>
   <circle r="4.8" cy="33.35" cx="-14.885" transform="matrix(0.78220115,0,0,0.78220115,-2.9933878,7.2316005)" id="path4199" fill="#0d0d0d" stroke="none" fill-opacity="1"/>
   <circle r="4.8" cy="33.35" cx="-14.885" id="path4201" transform="matrix(0.68553138,0,0,0.68553138,-4.6367667,10.258778)" fill="#2d2d2d" stroke="none" fill-opacity="1"/>
   <circle r="4.8" cy="33.35" cx="-14.885" transform="matrix(0.59302761,0,0,0.59302761,-6.1586114,13.129033)" id="path4203" fill="#5a5a5a" stroke="none" fill-opacity="1"/>
   <circle r="4.8" cy="33.35" cx="-14.885" id="path4205" transform="matrix(0.51147442,0,0,0.51147442,-7.542099,15.64312)" fill="#8f8f8f" stroke="none" fill-opacity="1"/>
   <circle r="4.8" cy="33.35" cx="-14.885" transform="matrix(0.43031824,0,0,0.43031824,-8.9444002,18.252384)" id="path4207" fill="#c5c5c5" stroke="none" fill-opacity="1"/>
   <circle r="4.8" cy="33.35" cx="-14.885" id="path4209" transform="matrix(0.33538098,0,0,0.33538098,-10.540773,21.20898)" fill="#e7e7e7" stroke="none" fill-opacity="1"/>
   <circle r="4.8" cy="33.35" cx="-14.885" transform="matrix(0.24690798,0,0,0.24690798,-11.99036,24.087508)" id="path4211" fill="#ffffff" stroke="none" fill-opacity="1"/>
  </g>
  <g transform="matrix(0.6253809,0,0,0.6253809,178.81194,24.083758)" id="g4213">
   <circle r="4.8" cy="33.35" cx="-14.885" transform="matrix(1.1812448,0,0,1.1934478,3.7086538,-5.8345052)" id="path4215" fill="#7d7d7d" stroke="none" fill-opacity="1"/>
   <circle r="4.8" cy="33.35" cx="-14.885" id="path4217" transform="matrix(1.1400433,0,0,1.1518207,2.8926926,-4.6217146)" fill="#dfdfdf" stroke="none" fill-opacity="1"/>
   <circle r="4.8" cy="33.35" cx="-14.885" transform="matrix(1.0791768,0,0,1.093229,2.0035477,-2.561456)" id="path4219" fill="#555555" stroke="none" fill-opacity="1"/>
   <circle r="4.8" cy="33.35" cx="-14.885" id="path4221" transform="matrix(1.0117204,0,0,1.0117204,0.9663109,0.00327372)" fill="#848484" stroke="none" fill-opacity="1"/>
   <circle r="4.8" cy="33.35" cx="-14.885" transform="matrix(0.94349834,0,0,0.9123737,-0.27956509,3.209086)" id="path4223" fill="#535353" stroke="none" fill-opacity="1"/>
   <circle r="4.8" cy="33.35" cx="-14.885" transform="matrix(0.85271182,0,0,0.85271182,-1.7207288,5.0570854)" id="path4225" fill="#2a2a2a" stroke="none" fill-opacity="1"/>
   <circle r="4.8" cy="33.35" cx="-14.885" id="path4227" transform="matrix(0.78220115,0,0,0.78220115,-2.9933878,7.2316005)" fill="#0d0d0d" stroke="none" fill-opacity="1"/>
   <circle r="4.8" cy="33.35" cx="-14.885" transform="matrix(0.68553138,0,0,0.68553138,-4.6367667,10.258778)" id="path4229" fill="#2d2d2d" stroke="none" fill-opacity="1"/>
   <circle r="4.8" cy="33.35" cx="-14.885" id="path4231" transform="matrix(0.59302761,0,0,0.59302761,-6.1586114,13.129033)" fill="#5a5a5a" stroke="none" fill-opacity="1"/>
   <circle r="4.8" cy="33.35" cx="-14.885" transform="matrix(0.51147442,0,0,0.51147442,-7.542099,15.64312)" id="path4233" fill="#8f8f8f" stroke="none" fill-opacity="1"/>
   <circle r="4.8" cy="33.35" cx="-14.885" id="path4235" transform="matrix(0.43031824,0,0,0.43031824,-8.9444002,18.252384)" fill="#c5c5c5" stroke="none" fill-opacity="1"/>
   <circle r="4.8" cy="33.35" cx="-14.885" transform="matrix(0.33538098,0,0,0.33538098,-10.540773,21.20898)" id="path4237" fill="#e7e7e7" stroke="none" fill-opacity="1"/>
   <circle r="4.8" cy="33.35" cx="-14.885" id="path4239" transform="matrix(0.24690798,0,0,0.24690798,-11.99036,24.087508)" fill="#ffffff" stroke="none" fill-opacity="1"/>
  </g>
  <g id="g4241" transform="matrix(0.6253809,0,0,0.6253809,211.35955,57.933262)">
   <circle r="4.8" cy="33.35" cx="-14.885" id="path4243" transform="matrix(1.1812448,0,0,1.1934478,3.7086538,-5.8345052)" fill="#7d7d7d" stroke="none" fill-opacity="1"/>
   <circle r="4.8" cy="33.35" cx="-14.885" transform="matrix(1.1400433,0,0,1.1518207,2.8926926,-4.6217146)" id="path4245" fill="#dfdfdf" stroke="none" fill-opacity="1"/>
   <circle r="4.8" cy="33.35" cx="-14.885" id="path4247" transform="matrix(1.0791768,0,0,1.093229,2.0035477,-2.561456)" fill="#555555" stroke="none" fill-opacity="1"/>
   <circle r="4.8" cy="33.35" cx="-14.885" transform="matrix(1.0117204,0,0,1.0117204,0.9663109,0.00327372)" id="path4249" fill="#848484" stroke="none" fill-opacity="1"/>
   <circle r="4.8" cy="33.35" cx="-14.885" id="path4251" transform="matrix(0.94349834,0,0,0.9123737,-0.27956509,3.209086)" fill="#535353" stroke="none" fill-opacity="1"/>
   <circle r="4.8" cy="33.35" cx="-14.885" id="path4253" transform="matrix(0.85271182,0,0,0.85271182,-1.7207288,5.0570854)" fill="#2a2a2a" stroke="none" fill-opacity="1"/>
   <circle r="4.8" cy="33.35" cx="-14.885" transform="matrix(0.78220115,0,0,0.78220115,-2.9933878,7.2316005)" id="path4255" fill="#0d0d0d" stroke="none" fill-opacity="1"/>
   <circle r="4.8" cy="33.35" cx="-14.885" id="path4257" transform="matrix(0.68553138,0,0,0.68553138,-4.6367667,10.258778)" fill="#2d2d2d" stroke="none" fill-opacity="1"/>
   <circle r="4.8" cy="33.35" cx="-14.885" transform="matrix(0.59302761,0,0,0.59302761,-6.1586114,13.129033)" id="path4259" fill="#5a5a5a" stroke="none" fill-opacity="1"/>
   <circle r="4.8" cy="33.35" cx="-14.885" id="path4261" transform="matrix(0.51147442,0,0,0.51147442,-7.542099,15.64312)" fill="#8f8f8f" stroke="none" fill-opacity="1"/>
   <circle r="4.8" cy="33.35" cx="-14.885" transform="matrix(0.43031824,0,0,0.43031824,-8.9444002,18.252384)" id="path4263" fill="#c5c5c5" stroke="none" fill-opacity="1"/>
   <circle r="4.8" cy="33.35" cx="-14.885" id="path4265" transform="matrix(0.33538098,0,0,0.33538098,-10.540773,21.20898)" fill="#e7e7e7" stroke="none" fill-opacity="1"/>
   <circle r="4.8" cy="33.35" cx="-14.885" transform="matrix(0.24690798,0,0,0.24690798,-11.99036,24.087508)" id="path4267" fill="#ffffff" stroke="none" fill-opacity="1"/>
  </g>
  <g transform="matrix(0.6253809,0,0,0.6253809,222.29555,101.41688)" id="g4269">
   <circle r="4.8" cy="33.35" cx="-14.885" transform="matrix(1.1812448,0,0,1.1934478,3.7086538,-5.8345052)" id="path4271" fill="#7d7d7d" stroke="none" fill-opacity="1"/>
   <circle r="4.8" cy="33.35" cx="-14.885" id="path4273" transform="matrix(1.1400433,0,0,1.1518207,2.8926926,-4.6217146)" fill="#dfdfdf" stroke="none" fill-opacity="1"/>
   <circle r="4.8" cy="33.35" cx="-14.885" transform="matrix(1.0791768,0,0,1.093229,2.0035477,-2.561456)" id="path4275" fill="#555555" stroke="none" fill-opacity="1"/>
   <circle r="4.8" cy="33.35" cx="-14.885" id="path4277" transform="matrix(1.0117204,0,0,1.0117204,0.9663109,0.00327372)" fill="#848484" stroke="none" fill-opacity="1"/>
   <circle r="4.8" cy="33.35" cx="-14.885" transform="matrix(0.94349834,0,0,0.9123737,-0.27956509,3.209086)" id="path4279" fill="#535353" stroke="none" fill-opacity="1"/>
   <circle r="4.8" cy="33.35" cx="-14.885" transform="matrix(0.85271182,0,0,0.85271182,-1.7207288,5.0570854)" id="path4281" fill="#2a2a2a" stroke="none" fill-opacity="1"/>
   <circle r="4.8" cy="33.35" cx="-14.885" id="path4283" transform="matrix(0.78220115,0,0,0.78220115,-2.9933878,7.2316005)" fill="#0d0d0d" stroke="none" fill-opacity="1"/>
   <circle r="4.8" cy="33.35" cx="-14.885" transform="matrix(0.68553138,0,0,0.68553138,-4.6367667,10.258778)" id="path4285" fill="#2d2d2d" stroke="none" fill-opacity="1"/>
   <circle r="4.8" cy="33.35" cx="-14.885" id="path4287" transform="matrix(0.59302761,0,0,0.59302761,-6.1586114,13.129033)" fill="#5a5a5a" stroke="none" fill-opacity="1"/>
   <circle r="4.8" cy="33.35" cx="-14.885" transform="matrix(0.51147442,0,0,0.51147442,-7.542099,15.64312)" id="path4289" fill="#8f8f8f" stroke="none" fill-opacity="1"/>
   <circle r="4.8" cy="33.35" cx="-14.885" id="path4291" transform="matrix(0.43031824,0,0,0.43031824,-8.9444002,18.252384)" fill="#c5c5c5" stroke="none" fill-opacity="1"/>
   <circle r="4.8" cy="33.35" cx="-14.885" transform="matrix(0.33538098,0,0,0.33538098,-10.540773,21.20898)" id="path4293" fill="#e7e7e7" stroke="none" fill-opacity="1"/>
   <circle r="4.8" cy="33.35" cx="-14.885" id="path4295" transform="matrix(0.24690798,0,0,0.24690798,-11.99036,24.087508)" fill="#ffffff" stroke="none" fill-opacity="1"/>
  </g>
  <g id="g4297" transform="matrix(0.6253809,0,0,0.6253809,210.83879,146.20239)">
   <circle r="4.8" cy="33.35" cx="-14.885" id="path4299" transform="matrix(1.1812448,0,0,1.1934478,3.7086538,-5.8345052)" fill="#7d7d7d" stroke="none" fill-opacity="1"/>
   <circle r="4.8" cy="33.35" cx="-14.885" transform="matrix(1.1400433,0,0,1.1518207,2.8926926,-4.6217146)" id="path4301" fill="#dfdfdf" stroke="none" fill-opacity="1"/>
   <circle r="4.8" cy="33.35" cx="-14.885" id="path4303" transform="matrix(1.0791768,0,0,1.093229,2.0035477,-2.561456)" fill="#555555" stroke="none" fill-opacity="1"/>
   <circle r="4.8" cy="33.35" cx="-14.885" transform="matrix(1.0117204,0,0,1.0117204,0.9663109,0.00327372)" id="path4305" fill="#848484" stroke="none" fill-opacity="1"/>
   <circle r="4.8" cy="33.35" cx="-14.885" id="path4307" transform="matrix(0.94349834,0,0,0.9123737,-0.27956509,3.209086)" fill="#535353" stroke="none" fill-opacity="1"/>
   <circle r="4.8" cy="33.35" cx="-14.885" id="path4309" transform="matrix(0.85271182,0,0,0.85271182,-1.7207288,5.0570854)" fill="#2a2a2a" stroke="none" fill-opacity="1"/>
   <circle r="4.8" cy="33.35" cx="-14.885" transform="matrix(0.78220115,0,0,0.78220115,-2.9933878,7.2316005)" id="path4311" fill="#0d0d0d" stroke="none" fill-opacity="1"/>
   <circle r="4.8" cy="33.35" cx="-14.885" id="path4313" transform="matrix(0.68553138,0,0,0.68553138,-4.6367667,10.258778)" fill="#2d2d2d" stroke="none" fill-opacity="1"/>
   <circle r="4.8" cy="33.35" cx="-14.885" transform="matrix(0.59302761,0,0,0.59302761,-6.1586114,13.129033)" id="path4315" fill="#5a5a5a" stroke="none" fill-opacity="1"/>
   <circle r="4.8" cy="33.35" cx="-14.885" id="path4317" transform="matrix(0.51147442,0,0,0.51147442,-7.542099,15.64312)" fill="#8f8f8f" stroke="none" fill-opacity="1"/>
   <circle r="4.8" cy="33.35" cx="-14.885" transform="matrix(0.43031824,0,0,0.43031824,-8.9444002,18.252384)" id="path4319" fill="#c5c5c5" stroke="none" fill-opacity="1"/>
   <circle r="4.8" cy="33.35" cx="-14.885" id="path4321" transform="matrix(0.33538098,0,0,0.33538098,-10.540773,21.20898)" fill="#e7e7e7" stroke="none" fill-opacity="1"/>
   <circle r="4.8" cy="33.35" cx="-14.885" transform="matrix(0.24690798,0,0,0.24690798,-11.99036,24.087508)" id="path4323" fill="#ffffff" stroke="none" fill-opacity="1"/>
  </g>
  <g transform="matrix(0.6253809,0,0,0.6253809,177.77042,178.48962)" id="g4325">
   <circle r="4.8" cy="33.35" cx="-14.885" transform="matrix(1.1812448,0,0,1.1934478,3.7086538,-5.8345052)" id="path4327" fill="#7d7d7d" stroke="none" fill-opacity="1"/>
   <circle r="4.8" cy="33.35" cx="-14.885" id="path4329" transform="matrix(1.1400433,0,0,1.1518207,2.8926926,-4.6217146)" fill="#dfdfdf" stroke="none" fill-opacity="1"/>
   <circle r="4.8" cy="33.35" cx="-14.885" transform="matrix(1.0791768,0,0,1.093229,2.0035477,-2.561456)" id="path4331" fill="#555555" stroke="none" fill-opacity="1"/>
   <circle r="4.8" cy="33.35" cx="-14.885" id="path4333" transform="matrix(1.0117204,0,0,1.0117204,0.9663109,0.00327372)" fill="#848484" stroke="none" fill-opacity="1"/>
   <circle r="4.8" cy="33.35" cx="-14.885" transform="matrix(0.94349834,0,0,0.9123737,-0.27956509,3.209086)" id="path4335" fill="#535353" stroke="none" fill-opacity="1"/>
   <circle r="4.8" cy="33.35" cx="-14.885" transform="matrix(0.85271182,0,0,0.85271182,-1.7207288,5.0570854)" id="path4337" fill="#2a2a2a" stroke="none" fill-opacity="1"/>
   <circle r="4.8" cy="33.35" cx="-14.885" id="path4339" transform="matrix(0.78220115,0,0,0.78220115,-2.9933878,7.2316005)" fill="#0d0d0d" stroke="none" fill-opacity="1"/>
   <circle r="4.8" cy="33.35" cx="-14.885" transform="matrix(0.68553138,0,0,0.68553138,-4.6367667,10.258778)" id="path4341" fill="#2d2d2d" stroke="none" fill-opacity="1"/>
   <circle r="4.8" cy="33.35" cx="-14.885" id="path4343" transform="matrix(0.59302761,0,0,0.59302761,-6.1586114,13.129033)" fill="#5a5a5a" stroke="none" fill-opacity="1"/>
   <circle r="4.8" cy="33.35" cx="-14.885" transform="matrix(0.51147442,0,0,0.51147442,-7.542099,15.64312)" id="path4345" fill="#8f8f8f" stroke="none" fill-opacity="1"/>
   <circle r="4.8" cy="33.35" cx="-14.885" id="path4347" transform="matrix(0.43031824,0,0,0.43031824,-8.9444002,18.252384)" fill="#c5c5c5" stroke="none" fill-opacity="1"/>
   <circle r="4.8" cy="33.35" cx="-14.885" transform="matrix(0.33538098,0,0,0.33538098,-10.540773,21.20898)" id="path4349" fill="#e7e7e7" stroke="none" fill-opacity="1"/>
   <circle r="4.8" cy="33.35" cx="-14.885" id="path4351" transform="matrix(0.24690798,0,0,0.24690798,-11.99036,24.087508)" fill="#ffffff" stroke="none" fill-opacity="1"/>
  </g>
  <g id="g4353" transform="matrix(0.6253809,0,0,0.6253809,133.76605,190.20675)">
   <circle r="4.8" cy="33.35" cx="-14.885" id="path4355" transform="matrix(1.1812448,0,0,1.1934478,3.7086538,-5.8345052)" fill="#7d7d7d" stroke="none" fill-opacity="1"/>
   <circle r="4.8" cy="33.35" cx="-14.885" transform="matrix(1.1400433,0,0,1.1518207,2.8926926,-4.6217146)" id="path4357" fill="#dfdfdf" stroke="none" fill-opacity="1"/>
   <circle r="4.8" cy="33.35" cx="-14.885" id="path4359" transform="matrix(1.0791768,0,0,1.093229,2.0035477,-2.561456)" fill="#555555" stroke="none" fill-opacity="1"/>
   <circle r="4.8" cy="33.35" cx="-14.885" transform="matrix(1.0117204,0,0,1.0117204,0.9663109,0.00327372)" id="path4361" fill="#848484" stroke="none" fill-opacity="1"/>
   <circle r="4.8" cy="33.35" cx="-14.885" id="path4363" transform="matrix(0.94349834,0,0,0.9123737,-0.27956509,3.209086)" fill="#535353" stroke="none" fill-opacity="1"/>
   <circle r="4.8" cy="33.35" cx="-14.885" id="path4365" transform="matrix(0.85271182,0,0,0.85271182,-1.7207288,5.0570854)" fill="#2a2a2a" stroke="none" fill-opacity="1"/>
   <circle r="4.8" cy="33.35" cx="-14.885" transform="matrix(0.78220115,0,0,0.78220115,-2.9933878,7.2316005)" id="path4367" fill="#0d0d0d" stroke="none" fill-opacity="1"/>
   <circle r="4.8" cy="33.35" cx="-14.885" id="path4369" transform="matrix(0.68553138,0,0,0.68553138,-4.6367667,10.258778)" fill="#2d2d2d" stroke="none" fill-opacity="1"/>
   <circle r="4.8" cy="33.35" cx="-14.885" transform="matrix(0.59302761,0,0,0.59302761,-6.1586114,13.129033)" id="path4371" fill="#5a5a5a" stroke="none" fill-opacity="1"/>
   <circle r="4.8" cy="33.35" cx="-14.885" id="path4373" transform="matrix(0.51147442,0,0,0.51147442,-7.542099,15.64312)" fill="#8f8f8f" stroke="none" fill-opacity="1"/>
   <circle r="4.8" cy="33.35" cx="-14.885" transform="matrix(0.43031824,0,0,0.43031824,-8.9444002,18.252384)" id="path4375" fill="#c5c5c5" stroke="none" fill-opacity="1"/>
   <circle r="4.8" cy="33.35" cx="-14.885" id="path4377" transform="matrix(0.33538098,0,0,0.33538098,-10.540773,21.20898)" fill="#e7e7e7" stroke="none" fill-opacity="1"/>
   <circle r="4.8" cy="33.35" cx="-14.885" transform="matrix(0.24690798,0,0,0.24690798,-11.99036,24.087508)" id="path4379" fill="#ffffff" stroke="none" fill-opacity="1"/>
  </g>
  <g transform="matrix(0.6253809,0,0,0.6253809,88.45978,179.53112)" id="g4381">
   <circle r="4.8" cy="33.35" cx="-14.885" transform="matrix(1.1812448,0,0,1.1934478,3.7086538,-5.8345052)" id="path4383" fill="#7d7d7d" stroke="none" fill-opacity="1"/>
   <circle r="4.8" cy="33.35" cx="-14.885" id="path4385" transform="matrix(1.1400433,0,0,1.1518207,2.8926926,-4.6217146)" fill="#dfdfdf" stroke="none" fill-opacity="1"/>
   <circle r="4.8" cy="33.35" cx="-14.885" transform="matrix(1.0791768,0,0,1.093229,2.0035477,-2.561456)" id="path4387" fill="#555555" stroke="none" fill-opacity="1"/>
   <circle r="4.8" cy="33.35" cx="-14.885" id="path4389" transform="matrix(1.0117204,0,0,1.0117204,0.9663109,0.00327372)" fill="#848484" stroke="none" fill-opacity="1"/>
   <circle r="4.8" cy="33.35" cx="-14.885" transform="matrix(0.94349834,0,0,0.9123737,-0.27956509,3.209086)" id="path4391" fill="#535353" stroke="none" fill-opacity="1"/>
   <circle r="4.8" cy="33.35" cx="-14.885" transform="matrix(0.85271182,0,0,0.85271182,-1.7207288,5.0570854)" id="path4393" fill="#2a2a2a" stroke="none" fill-opacity="1"/>
   <circle r="4.8" cy="33.35" cx="-14.885" id="path4395" transform="matrix(0.78220115,0,0,0.78220115,-2.9933878,7.2316005)" fill="#0d0d0d" stroke="none" fill-opacity="1"/>
   <circle r="4.8" cy="33.35" cx="-14.885" transform="matrix(0.68553138,0,0,0.68553138,-4.6367667,10.258778)" id="path4397" fill="#2d2d2d" stroke="none" fill-opacity="1"/>
   <circle r="4.8" cy="33.35" cx="-14.885" id="path4399" transform="matrix(0.59302761,0,0,0.59302761,-6.1586114,13.129033)" fill="#5a5a5a" stroke="none" fill-opacity="1"/>
   <circle r="4.8" cy="33.35" cx="-14.885" transform="matrix(0.51147442,0,0,0.51147442,-7.542099,15.64312)" id="path4401" fill="#8f8f8f" stroke="none" fill-opacity="1"/>
   <circle r="4.8" cy="33.35" cx="-14.885" id="path4403" transform="matrix(0.43031824,0,0,0.43031824,-8.9444002,18.252384)" fill="#c5c5c5" stroke="none" fill-opacity="1"/>
   <circle r="4.8" cy="33.35" cx="-14.885" transform="matrix(0.33538098,0,0,0.33538098,-10.540773,21.20898)" id="path4405" fill="#e7e7e7" stroke="none" fill-opacity="1"/>
   <circle r="4.8" cy="33.35" cx="-14.885" id="path4407" transform="matrix(0.24690798,0,0,0.24690798,-11.99036,24.087508)" fill="#ffffff" stroke="none" fill-opacity="1"/>
  </g>
  <g id="g4409" transform="matrix(0.6253809,0,0,0.6253809,56.172553,145.68162)">
   <circle r="4.8" cy="33.35" cx="-14.885" id="path4411" transform="matrix(1.1812448,0,0,1.1934478,3.7086538,-5.8345052)" fill="#7d7d7d" stroke="none" fill-opacity="1"/>
   <circle r="4.8" cy="33.35" cx="-14.885" transform="matrix(1.1400433,0,0,1.1518207,2.8926926,-4.6217146)" id="path4413" fill="#dfdfdf" stroke="none" fill-opacity="1"/>
   <circle r="4.8" cy="33.35" cx="-14.885" id="path4415" transform="matrix(1.0791768,0,0,1.093229,2.0035477,-2.561456)" fill="#555555" stroke="none" fill-opacity="1"/>
   <circle r="4.8" cy="33.35" cx="-14.885" transform="matrix(1.0117204,0,0,1.0117204,0.9663109,0.00327372)" id="path4417" fill="#848484" stroke="none" fill-opacity="1"/>
   <circle r="4.8" cy="33.35" cx="-14.885" id="path4419" transform="matrix(0.94349834,0,0,0.9123737,-0.27956509,3.209086)" fill="#535353" stroke="none" fill-opacity="1"/>
   <circle r="4.8" cy="33.35" cx="-14.885" id="path4421" transform="matrix(0.85271182,0,0,0.85271182,-1.7207288,5.0570854)" fill="#2a2a2a" stroke="none" fill-opacity="1"/>
   <circle r="4.8" cy="33.35" cx="-14.885" transform="matrix(0.78220115,0,0,0.78220115,-2.9933878,7.2316005)" id="path4423" fill="#0d0d0d" stroke="none" fill-opacity="1"/>
   <circle r="4.8" cy="33.35" cx="-14.885" id="path4425" transform="matrix(0.68553138,0,0,0.68553138,-4.6367667,10.258778)" fill="#2d2d2d" stroke="none" fill-opacity="1"/>
   <circle r="4.8" cy="33.35" cx="-14.885" transform="matrix(0.59302761,0,0,0.59302761,-6.1586114,13.129033)" id="path4427" fill="#5a5a5a" stroke="none" fill-opacity="1"/>
   <circle r="4.8" cy="33.35" cx="-14.885" id="path4429" transform="matrix(0.51147442,0,0,0.51147442,-7.542099,15.64312)" fill="#8f8f8f" stroke="none" fill-opacity="1"/>
   <circle r="4.8" cy="33.35" cx="-14.885" transform="matrix(0.43031824,0,0,0.43031824,-8.9444002,18.252384)" id="path4431" fill="#c5c5c5" stroke="none" fill-opacity="1"/>
   <circle r="4.8" cy="33.35" cx="-14.885" id="path4433" transform="matrix(0.33538098,0,0,0.33538098,-10.540773,21.20898)" fill="#e7e7e7" stroke="none" fill-opacity="1"/>
   <circle r="4.8" cy="33.35" cx="-14.885" transform="matrix(0.24690798,0,0,0.24690798,-11.99036,24.087508)" id="path4435" fill="#ffffff" stroke="none" fill-opacity="1"/>
  </g>
  <g transform="matrix(0.6253809,0,0,0.6253809,43.674271,101.1565)" id="g4437">
   <circle r="4.8" cy="33.35" cx="-14.885" transform="matrix(1.1812448,0,0,1.1934478,3.7086538,-5.8345052)" id="path4439" fill="#7d7d7d" stroke="none" fill-opacity="1"/>
   <circle r="4.8" cy="33.35" cx="-14.885" id="path4441" transform="matrix(1.1400433,0,0,1.1518207,2.8926926,-4.6217146)" fill="#dfdfdf" stroke="none" fill-opacity="1"/>
   <circle r="4.8" cy="33.35" cx="-14.885" transform="matrix(1.0791768,0,0,1.093229,2.0035477,-2.561456)" id="path4443" fill="#555555" stroke="none" fill-opacity="1"/>
   <circle r="4.8" cy="33.35" cx="-14.885" id="path4445" transform="matrix(1.0117204,0,0,1.0117204,0.9663109,0.00327372)" fill="#848484" stroke="none" fill-opacity="1"/>
   <circle r="4.8" cy="33.35" cx="-14.885" transform="matrix(0.94349834,0,0,0.9123737,-0.27956509,3.209086)" id="path4447" fill="#535353" stroke="none" fill-opacity="1"/>
   <circle r="4.8" cy="33.35" cx="-14.885" transform="matrix(0.85271182,0,0,0.85271182,-1.7207288,5.0570854)" id="path4449" fill="#2a2a2a" stroke="none" fill-opacity="1"/>
   <circle r="4.8" cy="33.35" cx="-14.885" id="path4451" transform="matrix(0.78220115,0,0,0.78220115,-2.9933878,7.2316005)" fill="#0d0d0d" stroke="none" fill-opacity="1"/>
   <circle r="4.8" cy="33.35" cx="-14.885" transform="matrix(0.68553138,0,0,0.68553138,-4.6367667,10.258778)" id="path4453" fill="#2d2d2d" stroke="none" fill-opacity="1"/>
   <circle r="4.8" cy="33.35" cx="-14.885" id="path4455" transform="matrix(0.59302761,0,0,0.59302761,-6.1586114,13.129033)" fill="#5a5a5a" stroke="none" fill-opacity="1"/>
   <circle r="4.8" cy="33.35" cx="-14.885" transform="matrix(0.51147442,0,0,0.51147442,-7.542099,15.64312)" id="path4457" fill="#8f8f8f" stroke="none" fill-opacity="1"/>
   <circle r="4.8" cy="33.35" cx="-14.885" id="path4459" transform="matrix(0.43031824,0,0,0.43031824,-8.9444002,18.252384)" fill="#c5c5c5" stroke="none" fill-opacity="1"/>
   <circle r="4.8" cy="33.35" cx="-14.885" transform="matrix(0.33538098,0,0,0.33538098,-10.540773,21.20898)" id="path4461" fill="#e7e7e7" stroke="none" fill-opacity="1"/>
   <circle r="4.8" cy="33.35" cx="-14.885" id="path4463" transform="matrix(0.24690798,0,0,0.24690798,-11.99036,24.087508)" fill="#ffffff" stroke="none" fill-opacity="1"/>
  </g>
  <g id="g4465" transform="matrix(0.6253809,0,0,0.6253809,55.13103,57.41251)">
   <circle r="4.8" cy="33.35" cx="-14.885" id="path4467" transform="matrix(1.1812448,0,0,1.1934478,3.7086538,-5.8345052)" fill="#7d7d7d" stroke="none" fill-opacity="1"/>
   <circle r="4.8" cy="33.35" cx="-14.885" transform="matrix(1.1400433,0,0,1.1518207,2.8926926,-4.6217146)" id="path4469" fill="#dfdfdf" stroke="none" fill-opacity="1"/>
   <circle r="4.8" cy="33.35" cx="-14.885" id="path4471" transform="matrix(1.0791768,0,0,1.093229,2.0035477,-2.561456)" fill="#555555" stroke="none" fill-opacity="1"/>
   <circle r="4.8" cy="33.35" cx="-14.885" transform="matrix(1.0117204,0,0,1.0117204,0.9663109,0.00327372)" id="path4473" fill="#848484" stroke="none" fill-opacity="1"/>
   <circle r="4.8" cy="33.35" cx="-14.885" id="path4475" transform="matrix(0.94349834,0,0,0.9123737,-0.27956509,3.209086)" fill="#535353" stroke="none" fill-opacity="1"/>
   <circle r="4.8" cy="33.35" cx="-14.885" id="path4477" transform="matrix(0.85271182,0,0,0.85271182,-1.7207288,5.0570854)" fill="#2a2a2a" stroke="none" fill-opacity="1"/>
   <circle r="4.8" cy="33.35" cx="-14.885" transform="matrix(0.78220115,0,0,0.78220115,-2.9933878,7.2316005)" id="path4479" fill="#0d0d0d" stroke="none" fill-opacity="1"/>
   <circle r="4.8" cy="33.35" cx="-14.885" id="path4481" transform="matrix(0.68553138,0,0,0.68553138,-4.6367667,10.258778)" fill="#2d2d2d" stroke="none" fill-opacity="1"/>
   <circle r="4.8" cy="33.35" cx="-14.885" transform="matrix(0.59302761,0,0,0.59302761,-6.1586114,13.129033)" id="path4483" fill="#5a5a5a" stroke="none" fill-opacity="1"/>
   <circle r="4.8" cy="33.35" cx="-14.885" id="path4485" transform="matrix(0.51147442,0,0,0.51147442,-7.542099,15.64312)" fill="#8f8f8f" stroke="none" fill-opacity="1"/>
   <circle r="4.8" cy="33.35" cx="-14.885" transform="matrix(0.43031824,0,0,0.43031824,-8.9444002,18.252384)" id="path4487" fill="#c5c5c5" stroke="none" fill-opacity="1"/>
   <circle r="4.8" cy="33.35" cx="-14.885" id="path4489" transform="matrix(0.33538098,0,0,0.33538098,-10.540773,21.20898)" fill="#e7e7e7" stroke="none" fill-opacity="1"/>
   <circle r="4.8" cy="33.35" cx="-14.885" transform="matrix(0.24690798,0,0,0.24690798,-11.99036,24.087508)" id="path4491" fill="#ffffff" stroke="none" fill-opacity="1"/>
  </g>
  <g transform="matrix(0.6253809,0,0,0.6253809,88.980543,23.562984)" id="g4493">
   <circle r="4.8" cy="33.35" cx="-14.885" transform="matrix(1.1812448,0,0,1.1934478,3.7086538,-5.8345052)" id="path4495" fill="#7d7d7d" stroke="none" fill-opacity="1"/>
   <circle r="4.8" cy="33.35" cx="-14.885" id="path4497" transform="matrix(1.1400433,0,0,1.1518207,2.8926926,-4.6217146)" fill="#dfdfdf" stroke="none" fill-opacity="1"/>
   <circle r="4.8" cy="33.35" cx="-14.885" transform="matrix(1.0791768,0,0,1.093229,2.0035477,-2.561456)" id="path4499" fill="#555555" stroke="none" fill-opacity="1"/>
   <circle r="4.8" cy="33.35" cx="-14.885" id="path4501" transform="matrix(1.0117204,0,0,1.0117204,0.9663109,0.00327372)" fill="#848484" stroke="none" fill-opacity="1"/>
   <circle r="4.8" cy="33.35" cx="-14.885" transform="matrix(0.94349834,0,0,0.9123737,-0.27956509,3.209086)" id="path4503" fill="#535353" stroke="none" fill-opacity="1"/>
   <circle r="4.8" cy="33.35" cx="-14.885" transform="matrix(0.85271182,0,0,0.85271182,-1.7207288,5.0570854)" id="path4505" fill="#2a2a2a" stroke="none" fill-opacity="1"/>
   <circle r="4.8" cy="33.35" cx="-14.885" id="path4507" transform="matrix(0.78220115,0,0,0.78220115,-2.9933878,7.2316005)" fill="#0d0d0d" stroke="none" fill-opacity="1"/>
   <circle r="4.8" cy="33.35" cx="-14.885" transform="matrix(0.68553138,0,0,0.68553138,-4.6367667,10.258778)" id="path4509" fill="#2d2d2d" stroke="none" fill-opacity="1"/>
   <circle r="4.8" cy="33.35" cx="-14.885" id="path4511" transform="matrix(0.59302761,0,0,0.59302761,-6.1586114,13.129033)" fill="#5a5a5a" stroke="none" fill-opacity="1"/>
   <circle r="4.8" cy="33.35" cx="-14.885" transform="matrix(0.51147442,0,0,0.51147442,-7.542099,15.64312)" id="path4513" fill="#8f8f8f" stroke="none" fill-opacity="1"/>
   <circle r="4.8" cy="33.35" cx="-14.885" id="path4515" transform="matrix(0.43031824,0,0,0.43031824,-8.9444002,18.252384)" fill="#c5c5c5" stroke="none" fill-opacity="1"/>
   <circle r="4.8" cy="33.35" cx="-14.885" transform="matrix(0.33538098,0,0,0.33538098,-10.540773,21.20898)" id="path4517" fill="#e7e7e7" stroke="none" fill-opacity="1"/>
   <circle r="4.8" cy="33.35" cx="-14.885" id="path4519" transform="matrix(0.24690798,0,0,0.24690798,-11.99036,24.087508)" fill="#ffffff" stroke="none" fill-opacity="1"/>
  </g>
  <g transform="matrix(0.6253809,0,0,0.6253809,103.04111,84.492109)" id="g4521">
   <circle r="4.8" cy="33.35" cx="-14.885" transform="matrix(1.1812448,0,0,1.1934478,3.7086538,-5.8345052)" id="path4523" fill="#7d7d7d" stroke="none" fill-opacity="1"/>
   <circle r="4.8" cy="33.35" cx="-14.885" id="path4525" transform="matrix(1.1400433,0,0,1.1518207,2.8926926,-4.6217146)" fill="#dfdfdf" stroke="none" fill-opacity="1"/>
   <circle r="4.8" cy="33.35" cx="-14.885" transform="matrix(1.0791768,0,0,1.093229,2.0035477,-2.561456)" id="path4527" fill="#555555" stroke="none" fill-opacity="1"/>
   <circle r="4.8" cy="33.35" cx="-14.885" id="path4529" transform="matrix(1.0117204,0,0,1.0117204,0.9663109,0.00327372)" fill="#848484" stroke="none" fill-opacity="1"/>
   <circle r="4.8" cy="33.35" cx="-14.885" transform="matrix(0.94349834,0,0,0.9123737,-0.27956509,3.209086)" id="path4531" fill="#535353" stroke="none" fill-opacity="1"/>
   <circle r="4.8" cy="33.35" cx="-14.885" transform="matrix(0.85271182,0,0,0.85271182,-1.7207288,5.0570854)" id="path4533" fill="#2a2a2a" stroke="none" fill-opacity="1"/>
   <circle r="4.8" cy="33.35" cx="-14.885" id="path4535" transform="matrix(0.78220115,0,0,0.78220115,-2.9933878,7.2316005)" fill="#0d0d0d" stroke="none" fill-opacity="1"/>
   <circle r="4.8" cy="33.35" cx="-14.885" transform="matrix(0.68553138,0,0,0.68553138,-4.6367667,10.258778)" id="path4537" fill="#2d2d2d" stroke="none" fill-opacity="1"/>
   <circle r="4.8" cy="33.35" cx="-14.885" id="path4539" transform="matrix(0.59302761,0,0,0.59302761,-6.1586114,13.129033)" fill="#5a5a5a" stroke="none" fill-opacity="1"/>
   <circle r="4.8" cy="33.35" cx="-14.885" transform="matrix(0.51147442,0,0,0.51147442,-7.542099,15.64312)" id="path4541" fill="#8f8f8f" stroke="none" fill-opacity="1"/>
   <circle r="4.8" cy="33.35" cx="-14.885" id="path4543" transform="matrix(0.43031824,0,0,0.43031824,-8.9444002,18.252384)" fill="#c5c5c5" stroke="none" fill-opacity="1"/>
   <circle r="4.8" cy="33.35" cx="-14.885" transform="matrix(0.33538098,0,0,0.33538098,-10.540773,21.20898)" id="path4545" fill="#e7e7e7" stroke="none" fill-opacity="1"/>
   <circle r="4.8" cy="33.35" cx="-14.885" id="path4547" transform="matrix(0.24690798,0,0,0.24690798,-11.99036,24.087508)" fill="#ffffff" stroke="none" fill-opacity="1"/>
  </g>
  <g id="g4549" transform="matrix(0.6253809,0,0,0.6253809,115.79977,71.473072)">
   <circle r="4.8" cy="33.35" cx="-14.885" id="path4551" transform="matrix(1.1812448,0,0,1.1934478,3.7086538,-5.8345052)" fill="#7d7d7d" stroke="none" fill-opacity="1"/>
   <circle r="4.8" cy="33.35" cx="-14.885" transform="matrix(1.1400433,0,0,1.1518207,2.8926926,-4.6217146)" id="path4553" fill="#dfdfdf" stroke="none" fill-opacity="1"/>
   <circle r="4.8" cy="33.35" cx="-14.885" id="path4555" transform="matrix(1.0791768,0,0,1.093229,2.0035477,-2.561456)" fill="#555555" stroke="none" fill-opacity="1"/>
   <circle r="4.8" cy="33.35" cx="-14.885" transform="matrix(1.0117204,0,0,1.0117204,0.9663109,0.00327372)" id="path4557" fill="#848484" stroke="none" fill-opacity="1"/>
   <circle r="4.8" cy="33.35" cx="-14.885" id="path4559" transform="matrix(0.94349834,0,0,0.9123737,-0.27956509,3.209086)" fill="#535353" stroke="none" fill-opacity="1"/>
   <circle r="4.8" cy="33.35" cx="-14.885" id="path4561" transform="matrix(0.85271182,0,0,0.85271182,-1.7207288,5.0570854)" fill="#2a2a2a" stroke="none" fill-opacity="1"/>
   <circle r="4.8" cy="33.35" cx="-14.885" transform="matrix(0.78220115,0,0,0.78220115,-2.9933878,7.2316005)" id="path4563" fill="#0d0d0d" stroke="none" fill-opacity="1"/>
   <circle r="4.8" cy="33.35" cx="-14.885" id="path4565" transform="matrix(0.68553138,0,0,0.68553138,-4.6367667,10.258778)" fill="#2d2d2d" stroke="none" fill-opacity="1"/>
   <circle r="4.8" cy="33.35" cx="-14.885" transform="matrix(0.59302761,0,0,0.59302761,-6.1586114,13.129033)" id="path4567" fill="#5a5a5a" stroke="none" fill-opacity="1"/>
   <circle r="4.8" cy="33.35" cx="-14.885" id="path4569" transform="matrix(0.51147442,0,0,0.51147442,-7.542099,15.64312)" fill="#8f8f8f" stroke="none" fill-opacity="1"/>
   <circle r="4.8" cy="33.35" cx="-14.885" transform="matrix(0.43031824,0,0,0.43031824,-8.9444002,18.252384)" id="path4571" fill="#c5c5c5" stroke="none" fill-opacity="1"/>
   <circle r="4.8" cy="33.35" cx="-14.885" id="path4573" transform="matrix(0.33538098,0,0,0.33538098,-10.540773,21.20898)" fill="#e7e7e7" stroke="none" fill-opacity="1"/>
   <circle r="4.8" cy="33.35" cx="-14.885" transform="matrix(0.24690798,0,0,0.24690798,-11.99036,24.087508)" id="path4575" fill="#ffffff" stroke="none" fill-opacity="1"/>
  </g>
  <g transform="matrix(0.6253809,0,0,0.6253809,134.02643,66.525831)" id="g4577">
   <circle r="4.8" cy="33.35" cx="-14.885" transform="matrix(1.1812448,0,0,1.1934478,3.7086538,-5.8345052)" id="path4579" fill="#7d7d7d" stroke="none" fill-opacity="1"/>
   <circle r="4.8" cy="33.35" cx="-14.885" id="path4581" transform="matrix(1.1400433,0,0,1.1518207,2.8926926,-4.6217146)" fill="#dfdfdf" stroke="none" fill-opacity="1"/>
   <circle r="4.8" cy="33.35" cx="-14.885" transform="matrix(1.0791768,0,0,1.093229,2.0035477,-2.561456)" id="path4583" fill="#555555" stroke="none" fill-opacity="1"/>
   <circle r="4.8" cy="33.35" cx="-14.885" id="path4585" transform="matrix(1.0117204,0,0,1.0117204,0.9663109,0.00327372)" fill="#848484" stroke="none" fill-opacity="1"/>
   <circle r="4.8" cy="33.35" cx="-14.885" transform="matrix(0.94349834,0,0,0.9123737,-0.27956509,3.209086)" id="path4587" fill="#535353" stroke="none" fill-opacity="1"/>
   <circle r="4.8" cy="33.35" cx="-14.885" transform="matrix(0.85271182,0,0,0.85271182,-1.7207288,5.0570854)" id="path4589" fill="#2a2a2a" stroke="none" fill-opacity="1"/>
   <circle r="4.8" cy="33.35" cx="-14.885" id="path4591" transform="matrix(0.78220115,0,0,0.78220115,-2.9933878,7.2316005)" fill="#0d0d0d" stroke="none" fill-opacity="1"/>
   <circle r="4.8" cy="33.35" cx="-14.885" transform="matrix(0.68553138,0,0,0.68553138,-4.6367667,10.258778)" id="path4593" fill="#2d2d2d" stroke="none" fill-opacity="1"/>
   <circle r="4.8" cy="33.35" cx="-14.885" id="path4595" transform="matrix(0.59302761,0,0,0.59302761,-6.1586114,13.129033)" fill="#5a5a5a" stroke="none" fill-opacity="1"/>
   <circle r="4.8" cy="33.35" cx="-14.885" transform="matrix(0.51147442,0,0,0.51147442,-7.542099,15.64312)" id="path4597" fill="#8f8f8f" stroke="none" fill-opacity="1"/>
   <circle r="4.8" cy="33.35" cx="-14.885" id="path4599" transform="matrix(0.43031824,0,0,0.43031824,-8.9444002,18.252384)" fill="#c5c5c5" stroke="none" fill-opacity="1"/>
   <circle r="4.8" cy="33.35" cx="-14.885" transform="matrix(0.33538098,0,0,0.33538098,-10.540773,21.20898)" id="path4601" fill="#e7e7e7" stroke="none" fill-opacity="1"/>
   <circle r="4.8" cy="33.35" cx="-14.885" id="path4603" transform="matrix(0.24690798,0,0,0.24690798,-11.99036,24.087508)" fill="#ffffff" stroke="none" fill-opacity="1"/>
  </g>
  <g id="g4605" transform="matrix(0.6253809,0,0,0.6253809,152.51347,73.295737)">
   <circle r="4.8" cy="33.35" cx="-14.885" id="path4607" transform="matrix(1.1812448,0,0,1.1934478,3.7086538,-5.8345052)" fill="#7d7d7d" stroke="none" fill-opacity="1"/>
   <circle r="4.8" cy="33.35" cx="-14.885" transform="matrix(1.1400433,0,0,1.1518207,2.8926926,-4.6217146)" id="path4609" fill="#dfdfdf" stroke="none" fill-opacity="1"/>
   <circle r="4.8" cy="33.35" cx="-14.885" id="path4611" transform="matrix(1.0791768,0,0,1.093229,2.0035477,-2.561456)" fill="#555555" stroke="none" fill-opacity="1"/>
   <circle r="4.8" cy="33.35" cx="-14.885" transform="matrix(1.0117204,0,0,1.0117204,0.9663109,0.00327372)" id="path4613" fill="#848484" stroke="none" fill-opacity="1"/>
   <circle r="4.8" cy="33.35" cx="-14.885" id="path4615" transform="matrix(0.94349834,0,0,0.9123737,-0.27956509,3.209086)" fill="#535353" stroke="none" fill-opacity="1"/>
   <circle r="4.8" cy="33.35" cx="-14.885" id="path4617" transform="matrix(0.85271182,0,0,0.85271182,-1.7207288,5.0570854)" fill="#2a2a2a" stroke="none" fill-opacity="1"/>
   <circle r="4.8" cy="33.35" cx="-14.885" transform="matrix(0.78220115,0,0,0.78220115,-2.9933878,7.2316005)" id="path4619" fill="#0d0d0d" stroke="none" fill-opacity="1"/>
   <circle r="4.8" cy="33.35" cx="-14.885" id="path4621" transform="matrix(0.68553138,0,0,0.68553138,-4.6367667,10.258778)" fill="#2d2d2d" stroke="none" fill-opacity="1"/>
   <circle r="4.8" cy="33.35" cx="-14.885" transform="matrix(0.59302761,0,0,0.59302761,-6.1586114,13.129033)" id="path4623" fill="#5a5a5a" stroke="none" fill-opacity="1"/>
   <circle r="4.8" cy="33.35" cx="-14.885" id="path4625" transform="matrix(0.51147442,0,0,0.51147442,-7.542099,15.64312)" fill="#8f8f8f" stroke="none" fill-opacity="1"/>
   <circle r="4.8" cy="33.35" cx="-14.885" transform="matrix(0.43031824,0,0,0.43031824,-8.9444002,18.252384)" id="path4627" fill="#c5c5c5" stroke="none" fill-opacity="1"/>
   <circle r="4.8" cy="33.35" cx="-14.885" id="path4629" transform="matrix(0.33538098,0,0,0.33538098,-10.540773,21.20898)" fill="#e7e7e7" stroke="none" fill-opacity="1"/>
   <circle r="4.8" cy="33.35" cx="-14.885" transform="matrix(0.24690798,0,0,0.24690798,-11.99036,24.087508)" id="path4631" fill="#ffffff" stroke="none" fill-opacity="1"/>
  </g>
  <g transform="matrix(0.6253809,0,0,0.6253809,163.44947,84.492109)" id="g4633">
   <circle r="4.8" cy="33.35" cx="-14.885" transform="matrix(1.1812448,0,0,1.1934478,3.7086538,-5.8345052)" id="path4635" fill="#7d7d7d" stroke="none" fill-opacity="1"/>
   <circle r="4.8" cy="33.35" cx="-14.885" id="path4637" transform="matrix(1.1400433,0,0,1.1518207,2.8926926,-4.6217146)" fill="#dfdfdf" stroke="none" fill-opacity="1"/>
   <circle r="4.8" cy="33.35" cx="-14.885" transform="matrix(1.0791768,0,0,1.093229,2.0035477,-2.561456)" id="path4639" fill="#555555" stroke="none" fill-opacity="1"/>
   <circle r="4.8" cy="33.35" cx="-14.885" id="path4641" transform="matrix(1.0117204,0,0,1.0117204,0.9663109,0.00327372)" fill="#848484" stroke="none" fill-opacity="1"/>
   <circle r="4.8" cy="33.35" cx="-14.885" transform="matrix(0.94349834,0,0,0.9123737,-0.27956509,3.209086)" id="path4643" fill="#535353" stroke="none" fill-opacity="1"/>
   <circle r="4.8" cy="33.35" cx="-14.885" transform="matrix(0.85271182,0,0,0.85271182,-1.7207288,5.0570854)" id="path4645" fill="#2a2a2a" stroke="none" fill-opacity="1"/>
   <circle r="4.8" cy="33.35" cx="-14.885" id="path4647" transform="matrix(0.78220115,0,0,0.78220115,-2.9933878,7.2316005)" fill="#0d0d0d" stroke="none" fill-opacity="1"/>
   <circle r="4.8" cy="33.35" cx="-14.885" transform="matrix(0.68553138,0,0,0.68553138,-4.6367667,10.258778)" id="path4649" fill="#2d2d2d" stroke="none" fill-opacity="1"/>
   <circle r="4.8" cy="33.35" cx="-14.885" id="path4651" transform="matrix(0.59302761,0,0,0.59302761,-6.1586114,13.129033)" fill="#5a5a5a" stroke="none" fill-opacity="1"/>
   <circle r="4.8" cy="33.35" cx="-14.885" transform="matrix(0.51147442,0,0,0.51147442,-7.542099,15.64312)" id="path4653" fill="#8f8f8f" stroke="none" fill-opacity="1"/>
   <circle r="4.8" cy="33.35" cx="-14.885" id="path4655" transform="matrix(0.43031824,0,0,0.43031824,-8.9444002,18.252384)" fill="#c5c5c5" stroke="none" fill-opacity="1"/>
   <circle r="4.8" cy="33.35" cx="-14.885" transform="matrix(0.33538098,0,0,0.33538098,-10.540773,21.20898)" id="path4657" fill="#e7e7e7" stroke="none" fill-opacity="1"/>
   <circle r="4.8" cy="33.35" cx="-14.885" id="path4659" transform="matrix(0.24690798,0,0,0.24690798,-11.99036,24.087508)" fill="#ffffff" stroke="none" fill-opacity="1"/>
  </g>
  <g id="g4661" transform="matrix(0.6253809,0,0,0.6253809,168.13633,101.41688)">
   <circle r="4.8" cy="33.35" cx="-14.885" id="path4663" transform="matrix(1.1812448,0,0,1.1934478,3.7086538,-5.8345052)" fill="#7d7d7d" stroke="none" fill-opacity="1"/>
   <circle r="4.8" cy="33.35" cx="-14.885" transform="matrix(1.1400433,0,0,1.1518207,2.8926926,-4.6217146)" id="path4665" fill="#dfdfdf" stroke="none" fill-opacity="1"/>
   <circle r="4.8" cy="33.35" cx="-14.885" id="path4667" transform="matrix(1.0791768,0,0,1.093229,2.0035477,-2.561456)" fill="#555555" stroke="none" fill-opacity="1"/>
   <circle r="4.8" cy="33.35" cx="-14.885" transform="matrix(1.0117204,0,0,1.0117204,0.9663109,0.00327372)" id="path4669" fill="#848484" stroke="none" fill-opacity="1"/>
   <circle r="4.8" cy="33.35" cx="-14.885" id="path4671" transform="matrix(0.94349834,0,0,0.9123737,-0.27956509,3.209086)" fill="#535353" stroke="none" fill-opacity="1"/>
   <circle r="4.8" cy="33.35" cx="-14.885" id="path4673" transform="matrix(0.85271182,0,0,0.85271182,-1.7207288,5.0570854)" fill="#2a2a2a" stroke="none" fill-opacity="1"/>
   <circle r="4.8" cy="33.35" cx="-14.885" transform="matrix(0.78220115,0,0,0.78220115,-2.9933878,7.2316005)" id="path4675" fill="#0d0d0d" stroke="none" fill-opacity="1"/>
   <circle r="4.8" cy="33.35" cx="-14.885" id="path4677" transform="matrix(0.68553138,0,0,0.68553138,-4.6367667,10.258778)" fill="#2d2d2d" stroke="none" fill-opacity="1"/>
   <circle r="4.8" cy="33.35" cx="-14.885" transform="matrix(0.59302761,0,0,0.59302761,-6.1586114,13.129033)" id="path4679" fill="#5a5a5a" stroke="none" fill-opacity="1"/>
   <circle r="4.8" cy="33.35" cx="-14.885" id="path4681" transform="matrix(0.51147442,0,0,0.51147442,-7.542099,15.64312)" fill="#8f8f8f" stroke="none" fill-opacity="1"/>
   <circle r="4.8" cy="33.35" cx="-14.885" transform="matrix(0.43031824,0,0,0.43031824,-8.9444002,18.252384)" id="path4683" fill="#c5c5c5" stroke="none" fill-opacity="1"/>
   <circle r="4.8" cy="33.35" cx="-14.885" id="path4685" transform="matrix(0.33538098,0,0,0.33538098,-10.540773,21.20898)" fill="#e7e7e7" stroke="none" fill-opacity="1"/>
   <circle r="4.8" cy="33.35" cx="-14.885" transform="matrix(0.24690798,0,0,0.24690798,-11.99036,24.087508)" id="path4687" fill="#ffffff" stroke="none" fill-opacity="1"/>
  </g>
  <g transform="matrix(0.6253809,0,0,0.6253809,163.70985,119.12277)" id="g4689">
   <circle r="4.8" cy="33.35" cx="-14.885" transform="matrix(1.1812448,0,0,1.1934478,3.7086538,-5.8345052)" id="path4691" fill="#7d7d7d" stroke="none" fill-opacity="1"/>
   <circle r="4.8" cy="33.35" cx="-14.885" id="path4693" transform="matrix(1.1400433,0,0,1.1518207,2.8926926,-4.6217146)" fill="#dfdfdf" stroke="none" fill-opacity="1"/>
   <circle r="4.8" cy="33.35" cx="-14.885" transform="matrix(1.0791768,0,0,1.093229,2.0035477,-2.561456)" id="path4695" fill="#555555" stroke="none" fill-opacity="1"/>
   <circle r="4.8" cy="33.35" cx="-14.885" id="path4697" transform="matrix(1.0117204,0,0,1.0117204,0.9663109,0.00327372)" fill="#848484" stroke="none" fill-opacity="1"/>
   <circle r="4.8" cy="33.35" cx="-14.885" transform="matrix(0.94349834,0,0,0.9123737,-0.27956509,3.209086)" id="path4699" fill="#535353" stroke="none" fill-opacity="1"/>
   <circle r="4.8" cy="33.35" cx="-14.885" transform="matrix(0.85271182,0,0,0.85271182,-1.7207288,5.0570854)" id="path4701" fill="#2a2a2a" stroke="none" fill-opacity="1"/>
   <circle r="4.8" cy="33.35" cx="-14.885" id="path4703" transform="matrix(0.78220115,0,0,0.78220115,-2.9933878,7.2316005)" fill="#0d0d0d" stroke="none" fill-opacity="1"/>
   <circle r="4.8" cy="33.35" cx="-14.885" transform="matrix(0.68553138,0,0,0.68553138,-4.6367667,10.258778)" id="path4705" fill="#2d2d2d" stroke="none" fill-opacity="1"/>
   <circle r="4.8" cy="33.35" cx="-14.885" id="path4707" transform="matrix(0.59302761,0,0,0.59302761,-6.1586114,13.129033)" fill="#5a5a5a" stroke="none" fill-opacity="1"/>
   <circle r="4.8" cy="33.35" cx="-14.885" transform="matrix(0.51147442,0,0,0.51147442,-7.542099,15.64312)" id="path4709" fill="#8f8f8f" stroke="none" fill-opacity="1"/>
   <circle r="4.8" cy="33.35" cx="-14.885" id="path4711" transform="matrix(0.43031824,0,0,0.43031824,-8.9444002,18.252384)" fill="#c5c5c5" stroke="none" fill-opacity="1"/>
   <circle r="4.8" cy="33.35" cx="-14.885" transform="matrix(0.33538098,0,0,0.33538098,-10.540773,21.20898)" id="path4713" fill="#e7e7e7" stroke="none" fill-opacity="1"/>
   <circle r="4.8" cy="33.35" cx="-14.885" id="path4715" transform="matrix(0.24690798,0,0,0.24690798,-11.99036,24.087508)" fill="#ffffff" stroke="none" fill-opacity="1"/>
  </g>
  <g id="g4717" transform="matrix(0.6253809,0,0,0.6253809,151.21157,131.62106)">
   <circle r="4.8" cy="33.35" cx="-14.885" id="path4719" transform="matrix(1.1812448,0,0,1.1934478,3.7086538,-5.8345052)" fill="#7d7d7d" stroke="none" fill-opacity="1"/>
   <circle r="4.8" cy="33.35" cx="-14.885" transform="matrix(1.1400433,0,0,1.1518207,2.8926926,-4.6217146)" id="path4721" fill="#dfdfdf" stroke="none" fill-opacity="1"/>
   <circle r="4.8" cy="33.35" cx="-14.885" id="path4723" transform="matrix(1.0791768,0,0,1.093229,2.0035477,-2.561456)" fill="#555555" stroke="none" fill-opacity="1"/>
   <circle r="4.8" cy="33.35" cx="-14.885" transform="matrix(1.0117204,0,0,1.0117204,0.9663109,0.00327372)" id="path4725" fill="#848484" stroke="none" fill-opacity="1"/>
   <circle r="4.8" cy="33.35" cx="-14.885" id="path4727" transform="matrix(0.94349834,0,0,0.9123737,-0.27956509,3.209086)" fill="#535353" stroke="none" fill-opacity="1"/>
   <circle r="4.8" cy="33.35" cx="-14.885" id="path4729" transform="matrix(0.85271182,0,0,0.85271182,-1.7207288,5.0570854)" fill="#2a2a2a" stroke="none" fill-opacity="1"/>
   <circle r="4.8" cy="33.35" cx="-14.885" transform="matrix(0.78220115,0,0,0.78220115,-2.9933878,7.2316005)" id="path4731" fill="#0d0d0d" stroke="none" fill-opacity="1"/>
   <circle r="4.8" cy="33.35" cx="-14.885" id="path4733" transform="matrix(0.68553138,0,0,0.68553138,-4.6367667,10.258778)" fill="#2d2d2d" stroke="none" fill-opacity="1"/>
   <circle r="4.8" cy="33.35" cx="-14.885" transform="matrix(0.59302761,0,0,0.59302761,-6.1586114,13.129033)" id="path4735" fill="#5a5a5a" stroke="none" fill-opacity="1"/>
   <circle r="4.8" cy="33.35" cx="-14.885" id="path4737" transform="matrix(0.51147442,0,0,0.51147442,-7.542099,15.64312)" fill="#8f8f8f" stroke="none" fill-opacity="1"/>
   <circle r="4.8" cy="33.35" cx="-14.885" transform="matrix(0.43031824,0,0,0.43031824,-8.9444002,18.252384)" id="path4739" fill="#c5c5c5" stroke="none" fill-opacity="1"/>
   <circle r="4.8" cy="33.35" cx="-14.885" id="path4741" transform="matrix(0.33538098,0,0,0.33538098,-10.540773,21.20898)" fill="#e7e7e7" stroke="none" fill-opacity="1"/>
   <circle r="4.8" cy="33.35" cx="-14.885" transform="matrix(0.24690798,0,0,0.24690798,-11.99036,24.087508)" id="path4743" fill="#ffffff" stroke="none" fill-opacity="1"/>
  </g>
  <g transform="matrix(0.6253809,0,0,0.6253809,133.76605,136.82866)" id="g4745">
   <circle r="4.8" cy="33.35" cx="-14.885" transform="matrix(1.1812448,0,0,1.1934478,3.7086538,-5.8345052)" id="path4747" fill="#7d7d7d" stroke="none" fill-opacity="1"/>
   <circle r="4.8" cy="33.35" cx="-14.885" id="path4749" transform="matrix(1.1400433,0,0,1.1518207,2.8926926,-4.6217146)" fill="#dfdfdf" stroke="none" fill-opacity="1"/>
   <circle r="4.8" cy="33.35" cx="-14.885" transform="matrix(1.0791768,0,0,1.093229,2.0035477,-2.561456)" id="path4751" fill="#555555" stroke="none" fill-opacity="1"/>
   <circle r="4.8" cy="33.35" cx="-14.885" id="path4753" transform="matrix(1.0117204,0,0,1.0117204,0.9663109,0.00327372)" fill="#848484" stroke="none" fill-opacity="1"/>
   <circle r="4.8" cy="33.35" cx="-14.885" transform="matrix(0.94349834,0,0,0.9123737,-0.27956509,3.209086)" id="path4755" fill="#535353" stroke="none" fill-opacity="1"/>
   <circle r="4.8" cy="33.35" cx="-14.885" transform="matrix(0.85271182,0,0,0.85271182,-1.7207288,5.0570854)" id="path4757" fill="#2a2a2a" stroke="none" fill-opacity="1"/>
   <circle r="4.8" cy="33.35" cx="-14.885" id="path4759" transform="matrix(0.78220115,0,0,0.78220115,-2.9933878,7.2316005)" fill="#0d0d0d" stroke="none" fill-opacity="1"/>
   <circle r="4.8" cy="33.35" cx="-14.885" transform="matrix(0.68553138,0,0,0.68553138,-4.6367667,10.258778)" id="path4761" fill="#2d2d2d" stroke="none" fill-opacity="1"/>
   <circle r="4.8" cy="33.35" cx="-14.885" id="path4763" transform="matrix(0.59302761,0,0,0.59302761,-6.1586114,13.129033)" fill="#5a5a5a" stroke="none" fill-opacity="1"/>
   <circle r="4.8" cy="33.35" cx="-14.885" transform="matrix(0.51147442,0,0,0.51147442,-7.542099,15.64312)" id="path4765" fill="#8f8f8f" stroke="none" fill-opacity="1"/>
   <circle r="4.8" cy="33.35" cx="-14.885" id="path4767" transform="matrix(0.43031824,0,0,0.43031824,-8.9444002,18.252384)" fill="#c5c5c5" stroke="none" fill-opacity="1"/>
   <circle r="4.8" cy="33.35" cx="-14.885" transform="matrix(0.33538098,0,0,0.33538098,-10.540773,21.20898)" id="path4769" fill="#e7e7e7" stroke="none" fill-opacity="1"/>
   <circle r="4.8" cy="33.35" cx="-14.885" id="path4771" transform="matrix(0.24690798,0,0,0.24690798,-11.99036,24.087508)" fill="#ffffff" stroke="none" fill-opacity="1"/>
  </g>
  <g id="g4773" transform="matrix(0.6253809,0,0,0.6253809,115.53939,131.88145)">
   <circle r="4.8" cy="33.35" cx="-14.885" id="path4775" transform="matrix(1.1812448,0,0,1.1934478,3.7086538,-5.8345052)" fill="#7d7d7d" stroke="none" fill-opacity="1"/>
   <circle r="4.8" cy="33.35" cx="-14.885" transform="matrix(1.1400433,0,0,1.1518207,2.8926926,-4.6217146)" id="path4777" fill="#dfdfdf" stroke="none" fill-opacity="1"/>
   <circle r="4.8" cy="33.35" cx="-14.885" id="path4779" transform="matrix(1.0791768,0,0,1.093229,2.0035477,-2.561456)" fill="#555555" stroke="none" fill-opacity="1"/>
   <circle r="4.8" cy="33.35" cx="-14.885" transform="matrix(1.0117204,0,0,1.0117204,0.9663109,0.00327372)" id="path4781" fill="#848484" stroke="none" fill-opacity="1"/>
   <circle r="4.8" cy="33.35" cx="-14.885" id="path4783" transform="matrix(0.94349834,0,0,0.9123737,-0.27956509,3.209086)" fill="#535353" stroke="none" fill-opacity="1"/>
   <circle r="4.8" cy="33.35" cx="-14.885" id="path4785" transform="matrix(0.85271182,0,0,0.85271182,-1.7207288,5.0570854)" fill="#2a2a2a" stroke="none" fill-opacity="1"/>
   <circle r="4.8" cy="33.35" cx="-14.885" transform="matrix(0.78220115,0,0,0.78220115,-2.9933878,7.2316005)" id="path4787" fill="#0d0d0d" stroke="none" fill-opacity="1"/>
   <circle r="4.8" cy="33.35" cx="-14.885" id="path4789" transform="matrix(0.68553138,0,0,0.68553138,-4.6367667,10.258778)" fill="#2d2d2d" stroke="none" fill-opacity="1"/>
   <circle r="4.8" cy="33.35" cx="-14.885" transform="matrix(0.59302761,0,0,0.59302761,-6.1586114,13.129033)" id="path4791" fill="#5a5a5a" stroke="none" fill-opacity="1"/>
   <circle r="4.8" cy="33.35" cx="-14.885" id="path4793" transform="matrix(0.51147442,0,0,0.51147442,-7.542099,15.64312)" fill="#8f8f8f" stroke="none" fill-opacity="1"/>
   <circle r="4.8" cy="33.35" cx="-14.885" transform="matrix(0.43031824,0,0,0.43031824,-8.9444002,18.252384)" id="path4795" fill="#c5c5c5" stroke="none" fill-opacity="1"/>
   <circle r="4.8" cy="33.35" cx="-14.885" id="path4797" transform="matrix(0.33538098,0,0,0.33538098,-10.540773,21.20898)" fill="#e7e7e7" stroke="none" fill-opacity="1"/>
   <circle r="4.8" cy="33.35" cx="-14.885" transform="matrix(0.24690798,0,0,0.24690798,-11.99036,24.087508)" id="path4799" fill="#ffffff" stroke="none" fill-opacity="1"/>
  </g>
  <g transform="matrix(0.6253809,0,0,0.6253809,103.04111,119.12277)" id="g4801">
   <circle r="4.8" cy="33.35" cx="-14.885" transform="matrix(1.1812448,0,0,1.1934478,3.7086538,-5.8345052)" id="path4803" fill="#7d7d7d" stroke="none" fill-opacity="1"/>
   <circle r="4.8" cy="33.35" cx="-14.885" id="path4805" transform="matrix(1.1400433,0,0,1.1518207,2.8926926,-4.6217146)" fill="#dfdfdf" stroke="none" fill-opacity="1"/>
   <circle r="4.8" cy="33.35" cx="-14.885" transform="matrix(1.0791768,0,0,1.093229,2.0035477,-2.561456)" id="path4807" fill="#555555" stroke="none" fill-opacity="1"/>
   <circle r="4.8" cy="33.35" cx="-14.885" id="path4809" transform="matrix(1.0117204,0,0,1.0117204,0.9663109,0.00327372)" fill="#848484" stroke="none" fill-opacity="1"/>
   <circle r="4.8" cy="33.35" cx="-14.885" transform="matrix(0.94349834,0,0,0.9123737,-0.27956509,3.209086)" id="path4811" fill="#535353" stroke="none" fill-opacity="1"/>
   <circle r="4.8" cy="33.35" cx="-14.885" transform="matrix(0.85271182,0,0,0.85271182,-1.7207288,5.0570854)" id="path4813" fill="#2a2a2a" stroke="none" fill-opacity="1"/>
   <circle r="4.8" cy="33.35" cx="-14.885" id="path4815" transform="matrix(0.78220115,0,0,0.78220115,-2.9933878,7.2316005)" fill="#0d0d0d" stroke="none" fill-opacity="1"/>
   <circle r="4.8" cy="33.35" cx="-14.885" transform="matrix(0.68553138,0,0,0.68553138,-4.6367667,10.258778)" id="path4817" fill="#2d2d2d" stroke="none" fill-opacity="1"/>
   <circle r="4.8" cy="33.35" cx="-14.885" id="path4819" transform="matrix(0.59302761,0,0,0.59302761,-6.1586114,13.129033)" fill="#5a5a5a" stroke="none" fill-opacity="1"/>
   <circle r="4.8" cy="33.35" cx="-14.885" transform="matrix(0.51147442,0,0,0.51147442,-7.542099,15.64312)" id="path4821" fill="#8f8f8f" stroke="none" fill-opacity="1"/>
   <circle r="4.8" cy="33.35" cx="-14.885" id="path4823" transform="matrix(0.43031824,0,0,0.43031824,-8.9444002,18.252384)" fill="#c5c5c5" stroke="none" fill-opacity="1"/>
   <circle r="4.8" cy="33.35" cx="-14.885" transform="matrix(0.33538098,0,0,0.33538098,-10.540773,21.20898)" id="path4825" fill="#e7e7e7" stroke="none" fill-opacity="1"/>
   <circle r="4.8" cy="33.35" cx="-14.885" id="path4827" transform="matrix(0.24690798,0,0,0.24690798,-11.99036,24.087508)" fill="#ffffff" stroke="none" fill-opacity="1"/>
  </g>
  <g id="g4829" transform="matrix(0.6253809,0,0,0.6253809,98.614636,102.19802)">
   <circle r="4.8" cy="33.35" cx="-14.885" id="path4831" transform="matrix(1.1812448,0,0,1.1934478,3.7086538,-5.8345052)" fill="#7d7d7d" stroke="none" fill-opacity="1"/>
   <circle r="4.8" cy="33.35" cx="-14.885" transform="matrix(1.1400433,0,0,1.1518207,2.8926926,-4.6217146)" id="path4833" fill="#dfdfdf" stroke="none" fill-opacity="1"/>
   <circle r="4.8" cy="33.35" cx="-14.885" id="path4835" transform="matrix(1.0791768,0,0,1.093229,2.0035477,-2.561456)" fill="#555555" stroke="none" fill-opacity="1"/>
   <circle r="4.8" cy="33.35" cx="-14.885" transform="matrix(1.0117204,0,0,1.0117204,0.9663109,0.00327372)" id="path4837" fill="#848484" stroke="none" fill-opacity="1"/>
   <circle r="4.8" cy="33.35" cx="-14.885" id="path4839" transform="matrix(0.94349834,0,0,0.9123737,-0.27956509,3.209086)" fill="#535353" stroke="none" fill-opacity="1"/>
   <circle r="4.8" cy="33.35" cx="-14.885" id="path4841" transform="matrix(0.85271182,0,0,0.85271182,-1.7207288,5.0570854)" fill="#2a2a2a" stroke="none" fill-opacity="1"/>
   <circle r="4.8" cy="33.35" cx="-14.885" transform="matrix(0.78220115,0,0,0.78220115,-2.9933878,7.2316005)" id="path4843" fill="#0d0d0d" stroke="none" fill-opacity="1"/>
   <circle r="4.8" cy="33.35" cx="-14.885" id="path4845" transform="matrix(0.68553138,0,0,0.68553138,-4.6367667,10.258778)" fill="#2d2d2d" stroke="none" fill-opacity="1"/>
   <circle r="4.8" cy="33.35" cx="-14.885" transform="matrix(0.59302761,0,0,0.59302761,-6.1586114,13.129033)" id="path4847" fill="#5a5a5a" stroke="none" fill-opacity="1"/>
   <circle r="4.8" cy="33.35" cx="-14.885" id="path4849" transform="matrix(0.51147442,0,0,0.51147442,-7.542099,15.64312)" fill="#8f8f8f" stroke="none" fill-opacity="1"/>
   <circle r="4.8" cy="33.35" cx="-14.885" transform="matrix(0.43031824,0,0,0.43031824,-8.9444002,18.252384)" id="path4851" fill="#c5c5c5" stroke="none" fill-opacity="1"/>
   <circle r="4.8" cy="33.35" cx="-14.885" id="path4853" transform="matrix(0.33538098,0,0,0.33538098,-10.540773,21.20898)" fill="#e7e7e7" stroke="none" fill-opacity="1"/>
   <circle r="4.8" cy="33.35" cx="-14.885" transform="matrix(0.24690798,0,0,0.24690798,-11.99036,24.087508)" id="path4855" fill="#ffffff" stroke="none" fill-opacity="1"/>
  </g>
  <g transform="matrix(1.49829,0,0,1.49829,66.062835,61.065847)" id="g4322">
   <path d="m 64.580642,61.719319 2.840248,2.247906 h 1.075605 l 0.953378,1.002269 0.586694,-0.268901 1.760081,2.200101 -0.22001,0.366684 1.515625,1.760081 1.110985,0.90828 0.317792,0.855595 -0.07334,0.07334 -0.293347,-0.733367 -1.184322,-0.810498 -1.71119,-2.004537 0.122228,-0.537803 -1.295615,-1.760081 -0.708922,0.171119 -0.904486,-1.05116 -1.05116,0.122229 -2.004537,-1.760081 z" id="path3432" inkscape:connector-curvature="0" sodipodi:nodetypes="ccccccccccccccccccccc" fill="#000000" stroke="none" fill-opacity="1"/>
   <rect id="rect4202" width="7.163" height="4.254" x="10.452" y="94.16" transform="rotate(-38.507396)" ry="0.679" stroke-dasharray="none" stroke-opacity="1" fill="#2b2b2b" stroke="#363636" fill-opacity="1" stroke-width="0.2" stroke-miterlimit="4" rx="0.679"/>
   <g id="g4204" transform="matrix(0.07846779,0,0,0.07846779,69.222815,64.760382)">
    <circle r="4.8" cy="33.35" cx="-14.885" id="path4206" transform="matrix(1.1812448,0,0,1.1934478,3.7086538,-5.8345052)" fill="#7d7d7d" stroke="none" fill-opacity="1"/>
    <circle r="4.8" cy="33.35" cx="-14.885" transform="matrix(1.1400433,0,0,1.1518207,2.8926926,-4.6217146)" id="path4208" fill="#dfdfdf" stroke="none" fill-opacity="1"/>
    <circle r="4.8" cy="33.35" cx="-14.885" id="path4210" transform="matrix(1.0791768,0,0,1.093229,2.0035477,-2.561456)" fill="#555555" stroke="none" fill-opacity="1"/>
    <circle r="4.8" cy="33.35" cx="-14.885" transform="matrix(1.0117204,0,0,1.0117204,0.9663109,0.00327372)" id="path4212" fill="#848484" stroke="none" fill-opacity="1"/>
    <circle r="4.8" cy="33.35" cx="-14.885" id="path4214" transform="matrix(0.94349834,0,0,0.9123737,-0.27956509,3.209086)" fill="#535353" stroke="none" fill-opacity="1"/>
    <circle r="4.8" cy="33.35" cx="-14.885" id="path4216" transform="matrix(0.85271182,0,0,0.85271182,-1.7207288,5.0570854)" fill="#2a2a2a" stroke="none" fill-opacity="1"/>
    <circle r="4.8" cy="33.35" cx="-14.885" transform="matrix(0.78220115,0,0,0.78220115,-2.9933878,7.2316005)" id="path4218" fill="#0d0d0d" stroke="none" fill-opacity="1"/>
    <circle r="4.8" cy="33.35" cx="-14.885" id="path4220" transform="matrix(0.68553138,0,0,0.68553138,-4.6367667,10.258778)" fill="#2d2d2d" stroke="none" fill-opacity="1"/>
    <circle r="4.8" cy="33.35" cx="-14.885" transform="matrix(0.59302761,0,0,0.59302761,-6.1586114,13.129033)" id="path4222" fill="#5a5a5a" stroke="none" fill-opacity="1"/>
    <circle r="4.8" cy="33.35" cx="-14.885" id="path4224" transform="matrix(0.51147442,0,0,0.51147442,-7.542099,15.64312)" fill="#8f8f8f" stroke="none" fill-opacity="1"/>
    <circle r="4.8" cy="33.35" cx="-14.885" transform="matrix(0.43031824,0,0,0.43031824,-8.9444002,18.252384)" id="path4226" fill="#c5c5c5" stroke="none" fill-opacity="1"/>
    <circle r="4.8" cy="33.35" cx="-14.885" id="path4228" transform="matrix(0.33538098,0,0,0.33538098,-10.540773,21.20898)" fill="#e7e7e7" stroke="none" fill-opacity="1"/>
    <circle r="4.8" cy="33.35" cx="-14.885" transform="matrix(0.24690798,0,0,0.24690798,-11.99036,24.087508)" id="path4230" fill="#ffffff" stroke="none" fill-opacity="1"/>
   </g>
   <g transform="matrix(0.07846779,0,0,0.07846779,73.134107,61.386893)" id="g4232">
    <circle r="4.8" cy="33.35" cx="-14.885" transform="matrix(1.1812448,0,0,1.1934478,3.7086538,-5.8345052)" id="path4234" fill="#7d7d7d" stroke="none" fill-opacity="1"/>
    <circle r="4.8" cy="33.35" cx="-14.885" id="path4236" transform="matrix(1.1400433,0,0,1.1518207,2.8926926,-4.6217146)" fill="#dfdfdf" stroke="none" fill-opacity="1"/>
    <circle r="4.8" cy="33.35" cx="-14.885" transform="matrix(1.0791768,0,0,1.093229,2.0035477,-2.561456)" id="path4238" fill="#555555" stroke="none" fill-opacity="1"/>
    <circle r="4.8" cy="33.35" cx="-14.885" id="path4240" transform="matrix(1.0117204,0,0,1.0117204,0.9663109,0.00327372)" fill="#848484" stroke="none" fill-opacity="1"/>
    <circle r="4.8" cy="33.35" cx="-14.885" transform="matrix(0.94349834,0,0,0.9123737,-0.27956509,3.209086)" id="path4242" fill="#535353" stroke="none" fill-opacity="1"/>
    <circle r="4.8" cy="33.35" cx="-14.885" transform="matrix(0.85271182,0,0,0.85271182,-1.7207288,5.0570854)" id="path4244" fill="#2a2a2a" stroke="none" fill-opacity="1"/>
    <circle r="4.8" cy="33.35" cx="-14.885" id="path4246" transform="matrix(0.78220115,0,0,0.78220115,-2.9933878,7.2316005)" fill="#0d0d0d" stroke="none" fill-opacity="1"/>
    <circle r="4.8" cy="33.35" cx="-14.885" transform="matrix(0.68553138,0,0,0.68553138,-4.6367667,10.258778)" id="path4248" fill="#2d2d2d" stroke="none" fill-opacity="1"/>
    <circle r="4.8" cy="33.35" cx="-14.885" id="path4250" transform="matrix(0.59302761,0,0,0.59302761,-6.1586114,13.129033)" fill="#5a5a5a" stroke="none" fill-opacity="1"/>
    <circle r="4.8" cy="33.35" cx="-14.885" transform="matrix(0.51147442,0,0,0.51147442,-7.542099,15.64312)" id="path4252" fill="#8f8f8f" stroke="none" fill-opacity="1"/>
    <circle r="4.8" cy="33.35" cx="-14.885" id="path4254" transform="matrix(0.43031824,0,0,0.43031824,-8.9444002,18.252384)" fill="#c5c5c5" stroke="none" fill-opacity="1"/>
    <circle r="4.8" cy="33.35" cx="-14.885" transform="matrix(0.33538098,0,0,0.33538098,-10.540773,21.20898)" id="path4256" fill="#e7e7e7" stroke="none" fill-opacity="1"/>
    <circle r="4.8" cy="33.35" cx="-14.885" id="path4258" transform="matrix(0.24690798,0,0,0.24690798,-11.99036,24.087508)" fill="#ffffff" stroke="none" fill-opacity="1"/>
   </g>
   <g id="g4260" transform="matrix(0.07846779,0,0,0.07846779,75.236426,63.318093)">
    <circle r="4.8" cy="33.35" cx="-14.885" id="path4262" transform="matrix(1.1812448,0,0,1.1934478,3.7086538,-5.8345052)" fill="#7d7d7d" stroke="none" fill-opacity="1"/>
    <circle r="4.8" cy="33.35" cx="-14.885" transform="matrix(1.1400433,0,0,1.1518207,2.8926926,-4.6217146)" id="path4264" fill="#dfdfdf" stroke="none" fill-opacity="1"/>
    <circle r="4.8" cy="33.35" cx="-14.885" id="path4266" transform="matrix(1.0791768,0,0,1.093229,2.0035477,-2.561456)" fill="#555555" stroke="none" fill-opacity="1"/>
    <circle r="4.8" cy="33.35" cx="-14.885" transform="matrix(1.0117204,0,0,1.0117204,0.9663109,0.00327372)" id="path4268" fill="#848484" stroke="none" fill-opacity="1"/>
    <circle r="4.8" cy="33.35" cx="-14.885" id="path4270" transform="matrix(0.94349834,0,0,0.9123737,-0.27956509,3.209086)" fill="#535353" stroke="none" fill-opacity="1"/>
    <circle r="4.8" cy="33.35" cx="-14.885" id="path4272" transform="matrix(0.85271182,0,0,0.85271182,-1.7207288,5.0570854)" fill="#2a2a2a" stroke="none" fill-opacity="1"/>
    <circle r="4.8" cy="33.35" cx="-14.885" transform="matrix(0.78220115,0,0,0.78220115,-2.9933878,7.2316005)" id="path4274" fill="#0d0d0d" stroke="none" fill-opacity="1"/>
    <circle r="4.8" cy="33.35" cx="-14.885" id="path4276" transform="matrix(0.68553138,0,0,0.68553138,-4.6367667,10.258778)" fill="#2d2d2d" stroke="none" fill-opacity="1"/>
    <circle r="4.8" cy="33.35" cx="-14.885" transform="matrix(0.59302761,0,0,0.59302761,-6.1586114,13.129033)" id="path4278" fill="#5a5a5a" stroke="none" fill-opacity="1"/>
    <circle r="4.8" cy="33.35" cx="-14.885" id="path4280" transform="matrix(0.51147442,0,0,0.51147442,-7.542099,15.64312)" fill="#8f8f8f" stroke="none" fill-opacity="1"/>
    <circle r="4.8" cy="33.35" cx="-14.885" transform="matrix(0.43031824,0,0,0.43031824,-8.9444002,18.252384)" id="path4282" fill="#c5c5c5" stroke="none" fill-opacity="1"/>
    <circle r="4.8" cy="33.35" cx="-14.885" id="path4284" transform="matrix(0.33538098,0,0,0.33538098,-10.540773,21.20898)" fill="#e7e7e7" stroke="none" fill-opacity="1"/>
    <circle r="4.8" cy="33.35" cx="-14.885" transform="matrix(0.24690798,0,0,0.24690798,-11.99036,24.087508)" id="path4286" fill="#ffffff" stroke="none" fill-opacity="1"/>
   </g>
   <g transform="matrix(0.07846779,0,0,0.07846779,70.90956,66.569354)" id="g4288">
    <circle r="4.8" cy="33.35" cx="-14.885" transform="matrix(1.1812448,0,0,1.1934478,3.7086538,-5.8345052)" id="path4290" fill="#7d7d7d" stroke="none" fill-opacity="1"/>
    <circle r="4.8" cy="33.35" cx="-14.885" id="path4292" transform="matrix(1.1400433,0,0,1.1518207,2.8926926,-4.6217146)" fill="#dfdfdf" stroke="none" fill-opacity="1"/>
    <circle r="4.8" cy="33.35" cx="-14.885" transform="matrix(1.0791768,0,0,1.093229,2.0035477,-2.561456)" id="path4294" fill="#555555" stroke="none" fill-opacity="1"/>
    <circle r="4.8" cy="33.35" cx="-14.885" id="path4296" transform="matrix(1.0117204,0,0,1.0117204,0.9663109,0.00327372)" fill="#848484" stroke="none" fill-opacity="1"/>
    <circle r="4.8" cy="33.35" cx="-14.885" transform="matrix(0.94349834,0,0,0.9123737,-0.27956509,3.209086)" id="path4298" fill="#535353" stroke="none" fill-opacity="1"/>
    <circle r="4.8" cy="33.35" cx="-14.885" transform="matrix(0.85271182,0,0,0.85271182,-1.7207288,5.0570854)" id="path4300" fill="#2a2a2a" stroke="none" fill-opacity="1"/>
    <circle r="4.8" cy="33.35" cx="-14.885" id="path4302" transform="matrix(0.78220115,0,0,0.78220115,-2.9933878,7.2316005)" fill="#0d0d0d" stroke="none" fill-opacity="1"/>
    <circle r="4.8" cy="33.35" cx="-14.885" transform="matrix(0.68553138,0,0,0.68553138,-4.6367667,10.258778)" id="path4304" fill="#2d2d2d" stroke="none" fill-opacity="1"/>
    <circle r="4.8" cy="33.35" cx="-14.885" id="path4306" transform="matrix(0.59302761,0,0,0.59302761,-6.1586114,13.129033)" fill="#5a5a5a" stroke="none" fill-opacity="1"/>
    <circle r="4.8" cy="33.35" cx="-14.885" transform="matrix(0.51147442,0,0,0.51147442,-7.542099,15.64312)" id="path4308" fill="#8f8f8f" stroke="none" fill-opacity="1"/>
    <circle r="4.8" cy="33.35" cx="-14.885" id="path4310" transform="matrix(0.43031824,0,0,0.43031824,-8.9444002,18.252384)" fill="#c5c5c5" stroke="none" fill-opacity="1"/>
    <circle r="4.8" cy="33.35" cx="-14.885" transform="matrix(0.33538098,0,0,0.33538098,-10.540773,21.20898)" id="path4312" fill="#e7e7e7" stroke="none" fill-opacity="1"/>
    <circle r="4.8" cy="33.35" cx="-14.885" id="path4314" transform="matrix(0.24690798,0,0,0.24690798,-11.99036,24.087508)" fill="#ffffff" stroke="none" fill-opacity="1"/>
   </g>
   <path transform="rotate(-38.507396)" d="m 10.451717,94.835911 c 0,-0.376262 0.302911,-0.679173 0.679173,-0.679173 h 5.804229 c 0.376262,0 0.679173,0.302911 0.679173,0.679173 v 2.895201" id="rect4316" inkscape:connector-curvature="0" sodipodi:nodetypes="csssc" stroke-opacity="1" fill="none" stroke="#666666" stroke-width="0.2" stroke-miterlimit="4"/>
   <path d="M 74.241205,66.754021 70.061012,70.12751" id="path4320" inkscape:connector-curvature="0" sodipodi:nodetypes="cc" stroke-dasharray="none" stroke-opacity="1" fill="none" stroke="#141414" stroke-linejoin="miter" stroke-linecap="butt" stroke-width="0.3" stroke-miterlimit="4"/>
   <path sodipodi:nodetypes="csssc" inkscape:connector-curvature="0" id="path4384" d="m 10.451717,94.835911 c 0,-0.376262 0.302911,-0.679173 0.679173,-0.679173 h 5.804229 c 0.376262,0 0.679173,0.302911 0.679173,0.679173 v 2.895201" transform="rotate(-38.507396)" stroke-dasharray="none" stroke-opacity="1" fill="none" stroke="#bebebe" stroke-width="0.072" stroke-miterlimit="4"/>
  </g>
 </g>
 <path d="m 170.4074,221.19299 c 2.81917,0.61767 5.10607,-2.94642 7.70667,-4.04836 7.4554,6.15233 14.9108,12.30466 22.36619,18.457 -1.09956,2.58245 -4.9744,5.85275 -0.4991,7.0041 2.02903,1.73782 3.72711,-1.0867 5.96818,0.33604 2.09145,0.0794 3.30541,-2.44628 5.54182,-2.67262 2.27969,-0.93703 3.63607,-3.98285 2.04621,-5.99311 1.61068,-0.8384 3.23069,-3.00855 1.31902,-4.32427 3.06559,-2.55416 0.68757,-4.45606 -1.48874,-6.56234 -2.15879,-0.5338 -5.11614,5.31446 -7.09184,2.59127 -6.29229,-6.6552 -12.58457,-13.31041 -18.87686,-19.96562 1.96459,-2.42587 3.81733,-7.11071 0.5351,-9.14456 -2.55961,-0.60231 -3.61703,2.70341 -4.72424,4.52178 C 133.76228,155.74399 84.444576,109.94528 34.916706,64.390109 c -4.44569,-3.841569 -9.58858,-7.035599 -15.487491,-7.63277 -1.1816,6.926027 4.37026,12.362225 8.250381,17.552013 13.06015,13.405702 26.85407,26.112518 40.20078,39.245298 34.703624,33.59234 69.407244,67.18469 104.110874,100.77703 -2.04728,1.33467 -5.37268,3.96721 -2.45775,6.24571 0.2349,0.28456 0.55347,0.44596 0.8739,0.6156 z" id="path3154" inkscape:connector-curvature="0" transform="matrix(1.146298,0,0,1.146298,-6.3069753,-40.976077)" fill="#000000" filter="url(#filter5430)" fill-rule="evenodd" stroke="none" fill-opacity="0.57"/>
 <g id="g4143" transform="matrix(-4.1362837,-3.9290479,3.9290479,-4.1362837,176.95831,171.84796)">
  <path sodipodi:nodetypes="cccccccccccccccccccccc" id="path3154-5" d="M 38.82933,-0.00579298 C 37.754559,0.89678671 36.137491,0.99366821 34.458417,0.9984281 l -39.4619615,0.5279932 0.2097067,0.8796426 c 0.064264,0.4723235 -0.366587,0.6209025 -0.6780563,0.3342244 C -5.780864,2.4422175 -5.9957625,2.0376992 -6.0426781,1.4430951 l -6.0015529,-0.3259175 -0.262713,1.3922178 -0.897289,-0.07959 -0.129217,-0.6749874 c -0.552549,0.061519 -0.488741,-0.3677554 -0.422733,-0.79878232 -0.521566,-0.0836936 -0.895742,-0.71703714 -0.291675,-1.45864456 -0.01273,-0.44782225 0.0069,-0.89826472 0.645414,-0.87680792 l 0.125755,-0.5116221 0.778286,-0.1799748 0.29657,1.19846321 5.9736194,-0.39483641 0.3117366,-1.4835999 c 0.1164034,-0.3017448 0.8667503,-0.3756836 0.8773017,0.1838874 l -0.092462,0.8441548 39.9179363,0.3794595 c 1.866404,0.1832589 3.558818,0.4546104 4.043031,1.33769212 z" inkscape:connector-curvature="0" fill="#000000" fill-rule="evenodd" stroke="none" fill-opacity="1"/>
  <path d="M 38.82933,0.0674575 C 24.869073,0.10909298 9.1323509,0.05692192 -5.3183262,0.00844952 c -0.082887,-0.8370154 0.00369,-1.20608612 0.1866882,-1.65814402 l 39.917937,0.3794595 c 1.866404,0.1832589 3.558818,0.45461032 4.043031,1.3376925 z" id="path3156" sodipodi:nodetypes="ccccc" inkscape:connector-curvature="0" fill="#e3e3e3" fill-rule="evenodd" stroke="none" fill-opacity="1"/>
  <ellipse transform="matrix(-0.0609638,-0.00160518,0.00134026,-0.07124744,20.70901,19.343018)" id="path3228" cx="565.87" cy="241.02" rx="6.782" ry="7.676" fill="url(#radialGradient3269-6)" stroke="none" fill-opacity="1"/>
  <ellipse id="path3232" transform="matrix(-0.0609638,-0.00160518,0.00134026,-0.07124744,20.506453,17.127171)" cx="565.87" cy="241.02" rx="6.782" ry="7.676" fill="url(#radialGradient3269-6)" stroke="none" fill-opacity="1"/>
  <ellipse transform="matrix(-0.08189099,-0.0021562,0.00182252,-0.0968841,32.118906,24.778091)" id="path3218" cx="565.87" cy="241.02" rx="6.782" ry="7.676" fill="url(#radialGradient3269-6)" stroke="none" fill-opacity="1"/>
  <path d="m -12.159774,1.2061422 -0.210334,1.1927816 -0.785746,-0.033617 c -0.429966,-1.83849156 -0.404116,-3.1528623 -0.04908,-4.1959926 l 0.656901,-0.1412352 0.257401,1.12838181 c -0.08909,0.64670127 -0.176427,1.27369468 0.130859,2.04968149 z" id="path3236" sodipodi:nodetypes="ccccccc" inkscape:connector-curvature="0" fill="#545454" fill-rule="evenodd" stroke="none" fill-opacity="1"/>
  <path inkscape:connector-curvature="0" d="M -6.0426781,1.4430951 -12.044231,1.1171776 c -0.329742,-0.64219426 -0.19182,-1.22530896 -0.157602,-1.98972809 l 5.9736194,-0.39483641 c -0.2194946,1.04890777 -0.1463895,1.62810666 0.1855355,2.710482 z" id="path3813" sodipodi:nodetypes="ccccc" fill="#000000" fill-rule="evenodd" stroke="none" fill-opacity="1"/>
  <path inkscape:connector-curvature="0" id="rect3797" d="m -5.334933,-0.52958072 h 41.39914 v 0.84888495 h -41.39914 z" fill="#1c1c1c" stroke="none" fill-opacity="1"/>
  <path inkscape:connector-curvature="0" d="m -5.334933,-0.39554625 h 41.39914 v 0.40210338 h -41.39914 z" id="path3800" fill="#8b8b8b" stroke="none" fill-opacity="1"/>
  <path id="path3802" d="m -5.334933,-0.39554625 h 41.39914 v 0.22339075 h -41.39914 z" inkscape:connector-curvature="0" fill="#d6d6d6" stroke="none" fill-opacity="1"/>
  <path d="m -4.803473,2.3152664 c 0.064264,0.4723235 -0.425401,0.6793076 -0.7368703,0.3926294 -1.1437639,-1.6229198 -0.9812122,-3.58254955 -0.3624439,-5.4912756 0.1164034,-0.3017448 0.9215097,-0.4404686 0.8636119,0.3134576 -0.6189252,1.80946389 -0.4469909,3.17192194 0.2357023,4.7851886 z" id="path3180-3" sodipodi:nodetypes="ccccc" inkscape:connector-curvature="0" fill="#1a1a1a" fill-rule="evenodd" stroke="none" fill-opacity="1"/>
  <path inkscape:connector-curvature="0" sodipodi:nodetypes="ccccc" id="path3804" d="m -4.9266816,2.2990701 c 0.064264,0.4723235 -0.1926736,0.4687563 -0.5041429,0.1820781 -1.1437639,-1.62291983 -0.9538326,-3.14525061 -0.3350643,-5.0539766 0.1164035,-0.3017449 0.6887824,-0.6186275 0.6308847,0.1352987 -0.6189252,1.80946389 -0.4743707,3.12333318 0.2083225,4.7365998 z" fill="#787878" fill-rule="evenodd" stroke="none" fill-opacity="1"/>
  <path d="m -5.0909597,2.2504814 c 0.1053338,0.2617721 -0.1105346,0.3391862 -0.2577257,0.1010967 -1.0701955,-1.83284179 -0.996923,-2.97283359 -0.3213745,-4.8596215 0.1164035,-0.3017449 0.4971247,-0.3108986 0.3981574,0.1029032 -0.6189252,1.80946395 -0.5017504,3.04235195 0.1809428,4.6556216 z" id="path3806" sodipodi:nodetypes="ccccc" inkscape:connector-curvature="0" fill="#cbcbcb" fill-rule="evenodd" stroke="none" fill-opacity="1"/>
  <path inkscape:connector-curvature="0" sodipodi:nodetypes="ccccc" id="path3808-6" d="m -5.1594088,2.2342851 c 0.1053337,0.2617722 0.040054,0.32299 -0.1071377,0.084901 -1.0381515,-1.98448458 -0.8877254,-3.05229463 -0.2529251,-4.7462477 0.1164034,-0.3017449 0.2370177,-0.3594874 0.1380503,0.054314 -0.6866084,1.80946392 -0.5010035,2.99376315 0.2220125,4.6070327 z" fill="#ffffff" fill-rule="evenodd" stroke="none" fill-opacity="1"/>
  <path sodipodi:nodetypes="ccccc" id="path3797" d="m -6.245052,1.0823416 -5.904765,-0.16753789 c -0.171363,-0.64219426 -0.174223,-0.95254415 -0.06961,-1.65537123 L -6.2986045,-1.065013 c -0.1491037,0.95212025 -0.1375907,1.34654298 0.053552,2.1473546 z" inkscape:connector-curvature="0" fill="#494949" fill-rule="evenodd" stroke="none" fill-opacity="1"/>
  <path inkscape:connector-curvature="0" d="M -6.3330406,0.81837565 -12.220208,0.69483209 c -0.100972,-0.57180334 -0.07743,-0.9173487 0.0096,-1.3386121 l 5.8240349,-0.20126137 c -0.087512,0.74094749 -0.040803,1.01218612 0.053552,1.66341703 z" id="path3799-1" sodipodi:nodetypes="ccccc" fill="#848484" fill-rule="evenodd" stroke="none" fill-opacity="1"/>
  <path sodipodi:nodetypes="ccccc" id="path3801-1" d="M -6.3682361,0.57200743 -12.290599,0.43086614 c -0.03058,-0.47501582 -0.04223,-0.58299183 0.05359,-0.90746772 l 5.7888398,-0.16606591 c -0.00163,0.54344876 -0.023695,0.79320062 0.079929,1.21467492 z" inkscape:connector-curvature="0" fill="#b7b7b7" fill-rule="evenodd" stroke="none" fill-opacity="1"/>
  <path inkscape:connector-curvature="0" d="M -6.3682361,0.57200743 -12.290599,0.43086614 c -0.03058,-0.34303285 0.01056,-0.53019864 0.03599,-0.74028929 L -6.4569681,-0.413897 c 0.00717,0.27068395 0.011501,0.64361991 0.088732,0.98590443 z" id="path3803-5" sodipodi:nodetypes="ccccc" fill="#ececec" fill-rule="evenodd" stroke="none" fill-opacity="1"/>
  <path sodipodi:nodetypes="ccccc" id="path3805-9" d="m -6.4210293,0.26404716 -5.8431727,-3.5945e-4 c -0.03058,-0.34303285 -0.02464,-0.2398361 7.94e-4,-0.44992675 l 5.7800433,-0.0340829 c 0.00717,0.27068395 -0.014896,0.14208461 0.062335,0.4843691 z" inkscape:connector-curvature="0" fill="#ffffff" fill-rule="evenodd" stroke="none" fill-opacity="1"/>
  <path inkscape:connector-curvature="0" sodipodi:nodetypes="ccccccc" id="path3807" d="m -12.300556,1.1181536 -0.104747,1.166385 -0.706557,-0.00722 c -0.254955,-1.83849161 -0.27532,-2.96808619 -0.02268,-4.0112165 l 0.480924,-0.1236375 0.257401,1.05799093 c -0.08909,0.64670127 -0.211623,1.14171171 0.09566,1.91769847 z" fill="#888888" fill-rule="evenodd" stroke="none" fill-opacity="1"/>
  <path d="M -12.406142,1.1709468 -12.510889,2.19655 -13.015072,2.18933 c -0.254955,-1.83849166 -0.310516,-2.78331008 -0.05788,-3.8264404 l 0.313746,-0.097241 0.222205,0.97000229 c -0.08909,0.64670127 -0.176427,1.15930944 0.130855,1.93529581 z" id="path3809" sodipodi:nodetypes="ccccccc" inkscape:connector-curvature="0" fill="#c1c1c1" fill-rule="evenodd" stroke="none" fill-opacity="1"/>
  <path inkscape:connector-curvature="0" sodipodi:nodetypes="ccccccc" id="path3811" d="m -12.494131,1.2149411 -0.07835,0.9024191 -0.249016,0.019177 c -0.325346,-0.8442199 -0.4337,-2.69532142 -0.181064,-3.7384517 l 0.12897,-0.035649 0.222205,0.90841025 c -0.08909,0.64670127 -0.150031,1.1681083 0.157255,1.94409435 z" fill="#ffffff" fill-rule="evenodd" stroke="none" fill-opacity="1"/>
  <path inkscape:connector-curvature="0" sodipodi:nodetypes="ccccc" id="path3814" d="M 37.456616,0.37174974 C 23.496359,0.33011474 9.2731421,0.24149448 -5.177535,0.28996648 -5.260422,1.1269819 -5.2090428,0.72170066 -5.0260446,1.1737586 L 33.413585,0.75910128 c 1.866404,0.0631258 2.890059,-0.0322366 4.043031,-0.38735154 z" fill="#505050" fill-rule="evenodd" stroke="none" fill-opacity="1"/>
  <path d="M 36.365484,0.44214537 C 22.405227,0.40051037 9.7659115,0.34708792 -4.6847656,0.39555992 -4.7676526,1.2325753 -4.786669,0.51051377 -4.6036708,0.96257171 L 32.111266,0.65350784 c 1.866404,0.0631258 3.101246,0.14375247 4.254218,-0.21136247 z" id="path3816" sodipodi:nodetypes="ccccc" inkscape:connector-curvature="0" fill="#919191" fill-rule="evenodd" stroke="none" fill-opacity="1"/>
 </g>
 <g font-size="7.5" font-variant="normal" letter-spacing="0" font-stretch="normal" font-weight="bold" line-height="125%" word-spacing="0" font-style="normal" transform="translate(76.18515,-43.013714)" id="text4330" stroke-opacity="1" font-family="STIX" fill="#000000" stroke="none" stroke-linejoin="miter" fill-opacity="1" stroke-linecap="butt" stroke-width="1">
  <path inkscape:connector-curvature="0" id="path4335-6" d="m -56.13327,39.467617 v -0.1875 c -0.3075,0 -0.4425,-0.165 -0.825,-1.0725 l -1.665,-3.915 h -0.21 l -1.6575,4.0875 c -0.285,0.705 -0.3975,0.84 -0.7425,0.9 v 0.1875 h 1.515 v -0.1875 c -0.4425,-0.03 -0.6075,-0.1125 -0.6075,-0.3075 0,-0.18 0.1425,-0.495 0.2325,-0.7275 l 0.0975,-0.255 h 1.6875 c 0.255,0.5925 0.345,0.855 0.345,1.02 0,0.165 -0.0975,0.225 -0.345,0.2475 l -0.24,0.0225 v 0.1875 z m -2.2875,-1.77 h -1.4625 l 0.705,-1.8225 z"/>
  <path inkscape:connector-curvature="0" id="path4337-7" d="m -55.760848,34.397617 v 0.1875 c 0.525,0.045 0.63,0.15 0.63,0.735 v 3.2025 c 0,0.3825 -0.045,0.5925 -0.2925,0.69 -0.0825,0.0375 -0.195,0.0525 -0.3375,0.0675 v 0.1875 h 2.4975 v -0.1875 c -0.5925,-0.075 -0.6525,-0.1425 -0.6525,-0.645 v -1.44 c 0.99,-0.0075 1.245,-0.03 1.5675,-0.15 0.6225,-0.2325 0.9675,-0.69 0.9675,-1.29 0,-0.915 -0.765,-1.3575 -2.0175,-1.3575 z m 1.845,0.525 c 0,-0.1725 0.1275,-0.2625 0.375,-0.2625 0.6225,0 0.87,0.345 0.87,1.1775 0,0.8325 -0.3075,1.0875 -1.245,1.095 z"/>
 </g>
</svg>
