<?xml version="1.0" encoding="UTF-8" standalone="no"?>
<!-- Created with Inkscape (http://www.inkscape.org/) -->

<svg
   xmlns:dc="http://purl.org/dc/elements/1.1/"
   xmlns:cc="http://creativecommons.org/ns#"
   xmlns:rdf="http://www.w3.org/1999/02/22-rdf-syntax-ns#"
   xmlns:svg="http://www.w3.org/2000/svg"
   xmlns="http://www.w3.org/2000/svg"
   xmlns:xlink="http://www.w3.org/1999/xlink"
   xmlns:sodipodi="http://sodipodi.sourceforge.net/DTD/sodipodi-0.dtd"
   xmlns:inkscape="http://www.inkscape.org/namespaces/inkscape"
   width="255"
   height="255"
   viewBox="0 0 67.468748 67.468752"
   version="1.1"
   id="svg8"
   inkscape:version="0.92.5 (2060ec1f9f, 2020-04-08)"
   sodipodi:docname="xfce-terminal.svg">
  <defs
     id="defs2">
    <linearGradient
       inkscape:collect="always"
       id="linearGradient887">
      <stop
         style="stop-color:#d8a42d;stop-opacity:1;"
         offset="0"
         id="stop883" />
      <stop
         id="stop893"
         offset="0.33589697"
         style="stop-color:#9a731d;stop-opacity:1" />
      <stop
         id="stop891"
         offset="0.66537237"
         style="stop-color:#ead3a0;stop-opacity:1" />
      <stop
         style="stop-color:#d09f31;stop-opacity:1"
         offset="1"
         id="stop885" />
    </linearGradient>
    <radialGradient
       inkscape:collect="always"
       xlink:href="#linearGradient887"
       id="radialGradient889"
       cx="28.830633"
       cy="292.92169"
       fx="28.830633"
       fy="292.92169"
       r="11.910954"
       gradientTransform="matrix(-0.56056777,0.95727979,-0.83590155,-0.4894906,307.08172,391.07323)"
       gradientUnits="userSpaceOnUse"
       spreadMethod="reflect" />
    <radialGradient
       inkscape:collect="always"
       xlink:href="#linearGradient887"
       id="radialGradient897"
       gradientUnits="userSpaceOnUse"
       gradientTransform="matrix(-0.95913285,0.55739135,-0.48671693,-0.83751958,214.19065,506.14245)"
       cx="28.830633"
       cy="292.92169"
       fx="28.830633"
       fy="292.92169"
       r="11.910954"
       spreadMethod="reflect" />
    <radialGradient
       inkscape:collect="always"
       xlink:href="#linearGradient887"
       id="radialGradient901"
       gradientUnits="userSpaceOnUse"
       gradientTransform="matrix(-1.0396896,0.05679844,-0.04959671,-0.90786209,85.31369,542.1077)"
       cx="28.830633"
       cy="292.92169"
       fx="28.830633"
       fy="292.92169"
       r="11.910954"
       spreadMethod="reflect" />
    <radialGradient
       inkscape:collect="always"
       xlink:href="#linearGradient887"
       id="radialGradient905"
       gradientUnits="userSpaceOnUse"
       gradientTransform="matrix(-0.77481787,-0.43987094,0.39410981,-0.65938636,-55.529248,483.66214)"
       cx="28.830633"
       cy="292.92169"
       fx="28.830633"
       fy="292.92169"
       r="11.910954"
       spreadMethod="reflect" />
    <radialGradient
       inkscape:collect="always"
       xlink:href="#linearGradient887"
       id="radialGradient909"
       gradientUnits="userSpaceOnUse"
       gradientTransform="matrix(-0.46495595,-0.62773822,0.62860598,-0.33786864,-134.72877,392.99311)"
       cx="28.830633"
       cy="292.92169"
       fx="28.830633"
       fy="292.92169"
       r="11.910954"
       spreadMethod="reflect" />
    <radialGradient
       inkscape:collect="always"
       xlink:href="#linearGradient887"
       id="radialGradient913"
       gradientUnits="userSpaceOnUse"
       gradientTransform="matrix(-0.2204346,-0.64647517,0.64144469,-0.10522481,-146.85606,323.18822)"
       cx="28.830633"
       cy="292.92169"
       fx="28.830633"
       fy="292.92169"
       r="11.910954"
       spreadMethod="reflect" />
    <radialGradient
       inkscape:collect="always"
       xlink:href="#linearGradient887"
       id="radialGradient917"
       gradientUnits="userSpaceOnUse"
       gradientTransform="matrix(-0.0892789,1.1057351,-0.96553347,-0.07795879,332.56778,264.0956)"
       cx="28.830633"
       cy="292.92169"
       fx="28.830633"
       fy="292.92169"
       r="11.910954"
       spreadMethod="reflect" />
    <radialGradient
       inkscape:collect="always"
       xlink:href="#linearGradient887"
       id="radialGradient921"
       gradientUnits="userSpaceOnUse"
       gradientTransform="matrix(0.49738581,1.001883,-0.9153409,0.41510695,300.67371,120.74023)"
       cx="28.830633"
       cy="292.92169"
       fx="28.830633"
       fy="292.92169"
       r="11.910954"
       spreadMethod="reflect" />
    <radialGradient
       inkscape:collect="always"
       xlink:href="#linearGradient887"
       id="radialGradient931"
       cx="19.954781"
       cy="302.90414"
       fx="19.954781"
       fy="302.90414"
       r="41.558376"
       gradientTransform="matrix(0.8011977,-0.22608034,0.22077107,0.78238247,-43.887042,44.251132)"
       gradientUnits="userSpaceOnUse" />
    <radialGradient
       inkscape:collect="always"
       xlink:href="#linearGradient887"
       id="radialGradient935"
       gradientUnits="userSpaceOnUse"
       gradientTransform="matrix(0.19640026,-0.58097955,0.58802672,0.2537872,-143.53145,214.87774)"
       cx="28.830633"
       cy="292.92169"
       fx="28.830633"
       fy="292.92169"
       r="11.910954"
       spreadMethod="reflect" />
    <radialGradient
       inkscape:collect="always"
       xlink:href="#linearGradient887"
       id="radialGradient939"
       gradientUnits="userSpaceOnUse"
       gradientTransform="matrix(0.35764652,-0.38476245,0.35877209,0.41577841,-80.427776,159.80557)"
       cx="28.830633"
       cy="292.92169"
       fx="28.830633"
       fy="292.92169"
       r="11.910954"
       spreadMethod="reflect" />
    <radialGradient
       inkscape:collect="always"
       xlink:href="#linearGradient887"
       id="radialGradient943"
       gradientUnits="userSpaceOnUse"
       gradientTransform="matrix(0.41109539,-0.25647713,0.20500439,0.48087833,-35.588677,135.9466)"
       cx="28.830633"
       cy="292.92169"
       fx="28.830633"
       fy="292.92169"
       r="11.910954"
       spreadMethod="reflect" />
    <radialGradient
       inkscape:collect="always"
       xlink:href="#linearGradient887"
       id="radialGradient947"
       gradientUnits="userSpaceOnUse"
       gradientTransform="matrix(0.41977349,-0.10564344,0.04133524,0.47084398,13.404778,133.68784)"
       cx="28.830633"
       cy="292.92169"
       fx="28.830633"
       fy="292.92169"
       r="11.910954"
       spreadMethod="reflect" />
    <radialGradient
       inkscape:collect="always"
       xlink:href="#linearGradient887"
       id="radialGradient951"
       gradientUnits="userSpaceOnUse"
       gradientTransform="matrix(0.42787062,0.06555193,-0.14463995,0.44997993,68.637499,135.0339)"
       cx="28.830633"
       cy="292.92169"
       fx="28.830633"
       fy="292.92169"
       r="11.910954"
       spreadMethod="reflect" />
    <radialGradient
       inkscape:collect="always"
       xlink:href="#linearGradient887"
       id="radialGradient955"
       gradientUnits="userSpaceOnUse"
       gradientTransform="matrix(0.39926221,0.16721247,-0.24930052,0.40156183,101.16305,146.93089)"
       cx="28.830633"
       cy="292.92169"
       fx="28.830633"
       fy="292.92169"
       r="11.910954"
       spreadMethod="reflect" />
    <radialGradient
       inkscape:collect="always"
       xlink:href="#linearGradient887"
       id="radialGradient959"
       gradientUnits="userSpaceOnUse"
       gradientTransform="matrix(0.23832014,0.33092266,-0.37127813,0.22052994,142.40754,195.69556)"
       cx="28.830633"
       cy="292.92169"
       fx="28.830633"
       fy="292.92169"
       r="11.910954"
       spreadMethod="reflect" />
    <radialGradient
       inkscape:collect="always"
       xlink:href="#linearGradient887"
       id="radialGradient963"
       gradientUnits="userSpaceOnUse"
       gradientTransform="matrix(0.21578259,0.34604071,-0.38512358,0.19534772,148.03833,203.97642)"
       cx="28.830633"
       cy="292.92169"
       fx="28.830633"
       fy="292.92169"
       r="11.910954"
       spreadMethod="reflect" />
    <radialGradient
       inkscape:collect="always"
       xlink:href="#linearGradient887"
       id="radialGradient967"
       gradientUnits="userSpaceOnUse"
       gradientTransform="matrix(0.06693008,0.40227685,-0.43056438,0.03309416,165.82698,250.6485)"
       cx="28.830633"
       cy="292.92169"
       fx="28.830633"
       fy="292.92169"
       r="11.910954"
       spreadMethod="reflect" />
    <radialGradient
       inkscape:collect="always"
       xlink:href="#linearGradient887"
       id="radialGradient971"
       gradientUnits="userSpaceOnUse"
       gradientTransform="matrix(-0.26518833,0.261373,-0.29120973,-0.26846676,134.92764,343.18342)"
       cx="28.830633"
       cy="292.92169"
       fx="28.830633"
       fy="292.92169"
       r="11.910954"
       spreadMethod="reflect" />
    <radialGradient
       inkscape:collect="always"
       xlink:href="#linearGradient887"
       id="radialGradient975"
       gradientUnits="userSpaceOnUse"
       gradientTransform="matrix(-0.36746246,0.06010021,-0.08255797,-0.38737797,76.392041,384.22864)"
       cx="28.830633"
       cy="292.92169"
       fx="28.830633"
       fy="292.92169"
       r="11.910954"
       spreadMethod="reflect" />
    <radialGradient
       inkscape:collect="always"
       xlink:href="#linearGradient887"
       id="radialGradient979"
       gradientUnits="userSpaceOnUse"
       gradientTransform="matrix(-0.34453026,-0.14120763,0.13250281,-0.37325664,11.832354,385.70117)"
       cx="28.830633"
       cy="292.92169"
       fx="28.830633"
       fy="292.92169"
       r="11.910954"
       spreadMethod="reflect" />
    <radialGradient
       inkscape:collect="always"
       xlink:href="#linearGradient887"
       id="radialGradient983"
       gradientUnits="userSpaceOnUse"
       gradientTransform="matrix(-0.34453026,-0.14120763,0.13250281,-0.37325664,10.686007,385.29995)"
       cx="28.830633"
       cy="292.92169"
       fx="28.830633"
       fy="292.92169"
       r="11.910954"
       spreadMethod="reflect" />
    <radialGradient
       inkscape:collect="always"
       xlink:href="#linearGradient887"
       id="radialGradient987"
       gradientUnits="userSpaceOnUse"
       gradientTransform="matrix(-0.17797111,-0.32705807,0.33844899,-0.20574206,-54.180631,341.60356)"
       cx="28.830633"
       cy="292.92169"
       fx="28.830633"
       fy="292.92169"
       r="11.910954"
       spreadMethod="reflect" />
    <filter
       inkscape:collect="always"
       style="color-interpolation-filters:sRGB"
       id="filter1098"
       x="-0.032934097"
       width="1.0658682"
       y="-0.039695319"
       height="1.0793906">
      <feGaussianBlur
         inkscape:collect="always"
         stdDeviation="0.84591983"
         id="feGaussianBlur1100" />
    </filter>
    <linearGradient
       id="linearGradient3166">
      <stop
         style="stop-color:#000000;stop-opacity:1;"
         offset="0"
         id="stop3168" />
      <stop
         style="stop-color:#7c7c7c;stop-opacity:0;"
         offset="1"
         id="stop3170" />
    </linearGradient>
    <linearGradient
       id="linearGradient3156">
      <stop
         id="stop3158"
         offset="0"
         style="stop-color:#000000;stop-opacity:1;" />
      <stop
         id="stop3160"
         offset="1"
         style="stop-color:#7c7c7c;stop-opacity:1;" />
    </linearGradient>
    <inkscape:perspective
       id="perspective9"
       inkscape:persp3d-origin="372.04724 : 350.78739 : 1"
       inkscape:vp_z="744.09448 : 526.18109 : 1"
       inkscape:vp_y="0 : 1000 : 0"
       inkscape:vp_x="0 : 526.18109 : 1"
       sodipodi:type="inkscape:persp3d" />
    <inkscape:perspective
       sodipodi:type="inkscape:persp3d"
       inkscape:vp_x="0 : 526.18109 : 1"
       inkscape:vp_y="0 : 1000 : 0"
       inkscape:vp_z="744.09448 : 526.18109 : 1"
       inkscape:persp3d-origin="372.04724 : 350.78739 : 1"
       id="perspective10" />
    <linearGradient
       gradientTransform="matrix(7.8286197,0,0,7.8286197,3.2791449,8.2705889)"
       y2="24.234308"
       x2="17.035564"
       y1="18.075314"
       x1="12.420502"
       spreadMethod="reflect"
       gradientUnits="userSpaceOnUse"
       id="linearGradient2409"
       xlink:href="#linearGradient3166"
       inkscape:collect="always" />
    <linearGradient
       gradientTransform="matrix(7.8286197,0,0,7.8286197,3.2791449,8.2705889)"
       y2="10.309623"
       x2="18.441422"
       y1="20.150627"
       x1="8.2029285"
       spreadMethod="reflect"
       gradientUnits="userSpaceOnUse"
       id="linearGradient2412"
       xlink:href="#linearGradient3156"
       inkscape:collect="always" />
  </defs>
  <sodipodi:namedview
     id="base"
     pagecolor="#ff0000"
     bordercolor="#666666"
     borderopacity="1.0"
     inkscape:pageopacity="0"
     inkscape:pageshadow="2"
     inkscape:zoom="3.4901961"
     inkscape:cx="127.5"
     inkscape:cy="127.5"
     inkscape:document-units="mm"
     inkscape:current-layer="layer1"
     showgrid="false"
     units="px"
     inkscape:snap-to-guides="false"
     inkscape:snap-grids="false"
     inkscape:snap-others="false"
     inkscape:object-nodes="false"
     inkscape:snap-nodes="false"
     inkscape:snap-global="false"
     inkscape:window-width="1920"
     inkscape:window-height="1056"
     inkscape:window-x="0"
     inkscape:window-y="0"
     inkscape:window-maximized="1" />
  <metadata
     id="metadata5">
    <rdf:RDF>
      <cc:Work
         rdf:about="">
        <dc:format>image/svg+xml</dc:format>
        <dc:type
           rdf:resource="http://purl.org/dc/dcmitype/StillImage" />
        <dc:title></dc:title>
      </cc:Work>
    </rdf:RDF>
  </metadata>
  <g
     inkscape:label="Layer 1"
     inkscape:groupmode="layer"
     id="layer1"
     transform="translate(0,-229.53123)">
    <g
       id="g3203"
       transform="matrix(0.27329435,0,0,0.27329435,-0.95599846,226.96325)">
      <rect
         ry="14.584895"
         y="47.577465"
         x="9.5682449"
         height="176.0948"
         width="235.84126"
         id="rect2384"
         style="fill:url(#linearGradient2412);fill-opacity:1;stroke:#000000;stroke-width:7.82861948;stroke-linecap:round;stroke-linejoin:round;stroke-miterlimit:4;stroke-dasharray:none;stroke-opacity:0.69082121" />
      <rect
         style="fill:url(#linearGradient2409);fill-opacity:1;stroke:none;stroke-width:1;stroke-linecap:round;stroke-linejoin:round;stroke-miterlimit:4;stroke-dasharray:none;stroke-opacity:1"
         id="rect3164"
         width="229.34052"
         height="170.29811"
         x="13.760979"
         y="50.197926"
         ry="11.487821" />
      <path
         inkscape:connector-curvature="0"
         id="text3198"
         d="m 25.311327,62.950391 h 5.509325 v 2.516069 c 0.530199,-1.089319 1.074864,-1.836427 1.633999,-2.241326 0.568757,-0.41451 1.267665,-0.621772 2.096725,-0.621788 0.867598,1.6e-5 1.817148,0.269939 2.848653,0.80977 l -1.821981,4.193449 c -0.6941,-0.289192 -1.243585,-0.433794 -1.648459,-0.433805 -0.771219,1.1e-5 -1.368906,0.318135 -1.793061,0.954371 -0.607336,0.89654 -0.910999,2.573918 -0.910991,5.032139 v 5.147821 h -5.91421 v -15.3567 m 12.811711,7.72173 c -1e-6,-2.342537 0.790488,-4.270558 2.371468,-5.784068 1.580974,-1.523123 3.716256,-2.284691 6.405855,-2.284707 3.075183,1.6e-5 5.398448,0.891726 6.969802,2.675132 1.262837,1.436388 1.894263,3.205347 1.894282,5.306882 -1.9e-5,2.361833 -0.785687,4.299494 -2.357007,5.812988 -1.561714,1.503858 -3.725917,2.255786 -6.492617,2.255787 -2.467876,-10e-7 -4.463377,-0.626607 -5.98651,-1.879822 -1.870184,-1.552055 -2.805274,-3.586117 -2.805273,-6.102192 m 5.899749,-0.01446 c -7e-6,1.368902 0.274736,2.381113 0.82423,3.036636 0.559118,0.655531 1.258026,0.983295 2.096725,0.983291 0.848319,4e-6 1.542406,-0.32294 2.082264,-0.968831 0.549474,-0.645883 0.824217,-1.682194 0.82423,-3.108937 -1.3e-5,-1.330326 -0.274756,-2.318437 -0.82423,-2.964334 -0.549498,-0.655517 -1.229125,-0.98328 -2.038884,-0.983292 -0.857979,1.2e-5 -1.566527,0.332595 -2.125645,0.997752 -0.559134,0.655537 -0.838697,1.658108 -0.83869,3.007715 m 13.881761,0.01446 c -2e-6,-2.342537 0.790487,-4.270558 2.371467,-5.784068 1.580974,-1.523123 3.716257,-2.284691 6.405856,-2.284707 3.075183,1.6e-5 5.398448,0.891726 6.969801,2.675132 1.262837,1.436388 1.894264,3.205347 1.894283,5.306882 -1.9e-5,2.361833 -0.785688,4.299494 -2.357008,5.812988 -1.561713,1.503858 -3.725916,2.255786 -6.492616,2.255787 -2.467877,-10e-7 -4.463378,-0.626607 -5.986511,-1.879822 -1.870183,-1.552055 -2.805274,-3.586117 -2.805272,-6.102192 m 5.899749,-0.01446 c -7e-6,1.368902 0.274736,2.381113 0.824229,3.036636 0.559119,0.655531 1.258026,0.983295 2.096725,0.983291 0.848319,4e-6 1.542407,-0.32294 2.082265,-0.968831 0.549473,-0.645883 0.824216,-1.682194 0.824229,-3.108937 -1.3e-5,-1.330326 -0.274756,-2.318437 -0.824229,-2.964334 -0.549498,-0.655517 -1.229126,-0.98328 -2.038884,-0.983292 -0.85798,1.2e-5 -1.566527,0.332595 -2.125645,0.997752 -0.559134,0.655537 -0.838697,1.658108 -0.83869,3.007715 M 85.509013,57.108482 v 5.841909 h 3.239078 v 4.29467 h -3.239078 v 5.451484 c -9e-6,0.655533 0.06265,1.089337 0.187982,1.301415 0.192793,0.327768 0.530196,0.49165 1.012212,0.491646 0.433794,4e-6 1.041121,-0.125318 1.821981,-0.375964 l 0.433805,4.063307 c -1.455668,0.318124 -2.814922,0.477185 -4.077768,0.477186 -1.465304,-10e-7 -2.544995,-0.187983 -3.239078,-0.563947 -0.694092,-0.375964 -1.209838,-0.94473 -1.547238,-1.7063 -0.327767,-0.771206 -0.491649,-2.01478 -0.491646,-3.730724 v -5.408103 h -2.169025 v -4.29467 h 2.169025 v -2.819734 l 5.89975,-3.022175 m 17.800467,12.464666 0.75193,-3.658423 h -3.54274 v -3.991007 h 4.33805 l 1.02667,-5.17674 h 4.12115 l -1.05559,5.17674 h 3.16677 l 1.04113,-5.17674 h 4.10669 l -1.01221,5.17674 h 1.98104 v 3.991007 h -2.79081 l -0.73747,3.658423 h 3.52828 v 3.991007 h -4.32359 l -1.02667,5.08998 h -4.12115 l 1.01222,-5.08998 h -3.15232 l -1.04113,5.08998 h -4.09223 l 1.05559,-5.08998 h -2.02442 v -3.991007 h 2.79081 m 4.10669,0 h 3.16677 l 0.75193,-3.658423 h -3.15231 l -0.76639,3.658423 m 13.34673,7.114404 16.44122,-6.839661 v -4.28021 l -16.44122,-6.8252 v 5.13336 l 9.99198,3.846406 -9.99198,3.860865 v 5.10444 m 17.81494,3.846405 h 15.15426 v 1.474937 h -15.15426 v -1.474937"
         style="font-style:normal;font-variant:normal;font-weight:normal;font-stretch:normal;font-size:29.61442757px;font-family:'Arial Black';-inkscape-font-specification:'Arial Black';fill:#c3c3c3;fill-opacity:1;stroke:none;stroke-width:1px;stroke-linecap:butt;stroke-linejoin:miter;stroke-opacity:1"
         transform="scale(0.8420203,1.1876198)" />
    </g>
    <g
       id="g892"
       transform="matrix(0.90266764,0,0,0.90266764,3.6867905,31.559366)">
      <path
         transform="matrix(0.85347283,0,0,0.85347283,3.8132021,40.93984)"
         style="fill:#000000;fill-opacity:1;stroke:none;stroke-width:0.10713534;stroke-linecap:butt;stroke-linejoin:miter;stroke-miterlimit:4;stroke-dasharray:none;stroke-opacity:1;filter:url(#filter1098)"
         d="m 32.080689,242.26971 c -10.786832,0.17253 -21.640716,5.03238 -28.3204473,13.61854 -1.689713,2.32475 -1.1393129,5.47917 0.154229,7.84921 2.3360422,4.2908 6.1992413,7.5933 10.4214643,9.95301 2.749046,1.43594 5.924486,2.72213 9.071576,2.02299 1.080486,-0.26946 2.073505,-0.9137 2.707631,-1.83587 -0.03769,1.04034 0.208962,2.05845 0.05274,3.09118 -0.04355,1.60756 0.613842,3.12794 1.159633,4.58514 0.07863,2.94766 2.298606,5.26565 4.424978,7.05212 0.853497,0.93813 1.692837,1.96194 2.858446,2.55616 2.754935,1.59762 5.998576,1.81641 9.079247,2.23096 3.318015,0.16335 6.555702,-0.95583 9.523383,-2.33294 -0.167154,-0.0428 0.511202,-0.16897 0.761113,-0.39813 2.411872,-1.37709 4.234397,-3.52208 6.047783,-5.5734 1.001073,-1.26182 1.61822,-2.78183 2.253434,-4.22874 2.198924,-2.22466 2.334841,-5.65706 1.827086,-8.56605 -0.227419,-1.60718 -0.813908,-3.14649 -1.205783,-4.69922 -1.196317,-7.22923 -4.82079,-14.2066 -10.615955,-18.80382 -5.649988,-4.55478 -13.004583,-6.64812 -20.200533,-6.52114 z"
         id="path1084"
         inkscape:connector-curvature="0"
         sodipodi:nodetypes="cccccccccccccccccccc" />
      <path
         sodipodi:nodetypes="cccccccccccccccccccc"
         inkscape:connector-curvature="0"
         id="path989"
         d="m 31.959441,245.05768 c -9.206268,0.14725 -18.469763,4.295 -24.1707325,11.62305 -1.442123,1.98411 -0.972372,4.67633 0.131631,6.6991 1.993748,3.66208 5.2908835,6.48066 8.8944355,8.49462 2.346236,1.22554 5.056388,2.32326 7.742344,1.72657 0.922165,-0.22998 1.769681,-0.77982 2.31089,-1.56687 -0.03217,0.8879 0.178343,1.75683 0.04501,2.63824 -0.03717,1.372 0.523897,2.66961 0.989716,3.91329 0.06711,2.51575 1.961797,4.49409 3.776597,6.0188 0.728438,0.80066 1.444792,1.67445 2.439607,2.18161 2.351261,1.36352 5.119621,1.55026 7.74889,1.90406 2.831836,0.13942 5.595113,-0.81577 8.127949,-1.99111 -0.142662,-0.0365 0.436297,-0.1442 0.649589,-0.33978 2.058468,-1.17531 3.613943,-3.006 5.161619,-4.75675 0.854389,-1.07693 1.051938,-2.66224 1.594076,-3.89713 1.876721,-1.89869 1.828138,-4.54013 1.394783,-7.02287 -0.194096,-1.37169 -0.653502,-2.74717 -0.987956,-4.07239 -1.021025,-6.16994 -3.661807,-12.06322 -8.607823,-15.98682 -4.822111,-3.88738 -11.099058,-5.67399 -17.240605,-5.56562 z"
         style="fill:#a6812b;fill-opacity:1;stroke:none;stroke-width:0.0914371;stroke-linecap:butt;stroke-linejoin:miter;stroke-miterlimit:4;stroke-dasharray:none;stroke-opacity:1" />
      <path
         style="fill:url(#radialGradient987);fill-opacity:1;stroke:#df9a00;stroke-width:0.09143712;stroke-linecap:butt;stroke-linejoin:miter;stroke-miterlimit:4;stroke-dasharray:none;stroke-opacity:1"
         d="m 39.96296,271.4464 c 1.436951,-3.12934 -6.520071,-3.40655 -4.122887,2.79416 -0.117327,-3.01309 3.465941,-3.94725 4.122887,-2.79416 z"
         id="path985"
         inkscape:connector-curvature="0"
         sodipodi:nodetypes="ccc" />
      <path
         sodipodi:nodetypes="ccc"
         inkscape:connector-curvature="0"
         id="path981"
         d="m 39.379575,271.45039 c -0.861971,-3.33387 -7.206765,1.47598 -1.432328,4.77011 -1.993711,-2.26221 0.194774,-5.24935 1.432328,-4.77011 z"
         style="fill:url(#radialGradient983);fill-opacity:1;stroke:#df9a00;stroke-width:0.09143712;stroke-linecap:butt;stroke-linejoin:miter;stroke-miterlimit:4;stroke-dasharray:none;stroke-opacity:1" />
      <path
         style="fill:url(#radialGradient979);fill-opacity:1;stroke:#df9a00;stroke-width:0.09143712;stroke-linecap:butt;stroke-linejoin:miter;stroke-miterlimit:4;stroke-dasharray:none;stroke-opacity:1"
         d="m 40.525923,271.85161 c -0.861971,-3.33387 -7.206766,1.47598 -1.432328,4.7701 -1.993712,-2.26219 0.194773,-5.24933 1.432328,-4.7701 z"
         id="path977"
         inkscape:connector-curvature="0"
         sodipodi:nodetypes="ccc" />
      <path
         sodipodi:nodetypes="ccc"
         inkscape:connector-curvature="0"
         id="path973"
         d="m 41.223863,272.20971 c -2.480032,-2.38895 -5.366974,5.03106 1.277439,4.8139 -2.883079,-0.88335 -2.582712,-4.57417 -1.277439,-4.8139 z"
         style="fill:url(#radialGradient975);fill-opacity:1;stroke:#df9a00;stroke-width:0.09143712;stroke-linecap:butt;stroke-linejoin:miter;stroke-miterlimit:4;stroke-dasharray:none;stroke-opacity:1" />
      <path
         style="fill:url(#radialGradient971);fill-opacity:1;stroke:#df9a00;stroke-width:0.09143712;stroke-linecap:butt;stroke-linejoin:miter;stroke-miterlimit:4;stroke-dasharray:none;stroke-opacity:1"
         d="m 41.499405,272.07641 c -3.404481,-0.51684 -1.473442,7.20728 3.824097,3.19089 -2.863498,0.94488 -4.750914,-2.24104 -3.824097,-3.19089 z"
         id="path969"
         inkscape:connector-curvature="0"
         sodipodi:nodetypes="ccc" />
      <path
         sodipodi:nodetypes="ccccc"
         inkscape:connector-curvature="0"
         id="path923"
         d="m 8.0248695,256.38629 c -6.3882173,7.66957 15.4257925,23.43425 19.0866865,14.73057 2.523675,-8.8491 16.804935,-13.66916 19.717179,1.26098 2.93678,5.88276 11.550739,0.69464 11.176888,-5.9037 C 52.965911,240.2403 21.334009,239.89709 8.0248695,256.38629 Z"
         style="fill:url(#radialGradient931);fill-opacity:1;stroke:#eba300;stroke-width:0.16335453px;stroke-linecap:butt;stroke-linejoin:miter;stroke-opacity:1" />
      <path
         sodipodi:nodetypes="ccc"
         inkscape:connector-curvature="0"
         id="path965"
         d="m 41.32358,272.31922 c -2.654601,2.31565 5.594141,6.46896 5.350489,-0.6807 -0.980905,2.96261 -5.08357,2.11339 -5.350489,0.6807 z"
         style="fill:url(#radialGradient967);fill-opacity:1;stroke:#df9a00;stroke-width:0.09978133;stroke-linecap:butt;stroke-linejoin:miter;stroke-miterlimit:4;stroke-dasharray:none;stroke-opacity:1" />
      <path
         style="fill:url(#radialGradient963);fill-opacity:1;stroke:#df9a00;stroke-width:0.09978133;stroke-linecap:butt;stroke-linejoin:miter;stroke-miterlimit:4;stroke-dasharray:none;stroke-opacity:1"
         d="m 41.305724,271.64373 c -1.566345,3.15527 7.643905,3.8357 4.682693,-2.67646 0.227527,3.11247 -3.887816,3.89794 -4.682693,2.67646 z"
         id="path961"
         inkscape:connector-curvature="0"
         sodipodi:nodetypes="ccc" />
      <path
         sodipodi:nodetypes="ccc"
         inkscape:connector-curvature="0"
         id="path957"
         d="m 40.411854,270.31187 c -1.353017,3.25246 7.882095,3.31881 4.494312,-2.98199 0.434034,3.09045 -3.619951,4.1479 -4.494312,2.98199 z"
         style="fill:url(#radialGradient959);fill-opacity:1;stroke:#df9a00;stroke-width:0.09978133;stroke-linecap:butt;stroke-linejoin:miter;stroke-miterlimit:4;stroke-dasharray:none;stroke-opacity:1" />
      <path
         style="fill:url(#radialGradient955);fill-opacity:1;stroke:#df9a00;stroke-width:0.10707791;stroke-linecap:butt;stroke-linejoin:miter;stroke-miterlimit:4;stroke-dasharray:none;stroke-opacity:1"
         d="m 39.782224,269.86834 c 0.33144,3.66595 9.343625,-1.32889 2.859554,-5.14195 1.986817,2.54215 -1.41912,5.71208 -2.859554,5.14195 z"
         id="path953"
         inkscape:connector-curvature="0"
         sodipodi:nodetypes="ccc" />
      <path
         sodipodi:nodetypes="ccc"
         inkscape:connector-curvature="0"
         id="path949"
         d="m 38.853614,269.17615 c 1.209308,3.47657 8.743735,-3.55196 1.529289,-5.68139 2.54328,1.98538 0.0063,5.88574 -1.529289,5.68139 z"
         style="fill:url(#radialGradient951);fill-opacity:1;stroke:#df9a00;stroke-width:0.10707791;stroke-linecap:butt;stroke-linejoin:miter;stroke-miterlimit:4;stroke-dasharray:none;stroke-opacity:1" />
      <path
         style="fill:url(#radialGradient947);fill-opacity:1;stroke:#df9a00;stroke-width:0.10707791;stroke-linecap:butt;stroke-linejoin:miter;stroke-miterlimit:4;stroke-dasharray:none;stroke-opacity:1"
         d="m 38.016244,268.87472 c 2.463785,2.73475 6.679851,-6.66699 -0.795534,-5.82956 3.114455,0.8427 2.290099,5.42192 0.795534,5.82956 z"
         id="path945"
         inkscape:connector-curvature="0"
         sodipodi:nodetypes="ccc" />
      <path
         sodipodi:nodetypes="ccc"
         inkscape:connector-curvature="0"
         id="path941"
         d="m 36.847803,269.60137 c 3.559754,2.02295 4.83723,-9.32504 -2.840487,-5.85554 3.606122,-0.19228 4.293381,4.90924 2.840487,5.85554 z"
         style="fill:url(#radialGradient943);fill-opacity:1;stroke:#df9a00;stroke-width:0.1191816;stroke-linecap:butt;stroke-linejoin:miter;stroke-miterlimit:4;stroke-dasharray:none;stroke-opacity:1" />
      <path
         style="fill:url(#radialGradient939);fill-opacity:1;stroke:#df9a00;stroke-width:0.12757201;stroke-linecap:butt;stroke-linejoin:miter;stroke-miterlimit:4;stroke-dasharray:none;stroke-opacity:1"
         d="m 35.595099,270.52497 c 4.354658,0.90424 2.339081,-10.82287 -4.731771,-4.95503 3.747053,-1.32141 5.983952,3.55541 4.731771,4.95503 z"
         id="path937"
         inkscape:connector-curvature="0"
         sodipodi:nodetypes="ccc" />
      <path
         sodipodi:nodetypes="ccc"
         inkscape:connector-curvature="0"
         id="path933"
         d="m 35.05262,272.17934 c 5.117084,-1.24199 -2.766493,-12.46716 -7.497576,-2.7956 3.379197,-3.25941 8.1596,0.70671 7.497576,2.7956 z"
         style="fill:url(#radialGradient935);fill-opacity:1;stroke:#df9a00;stroke-width:0.14905986;stroke-linecap:butt;stroke-linejoin:miter;stroke-miterlimit:4;stroke-dasharray:none;stroke-opacity:1" />
      <path
         style="fill:url(#radialGradient913);fill-opacity:1;stroke:#df9a00;stroke-width:0.1576459;stroke-linecap:butt;stroke-linejoin:miter;stroke-miterlimit:4;stroke-dasharray:none;stroke-opacity:1"
         d="m 35.040447,273.07384 c 3.329066,-4.08412 -10.378256,-9.8567 -7.891192,1.74598 0.605807,-4.93693 7.062929,-4.04497 7.891192,-1.74598 z"
         id="path911"
         inkscape:connector-curvature="0"
         sodipodi:nodetypes="ccc" />
      <path
         sodipodi:nodetypes="ccc"
         inkscape:connector-curvature="0"
         id="path907"
         d="m 36.133294,275.08907 c 1.972246,-5.60878 -14.38576,-7.12914 -7.568607,4.6485 -1.170403,-5.59042 5.869013,-6.86542 7.568607,-4.6485 z"
         style="fill:url(#radialGradient909);fill-opacity:1;stroke:#df9a00;stroke-width:0.17695288;stroke-linecap:butt;stroke-linejoin:miter;stroke-miterlimit:4;stroke-dasharray:none;stroke-opacity:1" />
      <path
         style="fill:url(#radialGradient905);fill-opacity:1;stroke:#df9a00;stroke-width:0.1970696;stroke-linecap:butt;stroke-linejoin:miter;stroke-miterlimit:4;stroke-dasharray:none;stroke-opacity:1"
         d="m 37.239038,276.88252 c -1.268413,-6.87641 -17.203235,-0.61693 -4.425551,8.5527 -4.158806,-5.34575 1.636081,-10.07848 4.425551,-8.5527 z"
         id="path903"
         inkscape:connector-curvature="0"
         sodipodi:nodetypes="ccc" />
      <path
         sodipodi:nodetypes="ccc"
         inkscape:connector-curvature="0"
         id="path899"
         d="m 39.862617,277.08274 c -5.734318,-6.03439 -17.09139,10.36756 1.30905,11.33749 -7.535466,-2.66585 -5.014223,-11.07544 -1.30905,-11.33749 z"
         style="fill:url(#radialGradient901);fill-opacity:1;stroke:#df9a00;stroke-width:0.23180208;stroke-linecap:butt;stroke-linejoin:miter;stroke-miterlimit:4;stroke-dasharray:none;stroke-opacity:1" />
      <path
         style="fill:url(#radialGradient897);fill-opacity:1;stroke:#df9a00;stroke-width:0.24696119;stroke-linecap:butt;stroke-linejoin:miter;stroke-miterlimit:4;stroke-dasharray:none;stroke-opacity:1"
         d="m 42.714955,276.6512 c -8.364,-2.94951 -11.198588,18.1154 6.732669,10.12506 -8.441961,1.11937 -10.121883,-8.08207 -6.732669,-10.12506 z"
         id="path895"
         inkscape:connector-curvature="0"
         sodipodi:nodetypes="ccc" />
      <path
         sodipodi:nodetypes="ccc"
         inkscape:connector-curvature="0"
         id="path881"
         d="m 44.860538,275.70339 c -8.732477,1.54919 -0.831944,21.28108 10.844176,5.49995 -6.797663,5.12948 -12.788899,-2.05341 -10.844176,-5.49995 z"
         style="fill:url(#radialGradient889);fill-opacity:1;stroke:#df9a00;stroke-width:0.24696119;stroke-linecap:butt;stroke-linejoin:miter;stroke-miterlimit:4;stroke-dasharray:none;stroke-opacity:1" />
      <path
         style="fill:url(#radialGradient917);fill-opacity:1;stroke:#df9a00;stroke-width:0.24696119;stroke-linecap:butt;stroke-linejoin:miter;stroke-miterlimit:4;stroke-dasharray:none;stroke-opacity:1"
         d="m 46.261382,274.03505 c -7.19352,5.18744 8.491499,19.53128 12.156699,0.24549 -3.895965,7.57239 -12.411914,3.70362 -12.156699,-0.24549 z"
         id="path915"
         inkscape:connector-curvature="0"
         sodipodi:nodetypes="ccc" />
      <path
         sodipodi:nodetypes="ccc"
         inkscape:connector-curvature="0"
         id="path919"
         d="m 46.537838,272.44808 c -3.803012,8.08637 16.54688,13.50549 11.528005,-5.8637 0.431118,8.50288 -9.693955,9.41009 -11.528005,5.8637 z"
         style="fill:url(#radialGradient921);fill-opacity:1;stroke:#df9a00;stroke-width:0.25252321;stroke-linecap:butt;stroke-linejoin:miter;stroke-miterlimit:4;stroke-dasharray:none;stroke-opacity:1" />
    </g>
  </g>
</svg>
