<?xml version="1.0" encoding="UTF-8" standalone="no"?>
<svg xmlns:dc="http://purl.org/dc/elements/1.1/" xmlns:cc="http://creativecommons.org/ns#" xmlns:rdf="http://www.w3.org/1999/02/22-rdf-syntax-ns#" xmlns:svg="http://www.w3.org/2000/svg" xmlns="http://www.w3.org/2000/svg" xmlns:xlink="http://www.w3.org/1999/xlink" xmlns:sodipodi="http://sodipodi.sourceforge.net/DTD/sodipodi-0.dtd" xmlns:inkscape="http://www.inkscape.org/namespaces/inkscape" width="255" height="255" viewBox="0 0 67.468748 67.468752" version="1.1" id="svg8" inkscape:version="1.0 (4035a4f, 2020-05-01)" sodipodi:docname="application-vnd.oasis.opendocument.image.svg">
 <defs id="defs2">
  <linearGradient id="linearGradient1176" inkscape:collect="always">
   <stop id="stop1172" stop-color="#ffffff" stop-opacity="1"/>
   <stop id="stop1174" offset="1" stop-color="#ffffff" stop-opacity="0"/>
  </linearGradient>
  <linearGradient id="linearGradient1092" inkscape:collect="always">
   <stop id="stop1088" stop-color="#000a4d" stop-opacity="1"/>
   <stop id="stop1090" offset="1" stop-color="#dadfff" stop-opacity="0.617"/>
  </linearGradient>
  <linearGradient inkscape:collect="always" id="linearGradient1089">
   <stop id="stop1085" stop-color="#001180" stop-opacity="1"/>
   <stop offset="1" id="stop1087" stop-color="#2744ff" stop-opacity="0"/>
  </linearGradient>
  <linearGradient inkscape:collect="always" id="linearGradient1076">
   <stop id="stop1072" stop-color="#ffffff" stop-opacity="1"/>
   <stop offset="1" id="stop1074" stop-color="#4646ff" stop-opacity="0.011"/>
  </linearGradient>
  <linearGradient id="linearGradient2092" inkscape:collect="always">
   <stop id="stop2088" stop-color="#0000a3" stop-opacity="1"/>
   <stop id="stop2090" offset="1" stop-color="#3535ff" stop-opacity="0"/>
  </linearGradient>
  <linearGradient inkscape:collect="always" id="linearGradient4087">
   <stop stop-opacity="0.752" stop-color="#ffffff" id="stop4089"/>
   <stop stop-opacity="0.605" stop-color="#000000" offset="1" id="stop4091"/>
  </linearGradient>
  <linearGradient id="linearGradient993" inkscape:collect="always">
   <stop stop-opacity="0.748" stop-color="#575757" id="stop989"/>
   <stop stop-opacity="0.665" stop-color="#ffffff" id="stop991" offset="1"/>
  </linearGradient>
  <clipPath id="clipPath2059" clipPathUnits="userSpaceOnUse">
   <path stroke-miterlimit="4" stroke-width="0.048" stroke-linecap="butt" fill-opacity="1" stroke-linejoin="miter" stroke="none" fill-rule="evenodd" fill="#ffffff" stroke-opacity="1" stroke-dasharray="none" inkscape:connector-curvature="0" sodipodi:nodetypes="csscsscccccccs" id="path2061" d="m -10.099732,231.68531 c 3.5587363,2.50616 4.8319716,-0.58528 2.9651647,-3.064 -3.1818907,-4.22486 -6.4443207,-9.83985 -12.3548527,-15.91305 -2.594516,-2.66865 -11.860659,-7.80827 -11.860659,-7.80827 0,0 -0.115438,-2.18844 -0.09884,-3.064 0.01106,-0.582 -0.565687,-0.56369 -0.889553,-0.29652 -0.782426,0.64546 -2.47097,2.56981 -2.47097,2.56981 l -1.68026,-0.0988 -1.087226,-1.58142 c -0.296516,-0.41055 -0.636056,-0.34641 -0.88955,0 -0.545383,1.84962 -0.878698,3.8848 -3.459359,3.95355 l 4.447747,3.95356 c 7.76561,1.55335 15.578734,5.58545 20.261957,14.33163 0,0 4.526451,5.19364 7.116396,7.01755 z"/>
  </clipPath>
  <clipPath clipPathUnits="userSpaceOnUse" id="clipPath2059-5">
   <path d="m -10.099732,231.68531 c 3.5587363,2.50616 4.8319716,-0.58528 2.9651647,-3.064 -3.1818907,-4.22486 -6.4443207,-9.83985 -12.3548527,-15.91305 -2.594516,-2.66865 -11.860659,-7.80827 -11.860659,-7.80827 0,0 -0.115438,-2.18844 -0.09884,-3.064 0.01106,-0.582 -0.565687,-0.56369 -0.889553,-0.29652 -0.782426,0.64546 -2.47097,2.56981 -2.47097,2.56981 l -1.68026,-0.0988 -1.087226,-1.58142 c -0.296516,-0.41055 -0.636056,-0.34641 -0.88955,0 -0.545383,1.84962 -0.878698,3.8848 -3.459359,3.95355 l 4.447747,3.95356 c 7.76561,1.55335 15.578734,5.58545 20.261957,14.33163 0,0 4.526451,5.19364 7.116396,7.01755 z" id="path2061-3" sodipodi:nodetypes="csscsscccccccs" inkscape:connector-curvature="0" stroke-dasharray="none" stroke-opacity="1" fill="#ffffff" fill-rule="evenodd" stroke="none" stroke-linejoin="miter" fill-opacity="1" stroke-linecap="butt" stroke-width="0.048" stroke-miterlimit="4"/>
  </clipPath>
  <clipPath id="clipPath">
   <path d="m -515.73002,435.56445 v 5.83767 c 0,9.74315 -7.84377,17.58692 -17.58692,17.58692 h -135.05122 c -9.74315,0 -17.58692,-7.84377 -17.58692,-17.58692 v -5.83767 z" id="rect5264" inkscape:connector-curvature="0" sodipodi:nodetypes="csssscc" fill="#1b1b1b" stroke="none" fill-opacity="0.95"/>
  </clipPath>
  <clipPath id="clipPath2059-7" clipPathUnits="userSpaceOnUse">
   <path stroke-miterlimit="4" stroke-width="0.048" stroke-linecap="butt" fill-opacity="1" stroke-linejoin="miter" stroke="none" fill-rule="evenodd" fill="#ffffff" stroke-opacity="1" stroke-dasharray="none" inkscape:connector-curvature="0" sodipodi:nodetypes="csscsscccccccs" id="path2061-5" d="m -10.099732,231.68531 c 3.5587363,2.50616 4.8319716,-0.58528 2.9651647,-3.064 -3.1818907,-4.22486 -6.4443207,-9.83985 -12.3548527,-15.91305 -2.594516,-2.66865 -11.860659,-7.80827 -11.860659,-7.80827 0,0 -0.115438,-2.18844 -0.09884,-3.064 0.01106,-0.582 -0.565687,-0.56369 -0.889553,-0.29652 -0.782426,0.64546 -2.47097,2.56981 -2.47097,2.56981 l -1.68026,-0.0988 -1.087226,-1.58142 c -0.296516,-0.41055 -0.636056,-0.34641 -0.88955,0 -0.545383,1.84962 -0.878698,3.8848 -3.459359,3.95355 l 4.447747,3.95356 c 7.76561,1.55335 15.578734,5.58545 20.261957,14.33163 0,0 4.526451,5.19364 7.116396,7.01755 z"/>
  </clipPath>
  <clipPath id="clipPath1162" clipPathUnits="userSpaceOnUse">
   <path id="path1164" d="m -65.649736,239.84563 c -9.358079,0 -16.951888,7.59381 -16.951888,16.95188 0,9.35808 7.593811,16.94076 16.951888,16.94077 0.292439,0 0.578792,-0.008 0.867614,-0.0222 2.122786,-0.10753 4.148336,-0.60587 5.995453,-1.42378 l 2.669587,3.97101 c -0.225515,0.4951 -0.245107,0.96445 -0.01111,1.31255 l 15.67271,23.32553 c 0.495366,0.73695 1.94415,0.6317 3.247998,-0.24471 1.303846,-0.87642 1.96364,-2.17735 1.468276,-2.9143 L -51.42304,274.4168 c -0.233058,-0.34672 -0.682887,-0.49868 -1.22356,-0.47831 l -2.558357,-3.80416 c 3.95991,-3.10036 6.507123,-7.91951 6.507123,-13.33682 0,-9.35807 -7.593809,-16.95188 -16.951889,-16.95188 z m 0,2.5806 c 7.92884,0 14.371283,6.44244 14.371283,14.37128 0,7.92885 -6.442435,14.36016 -14.371283,14.36016 -7.928851,0 -14.349039,-6.43131 -14.349039,-14.36016 0,-0.24777 -0.0013,-0.48941 0.01111,-0.73413 0.384376,-7.58638 6.656848,-13.63715 14.337916,-13.63715 z" inkscape:connector-curvature="0" stroke-dasharray="none" stroke-opacity="1" fill="#000000" stroke="none" stroke-linejoin="round" fill-opacity="0.347" stroke-linecap="round" stroke-width="0.071" stroke-miterlimit="4"/>
  </clipPath>
  <clipPath id="clipPath2059-2" clipPathUnits="userSpaceOnUse">
   <path stroke-miterlimit="4" stroke-width="0.048" stroke-linecap="butt" fill-opacity="1" stroke-linejoin="miter" stroke="none" fill-rule="evenodd" fill="#ffffff" stroke-opacity="1" stroke-dasharray="none" inkscape:connector-curvature="0" sodipodi:nodetypes="csscsscccccccs" id="path2061-0" d="m -10.099732,231.68531 c 3.5587363,2.50616 4.8319716,-0.58528 2.9651647,-3.064 -3.1818907,-4.22486 -6.4443207,-9.83985 -12.3548527,-15.91305 -2.594516,-2.66865 -11.860659,-7.80827 -11.860659,-7.80827 0,0 -0.115438,-2.18844 -0.09884,-3.064 0.01106,-0.582 -0.565687,-0.56369 -0.889553,-0.29652 -0.782426,0.64546 -2.47097,2.56981 -2.47097,2.56981 l -1.68026,-0.0988 -1.087226,-1.58142 c -0.296516,-0.41055 -0.636056,-0.34641 -0.88955,0 -0.545383,1.84962 -0.878698,3.8848 -3.459359,3.95355 l 4.447747,3.95356 c 7.76561,1.55335 15.578734,5.58545 20.261957,14.33163 0,0 4.526451,5.19364 7.116396,7.01755 z"/>
  </clipPath>
  <clipPath clipPathUnits="userSpaceOnUse" id="clipPath2059-5-2">
   <path d="m -10.099732,231.68531 c 3.5587363,2.50616 4.8319716,-0.58528 2.9651647,-3.064 -3.1818907,-4.22486 -6.4443207,-9.83985 -12.3548527,-15.91305 -2.594516,-2.66865 -11.860659,-7.80827 -11.860659,-7.80827 0,0 -0.115438,-2.18844 -0.09884,-3.064 0.01106,-0.582 -0.565687,-0.56369 -0.889553,-0.29652 -0.782426,0.64546 -2.47097,2.56981 -2.47097,2.56981 l -1.68026,-0.0988 -1.087226,-1.58142 c -0.296516,-0.41055 -0.636056,-0.34641 -0.88955,0 -0.545383,1.84962 -0.878698,3.8848 -3.459359,3.95355 l 4.447747,3.95356 c 7.76561,1.55335 15.578734,5.58545 20.261957,14.33163 0,0 4.526451,5.19364 7.116396,7.01755 z" id="path2061-3-3" sodipodi:nodetypes="csscsscccccccs" inkscape:connector-curvature="0" stroke-dasharray="none" stroke-opacity="1" fill="#ffffff" fill-rule="evenodd" stroke="none" stroke-linejoin="miter" fill-opacity="1" stroke-linecap="butt" stroke-width="0.048" stroke-miterlimit="4"/>
  </clipPath>
  <clipPath id="clipPath-7">
   <path d="m -515.73002,435.56445 v 5.83767 c 0,9.74315 -7.84377,17.58692 -17.58692,17.58692 h -135.05122 c -9.74315,0 -17.58692,-7.84377 -17.58692,-17.58692 v -5.83767 z" id="rect5264-5" inkscape:connector-curvature="0" sodipodi:nodetypes="csssscc" fill="#1b1b1b" stroke="none" fill-opacity="0.95"/>
  </clipPath>
  <clipPath id="clipPath2059-7-9" clipPathUnits="userSpaceOnUse">
   <path stroke-miterlimit="4" stroke-width="0.048" stroke-linecap="butt" fill-opacity="1" stroke-linejoin="miter" stroke="none" fill-rule="evenodd" fill="#ffffff" stroke-opacity="1" stroke-dasharray="none" inkscape:connector-curvature="0" sodipodi:nodetypes="csscsscccccccs" id="path2061-5-2" d="m -10.099732,231.68531 c 3.5587363,2.50616 4.8319716,-0.58528 2.9651647,-3.064 -3.1818907,-4.22486 -6.4443207,-9.83985 -12.3548527,-15.91305 -2.594516,-2.66865 -11.860659,-7.80827 -11.860659,-7.80827 0,0 -0.115438,-2.18844 -0.09884,-3.064 0.01106,-0.582 -0.565687,-0.56369 -0.889553,-0.29652 -0.782426,0.64546 -2.47097,2.56981 -2.47097,2.56981 l -1.68026,-0.0988 -1.087226,-1.58142 c -0.296516,-0.41055 -0.636056,-0.34641 -0.88955,0 -0.545383,1.84962 -0.878698,3.8848 -3.459359,3.95355 l 4.447747,3.95356 c 7.76561,1.55335 15.578734,5.58545 20.261957,14.33163 0,0 4.526451,5.19364 7.116396,7.01755 z"/>
  </clipPath>
  <clipPath id="clipPath1162-2" clipPathUnits="userSpaceOnUse">
   <path id="path1164-8" d="m -65.649736,239.84563 c -9.358079,0 -16.951888,7.59381 -16.951888,16.95188 0,9.35808 7.593811,16.94076 16.951888,16.94077 0.292439,0 0.578792,-0.008 0.867614,-0.0222 2.122786,-0.10753 4.148336,-0.60587 5.995453,-1.42378 l 2.669587,3.97101 c -0.225515,0.4951 -0.245107,0.96445 -0.01111,1.31255 l 15.67271,23.32553 c 0.495366,0.73695 1.94415,0.6317 3.247998,-0.24471 1.303846,-0.87642 1.96364,-2.17735 1.468276,-2.9143 L -51.42304,274.4168 c -0.233058,-0.34672 -0.682887,-0.49868 -1.22356,-0.47831 l -2.558357,-3.80416 c 3.95991,-3.10036 6.507123,-7.91951 6.507123,-13.33682 0,-9.35807 -7.593809,-16.95188 -16.951889,-16.95188 z m 0,2.5806 c 7.92884,0 14.371283,6.44244 14.371283,14.37128 0,7.92885 -6.442435,14.36016 -14.371283,14.36016 -7.928851,0 -14.349039,-6.43131 -14.349039,-14.36016 0,-0.24777 -0.0013,-0.48941 0.01111,-0.73413 0.384376,-7.58638 6.656848,-13.63715 14.337916,-13.63715 z" inkscape:connector-curvature="0" stroke-dasharray="none" stroke-opacity="1" fill="#000000" stroke="none" stroke-linejoin="round" fill-opacity="0.347" stroke-linecap="round" stroke-width="0.071" stroke-miterlimit="4"/>
  </clipPath>
  <clipPath id="clipPath2059-20" clipPathUnits="userSpaceOnUse">
   <path stroke-miterlimit="4" stroke-width="0.048" stroke-linecap="butt" fill-opacity="1" stroke-linejoin="miter" stroke="none" fill-rule="evenodd" fill="#ffffff" stroke-opacity="1" stroke-dasharray="none" inkscape:connector-curvature="0" sodipodi:nodetypes="csscsscccccccs" id="path2061-2" d="m -10.099732,231.68531 c 3.5587363,2.50616 4.8319716,-0.58528 2.9651647,-3.064 -3.1818907,-4.22486 -6.4443207,-9.83985 -12.3548527,-15.91305 -2.594516,-2.66865 -11.860659,-7.80827 -11.860659,-7.80827 0,0 -0.115438,-2.18844 -0.09884,-3.064 0.01106,-0.582 -0.565687,-0.56369 -0.889553,-0.29652 -0.782426,0.64546 -2.47097,2.56981 -2.47097,2.56981 l -1.68026,-0.0988 -1.087226,-1.58142 c -0.296516,-0.41055 -0.636056,-0.34641 -0.88955,0 -0.545383,1.84962 -0.878698,3.8848 -3.459359,3.95355 l 4.447747,3.95356 c 7.76561,1.55335 15.578734,5.58545 20.261957,14.33163 0,0 4.526451,5.19364 7.116396,7.01755 z"/>
  </clipPath>
  <clipPath clipPathUnits="userSpaceOnUse" id="clipPath2059-5-3">
   <path d="m -10.099732,231.68531 c 3.5587363,2.50616 4.8319716,-0.58528 2.9651647,-3.064 -3.1818907,-4.22486 -6.4443207,-9.83985 -12.3548527,-15.91305 -2.594516,-2.66865 -11.860659,-7.80827 -11.860659,-7.80827 0,0 -0.115438,-2.18844 -0.09884,-3.064 0.01106,-0.582 -0.565687,-0.56369 -0.889553,-0.29652 -0.782426,0.64546 -2.47097,2.56981 -2.47097,2.56981 l -1.68026,-0.0988 -1.087226,-1.58142 c -0.296516,-0.41055 -0.636056,-0.34641 -0.88955,0 -0.545383,1.84962 -0.878698,3.8848 -3.459359,3.95355 l 4.447747,3.95356 c 7.76561,1.55335 15.578734,5.58545 20.261957,14.33163 0,0 4.526451,5.19364 7.116396,7.01755 z" id="path2061-3-7" sodipodi:nodetypes="csscsscccccccs" inkscape:connector-curvature="0" stroke-dasharray="none" stroke-opacity="1" fill="#ffffff" fill-rule="evenodd" stroke="none" stroke-linejoin="miter" fill-opacity="1" stroke-linecap="butt" stroke-width="0.048" stroke-miterlimit="4"/>
  </clipPath>
  <clipPath id="clipPath-5">
   <path d="m -515.73002,435.56445 v 5.83767 c 0,9.74315 -7.84377,17.58692 -17.58692,17.58692 h -135.05122 c -9.74315,0 -17.58692,-7.84377 -17.58692,-17.58692 v -5.83767 z" id="rect5264-9" inkscape:connector-curvature="0" sodipodi:nodetypes="csssscc" fill="#1b1b1b" stroke="none" fill-opacity="0.95"/>
  </clipPath>
  <clipPath id="clipPath2059-7-2" clipPathUnits="userSpaceOnUse">
   <path stroke-miterlimit="4" stroke-width="0.048" stroke-linecap="butt" fill-opacity="1" stroke-linejoin="miter" stroke="none" fill-rule="evenodd" fill="#ffffff" stroke-opacity="1" stroke-dasharray="none" inkscape:connector-curvature="0" sodipodi:nodetypes="csscsscccccccs" id="path2061-5-28" d="m -10.099732,231.68531 c 3.5587363,2.50616 4.8319716,-0.58528 2.9651647,-3.064 -3.1818907,-4.22486 -6.4443207,-9.83985 -12.3548527,-15.91305 -2.594516,-2.66865 -11.860659,-7.80827 -11.860659,-7.80827 0,0 -0.115438,-2.18844 -0.09884,-3.064 0.01106,-0.582 -0.565687,-0.56369 -0.889553,-0.29652 -0.782426,0.64546 -2.47097,2.56981 -2.47097,2.56981 l -1.68026,-0.0988 -1.087226,-1.58142 c -0.296516,-0.41055 -0.636056,-0.34641 -0.88955,0 -0.545383,1.84962 -0.878698,3.8848 -3.459359,3.95355 l 4.447747,3.95356 c 7.76561,1.55335 15.578734,5.58545 20.261957,14.33163 0,0 4.526451,5.19364 7.116396,7.01755 z"/>
  </clipPath>
  <clipPath id="clipPath1162-9" clipPathUnits="userSpaceOnUse">
   <path id="path1164-7" d="m -65.649736,239.84563 c -9.358079,0 -16.951888,7.59381 -16.951888,16.95188 0,9.35808 7.593811,16.94076 16.951888,16.94077 0.292439,0 0.578792,-0.008 0.867614,-0.0222 2.122786,-0.10753 4.148336,-0.60587 5.995453,-1.42378 l 2.669587,3.97101 c -0.225515,0.4951 -0.245107,0.96445 -0.01111,1.31255 l 15.67271,23.32553 c 0.495366,0.73695 1.94415,0.6317 3.247998,-0.24471 1.303846,-0.87642 1.96364,-2.17735 1.468276,-2.9143 L -51.42304,274.4168 c -0.233058,-0.34672 -0.682887,-0.49868 -1.22356,-0.47831 l -2.558357,-3.80416 c 3.95991,-3.10036 6.507123,-7.91951 6.507123,-13.33682 0,-9.35807 -7.593809,-16.95188 -16.951889,-16.95188 z m 0,2.5806 c 7.92884,0 14.371283,6.44244 14.371283,14.37128 0,7.92885 -6.442435,14.36016 -14.371283,14.36016 -7.928851,0 -14.349039,-6.43131 -14.349039,-14.36016 0,-0.24777 -0.0013,-0.48941 0.01111,-0.73413 0.384376,-7.58638 6.656848,-13.63715 14.337916,-13.63715 z" inkscape:connector-curvature="0" stroke-dasharray="none" stroke-opacity="1" fill="#000000" stroke="none" stroke-linejoin="round" fill-opacity="0.347" stroke-linecap="round" stroke-width="0.071" stroke-miterlimit="4"/>
  </clipPath>
  <linearGradient id="linearGradient876">
   <stop stop-opacity="0.603" stop-color="#ffffff" id="stop872"/>
   <stop stop-opacity="0.118" stop-color="#cbd2f9" offset="1" id="stop874"/>
  </linearGradient>
  <linearGradient id="linearGradient3314">
   <stop stop-opacity="0.317" stop-color="#ffffff" id="stop3316"/>
   <stop stop-opacity="0.239" stop-color="#cbd2f9" offset="1" id="stop3318"/>
  </linearGradient>
  <linearGradient id="linearGradient3185">
   <stop stop-opacity="1" stop-color="#ffffff" id="stop3187"/>
   <stop stop-opacity="0" stop-color="#ffffff" offset="1" id="stop3189"/>
  </linearGradient>
  <linearGradient id="linearGradient3159">
   <stop stop-opacity="0.365" stop-color="#66c1de" id="stop3161"/>
   <stop stop-opacity="0.254" stop-color="#000c4f" id="stop3163" offset="1"/>
  </linearGradient>
  <linearGradient y2="170.38" x2="134.49" y1="58.804" x1="134.44" spreadMethod="pad" gradientTransform="matrix(0.16982961,0,0,0.19555411,5.970322,218.18979)" gradientUnits="userSpaceOnUse" id="linearGradient3299" xlink:href="#linearGradient3185" inkscape:collect="always"/>
  <linearGradient y2="269.89" x2="164.39" y1="81.64" x1="160.26" spreadMethod="reflect" gradientTransform="matrix(0.1706761,0,0,0.19537527,6.7338451,221.40948)" gradientUnits="userSpaceOnUse" id="linearGradient3302" xlink:href="#linearGradient876" inkscape:collect="always"/>
  <linearGradient y2="202.04" x2="125.81" y1="202.04" x1="9.328" spreadMethod="reflect" gradientTransform="matrix(0.1706761,0,0,0.19537527,6.7338451,221.40948)" gradientUnits="userSpaceOnUse" id="linearGradient3304" xlink:href="#linearGradient3159" inkscape:collect="always"/>
  <linearGradient y2="231.57" x2="169.12" y1="96.79" x1="165.16" spreadMethod="reflect" gradientTransform="matrix(-0.17019025,0,0,0.17019025,60.314648,213.92308)" gradientUnits="userSpaceOnUse" id="linearGradient3344" xlink:href="#linearGradient3314" inkscape:collect="always"/>
  <linearGradient spreadMethod="reflect" gradientUnits="userSpaceOnUse" y2="291.5" x2="30.733" y1="292.97" x1="30.733" id="linearGradient995" xlink:href="#linearGradient993" inkscape:collect="always"/>
  <linearGradient inkscape:collect="always" xlink:href="#linearGradient4087" id="linearGradient4093" x1="37.552" y1="293.8" x2="37.552" y2="290.45" gradientUnits="userSpaceOnUse" spreadMethod="reflect"/>
  <linearGradient id="linearGradient4727">
   <stop id="stop4729" stop-color="#d7d7f9" stop-opacity="0.88"/>
   <stop offset="1" id="stop4731" stop-color="#b2b3cc" stop-opacity="0"/>
  </linearGradient>
  <linearGradient id="linearGradient4717">
   <stop id="stop4719" stop-color="#d7d7f9" stop-opacity="0.88"/>
   <stop id="stop4721" offset="1" stop-color="#524eff" stop-opacity="0"/>
  </linearGradient>
  <linearGradient inkscape:collect="always" id="linearGradient3203">
   <stop id="stop3205" stop-color="#ece1af" stop-opacity="1"/>
   <stop offset="1" id="stop3207" stop-color="#634d0e" stop-opacity="1"/>
  </linearGradient>
  <linearGradient inkscape:collect="always" id="linearGradient3186">
   <stop id="stop3188" stop-color="#000636" stop-opacity="1"/>
   <stop offset="1" id="stop3190" stop-color="#ffffff" stop-opacity="1"/>
  </linearGradient>
  <linearGradient inkscape:collect="always" id="linearGradient3178">
   <stop id="stop3180" stop-color="#564208" stop-opacity="1"/>
   <stop offset="1" id="stop3182" stop-color="#e3af11" stop-opacity="1"/>
  </linearGradient>
  <linearGradient inkscape:collect="always" xlink:href="#linearGradient3186" id="linearGradient3212" gradientUnits="userSpaceOnUse" spreadMethod="reflect" x1="110.94" y1="99.08" x2="110.78" y2="87.6" gradientTransform="matrix(0.18762427,0,0,0.18762427,184.83392,140.77439)"/>
  <linearGradient inkscape:collect="always" xlink:href="#linearGradient3178" id="linearGradient3215" gradientUnits="userSpaceOnUse" spreadMethod="reflect" x1="253.2" y1="95.91" x2="252.97" y2="85.63" gradientTransform="matrix(0.13069388,0.13461789,-0.13461789,0.13069388,27.746451,230.6754)"/>
  <linearGradient inkscape:collect="always" xlink:href="#linearGradient3203" id="linearGradient3217" gradientUnits="userSpaceOnUse" x1="208.84" y1="103.98" x2="208.09" y2="76.953" gradientTransform="matrix(0.13069388,0.13461789,-0.13461789,0.13069388,27.746451,230.6754)"/>
  <radialGradient inkscape:collect="always" xlink:href="#linearGradient4717" id="radialGradient4715" cx="-212.05" cy="245.96" fx="-212.05" fy="245.96" r="52.46" gradientTransform="matrix(0.22284081,-0.04093853,-0.02306078,-0.12552677,75.462619,264.54058)" gradientUnits="userSpaceOnUse"/>
  <radialGradient inkscape:collect="always" xlink:href="#linearGradient4727" id="radialGradient4725" gradientUnits="userSpaceOnUse" gradientTransform="matrix(0.14054897,-0.0765446,-0.03254916,-0.05976582,61.011381,245.33634)" cx="-163.68" cy="188.28" fx="-163.68" fy="188.28" r="52.46"/>
  <filter inkscape:collect="always" id="filter4780" x="-0.026" width="1.052" y="-0.022" height="1.045" color-interpolation-filters="sRGB">
   <feGaussianBlur inkscape:collect="always" stdDeviation="2.16066" id="feGaussianBlur4782"/>
  </filter>
  <clipPath id="clipPath2059-6" clipPathUnits="userSpaceOnUse">
   <path stroke-miterlimit="4" stroke-width="0.048" stroke-linecap="butt" fill-opacity="1" stroke-linejoin="miter" stroke="none" fill-rule="evenodd" fill="#ffffff" stroke-opacity="1" stroke-dasharray="none" inkscape:connector-curvature="0" sodipodi:nodetypes="csscsscccccccs" id="path2061-29" d="m -10.099732,231.68531 c 3.5587363,2.50616 4.8319716,-0.58528 2.9651647,-3.064 -3.1818907,-4.22486 -6.4443207,-9.83985 -12.3548527,-15.91305 -2.594516,-2.66865 -11.860659,-7.80827 -11.860659,-7.80827 0,0 -0.115438,-2.18844 -0.09884,-3.064 0.01106,-0.582 -0.565687,-0.56369 -0.889553,-0.29652 -0.782426,0.64546 -2.47097,2.56981 -2.47097,2.56981 l -1.68026,-0.0988 -1.087226,-1.58142 c -0.296516,-0.41055 -0.636056,-0.34641 -0.88955,0 -0.545383,1.84962 -0.878698,3.8848 -3.459359,3.95355 l 4.447747,3.95356 c 7.76561,1.55335 15.578734,5.58545 20.261957,14.33163 0,0 4.526451,5.19364 7.116396,7.01755 z"/>
  </clipPath>
  <clipPath clipPathUnits="userSpaceOnUse" id="clipPath2059-5-1">
   <path d="m -10.099732,231.68531 c 3.5587363,2.50616 4.8319716,-0.58528 2.9651647,-3.064 -3.1818907,-4.22486 -6.4443207,-9.83985 -12.3548527,-15.91305 -2.594516,-2.66865 -11.860659,-7.80827 -11.860659,-7.80827 0,0 -0.115438,-2.18844 -0.09884,-3.064 0.01106,-0.582 -0.565687,-0.56369 -0.889553,-0.29652 -0.782426,0.64546 -2.47097,2.56981 -2.47097,2.56981 l -1.68026,-0.0988 -1.087226,-1.58142 c -0.296516,-0.41055 -0.636056,-0.34641 -0.88955,0 -0.545383,1.84962 -0.878698,3.8848 -3.459359,3.95355 l 4.447747,3.95356 c 7.76561,1.55335 15.578734,5.58545 20.261957,14.33163 0,0 4.526451,5.19364 7.116396,7.01755 z" id="path2061-3-2" sodipodi:nodetypes="csscsscccccccs" inkscape:connector-curvature="0" stroke-dasharray="none" stroke-opacity="1" fill="#ffffff" fill-rule="evenodd" stroke="none" stroke-linejoin="miter" fill-opacity="1" stroke-linecap="butt" stroke-width="0.048" stroke-miterlimit="4"/>
  </clipPath>
  <clipPath id="clipPath-70">
   <path d="m -515.73002,435.56445 v 5.83767 c 0,9.74315 -7.84377,17.58692 -17.58692,17.58692 h -135.05122 c -9.74315,0 -17.58692,-7.84377 -17.58692,-17.58692 v -5.83767 z" id="rect5264-93" inkscape:connector-curvature="0" sodipodi:nodetypes="csssscc" fill="#1b1b1b" stroke="none" fill-opacity="0.95"/>
  </clipPath>
  <clipPath id="clipPath2059-7-6" clipPathUnits="userSpaceOnUse">
   <path stroke-miterlimit="4" stroke-width="0.048" stroke-linecap="butt" fill-opacity="1" stroke-linejoin="miter" stroke="none" fill-rule="evenodd" fill="#ffffff" stroke-opacity="1" stroke-dasharray="none" inkscape:connector-curvature="0" sodipodi:nodetypes="csscsscccccccs" id="path2061-5-0" d="m -10.099732,231.68531 c 3.5587363,2.50616 4.8319716,-0.58528 2.9651647,-3.064 -3.1818907,-4.22486 -6.4443207,-9.83985 -12.3548527,-15.91305 -2.594516,-2.66865 -11.860659,-7.80827 -11.860659,-7.80827 0,0 -0.115438,-2.18844 -0.09884,-3.064 0.01106,-0.582 -0.565687,-0.56369 -0.889553,-0.29652 -0.782426,0.64546 -2.47097,2.56981 -2.47097,2.56981 l -1.68026,-0.0988 -1.087226,-1.58142 c -0.296516,-0.41055 -0.636056,-0.34641 -0.88955,0 -0.545383,1.84962 -0.878698,3.8848 -3.459359,3.95355 l 4.447747,3.95356 c 7.76561,1.55335 15.578734,5.58545 20.261957,14.33163 0,0 4.526451,5.19364 7.116396,7.01755 z"/>
  </clipPath>
  <clipPath id="clipPath1162-6" clipPathUnits="userSpaceOnUse">
   <path id="path1164-2" d="m -65.649736,239.84563 c -9.358079,0 -16.951888,7.59381 -16.951888,16.95188 0,9.35808 7.593811,16.94076 16.951888,16.94077 0.292439,0 0.578792,-0.008 0.867614,-0.0222 2.122786,-0.10753 4.148336,-0.60587 5.995453,-1.42378 l 2.669587,3.97101 c -0.225515,0.4951 -0.245107,0.96445 -0.01111,1.31255 l 15.67271,23.32553 c 0.495366,0.73695 1.94415,0.6317 3.247998,-0.24471 1.303846,-0.87642 1.96364,-2.17735 1.468276,-2.9143 L -51.42304,274.4168 c -0.233058,-0.34672 -0.682887,-0.49868 -1.22356,-0.47831 l -2.558357,-3.80416 c 3.95991,-3.10036 6.507123,-7.91951 6.507123,-13.33682 0,-9.35807 -7.593809,-16.95188 -16.951889,-16.95188 z m 0,2.5806 c 7.92884,0 14.371283,6.44244 14.371283,14.37128 0,7.92885 -6.442435,14.36016 -14.371283,14.36016 -7.928851,0 -14.349039,-6.43131 -14.349039,-14.36016 0,-0.24777 -0.0013,-0.48941 0.01111,-0.73413 0.384376,-7.58638 6.656848,-13.63715 14.337916,-13.63715 z" inkscape:connector-curvature="0" stroke-dasharray="none" stroke-opacity="1" fill="#000000" stroke="none" stroke-linejoin="round" fill-opacity="0.347" stroke-linecap="round" stroke-width="0.071" stroke-miterlimit="4"/>
  </clipPath>
  <radialGradient r="42.29" fy="180.61" fx="117.08" cy="180.61" cx="117.08" gradientTransform="matrix(0.9999723,-0.00743666,0.00325722,0.4379838,-82.92678,281.26851)" gradientUnits="userSpaceOnUse" id="radialGradient102379" xlink:href="#linearGradient3185" inkscape:collect="always"/>
  <radialGradient r="42.29" fy="220.75" fx="158.98" cy="220.75" cx="158.98" gradientTransform="matrix(0.7553353,-0.0213992,0.00876614,0.3094219,-53.58922,311.04741)" gradientUnits="userSpaceOnUse" id="radialGradient102381" xlink:href="#linearGradient3185" inkscape:collect="always"/>
  <radialGradient r="42.29" fy="180.61" fx="117.08" cy="180.61" cx="117.08" gradientTransform="matrix(0.9999723,-0.00743666,0.00325722,0.4379838,-194.59855,107.3696)" gradientUnits="userSpaceOnUse" id="radialGradient979" xlink:href="#linearGradient3185" inkscape:collect="always"/>
  <radialGradient r="42.29" fy="220.75" fx="158.98" cy="220.75" cx="158.98" gradientTransform="matrix(0.7553353,-0.0213992,0.00876614,0.3094219,-166.10961,140.26011)" gradientUnits="userSpaceOnUse" id="radialGradient981" xlink:href="#linearGradient3185" inkscape:collect="always"/>
  <filter height="1.095" y="-0.048" width="1.058" x="-0.029" id="filter1055" inkscape:collect="always" color-interpolation-filters="sRGB">
   <feGaussianBlur id="feGaussianBlur1057" stdDeviation="0.85339" inkscape:collect="always"/>
  </filter>
  <filter height="1.162" y="-0.081" width="1.046" x="-0.023" id="filter1067" inkscape:collect="always" color-interpolation-filters="sRGB">
   <feGaussianBlur id="feGaussianBlur1069" stdDeviation="0.60921" inkscape:collect="always"/>
  </filter>
  <filter height="1.158" y="-0.079" width="1.069" x="-0.034" id="filter1037" inkscape:collect="always" color-interpolation-filters="sRGB">
   <feGaussianBlur id="feGaussianBlur1039" stdDeviation="1.43847" inkscape:collect="always"/>
  </filter>
  <filter height="1.122" y="-0.061" width="1.051" x="-0.026" id="filter1079" inkscape:collect="always" color-interpolation-filters="sRGB">
   <feGaussianBlur id="feGaussianBlur1081" stdDeviation="0.70587" inkscape:collect="always"/>
  </filter>
  <linearGradient id="linearGradient1107" inkscape:collect="always">
   <stop id="stop1103" stop-color="#0d4c6f" stop-opacity="1"/>
   <stop id="stop1105" offset="1" stop-color="#1a5170" stop-opacity="0"/>
  </linearGradient>
  <linearGradient id="linearGradient1079" inkscape:collect="always">
   <stop id="stop1075" stop-color="#00063b" stop-opacity="0.275"/>
   <stop id="stop1077" offset="1" stop-color="#c7c8f6" stop-opacity="0.639"/>
  </linearGradient>
  <linearGradient id="linearGradient1069" inkscape:collect="always">
   <stop id="stop1065" stop-color="#ffffff" stop-opacity="1"/>
   <stop id="stop1067" offset="1" stop-color="#0a7aa5" stop-opacity="0"/>
  </linearGradient>
  <linearGradient id="linearGradient1059" inkscape:collect="always">
   <stop id="stop1055" stop-color="#ffffff" stop-opacity="0.565"/>
   <stop id="stop1057" offset="1" stop-color="#ffffff" stop-opacity="0"/>
  </linearGradient>
  <linearGradient id="linearGradient992" inkscape:collect="always">
   <stop id="stop988" stop-color="#2a31dc" stop-opacity="0"/>
   <stop id="stop990" offset="1" stop-color="#141791" stop-opacity="0.667"/>
  </linearGradient>
  <linearGradient id="linearGradient982" inkscape:collect="always">
   <stop id="stop978" stop-color="#ffffff" stop-opacity="0.586"/>
   <stop id="stop980" offset="1" stop-color="#000a5a" stop-opacity="0"/>
  </linearGradient>
  <linearGradient id="linearGradient970" inkscape:collect="always">
   <stop id="stop966" stop-color="#ffffff" stop-opacity="1"/>
   <stop offset="0.653" id="stop974" stop-color="#ffffff" stop-opacity="0.57"/>
   <stop id="stop968" offset="1" stop-color="#ffffff" stop-opacity="0"/>
  </linearGradient>
  <linearGradient inkscape:collect="always" id="linearGradient948-7">
   <stop id="stop955" stop-color="#ffffff" stop-opacity="0.608"/>
   <stop offset="1" id="stop957" stop-color="#4ebde4" stop-opacity="0"/>
  </linearGradient>
  <linearGradient id="linearGradient948-3" inkscape:collect="always">
   <stop id="stop944-5" stop-color="#ffffff" stop-opacity="1"/>
   <stop id="stop946-3" offset="1" stop-color="#4e5ce4" stop-opacity="0"/>
  </linearGradient>
  <linearGradient id="linearGradient934-5" inkscape:collect="always">
   <stop id="stop930-6" stop-color="#081a68" stop-opacity="0.043"/>
   <stop offset="0.569" id="stop940" stop-color="#081168" stop-opacity="0"/>
   <stop offset="0.741" id="stop938" stop-color="#082268" stop-opacity="0.569"/>
   <stop id="stop932" offset="1" stop-color="#081268" stop-opacity="0"/>
  </linearGradient>
  <linearGradient id="linearGradient914" inkscape:collect="always">
   <stop id="stop910" stop-color="#084f68" stop-opacity="0.554"/>
   <stop id="stop912" offset="1" stop-color="#084f68" stop-opacity="0"/>
  </linearGradient>
  <linearGradient id="linearGradient902" inkscape:collect="always">
   <stop id="stop898" stop-color="#1e2c93" stop-opacity="1"/>
   <stop offset="0.682" id="stop906" stop-color="#2b2bf6" stop-opacity="0.459"/>
   <stop id="stop900" offset="1" stop-color="#1d30e7" stop-opacity="0"/>
  </linearGradient>
  <linearGradient gradientTransform="matrix(0.12028167,0,0,0.12028167,-18.652733,233.67251)" gradientUnits="userSpaceOnUse" y2="94.45" x2="93.92" y1="219.68" x1="80.45" id="linearGradient904" xlink:href="#linearGradient902" inkscape:collect="always"/>
  <linearGradient gradientTransform="matrix(0.12028167,0,0,0.12028167,-18.652733,233.67251)" spreadMethod="reflect" gradientUnits="userSpaceOnUse" y2="102.47" x2="71.935" y1="124.35" x1="68.15" id="linearGradient916" xlink:href="#linearGradient914" inkscape:collect="always"/>
  <radialGradient gradientUnits="userSpaceOnUse" gradientTransform="matrix(0.15946388,-0.03842521,0.0508957,0.21121617,-31.370074,219.37852)" r="23.495" fy="189.41" fx="76.33" cy="189.41" cx="76.33" id="radialGradient936" xlink:href="#linearGradient934-5" inkscape:collect="always"/>
  <radialGradient gradientUnits="userSpaceOnUse" gradientTransform="matrix(1,0,0,1.2063492,0,-40.287034)" r="19.233" fy="195.24" fx="77.44" cy="195.24" cx="77.44" id="radialGradient950" xlink:href="#linearGradient948-3" inkscape:collect="always"/>
  <linearGradient gradientTransform="matrix(0.13273248,0,0,0.12028167,-19.669445,233.91569)" gradientUnits="userSpaceOnUse" y2="198.29" x2="79.58" y1="219.66" x1="79.78" id="linearGradient962" xlink:href="#linearGradient948-7" inkscape:collect="always"/>
  <radialGradient gradientUnits="userSpaceOnUse" gradientTransform="matrix(0.12028167,0,0,0.14273425,-18.652733,229.6705)" r="7.632" fy="178.24" fx="65.64" cy="178.24" cx="65.64" id="radialGradient972" xlink:href="#linearGradient970" inkscape:collect="always"/>
  <linearGradient gradientTransform="matrix(0.12028167,0,0,0.12028167,-18.652733,233.67251)" spreadMethod="reflect" gradientUnits="userSpaceOnUse" y2="129.63" x2="65.02" y1="152.02" x1="65.47" id="linearGradient984" xlink:href="#linearGradient982" inkscape:collect="always"/>
  <radialGradient spreadMethod="reflect" gradientUnits="userSpaceOnUse" gradientTransform="matrix(0.86641316,-0.49932777,0.62858137,1.0906887,-135.83056,32.580634)" r="27.2" fy="238.09" fx="103.52" cy="238.09" cx="103.52" id="radialGradient1004" xlink:href="#linearGradient992" inkscape:collect="always"/>
  <filter height="1.137" y="-0.068" width="1.152" x="-0.076" id="filter1038" inkscape:collect="always" color-interpolation-filters="sRGB">
   <feGaussianBlur id="feGaussianBlur1040" stdDeviation="1.72419" inkscape:collect="always"/>
  </filter>
  <radialGradient gradientUnits="userSpaceOnUse" gradientTransform="matrix(0.05727704,0.14319247,-0.11467026,0.04586814,11.667292,237.45619)" r="8.548" fy="217" fx="86.29" cy="217" cx="86.29" id="radialGradient1051" xlink:href="#linearGradient3185" inkscape:collect="always"/>
  <radialGradient gradientUnits="userSpaceOnUse" gradientTransform="matrix(0.12028165,0,0,0.16776125,-90.380014,205.41419)" r="7.734" fy="229.1" fx="13.493" cy="229.1" cx="13.493" id="radialGradient1061" xlink:href="#linearGradient1059" inkscape:collect="always"/>
  <linearGradient gradientTransform="matrix(0.12028167,0,0,0.12028167,-18.652733,233.67251)" spreadMethod="reflect" gradientUnits="userSpaceOnUse" y2="141.1" x2="59.24" y1="126.65" x1="58.01" id="linearGradient1071" xlink:href="#linearGradient1069" inkscape:collect="always"/>
  <linearGradient gradientTransform="matrix(0.12028167,0,0,0.12028167,-18.652733,233.67251)" spreadMethod="reflect" gradientUnits="userSpaceOnUse" y2="116.88" x2="92.7" y1="139.47" x1="83.56" id="linearGradient1081" xlink:href="#linearGradient1079" inkscape:collect="always"/>
  <filter height="1.088" y="-0.044" width="1.106" x="-0.053" id="filter1095" inkscape:collect="always" color-interpolation-filters="sRGB">
   <feGaussianBlur id="feGaussianBlur1097" stdDeviation="0.8487" inkscape:collect="always"/>
  </filter>
  <linearGradient gradientTransform="matrix(0.12028167,0,0,0.12028167,-18.652733,233.67251)" gradientUnits="userSpaceOnUse" y2="187.41" x2="59.968" y1="187.41" x1="53.21" id="linearGradient1109" xlink:href="#linearGradient1107" inkscape:collect="always"/>
  <linearGradient gradientUnits="userSpaceOnUse" y2="241.32" x2="27.15" y1="291.19" x1="27.465" id="linearGradient2094" xlink:href="#linearGradient2092" inkscape:collect="always"/>
  <radialGradient inkscape:collect="always" xlink:href="#linearGradient1076" id="radialGradient1080" cx="19.967" cy="253.91" fx="19.967" fy="253.91" r="2.114" gradientTransform="matrix(-0.99952625,-0.03078437,0.29761409,-9.6631213,-35.64292,2704.6123)" gradientUnits="userSpaceOnUse"/>
  <radialGradient inkscape:collect="always" xlink:href="#linearGradient1089" id="radialGradient1091" cx="36.966" cy="265.67" fx="36.966" fy="265.67" r="0.836" gradientTransform="matrix(0.99998983,0.00450965,-0.18181808,40.317182,47.999542,-10430.358)" gradientUnits="userSpaceOnUse"/>
  <linearGradient spreadMethod="reflect" gradientTransform="translate(39.537257,-6.6303237)" gradientUnits="userSpaceOnUse" y2="246.64" x2="-12.444" y1="256.19" x1="-12.03" id="linearGradient1094" xlink:href="#linearGradient1092" inkscape:collect="always"/>
  <radialGradient gradientUnits="userSpaceOnUse" gradientTransform="matrix(0.15119588,0,0,0.1531224,57.776563,240.55161)" r="63.17" fy="79.69" fx="-70.979" cy="79.69" cx="-70.979" id="radialGradient1178" xlink:href="#linearGradient1176" inkscape:collect="always"/>
 </defs>
 <sodipodi:namedview id="base" pagecolor="#ff0000" bordercolor="#666666" borderopacity="1.0" inkscape:pageopacity="0" inkscape:pageshadow="2" inkscape:zoom="3.4823529" inkscape:cx="102.67263" inkscape:cy="127.5" inkscape:document-units="mm" inkscape:current-layer="layer1" showgrid="false" units="px" inkscape:snap-to-guides="false" inkscape:snap-grids="false" inkscape:snap-others="false" inkscape:object-nodes="false" inkscape:snap-nodes="false" inkscape:snap-global="false" inkscape:window-width="1920" inkscape:window-height="1056" inkscape:window-x="0" inkscape:window-y="0" inkscape:window-maximized="1" inkscape:document-rotation="0"/>
 <metadata id="metadata5">
  <rdf:RDF>
   <cc:Work>
    <dc:format>image/svg+xml</dc:format>
    <dc:type rdf:resource="http://purl.org/dc/dcmitype/StillImage"/>
    <dc:title/>
   </cc:Work>
  </rdf:RDF>
 </metadata>
 <g inkscape:label="Layer 1" inkscape:groupmode="layer" id="layer1" transform="translate(0,-229.53123)">
  <g stroke="#000000" stroke-opacity="0.096" transform="translate(60.673875,-0.40391404)" id="g1154">
   <path stroke-opacity="0.096" sodipodi:nodetypes="ccccccc" id="path849" d="m -48.473213,232.28052 c -1.321729,0 -2.384132,1.21615 -2.384132,2.72915 v 60.4237 c 20.537469,-0.006 25.938392,0.13501 49.549409,0 v -60.53928 c 0,-1.513 -1.0624035,-2.73525 -2.3841321,-2.73525 -19.6668799,0.38739 -24.7689919,0.12168 -44.7811449,0.12168 z" stroke-dasharray="none" fill="none" stroke="#000000" fill-opacity="1" stroke-width="1.508" stroke-miterlimit="4"/>
   <path stroke-opacity="0.096" stroke-miterlimit="4" stroke-width="1.244" fill-opacity="1" stroke="#000000" fill="none" stroke-dasharray="none" d="m -48.473213,232.28052 c -1.321729,0 -2.384132,1.21615 -2.384132,2.72915 v 60.4237 c 20.537469,-0.006 25.938392,0.13501 49.549409,0 v -60.53928 c 0,-1.513 -1.0624035,-2.73525 -2.3841321,-2.73525 -19.6668799,0.38739 -24.7689919,0.12168 -44.7811449,0.12168 z" id="path1125" sodipodi:nodetypes="ccccccc"/>
   <path stroke-opacity="0.096" sodipodi:nodetypes="ccccccc" id="path1127" d="m -48.473213,232.28052 c -1.321729,0 -2.384132,1.21615 -2.384132,2.72915 v 60.4237 c 20.537469,-0.006 25.938392,0.13501 49.549409,0 v -60.53928 c 0,-1.513 -1.0624035,-2.73525 -2.3841321,-2.73525 -19.6668799,0.38739 -24.7689919,0.12168 -44.7811449,0.12168 z" stroke-dasharray="none" fill="none" stroke="#000000" fill-opacity="1" stroke-width="0.979" stroke-miterlimit="4"/>
   <path stroke-opacity="0.096" stroke-miterlimit="4" stroke-width="0.741" fill-opacity="1" stroke="#000000" fill="none" stroke-dasharray="none" d="m -48.473213,232.28052 c -1.321729,0 -2.384132,1.21615 -2.384132,2.72915 v 60.4237 c 20.537469,-0.006 25.938392,0.13501 49.549409,0 v -60.53928 c 0,-1.513 -1.0624035,-2.73525 -2.3841321,-2.73525 -19.6668799,0.38739 -24.7689919,0.12168 -44.7811449,0.12168 z" id="path1129" sodipodi:nodetypes="ccccccc"/>
   <path stroke-opacity="0.096" sodipodi:nodetypes="ccccccc" id="path1131" d="m -48.473213,232.28052 c -1.321729,0 -2.384132,1.21615 -2.384132,2.72915 v 60.4237 c 20.537469,-0.006 25.938392,0.13501 49.549409,0 v -60.53928 c 0,-1.513 -1.0624035,-2.73525 -2.3841321,-2.73525 -19.6668799,0.38739 -24.7689919,0.12168 -44.7811449,0.12168 z" stroke-dasharray="none" fill="none" stroke="#000000" fill-opacity="1" stroke-width="0.503" stroke-miterlimit="4"/>
   <path stroke-opacity="0.096" stroke-miterlimit="4" stroke-width="0.37" fill-opacity="1" stroke="#000000" fill="none" stroke-dasharray="none" d="m -48.473213,232.28052 c -1.321729,0 -2.384132,1.21615 -2.384132,2.72915 v 60.4237 c 20.537469,-0.006 25.938392,0.13501 49.549409,0 v -60.53928 c 0,-1.513 -1.0624035,-2.73525 -2.3841321,-2.73525 -19.6668799,0.38739 -24.7689919,0.12168 -44.7811449,0.12168 z" id="path1133" sodipodi:nodetypes="ccccccc"/>
   <path stroke-opacity="0.096" sodipodi:nodetypes="ccccccc" id="path1135" d="m -48.473213,232.28052 c -1.321729,0 -2.384132,1.21615 -2.384132,2.72915 v 60.4237 c 20.537469,-0.006 25.938392,0.13501 49.549409,0 v -60.53928 c 0,-1.513 -1.0624035,-2.73525 -2.3841321,-2.73525 -19.6668799,0.38739 -24.7689919,0.12168 -44.7811449,0.12168 z" stroke-dasharray="none" fill="none" stroke="#000000" fill-opacity="1" stroke-width="0.212" stroke-miterlimit="4"/>
  </g>
  <rect stroke-width="0.477" stroke-linecap="square" fill-opacity="0.601" stroke-linejoin="round" stroke="none" fill="#4b4b4b" stroke-opacity="0.784" id="rect996" width="49.35" height="3.422" x="10.03" y="291.63"/>
  <path sodipodi:nodetypes="ccccccc" id="rect2384" d="m 10.494053,230.25168 c -1.3217293,0 -2.3841319,1.21614 -2.3841319,2.72915 v 60.42369 c 20.5374699,-0.006 25.9383929,0.13502 49.5494109,0 v -60.53927 c 0,-1.51301 -1.062404,-2.73526 -2.384132,-2.73526 -19.66688,0.38739 -24.768993,0.12169 -44.781147,0.12169 z" stroke-dasharray="none" fill="url(#linearGradient3302)" stroke="url(#linearGradient3304)" fill-opacity="1" stroke-width="0.913" stroke-miterlimit="4"/>
  <path d="M 8.6318603,250.53244 8.1613292,232.97857 c 0,-1.51438 1.0571317,-2.73165 2.3723078,-2.73165 14.850155,0 26.341778,0.12825 44.546661,0.0646 1.315173,0 2.372307,1.22337 2.372307,2.73775 v 17.30222" id="path3183" sodipodi:nodetypes="ccccc" stroke-dasharray="none" fill="none" stroke="url(#linearGradient3299)" stroke-linejoin="round" fill-opacity="1" stroke-linecap="round" stroke-width="0.545" stroke-miterlimit="4"/>
  <path id="path3342" d="m 35.880724,230.82157 c -2.503423,0.0798 -5.223674,-0.12731 -6.935486,-0.11015 l -2.187508,5.31209 c 0.0935,0.0166 0.187339,0.0395 0.282614,0.0636 2.01704,0.51081 3.649212,2.40526 3.67398,4.24626 l 15.887119,3.79044 10.357576,-10.90007 c 0.04864,-1.28349 -0.426731,-2.23947 -1.761267,-2.65847 z m -27.3344872,2.70657 5.1617992,2.21277 c 0.303885,-0.1735 0.666088,-0.27774 1.066867,-0.28968 0.2678,-0.008 0.552909,0.0243 0.847842,0.0989 0.773395,0.19585 1.472324,0.65677 1.985362,1.2435 L 23.3593,238.348 c 0.04921,-0.90698 0.506471,-1.60596 1.208173,-2.00657 l 2.647215,-5.75156 -15.953214,0.0238 c -1.8866201,0.0792 -2.7327008,1.1043 -2.7152372,2.91447 z m 0.1203015,2.37377 c -0.091866,2.16894 0.054857,8.73314 0.088412,9.80459 4.0523327,1.09627 6.0394927,1.63579 9.2134897,2.58954 l 0.92556,-1.6745 c -0.646937,0.69745 -1.872695,-0.1208 -3.320713,-0.4875 -1.79562,-0.45474 -3.358256,-0.16691 -3.787025,-2.19025 -0.204877,0.0152 -0.438276,-0.0413 -0.657078,-0.17664 -0.466776,-0.2888 -0.692038,-1.84226 -0.501639,-2.21226 l 1.250566,-1.39813 c 0.162407,-0.31562 0.575704,-0.41279 0.982084,-0.25435 0.219896,-0.1863 0.463193,-0.33459 0.72773,-0.44513 -0.506985,-0.59779 -0.819579,-1.32427 -0.819579,-2.03482 0,-0.01 -1.17e-4,-0.0186 0,-0.0282 z m 17.4129187,1.33686 -0.883168,1.60383 1.476657,0.40272 c 0.133567,-0.16327 0.211961,-0.38398 0.211961,-0.64294 0,-0.53764 -0.338647,-1.08119 -0.80545,-1.36361 z m 2.063081,0.45924 c -0.478806,0.0325 -0.826645,0.40672 -0.826645,0.95382 0,0.29304 0.102933,0.588 0.268484,0.84078 l 1.794597,0.48044 c 0.181158,-0.16951 0.289679,-0.42113 0.289679,-0.72773 0,-0.67336 -0.530868,-1.34761 -1.179913,-1.51198 -0.121695,-0.0309 -0.235708,-0.0428 -0.346202,-0.0353 z m -14.236672,0.26654 c 0.16729,0.24167 0.410647,0.43206 0.685338,0.50164 0.266845,0.0676 0.504323,0.007 0.671208,-0.14131 z m 0.204895,0.55109 1.391873,1.63916 1.285894,-0.91849 z m 2.020689,0.0495 c 0.162324,0.1948 0.377708,0.3427 0.614685,0.40273 0.224184,0.0568 0.427448,0.0217 0.586424,-0.0778 z m 2.33863,0.36912 c -0.01946,0.71678 -0.366219,1.53909 -0.904365,1.86353 0.287702,0.28077 0.547047,0.33646 0.777188,0.67999 0.169595,0.1302 0.315743,0.30585 0.39566,0.50165 l 1.151651,2.83319 2.64244,-4.77617 z m 5.659343,1.83699 -0.416857,0.756 c 0.218101,-0.15434 0.453859,-0.28597 0.69947,-0.3886 -0.100422,-0.1184 -0.282613,-0.21435 -0.282613,-0.3674 z m 1.692054,0.0949 0.998506,1.48695 0.956112,-0.94464 z m 4.271097,1.21217 c -0.156456,0.17477 -0.331504,0.32832 -0.536966,0.45219 0.371754,0.36281 0.698833,0.77134 0.996213,1.21523 0.219144,0.16824 0.412506,0.39704 0.515771,0.65002 l 3.66148,4.08893 c 0.434275,0.48498 -2.097446,1.00107 -2.700593,1.06877 -0.111022,0.0125 -0.225893,0.005 -0.339136,-0.0141 -0.601915,2.2356 -2.44547,0.80022 -4.712587,0.22608 -2.320228,-0.58758 -4.342248,-0.21164 -4.896285,-2.82614 -0.264732,0.0196 -0.55805,-0.0582 -0.840776,-0.23315 -0.09952,-0.0616 -0.186884,-0.13588 -0.268483,-0.21197 l -1.278828,2.32451 c 3.822225,1.16141 12.901205,3.25216 18.058622,4.79303 l 7.403943,-7.99988 z m -10.866501,3.87888 c -0.01699,0.0631 -0.03698,0.11382 -0.05652,0.16957 l 0.09185,-0.1625 c -0.01206,-0.002 -0.02304,-0.005 -0.03533,-0.007 z" sodipodi:nodetypes="ccccccccccccccccccccccccccccccscccccscccccscccccccccccccccccccccccccscccccccccscccccccccccccccc" stroke-dasharray="none" stroke-opacity="0.414" fill="url(#linearGradient3344)" stroke="none" fill-opacity="1" stroke-width="0.865" stroke-miterlimit="4"/>
  <rect stroke-miterlimit="4" stroke-width="0.477" stroke-linecap="square" fill-opacity="1" stroke-linejoin="round" stroke="url(#linearGradient4093)" fill="url(#linearGradient995)" stroke-opacity="0.784" stroke-dasharray="none" opacity="1" y="290.66" x="8.161" height="2.93" width="49.666" id="rect987"/>
  <path sodipodi:nodetypes="cccccccccccc" d="m 17.608315,242.24271 h 18.952194 v 43.31459 c -0.863555,2.36416 -1.880825,9.64723 -2.369024,0 -0.789675,-1.11527 -1.57935,-0.44067 -2.369024,0 -1.06879,2.23291 -1.907242,2.62314 -2.369025,0 -1.296646,-2.53486 -1.869963,-1.45307 -2.369024,0 h -2.369024 c -1.24394,5.82974 -2.325295,9.57297 -2.369024,0 -0.651396,-0.46093 -1.14379,-1.45187 -2.369025,0 -0.935623,0.82704 -2.0101,2.44092 -2.369024,0 z" id="rect2086" opacity="1" fill="url(#linearGradient2094)" stroke-linejoin="round" fill-opacity="1" stroke-linecap="round" stroke-width="0.344"/>
  <path id="path1082" d="m 37.573784,280.50918 c 0,1.42766 -0.374183,3.49737 -0.835762,3.49736 -0.461579,1e-5 -0.835762,-2.22165 -0.835762,-3.49736 0,-10.46909 0.374183,-34.41455 0.835762,-34.41454 0.461579,-1e-5 0.835762,23.94545 0.835762,34.41454 z" sodipodi:nodetypes="ssscs" fill="url(#radialGradient1091)" stroke-linejoin="round" fill-opacity="1" stroke-linecap="round" stroke-width="0.344"/>
  <rect id="rect1070" width="4.229" height="19.597" x="17.7" y="245.06" fill="url(#radialGradient1080)" stroke-linejoin="round" fill-opacity="1" stroke-linecap="round" stroke-width="0.245"/>
  <path fill-opacity="0.796" stroke="none" fill-rule="evenodd" filter="url(#filter4780)" fill="#000000" transform="matrix(0.22657006,0,0,-0.22657006,8.2573917,297.28306)" inkscape:connector-curvature="0" id="path4742" d="m 233.82781,12.636277 c -1.24868,-0.0012 -2.49714,0.456187 -3.57617,1.529298 L 95.341479,148.00542 l -1.04101,-1.00976 -25.44141,26.20507 0.98242,0.95313 c -53.44279,52.71614 -27.77758,70.46109 20.56641,70.09375 2.04069,-0.0155 4.1211,-0.0619 6.23828,-0.14063 14.820231,-0.55122 31.409621,-2.62118 48.312501,-5.77343 -24.1058,-4.45912 -84.122981,-18.36236 -60.222661,-49.71875 l 0.72852,0.70703 25.441411,-26.20508 -0.91211,-0.88477 129.42773,-139.166015 c 3.32119,-4.5705 -1.13417,-10.425374 -5.59375,-10.429688 z"/>
  <g transform="matrix(0.35520577,0,0,0.35520577,41.40829,195.39571)" id="g1506">
   <path stroke-width="0.594" stroke-linecap="butt" fill-opacity="0.468" stroke-linejoin="miter" stroke="none" fill-rule="evenodd" filter="url(#filter1079)" fill="#121c81" stroke-opacity="1" sodipodi:nodetypes="csccccc" id="path1055" d="m 154.68083,195.7256 c -15.93508,2.34649 -12.97227,5.97335 -12.51429,9.4742 1.09017,8.33348 25.56044,4.2816 32.1363,15.9257 2.21905,3.9821 30.64254,0.51084 33.64168,-13.73017 -0.16992,-7.25221 -17.41204,-5.57904 -27.62944,-7.05316 -7.36887,-1.05401 -13.82797,-3.00951 -19.74058,-5.50652 z" inkscape:connector-curvature="0" transform="matrix(0.34412404,0,0,0.34412404,-73.579016,208.63404)"/>
   <g transform="matrix(0.25940477,0.04487692,-0.02701643,0.15616471,-17.660272,219.60982)" id="g102383">
    <path stroke-width="1" stroke-linecap="butt" fill-opacity="0.686" stroke-linejoin="miter" stroke="none" fill-rule="evenodd" fill="#4453e6" stroke-opacity="1" d="m 29.72054,346.40281 c -20.0021697,10.91872 -15.37777,17.58195 -14.00778,24.90272 3.26114,17.42648 33.87698,-0.30028 44.94163,22.17899 3.74555,7.69857 39.58269,-10.24916 40.27237,-41.8288 -1.83488,-15.45366 -23.67061,-5.49176 -37.15953,-4.86381 -11.442776,-0.48175 -25.287803,-9.97194 -34.04669,-0.3891 z" id="path102385" sodipodi:nodetypes="cscccc" inkscape:connector-curvature="0"/>
    <path stroke-width="1" stroke-linecap="butt" fill-opacity="0.488" stroke-linejoin="miter" stroke="none" fill-rule="evenodd" fill="#ffffff" stroke-opacity="1" d="m 31.0824,346.59736 c -5.77046,4.26138 -10.72168,5.68423 -13.22957,9.92217 -2.95254,4.98932 -0.94141,11.77507 3.50195,14.786 9.5633,6.48033 27.06861,-1.91604 35.21401,7.39299 l 8.1712,9.33852 c 4.33953,4.95947 15.03088,-3.52362 22.56809,-9.14396 -7.65402,-1.97503 -13.95694,7.8785 -21.40077,0.19455 l -6.03113,-6.22568 c -8.46685,-8.73997 -23.65281,-1.16825 -34.4358,-4.47471 -6.01038,-1.843 -4.69989,-6.30341 -4.36965,-10.40937 0.39001,-4.8492 6.48206,-7.18372 12.54086,-10.99141 z" id="path102387" sodipodi:nodetypes="csssscsssscc" inkscape:connector-curvature="0"/>
    <path stroke-width="1" stroke-linecap="butt" fill-opacity="0.488" stroke-linejoin="miter" stroke="none" fill-rule="evenodd" fill="#2d3eae" stroke-opacity="1" sodipodi:nodetypes="cssscssscc" id="path102389" d="m 15.35634,361.8775 c -0.69949,5.75836 -0.39044,11.08636 4.05291,14.09729 9.5633,6.48033 27.06861,-1.91604 35.21401,7.39299 l 8.1712,9.33852 c 4.33953,4.95947 15.03088,-3.52362 22.56809,-9.14396 -7.65402,-1.97503 -14.22686,13.24328 -21.95173,5.84193 l -8.51047,-8.15405 c -8.78652,-8.41854 -20.89799,-2.6834 -31.68098,-5.98986 -6.01038,-1.843 -6.07041,-8.59814 -6.43577,-12.75097 -0.23137,-2.44725 -0.5684,-3.79608 -1.42726,-0.63189 z" inkscape:connector-curvature="0"/>
    <path stroke-width="1" stroke-linecap="butt" fill-opacity="0.488" stroke-linejoin="miter" stroke="none" fill-rule="evenodd" fill="#2d3eae" stroke-opacity="1" d="m 98.91174,359.04165 c 0.69949,-5.75836 0.39044,-11.08636 -4.05291,-14.09729 -9.5633,-6.48033 -20.96243,3.86939 -33.28564,2.79985 l -10.78828,-0.93632 c -6.51622,-0.25896 -6.25073,-2.16353 -14.71685,-2.42629 7.30676,4.18147 3.00884,3.57122 13.68727,4.48865 l 11.54077,0.99152 c 12.12393,1.04162 18.96962,-7.50944 29.75261,-4.20298 6.01038,1.843 6.07041,8.59814 6.43577,12.75097 0.23137,2.44725 0.5684,3.79608 1.42726,0.63189 z" id="path102391" sodipodi:nodetypes="cssscssscc" inkscape:connector-curvature="0"/>
    <path stroke-width="1" stroke-linecap="butt" fill-opacity="0.488" stroke-linejoin="miter" stroke="none" fill-rule="evenodd" fill="#cacee5" stroke-opacity="1" sodipodi:nodetypes="cssscssscc" id="path102393" d="m 97.25885,361.24551 c 0.69949,-5.75836 0.39044,-11.08636 -4.05291,-14.09729 -9.5633,-6.48033 -20.96243,3.86939 -33.28564,2.79985 l -10.78828,-0.93632 c -6.51622,-0.25896 -6.25073,-2.16353 -14.71685,-2.42629 7.30676,4.18147 3.00884,3.57122 13.68727,4.48865 l 11.54077,0.99152 c 12.12393,1.04162 18.96962,-7.50944 29.75261,-4.20298 6.01038,1.843 6.07041,8.59814 6.43577,12.75097 0.23137,2.44725 0.5684,3.79608 1.42726,0.63189 z" inkscape:connector-curvature="0"/>
    <path stroke-width="1" stroke-linecap="butt" fill-opacity="1" stroke-linejoin="miter" stroke="none" fill-rule="evenodd" fill="url(#radialGradient102379)" stroke-opacity="1" d="m 88.15828,344.09067 c -11.79047,0.96031 -23.50642,5.84445 -35.41247,2.3408 -9.61992,-2.0856 -20.03647,-1.61313 -27.90679,5.31173 -6.0745,3.4203 -11.84023,9.34467 -8.77449,16.62872 0.17959,5.64152 4.37635,10.32866 10.1875,10.40625 11.91431,1.00349 27.35423,0.21627 34.15625,12.1875 1.8907,6.07535 9.3441,2.26711 13.15625,0.53125 14.90479,-7.75959 26.84832,-23.76697 26.15625,-41.03125 -0.88279,-5.50645 -6.76399,-6.81413 -11.5625,-6.375 z" id="path102395" sodipodi:nodetypes="ccccccccc" inkscape:connector-curvature="0"/>
    <path stroke-width="1" stroke-linecap="butt" fill-opacity="1" stroke-linejoin="miter" stroke="none" fill-rule="evenodd" fill="url(#radialGradient102381)" stroke-opacity="1" sodipodi:nodetypes="ccccccccc" id="path102397" d="m 88.15828,344.09067 c -11.79047,0.96031 -23.50642,5.84445 -35.41247,2.3408 -9.61992,-2.0856 -20.03647,-1.61313 -27.90679,5.31173 -6.0745,3.4203 -11.84023,9.34467 -8.77449,16.62872 0.17959,5.64152 4.37635,10.32866 10.1875,10.40625 11.91431,1.00349 27.35423,0.21627 34.15625,12.1875 1.8907,6.07535 9.3441,2.26711 13.15625,0.53125 14.90479,-7.75959 26.84832,-23.76697 26.15625,-41.03125 -0.88279,-5.50645 -6.76399,-6.81413 -11.5625,-6.375 z" inkscape:connector-curvature="0"/>
    <path stroke-width="1" stroke-linecap="butt" fill-opacity="0.314" stroke-linejoin="miter" stroke="none" fill-rule="evenodd" fill="#4453e6" stroke-opacity="1" sodipodi:nodetypes="csccccc" id="path102399" d="m 29.579647,347.52994 c -20.0021685,10.91872 -15.37777,17.58195 -14.00778,24.90272 3.26114,17.42648 33.87698,-0.30028 44.94163,22.17899 3.74555,7.69857 39.582683,-10.24916 40.272363,-41.8288 -1.834877,-15.45366 -23.670607,-5.49176 -37.159523,-4.86381 -9.72627,0.4724 -18.4816,-1.32072 -26.6537,-4.47471 z" inkscape:connector-curvature="0"/>
   </g>
  </g>
  <g transform="matrix(0.42615942,0,0,0.29665591,40.941566,212.42409)" id="g1494">
   <path stroke-width="0.978" stroke-linecap="butt" fill-opacity="0.586" stroke-linejoin="miter" stroke="none" fill-rule="evenodd" filter="url(#filter1037)" fill="#162083" stroke-opacity="1" d="m 129.44618,190.14257 c 7.63443,12.22971 -4.40976,15.94763 -13.95989,20.85819 -22.733276,11.68918 -33.283943,-7.75252 -69.414615,5.79983 -12.330346,4.65108 -27.815471,-16.10992 6.831645,-38.76119 19.110631,-10.60109 29.635205,1.35498 42.319203,4.80401 9.123937,2.50092 19.818987,3.17179 31.457777,2.74336 z" id="path1005" sodipodi:nodetypes="csccccc" inkscape:connector-curvature="0" transform="matrix(0.34412404,0,0,0.34412404,-73.579016,208.63404)"/>
   <g id="g1079" transform="matrix(-0.34151263,-0.07657744,-0.38500875,0.24515891,9.1541139,224.48975)">
    <path stroke-width="1" stroke-linecap="butt" fill-opacity="0.686" stroke-linejoin="miter" stroke="none" fill-rule="evenodd" fill="#4453e6" stroke-opacity="1" sodipodi:nodetypes="cscccc" id="path3312" d="m -82.2341,174.20114 c -20.00217,10.91872 -15.37777,17.58195 -14.00778,24.90272 3.26114,17.42648 33.87698,-0.30028 44.94163,22.17899 3.74555,7.69857 39.58269,-10.24916 40.27237,-41.8288 -1.83488,-15.45366 -23.67061,-5.49176 -37.15953,-4.86381 -11.442776,-0.48175 -25.287803,-9.97194 -34.04669,-0.3891 z" inkscape:connector-curvature="0"/>
    <path stroke-width="1" stroke-linecap="butt" fill-opacity="0.634" stroke-linejoin="miter" stroke="none" fill-rule="evenodd" filter="url(#filter1055)" fill="#ffffff" stroke-opacity="1" sodipodi:nodetypes="csssscsssscc" id="path3314" d="m -80.87224,174.39569 c -5.77046,4.26138 -10.72168,5.68423 -13.22957,9.92217 -2.95254,4.98932 -0.94141,11.77507 3.50195,14.786 9.5633,6.48033 27.06861,-1.91604 35.21401,7.39299 l 8.1712,9.33852 c 4.33953,4.95947 15.03088,-3.52362 22.56809,-9.14396 -7.65402,-1.97503 -13.95694,7.8785 -21.40077,0.19455 l -6.03113,-6.22568 c -8.46685,-8.73997 -23.65281,-1.16825 -34.4358,-4.47471 -6.01038,-1.843 -4.69989,-6.30341 -4.36965,-10.40937 0.39001,-4.8492 6.48206,-7.18372 12.54086,-10.99141 z" inkscape:connector-curvature="0"/>
    <path stroke-width="1" stroke-linecap="butt" fill-opacity="0.488" stroke-linejoin="miter" stroke="none" fill-rule="evenodd" fill="#2d3eae" stroke-opacity="1" d="m -96.5983,189.67583 c -0.69949,5.75836 -0.39044,11.08636 4.05291,14.09729 9.5633,6.48033 27.06861,-1.91604 35.21401,7.39299 l 8.1712,9.33852 c 4.33953,4.95947 15.03088,-3.52362 22.56809,-9.14396 -7.65402,-1.97503 -14.22686,13.24328 -21.95173,5.84193 l -8.51047,-8.15405 c -8.78652,-8.41854 -20.89799,-2.6834 -31.68098,-5.98986 -6.01038,-1.843 -6.07041,-8.59814 -6.43577,-12.75097 -0.23137,-2.44725 -0.5684,-3.79608 -1.42726,-0.63189 z" id="path3297" sodipodi:nodetypes="cssscssscc" inkscape:connector-curvature="0"/>
    <path stroke-width="1" stroke-linecap="butt" fill-opacity="0.488" stroke-linejoin="miter" stroke="none" fill-rule="evenodd" fill="#2d3eae" stroke-opacity="1" sodipodi:nodetypes="cssscssscc" id="path3301" d="m -13.0429,186.83998 c 0.69949,-5.75836 0.39044,-11.08636 -4.05291,-14.09729 -9.5633,-6.48033 -20.96243,3.86939 -33.28564,2.79985 l -10.78828,-0.93632 c -6.51622,-0.25896 -6.25073,-2.16353 -14.71685,-2.42629 7.30676,4.18147 3.00884,3.57122 13.68727,4.48865 l 11.54077,0.99152 c 12.12393,1.04162 18.96962,-7.50944 29.75261,-4.20298 6.01038,1.843 6.07041,8.59814 6.43577,12.75097 0.23137,2.44725 0.5684,3.79608 1.42726,0.63189 z" inkscape:connector-curvature="0"/>
    <path stroke-width="1" stroke-linecap="butt" fill-opacity="0.618" stroke-linejoin="miter" stroke="none" fill-rule="evenodd" filter="url(#filter1067)" fill="#cacee5" stroke-opacity="1" d="m -14.69579,189.04384 c 0.69949,-5.75836 0.39044,-11.08636 -4.05291,-14.09729 -9.5633,-6.48033 -20.96243,3.86939 -33.28564,2.79985 l -10.78828,-0.93632 c -6.51622,-0.25896 -6.25073,-2.16353 -14.71685,-2.42629 7.30676,4.18147 3.00884,3.57122 13.68727,4.48865 l 11.54077,0.99152 c 12.12393,1.04162 18.96962,-7.50944 29.75261,-4.20298 6.01038,1.843 6.07041,8.59814 6.43577,12.75097 0.23137,2.44725 0.5684,3.79608 1.42726,0.63189 z" id="path3303" sodipodi:nodetypes="cssscssscc" inkscape:connector-curvature="0"/>
    <path stroke-width="1" stroke-linecap="butt" fill-opacity="1" stroke-linejoin="miter" stroke="none" fill-rule="evenodd" fill="url(#radialGradient979)" stroke-opacity="1" sodipodi:nodetypes="ccccccccc" id="path3307" d="m -23.513487,170.19176 c -11.79047,0.96031 -23.50642,5.84445 -35.41247,2.3408 -9.61992,-2.0856 -20.03647,-1.61313 -27.90679,5.31173 -6.0745,3.4203 -11.84023,9.34467 -8.77449,16.62872 0.17959,5.64152 4.37635,10.32866 10.1875,10.40625 11.91431,1.00349 27.35423,0.21627 34.15625,12.1875 1.8907,6.07535 9.3441,2.26711 13.15625,0.53125 14.90479,-7.75959 26.84832,-23.76697 26.15625,-41.03125 -0.88279,-5.50645 -6.76399,-6.81413 -11.5625,-6.375 z" inkscape:connector-curvature="0"/>
    <path stroke-width="1" stroke-linecap="butt" fill-opacity="1" stroke-linejoin="miter" stroke="none" fill-rule="evenodd" fill="url(#radialGradient981)" stroke-opacity="1" d="m -24.362106,173.30337 c -11.79047,0.96031 -23.50642,5.84445 -35.41247,2.3408 -9.61992,-2.0856 -20.03647,-1.61313 -27.90679,5.31173 -6.0745,3.4203 -11.84023,9.34467 -8.77449,16.62872 0.17959,5.64152 4.37635,10.32866 10.1875,10.40625 11.91431,1.00349 27.35423,0.21627 34.15625,12.1875 1.8907,6.07535 9.3441,2.26711 13.15625,0.53125 14.90479,-7.75959 26.84832,-23.76697 26.15625,-41.03125 -0.88279,-5.50645 -6.76399,-6.81413 -11.5625,-6.375 z" id="path3320" sodipodi:nodetypes="ccccccccc" inkscape:connector-curvature="0"/>
    <path stroke-width="1" stroke-linecap="butt" fill-opacity="0.314" stroke-linejoin="miter" stroke="none" fill-rule="evenodd" fill="#4453e6" stroke-opacity="1" d="m -82.09212,174.19678 c -20.00217,10.91872 -15.37777,17.58195 -14.00778,24.90272 3.26114,17.42648 33.87698,-0.30028 44.94163,22.17899 3.74555,7.69857 39.582683,-10.24916 40.272363,-41.8288 -1.834877,-15.45366 -23.670607,-5.49176 -37.159523,-4.86381 -9.72627,0.4724 -18.4816,-1.32072 -26.6537,-4.47471 z" id="path3346" sodipodi:nodetypes="csccccc" inkscape:connector-curvature="0"/>
   </g>
  </g>
  <g transform="rotate(9.5948209,-102.33302,422.1928)" id="g1488">
   <ellipse id="path1111" cx="-8.738" cy="246.9" rx="1.64" ry="1.053" stroke-dasharray="none" stroke-opacity="0.538" fill="#b8e7ff" fill-rule="nonzero" stroke="none" stroke-linejoin="round" fill-opacity="0.134" stroke-linecap="round" stroke-width="0.273" stroke-dashoffset="0" stroke-miterlimit="4"/>
   <path sodipodi:nodetypes="ccccccccc" inkscape:connector-curvature="0" id="path1099" d="m -8.4310442,259.94333 c 1.4248765,-0.63306 2.4219649,-2.18244 1.9321684,-3.68954 -0.3969917,-1.28266 -1.4161221,-2.21802 -2.283964,-3.20008 -0.3444205,-0.41632 -0.7116237,-0.90384 -0.8686133,-1.42342 -0.1270486,-0.68913 0.1082359,-1.24429 0.434201,-1.84026 0.2360244,-0.43121 0.7197686,-0.95496 1.2204356,-1.04801 0.6323948,-0.17512 1.2470279,-0.53438 1.5995666,-1.10158 0.2588346,-0.38641 0.147181,-0.86242 0.1244682,-1.29302 -0.00857,-0.19578 0.017979,-0.39656 0.1085352,-0.57251" stroke-dasharray="none" stroke-opacity="0.538" fill="none" stroke="#0d4050" stroke-linejoin="miter" fill-opacity="1" stroke-linecap="butt" stroke-width="0.241" stroke-miterlimit="4"/>
   <path d="m -10.779899,244.61996 c 1.3321862,0.63508 2.6695634,1.25904 4.317033,1.21852 -0.1467294,0.40617 -0.050935,0.46249 -0.034816,1.21851 0.01612,0.75603 -0.9073008,1.2557 -1.1488866,1.3926 -0.2415865,0.1369 -0.5163691,0.15938 -0.942342,0.33217 -0.4259721,0.17279 -1.0255644,1.06272 -1.216175,1.86116 -0.1906098,0.79843 -0.2362724,1.15081 0.7311104,2.29777 0.9673831,1.14697 2.9517497,2.97086 2.3325897,5.01333 -0.6191583,2.04247 -2.7555988,2.96571 -4.2474025,1.84519 -1.491803,-1.12053 -1.344578,-4.1966 -1.253332,-5.11778 0.09125,-0.92117 0.751827,-3.23964 0.80074,-3.44666 0.04891,-0.20702 0.09013,-0.72588 -0.363603,-1.32426 -0.453736,-0.59839 -0.07742,-1.87254 0.433233,-2.26166 0.510648,-0.38913 0.772475,-1.04169 0.208888,-1.25334 -0.563586,-0.21164 -1.555087,-0.94051 0.382963,-1.77555 z" id="path896-2" inkscape:connector-curvature="0" sodipodi:nodetypes="cczzzzzzzzzzzzc" stroke-opacity="1" fill="url(#linearGradient904)" stroke="none" stroke-linejoin="miter" fill-opacity="1" stroke-linecap="butt" stroke-width="0.032"/>
   <path sodipodi:nodetypes="czzzzzzzzzzzzc" inkscape:connector-curvature="0" id="path908" d="m -6.462866,245.83848 c -0.1467294,0.40617 -0.050935,0.46249 -0.034816,1.21851 0.01612,0.75603 -0.9073008,1.2557 -1.1488866,1.3926 -0.2415865,0.1369 -0.5163691,0.15938 -0.942342,0.33217 -0.4259721,0.17279 -1.1110128,1.08409 -1.3016235,1.88252 -0.1906099,0.79843 -0.2042299,1.18285 0.7631542,2.32982 0.9673823,1.14696 3.0265153,2.90677 2.4073569,4.94924 -0.6191583,2.04247 -2.7769613,2.97639 -4.268765,1.85587 -1.491803,-1.12053 -1.344578,-4.1966 -1.253332,-5.11778 0.09125,-0.92117 0.847957,-3.22896 0.89687,-3.43598 0.04891,-0.20702 -0.006,-0.73656 -0.459733,-1.33494 -0.453736,-0.59839 -0.07742,-1.87254 0.433233,-2.26166 0.510648,-0.38913 0.772475,-1.04169 0.208888,-1.25334 -0.563586,-0.21164 -1.555087,-0.94051 0.382963,-1.77555" stroke-dasharray="none" stroke-opacity="0.769" fill="none" stroke="url(#linearGradient916)" stroke-linejoin="miter" fill-opacity="1" stroke-linecap="butt" stroke-width="0.12" stroke-miterlimit="4"/>
   <path d="m -10.820329,244.53333 c -0.464177,0.22103 -1.048012,0.46363 -1.190131,1.01206 -0.05067,0.44306 0.371011,0.7668 0.744243,0.90376 0.201643,0.0668 0.398599,0.25972 0.307517,0.48817 -0.128385,0.48827 -0.678584,0.69037 -0.864975,1.1496 -0.322729,0.6031 -0.423817,1.41688 0.01436,1.99138 0.26137,0.3488 0.397644,0.80226 0.285571,1.22665 -0.134106,0.50334 -0.316149,1.00181 -0.433433,1.50981 -0.301102,1.13883 -0.508762,2.31714 -0.418434,3.49913 0.04799,1.12428 0.244276,2.31839 0.964397,3.22227 0.701975,0.81973 1.9619044,1.07972 2.9312127,0.60301 1.4248765,-0.63306 2.2995633,-2.37828 1.8097661,-3.88538 -0.396991,-1.28266 -1.4161214,-2.21802 -2.2839633,-3.20008 -0.3444205,-0.41632 -0.7116237,-0.90384 -0.8686132,-1.42342 -0.1270487,-0.68913 0.1082358,-1.24429 0.4342009,-1.84026 0.2360244,-0.43121 0.7197686,-0.95496 1.2204356,-1.04801 0.6323949,-0.17512 1.2470279,-0.53438 1.5995666,-1.10158 0.2588338,-0.38641 0.1471818,-0.86242 0.124469,-1.29302 -0.00857,-0.19578 0.017978,-0.39656 0.1085344,-0.57251" id="path918" inkscape:connector-curvature="0" sodipodi:nodetypes="ccccccccccccccccccc" stroke-dasharray="none" stroke-opacity="0.441" fill="none" stroke="#0e1789" stroke-linejoin="miter" fill-opacity="1" stroke-linecap="butt" stroke-width="0.12" stroke-miterlimit="4"/>
   <path sodipodi:nodetypes="ccccccc" inkscape:connector-curvature="0" id="path928" d="m -11.864371,252.67538 c -0.301102,1.13883 -0.462971,2.34004 -0.372643,3.52203 0.04799,1.12428 0.267171,2.19246 0.987292,3.09634 0.701976,0.81973 1.7443996,1.02248 2.7137076,0.54578 1.424877,-0.63306 2.276668,-2.14933 1.78687,-3.65644 -0.39699,-1.28266 -1.461912,-2.25236 -2.329754,-3.23441 -0.880607,-0.91661 -2.6240286,-1.84111 -2.7854726,-0.2733 z" stroke-dasharray="none" stroke-opacity="0.441" fill="url(#radialGradient936)" stroke="none" stroke-linejoin="miter" fill-opacity="1" stroke-linecap="butt" stroke-width="0.12" stroke-miterlimit="4"/>
   <ellipse id="path942" cx="77.44" cy="195.24" rx="19.233" ry="23.2" transform="matrix(0.12028166,0,0,0.12028166,-18.266683,233.80349)" stroke-dasharray="none" stroke-opacity="0.441" fill="url(#radialGradient950)" filter="url(#filter1095)" fill-rule="nonzero" stroke="none" stroke-linejoin="round" fill-opacity="1" stroke-linecap="round" stroke-width="1.081" stroke-dashoffset="0" stroke-miterlimit="4"/>
   <path d="m -6.8375754,257.39914 c 0,1.5413 -1.1429576,2.79077 -2.5528663,2.79077 -1.4099093,0 -2.5528663,-1.24947 -2.5528673,-2.79077 1.89979,1.18765 3.18963,1.02215 5.1057336,0 z" id="ellipse952" inkscape:connector-curvature="0" sodipodi:nodetypes="cscc" stroke-dasharray="none" stroke-opacity="0.441" fill="url(#linearGradient962)" fill-rule="nonzero" stroke="none" stroke-linejoin="round" fill-opacity="1" stroke-linecap="round" stroke-width="0.137" stroke-dashoffset="0" stroke-miterlimit="4"/>
   <ellipse id="path964" cx="-10.758" cy="255.11" rx="0.918" ry="1.089" stroke-dasharray="none" stroke-opacity="0.441" fill="url(#radialGradient972)" fill-rule="nonzero" stroke="none" stroke-linejoin="round" fill-opacity="1" stroke-linecap="round" stroke-width="0.136" stroke-dashoffset="0" stroke-miterlimit="4"/>
   <path d="m -12.214387,255.34441 c 1.132766,-2.25375 2.5732523,-2.26553 4.1616679,-1.19954 -0.7345635,-0.70249 -2.5414209,-2.11718 -1.6401864,-4.23511 0.3361185,-0.78989 -1.9577605,-0.5298 -2.1542755,-0.0245 0.63897,0.69239 0.571737,1.2367 0.220324,1.98291 -0.510526,1.08408 -0.659228,2.31748 -0.58753,3.47622 z" id="path976" inkscape:connector-curvature="0" sodipodi:nodetypes="ccscsc" stroke-opacity="1" fill="url(#linearGradient984)" stroke="none" stroke-linejoin="miter" fill-opacity="1" stroke-linecap="butt" stroke-width="0.032"/>
   <path d="m 55.155448,206.63461 c 14.809592,30.7648 51.797242,9.9498 44.36859,-20.75961 8.178262,17.43196 8.406592,33.53421 9.972752,50.67788 0.63247,6.92323 -4.22638,13.34013 -14.450317,7.73398 -16.019378,-8.784 -31.840267,-18.35632 -39.891025,-37.65225 z" id="path986" inkscape:connector-curvature="0" sodipodi:nodetypes="ccssc" transform="matrix(0.12028166,0,0,0.12028166,-18.652732,233.67251)" stroke-opacity="1" fill="url(#radialGradient1004)" filter="url(#filter1038)" stroke="none" stroke-linejoin="miter" fill-opacity="1" stroke-linecap="butt" stroke-width="0.265"/>
   <path d="m -7.1224643,258.97975 c 7e-7,0.68277 -0.086691,1.68556 -0.5140881,1.97067 -0.5137661,0.34273 -1.5422651,0.034 -1.5422651,-0.64873 1.220687,-0.31964 1.6450315,-0.94689 2.0563532,-1.32194 z" id="path1042" inkscape:connector-curvature="0" sodipodi:nodetypes="cscc" stroke-dasharray="none" stroke-opacity="0" fill="url(#radialGradient1051)" fill-rule="nonzero" stroke="none" stroke-linejoin="round" fill-opacity="1" stroke-linecap="round" stroke-width="0.131" stroke-dashoffset="0" stroke-miterlimit="4"/>
   <ellipse id="path1053" cx="-88.76" cy="243.85" rx="0.93" ry="1.297" transform="rotate(-18.11424)" stroke-dasharray="none" stroke-opacity="0" fill="url(#radialGradient1061)" fill-rule="nonzero" stroke="none" stroke-linejoin="round" fill-opacity="1" stroke-linecap="round" stroke-width="0.12" stroke-dashoffset="0" stroke-miterlimit="4"/>
   <path d="m -11.235171,254.26727 c -0.868643,-0.79099 -0.393506,-1.41287 -0.09792,-2.32563 0.234794,-0.72505 0.563597,-1.29113 -0.07344,-2.05636 -0.720649,-0.86566 -0.280792,-1.5465 0.195844,-2.05635 0.67411,-0.7211 0.861743,-1.29632 -0.171363,-1.83603" id="path1063" inkscape:connector-curvature="0" sodipodi:nodetypes="csssc" stroke-dasharray="none" stroke-opacity="1" fill="none" stroke="url(#linearGradient1071)" stroke-linejoin="miter" stroke-linecap="round" stroke-width="0.168" stroke-miterlimit="4"/>
   <path d="m -6.6818167,247.31484 c -0.3925412,0.68316 -1.2011508,1.13518 -2.1787548,1.4933 -0.9197722,0.48178 -1.1897565,1.38128 -1.1995395,2.44804 0.081972,1.24999 0.8829494,1.86086 1.517784,2.61941 1.1645125,1.07041 1.8697705,2.24288 1.8605103,3.57414" id="path1073" inkscape:connector-curvature="0" sodipodi:nodetypes="ccccc" stroke-dasharray="none" stroke-opacity="1" fill="none" stroke="url(#linearGradient1081)" stroke-linejoin="miter" stroke-linecap="round" stroke-width="0.168" stroke-miterlimit="4"/>
   <path d="m -11.847181,253.3615 c 0.451148,1.94962 0.726712,3.88312 0.269285,5.70393 -0.737872,-1.7503 -0.96597,-3.62759 -0.269285,-5.70393 z" id="path1101" inkscape:connector-curvature="0" sodipodi:nodetypes="ccc" stroke-opacity="1" fill="url(#linearGradient1109)" stroke="none" stroke-linejoin="miter" fill-opacity="1" stroke-linecap="butt" stroke-width="0.032"/>
  </g>
  <path sodipodi:nodetypes="cccc" id="path3174" d="m 42.533997,241.87387 c -5.480086,1.01372 -19.154275,4.18109 -13.591788,11.3363 -0.774527,2.31053 0.0098,1.52993 -2.948716,3.67523 -16.9926821,-16.41462 -0.966634,-18.27647 16.540504,-15.01153 z" inkscape:connector-curvature="0" fill="#0321cc" fill-rule="evenodd" stroke="url(#linearGradient1094)" fill-opacity="1" stroke-dasharray="none" stroke-opacity="1" stroke-width="0.556" stroke-miterlimit="4"/>
  <path sodipodi:nodetypes="ccccc" id="path3176" d="m 34.886639,258.93314 -3.323901,3.22701 30.673546,30.43063 c 1.117605,1.11147 3.040614,-0.69139 2.077437,-2.01688 z" inkscape:connector-curvature="0" stroke-opacity="1" fill="url(#linearGradient3215)" fill-rule="evenodd" stroke="url(#linearGradient3217)" stroke-linejoin="miter" fill-opacity="1" stroke-linecap="butt" stroke-width="0.188"/>
  <rect transform="rotate(45.847357)" y="155.05" x="201.96" height="5.243" width="8.275" id="rect3172" fill="url(#linearGradient3212)" stroke="none" fill-opacity="1" stroke-width="0.227"/>
  <path inkscape:connector-curvature="0" d="m 42.762581,242.00634 c -5.480086,1.01372 -19.154275,4.18109 -13.591788,11.3363 -1.76562,1.18084 -1.739931,0.18397 -2.948716,3.67523 C 9.229395,240.60325 25.255443,238.7414 42.762581,242.00634 Z" id="path4707" sodipodi:nodetypes="cccc" fill="url(#radialGradient4715)" fill-rule="evenodd" stroke="none" fill-opacity="1" stroke-width="0.227"/>
  <path sodipodi:nodetypes="cccc" id="path4723" d="m 42.107913,241.87864 c -5.480086,1.01372 -19.154275,4.18109 -13.591788,11.3363 -1.76562,1.18084 -1.739931,0.18397 -2.948716,3.67523 -10.288447,-13.12345 1.137248,-17.24366 16.540504,-15.01153 z" inkscape:connector-curvature="0" fill="url(#radialGradient4725)" fill-rule="evenodd" stroke="none" fill-opacity="1" stroke-width="0.227"/>
  <path d="m 47.91871,243.08203 a 2.5432526,2.5432526 0 0 0 -2.51127,2.54317 2.5432526,2.5432526 0 0 0 0.894773,1.9366 1.5489252,1.5489252 0 0 0 -0.254552,0.85048 1.5489252,1.5489252 0 0 0 0.582931,1.21075 0.92211915,0.92211915 0 0 0 -0.179546,0.54631 0.92211915,0.92211915 0 0 0 0.0018,0.0496 2.5909508,2.5909508 0 0 0 -0.191653,0.0614 0.92211915,0.92211915 0 0 0 -0.42199,-0.38301 1.5489252,1.5489252 0 0 0 0.09332,-0.52978 1.5489252,1.5489252 0 0 0 -0.841913,-1.37818 2.5432526,2.5432526 0 0 0 0.127867,-0.79585 2.5432526,2.5432526 0 0 0 -2.543162,-2.54316 2.5432526,2.5432526 0 0 0 -2.543162,2.54316 2.5432526,2.5432526 0 0 0 2.543162,2.54317 2.5432526,2.5432526 0 0 0 0.202284,-0.008 1.5489252,1.5489252 0 0 0 1.506052,1.18771 1.5489252,1.5489252 0 0 0 0.170686,-0.009 0.92211915,0.92211915 0 0 0 0.329265,0.55016 2.5909508,2.5909508 0 0 0 -0.104538,0.21025 0.92211915,0.92211915 0 0 0 -0.274928,-0.0422 0.92211915,0.92211915 0 0 0 -0.351412,0.07 1.5489252,1.5489252 0 0 0 -1.375529,-0.83719 1.5489252,1.5489252 0 0 0 -0.517373,0.0889 2.5432526,2.5432526 0 0 0 -2.222167,-1.30643 2.5432526,2.5432526 0 0 0 -2.543161,2.54346 2.5432526,2.5432526 0 0 0 2.543161,2.54317 2.5432526,2.5432526 0 0 0 1.992716,-0.96329 1.5489252,1.5489252 0 0 0 0.746824,0.19195 1.5489252,1.5489252 0 0 0 1.242346,-0.62398 0.92211915,0.92211915 0 0 0 0.484595,0.13761 0.92211915,0.92211915 0 0 0 0.161827,-0.0142 2.5909508,2.5909508 0 0 0 0.04341,0.13171 0.92211915,0.92211915 0 0 0 -0.496997,0.51678 1.5489252,1.5489252 0 0 0 -0.47987,-0.0765 1.5489252,1.5489252 0 0 0 -1.415099,0.91928 2.5432526,2.5432526 0 0 0 -0.711388,-0.10188 2.5432526,2.5432526 0 0 0 -2.543162,2.54346 2.5432526,2.5432526 0 0 0 2.543162,2.54316 2.5432526,2.5432526 0 0 0 2.543161,-2.54316 2.5432526,2.5432526 0 0 0 -0.01978,-0.3148 1.5489252,1.5489252 0 0 0 1.151983,-1.49689 1.5489252,1.5489252 0 0 0 -0.0189,-0.23979 0.92211915,0.92211915 0 0 0 0.575253,-0.38715 2.5909508,2.5909508 0 0 0 0.216458,0.1134 0.92211915,0.92211915 0 0 0 -0.04252,0.27611 0.92211915,0.92211915 0 0 0 0.09332,0.40398 1.5489252,1.5489252 0 0 0 -0.795255,1.35308 1.5489252,1.5489252 0 0 0 0.122846,0.60508 2.5432526,2.5432526 0 0 0 -1.23703,2.182 2.5432526,2.5432526 0 0 0 2.543457,2.54317 2.5432526,2.5432526 0 0 0 2.543162,-2.54317 2.5432526,2.5432526 0 0 0 -1.055123,-2.06211 1.5489252,1.5489252 0 0 0 0.180431,-0.72497 1.5489252,1.5489252 0 0 0 -0.682153,-1.28368 0.92211915,0.92211915 0 0 0 0.13082,-0.47338 0.92211915,0.92211915 0 0 0 -0.0092,-0.12934 2.5909508,2.5909508 0 0 0 0.131411,-0.0405 0.92211915,0.92211915 0 0 0 0.41195,0.32572 1.5489252,1.5489252 0 0 0 -0.05965,0.42495 1.5489252,1.5489252 0 0 0 0.903632,1.40801 2.5432526,2.5432526 0 0 0 -0.07796,0.62427 2.5432526,2.5432526 0 0 0 2.543163,2.54346 2.5432526,2.5432526 0 0 0 2.543162,-2.54346 2.5432526,2.5432526 0 0 0 -2.543162,-2.54316 2.5432526,2.5432526 0 0 0 -0.349641,0.0242 1.5489252,1.5489252 0 0 0 -1.470025,-1.06221 1.5489252,1.5489252 0 0 0 -0.258687,0.0218 0.92211915,0.92211915 0 0 0 -0.223251,-0.39216 2.5909508,2.5909508 0 0 0 0.114874,-0.22621 0.92211915,0.92211915 0 0 0 0.07265,0.003 0.92211915,0.92211915 0 0 0 0.38301,-0.0833 1.5489252,1.5489252 0 0 0 1.34393,0.77902 1.5489252,1.5489252 0 0 0 0.572005,-0.10956 2.5432526,2.5432526 0 0 0 2.16783,1.21281 2.5432526,2.5432526 0 0 0 2.543162,-2.54316 2.5432526,2.5432526 0 0 0 -2.543162,-2.54316 2.5432526,2.5432526 0 0 0 -2.055024,1.04478 1.5489252,1.5489252 0 0 0 -0.684811,-0.15976 1.5489252,1.5489252 0 0 0 -1.278373,0.67478 0.92211915,0.92211915 0 0 0 -0.414607,-0.11606 2.5909508,2.5909508 0 0 0 -0.03543,-0.10424 0.92211915,0.92211915 0 0 0 0.461265,-0.55813 1.5489252,1.5489252 0 0 0 0.553991,0.10248 1.5489252,1.5489252 0 0 0 1.457033,-1.02353 2.5432526,2.5432526 0 0 0 0.824785,0.13732 2.5432526,2.5432526 0 0 0 2.543162,-2.54317 2.5432526,2.5432526 0 0 0 -2.543162,-2.54316 2.5432526,2.5432526 0 0 0 -2.543162,2.54316 2.5432526,2.5432526 0 0 0 0.02421,0.34994 1.5489252,1.5489252 0 0 0 -1.311742,1.53056 1.5489252,1.5489252 0 0 0 0.02333,0.26755 0.92211915,0.92211915 0 0 0 -0.651441,0.36588 2.5909508,2.5909508 0 0 0 -0.151196,-0.0791 0.92211915,0.92211915 0 0 0 0.02451,-0.20996 0.92211915,0.92211915 0 0 0 -0.06644,-0.34314 1.5489252,1.5489252 0 0 0 0.91633,-1.41392 1.5489252,1.5489252 0 0 0 -0.08298,-0.49995 2.5432526,2.5432526 0 0 0 1.431636,-2.28714 2.5432526,2.5432526 0 0 0 -2.543162,-2.54316 2.5432526,2.5432526 0 0 0 -0.03219,0 z" id="path1096" stroke-dasharray="none" stroke-opacity="0.617" fill="url(#radialGradient1178)" stroke="none" stroke-linejoin="round" fill-opacity="1" stroke-linecap="round" stroke-width="0.318" stroke-miterlimit="4"/>
 </g>
</svg>
