<?xml version="1.0" encoding="UTF-8" standalone="no"?>
<!-- Created with Inkscape (http://www.inkscape.org/) -->

<svg
   xmlns:dc="http://purl.org/dc/elements/1.1/"
   xmlns:cc="http://creativecommons.org/ns#"
   xmlns:rdf="http://www.w3.org/1999/02/22-rdf-syntax-ns#"
   xmlns:svg="http://www.w3.org/2000/svg"
   xmlns="http://www.w3.org/2000/svg"
   xmlns:xlink="http://www.w3.org/1999/xlink"
   xmlns:sodipodi="http://sodipodi.sourceforge.net/DTD/sodipodi-0.dtd"
   xmlns:inkscape="http://www.inkscape.org/namespaces/inkscape"
   id="svg2"
   version="1.1"
   inkscape:version="0.48.0 r9654"
   width="256"
   height="256"
   sodipodi:docname="xfce4-workspaces.svg">
  <metadata
     id="metadata8">
    <rdf:RDF>
      <cc:Work
         rdf:about="">
        <dc:format>image/svg+xml</dc:format>
        <dc:type
           rdf:resource="http://purl.org/dc/dcmitype/StillImage" />
        <dc:title />
      </cc:Work>
    </rdf:RDF>
  </metadata>
  <defs
     id="defs6">
    <linearGradient
       id="linearGradient4030">
      <stop
         style="stop-color:#b3b3b3;stop-opacity:1;"
         offset="0"
         id="stop4032" />
      <stop
         id="stop4038"
         offset="0.85882026"
         style="stop-color:#000000;stop-opacity:1;" />
      <stop
         style="stop-color:#000000;stop-opacity:1;"
         offset="1"
         id="stop4034" />
    </linearGradient>
    <linearGradient
       id="linearGradient4022">
      <stop
         style="stop-color:#000000;stop-opacity:1;"
         offset="0"
         id="stop4024" />
      <stop
         style="stop-color:#878787;stop-opacity:1;"
         offset="1"
         id="stop4026" />
    </linearGradient>
    <linearGradient
       id="linearGradient4012">
      <stop
         style="stop-color:#000000;stop-opacity:1;"
         offset="0"
         id="stop4014" />
      <stop
         style="stop-color:#595959;stop-opacity:0.37579617;"
         offset="1"
         id="stop4016" />
    </linearGradient>
    <linearGradient
       id="linearGradient4004">
      <stop
         id="stop4006"
         offset="0"
         style="stop-color:#000000;stop-opacity:1;" />
      <stop
         id="stop4008"
         offset="1"
         style="stop-color:#d8d8d8;stop-opacity:0;" />
    </linearGradient>
    <linearGradient
       id="linearGradient3994">
      <stop
         style="stop-color:#000000;stop-opacity:1;"
         offset="0"
         id="stop3996" />
      <stop
         style="stop-color:#2f2f2f;stop-opacity:1;"
         offset="1"
         id="stop3998" />
    </linearGradient>
    <linearGradient
       id="linearGradient3921">
      <stop
         style="stop-color:#ffffff;stop-opacity:0.28662419;"
         offset="0"
         id="stop3923" />
      <stop
         style="stop-color:#ffffff;stop-opacity:0;"
         offset="1"
         id="stop3925" />
    </linearGradient>
    <linearGradient
       id="linearGradient3903">
      <stop
         style="stop-color:#bbbbbb;stop-opacity:1;"
         offset="0"
         id="stop3905" />
      <stop
         style="stop-color:#000000;stop-opacity:1;"
         offset="1"
         id="stop3907" />
    </linearGradient>
    <linearGradient
       id="linearGradient3803">
      <stop
         id="stop3805"
         offset="0"
         style="stop-color:#ffffff;stop-opacity:0;" />
      <stop
         id="stop3809"
         offset="1"
         style="stop-color:#000000;stop-opacity:0.6433121;" />
    </linearGradient>
    <linearGradient
       id="linearGradient3784">
      <stop
         style="stop-color:#ffffff;stop-opacity:0;"
         offset="0"
         id="stop3786" />
      <stop
         id="stop3792"
         offset="0.38450092"
         style="stop-color:#000000;stop-opacity:0.49803922;" />
      <stop
         style="stop-color:#000000;stop-opacity:1;"
         offset="1"
         id="stop3788" />
    </linearGradient>
    <linearGradient
       id="linearGradient3774">
      <stop
         style="stop-color:#ffffff;stop-opacity:0.72611463;"
         offset="0"
         id="stop3776" />
      <stop
         style="stop-color:#848484;stop-opacity:0.59872609;"
         offset="1"
         id="stop3778" />
    </linearGradient>
    <linearGradient
       id="linearGradient3760">
      <stop
         style="stop-color:#000000;stop-opacity:1;"
         offset="0"
         id="stop3762" />
      <stop
         style="stop-color:#8f8f8f;stop-opacity:1;"
         offset="1"
         id="stop3764" />
    </linearGradient>
    <radialGradient
       inkscape:collect="always"
       xlink:href="#linearGradient3903"
       id="radialGradient4077"
       gradientUnits="userSpaceOnUse"
       gradientTransform="matrix(1.1283836,3.7675757e-4,-6.5244959e-4,0.1872719,-33.234302,344.09381)"
       cx="260.68011"
       cy="356.7453"
       fx="260.68011"
       fy="356.7453"
       r="110.19313" />
    <linearGradient
       inkscape:collect="always"
       xlink:href="#linearGradient3774"
       id="linearGradient4079"
       gradientUnits="userSpaceOnUse"
       gradientTransform="translate(1.5027008,-1.9931161)"
       spreadMethod="reflect"
       x1="249.68658"
       y1="378.62677"
       x2="255.87317"
       y2="376.75446" />
    <linearGradient
       inkscape:collect="always"
       xlink:href="#linearGradient3784"
       id="linearGradient4081"
       gradientUnits="userSpaceOnUse"
       gradientTransform="translate(76.39485,-14.055563)"
       x1="188.2283"
       y1="395.1586"
       x2="189.05379"
       y2="415.80377" />
    <linearGradient
       inkscape:collect="always"
       xlink:href="#linearGradient3803"
       id="linearGradient4083"
       gradientUnits="userSpaceOnUse"
       gradientTransform="translate(76.39485,-14.055563)"
       x1="185.86272"
       y1="396.44891"
       x2="197.54842"
       y2="393.65323" />
    <linearGradient
       inkscape:collect="always"
       xlink:href="#linearGradient3774"
       id="linearGradient4085"
       gradientUnits="userSpaceOnUse"
       gradientTransform="matrix(0.998515,0.04385407,0.05447741,-0.80380009,-12.191933,810.61831)"
       spreadMethod="reflect"
       x1="249.68658"
       y1="378.62677"
       x2="255.87317"
       y2="376.75446" />
    <linearGradient
       inkscape:collect="always"
       xlink:href="#linearGradient3784"
       id="linearGradient4087"
       gradientUnits="userSpaceOnUse"
       gradientTransform="matrix(0.998515,0.04385407,0.05447741,-0.80380009,61.931871,823.59843)"
       x1="188.68205"
       y1="382.90265"
       x2="189.05379"
       y2="415.80377" />
    <linearGradient
       inkscape:collect="always"
       xlink:href="#linearGradient3803"
       id="linearGradient4089"
       gradientUnits="userSpaceOnUse"
       gradientTransform="matrix(0.998515,0.04385407,0.05447741,-0.80380009,61.931871,823.59843)"
       x1="185.86272"
       y1="396.44891"
       x2="197.54842"
       y2="393.65323" />
    <linearGradient
       inkscape:collect="always"
       xlink:href="#linearGradient3921"
       id="linearGradient4091"
       gradientUnits="userSpaceOnUse"
       spreadMethod="reflect"
       x1="205.29399"
       y1="510.69385"
       x2="349.42703"
       y2="504.47067" />
    <linearGradient
       inkscape:collect="always"
       xlink:href="#linearGradient3921"
       id="linearGradient4093"
       gradientUnits="userSpaceOnUse"
       spreadMethod="reflect"
       x1="205.29399"
       y1="510.69385"
       x2="349.42703"
       y2="504.47067" />
    <radialGradient
       inkscape:collect="always"
       xlink:href="#linearGradient4030"
       id="radialGradient4103"
       gradientUnits="userSpaceOnUse"
       gradientTransform="matrix(1.1849219,0.02788725,-0.02223532,0.94477272,-56.557286,9.4292039)"
       spreadMethod="reflect"
       cx="346.52225"
       cy="338.3006"
       fx="346.52225"
       fy="338.3006"
       r="12.511804" />
    <linearGradient
       inkscape:collect="always"
       xlink:href="#linearGradient4022"
       id="linearGradient4105"
       gradientUnits="userSpaceOnUse"
       x1="343.95752"
       y1="339.24762"
       x2="356.23578"
       y2="346.68668" />
    <radialGradient
       inkscape:collect="always"
       xlink:href="#linearGradient4030"
       id="radialGradient4107"
       gradientUnits="userSpaceOnUse"
       gradientTransform="matrix(1.1849219,0.02788725,-0.02223532,0.94477272,-56.557286,9.4292039)"
       spreadMethod="reflect"
       cx="346.52225"
       cy="338.3006"
       fx="346.52225"
       fy="338.3006"
       r="12.511804" />
    <linearGradient
       inkscape:collect="always"
       xlink:href="#linearGradient4022"
       id="linearGradient4109"
       gradientUnits="userSpaceOnUse"
       x1="343.95752"
       y1="339.24762"
       x2="356.23578"
       y2="346.68668" />
    <linearGradient
       inkscape:collect="always"
       xlink:href="#linearGradient4012"
       id="linearGradient3834"
       gradientUnits="userSpaceOnUse"
       x1="52.857773"
       y1="200.02409"
       x2="271.92072"
       y2="200.02409"
       gradientTransform="matrix(0.52244863,0,0,0.52244863,-8.8346799,11.012558)" />
    <linearGradient
       inkscape:collect="always"
       xlink:href="#linearGradient4004"
       id="linearGradient3836"
       gradientUnits="userSpaceOnUse"
       x1="241.96628"
       y1="53.479843"
       x2="219.30069"
       y2="331.34143"
       gradientTransform="matrix(0.52244863,0,0,0.52244863,-8.8346799,11.012558)" />
    <linearGradient
       inkscape:collect="always"
       xlink:href="#linearGradient3994"
       id="linearGradient3839"
       gradientUnits="userSpaceOnUse"
       spreadMethod="repeat"
       x1="-39.958626"
       y1="142.21483"
       x2="231.11131"
       y2="236.48929"
       gradientTransform="matrix(0.52244863,0,0,0.52244863,-9.5284549,12.157434)" />
    <linearGradient
       inkscape:collect="always"
       xlink:href="#linearGradient3760"
       id="linearGradient3842"
       gradientUnits="userSpaceOnUse"
       x1="241.96628"
       y1="53.479843"
       x2="219.30069"
       y2="331.34143"
       gradientTransform="matrix(0.52244863,0,0,0.52244863,-9.5284549,12.157434)" />
  </defs>
  <sodipodi:namedview
     pagecolor="#ffffff"
     bordercolor="#666666"
     borderopacity="1"
     objecttolerance="10"
     gridtolerance="10"
     guidetolerance="10"
     inkscape:pageopacity="0"
     inkscape:pageshadow="2"
     inkscape:window-width="1680"
     inkscape:window-height="1022"
     id="namedview4"
     showgrid="false"
     inkscape:zoom="3.620168"
     inkscape:cx="171.85258"
     inkscape:cy="142.83912"
     inkscape:window-x="-2"
     inkscape:window-y="0"
     inkscape:window-maximized="1"
     inkscape:current-layer="svg2" />
  <g
     id="g3945"
     transform="matrix(0.52244863,0,0,0.52244863,-13.090605,-33.754718)">
    <rect
       transform="matrix(0.99976645,0.02161115,-0.02161115,0.99976645,0,0)"
       rx="111.96617"
       ry="12.293261"
       y="487.64636"
       x="176.20372"
       height="28.761089"
       width="223.93234"
       id="rect3917"
       style="fill:#010101;fill-opacity:1;stroke:none" />
    <path
       transform="matrix(1.0150577,0.02789733,-0.03279603,0.86343972,28.585034,134.59252)"
       d="m 368.66954,421.01288 c 0,9.48128 -49.33514,17.16738 -110.19313,17.16738 -60.85799,0 -110.19313,-7.6861 -110.19313,-17.16738 0,-9.48129 49.33514,-17.16738 110.19313,-17.16738 60.85799,0 110.19313,7.68609 110.19313,17.16738 z"
       sodipodi:ry="17.167383"
       sodipodi:rx="110.19313"
       sodipodi:cy="421.01288"
       sodipodi:cx="258.47641"
       id="path3901"
       style="fill:url(#radialGradient4077);fill-opacity:1;stroke:none"
       sodipodi:type="arc" />
    <g
       transform="translate(8.1545063,87.76824)"
       id="g3891">
      <path
         sodipodi:nodetypes="ccccccc"
         inkscape:connector-curvature="0"
         id="path3815"
         d="m 240.45546,356.79614 8.89344,35.80781 c 1.73739,8.53505 -7.77037,11.90427 -14.97843,12.87209 21.92464,4.1988 44.95095,3.4401 68.10505,2.10634 -10.57667,-4.01445 -18.57506,-9.41719 -21.06341,-17.78689 l -8.89345,-31.59512 z"
         style="fill:#ffffff;fill-opacity:0.53913101;stroke:#2c2c2c;stroke-width:1px;stroke-linecap:round;stroke-linejoin:round;stroke-opacity:0.32608696" />
      <path
         sodipodi:nodetypes="ccccccc"
         inkscape:connector-curvature="0"
         id="path3817"
         d="m 245.6043,357.03018 8.19133,31.82916 c 0.83391,2.91979 1.805,5.7303 4.06411,5.57419 l 11.85047,-0.42536 c 2.69091,-0.13722 3.13237,-2.6399 2.57442,-5.85095 l -7.48922,-31.12704 z"
         style="fill:url(#linearGradient4079);fill-opacity:1;stroke:#2c2c2c;stroke-width:1px;stroke-linecap:butt;stroke-linejoin:miter;stroke-opacity:0.74347821" />
      <path
         style="fill:url(#linearGradient4081);fill-opacity:1;stroke:none"
         d="m 240.45546,356.90367 8.89344,35.80781 c 1.73739,8.53505 -7.77037,11.90427 -14.97843,12.87209 21.92464,4.1988 44.95095,3.4401 68.10505,2.10634 -10.57667,-4.01445 -18.57506,-9.41719 -21.06341,-17.78689 l -8.89345,-31.59512 z"
         id="path3819"
         inkscape:connector-curvature="0"
         sodipodi:nodetypes="ccccccc" />
      <path
         sodipodi:nodetypes="csc"
         inkscape:connector-curvature="0"
         id="path3821"
         d="m 283.92174,395.84768 c 0,2.99896 -7.60635,5.43011 -16.98925,5.43011 -9.3829,0 -16.98924,-2.43115 -16.98924,-5.43011"
         style="fill:none;stroke:#828282;stroke-width:1;stroke-linecap:round;stroke-linejoin:round;stroke-miterlimit:4;stroke-opacity:0.32608696;stroke-dasharray:none" />
      <path
         style="fill:none;stroke:#828282;stroke-width:1.03582108;stroke-linecap:round;stroke-linejoin:round;stroke-miterlimit:4;stroke-opacity:0.32608696;stroke-dasharray:none"
         d="m 285.64695,398.53585 c 0,2.99896 -8.16105,5.43011 -18.2282,5.43011 -10.06715,0 -18.22819,-2.43115 -18.22819,-5.43011"
         id="path3823"
         inkscape:connector-curvature="0"
         sodipodi:nodetypes="csc" />
      <path
         sodipodi:nodetypes="csc"
         inkscape:connector-curvature="0"
         id="path3825"
         d="m 281.6112,392.29929 c 0,2.99896 -7.06505,5.43011 -15.78021,5.43011 -8.71517,0 -15.78021,-2.43115 -15.78021,-5.43011"
         style="fill:none;stroke:#828282;stroke-width:0.96376091;stroke-linecap:round;stroke-linejoin:round;stroke-miterlimit:4;stroke-opacity:0.32608696;stroke-dasharray:none" />
      <path
         sodipodi:nodetypes="cccccc"
         inkscape:connector-curvature="0"
         id="path3827"
         d="m 264.43395,357.54883 7.71065,34.30243 c 16.13689,6.47759 4.77885,17.20536 30.33092,15.83865 -10.57667,-4.01445 -18.57506,-9.41719 -21.06341,-17.78689 l -8.89345,-31.59512 z"
         style="fill:url(#linearGradient4083);fill-opacity:1;stroke:none" />
      <path
         transform="translate(76.609442,-17.596567)"
         sodipodi:end="3.2909709"
         sodipodi:start="0"
         d="m 209.01287,414.897 c 0,4.68139 -8.11844,8.4764 -18.13305,8.4764 -10.0146,0 -18.13305,-3.79501 -18.13305,-8.4764 0,-0.42226 0.0675,-0.84393 0.20194,-1.26148 l 17.93111,1.26148 z"
         sodipodi:ry="8.4763947"
         sodipodi:rx="18.133047"
         sodipodi:cy="414.897"
         sodipodi:cx="190.87982"
         id="path3829"
         style="fill:#010101;fill-opacity:0.37826089;stroke:none"
         sodipodi:type="arc" />
    </g>
    <path
       sodipodi:nodetypes="ccccccc"
       inkscape:connector-curvature="0"
       id="path3837"
       d="m 250.88751,513.8184 5.89533,-9.50819 c 2.19978,-6.78428 -7.11032,-9.90941 -14.25495,-11.00345 22.12082,-2.41351 45.07161,-0.79387 68.11866,1.29361 -10.77966,2.76299 -19.0605,6.75495 -22.00111,13.37339 l -5.66584,6.12202 z"
       style="fill:#ffffff;fill-opacity:0.53913101;stroke:#2c2c2c;stroke-width:0.89721543px;stroke-linecap:round;stroke-linejoin:round;stroke-opacity:0.32608696" />
    <path
       sodipodi:nodetypes="cccccc"
       inkscape:connector-curvature="0"
       id="path3839"
       d="m 257.11442,513.2123 3.90455,-5.69716 c 0.99174,-2.31036 2.11449,-4.52686 4.36174,-4.30231 l 11.8097,0.8616 c 2.67944,0.2283 2.98391,2.25932 2.25186,4.81589 l -3.16524,5.16359"
       style="fill:url(#linearGradient4085);fill-opacity:1;stroke:#2c2c2c;stroke-width:0.89721543px;stroke-linecap:butt;stroke-linejoin:miter;stroke-opacity:0.74347821" />
    <path
       style="fill:url(#linearGradient4087);fill-opacity:1;stroke:none"
       d="m 251.96633,513.51738 4.82237,-9.2936 c 2.19978,-6.78428 -7.11032,-9.90941 -14.25495,-11.00345 22.12082,-2.41351 45.07161,-0.79387 68.11866,1.29361 -10.77966,2.76298 -19.0605,6.75494 -22.00111,13.37338 l -4.59289,5.90744 z"
       id="path3841"
       inkscape:connector-curvature="0"
       sodipodi:nodetypes="ccccccc" />
    <path
       sodipodi:nodetypes="csc"
       inkscape:connector-curvature="0"
       id="path3843"
       d="m 291.48105,503.21906 c 0.16338,-2.41056 -7.29924,-4.69829 -16.6682,-5.10977 -9.36897,-0.41148 -17.09646,1.20911 -17.25983,3.61968"
       style="fill:none;stroke:#828282;stroke-width:0.89721543;stroke-linecap:round;stroke-linejoin:round;stroke-miterlimit:4;stroke-opacity:0.32608696;stroke-dasharray:none" />
    <path
       style="fill:none;stroke:#828282;stroke-width:0.92935467;stroke-linecap:round;stroke-linejoin:round;stroke-miterlimit:4;stroke-opacity:0.32608696;stroke-dasharray:none"
       d="m 293.35014,501.13397 c 0.16338,-2.41056 -7.85311,-4.72262 -17.90531,-5.1641 -10.0522,-0.44149 -18.33356,1.15477 -18.49694,3.56534"
       id="path3845"
       inkscape:connector-curvature="0"
       sodipodi:nodetypes="csc" />
    <path
       sodipodi:nodetypes="csc"
       inkscape:connector-curvature="0"
       id="path3847"
       d="m 288.98064,505.96993 c 0.16337,-2.41056 -6.75874,-4.67455 -15.46096,-5.05675 -8.70223,-0.38219 -15.88922,1.26214 -16.0526,3.6727"
       style="fill:none;stroke:#828282;stroke-width:0.86470115;stroke-linecap:round;stroke-linejoin:round;stroke-miterlimit:4;stroke-opacity:0.32608696;stroke-dasharray:none" />
    <path
       sodipodi:nodetypes="cccccc"
       inkscape:connector-curvature="0"
       id="path3849"
       d="m 276.80273,515.12331 2.70096,-9.2084 c 16.4658,-4.49902 5.70905,-13.6201 31.14872,-11.40097 -10.77966,2.76298 -19.0605,6.75494 -22.00111,13.37338 l -3.73452,6.9804 z"
       style="fill:url(#linearGradient4089);fill-opacity:1;stroke:none" />
    <path
       transform="matrix(0.998515,0.04385407,0.05447741,-0.80380009,61.953238,826.4541)"
       sodipodi:end="3.2909709"
       sodipodi:start="0"
       d="m 209.01287,414.897 c 0,4.68139 -8.11844,8.4764 -18.13305,8.4764 -10.0146,0 -18.13305,-3.79501 -18.13305,-8.4764 0,-0.42226 0.0675,-0.84393 0.20194,-1.26148 l 17.93111,1.26148 z"
       sodipodi:ry="8.4763947"
       sodipodi:rx="18.133047"
       sodipodi:cy="414.897"
       sodipodi:cx="190.87982"
       id="path3851"
       style="fill:#010101;fill-opacity:0.37826089;stroke:none"
       sodipodi:type="arc" />
    <path
       sodipodi:nodetypes="csc"
       inkscape:connector-curvature="0"
       id="path3919"
       d="m 165.45064,501.05579 c 7.41211,9.94494 66.19427,12.05393 106.22318,13.51932 39.0143,1.42824 78.54186,2.87051 116.5236,-6.65236"
       style="fill:none;stroke:url(#linearGradient4091);stroke-width:1px;stroke-linecap:round;stroke-linejoin:round;stroke-opacity:1" />
    <path
       style="fill:none;stroke:url(#linearGradient4093);stroke-width:0.40000001;stroke-linecap:round;stroke-linejoin:round;stroke-miterlimit:4;stroke-opacity:1;stroke-dasharray:none"
       d="m 165.45064,501.05579 c 7.41211,9.94494 66.19427,12.05393 106.22318,13.51932 39.0143,1.42824 78.54186,2.87051 116.5236,-6.65236"
       id="path3943"
       inkscape:connector-curvature="0"
       sodipodi:nodetypes="csc" />
  </g>
  <path
     sodipodi:nodetypes="sssssssss"
     inkscape:connector-curvature="0"
     id="path3768"
     d="M 30.754201,51.064011 245.03064,28.187523 c 3.08049,-0.328878 5.66167,2.494828 5.59203,5.592031 -1.42583,63.420145 -2.79999,107.980196 -6.35458,162.677246 -0.2009,3.09146 -1.73198,7.68044 -4.82948,7.6255 -98.62308,-1.74926 -137.00475,-3.12174 -226.477233,-9.40478 -3.0903749,-0.21702 -6.0045599,-2.52164 -5.5920308,-5.59203 L 25.16217,56.656042 c 0.412529,-3.070397 2.511552,-5.263155 5.592031,-5.592031 z"
     style="fill:#aeaeae;fill-opacity:0.53913101;stroke:#6d6d6d;stroke-width:0.26435053;stroke-miterlimit:4;stroke-opacity:0.57391304;stroke-dasharray:none" />
  <path
     style="fill:#000000;fill-opacity:1;stroke:#5f5f5f;stroke-width:0.52244866;stroke-opacity:1"
     d="M 31.915788,51.833389 243.65819,29.227439 c 3.04405,-0.324988 5.59471,2.465324 5.5259,5.525899 -1.40897,62.670137 -2.76688,106.703222 -6.27943,160.753422 -0.19853,3.0549 -1.7115,7.58961 -4.77237,7.53532 -97.45676,-1.72858 -135.38452,-3.08482 -223.798908,-9.29356 -3.053828,-0.21445 -5.9335498,-2.49181 -5.5258993,-5.5259 L 26.389888,57.359288 c 0.407651,-3.034085 2.48185,-5.200912 5.5259,-5.525899 z"
     id="rect2987"
     inkscape:connector-curvature="0"
     sodipodi:nodetypes="sssssssss" />
  <path
     sodipodi:nodetypes="sssssssss"
     inkscape:connector-curvature="0"
     id="path3758"
     d="M 39.950572,61.786567 230.4048,41.927592 c 2.75225,-0.286981 5.52602,1.648845 5.46378,4.274411 -1.27429,53.762641 -3.24036,84.507177 -6.41716,130.875067 -0.17956,2.6207 -3.10218,6.46378 -5.86979,6.38662 -88.14131,-2.45732 -121.78418,-3.45033 -201.732955,-5.81549 -2.054695,-0.0608 -3.564756,-2.59488 -3.178768,-5.19521 L 34.370273,66.682414 c 0.385989,-2.600333 2.828058,-4.608866 5.580299,-4.895847 z"
     style="fill:#353535;fill-opacity:1;stroke:url(#linearGradient3842);stroke-width:1.04489732;stroke-miterlimit:4;stroke-opacity:1;stroke-dasharray:none" />
  <path
     inkscape:connector-curvature="0"
     style="fill:url(#linearGradient3839);fill-opacity:1;stroke:none"
     d="m 244.21831,29.202321 c -0.18588,-0.0033 -0.36484,0.01234 -0.5551,0.03265 L 31.908252,51.830877 c -3.044049,0.324987 -5.110713,2.500605 -5.518364,5.53469 L 8.8062267,188.22262 c -0.4076505,3.03409 2.4808623,5.30392 5.5346903,5.51837 88.414383,6.20873 126.330833,7.57754 223.787603,9.30611 3.06087,0.0543 4.58514,-4.48795 4.78367,-7.54285 3.51255,-54.05021 4.86042,-98.080775 6.26939,-160.750913 0.0645,-2.869289 -2.17507,-5.501037 -4.96327,-5.551016 z m -13.28978,12.702032 c 2.57228,-0.01417 5.00527,1.832406 4.94693,4.293875 -1.27429,53.762639 -3.23952,84.505492 -6.41632,130.873382 -0.17955,2.6207 -3.10994,6.47716 -5.87755,6.4 -88.14131,-2.45732 -121.7817,-3.46342 -201.730474,-5.82857 -2.054695,-0.0608 -3.569659,-2.5915 -3.183671,-5.19184 L 34.373557,66.68801 c 0.385988,-2.600334 2.831428,-4.610975 5.583669,-4.897956 L 230.40608,41.920679 c 0.17201,-0.01794 0.35096,-0.01538 0.52245,-0.01633 z"
     id="path3989" />
  <path
     sodipodi:type="arc"
     style="fill:url(#radialGradient4103);fill-opacity:1;stroke:url(#linearGradient4105)"
     id="path4020"
     sodipodi:cx="348.34232"
     sodipodi:cy="340.16599"
     sodipodi:rx="12.011804"
     sodipodi:ry="9.2662487"
     d="m 360.35412,340.16599 a 12.011804,9.2662487 0 1 1 -24.02361,0 12.011804,9.2662487 0 1 1 24.02361,0 z"
     transform="matrix(0.52244863,0,0,0.52244863,-6.1217276,13.233243)" />
  <path
     transform="matrix(0.52244863,0,0,0.52244863,-129.97572,8.9127546)"
     d="m 360.35412,340.16599 a 12.011804,9.2662487 0 1 1 -24.02361,0 12.011804,9.2662487 0 1 1 24.02361,0 z"
     sodipodi:ry="9.2662487"
     sodipodi:rx="12.011804"
     sodipodi:cy="340.16599"
     sodipodi:cx="348.34232"
     id="path4040"
     style="fill:url(#radialGradient4107);fill-opacity:1;stroke:url(#linearGradient4109)"
     sodipodi:type="arc" />
  <path
     style="fill:#585858;fill-opacity:1;stroke:none"
     d="M 136.69838,53.120759 228.0446,40.743667 c 2.73831,-0.371031 5.5185,1.641945 5.45634,4.256538 -1.27255,53.537851 -3.23594,84.153835 -6.40842,130.327855 -0.17931,2.60974 -3.09694,6.34159 -5.86179,6.35991 -32.67789,0.21654 -71.01018,-1.06827 -102.01768,-2.53568 -2.0505,-0.097 -3.51214,-2.57737 -3.17444,-5.17349 L 131.12568,57.996139 c 0.33771,-2.596128 2.83441,-4.504352 5.5727,-4.87538 z"
     id="path3868"
     inkscape:connector-curvature="0"
     sodipodi:nodetypes="sssssssss" />
  <path
     style="fill:#353535;fill-opacity:1;stroke:none"
     d="M 43.011796,61.446431 228.06105,41.341655 c 2.75098,-0.298882 6.06165,3.804734 5.8544,6.422848 -1.86619,23.575358 -1.68979,42.873218 -2.20301,65.564807 -0.0594,2.62617 -3.10138,6.34776 -5.86979,6.38662 -89.31318,1.25362 -114.8766,2.53953 -194.434753,2.1275 -2.055567,-0.0106 -3.544125,-2.5919 -3.178768,-5.19521 l 6.821416,-48.605262 c 0.365357,-2.603312 5.210278,-6.297646 7.961251,-6.596527 z"
     id="path3872"
     inkscape:connector-curvature="0"
     sodipodi:nodetypes="sssssssss" />
  <path
     sodipodi:nodetypes="sssssssss"
     inkscape:connector-curvature="0"
     id="path3874"
     d="m 43.011796,61.446431 80.166444,-7.018838 c 2.75662,-0.241352 6.11292,3.809298 5.8544,6.422847 -2.0615,20.840984 -3.2523,32.13103 -5.71864,53.06481 -0.30736,2.6088 -3.10138,6.34776 -5.86979,6.38662 -89.313178,1.25362 -6.47816,1.95359 -86.036313,1.54156 -2.055567,-0.0106 -3.544125,-2.5919 -3.178768,-5.19521 l 6.821416,-48.605262 c 0.365357,-2.603312 5.204635,-6.355176 7.961251,-6.596527 z"
     style="fill:#4f4f4f;fill-opacity:1;stroke:none" />
  <path
     style="fill:url(#linearGradient3834);fill-opacity:1;stroke:url(#linearGradient3836);stroke-width:1.04489732;stroke-miterlimit:4;stroke-opacity:1;stroke-dasharray:none"
     d="m 115.04666,178.51376 c -43.824666,-0.42444 -12.55544,0.35473 -92.50421,-2.01043 -2.0547,-0.0608 -3.56476,-2.59488 -3.17877,-5.19521 L 35.064046,65.537538 c 0.385989,-2.600333 2.825349,-4.636157 5.580299,-4.895847 l 92.063125,-8.678167"
     id="path4002"
     inkscape:connector-curvature="0"
     sodipodi:nodetypes="cssssc" />
</svg>
