<?xml version="1.0" encoding="UTF-8" standalone="no"?>
<!-- Created with Inkscape (http://www.inkscape.org/) -->
<svg
   xmlns:dc="http://purl.org/dc/elements/1.1/"
   xmlns:cc="http://creativecommons.org/ns#"
   xmlns:rdf="http://www.w3.org/1999/02/22-rdf-syntax-ns#"
   xmlns:svg="http://www.w3.org/2000/svg"
   xmlns="http://www.w3.org/2000/svg"
   xmlns:xlink="http://www.w3.org/1999/xlink"
   xmlns:sodipodi="http://sodipodi.sourceforge.net/DTD/sodipodi-0.dtd"
   xmlns:inkscape="http://www.inkscape.org/namespaces/inkscape"
   id="svg2"
   sodipodi:version="0.32"
   inkscape:version="0.46"
   width="256"
   height="256"
   version="1.0"
   sodipodi:docname="football.svg"
   inkscape:output_extension="org.inkscape.output.svg.inkscape">
  <metadata
     id="metadata7">
    <rdf:RDF>
      <cc:Work
         rdf:about="">
        <dc:format>image/svg+xml</dc:format>
        <dc:type
           rdf:resource="http://purl.org/dc/dcmitype/StillImage" />
      </cc:Work>
    </rdf:RDF>
  </metadata>
  <defs
     id="defs5">
    <linearGradient
       id="linearGradient3226">
      <stop
         style="stop-color:#ffffff;stop-opacity:0.8761062;"
         offset="0"
         id="stop3228" />
      <stop
         style="stop-color:#ffffff;stop-opacity:0;"
         offset="1"
         id="stop3230" />
    </linearGradient>
    <linearGradient
       id="linearGradient3190">
      <stop
         style="stop-color:#000000;stop-opacity:1;"
         offset="0"
         id="stop3192" />
      <stop
         id="stop3198"
         offset="0.89871383"
         style="stop-color:#000000;stop-opacity:1;" />
      <stop
         style="stop-color:#000000;stop-opacity:0;"
         offset="1"
         id="stop3194" />
    </linearGradient>
    <inkscape:perspective
       sodipodi:type="inkscape:persp3d"
       inkscape:vp_x="0 : 526.18109 : 1"
       inkscape:vp_y="0 : 1000 : 0"
       inkscape:vp_z="744.09448 : 526.18109 : 1"
       inkscape:persp3d-origin="372.04724 : 350.78739 : 1"
       id="perspective9" />
    <radialGradient
       inkscape:collect="always"
       xlink:href="#linearGradient3190"
       id="radialGradient3196"
       cx="-25.337837"
       cy="223.28378"
       fx="-25.337837"
       fy="223.28378"
       r="223.31081"
       gradientTransform="matrix(1,0,0,0.9697428,0,6.755942)"
       gradientUnits="userSpaceOnUse" />
    <radialGradient
       inkscape:collect="always"
       xlink:href="#linearGradient3190"
       id="radialGradient3217"
       gradientUnits="userSpaceOnUse"
       gradientTransform="matrix(1,0,0,0.9697428,0,6.755942)"
       cx="-25.337837"
       cy="223.28378"
       fx="-25.337837"
       fy="223.28378"
       r="223.31081" />
    <radialGradient
       inkscape:collect="always"
       xlink:href="#linearGradient3226"
       id="radialGradient3232"
       cx="-123.21489"
       cy="133.58582"
       fx="-123.21489"
       fy="133.58582"
       r="224.31081"
       gradientTransform="matrix(-3.6050783e-2,1.3167317,-1.6653017,-4.166251e-2,94.80379,304.09421)"
       gradientUnits="userSpaceOnUse" />
  </defs>
  <sodipodi:namedview
     inkscape:window-height="1025"
     inkscape:window-width="1680"
     inkscape:pageshadow="2"
     inkscape:pageopacity="0.0"
     guidetolerance="10.0"
     gridtolerance="10.0"
     objecttolerance="10.0"
     borderopacity="1.0"
     bordercolor="#666666"
     pagecolor="#ffffff"
     id="base"
     showgrid="false"
     inkscape:zoom="2.25"
     inkscape:cx="128"
     inkscape:cy="128"
     inkscape:window-x="-5"
     inkscape:window-y="0"
     inkscape:current-layer="svg2" />
  <g
     id="g3234">
    <path
       sodipodi:type="arc"
       style="fill:url(#radialGradient3217);fill-opacity:1;stroke:none;stroke-width:2;stroke-linecap:round;stroke-linejoin:round;stroke-miterlimit:4;stroke-dasharray:none;stroke-opacity:1"
       id="path3173"
       sodipodi:cx="-25.337837"
       sodipodi:cy="223.28378"
       sodipodi:rx="223.31081"
       sodipodi:ry="216.55405"
       d="M 197.97297,223.28378 A 223.31081,216.55405 0 1 1 -248.64864,223.28378 A 223.31081,216.55405 0 1 1 197.97297,223.28378 z"
       transform="matrix(0.5405343,0,0,0.5654649,143.55088,1.9357787)" />
    <g
       transform="matrix(0.5463198,0,0,0.5463198,7.6712218,5.1886174)"
       id="g3175">
      <path
         sodipodi:type="arc"
         style="opacity:1;fill:#c4c4c4;fill-opacity:1;stroke:none;stroke-width:2;stroke-linecap:round;stroke-linejoin:round;stroke-miterlimit:4;stroke-dasharray:none;stroke-opacity:1"
         id="path2382"
         sodipodi:cx="-25.337837"
         sodipodi:cy="223.28378"
         sodipodi:rx="223.31081"
         sodipodi:ry="216.55405"
         d="M 197.97297,223.28378 A 223.31081,216.55405 0 1 1 -248.64864,223.28378 A 223.31081,216.55405 0 1 1 197.97297,223.28378 z"
         transform="matrix(0.9409985,0,0,0.9843994,236.00503,-3.949066)" />
      <path
         style="fill:#f4f4f4;fill-opacity:1;fill-rule:evenodd;stroke:none;stroke-width:1px;stroke-linecap:butt;stroke-linejoin:miter;stroke-opacity:1"
         d="M 114.86486,30.378378 C 89.369304,45.058043 71.443134,61.419796 62.162164,79.702703 L 64.864864,127 C 89.630594,120.09038 114.174,112.25659 137.16216,119.56757 C 158.63205,99.521926 174.05258,77.207779 208.78378,62.135135 L 200,19.567568 C 179.48388,15.7714 164.62521,6.6505699 114.86486,30.378378 z"
         id="path2384"
         sodipodi:nodetypes="ccccccc" />
      <path
         style="fill:#000000;fill-opacity:1;fill-rule:evenodd;stroke:none;stroke-width:1px;stroke-linecap:butt;stroke-linejoin:miter;stroke-opacity:1"
         d="M 65.540544,127 C 90.315314,121.66285 115.09009,111.24136 139.86487,117.54054 C 143.1312,147.49527 149.23962,176.31316 161.48649,202.67568 C 135.46729,218.12466 112.73219,237.67877 93.918914,262.13514 C 68.711494,243.1783 53.768174,228.32709 37.162164,212.81081 C 40.754904,176.38492 51.154144,149.03436 65.540544,127 z"
         id="path3156"
         sodipodi:nodetypes="cccccc" />
      <path
         style="fill:#f6f6f6;fill-opacity:1;fill-rule:evenodd;stroke:none;stroke-width:1px;stroke-linecap:butt;stroke-linejoin:miter;stroke-opacity:1"
         d="M 60.810814,81.054054 L 64.189184,125.64865 C 45.777564,156.77183 40.760234,184.54643 36.486484,212.13514 C 26.801804,217.67181 17.117114,226.65495 7.4324343,241.18919 C -1.1667557,230.2595 3.1683443,214.15609 2.7027043,199.97298 C 8.3565543,161.06103 20.285404,124.03157 43.918914,90.513514 L 60.810814,81.054054 z"
         id="path3158"
         sodipodi:nodetypes="ccccccc" />
      <path
         style="fill:#c9c9c9;fill-opacity:1;fill-rule:evenodd;stroke:none;stroke-width:1px;stroke-linecap:butt;stroke-linejoin:miter;stroke-opacity:1"
         d="M 36.486484,213.48649 C 54.923694,227.13144 75.069164,245.90118 95.270274,264.83784 C 98.587194,293.65646 106.37766,319.11991 116.89189,342.54054 L 86.486484,373.62163 C 54.585244,366.67506 40.670384,339.74362 24.324324,315.51352 C 14.349804,293.39107 5.0354843,270.79705 7.4324343,239.83784 C 16.305564,229.02518 24.214374,215.80172 36.486484,213.48649 z"
         id="path3154"
         sodipodi:nodetypes="ccccccc" />
      <path
         style="fill:#000000;fill-opacity:1;fill-rule:evenodd;stroke:none;stroke-width:1px;stroke-linecap:butt;stroke-linejoin:miter;stroke-opacity:1"
         d="M 198.64865,18.216216 C 223.5329,15.27783 246.44748,5.773876 276.35135,19.567568 C 301.04435,28.449485 321.47757,42.443133 337.16216,62.135135 C 319.26965,68.704491 306.66995,79.243453 295.94595,91.189189 C 270.21397,77.380055 243.01478,66.138549 210.13514,64.837838 L 198.64865,18.216216 z"
         id="path3157"
         sodipodi:nodetypes="cccccc" />
      <path
         style="fill:#e3e3e3;fill-opacity:1;fill-rule:evenodd;stroke:none;stroke-width:1px;stroke-linecap:butt;stroke-linejoin:miter;stroke-opacity:1"
         d="M 140.54054,117.54054 C 162.09633,96.237696 181.77408,71.178798 210.13514,63.486487 C 241.11834,65.229335 269.91382,75.723114 297.2973,91.864865 C 307.05194,118.42396 315.61933,145.27986 318.24324,173.62163 L 252.7027,231.72973 L 161.48649,202.67568 C 150.61465,176.24223 144.21503,147.57266 140.54054,117.54054 z"
         id="path3159"
         sodipodi:nodetypes="ccccccc" />
      <path
         style="fill:#c0c0c0;fill-opacity:1;fill-rule:evenodd;stroke:none;stroke-width:1px;stroke-linecap:butt;stroke-linejoin:miter;stroke-opacity:1"
         d="M 338.51351,60.108108 C 364.55131,73.18111 384.31701,90.958184 395.94594,114.83784 C 409.12209,144.86347 414.75104,170.17211 413.51351,191.18919 C 401.5134,200.48825 397.19827,212.8613 377.02702,218.8919 C 357.2072,197.15748 337.38738,185.3541 317.56757,172.27027 C 316.56163,144.09308 307.13462,117.6001 297.2973,91.189189 C 307.18476,76.014737 321.42616,66.282703 338.51351,60.108108 z"
         id="path3161"
         sodipodi:nodetypes="ccccccc" />
      <path
         style="fill:#d2d2d2;fill-opacity:1;fill-rule:evenodd;stroke:none;stroke-width:1px;stroke-linecap:butt;stroke-linejoin:miter;stroke-opacity:1"
         d="M 93.243244,261.45946 C 113.92483,239.41029 134.8322,217.66216 160.81081,202.67568 L 250,231.05406 L 270.94595,318.21622 C 252.92007,337.80767 233.67799,356.91264 206.75676,372.94595 C 173.0146,368.2664 142.08351,359.37024 115.54054,343.8919 C 104.66847,317.27433 96.911144,289.87807 93.243244,261.45946 z"
         id="path3163"
         sodipodi:nodetypes="ccccccc" />
      <path
         style="fill:#000000;fill-opacity:1;fill-rule:evenodd;stroke:none;stroke-width:1px;stroke-linecap:butt;stroke-linejoin:miter;stroke-opacity:1"
         d="M 251.35135,231.72973 L 270.94595,315.51352 C 297.52252,319.35181 324.0991,317.7563 350.67567,310.78379 C 367.64855,283.27667 375.29885,251.77416 379.72973,218.8919 L 317.56757,173.62163 L 251.35135,231.72973 z"
         id="path3165"
         sodipodi:nodetypes="cccccc" />
      <path
         style="fill:#9c9c9c;fill-opacity:1;fill-rule:evenodd;stroke:none;stroke-width:1px;stroke-linecap:butt;stroke-linejoin:miter;stroke-opacity:1"
         d="M 270.94595,316.86487 C 296.82663,319.63832 323.25938,320.47958 352.7027,310.78379 L 358.78378,355.37838 C 351.94414,376.92181 327.83834,391.55877 303.37838,406.05406 C 275.22523,418.3681 247.07207,419.35391 218.91892,415.51352 C 214.02233,401.32433 210.54187,387.13514 207.43243,372.94595 C 233.82181,358.42682 253.51321,338.54931 270.94595,316.86487 z"
         id="path3167"
         sodipodi:nodetypes="ccccccc" />
      <path
         style="fill:#7d7d7d;fill-opacity:1;fill-rule:evenodd;stroke:none;stroke-width:1px;stroke-linecap:butt;stroke-linejoin:miter;stroke-opacity:1"
         d="M 381.08108,218.21622 C 376.19663,248.13048 371.38119,278.02941 350.67567,311.45946 L 360.13513,356.05406 C 380.35938,346.95179 396.43864,324.37829 409.45946,291.86487 C 416.70825,268.21622 423.23101,244.56757 421.62162,220.91892 L 413.51351,191.86487 C 403.72674,201.67269 394.34158,211.88213 381.08108,218.21622 z"
         id="path3169"
         sodipodi:nodetypes="ccccccc" />
      <path
         style="fill:#000000;fill-opacity:1;fill-rule:evenodd;stroke:none;stroke-width:1px;stroke-linecap:butt;stroke-linejoin:miter;stroke-opacity:1"
         d="M 117.56756,342.54054 C 146.4573,363.1027 176.75507,369.58444 207.43243,372.27027 L 219.59459,414.83784 C 195.04505,423.67298 170.4955,422.1904 145.94595,414.83784 C 116.17046,411.73697 103.3104,389.3042 85.135134,372.94595 C 96.911934,363.29381 109.24539,353.92 117.56756,342.54054 z"
         id="path3171"
         sodipodi:nodetypes="cccccc" />
    </g>
    <path
       sodipodi:type="arc"
       style="fill:url(#radialGradient3232);fill-opacity:1;stroke:#656565;stroke-width:2;stroke-linecap:round;stroke-linejoin:round;stroke-miterlimit:4;stroke-dasharray:none;stroke-opacity:1"
       id="path3187"
       sodipodi:cx="-25.337837"
       sodipodi:cy="223.28378"
       sodipodi:rx="223.31081"
       sodipodi:ry="216.55405"
       d="M 197.97297,223.28378 A 223.31081,216.55405 0 1 1 -248.64864,223.28378 A 223.31081,216.55405 0 1 1 197.97297,223.28378 z"
       transform="matrix(0.5140861,0,0,0.5377969,135.72268,3.9139231)" />
  </g>
</svg>
