<?xml version="1.0" encoding="UTF-8" standalone="no"?>
<!-- Created with Inkscape (http://www.inkscape.org/) -->

<svg
   xmlns:dc="http://purl.org/dc/elements/1.1/"
   xmlns:cc="http://creativecommons.org/ns#"
   xmlns:rdf="http://www.w3.org/1999/02/22-rdf-syntax-ns#"
   xmlns:svg="http://www.w3.org/2000/svg"
   xmlns="http://www.w3.org/2000/svg"
   xmlns:sodipodi="http://sodipodi.sourceforge.net/DTD/sodipodi-0.dtd"
   xmlns:inkscape="http://www.inkscape.org/namespaces/inkscape"
   inkscape:output_extension="org.inkscape.output.svg.inkscape"
   sodipodi:docname="green_motorbiker.svg"
   inkscape:version="0.48.0 r9654"
   sodipodi:version="0.32"
   id="svg2"
   height="256"
   width="256"
   version="1.0">
  <sodipodi:namedview
     inkscape:window-height="1022"
     inkscape:window-width="1680"
     inkscape:pageshadow="2"
     inkscape:pageopacity="0.0"
     guidetolerance="10.0"
     gridtolerance="10.0"
     objecttolerance="10.0"
     borderopacity="1.0"
     bordercolor="#666666"
     pagecolor="#ffffff"
     id="base"
     width="1488.189px"
     height="1052.3622px"
     inkscape:zoom="3.3789062"
     inkscape:cx="128"
     inkscape:cy="128"
     inkscape:window-x="-2"
     inkscape:window-y="0"
     inkscape:current-layer="layer4"
     showgrid="false"
     fit-margin-top="6"
     fit-margin-left="6"
     fit-margin-right="6"
     fit-margin-bottom="6"
     inkscape:window-maximized="1" />
  <metadata
     id="metadata2358">
    <rdf:RDF>
      <cc:Work
         rdf:about="">
        <dc:format>image/svg+xml</dc:format>
        <dc:type
           rdf:resource="http://purl.org/dc/dcmitype/StillImage" />
        <dc:title />
      </cc:Work>
    </rdf:RDF>
  </metadata>
  <defs
     id="defs4">
    <clipPath
       id="clipPath">
      <path
         style="fill:#a8a8a8;fill-opacity:1;stroke:none"
         d="m 254.93426,112.0576 c -1.00998,0.0308 -1.73525,0.1548 -2.46875,0.34375 -0.3795,0.0978 -0.87235,0.1964 -1.09375,0.25 -0.6137,0.14863 -1.6139,0.53463 -2.125,0.8125 -0.2522,0.13709 -0.5131,0.25 -0.5625,0.25 -0.1597,0 -1.82415,1.0641 -2.59375,1.65625 -0.7154,0.55049 -2.52925,2.38838 -2.53125,2.5625 -6e-4,0.0459 -0.16985,0.25795 -0.34375,0.46875 -0.3549,0.4299 -0.39645,0.49341 -1.09375,1.71875 -0.6198,1.08912 -1.3839,3.14314 -1.625,4.375 -0.1004,0.51287 -0.21925,1.2107 -0.28125,1.53125 -0.0622,0.32057 -0.0906,1.27782 -0.0625,2.15625 0.0281,0.87841 -2.64838,4.04164 -2.69488,4.06984 -10.09749,0.44833 -15.35432,-2.09698 -24.83642,-1.78859 1.0115,1.38198 2.009,2.30494 2.9375,3.6875 l -20.6875,0.59375 6.09375,5.15625 c 5.4836,-0.0704 11.5199,-0.1512 14.75,-0.25 1.3154,-0.0402 2.4033,-0.0252 2.4375,0.0313 -1.3452,1.12171 -2.79865,2.04628 -4.21875,3.0625 -10.69649,7.6151 -21.55285,14.16965 -32.375,22.15625 -0.0656,0.0818 -0.24215,1.00546 -0.40625,2.03125 -0.84341,5.64562 -1.95125,10.74012 -2.75,16.21875 0.0154,0.0753 -0.0103,0.1549 -0.0625,0.1875 -0.052,0.0326 -3.6684,0.11535 -8.0625,0.15625 -15.2054,0.14151 -14.9577,0.12219 -18.0625,0.5625 -2.3399,0.33187 -7.1359,1.53657 -8.5625,2.15625 -0.254,0.11034 -0.49955,0.21968 -0.53125,0.21875 -0.0316,-9.5e-4 -0.3165,0.11168 -0.625,0.25 -0.3086,0.13831 -0.60695,0.25 -0.65625,0.25 -0.0996,0 -0.203,0.0444 -2.8125,1.34375 -1.0122,0.50407 -2.3055,1.20058 -2.875,1.5625 -4.59154,2.92999 -10.31136,6.58673 -16.4375,7.0625 0.0146,3.28623 -0.39635,5.20314 0,6.5625 1.64632,1.85936 1.5625,2.15625 1.5625,2.15625 -2.2,4 -3.54035,6.99681 -3.59375,7.125 -0.2149,0.51593 -0.9312,2.96722 -1.1875,4.0625 -0.6073,2.59425 -0.805,3.65169 -0.9375,5.1875 -0.0359,0.41672 -0.094,0.8413 -0.125,0.9375 -0.0311,0.0961 -0.0647,0.73303 -0.0937,1.40625 -0.0291,0.67322 -0.0957,1.3809 -0.125,1.5625 -0.0294,0.1815 0.0261,0.43415 0.0937,0.5625 0.1083,0.2055 0.1436,0.20856 0.3125,0.0625 0.1057,-0.0914 0.58765,-0.35563 1.09375,-0.59375 2.44099,-1.0598 5.55746,-0.12865 7.0625,-0.125 0.0667,5.6 0.70797,7.87698 1.5,10.15625 -1.84406,0.27197 -3.032,-1.29419 -5.1875,-1.84375 0.73241,1.6124 1.5512,4.09819 -0.375,6.375 1.7627,2.32482 -0.38115,5.80865 -0.34375,6.1875 2.7603,-1.01681 4.8055,-2.34137 8.8125,-2.125 1.338,2.02744 2.7564,3.81856 4.3125,5.65625 0.7304,0.88491 3.09945,2.81166 3.96875,3.5625 2.4487,2.11519 6.0848,4.37181 9.0625,5.59375 0.4113,0.16875 0.8736,0.34715 1,0.40625 0.344,0.16172 2.69085,0.93866 3.21875,1.0625 3.3576,0.7875 5.648,1.12625 7.875,1.15625 0.7255,0.0103 1.32235,0.0409 1.34375,0.0625 0.0524,0.0532 1.50715,-0.0547 3.65625,-0.25 2.2114,-0.2009 6.59405,-1.29547 8.40625,-2.09375 0.1897,-0.0836 0.44515,-0.17285 0.59375,-0.21875 0.1486,-0.0455 0.94925,-0.435 1.78125,-0.84375 2.4989,-1.22765 4.7642,-2.61866 6.25,-3.875 0.1947,-0.16453 0.5642,-0.46406 0.8125,-0.65625 0.2482,-0.19228 0.71485,-0.58222 1.03125,-0.875 1.3744,-1.27265 5.83388,-4.7385 8.65625,-8.90625 12.1948,-0.37115 18.97245,-0.25839 29.75,0.78125 1.9147,-0.001 5.1342,4.29987 7.125,3.3125 1.9829,-0.98344 26.86065,-3.45346 28.34375,-5.15625 0.87977,-1.01016 1.68753,-2.28783 2.375,-3.6875 0,0 2.54111,-3.44054 1.59375,-10.1875 -0.94735,-6.74697 -5.50677,-10.81572 -6.625,-11.65625 -0.5562,-0.41812 -1,-0.81185 -1,-0.84375 0,-0.0319 0.11745,-0.20506 0.28125,-0.40625 0.1639,-0.20119 0.6707,-0.88416 1.125,-1.5 0.8031,-1.08891 1.32655,-1.72143 2.40625,-3.09375 0.4988,-0.6338 1.62275,-2.13939 2.96875,-3.9375 0.3407,-0.4551 0.79975,-1.05524 1.03125,-1.34375 0.2317,-0.28851 0.5167,-0.65221 0.625,-0.8125 0.1082,-0.16029 0.44945,-0.64021 0.78125,-1.0625 0.5708,-0.72664 2.90845,-3.72638 3.78125,-4.875 0.8081,-1.06355 3.00765,-3.93713 3.96875,-5.1875 0.5421,-0.70525 1.16905,-1.53389 1.40625,-1.84375 0.5949,-0.7769 0.71295,-0.92333 1.28125,-1.625 0.4427,-0.54638 1.3772,-1.81771 3.125,-4.1875 0.4356,-0.59073 0.66405,-0.79322 1.09375,-0.96875 0.3033,-0.12385 1.0373,-0.4419 1.625,-0.71875 0.5876,-0.27686 1.0962,-0.5 1.125,-0.5 0.0464,0 1.2971,-0.56138 3,-1.34375 1.9243,-0.88412 4.07845,-1.8125 4.21875,-1.8125 l 1.59375,5.40625 c -1.5255,0.60388 -2.7797,1.36847 -3.8125,1.90625 -1.9885,1.03554 -4.94005,2.87244 -5.65625,3.53125 -0.1306,0.12012 -0.2662,0.21875 -0.3125,0.21875 -0.22931,0 -3.538,2.9736 -4.875,4.375 -14.43325,18.37966 -12.00098,31.8313 -7.53125,46.90625 1.0473,2.06493 3.1761,5.57965 3.375,5.59375 0.0687,0.005 2.19575,-1.30478 3.28125,-2.03125 0.3229,-0.216 0.6529,-0.40625 0.75,-0.40625 0.097,0 0.288,0.17597 0.4375,0.375 0.1495,0.19903 0.3735,0.47678 0.5,0.625 0.1265,0.14812 0.43475,0.50619 0.65625,0.78125 1.868,2.31966 5.07945,5.31328 7.03125,6.5625 0.1002,0.064 0.53355,0.36085 0.96875,0.65625 0.4354,0.29541 0.9352,0.61216 1.125,0.71875 0.1897,0.10669 0.65175,0.37315 1.03125,0.59375 1.0866,0.63131 3.50395,1.8125 3.71875,1.8125 0.0431,3.7e-4 0.23885,0.0682 0.40625,0.15625 0.6151,0.32522 5.41975,1.78625 6.59375,2 0.1899,0.0347 0.68235,0.0922 1.09375,0.125 0.4112,0.0329 1.027,0.0922 1.375,0.125 1.9664,0.18596 3.6539,0.25995 4.875,0.21875 1.2281,-0.0413 4.13665,-0.31931 4.90625,-0.46875 1.1287,-0.21947 2.07645,-0.4109 2.46875,-0.5 0.8137,-0.18535 3.60835,-1.06553 3.78125,-1.1875 0.0634,-0.0446 0.4022,-0.16707 0.75,-0.28125 0.9453,-0.3105 3.04225,-1.33056 4.78125,-2.3125 0.3165,-0.1786 0.67055,-0.36685 0.78125,-0.40625 0.1107,-0.0389 0.1875,-0.10375 0.1875,-0.15625 0,-0.0523 0.1125,-0.11215 0.25,-0.15625 0.1375,-0.0443 0.3069,-0.1303 0.375,-0.1875 0.1196,-0.10069 1.7026,-1.23081 2.0625,-1.46875 1.0584,-0.69928 3.65165,-3.04425 5.15625,-4.6875 1.4643,-1.59891 3.4449,-4.29987 4.4375,-6.03125 0.7564,-1.31915 0.86805,-1.51181 1.03125,-1.875 0.0939,-0.20888 0.3383,-0.75432 0.5625,-1.21875 1.5822,-3.276 2.68665,-7.00253 3.21875,-10.9375 0.2421,-1.79007 0.29745,-2.83837 0.28125,-5.0625 -0.0173,-2.35903 -0.11865,-3.52365 -0.46875,-5.78125 -0.3604,-2.3234 -1.51075,-6.3743 -2.21875,-7.8125 -0.1023,-0.2076 -0.1875,-0.439 -0.1875,-0.5 0,-0.19851 -1.54115,-3.27516 -2.21875,-4.40625 l -0.6875,-1.09375 0.40625,-0.3125 c 0.3869,-0.3355 1.86115,-1.45439 2.84375,-2.15625 0.8605,-0.6147 0.869,-0.67603 0.625,-1.0625 -1.2757,-2.02109 -4.67315,-5.86986 -6.78125,-7.71875 -1.1573,-1.01501 -4.95005,-3.84375 -5.15625,-3.84375 -0.0263,0 -0.5317,-0.29466 -1.125,-0.65625 -2.2605,-1.37769 -6.1281,-3.08 -8.5625,-3.78125 -5.1011,-1.46947 -10.5435,-2.05641 -15.3125,-1.59375 -1.0988,0.10655 -2.4677,0.4077 -2.5,0.375 l -1.56245,-5.96875 c 0.0155,-0.90314 0.0762,-1.70135 0.125,-1.78125 0.0909,-0.14881 1.84055,-0.1155 4.28125,0.0937 1.2927,0.11087 1.2996,0.10019 1.25,-1.1875 -0.0202,-0.5252 -0.0827,-5.30366 -0.125,-10.625 -0.0433,-5.45411 -0.0978,-9.71985 -0.15625,-9.78125 -0.0642,-0.0675 -1.0732,-0.0542 -2.625,0.0313 -1.3771,0.0758 -3.2221,0.17825 -4.125,0.21875 -0.9029,0.0405 -1.68485,0.10035 -1.71875,0.15625 -0.0341,0.0558 -0.43955,0.0937 -0.90625,0.0937 -1.5005,0 -3.115,0.46779 -4.625,1.3125 -0.88,0.49229 -2.3798,1.8701 -3.25,3 -0.4593,0.59619 -1.4281,2.4599 -1.625,3.125 -0.2467,0.83281 -0.4335,2.40686 -0.4375,3.5 -0.004,1.0704 -0.0238,1.08 -0.28125,0.96875 -0.4591,-0.19829 -1.7521,-0.30495 -2.625,-0.21875 -0.9119,0.09 -2.2815,0.4948 -2.75,0.8125 -1.0739,0.72802 -1.43525,0.89685 -1.65625,0.84375 -8.88004,-1.56039 -17.68062,-3.21928 -26.40625,-4.75 -2.9195,-0.51247 -2.875,-0.52238 -2.875,-0.65625 4.02121,-5.72448 8.81771,-11.58355 13.34375,-17.65625 0.095,-0.14226 0.24885,-0.33619 0.34375,-0.4375 0.1885,-0.20117 0.3154,-0.3623 1.6875,-2.1875 1.5144,-3.31819 3.56575,-2.28609 6.09375,-3.21875 0.3932,-0.15483 0.872,-0.30515 1.0625,-0.34375 1.0235,-0.35112 0.42565,-1.87353 0.59375,-2.75 -0.0131,-2.38244 0.0208,-2.17708 0.1875,-3.34375 1.25,-0.16667 1.988,-0.19975 2.1875,-0.34375 0.1996,-0.14401 0.40615,-0.25 0.46875,-0.25 0.3048,0 0.2752,-0.40013 -0.375,-4.65625 -0.0931,-0.60908 -0.1865,-1.33729 -0.1875,-1.59375 l 0,-0.46875 0.78125,-0.0313 c 0.425,-0.0209 7.63074,-0.65355 7.68194,-0.68565 0.0963,-0.0603 1.26011,-0.23099 0.96506,-1.90625 -0.3056,-1.73505 -9.07105,-3.17521 -9.86575,-4.3456 -0.196,-0.28873 -0.34375,-0.55625 -0.34375,-0.59375 0,-0.18516 -1.1488,-1.62642 -1.9375,-2.4375 -2.7085,-2.78526 -6.63595,-4.49565 -10.40625,-4.53125 -0.40553,-0.004 -0.78834,-0.0103 -1.125,0 z m -27.40625,66.875 c 0.71311,-0.007 1.68385,-0.0146 2.75,0 2.1323,0.0292 6.4925,0.0808 9.6875,0.125 3.19489,0.0441 6.25925,0.0932 6.78125,0.0937 0.52191,7e-4 0.9375,0.0466 0.9375,0.0937 0,0.1067 -1.6073,1.40723 -4.375,3.53125 -1.0782,0.8275 -2.8777,2.22176 -4.1875,3.28125 -0.3699,0.29928 -0.84451,0.66253 -1.0625,0.8125 -0.21811,0.14994 -0.45495,0.28725 -0.53125,0.28125 -0.0762,-0.006 -0.5255,-0.30796 -1,-0.65625 -0.47459,-0.34829 -1.05985,-0.75191 -1.28125,-0.90625 -0.22139,-0.15433 -0.70945,-0.50447 -1.09375,-0.78125 -0.72449,-0.52191 -3.38155,-2.41886 -5.53125,-3.9375 -1.4847,-1.04878 -2.3281,-1.77822 -2.25,-1.90625 0.0158,-0.0259 0.44314,-0.0238 1.15625,-0.0313 z m -42.5625,17.78125 22.5,17.46875 -12.75,-1.1875 c -0.67674,-8.64749 -6.27122,-11.13632 -9.75,-16.28125 z m 115.125,4.78125 c 0.45715,-0.0303 1.06025,-0.0101 1.71875,0 1.31701,0.0202 2.8676,0.14146 3.90625,0.3125 1.4786,0.24349 3.83935,0.92502 5.21875,1.5 1.1494,0.47918 3.19145,1.5833 3.78125,2.0625 l 0.34375,0.28125 -0.28125,0.40625 c -0.14939,0.21818 -0.95419,1.26659 -1.8125,2.34375 -0.8582,1.07716 -1.6552,2.07275 -1.75,2.21875 -0.2328,0.3582 -4.0148,5.24113 -4.3125,5.5625 -0.0891,0.0962 -0.36615,0.41415 -0.59375,0.71875 -0.2277,0.30459 -0.42975,0.5715 -0.46875,0.5625 -0.0389,-0.007 -0.4939,-0.16281 -1,-0.34375 -0.5062,-0.18094 -1.16935,-0.36125 -1.46875,-0.40625 -0.2995,-0.045 -0.5727,-0.14655 -0.625,-0.21875 -0.0737,-0.10144 -0.5581,-1.90788 -0.6875,-2.59375 -0.0617,-0.32709 -1.88985,-7.87476 -2.03125,-8.375 -0.0905,-0.32057 -0.3582,-1.2747 -0.5625,-2.125 -0.2951,-1.22815 -0.33175,-1.60417 -0.21875,-1.71875 0.0754,-0.0764 0.3866,-0.15721 0.84375,-0.1875 z m -81.75,0.59375 c 0,0 7.91307,4.00458 8.125,6.09375 0.21193,2.08917 -5.625,4.75 -5.625,4.75 1.80746,-5.19644 0.21119,-7.45476 -2.5,-10.84375 z m 74.09375,1.34375 c 0.2096,0 0.32011,0.52192 1.1875,4 0.55179,2.21182 1.084,4.33405 1.1875,4.71875 0.30449,1.13097 1.3857,5.464 1.4375,5.78125 0.0382,0.23419 -0.1143,0.43797 -0.75,1.09375 -1.4548,1.50057 -2.1289,2.61087 -2.625,4.34375 -0.4698,1.64156 -0.399,3.70535 0.1875,5.5 0.1303,0.39919 0.224,0.7525 0.1875,0.8125 -0.0365,0.0599 -0.41739,0.30991 -0.8125,0.53125 -0.39529,0.22106 -0.90305,0.51047 -1.15625,0.65625 -0.2529,0.14578 -0.86925,0.47803 -1.34375,0.75 -0.47451,0.27197 -1.3982,0.80472 -2.0625,1.1875 -0.6643,0.38268 -2.35811,1.36707 -3.75,2.15625 -1.3917,0.7891 -2.68476,1.54847 -2.90625,1.6875 -0.84401,0.52987 -0.8579,0.51625 -1.4375,-0.78125 -0.9555,-2.13891 -1.52555,-4.19915 -1.90625,-6.75 -0.2138,-1.43259 -0.2375,-2.00291 -0.1875,-3.78125 0.0325,-1.15407 0.0634,-2.21559 0.0937,-2.34375 0.0308,-0.12834 0.11095,-0.52232 0.15625,-0.875 0.2054,-1.60125 0.8742,-3.96556 1.625,-5.75 1.49081,-3.54253 4.58225,-7.649 7.40625,-9.78125 0.91591,-0.6915 2.12925,-1.49764 2.40625,-1.625 0.0948,-0.0436 0.341,-0.20718 0.5625,-0.34375 0.84299,-0.51992 2.13255,-1.12665 2.40625,-1.15625 0.0352,-0.004 0.0641,-0.0313 0.0937,-0.0313 z m -134.40625,0.125 c 1.7849,-0.0347 3.49415,0.0881 4.90625,0.375 1.7424,0.354 4.125,1.08107 4.125,1.25 0,0.0794 -0.2538,0.68165 -0.5625,1.34375 -0.3087,0.66211 -0.8263,1.73387 -1.125,2.375 -0.2986,0.64112 -0.79065,1.6714 -1.09375,2.3125 -0.3031,0.6411 -0.63965,1.42952 -0.78125,1.75 -0.751,1.69931 -1.06525,2.28125 -1.15625,2.28125 -0.0552,0 -0.60015,-0.088 -1.21875,-0.21875 -4.3995,-0.93103 -8.9658,0.59325 -12.0625,4.03125 -0.4687,0.52041 -1.4375,1.93953 -1.4375,2.09375 0,0.0312 -0.1524,0.24294 -0.3125,0.5 -0.8416,1.35112 -1.5044,4.45294 -1.375,6.375 0.1187,1.76278 0.40145,3.25459 0.84375,4.28125 0.1518,0.35287 0.2007,0.5772 0.125,0.625 -0.065,0.0408 -0.63755,0.13345 -1.28125,0.21875 -0.6438,0.0852 -1.7416,0.2162 -2.4375,0.3125 -0.696,0.0965 -1.58935,0.2106 -1.96875,0.25 -0.3796,0.0391 -1.48805,0.18529 -2.46875,0.3125 -3.0189,0.39197 -2.83605,0.37625 -2.96875,0.125 -0.1559,-0.29541 -0.5515,-2.18231 -0.75,-3.5625 -0.1712,-1.1865 -0.1687,-4.62307 0,-5.96875 0.7645,-6.09591 3.66015,-11.55475 8.21875,-15.4375 0.7591,-0.64656 2.38905,-1.83385 3.09375,-2.25 1.1994,-0.70808 3.6005,-1.79957 4.5625,-2.09375 0.5694,-0.17411 1.1852,-0.3742 1.375,-0.4375 0.5909,-0.19706 3.1386,-0.6854 3.9375,-0.75 0.60275,-0.0487 1.21753,-0.0822 1.8125,-0.0937 z m 13.21875,3.75 c 0.5118,0.002 3.6834,2.6326 5,4.125 1.6809,1.90507 3.0208,3.8304 2.75,4 -0.0756,0.0476 -2.69,0.1119 -5.8125,0.125 -4.8083,0.0199 -5.697,-0.0164 -5.75,-0.15625 -0.0344,-0.0908 0.1363,-0.56712 0.375,-1.0625 0.2389,-0.49547 0.69105,-1.5128 1.03125,-2.25 0.3401,-0.7373 0.69225,-1.4952 0.78125,-1.6875 0.8824,-1.90648 1.5197,-3.09411 1.625,-3.09375 z m 146,0.15625 c 0.0542,-0.017 0.0983,0.012 0.15625,0.0313 0.5666,0.1877 2.96835,2.8793 3.96875,4.4375 0.8818,1.37327 1.6751,2.78303 2,3.625 0.1703,0.441 0.36985,0.96747 0.46875,1.1875 0.369,0.82106 1.0238,3.24735 1.25,4.625 0.275,1.67588 0.3165,2.46972 0.1875,5.125 -0.1058,2.17847 -0.2155,3.09522 -0.4375,4.09375 -0.5679,2.55497 -1.30695,4.46241 -2.71875,7.03125 -0.8944,1.62741 -3.2319,4.575 -4.625,5.8125 -0.3108,0.27609 -0.6859,0.607 -0.8125,0.71875 -2.8153,2.48935 -7.24385,4.58722 -11.15625,5.28125 -0.9799,0.17381 -4.5875,0.4631 -4.6875,0.375 -0.0104,-0.009 -0.61615,-0.0582 -1.34375,-0.0937 -0.7275,-0.0356 -1.65175,-0.1172 -2.03125,-0.1875 -5.0911,-0.94106 -9.38515,-3.2205 -12.96875,-6.84375 -1.3134,-1.32778 -2.909,-3.37769 -2.75,-3.53125 0.1116,-0.10781 2.65065,-1.56038 4.28125,-2.4375 0.5379,-0.28922 1.4615,-0.8045 2.0625,-1.15625 0.6011,-0.35175 1.43265,-0.83994 1.84375,-1.0625 1.4227,-0.77006 2.26665,-1.20906 3.03125,-1.65625 0.4222,-0.24703 0.79655,-0.46875 0.84375,-0.46875 0.0472,0 0.18145,-0.0682 0.28125,-0.15625 0.425,-0.37688 0.64055,-0.33171 1.28125,0.25 3.679,3.34116 9.19335,3.10457 12.53125,-0.53125 0.9574,-1.04297 1.27185,-1.50803 1.84375,-2.6875 0.5594,-1.15453 0.8238,-3.44385 0.5625,-4.90625 -0.0744,-0.41672 -0.14045,-0.8584 -0.15625,-0.96875 -0.0157,-0.11034 -0.081,-0.23625 -0.125,-0.28125 -0.044,-0.0446 -0.0625,-0.13535 -0.0625,-0.21875 0,-0.31331 -0.87255,-1.97293 -1.40625,-2.6875 l -0.53125,-0.75 0.75,-1 c 2.4218,-3.21262 3.58845,-4.75526 5.21875,-6.875 0.7276,-0.9459 1.5895,-2.07016 1.9375,-2.53125 0.8892,-1.17808 1.14975,-1.51141 1.3125,-1.5625 z m -146.0625,22.65625 c 0.05,-0.0521 0.7164,0.16922 1.5,0.46875 1.2947,0.49463 2.77895,1.017 4.15625,1.5 0.2848,0.0998 0.59215,0.22685 0.71875,0.28125 0.1266,0.0544 0.71185,0.26091 1.28125,0.46875 2.6596,0.97106 2.8125,1.07059 2.8125,1.375 0,0.15638 -0.034,0.35738 -0.0937,0.46875 -0.0599,0.11129 -0.2051,0.4949 -0.3125,0.84375 -0.1073,0.34865 -0.3547,1.00665 -0.5625,1.46875 -0.2077,0.462 -0.41665,0.87535 -0.46875,0.90625 -0.052,0.0307 -0.2786,-0.0103 -0.5,-0.0937 -1.9688,-0.74043 -6.6922,-2.44587 -8.6875,-3.125 -0.5695,-0.19387 -1.1153,-0.39655 -1.1875,-0.46875 -0.0984,-0.0978 0.005,-0.3715 0.34375,-1.09375 0.2489,-0.53119 0.559,-1.41091 0.6875,-1.9375 0.1286,-0.52679 0.2623,-1.01 0.3125,-1.0625 z m -26.9375,16.4375 c 0.0515,-0.0222 0.19595,-0.0276 0.5,0 0.5117,0.0467 1.88155,0.24985 3.21875,0.46875 0.1581,0.026 0.6832,0.0859 1.1875,0.15625 0.5043,0.0701 0.93535,0.1678 0.96875,0.1875 0.0335,0.0199 0.40165,0.0506 0.78125,0.0937 0.3795,0.043 1.0263,0.1266 1.4375,0.1875 0.4112,0.061 1.335,0.215 2.0625,0.3125 0.7276,0.0974 2.39015,0.3356 3.71875,0.53125 1.3286,0.19557 2.7453,0.385 3.125,0.4375 0.3795,0.0521 0.81055,0.11685 0.96875,0.15625 0.1581,0.0397 0.5278,0.0969 0.8125,0.125 0.7514,0.0753 3.9468,0.58 4,0.625 0.1036,0.0884 -0.25835,0.39538 -0.59375,0.5 -0.1988,0.0619 -0.683,0.20979 -1.0625,0.34375 -1.0368,0.36582 -3.3556,0.7934 -4.6875,0.875 -0.6497,0.0394 -1.18715,0.0824 -1.21875,0.0937 -0.0317,0.0112 -0.86315,-0.0203 -1.84375,-0.0625 -1.6298,-0.0702 -3.34265,-0.29485 -4.21875,-0.5625 -0.1898,-0.058 -0.7439,-0.20772 -1.25,-0.34375 -0.9667,-0.26006 -2.21095,-0.68097 -2.40625,-0.8125 -0.0633,-0.0426 -0.3711,-0.16444 -0.6875,-0.28125 -0.3163,-0.11672 -0.7169,-0.30088 -0.875,-0.40625 -0.1581,-0.10547 -0.58915,-0.34497 -0.96875,-0.53125 -0.7899,-0.38756 -2.5667,-1.56106 -2.875,-1.90625 -0.1025,-0.11469 -0.14534,-0.16527 -0.0937,-0.1875 z"
         id="path3766"
         inkscape:connector-curvature="0"
         sodipodi:nodetypes="ccccsccccccsccccccccccccsccccsccccccccccccccccccccccccccccccscccccsccscsccccccccscccccscccccsccccsscsccccccccccccccccscccccccccccscccccsssscccccccccscsscccccccccccccccccscccccccscccccccscccccsccccccsccssccccccccccccccccccsccscscccccccsccccsccccccccscssccscsccscccccccccccsccccccccccccccccccccccsscccccccccccscccccccscccccccccsccccccccccccccccccccccccccccccccccccccccccccc" />
    </clipPath>
    <filter
       y="-0.5"
       x="-0.5"
       width="2.0"
       height="2.0"
       id="filter">
      <feGaussianBlur
         id="feGaussianBlur3812"
         stdDeviation="3.0" />
    </filter>
    <filter
       inkscape:collect="always"
       id="filter3857">
      <feGaussianBlur
         inkscape:collect="always"
         stdDeviation="1.9578405"
         id="feGaussianBlur3859" />
    </filter>
    <filter
       inkscape:collect="always"
       id="filter3777">
      <feGaussianBlur
         inkscape:collect="always"
         stdDeviation="2.7902238"
         id="feGaussianBlur3779" />
    </filter>
  </defs>
  <g
     transform="translate(-103.274,-52.28)"
     style="display:inline"
     inkscape:label="neues_motorrad"
     id="layer3"
     inkscape:groupmode="layer" />
  <g
     transform="translate(-103.274,-52.28)"
     style="display:inline"
     inkscape:label="altes_motorrad"
     id="layer4"
     inkscape:groupmode="layer">
    <path
       sodipodi:nodetypes="ccccsccccccsccccccccccccsccccsccccccccccccccccccccccccccccccscccccsccscsccccccccscccccscccccsccccsscsccccccccccccccccscccccccccccscccccsssscccccccccscsscccccccccccccccccscccccccscccccccscccccsccccccsccssccccccccccccccccccsccscscccccccsccccsccccccccscssccscsccscccccccccccsccccccccccccccccccccccsscccccccccccscccccccscccccccccsccccccccccccccccccccccccccccccccccccccccccccc"
       inkscape:connector-curvature="0"
       id="path2995"
       d="m 250.199,116.49691 c -1.00998,0.0308 -1.73525,0.1548 -2.46875,0.34375 -0.3795,0.0978 -0.87235,0.1964 -1.09375,0.25 -0.6137,0.14863 -1.6139,0.53463 -2.125,0.8125 -0.2522,0.13709 -0.5131,0.25 -0.5625,0.25 -0.1597,0 -1.82415,1.0641 -2.59375,1.65625 -0.7154,0.55049 -2.52925,2.38838 -2.53125,2.5625 -6e-4,0.0459 -0.16985,0.25795 -0.34375,0.46875 -0.3549,0.4299 -0.39645,0.49341 -1.09375,1.71875 -0.6198,1.08912 -1.3839,3.14314 -1.625,4.375 -0.1004,0.51287 -0.21925,1.2107 -0.28125,1.53125 -0.0622,0.32057 -0.0906,1.27782 -0.0625,2.15625 0.0281,0.87841 -2.64838,4.04164 -2.69488,4.06984 -10.09749,0.44833 -15.35432,-2.09698 -24.83642,-1.78859 1.0115,1.38198 2.009,2.30494 2.9375,3.6875 l -20.6875,0.59375 6.09375,5.15625 c 5.4836,-0.0704 11.5199,-0.1512 14.75,-0.25 1.3154,-0.0402 2.4033,-0.0252 2.4375,0.0313 -1.3452,1.12171 -2.79865,2.04628 -4.21875,3.0625 -10.69649,7.6151 -21.55285,14.16965 -32.375,22.15625 -0.0656,0.0818 -0.24215,1.00546 -0.40625,2.03125 -0.84341,5.64562 -1.95125,10.74012 -2.75,16.21875 0.0154,0.0753 -0.0103,0.1549 -0.0625,0.1875 -0.052,0.0326 -3.6684,0.11535 -8.0625,0.15625 -15.2054,0.14151 -14.9577,0.12219 -18.0625,0.5625 -2.3399,0.33187 -7.1359,1.53657 -8.5625,2.15625 -0.254,0.11034 -0.49955,0.21968 -0.53125,0.21875 -0.0316,-9.5e-4 -0.3165,0.11168 -0.625,0.25 -0.3086,0.13831 -0.60695,0.25 -0.65625,0.25 -0.0996,0 -0.203,0.0444 -2.8125,1.34375 -1.0122,0.50407 -2.3055,1.20058 -2.875,1.5625 -4.59154,2.92999 -10.31136,6.58673 -16.4375,7.0625 0.0146,3.28623 -0.39635,5.20314 0,6.5625 1.64632,1.85936 1.5625,2.15625 1.5625,2.15625 -2.2,4 -3.54035,6.99681 -3.59375,7.125 -0.2149,0.51593 -0.9312,2.96722 -1.1875,4.0625 -0.6073,2.59425 -0.805,3.65169 -0.9375,5.1875 -0.0359,0.41672 -0.094,0.8413 -0.125,0.9375 -0.0311,0.0961 -0.0647,0.73303 -0.0937,1.40625 -0.0291,0.67322 -0.0957,1.3809 -0.125,1.5625 -0.0294,0.1815 0.0261,0.43415 0.0937,0.5625 0.1083,0.2055 0.1436,0.20856 0.3125,0.0625 0.1057,-0.0914 0.58765,-0.35563 1.09375,-0.59375 2.44099,-1.0598 5.55746,-0.12865 7.0625,-0.125 0.0667,5.6 0.70797,7.87698 1.5,10.15625 -1.84406,0.27197 -3.032,-1.29419 -5.1875,-1.84375 0.73241,1.6124 1.5512,4.09819 -0.375,6.375 1.7627,2.32482 -0.38115,5.80865 -0.34375,6.1875 2.7603,-1.01681 4.8055,-2.34137 8.8125,-2.125 1.338,2.02744 2.7564,3.81856 4.3125,5.65625 0.7304,0.88491 3.09945,2.81166 3.96875,3.5625 2.4487,2.11519 6.0848,4.37181 9.0625,5.59375 0.4113,0.16875 0.8736,0.34715 1,0.40625 0.344,0.16172 2.69085,0.93866 3.21875,1.0625 3.3576,0.7875 5.648,1.12625 7.875,1.15625 0.7255,0.0103 1.32235,0.0409 1.34375,0.0625 0.0524,0.0532 1.50715,-0.0547 3.65625,-0.25 2.2114,-0.2009 6.59405,-1.29547 8.40625,-2.09375 0.1897,-0.0836 0.44515,-0.17285 0.59375,-0.21875 0.1486,-0.0455 0.94925,-0.435 1.78125,-0.84375 2.4989,-1.22765 4.7642,-2.61866 6.25,-3.875 0.1947,-0.16453 0.5642,-0.46406 0.8125,-0.65625 0.2482,-0.19228 0.71485,-0.58222 1.03125,-0.875 1.3744,-1.27265 5.83388,-4.7385 8.65625,-8.90625 12.1948,-0.37115 18.97245,-0.25839 29.75,0.78125 1.9147,-0.001 5.1342,4.29987 7.125,3.3125 1.9829,-0.98344 26.86065,-3.45346 28.34375,-5.15625 0.87977,-1.01016 1.68753,-2.28783 2.375,-3.6875 0,0 2.54111,-3.44054 1.59375,-10.1875 -0.94735,-6.74697 -5.50677,-10.81572 -6.625,-11.65625 -0.5562,-0.41812 -1,-0.81185 -1,-0.84375 0,-0.0319 0.11745,-0.20506 0.28125,-0.40625 0.1639,-0.20119 0.6707,-0.88416 1.125,-1.5 0.8031,-1.08891 1.32655,-1.72143 2.40625,-3.09375 0.4988,-0.6338 1.62275,-2.13939 2.96875,-3.9375 0.3407,-0.4551 0.79975,-1.05524 1.03125,-1.34375 0.2317,-0.28851 0.5167,-0.65221 0.625,-0.8125 0.1082,-0.16029 0.44945,-0.64021 0.78125,-1.0625 0.5708,-0.72664 2.90845,-3.72638 3.78125,-4.875 0.8081,-1.06355 3.00765,-3.93713 3.96875,-5.1875 0.5421,-0.70525 1.16905,-1.53389 1.40625,-1.84375 0.5949,-0.7769 0.71295,-0.92333 1.28125,-1.625 0.4427,-0.54638 1.3772,-1.81771 3.125,-4.1875 0.4356,-0.59073 0.66405,-0.79322 1.09375,-0.96875 0.3033,-0.12385 1.0373,-0.4419 1.625,-0.71875 0.5876,-0.27686 1.0962,-0.5 1.125,-0.5 0.0464,0 1.2971,-0.56138 3,-1.34375 1.9243,-0.88412 4.07845,-1.8125 4.21875,-1.8125 l 1.59375,5.40625 c -1.5255,0.60388 -2.7797,1.36847 -3.8125,1.90625 -1.9885,1.03554 -4.94005,2.87244 -5.65625,3.53125 -0.1306,0.12012 -0.2662,0.21875 -0.3125,0.21875 -0.22931,0 -3.538,2.9736 -4.875,4.375 -14.43325,18.37966 -12.00098,31.8313 -7.53125,46.90625 1.0473,2.06493 3.1761,5.57965 3.375,5.59375 0.0687,0.005 2.19575,-1.30478 3.28125,-2.03125 0.3229,-0.216 0.6529,-0.40625 0.75,-0.40625 0.097,0 0.288,0.17597 0.4375,0.375 0.1495,0.19903 0.3735,0.47678 0.5,0.625 0.1265,0.14812 0.43475,0.50619 0.65625,0.78125 1.868,2.31966 5.07945,5.31328 7.03125,6.5625 0.1002,0.064 0.53355,0.36085 0.96875,0.65625 0.4354,0.29541 0.9352,0.61216 1.125,0.71875 0.1897,0.10669 0.65175,0.37315 1.03125,0.59375 1.0866,0.63131 3.50395,1.8125 3.71875,1.8125 0.0431,3.7e-4 0.23885,0.0682 0.40625,0.15625 0.6151,0.32522 5.41975,1.78625 6.59375,2 0.1899,0.0347 0.68235,0.0922 1.09375,0.125 0.4112,0.0329 1.027,0.0922 1.375,0.125 1.9664,0.18596 3.6539,0.25995 4.875,0.21875 1.2281,-0.0413 4.13665,-0.31931 4.90625,-0.46875 1.1287,-0.21947 2.07645,-0.4109 2.46875,-0.5 0.8137,-0.18535 3.60835,-1.06553 3.78125,-1.1875 0.0634,-0.0446 0.4022,-0.16707 0.75,-0.28125 0.9453,-0.3105 3.04225,-1.33056 4.78125,-2.3125 0.3165,-0.1786 0.67055,-0.36685 0.78125,-0.40625 0.1107,-0.0389 0.1875,-0.10375 0.1875,-0.15625 0,-0.0523 0.1125,-0.11215 0.25,-0.15625 0.1375,-0.0443 0.3069,-0.1303 0.375,-0.1875 0.1196,-0.10069 1.7026,-1.23081 2.0625,-1.46875 1.0584,-0.69928 3.65165,-3.04425 5.15625,-4.6875 1.4643,-1.59891 3.4449,-4.29987 4.4375,-6.03125 0.7564,-1.31915 0.86805,-1.51181 1.03125,-1.875 0.0939,-0.20888 0.3383,-0.75432 0.5625,-1.21875 1.5822,-3.276 2.68665,-7.00253 3.21875,-10.9375 0.2421,-1.79007 0.29745,-2.83837 0.28125,-5.0625 -0.0173,-2.35903 -0.11865,-3.52365 -0.46875,-5.78125 -0.3604,-2.3234 -1.51075,-6.3743 -2.21875,-7.8125 -0.1023,-0.2076 -0.1875,-0.439 -0.1875,-0.5 0,-0.19851 -1.54115,-3.27516 -2.21875,-4.40625 l -0.6875,-1.09375 0.40625,-0.3125 c 0.3869,-0.3355 1.86115,-1.45439 2.84375,-2.15625 0.8605,-0.6147 0.869,-0.67603 0.625,-1.0625 -1.2757,-2.02109 -4.67315,-5.86986 -6.78125,-7.71875 -1.1573,-1.01501 -4.95005,-3.84375 -5.15625,-3.84375 -0.0263,0 -0.5317,-0.29466 -1.125,-0.65625 -2.2605,-1.37769 -6.1281,-3.08 -8.5625,-3.78125 -5.1011,-1.46947 -10.5435,-2.05641 -15.3125,-1.59375 -1.0988,0.10655 -2.4677,0.4077 -2.5,0.375 l -1.56245,-5.96875 c 0.0155,-0.90314 0.0762,-1.70135 0.125,-1.78125 0.0909,-0.14881 1.84055,-0.1155 4.28125,0.0937 1.2927,0.11087 1.2996,0.10019 1.25,-1.1875 -0.0202,-0.5252 -0.0827,-5.30366 -0.125,-10.625 -0.0433,-5.45411 -0.0978,-9.71985 -0.15625,-9.78125 -0.0642,-0.0675 -1.0732,-0.0542 -2.625,0.0313 -1.3771,0.0758 -3.2221,0.17825 -4.125,0.21875 -0.9029,0.0405 -1.68485,0.10035 -1.71875,0.15625 -0.0341,0.0558 -0.43955,0.0937 -0.90625,0.0937 -1.5005,0 -3.115,0.46779 -4.625,1.3125 -0.88,0.49229 -2.3798,1.8701 -3.25,3 -0.4593,0.59619 -1.4281,2.4599 -1.625,3.125 -0.2467,0.83281 -0.4335,2.40686 -0.4375,3.5 -0.004,1.0704 -0.0238,1.08 -0.28125,0.96875 -0.4591,-0.19829 -1.7521,-0.30495 -2.625,-0.21875 -0.9119,0.09 -2.2815,0.4948 -2.75,0.8125 -1.0739,0.72802 -1.43525,0.89685 -1.65625,0.84375 -8.88004,-1.56039 -17.68062,-3.21928 -26.40625,-4.75 -2.9195,-0.51247 -2.875,-0.52238 -2.875,-0.65625 4.02121,-5.72448 8.81771,-11.58355 13.34375,-17.65625 0.095,-0.14226 0.24885,-0.33619 0.34375,-0.4375 0.1885,-0.20117 0.3154,-0.3623 1.6875,-2.1875 1.5144,-3.31819 3.56575,-2.28609 6.09375,-3.21875 0.3932,-0.15483 0.872,-0.30515 1.0625,-0.34375 1.0235,-0.35112 0.42565,-1.87353 0.59375,-2.75 -0.0131,-2.38244 0.0208,-2.17708 0.1875,-3.34375 1.25,-0.16667 1.988,-0.19975 2.1875,-0.34375 0.1996,-0.14401 0.40615,-0.25 0.46875,-0.25 0.3048,0 0.2752,-0.40013 -0.375,-4.65625 -0.0931,-0.60908 -0.1865,-1.33729 -0.1875,-1.59375 l 0,-0.46875 0.78125,-0.0313 c 0.425,-0.0209 7.63074,-0.65355 7.68194,-0.68565 0.0963,-0.0603 1.26011,-0.23099 0.96506,-1.90625 -0.3056,-1.73505 -9.07105,-3.17521 -9.86575,-4.3456 -0.196,-0.28873 -0.34375,-0.55625 -0.34375,-0.59375 0,-0.18516 -1.1488,-1.62642 -1.9375,-2.4375 -2.7085,-2.78526 -6.63595,-4.49565 -10.40625,-4.53125 -0.40553,-0.004 -0.78834,-0.0103 -1.125,0 z m -27.40625,66.875 c 0.71311,-0.007 1.68385,-0.0146 2.75,0 2.1323,0.0292 6.4925,0.0808 9.6875,0.125 3.19489,0.0441 6.25925,0.0932 6.78125,0.0937 0.52191,7e-4 0.9375,0.0466 0.9375,0.0937 0,0.1067 -1.6073,1.40723 -4.375,3.53125 -1.0782,0.8275 -2.8777,2.22176 -4.1875,3.28125 -0.3699,0.29928 -0.84451,0.66253 -1.0625,0.8125 -0.21811,0.14994 -0.45495,0.28725 -0.53125,0.28125 -0.0762,-0.006 -0.5255,-0.30796 -1,-0.65625 -0.47459,-0.34829 -1.05985,-0.75191 -1.28125,-0.90625 -0.22139,-0.15433 -0.70945,-0.50447 -1.09375,-0.78125 -0.72449,-0.52191 -3.38155,-2.41886 -5.53125,-3.9375 -1.4847,-1.04878 -2.3281,-1.77822 -2.25,-1.90625 0.0158,-0.0259 0.44314,-0.0238 1.15625,-0.0313 z m -42.5625,17.78125 22.5,17.46875 -12.75,-1.1875 c -0.67674,-8.64749 -6.27122,-11.13632 -9.75,-16.28125 z m 115.125,4.78125 c 0.45715,-0.0303 1.06025,-0.0101 1.71875,0 1.31701,0.0202 2.8676,0.14146 3.90625,0.3125 1.4786,0.24349 3.83935,0.92502 5.21875,1.5 1.1494,0.47918 3.19145,1.5833 3.78125,2.0625 l 0.34375,0.28125 -0.28125,0.40625 c -0.14939,0.21818 -0.95419,1.26659 -1.8125,2.34375 -0.8582,1.07716 -1.6552,2.07275 -1.75,2.21875 -0.2328,0.3582 -4.0148,5.24113 -4.3125,5.5625 -0.0891,0.0962 -0.36615,0.41415 -0.59375,0.71875 -0.2277,0.30459 -0.42975,0.5715 -0.46875,0.5625 -0.0389,-0.007 -0.4939,-0.16281 -1,-0.34375 -0.5062,-0.18094 -1.16935,-0.36125 -1.46875,-0.40625 -0.2995,-0.045 -0.5727,-0.14655 -0.625,-0.21875 -0.0737,-0.10144 -0.5581,-1.90788 -0.6875,-2.59375 -0.0617,-0.32709 -1.88985,-7.87476 -2.03125,-8.375 -0.0905,-0.32057 -0.3582,-1.2747 -0.5625,-2.125 -0.2951,-1.22815 -0.33175,-1.60417 -0.21875,-1.71875 0.0754,-0.0764 0.3866,-0.15721 0.84375,-0.1875 z m -81.75,0.59375 c 0,0 7.91307,4.00458 8.125,6.09375 0.21193,2.08917 -5.625,4.75 -5.625,4.75 1.80746,-5.19644 0.21119,-7.45476 -2.5,-10.84375 z m 74.09375,1.34375 c 0.2096,0 0.32011,0.52192 1.1875,4 0.55179,2.21182 1.084,4.33405 1.1875,4.71875 0.30449,1.13097 1.3857,5.464 1.4375,5.78125 0.0382,0.23419 -0.1143,0.43797 -0.75,1.09375 -1.4548,1.50057 -2.1289,2.61087 -2.625,4.34375 -0.4698,1.64156 -0.399,3.70535 0.1875,5.5 0.1303,0.39919 0.224,0.7525 0.1875,0.8125 -0.0365,0.0599 -0.41739,0.30991 -0.8125,0.53125 -0.39529,0.22106 -0.90305,0.51047 -1.15625,0.65625 -0.2529,0.14578 -0.86925,0.47803 -1.34375,0.75 -0.47451,0.27197 -1.3982,0.80472 -2.0625,1.1875 -0.6643,0.38268 -2.35811,1.36707 -3.75,2.15625 -1.3917,0.7891 -2.68476,1.54847 -2.90625,1.6875 -0.84401,0.52987 -0.8579,0.51625 -1.4375,-0.78125 -0.9555,-2.13891 -1.52555,-4.19915 -1.90625,-6.75 -0.2138,-1.43259 -0.2375,-2.00291 -0.1875,-3.78125 0.0325,-1.15407 0.0634,-2.21559 0.0937,-2.34375 0.0308,-0.12834 0.11095,-0.52232 0.15625,-0.875 0.2054,-1.60125 0.8742,-3.96556 1.625,-5.75 1.49081,-3.54253 4.58225,-7.649 7.40625,-9.78125 0.91591,-0.6915 2.12925,-1.49764 2.40625,-1.625 0.0948,-0.0436 0.341,-0.20718 0.5625,-0.34375 0.84299,-0.51992 2.13255,-1.12665 2.40625,-1.15625 0.0352,-0.004 0.0641,-0.0313 0.0937,-0.0313 z m -134.40625,0.125 c 1.7849,-0.0347 3.49415,0.0881 4.90625,0.375 1.7424,0.354 4.125,1.08107 4.125,1.25 0,0.0794 -0.2538,0.68165 -0.5625,1.34375 -0.3087,0.66211 -0.8263,1.73387 -1.125,2.375 -0.2986,0.64112 -0.79065,1.6714 -1.09375,2.3125 -0.3031,0.6411 -0.63965,1.42952 -0.78125,1.75 -0.751,1.69931 -1.06525,2.28125 -1.15625,2.28125 -0.0552,0 -0.60015,-0.088 -1.21875,-0.21875 -4.3995,-0.93103 -8.9658,0.59325 -12.0625,4.03125 -0.4687,0.52041 -1.4375,1.93953 -1.4375,2.09375 0,0.0312 -0.1524,0.24294 -0.3125,0.5 -0.8416,1.35112 -1.5044,4.45294 -1.375,6.375 0.1187,1.76278 0.40145,3.25459 0.84375,4.28125 0.1518,0.35287 0.2007,0.5772 0.125,0.625 -0.065,0.0408 -0.63755,0.13345 -1.28125,0.21875 -0.6438,0.0852 -1.7416,0.2162 -2.4375,0.3125 -0.696,0.0965 -1.58935,0.2106 -1.96875,0.25 -0.3796,0.0391 -1.48805,0.18529 -2.46875,0.3125 -3.0189,0.39197 -2.83605,0.37625 -2.96875,0.125 -0.1559,-0.29541 -0.5515,-2.18231 -0.75,-3.5625 -0.1712,-1.1865 -0.1687,-4.62307 0,-5.96875 0.7645,-6.09591 3.66015,-11.55475 8.21875,-15.4375 0.7591,-0.64656 2.38905,-1.83385 3.09375,-2.25 1.1994,-0.70808 3.6005,-1.79957 4.5625,-2.09375 0.5694,-0.17411 1.1852,-0.3742 1.375,-0.4375 0.5909,-0.19706 3.1386,-0.6854 3.9375,-0.75 0.60275,-0.0487 1.21753,-0.0822 1.8125,-0.0937 z m 13.21875,3.75 c 0.5118,0.002 3.6834,2.6326 5,4.125 1.6809,1.90507 3.0208,3.8304 2.75,4 -0.0756,0.0476 -2.69,0.1119 -5.8125,0.125 -4.8083,0.0199 -5.697,-0.0164 -5.75,-0.15625 -0.0344,-0.0908 0.1363,-0.56712 0.375,-1.0625 0.2389,-0.49547 0.69105,-1.5128 1.03125,-2.25 0.3401,-0.7373 0.69225,-1.4952 0.78125,-1.6875 0.8824,-1.90648 1.5197,-3.09411 1.625,-3.09375 z m 146,0.15625 c 0.0542,-0.017 0.0983,0.012 0.15625,0.0313 0.5666,0.1877 2.96835,2.8793 3.96875,4.4375 0.8818,1.37327 1.6751,2.78303 2,3.625 0.1703,0.441 0.36985,0.96747 0.46875,1.1875 0.369,0.82106 1.0238,3.24735 1.25,4.625 0.275,1.67588 0.3165,2.46972 0.1875,5.125 -0.1058,2.17847 -0.2155,3.09522 -0.4375,4.09375 -0.5679,2.55497 -1.30695,4.46241 -2.71875,7.03125 -0.8944,1.62741 -3.2319,4.575 -4.625,5.8125 -0.3108,0.27609 -0.6859,0.607 -0.8125,0.71875 -2.8153,2.48935 -7.24385,4.58722 -11.15625,5.28125 -0.9799,0.17381 -4.5875,0.4631 -4.6875,0.375 -0.0104,-0.009 -0.61615,-0.0582 -1.34375,-0.0937 -0.7275,-0.0356 -1.65175,-0.1172 -2.03125,-0.1875 -5.0911,-0.94106 -9.38515,-3.2205 -12.96875,-6.84375 -1.3134,-1.32778 -2.909,-3.37769 -2.75,-3.53125 0.1116,-0.10781 2.65065,-1.56038 4.28125,-2.4375 0.5379,-0.28922 1.4615,-0.8045 2.0625,-1.15625 0.6011,-0.35175 1.43265,-0.83994 1.84375,-1.0625 1.4227,-0.77006 2.26665,-1.20906 3.03125,-1.65625 0.4222,-0.24703 0.79655,-0.46875 0.84375,-0.46875 0.0472,0 0.18145,-0.0682 0.28125,-0.15625 0.425,-0.37688 0.64055,-0.33171 1.28125,0.25 3.679,3.34116 9.19335,3.10457 12.53125,-0.53125 0.9574,-1.04297 1.27185,-1.50803 1.84375,-2.6875 0.5594,-1.15453 0.8238,-3.44385 0.5625,-4.90625 -0.0744,-0.41672 -0.14045,-0.8584 -0.15625,-0.96875 -0.0157,-0.11034 -0.081,-0.23625 -0.125,-0.28125 -0.044,-0.0446 -0.0625,-0.13535 -0.0625,-0.21875 0,-0.31331 -0.87255,-1.97293 -1.40625,-2.6875 l -0.53125,-0.75 0.75,-1 c 2.4218,-3.21262 3.58845,-4.75526 5.21875,-6.875 0.7276,-0.9459 1.5895,-2.07016 1.9375,-2.53125 0.8892,-1.17808 1.14975,-1.51141 1.3125,-1.5625 z M 166.449,234.55941 c 0.05,-0.0521 0.7164,0.16922 1.5,0.46875 1.2947,0.49463 2.77895,1.017 4.15625,1.5 0.2848,0.0998 0.59215,0.22685 0.71875,0.28125 0.1266,0.0544 0.71185,0.26091 1.28125,0.46875 2.6596,0.97106 2.8125,1.07059 2.8125,1.375 0,0.15638 -0.034,0.35738 -0.0937,0.46875 -0.0599,0.11129 -0.2051,0.4949 -0.3125,0.84375 -0.1073,0.34865 -0.3547,1.00665 -0.5625,1.46875 -0.2077,0.462 -0.41665,0.87535 -0.46875,0.90625 -0.052,0.0307 -0.2786,-0.0103 -0.5,-0.0937 -1.9688,-0.74043 -6.6922,-2.44587 -8.6875,-3.125 -0.5695,-0.19387 -1.1153,-0.39655 -1.1875,-0.46875 -0.0984,-0.0978 0.005,-0.3715 0.34375,-1.09375 0.2489,-0.53119 0.559,-1.41091 0.6875,-1.9375 0.1286,-0.52679 0.2623,-1.01 0.3125,-1.0625 z m -26.9375,16.4375 c 0.0515,-0.0222 0.19595,-0.0276 0.5,0 0.5117,0.0467 1.88155,0.24985 3.21875,0.46875 0.1581,0.026 0.6832,0.0859 1.1875,0.15625 0.5043,0.0701 0.93535,0.1678 0.96875,0.1875 0.0335,0.0199 0.40165,0.0506 0.78125,0.0937 0.3795,0.043 1.0263,0.1266 1.4375,0.1875 0.4112,0.061 1.335,0.215 2.0625,0.3125 0.7276,0.0974 2.39015,0.3356 3.71875,0.53125 1.3286,0.19557 2.7453,0.385 3.125,0.4375 0.3795,0.0521 0.81055,0.11685 0.96875,0.15625 0.1581,0.0397 0.5278,0.0969 0.8125,0.125 0.7514,0.0753 3.9468,0.58 4,0.625 0.1036,0.0884 -0.25835,0.39538 -0.59375,0.5 -0.1988,0.0619 -0.683,0.20979 -1.0625,0.34375 -1.0368,0.36582 -3.3556,0.7934 -4.6875,0.875 -0.6497,0.0394 -1.18715,0.0824 -1.21875,0.0937 -0.0317,0.0112 -0.86315,-0.0203 -1.84375,-0.0625 -1.6298,-0.0702 -3.34265,-0.29485 -4.21875,-0.5625 -0.1898,-0.058 -0.7439,-0.20772 -1.25,-0.34375 -0.9667,-0.26006 -2.21095,-0.68097 -2.40625,-0.8125 -0.0633,-0.0426 -0.3711,-0.16444 -0.6875,-0.28125 -0.3163,-0.11672 -0.7169,-0.30088 -0.875,-0.40625 -0.1581,-0.10547 -0.58915,-0.34497 -0.96875,-0.53125 -0.7899,-0.38756 -2.5667,-1.56106 -2.875,-1.90625 -0.1025,-0.11469 -0.14534,-0.16527 -0.0937,-0.1875 z"
       style="fill:#000000;fill-opacity:1;stroke:none;filter:url(#filter3777)" />
    <path
       style="fill:#a8a8a8;fill-opacity:1;stroke:none"
       d="m 254.93426,112.0576 c -1.00998,0.0308 -1.73525,0.1548 -2.46875,0.34375 -0.3795,0.0978 -0.87235,0.1964 -1.09375,0.25 -0.6137,0.14863 -1.6139,0.53463 -2.125,0.8125 -0.2522,0.13709 -0.5131,0.25 -0.5625,0.25 -0.1597,0 -1.82415,1.0641 -2.59375,1.65625 -0.7154,0.55049 -2.52925,2.38838 -2.53125,2.5625 -6e-4,0.0459 -0.16985,0.25795 -0.34375,0.46875 -0.3549,0.4299 -0.39645,0.49341 -1.09375,1.71875 -0.6198,1.08912 -1.3839,3.14314 -1.625,4.375 -0.1004,0.51287 -0.21925,1.2107 -0.28125,1.53125 -0.0622,0.32057 -0.0906,1.27782 -0.0625,2.15625 0.0281,0.87841 -2.64838,4.04164 -2.69488,4.06984 -10.09749,0.44833 -15.35432,-2.09698 -24.83642,-1.78859 1.0115,1.38198 2.009,2.30494 2.9375,3.6875 l -20.6875,0.59375 6.09375,5.15625 c 5.4836,-0.0704 11.5199,-0.1512 14.75,-0.25 1.3154,-0.0402 2.4033,-0.0252 2.4375,0.0313 -1.3452,1.12171 -2.79865,2.04628 -4.21875,3.0625 -10.69649,7.6151 -21.55285,14.16965 -32.375,22.15625 -0.0656,0.0818 -0.24215,1.00546 -0.40625,2.03125 -0.84341,5.64562 -1.95125,10.74012 -2.75,16.21875 0.0154,0.0753 -0.0103,0.1549 -0.0625,0.1875 -0.052,0.0326 -3.6684,0.11535 -8.0625,0.15625 -15.2054,0.14151 -14.9577,0.12219 -18.0625,0.5625 -2.3399,0.33187 -7.1359,1.53657 -8.5625,2.15625 -0.254,0.11034 -0.49955,0.21968 -0.53125,0.21875 -0.0316,-9.5e-4 -0.3165,0.11168 -0.625,0.25 -0.3086,0.13831 -0.60695,0.25 -0.65625,0.25 -0.0996,0 -0.203,0.0444 -2.8125,1.34375 -1.0122,0.50407 -2.3055,1.20058 -2.875,1.5625 -4.59154,2.92999 -10.31136,6.58673 -16.4375,7.0625 0.0146,3.28623 -0.39635,5.20314 0,6.5625 1.64632,1.85936 1.5625,2.15625 1.5625,2.15625 -2.2,4 -3.54035,6.99681 -3.59375,7.125 -0.2149,0.51593 -0.9312,2.96722 -1.1875,4.0625 -0.6073,2.59425 -0.805,3.65169 -0.9375,5.1875 -0.0359,0.41672 -0.094,0.8413 -0.125,0.9375 -0.0311,0.0961 -0.0647,0.73303 -0.0937,1.40625 -0.0291,0.67322 -0.0957,1.3809 -0.125,1.5625 -0.0294,0.1815 0.0261,0.43415 0.0937,0.5625 0.1083,0.2055 0.1436,0.20856 0.3125,0.0625 0.1057,-0.0914 0.58765,-0.35563 1.09375,-0.59375 2.44099,-1.0598 5.55746,-0.12865 7.0625,-0.125 0.0667,5.6 0.70797,7.87698 1.5,10.15625 -1.84406,0.27197 -3.032,-1.29419 -5.1875,-1.84375 0.73241,1.6124 1.5512,4.09819 -0.375,6.375 1.7627,2.32482 -0.38115,5.80865 -0.34375,6.1875 2.7603,-1.01681 4.8055,-2.34137 8.8125,-2.125 1.338,2.02744 2.7564,3.81856 4.3125,5.65625 0.7304,0.88491 3.09945,2.81166 3.96875,3.5625 2.4487,2.11519 6.0848,4.37181 9.0625,5.59375 0.4113,0.16875 0.8736,0.34715 1,0.40625 0.344,0.16172 2.69085,0.93866 3.21875,1.0625 3.3576,0.7875 5.648,1.12625 7.875,1.15625 0.7255,0.0103 1.32235,0.0409 1.34375,0.0625 0.0524,0.0532 1.50715,-0.0547 3.65625,-0.25 2.2114,-0.2009 6.59405,-1.29547 8.40625,-2.09375 0.1897,-0.0836 0.44515,-0.17285 0.59375,-0.21875 0.1486,-0.0455 0.94925,-0.435 1.78125,-0.84375 2.4989,-1.22765 4.7642,-2.61866 6.25,-3.875 0.1947,-0.16453 0.5642,-0.46406 0.8125,-0.65625 0.2482,-0.19228 0.71485,-0.58222 1.03125,-0.875 1.3744,-1.27265 5.83388,-4.7385 8.65625,-8.90625 12.1948,-0.37115 18.97245,-0.25839 29.75,0.78125 1.9147,-0.001 5.1342,4.29987 7.125,3.3125 1.9829,-0.98344 26.86065,-3.45346 28.34375,-5.15625 0.87977,-1.01016 1.68753,-2.28783 2.375,-3.6875 0,0 2.54111,-3.44054 1.59375,-10.1875 -0.94735,-6.74697 -5.50677,-10.81572 -6.625,-11.65625 -0.5562,-0.41812 -1,-0.81185 -1,-0.84375 0,-0.0319 0.11745,-0.20506 0.28125,-0.40625 0.1639,-0.20119 0.6707,-0.88416 1.125,-1.5 0.8031,-1.08891 1.32655,-1.72143 2.40625,-3.09375 0.4988,-0.6338 1.62275,-2.13939 2.96875,-3.9375 0.3407,-0.4551 0.79975,-1.05524 1.03125,-1.34375 0.2317,-0.28851 0.5167,-0.65221 0.625,-0.8125 0.1082,-0.16029 0.44945,-0.64021 0.78125,-1.0625 0.5708,-0.72664 2.90845,-3.72638 3.78125,-4.875 0.8081,-1.06355 3.00765,-3.93713 3.96875,-5.1875 0.5421,-0.70525 1.16905,-1.53389 1.40625,-1.84375 0.5949,-0.7769 0.71295,-0.92333 1.28125,-1.625 0.4427,-0.54638 1.3772,-1.81771 3.125,-4.1875 0.4356,-0.59073 0.66405,-0.79322 1.09375,-0.96875 0.3033,-0.12385 1.0373,-0.4419 1.625,-0.71875 0.5876,-0.27686 1.0962,-0.5 1.125,-0.5 0.0464,0 1.2971,-0.56138 3,-1.34375 1.9243,-0.88412 4.07845,-1.8125 4.21875,-1.8125 l 1.59375,5.40625 c -1.5255,0.60388 -2.7797,1.36847 -3.8125,1.90625 -1.9885,1.03554 -4.94005,2.87244 -5.65625,3.53125 -0.1306,0.12012 -0.2662,0.21875 -0.3125,0.21875 -0.22931,0 -3.538,2.9736 -4.875,4.375 -14.43325,18.37966 -12.00098,31.8313 -7.53125,46.90625 1.0473,2.06493 3.1761,5.57965 3.375,5.59375 0.0687,0.005 2.19575,-1.30478 3.28125,-2.03125 0.3229,-0.216 0.6529,-0.40625 0.75,-0.40625 0.097,0 0.288,0.17597 0.4375,0.375 0.1495,0.19903 0.3735,0.47678 0.5,0.625 0.1265,0.14812 0.43475,0.50619 0.65625,0.78125 1.868,2.31966 5.07945,5.31328 7.03125,6.5625 0.1002,0.064 0.53355,0.36085 0.96875,0.65625 0.4354,0.29541 0.9352,0.61216 1.125,0.71875 0.1897,0.10669 0.65175,0.37315 1.03125,0.59375 1.0866,0.63131 3.50395,1.8125 3.71875,1.8125 0.0431,3.7e-4 0.23885,0.0682 0.40625,0.15625 0.6151,0.32522 5.41975,1.78625 6.59375,2 0.1899,0.0347 0.68235,0.0922 1.09375,0.125 0.4112,0.0329 1.027,0.0922 1.375,0.125 1.9664,0.18596 3.6539,0.25995 4.875,0.21875 1.2281,-0.0413 4.13665,-0.31931 4.90625,-0.46875 1.1287,-0.21947 2.07645,-0.4109 2.46875,-0.5 0.8137,-0.18535 3.60835,-1.06553 3.78125,-1.1875 0.0634,-0.0446 0.4022,-0.16707 0.75,-0.28125 0.9453,-0.3105 3.04225,-1.33056 4.78125,-2.3125 0.3165,-0.1786 0.67055,-0.36685 0.78125,-0.40625 0.1107,-0.0389 0.1875,-0.10375 0.1875,-0.15625 0,-0.0523 0.1125,-0.11215 0.25,-0.15625 0.1375,-0.0443 0.3069,-0.1303 0.375,-0.1875 0.1196,-0.10069 1.7026,-1.23081 2.0625,-1.46875 1.0584,-0.69928 3.65165,-3.04425 5.15625,-4.6875 1.4643,-1.59891 3.4449,-4.29987 4.4375,-6.03125 0.7564,-1.31915 0.86805,-1.51181 1.03125,-1.875 0.0939,-0.20888 0.3383,-0.75432 0.5625,-1.21875 1.5822,-3.276 2.68665,-7.00253 3.21875,-10.9375 0.2421,-1.79007 0.29745,-2.83837 0.28125,-5.0625 -0.0173,-2.35903 -0.11865,-3.52365 -0.46875,-5.78125 -0.3604,-2.3234 -1.51075,-6.3743 -2.21875,-7.8125 -0.1023,-0.2076 -0.1875,-0.439 -0.1875,-0.5 0,-0.19851 -1.54115,-3.27516 -2.21875,-4.40625 l -0.6875,-1.09375 0.40625,-0.3125 c 0.3869,-0.3355 1.86115,-1.45439 2.84375,-2.15625 0.8605,-0.6147 0.869,-0.67603 0.625,-1.0625 -1.2757,-2.02109 -4.67315,-5.86986 -6.78125,-7.71875 -1.1573,-1.01501 -4.95005,-3.84375 -5.15625,-3.84375 -0.0263,0 -0.5317,-0.29466 -1.125,-0.65625 -2.2605,-1.37769 -6.1281,-3.08 -8.5625,-3.78125 -5.1011,-1.46947 -10.5435,-2.05641 -15.3125,-1.59375 -1.0988,0.10655 -2.4677,0.4077 -2.5,0.375 l -1.56245,-5.96875 c 0.0155,-0.90314 0.0762,-1.70135 0.125,-1.78125 0.0909,-0.14881 1.84055,-0.1155 4.28125,0.0937 1.2927,0.11087 1.2996,0.10019 1.25,-1.1875 -0.0202,-0.5252 -0.0827,-5.30366 -0.125,-10.625 -0.0433,-5.45411 -0.0978,-9.71985 -0.15625,-9.78125 -0.0642,-0.0675 -1.0732,-0.0542 -2.625,0.0313 -1.3771,0.0758 -3.2221,0.17825 -4.125,0.21875 -0.9029,0.0405 -1.68485,0.10035 -1.71875,0.15625 -0.0341,0.0558 -0.43955,0.0937 -0.90625,0.0937 -1.5005,0 -3.115,0.46779 -4.625,1.3125 -0.88,0.49229 -2.3798,1.8701 -3.25,3 -0.4593,0.59619 -1.4281,2.4599 -1.625,3.125 -0.2467,0.83281 -0.4335,2.40686 -0.4375,3.5 -0.004,1.0704 -0.0238,1.08 -0.28125,0.96875 -0.4591,-0.19829 -1.7521,-0.30495 -2.625,-0.21875 -0.9119,0.09 -2.2815,0.4948 -2.75,0.8125 -1.0739,0.72802 -1.43525,0.89685 -1.65625,0.84375 -8.88004,-1.56039 -17.68062,-3.21928 -26.40625,-4.75 -2.9195,-0.51247 -2.875,-0.52238 -2.875,-0.65625 4.02121,-5.72448 8.81771,-11.58355 13.34375,-17.65625 0.095,-0.14226 0.24885,-0.33619 0.34375,-0.4375 0.1885,-0.20117 0.3154,-0.3623 1.6875,-2.1875 1.5144,-3.31819 3.56575,-2.28609 6.09375,-3.21875 0.3932,-0.15483 0.872,-0.30515 1.0625,-0.34375 1.0235,-0.35112 0.42565,-1.87353 0.59375,-2.75 -0.0131,-2.38244 0.0208,-2.17708 0.1875,-3.34375 1.25,-0.16667 1.988,-0.19975 2.1875,-0.34375 0.1996,-0.14401 0.40615,-0.25 0.46875,-0.25 0.3048,0 0.2752,-0.40013 -0.375,-4.65625 -0.0931,-0.60908 -0.1865,-1.33729 -0.1875,-1.59375 l 0,-0.46875 0.78125,-0.0313 c 0.425,-0.0209 7.63074,-0.65355 7.68194,-0.68565 0.0963,-0.0603 1.26011,-0.23099 0.96506,-1.90625 -0.3056,-1.73505 -9.07105,-3.17521 -9.86575,-4.3456 -0.196,-0.28873 -0.34375,-0.55625 -0.34375,-0.59375 0,-0.18516 -1.1488,-1.62642 -1.9375,-2.4375 -2.7085,-2.78526 -6.63595,-4.49565 -10.40625,-4.53125 -0.40553,-0.004 -0.78834,-0.0103 -1.125,0 z m -27.40625,66.875 c 0.71311,-0.007 1.68385,-0.0146 2.75,0 2.1323,0.0292 6.4925,0.0808 9.6875,0.125 3.19489,0.0441 6.25925,0.0932 6.78125,0.0937 0.52191,7e-4 0.9375,0.0466 0.9375,0.0937 0,0.1067 -1.6073,1.40723 -4.375,3.53125 -1.0782,0.8275 -2.8777,2.22176 -4.1875,3.28125 -0.3699,0.29928 -0.84451,0.66253 -1.0625,0.8125 -0.21811,0.14994 -0.45495,0.28725 -0.53125,0.28125 -0.0762,-0.006 -0.5255,-0.30796 -1,-0.65625 -0.47459,-0.34829 -1.05985,-0.75191 -1.28125,-0.90625 -0.22139,-0.15433 -0.70945,-0.50447 -1.09375,-0.78125 -0.72449,-0.52191 -3.38155,-2.41886 -5.53125,-3.9375 -1.4847,-1.04878 -2.3281,-1.77822 -2.25,-1.90625 0.0158,-0.0259 0.44314,-0.0238 1.15625,-0.0313 z m -42.5625,17.78125 22.5,17.46875 -12.75,-1.1875 c -0.67674,-8.64749 -6.27122,-11.13632 -9.75,-16.28125 z m 115.125,4.78125 c 0.45715,-0.0303 1.06025,-0.0101 1.71875,0 1.31701,0.0202 2.8676,0.14146 3.90625,0.3125 1.4786,0.24349 3.83935,0.92502 5.21875,1.5 1.1494,0.47918 3.19145,1.5833 3.78125,2.0625 l 0.34375,0.28125 -0.28125,0.40625 c -0.14939,0.21818 -0.95419,1.26659 -1.8125,2.34375 -0.8582,1.07716 -1.6552,2.07275 -1.75,2.21875 -0.2328,0.3582 -4.0148,5.24113 -4.3125,5.5625 -0.0891,0.0962 -0.36615,0.41415 -0.59375,0.71875 -0.2277,0.30459 -0.42975,0.5715 -0.46875,0.5625 -0.0389,-0.007 -0.4939,-0.16281 -1,-0.34375 -0.5062,-0.18094 -1.16935,-0.36125 -1.46875,-0.40625 -0.2995,-0.045 -0.5727,-0.14655 -0.625,-0.21875 -0.0737,-0.10144 -0.5581,-1.90788 -0.6875,-2.59375 -0.0617,-0.32709 -1.88985,-7.87476 -2.03125,-8.375 -0.0905,-0.32057 -0.3582,-1.2747 -0.5625,-2.125 -0.2951,-1.22815 -0.33175,-1.60417 -0.21875,-1.71875 0.0754,-0.0764 0.3866,-0.15721 0.84375,-0.1875 z m -81.75,0.59375 c 0,0 7.91307,4.00458 8.125,6.09375 0.21193,2.08917 -5.625,4.75 -5.625,4.75 1.80746,-5.19644 0.21119,-7.45476 -2.5,-10.84375 z m 74.09375,1.34375 c 0.2096,0 0.32011,0.52192 1.1875,4 0.55179,2.21182 1.084,4.33405 1.1875,4.71875 0.30449,1.13097 1.3857,5.464 1.4375,5.78125 0.0382,0.23419 -0.1143,0.43797 -0.75,1.09375 -1.4548,1.50057 -2.1289,2.61087 -2.625,4.34375 -0.4698,1.64156 -0.399,3.70535 0.1875,5.5 0.1303,0.39919 0.224,0.7525 0.1875,0.8125 -0.0365,0.0599 -0.41739,0.30991 -0.8125,0.53125 -0.39529,0.22106 -0.90305,0.51047 -1.15625,0.65625 -0.2529,0.14578 -0.86925,0.47803 -1.34375,0.75 -0.47451,0.27197 -1.3982,0.80472 -2.0625,1.1875 -0.6643,0.38268 -2.35811,1.36707 -3.75,2.15625 -1.3917,0.7891 -2.68476,1.54847 -2.90625,1.6875 -0.84401,0.52987 -0.8579,0.51625 -1.4375,-0.78125 -0.9555,-2.13891 -1.52555,-4.19915 -1.90625,-6.75 -0.2138,-1.43259 -0.2375,-2.00291 -0.1875,-3.78125 0.0325,-1.15407 0.0634,-2.21559 0.0937,-2.34375 0.0308,-0.12834 0.11095,-0.52232 0.15625,-0.875 0.2054,-1.60125 0.8742,-3.96556 1.625,-5.75 1.49081,-3.54253 4.58225,-7.649 7.40625,-9.78125 0.91591,-0.6915 2.12925,-1.49764 2.40625,-1.625 0.0948,-0.0436 0.341,-0.20718 0.5625,-0.34375 0.84299,-0.51992 2.13255,-1.12665 2.40625,-1.15625 0.0352,-0.004 0.0641,-0.0313 0.0937,-0.0313 z m -134.40625,0.125 c 1.7849,-0.0347 3.49415,0.0881 4.90625,0.375 1.7424,0.354 4.125,1.08107 4.125,1.25 0,0.0794 -0.2538,0.68165 -0.5625,1.34375 -0.3087,0.66211 -0.8263,1.73387 -1.125,2.375 -0.2986,0.64112 -0.79065,1.6714 -1.09375,2.3125 -0.3031,0.6411 -0.63965,1.42952 -0.78125,1.75 -0.751,1.69931 -1.06525,2.28125 -1.15625,2.28125 -0.0552,0 -0.60015,-0.088 -1.21875,-0.21875 -4.3995,-0.93103 -8.9658,0.59325 -12.0625,4.03125 -0.4687,0.52041 -1.4375,1.93953 -1.4375,2.09375 0,0.0312 -0.1524,0.24294 -0.3125,0.5 -0.8416,1.35112 -1.5044,4.45294 -1.375,6.375 0.1187,1.76278 0.40145,3.25459 0.84375,4.28125 0.1518,0.35287 0.2007,0.5772 0.125,0.625 -0.065,0.0408 -0.63755,0.13345 -1.28125,0.21875 -0.6438,0.0852 -1.7416,0.2162 -2.4375,0.3125 -0.696,0.0965 -1.58935,0.2106 -1.96875,0.25 -0.3796,0.0391 -1.48805,0.18529 -2.46875,0.3125 -3.0189,0.39197 -2.83605,0.37625 -2.96875,0.125 -0.1559,-0.29541 -0.5515,-2.18231 -0.75,-3.5625 -0.1712,-1.1865 -0.1687,-4.62307 0,-5.96875 0.7645,-6.09591 3.66015,-11.55475 8.21875,-15.4375 0.7591,-0.64656 2.38905,-1.83385 3.09375,-2.25 1.1994,-0.70808 3.6005,-1.79957 4.5625,-2.09375 0.5694,-0.17411 1.1852,-0.3742 1.375,-0.4375 0.5909,-0.19706 3.1386,-0.6854 3.9375,-0.75 0.60275,-0.0487 1.21753,-0.0822 1.8125,-0.0937 z m 13.21875,3.75 c 0.5118,0.002 3.6834,2.6326 5,4.125 1.6809,1.90507 3.0208,3.8304 2.75,4 -0.0756,0.0476 -2.69,0.1119 -5.8125,0.125 -4.8083,0.0199 -5.697,-0.0164 -5.75,-0.15625 -0.0344,-0.0908 0.1363,-0.56712 0.375,-1.0625 0.2389,-0.49547 0.69105,-1.5128 1.03125,-2.25 0.3401,-0.7373 0.69225,-1.4952 0.78125,-1.6875 0.8824,-1.90648 1.5197,-3.09411 1.625,-3.09375 z m 146,0.15625 c 0.0542,-0.017 0.0983,0.012 0.15625,0.0313 0.5666,0.1877 2.96835,2.8793 3.96875,4.4375 0.8818,1.37327 1.6751,2.78303 2,3.625 0.1703,0.441 0.36985,0.96747 0.46875,1.1875 0.369,0.82106 1.0238,3.24735 1.25,4.625 0.275,1.67588 0.3165,2.46972 0.1875,5.125 -0.1058,2.17847 -0.2155,3.09522 -0.4375,4.09375 -0.5679,2.55497 -1.30695,4.46241 -2.71875,7.03125 -0.8944,1.62741 -3.2319,4.575 -4.625,5.8125 -0.3108,0.27609 -0.6859,0.607 -0.8125,0.71875 -2.8153,2.48935 -7.24385,4.58722 -11.15625,5.28125 -0.9799,0.17381 -4.5875,0.4631 -4.6875,0.375 -0.0104,-0.009 -0.61615,-0.0582 -1.34375,-0.0937 -0.7275,-0.0356 -1.65175,-0.1172 -2.03125,-0.1875 -5.0911,-0.94106 -9.38515,-3.2205 -12.96875,-6.84375 -1.3134,-1.32778 -2.909,-3.37769 -2.75,-3.53125 0.1116,-0.10781 2.65065,-1.56038 4.28125,-2.4375 0.5379,-0.28922 1.4615,-0.8045 2.0625,-1.15625 0.6011,-0.35175 1.43265,-0.83994 1.84375,-1.0625 1.4227,-0.77006 2.26665,-1.20906 3.03125,-1.65625 0.4222,-0.24703 0.79655,-0.46875 0.84375,-0.46875 0.0472,0 0.18145,-0.0682 0.28125,-0.15625 0.425,-0.37688 0.64055,-0.33171 1.28125,0.25 3.679,3.34116 9.19335,3.10457 12.53125,-0.53125 0.9574,-1.04297 1.27185,-1.50803 1.84375,-2.6875 0.5594,-1.15453 0.8238,-3.44385 0.5625,-4.90625 -0.0744,-0.41672 -0.14045,-0.8584 -0.15625,-0.96875 -0.0157,-0.11034 -0.081,-0.23625 -0.125,-0.28125 -0.044,-0.0446 -0.0625,-0.13535 -0.0625,-0.21875 0,-0.31331 -0.87255,-1.97293 -1.40625,-2.6875 l -0.53125,-0.75 0.75,-1 c 2.4218,-3.21262 3.58845,-4.75526 5.21875,-6.875 0.7276,-0.9459 1.5895,-2.07016 1.9375,-2.53125 0.8892,-1.17808 1.14975,-1.51141 1.3125,-1.5625 z m -146.0625,22.65625 c 0.05,-0.0521 0.7164,0.16922 1.5,0.46875 1.2947,0.49463 2.77895,1.017 4.15625,1.5 0.2848,0.0998 0.59215,0.22685 0.71875,0.28125 0.1266,0.0544 0.71185,0.26091 1.28125,0.46875 2.6596,0.97106 2.8125,1.07059 2.8125,1.375 0,0.15638 -0.034,0.35738 -0.0937,0.46875 -0.0599,0.11129 -0.2051,0.4949 -0.3125,0.84375 -0.1073,0.34865 -0.3547,1.00665 -0.5625,1.46875 -0.2077,0.462 -0.41665,0.87535 -0.46875,0.90625 -0.052,0.0307 -0.2786,-0.0103 -0.5,-0.0937 -1.9688,-0.74043 -6.6922,-2.44587 -8.6875,-3.125 -0.5695,-0.19387 -1.1153,-0.39655 -1.1875,-0.46875 -0.0984,-0.0978 0.005,-0.3715 0.34375,-1.09375 0.2489,-0.53119 0.559,-1.41091 0.6875,-1.9375 0.1286,-0.52679 0.2623,-1.01 0.3125,-1.0625 z m -26.9375,16.4375 c 0.0515,-0.0222 0.19595,-0.0276 0.5,0 0.5117,0.0467 1.88155,0.24985 3.21875,0.46875 0.1581,0.026 0.6832,0.0859 1.1875,0.15625 0.5043,0.0701 0.93535,0.1678 0.96875,0.1875 0.0335,0.0199 0.40165,0.0506 0.78125,0.0937 0.3795,0.043 1.0263,0.1266 1.4375,0.1875 0.4112,0.061 1.335,0.215 2.0625,0.3125 0.7276,0.0974 2.39015,0.3356 3.71875,0.53125 1.3286,0.19557 2.7453,0.385 3.125,0.4375 0.3795,0.0521 0.81055,0.11685 0.96875,0.15625 0.1581,0.0397 0.5278,0.0969 0.8125,0.125 0.7514,0.0753 3.9468,0.58 4,0.625 0.1036,0.0884 -0.25835,0.39538 -0.59375,0.5 -0.1988,0.0619 -0.683,0.20979 -1.0625,0.34375 -1.0368,0.36582 -3.3556,0.7934 -4.6875,0.875 -0.6497,0.0394 -1.18715,0.0824 -1.21875,0.0937 -0.0317,0.0112 -0.86315,-0.0203 -1.84375,-0.0625 -1.6298,-0.0702 -3.34265,-0.29485 -4.21875,-0.5625 -0.1898,-0.058 -0.7439,-0.20772 -1.25,-0.34375 -0.9667,-0.26006 -2.21095,-0.68097 -2.40625,-0.8125 -0.0633,-0.0426 -0.3711,-0.16444 -0.6875,-0.28125 -0.3163,-0.11672 -0.7169,-0.30088 -0.875,-0.40625 -0.1581,-0.10547 -0.58915,-0.34497 -0.96875,-0.53125 -0.7899,-0.38756 -2.5667,-1.56106 -2.875,-1.90625 -0.1025,-0.11469 -0.14534,-0.16527 -0.0937,-0.1875 z"
       id="path3817"
       inkscape:connector-curvature="0"
       sodipodi:nodetypes="ccccsccccccsccccccccccccsccccsccccccccccccccccccccccccccccccscccccsccscsccccccccscccccscccccsccccsscsccccccccccccccccscccccccccccscccccsssscccccccccscsscccccccccccccccccscccccccscccccccscccccsccccccsccssccccccccccccccccccsccscscccccccsccccsccccccccscssccscsccscccccccccccsccccccccccccccccccccccsscccccccccccscccccccscccccccccsccccccccccccccccccccccccccccccccccccccccccccc" />
    <g
       id="g3819"
       clip-path="url(#clipPath)"
       transform="translate(-0.29595127,0.29595374)"
       style="stroke:#000000;stroke-opacity:1;">
      <g
         id="g3821"
         style="stroke:#000000;stroke-opacity:1">
        <path
           style="fill:none;stroke:#000000;stroke-width:10;stroke-opacity:1;filter:url(#filter)"
           d="m 254.93426,112.0576 c -1.00998,0.0308 -1.73525,0.1548 -2.46875,0.34375 m 0,0 c -0.3795,0.0978 -0.87235,0.1964 -1.09375,0.25 m 0,0 c -0.6137,0.14863 -1.6139,0.53463 -2.125,0.8125 m 0,0 c -0.2522,0.13709 -0.5131,0.25 -0.5625,0.25 m 0,0 c -0.1597,0 -1.82415,1.0641 -2.59375,1.65625 m 0,0 c -0.7154,0.55049 -2.52925,2.38838 -2.53125,2.5625 m 0,0 c -6e-4,0.0459 -0.16985,0.25795 -0.34375,0.46875 m 0,0 c -0.3549,0.4299 -0.39645,0.49341 -1.09375,1.71875 m 0,0 c -0.6198,1.08912 -1.3839,3.14314 -1.625,4.375 m 0,0 c -0.1004,0.51287 -0.21925,1.2107 -0.28125,1.53125 m 0,0 c -0.0622,0.32057 -0.0906,1.27782 -0.0625,2.15625 m 0,0 c 0.0281,0.87841 -2.64838,4.04164 -2.69488,4.06984 m -24.83642,-1.78859 c 1.0115,1.38198 2.009,2.30494 2.9375,3.6875 m 0,0 -20.6875,0.59375 m 0,0 6.09375,5.15625 m 14.75,-0.25 c 1.3154,-0.0402 2.4033,-0.0252 2.4375,0.0313 m 0,0 c -1.3452,1.12171 -2.79865,2.04628 -4.21875,3.0625 m 0,0 c -10.69649,7.6151 -21.55285,14.16965 -32.375,22.15625 m 0,0 c -0.0656,0.0818 -0.24215,1.00546 -0.40625,2.03125 m 0,0 c -0.84341,5.64562 -1.95125,10.74012 -2.75,16.21875 m 0,0 c 0.0154,0.0753 -0.0103,0.1549 -0.0625,0.1875 m 0,0 c -0.052,0.0326 -3.6684,0.11535 -8.0625,0.15625 m 0,0 c -15.2054,0.14151 -14.9577,0.12219 -18.0625,0.5625 m 0,0 c -2.3399,0.33187 -7.1359,1.53657 -8.5625,2.15625 m 0,0 c -0.254,0.11034 -0.49955,0.21968 -0.53125,0.21875 m 0,0 c -0.0316,-9.5e-4 -0.3165,0.11168 -0.625,0.25 m 0,0 c -0.3086,0.13831 -0.60695,0.25 -0.65625,0.25 m 0,0 c -0.0996,0 -0.203,0.0444 -2.8125,1.34375 m 0,0 c -1.0122,0.50407 -2.3055,1.20058 -2.875,1.5625 m 0,0 c -4.59154,2.92999 -10.31136,6.58673 -16.4375,7.0625 m 0,0 c 0.0146,3.28623 -0.39635,5.20314 0,6.5625 m 0,0 c 1.64632,1.85936 1.5625,2.15625 1.5625,2.15625 m 0,0 c -2.2,4 -3.54035,6.99681 -3.59375,7.125 m 0,0 c -0.2149,0.51593 -0.9312,2.96722 -1.1875,4.0625 m 0,0 c -0.6073,2.59425 -0.805,3.65169 -0.9375,5.1875 m 0,0 c -0.0359,0.41672 -0.094,0.8413 -0.125,0.9375 m 0,0 c -0.0311,0.0961 -0.0647,0.73303 -0.0937,1.40625 m 0,0 c -0.0291,0.67322 -0.0957,1.3809 -0.125,1.5625 m 0,0 c -0.0294,0.1815 0.0261,0.43415 0.0937,0.5625 m 0,0 c 0.1083,0.2055 0.1436,0.20856 0.3125,0.0625 m 8.15625,-0.71875 c 0.0667,5.6 0.70797,7.87698 1.5,10.15625 m -5.1875,-1.84375 c 0.73241,1.6124 1.5512,4.09819 -0.375,6.375 m 0,0 c 1.7627,2.32482 -0.38115,5.80865 -0.34375,6.1875 m 8.8125,-2.125 c 1.338,2.02744 2.7564,3.81856 4.3125,5.65625 m 0,0 c 0.7304,0.88491 3.09945,2.81166 3.96875,3.5625 m 0,0 c 2.4487,2.11519 6.0848,4.37181 9.0625,5.59375 m 0,0 c 0.4113,0.16875 0.8736,0.34715 1,0.40625 m 0,0 c 0.344,0.16172 2.69085,0.93866 3.21875,1.0625 m 0,0 c 3.3576,0.7875 5.648,1.12625 7.875,1.15625 m 0,0 c 0.7255,0.0103 1.32235,0.0409 1.34375,0.0625 m 31.1875,-17.71875 c 12.1948,-0.37115 18.97245,-0.25839 29.75,0.78125 m 0,0 c 1.9147,-0.001 5.1342,4.29987 7.125,3.3125 m 58.53125,-66.75 1.59375,5.40625 m 0,0 c -1.5255,0.60388 -2.7797,1.36847 -3.8125,1.90625 m 0,0 c -1.9885,1.03554 -4.94005,2.87244 -5.65625,3.53125 m 0,0 c -0.1306,0.12012 -0.2662,0.21875 -0.3125,0.21875 m 0,0 c -0.22931,0 -3.538,2.9736 -4.875,4.375 m 0,0 c -14.43325,18.37966 -12.00098,31.8313 -7.53125,46.90625 m 0,0 c 1.0473,2.06493 3.1761,5.57965 3.375,5.59375 m 4.03125,-2.4375 c 0.097,0 0.288,0.17597 0.4375,0.375 m 0,0 c 0.1495,0.19903 0.3735,0.47678 0.5,0.625 m 0,0 c 0.1265,0.14812 0.43475,0.50619 0.65625,0.78125 m 0,0 c 1.868,2.31966 5.07945,5.31328 7.03125,6.5625 m 0,0 c 0.1002,0.064 0.53355,0.36085 0.96875,0.65625 m 0,0 c 0.4354,0.29541 0.9352,0.61216 1.125,0.71875 m 0,0 c 0.1897,0.10669 0.65175,0.37315 1.03125,0.59375 m 0,0 c 1.0866,0.63131 3.50395,1.8125 3.71875,1.8125 m 0,0 c 0.0431,3.7e-4 0.23885,0.0682 0.40625,0.15625 m 0,0 c 0.6151,0.32522 5.41975,1.78625 6.59375,2 m 0,0 c 0.1899,0.0347 0.68235,0.0922 1.09375,0.125 m 0,0 c 0.4112,0.0329 1.027,0.0922 1.375,0.125 m 0,0 c 1.9664,0.18596 3.6539,0.25995 4.875,0.21875 m -3.8125,-77.65625 c -1.0988,0.10655 -2.4677,0.4077 -2.5,0.375 m -1.43745,-7.75 c 0.0909,-0.14881 1.84055,-0.1155 4.28125,0.0937 m 0.96875,-21.59375 c -0.0642,-0.0675 -1.0732,-0.0542 -2.625,0.0313 m 0,0 c -1.3771,0.0758 -3.2221,0.17825 -4.125,0.21875 m 0,0 c -0.9029,0.0405 -1.68485,0.10035 -1.71875,0.15625 m 0,0 c -0.0341,0.0558 -0.43955,0.0937 -0.90625,0.0937 m 0,0 c -1.5005,0 -3.115,0.46779 -4.625,1.3125 m 0,0 c -0.88,0.49229 -2.3798,1.8701 -3.25,3 m 0,0 c -0.4593,0.59619 -1.4281,2.4599 -1.625,3.125 m 0,0 c -0.2467,0.83281 -0.4335,2.40686 -0.4375,3.5 m 0,0 c -0.004,1.0704 -0.0238,1.08 -0.28125,0.96875 m -2.625,-0.21875 c -0.9119,0.09 -2.2815,0.4948 -2.75,0.8125 m 0,0 c -1.0739,0.72802 -1.43525,0.89685 -1.65625,0.84375 m -17,-57.18755 c -0.40553,-0.004 -0.78834,-0.0103 -1.125,0 m -24.65625,66.87505 c 2.1323,0.0292 6.4925,0.0808 9.6875,0.125 m 0,0 c 3.19489,0.0441 6.25925,0.0932 6.78125,0.0937 m 0,0 c 0.52191,7e-4 0.9375,0.0466 0.9375,0.0937 m 0,0 c 0,0.1067 -1.6073,1.40723 -4.375,3.53125 m 0,0 c -1.0782,0.8275 -2.8777,2.22176 -4.1875,3.28125 m 0,0 c -0.3699,0.29928 -0.84451,0.66253 -1.0625,0.8125 m 0,0 c -0.21811,0.14994 -0.45495,0.28725 -0.53125,0.28125 m -52.5625,9.5626 22.5,17.46875 m 94.34375,-12.6875 c 1.31701,0.0202 2.8676,0.14146 3.90625,0.3125 m 0,0 c 1.4786,0.24349 3.83935,0.92502 5.21875,1.5 m 0,0 c 1.1494,0.47918 3.19145,1.5833 3.78125,2.0625 m 0,0 0.34375,0.28125 m 0,0 -0.28125,0.40625 m 0,0 c -0.14939,0.21818 -0.95419,1.26659 -1.8125,2.34375 m 0,0 c -0.8582,1.07716 -1.6552,2.07275 -1.75,2.21875 m 0,0 c -0.2328,0.3582 -4.0148,5.24113 -4.3125,5.5625 m 0,0 c -0.0891,0.0962 -0.36615,0.41415 -0.59375,0.71875 m 0,0 c -0.2277,0.30459 -0.42975,0.5715 -0.46875,0.5625 m -87.5,-15.375 c 0,0 7.91307,4.00458 8.125,6.09375 m 0,0 c 0.21193,2.08917 -5.625,4.75 -5.625,4.75 m 71.59375,-9.5 c 0.2096,0 0.32011,0.52192 1.1875,4 m 0,0 c 0.55179,2.21182 1.084,4.33405 1.1875,4.71875 m 0,0 c 0.30449,1.13097 1.3857,5.464 1.4375,5.78125 m 0,0 c 0.0382,0.23419 -0.1143,0.43797 -0.75,1.09375 m 0,0 c -1.4548,1.50057 -2.1289,2.61087 -2.625,4.34375 m 0,0 c -0.4698,1.64156 -0.399,3.70535 0.1875,5.5 m 0,0 c 0.1303,0.39919 0.224,0.7525 0.1875,0.8125 m 0,0 c -0.0365,0.0599 -0.41739,0.30991 -0.8125,0.53125 m 0,0 c -0.39529,0.22106 -0.90305,0.51047 -1.15625,0.65625 m 0,0 c -0.2529,0.14578 -0.86925,0.47803 -1.34375,0.75 m 0,0 c -0.47451,0.27197 -1.3982,0.80472 -2.0625,1.1875 m 0,0 c -0.6643,0.38268 -2.35811,1.36707 -3.75,2.15625 m 0,0 c -1.3917,0.7891 -2.68476,1.54847 -2.90625,1.6875 M 158.02801,203.5576 c 1.7849,-0.0347 3.49415,0.0881 4.90625,0.375 m 0,0 c 1.7424,0.354 4.125,1.08107 4.125,1.25 m 0,0 c 0,0.0794 -0.2538,0.68165 -0.5625,1.34375 m 0,0 c -0.3087,0.66211 -0.8263,1.73387 -1.125,2.375 m 0,0 c -0.2986,0.64112 -0.79065,1.6714 -1.09375,2.3125 m 0,0 c -0.3031,0.6411 -0.63965,1.42952 -0.78125,1.75 m 0,0 c -0.751,1.69931 -1.06525,2.28125 -1.15625,2.28125 m -1.21875,-0.21875 c -4.3995,-0.93103 -8.9658,0.59325 -12.0625,4.03125 m 0,0 c -0.4687,0.52041 -1.4375,1.93953 -1.4375,2.09375 m 0,0 c 0,0.0312 -0.1524,0.24294 -0.3125,0.5 m 0,0 c -0.8416,1.35112 -1.5044,4.45294 -1.375,6.375 m 0,0 c 0.1187,1.76278 0.40145,3.25459 0.84375,4.28125 m 0,0 c 0.1518,0.35287 0.2007,0.5772 0.125,0.625 m 0,0 c -0.065,0.0408 -0.63755,0.13345 -1.28125,0.21875 m 0,0 c -0.6438,0.0852 -1.7416,0.2162 -2.4375,0.3125 m 0,0 c -0.696,0.0965 -1.58935,0.2106 -1.96875,0.25 m 0,0 c -0.3796,0.0391 -1.48805,0.18529 -2.46875,0.3125 m 0,0 c -3.0189,0.39197 -2.83605,0.37625 -2.96875,0.125 m 35.46875,-26.84375 c 0.5118,0.002 3.6834,2.6326 5,4.125 m 0,0 c 1.6809,1.90507 3.0208,3.8304 2.75,4 m 0,0 c -0.0756,0.0476 -2.69,0.1119 -5.8125,0.125 m 144.0625,-8.09375 c 0.0542,-0.017 0.0983,0.012 0.15625,0.0313 m 0,0 c 0.5666,0.1877 2.96835,2.8793 3.96875,4.4375 m 0,0 c 0.8818,1.37327 1.6751,2.78303 2,3.625 m 0,0 c 0.1703,0.441 0.36985,0.96747 0.46875,1.1875 m 0,0 c 0.369,0.82106 1.0238,3.24735 1.25,4.625 m 0,0 c 0.275,1.67588 0.3165,2.46972 0.1875,5.125 m 0,0 c -0.1058,2.17847 -0.2155,3.09522 -0.4375,4.09375 m 0,0 c -0.5679,2.55497 -1.30695,4.46241 -2.71875,7.03125 m 0,0 c -0.8944,1.62741 -3.2319,4.575 -4.625,5.8125 m 0,0 c -0.3108,0.27609 -0.6859,0.607 -0.8125,0.71875 m 0,0 c -2.8153,2.48935 -7.24385,4.58722 -11.15625,5.28125 m 0,0 c -0.9799,0.17381 -4.5875,0.4631 -4.6875,0.375 m -6.75,-17.5937 c 0.425,-0.37688 0.64055,-0.33171 1.28125,0.25 m -124.1875,-2.34385 c 0.05,-0.0521 0.7164,0.16922 1.5,0.46875 m 0,0 c 1.2947,0.49463 2.77895,1.017 4.15625,1.5 m 0,0 c 0.2848,0.0998 0.59215,0.22685 0.71875,0.28125 m 0,0 c 0.1266,0.0544 0.71185,0.26091 1.28125,0.46875 m 0,0 c 2.6596,0.97106 2.8125,1.07059 2.8125,1.375 m 0,0 c 0,0.15638 -0.034,0.35738 -0.0937,0.46875 m 0,0 c -0.0599,0.11129 -0.2051,0.4949 -0.3125,0.84375 m 0,0 c -0.1073,0.34865 -0.3547,1.00665 -0.5625,1.46875 m 0,0 c -0.2077,0.462 -0.41665,0.87535 -0.46875,0.90625 m -35.4688,8.65625 c 0.5117,0.0467 1.88155,0.24985 3.21875,0.46875 m 0,0 c 0.1581,0.026 0.6832,0.0859 1.1875,0.15625 m 0,0 c 0.5043,0.0701 0.93535,0.1678 0.96875,0.1875 m 0,0 c 0.0335,0.0199 0.40165,0.0506 0.78125,0.0937 m 0,0 c 0.3795,0.043 1.0263,0.1266 1.4375,0.1875 m 0,0 c 0.4112,0.061 1.335,0.215 2.0625,0.3125 m 0,0 c 0.7276,0.0974 2.39015,0.3356 3.71875,0.53125 m 0,0 c 1.3286,0.19557 2.7453,0.385 3.125,0.4375 m 0,0 c 0.3795,0.0521 0.81055,0.11685 0.96875,0.15625 m 0,0 c 0.1581,0.0397 0.5278,0.0969 0.8125,0.125 m 0,0 c 0.7514,0.0753 3.9468,0.58 4,0.625 m 0,0 c 0.1036,0.0884 -0.25835,0.39538 -0.59375,0.5 m 0,0 c -0.1988,0.0619 -0.683,0.20979 -1.0625,0.34375 m 0,0 c -1.0368,0.36582 -3.3556,0.7934 -4.6875,0.875 m 0,0 c -0.6497,0.0394 -1.18715,0.0824 -1.21875,0.0937"
           id="path3823"
           inkscape:connector-curvature="0"
           sodipodi:nodetypes="ccccsccccccsccccccccccccsccccsccccccccccccccccccccccccccccccscccccsccscsccccccccscccccscccccsccccsscsccccccccccccccccscccccccccccscccccsssscccccccccscsscccccccccccccccccscccccccscccccccscccccsccccccsccssccccccccccccccccccsccscscccccccsccccsccccccccscssccscsccscccccccccccsccccccccccccccccccccccsscccccccccccscccccccscccccccccsccccccccccccccccccccccccccccccccccccccccccccc" />
        <path
           style="fill:none;stroke:#000000;stroke-width:10;stroke-opacity:1;filter:url(#filter)"
           d="m 237.45813,132.25244 c -10.09749,0.44833 -15.35432,-2.09698 -24.83642,-1.78859 m -11.65625,9.4375 c 5.4836,-0.0704 11.5199,-0.1512 14.75,-0.25 M 115.62171,226.5264 c 0.1057,-0.0914 0.58765,-0.35563 1.09375,-0.59375 m 0,0 c 2.44099,-1.0598 5.55746,-0.12865 7.0625,-0.125 m 1.5,10.15625 c -1.84406,0.27197 -3.032,-1.29419 -5.1875,-1.84375 m -0.71875,12.5625 c 2.7603,-1.01681 4.8055,-2.34137 8.8125,-2.125 m 30.78125,17.5 c 0.0524,0.0532 1.50715,-0.0547 3.65625,-0.25 m 0,0 c 2.2114,-0.2009 6.59405,-1.29547 8.40625,-2.09375 m 0,0 c 0.1897,-0.0836 0.44515,-0.17285 0.59375,-0.21875 m 0,0 c 0.1486,-0.0455 0.94925,-0.435 1.78125,-0.84375 m 0,0 c 2.4989,-1.22765 4.7642,-2.61866 6.25,-3.875 m 0,0 c 0.1947,-0.16453 0.5642,-0.46406 0.8125,-0.65625 m 0,0 c 0.2482,-0.19228 0.71485,-0.58222 1.03125,-0.875 m 0,0 c 1.3744,-1.27265 5.83388,-4.7385 8.65625,-8.90625 m 36.875,4.09375 c 1.9829,-0.98344 26.86065,-3.45346 28.34375,-5.15625 m 0,0 c 0.87977,-1.01016 1.68753,-2.28783 2.375,-3.6875 m 0,0 c 0,0 2.54111,-3.44054 1.59375,-10.1875 m 0,0 c -0.94735,-6.74697 -5.50677,-10.81572 -6.625,-11.65625 m 0,0 c -0.5562,-0.41812 -1,-0.81185 -1,-0.84375 m 0,0 c 0,-0.0319 0.11745,-0.20506 0.28125,-0.40625 m 0,0 c 0.1639,-0.20119 0.6707,-0.88416 1.125,-1.5 m 0,0 c 0.8031,-1.08891 1.32655,-1.72143 2.40625,-3.09375 m 0,0 c 0.4988,-0.6338 1.62275,-2.13939 2.96875,-3.9375 m 0,0 c 0.3407,-0.4551 0.79975,-1.05524 1.03125,-1.34375 m 0,0 c 0.2317,-0.28851 0.5167,-0.65221 0.625,-0.8125 m 0,0 c 0.1082,-0.16029 0.44945,-0.64021 0.78125,-1.0625 m 0,0 c 0.5708,-0.72664 2.90845,-3.72638 3.78125,-4.875 m 0,0 c 0.8081,-1.06355 3.00765,-3.93713 3.96875,-5.1875 m 0,0 c 0.5421,-0.70525 1.16905,-1.53389 1.40625,-1.84375 m 0,0 c 0.5949,-0.7769 0.71295,-0.92333 1.28125,-1.625 m 0,0 c 0.4427,-0.54638 1.3772,-1.81771 3.125,-4.1875 m 0,0 c 0.4356,-0.59073 0.66405,-0.79322 1.09375,-0.96875 m 0,0 c 0.3033,-0.12385 1.0373,-0.4419 1.625,-0.71875 m 0,0 c 0.5876,-0.27686 1.0962,-0.5 1.125,-0.5 m 0,0 c 0.0464,0 1.2971,-0.56138 3,-1.34375 m 0,0 c 1.9243,-0.88412 4.07845,-1.8125 4.21875,-1.8125 m -17.21875,67.9375 c 0.0687,0.005 2.19575,-1.30478 3.28125,-2.03125 m 0,0 c 0.3229,-0.216 0.6529,-0.40625 0.75,-0.40625 m 29.8125,14.75 c 1.2281,-0.0413 4.13665,-0.31931 4.90625,-0.46875 m 0,0 c 1.1287,-0.21947 2.07645,-0.4109 2.46875,-0.5 m 0,0 c 0.8137,-0.18535 3.60835,-1.06553 3.78125,-1.1875 m 0,0 c 0.0634,-0.0446 0.4022,-0.16707 0.75,-0.28125 m 0,0 c 0.9453,-0.3105 3.04225,-1.33056 4.78125,-2.3125 m 0,0 c 0.3165,-0.1786 0.67055,-0.36685 0.78125,-0.40625 m 0,0 c 0.1107,-0.0389 0.1875,-0.10375 0.1875,-0.15625 m 0,0 c 0,-0.0523 0.1125,-0.11215 0.25,-0.15625 m 0,0 c 0.1375,-0.0443 0.3069,-0.1303 0.375,-0.1875 m 0,0 c 0.1196,-0.10069 1.7026,-1.23081 2.0625,-1.46875 m 0,0 c 1.0584,-0.69928 3.65165,-3.04425 5.15625,-4.6875 m 0,0 c 1.4643,-1.59891 3.4449,-4.29987 4.4375,-6.03125 m 0,0 c 0.7564,-1.31915 0.86805,-1.51181 1.03125,-1.875 m 0,0 c 0.0939,-0.20888 0.3383,-0.75432 0.5625,-1.21875 m 0,0 c 1.5822,-3.276 2.68665,-7.00253 3.21875,-10.9375 m 0,0 c 0.2421,-1.79007 0.29745,-2.83837 0.28125,-5.0625 m 0,0 c -0.0173,-2.35903 -0.11865,-3.52365 -0.46875,-5.78125 m 0,0 c -0.3604,-2.3234 -1.51075,-6.3743 -2.21875,-7.8125 m 0,0 c -0.1023,-0.2076 -0.1875,-0.439 -0.1875,-0.5 m 0,0 c 0,-0.19851 -1.54115,-3.27516 -2.21875,-4.40625 m 0,0 -0.6875,-1.09375 m 0,0 0.40625,-0.3125 m 0,0 c 0.3869,-0.3355 1.86115,-1.45439 2.84375,-2.15625 m 0,0 c 0.8605,-0.6147 0.869,-0.67603 0.625,-1.0625 m 0,0 c -1.2757,-2.02109 -4.67315,-5.86986 -6.78125,-7.71875 m 0,0 c -1.1573,-1.01501 -4.95005,-3.84375 -5.15625,-3.84375 m 0,0 c -0.0263,0 -0.5317,-0.29466 -1.125,-0.65625 m 0,0 c -2.2605,-1.37769 -6.1281,-3.08 -8.5625,-3.78125 m 0,0 c -5.1011,-1.46947 -10.5435,-2.05641 -15.3125,-1.59375 m -2.5,0.375 -1.56245,-5.96875 m 0,0 c 0.0155,-0.90314 0.0762,-1.70135 0.125,-1.78125 m 4.28125,0.0937 c 1.2927,0.11087 1.2996,0.10019 1.25,-1.1875 m 0,0 c -0.0202,-0.5252 -0.0827,-5.30366 -0.125,-10.625 m 0,0 c -0.0433,-5.45411 -0.0978,-9.71985 -0.15625,-9.78125 m -19.59375,12.40625 c -0.4591,-0.19829 -1.7521,-0.30495 -2.625,-0.21875 m -4.40625,1.65625 c -8.88004,-1.56039 -17.68062,-3.21928 -26.40625,-4.75 m 0,0 c -2.9195,-0.51247 -2.875,-0.52238 -2.875,-0.65625 m 0,0 c 4.02121,-5.72448 8.81771,-11.58355 13.34375,-17.65625 m 0,0 c 0.095,-0.14226 0.24885,-0.33619 0.34375,-0.4375 m 0,0 c 0.1885,-0.20117 0.3154,-0.3623 1.6875,-2.1875 m 0,0 c 1.5144,-3.31819 3.56575,-2.28609 6.09375,-3.21875 m 0,0 c 0.3932,-0.15483 0.872,-0.30515 1.0625,-0.34375 m 0,0 c 1.0235,-0.35112 0.42565,-1.87353 0.59375,-2.75 m 0,0 c -0.0131,-2.38244 0.0208,-2.17708 0.1875,-3.34375 m 0,0 c 1.25,-0.16667 1.988,-0.19975 2.1875,-0.34375 m 0,0 c 0.1996,-0.14401 0.40615,-0.25 0.46875,-0.25 m 0,0 c 0.3048,0 0.2752,-0.40013 -0.375,-4.65625 m 0,0 c -0.0931,-0.60908 -0.1865,-1.33729 -0.1875,-1.59375 m 0,0 0,-0.46875 m 0,0 0.78125,-0.0313 m 0,0 c 0.425,-0.0209 7.63074,-0.65355 7.68194,-0.68565 m 0,0 c 0.0963,-0.0603 1.26011,-0.23099 0.96506,-1.90625 m 0,0 c -0.3056,-1.73505 -9.07105,-3.17521 -9.86575,-4.3456 m 0,0 c -0.196,-0.28873 -0.34375,-0.55625 -0.34375,-0.59375 m 0,0 c 0,-0.18516 -1.1488,-1.62642 -1.9375,-2.4375 m 0,0 c -2.7085,-2.78526 -6.63595,-4.49565 -10.40625,-4.53125 m -28.53125,66.87505 c 0.71311,-0.007 1.68385,-0.0146 2.75,0 m 7.25,8.21865 c -0.0762,-0.006 -0.5255,-0.30796 -1,-0.65625 m 0,0 c -0.47459,-0.34829 -1.05985,-0.75191 -1.28125,-0.90625 m 0,0 c -0.22139,-0.15433 -0.70945,-0.50447 -1.09375,-0.78125 m 0,0 c -0.72449,-0.52191 -3.38155,-2.41886 -5.53125,-3.9375 m 0,0 c -1.4847,-1.04878 -2.3281,-1.77822 -2.25,-1.90625 m 0,0 c 0.0158,-0.0259 0.44314,-0.0238 1.15625,-0.0313 m -20.0625,35.25015 -12.75,-1.1875 m 0,0 c -0.67674,-8.64749 -6.27122,-11.13632 -9.75,-16.28125 m 115.125,4.78125 c 0.45715,-0.0303 1.06025,-0.0101 1.71875,0 m 4.03125,15.96875 c -0.0389,-0.007 -0.4939,-0.16281 -1,-0.34375 m 0,0 c -0.5062,-0.18094 -1.16935,-0.36125 -1.46875,-0.40625 m 0,0 c -0.2995,-0.045 -0.5727,-0.14655 -0.625,-0.21875 m 0,0 c -0.0737,-0.10144 -0.5581,-1.90788 -0.6875,-2.59375 m 0,0 c -0.0617,-0.32709 -1.88985,-7.87476 -2.03125,-8.375 m 0,0 c -0.0905,-0.32057 -0.3582,-1.2747 -0.5625,-2.125 m 0,0 c -0.2951,-1.22815 -0.33175,-1.60417 -0.21875,-1.71875 m 0,0 c 0.0754,-0.0764 0.3866,-0.15721 0.84375,-0.1875 m -79.25,11.4375 c 1.80746,-5.19644 0.21119,-7.45476 -2.5,-10.84375 m 62.875,34.5625 c -0.84401,0.52987 -0.8579,0.51625 -1.4375,-0.78125 m 0,0 c -0.9555,-2.13891 -1.52555,-4.19915 -1.90625,-6.75 m 0,0 c -0.2138,-1.43259 -0.2375,-2.00291 -0.1875,-3.78125 m 0,0 c 0.0325,-1.15407 0.0634,-2.21559 0.0937,-2.34375 m 0,0 c 0.0308,-0.12834 0.11095,-0.52232 0.15625,-0.875 m 0,0 c 0.2054,-1.60125 0.8742,-3.96556 1.625,-5.75 m 0,0 c 1.49081,-3.54253 4.58225,-7.649 7.40625,-9.78125 m 0,0 c 0.91591,-0.6915 2.12925,-1.49764 2.40625,-1.625 m 0,0 c 0.0948,-0.0436 0.341,-0.20718 0.5625,-0.34375 m 0,0 c 0.84299,-0.51992 2.13255,-1.12665 2.40625,-1.15625 m 0,0 c 0.0352,-0.004 0.0641,-0.0313 0.0937,-0.0313 M 162.34051,215.2451 c -0.0552,0 -0.60015,-0.088 -1.21875,-0.21875 m -25.34375,19.125 c -0.1559,-0.29541 -0.5515,-2.18231 -0.75,-3.5625 m 0,0 c -0.1712,-1.1865 -0.1687,-4.62307 0,-5.96875 m 0,0 c 0.7645,-6.09591 3.66015,-11.55475 8.21875,-15.4375 m 0,0 c 0.7591,-0.64656 2.38905,-1.83385 3.09375,-2.25 m 0,0 c 1.1994,-0.70808 3.6005,-1.79957 4.5625,-2.09375 m 0,0 c 0.5694,-0.17411 1.1852,-0.3742 1.375,-0.4375 m 0,0 c 0.5909,-0.19706 3.1386,-0.6854 3.9375,-0.75 m 0,0 c 0.60275,-0.0487 1.21753,-0.0822 1.8125,-0.0937 m 15.15625,11.99995 c -4.8083,0.0199 -5.697,-0.0164 -5.75,-0.15625 m 0,0 c -0.0344,-0.0908 0.1363,-0.56712 0.375,-1.0625 m 0,0 c 0.2389,-0.49547 0.69105,-1.5128 1.03125,-2.25 m 0,0 c 0.3401,-0.7373 0.69225,-1.4952 0.78125,-1.6875 m 0,0 c 0.8824,-1.90648 1.5197,-3.09411 1.625,-3.09375 m 129.59375,42.50005 c -0.0104,-0.009 -0.61615,-0.0582 -1.34375,-0.0937 m 0,0 c -0.7275,-0.0356 -1.65175,-0.1172 -2.03125,-0.1875 m 0,0 c -5.0911,-0.94106 -9.38515,-3.2205 -12.96875,-6.84375 m 0,0 c -1.3134,-1.32778 -2.909,-3.37769 -2.75,-3.53125 m 0,0 c 0.1116,-0.10781 2.65065,-1.56038 4.28125,-2.4375 m 0,0 c 0.5379,-0.28922 1.4615,-0.8045 2.0625,-1.15625 m 0,0 c 0.6011,-0.35175 1.43265,-0.83994 1.84375,-1.0625 m 0,0 c 1.4227,-0.77006 2.26665,-1.20906 3.03125,-1.65625 m 0,0 c 0.4222,-0.24703 0.79655,-0.46875 0.84375,-0.46875 m 0,0 c 0.0472,0 0.18145,-0.0682 0.28125,-0.15625 m 1.28125,0.25 c 3.679,3.34116 9.19335,3.10457 12.53125,-0.53125 m 0,0 c 0.9574,-1.04297 1.27185,-1.50803 1.84375,-2.6875 m 0,0 c 0.5594,-1.15453 0.8238,-3.44385 0.5625,-4.90625 m 0,0 c -0.0744,-0.41672 -0.14045,-0.8584 -0.15625,-0.96875 m 0,0 c -0.0157,-0.11034 -0.081,-0.23625 -0.125,-0.28125 m 0,0 c -0.044,-0.0446 -0.0625,-0.13535 -0.0625,-0.21875 m 0,0 c 0,-0.31331 -0.87255,-1.97293 -1.40625,-2.6875 m 0,0 -0.53125,-0.75 m 0,0 0.75,-1 m 0,0 c 2.4218,-3.21262 3.58845,-4.75526 5.21875,-6.875 m 0,0 c 0.7276,-0.9459 1.5895,-2.07016 1.9375,-2.53125 m 0,0 c 0.8892,-1.17808 1.14975,-1.51141 1.3125,-1.5625 m -137.0312,30.4374 c -0.052,0.0307 -0.2786,-0.0103 -0.5,-0.0937 m 0,0 c -1.9688,-0.74043 -6.6922,-2.44587 -8.6875,-3.125 m 0,0 c -0.5695,-0.19387 -1.1153,-0.39655 -1.1875,-0.46875 m 0,0 c -0.0984,-0.0978 0.005,-0.3715 0.34375,-1.09375 m 0,0 c 0.2489,-0.53119 0.559,-1.41091 0.6875,-1.9375 m 0,0 c 0.1286,-0.52679 0.2623,-1.01 0.3125,-1.0625 m -26.93755,16.43745 c 0.0515,-0.0222 0.19595,-0.0276 0.5,0 m 14.71875,5.09365 c -0.0317,0.0112 -0.86315,-0.0203 -1.84375,-0.0625 m 0,0 c -1.6298,-0.0702 -3.34265,-0.29485 -4.21875,-0.5625 m 0,0 c -0.1898,-0.058 -0.7439,-0.20772 -1.25,-0.34375 m 0,0 c -0.9667,-0.26006 -2.21095,-0.68097 -2.40625,-0.8125 m 0,0 c -0.0633,-0.0426 -0.3711,-0.16444 -0.6875,-0.28125 m 0,0 c -0.3163,-0.11672 -0.7169,-0.30088 -0.875,-0.40625 m 0,0 c -0.1581,-0.10547 -0.58915,-0.34497 -0.96875,-0.53125 m 0,0 c -0.7899,-0.38756 -2.5667,-1.56106 -2.875,-1.90625 m 0,0 c -0.1025,-0.11469 -0.14534,-0.16527 -0.0937,-0.1875"
           id="path3825"
           inkscape:connector-curvature="0"
           sodipodi:nodetypes="ccccsccccccsccccccccccccsccccsccccccccccccccccccccccccccccccscccccsccscsccccccccscccccscccccsccccsscsccccccccccccccccscccccccccccscccccsssscccccccccscsscccccccccccccccccscccccccscccccccscccccsccccccsccssccccccccccccccccccsccscscccccccsccccsccccccccscssccscsccscccccccccccsccccccccccccccccccccccsscccccccccccscccccccscccccccccsccccccccccccccccccccccccccccccccccccccccccccc" />
      </g>
    </g>
  </g>
</svg>
