<?xml version="1.0" encoding="UTF-8" standalone="no"?>
<!-- Created with Inkscape (http://www.inkscape.org/) -->

<svg
   xmlns:dc="http://purl.org/dc/elements/1.1/"
   xmlns:cc="http://creativecommons.org/ns#"
   xmlns:rdf="http://www.w3.org/1999/02/22-rdf-syntax-ns#"
   xmlns:svg="http://www.w3.org/2000/svg"
   xmlns="http://www.w3.org/2000/svg"
   xmlns:xlink="http://www.w3.org/1999/xlink"
   xmlns:sodipodi="http://sodipodi.sourceforge.net/DTD/sodipodi-0.dtd"
   xmlns:inkscape="http://www.inkscape.org/namespaces/inkscape"
   width="255"
   height="255"
   viewBox="0 0 71.966932 71.966932"
   version="1.1"
   id="svg8"
   inkscape:version="0.92.5 (2060ec1f9f, 2020-04-08)"
   sodipodi:docname="xterm-color.svg">
  <defs
     id="defs2">
    <linearGradient
       id="linearGradient3166">
      <stop
         id="stop3168"
         stop-color="#000000"
         stop-opacity="1" />
      <stop
         offset="1"
         id="stop3170"
         stop-color="#7c7c7c"
         stop-opacity="0" />
    </linearGradient>
    <linearGradient
       id="linearGradient3156">
      <stop
         id="stop3158"
         stop-color="#000000"
         stop-opacity="1" />
      <stop
         id="stop3160"
         offset="1"
         stop-color="#7c7c7c"
         stop-opacity="1" />
    </linearGradient>
    <linearGradient
       gradientTransform="matrix(2.2131495,0,0,2.2131495,0.72557941,221.15124)"
       y2="24.23"
       x2="17.040001"
       y1="18.08"
       x1="12.421"
       spreadMethod="reflect"
       gradientUnits="userSpaceOnUse"
       id="linearGradient2409"
       xlink:href="#linearGradient3166"
       inkscape:collect="always" />
    <linearGradient
       gradientTransform="matrix(2.2131495,0,0,2.2131495,0.72557941,221.15124)"
       y2="10.31"
       x2="18.441"
       y1="20.15"
       x1="8.2030001"
       spreadMethod="reflect"
       gradientUnits="userSpaceOnUse"
       id="linearGradient2412"
       xlink:href="#linearGradient3156"
       inkscape:collect="always" />
    <linearGradient
       id="linearGradient1414"
       inkscape:collect="always">
      <stop
         id="stop1410"
         offset="0"
         style="stop-color:#14466f;stop-opacity:1" />
      <stop
         id="stop1412"
         offset="1"
         style="stop-color:#0a4473;stop-opacity:0.2927928" />
    </linearGradient>
    <linearGradient
       id="linearGradient1404"
       inkscape:collect="always">
      <stop
         id="stop1400"
         offset="0"
         style="stop-color:#2069a4;stop-opacity:1" />
      <stop
         id="stop1402"
         offset="1"
         style="stop-color:#1a588a;stop-opacity:0;" />
    </linearGradient>
    <linearGradient
       id="linearGradient1394"
       inkscape:collect="always">
      <stop
         id="stop1390"
         offset="0"
         style="stop-color:#1a588a;stop-opacity:1;" />
      <stop
         id="stop1392"
         offset="1"
         style="stop-color:#1a588a;stop-opacity:0;" />
    </linearGradient>
    <linearGradient
       id="linearGradient1366"
       inkscape:collect="always">
      <stop
         id="stop1362"
         offset="0"
         style="stop-color:#1b669c;stop-opacity:1;" />
      <stop
         id="stop1364"
         offset="1"
         style="stop-color:#1b669c;stop-opacity:0;" />
    </linearGradient>
    <linearGradient
       id="linearGradient1354"
       inkscape:collect="always">
      <stop
         id="stop1350"
         offset="0"
         style="stop-color:#ffffff;stop-opacity:1" />
      <stop
         id="stop1352"
         offset="1"
         style="stop-color:#9ccef7;stop-opacity:0;" />
    </linearGradient>
    <linearGradient
       id="linearGradient1342"
       inkscape:collect="always">
      <stop
         id="stop1338"
         offset="0"
         style="stop-color:#1f78b9;stop-opacity:1;" />
      <stop
         id="stop1340"
         offset="1"
         style="stop-color:#65b5ef;stop-opacity:1" />
    </linearGradient>
    <linearGradient
       id="linearGradient1326"
       inkscape:collect="always">
      <stop
         id="stop1322"
         offset="0"
         style="stop-color:#b5deff;stop-opacity:1" />
      <stop
         style="stop-color:#8ec6ff;stop-opacity:1"
         offset="0.23176664"
         id="stop1330" />
      <stop
         id="stop1358"
         offset="0.82862145"
         style="stop-color:#2c85ca;stop-opacity:1;" />
      <stop
         id="stop1324"
         offset="1"
         style="stop-color:#18669f;stop-opacity:1" />
    </linearGradient>
    <linearGradient
       id="linearGradient1316"
       inkscape:collect="always">
      <stop
         id="stop1312"
         offset="0"
         style="stop-color:#5ab0f0;stop-opacity:1" />
      <stop
         id="stop1314"
         offset="1"
         style="stop-color:#16527e;stop-opacity:1" />
    </linearGradient>
    <linearGradient
       id="linearGradient1306"
       inkscape:collect="always">
      <stop
         id="stop1302"
         offset="0"
         style="stop-color:#4aa5e9;stop-opacity:1" />
      <stop
         id="stop1304"
         offset="1"
         style="stop-color:#034e86;stop-opacity:1" />
    </linearGradient>
    <linearGradient
       id="linearGradient1292"
       inkscape:collect="always">
      <stop
         id="stop1288"
         offset="0"
         style="stop-color:#307cb6;stop-opacity:0" />
      <stop
         id="stop1290"
         offset="1"
         style="stop-color:#174d77;stop-opacity:1" />
    </linearGradient>
    <linearGradient
       id="linearGradient1280"
       inkscape:collect="always">
      <stop
         id="stop1276"
         offset="0"
         style="stop-color:#0f558b;stop-opacity:1" />
      <stop
         id="stop1278"
         offset="1"
         style="stop-color:#4daefa;stop-opacity:1" />
    </linearGradient>
    <linearGradient
       gradientTransform="translate(-24.519576,0.22808908)"
       gradientUnits="userSpaceOnUse"
       y2="260.88556"
       x2="56.03928"
       y1="295.89725"
       x1="56.740852"
       id="linearGradient1282"
       xlink:href="#linearGradient1280"
       inkscape:collect="always" />
    <linearGradient
       gradientTransform="translate(38.406791,-0.74000888)"
       gradientUnits="userSpaceOnUse"
       y2="293.85379"
       x2="15.118032"
       y1="284.01147"
       x1="7.499959"
       id="linearGradient1294"
       xlink:href="#linearGradient1292"
       inkscape:collect="always" />
    <linearGradient
       gradientTransform="translate(38.164767,-0.41730956)"
       gradientUnits="userSpaceOnUse"
       y2="267.28333"
       x2="8.6611881"
       y1="265.75049"
       x1="-18.726402"
       id="linearGradient1308"
       xlink:href="#linearGradient1306"
       inkscape:collect="always" />
    <linearGradient
       gradientTransform="translate(38.164767,-0.2559599)"
       gradientUnits="userSpaceOnUse"
       y2="262.06973"
       x2="3.7730653"
       y1="260.21423"
       x1="-16.69199"
       id="linearGradient1318"
       xlink:href="#linearGradient1316"
       inkscape:collect="always" />
    <radialGradient
       gradientUnits="userSpaceOnUse"
       gradientTransform="matrix(0.61323718,1.8869338,-1.2340861,0.40106734,327.39039,172.04993)"
       r="13.766935"
       fy="239.22475"
       fx="-16.134777"
       cy="239.22475"
       cx="-16.134777"
       id="radialGradient1328"
       xlink:href="#linearGradient1326"
       inkscape:collect="always" />
    <linearGradient
       gradientTransform="translate(27.142601,0.91235632)"
       gradientUnits="userSpaceOnUse"
       y2="251.24817"
       x2="12.931633"
       y1="251.24817"
       x1="7.4118466"
       id="linearGradient1344"
       xlink:href="#linearGradient1342"
       inkscape:collect="always" />
    <radialGradient
       gradientUnits="userSpaceOnUse"
       gradientTransform="matrix(7.7831008e-4,1.7365545,-1.2971738,5.8138104e-4,331.37269,154.95697)"
       r="9.8181"
       fy="237.58372"
       fx="47.742039"
       cy="237.58372"
       cx="47.742039"
       id="radialGradient1356"
       xlink:href="#linearGradient1354"
       inkscape:collect="always" />
    <linearGradient
       gradientTransform="translate(-24.716049,-0.23034739)"
       gradientUnits="userSpaceOnUse"
       y2="253.84993"
       x2="53.11314"
       y1="259.67862"
       x1="59.400269"
       id="linearGradient1368"
       xlink:href="#linearGradient1366"
       inkscape:collect="always" />
    <linearGradient
       gradientTransform="translate(-24.519576,0.22808908)"
       gradientUnits="userSpaceOnUse"
       y2="268.74066"
       x2="56.322193"
       y1="255.83894"
       x1="57.632011"
       id="linearGradient1386"
       xlink:href="#linearGradient1394"
       inkscape:collect="always" />
    <linearGradient
       gradientTransform="translate(-24.519576,0.22808908)"
       gradientUnits="userSpaceOnUse"
       y2="269.36688"
       x2="62.740303"
       y1="255.02437"
       x1="60.775578"
       id="linearGradient1396"
       xlink:href="#linearGradient1394"
       inkscape:collect="always" />
    <linearGradient
       gradientTransform="translate(-24.519576,0.22808908)"
       gradientUnits="userSpaceOnUse"
       y2="265.75858"
       x2="54.619431"
       y1="263.40091"
       x1="53.178627"
       id="linearGradient1406"
       xlink:href="#linearGradient1404"
       inkscape:collect="always" />
    <linearGradient
       gradientTransform="translate(38.155238,-0.81976572)"
       gradientUnits="userSpaceOnUse"
       y2="288.49731"
       x2="5.5353146"
       y1="288.75928"
       x1="-1.4398164"
       id="linearGradient1416"
       xlink:href="#linearGradient1414"
       inkscape:collect="always" />
    <filter
       height="1.0457398"
       y="-0.022869883"
       width="1.0504951"
       x="-0.025247613"
       id="filter1505"
       style="color-interpolation-filters:sRGB"
       inkscape:collect="always">
      <feGaussianBlur
         id="feGaussianBlur1507"
         stdDeviation="0.5268046"
         inkscape:collect="always" />
    </filter>
  </defs>
  <sodipodi:namedview
     id="base"
     pagecolor="#ff0000"
     bordercolor="#666666"
     borderopacity="1.0"
     inkscape:pageopacity="0"
     inkscape:pageshadow="2"
     inkscape:zoom="3.5254902"
     inkscape:cx="127.5"
     inkscape:cy="127.5"
     inkscape:document-units="mm"
     inkscape:current-layer="layer1"
     showgrid="false"
     inkscape:snap-to-guides="false"
     inkscape:snap-grids="false"
     inkscape:snap-others="false"
     inkscape:object-nodes="false"
     inkscape:snap-nodes="false"
     inkscape:snap-global="false"
     inkscape:window-width="1920"
     inkscape:window-height="1056"
     inkscape:window-x="0"
     inkscape:window-y="0"
     inkscape:window-maximized="1" />
  <metadata
     id="metadata5">
    <rdf:RDF>
      <cc:Work>
        <dc:format>image/svg+xml</dc:format>
        <dc:type
           rdf:resource="http://purl.org/dc/dcmitype/StillImage" />
        <dc:title></dc:title>
      </cc:Work>
    </rdf:RDF>
  </metadata>
  <g
     inkscape:label="Layer 1"
     inkscape:groupmode="layer"
     id="layer1"
     transform="translate(0,-225.03307)">
    <rect
       id="rect2384"
       width="66.673523"
       height="49.780869"
       x="2.5031142"
       y="232.26343"
       ry="4.1230807"
       stroke-miterlimit="4"
       rx="4.1230807"
       style="fill:url(#linearGradient2412);fill-opacity:1;stroke:#000000;stroke-width:2.21319747;stroke-linecap:round;stroke-linejoin:round;stroke-miterlimit:4;stroke-dasharray:none;stroke-opacity:0.69100001" />
    <rect
       ry="3.2464514"
       y="233.00418"
       x="3.6894863"
       height="48.144493"
       width="64.835526"
       id="rect3164"
       stroke-miterlimit="4"
       rx="3.2464514"
       style="fill:url(#linearGradient2409);fill-opacity:1;stroke:none;stroke-width:0.28256691;stroke-linecap:round;stroke-linejoin:round;stroke-miterlimit:4;stroke-dasharray:none;stroke-opacity:1" />
    <g
       aria-label="User #&gt;_"
       id="text1541"
       font-style="normal"
       word-spacing="0"
       line-height="1.25"
       font-weight="bold"
       font-stretch="normal"
       letter-spacing="0"
       font-variant="normal"
       font-size="22.578"
       style="font-style:normal;font-variant:normal;font-weight:bold;font-stretch:normal;font-size:22.57799911px;line-height:1.25;font-family:'Arial Black';letter-spacing:0;word-spacing:0;fill:#ffffff;fill-opacity:1;stroke:none;stroke-width:0.26499999"
       transform="matrix(0.29220984,0,0,0.29220984,0.15959106,211.518)">
      <path
         d="m 34.458008,81.122136 h 4.982986 v 9.635243 q 0,1.43316 -0.451997,2.711979 -0.440972,1.267795 -1.400087,2.22691 -0.94809,0.94809 -1.995399,1.333941 -1.455208,0.540191 -3.494705,0.540191 -1.1796,0 -2.579687,-0.165365 -1.389063,-0.165365 -2.326129,-0.650434 -0.937066,-0.496094 -1.719791,-1.400087 -0.771702,-0.903993 -1.058334,-1.863107 -0.463021,-1.543403 -0.463021,-2.734028 v -9.635243 h 4.982986 v 9.866753 q 0,1.322917 0.727605,2.07257 0.738628,0.738628 2.039496,0.738628 1.289844,0 2.017448,-0.727604 0.738629,-0.738629 0.738629,-2.083594 z"
         id="path1543"
         font-style="normal"
         font-weight="bold"
         font-stretch="normal"
         font-variant="normal"
         inkscape:connector-curvature="0"
         style="font-style:normal;font-variant:normal;font-weight:bold;font-stretch:normal;font-family:'Arial Black';fill:#ffffff;fill-opacity:1;stroke-width:0.26499999" />
      <path
         d="m 41.678927,94.042622 4.45382,-0.418924 q 0.275607,0.79375 0.771701,1.135504 0.496094,0.341753 1.322917,0.341753 0.903993,0 1.400087,-0.385851 0.38585,-0.286631 0.38585,-0.716579 0,-0.48507 -0.507118,-0.749653 -0.363802,-0.187413 -1.929253,-0.463021 -2.337153,-0.407899 -3.25217,-0.749653 -0.903993,-0.352778 -1.532379,-1.1796 -0.617361,-0.826823 -0.617361,-1.885157 0,-1.157552 0.672483,-1.995399 0.672482,-0.837847 1.852083,-1.245747 1.179601,-0.418923 3.163976,-0.418923 2.094618,0 3.086805,0.319705 1.003212,0.319705 1.664671,0.992187 0.672482,0.672483 1.113454,1.819011 l -4.255382,0.418923 q -0.165364,-0.562239 -0.551215,-0.826823 -0.529167,-0.352777 -1.278819,-0.352777 -0.760677,0 -1.113455,0.275607 -0.341754,0.264583 -0.341754,0.650434 0,0.429948 0.440973,0.650434 0.440972,0.220486 1.918229,0.396875 2.237934,0.253559 3.32934,0.705556 1.091406,0.451996 1.66467,1.289844 0.584288,0.837847 0.584288,1.841059 0,1.014236 -0.617361,1.97335 -0.606337,0.959115 -1.929253,1.532379 -1.311893,0.562239 -3.5829,0.562239 -3.208072,0 -4.575086,-0.915017 -1.35599,-0.915017 -1.741841,-2.601736 z"
         id="path1545"
         font-style="normal"
         font-weight="bold"
         font-stretch="normal"
         font-variant="normal"
         inkscape:connector-curvature="0"
         style="font-style:normal;font-variant:normal;font-weight:bold;font-stretch:normal;font-family:'Arial Black';fill:#ffffff;fill-opacity:1;stroke-width:0.26499999" />
      <path
         d="m 69.272763,92.543316 h -8.995834 q 0.121268,1.080382 0.584289,1.609549 0.650434,0.760677 1.697743,0.760677 0.661458,0 1.256771,-0.330729 0.363802,-0.209462 0.782725,-0.738629 l 4.420747,0.4079 q -1.014236,1.763889 -2.447396,2.53559 -1.43316,0.760677 -4.112066,0.760677 -2.326128,0 -3.660069,-0.650434 -1.333941,-0.661458 -2.215886,-2.083594 -0.87092,-1.433159 -0.87092,-3.362413 0,-2.745052 1.752865,-4.442795 1.763888,-1.697743 4.861718,-1.697743 2.513542,0 3.96875,0.760677 1.455209,0.760677 2.215886,2.204861 0.760677,1.444184 0.760677,3.759288 z M 64.7087,90.393577 q -0.132291,-1.300868 -0.705555,-1.863108 -0.56224,-0.56224 -1.488281,-0.56224 -1.069358,0 -1.708768,0.848872 -0.407899,0.529167 -0.518142,1.576476 z"
         id="path1547"
         font-style="normal"
         font-weight="bold"
         font-stretch="normal"
         font-variant="normal"
         inkscape:connector-curvature="0"
         style="font-style:normal;font-variant:normal;font-weight:bold;font-stretch:normal;font-family:'Arial Black';fill:#ffffff;fill-opacity:1;stroke-width:0.26499999" />
      <path
         d="m 71.400457,85.575955 h 4.20026 v 1.918229 q 0.606337,-1.245746 1.245747,-1.708767 0.650434,-0.474045 1.598524,-0.474045 0.992188,0 2.171788,0.617361 l -1.389062,3.197049 q -0.79375,-0.33073 -1.256771,-0.33073 -0.881944,0 -1.367014,0.727605 -0.694531,1.02526 -0.694531,3.836458 v 3.924653 h -4.508941 z"
         id="path1549"
         font-style="normal"
         font-weight="bold"
         font-stretch="normal"
         font-variant="normal"
         inkscape:connector-curvature="0"
         style="font-style:normal;font-variant:normal;font-weight:bold;font-stretch:normal;font-family:'Arial Black';fill:#ffffff;fill-opacity:1;stroke-width:0.26499999" />
      <path
         d="m 90.340209,90.625087 0.573264,-2.789149 h -2.700955 v -3.042709 h 3.307292 l 0.782725,-3.946701 h 3.141928 l -0.804775,3.946701 h 2.414323 l 0.79375,-3.946701 h 3.130899 l -0.7717,3.946701 h 1.51033 v 3.042709 h -2.127689 l -0.562239,2.789149 h 2.689928 v 3.042708 h -3.296265 l -0.782726,3.880556 h -3.141927 l 0.771702,-3.880556 h -2.403299 l -0.79375,3.880556 h -3.119878 l 0.804774,-3.880556 h -1.543403 v -3.042708 z m 3.130903,0 h 2.414323 l 0.573264,-2.789149 H 94.0554 Z"
         id="path1551"
         font-style="normal"
         font-weight="bold"
         font-stretch="normal"
         font-variant="normal"
         inkscape:connector-curvature="0"
         style="font-style:normal;font-variant:normal;font-weight:bold;font-stretch:normal;font-family:'Arial Black';fill:#ffffff;fill-opacity:1;stroke-width:0.26499999" />
      <path
         d="m 103.64655,96.049045 12.53463,-5.214496 v -3.263195 l -12.53463,-5.203472 v 3.913629 l 7.61779,2.932465 -7.61779,2.94349 z"
         id="path1553"
         font-style="normal"
         font-weight="bold"
         font-stretch="normal"
         font-variant="normal"
         inkscape:connector-curvature="0"
         style="font-style:normal;font-variant:normal;font-weight:bold;font-stretch:normal;font-family:'Arial Black';fill:#ffffff;fill-opacity:1;stroke-width:0.26499999" />
      <path
         d="m 117.22849,98.981511 h 11.55347 v 1.124479 h -11.55347 z"
         id="path1555"
         font-style="normal"
         font-weight="bold"
         font-stretch="normal"
         font-variant="normal"
         inkscape:connector-curvature="0"
         style="font-style:normal;font-variant:normal;font-weight:bold;font-stretch:normal;font-family:'Arial Black';fill:#ffffff;fill-opacity:1;stroke-width:0.26499999" />
    </g>
    <g
       transform="matrix(0.87446239,0,0,0.87446239,11.790785,36.427396)"
       id="layer1-3"
       inkscape:label="Layer 1">
      <path
         inkscape:connector-curvature="0"
         id="path1418"
         d="m 50.199608,241.59466 c -5.275191,-0.21314 -9.994465,0.92321 -14.073209,3.61098 -0.0957,0.0567 -0.176117,0.11223 -0.254827,0.16766 -0.312104,0.21202 -0.619703,0.4356 -0.924137,0.66622 -0.05817,0.0343 -0.11897,0.0688 -0.185946,0.1038 -0.666552,0.50427 -1.246741,1.01849 -1.755663,1.54108 -0.731691,0.69236 -1.438016,1.44626 -2.117941,2.26409 l -2.514457,6.95091 -1.42659,9.04981 c -0.132361,0.93236 -0.245072,1.86283 -0.358531,2.79328 -0.0079,0.42753 0.138319,0.75074 0.391505,1.00175 -1.794501,0.32244 -3.787826,0.79595 -6.078691,1.49512 -1.195696,0.60543 -2.184411,1.21915 -3.009121,1.83978 -0.957696,0.67631 -1.720524,1.394 -2.213495,2.06452 l -0.08398,0.16414 c -0.835942,1.08232 -1.331513,2.17863 -1.682899,3.28079 l -0.09089,0.17745 -0.05377,0.12677 c -1.331137,2.23541 -2.814098,4.4952 -2.560775,6.47479 -0.904188,1.51798 0.743349,1.62536 2.033049,1.93058 6.146651,9.47936 17.616798,9.69961 28.434624,8.61908 0.06201,0.0237 0.128813,0.0465 0.193487,0.0698 1.069053,0.47871 2.239337,0.69572 3.47106,0.75505 3.20026,0.34538 7.291836,-0.0432 10.806119,-2.18799 0.999603,-0.36316 1.627784,-0.94967 2.144102,-1.60281 0.21041,-0.19421 0.416769,-0.39358 0.615782,-0.60295 l 0.0015,-0.01 c 0.14849,-0.1543 0.295914,-0.31114 0.439644,-0.47506 l 1.181002,-8.04257 c 1.028553,-1.98438 -0.284508,-3.35778 -1.435944,-4.77331 l -4.779245,-4.47511 c -0.406431,-1.067 -1.01527,-2.05216 -1.757716,-2.98309 -0.737507,-1.16384 -1.674907,-2.23646 -3.012768,-3.12618 l -0.06952,-0.008 c -0.02886,-0.0254 -0.05622,-0.0514 -0.08515,-0.0768 0.26705,-1.90761 0.56299,-4.05996 0.646346,-4.87005 0.03296,-0.0563 0.06458,-0.1154 0.09433,-0.18038 0.181838,-0.10035 0.356997,-0.20119 0.529992,-0.30246 0.176618,-0.0831 0.35136,-0.16443 0.539617,-0.25996 4.406216,-2.95412 6.973371,-6.44785 9.23691,-10.03091 2.497464,-8.36657 -3.410938,-9.42255 -8.675159,-11.039 -0.52476,-0.0461 -1.044522,-0.0799 -1.558796,-0.1007 z m -0.209774,21.98054 c -0.04108,0.0839 -0.101352,0.16162 -0.174387,0.23413 l 0.0019,-0.0153 c 0.061,-0.0634 0.118749,-0.136 0.172531,-0.21886 z"
         style="fill:#000000;fill-opacity:0.6756757;stroke:none;stroke-width:0.25632116px;stroke-linecap:butt;stroke-linejoin:miter;stroke-opacity:1;filter:url(#filter1505)" />
      <path
         sodipodi:nodetypes="cccccccccccccc"
         inkscape:connector-curvature="0"
         id="path1260"
         d="m 55.469057,288.99994 c -2.632755,7.38013 -10.53454,7.1236 -14.334295,5.62865 -9.258491,1.79502 -19.546986,2.08936 -28.293347,-8.78069 -1.253694,-0.29731 -2.757418,-0.34459 -2.476606,-2.17641 -0.9321181,-2.37825 -0.340961,-5.19173 0.07505,-7.95516 -0.180925,-3.05198 0.290501,-6.10396 3.677385,-9.15594 2.066634,-1.07364 3.886721,-1.77745 5.553601,-2.25146 l 1.576022,-0.60039 1.12573,-3.30214 16.28556,1.50097 c 2.566259,1.68442 4.275232,4.05467 5.853796,6.52924 l 6.304088,5.47855 c 1.514032,1.61191 3.157367,3.16635 2.926898,5.5536 z"
         style="fill:url(#linearGradient1282);fill-opacity:1;stroke:none;stroke-width:0.26458332px;stroke-linecap:butt;stroke-linejoin:miter;stroke-opacity:1" />
      <path
         sodipodi:nodetypes="ccccccc"
         inkscape:connector-curvature="0"
         id="path1262"
         d="m 25.402992,278.22188 c 0.664155,-1.35259 1.619499,-1.80631 2.332885,-1.65009 l 12.688621,0.56899 c 2.575976,-0.23247 3.036709,1.06274 2.901881,2.78808 -2.172387,4.16974 -4.718973,7.9237 -8.250448,10.58334 -5.555636,-0.2218 -9.577594,-0.95482 -11.493727,-2.38979 -1.36955,-2.94082 0.587963,-6.94175 1.820788,-9.90053 z"
         style="fill:#a5d0f1;fill-opacity:0.14414416;stroke:none;stroke-width:0.26458332px;stroke-linecap:butt;stroke-linejoin:miter;stroke-opacity:1" />
      <path
         sodipodi:nodetypes="cccccccc"
         inkscape:connector-curvature="0"
         id="path1264"
         d="m 15.622135,272.07244 c 0.398297,0.17069 6.708277,3.36135 6.708277,3.36135 0.657979,0.29531 1.280681,0.63296 1.194892,1.82079 -1.568399,3.08449 -3.818143,5.88509 -3.698477,9.67294 -2.526872,-0.16062 -4.585566,-1.41365 -6.20206,-3.69848 -0.909214,-1.15696 -0.613962,-2.31391 -0.682796,-3.47087 l 1.072694,-6.76264 c 0.04409,-0.89777 0.489312,-1.31419 1.60747,-0.92309 z"
         style="fill:#badbf5;fill-opacity:0.14414416;stroke:none;stroke-width:0.26458332px;stroke-linecap:butt;stroke-linejoin:miter;stroke-opacity:1" />
      <path
         sodipodi:nodetypes="cccccc"
         inkscape:connector-curvature="0"
         id="path1266"
         d="m 24.037401,277.88048 -0.853495,2.84498 c -1.425523,2.06887 -2.044305,4.85485 -2.105287,8.13665 -3.835357,-1.2562 -7.015188,-2.98583 -8.136648,-6.20206 2.216698,3.07524 4.576436,3.7188 6.941756,4.26747 0.53159,-3.3 1.374522,-6.49622 4.153674,-9.04704 z"
         style="fill:#1b6398;fill-opacity:1;stroke:none;stroke-width:0.26458332px;stroke-linecap:butt;stroke-linejoin:miter;stroke-opacity:1" />
      <path
         sodipodi:nodetypes="ccccccc"
         inkscape:connector-curvature="0"
         id="path1268"
         d="m 22.785609,288.40691 c 3.557331,1.30783 6.060586,2.75234 12.005824,2.61738 3.713671,-1.89208 5.768016,-5.94128 8.02285,-9.72984 l -0.682796,3.58468 c -1.235833,3.27643 -3.202494,5.90324 -5.803763,7.96595 -5.035247,-0.25345 -9.486715,-1.59318 -13.314517,-3.35708 z"
         style="fill:#175787;fill-opacity:1;stroke:none;stroke-width:0.26458332px;stroke-linecap:butt;stroke-linejoin:miter;stroke-opacity:1" />
      <path
         sodipodi:nodetypes="ccccc"
         inkscape:connector-curvature="0"
         id="path1270"
         d="m 23.070107,273.27161 c 1.801043,1.03111 0.159893,2.18235 -0.853495,1.53629 -3.94057,-1.46192 -6.97054,-3.22737 -7.738351,-5.74687 1.840562,1.70214 3.774576,2.84358 5.917563,2.73118 z"
         style="fill:#207fc9;fill-opacity:1;stroke:none;stroke-width:0.26458332px;stroke-linecap:butt;stroke-linejoin:miter;stroke-opacity:1" />
      <path
         sodipodi:nodetypes="csscccc"
         inkscape:connector-curvature="0"
         id="path1272"
         d="m 27.39448,273.8975 c -2.014307,0.006 -1.604691,2.1242 -0.341398,1.99149 2.765209,-0.29049 12.532633,0.54799 11.948925,0.62589 -0.451197,0.0602 4.66577,-0.39829 4.66577,-0.39829 1.259072,-0.37933 0.861066,-0.75867 0.170699,-1.138 -2.524776,0.004 -4.885413,-0.0244 -6.657258,-0.17069 -2.918066,-0.75618 -6.7016,-1.18859 -9.786738,-0.9104 z"
         style="fill:#2a78b4;fill-opacity:1;stroke:none;stroke-width:0.26458332px;stroke-linecap:butt;stroke-linejoin:miter;stroke-opacity:1" />
      <path
         sodipodi:nodetypes="ccccc"
         inkscape:connector-curvature="0"
         id="path1274"
         d="m 25.687491,273.61301 c -0.472839,0.91097 -2.017548,0.89055 -1.877689,-0.1707 -0.07162,-1.0242 -0.630308,-2.56049 -1.763889,-3.58468 2.172638,1.49952 4.541715,1.95135 7.169355,1.02419 -1.276414,0.73121 -2.698423,1.58543 -3.527777,2.73119 z"
         style="fill:#2e75ab;fill-opacity:1;stroke:none;stroke-width:0.26458332px;stroke-linecap:butt;stroke-linejoin:miter;stroke-opacity:1" />
      <path
         sodipodi:nodetypes="cccccccc"
         inkscape:connector-curvature="0"
         id="path1284"
         d="m 44.719395,268.89772 6.319755,5.4074 c 1.550341,1.36853 2.819342,3.22112 2.556286,4.58965 l 1.602122,10.23613 c -0.325898,1.46191 -0.59103,2.96028 -2.394936,3.53539 l -1.368534,-11.40446 c -0.232015,-2.3998 -0.852617,-4.7441 -3.193247,-6.84267 -1.975703,-1.60639 -2.308872,-3.72426 -3.521446,-5.52144 z"
         style="fill:#155d94;fill-opacity:1;stroke:none;stroke-width:0.26458332px;stroke-linecap:butt;stroke-linejoin:miter;stroke-opacity:1" />
      <path
         sodipodi:nodetypes="ccccc"
         inkscape:connector-curvature="0"
         id="path1286"
         d="m 40.801726,294.43526 c -0.323484,-8.47613 11.318865,-6.64449 12.430855,-16.65051 l 2.010996,11.80783 c -1.080623,2.63998 -2.972907,4.36684 -5.774466,5.07077 -2.889128,0.73177 -5.778256,1.35961 -8.667385,-0.22809 z"
         style="fill:url(#linearGradient1294);fill-opacity:1;stroke:none;stroke-width:0.26458332px;stroke-linecap:butt;stroke-linejoin:miter;stroke-opacity:1" />
      <path
         sodipodi:nodetypes="cccc"
         inkscape:connector-curvature="0"
         id="path1296"
         d="m 12.83287,285.28819 c -1.109855,-0.35778 -2.390104,-0.48838 -2.258896,-2.50091 -0.317961,-8.48512 2.210792,-9.379 3.630369,-13.23068 -1.141666,5.19121 -2.888047,10.3359 -1.371473,15.73159 z"
         style="fill:#1b69a4;fill-opacity:1;stroke:none;stroke-width:0.26458332px;stroke-linecap:butt;stroke-linejoin:miter;stroke-opacity:1" />
      <path
         sodipodi:nodetypes="ccccccc"
         inkscape:connector-curvature="0"
         id="path1298"
         d="m 10.251275,281.33513 c -0.08723,-4.52172 1.332608,-8.13921 3.388344,-11.37515 0.748606,-1.64863 3.128019,-3.56906 6.453984,-5.64724 l -5.243862,2.01687 c -2.148538,1.30494 -3.592434,3.35077 -4.033743,5.08251 l -0.403372,4.35644 z"
         style="fill:#60ade7;fill-opacity:1;stroke:none;stroke-width:0.26458332px;stroke-linecap:butt;stroke-linejoin:miter;stroke-opacity:1" />
      <path
         sodipodi:nodetypes="ccccccccc"
         inkscape:connector-curvature="0"
         id="path1300"
         d="m 14.849741,269.15323 c 3.570609,-1.17397 5.332097,-0.3579 6.776686,0.80675 3.432443,0.81686 6.670358,1.94497 12.181899,-0.56473 1.840536,-1.02408 3.736552,-1.80774 6.211962,-0.0807 1.854881,1.68232 4.186274,2.17337 6.453986,2.82362 -1.352251,-4.35914 -4.508139,-7.45573 -7.986808,-10.32638 L 22.51385,260.76302 c -0.714976,2.47246 -0.871733,4.10695 -4.033741,4.35644 -2.219929,0.84439 -2.841337,2.37172 -3.630368,4.03377 z"
         style="fill:url(#linearGradient1308);fill-opacity:1;stroke:none;stroke-width:0.26458332px;stroke-linecap:butt;stroke-linejoin:miter;stroke-opacity:1" />
      <path
         sodipodi:nodetypes="ccccc"
         inkscape:connector-curvature="0"
         id="path1310"
         d="m 38.89084,263.99004 c -4.910951,5.86362 -10.802251,7.73581 -18.71656,1.37147 l 2.50092,-7.82546 14.279444,-2.74294 z"
         style="fill:url(#linearGradient1318);fill-opacity:1;stroke:none;stroke-width:0.26458332px;stroke-linecap:butt;stroke-linejoin:miter;stroke-opacity:1" />
      <path
         sodipodi:nodetypes="ccccccccccc"
         inkscape:connector-curvature="0"
         id="path1320"
         d="m 18.318759,263.34464 c 0.614407,2.2027 3.144606,1.94224 5.163189,2.33957 3.24749,0.12765 5.269159,-1.44256 8.148158,-3.63036 2.44896,-1.263 2.797046,-3.57643 3.146318,-5.88927 0.689231,0.75095 1.838675,0.35137 3.388343,-1.04877 2.902871,-3.69264 3.981878,-7.93245 4.759815,-12.26257 -0.665775,-9.97641 -6.291259,-10.93517 -11.536501,-12.58528 -7.730359,-0.46397 -13.162996,2.80586 -15.731592,10.72975 l 0.16135,8.30951 1.855521,10.72975 c 0.204144,1.10472 0.425086,2.20611 0.645399,3.30767 z"
         style="fill:url(#radialGradient1328);fill-opacity:1;stroke:none;stroke-width:0.26458332px;stroke-linecap:butt;stroke-linejoin:miter;stroke-opacity:1" />
      <path
         sodipodi:nodetypes="ccccc"
         inkscape:connector-curvature="0"
         id="path1332"
         d="m 35.182741,256.57119 c 1.119456,0.40119 2.151168,0.65196 2.223869,-0.74129 2.448688,-2.44386 3.40163,-5.00737 2.052801,-7.75503 -2.012091,-1.31972 -3.613761,-0.41215 -4.27667,1.0264 -1.134779,2.48997 -0.478653,4.97995 0,7.46992 z"
         style="fill:url(#linearGradient1344);fill-opacity:1;stroke:none;stroke-width:0.26458332px;stroke-linecap:butt;stroke-linejoin:miter;stroke-opacity:1" />
      <path
         sodipodi:nodetypes="cccc"
         inkscape:connector-curvature="0"
         id="path1334"
         d="m 35.981053,255.03159 c 1.474585,-0.0767 2.399212,-2.59055 3.193247,-4.56178 0.140835,-2.62224 -2.659367,-1.69516 -3.193247,-0.74129 -0.612392,3.66249 0.870463,2.74555 0,5.30307 z"
         style="fill:#2682c4;fill-opacity:1;stroke:none;stroke-width:0.26458332px;stroke-linecap:butt;stroke-linejoin:miter;stroke-opacity:1" />
      <path
         sodipodi:nodetypes="ccc"
         inkscape:connector-curvature="0"
         id="path1336"
         d="m 35.41083,249.27234 c 0.960269,-1.24588 2.096171,-1.52857 4.105604,-0.96938 -1.853906,-1.40792 -3.684033,-0.77253 -4.105604,0.96938 z"
         style="fill:#6ba0c9;fill-opacity:1;stroke:none;stroke-width:0.26458332px;stroke-linecap:butt;stroke-linejoin:miter;stroke-opacity:1" />
      <path
         sodipodi:nodetypes="cccccccc"
         inkscape:connector-curvature="0"
         id="path1348"
         d="m 33.700162,238.09597 c 1.641505,-0.80523 2.613393,-1.79075 0.342133,-3.64942 l -13.286189,-0.5132 c -2.585396,1.044 -2.138372,1.62148 -2.965158,2.39493 -2.726245,4.07133 -2.069366,8.46487 -1.710668,12.83001 0.74708,4.48873 7.383898,3.86268 13.742367,3.47836 2.05932,-0.0806 3.44168,-0.66901 3.079203,-2.566 -2.882766,-4.18435 -3.73391,-8.24431 0.798312,-11.97468 z"
         style="fill:url(#radialGradient1356);fill-opacity:1;stroke:none;stroke-width:0.26458332px;stroke-linecap:butt;stroke-linejoin:miter;stroke-opacity:1" />
      <path
         sodipodi:nodetypes="cccccccccc"
         inkscape:connector-curvature="0"
         id="path1360"
         d="m 35.863055,247.52047 c -2.104214,-0.82406 -3.475444,5.48902 -2.8816,5.37025 0,0 -6.176986,5.85552 -6.287128,7.72793 -0.315007,4.16992 -4.140029,3.17804 -7.269493,3.20905 0,0 3.994946,1.37531 4.453383,1.37531 0.615878,0.62977 7.067704,-2.18246 6.876546,-2.94709 1.24187,-1.29635 3.496492,-2.1426 3.340038,-4.06043 0.240133,-0.94206 0.480266,-2.11505 0.7204,-3.40553 l -0.130982,-4.91182 c -0.128246,-1.17678 0.660988,-1.66546 1.178836,-2.35767 z"
         style="fill:url(#linearGradient1368);fill-opacity:1;stroke:none;stroke-width:0.26458332px;stroke-linecap:butt;stroke-linejoin:miter;stroke-opacity:1" />
      <path
         sodipodi:nodetypes="ccc"
         inkscape:connector-curvature="0"
         id="path1398"
         d="m 23.157816,265.66144 c 3.461754,2.2653 6.973863,1.71068 10.60953,-5.7632 -2.804028,3.22326 -6.235193,5.3316 -10.60953,5.7632 z"
         style="fill:url(#linearGradient1406);fill-opacity:1;stroke:none;stroke-width:0.26458332px;stroke-linecap:butt;stroke-linejoin:miter;stroke-opacity:1" />
      <path
         style="fill:#2378bd;fill-opacity:1;stroke:none;stroke-width:0.26458332px;stroke-linecap:butt;stroke-linejoin:miter;stroke-opacity:1"
         d="m 18.318759,263.34464 c 0.614407,2.2027 3.144606,1.94224 5.163189,2.33957 3.24749,0.12765 5.269159,-1.44256 8.148158,-3.63036 2.44896,-1.263 2.797046,-3.57643 3.146318,-5.88927 -6.454513,10.21652 -13.879323,10.14997 -16.457665,7.18006 z"
         id="path1346"
         inkscape:connector-curvature="0"
         sodipodi:nodetypes="ccccc" />
      <path
         sodipodi:nodetypes="cccc"
         inkscape:connector-curvature="0"
         id="path1370"
         d="m 35.077165,256.09977 c -0.07824,4.76108 0.271244,9.76657 -3.340037,12.50877 1.138451,-3.06243 2.716912,-6.06551 2.292182,-9.69266 z"
         style="fill:url(#linearGradient1386);fill-opacity:1;stroke:none;stroke-width:0.26458332px;stroke-linecap:butt;stroke-linejoin:miter;stroke-opacity:1" />
      <path
         sodipodi:nodetypes="cccsc"
         inkscape:connector-curvature="0"
         id="path1388"
         d="m 35.208147,256.29625 c 0.50546,1.3346 2.276151,0.71008 2.1612,-0.32746 0.327455,1.5063 1.702764,8.97226 1.702764,8.97226 0,0 -2.554146,3.92945 -2.488655,3.27454 0.06549,-0.65491 -1.375309,-11.91934 -1.375309,-11.91934 z"
         style="fill:url(#linearGradient1396);fill-opacity:1;stroke:none;stroke-width:0.26458332px;stroke-linecap:butt;stroke-linejoin:miter;stroke-opacity:1" />
      <path
         sodipodi:nodetypes="ccccc"
         inkscape:connector-curvature="0"
         id="path1408"
         d="m 36.910911,295.06687 c 1.524763,0.061 2.79762,-0.21385 3.798473,-0.85138 1.287989,0.8246 2.575977,0.9581 3.863965,0.91687 -2.485493,-4.0971 -3.338491,-8.80638 -1.637273,-14.47349 -2.276784,4.72215 -5.345845,9.20661 -6.025165,14.408 z"
         style="fill:url(#linearGradient1416);fill-opacity:1;stroke:none;stroke-width:0.26458332px;stroke-linecap:butt;stroke-linejoin:miter;stroke-opacity:1" />
    </g>
  </g>
</svg>
