<?xml version="1.0" encoding="UTF-8" standalone="no"?>
<!-- Created with Inkscape (http://www.inkscape.org/) -->

<svg
   xmlns:dc="http://purl.org/dc/elements/1.1/"
   xmlns:cc="http://creativecommons.org/ns#"
   xmlns:rdf="http://www.w3.org/1999/02/22-rdf-syntax-ns#"
   xmlns:svg="http://www.w3.org/2000/svg"
   xmlns="http://www.w3.org/2000/svg"
   xmlns:xlink="http://www.w3.org/1999/xlink"
   xmlns:sodipodi="http://sodipodi.sourceforge.net/DTD/sodipodi-0.dtd"
   xmlns:inkscape="http://www.inkscape.org/namespaces/inkscape"
   id="svg2"
   sodipodi:version="0.32"
   inkscape:version="0.48.0 r9654"
   width="256"
   height="256"
   version="1.0"
   sodipodi:docname="xterm-color_32x32.svg"
   inkscape:output_extension="org.inkscape.output.svg.inkscape">
  <metadata
     id="metadata7">
    <rdf:RDF>
      <cc:Work
         rdf:about="">
        <dc:format>image/svg+xml</dc:format>
        <dc:type
           rdf:resource="http://purl.org/dc/dcmitype/StillImage" />
      </cc:Work>
    </rdf:RDF>
  </metadata>
  <defs
     id="defs5">
    <linearGradient
       id="linearGradient3166">
      <stop
         id="stop3168"
         offset="0"
         style="stop-color:#06098b;stop-opacity:1;" />
      <stop
         id="stop3170"
         offset="1"
         style="stop-color:#7c7c7c;stop-opacity:0;" />
    </linearGradient>
    <linearGradient
       id="linearGradient3156">
      <stop
         style="stop-color:#04009a;stop-opacity:1;"
         offset="0"
         id="stop3158" />
      <stop
         style="stop-color:#b8b9ff;stop-opacity:1;"
         offset="1"
         id="stop3160" />
    </linearGradient>
    <inkscape:perspective
       sodipodi:type="inkscape:persp3d"
       inkscape:vp_x="0 : 526.18109 : 1"
       inkscape:vp_y="0 : 1000 : 0"
       inkscape:vp_z="744.09448 : 526.18109 : 1"
       inkscape:persp3d-origin="372.04724 : 350.78739 : 1"
       id="perspective9" />
    <inkscape:perspective
       id="perspective10"
       inkscape:persp3d-origin="372.04724 : 350.78739 : 1"
       inkscape:vp_z="744.09448 : 526.18109 : 1"
       inkscape:vp_y="0 : 1000 : 0"
       inkscape:vp_x="0 : 526.18109 : 1"
       sodipodi:type="inkscape:persp3d" />
    <linearGradient
       inkscape:collect="always"
       xlink:href="#linearGradient3166"
       id="linearGradient2409"
       gradientUnits="userSpaceOnUse"
       spreadMethod="reflect"
       x1="12.420502"
       y1="18.075314"
       x2="17.035564"
       y2="24.234308"
       gradientTransform="matrix(7.8286197,0,0,7.8286197,3.2791449,8.2705889)" />
    <linearGradient
       inkscape:collect="always"
       xlink:href="#linearGradient3156"
       id="linearGradient2412"
       gradientUnits="userSpaceOnUse"
       spreadMethod="reflect"
       x1="8.2029285"
       y1="20.150627"
       x2="18.441422"
       y2="10.309623"
       gradientTransform="matrix(7.8286197,0,0,7.8286197,3.2791449,8.2705889)" />
    <linearGradient
       inkscape:collect="always"
       xlink:href="#linearGradient3156"
       id="linearGradient3188"
       gradientUnits="userSpaceOnUse"
       gradientTransform="matrix(7.8286197,0,0,7.8286197,3.2791449,8.2705889)"
       spreadMethod="reflect"
       x1="8.2029285"
       y1="20.150627"
       x2="18.441422"
       y2="10.309623" />
    <linearGradient
       inkscape:collect="always"
       xlink:href="#linearGradient3166"
       id="linearGradient3190"
       gradientUnits="userSpaceOnUse"
       gradientTransform="matrix(7.8286197,0,0,7.8286197,3.2791449,8.2705889)"
       spreadMethod="reflect"
       x1="12.420502"
       y1="18.075314"
       x2="17.035564"
       y2="24.234308" />
    <linearGradient
       inkscape:collect="always"
       xlink:href="#linearGradient3166"
       id="linearGradient3193"
       gradientUnits="userSpaceOnUse"
       gradientTransform="matrix(7.8286197,0,0,7.8286197,3.2791449,8.2705889)"
       spreadMethod="reflect"
       x1="12.420502"
       y1="18.075314"
       x2="17.035564"
       y2="24.234308" />
    <linearGradient
       inkscape:collect="always"
       xlink:href="#linearGradient3156"
       id="linearGradient3196"
       gradientUnits="userSpaceOnUse"
       gradientTransform="matrix(7.8286197,0,0,7.8286197,3.2791449,8.2705889)"
       spreadMethod="reflect"
       x1="8.2029285"
       y1="20.150627"
       x2="18.441422"
       y2="10.309623" />
    <linearGradient
       inkscape:collect="always"
       xlink:href="#linearGradient3166"
       id="linearGradient3771"
       gradientUnits="userSpaceOnUse"
       gradientTransform="matrix(7.8286197,0,0,7.8286197,1.513626,5.6223127)"
       spreadMethod="reflect"
       x1="12.420502"
       y1="18.075314"
       x2="17.035564"
       y2="24.234308" />
    <linearGradient
       inkscape:collect="always"
       xlink:href="#linearGradient3156"
       id="linearGradient3774"
       gradientUnits="userSpaceOnUse"
       gradientTransform="matrix(7.8286197,0,0,7.8286197,2.984892,4.4453015)"
       spreadMethod="reflect"
       x1="8.2029285"
       y1="20.150627"
       x2="18.441422"
       y2="10.309623" />
  </defs>
  <sodipodi:namedview
     inkscape:window-height="1022"
     inkscape:window-width="1680"
     inkscape:pageshadow="2"
     inkscape:pageopacity="0.0"
     guidetolerance="10.0"
     gridtolerance="10.0"
     objecttolerance="10.0"
     borderopacity="1.0"
     bordercolor="#666666"
     pagecolor="#ffffff"
     id="base"
     showgrid="false"
     inkscape:zoom="3.3984375"
     inkscape:cx="128"
     inkscape:cy="128"
     inkscape:window-x="-2"
     inkscape:window-y="0"
     inkscape:current-layer="svg2"
     inkscape:window-maximized="1" />
  <g
     id="layer1"
     inkscape:label="Layer 1"
     transform="translate(-1.0539257,-0.1714615)">
    <path
       sodipodi:nodetypes="cccccccccsssccccccssscccccc"
       id="text2383"
       d="M 10.338337,-10.630085 L 10.369587,-10.598835 L 6.9504776,-1.4142743 L 8.3879776,-1.3856193 L 9.6246406,-4.5355853 L 12.857374,-4.5355853 L 14.083033,-1.3856183 L 15.520533,-1.3856183 L 14.244587,-4.5675853 C 15.011057,-4.6616323 15.614006,-4.8951793 16.057087,-5.2863353 C 16.64497,-5.8013043 16.93208,-6.5604173 16.932087,-7.5675853 C 16.932079,-8.5656233 16.644971,-9.3338523 16.057087,-9.8488353 C 15.473747,-10.368356 14.607212,-10.630075 13.463337,-10.630085 L 11.932087,-10.630085 L 10.369587,-10.630085 L 10.338337,-10.630085 z M 12.369587,-9.5050853 L 13.463337,-9.5050853 C 14.10591,-9.5050763 14.612421,-9.3377583 14.963337,-9.0050853 C 15.314242,-8.6723943 15.494581,-8.1782543 15.494587,-7.5675853 C 15.494581,-6.9523443 15.314243,-6.4940113 14.963337,-6.1613353 C 14.676858,-5.8897383 14.287944,-5.7424543 13.807087,-5.6925853 L 12.369587,-9.5050853 z M 11.140459,-8.6820923 L 12.326124,-5.6918353 L 9.9475186,-5.6345243 L 11.140459,-8.6820923 z"
       style="font-size:14px;font-style:normal;font-weight:normal;fill:#000000;fill-opacity:1;stroke:none;stroke-width:1px;stroke-linecap:butt;stroke-linejoin:miter;stroke-opacity:1;font-family:Bitstream Vera Sans" />
  </g>
  <rect
     style="fill:url(#linearGradient3774);fill-opacity:1;stroke:#000000;stroke-width:7.82861948;stroke-linecap:round;stroke-linejoin:round;stroke-miterlimit:4;stroke-opacity:0.69082121;stroke-dasharray:none"
     id="rect2384"
     width="235.84126"
     height="176.0948"
     x="9.2739925"
     y="43.752178"
     ry="14.584895" />
  <rect
     ry="11.487821"
     y="47.549652"
     x="11.995459"
     height="170.29811"
     width="229.34052"
     id="rect3164"
     style="fill:url(#linearGradient3771);fill-opacity:1;stroke:none" />
  <path
     inkscape:connector-curvature="0"
     style="font-size:29.61442757px;font-style:normal;font-variant:normal;font-weight:normal;font-stretch:normal;fill:#c3c3c3;fill-opacity:1;stroke:none;font-family:Arial Black;-inkscape-font-specification:Arial Black"
     d="m 21.018398,70.935843 4.638964,0 0,2.988134 c 0.446438,-1.293697 0.905057,-2.180977 1.37586,-2.661843 0.478905,-0.492281 1.0674,-0.738429 1.765485,-0.738448 0.730535,1.9e-5 1.530076,0.320585 2.398624,0.961699 l -1.534145,4.980223 c -0.584447,-0.34345 -1.047124,-0.515183 -1.388036,-0.515196 -0.649382,1.3e-5 -1.152647,0.377824 -1.509794,1.13343 -0.511389,1.064749 -0.76708,3.056836 -0.767073,5.976268 l 0,6.113654 -4.979885,0 0,-18.237921 m 10.787721,9.17048 c -10e-7,-2.782044 0.665607,-5.071799 1.996824,-6.869274 1.331212,-1.808891 3.129163,-2.713344 5.39386,-2.713363 2.589367,1.9e-5 4.545603,1.059031 5.868715,3.17704 1.063334,1.705882 1.595008,3.806733 1.595024,6.302558 -1.6e-5,2.804959 -0.661565,5.106164 -1.984648,6.903619 -1.314995,1.786012 -3.137298,2.679016 -5.466915,2.679018 -2.078002,-2e-6 -3.758254,-0.744171 -5.040763,-2.232514 -1.574733,-1.843251 -2.362098,-4.258944 -2.362097,-7.247084 m 4.967708,-0.01717 c -5e-6,1.625735 0.231334,2.827857 0.694019,3.606369 0.470789,0.778521 1.059283,1.16778 1.765485,1.167776 0.714302,4e-6 1.298737,-0.38353 1.753308,-1.150603 0.462669,-0.767064 0.694008,-1.997807 0.694019,-3.692235 -1.1e-5,-1.579922 -0.23135,-2.753422 -0.694019,-3.520502 -0.462688,-0.778505 -1.034948,-1.167763 -1.716781,-1.167777 -0.722436,1.4e-5 -1.319048,0.394996 -1.789837,1.18495 -0.470802,0.778529 -0.706199,1.969202 -0.706194,3.572022 m 11.688725,0.01717 c -2e-6,-2.782044 0.665606,-5.071799 1.996823,-6.869274 1.331213,-1.808891 3.129164,-2.713344 5.393861,-2.713363 2.589367,1.9e-5 4.545603,1.059031 5.868714,3.17704 1.063334,1.705882 1.595009,3.806733 1.595025,6.302558 -1.6e-5,2.804959 -0.661565,5.106164 -1.984649,6.903619 -1.314994,1.786012 -3.137297,2.679016 -5.466914,2.679018 -2.078003,-2e-6 -3.758255,-0.744171 -5.040764,-2.232514 -1.574732,-1.843251 -2.362098,-4.258944 -2.362096,-7.247084 m 4.967708,-0.01717 c -5e-6,1.625735 0.231334,2.827857 0.694018,3.606369 0.47079,0.778521 1.059283,1.16778 1.765485,1.167776 0.714302,4e-6 1.298738,-0.38353 1.753309,-1.150603 0.462668,-0.767064 0.694007,-1.997807 0.694018,-3.692235 -1.1e-5,-1.579922 -0.23135,-2.753422 -0.694018,-3.520502 -0.462688,-0.778505 -1.034949,-1.167763 -1.716781,-1.167777 -0.722437,1.4e-5 -1.319048,0.394996 -1.789837,1.18495 -0.470802,0.778529 -0.706199,1.969202 -0.706194,3.572022 m 18.275812,-16.091273 0,6.937966 2.727369,0 0,5.100435 -2.727369,0 0,6.474291 c -8e-6,0.778524 0.05275,1.293718 0.158285,1.545586 0.162335,0.389264 0.446435,0.583893 0.852303,0.583889 0.365263,4e-6 0.876645,-0.148831 1.534145,-0.446503 l 0.365272,4.825664 c -1.225702,0.37781 -2.370221,0.566714 -3.433563,0.566716 -1.233816,-2e-6 -2.142938,-0.223253 -2.72737,-0.669755 -0.584439,-0.446502 -1.018708,-1.12198 -1.302805,-2.026436 -0.275987,-0.915899 -0.413979,-2.392792 -0.413976,-4.430681 l 0,-6.422771 -1.826363,0 0,-5.100435 1.826363,0 0,-3.348772 4.967709,-3.589194 m 14.988354,14.803284 0.633141,-4.344816 -2.983059,0 0,-4.739799 3.652726,0 0.864477,-6.147999 3.470092,0 -0.888828,6.147999 2.666484,0 0.876653,-6.147999 3.457916,0 -0.852301,6.147999 1.668076,0 0,4.739799 -2.349919,0 -0.620965,4.344816 2.970884,0 0,4.739799 -3.640551,0 -0.864477,6.044961 -3.470092,0 0.85231,-6.044961 -2.654317,0 -0.876653,6.044961 -3.445741,0 0.888829,-6.044961 -1.704603,0 0,-4.739799 2.349918,0 m 3.457917,0 2.666484,0 0.633141,-4.344816 -2.654309,0 -0.645316,4.344816 m 11.238217,8.449207 13.84384,-8.122917 0,-5.083262 -13.84384,-8.105743 0,6.09648 8.41345,4.568068 -8.41345,4.58524 0,6.062134 m 15.00054,4.568067 12.7602,0 0,1.751664 -12.7602,0 0,-1.751664"
     id="text3198" />
</svg>
