<?xml version="1.0" encoding="UTF-8" standalone="no"?>
<!-- Created with Inkscape (http://www.inkscape.org/) -->
<svg
   xmlns:dc="http://purl.org/dc/elements/1.1/"
   xmlns:cc="http://creativecommons.org/ns#"
   xmlns:rdf="http://www.w3.org/1999/02/22-rdf-syntax-ns#"
   xmlns:svg="http://www.w3.org/2000/svg"
   xmlns="http://www.w3.org/2000/svg"
   xmlns:xlink="http://www.w3.org/1999/xlink"
   xmlns:sodipodi="http://sodipodi.sourceforge.net/DTD/sodipodi-0.dtd"
   xmlns:inkscape="http://www.inkscape.org/namespaces/inkscape"
   id="svg2"
   sodipodi:version="0.32"
   inkscape:version="0.46"
   width="256"
   height="256"
   version="1.0"
   sodipodi:docname="yakuake.svg"
   inkscape:output_extension="org.inkscape.output.svg.inkscape">
  <metadata
     id="metadata7">
    <rdf:RDF>
      <cc:Work
         rdf:about="">
        <dc:format>image/svg+xml</dc:format>
        <dc:type
           rdf:resource="http://purl.org/dc/dcmitype/StillImage" />
      </cc:Work>
    </rdf:RDF>
  </metadata>
  <defs
     id="defs5">
    <linearGradient
       id="linearGradient3166">
      <stop
         id="stop3168"
         offset="0"
         style="stop-color:#000000;stop-opacity:1;" />
      <stop
         id="stop3170"
         offset="1"
         style="stop-color:#7c7c7c;stop-opacity:0;" />
    </linearGradient>
    <linearGradient
       id="linearGradient3156">
      <stop
         style="stop-color:#000000;stop-opacity:1;"
         offset="0"
         id="stop3158" />
      <stop
         style="stop-color:#7c7c7c;stop-opacity:1;"
         offset="1"
         id="stop3160" />
    </linearGradient>
    <inkscape:perspective
       sodipodi:type="inkscape:persp3d"
       inkscape:vp_x="0 : 526.18109 : 1"
       inkscape:vp_y="0 : 1000 : 0"
       inkscape:vp_z="744.09448 : 526.18109 : 1"
       inkscape:persp3d-origin="372.04724 : 350.78739 : 1"
       id="perspective9" />
    <inkscape:perspective
       id="perspective10"
       inkscape:persp3d-origin="372.04724 : 350.78739 : 1"
       inkscape:vp_z="744.09448 : 526.18109 : 1"
       inkscape:vp_y="0 : 1000 : 0"
       inkscape:vp_x="0 : 526.18109 : 1"
       sodipodi:type="inkscape:persp3d" />
    <linearGradient
       inkscape:collect="always"
       xlink:href="#linearGradient3166"
       id="linearGradient2409"
       gradientUnits="userSpaceOnUse"
       spreadMethod="reflect"
       x1="12.420502"
       y1="18.075314"
       x2="17.035564"
       y2="24.234308"
       gradientTransform="matrix(7.8286197,0,0,7.8286197,3.2791449,8.2705889)" />
    <linearGradient
       inkscape:collect="always"
       xlink:href="#linearGradient3156"
       id="linearGradient2412"
       gradientUnits="userSpaceOnUse"
       spreadMethod="reflect"
       x1="8.2029285"
       y1="20.150627"
       x2="18.441422"
       y2="10.309623"
       gradientTransform="matrix(7.8286197,0,0,7.8286197,3.2791449,8.2705889)" />
    <linearGradient
       inkscape:collect="always"
       xlink:href="#linearGradient3156"
       id="linearGradient3188"
       gradientUnits="userSpaceOnUse"
       gradientTransform="matrix(7.8286197,0,0,7.8286197,3.2791449,8.2705889)"
       spreadMethod="reflect"
       x1="8.2029285"
       y1="20.150627"
       x2="18.441422"
       y2="10.309623" />
    <linearGradient
       inkscape:collect="always"
       xlink:href="#linearGradient3166"
       id="linearGradient3190"
       gradientUnits="userSpaceOnUse"
       gradientTransform="matrix(7.8286197,0,0,7.8286197,3.2791449,8.2705889)"
       spreadMethod="reflect"
       x1="12.420502"
       y1="18.075314"
       x2="17.035564"
       y2="24.234308" />
    <linearGradient
       inkscape:collect="always"
       xlink:href="#linearGradient3166"
       id="linearGradient3193"
       gradientUnits="userSpaceOnUse"
       gradientTransform="matrix(7.8286197,0,0,7.8286197,3.2791449,8.2705889)"
       spreadMethod="reflect"
       x1="12.420502"
       y1="18.075314"
       x2="17.035564"
       y2="24.234308" />
    <linearGradient
       inkscape:collect="always"
       xlink:href="#linearGradient3156"
       id="linearGradient3196"
       gradientUnits="userSpaceOnUse"
       gradientTransform="matrix(7.8286197,0,0,7.8286197,3.2791449,8.2705889)"
       spreadMethod="reflect"
       x1="8.2029285"
       y1="20.150627"
       x2="18.441422"
       y2="10.309623" />
  </defs>
  <sodipodi:namedview
     inkscape:window-height="1025"
     inkscape:window-width="1680"
     inkscape:pageshadow="2"
     inkscape:pageopacity="0.0"
     guidetolerance="10.0"
     gridtolerance="10.0"
     objecttolerance="10.0"
     borderopacity="1.0"
     bordercolor="#666666"
     pagecolor="#ffffff"
     id="base"
     showgrid="false"
     inkscape:zoom="3.3984375"
     inkscape:cx="128"
     inkscape:cy="128"
     inkscape:window-x="-5"
     inkscape:window-y="0"
     inkscape:current-layer="svg2" />
  <g
     id="layer1"
     inkscape:label="Layer 1"
     transform="translate(-1.0539257,-0.1714615)">
    <path
       sodipodi:nodetypes="cccccccccsssccccccssscccccc"
       id="text2383"
       d="M 10.338337,-10.630085 L 10.369587,-10.598835 L 6.9504776,-1.4142743 L 8.3879776,-1.3856193 L 9.6246406,-4.5355853 L 12.857374,-4.5355853 L 14.083033,-1.3856183 L 15.520533,-1.3856183 L 14.244587,-4.5675853 C 15.011057,-4.6616323 15.614006,-4.8951793 16.057087,-5.2863353 C 16.64497,-5.8013043 16.93208,-6.5604173 16.932087,-7.5675853 C 16.932079,-8.5656233 16.644971,-9.3338523 16.057087,-9.8488353 C 15.473747,-10.368356 14.607212,-10.630075 13.463337,-10.630085 L 11.932087,-10.630085 L 10.369587,-10.630085 L 10.338337,-10.630085 z M 12.369587,-9.5050853 L 13.463337,-9.5050853 C 14.10591,-9.5050763 14.612421,-9.3377583 14.963337,-9.0050853 C 15.314242,-8.6723943 15.494581,-8.1782543 15.494587,-7.5675853 C 15.494581,-6.9523443 15.314243,-6.4940113 14.963337,-6.1613353 C 14.676858,-5.8897383 14.287944,-5.7424543 13.807087,-5.6925853 L 12.369587,-9.5050853 z M 11.140459,-8.6820923 L 12.326124,-5.6918353 L 9.9475186,-5.6345243 L 11.140459,-8.6820923 z"
       style="font-size:14px;font-style:normal;font-weight:normal;fill:#000000;fill-opacity:1;stroke:none;stroke-width:1px;stroke-linecap:butt;stroke-linejoin:miter;stroke-opacity:1;font-family:Bitstream Vera Sans" />
  </g>
  <g
     id="g3203">
    <rect
       ry="14.584895"
       y="47.577465"
       x="9.5682449"
       height="176.0948"
       width="235.84126"
       id="rect2384"
       style="fill:url(#linearGradient3196);fill-opacity:1;stroke:#000000;stroke-width:7.82861948;stroke-linecap:round;stroke-linejoin:round;stroke-miterlimit:4;stroke-dasharray:none;stroke-opacity:0.69082121" />
    <rect
       style="fill:url(#linearGradient3193);fill-opacity:1;stroke:none;stroke-width:1;stroke-linecap:round;stroke-linejoin:round;stroke-miterlimit:4;stroke-dasharray:none;stroke-opacity:1"
       id="rect3164"
       width="229.34052"
       height="170.29811"
       x="13.760979"
       y="50.197926"
       ry="11.487821" />
    <path
       id="text3198"
       d="M 25.311327,62.950391 L 30.820652,62.950391 L 30.820652,65.46646 C 31.350851,64.377141 31.895516,63.630033 32.454651,63.225134 C 33.023408,62.810624 33.722316,62.603362 34.551376,62.603346 C 35.418974,62.603362 36.368524,62.873285 37.400029,63.413116 L 35.578048,67.606565 C 34.883948,67.317373 34.334463,67.172771 33.929589,67.17276 C 33.15837,67.172771 32.560683,67.490895 32.136528,68.127131 C 31.529192,69.023671 31.225529,70.701049 31.225537,73.15927 L 31.225537,78.307091 L 25.311327,78.307091 L 25.311327,62.950391 M 38.123038,70.672121 C 38.123037,68.329584 38.913526,66.401563 40.494506,64.888053 C 42.07548,63.36493 44.210762,62.603362 46.900361,62.603346 C 49.975544,62.603362 52.298809,63.495072 53.870163,65.278478 C 55.133,66.714866 55.764426,68.483825 55.764445,70.58536 C 55.764426,72.947193 54.978758,74.884854 53.407438,76.398348 C 51.845724,77.902206 49.681521,78.654134 46.914821,78.654135 C 44.446945,78.654134 42.451444,78.027528 40.928311,76.774313 C 39.058127,75.222258 38.123037,73.188196 38.123038,70.672121 M 44.022787,70.657661 C 44.02278,72.026563 44.297523,73.038774 44.847017,73.694297 C 45.406135,74.349828 46.105043,74.677592 46.943742,74.677588 C 47.792061,74.677592 48.486148,74.354648 49.026006,73.708757 C 49.57548,73.062874 49.850223,72.026563 49.850236,70.59982 C 49.850223,69.269494 49.57548,68.281383 49.026006,67.635486 C 48.476508,66.979969 47.796881,66.652206 46.987122,66.652194 C 46.129143,66.652206 45.420595,66.984789 44.861477,67.649946 C 44.302343,68.305483 44.02278,69.308054 44.022787,70.657661 M 57.904548,70.672121 C 57.904546,68.329584 58.695035,66.401563 60.276015,64.888053 C 61.856989,63.36493 63.992272,62.603362 66.681871,62.603346 C 69.757054,62.603362 72.080319,63.495072 73.651672,65.278478 C 74.914509,66.714866 75.545936,68.483825 75.545955,70.58536 C 75.545936,72.947193 74.760267,74.884854 73.188947,76.398348 C 71.627234,77.902206 69.463031,78.654134 66.696331,78.654135 C 64.228454,78.654134 62.232953,78.027528 60.70982,76.774313 C 58.839637,75.222258 57.904546,73.188196 57.904548,70.672121 M 63.804297,70.657661 C 63.80429,72.026563 64.079033,73.038774 64.628526,73.694297 C 65.187645,74.349828 65.886552,74.677592 66.725251,74.677588 C 67.57357,74.677592 68.267658,74.354648 68.807516,73.708757 C 69.356989,73.062874 69.631732,72.026563 69.631745,70.59982 C 69.631732,69.269494 69.356989,68.281383 68.807516,67.635486 C 68.258018,66.979969 67.57839,66.652206 66.768632,66.652194 C 65.910652,66.652206 65.202105,66.984789 64.642987,67.649946 C 64.083853,68.305483 63.80429,69.308054 63.804297,70.657661 M 85.509013,57.108482 L 85.509013,62.950391 L 88.748091,62.950391 L 88.748091,67.245061 L 85.509013,67.245061 L 85.509013,72.696545 C 85.509004,73.352078 85.571664,73.785882 85.696995,73.99796 C 85.889788,74.325728 86.227191,74.48961 86.709207,74.489606 C 87.143001,74.48961 87.750328,74.364288 88.531188,74.113642 L 88.964993,78.176949 C 87.509325,78.495073 86.150071,78.654134 84.887225,78.654135 C 83.421921,78.654134 82.34223,78.466152 81.648147,78.090188 C 80.954055,77.714224 80.438309,77.145458 80.100909,76.383888 C 79.773142,75.612682 79.60926,74.369108 79.609263,72.653164 L 79.609263,67.245061 L 77.440238,67.245061 L 77.440238,62.950391 L 79.609263,62.950391 L 79.609263,60.130657 L 85.509013,57.108482 M 103.30948,69.573148 L 104.06141,65.914725 L 100.51867,65.914725 L 100.51867,61.923718 L 104.85672,61.923718 L 105.88339,56.746978 L 110.00454,56.746978 L 108.94895,61.923718 L 112.11572,61.923718 L 113.15685,56.746978 L 117.26354,56.746978 L 116.25133,61.923718 L 118.23237,61.923718 L 118.23237,65.914725 L 115.44156,65.914725 L 114.70409,69.573148 L 118.23237,69.573148 L 118.23237,73.564155 L 113.90878,73.564155 L 112.88211,78.654135 L 108.76096,78.654135 L 109.77318,73.564155 L 106.62086,73.564155 L 105.57973,78.654135 L 101.4875,78.654135 L 102.54309,73.564155 L 100.51867,73.564155 L 100.51867,69.573148 L 103.30948,69.573148 M 107.41617,69.573148 L 110.58294,69.573148 L 111.33487,65.914725 L 108.18256,65.914725 L 107.41617,69.573148 M 120.7629,76.687552 L 137.20412,69.847891 L 137.20412,65.567681 L 120.7629,58.742481 L 120.7629,63.875841 L 130.75488,67.722247 L 120.7629,71.583112 L 120.7629,76.687552 M 138.57784,80.533957 L 153.7321,80.533957 L 153.7321,82.008894 L 138.57784,82.008894 L 138.57784,80.533957"
       style="font-size:29.61442757px;font-style:normal;font-variant:normal;font-weight:normal;font-stretch:normal;fill:#c3c3c3;fill-opacity:1;stroke:none;stroke-width:1px;stroke-linecap:butt;stroke-linejoin:miter;stroke-opacity:1;font-family:Arial Black;-inkscape-font-specification:Arial Black"
       transform="scale(0.8420203,1.1876198)" />
  </g>
</svg>
