<?xml version="1.0" encoding="UTF-8" standalone="no"?>
<!-- Created with Inkscape (http://www.inkscape.org/) -->
<svg
   xmlns:dc="http://purl.org/dc/elements/1.1/"
   xmlns:cc="http://creativecommons.org/ns#"
   xmlns:rdf="http://www.w3.org/1999/02/22-rdf-syntax-ns#"
   xmlns:svg="http://www.w3.org/2000/svg"
   xmlns="http://www.w3.org/2000/svg"
   xmlns:xlink="http://www.w3.org/1999/xlink"
   xmlns:sodipodi="http://sodipodi.sourceforge.net/DTD/sodipodi-0.dtd"
   xmlns:inkscape="http://www.inkscape.org/namespaces/inkscape"
   id="svg2"
   sodipodi:version="0.32"
   inkscape:version="0.46"
   width="256"
   height="256"
   version="1.0"
   sodipodi:docname="input-mouse.svg"
   inkscape:output_extension="org.inkscape.output.svg.inkscape">
  <metadata
     id="metadata7">
    <rdf:RDF>
      <cc:Work
         rdf:about="">
        <dc:format>image/svg+xml</dc:format>
        <dc:type
           rdf:resource="http://purl.org/dc/dcmitype/StillImage" />
      </cc:Work>
    </rdf:RDF>
  </metadata>
  <defs
     id="defs5">
    <linearGradient
       inkscape:collect="always"
       id="linearGradient3316">
      <stop
         style="stop-color:#2c2b26;stop-opacity:1"
         offset="0"
         id="stop3318" />
      <stop
         style="stop-color:#35342e;stop-opacity:0;"
         offset="1"
         id="stop3320" />
    </linearGradient>
    <linearGradient
       inkscape:collect="always"
       id="linearGradient3261">
      <stop
         style="stop-color:#323232;stop-opacity:0.73786408"
         offset="0"
         id="stop3263" />
      <stop
         style="stop-color:#d2d2d2;stop-opacity:1"
         offset="1"
         id="stop3265" />
    </linearGradient>
    <linearGradient
       id="linearGradient3245">
      <stop
         style="stop-color:#f3f0d3;stop-opacity:1;"
         offset="0"
         id="stop3247" />
      <stop
         style="stop-color:#3d3c35;stop-opacity:1;"
         offset="1"
         id="stop3249" />
    </linearGradient>
    <linearGradient
       inkscape:collect="always"
       id="linearGradient3235">
      <stop
         style="stop-color:#f3f0d3;stop-opacity:1"
         offset="0"
         id="stop3237" />
      <stop
         style="stop-color:#969482;stop-opacity:0;"
         offset="1"
         id="stop3239" />
    </linearGradient>
    <linearGradient
       id="linearGradient3229"
       inkscape:collect="always">
      <stop
         id="stop3231"
         offset="0"
         style="stop-color:#000000;stop-opacity:1;" />
      <stop
         id="stop3233"
         offset="1"
         style="stop-color:#d2d2d2;stop-opacity:1" />
    </linearGradient>
    <linearGradient
       id="linearGradient3199"
       inkscape:collect="always">
      <stop
         id="stop3201"
         offset="0"
         style="stop-color:#626055;stop-opacity:0.64077669" />
      <stop
         id="stop3203"
         offset="1"
         style="stop-color:#ffffff;stop-opacity:1" />
    </linearGradient>
    <linearGradient
       id="linearGradient3191">
      <stop
         style="stop-color:#ffffff;stop-opacity:1;"
         offset="0"
         id="stop3193" />
      <stop
         style="stop-color:#000000;stop-opacity:0;"
         offset="1"
         id="stop3195" />
    </linearGradient>
    <linearGradient
       inkscape:collect="always"
       id="linearGradient3156">
      <stop
         style="stop-color:#000000;stop-opacity:1;"
         offset="0"
         id="stop3158" />
      <stop
         style="stop-color:#ffffff;stop-opacity:1"
         offset="1"
         id="stop3160" />
    </linearGradient>
    <inkscape:perspective
       sodipodi:type="inkscape:persp3d"
       inkscape:vp_x="0 : 526.18109 : 1"
       inkscape:vp_y="0 : 1000 : 0"
       inkscape:vp_z="744.09448 : 526.18109 : 1"
       inkscape:persp3d-origin="372.04724 : 350.78739 : 1"
       id="perspective9" />
    <linearGradient
       y2="-7.4748664"
       x2="16.093008"
       y1="-7.4748664"
       x1="13.514812"
       spreadMethod="reflect"
       gradientUnits="userSpaceOnUse"
       id="linearGradient3290"
       xlink:href="#linearGradient3578"
       inkscape:collect="always" />
    <linearGradient
       gradientTransform="matrix(0.4584837,0,0,0.4584837,12.357625,81.058821)"
       y2="50.573639"
       x2="215.89148"
       y1="113.36433"
       x1="155.81395"
       spreadMethod="reflect"
       gradientUnits="userSpaceOnUse"
       id="linearGradient3403"
       xlink:href="#linearGradient3369"
       inkscape:collect="always" />
    <linearGradient
       y2="78.617943"
       x2="-79.282944"
       y1="145.67221"
       x1="-81.182167"
       gradientUnits="userSpaceOnUse"
       id="linearGradient3397"
       xlink:href="#linearGradient3387"
       inkscape:collect="always" />
    <linearGradient
       gradientUnits="userSpaceOnUse"
       y2="78.617943"
       x2="-79.282944"
       y1="145.67221"
       x1="-81.182167"
       id="linearGradient3393"
       xlink:href="#linearGradient3387"
       inkscape:collect="always" />
    <linearGradient
       spreadMethod="reflect"
       gradientUnits="userSpaceOnUse"
       y2="50.573639"
       x2="215.89148"
       y1="113.36433"
       x1="155.81395"
       id="linearGradient3375"
       xlink:href="#linearGradient3369"
       inkscape:collect="always" />
    <linearGradient
       y2="-7.4748664"
       x2="16.093008"
       y1="-7.4748664"
       x1="13.514812"
       spreadMethod="reflect"
       gradientUnits="userSpaceOnUse"
       id="linearGradient2595"
       xlink:href="#linearGradient3578"
       inkscape:collect="always" />
    <linearGradient
       y2="-7.4748664"
       x2="16.093008"
       y1="-7.4748664"
       x1="13.514812"
       spreadMethod="reflect"
       gradientUnits="userSpaceOnUse"
       id="linearGradient2593"
       xlink:href="#linearGradient3578"
       inkscape:collect="always" />
    <linearGradient
       y2="-7.4748664"
       x2="16.093008"
       y1="-7.4748664"
       x1="13.514812"
       spreadMethod="reflect"
       gradientUnits="userSpaceOnUse"
       id="linearGradient2591"
       xlink:href="#linearGradient3578"
       inkscape:collect="always" />
    <linearGradient
       y2="-7.4748664"
       x2="16.093008"
       y1="-7.4748664"
       x1="13.514812"
       spreadMethod="reflect"
       gradientUnits="userSpaceOnUse"
       id="linearGradient2589"
       xlink:href="#linearGradient3578"
       inkscape:collect="always" />
    <linearGradient
       y2="-7.4748664"
       x2="16.093008"
       y1="-7.4748664"
       x1="13.514812"
       spreadMethod="reflect"
       gradientUnits="userSpaceOnUse"
       id="linearGradient2587"
       xlink:href="#linearGradient3578"
       inkscape:collect="always" />
    <linearGradient
       y2="-7.4748664"
       x2="16.093008"
       y1="-7.4748664"
       x1="13.514812"
       spreadMethod="reflect"
       gradientUnits="userSpaceOnUse"
       id="linearGradient2585"
       xlink:href="#linearGradient3578"
       inkscape:collect="always" />
    <linearGradient
       y2="-7.4748664"
       x2="16.093008"
       y1="-7.4748664"
       x1="13.514812"
       spreadMethod="reflect"
       gradientUnits="userSpaceOnUse"
       id="linearGradient2583"
       xlink:href="#linearGradient3578"
       inkscape:collect="always" />
    <linearGradient
       y2="-7.4748664"
       x2="16.093008"
       y1="-7.4748664"
       x1="13.514812"
       spreadMethod="reflect"
       gradientUnits="userSpaceOnUse"
       id="linearGradient2581"
       xlink:href="#linearGradient3578"
       inkscape:collect="always" />
    <linearGradient
       y2="-7.4748664"
       x2="16.093008"
       y1="-7.4748664"
       x1="13.514812"
       spreadMethod="reflect"
       gradientUnits="userSpaceOnUse"
       id="linearGradient2579"
       xlink:href="#linearGradient3578"
       inkscape:collect="always" />
    <linearGradient
       y2="-7.4748664"
       x2="16.093008"
       y1="-7.4748664"
       x1="13.514812"
       spreadMethod="reflect"
       gradientUnits="userSpaceOnUse"
       id="linearGradient2577"
       xlink:href="#linearGradient3578"
       inkscape:collect="always" />
    <linearGradient
       y2="-7.4748664"
       x2="16.093008"
       y1="-7.4748664"
       x1="13.514812"
       spreadMethod="reflect"
       gradientUnits="userSpaceOnUse"
       id="linearGradient2575"
       xlink:href="#linearGradient3578"
       inkscape:collect="always" />
    <linearGradient
       y2="-7.4748664"
       x2="16.093008"
       y1="-7.4748664"
       x1="13.514812"
       spreadMethod="reflect"
       gradientUnits="userSpaceOnUse"
       id="linearGradient2573"
       xlink:href="#linearGradient3578"
       inkscape:collect="always" />
    <linearGradient
       y2="-7.4748664"
       x2="16.093008"
       y1="-7.4748664"
       x1="13.514812"
       spreadMethod="reflect"
       gradientUnits="userSpaceOnUse"
       id="linearGradient2571"
       xlink:href="#linearGradient3578"
       inkscape:collect="always" />
    <linearGradient
       y2="-7.4748664"
       x2="16.093008"
       y1="-7.4748664"
       x1="13.514812"
       spreadMethod="reflect"
       gradientUnits="userSpaceOnUse"
       id="linearGradient2569"
       xlink:href="#linearGradient3578"
       inkscape:collect="always" />
    <linearGradient
       y2="-7.4748664"
       x2="16.093008"
       y1="-7.4748664"
       x1="13.514812"
       spreadMethod="reflect"
       gradientUnits="userSpaceOnUse"
       id="linearGradient2567"
       xlink:href="#linearGradient3578"
       inkscape:collect="always" />
    <linearGradient
       y2="-7.4748664"
       x2="16.093008"
       y1="-7.4748664"
       x1="13.514812"
       spreadMethod="reflect"
       gradientUnits="userSpaceOnUse"
       id="linearGradient2565"
       xlink:href="#linearGradient3578"
       inkscape:collect="always" />
    <linearGradient
       y2="-7.4748664"
       x2="16.093008"
       y1="-7.4748664"
       x1="13.514812"
       spreadMethod="reflect"
       gradientUnits="userSpaceOnUse"
       id="linearGradient2563"
       xlink:href="#linearGradient3578"
       inkscape:collect="always" />
    <linearGradient
       y2="-7.4748664"
       x2="16.093008"
       y1="-7.4748664"
       x1="13.514812"
       spreadMethod="reflect"
       gradientUnits="userSpaceOnUse"
       id="linearGradient2561"
       xlink:href="#linearGradient3578"
       inkscape:collect="always" />
    <linearGradient
       y2="-7.4748664"
       x2="16.093008"
       y1="-7.4748664"
       x1="13.514812"
       spreadMethod="reflect"
       gradientUnits="userSpaceOnUse"
       id="linearGradient2559"
       xlink:href="#linearGradient3578"
       inkscape:collect="always" />
    <linearGradient
       y2="-7.4748664"
       x2="16.093008"
       y1="-7.4748664"
       x1="13.514812"
       spreadMethod="reflect"
       gradientUnits="userSpaceOnUse"
       id="linearGradient2557"
       xlink:href="#linearGradient3578"
       inkscape:collect="always" />
    <linearGradient
       y2="-7.4748664"
       x2="16.093008"
       y1="-7.4748664"
       x1="13.514812"
       spreadMethod="reflect"
       gradientUnits="userSpaceOnUse"
       id="linearGradient2555"
       xlink:href="#linearGradient3578"
       inkscape:collect="always" />
    <linearGradient
       y2="-7.4748664"
       x2="16.093008"
       y1="-7.4748664"
       x1="13.514812"
       spreadMethod="reflect"
       gradientUnits="userSpaceOnUse"
       id="linearGradient2553"
       xlink:href="#linearGradient3578"
       inkscape:collect="always" />
    <linearGradient
       y2="-7.4748664"
       x2="16.093008"
       y1="-7.4748664"
       x1="13.514812"
       spreadMethod="reflect"
       gradientUnits="userSpaceOnUse"
       id="linearGradient2551"
       xlink:href="#linearGradient3578"
       inkscape:collect="always" />
    <linearGradient
       y2="-7.4748664"
       x2="16.093008"
       y1="-2.2096405"
       x1="15.650429"
       spreadMethod="reflect"
       gradientUnits="userSpaceOnUse"
       id="linearGradient3610"
       xlink:href="#linearGradient3578"
       inkscape:collect="always" />
    <linearGradient
       y2="-7.4748664"
       x2="16.093008"
       y1="-6.4087667"
       x1="10.621114"
       spreadMethod="reflect"
       gradientUnits="userSpaceOnUse"
       id="linearGradient3608"
       xlink:href="#linearGradient3578"
       inkscape:collect="always" />
    <linearGradient
       y2="-1.5134122"
       x2="9.7181683"
       y1="-5.8865957"
       x1="11.186799"
       spreadMethod="reflect"
       gradientUnits="userSpaceOnUse"
       id="linearGradient3606"
       xlink:href="#linearGradient3578"
       inkscape:collect="always" />
    <linearGradient
       y2="-4.5158963"
       x2="12.916467"
       y1="-3.7543969"
       x1="7.7709298"
       spreadMethod="reflect"
       gradientUnits="userSpaceOnUse"
       id="linearGradient3604"
       xlink:href="#linearGradient3578"
       inkscape:collect="always" />
    <linearGradient
       y2="-3.7326398"
       x2="14.93988"
       y1="-2.2749119"
       x1="17.082983"
       spreadMethod="reflect"
       gradientUnits="userSpaceOnUse"
       id="linearGradient3602"
       xlink:href="#linearGradient3578"
       inkscape:collect="always" />
    <linearGradient
       y2="-1.9920692"
       x2="17.376678"
       y1="-6.2564669"
       x1="15.58174"
       spreadMethod="reflect"
       gradientUnits="userSpaceOnUse"
       id="linearGradient3600"
       xlink:href="#linearGradient3578"
       inkscape:collect="always" />
    <linearGradient
       y2="-7.4748664"
       x2="16.093008"
       y1="-10.977764"
       x1="16.691353"
       spreadMethod="reflect"
       gradientUnits="userSpaceOnUse"
       id="linearGradient3598"
       xlink:href="#linearGradient3578"
       inkscape:collect="always" />
    <linearGradient
       y2="-11.199143"
       x2="11.132382"
       y1="-11.39115"
       x1="16.386753"
       spreadMethod="reflect"
       gradientUnits="userSpaceOnUse"
       id="linearGradient3596"
       xlink:href="#linearGradient3578"
       inkscape:collect="always" />
    <linearGradient
       y2="-2.6882975"
       x2="8.6955833"
       y1="-11.586965"
       x1="12.035328"
       spreadMethod="reflect"
       gradientUnits="userSpaceOnUse"
       id="linearGradient3594"
       xlink:href="#linearGradient3578"
       inkscape:collect="always" />
    <linearGradient
       y2="-5.7778101"
       x2="11.371711"
       y1="-10.150993"
       x1="12.905613"
       spreadMethod="reflect"
       gradientUnits="userSpaceOnUse"
       id="linearGradient3592"
       xlink:href="#linearGradient3578"
       inkscape:collect="always" />
    <linearGradient
       y2="-6.9526954"
       x2="17.74655"
       y1="-5.9083529"
       x1="16.386753"
       spreadMethod="reflect"
       gradientUnits="userSpaceOnUse"
       id="linearGradient3590"
       xlink:href="#linearGradient3578"
       inkscape:collect="always" />
    <linearGradient
       y2="-8.018795"
       x2="17.07476"
       y1="-7.4748664"
       x1="13.514812"
       spreadMethod="reflect"
       gradientUnits="userSpaceOnUse"
       id="linearGradient3588"
       xlink:href="#linearGradient3578"
       inkscape:collect="always" />
    <linearGradient
       y2="-6.5828238"
       x2="18.616835"
       y1="-5.2121248"
       x1="16.908924"
       spreadMethod="reflect"
       gradientUnits="userSpaceOnUse"
       id="linearGradient3586"
       xlink:href="#linearGradient3578"
       inkscape:collect="always" />
    <linearGradient
       spreadMethod="reflect"
       gradientUnits="userSpaceOnUse"
       y2="-7.4748664"
       x2="16.093008"
       y1="-7.4748664"
       x1="13.514812"
       id="linearGradient3584"
       xlink:href="#linearGradient3578"
       inkscape:collect="always" />
    <inkscape:perspective
       sodipodi:type="inkscape:persp3d"
       inkscape:vp_x="0 : 128 : 1"
       inkscape:vp_y="0 : 1000 : 0"
       inkscape:vp_z="256 : 128 : 1"
       inkscape:persp3d-origin="128 : 85.333333 : 1"
       id="perspective2503" />
    <linearGradient
       id="linearGradient3578">
      <stop
         id="stop3580"
         offset="0"
         style="stop-color:#000000;stop-opacity:1;" />
      <stop
         id="stop3582"
         offset="1"
         style="stop-color:#fffcfc;stop-opacity:1;" />
    </linearGradient>
    <linearGradient
       id="linearGradient3369"
       inkscape:collect="always">
      <stop
         id="stop3371"
         offset="0"
         style="stop-color:#6465df;stop-opacity:1" />
      <stop
         id="stop3373"
         offset="1"
         style="stop-color:#ffffff;stop-opacity:1" />
    </linearGradient>
    <linearGradient
       id="linearGradient3387"
       inkscape:collect="always">
      <stop
         id="stop3389"
         offset="0"
         style="stop-color:#000000;stop-opacity:1;" />
      <stop
         id="stop3391"
         offset="1"
         style="stop-color:#ffffff;stop-opacity:1" />
    </linearGradient>
    <linearGradient
       inkscape:collect="always"
       xlink:href="#linearGradient3245"
       id="linearGradient2519"
       gradientUnits="userSpaceOnUse"
       gradientTransform="matrix(0.1495169,-3.0151764e-8,3.0151764e-8,0.1495169,-195.8306,-45.585846)"
       spreadMethod="reflect"
       x1="442.67651"
       y1="1419.1482"
       x2="442.67651"
       y2="1454.4706" />
    <radialGradient
       inkscape:collect="always"
       xlink:href="#linearGradient3245"
       id="radialGradient2522"
       gradientUnits="userSpaceOnUse"
       gradientTransform="matrix(-0.1497565,0.2258357,-9.3596235e-2,-6.2065713e-2,-42.229673,437.7691)"
       cx="-1288.0601"
       cy="646.12714"
       fx="-1288.0601"
       fy="646.12714"
       r="114.94048" />
    <linearGradient
       inkscape:collect="always"
       xlink:href="#linearGradient3229"
       id="linearGradient2524"
       gradientUnits="userSpaceOnUse"
       gradientTransform="matrix(0.1495169,0,0,0.1495169,0.5201805,12.159312)"
       x1="643.61768"
       y1="759.29272"
       x2="577.9104"
       y2="673.9986" />
    <radialGradient
       inkscape:collect="always"
       xlink:href="#linearGradient3235"
       id="radialGradient2527"
       gradientUnits="userSpaceOnUse"
       gradientTransform="matrix(3.1439019e-2,2.5843724e-2,-0.1779772,0.2165107,193.71434,-46.946782)"
       spreadMethod="reflect"
       cx="607.42169"
       cy="689.50208"
       fx="607.42169"
       fy="689.50208"
       r="248.25349" />
    <linearGradient
       inkscape:collect="always"
       xlink:href="#linearGradient3156"
       id="linearGradient2529"
       gradientUnits="userSpaceOnUse"
       gradientTransform="matrix(0.1495169,0,0,0.1495169,0.5201805,12.159312)"
       x1="679.65967"
       y1="798.01685"
       x2="507.12384"
       y2="651.80676" />
    <linearGradient
       inkscape:collect="always"
       xlink:href="#linearGradient3316"
       id="linearGradient2532"
       gradientUnits="userSpaceOnUse"
       x1="87.243187"
       y1="206.97943"
       x2="190.41214"
       y2="97.646095"
       gradientTransform="translate(0.8827586,0)" />
    <radialGradient
       inkscape:collect="always"
       xlink:href="#linearGradient3191"
       id="radialGradient2535"
       gradientUnits="userSpaceOnUse"
       gradientTransform="matrix(-0.1677305,0.1540079,-9.4136119e-2,-0.1025239,364.09487,-26.866081)"
       cx="994.71985"
       cy="509.92542"
       fx="994.71985"
       fy="509.92542"
       r="310.04926" />
    <radialGradient
       inkscape:collect="always"
       xlink:href="#linearGradient3191"
       id="radialGradient2538"
       gradientUnits="userSpaceOnUse"
       gradientTransform="matrix(-9.794144e-2,-0.1129725,0.2958608,-0.2564964,118.39475,280.33505)"
       cx="943.80322"
       cy="390.98575"
       fx="943.80322"
       fy="390.98575"
       r="349.29443" />
    <linearGradient
       inkscape:collect="always"
       xlink:href="#linearGradient3261"
       id="linearGradient2540"
       gradientUnits="userSpaceOnUse"
       gradientTransform="matrix(0.1495169,0,0,0.1495169,0.5201805,12.159312)"
       x1="601.00397"
       y1="693.58014"
       x2="355.47516"
       y2="520.05072" />
    <radialGradient
       inkscape:collect="always"
       xlink:href="#linearGradient3191"
       id="radialGradient2543"
       gradientUnits="userSpaceOnUse"
       gradientTransform="matrix(0.1915158,-1.6666256e-3,8.2919996e-4,9.5285326e-2,-41.451545,43.725971)"
       cx="978.69788"
       cy="328.98273"
       fx="978.69788"
       fy="328.98273"
       r="614.46808" />
    <linearGradient
       inkscape:collect="always"
       xlink:href="#linearGradient3199"
       id="linearGradient2545"
       gradientUnits="userSpaceOnUse"
       gradientTransform="matrix(0.1495169,0,0,0.1495169,-7.4455207e-2,12.597627)"
       x1="1372.5515"
       y1="771.25293"
       x2="1278.1603"
       y2="143.92657" />
  </defs>
  <sodipodi:namedview
     inkscape:window-height="1025"
     inkscape:window-width="1680"
     inkscape:pageshadow="2"
     inkscape:pageopacity="0.0"
     guidetolerance="10.0"
     gridtolerance="10.0"
     objecttolerance="10.0"
     borderopacity="1.0"
     bordercolor="#666666"
     pagecolor="#ffffff"
     id="base"
     showgrid="false"
     inkscape:zoom="3.3984375"
     inkscape:cx="128"
     inkscape:cy="125.23041"
     inkscape:window-x="-5"
     inkscape:window-y="0"
     inkscape:current-layer="svg2" />
  <g
     id="g3322">
    <path
       id="path3345"
       d="M 182.41401,45.4375 C 139.70132,47.071418 98.658373,66.285071 67.812468,95.374978 C 53.869354,110.05622 39.510675,125.87314 33.726509,145.6875 C 32.070371,156.26388 40.099159,164.26963 46.351509,171.5 C 52.243778,179.63211 57.794759,192.0868 69.445259,192.4375 C 78.339346,192.85814 85.215499,199.74699 93.320259,202.84375 C 101.05546,207.0792 111.08003,207.85485 118.41401,202.125 C 144.80923,182.97508 172.4252,164.76496 199.30493,145.88784 C 211.30472,136.95677 224.50419,129.32712 235.38276,119.0625 C 245.48486,108.08657 253.07183,90.592293 244.22651,76.65625 C 231.86787,55.461171 206.24675,44.954254 182.41401,45.4375 z"
       style="fill:#000000;fill-opacity:0.1553398;fill-rule:evenodd;stroke:none;stroke-width:3;stroke-linecap:butt;stroke-linejoin:miter;stroke-miterlimit:4;stroke-dasharray:none;stroke-opacity:1" />
    <path
       id="path3341"
       d="M 181.16401,44.46875 C 140.26658,46.158418 101.09275,64.618206 70.601509,91.09375 C 55.62399,106.22595 40.843096,122.65736 33.257759,142.84375 C 30.613072,152.54874 35.717687,161.93018 42.581824,168.36497 C 49.333755,175.86239 52.661673,186.12069 61.851509,191.28125 C 66.357768,194.91484 72.341953,191.93989 76.811266,195.53526 C 87.491074,200.13213 97.87291,208.97314 110.03901,207.0625 C 121.42601,203.67942 129.1907,194.23531 139.36837,188.57028 C 170.565,166.63477 202.49523,145.55345 233.13276,122.9375 C 243.98329,112.05748 253.77474,95.04906 246.85151,79.4375 C 235.04748,55.484712 207.06257,43.548256 181.16401,44.46875 z"
       style="fill:#000000;fill-opacity:0.1553398;fill-rule:evenodd;stroke:none;stroke-width:3;stroke-linecap:butt;stroke-linejoin:miter;stroke-miterlimit:4;stroke-dasharray:none;stroke-opacity:1" />
    <path
       id="path3337"
       d="M 179.85151,43.53125 C 140.42469,45.270268 102.86234,63.212554 72.700947,87.662521 C 57.709404,102.08327 43.602275,118.15174 34.445259,136.9375 C 29.234715,146.54384 31.414421,158.97352 39.570549,166.26966 C 43.841165,171.46141 48.299904,176.77219 50.976509,182.6875 C 56.174491,188.33461 63.062582,196.09625 71.476509,194.25 C 82.239547,198.58543 92.12551,205.98331 103.50776,208.3125 C 116.1948,210.11831 124.85811,198.45204 134.94906,192.87269 C 167.50667,170.10902 200.43711,147.78346 232.76337,124.74792 C 244.44905,113.12065 255.14822,95.7575 247.75776,79.03125 C 235.5111,54.236928 206.65404,42.192315 179.85151,43.53125 z"
       style="fill:#000000;fill-opacity:0.1553398;fill-rule:evenodd;stroke:none;stroke-width:3;stroke-linecap:butt;stroke-linejoin:miter;stroke-miterlimit:4;stroke-dasharray:none;stroke-opacity:1" />
    <path
       style="fill:#000000;fill-opacity:0.1553398;fill-rule:evenodd;stroke:none;stroke-width:3;stroke-linecap:butt;stroke-linejoin:miter;stroke-miterlimit:4;stroke-dasharray:none;stroke-opacity:1"
       d="M 32.101551,139.81154 C 39.497268,121.90737 52.476169,107.41604 67.544061,90.830744 C 94.673867,66.219309 140.73262,42.795256 181.73056,42.490065 C 205.51949,42.312978 227.60553,49.921125 243.22872,69.692796 C 258.36753,88.851442 250.34631,108.38378 232.7415,126.22186 L 118.26065,205.65038 C 111.79172,210.15972 104.68624,210.51267 97.094665,207.72491 L 71.036672,195.14214 C 66.956192,196.6565 63.147907,194.35542 59.341656,192.03033 C 54.773841,187.86052 49.201257,184.28013 47.796158,178.26543 L 33.732211,160.50093 C 31.522187,156.60133 30.5898,152.5423 30.625071,148.36204 C 30.640652,146.03159 30.930669,143.25533 32.101551,139.81154 z"
       id="path3335"
       sodipodi:nodetypes="cccsccccccccc" />
    <path
       sodipodi:nodetypes="cccsccccccccc"
       id="path3170"
       d="M 31.222042,132.33569 C 38.617761,114.43153 51.596663,99.940191 66.664555,83.354897 C 93.794364,58.743469 139.8531,35.319416 180.85105,35.014225 C 204.63998,34.837139 226.72601,42.445287 242.34922,62.216948 C 257.48803,81.375606 249.4668,100.90792 231.86199,118.74602 L 117.38114,198.17451 C 110.91221,202.68386 103.80673,203.0368 96.215155,200.24906 L 70.157163,187.66628 C 66.076683,189.18064 62.2684,186.87956 58.462148,184.55447 C 53.894333,180.38466 48.321749,176.80427 46.91665,170.78957 L 32.852704,153.0251 C 30.64268,149.12549 29.710293,145.06645 29.745564,140.88619 C 29.761143,138.55575 30.051161,135.77949 31.222042,132.33569 z"
       style="fill:#000000;fill-opacity:1;fill-rule:evenodd;stroke:none;stroke-width:3;stroke-linecap:butt;stroke-linejoin:miter;stroke-miterlimit:4;stroke-dasharray:none;stroke-opacity:1" />
    <path
       sodipodi:nodetypes="cscscsc"
       id="path2384"
       d="M 66.692564,83.422224 C 108.95521,45.342281 199.43993,8.9529733 241.9882,62.79921 C 257.127,81.957862 249.10706,101.49293 231.93447,118.99693 C 226.40668,101.72007 212.76639,112.30938 197.13314,123.12154 C 184.82697,131.63264 170.51537,142.10713 158.2072,152.25155 C 160.31991,123.15028 163.17762,88.82668 133.97515,74.399659 C 107.87316,61.504382 90.684294,71.0876 66.692564,83.422224 z"
       style="fill:url(#radialGradient2543);fill-opacity:1;fill-rule:evenodd;stroke:url(#linearGradient2545);stroke-width:0.44855061;stroke-linecap:butt;stroke-linejoin:miter;stroke-miterlimit:4;stroke-dasharray:none;stroke-opacity:1" />
    <path
       sodipodi:nodetypes="cccsccsc"
       id="path3164"
       d="M 66.513835,84.015062 C 87.131979,72.587116 111.28765,61.982146 134.21533,74.944155 L 122.96935,83.241702 C 116.80847,81.353752 112.32405,84.288902 107.50208,87.624088 C 79.985406,106.65641 66.829843,133.63211 50.530997,158.77349 L 50.015421,167.28049 C 39.697166,158.68382 25.554054,146.76398 31.454706,132.47916 C 38.85041,114.57498 51.831423,100.08638 66.513835,84.015062 z"
       style="fill:url(#radialGradient2538);fill-opacity:1;fill-rule:evenodd;stroke:url(#linearGradient2540);stroke-width:0.44855061;stroke-linecap:butt;stroke-linejoin:miter;stroke-miterlimit:4;stroke-dasharray:none;stroke-opacity:1" />
    <path
       sodipodi:nodetypes="ccsccsscc"
       id="path3166"
       d="M 134.73318,75.239388 L 124.00049,83.499485 C 128.07867,87.703126 123.66599,97.14853 121.71672,99.787307 C 103.97069,123.81055 85.209856,148.45498 66.245155,172.24745 L 66.455742,179.54902 C 75.462208,184.96075 85.025269,190.07658 94.870487,194.09042 C 100.15252,196.24386 105.86104,197.79442 112.65784,191.77033 L 157.36705,152.14395 C 158.11541,124.19289 162.53855,92.200522 134.73318,75.239388 z"
       style="fill:url(#radialGradient2535);fill-opacity:1;fill-rule:evenodd;stroke:#6c6c6c;stroke-width:0.44855061;stroke-linecap:butt;stroke-linejoin:miter;stroke-miterlimit:4;stroke-dasharray:none;stroke-opacity:1" />
    <path
       sodipodi:nodetypes="ccccccccccccccccc"
       id="path3168"
       d="M 29.979446,141.02953 C 29.944183,145.20981 30.878177,149.26892 33.088213,153.16853 L 47.151681,170.93292 C 48.556801,176.94761 54.130721,180.5305 58.698528,184.70031 C 62.504763,187.02539 66.312932,189.32342 70.393413,187.80907 L 96.447837,200.39218 C 104.03941,203.1799 111.14811,202.82901 117.61706,198.31966 L 231.66459,119.22543 C 228.86661,107.77662 217.98898,109.8085 213.54472,112.75457 C 177.55516,136.14288 145.5377,162.54258 115.98866,190.68746 C 108.49185,197.38748 102.11632,198.82073 96.299806,196.83929 L 65.064098,180.70331 L 64.768026,170.34077 L 50.852594,159.53411 L 50.704556,169.15647 L 35.160723,153.76068 C 32.055976,149.82311 30.561658,145.52766 29.979446,141.02953 z"
       style="fill:url(#linearGradient2532);fill-opacity:1;fill-rule:evenodd;stroke:#000000;stroke-width:0.14951687px;stroke-linecap:butt;stroke-linejoin:miter;stroke-opacity:1" />
    <path
       sodipodi:nodetypes="csccs"
       id="path3181"
       d="M 113.68946,85.897872 C 122.36087,81.285642 128.6685,87.334265 123.35172,95.197793 C 106.43694,120.21485 86.145906,144.57191 66.102807,170.68425 L 51.367853,158.96875 C 74.190445,119.96154 91.361367,97.77393 113.68946,85.897872 z"
       style="fill:url(#radialGradient2527);fill-opacity:1;fill-rule:evenodd;stroke:url(#linearGradient2529);stroke-width:0.29903373;stroke-linecap:butt;stroke-linejoin:miter;stroke-miterlimit:4;stroke-dasharray:none;stroke-opacity:1" />
    <path
       sodipodi:nodetypes="ccccc"
       id="path3243"
       d="M 108.26028,106.93542 L 91.109817,128.48344 C 83.803814,135.80294 77.990388,138.31299 75.938254,128.70332 C 79.070379,110.87245 89.100779,101.85602 102.76333,97.480673 C 113.56804,98.593084 109.78846,103.02009 108.26028,106.93542 z"
       style="fill:url(#radialGradient2522);fill-opacity:1;fill-rule:evenodd;stroke:url(#linearGradient2524);stroke-width:0.44855061;stroke-linecap:butt;stroke-linejoin:miter;stroke-miterlimit:4;stroke-dasharray:none;stroke-opacity:1" />
    <rect
       transform="matrix(0.7504722,-0.660902,0.660902,0.7504722,0,0)"
       rx="3.298166"
       ry="4.2755699"
       y="163.64748"
       x="-143.08528"
       height="10.213459"
       width="75.00367"
       id="rect3267"
       style="fill:url(#linearGradient2519);fill-opacity:1;stroke:#6c6c6c;stroke-width:0.44855061;stroke-linecap:round;stroke-linejoin:round;stroke-miterlimit:4;stroke-dasharray:none;stroke-opacity:1" />
  </g>
  <g
     inkscape:label="1. réteg"
     id="layer1"
     transform="translate(0.6568056,-8.2826667e-2)">
    <g
       transform="translate(-3.2850782,0.8910274)"
       id="g3612">
      <g
         style="font-size:12px;font-style:normal;font-weight:normal;fill:url(#linearGradient3290);fill-opacity:1;stroke:none;stroke-width:1px;stroke-linecap:butt;stroke-linejoin:miter;stroke-opacity:1;font-family:Bitstream Vera Sans"
         id="g2650">
        <path
           d="M 16.1875,-12.21875 L 12.09375,-12.1875 L 12.800857,-11.480393 L 16.894607,-11.511643 L 16.1875,-12.21875 z"
           id="path2652"
           style="fill:url(#linearGradient2551);fill-opacity:1" />
        <path
           d="M 12.09375,-12.1875 L 8.75,-3.4375 L 9.4571068,-2.7303932 L 12.800857,-11.480393 L 12.09375,-12.1875 z"
           id="path2654"
           style="fill:url(#linearGradient2553);fill-opacity:1" />
        <path
           d="M 14.75,-5.6875 L 15.53125,-3.46875 L 16.238357,-2.7616432 L 15.457107,-4.9803932 L 14.75,-5.6875 z"
           id="path2662"
           style="fill:url(#linearGradient2555);fill-opacity:1" />
        <path
           d="M 15.53125,-3.46875 L 15.53125,-3.4375 L 16.238357,-2.7303932 L 16.238357,-2.7616432 L 15.53125,-3.46875 z"
           id="path2664"
           style="fill:url(#linearGradient2557);fill-opacity:1" />
        <path
           d="M 17.92037,-11.519527 C 17.478803,-11.961094 16.896486,-12.233764 16.1875,-12.21875 L 16.894607,-11.511643 C 17.603593,-11.526657 18.185909,-11.253988 18.627477,-10.81242 L 17.92037,-11.519527 z"
           id="path2672"
           style="fill:url(#linearGradient2559);fill-opacity:1" />
        <path
           d="M 16.21875,-11.96875 C 16.818366,-11.965939 17.317195,-11.725944 17.700221,-11.342918 L 18.407328,-10.635811 C 18.024302,-11.018837 17.525473,-11.258832 16.925857,-11.261643 L 16.21875,-11.96875 z"
           id="path2674"
           style="fill:url(#linearGradient3598);fill-opacity:1" />
        <path
           d="M 17.700221,-11.342918 C 19.261676,-9.7814631 18.898615,-5.8429893 15.59375,-5.90625 L 16.300857,-5.1991432 C 19.605722,-5.1358825 19.968783,-9.0743563 18.407328,-10.635811 L 17.700221,-11.342918 z"
           id="path2676"
           style="fill:url(#linearGradient2561);fill-opacity:1" />
        <path
           d="M 15.59375,-5.90625 L 16.375,-3.71875 L 17.082107,-3.0116432 L 16.300857,-5.1991432 L 15.59375,-5.90625 z"
           id="path2678"
           style="fill:url(#linearGradient2563);fill-opacity:1" />
        <path
           d="M 16.375,-3.71875 L 15.71875,-3.71875 L 16.425857,-3.0116432 L 17.082107,-3.0116432 L 16.375,-3.71875 z"
           id="path2680"
           style="fill:url(#linearGradient2565);fill-opacity:1" />
        <path
           d="M 14.875,-5.96875 L 10.5625,-5.96875 L 11.269607,-5.2616432 L 15.582107,-5.2616432 L 14.875,-5.96875 z"
           id="path2684"
           style="fill:url(#linearGradient2567);fill-opacity:1" />
        <path
           d="M 10.5625,-5.96875 L 9.75,-3.75 L 10.457107,-3.0428932 L 11.269607,-5.2616432 L 10.5625,-5.96875 z"
           id="path2686"
           style="fill:url(#linearGradient2569);fill-opacity:1" />
        <path
           d="M 9.1875,-3.75 L 12.28125,-11.90625 L 12.988357,-11.199143 L 9.8946068,-3.0428932 L 9.1875,-3.75 z"
           id="path2690"
           style="fill:url(#linearGradient3594);fill-opacity:1" />
        <path
           d="M 10.8125,-5.6875 L 14.75,-5.6875 L 15.457107,-4.9803932 L 11.519607,-4.9803932 L 10.8125,-5.6875 z"
           id="path2660"
           style="fill:url(#linearGradient3608);fill-opacity:1" />
        <path
           d="M 15.71875,-3.71875 L 14.875,-5.96875 L 15.582107,-5.2616432 L 16.425857,-3.0116432 L 15.71875,-3.71875 z"
           id="path2682"
           style="fill:url(#linearGradient3610);fill-opacity:1" />
        <path
           d="M 9.75,-3.75 L 9.1875,-3.75 L 9.8946068,-3.0428932 L 10.457107,-3.0428932 L 9.75,-3.75 z"
           id="path2688"
           style="fill:url(#linearGradient2571);fill-opacity:1" />
        <path
           d="M 12.28125,-11.90625 L 16.21875,-11.96875 L 16.925857,-11.261643 L 12.988357,-11.199143 L 12.28125,-11.90625 z"
           id="path2692"
           style="fill:url(#linearGradient3596);fill-opacity:1" />
        <path
           d="M 13.59375,-11.375 L 15.4375,-6.4375 L 16.144607,-5.7303932 L 14.300857,-10.667893 L 13.59375,-11.375 z"
           id="path2694"
           style="fill:url(#linearGradient2573);fill-opacity:1" />
        <path
           d="M 17.29651,-10.694689 C 16.87154,-11.11966 16.292483,-11.392236 15.59375,-11.375 L 16.300857,-10.667893 C 16.99959,-10.685129 17.578646,-10.412554 18.003617,-9.9875826 L 17.29651,-10.694689 z"
           id="path2698"
           style="fill:url(#linearGradient2575);fill-opacity:1" />
        <path
           d="M 15.59375,-11.375 L 13.59375,-11.375 L 14.300857,-10.667893 L 16.300857,-10.667893 L 15.59375,-11.375 z"
           id="path2700"
           style="fill:url(#linearGradient2577);fill-opacity:1" />
        <path
           d="M 12.5,-11.25 L 10.71875,-6.375 L 11.425857,-5.6678932 L 13.207107,-10.542893 L 12.5,-11.25 z"
           id="path2702"
           style="fill:url(#linearGradient2579);fill-opacity:1" />
        <path
           d="M 10.71875,-6.375 L 14.71875,-6.3125 L 15.425857,-5.6053932 L 11.425857,-5.6678932 L 10.71875,-6.375 z"
           id="path2704"
           style="fill:url(#linearGradient2581);fill-opacity:1" />
        <path
           d="M 14.71875,-6.3125 L 12.96875,-11.25 L 13.675857,-10.542893 L 15.425857,-5.6053932 L 14.71875,-6.3125 z"
           id="path2706"
           style="fill:url(#linearGradient2583);fill-opacity:1" />
        <path
           d="M 12.96875,-11.25 L 12.5,-11.25 L 13.207107,-10.542893 L 13.675857,-10.542893 L 12.96875,-11.25 z"
           id="path2708"
           style="fill:url(#linearGradient2585);fill-opacity:1" />
        <path
           d="M 13.96875,-11.125 L 15.5625,-11.125 L 16.269607,-10.417893 L 14.675857,-10.417893 L 13.96875,-11.125 z"
           id="path2710"
           style="fill:url(#linearGradient2587);fill-opacity:1" />
        <path
           d="M 15.5625,-11.125 C 16.263236,-11.142285 16.807643,-10.897983 17.18911,-10.516516 L 17.896217,-9.8094094 C 17.51475,-10.190876 16.970342,-10.435179 16.269607,-10.417893 L 15.5625,-11.125 z"
           id="path2712"
           style="fill:url(#linearGradient2589);fill-opacity:1" />
        <path
           d="M 17.18911,-10.516516 C 18.415922,-9.2897044 17.957455,-6.644214 15.59375,-6.71875 L 16.300857,-6.0116432 C 18.664562,-5.9371073 19.123029,-8.5825976 17.896217,-9.8094094 L 17.18911,-10.516516 z"
           id="path2714"
           style="fill:url(#linearGradient3588);fill-opacity:1" />
        <path
           d="M 15.59375,-6.71875 L 13.96875,-11.125 L 14.675857,-10.417893 L 16.300857,-6.0116432 L 15.59375,-6.71875 z"
           id="path2716"
           style="fill:url(#linearGradient2591);fill-opacity:1" />
        <path
           d="M 15.4375,-6.4375 C 18.434536,-6.3628978 18.668368,-9.3228317 17.29651,-10.694689 L 18.003617,-9.9875826 C 19.375475,-8.6157249 19.141643,-5.655791 16.144607,-5.7303932 L 15.4375,-6.4375 z"
           id="path2696"
           style="fill:url(#linearGradient3590);fill-opacity:1" />
        <path
           d="M 11.15625,-6.65625 L 12.75,-11.03125 L 13.457107,-10.324143 L 11.863357,-5.9491432 L 11.15625,-6.65625 z"
           id="path2722"
           style="fill:url(#linearGradient3592);fill-opacity:1" />
        <path
           d="M 12.75,-11.03125 L 14.375,-6.65625 L 15.082107,-5.9491432 L 13.457107,-10.324143 L 12.75,-11.03125 z"
           id="path2718"
           style="fill:url(#linearGradient2593);fill-opacity:1" />
        <path
           d="M 14.375,-6.65625 L 11.15625,-6.65625 L 11.863357,-5.9491432 L 15.082107,-5.9491432 L 14.375,-6.65625 z"
           id="path2720"
           style="fill:url(#linearGradient2595);fill-opacity:1" />
        <path
           d="M 15.96875,-5.6875 C 19.235011,-5.6249782 19.618583,-9.8213136 17.92037,-11.519527 L 18.627477,-10.81242 C 20.32569,-9.1142068 19.942118,-4.9178714 16.675857,-4.9803932 L 15.96875,-5.6875 z"
           id="path2670"
           style="fill:url(#linearGradient3586);fill-opacity:1" />
        <path
           d="M 16.78125,-3.4375 L 15.96875,-5.6875 L 16.675857,-4.9803932 L 17.488357,-2.7303932 L 16.78125,-3.4375 z"
           id="path2668"
           style="fill:url(#linearGradient3600);fill-opacity:1" />
        <path
           d="M 15.53125,-3.4375 L 16.78125,-3.4375 L 17.488357,-2.7303932 L 16.238357,-2.7303932 L 15.53125,-3.4375 z"
           id="path2666"
           style="fill:url(#linearGradient3602);fill-opacity:1" />
        <path
           d="M 8.75,-3.4375 L 10,-3.4375 L 10.707107,-2.7303932 L 9.4571068,-2.7303932 L 8.75,-3.4375 z"
           id="path2656"
           style="fill:url(#linearGradient3604);fill-opacity:1" />
        <path
           d="M 10,-3.4375 L 10.8125,-5.6875 L 11.519607,-4.9803932 L 10.707107,-2.7303932 L 10,-3.4375 z"
           id="path2658"
           style="fill:url(#linearGradient3606);fill-opacity:1" />
      </g>
      <path
         style="font-size:12px;font-style:normal;font-weight:normal;fill:#333333;fill-opacity:1;stroke:none;stroke-width:1px;stroke-linecap:butt;stroke-linejoin:miter;stroke-opacity:1;font-family:Bitstream Vera Sans"
         d="M 16.1875,-12.175236 L 12.09375,-12.143986 L 8.7499996,-3.3939857 L 9.9999996,-3.3939857 L 10.8125,-5.6439857 L 14.75,-5.6439857 L 15.53125,-3.4252357 L 15.53125,-3.3939857 L 16.78125,-3.3939857 L 15.96875,-5.6439857 C 20.084301,-5.565207 19.623157,-12.247993 16.1875,-12.175236 z M 16.21875,-11.925236 C 19.262779,-11.910965 19.709301,-5.7839571 15.59375,-5.8627357 L 16.375,-3.6752357 L 15.71875,-3.6752357 L 14.875,-5.9252357 L 10.5625,-5.9252357 L 9.7499996,-3.7064857 L 9.1874996,-3.7064857 L 12.28125,-11.862736 L 16.21875,-11.925236 z M 13.59375,-11.331486 L 15.4375,-6.3939857 C 19.362951,-6.2962734 18.548077,-11.404362 15.59375,-11.331486 L 13.59375,-11.331486 z M 12.5,-11.206486 L 10.71875,-6.3314857 L 14.71875,-6.2689857 L 12.96875,-11.206486 L 12.5,-11.206486 z M 13.96875,-11.081486 L 15.5625,-11.081486 C 18.516827,-11.154362 18.69243,-6.5775234 15.59375,-6.6752357 L 13.96875,-11.081486 z M 12.75,-10.987736 L 14.375,-6.6127357 L 11.15625,-6.6127357 L 12.75,-10.987736 z"
         id="path2505" />
    </g>
  </g>
</svg>
